<svg xmlns="http://www.w3.org/2000/svg" viewBox="0 0 150 95">
  <defs>
    <style>
      .a {
        fill: #e7e7e7;
      }

      .b {
        fill: #d1d1d1;
      }
    </style>
  </defs>
  <title>Credit card</title>
  <g>
    <rect class="a" width="150" height="95" rx="5" ry="5"/>
    <g>
      <path class="b" d="M33,68H11a1,1,0,0,0-1,1V80a1,1,0,0,0,1,1H33a1,1,0,0,0,1-1V69A1,1,0,0,0,33,68Z"/>
      <path class="b" d="M69,68H47a1,1,0,0,0-1,1V80a1,1,0,0,0,1,1H69a1,1,0,0,0,1-1V69A1,1,0,0,0,69,68Z"/>
      <path class="b" d="M104,68H82a1,1,0,0,0-1,1V80a1,1,0,0,0,1,1h22a1,1,0,0,0,1-1V69A1,1,0,0,0,104,68Z"/>
      <path class="b" d="M139,68H117a1,1,0,0,0-1,1V80a1,1,0,0,0,1,1h22a1,1,0,0,0,1-1V69A1,1,0,0,0,139,68Z"/>
    </g>
    <g>
      <path class="b" d="M45,46H15a5.09,5.09,0,0,1-5-5.15V19.15A5.09,5.09,0,0,1,15,14H45a5.09,5.09,0,0,1,5,5.15V40.85A5.09,5.09,0,0,1,45,46ZM15,18.57a.57.57,0,0,0-.57.58V40.85a.57.57,0,0,0,.57.58H45a.57.57,0,0,0,.57-.58V19.15a.57.57,0,0,0-.57-.58Z"/>
      <path class="b" d="M31.66,46H28.34a5.09,5.09,0,0,1-5-5.15V19.15a5.09,5.09,0,0,1,5-5.15H45a5.09,5.09,0,0,1,5,5.15v3.41a5.09,5.09,0,0,1-5,5.15H37.23a.57.57,0,0,0-.57.58V40.85A5.09,5.09,0,0,1,31.66,46ZM28.34,18.57a.57.57,0,0,0-.57.58V40.85a.57.57,0,0,0,.57.58h3.31a.57.57,0,0,0,.57-.58V28.3a5.09,5.09,0,0,1,5-5.15H45a.57.57,0,0,0,.57-.58V19.15a.57.57,0,0,0-.57-.58Z"/>
      <path class="b" d="M47.78,36.86H34.44a2.29,2.29,0,0,1,0-4.57H47.78a2.29,2.29,0,0,1,0,4.57Z"/>
      <path class="b" d="M25.56,27.71H12.22a2.29,2.29,0,0,1,0-4.57H25.56a2.29,2.29,0,0,1,0,4.57Z"/>
      <path class="b" d="M25.56,36.86H12.22a2.29,2.29,0,0,1,0-4.57H25.56a2.29,2.29,0,0,1,0,4.57Z"/>
    </g>
    <g>
      <path class="b" d="M119.5,13h20a2.5,2.5,0,0,1,2.5,2.5h0a2.5,2.5,0,0,1-2.5,2.5h-20a2.5,2.5,0,0,1-2.5-2.5h0A2.5,2.5,0,0,1,119.5,13Z"/>
      <path class="b" d="M90.5,13h20a2.5,2.5,0,0,1,2.5,2.5h0a2.5,2.5,0,0,1-2.5,2.5h-20A2.5,2.5,0,0,1,88,15.5h0A2.5,2.5,0,0,1,90.5,13Z"/>
      <path class="b" d="M90.5,25h4A2.5,2.5,0,0,1,97,27.5h0A2.5,2.5,0,0,1,94.5,30h-4A2.5,2.5,0,0,1,88,27.5h0A2.5,2.5,0,0,1,90.5,25Z"/>
      <path class="b" d="M103.5,25h4a2.5,2.5,0,0,1,2.5,2.5h0a2.5,2.5,0,0,1-2.5,2.5h-4a2.5,2.5,0,0,1-2.5-2.5h0A2.5,2.5,0,0,1,103.5,25Z"/>
      <path class="b" d="M116.5,25h14a2.5,2.5,0,0,1,2.5,2.5h0a2.5,2.5,0,0,1-2.5,2.5h-14a2.5,2.5,0,0,1-2.5-2.5h0A2.5,2.5,0,0,1,116.5,25Z"/>
      <path class="b" d="M139.5,25h0a2.5,2.5,0,0,1,2.5,2.5h0a2.5,2.5,0,0,1-2.5,2.5h0a2.5,2.5,0,0,1-2.5-2.5h0A2.5,2.5,0,0,1,139.5,25Z"/>
    </g>
  </g>
</svg>
