<svg xmlns="http://www.w3.org/2000/svg">
  <symbol viewBox="0 0 14 14" id="info">
    <path fill-rule="evenodd" clip-rule="evenodd" d="M12.5 7C12.5 10.0376 10.0376 12.5 7 12.5C3.96243 12.5 1.5 10.0376 1.5 7C1.5 3.96243 3.96243 1.5 7 1.5C10.0376 1.5 12.5 3.96243 12.5 7ZM14 7C14 10.866 10.866 14 7 14C3.13401 14 0 10.866 0 7C0 3.13401 3.13401 0 7 0C10.866 0 14 3.13401 14 7ZM6 5V3H8V5H6ZM6 11V6H8V11H6Z" />
  </symbol>
  <symbol viewBox="0 0 24 24" id="arrow-right">
    <path d="M7.372 2.38359C7.14157 2.61773 7.0125 2.93252 7.0125 3.26038C7.0125 3.58824 7.14157 3.90304 7.372 4.13718L14.0373 12.0283L7.372 19.8569C7.25412 19.9733 7.16057 20.1118 7.09672 20.2645C7.03287 20.4171 7 20.5808 7 20.7462C7 20.9115 7.03287 21.0753 7.09672 21.2279C7.16057 21.3805 7.25412 21.5191 7.372 21.6355C7.48239 21.7507 7.61509 21.8424 7.76208 21.905C7.90907 21.9677 8.06729 22 8.22717 22C8.38706 22 8.54528 21.9677 8.69227 21.905C8.83926 21.8424 8.97196 21.7507 9.08235 21.6355L16.628 12.8676C16.7459 12.7511 16.8394 12.6126 16.9033 12.4599C16.9671 12.3073 17 12.1436 17 11.9782C17 11.8129 16.9671 11.6492 16.9033 11.4965C16.8394 11.3439 16.7459 11.2054 16.628 11.0889L9.08235 2.32096C8.96929 2.21473 8.8363 2.13175 8.69101 2.07677C8.54572 2.02178 8.39096 1.99588 8.2356 2.00053C8.08025 2.00519 7.92733 2.04031 7.78562 2.10389C7.64391 2.16747 7.51617 2.25826 7.40973 2.37106L7.372 2.38359Z" />
  </symbol>
  <symbol viewBox="0 0 32 16" id="arrow-down">
    <path d="M.61.6A2,2,0,0,1,3.42.6L16,11.26,28.57.6a2,2,0,0,1,2.85,0,1.9,1.9,0,0,1,0,2.74l-14,12.07a2,2,0,0,1-2.85,0L.51,3.33A1.9,1.9,0,0,1,.59.66Z"/>
  </symbol>
  <symbol viewBox="0 0 64 66.43" id="purse">
    <g>
      <path d="M61.88,38.91h-1V30a4.21,4.21,0,0,0-1.77-3.44V25.3a3.2,3.2,0,0,0-3.19-3.21h-.74L58,17.93a3.08,3.08,0,0,0-.8-4.26L38.05.53a3,3,0,0,0-4.24.81L30.21,6.66h0L12.79,4.93A3.06,3.06,0,0,0,9.46,7.68L8,22.09H5.63A3.2,3.2,0,0,0,2.44,25.3v.83A4.21,4.21,0,0,0,0,30V62.22a4.2,4.2,0,0,0,4.18,4.21H56.71a4.2,4.2,0,0,0,4.19-4.21v-9h1A2.12,2.12,0,0,0,64,51.14V41A2.12,2.12,0,0,0,61.88,38.91ZM55.93,24a1.31,1.31,0,0,1,1.31,1.31v.48a4.21,4.21,0,0,0-.53,0h-4L53.91,24ZM35.37,2.41A1.16,1.16,0,0,1,37,2.09h0L56.15,15.23a1.18,1.18,0,0,1,.31,1.63l-6,8.89H49l3-4.36A2.22,2.22,0,0,0,52,19a5.31,5.31,0,0,1-.63-3.26,2.22,2.22,0,0,0-1-2.12L40.53,6.85a2.19,2.19,0,0,0-2.31-.11,5.24,5.24,0,0,1-3.25.6,2.22,2.22,0,0,0-2.13,1L21,25.75H19.55Zm.41,16.08A7.79,7.79,0,0,0,28,25.75H23.27L34.38,9.36a.34.34,0,0,1,.32-.15,7.13,7.13,0,0,0,4.42-.82.33.33,0,0,1,.35,0l9.94,6.81a.34.34,0,0,1,.15.32A7.23,7.23,0,0,0,50.41,20a.34.34,0,0,1,0,.35l-3.68,5.42H43.52A7.79,7.79,0,0,0,35.78,18.48Zm5.85,7.27H29.93a5.87,5.87,0,0,1,11.7,0Zm-24.36,0h-4.6l1.11-11.31a.33.33,0,0,1,.21-.28,7.16,7.16,0,0,0,3.49-2.85.33.33,0,0,1,.31-.15l8.77.88ZM11.33,7.87a1.17,1.17,0,0,1,1.27-1.05h0L29,8.44l-1.24,1.82L18,9.28a2.2,2.2,0,0,0-2.09,1,5.27,5.27,0,0,1-2.57,2.1,2.21,2.21,0,0,0-1.42,1.87L10.77,25.75H9.57Zm-7,17.43A1.31,1.31,0,0,1,5.63,24H7.86l-.17,1.76H4.32ZM1.88,30a2.31,2.31,0,0,1,2.3-2.31H56.71A2.31,2.31,0,0,1,59,30v2.63H1.88Zm0,4.52H59v4.43h-9a7.15,7.15,0,0,0-6.42,4v0l0,.06a7.13,7.13,0,0,0-.35.92h0a7.19,7.19,0,0,0,6.82,9.31h9V57.7H1.88ZM59,62.22a2.31,2.31,0,0,1-2.3,2.31H4.18a2.31,2.31,0,0,1-2.3-2.31V59.6H59Zm3.1-11.08a.23.23,0,0,1-.23.23H50.06a5.26,5.26,0,0,1-4.62-2.77,5.44,5.44,0,0,1-.32-.7,5.29,5.29,0,0,1,4.94-7.1H61.88a.23.23,0,0,1,.23.23Z" />
      <path d="M50.28,42.25a3.84,3.84,0,1,0,3.82,3.84A3.83,3.83,0,0,0,50.28,42.25Zm0,5.79a1.95,1.95,0,1,1,1.94-1.95A1.95,1.95,0,0,1,50.28,48Z" />
    </g>
  </symbol>
  <symbol viewBox="0 0 64 70.92" id="mobile">
    <g>
      <path d="M22.1,60.81a3.7,3.7,0,1,0,3.68,3.7A3.69,3.69,0,0,0,22.1,60.81Zm0,5.39a1.68,1.68,0,1,1,1.67-1.68A1.68,1.68,0,0,1,22.1,66.2ZM36.57,22.62a9.75,9.75,0,1,0,9.68,9.75A9.73,9.73,0,0,0,36.57,22.62Zm0,17.48a7.73,7.73,0,1,1,7.67-7.73A7.71,7.71,0,0,1,36.57,40.1Z" />
      <path d="M60.68,16.17H44.19v-12A4.13,4.13,0,0,0,40.08,0h-36A4.13,4.13,0,0,0,0,4.14V66.78a4.13,4.13,0,0,0,4.11,4.14h36a4.13,4.13,0,0,0,4.11-4.14V48.56H60.68A3.34,3.34,0,0,0,64,45.21V19.51A3.34,3.34,0,0,0,60.68,16.17ZM42.19,66.78a2.12,2.12,0,0,1-2.11,2.12h-36A2.12,2.12,0,0,1,2,66.78V4.14A2.12,2.12,0,0,1,4.11,2h36a2.12,2.12,0,0,1,2.11,2.12v12H40V6.27A2.3,2.3,0,0,0,37.76,4H6.44a2.3,2.3,0,0,0-2.29,2.3V57.74A2.3,2.3,0,0,0,6.44,60H37.76A2.3,2.3,0,0,0,40,57.74V48.56h2.14ZM22.1,13.06c-.55,0-1,.45-1,1.56v35.9a1.59,1.59,0,0,0,1,.46,1,1,0,0,0,1-1V48.55H38v9.18a.28.28,0,0,1-.28.28H6.44a.28.28,0,0,1-.28-.28h0V11.45H38v4.71H23.1v-2.1A1,1,0,0,0,22.1,13.06Zm1,8.53H55a8.1,8.1,0,0,0,4,4.05V39.08a8.1,8.1,0,0,0-4,4.05H23.1ZM38,9.43H6.16V6.27A.28.28,0,0,1,6.44,6H37.76a.29.29,0,0,1,.28.28ZM62,45.21a1.32,1.32,0,0,1-1.32,1.32H23.1V45.16H55.19a1.78,1.78,0,0,0,1.64-1.08A6.1,6.1,0,0,1,60,40.87,1.8,1.8,0,0,0,61,39.23V25.49A1.79,1.79,0,0,0,60,23.85a6.11,6.11,0,0,1-3.15-3.2,1.77,1.77,0,0,0-1.64-1.08H23.1V18.19H60.68A1.32,1.32,0,0,1,62,19.51Z" />
    </g>
  </symbol>
  <symbol viewBox="0 0 64 60.1" id="case">
    <path d="M63.81,51.21l-5-21.42a3.49,3.49,0,0,0,1.73-3.86,17.37,17.37,0,0,0-15-13.33V9.74A9.74,9.74,0,0,0,35.78,0H27a9.74,9.74,0,0,0-9.71,9.74v3A17.37,17.37,0,0,0,3.47,25.92,3.49,3.49,0,0,0,5.2,29.79L2,43.37H2L.19,51.21a7.23,7.23,0,0,0,7,8.89H56.78a7.23,7.23,0,0,0,7-8.89ZM19.16,9.74A7.91,7.91,0,0,1,27,1.83h8.73a7.91,7.91,0,0,1,7.89,7.91v2.75H42.33V9.74a6.57,6.57,0,0,0-6.55-6.57H27A6.57,6.57,0,0,0,20.5,9.74v2.75h-.76l-.56,0h0Zm21.34,0v2.75H22.32V9.74A4.74,4.74,0,0,1,27,5h8.73A4.74,4.74,0,0,1,40.5,9.74ZM5.25,26.34A15.55,15.55,0,0,1,18.37,14.45h0l.49-.06h0c.32,0,.64-.05,1-.06H44.1a15.55,15.55,0,0,1,14.65,12,1.65,1.65,0,0,1-3,1.22l0-.09,0-.06a1.71,1.71,0,0,1-.11-.32,12.19,12.19,0,0,0-11.91-9.46H20.38A12.19,12.19,0,0,0,8.47,27.1a1.65,1.65,0,0,1-2,1.24,1.64,1.64,0,0,1-1-.74A1.66,1.66,0,0,1,5.25,26.34ZM61,56.22a5.36,5.36,0,0,1-4.23,2H7.22A5.4,5.4,0,0,1,2,51.63L7,30.2h.24l.15,0,.14,0,.15,0,.13,0,.14,0,.13,0,.14-.06.13-.05.13-.07.12-.06.13-.08.11-.07.12-.09L9,29.44l.11-.1.1-.09.11-.11.09-.1.1-.12.08-.1.09-.13.07-.11.08-.14.06-.11.07-.15,0-.11.07-.18,0-.09c0-.09.06-.19.08-.29a10.37,10.37,0,0,1,10.13-8.05H43.61a10.37,10.37,0,0,1,10.14,8.05,3.17,3.17,0,0,0,.09.31q0,.14.11.28a3.12,3.12,0,0,0,.26.5l.14.21,0,0a3.46,3.46,0,0,0,.34.39l0,0,.19.17,0,0a3.47,3.47,0,0,0,.43.29h0a3.4,3.4,0,0,0,.77.33,3.3,3.3,0,0,0,.55.11l.25,0h0l5,21.42A5.38,5.38,0,0,1,61,56.22Z" />
  </symbol>
  <symbol viewBox="0 0 64 48.8" id="card">
    <g>
      <path d="M61.06,15h-6.3L51.59,2.25A2.93,2.93,0,0,0,48,.09L2.21,12A3,3,0,0,0,.09,15.62l6.76,27A3,3,0,0,0,9.7,44.87a2.87,2.87,0,0,0,.72-.09l.43-.11v1.15a3,3,0,0,0,2.93,3H61.07a3,3,0,0,0,2.93-3V17.94A3,3,0,0,0,61.06,15Zm-8.18,0H45.61l6.82-1.77ZM52,11.38,38.21,15H15.82l34.8-9ZM10.86,42.74,10,43a1.11,1.11,0,0,1-1.34-.8h0L4.49,25.63,10.86,24Zm0-24.8v4.11L4,23.83,2.67,18.37l8.84-2.29A3,3,0,0,0,10.86,17.94ZM2.22,16.57l-.35-1.41A1.13,1.13,0,0,1,2,14.31a1.1,1.1,0,0,1,.68-.52L48.47,1.9a1.11,1.11,0,0,1,1.34.8h0l.35,1.41Zm60,29.25a1.12,1.12,0,0,1-1.11,1.12H13.79a1.12,1.12,0,0,1-1.11-1.12V17.94a1.12,1.12,0,0,1,1.11-1.13H61.07a1.12,1.12,0,0,1,1.11,1.13Z" />
      <path d="M36.42,37.87H16.49a.93.93,0,0,0,0,1.86H36.42a.93.93,0,0,0,0-1.86ZM51.66,21.5a5.91,5.91,0,0,0-3.52,1.16,5.92,5.92,0,0,0-3.52-1.16,6.13,6.13,0,0,0,0,12.26,5.91,5.91,0,0,0,3.52-1.16,5.91,5.91,0,0,0,3.52,1.16,6.13,6.13,0,0,0,0-12.26Zm-6,6.42V28c0,.08,0,.16,0,.23v.05a6.11,6.11,0,0,0,1.14,3,4.12,4.12,0,0,1-2.2.63,4.27,4.27,0,0,1,0-8.53,4.12,4.12,0,0,1,2.2.63,6.11,6.11,0,0,0-1.14,3V27q0,.12,0,.23v.07Q45.63,27.63,45.64,27.92Zm6,4a4.14,4.14,0,0,1-2.94-1.23l0,0-.13-.14-.12-.14h0a4.32,4.32,0,0,1,0-5.43h0l.12-.14,0,0,.1-.11,0,0a4.14,4.14,0,0,1,2.94-1.23,4.27,4.27,0,0,1,0,8.54ZM23,22.11H19a3.46,3.46,0,0,0-3.42,3.48v4.08A3.46,3.46,0,0,0,19,33.16h4a3.46,3.46,0,0,0,3.42-3.48V25.59A3.45,3.45,0,0,0,23,22.11Zm1.59,6h-2a.93.93,0,0,0,0,1.86h1.92A1.6,1.6,0,0,1,23,31.3H19A1.6,1.6,0,0,1,17.44,30h1.92a.93.93,0,0,0,0-1.86h-2v-.81h2a.93.93,0,0,0,0-1.86H17.41A1.61,1.61,0,0,1,19,24h4a1.61,1.61,0,0,1,1.59,1.49H22.65a.93.93,0,0,0,0,1.86h2ZM57.89,42H26.05a.93.93,0,0,0,0,1.86H57.89a.93.93,0,0,0,0-1.86ZM20.22,42H16.49a.93.93,0,0,0,0,1.86h3.73a.93.93,0,0,0,0-1.86Z" />
    </g>
  </symbol>
  <symbol viewBox="0 0 64 64.8" id="bank">
    <path d="M63.21,20.12,43.28,7h0L33,.29a1.79,1.79,0,0,0-2,0L.79,20.12a1.75,1.75,0,0,0-.72,2,1.7,1.7,0,0,0,1.64,1.25H6.3v6a1.53,1.53,0,0,0,1.19,1.5v1.63A1.52,1.52,0,0,0,9,34h.12V52.6H9a1.52,1.52,0,0,0-1.51,1.53v1.63a1.53,1.53,0,0,0-1.19,1.5v1.87H3.08A1.84,1.84,0,0,0,1.26,61v1.95A1.84,1.84,0,0,0,3.08,64.8H60.92a1.84,1.84,0,0,0,1.82-1.86V61a1.84,1.84,0,0,0-1.82-1.86H57.7V57.26a1.53,1.53,0,0,0-1.2-1.5V54.13A1.52,1.52,0,0,0,55,52.6h-.12V34H55a1.52,1.52,0,0,0,1.5-1.53V30.82a1.53,1.53,0,0,0,1.2-1.5v-6h4.58a1.7,1.7,0,0,0,1.64-1.25A1.75,1.75,0,0,0,63.21,20.12ZM8.4,29H8.12V27.45h8.83V29ZM27,30.82v1.63A1.52,1.52,0,0,0,28.47,34h.13V52.6h-.13A1.52,1.52,0,0,0,27,54.13v1.63a1.53,1.53,0,0,0-1.2,1.5v1.87h-7V57.26a1.53,1.53,0,0,0-1.2-1.5V54.13a1.52,1.52,0,0,0-1.5-1.53h-.12V34h.12a1.52,1.52,0,0,0,1.5-1.53V30.82a1.53,1.53,0,0,0,1.2-1.5V27.45h7v1.87A1.53,1.53,0,0,0,27,30.82Zm19.47,0v1.63A1.52,1.52,0,0,0,47.94,34h.12V52.6h-.12a1.52,1.52,0,0,0-1.5,1.53v1.63a1.53,1.53,0,0,0-1.2,1.5v1.87h-7V57.26a1.53,1.53,0,0,0-1.2-1.5V54.13a1.52,1.52,0,0,0-1.5-1.53h-.12V34h.12A1.52,1.52,0,0,0,37,32.45V30.82a1.53,1.53,0,0,0,1.2-1.5V27.45h7v1.87A1.53,1.53,0,0,0,46.43,30.82ZM29.5,32.13h-.72V30.85h6.44v1.28H34.5a.92.92,0,0,0-.91.93V53.53a.92.92,0,0,0,.91.93h.72v1.39H28.78V54.45h.72a.92.92,0,0,0,.91-.93V33.05A.92.92,0,0,0,29.5,32.13ZM36.13,57.7a.86.86,0,0,0,.29,0v1.49H27.59V57.65a.91.91,0,0,0,.28,0ZM36.41,29H27.59V27.45h8.83ZM15,54.45h.72v1.39H9.31V54.45H10a.92.92,0,0,0,.91-.93V33.05a.92.92,0,0,0-.91-.93H9.31V30.85h6.44v1.28H15a.92.92,0,0,0-.91.93V53.53a.92.92,0,0,0,.91.93Zm-6.91,3.2a.89.89,0,0,0,.29,0h8.26a.87.87,0,0,0,.29,0v1.49H8.12ZM60.93,61v2H3.07V61ZM55.6,57.7a.88.88,0,0,0,.29,0v1.49H47.06V57.65a.89.89,0,0,0,.28,0ZM49,32.13h-.72V30.85h6.44v1.28H54a.92.92,0,0,0-.91.93V53.53a.92.92,0,0,0,.91.93h.72v1.39H48.25V54.45H49a.92.92,0,0,0,.91-.93V33.05A.92.92,0,0,0,49,32.13ZM55.88,29H47.06V27.45h8.83Zm0-3.4H8.12V23.32H55.88v2.27ZM10.3,21.47l21.35-14a.63.63,0,0,1,.69,0l21.35,14Zm46.76,0L33.33,5.91a2.43,2.43,0,0,0-2.66,0L6.94,21.47H2.08L32,1.85l9.07,6h0L61.92,21.47Z" />
  </symbol>
  <symbol viewBox="0 0 64 57.9" id="gem">
    <path d="M55.31,27.18l-2-3.39h0l-5.44-9.33a1.3,1.3,0,0,0-1.12-.64H17.22a1.29,1.29,0,0,0-1.12.64L8.69,27.18a1.29,1.29,0,0,0,.09,1.44L25.34,50.08h0L31,57.4a1.29,1.29,0,0,0,2,0l22.2-28.78a1.29,1.29,0,0,0,.09-1.44Zm-10-11.49L39.36,26,33.6,15.69ZM37.76,26.91H26.24L32,16.66ZM30.4,15.69,24.64,26l-6-10.27ZM17,16.61l6,10.3H11Zm10,32.66h0L11.26,28.78H23.93l6.15,24.4ZM32,53.15,25.85,28.78H38.14Zm1.92,0,6.15-24.4H52.74Zm7-26.27,6-10.3,4.82,8.26h0l1.19,2ZM32,0a.93.93,0,0,0-.93.93V5.17a.93.93,0,0,0,1.87,0V.93A.93.93,0,0,0,32,0ZM54.63,7.3a.93.93,0,0,0-1.32,0h0l-3,3a.93.93,0,0,0,1.32,1.32l3-3a.93.93,0,0,0,0-1.32ZM63.07,29H58.83a.93.93,0,0,0,0,1.87h4.23a.93.93,0,1,0,0-1.87ZM5.17,29H.93a.93.93,0,0,0,0,1.87H5.17a.93.93,0,0,0,0-1.87Zm8.52-18.71-3-3A.93.93,0,0,0,9.37,8.62h0l3,3a.93.93,0,0,0,1.32,0h0A.93.93,0,0,0,13.69,10.29Z" />
  </symbol>
  <symbol viewBox="0 0 32 32" id="check-circle">
    <g>
      <path d="M32,16A16,16,0,1,1,16,0,16,16,0,0,1,32,16Z" />
      <path d="M31.1,4.16c-.16-.33-.86-1.48-1.43-1.44a41.69,41.69,0,0,0-5.55,4.53q-4.51,4.1-8.78,8.44l-5.72-5L7.46,12.81a120.48,120.48,0,0,1,9.31,10.13C20.32,17.06,26.12,8.61,31.1,4.16Z" />
    </g>
  </symbol>
  <symbol viewBox="0 0 32 32" id="close">
    <polygon points="32 1.59 30.41 0 16.11 14.53 1.59 0 0 1.59 14.53 16.11 0 30.41 1.59 32 16.11 17.7 30.41 32 32 30.41 17.7 16.11 32 1.59"></polygon>
  </symbol>
  <symbol viewBox="0 0 16 12" id="checkmark">
    <path d="M2.29289 3.70711L0.707107 5.29289C0.316582 5.68342 0.316583 6.31658 0.707107 6.70711L5.32913 11.3291C5.70521 11.7052 6.30987 11.7211 6.7052 11.3653L15.2166 3.7051C15.6424 3.32183 15.6598 2.65982 15.2547 2.2547L13.6548 0.654803C13.2853 0.285314 12.6936 0.262591 12.2969 0.602653L6.7031 5.39735C6.30636 5.73741 5.71469 5.71469 5.3452 5.3452L3.70711 3.70711C3.31658 3.31658 2.68342 3.31658 2.29289 3.70711Z" />
  </symbol>
  <symbol viewBox="0 0 14 14" id="user">
    <path d="M7,0A4.37,4.37,0,0,0,3,4c0,2.21.51,4,4,4s4-1.79,4-4A4.37,4.37,0,0,0,7,0ZM9.52,6.21C9.22,6.59,8.59,7,7,7s-2.22-.41-2.52-.79A3.61,3.61,0,0,1,4,4a3.24,3.24,0,0,1,.88-1.94A2.89,2.89,0,0,1,7,1,2.89,2.89,0,0,1,9.12,2.06,3.24,3.24,0,0,1,10,4,3.61,3.61,0,0,1,9.52,6.21Z"/>
    <path d="M14,14H13a3.43,3.43,0,0,0-1.63-2.72A7.58,7.58,0,0,0,7,10a7.58,7.58,0,0,0-4.37,1.28A3.43,3.43,0,0,0,1,14H0c0-2.76,3.13-5,7-5S14,11.24,14,14Z"/>
  </symbol>
</svg>