<svg xmlns="http://www.w3.org/2000/svg" viewBox="0 0 180 4" width="180" height="4">
  <path d="M0 2a2 2 0 0 1 2-2h1a2 2 0 1 1 0 4H2a2 2 0 0 1-2-2zm7 0a2 2 0 0 1 2-2h2a2 2 0 1 1 0 4H9a2 2 0 0 1-2-2zm8 0a2 2 0 0 1 2-2h2a2 2 0 1 1 0 4h-2a2 2 0 0 1-2-2zm8 0a2 2 0 0 1 2-2h2a2 2 0 1 1 0 4h-2a2 2 0 0 1-2-2zm8 0a2 2 0 0 1 2-2h2a2 2 0 1 1 0 4h-2a2 2 0 0 1-2-2zm8 0a2 2 0 0 1 2-2h2a2 2 0 1 1 0 4h-2a2 2 0 0 1-2-2zm8 0a2 2 0 0 1 2-2h2a2 2 0 1 1 0 4h-2a2 2 0 0 1-2-2zm8 0a2 2 0 0 1 2-2h2a2 2 0 1 1 0 4h-2a2 2 0 0 1-2-2zm8 0a2 2 0 0 1 2-2h2a2 2 0 1 1 0 4h-2a2 2 0 0 1-2-2zm8 0a2 2 0 0 1 2-2h2a2 2 0 1 1 0 4h-2a2 2 0 0 1-2-2zm8 0a2 2 0 0 1 2-2h2a2 2 0 1 1 0 4h-2a2 2 0 0 1-2-2zm8 0a2 2 0 0 1 2-2h2a2 2 0 1 1 0 4h-2a2 2 0 0 1-2-2zm8 0a2 2 0 0 1 2-2h2a2 2 0 1 1 0 4h-2a2 2 0 0 1-2-2zm8 0a2 2 0 0 1 2-2h2a2 2 0 1 1 0 4h-2a2 2 0 0 1-2-2zm8 0a2 2 0 0 1 2-2h2a2 2 0 1 1 0 4h-2a2 2 0 0 1-2-2zm8 0a2 2 0 0 1 2-2h2a2 2 0 1 1 0 4h-2a2 2 0 0 1-2-2zm8 0a2 2 0 0 1 2-2h2a2 2 0 1 1 0 4h-2a2 2 0 0 1-2-2zm8 0a2 2 0 0 1 2-2h2a2 2 0 1 1 0 4h-2a2 2 0 0 1-2-2zm8 0a2 2 0 0 1 2-2h2a2 2 0 1 1 0 4h-2a2 2 0 0 1-2-2zm8 0a2 2 0 0 1 2-2h2a2 2 0 1 1 0 4h-2a2 2 0 0 1-2-2zm8 0a2 2 0 0 1 2-2h2a2 2 0 1 1 0 4h-2a2 2 0 0 1-2-2zm8 0a2 2 0 0 1 2-2h2a2 2 0 1 1 0 4h-2a2 2 0 0 1-2-2zm8 0a2 2 0 0 1 2-2h1a2 2 0 1 1 0 4h-1a2 2 0 0 1-2-2z" fill="url(#a)" fill-rule="evenodd" />
  <linearGradient id="a" gradientTransform="matrix(-178 0 0 -32040 180 16024)" gradientUnits="userSpaceOnUse" x2="1">
    <stop offset="0" stop-opacity="0" />
    <stop offset="0" stop-color="#ffdd00" />
    <stop offset="1" stop-color="#ffdd00" stop-opacity="0" />
  </linearGradient>
</svg>