<svg xmlns="http://www.w3.org/2000/svg" viewBox="0 0 170 32">
  <defs>
    <style>
      .a {
        fill: #fd0;
      }

      .b {
        fill: #fff;
      }
    </style>
  </defs>
  <title>Logo</title>
  <g>
    <g>
      <path class="a" d="M157.48,13.94H154v-2h3.48a3,3,0,0,1,2.84,4H161v1h-1.28l-1.82,2H161v1h-4l-1.21,1.32a1,1,0,0,0,.74,1.66H160v2h-3.48a3,3,0,0,1-2.24-5H153v-1h2.19l1.82-2h-4v-1h4.92l.3-.33A1,1,0,0,0,157.48,13.94Z"/>
      <path class="a" d="M157.08,4.83h-.76A13.06,13.06,0,0,0,143.39,18v.77a13.06,13.06,0,0,0,12.93,13.13h.76A13.07,13.07,0,0,0,170,18.73V18A13.06,13.06,0,0,0,157.08,4.83Zm0,4.63a8.44,8.44,0,0,1,8.36,8.5v.77a8.44,8.44,0,0,1-8.36,8.49h-.76A8.44,8.44,0,0,1,148,18.72V18a8.44,8.44,0,0,1,8.36-8.5Z"/>
      <path class="a" d="M141,9h-8v5h3.49V31.85h4.57V9.06H141Z"/>
    </g>
    <path class="b" d="M89,.15h4.57V18.34h0v.53A13.07,13.07,0,0,1,80.62,32h-.76A13.06,13.06,0,0,1,66.94,18.87v-.77A13.06,13.06,0,0,1,79.86,5h.76A12.75,12.75,0,0,1,89,8.11ZM89,18a8.44,8.44,0,0,0-8.36-8.4h-.76a8.44,8.44,0,0,0-8.37,8.5v.77a8.44,8.44,0,0,0,8.37,8.49h.76A8.44,8.44,0,0,0,89,18.87Z"/>
    <path class="b" d="M54.6,27.24h-.76a8.13,8.13,0,0,1-4.23-1.19L61.74,13.73h0L65,10.42A12.8,12.8,0,0,0,54.6,5h-.76A13,13,0,0,0,41,18v.76A13,13,0,0,0,53.84,31.85h.76a12.71,12.71,0,0,0,9.2-4l-3.2-3.25A8.17,8.17,0,0,1,54.6,27.24ZM45.53,18a8.39,8.39,0,0,1,8.31-8.45h.76a8.07,8.07,0,0,1,3.84,1l-12,12.15a8.48,8.48,0,0,1-1-3.92V18Z"/>
    <path class="b" d="M111.56,18.73a8.44,8.44,0,0,0,8.36,8.49h7.23v4.64h-7.23A13.06,13.06,0,0,1,107,18.73V.19h4.56V8.94h9.37v4.63h-9.37Z"/>
    <g>
      <path class="b" d="M103.11,2.89a2.7,2.7,0,1,1-5.39,0,2.7,2.7,0,1,1,5.39,0Z"/>
      <path class="b" d="M98.14,8.94h4.57V31.73H98.14V8.94Z"/>
    </g>
    <path class="b" d="M39,5h-.4A12.88,12.88,0,0,0,26,18V31.85h4.45V18A8.31,8.31,0,0,1,38.6,9.58H39Z"/>
    <path class="b" d="M4.58,18.7V13.15A8.46,8.46,0,0,1,13,4.64h0a8.39,8.39,0,0,1,7.65,5L24,6.28A12.92,12.92,0,0,0,13,0h0A13.1,13.1,0,0,0,0,13.15V18.7A13.1,13.1,0,0,0,12.86,31.85H22V27.21H13A8.46,8.46,0,0,1,4.58,18.7Z"/>
  </g>
</svg>
