<svg xmlns="http://www.w3.org/2000/svg" viewBox="0 0 170 32">
  <defs>
    <style>
      .a {
        fill: #fd0;
      }

      .b {
        fill: #fff;
      }
    </style>
  </defs>
  <title>Logo</title>
  <g>
    <path class="a" d="M157.07,9.46a8.44,8.44,0,0,1,8.36,8.5v.77a8.44,8.44,0,0,1-8.36,8.49h-.76A8.44,8.44,0,0,1,148,18.72V18a8.44,8.44,0,0,1,8.36-8.5Zm0-4.63h-.76A13.06,13.06,0,0,0,143.39,18v.77a13.06,13.06,0,0,0,12.93,13.13h.76A13.07,13.07,0,0,0,170,18.73V18A13.06,13.06,0,0,0,157.07,4.83Z"/>
    <path class="a" d="M141.06,9.06h-4.57V31.85h4.57Z"/>
    <path class="a" d="M141,9h-8v5h8Z"/>
    <path class="b" d="M80.63,9.6A8.44,8.44,0,0,1,89,18.1v.77a8.44,8.44,0,0,1-8.36,8.49h-.76a8.44,8.44,0,0,1-8.37-8.49V18.1a8.44,8.44,0,0,1,8.37-8.5Zm0-4.63h-.76A13.06,13.06,0,0,0,66.94,18.11v.77A13.06,13.06,0,0,0,79.87,32h.76A13.07,13.07,0,0,0,93.55,18.87v-.77A13.06,13.06,0,0,0,80.63,5Z"/>
    <path class="b" d="M93.56.15H89V18.34h4.57Z"/>
    <path class="b" d="M102.7,8.94H98.13V31.73h4.57Z"/>
    <path class="b" d="M120.93,8.94H109v4.63h11.93Z"/>
    <path class="b" d="M54.6,27.24h-.76a8.13,8.13,0,0,1-4.23-1.19L61.74,13.73h0L65,10.42A12.8,12.8,0,0,0,54.6,5h-.76A13,13,0,0,0,41,18v.76A13,13,0,0,0,53.84,31.86h.76a12.71,12.71,0,0,0,9.2-4l-3.2-3.25A8.17,8.17,0,0,1,54.6,27.24ZM45.53,18a8.39,8.39,0,0,1,8.31-8.45h.76a8.07,8.07,0,0,1,3.84,1l-12,12.15a8.48,8.48,0,0,1-1-3.92V18Z"/>
    <path class="b" d="M119.93,27.22a8.44,8.44,0,0,1-8.36-8.49V.19H107V18.73a13.06,13.06,0,0,0,12.93,13.13h7.22V27.22Z"/>
    <path class="b" d="M100.42,5.63a2.72,2.72,0,0,0,2.7-2.74,2.7,2.7,0,1,0-5.39,0A2.72,2.72,0,0,0,100.42,5.63Z"/>
    <path class="b" d="M39,5h-.4A12.88,12.88,0,0,0,26,18V31.86h4.45V18A8.31,8.31,0,0,1,38.6,9.58H39Z"/>
    <path class="b" d="M4.58,18.7V13.15A8.46,8.46,0,0,1,13,4.64h0a8.39,8.39,0,0,1,7.65,5L24,6.28A12.92,12.92,0,0,0,13,0h0A13.1,13.1,0,0,0,0,13.15V18.7A13.1,13.1,0,0,0,12.86,31.85H22V27.21H13A8.46,8.46,0,0,1,4.58,18.7Z"/>
  </g>
</svg>
