<svg xmlns="http://www.w3.org/2000/svg" viewBox="0 0 148 148">
  <path fill="#F00000" fill-opacity="0.05" fill-rule="evenodd" clip-rule="evenodd" d="M23.3836 23.4352C42.2241 4.59243 72.88 4.59172 91.7212 23.4352C110.561 42.2779 110.561 72.9375 91.7212 91.7803C82.3004 101.202 69.9265 105.913 57.5523 105.913C45.1784 105.913 32.8045 101.201 23.3836 91.7803C4.54306 72.9372 4.54306 42.2779 23.3836 23.4352ZM26.3628 88.8011C43.5604 106.001 71.5445 106.001 88.7421 88.8011C105.94 71.6005 105.94 43.6142 88.7424 26.4144C80.1435 17.8141 68.8482 13.5145 57.5526 13.5145C46.257 13.5145 34.9618 17.8141 26.3628 26.4144C9.16492 43.6142 9.16492 71.6009 26.3628 88.8011Z"/>
  <path fill="#F00000" fill-opacity="0.05" fill-rule="evenodd" clip-rule="evenodd" d="M68.4034 1.01232C60.1016 -0.559501 51.5184 -0.300903 43.3091 1.78807C33.3003 4.30256 24.2432 9.4475 16.8048 16.8985C14.6019 19.1052 12.6156 21.4479 10.8458 23.8999C5.16875 31.736 1.60109 40.824 0.412422 50.611C0.404185 50.6788 0.399346 50.7462 0.397698 50.8131C-0.134191 55.3366 -0.132544 59.9117 0.402538 64.4349C0.404803 64.4936 0.409539 64.5526 0.416746 64.6119C1.4171 72.8127 4.08798 80.5219 8.27113 87.4143C10.6168 91.2969 13.4613 94.9597 16.8048 98.309C25.5257 107.044 36.4755 112.611 48.5733 114.484C51.5642 114.955 54.5851 115.191 57.6062 115.191C61.5803 115.191 65.5538 114.783 69.4589 113.968C77.9908 112.216 85.8898 108.59 92.7602 103.282L103.185 113.708C102.646 114.586 102.352 115.596 102.352 116.654C102.352 118.162 102.94 119.581 104.006 120.648L129.703 146.348C130.804 147.449 132.251 148 133.697 148C135.144 148 136.59 147.449 137.692 146.348L146.348 137.691C148.551 135.487 148.551 131.903 146.348 129.7L120.651 104.001C118.771 102.12 115.888 101.85 113.713 103.18L103.287 92.7529C104.797 90.7945 106.164 88.7602 107.387 86.6644C111.34 79.9222 113.863 72.4236 114.813 64.463C114.817 64.4355 114.819 64.408 114.822 64.3806C115.353 59.86 115.351 55.2879 114.817 50.7676C114.815 50.7442 114.812 50.7208 114.81 50.6974C113.867 42.8373 111.391 35.4274 107.521 28.7526C105.07 24.5094 102.035 20.515 98.414 16.8881C90.1174 8.57839 79.8038 3.13504 68.4034 1.01232ZM4.59804 64.1018C5.04159 67.7373 5.83963 71.2687 6.9759 74.663C7.49615 76.2156 8.08951 77.7487 8.75607 79.2571C11.3866 85.1977 15.1158 90.6322 19.8446 95.3615C28.4929 104.011 39.3944 109.067 50.6766 110.531C50.7781 110.543 50.8798 110.556 50.9815 110.568C51.0011 110.571 51.0206 110.574 51.04 110.576C55.3295 111.103 59.6712 111.111 63.9623 110.601C64.026 110.587 64.0908 110.576 64.1568 110.568C65.1446 110.449 66.1248 110.304 67.0965 110.134C75.9438 108.547 84.4654 104.724 91.7421 98.6659C92.0045 98.4472 92.2666 98.2277 92.5248 98.0041C92.5521 97.9804 92.5792 97.9565 92.6061 97.9325L92.673 97.8736C92.9495 97.6326 93.2246 97.3899 93.4955 97.144C93.5315 97.111 93.5674 97.0775 93.6032 97.044L93.6137 97.0342C93.6504 97 93.687 96.9658 93.7241 96.932C93.9625 96.7129 94.2007 96.4935 94.4342 96.2716C94.7477 95.9725 95.0592 95.6698 95.3675 95.3615L95.3765 95.3521L95.3783 95.3503C95.3863 95.342 95.3941 95.3338 95.4024 95.3258C95.6839 95.0436 95.9636 94.7571 96.2408 94.4661C96.2575 94.4487 96.2739 94.431 96.2904 94.4133L96.2946 94.4088L96.311 94.391C97.1753 93.4812 98.0179 92.5312 98.8253 91.5533C98.8349 91.5417 98.8451 91.5309 98.8553 91.5201L98.8579 91.5174L98.8797 91.494C105.37 83.6299 109.407 74.2098 110.63 63.9635C110.639 63.893 110.65 63.8238 110.665 63.7559C111.137 59.6572 111.137 55.5138 110.664 51.4151C110.648 51.3447 110.635 51.2727 110.627 51.1994C109.19 39.2248 103.914 28.3773 95.367 19.8293C87.2914 11.7528 77.2516 6.80875 66.7712 4.99714C65.9327 4.85497 65.0878 4.73203 64.2374 4.62861C64.1772 4.62131 64.1181 4.61154 64.0598 4.5994C59.8367 4.08954 55.5639 4.08208 51.3394 4.57703C51.2494 4.60025 51.1568 4.61776 51.062 4.62909C49.0096 4.87572 46.9905 5.23566 45.0104 5.70602C35.7814 7.93061 27.0341 12.6384 19.8442 19.8293C16.5297 23.1444 13.7067 26.8058 11.4088 30.745C8.60431 35.57 6.61821 40.7446 5.45024 46.065C5.08792 47.7242 4.80231 49.4099 4.59485 51.1186C4.59011 51.1576 4.58435 51.1963 4.57755 51.2346C4.07459 55.4603 4.07418 59.7352 4.57611 63.961C4.58497 64.0073 4.59228 64.0542 4.59804 64.1018ZM106.05 110.614L96.0118 100.575C96.83 99.8418 97.631 99.083 98.414 98.2987C99.1616 97.5498 99.8843 96.7852 100.582 96.006L110.619 106.044L106.05 110.614ZM143.369 134.711L134.713 143.368C134.153 143.928 133.242 143.928 132.682 143.368L106.985 117.668C106.714 117.397 106.565 117.037 106.565 116.653C106.565 116.269 106.715 115.908 106.985 115.637L115.087 107.535L115.089 107.533L115.641 106.98C115.921 106.7 116.289 106.56 116.657 106.56C117.025 106.56 117.392 106.7 117.672 106.98L143.369 132.68C143.929 133.24 143.929 134.151 143.369 134.711Z"/>
  <path fill="#EFB428" d="M47.3456 57.7386C46.8717 58.1395 46.5738 58.7207 46.5738 59.3673C46.5738 60.014 46.8717 60.5952 47.3456 60.9961C46.9331 61.3451 46.3875 61.5574 45.789 61.5574C44.503 61.5574 43.4604 60.5769 43.4604 59.3673C43.4604 58.1578 44.503 57.1772 45.789 57.1772C46.3875 57.1772 46.9331 57.3896 47.3456 57.7386Z"/>
  <path fill="#F00000" d="M53.0237 53.6762H50.1197L48.6517 47.9508C48.4673 47.2314 47.7286 46.7955 47.0054 46.9788L43.6585 47.8276C43.4327 47.8848 43.2964 48.1133 43.3539 48.3378C43.4115 48.5623 43.6412 48.6977 43.8669 48.6406L47.2138 47.7919C47.4866 47.7229 47.7647 47.8871 47.8342 48.1581L47.9968 48.7924L25.8792 54.4012L25.7166 53.7671C25.6829 53.6357 25.7027 53.4992 25.7722 53.3827C25.8418 53.2662 25.9529 53.1835 26.0849 53.1501L43.8669 48.6406C44.0926 48.5834 44.229 48.355 44.1714 48.1305C44.1138 47.906 43.8843 47.7705 43.6585 47.8276L25.8764 52.337C25.153 52.5205 24.7146 53.2549 24.8991 53.9743L28.0188 66.1416C28.1748 66.7498 28.7267 67.1555 29.3308 67.1555C29.4411 67.1555 29.5533 67.1419 29.6651 67.1136L29.8648 67.0629V67.5792C29.8648 68.3216 30.4721 68.9255 31.2186 68.9255H53.0237C53.7702 68.9255 54.3775 68.3216 54.3775 67.5792V55.0225C54.3775 54.2801 53.7702 53.6762 53.0237 53.6762ZM29.8649 66.1971L29.4567 66.3006C29.1842 66.3697 28.9058 66.2054 28.8363 65.9343L26.9267 58.4866L29.8649 57.7415V66.1971ZM29.8649 55.0225V56.8757L26.7183 57.6736L26.0877 55.2142L30.1633 54.1806C29.9768 54.4114 29.8649 54.7041 29.8649 55.0225ZM49.2491 53.6761H45.8959L49.0443 52.8777L49.2491 53.6761ZM48.2053 49.6052L48.8359 52.0647L42.4817 53.6762H32.1526L48.2053 49.6052ZM53.0237 68.0865H31.2187C30.9373 68.0865 30.7084 67.8589 30.7084 67.5792V55.0225C30.7084 54.7428 30.9373 54.5152 31.2187 54.5152H53.0237C53.3051 54.5152 53.5339 54.7428 53.5339 55.0225V67.5792C53.5339 67.8589 53.3051 68.0865 53.0237 68.0865Z"/>
  <path fill="#F00000" d="M41.6549 64.0034H32.4638C32.2309 64.0034 32.042 64.1912 32.042 64.4229C32.042 64.6546 32.2309 64.8424 32.4638 64.8424H41.6549C41.8878 64.8424 42.0767 64.6546 42.0767 64.4229C42.0767 64.1912 41.8878 64.0034 41.6549 64.0034Z"/>
  <path fill="#F00000" d="M48.6845 56.6267C48.0786 56.6267 47.5179 56.8212 47.0609 57.1499C46.5901 56.8106 46.0252 56.6267 45.4357 56.6267C43.9044 56.6267 42.6587 57.8656 42.6587 59.3884C42.6588 60.9113 43.9046 62.1502 45.4358 62.1502C46.0252 62.1502 46.5901 61.9662 47.0609 61.6269C47.5179 61.9557 48.0787 62.1502 48.6845 62.1502C50.2157 62.1502 51.4614 60.9113 51.4614 59.3884C51.4614 57.8656 50.2157 56.6267 48.6845 56.6267ZM45.9109 59.5194C45.9114 59.5301 45.9121 59.5409 45.9128 59.5516C45.9148 59.5868 45.9175 59.6218 45.9208 59.6567C45.9216 59.6649 45.9224 59.673 45.9233 59.6812C45.9747 60.1718 46.1546 60.6326 46.4482 61.0263C46.146 61.2117 45.7975 61.3111 45.4358 61.3111C44.3697 61.3111 43.5024 60.4486 43.5024 59.3884C43.5024 58.3283 44.3697 57.4657 45.4358 57.4657C45.7975 57.4657 46.146 57.5651 46.4482 57.7505C46.1547 58.1441 45.9747 58.605 45.9233 59.0956C45.9224 59.1037 45.9216 59.1118 45.9208 59.12C45.9175 59.1549 45.9148 59.1899 45.9128 59.2251C45.9121 59.2359 45.9114 59.2465 45.9109 59.2573C45.9088 59.3008 45.9075 59.3445 45.9075 59.3883C45.9075 59.4322 45.9088 59.4758 45.9109 59.5194ZM48.6846 61.3112C48.1567 61.3112 47.6778 61.0995 47.3286 60.7573C47.3214 60.7502 47.3143 60.7431 47.3072 60.736C47.2911 60.7197 47.2751 60.7032 47.2596 60.6864C47.2554 60.6817 47.2512 60.677 47.2469 60.6723C47.2287 60.6521 47.2107 60.6317 47.1933 60.6108C47.1932 60.6107 47.1932 60.6106 47.193 60.6104C46.9171 60.278 46.7512 59.852 46.7512 59.3883C46.7512 58.9247 46.9171 58.4987 47.1931 58.1662C47.1932 58.1662 47.1932 58.1661 47.1933 58.166C47.2107 58.145 47.2287 58.1246 47.247 58.1043C47.2512 58.0997 47.2554 58.0951 47.2596 58.0905C47.2752 58.0736 47.2912 58.057 47.3073 58.0408C47.3143 58.0336 47.3214 58.0266 47.3285 58.0196C47.6778 57.6774 48.1567 57.4657 48.6846 57.4657C49.7506 57.4657 50.6179 58.3282 50.6179 59.3884C50.6179 60.4486 49.7506 61.3112 48.6846 61.3112Z"/>
  <path fill="#F00000" d="M35.4697 56.8994H33.6197C32.7497 56.8994 32.042 57.6033 32.042 58.4685V60.3084C32.0419 61.1736 32.7497 61.8774 33.6197 61.8774H35.4697C36.3397 61.8774 37.0475 61.1736 37.0475 60.3084V58.4685C37.0475 57.6033 36.3397 56.8994 35.4697 56.8994ZM36.2038 59.6138H35.3039C35.071 59.6138 34.8821 59.8016 34.8821 60.0333C34.8821 60.265 35.0709 60.4528 35.3039 60.4528H36.1892C36.1216 60.7864 35.8247 61.0385 35.4697 61.0385H33.6197C33.2646 61.0385 32.9677 60.7865 32.9001 60.4528H33.7854C34.0184 60.4528 34.2073 60.265 34.2073 60.0333C34.2073 59.8016 34.0184 59.6138 33.7854 59.6138H32.8856V59.2502H33.7854C34.0184 59.2502 34.2073 59.0625 34.2073 58.8307C34.2073 58.5991 34.0184 58.4112 33.7854 58.4112H32.8885C32.918 58.0354 33.2343 57.7384 33.6197 57.7384H35.4697C35.855 57.7384 36.1713 58.0354 36.2009 58.4112H35.3039C35.071 58.4112 34.8821 58.599 34.8821 58.8307C34.8821 59.0624 35.0709 59.2502 35.3039 59.2502H36.2038V59.6138Z"/>
  <path fill="#F00000" d="M51.5592 65.8492H36.872C36.6391 65.8492 36.4502 66.037 36.4502 66.2687C36.4502 66.5004 36.639 66.6882 36.872 66.6882H51.5592C51.7922 66.6882 51.9811 66.5004 51.9811 66.2687C51.9811 66.037 51.7922 65.8492 51.5592 65.8492Z"/>
  <path fill="#F00000" d="M34.1828 65.8492H32.4638C32.2309 65.8492 32.042 66.037 32.042 66.2687C32.042 66.5004 32.2308 66.6882 32.4638 66.6882H34.1828C34.4157 66.6882 34.6046 66.5004 34.6046 66.2687C34.6046 66.037 34.4157 65.8492 34.1828 65.8492Z"/>
  <path fill="#EFB428" d="M80.8036 51.2302C80.8082 51.1655 80.8105 51.1002 80.8105 51.0343C80.8105 49.5113 79.573 48.2766 78.0466 48.2766C76.5202 48.2766 75.2827 49.5113 75.2827 51.0343C75.2827 51.1002 75.285 51.1655 75.2895 51.2302H80.8036Z"/>
  <path fill="#F00000" fill-rule="evenodd" clip-rule="evenodd" d="M82.7879 59.8621C82.7879 58.9185 83.5556 58.1508 84.4993 58.1508C85.443 58.1508 86.2108 58.9185 86.2108 59.8621C86.2108 60.8056 85.443 61.5733 84.4993 61.5733C83.5556 61.5733 82.7879 60.8056 82.7879 59.8621ZM83.6316 59.8621C83.6316 60.3405 84.0209 60.7297 84.4993 60.7297C84.9779 60.7297 85.3672 60.3405 85.3672 59.8621C85.3672 59.3836 84.9779 58.9944 84.4993 58.9944C84.0209 58.9944 83.6316 59.3837 83.6316 59.8621Z"/>
  <path fill="#F00000" fill-rule="evenodd" clip-rule="evenodd" d="M89.6977 56.6631H89.2546V52.6732C89.2546 52.0415 88.9402 51.4823 88.46 51.1424V50.5992C88.46 49.8111 87.8188 49.1701 87.0308 49.1701H86.7L87.9656 47.3131C88.3898 46.6907 88.2284 45.8392 87.606 45.415L79.0181 39.5632C78.7166 39.3577 78.353 39.2818 77.9943 39.3499C77.6358 39.4178 77.3252 39.6212 77.1198 39.9228L75.5 42.2994L74.2938 42.1787C74.2757 42.1744 74.2572 42.1713 74.2381 42.1694L67.7003 41.5237C66.9508 41.4497 66.2805 41.9992 66.2064 42.7488L65.572 49.1701H64.4917C63.7035 49.1701 63.0624 49.8111 63.0624 50.5992V50.9698C62.4177 51.2666 61.9688 51.9182 61.9688 52.6732V67.0509C61.9688 68.0846 62.8098 68.9255 63.8436 68.9255H87.3798C88.4135 68.9255 89.2546 68.0846 89.2546 67.0509V63.061H89.6977C90.2206 63.061 90.6459 62.6357 90.6459 62.1129V57.6113C90.6459 57.0885 90.2206 56.6631 89.6977 56.6631ZM71.654 42.7604L67.6174 42.3631C67.3303 42.3344 67.0744 42.545 67.046 42.8318L66.259 50.7986L69.7073 50.7986L74.9602 43.0913L71.654 42.7604ZM87.0308 50.0137C87.3537 50.0136 87.6163 50.2763 87.6163 50.5992V50.8141C87.5388 50.8043 87.46 50.7987 87.3798 50.7987H85.59L86.125 50.0137H87.0308ZM77.8168 40.3978C77.8955 40.2824 78.0143 40.2046 78.1514 40.1786C78.1842 40.1724 78.2171 40.1693 78.2498 40.1693C78.3537 40.1693 78.4552 40.2004 78.543 40.2602L87.1309 46.112C87.369 46.2742 87.4308 46.5999 87.2685 46.838L84.5692 50.7985H81.4704C81.3476 48.9924 79.8397 47.5602 78.0027 47.5602C76.1656 47.5602 74.6577 48.9924 74.5349 50.7986H70.7281L77.8168 40.3978ZM78.0027 48.4038C79.3743 48.4038 80.5038 49.458 80.6245 50.7986H75.3807C75.5016 49.458 76.6309 48.4038 78.0027 48.4038ZM63.906 50.5992C63.906 50.2762 64.1688 50.0135 64.4917 50.0135H65.4886L65.4112 50.7986H63.906V50.5992ZM62.8124 52.6732C62.8124 52.1047 63.275 51.6421 63.8436 51.6421H87.3798C87.9485 51.6421 88.411 52.1047 88.411 52.6732V53.8436H62.8124V52.6732ZM88.411 67.0509C88.411 67.6194 87.9485 68.082 87.3798 68.082H63.8436C63.275 68.082 62.8124 67.6194 62.8124 67.0509V65.8805H65.0871C65.0969 65.8805 65.1067 65.8802 65.1162 65.8796H67.7589C67.7685 65.8802 67.7783 65.8805 67.788 65.8805H88.411V67.0509ZM62.8124 65.0371H64.3403V65.0362H68.3595V65.0371H88.411V63.061H84.4003C82.6362 63.061 81.201 61.626 81.201 59.8621C81.201 59.5317 81.2514 59.213 81.3446 58.913L81.345 58.9119C81.3889 58.7715 81.4425 58.6355 81.5044 58.5041L81.5105 58.4905L81.517 58.4764L81.5224 58.4658C82.042 57.3997 83.1366 56.6631 84.4004 56.6631H88.411V54.6871H62.8124V65.0371ZM89.8024 62.1128C89.8024 62.1705 89.7554 62.2175 89.6977 62.2175H84.4004C83.5073 62.2175 82.7287 61.718 82.3294 60.9839C82.3112 60.9505 82.2939 60.9166 82.2773 60.8824C82.2442 60.8137 82.2143 60.7433 82.1879 60.6711C82.0952 60.4187 82.0448 60.1462 82.0448 59.8621C82.0448 59.578 82.0953 59.3055 82.1879 59.0531C82.2144 58.981 82.2442 58.9105 82.2773 58.8418C82.2939 58.8075 82.3112 58.7737 82.3294 58.7403C82.7287 58.0061 83.5073 57.5067 84.4004 57.5067H89.6977C89.7553 57.5067 89.8024 57.5536 89.8024 57.6113V62.1128Z"/>
</svg>
