<svg width="67" height="12" viewBox="0 0 67 12" fill="none" xmlns="http://www.w3.org/2000/svg">
  <path fill-rule="evenodd" clip-rule="evenodd" d="M6 0L4.314 4.18737L0 4.57263L3.276 7.56L2.292 12L6 9.64421L9.708 12L8.7246 7.56L12 4.57263L7.686 4.18737L6 0Z" fill="#FFDD00"/>
  <path fill-rule="evenodd" clip-rule="evenodd" d="M33.4285 0L31.7425 4.18737L27.4285 4.57263L30.7045 7.56L29.7205 12L33.4285 9.64421L37.1365 12L36.1531 7.56L39.4285 4.57263L35.1145 4.18737L33.4285 0Z" fill="#FFDD00"/>
  <path fill-rule="evenodd" clip-rule="evenodd" d="M19.7144 0L18.0284 4.18737L13.7144 4.57263L16.9904 7.56L16.0064 12L19.7144 9.64421L23.4224 12L22.439 7.56L25.7144 4.57263L21.4004 4.18737L19.7144 0Z" fill="#FFDD00"/>
  <path fill-rule="evenodd" clip-rule="evenodd" d="M47.1428 0L45.4568 4.18737L41.1428 4.57263L44.4188 7.56L43.4348 12L47.1428 9.64421L50.8508 12L49.8674 7.56L53.1428 4.57263L48.8288 4.18737L47.1428 0Z" fill="#FFDD00"/>
  <path fill-rule="evenodd" clip-rule="evenodd" d="M60.8572 0L59.1712 4.18737L54.8572 4.57263L58.1332 7.56L57.1492 12L60.8572 9.64421L64.5652 12L63.5818 7.56L66.8572 4.57263L62.5432 4.18737L60.8572 0Z" fill="#FFDD00"/>
</svg>
