<svg width="251" height="305" viewBox="0 0 251 305" fill="none" xmlns="http://www.w3.org/2000/svg">
  <defs>
    <radialGradient id="paint0_radial" cx="0" cy="0" r="1" gradientUnits="userSpaceOnUse" gradientTransform="translate(125.05 47.5726) scale(47.6045 47.5724)">
      <stop stop-color="white" />
      <stop offset="1" stop-color="#231F20" />
    </radialGradient>
    <radialGradient id="paint1_radial" cx="0" cy="0" r="1" gradientUnits="userSpaceOnUse" gradientTransform="translate(125.05 47.5726) scale(47.6045 47.5724)">
      <stop stop-color="white" />
      <stop offset="1" stop-color="#231F20" />
    </radialGradient>
    <radialGradient id="paint2_radial" cx="0" cy="0" r="1" gradientUnits="userSpaceOnUse" gradientTransform="translate(125.05 47.5726) scale(47.6045 47.5724)">
      <stop stop-color="white" />
      <stop offset="1" stop-color="#07BDFF" />
    </radialGradient>
    <radialGradient id="paint3_radial" cx="0" cy="0" r="1" gradientUnits="userSpaceOnUse" gradientTransform="translate(125.163 63.4301) scale(92.1235 92.0615)">
      <stop stop-color="#A1B6AB" />
      <stop offset="1" stop-color="#627D6E" />
    </radialGradient>
    <radialGradient id="paint4_radial" cx="0" cy="0" r="1" gradientUnits="userSpaceOnUse" gradientTransform="translate(126.372 70.076) scale(100.386 36.8068)">
      <stop stop-color="#DDE4B9" />
      <stop offset="1" stop-color="#B5C399" />
    </radialGradient>
    <linearGradient id="paint5_linear" x1="125.163" y1="57.6273" x2="125.163" y2="409.657" gradientUnits="userSpaceOnUse">
      <stop stop-color="#FFFF00" />
      <stop offset="0.834" stop-color="#FFFF00" stop-opacity="0" />
    </linearGradient>
  </defs>
  <path fill="#416F7E" d="M192.771 234.442L79.5502 255.535C75.9232 256.209 72.4367 253.82 71.7612 250.197L59.7431 185.769C59.0676 182.145 61.4587 178.66 65.0848 177.984L178.305 156.892C181.932 156.216 185.417 158.607 186.094 162.228L198.114 226.657C198.787 230.282 196.396 233.767 192.771 234.442Z" />
  <path fill="#CF4A5D" d="M166.293 229.056C171.218 229.056 175.211 225.066 175.211 220.145C175.211 215.223 171.218 211.233 166.293 211.233C161.368 211.233 157.375 215.223 157.375 220.145C157.375 225.066 161.368 229.056 166.293 229.056Z" />
  <path fill="#F8D173" d="M177.026 227.056C181.951 227.056 185.943 223.067 185.943 218.145C185.943 213.224 181.951 209.234 177.026 209.234C172.102 209.234 168.109 213.224 168.109 218.145C168.109 223.067 172.102 227.056 177.026 227.056Z" />
  <path fill="#124552" d="M100.224 211.537L76.6953 215.921L77.9191 222.48L101.447 218.096L100.224 211.537Z" />
  <path fill="#124552" d="M141.066 219.397L79.4922 230.87L80.6791 237.231L142.253 225.758L141.066 219.397Z" />
  <path fill="#124552" d="M127.92 206.387L104.391 210.769L105.614 217.327L129.143 212.946L127.92 206.387Z" />
  <path fill="#124552" d="M155.655 201.201L132.127 205.585L133.351 212.144L156.879 207.761L155.655 201.201Z" />
  <path fill="#124552" d="M183.366 196.038L159.838 200.422L161.062 206.981L184.59 202.597L183.366 196.038Z" />
  <path fill="#F8D173" d="M98.1016 202.306L76.9597 206.245C75.5488 206.508 74.1905 205.576 73.9275 204.166L71.822 192.877C71.5582 191.466 72.4894 190.109 73.9021 189.846L95.0422 185.908C96.454 185.644 97.8123 186.575 98.0753 187.985L100.182 199.274C100.445 200.686 99.5134 202.042 98.1016 202.306Z" />
  <path stroke="#D5B566" stroke-width="0.8824" stroke-miterlimit="10" d="M81.1895 188.488L84.2488 204.888" />
  <path stroke="#D5B566" stroke-width="0.8824" stroke-miterlimit="10" d="M88.3008 187.165L91.3593 203.561" />
  <path stroke="#D5B566" stroke-width="0.8824" stroke-miterlimit="10" d="M99.9318 197.892L73.6894 202.894" />
  <path stroke="#D5B566" stroke-width="0.8824" stroke-miterlimit="10" d="M98.3116 189.196L72.0684 194.197" />
  <path fill="white" d="M153.495 177.849C153.52 178.213 153.44 178.513 153.254 178.748C153.069 178.982 152.794 179.133 152.427 179.201C152.029 179.276 151.683 179.192 151.39 178.952C151.098 178.711 150.907 178.352 150.818 177.874L150.757 177.551C150.699 177.238 150.703 176.952 150.77 176.694C150.838 176.436 150.963 176.224 151.144 176.06C151.326 175.894 151.551 175.785 151.821 175.735C152.178 175.669 152.484 175.715 152.737 175.876C152.99 176.034 153.167 176.287 153.268 176.633L152.822 176.716C152.734 176.455 152.613 176.277 152.461 176.18C152.311 176.084 152.12 176.057 151.889 176.101C151.605 176.153 151.402 176.3 151.279 176.539C151.158 176.779 151.134 177.092 151.206 177.479L151.267 177.805C151.335 178.17 151.465 178.447 151.658 178.634C151.851 178.821 152.085 178.89 152.359 178.838C152.606 178.792 152.784 178.702 152.895 178.566C153.006 178.429 153.058 178.218 153.049 177.932L153.495 177.849ZM155.283 177.212L154.493 177.36L154.747 178.721L154.3 178.805L153.672 175.438L154.787 175.23C155.166 175.16 155.473 175.192 155.709 175.327C155.946 175.461 156.096 175.693 156.157 176.023C156.196 176.233 156.173 176.426 156.088 176.603C156.005 176.779 155.869 176.925 155.682 177.04L156.739 178.321L156.744 178.349L156.268 178.438L155.283 177.212ZM154.425 176.997L155.107 176.869C155.327 176.828 155.492 176.739 155.6 176.601C155.71 176.462 155.747 176.297 155.711 176.106C155.672 175.898 155.58 175.75 155.434 175.662C155.29 175.574 155.101 175.551 154.866 175.594L154.187 175.72L154.425 176.997ZM158.833 176.35L157.374 176.622L157.597 177.815L159.292 177.499L159.359 177.862L157.221 178.26L156.593 174.894L158.708 174.5L158.776 174.865L157.105 175.177L157.307 176.259L158.766 175.987L158.833 176.35ZM159.912 177.759L159.284 174.392L160.234 174.215C160.527 174.161 160.798 174.177 161.047 174.265C161.297 174.352 161.504 174.504 161.671 174.721C161.839 174.936 161.952 175.199 162.012 175.509L162.052 175.724C162.111 176.041 162.101 176.331 162.023 176.593C161.945 176.854 161.805 177.071 161.6 177.241C161.398 177.411 161.145 177.526 160.844 177.585L159.912 177.759ZM159.796 174.675L160.288 177.313L160.755 177.226C161.098 177.162 161.344 177.006 161.494 176.758C161.645 176.51 161.684 176.189 161.611 175.796L161.574 175.6C161.503 175.218 161.357 174.938 161.137 174.76C160.919 174.581 160.644 174.52 160.314 174.579L159.796 174.675ZM163.496 177.091L163.052 177.174L162.424 173.807L162.868 173.725L163.496 177.091ZM166.007 173.518L164.925 173.719L165.485 176.721L165.043 176.803L164.483 173.802L163.403 174.003L163.335 173.638L165.939 173.153L166.007 173.518ZM154.596 183.748C154.621 184.111 154.54 184.411 154.354 184.647C154.17 184.88 153.894 185.032 153.527 185.1C153.13 185.174 152.784 185.091 152.49 184.851C152.198 184.61 152.008 184.251 151.918 183.773L151.858 183.449C151.8 183.136 151.804 182.851 151.87 182.593C151.939 182.334 152.064 182.123 152.245 181.958C152.426 181.792 152.652 181.684 152.921 181.634C153.279 181.567 153.584 181.614 153.838 181.774C154.09 181.933 154.268 182.185 154.369 182.531L153.923 182.615C153.834 182.354 153.714 182.175 153.562 182.079C153.412 181.983 153.221 181.956 152.989 181.999C152.706 182.052 152.503 182.198 152.38 182.438C152.259 182.677 152.234 182.991 152.306 183.378L152.367 183.704C152.435 184.069 152.566 184.345 152.759 184.533C152.952 184.72 153.185 184.788 153.46 184.737C153.706 184.691 153.885 184.6 153.995 184.465C154.107 184.328 154.158 184.116 154.15 183.831L154.596 183.748ZM157.098 183.478L155.688 183.74L155.535 184.678L155.077 184.763L155.735 181.157L156.123 181.085L158.039 184.211L157.584 184.296L157.098 183.478ZM155.754 183.35L156.898 183.137L156.031 181.669L155.754 183.35ZM159.473 182.535L158.682 182.682L158.936 184.044L158.49 184.127L157.862 180.761L158.976 180.553C159.356 180.483 159.663 180.515 159.899 180.649C160.136 180.784 160.285 181.016 160.347 181.346C160.386 181.555 160.363 181.749 160.278 181.926C160.195 182.102 160.059 182.248 159.871 182.363L160.929 183.644L160.934 183.672L160.458 183.761L159.473 182.535ZM158.614 182.319L159.297 182.192C159.517 182.151 159.681 182.062 159.789 181.923C159.899 181.785 159.936 181.62 159.901 181.429C159.862 181.221 159.77 181.073 159.624 180.985C159.48 180.897 159.291 180.874 159.056 180.916L158.376 181.043L158.614 182.319ZM161.41 183.583L160.782 180.217L161.733 180.04C162.025 179.985 162.296 180.002 162.546 180.089C162.795 180.177 163.003 180.329 163.169 180.545C163.337 180.761 163.451 181.024 163.51 181.333L163.55 181.548C163.609 181.866 163.599 182.155 163.521 182.417C163.444 182.679 163.303 182.895 163.099 183.065C162.896 183.235 162.644 183.35 162.342 183.41L161.41 183.583ZM161.294 180.499L161.787 183.138L162.254 183.051C162.596 182.987 162.842 182.831 162.992 182.583C163.143 182.334 163.182 182.014 163.109 181.621L163.072 181.424C163.001 181.042 162.855 180.762 162.636 180.584C162.417 180.405 162.143 180.345 161.812 180.403L161.294 180.499Z" />
  <path fill="white" d="M110.047 197.793C112.279 193.973 111.366 189.076 107.906 186.315C107.629 186.093 107.525 185.715 107.698 185.456C107.87 185.196 108.297 185.174 108.616 185.43C112.515 188.541 113.545 194.059 111.029 198.364C110.823 198.719 110.418 198.85 110.164 198.671C109.907 198.489 109.87 198.1 110.047 197.793Z" />
  <path fill="white" d="M107.397 196.628C108.933 193.864 108.283 190.38 105.854 188.356C105.594 188.138 105.494 187.776 105.658 187.527C105.823 187.278 106.241 187.262 106.55 187.522C109.379 189.881 110.136 193.936 108.346 197.155C108.151 197.51 107.756 197.645 107.513 197.472C107.27 197.297 107.234 196.925 107.397 196.628Z" />
  <path fill="white" d="M104.817 196.072C105.954 193.974 105.466 191.351 103.648 189.801C103.428 189.614 103.342 189.303 103.483 189.09C103.502 189.061 103.523 189.031 103.543 189C103.684 188.787 104.049 188.778 104.322 189.012C106.513 190.879 107.101 194.037 105.732 196.567C105.562 196.884 105.215 197.007 105.009 196.859C104.98 196.838 104.95 196.817 104.92 196.797C104.711 196.647 104.681 196.328 104.817 196.072Z" />
  <path fill="white" d="M69.3485 210.176L68.9023 218.06L72.115 225.012C72.2056 225.208 72.5012 225.113 72.4623 224.902L69.7112 210.153C69.6722 209.94 69.3612 209.959 69.3485 210.176Z" />
  <path fill="#A1F2FF" d="M125.05 95.1449C151.341 95.1449 172.654 73.846 172.654 47.5724C172.654 21.2989 151.341 -1.93573e-06 125.05 -1.93573e-06C98.7586 -1.93573e-06 77.4453 21.2989 77.4453 47.5724C77.4453 73.846 98.7586 95.1449 125.05 95.1449Z" />
  <path fill="url(#paint0_radial)" d="M125.05 95.1449C151.341 95.1449 172.654 73.846 172.654 47.5724C172.654 21.2989 151.341 -1.93573e-06 125.05 -1.93573e-06C98.7586 -1.93573e-06 77.4453 21.2989 77.4453 47.5724C77.4453 73.846 98.7586 95.1449 125.05 95.1449Z" />
  <path fill="url(#paint1_radial)" d="M125.05 95.1449C151.341 95.1449 172.654 73.846 172.654 47.5724C172.654 21.2989 151.341 -1.93573e-06 125.05 -1.93573e-06C98.7586 -1.93573e-06 77.4453 21.2989 77.4453 47.5724C77.4453 73.846 98.7586 95.1449 125.05 95.1449Z" />
  <path fill="url(#paint2_radial)" d="M125.05 95.1449C151.341 95.1449 172.654 73.846 172.654 47.5724C172.654 21.2989 151.341 -1.93573e-06 125.05 -1.93573e-06C98.7586 -1.93573e-06 77.4453 21.2989 77.4453 47.5724C77.4453 73.846 98.7586 95.1449 125.05 95.1449Z" />
  <path fill="#90A99C" d="M125.163 99.6756C194.271 99.6756 250.295 83.4479 250.295 63.4299C250.295 43.412 194.271 27.1843 125.163 27.1843C56.0547 27.1843 0.03125 43.412 0.03125 63.4299C0.03125 83.4479 56.0547 99.6756 125.163 99.6756Z" />
  <path fill="url(#paint3_radial)" d="M125.163 99.6756C194.271 99.6756 250.295 83.4479 250.295 63.4299C250.295 43.412 194.271 27.1843 125.163 27.1843C56.0547 27.1843 0.03125 43.412 0.03125 63.4299C0.03125 83.4479 56.0547 99.6756 125.163 99.6756Z" />
  <path fill="#D1DBBE" d="M125.163 99.6756C194.271 99.6756 250.295 85.0706 250.295 67.0545C250.295 49.0384 194.271 34.4334 125.163 34.4334C56.0547 34.4334 0.03125 49.0384 0.03125 67.0545C0.03125 85.0706 56.0547 99.6756 125.163 99.6756Z" />
  <path fill="url(#paint4_radial)" d="M125.163 99.6756C194.271 99.6756 250.295 85.0706 250.295 67.0545C250.295 49.0384 194.271 34.4334 125.163 34.4334C56.0547 34.4334 0.03125 49.0384 0.03125 67.0545C0.03125 85.0706 56.0547 99.6756 125.163 99.6756Z" />
  <path fill="#3F616F" d="M125.163 92.0812C160.906 92.0812 189.882 84.5276 189.882 75.2098C189.882 65.8919 160.906 58.3383 125.163 58.3383C89.4192 58.3383 60.4434 65.8919 60.4434 75.2098C60.4434 84.5276 89.4192 92.0812 125.163 92.0812Z" />
  <path fill="#FFFF00" d="M125.163 91.0084C156.712 91.0084 182.288 84.3408 182.288 76.1159C182.288 67.8911 156.712 61.2235 125.163 61.2235C93.613 61.2235 68.0371 67.8911 68.0371 76.1159C68.0371 84.3408 93.613 91.0084 125.163 91.0084Z" />
  <path fill="url(#paint5_linear)" opacity="0.23" d="M182.289 76.1159H125.163H68.0378L17.0293 304.948L125.163 301.745L233.297 304.948L182.289 76.1159Z" />
  <path fill="white" d="M86.8144 27.1842C86.8144 27.1842 94.5218 5.88991 120.364 1.66095C120.364 1.66095 104.345 5.88991 98.1489 26.4285L86.8144 27.1842Z" />
  <path fill="#88F2FF" d="M86.8144 27.1842C86.8144 27.1842 94.5218 5.88991 120.364 1.66095C120.364 1.66095 104.345 5.88991 98.1489 26.4285L86.8144 27.1842Z" />
  <path fill="#2AFFFF" d="M166.768 27.9608C166.768 27.9608 159.973 14.2908 152.383 9.7048C152.383 9.7048 156.884 15.7905 158.825 26.9025L166.768 27.9608Z" />
  <path fill="#CDFAFF" d="M109.029 7.02258C109.029 7.02258 100.49 14.1204 97.6196 25.7498L93.3125 26.2029C93.3125 26.2029 99.8864 10.6471 109.029 7.02258Z" />
  <path fill="#A6B686" opacity="0.29" d="M60.9318 94.5423L62.6346 89.6202C62.6346 89.6202 24.551 84.8756 31.2002 65.544C37.8495 46.2132 72.0939 40.172 72.0939 40.172C72.0939 40.172 15.2949 42.8143 1.86046 64.404C-2.88548 72.031 14.2766 82.0385 29.8991 87.1265C45.5233 92.2145 60.9318 94.5423 60.9318 94.5423Z" />
  <path fill="#A6B686" opacity="0.29" d="M188.392 94.5423L186.689 89.6202C186.689 89.6202 224.772 84.8756 218.122 65.544C211.473 46.2132 177.229 40.172 177.229 40.172C177.229 40.172 234.027 42.8143 247.462 64.404C252.208 72.031 235.046 82.0385 219.422 87.1265C203.801 92.2145 188.392 94.5423 188.392 94.5423Z" />
</svg>