<svg xmlns="http://www.w3.org/2000/svg" viewBox="0 0 719.01148 130.00367">
  <defs>
    <style>
      .a {
        fill: #fff;
      }

      .b {
        fill: #ffed00;
      }

      .c {
        fill: #b9aa00;
        opacity: 0.53;
        isolation: isolate;
      }
    </style>
  </defs>
  <title>Logotype</title>
  <g>
    <g>
      <g>
        <g>
          <path class="a" d="M59.61147,96.6c3-.6,6-2.4,9-4.2l.6-.6-1.8-1.8a26.54258,26.54258,0,0,1-9,3,35.27126,35.27126,0,0,1-22.2-1.2l-2.4-.6A38.999,38.999,0,0,0,59.61147,96.6Z"/>
          <path class="a" d="M75.21147,123.6a21.31266,21.31266,0,0,1-5.4-2.4c-.6,0-.6-.6-.6-1.2,1.2,0,1.8.6,3,1.2a6.52376,6.52376,0,0,0,3,.6,1.29047,1.29047,0,0,0,1.2-1.2c0-.6-.6-.6-1.2-.6l-6-1.2a2.2042,2.2042,0,0,1-1.8-.6c-1.2-.6-2.4-1.2-1.2-3-1.2.6-1.8,1.2-3,1.8a16.61132,16.61132,0,0,1-5.4.6c-.6,0-1.8,0-1.8.6h0a1.29047,1.29047,0,0,0,1.2,1.2,16.61128,16.61128,0,0,0,5.4-.6c.6,0,1.2-.6,1.2,0V120a15.03906,15.03906,0,0,1-2.4,4.2c0,.6-.6.6-.6,1.2h0a1.125,1.125,0,0,0,1.8,0,12.55182,12.55182,0,0,0,2.4-3.6c0-.6,0-1.8.6-1.8s1.2.6,1.2,1.8c0,2.4,1.2,4.2,1.8,6a.58764.58764,0,0,0,.6.6c.6.6,1.2,2.4,2.4,1.2s0-2.4-.6-3c-.6-1.2-1.8-2.4-2.4-3.6,0-.6-.6-1.2,0-1.2s.6,0,1.2.6l3.6,3.6a1.97949,1.97949,0,0,0,3,0C77.01147,124.2,75.81147,123.6,75.21147,123.6Z"/>
          <path class="a" d="M83.01147,100.8c-1.8-.6-2.4-1.2-4.8-2.4a63.51734,63.51734,0,0,1-6-4.2,8.67187,8.67187,0,0,0-1.2,4.2c0,.6-.6,1.2-1.2,1.8a15.48368,15.48368,0,0,1-12.6,1.8c-5.4-1.2-10.8-2.4-16.2-4.8a78.57547,78.57547,0,0,0-16.2-3.6,27.50454,27.50454,0,0,0-20.4,4.8c-7.8,6.6-3.6,16.8,0,19.8h.6c-3.6-4.2-4.8-10.2-1.8-15,5.4-7.2,13.8-7.8,22.2-6a168.37877,168.37877,0,0,1,18.6,4.8c7.8,3,20.4,7.2,29.4,6.6,0,1.8.6,4.2,2.4,5.4.6,0,.6.6,1.2,0,.6,0,.6-.6,0-1.2,0-.6-.6-.6-.6-1.2-.6-1.2-1.8-1.8-1.8-3a7.33413,7.33413,0,0,0,5.4-1.8V111a3.99316,3.99316,0,0,1-4.2,4.2h-5.4a2.2042,2.2042,0,0,0-1.8.6h0a.831.831,0,0,0,0,1.2c0,.6.6,0,.6,0a5.07372,5.07372,0,0,1,4.2,0,16.61132,16.61132,0,0,0,5.4.6,4.05125,4.05125,0,0,0,3.6-2.4,11.03126,11.03126,0,0,0-1.2-9.6A20.31188,20.31188,0,0,0,83.01147,100.8Z"/>
        </g>
        <g>
          <path class="b" d="M76.41147,97.2c-.6,0-.6-.6-1.2-.6C75.81147,97.2,75.81147,97.2,76.41147,97.2Z"/>
          <path class="b" d="M80.01147,99.6Z"/>
          <path class="b" d="M77.61147,95.4c-.6,1.2,0,2.4,1.8,2.4,1.2,0,1.8-.6,3-.6,4.2-1.8,11.4-7.2,13.2-9a23.736,23.736,0,0,0,6-9c-.6.6-1.2,1.8-1.8,2.4-2.4,2.4-4.8,4.2-7.8,4.8C95.01147,77.4,82.41147,85.8,77.61147,95.4Z"/>
          <path class="b" d="M105.81148,0a53.51824,53.51824,0,0,0-53.4,53.4,50.72208,50.72208,0,0,0,15,36.6c1.2-.6,2.4-1.8,4.2-3a47.79,47.79,0,0,0,10.2-9c-4.2,4.8-8.4,9-12.6,13.8,1.2.6,1.8,1.8,3,2.4a78.17283,78.17283,0,0,1,6-9,31.57545,31.57545,0,0,1,8.4-7.2,30.42871,30.42871,0,0,1,9.6-5.4,76.66235,76.66235,0,0,0,12.6-8.4c3.6-3,3.6-4.8,1.8-9a43.53174,43.53174,0,0,1-3-5.4c3,2.4,4.2,6,8.4,6.6-.6,1.8-1.2,3.6-1.8,6-.6,1.8-1.2,4.2-1.8,6a46.4437,46.4437,0,0,1-4.2,9.6q-.9,1.8-1.8,3.6c-2.4,4.2-7.8,10.2-13.8,15-5.4,2.4-9,4.2-9.6,4.2a55.45105,55.45105,0,0,0,22.8,5.4,53.51824,53.51824,0,0,0,53.4-53.4C158.61147,24,134.61147,0,105.81148,0Zm-19.2,42c0-.6.6-.6,1.2-.6s.6.6.6,1.2h0c0,.6-.6,1.8-.6,2.4-.6.6,0,1.2.6,1.8a2.2042,2.2042,0,0,0,.6-1.8,17.96408,17.96408,0,0,1,2.4-4.8c0-.6.6-.6,1.2-.6v1.2c-.6,1.2-1.2,1.8-1.8,3s-1.2,1.8-1.2,3a4.54873,4.54873,0,0,0,2.4-1.2l3.6-1.8c.6,0,1.8,0,1.8.6,0,1.2-.6,1.2-1.2,1.2-1.2.6-3,.6-4.2,1.2-.6,0-1.8,0-1.2,1.2a16.6113,16.6113,0,0,0,5.4-.6c.6,0,1.8-1.2,1.8,0s-1.2,1.2-1.8,1.2h-6c-.6,0-1.2,0-.6,1.2,0,.6.6.6,1.2,1.2,1.2,0,2.4.6,4.2,1.2.6,0,.6.6.6,1.2s-.6.6-1.2.6c-1.2,0-1.8-.6-3-1.2-1.2-1.2-3-1.2-4.8-1.2,0-2.4-.6-4.2-.6-6S86.01147,42.6,86.61147,42Zm12.6,14.4c-3.6,0-6.6,1.8-10.2,2.4C90.21147,55.2,96.81148,54,99.21147,56.4Zm-34.8,18.6a4.54871,4.54871,0,0,0-2.4-1.2l-1.8,1.8c-1.2,0-1.8-.6-1.2-1.8.6-1.8,2.4-1.8,3.6-1.2s2.4,0,2.4-1.2v-.6c0-1.8-1.2-4.2-3-4.8a2.2042,2.2042,0,0,1-.6-1.8h0a1.125,1.125,0,0,1,1.8,0h0a13.11542,13.11542,0,0,1,1.8,3,5.409,5.409,0,0,1,.6,3,9.09934,9.09934,0,0,0,1.8-7.8c0-.6,0-.6.6-1.2.6,0,.6,0,1.2.6.6,1.2.6,2.4,0,3-.6,1.2-1.2,3-1.8,4.2a6.85924,6.85924,0,0,0,4.2-4.8c0-.6.6-1.2,1.2-.6s.6.6.6,1.2c0,1.2-3,4.2-3.6,5.4a18.23318,18.23318,0,0,0,4.2-3,1.125,1.125,0,0,1,1.8,0c.6.6,0,1.2-.6,1.2-1.2.6-7.8,3-9.6,7.2Zm10.2,0c0,.6-4.8,5.4-3.6,10.8-3.6-3,0-11.4,3-12,.6,0,.6.6.6,1.2Zm7.8.6a5.40938,5.40938,0,0,1-3.6,3.6c-.6,0,0-.6,0-1.2v-.6c0-.6.6-1.2.6-1.8.6-1.2.6-3-.6-3.6-.6,0-.6-.6-1.2-.6h-1.8c-3,.6-5.4,2.4-7.8,3.6a16.17408,16.17408,0,0,1,4.8-4.2c.6,0,.6-.6,1.2-.6a21.56946,21.56946,0,0,1,6.6-1.2C83.61147,70.8,82.41147,75.6,82.41147,75.6Zm2.4-13.2c-.6-3.6-.6-7.2,1.2-10.2l.6-.6c.6,0,.6.6.6,1.2h0a25.98639,25.98639,0,0,1-.6,3c-.6,3.6,0,4.2,3.6,4.2a36.90538,36.90538,0,0,0,7.8-.6,16.75166,16.75166,0,0,1-10.8,3.6C86.61147,64.2,85.41147,63.6,84.81147,62.4Zm21-6.6a13.68619,13.68619,0,0,1-3.6,7.2,28.88012,28.88012,0,0,1-9.6,7.2,163.78509,163.78509,0,0,0,12.6-18A7.61,7.61,0,0,1,105.81148,55.8Zm22.8-14.4c0,.6-.6,1.8-1.2,1.8h0c-.6,0,0-3.6,0-3.6C128.01147,39.6,128.61147,40.2,128.61147,41.4Zm4.2,13.8c-1.2,4.8-6,7.2-10.8,6h-.6C126.21147,60.6,129.21147,57.6,132.81148,55.2Zm-19.8-22.2h0a1.825,1.825,0,0,1,2.4,0s-2.4,3-3,2.4C111.81148,34.2,112.41147,33.6,113.01147,33Zm1.2,20.4c-1.8-.6-3-1.8-4.8-3-3-1.8-3.6-6-1.8-9v-.6a65.74286,65.74286,0,0,1,13.2-12.6c3.6-1.8,5.4-.6,6,3v2.4c0,1.8-1.2,9-1.2,9.6a14.224,14.224,0,0,1-5.4,9C119.01147,54.6,116.61147,54.6,114.21147,53.4Zm24,2.4a33.49271,33.49271,0,0,1-3,4.8c-5.4,6.6-12.6,8.4-21,7.8a2.20418,2.20418,0,0,1-1.8-.6,15.976,15.976,0,0,0,7.2-1.8,68.40021,68.40021,0,0,0,11.4-6l5.4-5.4c0-.6.6-.6,1.2-.6A2.96256,2.96256,0,0,1,138.21147,55.8Zm4.2-2.4a11.69666,11.69666,0,0,0,4.8-.6c.6,0,.6-.6,1.2,0,0,.6,0,1.2-.6,1.2a1.85827,1.85827,0,0,1-1.2.6c-1.8.6-3,0-4.8-.6a3.825,3.825,0,0,0-3.6,0c-.6,0-1.2,0-1.2-.6a4.6846,4.6846,0,0,0-2.4-2.4c-.6-.6-1.2-.6-1.8-1.2-.6,0-.6-.6-.6-1.2h0c.6-.6.6,0,1.2,0,.6.6,1.8,1.2,2.4,2.4,0,.6.6.6,1.2.6s.6-.6.6-1.2a8.67184,8.67184,0,0,0-1.2-4.2,2.725,2.725,0,0,1,0-3h.6a4.58308,4.58308,0,0,1,1.2,3v3.6c0,1.2.6,1.2,1.8.6s1.8-1.8,1.8-3.6a8.52792,8.52792,0,0,1,1.2-3.6c0-.6.6-.6,1.2-.6s.6.6.6,1.2a8.52792,8.52792,0,0,1-1.2,3.6,18.233,18.233,0,0,0-3,4.2,3.11721,3.11721,0,0,0,2.4-1.2,18.2332,18.2332,0,0,0,4.2-3c0-.6.6-.6,1.2,0h0v1.2a12.55182,12.55182,0,0,1-3.6,2.4c-1.2.6-2.4.6-3.6,1.2a.58764.58764,0,0,0-.6.6C141.21147,52.8,141.81148,53.4,142.41147,53.4Z"/>
          <path class="b" d="M68.01147,90.6Z"/>
        </g>
      </g>
      <path class="c" d="M111.81148,100.2a53.51824,53.51824,0,0,1-53.4-53.4c0-12.6,4.2-25.2,12.6-34.8-22.2,19.2-25.2,52.8-6,75s52.8,25.2,75,6a28.44327,28.44327,0,0,0,6-6A49.04375,49.04375,0,0,1,111.81148,100.2Z"/>
    </g>
    <g>
      <path class="a" d="M227.01148,62.4l-16.8-21h-4.2v39h4.8V49.2l15.6,20.4h.6l15.6-20.4V80.4h4.8v-39h-4.2Zm73.2-22.2c-12,0-21.6,9.6-21,21v1.2a20.67825,20.67825,0,0,0,21.6,19.2h.6c12,0,21.6-9.6,21-21C321.81148,48.6,312.21146,39.6,300.21146,40.2Zm17.4,21.6c-.6,8.4-7.8,15-16.8,15h-.6c-9.6,0-16.8-7.8-16.8-16.2,0-9,7.8-16.2,17.4-15.6,9.6,0,16.8,7.8,16.8,16.2Zm63.6-1.2a9.04968,9.04968,0,0,0,5.4-8.4v-.6c-.6-6-5.4-10.2-11.4-9.6h-21.6V81h25.2c6,0,10.8-4.8,10.8-10.2S386.61147,61.2,381.21146,60.6Zm-22.8-15h17.4a6.65859,6.65859,0,0,1,6.6,6.6v.6a6.19969,6.19969,0,0,1-7.2,5.4h-16.8Zm19.2,30.6h-19.8V63h21c3.6,0,6.6,3.6,6.6,7.2C384.81145,73.8,381.81145,76.8,377.61147,76.2Z"/>
      <path class="b" d="M455.61147,54c0,6.6-6,12-13.2,12h-18V80.4h-4.8v-39h22.2c7.8,0,13.8,4.8,13.8,12.6Zm-4.8,0a8.08468,8.08468,0,0,0-8.4-7.8h-17.4V62.4h16.8c4.8-.6,9-3.6,9-8.4Z"/>
      <path class="b" d="M524.01148,80.4h0l-4.8.6-12-16.2h-16.2V80.4h-4.8v-39h21.6a12.10291,12.10291,0,0,1,13.2,10.8v.6a11.562,11.562,0,0,1-9,11.4Zm-33-19.8h16.8c4.2,0,7.8-3.6,7.8-7.2,0-4.2-3.6-7.2-7.8-7.2h-16.8Z"/>
      <path class="b" d="M549.81145,61.2a20.86932,20.86932,0,0,1,21-21c12,0,22.2,9,22.2,19.8a20.86932,20.86932,0,0,1-21,21h-.6a20.67824,20.67824,0,0,1-21.6-19.2Zm39,0c0-9-7.2-16.2-16.8-16.2s-17.4,7.2-17.4,15.6c0,9,7.2,16.2,16.8,16.2h.6c9,.6,16.8-6,16.8-15Z"/>
      <path class="b" d="M657.21146,80.4h0l-5.4.6-14.4-17.4-14.4,17.4h-5.4v-.6l16.8-20.4-15-18v-.6h5.4l12.6,15,12.6-15h5.4V42l-15,18Z"/>
      <path class="b" d="M719.01148,42l-16.8,22.2V81h-4.8V64.2l-16.8-22.2h5.4l13.8,18.6,13.8-18.6Z"/>
    </g>
  </g>
</svg>
