<svg xmlns="http://www.w3.org/2000/svg" viewBox="0 0 159.21146 130.00365">
  <defs>
    <style>
      .a {
        fill: #fff;
      }

      .b {
        fill: #ffed00;
      }

      .c {
        fill: #b9aa00;
        opacity: 0.53;
        isolation: isolate;
      }
    </style>
  </defs>
  <title>Ресурс 2</title>
  <g>
    <g>
      <g>
        <path class="a" d="M59.61147,96.6c3-.6,6-2.4,9-4.2l.6-.6-1.8-1.8a26.54264,26.54264,0,0,1-9,3,35.27128,35.27128,0,0,1-22.2-1.2l-2.4-.6A38.999,38.999,0,0,0,59.61147,96.6Z"/>
        <path class="a" d="M75.21148,123.6a21.31277,21.31277,0,0,1-5.4-2.4c-.6,0-.6-.6-.6-1.2,1.2,0,1.8.6,3,1.2a6.52375,6.52375,0,0,0,3,.6,1.29048,1.29048,0,0,0,1.2-1.2c0-.6-.6-.6-1.2-.6l-6-1.2a2.2042,2.2042,0,0,1-1.8-.6c-1.2-.6-2.4-1.2-1.2-3-1.2.6-1.8,1.2-3,1.8a16.61129,16.61129,0,0,1-5.4.6c-.6,0-1.8,0-1.8.6h0a1.29047,1.29047,0,0,0,1.2,1.2,16.61129,16.61129,0,0,0,5.4-.6c.6,0,1.2-.6,1.2,0V120a15.039,15.039,0,0,1-2.4,4.2c0,.6-.6.6-.6,1.2h0a1.125,1.125,0,0,0,1.8,0,12.55184,12.55184,0,0,0,2.4-3.6c0-.6,0-1.8.6-1.8s1.2.6,1.2,1.8c0,2.4,1.2,4.2,1.8,6a.58764.58764,0,0,0,.575.6q.0125.00027.025,0c.6.6,1.2,2.4,2.4,1.2s0-2.4-.6-3c-.6-1.2-1.8-2.4-2.4-3.6,0-.6-.6-1.2,0-1.2s.6,0,1.2.6l3.6,3.6a1.97949,1.97949,0,0,0,3,0C77.01147,124.2,75.81148,123.6,75.21148,123.6Z"/>
        <path class="a" d="M83.01147,100.8c-1.8-.6-2.4-1.2-4.8-2.4a63.51759,63.51759,0,0,1-6-4.2,8.6719,8.6719,0,0,0-1.2,4.2c0,.6-.6,1.2-1.2,1.8a15.48368,15.48368,0,0,1-12.6,1.8c-5.4-1.2-10.8-2.4-16.2-4.8a78.57521,78.57521,0,0,0-16.2-3.6,27.50453,27.50453,0,0,0-20.4,4.8c-7.8,6.6-3.6,16.8,0,19.8h.6c-3.6-4.2-4.8-10.2-1.8-15,5.4-7.2,13.8-7.8,22.2-6a168.38,168.38,0,0,1,18.6,4.8c7.8,3,20.4,7.2,29.4,6.6,0,1.8.6,4.2,2.4,5.4.6,0,.6.6,1.2,0,.6,0,.6-.6,0-1.2,0-.6-.6-.6-.6-1.2-.6-1.2-1.8-1.8-1.8-3a7.33412,7.33412,0,0,0,5.4-1.8V111a3.99316,3.99316,0,0,1-4.2,4.2h-5.4a2.2042,2.2042,0,0,0-1.8.6h0a.831.831,0,0,0-.02505,1.17494L68.61147,117c0,.6.6,0,.6,0a5.07371,5.07371,0,0,1,4.2,0,16.6113,16.6113,0,0,0,5.4.6,4.05124,4.05124,0,0,0,3.6-2.4,11.03127,11.03127,0,0,0-1.2-9.6A20.31188,20.31188,0,0,0,83.01147,100.8Z"/>
      </g>
      <g>
        <path class="b" d="M76.41147,97.2c-.6,0-.6-.6-1.2-.6C75.81148,97.2,75.81148,97.2,76.41147,97.2Z"/>
        <path class="b" d="M80.01147,99.6"/>
        <path class="b" d="M77.61148,95.4c-.6,1.2,0,2.4,1.8,2.4,1.2,0,1.8-.6,3-.6,4.2-1.8,11.4-7.2,13.2-9a23.736,23.736,0,0,0,6-9c-.6.6-1.2,1.8-1.8,2.4-2.4,2.4-4.8,4.2-7.8,4.8C95.01147,77.4,82.41147,85.8,77.61148,95.4Z"/>
        <path class="b" d="M105.81148,0a53.51824,53.51824,0,0,0-53.4,53.4,50.72208,50.72208,0,0,0,15,36.6c1.2-.6,2.4-1.8,4.2-3a47.78994,47.78994,0,0,0,10.2-9c-4.2,4.8-8.4,9-12.6,13.8,1.2.6,1.8,1.8,3,2.4a78.17375,78.17375,0,0,1,6-9,31.57545,31.57545,0,0,1,8.4-7.2,30.42873,30.42873,0,0,1,9.6-5.4,76.66234,76.66234,0,0,0,12.6-8.4c3.6-3,3.6-4.8,1.8-9a43.53178,43.53178,0,0,1-3-5.4c3,2.4,4.2,6,8.4,6.6-.6,1.8-1.2,3.6-1.8,6-.6,1.8-1.2,4.2-1.8,6a46.44369,46.44369,0,0,1-4.2,9.6q-.9,1.8-1.8,3.6c-2.4,4.2-7.8,10.2-13.8,15-5.4,2.4-9,4.2-9.6,4.2a55.45109,55.45109,0,0,0,22.8,5.4,53.51825,53.51825,0,0,0,53.4-53.4C158.61147,24,134.61147,0,105.81148,0Zm-19.2,42c0-.6.6-.6,1.2-.6s.6.6.6,1.2h0c0,.6-.6,1.8-.6,2.4-.6.6,0,1.2.6,1.8a2.20419,2.20419,0,0,0,.6-1.8,17.964,17.964,0,0,1,2.4-4.8c0-.6.6-.6,1.2-.6v1.2c-.6,1.2-1.2,1.8-1.8,3s-1.2,1.8-1.2,3a4.54873,4.54873,0,0,0,2.4-1.2l3.6-1.8c.6,0,1.8,0,1.8.6,0,1.2-.6,1.2-1.2,1.2-1.2.6-3,.6-4.2,1.2-.6,0-1.8,0-1.2,1.2a16.6113,16.6113,0,0,0,5.4-.6c.6,0,1.8-1.2,1.8,0s-1.2,1.2-1.8,1.2h-6c-.6,0-1.2,0-.6,1.2,0,.6.6.6,1.2,1.2,1.2,0,2.4.6,4.2,1.2.6,0,.6.6.6,1.2s-.6.6-1.2.6c-1.2,0-1.8-.6-3-1.2-1.2-1.2-3-1.2-4.8-1.2,0-2.4-.6-4.2-.6-6S86.01147,42.6,86.61149,42Zm12.6,14.4c-3.6,0-6.6,1.8-10.2,2.4C90.21148,55.2,96.81148,54,99.21148,56.4Zm-34.8,18.6a4.54874,4.54874,0,0,0-2.4-1.2l-1.8,1.8c-1.2,0-1.8-.6-1.2-1.8.6-1.8,2.4-1.8,3.6-1.2s2.4,0,2.4-1.2v-.6c0-1.8-1.2-4.2-3-4.8a2.2042,2.2042,0,0,1-.6-1.8h0a1.125,1.125,0,0,1,1.8,0h0a13.11553,13.11553,0,0,1,1.8,3,5.409,5.409,0,0,1,.6,3,9.09934,9.09934,0,0,0,1.8-7.8c0-.6,0-.6.6-1.2.6,0,.6,0,1.2.6.6,1.2.6,2.4,0,3-.6,1.2-1.2,3-1.8,4.2a6.85924,6.85924,0,0,0,4.2-4.8c0-.6.6-1.2,1.2-.6s.6.6.6,1.2c0,1.2-3,4.2-3.6,5.4a18.23312,18.23312,0,0,0,4.2-3,1.125,1.125,0,0,1,1.8,0c.6.6,0,1.2-.6,1.2-1.2.6-7.8,3-9.6,7.2Zm10.2,0c0,.6-4.8,5.4-3.6,10.8-3.6-3,0-11.4,3-12C74.61149,73.8,74.61149,74.4,74.61149,75Zm7.8.6a5.40937,5.40937,0,0,1-3.6,3.6c-.6,0,0-.6,0-1.2v-.6c0-.6.6-1.2.6-1.8.6-1.2.6-3-.6-3.6-.6,0-.6-.6-1.2-.6h-1.8c-3,.6-5.4,2.4-7.8,3.6a16.17407,16.17407,0,0,1,4.8-4.2c.6,0,.6-.6,1.2-.6a21.56938,21.56938,0,0,1,6.6-1.2c3,1.8,1.8,6.6,1.8,6.6Zm2.4-13.2c-.6-3.6-.6-7.2,1.2-10.2l.6-.6c.6,0,.6.6.6,1.2h0a25.986,25.986,0,0,1-.6,3c-.6,3.6,0,4.2,3.6,4.2a36.90549,36.90549,0,0,0,7.8-.6,16.75167,16.75167,0,0,1-10.8,3.6c-.6,1.2-1.8.6-2.4-.6Zm21-6.6a13.68622,13.68622,0,0,1-3.6,7.2,28.88012,28.88012,0,0,1-9.6,7.2,163.78519,163.78519,0,0,0,12.6-18A7.61,7.61,0,0,1,105.81149,55.8Zm22.8-14.4c0,.6-.6,1.8-1.2,1.8h0c-.6,0,0-3.6,0-3.6.6,0,1.2.6,1.2,1.8Zm4.2,13.8c-1.2,4.8-6,7.2-10.8,6h-.6C126.21148,60.6,129.21148,57.6,132.81148,55.2Zm-19.8-22.2h0a1.825,1.825,0,0,1,2.4,0s-2.4,3-3,2.4C111.81148,34.2,112.41147,33.6,113.01148,33Zm1.2,20.4c-1.8-.6-3-1.8-4.8-3-3-1.8-3.6-6-1.8-9v-.6a65.74275,65.74275,0,0,1,13.2-12.6c3.6-1.8,5.4-.6,6,3v2.4c0,1.8-1.2,9-1.2,9.6a14.224,14.224,0,0,1-5.4,9C119.01147,54.6,116.61148,54.6,114.21148,53.4Zm24,2.4a33.49293,33.49293,0,0,1-3,4.8c-5.4,6.6-12.6,8.4-21,7.8a2.20418,2.20418,0,0,1-1.8-.6,15.976,15.976,0,0,0,7.2-1.8,68.40023,68.40023,0,0,0,11.4-6l5.4-5.4c0-.6.6-.6,1.2-.6A2.96261,2.96261,0,0,1,138.21148,55.8Zm4.2-2.4a11.69665,11.69665,0,0,0,4.8-.6c.6,0,.6-.6,1.2,0,0,.6,0,1.2-.6,1.2a1.85827,1.85827,0,0,1-1.2.6c-1.8.6-3,0-4.8-.6a3.825,3.825,0,0,0-3.6,0c-.6,0-1.2,0-1.2-.6a4.68463,4.68463,0,0,0-2.4-2.4c-.6-.6-1.2-.6-1.8-1.2-.6,0-.6-.6-.6-1.2h0c.6-.6.6,0,1.2,0,.6.6,1.8,1.2,2.4,2.4,0,.6.6.6,1.2.6s.6-.6.6-1.2a8.6719,8.6719,0,0,0-1.2-4.2,2.725,2.725,0,0,1,0-3h.6a4.583,4.583,0,0,1,1.2,3v3.6c0,1.2.6,1.2,1.8.6s1.8-1.8,1.8-3.6a8.52783,8.52783,0,0,1,1.2-3.6c0-.6.6-.6,1.2-.6s.6.6.6,1.2a8.52783,8.52783,0,0,1-1.2,3.6,18.23305,18.23305,0,0,0-3,4.2,3.11722,3.11722,0,0,0,2.4-1.2,18.23307,18.23307,0,0,0,4.2-3c0-.6.6-.6,1.2,0h0v1.2a12.55178,12.55178,0,0,1-3.6,2.4c-1.2.6-2.4.6-3.6,1.2a.58763.58763,0,0,0-.6.575q-.00027.01249,0,.025C141.21148,52.8,141.81148,53.4,142.41147,53.4Z"/>
        <path class="b" d="M68.01147,90.6"/>
      </g>
    </g>
    <path class="c" d="M111.81148,100.2a53.51824,53.51824,0,0,1-53.4-53.4c0-12.6,4.2-25.2,12.6-34.8-22.2,19.2-25.2,52.8-6,75s52.8,25.2,75,6a28.44326,28.44326,0,0,0,6-6A49.04375,49.04375,0,0,1,111.81148,100.2Z"/>
  </g>
</svg>
