<svg xmlns="http://www.w3.org/2000/svg" viewBox="0 0 285 285" class="svg-error">
  <defs>
    <style>
      .a {
        fill: #34404f;
      }
    </style>
  </defs>
  <title>404</title>
  <g>
    <path class="a cogwheel" d="M270.46,112.58l-20-3.4a112.93,112.93,0,0,0-8-19.41l11.79-16.49a17.55,17.55,0,0,0-1.91-22.69L234.6,32.85a17.49,17.49,0,0,0-12.45-5.18A17.31,17.31,0,0,0,212,31L195.42,42.74a111.81,111.81,0,0,0-20.12-8.28L171.86,14.7A17.59,17.59,0,0,0,154.48,0h-25a17.59,17.59,0,0,0-17.38,14.7l-3.46,20.24A110.24,110.24,0,0,0,89.25,43.1L72.9,31.31A17.6,17.6,0,0,0,50.2,33.22L32.4,51a17.62,17.62,0,0,0-1.91,22.69L42.4,90.38a110.32,110.32,0,0,0-7.92,19.47l-19.77,3.34A17.59,17.59,0,0,0,0,130.57v25.07A17.59,17.59,0,0,0,14.71,173l20.24,3.46a110.15,110.15,0,0,0,8.16,19.35L31.37,212.13a17.55,17.55,0,0,0,1.91,22.69L51,252.56a17.49,17.49,0,0,0,12.45,5.18,17.31,17.31,0,0,0,10.19-3.28l16.73-11.9a112.66,112.66,0,0,0,18.81,7.74l3.34,20A17.59,17.59,0,0,0,129.88,285H155a17.59,17.59,0,0,0,17.38-14.7l3.4-20a113,113,0,0,0,19.41-8L211.7,254.1a17.49,17.49,0,0,0,10.25,3.28h0a17.49,17.49,0,0,0,12.45-5.18l17.78-17.82a17.62,17.62,0,0,0,1.91-22.69L242.3,195.14a112.14,112.14,0,0,0,8-19.41l20-3.34A17.59,17.59,0,0,0,285,155V129.95A17.38,17.38,0,0,0,270.46,112.58ZM269.09,155a1.54,1.54,0,0,1-1.31,1.55l-25,4.17a8,8,0,0,0-6.43,5.9,95.29,95.29,0,0,1-10.37,25,8,8,0,0,0,.36,8.75l14.71,20.72a1.62,1.62,0,0,1-.18,2l-17.74,17.74a1.51,1.51,0,0,1-1.13.48,1.46,1.46,0,0,1-.89-.3l-20.66-14.7a8,8,0,0,0-8.76-.36,95.33,95.33,0,0,1-25,10.36,7.91,7.91,0,0,0-5.9,6.43l-4.23,25A1.54,1.54,0,0,1,155,269H130a1.54,1.54,0,0,1-1.55-1.31l-4.17-25a8,8,0,0,0-5.9-6.43,99,99,0,0,1-24.41-10,8.25,8.25,0,0,0-4-1.07,7.85,7.85,0,0,0-4.65,1.49L64.42,241.56a1.77,1.77,0,0,1-.89.3,1.6,1.6,0,0,1-1.13-.48L44.66,223.64a1.62,1.62,0,0,1-.18-2l14.65-20.54a8.15,8.15,0,0,0,.36-8.81A94.39,94.39,0,0,1,49,167.41a8.16,8.16,0,0,0-6.43-5.9l-25.19-4.29a1.54,1.54,0,0,1-1.31-1.55V130.61a1.54,1.54,0,0,1,1.31-1.55l24.83-4.17a8,8,0,0,0,6.49-6,95.21,95.21,0,0,1,10.19-25,8,8,0,0,0-.42-8.7L43.65,64.37a1.62,1.62,0,0,1,.18-2L61.57,44.64a1.51,1.51,0,0,1,1.13-.48,1.46,1.46,0,0,1,.89.3L84.13,59.1a8.16,8.16,0,0,0,8.82.36A94.44,94.44,0,0,1,117.84,49a8.16,8.16,0,0,0,5.9-6.43L128,17.37a1.54,1.54,0,0,1,1.55-1.31h25.07a1.54,1.54,0,0,1,1.55,1.31l4.17,24.83a8,8,0,0,0,6,6.49,96.66,96.66,0,0,1,25.49,10.43,8,8,0,0,0,8.76-.36L221.16,44a1.77,1.77,0,0,1,.89-.3,1.6,1.6,0,0,1,1.13.48l17.74,17.74a1.62,1.62,0,0,1,.18,2L226.4,84.57a8,8,0,0,0-.36,8.75,95.29,95.29,0,0,1,10.37,25,7.91,7.91,0,0,0,6.43,5.9l25,4.23a1.54,1.54,0,0,1,1.31,1.55v25.07h-.06Z"/>
    <path class="a" d="M142.52,218.92A76.42,76.42,0,1,1,219,142.5h0A76.52,76.52,0,0,1,142.52,218.92Zm0-139.68A63.26,63.26,0,1,0,205.8,142.5h0a63.35,63.35,0,0,0-63.28-63.27Z"/>
    <g>
      <path class="a" d="M145.31,123.44h-5.59a11,11,0,0,0-11,11h0v16.75a11,11,0,0,0,11,11h5.59a11,11,0,0,0,11-11h0V134.43a11,11,0,0,0-11-11Zm5.76,27.74a5.77,5.77,0,0,1-5.76,5.76h-5.59a5.77,5.77,0,0,1-5.76-5.76V134.43a5.77,5.77,0,0,1,5.76-5.76h5.59a5.77,5.77,0,0,1,5.76,5.76Z"/>
      <path class="a" d="M123,148.6h-3V126.08a2.62,2.62,0,0,0-5.24,0h0V148.6h-13.3l7.23-21.69a2.63,2.63,0,0,0-5-1.66h0l-8.32,25.18a2.62,2.62,0,0,0,2.49,3.45h16.93v5.76a2.62,2.62,0,0,0,5.24,0h0v-5.76h3a2.64,2.64,0,1,0,0-5.28Z"/>
      <path class="a" d="M187.21,148.6h-3V126.08a2.62,2.62,0,0,0-5.24,0h0V148.6h-13.3l7.23-21.69a2.63,2.63,0,0,0-5-1.66h0l-8.32,25.18a2.62,2.62,0,0,0,2.49,3.45H179v5.76a2.62,2.62,0,0,0,5.24,0h0v-5.76h3a2.64,2.64,0,1,0,0-5.28Z"/>
    </g>
  </g>
</svg>
