<svg xmlns="http://www.w3.org/2000/svg" viewBox="0 0 322.46 302" class="svg-contact">
  <defs>
    <style>
      .svg-contact .a {
        fill: #192129;
      }

      .svg-contact .b {
        fill: none;
        stroke: #34404f;
        stroke-miterlimit: 10;
        stroke-width: 3px;
      }

      .svg-contact .c {
        fill: #ff2e52;
      }

      .svg-contact .d {
        fill: #fff;
      }

      .svg-contact .e {
        isolation: isolate;
        font-size: 17.42px;
        fill: #647584;
        font-family: ArialMT, Arial;
      }
    </style>
  </defs>
  <title>Contact</title>
  <g>
    <circle class="a" cx="161.2" cy="145.38" r="91.57"/>
    <path class="b" d="M301.67,96.25a20.38,20.38,0,0,0-3,.25c-21-55.45-74.69-95-137.42-95S44.86,41,23.83,96.5a20.38,20.38,0,0,0-3-.25c-10.68,0-19.33,8.21-19.33,18.34V182.3c0,10.13,8.65,18.34,19.33,18.34s19.33-8.21,19.33-18.34V114.57a17.72,17.72,0,0,0-4.79-12.05,134,134,0,0,1,251.85,0,17.72,17.72,0,0,0-4.88,12.05v67.71a17.72,17.72,0,0,0,4.79,12.05,134.57,134.57,0,0,1-94.51,84.39,11.89,11.89,0,0,0-8.84-4H138.64c-6.75,0-12.23,5.77-12.23,12.89s5.47,12.89,12.23,12.89h45.14a12.33,12.33,0,0,0,11.71-9.2,147.51,147.51,0,0,0,103.14-90.92,20.38,20.38,0,0,0,3,.25c10.68,0,19.33-8.21,19.33-18.34V114.57C321,104.46,312.34,96.25,301.67,96.25Z"/>
    <path class="c" d="M113.59,137.64v9.66H111v-6.12L107,146.43h-2.26l-3.93-5.25v6.12H98.19v-9.66h2.74l5,6.77,5-6.77h2.66Z"/>
    <path class="c" d="M126.23,137.64a3.14,3.14,0,0,1,2.2.82,2.57,2.57,0,0,1,.9,2v4a2.57,2.57,0,0,1-.9,2,3.14,3.14,0,0,1-2.2.82h-7.55a3.16,3.16,0,0,1-2.2-.82,2.61,2.61,0,0,1-.9-2v-4a2.61,2.61,0,0,1,.9-2,3.16,3.16,0,0,1,2.2-.82Zm-7.66,2.48a1,1,0,0,0-.36.8V144a1.07,1.07,0,0,0,.36.8,1.31,1.31,0,0,0,.88.32h6a1.37,1.37,0,0,0,.88-.33,1.06,1.06,0,0,0,.36-.8v-3.1a1,1,0,0,0-.36-.8,1.14,1.14,0,0,0-.88-.32h-6a1.21,1.21,0,0,0-.87.33Z"/>
    <path class="c" d="M140.88,137.64a3,3,0,0,1,2.07.78,2.45,2.45,0,0,1,.59,2.94,2.68,2.68,0,0,1-.7.87,2.87,2.87,0,0,1,1.13,1,2.45,2.45,0,0,1,.42,1.39,2.51,2.51,0,0,1-.87,1.92,3,3,0,0,1-2.1.78H131.34v-9.66h9.55ZM134,141.57H140a1,1,0,0,0,.73-.28.9.9,0,0,0,.06-1.27l-.06-.06a1,1,0,0,0-.73-.27H134Zm0,3.68h6.72a1,1,0,0,0,.73-.28.79.79,0,0,0,.3-.67.87.87,0,0,0-.3-.67,1,1,0,0,0-.72-.27H134v1.88Z"/>
    <path class="d" d="M157,137.64a3.83,3.83,0,0,1,1.83.44,3.43,3.43,0,0,1,1.33,1.21,3.09,3.09,0,0,1,0,3.34,3.39,3.39,0,0,1-1.33,1.21,3.88,3.88,0,0,1-1.83.44h-6.89v3h-2.64v-9.66H157Zm-6.89,4.5h6.65a1.46,1.46,0,0,0,.93-.33A1.1,1.1,0,0,0,158,141a1.06,1.06,0,0,0-.37-.85,1.28,1.28,0,0,0-.93-.33h-6.65v2.35Z"/>
    <path class="d" d="M172.1,137.64a3.44,3.44,0,0,1,2.4.9,2.84,2.84,0,0,1,1,2.18,2.81,2.81,0,0,1-.86,2,3.54,3.54,0,0,1-2.14,1l3.14,3.54h-3.07l-2.9-3.5h-4.41v3.5h-2.64V137.6h9.48Zm-6.85,4h6.59a1,1,0,0,0,.74-.27.86.86,0,0,0,.29-.68.83.83,0,0,0-.29-.68.92.92,0,0,0-.74-.26h-6.59v1.88Z"/>
    <path class="d" d="M188.28,137.64a3.14,3.14,0,0,1,2.2.82,2.57,2.57,0,0,1,.9,2v4a2.57,2.57,0,0,1-.9,2,3.14,3.14,0,0,1-2.2.82h-7.55a3.16,3.16,0,0,1-2.2-.82,2.61,2.61,0,0,1-.9-2v-4a2.61,2.61,0,0,1,.9-2,3.16,3.16,0,0,1,2.2-.82Zm-7.66,2.48a1,1,0,0,0-.36.8V144a1.07,1.07,0,0,0,.36.8,1.31,1.31,0,0,0,.88.32h6a1.37,1.37,0,0,0,.88-.33,1.06,1.06,0,0,0,.36-.8v-3.1a1,1,0,0,0-.36-.8,1.14,1.14,0,0,0-.88-.32h-6a1.21,1.21,0,0,0-.88.33Z"/>
    <path class="d" d="M205,137.64v2.15h-9v1.88h7.77v2.11H196v3.52h-2.68v-9.66H205Z"/>
    <path class="d" d="M209.79,137.64v9.66h-2.64v-9.66Z"/>
    <path class="d" d="M224.21,137.64v2.15h-5v7.51h-2.64v-7.51h-5v-2.15Z"/>
    <text class="e" transform="translate(139.13 169.14)">online</text>
  </g>
</svg>
