<svg xmlns="http://www.w3.org/2000/svg" xmlns:xlink="http://www.w3.org/1999/xlink" viewBox="0 0 344.3 158.15">
  <defs>
    <style>
      .a,
      .e {
        fill: none;
      }

      .b {
        fill: #2e3c49;
      }

      .c {
        clip-path: url(#a);
      }

      .d {
        fill: #647584;
      }

      .e {
        stroke: #34404f;
        stroke-miterlimit: 10;
      }
    </style>
    <clipPath id="a">
      <rect class="a" x="147.38" y="100.27" width="50.43" height="47.12"/>
    </clipPath>
  </defs>
  <title>Currency</title>
  <g>
    <rect class="b" y="155.39" width="344.3" height="0.85"/>
    <g class="c">
      <path class="d" d="M180.94,113.19a14,14,0,0,1,4.19,4,8.64,8.64,0,0,1,1.58,4.1,1,1,0,0,1-.35.91,1.34,1.34,0,0,1-.94.38H183a1.74,1.74,0,0,1-1-.26,3.18,3.18,0,0,1-.76-1,11.1,11.1,0,0,0-3.25-3.57,9.87,9.87,0,0,0-6.12-1.76,10.67,10.67,0,0,0-6,1.58,5.07,5.07,0,0,0-2.43,4.51,4.52,4.52,0,0,0,1.2,3.25,9.58,9.58,0,0,0,3.63,2.17q2.43.91,7.35,2.2,6.68,1.76,9.46,4.31a9,9,0,0,1,2.78,6.94,10.33,10.33,0,0,1-3.6,8,16.4,16.4,0,0,1-9.64,3.81v3.81a1.6,1.6,0,0,1-1.58,1.58h-2.4a1.6,1.6,0,0,1-1.58-1.58v-3.93a17.52,17.52,0,0,1-6.45-2.23,14.75,14.75,0,0,1-4.51-4,8,8,0,0,1-1.7-4.48,1.3,1.3,0,0,1,1.29-1.29h2.4a1.92,1.92,0,0,1,1,.26,2.38,2.38,0,0,1,.76,1,9.68,9.68,0,0,0,3.43,3.87,11.54,11.54,0,0,0,6.77,1.76,13.41,13.41,0,0,0,7.23-1.85,5.53,5.53,0,0,0,3-4.83,4.11,4.11,0,0,0-1.55-3.25,12.91,12.91,0,0,0-4.25-2.23q-2.69-.91-7.91-2.26-5.68-1.46-8.2-4.25a9.87,9.87,0,0,1-2.52-6.88,10.65,10.65,0,0,1,1.26-5.07,10.89,10.89,0,0,1,3.78-4,14.54,14.54,0,0,1,6.15-2.11v-3.87a1.6,1.6,0,0,1,1.58-1.58h2.4a1.6,1.6,0,0,1,1.58,1.58v3.92A15.69,15.69,0,0,1,180.94,113.19Z"/>
    </g>
    <line class="e" x1="184.65" y1="105.22" x2="184.65" y2="31.82"/>
    <line class="e" x1="172.43" y1="92.17" x2="172.43" y2="60.22"/>
    <line class="e" x1="172.43" y1="48.7" x2="172.43" y2="39.22"/>
    <line class="e" x1="133.77" y1="89.07" x2="133.77" y2="79.59"/>
    <line class="e" x1="209.71" y1="90.07" x2="209.71" y2="80.59"/>
    <line class="e" x1="121.86" y1="93.94" x2="121.86" y2="61.99"/>
    <line class="e" x1="121.86" y1="56.7" x2="121.86" y2="47.22"/>
    <line class="e" x1="160.2" y1="105.22" x2="160.2" y2="69.44"/>
    <line class="e" x1="160.2" y1="60.22" x2="160.2"/>
    <line class="e" x1="222.62" y1="93.22" x2="222.62" y2="57.44"/>
    <line class="e" x1="222.62" y1="48.22" x2="222.62" y2="26.74"/>
    <path class="d" d="M206.29,111.16h3.1v2.65a.43.43,0,0,0,.42.44h2.3a.44.44,0,0,0,.31-.12.42.42,0,0,0,.13-.32v-2.65h7a.43.43,0,0,0,.44-.42s0,0,0,0v-1.77a.43.43,0,0,0-.42-.44h-7v-1.63h4.7a6.05,6.05,0,1,0,0-12.09H209.8a.43.43,0,0,0-.44.42s0,0,0,0v8.69h-3.1a.42.42,0,0,0-.32.13.44.44,0,0,0-.12.31v2.06a.43.43,0,0,0,.42.44h3.12v1.63h-3.1a.43.43,0,0,0-.44.42s0,0,0,0v1.77a.43.43,0,0,0,.4.46Zm6.29-13.42H217a3.28,3.28,0,0,1,2.36.86,3.24,3.24,0,0,1,0,4.48,3.28,3.28,0,0,1-2.36.86h-4.42v-6.2Z"/>
    <path class="d" d="M134.53,114.27l-.54-2.44a.47.47,0,0,0-.23-.32.46.46,0,0,0-.4,0h-.26l-.28.07-.38.08-.45.07-.51.05h-.55a6.19,6.19,0,0,1-5.81-3.9h6a.5.5,0,0,0,.48-.4l.37-1.72a.5.5,0,0,0-.09-.41.48.48,0,0,0-.38-.18h-7a13.81,13.81,0,0,1,0-1.61h7.5a.45.45,0,0,0,.49-.4l.37-1.75a.5.5,0,0,0-.41-.57h-7.27a6.07,6.07,0,0,1,2.3-2.7,6.3,6.3,0,0,1,3.47-1,1.36,1.36,0,0,1,.45,0h.85l.35.05.27.05H133a.44.44,0,0,0,.37,0,.45.45,0,0,0,.22-.3l.66-2.44a.51.51,0,0,0,0-.37.58.58,0,0,0-.31-.23,12.25,12.25,0,0,0-3-.35,10.22,10.22,0,0,0-6.15,2,10,10,0,0,0-3.74,5.19h-1.51a.47.47,0,0,0-.49.45s0,0,0,0V103a.47.47,0,0,0,.45.49h1q0,.74,0,1.61h-1a.5.5,0,0,0-.49.49v1.74a.5.5,0,0,0,.49.49H121a9.92,9.92,0,0,0,3.66,5.4,10.22,10.22,0,0,0,6.28,2h1.15l.51-.07.46-.08.39-.08.33-.08.25-.07.16-.05h.08a.48.48,0,0,0,.26-.22A.45.45,0,0,0,134.53,114.27Z"/>
  </g>
</svg>
