<svg xmlns="http://www.w3.org/2000/svg" xmlns:xlink="http://www.w3.org/1999/xlink" viewBox="0 0 1740.2 636.3" width="1740.2" height="636.3">
  <defs>
    <style>
      .a {
        fill: none;
      }

      .b {
        clip-path: url(#a);
      }

      .c {
        fill: #2f333c;
      }

      .d {
        fill: #2f303b;
      }

      .e {
        fill: #2d2f3b;
      }

      .f {
        fill: #2a2f3b;
      }

      .g {
        fill: #222a35;
      }

      .h {
        opacity: 0.5;
      }

      .i {
        fill: #414954;
      }

      .j {
        opacity: 0.6;
      }
    </style>
    <clipPath id="a">
      <rect class="a" width="1740.2" height="636.3"/>
    </clipPath>
  </defs>
  <title>Background</title>
  <g>
    <g class="b">
      <g>
        <polygon class="c" points="209.4 638.3 360.1 487.7 408.2 535.7 713.1 230.8 812.5 330.3 844.4 298.4 1087.2 541.3 1416.2 212.4 1483.2 279.4 1625.8 136.8 1625.8 638.3 209.4 638.3"/>
        <polygon class="d" points="0.1 638.3 127 511.5 190 574.5 331.4 433.2 369.5 471.3 527.4 313.5 617.3 403.4 642.5 378.3 844.8 580.6 1164.8 260.6 1183.9 279.7 1207.4 256.1 1253.4 302 1318 237.5 1734.3 653.7 1403.6 638.3 0.1 638.3"/>
        <polygon class="e" points="92.4 638.3 195.2 535.6 229.1 569.5 237.2 561.4 265.8 589.9 412.4 443.3 473.8 504.7 524.1 454.3 573.6 503.8 676.1 401.3 793.5 518.7 821.4 490.8 942.3 611.7 1269.7 284.4 1299.3 314 1326.8 286.6 1387 346.9 1435.4 298.5 1483 346.2 1740.2 89.1 1740.2 638.3 92.4 638.3"/>
        <polygon class="f" points="377.1 642.5 449.9 569.7 474.3 594 485.2 583 500.3 598.1 507.2 591.1 523.7 607.6 638.1 493.1 712.1 567 763 516.2 802.1 555.3 896.3 461 966.3 531 982.4 514.8 1003.8 536.2 1013.7 526.4 1113.1 625.8 1140.3 598.6 1175 633.3 1485.5 322.8 1536.3 373.7 1558.9 351.2 1610.3 402.6 1654.3 358.7 1705.7 410.1 1743.5 372.4 1743.5 644.5 377.1 642.5"/>
        <polygon class="g" points="144.8 650.6 191.6 603.8 206.7 618.8 215.4 610.2 229.7 624.5 239.5 614.7 260.3 635.5 371.3 524.5 457.6 610.8 498.1 570.3 517.4 589.6 533.6 573.4 555.3 595.2 643.2 507.3 714.3 578.4 735.7 557 760 581.3 774.4 566.8 854.8 647.2 886.6 615.4 920.1 648.9 1220.8 348.3 1291.3 418.8 1315.5 394.6 1365.8 444.9 1409.3 401.5 1448.9 441.1 1686.8 652.6 144.8 650.6"/>
      </g>
    </g>
    <g class="h">
      <path class="i" d="M1349.7,252.3,1334,236.6a6.76,6.76,0,0,1,0-9.5l34.4-34.4a6.76,6.76,0,0,1,9.5,0l15.7,15.7a6.76,6.76,0,0,1,0,9.5l-34.4,34.4a6.58,6.58,0,0,1-9.3.2Zm27.5-58.8a5.8,5.8,0,0,0-8.1,0l-34.4,34.3a5.8,5.8,0,0,0,0,8.1l15.7,15.7a5.8,5.8,0,0,0,8.1,0l34.4-34.4a5.8,5.8,0,0,0,0-8.1Z"/>
      <path class="i" d="M1357.3,246.9,1339.5,229a1.45,1.45,0,0,1-.05-2.05l.05-.05,28.7-28.7a1.45,1.45,0,0,1,2.05,0l0,0,17.8,17.9a1.45,1.45,0,0,1,.05,2.05l-.05.05-28.7,28.7A1.66,1.66,0,0,1,1357.3,246.9Zm12.3-48a.48.48,0,0,0-.68,0l0,0-28.7,28.7c-.2.2-.2.5,0,.6l17.9,17.8a.48.48,0,0,0,.68,0l0,0,28.7-28.7c.2-.2.2-.5,0-.6Z"/>
      <path class="i" d="M1379.1,200.2l7.1,7.1a.91.91,0,0,1,0,1.2h0a.91.91,0,0,1-1.2,0l-7.1-7.1a.91.91,0,0,1,0-1.2h0A.91.91,0,0,1,1379.1,200.2Z"/>
      <path class="i" d="M1344.4,237.3l4.6,4.6a1.09,1.09,0,0,1,0,1.5l-1,1a1.09,1.09,0,0,1-1.5,0l-4.6-4.6a1.09,1.09,0,0,1,0-1.5l1-1A1.09,1.09,0,0,1,1344.4,237.3Z"/>
    </g>
    <g>
      <path class="i" d="M1000.1,522.1l-12.4-12.4a5.25,5.25,0,0,1-.08-7.42l.08-.08,27.3-27.3a5.25,5.25,0,0,1,7.42-.08l.08.08,12.4,12.4a5.25,5.25,0,0,1,.08,7.42l-.08.08L1007.7,522a5.47,5.47,0,0,1-7.6.1Zm21.8-46.7a4.47,4.47,0,0,0-6.32-.08l-.08.08-27.2,27.2a4.47,4.47,0,0,0-.08,6.32l.08.08,12.4,12.4a4.47,4.47,0,0,0,6.32.08l.08-.08,27.2-27.2a4.47,4.47,0,0,0,.08-6.32l-.08-.08Z"/>
      <path class="i" d="M1006.2,517.7,992,503.6a1.21,1.21,0,0,1,0-1.6l22.8-22.8a1.21,1.21,0,0,1,1.6,0l14.1,14.1a1.21,1.21,0,0,1,0,1.6l-22.8,22.8a.94.94,0,0,1-1.5,0Zm9.7-38a.45.45,0,0,0-.5,0h0l-22.8,22.8a.45.45,0,0,0,0,.5h0l14.1,14.1a.45.45,0,0,0,.5,0h0l22.8-22.8a.45.45,0,0,0,0-.5h0Z"/>
      <path class="i" d="M1023.4,480.8l5.6,5.6a.67.67,0,0,1,.05.95l-.05.05h0a.67.67,0,0,1-.95.05l-.05-.05-5.6-5.6a.67.67,0,0,1-.05-.95l.05-.05h0a.67.67,0,0,1,.95-.05Z"/>
      <path class="i" d="M995.9,510.1l3.7,3.7a.91.91,0,0,1,0,1.2l-.8.8a.91.91,0,0,1-1.2,0l-3.7-3.7a.91.91,0,0,1,0-1.2l.8-.8A.91.91,0,0,1,995.9,510.1Z"/>
    </g>
    <g>
      <path class="i" d="M365.1,456.7,349.4,441a6.76,6.76,0,0,1,0-9.5l34.4-34.4a6.76,6.76,0,0,1,9.5,0L409,412.8a6.76,6.76,0,0,1,0,9.5l-34.4,34.4A6.76,6.76,0,0,1,365.1,456.7Zm27.5-58.9a5.8,5.8,0,0,0-8.1,0l-34.4,34.4a5.8,5.8,0,0,0,0,8.1L365.8,456a5.8,5.8,0,0,0,8.1,0l34.4-34.4a5.8,5.8,0,0,0,0-8.1Z"/>
      <path class="i" d="M372.7,451.2l-17.9-17.8a1.45,1.45,0,0,1-.05-2l.05-.05,28.7-28.7a1.45,1.45,0,0,1,2-.05l.05.05,17.9,17.8a1.45,1.45,0,0,1,.05,2l-.05.05-28.7,28.7a1.45,1.45,0,0,1-2,.05Zm12.2-47.9c-.2-.2-.5-.2-.6,0L355.6,432a.48.48,0,0,0,0,.68l0,0,17.9,17.8c.2.2.5.2.6,0l28.7-28.7a.48.48,0,0,0,0-.68l0,0Z"/>
      <path class="i" d="M394.4,404.6l7.1,7.1a.91.91,0,0,1,0,1.2h0a.91.91,0,0,1-1.2,0l-7.1-7.1a.91.91,0,0,1,0-1.2h0a.75.75,0,0,1,1.2,0Z"/>
      <path class="i" d="M359.8,441.7l4.6,4.6a1.09,1.09,0,0,1,0,1.5l-1,1a1.09,1.09,0,0,1-1.5,0l-4.6-4.6a1.09,1.09,0,0,1,0-1.5l1-1a.94.94,0,0,1,1.5,0Z"/>
    </g>
    <g>
      <path class="i" d="M72.9,546.5,57.2,530.8a6.76,6.76,0,0,1,0-9.5l34.4-34.4a6.76,6.76,0,0,1,9.5,0l15.7,15.7a6.76,6.76,0,0,1,0,9.5L82.4,546.5A6.76,6.76,0,0,1,72.9,546.5Zm27.5-58.9a5.8,5.8,0,0,0-8.1,0L57.9,522a5.8,5.8,0,0,0,0,8.1l15.7,15.7a5.8,5.8,0,0,0,8.1,0l34.4-34.4a5.8,5.8,0,0,0,0-8.1Z"/>
      <path class="i" d="M80.6,541,62.8,523.2a1.45,1.45,0,0,1,0-2l0,0,28.7-28.7a1.45,1.45,0,0,1,2.05,0l0,0,17.8,17.8a1.45,1.45,0,0,1,0,2l0,0L82.6,541a1.34,1.34,0,0,1-1.89.11Zm12.2-47.9a.48.48,0,0,0-.68,0l0,0L63.4,521.8a.48.48,0,0,0,0,.68l0,0,17.8,17.8a.48.48,0,0,0,.68,0l0,0,28.7-28.7a.48.48,0,0,0,0-.68l0,0Z"/>
      <path class="i" d="M102.3,494.4l7.1,7.1a.91.91,0,0,1,0,1.2h0a.91.91,0,0,1-1.2,0l-7.1-7.1a.91.91,0,0,1,0-1.2h0A.91.91,0,0,1,102.3,494.4Z"/>
      <path class="i" d="M67.6,531.5l4.6,4.6a1.09,1.09,0,0,1,0,1.5l-1,1a1.09,1.09,0,0,1-1.5,0L65.1,534a1.09,1.09,0,0,1,0-1.5l1-1A1.09,1.09,0,0,1,67.6,531.5Z"/>
    </g>
    <g class="h">
      <path class="i" d="M413.8,237.6l-22.2-22.2a9.48,9.48,0,0,1,0-13.4l48.6-48.6a9.48,9.48,0,0,1,13.4,0l22.2,22.2a9.48,9.48,0,0,1,0,13.4l-48.6,48.6A9.48,9.48,0,0,1,413.8,237.6Zm38.8-83.2a8,8,0,0,0-11.31-.09l-.09.09L392.6,203a8,8,0,0,0-.09,11.31l.09.09,22.2,22.2a8,8,0,0,0,11.31.09l.09-.09L474.8,188a8,8,0,0,0,.09-11.31l-.09-.09Z"/>
      <path class="i" d="M424.5,229.8l-25.2-25.2a2,2,0,0,1,0-2.9h0l40.6-40.6a2.05,2.05,0,0,1,2.9,0h0l25.3,25.3a2,2,0,0,1,0,2.9h0l-40.6,40.6A2.29,2.29,0,0,1,424.5,229.8Zm17.3-67.7a.56.56,0,0,0-.9,0h0l-40.6,40.6a.56.56,0,0,0,0,.9h0l25.2,25.2a.56.56,0,0,0,.9,0h0L467,188.2a.56.56,0,0,0,0-.9h0Z"/>
      <path class="i" d="M455.2,163.9l10,10a1.15,1.15,0,0,1,.08,1.62l-.08.08h0a1.15,1.15,0,0,1-1.62.08l-.08-.08-10-10a1.15,1.15,0,0,1-.08-1.62l.08-.08h0A1.35,1.35,0,0,1,455.2,163.9Z"/>
      <path class="i" d="M406.3,216.3l6.6,6.6A1.45,1.45,0,0,1,413,225l-.05.05-1.4,1.4a1.45,1.45,0,0,1-2,.05l-.05-.05-6.6-6.6a1.45,1.45,0,0,1-.05-2.05l.05-.05,1.4-1.4a1.45,1.45,0,0,1,2-.05Z"/>
    </g>
    <g>
      <path class="i" d="M258.1,624.9l-10.7-10.7a4.59,4.59,0,0,1,0-6.49h0l23.4-23.4a4.59,4.59,0,0,1,6.49,0h0L288,595a4.59,4.59,0,0,1,0,6.49h0l-23.4,23.4a4.59,4.59,0,0,1-6.49,0Zm18.7-40a3.92,3.92,0,0,0-5.5,0l-23.4,23.4a3.92,3.92,0,0,0,0,5.5l10.7,10.7a3.92,3.92,0,0,0,5.5,0l23.4-23.4a3.92,3.92,0,0,0,0-5.5Z"/>
      <path class="i" d="M263.3,621.2,251.2,609a1,1,0,0,1,0-1.4l19.5-19.5a1,1,0,0,1,1.4,0l12.1,12.1a1,1,0,0,1,0,1.4l-19.5,19.5a.9.9,0,0,1-1.25.23Zm8.3-32.6a.3.3,0,0,0-.4,0h0l-19.5,19.5a.3.3,0,0,0,0,.4h0l12.1,12.1a.3.3,0,0,0,.4,0h0l19.5-19.5a.3.3,0,0,0,0-.4h0Z"/>
      <path class="i" d="M278.1,589.5l4.8,4.8a.61.61,0,0,1,0,.8h0a.61.61,0,0,1-.8,0l-4.8-4.8a.61.61,0,0,1,0-.8h0a.47.47,0,0,1,.8,0Z"/>
      <path class="i" d="M254.5,614.7l3.2,3.2a.67.67,0,0,1,.05.95l-.05.05-.7.7a.67.67,0,0,1-.95.05l-.05-.05-3.2-3.2a.67.67,0,0,1-.05-.95l.05-.05.7-.7a.67.67,0,0,1,.95-.05Z"/>
    </g>
    <g>
      <path class="i" d="M146.8,173.9l-10.7-10.7a4.59,4.59,0,0,1,0-6.49h0l23.4-23.4a4.59,4.59,0,0,1,6.49,0h0L176.7,144a4.59,4.59,0,0,1,0,6.49h0l-23.4,23.4a4.59,4.59,0,0,1-6.49,0Zm18.6-40a3.92,3.92,0,0,0-5.5,0l-23.4,23.4a3.92,3.92,0,0,0,0,5.5l10.7,10.7a3.92,3.92,0,0,0,5.5,0L176,150.1a3.92,3.92,0,0,0,0-5.5Z"/>
      <path class="i" d="M151.9,170.2l-12.1-12.1a1,1,0,0,1,0-1.4l19.5-19.5a1,1,0,0,1,1.4,0l12.1,12.1a1,1,0,0,1,0,1.4l-19.5,19.5A1,1,0,0,1,151.9,170.2Zm8.4-32.6a.3.3,0,0,0-.4,0h0l-19.5,19.5a.3.3,0,0,0,0,.4h0l12.1,12.1a.3.3,0,0,0,.4,0h0l19.5-19.5a.3.3,0,0,0,0-.4h0Z"/>
      <path class="i" d="M166.7,138.5l4.8,4.8a.61.61,0,0,1,0,.8h0a.61.61,0,0,1-.8,0l-4.8-4.8a.61.61,0,0,1,0-.8h0A.61.61,0,0,1,166.7,138.5Z"/>
      <path class="i" d="M143.2,163.7l3.2,3.2a.67.67,0,0,1,.05.95l-.05.05-.7.7a.67.67,0,0,1-.95.05l-.05-.05-3.2-3.2a.67.67,0,0,1-.05-.95l.05-.05.7-.7a.67.67,0,0,1,.95-.05Z"/>
    </g>
    <g>
      <path class="i" d="M1186.3,161l-10.7-10.7a4.59,4.59,0,0,1,0-6.49h0l23.4-23.4a4.59,4.59,0,0,1,6.49,0h0l10.7,10.7a4.59,4.59,0,0,1,0,6.49h0L1192.8,161a4.59,4.59,0,0,1-6.49,0Zm18.6-40a3.92,3.92,0,0,0-5.5,0l-23.3,23.4a3.92,3.92,0,0,0,0,5.5l10.7,10.7a3.92,3.92,0,0,0,5.5,0l23.4-23.4a3.92,3.92,0,0,0,0-5.5Z"/>
      <path class="i" d="M1191.4,157.3l-12.1-12.1a1,1,0,0,1,0-1.4l19.5-19.5a1,1,0,0,1,1.4,0l12.1,12.1a1,1,0,0,1,0,1.4l-19.5,19.5A1,1,0,0,1,1191.4,157.3Zm8.4-32.6a.3.3,0,0,0-.4,0h0l-19.5,19.5a.3.3,0,0,0,0,.4h0l12.1,12.1a.3.3,0,0,0,.4,0h0l19.5-19.5a.3.3,0,0,0,0-.4h0Z"/>
      <path class="i" d="M1206.2,125.6l4.8,4.8a.61.61,0,0,1,0,.8h0a.61.61,0,0,1-.8,0l-4.8-4.8a.61.61,0,0,1,0-.8h0A.61.61,0,0,1,1206.2,125.6Z"/>
      <path class="i" d="M1182.6,150.8l3.2,3.2a.67.67,0,0,1,.05.95l-.05.05-.7.7a.67.67,0,0,1-.95.05l-.05-.05-3.2-3.2a.67.67,0,0,1-.05-.95l.05-.05.7-.7a.67.67,0,0,1,.95-.05Z"/>
    </g>
    <g>
      <path class="i" d="M553.9,581.8l-10.3-10.3a4.41,4.41,0,0,1,0-6.2l22.5-22.5a4.41,4.41,0,0,1,6.2,0l10.3,10.3a4.41,4.41,0,0,1,0,6.2l-22.5,22.5A4.41,4.41,0,0,1,553.9,581.8Zm18-38.5a3.68,3.68,0,0,0-5.2-.1l-.1.1-22.5,22.5a3.68,3.68,0,0,0-.1,5.2l.1.1,10.3,10.3a3.68,3.68,0,0,0,5.2.1l.1-.1,22.4-22.6a3.68,3.68,0,0,0,.1-5.2l-.1-.1Z"/>
      <path class="i" d="M558.9,578.2l-11.7-11.7a1,1,0,0,1,0-1.3L566,546.4a1,1,0,0,1,1.3,0L579,558.1a1,1,0,0,1,0,1.3l-18.8,18.8A1,1,0,0,1,558.9,578.2Zm8-31.4a.3.3,0,0,0-.4,0l-18.8,18.8a.3.3,0,0,0,0,.4l11.7,11.7a.3.3,0,0,0,.4,0l18.8-18.8a.3.3,0,0,0,0-.4Z"/>
      <path class="i" d="M573.1,547.7l4.6,4.6a.61.61,0,0,1,0,.8h0a.61.61,0,0,1-.8,0l-4.6-4.6a.61.61,0,0,1,0-.8h0A.61.61,0,0,1,573.1,547.7Z"/>
      <path class="i" d="M550.4,571.9l3,3a.67.67,0,0,1,.05.95l-.05.05-.7.7a.67.67,0,0,1-.95.05l-.05-.05-3-3a.67.67,0,0,1-.05-.95l.05-.05.7-.7A.91.91,0,0,1,550.4,571.9Z"/>
    </g>
    <g>
      <path class="i" d="M1265.5,561.6l-10.3-10.3a4.41,4.41,0,0,1,0-6.2l22.5-22.5a4.41,4.41,0,0,1,6.2,0l10.3,10.3a4.41,4.41,0,0,1,0,6.2l-22.5,22.5a4.23,4.23,0,0,1-6,.22Zm18-38.5a3.68,3.68,0,0,0-5.2-.1l-.1.1-22.5,22.5a3.68,3.68,0,0,0-.1,5.2l.1.1,10.3,10.3a3.68,3.68,0,0,0,5.2.1l.1-.1,22.5-22.5a3.68,3.68,0,0,0,.1-5.2l-.1-.1Z"/>
      <path class="i" d="M1270.5,558.1l-11.7-11.7a1,1,0,0,1,0-1.3l18.8-18.8a1,1,0,0,1,1.3,0l11.7,11.7a1,1,0,0,1,0,1.3l-18.8,18.8A1,1,0,0,1,1270.5,558.1Zm8-31.4a.3.3,0,0,0-.4,0l-18.8,18.8a.3.3,0,0,0,0,.4l11.7,11.7a.3.3,0,0,0,.4,0l18.8-18.8a.3.3,0,0,0,0-.4Z"/>
      <path class="i" d="M1284.7,527.5l4.6,4.6a.61.61,0,0,1,0,.8h0a.61.61,0,0,1-.8,0l-4.6-4.6a.61.61,0,0,1,0-.8h0A.61.61,0,0,1,1284.7,527.5Z"/>
      <path class="i" d="M1262,551.8l3,3a.67.67,0,0,1,.05.95l-.05.05-.7.7a.67.67,0,0,1-.95.05l-.05-.05-3-3a.67.67,0,0,1-.05-.95l.05-.05.7-.7a.67.67,0,0,1,.95-.05Z"/>
    </g>
    <path class="i" d="M531.1,292.2a5.17,5.17,0,0,1,1.7,1.6,3.14,3.14,0,0,1,.6,1.6.6.6,0,0,1-.1.4.52.52,0,0,1-.4.2h-1a.6.6,0,0,1-.4-.1c-.1-.1-.2-.3-.3-.4a3.53,3.53,0,0,0-1.3-1.4,4.2,4.2,0,0,0-2.4-.7,5,5,0,0,0-2.4.6,2.23,2.23,0,0,0-1,1.8,2.11,2.11,0,0,0,.5,1.3,3.77,3.77,0,0,0,1.5.9c.7.2,1.6.5,2.9.9a10.08,10.08,0,0,1,3.8,1.7,3.25,3.25,0,0,1,1.1,2.8,4.31,4.31,0,0,1-1.4,3.2,6.67,6.67,0,0,1-3.8,1.5v1.5a.65.65,0,0,1-.6.6h-1a.65.65,0,0,1-.6-.6V308a6.22,6.22,0,0,1-2.6-.9,5.48,5.48,0,0,1-1.8-1.6,3.59,3.59,0,0,1-.7-1.8.47.47,0,0,1,.44-.5h1.06a.6.6,0,0,1,.4.1,1.38,1.38,0,0,1,.3.4,3.39,3.39,0,0,0,1.4,1.5,4.23,4.23,0,0,0,2.7.7,5.92,5.92,0,0,0,2.9-.7,2.24,2.24,0,0,0,1.2-1.9,1.61,1.61,0,0,0-.6-1.3,5.56,5.56,0,0,0-1.7-.9l-3.2-.9a6.19,6.19,0,0,1-3.3-1.7,4,4,0,0,1-1-2.8,4.55,4.55,0,0,1,.5-2,4.63,4.63,0,0,1,1.5-1.6,5.28,5.28,0,0,1,2.5-.8v-1.5a.65.65,0,0,1,.6-.6h1a.65.65,0,0,1,.6.6v1.6A4.58,4.58,0,0,1,531.1,292.2Z"/>
    <g class="j">
      <path class="i" d="M614.6,111.8a5.17,5.17,0,0,1,1.7,1.6,3.14,3.14,0,0,1,.6,1.6.6.6,0,0,1-.1.4c-.1.1-.2.2-.4.1h-1a.6.6,0,0,1-.4-.1c-.1-.1-.2-.3-.3-.4a3.53,3.53,0,0,0-1.3-1.4,4.2,4.2,0,0,0-2.4-.7,5,5,0,0,0-2.4.6,2.23,2.23,0,0,0-1,1.8,2.11,2.11,0,0,0,.5,1.3,3.77,3.77,0,0,0,1.5.9c.7.2,1.6.5,2.9.9a10.09,10.09,0,0,1,3.8,1.7,3.25,3.25,0,0,1,1.1,2.8,4.31,4.31,0,0,1-1.4,3.2,6.67,6.67,0,0,1-3.8,1.5v1.5a.65.65,0,0,1-.6.6h-1a.65.65,0,0,1-.6-.6v-1.6a6.22,6.22,0,0,1-2.6-.9,5.48,5.48,0,0,1-1.8-1.6,3.59,3.59,0,0,1-.7-1.8.47.47,0,0,1,.44-.5h1.06a.6.6,0,0,1,.4.1,1.38,1.38,0,0,1,.3.4,3.39,3.39,0,0,0,1.4,1.5,4.23,4.23,0,0,0,2.7.7,5.92,5.92,0,0,0,2.9-.7,2.24,2.24,0,0,0,1.2-1.9,1.61,1.61,0,0,0-.6-1.3,5.56,5.56,0,0,0-1.7-.9l-3.2-.9a6.19,6.19,0,0,1-3.3-1.7,4,4,0,0,1-1-2.8,4.55,4.55,0,0,1,.5-2,4.63,4.63,0,0,1,1.5-1.6,5.28,5.28,0,0,1,2.5-.8v-1.5a.65.65,0,0,1,.6-.6h1a.65.65,0,0,1,.6.6v1.6A5.91,5.91,0,0,1,614.6,111.8Z"/>
    </g>
    <path class="i" d="M1134.8,543a5.18,5.18,0,0,1,1.7,1.6,3.14,3.14,0,0,1,.6,1.6.6.6,0,0,1-.1.4.52.52,0,0,1-.4.2h-1a.6.6,0,0,1-.4-.1c-.1-.1-.2-.3-.3-.4a3.53,3.53,0,0,0-1.3-1.4,4.2,4.2,0,0,0-2.4-.7,5,5,0,0,0-2.4.6,2.23,2.23,0,0,0-1,1.8,2.11,2.11,0,0,0,.5,1.3,4.19,4.19,0,0,0,1.4.9c.7.2,1.6.5,2.9.9a10.09,10.09,0,0,1,3.8,1.7,3.25,3.25,0,0,1,1.1,2.8,4.31,4.31,0,0,1-1.4,3.2,6.67,6.67,0,0,1-3.8,1.5v1.5a.65.65,0,0,1-.6.6h-1a.65.65,0,0,1-.6-.6v-1.6a6.22,6.22,0,0,1-2.6-.9,5.48,5.48,0,0,1-1.8-1.6,3.59,3.59,0,0,1-.7-1.8.47.47,0,0,1,.44-.5h1.06a.6.6,0,0,1,.4.1,1.38,1.38,0,0,1,.3.4,3.39,3.39,0,0,0,1.4,1.5,4.23,4.23,0,0,0,2.7.7,5.92,5.92,0,0,0,2.9-.7,2.24,2.24,0,0,0,1.2-1.9,1.61,1.61,0,0,0-.6-1.3,5.56,5.56,0,0,0-1.7-.9l-3.2-.9a6.19,6.19,0,0,1-3.3-1.7,4,4,0,0,1-1-2.8,4.55,4.55,0,0,1,.5-2,4.63,4.63,0,0,1,1.5-1.6,5.28,5.28,0,0,1,2.5-.8v-1.5a.65.65,0,0,1,.6-.6h1a.65.65,0,0,1,.6.6v1.6A4.63,4.63,0,0,1,1134.8,543Z"/>
    <path class="i" d="M198,405.4a5.17,5.17,0,0,1,1.7,1.6,3.14,3.14,0,0,1,.6,1.6.6.6,0,0,1-.1.4.52.52,0,0,1-.4.2h-1a.6.6,0,0,1-.4-.1c-.1-.1-.2-.3-.3-.4a3.53,3.53,0,0,0-1.3-1.4,4.2,4.2,0,0,0-2.4-.7,5,5,0,0,0-2.4.6,2.23,2.23,0,0,0-1,1.8,2.11,2.11,0,0,0,.5,1.3,4.19,4.19,0,0,0,1.4.9c.7.2,1.6.5,2.9.9a10.09,10.09,0,0,1,3.8,1.7,3.25,3.25,0,0,1,1.1,2.8,4.31,4.31,0,0,1-1.4,3.2,6.7,6.7,0,0,1-3.9,1.5v1.5a.65.65,0,0,1-.6.6h-1a.65.65,0,0,1-.6-.6v-1.6a6.22,6.22,0,0,1-2.6-.9,5.48,5.48,0,0,1-1.8-1.6,3.59,3.59,0,0,1-.7-1.8.47.47,0,0,1,.44-.5h1.06a.6.6,0,0,1,.4.1,1.38,1.38,0,0,1,.3.4,3.39,3.39,0,0,0,1.4,1.5,4.23,4.23,0,0,0,2.7.7,5.92,5.92,0,0,0,2.9-.7,2.24,2.24,0,0,0,1.2-1.9,1.61,1.61,0,0,0-.6-1.3,5.56,5.56,0,0,0-1.7-.9l-3.2-.9a6.19,6.19,0,0,1-3.3-1.7,4,4,0,0,1-1-2.8,4.55,4.55,0,0,1,.5-2,4.63,4.63,0,0,1,1.5-1.6,5.28,5.28,0,0,1,2.5-.8V403a.65.65,0,0,1,.6-.6h1a.65.65,0,0,1,.6.6v1.6A5,5,0,0,1,198,405.4Z"/>
    <path class="i" d="M1226.1,305a5.17,5.17,0,0,1,1.7,1.6,3.14,3.14,0,0,1,.6,1.6.6.6,0,0,1-.1.4c-.1.1-.2.2-.4.1h-1a.6.6,0,0,1-.4-.1c-.1-.1-.2-.3-.3-.4a3.53,3.53,0,0,0-1.3-1.4,4.2,4.2,0,0,0-2.4-.7,5,5,0,0,0-2.4.6,2.23,2.23,0,0,0-1,1.8,2.11,2.11,0,0,0,.5,1.3,4.19,4.19,0,0,0,1.4.9c.7.2,1.6.5,2.9.9a10.09,10.09,0,0,1,3.8,1.7,3.25,3.25,0,0,1,1.1,2.8,4.31,4.31,0,0,1-1.4,3.2,6.67,6.67,0,0,1-3.8,1.5v1.5a.65.65,0,0,1-.6.6h-1a.65.65,0,0,1-.6-.6v-1.6a6.22,6.22,0,0,1-2.6-.9,5.48,5.48,0,0,1-1.8-1.6,3.59,3.59,0,0,1-.7-1.8.47.47,0,0,1,.44-.5h1.06a.6.6,0,0,1,.4.1,1.38,1.38,0,0,1,.3.4,3.39,3.39,0,0,0,1.4,1.5,4.23,4.23,0,0,0,2.7.7,5.92,5.92,0,0,0,2.9-.7,2.24,2.24,0,0,0,1.2-1.9,1.61,1.61,0,0,0-.6-1.3,5.56,5.56,0,0,0-1.7-.9l-3.2-.9a6.19,6.19,0,0,1-3.3-1.7,4,4,0,0,1-1-2.8,4.55,4.55,0,0,1,.5-2,4.63,4.63,0,0,1,1.5-1.6,5.28,5.28,0,0,1,2.5-.8v-1.5a.65.65,0,0,1,.6-.6h1a.65.65,0,0,1,.6.6v1.6A10.63,10.63,0,0,1,1226.1,305Z"/>
    <path class="i" d="M1211.7,229.6a5.17,5.17,0,0,1,1.7,1.6,3.14,3.14,0,0,1,.6,1.6.6.6,0,0,1-.1.4c-.1.1-.2.2-.4.1h-1a.6.6,0,0,1-.4-.1c-.1-.1-.2-.3-.3-.4a3.53,3.53,0,0,0-1.3-1.4,4.2,4.2,0,0,0-2.4-.7,5,5,0,0,0-2.4.6,2.23,2.23,0,0,0-1,1.8,2.11,2.11,0,0,0,.5,1.3,4.19,4.19,0,0,0,1.4.9c.7.2,1.6.5,2.9.9a10.09,10.09,0,0,1,3.8,1.7,3.25,3.25,0,0,1,1.1,2.8,4.31,4.31,0,0,1-1.4,3.2,6.67,6.67,0,0,1-3.8,1.5v1.5a.65.65,0,0,1-.6.6h-1a.65.65,0,0,1-.6-.6v-1.6a6.22,6.22,0,0,1-2.6-.9,5.48,5.48,0,0,1-1.8-1.6,3.59,3.59,0,0,1-.7-1.8.47.47,0,0,1,.44-.5h1.06a.6.6,0,0,1,.4.1,1.38,1.38,0,0,1,.3.4,3.39,3.39,0,0,0,1.4,1.5,4.23,4.23,0,0,0,2.7.7,5.92,5.92,0,0,0,2.9-.7,2.24,2.24,0,0,0,1.2-1.9,1.61,1.61,0,0,0-.6-1.3,5.56,5.56,0,0,0-1.7-.9l-3.2-.9a6.19,6.19,0,0,1-3.3-1.7,4,4,0,0,1-1-2.8,4.55,4.55,0,0,1,.5-2,4.63,4.63,0,0,1,1.5-1.6,5.28,5.28,0,0,1,2.5-.8v-1.5a.65.65,0,0,1,.6-.6h1a.65.65,0,0,1,.6.6v1.6A5.81,5.81,0,0,1,1211.7,229.6Z"/>
    <path class="i" d="M1256.7,81.2a4.3,4.3,0,0,1,1,.9,3,3,0,0,1,.4,1c0,.1,0,.2-.1.2s-.1.1-.2.1h-.6a.37.37,0,0,1-.3-.1l-.2-.2a2,2,0,0,0-.8-.8,2.65,2.65,0,0,0-2.8,0,1.27,1.27,0,0,0-.3,1.9,2.18,2.18,0,0,0,.8.5c.4.1,1,.3,1.7.5a5.53,5.53,0,0,1,2.2,1,2.36,2.36,0,0,1,.7,1.6,2.73,2.73,0,0,1-.8,1.9,4.3,4.3,0,0,1-2.3.9v.9a.43.43,0,0,1-.4.4h-.6a.43.43,0,0,1-.4-.4v-.9a4.42,4.42,0,0,1-1.5-.5,4.81,4.81,0,0,1-1.1-.9,1.78,1.78,0,0,1-.4-1,.27.27,0,0,1,.24-.3h.66a.37.37,0,0,1,.3.1l.2.2a2.36,2.36,0,0,0,.8.9,2.93,2.93,0,0,0,1.6.4,3.29,3.29,0,0,0,1.7-.4,1.36,1.36,0,0,0,.7-1.1.91.91,0,0,0-.4-.8,3.13,3.13,0,0,0-1-.5c-.4-.1-1-.3-1.8-.5a3.52,3.52,0,0,1-1.9-1,2.27,2.27,0,0,1-.6-1.6,2.66,2.66,0,0,1,.3-1.2,2,2,0,0,1,.9-.9,3.36,3.36,0,0,1,1.4-.5v-.9a.43.43,0,0,1,.4-.4h.6a.43.43,0,0,1,.4.4V81A1.55,1.55,0,0,1,1256.7,81.2Z"/>
    <path class="i" d="M374.4,501.9a5.17,5.17,0,0,1,1.7,1.6,3.14,3.14,0,0,1,.6,1.6.6.6,0,0,1-.1.4.52.52,0,0,1-.4.2h-1a.6.6,0,0,1-.4-.1c-.1-.1-.2-.3-.3-.4a3.53,3.53,0,0,0-1.3-1.4,4.2,4.2,0,0,0-2.4-.7,5,5,0,0,0-2.4.6,2.23,2.23,0,0,0-1,1.8,2.11,2.11,0,0,0,.5,1.3,3.77,3.77,0,0,0,1.5.9c.7.2,1.6.5,2.9.9a10.08,10.08,0,0,1,3.8,1.7,3.25,3.25,0,0,1,1.1,2.8,4.31,4.31,0,0,1-1.4,3.2,6.7,6.7,0,0,1-3.9,1.5v1.5a.65.65,0,0,1-.6.6h-1a.65.65,0,0,1-.6-.6v-1.6a5.81,5.81,0,0,1-2.5-.9,5.48,5.48,0,0,1-1.8-1.6,3.59,3.59,0,0,1-.7-1.8.47.47,0,0,1,.44-.5h1.06a.6.6,0,0,1,.4.1,1.38,1.38,0,0,1,.3.4,3.39,3.39,0,0,0,1.4,1.5,4.23,4.23,0,0,0,2.7.7,5.92,5.92,0,0,0,2.9-.7,2.24,2.24,0,0,0,1.2-1.9,1.61,1.61,0,0,0-.6-1.3,5.56,5.56,0,0,0-1.7-.9l-3.2-.9a6.19,6.19,0,0,1-3.3-1.7,4,4,0,0,1-1-2.8,4.55,4.55,0,0,1,.5-2,4.63,4.63,0,0,1,1.5-1.6,5.28,5.28,0,0,1,2.5-.8v-1.5a.65.65,0,0,1,.6-.6h1a.65.65,0,0,1,.6.6v1.6A6.81,6.81,0,0,1,374.4,501.9Z"/>
    <path class="i" d="M647.4,485.8a5.17,5.17,0,0,1,1.7,1.6,3.14,3.14,0,0,1,.6,1.6.6.6,0,0,1-.1.4.52.52,0,0,1-.4.2h-1a.6.6,0,0,1-.4-.1c-.1-.1-.2-.3-.3-.4a3.53,3.53,0,0,0-1.3-1.4,4.2,4.2,0,0,0-2.4-.7,5,5,0,0,0-2.4.6,2.23,2.23,0,0,0-1,1.8,2.11,2.11,0,0,0,.5,1.3,3.77,3.77,0,0,0,1.5.9c.7.2,1.6.5,2.9.9a10.08,10.08,0,0,1,3.8,1.7,3.25,3.25,0,0,1,1.1,2.8,4.31,4.31,0,0,1-1.4,3.2,6.67,6.67,0,0,1-3.8,1.5v1.5a.65.65,0,0,1-.6.6h-1a.65.65,0,0,1-.6-.6v-1.6a6.22,6.22,0,0,1-2.6-.9,5.48,5.48,0,0,1-1.8-1.6,3.59,3.59,0,0,1-.7-1.8.47.47,0,0,1,.44-.5h1.06a.6.6,0,0,1,.4.1,1.38,1.38,0,0,1,.3.4,3.39,3.39,0,0,0,1.4,1.5,4.23,4.23,0,0,0,2.7.7,5.92,5.92,0,0,0,2.9-.7,2.1,2.1,0,0,0,1.2-2,1.61,1.61,0,0,0-.6-1.3,5.56,5.56,0,0,0-1.7-.9l-3.2-.9a6.19,6.19,0,0,1-3.3-1.7,4,4,0,0,1-1-2.8,4.55,4.55,0,0,1,.5-2,4.63,4.63,0,0,1,1.5-1.6,5.28,5.28,0,0,1,2.5-.8v-1.5a.65.65,0,0,1,.6-.6h1a.65.65,0,0,1,.6.6v1.6A5.42,5.42,0,0,1,647.4,485.8Z"/>
  </g>
</svg>
