<svg xmlns="http://www.w3.org/2000/svg" xmlns:xlink="http://www.w3.org/1999/xlink" viewBox="0 0 241.58 121.73">
  <defs>
    <style>
      .a {
        fill: none;
      }

      .b {
        clip-path: url(#a);
      }

      .c {
        fill: #4b5866;
      }

      .d {
        fill: #647584;
      }

      .e {
        fill: #34404f;
        opacity: 0.6;
        isolation: isolate;
      }

      .f {
        fill: #2e3c49;
      }
    </style>
    <clipPath id="a">
      <rect class="a" x="60.8" y="42.62" width="117.98" height="104.36"/>
    </clipPath>
  </defs>
  <title>Money</title>
  <g>
    <g class="b">
      <g>
        <polygon class="c" points="161.94 60.23 140.26 90.58 99.1 29.28 79.4 43.24 75.78 32.01 97.99 5.08 167.02 50.28 161.94 60.23"/>
        <path class="d" d="M108,13.66c-.76.68-1.4,1.3-2.1,1.85-3.19,2.5-6.65,2.65-10.24,1a.88.88,0,0,0-1.36.38C93.65,17.89,80,38,80,38l-6.26,4.84s-3.47-3.26-3.5-3.24a3.88,3.88,0,0,1-.37-5.09c1.59-2.41,3.21-4.79,4.82-7.19L91.39,2.52c1.91-2.85,4.13-3.26,7-1.34l70.36,47.3c2.77,1.86,3.21,4,1.36,6.8L151.75,82.52l-6.88-8.44s8.13-12,10.64-15.68a1.1,1.1,0,0,0-.14-1.77c-3.62-3.22-3.86-7.16-2.23-11.41a1.08,1.08,0,0,0-.32-1.49l-.14-.08q-22-14.73-43.94-29.49C108.53,14,108.25,13.84,108,13.66Z"/>
        <path class="d" d="M122.75,45.88l2.77-.7c-.19-1.88-1.48-3-2.71-4.19l1.4-2.08-1.61-1.08-1.25,1.86c-1.35-.12-2.5-.21-3.65-.33a.86.86,0,0,1-.53-.26c-1.66-2-3.3-4.07-5-6.14,5.3-2.27,12.94-.94,17.57,4.85,5.09,6.36,3.76,14.35.91,18.11Z"/>
        <path class="c" d="M143.11,94.35l-11.6,9.36c-.8.65-1.65,1.24-2.41,1.94a.93.93,0,0,1-1.45,0c-2.7-2.16-5.71-3.21-9.16-2.24-1.19.33-2.33.85-3.6,1.33L80.51,62.08c3.71-4.12,4.1-8.6,1.43-13.44L96.69,36.76a30.1,30.1,0,0,0,4,2.61c2.87,1.31,5.72.79,8.41-.68a1.07,1.07,0,0,1,1.65.32Q127.32,59.63,144,80.2a1.12,1.12,0,0,1,.06,1.58l-.06.06a20.58,20.58,0,0,0-1.91,3.08,8,8,0,0,0-.06,7A25.72,25.72,0,0,0,143.11,94.35ZM125.5,80.28a15.63,15.63,0,1,0-.08.12Z"/>
        <path class="d" d="M125.5,80.28a15.7,15.7,0,1,1-4.27-21.79l0,0A15.69,15.69,0,0,1,125.5,80.28Zm-19.15-2.83a5.81,5.81,0,0,0,4.91,1.92c3.53-.32,5.39-3.16,4.27-6.49-.42-1.25-.91-2.47-1.32-3.72-.21-.65-.66-1.43.16-1.93a1.45,1.45,0,0,1,2,.61l0,.08c.72,1,1.3,2.2,2.07,3.53l2.45.15c.35-1.85-.56-3.29-1.34-4.79l2-1.66-1.39-1.6c-1.1,1.85-2.21,1.55-3.71.59s-3.21-.37-4.67.69a3.42,3.42,0,0,0-1.53,4c.38,1.37.86,2.71,1.29,4.06a3.41,3.41,0,0,1,.4,1.41,2.88,2.88,0,0,1-.87,1.75,1.92,1.92,0,0,1-1.7-.25A5.53,5.53,0,0,1,107,70.89l-3.09-.44c-.49,2.11.49,3.74,1.26,5.43l-2,1.64L104.33,79Z"/>
        <path class="c" d="M106.35,77.45l-2,1.51-1.18-1.46,2-1.64c-.77-1.69-1.76-3.32-1.26-5.43l3.09.44a5.53,5.53,0,0,0,2.39,4.91,1.92,1.92,0,0,0,1.7.25,2.88,2.88,0,0,0,.87-1.75,3.41,3.41,0,0,0-.4-1.41c-.43-1.35-.91-2.69-1.29-4.06a3.42,3.42,0,0,1,1.53-4c1.46-1.06,3.12-1.67,4.67-.69s2.62,1.26,3.71-.59l1.39,1.6-2,1.66c.78,1.5,1.68,2.94,1.34,4.79l-2.45-.15c-.77-1.33-1.35-2.48-2.07-3.53a1.45,1.45,0,0,0-1.92-.73l-.08,0c-.82.5-.37,1.28-.16,1.93.41,1.25.9,2.47,1.32,3.72a4.67,4.67,0,0,1-4.27,6.49A5.81,5.81,0,0,1,106.35,77.45Z"/>
        <path class="e" d="M154.33,78.77c-3.28-4.07-4.85-6-8.13-10.06L129.51,48,107.75,20.93c-3.55-4.41-8.3-4.93-12.69-1.39l-24.91,20,4.61,4.19c8.53-6.87,14.32-14.2,22.85-21.07,2.64-2.12,4.84-1.88,7,.77L143.1,71.2,152,82.26Z"/>
        <path class="d" d="M121.62,120.85c-.19-.21-.6-.61-1-1L66.93,53.23c-1.77-2.2-1.47-4.64.77-6.45l29.83-24c2.64-2.12,4.84-1.88,7,.77L143,71.32l14.8,18.36c2,2.47,1.78,4.77-.67,6.75l-30,24.18A4.35,4.35,0,0,1,121.62,120.85Zm21.49-26.5c-.42-.87-.82-1.62-1.16-2.4a8,8,0,0,1,.06-7,20.58,20.58,0,0,1,1.91-3.08,1.12,1.12,0,0,0,.06-1.58l-.06-.06Q127.28,59.63,110.75,39a1.07,1.07,0,0,0-1.65-.32c-2.69,1.47-5.54,2-8.41.68a30.1,30.1,0,0,1-4-2.61L81.94,48.64c2.67,4.83,2.28,9.32-1.43,13.44l34.38,42.66c1.27-.47,2.41-1,3.6-1.33,3.45-1,6.46.09,9.16,2.24a.93.93,0,0,0,1.45,0c.75-.7,1.6-1.29,2.41-1.94Z"/>
      </g>
    </g>
    <rect class="f" y="34.62" width="241.58" height="0.85"/>
  </g>
</svg>
