<svg xmlns="http://www.w3.org/2000/svg" viewBox="0 0 227.1 420" class="svg-smartphone">
  <defs>
    <style>
      .svg-smartphone .a {
        fill: #222a35;
      }

      .svg-smartphone .b,
	    .svg-smartphone .d {
        fill: #34404f;
      }

      .svg-smartphone .b {
        stroke: #1e252d;
      }

      .svg-smartphone .b,
	    .svg-smartphone .e,
	    .svg-smartphone .f {
        stroke-miterlimit: 10;
      }

      .svg-smartphone .c {
        fill: #afafaf;
      }

      .svg-smartphone .e,
	    .svg-smartphone .f {
        fill: none;
        stroke: #34404f;
      }

      .svg-smartphone .f {
        stroke-width: 3px;
      }
    </style>
  </defs>
  <title>Smartphone</title>
  <g>
    <path class="a" d="M225.3,13.3c0-7-3.3-11.3-10.2-11.3H15.2C8.2,2,2.6,5.7,2.6,12.7L1.8,405.2c0,9.4,5.1,13.8,13.5,13.8H215.2c7,0,10.2-8.2,10.2-15.1l-.1-390.6Z"/>
    <rect class="b" x="15.8" y="54.5" width="99.5" height="155"/>
    <rect class="b" x="15.8" y="209.5" width="99.5" height="155"/>
    <rect class="b" x="115.3" y="209.5" width="99.5" height="155"/>
    <rect class="b" x="115.3" y="54.5" width="99.5" height="155"/>
    <g id="site" class="el">
      <rect class="c" x="148.6" y="126.1" width="16.5" height="3.5"/>
      <rect class="c" x="148.6" y="145" width="16.5" height="3.5"/>
      <rect class="c" x="156.8" y="138.7" width="24.8" height="3.5"/>
      <rect class="c" x="156.8" y="132.4" width="24.8" height="3.5"/>
      <path class="c" d="M185.1,108.4H145a5.34,5.34,0,0,0-5.3,5.3v36.6a5.34,5.34,0,0,0,5.3,5.3h40.1a5.34,5.34,0,0,0,5.3-5.3V113.7A5.27,5.27,0,0,0,185.1,108.4Zm1.8,41.9a1.79,1.79,0,0,1-1.8,1.8H145a1.79,1.79,0,0,1-1.8-1.8V122.6h43.6l.1,27.7Zm0-31.3H143.3v-5.3a1.79,1.79,0,0,1,1.8-1.8h40.1a1.79,1.79,0,0,1,1.8,1.8l-.1,5.3Z"/>
      <rect class="c" x="165.1" y="113.7" width="20.1" height="3.5"/>
      <circle class="c" cx="146.8" cy="115.5" r="2.4"/>
    </g>
    <g id="conf" class="el">
      <path class="c" d="M187.9,281.7l-3.6-.6a25.54,25.54,0,0,0-1.4-3.5l2.1-2.9a3.18,3.18,0,0,0-.3-4l-3.1-3.2a3.1,3.1,0,0,0-2.2-.9,3,3,0,0,0-1.8.6l-3,2.1a19.43,19.43,0,0,0-3.6-1.5l-.6-3.5a3.12,3.12,0,0,0-3.1-2.6h-4.5a3.2,3.2,0,0,0-3.1,2.6l-.6,3.6a20.65,20.65,0,0,0-3.4,1.5l-2.9-2.1a3.18,3.18,0,0,0-4,.3l-3.3,3.2a3.05,3.05,0,0,0-.3,4l2.1,3a15.06,15.06,0,0,0-1.4,3.5l-3.5.6a3.12,3.12,0,0,0-2.6,3.1v4.5a3.2,3.2,0,0,0,2.6,3.1l3.6.6a20.65,20.65,0,0,0,1.5,3.4l-2.1,2.9a3.18,3.18,0,0,0,.3,4l3.2,3.2a3.1,3.1,0,0,0,2.2.9,3,3,0,0,0,1.8-.6l3-2.1a20.25,20.25,0,0,0,3.4,1.4l.6,3.6a3.12,3.12,0,0,0,3.1,2.6h4.5a3.2,3.2,0,0,0,3.1-2.6l.6-3.6a25.54,25.54,0,0,0,3.5-1.4l2.9,2.1a3,3,0,0,0,1.8.6h0a3.1,3.1,0,0,0,2.2-.9l3.2-3.2a3.05,3.05,0,0,0,.3-4l-2.1-3a15.06,15.06,0,0,0,1.4-3.5l3.6-.6a3.12,3.12,0,0,0,2.6-3.1v-4.5A3.22,3.22,0,0,0,187.9,281.7Zm-.3,7.5c0,.1-.1.3-.2.3l-4.5.7a1.41,1.41,0,0,0-1.1,1,15.65,15.65,0,0,1-1.8,4.4,1.36,1.36,0,0,0,.1,1.6l2.6,3.7a.3.3,0,0,1,0,.4l-3.2,3.2c-.1.1-.1.1-.2.1h-.2l-3.7-2.6a1.54,1.54,0,0,0-1.6-.1,18.54,18.54,0,0,1-4.4,1.8,1.57,1.57,0,0,0-1,1.1l-.8,4.5c0,.1-.1.2-.3.2h-4.5c-.1,0-.3-.1-.3-.2l-.7-4.5a1.41,1.41,0,0,0-1-1.1,18.54,18.54,0,0,1-4.4-1.8,1.85,1.85,0,0,0-.7-.2,1.14,1.14,0,0,0-.8.3l-3.7,2.6H151c-.1,0-.1,0-.2-.1l-3.2-3.2a.3.3,0,0,1,0-.4l2.6-3.7a1.81,1.81,0,0,0,.1-1.6,18.89,18.89,0,0,1-1.9-4.4,1.57,1.57,0,0,0-1.1-1l-4.5-.8c-.1,0-.2-.1-.2-.3v-4.5c0-.1.1-.3.2-.3l4.4-.7a1.5,1.5,0,0,0,1.2-1.1,17.65,17.65,0,0,1,1.8-4.5,1.2,1.2,0,0,0-.1-1.5l-2.8-3.7a.3.3,0,0,1,0-.4l3.2-3.2c.1-.1.1-.1.2-.1h.2l3.7,2.5a1.81,1.81,0,0,0,1.6.1,18.89,18.89,0,0,1,4.4-1.9,1.57,1.57,0,0,0,1-1.1l.8-4.4c0-.1.1-.2.3-.2h4.5c.1,0,.3.1.3.2l.7,4.4a1.5,1.5,0,0,0,1.1,1.2,14.87,14.87,0,0,1,4.5,1.9,1.36,1.36,0,0,0,1.6-.1l3.7-2.6h.2c.1,0,.1,0,.2.1l3.2,3.2a.3.3,0,0,1,0,.4l-2.6,3.7a1.54,1.54,0,0,0-.1,1.6,18.54,18.54,0,0,1,1.8,4.4,1.57,1.57,0,0,0,1.1,1l4.5.8c.1,0,.2.1.2.3v4.6Z"/>
      <path class="c" d="M165.1,300.6A13.6,13.6,0,1,1,178.7,287,13.61,13.61,0,0,1,165.1,300.6Zm0-24.9A11.3,11.3,0,1,0,176.4,287a11.29,11.29,0,0,0-11.3-11.3Z"/>
      <path class="c" d="M168.7,283c0-2-1.6-2.9-3.5-2.9-2.1,0-3.8,1-3.8,3.3h-1.7c0-3.3,2.6-5,5.5-5,2.7,0,5.2,1.5,5.2,4.6,0,3.8-4.8,4.7-4.8,8.4H164C164,287,168.7,286.2,168.7,283Zm-5,10.8h2.2V296h-2.2Z"/>
      <path class="c" d="M166.1,296.2h-2.6v-2.6h2.6v2.6Zm-2.2-.4h1.8V294h-1.8Zm2-4.3h-2.1v-.2c0-2.4,1.4-3.8,2.7-5,1.1-1,2-1.9,2-3.4,0-1.7-1.2-2.7-3.3-2.7-2.3,0-3.6,1.1-3.6,3.1v.2h-2.1v-.2c0-2.6,1.8-5.1,5.7-5.1,2.6,0,5.4,1.5,5.4,4.8,0,2-1.3,3.3-2.5,4.5s-2.3,2.2-2.3,3.9v.1h.1Zm-1.7-.4h1.3c.1-1.8,1.3-2.9,2.4-4s2.4-2.3,2.4-4.2c0-3-2.5-4.4-5-4.4s-5.2,1.4-5.4,4.6h1.3c.1-2,1.6-3.3,4-3.3s3.7,1.2,3.7,3.1c0,1.6-1,2.6-2.2,3.6a6.06,6.06,0,0,0-2.5,4.6Z"/>
    </g>
    <g id="game" class="el">
      <path class="c" d="M52.4,261.4H82.2a1.29,1.29,0,0,1,.6,1.5,1,1,0,0,1-1.3.6h-28a2.77,2.77,0,0,0-.9.1,1.91,1.91,0,0,0-1.6,1.5,2.11,2.11,0,0,0,1.4,2.6,2,2,0,0,0,.8.1h8.6a6.31,6.31,0,0,1,6.1,4.8c.1.5.1,1,.2,1.5H78.2a12.1,12.1,0,0,1,1.9.1,12.38,12.38,0,0,1,10.5,8.6,15.8,15.8,0,0,1,.5,4.3v16.7a8.43,8.43,0,0,1-8.4,8.6h-.4a8.45,8.45,0,0,1-5.8-2.6c-3.1-3.2-6.3-6.4-9.4-9.6a1.68,1.68,0,0,0-2.8,0L55,309.7a11.41,11.41,0,0,1-1.1,1.1A8.5,8.5,0,0,1,42,308.9a7.19,7.19,0,0,1-1.3-2.8c-.1-.4-.2-.9-.3-1.3V285.7a5.77,5.77,0,0,1,.3-1.4A12.88,12.88,0,0,1,53.4,274H66v-.6a4.25,4.25,0,0,0-4.4-3.7H53.1a4.26,4.26,0,0,1-4-3.5,4.14,4.14,0,0,1,2.6-4.7C51.8,261.6,52.1,261.5,52.4,261.4Zm13.4,17.1H52.7a8.37,8.37,0,0,0-8.2,8.2c-.1,5.8,0,11.6,0,17.5a4.1,4.1,0,0,0,1.4,3.1,4.38,4.38,0,0,0,5.6.1c3.3-3.3,6.5-6.6,9.8-9.8a6,6,0,0,1,5.2-1.9,6.7,6.7,0,0,1,3.9,2l4.8,4.8c1.6,1.6,3.2,3.3,4.9,4.9a2.93,2.93,0,0,0,1.2.7,4.3,4.3,0,0,0,5.5-2.5,4.15,4.15,0,0,0,.3-1.6V287.1a8.56,8.56,0,0,0-8.4-8.6H65.8Z"/>
      <path class="c" d="M53,291.3H50.9a2.1,2.1,0,0,1-2.2-1.9,2.2,2.2,0,0,1,.1-.8,2,2,0,0,1,2-1.6H53v-2.1a2.1,2.1,0,0,1,1.9-2.2,1.7,1.7,0,0,1,.7.1,1.91,1.91,0,0,1,1.6,1.6,6.6,6.6,0,0,1,.1,1.4V287h2a2,2,0,0,1,2.2,1.8v.6a1.83,1.83,0,0,1-1.6,1.8c-.4,0-.8.1-1.2.1H57.4v2.4a2.19,2.19,0,0,1-2.4,1.8,2.23,2.23,0,0,1-1.8-2A7.84,7.84,0,0,1,53,291.3Z"/>
      <path class="c" d="M78.6,284.8a2.1,2.1,0,1,1-4.2,0,2.1,2.1,0,1,1,4.2,0Z"/>
      <path class="c" d="M78.6,289.1a2.1,2.1,0,1,1,4.2,0,2.18,2.18,0,0,1-2.1,2.1A2.05,2.05,0,0,1,78.6,289.1Z"/>
      <path class="c" d="M74.3,289.1a2.1,2.1,0,1,1-2.1-2.1,2.05,2.05,0,0,1,2.1,2.1Z"/>
      <path class="c" d="M76.4,295.5a2.1,2.1,0,1,1,2.1-2.1A2,2,0,0,1,76.4,295.5Z"/>
    </g>
    <g id="graph" class="el">
      <path class="c" d="M90.5,108.2a1.74,1.74,0,0,0-1.4-.5l-7.9.6a1.67,1.67,0,0,0-1.4,2,1.73,1.73,0,0,0,1.7,1.5l3.3-.2L73.2,123.2,59.7,111.8a1.69,1.69,0,0,0-2.3.1L40.8,128.5a1.7,1.7,0,1,0,2.2,2.6l.2-.2,15.5-15.5,13.5,11.4a1.69,1.69,0,0,0,2.3-.1L87.1,114l-.3,3.1a1.77,1.77,0,0,0,1.6,1.9h.1a1.73,1.73,0,0,0,1.7-1.6l.6-7.9A1.21,1.21,0,0,0,90.5,108.2Z"/>
      <path class="c" d="M55.6,128a1.71,1.71,0,0,0-1.9.4l-7.2,7.2a1.85,1.85,0,0,0-.5,1.2v17.9a1.69,1.69,0,0,0,1.7,1.7h7.2a1.69,1.69,0,0,0,1.7-1.7h0V129.6A1.43,1.43,0,0,0,55.6,128Zm-2.4,25H49.5V137.5l3.7-3.7V153Z"/>
      <path class="c" d="M63.3,128.3a1.63,1.63,0,0,0-2.4,0,1.85,1.85,0,0,0-.5,1.2v25.1a1.69,1.69,0,0,0,1.7,1.7h7.2a1.69,1.69,0,0,0,1.7-1.7h0V136.7a1.66,1.66,0,0,0-.5-1.2Zm4.3,24.6H63.9V133.7l3.7,3.7Z"/>
      <path class="c" d="M84.3,128a1.71,1.71,0,0,0-1.9.4l-7.2,7.2a1.85,1.85,0,0,0-.5,1.2v17.9a1.69,1.69,0,0,0,1.7,1.7h7.2a1.69,1.69,0,0,0,1.7-1.7h0V129.6A1.54,1.54,0,0,0,84.3,128Zm-2.4,25H78.2V137.5l3.7-3.7V153Z"/>
    </g>
    <g>
      <path class="d" d="M87.4,36.3v5.5H85.9V38.3l-2.2,3H82.4l-2.2-3v3.5H78.7V36.3h1.5L83,40.1l2.8-3.8Z"/>
      <path class="d" d="M94.5,36.3a1.66,1.66,0,0,1,1.2.5,1.61,1.61,0,0,1,.5,1.1v2.3a1.61,1.61,0,0,1-.5,1.1,1.85,1.85,0,0,1-1.2.5H90.2a1.66,1.66,0,0,1-1.2-.5,1.61,1.61,0,0,1-.5-1.1V37.9a1.61,1.61,0,0,1,.5-1.1,1.85,1.85,0,0,1,1.2-.5Zm-4.3,1.4a.4.4,0,0,0-.2.4v1.8a.52.52,0,0,0,.2.4.76.76,0,0,0,.5.2h3.4a.69.69,0,0,0,.7-.6V38.1a.52.52,0,0,0-.2-.4.76.76,0,0,0-.5-.2H90.7a.76.76,0,0,0-.5.2Z"/>
      <path class="d" d="M102.8,36.3a1.75,1.75,0,0,1,1.2.4,1.36,1.36,0,0,1,.3,1.7,1,1,0,0,1-.4.5.9.9,0,0,1,.6.6,1.08,1.08,0,0,1,.2.8,1.61,1.61,0,0,1-.5,1.1,1.37,1.37,0,0,1-1.2.4H97.3V36.3Zm-3.9,2.2h3.4a.52.52,0,0,0,.4-.2.48.48,0,0,0,0-.7h0a.76.76,0,0,0-.4-.2H98.9v1.1Zm0,2.1h3.8a.71.71,0,0,0,.6-.6.71.71,0,0,0-.6-.6H98.9v1.2Z"/>
      <path class="d" d="M111.9,36.3a1.93,1.93,0,0,1,1,.3,2.7,2.7,0,0,1,.8.7,1.65,1.65,0,0,1,0,1.9,1.85,1.85,0,0,1-.8.7,3.81,3.81,0,0,1-1,.3H108v1.7h-1.5V36.4l5.4-.1ZM108,38.8h3.8a.7.7,0,1,0,0-1.4H108v1.4Z"/>
      <path class="d" d="M120.5,36.3a2.39,2.39,0,0,1,1.4.5,1.56,1.56,0,0,1,.6,1.2,1.84,1.84,0,0,1-.5,1.2,2.73,2.73,0,0,1-1.2.6l1.8,2h-1.7l-1.6-2h-2.5v2h-1.5V36.3Zm-3.9,2.3h3.7c.2,0,.3,0,.4-.2a.52.52,0,0,0,.2-.4.71.71,0,0,0-.6-.6h-3.7Z"/>
      <path class="d" d="M129.6,36.3a1.66,1.66,0,0,1,1.2.5,1.61,1.61,0,0,1,.5,1.1v2.3a1.61,1.61,0,0,1-.5,1.1,1.85,1.85,0,0,1-1.2.5h-4.3a1.66,1.66,0,0,1-1.2-.5,1.61,1.61,0,0,1-.5-1.1V37.9a1.61,1.61,0,0,1,.5-1.1,1.85,1.85,0,0,1,1.2-.5Zm-4.3,1.4a.76.76,0,0,0-.2.4v1.8a.52.52,0,0,0,.2.4.76.76,0,0,0,.5.2h3.4a.69.69,0,0,0,.7-.6V38.1a.52.52,0,0,0-.2-.4.76.76,0,0,0-.5-.2h-3.4a.76.76,0,0,0-.5.2Z"/>
      <path class="d" d="M139.1,36.3v1.2H134v1.1h4.4v1.2H134v2h-1.5V36.3Z"/>
      <path class="d" d="M141.8,36.3v5.5h-1.5V36.3Z"/>
      <path class="d" d="M150,36.3v1.2h-2.8v4.3h-1.5V37.5h-2.8V36.3Z"/>
    </g>
    <path class="e" d="M80.8,17.5h67a2.48,2.48,0,0,1,2.5,2.5v.2a2.48,2.48,0,0,1-2.5,2.5h-67a2.48,2.48,0,0,1-2.5-2.5V20A2.48,2.48,0,0,1,80.8,17.5Z"/>
    <path class="e" d="M72.5,382.2h87.7a9.71,9.71,0,0,1,9.7,9.7h0a9.71,9.71,0,0,1-9.7,9.7H72.5a9.71,9.71,0,0,1-9.7-9.7h0A9.71,9.71,0,0,1,72.5,382.2Z"/>
    <circle class="e" cx="43.7" cy="20.1" r="2.7"/>
    <path class="f" d="M225.6,13.3c0-7-3.8-11.8-10.7-11.8H15c-7,0-12.6,4-12.6,10.9L1.5,404.9c0,9.4,5.1,13.6,13.5,13.6H214.9c7,0,10.7-7.7,10.7-14.6V13.3Z"/>
  </g>
</svg>