<svg xmlns="http://www.w3.org/2000/svg" viewBox="0 0 514.8 452.5" class="svg-start">
  <defs>
    <style>
      .svg-start .a {
        fill: #34404f;
      }

      .svg-start .b,
	    .svg-start .c {
        fill: none;
        stroke: #34404f;
        stroke-miterlimit: 10;
      }

      .svg-start .b {
        stroke-width: 3px;
      }

      .svg-start .d {
        opacity: 0.4;
        isolation: isolate;
        fill: url(#a);
      }

      .svg-start .e {
        fill: #4b5866;
      }

      .svg-start .f {
        fill: #647584;
      }

      .svg-start .g {
        fill: #fff;
      }
    </style>
    <linearGradient id="a" x1="268.9" y1="30.02" x2="268.9" y2="143.94" gradientTransform="matrix(1, 0, 0, -1, -1.6, 452)" gradientUnits="userSpaceOnUse">
      <stop offset="0" stop-color="#34404f"/>
      <stop offset="0.13" stop-color="#3a3f4f"/>
      <stop offset="0.31" stop-color="#4a3e50"/>
      <stop offset="0.35" stop-color="#4f3d50"/>
      <stop offset="0.46" stop-color="#5c3b50"/>
      <stop offset="0.65" stop-color="#7e3751"/>
      <stop offset="0.92" stop-color="#b43052"/>
      <stop offset="1" stop-color="#c62e52"/>
    </linearGradient>
  </defs>
  <title>Start</title>
  <g>
    <g>
      <path class="a" d="M442.2,167.9a33.56,33.56,0,0,1,29.7,17.8A16.56,16.56,0,0,1,491.2,196a10.64,10.64,0,0,1,5.8-1.7h.5a17.24,17.24,0,0,0-15.9-10.5,18.25,18.25,0,0,0-4,.5,35.51,35.51,0,0,0-31.4-19.4,34.75,34.75,0,0,0-24,9.6A32.06,32.06,0,0,1,442.2,167.9Z"/>
      <path class="a" d="M408.6,176.7A16.31,16.31,0,0,1,417,179a22.84,22.84,0,0,1,2.2-2.2,17,17,0,0,0-22.6,5.2A16.13,16.13,0,0,1,408.6,176.7Z"/>
      <path class="a" d="M504.1,193.7a11.38,11.38,0,0,0-4.5,1,10.83,10.83,0,0,1,7.5,6.9h7.7A11.25,11.25,0,0,0,504.1,193.7Z"/>
      <path class="a" d="M392.4,185.2a10.87,10.87,0,0,1,1.8.1c.3-.5.6-1,.9-1.4-.5,0-1-.1-1.6-.1a20.84,20.84,0,0,0-20.4,17.8A19.64,19.64,0,0,1,392.4,185.2Z"/>
      <path class="a" d="M275.2,33.7c.4-.7.8-1.4,1.2-2.2a43,43,0,0,0-26.5,10.4A43.4,43.4,0,0,1,275.2,33.7Z"/>
      <path class="a" d="M230.1,64.2a36.42,36.42,0,0,1,5.7.4c.1-.4.1-.8.2-1.2-1.4-.1-2.8-.2-4.2-.2a42.93,42.93,0,0,0-26.1,8.5A41.86,41.86,0,0,1,230.1,64.2Z"/>
      <path class="a" d="M202.1,74.4l.8-.6a44.71,44.71,0,0,0-32.4,17.1A43.28,43.28,0,0,1,202.1,74.4Z"/>
      <path class="a" d="M445.3,64.3c-2.5-18.9-20.3-33.7-41.9-33.7a45.15,45.15,0,0,0-14.1,2.2C379.8,13.5,358.4,0,333.4,0a64.74,64.74,0,0,0-42.8,15.8A63.6,63.6,0,0,1,328.7,3.4c24.2,0,45,13,54.2,31.6a45.55,45.55,0,0,1,13.7-2.1c21,0,38.3,14.2,40.7,32.4,13,4,23.1,14,26.5,25.6h8.7C469.1,78.8,458.7,68.4,445.3,64.3Z"/>
      <path class="a" d="M69.1,97.1a33.56,33.56,0,0,1,29.7,17.8,16.56,16.56,0,0,1,19.3,10.3,10.64,10.64,0,0,1,5.8-1.7h.5A17.24,17.24,0,0,0,108.5,113a18.25,18.25,0,0,0-4,.5A35.78,35.78,0,0,0,73,94.1a34.75,34.75,0,0,0-24,9.6A33.84,33.84,0,0,1,69.1,97.1Z"/>
      <path class="a" d="M35.5,106a16.31,16.31,0,0,1,8.4,2.3,22.84,22.84,0,0,1,2.2-2.2,17,17,0,0,0-22.6,5.2A16.13,16.13,0,0,1,35.5,106Z"/>
      <path class="a" d="M131,122.9a11.38,11.38,0,0,0-4.5,1,10.83,10.83,0,0,1,7.5,6.9h7.7A11.25,11.25,0,0,0,131,122.9Z"/>
      <path class="a" d="M19.3,114.5a10.87,10.87,0,0,1,1.8.1c.3-.5.6-1,.9-1.4-.5,0-1-.1-1.6-.1A20.92,20.92,0,0,0,0,130.9,19.73,19.73,0,0,1,19.3,114.5Z"/>
      <path class="a" d="M98.8,397.3c0-.2-.1-.4-.1-.6C92.2,397.8,87,401,85.2,405,87,401.2,92.2,398.2,98.8,397.3Z"/>
      <path class="a" d="M112.1,388.2a18.48,18.48,0,0,1,10.2,2.8,19.2,19.2,0,0,1,1.4-1.5,18.2,18.2,0,0,0-10.4-2.9c-6.4,0-11.9,2.7-13.5,6.3C101.8,390.2,106.6,388.2,112.1,388.2Z"/>
      <path class="a" d="M163.8,394.9c-.3-7-9.6-12.6-21-12.6-7.6,0-14.3,2.5-18,6.3,3.7-2.6,9.3-4.3,15.5-4.3,10.9,0,19.8,5.1,20.1,11.5,5.8,1.2,9.8,4.5,9.8,8.3a2.77,2.77,0,0,1-.1.9h3.8a3.4,3.4,0,0,0,.1-1C174.1,399.8,169.8,396.3,163.8,394.9Z"/>
    </g>
    <g>
      <rect class="a" x="218.2" y="271.5" width="98.1" height="152.8"/>
      <path class="a" d="M253.5,262.5v2.7h-.7v-1.7l-1.1,1.5h-.6l-1.1-1.5v1.7h-.7v-2.7h.8l1.4,1.9,1.4-1.9Z"/>
      <path class="a" d="M257.1,262.5a1.42,1.42,0,0,1,.6.2.71.71,0,0,1,.3.6v1.1a.86.86,0,0,1-.3.6.73.73,0,0,1-.6.2H255a1.42,1.42,0,0,1-.6-.2.71.71,0,0,1-.3-.6v-1.1a.86.86,0,0,1,.3-.6.73.73,0,0,1,.6-.2Zm-2.2.6c-.1,0-.1.1-.1.2v.9c0,.1,0,.2.1.2a.37.37,0,0,0,.3.1h1.7a.37.37,0,0,0,.3-.1c.1,0,.1-.1.1-.2v-.9c0-.1,0-.2-.1-.2a.37.37,0,0,0-.3-.1h-1.7A.37.37,0,0,1,254.9,263.1Z"/>
      <path class="a" d="M261.1,262.5a1.42,1.42,0,0,1,.6.2.78.78,0,0,1,.2.8.22.22,0,0,1-.2.2l.3.3a.6.6,0,0,1,.1.4.76.76,0,0,1-.2.5,1.42,1.42,0,0,1-.6.2h-2.8v-2.7h2.6Zm-1.9,1.1h1.7c.1,0,.2,0,.2-.1a.3.3,0,0,0,0-.4h0c0-.1-.1-.1-.2-.1h-1.7Zm0,1h1.9c.1,0,.2,0,.2-.1s.1-.1.1-.2,0-.2-.1-.2-.1-.1-.2-.1h-1.9v.6Z"/>
      <path class="a" d="M265.6,262.5a.75.75,0,0,1,.5.1,1.38,1.38,0,0,1,.4.3.75.75,0,0,1,0,.9c-.1.2-.2.3-.4.3a.9.9,0,0,1-.5.1h-1.9v.8H263v-2.7h2.6Zm-1.9,1.2h1.8a.37.37,0,0,0,.3-.1c.1,0,.1-.1.1-.2s0-.2-.1-.2a.37.37,0,0,0-.3-.1h-1.8v.6Z"/>
      <path class="a" d="M269.8,262.5a.91.91,0,0,1,.7.3.86.86,0,0,1,.3.6,1.42,1.42,0,0,1-.2.6.86.86,0,0,1-.6.3l.9,1H270l-.8-1h-1.3v1h-.7v-2.7l2.6-.1Zm-1.9,1.1h1.8c.1,0,.2,0,.2-.1s.1-.1.1-.2a.27.27,0,0,0-.24-.3H267.9v.6Z"/>
      <path class="a" d="M274.4,262.5a1.42,1.42,0,0,1,.6.2.71.71,0,0,1,.3.6v1.1a.86.86,0,0,1-.3.6.73.73,0,0,1-.6.2h-2.1a1.42,1.42,0,0,1-.6-.2.71.71,0,0,1-.3-.6v-1.1a.86.86,0,0,1,.3-.6.73.73,0,0,1,.6-.2Zm-2.2.6c-.1,0-.1.1-.1.2v.9c0,.1,0,.2.1.2a.37.37,0,0,0,.3.1h1.6a.37.37,0,0,0,.3-.1c.1,0,.1-.1.1-.2v-.9c0-.1,0-.2-.1-.2a.37.37,0,0,0-.3-.1h-1.7c0,.1-.1.1-.2.1Z"/>
      <path class="a" d="M279,262.5v.6h-2.5v.5h2.2v.6h-2.2v1h-.7v-2.7Z"/>
      <path class="a" d="M280.4,262.5v2.7h-.7v-2.7Z"/>
      <path class="a" d="M284.4,262.5v.6H283v2.1h-.7v-2.1h-1.4v-.6Z"/>
      <path class="b" d="M321.6,251.2c0-3.4-1.7-6.2-5.1-6.2H217.9c-3.4,0-6.2,2.2-6.2,5.6l-.4,193.6c0,4.6,2.5,6.8,6.6,6.8h98.6c3.4,0,5.1-3.8,5.1-7.2Z"/>
      <path class="c" d="M250.3,253.2h33a1.16,1.16,0,0,1,1.2,1.12s0,.05,0,.08v.1a1.16,1.16,0,0,1-1.12,1.2H250.3a1.16,1.16,0,0,1-1.2-1.12s0-.05,0-.08v-.1a1.2,1.2,0,0,1,1.1-1.2Z"/>
      <path class="c" d="M246.2,433.1h43.2a4.74,4.74,0,0,1,4.8,4.68s0,.08,0,.12h0a4.74,4.74,0,0,1-4.68,4.8H246.2a4.74,4.74,0,0,1-4.8-4.68s0-.08,0-.12h0a4.74,4.74,0,0,1,4.68-4.8Z"/>
      <circle class="c" cx="232" cy="254.5" r="1.3"/>
      <polygon class="d" points="218.2 424.3 218.2 357 230.8 342.3 242.3 337.7 280.9 308.4 295.7 305.4 316.4 277 316.4 424.3 218.2 424.3"/>
      <path class="a" d="M246,424.1l-25.8-25.8c-22.8-9.5-29.4,24-7,25.8Z"/>
      <path class="a" d="M318.8,424.1c8.1,2.4,10.2-12.7-.2-16.4,6.4-2,12.2-8.3,8.5-16.7-4.5-10.1-13.4-5.4-20-3.9L284.8,424h34Z"/>
      <path class="e" d="M295.9,424.1a16.43,16.43,0,0,0-2.4-5.2c4.4,3.2,13,2.3,16.1-2.7,3.5-5.7-.5-13-4.6-16.8,0,0-21.8-6.5-28.8-5.6s-16.6,18.3-16.8,30.3Z"/>
      <path class="f" d="M238.5,356.2c2.7-8.8,10.2-9.8,15.5-7.4-5.5-3.7-3.7-14.4,1.2-18.1,4-3,9.8-1.9,13.5-.5v-1.6c4.4-3.7,13.6,3.3,14.8,8,1.2,4.5-1.3,9.2-4.1,12.1,15.7-11.3,30.2,6.3,19.6,21,5.3-2.6,12.2,3.8,13.8,8.8,2.2,7.1,1.3,16.1-3.8,21.6-6,6.5-18.9,7.2-23.8-2-1.8,20.7-33.1,14.4-26.1-3.4-8.1,6.6-14.9.6-17.3-5.9-2.3-6.2,1-15.3,7.6-15.5C241.1,372.2,235.7,365.7,238.5,356.2Z"/>
      <path class="f" d="M224,415.9a14.3,14.3,0,0,0-4.1,8.2h47.6a18.55,18.55,0,0,0-1.6-7.4c7.1,10.7,23.7.8,16.8-13.9-.5.3-31.6-33.3-31.6-33.3-3.5-5.6-13.6-8-19.2-4.4-6.8,4.3-5.5,15.9-2.9,22.3-8-5.1-17.1,1.3-19,10a15.14,15.14,0,0,0,11.45,18.09h0A21.66,21.66,0,0,0,224,415.9Z"/>
      <path class="e" d="M312.9,378.5c2.2,7.1,1.3,16.1-3.8,21.6-6,6.5-18.9,7.2-23.8-2-1.8,20.7-33.1,14.4-26.1-3.4-8.1,6.6-14.9.6-17.3-5.9-2.3-6.2,1-15.3,7.6-15.5-8.3-1.2-13.7-7.7-10.8-17.2,1.9-6.2,6.2-8.5,10.4-8.5-2.2,8.4,1.8,20.4,11.4,19.3-10.2,3.5,1,13.8,7.3,11-5.1,6.1-6.4,20.2,6.8,22.2,8.6,1.3,12.8-10.8,13.9-17.5.1,9.9,8.8,16.7,15.6,11.9,8.6-6.1,10.6-20.1-4.5-24.8l.9-.5C305.3,368,311.4,373.8,312.9,378.5Z"/>
      <polygon class="f" points="274.4 358.7 261.9 358.7 254.1 221.6 261.7 221.6 267.5 235.1 273.3 221.6 280.9 221.6 274.4 358.7"/>
      <g class="rocket">
        <path class="c" d="M304.5,227.3c-7.7-6.8-14.6-12.8-21.3-19a5,5,0,0,1-1.2-4.1c2.6-8.4,5.5-16.7,8.2-25,.2-.6.4-1.1.7-2,4.3,3.8,8.4,7.3,12.4,11a3.26,3.26,0,0,1,1,2.3C304.5,202.4,304.5,214.3,304.5,227.3Z"/>
        <path class="c" d="M230.1,227.3c7.7-6.8,14.6-12.8,21.3-19a5,5,0,0,0,1.2-4.1c-2.6-8.4-5.5-16.7-8.2-25-.2-.6-.4-1.1-.7-2-4.3,3.8-8.4,7.3-12.4,11a3.26,3.26,0,0,0-1,2.3C230.1,202.4,230.1,214.3,230.1,227.3Z"/>
        <path class="a" d="M267.2,140.5a12.7,12.7,0,1,1,12.9-12.7h0A13.09,13.09,0,0,1,267.2,140.5Z"/>
        <path class="c" d="M267.1,143.2a15.4,15.4,0,1,1,15.6-15.4h0a15.41,15.41,0,0,1-15.4,15.4Z"/>
        <path class="c" d="M280,208.5a2.85,2.85,0,0,0-2.4-1.8H257a2.85,2.85,0,0,0-2.4,1.8c-.7,1.7-3.4,9.2-3.4,9.2h32.3C283.4,217.7,280.8,210.3,280,208.5Z"/>
        <path class="a" d="M267.3,72.4a111.85,111.85,0,0,1,11.9,22.4H255.4a111.85,111.85,0,0,1,11.9-22.4m0-1.7s-7.1,9.1-13.4,25.1h26.8C274.4,79.7,267.3,70.7,267.3,70.7Z"/>
        <path class="a" d="M280.7,98.6c8.4,22.6,15,58.4-.9,101.8-.1.3-1.6,3.3-4.3,3.3H259c-2.7,0-4.2-3-4.3-3.3-15.8-43.4-9.2-79.2-.8-101.8h26.8m.7-1H253.2c-8.7,23-15.4,59.2.6,103.2,0,0,1.7,3.9,5.2,3.9h16.5c3.5,0,5.2-3.9,5.2-3.9C296.8,156.8,290.1,120.6,281.4,97.6Z"/>
        <path class="g" d="M270.1,122a4,4,0,0,1,1.3,1.3,3,3,0,0,1,.5,1.3c0,.2-.1.4-.3.4h-.9a.37.37,0,0,1-.3-.1c-.1-.1-.2-.2-.2-.3a3.46,3.46,0,0,0-1-1.1,3.29,3.29,0,0,0-1.9-.6,4.14,4.14,0,0,0-1.9.5,1.6,1.6,0,0,0-.8,1.4,1.28,1.28,0,0,0,.4,1,2.92,2.92,0,0,0,1.2.7c.5.2,1.3.4,2.3.7a6.9,6.9,0,0,1,3,1.4,3.1,3.1,0,0,1,.9,2.2,3.25,3.25,0,0,1-1.1,2.5,6,6,0,0,1-3.1,1.2v1.2a.46.46,0,0,1-.4.5h-.9a.46.46,0,0,1-.5-.4v-1.3a4.79,4.79,0,0,1-2-.7,3,3,0,0,1-1.4-1.3,2.39,2.39,0,0,1-.5-1.4.43.43,0,0,1,.4-.4h.8a.37.37,0,0,1,.3.1c.1.1.2.2.2.3a2.54,2.54,0,0,0,1.1,1.2,3.94,3.94,0,0,0,2.1.6,4.65,4.65,0,0,0,2.3-.6,1.65,1.65,0,0,0,.9-1.5,1.23,1.23,0,0,0-.5-1,5.39,5.39,0,0,0-1.3-.7c-.6-.2-1.4-.4-2.5-.7a5.81,5.81,0,0,1-2.6-1.3,3.49,3.49,0,0,1-.8-2.2,2.93,2.93,0,0,1,.4-1.6,3.74,3.74,0,0,1,1.2-1.3,4.38,4.38,0,0,1,1.9-.7v-1.2a.46.46,0,0,1,.4-.5h.9a.46.46,0,0,1,.5.4v1.3A4.38,4.38,0,0,1,270.1,122Z"/>
      </g>
    </g>
    <g class="rocket">
      <path class="c" d="M121.1,302c-4-3.6-7.7-6.7-11.2-10a2.63,2.63,0,0,1-.6-2.1c1.4-4.4,2.9-8.8,4.3-13.1.1-.3.2-.6.4-1.1,2.3,2,4.4,3.8,6.5,5.8a1.66,1.66,0,0,1,.5,1.2C121.1,288.9,121.1,295.2,121.1,302Z"/>
      <path class="c" d="M82.1,302c4-3.6,7.7-6.7,11.2-10a2.63,2.63,0,0,0,.6-2.1c-1.4-4.4-2.9-8.8-4.3-13.1-.1-.3-.2-.6-.4-1.1-2.3,2-4.4,3.8-6.5,5.8a1.66,1.66,0,0,0-.5,1.2C82.1,288.9,82.1,295.2,82.1,302Z"/>
      <path class="a" d="M101.5,256.5a6.65,6.65,0,1,1,6.8-6.5,6.65,6.65,0,0,1-6.8,6.5Z"/>
      <path class="c" d="M101.5,257.9a8.1,8.1,0,1,1,8.3-8.1A8.3,8.3,0,0,1,101.5,257.9Z"/>
      <polygon class="f" points="101.6 298.4 100 298.4 101.6 340.5 103.3 298.4 101.6 298.4"/>
      <polygon class="f" points="98.2 298.4 97.3 298.4 98.2 321.6 99.1 298.4 98.2 298.4"/>
      <polygon class="f" points="105 298.4 104.1 298.4 105 321.6 105.9 298.4 105 298.4"/>
      <path class="c" d="M108.3,292.2a1.42,1.42,0,0,0-1.3-.9H96.2a1.42,1.42,0,0,0-1.3.9c-.4.9-1.8,4.8-1.8,4.8h17S108.7,293.1,108.3,292.2Z"/>
      <path class="a" d="M101.6,221.5a58.28,58.28,0,0,1,5.5,10.5H96a81.16,81.16,0,0,1,5.6-10.5m0-1.8a59.63,59.63,0,0,0-7,13.2h14.1A51,51,0,0,0,101.6,219.7Z"/>
      <path class="a" d="M108.3,234.9c4.3,11.8,7.6,30.4-.6,52.8a2.18,2.18,0,0,1-1.8,1.4H97.2a2.37,2.37,0,0,1-1.8-1.4c-8.2-22.5-4.9-41-.6-52.8h13.5m.7-1H94.2c-4.6,12.1-8.1,31.1.3,54.2,0,0,.9,2,2.7,2h8.7a3.18,3.18,0,0,0,2.7-2C117.1,265,113.6,246,109,233.9Z"/>
      <path class="f" d="M103.1,246.7a2.34,2.34,0,0,1,.7.7c.1.2.2.5.3.7s0,.2-.1.2-.1.1-.2.1h-.6c-.1,0-.1-.1-.1-.2a2.65,2.65,0,0,0-.5-.6,1.82,1.82,0,0,0-2,0,.91.91,0,0,0-.4.8.76.76,0,0,0,.2.5,2.09,2.09,0,0,0,.6.4c.3.1.7.2,1.2.4a4.59,4.59,0,0,1,1.6.7,1.66,1.66,0,0,1,.5,1.2,1.61,1.61,0,0,1-.6,1.3,2.27,2.27,0,0,1-1.6.6v.6a.27.27,0,0,1-.24.3h-.46a.27.27,0,0,1-.3-.3v-.7a3.58,3.58,0,0,1-1.1-.4,2.7,2.7,0,0,1-.8-.7,1.14,1.14,0,0,1-.3-.8.22.22,0,0,1,.2-.2h.6c.1,0,.1.1.1.2a.9.9,0,0,0,.6.6,2,2,0,0,0,1.1.3,2.66,2.66,0,0,0,1.2-.3,1,1,0,0,0,.5-.8.55.55,0,0,0-.3-.5,1.61,1.61,0,0,0-.7-.4c-.3-.1-.7-.2-1.3-.4a2.67,2.67,0,0,1-1.4-.7,1.5,1.5,0,0,1-.4-1.1,1.88,1.88,0,0,1,.2-.8,1.34,1.34,0,0,1,.6-.7,1.69,1.69,0,0,1,1-.3v-.6a.27.27,0,0,1,.24-.3h.46a.27.27,0,0,1,.3.3v.7A1.28,1.28,0,0,1,103.1,246.7Z"/>
    </g>
    <g class="rocket">
      <path class="c" d="M441.1,384.8c-2.8-2.5-5.4-4.7-7.9-7a1.67,1.67,0,0,1-.4-1.5c1-3.1,2-6.2,3.1-9.2l.3-.7c1.6,1.4,3.1,2.7,4.6,4.1a1.23,1.23,0,0,1,.4.8C441.1,375.6,441.1,380,441.1,384.8Z"/>
      <path class="c" d="M413.6,384.8c2.8-2.5,5.4-4.7,7.9-7a1.67,1.67,0,0,0,.4-1.5c-1-3.1-2-6.2-3.1-9.2l-.3-.7c-1.6,1.4-3.1,2.7-4.6,4.1a1.23,1.23,0,0,0-.4.8C413.6,375.6,413.6,380,413.6,384.8Z"/>
      <path class="a" d="M427.3,352.7A4.7,4.7,0,1,1,432,348a4.7,4.7,0,0,1-4.7,4.7Z"/>
      <path class="c" d="M427.3,353.7a5.9,5.9,0,0,1-5.7-5.7,5.76,5.76,0,0,1,5.7-5.7h0A5.76,5.76,0,0,1,433,348a5.61,5.61,0,0,1-5.52,5.7h-.18Z"/>
      <polygon class="f" points="427.4 382.3 426.2 382.3 427.4 411.9 428.5 382.3 427.4 382.3"/>
      <polygon class="f" points="425 382.3 424.3 382.3 425 398.6 425.6 382.3 425 382.3"/>
      <polygon class="f" points="429.8 382.3 429.1 382.3 429.8 398.6 430.4 382.3 429.8 382.3"/>
      <path class="c" d="M432.1,377.8a1,1,0,0,0-.9-.7h-7.6a1,1,0,0,0-.9.7c-.3.6-1.3,3.4-1.3,3.4h11.9C433.4,381.3,432.4,378.5,432.1,377.8Z"/>
      <path class="a" d="M427.4,328.6a51.92,51.92,0,0,1,3.5,6.6h-7a41.69,41.69,0,0,1,3.5-6.6m0-1.8a41.73,41.73,0,0,0-5,9.3h9.9A45.86,45.86,0,0,0,427.4,326.8Z"/>
      <path class="a" d="M431.9,337.8c3,8.3,5.2,21.2-.5,36.8a1.59,1.59,0,0,1-1,.8h-6.1a1.59,1.59,0,0,1-1-.8c-5.7-15.6-3.5-28.5-.5-36.8h9.1m.7-1H422.2c-3.2,8.5-5.7,21.9.2,38.2a2.32,2.32,0,0,0,1.9,1.4h6.1a2.19,2.19,0,0,0,1.9-1.4C438.3,358.7,435.8,345.3,432.6,336.8Z"/>
      <path class="f" d="M428.4,345.8a1.2,1.2,0,0,1,.5.5.76.76,0,0,1,.2.5v.1h-.5l-.1-.1a.78.78,0,0,0-.4-.4,1.2,1.2,0,0,0-1.4,0,.55.55,0,0,0-.3.5.6.6,0,0,0,.1.4c.1.1.3.2.4.3l.9.3a3.7,3.7,0,0,1,1.1.5.83.83,0,0,1,.3.8,1.09,1.09,0,0,1-.4.9,1.5,1.5,0,0,1-1.1.4v.4a.22.22,0,0,1-.2.2h-.3a.22.22,0,0,1-.2-.2v-.4a1.14,1.14,0,0,1-.8-.3,1.2,1.2,0,0,1-.5-.5.76.76,0,0,1-.2-.5.22.22,0,0,1,.2-.2h.4l.1.1a.78.78,0,0,0,.4.4,1.53,1.53,0,0,0,1.6,0,.71.71,0,0,0,.3-.6.52.52,0,0,0-.2-.4c-.2-.1-.3-.2-.5-.3l-.9-.3a1.91,1.91,0,0,1-1-.5,1.14,1.14,0,0,1-.3-.8,1.42,1.42,0,0,1,.2-.6,1,1,0,0,1,.4-.5c.2-.1.5-.2.7-.3v-.4a.22.22,0,0,1,.2-.2h.3a.22.22,0,0,1,.2.2v.5A2.18,2.18,0,0,0,428.4,345.8Z"/>
    </g>
  </g>
</svg>