<svg xmlns="http://www.w3.org/2000/svg" viewBox="0 0 10388.46 4138" class="logo">
  <defs>
    <style>
      .a {
        fill: #fff;
        stroke: #fff;
      }
      .b {
        fill: #f06358;
        stroke: #f06358;
      }
      .a, .b {
        fill-opacity: 0;
        stroke-opacity: 0;
        stroke-width: 30px;
      }
      .c {
        fill: #f06358;
        fill-opacity: 0;
      }
      @media (max-width: 991px) {
        .a {
          fill: #767676;
          stroke: #767676;
        }
      }
    </style>
  </defs>
  <title>Logotype</title>
  <g>
    <g>
      <g>
        <path class="a" d="M1381,356V0h178V712h-2.39c-1.31,0-21.61-.7-45.11-1.55-38.61-1.4-46.69-1.4-84,0-22.72.85-42.47,1.55-43.89,1.55H1381Z"></path>
        <path class="a" d="M1380.65,2609.86c.35-840.48.79-1528.29,1-1528.48s20.5-2.7,45.12-5.58l44.78-5.24,40.32,4.79c22.17,2.63,42.08,5.05,44.24,5.37l3.92.58V2083.91s-1.41,1239.18-1,1528.35V4138H1380Z"></path>
        <path class="a" d="M1263.53,2945.66C1017.24,2898.13,796.77,2767.38,636,2573.5a1092,1092,0,0,1-143.56-225.09c-85-179.14-118.61-377.69-97.79-577.33,30.6-293.31,180.93-560.69,417.67-742.85C947,924.58,1109.31,853,1277.14,823.31a1101.7,1101.7,0,0,1,281.19-13c189,15.81,366.82,79.55,523.65,187.73a1140.47,1140.47,0,0,1,113.59,90.38c19,17.21,64.85,64.09,83.29,85.15,195.18,222.93,289.35,509.87,264.27,805.19-14.5,170.77-69,333.84-160.45,480.06-52.19,83.46-118,161.78-192.27,228.79-136.38,123.08-303.11,209.78-481.09,250.17-23.9,5.42-55,11.54-58.64,11.54-1.87,0-1.91-2-1.66-90.65l.26-90.65,3.5-.76q197.62-42.84,353.29-159.7c36.6-27.49,60.52-48.11,93.27-80.41,74.15-73.15,130.72-151.19,176-242.88a900.27,900.27,0,0,0-19.65-834.76c-83.29-150.36-208.75-274.22-361.6-357-101-54.68-216-90.15-331.78-102.31-33.6-3.53-46.58-4.08-95.44-4-52.92,0-68.72.9-110.43,6-182.1,22.52-350.47,99.25-489.67,223.14-18.2,16.2-57.56,55.8-72.73,73.19-65.08,74.56-114.59,152.06-151.88,237.73-41.12,94.49-64.45,189.78-72.9,297.8-.81,10.36-1.27,33.77-1.25,63,0,48.26,1,65.36,5.5,104.34C592.72,2156,657,2311.2,760.7,2443.18c39.08,49.77,92,103.25,142.43,143.84a896.48,896.48,0,0,0,350.38,173.43c11,2.69,22.8,5.42,26.23,6.08l6.25,1.19v181.62l-2.25-.08c-1.24,0-10.34-1.64-20.24-3.55Z"></path>
        <path class="b" d="M1257,3322.5A1461.63,1461.63,0,0,1,428,2909c-111.76-111.85-201.63-236.58-272.35-378C67.5,2354.74,16.33,2165.38,3.52,1968,2,1944.25,0,1884.64,0,1860.25V1847H174v32.35c0,177.31,37.8,354.23,111.2,520.48C295.46,2423,323.81,2480,336.08,2502a1308.65,1308.65,0,0,0,169.5,237c30.88,34.35,81.14,83.16,119.35,115.9,173.35,148.56,387.66,249.43,615.09,289.49,12.58,2.22,42,6.61,44.22,6.61.43,0,.78,39.38.78,87.5V3326l-2.25-.09c-1.24,0-12.83-1.58-25.75-3.41Z"></path>
        <path class="b" d="M1650,3237.81c0-48.29.34-87.8.75-87.8,4.28,0,37.18-4.95,53.68-8.06,317.17-59.72,600.89-236.73,795.69-496.44,147.54-196.7,234.5-427.64,253.8-674,4.86-62,4.68-137.74-.48-201.5-31.91-394.81-244.63-755-575.44-974.54-87.08-57.77-176.78-102.86-276.5-139-13.2-4.78-24.18-8.86-24.4-9.07-.48-.46,56.84-160.57,57.91-161.75s54.15,18.06,88.49,32.27c59.61,24.67,125.79,57.42,179,88.57C2690.31,891,2971.65,1430.13,2926,1993c-22.43,276-122.19,537.76-289.74,760.35-81.44,108.2-182.28,208.89-290.72,290.31-74.61,56-147,100.64-230,141.83-82,40.67-160.78,71.29-247,96-66.92,19.16-142.43,35-199.25,41.82l-19.25,2.31Z"></path>
      </g>
      <g>
        <path class="a" d="M3227.39,2240.69c-37.24-20.18-67.73-37.15-67.75-37.71s102-189.11,226.72-419l226.76-418H3770l226.78,418c124.73,229.9,226.76,418.45,226.74,419-.06,1.48-136.09,74.78-137,73.82-.42-.45-89.24-163.95-197.39-363.32S3692.12,1551,3691.58,1551s-89.6,163.34-197.9,363-197.29,363-197.75,363.16S3264.63,2260.87,3227.39,2240.69Z"></path>
        <path class="a" d="M3613.45,1985H3769.9V1829H3613.45Z"></path>
      </g>
      <g>
        <path class="a" d="M4482,1801.06V1364h873v156H4638v561l264.84,1,265.06-.26,9.55-2.64c29.22-8.09,52.67-27.06,65.85-53.29,25.75-51.26,4.08-112.87-48.36-137.44a139,139,0,0,0-18.3-6.69l-9.74-2.68H4923V1723h118.35c71.52,0,123.46.4,131.25,1,64.15,5.09,121.75,32.25,166,78.29,38.65,40.18,62.5,89.89,70,145.81,2.25,16.89,2.26,48.33,0,65-10.15,75.57-50.42,140.3-113.61,182.63-23.19,15.53-59.34,30.94-85.5,36.43-28.11,5.9,3.61,5.42-378.25,5.77l-349.25.33Z"></path>
      </g>
      <g>
        <path class="a" d="M5730,1801V1364l346,.31c381.8.34,351-.18,380.4,6.36,95.77,21.3,172.55,98.24,194.09,194.46,4.61,20.58,5.86,33,5.81,57.53s-1.11,34.71-5.91,56.33c-7.62,34.31-24.6,70.67-46.34,99.24a255.57,255.57,0,0,1-141.67,93.44c-29.84,7.41-20.13,7-163.39,7.34l-129,.33,1-78V1724l123.59-1,123.52-.54,8-2.26c12.2-3.44,28.74-12,38.46-19.83a105.25,105.25,0,0,0,34.69-53.84c2.26-8.59,2.63-12,2.63-24.5s-.37-15.91-2.63-24.5c-11-41.64-44.9-71.26-87.62-76.48q-8.47-1-267.3-1H5886v718H5730Z"></path>
      </g>
      <g>
        <path class="a" d="M6972.02,1801L6972.02 1364 7049.52 1364 7127.02 1364 7128.02 1684.32 7128.02 2004.62 7442.62 1684.57 7757.14 1364 7828.87 1364 7901.02 1363.74 7901.02 1800.87 7901.02 2238 7822.6 2238 7744.02 2238 7744.02 1917.58 7744.02 1597.16 7429.23 1917.58 7114.36 2238 7042.94 2238 6972.02 2238 6972.02 1801z"></path>
      </g>
      <g>
        <path class="a" d="M8286.01,1801L8286.01 1364 8364.01 1364 8442.01 1364 8442.01 1801 8442.01 2238 8364.01 2238 8286.01 2238 8286.01 1801z"></path>
        <path class="a" d="M8764.45,2020c-123.4-119.9-224.36-218.37-224.36-218.82s101-99,224.51-219L8989.11,1364h101.34c68.82,0,101.23.31,101,1s-100.92,98.75-223.84,218.19-223.5,217.54-223.5,218,100.58,98.56,223.51,218,223.66,217.53,223.84,218-45.34.84-101.15.84h-101.5l-224.36-218Z"></path>
      </g>
      <g>
        <path class="a" d="M9780.45,1985H9936.9V1829H9780.45Z"></path>
        <path class="a" d="M9393.6,2240c-41.36-22.54-67.44-37.31-67.35-38.14S9428.35,2012.64,9553,1783l226.57-418H9936.2l226.26,417.06c165.31,304.71,226.18,417.76,226,419.65-.28,2.31-7.34,6.39-67.6,39.07-37,20.07-67.45,36.32-67.64,36.11s-88-161.93-195.06-359.38-195.94-361.17-197.45-363.82l-2.75-4.82-197.4,364c-108.57,200.22-197.85,364-198.4,364s-31.37-16.62-68.5-36.85Z"></path>
      </g>
    </g>
    <g>
      <path class="c" d="M3158.01,2720.5L3158.01 2561 3194.51 2561 3231.01 2561 3231.01 2622 3231.01 2683 3290.01 2683 3349.01 2683 3349.01 2622 3349.01 2561 3385.01 2561 3421.01 2561 3421.01 2720.5 3421.01 2880 3385.01 2880 3349.01 2880 3349.01 2813.5 3349.01 2747 3290.01 2747 3231.01 2747 3231.01 2813.5 3231.01 2880 3194.51 2880 3158.01 2880 3158.01 2720.5z"></path>
      <path class="c" d="M3845.18,2845.65c-5.73-18.23-25.56-81.75-44.07-141.15s-36.18-116-39.26-125.75l-5.61-17.75H3661l-7.81,25.75c-11.14,36.76-23.91,78.8-37.58,123.75-6.52,21.45-18.68,61.5-27,89s-17.14,56.45-19.58,64.33-4.42,14.74-4.42,15.25,15.21.92,37.32.92h37.32l11.36-41,11.36-41h90.22l10.89,36.25c6,19.94,11.52,38.39,12.29,41l1.4,4.75h39.42c21.68,0,39.42-.27,39.42-.6S3850.91,2863.88,3845.18,2845.65ZM3707,2743h-34.28l.9-2.75c5.81-17.75,31.72-118.18,32-124.16,0-.33,2.53,9.08,5.57,20.91,5,19.42,10.37,38.42,25.18,89.25l4.88,16.75Z"></path>
      <path class="c" d="M4002.01,2720.5L4002.01 2561 4037.51 2561 4073.01 2561 4073.01 2690.5 4073.01 2820 4112.02 2820 4151.02 2820 4151.02 2690.5 4151.02 2561 4186.52 2561 4222.02 2561 4222.02 2690.5 4222.02 2820 4261.02 2820 4300.02 2820 4300.02 2690.5 4300.02 2561 4335.52 2561 4371.02 2561 4371.02 2720.5 4371.02 2880 4186.52 2880 4002.01 2880 4002.01 2720.5z"></path>
      <path class="c" d="M4939.61,2567.45c-29.61-12.49-66.46-15.55-100-8.3-28.88,6.25-53.52,20.09-74.26,41.69-32.67,34-48.92,86.2-43.77,140.51,7.47,78.76,54.52,131.88,126,142.2h0c12.22,1.77,42.1,1.22,54.5-1,49.47-8.85,85.33-34.86,106.34-77.11,11.63-23.39,17.48-48.2,18.83-79.8C5030.36,2652.73,4996.38,2591.4,4939.61,2567.45Zm8.72,180.57c-7.57,43.46-29,71.1-59.94,77.42-26.8,5.47-52.42-4.34-68.7-26.3-15.13-20.41-23.31-52.59-21.77-85.63,2.86-61.28,32.06-99.85,75.68-100,12.47,0,18.75,1.35,29.51,6.46,22.25,10.58,37.82,34.78,44.7,69.46,2.83,14.3,3.09,43.83.52,58.57Z"></path>
      <path class="c" d="M5440.3,2823.57c-6.48-.35-13.69-.87-16-1.16l-4.25-.53V2561H5211l-.51,60.75c-.39,46.49-.88,63.92-2.11,74.25-5.31,44.85-13.33,72.86-31,108.13l-8.84,17.68-3.81.55c-2.1.3-8.3.84-13.79,1.2l-10,.65.67,38.14c.37,21,1,51.53,1.33,67.89l.66,29.75h55.85l.61-8.75c.33-4.81,1.07-20,1.63-33.75s1.28-27.81,1.59-31.25l.57-6.25h186l.53,4.25c.29,2.34,1,15.73,1.59,29.75s1.34,30.11,1.69,35.75l.62,10.25h53.51l.6-11.25c.33-6.19,1-33.3,1.6-60.25s1.24-52.44,1.52-56.65l.51-7.65ZM5347,2720v100H5243l4-8c12.1-24.07,21.49-55.11,26.44-87.42,3.67-24,4.57-38.4,4.57-73.17V2620h69Z"></path>
      <path class="c" d="M5817.35,2564.63c-27.67-5.12-96-7.4-124-4.14-55.79,6.53-87.68,28-98.87,66.69-4.54,15.69-3.55,40.55,2.2,55.15,8.42,21.38,28.23,38.46,52.37,45.14,3.3.91,6.64,1.87,7.43,2.13s-2.15,2.25-6.61,4.48c-15.63,7.79-26.69,19.38-36.22,37.92-6,11.59-9.31,20.53-21.1,56.25-6.29,19.07-11,31.42-15.07,39.5-3.25,6.46-5.91,11.87-5.92,12h0c0,.14,17.42.14,38.73-.77H5649l3.19-6c1.76-3.58,7.56-19.77,12.91-36,14.36-43.59,20.26-56.47,30.76-67.17s18.79-13.79,38.89-14.57l14.16-.54V2880h72V2565.23ZM5749,2700.78l-2.25.6h0c-1.24.33-9.67.57-18.75.54-19.61-.08-27.23-1.45-38.7-7-18.32-8.81-27-24.58-24.3-43.93,3.23-22.77,20.17-35.56,49.8-37.58,8.8-.6,28.94.77,32.74,2.23,1.25.48,1.46,6.68,1.46,42.84Z"></path>
      <path class="c" d="M5987.02,2720.5L5987.02 2561 6083.52 2561 6180.02 2561 6180.02 2591 6180.02 2621 6120.02 2621 6060.02 2621 6060.02 2750.5 6060.02 2880 6023.52 2880 5987.02 2880 5987.02 2720.5z"></path>
    </g>
  </g>
</svg>