<svg xmlns="http://www.w3.org/2000/svg" viewBox="0 0 612.71 142.32" class="logo">
  <defs>
    <style>
      .a {
        fill: #fff;
        stroke: #fff;
      }
      .b {
        fill: #f06358;
        stroke: #f06358;
      }
      .a, .b {
        fill-opacity: 0;
        stroke-opacity: 0;
        stroke-width: 2px;
      }
      .c {
        fill: #f06358;
        fill-opacity: 0;
      }
      @media (max-width: 991px) {
        .a {
          fill: #767676;
          stroke: #767676;
        }
      }
    </style>
  </defs>
  <title>Logotype</title>
  <g>
    <g>
      <g>
        <path class="a" d="M56.43,27A36.87,36.87,0,0,0,41.62,97.6q1.48.65,3,1.17V86a25.15,25.15,0,0,1-12.9-17.85,25.53,25.53,0,0,1,.12-9.2,24.82,24.82,0,0,1,3.74-9,25.54,25.54,0,0,1,7-7,24.86,24.86,0,0,1,9-3.74,25.31,25.31,0,0,1,4.91-.48h0a25.32,25.32,0,0,1,4.91.48,24.85,24.85,0,0,1,9,3.74,25.55,25.55,0,0,1,7,7,25.26,25.26,0,0,1,3.85,18.23,24.85,24.85,0,0,1-2.85,8A25.24,25.24,0,0,1,68.24,86V98.76q1.53-.52,3-1.17A36.87,36.87,0,0,0,56.44,27h0Z"/>
        <path class="a" d="M51.39,1h10V23.19a28.55,28.55,0,0,0-10.71-.08V1Z"/>
        <path class="a" d="M61.44,45l.11,95.68v.66h-.69l-9.42,0h-.69V44.5c3.26-1.44,7.7-1.62,10.72,0v.57Z"/>
        <path class="b" d="M74.87,11.6l.42.15.86.31q2,.73,3.89,1.58t3.76,1.88q1.86,1,3.6,2.16t3.42,2.43q1.69,1.31,3.23,2.7t3,3q1.44,1.52,2.8,3.18t2.55,3.37q1.17,1.67,2.28,3.57t2,3.73q.93,1.9,1.72,3.88t1.42,4h0q.65,2.08,1.11,4.08t.79,4.16q.33,2.15.49,4.21t.16,4.22q0,2.47-.21,4.9c-.14,1.64-.36,3.26-.64,4.85s-.63,3.14-1.07,4.76-.93,3.16-1.47,4.65-1.19,3-1.88,4.51a48,48,0,0,1-2.28,4.33q-1.23,2.1-2.64,4.1c-.94,1.33-1.95,2.63-3,3.87s-2.17,2.44-3.33,3.59A44.11,44.11,0,0,1,92.22,107c-1.26,1-2.54,2-3.9,2.94s-2.73,1.79-4.14,2.58-2.72,1.46-4.09,2.08-2.8,1.21-4.24,1.72a40.21,40.21,0,0,1-4.37,1.35q-1.62.43-3.24.75V105l1.1-.31q1.54-.45,3.08-1a27,27,0,0,0,3-1.28q1.49-.71,2.89-1.52,1.6-.92,3.11-2t2.93-2.25q1.4-1.17,2.72-2.5t2.5-2.74q1.18-1.41,2.25-2.93t2-3.12q.94-1.63,1.7-3.27t1.41-3.42q.62-1.72,1.1-3.51t.79-3.6q.32-1.8.48-3.67t.16-3.71a28.71,28.71,0,0,0-.12-3.24c-.12-1-.21-2.19-.36-3.2s-.36-2.08-.62-3.17-.53-2.08-.85-3.12-.7-2.08-1.08-3.06-.84-2-1.31-3a28.18,28.18,0,0,0-1.53-2.85c-.53-.85-1.1-1.79-1.75-2.72a31,31,0,0,0-2-2.58c-.67-.77-1.38-1.63-2.14-2.42s-1.49-1.51-2.31-2.25S83.81,31.14,83,30.5s-1.73-1.29-2.62-1.87S78.54,27.49,77.61,27s-1.88-1-2.86-1.43-2-.85-3-1.21L70.93,24l-.42-.15Z"/>
        <path class="b" d="M14.23,70l.08.65.09.63.09.62.1.58.12.6.08.4v.21l.13.62.14.6q.36,1.49.83,3t1,2.88q.57,1.41,1.24,2.78t1.44,2.68q.77,1.3,1.64,2.56T23,91.25q1,1.24,2,2.3t2.17,2.15q1.13,1,2.32,2A24.37,24.37,0,0,0,32,99.52q1.27.86,2.59,1.63t2.69,1.43q1.22.59,2.43,1.09t2.48.92q1.11.37,2.33.71v13.28l-1.7-.38q-1.91-.46-3.64-1c-1.2-.38-2.39-.8-3.57-1.25s-2.33-1-3.47-1.5-2.41-1.2-3.6-1.87-2.32-1.37-3.45-2.13S23,108.84,21.89,108s-2.12-1.72-3.09-2.61-2-1.85-2.89-2.84-1.8-2-2.66-3a40.19,40.19,0,0,1-2.44-3.23c-.75-1.08-1.49-2.22-2.18-3.4S7.31,90.57,6.7,89.35,5.55,86.9,5,85.66a28.77,28.77,0,0,1-1.38-3.81c-.38-1.33-.78-2.58-1.1-3.91l-.19-.8-.17-.78L2,75.57l-.15-.82c-.05-.46-.1-.75-.11-.85-.06-.38-.11-.65-.13-.79l-.11-.8c-.06-.44-.09-.67-.1-.79a4.8,4.8,0,0,0-.08-.79,4.19,4.19,0,0,0-.08-.84,4.36,4.36,0,0,1-.07-.83,5.55,5.55,0,0,0,0-.82,4.6,4.6,0,0,1,0-.83V65.75A4.08,4.08,0,0,1,1,65V60.63H13.94v8.13l.06.6.08.65Z"/>
      </g>
      <g>
        <path class="a" d="M149.15,29.09,114.38,93.18l10.43,5.66L155.08,43l30.27,55.8,10.43-5.66L161,29.09Z"/>
        <path class="a" d="M149.15,76.49H161V64.63H149.15V76.49Z"/>
      </g>
      <g>
        <path class="a" d="M257.84,56.53H240.29V68.4h17.55a7.8,7.8,0,0,1,0,15.59H218.36V40.89h54.92V29.07H206.49V95.89h51.35a19.66,19.66,0,0,0,0-39.32Z"/>
      </g>
      <g>
        <path class="a" d="M340.68,29.07H289.34V95.89H301.2v-55h39.48a7.8,7.8,0,1,1,0,15.6H323.14V68.4h17.55a19.67,19.67,0,1,0,.89-39.33h-.9Z"/>
      </g>
      <g>
        <path class="a" d="M383.57,78.2V29.07H371.71V95.86h10.86l48.29-49.14V95.86h11.86V29.07H431.84L383.57,78.2Z"/>
      </g>
      <g>
        <path class="a" d="M455.67,95.86h11.87V29.07H455.67V95.86Z"/>
        <path class="a" d="M509.64,96.23h16.11L490,61.44l35.8-34.79H509.64l-35.8,34.79,35.8,34.79Z"/>
      </g>
      <g>
        <path class="a" d="M577.12,29.09H565.25L530.49,93.18l10.43,5.66L571.19,43l30.27,55.8,10.25-5.57v-.41L577.12,29.09Z"/>
        <path class="b" d="M565.25,76.49h11.87V64.63H565.25V76.49Z"/>
      </g>
    </g>
    <g>
      <path class="c" d="M 120.64 107.37 120.64 114.81 127.85 114.81 127.85 107.37 132.22 107.37 132.22 126.73 127.85 126.73 127.85 118.63 120.64 118.63 120.64 126.73 116.28 126.73 116.28 107.37 120.64 107.37 120.64 107.37z"/>
      <path class="c" d="M152.63,107.37h-5.74L141,126.73h4.5l1.38-5h5.55l1.49,5h4.74Zm-5.1,11.11,1.14-4.1c.32-1.12.61-2.59.89-3.74h.06c.29,1.15.64,2.59,1,3.74l1.2,4.1Z"/>
      <path class="c" d="M 171.87 107.37 171.87 123.14 176.67 123.14 176.67 107.37 180.95 107.37 180.95 123.14 185.74 123.14 185.74 107.37 190.01 107.37 190.01 126.73 167.59 126.73 167.59 107.37 171.87 107.37 171.87 107.37z"/>
      <path class="c" d="M230,116.85c0-5.37-3.24-9.82-9.19-9.82-5.69,0-9.42,4.33-9.42,10.14,0,5.54,3.39,9.88,9.1,9.88s9.51-3.82,9.51-10.19Zm-9.28,6.72c-2.92,0-4.7-2.67-4.7-6.49h0c0-3.77,1.72-6.58,4.7-6.58s4.66,3,4.66,6.49C225.35,120.76,223.65,123.57,220.69,123.57Z"/>
      <path class="c" d="M253.84,123.28V107.37H241.18v5.17a24.68,24.68,0,0,1-.75,6.43,18.65,18.65,0,0,1-1.84,4.3l-1.63.11.17,8.21h3.33l.23-4.88H252l.23,4.88h3.3l.21-8.21Zm-4.36-.11H243a17.49,17.49,0,0,0,1.32-3.27,23,23,0,0,0,.86-6.38v-2.58h4.26Z"/>
      <path class="c" d="M278.25,126.73v-19.1a36.52,36.52,0,0,0-5.55-.4c-2.52,0-4.85.4-6.35,1.52a5,5,0,0,0-2,4.11,4.66,4.66,0,0,0,4.08,4.74v.08a4.85,4.85,0,0,0-1.61,1c-1.46,1.41-1.92,3.7-2.69,5.92a9.64,9.64,0,0,1-1,2.15h4.66a9.76,9.76,0,0,0,.68-1.64c.58-1.58,1.06-4,2.31-5.19a2.88,2.88,0,0,1,2.07-.75h1.06v7.58Zm-4.34-10.83a8.51,8.51,0,0,1-1.55.09c-2,0-3.65-.95-3.65-2.73,0-2,1.53-2.76,3.42-2.76a6.84,6.84,0,0,1,1.78.18Z"/>
      <path class="c" d="M 300.09 107.37 300.09 110.96 292.77 110.96 292.77 126.73 288.4 126.73 288.4 107.37 300.09 107.37 300.09 107.37z"/>
    </g>
  </g>
</svg>
