<?xml version="1.0" standalone="no"?>
<!DOCTYPE svg PUBLIC "-//W3C//DTD SVG 20010904//EN"
 "http://www.w3.org/TR/2001/REC-SVG-20010904/DTD/svg10.dtd">
<svg version="1.0" xmlns="http://www.w3.org/2000/svg"
 width="262.000000pt" height="262.000000pt" viewBox="0 0 262.000000 262.000000"
 preserveAspectRatio="xMidYMid meet">
<metadata>
Created by potrace 1.11, written by Peter Selinger 2001-2013
</metadata>
<g transform="translate(0.000000,262.000000) scale(0.100000,-0.100000)"
fill="#000000" stroke="none">
<path d="M1190 2423 l0 -198 111 0 112 0 -1 180 c0 99 -1 188 -1 198 -1 15
-13 17 -111 17 l-110 0 0 -197z"/>
<path d="M1604 2308 l-41 -113 80 -37 c194 -91 332 -235 407 -420 47 -120 60
-190 56 -323 -3 -103 -7 -133 -35 -213 -82 -243 -267 -431 -499 -507 l-52 -17
0 -124 c0 -144 -7 -138 112 -100 336 110 599 380 687 707 30 109 32 123 35
249 12 430 -233 813 -625 980 -39 16 -74 30 -78 30 -4 0 -25 -51 -47 -112z"/>
<path d="M1155 2095 c-221 -49 -394 -188 -486 -390 -28 -61 -32 -78 -48 -177
-34 -206 63 -446 239 -592 59 -49 209 -124 218 -109 6 9 7 108 3 205 -1 10
-19 29 -40 43 -79 49 -149 140 -181 234 -66 196 13 405 195 517 301 185 697
-17 711 -363 3 -82 -11 -145 -50 -222 -30 -58 -117 -151 -166 -176 l-30 -16 0
-114 c0 -75 4 -115 11 -115 22 0 136 62 194 105 128 96 227 256 253 410 12 68
6 207 -11 273 -64 242 -266 432 -519 487 -77 17 -220 17 -293 0z"/>
<path d="M1250 1760 c-20 -3 -41 -10 -48 -14 -9 -5 -12 -205 -12 -877 l0 -869
110 0 110 0 1 73 c0 90 0 1637 0 1655 -2 26 -92 44 -161 32z"/>
<path d="M255 1368 c31 -367 229 -668 555 -844 97 -53 258 -104 269 -86 9 15
4 233 -6 242 -4 4 -26 13 -48 20 -204 64 -392 247 -474 459 -34 89 -39 110
-48 204 l-6 67 -123 0 -124 0 5 -62z"/>
</g>
</svg>
