<svg xmlns="http://www.w3.org/2000/svg" viewBox="0 0 117.9 9.04" class="svg-logo">
  <defs>
    <style>	  
      .svg-logo .a {
        fill: #ff2e52;
      }

      .svg-logo .b {
        fill: #fff;
      }

      .svg-logo .a,
      .svg-logo .b {
        transition: fill ease .2s;
      }

      .active > .svg-logo .a {
        fill: #fff;
      }

      .active > .svg-logo .b {
        fill: #ff2e52;
      }
    </style>
  </defs>
  <title>Logotype "Mobprofit"</title>
  <g>
    <path class="a" d="M14.41,0V9H11.9V3.27L8.22,8.18H6.1L2.42,3.27V9H0V0H2.56L7.2,6.33,11.84,0h2.57Z"/>
    <path class="a" d="M26.24,0A2.94,2.94,0,0,1,28.3.77a2.41,2.41,0,0,1,.84,1.87V6.4a2.41,2.41,0,0,1-.84,1.87A2.94,2.94,0,0,1,26.24,9H19.18a3,3,0,0,1-2.06-.77,2.44,2.44,0,0,1-.84-1.87V2.64A2.44,2.44,0,0,1,17.12.77,3,3,0,0,1,19.18,0ZM19.08,2.32a.94.94,0,0,0-.34.75V6a1,1,0,0,0,.34.75,1.23,1.23,0,0,0,.82.3h5.61a1.28,1.28,0,0,0,.82-.31A1,1,0,0,0,26.67,6V3a1,1,0,0,0-.34-.75,1.07,1.07,0,0,0-.82-.3H19.9a1.14,1.14,0,0,0-.82.35Z"/>
    <path class="a" d="M39.9,0a2.77,2.77,0,0,1,1.93.73,2.29,2.29,0,0,1,.55,2.75,2.51,2.51,0,0,1-.65.81,2.69,2.69,0,0,1,1.06.92,2.29,2.29,0,0,1,.4,1.3,2.35,2.35,0,0,1-.81,1.79,2.8,2.8,0,0,1-2,.73H30.94V0h9ZM33.44,3.68h5.67a1,1,0,0,0,.68-.26.84.84,0,0,0,.06-1.19l-.06-.06a1,1,0,0,0-.68-.26H33.44V3.67Zm0,3.44h6.29a1,1,0,0,0,.68-.26.74.74,0,0,0,.28-.63.81.81,0,0,0-.28-.63.93.93,0,0,0-.67-.25H33.45V7.11Z"/>
    <path class="b" d="M55,0a3.58,3.58,0,0,1,1.71.42A3.21,3.21,0,0,1,58,1.55a2.89,2.89,0,0,1,0,3.13,3.17,3.17,0,0,1-1.24,1.13A3.63,3.63,0,0,1,55,6.22H48.57V9H46.1V0H55ZM48.56,4.21h6.22a1.36,1.36,0,0,0,.87-.31A1,1,0,0,0,56,3.11a1,1,0,0,0-.34-.79A1.2,1.2,0,0,0,54.78,2H48.56Z"/>
    <path class="b" d="M69.16,0A3.22,3.22,0,0,1,71.4.84a2.66,2.66,0,0,1,.93,2,2.63,2.63,0,0,1-.8,1.91,3.31,3.31,0,0,1-2,.93L72.47,9H69.6L66.9,5.73H62.78V9H60.31V0h8.85Zm-6.4,3.77H68.9a1,1,0,0,0,.69-.25.81.81,0,0,0,.27-.63.77.77,0,0,0-.27-.63A.86.86,0,0,0,68.9,2H62.73V3.75Z"/>
    <path class="b" d="M84.29,0a2.94,2.94,0,0,1,2.06.77,2.41,2.41,0,0,1,.84,1.87V6.4a2.41,2.41,0,0,1-.84,1.87A2.94,2.94,0,0,1,84.29,9H77.23a3,3,0,0,1-2.06-.77,2.44,2.44,0,0,1-.84-1.87V2.64A2.44,2.44,0,0,1,75.17.77,3,3,0,0,1,77.23,0ZM77.13,2.32a.94.94,0,0,0-.34.75V6a1,1,0,0,0,.34.75A1.23,1.23,0,0,0,78,7h5.61a1.28,1.28,0,0,0,.82-.31A1,1,0,0,0,84.72,6V3a1,1,0,0,0-.34-.75,1.07,1.07,0,0,0-.82-.3H78a1.14,1.14,0,0,0-.82.35Z"/>
    <path class="b" d="M100,0V2H91.53V3.76H98.8v2H91.53V9H89.06V0Z"/>
    <path class="b" d="M104.42,0V9h-2.47V0Z"/>
    <path class="b" d="M117.9,0V2h-4.68V9h-2.47V2h-4.68V0Z"/>
  </g>
</svg>