<svg xmlns="http://www.w3.org/2000/svg" viewBox="0 0 124.8 125.58">
  <defs>
    <style>
      .a {
        fill: #61676f;
      }
    </style>
  </defs>
  <title>Logotype</title>
  <g>
    <path class="a" d="M15.4,115.88v9.7H12.8v-6.1l-3.9,5.3H6.6l-3.9-5.3v6.1H0V116H2.7l5,6.8,5-6.8,2.7-.1Z"/>
    <path class="a" d="M28,115.88a3.49,3.49,0,0,1,2.2.8,2.52,2.52,0,0,1,.9,2v4a2.52,2.52,0,0,1-.9,2,3.49,3.49,0,0,1-2.2.8H20.5a3.49,3.49,0,0,1-2.2-.8,2.52,2.52,0,0,1-.9-2v-4a2.52,2.52,0,0,1,.9-2,3.49,3.49,0,0,1,2.2-.8Zm-7.6,2.5a1.23,1.23,0,0,0-.4.8v3.1a.91.91,0,0,0,.4.8,1.4,1.4,0,0,0,.9.3h6a1.61,1.61,0,0,0,.9-.3,1.23,1.23,0,0,0,.4-.8v-3.1a.91.91,0,0,0-.4-.8,1.4,1.4,0,0,0-.9-.3h-6a1.22,1.22,0,0,0-.9.3Z"/>
    <path class="a" d="M42.6,115.88a3.23,3.23,0,0,1,2.1.8,2.44,2.44,0,0,1,.6,2.9,5.5,5.5,0,0,1-.7.9,2.66,2.66,0,0,1,1.1,1,2.3,2.3,0,0,1,.4,1.4,2.46,2.46,0,0,1-.9,1.9,3.23,3.23,0,0,1-2.1.8h-10V116l9.5-.1Zm-6.9,3.9h6a1.14,1.14,0,0,0,.8-.3.93.93,0,0,0,.1-1.3l-.1-.1a1.08,1.08,0,0,0-.7-.3h-6l-.1,2Zm0,3.7h6.7a1,1,0,0,0,.7-1.7,1.08,1.08,0,0,0-.7-.3H35.7v2Z"/>
    <path class="a" d="M57.6,115.88a3.66,3.66,0,0,1,1.8.4,3.74,3.74,0,0,1,1.3,1.2,2.86,2.86,0,0,1,0,3.3,3.74,3.74,0,0,1-1.3,1.2,3.92,3.92,0,0,1-1.8.4H50.7v3H48.1v-9.6l9.5.1Zm-6.8,4.5h6.6a1.4,1.4,0,0,0,.9-.3,1.27,1.27,0,0,0,.4-.9,1.22,1.22,0,0,0-.4-.9,1.61,1.61,0,0,0-.9-.3H50.8v2.4Z"/>
    <path class="a" d="M72.8,115.88a3.58,3.58,0,0,1,2.4.9,2.87,2.87,0,0,1,1,2.2,2.52,2.52,0,0,1-.9,2,3.46,3.46,0,0,1-2.1,1l3.1,3.5H73.2L70.3,122H65.9v3.6H63.3V116l9.5-.1Zm-6.9,4h6.6a1,1,0,0,0,.7-1.7,1.08,1.08,0,0,0-.7-.3H65.9v2Z"/>
    <path class="a" d="M88.9,115.88a3.49,3.49,0,0,1,2.2.8,2.52,2.52,0,0,1,.9,2v4a2.52,2.52,0,0,1-.9,2,3.49,3.49,0,0,1-2.2.8H81.4a3.49,3.49,0,0,1-2.2-.8,2.52,2.52,0,0,1-.9-2v-4a2.52,2.52,0,0,1,.9-2,3.49,3.49,0,0,1,2.2-.8Zm-7.6,2.5a1.23,1.23,0,0,0-.4.8v3.1a.91.91,0,0,0,.4.8,1.4,1.4,0,0,0,.9.3h6a1.61,1.61,0,0,0,.9-.3,1.23,1.23,0,0,0,.4-.8v-3.1a.91.91,0,0,0-.4-.8,1.4,1.4,0,0,0-.9-.3h-6a1.22,1.22,0,0,0-.9.3Z"/>
    <path class="a" d="M105.6,115.88V118h-9v1.9h7.8V122H96.6v3.5H94v-9.6Z"/>
    <path class="a" d="M110.4,115.88v9.7h-2.6V116l2.6-.1Z"/>
    <path class="a" d="M124.8,115.88V118h-5v7.5h-2.6v-7.4h-5V116l12.6-.1Z"/>
    <path class="a" d="M1,46.58c.1-.5.2-.9.3-1.4a17.11,17.11,0,0,1,3.8-7c.4-.5.4-.4.9-1a20.45,20.45,0,0,0,2.5-3.5c1.9-3.3,1.9-6.7,2.3-6.7a1.69,1.69,0,0,1,.3,1,5.6,5.6,0,0,1-.7,3.6c-.1.2-.2.3-.3.5a1.06,1.06,0,0,0-.1.8s.1.1.5-.1a6.36,6.36,0,0,0,2.4-2.2,7.3,7.3,0,0,0,1.1-3.8,6.2,6.2,0,0,0-1.1-3.3,10.66,10.66,0,0,1-1-1.4,1.79,1.79,0,0,0-.5-.7.55.55,0,0,0-.5-.3c-.3.1-.4.4-.5.7-.4.9.3-.9-.7,1.3-.5,1.1-.7,1.7-.8,1.8-.4,1.4.1,2.5-.2,2.6a1,1,0,0,1-.5-.4,17.41,17.41,0,0,0-1.4-1.2c-.9-.6-2.1-.6-2.3-.3a.52.52,0,0,0,.2.4c.1.2.3.4.4.6A3.69,3.69,0,0,1,5.8,28a6.7,6.7,0,0,1,.2,2.4,16.9,16.9,0,0,1-1.2,4.4c-.7,1.7-1,1.9-2.6,5.4a24.43,24.43,0,0,0-1,2.4A9,9,0,0,0,1,46.58Z"/>
    <path class="a" d="M.9,57.08a20.94,20.94,0,0,1-.8,2.3c-.2,0,.1-2.5.6-4.7.7-2.8,1.7-7,5.2-10.2a12.1,12.1,0,0,1,5.7-3,16,16,0,0,1,1.7-.1c1-.1,1.1,0,1.6-.1,1.7-.2,2.3-.8,2.6-.5.7.5-1.8,4-1.3,4.4.1.1.4-.1,1.1-.4a10,10,0,0,1,4.1-1.1c.5,0,2,.2,2.5.2,1.5.1,2.5-1.3,2.9-1.1s-.1,1.4-.5,2.1c-.9,1.9-2.6,2.7-2.5,3a2.38,2.38,0,0,0,1.2-.3,6,6,0,0,0,2.9-3.7,2.86,2.86,0,0,0,.1-1.6,3.53,3.53,0,0,0-.8-1.3,3,3,0,0,1-.8-.8,1.27,1.27,0,0,1,0-1.2,1.21,1.21,0,0,1,1.3-.3,2,2,0,0,1,1.2.8,4,4,0,0,1,.7,2.1,12.86,12.86,0,0,1-.3,3.9,10.38,10.38,0,0,1-1.7,3.7,4.9,4.9,0,0,1-1.8,1.7c-.8.4-1.7.4-1.7.6a1,1,0,0,0,.5.4,2.77,2.77,0,0,0,.9.1,1.44,1.44,0,0,1,1.1.9c.1.5-.3,1-1,1.9a4.74,4.74,0,0,1-1,1,2.93,2.93,0,0,1-1.6.4A3.25,3.25,0,0,1,20.8,55a3.91,3.91,0,0,1,1.4,1.7,2.28,2.28,0,0,1,.3,1.1c.1,1.6-1.1,3.3-1.9,3.2a1.21,1.21,0,0,1-.7-.7,10.73,10.73,0,0,0-2.7-2.5,7,7,0,0,0-6.3-.4,7.28,7.28,0,0,0-3.7,3.2,9.17,9.17,0,0,0-1.3,3.6c-.1,1.1,0,2.9,1.7,5.6,3.1,4.9,7.7,7,7.5,7.3s-2.5-.7-4.9-2.4a16.23,16.23,0,0,1-5.8-6.4c-2.2-4.9-.2-9.9.2-11.1,2.8-7.2,9.9-10.5,9.6-11s-3.1,1.2-5.6,3.4A19.18,19.18,0,0,0,3.4,57c-1.7,4.2-1.3,7.7-1.5,7.7s-1-3.9,0-8.3c1.7-7.1,7.2-11.1,7.1-11.2A27.44,27.44,0,0,0,.9,57.08Z"/>
    <path class="a" d="M16.2,62.38a2.47,2.47,0,0,1-.4.9,9,9,0,0,0-.6,2.2c-.1,2,1,3.8,1.3,3.8a1.69,1.69,0,0,0,.3-1,1.61,1.61,0,0,1,.3-.9.9.9,0,0,1,.6-.6c.2,0,.2.4.4.4s.4-.3.6-.4l.6-.3a1.27,1.27,0,0,1,.6-.1.6.6,0,0,1,.3.6,1.69,1.69,0,0,1-.3,1,3.4,3.4,0,0,0-.1,1,7.48,7.48,0,0,0,1.9,4c3.2,3.6,13.3,8.7,13.1,9.1-.1.1-1.5-.2-4.7-1.3a65.54,65.54,0,0,1-12-5.6,18.34,18.34,0,0,1-5-4.2,6.14,6.14,0,0,1-1.5-2.6,5.42,5.42,0,0,1,1-4.4C13.9,62.58,15.9,62.08,16.2,62.38Z"/>
    <path class="a" d="M35,85.48a24.3,24.3,0,0,0-3.5-2,24.79,24.79,0,0,0-8.9-2.2h-3a23,23,0,0,1-3.5-.1,12.42,12.42,0,0,1-3.3-.4c-1.9-.6-2.6-1.8-3.1-1.5s-.1,1.6.1,2.4c.5,1.7,1,3.5,2.7,4.6a7.09,7.09,0,0,0,4.3.8,20.25,20.25,0,0,0,3.3-.9,21.07,21.07,0,0,1,2.6-.6c2.8-.7,6.5.2,9.3,1.1,5.3,1.7,8.7,3.8,8.8,3.6s-1.7-1.7-3.9-2.9a33.93,33.93,0,0,0-12.1-3.2c-1.4-.1-2.5-.1-2.5-.1-1.8,0-2.1.1-3.3,0a9.24,9.24,0,0,1-3.9-.9,20.08,20.08,0,0,1,2.4-.1c.8,0,1.4-.1,1.7-.1,2.1-.1,4.1-.1,6.2,0A35.78,35.78,0,0,1,35,85.48Z"/>
    <path class="a" d="M48.5,98.48c-2.5-2.9-6.2-7.2-12-8.7a55.8,55.8,0,0,0-5.7-.8c-4.2-.5-4.7-.3-5,.1-.6,1,1.1,3.7,3.3,4.7a4.48,4.48,0,0,0,3.4.4,3.08,3.08,0,0,1,1.2-.5c.2.2-.9,1.2-.6,2.4a3,3,0,0,0,1.6,2,1.91,1.91,0,0,1,1,.5,3.55,3.55,0,0,1,.2,1,2.24,2.24,0,0,0,1.9,1.2,2.88,2.88,0,0,0,1.3-.1c2.3-.7,7.3.1,10.8,2,.8.4,1.3.8,1.5.6C51.9,102.58,49.8,99.88,48.5,98.48Zm-11-5.1c-2.7-1.1-4.1-1.7-4.8-1.6a1,1,0,0,1-.9-.2c-.1-.1-.1-.2-.1-.4a.86.86,0,0,1,.6-.3h.5a17.1,17.1,0,0,1,3,.9,35.3,35.3,0,0,1,5,2.8,16.93,16.93,0,0,1,3.2,2.7,28.76,28.76,0,0,0-6.5-3.9Z"/>
    <path class="a" d="M39.4,6.18c-3-4.6-9.6-7.6-14-5.4A7.84,7.84,0,0,0,22.8,3a1.42,1.42,0,0,0-.2.6A1.4,1.4,0,0,0,23.8,5a1.14,1.14,0,0,0,.6-.3,7.1,7.1,0,0,0,1-1.4,3,3,0,0,1,2.2-.8,6.83,6.83,0,0,1,4.8,1.2,3.48,3.48,0,0,1,1.3,1.1,17.86,17.86,0,0,0-4.1-1.3c-.2,0-1.6-.2-1.8.3s1,.8,1.7,2.2a7.49,7.49,0,0,1,.4,1.6,12.66,12.66,0,0,0,1.3,3.2,10.7,10.7,0,0,0,1.4,1.6,28.43,28.43,0,0,0,2.1,2c2.3,2.4,1.3,6.9,1.3,7.1A7.82,7.82,0,0,1,34.2,25c-.3.3-1,1.1-1.3.9-.5-.3,2.1-3.2,1.6-6.6a7.69,7.69,0,0,0-3.2-4.8c-1-.8-2.1-1.3-2.4-1s1,1.8.4,3a6.42,6.42,0,0,1-1,1.3,2.25,2.25,0,0,1-.5.5c-1.7,1.6-3.1,2.9-3.1,4.4a.66.66,0,0,1-.1.6c-.2.1-.6-1-1.8-1.8-.4-.3-1.3-.8-1.6-.6s.9,1.6.9,3.6a3.94,3.94,0,0,1-.6,2.1,8,8,0,0,1-1.7,1.5c-.8.6-1.4.9-1.6,1.1a24.28,24.28,0,0,0-3.2,2.4,37.68,37.68,0,0,0-9.6,10.3c-1.2,2-2.3,4.3-2,4.4.5.3,3.9-7.9,11.1-10.5a87.45,87.45,0,0,1,8.8-2.3c1.4-.3,2.1-.4,2.6-.5A20.58,20.58,0,0,0,40,20.08C40.8,18,43,11.58,39.4,6.18Zm-9.8,19.5a9.06,9.06,0,0,1-2.9,2.6,8.86,8.86,0,0,1-1.7.8c-1.6.8-2.2.9-3.6,1.6s-1.1.5-3.5,1.7a20.45,20.45,0,0,1-3.1,1.3A22,22,0,0,1,17.3,32a45.92,45.92,0,0,1,4.9-2.6,31.51,31.51,0,0,0,2.9-1.3,13.56,13.56,0,0,0,3.4-2.3,15.23,15.23,0,0,0,2.2-3.4,5.92,5.92,0,0,1-1.1,3.3Zm8.3-4.4a27.41,27.41,0,0,0,.5-2.8,17,17,0,0,0,0-4.5c-.3-2.8-1.1-4.6-.8-4.7A4.52,4.52,0,0,1,38.7,11c2,4.6-.6,10.3-.8,10.3Z"/>
    <path class="a" d="M123.8,46.58c-.1-.5-.2-.9-.3-1.4a17.11,17.11,0,0,0-3.8-7c-.4-.5-.4-.4-.9-1a27,27,0,0,1-2.5-3.4c-1.9-3.3-1.9-6.7-2.3-6.7a1.69,1.69,0,0,0-.3,1,5.6,5.6,0,0,0,.7,3.6c.1.2.2.3.3.5a1.06,1.06,0,0,1,.1.8s-.1.1-.5-.1a6.36,6.36,0,0,1-2.4-2.2,7.3,7.3,0,0,1-1.1-3.8,6.2,6.2,0,0,1,1.1-3.3,10.66,10.66,0,0,0,1-1.4,1.79,1.79,0,0,1,.5-.7.55.55,0,0,1,.5-.3c.3.1.4.4.5.7.4.9-.3-.9.7,1.3.5,1.1.7,1.7.8,1.8.4,1.4,0,2.5.2,2.6a1,1,0,0,0,.5-.4A17.41,17.41,0,0,1,118,26c.9-.6,2.1-.6,2.3-.3a.52.52,0,0,1-.2.4c-.1.2-.3.4-.4.6a3.69,3.69,0,0,0-.7,1.4,5.34,5.34,0,0,0-.2,2.2,16.9,16.9,0,0,0,1.2,4.4c.7,1.7,1,1.9,2.6,5.4a24.43,24.43,0,0,1,1,2.4A8.16,8.16,0,0,1,123.8,46.58Z"/>
    <path class="a" d="M123.9,57.08a20.94,20.94,0,0,0,.8,2.3c.2,0-.1-2.5-.6-4.7-.7-2.8-1.7-7-5.2-10.2a12.1,12.1,0,0,0-5.7-3,16,16,0,0,0-1.7-.1c-1-.1-1.1,0-1.6-.1-1.7-.2-2.3-.8-2.6-.5-.7.5,1.8,4,1.3,4.4-.1.1-.4-.1-1.1-.4a10,10,0,0,0-4.1-1.1c-.5,0-2,.2-2.5.2-1.5.1-2.5-1.3-2.9-1.1s.1,1.4.5,2.1c.9,1.9,2.6,2.7,2.5,3a2.38,2.38,0,0,1-1.2-.3,6,6,0,0,1-2.9-3.7,2.86,2.86,0,0,1-.1-1.6,3.53,3.53,0,0,1,.8-1.3,3,3,0,0,0,.8-.8,1.28,1.28,0,0,0,0-1.2,1.21,1.21,0,0,0-1.3-.3,2,2,0,0,0-1.2.8,4,4,0,0,0-.7,2.1,12.86,12.86,0,0,0,.3,3.9,10.38,10.38,0,0,0,1.7,3.7,4.9,4.9,0,0,0,1.8,1.7c.8.4,1.7.4,1.7.6a1,1,0,0,1-.5.4,2.77,2.77,0,0,1-.9.1,1.44,1.44,0,0,0-1.1.9c-.1.5.3,1,1,1.9a4.74,4.74,0,0,0,1,1,2.82,2.82,0,0,0,1.5.4,3.25,3.25,0,0,0,2.2-1.2,5,5,0,0,0-1.5,1.7,2.28,2.28,0,0,0-.3,1.1c-.1,1.6,1.1,3.3,1.9,3.2a1.21,1.21,0,0,0,.7-.7,10.73,10.73,0,0,1,2.7-2.5,7,7,0,0,1,6.3-.4,7.28,7.28,0,0,1,3.7,3.2,9.17,9.17,0,0,1,1.3,3.6c.1,1.1,0,2.9-1.7,5.6-3.1,4.9-7.7,7-7.5,7.3s2.5-.7,4.9-2.4a16.23,16.23,0,0,0,5.8-6.4c2.2-4.9.2-9.9-.2-11.1-2.8-7.2-9.9-10.5-9.6-11s3.1,1.2,5.6,3.4a19.18,19.18,0,0,1,5.2,7.4c1.7,4.2,1.3,7.7,1.5,7.7s1-3.9,0-8.3c-1.7-7.1-7.2-11.1-7.1-11.2S121.9,50.38,123.9,57.08Z"/>
    <path class="a" d="M108.6,62.38a2.47,2.47,0,0,0,.4.9,5.85,5.85,0,0,1,.5,2.2c.1,2-1,3.8-1.3,3.8a1.69,1.69,0,0,1-.3-1,1.61,1.61,0,0,0-.3-.9,1,1,0,0,0-.5-.6c-.2,0-.2.4-.4.4s-.4-.3-.6-.4l-.6-.3a1.09,1.09,0,0,0-.5-.1.6.6,0,0,0-.3.6,1.69,1.69,0,0,0,.3,1,3.4,3.4,0,0,1,.1,1,7.48,7.48,0,0,1-1.9,4c-3.3,3.6-13.4,8.8-13.2,9.1,0,.1,1.5-.2,4.7-1.3a65.54,65.54,0,0,0,12-5.6,18.34,18.34,0,0,0,5-4.2,6.14,6.14,0,0,0,1.5-2.6,5.42,5.42,0,0,0-1-4.4C110.9,62.58,108.9,62.08,108.6,62.38Z"/>
    <path class="a" d="M89.8,85.48a24.3,24.3,0,0,1,3.5-2,24.79,24.79,0,0,1,8.9-2.2h3a23,23,0,0,0,3.5-.1,12.42,12.42,0,0,0,3.3-.4c1.9-.6,2.6-1.8,3.1-1.5s.1,1.6-.1,2.4c-.5,1.7-1,3.5-2.7,4.6a7.09,7.09,0,0,1-4.3.8,20.25,20.25,0,0,1-3.3-.9,22.54,22.54,0,0,0-2.5-.6c-2.8-.7-6.5.2-9.3,1.1-5.3,1.7-8.7,3.8-8.8,3.6s1.7-1.7,3.9-2.9a33.93,33.93,0,0,1,12.1-3.2c1.3-.1,2.4-.1,2.4-.1,1.8,0,2.1.1,3.3,0a9.24,9.24,0,0,0,3.9-.9,17.7,17.7,0,0,0-2.3-.1c-.8,0-1.4-.1-1.7-.1-2.1-.1-4.1-.1-6.2,0A35.52,35.52,0,0,0,89.8,85.48Z"/>
    <path class="a" d="M73.3,103c.2.2.7-.2,1.5-.6,3.6-1.8,8.5-2.7,10.8-2a2,2,0,0,0,1.3.1,2.47,2.47,0,0,0,1.9-1.2,3.55,3.55,0,0,1,.2-1,3.13,3.13,0,0,1,1-.5,2.71,2.71,0,0,0,1.6-2c.2-1.2-.9-2.1-.6-2.4a6.12,6.12,0,0,1,1.2.5,4.48,4.48,0,0,0,3.4-.4c2.2-1,4-3.7,3.3-4.7-.2-.4-.8-.5-5-.1a55.79,55.79,0,0,0-5.7.8c-5.8,1.5-9.5,5.8-12,8.7C75,99.88,72.9,102.58,73.3,103Zm7.4-5.7a20.79,20.79,0,0,1,3.2-2.7,35.3,35.3,0,0,1,5-2.8,17.1,17.1,0,0,1,3-.9h.5a.71.71,0,0,1,.6.3.6.6,0,0,1-.1.4,1,1,0,0,1-.9.2c-.7-.1-2.1.5-4.8,1.6a38.6,38.6,0,0,0-6.5,3.9Z"/>
    <path class="a" d="M84.8,20c2.6,7.4,9.4,12,14.2,12.8.5.1,1.2.2,2.6.5a68.39,68.39,0,0,1,8.9,2.3c7.2,2.6,10.5,10.9,11.1,10.5.3-.2-.8-2.4-2-4.4a37.68,37.68,0,0,0-9.6-10.3,24.28,24.28,0,0,0-3.2-2.4,9.08,9.08,0,0,1-1.6-1.1,6.12,6.12,0,0,1-1.7-1.5,3.94,3.94,0,0,1-.6-2.1c0-2,1.3-3.3.9-3.6s-1.2.3-1.6.6c-1.1.8-1.5,1.8-1.8,1.8a1.27,1.27,0,0,1-.1-.6c0-1.5-1.5-2.8-3.1-4.4l-.5-.5a6.42,6.42,0,0,1-1-1.3c-.6-1.2.8-2.6.5-3s-1.5.3-2.5,1a8.26,8.26,0,0,0-3.2,4.8c-.5,3.4,2.1,6.3,1.6,6.6-.3.2-1-.7-1.3-.9a7.82,7.82,0,0,1-1.8-3.5c0-.2-1.1-4.7,1.3-7.1a28.43,28.43,0,0,0,2.1-2,10.7,10.7,0,0,0,1.4-1.6,9.82,9.82,0,0,0,1.3-3.2,9.36,9.36,0,0,1,.4-1.6c.4-1.3,1.6-1.7,1.5-2.1s-1.5-.3-1.8-.3a13.27,13.27,0,0,0-4,1.2,2.76,2.76,0,0,1,1.3-1.1,8,8,0,0,1,4.8-1.2,3.49,3.49,0,0,1,2.2.8,7.1,7.1,0,0,0,1,1.4.86.86,0,0,0,.6.3,1.3,1.3,0,0,0,1.2-1.3,1.42,1.42,0,0,0-.2-.6A7.84,7.84,0,0,0,99.5.68c-4.4-2.1-11,.9-14,5.4C81.8,11.58,84.1,18,84.8,20Zm9.3,2.4a19.82,19.82,0,0,0,2.2,3.4,9.76,9.76,0,0,0,3.4,2.3c1.1.6,1.2.5,2.9,1.3a45.92,45.92,0,0,1,4.9,2.6,13.79,13.79,0,0,1,2.5,1.7,17.3,17.3,0,0,1-3.1-1.4c-2.4-1.1-2.2-1.1-3.5-1.7A36.38,36.38,0,0,1,99.8,29a13,13,0,0,1-1.7-.8,8.94,8.94,0,0,1-2.9-2.6,5.17,5.17,0,0,1-1.1-3.2ZM86.1,11a3.37,3.37,0,0,1,1.1-1.7c.2.1-.5,1.9-.8,4.7a17,17,0,0,0,0,4.5,27.41,27.41,0,0,0,.5,2.8c-.1,0-2.8-5.7-.8-10.3Z"/>
    <path class="a" d="M78.5,18.78a6,6,0,0,0-4.3-2.9H74a4.67,4.67,0,0,1,.5,1,6.53,6.53,0,0,1,.5,2,3,3,0,0,1,1.3,1.2,3.17,3.17,0,0,1,.4,1.6,4.79,4.79,0,0,1-.7,2,11.17,11.17,0,0,1-2.5,2.8c-.8.7-1.5,1.3-2.4,2-.6-.2-1.2-.4-1.9-.6l1.2-1.2a12.84,12.84,0,0,0,2.9-4,7,7,0,0,0,.4-5.5,5.48,5.48,0,0,0-2.8-3c-2.5-1.3-5.8-.5-8.5,1.9-2.7-2.4-6-3.1-8.5-1.9a6.3,6.3,0,0,0-2.8,3,7,7,0,0,0,.3,5.3,12.84,12.84,0,0,0,2.9,4c.4.4.7.8,1.1,1.2-.7.2-1.3.4-1.9.6-.8-.6-1.6-1.3-2.3-1.9a9.52,9.52,0,0,1-2.5-2.8,4.79,4.79,0,0,1-.7-2,2.93,2.93,0,0,1,.4-1.6,3,3,0,0,1,1.3-1.2,4.55,4.55,0,0,1,.5-2,4.67,4.67,0,0,1,.5-1h-.2a6.27,6.27,0,0,0-4.3,2.9,6.3,6.3,0,0,0-.7,3,7.65,7.65,0,0,0,1.1,3.2,13.84,13.84,0,0,0,3,3.4c.4.4.9.7,1.3,1.1a10.93,10.93,0,0,0-1.5.8l2.7,2.9a22.19,22.19,0,0,1,10.1-2.2c6.4,0,9.9,2.2,9.9,2.2l2.9-2.9c-.4-.3-.9-.5-1.4-.8.5-.4.9-.8,1.4-1.2a13.84,13.84,0,0,0,3-3.4,7.65,7.65,0,0,0,1.1-3.2A4.46,4.46,0,0,0,78.5,18.78Zm-24.7,2.8a4.74,4.74,0,0,1-.4-3.5,3.75,3.75,0,0,1,1.6-1.7c1.7-.8,4.4.1,6.4,2.3h0l.2.1h.1l.2.1h.8l.2-.1H63l.2-.1h0c2-2.2,4.7-3.1,6.4-2.3a3.53,3.53,0,0,1,1.5,1.7,4.3,4.3,0,0,1-.4,3.5,10.16,10.16,0,0,1-2.2,3.2c-.8.8-1.6,1.6-2.4,2.3a30.53,30.53,0,0,0-7.4,0c-.8-.7-1.6-1.5-2.4-2.3a11.87,11.87,0,0,1-2.5-3.2Z"/>
    <path class="a" d="M61.3,11.78h.2V12a1.15,1.15,0,1,0,1.9,1.3,1.05,1.05,0,0,0,0-1.3v-.2h.1a1.68,1.68,0,0,0,1.8-1,1.75,1.75,0,0,0-1.8-1h-.2v-.1a1.07,1.07,0,0,0-.3-1.6,1.15,1.15,0,0,0-1.6.3,1.05,1.05,0,0,0,0,1.3v.2h-.2a1.68,1.68,0,0,0-1.8,1A2.08,2.08,0,0,0,61.3,11.78Z"/>
    <polygon class="a" points="61.5 25.98 61.5 24.58 61 24.58 62.4 23.58 63.8 24.58 63.4 24.58 63.4 25.98 65.6 25.98 66.7 23.48 62.4 20.68 58.1 23.48 59.3 25.98 61.5 25.98"/>
    <path class="a" d="M89.6,56.38h0c-2.2-13.5.1-17.4.1-17.4a.78.78,0,0,0-.2-1,.37.37,0,0,0-.3-.1c-15.7-2.3-24.8,2.2-26.9,3.4-2.1-1.2-11.2-5.8-26.9-3.4a.66.66,0,0,0-.5.4.85.85,0,0,0,0,.7s2.3,4,.1,17.4c-2.3,14.1-.1,19.6,0,19.8a25.82,25.82,0,0,0,9.5,11.9c1.5,1,3.1,2.1,4.7,3.2,5.4,3.6,11.6,7.7,12.3,10a.61.61,0,0,0,.9.4c.2-.1.4-.2.4-.4.8-2.3,6.9-6.4,12.3-10,1.6-1.1,3.2-2.1,4.7-3.2a25.82,25.82,0,0,0,9.5-11.9C89.7,76.08,91.9,70.48,89.6,56.38Zm-1.3,19.4a24.61,24.61,0,0,1-9,11.2c-1.5,1-3.1,2.1-4.7,3.2-5.3,3.5-10.3,6.9-12.2,9.5-1.9-2.6-6.9-6-12.2-9.5-1.6-1.1-3.2-2.1-4.7-3.2a24.37,24.37,0,0,1-9-11.3c0-.1-2.2-5.5,0-19.1,1.7-10.6.7-15.6.1-17.5,15.9-2.1,24.4,3,25.4,3.6a1.1,1.1,0,0,0,.8,0c.9-.6,9.5-5.7,25.4-3.6-.6,1.9-1.6,6.8.1,17.5,2.1,13.7,0,19.1,0,19.2Z"/>
    <path class="a" d="M85.3,65.18H62.8V48a.62.62,0,0,0-.4-.6c-.8-.6-7-5.2-18.5-5.2a22.6,22.6,0,0,0-2.6.1.75.75,0,0,0-.7.7h0a56.28,56.28,0,0,1-.9,14.2,64.16,64.16,0,0,0-.9,8.7.68.68,0,0,0,.7.7H62.1v27a.68.68,0,0,0,.7.7c.2,0,.3-.1.5-.2a114.17,114.17,0,0,1,9.8-7c1.6-1,3.2-2.1,4.6-3.1a21.23,21.23,0,0,0,7.6-9.4l.1-.3v-.1a26.5,26.5,0,0,0,.6-8.4A.86.86,0,0,0,85.3,65.18Zm-24,0H40.2a69,69,0,0,1,.9-7.8,64.17,64.17,0,0,0,1-13.8h1.8c10.3,0,16.3,3.9,17.5,4.8l-.1,16.8ZM84,73.88h0l-.1.4A20.05,20.05,0,0,1,76.8,83c-1.5,1-3.1,2.1-4.6,3.1-3.5,2.3-6.4,4.3-8.8,6.1V66.58H84.6a22.58,22.58,0,0,1-.6,7.3Z"/>
    <polygon class="a" points="80.2 46.48 83.3 48.58 83.8 44.88 80.2 46.48"/>
    <polygon class="a" points="79.4 53.68 79.4 59.48 75.2 59.48 74 61.08 81.1 61.08 81.1 51.48 79.4 53.68"/>
    <polygon class="a" points="66.9 46.98 66.9 56.28 68.6 54.08 68.6 48.58 78.9 48.58 80.1 46.98 66.9 46.98"/>
    <polygon class="a" points="69.7 61.08 77.2 50.88 75.8 49.88 67.6 61.08 69.7 61.08"/>
    <polygon class="a" points="73 61.08 82.6 47.98 81.2 46.98 70.8 61.08 73 61.08"/>
    <polygon class="a" points="66.9 60.48 72.5 52.98 71.1 51.98 66.9 57.58 66.9 60.48"/>
    <path class="a" d="M75.3,76.68h0a2.36,2.36,0,0,0-.8-.9,10.09,10.09,0,0,0-1.5-.7,3.38,3.38,0,0,1-1.2-.6,1.22,1.22,0,0,1,0-1.6,1.4,1.4,0,0,1,.9-.3,1.09,1.09,0,0,1,.9.4,1.56,1.56,0,0,1,.3,1.2v.3h1.6v-.3a3.94,3.94,0,0,0-.6-2.1,2.37,2.37,0,0,0-1.5-.9v-1.3H72v1.3a2.75,2.75,0,0,0-1.5.8,2.33,2.33,0,0,0-.6,1.8,3,3,0,0,0,.6,1.8,4.33,4.33,0,0,0,2,1.1,3.38,3.38,0,0,1,1.2.6,1.08,1.08,0,0,1,.3.7.91.91,0,0,1-.4.8,1.69,1.69,0,0,1-1,.3,1.28,1.28,0,0,1-1-.4,1.5,1.5,0,0,1-.4-1.1v-.3H69.6v.2a3.06,3.06,0,0,0,.7,2,2.09,2.09,0,0,0,1.6.8v1.2h1.4v-1.2a2.47,2.47,0,0,0,1.6-.8,2.41,2.41,0,0,0,.7-1.8A1.93,1.93,0,0,0,75.3,76.68Z"/>
    <path class="a" d="M47,53.48h.9c.1,0,.1,0,.1-.1h0a5.07,5.07,0,0,1,.7-1.5A4.36,4.36,0,0,1,52,50a4.76,4.76,0,0,1,2.6.4l.2.1-.4,1.7c-.3-.1-.6-.2-1-.3a3.3,3.3,0,0,0-1.4,0,2.3,2.3,0,0,0-1.6,1.7H54v1.1H50.1v.7H54v1.1H50.3a2,2,0,0,0,1.5,1.7,3.62,3.62,0,0,0,2.5-.2l.1-.1.2,1.1a4.33,4.33,0,0,1,.1.5c0,.1,0,.1-.1.2h0a7.49,7.49,0,0,1-1.6.5,4.56,4.56,0,0,1-5.1-3.5.1.1,0,0,0-.1-.1H47v-1h.8v-.8H47v-1.3Z"/>
    <path class="a" d="M52,79.08l-.4.1c-.1.1-.2,0-.3-.1V79c0-.2-.1-.1-.2-.1a4.18,4.18,0,0,0-1,.4h-.3a3.84,3.84,0,0,1-1.1-1.1,1.08,1.08,0,0,1-.2-.8,2,2,0,0,1,.1-.8.78.78,0,0,1,.4-.4,2.7,2.7,0,0,0,.7-.8.49.49,0,0,1,.6-.3,1.42,1.42,0,0,0,.6-.2,1.7,1.7,0,0,1,.7-.1h.5a.6.6,0,0,1,.1.4.27.27,0,0,0,.3.3,2,2,0,0,0,1.1,0h.1l.7.2a1.67,1.67,0,0,1,1.1.9c.1.2.1.4.2.5a2.51,2.51,0,0,0,.4.7c.1.2.3.4.4.6s.2.2.4.2h.3a.76.76,0,0,1-.2.4c-.2.3-.5.6-.7.9a1.37,1.37,0,0,0-.4,1.2.67.67,0,0,1-.3.8l-.3.3a.62.62,0,0,0-.2.7c0,.1,0,.1-.1.2s-.3.4-.5.5a2.51,2.51,0,0,1-.7.4,2,2,0,0,1-.8.1V84a3.08,3.08,0,0,0-.3-1.3.22.22,0,0,0-.2-.2.47.47,0,0,1-.1-.6,1.67,1.67,0,0,0,.1-1.2c0-.2-.1-.3-.3-.4s-.2-.2-.2-.3A2.7,2.7,0,0,0,52,79.08Z"/>
    <path class="a" d="M59.4,78.08c-.1-.2-.1-.4-.3-.6a1.89,1.89,0,0,0-1.3-1c-.1,0-.2-.1-.3-.2s-.3-.2-.4-.3c.2.2.1.6.5.6.2,0,.4.2.5.5,0,.1,0,.1-.1.2L57,78c-.1,0-.1.1-.2.1s-.3,0-.4-.2h0a.52.52,0,0,0-.2-.4c-.4-.5-.7-1.1-1.1-1.6l.2-.1v-.6l-.2.1c-.2.1-.2.1-.4-.1a2.19,2.19,0,0,1-.3-.5c-.1-.1,0-.2.1-.3h0a1.8,1.8,0,0,1,1-.2h.4c0-.1,0-.2-.1-.2s-.3-.2-.5-.3l.2-.2v-.1h-.4c-.1,0-.2.1-.4.1a.55.55,0,0,0-.3.5c0,.1,0,.1-.1.2a1.27,1.27,0,0,1-.6.1c-.1,0-.2,0-.2.2h0c-.1-.1-.1-.2-.2-.3s-.2-.4-.4-.4l-.6-.3h-.1c0,.1.1.2.1.3s.3.3.4.5v.1h-.4c0-.1-.1-.3-.2-.3h0A.1.1,0,0,1,52,74a.62.62,0,0,0-.7-.1,1.78,1.78,0,0,0-.8.7.61.61,0,0,1-.7.3c-.5-.1-.5-.1-.5-.5V74a.1.1,0,0,1,.1-.1.6.6,0,0,0,.4-.1c.1-.1.3-.2.4-.3v-.1a.19.19,0,0,1,.1-.3h.1a3.33,3.33,0,0,0,1-.6c.1-.2.3-.2.5-.1l.1.1.2.1c.1.1.2.1.4.1s.3-.2.3-.4-.1-.3-.1-.4c-.1.1-.2.3-.3.4s-.1.1-.2.1-.3-.1-.4-.1a.43.43,0,0,0-.4-.4h-.2c0-.2.1-.5.3-.5l1-.3h.2a2.85,2.85,0,0,0,1.3,0,.55.55,0,0,1,.5.3c.1.2.3.2.5.2s.2-.1.4,0a7.44,7.44,0,0,1,3.4,5.5c.4-.1.4.4.5,1Z"/>
    <path class="a" d="M43.9,79.38c.4.3.9.6,1.3.9.1.1.2.3.3.4a1.14,1.14,0,0,0,.8.7,2.09,2.09,0,0,1,.6.4.37.37,0,0,1,.1.3c0,.2-.1.3-.1.4a.64.64,0,0,0,0,.6c0,.1,0,.1-.1.2a.49.49,0,0,1-.7-.1,8.18,8.18,0,0,1-2.1-3.6v-.1A.1.1,0,0,1,43.9,79.38Z"/>
    <path class="a" d="M44.5,74.68l.3-.1a.31.31,0,0,0-.1.2,5.58,5.58,0,0,1-.5.8,2.2,2.2,0,0,0-.4,1.3.6.6,0,0,1-.1.4,7.2,7.2,0,0,1,1.6-4.4v.3c0,.1.1.2.1.3s0,.4-.2.4a2.18,2.18,0,0,0-.5.4C44.6,74.58,44.6,74.68,44.5,74.68Z"/>
    <path class="a" d="M46.1,72c0-.1,0-.1.1-.2a6.08,6.08,0,0,1,2.4-1.5h0c-.1.1-.1.2-.2.2a2.84,2.84,0,0,0-1,.9,1.34,1.34,0,0,1-.7.6h-.6Z"/>
    <path class="a" d="M57.1,81v.5a1.42,1.42,0,0,1-.2.6,1.47,1.47,0,0,1-.5.6l-.1.1-.1-.1v-.3c.1-.2.1-.4.2-.6s.1-.1.1-.2a.78.78,0,0,0,.4-.4c0-.1,0-.1.2-.2Z"/>
    <path class="a" d="M50.9,72.28a1.14,1.14,0,0,1-.8.3v-.3l-.3.2c-.2-.1-.1-.3,0-.4l.3.1v-.4c0-.1,0-.1.1-.2s.2-.1.3.1A2.09,2.09,0,0,0,50.9,72.28Z"/>
    <rect class="a" y="108.18" width="46.6" height="0.9"/>
    <rect class="a" x="78.2" y="108.18" width="46.6" height="0.9"/>
  </g>
</svg>
