<svg xmlns="http://www.w3.org/2000/svg" viewBox="0 0 150.96 50" class="svg-epay">
  <defs>
    <style>
      .svg-epay .a {
        fill: #ff2e52;
      }
    </style>
  </defs>
  <title>ePay</title>
  <g>
    <g>
      <path class="a" d="M34.41,9.29v.22l-1.58,2.82-.22.45h.11l3.51-.91h.22l2.36,2.59.11.11v-.11c.11-1.24.11-2.36.22-3.6,0-.11,0-.11.11-.11l3.27-1.46.11-.11L42.19,9,39.25,7.82a.11.11,0,0,1-.11-.11h0a20,20,0,0,1-.56-3.6V4l-.11.11L36.23,6.93c0,.11-.11.11-.22.11l-.78-.22-2.14-.45-.67-.11.11.11Z"/>
      <path class="a" d="M24.83,11.09a.11.11,0,0,1,.11.11h0c.11,1,.22,2.14.34,3.27l.11.45.11-.11L27.76,12c0-.11.11-.11.22-.11l3.49.67h.11v-.12l-2-2.93V9.29l1.69-3.15.1-.13-.56.11-3,.78h-.22l-2.5-2.57L25,4.22v.12c-.11,1.24-.11,2.36-.22,3.6,0,.11,0,.11-.11.11l-.78.34-1.91.91-.45.56h.11Z"/>
      <path class="a" d="M46.29,17.51l3.49.67h.11l-.22-.45L48,15.07v-.22l1.8-3.15v-.15h-.12l-3.49,1H46L45.44,12,44,10.42l-.45-.56V10c-.11,1.24-.11,2.36-.22,3.6,0,.11,0,.11-.11.11l-3,1.35-.45.22h.11L43.1,16.6a.11.11,0,0,1,.11.11h0c.11,1.24.22,2.36.34,3.6v.11l.11-.11,2.25-2.82Z"/>
    </g>
    <g>
      <polygon class="a" points="122.91 19.54 119.42 19.54 119.09 22.7 122.58 22.7 122.91 19.54"/>
      <path class="a" d="M7.38,24.27A7.23,7.23,0,0,0,.06,30.8c-.45,3.82,1.91,6.53,6,6.53A8.12,8.12,0,0,0,10.6,36a6.37,6.37,0,0,0,.34-2.93,9,9,0,0,1-4.13,1.24A2.9,2.9,0,0,1,3.67,31.7v-.45h8.67C13.35,28.55,12.22,24.27,7.38,24.27ZM4.11,29.45a3,3,0,0,1,3-2.36,1.94,1.94,0,0,1,2.14,1.73v.64Z"/>
      <path class="a" d="M24.61,17.17H17.17L14.93,36.89a11.58,11.58,0,0,0,3.94,0l.78-6.64h3.6c4.51,0,7.66-2.71,8.11-6.53C31.59,19.88,29.12,17.17,24.61,17.17Zm2.57,6.42a3.51,3.51,0,0,1-3.71,3.27H20l.78-6.53h3.49a2.76,2.76,0,0,1,3,2.36,2.8,2.8,0,0,0-.11.91Z"/>
      <path class="a" d="M54.79,24.72l-3.94,7.2-2.25-7.2a10.3,10.3,0,0,0-3.71,0L48.7,35.87l-3.41,6a9.69,9.69,0,0,0,3.6,0l9.68-17A8.85,8.85,0,0,0,54.79,24.72Z"/>
      <path class="a" d="M68,20a8.87,8.87,0,0,1,5.18,2.12,8.46,8.46,0,0,0,.45-3.71,9.32,9.32,0,0,0-5.4-1.69c-4.51,0-7.2,2.82-7.55,6-.45,3.6,2.36,5,5,5.86,2.82.91,3.94,1.35,3.82,3C69.31,33,68.07,34,65.93,34a10.54,10.54,0,0,1-5.64-2.14,10.84,10.84,0,0,0-.45,3.82A10.49,10.49,0,0,0,65.7,37.4c3.94,0,7.32-2.14,7.77-6s-2.48-5.18-5-6c-2.71-.91-3.94-1.35-3.71-2.93A2.89,2.89,0,0,1,68,20Z"/>
      <path class="a" d="M86.77,33.05a9,9,0,0,1-4.17,1.24,2.9,2.9,0,0,1-3.15-2.59v-.45h8.67c1.13-2.82-.11-7-4.84-7A7.23,7.23,0,0,0,76,30.8c-.45,3.82,1.91,6.53,6,6.53A8.12,8.12,0,0,0,86.55,36,8.38,8.38,0,0,0,86.77,33.05Zm-3.94-6A1.94,1.94,0,0,1,85,28.74v.64H79.78a3.14,3.14,0,0,1,3-2.36Z"/>
      <path class="a" d="M98.7,24.27A5.27,5.27,0,0,0,94.54,27l-.11-2.25a6.92,6.92,0,0,0-3,0L90,36.89a9.69,9.69,0,0,0,3.6,0l.78-7a4.45,4.45,0,0,1,3.49-2.25,3.93,3.93,0,0,1,2.48.91,9.92,9.92,0,0,0,.45-3.6A3.7,3.7,0,0,0,98.7,24.27Z"/>
      <path class="a" d="M109.18,36.89,116,24.72a10.3,10.3,0,0,0-3.71,0l-3.94,7.46-2.25-7.44a10.3,10.3,0,0,0-3.71,0l3.94,12.17A6,6,0,0,0,109.18,36.89Z"/>
      <path class="a" d="M122.35,24.72h-3.6L117.4,36.89a9.69,9.69,0,0,0,3.6,0Z"/>
      <path class="a" d="M135.42,33.05a8.51,8.51,0,0,1-3.94,1.24,3,3,0,0,1-3.27-2.71V30.8a3.86,3.86,0,0,1,4-3.49,6.6,6.6,0,0,1,3.62,1.25,6.37,6.37,0,0,0,.34-2.93,5.72,5.72,0,0,0-1.8-1l.11-1.46h-3.6l-.08,1.23a7.18,7.18,0,0,0-6.19,6.42,5.4,5.4,0,0,0,4.33,6.3H129c.22,0,.45.11.67.11l-.11,1.24h3.6l.11-1.58A6.18,6.18,0,0,0,135,36,3.82,3.82,0,0,0,135.42,33.05Z"/>
      <path class="a" d="M145.66,24.27a7.23,7.23,0,0,0-7.32,6.53c-.45,3.82,1.91,6.53,6,6.53A8.12,8.12,0,0,0,148.93,36a6.37,6.37,0,0,0,.34-2.93,9,9,0,0,1-4.17,1.24A2.9,2.9,0,0,1,142,31.7v-.45h8.67C151.63,28.55,150.39,24.27,145.66,24.27Zm-3.38,5.18a3,3,0,0,1,3-2.36,1.94,1.94,0,0,1,2.14,1.73v.64Z"/>
      <path class="a" d="M37.45,24.27a9.77,9.77,0,0,0-4.73,1.13,6.37,6.37,0,0,0-.34,2.93,8.35,8.35,0,0,1,3.94-1.13c1.91,0,2.71.78,2.59,2.48l-.11,1a4.58,4.58,0,0,0-3.38-1.13,4.59,4.59,0,0,0-4.84,3.94C30.23,36,32,37.44,34.4,37.44A5.31,5.31,0,0,0,38,36.09L38.24,34a6.52,6.52,0,0,1-2.36.78,1.32,1.32,0,0,1-1.56-1l0-.11v-.43a1.75,1.75,0,0,1,1.93-1.48c1,0,2.36.22,2.82.91,0,.34-.34,4.28-.34,4.28a6.92,6.92,0,0,0,3,0L42.51,30C43,26.41,41.5,24.27,37.45,24.27Z"/>
    </g>
    <g>
      <path class="a" d="M67.29,39.58c-.22,0-.56.22-.56.45s.11.45.34.45h.11a.74.74,0,0,0,.56-.45c0-.22-.11-.45-.34-.45Z"/>
      <path class="a" d="M94,39.58c-.22,0-.56.22-.56.45s.11.45.34.45h.11a.74.74,0,0,0,.56-.45c0-.22-.11-.45-.34-.45Z"/>
      <path class="a" d="M131.93,39.58c-.22,0-.56.22-.56.45s.11.45.34.45h.12a.74.74,0,0,0,.56-.45c0-.22-.11-.45-.34-.45Z"/>
      <path class="a" d="M59.74,45.78a1,1,0,0,0,.78,0l.45-3h3.43a1.43,1.43,0,0,0,.11-.67H61.1l.29-2.39H65.1a1.43,1.43,0,0,0,.11-.67H60.75Z"/>
      <path class="a" d="M66.61,41.61l-.67,4.17a.71.71,0,0,0,.67,0l.67-4.17A.71.71,0,0,0,66.61,41.61Z"/>
      <path class="a" d="M71.9,41.49a3,3,0,0,0-1.69.78l.11-.67a.71.71,0,0,0-.67,0L69,45.77a.71.71,0,0,0,.67,0l.56-2.93a2.23,2.23,0,0,1,1.46-.67,1.08,1.08,0,0,1,1,.78v.45l-.56,2.36a.71.71,0,0,0,.67,0l.45-2.59a1.33,1.33,0,0,0-.67-1.69A.71.71,0,0,0,71.9,41.49Z"/>
      <path class="a" d="M77.42,41.49a2.59,2.59,0,0,0-1.58.45,1.23,1.23,0,0,0-.11.56,2.26,2.26,0,0,1,1.46-.45.93.93,0,0,1,1.11.69l0,.09v.45l-.11.56a2.37,2.37,0,0,0-1.46-.56,1.68,1.68,0,0,0-1.8,1.35A1.17,1.17,0,0,0,75.85,46h.34a2.29,2.29,0,0,0,1.69-.67v.45a.71.71,0,0,0,.67,0l.34-2.48a1.39,1.39,0,0,0-.83-1.78l-.07,0A.5.5,0,0,0,77.42,41.49ZM78,44.76a2.37,2.37,0,0,1-1.46.56.77.77,0,0,1-.91-.56v-.22a1.12,1.12,0,0,1,1.13-.78,2.07,2.07,0,0,1,1.35.56Z"/>
      <path class="a" d="M83.62,41.49a3,3,0,0,0-1.69.78L82,41.6a.71.71,0,0,0-.67,0l-.67,4.17a.71.71,0,0,0,.67,0l.45-2.93a2.23,2.23,0,0,1,1.46-.67,1.08,1.08,0,0,1,1,.78v.45l-.45,2.48a.71.71,0,0,0,.67,0L85,43.3a1.22,1.22,0,0,0-.73-1.56l-.06,0C83.95,41.49,83.84,41.38,83.62,41.49Z"/>
      <path class="a" d="M89.47,41.49a2.68,2.68,0,0,0-2.71,2.25A1.73,1.73,0,0,0,88,45.86l.12,0c.22,0,.34.11.56,0a2.59,2.59,0,0,0,1.58-.45,1.43,1.43,0,0,0,.11-.67,2.26,2.26,0,0,1-1.46.45,1.36,1.36,0,0,1-1.46-1.13v-.45a1.94,1.94,0,0,1,1.91-1.58,2,2,0,0,1,1.35.45,1.43,1.43,0,0,0,.11-.67A1.89,1.89,0,0,0,89.47,41.49Z"/>
      <path class="a" d="M93.3,41.61l-.71,4.17a.71.71,0,0,0,.67,0l.67-4.17A.71.71,0,0,0,93.3,41.61Z"/>
      <path class="a" d="M98,41.49a2.59,2.59,0,0,0-1.58.45,1.23,1.23,0,0,0-.11.56,2.26,2.26,0,0,1,1.46-.45,1,1,0,0,1,1.13.67v.45l-.11.56a2.37,2.37,0,0,0-1.46-.56,1.68,1.68,0,0,0-1.75,1.36,1.17,1.17,0,0,0,.91,1.35h.34a2.29,2.29,0,0,0,1.63-.63v.45a.71.71,0,0,0,.67,0l.34-2.48a1.39,1.39,0,0,0-.83-1.78l-.07,0A1.23,1.23,0,0,0,98,41.49Zm.59,3.27a2.37,2.37,0,0,1-1.46.56.77.77,0,0,1-.91-.56v-.22a1.12,1.12,0,0,1,1.13-.78,2.07,2.07,0,0,1,1.35.56Z"/>
      <path class="a" d="M102.42,39l-1,6.64a.71.71,0,0,0,.67,0l1-6.64Z"/>
      <path class="a" d="M110.41,38.91a2.32,2.32,0,0,0-2.48,1.8c-.22,1.13.67,1.58,1.69,1.91s1.69.56,1.58,1.35a1.69,1.69,0,0,1-1.69,1.29,3.19,3.19,0,0,1-1.91-.78,1.67,1.67,0,0,0-.11.78,3,3,0,0,0,1.91.67A2.36,2.36,0,0,0,112,44c.22-1.24-.67-1.69-1.69-2s-1.69-.56-1.46-1.35a1.44,1.44,0,0,1,1.58-1.13,2.56,2.56,0,0,1,1.8.67,1.67,1.67,0,0,0,.11-.78A3.7,3.7,0,0,0,110.41,38.91Z"/>
      <path class="a" d="M116.38,41.49a2.65,2.65,0,0,0-2.59,2.25A1.8,1.8,0,0,0,115,45.89c.22,0,.45.11.67,0a2.59,2.59,0,0,0,1.58-.45,1.43,1.43,0,0,0,.11-.67,2.48,2.48,0,0,1-1.46.45,1.36,1.36,0,0,1-1.46-1.13v-.45h3.38a1.66,1.66,0,0,0-.78-2.14A1.29,1.29,0,0,0,116.38,41.49Zm1.13,1.8h-2.79a1.79,1.79,0,0,1,1.69-1.35,1.11,1.11,0,0,1,1.13,1v.34Z"/>
      <path class="a" d="M122.58,41.49a2.67,2.67,0,0,0-1.69,1l.11-.78a.71.71,0,0,0-.67,0l-.67,4.17a.71.71,0,0,0,.67,0l.45-2.71a2.51,2.51,0,0,1,1.46-.91,2.65,2.65,0,0,1,.91.22,1.43,1.43,0,0,0,.11-.67A.67.67,0,0,0,122.58,41.49Z"/>
      <path class="a" d="M128.55,41.61l-1.91,3.15-.91-3.15a1,1,0,0,0-.78,0l1.24,4.17a.71.71,0,0,0,.67,0l2.59-4.17A1.21,1.21,0,0,0,128.55,41.61Z"/>
      <path class="a" d="M131.13,41.61l-.67,4.17a.71.71,0,0,0,.67,0l.67-4.17A.7.7,0,0,0,131.13,41.61Z"/>
      <path class="a" d="M136.43,41.49a2.68,2.68,0,0,0-2.71,2.25,1.73,1.73,0,0,0,1.23,2.12l.12,0c.22,0,.34.11.56,0a2.59,2.59,0,0,0,1.58-.45,1.43,1.43,0,0,0,.11-.67,2.26,2.26,0,0,1-1.47.49,1.36,1.36,0,0,1-1.46-1.13v-.45a1.94,1.94,0,0,1,1.91-1.58,2,2,0,0,1,1.35.45,1.43,1.43,0,0,0,.11-.67A2,2,0,0,0,136.43,41.49Z"/>
      <path class="a" d="M142.06,41.49a2.65,2.65,0,0,0-2.59,2.25,1.8,1.8,0,0,0,1.24,2.14c.22,0,.45.11.67,0a2.59,2.59,0,0,0,1.58-.45,1.43,1.43,0,0,0,.11-.67,2.48,2.48,0,0,1-1.46.45,1.36,1.36,0,0,1-1.46-1.13v-.45h3.38a1.66,1.66,0,0,0-.78-2.14C142.63,41.49,142.28,41.38,142.06,41.49Zm1,1.8h-2.82a1.79,1.79,0,0,1,1.69-1.35,1.11,1.11,0,0,1,1.13,1v.34Z"/>
      <path class="a" d="M147.35,41.49a1.7,1.7,0,0,0-1.8,1.24c-.11.67.45,1,1.24,1.24s1,.34,1,.78a1,1,0,0,1-1,.67,2.76,2.76,0,0,1-1.35-.45,1,1,0,0,0-.11.56,2.26,2.26,0,0,0,1.46.45,1.7,1.7,0,0,0,1.8-1.24c.11-.67-.45-1-1.24-1.24s-1-.34-1-.78a1,1,0,0,1,1-.67,3.2,3.2,0,0,1,1.35.45,1,1,0,0,0,.11-.56A2,2,0,0,0,147.35,41.49Z"/>
    </g>
  </g>
</svg>
