<svg xmlns="http://www.w3.org/2000/svg" viewBox="0 0 142.57 50" class="svg-epayments">
  <defs>
    <style>
      .svg-epayments .a {
        fill: #ff2e52;
      }
    </style>
  </defs>
  <title>ePayments</title>
  <g>
    <path class="a" d="M85,30.12H81.82c0-.23-.11-.45-.11-.79V22.16c-.11-1.8-1-2.47-2.85-2.36-1.35.11-1.35.11-1.35,1.57v8.75H74.65V18.72a.66.66,0,0,1,.5-.78h.17a13.36,13.36,0,0,1,5.95-.33,4,4,0,0,1,1.24.45A1.72,1.72,0,0,0,84.29,18a7.13,7.13,0,0,1,4-.56c2.13.23,3.25,1.45,3.59,3.7.11,1.24.11,2.36.11,3.59v5.16c0,.11,0,.11-.11.23H89.07v-7a2.47,2.47,0,0,0-.11-.89,2.69,2.69,0,0,0-2.69-2.47,2.21,2.21,0,0,0-1.57.67,1.6,1.6,0,0,0-.23.67C84.74,24,84.85,27,85,30.12Z"/>
    <path class="a" d="M37.76,30v4.6H34.85V18.68a.64.64,0,0,1,.44-.79h.24c1.57-.11,3.25-.45,4.83-.45,4.6.11,6.28,3.8,5.95,7.29a17.93,17.93,0,0,1-.56,2.36,5.14,5.14,0,0,1-5.39,3.36A20.7,20.7,0,0,0,37.76,30Zm0-10.2v6.05c0,1.45,0,1.45,1.45,1.8A2.91,2.91,0,0,0,42.91,26a1.43,1.43,0,0,0,.11-.67,5.93,5.93,0,0,0,0-2.85,3,3,0,0,0-3-2.69Z"/>
    <path class="a" d="M105.26,27.32l.45,2.36c-2.69.89-5.39,1.23-8-.23a5.43,5.43,0,0,1-2.72-4c-.23-2.13-.23-4.27,1.24-6.05a5.7,5.7,0,0,1,6.05-1.9,4.65,4.65,0,0,1,3.8,3.92,33.32,33.32,0,0,1,.23,3.36H98a3,3,0,0,0,2,2.92,8.2,8.2,0,0,0,4,0Zm-7.17-4.83h5.39a2.72,2.72,0,0,0-2.24-2.92H101A3,3,0,0,0,98.09,22.49Z"/>
    <path class="a" d="M72.3,17.56a16.76,16.76,0,0,1-.79,2.85c-1.12,3.14-2.24,6.17-3.36,9.2A20.9,20.9,0,0,1,67,31.85c-1.45,2.85-4.37,3.25-7,2.24L60.63,32c.67,0,1.45.11,2.13.11a2.62,2.62,0,0,0,2.47-1.9,1.06,1.06,0,0,0-.23-.79,56,56,0,0,1-3.92-9.64c-.23-.67-.33-1.35-.56-2.13H63.2a1.12,1.12,0,0,1,.45.56c.79,2.36,1.57,4.75,2.36,7a2.91,2.91,0,0,0,.79,1.23c.45-1.23.89-2.47,1.24-3.7.45-1.45.79-3,1.24-4.6a.63.63,0,0,1,.67-.56h.11A12.92,12.92,0,0,0,72.3,17.56Z"/>
    <path class="a" d="M55.81,22.6c.11-2-1.12-3.14-3.13-2.92L49.83,20l-.4-2.23a12.64,12.64,0,0,1,4.6-.56,4.75,4.75,0,0,1,1.23.23,3.9,3.9,0,0,1,3.25,4v7.73a.62.62,0,0,1-.33.56,17.7,17.7,0,0,1-7.29.23,3.8,3.8,0,0,1-.33-7.17,10.85,10.85,0,0,1,4.27-.45Zm0,5.27V25a.36.36,0,0,0-.33-.33,25.35,25.35,0,0,0-2.92.11,1.4,1.4,0,0,0-1.24,1.54v.14a1.42,1.42,0,0,0,1.38,1.45h.08A27.26,27.26,0,0,0,55.81,27.88Z"/>
    <path class="a" d="M112.55,30h-2.92V18.45c-.11-.23.11-.56.33-.67h.11a23.21,23.21,0,0,1,5.61-.45c2.85.23,4.27,1.45,4.48,4.27s0,5.49,0,8.29h-2.91v-7.4c-.23-2.13-1-2.92-3.14-2.85-.45,0-.89.11-1.45.11L112.56,30Z"/>
    <path class="a" d="M133,29.67l.56-2.47a9.7,9.7,0,0,0,4.37.67c.23,0,.56-.11.79-.11a1,1,0,0,0,.69-1.31v0A1.55,1.55,0,0,0,139,26a2.67,2.67,0,0,0-1.24-.67c-.79-.33-1.57-.56-2.24-.89a3.53,3.53,0,0,1-2.36-3.8c.23-1.68,1.35-2.69,3.25-3a11.93,11.93,0,0,1,5.27.45l-.45,2.13-2.13-.33h-1.8a1.2,1.2,0,0,0-1.12,1,1.06,1.06,0,0,0,.67,1.12c.67.33,1.35.67,2.13,1a14.15,14.15,0,0,1,1.8.79,3.32,3.32,0,0,1,1.72,3.45,3.13,3.13,0,0,1-2.24,2.85A11.57,11.57,0,0,1,133,29.67Z"/>
    <path class="a" d="M123.42,14.19l2.85-.33v3.71h4.6v2.33h-3.92c-.23-.11-.56.11-.67.33v.33c0,1.8,0,3.59.11,5.39a1.77,1.77,0,0,0,1.63,1.9h.5l2.47-.33a2.11,2.11,0,0,0,.14.93c.23,1.35.23,1.35-1.12,1.68a6.55,6.55,0,0,1-4.83-.45,3,3,0,0,1-1.57-2.24,12.35,12.35,0,0,1-.23-2V14.19Z"/>
    <g>
      <path class="a" d="M9.17,13.3a33.91,33.91,0,0,0-3.44,3.47A12.89,12.89,0,0,0,4,29.89c2.13,5.49,6.17,8.64,12,9.64a17.62,17.62,0,0,0,5.95,0h.45v.23c-1,.11-2.13.33-3.25.56a17,17,0,0,1-8.55-.79A15.46,15.46,0,0,1,.15,26.75c-.85-5.38,1.95-10,6.77-12.56A8.47,8.47,0,0,0,9.17,13.3Z"/>
      <path class="a" d="M2.44,16.89A15,15,0,0,1,13,9.71a15.66,15.66,0,0,1,8.19.67,12.23,12.23,0,0,1,8.31,11.54A11.67,11.67,0,0,1,21.4,32.69h-.23a2.35,2.35,0,0,1,.7-.46A13.37,13.37,0,0,0,27.48,21a8.92,8.92,0,0,0-3.36-6.65,11.56,11.56,0,0,0-8-2.85,17.78,17.78,0,0,0-13.5,5.14Z"/>
      <path class="a" d="M22.62,18.45c-3.25-1.12-6.17-.67-8.29,2s-1.68,5.39,0,8.08c-3.92-1-6.39-4-6.17-7.29a4.07,4.07,0,0,1,.79-1.9,8.67,8.67,0,0,1,7.39-3.27A9.73,9.73,0,0,1,22,18C22.17,18,22.39,18.23,22.62,18.45Z"/>
      <path class="a" d="M25.31,27.2c-2.24,3.8-5.39,6.39-10,6.28a8.79,8.79,0,0,1-8.55-8.75,6,6,0,0,1,.45-2.47c.89,4.37,3.92,6.39,8.07,7.29A10.29,10.29,0,0,0,22.59,29C23.52,28.44,24.3,27.76,25.31,27.2Z"/>
      <path class="a" d="M13.87,24c.67-.11,1.35-.11,2-.23a2.63,2.63,0,0,0,2.36-2,1.76,1.76,0,0,0-.67-2l-.67-.45c1.9-.89,4.75-.79,6.17.67a2.61,2.61,0,0,1,.72,2.91A5.3,5.3,0,0,1,19,26.42a6.09,6.09,0,0,1-3.92-1,7.72,7.72,0,0,1-1.45-1.24Z"/>
      <path class="a" d="M28.34,33.19a14,14,0,0,1-.45,1.8,5.12,5.12,0,0,1-3.36,3.25A16.61,16.61,0,0,1,9.05,36c-.11-.11-.33-.23-.45-.33v-.11C15.67,39.2,22.17,38.08,28.34,33.19Z"/>
    </g>
  </g>
</svg>
