<svg xmlns="http://www.w3.org/2000/svg" viewBox="0 0 97.02 50" class="svg-paypal">
  <defs>
    <style>
      .svg-paypal .a {
        fill: #ff2e52;
      }
    </style>
  </defs>
  <title>PayPal</title>
  <g>
    <g>
      <path class="a" d="M8.47,12.5c1.29,0,2.65.1,3.91.1a7.37,7.37,0,0,1,2.65.54A4.2,4.2,0,0,1,18,17a6,6,0,0,1-1.48,4.76,9.56,9.56,0,0,1-3.18,2.22,14.51,14.51,0,0,1-5.17,1h-1A1.37,1.37,0,0,0,5.74,26l-1,3.9a1.29,1.29,0,0,1-1.38,1.06H1a.82.82,0,0,1-1-.65v-.42l.85-3.6L3.71,13.8a1.46,1.46,0,0,1,1.37-1.19Zm0,9h0a6.16,6.16,0,0,0,2-.32,2.92,2.92,0,0,0,2.46-2.65,1.94,1.94,0,0,0-1.28-2.43h-.23A6.2,6.2,0,0,0,9,16a1.24,1.24,0,0,0-1.16,1l-.42,1.38c-.1.65-.32,1.29-.42,1.9a.92.92,0,0,0,.53,1.06c.1,0,.21.1.32,0l.65.1Z"/>
      <path class="a" d="M50.68,31H49.38a.9.9,0,0,1-.85-.74v-.21l1.8-7.72c.65-2.86,1.29-5.61,1.9-8.47a1.4,1.4,0,0,1,1.51-1.16h6a12.63,12.63,0,0,1,3.91.65,4.07,4.07,0,0,1,2.75,3.07,6.13,6.13,0,0,1-2.33,6.35,10.26,10.26,0,0,1-4.23,1.9,14.31,14.31,0,0,1-4.26.31A1.42,1.42,0,0,0,54,26.23v.15c-.32,1.16-.53,2.43-.85,3.6A1.37,1.37,0,0,1,51.82,31Zm6.14-9.42h0a13,13,0,0,0,2.12-.21,3,3,0,0,0,2.52-2.75,2,2,0,0,0-1.38-2.33H60a9.89,9.89,0,0,0-2.4-.21,1.25,1.25,0,0,0-1.29,1.06c-.32,1.16-.53,2.33-.85,3.49A.92.92,0,0,0,56,21.71h.32l.53-.1Z"/>
      <path class="a" d="M34.93,37.47H33.43c-.21,0-.53-.1-.53-.42v-.21a.8.8,0,0,1,.21-.4c.65-1.16,1.38-2.43,2-3.6a2.45,2.45,0,0,0,.32-1.69c-.32-2.33-.74-4.66-1.16-6.88S33.54,20,33.22,18a.76.76,0,0,1,.45-1l.08,0H36.5a1.46,1.46,0,0,1,1.38,1.16c.32,2,.65,4,1,6.14,0,.21.1.53.1.74s.1.21.21.32c.1-.1.21-.1.32-.21.53-.85,1-1.58,1.38-2.43.85-1.48,1.8-3.07,2.65-4.53A2.13,2.13,0,0,1,45.6,17h2.86c.42,0,.53.21.42.53a5.17,5.17,0,0,1-.32.76c-3.6,6-7.11,12.06-10.69,18.11a2.05,2.05,0,0,1-1.8,1.06Z"/>
      <path class="a" d="M25.61,29.43l-.65.42a7.39,7.39,0,0,1-3.06,1.41,5.25,5.25,0,0,1-2.86-.1,3.39,3.39,0,0,1-2.43-3.71,4.61,4.61,0,0,1,1.16-2.86A6.89,6.89,0,0,1,20.21,23a13.58,13.58,0,0,1,3.6-.8l3.07-.32a.54.54,0,0,0,.53-.42v-.1a1.2,1.2,0,0,0-1-1.37h-.07a7.67,7.67,0,0,0-3.05-.18,10,10,0,0,0-3.07.74c-.53.21-.74,0-.65-.53s.32-1.29.42-1.9a1.14,1.14,0,0,1,1.06-.85,26.12,26.12,0,0,1,5.71-.53,10.39,10.39,0,0,1,3.07.53,4.44,4.44,0,0,1,1.48,1A2.79,2.79,0,0,1,32,20.45a9.7,9.7,0,0,1-.53,3c-.53,2.22-1.06,4.34-1.48,6.56A1.37,1.37,0,0,1,28.57,31H26.45a1,1,0,0,1-1-.74V30Zm-2.44-1a4.73,4.73,0,0,0,2.65-1,1.05,1.05,0,0,0,.42-.53,18.43,18.43,0,0,0,.53-2.33c0-.21,0-.32-.21-.21-.42,0-.85.1-1.29.1a17.94,17.94,0,0,0-2.33.42,1.94,1.94,0,0,0-1.58,2,1.1,1.1,0,0,0,.85,1.29,2.12,2.12,0,0,0,1,.21Z"/>
      <path class="a" d="M74.06,29.54l-1,.65a6,6,0,0,1-3,1.16,5,5,0,0,1-3.49-.53A3.29,3.29,0,0,1,65.07,28a4.68,4.68,0,0,1,3.28-4.76,12.23,12.23,0,0,1,3.38-.85c1.29-.1,2.43-.32,3.71-.42a.45.45,0,0,0,.42-.42,1.37,1.37,0,0,0-1-1.48,10.43,10.43,0,0,0-2.54-.32,14.38,14.38,0,0,0-3.71.74c-.1,0-.21,0-.21.1-.32,0-.42-.1-.42-.32a5.36,5.36,0,0,0,.21-1.38c0-.1.1-.32.1-.42a1.58,1.58,0,0,1,1.29-1.29,21.3,21.3,0,0,1,5.82-.42,7.11,7.11,0,0,1,3,.65,3,3,0,0,1,1.88,2.17,5.77,5.77,0,0,1-.1,2.33c-.65,2.65-1.29,5.29-1.8,7.94a1.41,1.41,0,0,1-1.48,1.06h-2a.82.82,0,0,1-.94-.68v-.49c.1,0,.1-.1.1-.21Zm-4.34-2.43a1.09,1.09,0,0,0,.87,1.28h.08A4.42,4.42,0,0,0,73.74,28,1.73,1.73,0,0,0,74.9,26.6c.1-.65.32-1.29.42-1.9,0-.21,0-.32-.21-.21-.42,0-.85.1-1.16.1a19.53,19.53,0,0,0-2.43.42,2.15,2.15,0,0,0-1.8,2.12Z"/>
      <path class="a" d="M82.95,30.91H81.57a.65.65,0,0,1-.65-.74V30c.21-1.16.53-2.22.74-3.38l2.22-10.15c.21-.85.42-1.8.65-2.65a1.25,1.25,0,0,1,1.29-1.06h2.33a.65.65,0,0,1,.85.65v.43c-.65,3-1.29,5.92-2,8.89l-1.62,7A1.29,1.29,0,0,1,84,30.82H83.9Z"/>
    </g>
    <g>
      <path class="a" d="M93.31,13.56h.32l.1.21a1.13,1.13,0,0,1,1.48-.1l.1.1c.1-.1.1-.1.21-.1a1.94,1.94,0,0,1,.74-.21c.32,0,.74.21.74.53v1.79c0,.1,0,.21-.1.21h-.1c-.1,0-.21,0-.21-.1V14.41a.51.51,0,0,0-.32-.65,1.07,1.07,0,0,0-1,.32v1.71c0,.1,0,.21-.21.21s-.21-.1-.21-.21V14.3a.5.5,0,0,0-.46-.53h-.28a.6.6,0,0,0-.53.65v1.36c0,.1,0,.21-.21.21s-.21-.1-.21-.21V13.67a.1.1,0,0,0,.11-.1Z"/>
      <path class="a" d="M91.1,13.8v-.34h.32v-.65h.43v.53c0,.1,0,.21.1.21h.65a.1.1,0,0,1,.1.1h0c0,.1-.1.1-.1.21h-.53c-.21,0-.32.1-.21.32v1.07c-.1.32.1.53.42.65h.53c.1.32.1.32-.21.32h-.42a.69.69,0,0,1-.65-.65h0V14.28C91.41,14,91.41,13.8,91.1,13.8Z"/>
    </g>
  </g>
</svg>
