<svg xmlns="http://www.w3.org/2000/svg" viewBox="0 0 109.21 50" class="svg-qiwi">
  <defs>
    <style>
      .svg-qiwi .a {
        fill: #ff2e52;
      }
    </style>
  </defs>
  <title>Qiwi</title>
  <g>
    <g>
      <path class="a" d="M54.66,33.85l1.68-6.72a1.06,1.06,0,0,1,.89-1h0c1.23,0,1.45.11,1.12,1.23-1,3.48-1.91,6.83-2.91,10.25a.84.84,0,0,1-.79.89h-.1a1.07,1.07,0,0,1-1-.78c-.63-2.19-1.47-4.31-2.23-6.76l-2,6.47c-.23.55-.23,1.12-1.12,1.12s-.78-.55-1-1.12c-1-3.36-1.9-6.72-2.9-9.93-.11-.34-.67-.89.23-1.23a1.63,1.63,0,0,1,2.12.67c.55,2.12,1.12,4.35,1.68,6.47,0,.11.11.23.11.45A1.53,1.53,0,0,0,49,33c.55-1.9,1.23-3.79,1.78-5.79.11-.45.11-1,.78-1s.67.67.78,1c.55,1.9,1.23,3.79,1.78,5.69l.34,1Z"/>
      <path class="a" d="M66.92,13.67C67.59,11.32,68.37,9,69,6.75c.11-.34.11-.89.78-.89s.67.45.78.89c.67,2.34,1.45,4.57,2.34,6.91l1.81-6.92a.84.84,0,0,1,.76-.89h0c1.23,0,1.34,0,1,1.23-.89,3.36-1.9,6.72-2.79,10-.11.45-.11,1-.89,1a1.08,1.08,0,0,1-1.12-.89h0c-.67-2.12-1.45-4.2-2.23-6.72-.67,2.34-1.34,4.35-2,6.36-.23.55-.11,1.23-1.12,1.23s-.84-.65-1.1-1.19c-.89-3.23-1.9-6.58-2.79-9.81-.11-.45-.67-1.12.23-1.23.67,0,1.78-.67,2.12.67.55,2.12,1,4.2,1.56,6.25A6.22,6.22,0,0,0,66.92,13.67Z"/>
      <path class="a" d="M43.06,12c0-3.12,1.45-5.35,3.79-6.13a5.38,5.38,0,0,1,6.88,3.26l0,.1A4.74,4.74,0,0,1,54,10.44c.45,3.12-.11,5.88-3.23,7.56-.55.34-.34.67-.11,1a6.06,6.06,0,0,0,3.11,2.13c.45.11,1,.11.89.78s-.78.45-1.23.34c-2.23-.45-4.35-1.23-5.47-3.46a.74.74,0,0,0-.55-.45C44.17,17.56,43.06,14.45,43.06,12Zm8.58.11a6.42,6.42,0,0,0-.55-3.23,2.52,2.52,0,0,0-2.56-1.68,2.61,2.61,0,0,0-2.45,1.9,8,8,0,0,0,0,6A2.65,2.65,0,0,0,48.63,17a2.93,2.93,0,0,0,2.45-1.9A10.84,10.84,0,0,0,51.64,12.1Z"/>
      <path class="a" d="M91.34,32.39V27.15a.69.69,0,0,1,.45-.87l.11,0h5.47a.76.76,0,0,1,.9.42V27a.73.73,0,0,1-.53.89H94.35a.5.5,0,0,0-.67.45v.23c-.23,2.79-.23,2.68,2.56,2.79a1.54,1.54,0,0,1,1.23.11,1.28,1.28,0,0,1,.11,1.12c-.11.45-.45.34-.67.34h-.23c-.89,0-2.23-.34-2.68.11-.67.67-.11,2-.23,3,0,.67.23.78.89.78h2.9a.64.64,0,0,1,.78.45v.33c0,.55-.11.89-.78.89H92.2a.64.64,0,0,1-.78-.45v-.34C91.45,36,91.34,34.18,91.34,32.39Z"/>
      <path class="a" d="M68.48,38.53c-.78.23-1.23-.23-1.45-1.12,0-.11,0-.11-.11-.23-.89-2.56-.89-2.56-3.68-2.45-.45,0-.89.23-.89.67-.23.78-.55,1.68-.78,2.45a.72.72,0,0,1-.67.67c-1.34.11-1.56,0-1-1.34,1.23-3.36,2.56-6.8,3.79-10.15a1.2,1.2,0,0,1,1.5-.8l.07,0A1.34,1.34,0,0,1,66,27l3.68,10C70,38.53,70,38.53,68.48,38.53Zm-4-8.58h-.23l-.66,1.78C63,33.5,63,33.5,64.91,33.4c.55,0,.67-.23.55-.67C65.13,31.84,64.79,30.83,64.46,29.94Z"/>
      <path class="a" d="M103.6,33.18V28.83c0-.67-.23-1-.89-.89h-1.23a.79.79,0,0,1-.89-.78.74.74,0,0,1,.78-.89h6.91c.55,0,.89.11.89.78a.69.69,0,0,1-.45.87l-.11,0h-.34c-.67,0-1.56-.34-2,.23s-.23,1.45-.23,2.23v7.14c0,1-.45,1-1.23,1s-1.34,0-1.23-1.12C103.71,36.07,103.6,34.63,103.6,33.18Z"/>
      <path class="a" d="M72.49,32.39V27.26c0-1.12.67-1,1.34-1s1.12.11,1.12,1v8.59c0,.78.23,1.12,1.12,1.12h2.45a.84.84,0,0,1,.89.45v.34a.73.73,0,0,1-.53.89H73.49a.69.69,0,0,1-.89-.55v-.34C72.49,36,72.49,34.18,72.49,32.39Z"/>
      <path class="a" d="M82,32.39c0-1.68.11-3.46,0-5.13,0-1,.45-1,1.23-1s1.23,0,1.12,1c-.11,2.9,0,5.79,0,8.7,0,.78.23,1,1,1H88c.55,0,.67.23.67.78s0,.89-.67.89H82.64c-.67,0-.67-.34-.67-.78Z"/>
      <path class="a" d="M57.33,12V6.75c0-1.12.55-.89,1.23-.89s1.23-.23,1.23.89V17.23c0,1-.67.89-1.23.89s-1.23.23-1.23-.89C57.44,15.56,57.33,13.78,57.33,12Z"/>
      <path class="a" d="M79.51,11.88V6.75c0-1,.67-.89,1.23-.89S82,5.75,82,6.75V17.23c0,1.12-.78.78-1.34.89s-1.12,0-1.12-.89Z"/>
    </g>
    <g>
      <path class="a" d="M40,46a16.59,16.59,0,0,0-5.35-4.69,16.13,16.13,0,0,0-11.37-1.44C16,41.55,9.27,40,4.14,34.29-.43,29.25-1,23.14,1.35,16.78A19.61,19.61,0,0,1,24.21,4.52,18,18,0,0,1,36.81,26.6h0a19.32,19.32,0,0,1-3.36,6.58,8,8,0,0,0-2-3.68,6.9,6.9,0,0,0-3.68-1.9,3.25,3.25,0,0,1,3,.45c1,.67,1.12-.11,1.23-.67a16,16,0,0,0-4-13.71A14.55,14.55,0,0,0,16.86,8.09C11.61,8,7.37,11.57,6,16.9,4.26,24.59,8.27,34.41,19.53,36c.78.11,1.23,0,.89-1a2.72,2.72,0,0,1,0-1.34.21.21,0,0,1,.34.11h0a9.46,9.46,0,0,0,7.25,4,14.64,14.64,0,0,1,10.25,5A5.22,5.22,0,0,1,40,46Z"/>
      <path class="a" d="M27.34,34.63c0-.78.34-1.23.89-1.12a1.35,1.35,0,0,1,1.34,1.34V35a.84.84,0,0,1-.65,1h-.25A1.68,1.68,0,0,1,27.34,34.63Z"/>
      <path class="a" d="M32.58,33.62c0,.34,0,.78-.34.55a1.43,1.43,0,0,1-.78-1.45c0-.23,0-.55.23-.45A1.34,1.34,0,0,1,32.58,33.62Z"/>
    </g>
  </g>
</svg>
