<svg xmlns="http://www.w3.org/2000/svg" viewBox="0 0 163.58 50" class="svg-webmoney">
  <defs>
    <style>
      .svg-webmoney .a {
        fill: #ff2e52;
      }
    </style>
  </defs>
  <title>WebMoney</title>
  <g>
    <path class="a" d="M0,14.55H2.29c.35,0,.35,0,.46.35L4.47,22.8c.35,1.37.58,2.75.92,4.12,0,.12.12.12.12.23.12-.12.12-.12.12-.23,1-4,2-8.14,3-12.15a.25.25,0,0,1,.23-.23h1.6c.12,0,.23.12.35.23h0c.81,3.21,1.72,6.42,2.52,9.63L14,26.9V27l.12.12c.12,0,.12-.12.12-.23l.35-1.72,1-5.62c.35-1.6.58-3.21.92-4.81,0-.12.12-.35.23-.35H19c.23,0,.23,0,.23.23-.81,3.78-1.72,7.45-2.52,11.23-.35,1.72-.81,3.44-1.15,5.16,0,.12-.12.23-.35.23H13.18c-.12,0-.35-.12-.35-.23h0c-.81-2.87-1.6-5.85-2.41-8.72L9.74,19.7v-.11l-.12-.12c-.12,0-.12.12-.12.23-.23.92-.46,1.72-.69,2.64L6.54,31.17a.25.25,0,0,1-.23.23H4.13c-.12,0-.23,0-.23-.12h0L2.06,23.14.23,14.91C.12,14.67.12,14.55,0,14.55Z"/>
    <path class="a" d="M45.51,23V14.91c0-.35,0-.35.35-.35H48c.23,0,.35.12.46.35l4.7,11.92c.12.23.23.58.35.81s.12.12.12.23c.12-.12.12-.12.12-.23l1.6-4.24c1.15-2.87,2.18-5.85,3.27-8.72,0-.12.23-.23.35-.23h2.41c.35,0,.35,0,.35.35V31.06c0,.12,0,.23-.12.23H59.47c-.23,0-.23-.12-.23-.23V19.27c0-.12,0-.12-.12-.23s-.12.12-.23.23c-.46,1-.81,2.18-1.27,3.21l-3.44,8.59a.29.29,0,0,1-.46.23h-.92c-.12,0-.23-.12-.35-.23L49.4,23.49l-1.6-4a.11.11,0,0,0-.1-.12h0a.4.4,0,0,0-.23-.12l-.12.12V30.94c0,.35,0,.35-.35.35H45.8c-.12,0-.23,0-.23-.12V31C45.51,28.42,45.51,25.81,45.51,23Z"/>
    <path class="a" d="M35,20.16l.81-.35a5.3,5.3,0,0,1,3-.46A4.1,4.1,0,0,1,42.3,22.1a9.81,9.81,0,0,1,.46,3.71,7,7,0,0,1-.92,3.44,4.74,4.74,0,0,1-3.44,2.41,11,11,0,0,1-5.69-.95c-.12,0-.23-.23-.23-.35V14.21c0-.12.12-.35.23-.35h.12l2-.46h.11v6.76Zm0,5.62v3.66c0,.23.12.35.23.35a4.73,4.73,0,0,0,2.18.23,2,2,0,0,0,1.37-.46,2.89,2.89,0,0,0,1.15-1.72,9.81,9.81,0,0,0,.35-3.66,6,6,0,0,0-.46-2,2.52,2.52,0,0,0-2.29-1.37,5.34,5.34,0,0,0-2.29.69c-.12.12-.23.23-.23.35v3.89Z"/>
    <path class="a" d="M69.93,19.27a5,5,0,0,1,5.16,4,8.4,8.4,0,0,1-.23,5,4.81,4.81,0,0,1-4.24,3.27A6.88,6.88,0,0,1,68,31.37a4.45,4.45,0,0,1-3-2.73,8.1,8.1,0,0,1,0-6.54,4.78,4.78,0,0,1,4-3h.46l.46.12Zm3,6.3c0-.46-.12-1-.12-1.49A4.12,4.12,0,0,0,72,22a2.55,2.55,0,0,0-3.54-.55c-.23.12-.35.35-.58.58a6.17,6.17,0,0,0-.92,2.41,8.47,8.47,0,0,0,0,2.41A6.91,6.91,0,0,0,67.62,29a2.63,2.63,0,0,0,2.76,1.15,2.33,2.33,0,0,0,2-1.72,6.73,6.73,0,0,0,.58-2.87Z"/>
    <path class="a" d="M77.72,26.24V21.31a.87.87,0,0,1,.23-.46,10.83,10.83,0,0,1,4.58-1.49,10.07,10.07,0,0,1,3.21.12,2.56,2.56,0,0,1,2,2.18,4.7,4.7,0,0,1,.12,1.27v8.14c0,.23,0,.35-.35.35H85.63c-.12,0-.23,0-.35-.23V23.26a2.52,2.52,0,0,0-.12-.92A1.71,1.71,0,0,0,83.56,21a5.74,5.74,0,0,0-3.27.81c-.12.12-.23.23-.23.35v8.94c0,.12,0,.23-.12.23H78c-.23,0-.23-.12-.23-.23Z"/>
    <path class="a" d="M99.73,28.87v1.6c0,.12-.12.12-.23.23a6.54,6.54,0,0,1-2.52.81,7,7,0,0,1-3.44-.12,4.72,4.72,0,0,1-3.44-3.56,11.6,11.6,0,0,1-.23-3.44,7,7,0,0,1,.91-3,4.71,4.71,0,0,1,3.56-2.29,6.88,6.88,0,0,1,2.64.23,4.2,4.2,0,0,1,2.75,3.1c.12.58.23,1.27.35,1.83v1.15c0,.35,0,.35-.35.35H92.39a.11.11,0,0,0-.12.12,4.36,4.36,0,0,0,.92,3.1,3.49,3.49,0,0,0,1.83.92A6.45,6.45,0,0,0,99.38,29l.23-.12Zm-7.34-4.58h5.28c.12,0,.23,0,.23-.23a3.77,3.77,0,0,0-.69-2.18,2.42,2.42,0,0,0-3.27-.81,1.38,1.38,0,0,0-.58.58,4.59,4.59,0,0,0-.92,2.64Z"/>
    <path class="a" d="M100.87,19.7h2.41c.12,0,.23.12.35.23.58,1.83,1.27,3.56,1.83,5.39l1,3c0,.12.12.12.12.23.12-.12.12-.12.12-.23.81-2.75,1.72-5.45,2.52-8.26,0-.23.23-.35.46-.35h2.18l-.35.92L107.41,32a10.76,10.76,0,0,1-1.62,3,4.36,4.36,0,0,1-3,1.6c-.58,0-.58,0-.58-.58V34.84c0-.12,0-.23.12-.23a2.57,2.57,0,0,0,2.18-1.37,7,7,0,0,0,.81-1.6v-.37l-3.44-8.82L101,19.92Z"/>
    <path class="a" d="M30,28.87v1.6c0,.12-.12.12-.23.23a9.48,9.48,0,0,1-2.52.92,9.28,9.28,0,0,1-3.56-.12,4.62,4.62,0,0,1-3.1-2.75,8.56,8.56,0,0,1,0-6.3,4.46,4.46,0,0,1,4-3,6.3,6.3,0,0,1,2.52.23,4.23,4.23,0,0,1,2.75,3,12.25,12.25,0,0,1,.35,2.87c0,.58,0,.58-.58.58H22.81c-.46,0-.35,0-.35.35a4.75,4.75,0,0,0,.35,1.83,2.74,2.74,0,0,0,2.41,1.86,5.93,5.93,0,0,0,4.36-1Zm-4.7-4.47h2.52c.23,0,.23,0,.23-.23a5.45,5.45,0,0,0-.46-1.83,2.37,2.37,0,0,0-3-1.4l-.06,0a2.29,2.29,0,0,0-1.15.92,5.45,5.45,0,0,0-.81,2.29c0,.23.12.23.23.23h2.53Z"/>
    <g>
      <path class="a" d="M143.28,4h.35a19.25,19.25,0,0,1,8.26,2.18l1,.58.12.12L151.2,8.47a13.74,13.74,0,0,0-1.37-1.27,15.56,15.56,0,0,1-1.37-1.37c0-.12-.23-.12-.35-.12a.11.11,0,0,0-.12.12l-4.47,4-.12.12-2.87-3.21-.92.92-7.91,7.11c-.12.12-.23.23,0,.35l5.45,6.07.25.24-.46.35-1.72,1.46c-.12,0-.12.12-.12.23l.12.14,5.45,6.05.23.23-2.29,2,8.22,9.21,4.81-4.47,4.3,4.77-.69.58A22.27,22.27,0,0,1,147,45.61a28.35,28.35,0,0,1-3.1.35,20.87,20.87,0,0,1-3.78-.12,21.71,21.71,0,0,1-8.82-3.27A21.32,21.32,0,0,1,123,31.8a18.74,18.74,0,0,1-.92-4.24,24.8,24.8,0,0,1,0-4.12,21.52,21.52,0,0,1,3.28-9.62,20.55,20.55,0,0,1,7.91-7.11,22.09,22.09,0,0,1,6.42-2c.69-.12,1.37-.12,2.06-.23h.35Z"/>
      <path class="a" d="M151.77,32.77l-4.93,4.47-4.47-4.89,4.93-4.47Z"/>
      <path class="a" d="M138.82,23.63l4.93-4.47,4.47,4.93-4.93,4.47Z"/>
      <path class="a" d="M144.67,15.69l-4.93,4.47-4.51-4.93,4.93-4.47Z"/>
      <path class="a" d="M151,28.07l3.66-3.27,3.27,3.66-.12.12-3.44,3.1c-.12.12-.12.12-.23,0Z"/>
      <path class="a" d="M154.3,35.63,158,32.35,161.23,36l-3.66,3.27Z"/>
      <path class="a" d="M147.76,20.28,151.42,17l3.27,3.66L151,23.95Z"/>
      <path class="a" d="M148.11,9.45l3.27,3.66-3.66,3.27-3.27-3.66Z"/>
      <path class="a" d="M152.58,11,155,8.81l2.18,2.41-2.41,2.18Z"/>
      <path class="a" d="M161.4,23.63,163.58,26l-2.41,2.18L159,25.81Z"/>
      <path class="a" d="M158.3,16.15l2.18,2.41-2.41,2.18-2.18-2.41Z"/>
    </g>
  </g>
</svg>