<svg xmlns="http://www.w3.org/2000/svg" viewBox="0 0 98.7 50" class="svg-yandexmoney">
  <defs>
    <style>
      .svg-yandexmoney .a {
        fill: #ff2e52;
      }
    </style>
  </defs>
  <title>Yandex Money</title>
  <g>
    <path class="a" d="M0,1.58a7.41,7.41,0,0,1,1.48,0A.77.77,0,0,1,1.88,2c.89,2.37,1.68,4.74,2.47,7l.3.59c.1-.1.1-.2.2-.39.89-3,1.88-5.92,2.76-8.77,0-.2.3-.39.59-.39H9.47l-.3.89C7.9,4.24,6.7,7.69,5.42,11.14a1.68,1.68,0,0,0-.1.69v5.52H4a.51.51,0,0,1-.2-.39V11.84a1.86,1.86,0,0,0-.2-.79C2.57,8.08,1.38,5.22.3,2.27A2.15,2.15,0,0,0,0,1.78Z"/>
    <path class="a" d="M87.46,41H78.19a2.55,2.55,0,0,1-2.37-2.37V25.53a3.27,3.27,0,0,1,1.58-2.76c1.48-.89,3.06-1.68,4.54-2.57L87.55,17l3.26-1.78A2,2,0,0,1,91.9,15a1.12,1.12,0,0,1,1.28.89V29.68a3.25,3.25,0,0,1-2,2.86l-10,4a11,11,0,0,0-1.58.69.89.89,0,0,0-.59.59.7.7,0,0,0,.06,1l.14.1a1,1,0,0,0,.89.1c1.68-.49,3.36-.89,5-1.38,2.07-.59,4-1.18,6.11-1.68.89-.3,1.78-.49,2.66-.89a2.26,2.26,0,0,0,1.48-2.37V24.56c0-.69,0-.59.69-.69a2.29,2.29,0,0,1,1.78.39,1.57,1.57,0,0,1,.79,1.4V39.14A1.75,1.75,0,0,1,97,40.92h0ZM86.27,24.85A1,1,0,0,0,87,26h.53a2.75,2.75,0,0,0,2.07-2.76.89.89,0,0,0-.89-.89h-.2A2.81,2.81,0,0,0,86.27,24.85Z"/>
    <path class="a" d="M4.74,25.34l.49-.2a5.55,5.55,0,0,1,3.95-.79,3,3,0,0,1,2,1.28l.69-.39a5.44,5.44,0,0,1,4.24-.89,2.76,2.76,0,0,1,2.37,2.76V40.53a.29.29,0,0,1-.15.38l-.05,0H16.58c-.49,0-.59-.1-.59-.59V28.1a1.68,1.68,0,0,0-1.46-1.87h-.42a15.31,15.31,0,0,0-2.07.39c-.3.1-.49.3-.39.59h0v13c0,.59,0,.59-.59.59H9.56c-.2.1-.49-.1-.59-.3V28.1a1.67,1.67,0,0,0-1.44-1.87H7.1A15.31,15.31,0,0,0,5,26.62c-.3.1-.49.3-.39.59h0V40.13c0,.89.1.79-.79.79H2.57c-.2,0-.39-.1-.39-.2V24.93c0-.59,0-.59.59-.59H4.15c.49,0,.59.1.59.49Z"/>
    <path class="a" d="M63.11,37.56c.2-1.18.39-2.27.59-3.45l1.44-8.58c0-.3.1-.69.1-1s.1-.39.3-.39h2.17c.3,0,.39.1.3.39-1.45,6.05-2.86,12-4.3,18.05a14.39,14.39,0,0,1-3.75,6.91,1.36,1.36,0,0,1-.39.3.51.51,0,0,1-.39.2l-1.58-2.17,1.09-.89a7.23,7.23,0,0,0,2.86-5.32,3.36,3.36,0,0,0-.1-1l-4.18-16c-.2-.59-.2-.59.49-.59h1.68c.2,0,.49.1.49.3v.1c.59,3,1.18,5.92,1.88,8.88.3,1.28.59,2.57.79,3.85.3.3.39.39.49.39Z"/>
    <path class="a" d="M36.68,25.34c.89-.3,1.68-.69,2.47-.89a4.09,4.09,0,0,1,2.66.2,2.62,2.62,0,0,1,1.58,2.17v14.3H41.22c-.1-.1-.3-.2-.3-.3V28.4a1.77,1.77,0,0,0-1.48-2h-.49l-1.88.3c-.3.1-.59.39-.49.69h0V40.33c0,.69,0,.69-.69.69H34.54c-.2,0-.3,0-.39-.2V25c0-.59,0-.59.69-.59h1.38c.49,0,.59.1.49.49Z"/>
    <path class="a" d="M56,33H49a6.91,6.91,0,0,0,1,4.44A3.35,3.35,0,0,0,53,39a6.83,6.83,0,0,0,2-.3.36.36,0,0,1,.48.16l0,0v.2c.3,1.18.3,1.18-.79,1.58a5.73,5.73,0,0,1-4,.39,5.55,5.55,0,0,1-3.55-3.26,11.52,11.52,0,0,1-.89-5.12,13.89,13.89,0,0,1,1.14-5.34,6,6,0,0,1,1.88-2.57,3.63,3.63,0,0,1,5.1.57l0,0c.1.1.1.2.2.3A9,9,0,0,1,56,29.78C56,30.86,56,31.95,56,33Zm-6.91-1.78,4.24-.2a9.87,9.87,0,0,0-.69-4.15,1.36,1.36,0,0,0-1.28-1,1.55,1.55,0,0,0-1.38.89A11.84,11.84,0,0,0,49.09,31.26Z"/>
    <path class="a" d="M31.45,32.24a13.59,13.59,0,0,1-1.38,6.5,5.4,5.4,0,0,1-1.58,1.78,3.78,3.78,0,0,1-5.31-.58h0c-.1-.1-.2-.3-.3-.39A9.75,9.75,0,0,1,21.2,35.2a14.45,14.45,0,0,1,.49-6.8,6,6,0,0,1,2.07-3.26,4,4,0,0,1,5.57.34l0,0,.2.2a7.9,7.9,0,0,1,1.68,4.34C31.36,30.86,31.36,31.65,31.45,32.24Zm-8,.3c.1,1.38.2,2.37.3,3.36a5.16,5.16,0,0,0,1,2.66,1.85,1.85,0,0,0,2.47.49,1.18,1.18,0,0,0,.49-.49,6.16,6.16,0,0,0,1-2.17,17.07,17.07,0,0,0,.2-6.7,6.21,6.21,0,0,0-1-2.86,1.89,1.89,0,0,0-2.57-.59,1.18,1.18,0,0,0-.49.49,3.65,3.65,0,0,0-.79,1.78c-.3,1.48-.39,3-.59,4Z"/>
    <path class="a" d="M28.62,6.8V1.48H30.1v15.3a.75.75,0,0,1-.2.49c-.3,0-.69.2-1-.2-.1-.1-.1-.2-.2-.3l-.49.3a2.52,2.52,0,0,1-3.53-.46l0,0-.2-.2a6.61,6.61,0,0,1-1-3.85,10.44,10.44,0,0,1,.59-3.85,3.16,3.16,0,0,1,3.85-2.07c.1,0,.1,0,.2.1Zm0,5.22V8.58A.54.54,0,0,0,28.23,8a1.58,1.58,0,0,0-2.17.39.75.75,0,0,0-.2.39,6.61,6.61,0,0,0-.59,2.76A8.16,8.16,0,0,0,25.76,15a1.73,1.73,0,0,0,2.17,1.09c.1,0,.1,0,.2-.1.3-.1.49-.3.39-.59.1-1.09.1-2.17.1-3.36Z"/>
    <path class="a" d="M17.65,6.7l.1.59.59-.3a11.47,11.47,0,0,1,1.78-.39A1.69,1.69,0,0,1,22,8.09v8.77a.51.51,0,0,1-.2.39h-.2c-1.18,0-1.18,0-1.18-1.18V9.16a1.08,1.08,0,0,0-.85-1.26l-.14,0h-.79c-.89.1-1,.2-1,1.18v7.72c.1.2-.1.39-.3.49h-.2c-1.18,0-1.18,0-1.18-1.18V7.2c0-.39.1-.59.59-.59S17.25,6.7,17.65,6.7Z"/>
    <path class="a" d="M12.43,10.65a4.17,4.17,0,0,0-.3-2.17,1.07,1.07,0,0,0-1.33-.71l-.05,0c-.1,0-.1.1-.2.1a5.85,5.85,0,0,0-.79.39c-.3.2-.49.2-.59-.1C8.68,7,8.38,7.2,9.86,6.7a5.46,5.46,0,0,1,1.78-.2,2.22,2.22,0,0,1,2.18,1.88,9.93,9.93,0,0,1,.3,2.47v5.92c0,.2.1.49-.2.49s-.69.2-.89-.2c-.1-.2-.1-.3-.2-.49-.2.2-.39.3-.49.49A2.17,2.17,0,0,1,9.28,17c-.3-.2-.39-.3-.39-.39A4.59,4.59,0,0,1,9,11.25a2.48,2.48,0,0,1,2.86-.79Zm0,3.26V12.43a.59.59,0,0,0-.1-.39,1.4,1.4,0,0,0-2-.1,1,1,0,0,0-.39.49,4.09,4.09,0,0,0-.1,2.86,1.38,1.38,0,0,0,1.68,1l.59-.3a2.15,2.15,0,0,0,.3-.49Z"/>
    <path class="a" d="M37.86,12.33h-4.3a5.31,5.31,0,0,0,.49,2.76,2.2,2.2,0,0,0,2.57,1h.3c.69-.1.69-.1.69.59a.37.37,0,0,1-.1.3,3.41,3.41,0,0,1-4,0A4.51,4.51,0,0,1,32,14a9.34,9.34,0,0,1,.49-4.93,4.45,4.45,0,0,1,1.09-1.68,2.18,2.18,0,0,1,3.06-.2,1.73,1.73,0,0,1,.39.49,5.31,5.31,0,0,1,.89,2.47Zm-1.68-1.18a5.31,5.31,0,0,0-.49-2.76.86.86,0,0,0-.79-.59,1,1,0,0,0-.89.49A7,7,0,0,0,33.42,11Z"/>
    <path class="a" d="M45,17.25H43.57c-.2-.1-.3-.2-.3-.39-.39-1.09-.79-2.07-1.18-3.16l-.2-.59-.3.89c-.3,1-.69,2-1,2.86-.1.3-.3.49-.59.39H38.94c.1-.2.1-.3.2-.49.69-1.58,1.28-3.06,2-4.64a.9.9,0,0,0,0-1c-.69-1.48-1.28-2.86-2-4.44h1.58a.51.51,0,0,1,.2.39c.39,1.09.79,2.17,1.28,3.36a1.67,1.67,0,0,0,.2-.49c.39-1,.69-1.88,1.09-2.86-.1-.2.2-.39.49-.39h1c-.1.2-.1.39-.2.59-.59,1.38-1.28,2.86-1.88,4.24a.84.84,0,0,0,0,.69c.59,1.48,1.28,3.06,1.88,4.54Z"/>
  </g>
</svg>