<svg xmlns="http://www.w3.org/2000/svg" viewBox="0 0 316.64 198.07">
  <title>Marmot</title>
  <path fill="rgba(0,0,0,0.25)" d="M1.08,169.69c1.44,1.32,7.88.56,9.28,1.72-.76.1-7.28,1.54-7.28,2.28,0,.9,5.54-.12,6.26.22-.6.44-5.26,2.9-5.6,3.56C8.2,179.63,18,181.13,23,181.21c-.28.14-6.38,1.4-6.62,1.62,1.28.64,6.18.32,7.66.26-.5.62-4.22,1.86-4.9,2.5,8.88,2.06,24-2.1,24-2.1S33.5,187.11,34.9,187a50,50,0,0,0,8.16-1.4c1.24-.32,2.44-.36,3.68-.66.88-.22,3.06-.4,3.66-.88a3.24,3.24,0,0,0-1.14,1.64c1.62.16,3.32-.36,4.88-.18a2.38,2.38,0,0,0-1,1.22c1.78.18,3.9-.4,5.8-.4s10.22-2,12.26-2.06c-.44.1-7.3,1.66-7.48,2,4.06-.22,12.1-.86,16.2-1.82-.18.4-4.1,2-4.5,2.3,2.5-.08,4.06-1.66,6.58-1.24a23.26,23.26,0,0,0,7.26,0c2.52-.42,5.14-.62,7.68-.84,1.58-.14,3-.16,4.58-.4a17.65,17.65,0,0,1,4.3-.58c-.34.24-.58.54-.9.8a29.12,29.12,0,0,1,3.24,0c-.58,2.12,3.12,1.72,4.58,1.88-.68.92-.34,2.12-.74,3.1,1.1,0,4,0,4.7.6l3.52.42v-.34c.2,1.3-1.28,1.54-2,2.18a6.2,6.2,0,0,0,4.66-1.2,2.15,2.15,0,0,1-.4,1.56,3.34,3.34,0,0,1,2.7-.92c-.14.5-.62.84-.8,1.38,1,.3,2.78-.44,3.68-.76a.77.77,0,0,1-.34,1.08c.36.66,3.4-.38,4.14-.64,1.12-.36,2.86-1.66,3.16.14a8,8,0,0,0,4.08-.76c0,.2.6.86.52,1,1.14-.52,1.24-1.82,2.6-1.64.06,1,0,1.64,1,1.8.18-.8,1.84-1.18,2.52-1.2a5.7,5.7,0,0,0,.06.58,13.74,13.74,0,0,0,2.68-.58,9.82,9.82,0,0,1,2.44-.18c-.32,2.24,4.4.64,5.62.64.36,2,3.08.28,4.22-.18.44.64.64,1.66,1.2,2.2.32-.8.7-1.52,1.08-2.26,1.22.56,1.06,2.68,1,3.84a17.86,17.86,0,0,0,1.62-1.64c.5-.74.56-1.76,1.3-2.22a11.79,11.79,0,0,1,1.08,1.82,2.49,2.49,0,0,0,.4-1.62c.74.56,1,2,1.66,2.46,1.38,1.08,1.62-1,2.62-1.64.78,1.26.12,4,1.9,3.48s2.6-2.9,3.5-4.1a23.58,23.58,0,0,0,1.3,2.2c.6-.46,1-1.08,1.64-1.38,0,2.36,1.9,2.12,3.42.82s.4-2.7,2.86-2.7c3.48,0,5.28,1.36,8.72,1.28,3.08-.06,4.62,0,7.08,1.64a21.9,21.9,0,0,0,10.6,3.32,1,1,0,0,1,.1-.22.12.12,0,0,0,.08,0,12.45,12.45,0,0,0,3.34,0,7.62,7.62,0,0,0,2-.92c.12,0,.2.06.3.08a12.74,12.74,0,0,0,3.32.8,5.08,5.08,0,0,0-2.28-2.84,4.61,4.61,0,0,1,.24-.84,4.8,4.8,0,0,1,.46-.76c1.26.46,2.64,1.68,2.26-.68a4.72,4.72,0,0,0-1.64-2.6c-.14-.4-.26-.8-.4-1.2a5.89,5.89,0,0,0-3.6-3.84c-1.68-1.14-4-1.46-5.7-2.12.52-.12,1.08-.34.92-1-1.46-.06-3.16-1.2-4.54-1.7a17.91,17.91,0,0,0-3.56-.76,11,11,0,0,0,1.94-.64c1-.48,2.06-1.22,3.28-.9,1,.24,1.88,1.06,2.86,1.22a3.51,3.51,0,0,0-2.38-2.68,7.24,7.24,0,0,1,2.14-1.08c.7-.34,1.86.62,2.52,1-.6-3.72-3.74-4.48-6.36-5.44a15.54,15.54,0,0,0-5-.76c-1.2,0-3.92.72-4.76,0l-1.78-.5c-.1-.12-.24-.24-.32-.34-.92-1.06-2.34-3.28-2.28-4.72.6,1.76,2.46,3.42,3.92,4.48.06-.6-1.06-1.88-1.46-2.46a19.34,19.34,0,0,1-1.4-2.5c-.54-1.26-1.66-3.52-1.2-4.92.64,1.4,1,3,1.78,4.5a19.21,19.21,0,0,0,3,3.86c0-1.68-1-3.64-1.22-5.28.6,1,1.22,2.82,2.2,3.4a36.62,36.62,0,0,0-.82-5.48c.64,1.3,1.08,3,2,4,.26-.86-.52-2.26-.58-3.2s0-1.92,0-2.88c.46,1.8,1.42,5.16,3.08,6.14-.48-2.88-1.26-3.94-1.44-5.8a44,44,0,0,1-.22-5.14c.22,1.48.7,3.14,1,4.66a12.29,12.29,0,0,0,2,5c.24-2.24-.48-4.3-.74-6.5a49.37,49.37,0,0,1-.06-5.44c.64,3.16,1,6.68,1.94,9.7.78-.72-.08-3.66-.26-4.72a18.24,18.24,0,0,1-.38-5c1.6,2.36,1.84,6.08,3.72,8.42.1-1.08-.64-5.3-.64-6.36,0-2,.08-4.14.26-6.18.32-3.36,1.28-7.38,3.48-10.22a7.4,7.4,0,0,0-.6,3.34c0,1.26-.42,3.66.22,4.7.9-1.08.5-2.66,1.08-3.86a13.6,13.6,0,0,0,1.2-2.84,21.72,21.72,0,0,0,0,3c1.66-.1,1.62-4.66,2.46-5.72-.12,1,.24,1.92.18,3a11.63,11.63,0,0,1,1.4-3.6,4,4,0,0,1,.46,2.36c1.18-1.78,3-2.52,4.54-3.84,0,.38.1.82.08,1.2,1.06.36,4-2.58,5.14-3-.54,1-1.26,2-1.82,3a16.41,16.41,0,0,0,2.22-.56c1-.18,2.16.14,3.16-.16-1.32.74-3.52,1.68-3.7,3.42a13.31,13.31,0,0,0,2.68-.84,5,5,0,0,0,2.2-.8,2.45,2.45,0,0,0-.92,1.24c.8.08,1.38-.44,2.2,0a6.32,6.32,0,0,0-3.08,3c.9-1.12,2.26-.9,3.48-1.14a3.51,3.51,0,0,0-2.2,2,3.2,3.2,0,0,1,2-.32c.48,1.78-3.64,1.7-4.32,2.42,1.36.32,3,.9,4.48.66a10.8,10.8,0,0,0-1.12,1.22c.34,0,.82.08,1.16.06a6.88,6.88,0,0,1-.8,1.8,14.42,14.42,0,0,0,1.82.5,5.35,5.35,0,0,1-.38,1.8c1.28-.2,1,.86,1.06,1.46a5.48,5.48,0,0,0,.56,1.7c-.3,1.54-.62,3-.8,4.34a2.55,2.55,0,0,0,1-.56,33.16,33.16,0,0,0-1.22,4.14c-.16.5-.9,1.54-.8,2.06.22,1,.78.44,1.6.46a7.32,7.32,0,0,0,.5,3.24,2.8,2.8,0,0,0,.38-1.74c1.1,5.3-.62,10.48-.64,15.92,0,2.4.46,4.42,2.76,5.56,2,1,4.34.56,6.44,1.06,0,.24,0,.44-.06.66a16.07,16.07,0,0,0-.22,2.5c.14.7.88,1.32,1.06,2.06l.42,1.24c2.38,5.06,10.28,3,14.54,3.32,1.28.1,2.68.7,3.92.84a1.51,1.51,0,0,0,.64-.16,6.8,6.8,0,0,0,4.74-.32,5.19,5.19,0,0,0,2-2.68c1.72.84,3.38,2.3,5,2.72a23.84,23.84,0,0,1-2-2.7,27,27,0,0,0-2.26-2.28,19.84,19.84,0,0,0,2.6.18c-.56-1.6-2.2-1.68-3.48-2.1s-2.54-1-3.78-1.4a27.59,27.59,0,0,0-9.14-1.66l-.22-2.28c0,.16,2-25.7,2.28-29.1s-.58-7.36.26-10.76c.42-1.72,1.1-.66,2,.3a12.3,12.3,0,0,1-.14-4.7c1.26,1,2.62,3.74,4.84,3.76-2.6-1.84-3.36-4.08-4.64-7.52.88.32,5.46,5.74,6.2,6-.94-1.88-4.3-5.3-4.78-6.6.6.36,5.24,3.68,6,3.7,0-.86-1.82-2-2.42-2.68a9.4,9.4,0,0,0-2.54-1.82c-1.34-.82-2.64-3.22-2.26-4.82a27.12,27.12,0,0,1,3.28,2.6,29.75,29.75,0,0,0-1.8-3c1.1-.38,3.42,2.4,4.14,3.28a8.5,8.5,0,0,0,2.06,2.26c.8.54,1.62.6,2.42,1.06-3.74-2.36-7.24-9.2-8.32-11,1.22.7,6.94,8.94,8.56,8.7-.36-1.08-1.78-2-2.46-2.88a18,18,0,0,1-2.12-3.9c-.56-1.26-1-2.48-1.56-3.78C269.4,122.38,268,121,268,120c2.26,1.1,4.34,3.38,6.36,4.92,0-1.66-2.76-3.5-3.9-4.3,1.12.18,2.42,1.28,3.5,1.38-1-1.26-2.58-1.72-3.48-3.08-.52-.74-2.48-2.78-2.46-3.5,1,.44,2.44,1.94,3.58,1.8-1.78-1.46-3.48-8.7-3.48-8.7a.47.47,0,0,1,0-.4c1.84.14,2.84,3,4.88,2.64a5.49,5.49,0,0,1-1.82-2.38c.48.66,1.22.7,1.86,1a7.5,7.5,0,0,0-2.64-3.42,4.93,4.93,0,0,1,1.24.68c-.08-1.28-1.66-1.72-2.06-2.8,1.06-.26,1.74.82,2.62,1-1.46-1.8-3-3.22-3.48-5.52a2.88,2.88,0,0,0,1.64,1.14c-.2-1.38-2.36-2.72-2-4.32.24.16.72.28,1,.58,0-.78-.56-1.44-.34-2.26.68.34,1.06,1.52,1.82,2.06a5,5,0,0,0,2.26.8c-.26-1.14-2-1.46-2.22-2.86a6.61,6.61,0,0,0,2.86,1.4C273.74,94.6,271,94,271,92.5a3.54,3.54,0,0,0,2.44,1c-.38-.62-1.2-.9-1.58-1.66A17.38,17.38,0,0,1,271,89a20.54,20.54,0,0,1-.84-6,23.51,23.51,0,0,0,1,2.64,13.91,13.91,0,0,0,1.06,2.88,10.07,10.07,0,0,0-.34-3.9A17.24,17.24,0,0,0,275,87c-.38-.48-2.18-2.42-2.26-3,.52,0,2.32,1.58,2.78,1.4-1.36-.86-3.3-3.1-2.8-4.92a4.56,4.56,0,0,0,2.06,1.08,4.29,4.29,0,0,1-.42-.5c1,0,1.7,1.24,2.2,1.82.18-1.34-1.2-2.2-1.38-3.28.12.06.18.14.34.16-.74-1.44-1.26-2.66-1.86-4.14a8.6,8.6,0,0,1-.8-2.28c-.1-.76.22-1.84-.26-2.42A4.51,4.51,0,0,0,274,72.49c0-1.24-.64-2.74-.56-4.1.62.34.78,1.24,1.58,1.4.08-.88-.7-1.56-.6-2.6,1.4,1,2.8,2.14,4.18,3.18-.28-.74-1.66-3.86-1.66-3.86.58.18,1.72,1.66,2.64,2.06.22-.66-.26-1.22-.42-1.82A10.54,10.54,0,0,1,279,64.1c.1,1,1.22,1.46,2,1.56.24-.82-.5-1.22-.6-2,.6.88,1.56.66,1.32-.34-.18-.7-1.16-1.32-1.32-2.22C280.2,59.82,282,54.44,284,53c2.38-1.62,5-3.12,7.44-4.56,1.36-.8,7.56-5,9-5.6a18.1,18.1,0,0,0,3.78-1.66,7.7,7.7,0,0,0,2.44-2.76,16.28,16.28,0,0,0,1.82-3.82v-.1c-.18,0-.4-.08-.58-.08.68-1,2.14-1.7,3-2.7a16.69,16.69,0,0,0,2.28-3.1,10.76,10.76,0,0,0,1.08-4.32,5.34,5.34,0,0,1,.38-2.34c.32-.58.92-1,1.24-1.64,1.32-2.64.88-6.72-1.4-8.54a39.39,39.39,0,0,0-3.78-2.18,84.75,84.75,0,0,0-13.88-4.42c-3.3-.56-6.64-.88-9.8-1.62-6.36-1.48-13.52-1.08-20.12-1.08-2.88,0-5.66.22-8.5.22-1.46,0-4.38.16-4.38.16a25.09,25.09,0,0,0-3.16-2,9.23,9.23,0,0,0-8.26.1c-1.9,1.18-3,5-1.88,7.08a65.35,65.35,0,0,0-8.64,4.26,72.35,72.35,0,0,0-6.54,6.14,42.06,42.06,0,0,1-6.18,5.9c-2.6,1.86-6,1.72-9.14,2-6.92.62-13.36,1.06-19.74,3.94-6.06,2.74-12.5,3.54-19.1,5.24-6.88,1.78-14.26,3.84-20.8,7.18C136.7,49.9,126.3,62,124.5,64.25c-2,2.46-9.18,10.38-12.74,27.64-2.8,13.52.68,27.66-.46,41.34-.48,5.74-1.08,11.54-1.62,17.26-1.44,15.58-6,15.58-6,15.58-8.5,2.06-36.56-9.36-36.56-9.36s10.06,4.62,6.86,3.78-6.28-2-9.56-2.7C60.78,157,57,155.67,53,155.45c.76.32,8.24,2.68,8.66,3.34-2.2.34-11.74-2.3-13.92-2.62a8.29,8.29,0,0,0,.74.68,29.08,29.08,0,0,1-5.76-.16c-1.82-.16-3.66.22-5.54.22.78,0,8.3,1.18,8.88,1.66a86.51,86.51,0,0,0-13.86.4c1.06,0,1.24.88.34,1.28-.74.34-1.92-.12-2.64-.26a19.81,19.81,0,0,0-5.86-.1c.32.52,5.7,1.18,6.2,1.4-1.08.82-12.82-.32-14.1-.16.18.16,8.54,2.32,8.72,2.46-1.36.4-10.9-1-12.3-.88s-2.68-.72-3.74.24c.34.18,6.08,1.56,6.46,1.66-.86,1-9.46.9-10.82,1.24s-3.22,0-4.5.56c.6.68,9.68,1.32,10.52,1.72C10,168.59,1.46,169.41,1.08,169.69Zm195.1-.26-1.56-.42a15.63,15.63,0,0,1-1.38-1.88A12,12,0,0,1,196.18,169.43Z"/>
</svg>
