<svg xmlns="http://www.w3.org/2000/svg" viewBox="0 0 70 70" class="icon-infinity">
  <style>
    .icon-infinity .a {
      fill: #ffe000;
      fill-opacity: 0;
      stroke: #ffe000;
      stroke-opacity: 0;
      stroke-width: 2px;
    }
  </style>
  <title>Infinity symbol</title>
  <g>
    <path class="a" d="M1,33.5c0.3-1.5,0.6-2.9,1-4.4c2.7-8,10.6-13,18.9-12.1c4.1,0.4,7.9,2.1,10.7,5.1l0.3,0.3l-4.7,8.1c-0.4-0.4-0.8-0.9-1.1-1.3c-3.5-3.9-8.8-4.4-12.7-1.3c-4,3-4.9,8.6-1.8,12.6s8.6,4.9,12.6,1.8c0.3-0.2,0.5-0.4,0.7-0.6c1.7-1.6,3.2-3.5,4.4-5.5c1.7-3.1,3.4-6.3,5.2-9.3c1.7-2.8,3.8-5.3,6.5-7.2c3.2-2.2,7.2-3.2,11.1-2.9c8.2,0.5,15,6.5,16.5,14.5c0.1,0.7,0.2,1.4,0.4,2v3.1c-0.3,1.5-0.6,3-1.1,4.4c-2.8,8-10.7,12.9-19,12c-4-0.4-7.7-2.1-10.5-5c-0.2-0.2-0.3-0.4-0.5-0.5l4.7-7.8l2.4,2c2.9,2.5,7.1,2.9,10.4,1c4.4-2.5,5.8-8,3.3-12.3c-1.4-2.4-3.8-4.1-6.5-4.5c-3.5-0.5-6.3,0.9-8.5,3.4c-1.6,1.9-2.9,4.1-4.1,6.2c-1.7,2.8-3.2,5.7-4.9,8.5c-1.6,2.7-3.8,5-6.5,6.5c-8.7,5-19.8,1.8-24.8-6.9c-1.2-2-1.9-4.4-2.2-6.8c0-0.2-0.1-0.4-0.1-0.6C1,35.6,1,34.5,1,33.5z"/>
  </g>
</svg>
