<svg xmlns="http://www.w3.org/2000/svg" viewBox="0 0 1023.26337 1024.86207" class="icon-cogwheel">
  <defs>
    <style>
    .icon-cogwheel .a {fill:#ffe000;}
    .icon-cogwheel .b {-webkit-transform-origin: 50% 50%; transform-origin: 50% 50%;}
    </style>
  </defs>
  <title>Cogwheel</title>
  <g>
    <path class="a b" d="M511.71319,1024.25794H429.41793a7.30673,7.30673,0,0,1-2.307.366,7.47584,7.47584,0,0,1-7.09-9.832l-.015.053v-77.683a8.82376,8.82376,0,0,0,.18707-1.82506,8.97881,8.97881,0,0,0-8.22654-8.955l-.032-.002c-46.75247-11.90258-87.83217-29.68335-125.18974-52.90321l1.87958,1.08843a8.66,8.66,0,0,0-13.13007,2.20592l-.022.04111c-16.59113,17.82083-33.77945,35.04231-50.36959,52.86314-4.78249,5.09237-7.32427,5.39108-12.40585,0q-58.29106-58.70417-117.18127-116.809a6.59576,6.59576,0,0,1-.036-11.66309l.036-.01707c17.93555-17.07215,35.12488-34.74263,53.06043-51.81582a9.29646,9.29646,0,0,0,1.6415-14.2298l.003.003A433.05606,433.05606,0,0,1,99.7838,616.91017l-.68121-3.06887a10.1693,10.1693,0,0,0-12.01972-9.57438l.062-.009H9.57187c-7.02417,0-9.716-1.348-9.566-9.13443V429.49436c0-6.43944,1.64351-8.38679,8.22054-8.23643h80.3107a8.43664,8.43664,0,0,0,1.79867.188,8.67092,8.67092,0,0,0,8.67008-8.393v-.013c10.23053-47.989,28.05814-90.467,52.37081-128.395l-.92186,1.538a9.55893,9.55893,0,0,0-1.45937-14.91895l-.038-.022c-17.79759-17.632-34.99662-35.861-52.64506-53.642-4.78546-4.781-6.28185-7.77,0-13.448q58.32736-57.67593,115.908-116.249c5.53416-5.678,8.3758-4.781,13.31041,0,16.45133,17.333,33.65034,34.068,50.10268,51.55a9.87652,9.87652,0,0,0,14.96594,2.233l-.01.009a429.60033,429.60033,0,0,1,119.153-50.735l3.03683-.665a8.9768,8.9768,0,0,0,8.21765-10.666l.009.056V8.626a6.42883,6.42883,0,0,1-.32874-2.051A6.59445,6.59445,0,0,1,429.13911.27l-.0471-.012h166.8268a6.47021,6.47021,0,0,1,1.8261-.257,6.5791,6.5791,0,0,1,6.248,8.672l.013-.046V79.78259a8.43273,8.43273,0,0,0-.1876,1.79658,8.665,8.665,0,0,0,8.53128,8.67876h.006c47.81163,10.52748,90.07375,28.54693,127.81433,52.99579l-1.51784-.9203a9.37423,9.37423,0,0,0,14.14662-1.319l.01894-.0291c17.8928-18.10655,36.68077-35.3148,54.72322-53.2722,4.324-4.33938,7.00741-4.93724,11.62982,0Q877.47347,147.56909,936.372,205.77853c4.91977,4.9373,5.07045,7.63224,0,12.56948-18.19119,17.80716-35.63692,36.36236-53.67943,54.31976A8.24778,8.24778,0,0,0,881.50208,285.09l-.003-.003a382.64285,382.64285,0,0,1,51.88013,126.44167l.458,2.54775a8.05369,8.05369,0,0,0,10.34544,7.16751l-.05689.014h70.52942a6.40728,6.40728,0,0,1,2.04677-.32849,6.59031,6.59031,0,0,1,6.29191,8.45547l.012-.04707V595.18442a6.44229,6.44229,0,0,1,.243,1.772,6.57953,6.57953,0,0,1-8.50865,6.28951l.047.012H944.11442a8.7036,8.7036,0,0,0-1.655-.15408,8.96768,8.96768,0,0,0-8.95357,8.50473l-.001.021c-12.25445,46.687-30.1716,87.64172-53.39857,124.94345l1.104-1.90206a8.52606,8.52606,0,0,0,2.19991,12.9842l.042.021c17.4812,16.44511,34.36544,33.33951,51.69766,49.78468,4.92977,4.63459,6.4247,7.47516,0,13.1563Q876.13161,868.47532,818.01017,927.23c-4.92977,4.93273-7.62063,5.23289-12.55045,0-17.63122-17.94-35.85939-35.13354-53.34059-53.0735a9.40951,9.40951,0,0,0-14.20034-1.63891l.006-.005a377.90771,377.90771,0,0,1-125.2313,51.42659l-2.51691.45026a8.081,8.081,0,0,0-7.15763,10.2237l-.013-.057v77.59213c0,1.45864.51414,5.749-2.10659,8.85284-2.76959,3.28007-7.48336,3.536-9.66271,3.62315C581.98941,1024.994,552.07232,1024.97645,511.71319,1024.25794ZM825.2578,507.258c-.92622-185.66427-164.64734-332.73459-355.66228-305.81392C333.73768,220.59122,226.40615,328.05274,207.397,463.93,180.6183,655.344,328.54589,819.262,514.758,819.262q.78714,0,1.57434-.004h-.08111c171.18384-.50972,309.75769-139.39806,309.75769-310.652q0-.71053-.003-1.42211v.07411Z"/>
    <path class="a" d="M495.96292,643.16895c-1.943-1.793-3.735-3.138-5.23-4.781q-65.595-65.595-131.34-131.042c-4.93-4.93-3.884-7.471,0-11.654,13.298-12.851,26.746-25.999,39.446-39.446,5.379-5.827,8.517-4.632,13.448,0,25.252,25.7,51.102,50.952,76.205,76.802,5.678,5.827,8.816,5.379,14.942,0q74.71-74.71,149.42-149.42c11.654-11.654,11.654-11.654,22.862,0s22.862,23.31,34.815,34.516c4.632,4.333,5.081,6.873,0,11.654Q605.937,534.392,501.343,638.24a58.48437,58.48437,0,0,1-5.379,4.93Z"/>
  </g>
</svg>
