<svg xmlns="http://www.w3.org/2000/svg" viewBox="0 0 70 70" class="icon-arrows">
  <defs>
    <style>
    .icon-arrows .a {fill:#ffe000;}
    </style>
  </defs>
  <title>Arrows</title>
  <g>
    <path class="a" d="M56.6,13.3l-6.2,6.2c4.1,4.1,6.4,9.6,6.4,15.5c0,12.1-9.8,21.9-21.9,21.9v-4.4l-8.8,8.8L35,70v-4.4
      c16.9,0,30.6-13.7,30.6-30.6C65.6,26.8,62.4,19.1,56.6,13.3z"/>
    <path class="a" d="M43.8,8.8L35,0v4.4C18.1,4.4,4.4,18.1,4.4,35c0,8.2,3.2,15.9,9,21.7l6.2-6.2c-4.1-4.1-6.4-9.6-6.4-15.5
      c0-12.1,9.8-21.9,21.9-21.9v4.4L43.8,8.8z"/>
  </g>
</svg>
