<svg xmlns="http://www.w3.org/2000/svg" viewBox="0 0 208.024 205.98801">
  <defs>
    <style>
      .a {
        fill: #363636;
      }

      .b {
        fill: #1d4159;
      }
    </style>
  </defs>
  <title>No log</title>
  <g>
    <path class="a" d="M172.024,42.942V10h-148V186h3.4L17.312,196H14.024V0h168V33.05Zm-24,69.058H120.058l10.108-10h17.858ZM126.48,88H48.024V78h88.564ZM48.024,148h17.8L55.716,158H48.024Zm35.644,0h36.356v10H73.56Zm64.356-14h-50.2l10.108-10h40.092Zm-100-32h64.304l-10.104,10h-54.2Zm0,32V124H90.09L79.982,134Zm-2.766,52h88.748V147.982h38.018v-87.4l10-9.892v97.292h.02l-.02.018v.386l-10,10V158l-28.012,28h.386l-10,10H35.15Z"/>
    <path class="b" d="M10.146,205.988,0,195.764,197.878,0l10.146,10.224ZM14.024,0h100V54h-100ZM80.778,36.646A10.676,10.676,0,0,0,89.276,40a28.3378,28.3378,0,0,0,4.278-.32,26.894,26.894,0,0,0,4.47-1.108V25.484H88.268v4.454h4.656V35.2a16.41781,16.41781,0,0,1-3.312.346,5.61,5.61,0,0,1-4.766-2.166,10.268,10.268,0,0,1-1.64-6.276,9.2,9.2,0,0,1,2.034-6.268,6.828,6.828,0,0,1,5.412-2.332,12.104,12.104,0,0,1,5.6,1.382L97.984,15.6a17.844,17.844,0,0,0-7.296-1.554,12.728,12.728,0,0,0-9.44,3.418,12.918,12.918,0,0,0-3.4,9.532A14.222,14.222,0,0,0,80.778,36.646Zm-27.52,0A11.058,11.058,0,0,0,61.932,40a11.058,11.058,0,0,0,8.674-3.368A13.936,13.936,0,0,0,73.624,27a13.974,13.974,0,0,0-3-9.634,11.032,11.032,0,0,0-8.658-3.346,11.186,11.186,0,0,0-8.7,3.324,13.8,13.8,0,0,0-3.042,9.626,14,14,0,0,0,3.034,9.668ZM32,39.66H47.18V35.24H37.21V14.416H32ZM61.966,18.474q6.2,0,6.2,8.53T61.93,35.516a5.414,5.414,0,0,1-4.674-2.14,10.766,10.766,0,0,1-1.564-6.372,10.716,10.716,0,0,1,1.58-6.38A5.448,5.448,0,0,1,61.966,18.474Z"/>
  </g>
</svg>
