<svg xmlns="http://www.w3.org/2000/svg" viewBox="0 0 225.02802 225.00597">
  <defs>
    <style>
      .a {
        fill: #363636;
      }

      .b {
        fill: #1d4159;
      }
    </style>
  </defs>
  <title>Ok</title>
  <g>
    <path class="a" d="M109.116,13.972l8.534,6.494,5.132,3.904,5.87-2.664,9.764-4.432,6.24,8.72,3.752,5.244,6.4-.816,10.638-1.356,3.4,10.172,2.04,6.116,6.352,1.106,10.564,1.84.244,10.72.146,6.446,5.744,2.928,9.554,4.872-2.928,10.316-1.76,6.2,4.626,4.492,7.694,7.47-5.838,9-3.51,5.4,3.096,5.656,5.15,9.4-8.24,6.886-4.95,4.134,1.292,6.318,2.148,10.506-9.89,4.142-5.946,2.492-.628,6.418-1.044,10.67L172.09,183.81l-6.418.628-2.492,5.946-4.144,9.892-10.506-2.148-6.316-1.292-4.134,4.948-6.874,8.23-9.4-5.148-5.656-3.098-5.4,3.51-9,5.838-7.47-7.692-4.492-4.626-6.2,1.76-10.316,2.928-4.87-9.554-2.942-5.744-6.446-.146-10.72-.244-1.838-10.564-1.106-6.352-6.116-2.04-10.172-3.4,1.358-10.638.816-6.4-5.244-3.752-8.72-6.24,4.428-9.754,2.664-5.872-3.904-5.13-6.494-8.534,7.114-8.016,4.278-4.826L23.14,90.226,19.448,80.15l9.162-5.572,5.51-3.348-.336-6.44-.558-10.708,10.4-2.624,6.252-1.578,1.576-6.252,2.624-10.4,10.71.558,6.438.336,3.35-5.51,5.572-9.162,10.068,3.69,6.054,2.218,4.83-4.274,8.024-7.114M108.594.004l-14.666,13L75.528,6.26,65.348,23.006l-19.57-1.02-4.8,19-19,4.8,1.02,19.572L6.256,75.534,13,93.934,0,108.598l11.868,15.6-8.1,17.846,15.938,11.4-2.48,19.44,18.6,6.2,3.36,19.308,19.6.446,8.902,17.458,18.854-5.35,13.652,14.06,16.438-10.67,17.19,9.412,12.564-15.042,19.2,3.926,7.572-18.076,19.504-1.908,1.908-19.504,18.076-7.572-3.926-19.2,15.04-12.564-9.4-17.19,10.668-16.438-14.06-13.652,5.35-18.854L198.86,58.772l-.444-19.6-19.308-3.36-6.2-18.6L153.44,19.706,142.04,3.768l-17.846,8.1L108.594,0h0Z"/>
    <path class="b" d="M113.4,162.006a48.6,48.6,0,1,1,48.6-48.6h0A48.6,48.6,0,0,1,113.4,162.006Zm18.306-66.6-22.29,26.4-10.248-8.84-7.376,6.89,10.908,9.908-.118.14,7.4,6.908,28.626-33.924Z"/>
  </g>
</svg>
