<svg xmlns="http://www.w3.org/2000/svg" viewBox="0 0 172.8 224.996">
  <defs>
    <style>
      .a {
        fill: #363636;
      }

      .b {
        fill: #1d4159;
      }
    </style>
  </defs>
  <title>Anonym</title>
  <g>
    <path class="a" d="M107.766,215.994a33.4,33.4,0,0,1-21.228,8.972,1.11844,1.11844,0,0,1-.138.03h-.306a1.14447,1.14447,0,0,1-.14-.03A33.23,33.23,0,0,1,64.8,215.994c-18-15.748-61.65-39.6-64.8-102.6V28.796S7.958.086,86.094,0H86.4c78.418.086,86.4,28.8,86.4,28.8v84.6C169.638,176.394,125.83,200.246,107.766,215.994ZM160.2,35.656c-1.6-5.64-12.942-22.99-73.814-23.056h-.28c-60.624.066-71.92,17.418-73.506,23.052v77.42c2.286,43.57,26.248,70.06,45.51,82.676a136.58538,136.58538,0,0,1,14.986,10.764l.316.278.296.296a21.68,21.68,0,0,0,9.178,4.812L77.4,197.06l1.8-16.632L72,169.196l14.4,1.872,14.4-1.872-7.2,11.232,1.8,16.632-5.46,14.764a21.77012,21.77012,0,0,0,8.932-4.752l.298-.296.316-.276a136.83415,136.83415,0,0,1,15.036-10.762c19.334-12.618,43.384-39.11,45.678-82.666ZM95.69,156.594l-9.29-8.998-9.29,9s-29.962-1.238-31.588-1.8-13.78-12-16.722-21.6c6.2,5.4,18.58,12,24.154,12.6a113.21255,113.21255,0,0,0,14.864,0l7.038-9.1c2.222-2.87-5.18-8.91-5.18-8.91l16.724,5.41,16.722-5.4s-7.4,6.04-5.18,8.91l7.038,9.09a113.21255,113.21255,0,0,0,14.864,0c5.574-.6,17.962-7.2,24.154-12.6-2.942,9.6-15.096,21.038-16.722,21.6S95.69,156.594,95.69,156.594Z"/>
    <path class="b" d="M159.316,97.944c-9.534,17.566-22.33,19.046-31.558,19.046-24.912,0-27.64-16.944-42.48-17.092C72.242,101.526,68.616,116.8,44.966,116.8c-9.21,0-21.986-1.482-31.504-19A275.02949,275.02949,0,0,1,1.784,71.334c3.97-8.838,17.278-19.438,25.566-21.838,19.2-5.552,47.378,16.382,59.144,17.74,11.97-1.708,39.854-23.248,58.906-17.74,8.302,2.4,21.634,13.038,25.6,21.894A276.15655,276.15655,0,0,1,159.316,97.944ZM53.148,74.254c-11.094-1.642-16.548-.386-22,4.084,3.17,8.754,7.908,14.456,18.852,16.2a25.618,25.618,0,0,0,19.678-6.86C67.936,85.032,63.524,75.79,53.148,74.254Zm66.44-.534c-10.334,1.57-14.73,11.012-16.458,13.72a25.138,25.138,0,0,0,19.6,7.01c10.902-1.786,15.62-7.612,18.778-16.558-5.44-4.566-10.87-5.85-21.922-4.174Z"/>
  </g>
</svg>
