<svg xmlns="http://www.w3.org/2000/svg" viewBox="0 0 150 228" class="mouse">
  <defs>
    <style>
      .mouse .a {
        fill: #688492;
      }

      .mouse .b {
        fill: #ffed00;
      }
    </style>
  </defs>
  <title>Mouse</title>
  <g>
    <path class="a" d="M78,228H72A72,72,0,0,1,0,156V72A72,72,0,0,1,72,0h6a72,72,0,0,1,72,72v84A72,72,0,0,1,78,228ZM78,18H72A54.06,54.06,0,0,0,18,72v6H48v6H18v72a54.06,54.06,0,0,0,54,54h6a54.06,54.06,0,0,0,54-54V84H102V78h30V72A54.06,54.06,0,0,0,78,18Z"/>
    <rect class="b" x="60" y="54" width="30" height="60" rx="12" ry="12"/>
  </g>
</svg>
