<svg width="170" height="33" viewBox="0 0 170 33" fill="none" xmlns="http://www.w3.org/2000/svg">
  <path fill-rule="evenodd" clip-rule="evenodd" d="M157.075 4.85498H156.315C149.203 4.85498 143.39 10.7888 143.39 18.0422V18.8128C143.39 26.0663 149.203 32.0001 156.315 32.0001H157.075C164.187 32.0001 170 26.0615 170 18.8128V18.0422C170 10.7888 164.187 4.85498 157.075 4.85498ZM157.075 9.50278C161.689 9.50278 165.438 13.3318 165.438 18.0374V18.808C165.438 23.5136 161.684 27.3378 157.075 27.3378H156.315C151.701 27.3378 147.952 23.5088 147.952 18.808V18.0374C147.952 13.327 151.706 9.50278 156.315 9.50278H157.075Z" fill="#FFDD00"/>
  <path d="M141 9.09814H141.058V31.9952H136.491V14.0001H133V9.00009H141V9.09814Z" fill="#FFDD00"/>
  <path d="M80.6225 9.6478C85.2314 9.6478 88.9856 13.4768 88.9856 18.1824V18.953C88.9856 23.6586 85.2314 27.4828 80.6225 27.4828H79.8622C75.2486 27.4828 71.4944 23.6538 71.4944 18.953V18.1824C71.4944 13.472 75.2486 9.6478 79.8622 9.6478H80.6225ZM80.6225 5H79.8622C72.7506 5 66.9375 10.9338 66.9375 18.1872V18.9579C66.9375 26.2113 72.7506 32.1451 79.8622 32.1451H80.6225C87.7294 32.1451 93.5472 26.2113 93.5472 18.9579V18.1872C93.5519 10.9338 87.7294 5 80.6225 5Z" fill="#4B5D66"/>
  <path d="M93.5508 0.154053H88.9844V18.4226H93.5508V0.154053Z" fill="#4B5D66"/>
  <path d="M102.699 8.98242H98.1328V31.8747H102.699V8.98242Z" fill="#4B5D66"/>
  <path d="M120.928 8.98242H109V13.635H120.928V8.98242Z" fill="#4B5D66"/>
  <path d="M54.6023 27.3675H53.8469C52.2985 27.3675 50.8581 26.9267 49.6147 26.1698L61.739 13.7956C61.739 13.7956 61.739 13.7956 61.739 13.8004L65 10.4709C62.6587 7.17495 58.8675 5 54.5977 5H53.8422C46.7806 5 41 10.9021 41 18.1167V18.8832C41 26.0979 46.7806 32 53.8422 32H54.5977C58.1965 32 61.4575 30.4574 63.7941 28.0046L60.5941 24.7374C59.088 26.3566 56.9625 27.3675 54.6023 27.3675ZM45.5326 18.1167C45.5326 13.4315 49.2628 9.62775 53.8422 9.62775H54.5977C55.9865 9.62775 57.2909 9.99184 58.4405 10.6146L46.4897 22.8211C45.8798 21.6427 45.5326 20.3013 45.5326 18.8832V18.1167Z" fill="#4B5D66"/>
  <path d="M119.925 27.3423C115.311 27.3423 111.562 23.5133 111.562 18.8125V0.192383H107V18.8125C107 26.066 112.813 31.9997 119.925 31.9997H127.15V27.3423H119.925Z" fill="#4B5D66"/>
  <path d="M100.413 5.65435C101.902 5.65435 103.11 4.42307 103.11 2.9042C103.11 1.38534 101.902 0.154053 100.413 0.154053C98.924 0.154053 97.7168 1.38534 97.7168 2.9042C97.7168 4.42307 98.924 5.65435 100.413 5.65435Z" fill="#4B5D66"/>
  <path d="M39 5H38.604C31.6734 5 26 10.9021 26 18.1167V32H30.4485V18.1167C30.4485 13.4315 34.1049 9.62775 38.604 9.62775H39V5Z" fill="#4B5D66"/>
  <path d="M4.5773 18.7889V13.2063C4.5773 8.49216 8.33959 4.66104 12.969 4.66104H12.9832C16.3949 4.66104 19.3232 6.7503 20.6357 9.73221L24 6.30639C21.7114 2.53317 17.6316 -7.04615e-09 12.9832 -7.04615e-09H12.969C5.83771 -7.04615e-09 0 5.94451 0 13.2063V18.7889C0 26.0169 5.77611 31.9276 12.86 31.9904V32H12.969H12.9832H22.0099V27.3341H12.969C8.34432 27.3341 4.5773 23.4982 4.5773 18.7889Z" fill="#4B5D66"/>
</svg>