<svg xmlns="http://www.w3.org/2000/svg" xmlns:xlink="http://www.w3.org/1999/xlink" viewBox="0 0 58.92 34.37">
  <defs>
    <style>
      .a {
        fill: none;
      }

      .b {
        clip-path: url(#a);
      }

      .c {
        fill: #bc0030;
      }

      .d {
        fill: #f1d62f;
      }
    </style>
    <clipPath id="a" transform="translate(-809.88 -28.99)">
      <rect class="a" x="809.88" y="28.99" width="58.92" height="34.37"/>
    </clipPath>
  </defs>
  <title>Angola</title>
  <g class="b">
    <rect class="c" width="58.92" height="34.37"/>
    <rect y="17.18" width="58.92" height="17.19"/>
    <polygon class="d" points="26.84 16.59 28.65 15.27 30.47 16.59 29.78 14.46 31.6 13.13 29.35 13.13 28.65 11 27.96 13.13 25.71 13.13 27.53 14.46 26.84 16.59"/>
    <g class="b">
      <path class="d" d="M848.22,56.14a5,5,0,0,0-1-1.13c-0.43-.38-1-0.8-1.46-1.23l-0.84,1a0.1,0.1,0,0,0,0,.14,2.73,2.73,0,0,1,1.61.81c0.5,0.51.71,1.13,1,1.35,0.61,0.42,1-.3.65-0.93M846,54.58a0.11,0.11,0,1,1,.12-0.12,0.12,0.12,0,0,1-.12.12m0.85,0.74a0.11,0.11,0,1,1,0-.23,0.11,0.11,0,1,1,0,.23m0.75,0.76a0.11,0.11,0,0,1-.12-0.12,0.11,0.11,0,1,1,.12.12" transform="translate(-809.88 -28.99)"/>
      <path class="d" d="M840.71,52.52a6.62,6.62,0,0,1-6.41-1.18l-1,1.19a8.6,8.6,0,0,0,1.33.9l-0.34.63a8.92,8.92,0,0,0,1.62.67l0.2-.67a8,8,0,0,0,1.58.33l-0.07.68a9,9,0,0,0,1.75,0l-0.07-.68a8,8,0,0,0,1.59-.31l0.2,0.65c0.28-.08.55-0.18,0.82-0.29L841.58,53Z" transform="translate(-809.88 -28.99)"/>
      <path class="d" d="M845.23,46.18a6.7,6.7,0,0,1-2.37,5.12l1.88,1.3a8.94,8.94,0,0,0,.7-0.75l-0.53-.43a8.35,8.35,0,0,0,.9-1.35l0.6,0.32a9,9,0,0,0,.67-1.62l-0.66-.2a8.21,8.21,0,0,0,.31-1.59l0.68,0.07a9,9,0,0,0,0-1.75l-0.68.07a8.2,8.2,0,0,0-.32-1.59l0.66-.2a8.94,8.94,0,0,0-.67-1.62l-0.61.33a8.29,8.29,0,0,0-.9-1.34l0.55-.45a9.12,9.12,0,0,0-1.24-1.24l-0.46.56a8.21,8.21,0,0,0-1.34-.89l0.34-.64a9.05,9.05,0,0,0-1.62-.67l-0.21.7a8.34,8.34,0,0,0-1.53-.31l-0.16,1.53a6.68,6.68,0,0,1,6,6.63" transform="translate(-809.88 -28.99)"/>
      <path class="d" d="M842.62,52.2a46.92,46.92,0,0,1-5.14-4,0,0,0,0,1,0,0,0,0,0,0,1,.05,0,46.42,46.42,0,0,0,5.13,4c0.87,0.62,1.78,1.25,2.63,1.9l0.27-.32c-2.95-2.1-9.91-6.94-10-8.71a3.46,3.46,0,0,0,1.49,4.93c2.86,1.63,4.76,2.7,7.74,4.68l0.46-.53c-0.85-.64-1.76-1.28-2.63-1.89" transform="translate(-809.88 -28.99)"/>
    </g>
  </g>
</svg>