<svg xmlns="http://www.w3.org/2000/svg" xmlns:xlink="http://www.w3.org/1999/xlink" viewBox="0 0 58.92 34.37">
  <defs>
    <style>
      .a {
        fill: none;
      }

      .b {
        clip-path: url(#a);
      }

      .c {
        fill: #fff;
      }

      .d {
        fill: #80a7d8;
      }

      .e {
        fill: #f1bd51;
      }

      .f {
        fill: #7a361d;
      }
    </style>
    <clipPath id="a" transform="translate(-1092.64 -28.99)">
      <rect class="a" x="1092.64" y="28.99" width="58.92" height="34.37"/>
    </clipPath>
  </defs>
  <title>Argentina</title>
  <g class="b">
    <rect class="c" y="11.46" width="58.92" height="11.46"/>
    <rect class="d" width="58.92" height="11.46"/>
    <rect class="d" y="22.91" width="58.92" height="11.46"/>
    <g class="b">
      <path class="e" d="M1121.87,46.18l0.18,4.69s0,0.09.06,0.09,0.06-.09.06-0.09l0.18-4.69h-0.47Z" transform="translate(-1092.64 -28.99)"/>
      <path class="f" d="M1122.1,51a0.09,0.09,0,0,1-.07-0.1l-0.18-4.69h0l0.18,4.69s0,0.07,0,.07,0-.07,0-0.07l0.18-4.69-0.15,4.69a0.09,0.09,0,0,1-.07.1h0Z" transform="translate(-1092.64 -28.99)"/>
      <polygon class="f" points="29.35 17.18 29.46 20.4 29.58 17.18 29.35 17.18"/>
      <path class="e" d="M1121.66,47.69c-0.27.59,0,1.07-.31,1.59a2.07,2.07,0,0,0-.12,1.17,3.39,3.39,0,0,1-.16.36c0,0.05.25-.05,0.33-0.37a2.35,2.35,0,0,1,.21-1.12c0.32-.63.07-0.92,0.39-1.48Z" transform="translate(-1092.64 -28.99)"/>
      <path class="f" d="M1121.12,50.84l-0.06,0s0-.07,0-0.11a0.42,0.42,0,0,0,.12-0.26,1.41,1.41,0,0,0,0-.23,1.52,1.52,0,0,1,.13-1,1.67,1.67,0,0,0,.15-0.76,2,2,0,0,1,.16-0.83h0a2,2,0,0,0-.15.82,1.69,1.69,0,0,1-.15.77,1.49,1.49,0,0,0-.13.94,1.47,1.47,0,0,1,0,.23,0.46,0.46,0,0,1-.13.28s0,0.06,0,.07a0.42,0.42,0,0,0,.3-0.36,0.93,0.93,0,0,0,0-.29,1.44,1.44,0,0,1,.2-0.84,1.74,1.74,0,0,0,.19-0.76,1.51,1.51,0,0,1,.2-0.72,1.83,1.83,0,0,0-.17.73,1.8,1.8,0,0,1-.2.77,1.42,1.42,0,0,0-.19.82,1,1,0,0,1,0,.3,0.5,0.5,0,0,1-.28.39h0Z" transform="translate(-1092.64 -28.99)"/>
      <path class="f" d="M1121.73,47.84a8.36,8.36,0,0,1-.27,1.47c0.31-.36.11-0.82,0.38-1.42Z" transform="translate(-1092.64 -28.99)"/>
      <path class="e" d="M1122.34,46.18l-0.18-4.69s0-.09-0.06-0.09-0.06.09-.06,0.09l-0.18,4.69h0.47Z" transform="translate(-1092.64 -28.99)"/>
      <path class="f" d="M1122.32,46.18l-0.18-4.69s0-.07,0-0.07,0,0.07,0,.07l-0.18,4.69,0.15-4.69a0.09,0.09,0,0,1,.07-0.1,0.09,0.09,0,0,1,.07.1l0.18,4.68h0Z" transform="translate(-1092.64 -28.99)"/>
      <polygon class="f" points="29.58 17.18 29.46 13.97 29.35 17.18 29.58 17.18"/>
      <path class="e" d="M1122.54,44.67c0.27-.59,0-1.07.3-1.59a2.08,2.08,0,0,0,.12-1.17,2.92,2.92,0,0,1,.16-0.36c0-.06-0.25.05-0.33,0.37a2.32,2.32,0,0,1-.21,1.13c-0.32.63-.07,0.92-0.39,1.48Z" transform="translate(-1092.64 -28.99)"/>
      <path class="f" d="M1122.56,44.67h0a2,2,0,0,0,.15-0.81,1.67,1.67,0,0,1,.15-0.77,1.51,1.51,0,0,0,.13-0.93,1.31,1.31,0,0,1,0-.24,0.44,0.44,0,0,1,.13-0.28s0-.05,0-0.07a0.41,0.41,0,0,0-.31.36,1,1,0,0,0,0,.29,1.42,1.42,0,0,1-.2.84,1.74,1.74,0,0,0-.19.76,1.48,1.48,0,0,1-.2.72,1.86,1.86,0,0,0,.17-0.73,1.76,1.76,0,0,1,.2-0.77,1.41,1.41,0,0,0,.2-0.82,0.93,0.93,0,0,1,0-.3,0.51,0.51,0,0,1,.28-0.39h0l0.06,0s0,0.06,0,.1a0.42,0.42,0,0,0-.12.26,1.43,1.43,0,0,0,0,.23,1.52,1.52,0,0,1-.13,1,1.64,1.64,0,0,0-.15.76,2,2,0,0,1-.15.82h0Z" transform="translate(-1092.64 -28.99)"/>
      <path class="f" d="M1122.47,44.52a8.59,8.59,0,0,1,.27-1.47,6.92,6.92,0,0,0-.38,1.42Z" transform="translate(-1092.64 -28.99)"/>
      <path class="e" d="M1122.1,45.94l-4.69.18s-0.09,0-.09.06,0.09,0.06.09,0.06l4.69,0.18V45.94Z" transform="translate(-1092.64 -28.99)"/>
      <path class="f" d="M1122.1,46.4l-4.69-.15a0.08,0.08,0,1,1,0-.15l4.69-.18v0l-4.69.18s-0.07,0-.07,0,0.07,0,.07,0l4.69,0.18h0Z" transform="translate(-1092.64 -28.99)"/>
      <polygon class="f" points="29.46 17.07 26.24 17.18 29.46 17.3 29.46 17.07"/>
      <path class="e" d="M1120.59,45.74c-0.59-.27-1.07,0-1.58-0.31a2.07,2.07,0,0,0-1.18-.12,3.33,3.33,0,0,1-.36-0.16c-0.05,0,.05.25,0.37,0.33a2.3,2.3,0,0,1,1.12.21c0.63,0.32.92,0.07,1.48,0.39Z" transform="translate(-1092.64 -28.99)"/>
      <path class="f" d="M1120.45,46.07a1.86,1.86,0,0,0-.73-0.17,1.78,1.78,0,0,1-.77-0.2,1.41,1.41,0,0,0-.82-0.2,1,1,0,0,1-.3,0,0.51,0.51,0,0,1-.39-0.28h0l0-.06s0.07,0,.1,0a0.44,0.44,0,0,0,.26.12h0.23a1.54,1.54,0,0,1,1,.13,1.64,1.64,0,0,0,.76.15,2,2,0,0,1,.83.16v0a2,2,0,0,0-.81-0.15,1.67,1.67,0,0,1-.77-0.16,1.52,1.52,0,0,0-.94-0.13h-0.23a0.45,0.45,0,0,1-.28-0.13s-0.06,0-.07,0a0.42,0.42,0,0,0,.36.3,1,1,0,0,0,.29,0,1.43,1.43,0,0,1,.84.2,1.76,1.76,0,0,0,.76.19,1.49,1.49,0,0,1,.72.2h0Z" transform="translate(-1092.64 -28.99)"/>
      <path class="f" d="M1120.44,45.81a8.81,8.81,0,0,1-1.47-.27c0.36,0.31.82,0.11,1.42,0.38Z" transform="translate(-1092.64 -28.99)"/>
      <path class="e" d="M1122.1,46.42l4.69-.18s0.09,0,.09-0.06-0.09-.06-0.09-0.06l-4.69-.18v0.47Z" transform="translate(-1092.64 -28.99)"/>
      <path class="f" d="M1122.1,46.43v0l4.69-.18s0.07,0,.07,0-0.07,0-.07,0L1122.1,46l4.69,0.15a0.08,0.08,0,1,1,0,.15l-4.68.18h0Z" transform="translate(-1092.64 -28.99)"/>
      <polygon class="f" points="29.46 17.3 32.68 17.18 29.46 17.07 29.46 17.3"/>
      <path class="e" d="M1123.62,46.62c0.59,0.27,1.07,0,1.59.31a2.06,2.06,0,0,0,1.17.12,3.19,3.19,0,0,1,.36.16c0.05,0-.05-0.25-0.37-0.33a2.32,2.32,0,0,1-1.12-.21c-0.63-.32-0.92-0.07-1.48-0.39Z" transform="translate(-1092.64 -28.99)"/>
      <path class="f" d="M1126.71,47.23a0.14,0.14,0,0,1-.08,0,0.42,0.42,0,0,0-.26-0.12h-0.23a1.52,1.52,0,0,1-1-.13,1.65,1.65,0,0,0-.76-0.15,2,2,0,0,1-.82-0.16v0a2,2,0,0,0,.81.15,1.68,1.68,0,0,1,.77.16,1.51,1.51,0,0,0,.93.13h0.24a0.45,0.45,0,0,1,.28.13s0.05,0,.07,0a0.42,0.42,0,0,0-.36-0.3,1,1,0,0,0-.29,0,1.4,1.4,0,0,1-.84-0.2,1.77,1.77,0,0,0-.76-0.19,1.48,1.48,0,0,1-.72-0.2,1.84,1.84,0,0,0,.72.17,1.81,1.81,0,0,1,.77.2,1.4,1.4,0,0,0,.82.19,0.93,0.93,0,0,1,.3,0,0.5,0.5,0,0,1,.39.28h0l0,0.06h0Z" transform="translate(-1092.64 -28.99)"/>
      <path class="f" d="M1123.77,46.55a9.05,9.05,0,0,1,1.47.27,7,7,0,0,0-1.42-.38Z" transform="translate(-1092.64 -28.99)"/>
      <path class="e" d="M1121.93,46l-3.19,3.44s-0.06.06,0,.1,0.11,0,.11,0l3.44-3.19Z" transform="translate(-1092.64 -28.99)"/>
      <path class="f" d="M1118.76,49.58a0.08,0.08,0,0,1,0-.14l3.19-3.44,0,0-3.19,3.44s-0.05.05,0,.08,0.08,0,.08,0l3.44-3.19-3.42,3.21a0.14,0.14,0,0,1-.08,0h0Z" transform="translate(-1092.64 -28.99)"/>
      <polygon class="f" points="29.38 17.1 27.19 19.46 29.55 17.27 29.38 17.1"/>
      <path class="e" d="M1120.72,46.94c-0.61.23-.78,0.73-1.34,0.9a2.05,2.05,0,0,0-.92.75,2.91,2.91,0,0,1-.37.14c0,0.07.21,0.14,0.49,0a2.34,2.34,0,0,1,.95-0.64c0.68-.22.69-0.6,1.32-0.77Z" transform="translate(-1092.64 -28.99)"/>
      <path class="f" d="M1118.26,48.82a0.27,0.27,0,0,1-.13,0l0-.06s0,0,.1,0a0.42,0.42,0,0,0,.27-0.1,1.29,1.29,0,0,0,.15-0.17,1.55,1.55,0,0,1,.77-0.58,1.66,1.66,0,0,0,.65-0.43,2,2,0,0,1,.69-0.47v0a2,2,0,0,0-.68.47,1.69,1.69,0,0,1-.66.44,1.51,1.51,0,0,0-.76.57,1.55,1.55,0,0,1-.15.17,0.45,0.45,0,0,1-.29.1c-0.05,0-.07,0-0.07,0a0.42,0.42,0,0,0,.47,0,1,1,0,0,0,.22-0.19,1.43,1.43,0,0,1,.73-0.45,1.76,1.76,0,0,0,.67-0.4,1.5,1.5,0,0,1,.65-0.37,1.84,1.84,0,0,0-.63.39,1.76,1.76,0,0,1-.68.4,1.4,1.4,0,0,0-.72.44,1,1,0,0,1-.23.2,0.69,0.69,0,0,1-.34.11h0Z" transform="translate(-1092.64 -28.99)"/>
      <path class="f" d="M1120.66,47.1a8.76,8.76,0,0,1-1.23.85,7.1,7.1,0,0,0,1.27-.74Z" transform="translate(-1092.64 -28.99)"/>
      <path class="e" d="M1122.27,46.35l3.19-3.44s0.06-.06,0-0.1-0.11,0-.11,0L1121.93,46Z" transform="translate(-1092.64 -28.99)"/>
      <path class="f" d="M1122.28,46.36l0,0,3.19-3.44s0.05-.05,0-0.08-0.08,0-.08,0L1121.94,46l3.42-3.21a0.09,0.09,0,0,1,.13,0,0.09,0.09,0,0,1,0,.12l-3.19,3.44h0Z" transform="translate(-1092.64 -28.99)"/>
      <polygon class="f" points="29.55 17.27 31.74 14.91 29.38 17.1 29.55 17.27"/>
      <path class="e" d="M1123.49,45.42c0.61-.23.78-0.73,1.34-0.9a2.08,2.08,0,0,0,.92-0.75,3.42,3.42,0,0,1,.37-0.14c0-.07-0.22-0.14-0.49,0a2.33,2.33,0,0,1-.95.64c-0.67.22-.69,0.6-1.32,0.77Z" transform="translate(-1092.64 -28.99)"/>
      <path class="f" d="M1123.49,45.44v0a2,2,0,0,0,.68-0.47,1.69,1.69,0,0,1,.66-0.44,1.51,1.51,0,0,0,.75-0.57,1.58,1.58,0,0,1,.16-0.18,0.45,0.45,0,0,1,.29-0.1c0.05,0,.07,0,0.07,0a0.42,0.42,0,0,0-.47,0,1,1,0,0,0-.22.19,1.43,1.43,0,0,1-.73.45,1.76,1.76,0,0,0-.67.4,1.49,1.49,0,0,1-.65.37,1.85,1.85,0,0,0,.63-0.39,1.77,1.77,0,0,1,.68-0.4,1.4,1.4,0,0,0,.72-0.45,1,1,0,0,1,.23-0.2,0.51,0.51,0,0,1,.47-0.08l0,0.06s0,0-.1.05a0.42,0.42,0,0,0-.27.1,1.16,1.16,0,0,0-.15.17,1.53,1.53,0,0,1-.77.58,1.67,1.67,0,0,0-.65.43,2,2,0,0,1-.69.47h0Z" transform="translate(-1092.64 -28.99)"/>
      <path class="f" d="M1123.54,45.26a8.79,8.79,0,0,1,1.23-.85,7,7,0,0,0-1.27.74Z" transform="translate(-1092.64 -28.99)"/>
      <path class="e" d="M1122.27,46l-3.44-3.19s-0.06-.06-0.11,0,0,0.1,0,.1l3.19,3.44Z" transform="translate(-1092.64 -28.99)"/>
      <path class="f" d="M1121.95,46.34l-3.21-3.42a0.09,0.09,0,0,1,0-.12,0.09,0.09,0,0,1,.13,0l3.44,3.19,0,0-3.44-3.19s-0.05-.05-0.08,0,0,0.08,0,.08l3.19,3.44h0Z" transform="translate(-1092.64 -28.99)"/>
      <polygon class="f" points="29.55 17.1 27.19 14.91 29.38 17.27 29.55 17.1"/>
      <path class="e" d="M1121.34,44.8c-0.23-.61-0.73-0.79-0.9-1.34a2.07,2.07,0,0,0-.75-0.91,3.16,3.16,0,0,1-.14-0.37c-0.07,0-.14.22,0,0.49a2.32,2.32,0,0,1,.64.95c0.22,0.67.6,0.7,0.77,1.32Z" transform="translate(-1092.64 -28.99)"/>
      <path class="f" d="M1121,44.93a1.83,1.83,0,0,0-.39-0.63,1.79,1.79,0,0,1-.4-0.68,1.39,1.39,0,0,0-.45-0.72,1,1,0,0,1-.2-0.23,0.51,0.51,0,0,1-.07-0.48l0.06,0s0,0,.05.1a0.42,0.42,0,0,0,.1.27,1.21,1.21,0,0,0,.17.15,1.52,1.52,0,0,1,.58.77,1.67,1.67,0,0,0,.43.64,2,2,0,0,1,.47.69h0a2,2,0,0,0-.47-0.68,1.7,1.7,0,0,1-.44-0.66,1.49,1.49,0,0,0-.57-0.75,1.25,1.25,0,0,1-.17-0.16,0.45,0.45,0,0,1-.11-0.29c0-.05,0-0.07,0-0.07a0.42,0.42,0,0,0,0,.47,1,1,0,0,0,.19.22,1.42,1.42,0,0,1,.45.73,1.74,1.74,0,0,0,.4.67,1.5,1.5,0,0,1,.37.65h0Z" transform="translate(-1092.64 -28.99)"/>
      <path class="f" d="M1121.19,44.74a8.85,8.85,0,0,1-.85-1.23c0,0.47.51,0.65,0.74,1.27Z" transform="translate(-1092.64 -28.99)"/>
      <path class="e" d="M1121.93,46.35l3.44,3.19s0.06,0.06.11,0,0-.1,0-0.1L1122.27,46Z" transform="translate(-1092.64 -28.99)"/>
      <path class="f" d="M1125.44,49.57a0.11,0.11,0,0,1-.08,0l-3.44-3.19,0,0,3.44,3.19s0.05,0.05.08,0,0-.08,0-0.08L1122.26,46l3.21,3.42a0.09,0.09,0,0,1,0,.12h0Z" transform="translate(-1092.64 -28.99)"/>
      <polygon class="f" points="29.38 17.27 31.74 19.46 29.55 17.1 29.38 17.27"/>
      <path class="e" d="M1122.86,47.56c0.23,0.61.73,0.78,0.9,1.34a2.05,2.05,0,0,0,.75.91,3,3,0,0,1,.14.37c0.07,0,.14-0.21,0-0.49a2.33,2.33,0,0,1-.64-0.95c-0.22-.68-0.6-0.7-0.77-1.32Z" transform="translate(-1092.64 -28.99)"/>
      <path class="f" d="M1124.64,50.2s0,0,0-.1a0.44,0.44,0,0,0-.1-0.27,1.39,1.39,0,0,0-.17-0.15,1.52,1.52,0,0,1-.58-0.77,1.66,1.66,0,0,0-.43-0.65,2,2,0,0,1-.47-0.69h0a2,2,0,0,0,.47.68,1.69,1.69,0,0,1,.44.66,1.5,1.5,0,0,0,.57.75,1.25,1.25,0,0,1,.17.15,0.45,0.45,0,0,1,.1.29c0,0.06,0,.07,0,0.07a0.41,0.41,0,0,0,0-.47,1,1,0,0,0-.19-0.22,1.43,1.43,0,0,1-.45-0.73,1.77,1.77,0,0,0-.4-0.67,1.48,1.48,0,0,1-.37-0.65,1.83,1.83,0,0,0,.39.63,1.78,1.78,0,0,1,.4.68,1.4,1.4,0,0,0,.44.72,1,1,0,0,1,.2.23,0.51,0.51,0,0,1,.07.47l-0.06,0h0Z" transform="translate(-1092.64 -28.99)"/>
      <path class="f" d="M1123,47.62a8.76,8.76,0,0,1,.85,1.23c0-.47-0.5-0.65-0.74-1.27Z" transform="translate(-1092.64 -28.99)"/>
      <path class="e" d="M1121.88,46.09l-1.63,4.4s0,0.08,0,.1,0.09-.06.09-0.06l2-4.26Z" transform="translate(-1092.64 -28.99)"/>
      <path class="f" d="M1120.32,50.61a0.08,0.08,0,0,1-.08-0.12l1.63-4.4h0l-1.63,4.4s0,0.07,0,.09l0.07-.05,2-4.26-1.93,4.27a0.14,0.14,0,0,1-.06.07h0Z" transform="translate(-1092.64 -28.99)"/>
      <polygon class="f" points="29.36 17.14 28.23 20.16 29.57 17.23 29.36 17.14"/>
      <path class="e" d="M1121.11,47.41c-0.47.44-.45,1-0.89,1.35a2.09,2.09,0,0,0-.56,1,3.6,3.6,0,0,1-.29.27c0,0.07.25,0,.44-0.21a2.38,2.38,0,0,1,.63-1c0.54-.46.41-0.82,0.93-1.22Z" transform="translate(-1092.64 -28.99)"/>
      <path class="f" d="M1119.45,50.11h0l-0.06,0s0-.06.07-0.08a0.42,0.42,0,0,0,.21-0.19,1.18,1.18,0,0,0,.08-0.22,1.52,1.52,0,0,1,.49-0.83,1.68,1.68,0,0,0,.43-0.64,2,2,0,0,1,.46-0.7l0,0a2,2,0,0,0-.45.69,1.67,1.67,0,0,1-.44.65,1.5,1.5,0,0,0-.48.81,1.39,1.39,0,0,1-.08.22,0.45,0.45,0,0,1-.23.21s-0.06,0-.06,0a0.41,0.41,0,0,0,.42-0.22,0.92,0.92,0,0,0,.13-0.26,1.46,1.46,0,0,1,.5-0.7,1.75,1.75,0,0,0,.47-0.63,1.51,1.51,0,0,1,.46-0.59,1.9,1.9,0,0,0-.43.61,1.76,1.76,0,0,1-.47.63,1.43,1.43,0,0,0-.49.69,1,1,0,0,1-.13.27,0.55,0.55,0,0,1-.38.25h0Z" transform="translate(-1092.64 -28.99)"/>
      <path class="f" d="M1121.13,47.58a8.69,8.69,0,0,1-.82,1.26c0.43-.21.41-0.71,0.9-1.17Z" transform="translate(-1092.64 -28.99)"/>
      <path class="e" d="M1122.32,46.27l1.63-4.4s0-.08,0-0.1-0.09.06-.09,0.06l-2,4.26Z" transform="translate(-1092.64 -28.99)"/>
      <path class="f" d="M1122.33,46.27h0l1.63-4.4s0-.07,0-0.08l-0.07.05-2,4.26,1.93-4.27a0.14,0.14,0,0,1,.06-0.07l0.08,0a0.15,0.15,0,0,1,0,.09l-1.63,4.4h0Z" transform="translate(-1092.64 -28.99)"/>
      <polygon class="f" points="29.57 17.23 30.69 14.21 29.36 17.14 29.57 17.23"/>
      <path class="e" d="M1123.09,45c0.47-.44.45-1,0.89-1.35a2.06,2.06,0,0,0,.56-1,3.1,3.1,0,0,1,.29-0.27c0-.07-0.25,0-0.45.21a2.35,2.35,0,0,1-.63,1c-0.54.46-.41,0.82-0.93,1.22Z" transform="translate(-1092.64 -28.99)"/>
      <path class="f" d="M1123.1,45l0,0a2,2,0,0,0,.45-0.69,1.72,1.72,0,0,1,.44-0.66,1.48,1.48,0,0,0,.48-0.81,1.17,1.17,0,0,1,.08-0.22,0.45,0.45,0,0,1,.23-0.21s0.06,0,.06,0a0.42,0.42,0,0,0-.42.22,1,1,0,0,0-.13.26,1.45,1.45,0,0,1-.5.7,1.75,1.75,0,0,0-.47.62,1.5,1.5,0,0,1-.46.59,1.87,1.87,0,0,0,.43-0.61,1.75,1.75,0,0,1,.47-0.63,1.42,1.42,0,0,0,.49-0.69,1,1,0,0,1,.13-0.27,0.5,0.5,0,0,1,.41-0.25l0.06,0s0,0.06-.07.08a0.42,0.42,0,0,0-.21.19,1.34,1.34,0,0,0-.08.22,1.51,1.51,0,0,1-.49.83,1.65,1.65,0,0,0-.43.64,2,2,0,0,1-.46.7h0Z" transform="translate(-1092.64 -28.99)"/>
      <path class="f" d="M1123.08,44.78a8.92,8.92,0,0,1,.81-1.26c-0.43.21-.41,0.72-0.89,1.17Z" transform="translate(-1092.64 -28.99)"/>
      <path class="e" d="M1122.19,46l-4.39-1.63a0.09,0.09,0,0,0-.11,0c0,0.06.06,0.09,0.06,0.09l4.26,2Z" transform="translate(-1092.64 -28.99)"/>
      <path class="f" d="M1122,46.38l-4.28-1.93a0.09,0.09,0,0,1-.06-0.11,0.09,0.09,0,0,1,.12,0l4.39,1.63v0l-4.4-1.63s-0.07,0-.09,0,0.05,0.07.05,0.07l4.26,2h0Z" transform="translate(-1092.64 -28.99)"/>
      <polygon class="f" points="29.51 17.08 26.49 15.95 29.42 17.3 29.51 17.08"/>
      <path class="e" d="M1120.87,45.19c-0.44-.48-1-0.45-1.35-0.89a2,2,0,0,0-1-.56,2.89,2.89,0,0,1-.27-0.29c-0.07,0,0,.25.21,0.45a2.34,2.34,0,0,1,1,.63c0.46,0.54.82,0.41,1.22,0.93Z" transform="translate(-1092.64 -28.99)"/>
      <path class="f" d="M1120.62,45.45A1.84,1.84,0,0,0,1120,45a1.79,1.79,0,0,1-.63-0.47,1.42,1.42,0,0,0-.69-0.49,1,1,0,0,1-.27-0.13,0.51,0.51,0,0,1-.25-0.41l0-.06s0.06,0,.08.07a0.43,0.43,0,0,0,.2.21l0.21,0.07a1.52,1.52,0,0,1,.83.49,1.67,1.67,0,0,0,.64.43,2,2,0,0,1,.71.46l0,0a2,2,0,0,0-.7-0.45,1.7,1.7,0,0,1-.65-0.44,1.49,1.49,0,0,0-.82-0.48l-0.22-.07a0.45,0.45,0,0,1-.21-0.23s0-.07,0-0.06a0.42,0.42,0,0,0,.22.42,1,1,0,0,0,.26.13,1.43,1.43,0,0,1,.7.5,1.75,1.75,0,0,0,.63.47,1.51,1.51,0,0,1,.59.46h0Z" transform="translate(-1092.64 -28.99)"/>
      <path class="f" d="M1120.71,45.2a8.37,8.37,0,0,1-1.26-.81c0.21,0.43.71,0.41,1.17,0.89Z" transform="translate(-1092.64 -28.99)"/>
      <path class="e" d="M1122,46.4l4.4,1.63s0.08,0,.1,0-0.06-.09-0.06-0.09l-4.26-2Z" transform="translate(-1092.64 -28.99)"/>
      <path class="f" d="M1126.46,48.05h-0.05L1122,46.41v0l4.39,1.63s0.07,0,.09,0-0.05-.07-0.05-0.07l-4.26-2,4.28,1.93a0.09,0.09,0,0,1,.07.11,0.07,0.07,0,0,1-.07,0h0Z" transform="translate(-1092.64 -28.99)"/>
      <polygon class="f" points="29.42 17.3 32.43 18.42 29.51 17.08 29.42 17.3"/>
      <path class="e" d="M1123.33,47.17c0.44,0.48,1,.45,1.35.89a2,2,0,0,0,1,.56c0.21,0.11.2,0.31,0.27,0.29s0-.25-0.21-0.44a2.32,2.32,0,0,1-1-.63c-0.46-.54-0.82-0.41-1.22-0.93Z" transform="translate(-1092.64 -28.99)"/>
      <path class="f" d="M1126,48.92a0.1,0.1,0,0,1-.07-0.08,0.43,0.43,0,0,0-.2-0.21l-0.21-.07a1.52,1.52,0,0,1-.83-0.49,1.68,1.68,0,0,0-.65-0.43,2,2,0,0,1-.7-0.46l0,0a2,2,0,0,0,.69.45,1.69,1.69,0,0,1,.66.44,1.49,1.49,0,0,0,.81.48l0.22,0.08a0.45,0.45,0,0,1,.21.23c0,0.05,0,.06,0,0.06a0.41,0.41,0,0,0-.22-0.42,0.93,0.93,0,0,0-.26-0.13,1.43,1.43,0,0,1-.7-0.5,1.76,1.76,0,0,0-.62-0.47,1.51,1.51,0,0,1-.59-0.46,1.85,1.85,0,0,0,.61.43,1.77,1.77,0,0,1,.63.48,1.41,1.41,0,0,0,.69.49,1,1,0,0,1,.27.13,0.51,0.51,0,0,1,.25.41l0,0.06h0Z" transform="translate(-1092.64 -28.99)"/>
      <path class="f" d="M1123.5,47.16a8.37,8.37,0,0,1,1.26.81c-0.21-.42-0.71-0.41-1.17-0.89Z" transform="translate(-1092.64 -28.99)"/>
      <path class="e" d="M1122,46l-4.26,2s-0.08,0-.06.09,0.11,0,.11,0l4.39-1.63Z" transform="translate(-1092.64 -28.99)"/>
      <path class="f" d="M1117.74,48.05a0.07,0.07,0,0,1-.07,0,0.09,0.09,0,0,1,.07-0.11l4.26-2v0l-4.26,2s-0.07,0-.05.07,0.08,0,.09,0l4.4-1.63L1117.8,48h-0.05Z" transform="translate(-1092.64 -28.99)"/>
      <polygon class="f" points="29.42 17.08 26.49 18.42 29.51 17.3 29.42 17.08"/>
      <path class="e" d="M1120.53,46.35c-0.65,0-1,.37-1.58.32a2.07,2.07,0,0,0-1.13.34,2.83,2.83,0,0,1-.39,0c0,0.07.14,0.21,0.47,0.16a2.32,2.32,0,0,1,1.12-.23c0.71,0.06.87-.29,1.52-0.21V46.35Z" transform="translate(-1092.64 -28.99)"/>
      <path class="f" d="M1117.77,47.19a0.44,0.44,0,0,1-.35-0.12V47s0.06,0,.11,0a0.44,0.44,0,0,0,.29,0l0.21-.1a1.53,1.53,0,0,1,.93-0.24,1.6,1.6,0,0,0,.76-0.15,2,2,0,0,1,.82-0.17v0a2.05,2.05,0,0,0-.81.17,1.71,1.71,0,0,1-.77.15,1.52,1.52,0,0,0-.92.24l-0.21.1a0.45,0.45,0,0,1-.31,0c-0.05,0-.07,0-0.08,0a0.42,0.42,0,0,0,.45.14,1,1,0,0,0,.28-0.09,1.44,1.44,0,0,1,.85-0.14,1.71,1.71,0,0,0,.77-0.11,1.5,1.5,0,0,1,.75-0.09,1.72,1.72,0,0,0-.74.12,1.8,1.8,0,0,1-.79.11,1.4,1.4,0,0,0-.83.13,1,1,0,0,1-.29.1h-0.12Z" transform="translate(-1092.64 -28.99)"/>
      <path class="f" d="M1120.42,46.48a8.55,8.55,0,0,1-1.47.32c0.45,0.15.79-.21,1.46-0.19V46.48Z" transform="translate(-1092.64 -28.99)"/>
      <path class="e" d="M1122.19,46.4l4.26-2s0.08,0,.06-0.09-0.1,0-.1,0L1122,46Z" transform="translate(-1092.64 -28.99)"/>
      <path class="f" d="M1122.2,46.41v0l4.26-2s0.07,0,.05-0.07-0.08,0-.08,0L1122,46l4.38-1.66a0.08,0.08,0,1,1,.06.14l-4.26,2h0Z" transform="translate(-1092.64 -28.99)"/>
      <polygon class="f" points="29.51 17.3 32.43 15.95 29.42 17.08 29.51 17.3"/>
      <path class="e" d="M1123.67,46c0.65,0,1-.37,1.58-0.32a2.06,2.06,0,0,0,1.13-.34,3.35,3.35,0,0,1,.39,0c0-.07-0.14-0.21-0.47-0.16a2.31,2.31,0,0,1-1.12.23c-0.71-.06-0.87.29-1.52,0.2V46Z" transform="translate(-1092.64 -28.99)"/>
      <path class="f" d="M1123.73,46h-0.06v0a2,2,0,0,0,.81-0.17,1.7,1.7,0,0,1,.78-0.15,1.5,1.5,0,0,0,.92-0.24l0.21-.1a0.45,0.45,0,0,1,.31,0c0.05,0,.07,0,0.07,0a0.41,0.41,0,0,0-.45-0.14,1,1,0,0,0-.28.1,1.44,1.44,0,0,1-.85.14,1.77,1.77,0,0,0-.77.11,1.5,1.5,0,0,1-.75.09,1.84,1.84,0,0,0,.74-0.12,1.81,1.81,0,0,1,.78-0.11,1.43,1.43,0,0,0,.83-0.14,1,1,0,0,1,.29-0.1,0.5,0.5,0,0,1,.47.11v0.07s-0.06,0-.11,0a0.42,0.42,0,0,0-.29,0l-0.2.1a1.54,1.54,0,0,1-.94.24,1.64,1.64,0,0,0-.76.15,2.09,2.09,0,0,1-.76.17h0Z" transform="translate(-1092.64 -28.99)"/>
      <path class="f" d="M1123.78,45.88a8.91,8.91,0,0,1,1.46-.32,7.1,7.1,0,0,0-1.46.2v0.12Z" transform="translate(-1092.64 -28.99)"/>
      <path class="e" d="M1122.32,46.09l-2-4.26s0-.08-0.09-0.06,0,0.1,0,.1l1.63,4.4Z" transform="translate(-1092.64 -28.99)"/>
      <path class="f" d="M1121.9,46.26l-1.66-4.39a0.14,0.14,0,0,1,0-.09l0.08,0a0.14,0.14,0,0,1,.06.07l2,4.26h0l-2-4.33h0v0.08l1.63,4.4h0Z" transform="translate(-1092.64 -28.99)"/>
      <polygon class="f" points="29.57 17.14 28.23 14.21 29.36 17.23 29.57 17.14"/>
      <path class="e" d="M1121.93,44.61c0-.65-0.38-1-0.32-1.59a2,2,0,0,0-.34-1.13,3.29,3.29,0,0,1,0-.39c-0.07,0-.21.15-0.16,0.47a2.34,2.34,0,0,1,.23,1.12c-0.06.71,0.29,0.87,0.2,1.52h0.38Z" transform="translate(-1092.64 -28.99)"/>
      <path class="f" d="M1121.95,44.61h0a2,2,0,0,0-.17-0.81,1.7,1.7,0,0,1-.15-0.77,1.47,1.47,0,0,0-.24-0.91,1.6,1.6,0,0,1-.1-0.21,0.46,0.46,0,0,1,0-.31s0-.07,0-0.08a0.41,0.41,0,0,0-.14.45,0.9,0.9,0,0,0,.09.28,1.45,1.45,0,0,1,.14.85,1.77,1.77,0,0,0,.11.77,1.51,1.51,0,0,1,.1.74,1.86,1.86,0,0,0-.12-0.73,1.81,1.81,0,0,1-.11-0.78,1.41,1.41,0,0,0-.13-0.83,0.94,0.94,0,0,1-.1-0.29,0.51,0.51,0,0,1,.11-0.47l0.07,0s0,0.06,0,.11a0.44,0.44,0,0,0,0,.29,1.27,1.27,0,0,0,.1.2,1.51,1.51,0,0,1,.24.93,1.65,1.65,0,0,0,.15.76,2.07,2.07,0,0,1,.17.82h0Z" transform="translate(-1092.64 -28.99)"/>
      <path class="f" d="M1121.8,44.5a8.34,8.34,0,0,1-.31-1.46c-0.16.45,0.21,0.8,0.19,1.46h0.12Z" transform="translate(-1092.64 -28.99)"/>
      <path class="e" d="M1121.88,46.27l2,4.26s0,0.08.09,0.06,0-.1,0-0.1l-1.63-4.4Z" transform="translate(-1092.64 -28.99)"/>
      <path class="f" d="M1123.93,50.61a0.14,0.14,0,0,1-.11-0.07l-2-4.26h0l2,4.26s0,0.07.07,0.05,0-.08,0-0.09l-1.63-4.4,1.66,4.39a0.09,0.09,0,0,1,0,.12h0Z" transform="translate(-1092.64 -28.99)"/>
      <polygon class="f" points="29.36 17.23 30.69 20.16 29.57 17.14 29.36 17.23"/>
      <path class="e" d="M1122.27,47.75c0,0.65.38,1,.32,1.58a2.06,2.06,0,0,0,.34,1.13,2.89,2.89,0,0,1,0,.39c0.07,0,.21-0.15.17-0.47a2.3,2.3,0,0,1-.23-1.12c0.06-.71-0.29-0.87-0.21-1.52h-0.37Z" transform="translate(-1092.64 -28.99)"/>
      <path class="f" d="M1122.91,50.87s0-.06,0-0.11a0.41,0.41,0,0,0,0-.29,1.29,1.29,0,0,0-.1-0.21,1.54,1.54,0,0,1-.24-0.93,1.67,1.67,0,0,0-.15-0.76,2,2,0,0,1-.17-0.82h0a2,2,0,0,0,.17.81,1.66,1.66,0,0,1,.15.77,1.51,1.51,0,0,0,.24.92,1.35,1.35,0,0,1,.1.21,0.43,0.43,0,0,1,0,.31s0,0.07,0,.08a0.42,0.42,0,0,0,.14-0.45,1,1,0,0,0-.09-0.28,1.43,1.43,0,0,1-.14-0.85,1.76,1.76,0,0,0-.11-0.77,1.49,1.49,0,0,1-.09-0.74,1.87,1.87,0,0,0,.12.74,1.78,1.78,0,0,1,.11.78,1.42,1.42,0,0,0,.13.83,1,1,0,0,1,.1.28,0.51,0.51,0,0,1-.11.47h-0.07Z" transform="translate(-1092.64 -28.99)"/>
      <path class="f" d="M1122.4,47.86a8.76,8.76,0,0,1,.32,1.47,7.16,7.16,0,0,0-.2-1.46h-0.12Z" transform="translate(-1092.64 -28.99)"/>
      <path class="e" d="M1122.1,44.27a1.91,1.91,0,1,1-1.91,1.91,1.91,1.91,0,0,1,1.91-1.91h0Z" transform="translate(-1092.64 -28.99)"/>
      <path class="f" d="M1122.1,48.11a1.92,1.92,0,1,1,1.92-1.93,1.93,1.93,0,0,1-1.92,1.93h0Zm0-3.82a1.9,1.9,0,1,0,1.89,1.89,1.9,1.9,0,0,0-1.89-1.89h0Z" transform="translate(-1092.64 -28.99)"/>
      <path class="f" d="M1123.3,45.77a0.76,0.76,0,0,0-1-.12,0.62,0.62,0,0,0,0,.78l-0.06,0a1,1,0,0,1-.07-0.84,0.7,0.7,0,0,1,1.09.15h0Z" transform="translate(-1092.64 -28.99)"/>
      <path class="f" d="M1122.78,45.68a0.4,0.4,0,0,0-.32.12,0.38,0.38,0,0,1-.15.07s0,0.06,0,0a0.93,0.93,0,0,0,.17-0.12,0.37,0.37,0,0,1,.27-0.07,0.86,0.86,0,0,1,.44.21,0.47,0.47,0,0,0-.44-0.25h0Z" transform="translate(-1092.64 -28.99)"/>
      <path class="f" d="M1123.11,45.93a0.44,0.44,0,0,0-.69,0h0.06a0.34,0.34,0,0,1,.53,0v0h0.1Z" transform="translate(-1092.64 -28.99)"/>
      <path class="f" d="M1122.75,45.78a0.13,0.13,0,1,1-.13.13,0.13,0.13,0,0,1,.13-0.13h0Z" transform="translate(-1092.64 -28.99)"/>
      <path class="f" d="M1122.42,45.94a0.59,0.59,0,0,0,.69,0H1123a0.39,0.39,0,0,1-.53,0v0Z" transform="translate(-1092.64 -28.99)"/>
      <path class="f" d="M1123.13,46a0.58,0.58,0,0,1-.65.09c-0.14-.09-0.14-0.12-0.12-0.12a0.74,0.74,0,0,1,.18.09,0.73,0.73,0,0,0,.59-0.06h0Z" transform="translate(-1092.64 -28.99)"/>
      <path class="f" d="M1122.41,46.44a0.09,0.09,0,0,1,.05.11,0.09,0.09,0,0,1-.11.05,0.09,0.09,0,0,1-.06-0.08,0.22,0.22,0,0,1-.19.12h0l0,0a0.31,0.31,0,0,0,.18,0,0.14,0.14,0,0,0,.19,0,0.14,0.14,0,0,0,0-.19,0.14,0.14,0,0,0-.09-0.05h0Z" transform="translate(-1092.64 -28.99)"/>
      <path class="f" d="M1122.59,47.06a0.68,0.68,0,0,0-.34-0.22,0.41,0.41,0,0,0-.15,0h0l0,0a0.36,0.36,0,0,1,.25,0,2,2,0,0,0,.23.15h0Z" transform="translate(-1092.64 -28.99)"/>
      <path class="f" d="M1122.54,47.06a0.79,0.79,0,0,0-.44,0h0l0,0.06a0.92,0.92,0,0,1,.44,0h0Z" transform="translate(-1092.64 -28.99)"/>
      <path class="f" d="M1122.59,47.06a2,2,0,0,0-.48.16h0l0,0a2.72,2.72,0,0,0,.48-0.21h0Z" transform="translate(-1092.64 -28.99)"/>
      <path class="f" d="M1122.37,47.53a0.26,0.26,0,1,0-.53,0,0.27,0.27,0,0,1,.53,0h0Z" transform="translate(-1092.64 -28.99)"/>
      <path class="f" d="M1120.9,45.77a0.76,0.76,0,0,1,1-.12,0.62,0.62,0,0,1,0,.78l0.06,0a1,1,0,0,0,.07-0.84,0.71,0.71,0,0,0-1.09.15h0Z" transform="translate(-1092.64 -28.99)"/>
      <path class="f" d="M1121.43,45.68a0.39,0.39,0,0,1,.32.12,0.39,0.39,0,0,0,.15.07s0,0.06,0,0a0.92,0.92,0,0,1-.18-0.12,0.37,0.37,0,0,0-.26-0.07,0.85,0.85,0,0,0-.44.21,0.46,0.46,0,0,1,.44-0.25h0Z" transform="translate(-1092.64 -28.99)"/>
      <path class="f" d="M1121.09,45.93a0.44,0.44,0,0,1,.69,0h-0.06a0.34,0.34,0,0,0-.53,0v0h-0.1Z" transform="translate(-1092.64 -28.99)"/>
      <path class="f" d="M1121.46,45.78a0.13,0.13,0,1,0,.13.13,0.13,0.13,0,0,0-.13-0.13h0Z" transform="translate(-1092.64 -28.99)"/>
      <path class="f" d="M1121.78,45.94a0.59,0.59,0,0,1-.69,0h0.1a0.38,0.38,0,0,0,.53,0v0Z" transform="translate(-1092.64 -28.99)"/>
      <path class="f" d="M1121.07,46a0.58,0.58,0,0,0,.65.09c0.15-.09.15-0.12,0.12-0.12a0.7,0.7,0,0,0-.18.09,0.73,0.73,0,0,1-.59-0.06h0Z" transform="translate(-1092.64 -28.99)"/>
      <path class="f" d="M1121.79,46.44a0.09,0.09,0,1,0,.12.09,0.22,0.22,0,0,0,.19.12h0l0,0a0.32,0.32,0,0,1-.18,0,0.13,0.13,0,0,1-.18,0,0.14,0.14,0,0,1,0-.19,0.14,0.14,0,0,1,.08-0.05h0Z" transform="translate(-1092.64 -28.99)"/>
      <path class="f" d="M1121.62,47.06a0.67,0.67,0,0,1,.34-0.22,0.41,0.41,0,0,1,.15,0h0l0,0a0.36,0.36,0,0,0-.25,0,2.36,2.36,0,0,1-.23.15h0Z" transform="translate(-1092.64 -28.99)"/>
      <path class="f" d="M1121.66,47.06a0.79,0.79,0,0,1,.44,0h0l0,0.06a0.92,0.92,0,0,0-.44,0h0Z" transform="translate(-1092.64 -28.99)"/>
      <path class="f" d="M1121.62,47.06a2,2,0,0,1,.48.16h0l0,0a2.6,2.6,0,0,1-.48-0.21h0Z" transform="translate(-1092.64 -28.99)"/>
      <path class="f" d="M1121.84,47.53a0.26,0.26,0,1,1,.53,0,0.27,0.27,0,0,0-.53,0h0Z" transform="translate(-1092.64 -28.99)"/>
    </g>
  </g>
</svg>