<svg xmlns="http://www.w3.org/2000/svg" xmlns:xlink="http://www.w3.org/1999/xlink" viewBox="0 0 58.92 34.37">
  <defs>
    <style>
      .a {
        fill: none;
      }

      .b {
        clip-path: url(#a);
      }

      .c {
        fill: #180087;
      }

      .d {
        fill: #fff;
      }

      .e {
        fill: #ea0020;
      }
    </style>
    <clipPath id="a" transform="translate(-175.26 -85.01)">
      <rect class="a" x="175.26" y="85.01" width="58.92" height="34.37"/>
    </clipPath>
  </defs>
  <title>Australia</title>
  <g class="b">
    <rect class="c" width="58.92" height="34.37"/>
    <polygon class="d" points="15.5 21.06 16.4 23.85 19.14 22.81 17.52 25.25 20.04 26.75 17.12 27 17.52 29.9 15.5 27.78 13.48 29.9 13.89 27 10.97 26.75 13.49 25.25 11.87 22.81 14.61 23.85 15.5 21.06"/>
    <polygon class="d" points="46.51 26.08 46.93 27.41 48.24 26.91 47.47 28.07 48.66 28.79 47.27 28.91 47.47 30.29 46.51 29.28 45.55 30.29 45.73 28.91 44.35 28.79 45.55 28.07 44.77 26.91 46.08 27.41 46.51 26.08"/>
    <polygon class="d" points="38.76 13.81 39.18 15.14 40.49 14.64 39.71 15.8 40.91 16.51 39.52 16.64 39.72 18.02 38.76 17.01 37.79 18.02 37.98 16.64 36.6 16.51 37.8 15.8 37.02 14.64 38.33 15.14 38.76 13.81"/>
    <polygon class="d" points="46.51 5.41 46.93 6.74 48.24 6.25 47.47 7.41 48.66 8.12 47.27 8.24 47.47 9.62 46.51 8.61 45.55 9.62 45.73 8.24 44.35 8.12 45.55 7.41 44.77 6.25 46.08 6.74 46.51 5.41"/>
    <polygon class="d" points="53.4 11.74 53.82 13.07 55.13 12.57 54.35 13.74 55.55 14.45 54.16 14.57 54.36 15.95 53.4 14.94 52.44 15.95 52.63 14.57 51.23 14.45 52.44 13.74 51.66 12.57 52.97 13.07 53.4 11.74"/>
    <polygon class="d" points="49.61 17.96 49.94 18.79 50.84 18.85 50.15 19.43 50.37 20.3 49.61 19.83 48.85 20.3 49.06 19.43 48.38 18.85 49.27 18.79 49.61 17.96"/>
    <polygon class="d" points="12.92 0 12.92 5.17 0 5.17 0 10.34 12.92 10.34 12.92 15.5 18.09 15.5 18.09 10.34 31 10.34 31 5.17 18.09 5.17 18.09 0 12.92 0"/>
    <polygon class="d" points="0 0 0 1.73 27.54 15.5 31 15.5 31 13.77 3.47 0 0 0"/>
    <polygon class="d" points="27.54 0 0 13.77 0 15.5 3.47 15.5 31 1.73 31 0 27.54 0"/>
    <polygon class="e" points="13.95 0 13.95 6.2 0 6.2 0 9.3 13.95 9.3 13.95 15.5 17.05 15.5 17.05 9.3 31 9.3 31 6.2 17.05 6.2 17.05 0 13.95 0"/>
    <path class="e" d="M175.26,85v1.16l8,4h2.31ZM204,85l-10.33,5.17h2.31L206.26,85H204Z" transform="translate(-175.26 -85.01)"/>
    <path class="e" d="M185.59,95.34l-10.33,5.17h2.31l10.33-5.17h-2.31Zm10.33,0,10.34,5.17V99.36l-8-4h-2.31Z" transform="translate(-175.26 -85.01)"/>
  </g>
</svg>
