<svg xmlns="http://www.w3.org/2000/svg" xmlns:xlink="http://www.w3.org/1999/xlink" viewBox="0 0 58.92 34.37">
  <defs>
    <style>
      .a {
        fill: none;
      }

      .b {
        clip-path: url(#a);
      }

      .c, .g {
        fill: #3c9242;
      }

      .d {
        fill: #edc226;
      }

      .e {
        fill: #2d146e;
      }

      .f {
        fill: #fff;
      }

      .g {
        fill-rule: evenodd;
      }
    </style>
    <clipPath id="a" transform="translate(-387.33 -140.8)">
      <rect class="a" x="387.33" y="140.8" width="58.92" height="34.37"/>
    </clipPath>
  </defs>
  <title>Brazil</title>
  <g class="b">
    <rect class="c" width="58.92" height="34.37"/>
    <polygon class="d" points="9.08 17.18 29.46 30.2 49.84 17.18 29.46 4.17 9.08 17.18"/>
    <g class="b">
      <path class="e" d="M425.38,158a8.59,8.59,0,1,1-8.59-8.59,8.6,8.6,0,0,1,8.59,8.59" transform="translate(-387.33 -140.8)"/>
      <path class="f" d="M411.88,154.3a21.18,21.18,0,0,0-3,.21,9.08,9.08,0,0,0-.46,1.31,19.9,19.9,0,0,1,3.41-.29,19.57,19.57,0,0,1,13.11,5,8.7,8.7,0,0,0,.3-1.36,20.78,20.78,0,0,0-13.42-4.89" transform="translate(-387.33 -140.8)"/>
      <path class="g" d="M409.46,155.47a0.41,0.41,0,1,0-.42-0.36,0.39,0.39,0,0,0,.42.36m0-.15a0.26,0.26,0,1,0-.25-0.23,0.24,0.24,0,0,0,.25.23" transform="translate(-387.33 -140.8)"/>
      <path class="g" d="M410.13,155.4h0.15l0-.3,0.32,0a0.26,0.26,0,1,0,0-.51l-0.47,0Zm0.12-.47,0.31,0a0.11,0.11,0,0,0,.1-0.11,0.1,0.1,0,0,0-.11-0.1l-0.32,0Z" transform="translate(-387.33 -140.8)"/>
      <path class="c" d="M410.82,155.35c0-.12,0-0.37-0.2-0.36l-0.22,0a0.3,0.3,0,0,1,.28.35" transform="translate(-387.33 -140.8)"/>
      <path class="g" d="M411.16,155.33h0.38a0.35,0.35,0,0,0,.35-0.36v-0.12a0.35,0.35,0,0,0-.36-0.34h-0.39Zm0.15-.15h0.22a0.22,0.22,0,0,0,.22-0.23v-0.07a0.22,0.22,0,0,0-.23-0.22H411.3v0.52Z" transform="translate(-387.33 -140.8)"/>
      <polygon class="c" points="24.88 14.52 25.61 14.55 25.62 14.4 25.02 14.38 25.03 14.17 25.5 14.18 25.5 14.04 25.03 14.03 25.04 13.86 25.6 13.88 25.61 13.73 24.9 13.71 24.88 14.52"/>
      <polygon class="c" points="25.91 14.57 26.05 14.58 26.1 14.02 26.22 14.6 26.35 14.61 26.56 14.06 26.51 14.62 26.65 14.63 26.72 13.82 26.52 13.8 26.3 14.35 26.19 13.77 25.99 13.75 25.91 14.57"/>
      <polygon class="c" points="27.61 14.76 28.21 14.86 28.24 14.73 27.77 14.64 27.8 14.46 28.18 14.53 28.21 14.39 27.83 14.32 27.85 14.2 28.3 14.28 28.33 14.14 27.73 14.03 27.61 14.76"/>
      <path class="g" d="M416.49,155.86l0.15,0,0.08-.29,0.32,0.08a0.26,0.26,0,1,0,.13-0.5l-0.45-.12Zm0.26-.4,0.31,0.08a0.11,0.11,0,0,0,.05-0.2l-0.3-.08Z" transform="translate(-387.33 -140.8)"/>
      <path class="g" d="M417.49,156.13l0.14,0,0.09-.29L418,156a0.26,0.26,0,1,0,.16-0.49l-0.45-.14Zm0.28-.39,0.3,0.09a0.11,0.11,0,1,0,.06-0.2l-0.3-.09Z" transform="translate(-387.33 -140.8)"/>
      <path class="c" d="M418.16,156.34c0-.11.11-0.36-0.05-0.41l-0.21-.07a0.3,0.3,0,0,1,.13.43" transform="translate(-387.33 -140.8)"/>
      <path class="g" d="M418.83,156.58a0.41,0.41,0,1,0-.2-0.51,0.39,0.39,0,0,0,.2.51m0.05-.14a0.26,0.26,0,1,0-.11-0.32,0.24,0.24,0,0,0,.11.32" transform="translate(-387.33 -140.8)"/>
      <path class="g" d="M419.79,157a0.41,0.41,0,1,0-.17-0.52,0.39,0.39,0,0,0,.17.52m0.06-.14a0.26,0.26,0,1,0-.1-0.32,0.24,0.24,0,0,0,.1.32" transform="translate(-387.33 -140.8)"/>
      <polygon class="c" points="32.68 15.82 32.97 15.94 32.92 16.05 32.63 15.93 32.68 15.82"/>
      <rect class="c" x="419.95" y="156.85" width="0.41" height="0.12" transform="translate(-276.45 340.91) rotate(-66.88)"/>
      <path class="g" d="M420.4,157.24l0.14,0.07,0.14-.27,0.29,0.15a0.26,0.26,0,0,0,.35-0.11,0.26,0.26,0,0,0-.12-0.35l-0.42-.21Zm0.34-.34L421,157a0.1,0.1,0,0,0,.14,0,0.11,0.11,0,0,0,0-.14l-0.28-.14Z" transform="translate(-387.33 -140.8)"/>
      <path class="c" d="M421,157.55c0.05-.1.17-0.33,0-0.41l-0.2-.1a0.3,0.3,0,0,1,.06.45" transform="translate(-387.33 -140.8)"/>
      <polygon class="c" points="34 16.92 34.64 17.28 34.72 17.15 34.2 16.85 34.3 16.67 34.71 16.9 34.78 16.78 34.37 16.55 34.45 16.41 34.94 16.68 35.02 16.55 34.41 16.2 34 16.92"/>
      <path class="c" d="M422.52,158.12c0,0.07,0,.15.1,0.21s0.17,0.06.19,0-0.43-.35-0.27-0.59,0.37,0,.46,0a0.27,0.27,0,0,1,.12.37L423,158a0.14,0.14,0,0,0-.08-0.19c-0.07-.05-0.14-0.07-0.18,0s0.43,0.33.28,0.57a0.3,0.3,0,0,1-.45,0,0.32,0.32,0,0,1-.17-0.41Z" transform="translate(-387.33 -140.8)"/>
      <path class="c" d="M423.4,158.7c0,0.07,0,.15.09,0.21s0.16,0.07.19,0-0.41-.37-0.24-0.6,0.38,0,.46,0a0.27,0.27,0,0,1,.1.38l-0.15-.1a0.14,0.14,0,0,0-.07-0.2c-0.07-.05-0.13-0.08-0.18,0s0.41,0.35.24,0.59a0.3,0.3,0,0,1-.45,0,0.32,0.32,0,0,1-.15-0.42Z" transform="translate(-387.33 -140.8)"/>
      <path class="g" d="M424.23,159.64a0.41,0.41,0,1,0,0-.55,0.39,0.39,0,0,0,0,.55m0.1-.12a0.26,0.26,0,1,0,0-.34,0.24,0.24,0,0,0,0,.34" transform="translate(-387.33 -140.8)"/>
      <polygon class="f" points="22.45 15.27 22.33 15.62 22.51 15.68 22.45 15.27"/>
      <polygon class="f" points="22.45 15.27 22.56 15.62 22.39 15.68 22.45 15.27"/>
      <polygon class="f" points="22.8 15.53 22.43 15.53 22.43 15.71 22.8 15.53"/>
      <polygon class="f" points="22.8 15.53 22.5 15.74 22.39 15.6 22.8 15.53"/>
      <polygon class="f" points="22.1 15.53 22.39 15.74 22.5 15.6 22.1 15.53"/>
      <polygon class="f" points="22.1 15.53 22.47 15.53 22.47 15.71 22.1 15.53"/>
      <polygon class="f" points="22.66 15.94 22.55 15.59 22.38 15.65 22.66 15.94"/>
      <polygon class="f" points="22.66 15.94 22.37 15.72 22.47 15.57 22.66 15.94"/>
      <polygon class="f" points="22.23 15.94 22.53 15.72 22.42 15.57 22.23 15.94"/>
      <polygon class="f" points="22.23 15.94 22.34 15.59 22.52 15.65 22.23 15.94"/>
      <polygon class="f" points="23.21 18.89 23.09 19.24 23.27 19.29 23.21 18.89"/>
      <polygon class="f" points="23.21 18.89 23.32 19.24 23.15 19.29 23.21 18.89"/>
      <polygon class="f" points="23.56 19.14 23.19 19.14 23.19 19.32 23.56 19.14"/>
      <polygon class="f" points="23.56 19.14 23.26 19.36 23.15 19.21 23.56 19.14"/>
      <polygon class="f" points="22.86 19.14 23.15 19.36 23.26 19.21 22.86 19.14"/>
      <polygon class="f" points="22.86 19.14 23.23 19.14 23.23 19.32 22.86 19.14"/>
      <polygon class="f" points="23.42 19.55 23.31 19.2 23.14 19.26 23.42 19.55"/>
      <polygon class="f" points="23.42 19.55 23.13 19.34 23.23 19.19 23.42 19.55"/>
      <polygon class="f" points="22.99 19.55 23.29 19.34 23.18 19.19 22.99 19.55"/>
      <polygon class="f" points="22.99 19.55 23.11 19.2 23.28 19.26 22.99 19.55"/>
      <polygon class="f" points="22.16 19.78 22.08 20.01 22.2 20.05 22.16 19.78"/>
      <polygon class="f" points="22.16 19.78 22.23 20.01 22.11 20.05 22.16 19.78"/>
      <polygon class="f" points="22.39 19.95 22.14 19.95 22.14 20.07 22.39 19.95"/>
      <polygon class="f" points="22.39 19.95 22.19 20.09 22.12 20 22.39 19.95"/>
      <polygon class="f" points="21.92 19.95 22.12 20.09 22.19 20 21.92 19.95"/>
      <polygon class="f" points="21.92 19.95 22.17 19.95 22.17 20.07 21.92 19.95"/>
      <polygon class="f" points="22.3 20.23 22.23 19.99 22.11 20.03 22.3 20.23"/>
      <polygon class="f" points="22.3 20.23 22.1 20.08 22.17 19.98 22.3 20.23"/>
      <polygon class="f" points="22.01 20.23 22.21 20.08 22.14 19.98 22.01 20.23"/>
      <polygon class="f" points="22.01 20.23 22.09 19.99 22.2 20.03 22.01 20.23"/>
      <polygon class="f" points="24.05 18.55 24 18.72 24.08 18.75 24.05 18.55"/>
      <polygon class="f" points="24.05 18.55 24.1 18.72 24.02 18.75 24.05 18.55"/>
      <polygon class="f" points="24.22 18.68 24.04 18.68 24.04 18.76 24.22 18.68"/>
      <polygon class="f" points="24.22 18.68 24.07 18.78 24.02 18.71 24.22 18.68"/>
      <polygon class="f" points="23.88 18.68 24.02 18.78 24.08 18.71 23.88 18.68"/>
      <polygon class="f" points="23.88 18.68 24.06 18.68 24.06 18.76 23.88 18.68"/>
      <polygon class="f" points="24.15 18.87 24.1 18.7 24.02 18.73 24.15 18.87"/>
      <polygon class="f" points="24.15 18.87 24.01 18.77 24.06 18.7 24.15 18.87"/>
      <polygon class="f" points="23.95 18.87 24.09 18.77 24.04 18.7 23.95 18.87"/>
      <polygon class="f" points="23.95 18.87 24 18.7 24.08 18.73 23.95 18.87"/>
      <polygon class="f" points="25 19.8 24.9 20.09 25.05 20.14 25 19.8"/>
      <polygon class="f" points="25 19.8 25.09 20.09 24.95 20.14 25 19.8"/>
      <polygon class="f" points="25.29 20.01 24.98 20.01 24.98 20.17 25.29 20.01"/>
      <polygon class="f" points="25.29 20.01 25.04 20.19 24.95 20.07 25.29 20.01"/>
      <polygon class="f" points="24.7 20.01 24.95 20.19 25.04 20.07 24.7 20.01"/>
      <polygon class="f" points="24.7 20.01 25.01 20.01 25.01 20.17 24.7 20.01"/>
      <polygon class="f" points="25.18 20.36 25.08 20.07 24.93 20.11 25.18 20.36"/>
      <polygon class="f" points="25.18 20.36 24.93 20.18 25.02 20.05 25.18 20.36"/>
      <polygon class="f" points="24.82 20.36 25.06 20.18 24.97 20.05 24.82 20.36"/>
      <polygon class="f" points="24.82 20.36 24.91 20.07 25.06 20.11 24.82 20.36"/>
      <polygon class="f" points="24.74 20.65 24.64 20.95 24.79 21 24.74 20.65"/>
      <polygon class="f" points="24.74 20.65 24.83 20.95 24.69 21 24.74 20.65"/>
      <polygon class="f" points="25.03 20.87 24.72 20.87 24.72 21.02 25.03 20.87"/>
      <polygon class="f" points="25.03 20.87 24.78 21.05 24.69 20.92 25.03 20.87"/>
      <polygon class="f" points="24.45 20.87 24.7 21.05 24.79 20.92 24.45 20.87"/>
      <polygon class="f" points="24.45 20.87 24.75 20.87 24.75 21.02 24.45 20.87"/>
      <polygon class="f" points="24.92 21.21 24.82 20.92 24.68 20.96 24.92 21.21"/>
      <polygon class="f" points="24.92 21.21 24.67 21.03 24.76 20.91 24.92 21.21"/>
      <polygon class="f" points="24.56 21.21 24.81 21.03 24.72 20.91 24.56 21.21"/>
      <polygon class="f" points="24.56 21.21 24.65 20.92 24.8 20.96 24.56 21.21"/>
      <polygon class="f" points="32.13 14.15 32.01 14.5 32.19 14.56 32.13 14.15"/>
      <polygon class="f" points="32.13 14.15 32.24 14.5 32.07 14.56 32.13 14.15"/>
      <polygon class="f" points="32.48 14.4 32.11 14.4 32.11 14.59 32.48 14.4"/>
      <polygon class="f" points="32.48 14.4 32.18 14.62 32.07 14.47 32.48 14.4"/>
      <polygon class="f" points="31.78 14.4 32.07 14.62 32.18 14.47 31.78 14.4"/>
      <polygon class="f" points="31.78 14.4 32.15 14.4 32.15 14.59 31.78 14.4"/>
      <polygon class="f" points="32.34 14.82 32.23 14.47 32.05 14.52 32.34 14.82"/>
      <polygon class="f" points="32.34 14.82 32.05 14.6 32.15 14.45 32.34 14.82"/>
      <polygon class="f" points="31.91 14.82 32.21 14.6 32.1 14.45 31.91 14.82"/>
      <polygon class="f" points="31.91 14.82 32.02 14.47 32.2 14.52 31.91 14.82"/>
      <polygon class="f" points="35.48 19.83 35.37 20.18 35.55 20.24 35.48 19.83"/>
      <polygon class="f" points="35.48 19.83 35.6 20.18 35.42 20.24 35.48 19.83"/>
      <polygon class="f" points="35.83 20.09 35.47 20.09 35.47 20.27 35.83 20.09"/>
      <polygon class="f" points="35.83 20.09 35.53 20.3 35.43 20.16 35.83 20.09"/>
      <polygon class="f" points="35.13 20.09 35.43 20.3 35.54 20.16 35.13 20.09"/>
      <polygon class="f" points="35.13 20.09 35.5 20.09 35.5 20.27 35.13 20.09"/>
      <polygon class="f" points="35.7 20.5 35.59 20.15 35.41 20.2 35.7 20.5"/>
      <polygon class="f" points="35.7 20.5 35.4 20.28 35.51 20.13 35.7 20.5"/>
      <polygon class="f" points="35.27 20.5 35.56 20.28 35.45 20.13 35.27 20.5"/>
      <polygon class="f" points="35.27 20.5 35.38 20.15 35.55 20.2 35.27 20.5"/>
      <polygon class="f" points="36.68 20.04 36.6 20.27 36.72 20.31 36.68 20.04"/>
      <polygon class="f" points="36.68 20.04 36.75 20.27 36.63 20.31 36.68 20.04"/>
      <polygon class="f" points="36.91 20.21 36.66 20.21 36.66 20.33 36.91 20.21"/>
      <polygon class="f" points="36.91 20.21 36.71 20.35 36.64 20.25 36.91 20.21"/>
      <polygon class="f" points="36.44 20.21 36.64 20.35 36.71 20.25 36.44 20.21"/>
      <polygon class="f" points="36.44 20.21 36.69 20.21 36.69 20.33 36.44 20.21"/>
      <polygon class="f" points="36.82 20.48 36.74 20.25 36.63 20.29 36.82 20.48"/>
      <polygon class="f" points="36.82 20.48 36.62 20.34 36.69 20.24 36.82 20.48"/>
      <polygon class="f" points="36.53 20.48 36.73 20.34 36.66 20.24 36.53 20.48"/>
      <polygon class="f" points="36.53 20.48 36.6 20.25 36.73 20.29 36.53 20.48"/>
      <polygon class="f" points="35.83 20.65 35.74 20.95 35.88 21 35.83 20.65"/>
      <polygon class="f" points="35.83 20.65 35.93 20.95 35.78 21 35.83 20.65"/>
      <polygon class="f" points="36.13 20.87 35.82 20.87 35.82 21.02 36.13 20.87"/>
      <polygon class="f" points="36.13 20.87 35.88 21.05 35.79 20.92 36.13 20.87"/>
      <polygon class="f" points="35.54 20.87 35.79 21.05 35.88 20.92 35.54 20.87"/>
      <polygon class="f" points="35.54 20.87 35.85 20.87 35.85 21.02 35.54 20.87"/>
      <polygon class="f" points="36.02 21.21 35.92 20.92 35.77 20.96 36.02 21.21"/>
      <polygon class="f" points="36.02 21.21 35.77 21.03 35.85 20.91 36.02 21.21"/>
      <polygon class="f" points="35.65 21.21 35.9 21.03 35.81 20.91 35.65 21.21"/>
      <polygon class="f" points="35.65 21.21 35.75 20.92 35.89 20.96 35.65 21.21"/>
      <polygon class="f" points="33.76 22.45 33.67 22.75 33.81 22.8 33.76 22.45"/>
      <polygon class="f" points="33.76 22.45 33.86 22.75 33.71 22.8 33.76 22.45"/>
      <polygon class="f" points="34.06 22.67 33.75 22.67 33.75 22.82 34.06 22.67"/>
      <polygon class="f" points="34.06 22.67 33.81 22.85 33.72 22.72 34.06 22.67"/>
      <polygon class="f" points="33.47 22.67 33.72 22.85 33.81 22.72 33.47 22.67"/>
      <polygon class="f" points="33.47 22.67 33.78 22.67 33.78 22.82 33.47 22.67"/>
      <polygon class="f" points="33.95 23.01 33.85 22.72 33.7 22.77 33.95 23.01"/>
      <polygon class="f" points="33.95 23.01 33.7 22.83 33.79 22.71 33.95 23.01"/>
      <polygon class="f" points="33.58 23.01 33.83 22.83 33.74 22.71 33.58 23.01"/>
      <polygon class="f" points="33.58 23.01 33.68 22.72 33.82 22.77 33.58 23.01"/>
      <polygon class="f" points="33.75 23.38 33.68 23.61 33.79 23.65 33.75 23.38"/>
      <polygon class="f" points="33.75 23.38 33.83 23.61 33.71 23.65 33.75 23.38"/>
      <polygon class="f" points="33.99 23.55 33.74 23.55 33.74 23.68 33.99 23.55"/>
      <polygon class="f" points="33.99 23.55 33.79 23.7 33.72 23.6 33.99 23.55"/>
      <polygon class="f" points="33.52 23.55 33.72 23.7 33.79 23.6 33.52 23.55"/>
      <polygon class="f" points="33.52 23.55 33.76 23.55 33.76 23.68 33.52 23.55"/>
      <polygon class="f" points="33.9 23.82 33.82 23.59 33.7 23.63 33.9 23.82"/>
      <polygon class="f" points="33.9 23.82 33.7 23.68 33.77 23.58 33.9 23.82"/>
      <polygon class="f" points="33.61 23.82 33.81 23.68 33.74 23.58 33.61 23.82"/>
      <polygon class="f" points="33.61 23.82 33.68 23.59 33.8 23.63 33.61 23.82"/>
      <polygon class="f" points="34.62 21.84 34.54 22.07 34.66 22.11 34.62 21.84"/>
      <polygon class="f" points="34.62 21.84 34.69 22.07 34.58 22.11 34.62 21.84"/>
      <polygon class="f" points="34.85 22.01 34.6 22.01 34.6 22.13 34.85 22.01"/>
      <polygon class="f" points="34.85 22.01 34.65 22.15 34.58 22.05 34.85 22.01"/>
      <polygon class="f" points="34.38 22.01 34.58 22.15 34.66 22.05 34.38 22.01"/>
      <polygon class="f" points="34.38 22.01 34.63 22.01 34.63 22.13 34.38 22.01"/>
      <polygon class="f" points="34.76 22.28 34.69 22.05 34.57 22.09 34.76 22.28"/>
      <polygon class="f" points="34.76 22.28 34.56 22.14 34.64 22.04 34.76 22.28"/>
      <polygon class="f" points="34.48 22.28 34.67 22.14 34.6 22.04 34.48 22.28"/>
      <polygon class="f" points="34.48 22.28 34.55 22.05 34.67 22.09 34.48 22.28"/>
      <polygon class="f" points="35.31 21.34 35.21 21.64 35.36 21.68 35.31 21.34"/>
      <polygon class="f" points="35.31 21.34 35.4 21.64 35.26 21.68 35.31 21.34"/>
      <polygon class="f" points="35.6 21.56 35.29 21.56 35.29 21.71 35.6 21.56"/>
      <polygon class="f" points="35.6 21.56 35.35 21.74 35.26 21.61 35.6 21.56"/>
      <polygon class="f" points="35.02 21.56 35.26 21.74 35.35 21.61 35.02 21.56"/>
      <polygon class="f" points="35.02 21.56 35.32 21.56 35.32 21.71 35.02 21.56"/>
      <polygon class="f" points="35.49 21.9 35.39 21.61 35.25 21.66 35.49 21.9"/>
      <polygon class="f" points="35.49 21.9 35.24 21.72 35.33 21.6 35.49 21.9"/>
      <polygon class="f" points="35.13 21.9 35.38 21.72 35.28 21.6 35.13 21.9"/>
      <polygon class="f" points="35.13 21.9 35.22 21.61 35.37 21.66 35.13 21.9"/>
      <polygon class="f" points="33.73 21.68 33.65 21.91 33.77 21.95 33.73 21.68"/>
      <polygon class="f" points="33.73 21.68 33.8 21.91 33.69 21.95 33.73 21.68"/>
      <polygon class="f" points="33.96 21.84 33.72 21.84 33.72 21.97 33.96 21.84"/>
      <polygon class="f" points="33.96 21.84 33.76 21.99 33.69 21.89 33.96 21.84"/>
      <polygon class="f" points="33.5 21.84 33.7 21.99 33.77 21.89 33.5 21.84"/>
      <polygon class="f" points="33.5 21.84 33.74 21.84 33.74 21.97 33.5 21.84"/>
      <polygon class="f" points="33.87 22.12 33.8 21.89 33.68 21.92 33.87 22.12"/>
      <polygon class="f" points="33.87 22.12 33.67 21.98 33.75 21.88 33.87 22.12"/>
      <polygon class="f" points="33.58 22.12 33.78 21.98 33.71 21.88 33.58 22.12"/>
      <polygon class="f" points="33.58 22.12 33.66 21.89 33.78 21.92 33.58 22.12"/>
      <polygon class="f" points="26.19 17.23 26.09 17.52 26.24 17.57 26.19 17.23"/>
      <polygon class="f" points="26.19 17.23 26.28 17.52 26.14 17.57 26.19 17.23"/>
      <polygon class="f" points="26.48 17.44 26.17 17.44 26.17 17.59 26.48 17.44"/>
      <polygon class="f" points="26.48 17.44 26.23 17.62 26.14 17.5 26.48 17.44"/>
      <polygon class="f" points="25.9 17.44 26.14 17.62 26.23 17.5 25.9 17.44"/>
      <polygon class="f" points="25.9 17.44 26.2 17.44 26.2 17.59 25.9 17.44"/>
      <polygon class="f" points="26.37 17.78 26.27 17.49 26.13 17.54 26.37 17.78"/>
      <polygon class="f" points="26.37 17.78 26.12 17.6 26.21 17.48 26.37 17.78"/>
      <polygon class="f" points="26.01 17.78 26.26 17.6 26.17 17.48 26.01 17.78"/>
      <polygon class="f" points="26.01 17.78 26.1 17.49 26.25 17.54 26.01 17.78"/>
      <polygon class="f" points="31.8 16.51 31.73 16.74 31.84 16.78 31.8 16.51"/>
      <polygon class="f" points="31.8 16.51 31.88 16.74 31.76 16.78 31.8 16.51"/>
      <polygon class="f" points="32.03 16.68 31.79 16.68 31.79 16.8 32.03 16.68"/>
      <polygon class="f" points="32.03 16.68 31.84 16.82 31.76 16.72 32.03 16.68"/>
      <polygon class="f" points="31.57 16.68 31.77 16.82 31.84 16.72 31.57 16.68"/>
      <polygon class="f" points="31.57 16.68 31.81 16.68 31.81 16.8 31.57 16.68"/>
      <polygon class="f" points="31.95 16.95 31.87 16.72 31.75 16.76 31.95 16.95"/>
      <polygon class="f" points="31.95 16.95 31.75 16.81 31.82 16.71 31.95 16.95"/>
      <polygon class="f" points="31.66 16.95 31.86 16.81 31.78 16.71 31.66 16.95"/>
      <polygon class="f" points="31.66 16.95 31.73 16.72 31.85 16.76 31.66 16.95"/>
      <polygon class="f" points="29.46 20.67 29.35 21.02 29.52 21.08 29.46 20.67"/>
      <polygon class="f" points="29.46 20.67 29.58 21.02 29.4 21.08 29.46 20.67"/>
      <polygon class="f" points="29.81 20.93 29.44 20.93 29.44 21.11 29.81 20.93"/>
      <polygon class="f" points="29.81 20.93 29.52 21.14 29.41 21 29.81 20.93"/>
      <polygon class="f" points="29.11 20.93 29.41 21.14 29.52 21 29.11 20.93"/>
      <polygon class="f" points="29.11 20.93 29.48 20.93 29.48 21.11 29.11 20.93"/>
      <polygon class="f" points="29.68 21.34 29.56 20.99 29.39 21.05 29.68 21.34"/>
      <polygon class="f" points="29.68 21.34 29.38 21.13 29.49 20.98 29.68 21.34"/>
      <polygon class="f" points="29.25 21.34 29.54 21.13 29.43 20.98 29.25 21.34"/>
      <polygon class="f" points="29.25 21.34 29.36 20.99 29.54 21.05 29.25 21.34"/>
      <polygon class="f" points="30.46 19.03 30.36 19.32 30.51 19.37 30.46 19.03"/>
      <polygon class="f" points="30.46 19.03 30.55 19.32 30.4 19.37 30.46 19.03"/>
      <polygon class="f" points="30.75 19.24 30.44 19.24 30.44 19.39 30.75 19.24"/>
      <polygon class="f" points="30.75 19.24 30.5 19.42 30.41 19.3 30.75 19.24"/>
      <polygon class="f" points="30.16 19.24 30.41 19.42 30.5 19.3 30.16 19.24"/>
      <polygon class="f" points="30.16 19.24 30.47 19.24 30.47 19.39 30.16 19.24"/>
      <polygon class="f" points="30.64 19.59 30.54 19.29 30.4 19.34 30.64 19.59"/>
      <polygon class="f" points="30.64 19.59 30.39 19.4 30.48 19.28 30.64 19.59"/>
      <polygon class="f" points="30.27 19.59 30.52 19.4 30.43 19.28 30.27 19.59"/>
      <polygon class="f" points="30.27 19.59 30.37 19.29 30.52 19.34 30.27 19.59"/>
      <polygon class="f" points="29.46 18.26 29.37 18.55 29.51 18.6 29.46 18.26"/>
      <polygon class="f" points="29.46 18.26 29.56 18.55 29.41 18.6 29.46 18.26"/>
      <polygon class="f" points="29.75 18.47 29.45 18.47 29.45 18.62 29.75 18.47"/>
      <polygon class="f" points="29.75 18.47 29.51 18.65 29.42 18.53 29.75 18.47"/>
      <polygon class="f" points="29.17 18.47 29.42 18.65 29.51 18.53 29.17 18.47"/>
      <polygon class="f" points="29.17 18.47 29.48 18.47 29.48 18.62 29.17 18.47"/>
      <polygon class="f" points="29.64 18.81 29.55 18.52 29.4 18.57 29.64 18.81"/>
      <polygon class="f" points="29.64 18.81 29.39 18.63 29.48 18.51 29.64 18.81"/>
      <polygon class="f" points="29.28 18.81 29.53 18.63 29.44 18.51 29.28 18.81"/>
      <polygon class="f" points="29.28 18.81 29.38 18.52 29.52 18.57 29.28 18.81"/>
      <polygon class="f" points="28.6 19.09 28.52 19.32 28.64 19.36 28.6 19.09"/>
      <polygon class="f" points="28.6 19.09 28.67 19.32 28.55 19.36 28.6 19.09"/>
      <polygon class="f" points="28.83 19.26 28.59 19.26 28.59 19.38 28.83 19.26"/>
      <polygon class="f" points="28.83 19.26 28.63 19.41 28.56 19.31 28.83 19.26"/>
      <polygon class="f" points="28.36 19.26 28.56 19.41 28.63 19.31 28.36 19.26"/>
      <polygon class="f" points="28.36 19.26 28.61 19.26 28.61 19.38 28.36 19.26"/>
      <polygon class="f" points="28.74 19.54 28.67 19.3 28.55 19.34 28.74 19.54"/>
      <polygon class="f" points="28.74 19.54 28.54 19.39 28.61 19.29 28.74 19.54"/>
      <polygon class="f" points="28.45 19.54 28.65 19.39 28.58 19.29 28.45 19.54"/>
      <polygon class="f" points="28.45 19.54 28.53 19.3 28.64 19.34 28.45 19.54"/>
      <polygon class="f" points="29.03 19.76 28.98 19.92 29.06 19.95 29.03 19.76"/>
      <polygon class="f" points="29.03 19.76 29.08 19.92 29 19.95 29.03 19.76"/>
      <polygon class="f" points="29.2 19.88 29.02 19.88 29.02 19.97 29.2 19.88"/>
      <polygon class="f" points="29.2 19.88 29.05 19.98 29 19.91 29.2 19.88"/>
      <polygon class="f" points="28.86 19.88 29 19.98 29.06 19.91 28.86 19.88"/>
      <polygon class="f" points="28.86 19.88 29.04 19.88 29.04 19.97 28.86 19.88"/>
      <polygon class="f" points="29.13 20.07 29.08 19.91 28.99 19.94 29.13 20.07"/>
      <polygon class="f" points="29.13 20.07 28.99 19.97 29.04 19.9 29.13 20.07"/>
      <polygon class="f" points="28.93 20.07 29.07 19.97 29.02 19.9 28.93 20.07"/>
      <polygon class="f" points="28.93 20.07 28.98 19.91 29.06 19.94 28.93 20.07"/>
      <polygon class="f" points="32.03 22.66 31.94 22.96 32.09 23 32.03 22.66"/>
      <polygon class="f" points="32.03 22.66 32.13 22.96 31.98 23 32.03 22.66"/>
      <polygon class="f" points="32.33 22.88 32.02 22.88 32.02 23.03 32.33 22.88"/>
      <polygon class="f" points="32.33 22.88 32.08 23.06 31.99 22.93 32.33 22.88"/>
      <polygon class="f" points="31.74 22.88 31.99 23.06 32.08 22.93 31.74 22.88"/>
      <polygon class="f" points="31.74 22.88 32.05 22.88 32.05 23.03 31.74 22.88"/>
      <polygon class="f" points="32.22 23.22 32.12 22.93 31.97 22.98 32.22 23.22"/>
      <polygon class="f" points="32.22 23.22 31.97 23.04 32.06 22.92 32.22 23.22"/>
      <polygon class="f" points="31.85 23.22 32.1 23.04 32.01 22.92 31.85 23.22"/>
      <polygon class="f" points="31.85 23.22 31.95 22.93 32.09 22.98 31.85 23.22"/>
      <polygon class="f" points="32.77 21.97 32.7 22.2 32.81 22.24 32.77 21.97"/>
      <polygon class="f" points="32.77 21.97 32.85 22.2 32.73 22.24 32.77 21.97"/>
      <polygon class="f" points="33 22.14 32.76 22.14 32.76 22.26 33 22.14"/>
      <polygon class="f" points="33 22.14 32.81 22.28 32.73 22.18 33 22.14"/>
      <polygon class="f" points="32.54 22.14 32.73 22.28 32.81 22.18 32.54 22.14"/>
      <polygon class="f" points="32.54 22.14 32.78 22.14 32.78 22.26 32.54 22.14"/>
      <polygon class="f" points="32.91 22.41 32.84 22.18 32.72 22.22 32.91 22.41"/>
      <polygon class="f" points="32.91 22.41 32.72 22.27 32.79 22.17 32.91 22.41"/>
      <polygon class="f" points="32.63 22.41 32.82 22.27 32.75 22.17 32.63 22.41"/>
      <polygon class="f" points="32.63 22.41 32.7 22.18 32.82 22.22 32.63 22.41"/>
      <polygon class="f" points="31.36 21.76 31.28 21.99 31.4 22.03 31.36 21.76"/>
      <polygon class="f" points="31.36 21.76 31.43 21.99 31.31 22.03 31.36 21.76"/>
      <polygon class="f" points="31.59 21.93 31.34 21.93 31.34 22.05 31.59 21.93"/>
      <polygon class="f" points="31.59 21.93 31.39 22.07 31.32 21.97 31.59 21.93"/>
      <polygon class="f" points="31.12 21.93 31.32 22.07 31.39 21.97 31.12 21.93"/>
      <polygon class="f" points="31.12 21.93 31.37 21.93 31.37 22.05 31.12 21.93"/>
      <polygon class="f" points="31.5 22.2 31.43 21.97 31.31 22.01 31.5 22.2"/>
      <polygon class="f" points="31.5 22.2 31.3 22.06 31.37 21.96 31.5 22.2"/>
      <polygon class="f" points="31.21 22.2 31.41 22.06 31.34 21.96 31.21 22.2"/>
      <polygon class="f" points="31.21 22.2 31.29 21.97 31.4 22.01 31.21 22.2"/>
      <polygon class="f" points="26.01 21.38 25.9 21.73 26.07 21.79 26.01 21.38"/>
      <polygon class="f" points="26.01 21.38 26.13 21.73 25.95 21.79 26.01 21.38"/>
      <polygon class="f" points="26.36 21.63 26 21.63 26 21.82 26.36 21.63"/>
      <polygon class="f" points="26.36 21.63 26.06 21.85 25.96 21.7 26.36 21.63"/>
      <polygon class="f" points="25.66 21.63 25.96 21.85 26.07 21.7 25.66 21.63"/>
      <polygon class="f" points="25.66 21.63 26.03 21.63 26.03 21.82 25.66 21.63"/>
      <polygon class="f" points="26.23 22.04 26.12 21.69 25.94 21.75 26.23 22.04"/>
      <polygon class="f" points="26.23 22.04 25.93 21.83 26.04 21.68 26.23 22.04"/>
      <polygon class="f" points="25.8 22.04 26.09 21.83 25.99 21.68 25.8 22.04"/>
      <polygon class="f" points="25.8 22.04 25.91 21.69 26.09 21.75 25.8 22.04"/>
      <polygon class="f" points="29.46 23.78 29.42 23.9 29.48 23.92 29.46 23.78"/>
      <polygon class="f" points="29.46 23.78 29.5 23.9 29.44 23.92 29.46 23.78"/>
      <polygon class="f" points="29.58 23.87 29.45 23.87 29.45 23.93 29.58 23.87"/>
      <polygon class="f" points="29.58 23.87 29.48 23.94 29.44 23.89 29.58 23.87"/>
      <polygon class="f" points="29.35 23.87 29.45 23.94 29.48 23.89 29.35 23.87"/>
      <polygon class="f" points="29.35 23.87 29.47 23.87 29.47 23.93 29.35 23.87"/>
      <polygon class="f" points="29.53 24.01 29.5 23.89 29.44 23.91 29.53 24.01"/>
      <polygon class="f" points="29.53 24.01 29.43 23.93 29.47 23.89 29.53 24.01"/>
      <polygon class="f" points="29.39 24.01 29.49 23.93 29.45 23.89 29.39 24.01"/>
      <polygon class="f" points="29.39 24.01 29.43 23.89 29.49 23.91 29.39 24.01"/>
    </g>
  </g>
</svg>