<svg xmlns="http://www.w3.org/2000/svg" xmlns:xlink="http://www.w3.org/1999/xlink" viewBox="0 0 58.92 34.37">
  <defs>
    <style>
      .a {
        fill: none;
      }

      .b {
        clip-path: url(#a);
      }

      .c {
        fill: #ea0020;
      }

      .d {
        fill: #fff;
      }
    </style>
    <clipPath id="a" transform="translate(-33.88 -197.48)">
      <rect class="a" x="33.88" y="197.48" width="58.92" height="34.37"/>
    </clipPath>
  </defs>
  <title>Canada</title>
  <g class="b">
    <rect class="c" width="13.86" height="34.37"/>
    <rect class="c" x="45.06" width="13.86" height="34.37"/>
    <rect class="d" x="13.86" width="31.2" height="34.37"/>
    <g class="b">
      <path class="c" d="M63.34,201.94l-2,4a0.68,0.68,0,0,1-1.06.15l-1.48-.8,1.1,6.1c0.23,1.11-.51,1.11-0.88.63l-2.58-3L56,210.51a0.5,0.5,0,0,1-.58.36l-3.27-.71L53,213.41c0.18,0.72.33,1-.19,1.21l-1.16.57,5.62,4.76a0.78,0.78,0,0,1,.26.8L57,222.43l5.61-.67a0.46,0.46,0,0,1,.46.36l-0.26,6.16h0.94l-0.15-6.15a0.45,0.45,0,0,1,.43-0.37l5.61,0.67-0.49-1.68a0.78,0.78,0,0,1,.26-0.8L75,215.19l-1.16-.57c-0.51-.19-0.37-0.49-0.19-1.21l0.86-3.25-3.26.71a0.5,0.5,0,0,1-.58-0.36L70.28,209l-2.58,3c-0.37.48-1.11,0.48-.88-0.63l1.1-6.1-1.48.8a0.68,0.68,0,0,1-1.06-.15Z" transform="translate(-33.88 -197.48)"/>
    </g>
  </g>
</svg>