<svg xmlns="http://www.w3.org/2000/svg" xmlns:xlink="http://www.w3.org/1999/xlink" viewBox="0 0 58.92 34.37">
  <defs>
    <style>
      .a {
        fill: none;
      }

      .b {
        clip-path: url(#a);
      }

      .c {
        fill: #fff;
      }

      .d {
        fill: #dd7d21;
      }

      .e {
        fill: #2c6752;
      }
    </style>
    <clipPath id="a" transform="translate(-387.33 -255.23)">
      <rect class="a" x="387.33" y="255.23" width="58.92" height="34.37"/>
    </clipPath>
  </defs>
  <title>Cyprus</title>
  <g class="b">
    <rect class="c" width="58.92" height="34.37"/>
    <g class="b">
      <path class="d" d="M412.53,265.68a1.23,1.23,0,0,0,.08.59,6.08,6.08,0,0,1-.17,2.07,1.6,1.6,0,0,1-.88.71,10.09,10.09,0,0,1-1.3-.54,1.58,1.58,0,0,0-.73-0.14,2,2,0,0,0-.88.31c-0.09,0-.11-0.06-0.17,0a1.84,1.84,0,0,0-.34.42,1.64,1.64,0,0,1-.37.73,4,4,0,0,1-.93.54,1.49,1.49,0,0,1-.43,0A1.22,1.22,0,0,1,406,270a0.8,0.8,0,0,1-.26-0.2,0.33,0.33,0,0,0-.14-0.23,0.84,0.84,0,0,0-.17.51,1.49,1.49,0,0,0,.34.62,1.08,1.08,0,0,1,.06.74,0.85,0.85,0,0,0,.14.42,1.17,1.17,0,0,0-.08.28,0.43,0.43,0,0,1,.2.37,2.63,2.63,0,0,0,.51.4,2.48,2.48,0,0,1,.14.62,1,1,0,0,1,.14.51l0.51,0.28a2.35,2.35,0,0,0,.37.37,0.76,0.76,0,0,0,.34,0c0.11,0-.06.06,0.14,0.11a2.13,2.13,0,0,1,.45.06,4.84,4.84,0,0,1,.37.34c0.11,0.06.59,0.2,0.62,0.23a1.7,1.7,0,0,0,.4.14,0.83,0.83,0,0,0,.23-0.11,0.72,0.72,0,0,0,.37,0,3.11,3.11,0,0,1,.39-0.23c0.11,0,.14.06,0.26,0.06a1.13,1.13,0,0,0,.28-0.06,0.72,0.72,0,0,1,.45.06,1.8,1.8,0,0,1,.65.88,1.48,1.48,0,0,1,0,.34,0.66,0.66,0,0,1,.31,0c0.08,0.06.08,0,.71,0.06a0.86,0.86,0,0,1-.08-1.21,1,1,0,0,1,.73-0.48,1.54,1.54,0,0,1,1.53-.14c0.85-.14.23-0.26,0.71-0.28a0.84,0.84,0,0,1,.42.06,0.33,0.33,0,0,1,.37-0.17,0.66,0.66,0,0,1,.51-0.25,1.42,1.42,0,0,1,1-.45,0.81,0.81,0,0,1,1.07-.42,0.67,0.67,0,0,1,.37-0.54c0-.38-0.1-1.15.28-1.42A1.71,1.71,0,0,1,422,271a2.82,2.82,0,0,1,.79.45,0.39,0.39,0,0,0,.37-0.09c0.17-.11,0-0.34.11-0.34a1.13,1.13,0,0,0,.31,0,1.27,1.27,0,0,0,.34-0.14c0.22,0.11.48,0,.59,0.11a0.58,0.58,0,0,0,.37.11,0.4,0.4,0,0,0,.31.14s-0.17-.05-0.11-0.14a0.49,0.49,0,0,0-.11-0.45,2.4,2.4,0,0,1-.25-0.25,0.61,0.61,0,0,0-.11-0.25,2.81,2.81,0,0,1-.54-0.45,1.17,1.17,0,0,0-.2-0.42,2.08,2.08,0,0,1-.74-1.13,1.16,1.16,0,0,1,.37-1.16c0-.3.06-0.34,0.37-0.51a0.63,0.63,0,0,1,.54-0.06,0.68,0.68,0,0,0,.51-0.11,3.09,3.09,0,0,1,.54-0.9,3.13,3.13,0,0,1,.88-0.71,4.39,4.39,0,0,1,1-.42,4,4,0,0,1,.59-0.65,5,5,0,0,0,.6-0.31,1.31,1.31,0,0,1,.42-0.62c0.34-.23.62-0.37,0.76-0.48s0.45,0,.56-0.14,0.11-.54.23-0.62-0.37.2-.62,0.31a2.11,2.11,0,0,1-.93.28c-0.31,0-.14.17-0.31,0.23a1.67,1.67,0,0,0-.57.14,3.81,3.81,0,0,1-.48.51,2.66,2.66,0,0,1-.43.17c-0.17.09-.31,0.17-0.45,0.23a2.09,2.09,0,0,1-.56,0s-0.37.48-.54,0.65a1.48,1.48,0,0,1-.54.23,9.23,9.23,0,0,1-2.6,1.16,2.73,2.73,0,0,1-.85,0,7.45,7.45,0,0,1-1.13.71,3.15,3.15,0,0,1-.57,0,2.21,2.21,0,0,1-.82.23,2.06,2.06,0,0,1-.85.09,1.1,1.1,0,0,1-.65,0,3,3,0,0,1-.71-0.06c-0.47-.15-0.79.06-1-0.06a0.8,0.8,0,0,0-.37-0.2c-0.17,0-.17.11-0.37,0.11s-0.23-.11-0.4-0.11a3.38,3.38,0,0,1-.62.09c-0.25,0-.34-0.14-0.51-0.14a7.93,7.93,0,0,1-1.1-.39h0Z" transform="translate(-387.33 -255.23)"/>
      <path class="e" d="M415.42,283a3.43,3.43,0,0,1,1.59-.59c0.67-.12,1.37-0.31,1.75-0.41a16.12,16.12,0,0,1-1.67.59c-0.41.12-1.67,0.41-1.67,0.41h0Z" transform="translate(-387.33 -255.23)"/>
      <path class="e" d="M418.11,281.91a1.9,1.9,0,0,1,1-2.08,2.41,2.41,0,0,1-1,2.08h0Z" transform="translate(-387.33 -255.23)"/>
      <path class="e" d="M419.4,281.47c-0.41-.7.29-1.6,0.79-2a2.12,2.12,0,0,1-.79,2h0Z" transform="translate(-387.33 -255.23)"/>
      <path class="e" d="M420.6,280.93a1.74,1.74,0,0,1,.63-2.06,2,2,0,0,1-.63,2.06h0Z" transform="translate(-387.33 -255.23)"/>
      <path class="e" d="M421.81,280.18a1.68,1.68,0,0,1,.45-2c0.41,0.47.06,1.49-.45,2h0Z" transform="translate(-387.33 -255.23)"/>
      <path class="e" d="M422.77,279.42a2.07,2.07,0,0,1,.61-2.16,2,2,0,0,1-.61,2.16h0Z" transform="translate(-387.33 -255.23)"/>
      <path class="e" d="M423.53,279.22c-0.1-.77,1.24-1.61,1.79-1.59a2.05,2.05,0,0,1-1.79,1.59h0Z" transform="translate(-387.33 -255.23)"/>
      <path class="e" d="M422.79,280.08a2.62,2.62,0,0,1,2.28-.51c-0.12.37-1.55,1.2-2.28,0.51h0Z" transform="translate(-387.33 -255.23)"/>
      <path class="e" d="M421.92,280.73c0.88-.24,1.46-0.43,2,0.12a1.59,1.59,0,0,1-2-.12h0Z" transform="translate(-387.33 -255.23)"/>
      <path class="e" d="M420.66,281.3a1.64,1.64,0,0,1,2,.61,2,2,0,0,1-2-.61h0Z" transform="translate(-387.33 -255.23)"/>
      <path class="e" d="M419.5,282a1.91,1.91,0,0,1,2,.53,1.51,1.51,0,0,1-2-.53h0Z" transform="translate(-387.33 -255.23)"/>
      <path class="e" d="M418.45,282.29a2.16,2.16,0,0,1,1.92,1,1.59,1.59,0,0,1-1.92-1h0Z" transform="translate(-387.33 -255.23)"/>
      <path class="e" d="M418.16,283a3.42,3.42,0,0,0-1.59-.59c-0.67-.12-1.37-0.31-1.75-0.41a16.13,16.13,0,0,0,1.67.59c0.41,0.12,1.67.41,1.67,0.41h0Z" transform="translate(-387.33 -255.23)"/>
      <path class="e" d="M415.47,281.91a1.9,1.9,0,0,0-1-2.08,2.41,2.41,0,0,0,1,2.08h0Z" transform="translate(-387.33 -255.23)"/>
      <path class="e" d="M414.18,281.47c0.41-.7-0.29-1.6-0.79-2a2.12,2.12,0,0,0,.79,2h0Z" transform="translate(-387.33 -255.23)"/>
      <path class="e" d="M413,280.93c0.44-.6-0.08-1.65-0.63-2.06a2,2,0,0,0,.63,2.06h0Z" transform="translate(-387.33 -255.23)"/>
      <path class="e" d="M411.77,280.18a1.68,1.68,0,0,0-.45-2c-0.41.47-.06,1.49,0.45,2h0Z" transform="translate(-387.33 -255.23)"/>
      <path class="e" d="M410.81,279.42a2.07,2.07,0,0,0-.61-2.16,2,2,0,0,0,.61,2.16h0Z" transform="translate(-387.33 -255.23)"/>
      <path class="e" d="M410,279.22c0.1-.77-1.24-1.61-1.79-1.59a2.05,2.05,0,0,0,1.79,1.59h0Z" transform="translate(-387.33 -255.23)"/>
      <path class="e" d="M410.79,280.08a2.62,2.62,0,0,0-2.28-.51c0.12,0.37,1.55,1.2,2.28.51h0Z" transform="translate(-387.33 -255.23)"/>
      <path class="e" d="M411.66,280.73c-0.88-.24-1.45-0.43-2,0.12a1.58,1.58,0,0,0,2-.12h0Z" transform="translate(-387.33 -255.23)"/>
      <path class="e" d="M412.91,281.3a1.64,1.64,0,0,0-2,.61,2,2,0,0,0,2-.61h0Z" transform="translate(-387.33 -255.23)"/>
      <path class="e" d="M414.07,282a1.91,1.91,0,0,0-2,.53,1.51,1.51,0,0,0,2-.53h0Z" transform="translate(-387.33 -255.23)"/>
      <path class="e" d="M415.13,282.29a2.16,2.16,0,0,0-1.92,1,1.59,1.59,0,0,0,1.92-1h0Z" transform="translate(-387.33 -255.23)"/>
    </g>
  </g>
</svg>
