<svg xmlns="http://www.w3.org/2000/svg" xmlns:xlink="http://www.w3.org/1999/xlink" viewBox="0 0 58.92 34.37">
  <defs>
    <style>
      .a {
        fill: none;
      }

      .b {
        clip-path: url(#a);
      }

      .c {
        fill: #e1001f;
      }

      .d {
        fill: #f6d928;
      }

      .e {
        fill: #f6d728;
      }

      .f {
        fill: #ca001c;
      }

      .g {
        fill: #f0f7ff;
      }
    </style>
    <clipPath id="a" transform="translate(-104.57 -371.66)">
      <rect class="a" x="104.57" y="371.66" width="58.92" height="34.37"/>
    </clipPath>
  </defs>
  <title>Germany</title>
  <g class="b">
    <rect width="58.92" height="11.46"/>
    <rect class="c" y="11.46" width="58.92" height="11.46"/>
    <rect class="d" y="22.91" width="58.92" height="11.46"/>
    <g class="b">
      <path class="e" d="M125.87,379.8v13.76c0,5.15,6.92,4.53,8.16,6.59,1.24-2.06,8.16-1.44,8.16-6.59V379.8H125.87Z" transform="translate(-104.57 -371.66)"/>
      <path d="M134,400.25l0-.07c-0.44-.73-1.6-1.11-2.94-1.56-2.32-.77-5.22-1.73-5.22-5.06V379.75h16.42v13.81c0,3.33-2.89,4.29-5.22,5.06-1.35.45-2.51,0.83-2.94,1.56l0,0.07h0Zm-8.1-20.4v13.71c0,3.25,2.74,4.16,5.15,5,1.32,0.44,2.47.82,3,1.54,0.49-.71,1.63-1.1,3-1.54,2.41-.8,5.15-1.71,5.15-5V379.85H125.92Z" transform="translate(-104.57 -371.66)"/>
      <path d="M133.49,381.78a3.5,3.5,0,0,1-.29,1.73,3.73,3.73,0,0,0-.78,1.57c-0.21,3.09.95,7.58,1.61,10.79,0.66-3.21,1.81-7.7,1.61-10.79a12.51,12.51,0,0,0-.62-3.91Z" transform="translate(-104.57 -371.66)"/>
      <path class="f" d="M133.66,382.23a5.48,5.48,0,0,1-1.94-.45,2.67,2.67,0,0,0,1.48.66Z" transform="translate(-104.57 -371.66)"/>
      <path d="M133.21,382.41a2.41,2.41,0,0,1-1.51-.62,7,7,0,0,0,2,.41v0.05a5.49,5.49,0,0,1-1.94-.46,3.29,3.29,0,0,0,1.5.61h0Z" transform="translate(-104.57 -371.66)"/>
      <path class="f" d="M133.41,380.54c-1.24-.62-2,0.08-1.15,1.19,0.08-.21.86-0.49,1.24,0.5a2.76,2.76,0,0,1-1.36,0,2.53,2.53,0,0,0,1.69.21c0.21-.12-0.37-1.15-0.37-1.15Z" transform="translate(-104.57 -371.66)"/>
      <path d="M133.35,382.57a2.39,2.39,0,0,1-1.23-.28,3.28,3.28,0,0,0,1.36-.08,0.87,0.87,0,0,0-.77-0.65h0a0.47,0.47,0,0,0-.42.19,1,1,0,0,1-.27-1.24,1.17,1.17,0,0,1,1.41,0l0,0a1.14,1.14,0,0,0-1.35,0,1,1,0,0,0,.23,1.18,0.42,0.42,0,0,1,.43-0.21,0.91,0.91,0,0,1,.81.72,2.39,2.39,0,0,1-1.39.08,2.9,2.9,0,0,0,1.68.16,1.91,1.91,0,0,0-.38-1.12c0.14,0.15.62,1,.41,1.16a1.17,1.17,0,0,1-.48.07h0Z" transform="translate(-104.57 -371.66)"/>
      <path d="M134.94,381.41a1.63,1.63,0,0,0,.78-0.41,4.87,4.87,0,0,1-1.61-.41c-0.33-.17-0.91-0.54-0.91.16s0.74,1.24.62,1.81Z" transform="translate(-104.57 -371.66)"/>
      <path class="g" d="M133.91,381a3.64,3.64,0,0,1-.49-0.29c-0.08-.08-0.21.45,0.16,0.62a0.64,0.64,0,0,1,.33-0.33h0Z" transform="translate(-104.57 -371.66)"/>
      <path d="M133.62,380.71c-0.19.05-.23,0.2-0.12,0.45a0.46,0.46,0,0,1,.41-0.37Z" transform="translate(-104.57 -371.66)"/>
      <path d="M135.84,386.31v4.86l5.52,4.53V383.63a2.44,2.44,0,0,0-.58-1.89v2.51Z" transform="translate(-104.57 -371.66)"/>
      <polygon class="e" points="32.38 23.5 32.23 23.5 32.23 13.2 32.38 13.2 32.38 23.5 32.38 23.5"/>
      <polygon class="e" points="33.53 23.5 33.38 23.5 33.38 13.2 33.53 13.2 33.53 23.5 33.53 23.5"/>
      <polygon class="e" points="34.69 23.5 34.53 23.5 34.53 13.2 34.69 13.2 34.69 23.5 34.69 23.5"/>
      <polygon class="e" points="35.84 23.5 35.69 23.5 35.69 13.2 35.84 13.2 35.84 23.5 35.84 23.5"/>
      <path d="M134.77,387.21c3.71,0,5.27-1.19,6.06-2.1v-3.34a0.88,0.88,0,0,0,.66-0.91c-1.15.95-3-1.28-4,1a1.21,1.21,0,0,0,2.14.37c0.82,0.7.17,3.34-4.82,3.3v1.65Z" transform="translate(-104.57 -371.66)"/>
      <path class="f" d="M136.13,395.29a0.52,0.52,0,0,0,.21.82,0.72,0.72,0,0,1,.12-0.7Z" transform="translate(-104.57 -371.66)"/>
      <path d="M136.36,396.1a0.5,0.5,0,0,1-.37-0.37,0.55,0.55,0,0,1,.12-0.46l0,0a0.48,0.48,0,0,0-.11.41,0.58,0.58,0,0,0,.31.37,0.62,0.62,0,0,1,.09-0.69,0.89,0.89,0,0,0-.08.71h0Z" transform="translate(-104.57 -371.66)"/>
      <path class="f" d="M137.57,396.69a0.86,0.86,0,0,1-.25.62c0.49-.12.7-0.29,0.54-0.58Z" transform="translate(-104.57 -371.66)"/>
      <path d="M137.33,397.33a1.08,1.08,0,0,0,.22-0.64h0.05a0.88,0.88,0,0,1-.25.64,1,1,0,0,0,.53-0.34,0.27,0.27,0,0,0,0-.24,0.21,0.21,0,0,1,.08.26,0.82,0.82,0,0,1-.59.32h0Z" transform="translate(-104.57 -371.66)"/>
      <path class="f" d="M139.22,396.07a1.07,1.07,0,0,1,0,.66c0.37-.33.49-0.78,0.21-0.87Z" transform="translate(-104.57 -371.66)"/>
      <path d="M139.28,396.75a1.54,1.54,0,0,0-.08-0.67l0,0a1.09,1.09,0,0,1,0,.67,1,1,0,0,0,.31-0.71,0.18,0.18,0,0,0-.13-0.14,0.14,0.14,0,0,1,.18.13,0.89,0.89,0,0,1-.37.73h0Z" transform="translate(-104.57 -371.66)"/>
      <path class="f" d="M139.18,394.59a0.73,0.73,0,0,1,.41.41c0-.45,0-0.7-0.45-0.78Z" transform="translate(-104.57 -371.66)"/>
      <path d="M139.62,395a1,1,0,0,0-.44-0.39v0a0.76,0.76,0,0,1,.43.42,0.6,0.6,0,0,0-.48-0.74c0.46,0,.52.33,0.48,0.76h0Z" transform="translate(-104.57 -371.66)"/>
      <path class="f" d="M135.55,393.23l1.94,1.77a7.67,7.67,0,0,1-1,.16c-0.29,0-.54.08-0.45,0.16a1.52,1.52,0,0,1,.33.21c0.08,0.12.21,0.29,0.37,0.12a2.56,2.56,0,0,1,.74-0.33,10.38,10.38,0,0,1,0,1.07,0.49,0.49,0,0,0-.08.37,1.17,1.17,0,0,1,.41,0c0.33,0,.29.13,0.21-0.37a4.89,4.89,0,0,1,0-1,5.46,5.46,0,0,1,1,.82c0.25,0.33.21,0.08,0.33,0a1,1,0,0,1,.41-0.21,1,1,0,0,0-.45-0.25c-0.12-.08-1.07-0.62-1.07-0.62a7,7,0,0,1,.86-0.21c0.33,0,.33,0,0.29-0.21a1.37,1.37,0,0,1,0-.41c0-.08,0-0.16-0.25,0a10,10,0,0,1-1.15.58l-1.61-2.14Z" transform="translate(-104.57 -371.66)"/>
      <path d="M138,396.83h-0.09l-0.13,0a0.91,0.91,0,0,0-.35,0h-0.11a0.41,0.41,0,0,1,.06-0.28l0-.11a9.4,9.4,0,0,0,0-1.06,4.32,4.32,0,0,0-.7.35,0.2,0.2,0,0,1-.17.07,0.37,0.37,0,0,1-.24-0.2,0.38,0.38,0,0,0-.18-0.12,0.43,0.43,0,0,1-.14-0.08h0v-0.06a0.66,0.66,0,0,1,.49-0.13,7.62,7.62,0,0,0,1-.16l-1.95-1.73,0,0,1.94,1.77a3.8,3.8,0,0,1-1,.21,0.66,0.66,0,0,0-.44.1,0.29,0.29,0,0,0,.14.09,0.4,0.4,0,0,1,.2.14,0.35,0.35,0,0,0,.2.18,0.16,0.16,0,0,0,.13-0.06,2.47,2.47,0,0,1,.75-0.34,5.49,5.49,0,0,1,0,1.1l0,0.11a0.67,0.67,0,0,0-.07.23,1.15,1.15,0,0,1,.42,0l0.13,0H138a0.53,0.53,0,0,0,0-.19l0-.19a5,5,0,0,1,0-1,3.72,3.72,0,0,1,1,.81,0.31,0.31,0,0,0,.16.15,0.13,0.13,0,0,0,.05-0.07,0.44,0.44,0,0,1,.08-0.12,0.87,0.87,0,0,1,.37-0.2s-0.09-.08-0.17-0.11a1.53,1.53,0,0,1-.24-0.11c-0.12-.08-1.07-0.62-1.07-0.62a2.71,2.71,0,0,1,.87-0.26,0.62,0.62,0,0,0,.28-0.06,0.19,0.19,0,0,0,0-.12,1,1,0,0,1,0-.33s0-.06,0-0.08-0.08-.08-0.21,0a9.62,9.62,0,0,1-1.16.58l-1.64-2.15,1.65,2.11s0.92-.42,1.12-0.58a0.26,0.26,0,0,1,.24-0.09,0.11,0.11,0,0,1,.05.11s0,0.05,0,.09a0.91,0.91,0,0,0,0,.32,0.19,0.19,0,0,1,0,.16,0.5,0.5,0,0,1-.32.08,6.79,6.79,0,0,0-.85.2,10.06,10.06,0,0,1,1.07.57l0.23,0.1a0.35,0.35,0,0,1,.26.15l-0.09.06a0.85,0.85,0,0,0-.35.18,0.44,0.44,0,0,0-.07.11,0.14,0.14,0,0,1-.09.1,0.32,0.32,0,0,1-.21-0.17,5.38,5.38,0,0,0-1-.81c0,0.05,0,.55.07,1l0,0.18a0.29,0.29,0,0,1,0,.23l-0.05,0h0Z" transform="translate(-104.57 -371.66)"/>
      <path d="M134,398.59l0.87-1q1.48,0.91,2.18-.49-2.22.37-2.1-4l1.11,1.73v-1.61l1.36,0.16-3.58-3.83Z" transform="translate(-104.57 -371.66)"/>
      <path d="M132.22,386.31v4.86l-5.52,4.53V383.63a2.44,2.44,0,0,1,.58-1.89v2.51Z" transform="translate(-104.57 -371.66)"/>
      <polygon class="e" points="26.7 23.5 26.54 23.5 26.54 13.2 26.7 13.2 26.7 23.5 26.7 23.5"/>
      <polygon class="e" points="25.54 23.5 25.39 23.5 25.39 13.2 25.54 13.2 25.54 23.5 25.54 23.5"/>
      <polygon class="e" points="24.39 23.5 24.24 23.5 24.24 13.2 24.39 13.2 24.39 23.5 24.39 23.5"/>
      <polygon class="e" points="23.24 23.5 23.08 23.5 23.08 13.2 23.24 13.2 23.24 23.5 23.24 23.5"/>
      <path d="M133.29,387.21c-3.71,0-5.27-1.19-6.06-2.1v-3.34a0.88,0.88,0,0,1-.66-0.91c1.15,0.95,3-1.28,4,1a1.22,1.22,0,0,1-2.14.37c-0.82.7-.16,3.34,4.82,3.3v1.65Z" transform="translate(-104.57 -371.66)"/>
      <path class="f" d="M131.93,395.29a0.52,0.52,0,0,1-.21.82,0.72,0.72,0,0,0-.12-0.7Z" transform="translate(-104.57 -371.66)"/>
      <path d="M131.73,396.14a0.86,0.86,0,0,0-.16-0.71,0.62,0.62,0,0,1,.17.69,0.93,0.93,0,0,0,.27-0.4,0.48,0.48,0,0,0-.11-0.41l0,0a0.54,0.54,0,0,1,.12.46,0.64,0.64,0,0,1-.34.4h0Z" transform="translate(-104.57 -371.66)"/>
      <path class="f" d="M130.49,396.69a0.86,0.86,0,0,0,.25.62c-0.49-.12-0.7-0.29-0.54-0.58Z" transform="translate(-104.57 -371.66)"/>
      <path d="M130.75,397.29a0.72,0.72,0,0,1-.62-0.28,0.32,0.32,0,0,1,0-.29,0.59,0.59,0,0,0,0,.27,0.78,0.78,0,0,0,.56.3,0.71,0.71,0,0,1-.28-0.6h0.05a0.84,0.84,0,0,0,.24.6h0Z" transform="translate(-104.57 -371.66)"/>
      <path class="f" d="M128.84,396.07a1.06,1.06,0,0,0,0,.66c-0.37-.33-0.49-0.78-0.21-0.87Z" transform="translate(-104.57 -371.66)"/>
      <path d="M128.82,396.73a0.79,0.79,0,0,1-.41-0.71,0.23,0.23,0,0,1,.17-0.18,0.47,0.47,0,0,0-.12.19,0.86,0.86,0,0,0,.35.68,0.81,0.81,0,0,1,0-.65l0,0a1,1,0,0,0,0,.64h0Z" transform="translate(-104.57 -371.66)"/>
      <path class="f" d="M128.88,394.59a0.73,0.73,0,0,0-.41.41c0-.45,0-0.7.45-0.78Z" transform="translate(-104.57 -371.66)"/>
      <path d="M128.49,395c-0.09-.44,0-0.73.43-0.82a0.62,0.62,0,0,0-.42.8,0.59,0.59,0,0,1,.38-0.43v0a0.73,0.73,0,0,0-.4.4h0Z" transform="translate(-104.57 -371.66)"/>
      <path class="f" d="M132.5,393.23L130.57,395a7.67,7.67,0,0,0,1,.16c0.29,0,.54.08,0.45,0.16a1.53,1.53,0,0,0-.33.21c-0.08.12-.21,0.29-0.37,0.12a2.56,2.56,0,0,0-.74-0.33,10.51,10.51,0,0,0,0,1.07,0.49,0.49,0,0,1,.08.37,1.17,1.17,0,0,0-.41,0c-0.33,0-.29.13-0.21-0.37a4.92,4.92,0,0,0,0-1,5.44,5.44,0,0,0-1,.82c-0.25.33-.21,0.08-0.33,0a1,1,0,0,0-.41-0.21,1,1,0,0,1,.45-0.25c0.12-.08,1.07-0.62,1.07-0.62a7,7,0,0,0-.86-0.21c-0.33,0-.33,0-0.29-0.21a1.36,1.36,0,0,0,0-.41c0-.08,0-0.16.25,0a9.91,9.91,0,0,0,1.15.58l1.61-2.14Z" transform="translate(-104.57 -371.66)"/>
      <path d="M130.1,396.83l-0.05,0a0.29,0.29,0,0,1,0-.23l0-.18a4.94,4.94,0,0,0,0-1,9.89,9.89,0,0,0-.94.83,0.32,0.32,0,0,1-.21.17,0.14,0.14,0,0,1-.09-0.1,0.39,0.39,0,0,0-.07-0.11,0.82,0.82,0,0,0-.35-0.19l-0.09-.06a0.35,0.35,0,0,1,.26-0.15l0.23-.1c0.11-.08.94-0.54,1.06-0.61-0.09,0-.55-0.13-0.84-0.17a0.5,0.5,0,0,1-.32-0.08,0.19,0.19,0,0,1,0-.16,0.9,0.9,0,0,0,0-.32,0.89,0.89,0,0,1,0-.09,0.11,0.11,0,0,1,.05-0.11,0.26,0.26,0,0,1,.24.09,9.89,9.89,0,0,0,1.15.57l1.58-2.13-1.57,2.17a6.91,6.91,0,0,1-1.19-.57,0.22,0.22,0,0,0-.18-0.09,0.35,0.35,0,0,0,0,.15,0.94,0.94,0,0,1,0,.33,0.2,0.2,0,0,0,0,.12,0.62,0.62,0,0,0,.28.06,6.64,6.64,0,0,1,.87.21s-0.94.58-1.06,0.66a1.57,1.57,0,0,1-.24.11,1,1,0,0,0-.23.11,0.84,0.84,0,0,1,.43.2,0.43,0.43,0,0,1,.08.13,0.13,0.13,0,0,0,.05.07,0.36,0.36,0,0,0,.16-0.15,5.43,5.43,0,0,1,1-.83,2.75,2.75,0,0,1,0,1.05l0,0.19a0.53,0.53,0,0,0,0,.19h0.1l0.13,0a1,1,0,0,1,.36,0c0.07,0,0-.16,0-0.23l0-.1a10.19,10.19,0,0,1,0-1.08,1.81,1.81,0,0,1,.79.31,0.17,0.17,0,0,0,.13.06,0.35,0.35,0,0,0,.2-0.18,0.4,0.4,0,0,1,.2-0.14,0.37,0.37,0,0,0,.13-0.07,0.51,0.51,0,0,0-.43-0.12,7.7,7.7,0,0,1-1-.16l1.92-1.82,0,0L130.59,395c0.06,0,.74.13,1,0.13a0.66,0.66,0,0,1,.49.13v0l0,0.06a0.43,0.43,0,0,1-.15.08,0.38,0.38,0,0,0-.18.12,0.37,0.37,0,0,1-.24.2,0.21,0.21,0,0,1-.17-0.07,2.49,2.49,0,0,0-.73-0.32c0,0.24,0,.94.07,1l0,0.1a0.41,0.41,0,0,1,.06.28h-0.11a1,1,0,0,0-.34,0l-0.13,0H130.1Z" transform="translate(-104.57 -371.66)"/>
      <path d="M134,398.59l-0.86-1q-1.48.91-2.18-.49,2.22,0.37,2.1-4L132,394.75v-1.61l-1.36.16,3.58-3.83Z" transform="translate(-104.57 -371.66)"/>
    </g>
  </g>
</svg>
