<svg xmlns="http://www.w3.org/2000/svg" xmlns:xlink="http://www.w3.org/1999/xlink" viewBox="0 0 59.1 34.55">
  <defs>
    <style>
      .a {
        fill: none;
      }

      .b {
        clip-path: url(#a);
      }

      .c {
        fill: #fff;
      }

      .d {
        fill: #2f742e;
      }

      .e {
        fill: #c0003b;
      }
    </style>
    <clipPath id="a" transform="translate(-528.62 -28.91)">
      <rect class="a" x="528.71" y="28.99" width="58.92" height="34.37"/>
    </clipPath>
  </defs>
  <title>Algeria</title>
  <g class="b">
    <g>
      <rect class="c" x="0.09" y="0.09" width="58.92" height="34.37"/>
      <path d="M587.72,63.46h-59.1V28.91h59.1V63.46h0Zm-58.92-.18h58.75V29.08H528.79V63.28h0Z" transform="translate(-528.62 -28.91)"/>
    </g>
    <rect class="d" x="0.09" y="0.09" width="29.46" height="34.37"/>
    <g class="b">
      <path class="e" d="M564.54,51.55a6.87,6.87,0,1,1,1.07-9.66,8.59,8.59,0,1,0,0,8.59,6.89,6.89,0,0,1-1.07,1.07h0Z" transform="translate(-528.62 -28.91)"/>
      <polygon class="e" points="32.52 18.84 34.35 21.36 34.35 18.24 37.32 17.27 34.35 16.31 34.35 13.19 32.52 15.71 29.55 14.75 31.39 17.27 29.55 19.8 32.52 18.84"/>
    </g>
  </g>
</svg>