<svg xmlns="http://www.w3.org/2000/svg" xmlns:xlink="http://www.w3.org/1999/xlink" viewBox="0 0 59.04 34.49">
  <defs>
    <style>
      .a {
        fill: none;
      }

      .b {
        clip-path: url(#a);
      }

      .c {
        fill: #fff;
      }

      .d {
        fill: #bc0030;
      }

      .e {
        fill: #f0c727;
      }

      .f {
        fill: #f4d134;
      }
    </style>
    <clipPath id="a" transform="translate(-1092.58 -255.17)">
      <rect class="a" x="1092.64" y="255.23" width="58.92" height="34.37"/>
    </clipPath>
  </defs>
  <title>Egypt</title>
  <g class="b">
    <rect x="0.06" y="22.98" width="58.92" height="11.46"/>
    <g class="b">
      <path d="M1151.62,289.66h-59V278.09h59v11.58h0Zm-58.92-.12h58.8V278.21h-58.8v11.34h0Z" transform="translate(-1092.58 -255.17)"/>
    </g>
    <rect class="c" x="0.06" y="11.52" width="58.92" height="11.46"/>
    <g class="b">
      <path class="c" d="M1151.62,278.21h-59V266.63h59v11.58h0Zm-58.92-.12h58.8V266.75h-58.8v11.34h0Z" transform="translate(-1092.58 -255.17)"/>
    </g>
    <rect class="d" x="0.06" y="0.06" width="58.92" height="11.46"/>
    <g class="b">
      <path class="d" d="M1151.62,266.75h-59V255.17h59v11.58h0Zm-58.92-.12h58.8V255.29h-58.8v11.34h0Z" transform="translate(-1092.58 -255.17)"/>
      <path class="c" d="M1121.77,277.85a12.08,12.08,0,0,0,2.84-.27,0.29,0.29,0,0,0,.27-0.37c0.27-.09.13-0.41,0.32-0.41a4.47,4.47,0,0,0-.46-0.27c0-.31-0.31-0.36-0.58-0.27a9,9,0,0,1-2.38.22,11.13,11.13,0,0,1-2.38-.22c-0.27-.09-0.58,0-0.58.27a4.41,4.41,0,0,0-.45.27c0.19,0,0,.32.31,0.41a0.29,0.29,0,0,0,.28.37,12,12,0,0,0,2.83.27h0Z" transform="translate(-1092.58 -255.17)"/>
      <path class="e" d="M1121.77,278a11.77,11.77,0,0,1-2.86-.27,0.37,0.37,0,0,1-.36-0.4,0.43,0.43,0,0,1-.19-0.3l0-.06h0a0.11,0.11,0,0,1,0-.22h0a0.29,0.29,0,0,0,.09-0.08,0.43,0.43,0,0,1,.24-0.19,0.51,0.51,0,0,1,.72-0.26,8,8,0,0,0,1.87.19l0.49,0a8.46,8.46,0,0,0,2.34-.21,0.51,0.51,0,0,1,.72.28,0.41,0.41,0,0,1,.23.17,0.42,0.42,0,0,0,.08.08h0a0.11,0.11,0,0,1,.11.1,0.12,0.12,0,0,1-.08.12h0a0.18,0.18,0,0,1,0,.07,0.43,0.43,0,0,1-.19.3,0.37,0.37,0,0,1-.36.4,11.9,11.9,0,0,1-2.86.27h0Zm-3.21-1.11,0,0.08a0.18,0.18,0,0,0,.12.17,0.11,0.11,0,0,1,.08.11c0,0.18,0,.22.18,0.25a15,15,0,0,0,5.62,0c0.19,0,.19-0.08.19-0.26a0.11,0.11,0,0,1,.08-0.11,0.19,0.19,0,0,0,.12-0.17l0-.08-0.08-.1a0.21,0.21,0,0,0-.12-0.1,0.15,0.15,0,0,1-.1,0,0.12,0.12,0,0,1,0-.09,0.19,0.19,0,0,0-.23-0.2,0.66,0.66,0,0,0-.21,0,8.71,8.71,0,0,1-2.42.22l-0.49,0a8.11,8.11,0,0,1-1.93-.21,0.65,0.65,0,0,0-.2,0c-0.23,0-.23.15-0.23,0.2a0.11,0.11,0,0,1,0,.09,0.1,0.1,0,0,1-.09,0,0.19,0.19,0,0,0-.14.1l-0.08.1h0Z" transform="translate(-1092.58 -255.17)"/>
      <path class="f" d="M1119.21,276.73c-0.09,0-.09,0,0,0s0,0,0,0h0Z" transform="translate(-1092.58 -255.17)"/>
      <path class="e" d="M1119.21,276.83c-0.12,0-.13-0.07-0.13-0.09a0.12,0.12,0,0,1,.13-0.09,0.09,0.09,0,1,1,0,.17h0Z" transform="translate(-1092.58 -255.17)"/>
      <path class="f" d="M1119.21,276.55a0,0,0,0,0,0,.09c0.09,0,.09-0.09,0-0.09h0Z" transform="translate(-1092.58 -255.17)"/>
      <path class="e" d="M1119.21,276.7a0.1,0.1,0,0,1,0-.21,0.11,0.11,0,1,1,0,.21h0Z" transform="translate(-1092.58 -255.17)"/>
      <path class="f" d="M1119.21,277.22a0,0,0,0,0,0,.09s0-.09,0-0.09h0Z" transform="translate(-1092.58 -255.17)"/>
      <path class="e" d="M1119.21,277.37a0.1,0.1,0,0,1,0-.21,0.11,0.11,0,0,1,0,.21h0Z" transform="translate(-1092.58 -255.17)"/>
      <path class="f" d="M1119.39,277.27c-0.09,0-.09.09,0,0.09a0,0,0,0,0,0-.09h0Z" transform="translate(-1092.58 -255.17)"/>
      <path class="e" d="M1119.39,277.42a0.11,0.11,0,0,1-.12-0.11,0.13,0.13,0,0,1,.13-0.1,0.16,0.16,0,0,1,.1.1,0.11,0.11,0,0,1-.1.11h0Z" transform="translate(-1092.58 -255.17)"/>
      <path class="f" d="M1119.57,277.31s0,0.09,0,.09,0.09-.09,0-0.09h0Z" transform="translate(-1092.58 -255.17)"/>
      <path class="e" d="M1119.57,277.46a0.14,0.14,0,0,1-.09-0.1,0.15,0.15,0,0,1,.09-0.11,0.11,0.11,0,1,1,0,.21h0Z" transform="translate(-1092.58 -255.17)"/>
      <path class="f" d="M1122.36,276.86s0,0.09,0,.09,0-.09,0-0.09h0Z" transform="translate(-1092.58 -255.17)"/>
      <path class="e" d="M1122.36,277a0.14,0.14,0,0,1-.09-0.1,0.15,0.15,0,0,1,.09-0.11,0.15,0.15,0,0,1,.1.11,0.15,0.15,0,0,1-.1.1h0Z" transform="translate(-1092.58 -255.17)"/>
      <path class="f" d="M1122.41,277c-0.09,0-.09,0,0,0s0,0,0,0h0Z" transform="translate(-1092.58 -255.17)"/>
      <path class="a" d="M1122.41,277c-0.09,0-.09,0,0,0S1122.45,277,1122.41,277Z" transform="translate(-1092.58 -255.17)"/>
      <path class="f" d="M1122.54,277.49s0,0.1,0,.1,0-.1,0-0.1h0Z" transform="translate(-1092.58 -255.17)"/>
      <path class="e" d="M1122.54,277.64a0.11,0.11,0,0,1,0-.22,0.11,0.11,0,0,1,0,.22h0Z" transform="translate(-1092.58 -255.17)"/>
      <path class="f" d="M1122.72,277.49c-0.1,0-.1.1,0,0.1s0-.1,0-0.1h0Z" transform="translate(-1092.58 -255.17)"/>
      <path class="e" d="M1122.72,277.64a0.12,0.12,0,0,1-.13-0.11,0.12,0.12,0,0,1,.13-0.11,0.15,0.15,0,0,1,.09.11,0.11,0.11,0,0,1-.09.11h0Z" transform="translate(-1092.58 -255.17)"/>
      <path class="f" d="M1124.56,277.13c-0.09,0-.09,0,0,0s0,0,0,0h0Z" transform="translate(-1092.58 -255.17)"/>
      <path class="e" d="M1124.56,277.24c-0.12,0-.13-0.07-0.13-0.08a0.12,0.12,0,1,1,.13.08h0Z" transform="translate(-1092.58 -255.17)"/>
      <path class="e" d="M1119.7,277.3l-0.1,0a0.28,0.28,0,0,1-.13-0.06,0.34,0.34,0,0,1-.14,0,0.18,0.18,0,0,1-.13-0.2,2.11,2.11,0,0,0,.11-0.35l0-.11a0.06,0.06,0,0,1,.07,0,0.06,0.06,0,0,1,0,.07l0,0.11a1.85,1.85,0,0,1-.11.35,0.11,0.11,0,0,0,0,.05l0.09,0,0-.09a0.15,0.15,0,0,1,.06-0.14l0,0.06,0,0v0a0,0,0,0,1,0,0,0.83,0.83,0,0,1,0,.12l0.08,0a0.12,0.12,0,0,0,.09,0,0.24,0.24,0,0,0,.06-0.14h0l-0.06-.07a0.11,0.11,0,0,1,.09,0,0.18,0.18,0,0,1,.07.11,0.32,0.32,0,0,1-.12.24l-0.07,0h0Z" transform="translate(-1092.58 -255.17)"/>
      <path class="e" d="M1119.34,277.19h0a0.25,0.25,0,0,1-.22-0.2c0-.05,0-0.12.18-0.15a0.06,0.06,0,0,1,.07,0,0.06,0.06,0,0,1,0,.07,0.13,0.13,0,0,0-.09,0,0.23,0.23,0,0,0,.13.07,0.06,0.06,0,0,1,0,.07,0.06,0.06,0,0,1-.06,0h0Z" transform="translate(-1092.58 -255.17)"/>
      <path class="e" d="M1120.64,277.55a0.13,0.13,0,0,1-.08,0s-0.1,0-.1-0.17a0.2,0.2,0,0,1-.1,0,0.49,0.49,0,0,1-.33,0,0.29,0.29,0,0,1-.12.1,0.06,0.06,0,0,1-.08,0,0.06,0.06,0,0,1,0-.08,0.18,0.18,0,0,0,.08-0.07,0.2,0.2,0,0,1,0-.1,0.12,0.12,0,0,1,0-.12,0.12,0.12,0,0,1,.16.1,0.5,0.5,0,0,1,0,.08,0.29,0.29,0,0,0,.18,0,0.18,0.18,0,0,1,0-.2,0.18,0.18,0,0,1,.22-0.1,0.19,0.19,0,0,1,.11.18,0.19,0.19,0,0,1-.08.15l0.07,0c0,0.12,0,.12.06,0.12h0a0.18,0.18,0,0,0,.07-0.16v-0.4c0-.07.12-0.07,0.12,0v0.4a0.33,0.33,0,0,1-.14.29h0Z" transform="translate(-1092.58 -255.17)"/>
      <path class="e" d="M1120.88,277.42a0.06,0.06,0,0,1-.06-0.06,2.45,2.45,0,0,1,0-.26,1.93,1.93,0,0,0,0-.23c0-.07.12-0.07,0.12,0a2.18,2.18,0,0,1,0,.25,2.15,2.15,0,0,0,0,.25,0.06,0.06,0,0,1-.06.06h0Z" transform="translate(-1092.58 -255.17)"/>
      <path class="e" d="M1121,277.68l0,0a0.06,0.06,0,0,1,0-.08,0.38,0.38,0,0,0,.14-0.17l-0.06-.06a0.13,0.13,0,0,1,0-.14,0.14,0.14,0,0,1,.08,0,0.16,0.16,0,0,1,.12.12,0.39,0.39,0,0,1,0,0h0a0.12,0.12,0,0,0,0-.09,0.08,0.08,0,0,1,0-.07,0.12,0.12,0,0,1,.08-0.1,0.12,0.12,0,0,1,.08.08h0.08a0.5,0.5,0,0,0,.31,0c0.11,0,.15.05,0.15,0.18l0,0.09a0.2,0.2,0,0,1-.12.15,0.19,0.19,0,0,1-.14-0.07c0-.06,0-0.07-0.09-0.07h-0.37a0.47,0.47,0,0,1-.18.22h0Zm0.4-.35h0.18a0.15,0.15,0,0,1,.19.15l0.05-.09a0.32,0.32,0,0,0,0-.1,0.57,0.57,0,0,1-.37,0h-0.05a0.31,0.31,0,0,1,0,.06h0Z" transform="translate(-1092.58 -255.17)"/>
      <path class="e" d="M1122.09,277.46H1122a0.09,0.09,0,0,1-.09-0.05s0-.06,0-0.06v0.06l0-.07H1122a0.15,0.15,0,0,1,0-.12,0.13,0.13,0,0,1,.15,0,0.15,0.15,0,0,1,.09.14,0.2,0.2,0,0,1-.2.15h0Z" transform="translate(-1092.58 -255.17)"/>
      <path class="e" d="M1122.45,277.45h-0.05a0.12,0.12,0,0,1-.06-0.08,0.24,0.24,0,0,1,.16-0.12,1,1,0,0,0,0-.36,0.06,0.06,0,0,1,.12,0,1.15,1.15,0,0,1,0,.42l0.1,0s0.06,0,.07-0.1a0.22,0.22,0,0,1,0-.12,0.1,0.1,0,0,1,.09,0,0.14,0.14,0,0,1,.08.09s0,0,0,0a0,0,0,0,1,0,0c0,0.18-.05.23-0.19,0.23a0.15,0.15,0,0,1-.14,0h0a0.18,0.18,0,0,1-.12,0h0Z" transform="translate(-1092.58 -255.17)"/>
      <path class="e" d="M1123,277.59l0,0a0.06,0.06,0,0,1,0-.08,0.52,0.52,0,0,0,.1-0.15,0.19,0.19,0,0,1-.12-0.16,0.13,0.13,0,0,1,.06-0.13,0.17,0.17,0,0,1,.17.09,0.43,0.43,0,0,1-.13.44l0,0h0Z" transform="translate(-1092.58 -255.17)"/>
      <path class="e" d="M1123.3,277.51a0.06,0.06,0,0,1-.05,0,0.06,0.06,0,0,1,0-.08,0.12,0.12,0,0,0,.08-0.06,0.12,0.12,0,0,1-.14-0.08,0.16,0.16,0,0,1,.09-0.17l0.1,0a0.15,0.15,0,0,1,.08.15A1.52,1.52,0,0,0,1124,277a0.06,0.06,0,0,1,.08,0,0.06,0.06,0,0,1,0,.08,1.58,1.58,0,0,1-.61.19,0.23,0.23,0,0,1-.16.18h0Z" transform="translate(-1092.58 -255.17)"/>
      <path class="e" d="M1123.85,277.34h-0.07a0.74,0.74,0,0,1-.08-0.17,0.17,0.17,0,0,0,0,.07c0,0.07-.12.07-0.12,0a0.24,0.24,0,0,1,.1-0.21v0l0-.18a0.06,0.06,0,0,1,0-.07,0.06,0.06,0,0,1,.07,0l0,0.19v0a0.18,0.18,0,0,1,.11,0,0.17,0.17,0,0,1,.11.15,0.13,0.13,0,0,1,0,.16,0.16,0.16,0,0,1-.12.05h0Z" transform="translate(-1092.58 -255.17)"/>
      <path class="e" d="M1124.18,277.21a0.17,0.17,0,0,1-.17-0.11,0.26,0.26,0,0,1,0-.1,0.26,0.26,0,0,1,.36,0,0.16,0.16,0,0,1,0,.17,0.25,0.25,0,0,1-.2.09h0Z" transform="translate(-1092.58 -255.17)"/>
      <path class="a" d="M1124.33,277l0.14-.09Z" transform="translate(-1092.58 -255.17)"/>
      <path class="e" d="M1124.55,277.06l-0.07,0a0.43,0.43,0,0,1-.16-0.4,0.08,0.08,0,0,0,0-.08,0.13,0.13,0,0,0-.12,0,0.06,0.06,0,1,1-.08-0.08,0.24,0.24,0,0,1,.26-0.06,0.2,0.2,0,0,1,.11.19,0.35,0.35,0,0,0,.09.3h0.06v0a0.17,0.17,0,0,1,.11-0.08,0.16,0.16,0,0,1,.05.11,0.32,0.32,0,0,1-.21.11h0Z" transform="translate(-1092.58 -255.17)"/>
      <path class="a" d="M1120.2,277.08h0Z" transform="translate(-1092.58 -255.17)"/>
      <path class="a" d="M1120.52,277.13h0Z" transform="translate(-1092.58 -255.17)"/>
      <path class="c" d="M1121.82,272.69l3.87,3.59-0.27-6.52c0-1-.9-0.76-1.52-0.41a16.18,16.18,0,0,1-4.23,0c-0.62-.36-1.48-0.58-1.52.41l-0.28,6.52Z" transform="translate(-1092.58 -255.17)"/>
      <path class="e" d="M1117.86,276.34h0a0.06,0.06,0,0,1,0-.06l0.28-6.52a0.66,0.66,0,0,1,.66-0.77,2.13,2.13,0,0,1,.95.31,2.27,2.27,0,0,0,2.06.13,2.33,2.33,0,0,0,2.1-.13,2.14,2.14,0,0,1,.95-0.31,0.66,0.66,0,0,1,.67.77l0.27,6.52a0.06,0.06,0,0,1-.1,0l-3.83-3.55-3.92,3.55,0,0h0Zm0.88-7.23a0.55,0.55,0,0,0-.54.65l-0.27,6.38,3.85-3.49a0.06,0.06,0,0,1,.08,0l3.76,3.49-0.27-6.37c0-.74-0.61-0.82-1.43-0.36a2.39,2.39,0,0,1-2.16.14,2.33,2.33,0,0,1-2.13-.14,1.93,1.93,0,0,0-.89-0.29h0Z" transform="translate(-1092.58 -255.17)"/>
      <path class="c" d="M1122.41,269.72a1.1,1.1,0,0,0,.58.13,1.9,1.9,0,0,1-.54-1.52q0.13-1.08-.53-1.21a2.54,2.54,0,0,0-.32,0,0.27,0.27,0,0,0-.29.18c-0.14-.09-0.25,0-0.38-0.13a0.28,0.28,0,0,0-.37.32l0.09,0a0.91,0.91,0,0,1,.21.1,0.61,0.61,0,0,1,.34.47,2,2,0,0,1-.63,1.89,1.09,1.09,0,0,0,.58-0.13,1.42,1.42,0,0,1-.22.27,0.83,0.83,0,0,0,.62-0.36c0,0.09.18,0.22,0.23,0.31,0-.09.18-0.22,0.23-0.31a0.83,0.83,0,0,0,.63.36,1.43,1.43,0,0,1-.22-0.27h0Z" transform="translate(-1092.58 -255.17)"/>
      <path class="e" d="M1120.75,270.07l0.13-.13,0.09-.09a1.38,1.38,0,0,1-.41,0h-0.14l0.11-.1a1.91,1.91,0,0,0,.61-1.84,0.49,0.49,0,0,0-.25-0.39l-0.06,0-0.18-.09-0.13.07v-0.09a0.33,0.33,0,0,1,.44-0.37,0.42,0.42,0,0,0,.18.06,0.64,0.64,0,0,1,.16,0,0.34,0.34,0,0,1,.26-0.17,1,1,0,0,1,.28,0h0.09c0.49,0.1.68,0.53,0.59,1.28a1.83,1.83,0,0,0,.52,1.47l0.15,0.1H1123a1.38,1.38,0,0,1-.41,0l0.09,0.09,0.13,0.13-0.18,0a1,1,0,0,1-.61-0.31l-0.07.09a1.13,1.13,0,0,0-.11.15l0,0.09,0-.09a1.29,1.29,0,0,0-.11-0.15l-0.07-.09a1,1,0,0,1-.62.31l-0.18,0h0Zm1.24-.56,0.05,0.09a0.66,0.66,0,0,0,.41.29l-0.1-.14,0.07-.08a0.91,0.91,0,0,0,.4.12,2.1,2.1,0,0,1-.44-1.47c0.09-.7-0.07-1.07-0.49-1.16a0.15,0.15,0,0,1-.11,0l-0.21,0a0.26,0.26,0,0,0-.23.15l0,0.05-0.05,0a0.4,0.4,0,0,0-.17-0.06,0.49,0.49,0,0,1-.21-0.07,0.2,0.2,0,0,0-.27.18h0a0.48,0.48,0,0,1,.22.08l0.1,0.07a0.62,0.62,0,0,1,.3.47,2.05,2.05,0,0,1-.55,1.84,0.93,0.93,0,0,0,.41-0.12l0.07,0.08-0.1.14a0.65,0.65,0,0,0,.41-0.29l0.05-.09,0,0.09a1.3,1.3,0,0,0,.11.15l0.07,0.09,0.07-.09a1.11,1.11,0,0,0,.11-0.15l0-.09h0Z" transform="translate(-1092.58 -255.17)"/>
      <path class="e" d="M1122.43,269.82a0.06,0.06,0,0,1-.05,0,1.91,1.91,0,0,1-.26-0.92c0-.07.12-0.07,0.12,0a1.81,1.81,0,0,0,.25.87,0.06,0.06,0,0,1,0,.08h0Z" transform="translate(-1092.58 -255.17)"/>
      <path class="e" d="M1122,269.69a0.06,0.06,0,0,1-.05,0,1.63,1.63,0,0,1-.15-0.8c0-.07.12-0.07,0.12,0a1.53,1.53,0,0,0,.13.73,0.06,0.06,0,0,1,0,.08h0Z" transform="translate(-1092.58 -255.17)"/>
      <path class="e" d="M1121.11,269.82h0a0.06,0.06,0,0,1,0-.08,1.82,1.82,0,0,0,.25-0.87,0.06,0.06,0,0,1,.12,0,1.92,1.92,0,0,1-.26.93,0.06,0.06,0,0,1-.05,0h0Z" transform="translate(-1092.58 -255.17)"/>
      <path class="e" d="M1121.55,269.69h0a0.06,0.06,0,0,1,0-.08,1.5,1.5,0,0,0,.13-0.73c0-.07.12-0.07,0.12,0a1.61,1.61,0,0,1-.15.8,0.06,0.06,0,0,1-.05,0h0Z" transform="translate(-1092.58 -255.17)"/>
      <path class="e" d="M1120.59,267.38a0.6,0.6,0,0,1,.26.11,0.58,0.58,0,0,1,.34.43c0-.14,0-0.28.14-0.23a0.62,0.62,0,0,0-.74-0.31h0Z" transform="translate(-1092.58 -255.17)"/>
      <path class="e" d="M1121.19,267.95l0,0h0v-0.05h0a0.57,0.57,0,0,0-.31-0.36l-0.05-.06v0a0.41,0.41,0,0,0-.19-0.07,0.16,0.16,0,0,1,.17-0.09,0.66,0.66,0,0,1,.6.36,0,0,0,0,1,0,0h0a0.16,0.16,0,0,0-.08.15,0,0,0,0,1,0,0l0,0a0,0,0,0,1,0,0h0Zm-0.5-.56a0.29,0.29,0,0,1,.12,0l0.06,0a0.65,0.65,0,0,1,.3.29l0-.05a0.12,0.12,0,0,1,.09,0,0.63,0.63,0,0,0-.6-0.27h0Z" transform="translate(-1092.58 -255.17)"/>
      <polygon class="e" points="29.38 18.23 29.92 20.7 29.74 20.88 29.55 20.74 29.24 18.54 29.38 20.74 29.2 20.97 29.02 20.74 29.15 18.54 28.84 20.74 28.65 20.88 28.48 20.7 29.02 18.23 29.38 18.23"/>
      <path class="e" d="M1121.77,276.22l-0.22-.28,0.05-1.06-0.14,1-0.21.17-0.24-.19,0.53-2.52,0.41,0,0.59,2.51-0.19.23-0.25-.13-0.16-1.08,0.06,1-0.23.31h0Zm0-2.47-0.13,2.17,0.13,0.14,0.14-.18-0.14-2.13h0Zm0.13-.33-0.31,0-0.49,2.43,0.16,0.13,0.12-.14,0.29-2.17h0.2l0.31,2.21,0.16,0.1,0.11-.17-0.56-2.42h0Z" transform="translate(-1092.58 -255.17)"/>
      <path class="e" d="M1118.58,269.53l-0.27,6.34-0.45.41,0.28-6.52a1.33,1.33,0,0,1,.45-0.23h0Z" transform="translate(-1092.58 -255.17)"/>
      <path class="e" d="M1119.13,270l-0.23,5.31-0.45.46,0.28-6.13c0.09,0.09.36,0.31,0.41,0.36h0Z" transform="translate(-1092.58 -255.17)"/>
      <path class="e" d="M1119.62,270.39l-0.18,4.43-0.37.36,0.23-5c0.09,0.09.27,0.22,0.32,0.27h0Z" transform="translate(-1092.58 -255.17)"/>
      <path class="e" d="M1120.15,270.62l-0.18,3.77-0.36.29,0.18-4.2a1.28,1.28,0,0,0,.36.14h0Z" transform="translate(-1092.58 -255.17)"/>
      <path class="e" d="M1120.65,270.62l-0.13,3.14-0.36.36,0.14-3.46a0.93,0.93,0,0,0,.36,0h0Z" transform="translate(-1092.58 -255.17)"/>
      <path class="e" d="M1125,269.53l0.27,6.34,0.45,0.41-0.28-6.52a1.31,1.31,0,0,0-.45-0.23h0Z" transform="translate(-1092.58 -255.17)"/>
      <path class="e" d="M1124.42,270l0.23,5.31,0.45,0.4-0.28-6.06c-0.09.09-.36,0.31-0.4,0.36h0Z" transform="translate(-1092.58 -255.17)"/>
      <path class="e" d="M1123.93,270.39l0.19,4.43,0.36,0.29-0.23-5c-0.09.09-.27,0.22-0.31,0.27h0Z" transform="translate(-1092.58 -255.17)"/>
      <path class="e" d="M1123.39,270.62l0.18,3.71,0.36,0.29-0.18-4.13a1.25,1.25,0,0,1-.36.14h0Z" transform="translate(-1092.58 -255.17)"/>
      <path class="e" d="M1122.9,270.62l0.13,3.14,0.37,0.36-0.14-3.46a0.92,0.92,0,0,1-.36,0h0Z" transform="translate(-1092.58 -255.17)"/>
      <polygon class="c" points="27.98 17.15 26.9 20.97 28.39 21.2 29.02 18.32 27.98 17.15"/>
      <path class="e" d="M1121,276.42h0l-1.48-.23,0,0a0.06,0.06,0,0,1,0,0l1.08-3.82a0.05,0.05,0,0,1,0,0l0.05,0,1,1.18-0.62,2.92a0.06,0.06,0,0,1-.05,0h0Zm-1.41-.33,1.37,0.21,0.62-2.82-1-1.05-1,3.66h0Z" transform="translate(-1092.58 -255.17)"/>
      <polygon class="c" points="30.41 17.15 31.49 20.97 30.01 21.2 29.38 18.32 30.41 17.15"/>
      <path class="e" d="M1122.58,276.42a0.06,0.06,0,0,1-.05,0l-0.63-2.87,1-1.22,0.05,0a0.06,0.06,0,0,1,0,0l1.08,3.82a0.05,0.05,0,0,1,0,0l0,0-1.48.23h0Zm0.38-4-1,1.1,0.63,2.78,1.37-.21-1-3.66h0Z" transform="translate(-1092.58 -255.17)"/>
      <path class="e" d="M1120.33,274h0a0.06,0.06,0,0,1,0,0l-0.13-.31a0.06,0.06,0,0,1,0-.08,0.06,0.06,0,0,1,.08,0l0.09,0.23,0.34-.37a0.06,0.06,0,0,1,.09.08l-0.4.45,0,0h0Z" transform="translate(-1092.58 -255.17)"/>
      <path class="e" d="M1120.83,274.27h0a0.06,0.06,0,0,1,0-.05l-0.14-1.26a0.06,0.06,0,0,1,.05-0.06,0.06,0.06,0,0,1,.07.05l0.12,1.11,0.36-.46a0.06,0.06,0,0,1,.08,0,0.06,0.06,0,0,1,0,.08l-0.45.58,0,0h0Z" transform="translate(-1092.58 -255.17)"/>
      <path class="e" d="M1121.37,274.58a0.06,0.06,0,0,1-.06,0l-0.27-.67a0.06,0.06,0,0,1,0-.08,0.06,0.06,0,0,1,.08,0l0.27,0.67a0.06,0.06,0,0,1,0,.08h0Z" transform="translate(-1092.58 -255.17)"/>
      <path class="e" d="M1121,275.12h0a0.06,0.06,0,0,1,0,0l-0.18-.59-0.15.28s0,0-.05,0a0.06,0.06,0,0,1-.05,0l-0.15-.37-0.33.3a0.06,0.06,0,0,1-.08-0.09l0.4-.36a0.05,0.05,0,0,1,.05,0,0.06,0.06,0,0,1,0,0l0.14,0.33,0.16-.3a0.07,0.07,0,0,1,.06,0,0.06,0.06,0,0,1,.05,0L1121,275l0.29-.29a0.06,0.06,0,1,1,.09.09l-0.37.36,0,0h0Z" transform="translate(-1092.58 -255.17)"/>
      <path class="e" d="M1121.1,275.93a0.06,0.06,0,0,1-.06,0l-0.11-.55-0.28.35a0.05,0.05,0,0,1-.06,0,0.06,0.06,0,0,1,0,0l-0.14-.44-0.25.32a0.07,0.07,0,0,1-.05,0,0.05,0.05,0,0,1,0,0l-0.28-.67a0.06,0.06,0,0,1,0-.08,0.06,0.06,0,0,1,.08,0l0.24,0.58,0.25-.32a0.07,0.07,0,0,1,.06,0,0.06,0.06,0,0,1,0,0l0.14,0.44,0.29-.37a0.05,0.05,0,0,1,.06,0,0.06,0.06,0,0,1,0,0l0.14,0.68a0.06,0.06,0,0,1,0,.07h0Z" transform="translate(-1092.58 -255.17)"/>
      <path class="e" d="M1120.74,276.43h0a0.06,0.06,0,0,1,0,0l-0.14-.42-0.2.34a0,0,0,0,1-.06,0,0.06,0.06,0,0,1-.05,0l-0.19-.49-0.2.28a0.06,0.06,0,0,1-.08,0,0.06,0.06,0,0,1,0-.08l0.27-.37a0.06,0.06,0,0,1,.06,0,0.05,0.05,0,0,1,0,0l0.18,0.47,0.21-.35a0.06,0.06,0,0,1,.06,0,0.06,0.06,0,0,1,.05,0l0.15,0.46,0.21-.17a0.06,0.06,0,0,1,.08.09l-0.28.23h0Z" transform="translate(-1092.58 -255.17)"/>
      <path class="e" d="M1123.21,274l0,0-0.4-.45a0.06,0.06,0,1,1,.09-0.08l0.34,0.38,0.1-.23a0.06,0.06,0,0,1,.08,0,0.06,0.06,0,0,1,0,.08l-0.13.31a0.06,0.06,0,0,1,0,0h0Z" transform="translate(-1092.58 -255.17)"/>
      <path class="e" d="M1122.72,274.27l0,0-0.45-.58a0.06,0.06,0,1,1,.09-0.07l0.36,0.47,0.12-1.11a0.06,0.06,0,0,1,.06-0.05,0.06,0.06,0,0,1,.05.06l-0.13,1.26a0.06,0.06,0,0,1,0,.05h0Z" transform="translate(-1092.58 -255.17)"/>
      <path class="e" d="M1122.18,274.58h0a0.06,0.06,0,0,1,0-.08l0.27-.67a0.06,0.06,0,0,1,.08,0,0.06,0.06,0,0,1,0,.08l-0.27.67a0.06,0.06,0,0,1-.05,0h0Z" transform="translate(-1092.58 -255.17)"/>
      <path class="e" d="M1122.58,275.12l0,0-0.36-.36a0.06,0.06,0,0,1,0-.09,0.06,0.06,0,0,1,.08,0l0.28,0.29,0.15-.62a0.06,0.06,0,0,1,0,0,0.06,0.06,0,0,1,.06,0l0.21,0.31,0.14-.34a0.06,0.06,0,0,1,0,0,0.05,0.05,0,0,1,.05,0l0.41,0.36a0.06,0.06,0,0,1-.08.09l-0.34-.3-0.15.37a0.06,0.06,0,0,1-.11,0l-0.19-.29-0.15.59a0.06,0.06,0,0,1,0,0h0Z" transform="translate(-1092.58 -255.17)"/>
      <path class="e" d="M1122.45,275.93h0a0.06,0.06,0,0,1,0-.07l0.14-.68a0.06,0.06,0,0,1,0,0,0.05,0.05,0,0,1,.06,0l0.29,0.37,0.14-.44a0.06,0.06,0,0,1,0,0,0.06,0.06,0,0,1,.06,0l0.25,0.32,0.24-.58a0.06,0.06,0,0,1,.08,0,0.06,0.06,0,0,1,0,.08l-0.28.67a0.06,0.06,0,0,1,0,0,0.06,0.06,0,0,1-.05,0l-0.25-.32-0.14.44a0.06,0.06,0,0,1,0,0,0.06,0.06,0,0,1-.06,0l-0.28-.35-0.11.55a0.06,0.06,0,0,1-.06,0h0Z" transform="translate(-1092.58 -255.17)"/>
      <path class="e" d="M1122.81,276.43h0l-0.28-.23a0.06,0.06,0,0,1,.08-0.09l0.21,0.17,0.15-.46a0.06,0.06,0,0,1,.05,0,0.06,0.06,0,0,1,.06,0l0.21,0.35,0.18-.47a0.05,0.05,0,0,1,0,0,0.06,0.06,0,0,1,.05,0l0.27,0.37a0.06,0.06,0,0,1,0,.08,0.06,0.06,0,0,1-.08,0l-0.2-.28-0.19.49a0.06,0.06,0,0,1-.05,0,0,0,0,0,1-.06,0L1123,276l-0.14.42a0.06,0.06,0,0,1,0,0h0Z" transform="translate(-1092.58 -255.17)"/>
      <path class="c" d="M1121.77,270.12a2.46,2.46,0,0,0,1.71.49,2.15,2.15,0,1,1-3.42,0,2.44,2.44,0,0,0,1.71-.49h0Z" transform="translate(-1092.58 -255.17)"/>
      <path class="e" d="M1121.77,274.12h0a3.89,3.89,0,0,1-1.73-3.49,0.5,0.5,0,0,1,.23,0h0a2.36,2.36,0,0,0,1.5-.49,2.62,2.62,0,0,0,1.73.49,3.79,3.79,0,0,1-1.68,3.54h0Zm-1.71-3.46a3.92,3.92,0,0,0,1.71,3.37,3.81,3.81,0,0,0,1.67-3.41,0.14,0.14,0,0,1-.14,0,2.48,2.48,0,0,1-1.55-.51,2.21,2.21,0,0,1-1.5.51h-0.19Z" transform="translate(-1092.58 -255.17)"/>
      <path class="e" d="M1121.77,273.9a3.72,3.72,0,0,0,1.53-3.15,2.38,2.38,0,0,1-1.53-.45,2.5,2.5,0,0,1-1.57.45,3.88,3.88,0,0,0,1.57,3.15h0Z" transform="translate(-1092.58 -255.17)"/>
      <path class="e" d="M1121.77,274h0a3.94,3.94,0,0,1-1.6-3.2,0,0,0,0,1,0,0l0,0a2.42,2.42,0,0,0,1.54-.43,0.06,0.06,0,0,1,.07,0,2.31,2.31,0,0,0,1.49.43l0,0a0.06,0.06,0,0,1,0,0,3.78,3.78,0,0,1-1.56,3.2h0Zm-1.51-3.15a3.83,3.83,0,0,0,1.51,3,3.68,3.68,0,0,0,1.47-3,2.49,2.49,0,0,1-1.48-.43,2.52,2.52,0,0,1-1.51.43h0Z" transform="translate(-1092.58 -255.17)"/>
      <path class="c" d="M1120.24,276.14a4.51,4.51,0,0,0,1.09,0c0.18,0,.31.31,0,0.36a4.24,4.24,0,0,1-1.08,0c-0.23,0-.72-0.13-1-0.22a0.19,0.19,0,1,1,.09-0.37,5.91,5.91,0,0,0,1,.23h0Z" transform="translate(-1092.58 -255.17)"/>
      <path class="e" d="M1121,276.62a4.84,4.84,0,0,1-.78-0.06c-0.21,0-.72-0.13-1-0.22a0.25,0.25,0,0,1-.2-0.28,0.28,0.28,0,0,1,.27-0.21,7.25,7.25,0,0,0,1,.23,4.67,4.67,0,0,0,1.07.05h0a0.24,0.24,0,0,1,.24.22,0.26,0.26,0,0,1-.28.25l-0.32,0h0Zm-1.74-.65a0.17,0.17,0,0,0-.16.11,0.15,0.15,0,0,0,.12.14c0.31,0.09.81,0.18,1,.22a4.29,4.29,0,0,0,1.06,0c0.12,0,.18-0.06.17-0.12a0.13,0.13,0,0,0-.12-0.11,4.94,4.94,0,0,1-1.09-.05,5.84,5.84,0,0,1-1-.23h0Z" transform="translate(-1092.58 -255.17)"/>
      <path class="c" d="M1123.3,276.14a4.46,4.46,0,0,1-1.08,0c-0.19,0-.31.31,0,0.36a4.24,4.24,0,0,0,1.08,0c0.23,0,.72-0.13,1-0.22a0.19,0.19,0,1,0-.09-0.37,5.86,5.86,0,0,1-1,.23h0Z" transform="translate(-1092.58 -255.17)"/>
      <path class="e" d="M1122.57,276.62l-0.31,0a0.26,0.26,0,0,1-.28-0.25,0.25,0.25,0,0,1,.24-0.23,4.41,4.41,0,0,0,1.07,0,5.86,5.86,0,0,0,1-.22,0.28,0.28,0,0,1,.32.2,0.24,0.24,0,0,1-.19.28c-0.33.09-.84,0.19-1.05,0.22a4.83,4.83,0,0,1-.78.06h0Zm-0.35-.37a0.13,0.13,0,0,0-.12.11c0,0.06.06,0.11,0.17,0.12a4.41,4.41,0,0,0,1.06,0c0.21,0,.71-0.13,1-0.22a0.15,0.15,0,0,0,.11-0.14,0.16,0.16,0,0,0-.15-0.11,6.78,6.78,0,0,1-1,.23,4.75,4.75,0,0,1-1.09.05h0Z" transform="translate(-1092.58 -255.17)"/>
      <path class="c" d="M1119.13,276a0.31,0.31,0,0,0-.32.45c0-.09.23-0.09,0.27-0.18a0.59,0.59,0,0,1,0-.27h0Z" transform="translate(-1092.58 -255.17)"/>
      <path class="e" d="M1118.81,276.47a0.06,0.06,0,0,1-.05,0,0.4,0.4,0,0,1,0-.37,0.33,0.33,0,0,1,.29-0.16,0.12,0.12,0,0,1,.08,0,0.08,0.08,0,0,1,0,.06,0.1,0.1,0,0,0,0,.1,0.31,0.31,0,0,1,0,.16,0.27,0.27,0,0,1-.17.13,0.21,0.21,0,0,0-.1.06,0.05,0.05,0,0,1-.05,0h0ZM1119,276a0.21,0.21,0,0,0-.14.1,0.29,0.29,0,0,0,0,.17l0.08,0a0.23,0.23,0,0,0,.1-0.06,0.15,0.15,0,0,0,0-.09,0.21,0.21,0,0,1,0-.09h0Z" transform="translate(-1092.58 -255.17)"/>
      <path class="c" d="M1120.2,276.79c0-.18.18-0.16,0.18-0.33a0.21,0.21,0,0,0-.14-0.23,0.19,0.19,0,0,0-.18.18,1.43,1.43,0,0,0,.14.38h0Z" transform="translate(-1092.58 -255.17)"/>
      <path class="e" d="M1120.2,276.85a0.06,0.06,0,0,1-.06-0.06,0.22,0.22,0,0,0-.06-0.14,0.28,0.28,0,0,1-.07-0.25,0.24,0.24,0,0,1,.24-0.22,0.26,0.26,0,0,1,.2.29,0.26,0.26,0,0,1-.11.21,0.15,0.15,0,0,0-.07.12,0.06,0.06,0,0,1-.06.06h0Zm0-.56a0.14,0.14,0,0,0-.12.12,0.17,0.17,0,0,0,.05.16l0,0,0,0a0.14,0.14,0,0,0,.07-0.12,0.18,0.18,0,0,0-.08-0.17h0Z" transform="translate(-1092.58 -255.17)"/>
      <path class="c" d="M1121.48,276.28c0.27,0,.24.36,0.11,0.53a1.62,1.62,0,0,0-.23-0.27c0-.14.2-0.14,0.12-0.27h0Z" transform="translate(-1092.58 -255.17)"/>
      <path class="e" d="M1121.6,276.87h0a0.06,0.06,0,0,1,0-.06,0.19,0.19,0,0,0-.1-0.11,0.21,0.21,0,0,1-.12-0.16,0.22,0.22,0,0,1,.1-0.17,0.13,0.13,0,0,1,0-.09,0.14,0.14,0,0,1,.07-0.06,0.24,0.24,0,0,1,.23.13,0.53,0.53,0,0,1-.07.5l0,0h0Zm0-.52a0.18,0.18,0,0,1-.08.11,0.11,0.11,0,0,0-.06.08l0.07,0.06,0.1,0.08a0.38,0.38,0,0,0,0-.28l0,0h0Z" transform="translate(-1092.58 -255.17)"/>
      <path class="c" d="M1124.42,276a0.31,0.31,0,0,1,.31.45c0-.09-0.23-0.09-0.27-0.18a0.59,0.59,0,0,0,0-.27h0Z" transform="translate(-1092.58 -255.17)"/>
      <path class="e" d="M1124.74,276.47a0.07,0.07,0,0,1-.05,0,0.21,0.21,0,0,0-.1-0.06,0.28,0.28,0,0,1-.17-0.12,0.29,0.29,0,0,1,0-.16,0.11,0.11,0,0,0,0-.1,0.06,0.06,0,0,1,0-.06,0.06,0.06,0,0,1,0,0,0.34,0.34,0,0,1,.35.16,0.4,0.4,0,0,1,0,.37,0.06,0.06,0,0,1-.05,0h0Zm-0.22-.45a0.21,0.21,0,0,1,0,.09,0.16,0.16,0,0,0,0,.1,0.24,0.24,0,0,0,.1.05l0.08,0a0.31,0.31,0,0,0,0-.17,0.22,0.22,0,0,0-.14-0.1h0Z" transform="translate(-1092.58 -255.17)"/>
      <path class="c" d="M1123.35,276.79c0-.18-0.18-0.16-0.18-0.33a0.21,0.21,0,0,1,.14-0.23,0.19,0.19,0,0,1,.18.18,1.51,1.51,0,0,1-.14.38h0Z" transform="translate(-1092.58 -255.17)"/>
      <path class="e" d="M1123.35,276.85a0.06,0.06,0,0,1-.06-0.06,0.15,0.15,0,0,0-.07-0.12,0.26,0.26,0,0,1-.11-0.21,0.26,0.26,0,0,1,.2-0.29,0.25,0.25,0,0,1,.24.24,0.27,0.27,0,0,1-.08.24,0.22,0.22,0,0,0-.06.14,0.06,0.06,0,0,1-.06.06h0Zm0-.56a0.18,0.18,0,0,0-.08.17,0.14,0.14,0,0,0,.07.12l0,0,0,0a0.16,0.16,0,0,0,.05-0.15,0.14,0.14,0,0,0-.12-0.13h0Z" transform="translate(-1092.58 -255.17)"/>
      <path class="c" d="M1122.06,276.28c-0.27,0-.24.36-0.11,0.53a1.62,1.62,0,0,1,.23-0.27c0-.14-0.21-0.14-0.12-0.27h0Z" transform="translate(-1092.58 -255.17)"/>
      <path class="e" d="M1122,276.87a0.06,0.06,0,0,1,0,0,0.53,0.53,0,0,1-.07-0.5,0.25,0.25,0,0,1,.23-0.13,0.06,0.06,0,0,1,.05,0,0.06,0.06,0,0,1,0,.06,0.43,0.43,0,0,1,.13.23,0.21,0.21,0,0,1-.12.16,0.19,0.19,0,0,0-.1.11,0.06,0.06,0,0,1,0,.06h0Zm0-.52a0.12,0.12,0,0,0,0,0,0.37,0.37,0,0,0,0,.28l0.1-.08a0.24,0.24,0,0,0,.07-0.06,0.11,0.11,0,0,0-.06-0.08,0.19,0.19,0,0,1-.08-0.11h0Z" transform="translate(-1092.58 -255.17)"/>
      <path class="c" d="M1119.21,276.05a0.43,0.43,0,0,1,.27.09Z" transform="translate(-1092.58 -255.17)"/>
      <path class="e" d="M1119.48,276.18h0l-0.27-.09a0,0,0,0,1,0,0,0,0,0,0,1,0,0,0.47,0.47,0,0,1,.3.1,0,0,0,0,1,0,.05l0,0h0Z" transform="translate(-1092.58 -255.17)"/>
      <path class="c" d="M1119.66,276.19a1,1,0,0,1,.31.09Z" transform="translate(-1092.58 -255.17)"/>
      <path class="e" d="M1120,276.32h0l-0.32-.09a0,0,0,0,1,0,0,0.38,0.38,0,0,1,.38.06,0,0,0,0,1,0,.05,0,0,0,0,1,0,0h0Z" transform="translate(-1092.58 -255.17)"/>
      <path class="c" d="M1121.28,276.37a0.73,0.73,0,0,0-.31,0Z" transform="translate(-1092.58 -255.17)"/>
      <path class="e" d="M1121,276.45a0,0,0,0,1,0-.07,0.63,0.63,0,0,1,.34-0.05,0,0,0,0,1,0,0,0,0,0,0,1,0,0l-0.31,0h0Z" transform="translate(-1092.58 -255.17)"/>
      <path class="c" d="M1120.79,276.37a0.36,0.36,0,0,0-.32,0h0.32Z" transform="translate(-1092.58 -255.17)"/>
      <path class="e" d="M1120.79,276.41h-0.32a0,0,0,0,1,0,0,0,0,0,0,1,0,0,0.33,0.33,0,0,1,.37,0,0,0,0,0,1,0,0,0,0,0,0,1,0,0h0Z" transform="translate(-1092.58 -255.17)"/>
      <path class="c" d="M1124.33,276.05a0.46,0.46,0,0,0-.27.09Z" transform="translate(-1092.58 -255.17)"/>
      <path class="e" d="M1124.07,276.18l0,0a0,0,0,0,1,0-.05,0.51,0.51,0,0,1,.3-0.1,0,0,0,0,1,0,0,0,0,0,0,1,0,0l-0.27.09h0Z" transform="translate(-1092.58 -255.17)"/>
      <path class="c" d="M1123.89,276.19a1,1,0,0,0-.32.09Z" transform="translate(-1092.58 -255.17)"/>
      <path class="e" d="M1123.57,276.32a0,0,0,0,1,0-.08,0.38,0.38,0,0,1,.38-0.06,0,0,0,0,1,0,0l-0.32.09h0Z" transform="translate(-1092.58 -255.17)"/>
      <path class="c" d="M1122.27,276.37a0.74,0.74,0,0,1,.32,0Z" transform="translate(-1092.58 -255.17)"/>
      <path class="e" d="M1122.58,276.45h0l-0.32,0a0,0,0,0,1,0,0,0,0,0,0,1,0,0,0.63,0.63,0,0,1,.34.05,0,0,0,0,1,0,0,0,0,0,0,1,0,0h0Z" transform="translate(-1092.58 -255.17)"/>
      <path class="c" d="M1122.76,276.37a0.36,0.36,0,0,1,.32,0h-0.32Z" transform="translate(-1092.58 -255.17)"/>
      <path class="e" d="M1123.08,276.41h-0.32a0,0,0,0,1,0,0,0,0,0,0,1,0,0,0.33,0.33,0,0,1,.37,0,0,0,0,0,1,0,.08h0Z" transform="translate(-1092.58 -255.17)"/>
      <path class="e" d="M1122.41,267.51a0.67,0.67,0,0,0-.47-0.45,1.26,1.26,0,0,0-.36,0,0.3,0.3,0,0,0-.3.2c0.14,0.1.17,0.2,0.24,0.23a0.3,0.3,0,0,0,.34-0.13,0.34,0.34,0,0,1,.54.18h0Z" transform="translate(-1092.58 -255.17)"/>
      <path class="e" d="M1121.61,267.51l-0.1,0a0.27,0.27,0,0,1-.1-0.09,0.71,0.71,0,0,0-.14-0.14,0.33,0.33,0,0,1,.27-0.25h0.12a0.8,0.8,0,0,1,.3,0,0.66,0.66,0,0,1,.45.38,0.43,0.43,0,0,0-.51-0.07,0.42,0.42,0,0,1-.27.16h0Zm0-.44a0.3,0.3,0,0,0-.26.18,0.31,0.31,0,0,1,.15.12,0.33,0.33,0,0,0,.08.07,0.27,0.27,0,0,0,.31-0.12,0.36,0.36,0,0,1,.43,0,0.69,0.69,0,0,0-.34-0.2,0.76,0.76,0,0,0-.22,0h-0.15Z" transform="translate(-1092.58 -255.17)"/>
      <path class="c" d="M1121.55,267.17a0.07,0.07,0,0,0,0,.14,0.07,0.07,0,0,0,0-.14h0Z" transform="translate(-1092.58 -255.17)"/>
      <path class="c" d="M1121.55,267.36a0.13,0.13,0,0,1-.13-0.13,0.13,0.13,0,0,1,.25,0,0.13,0.13,0,0,1-.13.13h0Z" transform="translate(-1092.58 -255.17)"/>
      <path class="c" d="M1122.32,270.6v2.83a3,3,0,0,1-.55.47,3.1,3.1,0,0,1-.55-0.47v-2.84a2.09,2.09,0,0,0,.55-0.29,1.72,1.72,0,0,0,.55.3h0Z" transform="translate(-1092.58 -255.17)"/>
    </g>
  </g>
</svg>
