<svg xmlns="http://www.w3.org/2000/svg" xmlns:xlink="http://www.w3.org/1999/xlink" viewBox="0 0 58.92 34.37">
  <defs>
    <style>
      .a {
        fill: none;
      }

      .b {
        clip-path: url(#a);
      }

      .c {
        fill: #d03633;
      }

      .d {
        fill: #f2dd30;
      }

      .e {
        fill: #2d6c41;
      }

      .f {
        fill: #4ba2d7;
      }
    </style>
    <clipPath id="a" transform="translate(-387.33 -313.34)">
      <rect class="a" x="387.33" y="313.34" width="58.92" height="34.37"/>
    </clipPath>
  </defs>
  <title>Ethiopia</title>
  <g class="b">
    <rect class="c" width="58.92" height="34.37"/>
    <rect class="d" width="58.92" height="22.92"/>
    <rect class="e" width="58.92" height="11.46"/>
    <g class="b">
      <path class="f" d="M425.38,330.53a8.59,8.59,0,1,1-8.59-8.59,8.59,8.59,0,0,1,8.59,8.59h0Z" transform="translate(-387.33 -313.34)"/>
      <path class="d" d="M410.25,328.38h5l1.13-3.48,0.3,0.93L415,330.88l-0.49-.36,0.51-1.57h-4Zm2.5,7.69,1.54-4.75-3-2.15h1l4.3,3.12-0.49.36-1.34-1-1.24,3.82-0.79.57h0Zm8.08,0-4-2.94-3,2.15,0.3-.93,4.3-3.12,0.19,0.57-1.34,1,3.25,2.36,0.3,0.93h0Zm2.5-7.69-4,2.94,1.13,3.48-0.79-.57L418,329.16h0.6l0.51,1.58,3.25-2.36h1Zm-6.54-4.75,1.54,4.75H422l-0.79.57h-5.31l0.19-.57h1.66l-1.24-3.82Z" transform="translate(-387.33 -313.34)"/>
      <path d="M416.79,333.68v0Zm-3-2.18-3.54,1.15Zm1.14-3.52-2.19-3Zm3.71,0,2.19-3Zm1.14,3.52,3.54,1.15Z" transform="translate(-387.33 -313.34)"/>
      <path class="d" d="M416.93,337.4h-0.29v-3.72h0.29v3.72h0Zm6.35-4.62-3.54-1.15,0.09-.27,3.54,1.15-0.09.27h0Zm-13,0-0.09-.27,3.54-1.15,0.09,0.27-3.54,1.15h0Zm8.46-4.72-0.23-.17,2.19-3,0.23,0.17-2.19,3h0Zm-3.94,0-2.19-3,0.23-.17,2.19,3-0.23.17h0Z" transform="translate(-387.33 -313.34)"/>
    </g>
  </g>
</svg>
