<svg xmlns="http://www.w3.org/2000/svg" xmlns:xlink="http://www.w3.org/1999/xlink" viewBox="0 0 58.92 34.37">
  <defs>
    <style>
      .a {
        fill: none;
      }

      .b {
        clip-path: url(#a);
      }

      .c {
        fill: #d50037;
      }
    </style>
    <clipPath id="a" transform="translate(-33.88 -371.66)">
      <rect class="a" x="33.88" y="371.66" width="58.92" height="34.37"/>
    </clipPath>
  </defs>
  <title>Georgia</title>
  <g class="b">
    <g class="b">
      <path class="c" d="M47.85,379.42a18,18,0,0,1-.19,1.87c0,0.2-.07.39-0.1,0.59a9.55,9.55,0,0,1,2.34,0c0-.19-0.07-0.39-0.1-0.59a17.84,17.84,0,0,1-.19-1.87,17.54,17.54,0,0,1,2.46.29,9.53,9.53,0,0,1,0-2.34,17.84,17.84,0,0,1-2.46.29,17.76,17.76,0,0,1,.29-2.46,9.8,9.8,0,0,1-2.34,0,17.81,17.81,0,0,1,.29,2.46,17.84,17.84,0,0,1-2.46-.29,9.48,9.48,0,0,1,0,2.34,17.54,17.54,0,0,1,2.46-.29" transform="translate(-33.88 -371.66)"/>
      <path class="c" d="M77.07,379.42a18,18,0,0,1-.19,1.87c0,0.2-.06.39-0.1,0.59a9.55,9.55,0,0,1,2.34,0c0-.19-0.07-0.39-0.1-0.59a18,18,0,0,1-.19-1.87,17.53,17.53,0,0,1,2.46.29,9.53,9.53,0,0,1,0-2.34,17.83,17.83,0,0,1-2.46.29,17.92,17.92,0,0,1,.29-2.46,9.8,9.8,0,0,1-2.34,0,17.81,17.81,0,0,1,.29,2.46,17.84,17.84,0,0,1-2.46-.29,9.48,9.48,0,0,1,0,2.34,17.54,17.54,0,0,1,2.46-.29" transform="translate(-33.88 -371.66)"/>
      <path class="c" d="M49.61,398.28a18,18,0,0,1,.19-1.87c0-.2.07-0.39,0.1-0.59a9.53,9.53,0,0,1-2.34,0c0,0.2.07,0.39,0.1,0.59a17.94,17.94,0,0,1,.19,1.87,18.16,18.16,0,0,1-2.46-.29,9.48,9.48,0,0,1,0,2.34,17.85,17.85,0,0,1,2.46-.29,17.84,17.84,0,0,1-.29,2.46,9.55,9.55,0,0,1,2.34,0,17.79,17.79,0,0,1-.29-2.46,17.84,17.84,0,0,1,2.46.29,9.53,9.53,0,0,1,0-2.34,18.15,18.15,0,0,1-2.46.29" transform="translate(-33.88 -371.66)"/>
      <path class="c" d="M78.83,398.28a18.1,18.1,0,0,1,.19-1.87c0-.2.06-0.39,0.1-0.59a9.53,9.53,0,0,1-2.34,0c0,0.2.07,0.39,0.1,0.59a17.94,17.94,0,0,1,.19,1.87,18.14,18.14,0,0,1-2.46-.29,9.6,9.6,0,0,1,0,2.34,17.83,17.83,0,0,1,2.46-.29,17.84,17.84,0,0,1-.29,2.46,9.55,9.55,0,0,1,2.34,0,18,18,0,0,1-.29-2.46,17.84,17.84,0,0,1,2.46.29,9.53,9.53,0,0,1,0-2.34,18.15,18.15,0,0,1-2.46.29" transform="translate(-33.88 -371.66)"/>
      <rect class="c" x="26" width="6.93" height="34.37"/>
      <rect class="c" y="13.72" width="58.92" height="6.93"/>
    </g>
  </g>
</svg>
