<svg xmlns="http://www.w3.org/2000/svg" xmlns:xlink="http://www.w3.org/1999/xlink" viewBox="0 0 58.92 34.37">
  <defs>
    <style>
      .a {
        fill: none;
      }

      .b {
        clip-path: url(#a);
      }

      .c {
        fill: #cb1d23;
      }

      .d {
        fill: #fff;
      }
    </style>
    <clipPath id="a" transform="translate(-34.12 -432.24)">
      <rect class="a" x="34.12" y="432.24" width="58.92" height="34.37"/>
    </clipPath>
  </defs>
  <title>Hong_Kong</title>
  <g class="b">
    <rect class="c" width="58.92" height="34.37"/>
    <g class="b">
      <path class="d" d="M63.58,449.43a5.21,5.21,0,0,1,2.4-10,1.65,1.65,0,0,0-.7,2.48,2.72,2.72,0,0,1-1.14,3.79,2.24,2.24,0,0,0-.56,3.76" transform="translate(-34.12 -432.24)"/>
      <polygon class="c" points="28.99 11.75 29.64 10.25 28.24 11.08 29.86 11.24 28.64 10.16 28.99 11.75"/>
      <path class="c" d="M63.61,449.35a3.86,3.86,0,0,1-1.06-5.3L62.43,444a4,4,0,0,0,1.11,5.51Z" transform="translate(-34.12 -432.24)"/>
      <path class="d" d="M63.58,449.43a5.21,5.21,0,0,1,10.28-.81,1.65,1.65,0,0,0-2.58.1,2.72,2.72,0,0,1-4,.08,2.24,2.24,0,0,0-3.74.63" transform="translate(-34.12 -432.24)"/>
      <polygon class="c" points="34.48 15.06 36.11 15.22 34.89 14.13 35.24 15.73 35.89 14.23 34.48 15.06"/>
      <path class="c" d="M63.66,449.43a3.86,3.86,0,0,1,4.72-2.64l0-.14a4,4,0,0,0-4.9,2.76Z" transform="translate(-34.12 -432.24)"/>
      <path class="d" d="M63.58,449.43A5.21,5.21,0,0,1,54.79,444a1.65,1.65,0,0,0,2.14,1.43,2.72,2.72,0,0,1,3.25,2.26,2.24,2.24,0,0,0,3.4,1.69" transform="translate(-34.12 -432.24)"/>
      <polygon class="c" points="24.15 15.95 22.92 14.87 23.28 16.47 23.93 14.97 22.52 15.8 24.15 15.95"/>
      <path class="c" d="M63.52,449.38a3.86,3.86,0,0,1-5.37-.63l-0.12.1a4,4,0,0,0,5.59.65Z" transform="translate(-34.12 -432.24)"/>
      <path class="d" d="M63.58,449.43A5.21,5.21,0,0,1,67.53,459a1.65,1.65,0,0,0-.89-2.42,2.72,2.72,0,0,1-1.3-3.74,2.24,2.24,0,0,0-1.76-3.37" transform="translate(-34.12 -432.24)"/>
      <polygon class="c" points="33.04 21.31 33.39 22.9 34.04 21.4 32.63 22.23 34.26 22.39 33.04 21.31"/>
      <path class="c" d="M63.61,449.51a3.86,3.86,0,0,1,4,3.67h0.15a4,4,0,0,0-4.14-3.81Z" transform="translate(-34.12 -432.24)"/>
      <path class="d" d="M63.58,449.43a5.21,5.21,0,0,1-7.84,6.7,1.64,1.64,0,0,0,2-1.59,2.72,2.72,0,0,1,3.15-2.39,2.24,2.24,0,0,0,2.66-2.71" transform="translate(-34.12 -432.24)"/>
      <polygon class="c" points="26.65 21.86 25.24 22.69 26.87 22.85 25.64 21.76 26 23.36 26.65 21.86"/>
      <path class="c" d="M63.52,449.48a3.86,3.86,0,0,1-2.26,4.91l0.06,0.14a4,4,0,0,0,2.34-5.12Z" transform="translate(-34.12 -432.24)"/>
      <path class="c" d="M63.58,449.2a0.23,0.23,0,1,1-.23.23,0.23,0.23,0,0,1,.23-0.23" transform="translate(-34.12 -432.24)"/>
    </g>
  </g>
</svg>
