<svg xmlns="http://www.w3.org/2000/svg" xmlns:xlink="http://www.w3.org/1999/xlink" viewBox="0 0 58.92 34.37">
  <defs>
    <style>
      .a {
        fill: none;
      }

      .b {
        clip-path: url(#a);
      }

      .c {
        fill: #fff;
      }

      .d {
        fill: #1e2788;
      }

      .e {
        fill: #cb0028;
      }

      .f {
        fill: #3a7aa1;
      }

      .g {
        fill: #4c73d5;
      }

      .h {
        fill: #fbfc2b;
      }

      .i {
        fill: #c2a21f;
      }

      .j {
        fill: #613f21;
      }

      .k {
        fill: #160080;
      }

      .l {
        fill: #d30028;
      }

      .m {
        fill: #ba0019;
      }

      .n {
        fill: #82373b;
      }

      .o {
        fill: #83353b;
      }

      .p {
        fill: #e8d629;
      }

      .q {
        fill: #624e0f;
      }

      .r {
        fill: #f4c627;
      }

      .s {
        fill: #f4c427;
      }
    </style>
    <clipPath id="a" transform="translate(-245.94 -255.23)">
      <rect class="a" x="245.94" y="255.23" width="58.92" height="34.37"/>
    </clipPath>
  </defs>
  <title>Croatia</title>
  <g class="b">
    <rect class="c" y="11.46" width="58.92" height="11.46"/>
    <rect class="d" y="22.92" width="58.92" height="11.46"/>
    <rect class="e" width="58.92" height="11.46"/>
    <g class="b">
      <path class="c" d="M268.58,266.52a20.54,20.54,0,0,1,6.74-1.16,20.26,20.26,0,0,1,6.92,1.18l1.71-3.46-1.21-2.1-2.17.88s-1.52-1.65-1.52-1.65l-1.92,1.16L275.33,260l-1.7,1.36-2-1.15-1.45,1.72L268,261l-1.16,2.08Z" transform="translate(-245.94 -255.23)"/>
      <path class="e" d="M282.26,266.6l0,0a20.46,20.46,0,0,0-13.63,0l-1.77-3.47L268,261l2.23,0.91,1.39-1.71,2,1.13L275.3,260l1.87,1.38,1.87-1.17c0.64,0.65,1.52,1.61,1.57,1.65s1.54-.65,2.12-0.89l1.27,2.12-1.73,3.55h0ZM268,261l-1.1,2.06,1.72,3.39a19.32,19.32,0,0,1,6.69-1.19,20.47,20.47,0,0,1,6.9,1.17l1.69-3.42L282.7,261c-2.1.91-2.11,0.91-2.13,0.91a15.57,15.57,0,0,1-1.55-1.67l-1.86,1.17L275.3,260l-1.64,1.36-2-1.14L270.23,262,268,261h0Z" transform="translate(-245.94 -255.23)"/>
      <path class="f" d="M279.57,265.56l1-3.47,2.1-.85,1.11,1.86-1.59,3.25a14,14,0,0,0-2.6-.79h0Z" transform="translate(-245.94 -255.23)"/>
      <path class="g" d="M282.18,266.37h0a13.93,13.93,0,0,0-2.6-.79l1-3.49,2.11-.86,1.12,1.87-1.6,3.28h0Zm0.47-5.12-2.09.86-1,3.46a12.83,12.83,0,0,1,2.58.77l1.59-3.24-1.11-1.85h0Z" transform="translate(-245.94 -255.23)"/>
      <path class="f" d="M274,265.19l-0.33-3.6,1.67-1.33,1.75,1.33-0.31,3.6a26.24,26.24,0,0,0-2.78,0h0Z" transform="translate(-245.94 -255.23)"/>
      <path class="g" d="M276.82,265.2h0a25.69,25.69,0,0,0-2.78,0l-0.34-3.61,1.68-1.34,1.76,1.32-0.31,3.63h0Zm-1.46-4.93-1.66,1.33,0.34,3.59a20.93,20.93,0,0,1,2.75,0l0.31-3.59-1.74-1.31h0Z" transform="translate(-245.94 -255.23)"/>
      <path class="f" d="M268.66,266.35l-1.56-3.29,1-1.82,2.16,0.94,0.91,3.4a13.57,13.57,0,0,0-2.55.78h0Z" transform="translate(-245.94 -255.23)"/>
      <path class="g" d="M268.65,266.37l-1.56-3.31,1-1.83,2.18,0.93,0.92,3.41a14.8,14.8,0,0,0-2.56.79h0Zm-0.52-5.12-1,1.81,1.55,3.27a13.88,13.88,0,0,1,2.54-.77l-0.92-3.38-2.15-.93h0Z" transform="translate(-245.94 -255.23)"/>
      <path class="c" d="M268.33,264.7a2.65,2.65,0,0,0,1.23-.12,1.69,1.69,0,0,0,.79-0.7,0.88,0.88,0,0,1-.48,1.13,1.21,1.21,0,0,1-1.53-.3h0Z" transform="translate(-245.94 -255.23)"/>
      <path class="c" d="M269.25,265.16a1.09,1.09,0,0,1-.93-0.45h0.4a2.44,2.44,0,0,0,.83-0.14,1.63,1.63,0,0,0,.75-0.66h0a1.53,1.53,0,0,1-.75.68,2.7,2.7,0,0,1-1.23.12,1.28,1.28,0,0,0,1.53.28,0.87,0.87,0,0,0,.52-0.85,0.82,0.82,0,0,1-.51.87,1.35,1.35,0,0,1-.62.15h0Z" transform="translate(-245.94 -255.23)"/>
      <path class="h" d="M275.83,262.15l-0.09,0v0.17l-0.12,0-0.08.15,0,0s0,0.11,0,.11l0,0,0,0.09h0.08l0,0.11,0.12,0L276,263v0h0.13l0.09,0,0.31,0,0-.06v-0.09h0.17l0-.14h0.09v-0.16h0.07l0-.07,0-.06v-0.1l-0.13-.13,0-.17-0.08,0V262l0.09-.13v-0.05h-0.09l-0.06.05h-0.09v0l0,0.07h-0.1v-0.12l-0.14-.07-0.13.09V262L276,262l-0.06-.1-0.11,0h-0.06v0.07l0.12,0.15v0.09Z" transform="translate(-245.94 -255.23)"/>
      <path class="i" d="M276.17,263.14l-0.24,0V263l-0.1-.06h-0.11l0-.13h-0.05l-0.07-.21,0-.06-0.07,0,0.07-.19,0.14,0,0-.14,0.12-.05v-0.07l-0.11-.13V261.8h0.09l0.12,0L276,262l0-.11a0.26,0.26,0,0,1,.14-0.11l0.17,0.07,0,0.14,0,0,0,0c0-.07,0-0.08.11-0.09l0,0h0.13v0.08l-0.1.15v0.1a0.09,0.09,0,0,1,.07,0l0,0.19,0.12,0.11,0.08,0.24-0.1,0,0,0.13-0.12,0v0.11l-0.19,0,0,0.06,0,0.08-0.34,0h0Zm-0.08-.08,0.09,0,0.3,0,0-.05v-0.07l0.19,0v-0.11l0.12,0,0-.12,0.1,0-0.09-.09,0-.11-0.12-.11,0-.18c-0.08,0-.08,0-0.08,0V262l0.1-.15h-0.07l0,0-0.1,0,0,0.09-0.13,0,0-.14-0.12,0a0.54,0.54,0,0,1-.1.08,0.41,0.41,0,0,1,0,.08v0L276,262l-0.1-.11-0.1,0,0,0,0.11,0.14v0.11l-0.12,0,0,0.14-0.14.05-0.06.13c0.06,0,.06,0,0,0.11s0,0,0,.05l0,0.1h0.05l0,0.13h0.1L276,263v0.06l0.1,0h0Z" transform="translate(-245.94 -255.23)"/>
      <path class="a" d="M276.72,262.77l0-.09Z" transform="translate(-245.94 -255.23)"/>
      <path class="a" d="M276.79,262.62l0-.06Z" transform="translate(-245.94 -255.23)"/>
      <polygon class="i" points="29.65 7.32 29.79 7.31 29.81 7.43 29.86 7.47 29.87 7.69 29.91 7.71 29.92 7.62 30.03 7.62 30.05 7.79 30.02 7.82 30.03 7.84 30.16 7.84 30.19 7.79 30.26 7.79 30.29 7.84 30.31 7.77 30.37 7.75 30.43 7.83 30.52 7.82 30.46 7.77 30.44 7.65 30.57 7.58 30.62 7.67 30.67 7.67 30.61 7.57 30.61 7.37 30.71 7.24 30.84 7.23 30.84 7.17 30.71 7.05 30.67 6.88 30.59 6.84 30.57 6.86 30.49 6.87 30.57 6.99 30.57 7.07 30.61 7.09 30.61 7.32 30.51 7.33 30.5 7.45 30.44 7.51 30.41 7.63 30.35 7.7 30.25 7.7 30.19 7.64 30.18 7.55 30.13 7.54 30.11 7.45 30.04 7.41 30.03 7.35 29.96 7.32 29.95 7.27 29.92 7.25 29.91 7.11 29.98 7.1 29.94 7.05 29.93 7.02 29.93 6.97 29.98 6.93 29.89 6.92 29.8 6.95 29.8 7.12 29.69 7.15 29.61 7.28 29.65 7.32"/>
      <path class="i" d="M276,263.1l0,0v-0.21l-0.07,0V263l-0.08,0,0-.25-0.07-.15-0.12,0-0.05,0,0.08-.17,0.11,0a0.52,0.52,0,0,1,0-.13,0.46,0.46,0,0,1,.1-0.06h0.11l0,0.15,0,0,0-.07h0s0,0-.07,0a0.89,0.89,0,0,1,0,.14l-0.13.06-0.07.12h0.15l0.06,0.14,0.06,0.27v-0.07l0.13,0L276,263l0,0,0.13,0v0.06l-0.17,0h0Zm0.42,0a0.3,0.3,0,0,1-.09-0.11l0,0v0l0.08,0a0.73,0.73,0,0,1,.08.1l0.06,0h-0.07l0-.13h0l0,0.06h-0.13a0.17,0.17,0,0,1-.09-0.09v-0.08s0,0-.07-0.1l-0.07,0v-0.07h-0.06v-0.06s0,0,0-.17v0h0.08l0.06,0.05-0.1,0a0.34,0.34,0,0,1,0,.11l0.11,0.09v0.07l0.06,0a0.59,0.59,0,0,1,0,.11,0.16,0.16,0,0,1,.06.11l0.05,0h0.08c0-.07,0-0.07.06-0.07a0.17,0.17,0,0,1,0-.09l0.07-.07v-0.1s0,0,.12,0l-0.06-.29-0.08-.11,0.11-.05,0.11,0,0.05,0.19,0.14,0.12v0.07l-0.16,0-0.08.12v0.18h0l0.05,0.08-0.07,0-0.07-.1-0.09.08,0.09,0.12-0.11.06h0Zm0.09-.51a0.36,0.36,0,0,1,0,.1l-0.07.08a0.33,0.33,0,0,1,0,.12l0.13-.09,0,0h0V262.6l0,0-0.08,0h0Zm0.06-.49-0.09,0,0.11,0.08,0,0.32,0.05-.08,0.16,0-0.15-.13,0-.19-0.06,0h0Z" transform="translate(-245.94 -255.23)"/>
      <path class="j" d="M276.13,262.77l0.07,0v-0.08l-0.07,0,0,0h0.2s0,0,0,0l-0.05,0v0.07l0.16,0a0.11,0.11,0,0,1,0,0l-0.16,0-0.1.06Z" transform="translate(-245.94 -255.23)"/>
      <path class="i" d="M276.08,262.85l0-.08,0.08,0,0-.08h0l0.06,0h0l0,0v0.06c0.16,0,.16,0,0.16,0s0,0-.19,0l-0.13.08h0Z" transform="translate(-245.94 -255.23)"/>
      <path class="i" d="M276.52,262.31l-0.09.07-0.06.1h0l-0.09-.12h-0.1l-0.06.14h0l-0.11-.12,0-.06h0.27v-0.12l-0.06,0h0.14l-0.06,0v0.11h0.23Z" transform="translate(-245.94 -255.23)"/>
      <path class="i" d="M276.09,262.54h0l-0.14-.14,0-.08h0.29l0-.09,0,0h0c0-.06,0-0.06.11-0.06h0.09l-0.13.09v0.08l0.28,0-0.14.22h-0.06l-0.09-.12h-0.07a0.45,0.45,0,0,1,0,.12l0,0h0Zm0.12-.21-0.29,0,0.16,0.13,0.05-.12h0.08Z" transform="translate(-245.94 -255.23)"/>
      <path class="j" d="M276,262.37h0a0,0,0,0,1,0,0v0a0,0,0,0,1,0,0h0a0,0,0,0,1,0,0v0a0,0,0,0,1,0,0h0Z" transform="translate(-245.94 -255.23)"/>
      <path class="j" d="M276.34,262.35h0a0,0,0,0,1,0,0v0a0,0,0,0,1,0,0h0a0,0,0,0,1,0,0v0a0,0,0,0,1,0,0h0Z" transform="translate(-245.94 -255.23)"/>
      <path class="i" d="M275.92,262.18l0,0v0a0.91,0.91,0,0,1,.27-0.07,0.94,0.94,0,0,1,.31,0,1.15,1.15,0,0,1-.3,0,0.88,0.88,0,0,0-.26.07h0Z" transform="translate(-245.94 -255.23)"/>
      <polygon class="i" points="30 6.73 29.92 6.73 29.81 6.61 29.87 6.62 29.95 6.65 30 6.73"/>
      <polygon class="i" points="30.05 6.76 29.92 6.76 29.73 6.58 29.96 6.63 30.05 6.76 30.05 6.76"/>
      <polygon class="i" points="30.48 6.69 30.66 6.55 30.6 6.54 30.53 6.6 30.45 6.62 30.48 6.69"/>
      <polygon class="a" points="30.48 6.69 30.66 6.55 30.6 6.54 30.53 6.6 30.45 6.62 30.48 6.69"/>
      <polygon class="i" points="30.37 6.71 30.09 6.72 30.09 6.69 30.2 6.68 30.21 6.64 30.24 6.64 30.26 6.68 30.36 6.7 30.37 6.71"/>
      <polygon class="i" points="30.06 6.75 30.07 6.69 30.19 6.65 30.14 6.69 30.23 6.69 30.21 6.65 30.37 6.67 30.39 6.71 30.37 6.74 30.06 6.75 30.06 6.75"/>
      <polygon class="i" points="30.36 6.61 30.26 6.61 30.25 6.56 30.36 6.61"/>
      <polygon class="a" points="30.36 6.61 30.26 6.61 30.25 6.56 30.36 6.61"/>
      <polygon class="i" points="30.19 6.56 30.19 6.61 30.09 6.63 30.19 6.56"/>
      <polygon class="a" points="30.19 6.56 30.19 6.61 30.09 6.63 30.19 6.56"/>
      <polygon class="i" points="29.66 7.52 29.7 7.4 29.66 7.32 29.62 7.44 29.66 7.52"/>
      <polygon class="a" points="29.66 7.52 29.7 7.4 29.66 7.32 29.62 7.44 29.66 7.52"/>
      <polygon class="i" points="29.75 7.58 29.81 7.44 29.7 7.56 29.75 7.58"/>
      <polygon class="i" points="29.77 7.63 29.69 7.58 29.79 7.43 29.72 7.58 29.75 7.58 29.73 7.57 29.79 7.42 29.77 7.63 29.77 7.63"/>
      <path class="h" d="M274.28,262.2l-0.09,0v0.17l-0.12,0-0.08.15,0,0s0,0.11,0,.11l0,0,0,0.09h0.08l0,0.11,0.12,0,0.11,0.08v0h0.13l0.09,0,0.31,0,0-.06V263h0.17l0-.14h0.09v-0.16h0.07l0-.08,0-.06v-0.1l-0.13-.13,0-.17-0.08,0V262l0.09-.13v-0.05H275l-0.06.05h-0.09v0l0,0.07h-0.1v-0.11l-0.14-.07-0.13.09V262l-0.06,0-0.07-.1-0.11,0h-0.06V262l0.12,0.16v0.09Z" transform="translate(-245.94 -255.23)"/>
      <path class="i" d="M274.62,263.19l-0.24,0v-0.07l-0.1-.06-0.11,0,0-.13h-0.05l-0.07-.2,0-.07,0-.06,0.08-.15,0.14,0,0-.14,0.12-.05v-0.07l-0.11-.13v-0.12h0.09l0.12,0,0.08,0.11,0-.11a0.26,0.26,0,0,1,.14-0.11l0.17,0.07,0,0.14,0,0,0,0c0-.08,0-0.08.11-0.09l0,0h0.13v0.07L275,262v0.09a0.1,0.1,0,0,1,.07,0l0,0.19,0.12,0.11,0.08,0.24-0.1,0,0,0.13-0.12,0V263L275,263l0,0.06,0,0.08-0.34,0h0Zm-0.08-.09,0.09,0,0.3,0,0-.05V263l0.19,0v-0.11l0.12,0,0-.13,0.11,0-0.09-.09,0-.11-0.12-.11,0-.18c-0.08,0-.08,0-0.08,0V262l0.1-.15H275l0,0-0.1,0,0,0.09-0.13,0,0-.14-0.12,0a0.51,0.51,0,0,1-.1.08,0.5,0.5,0,0,1,0,.09v0l-0.08,0-0.1-.11-0.1,0,0,0,0.11,0.14v0.11l-0.12,0,0,0.14-0.14.05-0.06.14c0.06,0,.06,0,0,0.12s0,0,0,0l0,0.1h0.05l0,0.13h0.1l0.14,0.09v0.06l0.1,0h0Z" transform="translate(-245.94 -255.23)"/>
      <path class="a" d="M275.16,262.82l0-.09Z" transform="translate(-245.94 -255.23)"/>
      <path class="a" d="M275.24,262.67l0-.06Z" transform="translate(-245.94 -255.23)"/>
      <path class="i" d="M274,262.6h0.14l0,0.12,0,0V263l0,0V262.9h0.11l0,0.18,0,0v0h0.12l0,0h0.07l0,0.05,0-.07,0.07,0,0.05,0.08h0.09l-0.06-.05,0-.12,0.13-.07L275,263h0l-0.06-.1v-0.2l0.1-.13,0.14,0v-0.05l-0.14-.12,0-.17-0.08,0,0,0h-0.08l0.08,0.12v0.08l0,0v0.22l-0.1,0v0.12l-0.06.06,0,0.12-0.06.07h-0.11l-0.06-.06v-0.08h0l0-.09-0.07,0v-0.05l-0.07,0v-0.05l0,0v-0.14h0.06l0,0v-0.08l0.05-.05h-0.09l-0.09,0v0.16l-0.11,0-0.08.13Z" transform="translate(-245.94 -255.23)"/>
      <path class="i" d="M274.41,263.15l0,0V262.9l-0.07,0V263l-0.08,0,0-.25-0.07-.15-0.12,0-0.05,0,0.08-.17,0.11,0a0.51,0.51,0,0,1,0-.13,0.44,0.44,0,0,1,.1-0.06h0.11l0,0.15,0,0,0-.08h-0.05s0,0-.06,0a1,1,0,0,1,0,.14l-0.13.06-0.07.12,0.15,0,0.06,0.14,0.06,0.27V262.9l0.13,0,0.05,0.2,0,0,0.13,0v0.06l-0.17,0h0Zm0.42,0-0.09-.11,0,0h0v0l0.08,0,0.08,0.1,0.06,0h-0.07l0-.13,0.14-.1,0,0h0v-0.21l0,0-0.08,0a0.39,0.39,0,0,1,0,.1l-0.07.08c0,0.12,0,.12-0.06.12l0,0.06h-0.13a0.16,0.16,0,0,1-.09-0.09v-0.08s0,0-.07-0.1l-0.07,0v-0.07h-0.06v-0.06s0,0,0-.17v0l0.09,0h0l0.06,0.05-0.1,0a0.32,0.32,0,0,1,0,.1l0.11,0.09v0.07l0.06,0a0.51,0.51,0,0,1,0,.11,0.16,0.16,0,0,1,.06.11l0.05,0h0.08c0-.07,0-0.07.06-0.07a0.18,0.18,0,0,1,0-.1l0.07-.07v-0.1s0,0,.12,0l-0.06-.29-0.08-.11,0.11-.05,0.11,0,0.05,0.19,0.14,0.12v0.07l-0.16,0-0.08.12v0.18h0l0.05,0.08h0L275,263l-0.07-.1-0.09.08,0.08,0.12-0.11.06h0Zm0.15-1-0.09,0,0.1,0.08,0,0.32,0.05-.08,0.16,0-0.15-.13,0-.19-0.06,0h0Z" transform="translate(-245.94 -255.23)"/>
      <path class="j" d="M274.57,262.82l0.07,0v-0.08l-0.07,0,0,0h0.17l0,0s0,0,0,0l-0.05,0v0.07l0.16,0a0.12,0.12,0,0,1,0,0l-0.16,0-0.1.06Z" transform="translate(-245.94 -255.23)"/>
      <path class="i" d="M274.53,262.9l0-.08,0.08,0,0-.07h0l0.06,0h0l0,0v0.06c0.16,0,.16,0,0.16,0s0,0-.19,0l-0.13.08h0Z" transform="translate(-245.94 -255.23)"/>
      <path class="i" d="M275,262.36l-0.09.07-0.06.1h0l-0.09-.12h-0.1l-0.06.14h0l-0.11-.12,0-.06h0.27v-0.13l-0.06,0h0.15l-0.06,0v0.11h0.23Z" transform="translate(-245.94 -255.23)"/>
      <path class="i" d="M274.54,262.59h0l-0.14-.14,0-.08h0.29l0-.09,0,0h0c0-.05,0-0.06.11-0.06h0.09l-0.13.09v0.08l0.28,0-0.14.22h-0.06l-0.09-.12h-0.07a0.48,0.48,0,0,1,0,.12l0,0h0Zm0.12-.2-0.29,0,0.16,0.13,0.05-.13h0.08Z" transform="translate(-245.94 -255.23)"/>
      <path class="j" d="M274.5,262.42h0a0,0,0,0,1,0,0v0a0,0,0,0,1,0,0h0a0,0,0,0,1,0,0v0a0,0,0,0,1,0,0h0Z" transform="translate(-245.94 -255.23)"/>
      <path class="j" d="M274.79,262.41h0a0,0,0,0,1,0,0v0l0,0h0l0,0v0a0,0,0,0,1,0,0h0Z" transform="translate(-245.94 -255.23)"/>
      <path class="i" d="M274.37,262.23l0,0,0,0a0.85,0.85,0,0,1,.27-0.07,1,1,0,0,1,.31,0,1.13,1.13,0,0,1-.3,0,0.87,0.87,0,0,0-.25.07h0Z" transform="translate(-245.94 -255.23)"/>
      <polygon class="i" points="28.45 6.78 28.37 6.78 28.25 6.66 28.32 6.67 28.39 6.7 28.45 6.78"/>
      <polygon class="i" points="28.5 6.81 28.37 6.81 28.18 6.63 28.4 6.68 28.5 6.81 28.5 6.81"/>
      <polygon class="i" points="28.92 6.74 29.1 6.6 29.04 6.59 28.98 6.65 28.9 6.67 28.92 6.74"/>
      <polygon class="a" points="28.92 6.74 29.1 6.6 29.04 6.59 28.98 6.65 28.9 6.67 28.92 6.74"/>
      <polygon class="i" points="28.82 6.76 28.54 6.77 28.54 6.74 28.64 6.73 28.66 6.69 28.69 6.69 28.71 6.73 28.81 6.75 28.82 6.76"/>
      <polygon class="i" points="28.51 6.8 28.51 6.74 28.64 6.7 28.59 6.74 28.68 6.74 28.66 6.7 28.81 6.72 28.84 6.76 28.82 6.79 28.51 6.8 28.51 6.8"/>
      <polygon class="i" points="28.8 6.66 28.71 6.66 28.7 6.61 28.8 6.66"/>
      <polygon class="a" points="28.8 6.66 28.71 6.66 28.7 6.61 28.8 6.66"/>
      <polygon class="i" points="28.64 6.61 28.63 6.66 28.54 6.68 28.64 6.61"/>
      <polygon class="a" points="28.64 6.61 28.63 6.66 28.54 6.68 28.64 6.61"/>
      <polygon class="i" points="28.1 7.57 28.15 7.45 28.11 7.37 28.07 7.49 28.1 7.57"/>
      <polygon class="a" points="28.1 7.57 28.15 7.45 28.11 7.37 28.07 7.49 28.1 7.57"/>
      <polygon class="i" points="28.2 7.63 28.26 7.49 28.15 7.61 28.2 7.63"/>
      <polygon class="i" points="28.21 7.67 28.13 7.63 28.23 7.48 28.17 7.63 28.2 7.63 28.17 7.63 28.24 7.47 28.21 7.67 28.21 7.67"/>
      <path class="d" d="M276.84,265.18l0.31-3.61,1.91-1.1,1.48,1.6-1,3.47a18,18,0,0,0-2.71-.37h0Z" transform="translate(-245.94 -255.23)"/>
      <path class="k" d="M279.56,265.57h0a18,18,0,0,0-2.71-.37l0.3-3.62,1.92-1.11,1.49,1.6-1,3.5h0ZM279,260.49l-1.89,1.1-0.31,3.6a16.66,16.66,0,0,1,2.69.35l1-3.46L279,260.49h0Z" transform="translate(-245.94 -255.23)"/>
      <path class="h" d="M275.08,263.55l-0.09,0v0.17l-0.12,0-0.08.15,0,0s0,0.11,0,.11l0,0,0,0.09h0.08l0,0.11,0.12,0,0.11,0.08v0.05h0.13l0.09,0,0.31,0,0-.06v-0.09h0.17l0-.14h0.09V264h0.07l0-.07,0-.06v-0.1l-0.13-.13,0-.17-0.08,0v-0.11l0.09-.13v-0.05h-0.09l-0.06.05h-0.09v0l0,0.07h-0.1v-0.12l-0.14-.07-0.13.09v0.1l-0.06,0-0.06-.1-0.12,0H275v0.07l0.12,0.15v0.09Z" transform="translate(-245.94 -255.23)"/>
      <path class="i" d="M275.43,264.53l-0.24,0v-0.07l-0.1-.06H275l0-.13h-0.05l-0.08-.23v-0.1l0.08-.15,0.14,0,0-.14,0.12-.05v-0.07l-0.11-.13V263.2H275l0.12,0,0.08,0.11,0-.11a0.28,0.28,0,0,1,.14-0.11l0.17,0.07,0,0.14,0,0,0,0c0-.08,0-0.08.11-0.09l0,0h0.13v0.07l-0.1.15v0.09a0.09,0.09,0,0,1,.06,0l0,0.19,0.12,0.11,0.08,0.24-0.1,0,0,0.13-0.12,0v0.11l-0.19,0,0,0.06,0,0.08-0.33,0h0Zm-0.08-.09,0.09,0,0.3,0,0-.05v-0.07l0.19,0v-0.11l0.12,0,0-.12,0.11,0-0.09-.09,0-.11-0.12-.11,0-.18c-0.08,0-.08,0-0.08,0v-0.11l0.1-.15h-0.07l0,0-0.1,0,0,0.09-0.13,0,0-.14-0.12,0a0.54,0.54,0,0,1-.1.08,0.42,0.42,0,0,1,0,.09v0l-0.08,0-0.1-.11-0.1,0,0,0,0.11,0.13v0.11l-0.12,0,0,0.14-0.14.05-0.06.14c0.06,0,.06,0,0,0.11s0,0,0,.06l0,0.1H275l0,0.13h0.1l0.14,0.09v0.06l0.1,0h0Z" transform="translate(-245.94 -255.23)"/>
      <path class="a" d="M276,264.17l0-.09Z" transform="translate(-245.94 -255.23)"/>
      <path class="a" d="M276,264l0-.06Z" transform="translate(-245.94 -255.23)"/>
      <polygon class="i" points="28.9 8.72 29.04 8.71 29.07 8.83 29.11 8.87 29.12 9.09 29.16 9.11 29.17 9.02 29.28 9.01 29.3 9.19 29.27 9.21 29.29 9.24 29.41 9.24 29.44 9.19 29.51 9.19 29.54 9.24 29.56 9.17 29.63 9.14 29.68 9.23 29.77 9.22 29.72 9.17 29.69 9.05 29.82 8.98 29.87 9.07 29.92 9.07 29.86 8.97 29.86 8.77 29.96 8.64 30.09 8.62 30.09 8.57 29.96 8.45 29.92 8.28 29.85 8.24 29.83 8.26 29.74 8.27 29.83 8.39 29.83 8.47 29.86 8.49 29.86 8.71 29.76 8.73 29.75 8.85 29.7 8.91 29.66 9.02 29.61 9.09 29.5 9.1 29.44 9.04 29.43 8.95 29.39 8.94 29.36 8.84 29.29 8.8 29.29 8.75 29.22 8.72 29.2 8.67 29.17 8.64 29.17 8.51 29.23 8.5 29.19 8.45 29.18 8.41 29.18 8.37 29.23 8.32 29.14 8.31 29.05 8.35 29.05 8.51 28.95 8.54 28.86 8.68 28.9 8.72"/>
      <path class="i" d="M275.21,264.5l0,0v-0.21l-0.07,0v0.1l-0.08,0,0-.25-0.07-.15-0.12,0-0.05,0,0.08-.17,0.11,0a0.51,0.51,0,0,1,0-.13,0.38,0.38,0,0,1,.1-0.07h0.11l0,0.15,0,0,0-.07h-0.05s0,0-.06,0a1,1,0,0,1,0,.14l-0.13.06-0.07.12H275l0.06,0.14,0.05,0.27v-0.07l0.13,0,0.05,0.2,0,0,0.13,0v0.06l-0.17,0h0Zm0.42,0a0.28,0.28,0,0,1-.09-0.11l0,0.1-0.08-.06h0l0.07,0v0l0.05,0h0l0-.07,0.08,0a0.66,0.66,0,0,1,.08.1l0.06,0h-0.07l0-.13,0.14-.1,0,0h0V264l0,0-0.08,0a0.39,0.39,0,0,1,0,.1l-0.07.08c0,0.12,0,.12-0.06.12a0.16,0.16,0,0,1,0,.06l-0.13,0a0.16,0.16,0,0,1-.09-0.09v-0.08s0,0-.07-0.1l-0.07,0V264h-0.06v-0.06s0,0,0-.17v0h0.08l0.06,0.05-0.1,0a0.3,0.3,0,0,1,0,.11s0,0,0,.07l0.07,0V264l0.06,0a0.51,0.51,0,0,1,0,.11,0.15,0.15,0,0,1,.06.11l0.05,0h0.08c0-.07,0-0.07.06-0.07a0.18,0.18,0,0,1,0-.09l0.07-.07V264s0,0,.12,0l-0.06-.29-0.08-.11,0.11-.05,0.11,0,0,0.19,0.14,0.12v0.07l-0.16,0-0.08.12v0.18h0l0.05,0.08-0.07,0-0.07-.1-0.09.08,0.09,0.12-0.11.06h0Zm0.15-1-0.09,0,0.1,0.08,0,0.32,0.05-.07,0.16,0-0.15-.13,0-.19-0.06,0h0Z" transform="translate(-245.94 -255.23)"/>
      <path class="j" d="M275.38,264.17l0.07,0v-0.08l-0.07,0,0,0h0.17l0,0s0,0,0,0l-0.05,0v0.08l0.16,0a0.12,0.12,0,0,1,0,0l-0.16,0-0.1.06Z" transform="translate(-245.94 -255.23)"/>
      <path class="i" d="M275.33,264.24l0-.08,0.08,0,0-.07h0l0.06,0h0l0,0v0.06c0.16,0,.16,0,0.16,0s0,0-.19,0l-0.13.08h0Z" transform="translate(-245.94 -255.23)"/>
      <path class="i" d="M275.78,263.7l-0.09.07-0.06.1h0l-0.09-.12h-0.1l-0.06.14h0l-0.11-.12a0.29,0.29,0,0,1,0-.06h0.27v-0.12l-0.06,0h0.14l-0.06,0v0.11h0.23Z" transform="translate(-245.94 -255.23)"/>
      <path class="i" d="M275.34,263.94h0l-0.14-.14,0-.08h0.29l0-.09,0,0h0c0-.06,0-0.06.11-0.06h0.09l-0.13.09v0.08l0.28,0-0.14.22h-0.06l-0.09-.12h-0.07a0.48,0.48,0,0,1,0,.12l0,0h0Zm0.12-.21-0.29,0,0.16,0.13,0.05-.13h0.08Z" transform="translate(-245.94 -255.23)"/>
      <path class="j" d="M275.3,263.76h0a0,0,0,0,1,0,0v0a0,0,0,0,1,0,0h0a0,0,0,0,1,0,0v0a0,0,0,0,1,0,0h0Z" transform="translate(-245.94 -255.23)"/>
      <path class="j" d="M275.59,263.75h0a0,0,0,0,1,0,0v0l0,0h0a0,0,0,0,1,0,0v0a0,0,0,0,1,0,0h0Z" transform="translate(-245.94 -255.23)"/>
      <path class="i" d="M275.17,263.58l0,0v0a0.81,0.81,0,0,1,.27-0.07,0.94,0.94,0,0,1,.31,0,1.24,1.24,0,0,1-.3,0,0.83,0.83,0,0,0-.26.07h0Z" transform="translate(-245.94 -255.23)"/>
      <polygon class="i" points="29.25 8.13 29.17 8.13 29.06 8.01 29.12 8.02 29.2 8.05 29.25 8.13"/>
      <polygon class="i" points="29.31 8.16 29.17 8.16 28.98 7.97 29.21 8.03 29.31 8.16 29.31 8.16"/>
      <polygon class="i" points="29.73 8.08 29.91 7.95 29.85 7.94 29.78 8 29.7 8.01 29.73 8.08"/>
      <polygon class="a" points="29.73 8.08 29.91 7.95 29.85 7.94 29.78 8 29.7 8.01 29.73 8.08"/>
      <polygon class="i" points="29.62 8.11 29.34 8.12 29.35 8.09 29.45 8.08 29.46 8.04 29.49 8.04 29.52 8.08 29.61 8.09 29.62 8.11"/>
      <polygon class="i" points="29.31 8.15 29.32 8.09 29.45 8.05 29.39 8.09 29.48 8.09 29.47 8.05 29.62 8.07 29.65 8.11 29.63 8.14 29.31 8.15 29.31 8.15"/>
      <polygon class="i" points="29.61 8 29.51 8.01 29.5 7.96 29.61 8"/>
      <polygon class="a" points="29.61 8 29.51 8.01 29.5 7.96 29.61 8"/>
      <polygon class="i" points="29.45 7.96 29.44 8.01 29.34 8.02 29.45 7.96"/>
      <polygon class="a" points="29.45 7.96 29.44 8.01 29.34 8.02 29.45 7.96"/>
      <polygon class="i" points="28.91 8.92 28.96 8.8 28.91 8.71 28.87 8.84 28.91 8.92"/>
      <polygon class="a" points="28.91 8.92 28.96 8.8 28.91 8.71 28.87 8.84 28.91 8.92"/>
      <polygon class="i" points="29.01 8.98 29.07 8.84 28.95 8.96 29.01 8.98"/>
      <polygon class="i" points="29.02 9.02 28.94 8.98 29.04 8.83 28.97 8.97 29.01 8.98 28.98 8.97 29.04 8.82 29.02 9.02 29.02 9.02"/>
      <path class="e" d="M277.31,264.54l-0.1.11v0.09h0.2a0.11,0.11,0,0,0,.09-0.06,0.19,0.19,0,0,0,0-.09Z" transform="translate(-245.94 -255.23)"/>
      <path class="l" d="M277.21,264.76v-0.11l0.1-.12,0.23,0v0.1h0a0.13,0.13,0,0,1-.1.07h-0.21Z" transform="translate(-245.94 -255.23)"/>
      <path class="e" d="M277.78,264.81l-0.09.07V265h0.18a0.09,0.09,0,0,0,.09,0,0.12,0.12,0,0,0,0-.07Z" transform="translate(-245.94 -255.23)"/>
      <path class="l" d="M277.86,265h-0.18v-0.1l0.09-.08,0.21,0.05,0,0.08h0a0.11,0.11,0,0,1-.1.05h0Z" transform="translate(-245.94 -255.23)"/>
      <path class="e" d="M278.57,264.58l-0.09.09v0.07h0.19c0.06,0,.05,0,0.07,0a0.15,0.15,0,0,0,0-.08Z" transform="translate(-245.94 -255.23)"/>
      <path class="l" d="M278.67,264.76h-0.19l0-.08,0.1-.1,0.2,0,0,0.09h0a0.08,0.08,0,0,1-.08.05h0Z" transform="translate(-245.94 -255.23)"/>
      <path class="e" d="M279.11,264.75l-0.11.09v0.09l0.2,0a0.1,0.1,0,0,0,.08-0.06,0.14,0.14,0,0,0,0-.08Z" transform="translate(-245.94 -255.23)"/>
      <path class="l" d="M279.21,265l-0.2,0v-0.1l0.11-.1,0.2,0.06v0.1a0.12,0.12,0,0,1-.09.06h0Z" transform="translate(-245.94 -255.23)"/>
      <path class="e" d="M277.78,262.39l0.38,0.25a0.36,0.36,0,0,1,.28,0c0.1,0,.18.09,0.27,0.1a1.63,1.63,0,0,0,.51.05,1.14,1.14,0,0,0,.39-0.15v0h-0.07a1,1,0,0,1-.42,0,3,3,0,0,1-.35-0.13l0,0a0.69,0.69,0,0,0,.38,0,0.52,0.52,0,0,0,.19-0.12v0h-0.07a0.36,0.36,0,0,1-.28.06c-0.13,0-.24-0.08-0.32-0.09a1.67,1.67,0,0,1-.17,0,1.34,1.34,0,0,0-.42,0,0.48,0.48,0,0,0-.26.16h0Z" transform="translate(-245.94 -255.23)"/>
      <path class="m" d="M279.11,262.81a1.75,1.75,0,0,1-.42-0.06,0.51,0.51,0,0,1-.14-0.05l-0.13-.05a0.31,0.31,0,0,0-.26,0l-0.39-.25a0.42,0.42,0,0,1,.26-0.18,1.28,1.28,0,0,1,.42,0,0.17,0.17,0,0,1,.09,0l0.08,0a0.49,0.49,0,0,1,.14,0,0.77,0.77,0,0,0,.18,0,0.35,0.35,0,0,0,.28-0.05h0.07l0,0.07a0.37,0.37,0,0,1-.15.09,0.45,0.45,0,0,1-.23,0h-0.06l0.06,0a0.45,0.45,0,0,0,.22,0,0.36,0.36,0,0,0,.15-0.08l0-.05a0.66,0.66,0,0,1-.35.05,0.7,0.7,0,0,1-.19-0.05l-0.13,0a0.18,0.18,0,0,1-.1,0l-0.08,0a1.26,1.26,0,0,0-.41,0,0.42,0.42,0,0,0-.22.13l0.35,0.26a0.3,0.3,0,0,1,.27,0l0.13,0.05,0.13,0.05a1.53,1.53,0,0,0,.51.05,0.92,0.92,0,0,0,.33-0.12l0,0a0.89,0.89,0,0,1-.42,0,0.47,0.47,0,0,1-.17-0.06l-0.19-.07,0,0,0.16,0.07a0.47,0.47,0,0,0,.16.05,0.89,0.89,0,0,0,.41,0h0.08l0,0.09a1,1,0,0,1-.34.13h-0.09Z" transform="translate(-245.94 -255.23)"/>
      <path class="n" d="M277.85,262.33l0.11,0,0.05,0a0.08,0.08,0,0,0,0-.05l-0.08-.06Z" transform="translate(-245.94 -255.23)"/>
      <path class="a" d="M277.85,262.33l0.11,0,0.05,0a0.08,0.08,0,0,0,0-.05l-0.08-.06Z" transform="translate(-245.94 -255.23)"/>
      <path class="n" d="M278.16,262.6a0.22,0.22,0,0,0,0-.09,0.24,0.24,0,0,0,0-.08,0.12,0.12,0,0,1,.07.05,0.16,0.16,0,0,1,0,.1Z" transform="translate(-245.94 -255.23)"/>
      <path class="a" d="M278.16,262.6a0.22,0.22,0,0,0,0-.09,0.24,0.24,0,0,0,0-.08,0.12,0.12,0,0,1,.07.05,0.16,0.16,0,0,1,0,.1Z" transform="translate(-245.94 -255.23)"/>
      <path class="n" d="M278.24,262.21a0.54,0.54,0,0,1,0,.09,0.64,0.64,0,0,1,0,.1s0-.07,0-0.1,0-.06,0-0.09h0Z" transform="translate(-245.94 -255.23)"/>
      <path class="a" d="M278.24,262.21a0.54,0.54,0,0,1,0,.09,0.64,0.64,0,0,1,0,.1s0-.07,0-0.1,0-.06,0-0.09h0Z" transform="translate(-245.94 -255.23)"/>
      <polygon class="n" points="32.6 6.99 32.61 7.17 32.63 7 32.6 6.99"/>
      <polygon class="a" points="32.6 6.99 32.61 7.17 32.63 7 32.6 6.99"/>
      <path class="n" d="M278.47,262.6a0.22,0.22,0,0,0,0-.09,0.46,0.46,0,0,0,0-.09,0.23,0.23,0,0,1,.06.09,0.1,0.1,0,0,1,0,.08h0Z" transform="translate(-245.94 -255.23)"/>
      <path class="a" d="M278.47,262.6a0.22,0.22,0,0,0,0-.09,0.46,0.46,0,0,0,0-.09,0.23,0.23,0,0,1,.06.09A0.1,0.1,0,0,1,278.47,262.6Z" transform="translate(-245.94 -255.23)"/>
      <path class="n" d="M278.78,262.52a0.24,0.24,0,0,1,0,.1,0.11,0.11,0,0,1,0,.07,0.1,0.1,0,0,0,.05-0.17h0Z" transform="translate(-245.94 -255.23)"/>
      <path class="a" d="M278.78,262.52a0.24,0.24,0,0,1,0,.1,0.11,0.11,0,0,1,0,.07A0.1,0.1,0,0,0,278.78,262.52Z" transform="translate(-245.94 -255.23)"/>
      <path class="n" d="M278.84,262.46a0.26,0.26,0,0,1,0-.13s0,0,0,0a0.53,0.53,0,0,1,0,.11h0Z" transform="translate(-245.94 -255.23)"/>
      <path class="a" d="M278.84,262.46a0.26,0.26,0,0,1,0-.13s0,0,0,0A0.53,0.53,0,0,1,278.84,262.46Z" transform="translate(-245.94 -255.23)"/>
      <polygon class="n" points="33.11 7.19 33.12 7.12 33.14 7.12 33.14 7.18 33.11 7.19 33.11 7.19"/>
      <polygon class="a" points="33.11 7.19 33.12 7.12 33.14 7.12 33.14 7.18 33.11 7.19"/>
      <path class="n" d="M279,262.62a0.24,0.24,0,0,1,0,.08,0.12,0.12,0,0,1,0,.07h0a0.11,0.11,0,0,0,0-.08,0.1,0.1,0,0,0,0-.07h0Z" transform="translate(-245.94 -255.23)"/>
      <path class="o" d="M279.1,262.79h0V262.7l0-.07h0l0.06,0.06a0.11,0.11,0,0,1,0,.07h0a0.1,0.1,0,0,0,0-.07l0-.06a0.06,0.06,0,0,1,0,.06,0.13,0.13,0,0,1,0,.08h0Z" transform="translate(-245.94 -255.23)"/>
      <polygon class="n" points="33.35 7.41 33.36 7.52 33.39 7.5 33.38 7.41 33.35 7.41"/>
      <polygon class="a" points="33.35 7.41 33.36 7.52 33.39 7.5 33.38 7.41 33.35 7.41"/>
      <path class="h" d="M277.75,262.41a0.33,0.33,0,0,0-.16.11l-0.24-.12a0.11,0.11,0,0,0,0,.13,0.49,0.49,0,0,0,.15.16,0.92,0.92,0,0,1-.06.17,1.83,1.83,0,0,0-.08.17,0.09,0.09,0,0,0,0,.11,1.37,1.37,0,0,0,.24,0,0.21,0.21,0,0,0,0,.09s0,0,.06,0a0.1,0.1,0,0,0,0,.07,0.13,0.13,0,0,0,.09,0l-0.07.07-0.13.13c0,0.05,0,.11,0,0.11a0.13,0.13,0,0,0-.05.09s0,0.05.08,0a0.36,0.36,0,0,0,0,.21,0.49,0.49,0,0,0,0,.18,0.28,0.28,0,0,0-.1.14,0.6,0.6,0,0,0-.13.23l0.22,0.05s0-.05,0-0.08a0.28,0.28,0,0,0,0-.1,2,2,0,0,0,.16-0.26,0.26,0.26,0,0,1,.12,0,0.22,0.22,0,0,1,.1,0,0.79,0.79,0,0,0-.07.21v0.23a0.61,0.61,0,0,0-.1.22l0.2,0.05a0.49,0.49,0,0,1,.1-0.09v-0.23a1.84,1.84,0,0,0,.18-0.32,0.22,0.22,0,0,0,.1,0,0.16,0.16,0,0,0,.06,0,0.05,0.05,0,0,0,.06,0,0.26,0.26,0,0,0,.09,0,0.08,0.08,0,0,0,.05,0,0.46,0.46,0,0,0,.14,0l-0.16.27a0.25,0.25,0,0,1,0,.07s0,0,0,.06l0.18,0,0-.08a0.21,0.21,0,0,0,.09-0.05,0.45,0.45,0,0,0,0-.1,1.58,1.58,0,0,0,.23-0.22,0.2,0.2,0,0,1,.14.1,0.71,0.71,0,0,1,0,.26l-0.12.19v0l0.19,0.07,0.12-.09v-0.13a0.8,0.8,0,0,1,.23-0.23s0-.14,0-0.14a0.06,0.06,0,0,1,0,0,0.54,0.54,0,0,1,0-.13,0.12,0.12,0,0,0,0,0,0.31,0.31,0,0,1,0-.2,0.66,0.66,0,0,1,.13-0.22v-0.09a0.07,0.07,0,0,1,0-.12l0,0V263.1a0.1,0.1,0,0,0,0-.06,0.1,0.1,0,0,0-.07,0l-0.11.08a0.31,0.31,0,0,1-.19,0h-0.14a0.23,0.23,0,0,1-.18,0H279l-0.09,0h-0.09a0.64,0.64,0,0,1-.44,0l-0.07,0a0.72,0.72,0,0,1-.23-0.28,0.44,0.44,0,0,0,.34-0.25h-0.28Z" transform="translate(-245.94 -255.23)"/>
      <path class="p" d="M278,264.85l-0.2-.05a0.3,0.3,0,0,1,.07-0.2l0-.27a0.37,0.37,0,0,1,0-.14l-0.06-.09a0.26,0.26,0,0,0-.11,0,1.63,1.63,0,0,1-.15.26,0.23,0.23,0,0,1,0,.1l-0.06.09-0.22-.05a0.32,0.32,0,0,1,.08-0.2l0.06-.1a0.2,0.2,0,0,1,.08-0.09l-0.05.11a0.49,0.49,0,0,1-.07.11,0.34,0.34,0,0,0-.08.17l0.21,0,0-.07a0.25,0.25,0,0,0,0-.1,2.45,2.45,0,0,0,.16-0.27,0.18,0.18,0,0,1,.2,0,0.09,0.09,0,0,1,0,.1,0.33,0.33,0,0,0,0,.13v0.23a0.51,0.51,0,0,0-.1.23l0.18,0a0.24,0.24,0,0,1,.07-0.06l0-.25a0.4,0.4,0,0,1,.09-0.15,0.3,0.3,0,0,0,.09-0.17h0.07l0,0H278.3a0.31,0.31,0,0,1-.1.17,0.38,0.38,0,0,0-.08.14v0.23a0.36,0.36,0,0,0-.1.09h0Zm1.33,0-0.2-.06,0.13-.23a0.68,0.68,0,0,0,0-.25,0.19,0.19,0,0,0-.13-0.09,1.21,1.21,0,0,1-.22.22l0,0.1a0.18,0.18,0,0,1-.08,0l0,0.08-0.2,0,0-.07v0l0.15,0.05v-0.07l0.09-.05,0-.1a1.58,1.58,0,0,0,.23-0.22,0.19,0.19,0,0,1,.16.11,0.69,0.69,0,0,1,0,.26l-0.12.19,0.17,0.08,0.11-.09v-0.12a0.69,0.69,0,0,1,.2-0.21,0.6,0.6,0,0,0,0-.16,0.26,0.26,0,0,1,0-.18c0-.07,0-0.16,0-0.24a0.3,0.3,0,0,1,.08-0.16l0-.06v-0.08a0.1,0.1,0,0,1,0-.12l0-.25h-0.09l-0.11.08a0.31,0.31,0,0,1-.2,0h-0.14a0.23,0.23,0,0,1-.18,0H279l-0.09,0h-0.09a0.43,0.43,0,0,0-.18,0h-0.08a0.44,0.44,0,0,0-.19,0l-0.08,0a0.73,0.73,0,0,1-.24-0.28,0.48,0.48,0,0,0,.34-0.26l-0.27,0-0.4-.26a0.3,0.3,0,0,0-.12.09h0a0.25,0.25,0,0,1,.14-0.1l0.4,0.26h0.27a0.4,0.4,0,0,1-.33.27,0.92,0.92,0,0,0,.23.25l0.07,0a0.4,0.4,0,0,1,.19,0l0.24,0h0.09l0.07,0h0.1a0.22,0.22,0,0,0,.17,0h0.14a0.3,0.3,0,0,0,.18,0l0.1-.08a0.12,0.12,0,0,1,.07,0,0.1,0.1,0,0,1,.06.07v0.21l-0.06.11,0,0.14a0.31,0.31,0,0,1,0,.07,0.28,0.28,0,0,0-.08.15,0.32,0.32,0,0,0,0,.19,0.34,0.34,0,0,0,0,.18s0,0,0,.17a1.12,1.12,0,0,0-.23.25v0.13l-0.12.1h0Zm-0.7-.31h0v-0.07l0.16-.26a0.15,0.15,0,0,1-.11,0l-0.08,0c-0.07.05-.13,0.09-0.16,0l0.07,0,0.08,0,0.06,0h0.14l-0.17.35h0Zm-1.09-.37a0.34,0.34,0,0,1,0-.16,0.32,0.32,0,0,1,0-.21c-0.05,0-.07,0-0.08,0a0.1,0.1,0,0,1,0-.07s0,0.05,0,.07h0l0,0.05a0.28,0.28,0,0,0,0,.17,1,1,0,0,0,0,.16l0,0h0Zm0-.53a0.05,0.05,0,0,1,0-.08l0.1-.1,0.1-.1a0.08,0.08,0,0,1-.09,0l0-.07h0l0.06,0,0,0.08-0.14.14a0.1,0.1,0,0,0,0,.07h0Zm0.14-.35-0.06,0a0.16,0.16,0,0,1,0-.08h-0.17a0.1,0.1,0,0,1-.09-0.13,0.31,0.31,0,0,1,0-.09l0-.09a0.92,0.92,0,0,0,.06-0.17,0.39,0.39,0,0,1-.15-0.15,0.12,0.12,0,0,1,0-.14l0.16,0.08-0.16-.05a0.11,0.11,0,0,0,0,.11,0.46,0.46,0,0,0,.14.15,0.58,0.58,0,0,1-.05.19l0,0.09a0.33,0.33,0,0,0,0,.07,0.08,0.08,0,0,0,0,.1h0.22l0,0.14h0Z" transform="translate(-245.94 -255.23)"/>
      <path class="q" d="M277.66,262.75l0.08,0,0,0,0,0,0.07,0a0.46,0.46,0,0,0-.1,0,0.59,0.59,0,0,0-.12,0h0Z" transform="translate(-245.94 -255.23)"/>
      <path class="q" d="M277.78,262.82l-0.12-.06h0a0.21,0.21,0,0,1,.11,0l0.07,0h-0.07l-0.1,0,0.09,0.05h0l0,0,0.07,0,0,0-0.11.06h0Z" transform="translate(-245.94 -255.23)"/>
      <path class="i" d="M277.8,263.67h0a0.71,0.71,0,0,0-.06-0.23,0.74,0.74,0,0,1,.07.22h0Z" transform="translate(-245.94 -255.23)"/>
      <path class="a" d="M277.8,263.67h0a0.71,0.71,0,0,0-.06-0.23A0.74,0.74,0,0,1,277.8,263.67Z" transform="translate(-245.94 -255.23)"/>
      <path class="i" d="M278.26,263.69a0,0,0,0,0,0,0,0.12,0.12,0,0,0,0-.06c0-.05,0-0.11-0.05-0.13s0,0,0,0,0,0.18.05,0.2h0Z" transform="translate(-245.94 -255.23)"/>
      <path class="a" d="M278.26,263.69a0,0,0,0,0,0,0,0.12,0.12,0,0,0,0-.06c0-.05,0-0.11-0.05-0.13s0,0,0,0S278.25,263.67,278.26,263.69Z" transform="translate(-245.94 -255.23)"/>
      <path class="i" d="M278.52,263.66s0,0,0,0a2.08,2.08,0,0,1,0-.21,0.22,0.22,0,0,1,.05.09,1.42,1.42,0,0,1,0,.14h0Z" transform="translate(-245.94 -255.23)"/>
      <path class="a" d="M278.52,263.66s0,0,0,0a2.08,2.08,0,0,1,0-.21,0.22,0.22,0,0,1,.05.09A1.42,1.42,0,0,1,278.52,263.66Z" transform="translate(-245.94 -255.23)"/>
      <path class="i" d="M278.48,264s0,0,0,0l0.09-.13a0.59,0.59,0,0,0,0-.17s0,0.07-.08.15a1.26,1.26,0,0,0-.08.16h0Z" transform="translate(-245.94 -255.23)"/>
      <path class="i" d="M278.49,264h0a0.28,0.28,0,0,1,.08-0.18l0-.1h0l0,0.11-0.08.15h0l0.08-.1a0.72,0.72,0,0,0,.06-0.17,0.2,0.2,0,0,1,0,.13l-0.13.15h0Z" transform="translate(-245.94 -255.23)"/>
      <path class="i" d="M278.73,264a0.79,0.79,0,0,1,0-.15l0-.19a0.51,0.51,0,0,1-.06.34h0Z" transform="translate(-245.94 -255.23)"/>
      <path class="i" d="M278.73,264h0a0.17,0.17,0,0,1,0-.11l0-.24a0.41,0.41,0,0,1,0,.35v0h0Z" transform="translate(-245.94 -255.23)"/>
      <path class="i" d="M278.89,263.55a0.71,0.71,0,0,1-.11-0.17,0.91,0.91,0,0,1,.1.13,0,0,0,0,1,0,0h0Z" transform="translate(-245.94 -255.23)"/>
      <path class="a" d="M278.89,263.55a0.71,0.71,0,0,1-.11-0.17,0.91,0.91,0,0,1,.1.13A0,0,0,0,1,278.89,263.55Z" transform="translate(-245.94 -255.23)"/>
      <path class="i" d="M279.14,263.68s0-.06,0-0.13a0.78,0.78,0,0,1,0-.14s0,0,0,0,0,0.17,0,.25h0Z" transform="translate(-245.94 -255.23)"/>
      <path class="a" d="M279.14,263.68s0-.06,0-0.13a0.78,0.78,0,0,1,0-.14s0,0,0,0,0,0.17,0,.25h0Z" transform="translate(-245.94 -255.23)"/>
      <path class="i" d="M279.32,263.52s0,0.06,0,.15,0,0.24,0,.22a0.08,0.08,0,0,1,0,0h0.11a0.84,0.84,0,0,1-.15-0.15,0.89,0.89,0,0,1-.09-0.19h0Z" transform="translate(-245.94 -255.23)"/>
      <path class="i" d="M279.41,263.91h0v-0.07a1.43,1.43,0,0,0,0-.16l0-.11h0v0l0,0.06,0.07,0.11a0.66,0.66,0,0,0,.12.12l-0.13.08h0Z" transform="translate(-245.94 -255.23)"/>
      <path class="c" d="M280.23,263.25a15.16,15.16,0,0,1,1.54.4c0.5,0.16,1,.35,1.46.56l-0.81,1.63c-0.45-.17-0.9-0.31-1.34-0.46l-1.33-.41Z" transform="translate(-245.94 -255.23)"/>
      <path class="c" d="M282.42,265.87h0c-0.39-.15-0.77-0.27-1.14-0.39l-0.2-.06-0.91-.28-0.42-.13,0.48-1.75a12.49,12.49,0,0,1,1.55.4c0.54,0.17,1,.38,1.46.56l-0.81,1.66h0Zm-2.19-2.6L279.75,265l0.41,0.11,0.91,0.28,0.2,0.06c0.38,0.12.75,0.24,1.14,0.39l0.8-1.62c-0.41-.16-0.91-0.37-1.45-0.54a15,15,0,0,0-1.54-.4h0Z" transform="translate(-245.94 -255.23)"/>
      <path class="e" d="M280.12,263.64s0.75,0.17,1.48.4,1.44,0.54,1.44.54-0.46.93-.46,0.93c-0.44-.18-0.9-0.34-1.36-0.49s-0.91-.29-1.38-0.4Z" transform="translate(-245.94 -255.23)"/>
      <path class="l" d="M282.59,265.53h0c-0.42-.17-0.88-0.33-1.36-0.49s-0.9-.29-1.38-0.4l0.27-1a12.93,12.93,0,0,1,1.5.39c0.48,0.15,1.3.46,1.43,0.54-0.06,0-.73-0.29-1.44-0.51s-1.47-.4-1.48-0.4l-0.26,1a12.66,12.66,0,0,1,1.37.38c0.47,0.15.93,0.31,1.35,0.48,0.4-.82.45-0.92,0.46-0.93h0l-0.46.94h0Z" transform="translate(-245.94 -255.23)"/>
      <path d="M280.18,264.1a0.34,0.34,0,0,0,.16-0.12h0.27v0.1l0.17,0.1,0.22,0.09,0.57,0.05a0.85,0.85,0,0,1,.25.08,0.39,0.39,0,0,1,.14.15,1.9,1.9,0,0,0,.36.08l0.39,0c0.06,0,.06,0,0,0.08a0.3,0.3,0,0,1-.24.09c-0.18,0-.38-0.1-0.46-0.09a0.35,0.35,0,0,0,.2.21v0.25l0,0-0.05,0a0.22,0.22,0,0,0,0-.19,0.12,0.12,0,0,0-.12-0.08,0.63,0.63,0,0,1-.26-0.12h0a0.2,0.2,0,0,1-.1.1h-0.11l-0.26-.06a0.1,0.1,0,0,1,0,0h0.1a0.88,0.88,0,0,0,.17,0v-0.1h0.17a0.23,0.23,0,0,0-.21-0.22H281v0.07a1.32,1.32,0,0,0-.47,0l-0.21,0h-0.05s0,0,0-.05a0.72,0.72,0,0,0,.32-0.06,0.1,0.1,0,0,0,0-.07h-0.28l-0.14,0a0.3,0.3,0,0,1,0-.05l0.09,0a0.73,0.73,0,0,0,.29,0v-0.07a0.11,0.11,0,0,0,0-.07l-0.2,0a0.07,0.07,0,0,1-.07-0.1h0Z" transform="translate(-245.94 -255.23)"/>
      <path d="M282.21,265.27l-0.06,0a0.26,0.26,0,0,0,0-.2A0.11,0.11,0,0,0,282,265a0.58,0.58,0,0,1-.24-0.1l0.24,0.08a0.11,0.11,0,0,1,.11.07,0.23,0.23,0,0,1,0,.23l0,0h0l0,0V265a0.33,0.33,0,0,1-.2-0.21,0.39,0.39,0,0,1,.2,0,1,1,0,0,0,.28.05,0.31,0.31,0,0,0,.24-0.08,1.49,1.49,0,0,0-.41-0.09,1.9,1.9,0,0,1-.36-0.08,0.42,0.42,0,0,0-.15-0.15,0.87,0.87,0,0,0-.25-0.08l-0.57,0-0.12,0-0.11,0-0.09-.05-0.08,0V264h-0.25a0.2,0.2,0,0,1-.11.09c0,0.06,0,.09,0,0.1a0.82,0.82,0,0,1,.2,0,0.1,0.1,0,0,1,0,.08v0.07a0.51,0.51,0,0,1-.31,0l-0.05,0h0a0.49,0.49,0,0,0,.33,0v-0.06a0.31,0.31,0,0,0-.22-0.08,0.08,0.08,0,0,1-.08-0.1h0l0.05,0a0.24,0.24,0,0,0,.11-0.09h0.28l0,0.11,0.08,0,0.08,0,0.11,0,0.12,0,0.57,0a0.87,0.87,0,0,1,.26.09,0.39,0.39,0,0,1,.15.15,2.41,2.41,0,0,0,.35.08l0.39,0h0l0,0a0.26,0.26,0,0,1-.27.15,1.12,1.12,0,0,1-.29-0.05l-0.16,0a0.33,0.33,0,0,0,.19.19v0.27l-0.06.05h0Zm-0.56-.33h-0.12a0.49,0.49,0,0,1-.27-0.07c0-.06,0-0.06.11-0.06l0.17,0,0-.08,0.12,0-0.1,0,0,0.08a0.38,0.38,0,0,1-.19,0h-0.09a1.1,1.1,0,0,0,.26.08h0.11a0.2,0.2,0,0,0,.09-0.09l0,0a0.43,0.43,0,0,1-.12.1h0Zm0.06-.24a0.24,0.24,0,0,0-.21-0.19H281l0,0.06H280.8a0.92,0.92,0,0,0-.27,0l-0.11,0-0.1,0-0.09,0h0l0,0h0l0.1,0,0.11,0a1.06,1.06,0,0,1,.27,0H281l0-.06,0.52,0a0.23,0.23,0,0,1,.22.21h0Zm-1.36-.12,0.21-.08-0.13,0h-0.18a0.38,0.38,0,0,1-.15-0.06l0,0a0.36,0.36,0,0,0,.13.06h0.28a0.1,0.1,0,0,1,0,.08,0.48,0.48,0,0,1-.23.06h0Z" transform="translate(-245.94 -255.23)"/>
      <path class="c" d="M281.29,264.69a1,1,0,0,0,.25,0h0.17a0.23,0.23,0,0,0-.21-0.22H281v0.07l0.28,0.11h0Z" transform="translate(-245.94 -255.23)"/>
      <path d="M281.54,264.75h0a1,1,0,0,1-.25,0l-0.28-.11,0-.08,0.52,0a0.23,0.23,0,0,1,.22.21h0a0.24,0.24,0,0,0-.21-0.19H281l0,0.06,0.24,0.09a0.92,0.92,0,0,0,.28.05h0.13l-0.13,0h0Z" transform="translate(-245.94 -255.23)"/>
      <path class="d" d="M271.24,265.56l-0.91-3.41,1.39-1.69,2,1.12,0.33,3.61a24.19,24.19,0,0,0-2.77.37h0Z" transform="translate(-245.94 -255.23)"/>
      <path class="k" d="M271.23,265.58h0l-0.91-3.41,1.4-1.7,2,1.11,0.34,3.62a27.32,27.32,0,0,0-2.78.38h0Zm0.48-5.1-1.38,1.69,0.91,3.39a24.64,24.64,0,0,1,2.76-.37l-0.34-3.6-2-1.11h0Z" transform="translate(-245.94 -255.23)"/>
      <path class="h" d="M268,262.72L268.3,263l-0.06.46,0.43-.18,0.34,0.26,0-.42,0.35-.14-0.29-.28,0.07-.42-0.42.15-0.31-.26-0.07.39Z" transform="translate(-245.94 -255.23)"/>
      <path class="r" d="M269,263.55l-0.36-.28-0.42.18,0-.47-0.33-.24,0.42-.2a3.17,3.17,0,0,1,.06-0.39,4.09,4.09,0,0,1,.33.25l0.41-.15,0,0.43,0.29,0.27-0.36.17,0,0.43h0Zm-0.36-.3,0.33,0.25,0-.39,0.36-.15-0.3-.25,0.06-.43-0.41.17-0.32-.26a2.92,2.92,0,0,1,0,.38l-0.42.18,0.34,0.23-0.06.47,0.41-.2h0Z" transform="translate(-245.94 -255.23)"/>
      <path class="s" d="M268,262.73l1.44,0.23-0.36.14-0.34-.24,0.3,0.64-0.34-.25,0-.4-0.46.57,0.07-.45Z" transform="translate(-245.94 -255.23)"/>
      <polygon class="r" points="22.43 7.33 22.77 7.61 22.5 6.93 22.43 7.33"/>
      <path class="r" d="M268.75,262.43s0,0.42,0,.42l0.47-.57-0.43.16h0Z" transform="translate(-245.94 -255.23)"/>
      <path class="h" d="M281.64,262.14l0.08,0.41-0.35.31,0.45,0.14,0.09,0.42,0.31-.29,0.36,0.12,0-.4,0.32-.28-0.42-.15s-0.06-.39-0.07-0.39l-0.31.26Z" transform="translate(-245.94 -255.23)"/>
      <path class="r" d="M281.9,263.44l-0.09-.44-0.44-.13,0.34-.33-0.09-.4,0.44,0.12,0.31-.26a2,2,0,0,1,.08.41l0.42,0.13-0.32.3,0,0.39-0.38-.11-0.31.3h0Zm-0.27-1.28,0.1,0.4-0.35.32,0.44,0.12,0.09,0.4,0.3-.28,0.37,0.12-0.06-.39,0.33-.29-0.43-.14s-0.06-.37-0.07-0.39-0.29.26-.29,0.26l-0.44-.13h0Z" transform="translate(-245.94 -255.23)"/>
      <path class="r" d="M281.64,262.15l0.94,1.08-0.37-.11-0.1-.41-0.19.69-0.09-.4,0.28-.29-0.72.15,0.35-.3Z" transform="translate(-245.94 -255.23)"/>
      <polygon class="r" points="36.11 7.04 36.18 7.47 36.43 6.78 36.11 7.04"/>
      <path class="r" d="M282.44,262.41l-0.31.29,0.73-.13-0.42-.15h0Z" transform="translate(-245.94 -255.23)"/>
      <path class="e" d="M270.33,262.17a5.6,5.6,0,0,1,1.64-.5,11.86,11.86,0,0,1,1.71-.09l0.07,0.9a10.72,10.72,0,0,0-1.6.1,6.15,6.15,0,0,0-1.62.39Z" transform="translate(-245.94 -255.23)"/>
      <path class="l" d="M270.54,263l-0.22-.81a5.31,5.31,0,0,1,1.65-.52,11.07,11.07,0,0,1,1.6-.09h0.11s0.09,0.9.09,0.91h-0.14a10.14,10.14,0,0,0-1.48.1,6.14,6.14,0,0,0-1.61.39h0Zm3.14-1.4h-0.1a11,11,0,0,0-1.6.09,5.5,5.5,0,0,0-1.64.5l0.21,0.77a6.25,6.25,0,0,1,1.61-.39,10.17,10.17,0,0,1,1.48-.1h0.12s-0.09-.88-0.09-0.88h0Z" transform="translate(-245.94 -255.23)"/>
      <path class="e" d="M270.76,263.74s0.25,0.94.25,0.94a13.56,13.56,0,0,1,1.45-.28c0.49-.07,1-0.11,1.47-0.14l-0.08-.92a8.65,8.65,0,0,0-1.57,0,8.06,8.06,0,0,0-1.52.36h0Z" transform="translate(-245.94 -255.23)"/>
      <path class="l" d="M271,264.69h0a7.43,7.43,0,0,1-.25-1,7.87,7.87,0,0,1,1.52-.36,8.86,8.86,0,0,1,1.57,0l0.09,0.93c-0.46,0-1,.08-1.48.15a13.65,13.65,0,0,0-1.45.28h0Zm2.22-1.36a7.41,7.41,0,0,0-.95.06,7.83,7.83,0,0,0-1.51.36s0.16,0.55.26,0.91a14.06,14.06,0,0,1,1.44-.28c0.5-.07,1-0.11,1.47-0.14l-0.1-.9h-0.61Z" transform="translate(-245.94 -255.23)"/>
      <path class="c" d="M268.48,266.64h13.86v8.89a7,7,0,0,1-6.72,6c-3.28.14-6.91-2.54-7.17-6.06Z" transform="translate(-245.94 -255.23)"/>
      <path class="e" d="M275.37,281.61c-3.08,0-6.7-2.51-7-6.11l0-8.86,13.91-.05,0,8.94a7.11,7.11,0,0,1-6.73,6.08h-0.29Zm6.92-15-13.81,0,0,8.81c0.27,3.64,4,6.14,7.12,6a7,7,0,0,0,6.67-6v-8.88h0Z" transform="translate(-245.94 -255.23)"/>
      <path class="e" d="M268.77,267H282v8.52a6.72,6.72,0,0,1-6.44,5.78c-3.14.14-6.62-2.44-6.87-5.81Z" transform="translate(-245.94 -255.23)"/>
      <path class="e" d="M275.37,281.3c-3,0-6.42-2.4-6.68-5.86l0-8.49,13.33,0,0,8.57a6.81,6.81,0,0,1-6.45,5.82h-0.27ZM282,267l-13.23,0,0,8.44c0.26,3.49,3.86,5.88,6.82,5.76a6.72,6.72,0,0,0,6.39-5.73V267h0Z" transform="translate(-245.94 -255.23)"/>
      <rect class="c" x="25.5" y="11.77" width="2.64" height="2.84"/>
      <path class="c" d="M279.38,275.53v2.81h1.49a6.53,6.53,0,0,0,1.1-2.81h-2.59Z" transform="translate(-245.94 -255.23)"/>
      <path class="c" d="M280.88,278.36h-1.5v-2.82H282a6.2,6.2,0,0,1-1.09,2.83h0Zm-1.5-2.81v2.8h1.47a6.43,6.43,0,0,0,1.1-2.8h-2.58Z" transform="translate(-245.94 -255.23)"/>
      <path class="c" d="M276.74,278.37v2.7a7,7,0,0,0,2.62-1.19v-1.51h-2.61Z" transform="translate(-245.94 -255.23)"/>
      <path class="c" d="M276.73,281.08v-2.71h2.62l0,1.52a6.82,6.82,0,0,1-2.63,1.2h0Zm2.61-2.71-2.6,0V281a6.92,6.92,0,0,0,2.6-1.18v-1.5h0Z" transform="translate(-245.94 -255.23)"/>
      <path class="c" d="M271.46,278.37v1.51a7.52,7.52,0,0,0,2.61,1.16v-2.67h-2.61Z" transform="translate(-245.94 -255.23)"/>
      <path class="c" d="M274.09,281.05h0a7.56,7.56,0,0,1-2.62-1.17v-1.52h2.62l0,2.7h0Zm0-2.68h-2.6l0,1.49a7.59,7.59,0,0,0,2.59,1.15v-2.65h0Z" transform="translate(-245.94 -255.23)"/>
      <path class="c" d="M268.81,275.53a5.65,5.65,0,0,0,1.07,2.77l1.54,0v-2.81h-2.61Z" transform="translate(-245.94 -255.23)"/>
      <path class="c" d="M271.44,278.35h0l-1.54,0a5.67,5.67,0,0,1-1.08-2.79h2.63v2.83h0Zm0-2.82h-2.6a5.81,5.81,0,0,0,1.08,2.75l1.52,0v-2.79h0Z" transform="translate(-245.94 -255.23)"/>
      <rect class="c" x="22.85" y="14.61" width="2.64" height="2.84"/>
      <rect class="c" x="28.14" y="14.61" width="2.64" height="2.84"/>
      <rect class="c" x="30.78" y="11.75" width="2.64" height="2.84"/>
      <rect class="c" x="33.42" y="14.61" width="2.64" height="2.84"/>
      <rect class="c" x="25.5" y="17.45" width="2.64" height="2.84"/>
      <rect class="c" x="30.78" y="17.45" width="2.64" height="2.84"/>
      <rect class="c" x="28.14" y="20.29" width="2.64" height="2.84"/>
      <path class="i" d="M278,263.64a0.67,0.67,0,0,1,0-.15l0-.19a0.52,0.52,0,0,1,.09.33h0Z" transform="translate(-245.94 -255.23)"/>
      <path class="i" d="M278,263.66s0,0,0-.11l-0.06-.23a0.42,0.42,0,0,1,.11.33h0Z" transform="translate(-245.94 -255.23)"/>
    </g>
  </g>
</svg>
