<svg xmlns="http://www.w3.org/2000/svg" xmlns:xlink="http://www.w3.org/1999/xlink" viewBox="0 0 58.93 34.37">
  <defs>
    <style>
      .a {
        fill: none;
      }

      .b {
        clip-path: url(#a);
      }

      .c {
        fill: #fff;
      }

      .d {
        fill: #f0953e;
      }

      .e {
        fill: #3b8916;
      }

      .f {
        fill: #16007e;
      }
    </style>
    <clipPath id="a" transform="translate(-246.19 -432.24)">
      <rect class="a" x="246.19" y="432.24" width="58.93" height="34.37"/>
    </clipPath>
  </defs>
  <title>India</title>
  <g class="b">
    <rect class="c" width="58.93" height="34.37"/>
    <rect class="d" width="58.93" height="11.46"/>
    <rect class="e" y="22.92" width="58.93" height="11.46"/>
    <g class="b">
      <path class="f" d="M275.65,444.27a5.16,5.16,0,1,0,5.16,5.16,5.16,5.16,0,0,0-5.16-5.16m0,0.5-0.13,2.59,0.14,1.48,0.14-1.48-0.13-2.59,0.39,0v0a0.21,0.21,0,0,0,.42,0l0.38,0.08-0.8,2.47-0.25,1.46,0.52-1.39,0.54-2.54,0.37,0.12a0.22,0.22,0,0,0,0,.08,0.21,0.21,0,0,0,.41.08L278,445.4l-1.41,2.18-0.62,1.35,0.86-1.21L278,445.4l0.33,0.21a0.21,0.21,0,1,0,.34.26l0.29,0.26L277,447.87,276.07,449l1.14-.95,1.74-1.92,0.26,0.29a0.21,0.21,0,0,0-.08.17,0.21,0.21,0,0,0,.21.21,0.22,0.22,0,0,0,.13,0c0.07,0.11.15,0.21,0.21,0.33l-2.31,1.18-1.21.86,1.35-.62,2.18-1.41c0.07,0.12.13,0.24,0.19,0.37a0.22,0.22,0,0,0-.13.2,0.21,0.21,0,0,0,.21.21l0.08,0c0,0.12.08,0.23,0.11,0.35l-2.54.54-1.39.51,1.46-.25,2.47-.8c0,0.12.06,0.25,0.09,0.38a0.21,0.21,0,0,0,0,.42h0c0,0.13,0,.26,0,0.39l-2.59-.13-1.48.14,1.48,0.14,2.59-.13c0,0.13,0,.26,0,0.39h0a0.21,0.21,0,0,0,0,.42c0,0.13-.05.25-0.08,0.38l-0.88-.29-1.59-.51-1.46-.25h0l1.39,0.52,2.54,0.54c0,0.13-.07.25-0.12,0.37H280a0.21,0.21,0,0,0-.21.21,0.2,0.2,0,0,0,0,.08h0a0.19,0.19,0,0,0,.06.08h0c-0.06.12-.12,0.23-0.18,0.35l-2.17-1.41h0l-1.35-.62h0l0.7,0.5,0.5,0.36h0l2.31,1.18c-0.07.11-.14,0.23-0.21,0.33a0.21,0.21,0,0,0-.12,0,0.21,0.21,0,0,0-.21.21,0.21,0.21,0,0,0,.08.16l-0.26.28-1.74-1.92-1.14-.95L277,451l1.92,1.74-0.28.26a0.22,0.22,0,0,0-.13,0,0.21,0.21,0,0,0-.21.21,0.22,0.22,0,0,0,0,.09l-0.34.22-1.18-2.3-0.86-1.21h0l0.62,1.35,1.41,2.18-0.34.18a0.21,0.21,0,0,0-.41.09,0.23,0.23,0,0,0,0,.08l-0.37.12-0.54-2.54L275.81,450h0l0.25,1.46,0.8,2.47-0.38.09a0.21,0.21,0,0,0-.42,0v0l-0.39,0,0.13-2.59L275.65,450l-0.14,1.48,0.13,2.59-0.4,0a0.1,0.1,0,0,0,0,0,0.21,0.21,0,0,0-.42,0l-0.37-.09,0.8-2.47L275.5,450,275,451.39l-0.54,2.54-0.37-.12a0.21,0.21,0,0,0,0-.08,0.21,0.21,0,0,0-.21-0.21,0.22,0.22,0,0,0-.2.13l-0.35-.18,1.41-2.18,0.62-1.35-0.86,1.21-1.18,2.31-0.33-.21a0.22,0.22,0,0,0,0-.13,0.21,0.21,0,0,0-.21-0.21,0.21,0.21,0,0,0-.16.08l-0.28-.26,1.92-1.74,0.95-1.14h0l-1.14.95-1.74,1.92-0.26-.29a0.21,0.21,0,0,0,.08-0.17A0.21,0.21,0,0,0,272,452a0.22,0.22,0,0,0-.13,0l-0.21-.33,2.31-1.18,1.21-.86-1.35.62-2.18,1.41c-0.06-.11-0.12-0.22-0.18-0.34a0.21,0.21,0,0,0,.14-0.2,0.21,0.21,0,0,0-.21-0.21l-0.09,0c0-.12-0.08-0.25-0.12-0.38l2.53-.54,1.39-.52-1.46.25-2.47.8c0-.12-0.06-0.25-0.08-0.38a0.21,0.21,0,0,0,0-.42h0c0-.13,0-0.26,0-0.39l2.59,0.13,1.48-.14-1.48-.14-2.59.13c0-.13,0-0.26,0-0.39h0a0.21,0.21,0,0,0,0-.43c0-.13.05-0.26,0.08-0.38l2.47,0.8,1.46,0.25-1.39-.51-2.54-.54c0-.12.07-0.25,0.12-0.37l0.08,0a0.21,0.21,0,0,0,.21-0.21,0.22,0.22,0,0,0-.13-0.2c0.06-.12.11-0.23,0.18-0.35l2.18,1.41,1.35,0.62-1.21-.86-2.31-1.18,0.21-.33a0.2,0.2,0,0,0,.13,0,0.21,0.21,0,0,0,.13-0.38l0.26-.29,1.74,1.92,1.14,0.95-0.95-1.14-1.92-1.74,0.29-.26a0.22,0.22,0,0,0,.17.08,0.21,0.21,0,0,0,.21-0.21,0.21,0.21,0,0,0,0-.13l0.33-.21,1.18,2.31,0.86,1.21-0.62-1.35-1.41-2.18,0.34-.18a0.21,0.21,0,0,0,.2.13,0.21,0.21,0,0,0,.21-0.21,0.23,0.23,0,0,0,0-.09l0.38-.12,0.54,2.53,0.51,1.39-0.25-1.46-0.8-2.47,0.38-.09a0.21,0.21,0,0,0,.42,0,0.13,0.13,0,0,0,0,0l0.39,0" transform="translate(-246.19 -432.24)"/>
      <path class="c" d="M275.66,448.66a0.77,0.77,0,1,1-.77.77,0.77,0.77,0,0,1,.77-0.77" transform="translate(-246.19 -432.24)"/>
      <path class="f" d="M275.66,448.83a0.6,0.6,0,1,1-.6.6,0.6,0.6,0,0,1,.6-0.6" transform="translate(-246.19 -432.24)"/>
    </g>
  </g>
</svg>
