<svg xmlns="http://www.w3.org/2000/svg" xmlns:xlink="http://www.w3.org/1999/xlink" viewBox="0 0 58.92 34.37">
  <defs>
    <style>
      .a {
        fill: none;
      }

      .b {
        clip-path: url(#a);
      }

      .c {
        fill: #bd1032;
      }

      .d {
        fill: #fff;
      }

      .e {
        fill: #050505;
      }

      .f {
        fill: #439b4c;
      }
    </style>
    <clipPath id="a" transform="translate(-1092.39 -432.24)">
      <rect class="a" x="1092.39" y="432.24" width="58.92" height="34.37"/>
    </clipPath>
  </defs>
  <title>Iraq</title>
  <g class="b">
    <rect class="c" width="58.92" height="11.46"/>
    <rect class="d" y="11.46" width="58.92" height="11.46"/>
    <rect class="e" y="22.92" width="58.92" height="11.46"/>
    <g class="b">
      <path class="f" d="M1126.94,447.32a0.58,0.58,0,0,1-.18-0.13c0-.06,0-0.06.15,0a0.64,0.64,0,0,0,.66-0.11l0.16-.14,0.19,0.1a0.63,0.63,0,0,0,.25.08,0.56,0.56,0,0,0,.25-0.32c0-.09.08-0.07,0.11,0a0.37,0.37,0,0,1-.23.49,0.53,0.53,0,0,1-.33,0,0.25,0.25,0,0,0-.3,0,0.68,0.68,0,0,1-.74,0" transform="translate(-1092.39 -432.24)"/>
      <path class="f" d="M1127.66,446.66a1,1,0,0,1-.13-0.51c0-.07,0-0.09.12-0.07s0.14,0.12.13,0.38,0,0.28-.11.2" transform="translate(-1092.39 -432.24)"/>
      <path class="f" d="M1119.19,446.42a1.11,1.11,0,0,0,.43.65c-0.1,0-.22,0-0.31.07-0.5.5-2.3,2.26-2.63,2.68,1,0,2.06,0,3-.05,0-.66.63-0.7,1.05-0.94,0.22,0.34.76,0.32,0.83,0.83s0,1.54,0,2.21h-8.36a1.22,1.22,0,0,1-1.55.94,2.88,2.88,0,0,0,.83-0.72,2.46,2.46,0,0,0-.5-1.74,3,3,0,0,0,.89-0.47c-0.29.89,0.77,0.8,1.55,0.77a0.61,0.61,0,0,0-.22-0.71,2.15,2.15,0,0,0,.83-0.55v1.2h5.79c0-.38.1-1-0.2-1s0,0.77-.23.77h-4.47c0-.17,0-0.52,0-0.77l1.46-1.47c0.13-.13,1-0.95,1.83-1.72" transform="translate(-1092.39 -432.24)"/>
      <path class="f" d="M1130.36,446.39a4.13,4.13,0,0,0,.94.5c0,0.16-.19.22-0.22,0.39v3.38a0.72,0.72,0,0,0,.72-0.28c0.06,0.54.4,1.07,0.39,1.49h-1.83v-5.48Z" transform="translate(-1092.39 -432.24)"/>
      <path class="f" d="M1127.93,448.2s0.66-.56.66-0.58v2.95h0.48c0-1.12,0-2.26,0-3.3a4.2,4.2,0,0,0,.67-0.67v5.28h-4.2c-0.06-1.09-.07-2.23,1.21-2v-0.45c0-.08-0.11,0-0.12-0.08,0.2-.2.27-0.25,0.82-0.73,0,0.58,0,1.95,0,1.95h0.48s0-2.29,0-2.36m-1.58,2.33c0.09,0.13.4,0.13,0.38-.09s-0.45-.12-0.38.09" transform="translate(-1092.39 -432.24)"/>
      <path class="f" d="M1114.21,452.23a0.26,0.26,0,1,1-.26.26,0.26,0.26,0,0,1,.26-0.26" transform="translate(-1092.39 -432.24)"/>
      <path class="f" d="M1122.11,446.39a4.19,4.19,0,0,0,.94.5c0,0.16-.18.22-0.22,0.39v3.38a0.74,0.74,0,0,0,.72-0.28c0.06,0.54.4,1.07,0.39,1.49h-1.83v-5.48Z" transform="translate(-1092.39 -432.24)"/>
    </g>
  </g>
</svg>
