<svg xmlns="http://www.w3.org/2000/svg" xmlns:xlink="http://www.w3.org/1999/xlink" viewBox="0 0 58.92 34.37">
  <defs>
    <style>
      .a {
        fill: none;
      }

      .b {
        clip-path: url(#a);
      }

      .c {
        fill: #fff;
      }

      .d {
        fill: #49a044;
      }

      .e {
        fill: #c7001b;
      }
    </style>
    <clipPath id="a" transform="translate(-1021.71 -432.24)">
      <rect class="a" x="1021.71" y="432.24" width="58.92" height="34.37"/>
    </clipPath>
  </defs>
  <title>Iran</title>
  <g class="b">
    <rect class="c" width="58.92" height="34.37"/>
    <rect class="d" width="58.92" height="11.48"/>
    <rect class="e" y="22.89" width="58.92" height="11.48"/>
    <polygon class="e" points="29.46 13.05 28.84 13.55 28.95 21.68 29.46 22.27 29.97 21.68 30.09 13.55 29.46 13.05"/>
    <g class="b">
      <path class="e" d="M1052.42,444.43a0.86,0.86,0,0,1-1.18.28l-0.07,0a0.86,0.86,0,0,1-1.21-.17l0-.07a1.25,1.25,0,1,0,2.5,0" transform="translate(-1021.71 -432.24)"/>
      <path class="e" d="M1052.73,445.56a5.08,5.08,0,0,1-4.69,8,4.71,4.71,0,0,0,4.69-8" transform="translate(-1021.71 -432.24)"/>
      <path class="e" d="M1049.6,445.56a5.08,5.08,0,0,0,4.69,8,4.71,4.71,0,0,1-4.69-8" transform="translate(-1021.71 -432.24)"/>
      <path class="e" d="M1053.31,445.41a5.08,5.08,0,0,1,1.12,7.09c-0.08.11-.17,0.22-0.26,0.33a4,4,0,0,0-.86-7.42" transform="translate(-1021.71 -432.24)"/>
      <path class="e" d="M1049,445.41a5.08,5.08,0,0,0-1.12,7.09c0.08,0.11.17,0.22,0.26,0.33a4,4,0,0,1,.86-7.42" transform="translate(-1021.71 -432.24)"/>
      <path class="c" d="M1021.84,443.18h0.27v-0.55h0.8v0.55h1.34v-0.82h-0.8v0.27H1024v0.27h-0.8v-0.55h-1.34v0.82Zm0.54,0h0.27v-0.27h-0.27v0.27Zm-0.54-1.09h3.48v-0.27h-3.48v0.27Zm3.48,1.09h-0.8v-0.82h1.07v-0.55h0.27v1.09h0.27v-1.09h0.27v1.09h0.27v-1.09h0.27v1.37h-1.34v-0.55h-0.8v0.27h0.54v0.27Z" transform="translate(-1021.71 -432.24)"/>
      <path class="c" d="M1027.19,443.18h0.27v-0.55h0.8v0.55h1.34v-0.82h-0.8v0.27h0.54v0.27h-0.8v-0.55h-1.34v0.82Zm0.54,0H1028v-0.27h-0.27v0.27Zm-0.54-1.09h3.48v-0.27h-3.48v0.27Zm3.48,1.09h-0.8v-0.82h1.07v-0.55h0.27v1.09h0.27v-1.09h0.27v1.09H1032v-1.09h0.27v1.37h-1.34v-0.55h-0.8v0.27h0.54v0.27Z" transform="translate(-1021.71 -432.24)"/>
      <path class="c" d="M1032.55,443.18h0.27v-0.55h0.8v0.55H1035v-0.82h-0.8v0.27h0.54v0.27h-0.8v-0.55h-1.34v0.82Zm0.54,0h0.27v-0.27h-0.27v0.27Zm-0.54-1.09H1036v-0.27h-3.48v0.27Zm3.48,1.09h-0.8v-0.82h1.07v-0.55h0.27v1.09h0.27v-1.09h0.27v1.09h0.27v-1.09h0.27v1.37h-1.34v-0.55h-0.8v0.27H1036v0.27Z" transform="translate(-1021.71 -432.24)"/>
      <path class="c" d="M1037.91,443.18h0.27v-0.55h0.8v0.55h1.34v-0.82h-0.8v0.27h0.54v0.27h-0.8v-0.55h-1.34v0.82Zm0.54,0h0.27v-0.27h-0.27v0.27Zm-0.54-1.09h3.48v-0.27h-3.48v0.27Zm3.48,1.09h-0.8v-0.82h1.07v-0.55h0.27v1.09h0.27v-1.09h0.27v1.09h0.27v-1.09H1043v1.37h-1.34v-0.55h-0.8v0.27h0.54v0.27Z" transform="translate(-1021.71 -432.24)"/>
      <path class="c" d="M1043.27,443.18h0.27v-0.55h0.8v0.55h1.34v-0.82h-0.8v0.27h0.54v0.27h-0.8v-0.55h-1.34v0.82Zm0.54,0h0.27v-0.27h-0.27v0.27Zm-0.54-1.09h3.48v-0.27h-3.48v0.27Zm3.48,1.09h-0.8v-0.82H1047v-0.55h0.27v1.09h0.27v-1.09h0.27v1.09h0.27v-1.09h0.27v1.37H1047v-0.55h-0.8v0.27h0.54v0.27Z" transform="translate(-1021.71 -432.24)"/>
      <path class="c" d="M1048.62,443.18h0.27v-0.55h0.8v0.55H1051v-0.82h-0.8v0.27h0.54v0.27H1050v-0.55h-1.34v0.82Zm0.54,0h0.27v-0.27h-0.27v0.27Zm-0.54-1.09h3.48v-0.27h-3.48v0.27Zm3.48,1.09h-0.8v-0.82h1.07v-0.55h0.27v1.09h0.27v-1.09h0.27v1.09h0.27v-1.09h0.27v1.37h-1.34v-0.55h-0.8v0.27h0.54v0.27Z" transform="translate(-1021.71 -432.24)"/>
      <path class="c" d="M1054,443.18h0.27v-0.55h0.8v0.55h1.34v-0.82h-0.8v0.27h0.54v0.27h-0.8v-0.55H1054v0.82Zm0.54,0h0.27v-0.27h-0.27v0.27Zm-0.54-1.09h3.48v-0.27H1054v0.27Zm3.48,1.09h-0.8v-0.82h1.07v-0.55H1058v1.09h0.27v-1.09h0.27v1.09h0.27v-1.09h0.27v1.37h-1.34v-0.55h-0.8v0.27h0.54v0.27Z" transform="translate(-1021.71 -432.24)"/>
      <path class="c" d="M1059.34,443.18h0.27v-0.55h0.8v0.55h1.34v-0.82h-0.8v0.27h0.54v0.27h-0.8v-0.55h-1.34v0.82Zm0.54,0h0.27v-0.27h-0.27v0.27Zm-0.54-1.09h3.48v-0.27h-3.48v0.27Zm3.48,1.09H1062v-0.82h1.07v-0.55h0.27v1.09h0.27v-1.09h0.27v1.09h0.27v-1.09h0.27v1.37h-1.34v-0.55h-0.8v0.27h0.54v0.27Z" transform="translate(-1021.71 -432.24)"/>
      <path class="c" d="M1064.69,443.18H1065v-0.55h0.8v0.55h1.34v-0.82h-0.8v0.27h0.54v0.27H1066v-0.55h-1.34v0.82Zm0.54,0h0.27v-0.27h-0.27v0.27Zm-0.54-1.09h3.48v-0.27h-3.48v0.27Zm3.48,1.09h-0.8v-0.82h1.07v-0.55h0.27v1.09H1069v-1.09h0.27v1.09h0.27v-1.09h0.27v1.37h-1.34v-0.55h-0.8v0.27h0.54v0.27Z" transform="translate(-1021.71 -432.24)"/>
      <path class="c" d="M1070,443.18h0.27v-0.55h0.8v0.55h1.34v-0.82h-0.8v0.27h0.54v0.27h-0.8v-0.55H1070v0.82Zm0.54,0h0.27v-0.27h-0.27v0.27Zm-0.54-1.09h3.48v-0.27H1070v0.27Zm3.48,1.09h-0.8v-0.82h1.07v-0.55h0.27v1.09h0.27v-1.09h0.27v1.09h0.27v-1.09h0.27v1.37h-1.34v-0.55H1073v0.27h0.54v0.27Z" transform="translate(-1021.71 -432.24)"/>
      <path class="c" d="M1075.41,443.18h0.27v-0.55h0.8v0.55h1.34v-0.82H1077v0.27h0.54v0.27h-0.8v-0.55h-1.34v0.82Zm0.54,0h0.27v-0.27h-0.27v0.27Zm-0.54-1.09h3.48v-0.27h-3.48v0.27Zm3.48,1.09h-0.8v-0.82h1.07v-0.55h0.27v1.09h0.27v-1.09H1080v1.09h0.27v-1.09h0.27v1.37h-1.34v-0.55h-0.8v0.27h0.54v0.27Z" transform="translate(-1021.71 -432.24)"/>
      <path class="c" d="M1021.84,444h2.41v-0.55h-2.41V444Zm2.68,0h2.41v-0.55h-2.41V444Z" transform="translate(-1021.71 -432.24)"/>
      <path class="c" d="M1027.19,444h2.41v-0.55h-2.41V444Zm2.68,0h2.41v-0.55h-2.41V444Z" transform="translate(-1021.71 -432.24)"/>
      <path class="c" d="M1032.55,444H1035v-0.55h-2.41V444Zm2.68,0h2.41v-0.55h-2.41V444Z" transform="translate(-1021.71 -432.24)"/>
      <path class="c" d="M1037.91,444h2.41v-0.55h-2.41V444Zm2.68,0H1043v-0.55h-2.41V444Z" transform="translate(-1021.71 -432.24)"/>
      <path class="c" d="M1043.27,444h2.41v-0.55h-2.41V444Zm2.68,0h2.41v-0.55h-2.41V444Z" transform="translate(-1021.71 -432.24)"/>
      <path class="c" d="M1048.62,444H1051v-0.55h-2.41V444Zm2.68,0h2.41v-0.55h-2.41V444Z" transform="translate(-1021.71 -432.24)"/>
      <path class="c" d="M1054,444h2.41v-0.55H1054V444Zm2.68,0h2.41v-0.55h-2.41V444Z" transform="translate(-1021.71 -432.24)"/>
      <path class="c" d="M1059.34,444h2.41v-0.55h-2.41V444Zm2.68,0h2.41v-0.55H1062V444Z" transform="translate(-1021.71 -432.24)"/>
      <path class="c" d="M1064.69,444h2.41v-0.55h-2.41V444Zm2.68,0h2.41v-0.55h-2.41V444Z" transform="translate(-1021.71 -432.24)"/>
      <path class="c" d="M1070,444h2.41v-0.55H1070V444Zm2.68,0h2.41v-0.55h-2.41V444Z" transform="translate(-1021.71 -432.24)"/>
      <path class="c" d="M1075.41,444h2.41v-0.55h-2.41V444Zm2.68,0h2.41v-0.55h-2.41V444Z" transform="translate(-1021.71 -432.24)"/>
      <path class="c" d="M1021.84,457h0.27V456.5h0.8V457h1.34v-0.82h-0.8v0.27H1024v0.27h-0.8v-0.55h-1.34V457Zm0.54,0h0.27v-0.27h-0.27V457Zm-0.54-1.09h3.48v-0.27h-3.48V456Zm3.48,1.09h-0.8v-0.82h1.07v-0.55h0.27v1.09h0.27v-1.09h0.27v1.09h0.27v-1.09h0.27V457h-1.34V456.5h-0.8v0.27h0.54V457Z" transform="translate(-1021.71 -432.24)"/>
      <path class="c" d="M1027.19,457h0.27V456.5h0.8V457h1.34v-0.82h-0.8v0.27h0.54v0.27h-0.8v-0.55h-1.34V457Zm0.54,0H1028v-0.27h-0.27V457Zm-0.54-1.09h3.48v-0.27h-3.48V456Zm3.48,1.09h-0.8v-0.82h1.07v-0.55h0.27v1.09h0.27v-1.09h0.27v1.09H1032v-1.09h0.27V457h-1.34V456.5h-0.8v0.27h0.54V457Z" transform="translate(-1021.71 -432.24)"/>
      <path class="c" d="M1032.55,457h0.27V456.5h0.8V457H1035v-0.82h-0.8v0.27h0.54v0.27h-0.8v-0.55h-1.34V457Zm0.54,0h0.27v-0.27h-0.27V457Zm-0.54-1.09H1036v-0.27h-3.48V456ZM1036,457h-0.8v-0.82h1.07v-0.55h0.27v1.09h0.27v-1.09h0.27v1.09h0.27v-1.09h0.27V457h-1.34V456.5h-0.8v0.27H1036V457Z" transform="translate(-1021.71 -432.24)"/>
      <path class="c" d="M1037.91,457h0.27V456.5h0.8V457h1.34v-0.82h-0.8v0.27h0.54v0.27h-0.8v-0.55h-1.34V457Zm0.54,0h0.27v-0.27h-0.27V457Zm-0.54-1.09h3.48v-0.27h-3.48V456Zm3.48,1.09h-0.8v-0.82h1.07v-0.55h0.27v1.09h0.27v-1.09h0.27v1.09h0.27v-1.09H1043V457h-1.34V456.5h-0.8v0.27h0.54V457Z" transform="translate(-1021.71 -432.24)"/>
      <path class="c" d="M1043.27,457h0.27V456.5h0.8V457h1.34v-0.82h-0.8v0.27h0.54v0.27h-0.8v-0.55h-1.34V457Zm0.54,0h0.27v-0.27h-0.27V457Zm-0.54-1.09h3.48v-0.27h-3.48V456Zm3.48,1.09h-0.8v-0.82H1047v-0.55h0.27v1.09h0.27v-1.09h0.27v1.09h0.27v-1.09h0.27V457H1047V456.5h-0.8v0.27h0.54V457Z" transform="translate(-1021.71 -432.24)"/>
      <path class="c" d="M1048.62,457h0.27V456.5h0.8V457H1051v-0.82h-0.8v0.27h0.54v0.27H1050v-0.55h-1.34V457Zm0.54,0h0.27v-0.27h-0.27V457Zm-0.54-1.09h3.48v-0.27h-3.48V456Zm3.48,1.09h-0.8v-0.82h1.07v-0.55h0.27v1.09h0.27v-1.09h0.27v1.09h0.27v-1.09h0.27V457h-1.34V456.5h-0.8v0.27h0.54V457Z" transform="translate(-1021.71 -432.24)"/>
      <path class="c" d="M1054,457h0.27V456.5h0.8V457h1.34v-0.82h-0.8v0.27h0.54v0.27h-0.8v-0.55H1054V457Zm0.54,0h0.27v-0.27h-0.27V457ZM1054,456h3.48v-0.27H1054V456Zm3.48,1.09h-0.8v-0.82h1.07v-0.55H1058v1.09h0.27v-1.09h0.27v1.09h0.27v-1.09h0.27V457h-1.34V456.5h-0.8v0.27h0.54V457Z" transform="translate(-1021.71 -432.24)"/>
      <path class="c" d="M1059.34,457h0.27V456.5h0.8V457h1.34v-0.82h-0.8v0.27h0.54v0.27h-0.8v-0.55h-1.34V457Zm0.54,0h0.27v-0.27h-0.27V457Zm-0.54-1.09h3.48v-0.27h-3.48V456Zm3.48,1.09H1062v-0.82h1.07v-0.55h0.27v1.09h0.27v-1.09h0.27v1.09h0.27v-1.09h0.27V457h-1.34V456.5h-0.8v0.27h0.54V457Z" transform="translate(-1021.71 -432.24)"/>
      <path class="c" d="M1064.69,457H1065V456.5h0.8V457h1.34v-0.82h-0.8v0.27h0.54v0.27H1066v-0.55h-1.34V457Zm0.54,0h0.27v-0.27h-0.27V457Zm-0.54-1.09h3.48v-0.27h-3.48V456Zm3.48,1.09h-0.8v-0.82h1.07v-0.55h0.27v1.09H1069v-1.09h0.27v1.09h0.27v-1.09h0.27V457h-1.34V456.5h-0.8v0.27h0.54V457Z" transform="translate(-1021.71 -432.24)"/>
      <path class="c" d="M1070,457h0.27V456.5h0.8V457h1.34v-0.82h-0.8v0.27h0.54v0.27h-0.8v-0.55H1070V457Zm0.54,0h0.27v-0.27h-0.27V457ZM1070,456h3.48v-0.27H1070V456Zm3.48,1.09h-0.8v-0.82h1.07v-0.55h0.27v1.09h0.27v-1.09h0.27v1.09h0.27v-1.09h0.27V457h-1.34V456.5H1073v0.27h0.54V457Z" transform="translate(-1021.71 -432.24)"/>
      <path class="c" d="M1075.41,457h0.27V456.5h0.8V457h1.34v-0.82H1077v0.27h0.54v0.27h-0.8v-0.55h-1.34V457Zm0.54,0h0.27v-0.27h-0.27V457Zm-0.54-1.09h3.48v-0.27h-3.48V456Zm3.48,1.09h-0.8v-0.82h1.07v-0.55h0.27v1.09h0.27v-1.09H1080v1.09h0.27v-1.09h0.27V457h-1.34V456.5h-0.8v0.27h0.54V457Z" transform="translate(-1021.71 -432.24)"/>
      <path class="c" d="M1021.84,455.41h2.41v-0.55h-2.41v0.55Zm2.68,0h2.41v-0.55h-2.41v0.55Z" transform="translate(-1021.71 -432.24)"/>
      <path class="c" d="M1027.19,455.41h2.41v-0.55h-2.41v0.55Zm2.68,0h2.41v-0.55h-2.41v0.55Z" transform="translate(-1021.71 -432.24)"/>
      <path class="c" d="M1032.55,455.41H1035v-0.55h-2.41v0.55Zm2.68,0h2.41v-0.55h-2.41v0.55Z" transform="translate(-1021.71 -432.24)"/>
      <path class="c" d="M1037.91,455.41h2.41v-0.55h-2.41v0.55Zm2.68,0H1043v-0.55h-2.41v0.55Z" transform="translate(-1021.71 -432.24)"/>
      <path class="c" d="M1043.27,455.41h2.41v-0.55h-2.41v0.55Zm2.68,0h2.41v-0.55h-2.41v0.55Z" transform="translate(-1021.71 -432.24)"/>
      <path class="c" d="M1048.62,455.41H1051v-0.55h-2.41v0.55Zm2.68,0h2.41v-0.55h-2.41v0.55Z" transform="translate(-1021.71 -432.24)"/>
      <path class="c" d="M1054,455.41h2.41v-0.55H1054v0.55Zm2.68,0h2.41v-0.55h-2.41v0.55Z" transform="translate(-1021.71 -432.24)"/>
      <path class="c" d="M1059.34,455.41h2.41v-0.55h-2.41v0.55Zm2.68,0h2.41v-0.55H1062v0.55Z" transform="translate(-1021.71 -432.24)"/>
      <path class="c" d="M1064.69,455.41h2.41v-0.55h-2.41v0.55Zm2.68,0h2.41v-0.55h-2.41v0.55Z" transform="translate(-1021.71 -432.24)"/>
      <path class="c" d="M1070,455.41h2.41v-0.55H1070v0.55Zm2.68,0h2.41v-0.55h-2.41v0.55Z" transform="translate(-1021.71 -432.24)"/>
      <path class="c" d="M1075.41,455.41h2.41v-0.55h-2.41v0.55Zm2.68,0h2.41v-0.55h-2.41v0.55Z" transform="translate(-1021.71 -432.24)"/>
    </g>
  </g>
</svg>
