<svg xmlns="http://www.w3.org/2000/svg" xmlns:xlink="http://www.w3.org/1999/xlink" viewBox="0 0 58.92 34.37">
  <defs>
    <style>
      .a {
        fill: none;
      }

      .b {
        clip-path: url(#a);
      }

      .c {
        fill: #fff;
      }

      .d {
        fill: #2a680b;
      }

      .e {
        fill: #aa0017;
      }
    </style>
    <clipPath id="a" transform="translate(-1092.39 -545.23)">
      <rect class="a" x="1092.39" y="545.23" width="58.92" height="34.37"/>
    </clipPath>
  </defs>
  <title>Kenya</title>
  <g class="b">
    <rect class="c" width="58.92" height="34.37"/>
    <rect width="58.92" height="10.31"/>
    <rect class="d" y="24.06" width="58.92" height="10.31"/>
    <g class="b">
      <path d="M1115.47,572.62l0.37,0.21,10-17.38a2.31,2.31,0,0,0,1.23-1.27,12.46,12.46,0,0,0,1.44-3.79,12.48,12.48,0,0,0-2.56,3.15,2.31,2.31,0,0,0-.49,1.7Z" transform="translate(-1092.39 -545.23)"/>
      <path d="M1115.85,572.88l-0.4-.23,10-17.42a2.31,2.31,0,0,1,.49-1.7,12.32,12.32,0,0,1,2.57-3.16,10.86,10.86,0,0,1-1.4,3.83,2.34,2.34,0,0,1-1.25,1.29l-10,17.39h0Zm12.66-22.49a14.27,14.27,0,0,0-2.51,3.17,2.3,2.3,0,0,0-.48,1.68l-10,17.4,0.34,0.16,10-17.36a2.35,2.35,0,0,0,1.23-1.28,12.28,12.28,0,0,0,1.44-3.78h0Z" transform="translate(-1092.39 -545.23)"/>
      <path class="c" d="M1115.47,572.62l0.37,0.21,10-17.38a2.31,2.31,0,0,0,1.23-1.27,12.46,12.46,0,0,0,1.44-3.79,12.48,12.48,0,0,0-2.56,3.15,2.31,2.31,0,0,0-.49,1.7Z" transform="translate(-1092.39 -545.23)"/>
      <path d="M1127.74,572.62l-0.37.21-10-17.38a2.31,2.31,0,0,1-1.23-1.27,12.47,12.47,0,0,1-1.45-3.79,12.47,12.47,0,0,1,2.56,3.15,2.32,2.32,0,0,1,.49,1.7Z" transform="translate(-1092.39 -545.23)"/>
      <path d="M1127.35,572.88v0l-10-17.38a2.32,2.32,0,0,1-1.23-1.27,12.36,12.36,0,0,1-1.45-3.8,10.86,10.86,0,0,1,2.61,3.13,2.35,2.35,0,0,1,.49,1.72l10,17.36-0.41.27h0Zm-12.71-22.47a14.33,14.33,0,0,0,1.49,3.76,2.3,2.3,0,0,0,1.21,1.26l10,17.37,0.35-.2-10-17.34a2.35,2.35,0,0,0-.49-1.7,12.25,12.25,0,0,0-2.55-3.14h0Z" transform="translate(-1092.39 -545.23)"/>
      <path class="c" d="M1127.74,572.62l-0.37.21-10-17.38a2.31,2.31,0,0,1-1.23-1.27,12.47,12.47,0,0,1-1.45-3.79,12.47,12.47,0,0,1,2.56,3.15,2.32,2.32,0,0,1,.49,1.7Z" transform="translate(-1092.39 -545.23)"/>
      <path class="e" d="M1092.39,557.26v10.31h25.13c0.64,1.72,2.79,5.16,4.08,5.16s3.43-3.44,4.08-5.16h25.64V557.26h-25.64c-0.64-1.72-2.79-5.16-4.08-5.16s-3.43,3.44-4.08,5.16h-25.13Z" transform="translate(-1092.39 -545.23)"/>
      <path d="M1125.68,567.57a12.91,12.91,0,0,0,0-10.31,12.93,12.93,0,0,0,0,10.31h0Z" transform="translate(-1092.39 -545.23)"/>
      <path d="M1117.53,567.57a12.93,12.93,0,0,1,0-10.31,12.92,12.92,0,0,1,0,10.31h0Z" transform="translate(-1092.39 -545.23)"/>
      <path class="c" d="M1121.6,561.13a1.4,1.4,0,1,1-.86,1.29,1.14,1.14,0,0,1,.86-1.29h0Z" transform="translate(-1092.39 -545.23)"/>
      <path class="c" d="M1121.82,563.67a12.3,12.3,0,0,1,0,9v-9Z" transform="translate(-1092.39 -545.23)"/>
      <path class="c" d="M1121.39,561.16a12.27,12.27,0,0,1,0-9v9Z" transform="translate(-1092.39 -545.23)"/>
      <path class="c" d="M1121.39,563.67a12.27,12.27,0,0,0,0,9v-9Z" transform="translate(-1092.39 -545.23)"/>
      <path class="c" d="M1121.82,561.16a12.3,12.3,0,0,0,0-9v9Z" transform="translate(-1092.39 -545.23)"/>
    </g>
  </g>
</svg>
