<svg xmlns="http://www.w3.org/2000/svg" xmlns:xlink="http://www.w3.org/1999/xlink" viewBox="0 0 58.92 34.37">
  <defs>
    <style>
      .a {
        fill: none;
      }

      .b {
        clip-path: url(#a);
      }

      .c {
        fill: #d50037;
      }

      .d {
        fill: #f9f02a;
      }
    </style>
    <clipPath id="a" transform="translate(-1092.39 -605.15)">
      <rect class="a" x="1092.39" y="605.15" width="58.92" height="34.37"/>
    </clipPath>
  </defs>
  <title>Kyrgyzstan</title>
  <g class="b">
    <rect class="c" width="58.92" height="34.37"/>
    <g class="b">
      <path class="d" d="M1132.21,622.37c-1.33.33-2.77-.73-4-0.51a0.39,0.39,0,0,0,0,0c1.19-.57,3.16.07,3.88-1.06-1.26.54-2.84-.28-4,0.12v-0.05c1.09-.73,3.12-0.43,3.66-1.64-1.16.72-2.84,0.17-3.94,0.74l0-.05c1-.89,3-0.91,3.34-2.19-1,.89-2.76.61-3.77,1.34l0,0c0.82-1,2.82-1.36,3-2.68-0.87,1-2.62,1-3.5,1.91l0,0c0.65-1.13,2.57-1.78,2.49-3.1-0.7,1.16-2.42,1.44-3.16,2.43l0,0c0.47-1.21,2.25-2.15,2-3.44-0.5,1.25-2.16,1.79-2.73,2.88l-0.06,0c0.29-1.27,1.89-2.47,1.41-3.69-0.3,1.31-1.85,2.1-2.25,3.27l-0.06,0c0.09-1.29,1.48-2.73.82-3.86-0.09,1.34-1.49,2.37-1.71,3.57l-0.07,0c-0.11-1.29,1-2.93.2-3.94,0.12,1.34-1.1,2.57-1.13,3.8h-0.07c-0.31-1.26.56-3.05-.42-3.92,0.33,1.3-.69,2.71-0.52,3.93h-0.07c-0.51-1.19.07-3.1-1-3.81,0.53,1.24-.26,2.79.1,4l-0.07,0c-0.69-1.1-.41-3.08-1.61-3.6,0.71,1.14.18,2.8,0.72,3.9l-0.06,0c-0.86-1-.89-3-2.16-3.31,0.89,1,.62,2.74,1.33,3.75l-0.05,0c-1-.82-1.35-2.81-2.66-2.94,1,0.87,1,2.63,1.91,3.5l0,0c-1.13-.65-1.78-2.57-3.09-2.49,1.17,0.7,1.44,2.44,2.44,3.17l0,0c-1.22-.46-2.17-2.26-3.46-2,1.26,0.51,1.8,2.2,2.92,2.75l0,0c-1.28-.26-2.5-1.9-3.74-1.42,1.33,0.31,2.13,1.9,3.32,2.27l0,0c-1.31,0-2.78-1.49-3.92-.82,1.37,0.1,2.41,1.55,3.65,1.72v0c-1.3.17-3-1-4-.19,1.37-.12,2.63,1.16,3.89,1.13,0,0,0,0,0,0-1.26.39-3.12-.56-4,0.45,1.34-.34,2.79.75,4,0.5,0,0,0,0,0,0-1.18.59-3.18-.06-3.91,1.07,1.28-.54,2.89.31,4.07-0.14v0c-1.07.78-3.16,0.45-3.71,1.68,1.18-.74,2.91-0.14,4-0.78v0c-0.93.95-3.07,0.94-3.41,2.25,1.05-.92,2.87-0.6,3.85-1.41v0c-0.76,1.09-2.89,1.41-3,2.77,0.9-1.07,2.75-1,3.59-2l0,0c-0.58,1.21-2.64,1.86-2.56,3.22,0.72-1.21,2.56-1.45,3.24-2.55v0c-0.37,1.29-2.32,2.25-2,3.59,0.53-1.31,2.31-1.84,2.8-3h0c-0.16,1.33-1.94,2.59-1.44,3.87,0.32-1.37,2-2.18,2.3-3.44h0c0.05,1.34-1.51,2.87-.82,4.05,0.1-1.41,1.63-2.47,1.73-3.76h0c0.26,1.32-1,3.07-.17,4.13-0.12-1.41,1.23-2.69,1.12-4h0c0.47,1.26-.55,3.2.48,4.11-0.34-1.37.79-2.85,0.48-4.11h0c0.66,1.17,0,3.24,1.11,4-0.55-1.3.33-2.94-.16-4.13h0c0.83,1.06.46,3.21,1.72,3.76-0.75-1.19-.13-2.95-0.81-4.05h0c1,0.92,1,3.09,2.28,3.44-0.92-1.06-.59-2.89-1.42-3.87h0c1.11,0.75,1.42,2.9,2.79,3-1.08-.9-1-2.75-2-3.59l0,0c1.21,0.58,1.86,2.64,3.22,2.56-1.2-.72-1.45-2.54-2.53-3.23l0,0c1.28,0.39,2.24,2.31,3.57,2-1.29-.52-1.83-2.27-3-2.79l0,0c1.32,0.2,2.56,1.93,3.83,1.44-1.35-.31-2.16-1.95-3.38-2.28v0c1.33,0,2.82,1.5,4,.82-1.38-.1-2.43-1.57-3.68-1.72v0c1.31-.2,3,1,4,0.19-1.37.12-2.63-1.17-3.89-1.13v0c1.26-.39,3.12.56,4-0.44m-4.73.65a5.51,5.51,0,0,1-.16.82l0.11,0-0.13,0a5.2,5.2,0,0,1-.28.78l0.11,0H1127a5.49,5.49,0,0,1-.4.73l0.1,0.05h-0.13a5.46,5.46,0,0,1-.51.66l0.09,0.07-0.13,0a5.54,5.54,0,0,1-.61.57l0.08,0.08-0.12-.05a5.6,5.6,0,0,1-.69.47l0.07,0.09-0.11-.07a5.69,5.69,0,0,1-.75.35l0.05,0.1-0.1-.09a5.48,5.48,0,0,1-.8.23,0.86,0.86,0,0,0,0,.11l-0.08-.1a5.45,5.45,0,0,1-.82.1,0.85,0.85,0,0,0,0,.12l-0.07-.11h-0.23c-0.2,0-.4,0-0.6,0a0.89,0.89,0,0,0,0,.12l0-.12a5.89,5.89,0,0,1-.82-0.16,1.15,1.15,0,0,0,0,.11l0-.13a5.61,5.61,0,0,1-.78-0.28l0,0.11s0-.09,0-0.13a5.8,5.8,0,0,1-.73-0.4l-0.05.1s0-.09,0-0.13a5.72,5.72,0,0,1-.66-0.51l-0.07.09,0-.13a5.74,5.74,0,0,1-.57-0.61l-0.08.08,0.05-.12a5.52,5.52,0,0,1-.47-0.69l-0.09.07,0.07-.11a5.62,5.62,0,0,1-.35-0.75l-0.1.05,0.09-.1a5.64,5.64,0,0,1-.23-0.8l-0.11,0,0.1-.08a5.74,5.74,0,0,1-.1-0.82l-0.11,0,0.11-.07c0-.08,0-0.15,0-0.23a5.78,5.78,0,0,1,0-.6h-0.12l0.12-.05a5.43,5.43,0,0,1,.16-0.82l-0.12,0,0.13,0a5.78,5.78,0,0,1,.28-0.78l-0.11,0h0.13a5.48,5.48,0,0,1,.4-0.73l-0.1-.05h0.13a5.63,5.63,0,0,1,.51-0.66l-0.09-.07,0.13,0a5.56,5.56,0,0,1,.61-0.57l-0.08-.08,0.12,0.05a5.75,5.75,0,0,1,.69-0.47l-0.07-.09,0.11,0.07a5.52,5.52,0,0,1,.75-0.35l-0.05-.1,0.1,0.08a5.71,5.71,0,0,1,.8-0.23l0-.11,0.08,0.1a5.76,5.76,0,0,1,.83-0.1,0.77,0.77,0,0,0,0-.11l0.07,0.11h0.23a5.48,5.48,0,0,1,.6,0,0.79,0.79,0,0,0,0-.12l0,0.12a5.6,5.6,0,0,1,.82.15,0.88,0.88,0,0,0,0-.11,1.08,1.08,0,0,0,0,.13,5.72,5.72,0,0,1,.78.28l0-.11a1.14,1.14,0,0,0,0,.13,5.6,5.6,0,0,1,.73.4l0.05-.1s0,0.09,0,.13a5.56,5.56,0,0,1,.66.51l0.07-.09a1.23,1.23,0,0,0,0,.13,5.56,5.56,0,0,1,.57.61l0.08-.08-0.05.12a5.9,5.9,0,0,1,.47.69l0.09-.07-0.07.11a5.5,5.5,0,0,1,.35.75l0.1-.05-0.08.1a5.4,5.4,0,0,1,.23.8l0.11,0-0.1.08a5.61,5.61,0,0,1,.1.83l0.12,0-0.11.07c0,0.08,0,.16,0,0.23a5.71,5.71,0,0,1,0,.6h0.12l-0.12,0" transform="translate(-1092.39 -605.15)"/>
      <path class="d" d="M1121.35,619.14a7.3,7.3,0,0,0-2.52-.56l-0.2.2a7.1,7.1,0,0,1,2.4.54l0.33-.18" transform="translate(-1092.39 -605.15)"/>
      <path class="d" d="M1124.59,618.28a4.55,4.55,0,0,0-5.38,0,6.28,6.28,0,0,0,5.38,0" transform="translate(-1092.39 -605.15)"/>
      <path class="d" d="M1120.59,619.6a6.84,6.84,0,0,0-2.23-.52l-0.15.19a6.63,6.63,0,0,1,2.11.53l0.26-.19" transform="translate(-1092.39 -605.15)"/>
      <path class="d" d="M1122.54,620.85l-0.27.22a6.83,6.83,0,0,1,2.14,4.84,4.32,4.32,0,0,0,.41-0.3,7,7,0,0,0-2.29-4.76" transform="translate(-1092.39 -605.15)"/>
      <path class="d" d="M1122.76,619.32a7.11,7.11,0,0,1,2.4-.54l-0.21-.2a7.29,7.29,0,0,0-2.52.56l0.32,0.18" transform="translate(-1092.39 -605.15)"/>
      <path class="d" d="M1123.3,620.34l-0.32.2a7.29,7.29,0,0,1,2.43,4.48,4.29,4.29,0,0,0,.36-0.49,7.49,7.49,0,0,0-2.47-4.18" transform="translate(-1092.39 -605.15)"/>
      <path class="d" d="M1120,620.07a6.41,6.41,0,0,0-1.94-.54,4.69,4.69,0,0,0-.45,4.08,7.8,7.8,0,0,1,2.39-3.54" transform="translate(-1092.39 -605.15)"/>
      <path class="d" d="M1123.46,619.79a6.63,6.63,0,0,1,2.11-.53l-0.15-.19a6.82,6.82,0,0,0-2.23.52l0.26,0.19" transform="translate(-1092.39 -605.15)"/>
      <path class="d" d="M1120,626.06c0,0.07,0,.14,0,0.2a4.54,4.54,0,0,0,3.79,0c0-.07,0-0.13,0-0.2a2.71,2.71,0,1,0-3.8,0" transform="translate(-1092.39 -605.15)"/>
      <path class="d" d="M1121.9,619.4l-0.33.18,0.33,0.18,0.33-.18-0.33-.18" transform="translate(-1092.39 -605.15)"/>
      <path class="d" d="M1123.82,620.07a7.81,7.81,0,0,1,2.39,3.54,4.7,4.7,0,0,0,.27-1.58,4.65,4.65,0,0,0-.72-2.5,6.4,6.4,0,0,0-1.94.54" transform="translate(-1092.39 -605.15)"/>
      <path class="d" d="M1121.52,621.07l-0.27-.22a7,7,0,0,0-2.29,4.76,4.35,4.35,0,0,0,.41.3,6.83,6.83,0,0,1,2.15-4.84" transform="translate(-1092.39 -605.15)"/>
      <path class="d" d="M1121.62,620.53l0.27,0.21,0.27-.21-0.27-.2-0.27.2" transform="translate(-1092.39 -605.15)"/>
      <path class="d" d="M1120.81,620.54l-0.32-.2a7.49,7.49,0,0,0-2.47,4.18,4.78,4.78,0,0,0,.36.5,7.29,7.29,0,0,1,2.43-4.48" transform="translate(-1092.39 -605.15)"/>
      <path class="d" d="M1122.34,620l0.27,0.19,0.32-.19-0.27-.19-0.33.19" transform="translate(-1092.39 -605.15)"/>
      <path class="d" d="M1120.86,620l0.32,0.19,0.27-.19-0.33-.19-0.27.19" transform="translate(-1092.39 -605.15)"/>
    </g>
  </g>
</svg>
