<svg xmlns="http://www.w3.org/2000/svg" xmlns:xlink="http://www.w3.org/1999/xlink" viewBox="0 0 58.92 34.37">
  <defs>
    <style>
      .a {
        fill: none;
      }

      .b {
        clip-path: url(#a);
      }

      .c {
        fill: #1a0095;
      }

      .d {
        fill: #ba0019;
      }

      .e {
        fill: #fff;
      }
    </style>
    <clipPath id="a" transform="translate(-1021.95 -140.71)">
      <rect class="a" x="1021.95" y="140.71" width="58.92" height="34.37"/>
    </clipPath>
  </defs>
  <title>Cambodia</title>
  <g class="b">
    <rect class="c" width="58.92" height="34.37"/>
    <rect class="d" y="8.59" width="58.92" height="17.19"/>
    <rect class="e" x="18.54" y="17.15" width="21.85" height="3.53"/>
    <path class="d" d="M1062.38,161.44h-21.89l0-3.58,21.9,0,0,3.62h0Zm-0.09-3.58-21.81,0,0,3.49,21.76,0v-3.49h0Z" transform="translate(-1021.95 -140.71)"/>
    <polygon class="e" points="18.52 20.69 18.17 21.52 40.76 21.52 40.4 20.69 18.52 20.69"/>
    <path class="d" d="M1062.77,162.27h-22.72l0.38-.89,21.92,0,0.42,0.92h0Zm-22.59-.09h22.46l-0.33-.77-21.84,0-0.29.74h0Z" transform="translate(-1021.95 -140.71)"/>
    <polygon class="e" points="35.78 20.69 35.36 21.52 40.49 21.52 40.06 20.69 35.78 20.69"/>
    <path class="d" d="M1062.51,162.27h-5.28l0.46-.9,4.32,0,0.5,0.92h0Zm-5.14-.09h5l-0.4-.77-4.24,0-0.36.74h0Z" transform="translate(-1021.95 -140.71)"/>
    <polygon class="e" points="37.02 20.69 36.8 21.52 39.39 21.52 39.18 20.69 37.02 20.69"/>
    <path class="d" d="M1061.4,162.27h-2.64l0.17-.89,2.2,0,0.27,0.92h0Zm-0.31-.86-2.11,0-0.17.8,2.49-.05-0.2-.78h0Z" transform="translate(-1021.95 -140.71)"/>
    <polygon class="e" points="37.4 20.69 37.27 21.52 38.94 21.52 38.8 20.69 37.4 20.69"/>
    <path class="d" d="M1060.94,162.27h-1.72l0.1-.88,1.44,0,0.19,0.92h0Zm-0.23-.87-1.35,0-0.1.8,1.58,0-0.13-.78h0Z" transform="translate(-1021.95 -140.71)"/>
    <polygon class="e" points="27.21 20.69 26.76 21.52 32.16 21.52 31.71 20.69 27.21 20.69"/>
    <path class="d" d="M1054.19,162.27h-5.55l0.48-.9,4.54,0,0.52,0.92h0Zm-5.4-.09H1054l-0.42-.77-4.46,0-0.38.74h0Z" transform="translate(-1021.95 -140.71)"/>
    <rect class="e" x="18.41" y="17.1" width="22.1" height="0.83"/>
    <path class="d" d="M1062.5,158.69h-22.14l0-.87,22.14,0,0,0.92h0Zm-0.09-.87-22.05,0,0,0.79,22,0v-0.79h0Z" transform="translate(-1021.95 -140.71)"/>
    <rect class="e" x="35.75" y="17.16" width="4.33" height="3.52"/>
    <path class="d" d="M1062.07,161.43h-4.37l0-3.56,4.37,0,0,3.61h0Zm-0.09-3.56-4.29,0,0,3.48,4.24,0v-3.48h0Z" transform="translate(-1021.95 -140.71)"/>
    <rect class="e" x="38.85" y="18.81" width="0.43" height="1.87"/>
    <path class="d" d="M1061.27,161.43h-0.48l0-1.91,0.48,0,0,2h0Zm-0.09-1.91-0.39,0,0,1.83,0.35,0v-1.83h0Z" transform="translate(-1021.95 -140.71)"/>
    <rect class="e" x="36.94" y="18.81" width="0.43" height="1.87"/>
    <path class="d" d="M1059.37,161.43h-0.48l0-1.91,0.48,0,0,2h0Zm-0.09-1.91-0.39,0,0,1.83,0.35,0v-1.83h0Z" transform="translate(-1021.95 -140.71)"/>
    <polygon class="e" points="28.32 20.69 28.09 21.52 30.8 21.52 30.58 20.69 28.32 20.69"/>
    <path class="d" d="M1052.81,162.27H1050l0.18-.89,2.3,0,0.28,0.92h0Zm-0.32-.86-2.22,0-0.18.8,2.62-.05-0.21-.78h0Z" transform="translate(-1021.95 -140.71)"/>
    <polygon class="e" points="28.75 20.69 28.61 21.52 30.31 21.52 30.17 20.69 28.75 20.69"/>
    <path class="d" d="M1052.31,162.27h-1.75l0.1-.88,1.46,0,0.19,0.92h0Zm-0.24-.87-1.37,0-0.1.8,1.61,0-0.13-.78h0Z" transform="translate(-1021.95 -140.71)"/>
    <rect class="e" x="27.16" y="17.15" width="4.56" height="3.53"/>
    <path class="d" d="M1053.71,161.44h-4.61l0-3.58,4.61,0,0,3.62h0Zm-0.09-3.58-4.52,0,0,3.49,4.47,0v-3.49h0Z" transform="translate(-1021.95 -140.71)"/>
    <rect class="e" x="30.79" y="18.81" width="0.43" height="1.87"/>
    <path class="d" d="M1053.22,161.43h-0.48l0-1.91,0.48,0,0,2h0Zm-0.09-1.91-0.39,0,0,1.83,0.35,0v-1.83h0Z" transform="translate(-1021.95 -140.71)"/>
    <rect class="e" x="27.78" y="18.81" width="0.43" height="1.87"/>
    <path class="d" d="M1050.21,161.43h-0.48l0-1.91,0.48,0,0,2h0Zm-0.09-1.91-0.39,0,0,1.83,0.35,0v-1.83h0Z" transform="translate(-1021.95 -140.71)"/>
    <rect class="e" x="28.36" y="16.3" width="2.21" height="4.39"/>
    <path class="d" d="M1052.56,161.44h-2.25l0-4.43,2.25,0,0,4.47h0Zm-0.09-4.43-2.17,0,0,4.34,2.12,0V157h0Z" transform="translate(-1021.95 -140.71)"/>
    <rect class="e" x="30.01" y="18.81" width="0.43" height="1.87"/>
    <path class="d" d="M1052.44,161.43H1052l0-1.91,0.48,0,0,2h0Zm-0.09-1.91-0.39,0,0,1.83,0.35,0v-1.83h0Z" transform="translate(-1021.95 -140.71)"/>
    <rect class="e" x="28.56" y="18.81" width="0.43" height="1.87"/>
    <path class="d" d="M1051,161.43h-0.48l0-1.91,0.48,0,0,2h0Zm-0.09-1.91-0.39,0,0,1.83,0.35,0v-1.83h0Z" transform="translate(-1021.95 -140.71)"/>
    <polygon class="e" points="28.5 17 29.44 18.35 30.42 17 28.5 17"/>
    <path class="d" d="M1051.38,159.14l-1-1.47h2.09l-1.08,1.47h0Zm-0.85-1.38,0.85,1.23,0.9-1.23h-1.75Z" transform="translate(-1021.95 -140.71)"/>
    <rect class="e" x="37.47" y="17.15" width="1.23" height="4.36"/>
    <path class="d" d="M1060.69,162.27h-1.27l0-4.41,1.27,0,0,4.45h0Zm-0.09-4.41-1.18,0,0,4.32,1.14,0v-4.32h0Z" transform="translate(-1021.95 -140.71)"/>
    <rect class="e" x="37.67" y="17.15" width="0.82" height="4.36"/>
    <path class="d" d="M1060.48,162.27h-0.86l0-4.41,0.86,0,0,4.45h0Zm-0.09-4.41-0.77,0,0,4.32,0.73,0v-4.32h0Z" transform="translate(-1021.95 -140.71)"/>
    <polygon class="e" points="18.82 20.69 18.39 21.52 23.52 21.52 23.1 20.69 18.82 20.69"/>
    <path class="d" d="M1045.54,162.27h-5.28l0.46-.9,4.32,0,0.5,0.92h0Zm-5.14-.09h5l-0.39-.77-4.24,0-0.36.74h0Z" transform="translate(-1021.95 -140.71)"/>
    <polygon class="e" points="19.84 20.69 19.64 21.52 22.06 21.52 21.86 20.69 19.84 20.69"/>
    <path class="d" d="M1044.06,162.27h-2.47l0.16-.89,2.05,0,0.26,0.92h0Zm-0.3-.87-2,0-0.16.8,2.32-.05-0.19-.78h0Z" transform="translate(-1021.95 -140.71)"/>
    <polygon class="e" points="20.2 20.69 20.07 21.52 21.61 21.52 21.49 20.69 20.2 20.69"/>
    <path class="d" d="M1043.62,162.27H1042l0.09-.88,1.33,0,0.18,0.92h0Zm-0.22-.87-1.24,0-0.09.8,1.45,0-0.12-.78h0Z" transform="translate(-1021.95 -140.71)"/>
    <rect class="e" x="18.78" y="17.15" width="4.3" height="3.53"/>
    <path class="d" d="M1045.07,161.44h-4.34l0-3.58,4.34,0,0,3.62h0Zm-0.09-3.58-4.25,0,0,3.49,4.21,0v-3.49h0Z" transform="translate(-1021.95 -140.71)"/>
    <rect class="e" x="19.62" y="18.81" width="0.43" height="1.87"/>
    <path class="d" d="M1042,161.43h-0.48l0-1.91,0.48,0,0,2h0Zm-0.09-1.91-0.39,0,0,1.83,0.35,0v-1.83h0Z" transform="translate(-1021.95 -140.71)"/>
    <rect class="e" x="21.61" y="18.81" width="0.43" height="1.87"/>
    <path class="d" d="M1044,161.43h-0.48l0-1.91,0.48,0,0,2h0Zm-0.09-1.91-0.39,0,0,1.83,0.35,0v-1.83h0Z" transform="translate(-1021.95 -140.71)"/>
    <rect class="e" x="20.26" y="17.15" width="1.23" height="4.36"/>
    <path class="d" d="M1043.47,162.27h-1.27l0-4.41,1.27,0,0,4.45h0Zm-0.09-4.41-1.18,0,0,4.32,1.14,0v-4.32h0Z" transform="translate(-1021.95 -140.71)"/>
    <rect class="e" x="20.46" y="17.15" width="0.82" height="4.36"/>
    <path class="d" d="M1043.27,162.27h-0.86l0-4.41,0.86,0,0,4.45h0Zm-0.09-4.41-0.77,0,0,4.32,0.73,0v-4.32h0Z" transform="translate(-1021.95 -140.71)"/>
    <rect class="e" x="18.17" y="16.32" width="22.59" height="0.83"/>
    <path class="d" d="M1062.75,157.91h-22.63l0-.87,22.63,0,0,0.92h0Zm-0.09-.87-22.54,0,0,0.79,22.5,0V157h0Z" transform="translate(-1021.95 -140.71)"/>
    <rect class="e" x="17.54" y="21.31" width="23.75" height="1.07"/>
    <path class="d" d="M1063.29,163.13h-23.8l0-1.11,23.79,0,0,1.16h0ZM1063.2,162l-23.71,0,0,1,23.67,0v-1h0Z" transform="translate(-1021.95 -140.71)"/>
    <rect class="e" x="17.18" y="21.54" width="24.48" height="1.07"/>
    <path class="d" d="M1063.65,163.36h-24.52l0-1.11,24.52,0,0,1.16h0Zm-0.09-1.11-24.43,0,0,1,24.39,0v-1h0Z" transform="translate(-1021.95 -140.71)"/>
    <rect class="e" x="16.54" y="22.15" width="25.84" height="1.07"/>
    <path class="d" d="M1064.37,164h-25.88l0-1.11,25.88,0,0,1.16h0Zm-0.09-1.11-25.79,0,0,1,25.75,0v-1h0Z" transform="translate(-1021.95 -140.71)"/>
    <rect class="e" x="15.64" y="22.91" width="27.65" height="1.07"/>
    <path class="d" d="M1065.28,164.74h-27.69l0-1.11,27.69,0,0,1.16h0Zm-0.09-1.11-27.6,0,0,1,27.56,0v-1h0Z" transform="translate(-1021.95 -140.71)"/>
    <rect class="e" x="14.74" y="23.99" width="29.45" height="1.06"/>
    <path class="d" d="M1066.18,165.8h-29.49l0-1.1,29.49,0,0,1.14h0Zm-0.09-1.1-29.41,0,0,1,29.36,0v-1h0Z" transform="translate(-1021.95 -140.71)"/>
    <rect class="e" x="20.26" y="21.31" width="1.23" height="3.74"/>
    <path class="d" d="M1043.47,165.8h-1.27l0-3.78,1.27,0,0,3.83h0Zm-0.09-3.78-1.18,0,0,3.7,1.14,0V162h0Z" transform="translate(-1021.95 -140.71)"/>
    <rect class="e" x="20.46" y="21.31" width="0.82" height="3.74"/>
    <path class="d" d="M1043.27,165.8h-0.86l0-3.78,0.86,0,0,3.83h0Zm-0.09-3.78-0.78,0,0,3.7,0.73,0V162h0Z" transform="translate(-1021.95 -140.71)"/>
    <rect class="e" x="37.44" y="21.31" width="1.23" height="3.74"/>
    <path class="d" d="M1060.66,165.8h-1.27l0-3.78,1.27,0,0,3.83h0Zm-0.09-3.78-1.18,0,0,3.7,1.14,0V162h0Z" transform="translate(-1021.95 -140.71)"/>
    <rect class="e" x="37.65" y="21.31" width="0.82" height="3.74"/>
    <path class="d" d="M1060.46,165.8h-0.86l0-3.78,0.86,0,0,3.83h0Zm-0.09-3.78-0.78,0,0,3.7,0.73,0V162h0Z" transform="translate(-1021.95 -140.71)"/>
    <rect class="e" x="29.01" y="17.15" width="0.99" height="7.9"/>
    <path class="d" d="M1052,165.8h-1l0-7.94,1,0,0,8h0Zm-0.09-7.94-0.94,0,0,7.85,0.9,0v-7.86h0Z" transform="translate(-1021.95 -140.71)"/>
    <g class="b">
      <path class="e" d="M1058,157.9v-2.16s0.22,0.42,1.93.52,1.88-.32,2-0.54l-0.07,2.2H1058Z" transform="translate(-1021.95 -140.71)"/>
      <path class="d" d="M1061.86,158H1058l0-2.21v-0.16l0.08,0.14s0.25,0.41,1.89.49,1.85-.3,1.92-0.51h0.08l-0.07,2.24h0Zm-3.82-2.11v2.06l3.75,0,0.06-2c-0.18.2-.63,0.37-1.91,0.41a3.38,3.38,0,0,1-1.89-.45h0Z" transform="translate(-1021.95 -140.71)"/>
      <path class="e" d="M1059.08,155.36l-0.53-.42a0.63,0.63,0,0,1,.51.08,1,1,0,0,1,1.86,0,0.63,0.63,0,0,1,.51-0.08l-0.53.42h-1.81Z" transform="translate(-1021.95 -140.71)"/>
      <path class="d" d="M1060.91,155.41h-1.83l-0.55-.43a0.16,0.16,0,0,1,.16-0.11,0.92,0.92,0,0,1,.38.12,1.11,1.11,0,0,1,.91-0.69,1.38,1.38,0,0,1,1,.7,0.51,0.51,0,0,1,.49-0.08l-0.54.5h0Zm-2.22-.46a0.21,0.21,0,0,0-.11,0l0.53,0.35h1.77l0.46-.37h-0.06a0.86,0.86,0,0,0-.35.11,1.66,1.66,0,0,0-1-.69,1.28,1.28,0,0,0-.88.67c-0.07,0-.25-0.08-0.41-0.08h0Z" transform="translate(-1021.95 -140.71)"/>
      <path class="e" d="M1058.81,156.47l-0.69-.6a0.77,0.77,0,0,1,.65.11,1.24,1.24,0,0,1,2.43,0,0.77,0.77,0,0,1,.65-0.11l-0.69.6h-2.36Z" transform="translate(-1021.95 -140.71)"/>
      <path class="d" d="M1061.19,156.51h-2.37l-0.72-.61a0.21,0.21,0,0,1,.21-0.12,1.11,1.11,0,0,1,.5.16,1.5,1.5,0,0,1,1.18-1,1.81,1.81,0,0,1,1.26,1,0.65,0.65,0,0,1,.64-0.12l-0.7.67h0Zm-2.88-.64a0.28,0.28,0,0,0-.15,0l0.69,0.53h2.32l0.66-.57a0.25,0.25,0,0,1-.13,0,1.09,1.09,0,0,0-.45.15,2.1,2.1,0,0,0-1.25-1,1.71,1.71,0,0,0-1.16.94c-0.07,0-.31-0.13-0.52-0.13h0Z" transform="translate(-1021.95 -140.71)"/>
      <path class="e" d="M1060,152s0.82,1.43,0,1.46,0-1.41,0-1.46h0Z" transform="translate(-1021.95 -140.71)"/>
      <path class="d" d="M1060,153.54a0.36,0.36,0,0,1-.33-0.15,1.8,1.8,0,0,1,.27-1.27l0-.08H1060a0.06,0.06,0,0,1,0,0,2.08,2.08,0,0,1,.38,1,0.39,0.39,0,0,1-.41.45h0Zm0-1.41v0a1.82,1.82,0,0,0-.27,1.19,0.28,0.28,0,0,0,.26.11v0l0,0a0.3,0.3,0,0,0,.29-0.16,1.82,1.82,0,0,0-.29-1.16h0Z" transform="translate(-1021.95 -140.71)"/>
      <path class="e" d="M1059.31,153.86l-0.41-.22a0.67,0.67,0,0,1,.39,0,0.89,0.89,0,0,1,1.43,0,0.68,0.68,0,0,1,.39,0l-0.41.22h-1.39Z" transform="translate(-1021.95 -140.71)"/>
      <path class="d" d="M1060.71,153.91h-1.41l-0.51-.27,0.08,0a0.76,0.76,0,0,1,.41,0,0.85,0.85,0,0,1,.7-0.36,1.11,1.11,0,0,1,.76.37,0.49,0.49,0,0,1,.38,0l0.08,0-0.5.27h0Zm-1.68-.24,0.29,0.16h1.36l0.28-.15a1,1,0,0,0-.23.06,1.3,1.3,0,0,0-.74-0.36,0.94,0.94,0,0,0-.67.34,1.52,1.52,0,0,1-.29,0h0Z" transform="translate(-1021.95 -140.71)"/>
      <path class="e" d="M1059.65,154v-0.18a0.58,0.58,0,0,1,.37-0.36,0.59,0.59,0,0,1,.37.36V154h-0.72Z" transform="translate(-1021.95 -140.71)"/>
      <path class="d" d="M1060.4,154.09h-0.76l-0.05-.22a0.61,0.61,0,0,1,.4-0.41,0.62,0.62,0,0,1,.42.39v0.24h0Zm-0.41-.55a0.55,0.55,0,0,0-.31.33V154l0.63,0v-0.14h0a0.55,0.55,0,0,0-.34-0.32h0Z" transform="translate(-1021.95 -140.71)"/>
      <path class="e" d="M1059.29,154.59l0-.24a0.8,0.8,0,0,1,1.47,0l0,0.24h-1.43Z" transform="translate(-1021.95 -140.71)"/>
      <path class="d" d="M1060.76,154.63h-1.47l-0.06-.28a1,1,0,0,1,.77-0.53,1.05,1.05,0,0,1,.79.51l0,0.3h0Zm-0.77-.73a1,1,0,0,0-.69.46l0,0.22,1.35,0,0-.2h0a1,1,0,0,0-.7-0.44h0Z" transform="translate(-1021.95 -140.71)"/>
      <path class="e" d="M1059.29,155l0-.24a0.8,0.8,0,0,1,1.47,0l0,0.24h-1.43Z" transform="translate(-1021.95 -140.71)"/>
      <path class="d" d="M1060.76,155h-1.47l-0.06-.28a1,1,0,0,1,.77-0.53,1,1,0,0,1,.79.51l0,0.3h0Zm-0.77-.73a1,1,0,0,0-.69.46l0,0.22,1.35,0,0-.2h0a1,1,0,0,0-.7-0.44h0Z" transform="translate(-1021.95 -140.71)"/>
      <path class="e" d="M1059.31,156l-0.41-.6c0.13-.15.39,0.11,0.39,0.11a0.75,0.75,0,1,1,1.43,0s0.25-.26.39-0.11l-0.41.6h-1.39Z" transform="translate(-1021.95 -140.71)"/>
      <path class="d" d="M1060.72,156.09h-1.42l-0.44-.61c0.11-.26.3-0.07,0.4,0a0.76,0.76,0,1,1,1.48,0,0.31,0.31,0,0,1,.4-0.06l-0.42.67h0Zm-1.72-.64a0.09,0.09,0,0,0-.07,0l0.41,0.54,1.34,0,0.39-.57a0.08,0.08,0,0,1-.06,0,0.47,0.47,0,0,0-.25.15l-0.06.06,0-.08a1.46,1.46,0,0,0-.7-0.94,1.5,1.5,0,0,0-.65.94l0,0.08-0.06-.06a0.46,0.46,0,0,0-.25-0.15h0Z" transform="translate(-1021.95 -140.71)"/>
      <path class="e" d="M1059.31,156.77l-0.41-.59c0.13-.15.39,0.11,0.39,0.11a0.75,0.75,0,1,1,1.43,0s0.25-.26.39-0.11l-0.41.59h-1.39Z" transform="translate(-1021.95 -140.71)"/>
      <path class="d" d="M1060.72,156.82h-1.42l-0.44-.61c0.11-.26.3-0.08,0.4,0a0.76,0.76,0,1,1,1.48,0,0.31,0.31,0,0,1,.4-0.06l-0.42.67h0Zm-1.72-.64a0.1,0.1,0,0,0-.07,0l0.41,0.54,1.34,0,0.39-.57a0.08,0.08,0,0,1-.06,0,0.47,0.47,0,0,0-.25.14l-0.06.06,0-.08a1.46,1.46,0,0,0-.7-0.94,1.5,1.5,0,0,0-.65.94l0,0.08-0.06-.06a0.47,0.47,0,0,0-.25-0.14h0Z" transform="translate(-1021.95 -140.71)"/>
      <path class="e" d="M1059.29,157.86l0-.61a0.83,0.83,0,1,1,1.47,0l0,0.61h-1.43Z" transform="translate(-1021.95 -140.71)"/>
      <path class="d" d="M1060.76,157.91h-1.48l-0.06-.65A1.94,1.94,0,0,1,1060,156a1.89,1.89,0,0,1,.8,1.24l0,0.66h0Zm-0.78-1.82a2,2,0,0,0-.67,1.18l0,0.6,1.35,0,0-.57a1.89,1.89,0,0,0-.71-1.17h0Z" transform="translate(-1021.95 -140.71)"/>
      <path class="e" d="M1059.31,157.86l-0.41-.45a0.38,0.38,0,0,1,.39.08,0.72,0.72,0,1,1,1.43,0,0.39,0.39,0,0,1,.39-0.08l-0.41.45h-1.39Z" transform="translate(-1021.95 -140.71)"/>
      <path class="d" d="M1060.72,157.91h-1.41l-0.44-.46a0.14,0.14,0,0,1,.14-0.11,0.52,0.52,0,0,1,.26.09,0.74,0.74,0,0,1,1.48,0,0.39,0.39,0,0,1,.39,0l-0.42.52h0Zm-1.71-.48a0.12,0.12,0,0,0-.08,0l0.41,0.38h1.34l0.36-.4h0a0.52,0.52,0,0,0-.26.11l-0.05,0,0-.06a0.68,0.68,0,1,0-1.35,0l0,0.06-0.05,0a0.52,0.52,0,0,0-.25-0.11h0Z" transform="translate(-1021.95 -140.71)"/>
      <path class="e" d="M1041.92,155.21l-0.53-.42a0.63,0.63,0,0,1,.5.08,1,1,0,0,1,1.87,0,0.63,0.63,0,0,1,.5-0.08l-0.53.42h-1.81Z" transform="translate(-1021.95 -140.71)"/>
      <path class="d" d="M1043.75,155.25h-1.83l-0.56-.44a0.16,0.16,0,0,1,.16-0.11,0.91,0.91,0,0,1,.38.12,1.11,1.11,0,0,1,.91-0.69,1.38,1.38,0,0,1,1,.7,0.51,0.51,0,0,1,.49-0.08l-0.54.51h0Zm-2.22-.46a0.22,0.22,0,0,0-.12,0l0.53,0.36h1.77l0.47-.37h-0.06a0.85,0.85,0,0,0-.35.11,1.66,1.66,0,0,0-1-.69,1.27,1.27,0,0,0-.88.67c-0.07,0-.25-0.08-0.41-0.08h0Z" transform="translate(-1021.95 -140.71)"/>
      <path class="e" d="M1041.65,156.31l-0.69-.59a0.78,0.78,0,0,1,.66.11,1.24,1.24,0,0,1,2.42,0,0.78,0.78,0,0,1,.66-0.11l-0.69.59h-2.36Z" transform="translate(-1021.95 -140.71)"/>
      <path class="d" d="M1044,156.35h-2.37l-0.71-.61a0.21,0.21,0,0,1,.21-0.12,1.11,1.11,0,0,1,.5.16,1.5,1.5,0,0,1,1.18-1,1.8,1.8,0,0,1,1.26,1,0.66,0.66,0,0,1,.64-0.12l-0.7.67h0Zm-2.88-.64a0.27,0.27,0,0,0-.15,0l0.69,0.53H1044l0.66-.57a0.26,0.26,0,0,1-.13,0,1.06,1.06,0,0,0-.45.15,2.11,2.11,0,0,0-1.25-1,1.7,1.7,0,0,0-1.16.94c-0.06,0-.31-0.13-0.52-0.13h0Z" transform="translate(-1021.95 -140.71)"/>
      <path class="e" d="M1041,157.9v-2.16s0.22,0.42,1.93.52,1.89-.32,2-0.54l-0.07,2.2H1041Z" transform="translate(-1021.95 -140.71)"/>
      <path class="d" d="M1044.84,158H1041l0-2.21v-0.16l0.08,0.14s0.25,0.41,1.89.49,1.85-.3,1.92-0.51h0.09l-0.07,2.24h0Zm-3.82-2.11v2.06l3.75,0,0.06-2c-0.18.2-.63,0.37-1.91,0.41a3.36,3.36,0,0,1-1.89-.45h0Z" transform="translate(-1021.95 -140.71)"/>
      <path class="e" d="M1042.82,152s0.82,1.43,0,1.46,0-1.41,0-1.46h0Z" transform="translate(-1021.95 -140.71)"/>
      <path class="d" d="M1042.8,153.54a0.36,0.36,0,0,1-.33-0.15,1.8,1.8,0,0,1,.27-1.27l0-.08h0.09v0a2.09,2.09,0,0,1,.38,1,0.39,0.39,0,0,1-.41.45h0Zm0-1.41v0a1.81,1.81,0,0,0-.27,1.19,0.27,0.27,0,0,0,.26.11v0l0,0a0.29,0.29,0,0,0,.29-0.16,1.8,1.8,0,0,0-.29-1.16h0Z" transform="translate(-1021.95 -140.71)"/>
      <path class="e" d="M1042.12,153.86l-0.41-.22a0.67,0.67,0,0,1,.39,0,0.89,0.89,0,0,1,1.43,0,0.67,0.67,0,0,1,.39,0l-0.41.22h-1.39Z" transform="translate(-1021.95 -140.71)"/>
      <path class="d" d="M1043.53,153.91h-1.41l-0.51-.27,0.08,0a0.77,0.77,0,0,1,.41,0,0.85,0.85,0,0,1,.7-0.36,1.12,1.12,0,0,1,.76.37,0.48,0.48,0,0,1,.37,0l0.08,0-0.49.27h0Zm-1.68-.24,0.29,0.16h1.37l0.28-.15a0.9,0.9,0,0,0-.23.06,1.3,1.3,0,0,0-.74-0.36,1,1,0,0,0-.67.34,1.49,1.49,0,0,1-.29,0h0Z" transform="translate(-1021.95 -140.71)"/>
      <path class="e" d="M1042.46,154v-0.18a0.37,0.37,0,0,1,.73,0V154h-0.71Z" transform="translate(-1021.95 -140.71)"/>
      <path class="d" d="M1043.22,154.09h-0.76l-0.05-.22a0.62,0.62,0,0,1,.4-0.41,0.63,0.63,0,0,1,.42.39v0.24h0Zm-0.41-.55a0.54,0.54,0,0,0-.31.33V154l0.63,0v-0.14h0a0.55,0.55,0,0,0-.34-0.32h0Z" transform="translate(-1021.95 -140.71)"/>
      <path class="e" d="M1042.1,154.59l0-.24a0.8,0.8,0,0,1,1.47,0l0,0.24h-1.43Z" transform="translate(-1021.95 -140.71)"/>
      <path class="d" d="M1043.57,154.63h-1.47l-0.06-.28a1,1,0,0,1,.77-0.53,1.06,1.06,0,0,1,.79.51l0,0.3h0Zm-0.77-.73a1,1,0,0,0-.69.46l0,0.22,1.35,0,0-.2h0a1,1,0,0,0-.7-0.44h0Z" transform="translate(-1021.95 -140.71)"/>
      <path class="e" d="M1042.1,155l0-.24a0.8,0.8,0,0,1,1.47,0l0,0.24h-1.43Z" transform="translate(-1021.95 -140.71)"/>
      <path class="d" d="M1043.57,155h-1.47l-0.06-.28a1,1,0,0,1,.77-0.53,1.06,1.06,0,0,1,.79.51l0,0.3h0Zm-0.77-.73a1,1,0,0,0-.69.46l0,0.22,1.35,0,0-.2h0a1,1,0,0,0-.7-0.44h0Z" transform="translate(-1021.95 -140.71)"/>
      <path class="e" d="M1042.12,156l-0.41-.6c0.14-.15.39,0.11,0.39,0.11a0.75,0.75,0,1,1,1.43,0s0.25-.26.39-0.11l-0.41.6h-1.39Z" transform="translate(-1021.95 -140.71)"/>
      <path class="d" d="M1043.54,156.09h-1.42l-0.44-.61c0.11-.26.3-0.07,0.4,0a1.5,1.5,0,0,1,.72-0.93,1.48,1.48,0,0,1,.76.93,0.31,0.31,0,0,1,.39-0.06l-0.42.67h0Zm-1.72-.64a0.09,0.09,0,0,0-.07,0l0.41,0.54,1.34,0,0.39-.57a0.07,0.07,0,0,1-.06,0,0.46,0.46,0,0,0-.25.15l-0.06.06,0-.08a1.47,1.47,0,0,0-.7-0.94,1.5,1.5,0,0,0-.66.94l0,0.08-0.06-.06a0.47,0.47,0,0,0-.25-0.15h0Z" transform="translate(-1021.95 -140.71)"/>
      <path class="e" d="M1042.12,156.77l-0.41-.59c0.14-.15.39,0.11,0.39,0.11a0.75,0.75,0,1,1,1.43,0s0.25-.26.39-0.11l-0.41.59h-1.39Z" transform="translate(-1021.95 -140.71)"/>
      <path class="d" d="M1043.54,156.82h-1.42l-0.44-.61c0.11-.26.3-0.08,0.4,0a0.76,0.76,0,1,1,1.48,0,0.31,0.31,0,0,1,.39-0.06l-0.42.67h0Zm-1.72-.64a0.09,0.09,0,0,0-.07,0l0.41,0.54,1.34,0,0.39-.57a0.07,0.07,0,0,1-.06,0,0.46,0.46,0,0,0-.25.14l-0.06.06,0-.08a1.47,1.47,0,0,0-.7-0.94,1.51,1.51,0,0,0-.66.94l0,0.08-0.06-.06a0.47,0.47,0,0,0-.25-0.14h0Z" transform="translate(-1021.95 -140.71)"/>
      <path class="e" d="M1042.1,157.86l0-.61a0.83,0.83,0,1,1,1.47,0l0,0.61h-1.43Z" transform="translate(-1021.95 -140.71)"/>
      <path class="d" d="M1043.58,157.91h-1.48l-0.06-.65a1.94,1.94,0,0,1,.76-1.25,1.88,1.88,0,0,1,.8,1.24l0,0.66h0Zm-0.78-1.82a2,2,0,0,0-.67,1.18l0,0.6,1.35,0,0-.57a1.89,1.89,0,0,0-.71-1.17h0Z" transform="translate(-1021.95 -140.71)"/>
      <path class="e" d="M1042.12,157.86l-0.41-.45a0.39,0.39,0,0,1,.39.08,0.72,0.72,0,1,1,1.43,0,0.39,0.39,0,0,1,.39-0.08l-0.41.45h-1.39Z" transform="translate(-1021.95 -140.71)"/>
      <path class="d" d="M1043.54,157.91h-1.41l-0.44-.46a0.14,0.14,0,0,1,.14-0.11,0.52,0.52,0,0,1,.26.09,0.74,0.74,0,0,1,1.48,0,0.38,0.38,0,0,1,.39,0l-0.42.52h0Zm-1.72-.48a0.11,0.11,0,0,0-.08,0l0.41,0.38h1.34l0.36-.4h0a0.53,0.53,0,0,0-.26.11l-0.05,0,0-.06a0.68,0.68,0,1,0-1.35,0l0,0.06-0.05,0a0.53,0.53,0,0,0-.26-0.11h0Z" transform="translate(-1021.95 -140.71)"/>
      <path class="e" d="M1048.91,156.89h5a0.45,0.45,0,1,1,0,.89h-5a0.45,0.45,0,1,1,0-.89h0Z" transform="translate(-1021.95 -140.71)"/>
      <path class="d" d="M1053.91,157.83h-5a0.49,0.49,0,0,1,0-1h5a0.49,0.49,0,0,1,0,1h0Zm-5-.89a0.4,0.4,0,0,0,0,.81h5a0.4,0.4,0,1,0,0-.81h-5Z" transform="translate(-1021.95 -140.71)"/>
      <path class="e" d="M1054.44,157.41l0-2.95a0.88,0.88,0,0,1-.46.72h-5.23a0.88,0.88,0,0,1-.45-0.72l0,2.95h6.06Z" transform="translate(-1021.95 -140.71)"/>
      <path class="d" d="M1054.49,157.46h-6.11l-0.08-3h0.09a0.8,0.8,0,0,0,.41.69H1054a0.8,0.8,0,0,0,.41-0.69h0.09l0,3h0Zm-6.1-2.64,0,2.6,6,0,0-2.56a0.53,0.53,0,0,1-.41.42h-5.23a0.53,0.53,0,0,1-.41-0.42h0Z" transform="translate(-1021.95 -140.71)"/>
      <path class="e" d="M1053.28,156.08v-1s0.65-.18.56-0.43S1053,155,1053,155h-3.14s-0.79-.57-0.88-0.32,0.56,0.43.56,0.43v1h3.74Z" transform="translate(-1021.95 -140.71)"/>
      <path class="d" d="M1053.33,156.12h-3.79l-0.05-1a0.81,0.81,0,0,1-.55-0.29,0.19,0.19,0,0,1,0-.15,0.14,0.14,0,0,1,.15-0.09,2.22,2.22,0,0,1,.79.39H1053a2,2,0,0,1,.77-0.38,0.14,0.14,0,0,1,.15.09,0.18,0.18,0,0,1,0,.15,1.15,1.15,0,0,1-.58.33l0,0.92v0h0Zm-4.25-1.45a0.06,0.06,0,0,0-.07,0,0.1,0.1,0,0,0,0,.08,1,1,0,0,0,.53.29l0,1,3.66,0v-0.92a1.46,1.46,0,0,0,.56-0.33,0.11,0.11,0,0,0,0-.08,0.06,0.06,0,0,0-.07,0,2.08,2.08,0,0,0-.74.38h-3.17a2.3,2.3,0,0,0-.77-0.38h0Z" transform="translate(-1021.95 -140.71)"/>
      <path class="e" d="M1053.66,156.91v-1s0.78-.12.68-0.37-1.05.32-1.05,0.32h-3.77s-0.94-.57-1.05-0.32,0.67,0.37.67,0.37v1h4.49Z" transform="translate(-1021.95 -140.71)"/>
      <path class="d" d="M1053.7,157h-4.54l-0.06-1.06a0.94,0.94,0,0,1-.66-0.25,0.16,0.16,0,0,1,0-.14,0.17,0.17,0,0,1,.17-0.09,2.89,2.89,0,0,1,.94.39h3.75a2.67,2.67,0,0,1,.92-0.38,0.16,0.16,0,0,1,.17.09,0.15,0.15,0,0,1,0,.14,1.27,1.27,0,0,1-.7.29l0,1v0h0Zm-5.1-1.46c-0.07,0-.09,0-0.09,0a0.92,0.92,0,0,0,.64.31l0.05,1.06,4.41,0v-1a1.67,1.67,0,0,0,.68-0.29c0-.34-1,0.27-1,0.27h-3.79a3.14,3.14,0,0,0-.92-0.38h0Z" transform="translate(-1021.95 -140.71)"/>
      <path class="e" d="M1052,151.71v-0.41c-0.46,0-.35-0.44-0.35-0.61a0.42,0.42,0,0,0-.21-0.67,0.41,0.41,0,0,0-.21.66c0,0.19.15,0.62-.35,0.62v0.41h1.1Z" transform="translate(-1021.95 -140.71)"/>
      <path class="d" d="M1052,151.76h-1.14l0-.45a0.62,0.62,0,0,0,.31-0.13,0.49,0.49,0,0,0,.05-0.38,0.9,0.9,0,0,1,0-.11,0.37,0.37,0,0,1-.09-0.33,0.54,0.54,0,0,1,.31-0.37,0.49,0.49,0,0,1,.35.34,0.47,0.47,0,0,1-.09.4,0.18,0.18,0,0,1,0,.06,0.53,0.53,0,0,0,.07.39,0.32,0.32,0,0,0,.24.08l0,0.45v0h0Zm-0.61-1.69a0.51,0.51,0,0,0-.23.3,0.33,0.33,0,0,0,.08.28,1.14,1.14,0,0,1,0,.13,0.57,0.57,0,0,1-.07.45,0.43,0.43,0,0,1-.33.12l0,0.36,1,0v-0.37a0.23,0.23,0,0,1-.26-0.07,0.62,0.62,0,0,1-.09-0.46V150.7a0.44,0.44,0,0,0,.09-0.35,0.43,0.43,0,0,0-.27-0.28h0Z" transform="translate(-1021.95 -140.71)"/>
      <path class="e" d="M1052.74,154.36v-0.78s0.46-.16.4-0.36-0.62.26-.62,0.26h-2.22s-0.56-.47-0.62-0.26,0.4,0.36.4,0.36v0.78h2.65Z" transform="translate(-1021.95 -140.71)"/>
      <path class="d" d="M1052.78,154.4h-2.7l-0.05-.82s-0.47-.13-0.4-0.37a0.11,0.11,0,0,1,.12-0.08,1.45,1.45,0,0,1,.57.32h2.2a1.25,1.25,0,0,1,.54-0.31,0.12,0.12,0,0,1,.12.08c0.07,0.24-.37.4-0.43,0.42l0,0.74v0h0Zm-3-1.19c-0.08.16,0.23,0.29,0.34,0.33l0,0.82,2.57,0v-0.73a0.59,0.59,0,0,0,.4-0.35,1,1,0,0,0-.55.28h-2.25a1.61,1.61,0,0,0-.54-0.31h0Z" transform="translate(-1021.95 -140.71)"/>
      <path class="e" d="M1053,155V154.2s0.55-.1.48-0.3-0.74.26-.74,0.26h-2.67s-0.67-.47-0.74-0.26,0.48,0.3.48,0.3V155H1053Z" transform="translate(-1021.95 -140.71)"/>
      <path class="d" d="M1053,155.08h-3.23l-0.05-.88a0.59,0.59,0,0,1-.46-0.19,0.15,0.15,0,0,1,0-.13,0.13,0.13,0,0,1,.13-0.08,1.9,1.9,0,0,1,.68.32h2.64a1.7,1.7,0,0,1,.65-0.31,0.13,0.13,0,0,1,.13.08,0.15,0.15,0,0,1,0,.13,0.9,0.9,0,0,1-.5.23l0,0.79v0h0Zm-3.62-1.19,0,0.08a0.8,0.8,0,0,0,.44.19l0,0.88,3.1,0V154.2a1.26,1.26,0,0,0,.48-0.23l0-.08a1.78,1.78,0,0,0-.63.3h-2.7a2,2,0,0,0-.65-0.31h0Z" transform="translate(-1021.95 -140.71)"/>
      <path class="e" d="M1052.27,153.12v-0.51a0.37,0.37,0,0,0,.26-0.26c0-.14-0.4.18-0.4,0.18h-1.44s-0.36-.32-0.4-0.18,0.26,0.26.26,0.26v0.51h1.72Z" transform="translate(-1021.95 -140.71)"/>
      <path class="d" d="M1052.31,153.16h-1.76l0-.55a0.29,0.29,0,0,1-.26-0.28v0l0.08,0a0.89,0.89,0,0,1,.38.22h1.41a0.72,0.72,0,0,1,.35-0.21h0l0.06,0.07c0.05,0.17-.25.3-0.28,0.32l0,0.47v0h0Zm-2-.81a0.3,0.3,0,0,0,.22.22l0,0.55,1.63,0v-0.47a0.46,0.46,0,0,0,.26-0.25,1.28,1.28,0,0,0-.33.2h-1.47a1.07,1.07,0,0,0-.35-0.21h0Z" transform="translate(-1021.95 -140.71)"/>
      <path class="e" d="M1052.44,153.58v-0.51s0.36-.12.31-0.26-0.48.18-.48,0.18h-1.73s-0.43-.32-0.48-0.18,0.31,0.26.31,0.26v0.51h2.06Z" transform="translate(-1021.95 -140.71)"/>
      <path class="d" d="M1052.48,153.63h-2.1l0-.55a0.4,0.4,0,0,1-.3-0.18v-0.1a0.1,0.1,0,0,1,.1-0.06,1.17,1.17,0,0,1,.45.22h1.7a1,1,0,0,1,.42-0.21h0l0.07,0.06a0.13,0.13,0,0,1,0,.1,0.66,0.66,0,0,1-.33.22l0,0.47v0h0Zm-2.36-.81a0.38,0.38,0,0,0,.26.22l0,0.55,2,0v-0.47a1,1,0,0,0,.31-0.21,0.62,0.62,0,0,0-.41.16h-1.75a1.29,1.29,0,0,0-.42-0.21h0Z" transform="translate(-1021.95 -140.71)"/>
      <path class="e" d="M1052,152.22v-0.46a0.31,0.31,0,0,0,.18-0.23c0-.12-0.29.14-0.29,0.14h-1s-0.25-.26-0.28-0.14a0.31,0.31,0,0,0,.18.23v0.41Z" transform="translate(-1021.95 -140.71)"/>
      <path class="d" d="M1052.06,152.27l-1.26-.06,0-.45a0.24,0.24,0,0,1-.18-0.24v0l0.07,0a0.61,0.61,0,0,1,.28.19h1a0.46,0.46,0,0,1,.25-0.17h0l0,0.06a0.33,0.33,0,0,1-.21.28l0,0.43v0h0Zm-1.41-.72a0.3,0.3,0,0,0,.17.17l0,0.44H1052v-0.42a0.38,0.38,0,0,0,.19-0.22,0.79,0.79,0,0,0-.21.16h-1.05a0.89,0.89,0,0,0-.25-0.17h0Z" transform="translate(-1021.95 -140.71)"/>
      <path class="e" d="M1052.14,152.54v-0.41a0.33,0.33,0,0,0,.22-0.23c0-.11-0.34.14-0.34,0.14h-1.22s-0.3-.26-0.34-0.14a0.33,0.33,0,0,0,.22.23v0.41h1.46Z" transform="translate(-1021.95 -140.71)"/>
      <path class="d" d="M1052.18,152.59h-1.5l0-.45s-0.26-.1-0.22-0.24v0l0.07,0a0.77,0.77,0,0,1,.33.18h1.2a0.6,0.6,0,0,1,.3-0.17h0l0.05,0.06c0,0.14-.2.26-0.24,0.28l0,0.37v0h0Zm-1.68-.66a0.29,0.29,0,0,0,.2.17l0,0.44,1.37,0v-0.37a0.4,0.4,0,0,0,.22-0.21,0.8,0.8,0,0,0-.27.17h-1.25a1,1,0,0,0-.3-0.17h0Z" transform="translate(-1021.95 -140.71)"/>
      <path class="e" d="M1051,152.56l-0.22-.25a0.21,0.21,0,0,1,.21,0,0.4,0.4,0,1,1,.8,0,0.21,0.21,0,0,1,.21,0l-0.23.25H1051Z" transform="translate(-1021.95 -140.71)"/>
      <path class="d" d="M1051.82,152.61H1051l-0.32-.34,0.15,0a0.29,0.29,0,0,1,.13,0,0.71,0.71,0,0,1,.41-0.39,0.72,0.72,0,0,1,.44.39,0.28,0.28,0,0,1,.13,0l0.09,0-0.23.33h0Zm-1-.28,0.2,0.2h0.72l0.21-.24-0.15.11-0.05,0,0-.06a0.61,0.61,0,0,0-.37-0.39,0.63,0.63,0,0,0-.34.39l0,0.06-0.05,0a0.27,0.27,0,0,0-.13-0.06h0Z" transform="translate(-1021.95 -140.71)"/>
      <path class="e" d="M1050.87,153l-0.32-.25a0.37,0.37,0,0,1,.3,0,0.58,0.58,0,0,1,1.12,0,0.38,0.38,0,0,1,.3,0L1052,153h-1.08Z" transform="translate(-1021.95 -140.71)"/>
      <path class="d" d="M1052,153h-1.1l-0.34-.27a0.11,0.11,0,0,1,.11-0.1,0.55,0.55,0,0,1,.23.07,0.64,0.64,0,0,1,.54-0.41,0.87,0.87,0,0,1,.6.42,0.29,0.29,0,0,1,.29,0L1052,153h0Zm-1.32-.28,0.24,0.2h1l0.23-.19a0.54,0.54,0,0,0-.18.06,1.13,1.13,0,0,0-.59-0.41,0.73,0.73,0,0,0-.51.39,0.93,0.93,0,0,1-.24,0h0Z" transform="translate(-1021.95 -140.71)"/>
      <path class="e" d="M1050.79,153.71l-0.36-.34a0.38,0.38,0,0,1,.34.06,0.64,0.64,0,0,1,1.28,0,0.38,0.38,0,0,1,.35-0.06l-0.36.34h-1.24Z" transform="translate(-1021.95 -140.71)"/>
      <path class="d" d="M1052,153.75h-1.26l-0.39-.35a0.12,0.12,0,0,1,.12-0.1,0.55,0.55,0,0,1,.26.09,0.79,0.79,0,0,1,.61-0.55,1,1,0,0,1,.68.55,0.31,0.31,0,0,1,.34-0.06l-0.37.42h0Zm-1.53-.37-0.07,0,0.37,0.27H1052l0.3-.28a0.7,0.7,0,0,0-.24.08,1.37,1.37,0,0,0-.67-0.55,0.92,0.92,0,0,0-.58.53,2,2,0,0,1-.29-0.06h0Z" transform="translate(-1021.95 -140.71)"/>
      <path class="e" d="M1050.64,154.6l-0.45-.42a0.48,0.48,0,0,1,.43.08,0.8,0.8,0,0,1,1.59,0,0.47,0.47,0,0,1,.43-0.08l-0.45.42h-1.55Z" transform="translate(-1021.95 -140.71)"/>
      <path class="d" d="M1052.21,154.64h-1.57l-0.48-.44a0.15,0.15,0,0,1,.15-0.11,0.7,0.7,0,0,1,.33.12,1,1,0,0,1,.77-0.69,1.25,1.25,0,0,1,.84.7,0.39,0.39,0,0,1,.42-0.07l-0.46.5h0Zm-1.9-.46a0.16,0.16,0,0,0-.09,0l0.46,0.36h1.5l0.4-.37h0a0.63,0.63,0,0,0-.29.11,1.58,1.58,0,0,0-.83-0.69,1.16,1.16,0,0,0-.74.66c-0.07,0-.23-0.08-0.36-0.08h0Z" transform="translate(-1021.95 -140.71)"/>
      <polygon class="e" points="28.58 14.63 29.44 15.7 30.35 14.63 28.58 14.63"/>
      <path class="d" d="M1051.38,156.48l-1-1.18h2l-1,1.18h0Zm-0.77-1.1,0.77,1,0.82-1h-1.59Z" transform="translate(-1021.95 -140.71)"/>
      <path class="e" d="M1050.48,155.45l-0.54-.47a0.61,0.61,0,0,1,.52.09,1,1,0,0,1,1.91,0,0.61,0.61,0,0,1,.52-0.09l-0.54.47h-1.86Z" transform="translate(-1021.95 -140.71)"/>
      <path class="d" d="M1052.36,155.5h-1.88l-0.57-.48a0.17,0.17,0,0,1,.17-0.11,0.89,0.89,0,0,1,.39.13,1.16,1.16,0,0,1,.93-0.77,1.44,1.44,0,0,1,1,.78,0.49,0.49,0,0,1,.51-0.09l-0.55.55h0Zm-2.28-.51a0.2,0.2,0,0,0-.12,0l0.55,0.41h1.82l0.49-.43h-0.07a0.83,0.83,0,0,0-.35.12,1.76,1.76,0,0,0-1-.77,1.34,1.34,0,0,0-.9.74c-0.07,0-.26-0.1-0.42-0.1h0Z" transform="translate(-1021.95 -140.71)"/>
      <polygon class="e" points="28.5 15.81 29.44 17.15 30.42 15.81 28.5 15.81"/>
      <path class="d" d="M1051.38,157.94l-1-1.47h2.09l-1.08,1.47h0Zm-0.85-1.38,0.85,1.23,0.9-1.23h-1.75Z" transform="translate(-1021.95 -140.71)"/>
      <path class="e" d="M1050.4,156.67l-0.59-.6a0.58,0.58,0,0,1,.56.11,1,1,0,0,1,2.07,0,0.59,0.59,0,0,1,.56-0.11l-0.59.6h-2Z" transform="translate(-1021.95 -140.71)"/>
      <path class="d" d="M1052.44,156.71h-2l-0.62-.61A0.18,0.18,0,0,1,1050,156a0.81,0.81,0,0,1,.38.13,1.07,1.07,0,0,1,2.12,0A0.6,0.6,0,0,1,1053,156l-0.6.67h0Zm-2.47-.64a0.2,0.2,0,0,0-.12,0l0.59,0.53h2l0.56-.57a0.17,0.17,0,0,1-.11,0,0.81,0.81,0,0,0-.38.15l0,0,0-.06a1,1,0,0,0-2,0l0,0.06-0.05,0a0.81,0.81,0,0,0-.38-0.15h0Z" transform="translate(-1021.95 -140.71)"/>
      <path class="e" d="M1050.4,157.86l-0.59-.59a0.58,0.58,0,0,1,.56.11,1,1,0,0,1,2.07,0,0.59,0.59,0,0,1,.56-0.11l-0.59.59h-2Z" transform="translate(-1021.95 -140.71)"/>
      <path class="d" d="M1052.44,157.91h-2l-0.62-.61a0.18,0.18,0,0,1,.18-0.12,0.8,0.8,0,0,1,.38.13,1.07,1.07,0,0,1,2.12,0,0.6,0.6,0,0,1,.56-0.08l-0.6.67h0Zm-2.47-.64a0.2,0.2,0,0,0-.12,0l0.59,0.53h2l0.56-.57a0.17,0.17,0,0,1-.11,0,0.82,0.82,0,0,0-.38.15l0,0,0-.06a1,1,0,0,0-2,0l0,0.06-0.05,0a0.82,0.82,0,0,0-.38-0.15h0Z" transform="translate(-1021.95 -140.71)"/>
      <rect class="e" x="23.46" y="18.81" width="0.43" height="1.87"/>
      <path class="d" d="M1045.88,161.43h-0.48l0-1.91,0.48,0,0,2h0Zm-0.09-1.91-0.39,0,0,1.83,0.35,0v-1.83h0Z" transform="translate(-1021.95 -140.71)"/>
      <rect class="e" x="24.93" y="18.81" width="0.43" height="1.87"/>
      <path class="d" d="M1047.35,161.43h-0.48l0-1.91,0.48,0,0,2h0Zm-0.09-1.91-0.39,0,0,1.83,0.35,0v-1.83h0Z" transform="translate(-1021.95 -140.71)"/>
      <rect class="e" x="24.23" y="18.81" width="0.43" height="1.87"/>
      <path class="d" d="M1046.66,161.43h-0.48l0-1.91,0.48,0,0,2h0Zm-0.09-1.91-0.39,0,0,1.83,0.35,0v-1.83h0Z" transform="translate(-1021.95 -140.71)"/>
      <rect class="e" x="32.1" y="18.81" width="0.43" height="1.87"/>
      <path class="d" d="M1054.53,161.43h-0.48l0-1.91,0.48,0,0,2h0Zm-0.09-1.91-0.39,0,0,1.83,0.35,0v-1.83h0Z" transform="translate(-1021.95 -140.71)"/>
      <rect class="e" x="35.05" y="18.81" width="0.43" height="1.87"/>
      <path class="d" d="M1057.47,161.43H1057l0-1.91,0.48,0,0,2h0Zm-0.09-1.91-0.39,0,0,1.83,0.35,0v-1.83h0Z" transform="translate(-1021.95 -140.71)"/>
      <rect class="e" x="33.57" y="18.81" width="0.43" height="1.87"/>
      <path class="d" d="M1056,161.43h-0.48l0-1.91,0.48,0,0,2h0Zm-0.09-1.91-0.39,0,0,1.83,0.35,0v-1.83h0Z" transform="translate(-1021.95 -140.71)"/>
      <rect class="e" x="32.88" y="18.81" width="0.43" height="1.87"/>
      <path class="d" d="M1055.31,161.43h-0.48l0-1.91,0.48,0,0,2h0Zm-0.09-1.91-0.39,0,0,1.83,0.35,0v-1.83h0Z" transform="translate(-1021.95 -140.71)"/>
      <rect class="e" x="34.27" y="18.81" width="0.43" height="1.87"/>
      <path class="d" d="M1056.69,161.43h-0.48l0-1.91,0.48,0,0,2h0Zm-0.09-1.91-0.39,0,0,1.83,0.35,0v-1.83h0Z" transform="translate(-1021.95 -140.71)"/>
      <rect class="e" x="26.4" y="18.81" width="0.43" height="1.87"/>
      <path class="d" d="M1048.82,161.43h-0.48l0-1.91,0.48,0,0,2h0Zm-0.09-1.91-0.39,0,0,1.83,0.35,0v-1.83h0Z" transform="translate(-1021.95 -140.71)"/>
      <rect class="e" x="25.62" y="18.81" width="0.43" height="1.87"/>
      <path class="d" d="M1048,161.43h-0.48l0-1.91,0.48,0,0,2h0Zm-0.09-1.91-0.39,0,0,1.83,0.35,0v-1.83h0Z" transform="translate(-1021.95 -140.71)"/>
      <rect class="e" x="29.01" y="10.27" width="0.9" height="0.34"/>
      <path class="d" d="M1051.9,151.36H1051l0-.38,0.94,0,0,0.43h0Zm-0.09-.38-0.86,0,0,0.3,0.81,0V151h0Z" transform="translate(-1021.95 -140.71)"/>
      <rect class="e" x="29.13" y="9.94" width="0.66" height="0.33"/>
      <path class="d" d="M1051.78,151h-0.71l0-.37,0.71,0,0,0.41h0Zm-0.09-.37-0.62,0,0,0.28,0.58,0v-0.29h0Z" transform="translate(-1021.95 -140.71)"/>
    </g>
  </g>
</svg>
