<svg xmlns="http://www.w3.org/2000/svg" xmlns:xlink="http://www.w3.org/1999/xlink" viewBox="0 0 58.92 34.37">
  <defs>
    <style>
      .a {
        fill: none;
      }

      .b {
        clip-path: url(#a);
      }

      .c {
        fill: #4eaec4;
      }

      .d {
        fill: #f5c832;
      }
    </style>
    <clipPath id="a" transform="translate(-1021.71 -545.23)">
      <rect class="a" x="1021.71" y="545.23" width="58.92" height="34.37"/>
    </clipPath>
  </defs>
  <title>Kazakhstan</title>
  <g class="b">
    <rect class="c" width="58.92" height="34.37"/>
    <g class="b">
      <path class="d" d="M1025.58,569.47a1.08,1.08,0,0,1,1.11-1,0.89,0.89,0,0,1,1,.9,1.52,1.52,0,0,1-.19.75l-1.5,3.11a0.91,0.91,0,0,0-.07.41,0.55,0.55,0,0,0,1.1,0,0.41,0.41,0,0,0-.36-0.49c-0.23,0-.32.09-0.32,0.25a0.13,0.13,0,0,0,.13.16c0.19,0,.14-0.26.14-0.26a0.18,0.18,0,0,1,.13.24,0.35,0.35,0,0,1,.19.11,0.36,0.36,0,0,1-.19.1,0.17,0.17,0,0,1-.15.25,0.26,0.26,0,0,0,0-.16,0.39,0.39,0,0,1-.52-0.39,0.56,0.56,0,0,1,.7-0.57,0.33,0.33,0,0,1-.18-0.28,0.61,0.61,0,0,0,.18,0,0.58,0.58,0,0,1-.12-0.36,0.32,0.32,0,0,0,.27.07,0.66,0.66,0,0,1,.57-0.91,1.1,1.1,0,0,0-.29.72c0,0.8.22,0.93,0.22,1.48a0.82,0.82,0,0,1-.36.65h0a0.48,0.48,0,0,1,.31.22,2.16,2.16,0,0,1-1.16,0,0.85,0.85,0,0,1-.61-0.41,1.23,1.23,0,0,1,0-1l1.53-3.23a1.05,1.05,0,0,0,.11-0.45,0.57,0.57,0,0,0-.59-0.55,0.5,0.5,0,0,0-.51.43,0.21,0.21,0,0,0,.2.25c0.29,0,.27-0.24.21-0.4a0.36,0.36,0,0,1,.25.37,0.46,0.46,0,0,1,.29.16,0.37,0.37,0,0,1-.29.16,0.31,0.31,0,0,1-.25.39c0-.17.08-0.37-0.21-0.37a0.54,0.54,0,0,1-.48-0.18l0,0.92c0,0.28.37,0.27,0.61,0.19a0.57,0.57,0,0,1-.71.44,0.34,0.34,0,0,1,.22.33,0.88,0.88,0,0,1-.35.63Z" transform="translate(-1021.71 -545.23)"/>
      <path class="d" d="M1025.71,569.47a1.08,1.08,0,0,0-1.11-1,0.89,0.89,0,0,0-1,.9,1.51,1.51,0,0,0,.19.75l1.5,3.11a0.91,0.91,0,0,1,.07.41,0.55,0.55,0,0,1-1.1,0,0.41,0.41,0,0,1,.36-0.49c0.23,0,.32.09,0.32,0.25a0.13,0.13,0,0,1-.13.16c-0.19,0-.14-0.26-0.14-0.26a0.18,0.18,0,0,0-.13.24,0.35,0.35,0,0,0-.19.11,0.36,0.36,0,0,0,.19.1,0.17,0.17,0,0,0,.15.25,0.27,0.27,0,0,1,0-.16,0.39,0.39,0,0,0,.52-0.39,0.56,0.56,0,0,0-.7-0.57,0.33,0.33,0,0,0,.18-0.28,0.61,0.61,0,0,1-.18,0,0.58,0.58,0,0,0,.13-0.36,0.32,0.32,0,0,1-.27.07,0.66,0.66,0,0,0-.57-0.91,1.11,1.11,0,0,1,.29.72c0,0.8-.22.93-0.22,1.48a0.82,0.82,0,0,0,.36.65h0a0.48,0.48,0,0,0-.31.22,2.16,2.16,0,0,0,1.16,0,0.85,0.85,0,0,0,.61-0.41,1.23,1.23,0,0,0,0-1l-1.53-3.23a1.05,1.05,0,0,1-.11-0.45,0.57,0.57,0,0,1,.59-0.55,0.5,0.5,0,0,1,.51.43,0.21,0.21,0,0,1-.21.25c-0.29,0-.27-0.24-0.21-0.4a0.36,0.36,0,0,0-.25.37,0.46,0.46,0,0,0-.29.16,0.37,0.37,0,0,0,.29.16,0.31,0.31,0,0,0,.25.39c0-.17-0.08-0.37.21-0.37a0.54,0.54,0,0,0,.48-0.18c0,0.19,0,.92,0,0.92,0,0.28-.37.27-0.61,0.19a0.57,0.57,0,0,0,.71.44,0.34,0.34,0,0,0-.22.33,0.87,0.87,0,0,0,.35.63Z" transform="translate(-1021.71 -545.23)"/>
      <path class="d" d="M1025.65,576.9s0.33,0.27.44,0.14-0.55-1.32-.55-1.71a0.9,0.9,0,0,1,1-.9,3.67,3.67,0,0,1,.93,0,0.4,0.4,0,0,1-.36.2,0.76,0.76,0,0,1,.41.69c0,0.55-.23.77-0.23,1.39a1.82,1.82,0,0,0,.28.78,0.67,0.67,0,0,1-.6-0.88,0.25,0.25,0,0,0-.21.06,0.36,0.36,0,0,1,.1-0.32,0.27,0.27,0,0,0-.21,0,0.45,0.45,0,0,1,.23-0.32,0.54,0.54,0,0,1-.72-0.52,0.39,0.39,0,0,1,.34-0.42,0.36,0.36,0,0,1,.18.06,0.28,0.28,0,0,0,0-.22,0.18,0.18,0,0,1,.15.26,0.31,0.31,0,0,1,.22.1,0.26,0.26,0,0,1-.22.1,0.2,0.2,0,0,1-.12.29s0.07-.29-0.11-0.29a0.13,0.13,0,0,0-.16.15,0.26,0.26,0,0,0,.31.24,0.41,0.41,0,0,0,.38-0.48,0.51,0.51,0,0,0-.59-0.48,0.46,0.46,0,0,0-.53.46c0,0.41.59,1.35,0.59,1.71a0.45,0.45,0,0,1-.49.43,0.91,0.91,0,0,1-.58-0.31Z" transform="translate(-1021.71 -545.23)"/>
      <path class="d" d="M1025.65,576.9s-0.33.27-.44,0.14,0.55-1.32.55-1.71a0.9,0.9,0,0,0-1-.9,3.67,3.67,0,0,0-.93,0,0.4,0.4,0,0,0,.36.2,0.76,0.76,0,0,0-.41.69c0,0.55.23,0.77,0.23,1.39a1.82,1.82,0,0,1-.28.78,0.67,0.67,0,0,0,.6-0.88,0.25,0.25,0,0,1,.21.06,0.36,0.36,0,0,0-.1-0.32,0.27,0.27,0,0,1,.21,0,0.45,0.45,0,0,0-.23-0.32,0.54,0.54,0,0,0,.72-0.52,0.39,0.39,0,0,0-.34-0.42,0.35,0.35,0,0,0-.18.06,0.27,0.27,0,0,1,0-.22,0.18,0.18,0,0,0-.15.26,0.31,0.31,0,0,0-.22.1,0.26,0.26,0,0,0,.22.1,0.2,0.2,0,0,0,.12.29s-0.07-.29.11-0.29a0.13,0.13,0,0,1,.16.15,0.26,0.26,0,0,1-.31.24,0.41,0.41,0,0,1-.38-0.48,0.51,0.51,0,0,1,.58-0.48,0.46,0.46,0,0,1,.53.46c0,0.41-.59,1.35-0.59,1.71a0.45,0.45,0,0,0,.49.43,0.91,0.91,0,0,0,.58-0.31Z" transform="translate(-1021.71 -545.23)"/>
      <path class="d" d="M1025.58,557.43a1.08,1.08,0,0,1,1.11-1,0.89,0.89,0,0,1,1,.9,1.53,1.53,0,0,1-.19.75l-1.5,3.11a0.91,0.91,0,0,0-.07.41,0.55,0.55,0,0,0,1.1,0,0.41,0.41,0,0,0-.36-0.49c-0.23,0-.32.09-0.32,0.25a0.13,0.13,0,0,0,.13.16c0.19,0,.14-0.26.14-0.26a0.18,0.18,0,0,1,.13.24,0.34,0.34,0,0,1,.19.11,0.36,0.36,0,0,1-.19.1,0.17,0.17,0,0,1-.15.25,0.26,0.26,0,0,0,0-.16,0.39,0.39,0,0,1-.52-0.39,0.56,0.56,0,0,1,.7-0.57,0.32,0.32,0,0,1-.18-0.28,0.65,0.65,0,0,0,.18,0,0.58,0.58,0,0,1-.12-0.36,0.32,0.32,0,0,0,.27.06,0.66,0.66,0,0,1,.57-0.91,1.1,1.1,0,0,0-.29.72c0,0.8.22,0.93,0.22,1.48a0.82,0.82,0,0,1-.36.65h0a0.47,0.47,0,0,1,.31.22,2.14,2.14,0,0,1-1.16,0,0.85,0.85,0,0,1-.61-0.41,1.23,1.23,0,0,1,0-1l1.53-3.23a1.05,1.05,0,0,0,.11-0.45,0.57,0.57,0,0,0-.59-0.55,0.5,0.5,0,0,0-.51.44,0.21,0.21,0,0,0,.2.24c0.29,0,.27-0.24.21-0.4a0.36,0.36,0,0,1,.25.38,0.46,0.46,0,0,1,.29.16,0.37,0.37,0,0,1-.29.16,0.31,0.31,0,0,1-.25.39c0-.17.08-0.37-0.21-0.37a0.54,0.54,0,0,1-.48-0.18l0,0.92c0,0.28.37,0.27,0.61,0.19a0.57,0.57,0,0,1-.71.44,0.34,0.34,0,0,1,.22.33,0.88,0.88,0,0,1-.35.63Z" transform="translate(-1021.71 -545.23)"/>
      <path class="d" d="M1025.71,557.43a1.08,1.08,0,0,0-1.11-1,0.89,0.89,0,0,0-1,.9,1.52,1.52,0,0,0,.19.75l1.5,3.11a0.91,0.91,0,0,1,.07.41,0.55,0.55,0,0,1-1.1,0,0.41,0.41,0,0,1,.36-0.49c0.23,0,.32.09,0.32,0.25a0.13,0.13,0,0,1-.13.16c-0.19,0-.14-0.26-0.14-0.26a0.18,0.18,0,0,0-.13.24,0.34,0.34,0,0,0-.19.11,0.36,0.36,0,0,0,.19.1,0.17,0.17,0,0,0,.15.25,0.27,0.27,0,0,1,0-.16,0.39,0.39,0,0,0,.52-0.39,0.56,0.56,0,0,0-.7-0.57,0.32,0.32,0,0,0,.18-0.28,0.65,0.65,0,0,1-.18,0,0.59,0.59,0,0,0,.13-0.36,0.32,0.32,0,0,1-.27.06,0.66,0.66,0,0,0-.57-0.91,1.11,1.11,0,0,1,.29.72c0,0.8-.22.93-0.22,1.48a0.82,0.82,0,0,0,.36.65h0a0.47,0.47,0,0,0-.31.22,2.14,2.14,0,0,0,1.16,0,0.85,0.85,0,0,0,.61-0.41,1.23,1.23,0,0,0,0-1l-1.53-3.23a1.05,1.05,0,0,1-.11-0.45,0.57,0.57,0,0,1,.59-0.55,0.5,0.5,0,0,1,.51.44,0.21,0.21,0,0,1-.21.24c-0.29,0-.27-0.24-0.21-0.4a0.36,0.36,0,0,0-.25.38,0.46,0.46,0,0,0-.29.16,0.37,0.37,0,0,0,.29.16,0.31,0.31,0,0,0,.25.39c0-.17-0.08-0.37.21-0.37a0.54,0.54,0,0,0,.48-0.18c0,0.19,0,.92,0,0.92,0,0.28-.37.27-0.61,0.19a0.57,0.57,0,0,0,.71.44,0.34,0.34,0,0,0-.22.33,0.87,0.87,0,0,0,.35.63Z" transform="translate(-1021.71 -545.23)"/>
      <path class="d" d="M1025.71,555.37a1.08,1.08,0,0,1-1.11,1,0.89,0.89,0,0,1-1-.9,1.51,1.51,0,0,1,.19-0.75l1.5-3.11a0.9,0.9,0,0,0,.07-0.41,0.55,0.55,0,0,0-1.1,0,0.41,0.41,0,0,0,.36.49c0.23,0,.32-0.09.32-0.25a0.13,0.13,0,0,0-.13-0.16c-0.19,0-.14.26-0.14,0.26a0.18,0.18,0,0,1-.13-0.24,0.34,0.34,0,0,1-.19-0.11,0.33,0.33,0,0,1,.19-0.1,0.18,0.18,0,0,1,.15-0.25,0.27,0.27,0,0,0,0,.16,0.39,0.39,0,0,1,.52.39,0.56,0.56,0,0,1-.7.57,0.33,0.33,0,0,1,.18.28,0.61,0.61,0,0,0-.18,0,0.58,0.58,0,0,1,.13.36,0.32,0.32,0,0,0-.27-0.07,0.67,0.67,0,0,1-.57.91,1.11,1.11,0,0,0,.29-0.72c0-.8-0.22-0.93-0.22-1.48a0.82,0.82,0,0,1,.36-0.65h0a0.48,0.48,0,0,1-.31-0.22,2.15,2.15,0,0,1,1.16,0,0.86,0.86,0,0,1,.61.41,1.23,1.23,0,0,1,0,1l-1.53,3.23a1,1,0,0,0-.11.45,0.57,0.57,0,0,0,.59.55,0.5,0.5,0,0,0,.51-0.43,0.21,0.21,0,0,0-.21-0.25c-0.29,0-.27.24-0.21,0.4a0.36,0.36,0,0,1-.25-0.37,0.46,0.46,0,0,1-.29-0.16,0.36,0.36,0,0,1,.29-0.16,0.31,0.31,0,0,1,.25-0.39c0,0.17-.08.37,0.21,0.37a0.54,0.54,0,0,1,.48.18c0-.18,0-0.92,0-0.92,0-.27-0.37-0.27-0.61-0.18a0.57,0.57,0,0,1,.71-0.45,0.34,0.34,0,0,1-.22-0.33,0.87,0.87,0,0,1,.35-0.62Z" transform="translate(-1021.71 -545.23)"/>
      <path class="d" d="M1025.58,555.37a1.08,1.08,0,0,0,1.11,1,0.89,0.89,0,0,0,1-.9,1.52,1.52,0,0,0-.19-0.75l-1.5-3.11a0.9,0.9,0,0,1-.07-0.41,0.55,0.55,0,0,1,1.1,0,0.41,0.41,0,0,1-.36.49c-0.23,0-.32-0.09-0.32-0.25a0.13,0.13,0,0,1,.13-0.16c0.19,0,.14.26,0.14,0.26a0.18,0.18,0,0,0,.13-0.24,0.35,0.35,0,0,0,.19-0.11,0.34,0.34,0,0,0-.19-0.1,0.17,0.17,0,0,0-.15-0.25,0.26,0.26,0,0,1,0,.16,0.39,0.39,0,0,0-.52.39,0.56,0.56,0,0,0,.7.57,0.33,0.33,0,0,0-.18.28,0.61,0.61,0,0,1,.18,0,0.58,0.58,0,0,0-.12.36,0.32,0.32,0,0,1,.27-0.07,0.66,0.66,0,0,0,.57.91,1.11,1.11,0,0,1-.29-0.72c0-.8.22-0.93,0.22-1.48a0.82,0.82,0,0,0-.36-0.65h0a0.48,0.48,0,0,0,.31-0.22,2.15,2.15,0,0,0-1.16,0,0.86,0.86,0,0,0-.61.41,1.23,1.23,0,0,0,0,1c0.21,0.45,1.21,2.56,1.53,3.23a1,1,0,0,1,.11.45,0.57,0.57,0,0,1-.59.55,0.5,0.5,0,0,1-.51-0.43,0.21,0.21,0,0,1,.2-0.25c0.29,0,.27.24,0.21,0.4a0.36,0.36,0,0,0,.25-0.37,0.46,0.46,0,0,0,.29-0.16,0.36,0.36,0,0,0-.29-0.16,0.31,0.31,0,0,0-.25-0.39c0,0.17.08,0.37-.21,0.37a0.54,0.54,0,0,0-.48.18l0-.92c0-.27.37-0.27,0.61-0.18a0.57,0.57,0,0,0-.71-0.45,0.34,0.34,0,0,0,.22-0.33,0.87,0.87,0,0,0-.35-0.62Z" transform="translate(-1021.71 -545.23)"/>
      <path class="d" d="M1025.71,567.41a1.08,1.08,0,0,1-1.11,1,0.89,0.89,0,0,1-1-.9,1.52,1.52,0,0,1,.19-0.75l1.5-3.11a0.9,0.9,0,0,0,.07-0.41,0.55,0.55,0,0,0-1.1,0,0.41,0.41,0,0,0,.36.5,0.25,0.25,0,0,0,.32-0.25,0.13,0.13,0,0,0-.13-0.16c-0.19,0-.14.26-0.14,0.26a0.18,0.18,0,0,1-.13-0.24,0.12,0.12,0,1,1,0-.21,0.17,0.17,0,0,1,.15-0.25,0.26,0.26,0,0,0,0,.16,0.39,0.39,0,0,1,.52.39,0.56,0.56,0,0,1-.7.57,0.32,0.32,0,0,1,.18.28,0.61,0.61,0,0,0-.18,0,0.58,0.58,0,0,1,.13.36,0.31,0.31,0,0,0-.27-0.06,0.66,0.66,0,0,1-.57.91,1.11,1.11,0,0,0,.29-0.72c0-.8-0.22-0.93-0.22-1.48a0.82,0.82,0,0,1,.36-0.65h0a0.48,0.48,0,0,1-.31-0.22,2.15,2.15,0,0,1,1.16,0,0.86,0.86,0,0,1,.61.41,1.23,1.23,0,0,1,0,1l-1.53,3.23a1.06,1.06,0,0,0-.11.46,0.56,0.56,0,0,0,.59.55,0.5,0.5,0,0,0,.51-0.43,0.21,0.21,0,0,0-.21-0.25c-0.29,0-.27.24-0.21,0.4a0.36,0.36,0,0,1-.25-0.37,0.46,0.46,0,0,1-.29-0.16,0.36,0.36,0,0,1,.29-0.16,0.31,0.31,0,0,1,.25-0.39c0,0.17-.08.37,0.21,0.37a0.54,0.54,0,0,1,.48.18c0-.19,0-0.92,0-0.92,0-.27-0.37-0.27-0.61-0.19a0.57,0.57,0,0,1,.71-0.44,0.34,0.34,0,0,1-.22-0.33,0.88,0.88,0,0,1,.35-0.63Z" transform="translate(-1021.71 -545.23)"/>
      <path class="d" d="M1025.58,567.41a1.08,1.08,0,0,0,1.11,1,0.89,0.89,0,0,0,1-.9,1.53,1.53,0,0,0-.19-0.75l-1.5-3.11a0.9,0.9,0,0,1-.07-0.41,0.55,0.55,0,0,1,1.1,0,0.41,0.41,0,0,1-.36.5,0.25,0.25,0,0,1-.32-0.25,0.13,0.13,0,0,1,.13-0.16c0.19,0,.14.26,0.14,0.26a0.18,0.18,0,0,0,.13-0.24,0.12,0.12,0,1,0,0-.21,0.17,0.17,0,0,0-.15-0.25,0.25,0.25,0,0,1,0,.16,0.39,0.39,0,0,0-.52.39,0.56,0.56,0,0,0,.7.57,0.32,0.32,0,0,0-.18.28,0.61,0.61,0,0,1,.18,0,0.58,0.58,0,0,0-.12.36,0.31,0.31,0,0,1,.27-0.06,0.66,0.66,0,0,0,.57.91,1.11,1.11,0,0,1-.29-0.72c0-.8.22-0.93,0.22-1.48a0.82,0.82,0,0,0-.36-0.65h0a0.48,0.48,0,0,0,.31-0.22,2.15,2.15,0,0,0-1.16,0,0.86,0.86,0,0,0-.61.41,1.23,1.23,0,0,0,0,1l1.53,3.23a1.06,1.06,0,0,1,.11.46,0.56,0.56,0,0,1-.59.55,0.5,0.5,0,0,1-.51-0.43,0.21,0.21,0,0,1,.2-0.25c0.29,0,.27.24,0.21,0.4a0.36,0.36,0,0,0,.25-0.37,0.46,0.46,0,0,0,.29-0.16,0.36,0.36,0,0,0-.29-0.16,0.31,0.31,0,0,0-.25-0.39c0,0.17.08,0.37-.21,0.37a0.54,0.54,0,0,0-.48.18l0-.92c0-.27.37-0.27,0.61-0.19a0.57,0.57,0,0,0-.71-0.44,0.34,0.34,0,0,0,.22-0.33,0.88,0.88,0,0,0-.35-0.63Z" transform="translate(-1021.71 -545.23)"/>
      <path class="d" d="M1025.65,547.94s0.33-.28.44-0.14-0.55,1.32-.55,1.71a0.89,0.89,0,0,0,1,.9,3.7,3.7,0,0,0,.93,0,0.39,0.39,0,0,0-.36-0.2,0.76,0.76,0,0,0,.41-0.69c0-.55-0.23-0.77-0.23-1.39a1.82,1.82,0,0,1,.28-0.78,0.67,0.67,0,0,0-.6.88,0.24,0.24,0,0,1-.21-0.06,0.36,0.36,0,0,0,.1.32,0.28,0.28,0,0,1-.21,0,0.45,0.45,0,0,0,.23.32,0.54,0.54,0,0,0-.72.52,0.39,0.39,0,0,0,.34.42,0.36,0.36,0,0,0,.18-0.06,0.28,0.28,0,0,1,0,.23,0.18,0.18,0,0,0,.15-0.26,0.31,0.31,0,0,0,.22-0.1,0.26,0.26,0,0,0-.22-0.1,0.2,0.2,0,0,0-.12-0.29s0.07,0.29-.11.29a0.13,0.13,0,0,1-.16-0.15,0.27,0.27,0,0,1,.31-0.24,0.41,0.41,0,0,1,.38.48,0.51,0.51,0,0,1-.59.48,0.46,0.46,0,0,1-.53-0.46c0-.41.59-1.35,0.59-1.71a0.45,0.45,0,0,0-.49-0.43,0.91,0.91,0,0,0-.58.31Z" transform="translate(-1021.71 -545.23)"/>
      <path class="d" d="M1025.65,547.94s-0.33-.28-0.44-0.14,0.55,1.32.55,1.71a0.89,0.89,0,0,1-1,.9,3.71,3.71,0,0,1-.93,0,0.39,0.39,0,0,1,.36-0.2,0.76,0.76,0,0,1-.41-0.69c0-.55.23-0.77,0.23-1.39a1.82,1.82,0,0,0-.28-0.78,0.67,0.67,0,0,1,.6.88,0.24,0.24,0,0,0,.21-0.06,0.36,0.36,0,0,1-.1.32,0.28,0.28,0,0,0,.21,0,0.45,0.45,0,0,1-.23.32,0.54,0.54,0,0,1,.72.52,0.39,0.39,0,0,1-.34.42,0.35,0.35,0,0,1-.18-0.06,0.28,0.28,0,0,0,0,.23,0.18,0.18,0,0,1-.15-0.26,0.31,0.31,0,0,1-.22-0.1,0.26,0.26,0,0,1,.22-0.1,0.2,0.2,0,0,1,.12-0.29s-0.07.29,0.11,0.29a0.13,0.13,0,0,0,.16-0.15,0.27,0.27,0,0,0-.31-0.24,0.41,0.41,0,0,0-.38.48,0.51,0.51,0,0,0,.58.48,0.46,0.46,0,0,0,.53-0.46c0-.41-0.59-1.35-0.59-1.71a0.46,0.46,0,0,1,.49-0.43,0.91,0.91,0,0,1,.58.31Z" transform="translate(-1021.71 -545.23)"/>
      <path class="c" d="M1025,567.35c0-.06-0.12,0-0.21,0a0.14,0.14,0,0,0-.14.12c0,0.06.12,0,.21,0a0.15,0.15,0,0,0,.14-0.13h0Z" transform="translate(-1021.71 -545.23)"/>
      <path class="c" d="M1024.71,567.54h0l-0.06-.06a0.17,0.17,0,0,1,.17-0.16l0.17,0h0l0.06,0.06a0.18,0.18,0,0,1-.17.16l-0.16,0h0Z" transform="translate(-1021.71 -545.23)"/>
      <path class="d" d="M1052.47,568.59a8.18,8.18,0,0,1-8.15-7.38s-0.18-.07-0.21.09c-0.06.39,0.11,1.6,0,1.51s-1-2.41-1.11-2.17,0.94,2.9.88,3c-0.23.28-1.55-2.51-1.66-2.3-0.4.78,1.63,3.3,1.61,3.41,0,0.34-1.54-1.36-1.67-1.18-0.28.41,1.62,1.9,1.72,2,0.29,0.34-1-.6-1.08-0.28a2.21,2.21,0,0,0,1.05,1,1.58,1.58,0,0,1,.65.36c0.09,0.15-.76-0.1-0.74.09,0,0.37.93,0.29,1.07,0.46s-0.6,0-.57.18a2.51,2.51,0,0,0,.81.38,1,1,0,0,0-.44.23,3.62,3.62,0,0,0,.94.25c0.18,0.12-.66,0,0,0.34a8.92,8.92,0,0,0,2.42.89,2.13,2.13,0,0,0,1.58-.09c0-.07-0.48.05-1.21-0.08a7.92,7.92,0,0,1-2.09-.82,2.51,2.51,0,0,0,.28-0.36,3.46,3.46,0,0,1-.68-0.18c-0.1-.13.19-0.13,0.19-0.21s-0.57-.21-0.67-0.35,0.25-.12.27-0.21-0.35-.19-0.38-0.28,0.41-.07.2-0.18a2.82,2.82,0,0,1-.91-0.48c-0.11-.21.45,0,0.3-0.17a2.74,2.74,0,0,1-.75-0.67c-0.08-.21.38,0,0.38-0.16a1.79,1.79,0,0,1-.36-0.69c0-.2.36-0.07,0.36-0.07l0.05-.11a4.38,4.38,0,0,1,1,.93,15.94,15.94,0,0,0,1.31,1.79,6.34,6.34,0,0,1,.87.29,10.49,10.49,0,0,1,1.47,1.17,12.77,12.77,0,0,1,1.7.18,1,1,0,0,1,.78.48,1.72,1.72,0,0,0,.53-0.48c0.07-.1.14,0,0.16,0a0.1,0.1,0,0,0,0-.14h0Z" transform="translate(-1021.71 -545.23)"/>
      <path class="d" d="M1048.82,569.63a4.23,4.23,0,0,1-.78-0.08,9.14,9.14,0,0,1-2.43-.89,0.36,0.36,0,0,1-.27-0.23,0.21,0.21,0,0,1,.2-0.1l0.09,0a2.32,2.32,0,0,0-.45-0.08,0.61,0.61,0,0,1-.53-0.18v0l0-.08a0.44,0.44,0,0,1,.27-0.1,0.42,0.42,0,0,0,.15,0,1,1,0,0,0-.25-0.08,0.74,0.74,0,0,1-.57-0.3,0.33,0.33,0,0,1,.33-0.12,0.24,0.24,0,1,0-.13-0.15,0.71,0.71,0,0,1-.69-0.37c0.09-.18.26-0.12,0.47-0.09h0.21c0-.1-0.06-0.12-0.18-0.17a2.27,2.27,0,0,1-.4-0.18,2.2,2.2,0,0,1-1.07-1.07,0.11,0.11,0,0,1,.13-0.1,2.26,2.26,0,0,1,.72.29,1.73,1.73,0,0,0,.3.14,1.5,1.5,0,0,1-.25-0.19c-0.88-.76-1.75-1.57-1.53-1.89a1.59,1.59,0,0,1,.84.57,3.33,3.33,0,0,0,.81.63,1.92,1.92,0,0,0-.25-0.41c-0.54-.78-1.66-2.41-1.35-3,0.14,0,.29.23,0.69,0.92a5.18,5.18,0,0,0,1,1.39,4.92,4.92,0,0,0-.26-0.76,5.49,5.49,0,0,1-.61-2.22c0.18,0,.45.51,0.91,1.58,0.1,0.23.18,0.44,0.23,0.53a2.44,2.44,0,0,1,0-.39,6.41,6.41,0,0,1,0-1.06,0.15,0.15,0,0,1,.16-0.14l0.09,0a8.14,8.14,0,0,0,8.11,7.38,0.13,0.13,0,0,1,.1.12v0l0,0.06-0.05,0-0.05,0a1.87,1.87,0,0,1-.6.53,1.12,1.12,0,0,0-.79-0.48,6.36,6.36,0,0,0-1.33-.15h-0.22a0.26,0.26,0,0,1-.17,0l-0.36-.31a7.4,7.4,0,0,0-1.11-.86,1,1,0,0,0-.52-0.2h-0.12a0.33,0.33,0,0,1-.24-0.1,3.39,3.39,0,0,1-.71-0.92,5.89,5.89,0,0,0-.6-0.87,4.44,4.44,0,0,0-1-.93v0.09a1.71,1.71,0,0,1-.26,0,0.12,0.12,0,0,0-.09,0,0.66,0.66,0,0,0,.25.56,0.19,0.19,0,0,1,.1.18c0,0.09-.11.09-0.16,0.09h-0.13a0.13,0.13,0,0,0-.1,0,1.17,1.17,0,0,0,.51.53,1,1,0,0,1,.23.18v0.1a0.11,0.11,0,0,1-.1,0h-0.17a0.81,0.81,0,0,0,.55.38l0.3,0.13a0.11,0.11,0,0,1,.07.09,0.16,0.16,0,0,1-.14.08,0.3,0.3,0,0,0-.12,0,0.7,0.7,0,0,0,.19.13,0.26,0.26,0,0,1,.19.16,0.19,0.19,0,0,1-.16.11,0.27,0.27,0,0,0-.12.05,0.9,0.9,0,0,0,.4.23,0.42,0.42,0,0,1,.29.17,0.14,0.14,0,0,1-.12.11,0.19,0.19,0,0,0-.09.05,0.42,0.42,0,0,0,.38.13,0.39,0.39,0,0,1,.31.08l0,0.08a0.4,0.4,0,0,1-.2.19,0.45,0.45,0,0,0-.11.09,8.3,8.3,0,0,0,2.08.81,4.19,4.19,0,0,0,.75.06h0.38a0.11,0.11,0,0,1,.1,0,1,1,0,0,1-.84.23h0Zm-4.83-2.89a0.2,0.2,0,0,0-.14,0,0.68,0.68,0,0,0,.63.32,0.77,0.77,0,0,1,.42.13v0.08a0.4,0.4,0,0,1-.32.07,0.72,0.72,0,0,0-.27,0,0.77,0.77,0,0,0,.51.24,0.36,0.36,0,0,1,.3.14c0,0.08-.09.09-0.2,0.11a0.42,0.42,0,0,0-.23.07,0.54,0.54,0,0,0,.46.17,1.36,1.36,0,0,1,.46.1l0,0.07a0.16,0.16,0,0,1-.14.07,0.35,0.35,0,0,0-.14,0,0.44,0.44,0,0,0,.23.16,9,9,0,0,0,2.41.89,4.1,4.1,0,0,0,.77.08,1.37,1.37,0,0,0,.78-0.15l-0.16,0h-0.27a4.15,4.15,0,0,1-.76-0.07,8,8,0,0,1-2.1-.83c0-.11,0-0.14.11-0.2a0.42,0.42,0,0,0,.17-0.14,0.29,0.29,0,0,0-.26-0.08,0.52,0.52,0,0,1-.42-0.13l0-.09a0.19,0.19,0,0,1,.13-0.1l0.08,0a1.52,1.52,0,0,0-.24-0.11,1.08,1.08,0,0,1-.42-0.22l0-.09a0.23,0.23,0,0,1,.16-0.1,0.24,0.24,0,0,0,.12-0.05,0.85,0.85,0,0,0-.15-0.09,0.43,0.43,0,0,1-.22-0.17,0.19,0.19,0,0,1,.16-0.12l0.09,0-0.33-.14a1.34,1.34,0,0,1-.63-0.37v-0.1a0.21,0.21,0,0,1,.21,0h0.08a0.37,0.37,0,0,0-.2-0.2,1.31,1.31,0,0,1-.53-0.52,0.11,0.11,0,0,1,0-.11,0.18,0.18,0,0,1,.16-0.05h0.13a0.1,0.1,0,0,0,.09,0,0.13,0.13,0,0,0-.08-0.12,0.7,0.7,0,0,1-.28-0.55,0.12,0.12,0,0,1,0-.1,0.55,0.55,0,0,1,.38,0v-0.09h0a3.07,3.07,0,0,1,1.1.93,6,6,0,0,1,.61.88,3.34,3.34,0,0,0,.69.9,0.27,0.27,0,0,0,.19.08h0.12a1,1,0,0,1,.56.21,7.43,7.43,0,0,1,1.12.86l0.36,0.31a0.3,0.3,0,0,0,.12,0h0.22a6.38,6.38,0,0,1,1.35.15,1,1,0,0,1,.81.5,5.25,5.25,0,0,0,.47-0.49,0.12,0.12,0,0,1,.1-0.06l0.07,0v-0.1l0,0a8.17,8.17,0,0,1-8.15-7.39h0a0.08,0.08,0,0,0-.09.08,6.52,6.52,0,0,0,0,1,1.13,1.13,0,0,1,0,.49,1.48,1.48,0,0,1-.33-0.6,7,7,0,0,0-.79-1.58,6.76,6.76,0,0,0,.62,2.16,1.91,1.91,0,0,1,.26.82l-0.07,0a3.7,3.7,0,0,1-1-1.42,5.06,5.06,0,0,0-.59-0.91c-0.28.57,0.83,2.18,1.36,2.95a1.48,1.48,0,0,1,.28.45v0l-0.08,0a2.62,2.62,0,0,1-.85-0.65,3.24,3.24,0,0,0-.74-0.59c-0.22.31,1.08,1.43,1.51,1.8l0.2,0.18a0.11,0.11,0,0,1,0,.11,0.58,0.58,0,0,1-.37-0.12,2.37,2.37,0,0,0-.69-0.28c-0.06,0-.06,0-0.06,0a2.19,2.19,0,0,0,1,1,1.94,1.94,0,0,0,.38.17,0.43,0.43,0,0,1,.28.2c0,0.21-.18.1-0.34,0.09l-0.26,0h0Z" transform="translate(-1021.71 -545.23)"/>
      <path class="d" d="M1055.57,570c-0.17,0-.15.1-0.15,0.1a0.38,0.38,0,0,1-.25.38c-0.11,0-.05.11-0.09,0.18l-0.45,0a4.47,4.47,0,0,1-2.67.4s-0.22.17-.42,0.35a1,1,0,0,0-.38.36c0,0.14.11,0.22,0.29,0.22a0.9,0.9,0,0,0,.43-0.17,0.21,0.21,0,0,0,.2.16,1.57,1.57,0,0,0,.48-0.1,1.06,1.06,0,0,0,.46.09,0.89,0.89,0,0,0,.37-0.15,0.3,0.3,0,0,0,.25.24,1.08,1.08,0,0,0,.5-0.25,0.42,0.42,0,0,0,.33.14,0.94,0.94,0,0,0,.4-0.23,0.73,0.73,0,0,0,.44,0,1.11,1.11,0,0,0,.41-0.28,0.44,0.44,0,0,0,.36.1,0.62,0.62,0,0,0,.28-0.29,1.14,1.14,0,0,0,.76,0,0.43,0.43,0,0,0,.16-0.44s1.25,0.18,1.2-.64c0-.09-2-0.06-2.9-0.22h0Z" transform="translate(-1021.71 -545.23)"/>
      <path class="d" d="M1053.65,572h0a0.32,0.32,0,0,1-.27-0.24,0.52,0.52,0,0,1-.34.16,1.73,1.73,0,0,1-.48-0.1,1.24,1.24,0,0,1-.44.11,0.27,0.27,0,0,1-.26-0.17,0.55,0.55,0,0,1-.39.18,0.39,0.39,0,0,1-.31-0.12,0.17,0.17,0,0,1,0-.15,0.44,0.44,0,0,1,.21-0.23l0.18-.14c0.2-.18.43-0.35,0.43-0.35,0.27,0,.52,0,0.75,0a4,4,0,0,0,1.93-.44l0.46,0c0-.09,0-0.15.08-0.18a0.35,0.35,0,0,0,.22-0.34,0.12,0.12,0,0,1,.13-0.14,17,17,0,0,0,2,.15c0.89,0,.95,0,1,0.11a0.56,0.56,0,0,1-.14.44,1.14,1.14,0,0,1-.81.25h0l-0.27,0a0.35,0.35,0,0,1-.15.43,1.37,1.37,0,0,1-.78,0,0.44,0.44,0,0,1-.26.29,0.51,0.51,0,0,1-.39-0.1,0.71,0.71,0,0,1-.39.28,0.93,0.93,0,0,1-.46,0,0.69,0.69,0,0,1-.39.24h0a0.49,0.49,0,0,1-.35-0.15,0.75,0.75,0,0,1-.47.26h0Zm-0.28-.3a0.48,0.48,0,0,0,.27.23v0a1.07,1.07,0,0,0,.47-0.24,0.84,0.84,0,0,0,.31.14,0.91,0.91,0,0,0,.41-0.23,1.85,1.85,0,0,0,.31,0l0.14,0a1.1,1.1,0,0,0,.4-0.27,0.81,0.81,0,0,0,.31.1,0.58,0.58,0,0,0,.33-0.29c0.05,0,.27.07,0.51,0.07a0.62,0.62,0,0,0,.27-0.05,0.4,0.4,0,0,0,.14-0.4,0.65,0.65,0,0,1,.31,0h0a1.07,1.07,0,0,0,.76-0.23,0.49,0.49,0,0,0,.12-0.39l-0.89,0a16.6,16.6,0,0,1-2-.15h-0.09a0.46,0.46,0,0,1-.28.47s0,0,0,.07a0.24,0.24,0,0,1,0,.09h-0.48a4.5,4.5,0,0,1-2.68.4s-0.21.17-.4,0.34l-0.19.14a0.39,0.39,0,0,0-.18.2,0.1,0.1,0,0,0,0,.09,0.33,0.33,0,0,0,.25.09h0a0.88,0.88,0,0,0,.4-0.16,0.41,0.41,0,0,0,.22.15h0a1.75,1.75,0,0,0,.46-0.1,1.62,1.62,0,0,0,.41.09,0.89,0.89,0,0,0,.41-0.15h0Z" transform="translate(-1021.71 -545.23)"/>
      <path class="d" d="M1052.91,569.1a6.93,6.93,0,0,1,1-.27c1.21-.25,1.63-0.17,1.71-0.24a4.63,4.63,0,0,1,2.35-1.42,16.45,16.45,0,0,0,1.32-1.81,2,2,0,0,1,.93-0.73l0.08,0.15s0.31-.24.3,0-0.27.59-.26,0.8,0.43-.06.39,0.06a2,2,0,0,1-.53.64c-0.15.2,0.38-.07,0.28,0.14a2.93,2.93,0,0,1-.85.55c-0.13.08,0.14,0.1,0.11,0.19s-0.58.3-.57,0.37,0.15,0.11.08,0.18-0.57.14-.58,0.22a0.32,0.32,0,0,1,0,.29c-0.16.2-.29,0-0.35,0.16s0.26,0.28.06,0.32a2,2,0,0,0-.72.32,5.63,5.63,0,0,1-.73.19,4.82,4.82,0,0,0-1,.21,4.37,4.37,0,0,0,1.71-.14,9.86,9.86,0,0,0,1.55-.39c0.88-.28-0.23-0.3,0-0.42a4,4,0,0,0,1-.23,0.9,0.9,0,0,0-.41-0.24,3.07,3.07,0,0,0,1-.34c0-.14-0.53,0-0.39-0.21s0.87-.2.89-0.52-0.6,0-.52-0.11,0.28-.13.53-0.3a2.15,2.15,0,0,0,1-1c0-.33-1.27.76-1.16,0.34,0-.15,2-1.7,1.68-2.08s-1.62,1.42-1.67,1.08c0-.11,2.19-2.6,1.78-3.37-0.1-.21-1.76,3-2,2.7-0.06-.08,1.41-3.13,1.18-3.44-0.11-.15-0.34.36-0.6,0.92s-0.53,1.19-.59,1.26,0.06-1.2,0-1.59c0-.16-0.21-0.09-0.21-0.09-0.25,4-4.08,6.94-7.13,7.38a5.1,5.1,0,0,0-1.91,1c-0.29.16-.74,0.24-1.13,0.46a2.35,2.35,0,0,0-.79.75,0.44,0.44,0,0,0,.11.42,0.85,0.85,0,0,0,.17-0.26,0.55,0.55,0,0,1,.2.08,0.49,0.49,0,0,0,.23-0.11s2.15,0,3.07,0a0.93,0.93,0,0,0,.56-0.2,0.55,0.55,0,0,0-.44,0c-0.65,0-1.5,0-2.11,0a0.09,0.09,0,0,1-.09-0.1,4.83,4.83,0,0,1,.39-0.46h-0.3a1.06,1.06,0,0,1-.27.12c-0.09,0-.13,0-0.09-0.08a14.66,14.66,0,0,1,1.85-1h0Z" transform="translate(-1021.71 -545.23)"/>
      <path class="d" d="M1049.78,571.22h0a0.32,0.32,0,0,1-.12-0.18,0.4,0.4,0,0,1,0-.29,2.38,2.38,0,0,1,.81-0.76,3.7,3.7,0,0,1,.64-0.26,3.07,3.07,0,0,0,.49-0.2c0.28-.16.49-0.3,0.68-0.43a2.67,2.67,0,0,1,1.24-.55c3.23-.46,6.86-3.52,7.1-7.34a0.17,0.17,0,0,1,.27.09,7.75,7.75,0,0,1,0,1.06,4.9,4.9,0,0,0,0,.52,9.7,9.7,0,0,1,.45-1.08l0.08-.18a1.78,1.78,0,0,1,.58-1h0l0.06,0c0.15,0.2-.29,1.29-0.83,2.59a7.74,7.74,0,0,0-.34.87,6.76,6.76,0,0,0,1.17-1.63,3.5,3.5,0,0,1,.78-1.1c0.36,0.64-.86,2.25-1.44,3a4.26,4.26,0,0,0-.29.4,2.75,2.75,0,0,0,.66-0.49,2.54,2.54,0,0,1,.91-0.65h0l0.08,0c0.23,0.27-.5,1-1.27,1.71a4,4,0,0,0-.41.4,0.7,0.7,0,0,0,.48-0.18c0.35-.21.67-0.36,0.69-0.18a1.84,1.84,0,0,1-1,1,2.58,2.58,0,0,1-.36.2,0.5,0.5,0,0,0-.16.09h0.17a0.48,0.48,0,0,1,.33,0l0,0.07a0.67,0.67,0,0,1-.56.39,0.85,0.85,0,0,0-.33.15,0.17,0.17,0,0,0,.16.06,0.36,0.36,0,0,1,.23.07,0.69,0.69,0,0,1-.67.34,1,1,0,0,0-.3.07l0.14,0c0.13,0,.3.06,0.28,0.21a0.62,0.62,0,0,1-.54.17,1.34,1.34,0,0,0-.45.08l0.15,0a0.3,0.3,0,0,1,.26.16c0,0.05,0,.12-0.37.22a9.78,9.78,0,0,1-1.55.39,9.55,9.55,0,0,1-1.49.18,0.28,0.28,0,0,1-.26-0.06,1,1,0,0,1,.7-0.21l0.3-.05,0.26-.06a2.62,2.62,0,0,0,.46-0.13,2,2,0,0,1,.74-0.32s0-.09,0-0.12a0.21,0.21,0,0,1-.07-0.18,0.12,0.12,0,0,1,.13-0.09l0.08,0v0a0.18,0.18,0,0,0,.15-0.08,0.15,0.15,0,0,0,0-.17,0.23,0.23,0,0,1,0-.1,0.28,0.28,0,0,1,.25-0.12,0.8,0.8,0,0,0,.34-0.12,0.36,0.36,0,0,1-.09-0.15,0.39,0.39,0,0,1,.28-0.2,1.15,1.15,0,0,0,.29-0.18,0.1,0.1,0,0,0-.07-0.05,0.12,0.12,0,0,1-.08-0.09v0l0.05-.05,0.25-.14a1.6,1.6,0,0,0,.59-0.4,0.16,0.16,0,0,0-.12,0h-0.1l-0.07,0a0.1,0.1,0,0,1,0-.1,1.16,1.16,0,0,1,.15-0.15,1.15,1.15,0,0,0,.38-0.48h-0.13c-0.16,0-.26,0-0.26-0.07a0.87,0.87,0,0,1,.12-0.38,1.29,1.29,0,0,0,.14-0.43,0.26,0.26,0,0,0-.24.07l-0.13-.16a2.76,2.76,0,0,0-.88.74,6.1,6.1,0,0,0-.61.88,3.51,3.51,0,0,1-.72.93l-0.38.14a4,4,0,0,0-2,1.28,0.56,0.56,0,0,1-.3.06,9.51,9.51,0,0,0-1.43.2,6.74,6.74,0,0,0-1,.27,14.63,14.63,0,0,0-1.84,1,0.72,0.72,0,0,0,.33-0.1h0.32c-0.15.25-.34,0.46-0.35,0.5l0.06,0.1v0c0.61,0,1.46,0,2.11,0h0.11c0.13,0,.32-0.06.36,0.07a0.86,0.86,0,0,1-.59.24c-0.91,0-3,0-3.07,0a0.41,0.41,0,0,1-.23.11h0A0.16,0.16,0,0,1,1050,571a0.12,0.12,0,0,0-.12.11,0.14,0.14,0,0,1-.1.13h0Zm10.92-10h-0.07c-0.22,3.82-3.88,6.91-7.14,7.38a2.6,2.6,0,0,0-1.21.54c-0.19.13-.41,0.28-0.69,0.43a2.94,2.94,0,0,1-.5.2,3.65,3.65,0,0,0-.63.26,2.34,2.34,0,0,0-.78.74,0.34,0.34,0,0,0,0,.23,0.25,0.25,0,0,0,.08.14h0a0.27,0.27,0,0,0,0-.09,0.27,0.27,0,0,1,.1-0.17,0.13,0.13,0,0,1,.14,0,0.09,0.09,0,0,0,.07,0,0.46,0.46,0,0,0,.21-0.1s2.17,0,3.09,0a0.9,0.9,0,0,0,.53-0.19,0.58,0.58,0,0,1-.13,0h-0.28c-0.66,0-1.5,0-2.11,0a0.15,0.15,0,0,1-.1,0,0.12,0.12,0,0,1,0-.1,2.6,2.6,0,0,1,.4-0.48l-0.28.06h0a0.84,0.84,0,0,1-.27.11,0.13,0.13,0,0,1-.14-0.06v0l0-.05a14,14,0,0,1,1.85-1,6.72,6.72,0,0,1,1-.28,9.18,9.18,0,0,1,1.44-.2,0.74,0.74,0,0,0,.26,0,4.1,4.1,0,0,1,2-1.29l0.37-.13a3.5,3.5,0,0,0,.69-0.91,6,6,0,0,1,.61-0.89,2,2,0,0,1,1-.75l0.11,0.16a0.28,0.28,0,0,1,.22-0.13l0.07,0a0.12,0.12,0,0,1,0,.09,1.35,1.35,0,0,1-.15.45,0.82,0.82,0,0,0-.11.34,0.45,0.45,0,0,0,.18,0h0.12l0.08,0a1.06,1.06,0,0,1-.39.57,1,1,0,0,0-.14.14,0.09,0.09,0,0,0,.09,0h0.13l0.07,0a0.1,0.1,0,0,1,0,.1,1.55,1.55,0,0,1-.62.43l-0.25.13a0.2,0.2,0,0,1,.13.17,0.68,0.68,0,0,1-.33.22,1.26,1.26,0,0,0-.24.14,0.15,0.15,0,0,0,.05.06l0.05,0.07a0.6,0.6,0,0,1-.4.21,0.67,0.67,0,0,0-.2.06,0.28,0.28,0,0,1,0,.3,0.24,0.24,0,0,1-.2.11h-0.08a0.06,0.06,0,0,0-.06,0,0.22,0.22,0,0,0,.06.11,0.2,0.2,0,0,1,.07.17,0.11,0.11,0,0,1-.09.06,2,2,0,0,0-.71.31,2.36,2.36,0,0,1-.49.14l-0.26.06-0.3.05a5.29,5.29,0,0,0-.62.12,5.84,5.84,0,0,0,1.65-.17,9.84,9.84,0,0,0,1.54-.39,0.48,0.48,0,0,0,.32-0.15,0.5,0.5,0,0,0-.21-0.09,0.24,0.24,0,0,1-.2-0.11v0l0,0a1.3,1.3,0,0,1,.48-0.09,0.86,0.86,0,0,0,.48-0.12c0-.07-0.08-0.1-0.22-0.13s-0.2,0-.19-0.12a0.42,0.42,0,0,1,.36-0.12,1,1,0,0,0,.62-0.22,0.35,0.35,0,0,0-.18,0,0.27,0.27,0,0,1-.23-0.08v0l0-.07a0.81,0.81,0,0,1,.37-0.17,0.65,0.65,0,0,0,.52-0.33,0.32,0.32,0,0,0-.27,0,0.26,0.26,0,0,1-.25,0,0.26,0.26,0,0,1,.19-0.19,2.43,2.43,0,0,0,.35-0.19c0.85-.6,1-0.86.95-1a1.11,1.11,0,0,0-.58.23,1.56,1.56,0,0,1-.5.24l-0.07,0a0.13,0.13,0,0,1,0-.11,2.13,2.13,0,0,1,.42-0.44c0.51-.48,1.47-1.37,1.26-1.61a2.45,2.45,0,0,0-.9.62,2,2,0,0,1-.69.52h0l0-.07a1.41,1.41,0,0,1,.3-0.45c0.58-.76,1.78-2.34,1.48-2.92a10.74,10.74,0,0,0-.7,1.08,4.87,4.87,0,0,1-1.22,1.65c-0.09-.06-0.07-0.14.27-1a8.41,8.41,0,0,0,.84-2.52,2.37,2.37,0,0,0-.54.91l-0.08.18c-0.23.52-.46,1-0.51,1.09s-0.09-.09-0.06-0.56a7.71,7.71,0,0,0,0-1,0.08,0.08,0,0,0-.09-0.08h0Z" transform="translate(-1021.71 -545.23)"/>
      <path class="c" d="M1050.78,570.4s-0.1,0-.18,0a0.12,0.12,0,0,0-.12.1s0.1,0,.17,0a0.12,0.12,0,0,0,.12-0.11h0Z" transform="translate(-1021.71 -545.23)"/>
      <path class="c" d="M1050.53,570.56h0l-0.05-.06a0.15,0.15,0,0,1,.14-0.14l0.14,0h0l0,0.06a0.15,0.15,0,0,1-.15.14l-0.13,0h0Z" transform="translate(-1021.71 -545.23)"/>
      <path class="d" d="M1053.53,554.79a0.33,0.33,0,0,0,.43-0.29,13.07,13.07,0,0,0-.06-1.56,12.92,12.92,0,0,0-.65,1.42,0.33,0.33,0,0,0,.29.43h0Z" transform="translate(-1021.71 -545.23)"/>
      <path class="d" d="M1054.48,555.08a0.34,0.34,0,0,0,.48-0.2,13.32,13.32,0,0,0,.25-1.55,13,13,0,0,0-.92,1.27,0.33,0.33,0,0,0,.19.48h0Z" transform="translate(-1021.71 -545.23)"/>
      <path class="d" d="M1055.35,555.54a0.34,0.34,0,0,0,.51-0.1,13.15,13.15,0,0,0,.54-1.47,13.22,13.22,0,0,0-1.15,1.06,0.33,0.33,0,0,0,.1.51h0Z" transform="translate(-1021.71 -545.23)"/>
      <path class="d" d="M1056.12,556.17a0.33,0.33,0,0,0,.52,0,13.07,13.07,0,0,0,.82-1.33,13,13,0,0,0-1.33.82,0.33,0.33,0,0,0,0,.52h0Z" transform="translate(-1021.71 -545.23)"/>
      <path class="d" d="M1056.75,556.94a0.33,0.33,0,0,0,.51.1,13.35,13.35,0,0,0,1.06-1.15,13.16,13.16,0,0,0-1.47.54,0.33,0.33,0,0,0-.1.51h0Z" transform="translate(-1021.71 -545.23)"/>
      <path class="d" d="M1057.21,557.81a0.34,0.34,0,0,0,.48.2,13.31,13.31,0,0,0,1.27-.92,13.07,13.07,0,0,0-1.55.25,0.33,0.33,0,0,0-.2.48h0Z" transform="translate(-1021.71 -545.23)"/>
      <path class="d" d="M1057.5,558.76a0.33,0.33,0,0,0,.43.29,13.43,13.43,0,0,0,1.42-.65,12.9,12.9,0,0,0-1.56-.06,0.33,0.33,0,0,0-.29.43h0Z" transform="translate(-1021.71 -545.23)"/>
      <path class="d" d="M1057.6,559.74a0.33,0.33,0,0,0,.37.36,13.13,13.13,0,0,0,1.52-.36,13.07,13.07,0,0,0-1.52-.37,0.33,0.33,0,0,0-.37.37h0Z" transform="translate(-1021.71 -545.23)"/>
      <path class="d" d="M1057.5,560.73a0.33,0.33,0,0,0,.29.43,12.93,12.93,0,0,0,1.56-.06,13.41,13.41,0,0,0-1.42-.65,0.33,0.33,0,0,0-.43.29h0Z" transform="translate(-1021.71 -545.23)"/>
      <path class="d" d="M1057.21,561.68a0.33,0.33,0,0,0,.2.48,13.07,13.07,0,0,0,1.55.25,13.29,13.29,0,0,0-1.27-.92,0.33,0.33,0,0,0-.48.2h0Z" transform="translate(-1021.71 -545.23)"/>
      <path class="d" d="M1056.75,562.55a0.33,0.33,0,0,0,.1.51,13.23,13.23,0,0,0,1.47.54,13.06,13.06,0,0,0-1.06-1.15,0.33,0.33,0,0,0-.51.1h0Z" transform="translate(-1021.71 -545.23)"/>
      <path class="d" d="M1056.12,563.32a0.33,0.33,0,0,0,0,.52,13.34,13.34,0,0,0,1.33.82,13.06,13.06,0,0,0-.82-1.33,0.33,0.33,0,0,0-.52,0h0Z" transform="translate(-1021.71 -545.23)"/>
      <path class="d" d="M1055.35,563.94a0.33,0.33,0,0,0-.1.51,13,13,0,0,0,1.15,1.07,13.14,13.14,0,0,0-.54-1.47,0.33,0.33,0,0,0-.51-0.1h0Z" transform="translate(-1021.71 -545.23)"/>
      <path class="d" d="M1054.48,564.41a0.33,0.33,0,0,0-.19.48,13,13,0,0,0,.92,1.27,13.25,13.25,0,0,0-.25-1.55,0.33,0.33,0,0,0-.48-0.2h0Z" transform="translate(-1021.71 -545.23)"/>
      <path class="d" d="M1049.74,563.94a0.33,0.33,0,0,0-.51.1,13.13,13.13,0,0,0-.54,1.47,13,13,0,0,0,1.15-1.07,0.33,0.33,0,0,0-.1-0.51h0Z" transform="translate(-1021.71 -545.23)"/>
      <path class="d" d="M1049,563.32a0.33,0.33,0,0,0-.52,0,12.71,12.71,0,0,0-.82,1.33,13.36,13.36,0,0,0,1.33-.82,0.33,0.33,0,0,0,0-.52h0Z" transform="translate(-1021.71 -545.23)"/>
      <path class="d" d="M1048.35,562.55a0.34,0.34,0,0,0-.51-0.1,13.05,13.05,0,0,0-1.06,1.15,13.3,13.3,0,0,0,1.47-.54,0.33,0.33,0,0,0,.1-0.51h0Z" transform="translate(-1021.71 -545.23)"/>
      <path class="d" d="M1047.88,561.68a0.33,0.33,0,0,0-.48-0.2,13.2,13.2,0,0,0-1.27.92,13.11,13.11,0,0,0,1.55-.25,0.33,0.33,0,0,0,.2-0.48h0Z" transform="translate(-1021.71 -545.23)"/>
      <path class="d" d="M1047.59,560.73a0.33,0.33,0,0,0-.43-0.29,13.37,13.37,0,0,0-1.42.65,12.92,12.92,0,0,0,1.57.06,0.33,0.33,0,0,0,.29-0.43h0Z" transform="translate(-1021.71 -545.23)"/>
      <path class="d" d="M1047.5,559.74a0.33,0.33,0,0,0-.37-0.37,13.07,13.07,0,0,0-1.52.37,13.13,13.13,0,0,0,1.52.36,0.33,0.33,0,0,0,.37-0.36h0Z" transform="translate(-1021.71 -545.23)"/>
      <path class="d" d="M1047.59,558.76a0.33,0.33,0,0,0-.29-0.43,12.89,12.89,0,0,0-1.57.06,13.39,13.39,0,0,0,1.42.65,0.33,0.33,0,0,0,.43-0.29h0Z" transform="translate(-1021.71 -545.23)"/>
      <path class="d" d="M1047.88,557.81a0.33,0.33,0,0,0-.2-0.48,13.11,13.11,0,0,0-1.55-.25,13.21,13.21,0,0,0,1.27.92,0.33,0.33,0,0,0,.48-0.2h0Z" transform="translate(-1021.71 -545.23)"/>
      <path class="d" d="M1048.35,556.94a0.33,0.33,0,0,0-.1-0.51,13.23,13.23,0,0,0-1.47-.54,13.34,13.34,0,0,0,1.06,1.15,0.33,0.33,0,0,0,.51-0.1h0Z" transform="translate(-1021.71 -545.23)"/>
      <path class="d" d="M1049,556.17a0.34,0.34,0,0,0,0-.52,13,13,0,0,0-1.33-.82,12.72,12.72,0,0,0,.82,1.33,0.33,0.33,0,0,0,.52,0h0Z" transform="translate(-1021.71 -545.23)"/>
      <path class="d" d="M1052.54,555.3a4.45,4.45,0,1,1-4.45,4.45,4.45,4.45,0,0,1,4.45-4.45h0Z" transform="translate(-1021.71 -545.23)"/>
      <path class="d" d="M1052.55,554.69a0.33,0.33,0,0,0,.36-0.37,13.21,13.21,0,0,0-.36-1.52,13.18,13.18,0,0,0-.36,1.52,0.33,0.33,0,0,0,.36.37h0Z" transform="translate(-1021.71 -545.23)"/>
      <path class="d" d="M1053.53,564.7a0.33,0.33,0,0,0-.29.43,12.91,12.91,0,0,0,.65,1.42A13.07,13.07,0,0,0,1054,565a0.33,0.33,0,0,0-.43-0.29h0Z" transform="translate(-1021.71 -545.23)"/>
      <path class="d" d="M1052.55,564.79a0.33,0.33,0,0,0-.36.37,13.13,13.13,0,0,0,.36,1.52,13.16,13.16,0,0,0,.36-1.52,0.33,0.33,0,0,0-.36-0.37h0Z" transform="translate(-1021.71 -545.23)"/>
      <path class="d" d="M1051.56,564.7a0.33,0.33,0,0,0-.43.29,13.28,13.28,0,0,0,.06,1.56,13.1,13.1,0,0,0,.65-1.42,0.33,0.33,0,0,0-.29-0.43h0Z" transform="translate(-1021.71 -545.23)"/>
      <path class="d" d="M1050.61,564.41a0.34,0.34,0,0,0-.48.2,13.22,13.22,0,0,0-.25,1.55,13.36,13.36,0,0,0,.92-1.27,0.33,0.33,0,0,0-.2-0.48h0Z" transform="translate(-1021.71 -545.23)"/>
      <path class="d" d="M1049.74,555.54a0.33,0.33,0,0,0,.1-0.51,13.24,13.24,0,0,0-1.15-1.06,13.13,13.13,0,0,0,.54,1.47,0.33,0.33,0,0,0,.51.1h0Z" transform="translate(-1021.71 -545.23)"/>
      <path class="d" d="M1050.61,555.08a0.34,0.34,0,0,0,.2-0.48,13.35,13.35,0,0,0-.92-1.27,13.28,13.28,0,0,0,.25,1.55,0.33,0.33,0,0,0,.48.2h0Z" transform="translate(-1021.71 -545.23)"/>
      <path class="d" d="M1051.56,554.79a0.33,0.33,0,0,0,.29-0.43,13.11,13.11,0,0,0-.65-1.42,13.28,13.28,0,0,0-.06,1.56,0.33,0.33,0,0,0,.43.29h0Z" transform="translate(-1021.71 -545.23)"/>
    </g>
  </g>
</svg>