<svg xmlns="http://www.w3.org/2000/svg" xmlns:xlink="http://www.w3.org/1999/xlink" viewBox="0 0 58.92 34.37">
  <defs>
    <style>
      .a {
        fill: none;
      }

      .b {
        clip-path: url(#a);
      }

      .c {
        fill: #f5cd28;
      }

      .d {
        fill: #ed6f22;
      }

      .e {
        fill: #2f742e;
      }

      .f {
        fill: #8e1841;
      }
    </style>
    <clipPath id="a" transform="translate(-177.22 -1069.2)">
      <rect class="a" x="177.22" y="1069.2" width="58.92" height="34.37"/>
    </clipPath>
  </defs>
  <title>Sri_Lanka</title>
  <g class="b">
    <rect class="c" width="58.92" height="34.37"/>
    <rect class="d" x="12.46" y="3.6" width="10" height="27.17"/>
    <rect class="e" x="2.61" y="3.6" width="9.86" height="27.17"/>
    <rect class="f" x="25.07" y="3.6" width="31.24" height="27.17"/>
    <g class="b">
      <path class="c" d="M214.2,1085.42h0.52a1.32,1.32,0,0,0-.45,1.15c0.61-.9.83-0.73,0.83-0.73a0.84,0.84,0,0,0-.26,1.08,3.49,3.49,0,0,1,.73-1.1,2.44,2.44,0,0,0,.16,1.32,5.69,5.69,0,0,1,.57-1.18,1.34,1.34,0,0,0,.25.94,2,2,0,0,0,.4-0.75,3.11,3.11,0,0,0,.73.91,2.78,2.78,0,0,0,.22-1,1.85,1.85,0,0,0,1.66.28,1.55,1.55,0,0,1-.88-0.79,3.08,3.08,0,0,0,1.72.29,13.64,13.64,0,0,0-1.68-1,3.31,3.31,0,0,0,1.12.24,2,2,0,0,0-.5-0.38Z" transform="translate(-177.22 -1069.2)"/>
      <path class="f" d="M215.75,1087.18a2.2,2.2,0,0,1-.22-1.31,5.41,5.41,0,0,0-.66,1.08,0.77,0.77,0,0,1,.16-1.06l0,0a1.39,1.39,0,0,0-.77.75,1.25,1.25,0,0,1,.4-1.19l-0.5,0a0,0,0,0,1,0-.06h0.52a1.64,1.64,0,0,0-.42,1.17,1.33,1.33,0,0,1,.71-0.76,0.16,0.16,0,0,1,.11,0l-0.05.1a0.77,0.77,0,0,0-.2,1,3,3,0,0,1,.68-1.11,3.89,3.89,0,0,0,.21,1.33,4.29,4.29,0,0,1,.51-1.18,2,2,0,0,0,.3.93,2.45,2.45,0,0,0,.35-0.74,5.63,5.63,0,0,0,.77.89,3.22,3.22,0,0,0,.18-0.93,3,3,0,0,0,1.18.36,1.07,1.07,0,0,0,.5-0.12,1.39,1.39,0,0,1-.9-0.75,7,7,0,0,0,1.4.31,0.81,0.81,0,0,0,.33-0.06c-0.5-.32-1.67-0.89-1.68-0.89s0.71,0.19,1,.19h0.1a4.26,4.26,0,0,0-.51-0.33,0.93,0.93,0,0,1,.54.34,1.73,1.73,0,0,1-.9-0.11,8.86,8.86,0,0,1,1.45.81,2.64,2.64,0,0,1-1.72-.23,1.93,1.93,0,0,0,.88.72,1.7,1.7,0,0,1-1.68-.21,1.82,1.82,0,0,1-.19.94,2.46,2.46,0,0,1-.77-0.89,1.36,1.36,0,0,1-.36.75,1.17,1.17,0,0,1-.31-0.92,12.42,12.42,0,0,0-.5,1.14h0Z" transform="translate(-177.22 -1069.2)"/>
      <path class="c" d="M221.41,1079c1.59-.14,4.05,1.16,5.36,2a0.69,0.69,0,0,1,.29-0.72,0.45,0.45,0,0,1,.58.58c-0.43,1-2.17-.14-2.75-0.43l0.29,0.58a2,2,0,0,1-1.59-1c-0.14.58-.14,0.72-0.87,0.72,0.27-.43.36-0.57,0-1l-0.14.87-0.72-1v1a2.34,2.34,0,0,0-1-.58c-0.43-.14-0.72.72-0.87,1.16,0.43-.43.58-0.72,1.3-0.43a0.71,0.71,0,0,0,.14,1.16s0.08-.6.12-0.74a2.84,2.84,0,0,0,1.33.88,4.23,4.23,0,0,0,1.3-.29c1.45-.14,4.63.14,3.91,2.31a2.31,2.31,0,0,1-.58,1c2,0.72.29,3.33-.14,4.63s-0.09,2.08,1.34,1.93a1.28,1.28,0,0,1-1.34.67,0.78,0.78,0,0,0,.44.51c-0.62.55,0.21,1.38-.15,1.8a1.86,1.86,0,0,1-1.45-.15l0,0.41a9.55,9.55,0,0,1-1.12-.12,5.85,5.85,0,0,0,.29-0.59,1,1,0,0,1-1.16.59,1.36,1.36,0,0,1,.37-0.62,1.15,1.15,0,0,1-.95.62c0-.72.43-1.59,1.3-1.3a1,1,0,0,0,.82.13,3.68,3.68,0,0,0,.07-1.38c0.09-1.28-.16-1.2-0.89-1.93a4.79,4.79,0,0,0-1.73-1.24c-0.72-.14-1.89.66-2.47,1a12.45,12.45,0,0,1-4.34,1.73,0.59,0.59,0,0,0,0-.22,6.29,6.29,0,0,0,1.84-3.45c-0.43,2.11-1.95,3.22-2,3.61a4.36,4.36,0,0,1-.41,1.1,3.85,3.85,0,0,1,1.56-.47c-0.16.9-1,.72-1.16,1.16s0.58,1,0,1.3h-2.32a3.23,3.23,0,0,0,.37-0.63,1.63,1.63,0,0,1-1.19.63,3.73,3.73,0,0,0,.3-0.59,1.21,1.21,0,0,1-1.07.59c0.14-.43.14-1,0.72-1s0.87,0.14,1.16-.29c0.58-.72-0.11-2.3-0.25-3.17a6.08,6.08,0,0,0-.18-1.74l0.14,2.6a6.93,6.93,0,0,1-1.59-1.3,2.34,2.34,0,0,1,.58-3.62,6,6,0,0,1,1.62-.95c-0.15-.43.21-0.76-0.31-0.89a0.74,0.74,0,0,1-.6.54l0.16-.72s-0.52,0-.42,1a0.73,0.73,0,0,1-.31-1h-0.29a1.21,1.21,0,0,1-.47,1,6.11,6.11,0,0,0,.18-1s-0.77.92-1.23,0.63a0.85,0.85,0,0,0,.43-0.71,3.61,3.61,0,0,0-.26-0.9,2.85,2.85,0,0,0,1.94.07,2.09,2.09,0,0,0,0,.49,2.06,2.06,0,0,1,1.59.14c-0.14-1-.72-1.16-1.3-1.88v0.58a1.24,1.24,0,0,1-1-.87l-0.43.29c-0.76-.45-1.33-1.52-0.24-1.46,0.65,0.08.1,0.59,0.1,0.59a17.45,17.45,0,0,1,2.32-.58,1,1,0,0,0-.8-0.47c0.51-.38,1-0.5,1.38.3a0.65,0.65,0,0,0,.49-1,1.21,1.21,0,0,1,1,.69c0.2,0,.4-0.17.35-0.89a1.56,1.56,0,0,1,.79.93,2,2,0,0,0,1.37-.29,1.08,1.08,0,0,1-.72,1,1.6,1.6,0,0,1,.37,1.34l-0.28-.08a8.21,8.21,0,0,1,.06,1.2h-0.29l0.43,1.3-0.29.43a22.53,22.53,0,0,1,3-.58,27,27,0,0,1,3.62-.58c0.87,0,.87.44,2,0.44v-0.72a1.38,1.38,0,0,0-1.16-1.3,6.54,6.54,0,0,0-1.59.43,9.46,9.46,0,0,1-2,.15,3.55,3.55,0,0,1-2.24-.83,1.31,1.31,0,0,0-.81,1,1.08,1.08,0,0,1,.15-1.5c-0.43-1.59.72-2.31,2.17-2.6h0Z" transform="translate(-177.22 -1069.2)"/>
      <path class="c" d="M221.85,1092c-0.29-.43-1.3-1.16-1-1.88s2.9-1.88,3.33-.29a5.09,5.09,0,0,1-.45,2,1.64,1.64,0,0,1,1.18-.27,2.1,2.1,0,0,1-1,1,8.84,8.84,0,0,1-.6,2.16h-1.88l0.29-.58-0.43.58h-0.73l0.58-.72a2.16,2.16,0,0,1-1.27.77c0.15-1.16.84-1.35,1.85-.91a2.82,2.82,0,0,0,.15-1.88h0Z" transform="translate(-177.22 -1069.2)"/>
      <path class="f" d="M219.89,1094.82h0c0.09-1.14.75-1.45,1.86-1a0.57,0.57,0,0,1,0-.27,2.25,2.25,0,0,0,.07-1.57,3.59,3.59,0,0,0-.33-0.38,1.61,1.61,0,0,1-.69-1.53,3.2,3.2,0,0,1,2.26-1.11,1.06,1.06,0,0,1,1.13.82,4.2,4.2,0,0,1-.38,1.83l-0.07.2a0.3,0.3,0,0,1,.14-0.12,1.33,1.33,0,0,1,1-.18,2,2,0,0,1-1,1.07,8.1,8.1,0,0,1-.58,2.14l-1.91,0,0.26-.62-0.38.61h-0.75l0.38-.52a1.66,1.66,0,0,1-1,.57h0Zm1.05-.6-0.37.54,0.7-.05,0.41-.56-0.24.61,1.85,0a10.21,10.21,0,0,0,.57-2.12,2.36,2.36,0,0,0,1-1,1.08,1.08,0,0,1-.26,0,1.22,1.22,0,0,0-.68.2,0.86,0.86,0,0,1-.2.1l0-.25a4.28,4.28,0,0,0,.38-1.79,1,1,0,0,0-1.07-.78,3.13,3.13,0,0,0-2.2,1.07,1.58,1.58,0,0,0,.68,1.46,3.44,3.44,0,0,1,.34.39,2.29,2.29,0,0,1-.06,1.62l-0.08.29a3.09,3.09,0,0,0-.9-0.19,1,1,0,0,0-.95,1.07,2.23,2.23,0,0,0,1.21-.76h0a0.58,0.58,0,0,1-.16.23h0Z" transform="translate(-177.22 -1069.2)"/>
      <path class="c" d="M214.1,1081.11c-0.19.12,0,.91,0.26,0.78s-0.12-.87-0.26-0.78h0Z" transform="translate(-177.22 -1069.2)"/>
      <path class="f" d="M214.29,1081.93a0.36,0.36,0,0,1-.28-0.32,0.53,0.53,0,0,1,.06-0.53,0.58,0.58,0,0,1,.44.48,0.28,0.28,0,0,1-.14.35l-0.08,0h0Zm-0.17-.8a0.46,0.46,0,0,0-.05.47,0.33,0.33,0,0,0,.22.28v0l0.05,0a0.23,0.23,0,0,0,.11-0.28,0.65,0.65,0,0,0-.33-0.45h0Z" transform="translate(-177.22 -1069.2)"/>
      <path class="c" d="M214.28,1080.85a2.77,2.77,0,0,0,1.62.88,0.78,0.78,0,0,1-.42-0.75,2,2,0,0,0,1.5.5,0.94,0.94,0,0,1-.5-0.54,2.69,2.69,0,0,0,1.37,0Z" transform="translate(-177.22 -1069.2)"/>
      <path class="f" d="M215.77,1081.73a2,2,0,0,1-1.23-.62l-0.27-.22a0,0,0,0,1,0,0,0,0,0,0,1,0,0l0.28,0.22a2,2,0,0,0,1.33.65,0.72,0.72,0,0,1-.45-0.73,2.13,2.13,0,0,0,1.52.48l-0.11,0a0.79,0.79,0,0,1-.41-0.48l0.15,0a2.39,2.39,0,0,0,1.24-.05,1.89,1.89,0,0,1-1.25.12l-0.12,0a1.14,1.14,0,0,0,.42.41l0.1,0.08a1.76,1.76,0,0,1-1.53-.44,1.07,1.07,0,0,0,.45.69h-0.16Z" transform="translate(-177.22 -1069.2)"/>
      <path class="c" d="M215,1085.27l0-.61a2,2,0,0,0,.69.94,3.28,3.28,0,0,1-.11-1.21Z" transform="translate(-177.22 -1069.2)"/>
      <path class="f" d="M215.71,1085.59a1.65,1.65,0,0,1-.73-0.92l0,0.6a0,0,0,0,1,0,0,0,0,0,0,1,0,0l0-.61a2.42,2.42,0,0,0,.72.91,2.82,2.82,0,0,1-.14-1.19c0.06,0,0,.55.17,1.21h0Z" transform="translate(-177.22 -1069.2)"/>
      <path class="c" d="M215.89,1084.53s0.79,1.45,1.18,1.21a1.5,1.5,0,0,1-.52-1.19,1.91,1.91,0,0,0,1,1.17,3.51,3.51,0,0,0-.3-1.32,3.26,3.26,0,0,0,1,1.16,0.64,0.64,0,0,0,.13-0.54Z" transform="translate(-177.22 -1069.2)"/>
      <path class="f" d="M217,1085.8h-0.05a3.39,3.39,0,0,1-1-1.25,0,0,0,0,1,0,0,0,0,0,0,1,0,0,3.44,3.44,0,0,0,1,1.22,0.16,0.16,0,0,0,.13,0,1.43,1.43,0,0,1-.53-1.17,2.4,2.4,0,0,0,1.09,1.15,4.21,4.21,0,0,0-.34-1.28h0a0.18,0.18,0,0,1,.06.08,3.3,3.3,0,0,0,.94,1,0.64,0.64,0,0,0,.1-0.5h0a0.42,0.42,0,0,1-.08.55,2.14,2.14,0,0,1-.9-0.94,2.51,2.51,0,0,1,.23,1.09,1.81,1.81,0,0,1-1.07-1.08,1.71,1.71,0,0,0,.54,1.07,0.15,0.15,0,0,1-.13.08h0Z" transform="translate(-177.22 -1069.2)"/>
      <path class="c" d="M215.27,1083.52l0.58,0.74,0.09-1a3.18,3.18,0,0,0,.67.44,3.62,3.62,0,0,0-.16-1.06,11.11,11.11,0,0,0,.82,1.13,8.61,8.61,0,0,0,.08-1.15,5.69,5.69,0,0,0,.78,1.59,0.17,0.17,0,0,0,.15-0.22Z" transform="translate(-177.22 -1069.2)"/>
      <path class="f" d="M215.88,1084.27l-0.64-.72a0,0,0,0,1,0,0,0,0,0,0,1,0,0l0.58,0.74,0-1a6.76,6.76,0,0,0,.7.41,4.68,4.68,0,0,0-.19-1c0.33,0.39.79,1.06,0.86,1.1s0-.61,0-1.12a6.77,6.77,0,0,0,.81,1.55,0.13,0.13,0,0,0,.1,0,0.19,0.19,0,0,0,0-.14c0.05,0,.09.1,0,0.18a0.18,0.18,0,0,1-.15.07h0a4.6,4.6,0,0,1-.81-1.6,2.53,2.53,0,0,1,0,1.17s-0.07,0-.86-1.15a2.4,2.4,0,0,1,.22,1,1.86,1.86,0,0,1-.73-0.42l0,1h0Z" transform="translate(-177.22 -1069.2)"/>
      <path class="c" d="M214.84,1082.23a5.4,5.4,0,0,0,1,.77,3.31,3.31,0,0,0-.37-1,3,3,0,0,0,.71.53c0.2,0,.07-0.63.07-0.63a3,3,0,0,0,.71.49,0.81,0.81,0,0,0,.05-0.49s0.4,0.4.42,0.4-0.08-1.14-.08-1.14a10.6,10.6,0,0,0,1,.92Z" transform="translate(-177.22 -1069.2)"/>
      <path class="f" d="M215.82,1083a4,4,0,0,1-1-.77,0,0,0,0,1,0,0,0,0,0,0,1,0,0,5.27,5.27,0,0,0,1,.76h0a4.31,4.31,0,0,0-.39-0.91,7.15,7.15,0,0,0,.75.48,0.84,0.84,0,0,0,0-.6,4.46,4.46,0,0,0,.74.45,0.77,0.77,0,0,0,0-.45c0.23,0.15.43,0.35,0.46,0.36s-0.08-.7-0.12-1.11c0.38,0.32.91,0.87,1,.89s-0.08.08-1-.87a4.33,4.33,0,0,1,.13,1.13A0.87,0.87,0,0,1,217,1082a0.46,0.46,0,0,1,0,.5,2.31,2.31,0,0,1-.73-0.48,0.75,0.75,0,0,1,0,.6l-0.09,0a2.94,2.94,0,0,1-.73-0.54,1.44,1.44,0,0,1,.41,1h0Z" transform="translate(-177.22 -1069.2)"/>
      <path class="c" d="M211.24,1082.52c0,0.06.19,1.23,2,.76,0.17-.09.1,0.33,0.09,0.45a1.89,1.89,0,0,1,1.54.12,1.25,1.25,0,0,0-.71-1.09,0.59,0.59,0,0,0-.43.08s-2.18,0-2.47-.31h0Z" transform="translate(-177.22 -1069.2)"/>
      <path class="f" d="M214.86,1083.87h0a1.29,1.29,0,0,0-.78-0.23,2.57,2.57,0,0,0-.68.1h-0.05a0.08,0.08,0,0,1,0,0v-0.08a0.75,0.75,0,0,0,0-.35,3.56,3.56,0,0,1-.84.12,1.15,1.15,0,0,1-1.23-.85v0c0.31,0.75,1,1,2,.7h0.11a0.63,0.63,0,0,1,0,.39v0.07a1.54,1.54,0,0,1,.71-0.15,1.37,1.37,0,0,1,.75.2,1.19,1.19,0,0,0-.69-1H214a0.55,0.55,0,0,0-.3.08,6.3,6.3,0,0,1-2.51-.32,0,0,0,0,1,0,0s0,0,0,0a5.82,5.82,0,0,0,2.39.3,1,1,0,0,1,.37-0.09h0.13a1.28,1.28,0,0,1,.74,1.11,0,0,0,0,1,0,0h0Z" transform="translate(-177.22 -1069.2)"/>
      <path class="c" d="M210.26,1090a2.68,2.68,0,0,1-.39.56,0.91,0.91,0,0,0,.82.29,0.67,0.67,0,0,0,.15-0.43,2.92,2.92,0,0,0,1.38,1.26,0.64,0.64,0,0,0,.87-0.58,3.09,3.09,0,0,0-.94-1.42c-0.72-.87-0.66-2.51-2-2.28a0.37,0.37,0,0,1-.19.23c0.11,0.21.17,0.39-.09,0.45,0.2,0.2.24,0.35,0,.45,0.16,0.21.35,0.29,0,.47a2,2,0,0,1,.49,1h0Z" transform="translate(-177.22 -1069.2)"/>
      <path class="f" d="M212.44,1091.7a0.71,0.71,0,0,1-.24,0,2.71,2.71,0,0,1-1.37-1.24,0.43,0.43,0,0,1-.13.41,0.2,0.2,0,0,1-.14,0h0a1.2,1.2,0,0,1-.72-0.34,2.55,2.55,0,0,1,.26-0.39,0.49,0.49,0,0,0,.13-0.2,1.94,1.94,0,0,0-.48-1,0.63,0.63,0,0,0,.2-0.21,0.25,0.25,0,0,0-.1-0.16l-0.09-.11a0.42,0.42,0,0,0,.18-0.18,0.34,0.34,0,0,0-.15-0.26,0.54,0.54,0,0,0,.17-0.15,0.42,0.42,0,0,0-.08-0.31,0.48,0.48,0,0,0,.19-0.25,0.73,0.73,0,0,1,.28-0.05c0.74,0,1,.63,1.27,1.29a3.9,3.9,0,0,0,.54,1,3.1,3.1,0,0,1,1,1.44,0.65,0.65,0,0,1-.67.65h0Zm-1.64-1.33a3,3,0,0,0,1.42,1.23,0.61,0.61,0,0,0,.83-0.55,3.07,3.07,0,0,0-.93-1.4,4,4,0,0,1-.55-1c-0.29-.71-0.56-1.38-1.45-1.23a0.29,0.29,0,0,1-.19.23,0.31,0.31,0,0,1,.1.32,0.26,0.26,0,0,1-.19.13,0.26,0.26,0,0,1,.18.27,0.28,0.28,0,0,1-.21.18,0.12,0.12,0,0,1,.1.06,0.28,0.28,0,0,1,.11.22,0.36,0.36,0,0,1-.23.2,1.62,1.62,0,0,1,.49.91,0.42,0.42,0,0,1-.13.28c-0.06.07-.14,0.18-0.26,0.35a1.13,1.13,0,0,0,.78.25,0.6,0.6,0,0,0,.14-0.41h0Z" transform="translate(-177.22 -1069.2)"/>
      <path class="c" d="M209.9,1077.7c-0.44.63-.48,7.57-0.35,9a2,2,0,0,1-1.47.07c0.1-.5.48-8.54,1.82-9h0Z" transform="translate(-177.22 -1069.2)"/>
      <path class="f" d="M208.79,1086.88a2.27,2.27,0,0,1-.72-0.11c0-.12,0-0.48.07-1,0.19-2.31.64-7.72,1.75-8.14-0.39.66-.45,7.52-0.3,9a1.35,1.35,0,0,1-.8.21h0Zm1.08-9.19c-1,.45-1.5,6-1.67,8.13,0,0.51-.07.84-0.09,0.94a4.73,4.73,0,0,0,.68.07,1.43,1.43,0,0,0,.75-0.17c-0.14-1.23-.12-8.3.34-9h0Z" transform="translate(-177.22 -1069.2)"/>
      <path class="c" d="M208.67,1091.92s-1.92.27-1.11-.87c0.69-.3.68,0.41,0.42,0.64a0.51,0.51,0,0,0,.57-0.48,0.61,0.61,0,0,1,.14-0.87c-1.34.3-1.52-.62-1-0.77,0.63,0,.43.24,0.68,0.42,0.45-.42.72-0.46,1,0a0.58,0.58,0,0,1,.68-0.33c0.44,0.74-.53.78-0.92,0.69a0.81,0.81,0,0,1,.09,1c0,0.25.2,0.29,0.51,0.39-0.66-1.82,2.33.49-.68,0.26l0,0.24a0.52,0.52,0,0,1,.5.36,0.4,0.4,0,0,1-.52.06,0.46,0.46,0,0,1-.12.54,0.66,0.66,0,0,1-.25-0.46c-0.13.16-.31,0.05-0.47-0.08,0.14-.34.54-0.18,0.51-0.67h0Z" transform="translate(-177.22 -1069.2)"/>
      <path class="c" d="M207,1086.37c0.11-.52,1.33-0.46.75,0.11a1.59,1.59,0,0,0,2,.18c-0.38-.71.65-0.56,0.6,0-0.12,1-3.49.84-3.36-.27h0Z" transform="translate(-177.22 -1069.2)"/>
      <path class="c" d="M229.22,1095.58a23.14,23.14,0,0,0,1.36,2.66,1.17,1.17,0,0,0,1.42-.07s0.53,0.55.75,0.71a0.46,0.46,0,0,0,.21-0.17,2,2,0,0,1-.66-0.8,1.55,1.55,0,0,0,.19-1.28c-0.63-1.06-2.74-.64-3.26-1h0Z" transform="translate(-177.22 -1069.2)"/>
      <path class="f" d="M232.73,1098.91h0c-0.21-.16-0.73-0.69-0.75-0.71a1.18,1.18,0,0,1-1.41.08,9.29,9.29,0,0,1-.91-1.72c-0.17-.37-0.33-0.71-0.45-0.94a4,4,0,0,0,1.12.18c0.8,0.07,1.79.15,2.2,0.83a1.58,1.58,0,0,1-.19,1.32,1.41,1.41,0,0,0,.46.58l0.2,0.19a0.34,0.34,0,0,1-.22.22h0Zm-0.76-.77c0.05,0,.56.52,0.78,0.7a0.44,0.44,0,0,0,.17-0.15,1,1,0,0,1-.19-0.14,1.34,1.34,0,0,1-.47-0.63,1.58,1.58,0,0,0,.19-1.29c-0.39-.64-1.36-0.73-2.14-0.8a2.43,2.43,0,0,1-1.1-.23,4.13,4.13,0,0,1,.5.91,9.43,9.43,0,0,0,.9,1.71,1.22,1.22,0,0,0,1.37-.07h0Z" transform="translate(-177.22 -1069.2)"/>
      <path class="c" d="M206.6,1077.16a23.19,23.19,0,0,0-1.36-2.66,1.17,1.17,0,0,0-1.42.07s-0.53-.55-0.74-0.71a0.45,0.45,0,0,0-.21.16,2,2,0,0,1,.66.8,1.55,1.55,0,0,0-.19,1.28c0.63,1.06,2.74.64,3.26,1h0Z" transform="translate(-177.22 -1069.2)"/>
      <path class="f" d="M206.58,1077.18a2.47,2.47,0,0,0-1.07-.22c-0.8-.07-1.79-0.15-2.2-0.83a1.58,1.58,0,0,1,.19-1.32,1.4,1.4,0,0,0-.45-0.58l-0.2-.19a0.34,0.34,0,0,1,.22-0.22,8.44,8.44,0,0,1,.78.72,1.19,1.19,0,0,1,1.41-.08,9.29,9.29,0,0,1,.91,1.72c0.17,0.37.33,0.71,0.45,0.95l0,0h0Zm-3.52-3.29a0.53,0.53,0,0,0-.16.16,1,1,0,0,1,.19.14,1.33,1.33,0,0,1,.47.63,1.58,1.58,0,0,0-.19,1.28c0.39,0.64,1.36.73,2.14,0.8a3.35,3.35,0,0,1,1,.18c-0.12-.23-0.26-0.53-0.4-0.85a9.38,9.38,0,0,0-.9-1.7,1.22,1.22,0,0,0-1.37.07c-0.05,0-.58-0.54-0.79-0.71h0Z" transform="translate(-177.22 -1069.2)"/>
      <path class="c" d="M206.39,1095.48a23.46,23.46,0,0,0-2.66,1.36,1.17,1.17,0,0,0,.07,1.42s-0.55.53-.71,0.75a0.45,0.45,0,0,0,.17.2,2,2,0,0,1,.8-0.66,1.54,1.54,0,0,0,1.28.19c1.06-.63.64-2.74,1-3.26h0Z" transform="translate(-177.22 -1069.2)"/>
      <path class="f" d="M203.26,1099.24h0a0.49,0.49,0,0,1-.18-0.22,8.39,8.39,0,0,1,.72-0.78,0.71,0.71,0,0,1-.28-0.58,1.14,1.14,0,0,1,.2-0.83,9.3,9.3,0,0,1,1.72-.91c0.37-.17.71-0.33,0.95-0.45a4.07,4.07,0,0,0-.18,1.12c-0.07.8-.15,1.79-0.83,2.19a1.32,1.32,0,0,1-.44.07h0a1.56,1.56,0,0,1-.88-0.26,1.4,1.4,0,0,0-.57.45l-0.19.2,0,0h0Zm3.1-3.78a4.2,4.2,0,0,1-.91.5,9.45,9.45,0,0,0-1.7.9,1.08,1.08,0,0,0-.19.78,0.85,0.85,0,0,0,.26.59c0,0.05-.54.58-0.71,0.79a0.51,0.51,0,0,0,.14.15l0.16-.18a1.34,1.34,0,0,1,.63-0.47,1.63,1.63,0,0,0,1.28.19c0.64-.38.73-1.36,0.8-2.14a2.44,2.44,0,0,1,.23-1.1h0Z" transform="translate(-177.22 -1069.2)"/>
      <path class="c" d="M229.27,1077.16a23.11,23.11,0,0,1,1.36-2.66,1.17,1.17,0,0,1,1.42.07s0.53-.55.75-0.71a0.45,0.45,0,0,1,.21.16,2,2,0,0,0-.66.8,1.55,1.55,0,0,1,.19,1.28c-0.63,1.06-2.74.64-3.26,1h0Z" transform="translate(-177.22 -1069.2)"/>
      <path class="f" d="M229.29,1077.18l0,0c0.13-.23.28-0.58,0.45-0.95a9.36,9.36,0,0,1,.91-1.72,1.26,1.26,0,0,1,1.46.08,4.34,4.34,0,0,1,.7-0.72,0.44,0.44,0,0,1,.25.17,0.93,0.93,0,0,1-.2.22,1.29,1.29,0,0,0-.45.61,1.51,1.51,0,0,1,.19,1.28c-0.41.68-1.4,0.77-2.2,0.84a2.45,2.45,0,0,0-1.07.22h0Zm2-2.85a1,1,0,0,0-.64.2,9.43,9.43,0,0,0-.9,1.7c-0.15.32-.29,0.62-0.4,0.85a3.36,3.36,0,0,1,1-.17c0.78-.07,1.76-0.15,2.14-0.8a1.51,1.51,0,0,0-.19-1.25,1.26,1.26,0,0,1,.46-0.66L233,1074a0.84,0.84,0,0,0-.19-0.12c-0.18.16-.71,0.7-0.71,0.7a1.12,1.12,0,0,0-.77-0.27h0Z" transform="translate(-177.22 -1069.2)"/>
      <path class="c" d="M207.56,1087.55a1,1,0,0,0,1,.32,1.56,1.56,0,0,0,1.11-.24c0-.27-0.47,0-1,0a2.27,2.27,0,0,0-1.14,0h0Z" transform="translate(-177.22 -1069.2)"/>
      <path class="c" d="M208.62,1087.9h0a1.84,1.84,0,0,1-1-.22,0.16,0.16,0,0,1,0-.13,0.58,0.58,0,0,1,.59-0.06,3.79,3.79,0,0,0,.58.07h0a3.26,3.26,0,0,0,.54-0.05,0.62,0.62,0,0,1,.46,0,0.15,0.15,0,0,1,0,.12,1.55,1.55,0,0,1-1.12.27h0Zm-0.85-.39a0.22,0.22,0,0,0-.18.06,0.15,0.15,0,0,0,0,.07,1.63,1.63,0,0,0,1,.2l0,0v0a1.56,1.56,0,0,0,1.06-.21,0.09,0.09,0,0,0,0-.07,0.68,0.68,0,0,0-.41,0,3.38,3.38,0,0,1-.54.05,3.9,3.9,0,0,1-.6-0.07,2.11,2.11,0,0,0-.34,0h0Z" transform="translate(-177.22 -1069.2)"/>
      <path class="c" d="M207.6,1088.16a1.13,1.13,0,0,0,1,.27,1.45,1.45,0,0,0,1-.23c-0.08-.23-0.59,0-1,0a1.79,1.79,0,0,0-1,0h0Z" transform="translate(-177.22 -1069.2)"/>
      <path class="c" d="M208.68,1088.47h-0.09a1.09,1.09,0,0,1-1-.3,0.23,0.23,0,0,1,.22-0.11,2,2,0,0,1,.32,0,2.56,2.56,0,0,0,.45.05,3.11,3.11,0,0,0,.44,0,2.75,2.75,0,0,1,.36,0,0.26,0.26,0,0,1,.27.14,1.24,1.24,0,0,1-.95.27h0Zm-0.89-.35a0.17,0.17,0,0,0-.16.06,1.16,1.16,0,0,0,1,.22h0.09a1.35,1.35,0,0,0,.89-0.21,0.79,0.79,0,0,0-.57,0,3.36,3.36,0,0,1-.41,0,1.62,1.62,0,0,1-.49-0.05,1.86,1.86,0,0,0-.31,0h0Z" transform="translate(-177.22 -1069.2)"/>
      <path class="c" d="M207.75,1088.71a0.89,0.89,0,0,0,.85.27,1.33,1.33,0,0,0,1-.33,2.6,2.6,0,0,0-1,.06,1.72,1.72,0,0,0-.86,0h0Z" transform="translate(-177.22 -1069.2)"/>
      <path class="c" d="M208.61,1089h0a1.4,1.4,0,0,1-.85-0.21,0.11,0.11,0,0,1,0-.1c0-.08.11-0.08,0.15-0.08l0.26,0a3.23,3.23,0,0,0,.42,0,3.93,3.93,0,0,0,.54-0.06,2.84,2.84,0,0,1,.4,0,0.15,0.15,0,0,1,.16.07,1.25,1.25,0,0,1-1,.36h0Zm-0.74-.33c-0.06,0-.09,0-0.09,0a1.1,1.1,0,0,0,.82.24v0a1.37,1.37,0,0,0,1-.3,1.92,1.92,0,0,0-.48,0,4.3,4.3,0,0,1-.5.06l-0.48,0-0.25,0h0Z" transform="translate(-177.22 -1069.2)"/>
      <path class="c" d="M207.7,1089.27a1.33,1.33,0,0,0,1,.17,1.31,1.31,0,0,0,1-.34,3.48,3.48,0,0,0-1,.1,2.3,2.3,0,0,0-1,.07h0Z" transform="translate(-177.22 -1069.2)"/>
      <path class="c" d="M208.44,1089.48a1,1,0,0,1-.77-0.2,0.34,0.34,0,0,1,.35-0.11h0.68a4.25,4.25,0,0,0,.56-0.08,2.11,2.11,0,0,1,.34-0.05,0.1,0.1,0,0,1,.11.06,1.24,1.24,0,0,1-1,.38h-0.28Zm-0.42-.25a0.58,0.58,0,0,0-.28,0,0.93,0.93,0,0,0,.71.15h0.27a1.31,1.31,0,0,0,.94-0.31,2.62,2.62,0,0,0-.38.06,4.4,4.4,0,0,1-.57.08H208Z" transform="translate(-177.22 -1069.2)"/>
    </g>
  </g>
</svg>
