<svg xmlns="http://www.w3.org/2000/svg" xmlns:xlink="http://www.w3.org/1999/xlink" viewBox="0 0 58.92 34.37">
  <defs>
    <style>
      .a {
        fill: none;
      }

      .b {
        clip-path: url(#a);
      }

      .c {
        fill: #efd928;
      }

      .d {
        fill: #1f00af;
      }

      .e {
        fill: #d00524;
      }

      .f {
        fill: #f9f92b;
      }

      .g {
        fill: #7f6332;
      }

      .h {
        fill: #c11b2c;
      }

      .i {
        fill: #285f37;
      }

      .j {
        fill: #2e59a0;
      }
    </style>
    <clipPath id="a" transform="translate(-668.7 -778.89)">
      <rect class="a" x="668.7" y="778.89" width="58.92" height="34.37"/>
    </clipPath>
  </defs>
  <title>Moldova</title>
  <g class="b">
    <rect class="c" width="58.92" height="34.37"/>
    <rect class="d" width="19.64" height="34.37"/>
    <rect class="e" x="39.28" width="19.64" height="34.37"/>
    <g class="b">
      <path d="M696.19,786.59a0.49,0.49,0,0,0-.29.08,0.24,0.24,0,0,1,.17.23v0.28h-0.28a0.24,0.24,0,0,1-.23-0.17,0.57,0.57,0,0,0,0,.58,0.24,0.24,0,0,1,.23-0.17h0.28v1.34a0.24,0.24,0,0,1-.16.22,0.28,0.28,0,1,0,.56,0,0.24,0.24,0,0,1-.16-0.22v-1.34h0.28a0.24,0.24,0,0,1,.23.17,0.49,0.49,0,0,0,.08-0.29,0.48,0.48,0,0,0-.08-0.29,0.24,0.24,0,0,1-.23.17h-0.28V786.9a0.24,0.24,0,0,1,.17-0.23,0.48,0.48,0,0,0-.29-0.08" transform="translate(-668.7 -778.89)"/>
      <path class="f" d="M696.19,786.65a0.53,0.53,0,0,0-.17,0,0.29,0.29,0,0,1,.1.22v0.28h0v0h-0.33a0.29,0.29,0,0,1-.22-0.1,0.53,0.53,0,0,0,0,.17,0.52,0.52,0,0,0,0,.17,0.3,0.3,0,0,1,.22-0.1h0.34v0h0v1.34a0.27,0.27,0,0,1-.1.21,0.49,0.49,0,0,1,.11.1,0.57,0.57,0,0,1,.06.1,0.48,0.48,0,0,1,.06-0.1,0.46,0.46,0,0,1,.11-0.1,0.28,0.28,0,0,1-.1-0.21v-1.4h0.34a0.3,0.3,0,0,1,.22.1,0.52,0.52,0,0,0,0-.17,0.59,0.59,0,0,0,0-.17,0.29,0.29,0,0,1-.22.11h-0.34v0h0V786.9a0.29,0.29,0,0,1,.1-0.22,0.51,0.51,0,0,0-.17,0" transform="translate(-668.7 -778.89)"/>
      <polygon class="g" points="27.7 12.64 27.24 12.53 26.27 12.02 25.66 11.99 25.61 10.8 24.44 9.85 23.24 11.15 23.07 11.53 23.13 23.3 23.9 22.36 24.06 22.4 24.86 21.54 25.55 19.82 25.75 19.11 26.66 20.19 26.32 20.83 26.63 20.81 26.66 21.08 26.95 20.95 27.03 21.32 27.67 20.68 28.55 21.11 26.87 24.11 26.27 24.56 27.35 24.96 28.46 23.67 28.3 24.52 27.97 25.35 29.32 26.13 30.79 25.26 30.07 23.74 30.3 23.64 31.25 25.01 32.29 24.5 30.94 22.93 30.06 21.03 30.99 20.72 31.63 21.33 31.72 20.94 32.06 21.1 32.02 20.77 32.35 20.84 31.94 20.19 32.99 19.31 33.65 21.38 34.63 22.49 34.83 22.47 35.54 23.34 35.53 11.21 34.23 9.84 32.95 10.87 33.01 11.99 32.44 12.01 31.59 12.45 31.11 12.6 30.89 12.65 30.6 12.33 30.2 11.55 30.18 10.78 30.42 10.27 30.38 9.8 30.59 9.8 30.45 9.48 30.64 9.4 30.36 9.15 30.46 9.04 29.38 8.57 28.56 8.52 28.34 8.62 28.23 8.81 28.45 9.43 28.21 9.66 28.44 10.11 28.45 11.1 28.27 11.93 27.9 12.56 27.7 12.64"/>
      <polygon class="h" points="26.46 20.85 25.64 22.09 25.25 22.08 24.84 22.27 24.71 22.71 24.77 22.92 25.21 23.4 25.57 23.2 25.86 22.88 25.93 22.61 26.96 21.27 26.91 20.93 26.68 21.08 26.6 20.8 26.46 20.85"/>
      <polygon class="h" points="31.66 21.22 32.75 22.69 32.86 22.98 33.33 23.41 33.48 23.37 34 22.76 33.88 22.35 33.39 22.05 33.02 22.08 32.2 20.85 32.05 20.79 32 21.03 31.76 20.96 31.66 21.22"/>
      <path d="M697.51,787.35a0.89,0.89,0,0,0-.45.08,0.53,0.53,0,0,0-.13.19,0.49,0.49,0,0,1-.31.07,0.5,0.5,0,0,0-.49.5,0.43,0.43,0,0,1,.33-0.18,0.7,0.7,0,0,1,.62.26,0,0,0,0,1,0,0c-0.23,0-.58-0.13-0.76-0.14v0.07h0a1.09,1.09,0,0,1,.83,1.24,3,3,0,0,1-.35,1.59,1.52,1.52,0,0,1-.41.42,3.76,3.76,0,0,1-.68-0.27,2.43,2.43,0,0,0-1.2-.51v-0.4c0-.21.08-0.4,0.08-0.61-0.22-.06-0.84-0.81-1.4-1.14a3.26,3.26,0,0,0-1.48,1.83s0,8.76,0,11.81a1.38,1.38,0,0,1-.11.42,3.25,3.25,0,0,0,1-1.18v0.14a2.4,2.4,0,0,0,.95-1s0,0.14,0,.14a9,9,0,0,0,.93-2.49l0-.45a6.23,6.23,0,0,1-.77,2.1v-7.48l0.33,0.3,0.49-.46v-0.35l-0.44.41v-1.06l0.14-.23a3.17,3.17,0,0,0,.57.73,0.83,0.83,0,0,1,.34-0.35,0.72,0.72,0,0,0,.26.35,2.08,2.08,0,0,1,.39-0.32,1,1,0,0,0-.4.15,0.72,0.72,0,0,1-.12-0.42,1.55,1.55,0,0,0-.5.35,1.19,1.19,0,0,1-.25-0.47l0.31,0a1.14,1.14,0,0,1,.44.13l0.53,0.26a1.92,1.92,0,0,0,.63.12,2.91,2.91,0,0,1-.35.21,2.32,2.32,0,0,0,.86-0.18,3.12,3.12,0,0,0,.37-0.26,1.34,1.34,0,0,1-.24.43,1.15,1.15,0,0,0,.85-0.44,1.43,1.43,0,0,0,.19.36,1.37,1.37,0,0,0,.19-0.36,1.16,1.16,0,0,0,.86.44,1.34,1.34,0,0,1-.24-0.43,3.12,3.12,0,0,0,.37.26,2.32,2.32,0,0,0,.86.18,3,3,0,0,1-.36-0.21,2,2,0,0,0,.63-0.12l0.53-.26a1.14,1.14,0,0,1,.44-0.13l0.31,0a1.19,1.19,0,0,1-.25.47,1.55,1.55,0,0,0-.5-0.35,0.72,0.72,0,0,1-.12.42,1,1,0,0,0-.4-0.15,2.08,2.08,0,0,1,.39.32,0.71,0.71,0,0,0,.26-0.35,0.83,0.83,0,0,1,.34.35,3.1,3.1,0,0,0,.57-0.73l0.14,0.23v1.06l-0.44-.41v0.35l0.49,0.46,0.33-.3v7.48a6.23,6.23,0,0,1-.77-2.1l0,0.45a9,9,0,0,0,.93,2.49s0-.1,0-0.14a2.4,2.4,0,0,0,.95,1v-0.14a3.25,3.25,0,0,0,1,1.18,1.38,1.38,0,0,1-.11-0.42c0-3.05,0-11.81,0-11.81a3.26,3.26,0,0,0-1.48-1.83c-0.57.33-1.18,1.08-1.4,1.14,0,0.21.08,0.4,0.08,0.61v0.4a2.43,2.43,0,0,0-1.2.52,3.78,3.78,0,0,1-.69.27,1.48,1.48,0,0,1-.41-0.42,2.54,2.54,0,0,1-.34-1.34c0-.2.23-0.43,0.23-0.6a2.81,2.81,0,0,0,0-.4,0.62,0.62,0,0,1,.22.15,0.79,0.79,0,0,0-.13-0.48,0.37,0.37,0,0,1,.24-0.06,1,1,0,0,0-.32-0.3,0.16,0.16,0,0,1,.07-0.06,0.83,0.83,0,0,1,.23-0.08l-0.26-.07a6.36,6.36,0,0,1-.72-0.29,2.12,2.12,0,0,0-1-.23m0,0.12h0.11a2.72,2.72,0,0,1,1.14.38l0.29,0.12a0.36,0.36,0,0,0-.11.14,0.41,0.41,0,0,1,.27.19,0.26,0.26,0,0,0-.2.12,0.26,0.26,0,0,1,.2.25l-0.25-.08a3.17,3.17,0,0,1,.06.58,3.63,3.63,0,0,0-.22.6,2.32,2.32,0,0,0,.35,1.39,1.09,1.09,0,0,0,.2.3,1.17,1.17,0,0,1-.74-0.77v-1h-0.11v1a0.66,0.66,0,0,0,0,.28,3.63,3.63,0,0,0,.29.66,1.08,1.08,0,0,1-.59-0.57v-1.36h-0.11v1.38l0,0.09a0.15,0.15,0,1,1-.3,0l0-.09v-1.38h-0.11V791a1.08,1.08,0,0,1-.59.57,3.63,3.63,0,0,0,.29-0.66,0.66,0.66,0,0,0,0-.28v-1h-0.11v1a1.16,1.16,0,0,1-.73.77,1.13,1.13,0,0,0,.2-0.3,2.79,2.79,0,0,0,.36-1.63,1.7,1.7,0,0,0-.15-0.81c0-.06-0.07-0.21.16-0.21a1.11,1.11,0,0,1,.38.21,0.37,0.37,0,0,0-.14-0.26,0.16,0.16,0,0,1-.06-0.11,0.23,0.23,0,0,1,.1-0.14,0.7,0.7,0,0,1-.46-0.32s0-.08.13-0.08,0.35,0.16.54,0.16,0.2,0,.35,0,0.55,0.34.68,0.33a1.3,1.3,0,0,0-.72-0.43l-0.34,0c-0.14,0-.29-0.13-0.44-0.13a0.51,0.51,0,0,1-.24,0,0.09,0.09,0,0,1,0-.11,0.49,0.49,0,0,1,.35-0.1h0.13M693.14,789h0a6.38,6.38,0,0,0,1,.8v0.94a1.6,1.6,0,0,1-.54-0.54v-0.1a0.26,0.26,0,0,1,.09-0.19l-0.11,0a0.33,0.33,0,0,0-.09.22v0.06l0,0,0,0-0.28.31-0.33-.51v-0.12a0.44,0.44,0,0,1,.12-0.24l-0.11,0a0.47,0.47,0,0,0-.12.26v0.1l-0.38.39-0.2-.42a4.66,4.66,0,0,1,1-.95m9.76,0a4.69,4.69,0,0,1,1,.95l-0.19.42-0.38-.39v-0.1a0.47,0.47,0,0,0-.12-0.26l-0.11,0a0.44,0.44,0,0,1,.12.24V790l-0.33.51-0.28-.31,0,0,0,0V790a0.33,0.33,0,0,0-.09-0.22l-0.11,0a0.26,0.26,0,0,1,.09.19v0.1a1.59,1.59,0,0,1-.54.54v-0.94a6.33,6.33,0,0,0,1-.8h0ZM692,790.12l0.18,0.32V791l-0.27.25v-0.86a0.66,0.66,0,0,1,.09-0.29m12,0a0.66,0.66,0,0,1,.09.29v0.86l-0.27-.25v-0.58Zm-11.26.07,0.31,0.47V791l-0.31.29v-1.12Zm10.55,0v1.12L703,791v-0.36Zm-10.66.08v1l-0.31-.29V790.6Zm10.77,0,0.31,0.33V791l-0.31.29v-1Zm-9.82.07a1.59,1.59,0,0,0,.46.53,1.65,1.65,0,0,1-.46.46v-1Zm8.87,0v1a1.64,1.64,0,0,1-.46-0.46,1.59,1.59,0,0,0,.46-0.53m-9,.05v0.91l-0.31-.29V790.7Zm9.08,0,0.31,0.3V791l-0.31.29V790.4Zm-10.35,1v0.91l-0.27-.25v-0.4Zm11.61,0,0.27,0.25V792l-0.27.25v-0.91Zm-11.5,0,0.18,0.17,0.13,0.12V792l-0.13.13-0.18.16v-0.9Zm0.73,0v0.9l-0.18-.16-0.13-.13v-0.32l0.13-.12Zm0.11,0,0.31,0.29V792l-0.13.13-0.18.16v-0.9Zm0.73,0v0.91l-0.18-.17-0.13-.13v-0.3a1.28,1.28,0,0,0,.31-0.31m8.24,0a1.28,1.28,0,0,0,.31.31V792l-0.13.13-0.18.17v-0.91h0Zm0.73,0v0.9l-0.18-.16-0.13-.13v-0.32Zm0.11,0,0.18,0.17,0.13,0.13V792l-0.13.13-0.18.16v-0.9Zm0.73,0v0.9l-0.18-.16L703.4,792v-0.32l0.13-.12Zm-10.93,1,0.33,0.31,0.33-.3v7.48l0,0.61-0.7.7v-8.8Zm10.47,0v8.8l-0.69-.7,0-.61v-7.48l0.33,0.3Zm-10.66,0v8.52a1.85,1.85,0,0,1-.65.93v-9.45l0.32,0.3Zm10.85,0,0.33,0.3,0.32-.3v9.45a1.85,1.85,0,0,1-.65-0.93v-8.52Zm-8.14,6.69a5.12,5.12,0,0,1-.44.75H695c-0.06.08-.5,0.71-0.63,0.95s-0.22.13-.42,0.13a1.17,1.17,0,0,0-.6.37,0.79,0.79,0,0,0-.11.36,0.64,0.64,0,0,0,.13.29,0.15,0.15,0,0,1,0-.08l0.39,0.48a0.27,0.27,0,0,0,.27,0,2.32,2.32,0,0,0,.44-0.44c0.07-.1.08-0.22,0.16-0.33l0.93-1.25s0,0.08,0,.13a4.37,4.37,0,0,1,.81-0.82l-0.18-.12a5.83,5.83,0,0,1-.54.56s-0.06-.23-0.09-0.32a0.64,0.64,0,0,1-.24.12s0-.16,0-0.26a0.53,0.53,0,0,1-.28.06,1.41,1.41,0,0,0,.34-0.53l-0.13-.06h0Zm5.44,0-0.13.06a1.41,1.41,0,0,0,.34.53,0.54,0.54,0,0,1-.29-0.06l0,0.26a0.65,0.65,0,0,1-.24-0.12c0,0.08-.09.32-0.09,0.32a5.82,5.82,0,0,1-.54-0.56l-0.18.12a4.31,4.31,0,0,1,.81.82l0-.13,0.93,1.25c0.08,0.11.09,0.23,0.16,0.33a2.31,2.31,0,0,0,.44.44,0.27,0.27,0,0,0,.27,0l0.39-.48a0.15,0.15,0,0,1,0,.08,0.64,0.64,0,0,0,.13-0.29,0.77,0.77,0,0,0-.11-0.36,1.16,1.16,0,0,0-.6-0.37c-0.2,0-.29.1-0.42-0.12s-0.57-.87-0.63-0.95h0.18a5.11,5.11,0,0,1-.44-0.75m-5.49.72a0.58,0.58,0,0,0,.07.29l0.24-.16,0,0.19-1,1.33a1.34,1.34,0,0,0-.13.35,0.19,0.19,0,0,1-.11-0.14c0-.09,0-0.2,0-0.2a0.31,0.31,0,0,1-.22.09,3.87,3.87,0,0,0,.22-0.38,1.28,1.28,0,0,1-.49.12c-0.2.06-.26,0.15-0.32,0.14a0.09,0.09,0,0,1-.06-0.1A0.87,0.87,0,0,1,694,801a0.71,0.71,0,0,0,.44,0l0.76-1.18,0.07,0m5.53,0,0.07,0,0.76,1.18a0.71,0.71,0,0,0,.44,0,0.86,0.86,0,0,1,.45.29,0.09,0.09,0,0,1-.06.1c-0.06,0-.12-0.08-0.32-0.14a1.27,1.27,0,0,1-.49-0.12,3.9,3.9,0,0,0,.22.38,0.3,0.3,0,0,1-.21-0.09s0,0.11,0,.2a0.19,0.19,0,0,1-.11.14,1.29,1.29,0,0,0-.13-0.35l-1-1.33c0-.11,0-0.19,0-0.19l0.24,0.16a0.58,0.58,0,0,0,.07-0.29m-3.62.16s-1.31,3-2.47,3.46c0,0,.5.21,1.12,0.54l0.28,0.15,0.24-.31c0.37-.49.73-1.07,0.73-1.07a3,3,0,0,1-.5,1.18l-0.21.35,0.25,0.15a1.42,1.42,0,0,0,2.81,0l0.25-.15-0.21-.35a3.07,3.07,0,0,1-.5-1.18s0.36,0.57.73,1.07l0.24,0.31,0.28-.15c0.62-.32,1.13-0.54,1.13-0.54-1.16-.46-2.47-3.46-2.47-3.46l-0.19.06s1,2.59,2.06,3.38a7.84,7.84,0,0,0-.78.29,11,11,0,0,1-1-1.41,7.4,7.4,0,0,1-.56-1.42,6.3,6.3,0,0,0,.78,3.2,1.27,1.27,0,0,1-2.36,0,6.3,6.3,0,0,0,.78-3.2,7.4,7.4,0,0,1-.56,1.42,11,11,0,0,1-1,1.41,8,8,0,0,0-.78-0.29c1-.79,2.06-3.38,2.06-3.38Zm-3.41,1.44,0,0a0,0,0,0,1,0,0l-0.11.09a0,0,0,0,1-.05,0,0,0,0,0,1,0,0l0.11-.1h0m8.54,0h0l0.11,0.1a0,0,0,0,1,0,0,0,0,0,0,1-.05,0l-0.11-.09a0,0,0,0,1,0,0l0,0m-8.42.1a0.09,0.09,0,0,1,.08,0,0.09,0.09,0,0,1,0,.12l-0.26.23a0.09,0.09,0,0,1-.12-0.13l0.26-.23,0,0m8.29,0h0l0,0,0.26,0.23a0.09,0.09,0,0,1-.12.13l-0.26-.23a0.08,0.08,0,0,1,0-.12,0.09,0.09,0,0,1,.05,0m-8.14.18a0.1,0.1,0,0,1,.08,0,0.09,0.09,0,0,1,0,.12l-0.27.23a0.08,0.08,0,0,1-.12,0,0.09,0.09,0,0,1,0-.12l0.26-.23,0,0m8,0h0l0,0,0.26,0.23a0.09,0.09,0,0,1,0,.12,0.08,0.08,0,0,1-.12,0l-0.26-.23a0.09,0.09,0,0,1,0-.12l0.05,0m-7.82.17a0.09,0.09,0,0,1,.08,0,0.09,0.09,0,0,1,0,.12l-0.26.23a0.09,0.09,0,0,1-.12,0,0.09,0.09,0,0,1,0-.12l0.27-.23,0,0m7.66,0h0l0,0,0.27,0.23a0.08,0.08,0,0,1,0,.12,0.08,0.08,0,0,1-.12,0l-0.26-.23a0.08,0.08,0,0,1,0-.12l0.05,0" transform="translate(-668.7 -778.89)"/>
      <polygon points="25.75 23.08 26.36 23.41 26.21 24.09 25.6 23.76 25.75 23.08"/>
      <path d="M691.6,795.46l-0.22.1,2.48,5.44h0.26Zm2.93,6.41-0.18.19,0.11,0.25,0.22-.1Z" transform="translate(-668.7 -778.89)"/>
      <polygon class="f" points="25.83 23.27 26.21 23.48 26.12 23.9 25.74 23.69 25.83 23.27"/>
      <path d="M692.37,799.75a1.33,1.33,0,0,0,.37.49,1,1,0,0,0-.35.07,1.89,1.89,0,0,0,.87.45,0.65,0.65,0,0,0,.5-0.14l-0.07-.36a1.36,1.36,0,0,0-.54-0.37,3.63,3.63,0,0,0-.79-0.14" transform="translate(-668.7 -778.89)"/>
      <path d="M694,799a1.31,1.31,0,0,0-.37.53,1.1,1.1,0,0,0,.05.61l0.24,0.45a1.34,1.34,0,0,0,.48-0.45,1.18,1.18,0,0,0,.09-0.63,1.54,1.54,0,0,0-.3.14A1.1,1.1,0,0,0,694,799" transform="translate(-668.7 -778.89)"/>
      <path d="M693,798.86a2,2,0,0,1-.65.09,1,1,0,0,1-.56-0.27,0.81,0.81,0,0,1,.38-0.15,1.23,1.23,0,0,1-.34-0.39,1,1,0,0,1,.53,0,1.34,1.34,0,0,1,.47.37Z" transform="translate(-668.7 -778.89)"/>
      <path d="M693.13,797.25a1.09,1.09,0,0,1,.13.46,1.15,1.15,0,0,1,.24-0.2,2.18,2.18,0,0,1,0,.89,0.83,0.83,0,0,1-.45.47l-0.37-.73a0.81,0.81,0,0,1,.06-0.48,1.51,1.51,0,0,1,.39-0.4h0Z" transform="translate(-668.7 -778.89)"/>
      <path d="M691,796.35a1.57,1.57,0,0,1,.68.1,0.66,0.66,0,0,1,.36.32l0.13,0.36a1.16,1.16,0,0,1-.69,0,1.28,1.28,0,0,1-.53-0.48,0.68,0.68,0,0,1,.29-0.05,0.77,0.77,0,0,1-.24-0.28" transform="translate(-668.7 -778.89)"/>
      <path d="M692.11,795.69a0.84,0.84,0,0,1,.16.43,0.73,0.73,0,0,1,.24-0.26,2.06,2.06,0,0,1,.16.83,0.87,0.87,0,0,1-.33.55l-0.36-.68a1.1,1.1,0,0,1-.08-0.5,0.68,0.68,0,0,1,.22-0.37" transform="translate(-668.7 -778.89)"/>
      <path d="M690.88,794.38a1.16,1.16,0,0,0,0,.59,0.68,0.68,0,0,0,.16.23,1.07,1.07,0,0,0-.47-0.13,1.24,1.24,0,0,0,.34.59,1,1,0,0,0,.61.14,1.21,1.21,0,0,0,.23-0.67,1.6,1.6,0,0,0-.29-0.72,1.32,1.32,0,0,0-.12.4A1.51,1.51,0,0,0,690.88,794.38Z" transform="translate(-668.7 -778.89)"/>
      <path class="i" d="M691,794.61a1,1,0,0,0,.08.42,0.57,0.57,0,0,0,.29.22,1,1,0,0,0-.08-0.43,0.55,0.55,0,0,0-.29-0.21" transform="translate(-668.7 -778.89)"/>
      <path class="i" d="M690.81,795.22a0.81,0.81,0,0,1,.37.12,0.66,0.66,0,0,1,.19.32,0.46,0.46,0,0,1-.29-0.09,1.39,1.39,0,0,1-.27-0.35" transform="translate(-668.7 -778.89)"/>
      <path class="i" d="M691.55,794.67a0.94,0.94,0,0,0-.07.38,1.21,1.21,0,0,0,.12.41,1.12,1.12,0,0,0,.09-0.43,0.73,0.73,0,0,0-.14-0.36" transform="translate(-668.7 -778.89)"/>
      <path class="i" d="M691.15,796.42a0.88,0.88,0,0,0,.29.25,1.24,1.24,0,0,0,.44.09,1,1,0,0,0-.31-0.26,1.08,1.08,0,0,0-.43-0.08" transform="translate(-668.7 -778.89)"/>
      <path class="i" d="M691.21,796.8a0.58,0.58,0,0,0,.24.24,1.48,1.48,0,0,0,.47.06,0.91,0.91,0,0,0-.28-0.23,1.42,1.42,0,0,0-.44-0.08" transform="translate(-668.7 -778.89)"/>
      <path class="i" d="M692.1,795.91a0.64,0.64,0,0,0-.08.33,0.91,0.91,0,0,0,.12.36,1.21,1.21,0,0,0,.07-0.39,0.61,0.61,0,0,0-.11-0.3" transform="translate(-668.7 -778.89)"/>
      <path class="i" d="M692.45,796.13a1.06,1.06,0,0,0-.18.44,1,1,0,0,0,.09.45,0.84,0.84,0,0,0,.22-0.42,0.93,0.93,0,0,0-.13-0.47" transform="translate(-668.7 -778.89)"/>
      <path class="i" d="M692,798.18a0.48,0.48,0,0,0,.09.16,1.28,1.28,0,0,0,.18.17,0.53,0.53,0,0,1,.25,0,1.19,1.19,0,0,1,.32.15,1.52,1.52,0,0,0-.4-0.41,0.74,0.74,0,0,0-.44-0.08" transform="translate(-668.7 -778.89)"/>
      <path class="i" d="M692,798.68a1.05,1.05,0,0,1,.47-0.08,0.88,0.88,0,0,1,.4.19,1.31,1.31,0,0,1-.5.07,0.74,0.74,0,0,1-.37-0.18" transform="translate(-668.7 -778.89)"/>
      <path class="i" d="M693.07,797.5a1,1,0,0,0-.25.45,0.59,0.59,0,0,0,.18.4,0.61,0.61,0,0,1,0-.22,0.88,0.88,0,0,1,.11-0.18,0.53,0.53,0,0,0,0-.19,0.85,0.85,0,0,0-.09-0.25" transform="translate(-668.7 -778.89)"/>
      <path class="i" d="M693.39,797.77a1.17,1.17,0,0,0-.27.45,0.89,0.89,0,0,0,0,.48,0.78,0.78,0,0,0,.25-0.38,1.32,1.32,0,0,0,0-.54" transform="translate(-668.7 -778.89)"/>
      <path class="i" d="M693.92,799.17a1.57,1.57,0,0,1,.12.37,0.5,0.5,0,0,1,0,.23l-0.14.16a0.47,0.47,0,0,0-.07.21,1,1,0,0,1-.17-0.52,1,1,0,0,1,.26-0.45" transform="translate(-668.7 -778.89)"/>
      <path class="i" d="M694.35,799.63a1.37,1.37,0,0,0-.36.34,0.49,0.49,0,0,0,0,.35,0.4,0.4,0,0,0,.29-0.19,1.46,1.46,0,0,0,.12-0.51" transform="translate(-668.7 -778.89)"/>
      <path class="i" d="M692.66,800.35a2.83,2.83,0,0,1,.6,0,0.52,0.52,0,0,1,.31.18,0.83,0.83,0,0,1-.48.06,1,1,0,0,1-.42-0.29" transform="translate(-668.7 -778.89)"/>
      <path class="i" d="M692.6,799.91a1.06,1.06,0,0,0,.38.35,1.26,1.26,0,0,0,.64.07,1.24,1.24,0,0,0-.44-0.33,1.68,1.68,0,0,0-.58-0.09" transform="translate(-668.7 -778.89)"/>
      <path d="M693.78,800.6v0.13c0.22,0,.25,0,0.31,0a0.19,0.19,0,0,0,.22,0,0.18,0.18,0,0,0,.09-0.24,0.17,0.17,0,0,0-.21-0.09,0.52,0.52,0,0,0-.12.07,0.91,0.91,0,0,1-.3,0" transform="translate(-668.7 -778.89)"/>
      <path class="f" d="M694.34,800.62h0a0.1,0.1,0,0,1-.18.08h0a0.1,0.1,0,0,1,0-.13,0.1,0.1,0,0,1,.13,0h0Z" transform="translate(-668.7 -778.89)"/>
      <path d="M693.76,800.5l0.11,0.08c-0.12.19-.15,0.21-0.12,0.29a0.18,0.18,0,0,1-.08.21,0.18,0.18,0,0,1-.25-0.05,0.17,0.17,0,0,1,0-.22,0.42,0.42,0,0,1,.13-0.07,0.93,0.93,0,0,0,.19-0.24" transform="translate(-668.7 -778.89)"/>
      <path class="f" d="M693.49,801h0a0.1,0.1,0,0,0,.16-0.11h0a0.1,0.1,0,1,0-.16.11h0Z" transform="translate(-668.7 -778.89)"/>
      <path d="M693,798.92v0.13c0.22,0,.25,0,0.31,0a0.19,0.19,0,0,0,.22,0,0.18,0.18,0,0,0,.09-0.24,0.17,0.17,0,0,0-.21-0.1,0.47,0.47,0,0,0-.12.07,0.92,0.92,0,0,1-.3,0" transform="translate(-668.7 -778.89)"/>
      <path class="f" d="M693.57,798.94h0a0.1,0.1,0,0,1,0,.13,0.1,0.1,0,0,1-.13,0h0a0.1,0.1,0,0,1,0-.13,0.1,0.1,0,0,1,.13,0h0Z" transform="translate(-668.7 -778.89)"/>
      <path d="M693.06,799l0.09,0.09c-0.14.17-.18,0.18-0.17,0.27a0.19,0.19,0,0,1-.11.2,0.18,0.18,0,0,1-.24-0.09,0.17,0.17,0,0,1,.06-0.22,0.43,0.43,0,0,1,.13,0,1,1,0,0,0,.22-0.2" transform="translate(-668.7 -778.89)"/>
      <path class="f" d="M692.72,799.4h0a0.1,0.1,0,1,0,.18-0.08h0a0.1,0.1,0,0,0-.18.08h0Z" transform="translate(-668.7 -778.89)"/>
      <path d="M692.27,797.34v0.13c0.22,0,.25,0,0.31,0a0.19,0.19,0,0,0,.22,0,0.18,0.18,0,0,0,.09-0.24,0.17,0.17,0,0,0-.21-0.1,0.61,0.61,0,0,0-.12.07,0.9,0.9,0,0,1-.3,0" transform="translate(-668.7 -778.89)"/>
      <path class="f" d="M692.82,797.37h0a0.1,0.1,0,0,1,0,.13,0.1,0.1,0,0,1-.13,0h0a0.1,0.1,0,0,1,0-.13,0.1,0.1,0,0,1,.13,0h0Z" transform="translate(-668.7 -778.89)"/>
      <path d="M692.33,797.31l0.09,0.1c-0.14.17-.18,0.18-0.17,0.27a0.18,0.18,0,0,1-.11.19,0.18,0.18,0,0,1-.24-0.09,0.17,0.17,0,0,1,.06-0.22,0.48,0.48,0,0,1,.13,0,0.89,0.89,0,0,0,.22-0.2" transform="translate(-668.7 -778.89)"/>
      <path class="f" d="M692,797.75h0a0.1,0.1,0,0,0,.18-0.08h0a0.1,0.1,0,1,0-.18.08h0Z" transform="translate(-668.7 -778.89)"/>
      <path d="M691.48,795.68v0.13c0.22,0,.25,0,0.31,0a0.19,0.19,0,0,0,.22,0,0.18,0.18,0,0,0,.09-0.24,0.17,0.17,0,0,0-.21-0.1,0.5,0.5,0,0,0-.12.07,0.93,0.93,0,0,1-.3,0" transform="translate(-668.7 -778.89)"/>
      <path class="f" d="M692,795.7h0a0.1,0.1,0,0,1,0,.13,0.1,0.1,0,0,1-.13,0h0a0.1,0.1,0,0,1,.18-0.08h0Z" transform="translate(-668.7 -778.89)"/>
      <path d="M691.54,795.65l0.09,0.1c-0.14.17-.18,0.18-0.17,0.27a0.19,0.19,0,0,1-.11.19,0.18,0.18,0,0,1-.24-0.09,0.17,0.17,0,0,1,.06-0.22,0.46,0.46,0,0,1,.13,0,0.89,0.89,0,0,0,.22-0.2" transform="translate(-668.7 -778.89)"/>
      <path class="f" d="M691.19,796.08h0a0.1,0.1,0,0,0,.18-0.08h0a0.1,0.1,0,0,0-.18.08h0" transform="translate(-668.7 -778.89)"/>
      <path class="f" d="M692.87,798.52a1,1,0,0,1-.28-0.5,1.58,1.58,0,0,1-.22-0.52,0.49,0.49,0,0,1,.22.33,1.92,1.92,0,0,1,.28.69" transform="translate(-668.7 -778.89)"/>
      <path class="f" d="M692.06,796.7a0.57,0.57,0,0,1-.25-0.38,0.54,0.54,0,0,1-.12-0.35,0.47,0.47,0,0,1,.21.3,0.75,0.75,0,0,1,.16.43" transform="translate(-668.7 -778.89)"/>
      <path class="f" d="M693.95,800.83a4.3,4.3,0,0,1-.55-1,2.66,2.66,0,0,1-.33-0.89,3.63,3.63,0,0,1,.45.91,6,6,0,0,1,.43,1" transform="translate(-668.7 -778.89)"/>
      <polygon class="j" points="25.73 16.48 25.74 19.41 25.95 19.76 27.32 20.52 29.06 21.32 29.29 21.55 30.8 20.73 32.57 19.89 32.9 19.38 32.9 16.5 25.73 16.48"/>
      <path class="h" d="M694.34,791.85l0.09,0.27,0,3.36,0.13,0.14,1,0.12,1.12-.16,1.1,0.17v0.07l0.21,0,0.21,0v-0.07l1.1-.17,1.12,0.16,1-.12,0.13-.14,0-3.36,0.09-.27h-1.24l-2.44,0-2.44,0h-1.24Z" transform="translate(-668.7 -778.89)"/>
      <polygon class="f" points="26 16.71 26.56 16.49 26.95 16.18 27.22 16.47 27.76 16.69 27.32 16.94 26.93 17.28 26.6 17.03 26 16.71"/>
      <polygon class="f" points="31.69 16.2 31.43 16.47 30.89 16.69 31.4 17.01 31.72 17.3 32.08 17.01 32.65 16.73 32.06 16.49 31.69 16.2"/>
      <polygon class="f" points="29.32 13.43 29.15 13.93 28.66 13.7 28.88 14.19 28.41 14.37 28.88 14.54 28.68 15.03 29.13 14.8 29.32 15.3 29.51 14.8 29.96 15 29.76 14.54 30.23 14.37 29.77 14.17 29.98 13.68 29.51 13.92 29.32 13.43"/>
      <polygon class="f" points="30.62 13.34 30.77 13.88 31.01 14.58 31.05 15.24 30.77 15.71 30.28 15.91 30.01 16 29.69 15.83 29.34 16.05 28.95 15.81 28.63 16.03 28.42 15.9 28.07 15.85 27.66 15.42 27.58 14.66 28.07 13.31 27.46 13.8 26.93 14.51 26.93 15.44 27.31 16.06 27.98 16.51 28.17 16.55 27.85 17.15 28.41 17.32 28.69 17.6 28.85 18.18 28.81 19.41 28.64 19.7 28.27 19.95 28.25 20.19 28.66 20.45 29.01 20.73 29.54 20.75 30 20.43 30.39 20.21 30.28 19.87 29.88 19.55 29.79 18.57 29.91 17.59 30.5 17.21 30.81 17.11 30.49 16.51 30.98 16.34 31.52 15.86 31.77 14.91 31.62 14.34 31.25 13.87 30.62 13.34"/>
      <polygon class="f" points="28.3 17.58 28.54 17.81 28.32 18.04 28.09 17.81 28.3 17.58"/>
      <polygon class="f" points="30.34 17.55 30.11 17.8 30.32 18.03 30.57 17.81 30.34 17.55"/>
      <polygon class="f" points="30.51 18.18 30.09 18.28 29.98 18.52 29.97 19.2 30.15 19.58 30.39 19.68 30.35 18.8 30.51 18.18"/>
      <polygon class="f" points="28.14 18.19 28.29 18.94 28.29 19.67 28.5 19.52 28.64 19.19 28.67 18.61 28.56 18.26 28.14 18.19"/>
      <polygon class="f" points="32.02 18.79 31.52 18.55 31.05 18.65 30.81 18.94 30.78 19.4 31.13 19.81 31.21 19.84 31.2 19.4 31.58 18.89 32.02 18.79"/>
      <polygon class="f" points="27.35 18.63 27.3 18.42 27.04 18.27 26.82 18.36 26.7 18.59 26.77 18.79 26.54 18.76 26.35 18.94 26.33 19.18 26.45 19.33 26.63 19.39 26.73 19.38 26.65 19.59 26.71 19.8 26.93 19.92 27.16 19.86 27.29 19.63 27.49 19.76 27.74 19.71 27.9 19.46 27.79 19.24 27.67 19.14 27.84 19.05 27.91 18.77 27.68 18.51 27.46 18.54 27.35 18.63"/>
      <path d="M696.78,792c0,0.25-1.28.76-1.28,1.8a1.7,1.7,0,0,0,1.24,1.64l-0.05.09-0.3.55a1.56,1.56,0,0,1,.79.26,1.76,1.76,0,0,1,.3,1.31,1.2,1.2,0,0,1-.22.85,0.62,0.62,0,0,0-.39.45c0,0.2.15,0.23,0.39,0.36a0.95,0.95,0,0,0,1.53,0c0.24-.13.39-0.17,0.39-0.36a0.62,0.62,0,0,0-.39-0.45,1.2,1.2,0,0,1-.22-0.85,1.76,1.76,0,0,1,.3-1.31,1.56,1.56,0,0,1,.79-0.26l-0.3-.55-0.05-.09a1.7,1.7,0,0,0,1.24-1.64c0-1-1.25-1.55-1.28-1.8-0.12.43,0.42,1,.42,1.72a0.81,0.81,0,0,1-.67.95,0.84,0.84,0,0,0-.28.11c-0.13,0-.19-0.18-0.32-0.18a3.21,3.21,0,0,1-.38.19,3.38,3.38,0,0,1-.38-0.19c-0.13,0-.19.17-0.32,0.18a0.84,0.84,0,0,0-.28-0.11,0.81,0.81,0,0,1-.67-0.95c0-.7.54-1.29,0.42-1.72m2.56,3.54a3.49,3.49,0,0,1,1.05.68,6.71,6.71,0,0,1,1.1-.64,3,3,0,0,1-1.1-.61,2.28,2.28,0,0,1-1.05.57m-2.65,0a2.28,2.28,0,0,1-1.05-.57,3,3,0,0,1-1.1.61,6.71,6.71,0,0,1,1.1.64,3.48,3.48,0,0,1,1.05-.68m1.32-3.45-0.22.62-0.59-.28,0.28,0.59-0.61.22,0.61,0.22-0.28.59,0.59-.28,0.22,0.61,0.22-.61,0.59,0.28-0.28-.59,0.61-.22-0.61-.22,0.28-.59-0.59.28Zm-1.42.29a7.66,7.66,0,0,0-.42,1.35,0.93,0.93,0,0,0,.85,1.09c0.09,0,.2.13,0.28,0.13a1.77,1.77,0,0,0,.32-0.16,1.69,1.69,0,0,0,.38.17,1.65,1.65,0,0,0,.38-0.17,1.79,1.79,0,0,0,.32.16c0.09,0,.19-0.12.28-0.12a0.93,0.93,0,0,0,.85-1.09,7.67,7.67,0,0,0-.42-1.35,2.19,2.19,0,0,1,.91,1.42,1.66,1.66,0,0,1-1.26,1.55l0.28,0.64a1.54,1.54,0,0,0-.63.25,2,2,0,0,0-.32,1.42,1.06,1.06,0,0,0,.22.94,0.6,0.6,0,0,1,.37.35,0.46,0.46,0,0,1-.38.29,0.79,0.79,0,0,1-1.23,0A0.46,0.46,0,0,1,697,799a0.59,0.59,0,0,1,.37-0.35,1.06,1.06,0,0,0,.22-0.94,2,2,0,0,0-.32-1.42,1.54,1.54,0,0,0-.63-0.25l0.28-.64a1.66,1.66,0,0,1-1.26-1.55,2.19,2.19,0,0,1,.91-1.42m1.42,0.13,0.14,0.39,0.37-.18-0.18.38,0.39,0.14-0.39.14,0.18,0.38-0.37-.18L698,794l-0.14-.39-0.37.18,0.18-.37-0.39-.14,0.39-.14-0.18-.38,0.37,0.18Zm-2.39,2.65a1.52,1.52,0,0,0,.65.4,2.64,2.64,0,0,0-.64.48v0h0v0a4.12,4.12,0,0,0-.71-0.45,2.2,2.2,0,0,0,.72-0.43m4.78,0a2.18,2.18,0,0,0,.72.43,4.14,4.14,0,0,0-.71.45v0h0v0a2.64,2.64,0,0,0-.64-0.48,1.52,1.52,0,0,0,.65-0.4m-3.4,1.2-0.3.3L697,797l0.3-.3Zm2,0-0.3.3L699,797l0.3-.3Zm-2,.14,0.16,0.16-0.16.16-0.16-.16Zm2,0,0.16,0.16-0.16.16-0.16-.16Zm-2.3.46a3.39,3.39,0,0,1,.2,1.15,3.5,3.5,0,0,1,0,.58,0.76,0.76,0,0,0,.51-0.55,1.58,1.58,0,0,0-.12-1.06Zm2.57,0-0.55.11a1.58,1.58,0,0,0-.12,1.06,0.76,0.76,0,0,0,.51.55,3.5,3.5,0,0,1,0-.58,3.4,3.4,0,0,1,.2-1.15m-3.6.12h-0.07a0.35,0.35,0,0,0-.26.43l0,0.08-0.09,0h0a0.36,0.36,0,0,0-.34.33,0.35,0.35,0,0,0,.33.38h0.09a0.25,0.25,0,0,0,0,.07,0.35,0.35,0,1,0,.68.18l0.06,0.06a0.35,0.35,0,1,0,.46-0.54l-0.07,0,0.08,0a0.36,0.36,0,0,0,.11-0.49,0.35,0.35,0,0,0-.32-0.16,0.36,0.36,0,0,0-.17.05l-0.07.05a0.33,0.33,0,0,0,0-.09,0.35,0.35,0,0,0-.36-0.27m1.22,0,0.29,0.06a1.36,1.36,0,0,1,.09.73,0.53,0.53,0,0,1-.26.47,4.7,4.7,0,0,0-.13-1.27m2.19,0a4.67,4.67,0,0,0-.13,1.27,0.53,0.53,0,0,1-.26-0.47,1.36,1.36,0,0,1,.09-0.73Zm-3.38.1a0.27,0.27,0,0,1,.28.21,0.24,0.24,0,0,1,0,.09,0.21,0.21,0,0,1,0,.07l-0.14,0a0.4,0.4,0,0,0-.3.14l0-.06a0.24,0.24,0,0,1,0-.08,0.27,0.27,0,0,1,.2-0.33h0.06m4.41,0.11a0.71,0.71,0,0,0-.74.78,0.9,0.9,0,0,0,.69.75,0.84,0.84,0,0,1-.12-0.33,0.71,0.71,0,0,1,.74-0.78l0.21,0a0.94,0.94,0,0,0-.79-0.44m-3.85.1a0.28,0.28,0,0,1,.13.51l-0.08,0h-0.07a0.41,0.41,0,0,0-.24-0.37,0.23,0.23,0,0,1,0-.07l0.07-.06a0.28,0.28,0,0,1,.16,0m3.85,0.06a0.76,0.76,0,0,1,.39.12,0.86,0.86,0,0,0-.71.93,0.69,0.69,0,0,1-.26-0.45,0.54,0.54,0,0,1,.58-0.6m-4.74.17,0.09,0,0.06,0a0.41,0.41,0,0,0-.08.25,0.4,0.4,0,0,0,.05.2l-0.07,0h-0.08a0.28,0.28,0,1,1,0-.55m0.47,0a0.27,0.27,0,1,1-.27.27,0.27,0.27,0,0,1,.27-0.27m0.4,0.3,0.08,0,0.08,0a0.28,0.28,0,0,1-.36.42,0.25,0.25,0,0,1-.06-0.07l0-.07a0.41,0.41,0,0,0,.29-0.35m-0.73.19a0.4,0.4,0,0,0,.33.18h0.09a0.27,0.27,0,0,1,0,.16,0.28,0.28,0,0,1-.51-0.21l0-.07,0.06,0m2,0.66a0.39,0.39,0,0,0-.4.13c0,0.08.16,0.13,0.4,0.13a0.13,0.13,0,0,0,.14-0.12,0.13,0.13,0,0,0-.14-0.13m1,0a0.13,0.13,0,0,0-.14.13,0.13,0.13,0,0,0,.14.13c0.25,0,.4,0,0.4-0.12a0.39,0.39,0,0,0-.4-0.13" transform="translate(-668.7 -778.89)"/>
      <path class="f" d="M694,791.76a0.83,0.83,0,0,1,.33.5v5.95a0.54,0.54,0,0,0,.13.36,1.74,1.74,0,0,0,.41.37,18.54,18.54,0,0,0,2.07,1,1.16,1.16,0,0,0,2.13,0,18.72,18.72,0,0,0,2.07-1,1.74,1.74,0,0,0,.41-0.37,0.54,0.54,0,0,0,.12-0.36v-5.95a0.83,0.83,0,0,1,.33-0.5h-8Zm0.42,0.19h7.15a0.51,0.51,0,0,0-.1.31v5.95a1.3,1.3,0,0,1-.91.82,12.79,12.79,0,0,0-2.57,1.3,12.79,12.79,0,0,0-2.57-1.3,1.3,1.3,0,0,1-.91-0.82v-5.95a0.5,0.5,0,0,0-.1-0.31" transform="translate(-668.7 -778.89)"/>
      <path d="M697.84,788.12a0.29,0.29,0,1,1-.28-0.21,0.25,0.25,0,0,1,.28.21h0Z" transform="translate(-668.7 -778.89)"/>
      <path class="h" d="M696.23,788a0.37,0.37,0,0,1,.32-0.17H697a1.36,1.36,0,0,1,.23.49,0.83,0.83,0,0,0-.74-0.35,0.53,0.53,0,0,0-.23,0" transform="translate(-668.7 -778.89)"/>
      <path d="M696.93,788a0.23,0.23,0,0,1-.13-0.09c0-.06.07-0.06,0.1,0a0.21,0.21,0,0,1,0,.1" transform="translate(-668.7 -778.89)"/>
      <path class="h" d="M697.12,788.37a0.91,0.91,0,0,0-.14.19,1.37,1.37,0,0,1-.32-0.25,0.77,0.77,0,0,0,.46.06" transform="translate(-668.7 -778.89)"/>
      <path d="M705.7,794.51l-0.43.31,0,0.1a0.22,0.22,0,0,0-.11.1,0.2,0.2,0,0,0,0,.17,1.83,1.83,0,0,0-.47,0,4.27,4.27,0,0,0,0,.56,0.59,0.59,0,0,1-.19.37,0.37,0.37,0,0,0,.05.16,0.2,0.2,0,0,0-.09.06c0,0.05,0,.14,0,0.21l-0.61,1.2s-0.09.07-.12,0.13a0.24,0.24,0,0,0,0,.14,0.2,0.2,0,0,0-.15.08,0.33,0.33,0,0,0,0,.2,0.15,0.15,0,0,0-.11.08,0.27,0.27,0,0,0,0,.15l-0.67,1.32a2.19,2.19,0,0,0-.4.39,0.36,0.36,0,0,0,.05.41,0.32,0.32,0,0,0-.23.11,0.23,0.23,0,0,0,.12.3,0.24,0.24,0,0,0,.32-0.08,0.32,0.32,0,0,0,0-.25,0.37,0.37,0,0,0,.37-0.2,2.19,2.19,0,0,0,.08-0.55l0.67-1.32a0.27,0.27,0,0,0,.12-0.08,0.14,0.14,0,0,0,0-.13,0.34,0.34,0,0,0,.15-0.13,0.21,0.21,0,0,0,0-.18,0.24,0.24,0,0,0,.12-0.09c0-.06,0-0.12,0-0.17l0.61-1.2c0-.06.13-0.08,0.16-0.13a0.19,0.19,0,0,0,0-.11,0.38,0.38,0,0,0,.16-0.05,0.57,0.57,0,0,1,.19-0.37,4,4,0,0,0,.44-0.34,1.78,1.78,0,0,0-.27-0.38,0.2,0.2,0,0,0,.15-0.08,0.23,0.23,0,0,0,0-.15l0.11,0v-0.53Zm-4,7.64a0.13,0.13,0,0,0-.1.06,0.14,0.14,0,0,0,0,.12,0.41,0.41,0,0,0-.18,0,3.22,3.22,0,0,0,0,.66,3.28,3.28,0,0,0,.53-0.39,0.4,0.4,0,0,0-.12-0.13,0.13,0.13,0,0,0,.09-0.07,0.16,0.16,0,0,0-.1-0.2,0.23,0.23,0,0,0-.12,0" transform="translate(-668.7 -778.89)"/>
      <path class="f" d="M705.62,794.67l-0.25.18,0.13,0.06,0.13,0.06v-0.31Zm-0.24.29a0.13,0.13,0,0,0-.11.07,0.14,0.14,0,0,0,.07.18,0.13,0.13,0,1,0,.12-0.23l-0.08,0m-0.47.29h-0.07a3.14,3.14,0,0,0,0,.44,0.51,0.51,0,0,1-.1.3,0.48,0.48,0,0,1-.14.13l0.09,0.09s0.06-.09.15-0.27a3.62,3.62,0,0,0,.13-0.61l0.25-.07H704.9m0.39,0.05a1.12,1.12,0,0,0-.27.08,3,3,0,0,1-.14.59,2.87,2.87,0,0,1-.15.28l0.06,0,0.06,0A2.89,2.89,0,0,1,705,796a2.93,2.93,0,0,1,.4-0.47,1.09,1.09,0,0,0-.09-0.26m0.08,0a2.54,2.54,0,0,1,.09.25,3.81,3.81,0,0,0-.41.47c-0.09.18-.13,0.28-0.13,0.28l0.12,0a0.49,0.49,0,0,1,0-.19,0.52,0.52,0,0,1,.19-0.25,3.17,3.17,0,0,0,.36-0.26,3.2,3.2,0,0,0-.23-0.31m-0.7,1a0.1,0.1,0,0,0-.08.06,2.36,2.36,0,0,1-.2.47l-0.2.4-0.22.43a0.09,0.09,0,0,0,0,.12,0.08,0.08,0,0,0,.12,0l0.22-.43,0.2-.4a2.4,2.4,0,0,1,.27-0.44,0.11,0.11,0,0,0-.06-0.16,0.13,0.13,0,0,0-.08,0m-0.8,1.52a0.08,0.08,0,0,0-.07,0,0.17,0.17,0,1,0,.17,0,0.17,0.17,0,0,0-.1,0m-0.11.22a0.12,0.12,0,0,0-.12.05,0.15,0.15,0,0,0,.1.19,0.13,0.13,0,1,0,.11-0.21l-0.1,0m-0.15.28a0.08,0.08,0,0,0-.07,0,0.16,0.16,0,0,0,.26.13,0.13,0.13,0,0,0-.09-0.15l-0.11,0m-0.06.24a0.1,0.1,0,0,0-.07.05l-0.63,1.25a3.14,3.14,0,0,0-.36.34,0.26,0.26,0,1,0,.46.24A3.11,3.11,0,0,0,703,800l0.63-1.25a0.09,0.09,0,0,0,0-.12h-0.05m-1.13,2.13a0.13,0.13,0,0,0-.12.07,0.16,0.16,0,0,0,.09.21,0.14,0.14,0,1,0,.13-0.25l-0.1,0m-0.75,1.48a0.06,0.06,0,0,0-.06,0,0.12,0.12,0,0,0,.08.12,0.11,0.11,0,0,0,.15,0,0.12,0.12,0,0,0-.08-0.12l-0.09,0m-0.22.17v0.46l0.37-.27a0.41,0.41,0,0,0-.37-0.19" transform="translate(-668.7 -778.89)"/>
      <path class="f" d="M697.75,788.12a0.19,0.19,0,1,1-.19-0.19,0.19,0.19,0,0,1,.19.19h0Z" transform="translate(-668.7 -778.89)"/>
      <path d="M697.65,788.12a0.09,0.09,0,1,1-.09-0.09,0.09,0.09,0,0,1,.09.09" transform="translate(-668.7 -778.89)"/>
    </g>
  </g>
</svg>
