<svg xmlns="http://www.w3.org/2000/svg" xmlns:xlink="http://www.w3.org/1999/xlink" viewBox="0 0 58.92 34.37">
  <defs>
    <style>
      .a {
        fill: none;
      }

      .b {
        clip-path: url(#a);
      }

      .c {
        fill: #c8242a;
      }

      .d {
        fill: #323f9d;
      }

      .e {
        fill: #fff;
        fill-rule: evenodd;
      }
    </style>
    <clipPath id="a" transform="translate(-104.31 -836.22)">
      <rect class="a" x="104.31" y="836.22" width="58.92" height="34.37"/>
    </clipPath>
  </defs>
  <title>Myanmar-Burma</title>
  <g class="b">
    <rect class="c" width="58.92" height="34.37"/>
    <rect class="d" width="26.79" height="17.05"/>
    <g class="b">
      <path class="e" d="M119.92,844.84a2.25,2.25,0,1,1-2.25-2.22,2.23,2.23,0,0,1,2.25,2.22h0Zm-7-.5,0.26-1,0.73,0.3,0.4-.83-0.63-.4,0.63-.86,0.6,0.6,0.66-.6-0.4-.66,1-.5,0.23,0.83,0.89-.27-0.1-.76,1,0-0.07.79,0.92,0.3,0.23-.83,0.92,0.46-0.43.7,0.73,0.56,0.56-.6,0.63,0.8-0.66.46,0.43,0.83,0.73-.27,0.23,1-0.76.07,0,0.93,0.76,0.07-0.23,1.06-0.76-.33L121,847l0.63,0.4-0.63.83-0.53-.6-0.73.6,0.43,0.7-1,.46-0.26-.79-0.89.23,0.1,0.79-1.06,0,0.1-.79-0.86-.23-0.3.76-0.89-.46,0.43-.66-0.76-.56-0.56.56-0.66-.79,0.69-.5-0.43-.79-0.69.27-0.3-1,0.83-.07v-0.93Z" transform="translate(-104.31 -836.22)"/>
      <polygon class="e" points="14.11 3.38 13.39 2.89 12.67 3.38 12.93 2.56 12.23 2.04 13.11 2.03 13.4 1.22 13.69 2.03 14.56 2.05 13.86 2.56 14.11 3.38"/>
      <polygon class="e" points="14.01 15.83 13.29 15.34 12.57 15.83 12.83 15.01 12.13 14.49 13.01 14.48 13.3 13.67 13.59 14.48 14.46 14.5 13.76 15.01 14.01 15.83"/>
      <polygon class="e" points="17.02 3.98 16.3 3.49 15.58 3.98 15.84 3.16 15.14 2.64 16.02 2.62 16.31 1.81 16.59 2.63 17.47 2.65 16.77 3.16 17.02 3.98"/>
      <polygon class="e" points="16.92 15.3 16.2 14.81 15.48 15.3 15.74 14.48 15.04 13.96 15.92 13.95 16.21 13.14 16.49 13.95 17.37 13.97 16.67 14.48 16.92 15.3"/>
      <polygon class="e" points="11.34 3.98 10.62 3.49 9.9 3.98 10.15 3.16 9.46 2.64 10.34 2.62 10.63 1.81 10.91 2.63 11.79 2.65 11.09 3.16 11.34 3.98"/>
      <polygon class="e" points="11.24 15.17 10.52 14.68 9.8 15.17 10.06 14.35 9.36 13.83 10.23 13.81 10.53 13.01 10.81 13.82 11.69 13.84 10.99 14.35 11.24 15.17"/>
      <polygon class="e" points="9.09 5.57 8.37 5.08 7.65 5.56 7.91 4.75 7.21 4.23 8.09 4.21 8.38 3.4 8.66 4.21 9.54 4.23 8.84 4.75 9.09 5.57"/>
      <polygon class="e" points="9.09 13.25 8.37 12.76 7.65 13.25 7.91 12.43 7.21 11.91 8.09 11.89 8.38 11.09 8.66 11.89 9.54 11.92 8.84 12.43 9.09 13.25"/>
      <polygon class="e" points="7.97 7.95 7.25 7.46 6.53 7.95 6.79 7.13 6.09 6.61 6.96 6.6 7.25 5.79 7.54 6.6 8.42 6.62 7.72 7.13 7.97 7.95"/>
      <polygon class="e" points="7.97 10.6 7.25 10.11 6.53 10.6 6.79 9.78 6.09 9.26 6.96 9.24 7.25 8.44 7.54 9.25 8.42 9.27 7.72 9.78 7.97 10.6"/>
      <polygon class="e" points="17.44 5.7 18.16 5.21 18.88 5.7 18.62 4.88 19.32 4.36 18.44 4.34 18.15 3.54 17.87 4.35 16.99 4.37 17.69 4.88 17.44 5.7"/>
      <polygon class="e" points="17.64 13.38 18.35 12.89 19.07 13.38 18.82 12.56 19.52 12.04 18.64 12.03 18.35 11.22 18.06 12.03 17.19 12.05 17.89 12.56 17.64 13.38"/>
      <polygon class="e" points="18.63 8.15 19.34 7.66 20.07 8.15 19.81 7.33 20.51 6.81 19.63 6.79 19.34 5.99 19.05 6.8 18.18 6.82 18.88 7.33 18.63 8.15"/>
      <polygon class="e" points="18.82 10.73 19.54 10.24 20.26 10.73 20.01 9.91 20.7 9.39 19.83 9.38 19.54 8.57 19.25 9.38 18.38 9.4 19.08 9.91 18.82 10.73"/>
      <path class="e" d="M120.84,842.63c0.45,1.59.14,2.45,0,2.46s-0.17-1.69-.82-2.1a0.48,0.48,0,0,1-.08-0.89,0.65,0.65,0,0,1,.88.53h0Z" transform="translate(-104.31 -836.22)"/>
      <path class="d" d="M120.85,845.13h0a0.86,0.86,0,0,1-.15-0.5A2.57,2.57,0,0,0,120,843a0.63,0.63,0,0,1-.36-0.45,0.61,0.61,0,0,1,.27-0.49,0.64,0.64,0,0,1,.26-0.05,0.69,0.69,0,0,1,.67.59,3.62,3.62,0,0,1,.07,2.44,0.11,0.11,0,0,1-.07.06h0Zm-0.66-3a0.59,0.59,0,0,0-.23,0,0.55,0.55,0,0,0-.24.44,0.58,0.58,0,0,0,.33.4,2.6,2.6,0,0,1,.7,1.64,2,2,0,0,0,.11.45l0,0a3.58,3.58,0,0,0-.08-2.38,0.64,0.64,0,0,0-.62-0.55h0Z" transform="translate(-104.31 -836.22)"/>
      <path class="e" d="M119.12,844.7c-1.16,2.63-.71,4.4-1.15,4.39s-0.57-1.63.26-4.37c1.06-3.45,2.4-3.16,2.56-2.19-0.89.42-1,.52-1.67,2.18h0Z" transform="translate(-104.31 -836.22)"/>
      <path class="d" d="M118,849.12h0a0.24,0.24,0,0,1-.2-0.11c-0.3-.41-0.29-1.92.43-4.3,0.55-1.79,1.28-2.85,2-2.85a0.7,0.7,0,0,1,.65.66c-0.89.45-1,.55-1.68,2.19a11,11,0,0,0-.88,3.55c-0.06.55-.09,0.86-0.29,0.86h0Zm2.2-7.21c-0.25,0-1.11.2-1.91,2.81-0.69,2.25-.74,3.84-0.44,4.25a0.19,0.19,0,0,0,.15.09h0a0.9,0.9,0,0,0,.23-0.81,11.05,11.05,0,0,1,.89-3.56c0.67-1.66.79-1.77,1.69-2.19a0.67,0.67,0,0,0-.61-0.58h0Z" transform="translate(-104.31 -836.22)"/>
      <path class="e" d="M120.6,845.57c0.19,1.7-.37,2.44-0.52,2.42s0.47-1.16-.51-2.32c-0.56-.65,0-0.41.28-0.5s0.67-.31.75,0.4h0Z" transform="translate(-104.31 -836.22)"/>
      <path class="d" d="M120.09,848h0a0.34,0.34,0,0,1,0-.34,2.22,2.22,0,0,0-.5-2,0.56,0.56,0,0,1-.23-0.44,0.28,0.28,0,0,1,.28-0.08,0.81,0.81,0,0,0,.24,0l0.15,0a1,1,0,0,1,.25,0c0.22,0,.35.16,0.39,0.5a3.06,3.06,0,0,1-.4,2.36,0.24,0.24,0,0,1-.15.09h0Zm-0.45-2.79a0.34,0.34,0,0,0-.26,0,0.54,0.54,0,0,0,.22.38,2.27,2.27,0,0,1,.51,2,0.57,0.57,0,0,0,0,.27,0.22,0.22,0,0,0,.1-0.08,3.2,3.2,0,0,0,.38-2.31c0-.4-0.21-0.45-0.33-0.45a0.91,0.91,0,0,0-.24,0l-0.15,0a0.67,0.67,0,0,1-.21,0h0Z" transform="translate(-104.31 -836.22)"/>
      <path class="e" d="M118.72,847.25c-0.45,1-.64,2.27-1.16,2.12s0-1.89.67-3.12c0.85-1.49,2.38-1.87,2.36-.8a2.48,2.48,0,0,0-1.86,1.79h0Z" transform="translate(-104.31 -836.22)"/>
      <path class="d" d="M117.64,849.41h-0.09a0.28,0.28,0,0,1-.19-0.18c-0.22-.51.26-2,0.84-3,0.71-1.25,1.86-1.68,2.25-1.28a0.65,0.65,0,0,1,.16.49,2.53,2.53,0,0,0-1.86,1.81c-0.13.29-.24,0.61-0.34,0.9-0.24.7-.43,1.25-0.77,1.25h0Zm2.4-4.54a2.49,2.49,0,0,0-1.79,1.4c-0.56,1-1,2.44-.84,2.93a0.23,0.23,0,0,0,.15.15c0.36,0.1.55-.49,0.79-1.2,0.1-.29.21-0.61,0.34-0.91a2.51,2.51,0,0,1,1.88-1.81,0.71,0.71,0,0,0-.17-0.42,0.5,0.5,0,0,0-.37-0.14h0Z" transform="translate(-104.31 -836.22)"/>
      <path class="e" d="M114.85,844.52c-0.45,1.93-.35,3.13-0.23,3.09s0.12-1.84.89-2.6,0.32-.59.15-0.86c-0.33-.14-0.59-0.53-0.81.37h0Z" transform="translate(-104.31 -836.22)"/>
      <path class="d" d="M114.62,847.64l0,0a7,7,0,0,1,.25-3.1c0.16-.65.39-0.65,0.67-0.49l0.18,0.1a0.58,0.58,0,0,0,.16.15,0.23,0.23,0,0,1,.12.15,1,1,0,0,1-.42.6,3.93,3.93,0,0,0-.75,2.08c-0.06.39-.08,0.53-0.16,0.53h0Zm0.6-3.67c-0.08,0-.21.06-0.33,0.55a7,7,0,0,0-.26,3.05,1.51,1.51,0,0,0,.11-0.48,4,4,0,0,1,.77-2.12,1.19,1.19,0,0,0,.4-0.55,0.18,0.18,0,0,0-.1-0.11,0.54,0.54,0,0,1-.16-0.16,0.8,0.8,0,0,1-.17-0.09,0.59,0.59,0,0,0-.25-0.1h0Z" transform="translate(-104.31 -836.22)"/>
      <path class="e" d="M116.63,846.6c0.53,1.3.88,2.9,1.31,2.69s-0.28-2.42-1-4c-0.63-1.24-1.1-1.39-1.79-1.36,0.81,0.32,1.08,1.6,1.49,2.65h0Z" transform="translate(-104.31 -836.22)"/>
      <path class="d" d="M117.87,849.34h0c-0.3,0-.54-0.7-0.84-1.57-0.13-.38-0.27-0.78-0.42-1.15-0.09-.22-0.17-0.45-0.25-0.67a3,3,0,0,0-1.23-2,0.25,0.25,0,0,1,.19-0.06c0.61,0,1.06.22,1.64,1.38s1.34,3.31,1.12,3.89a0.23,0.23,0,0,1-.12.14l-0.09,0h0ZM115.31,844h-0.17c0.67,0.21,1,1,1.27,1.94,0.08,0.22.16,0.45,0.24,0.67,0.15,0.38.29,0.78,0.42,1.16,0.27,0.79.53,1.54,0.79,1.54h0l0.07,0a0.17,0.17,0,0,0,.09-0.11c0.19-.5-0.43-2.38-1.12-3.84-0.57-1.13-1-1.34-1.59-1.34h0Z" transform="translate(-104.31 -836.22)"/>
      <path class="e" d="M116.72,845.88c0.4,1.66.57,3.64,1,3.45s0-3-.59-5c-0.5-1.59-1.27-1.57-2-1.61,1.13,0.57,1.23,1.81,1.53,3.15h0Z" transform="translate(-104.31 -836.22)"/>
      <path class="d" d="M117.69,849.37c-0.32,0-.49-0.89-0.7-2-0.09-.47-0.19-1-0.3-1.46,0-.19-0.08-0.37-0.12-0.55-0.23-1.12-.44-2.1-1.4-2.58l0.11,0c0.67,0,1.43.08,1.91,1.63,0.55,1.91,1.1,4.82.57,5l-0.07,0h0Zm-2.51-6.61c1,0.44,1.21,1.42,1.45,2.56,0,0.18.08,0.37,0.12,0.55,0.12,0.48.21,1,.3,1.46,0.19,1,.37,2,0.64,2v0l0.05,0c0.43-.16,0-2.74-0.61-4.95-0.47-1.5-1.18-1.54-1.86-1.59h-0.09Z" transform="translate(-104.31 -836.22)"/>
      <path class="e" d="M115.07,842.81a2.64,2.64,0,0,0-.84,2.61c0.21,0,.32-1.37,1-1.89s0.77-.24,1.53-0.19a1,1,0,0,0-1.65-.53h0Z" transform="translate(-104.31 -836.22)"/>
      <path class="d" d="M114.24,845.44h0a0.14,0.14,0,0,1-.09-0.12,3,3,0,0,1,.91-2.53,1.07,1.07,0,0,1,.69-0.3,1.26,1.26,0,0,1,1,.84,1.64,1.64,0,0,1-.55,0,0.89,0.89,0,0,0-1,.26,3,3,0,0,0-.7,1.37,0.72,0.72,0,0,1-.26.53h0Zm1.5-2.9a1,1,0,0,0-.65.29,2.91,2.91,0,0,0-.9,2.47,0.11,0.11,0,0,0,0,.08h0a1.06,1.06,0,0,0,.21-0.49,3,3,0,0,1,.72-1.4,1,1,0,0,1,1-.27,3.46,3.46,0,0,0,.51.08,1.45,1.45,0,0,0-1-.77h0Z" transform="translate(-104.31 -836.22)"/>
      <path class="e" d="M117.28,841.09a0.47,0.47,0,0,1,0,.64,0.52,0.52,0,0,1-.56-0.37,0.47,0.47,0,0,1,0-.64,0.52,0.52,0,0,1,.56.37h0Z" transform="translate(-104.31 -836.22)"/>
      <path class="d" d="M117.15,841.78a0.66,0.66,0,0,1-.49-0.4,0.7,0.7,0,0,1-.07-0.52,0.26,0.26,0,0,1,.13-0.16,0.56,0.56,0,0,1,.59.38,0.7,0.7,0,0,1,.07.52,0.25,0.25,0,0,1-.13.15l-0.1,0h0Zm-0.34-1h-0.08a0.2,0.2,0,0,0-.1.12,0.65,0.65,0,0,0,.07.48,0.51,0.51,0,0,0,.52.35,0.2,0.2,0,0,0,.1-0.12,0.65,0.65,0,0,0-.07-0.48,0.6,0.6,0,0,0-.44-0.37h0Z" transform="translate(-104.31 -836.22)"/>
      <path class="e" d="M117.28,841.86a0.47,0.47,0,0,1-.1.63,0.52,0.52,0,0,1-.52-0.41,0.47,0.47,0,0,1,.1-0.63,0.52,0.52,0,0,1,.52.41h0Z" transform="translate(-104.31 -836.22)"/>
      <path class="d" d="M117.11,842.53a0.62,0.62,0,0,1-.48-0.44,0.7,0.7,0,0,1,0-.53,0.25,0.25,0,0,1,.14-0.14h0.08a0.62,0.62,0,0,1,.48.44,0.7,0.7,0,0,1,0,.53,0.25,0.25,0,0,1-.14.14h-0.08Zm-0.28-1.07a0.21,0.21,0,0,0-.17.12,0.66,0.66,0,0,0,0,.48,0.58,0.58,0,0,0,.42.41v0l0.06,0a0.2,0.2,0,0,0,.11-0.11,0.66,0.66,0,0,0,0-.48,0.57,0.57,0,0,0-.42-0.41h0Z" transform="translate(-104.31 -836.22)"/>
      <path class="e" d="M117.82,841.73a0.47,0.47,0,0,1-.26.59,0.52,0.52,0,0,1-.4-0.53,0.47,0.47,0,0,1,.26-0.59,0.52,0.52,0,0,1,.4.53h0Z" transform="translate(-104.31 -836.22)"/>
      <path class="d" d="M117.54,842.34a0.57,0.57,0,0,1-.41-0.56,0.7,0.7,0,0,1,.11-0.52,0.25,0.25,0,0,1,.18-0.1h0a0.56,0.56,0,0,1,.43.56,0.7,0.7,0,0,1-.11.52,0.25,0.25,0,0,1-.18.1h0Zm-0.11-1.12a0.21,0.21,0,0,0-.15.08,0.65,0.65,0,0,0-.09.47,0.52,0.52,0,0,0,.35.51v0a0.2,0.2,0,0,0,.14-0.08,0.66,0.66,0,0,0,.09-0.47,0.52,0.52,0,0,0-.36-0.51h0Z" transform="translate(-104.31 -836.22)"/>
      <path class="e" d="M117.44,842.6a0.47,0.47,0,0,1-.21.6,0.52,0.52,0,0,1-.44-0.5,0.47,0.47,0,0,1,.21-0.6,0.52,0.52,0,0,1,.44.5h0Z" transform="translate(-104.31 -836.22)"/>
      <path class="d" d="M117.2,843.23a0.58,0.58,0,0,1-.44-0.53,0.71,0.71,0,0,1,.07-0.53,0.25,0.25,0,0,1,.17-0.11,0.55,0.55,0,0,1,.47.52,0.7,0.7,0,0,1-.07.53,0.25,0.25,0,0,1-.17.11h0ZM117,842.12a0.21,0.21,0,0,0-.16.09,0.66,0.66,0,0,0-.06.48,0.54,0.54,0,0,0,.38.48v0l0,0a0.2,0.2,0,0,0,.13-0.09,0.65,0.65,0,0,0,.06-0.48,0.53,0.53,0,0,0-.38-0.48h0Z" transform="translate(-104.31 -836.22)"/>
      <path class="e" d="M117.44,843.29a0.47,0.47,0,0,1-.21.6,0.52,0.52,0,0,1-.44-0.5,0.48,0.48,0,0,1,.21-0.61,0.52,0.52,0,0,1,.44.5h0Z" transform="translate(-104.31 -836.22)"/>
      <path class="d" d="M117.2,843.93a0.58,0.58,0,0,1-.43-0.53,0.7,0.7,0,0,1,.07-0.52,0.25,0.25,0,0,1,.17-0.11h0a0.57,0.57,0,0,1,.47.52,0.71,0.71,0,0,1-.07.53,0.26,0.26,0,0,1-.17.11h0ZM117,842.82a0.2,0.2,0,0,0-.16.09,0.65,0.65,0,0,0-.06.48,0.54,0.54,0,0,0,.38.48v0l0,0a0.2,0.2,0,0,0,.13-0.09,0.65,0.65,0,0,0,.06-0.48,0.54,0.54,0,0,0-.38-0.48h0Z" transform="translate(-104.31 -836.22)"/>
      <path class="e" d="M118,842.57a0.47,0.47,0,0,1-.36.53,0.52,0.52,0,0,1-.3-0.6,0.47,0.47,0,0,1,.36-0.53,0.53,0.53,0,0,1,.3.6h0Z" transform="translate(-104.31 -836.22)"/>
      <path class="d" d="M117.66,843.13h0a0.54,0.54,0,0,1-.32-0.63,0.52,0.52,0,0,1,.37-0.56,0.53,0.53,0,0,1,.35.63,0.52,0.52,0,0,1-.37.56h0Zm0-1.13a0.47,0.47,0,0,0-.33.5,0.5,0.5,0,0,0,.27.57l0,0v0a0.48,0.48,0,0,0,.31-0.51,0.5,0.5,0,0,0-.27-0.56h0Z" transform="translate(-104.31 -836.22)"/>
      <path class="e" d="M118,843.26a0.47,0.47,0,0,1-.36.53,0.53,0.53,0,0,1-.3-0.6,0.47,0.47,0,0,1,.36-0.53,0.53,0.53,0,0,1,.3.6h0Z" transform="translate(-104.31 -836.22)"/>
      <path class="d" d="M117.66,843.82h0a0.55,0.55,0,0,1-.32-0.63,0.52,0.52,0,0,1,.37-0.56,0.53,0.53,0,0,1,.35.63,0.52,0.52,0,0,1-.37.56h0Zm0-1.13a0.46,0.46,0,0,0-.33.5,0.5,0.5,0,0,0,.27.56l0,0v0a0.47,0.47,0,0,0,.31-0.5,0.5,0.5,0,0,0-.27-0.57h0Z" transform="translate(-104.31 -836.22)"/>
      <path class="e" d="M117.08,844.09a0.47,0.47,0,0,1-.33.55,0.52,0.52,0,0,1-.33-0.58,0.47,0.47,0,0,1,.33-0.55,0.52,0.52,0,0,1,.33.58h0Z" transform="translate(-104.31 -836.22)"/>
      <path class="d" d="M116.76,844.67h0a0.55,0.55,0,0,1-.35-0.61,0.5,0.5,0,0,1,.35-0.58,0.54,0.54,0,0,1,.37.61,0.51,0.51,0,0,1-.35.58h0Zm0-1.13a0.46,0.46,0,0,0-.3.52,0.5,0.5,0,0,0,.3.55v0a0.46,0.46,0,0,0,.29-0.52,0.5,0.5,0,0,0-.3-0.55h0Z" transform="translate(-104.31 -836.22)"/>
      <path class="e" d="M117.57,844.09a0.47,0.47,0,0,1-.33.55,0.52,0.52,0,0,1-.33-0.58,0.47,0.47,0,0,1,.33-0.55,0.52,0.52,0,0,1,.33.58h0Z" transform="translate(-104.31 -836.22)"/>
      <path class="d" d="M117.25,844.67h0a0.54,0.54,0,0,1-.35-0.61,0.51,0.51,0,0,1,.35-0.58,0.54,0.54,0,0,1,.36.61,0.5,0.5,0,0,1-.35.58h0Zm0-1.13a0.46,0.46,0,0,0-.3.52,0.5,0.5,0,0,0,.3.55v0a0.46,0.46,0,0,0,.29-0.52,0.51,0.51,0,0,0-.3-0.55h0Z" transform="translate(-104.31 -836.22)"/>
      <path class="e" d="M118.12,844.18a0.47,0.47,0,0,1-.46.45,0.52,0.52,0,0,1-.17-0.64,0.47,0.47,0,0,1,.46-0.45,0.52,0.52,0,0,1,.17.64h0Z" transform="translate(-104.31 -836.22)"/>
      <path class="d" d="M117.72,844.66h-0.07a0.55,0.55,0,0,1-.19-0.68,0.56,0.56,0,0,1,.43-0.48,0.52,0.52,0,0,1,.26.69,0.56,0.56,0,0,1-.43.48h0Zm0.21-1.1a0.49,0.49,0,0,0-.41.43,0.5,0.5,0,0,0,.15.61h0a0.52,0.52,0,0,0,.37-0.44,0.5,0.5,0,0,0-.15-0.61h0Z" transform="translate(-104.31 -836.22)"/>
      <path class="e" d="M117,844.86a0.47,0.47,0,0,1-.33.54,0.52,0.52,0,0,1-.33-0.58,0.47,0.47,0,0,1,.33-0.55,0.53,0.53,0,0,1,.33.58h0Z" transform="translate(-104.31 -836.22)"/>
      <path class="d" d="M116.72,845.43h0a0.54,0.54,0,0,1-.35-0.61,0.51,0.51,0,0,1,.35-0.58,0.54,0.54,0,0,1,.36.61,0.5,0.5,0,0,1-.35.57h0Zm0-1.13a0.46,0.46,0,0,0-.3.52,0.5,0.5,0,0,0,.3.55v0a0.46,0.46,0,0,0,.29-0.52,0.5,0.5,0,0,0-.3-0.55h0Z" transform="translate(-104.31 -836.22)"/>
      <path class="e" d="M117.54,844.66a0.47,0.47,0,0,1-.33.55,0.52,0.52,0,0,1-.33-0.58,0.47,0.47,0,0,1,.33-0.55,0.52,0.52,0,0,1,.33.58h0Z" transform="translate(-104.31 -836.22)"/>
      <path class="d" d="M117.22,845.23h0a0.54,0.54,0,0,1-.35-0.61,0.5,0.5,0,0,1,.35-0.58,0.54,0.54,0,0,1,.37.61,0.51,0.51,0,0,1-.35.58h0Zm0-1.13a0.46,0.46,0,0,0-.3.52,0.5,0.5,0,0,0,.3.55v0a0.46,0.46,0,0,0,.29-0.52,0.51,0.51,0,0,0-.3-0.55h0Z" transform="translate(-104.31 -836.22)"/>
      <path class="e" d="M118.09,844.88a0.47,0.47,0,0,1-.46.45,0.52,0.52,0,0,1-.17-0.64,0.47,0.47,0,0,1,.46-0.45,0.52,0.52,0,0,1,.17.64h0Z" transform="translate(-104.31 -836.22)"/>
      <path class="d" d="M117.69,845.36h-0.07a0.55,0.55,0,0,1-.19-0.68,0.56,0.56,0,0,1,.43-0.48,0.52,0.52,0,0,1,.26.69,0.56,0.56,0,0,1-.43.47h0Zm0.21-1.1a0.5,0.5,0,0,0-.41.43,0.51,0.51,0,0,0,.15.61h0.05a0.52,0.52,0,0,0,.37-0.43,0.5,0.5,0,0,0-.15-0.61h0Z" transform="translate(-104.31 -836.22)"/>
      <path class="e" d="M118.16,848.76a0.6,0.6,0,0,1-.34.74,0.67,0.67,0,0,1-.51-0.68,0.6,0.6,0,0,1,.34-0.74,0.67,0.67,0,0,1,.51.68h0Z" transform="translate(-104.31 -836.22)"/>
      <path class="d" d="M117.81,849.53a0.71,0.71,0,0,1-.52-0.71,0.87,0.87,0,0,1,.14-0.64,0.32,0.32,0,0,1,.23-0.12h0a0.7,0.7,0,0,1,.54.7,0.87,0.87,0,0,1-.14.65,0.32,0.32,0,0,1-.23.13h0Zm-0.14-1.42a0.27,0.27,0,0,0-.2.11,0.83,0.83,0,0,0-.13.6,0.67,0.67,0,0,0,.47.65v0l0,0a0.27,0.27,0,0,0,.19-0.11,0.83,0.83,0,0,0,.13-0.6,0.66,0.66,0,0,0-.46-0.65h0Z" transform="translate(-104.31 -836.22)"/>
      <path class="e" d="M116.81,845.62a0.47,0.47,0,0,1-.33.55,0.52,0.52,0,0,1-.33-0.58,0.48,0.48,0,0,1,.33-0.55,0.52,0.52,0,0,1,.33.58h0Z" transform="translate(-104.31 -836.22)"/>
      <path class="d" d="M116.49,846.19h0a0.55,0.55,0,0,1-.35-0.61,0.5,0.5,0,0,1,.35-0.58,0.54,0.54,0,0,1,.37.61,0.51,0.51,0,0,1-.35.58h0Zm0-1.13a0.46,0.46,0,0,0-.3.52,0.5,0.5,0,0,0,.3.55v0a0.46,0.46,0,0,0,.29-0.52,0.5,0.5,0,0,0-.3-0.55h0Z" transform="translate(-104.31 -836.22)"/>
      <path class="e" d="M117.41,845.45a0.48,0.48,0,0,1-.33.55,0.52,0.52,0,0,1-.33-0.58,0.47,0.47,0,0,1,.33-0.55,0.52,0.52,0,0,1,.33.58h0Z" transform="translate(-104.31 -836.22)"/>
      <path class="d" d="M117.09,846h0a0.55,0.55,0,0,1-.35-0.61,0.51,0.51,0,0,1,.35-0.58,0.54,0.54,0,0,1,.36.61,0.5,0.5,0,0,1-.35.58h0Zm0-1.13a0.46,0.46,0,0,0-.3.52,0.51,0.51,0,0,0,.3.55v0a0.46,0.46,0,0,0,.29-0.52,0.5,0.5,0,0,0-.3-0.55h0Z" transform="translate(-104.31 -836.22)"/>
      <path class="e" d="M117.86,845.63a0.47,0.47,0,0,1-.46.45,0.52,0.52,0,0,1-.17-0.64,0.47,0.47,0,0,1,.46-0.45,0.52,0.52,0,0,1,.17.64h0Z" transform="translate(-104.31 -836.22)"/>
      <path class="d" d="M117.46,846.12h-0.07a0.55,0.55,0,0,1-.19-0.68,0.56,0.56,0,0,1,.43-0.48,0.52,0.52,0,0,1,.26.69,0.56,0.56,0,0,1-.43.48h0Zm0.21-1.1a0.49,0.49,0,0,0-.41.43,0.5,0.5,0,0,0,.15.61h0a0.52,0.52,0,0,0,.37-0.44,0.5,0.5,0,0,0-.15-0.61h0Z" transform="translate(-104.31 -836.22)"/>
      <path class="e" d="M117.07,846.34a0.47,0.47,0,0,1-.41.49,0.52,0.52,0,0,1-.24-0.62,0.47,0.47,0,0,1,.41-0.49,0.52,0.52,0,0,1,.24.62h0Z" transform="translate(-104.31 -836.22)"/>
      <path class="d" d="M116.7,846.87h0a0.69,0.69,0,0,1,.14-1.18,0.53,0.53,0,0,1,.3.66,0.54,0.54,0,0,1-.4.52h0Zm0.13-1.12a0.48,0.48,0,0,0-.37.46,0.5,0.5,0,0,0,.21.59h0a0.64,0.64,0,0,0,.13-1.06h0Z" transform="translate(-104.31 -836.22)"/>
      <path class="e" d="M117.56,846.42a0.47,0.47,0,0,1-.41.49,0.52,0.52,0,0,1-.23-0.62,0.47,0.47,0,0,1,.41-0.49,0.53,0.53,0,0,1,.24.63h0Z" transform="translate(-104.31 -836.22)"/>
      <path class="d" d="M117.19,846.95h0a0.55,0.55,0,0,1-.26-0.66,0.54,0.54,0,0,1,.4-0.52,0.53,0.53,0,0,1,.3.66,0.54,0.54,0,0,1-.4.52h0Zm0.13-1.12a0.48,0.48,0,0,0-.37.47,0.5,0.5,0,0,0,.21.59h0a0.5,0.5,0,0,0,.34-0.47,0.5,0.5,0,0,0-.21-0.59h0Z" transform="translate(-104.31 -836.22)"/>
      <path class="e" d="M118.1,846.52a0.48,0.48,0,0,1-.52.37,0.53,0.53,0,0,1-.07-0.66,0.47,0.47,0,0,1,.52-0.37,0.52,0.52,0,0,1,.07.66h0Z" transform="translate(-104.31 -836.22)"/>
      <path class="d" d="M117.67,846.94l-0.1,0a0.55,0.55,0,0,1-.09-0.7,0.49,0.49,0,0,1,.56-0.38,0.55,0.55,0,0,1,.09.7,0.6,0.6,0,0,1-.46.41h0Zm0.27-1.07a0.55,0.55,0,0,0-.41.38,0.51,0.51,0,0,0,.06.63,0.47,0.47,0,0,0,.48-0.36,0.51,0.51,0,0,0-.06-0.62l-0.08,0h0Z" transform="translate(-104.31 -836.22)"/>
      <path class="e" d="M117.64,848a0.47,0.47,0,0,1-.26.58A0.52,0.52,0,0,1,117,848a0.47,0.47,0,0,1,.26-0.58,0.52,0.52,0,0,1,.4.54h0Z" transform="translate(-104.31 -836.22)"/>
      <path class="d" d="M117.36,848.61a0.56,0.56,0,0,1-.41-0.56,0.7,0.7,0,0,1,.11-0.52,0.26,0.26,0,0,1,.18-0.1h0a0.56,0.56,0,0,1,.43.56,0.7,0.7,0,0,1-.11.52,0.26,0.26,0,0,1-.18.1h0Zm-0.1-1.12a0.2,0.2,0,0,0-.15.08,0.65,0.65,0,0,0-.1.47,0.52,0.52,0,0,0,.35.51v0a0.19,0.19,0,0,0,.14-0.08,0.65,0.65,0,0,0,.1-0.47,0.52,0.52,0,0,0-.35-0.51h0Z" transform="translate(-104.31 -836.22)"/>
      <path class="e" d="M118.54,848.13a0.47,0.47,0,0,1-.48.42,0.52,0.52,0,0,1-.13-0.65,0.47,0.47,0,0,1,.48-0.42,0.53,0.53,0,0,1,.13.65h0Z" transform="translate(-104.31 -836.22)"/>
      <path class="d" d="M118.13,848.59H118a0.55,0.55,0,0,1-.15-0.69,0.57,0.57,0,0,1,.44-0.45h0.08a0.54,0.54,0,0,1,.15.69,0.57,0.57,0,0,1-.44.45h0Zm0.25-1.09a0.63,0.63,0,0,0-.31,1h0.06a0.53,0.53,0,0,0,.39-0.41,0.5,0.5,0,0,0-.12-0.62h0Z" transform="translate(-104.31 -836.22)"/>
      <path class="e" d="M118.1,847.93a0.47,0.47,0,0,1-.33.55,0.52,0.52,0,0,1-.33-0.58,0.47,0.47,0,0,1,.33-0.55,0.52,0.52,0,0,1,.33.58h0Z" transform="translate(-104.31 -836.22)"/>
      <path class="d" d="M117.78,848.51h0a0.54,0.54,0,0,1-.36-0.61,0.5,0.5,0,0,1,.35-0.58,0.54,0.54,0,0,1,.37.61,0.5,0.5,0,0,1-.35.58h0Zm0-1.13a0.46,0.46,0,0,0-.3.52,0.5,0.5,0,0,0,.3.55v0a0.46,0.46,0,0,0,.29-0.52,0.5,0.5,0,0,0-.3-0.55h0Z" transform="translate(-104.31 -836.22)"/>
      <path class="e" d="M117.44,847.14a0.47,0.47,0,0,1-.33.55,0.53,0.53,0,0,1-.33-0.58,0.47,0.47,0,0,1,.33-0.55,0.52,0.52,0,0,1,.33.58h0Z" transform="translate(-104.31 -836.22)"/>
      <path class="d" d="M117.12,847.72h0a0.55,0.55,0,0,1-.36-0.61,0.5,0.5,0,0,1,.35-0.58,0.53,0.53,0,0,1,.37.61,0.5,0.5,0,0,1-.35.58h0Zm0-1.13a0.46,0.46,0,0,0-.3.52,0.51,0.51,0,0,0,.3.55v0a0.46,0.46,0,0,0,.29-0.52,0.5,0.5,0,0,0-.3-0.55h0Z" transform="translate(-104.31 -836.22)"/>
      <path class="e" d="M117.93,847.14a0.47,0.47,0,0,1-.33.55,0.53,0.53,0,0,1-.33-0.58,0.47,0.47,0,0,1,.33-0.55,0.52,0.52,0,0,1,.33.58h0Z" transform="translate(-104.31 -836.22)"/>
      <path class="d" d="M117.61,847.72h0a0.55,0.55,0,0,1-.36-0.61,0.5,0.5,0,0,1,.35-0.58,0.53,0.53,0,0,1,.37.61,0.5,0.5,0,0,1-.35.58h0Zm0-1.13a0.46,0.46,0,0,0-.3.52,0.51,0.51,0,0,0,.3.55v0a0.46,0.46,0,0,0,.29-0.52,0.5,0.5,0,0,0-.3-0.55h0Z" transform="translate(-104.31 -836.22)"/>
      <path class="e" d="M118.35,846.46a0.47,0.47,0,0,1-.46.45,0.52,0.52,0,0,1-.17-0.64,0.47,0.47,0,0,1,.46-0.45,0.53,0.53,0,0,1,.17.64h0Z" transform="translate(-104.31 -836.22)"/>
      <path class="d" d="M118,846.94h-0.07a0.54,0.54,0,0,1-.19-0.68,0.56,0.56,0,0,1,.43-0.48,0.52,0.52,0,0,1,.26.69,0.56,0.56,0,0,1-.43.48h0Zm0.21-1.1a0.63,0.63,0,0,0-.26,1h0a0.52,0.52,0,0,0,.37-0.44,0.51,0.51,0,0,0-.15-0.61h0Z" transform="translate(-104.31 -836.22)"/>
      <path class="e" d="M118.48,847.15a0.47,0.47,0,0,1-.46.45,0.53,0.53,0,0,1-.17-0.64,0.47,0.47,0,0,1,.46-0.45,0.52,0.52,0,0,1,.17.64h0Z" transform="translate(-104.31 -836.22)"/>
      <path class="d" d="M118.08,847.64H118a0.54,0.54,0,0,1-.19-0.68,0.56,0.56,0,0,1,.43-0.48,0.52,0.52,0,0,1,.26.69,0.56,0.56,0,0,1-.43.48h0Zm0.21-1.1a0.49,0.49,0,0,0-.41.43,0.5,0.5,0,0,0,.15.61h0a0.52,0.52,0,0,0,.37-0.44,0.5,0.5,0,0,0-.15-0.61h0Z" transform="translate(-104.31 -836.22)"/>
      <path class="e" d="M118.88,847.29a0.48,0.48,0,0,1-.46.45,0.53,0.53,0,0,1-.17-0.64,0.47,0.47,0,0,1,.46-0.45,0.52,0.52,0,0,1,.17.64h0Z" transform="translate(-104.31 -836.22)"/>
      <path class="d" d="M118.48,847.77h-0.06a0.55,0.55,0,0,1-.19-0.68,0.56,0.56,0,0,1,.43-0.48,0.52,0.52,0,0,1,.26.69,0.56,0.56,0,0,1-.43.48h0Zm0.21-1.1a0.49,0.49,0,0,0-.41.43,0.5,0.5,0,0,0,.15.61h0a0.52,0.52,0,0,0,.37-0.44,0.5,0.5,0,0,0-.15-0.61h0Z" transform="translate(-104.31 -836.22)"/>
      <path class="e" d="M118.65,845.66a0.47,0.47,0,0,1-.46.45,0.53,0.53,0,0,1-.17-0.64,0.47,0.47,0,0,1,.46-0.45,0.52,0.52,0,0,1,.17.64h0Z" transform="translate(-104.31 -836.22)"/>
      <path class="d" d="M118.25,846.15h-0.07a0.54,0.54,0,0,1-.19-0.68,0.56,0.56,0,0,1,.43-0.48,0.51,0.51,0,0,1,.26.69,0.56,0.56,0,0,1-.43.48h0Zm0.21-1.1a0.49,0.49,0,0,0-.41.43,0.5,0.5,0,0,0,.15.61h0a0.52,0.52,0,0,0,.37-0.43,0.5,0.5,0,0,0-.15-0.61h0Z" transform="translate(-104.31 -836.22)"/>
      <path class="e" d="M119.19,842.51a0.47,0.47,0,0,1-.34.54,0.52,0.52,0,0,1-.31-0.59,0.47,0.47,0,0,1,.34-0.54,0.52,0.52,0,0,1,.31.59h0Z" transform="translate(-104.31 -836.22)"/>
      <path class="d" d="M118.86,843.08h0a0.54,0.54,0,0,1-.34-0.62,0.51,0.51,0,0,1,.36-0.57,0.54,0.54,0,0,1,.36.62,0.51,0.51,0,0,1-.36.57h0Zm0-1.13a0.46,0.46,0,0,0-.31.51,0.5,0.5,0,0,0,.29.56v0a0.47,0.47,0,0,0,.3-0.51,0.5,0.5,0,0,0-.29-0.56h0Z" transform="translate(-104.31 -836.22)"/>
      <path class="e" d="M118.81,846.39a0.47,0.47,0,0,1-.46.45,0.52,0.52,0,0,1-.17-0.64,0.47,0.47,0,0,1,.46-0.45,0.52,0.52,0,0,1,.17.64h0Z" transform="translate(-104.31 -836.22)"/>
      <path class="d" d="M118.41,846.88h-0.07a0.54,0.54,0,0,1-.19-0.68,0.56,0.56,0,0,1,.43-0.48,0.52,0.52,0,0,1,.26.69,0.56,0.56,0,0,1-.43.48h0Zm0.21-1.1a0.49,0.49,0,0,0-.41.43,0.5,0.5,0,0,0,.15.61h0a0.52,0.52,0,0,0,.37-0.44,0.51,0.51,0,0,0-.15-0.61h0Z" transform="translate(-104.31 -836.22)"/>
      <path class="e" d="M119.21,846.49a0.47,0.47,0,0,1-.46.45,0.52,0.52,0,0,1-.17-0.64,0.47,0.47,0,0,1,.46-0.45,0.53,0.53,0,0,1,.17.64h0Z" transform="translate(-104.31 -836.22)"/>
      <path class="d" d="M118.81,847h-0.07a0.54,0.54,0,0,1-.19-0.68,0.56,0.56,0,0,1,.43-0.48,0.52,0.52,0,0,1,.26.69,0.56,0.56,0,0,1-.43.48h0Zm0.21-1.1a0.63,0.63,0,0,0-.26,1h0a0.52,0.52,0,0,0,.37-0.44,0.5,0.5,0,0,0-.15-0.61h0Z" transform="translate(-104.31 -836.22)"/>
      <path class="e" d="M118.86,843.21a0.47,0.47,0,0,1-.34.54,0.52,0.52,0,0,1-.31-0.59,0.47,0.47,0,0,1,.34-0.54,0.52,0.52,0,0,1,.31.59h0Z" transform="translate(-104.31 -836.22)"/>
      <path class="d" d="M118.53,843.78h0a0.54,0.54,0,0,1-.34-0.62,0.51,0.51,0,0,1,.36-0.57,0.54,0.54,0,0,1,.36.62,0.51,0.51,0,0,1-.36.57h0Zm0-1.13a0.46,0.46,0,0,0-.31.51,0.5,0.5,0,0,0,.29.56v0a0.47,0.47,0,0,0,.3-0.51,0.5,0.5,0,0,0-.29-0.56h0Z" transform="translate(-104.31 -836.22)"/>
      <path class="e" d="M119.42,843.22a0.47,0.47,0,0,1-.37.52,0.53,0.53,0,0,1-.29-0.6,0.47,0.47,0,0,1,.37-0.52,0.52,0.52,0,0,1,.29.6h0Z" transform="translate(-104.31 -836.22)"/>
      <path class="d" d="M119.07,843.78h0a0.55,0.55,0,0,1-.31-0.63,0.52,0.52,0,0,1,.38-0.55,0.54,0.54,0,0,1,.34.63,0.52,0.52,0,0,1-.37.55h0Zm0.06-1.13a0.47,0.47,0,0,0-.34.5,0.51,0.51,0,0,0,.26.57h0a0.47,0.47,0,0,0,.32-0.5,0.51,0.51,0,0,0-.26-0.57h0Z" transform="translate(-104.31 -836.22)"/>
      <path class="e" d="M118.79,843.84a0.47,0.47,0,0,1-.34.54,0.52,0.52,0,0,1-.31-0.59,0.47,0.47,0,0,1,.34-0.54,0.52,0.52,0,0,1,.31.59h0Z" transform="translate(-104.31 -836.22)"/>
      <path class="d" d="M118.46,844.4h0a0.54,0.54,0,0,1-.34-0.62,0.51,0.51,0,0,1,.36-0.57,0.53,0.53,0,0,1,.36.62,0.51,0.51,0,0,1-.36.57h0Zm0-1.13a0.46,0.46,0,0,0-.31.51,0.5,0.5,0,0,0,.29.56v0a0.47,0.47,0,0,0,.3-0.51,0.5,0.5,0,0,0-.29-0.56h0Z" transform="translate(-104.31 -836.22)"/>
      <path class="e" d="M119.35,843.92a0.47,0.47,0,0,1-.37.52,0.52,0.52,0,0,1-.29-0.6,0.47,0.47,0,0,1,.37-0.52,0.52,0.52,0,0,1,.29.6h0Z" transform="translate(-104.31 -836.22)"/>
      <path class="d" d="M119,844.47h0a0.55,0.55,0,0,1-.31-0.63,0.52,0.52,0,0,1,.37-0.55,0.54,0.54,0,0,1,.34.63,0.52,0.52,0,0,1-.37.55h0Zm0.06-1.12a0.46,0.46,0,0,0-.34.5,0.5,0.5,0,0,0,.26.57h0a0.47,0.47,0,0,0,.32-0.5,0.5,0.5,0,0,0-.26-0.57h0Z" transform="translate(-104.31 -836.22)"/>
      <path class="e" d="M118.86,844.66a0.47,0.47,0,0,1-.34.54,0.52,0.52,0,0,1-.31-0.59,0.47,0.47,0,0,1,.34-0.54,0.52,0.52,0,0,1,.31.59h0Z" transform="translate(-104.31 -836.22)"/>
      <path class="d" d="M118.53,845.23h0a0.54,0.54,0,0,1-.34-0.62,0.51,0.51,0,0,1,.36-0.57,0.54,0.54,0,0,1,.36.62,0.51,0.51,0,0,1-.36.57h0Zm0-1.13a0.46,0.46,0,0,0-.31.51,0.5,0.5,0,0,0,.29.56v0a0.47,0.47,0,0,0,.3-0.51,0.5,0.5,0,0,0-.29-0.56h0Z" transform="translate(-104.31 -836.22)"/>
      <path class="e" d="M119.11,845.53a0.47,0.47,0,0,1-.46.45,0.53,0.53,0,0,1-.17-0.64,0.47,0.47,0,0,1,.46-0.45,0.52,0.52,0,0,1,.17.64h0Z" transform="translate(-104.31 -836.22)"/>
      <path class="d" d="M118.71,846h-0.07a0.55,0.55,0,0,1-.19-0.68,0.56,0.56,0,0,1,.43-0.48,0.51,0.51,0,0,1,.26.69,0.56,0.56,0,0,1-.43.48h0Zm0.21-1.1a0.49,0.49,0,0,0-.41.43,0.5,0.5,0,0,0,.15.61h0a0.52,0.52,0,0,0,.37-0.43,0.5,0.5,0,0,0-.15-0.61h0Z" transform="translate(-104.31 -836.22)"/>
      <path class="e" d="M119.54,845.66a0.47,0.47,0,0,1-.46.45,0.53,0.53,0,0,1-.17-0.64,0.47,0.47,0,0,1,.46-0.45,0.52,0.52,0,0,1,.17.64h0Z" transform="translate(-104.31 -836.22)"/>
      <path class="d" d="M119.14,846.15h-0.07a0.54,0.54,0,0,1-.19-0.68,0.56,0.56,0,0,1,.43-0.48,0.51,0.51,0,0,1,.26.69,0.56,0.56,0,0,1-.43.48h0Zm0.21-1.1a0.49,0.49,0,0,0-.41.43,0.5,0.5,0,0,0,.15.61h0a0.52,0.52,0,0,0,.37-0.43,0.5,0.5,0,0,0-.15-0.61h0Z" transform="translate(-104.31 -836.22)"/>
      <path class="e" d="M119.48,844.68a0.47,0.47,0,0,1-.37.52,0.52,0.52,0,0,1-.29-0.6,0.47,0.47,0,0,1,.37-0.52,0.52,0.52,0,0,1,.29.6h0Z" transform="translate(-104.31 -836.22)"/>
      <path class="d" d="M119.14,845.23h0a0.55,0.55,0,0,1-.31-0.63,0.52,0.52,0,0,1,.37-0.55,0.54,0.54,0,0,1,.34.63,0.52,0.52,0,0,1-.37.55h0Zm0.06-1.13a0.46,0.46,0,0,0-.34.5,0.51,0.51,0,0,0,.26.57h0a0.47,0.47,0,0,0,.32-0.5,0.51,0.51,0,0,0-.26-0.57h0Z" transform="translate(-104.31 -836.22)"/>
    </g>
  </g>
</svg>
