<svg xmlns="http://www.w3.org/2000/svg" xmlns:xlink="http://www.w3.org/1999/xlink" viewBox="0 0 58.93 34.37">
  <defs>
    <style>
      .a {
        fill: none;
      }

      .b {
        clip-path: url(#a);
      }

      .c {
        fill: #33795e;
      }

      .d {
        fill: #fff;
      }

      .e {
        fill: #f2d02f;
      }
    </style>
    <clipPath id="a" transform="translate(-246.19 -720.43)">
      <rect class="a" x="246.19" y="720.43" width="58.93" height="34.37"/>
    </clipPath>
  </defs>
  <title>Macau</title>
  <g class="b">
    <rect class="c" width="58.93" height="34.37"/>
    <g class="b">
      <path class="d" d="M275.65,740c-0.87.6-1.79,1.9-3.91,1.9a7,7,0,0,1-5-1.54,2.64,2.64,0,0,1,.76-0.46,7.32,7.32,0,0,0,5,1.47c-3.08-.27-5.16-2-5.79-3.5a6,6,0,0,1,6.69.46,6.3,6.3,0,0,0-4.83-1.57c-0.25-.26-0.47-0.59-0.73-0.85a7.67,7.67,0,0,1,5.89,1.89c-1.09-1.73-1.89-3.69-.6-6.08,0.25,0.24.54,0.48,0.8,0.72a5.5,5.5,0,0,0,.16,5.23,5.44,5.44,0,0,1,1.52-6.83,5.44,5.44,0,0,1,1.52,6.83,5.5,5.5,0,0,0,.17-5.23c0.25-.24.54-0.48,0.79-0.72,1.29,2.39.5,4.35-.59,6.08a7.67,7.67,0,0,1,5.89-1.89c-0.25.26-.47,0.59-0.73,0.85a6.3,6.3,0,0,0-4.83,1.57,6,6,0,0,1,6.69-.46c-0.63,1.55-2.71,3.23-5.79,3.5a7.32,7.32,0,0,0,5-1.47,2.62,2.62,0,0,1,.76.46,7,7,0,0,1-5,1.54c-2.12,0-3-1.3-3.91-1.9" transform="translate(-246.19 -720.43)"/>
      <path class="d" d="M275.65,740.53c-1.25,1-2,1.69-3.65,1.69h-5q0.19,0.35.41,0.7h4.72a4.85,4.85,0,0,0,3.51-1.44,4.85,4.85,0,0,0,3.51,1.44h4.72c0.14-.22.28-0.46,0.41-0.69h-5c-1.65,0-2.4-.65-3.65-1.69" transform="translate(-246.19 -720.43)"/>
      <polygon class="e" points="29.46 5.64 29.92 7.02 31.39 7.02 30.2 7.88 30.66 9.26 29.46 8.41 28.27 9.26 28.73 7.88 27.53 7.02 29.01 7.02 29.46 5.64"/>
      <polygon class="e" points="20.6 11.83 21.49 12.02 21.95 11.23 22.05 12.13 22.95 12.32 22.11 12.69 22.2 13.59 21.59 12.92 20.75 13.29 21.21 12.5 20.6 11.83"/>
      <polygon class="e" points="23.71 7.8 24.39 8.4 25.19 7.95 24.81 8.78 25.49 9.38 24.58 9.29 24.21 10.12 24.02 9.23 23.11 9.14 23.9 8.68 23.71 7.8"/>
      <polygon class="e" points="38.33 11.83 37.43 12.02 36.97 11.23 36.88 12.13 35.98 12.32 36.82 12.69 36.72 13.59 37.33 12.92 38.17 13.29 37.71 12.5 38.33 11.83"/>
      <polygon class="e" points="35.21 7.8 34.53 8.4 33.74 7.95 34.11 8.78 33.43 9.38 34.34 9.29 34.71 10.12 34.91 9.23 35.82 9.14 35.02 8.68 35.21 7.8"/>
      <path class="d" d="M267.86,743.53l0.19,0.24h15.2l0.19-.24H267.86Zm0.84,1q0.25,0.25.51,0.48H282.1q0.27-.23.51-0.48H268.7Zm1.11,1a9.64,9.64,0,0,0,1.13.72h9.43a9.63,9.63,0,0,0,1.13-.72H269.81Zm1.59,1a9.81,9.81,0,0,0,4.12,1h0.25a9.81,9.81,0,0,0,4.12-1h-8.5Z" transform="translate(-246.19 -720.43)"/>
    </g>
  </g>
</svg>
