<svg xmlns="http://www.w3.org/2000/svg" xmlns:xlink="http://www.w3.org/1999/xlink" viewBox="0 0 58.92 34.37">
  <defs>
    <style>
      .a {
        fill: none;
      }

      .b {
        clip-path: url(#a);
      }

      .c {
        fill: #d80031;
      }

      .d {
        fill: #fff;
      }

      .e {
        fill: #2530a9;
      }

      .f {
        fill: #f5d028;
      }
    </style>
    <clipPath id="a" transform="translate(-1092.39 -720.42)">
      <rect class="a" x="1092.39" y="720.42" width="58.92" height="34.37"/>
    </clipPath>
  </defs>
  <title>Malaysia</title>
  <g class="b">
    <rect class="c" width="58.92" height="2.46"/>
    <rect class="d" y="2.46" width="58.92" height="2.46"/>
    <rect class="c" y="4.91" width="58.92" height="2.46"/>
    <rect class="d" y="7.37" width="58.92" height="2.46"/>
    <rect class="c" y="9.82" width="58.92" height="2.45"/>
    <rect class="d" y="12.28" width="58.92" height="2.46"/>
    <rect class="c" y="14.73" width="58.92" height="2.45"/>
    <rect class="d" y="17.19" width="58.92" height="2.46"/>
    <rect class="c" y="19.64" width="58.92" height="2.45"/>
    <rect class="d" y="22.1" width="58.92" height="2.46"/>
    <rect class="c" y="24.55" width="58.92" height="2.45"/>
    <rect class="d" y="27.01" width="58.92" height="2.46"/>
    <rect class="c" y="29.46" width="58.92" height="2.46"/>
    <rect class="d" y="31.92" width="58.92" height="2.46"/>
    <rect class="e" width="34.37" height="19.64"/>
    <g class="b">
      <path class="f" d="M1101.6,730.24a6.44,6.44,0,0,1,9.82-5.49,7.36,7.36,0,1,0,0,11,6.45,6.45,0,0,1-9.82-5.49" transform="translate(-1092.39 -720.42)"/>
      <polygon class="f" points="23.94 9.82 27.47 8.46 23.69 8.76 26.28 5.99 23.01 7.9 24.14 4.29 22.03 7.43 21.48 3.68 21.09 6.37 20.98 7.14 20.94 7.43 18.82 4.29 19.95 7.9 16.68 5.99 19.27 8.76 15.5 8.46 19.03 9.82 15.5 11.19 19.27 10.89 16.68 13.65 19.95 11.74 18.82 15.35 20.94 12.21 20.98 12.5 21.09 13.28 21.48 15.96 22.03 12.21 24.14 15.35 23.01 11.74 26.28 13.65 23.69 10.89 27.47 11.19 23.94 9.82"/>
    </g>
  </g>
</svg>
