<svg xmlns="http://www.w3.org/2000/svg" xmlns:xlink="http://www.w3.org/1999/xlink" viewBox="0 0 58.92 34.37">
  <defs>
    <style>
      .a {
        fill: none;
      }

      .b {
        clip-path: url(#a);
      }

      .c {
        fill: #fff;
      }

      .d {
        fill: #317267;
      }

      .e {
        fill: #f5e129;
      }

      .f {
        fill: #c0003b;
      }
    </style>
    <clipPath id="a" transform="translate(-33.62 -836.22)">
      <rect class="a" x="33.62" y="836.22" width="58.92" height="34.37"/>
    </clipPath>
  </defs>
  <title>Mozambique</title>
  <g class="b">
    <rect width="58.92" height="34.37"/>
    <rect class="c" width="58.92" height="11.82"/>
    <rect class="d" width="58.92" height="10.74"/>
    <rect class="c" y="22.54" width="58.92" height="11.83"/>
    <rect class="e" y="23.63" width="58.92" height="10.74"/>
    <polygon class="f" points="0 0 0 34.37 22.56 17.19 0 0"/>
    <polygon class="e" points="11.71 23.63 7.52 20.56 3.33 23.63 4.95 18.7 0.74 15.67 5.94 15.69 7.52 10.74 9.11 15.69 14.29 15.66 10.08 18.7 11.71 23.63"/>
    <g class="b">
      <path class="c" d="M37.5,856.41h3a1,1,0,0,0,1.3,0,4.73,4.73,0,0,1,2.78,0L45,856l-0.88-2.88-0.32-.34a3.37,3.37,0,0,0-2-.27,4.19,4.19,0,0,1-1.73,0,7.58,7.58,0,0,0-1.44.29l-0.36.36Z" transform="translate(-33.62 -836.22)"/>
      <path d="M41.12,856.7h0a0.84,0.84,0,0,1-.63-0.26h-3l0.73-3.31,0.37-.38a7.19,7.19,0,0,1,1.46-.3,4.43,4.43,0,0,0,1.74,0,3.34,3.34,0,0,1,2,.28l0.32,0.34L45,856l-0.37.42a10.71,10.71,0,0,0-1.67-.22,2.34,2.34,0,0,0-1.12.23,1.19,1.19,0,0,1-.71.25h0Zm-0.6-.32a0.85,0.85,0,0,0,.6.25h0a1.13,1.13,0,0,0,.68-0.24,2.41,2.41,0,0,1,1.16-.24,7,7,0,0,1,1.65.23l0.32-.37L44,853.16l-0.31-.32h0a3.45,3.45,0,0,0-1.93-.26,4.18,4.18,0,0,1-1.75,0,8,8,0,0,0-1.41.29l-0.35.36-0.76,3.25,3,0h0Z" transform="translate(-33.62 -836.22)"/>
      <path d="M41.1,856.7a1.05,1.05,0,0,1-.63-0.23,1.49,1.49,0,0,1,.67-0.53,7.72,7.72,0,0,0-3-.23s0,0,0,0a0,0,0,0,1,0,0,7.14,7.14,0,0,1,3.09.27,5,5,0,0,1,2.8-.29,0,0,0,0,1,0,0,0,0,0,0,1,0,0,5,5,0,0,0-2.71.26,1.56,1.56,0,0,1,.58.45,1.23,1.23,0,0,1-.75.3h0Zm0.12-.73a2,2,0,0,0-.69.49,1.05,1.05,0,0,0,1.28-.07,1.53,1.53,0,0,0-.58-0.42h0Z" transform="translate(-33.62 -836.22)"/>
      <polygon points="7.58 19.74 7.54 16.56 7.6 16.56 7.58 19.74 7.58 19.74"/>
      <polygon points="10.71 19.13 10.11 16.61 10.17 16.6 10.71 19.13 10.71 19.13"/>
      <path d="M38.35,854.13h0a0,0,0,0,1,0,0l0.3-1.3a0,0,0,0,1,0,0,0,0,0,0,1,0,0l-0.3,1.3a0,0,0,0,1,0,0h0Z" transform="translate(-33.62 -836.22)"/>
      <path d="M35.54,856.76l0.71,0.83a0.21,0.21,0,0,0,.23,0l1.05-1.26,0.44-.55a0.34,0.34,0,0,0,.08-0.25l0.85-.75,0.18,0c-0.08,0-.14-0.06-0.08-0.15l0.19-.15,0.15,0.19a2.61,2.61,0,0,1-.23.27H38.88l-0.44.4,0.19,0.17,0.29,0.8,0.36-.25L39,855.26l0.5-.55-0.19-.29,0.13-.17s1.75,1.1,2.42.81c0,0,0-.78,0-0.78s-1.81-.19-1.85-0.55a0.41,0.41,0,0,1,.4-0.4L40.31,853l0-.15,0.32,0.4,0.72-.61,4.21,4.8a0.35,0.35,0,0,0,.3-0.38l-4.12-4.73,0.32-.34a0.25,0.25,0,0,0,.08-0.21l0.48-.42a0.6,0.6,0,0,1,.32.25l1.33-1.13a0.21,0.21,0,0,0,.21,0l2.2-2.11-2.4,1.69-0.08-.06c0-.07.09-0.09,0-0.21S44,850,44,850a0.84,0.84,0,0,1-.42-0.26l0,0.39-0.61.57-0.46,0-0.67.65-0.08.25,0.1,0.21a4.28,4.28,0,0,1-.36.29,0.57,0.57,0,0,0-.08-0.1l0.31-.28,0-.19-0.1-.16a2.77,2.77,0,0,1-.44.39L40,850.44l0.06-.23-0.72-.78a0.52,0.52,0,0,0-.76.46,1,1,0,0,1-.61,0l-0.3.06-1.66,2.36L37,853.45l1.89-2.4,0.06-.68,0.4,0.44a0.63,0.63,0,0,0,.38,0L40.83,852l-0.19.18,0.17,0.18,0.19-.13,0.08,0.11c-0.09.05-.16,0.12-0.25,0.17a0.49,0.49,0,0,1-.28-0.42l-0.63.53,0,0.1L38,854.31l-0.17,0,0,0.48,1.22-1v-0.15l0.13,0.1L40.1,853a0.16,0.16,0,0,1,0,.08s-0.84.76-.84,0.76l0,0.08-0.15.13L39,854l-1.14,1H37.74l-0.63.63a0.86,0.86,0,0,0-.44.13Z" transform="translate(-33.62 -836.22)"/>
      <path d="M36.36,857.66a0.26,0.26,0,0,1-.14,0l-0.72-.84,1.13-1.05a0.91,0.91,0,0,1,.46-0.13l0.61-.62h0.19L39,854,39.15,854l0.11-.19c0.64-.6.8-0.74,0.85-0.77h0a0.07,0.07,0,0,1,0,0l-0.9.76L39,853.68l0.06,0.12-1.23,1,0-.52,0.2-.05,1.85-1.55v-0.08l0.64-.55a0.67,0.67,0,0,0,.33.41,0.25,0.25,0,0,1,.09-0.09l0.13-.09H41l-0.17.1-0.22-.19,0.19-.23-1.12-1.2a0.43,0.43,0,0,1-.36.05l-0.42-.46V851L37,853.47l-1-1.11,1.66-2.4,0.32-.08a3,3,0,0,0,.4,0,0.2,0.2,0,0,0,.19,0,0.54,0.54,0,0,1,.8-0.48l0.73,0.79-0.05.26h0s1.09,1.21,1.13,1.25l0.3-.31,0.09-.09,0.11,0.12,0-.13,0.68-.67h0.49l0.58-.56v-0.36a1.72,1.72,0,0,0,.46.23,0.27,0.27,0,0,1,.19-0.14l0.09,0a0.15,0.15,0,0,1,0,.19l0.05,0.07,2.36-1.69a0,0,0,0,1,0,0,0,0,0,0,1,0,0l-2.2,2.11a0.23,0.23,0,0,1-.26,0L43,851.68a1,1,0,0,0-.35-0.25l-0.45.41a0.22,0.22,0,0,1-.08.21l-0.32.34h0s4.09,4.65,4.13,4.69a0.38,0.38,0,0,1-.31.44l-4.25-4.81-0.67.61-0.37-.41,0,0.13,0.18,0.24a2.38,2.38,0,0,0-.34.21,0.27,0.27,0,0,0-.05.21c0,0.24,1.13.44,1.82,0.52,0,0.86,0,.86,0,0.86a0.69,0.69,0,0,1-.28,0,5.76,5.76,0,0,1-2.16-.86l-0.08.16,0.19,0.25-0.51.59,0.24,0.79-0.37.29-0.34-.81-0.18-.16,0.44-.46h0.26l0.2-.26-0.15-.15-0.14.15c0,0.05,0,.07.06,0.09a0,0,0,0,1,0,0,0.05,0.05,0,0,1,0,0l-0.18,0-0.82.74a0.28,0.28,0,0,1-.08.25l-1.49,1.81a0.25,0.25,0,0,1-.14,0h0ZM39,854l-1.09,1H37.74l-0.61.62a1,1,0,0,0-.45.13l-1.13,1,0.71,0.78a0.18,0.18,0,0,0,.19,0l1.48-1.8a0.31,0.31,0,0,0,.08-0.23l0.86-.78h0.07a0.13,0.13,0,0,1,0-.12l0.2-.15,0.2,0.2a0.71,0.71,0,0,1-.26.33H38.88l-0.42.39,0.19,0.12,0.3,0.81,0.3-.27L39,855.26l0.51-.58-0.19-.25,0.13-.21h0a6.85,6.85,0,0,0,2.17.84,0.66,0.66,0,0,0,.26,0s0-.48,0-0.75c-0.15,0-1.81-.17-1.85-0.54a0.34,0.34,0,0,1,.07-0.26,0.58,0.58,0,0,1,.36-0.18l-0.22-.22,0-.18,0.38,0.39,0.66-.62,4.26,4.8a0.34,0.34,0,0,0,.23-0.36s-0.34-.37-4.12-4.71L42,852a0.22,0.22,0,0,0,.07-0.19l0.5-.45a0.56,0.56,0,0,1,.37.26l1.28-1.13a0.67,0.67,0,0,0,.16,0l1.88-1.77-2,1.4-0.13-.06a0.17,0.17,0,0,1,0-.1,0.09,0.09,0,0,0,0-.12A0.18,0.18,0,0,0,44,850L44,850a0.83,0.83,0,0,1-.45-0.28l0,0.37-0.62.59H42.45l-0.65.64-0.07.24,0.1,0.18a1.38,1.38,0,0,1-.39.35L41.36,852a0.16,0.16,0,0,1,0-.08l0.31-.28,0-.1-0.07-.17,0,0.05a1.15,1.15,0,0,1-.37.32c-0.07-.05-1.17-1.3-1.17-1.3l0.06-.26-0.71-.74a0.93,0.93,0,0,0-.23,0,0.46,0.46,0,0,0-.46.48,0.25,0.25,0,0,1-.25.1,2.32,2.32,0,0,1-.4,0l-0.28.06-1.64,2.34L37,853.42l1.84-2.4,0-.66,0.46,0.42h0.12a0.47,0.47,0,0,0,.22,0L40.86,852l-0.19.23,0.09,0,0.08,0.09,0-.07,0.09-.07a0.15,0.15,0,0,1,.08.06l0,0.06a0.5,0.5,0,0,1-.13.13l-0.13.09a0.5,0.5,0,0,1-.34-0.45l-0.57.56v0.08L38,854.34l-0.19,0v0.45l1.16-1v-0.12l0.18,0.08,0.9-.76c0.12,0.09.11,0.11,0.1,0.13s-0.54.48-.85,0.77v0.07l-0.16.14L39,854h0Zm2.69-2.37v0l-0.32.29a0.12,0.12,0,0,1,.09.06,1.19,1.19,0,0,1,.3-0.31l-0.06-.09h0Z" transform="translate(-33.62 -836.22)"/>
    </g>
  </g>
</svg>
