<svg xmlns="http://www.w3.org/2000/svg" xmlns:xlink="http://www.w3.org/1999/xlink" viewBox="0 0 65.09 44.95">
  <defs>
    <style>
      .a {
        fill: none;
      }

      .b {
        clip-path: url(#a);
      }

      .c {
        fill: #1f357e;
      }

      .d {
        fill: #3d9546;
      }

      .e {
        fill: #fff;
      }

      .f {
        fill: #c0003b;
      }

      .g {
        fill: #f5cd28;
      }
    </style>
    <clipPath id="a" transform="translate(-242.6 -830.93)">
      <rect class="a" x="245.69" y="836.22" width="58.92" height="34.37"/>
    </clipPath>
  </defs>
  <title>Namibia</title>
  <g class="b">
    <polygon class="c" points="3.09 5.29 3.09 39.66 62.01 5.29 3.09 5.29"/>
    <polygon class="d" points="62.01 5.29 3.09 39.66 62.01 39.66 62.01 5.29"/>
    <g class="b">
      <polygon class="e" points="6.17 44.95 0 34.37 58.92 0 65.09 10.58 6.17 44.95 6.17 44.95"/>
      <polygon class="f" points="5.4 43.63 0.77 35.7 59.69 1.32 64.32 9.26 5.4 43.63 5.4 43.63"/>
    </g>
    <polygon class="g" points="20.48 17.61 17.95 17.17 18.39 19.7 16.41 18.06 15.52 20.47 14.63 18.06 12.66 19.7 13.09 17.17 10.56 17.61 12.2 15.63 9.79 14.74 12.2 13.85 10.56 11.88 13.09 12.31 12.66 9.78 14.63 11.42 15.52 9.01 16.41 11.42 18.39 9.78 17.95 12.31 20.48 11.88 18.84 13.85 21.25 14.74 18.84 15.63 20.48 17.61"/>
    <g class="b">
      <path class="c" d="M261.56,845.68a3.44,3.44,0,1,1-3.44-3.44,3.44,3.44,0,0,1,3.44,3.44" transform="translate(-242.6 -830.93)"/>
      <path class="g" d="M261,845.68a2.86,2.86,0,1,1-2.87-2.87,2.87,2.87,0,0,1,2.87,2.87" transform="translate(-242.6 -830.93)"/>
    </g>
  </g>
</svg>
