<svg xmlns="http://www.w3.org/2000/svg" xmlns:xlink="http://www.w3.org/1999/xlink" viewBox="0 0 27.33 34.37">
  <defs>
    <style>
      .a {
        fill: none;
      }

      .b {
        clip-path: url(#a);
      }

      .c {
        fill: #22368f;
      }

      .d {
        fill: #bc0030;
      }

      .e {
        fill: #fff;
      }
    </style>
    <clipPath id="a" transform="translate(-402.72 -836.22)">
      <rect class="a" x="402.72" y="836.22" width="27.61" height="34.37"/>
    </clipPath>
  </defs>
  <title>Nepal</title>
  <g class="b">
    <path class="c" d="M404,838.57L425.51,852H408.95l17.26,17.26H404V838.57Zm-1.3-2.35V870.6h26.63l-17.26-17.26h18Z" transform="translate(-402.72 -836.22)"/>
    <polygon class="d" points="0.65 1.18 0.65 33.72 25.06 33.72 7.8 16.46 25.06 16.46 0.65 1.18"/>
    <g class="b">
      <path class="e" d="M409.47,851.81a4.86,4.86,0,0,0,4.86-4.86,5.25,5.25,0,0,1-2.18,2.57l-0.42-.31,0.82-.61-1-.25h0l0.52-.88-1,.14,0.15-1-0.88.52h0l-0.25-1-0.61.82-0.61-.82-0.25,1h0l-0.88-.52,0.15,1-1-.14,0.52,0.88h0l-1,.25,0.82,0.61-0.42.31a5.25,5.25,0,0,1-2.18-2.57,4.86,4.86,0,0,0,4.86,4.86" transform="translate(-402.72 -836.22)"/>
      <polygon class="e" points="9.95 25.95 9.95 25.95 11.98 25.09 9.95 24.23 9.95 24.23 11.28 22.48 9.1 22.75 9.37 20.57 7.61 21.89 7.61 21.89 6.75 19.87 5.89 21.89 5.89 21.89 4.14 20.57 4.41 22.75 2.23 22.48 3.55 24.23 3.55 24.23 1.53 25.09 3.55 25.95 3.55 25.95 2.23 27.7 4.41 27.43 4.41 27.43 4.41 27.43 4.14 29.62 5.89 28.29 5.89 28.29 6.75 30.32 7.61 28.29 7.61 28.29 9.37 29.62 9.1 27.43 11.28 27.7 9.95 25.95"/>
    </g>
  </g>
</svg>
