<svg xmlns="http://www.w3.org/2000/svg" xmlns:xlink="http://www.w3.org/1999/xlink" viewBox="0 0 58.92 34.37">
  <defs>
    <style>
      .a {
        fill: none;
      }

      .b {
        clip-path: url(#a);
      }

      .c {
        fill: #1a237b;
      }

      .d {
        fill: #fff;
      }

      .e {
        fill: #bd0034;
      }
    </style>
    <clipPath id="a" transform="translate(-598.01 -836.22)">
      <rect class="a" x="598.01" y="836.22" width="58.92" height="34.37"/>
    </clipPath>
  </defs>
  <title>New_Zealand</title>
  <g class="b">
    <polygon class="c" points="29.48 0 29.48 1.09 29.48 1.47 29.48 1.64 22.93 4.91 29.48 4.91 29.48 5.89 29.48 7.37 29.48 8.84 29.48 9.82 22.93 9.82 29.48 13.09 29.48 13.64 29.48 14.74 29.48 14.83 27.46 14.83 26.71 14.83 26.36 14.83 17.19 10.24 17.19 14.83 16.2 14.83 14.73 14.83 13.26 14.83 12.27 14.83 12.27 10.24 3.1 14.83 2 14.83 0 14.83 0 34.37 58.92 34.37 58.92 0 29.48 0"/>
    <polygon class="c" points="0 9.82 0 13.08 6.53 9.82 0 9.82"/>
    <polygon class="c" points="17.19 0 17.19 4.49 26.17 0 17.19 0"/>
    <polygon class="c" points="12.27 0 3.29 0 12.27 4.49 12.27 0"/>
    <polygon class="c" points="0 4.91 6.53 4.91 0 1.65 0 4.91"/>
    <polygon class="d" points="29.46 0 19.64 4.91 17.45 4.91 27.27 0 26.17 0 17.19 4.49 17.19 0 16.2 0 16.2 4.98 16.2 5.53 16.2 5.89 17.68 5.89 19.87 5.89 20.62 5.89 20.97 5.89 29.48 5.89 29.48 4.91 22.93 4.91 29.48 1.64 29.48 1.47 29.48 1.09 29.48 0 29.46 0"/>
    <polygon class="d" points="12.27 0 12.27 4.49 3.29 0 0 0 9.82 4.91 7.63 4.91 0 1.1 0 1.65 6.53 4.91 0 4.91 0 5.89 8.49 5.89 9.59 5.89 11.78 5.89 13.26 5.89 13.26 5.53 13.26 5.16 13.26 4.98 13.26 0 12.27 0"/>
    <polygon class="d" points="19.87 8.84 17.68 8.84 16.2 8.84 16.2 9.2 16.2 9.58 16.2 9.75 16.2 14.83 17.19 14.83 17.19 10.24 26.36 14.83 26.71 14.83 27.46 14.83 29.48 14.83 29.48 14.74 19.64 9.82 21.84 9.82 29.48 13.64 29.48 13.09 22.93 9.82 29.48 9.82 29.48 8.84 20.97 8.84 19.87 8.84"/>
    <polygon class="d" points="11.78 8.84 9.59 8.84 8.84 8.84 8.49 8.84 0 8.84 0 9.82 6.53 9.82 0 13.08 0 14.73 9.82 9.82 12.02 9.82 2 14.83 3.1 14.83 12.27 10.24 12.27 14.83 13.26 14.83 13.26 9.75 13.26 9.2 13.26 8.84 11.78 8.84"/>
    <polygon class="e" points="9.82 9.82 0 14.73 0 14.83 2 14.83 12.02 9.82 9.82 9.82"/>
    <polygon class="e" points="0 1.1 7.63 4.91 9.82 4.91 0 0 0 1.1"/>
    <polygon class="e" points="29.46 0 27.27 0 17.45 4.91 19.64 4.91 29.46 0"/>
    <polygon class="e" points="19.64 9.82 29.48 14.74 29.48 13.64 21.84 9.82 19.64 9.82"/>
    <polygon class="e" points="13.26 0 13.26 4.98 13.26 5.16 13.26 5.53 13.26 5.89 11.78 5.89 9.59 5.89 8.49 5.89 0 5.89 0 8.84 8.49 8.84 8.84 8.84 9.59 8.84 11.78 8.84 13.26 8.84 13.26 9.2 13.26 9.75 13.26 14.83 14.73 14.83 16.2 14.83 16.2 9.75 16.2 9.58 16.2 9.2 16.2 8.84 17.68 8.84 19.87 8.84 20.97 8.84 29.48 8.84 29.48 7.37 29.48 5.89 20.97 5.89 20.62 5.89 19.87 5.89 17.68 5.89 16.2 5.89 16.2 5.53 16.2 4.98 16.2 0 13.26 0"/>
    <polygon class="d" points="40.9 10.03 42.5 10.03 43 8.51 43.49 10.03 45.09 10.03 43.8 10.97 44.29 12.5 43 11.55 41.7 12.5 42.2 10.97 40.9 10.03"/>
    <polygon class="e" points="41.61 10.26 42.67 10.26 43 9.26 43.32 10.26 44.38 10.26 43.52 10.89 43.85 11.89 43 11.27 42.14 11.89 42.47 10.89 41.61 10.26"/>
    <polygon class="d" points="34.5 16.48 36.1 16.48 36.59 14.95 37.09 16.48 38.69 16.48 37.4 17.41 37.89 18.94 36.59 18 35.3 18.94 35.79 17.41 34.5 16.48"/>
    <polygon class="e" points="35.21 16.71 36.27 16.71 36.59 15.7 36.92 16.71 37.98 16.71 37.12 17.33 37.45 18.34 36.59 17.71 35.74 18.34 36.06 17.33 35.21 16.71"/>
    <polygon class="d" points="46.62 14.88 48.05 14.88 48.49 13.52 48.93 14.88 50.35 14.88 49.2 15.71 49.64 17.07 48.49 16.23 47.33 17.07 47.77 15.71 46.62 14.88"/>
    <polygon class="e" points="47.25 15.08 48.2 15.08 48.49 14.19 48.78 15.08 49.72 15.08 48.96 15.64 49.25 16.53 48.49 15.98 47.73 16.53 48.02 15.64 47.25 15.08"/>
    <polygon class="d" points="40.67 26.59 42.45 26.59 43 24.89 43.55 26.59 45.33 26.59 43.89 27.64 44.44 29.33 43 28.28 41.56 29.33 42.11 27.64 40.67 26.59"/>
    <polygon class="e" points="41.46 26.85 42.63 26.85 43 25.73 43.36 26.85 44.53 26.85 43.59 27.54 43.95 28.66 43 27.96 42.05 28.66 42.41 27.54 41.46 26.85"/>
  </g>
</svg>
