<svg xmlns="http://www.w3.org/2000/svg" xmlns:xlink="http://www.w3.org/1999/xlink" viewBox="0 0 58.92 34.37">
  <defs>
    <style>
      .a {
        fill: none;
      }

      .b {
        clip-path: url(#a);
      }

      .c {
        fill: #e8333c;
      }

      .d {
        fill: #3d9546;
      }

      .e {
        fill: #fff;
      }

      .f {
        fill: #dc1f34;
      }

      .g {
        fill: #db001e;
      }
    </style>
    <clipPath id="a" transform="translate(-104.31 -894.4)">
      <rect class="a" x="104.31" y="894.4" width="58.92" height="34.37"/>
    </clipPath>
  </defs>
  <title>Oman</title>
  <g class="b">
    <rect class="c" width="58.92" height="34.37"/>
    <rect class="d" x="17.19" y="22.92" width="41.74" height="11.46"/>
    <rect class="e" x="17.19" width="41.74" height="11.46"/>
    <g class="b">
      <path class="e" d="M115.71,900.33h1.85a0.18,0.18,0,0,1,.18.17v0.87a0.18,0.18,0,0,1-.18.17h-1.85a0.18,0.18,0,0,1-.18-0.17V900.5a0.18,0.18,0,0,1,.18-0.17h0Z" transform="translate(-104.31 -894.4)"/>
      <path class="f" d="M117.55,901.56h-1.85a0.19,0.19,0,0,1-.2-0.19V900.5a0.19,0.19,0,0,1,.2-0.19h1.85a0.19,0.19,0,0,1,.2.19v0.87a0.19,0.19,0,0,1-.2.19h0Zm-1.85-1.21a0.16,0.16,0,0,0-.17.16v0.87a0.16,0.16,0,0,0,.17.16h1.85a0.16,0.16,0,0,0,.17-0.16V900.5a0.16,0.16,0,0,0-.17-0.16h-1.85Z" transform="translate(-104.31 -894.4)"/>
      <path class="e" d="M115.75,900.38h1.75a0.17,0.17,0,0,1,.17.16v0.8a0.17,0.17,0,0,1-.17.16h-1.75a0.17,0.17,0,0,1-.17-0.16v-0.8a0.17,0.17,0,0,1,.17-0.16h0Z" transform="translate(-104.31 -894.4)"/>
      <path class="f" d="M117.51,901.51h-1.75a0.18,0.18,0,0,1-.19-0.17v-0.8a0.18,0.18,0,0,1,.19-0.17h1.75a0.18,0.18,0,0,1,.19.17v0.8a0.18,0.18,0,0,1-.19.17h0Zm-1.75-1.11a0.15,0.15,0,0,0-.16.14v0.8a0.15,0.15,0,0,0,.16.14h1.75a0.15,0.15,0,0,0,.16-0.14v-0.8a0.15,0.15,0,0,0-.16-0.14h-1.75Z" transform="translate(-104.31 -894.4)"/>
      <polygon class="e" points="12.25 6.29 12.35 6.29 12.36 6.34 12.45 6.38 12.51 6.33 12.6 6.37 12.52 6.42 12.54 6.48 12.63 6.48 12.63 6.57 12.56 6.57 12.52 6.62 12.61 6.68 12.54 6.74 12.46 6.68 12.36 6.7 12.36 6.79 12.25 6.79 12.23 6.71 12.14 6.67 12.08 6.73 12 6.69 12.05 6.63 11.99 6.58 11.91 6.58 11.9 6.47 11.99 6.48 12.04 6.41 11.98 6.36 12.06 6.3 12.13 6.35 12.23 6.33 12.25 6.29"/>
      <polygon class="f" points="12.23 6.81 12.22 6.72 12.13 6.69 12.09 6.74 12 6.7 12.04 6.62 11.91 6.6 11.89 6.47 11.99 6.46 12.03 6.4 11.97 6.37 12.06 6.29 12.13 6.34 12.2 6.32 12.13 6.36 12.06 6.31 11.98 6.37 12.05 6.4 12 6.49 11.9 6.48 11.92 6.58 12 6.57 12.06 6.61 12.01 6.7 12.09 6.72 12.13 6.66 12.24 6.7 12.26 6.78 12.36 6.77 12.35 6.7 12.46 6.67 12.55 6.72 12.6 6.67 12.5 6.63 12.54 6.56 12.63 6.55 12.62 6.48 12.53 6.5 12.5 6.42 12.59 6.36 12.51 6.34 12.45 6.39 12.26 6.31 12.35 6.28 12.45 6.37 12.5 6.31 12.6 6.36 12.53 6.43 12.63 6.47 12.65 6.57 12.56 6.58 12.61 6.67 12.55 6.75 12.46 6.69 12.36 6.72 12.38 6.78 12.23 6.81 12.23 6.81"/>
      <path class="e" d="M116.59,900.82a0.1,0.1,0,1,1-.12.1,0.11,0.11,0,0,1,.12-0.1h0Z" transform="translate(-104.31 -894.4)"/>
      <path class="f" d="M116.59,901a0.13,0.13,0,0,1-.13-0.12c0-.12.26-0.13,0.26,0a0.12,0.12,0,0,1-.13.12h0Zm0-.2a0.09,0.09,0,0,0-.1.08c0,0.09.2,0.09,0.2,0a0.09,0.09,0,0,0-.1-0.08h0Z" transform="translate(-104.31 -894.4)"/>
      <path class="e" d="M115.86,900.43l-0.17.15Z" transform="translate(-104.31 -894.4)"/>
      <path class="a" d="M115.86,900.43l-0.17.15Z" transform="translate(-104.31 -894.4)"/>
      <path class="e" d="M116,900.43l-0.17.15Z" transform="translate(-104.31 -894.4)"/>
      <path class="a" d="M116,900.43l-0.17.15Z" transform="translate(-104.31 -894.4)"/>
      <path class="e" d="M116.09,900.43l-0.17.15Z" transform="translate(-104.31 -894.4)"/>
      <path class="a" d="M116.09,900.43l-0.17.15Z" transform="translate(-104.31 -894.4)"/>
      <path class="e" d="M116.2,900.43l-0.17.15Z" transform="translate(-104.31 -894.4)"/>
      <path class="a" d="M116.2,900.43l-0.17.15Z" transform="translate(-104.31 -894.4)"/>
      <path class="e" d="M116.32,900.43l-0.17.15Z" transform="translate(-104.31 -894.4)"/>
      <path class="a" d="M116.32,900.43l-0.17.15Z" transform="translate(-104.31 -894.4)"/>
      <path class="e" d="M116.43,900.43l-0.17.15Z" transform="translate(-104.31 -894.4)"/>
      <path class="a" d="M116.43,900.43l-0.17.15Z" transform="translate(-104.31 -894.4)"/>
      <path class="e" d="M116.54,900.43l-0.17.15Z" transform="translate(-104.31 -894.4)"/>
      <path class="a" d="M116.54,900.43l-0.17.15Z" transform="translate(-104.31 -894.4)"/>
      <path class="e" d="M116.66,900.43l-0.17.15Z" transform="translate(-104.31 -894.4)"/>
      <path class="a" d="M116.66,900.43l-0.17.15Z" transform="translate(-104.31 -894.4)"/>
      <path class="e" d="M116.77,900.43l-0.17.15Z" transform="translate(-104.31 -894.4)"/>
      <path class="a" d="M116.77,900.43l-0.17.15Z" transform="translate(-104.31 -894.4)"/>
      <path class="e" d="M116.88,900.43l-0.17.15Z" transform="translate(-104.31 -894.4)"/>
      <path class="a" d="M116.88,900.43l-0.17.15Z" transform="translate(-104.31 -894.4)"/>
      <path class="e" d="M117,900.43l-0.17.15Z" transform="translate(-104.31 -894.4)"/>
      <path class="a" d="M117,900.43l-0.17.15Z" transform="translate(-104.31 -894.4)"/>
      <path class="e" d="M117.11,900.43l-0.17.15Z" transform="translate(-104.31 -894.4)"/>
      <path class="a" d="M117.11,900.43l-0.17.15Z" transform="translate(-104.31 -894.4)"/>
      <path class="e" d="M116.66,900.43l-0.17.15Z" transform="translate(-104.31 -894.4)"/>
      <path class="a" d="M116.66,900.43l-0.17.15Z" transform="translate(-104.31 -894.4)"/>
      <path class="e" d="M117.23,900.43l-0.17.15Z" transform="translate(-104.31 -894.4)"/>
      <path class="a" d="M117.23,900.43l-0.17.15Z" transform="translate(-104.31 -894.4)"/>
      <path class="e" d="M117.34,900.43l-0.17.15Z" transform="translate(-104.31 -894.4)"/>
      <path class="a" d="M117.34,900.43l-0.17.15Z" transform="translate(-104.31 -894.4)"/>
      <path class="e" d="M117.45,900.43l-0.17.15Z" transform="translate(-104.31 -894.4)"/>
      <path class="a" d="M117.45,900.43l-0.17.15Z" transform="translate(-104.31 -894.4)"/>
      <path class="e" d="M117.57,900.43l-0.17.15Z" transform="translate(-104.31 -894.4)"/>
      <path class="a" d="M117.57,900.43l-0.17.15Z" transform="translate(-104.31 -894.4)"/>
      <path class="e" d="M117.4,900.43l0.17,0.15Z" transform="translate(-104.31 -894.4)"/>
      <path class="a" d="M117.4,900.43l0.17,0.15Z" transform="translate(-104.31 -894.4)"/>
      <path class="e" d="M117.28,900.43l0.17,0.15Z" transform="translate(-104.31 -894.4)"/>
      <path class="a" d="M117.28,900.43l0.17,0.15Z" transform="translate(-104.31 -894.4)"/>
      <path class="e" d="M117.17,900.43l0.17,0.15Z" transform="translate(-104.31 -894.4)"/>
      <path class="a" d="M117.17,900.43l0.17,0.15Z" transform="translate(-104.31 -894.4)"/>
      <path class="e" d="M117.06,900.43l0.17,0.15Z" transform="translate(-104.31 -894.4)"/>
      <path class="a" d="M117.06,900.43l0.17,0.15Z" transform="translate(-104.31 -894.4)"/>
      <path class="e" d="M116.94,900.43l0.17,0.15Z" transform="translate(-104.31 -894.4)"/>
      <path class="a" d="M116.94,900.43l0.17,0.15Z" transform="translate(-104.31 -894.4)"/>
      <path class="e" d="M116.83,900.43l0.17,0.15Z" transform="translate(-104.31 -894.4)"/>
      <path class="a" d="M116.83,900.43l0.17,0.15Z" transform="translate(-104.31 -894.4)"/>
      <path class="e" d="M116.71,900.43l0.17,0.15Z" transform="translate(-104.31 -894.4)"/>
      <path class="a" d="M116.71,900.43l0.17,0.15Z" transform="translate(-104.31 -894.4)"/>
      <path class="e" d="M116.6,900.43l0.17,0.15Z" transform="translate(-104.31 -894.4)"/>
      <path class="a" d="M116.6,900.43l0.17,0.15Z" transform="translate(-104.31 -894.4)"/>
      <path class="e" d="M116.49,900.43l0.17,0.15Z" transform="translate(-104.31 -894.4)"/>
      <path class="a" d="M116.49,900.43l0.17,0.15Z" transform="translate(-104.31 -894.4)"/>
      <path class="e" d="M116.37,900.43l0.17,0.15Z" transform="translate(-104.31 -894.4)"/>
      <path class="a" d="M116.37,900.43l0.17,0.15Z" transform="translate(-104.31 -894.4)"/>
      <path class="e" d="M116.26,900.43l0.17,0.15Z" transform="translate(-104.31 -894.4)"/>
      <path class="a" d="M116.26,900.43l0.17,0.15Z" transform="translate(-104.31 -894.4)"/>
      <path class="e" d="M116.15,900.43l0.17,0.15Z" transform="translate(-104.31 -894.4)"/>
      <path class="a" d="M116.15,900.43l0.17,0.15Z" transform="translate(-104.31 -894.4)"/>
      <path class="e" d="M116.6,900.43l0.17,0.15Z" transform="translate(-104.31 -894.4)"/>
      <path class="a" d="M116.6,900.43l0.17,0.15Z" transform="translate(-104.31 -894.4)"/>
      <path class="e" d="M116,900.43l0.17,0.15Z" transform="translate(-104.31 -894.4)"/>
      <path class="a" d="M116,900.43l0.17,0.15Z" transform="translate(-104.31 -894.4)"/>
      <path class="e" d="M115.92,900.43l0.17,0.15Z" transform="translate(-104.31 -894.4)"/>
      <path class="a" d="M115.92,900.43l0.17,0.15Z" transform="translate(-104.31 -894.4)"/>
      <path class="e" d="M115.81,900.43l0.17,0.15Z" transform="translate(-104.31 -894.4)"/>
      <path class="a" d="M115.81,900.43l0.17,0.15Z" transform="translate(-104.31 -894.4)"/>
      <path class="e" d="M115.69,900.43l0.17,0.15Z" transform="translate(-104.31 -894.4)"/>
      <path class="a" d="M115.69,900.43l0.17,0.15Z" transform="translate(-104.31 -894.4)"/>
      <path class="e" d="M115.86,901.29l-0.17.15Z" transform="translate(-104.31 -894.4)"/>
      <path class="a" d="M115.86,901.29l-0.17.15Z" transform="translate(-104.31 -894.4)"/>
      <path class="e" d="M116,901.29l-0.17.15Z" transform="translate(-104.31 -894.4)"/>
      <path class="a" d="M116,901.29l-0.17.15Z" transform="translate(-104.31 -894.4)"/>
      <path class="e" d="M116.09,901.29l-0.17.15Z" transform="translate(-104.31 -894.4)"/>
      <path class="a" d="M116.09,901.29l-0.17.15Z" transform="translate(-104.31 -894.4)"/>
      <path class="e" d="M116.2,901.29l-0.17.15Z" transform="translate(-104.31 -894.4)"/>
      <path class="a" d="M116.2,901.29l-0.17.15Z" transform="translate(-104.31 -894.4)"/>
      <path class="e" d="M116.32,901.29l-0.17.15Z" transform="translate(-104.31 -894.4)"/>
      <path class="a" d="M116.32,901.29l-0.17.15Z" transform="translate(-104.31 -894.4)"/>
      <path class="e" d="M116.43,901.29l-0.17.15Z" transform="translate(-104.31 -894.4)"/>
      <path class="a" d="M116.43,901.29l-0.17.15Z" transform="translate(-104.31 -894.4)"/>
      <path class="e" d="M116.54,901.29l-0.17.15Z" transform="translate(-104.31 -894.4)"/>
      <path class="a" d="M116.54,901.29l-0.17.15Z" transform="translate(-104.31 -894.4)"/>
      <path class="e" d="M116.66,901.29l-0.17.15Z" transform="translate(-104.31 -894.4)"/>
      <path class="a" d="M116.66,901.29l-0.17.15Z" transform="translate(-104.31 -894.4)"/>
      <path class="e" d="M116.77,901.29l-0.17.15Z" transform="translate(-104.31 -894.4)"/>
      <path class="a" d="M116.77,901.29l-0.17.15Z" transform="translate(-104.31 -894.4)"/>
      <path class="e" d="M116.88,901.29l-0.17.15Z" transform="translate(-104.31 -894.4)"/>
      <path class="a" d="M116.88,901.29l-0.17.15Z" transform="translate(-104.31 -894.4)"/>
      <path class="e" d="M117,901.29l-0.17.15Z" transform="translate(-104.31 -894.4)"/>
      <path class="a" d="M117,901.29l-0.17.15Z" transform="translate(-104.31 -894.4)"/>
      <path class="e" d="M117.11,901.29l-0.17.15Z" transform="translate(-104.31 -894.4)"/>
      <path class="a" d="M117.11,901.29l-0.17.15Z" transform="translate(-104.31 -894.4)"/>
      <path class="e" d="M116.66,901.29l-0.17.15Z" transform="translate(-104.31 -894.4)"/>
      <path class="a" d="M116.66,901.29l-0.17.15Z" transform="translate(-104.31 -894.4)"/>
      <path class="e" d="M117.23,901.29l-0.17.15Z" transform="translate(-104.31 -894.4)"/>
      <path class="a" d="M117.23,901.29l-0.17.15Z" transform="translate(-104.31 -894.4)"/>
      <path class="e" d="M117.34,901.29l-0.17.15Z" transform="translate(-104.31 -894.4)"/>
      <path class="a" d="M117.34,901.29l-0.17.15Z" transform="translate(-104.31 -894.4)"/>
      <path class="e" d="M117.45,901.29l-0.17.15Z" transform="translate(-104.31 -894.4)"/>
      <path class="a" d="M117.45,901.29l-0.17.15Z" transform="translate(-104.31 -894.4)"/>
      <path class="e" d="M117.57,901.29l-0.17.15Z" transform="translate(-104.31 -894.4)"/>
      <path class="a" d="M117.57,901.29l-0.17.15Z" transform="translate(-104.31 -894.4)"/>
      <path class="e" d="M117.4,901.29l0.17,0.15Z" transform="translate(-104.31 -894.4)"/>
      <path class="a" d="M117.4,901.29l0.17,0.15Z" transform="translate(-104.31 -894.4)"/>
      <path class="e" d="M117.28,901.29l0.17,0.15Z" transform="translate(-104.31 -894.4)"/>
      <path class="a" d="M117.28,901.29l0.17,0.15Z" transform="translate(-104.31 -894.4)"/>
      <path class="e" d="M117.17,901.29l0.17,0.15Z" transform="translate(-104.31 -894.4)"/>
      <path class="a" d="M117.17,901.29l0.17,0.15Z" transform="translate(-104.31 -894.4)"/>
      <path class="e" d="M117.06,901.29l0.17,0.15Z" transform="translate(-104.31 -894.4)"/>
      <path class="a" d="M117.06,901.29l0.17,0.15Z" transform="translate(-104.31 -894.4)"/>
      <path class="e" d="M116.94,901.29l0.17,0.15Z" transform="translate(-104.31 -894.4)"/>
      <path class="a" d="M116.94,901.29l0.17,0.15Z" transform="translate(-104.31 -894.4)"/>
      <path class="e" d="M116.83,901.29l0.17,0.15Z" transform="translate(-104.31 -894.4)"/>
      <path class="a" d="M116.83,901.29l0.17,0.15Z" transform="translate(-104.31 -894.4)"/>
      <path class="e" d="M116.71,901.29l0.17,0.15Z" transform="translate(-104.31 -894.4)"/>
      <path class="a" d="M116.71,901.29l0.17,0.15Z" transform="translate(-104.31 -894.4)"/>
      <path class="e" d="M116.6,901.29l0.17,0.15Z" transform="translate(-104.31 -894.4)"/>
      <path class="a" d="M116.6,901.29l0.17,0.15Z" transform="translate(-104.31 -894.4)"/>
      <path class="e" d="M116.49,901.29l0.17,0.15Z" transform="translate(-104.31 -894.4)"/>
      <path class="a" d="M116.49,901.29l0.17,0.15Z" transform="translate(-104.31 -894.4)"/>
      <path class="e" d="M116.37,901.29l0.17,0.15Z" transform="translate(-104.31 -894.4)"/>
      <path class="a" d="M116.37,901.29l0.17,0.15Z" transform="translate(-104.31 -894.4)"/>
      <path class="e" d="M116.26,901.29l0.17,0.15Z" transform="translate(-104.31 -894.4)"/>
      <path class="a" d="M116.26,901.29l0.17,0.15Z" transform="translate(-104.31 -894.4)"/>
      <path class="e" d="M116.15,901.29l0.17,0.15Z" transform="translate(-104.31 -894.4)"/>
      <path class="a" d="M116.15,901.29l0.17,0.15Z" transform="translate(-104.31 -894.4)"/>
      <path class="e" d="M116.6,901.29l0.17,0.15Z" transform="translate(-104.31 -894.4)"/>
      <path class="a" d="M116.6,901.29l0.17,0.15Z" transform="translate(-104.31 -894.4)"/>
      <path class="e" d="M116,901.29l0.17,0.15Z" transform="translate(-104.31 -894.4)"/>
      <path class="a" d="M116,901.29l0.17,0.15Z" transform="translate(-104.31 -894.4)"/>
      <path class="e" d="M115.92,901.29l0.17,0.15Z" transform="translate(-104.31 -894.4)"/>
      <path class="a" d="M115.92,901.29l0.17,0.15Z" transform="translate(-104.31 -894.4)"/>
      <path class="e" d="M115.81,901.29l0.17,0.15Z" transform="translate(-104.31 -894.4)"/>
      <path class="a" d="M115.81,901.29l0.17,0.15Z" transform="translate(-104.31 -894.4)"/>
      <path class="e" d="M115.69,901.29l0.17,0.15Z" transform="translate(-104.31 -894.4)"/>
      <path class="a" d="M115.69,901.29l0.17,0.15Z" transform="translate(-104.31 -894.4)"/>
      <path class="e" d="M108.27,900.28h1.85a0.18,0.18,0,0,1,.18.17v0.87a0.18,0.18,0,0,1-.18.17h-1.85a0.18,0.18,0,0,1-.18-0.17v-0.87a0.18,0.18,0,0,1,.18-0.17h0Z" transform="translate(-104.31 -894.4)"/>
      <path class="f" d="M110.11,901.51h-1.85a0.19,0.19,0,0,1-.2-0.19v-0.87a0.19,0.19,0,0,1,.2-0.19h1.85a0.19,0.19,0,0,1,.2.19v0.87a0.19,0.19,0,0,1-.2.19h0Zm-1.85-1.21a0.16,0.16,0,0,0-.17.16v0.87a0.17,0.17,0,0,0,.17.16h1.85a0.17,0.17,0,0,0,.17-0.16v-0.87a0.16,0.16,0,0,0-.17-0.16h-1.85Z" transform="translate(-104.31 -894.4)"/>
      <path class="e" d="M108.31,900.33h1.75a0.17,0.17,0,0,1,.17.16v0.8a0.17,0.17,0,0,1-.17.16h-1.75a0.17,0.17,0,0,1-.17-0.16v-0.8a0.17,0.17,0,0,1,.17-0.16h0Z" transform="translate(-104.31 -894.4)"/>
      <path class="f" d="M110.06,901.46h-1.75a0.18,0.18,0,0,1-.19-0.17v-0.8a0.18,0.18,0,0,1,.19-0.17h1.75a0.18,0.18,0,0,1,.19.17v0.8a0.18,0.18,0,0,1-.19.17h0Zm-1.75-1.12a0.15,0.15,0,0,0-.16.14v0.8a0.15,0.15,0,0,0,.16.14h1.75a0.15,0.15,0,0,0,.16-0.14v-0.8a0.15,0.15,0,0,0-.16-0.14h-1.75Z" transform="translate(-104.31 -894.4)"/>
      <polygon class="e" points="4.81 6.23 4.91 6.24 4.92 6.29 5 6.33 5.07 6.28 5.15 6.32 5.08 6.37 5.1 6.43 5.19 6.43 5.19 6.52 5.12 6.52 5.08 6.57 5.16 6.63 5.1 6.68 5.02 6.63 4.92 6.65 4.92 6.73 4.81 6.74 4.79 6.66 4.7 6.62 4.64 6.68 4.56 6.64 4.61 6.57 4.55 6.53 4.47 6.53 4.46 6.42 4.55 6.43 4.6 6.36 4.54 6.31 4.62 6.25 4.69 6.3 4.79 6.28 4.81 6.23"/>
      <polygon class="f" points="4.79 6.76 4.78 6.67 4.69 6.64 4.65 6.69 4.55 6.65 4.6 6.57 4.54 6.54 4.47 6.55 4.45 6.42 4.55 6.41 4.59 6.35 4.53 6.32 4.62 6.24 4.7 6.29 4.76 6.28 4.69 6.31 4.62 6.26 4.54 6.32 4.61 6.35 4.56 6.43 4.46 6.43 4.48 6.53 4.55 6.52 4.62 6.56 4.57 6.65 4.65 6.67 4.69 6.61 4.8 6.65 4.82 6.72 4.92 6.72 4.9 6.65 5.02 6.62 5.1 6.67 5.16 6.62 5.06 6.57 5.1 6.51 5.19 6.5 5.18 6.43 5.08 6.45 5.06 6.37 5.15 6.31 5.07 6.29 5.01 6.34 4.82 6.26 4.91 6.22 5.01 6.32 5.06 6.26 5.16 6.31 5.08 6.38 5.19 6.42 5.21 6.52 5.11 6.53 5.17 6.62 5.1 6.7 5.01 6.64 4.92 6.67 4.94 6.73 4.79 6.76 4.79 6.76"/>
      <path class="e" d="M109.15,900.77a0.11,0.11,0,0,1,.12.1,0.12,0.12,0,1,1-.12-0.1h0Z" transform="translate(-104.31 -894.4)"/>
      <path class="f" d="M109.15,901a0.12,0.12,0,0,1-.13-0.12c0-.13.26-0.12,0.26,0a0.13,0.13,0,0,1-.13.12h0Zm0-.2a0.09,0.09,0,0,0-.1.08c0,0.1.2,0.09,0.2,0a0.09,0.09,0,0,0-.1-0.08h0Z" transform="translate(-104.31 -894.4)"/>
      <path class="e" d="M108.42,900.38l-0.17.15Z" transform="translate(-104.31 -894.4)"/>
      <path class="a" d="M108.42,900.38l-0.17.15Z" transform="translate(-104.31 -894.4)"/>
      <path class="e" d="M108.54,900.38l-0.17.15Z" transform="translate(-104.31 -894.4)"/>
      <path class="a" d="M108.54,900.38l-0.17.15Z" transform="translate(-104.31 -894.4)"/>
      <path class="e" d="M108.65,900.38l-0.17.15Z" transform="translate(-104.31 -894.4)"/>
      <path class="a" d="M108.65,900.38l-0.17.15Z" transform="translate(-104.31 -894.4)"/>
      <path class="e" d="M108.76,900.38l-0.17.15Z" transform="translate(-104.31 -894.4)"/>
      <path class="a" d="M108.76,900.38l-0.17.15Z" transform="translate(-104.31 -894.4)"/>
      <path class="e" d="M108.88,900.38l-0.17.15Z" transform="translate(-104.31 -894.4)"/>
      <path class="a" d="M108.88,900.38l-0.17.15Z" transform="translate(-104.31 -894.4)"/>
      <path class="e" d="M109,900.38l-0.17.15Z" transform="translate(-104.31 -894.4)"/>
      <path class="a" d="M109,900.38l-0.17.15Z" transform="translate(-104.31 -894.4)"/>
      <path class="e" d="M109.1,900.38l-0.17.15Z" transform="translate(-104.31 -894.4)"/>
      <path class="a" d="M109.1,900.38l-0.17.15Z" transform="translate(-104.31 -894.4)"/>
      <path class="e" d="M109.22,900.38l-0.17.15Z" transform="translate(-104.31 -894.4)"/>
      <path class="a" d="M109.22,900.38l-0.17.15Z" transform="translate(-104.31 -894.4)"/>
      <path class="e" d="M109.33,900.38l-0.17.15Z" transform="translate(-104.31 -894.4)"/>
      <path class="a" d="M109.33,900.38l-0.17.15Z" transform="translate(-104.31 -894.4)"/>
      <path class="e" d="M109.44,900.38l-0.17.15Z" transform="translate(-104.31 -894.4)"/>
      <path class="a" d="M109.44,900.38l-0.17.15Z" transform="translate(-104.31 -894.4)"/>
      <path class="e" d="M109.56,900.38l-0.17.15Z" transform="translate(-104.31 -894.4)"/>
      <path class="a" d="M109.56,900.38l-0.17.15Z" transform="translate(-104.31 -894.4)"/>
      <path class="e" d="M109.67,900.38l-0.17.15Z" transform="translate(-104.31 -894.4)"/>
      <path class="a" d="M109.67,900.38l-0.17.15Z" transform="translate(-104.31 -894.4)"/>
      <path class="e" d="M109.22,900.38l-0.17.15Z" transform="translate(-104.31 -894.4)"/>
      <path class="a" d="M109.22,900.38l-0.17.15Z" transform="translate(-104.31 -894.4)"/>
      <path class="e" d="M109.79,900.38l-0.17.15Z" transform="translate(-104.31 -894.4)"/>
      <path class="a" d="M109.79,900.38l-0.17.15Z" transform="translate(-104.31 -894.4)"/>
      <path class="e" d="M109.9,900.38l-0.17.15Z" transform="translate(-104.31 -894.4)"/>
      <path class="a" d="M109.9,900.38l-0.17.15Z" transform="translate(-104.31 -894.4)"/>
      <path class="e" d="M110,900.38l-0.17.15Z" transform="translate(-104.31 -894.4)"/>
      <path class="a" d="M110,900.38l-0.17.15Z" transform="translate(-104.31 -894.4)"/>
      <path class="e" d="M110.13,900.38l-0.17.15Z" transform="translate(-104.31 -894.4)"/>
      <path class="a" d="M110.13,900.38l-0.17.15Z" transform="translate(-104.31 -894.4)"/>
      <path class="e" d="M110,900.38l0.17,0.15Z" transform="translate(-104.31 -894.4)"/>
      <path class="a" d="M110,900.38l0.17,0.15Z" transform="translate(-104.31 -894.4)"/>
      <path class="e" d="M109.84,900.38l0.17,0.15Z" transform="translate(-104.31 -894.4)"/>
      <path class="a" d="M109.84,900.38l0.17,0.15Z" transform="translate(-104.31 -894.4)"/>
      <path class="e" d="M109.73,900.38l0.17,0.15Z" transform="translate(-104.31 -894.4)"/>
      <path class="a" d="M109.73,900.38l0.17,0.15Z" transform="translate(-104.31 -894.4)"/>
      <path class="e" d="M109.61,900.38l0.17,0.15Z" transform="translate(-104.31 -894.4)"/>
      <path class="a" d="M109.61,900.38l0.17,0.15Z" transform="translate(-104.31 -894.4)"/>
      <path class="e" d="M109.5,900.38l0.17,0.15Z" transform="translate(-104.31 -894.4)"/>
      <path class="a" d="M109.5,900.38l0.17,0.15Z" transform="translate(-104.31 -894.4)"/>
      <path class="e" d="M109.39,900.38l0.17,0.15Z" transform="translate(-104.31 -894.4)"/>
      <path class="a" d="M109.39,900.38l0.17,0.15Z" transform="translate(-104.31 -894.4)"/>
      <path class="e" d="M109.27,900.38l0.17,0.15Z" transform="translate(-104.31 -894.4)"/>
      <path class="a" d="M109.27,900.38l0.17,0.15Z" transform="translate(-104.31 -894.4)"/>
      <path class="e" d="M109.16,900.38l0.17,0.15Z" transform="translate(-104.31 -894.4)"/>
      <path class="a" d="M109.16,900.38l0.17,0.15Z" transform="translate(-104.31 -894.4)"/>
      <path class="e" d="M109,900.38l0.17,0.15Z" transform="translate(-104.31 -894.4)"/>
      <path class="a" d="M109,900.38l0.17,0.15Z" transform="translate(-104.31 -894.4)"/>
      <path class="e" d="M108.93,900.38l0.17,0.15Z" transform="translate(-104.31 -894.4)"/>
      <path class="a" d="M108.93,900.38l0.17,0.15Z" transform="translate(-104.31 -894.4)"/>
      <path class="e" d="M108.82,900.38l0.17,0.15Z" transform="translate(-104.31 -894.4)"/>
      <path class="a" d="M108.82,900.38l0.17,0.15Z" transform="translate(-104.31 -894.4)"/>
      <path class="e" d="M108.71,900.38l0.17,0.15Z" transform="translate(-104.31 -894.4)"/>
      <path class="a" d="M108.71,900.38l0.17,0.15Z" transform="translate(-104.31 -894.4)"/>
      <path class="e" d="M109.16,900.38l0.17,0.15Z" transform="translate(-104.31 -894.4)"/>
      <path class="a" d="M109.16,900.38l0.17,0.15Z" transform="translate(-104.31 -894.4)"/>
      <path class="e" d="M108.59,900.38l0.17,0.15Z" transform="translate(-104.31 -894.4)"/>
      <path class="a" d="M108.59,900.38l0.17,0.15Z" transform="translate(-104.31 -894.4)"/>
      <path class="e" d="M108.48,900.38l0.17,0.15Z" transform="translate(-104.31 -894.4)"/>
      <path class="a" d="M108.48,900.38l0.17,0.15Z" transform="translate(-104.31 -894.4)"/>
      <path class="e" d="M108.36,900.38l0.17,0.15Z" transform="translate(-104.31 -894.4)"/>
      <path class="a" d="M108.36,900.38l0.17,0.15Z" transform="translate(-104.31 -894.4)"/>
      <path class="e" d="M108.25,900.38l0.17,0.15Z" transform="translate(-104.31 -894.4)"/>
      <path class="a" d="M108.25,900.38l0.17,0.15Z" transform="translate(-104.31 -894.4)"/>
      <path class="e" d="M108.42,901.24l-0.17.15Z" transform="translate(-104.31 -894.4)"/>
      <path class="a" d="M108.42,901.24l-0.17.15Z" transform="translate(-104.31 -894.4)"/>
      <path class="e" d="M108.54,901.24l-0.17.15Z" transform="translate(-104.31 -894.4)"/>
      <path class="a" d="M108.54,901.24l-0.17.15Z" transform="translate(-104.31 -894.4)"/>
      <path class="e" d="M108.65,901.24l-0.17.15Z" transform="translate(-104.31 -894.4)"/>
      <path class="a" d="M108.65,901.24l-0.17.15Z" transform="translate(-104.31 -894.4)"/>
      <path class="e" d="M108.76,901.24l-0.17.15Z" transform="translate(-104.31 -894.4)"/>
      <path class="a" d="M108.76,901.24l-0.17.15Z" transform="translate(-104.31 -894.4)"/>
      <path class="e" d="M108.88,901.24l-0.17.15Z" transform="translate(-104.31 -894.4)"/>
      <path class="a" d="M108.88,901.24l-0.17.15Z" transform="translate(-104.31 -894.4)"/>
      <path class="e" d="M109,901.24l-0.17.15Z" transform="translate(-104.31 -894.4)"/>
      <path class="a" d="M109,901.24l-0.17.15Z" transform="translate(-104.31 -894.4)"/>
      <path class="e" d="M109.1,901.24l-0.17.15Z" transform="translate(-104.31 -894.4)"/>
      <path class="a" d="M109.1,901.24l-0.17.15Z" transform="translate(-104.31 -894.4)"/>
      <path class="e" d="M109.22,901.24l-0.17.15Z" transform="translate(-104.31 -894.4)"/>
      <path class="a" d="M109.22,901.24l-0.17.15Z" transform="translate(-104.31 -894.4)"/>
      <path class="e" d="M109.33,901.24l-0.17.15Z" transform="translate(-104.31 -894.4)"/>
      <path class="a" d="M109.33,901.24l-0.17.15Z" transform="translate(-104.31 -894.4)"/>
      <path class="e" d="M109.44,901.24l-0.17.15Z" transform="translate(-104.31 -894.4)"/>
      <path class="a" d="M109.44,901.24l-0.17.15Z" transform="translate(-104.31 -894.4)"/>
      <path class="e" d="M109.56,901.24l-0.17.15Z" transform="translate(-104.31 -894.4)"/>
      <path class="a" d="M109.56,901.24l-0.17.15Z" transform="translate(-104.31 -894.4)"/>
      <path class="e" d="M109.67,901.24l-0.17.15Z" transform="translate(-104.31 -894.4)"/>
      <path class="a" d="M109.67,901.24l-0.17.15Z" transform="translate(-104.31 -894.4)"/>
      <path class="e" d="M109.22,901.24l-0.17.15Z" transform="translate(-104.31 -894.4)"/>
      <path class="a" d="M109.22,901.24l-0.17.15Z" transform="translate(-104.31 -894.4)"/>
      <path class="e" d="M109.79,901.24l-0.17.15Z" transform="translate(-104.31 -894.4)"/>
      <path class="a" d="M109.79,901.24l-0.17.15Z" transform="translate(-104.31 -894.4)"/>
      <path class="e" d="M109.9,901.24l-0.17.15Z" transform="translate(-104.31 -894.4)"/>
      <path class="a" d="M109.9,901.24l-0.17.15Z" transform="translate(-104.31 -894.4)"/>
      <path class="e" d="M110,901.24l-0.17.15Z" transform="translate(-104.31 -894.4)"/>
      <path class="a" d="M110,901.24l-0.17.15Z" transform="translate(-104.31 -894.4)"/>
      <path class="e" d="M110.13,901.24l-0.17.15Z" transform="translate(-104.31 -894.4)"/>
      <path class="a" d="M110.13,901.24l-0.17.15Z" transform="translate(-104.31 -894.4)"/>
      <path class="e" d="M110,901.24l0.17,0.15Z" transform="translate(-104.31 -894.4)"/>
      <path class="a" d="M110,901.24l0.17,0.15Z" transform="translate(-104.31 -894.4)"/>
      <path class="e" d="M109.84,901.24l0.17,0.15Z" transform="translate(-104.31 -894.4)"/>
      <path class="a" d="M109.84,901.24l0.17,0.15Z" transform="translate(-104.31 -894.4)"/>
      <path class="e" d="M109.73,901.24l0.17,0.15Z" transform="translate(-104.31 -894.4)"/>
      <path class="a" d="M109.73,901.24l0.17,0.15Z" transform="translate(-104.31 -894.4)"/>
      <path class="e" d="M109.61,901.24l0.17,0.15Z" transform="translate(-104.31 -894.4)"/>
      <path class="a" d="M109.61,901.24l0.17,0.15Z" transform="translate(-104.31 -894.4)"/>
      <path class="e" d="M109.5,901.24l0.17,0.15Z" transform="translate(-104.31 -894.4)"/>
      <path class="a" d="M109.5,901.24l0.17,0.15Z" transform="translate(-104.31 -894.4)"/>
      <path class="e" d="M109.39,901.24l0.17,0.15Z" transform="translate(-104.31 -894.4)"/>
      <path class="a" d="M109.39,901.24l0.17,0.15Z" transform="translate(-104.31 -894.4)"/>
      <path class="e" d="M109.27,901.24l0.17,0.15Z" transform="translate(-104.31 -894.4)"/>
      <path class="a" d="M109.27,901.24l0.17,0.15Z" transform="translate(-104.31 -894.4)"/>
      <path class="e" d="M109.16,901.24l0.17,0.15Z" transform="translate(-104.31 -894.4)"/>
      <path class="a" d="M109.16,901.24l0.17,0.15Z" transform="translate(-104.31 -894.4)"/>
      <path class="e" d="M109,901.24l0.17,0.15Z" transform="translate(-104.31 -894.4)"/>
      <path class="a" d="M109,901.24l0.17,0.15Z" transform="translate(-104.31 -894.4)"/>
      <path class="e" d="M108.93,901.24l0.17,0.15Z" transform="translate(-104.31 -894.4)"/>
      <path class="a" d="M108.93,901.24l0.17,0.15Z" transform="translate(-104.31 -894.4)"/>
      <path class="e" d="M108.82,901.24l0.17,0.15Z" transform="translate(-104.31 -894.4)"/>
      <path class="a" d="M108.82,901.24l0.17,0.15Z" transform="translate(-104.31 -894.4)"/>
      <path class="e" d="M108.71,901.24l0.17,0.15Z" transform="translate(-104.31 -894.4)"/>
      <path class="a" d="M108.71,901.24l0.17,0.15Z" transform="translate(-104.31 -894.4)"/>
      <path class="e" d="M109.16,901.24l0.17,0.15Z" transform="translate(-104.31 -894.4)"/>
      <path class="a" d="M109.16,901.24l0.17,0.15Z" transform="translate(-104.31 -894.4)"/>
      <path class="e" d="M108.59,901.24l0.17,0.15Z" transform="translate(-104.31 -894.4)"/>
      <path class="a" d="M108.59,901.24l0.17,0.15Z" transform="translate(-104.31 -894.4)"/>
      <path class="e" d="M108.48,901.24l0.17,0.15Z" transform="translate(-104.31 -894.4)"/>
      <path class="a" d="M108.48,901.24l0.17,0.15Z" transform="translate(-104.31 -894.4)"/>
      <path class="e" d="M108.36,901.24l0.17,0.15Z" transform="translate(-104.31 -894.4)"/>
      <path class="a" d="M108.36,901.24l0.17,0.15Z" transform="translate(-104.31 -894.4)"/>
      <path class="e" d="M108.25,901.24l0.17,0.15Z" transform="translate(-104.31 -894.4)"/>
      <path class="a" d="M108.25,901.24l0.17,0.15Z" transform="translate(-104.31 -894.4)"/>
      <path class="e" d="M111.56,902.82c-2.76,2.7-3.93,3-3.38,3.25s2.33-1.17,4.17-3,3-3.49,2.43-3.71-0.29.61-3.22,3.48h0Z" transform="translate(-104.31 -894.4)"/>
      <path class="f" d="M108.31,906.12h0l-0.14,0A0.19,0.19,0,0,1,108,906a1.54,1.54,0,0,1,.68-0.67,32.47,32.47,0,0,0,2.83-2.48,18.19,18.19,0,0,0,2.59-3c0.3-.44.37-0.57,0.65-0.46a0.22,0.22,0,0,1,.14.17c0.1,0.5-.93,1.93-2.56,3.56-1.88,1.88-3.43,3-4.05,3h0Zm6.32-6.79a0.8,0.8,0,0,0-.47.48,18.3,18.3,0,0,1-2.59,3,32.25,32.25,0,0,1-2.84,2.48,1.74,1.74,0,0,0-.67.65,0.16,0.16,0,0,0,.12.1l0.13,0h0c0.61,0,2.16-1.16,4-3,1.63-1.63,2.66-3,2.56-3.54a0.2,0.2,0,0,0-.12-0.15l-0.14,0h0Z" transform="translate(-104.31 -894.4)"/>
      <path class="e" d="M109.23,904.79l1,0.25A3,3,0,0,1,108,906.1c-0.28-.15.51-0.51,1.25-1.32h0Z" transform="translate(-104.31 -894.4)"/>
      <path class="f" d="M108.16,906.15a0.4,0.4,0,0,1-.18,0,0.11,0.11,0,0,1-.07-0.08,1,1,0,0,1,.42-0.45,7.7,7.7,0,0,0,.89-0.81l1,0.25a3.62,3.62,0,0,1-2,1.13h0Zm1.07-1.35a6.86,6.86,0,0,1-.88.81,1,1,0,0,0-.41.42,0.08,0.08,0,0,0,.05.06,3.06,3.06,0,0,0,2.2-1.06l-1-.23h0Z" transform="translate(-104.31 -894.4)"/>
      <path class="e" d="M109.23,904.88l0.8,0.2a2.76,2.76,0,0,1-2,1c-0.23-.1.47-0.39,1.19-1.17h0Z" transform="translate(-104.31 -894.4)"/>
      <path class="f" d="M108.18,906.09l-0.14,0L108,906a0.7,0.7,0,0,1,.32-0.32,6.72,6.72,0,0,0,.91-0.81l0.81,0.2a3.22,3.22,0,0,1-1.86,1h0Zm1.05-1.19a6.26,6.26,0,0,1-.9.81,0.84,0.84,0,0,0-.31.3,0.25,0.25,0,0,0,.16.05,3.28,3.28,0,0,0,1.84-1l-0.79-.18h0Z" transform="translate(-104.31 -894.4)"/>
      <path class="f" d="M111.83,903.05a0.21,0.21,0,0,0,0-.14l0,0v0l0,0.07a0.15,0.15,0,0,0,.13,0l0.07,0,0.06,0a0.24,0.24,0,0,0,0-.12s0-.08,0-0.1h0s0,0.07,0,.1a0.42,0.42,0,0,1,0,.08l0,0.06a0.1,0.1,0,0,1-.05,0L112,903h-0.09l-0.05,0,0,0.05h0Z" transform="translate(-104.31 -894.4)"/>
      <path class="f" d="M111.51,903.31h-0.15l0,0h0l0.06-.1a0.1,0.1,0,0,1,0-.05l0.07,0,0.1,0h0.1l0.1,0,0,0h0l-0.11,0h-0.18l-0.17.17h0l0,0h0Z" transform="translate(-104.31 -894.4)"/>
      <path class="f" d="M111.15,903.85l0-.06a0.15,0.15,0,0,1,0-.06l0-.07,0-.07,0.17-.09,0.05-.05v0l-0.09,0h0l-0.15.09h0l0.06,0.14h0l-0.07.06h0Z" transform="translate(-104.31 -894.4)"/>
      <path class="f" d="M110.77,904.2a0.07,0.07,0,0,1-.07-0.06v-0.08a0.25,0.25,0,0,1,0-.09l0-.06,0.16-.09H111l0.11,0v0l-0.11,0h-0.16l-0.07,0-0.06.05h0a0.23,0.23,0,0,0,0,.08v0.08h0a0.17,0.17,0,0,0,0,.07h0Z" transform="translate(-104.31 -894.4)"/>
      <polygon class="f" points="6.13 10.15 6.08 10.12 6.23 10.08 6.3 10.01 6.3 9.94 6.3 9.89 6.3 9.88 6.3 9.88 6.3 9.88 6.26 9.84 6.3 9.88 6.27 9.86 6.23 9.79 6.34 9.95 6.37 9.94 6.39 9.96 6.48 9.92 6.46 9.96 6.39 9.98 6.33 9.94 6.31 10.02 6.13 10.15 6.13 10.15"/>
      <path class="f" d="M109.91,904.91l0,0a0.28,0.28,0,0,0,0-.08l0-.15,0.12,0.13,0.09,0h0.15l0.05,0a0.29,0.29,0,0,0,0-.14l-0.06-.12,0,0,0.05,0.09a0.35,0.35,0,0,1,0,.09l0,0.07-0.07.06h-0.09a0.13,0.13,0,0,1-.08,0l-0.07,0-0.12-.1,0,0.08h0a0.27,0.27,0,0,1,0,.08v0h0Z" transform="translate(-104.31 -894.4)"/>
      <path class="f" d="M108.44,905.86h-0.1a0.14,0.14,0,0,1,.11,0,0.16,0.16,0,0,0,.1,0,0.06,0.06,0,0,0,0-.07,0.13,0.13,0,0,1,0-.12,0.18,0.18,0,0,1,.07-0.1,0.12,0.12,0,0,1,.09,0,0.36,0.36,0,0,1,.15.06l0.07,0.06h0l0.08,0s-0.05,0-.09,0l-0.08-.05-0.12-.05h0l-0.09,0a0.14,0.14,0,0,0-.05.08,0.11,0.11,0,0,0,0,.09,0.09,0.09,0,0,1,0,.1,0.14,0.14,0,0,1-.1,0h0Zm0.88-.36a0.39,0.39,0,0,1,0-.12,0.2,0.2,0,0,0,0-.09l-0.07-.06h0l0,0a0.16,0.16,0,0,1-.11,0,0.11,0.11,0,0,1-.1-0.05l-0.06.17,0-.16,0,0a0.09,0.09,0,0,0,.08,0l0.08,0a0,0,0,0,0,0-.06v0l0.07,0,0.07,0.06a0.17,0.17,0,0,1,0,.08,0.79,0.79,0,0,0,0,.13l0.07,0,0-.07h0a0.1,0.1,0,0,1,0-.1,0.11,0.11,0,0,1,.09,0,0.24,0.24,0,0,0,.12,0,0.09,0.09,0,0,0-.06-0.1,0.2,0.2,0,0,0-.11,0l-0.08.05a0.13,0.13,0,0,1-.12,0v-0.05h0a0.07,0.07,0,0,0,.09,0,0.14,0.14,0,0,1,.09-0.05,0.23,0.23,0,0,1,.11,0,0.16,0.16,0,0,1,.09.07l0,0.08-0.11,0h-0.09a0.08,0.08,0,0,0,0,.08l0,0.11-0.1,0h0Z" transform="translate(-104.31 -894.4)"/>
      <path class="e" d="M114.7,900.39c1.22-2.11,2-3.91,1.81-4s-1.4,1.53-2.62,3.64Z" transform="translate(-104.31 -894.4)"/>
      <path class="f" d="M114.71,900.41l-0.82-.38c1.18-2.07,2.33-3.67,2.6-3.67l0.07,0.05c0.09,0.3-.7,2-1.84,4h0Zm1.81-4c-0.31,0-1.46,1.62-2.61,3.6l0.79,0.35a14,14,0,0,0,1.83-4h0Z" transform="translate(-104.31 -894.4)"/>
      <path class="e" d="M114.62,900.36c1.18-2,2-3.76,1.82-3.84s-1.28,1.51-2.46,3.54Z" transform="translate(-104.31 -894.4)"/>
      <path class="f" d="M114.63,900.36h0a15.7,15.7,0,0,0,1.83-3.8c-0.17-.08-1.18,1.32-2.46,3.52,1-1.83,2.24-3.67,2.46-3.56,0.1,0.28-.69,1.92-1.81,3.86h0Z" transform="translate(-104.31 -894.4)"/>
      <path class="e" d="M114.42,899.29l-0.44.76,0.65,0.3c0.15-.26.31-0.52,0.44-0.77Z" transform="translate(-104.31 -894.4)"/>
      <path class="f" d="M114.63,900.37l-0.66-.3,0.15-.28,0.29-.5,0.66,0.29c-0.09.19-.2,0.38-0.31,0.57l-0.14.23h0Zm-0.21-1.07c-0.08.15-.17,0.32-0.27,0.49l-0.15.26,0.63,0.27,0.12-.21,0.31-.54-0.64-.28h0Z" transform="translate(-104.31 -894.4)"/>
      <path class="e" d="M114.47,899.38l-0.39.67,0.49,0.22,0.39-.68Z" transform="translate(-104.31 -894.4)"/>
      <path class="f" d="M114.57,900.29l-0.5-.23,0.14-.28,0.24-.42,0.5,0.22a4.11,4.11,0,0,1-.23.43l-0.16.27h0Zm-0.11-.9c-0.07.14-.15,0.27-0.23,0.41l-0.15.26,0.47,0.2,0.15-.25,0.24-.41-0.48-.2h0Z" transform="translate(-104.31 -894.4)"/>
      <polygon class="e" points="10.52 5.25 10.19 5.11 9.91 5.6 10.23 5.75 10.52 5.25"/>
      <path class="f" d="M114.54,900.16l-0.33-.15,0.28-.52,0.34,0.14-0.29.53h0Zm0-.65-0.27.49,0.3,0.12,0.28-.48-0.32-.13h0Z" transform="translate(-104.31 -894.4)"/>
      <path class="e" d="M114.82,899.65l-0.61.35Z" transform="translate(-104.31 -894.4)"/>
      <polygon class="f" points="9.91 5.61 10.51 5.24 10.52 5.27 9.91 5.61 9.91 5.61"/>
      <path class="e" d="M114.54,900.14l0-.64Z" transform="translate(-104.31 -894.4)"/>
      <polygon class="f" points="10.21 5.75 10.18 5.11 10.24 5.75 10.21 5.75 10.21 5.75"/>
      <path class="e" d="M116.28,897.13L116,897Z" transform="translate(-104.31 -894.4)"/>
      <polygon class="f" points="11.97 2.75 11.65 2.6 11.98 2.72 11.97 2.75 11.97 2.75"/>
      <path class="g" d="M116.24,896.74a0.09,0.09,0,0,0-.07.1,0.09,0.09,0,0,0,.18,0,0.09,0.09,0,0,0-.11-0.06h0Z" transform="translate(-104.31 -894.4)"/>
      <ellipse class="a" cx="116.26" cy="896.82" rx="0.09" ry="0.08" transform="translate(-325.62 -836.53) rotate(-14.53)"/>
      <path class="e" d="M114.22,902.77c2.76,2.7,3.93,3,3.38,3.25s-2.33-1.17-4.17-3-3-3.49-2.43-3.71,0.29,0.61,3.22,3.48h0Z" transform="translate(-104.31 -894.4)"/>
      <path class="f" d="M117.47,906.06c-0.62,0-2.17-1.17-4.05-3-1.64-1.64-2.67-3.07-2.56-3.56a0.22,0.22,0,0,1,.14-0.17c0.28-.11.35,0,0.65,0.46a18.27,18.27,0,0,0,2.59,3,32.68,32.68,0,0,0,2.83,2.48,1.55,1.55,0,0,1,.68.68,0.18,0.18,0,0,1-.14.12l-0.14,0h0Zm-6.32-6.79-0.14,0a0.19,0.19,0,0,0-.12.15c-0.1.48,0.93,1.91,2.56,3.54,2,2,3.66,3.22,4.16,3a0.17,0.17,0,0,0,.12-0.1,1.72,1.72,0,0,0-.67-0.65,32.72,32.72,0,0,1-2.83-2.48,18.31,18.31,0,0,1-2.59-3,0.79,0.79,0,0,0-.47-0.48h0Z" transform="translate(-104.31 -894.4)"/>
      <path class="e" d="M116.54,904.73l-1,.25a3,3,0,0,0,2.21,1.06c0.29-.15-0.51-0.51-1.25-1.32h0Z" transform="translate(-104.31 -894.4)"/>
      <path class="f" d="M117.62,906.1a3.73,3.73,0,0,1-2.05-1.1l1-.28a8.54,8.54,0,0,0,.91.81,1,1,0,0,1,.42.45,0.11,0.11,0,0,1-.07.08,0.39,0.39,0,0,1-.18,0h0Zm-1.08-1.36-1,.26a3.82,3.82,0,0,0,2,1.07h0a0.36,0.36,0,0,0,.17,0,0.08,0.08,0,0,0,.05-0.06,1.05,1.05,0,0,0-.41-0.42,7.51,7.51,0,0,1-.89-0.81h0Z" transform="translate(-104.31 -894.4)"/>
      <path class="e" d="M116.54,904.83l-0.8.2a2.73,2.73,0,0,0,2,1c0.23-.1-0.47-0.38-1.19-1.16h0Z" transform="translate(-104.31 -894.4)"/>
      <path class="f" d="M117.6,906a3.3,3.3,0,0,1-1.86-1l0.8-.23a7.51,7.51,0,0,0,.93.81,0.69,0.69,0,0,1,.32.32h0l-0.05,0-0.14,0h0Zm-1.07-1.19-0.78.21a2.81,2.81,0,0,0,2,.94,0.43,0.43,0,0,0-.28-0.33,6.71,6.71,0,0,1-.92-0.81h0Z" transform="translate(-104.31 -894.4)"/>
      <path class="f" d="M113.94,903l0,0,0,0a0.15,0.15,0,0,1-.1,0l-0.07,0a0.1,0.1,0,0,1-.06,0l0-.07v-0.13l0,0,0,0.16,0.09,0.1,0.07,0h0.08l0.05,0a0.35,0.35,0,0,1,0-.08v0.08h0l0,0.06h0Z" transform="translate(-104.31 -894.4)"/>
      <path class="f" d="M114.35,903.22l-0.19-.18H114l-0.09,0h0l0.13,0h0.2l0.07,0.06h0l0.11,0.15h0Z" transform="translate(-104.31 -894.4)"/>
      <path class="f" d="M114.65,903.79l-0.1,0,0.09-.19,0,0-0.13-.06-0.07,0,0-.07a0.38,0.38,0,0,1-.14,0v0h0.1l0.08,0,0,0.1,0.23,0.16a0.09,0.09,0,0,1,0,.1l0,0.07,0.07,0h0Z" transform="translate(-104.31 -894.4)"/>
      <path class="f" d="M115,904.17a0.19,0.19,0,0,1,0-.09V904a0.2,0.2,0,0,0,0-.08l0-.07h0l-0.07,0-0.07,0v0h-0.1l-0.1,0v0l0.1,0h0.1l0.09,0,0.06,0,0.06,0.07a0.25,0.25,0,0,1,0,.09v0.08a0.21,0.21,0,0,1,0,.08h0Z" transform="translate(-104.31 -894.4)"/>
      <polygon class="f" points="11.08 10.08 10.97 10.07 10.88 10 10.84 9.89 10.81 9.92 10.78 9.91 10.88 9.78 10.87 9.82 10.87 9.81 10.87 9.84 10.87 9.85 10.85 9.89 10.88 9.95 10.98 10.06 11.04 10.07 11.25 9.99 11.28 10.03 11.23 10.01 11.23 10.01 11.08 10.08 11.08 10.08"/>
      <path class="f" d="M115.9,904.9l0-.07a0.27,0.27,0,0,1,0-.09l0-.06h0l-0.18.1h0a0.14,0.14,0,0,1-.09,0h-0.08l-0.1-.13a0.32,0.32,0,0,1,0-.09l0-.08,0.06,0-0.06.06v0.11l0,0.07a0.21,0.21,0,0,0,.13,0h0.07l0.13,0,0.07-.12v0h0l-0.06.14,0,0.08h0v0.07h0Z" transform="translate(-104.31 -894.4)"/>
      <path class="f" d="M117.34,905.82a0.21,0.21,0,0,1-.12-0.05,0.09,0.09,0,0,1,0-.11,0.11,0.11,0,0,0,0-.1,0.14,0.14,0,0,0-.05-0.08l-0.07,0a0.33,0.33,0,0,0-.13.05l-0.08.05a0.26,0.26,0,0,1-.14,0l0.09-.19v-0.07l0,0,0-.1s0,0.05-.07.06h0a0.16,0.16,0,0,1-.09,0,0.2,0.2,0,0,1,0-.06l-0.07.06,0,0.09s0,0.08,0,.11a0.16,0.16,0,0,1-.11,0l0-.09a0.09,0.09,0,0,0,0-.09,0.09,0.09,0,0,0-.07,0,0.29,0.29,0,0,1-.14,0l0-.08a0.15,0.15,0,0,1,.09-0.07,0.22,0.22,0,0,1,.11,0,0.14,0.14,0,0,1,.08,0,0.09,0.09,0,0,0,.1,0l0,0h0a0.11,0.11,0,0,1-.13.07l-0.09-.07h0a0.19,0.19,0,0,0-.1,0,0.15,0.15,0,0,0-.08.06,0.15,0.15,0,0,0,.12.08,0.13,0.13,0,0,1,.11,0,0.11,0.11,0,0,1,0,.1v0.09h0l0.09,0a0.36,0.36,0,0,1,0-.1,0.22,0.22,0,0,1,0-.1,0.23,0.23,0,0,1,.07-0.07l0,0,0,0h0l-0.05.1h0.09a0.08,0.08,0,0,0,.08,0l0,0,0.08,0.26,0,0.09a0.13,0.13,0,0,1,0,.06l0.06,0,0.09,0h0l0.13-.06a0.14,0.14,0,0,1,.11,0,0.16,0.16,0,0,1,.06.09,0.13,0.13,0,0,1,0,.12,0.06,0.06,0,0,0,0,.07,0.14,0.14,0,0,0,.08,0h0.11a0.1,0.1,0,0,1-.09,0h0Z" transform="translate(-104.31 -894.4)"/>
      <path class="e" d="M111.08,900.34c-1.22-2.11-2-3.91-1.81-4s1.4,1.53,2.62,3.64Z" transform="translate(-104.31 -894.4)"/>
      <path class="f" d="M111.07,900.36h0c-1.14-2-1.94-3.69-1.84-4l0.07-.05c0.28,0,1.42,1.6,2.61,3.65l-0.83.4h0Zm-1.78-4c-0.13.31,0.68,2,1.8,4l0.8-.37c-1.17-2-2.33-3.62-2.59-3.62h0Z" transform="translate(-104.31 -894.4)"/>
      <path class="e" d="M111.16,900.3c-1.18-2-2-3.76-1.81-3.84s1.28,1.51,2.46,3.54Z" transform="translate(-104.31 -894.4)"/>
      <path class="f" d="M111.15,900.31a15,15,0,0,1-1.84-3.83h0a14.68,14.68,0,0,0,1.82,3.82l0,0h0Zm0.67-.31a24.18,24.18,0,0,0-2.3-3.41,20.54,20.54,0,0,1,2.3,3.41h0Z" transform="translate(-104.31 -894.4)"/>
      <path class="e" d="M111.36,899.24c0.14,0.24.3,0.51,0.44,0.77l-0.65.3c-0.15-.26-0.31-0.52-0.44-0.77Z" transform="translate(-104.31 -894.4)"/>
      <path class="f" d="M111.15,900.32L111,900l-0.28-.48,0.65-.32c0.12,0.17.23,0.36,0.33,0.54l0.13,0.23-0.66.32h0Zm0.2-1.07-0.63.3c0.09,0.13.19,0.3,0.28,0.46l0.16,0.27,0.63-.29-0.14-.21-0.31-.54h0Z" transform="translate(-104.31 -894.4)"/>
      <path class="e" d="M111.31,899.32c0.14,0.24.24,0.42,0.39,0.68l-0.48.22-0.39-.68Z" transform="translate(-104.31 -894.4)"/>
      <path class="f" d="M111.21,900.24l-0.14-.24-0.25-.44,0.49-.24c0.11,0.16.18,0.29,0.26,0.42l0.15,0.26-0.5.25h0Zm0.09-.91-0.47.23c0.1,0.14.18,0.28,0.26,0.42l0.13,0.22,0.47-.22-0.16-.24-0.24-.42h0Z" transform="translate(-104.31 -894.4)"/>
      <polygon class="e" points="6.65 5.2 6.97 5.05 7.26 5.55 6.93 5.7 6.65 5.2"/>
      <path class="f" d="M111.24,900.11l-0.29-.51,0.33-.17,0.3,0.5-0.34.18h0Zm0-.65-0.31.15,0.29,0.46,0.31-.14-0.29-.47h0Z" transform="translate(-104.31 -894.4)"/>
      <path class="e" d="M111,899.6l0.61,0.35Z" transform="translate(-104.31 -894.4)"/>
      <polygon class="f" points="7.27 5.54 6.64 5.22 6.66 5.19 7.27 5.54 7.27 5.54"/>
      <path class="e" d="M111.24,900.1l0-.64Z" transform="translate(-104.31 -894.4)"/>
      <path class="a" d="M111.24,900.1l0-.64Z" transform="translate(-104.31 -894.4)"/>
      <path class="e" d="M109.5,897.08l0.32-.15Z" transform="translate(-104.31 -894.4)"/>
      <path class="a" d="M109.5,897.08l0.32-.15Z" transform="translate(-104.31 -894.4)"/>
      <path class="g" d="M109.54,896.69a0.09,0.09,0,0,1,.07.1,0.09,0.09,0,0,1-.11.06,0.09,0.09,0,0,1-.07-0.1,0.09,0.09,0,0,1,.11-0.06h0Z" transform="translate(-104.31 -894.4)"/>
      <path class="f" d="M109.52,896.87h0a0.12,0.12,0,0,1-.08-0.12,0.1,0.1,0,0,1,.1-0.07,0.11,0.11,0,0,1,.11.12,0.1,0.1,0,0,1-.1.07h0Z" transform="translate(-104.31 -894.4)"/>
      <path class="e" d="M112.06,899.26c0,1.77,0,2.44-.12,2.53s-3.57,0-3.57.51,2.84,1,3.69,1a1.43,1.43,0,0,0,1.7-1.52v-2.53h-1.7Z" transform="translate(-104.31 -894.4)"/>
      <path class="f" d="M112.06,903.33c-0.83,0-3.71-.5-3.71-1,0-.37,1.66-0.43,2.76-0.46a5,5,0,0,0,.82-0.05,6.48,6.48,0,0,0,.12-2.18v-0.34h1.72v2.54a1.45,1.45,0,0,1-1.72,1.54h0Zm1.69-4.07-1.69,0v0.33c0,1.54,0,2.11-.13,2.2a4,4,0,0,1-.84.06c-1,0-2.73.1-2.73,0.44s2.76,1,3.68,1a1.42,1.42,0,0,0,1.69-1.51v-2.53h0Z" transform="translate(-104.31 -894.4)"/>
      <path class="e" d="M112.06,899.77V900a5.79,5.79,0,0,0,1.7,0v-0.25a5.65,5.65,0,0,1-1.7,0h0Z" transform="translate(-104.31 -894.4)"/>
      <path class="f" d="M112.91,900.1a5.71,5.71,0,0,1-.85-0.06v-0.27a7,7,0,0,0,1.72,0l0,0.27a4.56,4.56,0,0,1-.87.08h0Zm-0.85-.32,0,0.24a6.87,6.87,0,0,0,1.69,0v-0.24a4.86,4.86,0,0,1-1.69,0h0Z" transform="translate(-104.31 -894.4)"/>
      <path class="e" d="M112.06,899.26v0.25a5.79,5.79,0,0,0,1.7,0v-0.25a5.79,5.79,0,0,1-1.7,0h0Z" transform="translate(-104.31 -894.4)"/>
      <path class="f" d="M112.91,899.6a6,6,0,0,1-.85-0.06v-0.27a7.08,7.08,0,0,0,1.72,0l0,0.27a4.73,4.73,0,0,1-.87.08h0Zm-0.85-.32,0,0.24a6.78,6.78,0,0,0,1.69,0v-0.24a4.86,4.86,0,0,1-1.69,0h0Z" transform="translate(-104.31 -894.4)"/>
      <path class="e" d="M112.06,899.52v0.25a5.65,5.65,0,0,0,1.7,0v-0.25a5.79,5.79,0,0,1-1.7,0h0Z" transform="translate(-104.31 -894.4)"/>
      <path class="f" d="M112.91,899.85a6,6,0,0,1-.85-0.06v-0.27a7,7,0,0,0,1.72,0l0,0.27a4.56,4.56,0,0,1-.87.08h0Zm-0.85-.32,0,0.24a6.78,6.78,0,0,0,1.69,0v-0.24a4.91,4.91,0,0,1-1.69,0h0Z" transform="translate(-104.31 -894.4)"/>
      <path class="e" d="M112.06,900v0.25a5.79,5.79,0,0,0,1.7,0V900a5.79,5.79,0,0,1-1.7,0h0Z" transform="translate(-104.31 -894.4)"/>
      <path class="f" d="M112.91,900.36a6,6,0,0,1-.85-0.06V900a7.08,7.08,0,0,0,1.72,0l0,0.27a4.73,4.73,0,0,1-.87.08h0Zm-0.85-.32,0,0.24a6.87,6.87,0,0,0,1.69,0V900a4.81,4.81,0,0,1-1.69,0h0Z" transform="translate(-104.31 -894.4)"/>
      <path class="e" d="M112.13,899.61a0.07,0.07,0,0,1,.08.05,0.08,0.08,0,0,1-.15,0,0.07,0.07,0,0,1,.08-0.05h0Z" transform="translate(-104.31 -894.4)"/>
      <ellipse class="a" cx="7.83" cy="5.26" rx="0.08" ry="0.05"/>
      <path class="e" d="M112.44,899.63a0.07,0.07,0,0,1,.08.05,0.08,0.08,0,0,1-.16,0,0.07,0.07,0,0,1,.08-0.05h0Z" transform="translate(-104.31 -894.4)"/>
      <ellipse class="a" cx="8.14" cy="5.29" rx="0.08" ry="0.05"/>
      <path class="e" d="M112.75,899.66a0.07,0.07,0,0,1,.08.05,0.08,0.08,0,0,1-.15,0,0.07,0.07,0,0,1,.08-0.05h0Z" transform="translate(-104.31 -894.4)"/>
      <ellipse class="a" cx="8.45" cy="5.32" rx="0.08" ry="0.05"/>
      <path class="e" d="M113.06,899.66a0.07,0.07,0,0,1,.08.05,0.07,0.07,0,0,1-.08.05,0.07,0.07,0,0,1-.08-0.05,0.07,0.07,0,0,1,.08-0.05h0Z" transform="translate(-104.31 -894.4)"/>
      <ellipse class="a" cx="8.76" cy="5.32" rx="0.08" ry="0.05"/>
      <path class="e" d="M113.37,899.63a0.07,0.07,0,0,1,.08.05,0.08,0.08,0,0,1-.15,0,0.07,0.07,0,0,1,.08-0.05h0Z" transform="translate(-104.31 -894.4)"/>
      <ellipse class="a" cx="9.07" cy="5.29" rx="0.08" ry="0.05"/>
      <path class="e" d="M113.68,899.61a0.07,0.07,0,0,1,.08.05,0.08,0.08,0,0,1-.16,0,0.07,0.07,0,0,1,.08-0.05h0Z" transform="translate(-104.31 -894.4)"/>
      <ellipse class="a" cx="9.37" cy="5.26" rx="0.08" ry="0.05"/>
      <path class="e" d="M112.06,900.53l1.7,1.37Z" transform="translate(-104.31 -894.4)"/>
      <polygon class="f" points="9.46 7.49 7.74 6.14 7.76 6.12 9.46 7.49 9.46 7.49"/>
      <path class="e" d="M112.23,900.53l1.53,1.22Z" transform="translate(-104.31 -894.4)"/>
      <polygon class="f" points="9.46 7.34 7.91 6.14 7.93 6.12 9.46 7.34 9.46 7.34"/>
      <path class="e" d="M112.45,900.58l1.31,1Z" transform="translate(-104.31 -894.4)"/>
      <polygon class="f" points="9.46 7.18 8.14 6.2 8.15 6.17 9.46 7.18 9.46 7.18"/>
      <path class="e" d="M112.62,900.58l1.14,0.86Z" transform="translate(-104.31 -894.4)"/>
      <polygon class="f" points="9.46 7.03 8.31 6.2 8.32 6.17 9.46 7.03 9.46 7.03"/>
      <path class="e" d="M112.79,900.58l1,0.71Z" transform="translate(-104.31 -894.4)"/>
      <polygon class="f" points="9.46 6.88 8.48 6.2 8.5 6.17 9.46 6.88 9.46 6.88"/>
      <path class="e" d="M113,900.58l0.79,0.56Z" transform="translate(-104.31 -894.4)"/>
      <polygon class="f" points="9.46 6.73 8.65 6.2 8.67 6.17 9.46 6.73 9.46 6.73"/>
      <path class="e" d="M113.14,900.58l0.62,0.41Z" transform="translate(-104.31 -894.4)"/>
      <polygon class="f" points="9.46 6.58 8.82 6.2 8.84 6.17 9.46 6.58 9.46 6.58"/>
      <path class="e" d="M113.31,900.58l0.45,0.3Z" transform="translate(-104.31 -894.4)"/>
      <path class="a" d="M113.31,900.58l0.45,0.3Z" transform="translate(-104.31 -894.4)"/>
      <path class="e" d="M113.48,900.58l0.28,0.2Z" transform="translate(-104.31 -894.4)"/>
      <path class="a" d="M113.48,900.58l0.28,0.2Z" transform="translate(-104.31 -894.4)"/>
      <path class="e" d="M113.65,900.58l0.11,0.1Z" transform="translate(-104.31 -894.4)"/>
      <path class="a" d="M113.65,900.58l0.11,0.1Z" transform="translate(-104.31 -894.4)"/>
      <path class="e" d="M112.06,900.68l1.7,1.37Z" transform="translate(-104.31 -894.4)"/>
      <polygon class="f" points="9.46 7.64 7.74 6.3 7.76 6.27 9.46 7.64 9.46 7.64"/>
      <path class="e" d="M113.76,900.53L111.89,902Z" transform="translate(-104.31 -894.4)"/>
      <polygon class="f" points="7.59 7.66 9.44 6.12 9.46 6.14 7.59 7.66 7.59 7.66"/>
      <path class="e" d="M113.59,900.53l-1.65,1.32Z" transform="translate(-104.31 -894.4)"/>
      <polygon class="f" points="7.64 7.46 9.27 6.12 9.29 6.14 7.64 7.46 7.64 7.46"/>
      <path class="e" d="M113.36,900.58l-1.31,1Z" transform="translate(-104.31 -894.4)"/>
      <polygon class="f" points="7.76 7.21 9.05 6.17 9.06 6.2 7.76 7.21 7.76 7.21"/>
      <path class="e" d="M113.19,900.58l-1.14.86Z" transform="translate(-104.31 -894.4)"/>
      <polygon class="f" points="7.76 7.06 8.88 6.17 8.89 6.2 7.76 7.06 7.76 7.06"/>
      <path class="e" d="M113,900.58l-1,.71Z" transform="translate(-104.31 -894.4)"/>
      <polygon class="f" points="7.76 6.9 8.71 6.17 8.72 6.2 7.76 6.9 7.76 6.9"/>
      <path class="e" d="M112.85,900.58l-0.79.56Z" transform="translate(-104.31 -894.4)"/>
      <polygon class="f" points="7.76 6.75 8.54 6.17 8.55 6.2 7.76 6.75 7.76 6.75"/>
      <path class="e" d="M112.68,900.58l-0.62.41Z" transform="translate(-104.31 -894.4)"/>
      <polygon class="f" points="7.76 6.6 8.37 6.17 8.38 6.2 7.76 6.6 7.76 6.6"/>
      <path class="e" d="M112.51,900.58l-0.45.3Z" transform="translate(-104.31 -894.4)"/>
      <path class="a" d="M112.51,900.58l-0.45.3Z" transform="translate(-104.31 -894.4)"/>
      <path class="e" d="M112.34,900.58l-0.28.2Z" transform="translate(-104.31 -894.4)"/>
      <path class="a" d="M112.34,900.58l-0.28.2Z" transform="translate(-104.31 -894.4)"/>
      <path class="e" d="M112.17,900.58l-0.11.1Z" transform="translate(-104.31 -894.4)"/>
      <path class="a" d="M112.17,900.58l-0.11.1Z" transform="translate(-104.31 -894.4)"/>
      <path class="e" d="M113.76,900.68l-1.87,1.52Z" transform="translate(-104.31 -894.4)"/>
      <polygon class="f" points="7.59 7.82 9.44 6.28 9.46 6.3 7.59 7.82 7.59 7.82"/>
      <path class="e" d="M113.76,900.83l-1.87,1.52Z" transform="translate(-104.31 -894.4)"/>
      <polygon class="f" points="7.59 7.97 9.44 6.43 9.46 6.45 7.59 7.97 7.59 7.97"/>
      <path class="e" d="M113.76,901l-1.87,1.52Z" transform="translate(-104.31 -894.4)"/>
      <polygon class="f" points="7.59 8.12 9.44 6.58 9.46 6.6 7.59 8.12 7.59 8.12"/>
      <path class="e" d="M113.76,901.14l-1.87,1.52Z" transform="translate(-104.31 -894.4)"/>
      <polygon class="f" points="7.59 8.27 9.44 6.73 9.46 6.75 7.59 8.27 7.59 8.27"/>
      <path class="e" d="M113.76,901.29l-1.87,1.52Z" transform="translate(-104.31 -894.4)"/>
      <polygon class="f" points="7.59 8.42 9.44 6.88 9.46 6.9 7.59 8.42 7.59 8.42"/>
      <path class="e" d="M113.76,901.44L111.89,903Z" transform="translate(-104.31 -894.4)"/>
      <polygon class="f" points="7.59 8.58 9.44 7.03 9.46 7.06 7.59 8.58 7.59 8.58"/>
      <path class="e" d="M113.76,901.59l-1.87,1.52Z" transform="translate(-104.31 -894.4)"/>
      <polygon class="f" points="7.59 8.73 9.44 7.18 9.46 7.21 7.59 8.73 7.59 8.73"/>
      <path class="e" d="M113.76,901.75l-1.87,1.52Z" transform="translate(-104.31 -894.4)"/>
      <polygon class="f" points="7.59 8.88 9.44 7.34 9.46 7.36 7.59 8.88 7.59 8.88"/>
      <path class="e" d="M113.76,901.9L112,903.31Z" transform="translate(-104.31 -894.4)"/>
      <polygon class="f" points="7.7 8.93 9.44 7.49 9.46 7.51 7.7 8.93 7.7 8.93"/>
      <path class="e" d="M113.76,902l-1.59,1.27Z" transform="translate(-104.31 -894.4)"/>
      <polygon class="f" points="7.87 8.93 9.44 7.64 9.46 7.66 7.87 8.93 7.87 8.93"/>
      <path class="e" d="M113.7,902.25l-1.25,1Z" transform="translate(-104.31 -894.4)"/>
      <polygon class="f" points="8.15 8.88 9.39 7.84 9.4 7.87 8.15 8.88 8.15 8.88"/>
      <path class="e" d="M113.65,902.46l-1,.81Z" transform="translate(-104.31 -894.4)"/>
      <polygon class="f" points="8.33 8.88 9.33 8.05 9.35 8.07 8.33 8.88 8.33 8.88"/>
      <path class="e" d="M113.53,902.71l-0.51.41Z" transform="translate(-104.31 -894.4)"/>
      <path class="a" d="M113.53,902.71l-0.51.41Z" transform="translate(-104.31 -894.4)"/>
      <path class="e" d="M112.06,900.83l1.65,1.32Z" transform="translate(-104.31 -894.4)"/>
      <polygon class="f" points="9.4 7.74 7.74 6.45 7.76 6.43 9.4 7.74 9.4 7.74"/>
      <path class="e" d="M112.06,901l1.65,1.32Z" transform="translate(-104.31 -894.4)"/>
      <polygon class="f" points="9.4 7.89 7.74 6.6 7.76 6.58 9.4 7.89 9.4 7.89"/>
      <path class="e" d="M112.06,901.14l1.59,1.27Z" transform="translate(-104.31 -894.4)"/>
      <polygon class="f" points="9.35 8 7.74 6.75 7.76 6.73 9.35 8 9.35 8"/>
      <path class="e" d="M112.06,901.29l1.59,1.27Z" transform="translate(-104.31 -894.4)"/>
      <polygon class="f" points="9.35 8.15 7.74 6.9 7.76 6.88 9.35 8.15 9.35 8.15"/>
      <path class="e" d="M112.06,901.44l1.53,1.21Z" transform="translate(-104.31 -894.4)"/>
      <polygon class="f" points="9.29 8.25 7.74 7.06 7.76 7.03 9.29 8.25 9.29 8.25"/>
      <path class="e" d="M112,901.54l1.53,1.21Z" transform="translate(-104.31 -894.4)"/>
      <polygon class="f" points="9.23 8.35 7.68 7.16 7.7 7.13 9.23 8.35 9.23 8.35"/>
      <path class="e" d="M112,901.7l1.42,1.11Z" transform="translate(-104.31 -894.4)"/>
      <polygon class="f" points="9.12 8.4 7.68 7.31 7.7 7.29 9.12 8.4 9.12 8.4"/>
      <path class="e" d="M111.94,901.79l1.42,1.12Z" transform="translate(-104.31 -894.4)"/>
      <polygon class="f" points="9.06 8.5 7.63 7.41 7.64 7.39 9.06 8.5 9.06 8.5"/>
      <path class="e" d="M111.89,901.9l1.36,1.06Z" transform="translate(-104.31 -894.4)"/>
      <polygon class="f" points="8.95 8.55 7.57 7.51 7.59 7.49 8.95 8.55 8.95 8.55"/>
      <path class="e" d="M111.89,902l1.31,1Z" transform="translate(-104.31 -894.4)"/>
      <polygon class="f" points="8.89 8.65 7.57 7.66 7.59 7.64 8.89 8.65 8.89 8.65"/>
      <path class="e" d="M111.89,902.2l1.14,0.91Z" transform="translate(-104.31 -894.4)"/>
      <polygon class="f" points="8.72 8.71 7.57 7.82 7.59 7.79 8.72 8.71 8.72 8.71"/>
      <path class="e" d="M112.06,900.28v0.25a5.79,5.79,0,0,0,1.7,0v-0.25a5.79,5.79,0,0,1-1.7,0h0Z" transform="translate(-104.31 -894.4)"/>
      <path class="f" d="M112.91,900.61a6,6,0,0,1-.85-0.06v-0.27a7.08,7.08,0,0,0,1.72,0l0,0.27a4.57,4.57,0,0,1-.87.08h0Zm-0.85-.32,0,0.24a6.78,6.78,0,0,0,1.69,0v-0.24a4.91,4.91,0,0,1-1.69,0h0Z" transform="translate(-104.31 -894.4)"/>
      <path class="e" d="M111.89,902.35l1,0.81Z" transform="translate(-104.31 -894.4)"/>
      <polygon class="f" points="8.61 8.76 7.57 7.97 7.59 7.95 8.61 8.76 8.61 8.76"/>
      <path class="e" d="M111.89,902.5l0.91,0.71Z" transform="translate(-104.31 -894.4)"/>
      <polygon class="f" points="8.5 8.8 7.57 8.12 7.59 8.1 8.5 8.8 8.5 8.8"/>
      <path class="e" d="M111.89,902.66l0.79,0.61Z" transform="translate(-104.31 -894.4)"/>
      <polygon class="f" points="8.38 8.86 7.57 8.27 7.59 8.25 8.38 8.86 8.38 8.86"/>
      <path class="e" d="M111.89,902.81l0.57,0.46Z" transform="translate(-104.31 -894.4)"/>
      <polygon class="f" points="8.15 8.86 7.57 8.42 7.59 8.4 8.15 8.86 8.15 8.86"/>
      <path class="e" d="M111.89,903l0.45,0.35Z" transform="translate(-104.31 -894.4)"/>
      <path class="a" d="M111.89,903l0.45,0.35Z" transform="translate(-104.31 -894.4)"/>
      <path class="e" d="M111.89,903.11l0.28,0.2Z" transform="translate(-104.31 -894.4)"/>
      <path class="a" d="M111.89,903.11l0.28,0.2Z" transform="translate(-104.31 -894.4)"/>
      <path class="e" d="M112.13,900.37a0.07,0.07,0,0,1,.08.05,0.08,0.08,0,0,1-.15,0,0.07,0.07,0,0,1,.08-0.05h0Z" transform="translate(-104.31 -894.4)"/>
      <ellipse class="a" cx="7.83" cy="6.02" rx="0.08" ry="0.05"/>
      <path class="e" d="M112.44,900.39a0.07,0.07,0,0,1,.08.05,0.08,0.08,0,0,1-.16,0,0.07,0.07,0,0,1,.08-0.05h0Z" transform="translate(-104.31 -894.4)"/>
      <ellipse class="a" cx="8.14" cy="6.05" rx="0.08" ry="0.05"/>
      <path class="e" d="M112.75,900.42a0.07,0.07,0,0,1,.08.05,0.08,0.08,0,0,1-.15,0,0.07,0.07,0,0,1,.08-0.05h0Z" transform="translate(-104.31 -894.4)"/>
      <ellipse class="a" cx="8.45" cy="6.08" rx="0.08" ry="0.05"/>
      <path class="e" d="M113.06,900.42a0.07,0.07,0,0,1,.08.05,0.07,0.07,0,0,1-.08.05,0.07,0.07,0,0,1-.08-0.05,0.07,0.07,0,0,1,.08-0.05h0Z" transform="translate(-104.31 -894.4)"/>
      <ellipse class="a" cx="8.76" cy="6.08" rx="0.08" ry="0.05"/>
      <path class="e" d="M113.37,900.39a0.07,0.07,0,0,1,.08.05,0.08,0.08,0,0,1-.15,0,0.07,0.07,0,0,1,.08-0.05h0Z" transform="translate(-104.31 -894.4)"/>
      <ellipse class="a" cx="9.07" cy="6.05" rx="0.08" ry="0.05"/>
      <path class="e" d="M113.68,900.37a0.07,0.07,0,0,1,.08.05,0.08,0.08,0,0,1-.16,0,0.07,0.07,0,0,1,.08-0.05h0Z" transform="translate(-104.31 -894.4)"/>
      <ellipse class="a" cx="9.37" cy="6.02" rx="0.08" ry="0.05"/>
      <path class="e" d="M109.61,902.91l2-1.06Z" transform="translate(-104.31 -894.4)"/>
      <polygon class="f" points="5.31 8.53 5.3 8.5 7.34 7.44 5.31 8.53 5.31 8.53"/>
      <path class="e" d="M109.5,902.86l1.93-1Z" transform="translate(-104.31 -894.4)"/>
      <polygon class="f" points="5.2 8.48 5.19 8.45 7.12 7.44 5.2 8.48 5.2 8.48"/>
      <path class="e" d="M109.44,902.76l1.76-.91Z" transform="translate(-104.31 -894.4)"/>
      <polygon class="f" points="5.14 8.37 5.13 8.35 6.89 7.44 5.14 8.37 5.14 8.37"/>
      <path class="e" d="M109.39,902.66l1.53-.81Z" transform="translate(-104.31 -894.4)"/>
      <polygon class="f" points="5.08 8.27 5.07 8.25 6.61 7.44 5.08 8.27 5.08 8.27"/>
      <path class="e" d="M109.27,902.55l1.42-.71Z" transform="translate(-104.31 -894.4)"/>
      <polygon class="f" points="4.97 8.17 4.96 8.15 6.38 7.44 4.97 8.17 4.97 8.17"/>
      <path class="e" d="M109.33,902.4l1-.51Z" transform="translate(-104.31 -894.4)"/>
      <polygon class="f" points="5.03 8.02 5.02 7.99 5.98 7.49 5.03 8.02 5.03 8.02"/>
      <path class="e" d="M109.27,902.3l0.74-.41Z" transform="translate(-104.31 -894.4)"/>
      <polygon class="f" points="4.97 7.92 4.96 7.89 5.7 7.49 4.97 7.92 4.97 7.92"/>
      <path class="e" d="M109.27,902.15l0.51-.25Z" transform="translate(-104.31 -894.4)"/>
      <path class="a" d="M109.27,902.15l0.51-.25Z" transform="translate(-104.31 -894.4)"/>
      <path class="e" d="M109.79,903l1.93-1Z" transform="translate(-104.31 -894.4)"/>
      <polygon class="f" points="5.48 8.58 5.47 8.55 7.4 7.54 5.48 8.58 5.48 8.58"/>
      <path class="e" d="M110,903l1.82-1Z" transform="translate(-104.31 -894.4)"/>
      <polygon class="f" points="5.66 8.63 5.64 8.6 7.46 7.64 5.66 8.63 5.66 8.63"/>
      <path class="e" d="M110.13,903.06l1.7-.91Z" transform="translate(-104.31 -894.4)"/>
      <polygon class="f" points="5.83 8.68 5.81 8.65 7.52 7.74 5.83 8.68 5.83 8.68"/>
      <path class="e" d="M110.3,903.11l1.42-.76Z" transform="translate(-104.31 -894.4)"/>
      <polygon class="f" points="6 8.73 5.98 8.7 7.4 7.94 6 8.73 6 8.73"/>
      <path class="e" d="M110.52,903.11l1.25-.66Z" transform="translate(-104.31 -894.4)"/>
      <polygon class="f" points="6.22 8.73 6.21 8.7 7.46 8.04 6.22 8.73 6.22 8.73"/>
      <path class="e" d="M110.69,903.16l1.08-.56Z" transform="translate(-104.31 -894.4)"/>
      <polygon class="f" points="6.39 8.78 6.38 8.75 7.46 8.2 6.39 8.78 6.39 8.78"/>
      <path class="e" d="M110.86,903.21l0.85-.46Z" transform="translate(-104.31 -894.4)"/>
      <polygon class="f" points="6.56 8.83 6.55 8.8 7.4 8.35 6.56 8.83 6.56 8.83"/>
      <path class="e" d="M111.09,903.21l0.68-.36Z" transform="translate(-104.31 -894.4)"/>
      <polygon class="f" points="6.79 8.83 6.78 8.8 7.46 8.45 6.79 8.83 6.79 8.83"/>
      <path class="e" d="M111.32,903.26l0.45-.25Z" transform="translate(-104.31 -894.4)"/>
      <path class="a" d="M111.32,903.26l0.45-.25Z" transform="translate(-104.31 -894.4)"/>
      <path class="e" d="M111.55,903.26l0.29-.15Z" transform="translate(-104.31 -894.4)"/>
      <path class="a" d="M111.55,903.26l0.29-.15Z" transform="translate(-104.31 -894.4)"/>
      <path class="e" d="M111.94,901.79h-0.28a4.12,4.12,0,0,0,0,1.52h0.28a4.08,4.08,0,0,1,0-1.52h0Z" transform="translate(-104.31 -894.4)"/>
      <path class="f" d="M112,903.33h-0.3a3.93,3.93,0,0,1,0-1.54h0.3a4.49,4.49,0,0,0,0,1.53v0h0Zm0-1.54-0.27,0a4.37,4.37,0,0,0,0,1.5h0.25a4.1,4.1,0,0,1,0-1.51h0Z" transform="translate(-104.31 -894.4)"/>
      <path class="e" d="M108.59,902.5l0.68-.51Z" transform="translate(-104.31 -894.4)"/>
      <polygon class="f" points="4.29 8.12 4.28 8.1 4.96 7.59 4.29 8.12 4.29 8.12"/>
      <path class="e" d="M108.59,902.15l0.68,0.61Z" transform="translate(-104.31 -894.4)"/>
      <polygon class="f" points="4.97 8.35 4.27 7.77 4.29 7.74 4.97 8.35 4.97 8.35"/>
      <path class="e" d="M109.61,901.9l-0.34.05a1.85,1.85,0,0,0,0,.91l0.34,0.1a2.56,2.56,0,0,1,0-1.06h0Z" transform="translate(-104.31 -894.4)"/>
      <path class="f" d="M109.63,903l-0.36-.11a1.8,1.8,0,0,1,0-.93l0.35-.06a2.92,2.92,0,0,0,0,1.07v0h0Zm0-1.09-0.32.07a1.94,1.94,0,0,0,0,.89l0.31,0.09a2.57,2.57,0,0,1,0-1h0Z" transform="translate(-104.31 -894.4)"/>
      <path class="e" d="M113.76,899.37v-0.26a0.38,0.38,0,0,1-.43-0.3h-0.85a0.38,0.38,0,0,1-.42.3v0.25h1.7Z" transform="translate(-104.31 -894.4)"/>
      <path class="f" d="M113.77,899.38h-1.72v-0.27a0.39,0.39,0,0,0,.42-0.3l0.87,0a0.33,0.33,0,0,0,.12.21,0.49,0.49,0,0,0,.3.09l0,0.28h0Zm-0.46-.57-0.84,0a0.37,0.37,0,0,1-.42.3v0.24l1.67,0v-0.24a0.42,0.42,0,0,1-.3-0.08,0.29,0.29,0,0,1-.12-0.22h0Z" transform="translate(-104.31 -894.4)"/>
      <rect class="e" x="8.23" y="4.11" width="0.73" height="0.3"/>
      <path class="f" d="M113.29,898.82h-0.74V898.5h0.74v0.33h0Zm0-.32-0.71,0v0.29h0.7V898.5h0Z" transform="translate(-104.31 -894.4)"/>
      <rect class="e" x="8.3" y="3.8" width="0.61" height="0.3"/>
      <path class="f" d="M113.23,898.52H112.6V898.2h0.62v0.33h0Zm0-.32-0.59,0v0.29h0.58V898.2h0Z" transform="translate(-104.31 -894.4)"/>
      <rect class="e" x="8.3" y="3.5" width="0.61" height="0.3"/>
      <path class="f" d="M113.23,898.21H112.6V897.9l0.62,0v0.33h0Zm0-.32H112.6v0.29h0.58V897.9h0Z" transform="translate(-104.31 -894.4)"/>
      <rect class="e" x="8.36" y="3.1" width="0.49" height="0.4"/>
      <path class="f" d="M113.17,897.91h-0.5v-0.42l0.5,0v0.43h0Zm0-.42h-0.47v0.39h0.46v-0.39h0Z" transform="translate(-104.31 -894.4)"/>
      <rect class="e" x="8.34" y="2.74" width="0.53" height="0.36"/>
      <path class="f" d="M113.19,897.51h-0.54v-0.37h0.54v0.38h0Zm0-.37h-0.51v0.34l0.5,0v-0.34h0Z" transform="translate(-104.31 -894.4)"/>
      <path class="e" d="M112.94,896.33a0.52,0.52,0,1,1-.7.48,0.63,0.63,0,0,1,.7-0.48h0Z" transform="translate(-104.31 -894.4)"/>
      <path class="f" d="M112.94,897.3a0.53,0.53,0,1,1,.72-0.5,0.64,0.64,0,0,1-.72.5h0Zm0-1a0.5,0.5,0,1,0,.69.46,0.61,0.61,0,0,0-.69-0.46h0Z" transform="translate(-104.31 -894.4)"/>
      <path class="e" d="M113.29,896.78a0.86,0.86,0,0,0,.18.36,1,1,0,0,1-.53.15,0.75,0.75,0,0,1-.53-0.15,0.85,0.85,0,0,0,.18-0.36,0.59,0.59,0,0,0-.18-0.3,1,1,0,0,1,1.06,0,0.59,0.59,0,0,0-.18.3h0Z" transform="translate(-104.31 -894.4)"/>
      <path class="f" d="M112.94,897.3a0.81,0.81,0,0,1-.54-0.16,1.14,1.14,0,0,0,.17-0.37,0.59,0.59,0,0,0-.17-0.29,1,1,0,0,1,1.08,0,0.86,0.86,0,0,0-.17.31,0.84,0.84,0,0,0,.17.35,0.88,0.88,0,0,1-.54.18h0Zm-0.52-.81a0.45,0.45,0,0,1,.18.29,0.86,0.86,0,0,1-.18.37,0.87,0.87,0,0,0,.52.13,1,1,0,0,0,.52-0.15,0.39,0.39,0,0,1,0-.66,1.21,1.21,0,0,0-1,0h0Z" transform="translate(-104.31 -894.4)"/>
      <path class="e" d="M113.17,896.78a1.2,1.2,0,0,0,.18.41,0.61,0.61,0,0,1-.41.1,0.46,0.46,0,0,1-.41-0.1,1.2,1.2,0,0,0,.18-0.41,0.85,0.85,0,0,0-.18-0.35,0.88,0.88,0,0,1,.82,0,0.85,0.85,0,0,0-.18.35h0Z" transform="translate(-104.31 -894.4)"/>
      <path class="f" d="M112.83,897.3a0.35,0.35,0,0,1-.31-0.11,1.53,1.53,0,0,0,.17-0.41,0.83,0.83,0,0,0-.17-0.34,0.54,0.54,0,0,1,.42-0.12,0.62,0.62,0,0,1,.42.1,1.25,1.25,0,0,0-.17.37,1.18,1.18,0,0,0,.17.4,0.55,0.55,0,0,1-.42.12h-0.11Zm-0.29-.86a0.63,0.63,0,0,1,.18.34,1.18,1.18,0,0,1-.18.41,0.36,0.36,0,0,0,.29.08v0l0.05,0a0.68,0.68,0,0,0,.46-0.1h0a0.49,0.49,0,0,1,0-.76,0.74,0.74,0,0,0-.4-0.08,0.59,0.59,0,0,0-.4.1h0Z" transform="translate(-104.31 -894.4)"/>
      <path class="e" d="M112.23,896.68a0.15,0.15,0,1,1-.18.15,0.16,0.16,0,0,1,.18-0.15h0Z" transform="translate(-104.31 -894.4)"/>
      <path class="f" d="M112.23,897a0.18,0.18,0,0,1-.19-0.17c0-.19.38-0.19,0.38,0a0.18,0.18,0,0,1-.19.17h0Zm0-.3a0.15,0.15,0,0,0-.16.14c0,0.15.32,0.15,0.32,0a0.15,0.15,0,0,0-.16-0.14h0Z" transform="translate(-104.31 -894.4)"/>
      <path class="e" d="M113.64,896.68a0.15,0.15,0,1,1-.18.15,0.16,0.16,0,0,1,.18-0.15h0Z" transform="translate(-104.31 -894.4)"/>
      <path class="f" d="M113.64,897a0.18,0.18,0,0,1-.19-0.17c0-.19.38-0.19,0.38,0a0.18,0.18,0,0,1-.19.17h0Zm0-.3a0.15,0.15,0,0,0-.16.14c0,0.15.32,0.15,0.32,0a0.15,0.15,0,0,0-.16-0.14h0Z" transform="translate(-104.31 -894.4)"/>
      <path class="e" d="M112.94,896.68a0.15,0.15,0,1,1-.18.15,0.16,0.16,0,0,1,.18-0.15h0Z" transform="translate(-104.31 -894.4)"/>
      <path class="f" d="M112.94,897a0.18,0.18,0,0,1-.19-0.17c0-.19.38-0.19,0.38,0a0.18,0.18,0,0,1-.19.17h0Zm0-.3a0.15,0.15,0,0,0-.16.14c0,0.15.32,0.15,0.32,0a0.15,0.15,0,0,0-.16-0.14h0Z" transform="translate(-104.31 -894.4)"/>
      <path class="e" d="M112.94,896.17a0.15,0.15,0,1,1-.18.15,0.17,0.17,0,0,1,.18-0.15h0Z" transform="translate(-104.31 -894.4)"/>
      <path class="f" d="M112.94,896.49a0.18,0.18,0,0,1-.19-0.17c0-.18.38-0.18,0.38,0a0.18,0.18,0,0,1-.19.17h0Zm0-.3a0.15,0.15,0,0,0-.16.14c0,0.15.32,0.15,0.32,0a0.15,0.15,0,0,0-.16-0.14h0Z" transform="translate(-104.31 -894.4)"/>
      <path class="e" d="M112.42,899.06a0.15,0.15,0,1,1-.18.15,0.17,0.17,0,0,1,.18-0.15h0Z" transform="translate(-104.31 -894.4)"/>
      <path class="f" d="M112.42,899.38a0.18,0.18,0,0,1-.2-0.17c0-.18.39-0.18,0.39,0a0.18,0.18,0,0,1-.2.17h0Zm0-.3a0.15,0.15,0,0,0-.17.14c0,0.15.33,0.15,0.33,0a0.15,0.15,0,0,0-.17-0.14h0Z" transform="translate(-104.31 -894.4)"/>
      <path class="e" d="M113.39,899.06a0.15,0.15,0,1,1-.18.15,0.17,0.17,0,0,1,.18-0.15h0Z" transform="translate(-104.31 -894.4)"/>
      <path class="f" d="M113.39,899.38a0.18,0.18,0,0,1-.2-0.17c0-.18.39-0.18,0.39,0a0.18,0.18,0,0,1-.2.17h0Zm0-.3a0.15,0.15,0,0,0-.17.14c0,0.15.33,0.15,0.33,0a0.15,0.15,0,0,0-.17-0.14h0Z" transform="translate(-104.31 -894.4)"/>
      <polygon class="e" points="8.17 4.41 9.03 4.41 8.6 4.87 8.17 4.41"/>
      <path class="f" d="M112.91,899.29l-0.44-.47,0.86,0-0.42.49h0Zm0.41-.49-0.84,0,0.43,0.42,0.41-.44h0Z" transform="translate(-104.31 -894.4)"/>
      <path class="e" d="M112.91,899a0.21,0.21,0,1,1-.24.2,0.23,0.23,0,0,1,.24-0.2h0Z" transform="translate(-104.31 -894.4)"/>
      <path class="f" d="M112.91,899.38a0.22,0.22,0,1,1,.26-0.22,0.24,0.24,0,0,1-.26.22h0Zm0-.4a0.21,0.21,0,0,0-.23.19c0,0.21.46,0.21,0.46,0a0.21,0.21,0,0,0-.23-0.19h0Z" transform="translate(-104.31 -894.4)"/>
      <path class="e" d="M112,900.68h1.16a0.06,0.06,0,0,1,.07.05v0.2a0.06,0.06,0,0,1-.07.05H112a0.06,0.06,0,0,1-.07-0.05v-0.2a0.06,0.06,0,0,1,.07-0.05h0Z" transform="translate(-104.31 -894.4)"/>
      <path class="f" d="M113.21,901H112a0.08,0.08,0,0,1-.09-0.07v-0.2a0.08,0.08,0,0,1,.09-0.07h1.16a0.08,0.08,0,0,1,.09.07v0.2a0.08,0.08,0,0,1-.09.07h0Zm-1.16-.3-0.06.23,1.22,0a0.05,0.05,0,0,0,.06,0v-0.2l-1.22,0h0Z" transform="translate(-104.31 -894.4)"/>
      <path class="e" d="M113.68,900.43a0.27,0.27,0,0,0-.28.26v0.23a0.28,0.28,0,0,0,.57,0v-0.23a0.27,0.27,0,0,0-.28-0.26h0Zm0,0.1a0.19,0.19,0,0,0-.17.21v0.13a0.17,0.17,0,1,0,.34,0v-0.13a0.19,0.19,0,0,0-.17-0.21h0Z" transform="translate(-104.31 -894.4)"/>
      <path class="f" d="M113.68,901.2a0.29,0.29,0,0,1-.3-0.28v-0.23a0.3,0.3,0,0,1,.6,0v0.23a0.29,0.29,0,0,1-.3.28h0Zm0-.76a0.26,0.26,0,0,0-.27.25v0.23a0.27,0.27,0,0,0,.54,0v-0.23a0.26,0.26,0,0,0-.27-0.25h0Zm0,0.66a0.21,0.21,0,0,1-.19-0.23v-0.13a0.19,0.19,0,1,1,.37,0v0.13a0.21,0.21,0,0,1-.18.23h0Zm0-.56a0.18,0.18,0,0,0-.16.2v0.13a0.16,0.16,0,1,0,.31,0v-0.13a0.18,0.18,0,0,0-.16-0.2h0Z" transform="translate(-104.31 -894.4)"/>
      <path class="e" d="M112.2,900.48a0.19,0.19,0,0,0-.17.21v0.24a0.17,0.17,0,1,0,.34,0v-0.24a0.19,0.19,0,0,0-.17-0.21h0Zm0-.1a0.27,0.27,0,0,0-.28.26V901a0.28,0.28,0,0,0,.57,0v-0.33a0.27,0.27,0,0,0-.28-0.26h0Z" transform="translate(-104.31 -894.4)"/>
      <path class="f" d="M112.2,901.25a0.29,0.29,0,0,1-.3-0.28v-0.33a0.3,0.3,0,0,1,.6,0V901a0.29,0.29,0,0,1-.3.28h0Zm0-.86a0.26,0.26,0,0,0-.27.25V901a0.27,0.27,0,0,0,.54,0v-0.33a0.26,0.26,0,0,0-.27-0.25h0Zm0,0.76a0.21,0.21,0,0,1-.19-0.22v-0.24a0.21,0.21,0,0,1,.19-0.23,0.21,0.21,0,0,1,.19.23v0.24a0.21,0.21,0,0,1-.19.22h0Zm0-.66a0.18,0.18,0,0,0-.16.2v0.24a0.16,0.16,0,1,0,.31,0v-0.24a0.18,0.18,0,0,0-.16-0.2h0Z" transform="translate(-104.31 -894.4)"/>
      <path class="e" d="M111.74,900.58a0.2,0.2,0,0,0-.17.21v0.05a0.17,0.17,0,1,0,.34,0v-0.05a0.2,0.2,0,0,0-.17-0.21h0Zm0-.1a0.27,0.27,0,0,0-.28.26v0.15a0.28,0.28,0,0,0,.57,0v-0.15a0.27,0.27,0,0,0-.28-0.26h0Z" transform="translate(-104.31 -894.4)"/>
      <path class="f" d="M111.74,901.18a0.29,0.29,0,0,1-.3-0.28v-0.15a0.3,0.3,0,0,1,.6,0v0.15a0.29,0.29,0,0,1-.3.28h0Zm0-.68a0.26,0.26,0,0,0-.27.25v0.15a0.27,0.27,0,0,0,.54,0v-0.15a0.26,0.26,0,0,0-.27-0.25h0Zm0,0.58a0.21,0.21,0,0,1-.18-0.23c0-.36.37-0.3,0.37-0.05a0.23,0.23,0,0,1-.18.28h0Zm0-.48a0.18,0.18,0,0,0-.16.2c0,0.33.31,0.27,0.31,0.05s-0.07-.25-0.16-0.25h0Z" transform="translate(-104.31 -894.4)"/>
      <path class="e" d="M111.06,900.44a0.28,0.28,0,0,0-.31.24v0.26a0.32,0.32,0,0,0,.61,0v-0.26a0.28,0.28,0,0,0-.31-0.24h0Zm0-.11a0.45,0.45,0,0,0-.51.29V901a0.59,0.59,0,0,0,1,0v-0.37a0.45,0.45,0,0,0-.51-0.29h0Z" transform="translate(-104.31 -894.4)"/>
      <path class="f" d="M111.06,901.3a0.46,0.46,0,0,1-.52-0.31v-0.37a0.6,0.6,0,0,1,1.05,0V901a0.46,0.46,0,0,1-.53.31h0Zm0-1a0.44,0.44,0,0,0-.5.28V901a0.58,0.58,0,0,0,1,0v-0.37a0.44,0.44,0,0,0-.5-0.28h0Zm0,0.85a0.29,0.29,0,0,1-.32-0.25v-0.26a0.33,0.33,0,0,1,.64,0v0.26a0.29,0.29,0,0,1-.32.25h0Zm0-.74a0.26,0.26,0,0,0-.29.22v0.26a0.3,0.3,0,0,0,.58,0v-0.26a0.27,0.27,0,0,0-.29-0.22h0Z" transform="translate(-104.31 -894.4)"/>
      <path class="e" d="M114.76,900.49a0.28,0.28,0,0,0-.31.24V901a0.32,0.32,0,0,0,.61,0v-0.26a0.28,0.28,0,0,0-.31-0.24h0Zm0-.11a0.45,0.45,0,0,0-.51.29V901a0.59,0.59,0,0,0,1,0v-0.37a0.45,0.45,0,0,0-.51-0.29h0Z" transform="translate(-104.31 -894.4)"/>
      <path class="f" d="M114.76,901.36a0.46,0.46,0,0,1-.53-0.31v-0.37a0.6,0.6,0,0,1,1.05,0V901a0.46,0.46,0,0,1-.52.31h0Zm0-1a0.44,0.44,0,0,0-.5.28V901a0.58,0.58,0,0,0,1,0v-0.37a0.44,0.44,0,0,0-.5-0.28h0Zm0,0.85a0.29,0.29,0,0,1-.32-0.25v-0.26a0.33,0.33,0,0,1,.64,0V901a0.29,0.29,0,0,1-.32.25h0Zm0-.74a0.26,0.26,0,0,0-.29.22V901a0.3,0.3,0,0,0,.58,0v-0.26a0.26,0.26,0,0,0-.29-0.22h0Z" transform="translate(-104.31 -894.4)"/>
      <path class="e" d="M113.83,900.68h0.61a0,0,0,0,1,0,.05v0.2a0,0,0,0,1,0,.05h-0.61a0,0,0,0,1,0-.05v-0.2a0,0,0,0,1,0-.05h0Z" transform="translate(-104.31 -894.4)"/>
      <path class="f" d="M114.43,901h-0.62l0-.07v-0.21l0.05-.05h0.62l0,0.07v0.21l-0.05.05h0Zm-0.61-.3,0,0.23,0.63,0.05,0-.05v-0.2l-0.63,0h0Z" transform="translate(-104.31 -894.4)"/>
      <path class="e" d="M113.19,900.63h0.35a0.07,0.07,0,0,1,0,.07V901a0.07,0.07,0,0,1,0,.07h-0.35a0.07,0.07,0,0,1,0-.07V900.7a0.07,0.07,0,0,1,0-.07h0Z" transform="translate(-104.31 -894.4)"/>
      <path class="f" d="M113.54,901.05h-0.35s0,0,0-.09V900.7s0-.09,0-0.09h0.35s0,0,0,.09V901s0,0.09,0,.09h0Zm-0.35-.4V901l0.36,0.06V900.7l-0.36-.06h0Z" transform="translate(-104.31 -894.4)"/>
      <path class="e" d="M111.31,900.63h0.35a0.07,0.07,0,0,1,0,.07V901a0.08,0.08,0,0,1,0,.07h-0.35a0.08,0.08,0,0,1,0-.07V900.7a0.07,0.07,0,0,1,0-.07h0Z" transform="translate(-104.31 -894.4)"/>
      <path class="f" d="M111.67,901.05h-0.35s0,0,0-.09V900.7s0-.09,0-0.09h0.35s0,0,0,.09V901s0,0.09,0,.09h0Zm-0.35-.4V901l0.36,0.06V900.7l-0.36-.06h0Z" transform="translate(-104.31 -894.4)"/>
      <path class="e" d="M110.08,900.58h0.71a0.08,0.08,0,0,1,0,.09V901a0.08,0.08,0,0,1,0,.09h-0.71a0.08,0.08,0,0,1,0-.09v-0.33a0.08,0.08,0,0,1,0-.09h0Z" transform="translate(-104.31 -894.4)"/>
      <path class="f" d="M110.79,901.1h-0.71A0.09,0.09,0,0,1,110,901v-0.33a0.09,0.09,0,0,1,.06-0.11h0.71a0.09,0.09,0,0,1,.06.11V901a0.09,0.09,0,0,1-.06.1h0Zm-0.71-.51a0.08,0.08,0,0,0,0,.08V901a0.07,0.07,0,0,0,0,.07h0.71a0.08,0.08,0,0,0,0-.07v-0.33a0.08,0.08,0,0,0,0-.08h-0.71Z" transform="translate(-104.31 -894.4)"/>
      <path class="e" d="M115,900.63h0.66a0.08,0.08,0,0,1,0,.09V901a0.08,0.08,0,0,1,0,.09H115a0.08,0.08,0,0,1,0-.09v-0.33a0.08,0.08,0,0,1,0-.09h0Z" transform="translate(-104.31 -894.4)"/>
      <path class="f" d="M115.68,901.15H115A0.09,0.09,0,0,1,115,901v-0.33a0.09,0.09,0,0,1,.05-0.1h0.66a0.09,0.09,0,0,1,.05.1V901a0.09,0.09,0,0,1-.05.1h0Zm-0.66-.51a0.08,0.08,0,0,0,0,.07V901a0.08,0.08,0,0,0,0,.08h0.66a0.08,0.08,0,0,0,0-.08v-0.33a0.08,0.08,0,0,0,0-.07H115Z" transform="translate(-104.31 -894.4)"/>
    </g>
  </g>
</svg>
