<svg xmlns="http://www.w3.org/2000/svg" xmlns:xlink="http://www.w3.org/1999/xlink" viewBox="0 0 58.92 34.37">
  <defs>
    <style>
      .a {
        fill: none;
      }

      .b {
        clip-path: url(#a);
      }

      .c {
        fill: #2534a4;
      }

      .d {
        fill: #bc0030;
      }

      .e {
        fill: #fff;
      }

      .f {
        fill: #f3d02f;
      }
    </style>
    <clipPath id="a" transform="translate(-668.7 -894.4)">
      <rect class="a" x="668.7" y="894.4" width="58.92" height="34.37"/>
    </clipPath>
  </defs>
  <title>Philippines</title>
  <g class="b">
    <rect class="c" width="58.92" height="17.19"/>
    <rect class="d" y="17.19" width="58.92" height="17.19"/>
    <polygon class="e" points="0 0 0 34.37 29.92 17.18 0 0"/>
    <polygon class="f" points="4.04 31.06 2.71 30.29 1.57 31.33 1.9 29.82 0.56 29.06 2.1 28.91 2.4 27.4 3.02 28.81 4.55 28.64 3.41 29.66 4.04 31.06"/>
    <path class="f" d="M676.77,908.47l-1.12-1.92-0.64-.07,1.53,2.18Zm-0.87.88-2.35-1.81-0.08-1.05,1,0,1.95,2.38Zm-0.36.42-1.94-1.1-0.08-.64,2.2,1.5Z" transform="translate(-668.7 -894.4)"/>
    <path class="f" d="M679.54,908.08l0.58-2.15-0.4-.51L679.25,908Zm-1.24,0-0.36-2.95,0.69-.8,0.69,0.65L679,908Zm-0.55,0L677.18,906l0.4-.51,0.47,2.62Z" transform="translate(-668.7 -894.4)"/>
    <path class="f" d="M681.78,909.81l2-1.07,0.09-.64-2.22,1.47Zm-0.86-.89,1.87-2.3,1.06-.06v1l-2.43,1.88Zm-0.4-.37,1.14-1.91,0.64-.06-1.56,2.16Z" transform="translate(-668.7 -894.4)"/>
    <path class="f" d="M682.13,912.5l2.15,0.59,0.51-.4-2.62-.48Zm0-1.24,2.95-.36,0.8,0.69-0.66.69-3.06-.33Zm0-.55,2.15-.58,0.51,0.4-2.62.47Z" transform="translate(-668.7 -894.4)"/>
    <path class="f" d="M680.5,914.69l1.13,1.92,0.64,0.07-1.54-2.17Zm0.86-.88,2.36,1.8,0.09,1.05-1,0-2-2.37Zm0.36-.42,1.94,1.08,0.08,0.64-2.2-1.49Z" transform="translate(-668.7 -894.4)"/>
    <path class="f" d="M677.74,915.1l-0.57,2.15,0.4,0.51,0.46-2.62Zm1.24,0,0.38,2.95-0.69.8-0.7-.65,0.31-3.06Zm0.55,0,0.59,2.14-0.4.51-0.49-2.62Z" transform="translate(-668.7 -894.4)"/>
    <path class="f" d="M675.5,913.41l-1.93,1.1-0.08.64,2.19-1.51Zm0.87,0.88-1.83,2.34-1.06.07,0-1,2.4-1.92Zm0.41,0.36-1.11,1.93-0.64.07,1.53-2.18Z" transform="translate(-668.7 -894.4)"/>
    <path class="f" d="M675.11,910.69l-2.15-.57-0.51.4,2.62,0.46Zm0,1.24-2.95.38-0.8-.69,0.65-.7,3.06,0.31Zm0,0.55-2.14.59-0.51-.4,2.62-.49Z" transform="translate(-668.7 -894.4)"/>
    <g class="b">
      <path class="f" d="M678.63,908a3.63,3.63,0,1,1-3.62,3.63,3.63,3.63,0,0,1,3.63-3.62" transform="translate(-668.7 -894.4)"/>
      <polygon class="f" points="22.41 18.43 23.32 17.19 22.4 15.95 23.86 16.43 24.76 15.18 24.75 16.72 26.22 17.18 24.75 17.65 24.77 19.19 23.87 17.94 22.41 18.43"/>
      <polygon class="f" points="4.04 2.93 2.71 3.71 1.57 2.67 1.9 4.17 0.56 4.93 2.1 5.09 2.4 6.6 3.02 5.18 4.55 5.36 3.41 4.33 4.04 2.93"/>
    </g>
  </g>
</svg>
