<svg xmlns="http://www.w3.org/2000/svg" xmlns:xlink="http://www.w3.org/1999/xlink" viewBox="0 0 58.92 34.37">
  <defs>
    <style>
      .a {
        fill: none;
      }

      .b {
        clip-path: url(#a);
      }

      .c {
        fill: #fff;
      }

      .d {
        fill: #2a680b;
      }
    </style>
    <clipPath id="a" transform="translate(-175 -894.4)">
      <rect class="a" x="175" y="894.4" width="58.92" height="34.37"/>
    </clipPath>
  </defs>
  <title>Pakistan</title>
  <g class="b">
    <rect class="c" width="58.92" height="34.37"/>
    <rect class="d" x="14.73" width="44.19" height="34.37"/>
    <g class="b">
      <path class="c" d="M210.9,901.27a10.31,10.31,0,1,1-10.29,10.31,10.3,10.3,0,0,1,10.29-10.31" transform="translate(-175 -894.4)"/>
      <path class="d" d="M207.26,902.18a9.44,9.44,0,1,1-.78,13.34,9.42,9.42,0,0,1,.78-13.34" transform="translate(-175 -894.4)"/>
      <polygon class="c" points="43.59 10.34 40.45 11.71 41.14 13.29 43.59 10.34"/>
      <polygon class="c" points="43.59 10.34 41.86 13.3 40.38 12.43 43.59 10.34"/>
      <polygon class="c" points="43.99 14.36 41.71 11.79 40.43 12.93 43.99 14.36"/>
      <polygon class="c" points="43.99 14.36 40.64 13.62 41 11.94 43.99 14.36"/>
      <polygon class="c" points="39.65 9.47 39.99 12.89 41.7 12.72 39.65 9.47"/>
      <polygon class="c" points="39.65 9.47 41.93 12.04 40.65 13.18 39.65 9.47"/>
      <polygon class="c" points="40.29 15.98 42.03 13.01 40.55 12.14 40.29 15.98"/>
      <polygon class="c" points="40.29 15.98 39.96 12.56 41.66 12.39 40.29 15.98"/>
      <polygon class="c" points="37.61 12.96 40.97 13.69 41.33 12.01 37.61 12.96"/>
      <polygon class="c" points="37.61 12.96 40.76 11.58 41.45 13.15 37.61 12.96"/>
    </g>
  </g>
</svg>
