<svg xmlns="http://www.w3.org/2000/svg" xmlns:xlink="http://www.w3.org/1999/xlink" viewBox="0 0 58.92 34.37">
  <defs>
    <style>
      .a {
        fill: none;
      }

      .b {
        clip-path: url(#a);
      }

      .c {
        fill: #ea0020;
      }

      .d {
        fill: #2a680b;
      }

      .e {
        fill: #fcff2c;
      }

      .f {
        fill: #fff;
      }

      .g {
        fill: #1a0095;
      }
    </style>
    <clipPath id="a" transform="translate(-880.77 -894.4)">
      <rect class="a" x="880.77" y="894.4" width="58.92" height="34.37"/>
    </clipPath>
  </defs>
  <title>Portugal</title>
  <g class="b">
    <rect class="c" x="20.61" width="38.32" height="34.37"/>
    <rect class="d" width="20.61" height="34.37"/>
    <g class="b">
      <path class="e" d="M908.09,916.91c-2.59-.08-14.49-7.51-14.57-8.69l0.66-1.1c1.18,1.72,13.34,8.94,14.53,8.69l-0.62,1.1h0Z" transform="translate(-880.77 -894.4)"/>
      <path class="e" d="M894,907c-0.23.63,3.11,2.69,7.12,5.13s7.48,4,7.73,3.74a2.08,2.08,0,0,0,.12-0.22,0.3,0.3,0,0,1-.35,0,40.21,40.21,0,0,1-7.42-3.74c-3.5-2.12-6.55-4.08-7-4.92a0.51,0.51,0,0,1-.05-0.24h0l-0.1.18v0h0Zm14.11,10a0.24,0.24,0,0,1-.28.07c-1-.11-3.91-1.54-7.4-3.63-4.05-2.43-7.4-4.64-7-5.22l0.1-.17h0c-0.33,1,6.61,4.95,7,5.2,4,2.49,7.39,3.94,7.69,3.56l-0.11.19h0Z" transform="translate(-880.77 -894.4)"/>
      <path d="M908,917h-0.12c-1-.11-4-1.57-7.41-3.63-4.6-2.76-6.91-4.41-7.07-5.07a0.23,0.23,0,0,1,0-.18l0.1-.17a0.27,0.27,0,0,0,0,.06l-0.05.14a0.18,0.18,0,0,0,0,.15c0.15,0.64,2.46,2.29,7,5,3.44,2.06,6.41,3.51,7.39,3.62a0.23,0.23,0,0,0,.26-0.05l0.07-.11a0.3,0.3,0,0,1-.13,0c-0.82,0-3.85-1.36-7.51-3.62l-0.28-.16c-4.48-2.64-6.75-4.32-6.76-5,0.09,0.44,1.14,1.61,6.79,4.94l0.28,0.17c3.65,2.26,6.67,3.62,7.49,3.62a0.24,0.24,0,0,0,.18,0h0a0.07,0.07,0,0,1,0,.05l-0.05.16a0.19,0.19,0,0,1-.18.09h0Zm0.81-1.15c-0.6,0-3.89-1.46-7.66-3.76-4.32-2.63-7.36-4.54-7.13-5.17l0.12-.21h0l-0.07.19c-0.25.66,3.65,3,7.1,5.13,3.77,2.29,7,3.75,7.63,3.75h0.07l0.07-.12a0.45,0.45,0,0,1-.29,0,41,41,0,0,1-7.42-3.74c-3.2-1.94-6.53-4-7-4.93a0.53,0.53,0,0,1-.06-0.26c0,0.09.07,0.18,0.1,0.23,0.5,0.88,4,3.09,7,4.91a40.84,40.84,0,0,0,7.41,3.74,0.28,0.28,0,0,0,.32,0c0.05,0,.05,0,0,0.2a0.14,0.14,0,0,1-.13.08h0Z" transform="translate(-880.77 -894.4)"/>
      <path class="e" d="M901.39,908.94a24.41,24.41,0,0,0,7.64-1.09l-0.4-.65c-1.09.6-4.31,1-7.27,1.06-3.5,0-6-.36-7.2-1.19l-0.37.69a18.85,18.85,0,0,0,7.6,1.18h0Z" transform="translate(-880.77 -894.4)"/>
      <path class="e" d="M909.14,907.86a11.18,11.18,0,0,1-3,.82,31.34,31.34,0,0,1-4.72.34,33.36,33.36,0,0,1-4.52-.29,13.06,13.06,0,0,1-3.17-.84l0.09-.18a13.87,13.87,0,0,0,3.11.83,33.15,33.15,0,0,0,4.49.29,31.75,31.75,0,0,0,4.69-.35,7.6,7.6,0,0,0,2.95-.85l0.13,0.22h0Zm-0.35-.66a9.15,9.15,0,0,1-2.9.78,31.43,31.43,0,0,1-4.49.31,30,30,0,0,1-4.33-.28,11.9,11.9,0,0,1-3-.76l0.1-.17a10.34,10.34,0,0,0,2.94.75,31.11,31.11,0,0,0,4.32.27,30.6,30.6,0,0,0,4.45-.32,7.75,7.75,0,0,0,2.81-.79l0.13,0.21h0Z" transform="translate(-880.77 -894.4)"/>
      <path d="M901.33,909.05a33.13,33.13,0,0,1-4.47-.29,13.35,13.35,0,0,1-3.15-.83v-0.11l0.06-.11a15.22,15.22,0,0,0,3.14.81,33.2,33.2,0,0,0,4.46.29,31.92,31.92,0,0,0,4.71-.35,7.67,7.67,0,0,0,2.93-.84l0.17,0.23a9.67,9.67,0,0,1-3.05.86,31.28,31.28,0,0,1-4.73.34h-0.06Zm-7.56-1.31-0.06.17a15.8,15.8,0,0,0,3.16.8,33,33,0,0,0,4.46.29v0l0.06,0a31.68,31.68,0,0,0,4.72-.34,11.51,11.51,0,0,0,3-.81l-0.13-.2c-0.09.17-1,.55-2.92,0.86a31.69,31.69,0,0,1-4.69.35,33.43,33.43,0,0,1-4.49-.29,13.77,13.77,0,0,1-3.12-.83h0Zm7.61,0.58a30.38,30.38,0,0,1-4.31-.28,11.68,11.68,0,0,1-2.88-.71l-0.14-.05,0.06-.16a0.18,0.18,0,0,1,.06-0.06,10.18,10.18,0,0,0,2.93.75,32.85,32.85,0,0,0,8.76,0,8,8,0,0,0,2.8-.79l0.16,0.21a8,8,0,0,1-2.92.82,30.8,30.8,0,0,1-4.49.31h0Zm-7.23-1.22-0.07.16,0.13,0a11.76,11.76,0,0,0,2.87.71,30.29,30.29,0,0,0,4.3.28v0l0,0a31.23,31.23,0,0,0,4.48-.31,9,9,0,0,0,2.89-.78l-0.13-.18a6.85,6.85,0,0,1-2.79.8,30.59,30.59,0,0,1-4.46.32,30.92,30.92,0,0,1-4.32-.27,10.08,10.08,0,0,1-2.95-.75h0Z" transform="translate(-880.77 -894.4)"/>
      <path class="e" d="M892.87,912.07c1.6,0.86,5.14,1.29,8.5,1.32,3.06,0,7-.47,8.53-1.26l0-.86c-0.46.73-4.73,1.43-8.52,1.4s-7.3-.61-8.47-1.37v0.77h0Z" transform="translate(-880.77 -894.4)"/>
      <path class="e" d="M910,911.95v0.21a9.36,9.36,0,0,1-3.39,1,34.93,34.93,0,0,1-5.26.36,33.15,33.15,0,0,1-5-.34,12.42,12.42,0,0,1-3.57-1v-0.24a12.77,12.77,0,0,0,3.6,1,32.76,32.76,0,0,0,5,.34,34.87,34.87,0,0,0,5.23-.36,10.84,10.84,0,0,0,3.41-1h0Zm0-.73v0.21a9.34,9.34,0,0,1-3.39,1,34.7,34.7,0,0,1-5.26.36,33.12,33.12,0,0,1-5-.34,12.46,12.46,0,0,1-3.57-1v-0.24a12.78,12.78,0,0,0,3.6,1,32.78,32.78,0,0,0,5,.34,34.58,34.58,0,0,0,5.23-.36,10.84,10.84,0,0,0,3.42-1h0Z" transform="translate(-880.77 -894.4)"/>
      <path d="M901.33,913.49a33.12,33.12,0,0,1-5-.34,12.57,12.57,0,0,1-3.58-1v-0.26a14.19,14.19,0,0,0,3.63,1,32.91,32.91,0,0,0,5,.34,35,35,0,0,0,5.23-.36,10.85,10.85,0,0,0,3.4-1l0,0.22a9,9,0,0,1-3.41,1,35,35,0,0,1-5.26.36h0Zm-8.58-1.55,0,0.22a13.31,13.31,0,0,0,3.55.94,33.05,33.05,0,0,0,5,.34,35.16,35.16,0,0,0,5.26-.36,9.59,9.59,0,0,0,3.37-.95v-0.19a9.77,9.77,0,0,1-3.39,1,34.85,34.85,0,0,1-5.24.36,33,33,0,0,1-5-.34,12.47,12.47,0,0,1-3.61-1h0Zm8.58,0.82a33.25,33.25,0,0,1-5-.35,12.57,12.57,0,0,1-3.58-1v-0.26a14.15,14.15,0,0,0,3.63,1,33,33,0,0,0,5,.34,34.9,34.9,0,0,0,5.23-.36,10.87,10.87,0,0,0,3.4-1l0,0.22a9,9,0,0,1-3.41,1,34.66,34.66,0,0,1-5.26.36h0Zm-8.58-1.55,0,0.22a13.32,13.32,0,0,0,3.55.94,33.17,33.17,0,0,0,5,.34,35.09,35.09,0,0,0,5.26-.36,9.56,9.56,0,0,0,3.37-.95v-0.19a9.72,9.72,0,0,1-3.39,1,34.71,34.71,0,0,1-5.23.36,33.09,33.09,0,0,1-5-.34,12.52,12.52,0,0,1-3.61-1h0Z" transform="translate(-880.77 -894.4)"/>
      <path class="e" d="M901.36,916.77a29.35,29.35,0,0,1-7.48-1.16l0.49,0.76a20.07,20.07,0,0,0,7,1.15c2.79-.08,5.23-0.3,6.95-1.13l0.5-.79a26.42,26.42,0,0,1-7.48,1.18h0Z" transform="translate(-880.77 -894.4)"/>
      <path class="e" d="M908.53,916.2l-0.22.33a19.74,19.74,0,0,1-2.63.67,23.75,23.75,0,0,1-4.32.4,20.73,20.73,0,0,1-7.17-1.23l-0.1-.17,0,0,0.17,0.07a23.06,23.06,0,0,0,7.1,1.17,24.08,24.08,0,0,0,4.23-.39,12.38,12.38,0,0,0,2.86-.78l0.06,0h0Zm0.43-.71h0l-0.17.28a18.3,18.3,0,0,1-3.32.74,26.36,26.36,0,0,1-4.08.35,28,28,0,0,1-7.58-1.13l-0.1-.19a32.06,32.06,0,0,0,7.68,1.13,28.51,28.51,0,0,0,4-.35,21,21,0,0,0,3.31-.73v0l0.22-.08h0Z" transform="translate(-880.77 -894.4)"/>
      <path d="M901.36,917.62h0a20.55,20.55,0,0,1-7.18-1.23l-0.11-.18a0.18,0.18,0,0,1,0-.06h0l0.17,0.07a22.77,22.77,0,0,0,7.09,1.17h0a24.25,24.25,0,0,0,4.23-.39,11.79,11.79,0,0,0,2.85-.78h0.09l-0.22.33a19.18,19.18,0,0,1-2.64.68,23.69,23.69,0,0,1-4.32.4h0Zm-7.26-1.43,0.11,0.17a21.18,21.18,0,0,0,7.15,1.22,24,24,0,0,0,4.31-.4,19.38,19.38,0,0,0,2.62-.67l0.16-.24a12.58,12.58,0,0,1-2.84.77,24.22,24.22,0,0,1-4.17.39h0a23,23,0,0,1-7.18-1.17l-0.17-.07h0Zm7.3,0.69h0a28.34,28.34,0,0,1-7.59-1.13l-0.11-.2a34.15,34.15,0,0,0,7.7,1.09,27.18,27.18,0,0,0,3.68-.3l0.37-.05a21.64,21.64,0,0,0,3.26-.72l0.24-.11v0l-0.19.11a17.84,17.84,0,0,1-3.3.75l-0.37.05a27.32,27.32,0,0,1-3.68.3,32,32,0,0,1-7.69-1.13l0.12,0.15a28.67,28.67,0,0,0,7.56,1.12,24.15,24.15,0,0,0,3.59-.28l0.48-.07a18.61,18.61,0,0,0,3.32-.74l0.15-.27-0.13.3a17.9,17.9,0,0,1-3.34.75l-0.48.07a24.21,24.21,0,0,1-3.6.28h0Z" transform="translate(-880.77 -894.4)"/>
      <path class="e" d="M901.36,903.94a7.64,7.64,0,1,1-7.63,7.64,7.64,7.64,0,0,1,7.63-7.64h0Zm0-.76a8.4,8.4,0,1,1-8.39,8.4,8.41,8.41,0,0,1,8.39-8.4h0Z" transform="translate(-880.77 -894.4)"/>
      <path class="e" d="M901.37,903.08a8.51,8.51,0,1,1-8.5,8.51,8.52,8.52,0,0,1,8.5-8.51h0Zm0,0.19a8.32,8.32,0,1,1-8.32,8.32,8.35,8.35,0,0,1,8.32-8.32h0Z" transform="translate(-880.77 -894.4)"/>
      <path d="M901.37,920.13a8.53,8.53,0,1,1,8.53-8.53,8.54,8.54,0,0,1-8.53,8.53h0Zm0-17a8.49,8.49,0,1,0,8.48,8.49,8.49,8.49,0,0,0-8.48-8.49h0Zm0,16.83a8.35,8.35,0,1,1,8.34-8.34,8.35,8.35,0,0,1-8.34,8.34h0Zm0-16.64a8.3,8.3,0,1,0,8.29,8.3,8.3,8.3,0,0,0-8.29-8.3h0Z" transform="translate(-880.77 -894.4)"/>
      <path class="e" d="M901.38,903.79a7.79,7.79,0,1,1-7.79,7.79,7.82,7.82,0,0,1,7.79-7.79h0Zm0,0.19a7.61,7.61,0,1,1-7.6,7.61,7.63,7.63,0,0,1,7.6-7.61h0Z" transform="translate(-880.77 -894.4)"/>
      <path d="M901.38,919.4a7.82,7.82,0,1,1,7.81-7.82,7.83,7.83,0,0,1-7.81,7.82h0Zm0-15.59a7.77,7.77,0,1,0,7.76,7.77,7.78,7.78,0,0,0-7.76-7.77h0Zm0,15.4a7.63,7.63,0,1,1,7.62-7.63,7.64,7.64,0,0,1-7.62,7.63h0Zm0-15.21a7.58,7.58,0,1,0,7.57,7.58,7.59,7.59,0,0,0-7.57-7.58h0Z" transform="translate(-880.77 -894.4)"/>
      <rect class="e" x="20.25" y="8.64" width="0.74" height="17.12"/>
      <path class="a" d="M901.12,903h0Z" transform="translate(-880.77 -894.4)"/>
      <path class="a" d="M901.12,920.14h0Z" transform="translate(-880.77 -894.4)"/>
      <path class="e" d="M901.64,902.95h0.19v17.29h-0.19V902.95h0Zm-0.72,0h0.19v17.29h-0.19V902.95h0Z" transform="translate(-880.77 -894.4)"/>
      <path d="M901.83,920.27h-0.19l0-17.32,0.21,0,0,17.32v0h0Zm0-17.32-0.16,0,0,17.27,0.14,0V902.95h0Zm-0.7,17.32h-0.19l0-17.32,0.21,0,0,17.32v0h0Zm0-17.32-0.16,0,0,17.27,0.14,0V902.95h0Z" transform="translate(-880.77 -894.4)"/>
      <path class="e" d="M892.84,911.23c1.07-1,5-1.62,8.49-1.6s7.62,0.74,8.52,1.58v0.73c-0.75-.71-4-1.55-8.52-1.56s-7.87.86-8.5,1.58v-0.73h0Z" transform="translate(-880.77 -894.4)"/>
      <path d="M892.86,911.89l0-.63s0,0,0,0v0.63h0Z" transform="translate(-880.77 -894.4)"/>
      <path d="M909.9,911.92l0-.63s0,0,0,0v0.63h0Z" transform="translate(-880.77 -894.4)"/>
      <path class="e" d="M901.37,910.27a29.63,29.63,0,0,1,5.5.49,6.38,6.38,0,0,1,3.1,1.17v0.22c-0.46-.56-2-1-3.14-1.2a29.23,29.23,0,0,0-5.46-.49,30.4,30.4,0,0,0-5.58.5c-1.21.24-2.83,0.72-3,1.19v-0.23c0.11-.33,1.31-0.81,3-1.15a30.55,30.55,0,0,1,5.61-.5h0Zm0-.73a29.32,29.32,0,0,1,5.5.49,6.43,6.43,0,0,1,3.1,1.17v0.22c-0.46-.56-2-1-3.13-1.2a29.4,29.4,0,0,0-5.46-.49,30.3,30.3,0,0,0-5.57.5c-1.17.22-2.85,0.72-3,1.19v-0.23c0.11-.32,1.34-0.83,3-1.15a30.54,30.54,0,0,1,5.61-.5h0Z" transform="translate(-880.77 -894.4)"/>
      <path d="M892.76,912.18h0a0,0,0,0,1,0,0v-0.23c0.12-.36,1.39-0.85,3-1.18a30.8,30.8,0,0,1,5.61-.5,29.64,29.64,0,0,1,5.51.49,6.36,6.36,0,0,1,3.11,1.17v0.24a7.57,7.57,0,0,0-3.17-1.18,29.1,29.1,0,0,0-5.4-.49,30.74,30.74,0,0,0-5.64.5c-1.32.26-2.83,0.74-3,1.18l0,0h0Zm8.61-1.74a29.41,29.41,0,0,1,5.47.49c1,0.19,2.65.61,3.15,1.21l0-.21a6.45,6.45,0,0,0-3.08-1.14,29.75,29.75,0,0,0-5.45-.49,30.82,30.82,0,0,0-5.64.5c-1.81.36-2.89,0.86-3,1.14v0.13c0.36-.49,2-0.93,3-1.12a30.47,30.47,0,0,1,5.58-.5h0Zm-8.61,1h0a0,0,0,0,1,0,0v-0.23c0.12-.36,1.42-0.87,3-1.18a30.69,30.69,0,0,1,5.61-.5,29.65,29.65,0,0,1,5.51.49,6.36,6.36,0,0,1,3.11,1.18v0.24a7.59,7.59,0,0,0-3.17-1.18,29.47,29.47,0,0,0-5.42-.49,30.57,30.57,0,0,0-5.61.5c-1.34.25-2.85,0.75-3,1.18l0,0h0Zm8.61-1.74a29.37,29.37,0,0,1,5.47.49c1,0.19,2.65.61,3.15,1.21l0-.21a6.48,6.48,0,0,0-3.08-1.14,29.34,29.34,0,0,0-5.43-.49,30.78,30.78,0,0,0-5.67.5c-1.74.34-2.89,0.85-3,1.14v0.13c0.34-.47,2-0.92,3-1.12a30.52,30.52,0,0,1,5.58-.5h0Z" transform="translate(-880.77 -894.4)"/>
      <path class="e" d="M901.33,905.82a18.3,18.3,0,0,1,7.19,1.09l0.46,0.8a18.47,18.47,0,0,0-7.64-1.12c-2.91,0-6,.32-7.57,1.15l0.55-.92c1.28-.66,4.29-1,7-1h0Z" transform="translate(-880.77 -894.4)"/>
      <path class="a" d="M908.6,907l0.31,0.5Z" transform="translate(-880.77 -894.4)"/>
      <path class="e" d="M901.37,906.48a28.61,28.61,0,0,1,4.93.35,9,9,0,0,1,2.7.79l0.14,0.24a9.93,9.93,0,0,0-2.86-.85,27.82,27.82,0,0,0-4.91-.34,28.42,28.42,0,0,0-5,.34,8.82,8.82,0,0,0-2.68.84l0.13-.26a8.88,8.88,0,0,1,2.51-.77,29,29,0,0,1,5-.35h0Zm0-.73a28,28,0,0,1,4.76.33,7.69,7.69,0,0,1,2.46.81l0.2,0.32a6.51,6.51,0,0,0-2.75-.93,30.1,30.1,0,0,0-4.68-.33,28.4,28.4,0,0,0-4.79.35,7.77,7.77,0,0,0-2.38.73l0.18-.27a8.44,8.44,0,0,1,2.17-.66,28.56,28.56,0,0,1,4.82-.35h0Z" transform="translate(-880.77 -894.4)"/>
      <path d="M909.15,907.89h0a9.86,9.86,0,0,0-2.85-.85,26.79,26.79,0,0,0-4.75-.34h-0.34a27.92,27.92,0,0,0-4.79.34,8.69,8.69,0,0,0-2.67.83l0.1-.29a9,9,0,0,1,2.53-.78,28.5,28.5,0,0,1,5-.35h0.1a28.42,28.42,0,0,1,4.83.35,8.82,8.82,0,0,1,2.71.8l0.14,0.24a0,0,0,0,1,0,0h0Zm-7.67-1.38h-0.1a28.59,28.59,0,0,0-5,.35,9.1,9.1,0,0,0-2.5.76l-0.12.25a7,7,0,0,1,2.65-.87,27.86,27.86,0,0,1,4.8-.34h0.34a27,27,0,0,1,4.76.34,10.86,10.86,0,0,1,2.79.8l-0.09-.16a9.16,9.16,0,0,0-2.68-.78,28.53,28.53,0,0,0-4.83-.35h0Zm7.32,0.73h0a6.62,6.62,0,0,0-2.73-.93,29.44,29.44,0,0,0-4.68-.33,28.46,28.46,0,0,0-4.78.35,8,8,0,0,0-2.37.73l0.14-.3a8.34,8.34,0,0,1,2.19-.67,28.63,28.63,0,0,1,4.82-.35h0.14a27.55,27.55,0,0,1,4.63.33,7.66,7.66,0,0,1,2.47.81l0.21,0.32a0,0,0,0,1,0,0h0Zm-7.43-1.32a29.77,29.77,0,0,1,4.68.33,8,8,0,0,1,2.63.83l-0.11-.17a7.73,7.73,0,0,0-2.45-.8,27.42,27.42,0,0,0-4.62-.33h-0.14a28.7,28.7,0,0,0-4.81.35,8.46,8.46,0,0,0-2.16.65l-0.17.26a6.49,6.49,0,0,1,2.35-.77,28.39,28.39,0,0,1,4.79-.35h0Z" transform="translate(-880.77 -894.4)"/>
      <path class="e" d="M905.6,915.13a22.05,22.05,0,0,0-4.23-.32c-5.27.06-7,1.08-7.18,1.39l-0.39-.64c1.34-1,4.21-1.52,7.61-1.46a26.81,26.81,0,0,1,4.56.39l-0.36.64h0Z" transform="translate(-880.77 -894.4)"/>
      <path class="a" d="M893.88,915.64l0.26,0.45Z" transform="translate(-880.77 -894.4)"/>
      <path class="e" d="M901.34,914.71a25.88,25.88,0,0,1,4.3.34l-0.1.18a22.21,22.21,0,0,0-4.19-.32,20.22,20.22,0,0,0-5.63.66,3,3,0,0,0-1.53.79l-0.1-.17a2.69,2.69,0,0,1,1.58-.81,20.49,20.49,0,0,1,5.67-.67h0Zm0.07-.74a26.17,26.17,0,0,1,4.61.4l-0.1.19a24,24,0,0,0-4.5-.39,21.56,21.56,0,0,0-5.91.69c-0.61.18-1.66,0.56-1.69,0.86l-0.1-.18c0-.28.93-0.63,1.75-0.87a21.74,21.74,0,0,1,5.94-.7h0Z" transform="translate(-880.77 -894.4)"/>
      <path d="M894.19,916.38h0l-0.1-.17a2.54,2.54,0,0,1,1.6-.84,20.26,20.26,0,0,1,5.67-.67,25.78,25.78,0,0,1,4.3.34l-0.08.21a23.79,23.79,0,0,0-4-.31h-0.41a19.73,19.73,0,0,0-5.4.66,3,3,0,0,0-1.51.77l0,0h0Zm7.15-1.64a20.16,20.16,0,0,0-5.66.67,2.73,2.73,0,0,0-1.56.79l0.07,0.11a3.46,3.46,0,0,1,1.53-.76,19.81,19.81,0,0,1,5.41-.66h0.41a22,22,0,0,1,4,.32l0.08-.17a29.29,29.29,0,0,0-4.28-.3h0Zm-7.52,1h0l-0.1-.18c0-.37,1.35-0.79,1.76-0.91a21.38,21.38,0,0,1,5.95-.7,26.32,26.32,0,0,1,4.62.4l-0.09.22a25.89,25.89,0,0,0-4.52-.38,21.11,21.11,0,0,0-5.9.69,3.1,3.1,0,0,0-1.68.84l0,0h0Zm7.59-1.75a21.27,21.27,0,0,0-5.93.7,3,3,0,0,0-1.73.85l0.07,0.12a4.15,4.15,0,0,1,1.69-.83,21.16,21.16,0,0,1,5.91-.69,24.38,24.38,0,0,1,4.5.39l0.08-.17a29.83,29.83,0,0,0-4.59-.37h0Z" transform="translate(-880.77 -894.4)"/>
      <path d="M899.83,914.49a0.11,0.11,0,0,1,0-.06,0.08,0.08,0,0,1,.06,0h0l0,0a0.08,0.08,0,0,1,0,0,0.12,0.12,0,0,1,0,0l0,0h-0.08l0,0a0.08,0.08,0,0,1,0,0h0Zm0,0a0.06,0.06,0,0,0,0,0h0l0,0a0.08,0.08,0,0,0,0,0,0.08,0.08,0,0,0,0,0l0,0h0l0,0a0.09,0.09,0,0,0,0,.05h0Zm0.2,0h0v0h0a0,0,0,0,0,0,0h-0.06a0,0,0,0,1,0,0h0.08v0h0v0h0a0,0,0,0,1,0,0v0h-0.07v0h0Zm0.19,0h0l0,0h-0.07a0,0,0,0,1,0,0,0.08,0.08,0,0,1,0,0l0,0h0a0.06,0.06,0,0,1,0,0h-0.08a0,0,0,0,0,0,0h0v0h0Zm-0.06,0h0.06v0h0v0h0Zm0.09,0.07h0.06v0l0,0,0,0a0.06,0.06,0,0,1,0,0v0l0,0h0.08v0.1a0.1,0.1,0,0,1,0,0l0,0h-0.06a0,0,0,0,1,0,0h0Zm0-.07a0,0,0,0,0,0,0h0a0.05,0.05,0,0,0,0,0,0,0,0,0,0,0,0h0v0h0Zm0.1,0.05,0-.12h0v0h0.07l0,0h0a0,0,0,0,1,0,0v0.08h0v-0.07a0,0,0,0,0,0,0h0v0.09h0v-0.07a0,0,0,0,0,0,0h0v0.08h0Zm0.26,0h0l0,0h0l0,0a0.05,0.05,0,0,1,0,0,0.07,0.07,0,0,1,0,0l0,0,0,0a0,0,0,0,1,0,0h-0.08a0.05,0.05,0,0,0,0,0h0v0h0Zm-0.06,0h0.06a0,0,0,0,0,0,0h0v0h0Zm0.09,0.06,0-.12h0v0l0,0h0v0.1h0v-0.07a0.05,0.05,0,0,0,0,0h0a0,0,0,0,0,0,0v0.06h0Zm0.16,0v0h0v-0.09h0v0h0v0h0v0h0v0.07h0Zm0,0a0.07,0.07,0,0,1,0,0H901a0.05,0.05,0,0,1,0,0v0l0,0H900.9a0.05,0.05,0,0,1,0,0h0Zm0,0a0,0,0,0,0,0,0h0a0.05,0.05,0,0,0,0,0,0.06,0.06,0,0,0,0,0h0a0.05,0.05,0,0,0,0,0h0Zm0.24,0h0l0,0h0l0,0a0,0,0,0,1,0,0,0.07,0.07,0,0,1,0,0l0,0,0,0a0.05,0.05,0,0,1,0,0h-0.08a0,0,0,0,0,0,0h0v0h0Zm-0.06,0h0.06a0,0,0,0,0,0,0h0v0h0Zm0.09,0.06,0-.16h0l0,0.16h0Zm0.07-.13v0h0v0h0Zm0,0.13,0-.12h0l0,0.12h0Zm0,0,0-.12h0v0h0.07l0,0h0a0,0,0,0,1,0,0v0.08h0v-0.07a0,0,0,0,0,0,0h0a0,0,0,0,0,0,0v0.07h0v-0.07a0,0,0,0,0,0,0h0v0.1h0Zm0.2-.13v0h0v0h0Zm0,0.13,0-.12h0l0,0.12h0Zm0,0,0-.11h0v0l0,0h0v0.09h0v-0.09h0l0,0v0.06h0Zm0.19,0h-0.07a0,0,0,0,1,0,0v0h0.08a0,0,0,0,0,0,0h0v0h0v0h0.08v0.08h0Zm0,0h-0.06v0h0v0h0Zm0.11,0.06h0l0,0h0v0a0.08,0.08,0,0,1,0,0v0l0,0h0.05v-0.06h0l0,0.16h0Zm0-.06a0.05,0.05,0,0,0,0,0h0v0a0.06,0.06,0,0,0,0,0h0a0,0,0,0,0,0,0h0Zm0.1,0a0.06,0.06,0,0,1,0,0h0l0,0a0.05,0.05,0,0,1,0,0v0l0,0h0l0,0a0.05,0.05,0,0,1,0,0h0Zm0,0a0.06,0.06,0,0,0,0,0h0a0.05,0.05,0,0,0,0,0,0.05,0.05,0,0,0,0,0h0l0,0h0Zm0.16,0.06,0-.12h0v0h0v0h0v0.08h0Zm0.15,0h0l0,0h0l0,0a0.06,0.06,0,0,1,0,0,0.09,0.09,0,0,1,0,0h0l0,0a0.07,0.07,0,0,1,0,0h-0.09a0,0,0,0,0,0,0h0v0h0Zm-0.05,0h0.06a0,0,0,0,0,0,0h0v0h0Zm0.09,0h0v0h0v0h0.08a0,0,0,0,1,0,0h0v0h0a0,0,0,0,1,0,0v0h-0.07a0,0,0,0,1,0,0h0Zm0.1,0.08,0-.16h0v0h0.06v0a0.18,0.18,0,0,1,0,0v0l0,0h-0.05v0.06h0Zm0-.1a0,0,0,0,0,0,0h0l0,0a0.05,0.05,0,0,0,0,0h0l0,0h0Zm0.17,0h0l0,0h0l0,0a0.07,0.07,0,0,1,0,0,0.09,0.09,0,0,1,0,0l0,0,0,0a0.05,0.05,0,0,1,0,0h-0.08a0,0,0,0,0,0,0h0l0,0h0Zm-0.06,0h0.06a0,0,0,0,0,0,0h0v0h0Zm0.12-.06v0h0v0h0Zm0,0.13,0-.12h0l0,0.12h0Zm0.09,0v0h0a0.06,0.06,0,0,1,0,0v-0.06h0v0h0v0h0v0h0v0h0v0.07h0Zm0.09,0h-0.07a0,0,0,0,1,0,0v0h0.08a0,0,0,0,0,0,0h0v0h0v0h0.08v0.08h0Zm0,0h0v0h0Zm0.1,0a0.07,0.07,0,0,1,0,0h0l0,0a0.06,0.06,0,0,1,0,0v0l0,0h0l0,0a0.06,0.06,0,0,1,0,0h0Zm0,0a0,0,0,0,0,0,0h0l0,0a0,0,0,0,0,0,0h0l0,0h0Zm0.14,0.11,0-.16h0.07v0a0.07,0.07,0,0,1,0,0v0l0,0h-0.05v0.05h0Zm0-.1a0,0,0,0,0,0,0h0l0,0a0.05,0.05,0,0,0,0,0h0l0,0h0Zm0.09,0.06,0-.12h0v0h0v0h0v0.08h0Zm0.08-.05a0.07,0.07,0,0,1,0,0h0l0,0a0.05,0.05,0,0,1,0,0v0l0,0h0l0,0a0.05,0.05,0,0,1,0,0h0Zm0,0a0,0,0,0,0,0,0h0a0,0,0,0,0,0,0,0,0,0,0,0,0,0h0v0h0Zm0.12-.07v0h0v0h0Zm-0.06.18v0h0v0l0-.12h0l0,0.12v0h0Zm0.16-.07h0l0,0h0l0,0a0.05,0.05,0,0,1,0,0,0.08,0.08,0,0,1,0,0h0l0,0a0.07,0.07,0,0,1,0,0h-0.08a0,0,0,0,0,0,0h0l0,0h0Zm-0.05,0h0.06a0,0,0,0,0,0,0h0v0h0Z" transform="translate(-880.77 -894.4)"/>
      <path d="M903.58,914.54h0l0,0h0l0,0a0.06,0.06,0,0,1,0,0v0l0,0h0.05a0,0,0,0,1,0,0h0a0,0,0,0,0,0,0h0a0.07,0.07,0,0,0,0,.07h0v0h0Zm0.07,0v0h0v0l0-.06h0v0h0v0h0v0h0v0h0v0.07h0Zm0,0a0.07,0.07,0,0,1,0,0h0l0,0a0.06,0.06,0,0,1,0,0v0l0,0h0l0,0a0.06,0.06,0,0,1,0,0h0Zm0,0a0,0,0,0,0,0,0h0a0.05,0.05,0,0,0,0,0,0,0,0,0,0,0,0h0l0,0h0Zm0.22,0.08h0l0,0h0v0a0.07,0.07,0,0,1,0,0v0l0,0h0.05v-0.06h0l0,0.16h0Zm0-.06a0.05,0.05,0,0,0,0,0h0l0,0a0.05,0.05,0,0,0,0,0h0l0,0h0Zm0.18,0h0l0,0h0l0,0a0.06,0.06,0,0,1,0,0,0.08,0.08,0,0,1,0,0h0l0,0a0.05,0.05,0,0,1,0,0H904a0,0,0,0,0,0,0h0l0,0h0Zm-0.05,0H904a0,0,0,0,0,0,0h0l0,0h0Zm0.27,0h0l0,0h-0.08l0,0a0.16,0.16,0,0,1,0,0l0,0,0,0h0l0,0a0,0,0,0,1,0,0h0v0H904.2l0,0v0a0.09,0.09,0,0,0,0,0v0h0.06l0,0h0Zm0,0a0.07,0.07,0,0,1,0,0h0l0,0a0.05,0.05,0,0,1,0,0l0,0,0,0h0l0,0a0.05,0.05,0,0,1,0,0h0Zm0,0a0.05,0.05,0,0,0,0,0h0l0,0a0,0,0,0,0,0,0h0l0,0h0Zm0.09,0.07,0-.16h0l0,0.16h0Zm0.12,0v0l0,0h0v0l0-.07h0l0,0.06v0h0v0l0-.06h0l0,0.11h0Zm0,0,0-.12h0v0h0.06v0l0,0h0a0,0,0,0,1,0,0l0,0.08h0l0-.07v0h0v0l0,0.07h0l0-.07a0,0,0,0,0,0,0h0v0l0,0.06h0Zm0.19,0h0l0-.16h0l0,0.05h0.06v0a0.08,0.08,0,0,1,0,0h0l0,0h0Zm0-.06a0.05,0.05,0,0,0,0,0l0,0h0l0,0a0,0,0,0,0,0,0l0,0h0l0,0h0Zm0.16,0.07h-0.07a0,0,0,0,1,0,0v0h0.08a0,0,0,0,0,0,0h-0.07v0H905v0.09h0Zm0,0h-0.06a0,0,0,0,0,0,0h0.05v0h0Zm0,0.07,0-.11h0.08v0l0,0.07h0l0-.07v0h0l0,0,0,0.06h0Zm0.12,0a0.07,0.07,0,0,1,0,0h0l0,0a0.06,0.06,0,0,1,0,0l0,0,0,0h0l0,0a0.06,0.06,0,0,1,0,0h0Zm0,0a0.05,0.05,0,0,0,0,0h0l0,0a0,0,0,0,0,0,0l0,0h0l0,0h0Z" transform="translate(-880.77 -894.4)"/>
      <path class="c" d="M905.55,915.26h0a0,0,0,0,1,0-.05l0.46-.82a0,0,0,0,1,.06,0,0,0,0,0,1,0,.05l-0.46.82,0,0h0Z" transform="translate(-880.77 -894.4)"/>
      <path class="e" d="M894.24,906.81c2.61,0,14.68,7.38,14.71,8.74l-0.75,1.15c-0.34-1.58-12.58-8.79-14.6-8.66l0.63-1.23h0Z" transform="translate(-880.77 -894.4)"/>
      <path d="M908.28,916.65l0.59-1h0a0,0,0,0,1,0,0l-0.63,1h0Z" transform="translate(-880.77 -894.4)"/>
      <path d="M893.65,908l0.55-1.12h0a0,0,0,0,1,0,0L893.65,908h0Z" transform="translate(-880.77 -894.4)"/>
      <path class="e" d="M893.53,908c0.49-.33,4,1.26,7.78,3.51s7.27,4.8,7,5.28l-0.1.17,0,0a0.22,0.22,0,0,0,0-.25c-0.16-.52-2.68-2.54-6.86-5.06s-7.47-3.9-7.81-3.48l0.11-.21h0ZM909,915.64c0.31-.61-3-3.1-7.09-5.52s-7.21-3.78-7.76-3.36L894,907a0.16,0.16,0,0,0,0,0,0.54,0.54,0,0,1,.34-0.08c1,0,3.66,1.26,7.47,3.45,1.67,1,7,4.42,7,5.4a0.18,0.18,0,0,1,0,.14l0.14-.21h0Z" transform="translate(-880.77 -894.4)"/>
      <path d="M908.12,917l0,0h0a0.22,0.22,0,0,0,0-.22c-0.16-.54-2.83-2.62-6.85-5-3.45-2.05-6.63-3.55-7.57-3.55a0.27,0.27,0,0,0-.21.06h0a0.09,0.09,0,0,1,0,0l0.05-.19a0.36,0.36,0,0,1,.22-0.05c1,0,4.29,1.56,7.59,3.55s6.82,4.46,7,5.18a0.17,0.17,0,0,1,0,.14l-0.11.17,0,0,0,0h0Zm-14.46-8.9c0.95,0,4.14,1.49,7.59,3.55,4.09,2.47,6.7,4.52,6.87,5.07a0.44,0.44,0,0,1,0,.17l0.08-.13a0.12,0.12,0,0,0,0-.1c-0.15-.7-3.7-3.17-7-5.15s-6.62-3.55-7.56-3.55a0.32,0.32,0,0,0-.19,0l-0.06.13a0.3,0.3,0,0,1,.18,0h0Zm15.25,7.74h0v0h0v0a0.14,0.14,0,0,0,0-.08c0-1-5.46-4.5-7-5.4-3.79-2.18-6.51-3.43-7.46-3.45a0.53,0.53,0,0,0-.33.08h0a0.36,0.36,0,0,1,.31-0.13c1,0,3.7,1.27,7.5,3.45,1.1,0.64,7.06,4.36,7,5.42v0l0.07-.1c0.28-.56-2.83-3-7.09-5.49-4.5-2.55-7.24-3.73-7.74-3.36l-0.1.19L894,907l0.13-.24a0.49,0.49,0,0,1,.32-0.09c1.17,0,4.71,1.87,7.48,3.44,3.7,2.19,7.45,4.88,7.1,5.55l-0.12.19h0Z" transform="translate(-880.77 -894.4)"/>
      <path class="f" d="M896.28,912.53a5.1,5.1,0,0,0,10.2,0h0v-6.8h-10.2v6.81h0Z" transform="translate(-880.77 -894.4)"/>
      <path d="M901.36,917.65a5.17,5.17,0,0,1-5.12-5.12v-6.81l10.23,0,0,6.83a5.14,5.14,0,0,1-5.14,5.12h0Zm5.08-11.93-10.17,0,0,6.79a5.07,5.07,0,0,0,10.14,0v-6.8h0Z" transform="translate(-880.77 -894.4)"/>
      <path class="c" d="M896.47,912.54h0a4.89,4.89,0,0,0,9.78,0h0v-6.6h-9.78v6.59h0Zm7.82-4.62v4.64h0a3.18,3.18,0,0,1,0,.36,2.84,2.84,0,0,1-.84,1.69,2.92,2.92,0,0,1-5-2.07v-4.64h5.83Z" transform="translate(-880.77 -894.4)"/>
      <path d="M901.36,917.44a4.93,4.93,0,0,1-4.92-4.89v-6.6l9.8,0,0,6.63a4.91,4.91,0,0,1-4.91,4.89h0Zm4.87-11.49-9.75,0,0,6.57a4.87,4.87,0,0,0,9.74,0v-6.6h0Zm-4.87,9.55a2.92,2.92,0,0,1-2.06-.87,3,3,0,0,1-.87-2.07v-4.66h5.86l0,4.22v0.45a3.29,3.29,0,0,1,0,.37,2.88,2.88,0,0,1-.84,1.71,2.92,2.92,0,0,1-2.08.86h0Zm-2.89-7.57v4.62a2.91,2.91,0,0,0,.86,2,2.86,2.86,0,0,0,4.08,0,2.84,2.84,0,0,0,.83-1.68,3.15,3.15,0,0,0,0-.36v-4.65h-5.79Z" transform="translate(-880.77 -894.4)"/>
      <path class="g" d="M900.74,911.79h0a0.72,0.72,0,0,0,.19.49,0.61,0.61,0,0,0,.91,0,0.71,0.71,0,0,0,.19-0.49v-0.92h-1.29v0.93h0Z" transform="translate(-880.77 -894.4)"/>
      <path class="f" d="M901.75,911.09a0.13,0.13,0,0,0,0,.26,0.13,0.13,0,1,0,0-.26h0Z" transform="translate(-880.77 -894.4)"/>
      <path class="f" d="M901.4,911.43a0.13,0.13,0,1,0,.13.13,0.13,0.13,0,0,0-.13-0.13h0Z" transform="translate(-880.77 -894.4)"/>
      <path class="f" d="M901.75,911.79a0.13,0.13,0,0,0-.13.13,0.13,0.13,0,1,0,.13-0.13h0Z" transform="translate(-880.77 -894.4)"/>
      <path class="f" d="M901.06,911.79a0.13,0.13,0,1,0,.13.13,0.13,0.13,0,0,0-.13-0.13h0Z" transform="translate(-880.77 -894.4)"/>
      <path class="f" d="M901.05,911.09a0.13,0.13,0,1,0,.13.13,0.13,0.13,0,0,0-.13-0.13h0Z" transform="translate(-880.77 -894.4)"/>
      <path class="g" d="M900.74,914h0a0.71,0.71,0,0,0,.19.49,0.61,0.61,0,0,0,.46.2,0.62,0.62,0,0,0,.46-0.2A0.71,0.71,0,0,0,902,914v-0.93h-1.29V914h0Z" transform="translate(-880.77 -894.4)"/>
      <path class="f" d="M901.75,913.3a0.13,0.13,0,1,0,.13.13,0.13,0.13,0,0,0-.13-0.13h0Z" transform="translate(-880.77 -894.4)"/>
      <path class="f" d="M901.39,913.65a0.13,0.13,0,1,0,.13.13,0.13,0.13,0,0,0-.13-0.13h0Z" transform="translate(-880.77 -894.4)"/>
      <path class="f" d="M901.75,914a0.13,0.13,0,1,0,.13.13,0.13,0.13,0,0,0-.13-0.13h0Z" transform="translate(-880.77 -894.4)"/>
      <path class="f" d="M901,914a0.13,0.13,0,1,0,.13.13A0.13,0.13,0,0,0,901,914h0Z" transform="translate(-880.77 -894.4)"/>
      <path class="f" d="M901,913.3a0.13,0.13,0,1,0,0,.26,0.13,0.13,0,0,0,0-.26h0Z" transform="translate(-880.77 -894.4)"/>
      <path class="g" d="M899,911.79h0a0.72,0.72,0,0,0,.19.49,0.62,0.62,0,0,0,.46.21,0.61,0.61,0,0,0,.46-0.2,0.71,0.71,0,0,0,.19-0.49v-0.93H899v0.93h0Z" transform="translate(-880.77 -894.4)"/>
      <path class="f" d="M900,911.09a0.13,0.13,0,1,0,.13.13,0.13,0.13,0,0,0-.13-0.13h0Z" transform="translate(-880.77 -894.4)"/>
      <path class="f" d="M899.61,911.44a0.13,0.13,0,1,0,.13.13,0.13,0.13,0,0,0-.13-0.13h0Z" transform="translate(-880.77 -894.4)"/>
      <path class="f" d="M900,911.79a0.13,0.13,0,1,0,.13.13,0.13,0.13,0,0,0-.13-0.13h0Z" transform="translate(-880.77 -894.4)"/>
      <path class="f" d="M899.27,911.79a0.13,0.13,0,1,0,.13.13,0.13,0.13,0,0,0-.13-0.13h0Z" transform="translate(-880.77 -894.4)"/>
      <path class="f" d="M899.27,911.09a0.13,0.13,0,1,0,.13.13,0.13,0.13,0,0,0-.13-0.13h0Z" transform="translate(-880.77 -894.4)"/>
      <path class="g" d="M902.53,911.79h0a0.71,0.71,0,0,0,.19.49,0.61,0.61,0,0,0,.91,0,0.71,0.71,0,0,0,.19-0.49v-0.93h-1.29v0.93h0Z" transform="translate(-880.77 -894.4)"/>
      <path class="f" d="M903.54,911.09a0.13,0.13,0,1,0,.13.13,0.13,0.13,0,0,0-.13-0.13h0Z" transform="translate(-880.77 -894.4)"/>
      <path class="f" d="M903.18,911.44a0.13,0.13,0,1,0,.13.13,0.13,0.13,0,0,0-.13-0.13h0Z" transform="translate(-880.77 -894.4)"/>
      <path class="f" d="M903.53,911.79a0.13,0.13,0,1,0,.13.13,0.13,0.13,0,0,0-.13-0.13h0Z" transform="translate(-880.77 -894.4)"/>
      <path class="f" d="M902.84,911.79a0.13,0.13,0,1,0,.13.13,0.13,0.13,0,0,0-.13-0.13h0Z" transform="translate(-880.77 -894.4)"/>
      <path class="f" d="M902.84,911.09a0.13,0.13,0,0,0-.13.13,0.13,0.13,0,1,0,.26,0,0.13,0.13,0,0,0-.13-0.13h0Z" transform="translate(-880.77 -894.4)"/>
      <path class="g" d="M900.74,909.55h0a0.72,0.72,0,0,0,.19.49,0.63,0.63,0,0,0,.46.2,0.61,0.61,0,0,0,.46-0.2,0.72,0.72,0,0,0,.19-0.49v-0.93h-1.29v0.93h0Z" transform="translate(-880.77 -894.4)"/>
      <path class="f" d="M901.75,908.85a0.13,0.13,0,0,0-.13.13,0.13,0.13,0,0,0,.25,0,0.13,0.13,0,0,0-.13-0.13h0Z" transform="translate(-880.77 -894.4)"/>
      <path class="f" d="M901.39,909.2a0.13,0.13,0,1,0,.13.13,0.13,0.13,0,0,0-.13-0.13h0Z" transform="translate(-880.77 -894.4)"/>
      <path class="f" d="M901.75,909.55a0.13,0.13,0,0,0-.13.13,0.13,0.13,0,1,0,.26,0,0.13,0.13,0,0,0-.13-0.13h0Z" transform="translate(-880.77 -894.4)"/>
      <path class="f" d="M901.06,909.55a0.13,0.13,0,1,0,.13.13,0.13,0.13,0,0,0-.13-0.13h0Z" transform="translate(-880.77 -894.4)"/>
      <path class="f" d="M901.05,908.85a0.13,0.13,0,1,0,.13.13,0.13,0.13,0,0,0-.13-0.13h0Z" transform="translate(-880.77 -894.4)"/>
      <path class="e" d="M897.1,907.67a0.4,0.4,0,1,1,.71,0H897.1Z" transform="translate(-880.77 -894.4)"/>
      <path class="e" d="M896.81,907.09l-0.06.54h0.36a0.48,0.48,0,0,1,.35-0.52,0.52,0.52,0,0,1,.35.52h0.36l-0.07-.55h-1.29Z" transform="translate(-880.77 -894.4)"/>
      <path d="M898.19,907.65h-0.38a0.56,0.56,0,0,0-.35-0.53,0.47,0.47,0,0,0-.33.5l-0.38,0,0-.57,1.31,0,0.09,0.59h0Zm-0.77-.56h-0.61l0,0.53,0.33,0a0.47,0.47,0,0,1,.31-0.51h0Zm0.07,0a0.55,0.55,0,0,1,.34.54l0.31,0-0.06-.53h-0.59Z" transform="translate(-880.77 -894.4)"/>
      <path class="e" d="M896.73,907.63h1.45a0.06,0.06,0,0,1,.06.07,0.06,0.06,0,0,1-.06.07h-1.45a0.06,0.06,0,0,1-.06-0.07,0.06,0.06,0,0,1,.06-0.07h0Z" transform="translate(-880.77 -894.4)"/>
      <path d="M898.18,907.79h-1.45a0.08,0.08,0,0,1-.08-0.09,0.08,0.08,0,0,1,.08-0.09h1.45a0.08,0.08,0,0,1,.08.09,0.08,0.08,0,0,1-.08.09h0Zm-1.45-.13v0.09h1.45a0,0,0,0,0,0,0l-1.49,0h0Z" transform="translate(-880.77 -894.4)"/>
      <path class="e" d="M897.26,907.63a0.24,0.24,0,1,1,.4,0h-0.4Z" transform="translate(-880.77 -894.4)"/>
      <path d="M897.67,907.65h-0.42a0.38,0.38,0,0,1,.19-0.41,0.38,0.38,0,0,1,.23.39v0h0Zm-0.23-.37a0.4,0.4,0,0,0-.16.35l0.35,0a0.35,0.35,0,0,0-.19-0.32h0Z" transform="translate(-880.77 -894.4)"/>
      <path class="e" d="M896.76,906.86h1.4a0.06,0.06,0,0,1,0,.12h-1.4a0.06,0.06,0,0,1,0-.12h0Z" transform="translate(-880.77 -894.4)"/>
      <path d="M898.15,907h-1.4a0.08,0.08,0,0,1,0-.16h1.4a0.08,0.08,0,0,1,0,.16h0Zm-1.4-.12V907h1.4a0,0,0,0,0,0,0l-1.43,0h0Z" transform="translate(-880.77 -894.4)"/>
      <path class="e" d="M896.79,907h1.33a0.06,0.06,0,0,1,0,.12h-1.33a0.06,0.06,0,0,1,0-.12h0Z" transform="translate(-880.77 -894.4)"/>
      <path d="M898.12,907.13h-1.33a0.08,0.08,0,0,1,0-.17h1.33a0.08,0.08,0,0,1,0,.17h0Zm-1.33-.12v0.08h1.33a0,0,0,0,0,0,0l-1.36,0h0Z" transform="translate(-880.77 -894.4)"/>
      <path class="e" d="M897.22,906.07h0.11v0.08h0.08v-0.08h0.11v0.08h0.08v-0.08h0.11v0.17a0,0,0,0,1,0,0h-0.38a0.05,0.05,0,0,1,0,0v-0.17h0Z" transform="translate(-880.77 -894.4)"/>
      <path d="M897.65,906.31h-0.4l0-.07v-0.17l0.13,0,0,0.1,0.05,0,0-.05,0.13,0,0,0.1,0.06,0,0-.05,0.13,0,0,0.22-0.07,0h0Zm-0.34-.24-0.08,0,0,0.15,0.41,0,0,0v-0.17l-0.09,0,0,0.06-0.1,0,0-.1-0.09,0,0,0.06-0.1,0,0-.1h0Z" transform="translate(-880.77 -894.4)"/>
      <polygon class="e" points="16.85 11.91 16.87 12.46 16.5 12.46 16.52 11.91 16.85 11.91 16.85 11.91"/>
      <path d="M897.66,906.88h-0.39V906.3l0.34,0,0,0.6h0Zm-0.07-.57-0.3,0v0.54l0.33,0,0-.53h0Z" transform="translate(-880.77 -894.4)"/>
      <path class="e" d="M897.68,906.34h0.1v0.07h0.08v-0.08H898v0.08H898v-0.08h0.11v0.17a0,0,0,0,1,0,0h-0.37a0,0,0,0,1,0,0v-0.17h0Z" transform="translate(-880.77 -894.4)"/>
      <path d="M898.09,906.58H897.7l0-.07v-0.17l0.12,0,0,0.1,0.05,0,0-.05,0.13,0,0,0.1,0.05,0,0-.05,0.13,0,0,0.22-0.07,0h0Zm-0.34-.24-0.08,0,0,0.15,0.4,0,0,0v-0.17l-0.08,0,0,0.05-0.1,0,0-.1-0.09,0,0,0.05-0.1,0,0-.1h0Z" transform="translate(-880.77 -894.4)"/>
      <polygon class="e" points="17.31 12.16 17.32 12.46 16.96 12.46 16.97 12.16 17.31 12.16"/>
      <path d="M898.11,906.88h-0.38v-0.32l0.35,0,0,0.34h0Zm-0.05-.32-0.31,0v0.28l0.31,0v-0.28h0Z" transform="translate(-880.77 -894.4)"/>
      <path class="e" d="M896.77,906.34h0.1v0.08h0.07v-0.08H897v0.08h0.08v-0.08h0.11v0.17a0,0,0,0,1,0,0h-0.37a0,0,0,0,1,0,0v-0.17h0Z" transform="translate(-880.77 -894.4)"/>
      <path d="M897.18,906.58h-0.39l0-.07v-0.17l0.13,0,0,0.1,0.05,0,0-.06,0.13,0,0,0.1,0.05,0,0-.06,0.13,0,0,0.22-0.07,0h0Zm-0.34-.24-0.08,0,0,0.15,0.4,0,0,0v-0.17l-0.08,0,0,0.06-0.1,0,0-.1-0.08,0,0,0.06-0.1,0,0-.1h0Z" transform="translate(-880.77 -894.4)"/>
      <polygon class="e" points="16.39 12.16 16.41 12.46 16.05 12.46 16.06 12.16 16.39 12.16"/>
      <path d="M897.2,906.88h-0.38v-0.32l0.36,0,0,0.34h0Zm-0.05-.32-0.31,0v0.28l0.31,0v-0.28h0Z" transform="translate(-880.77 -894.4)"/>
      <path d="M897.42,906.48a0,0,0,1,1,.07,0v0.13h-0.07v-0.13h0Z" transform="translate(-880.77 -894.4)"/>
      <path d="M897.87,906.67a0,0,0,1,1,.07,0v0.1h-0.07v-0.1h0Z" transform="translate(-880.77 -894.4)"/>
      <path d="M897,906.67a0,0,0,1,1,.07,0v0.1H897v-0.1h0Z" transform="translate(-880.77 -894.4)"/>
      <path class="e" d="M901.14,906.07h0.11v0.08h0.08v-0.08h0.11v0.08h0.08v-0.08h0.11v0.17a0,0,0,0,1,0,0h-0.38a0,0,0,0,1,0,0v-0.17h0Z" transform="translate(-880.77 -894.4)"/>
      <path d="M901.57,906.31h-0.4l-0.05-.07v-0.17l0.13,0,0,0.1,0.05,0,0-.05,0.13,0,0,0.1,0.06,0,0-.05,0.13,0,0,0.22-0.07,0h0Zm-0.34-.24-0.08,0,0,0.15,0.41,0,0,0v-0.17l-0.09,0,0,0.06-0.1,0,0-.1-0.09,0,0,0.06-0.1,0,0-.1h0Z" transform="translate(-880.77 -894.4)"/>
      <polygon class="e" points="20.77 11.91 20.8 12.46 20.43 12.46 20.45 11.91 20.77 11.91 20.77 11.91"/>
      <path d="M901.59,906.88h-0.39V906.3l0.34,0,0,0.6h0Zm-0.07-.57-0.3,0v0.53l0.33,0,0-.53h0Z" transform="translate(-880.77 -894.4)"/>
      <path class="e" d="M901.6,906.34h0.1v0.07h0.08v-0.08h0.11v0.08H902v-0.08h0.11v0.17a0,0,0,0,1,0,0h-0.37a0,0,0,0,1,0,0v-0.17h0Z" transform="translate(-880.77 -894.4)"/>
      <path d="M902,906.58h-0.39l0-.06v-0.17l0.12,0,0,0.1,0.05,0,0-.06,0.13,0,0,0.1,0.05,0,0-.06,0.13,0,0,0.22-0.07,0h0Zm-0.34-.24-0.08,0,0,0.15,0.4,0,0,0v-0.17l-0.09,0,0,0.06-0.1,0,0-.1-0.08,0,0,0.06-0.1,0,0-.1h0Z" transform="translate(-880.77 -894.4)"/>
      <polygon class="e" points="21.23 12.16 21.24 12.46 20.89 12.46 20.9 12.16 21.23 12.16"/>
      <path d="M901.63,906.88v-0.32l0.35,0,0,0.32-0.4,0h0Zm0.34-.32-0.31,0v0.26H902l0-.28h0Z" transform="translate(-880.77 -894.4)"/>
      <path class="e" d="M900.69,906.35h0.1v0.07h0.08v-0.08H901v0.08H901v-0.08h0.11v0.17a0,0,0,0,1,0,0h-0.37a0,0,0,0,1,0,0v-0.17h0Z" transform="translate(-880.77 -894.4)"/>
      <path d="M901.11,906.58h-0.39l0-.07v-0.17l0.13,0,0,0.1,0.05,0,0-.05,0.13,0,0,0.1,0.05,0,0-.05,0.13,0,0,0.21-0.07,0h0Zm-0.34-.24-0.08,0,0,0.15,0.4,0,0,0v-0.17l-0.08,0,0,0.05-0.1,0,0-.1-0.08,0,0,0.05-0.1,0,0-.1h0Z" transform="translate(-880.77 -894.4)"/>
      <polygon class="e" points="20.32 12.16 20.33 12.46 19.98 12.46 19.99 12.16 20.32 12.16"/>
      <path d="M901.12,906.88h-0.38v-0.32l0.35,0,0,0.34h0Zm-0.05-.32-0.31,0v0.28l0.31,0v-0.28h0Z" transform="translate(-880.77 -894.4)"/>
      <path class="e" d="M901,907.67a0.4,0.4,0,1,1,.71,0H901Z" transform="translate(-880.77 -894.4)"/>
      <path class="e" d="M900.73,907.09l-0.06.54H901a0.48,0.48,0,0,1,.35-0.52,0.52,0.52,0,0,1,.35.52h0.36l-0.06-.55h-1.29Z" transform="translate(-880.77 -894.4)"/>
      <path d="M902.11,907.65h-0.38a0.55,0.55,0,0,0-.36-0.53,0.47,0.47,0,0,0-.33.5l-0.38,0,0-.57,1.31,0,0.09,0.59h0Zm-0.77-.56h-0.6l0,0.53,0.33,0a0.48,0.48,0,0,1,.31-0.51h0Zm0.07,0a0.55,0.55,0,0,1,.34.54l0.31,0-0.06-.53h-0.59Z" transform="translate(-880.77 -894.4)"/>
      <path class="e" d="M900.65,907.63h1.46a0.06,0.06,0,0,1,.05.07,0.06,0.06,0,0,1-.05.07h-1.46a0.06,0.06,0,0,1-.06-0.07,0.06,0.06,0,0,1,.06-0.07h0Z" transform="translate(-880.77 -894.4)"/>
      <path d="M902.11,907.79h-1.46a0.09,0.09,0,0,1,0-.18h1.46a0.09,0.09,0,0,1,0,.18h0Zm-1.46-.13v0.09h1.46a0,0,0,0,0,0,0l-1.49,0h0Z" transform="translate(-880.77 -894.4)"/>
      <path class="e" d="M901.18,907.63a0.38,0.38,0,0,1,.19-0.37,0.38,0.38,0,0,1,.2.37h-0.4Z" transform="translate(-880.77 -894.4)"/>
      <path d="M901.6,907.65h-0.42a0.25,0.25,0,1,1,.42,0v0h0Zm-0.23-.37a0.39,0.39,0,0,0-.16.35l0.35,0a0.36,0.36,0,0,0-.19-0.33h0Z" transform="translate(-880.77 -894.4)"/>
      <path class="e" d="M900.68,906.86h1.39a0.06,0.06,0,0,1,0,.12h-1.39a0.06,0.06,0,0,1,0-.12h0Z" transform="translate(-880.77 -894.4)"/>
      <path d="M902.08,907h-1.4a0.08,0.08,0,0,1,0-.16h1.4a0.08,0.08,0,0,1,0,.16h0Zm-1.4-.12V907h1.4a0,0,0,0,0,0,0l-1.43,0h0Z" transform="translate(-880.77 -894.4)"/>
      <path class="e" d="M900.71,907H902a0.06,0.06,0,0,1,.05.06,0.05,0.05,0,0,1-.05.06h-1.33a0.05,0.05,0,0,1-.05-0.06,0.06,0.06,0,0,1,.05-0.06h0Z" transform="translate(-880.77 -894.4)"/>
      <path d="M902,907.13h-1.33a0.08,0.08,0,0,1-.07-0.08,0.08,0.08,0,0,1,.07-0.08H902a0.08,0.08,0,0,1,.07.08,0.08,0.08,0,0,1-.07.08h0Zm-1.33-.12v0.08H902a0,0,0,0,0,0,0l-1.36,0h0Z" transform="translate(-880.77 -894.4)"/>
      <path d="M901.34,906.48a0,0,0,1,1,.07,0v0.13h-0.07v-0.13h0Z" transform="translate(-880.77 -894.4)"/>
      <path d="M901.8,906.67a0,0,0,1,1,.07,0v0.1H901.8v-0.1h0Z" transform="translate(-880.77 -894.4)"/>
      <path d="M900.89,906.67a0,0,0,1,1,.07,0v0.1h-0.07v-0.1h0Z" transform="translate(-880.77 -894.4)"/>
      <path class="e" d="M905,906.08h0.11v0.07h0.08v-0.08h0.11v0.08h0.08v-0.08h0.11v0.17a0,0,0,0,1,0,0h-0.38a0,0,0,0,1,0,0v-0.17h0Z" transform="translate(-880.77 -894.4)"/>
      <path d="M905.45,906.31h-0.4l0-.06v-0.17l0.13,0,0,0.1,0.06,0,0-.05,0.13,0,0,0.1,0.05,0,0-.05,0.13,0,0,0.21-0.07,0h0Zm-0.34-.24-0.08,0,0,0.15,0.41,0,0,0v-0.17l-0.09,0,0,0.05-0.1,0,0-.1-0.09,0,0,0.05-0.1,0,0-.1h0Z" transform="translate(-880.77 -894.4)"/>
      <polygon class="e" points="24.65 11.91 24.68 12.46 24.31 12.46 24.33 11.91 24.65 11.91"/>
      <path d="M905.47,906.88h-0.39V906.3l0.34,0,0,0.6h0Zm-0.07-.58-0.3,0v0.53l0.33,0,0-.53h0Z" transform="translate(-880.77 -894.4)"/>
      <path class="e" d="M905.48,906.35h0.1v0.07h0.07v-0.08h0.11v0.08h0.08v-0.08h0.1v0.17a0,0,0,0,1,0,0h-0.37a0,0,0,0,1,0,0v-0.17h0Z" transform="translate(-880.77 -894.4)"/>
      <path d="M905.9,906.58h-0.39l0-.07v-0.17l0.13,0,0,0.1,0.05,0,0-.05,0.13,0,0,0.1,0.05,0,0-.05,0.13,0,0,0.22-0.07,0h0Zm-0.34-.24-0.08,0,0,0.15,0.4,0,0,0v-0.17l-0.08,0,0,0.06-0.1,0,0-.1-0.08,0,0,0.06-0.1,0,0-.09h0Z" transform="translate(-880.77 -894.4)"/>
      <polygon class="e" points="25.11 12.17 25.12 12.46 24.77 12.46 24.78 12.17 25.11 12.17"/>
      <path d="M905.91,906.88h-0.38v-0.32l0.35,0,0,0.34h0Zm-0.05-.32-0.31,0v0.28l0.31,0v-0.28h0Z" transform="translate(-880.77 -894.4)"/>
      <path class="e" d="M904.57,906.35h0.1v0.07h0.08v-0.07h0.11v0.07h0.08v-0.07H905v0.17a0,0,0,0,1,0,0h-0.37a0,0,0,0,1,0,0v-0.17h0Z" transform="translate(-880.77 -894.4)"/>
      <path d="M905,906.58H904.6l0-.07v-0.17l0.12,0,0,0.1,0.05,0,0-.05,0.13,0,0,0.1,0.05,0,0-.05,0.13,0,0,0.22-0.07,0h0Zm-0.34-.24-0.08,0,0,0.15,0.4,0,0,0v-0.17l-0.08,0,0,0.05-0.1,0,0-.1-0.08,0,0,0.05-0.1,0,0-.1h0Z" transform="translate(-880.77 -894.4)"/>
      <polygon class="e" points="24.2 12.17 24.21 12.47 23.86 12.47 23.87 12.17 24.2 12.17"/>
      <path d="M905,906.88h-0.38v-0.32l0.35,0,0,0.34h0Zm-0.05-.32-0.31,0v0.28l0.31,0v-0.28h0Z" transform="translate(-880.77 -894.4)"/>
      <path class="e" d="M904.91,907.67a0.4,0.4,0,1,1,.71,0h-0.71Z" transform="translate(-880.77 -894.4)"/>
      <path class="e" d="M904.62,907.09l-0.06.55h0.36a0.49,0.49,0,0,1,.35-0.53,0.53,0.53,0,0,1,.35.53H906l-0.06-.55h-1.29Z" transform="translate(-880.77 -894.4)"/>
      <path d="M906,907.66h-0.38a0.55,0.55,0,0,0-.35-0.52,0.46,0.46,0,0,0-.33.5l-0.38,0,0-.57,1.31,0,0.09,0.59h0Zm-0.77-.55h-0.61l0,0.53,0.33,0a0.47,0.47,0,0,1,.31-0.51h0Zm0.07,0a0.55,0.55,0,0,1,.34.54l0.31,0-0.06-.53h-0.59Z" transform="translate(-880.77 -894.4)"/>
      <path class="e" d="M904.53,907.64H906a0.07,0.07,0,0,1,0,.14h-1.46a0.07,0.07,0,0,1,0-.14h0Z" transform="translate(-880.77 -894.4)"/>
      <path d="M906,907.79h-1.46a0.08,0.08,0,0,1-.08-0.09,0.08,0.08,0,0,1,.08-0.09H906a0.09,0.09,0,0,1,.08.09,0.08,0.08,0,0,1-.08.09h0Zm-1.46-.13v0.09H906a0,0,0,0,0,0,0l-1.49,0h0Z" transform="translate(-880.77 -894.4)"/>
      <path class="e" d="M905.06,907.63a0.24,0.24,0,1,1,.4,0h-0.4Z" transform="translate(-880.77 -894.4)"/>
      <path d="M905.48,907.66h-0.42a0.25,0.25,0,1,1,.42,0v0h0Zm-0.23-.37a0.4,0.4,0,0,0-.17.34l0.35,0a0.35,0.35,0,0,0-.19-0.32h0Z" transform="translate(-880.77 -894.4)"/>
      <path class="e" d="M904.56,906.86H906a0.06,0.06,0,0,1,.05.06,0.06,0.06,0,0,1-.05.06h-1.39a0.06,0.06,0,0,1-.05-0.06,0.06,0.06,0,0,1,.05-0.06h0Z" transform="translate(-880.77 -894.4)"/>
      <path d="M906,907h-1.39a0.08,0.08,0,0,1-.08-0.08,0.08,0.08,0,0,1,.08-0.08H906a0.08,0.08,0,0,1,.08.08,0.08,0.08,0,0,1-.08.08h0Zm-1.39-.12V907H906a0,0,0,0,0,0,0l-1.43,0h0Z" transform="translate(-880.77 -894.4)"/>
      <path class="e" d="M904.59,907h1.34a0.06,0.06,0,0,1,.05.06,0.06,0.06,0,0,1-.05.06h-1.34a0.06,0.06,0,0,1-.05-0.06,0.06,0.06,0,0,1,.05-0.06h0Z" transform="translate(-880.77 -894.4)"/>
      <path d="M905.93,907.13h-1.34a0.08,0.08,0,0,1,0-.16h1.34a0.08,0.08,0,0,1,0,.16h0Zm-1.34-.12v0.08h1.34a0,0,0,0,0,0,0l-1.37,0h0Z" transform="translate(-880.77 -894.4)"/>
      <path d="M905.22,906.48a0,0,0,1,1,.08,0v0.13h-0.08v-0.13h0Z" transform="translate(-880.77 -894.4)"/>
      <path d="M905.68,906.67a0,0,0,1,1,.07,0v0.1h-0.07v-0.1h0Z" transform="translate(-880.77 -894.4)"/>
      <path d="M904.77,906.67a0,0,0,1,1,.07,0v0.1h-0.07v-0.1h0Z" transform="translate(-880.77 -894.4)"/>
      <path class="e" d="M897.22,910.05h0.1v0.08h0.08v-0.08h0.11v0.08h0.08v-0.08h0.11v0.17a0,0,0,0,1,0,0h-0.38a0,0,0,0,1,0,0v-0.17h0Z" transform="translate(-880.77 -894.4)"/>
      <path d="M897.65,910.29h-0.4l0-.06v-0.17l0.13,0,0,0.1,0.06,0,0-.06,0.13,0,0,0.1,0.06,0,0-.06,0.13,0,0,0.21-0.07,0h0Zm-0.34-.23-0.08,0,0,0.15,0.41,0,0,0v-0.17l-0.09,0,0,0.06-0.1,0,0-.1-0.09,0,0,0.06-0.1,0,0-.09h0Z" transform="translate(-880.77 -894.4)"/>
      <polygon class="e" points="16.85 15.89 16.87 16.44 16.5 16.44 16.53 15.88 16.85 15.89 16.85 15.89"/>
      <path d="M897.66,910.86h-0.39v-0.58l0.34,0,0,0.6h0Zm-0.07-.58-0.3,0v0.54l0.33,0,0-.53h0Z" transform="translate(-880.77 -894.4)"/>
      <path class="e" d="M897.68,910.32h0.1v0.08h0.07v-0.08H898v0.08H898v-0.08h0.11v0.17a0,0,0,0,1,0,0h-0.37a0,0,0,0,1,0,0v-0.17h0Z" transform="translate(-880.77 -894.4)"/>
      <path d="M898.1,910.56h-0.39l0-.06v-0.17l0.12,0,0,0.1,0.05,0,0-.05,0.13,0,0,0.1,0.06,0,0-.05,0.13,0,0,0.21-0.07,0h0Zm-0.34-.24-0.08,0,0,0.15,0.4,0,0,0v-0.17l-0.08,0,0,0.06-0.1,0,0-.1-0.09,0,0,0.06-0.09,0,0-.1h0Z" transform="translate(-880.77 -894.4)"/>
      <polygon class="e" points="17.31 16.14 17.32 16.44 16.96 16.44 16.98 16.14 17.31 16.14"/>
      <path d="M898.11,910.86h-0.37v-0.32l0.35,0,0,0.34h0Zm-0.05-.32-0.31,0v0.28l0.31,0v-0.28h0Z" transform="translate(-880.77 -894.4)"/>
      <path class="e" d="M896.77,910.32h0.1v0.07h0.08v-0.08h0.11v0.08h0.07v-0.08h0.11v0.17a0,0,0,0,1,0,0h-0.37a0,0,0,0,1,0,0v-0.17h0Z" transform="translate(-880.77 -894.4)"/>
      <path d="M897.19,910.56H896.8l0-.07v-0.17l0.12,0,0,0.1,0.06,0,0-.06,0.13,0,0,0.1,0.06,0,0-.06,0.13,0,0,0.21-0.07,0h0Zm-0.34-.24-0.08,0,0,0.15,0.4,0,0,0v-0.17l-0.08,0,0,0.05-0.1,0,0-.1-0.09,0,0,0.05-0.1,0,0-.1h0Z" transform="translate(-880.77 -894.4)"/>
      <polygon class="e" points="16.4 16.14 16.41 16.44 16.05 16.44 16.06 16.14 16.4 16.14"/>
      <path d="M897.2,910.86h-0.37v-0.32l0.35,0,0,0.34h0Zm-0.05-.32-0.31,0v0.28l0.31,0v-0.28h0Z" transform="translate(-880.77 -894.4)"/>
      <path class="e" d="M897.1,911.65a0.4,0.4,0,1,1,.71,0H897.1Z" transform="translate(-880.77 -894.4)"/>
      <path class="e" d="M896.81,911.07l-0.06.55h0.36a0.48,0.48,0,0,1,.35-0.53,0.53,0.53,0,0,1,.35.53h0.36l-0.06-.55h-1.29Z" transform="translate(-880.77 -894.4)"/>
      <path d="M898.19,911.63h-0.38a0.55,0.55,0,0,0-.36-0.52,0.47,0.47,0,0,0-.32.5l-0.38,0,0-.57,1.31,0,0.09,0.59h0Zm-0.77-.56h-0.61l0,0.53,0.33,0a0.47,0.47,0,0,1,.31-0.51h0Zm0.07,0a0.55,0.55,0,0,1,.35.54l0.31,0-0.06-.53h-0.59Z" transform="translate(-880.77 -894.4)"/>
      <path class="e" d="M896.73,911.61h1.45a0.07,0.07,0,0,1,0,.14h-1.45a0.07,0.07,0,0,1,0-.14h0Z" transform="translate(-880.77 -894.4)"/>
      <path d="M898.18,911.77h-1.45a0.08,0.08,0,0,1-.08-0.09,0.08,0.08,0,0,1,.08-0.09h1.45a0.09,0.09,0,0,1,.08.09,0.08,0.08,0,0,1-.08.09h0Zm-1.45-.13v0.09h1.45a0,0,0,0,0,0,0l-1.49,0h0Z" transform="translate(-880.77 -894.4)"/>
      <path class="e" d="M897.26,911.61a0.24,0.24,0,1,1,.4,0h-0.4Z" transform="translate(-880.77 -894.4)"/>
      <path d="M897.68,911.63h-0.42a0.36,0.36,0,0,1,.2-0.41,0.39,0.39,0,0,1,.22.39v0h0Zm-0.23-.37a0.4,0.4,0,0,0-.17.35l0.36,0a0.36,0.36,0,0,0-.19-0.33h0Z" transform="translate(-880.77 -894.4)"/>
      <path class="e" d="M896.76,910.84h1.39a0.06,0.06,0,0,1,0,.12h-1.39a0.06,0.06,0,0,1,0-.12h0Z" transform="translate(-880.77 -894.4)"/>
      <path d="M898.15,911h-1.39a0.08,0.08,0,0,1-.08-0.08,0.08,0.08,0,0,1,.08-0.08h1.39a0.08,0.08,0,0,1,0,.16h0Zm-1.39-.12v0.08h1.39a0,0,0,0,0,0,0l-1.43,0h0Z" transform="translate(-880.77 -894.4)"/>
      <path class="e" d="M896.79,911h1.33a0.06,0.06,0,0,1,.05.06,0.06,0.06,0,0,1-.05.06h-1.33a0.06,0.06,0,0,1-.05-0.06,0.06,0.06,0,0,1,.05-0.06h0Z" transform="translate(-880.77 -894.4)"/>
      <path d="M898.12,911.1h-1.33a0.08,0.08,0,0,1,0-.16h1.33a0.08,0.08,0,0,1,0,.16h0Zm-1.33-.12v0.08h1.33a0,0,0,0,0,0,0l-1.36,0h0Z" transform="translate(-880.77 -894.4)"/>
      <path d="M897.42,910.46a0,0,0,1,1,.07,0v0.13h-0.07v-0.13h0Z" transform="translate(-880.77 -894.4)"/>
      <path d="M897.88,910.65a0,0,0,1,1,.07,0v0.1h-0.07v-0.1h0Z" transform="translate(-880.77 -894.4)"/>
      <path d="M897,910.65a0,0,0,1,1,.07,0v0.1H897v-0.1h0Z" transform="translate(-880.77 -894.4)"/>
      <path class="e" d="M904.8,914.25l0.07,0.08-0.05.05,0.05,0.05,0.05-.05,0.08,0.08-0.05.05,0.06,0.06,0.05-.05,0.08,0.08-0.12.12a0,0,0,0,1-.06,0l-0.27-.27a0,0,0,0,1,0-.07l0.12-.12h0Z" transform="translate(-880.77 -894.4)"/>
      <path d="M905,914.74l0,0-0.28-.28v-0.08l0.12-.12,0.1,0.07-0.05.08,0.05,0,0-.05,0.11,0.08-0.05.08,0.05,0,0-.05,0.11,0.08-0.17.17h0Zm-0.2-.48-0.09.12,0.29,0.33,0,0,0.12-.12-0.08,0,0,0.05-0.08-.05,0.05-.08-0.08,0,0,0.05-0.08-.05,0.05-.08-0.07,0h0Z" transform="translate(-880.77 -894.4)"/>
      <polygon class="e" points="24.14 20.3 23.77 20.71 23.51 20.45 23.92 20.07 24.14 20.3"/>
      <path d="M904.54,915.13l-0.28-.28,0.41-.41,0.25,0.23-0.39.46h0Zm0.13-.65-0.38.38,0.24,0.21,0.36-.39-0.22-.2h0Z" transform="translate(-880.77 -894.4)"/>
      <path class="e" d="M904.93,914.77l0.07,0.07-0.05.05,0.05,0.05,0.05-.05,0.07,0.08-0.05.05,0.05,0.05,0.05-.05,0.08,0.08-0.12.12a0,0,0,0,1-.06,0l-0.26-.26a0,0,0,0,1,0-.07l0.12-.12h0Z" transform="translate(-880.77 -894.4)"/>
      <path d="M905.11,915.25l0,0-0.28-.28v-0.08l0.12-.12,0.1,0.07-0.05.08,0.05,0,0-.05,0.11,0.07-0.05.08,0.05,0,0-.05,0.1,0.07-0.17.17h0Zm-0.19-.47-0.09.12,0.28,0.33v0l0.12-.12-0.07,0,0,0.05-0.09-.05,0.05-.08-0.08,0,0,0.05-0.08-.05,0.05-.08-0.07,0h0Z" transform="translate(-880.77 -894.4)"/>
      <polygon class="e" points="24.29 20.8 24.09 21.02 23.84 20.77 24.05 20.57 24.29 20.8 24.29 20.8"/>
      <path d="M904.86,915.45l-0.27-.27,0.22-.24,0.27,0.24-0.22.27h0Zm0-.47-0.19.21,0.23,0.2,0.19-.2-0.24-.21h0Z" transform="translate(-880.77 -894.4)"/>
      <path class="e" d="M904.28,914.12l0.07,0.07-0.05.05,0.05,0.05,0.05-.05,0.08,0.07-0.05.05,0.05,0.05,0.05-.05,0.08,0.07-0.12.12a0,0,0,0,1-.07,0l-0.26-.26a0,0,0,0,1,0-.06l0.12-.12h0Z" transform="translate(-880.77 -894.4)"/>
      <path d="M904.46,914.61l0,0-0.26-.27v-0.09l0.12-.12,0.1,0.07-0.05.08,0.05,0,0-.05,0.11,0.07-0.05.09,0.05,0,0-.05,0.1,0.08-0.17.17h0Zm-0.19-.47-0.09.12,0.28,0.33v0l0.12-.12-0.07,0,0,0.05-0.08-.05,0.05-.09-0.07,0,0,0.05-0.08-.05,0.05-.08-0.07,0h0Z" transform="translate(-880.77 -894.4)"/>
      <polygon class="e" points="23.64 20.16 23.44 20.38 23.19 20.13 23.41 19.93 23.64 20.16"/>
      <path d="M904.21,914.81l-0.27-.27,0.22-.24,0.26,0.24-0.22.27h0Zm0-.47-0.19.21,0.24,0.21,0.19-.21-0.24-.21h0Z" transform="translate(-880.77 -894.4)"/>
      <path class="e" d="M903.59,915.29a0.4,0.4,0,1,1,.5.51l-0.5-.51h0Z" transform="translate(-880.77 -894.4)"/>
      <path class="e" d="M903.79,914.68l-0.43.35,0.25,0.25a0.48,0.48,0,0,1,.62-0.12,0.53,0.53,0,0,1-.12.62l0.25,0.25,0.34-.44-0.91-.91h0Z" transform="translate(-880.77 -894.4)"/>
      <path d="M904.36,916.05l-0.27-.27a0.56,0.56,0,0,0,.12-0.62h0a0.41,0.41,0,0,0-.2-0.05,0.55,0.55,0,0,0-.38.18l-0.28-.25,0.43-.38,0.94,0.91-0.35.48h0Zm-0.1-.89a0.53,0.53,0,0,1,0,.16,0.58,0.58,0,0,1-.18.46l0.23,0.21,0.33-.42-0.42-.41h0Zm-0.49-.47-0.4.35,0.25,0.22a0.54,0.54,0,0,1,.58-0.15l-0.43-.42h0Z" transform="translate(-880.77 -894.4)"/>
      <path class="e" d="M903.35,915l1,1a0.06,0.06,0,0,1,0,.09,0.07,0.07,0,0,1-.09,0l-1-1a0.06,0.06,0,0,1,0-.09,0.06,0.06,0,0,1,.09,0h0Z" transform="translate(-880.77 -894.4)"/>
      <path d="M904.32,916.17l-0.05,0-1-1a0.09,0.09,0,0,1,0-.12l0.07,0,1.08,1a0.08,0.08,0,0,1,0,.12l-0.07,0h0Zm-1.05-1.08,1.05,1.06,0,0-1-1.09-0.08.08v0h0Z" transform="translate(-880.77 -894.4)"/>
      <path class="e" d="M903.72,915.38a0.37,0.37,0,0,1,.4-0.12,0.38,0.38,0,0,1-.11.4l-0.28-.28h0Z" transform="translate(-880.77 -894.4)"/>
      <path d="M904,915.69l-0.3-.3a0.33,0.33,0,0,1,.42-0.15,0.37,0.37,0,0,1-.11.44v0h0Zm0-.43a0.4,0.4,0,0,0-.28.13l0.26,0.24a0.36,0.36,0,0,0,.1-0.36H904Z" transform="translate(-880.77 -894.4)"/>
      <path class="e" d="M903.91,914.48l1,1a0.06,0.06,0,0,1,0,.08,0.06,0.06,0,0,1-.08,0l-1-1a0.06,0.06,0,0,1,0-.08,0.06,0.06,0,0,1,.08,0h0Z" transform="translate(-880.77 -894.4)"/>
      <path d="M904.85,915.59l-0.05,0-1-1a0.08,0.08,0,0,1,0-.11h0.11l1,1a0.09,0.09,0,0,1,0,.11l-0.06,0h0Zm-1-1.09-0.05.05,1,1,0,0-1-1h0Z" transform="translate(-880.77 -894.4)"/>
      <path class="e" d="M903.85,914.59l0.94,0.95a0.06,0.06,0,0,1,0,.08,0.05,0.05,0,0,1-.08,0l-0.94-.94a0.06,0.06,0,0,1,0-.08,0.06,0.06,0,0,1,.08,0h0Z" transform="translate(-880.77 -894.4)"/>
      <path d="M904.74,915.65l0,0-0.94-.94a0.08,0.08,0,0,1,0-.11h0.11l0.94,0.95a0.08,0.08,0,0,1,0,.11l-0.06,0h0Zm-0.91-1-0.06.05,1,1,0,0-0.94-1h0Z" transform="translate(-880.77 -894.4)"/>
      <path d="M904.65,914.67a0,0,0,1,1,.05.05l-0.09.09-0.05-.05,0.09-.09h0Z" transform="translate(-880.77 -894.4)"/>
      <path d="M904.84,915.13a0,0,0,1,1,.05.05l-0.07.07-0.05-.05,0.07-.07h0Z" transform="translate(-880.77 -894.4)"/>
      <path d="M904.19,914.48a0,0,0,1,1,0,.05l-0.07.07-0.05-.05,0.07-.07h0Z" transform="translate(-880.77 -894.4)"/>
      <path class="e" d="M905,910.05h0.1v0.08h0.08v-0.08h0.11v0.08h0.08v-0.08h0.11v0.17a0,0,0,0,1,0,0h-0.38a0,0,0,0,1,0,0v-0.17h0Z" transform="translate(-880.77 -894.4)"/>
      <path d="M905.45,910.29H905l0-.07v-0.17l0.13,0,0,0.1,0.05,0,0-.05,0.13,0,0,0.1,0.06,0,0-.05,0.13,0,0,0.22-0.07,0h0Zm-0.34-.24-0.08,0,0,0.15,0.41,0,0,0v-0.17l-0.09,0,0,0.06-0.1,0,0-.1-0.09,0,0,0.06-0.1,0,0-.1h0Z" transform="translate(-880.77 -894.4)"/>
      <polygon class="e" points="24.65 15.89 24.67 16.44 24.3 16.44 24.32 15.89 24.65 15.89"/>
      <path d="M905.46,910.86h-0.39v-0.58l0.34,0,0,0.6h0Zm-0.07-.57-0.3,0v0.54l0.33,0,0-.53h0Z" transform="translate(-880.77 -894.4)"/>
      <path class="e" d="M905.48,910.32h0.1v0.07h0.07v-0.08h0.11v0.08h0.08v-0.08h0.11v0.17a0,0,0,0,1,0,0h-0.37a0,0,0,0,1,0,0v-0.17h0Z" transform="translate(-880.77 -894.4)"/>
      <path d="M905.9,910.56H905.5l0-.07v-0.17l0.13,0,0,0.1,0.05,0,0-.05,0.13,0,0,0.1,0.05,0,0-.05,0.13,0,0,0.22-0.07,0h0Zm-0.34-.24-0.08,0,0,0.15,0.4,0,0,0v-0.17l-0.08,0,0,0.05-0.1,0,0-.1-0.08,0,0,0.05-0.1,0,0-.1h0Z" transform="translate(-880.77 -894.4)"/>
      <polygon class="e" points="25.11 16.14 25.12 16.44 24.76 16.44 24.77 16.14 25.11 16.14"/>
      <path d="M905.91,910.86h-0.38v-0.32l0.36,0,0,0.34h0Zm-0.05-.32-0.31,0v0.28l0.31,0v-0.28h0Z" transform="translate(-880.77 -894.4)"/>
      <path class="e" d="M904.57,910.32h0.1v0.07h0.08v-0.08h0.11v0.08h0.08v-0.08H905v0.17a0,0,0,0,1,0,0h-0.37a0,0,0,0,1,0,0v-0.17h0Z" transform="translate(-880.77 -894.4)"/>
      <path d="M905,910.56h-0.39l0-.06v-0.17l0.12,0,0,0.1,0.05,0,0-.05,0.13,0,0,0.1,0.05,0,0-.05,0.13,0,0,0.22-0.07,0h0Zm-0.34-.24-0.08,0,0,0.15,0.4,0,0,0v-0.17l-0.08,0,0,0.05-0.1,0,0-.1-0.08,0,0,0.05-0.1,0,0-.1h0Z" transform="translate(-880.77 -894.4)"/>
      <polygon class="e" points="24.2 16.14 24.21 16.44 23.85 16.44 23.86 16.14 24.2 16.14"/>
      <path d="M904.6,910.86v-0.32l0.36,0,0,0.32-0.4,0h0Zm0.34-.32-0.31,0v0.26H905l0-.28h0Z" transform="translate(-880.77 -894.4)"/>
      <path class="e" d="M904.9,911.65a0.6,0.6,0,0,1,.35-0.59,0.59,0.59,0,0,1,.36.59H904.9Z" transform="translate(-880.77 -894.4)"/>
      <path class="e" d="M904.61,911.07l-0.06.55h0.36a0.49,0.49,0,0,1,.35-0.53,0.53,0.53,0,0,1,.35.53H906l-0.06-.55h-1.29Z" transform="translate(-880.77 -894.4)"/>
      <path d="M906,911.63h-0.38a0.55,0.55,0,0,0-.35-0.53,0.47,0.47,0,0,0-.33.5l-0.38,0,0-.57,1.31,0,0.09,0.59h0Zm-0.77-.56h-0.61l0,0.53,0.33,0a0.47,0.47,0,0,1,.31-0.51h0Zm0.07,0a0.55,0.55,0,0,1,.34.54l0.31,0-0.06-.53h-0.59Z" transform="translate(-880.77 -894.4)"/>
      <path class="e" d="M904.53,911.62H906a0.06,0.06,0,0,1,.06.07,0.06,0.06,0,0,1-.06.07h-1.45a0.06,0.06,0,0,1-.06-0.07,0.06,0.06,0,0,1,.06-0.07h0Z" transform="translate(-880.77 -894.4)"/>
      <path d="M906,911.77h-1.45a0.09,0.09,0,0,1,0-.18H906a0.08,0.08,0,0,1,.08.09,0.08,0.08,0,0,1-.08.09h0Zm-1.45-.13v0.09H906a0,0,0,0,0,0,0l-1.49,0h0Z" transform="translate(-880.77 -894.4)"/>
      <path class="e" d="M905.06,911.61a0.24,0.24,0,1,1,.4,0h-0.4Z" transform="translate(-880.77 -894.4)"/>
      <path d="M905.48,911.63h-0.42a0.25,0.25,0,1,1,.42,0v0h0Zm-0.23-.37a0.4,0.4,0,0,0-.17.35l0.35,0a0.36,0.36,0,0,0-.19-0.33h0Z" transform="translate(-880.77 -894.4)"/>
      <path class="e" d="M904.56,910.84H906a0.06,0.06,0,0,1,.05.06,0.06,0.06,0,0,1-.05.06h-1.39a0.06,0.06,0,0,1-.05-0.06,0.06,0.06,0,0,1,.05-0.06h0Z" transform="translate(-880.77 -894.4)"/>
      <path d="M906,911h-1.39a0.08,0.08,0,0,1-.08-0.08,0.08,0.08,0,0,1,.08-0.08H906a0.08,0.08,0,0,1,.08.08,0.08,0.08,0,0,1-.08.08h0Zm-1.39-.12v0.08H906a0,0,0,0,0,0,0l-1.43,0h0Z" transform="translate(-880.77 -894.4)"/>
      <path class="e" d="M904.59,911h1.34a0.06,0.06,0,0,1,0,.12h-1.34a0.06,0.06,0,0,1,0-.12h0Z" transform="translate(-880.77 -894.4)"/>
      <path d="M905.92,911.11h-1.33a0.08,0.08,0,0,1,0-.17h1.33a0.08,0.08,0,0,1,0,.17h0Zm-1.33-.12v0.08h1.33a0,0,0,0,0,0,0l-1.36,0h0Z" transform="translate(-880.77 -894.4)"/>
      <path d="M905.22,910.46a0,0,0,1,1,.07,0v0.13h-0.07v-0.13h0Z" transform="translate(-880.77 -894.4)"/>
      <path d="M905.67,910.65a0,0,0,1,1,.07,0v0.1h-0.07v-0.1h0Z" transform="translate(-880.77 -894.4)"/>
      <path d="M904.76,910.65a0,0,0,1,1,.07,0v0.1h-0.07v-0.1h0Z" transform="translate(-880.77 -894.4)"/>
      <path class="e" d="M897.6,914.58l0.08-.07,0.05,0.05,0.05-.05-0.05-.05,0.08-.08,0.05,0.05,0.05-.05-0.05-.05,0.08-.08,0.12,0.12a0,0,0,0,1,0,.06l-0.27.27a0,0,0,0,1-.07,0l-0.12-.12h0Z" transform="translate(-880.77 -894.4)"/>
      <path d="M897.76,914.73l0,0-0.12-.12,0.07-.11,0.08,0.05,0-.05-0.05,0,0.08-.11,0.08,0.05,0-.05-0.05,0,0.08-.11,0.17,0.14,0,0.08-0.32.29h0Zm-0.09-.21,0,0.07,0.14,0.12,0,0,0.27-.27-0.12-.16,0,0.08,0.05,0-0.05.09-0.08-.05,0,0.08,0.05,0-0.05.08-0.08-.05h0Z" transform="translate(-880.77 -894.4)"/>
      <polygon class="e" points="17.28 20.07 17.69 20.44 17.43 20.7 17.05 20.29 17.28 20.07"/>
      <path d="M898.2,915.13l-0.39-.43,0.23-.26,0.44,0.37-0.28.31h0Zm-0.16-.65-0.2.23,0.36,0.36,0.25-.24-0.41-.34h0Z" transform="translate(-880.77 -894.4)"/>
      <path class="e" d="M898.12,914.45l0.07-.07,0.05,0.05,0.05-.05-0.05-.05,0.08-.07,0.05,0.05,0.05-.05-0.05-.05,0.08-.07,0.12,0.12a0,0,0,0,1,0,.06l-0.26.26a0.05,0.05,0,0,1-.07,0l-0.12-.12h0Z" transform="translate(-880.77 -894.4)"/>
      <path d="M898.27,914.6l0,0-0.12-.12,0.07-.1,0.08,0.05,0-.05-0.05,0,0.07-.11,0.08,0.05,0-.05-0.06,0,0.08-.11,0.15,0.13v0.08l-0.31.28h0Zm-0.09-.21,0,0.07,0.14,0.12,0,0,0.26-.26-0.12-.16,0,0.07,0.06,0-0.05.08-0.08-.05,0,0.08,0.05,0-0.05.08-0.08-.05h0Z" transform="translate(-880.77 -894.4)"/>
      <polygon class="e" points="17.79 19.92 18.01 20.13 17.75 20.38 17.55 20.16 17.79 19.92"/>
      <path d="M898.52,914.8l-0.22-.23,0.24-.27,0.25,0.2-0.27.3h0Zm0-.47-0.21.23,0.19,0.17,0.24-.24-0.22-.17h0Z" transform="translate(-880.77 -894.4)"/>
      <path class="e" d="M897.48,915.09l0.07-.07,0.05,0.05,0.05-.05L897.6,915l0.07-.07,0.05,0.05,0.05-.05-0.06-.05,0.07-.07,0.12,0.12a0,0,0,0,1,0,.06l-0.26.26a0,0,0,0,1-.07,0l-0.12-.12h0Z" transform="translate(-880.77 -894.4)"/>
      <path d="M897.63,915.25l0,0-0.12-.12,0.07-.1,0.08,0.05,0-.05-0.05,0,0.08-.11,0.08,0.05,0-.05-0.06,0,0.08-.11,0.15,0.13V915l-0.31.28h0Zm-0.1-.21,0,0.07,0.14,0.12,0,0,0.26-.26-0.12-.16,0,0.08,0.05,0-0.05.08-0.08-.05,0,0.07,0.05,0-0.05.08-0.08-.05h0Z" transform="translate(-880.77 -894.4)"/>
      <polygon class="e" points="17.14 20.57 17.36 20.77 17.11 21.02 16.91 20.8 17.14 20.57"/>
      <path d="M897.88,915.45l-0.22-.23,0.24-.27,0.25,0.2-0.27.3h0Zm0-.47-0.21.23,0.19,0.17,0.24-.23L897.9,915h0Z" transform="translate(-880.77 -894.4)"/>
      <path class="e" d="M898.65,915.79a0.6,0.6,0,0,1-.17-0.66,0.59,0.59,0,0,1,.67.16l-0.51.5h0Z" transform="translate(-880.77 -894.4)"/>
      <path class="e" d="M898,915.59l0.34,0.43,0.25-.25a0.48,0.48,0,0,1-.12-0.62,0.53,0.53,0,0,1,.62.12l0.25-.25-0.43-.34-0.91.91h0Z" transform="translate(-880.77 -894.4)"/>
      <path d="M898.38,916L898,915.6l0.91-.94,0.46,0.34-0.25.28a0.68,0.68,0,0,0-.41-0.17,0.45,0.45,0,0,0-.21,0h0a0.47,0.47,0,0,0,.13.58l-0.27.3h0Zm0.09-.88-0.42.43,0.33,0.38,0.24-.24a0.49,0.49,0,0,1-.19-0.44,0.46,0.46,0,0,1,0-.14h0Zm0.26-.1a0.59,0.59,0,0,1,.41.18l0.22-.25-0.43-.31-0.41.42a0.56,0.56,0,0,1,.21,0h0Z" transform="translate(-880.77 -894.4)"/>
      <path class="e" d="M898.36,916l1-1a0.07,0.07,0,0,1,.1.1l-1,1a0.06,0.06,0,0,1-.09,0,0.06,0.06,0,0,1,0-.09h0Z" transform="translate(-880.77 -894.4)"/>
      <path d="M898.42,916.16l-0.07,0a0.09,0.09,0,0,1,0-.12l1-1a0.11,0.11,0,0,1,.12,0,0.09,0.09,0,0,1,0,.12l-1.08,1h0Zm1-1.15-1,1v0.07l0.05,0,0,0,1-1V915h0Z" transform="translate(-880.77 -894.4)"/>
      <path class="e" d="M898.73,915.65a0.37,0.37,0,0,1-.12-0.39,0.38,0.38,0,0,1,.4.12l-0.28.28h0Z" transform="translate(-880.77 -894.4)"/>
      <path d="M898.73,915.69l0,0a0.39,0.39,0,0,1-.12-0.42,0.34,0.34,0,0,1,.44.11l-0.3.33h0Zm-0.11-.41a0.39,0.39,0,0,0,.11.35l0.27-.27a0.44,0.44,0,0,0-.38-0.08h0Z" transform="translate(-880.77 -894.4)"/>
      <path class="e" d="M897.84,915.46l1-1a0.06,0.06,0,0,1,.08,0,0.06,0.06,0,0,1,0,.08l-1,1a0.06,0.06,0,0,1-.08,0,0.06,0.06,0,0,1,0-.08h0Z" transform="translate(-880.77 -894.4)"/>
      <path d="M897.89,915.58l-0.06,0v-0.1l1-1h0.11a0.08,0.08,0,0,1,0,.11l-1,1h0Zm0,0v0l0,0,1-1v-0.07h0l-1,1v0.06h0Z" transform="translate(-880.77 -894.4)"/>
      <path class="e" d="M897.94,915.53l0.94-.94a0.06,0.06,0,0,1,.08,0,0.06,0.06,0,0,1,0,.08l-0.94.94a0.06,0.06,0,0,1-.08,0,0.06,0.06,0,0,1,0-.08h0Z" transform="translate(-880.77 -894.4)"/>
      <path d="M898,915.65l-0.06,0a0.08,0.08,0,0,1,0-.11l0.94-.94H899a0.08,0.08,0,0,1,0,.11l-1,1h0Zm0,0v0l0,0,0.94-.94v-0.06h0l-1,1v0.06h0Z" transform="translate(-880.77 -894.4)"/>
      <path d="M898,914.71a0,0,0,1,1,.05-0.05l0.09,0.09-0.05.05-0.09-.09h0Z" transform="translate(-880.77 -894.4)"/>
      <path d="M898.49,914.53a0,0,0,1,1,0-.05l0.07,0.07-0.05.05-0.07-.07h0Z" transform="translate(-880.77 -894.4)"/>
      <path d="M897.85,915.17a0,0,0,1,1,0-.05L898,915.2l0,0.05-0.07-.07h0Z" transform="translate(-880.77 -894.4)"/>
    </g>
  </g>
</svg>
