<svg xmlns="http://www.w3.org/2000/svg" xmlns:xlink="http://www.w3.org/1999/xlink" viewBox="0 0 58.92 34.37">
  <defs>
    <style>
      .a {
        fill: none;
      }

      .b {
        clip-path: url(#a);
      }

      .c {
        fill: #681840;
      }

      .d {
        fill: #fff;
      }
    </style>
    <clipPath id="a" transform="translate(-1022.15 -894.4)">
      <rect class="a" x="1022.15" y="894.4" width="58.92" height="34.37"/>
    </clipPath>
  </defs>
  <title>Qatar</title>
  <g class="b">
    <polygon class="c" points="17.57 0 23.83 1.91 17.57 3.82 23.83 5.73 17.57 7.64 23.83 9.55 17.57 11.46 23.83 13.37 17.57 15.28 23.83 17.18 17.57 19.1 23.83 21.01 17.57 22.91 23.83 24.82 17.57 26.73 23.83 28.64 17.57 30.55 23.83 32.46 17.57 34.37 58.92 34.37 58.92 0 17.57 0"/>
    <polygon class="d" points="0 0 0 34.37 17.57 34.37 23.83 32.46 17.57 30.55 23.83 28.64 17.57 26.73 23.83 24.82 17.57 22.91 23.83 21.01 17.57 19.1 23.83 17.18 17.57 15.28 23.83 13.37 17.57 11.46 23.83 9.55 17.57 7.64 23.83 5.73 17.57 3.82 23.83 1.91 17.57 0 0 0"/>
  </g>
</svg>
