<svg xmlns="http://www.w3.org/2000/svg" xmlns:xlink="http://www.w3.org/1999/xlink" viewBox="0 0 58.92 34.37">
  <defs>
    <style>
      .a {
        fill: none;
      }

      .b {
        clip-path: url(#a);
      }

      .c {
        fill: #3d9635;
      }

      .d {
        fill: #fff;
      }
    </style>
    <clipPath id="a" transform="translate(-33.62 -1009.91)">
      <rect class="a" x="33.62" y="1009.91" width="58.92" height="34.37"/>
    </clipPath>
  </defs>
  <title>Saudi_Arabia</title>
  <g class="b">
    <rect class="c" width="58.92" height="34.37"/>
    <g class="b">
      <path class="d" d="M50.29,1019.65c-0.06.8-.13,2.22,0.55,2.36s0.37-1.4.67-1.66c0.06-.13.16-0.13,0.17,0v1.25a0.6,0.6,0,0,0,.47.61,0.35,0.35,0,0,1,.45.2c0,0.72.07,1.44,0.1,2.17,0,0,.5.14,0.53-1.22a12.81,12.81,0,0,1-.05-1.62c0-.15.2-0.16,0.33-0.09a0.69,0.69,0,0,0,.65.27,0.91,0.91,0,0,0,.82-0.78,3.46,3.46,0,0,0-.23-1.12c0-.07-0.1-0.24-0.08-0.31,0.09,0.14.23,0.13,0.26,0a1.12,1.12,0,0,0-.44-0.68,0.32,0.32,0,0,0-.54.21,1.81,1.81,0,0,0,.42,1.21,1.17,1.17,0,0,1,.11.6,0.32,0.32,0,0,1-.42-0.08,2.06,2.06,0,0,1-.41-0.37,1.45,1.45,0,0,0,0-1,1.31,1.31,0,0,0-.27-0.53,0.18,0.18,0,0,0-.3,0,1.82,1.82,0,0,0,0,1.28,1.13,1.13,0,0,1,.17.45c-0.06.16-.17,0.12-0.25-0.06a4.44,4.44,0,0,1-.14-1.17,2.35,2.35,0,0,0-.28-1.14,0.21,0.21,0,0,0-.37.07,5.64,5.64,0,0,0,0,.89,9.73,9.73,0,0,1,.25,1.44c0,0.68-.39.29-0.37,0a3.07,3.07,0,0,0,0-1.3,0.24,0.24,0,0,0-.31-0.19,1.14,1.14,0,0,0-.55,1,5.22,5.22,0,0,0-.11.58c0,0.31-.25.53-0.39,0-0.12-.42-0.2-1.45-0.41-1.21" transform="translate(-33.62 -1009.91)"/>
      <path class="d" d="M52.54,1022.95l-2.15,1a2.19,2.19,0,0,1,1.7-1.38c0.44,0,.33.17,0.45,0.35" transform="translate(-33.62 -1009.91)"/>
      <path class="d" d="M55.28,1018.4l-0.14,0a0.41,0.41,0,0,0-.29.5c0.21,1.26.34,2.22,0.55,3.48a0.27,0.27,0,0,1-.25.32,1.18,1.18,0,0,0-.8-0.54,0.9,0.9,0,0,0-.77.72,1.75,1.75,0,0,0,0,.82,0.67,0.67,0,0,0,.77.19,1.45,1.45,0,0,1,.44-0.24h0a1.38,1.38,0,0,1-1,1.24c-0.59.26-1.05,0.33-1.3-.15-0.16-.3,0-1.44-0.37-1.18-1.13,2.92,2.65,3.33,3.07.12a0.19,0.19,0,0,1,.17-0.16,0.13,0.13,0,0,1,.06.11c-0.09,2.9-2.93,3.1-3.41,2.19a2.79,2.79,0,0,1-.17-1,0.5,0.5,0,0,0-.12-0.31c-0.11-.09-0.27.14-0.3,0.53a3.49,3.49,0,0,0,0,.71c0.15,2.29,3.81,1.31,4.4-.59a6.34,6.34,0,0,0,.09-1.81h0a0.69,0.69,0,0,0,1-.08,0.16,0.16,0,0,1,.25,0,0.59,0.59,0,0,0,.88-0.25,8.06,8.06,0,0,0,.12-1.09,1.07,1.07,0,0,0-.39.16,0.11,0.11,0,0,0,0,.05l0,0.31v0l0,0a0.12,0.12,0,0,1-.18-0.08c-0.09-.4-0.45-0.45-0.67.17-0.15.12-.42,0.14-0.44,0,0-.42-0.13-0.47-0.47-0.28-0.11-.82-0.21-1.61-0.32-2.43a0.37,0.37,0,0,0,.39-0.06,4.63,4.63,0,0,0-.59-1.39h0l0,0H55.28m-1,4.51a0.18,0.18,0,0,1,.2.13,0.22,0.22,0,0,1,0,.22h0a0.31,0.31,0,0,1-.2,0,0.19,0.19,0,0,1-.18-0.09,0.29,0.29,0,0,1,.08-0.21h0v0a0.23,0.23,0,0,1,.12-0.05" transform="translate(-33.62 -1009.91)"/>
      <path class="d" d="M57.83,1018.33a0.6,0.6,0,0,0-.26.07,0.49,0.49,0,0,0-.08.65c0.14,0.07.29,0.21,0.19,0.29-0.41.43-1.46,1.16-1.52,1.29h0a3,3,0,0,0,.79,0h0a11.23,11.23,0,0,0,1.31-1.32l-0.16-.13a0.09,0.09,0,0,1,0-.15,0.43,0.43,0,0,0,0-.65,0.69,0.69,0,0,0-.32-0.06m-0.05.38a0.22,0.22,0,0,1,.19.14,0.13,0.13,0,0,1,0,.2,0.2,0.2,0,0,1-.2-0.14c0-.09,0-0.18,0-0.2h0" transform="translate(-33.62 -1009.91)"/>
      <path class="d" d="M50.46,1025a2.14,2.14,0,0,0-.22,1.89,0.47,0.47,0,0,0,.46.15,0.84,0.84,0,0,0,.3-0.81c-0.08-.13-0.15-0.15-0.24,0-0.18.36-.25,0.11-0.27-0.09a4.68,4.68,0,0,1,0-1c0-.29,0-0.2-0.09-0.08" transform="translate(-33.62 -1009.91)"/>
      <path class="d" d="M67.72,1024c-0.39-.84-0.93-1.67-1.1-2s-1.47-2.2-1.66-2.42c-0.42-.5.69,0.21-0.14-0.79l-0.59-.51c-0.13-.09-0.45-0.26-0.51,0a1.63,1.63,0,0,0,0,.59,2.09,2.09,0,0,0,.33.51,37.62,37.62,0,0,1,3.61,5.81,1.82,1.82,0,0,0,0-1.22" transform="translate(-33.62 -1009.91)"/>
      <path class="d" d="M66,1026.79a0.52,0.52,0,0,0,.54.45A2,2,0,0,0,68.1,1026a2.21,2.21,0,0,0,.35-1,20.92,20.92,0,0,0-.39-4.86,0.81,0.81,0,0,1,0-.34,0.47,0.47,0,0,0,.23-0.11,2.85,2.85,0,0,0-.47-1.26c-0.07-.14-0.1-0.24-0.22,0a1.82,1.82,0,0,0-.2.91c0.28,1.91.36,3.58,0.54,5.5a0.76,0.76,0,0,1-.14.56,5.4,5.4,0,0,1-1.83,1.33" transform="translate(-33.62 -1009.91)"/>
      <path class="d" d="M73.83,1026.78c-0.42.24-.42,0.52-0.08,0.53a2.07,2.07,0,0,0,1.73-.83,2.76,2.76,0,0,0,.28-1.07,25,25,0,0,0-.32-5.24,2.58,2.58,0,0,1-.06-0.49c0-.09.23,0,0.29-0.1a4,4,0,0,0-.69-1.18c-0.07-.14-0.1-0.24-0.22,0a1.49,1.49,0,0,0-.12.91,50.49,50.49,0,0,1,.58,5.93,1.91,1.91,0,0,1-.11.49,4,4,0,0,1-.57.66c-0.19.14-.59,0.27-0.72,0.38" transform="translate(-33.62 -1009.91)"/>
      <path class="d" d="M74.14,1024.92c0-.48,0-0.9,0-1.27s-0.18-1.72-.24-2-0.11-.73-0.19-1.08a3.6,3.6,0,0,1-.07-0.61c0-.1.16,0,0.23-0.11a3.89,3.89,0,0,0-.55-1.52c-0.08-.14-0.22-0.09-0.39.14a1,1,0,0,0,0,.82,30.38,30.38,0,0,1,.66,6.5,1.25,1.25,0,0,0,.61-0.86" transform="translate(-33.62 -1009.91)"/>
      <path class="d" d="M71.07,1022.23a1.89,1.89,0,0,1-1-.8,0.55,0.55,0,0,1,0-.43,0.36,0.36,0,0,1,.36-0.06,0.48,0.48,0,0,1,.09.18c0.14,0.07.2,0,.22,0s0-.16,0-0.27a0.3,0.3,0,0,1,.54-0.16,1.16,1.16,0,0,1,.14.54c0,0.09-.14,0-0.22,0a0.19,0.19,0,0,0-.11.2c0,0.22,0,.57,0,0.84" transform="translate(-33.62 -1009.91)"/>
      <path class="d" d="M66.25,1025.46a23,23,0,0,0,0-2.4c0-.92-0.18-2.7-0.25-3-0.08-.56.23,0.06,0.19-0.27a3.6,3.6,0,0,0-.77-1.45c-0.12-.17-0.11-0.2-0.29,0a1.7,1.7,0,0,0,0,1.12,21,21,0,0,1,.49,3.27,29.4,29.4,0,0,1,0,3.46,1,1,0,0,0,.62-0.8" transform="translate(-33.62 -1009.91)"/>
      <path class="d" d="M75,1024.4c-0.46-.77-1.16-1.68-1.34-2s-1.76-2.62-2-2.82c-0.57-.6.26-0.1-0.11-0.56a4.52,4.52,0,0,0-.68-0.66c-0.14-.09-0.22-0.25-0.26,0a5.36,5.36,0,0,0,0,.75,1,1,0,0,0,.23.47,42.78,42.78,0,0,1,4.14,6,1.78,1.78,0,0,0,0-1.21" transform="translate(-33.62 -1009.91)"/>
      <path class="d" d="M69.45,1033.53h0a0.39,0.39,0,0,0-.13.71c-4.3,0-10.91-.07-12.32-0.07-0.79,0-3.3-.09-3.35-0.09a2.54,2.54,0,0,0,2.33,1l13.29,0a0.88,0.88,0,0,0,.16.92h0a0.27,0.27,0,0,0,.3-0.17,17.19,17.19,0,0,0,1.93,0h0a0.39,0.39,0,0,0,.37.25,0.59,0.59,0,0,0,.57-0.74s0-1.09-.75-1l-0.64.07c-0.55-.06-1-0.07-1.57-0.1a0.45,0.45,0,0,0,0-.47,0.2,0.2,0,0,0-.15,0h0s0-.16-0.07-0.19h0m0.29,1.55h0c0.63,0,1.22,0,1.85,0a0.23,0.23,0,0,1,0,.31h0l-0.53,0v0a0.35,0.35,0,0,0-.48,0h0v0a4.77,4.77,0,0,1-.8,0,0.23,0.23,0,0,1,0-.33" transform="translate(-33.62 -1009.91)"/>
      <path class="d" d="M58.56,1019c-0.42,1.2.24,2.51,0.7,2.38,0.33,0.13.54-.49,0.67-1.18,0.09-.19.16-0.21,0.21-0.11a1.73,1.73,0,0,0,.3,1.39,0.76,0.76,0,0,0,1,0l0.41-.41a0.25,0.25,0,0,1,.34,0,1.18,1.18,0,0,0,.37.45,0.83,0.83,0,0,0,.82-0.17c0.15-.26.19-0.34,0.25-0.44a0.18,0.18,0,0,1,.29,0,0.33,0.33,0,0,0-.05.3,0.18,0.18,0,0,0,.23,0,1.52,1.52,0,0,0,.47-0.71c0-.22-0.11-0.2-0.19-0.15l-0.21.15a0.46,0.46,0,0,1-.51-0.09,7.59,7.59,0,0,1-.23-0.79s-0.17-.37,0-0.39,0.25,0.06.28-.08a1.06,1.06,0,0,0-.36-0.73,0.39,0.39,0,0,0-.58,0,0.63,0.63,0,0,0-.15.43,0.66,0.66,0,0,0,.14.58,1.77,1.77,0,0,1,.32,1.17,0.48,0.48,0,0,1-.42.21c-0.11,0-.29-0.07-0.39-0.79a5.21,5.21,0,0,0-.21-1.66c-0.08-.21-0.14-0.42-0.35-0.05a0.86,0.86,0,0,0-.12.82,2.44,2.44,0,0,1,.13,1.27,2.68,2.68,0,0,1-.24.35,0.4,0.4,0,0,1-.52.07,0.56,0.56,0,0,1-.31-0.44,6,6,0,0,0,0-1.41,0.25,0.25,0,0,0-.42-0.09,3.2,3.2,0,0,0-.77,1.58c-0.12.38-.25,0.28-0.33,0.12s-0.23-1.79-.49-1.53" transform="translate(-33.62 -1009.91)"/>
      <path class="d" d="M60,1021.47h0s-0.06.07-.14,0.12a0.61,0.61,0,0,0-.14.52s0.23,0.66.42,1.1a3.43,3.43,0,0,1,.16,1.49,3.68,3.68,0,0,1-1.5,1.57,0.78,0.78,0,0,1-.63,0h0a0.39,0.39,0,0,1-.17-0.36h0a3.55,3.55,0,0,0,1.51-1.56,1.59,1.59,0,0,0,0-1.12,1.08,1.08,0,0,0-.26-0.52h0a0.62,0.62,0,0,0,.34,0,1.65,1.65,0,0,0-.43-0.8,0.36,0.36,0,0,0-.53,0,0.74,0.74,0,0,0-.13.79,4,4,0,0,1,.55.76h0a0.89,0.89,0,0,1,0,.5A6,6,0,0,1,57.9,1025h0s0-.07,0-0.15,0.05-.47,0-0.53h0a2,2,0,0,0-.49,1,15.51,15.51,0,0,0-2.3,1.57c-0.28.44,1.93-.5,2.19-0.62h0a1.73,1.73,0,0,0,.2.41,1.17,1.17,0,0,0,1.19.38,3.79,3.79,0,0,0,1.73-1.44,0.19,0.19,0,0,1,.27-0.1,2.7,2.7,0,0,0,2.45,1.28c0.28-.34.15-0.5,0-0.57a1.71,1.71,0,0,1-.68-0.46,0.47,0.47,0,0,1,.34-0.52,12.18,12.18,0,0,0,2.26-.43,2,2,0,0,1,.25-0.77,0.38,0.38,0,0,1,.13-0.14h0a0.05,0.05,0,0,0,0,0l-0.12-.07H62.92l-0.07,0h0l0.08,0c0.59-.08,1.63-0.25,1.7-1.25a0.82,0.82,0,1,0-1.62,0c0,0.13,0,.4-0.09.43C62,1023,61,1023.59,61,1024h0a0.24,0.24,0,0,1-.12-0.25,4.82,4.82,0,0,0-.62-2.1,0.69,0.69,0,0,0-.22-0.18h0m3.59,0.9a0.33,0.33,0,0,1,.19.05,0.25,0.25,0,0,1,.15.2h0v0a0.24,0.24,0,0,1-.26,0,0.27,0.27,0,0,1-.15-0.21h0v0h0l0.06,0m-2.28,2.07h0a7.5,7.5,0,0,0,1,.12c0.28,0,.43.24,0.16,0.34a0.55,0.55,0,0,0-.52.54,0.52,0.52,0,0,1,0,.33h0a0.5,0.5,0,0,1-.23-0.09,1.4,1.4,0,0,1-.68-1,0.25,0.25,0,0,1,.26-0.27" transform="translate(-33.62 -1009.91)"/>
      <path class="d" d="M53.39,1019c0.28,0.13.81,0.08,0.79-.38,0,0,0-.18,0-0.21s-0.21-.1-0.25,0a0.22,0.22,0,0,1,0,.14s-0.11,0-.11-0.12a0.21,0.21,0,0,0,0-.11l-0.06,0a0.06,0.06,0,0,0-.06,0,0.36,0.36,0,0,0,0,.11,0.07,0.07,0,0,1-.06.07,0.06,0.06,0,0,1-.06,0,0.08,0.08,0,0,1,0-.06,0.35,0.35,0,0,0,0-.11,0.12,0.12,0,0,0-.07,0,0.19,0.19,0,0,0-.16.24,0.42,0.42,0,0,0,.19.42" transform="translate(-33.62 -1009.91)"/>
      <path class="d" d="M61.68,1022.51c0.28,0.13,1,.06.79-0.38,0,0,0-.18,0-0.21s-0.21-.1-0.25,0a0.22,0.22,0,0,1,0,.14s-0.11,0-.11-0.12a0.22,0.22,0,0,0,0-.11l-0.06,0a0.06,0.06,0,0,0-.06,0,0.36,0.36,0,0,0,0,.1,0.06,0.06,0,0,1-.06.07,0.06,0.06,0,0,1-.06,0,0.08,0.08,0,0,1,0-.06,0.33,0.33,0,0,0,0-.11,0.1,0.1,0,0,0-.07,0,0.19,0.19,0,0,0-.16.24,0.43,0.43,0,0,0,.19.42" transform="translate(-33.62 -1009.91)"/>
      <path class="d" d="M66.51,1021.06c0.28,0.13.81,0.08,0.79-.38,0,0,0-.18,0-0.21a0.13,0.13,0,0,0-.25,0,0.21,0.21,0,0,1,0,.14s-0.11,0-.11-0.12a0.22,0.22,0,0,0,0-.11l-0.06,0a0.06,0.06,0,0,0-.06,0,0.45,0.45,0,0,0,0,.11,0.07,0.07,0,0,1-.11.05,0.08,0.08,0,0,1,0-.06,0.38,0.38,0,0,0,0-.11,0.14,0.14,0,0,0-.07,0,0.19,0.19,0,0,0-.16.24,0.42,0.42,0,0,0,.19.42" transform="translate(-33.62 -1009.91)"/>
      <path class="d" d="M69,1024.71a1.72,1.72,0,0,0-.16,1.67,1.31,1.31,0,0,0,.61.69,0.43,0.43,0,0,0,.64-0.07,5.75,5.75,0,0,0,.43-1.22,0.26,0.26,0,0,1,.45-0.11,1.11,1.11,0,0,0,.41.36,0.69,0.69,0,0,0,.91.06,1,1,0,0,0,.49-0.59,22.12,22.12,0,0,0,0-3.47c0-.08-0.28-1.42-0.28-1.44s0-.69-0.06-0.85,0-.08,0-0.08a0.37,0.37,0,0,0,.13.09c0.07,0,.14-0.11.09-0.22l-0.67-1.24c-0.05-.05-0.12-0.11-0.21,0a0.49,0.49,0,0,0-.17.37c0,0.29.07,0.6,0.09,0.89l0.27,1.51c0.08,1.08.11,2.07,0.19,3.15a2,2,0,0,1-.29,1.12,0.3,0.3,0,0,1-.34,0,4,4,0,0,1-.5-0.66,0.3,0.3,0,0,0-.48,0,6.61,6.61,0,0,0-.85,1.6,0.3,0.3,0,0,1-.48,0,2.25,2.25,0,0,1-.3-1.55" transform="translate(-33.62 -1009.91)"/>
      <path class="d" d="M66.64,1018.41a0.93,0.93,0,0,1,.37.87,0.73,0.73,0,0,1-.28.6c-0.11,0,.07-0.31,0-0.59a4.79,4.79,0,0,1-.37-0.62c-0.07-.21.15-0.3,0.3-0.26" transform="translate(-33.62 -1009.91)"/>
      <path class="d" d="M69.83,1025a7.76,7.76,0,0,0-.05-1.36c0-.36-0.41-3.3-0.49-3.57-0.1-.52.38-0.07,0.33-0.37s-0.58-.94-0.71-1.26c-0.08-.14,0-0.27-0.22,0a2.84,2.84,0,0,0-.15,1.29,28,28,0,0,1,.77,6.21,1.15,1.15,0,0,0,.52-0.9" transform="translate(-33.62 -1009.91)"/>
      <path class="d" d="M74.16,1019.15a1.31,1.31,0,0,1,.34.94,0.83,0.83,0,0,1-.26.65,2.51,2.51,0,0,1,0-.64,5.18,5.18,0,0,1-.33-0.67,0.22,0.22,0,0,1,.28-0.28" transform="translate(-33.62 -1009.91)"/>
      <path class="d" d="M57,1023.85a0.84,0.84,0,0,1,.33.69,0.57,0.57,0,0,1-.25.48,1.41,1.41,0,0,1,0-.47,2,2,0,0,0-.32-0.49c-0.06-.2.13-0.24,0.26-0.21" transform="translate(-33.62 -1009.91)"/>
      <path class="d" d="M51.09,1018.26a0.67,0.67,0,0,1,.32.72,0.59,0.59,0,0,1-.24.49,1.47,1.47,0,0,1,0-.49,3.37,3.37,0,0,1-.29-0.51c-0.06-.17.13-0.25,0.26-0.22" transform="translate(-33.62 -1009.91)"/>
      <path class="d" d="M57.53,1020.52a0.58,0.58,0,0,0-.19.77,0.38,0.38,0,0,0,.41.13,0.61,0.61,0,0,0,.39-0.46s0-.14-0.28.12a0.12,0.12,0,0,1-.17-0.09,0.61,0.61,0,0,1,0-.38c0-.12-0.05-0.18-0.19-0.09" transform="translate(-33.62 -1009.91)"/>
      <path class="d" d="M59.4,1018.07a0.91,0.91,0,0,0-.38.64c0,0.17,0,.17.07,0.28s0.16,0.11.32,0a0.34,0.34,0,0,0,.15-0.23c0-.19-0.2.09-0.23-0.12a0.55,0.55,0,0,1,.25-0.47c0-.13,0-0.22-0.18-0.12" transform="translate(-33.62 -1009.91)"/>
      <path class="d" d="M60.91,1018.34a4,4,0,0,0-.11.74c0,0.19.2,0.27,0.3,0a2.3,2.3,0,0,0,.17-0.81c0-.28-0.24-0.27-0.37,0" transform="translate(-33.62 -1009.91)"/>
      <path class="d" d="M70.44,1023.19l1.34-1c0.13,0,.1.48,0,0.47a5.18,5.18,0,0,1-1.39,1,0.41,0.41,0,0,1,0-.48" transform="translate(-33.62 -1009.91)"/>
      <path class="d" d="M71.64,1023.18a1.36,1.36,0,0,1,.3,1,0.55,0.55,0,0,1-.31.6,2.06,2.06,0,0,1,0-.58,3.16,3.16,0,0,1-.21-0.68,0.23,0.23,0,0,1,.26-0.3" transform="translate(-33.62 -1009.91)"/>
      <path class="d" d="M63.84,1026.09a1.69,1.69,0,0,1,.38-0.33,0.26,0.26,0,0,1,.25,0,3.81,3.81,0,0,0,0,.43,0.13,0.13,0,0,0,.18.12,1,1,0,0,1,.61-0.19c0.16,0,.17.28,0.06,0.28a4.56,4.56,0,0,0-.83.29,0.19,0.19,0,0,1-.24,0,0.26,0.26,0,0,1,0-.25c0-.14,0-0.21-0.16-0.2s-0.16.08-.21,0a0.11,0.11,0,0,1,0-.15" transform="translate(-33.62 -1009.91)"/>
      <path class="d" d="M73,1026.46a0.17,0.17,0,0,1,0,.26l-0.25.21c0,0.08-.07.19,0.06,0.22a1.57,1.57,0,0,0,.81-0.31,0.18,0.18,0,0,0,.05-0.2,0.42,0.42,0,0,0-.26,0s-0.17,0-.1-0.13a0.77,0.77,0,0,0,.1-0.2c0-.08,0-0.14-0.13-0.19a1.13,1.13,0,0,0-.35,0,0.15,0.15,0,0,0-.13.16c0,0.15.1,0.14,0.2,0.21" transform="translate(-33.62 -1009.91)"/>
    </g>
  </g>
</svg>
