<svg xmlns="http://www.w3.org/2000/svg" xmlns:xlink="http://www.w3.org/1999/xlink" viewBox="0 0 58.92 34.37">
  <defs>
    <style>
      .a {
        fill: none;
      }

      .b {
        clip-path: url(#a);
      }

      .c {
        fill: #da1841;
      }

      .d {
        fill: #fff;
      }
    </style>
    <clipPath id="a" transform="translate(-528.44 -1009.91)">
      <rect class="a" x="528.44" y="1009.91" width="58.92" height="34.37"/>
    </clipPath>
  </defs>
  <title>Singapore</title>
  <g class="b">
    <rect class="c" width="58.92" height="17.19"/>
    <rect class="d" y="17.19" width="58.92" height="17.19"/>
    <g class="b">
      <path class="d" d="M546.13,1018.5a6.46,6.46,0,1,1-6.46-6.46,6.46,6.46,0,0,1,6.46,6.46" transform="translate(-528.44 -1009.91)"/>
      <path class="c" d="M548.16,1018.5a6.11,6.11,0,1,1-6.11-6.11,6.11,6.11,0,0,1,6.11,6.11" transform="translate(-528.44 -1009.91)"/>
      <polygon class="d" points="12.02 8.75 11.14 8.08 10.26 8.75 10.6 7.66 9.72 6.99 10.81 7 11.14 5.91 11.48 7 12.56 6.99 11.68 7.66 12.02 8.75"/>
      <polygon class="d" points="18.91 8.75 18.03 8.08 17.15 8.75 17.49 7.66 16.61 6.99 17.7 7 18.03 5.91 18.36 7 19.45 6.99 18.57 7.66 18.91 8.75"/>
      <polygon class="d" points="15.47 6.19 14.59 5.52 13.71 6.19 14.05 5.11 13.17 4.44 14.26 4.44 14.59 3.35 14.92 4.44 16.01 4.44 15.13 5.11 15.47 6.19"/>
      <polygon class="d" points="13.31 12.84 12.43 12.17 11.55 12.84 11.89 11.76 11.01 11.09 12.1 11.09 12.43 10 12.76 11.09 13.85 11.09 12.97 11.76 13.31 12.84"/>
      <polygon class="d" points="17.62 12.84 16.74 12.17 15.87 12.84 16.2 11.76 15.32 11.09 16.41 11.09 16.74 10 17.07 11.09 18.16 11.09 17.28 11.76 17.62 12.84"/>
    </g>
  </g>
</svg>
