<svg xmlns="http://www.w3.org/2000/svg" xmlns:xlink="http://www.w3.org/1999/xlink" viewBox="0 0 58.92 34.37">
  <defs>
    <style>
      .a {
        fill: none;
      }

      .b {
        clip-path: url(#a);
      }

      .c {
        fill: #58b44d;
      }

      .d {
        fill: #fff;
      }

      .e {
        fill: #ea0042;
      }

      .f {
        fill: #cfb428;
      }
    </style>
    <clipPath id="a" transform="translate(-739.39 -1069.2)">
      <rect class="a" x="739.39" y="1069.2" width="58.92" height="34.37"/>
    </clipPath>
  </defs>
  <title>Tajikistan</title>
  <g class="b">
    <rect class="c" y="24.56" width="58.92" height="9.82"/>
    <rect class="d" y="9.81" width="58.92" height="14.74"/>
    <rect class="e" width="58.92" height="9.81"/>
    <g class="b">
      <path class="f" d="M768.81,1089.88a2,2,0,0,0,2.21.26,1.55,1.55,0,0,0,2.24.37,3,3,0,0,1-2.27-1.31,1.57,1.57,0,0,1-1.79-.18v-2.79l1.43-1.4a2,2,0,0,0-3.67,0l1.43,1.4V1089a1.57,1.57,0,0,1-1.79.18,3,3,0,0,1-2.27,1.31,1.55,1.55,0,0,0,2.24-.37,2,2,0,0,0,2.21-.26h0Zm0-4.13a2.12,2.12,0,0,0-1.08-.84,1.28,1.28,0,0,1,2.16,0,2.13,2.13,0,0,0-1.08.84" transform="translate(-739.39 -1069.2)"/>
      <path class="f" d="M768.81,1091.32a3.36,3.36,0,0,0-2.57.94l-0.37-.39a2.78,2.78,0,0,0,.89-1.06,0.69,0.69,0,0,0-.14-0.64,1.58,1.58,0,0,0,1.29.51,1.21,1.21,0,0,0,.9-0.62m0,0a1.21,1.21,0,0,0,.9.63,1.58,1.58,0,0,0,1.29-.51,0.69,0.69,0,0,0-.14.64,2.79,2.79,0,0,0,.89,1.06l-0.37.39a3.36,3.36,0,0,0-2.57-.94" transform="translate(-739.39 -1069.2)"/>
      <polygon class="f" points="35.73 17.57 35.98 18.33 36.78 18.33 36.13 18.8 36.38 19.57 35.73 19.1 35.08 19.57 35.33 18.8 34.68 18.33 35.48 18.33 35.73 17.57"/>
      <polygon class="f" points="34.89 14.44 35.14 15.2 35.94 15.2 35.29 15.67 35.54 16.44 34.89 15.96 34.24 16.44 34.49 15.67 33.84 15.2 34.64 15.2 34.89 14.44"/>
      <polygon class="f" points="32.59 12.14 32.84 12.91 33.65 12.91 33 13.38 33.24 14.14 32.59 13.67 31.95 14.14 32.19 13.38 31.54 12.91 32.35 12.91 32.59 12.14"/>
      <polygon class="f" points="29.46 11.3 29.71 12.07 30.51 12.07 29.86 12.54 30.11 13.3 29.46 12.83 28.81 13.3 29.06 12.54 28.41 12.07 29.21 12.07 29.46 11.3"/>
      <polygon class="f" points="26.33 12.14 26.58 12.91 27.38 12.91 26.73 13.38 26.98 14.14 26.33 13.67 25.68 14.14 25.93 13.38 25.28 12.91 26.08 12.91 26.33 12.14"/>
      <polygon class="f" points="24.04 14.44 24.28 15.2 25.09 15.2 24.44 15.67 24.68 16.44 24.04 15.96 23.39 16.44 23.64 15.67 22.98 15.2 23.79 15.2 24.04 14.44"/>
      <polygon class="f" points="23.2 17.57 23.45 18.33 24.25 18.33 23.6 18.8 23.85 19.57 23.2 19.1 22.55 19.57 22.8 18.8 22.14 18.33 22.95 18.33 23.2 17.57"/>
    </g>
  </g>
</svg>
