<svg xmlns="http://www.w3.org/2000/svg" xmlns:xlink="http://www.w3.org/1999/xlink" viewBox="0 0 58.92 34.37">
  <defs>
    <style>
      .a {
        fill: none;
      }

      .b {
        clip-path: url(#a);
      }

      .c {
        fill: #f8e82a;
      }

      .d {
        fill: #cc3220;
      }

      .e {
        fill: #fffcff;
      }

      .f {
        fill: #cc2920;
      }

      .g {
        fill: #9ba49a;
      }

      .h {
        fill: #fff;
      }
    </style>
    <clipPath id="a" transform="translate(-951.46 -1128.18)">
      <rect class="a" x="951.46" y="1128.18" width="58.92" height="34.37"/>
    </clipPath>
  </defs>
  <title>Uganda</title>
  <g class="b">
    <rect width="58.92" height="34.37"/>
    <rect class="c" y="5.73" width="58.92" height="5.73"/>
    <rect class="d" y="11.46" width="58.92" height="5.73"/>
    <rect class="c" y="22.92" width="58.92" height="5.73"/>
    <rect class="d" y="28.64" width="58.92" height="5.73"/>
    <g class="b">
      <path class="e" d="M986.27,1145.37a5.35,5.35,0,1,1-5.35-5.35,5.35,5.35,0,0,1,5.35,5.35h0Z" transform="translate(-951.46 -1128.18)"/>
      <path d="M980.92,1150.74a5.38,5.38,0,1,1,5.38-5.38,5.39,5.39,0,0,1-5.38,5.38h0Zm0-10.7a5.32,5.32,0,1,0,5.32,5.32,5.33,5.33,0,0,0-5.32-5.32h0Z" transform="translate(-951.46 -1128.18)"/>
      <path class="f" d="M980,1141.26l-0.35-.64a1,1,0,0,1,.72-0.24s0,0.7,0,.7Z" transform="translate(-951.46 -1128.18)"/>
      <path d="M980,1141.3l-0.36-.67a0.93,0.93,0,0,1,.74-0.28,5.94,5.94,0,0,1,0,.73l-0.37.21h0Zm0.36-.92a1.1,1.1,0,0,0-.67.26l0.34,0.58,0.31-.16s0-.65,0-0.68h0Z" transform="translate(-951.46 -1128.18)"/>
      <path class="c" d="M980.31,1141.09l0.05-.71a1.47,1.47,0,0,1,1.11.43l-0.38.55Z" transform="translate(-951.46 -1128.18)"/>
      <path d="M981.1,1141.39l-0.8-.27,0-.76h0.07a1.46,1.46,0,0,1,1.08.44,1.74,1.74,0,0,1-.38.58v0h0Zm-0.69-1-0.07.68,0.73,0.23,0.37-.53a1.48,1.48,0,0,0-1-.38h0Z" transform="translate(-951.46 -1128.18)"/>
      <path class="f" d="M981.1,1141.35l0.35-.55a1.16,1.16,0,0,1,.37.7l-0.56.13-0.17-.28h0Z" transform="translate(-951.46 -1128.18)"/>
      <path d="M981.26,1141.66l0,0-0.16-.27,0.35-.58a1,1,0,0,1,.42.71,2.7,2.7,0,0,1-.59.17h0Zm-0.14-.29a1.58,1.58,0,0,1,.15.24l0.53-.13a1.24,1.24,0,0,0-.38-0.65l-0.3.54h0Z" transform="translate(-951.46 -1128.18)"/>
      <path d="M980.15,1150.41a2.26,2.26,0,0,1,2-.6,1,1,0,0,0-.82-0.28,5.25,5.25,0,0,1,0-1.55,2.78,2.78,0,0,1,.8,0,0.26,0.26,0,0,0,.12-0.38,1.17,1.17,0,0,1-.32-0.82,2.3,2.3,0,0,1,.9.06l-2.15-2.75a2.12,2.12,0,0,1,.22-1.54,1,1,0,0,0,.46-0.91,0.79,0.79,0,0,0-1.3-.38,0.51,0.51,0,0,0-.1.62,2.29,2.29,0,0,0-.8.34,1.9,1.9,0,0,0,.87,0l-0.09.62s-1.74,1.59-.41,3l0-.06a2.32,2.32,0,0,0,1,.71,1.24,1.24,0,0,0,.42.4,3.05,3.05,0,0,1,0,.9,7,7,0,0,0-1.47,0c-0.16.05-.77,0-0.62,1l0.22-.51a0.76,0.76,0,0,0,.13.49,1.12,1.12,0,0,1,.14-0.63,1.08,1.08,0,0,0,.12.47c0.09,0.06.09-.67,0.6-0.61a5.77,5.77,0,0,0,.87,0,12.7,12.7,0,0,1,.12,1.57,1.65,1.65,0,0,0-1.29.26,2.73,2.73,0,0,1,.75,0,0.69,0.69,0,0,0-.29.58h0Z" transform="translate(-951.46 -1128.18)"/>
      <path d="M980.15,1150.46l0,0a0.63,0.63,0,0,1,.27-0.59h-0.71c0-.3,1-0.39,1.3-0.31,0-.08-0.08-0.94-0.15-1.52a3.44,3.44,0,0,1-.85,0h0a0.53,0.53,0,0,0-.48.46c0,0.1-.05.15-0.1,0.15a0.74,0.74,0,0,1-.16-0.45,1.66,1.66,0,0,0-.09.57,0.58,0.58,0,0,1-.18-0.49l-0.17.52c-0.19-.9.28-1,0.51-1l0.07,0a2.53,2.53,0,0,1,.54,0,7.27,7.27,0,0,1,1,0,4.51,4.51,0,0,0,0-.85h0a3,3,0,0,1-.41-0.4,2.26,2.26,0,0,1-1-.7l0,0a2.3,2.3,0,0,0,.95.7,4,4,0,0,0,.42.41,2.46,2.46,0,0,1,0,.93,12.24,12.24,0,0,0-1.49,0l-0.08,0c-0.22,0-.64.12-0.52,1l0.17-.51a2.13,2.13,0,0,0,.17.48,0.9,0.9,0,0,1,.1-0.63,2.08,2.08,0,0,0,.16.47l0-.12a0.58,0.58,0,0,1,.49-0.5,5.8,5.8,0,0,0,.93,0,8.68,8.68,0,0,1,.14,1.61h-0.32a1.36,1.36,0,0,0-1,.26,0.51,0.51,0,0,1,.25,0,2.18,2.18,0,0,1,.48,0,1,1,0,0,0-.28.56,2.34,2.34,0,0,1,1.95-.57,1.17,1.17,0,0,0-.77-0.22l-0.09,0a4.17,4.17,0,0,1,0-1.58,3.48,3.48,0,0,1,.81,0,0.18,0.18,0,0,0,.1-0.1,0.22,0.22,0,0,0,0-.23,1.72,1.72,0,0,1-.36-0.77,0.12,0.12,0,0,1,0-.08,2.48,2.48,0,0,1,.93.05l-2.18-2.71a2.11,2.11,0,0,1,.22-1.57,1,1,0,0,0,.46-0.87,0.79,0.79,0,0,0-1.26-.38,0.47,0.47,0,0,0-.09.58,2.67,2.67,0,0,0-.79.36h0a0.28,0.28,0,0,0,.14,0,5.57,5.57,0,0,0,.69-0.08l-0.05.65a3,3,0,0,0-.91,1.76,1.58,1.58,0,0,0,.49,1.18h0s0,0,0,.05a1.58,1.58,0,0,1-.54-1.22,3,3,0,0,1,.92-1.78l0.08-.59a2,2,0,0,1-.67.11,0.23,0.23,0,0,1-.19,0,1.46,1.46,0,0,1,.8-0.41,0.47,0.47,0,0,1,.09-0.62,0.84,0.84,0,0,1,1.35.4,1,1,0,0,1-.47.93,2.11,2.11,0,0,0-.21,1.51l2.14,2.74a6.5,6.5,0,0,1-.73-0.05,0.29,0.29,0,0,0-.17,0,1.42,1.42,0,0,0,.32.78,0.26,0.26,0,0,1,0,.29,0.22,0.22,0,0,1-.15.14s-0.3,0-.54,0a0.68,0.68,0,0,0-.24,0,4.71,4.71,0,0,0,.06,1.53,0.9,0.9,0,0,1,.82.27,2,2,0,0,1-.38,0,2.17,2.17,0,0,0-1.57.61l0,0h0Z" transform="translate(-951.46 -1128.18)"/>
      <path class="g" d="M980.36,1142.6s-1.27,1.4-.72,2.47a1.31,1.31,0,0,1,0-.24,0.56,0.56,0,0,0,.14.1,0.89,0.89,0,0,0-.06-0.24l0.17,0-0.1-.19,0.24,0a0.71,0.71,0,0,1-.06-0.23l0.2,0a2.07,2.07,0,0,1,.14-1.76h0Z" transform="translate(-951.46 -1128.18)"/>
      <path class="g" d="M979.65,1145.15l0-.07c-0.55-1.07.71-2.49,0.72-2.5a0.81,0.81,0,0,1-.07.38,1.54,1.54,0,0,0,0,1.39,0.43,0.43,0,0,1-.22,0,0.63,0.63,0,0,1,.08.19h-0.27l0.13,0.14H979.8a1.07,1.07,0,0,1,0,.21,0.28,0.28,0,0,1-.2-0.08,0.35,0.35,0,0,1,0,.22l0,0.08h0Zm0.67-2.54c-0.09.17-1.1,1.39-.7,2.36v-0.08l0-.08,0.16,0.1a1.11,1.11,0,0,1-.09-0.21l0-.05,0.22,0.06-0.13-.15h0.27c-0.11-.18-0.1-0.21-0.09-0.22a1.41,1.41,0,0,1,.23,0,1.44,1.44,0,0,1,0-1.39c0-.11.08-0.22,0.11-0.33h0Z" transform="translate(-951.46 -1128.18)"/>
      <path class="g" d="M980.8,1141.4a0.69,0.69,0,0,1-.19.62s-0.21.09-.18,0.18,0.1,0.11.21,0.09a0.51,0.51,0,0,0,.17-0.89h0Z" transform="translate(-951.46 -1128.18)"/>
      <path class="g" d="M980.52,1142.33a0.13,0.13,0,0,1-.13-0.13,0.2,0.2,0,0,1,.16-0.19,0.66,0.66,0,0,0,.22-0.62,0.37,0.37,0,0,1,.25.45,0.6,0.6,0,0,1-.39.47l-0.11,0h0Zm0.28-.91a0.56,0.56,0,0,1-.18.62,0.22,0.22,0,0,0-.17.15c0,0.08,0,.08.07,0.08h0l0.09,0a0.54,0.54,0,0,0,.36-0.42,0.38,0.38,0,0,0-.17-0.41h0Z" transform="translate(-951.46 -1128.18)"/>
      <path class="h" d="M980.33,1141.81a0.1,0.1,0,0,1-.1.1,0.1,0.1,0,0,1-.1-0.1,0.1,0.1,0,0,1,.1-0.1,0.1,0.1,0,0,1,.1.1h0Z" transform="translate(-951.46 -1128.18)"/>
      <path class="f" d="M979.92,1142.21c-0.07.05-.42,0.42-0.07,0.55a0.36,0.36,0,0,0,.34-0.24,0.53,0.53,0,0,0-.27-0.31h0Z" transform="translate(-951.46 -1128.18)"/>
      <path d="M979.85,1142.8h0a0.24,0.24,0,0,1-.17-0.17,0.61,0.61,0,0,1,.23-0.43l0.14,0.09a0.3,0.3,0,0,1,.17.25l0,0.07a0.36,0.36,0,0,1-.32.2h0Zm0.05-.57a0.76,0.76,0,0,0-.17.38,0.17,0.17,0,0,0,.12.13,0.31,0.31,0,0,0,.28-0.16,0.17,0.17,0,0,1,0-.07,0.29,0.29,0,0,0-.16-0.18,0.58,0.58,0,0,1-.11-0.09h0Z" transform="translate(-951.46 -1128.18)"/>
      <path class="g" d="M980.69,1145.67a0.94,0.94,0,0,0,0,.6,0.54,0.54,0,0,1,.55,0,2.56,2.56,0,0,1-.56-0.57h0Z" transform="translate(-951.46 -1128.18)"/>
      <path class="g" d="M980.69,1146.3v0a1,1,0,0,1,0-.6h0a1.91,1.91,0,0,0,.05.54,0.6,0.6,0,0,1,.49,0,1.47,1.47,0,0,1-.54-0.5,6.93,6.93,0,0,0,.6.53H981a0.91,0.91,0,0,0-.33.08h0Z" transform="translate(-951.46 -1128.18)"/>
      <path class="h" d="M981.21,1147.05l0,0.68a0.89,0.89,0,0,0,.35,0,0.6,0.6,0,0,0-.37-0.68h0Z" transform="translate(-951.46 -1128.18)"/>
      <path class="h" d="M981.44,1147.78l-0.21,0,0-.71a0.73,0.73,0,0,1,.46.61,0.1,0.1,0,0,1-.06.1l-0.15,0h0Zm-0.15-.06a1,1,0,0,0,.28,0,0.69,0.69,0,0,0-.37-0.63l0.06,0.65h0Z" transform="translate(-951.46 -1128.18)"/>
      <path class="g" d="M982.94,1147.14a2.43,2.43,0,0,0-1.56-1.33,1.19,1.19,0,0,1-.88-1.54c0-.1.08-0.26,0.41-0.11s1.81,0.9,2,.94a6,6,0,0,1,0,2h0Z" transform="translate(-951.46 -1128.18)"/>
      <path d="M982.94,1147.17l0,0a2.41,2.41,0,0,0-1.54-1.31,1.16,1.16,0,0,1-.93-0.92,1,1,0,0,1,0-.66c0.05-.12.15-0.25,0.44-0.11l0.37,0.18c0.55,0.27,1.48.73,1.64,0.76a3.76,3.76,0,0,1,.07,1.74c0,0.36,0,.36-0.07.36h0Zm-2.26-3a0.16,0.16,0,0,0-.15.13,1,1,0,0,0,0,.67,1.12,1.12,0,0,0,.88.85,2.45,2.45,0,0,1,1.54,1.26,7.27,7.27,0,0,0,0-1.9c-0.17,0-.92-0.41-1.68-0.78l-0.37-.18a0.5,0.5,0,0,0-.21-0.06h0Z" transform="translate(-951.46 -1128.18)"/>
      <path class="f" d="M981.87,1145.8s1.5,0.9,1,1.66a0.73,0.73,0,0,0,.29-0.79,1.1,1.1,0,0,1-.51,1.37,0.17,0.17,0,0,0,.15.06l-0.15.15s-0.07.11,0.51-.17a0.4,0.4,0,0,0-.17.22s0,0.12.42-.21a2.21,2.21,0,0,0-.37.49c0.82-.07,2.62-2.75-0.56-3.54l0.15,0.15Z" transform="translate(-951.46 -1128.18)"/>
      <path d="M983,1148.62l0,0h0l0,0a1.91,1.91,0,0,1,.22-0.32,0.33,0.33,0,0,1-.2.1h0l-0.05,0a0.38,0.38,0,0,1,.18-0.25,1.08,1.08,0,0,1-.47.24l0-.06,0.13-.13a0.12,0.12,0,0,1-.13,0,1.08,1.08,0,0,0,.56-1.09,0.67,0.67,0,0,1-.31.51c0.13-.33.11-0.84-1-1.61-0.08-.05-0.08-0.05-0.08-0.07l0.82-.63-0.15-.11c1.72,0.37,1.9,1.3,1.86,1.82a2,2,0,0,1-1.27,1.73H983Zm0.4-.55c-0.12.2-.23,0.36-0.3,0.48a2,2,0,0,0,1.16-1.67c0.07-.86-0.57-1.5-1.79-1.81,0.19,0.12.19,0.12,0.18,0.14l-0.79.59,0,0c0.93,0.64,1.26,1.2,1,1.65a0.81,0.81,0,0,0,.24-0.79h0l0,0a1,1,0,0,1-.5,1.34h0.11l-0.1.18s0.14-.05.48-0.22a0.72,0.72,0,0,0-.13.25,0.82,0.82,0,0,0,.37-0.23h0Z" transform="translate(-951.46 -1128.18)"/>
      <path class="h" d="M981.94,1145.54a0.77,0.77,0,0,1,.3.27,1.33,1.33,0,0,0-.36,0,5.38,5.38,0,0,0-.48-0.42,2.27,2.27,0,0,1-.37-0.2c-0.16-.08-0.3-0.63.28-0.47S982,1145,982,1145l0.72,0.22,0.41,0.46a8.45,8.45,0,0,0-.83-0.37,1.37,1.37,0,0,1,.32.39,4.89,4.89,0,0,0-.68-0.16h0Z" transform="translate(-951.46 -1128.18)"/>
      <path d="M982.29,1145.85h0a1.4,1.4,0,0,0-.29,0h-0.08a5.08,5.08,0,0,0-.47-0.41h0a2.08,2.08,0,0,1-.37-0.2,0.39,0.39,0,0,1-.15-0.38c0-.08.14-0.23,0.45-0.14,0.59,0.28.69,0.31,0.69,0.31l0.72,0.22,0.43,0.47c-0.32-.1-0.79-0.32-0.85-0.32a0.88,0.88,0,0,1,.34.35l0,0.06-0.11,0a4.81,4.81,0,0,0-.61-0.15v-0.06a4.92,4.92,0,0,1,.63.15,1.84,1.84,0,0,0-.29-0.32,3.11,3.11,0,0,1,.86.32l-0.24-.19-0.21-.23L982,1145a7.68,7.68,0,0,1-.7-0.31c-0.2,0-.34,0-0.37.1a0.33,0.33,0,0,0,.12.32,2.16,2.16,0,0,0,.36.2,4.13,4.13,0,0,1,.5.43,1.07,1.07,0,0,1,.28,0,1.31,1.31,0,0,0-.23-0.18h0a0.48,0.48,0,0,1,.31.22l0,0h0Z" transform="translate(-951.46 -1128.18)"/>
      <path d="M979.07,1142.27a5.61,5.61,0,0,1,.79-0.15Z" transform="translate(-951.46 -1128.18)"/>
      <path class="h" d="M979.08,1142.3v-0.06a4.52,4.52,0,0,1,.81-0.15c-0.07,0-.5.13-0.79,0.2h0Z" transform="translate(-951.46 -1128.18)"/>
    </g>
  </g>
</svg>
