<svg xmlns="http://www.w3.org/2000/svg" xmlns:xlink="http://www.w3.org/1999/xlink" viewBox="0 0 58.92 34.37">
  <defs>
    <style>
      .a {
        fill: none;
      }

      .b {
        clip-path: url(#a);
      }

      .c {
        fill: #cb001c;
      }

      .d {
        fill: #fff;
      }

      .e {
        fill: #2a3560;
      }
    </style>
    <clipPath id="a" transform="translate(-104.31 -1187.7)">
      <rect class="a" x="104.31" y="1187.7" width="58.92" height="34.37"/>
    </clipPath>
  </defs>
  <title>United_States</title>
  <g class="b">
    <rect class="c" y="31.73" width="58.92" height="2.64"/>
    <rect class="d" y="29.08" width="58.92" height="2.64"/>
    <rect class="c" y="26.44" width="58.92" height="2.64"/>
    <rect class="d" y="23.8" width="58.92" height="2.64"/>
    <rect class="c" y="21.15" width="58.92" height="2.64"/>
    <rect class="d" y="18.51" width="58.92" height="2.64"/>
    <rect class="c" y="15.87" width="58.92" height="2.64"/>
    <rect class="d" y="13.22" width="58.92" height="2.64"/>
    <rect class="c" y="10.58" width="58.92" height="2.64"/>
    <rect class="d" y="7.93" width="58.92" height="2.64"/>
    <rect class="c" y="5.29" width="58.92" height="2.64"/>
    <rect class="d" y="2.64" width="58.92" height="2.64"/>
    <rect class="c" width="58.92" height="2.64"/>
    <rect class="e" width="26.9" height="18.51"/>
    <polygon class="d" points="2.43 2.04 2.65 2.74 3.39 2.74 2.79 3.17 3.02 3.87 2.43 3.44 1.83 3.87 2.06 3.17 1.46 2.74 2.2 2.74 2.43 2.04"/>
    <polygon class="d" points="2.43 5.13 2.65 5.83 3.39 5.83 2.79 6.26 3.02 6.96 2.43 6.53 1.83 6.96 2.06 6.26 1.46 5.83 2.2 5.83 2.43 5.13"/>
    <polygon class="d" points="2.43 8.22 2.65 8.92 3.39 8.92 2.79 9.35 3.02 10.05 2.43 9.62 1.83 10.05 2.06 9.35 1.46 8.92 2.2 8.92 2.43 8.22"/>
    <polygon class="d" points="2.43 11.31 2.65 12.01 3.39 12.01 2.79 12.44 3.02 13.14 2.43 12.71 1.83 13.14 2.06 12.44 1.46 12.01 2.2 12.01 2.43 11.31"/>
    <polygon class="d" points="2.43 14.4 2.65 15.1 3.39 15.1 2.79 15.53 3.02 16.23 2.43 15.8 1.83 16.23 2.06 15.53 1.46 15.1 2.2 15.1 2.43 14.4"/>
    <polygon class="d" points="4.58 3.67 4.8 4.37 5.54 4.37 4.95 4.8 5.17 5.5 4.58 5.07 3.98 5.5 4.21 4.8 3.62 4.37 4.35 4.37 4.58 3.67"/>
    <polygon class="d" points="4.58 6.76 4.8 7.46 5.54 7.46 4.95 7.89 5.17 8.59 4.58 8.16 3.98 8.59 4.21 7.89 3.62 7.46 4.35 7.46 4.58 6.76"/>
    <polygon class="d" points="4.58 9.85 4.8 10.54 5.54 10.54 4.95 10.98 5.17 11.68 4.58 11.25 3.98 11.68 4.21 10.98 3.62 10.54 4.35 10.54 4.58 9.85"/>
    <polygon class="d" points="4.58 12.94 4.8 13.63 5.54 13.63 4.95 14.07 5.17 14.77 4.58 14.33 3.98 14.77 4.21 14.07 3.62 13.63 4.35 13.63 4.58 12.94"/>
    <polygon class="d" points="6.76 2.04 6.98 2.74 7.72 2.74 7.12 3.17 7.35 3.87 6.76 3.44 6.16 3.87 6.39 3.17 5.79 2.74 6.53 2.74 6.76 2.04"/>
    <polygon class="d" points="6.76 5.13 6.98 5.83 7.72 5.83 7.12 6.26 7.35 6.96 6.76 6.53 6.16 6.96 6.39 6.26 5.79 5.83 6.53 5.83 6.76 5.13"/>
    <polygon class="d" points="6.76 8.22 6.98 8.92 7.72 8.92 7.12 9.35 7.35 10.05 6.76 9.62 6.16 10.05 6.39 9.35 5.79 8.92 6.53 8.92 6.76 8.22"/>
    <polygon class="d" points="6.76 11.31 6.98 12.01 7.72 12.01 7.12 12.44 7.35 13.14 6.76 12.71 6.16 13.14 6.39 12.44 5.79 12.01 6.53 12.01 6.76 11.31"/>
    <polygon class="d" points="6.76 14.4 6.98 15.1 7.72 15.1 7.12 15.53 7.35 16.23 6.76 15.8 6.16 16.23 6.39 15.53 5.79 15.1 6.53 15.1 6.76 14.4"/>
    <polygon class="d" points="8.91 3.67 9.14 4.37 9.87 4.37 9.28 4.8 9.5 5.5 8.91 5.07 8.31 5.5 8.54 4.8 7.95 4.37 8.68 4.37 8.91 3.67"/>
    <polygon class="d" points="8.91 6.76 9.14 7.46 9.87 7.46 9.28 7.89 9.5 8.59 8.91 8.16 8.31 8.59 8.54 7.89 7.95 7.46 8.68 7.46 8.91 6.76"/>
    <polygon class="d" points="8.91 9.85 9.14 10.54 9.87 10.54 9.28 10.98 9.5 11.68 8.91 11.25 8.31 11.68 8.54 10.98 7.95 10.54 8.68 10.54 8.91 9.85"/>
    <polygon class="d" points="8.91 12.94 9.14 13.63 9.87 13.63 9.28 14.07 9.5 14.77 8.91 14.33 8.31 14.77 8.54 14.07 7.95 13.63 8.68 13.63 8.91 12.94"/>
    <polygon class="d" points="11.09 2.04 11.31 2.74 12.05 2.74 11.46 3.17 11.68 3.87 11.09 3.44 10.49 3.87 10.72 3.17 10.13 2.74 10.86 2.74 11.09 2.04"/>
    <polygon class="d" points="11.09 5.13 11.31 5.83 12.05 5.83 11.46 6.26 11.68 6.96 11.09 6.53 10.49 6.96 10.72 6.26 10.13 5.83 10.86 5.83 11.09 5.13"/>
    <polygon class="d" points="11.09 8.22 11.31 8.92 12.05 8.92 11.46 9.35 11.68 10.05 11.09 9.62 10.49 10.05 10.72 9.35 10.13 8.92 10.86 8.92 11.09 8.22"/>
    <polygon class="d" points="11.09 11.31 11.31 12.01 12.05 12.01 11.46 12.44 11.68 13.14 11.09 12.71 10.49 13.14 10.72 12.44 10.13 12.01 10.86 12.01 11.09 11.31"/>
    <polygon class="d" points="11.09 14.4 11.31 15.1 12.05 15.1 11.46 15.53 11.68 16.23 11.09 15.8 10.49 16.23 10.72 15.53 10.13 15.1 10.86 15.1 11.09 14.4"/>
    <polygon class="d" points="13.24 3.67 13.47 4.37 14.2 4.37 13.61 4.8 13.83 5.5 13.24 5.07 12.64 5.5 12.87 4.8 12.28 4.37 13.01 4.37 13.24 3.67"/>
    <polygon class="d" points="13.24 6.76 13.47 7.46 14.2 7.46 13.61 7.89 13.83 8.59 13.24 8.16 12.64 8.59 12.87 7.89 12.28 7.46 13.01 7.46 13.24 6.76"/>
    <polygon class="d" points="13.24 9.85 13.47 10.54 14.2 10.54 13.61 10.98 13.83 11.68 13.24 11.25 12.64 11.68 12.87 10.98 12.28 10.54 13.01 10.54 13.24 9.85"/>
    <polygon class="d" points="13.24 12.94 13.47 13.63 14.2 13.63 13.61 14.07 13.83 14.77 13.24 14.33 12.64 14.77 12.87 14.07 12.28 13.63 13.01 13.63 13.24 12.94"/>
    <polygon class="d" points="15.42 2.04 15.65 2.74 16.38 2.74 15.79 3.17 16.01 3.87 15.42 3.44 14.82 3.87 15.05 3.17 14.46 2.74 15.19 2.74 15.42 2.04"/>
    <polygon class="d" points="15.42 5.13 15.65 5.83 16.38 5.83 15.79 6.26 16.01 6.96 15.42 6.53 14.82 6.96 15.05 6.26 14.46 5.83 15.19 5.83 15.42 5.13"/>
    <polygon class="d" points="15.42 8.22 15.65 8.92 16.38 8.92 15.79 9.35 16.01 10.05 15.42 9.62 14.82 10.05 15.05 9.35 14.46 8.92 15.19 8.92 15.42 8.22"/>
    <polygon class="d" points="15.42 11.31 15.65 12.01 16.38 12.01 15.79 12.44 16.01 13.14 15.42 12.71 14.82 13.14 15.05 12.44 14.46 12.01 15.19 12.01 15.42 11.31"/>
    <polygon class="d" points="15.42 14.4 15.65 15.1 16.38 15.1 15.79 15.53 16.01 16.23 15.42 15.8 14.82 16.23 15.05 15.53 14.46 15.1 15.19 15.1 15.42 14.4"/>
    <polygon class="d" points="17.57 3.67 17.8 4.37 18.53 4.37 17.94 4.8 18.17 5.5 17.57 5.07 16.98 5.5 17.2 4.8 16.61 4.37 17.34 4.37 17.57 3.67"/>
    <polygon class="d" points="17.57 6.76 17.8 7.46 18.53 7.46 17.94 7.89 18.17 8.59 17.57 8.16 16.98 8.59 17.2 7.89 16.61 7.46 17.34 7.46 17.57 6.76"/>
    <polygon class="d" points="17.57 9.85 17.8 10.54 18.53 10.54 17.94 10.98 18.17 11.68 17.57 11.25 16.98 11.68 17.2 10.98 16.61 10.54 17.34 10.54 17.57 9.85"/>
    <polygon class="d" points="17.57 12.94 17.8 13.63 18.53 13.63 17.94 14.07 18.17 14.77 17.57 14.33 16.98 14.77 17.2 14.07 16.61 13.63 17.34 13.63 17.57 12.94"/>
    <polygon class="d" points="19.75 2.04 19.98 2.74 20.71 2.74 20.12 3.17 20.34 3.87 19.75 3.44 19.16 3.87 19.38 3.17 18.79 2.74 19.52 2.74 19.75 2.04"/>
    <polygon class="d" points="19.75 5.13 19.98 5.83 20.71 5.83 20.12 6.26 20.34 6.96 19.75 6.53 19.16 6.96 19.38 6.26 18.79 5.83 19.52 5.83 19.75 5.13"/>
    <polygon class="d" points="19.75 8.22 19.98 8.92 20.71 8.92 20.12 9.35 20.34 10.05 19.75 9.62 19.16 10.05 19.38 9.35 18.79 8.92 19.52 8.92 19.75 8.22"/>
    <polygon class="d" points="19.75 11.31 19.98 12.01 20.71 12.01 20.12 12.44 20.34 13.14 19.75 12.71 19.16 13.14 19.38 12.44 18.79 12.01 19.52 12.01 19.75 11.31"/>
    <polygon class="d" points="19.75 14.4 19.98 15.1 20.71 15.1 20.12 15.53 20.34 16.23 19.75 15.8 19.16 16.23 19.38 15.53 18.79 15.1 19.52 15.1 19.75 14.4"/>
    <polygon class="d" points="21.9 3.67 22.13 4.37 22.86 4.37 22.27 4.8 22.5 5.5 21.9 5.07 21.31 5.5 21.53 4.8 20.94 4.37 21.67 4.37 21.9 3.67"/>
    <polygon class="d" points="21.9 6.76 22.13 7.46 22.86 7.46 22.27 7.89 22.5 8.59 21.9 8.16 21.31 8.59 21.53 7.89 20.94 7.46 21.67 7.46 21.9 6.76"/>
    <polygon class="d" points="21.9 9.85 22.13 10.54 22.86 10.54 22.27 10.98 22.5 11.68 21.9 11.25 21.31 11.68 21.53 10.98 20.94 10.54 21.67 10.54 21.9 9.85"/>
    <polygon class="d" points="21.9 12.94 22.13 13.63 22.86 13.63 22.27 14.07 22.5 14.77 21.9 14.33 21.31 14.77 21.53 14.07 20.94 13.63 21.67 13.63 21.9 12.94"/>
    <polygon class="d" points="24.08 2.04 24.31 2.74 25.04 2.74 24.45 3.17 24.68 3.87 24.08 3.44 23.48 3.87 23.71 3.17 23.12 2.74 23.85 2.74 24.08 2.04"/>
    <polygon class="d" points="24.08 5.13 24.31 5.83 25.04 5.83 24.45 6.26 24.68 6.96 24.08 6.53 23.48 6.96 23.71 6.26 23.12 5.83 23.85 5.83 24.08 5.13"/>
    <polygon class="d" points="24.08 8.22 24.31 8.92 25.04 8.92 24.45 9.35 24.68 10.05 24.08 9.62 23.48 10.05 23.71 9.35 23.12 8.92 23.85 8.92 24.08 8.22"/>
    <polygon class="d" points="24.08 11.31 24.31 12.01 25.04 12.01 24.45 12.44 24.68 13.14 24.08 12.71 23.48 13.14 23.71 12.44 23.12 12.01 23.85 12.01 24.08 11.31"/>
    <polygon class="d" points="24.08 14.4 24.31 15.1 25.04 15.1 24.45 15.53 24.68 16.23 24.08 15.8 23.48 16.23 23.71 15.53 23.12 15.1 23.85 15.1 24.08 14.4"/>
  </g>
</svg>
