<svg xmlns="http://www.w3.org/2000/svg" xmlns:xlink="http://www.w3.org/1999/xlink" viewBox="0 0 58.92 34.37">
  <defs>
    <style>
      .a {
        fill: none;
      }

      .b {
        clip-path: url(#a);
      }

      .c {
        fill: #4497b1;
      }

      .d {
        fill: #bc0030;
      }

      .e {
        fill: #fff;
      }

      .f {
        fill: #50b63f;
      }
    </style>
    <clipPath id="a" transform="translate(-245.69 -1187.7)">
      <rect class="a" x="245.69" y="1187.7" width="58.92" height="34.37"/>
    </clipPath>
  </defs>
  <title>Uzbekistan</title>
  <g class="b">
    <rect class="c" width="58.92" height="11"/>
    <rect class="d" y="11" width="58.92" height="0.69"/>
    <rect class="e" y="11.69" width="58.92" height="11"/>
    <rect class="d" y="22.69" width="58.92" height="0.69"/>
    <rect class="f" y="23.37" width="58.92" height="11"/>
    <g class="b">
      <path class="e" d="M259.44,1193.2a4.13,4.13,0,1,1-4.13-4.12,4.13,4.13,0,0,1,4.13,4.13" transform="translate(-245.69 -1187.7)"/>
      <path class="c" d="M260.61,1193.2a3.44,3.44,0,1,1-3.44-3.44,3.44,3.44,0,0,1,3.44,3.44" transform="translate(-245.69 -1187.7)"/>
      <polygon class="e" points="20.07 1.38 19.82 2.16 20.21 2.29 20.07 1.38"/>
      <polygon class="e" points="20.07 1.38 20.33 2.16 19.94 2.29 20.07 1.38"/>
      <polygon class="e" points="20.86 1.95 20.03 1.95 20.03 2.36 20.86 1.95"/>
      <polygon class="e" points="20.86 1.95 20.19 2.43 19.95 2.1 20.86 1.95"/>
      <polygon class="e" points="19.29 1.95 19.96 2.43 20.2 2.1 19.29 1.95"/>
      <polygon class="e" points="19.29 1.95 20.11 1.95 20.11 2.36 19.29 1.95"/>
      <polygon class="e" points="20.56 2.87 20.3 2.08 19.91 2.21 20.56 2.87"/>
      <polygon class="e" points="20.56 2.87 19.89 2.38 20.13 2.05 20.56 2.87"/>
      <polygon class="e" points="19.59 2.87 20.26 2.38 20.01 2.05 19.59 2.87"/>
      <polygon class="e" points="19.59 2.87 19.84 2.08 20.23 2.21 19.59 2.87"/>
      <polygon class="e" points="23.37 1.38 23.12 2.16 23.51 2.29 23.37 1.38"/>
      <polygon class="e" points="23.37 1.38 23.63 2.16 23.24 2.29 23.37 1.38"/>
      <polygon class="e" points="24.16 1.95 23.33 1.95 23.33 2.36 24.16 1.95"/>
      <polygon class="e" points="24.16 1.95 23.49 2.43 23.25 2.1 24.16 1.95"/>
      <polygon class="e" points="22.59 1.95 23.26 2.43 23.5 2.1 22.59 1.95"/>
      <polygon class="e" points="22.59 1.95 23.41 1.95 23.41 2.36 22.59 1.95"/>
      <polygon class="e" points="23.86 2.87 23.6 2.08 23.21 2.21 23.86 2.87"/>
      <polygon class="e" points="23.86 2.87 23.19 2.38 23.43 2.05 23.86 2.87"/>
      <polygon class="e" points="22.89 2.87 23.56 2.38 23.31 2.05 22.89 2.87"/>
      <polygon class="e" points="22.89 2.87 23.14 2.08 23.54 2.21 22.89 2.87"/>
      <polygon class="e" points="26.67 1.38 26.42 2.16 26.81 2.29 26.67 1.38"/>
      <polygon class="e" points="26.67 1.38 26.93 2.16 26.54 2.29 26.67 1.38"/>
      <polygon class="e" points="27.46 1.95 26.63 1.95 26.63 2.36 27.46 1.95"/>
      <polygon class="e" points="27.46 1.95 26.79 2.43 26.55 2.1 27.46 1.95"/>
      <polygon class="e" points="25.89 1.95 26.55 2.43 26.8 2.1 25.89 1.95"/>
      <polygon class="e" points="25.89 1.95 26.71 1.95 26.71 2.36 25.89 1.95"/>
      <polygon class="e" points="27.16 2.87 26.9 2.08 26.51 2.21 27.16 2.87"/>
      <polygon class="e" points="27.16 2.87 26.49 2.38 26.73 2.05 27.16 2.87"/>
      <polygon class="e" points="26.19 2.87 26.86 2.38 26.61 2.05 26.19 2.87"/>
      <polygon class="e" points="26.19 2.87 26.44 2.08 26.84 2.21 26.19 2.87"/>
      <polygon class="e" points="16.77 4.68 16.52 5.46 16.91 5.59 16.77 4.68"/>
      <polygon class="e" points="16.77 4.68 17.03 5.46 16.64 5.59 16.77 4.68"/>
      <polygon class="e" points="17.56 5.24 16.73 5.24 16.73 5.66 17.56 5.24"/>
      <polygon class="e" points="17.56 5.24 16.89 5.73 16.65 5.4 17.56 5.24"/>
      <polygon class="e" points="15.99 5.24 16.66 5.73 16.9 5.4 15.99 5.24"/>
      <polygon class="e" points="15.99 5.24 16.81 5.24 16.81 5.66 15.99 5.24"/>
      <polygon class="e" points="17.26 6.17 17 5.38 16.61 5.51 17.26 6.17"/>
      <polygon class="e" points="17.26 6.17 16.59 5.68 16.83 5.35 17.26 6.17"/>
      <polygon class="e" points="16.29 6.17 16.96 5.68 16.71 5.35 16.29 6.17"/>
      <polygon class="e" points="16.29 6.17 16.54 5.38 16.94 5.51 16.29 6.17"/>
      <polygon class="e" points="20.07 4.68 19.82 5.46 20.21 5.59 20.07 4.68"/>
      <polygon class="e" points="20.07 4.68 20.33 5.46 19.94 5.59 20.07 4.68"/>
      <polygon class="e" points="20.86 5.24 20.03 5.24 20.03 5.66 20.86 5.24"/>
      <polygon class="e" points="20.86 5.24 20.19 5.73 19.95 5.4 20.86 5.24"/>
      <polygon class="e" points="19.29 5.24 19.96 5.73 20.2 5.4 19.29 5.24"/>
      <polygon class="e" points="19.29 5.24 20.11 5.24 20.11 5.66 19.29 5.24"/>
      <polygon class="e" points="20.56 6.17 20.3 5.38 19.91 5.51 20.56 6.17"/>
      <polygon class="e" points="20.56 6.17 19.89 5.68 20.13 5.35 20.56 6.17"/>
      <polygon class="e" points="19.59 6.17 20.26 5.68 20.01 5.35 19.59 6.17"/>
      <polygon class="e" points="19.59 6.17 19.84 5.38 20.23 5.51 19.59 6.17"/>
      <polygon class="e" points="23.37 4.68 23.12 5.46 23.51 5.59 23.37 4.68"/>
      <polygon class="e" points="23.37 4.68 23.63 5.46 23.24 5.59 23.37 4.68"/>
      <polygon class="e" points="24.16 5.24 23.33 5.24 23.33 5.66 24.16 5.24"/>
      <polygon class="e" points="24.16 5.24 23.49 5.73 23.25 5.4 24.16 5.24"/>
      <polygon class="e" points="22.59 5.24 23.26 5.73 23.5 5.4 22.59 5.24"/>
      <polygon class="e" points="22.59 5.24 23.41 5.24 23.41 5.66 22.59 5.24"/>
      <polygon class="e" points="23.86 6.17 23.6 5.38 23.21 5.51 23.86 6.17"/>
      <polygon class="e" points="23.86 6.17 23.19 5.68 23.43 5.35 23.86 6.17"/>
      <polygon class="e" points="22.89 6.17 23.56 5.68 23.31 5.35 22.89 6.17"/>
      <polygon class="e" points="22.89 6.17 23.14 5.38 23.54 5.51 22.89 6.17"/>
      <polygon class="e" points="26.67 4.68 26.42 5.46 26.81 5.59 26.67 4.68"/>
      <polygon class="e" points="26.67 4.68 26.93 5.46 26.54 5.59 26.67 4.68"/>
      <polygon class="e" points="27.46 5.24 26.63 5.24 26.63 5.66 27.46 5.24"/>
      <polygon class="e" points="27.46 5.24 26.79 5.73 26.55 5.4 27.46 5.24"/>
      <polygon class="e" points="25.89 5.24 26.55 5.73 26.8 5.4 25.89 5.24"/>
      <polygon class="e" points="25.89 5.24 26.71 5.24 26.71 5.66 25.89 5.24"/>
      <polygon class="e" points="27.16 6.17 26.9 5.38 26.51 5.51 27.16 6.17"/>
      <polygon class="e" points="27.16 6.17 26.49 5.68 26.73 5.35 27.16 6.17"/>
      <polygon class="e" points="26.19 6.17 26.86 5.68 26.61 5.35 26.19 6.17"/>
      <polygon class="e" points="26.19 6.17 26.44 5.38 26.84 5.51 26.19 6.17"/>
      <polygon class="e" points="13.47 7.97 13.22 8.76 13.61 8.89 13.47 7.97"/>
      <polygon class="e" points="13.47 7.97 13.73 8.76 13.34 8.89 13.47 7.97"/>
      <polygon class="e" points="14.26 8.54 13.43 8.54 13.43 8.96 14.26 8.54"/>
      <polygon class="e" points="14.26 8.54 13.59 9.03 13.35 8.7 14.26 8.54"/>
      <polygon class="e" points="12.69 8.54 13.36 9.03 13.6 8.7 12.69 8.54"/>
      <polygon class="e" points="12.69 8.54 13.51 8.54 13.51 8.96 12.69 8.54"/>
      <polygon class="e" points="13.96 9.47 13.7 8.68 13.31 8.81 13.96 9.47"/>
      <polygon class="e" points="13.96 9.47 13.29 8.98 13.53 8.65 13.96 9.47"/>
      <polygon class="e" points="12.99 9.47 13.66 8.98 13.41 8.65 12.99 9.47"/>
      <polygon class="e" points="12.99 9.47 13.24 8.68 13.64 8.81 12.99 9.47"/>
      <polygon class="e" points="16.77 7.97 16.52 8.76 16.91 8.89 16.77 7.97"/>
      <polygon class="e" points="16.77 7.97 17.03 8.76 16.64 8.89 16.77 7.97"/>
      <polygon class="e" points="17.56 8.54 16.73 8.54 16.73 8.96 17.56 8.54"/>
      <polygon class="e" points="17.56 8.54 16.89 9.03 16.65 8.7 17.56 8.54"/>
      <polygon class="e" points="15.99 8.54 16.66 9.03 16.9 8.7 15.99 8.54"/>
      <polygon class="e" points="15.99 8.54 16.81 8.54 16.81 8.96 15.99 8.54"/>
      <polygon class="e" points="17.26 9.47 17 8.68 16.61 8.81 17.26 9.47"/>
      <polygon class="e" points="17.26 9.47 16.59 8.98 16.83 8.65 17.26 9.47"/>
      <polygon class="e" points="16.29 9.47 16.96 8.98 16.71 8.65 16.29 9.47"/>
      <polygon class="e" points="16.29 9.47 16.54 8.68 16.94 8.81 16.29 9.47"/>
      <polygon class="e" points="20.07 7.97 19.82 8.76 20.21 8.89 20.07 7.97"/>
      <polygon class="e" points="20.07 7.97 20.33 8.76 19.94 8.89 20.07 7.97"/>
      <polygon class="e" points="20.86 8.54 20.03 8.54 20.03 8.96 20.86 8.54"/>
      <polygon class="e" points="20.86 8.54 20.19 9.03 19.95 8.7 20.86 8.54"/>
      <polygon class="e" points="19.29 8.54 19.96 9.03 20.2 8.7 19.29 8.54"/>
      <polygon class="e" points="19.29 8.54 20.11 8.54 20.11 8.96 19.29 8.54"/>
      <polygon class="e" points="20.56 9.47 20.3 8.68 19.91 8.81 20.56 9.47"/>
      <polygon class="e" points="20.56 9.47 19.89 8.98 20.13 8.65 20.56 9.47"/>
      <polygon class="e" points="19.59 9.47 20.26 8.98 20.01 8.65 19.59 9.47"/>
      <polygon class="e" points="19.59 9.47 19.84 8.68 20.23 8.81 19.59 9.47"/>
      <polygon class="e" points="23.37 7.97 23.12 8.76 23.51 8.89 23.37 7.97"/>
      <polygon class="e" points="23.37 7.97 23.63 8.76 23.24 8.89 23.37 7.97"/>
      <polygon class="e" points="24.16 8.54 23.33 8.54 23.33 8.96 24.16 8.54"/>
      <polygon class="e" points="24.16 8.54 23.49 9.03 23.25 8.7 24.16 8.54"/>
      <polygon class="e" points="22.59 8.54 23.26 9.03 23.5 8.7 22.59 8.54"/>
      <polygon class="e" points="22.59 8.54 23.41 8.54 23.41 8.96 22.59 8.54"/>
      <polygon class="e" points="23.86 9.47 23.6 8.68 23.21 8.81 23.86 9.47"/>
      <polygon class="e" points="23.86 9.47 23.19 8.98 23.43 8.65 23.86 9.47"/>
      <polygon class="e" points="22.89 9.47 23.56 8.98 23.31 8.65 22.89 9.47"/>
      <polygon class="e" points="22.89 9.47 23.14 8.68 23.54 8.81 22.89 9.47"/>
      <polygon class="e" points="26.67 7.97 26.42 8.76 26.81 8.89 26.67 7.97"/>
      <polygon class="e" points="26.67 7.97 26.93 8.76 26.54 8.89 26.67 7.97"/>
      <polygon class="e" points="27.46 8.54 26.63 8.54 26.63 8.96 27.46 8.54"/>
      <polygon class="e" points="27.46 8.54 26.79 9.03 26.55 8.7 27.46 8.54"/>
      <polygon class="e" points="25.89 8.54 26.55 9.03 26.8 8.7 25.89 8.54"/>
      <polygon class="e" points="25.89 8.54 26.71 8.54 26.71 8.96 25.89 8.54"/>
      <polygon class="e" points="27.16 9.47 26.9 8.68 26.51 8.81 27.16 9.47"/>
      <polygon class="e" points="27.16 9.47 26.49 8.98 26.73 8.65 27.16 9.47"/>
      <polygon class="e" points="26.19 9.47 26.86 8.98 26.61 8.65 26.19 9.47"/>
      <polygon class="e" points="26.19 9.47 26.44 8.68 26.84 8.81 26.19 9.47"/>
    </g>
  </g>
</svg>
