<svg xmlns="http://www.w3.org/2000/svg" xmlns:xlink="http://www.w3.org/1999/xlink" viewBox="0 0 58.92 34.37">
  <defs>
    <style>
      .a {
        fill: none;
      }

      .b {
        clip-path: url(#a);
      }

      .c {
        fill: #3e8b11;
      }

      .d {
        fill: #df7a21;
      }

      .e {
        fill: #cb0423;
      }

      .f {
        fill: #fff;
      }
    </style>
    <clipPath id="a" transform="translate(-952.25 -1187.7)">
      <rect class="a" x="952.25" y="1187.7" width="58.92" height="34.37"/>
    </clipPath>
  </defs>
  <title>Zambia</title>
  <g class="b">
    <rect class="c" width="58.92" height="34.37"/>
    <rect class="d" x="52.01" y="14.11" width="6.91" height="20.26"/>
    <rect x="45.1" y="14.1" width="6.91" height="20.26"/>
    <rect class="e" x="38.05" y="14.12" width="7.05" height="20.26"/>
    <g class="b">
      <path class="d" d="M1006.54,1192.73s2.6-1.11,2.85-1.34c0.11,0.14-1,1.54-3.29,2.05,2-.48,3.78-2,4.14-1.95,0.1,0,.08,1.48-4.6,2.74a21.84,21.84,0,0,0,5.09-2.24s-0.32,1.23-3.15,2.16c0.79-.19,2.94-1.49,2.91-1.24a5.54,5.54,0,0,1-5.95,2c3.09,0.8,5.1-1.13,5.39-1.1,0.06,0-.57,1.7-4.47,1.8,1.87-.2,1.33,0,1.33,0a2.51,2.51,0,0,1-2.43.28c1,0.29,1.16.3,1.18,0.39a2,2,0,0,1-1.75-.16,11.49,11.49,0,0,1,1.27.42,0.87,0.87,0,0,1-.81.1c-0.38-.17-3.86-2.32-3.86-2.32l5.94-1.63Z" transform="translate(-952.25 -1187.7)"/>
      <path d="M1004.54,1196.71a0.77,0.77,0,0,1-.31-0.07c-0.38-.17-3.73-2.23-3.87-2.32a0.05,0.05,0,0,1,0,0,0,0,0,0,1,0,0l5.94-1.63,0.25,0.08c0.86-.38,2.61-1.15,2.8-1.33h0l0,0a0.2,0.2,0,0,1,0,.09,2.11,2.11,0,0,1-.7.8l0.55-.33a2.9,2.9,0,0,1,.92-0.47,0.2,0.2,0,0,1,.09.09,1.42,1.42,0,0,1-.69,1l0.69-.4a1.41,1.41,0,0,1,.41-0.22,0.24,0.24,0,0,1,.06.07,2,2,0,0,1-.75,1,1.37,1.37,0,0,1,.42-0.15l0.07,0,0,0.08a2.75,2.75,0,0,1-.72.81l0.11,0a0.08,0.08,0,0,1,.06.06c0,0.2-.62,1.32-3.07,1.71h0s0,0.08-.1.1a2.61,2.61,0,0,1-1.37.48,0.19,0.19,0,0,1,.15.13,0.69,0.69,0,0,1-.55.19,0.1,0.1,0,0,1,.07.08,0.73,0.73,0,0,1-.57.22h0Zm-4-2.41c0.57,0.35,3.42,2.1,3.76,2.25a1,1,0,0,0,.75-0.09,1.63,1.63,0,0,1-.35-0.07,2.55,2.55,0,0,1-.91-0.29,0,0,0,0,1,0-.09,6.2,6.2,0,0,0,.87.27,1.54,1.54,0,0,0,.83-0.09h0l-0.46-.13a2.4,2.4,0,0,1-.7-0.19,0.05,0.05,0,0,1,0-.06,0,0,0,0,1,.06,0l0.7,0.19h0.24a2.6,2.6,0,0,0,1.43-.45h-0.09c-0.37,0-.78.08-1.2,0.09a0.06,0.06,0,0,1-.05,0,0,0,0,0,1,0-.05c0.57-.06,1-0.09,1.2-0.09,2.58-.34,3.22-1.49,3.23-1.65a1.39,1.39,0,0,1-.35.24c-0.19.12-.44,0.26-0.74,0.41a5.75,5.75,0,0,1-1.2.47,5.83,5.83,0,0,1-3.06,0,0,0,0,0,1,0-.06,0,0,0,0,1,.06,0,6.23,6.23,0,0,0,3,0,6.47,6.47,0,0,0,1.18-.46,4.27,4.27,0,0,0,1.7-1.43,6.32,6.32,0,0,0-.9.41,8.19,8.19,0,0,1-1.46.7,3.13,3.13,0,0,1-.5.17,0.05,0.05,0,0,1-.06,0,0,0,0,0,1,0-.06l0.49-.17c0.36-.15.81-0.38,1.21-0.58l0.23-.12a2.49,2.49,0,0,0,1.19-1.23,1.2,1.2,0,0,1-.32.23c-0.33.2-.89,0.54-1.63,0.9a13.21,13.21,0,0,1-2.38.94l-0.7.2h0a0,0,0,0,1-.06,0,0,0,0,0,1,0-.06l0.7-.2a16.7,16.7,0,0,0,2.37-.94c1.47-.79,1.55-1.45,1.52-1.52a4.38,4.38,0,0,0-.85.46,17.88,17.88,0,0,1-1.61.9,7,7,0,0,1-1.63.59,0.05,0.05,0,0,1-.06,0,0,0,0,0,1,0-.06h0a8,8,0,0,0,1.61-.59,4.25,4.25,0,0,0,1.62-1.3c-0.55.33-2.66,1.23-2.76,1.28l-0.25-.08-5.8,1.6h0Z" transform="translate(-952.25 -1187.7)"/>
      <path class="d" d="M999.56,1198.53a0.49,0.49,0,0,0-.54.46,0.34,0.34,0,0,0,0,.26,1.44,1.44,0,0,1,.13-0.2,0.76,0.76,0,0,0,.68-0.22c-0.35.36-.14,0.49-0.14,0.49a0.26,0.26,0,0,0,.18.34,0.23,0.23,0,0,1,0-.22,0.42,0.42,0,0,0,.34-0.49,0.54,0.54,0,0,0,.24.51,0.25,0.25,0,0,0,.24.24,0.35,0.35,0,0,1-.1-0.29,0.42,0.42,0,0,0,0-.61,1,1,0,0,0,.29-0.35,2,2,0,0,1-.32-0.17,3,3,0,0,1,0-.65l-0.13-.71-0.37,1.11a0.52,0.52,0,0,1-.5.48h0Z" transform="translate(-952.25 -1187.7)"/>
      <path d="M1000.64,1199.77h0a0.29,0.29,0,0,1-.29-0.29,0.33,0.33,0,0,1-.19-0.24,0.45,0.45,0,0,1-.32.26,0.45,0.45,0,0,0,.05.14,0.05,0.05,0,0,1,0,.06,0.05,0.05,0,0,1-.05,0,0.28,0.28,0,0,1-.19-0.13,0.38,0.38,0,0,1,0-.25,0.13,0.13,0,0,1-.06-0.11,0.35,0.35,0,0,1,0-.2,0.82,0.82,0,0,1-.46.08l-0.1.17a0,0,0,0,1-.05,0,0,0,0,0,1,0,0,0.36,0.36,0,0,1,0-.3,0.51,0.51,0,0,1,.57-0.48,0.46,0.46,0,0,0,.45-0.42h0v0l0.36-1.09a0.05,0.05,0,0,1,.05,0,0,0,0,0,1,0,0l0.13,0.71a2.81,2.81,0,0,0,0,.64,2.74,2.74,0,0,0,.29.14l0,0a0,0,0,0,1,0,0,1.12,1.12,0,0,1-.26.34,0.46,0.46,0,0,1-.08.63,0.41,0.41,0,0,0,.1.22,0,0,0,0,1,0,.06,0.05,0.05,0,0,1,0,0h0Zm-0.47-.84a0,0,0,0,1,0,0,0.51,0.51,0,0,0,.21.46,0.46,0.46,0,0,0,.09.19,0.43,0.43,0,0,1,0-.2,0.4,0.4,0,0,0,.06-0.57,0.06,0.06,0,0,1,0,0l0,0a0.84,0.84,0,0,0,.24-0.28,1.57,1.57,0,0,1-.28-0.15,2.25,2.25,0,0,1,0-.7l-0.09-.51-0.3.92h0a0.57,0.57,0,0,1-.55.53,0.44,0.44,0,0,0-.49.42,0.25,0.25,0,0,0,0,.09l0-.07h0.17a0.87,0.87,0,0,0,.52-0.22,0,0,0,0,1,.07,0,0,0,0,0,1,0,.07,0.48,0.48,0,0,0-.19.34,0.1,0.1,0,0,0,0,.08,0.79,0.79,0,0,0,0,.25l0,0a0.27,0.27,0,0,1,0-.14,0.42,0.42,0,0,0,.34-0.45,0.06,0.06,0,0,1,0-.06h0Z" transform="translate(-952.25 -1187.7)"/>
      <path class="d" d="M1002.14,1196.93a1.19,1.19,0,0,0,.76.41c0.14-.12-0.29-0.37-0.29-0.42a1.42,1.42,0,0,0,1.18.48c0.16-.23-0.29-0.2-0.78-0.81a2.35,2.35,0,0,0,1.61.54c0.17-.18-0.89-0.76-1.25-1.2l-0.92-.47-1.25,1Z" transform="translate(-952.25 -1187.7)"/>
      <path d="M1003.59,1197.49a1.26,1.26,0,0,1-.63-0.23v0a0.27,0.27,0,0,1,0,.09h0a1.21,1.21,0,0,1-.8-0.41l-0.93-.45a0,0,0,0,1,0,0,0,0,0,0,1,0,0l1.25-1,1,0.46a4.59,4.59,0,0,0,.7.61,1.45,1.45,0,0,1,.59.58,0.28,0.28,0,0,1,0,.09,1.64,1.64,0,0,1-1.35-.34,2.53,2.53,0,0,0,.36.27,0.39,0.39,0,0,1,.21.2,0.18,0.18,0,0,1,0,.14,0.45,0.45,0,0,1-.23.06h0Zm-1-.62h0a1.52,1.52,0,0,0,1.13.47,0.25,0.25,0,0,0-.16-0.18,2.31,2.31,0,0,1-.64-0.56,0,0,0,0,1,.07-0.07,2.66,2.66,0,0,0,1.56.54,2,2,0,0,0-.56-0.52,4.31,4.31,0,0,1-.7-0.61l-0.9-.46-1.14,1,0.87,0.42a1.16,1.16,0,0,0,.71.41,0.49,0.49,0,0,0-.19-0.23,0.26,0.26,0,0,1-.12-0.15,0,0,0,0,1,0,0h0Z" transform="translate(-952.25 -1187.7)"/>
      <path class="d" d="M1000.73,1193.45a4.38,4.38,0,0,1,2.12-.13,9,9,0,0,0,1.47-.44,9.43,9.43,0,0,0,2.49-.76c0.3,0-.08.55-0.46,0.69a7.4,7.4,0,0,1-2.37.62c0.62,0,.27.52-0.76,0.28,0.49,0.28.31,0.32,0.31,0.32a2.48,2.48,0,0,1-1.1-.15c0.58,0.22.34,0.3,0.34,0.3a2.3,2.3,0,0,1-.87-0.07c0.42,0.13.21,0.21,0.21,0.21a1.45,1.45,0,0,1-.63,0,3.17,3.17,0,0,1-.75-0.82h0Z" transform="translate(-952.25 -1187.7)"/>
      <path d="M1001.88,1194.38a1.24,1.24,0,0,1-.42-0.06,2.24,2.24,0,0,1-.69-0.73l-0.07-.1a0,0,0,0,1,0,0,0.05,0.05,0,0,1,0,0,4.29,4.29,0,0,1,2.15-.13h0a7.45,7.45,0,0,0,1.24-.36l0.2-.07a9.29,9.29,0,0,0,2.47-.75c0.13,0,.17,0,0.18.09a1,1,0,0,1-.6.69,9.38,9.38,0,0,1-2.07.62,0.12,0.12,0,0,1,0,.1,0.77,0.77,0,0,1-.87.23,0.23,0.23,0,0,1,.15.2,0.16,0.16,0,0,1-.07.08,4.53,4.53,0,0,1-.69,0,0.1,0.1,0,0,1,0,.07,0.24,0.24,0,0,1-.08.09,3.8,3.8,0,0,1-.58,0,0.08,0.08,0,0,1,0,0,0.12,0.12,0,0,1-.09.1l-0.24,0h0Zm-1.07-.92,0,0.06a2.34,2.34,0,0,0,.64.7,1.15,1.15,0,0,0,.39.06h0.22s0,0-.1-0.07l-0.12,0a0,0,0,0,1,0-.09l0.12,0a1.88,1.88,0,0,0,.43,0h0.31s0,0-.14-0.11a0.56,0.56,0,0,1-.24-0.1,0,0,0,0,1,0-.06,0,0,0,0,1,.06,0l0.23,0.1a4.07,4.07,0,0,0,.85,0,1.27,1.27,0,0,0-.33-0.23,0,0,0,0,1,0-.06,0.05,0.05,0,0,1,.06,0,2.22,2.22,0,0,0,.5.06,0.52,0.52,0,0,0,.5-0.16,0.17,0.17,0,0,0-.17-0.08H1004a0.05,0.05,0,0,1,0-.1h0.1a8.31,8.31,0,0,0,2.25-.62,0.92,0.92,0,0,0,.54-0.58,11,11,0,0,1-2.54.74l-0.2.07a7.07,7.07,0,0,1-1.26.37c-0.36,0-.65,0-0.89,0a3.57,3.57,0,0,0-1.17.13h0Z" transform="translate(-952.25 -1187.7)"/>
      <path class="d" d="M1001.41,1197.17l0.06,1.12-0.06.09s-0.8-.12-0.69.46a0.42,0.42,0,0,0,.17.44,0.75,0.75,0,0,1,0-.27s0.21,0.13.43-.22c-0.14.35,0,.47,0,0.48s-0.06.35,0.23,0.34a0.26,0.26,0,0,1-.06-0.26s0.3,0,.2-0.59c0.11-.11.15,0,0.15,0a0.26,0.26,0,0,0,.3.26c0.12,0.07,0,.24,0,0.24a0.26,0.26,0,0,0,.25-0.16,0.4,0.4,0,0,0-.19-0.57c0-.12.13-0.12,0.13-0.12a0.56,0.56,0,0,1,.26.17c0.06,0.1,0-.26-0.21-0.3s-0.33-.07-0.33-0.09-0.05-.81-0.08-1Z" transform="translate(-952.25 -1187.7)"/>
      <path d="M1001.5,1199.66a0.26,0.26,0,0,1-.26-0.31l0-.11a0.4,0.4,0,0,1,0-.24,0.32,0.32,0,0,1-.26.08,0.84,0.84,0,0,0,0,.19,0,0,0,0,1-.08.05,0.46,0.46,0,0,1-.19-0.47,0.41,0.41,0,0,1,.07-0.35,0.67,0.67,0,0,1,.51-0.16h0.11a0.23,0.23,0,0,0,.07-0.07l-0.07-1.09,0.54-.09a8.58,8.58,0,0,1,.13,1.09,0.7,0.7,0,0,0,.28,0,0.36,0.36,0,0,1,.29.35,0.07,0.07,0,0,1-.12,0,0.51,0.51,0,0,0-.23-0.14,0.18,0.18,0,0,0-.06,0,0.44,0.44,0,0,1,.19.63,0.31,0.31,0,0,1-.29.19,0,0,0,0,1,0-.08,0.24,0.24,0,0,0,.05-0.14,0.35,0.35,0,0,1-.34-0.32,1,1,0,0,1-.11.52,0.31,0.31,0,0,1-.17.12,0.36,0.36,0,0,0,.07.18,0.05,0.05,0,0,1,0,.05,0.05,0.05,0,0,1,0,0h0Zm-0.21-.92h0a0,0,0,0,1,0,.06,0.41,0.41,0,0,0,0,.42,0.18,0.18,0,0,1,0,.13,0.2,0.2,0,0,0,.07.19,0.33,0.33,0,0,1,0-.21,0.46,0.46,0,0,0,.15-0.12,0.61,0.61,0,0,0,0-.45c0.14-.22.23-0.08,0.25,0a0.25,0.25,0,0,0,.18.24h0.09a0.14,0.14,0,0,1,.07.09,0.23,0.23,0,0,1,0,.13,0.18,0.18,0,0,0,.11-0.11c0.09-.27,0-0.43-0.16-0.51a0.13,0.13,0,0,1,0-.15,0.21,0.21,0,0,1,.16-0.07,0.72,0.72,0,0,1,.21.1l0,0a0.2,0.2,0,0,0-.14-0.09c-0.09,0-.37,0-0.37-0.14s-0.05-.81-0.08-1l-0.44.08,0.11,1.07a0.38,0.38,0,0,1-.07.13l-0.08,0h-0.11a0.61,0.61,0,0,0-.44.13,0.32,0.32,0,0,0,0,.27,0.56,0.56,0,0,0,0,.29,0.6,0.6,0,0,1,0-.12,0.05,0.05,0,0,1,0,0h0s0.18,0.1.36-.21l0,0h0Z" transform="translate(-952.25 -1187.7)"/>
      <path class="d" d="M1002.47,1198.12a2.19,2.19,0,0,1-.39-0.85,0.85,0.85,0,0,0,.53.25,1.63,1.63,0,0,1-.39-0.38,3.49,3.49,0,0,0-.84-1.51c0.41,0.63,1.33,1,1.37.82s-0.82-.88-0.77-1a2.27,2.27,0,0,0,1.66,1,6.1,6.1,0,0,0-.66-0.72,6.43,6.43,0,0,1-1.51-1.42,2.56,2.56,0,0,0-.75-0.81,0.31,0.31,0,0,1-.06-0.13c-0.24-.57.08-0.76,0.27-0.79a0.77,0.77,0,0,0,.31,0l-0.4-.15c0.17,0.13.62,0,.52,0.38,0.19-.07.61-0.56-0.47-0.68-0.35-.4-1.79-0.63-2.15,1.12l0.13,0.11a10.86,10.86,0,0,0-2.12-.46c-1.19-.34-2.43-1.17-2.55-1.07a3.53,3.53,0,0,0,.67.91,20.23,20.23,0,0,0-2.11-1,10.06,10.06,0,0,0-1-.49c-0.17.35,0.73,1.22,0.9,1.32s1.48,0.71,1.46.72a15.6,15.6,0,0,1-2.41-1.17c-0.17,0-.6-0.61-0.72-0.57a1.51,1.51,0,0,0,1,1.38c0.15,0.11,2,.79,2,0.84s-2.14-.88-2.22-0.91c-0.41-.16-0.92-0.73-1-0.67a1.17,1.17,0,0,0,.65.86c0.22,0.1,1.06.51,1.81,0.78,0,0-1.36-.53-2-0.81a3,3,0,0,0-.5-0.34c-0.07,0,.11,1,2.28,1.46,0.06,0,.76-0.17.73-0.14s-0.7.16-.77,0.15a1.84,1.84,0,0,0-.45.06c0,0.06.14,0.39,1.26,0.32,0.14,0,.92-0.28.86-0.22s-1.06.36-1.14,0.37a1.71,1.71,0,0,0-.44.09,1,1,0,0,0,.87.32,6.76,6.76,0,0,0,1.52-.3s-1,.35-1,0.37-0.38,0-.4.06,0.5,0.57,2.08,0a3.38,3.38,0,0,1-.92.4,0.7,0.7,0,0,0,.44.25,1.43,1.43,0,0,0,.48,0,2,2,0,0,0,1-.55,9.06,9.06,0,0,1-1,.7,1.46,1.46,0,0,0,1-.05,11.77,11.77,0,0,0,1.45-.91c0,0.12-1.82,1.12-1.8,1.16a1,1,0,0,0,.78,0l0.82-.45a3.18,3.18,0,0,0-.83.63c0,0.36,1.45-.25,1.57-0.32a1.84,1.84,0,0,0-.72.52,1,1,0,0,0,1.17.2,1.64,1.64,0,0,1,0,.28,1.39,1.39,0,0,0,.23-0.33c0,0.12-.11.3-0.16,0.52s-0.07.45-.14,0.71,0.49-.22.42-1c0,0.41-.16,1.18-0.11,1.22a0.83,0.83,0,0,0,.43-0.7,1.61,1.61,0,0,0,.43.56,1.36,1.36,0,0,0-.07-0.46c0-.31,0-0.75.06-1.23a2.46,2.46,0,0,1,.48,1.8,0.77,0.77,0,0,0,.32-0.69,1,1,0,0,0,.88.79h0Z" transform="translate(-952.25 -1187.7)"/>
      <path d="M1002.46,1198.16a1.09,1.09,0,0,1-.85-0.64,1.12,1.12,0,0,1-.21.48,0.14,0.14,0,0,1-.11.06,0.09,0.09,0,0,1-.06-0.05,2.21,2.21,0,0,0-.41-1.64,10.58,10.58,0,0,1-.05,1.08,0.92,0.92,0,0,1,.06.32v0.14a0.86,0.86,0,0,1-.45-0.45,0.9,0.9,0,0,1-.42.63c-0.09,0-.08-0.11,0-0.42v-0.08a0.52,0.52,0,0,1-.3.29,0.38,0.38,0,0,1-.06-0.07,3.62,3.62,0,0,0,.08-0.42c0-.1,0-0.2.05-0.29s0-.17.07-0.24l-0.09.1c-0.07,0-.07-0.06,0-0.17a0.74,0.74,0,0,0,0-.13,0.61,0.61,0,0,1-.47.12,0.81,0.81,0,0,1-.71-0.31,0.43,0.43,0,0,1,.21-0.27,1.54,1.54,0,0,1-1,.15,0.12,0.12,0,0,1,0-.1,0.43,0.43,0,0,1,.17-0.2l-0.11.06a1.15,1.15,0,0,1-.83,0s0,0,.15-0.15a1.16,1.16,0,0,1-.84,0,0.23,0.23,0,0,1,.16-0.19l-0.18,0a1.53,1.53,0,0,1-.5,0,0.65,0.65,0,0,1-.47-0.3s0,0,.22-0.1a4,4,0,0,0,.5-0.18,3.73,3.73,0,0,1-1,.17,1.05,1.05,0,0,1-.84-0.26,0.15,0.15,0,0,1,0-.07,0.32,0.32,0,0,1,.25-0.06l0.16,0,0.21-.08a3.24,3.24,0,0,1-.66.09,1.37,1.37,0,0,1-1-.31c0-.1,0-0.12.41-0.17l0.26-.07a1.34,1.34,0,0,1-1.19-.26,0.13,0.13,0,0,1,0-.11,0.69,0.69,0,0,1,.33-0.08c-1.57-.41-2.08-1-2.14-1.36a0.11,0.11,0,0,1,0-.12,0.22,0.22,0,0,1,.2.09,2,2,0,0,0,.34.25h0a1.42,1.42,0,0,1-.52-0.74,0.17,0.17,0,0,1,0-.09,0.66,0.66,0,0,1,.4.23l0.26,0.2a1.66,1.66,0,0,1-.46-0.83,0.34,0.34,0,0,1,0-.23,0.66,0.66,0,0,1,.41.27,1.3,1.3,0,0,0,.35.29,3.88,3.88,0,0,0,.8.43c-0.3-.27-0.95-1-0.79-1.28a0.47,0.47,0,0,1,.38.13,3.78,3.78,0,0,0,.63.34,21.39,21.39,0,0,1,1.94.95l-0.08-.08a1.52,1.52,0,0,1-.5-0.67l0.09-.06a2.72,2.72,0,0,1,.7.3,11,11,0,0,0,1.83.78l0.17,0a11.93,11.93,0,0,1,1.8.37,1.44,1.44,0,0,1,1.38-1.46,1.1,1.1,0,0,1,.79.3,0.67,0.67,0,0,1,.72.36,0.42,0.42,0,0,1-.27.38,1.19,1.19,0,0,0-.06-0.21l0,0h0a0.43,0.43,0,0,1-.2,0h-0.12a0.38,0.38,0,0,0-.27.18,0.64,0.64,0,0,0,0,.56,0.29,0.29,0,0,0,.06.12,2.74,2.74,0,0,1,.75.82,6.47,6.47,0,0,0,1.5,1.41,1.68,1.68,0,0,0,.39.4,0.54,0.54,0,0,1,.29.37,0.21,0.21,0,0,1-.11,0,1.81,1.81,0,0,1-1-.42,0.64,0.64,0,0,1,.24.39,0.11,0.11,0,0,1-.13.08,1.7,1.7,0,0,1-.79-0.35,3.2,3.2,0,0,1,.26.61,2.57,2.57,0,0,0,.12.32,0.55,0.55,0,0,0,.27.27,0.23,0.23,0,0,1,.13.11,0.13,0.13,0,0,1-.11.08,0.56,0.56,0,0,1-.31-0.16,0.52,0.52,0,0,0-.16-0.1,2.38,2.38,0,0,0,.32.6,0.58,0.58,0,0,1,.12.22l-0.05,0h0Zm-0.87-.87a0,0,0,0,1,0,0,1,1,0,0,0,.8.76,0.5,0.5,0,0,1-.1-0.13,0.81,0.81,0,0,1-.27-0.71,0.37,0.37,0,0,1,.22.11,0.5,0.5,0,0,0,.25.14h0s0,0,0,0a0.65,0.65,0,0,1-.3-0.3,2.72,2.72,0,0,1-.13-0.34,2.77,2.77,0,0,0-.37-0.79,1.82,1.82,0,0,1-.33-0.38,0,0,0,0,1,0-.05,0,0,0,0,1,.05,0,2.63,2.63,0,0,1,.33.38,1.85,1.85,0,0,0,.92.47,0.82,0.82,0,0,0-.33-0.52,1,1,0,0,1-.38-0.54,0,0,0,0,1,0,0,0,0,0,0,1,0,0,2.21,2.21,0,0,0,1.62,1l-0.3-.26a1.62,1.62,0,0,1-.39-0.41,6.18,6.18,0,0,1-1.51-1.43,2.75,2.75,0,0,0-.73-0.78,0.33,0.33,0,0,1-.08-0.15,0.71,0.71,0,0,1,0-.63,0.47,0.47,0,0,1,.33-0.22h0.2l-0.07,0a0.76,0.76,0,0,1-.23-0.09,0,0,0,0,1,0-.05,0,0,0,0,1,0,0l0.23,0.07a0.42,0.42,0,0,1,.3.13,0.26,0.26,0,0,1,0,.22,0.74,0.74,0,0,0,.16-0.35,0.68,0.68,0,0,0-.67-0.3,1.1,1.1,0,0,0-.76-0.28,1.41,1.41,0,0,0-1.34,1.37,0.27,0.27,0,0,1,.12.07,0,0,0,0,1,0,.05,0,0,0,0,1-.05,0,9.36,9.36,0,0,0-1.93-.43l-0.18,0a11,11,0,0,1-1.84-.79,3.18,3.18,0,0,0-.66-0.29,2.22,2.22,0,0,0,.47.6,0.52,0.52,0,0,1,.22.28c-0.81-.41-1.51-0.73-2.16-1a3.69,3.69,0,0,1-.65-0.35,1.23,1.23,0,0,0-.28-0.15c-0.13.3,0.72,1.15,0.9,1.26l0.83,0.41,0.62,0.3h0a0,0,0,0,1,0,0l0,0,0,0-0.62-.3-0.38-.18a6,6,0,0,1-1.41-.68,1.15,1.15,0,0,1-.37-0.3,1.15,1.15,0,0,0-.31-0.26,1.71,1.71,0,0,0,.08.35,1.67,1.67,0,0,0,.93,1l0.21,0.1,0.1,0,0.71,0.28c1,0.4,1,.41,1,0.46H994c-0.14,0-.51-0.19-1.65-0.66l-0.1,0h0l-0.43-.18a2.88,2.88,0,0,1-.67-0.45,1.27,1.27,0,0,0-.31-0.22,1.39,1.39,0,0,0,.65.79l0.2,0.09,0.77,0.35,0.59,0.23,0.21,0.09h0s0,0,0,0h0l0,0-0.26-.1-0.11,0-0.48-.19-1.19-.48a2.1,2.1,0,0,1-.36-0.26l-0.11-.08a1.52,1.52,0,0,0,.07.19c0.12,0.23.59,0.82,2.2,1.2l0.23,0,0.25-.06,0.23,0a0.12,0.12,0,0,1,0,.07s-0.49.11-.5,0.11l-0.21,0H993a2.28,2.28,0,0,0-.42.06,1.47,1.47,0,0,0,1.23.25,4.38,4.38,0,0,0,.47-0.13,2.52,2.52,0,0,1,.38-0.1,0.15,0.15,0,0,1,0,.08,12,12,0,0,1-1.16.38,2,2,0,0,0-.42.07,1.5,1.5,0,0,0,.84.26h0a5.61,5.61,0,0,0,1.38-.27c0.23-.07.16,0,0.18,0a0,0,0,0,1,0,0,3.76,3.76,0,0,1-.6.23l-0.41.15-0.19,0-0.2,0a1.25,1.25,0,0,0,.79.21,4,4,0,0,0,1.25-.24,0,0,0,0,1,0,0,0,0,0,0,1,0,0,1.74,1.74,0,0,1-.75.34l-0.18.06a1.69,1.69,0,0,0,.42.19,1.39,1.39,0,0,0,.47,0,1.93,1.93,0,0,0,1-.54c0.1,0.1,0,.21-0.54.5a2.7,2.7,0,0,0-.35.23,1.1,1.1,0,0,0,.28,0,2.35,2.35,0,0,0,.7-0.14,12.56,12.56,0,0,0,1.44-.89,0,0,0,0,1,0,0s0,0,0,0-0.15.2-1.21,0.82c-0.28.16-.56,0.33-0.59,0.36a1,1,0,0,0,.2,0,1.86,1.86,0,0,0,.53-0.1l0.19-.1,0.64-.34a0,0,0,0,1,.05,0,0,0,0,0,1,0,.05h0a3.53,3.53,0,0,0-.81.58,0.12,0.12,0,0,0,.14.08,4.42,4.42,0,0,0,1.24-.37l0.15-.07a0,0,0,0,1,0,0,0,0,0,0,1,0,0l-0.14.07a1.28,1.28,0,0,0-.56.42,0.76,0.76,0,0,0,.64.25,1.06,1.06,0,0,0,.47-0.09c0.09,0,.08.07,0,0.2v0c0-.07.12-0.18,0.15-0.26a0,0,0,0,1,0,0,0,0,0,0,1,0,0,1.52,1.52,0,0,1-.07.22,2.89,2.89,0,0,0-.09.29c0,0.09,0,.19-0.05.29a3.71,3.71,0,0,1-.08.42,1.12,1.12,0,0,0,.34-0.69,2,2,0,0,0,0-.28h0a0.1,0.1,0,0,1,0-.07h0a1.73,1.73,0,0,1,0,.35c0,0.18,0,.36-0.07.52a2,2,0,0,0,0,.33,1.09,1.09,0,0,0,.36-0.68,0,0,0,0,1,.07,0,1.62,1.62,0,0,0,.41.55l-0.06-.1a0.94,0.94,0,0,0-.06-0.31c0-.3,0-0.69.05-1.14v-0.11a0,0,0,0,1,0,0,0,0,0,0,1,0,0,2.49,2.49,0,0,1,.48,1.83l0-.07a1.09,1.09,0,0,0,.21-0.62,0,0,0,0,1,0,0h0Z" transform="translate(-952.25 -1187.7)"/>
      <path class="d" d="M995.32,1192.9a1.15,1.15,0,0,1-.66.21c0.09,0.36.85,0.08,0.85,0.08a1.89,1.89,0,0,1-.62.47,1.51,1.51,0,0,0,.92,0,1.88,1.88,0,0,0,.3-0.32,5.45,5.45,0,0,1-.77.77,1.19,1.19,0,0,0,.86-0.08,3.77,3.77,0,0,1,.53-0.34s-1,.69-1,0.69a2.57,2.57,0,0,0,1.59-.41,6.7,6.7,0,0,1-1.12.71,1.66,1.66,0,0,0,1.56-.18,2.62,2.62,0,0,0,1-.83,6.3,6.3,0,0,1-1.66,1.38c0,0.08.71,0.4,1.68-.61Z" transform="translate(-952.25 -1187.7)"/>
      <path d="M997.36,1195.22a0.64,0.64,0,0,1-.33-0.07,0.13,0.13,0,0,1,0-.09c0.24-.16.48-0.31,0.7-0.48a1.69,1.69,0,0,1-1.4.21l-0.15,0a0,0,0,0,1,0,0,0,0,0,0,1,0,0,3,3,0,0,0,.62-0.37l0,0a2.06,2.06,0,0,1-1.12.17,0,0,0,0,1,0,0,0,0,0,0,1,0,0l0.28-.18a1.42,1.42,0,0,1-.64,0,0.11,0.11,0,0,1,0-.06,2.39,2.39,0,0,0,.41-0.38,1.42,1.42,0,0,1-.85-0.06,2.33,2.33,0,0,0,.51-0.41,1,1,0,0,1-.62,0,0.25,0.25,0,0,1-.13-0.17,1.47,1.47,0,0,0,.67-0.25,0,0,0,0,1,.06,0,0,0,0,0,1,0,.05,1.09,1.09,0,0,1-.68.21,0.35,0.35,0,0,1,.13.07,1.2,1.2,0,0,0,.7-0.06,0,0,0,0,1,0,0,0,0,0,0,1,0,0,1.87,1.87,0,0,1-.64.48,2.53,2.53,0,0,0,.89-0.05l0.07-.05,0.23-.26a0,0,0,0,1,.05,0,0,0,0,0,1,0,.05,2.53,2.53,0,0,1-.23.26,2.39,2.39,0,0,1-.57.53,2.19,2.19,0,0,0,.83-0.15,3.62,3.62,0,0,1,.53-0.34,0,0,0,0,1,0,.07c-0.56.39-.82,0.56-0.94,0.64a2.79,2.79,0,0,0,1.45-.42,0,0,0,0,1,.05,0,0,0,0,0,1,0,.05l-0.49.34a3.63,3.63,0,0,1-.54.33h0a1.66,1.66,0,0,0,1.38-.22,2.4,2.4,0,0,0,.54-0.36,3.48,3.48,0,0,0,.41-0.46,0,0,0,0,1,.05,0,0,0,0,0,1,0,.05,2.53,2.53,0,0,1-.45.49,9,9,0,0,1-1.21.89s0.09,0,.22,0a1.78,1.78,0,0,0,1.4-.7,0,0,0,0,1,.06.06,2,2,0,0,1-1.37.72h0Z" transform="translate(-952.25 -1187.7)"/>
      <path class="d" d="M1000.54,1195.07a1.12,1.12,0,0,0,.32.54,0.78,0.78,0,0,1,.28.46Z" transform="translate(-952.25 -1187.7)"/>
      <path d="M1001.15,1196.11a0,0,0,0,1,0,0,0.76,0.76,0,0,0-.27-0.44,1.15,1.15,0,0,1-.34-0.56,0,0,0,0,1,0,0,0,0,0,0,1,0,0,1.08,1.08,0,0,0,.31.52,0.81,0.81,0,0,1,.29.49,0,0,0,0,1,0,0h0Z" transform="translate(-952.25 -1187.7)"/>
      <path class="d" d="M1000.41,1193.08a1,1,0,0,0,.36.45,3,3,0,0,1,.71.83,9.81,9.81,0,0,1,.18,1.06Z" transform="translate(-952.25 -1187.7)"/>
      <path d="M1001.66,1195.45h0a0,0,0,0,1,0,0,10.26,10.26,0,0,0-.17-1,3,3,0,0,0-.7-0.8,1,1,0,0,1-.37-0.47,0,0,0,0,1,0-.05,0,0,0,0,1,0,0,0.92,0.92,0,0,0,.34.43,3.05,3.05,0,0,1,.73.85,9.57,9.57,0,0,1,.18,1.08,0,0,0,0,1,0,0h0Z" transform="translate(-952.25 -1187.7)"/>
      <path class="d" d="M998.76,1193.5a1.12,1.12,0,0,0,.17,1.25,2.8,2.8,0,0,0-.5.69,0.74,0.74,0,0,0,.78-0.27c0.82,1,.55,1.48.55,1.48Z" transform="translate(-952.25 -1187.7)"/>
      <path d="M999.75,1196.68h0a0,0,0,0,1,0-.05s0.25-.46-0.55-1.43a0.68,0.68,0,0,1-.77.28,1.9,1.9,0,0,1,.49-0.75,1,1,0,0,1-.21-1.12,0.38,0.38,0,0,0,0-.1,0,0,0,0,1,0,0,0,0,0,0,1,0,0,0.33,0.33,0,0,1,0,.14,1,1,0,0,0,.19,1.09,5.08,5.08,0,0,0-.49.71h0.06a1,1,0,0,0,.66-0.3c0.89,1,.62,1.51.61,1.53l0,0h0Z" transform="translate(-952.25 -1187.7)"/>
      <path class="d" d="M999.69,1195.93a0.67,0.67,0,0,1,.06-0.51,1.57,1.57,0,0,0,.32.24,1,1,0,0,1,.72.56Z" transform="translate(-952.25 -1187.7)"/>
      <path d="M1000.79,1196.26a0,0,0,0,1,0,0,0.72,0.72,0,0,0-.57-0.48,0.41,0.41,0,0,1-.14-0.06l-0.08-.05a0.81,0.81,0,0,1-.24-0.19,0.85,0.85,0,0,0,0,.47,0,0,0,0,1,0,.05,0,0,0,0,1-.05,0,0.7,0.7,0,0,1,.05-0.55l0.28,0.16,0.1,0.07,0.11,0a0.78,0.78,0,0,1,.63.55,0,0,0,0,1,0,0h0Z" transform="translate(-952.25 -1187.7)"/>
      <path class="d" d="M1000.42,1192.11s-0.12-.3-0.59,0c0.25,0,.5.16,0.59,0h0Z" transform="translate(-952.25 -1187.7)"/>
      <path d="M1000.25,1192.25h0l-0.21,0-0.21,0h-0.11l0.09-.06a0.76,0.76,0,0,1,.42-0.18,0.23,0.23,0,0,1,.24.17,0.21,0.21,0,0,1-.21.14h0Zm-0.31-.13,0.12,0,0.19,0h0a0.14,0.14,0,0,0,.14-0.08h0a0.39,0.39,0,0,0-.45,0h0Z" transform="translate(-952.25 -1187.7)"/>
      <path class="d" d="M1004.89,1193.34a5.75,5.75,0,0,0,1.86.16,1.11,1.11,0,1,0-1,.57,2.09,2.09,0,0,1-1.42-.13c1,0.32,1,.3,1.08.42a3.12,3.12,0,0,1-1.82-.28,7,7,0,0,0,1,.59c-0.31.14-.88,0.27-1.94-0.47a7.41,7.41,0,0,0,2.83,1.41c-0.48.71-2.35-.42-3.21-1a13.24,13.24,0,0,0,2.13,1.35,1.43,1.43,0,0,1-1.09-.07Z" transform="translate(-952.25 -1187.7)"/>
      <path d="M1004.06,1196.11h0a1.58,1.58,0,0,1-.78-0.18l0.07,0a1.89,1.89,0,0,0,.81.14l0.15,0a17.51,17.51,0,0,1-2.21-1.43h0l0,0c0-.07,0-0.07.22,0.05,0.79,0.53,2.69,1.69,3.16,1l-0.43-.11a5.19,5.19,0,0,1-2.4-1.25,0,0,0,0,1,0-.05,0,0,0,0,1,.05,0c1,0.72,1.57.61,1.9,0.47a0.45,0.45,0,0,1-.26-0.07,4,4,0,0,1-.61-0.37,0.28,0.28,0,0,1-.1-0.08,0,0,0,0,1,.06-0.05l0.09,0.07a3.72,3.72,0,0,0,1,.23,1.59,1.59,0,0,0,.66,0,0.74,0.74,0,0,0-.54-0.22l-0.06,0a1.64,1.64,0,0,1-.47-0.14,0,0,0,0,1,0-.05,0,0,0,0,1,0,0l0.46,0.14a2.22,2.22,0,0,0,.91,0,0.82,0.82,0,0,0-.3-0.15,2.39,2.39,0,0,1-.46-0.13,0,0,0,0,1,0-.05,0,0,0,0,1,0,0l0.21,0.06,0.23,0.07a1.26,1.26,0,0,0,1.19-.28,6.74,6.74,0,0,1-1.77-.19l0-.07a5.76,5.76,0,0,0,1.83.16,0,0,0,0,1,0,0,0,0,0,0,1,0,0,1.19,1.19,0,0,1-1.08.44l0.1,0.08a0.08,0.08,0,0,1,0,0,0.1,0.1,0,0,1,0,0,1.09,1.09,0,0,1-.55,0c0.19,0.06.2,0.09,0.23,0.18a0.13,0.13,0,0,1,0,.08,4.06,4.06,0,0,1-1.44-.14l0.35,0.19,0.26,0.15a1.37,1.37,0,0,1-1.47-.09,5.18,5.18,0,0,0,1.9.85,1,1,0,0,1,.47.18c-0.35.55-1.36,0.17-2.28-.33a5.47,5.47,0,0,0,1.16.68l0,0a0,0,0,0,1,0,0,0.43,0.43,0,0,1-.36.11h0Z" transform="translate(-952.25 -1187.7)"/>
      <path class="d" d="M1005.24,1194.66a4.73,4.73,0,0,1-.71,0h0.71Z" transform="translate(-952.25 -1187.7)"/>
      <path d="M1004.78,1194.72h-0.25a0,0,0,0,1,0,0,0,0,0,0,1,0,0,4.82,4.82,0,0,0,.7,0,0,0,0,0,1,0,0,0,0,0,0,1,0,0l-0.47,0h0Z" transform="translate(-952.25 -1187.7)"/>
      <path class="d" d="M994.92,1192.69a4.47,4.47,0,0,0,1.49.51,0.79,0.79,0,0,1-.29.16,1.31,1.31,0,0,0,.88.1l-0.25.23a1.1,1.1,0,0,0,.84-0.08,3.61,3.61,0,0,0-.21.29l0.31,0Z" transform="translate(-952.25 -1187.7)"/>
      <path d="M997.68,1194h0l-0.31,0a0.29,0.29,0,0,1,.09-0.23,1.12,1.12,0,0,1-.73,0,0.38,0.38,0,0,1,.15-0.21,1.31,1.31,0,0,1-.74-0.12,0.06,0.06,0,0,1,0,0s0,0,0,0a0.84,0.84,0,0,0,.19-0.08,5.24,5.24,0,0,1-1.39-.52,0,0,0,0,1,0-.05,0,0,0,0,1,.05,0,4.21,4.21,0,0,0,1.47.51,0,0,0,0,1,0,0,0,0,0,0,1,0,0,0.67,0.67,0,0,1-.21.13,1.22,1.22,0,0,0,.76.06,0,0,0,0,1,0,0,0,0,0,0,1,0,0l-0.24.22H997a1.23,1.23,0,0,0,.58-0.13,0,0,0,0,1,0,0,0,0,0,0,1,0,.05,3.27,3.27,0,0,0-.21.29l0.28,0a0,0,0,0,1,0,0,0,0,0,0,1,0,0h0Z" transform="translate(-952.25 -1187.7)"/>
      <path class="f" d="M981.14,1210.05s0.12-.05,0-0.05-0.12.05,0,.05h0Z" transform="translate(-952.25 -1187.7)"/>
    </g>
  </g>
</svg>
