<svg xmlns="http://www.w3.org/2000/svg" viewBox="0 0 358.08 216"><defs><style>.a{fill:#559f71;}.b{fill:#fbe551;}.c{fill:#516cb0;}.d{fill:#fff;}.e{fill:#f9fafc;}.f{fill:#201600;}</style></defs><title>Brazil</title><rect class="a" width="358.08" height="216"/><polygon class="b" points="178.91 26.61 31.2 108.29 178.91 188.44 179.21 188.44 326.91 108.29 179.21 26.61 178.91 26.61"/><ellipse class="c" cx="178.81" cy="108.02" rx="53.54" ry="53.56"/><path class="d" d="M452.6,308.62l-2.25,8.61s-35.92-38.4-103.54-30.44l3.07-9S409.71,268,452.6,308.62Z" transform="translate(-220.5 -191.5)"/><polygon class="e" points="196.06 89.17 196.58 90.83 198.28 90.83 196.91 91.85 197.43 93.5 196.06 92.48 194.68 93.5 195.21 91.85 193.83 90.83 195.53 90.83 196.06 89.17"/><polygon class="e" points="217.23 124.97 217.76 126.63 219.46 126.63 218.08 127.65 218.61 129.31 217.23 128.28 215.85 129.31 216.38 127.65 215 126.63 216.71 126.63 217.23 124.97"/><polygon class="e" points="180.16 129.95 180.68 131.61 182.38 131.61 181.01 132.63 181.53 134.28 180.16 133.26 178.78 134.28 179.31 132.63 177.93 131.61 179.63 131.61 180.16 129.95"/><polygon class="e" points="208.06 140.65 208.5 142.05 209.94 142.05 208.78 142.91 209.22 144.31 208.06 143.44 206.9 144.31 207.34 142.91 206.19 142.05 207.62 142.05 208.06 140.65"/><polygon class="e" points="215.7 133.28 216.14 134.68 217.57 134.68 216.41 135.54 216.86 136.94 215.7 136.07 214.54 136.94 214.98 135.54 213.82 134.68 215.25 134.68 215.7 133.28"/><polygon class="e" points="218.12 130.24 218.56 131.63 220 131.63 218.84 132.49 219.28 133.89 218.12 133.03 216.96 133.89 217.4 132.49 216.24 131.63 217.68 131.63 218.12 130.24"/><polygon class="e" points="193.16 104.53 193.53 105.69 194.72 105.69 193.75 106.41 194.12 107.57 193.16 106.86 192.19 107.57 192.56 106.41 191.6 105.69 192.79 105.69 193.16 104.53"/><polygon class="e" points="179.4 114.12 179.82 115.47 181.2 115.47 180.09 116.31 180.51 117.67 179.4 116.83 178.28 117.67 178.71 116.31 177.59 115.47 178.97 115.47 179.4 114.12"/><polygon class="e" points="160.08 108.11 160.5 109.46 161.88 109.46 160.76 110.3 161.19 111.66 160.08 110.82 158.96 111.66 159.39 110.3 158.27 109.46 159.65 109.46 160.08 108.11"/><polygon class="e" points="140.34 118.06 140.87 119.79 142.6 119.79 141.2 120.86 141.74 122.59 140.34 121.52 138.93 122.59 139.47 120.86 138.06 119.79 139.8 119.79 140.34 118.06"/><polygon class="e" points="135.24 95.75 135.77 97.48 137.51 97.48 136.1 98.55 136.64 100.28 135.24 99.21 133.83 100.28 134.37 98.55 132.97 97.48 134.7 97.48 135.24 95.75"/><polygon class="e" points="159.06 134.59 159.59 136.25 161.27 136.25 159.91 137.27 160.43 138.93 159.06 137.9 157.7 138.93 158.22 137.27 156.86 136.25 158.54 136.25 159.06 134.59"/><polygon class="e" points="185.8 119.77 186.22 121.13 187.6 121.13 186.49 121.97 186.91 123.33 185.8 122.49 184.68 123.33 185.11 121.97 183.99 121.13 185.37 121.13 185.8 119.77"/><polygon class="e" points="196.78 143.43 197.15 144.59 198.35 144.59 197.38 145.31 197.75 146.47 196.78 145.75 195.82 146.47 196.19 145.31 195.22 144.59 196.41 144.59 196.78 143.43"/><polygon class="e" points="200.04 136.05 200.41 137.21 201.6 137.21 200.64 137.93 201.01 139.09 200.04 138.38 199.08 139.09 199.44 137.93 198.48 137.21 199.67 137.21 200.04 136.05"/><polygon class="e" points="174.61 119.56 174.98 120.72 176.17 120.72 175.21 121.44 175.58 122.6 174.61 121.88 173.65 122.6 174.01 121.44 173.05 120.72 174.24 120.72 174.61 119.56"/><polygon class="e" points="145.47 115.6 145.78 116.59 146.76 116.59 145.96 117.2 146.27 118.19 145.47 117.58 144.67 118.19 144.97 117.2 144.17 116.59 145.16 116.59 145.47 115.6"/><polygon class="e" points="208.04 136.05 208.41 137.21 209.6 137.21 208.64 137.93 209.01 139.09 208.04 138.38 207.08 139.09 207.44 137.93 206.48 137.21 207.67 137.21 208.04 136.05"/><polygon class="e" points="208.05 145.16 208.37 146.17 209.41 146.17 208.56 146.8 208.89 147.81 208.05 147.18 207.21 147.81 207.53 146.8 206.69 146.17 207.72 146.17 208.05 145.16"/><polygon class="e" points="151.16 123.21 151.58 124.55 152.92 124.55 151.83 125.38 152.25 126.72 151.16 125.89 150.07 126.72 150.49 125.38 149.4 124.55 150.74 124.55 151.16 123.21"/><polygon class="e" points="133.56 123.21 133.97 124.55 135.32 124.55 134.23 125.38 134.65 126.72 133.56 125.89 132.47 126.72 132.89 125.38 131.8 124.55 133.14 124.55 133.56 123.21"/><polygon class="e" points="178.4 123.86 178.73 124.87 179.76 124.87 178.92 125.5 179.24 126.51 178.4 125.88 177.56 126.51 177.88 125.5 177.04 124.87 178.08 124.87 178.4 123.86"/><polygon class="e" points="149.73 130.27 150.05 131.28 151.09 131.28 150.25 131.9 150.57 132.91 149.73 132.29 148.89 132.91 149.21 131.9 148.37 131.28 149.41 131.28 149.73 130.27"/><polygon class="e" points="224.37 126 224.69 127.01 225.73 127.01 224.89 127.64 225.21 128.65 224.37 128.02 223.53 128.65 223.85 127.64 223.01 127.01 224.05 127.01 224.37 126"/><polygon class="e" points="212.04 136.05 212.41 137.21 213.6 137.21 212.64 137.93 213.01 139.09 212.04 138.38 211.08 139.09 211.44 137.93 210.48 137.21 211.67 137.21 212.04 136.05"/><polygon class="e" points="192.25 135.73 192.62 136.89 193.81 136.89 192.84 137.61 193.22 138.77 192.25 138.06 191.28 138.77 191.65 137.61 190.69 136.89 191.88 136.89 192.25 135.73"/><polygon class="e" points="179.87 147.38 180.04 147.93 180.6 147.93 180.15 148.27 180.32 148.83 179.87 148.48 179.42 148.83 179.59 148.27 179.14 147.93 179.7 147.93 179.87 147.38"/><path class="f" d="M355.54,281.3a1.72,1.72,0,0,0,.4,1.23,1.43,1.43,0,0,0,2,0,1.75,1.75,0,0,0,.39-1.25,1.73,1.73,0,0,0-.38-1.23,1.49,1.49,0,0,0-2,0A1.73,1.73,0,0,0,355.54,281.3Zm-1.05,0a2.89,2.89,0,0,1,.23-1.22,2.25,2.25,0,0,1,.47-0.66,2,2,0,0,1,.66-0.43,2.94,2.94,0,0,1,1.09-.19,2.46,2.46,0,0,1,1.79.65,2.47,2.47,0,0,1-1.78,4.29,2.47,2.47,0,0,1-1.8-.65A2.38,2.38,0,0,1,354.49,281.33Z" transform="translate(-220.5 -191.5)"/><path class="f" d="M410.32,289.63a1.72,1.72,0,0,0,.4,1.23,1.43,1.43,0,0,0,2,0,1.75,1.75,0,0,0,.39-1.25,1.73,1.73,0,0,0-.38-1.23,1.49,1.49,0,0,0-2,0A1.73,1.73,0,0,0,410.32,289.63Zm-1.05,0a2.89,2.89,0,0,1,.23-1.22,2.26,2.26,0,0,1,.47-0.66,2,2,0,0,1,.66-0.43,2.94,2.94,0,0,1,1.09-.19,2.46,2.46,0,0,1,1.79.65,2.47,2.47,0,0,1-1.78,4.29,2.46,2.46,0,0,1-1.8-.65A2.38,2.38,0,0,1,409.27,289.66Z" transform="translate(-220.5 -191.5)"/><path class="f" d="M362.57,280.71h0.89a5.5,5.5,0,0,0,1.08-.06,0.65,0.65,0,0,0,.34-0.21,0.57,0.57,0,0,0,.12-0.37,0.53,0.53,0,0,0-.16-0.41,0.8,0.8,0,0,0-.45-0.2l-0.88,0h-0.94v1.26Zm-1.2,2.89v-5h2.53a5.15,5.15,0,0,1,1.39.13,1.35,1.35,0,0,1,.69.48,1.27,1.27,0,0,1,.26.79,1.21,1.21,0,0,1-.39.93,2,2,0,0,1-1.17.46,2.79,2.79,0,0,1,.64.42,5.87,5.87,0,0,1,.68.81l0.73,1h-1.44l-0.86-1.09a7.12,7.12,0,0,0-.64-0.74,0.94,0.94,0,0,0-.36-0.21,2.29,2.29,0,0,0-.61-0.06h-0.24v2.09h-1.2Z" transform="translate(-220.5 -191.5)"/><path class="f" d="M404.75,286.71l0.84,0.28a5.5,5.5,0,0,0,1,.28,0.65,0.65,0,0,0,.38-0.09,0.57,0.57,0,0,0,.23-0.31,0.54,0.54,0,0,0,0-.44,0.8,0.8,0,0,0-.37-0.33c-0.09,0-.36-0.14-0.83-0.29l-0.89-.29Zm-2,2.36,1.57-4.74,2.4,0.8a5.14,5.14,0,0,1,1.27.56,1.35,1.35,0,0,1,.51.67,1.26,1.26,0,0,1,0,.83,1.21,1.21,0,0,1-.66.76,2,2,0,0,1-1.26.07,2.8,2.8,0,0,1,.48.6,5.88,5.88,0,0,1,.39,1l0.38,1.15-1.36-.45-0.48-1.3a7,7,0,0,0-.37-0.9,0.94,0.94,0,0,0-.28-0.31,2.29,2.29,0,0,0-.56-0.25l-0.23-.08-0.66,2Z" transform="translate(-220.5 -191.5)"/><path class="f" d="M423.35,294.1l0.78,0.41a5.53,5.53,0,0,0,1,.45,0.65,0.65,0,0,0,.39,0,0.57,0.57,0,0,0,.28-0.27,0.54,0.54,0,0,0,0-.43,0.8,0.8,0,0,0-.31-0.38c-0.08-.06-0.34-0.2-0.77-0.42l-0.83-.44Zm-2.41,2,2.33-4.41,2.23,1.18a5.13,5.13,0,0,1,1.16.77,1.36,1.36,0,0,1,.39.75,1.27,1.27,0,0,1-.14.82,1.21,1.21,0,0,1-.78.64,2,2,0,0,1-1.25-.14,2.79,2.79,0,0,1,.37.67,5.88,5.88,0,0,1,.22,1l0.19,1.2-1.27-.67-0.26-1.36a7,7,0,0,0-.22-0.95,0.93,0.93,0,0,0-.22-0.35,2.3,2.3,0,0,0-.51-0.33L423,294.8l-1,1.85Z" transform="translate(-220.5 -191.5)"/><path class="f" d="M369.22,279.53v3.33h0.85a3.48,3.48,0,0,0,.69,0,1.1,1.1,0,0,0,.46-0.21,1,1,0,0,0,.3-0.48,2.92,2.92,0,0,0,.12-0.92,2.68,2.68,0,0,0-.12-0.89,1,1,0,0,0-.85-0.72,5.85,5.85,0,0,0-.94,0h-0.51Zm-1.14-.85h2.08a4.55,4.55,0,0,1,1.07.1,1.93,1.93,0,0,1,.85.46,2.15,2.15,0,0,1,.54.82,3.34,3.34,0,0,1,.18,1.19,3,3,0,0,1-.17,1.07,2.19,2.19,0,0,1-.6.89,2.08,2.08,0,0,1-.8.4,3.83,3.83,0,0,1-1,.11h-2.14v-5Z" transform="translate(-220.5 -191.5)"/><polygon class="f" points="154.08 92.38 154.29 87.35 158.46 87.53 158.42 88.38 155.39 88.25 155.35 89.36 158.16 89.48 158.12 90.33 155.31 90.21 155.25 91.58 158.39 91.71 158.36 92.56 154.08 92.38"/><polygon class="f" points="206.07 107.57 208.41 103.12 212.1 105.06 211.7 105.81 209.02 104.4 208.5 105.39 210.99 106.7 210.6 107.45 208.1 106.14 207.47 107.35 210.25 108.81 209.85 109.56 206.07 107.57"/><polygon class="f" points="169.48 94.43 170.26 90.32 173.66 90.97 173.53 91.66 171.06 91.19 170.88 92.1 173.18 92.54 173.05 93.23 170.75 92.8 170.54 93.91 173.1 94.4 172.97 95.09 169.48 94.43"/><polygon class="f" points="160.2 92.99 160.78 87.99 162.32 88.17 162.84 91.69 164.14 88.38 165.68 88.56 165.1 93.56 164.15 93.45 164.6 89.52 163.13 93.33 162.15 93.22 161.61 89.17 161.15 93.1 160.2 92.99"/><path class="f" d="M443.71,307.54a1.72,1.72,0,0,0-.09,1.29,1.44,1.44,0,0,0,1.88.76,1.75,1.75,0,0,0,.83-1,1.73,1.73,0,0,0,.1-1.28,1.49,1.49,0,0,0-1.9-.76A1.73,1.73,0,0,0,443.71,307.54Zm-1-.36a2.89,2.89,0,0,1,.67-1,2.28,2.28,0,0,1,.68-0.43,2,2,0,0,1,.77-0.15,2.94,2.94,0,0,1,1.08.23,2.46,2.46,0,0,1,1.42,1.28,2.47,2.47,0,0,1-3.25,3.31,2.47,2.47,0,0,1-1.43-1.28A2.38,2.38,0,0,1,442.72,307.18Z" transform="translate(-220.5 -191.5)"/><path class="f" d="M437.37,303.34l1,0.55a1.12,1.12,0,0,0-.07.81,1.35,1.35,0,0,0,.55.65,1.41,1.41,0,0,0,.79.31,0.56,0.56,0,0,0,.49-0.23,0.39,0.39,0,0,0,.07-0.31,1,1,0,0,0-.21-0.4l-0.62-.69a3.31,3.31,0,0,1-.78-1.12,1.2,1.2,0,0,1,.14-1.1,1.13,1.13,0,0,1,.6-0.43,1.5,1.5,0,0,1,.86,0,3.17,3.17,0,0,1,1,.49,2.6,2.6,0,0,1,1.07,1.24,1.36,1.36,0,0,1-.15,1.21l-1-.62a0.82,0.82,0,0,0,.05-0.62,1.26,1.26,0,0,0-.49-0.54,1.44,1.44,0,0,0-.73-0.29,0.35,0.35,0,0,0-.32.15,0.36,0.36,0,0,0,0,.34,3.25,3.25,0,0,0,.67.86,6.06,6.06,0,0,1,.81,1,1.5,1.5,0,0,1,.23.76,1.37,1.37,0,0,1-.92,1.26,1.59,1.59,0,0,1-.93,0,3.63,3.63,0,0,1-1.11-.55,2.69,2.69,0,0,1-1.1-1.28A1.77,1.77,0,0,1,437.37,303.34Z" transform="translate(-220.5 -191.5)"/><path class="f" d="M432.35,300.2l1,0.55a1.12,1.12,0,0,0-.07.81,1.35,1.35,0,0,0,.55.65,1.41,1.41,0,0,0,.79.31,0.56,0.56,0,0,0,.49-0.23,0.39,0.39,0,0,0,.07-0.31,1,1,0,0,0-.21-0.4l-0.62-.69a3.31,3.31,0,0,1-.78-1.12,1.2,1.2,0,0,1,.14-1.1,1.13,1.13,0,0,1,.6-0.43,1.49,1.49,0,0,1,.86,0,3.18,3.18,0,0,1,1,.49A2.6,2.6,0,0,1,437.2,300a1.36,1.36,0,0,1-.15,1.21l-1-.62a0.82,0.82,0,0,0,.05-0.62,1.26,1.26,0,0,0-.49-0.54,1.43,1.43,0,0,0-.73-0.29,0.35,0.35,0,0,0-.32.15,0.36,0.36,0,0,0,0,.34,3.25,3.25,0,0,0,.67.86,6.06,6.06,0,0,1,.81,1,1.5,1.5,0,0,1,.23.76,1.37,1.37,0,0,1-.92,1.26,1.59,1.59,0,0,1-.93,0,3.62,3.62,0,0,1-1.11-.55,2.69,2.69,0,0,1-1.1-1.28A1.77,1.77,0,0,1,432.35,300.2Z" transform="translate(-220.5 -191.5)"/><path class="f" d="M417.68,292.75L418,292l2.08,1-0.83,1.79a2.94,2.94,0,0,1-1.11.07,3.77,3.77,0,0,1-1.27-.34,3.06,3.06,0,0,1-1.18-.91,2.13,2.13,0,0,1-.45-1.24,2.85,2.85,0,0,1,.27-1.33,2.7,2.7,0,0,1,.9-1.1,2.28,2.28,0,0,1,1.31-.4,2.89,2.89,0,0,1,1.25.31,2.7,2.7,0,0,1,1.24,1,1.73,1.73,0,0,1,.2,1.26l-1-.28a1.06,1.06,0,0,0-.14-0.7,1.38,1.38,0,0,0-.61-0.52,1.51,1.51,0,0,0-1.19-.1,1.67,1.67,0,0,0-.9.94,1.84,1.84,0,0,0-.18,1.38,1.45,1.45,0,0,0,.81.87,2,2,0,0,0,.67.18,2.44,2.44,0,0,0,.65,0l0.27-.57Z" transform="translate(-220.5 -191.5)"/><path class="f" d="M399.41,283.75l-0.47,1.36,0.52,0.18a2.57,2.57,0,0,0,.78.18,0.66,0.66,0,0,0,.38-0.13,0.69,0.69,0,0,0,.24-0.34,0.66,0.66,0,0,0,0-.48,0.69,0.69,0,0,0-.31-0.34,4.92,4.92,0,0,0-.68-0.27Zm-2.32,3.63,1.64-4.77,1.53,0.53a5.83,5.83,0,0,1,1.11.46,1.31,1.31,0,0,1,.52.7,1.58,1.58,0,0,1,0,1,1.67,1.67,0,0,1-.41.69,1.38,1.38,0,0,1-.56.33,1.44,1.44,0,0,1-.57.06,5.72,5.72,0,0,1-1-.27l-0.62-.21L398,287.71Z" transform="translate(-220.5 -191.5)"/></svg>