<svg xmlns="http://www.w3.org/2000/svg" viewBox="0 0 216.37 144.33"><defs><style>.a,.e{fill:#fff;}.a,.b,.c{stroke:#000;stroke-width:0.25px;}.b{fill:#dc7d43;}.c{fill:#397c53;}.d{fill:#002144;}</style></defs><title>India</title><rect class="a" x="0.13" y="48.15" width="216.12" height="48.03"/><rect class="b" x="0.13" y="0.13" width="216.12" height="48.03"/><rect class="c" x="0.13" y="96.18" width="216.12" height="48.03"/><circle class="d" cx="108.18" cy="72.16" r="22.3"/><path class="d" d="M464.5,277.5" transform="translate(-356.32 -205.34)"/><path class="e" d="M468.36,258.09a1.28,1.28,0,0,1-1.44,1.1,1.3,1.3,0,0,1-1.14-1.43,17.09,17.09,0,0,0-2.59,0,1.28,1.28,0,0,1-1.1,1.44,1.3,1.3,0,0,1-1.47-1.09,17.09,17.09,0,0,0-2.5.66,1.28,1.28,0,0,1-.69,1.67,1.3,1.3,0,0,1-1.7-.68,17.08,17.08,0,0,0-2.24,1.29,1.28,1.28,0,0,1-.23,1.79,1.3,1.3,0,0,1-1.82-.21,17.11,17.11,0,0,0-1.83,1.82,1.28,1.28,0,0,1,.24,1.79,1.3,1.3,0,0,1-1.81.27,17.09,17.09,0,0,0-1.3,2.24,1.28,1.28,0,0,1,.69,1.67,1.3,1.3,0,0,1-1.68.72,17.07,17.07,0,0,0-.68,2.5,1.28,1.28,0,0,1,1.1,1.43,1.3,1.3,0,0,1-1.43,1.14,17.1,17.1,0,0,0,0,2.59,1.28,1.28,0,0,1,1.44,1.1,1.3,1.3,0,0,1-1.09,1.47,17.1,17.1,0,0,0,.66,2.5,1.28,1.28,0,0,1,1.67.69,1.3,1.3,0,0,1-.68,1.7,17.1,17.1,0,0,0,1.29,2.24,1.28,1.28,0,0,1,1.79.23,1.3,1.3,0,0,1-.21,1.82,17.11,17.11,0,0,0,1.82,1.83,1.28,1.28,0,0,1,1.79-.24,1.3,1.3,0,0,1,.27,1.81,17.09,17.09,0,0,0,2.24,1.3,1.28,1.28,0,0,1,1.67-.69,1.3,1.3,0,0,1,.72,1.68,17.11,17.11,0,0,0,2.5.68,1.28,1.28,0,0,1,1.43-1.1,1.3,1.3,0,0,1,1.14,1.43,17.1,17.1,0,0,0,2.59,0,1.28,1.28,0,0,1,1.1-1.44,1.3,1.3,0,0,1,1.47,1.09,17.11,17.11,0,0,0,2.5-.66,1.28,1.28,0,0,1,.69-1.67,1.3,1.3,0,0,1,1.7.68,17.09,17.09,0,0,0,2.24-1.29,1.28,1.28,0,0,1,.23-1.79,1.3,1.3,0,0,1,1.82.21,17.09,17.09,0,0,0,1.83-1.82,1.28,1.28,0,0,1-.24-1.79,1.3,1.3,0,0,1,1.81-.27,17.08,17.08,0,0,0,1.3-2.24,1.28,1.28,0,0,1-.69-1.67,1.3,1.3,0,0,1,1.68-.72,17.09,17.09,0,0,0,.68-2.5,1.28,1.28,0,0,1-1.1-1.44,1.3,1.3,0,0,1,1.43-1.13,17.09,17.09,0,0,0,0-2.59,1.28,1.28,0,0,1-1.44-1.1,1.3,1.3,0,0,1,1.09-1.47,17.12,17.12,0,0,0-.66-2.5,1.28,1.28,0,0,1-1.67-.69,1.3,1.3,0,0,1,.68-1.7,17.12,17.12,0,0,0-1.29-2.24,1.28,1.28,0,0,1-1.79-.23,1.3,1.3,0,0,1,.21-1.82,17.09,17.09,0,0,0-1.82-1.83,1.28,1.28,0,0,1-1.79.24,1.3,1.3,0,0,1-.27-1.81,17.1,17.1,0,0,0-2.24-1.3,1.28,1.28,0,0,1-1.67.69,1.3,1.3,0,0,1-.72-1.68A17.07,17.07,0,0,0,468.36,258.09Z" transform="translate(-356.32 -205.34)"/><path class="d" d="M464.5,277.5c0.28-3.82.09-5.81,0.71-8.33-0.41-3.37-.5-9.45-0.71-11.46-0.21,2-.31,8.1-0.71,11.46C464.41,271.69,464.22,273.68,464.5,277.5Z" transform="translate(-356.32 -205.34)"/><path class="d" d="M464.5,277.5c-0.72-3.76-1.41-5.64-1.47-8.23-1.27-3.15-2.93-9-3.66-10.89,0.31,2,1.8,7.9,2.28,11.26C462.91,271.91,463.24,273.88,464.5,277.5Z" transform="translate(-356.32 -205.34)"/><path class="d" d="M464.5,277.5c-1.67-3.45-2.82-5.08-3.55-7.57-2-2.71-5.16-7.94-6.35-9.57,0.82,1.85,3.78,7.16,5.11,10.28C461.51,272.52,462.35,274.33,464.5,277.5Z" transform="translate(-356.32 -205.34)"/><path class="d" d="M464.5,277.5c-2.51-2.9-4-4.17-5.38-6.39-2.67-2.09-7-6.33-8.61-7.6,1.27,1.57,5.51,5.94,7.6,8.61C460.33,273.46,461.6,275,464.5,277.5Z" transform="translate(-356.32 -205.34)"/><path class="d" d="M464.5,277.5c-3.17-2.15-5-3-6.86-4.78-3.12-1.33-8.44-4.29-10.28-5.11,1.63,1.19,6.86,4.31,9.57,6.35C459.42,274.68,461.05,275.83,464.5,277.5Z" transform="translate(-356.32 -205.34)"/><path class="d" d="M464.5,277.5c-3.62-1.26-5.59-1.59-7.86-2.85-3.36-.48-9.26-2-11.26-2.28,1.88,0.73,7.74,2.39,10.89,3.66C458.86,276.09,460.74,276.78,464.5,277.5Z" transform="translate(-356.32 -205.34)"/><path class="d" d="M464.5,277.5c-3.82-.28-5.81-0.09-8.33-0.71-3.37.41-9.45,0.5-11.46,0.71,2,0.21,8.1.31,11.46,0.71C458.69,277.59,460.68,277.78,464.5,277.5Z" transform="translate(-356.32 -205.34)"/><path class="d" d="M464.5,277.5c-3.76.72-5.64,1.41-8.23,1.47-3.15,1.27-9,2.93-10.89,3.66,2-.31,7.9-1.8,11.26-2.28C458.91,279.09,460.88,278.76,464.5,277.5Z" transform="translate(-356.32 -205.34)"/><path class="d" d="M464.5,277.5c-3.45,1.67-5.08,2.82-7.57,3.55-2.71,2-7.94,5.16-9.57,6.35,1.85-.82,7.17-3.78,10.28-5.11C459.52,280.49,461.33,279.65,464.5,277.5Z" transform="translate(-356.32 -205.34)"/><path class="d" d="M464.5,277.5c-2.9,2.51-4.17,4-6.39,5.38-2.09,2.67-6.33,7-7.6,8.61,1.57-1.27,5.94-5.51,8.61-7.6C460.46,281.67,462,280.4,464.5,277.5Z" transform="translate(-356.32 -205.34)"/><path class="d" d="M464.5,277.5c-2.15,3.17-3,5-4.78,6.86-1.33,3.12-4.29,8.44-5.11,10.28,1.19-1.63,4.31-6.86,6.35-9.57C461.68,282.58,462.83,280.95,464.5,277.5Z" transform="translate(-356.32 -205.34)"/><path class="d" d="M464.5,277.5c-1.26,3.62-1.59,5.59-2.85,7.86-0.48,3.36-2,9.26-2.28,11.26,0.73-1.88,2.39-7.74,3.66-10.89C463.09,283.14,463.78,281.26,464.5,277.5Z" transform="translate(-356.32 -205.34)"/><path class="d" d="M464.5,277.5c-0.28,3.82-.09,5.81-0.71,8.33,0.41,3.37.5,9.45,0.71,11.46,0.21-2,.31-8.1.71-11.46C464.59,283.31,464.78,281.32,464.5,277.5Z" transform="translate(-356.32 -205.34)"/><path class="d" d="M464.5,277.5c0.72,3.76,1.41,5.64,1.47,8.23,1.27,3.15,2.93,9,3.66,10.89-0.31-2-1.8-7.9-2.28-11.26C466.09,283.09,465.76,281.12,464.5,277.5Z" transform="translate(-356.32 -205.34)"/><path class="d" d="M464.5,277.5c1.67,3.45,2.82,5.08,3.55,7.57,2,2.71,5.16,7.94,6.35,9.57-0.82-1.85-3.78-7.16-5.11-10.28C467.49,282.48,466.65,280.67,464.5,277.5Z" transform="translate(-356.32 -205.34)"/><path class="d" d="M464.5,277.5c2.51,2.9,4,4.17,5.38,6.39,2.67,2.09,7,6.33,8.61,7.6-1.27-1.57-5.51-5.94-7.6-8.61C468.67,281.54,467.4,280,464.5,277.5Z" transform="translate(-356.32 -205.34)"/><path class="d" d="M464.5,277.5c3.17,2.15,5,3,6.86,4.78,3.12,1.33,8.44,4.29,10.28,5.11-1.63-1.19-6.86-4.31-9.57-6.35C469.58,280.32,467.95,279.17,464.5,277.5Z" transform="translate(-356.32 -205.34)"/><path class="d" d="M464.5,277.5c3.62,1.26,5.59,1.59,7.86,2.85,3.36,0.48,9.26,2,11.26,2.28-1.88-.73-7.74-2.39-10.89-3.66C470.14,278.91,468.26,278.22,464.5,277.5Z" transform="translate(-356.32 -205.34)"/><path class="d" d="M464.5,277.5c3.82,0.28,5.81.09,8.33,0.71,3.37-.41,9.45-0.5,11.46-0.71-2-.21-8.1-0.31-11.46-0.71C470.31,277.41,468.32,277.22,464.5,277.5Z" transform="translate(-356.32 -205.34)"/><path class="d" d="M464.5,277.5c3.76-.72,5.64-1.41,8.23-1.47,3.15-1.27,9-2.93,10.89-3.66-2,.31-7.9,1.8-11.26,2.28C470.09,275.91,468.12,276.24,464.5,277.5Z" transform="translate(-356.32 -205.34)"/><path class="d" d="M464.5,277.5c3.45-1.67,5.08-2.82,7.57-3.55,2.71-2,7.94-5.16,9.57-6.35-1.85.82-7.17,3.78-10.28,5.11C469.48,274.51,467.67,275.35,464.5,277.5Z" transform="translate(-356.32 -205.34)"/><path class="d" d="M464.5,277.5c2.9-2.51,4.17-4,6.39-5.38,2.09-2.67,6.33-7,7.6-8.61-1.57,1.27-5.94,5.51-8.61,7.6C468.54,273.33,467,274.6,464.5,277.5Z" transform="translate(-356.32 -205.34)"/><path class="d" d="M464.5,277.5c2.15-3.17,3-5,4.78-6.86,1.33-3.12,4.29-8.44,5.11-10.28-1.19,1.63-4.31,6.86-6.35,9.57C467.32,272.42,466.17,274.05,464.5,277.5Z" transform="translate(-356.32 -205.34)"/><path class="d" d="M464.5,277.5c1.26-3.62,1.59-5.59,2.85-7.86,0.48-3.36,2-9.26,2.28-11.26-0.73,1.88-2.39,7.74-3.66,10.89C465.91,271.86,465.22,273.74,464.5,277.5Z" transform="translate(-356.32 -205.34)"/></svg>