<svg xmlns="http://www.w3.org/2000/svg" viewBox="0 0 288.28 144.27"><defs><style>.a{fill:#fff;}.a,.b,.c{stroke:#000;stroke-width:0.25px;}.b{fill:#d76547;}.c{fill:#1b2850;}.d{fill:#fcdf4b;}</style></defs><title>Malaysia</title><rect class="a" x="0.13" y="0.13" width="288.03" height="144.02"/><rect class="b" x="0.13" y="0.13" width="288.03" height="10.29"/><rect class="b" x="0.13" y="20.7" width="288.03" height="10.29"/><rect class="b" x="0.13" y="41.27" width="288.03" height="10.29"/><rect class="b" x="0.13" y="61.84" width="288.03" height="10.29"/><rect class="b" x="0.13" y="82.53" width="288.03" height="10.17"/><rect class="b" x="0.13" y="102.99" width="288.03" height="10.29"/><rect class="b" x="0.13" y="123.56" width="288.03" height="10.29"/><rect class="c" x="0.13" y="0.13" width="143.5" height="82.4"/><polygon class="d" points="92.99 67.49 95.3 51.41 104.34 64.89 99.43 49.47 113.35 57.69 102.24 45.84 118.41 47.16 103.28 41.39 118.34 35.66 102.18 36.9 113.42 25.06 99.43 33.4 104.34 17.85 95.3 31.39 92.99 15.29 90.69 31.39 81.64 17.85 86.56 33.4 72.57 25.06 83.81 36.9 67.65 35.66 82.71 41.39 67.58 47.16 83.75 45.84 72.64 57.69 86.56 49.47 81.64 64.89 90.69 51.41 92.99 67.49"/><path class="d" d="M396.9,221.29a27.07,27.07,0,0,0-10-1.9,27.37,27.37,0,1,0,0,54.73,28,28,0,0,0,9.81-1.85,30.41,30.41,0,0,1-17.57,5.46A31,31,0,1,1,396.9,221.29Z" transform="translate(-320.36 -205.37)"/></svg>