<svg xmlns="http://www.w3.org/2000/svg" viewBox="0 0 252.25 144.25"><defs><style>.a,.g{fill:#fff;}.a,.b,.c,.d,.e,.f,.g,.h,.i,.j,.k,.m,.n,.o{stroke:#000;}.a,.b,.c{stroke-width:0.25px;}.b,.k{fill:#d24a48;}.c,.j{fill:#397c49;}.d{fill:#3e9dd4;}.d,.e,.f,.g,.h,.i,.j,.k,.m,.n,.o{stroke-width:0.13px;}.e{fill:#eeb644;}.f{fill:none;}.h{fill:#786e55;}.i{fill:#b06a35;}.l,.o{fill:#608741;}.l{stroke:#a9bd60;stroke-width:0.06px;}.m{fill:#8e5629;}.n{fill:#eaac81;}</style></defs><title>Mexico</title><rect class="a" x="84.12" y="0.13" width="84" height="144"/><rect class="b" x="168.12" y="0.13" width="84" height="144"/><rect class="c" x="0.13" y="0.13" width="84" height="144"/><path class="d" d="M459.83,291.76c-2.7.75-3.87-1.41-4.29-3-0.3,1.41-.27,2.19-1.35,1.89s-4.41-1.8-5.22-2.1-1,.42.33,1.11,2.55,1.47,2.58,2-1.14,1.08-1.56,1.29a25.48,25.48,0,0,1,4.89.57c1.32,0.3,1.41,1.2-.75,2.64,5.49-.6,5.28,2.07,8.08,2,2,0,4.29,0,5.22,0,2.52-.09.66-1.11,3.09-1.71,1.71-.42,3.42-1,4.74-1.44-1.35-.3-2.1-0.63-2.1-0.93s2.7-1.32,4-1.86a5.54,5.54,0,0,0-2.91.06,18.22,18.22,0,0,1-6.57.39C465.14,292.34,462,292.85,459.83,291.76Z" transform="translate(-338.38 -205.38)"/><path class="e" d="M469.35,296.84a0.93,0.93,0,0,0,1.5,0,0.93,0.93,0,0,0-.27-1.32,4.56,4.56,0,0,0,0-3,0.93,0.93,0,0,0,.27-1.32,0.93,0.93,0,0,0-1.5,0,34.69,34.69,0,0,0-9,0,0.93,0.93,0,0,0-1.5,0,0.93,0.93,0,0,0,.27,1.32,4.56,4.56,0,0,0,0,3,0.93,0.93,0,0,0-.27,1.32,0.93,0.93,0,0,0,1.5,0A18.29,18.29,0,0,0,469.35,296.84Z" transform="translate(-338.38 -205.38)"/><path class="f" d="M459.69,295.85c0.53-.3,1.09.37,0.65,1" transform="translate(-338.38 -205.38)"/><path class="f" d="M460.34,291.1c0.45,0.62-.12,1.29-0.65,1" transform="translate(-338.38 -205.38)"/><path class="f" d="M470,295.85c-0.53-.3-1.09.37-0.65,1" transform="translate(-338.38 -205.38)"/><path class="f" d="M469.35,291.1c-0.45.62,0.12,1.29,0.65,1" transform="translate(-338.38 -205.38)"/><path class="f" d="M460.52,291.07c2-.12,2.55,6.45,4.68,6.33" transform="translate(-338.38 -205.38)"/><path class="f" d="M461.81,290.92c2-.15,2.91,6.72,5.16,6.39" transform="translate(-338.38 -205.38)"/><path class="f" d="M463.22,290.86c2-.15,3.09,6.63,5.07,6.24" transform="translate(-338.38 -205.38)"/><path class="g" d="M450.46,292a0.9,0.9,0,1,0,0,1.81A0.9,0.9,0,1,0,450.46,292Z" transform="translate(-338.38 -205.38)"/><path class="g" d="M455.27,288a0.9,0.9,0,1,0,0,1.81A0.9,0.9,0,1,0,455.27,288Z" transform="translate(-338.38 -205.38)"/><path class="g" d="M475.14,294.28a0.9,0.9,0,1,0,0,1.81A0.9,0.9,0,1,0,475.14,294.28Z" transform="translate(-338.38 -205.38)"/><path class="h" d="M448.81,287.92a1.58,1.58,0,0,0-1.89.18c-0.27.42,0.42,1.23,1.14,1.56a1.33,1.33,0,0,0,1.59-.24A1.25,1.25,0,0,0,448.81,287.92Z" transform="translate(-338.38 -205.38)"/><path class="h" d="M454.19,295.15a1.58,1.58,0,0,0-1.23,1.45c0.1,0.49,1.16.59,1.91,0.32a1.19,1.19,0,0,0,.88-1.31C455.57,295.1,455.09,294.86,454.19,295.15Z" transform="translate(-338.38 -205.38)"/><path class="h" d="M477.15,293.23c0.79-.23,1.66-1,1.47-1.5s-1.23-.46-2-0.21a1.25,1.25,0,0,0-1,1.21C475.78,293.25,476.25,293.5,477.15,293.23Z" transform="translate(-338.38 -205.38)"/><path class="i" d="M479.38,298.11a3.07,3.07,0,0,0-.54-1.78,0.55,0.55,0,0,0,.23-1,0.65,0.65,0,0,0-.86.09,0.61,0.61,0,0,0,.3.89,4.35,4.35,0,0,1,.11,2.19,4.48,4.48,0,0,1,2,.62,0.61,0.61,0,0,0,.58.73,0.65,0.65,0,0,0,.55-0.67,0.55,0.55,0,0,0-.95-0.34A3.54,3.54,0,0,0,479.38,298.11Z" transform="translate(-338.38 -205.38)"/><path class="i" d="M487.84,291.14a3.07,3.07,0,0,0-1.08-1.51,0.55,0.55,0,0,0-.09-1,0.65,0.65,0,0,0-.78.36,0.61,0.61,0,0,0,.57.74,4.35,4.35,0,0,1,.81,2,4.48,4.48,0,0,1,2,0,0.61,0.61,0,0,0,.78.51,0.65,0.65,0,0,0,.3-0.81,0.55,0.55,0,0,0-1,0A3.54,3.54,0,0,0,487.84,291.14Z" transform="translate(-338.38 -205.38)"/><path class="i" d="M492.58,281.79a3.83,3.83,0,0,0-1.29-1,0.55,0.55,0,0,0-.55-0.85,0.65,0.65,0,0,0-.53.68,0.61,0.61,0,0,0,.85.4,4.24,4.24,0,0,1,1.28,1.63,4.24,4.24,0,0,1,1.93-.75,0.61,0.61,0,0,0,.93.09,0.65,0.65,0,0,0-.11-0.86,0.55,0.55,0,0,0-.9.45A3.82,3.82,0,0,0,492.58,281.79Z" transform="translate(-338.38 -205.38)"/><path class="j" d="M492.12,282.88a4.69,4.69,0,0,0-.47-3.9c-0.93-1.35,0-3.06-.45-3.9a11.92,11.92,0,0,1,2,2.7c0.45-.87,1.62-2.67,2.55-2.94a6.27,6.27,0,0,0,.21,1.83c0.21,0.93-.85,2.29-1.74,3.09-0.6.54-1.49,0.92-1.76,3.38" transform="translate(-338.38 -205.38)"/><path class="j" d="M492.34,282.74c0.48-3.45-.48-7.61,1.23-9,1.23,1.92,1.29,4.32.51,5.34A8.06,8.06,0,0,0,492.34,282.74Z" transform="translate(-338.38 -205.38)"/><path class="j" d="M486.16,292.46c1.17-1,2.07-1.68,1.83-3.54-0.32-2.47.36-5.34,2.58-5.79a14.34,14.34,0,0,1,.18,3.21c0.93-.93,1.62-2,3.54-2.13-1.44,1.38-1.92,4.74-3.69,5.46a10.17,10.17,0,0,0-4.08,3.3" transform="translate(-338.38 -205.38)"/><path class="j" d="M487,292.07a5.87,5.87,0,0,0,1.65-3.48c0.44-2.35,1.82-5.52,3.83-6.39a7.73,7.73,0,0,1-1.7,5.85C489.37,289.78,487.51,291.46,487,292.07Z" transform="translate(-338.38 -205.38)"/><path class="j" d="M478.32,298.52a4.59,4.59,0,0,0,2.34-2.67c0.93-2.67,3.63-3.72,3.72-4.83a6,6,0,0,1-.33,3.66,7,7,0,0,1,3.27-1.32c-0.6,1.2,0,2.76-2.31,3.51s-3.33-.36-6.78,2.07" transform="translate(-338.38 -205.38)"/><path class="j" d="M478.38,298.64a33.72,33.72,0,0,0,4.17-4.08c1-1.23,3-2.94,4.92-2.94a8.69,8.69,0,0,1-5.52,5.31A10.47,10.47,0,0,0,478.38,298.64Z" transform="translate(-338.38 -205.38)"/><path class="j" d="M469.38,300.47c2.28-.42,2.82-3.72,7.38-3.12-0.66.6-1.2,2.16-2.16,2.7a12.33,12.33,0,0,1,3.84,1.2c-1.26-.18-4.14,2.1-6.54,1S469.86,300.89,469.38,300.47Z" transform="translate(-338.38 -205.38)"/><path class="j" d="M470.46,301.49c1.85,1.14,6.9-.42,8.59-3.24a12.08,12.08,0,0,0-5.94,1.38,5.94,5.94,0,0,1-3.72.48,12.08,12.08,0,0,0-9.67,1.86c-0.24.15,0.29,0.77,0.63,0.51C463.19,300.32,467.09,299.42,470.46,301.49Z" transform="translate(-338.38 -205.38)"/><path class="i" d="M450.28,298.25a4.93,4.93,0,0,0-.36-1.77c-0.21-.42-0.33-1.38.09-1.41a0.89,0.89,0,0,1,.54,1.23,3.36,3.36,0,0,0,.39,2.34" transform="translate(-338.38 -205.38)"/><path class="i" d="M450,296.19c-0.56-.2-0.71.08-0.5,0.51a0.75,0.75,0,0,0,1.28.21c0.36-.59.12-0.93-0.12-0.81A1,1,0,0,1,450,296.19Z" transform="translate(-338.38 -205.38)"/><path class="i" d="M450.14,298.43a4.93,4.93,0,0,1-1.8.13c-0.46-.09-1.42.06-1.33,0.47a0.89,0.89,0,0,0,1.33.19,3.36,3.36,0,0,1,2.36-.26" transform="translate(-338.38 -205.38)"/><path class="i" d="M448.09,298.75c-0.34-.48-0.12-0.71.36-0.62a0.75,0.75,0,0,1,.55,1.17c-0.47.5-.86,0.37-0.81,0.1A1,1,0,0,0,448.09,298.75Z" transform="translate(-338.38 -205.38)"/><path class="i" d="M441.85,291.06a5.33,5.33,0,0,0,.09-1.88c-0.1-.46,0-1.42.43-1.35a0.89,0.89,0,0,1,.23,1.33,3.38,3.38,0,0,0-.13,2.38" transform="translate(-338.38 -205.38)"/><path class="i" d="M442.11,288.93c-0.49-.32-0.71-0.1-0.6.38a0.75,0.75,0,0,0,1.19.51c0.49-.49.34-0.87,0.08-0.82A1,1,0,0,1,442.11,288.93Z" transform="translate(-338.38 -205.38)"/><path class="i" d="M441.85,291.16A5.41,5.41,0,0,1,440,291c-0.44-.17-1.41-0.19-1.39.23a0.89,0.89,0,0,0,1.28.41,4.3,4.3,0,0,1,2.69.19" transform="translate(-338.38 -205.38)"/><path class="i" d="M439.72,291.16c-0.25-.53,0-0.72.46-0.54a0.75,0.75,0,0,1,.34,1.25c-0.55.42-.91,0.21-0.82,0A1,1,0,0,0,439.72,291.16Z" transform="translate(-338.38 -205.38)"/><path class="i" d="M436.65,281.9a6.39,6.39,0,0,0,1-1.75c0.09-.46.58-1.29,0.94-1.06a0.89,0.89,0,0,1-.33,1.3,4.93,4.93,0,0,0-1.32,2.55" transform="translate(-338.38 -205.38)"/><path class="i" d="M437.87,280c-0.32-.49-0.61-0.37-0.7.1a0.75,0.75,0,0,0,.88.95c0.64-.25.66-0.66,0.4-0.71A1,1,0,0,1,437.87,280Z" transform="translate(-338.38 -205.38)"/><path class="i" d="M436.39,281.9a5.4,5.4,0,0,1-1.53-1.05c-0.3-.37-1.12-0.87-1.32-0.5a0.89,0.89,0,0,0,.9,1,4.3,4.3,0,0,1,2.22,1.53" transform="translate(-338.38 -205.38)"/><path class="i" d="M434.56,280.83c0.05-.59.37-0.62,0.67-0.24a0.75,0.75,0,0,1-.34,1.25c-0.69.08-.9-0.28-0.69-0.44A1,1,0,0,0,434.56,280.83Z" transform="translate(-338.38 -205.38)"/><path class="j" d="M437.14,284c-0.09-1.14-1.08-3.81-.63-4.32s0.44-.62.12-0.86,0-.72.5-0.9c0.72-.27,1-0.86.48-0.83-0.89.06-1.41-.09-0.89-0.39s1.33-.82,1.19-1.35a0.49,0.49,0,0,0-.69-0.17c-0.33.12-.66-0.08-0.27-0.35s0.11-.69.47-0.93,0.23-.57,0-0.54-0.78.62-1,.35-0.5-.56-0.77,0c-0.38.77,0.09,1.25-.15,1.61s-0.56.48-.86,0.09-0.74-.27-0.77.21a1.85,1.85,0,0,0,.51,1.23c0.32,0.45.26,0.8-.32,0.53s-0.84-.27-0.87.18,0.21,0.62.93,0.95,0.84,0.42.9,0.8c0.1,0.66.75,0.54,1,1.43a12.85,12.85,0,0,1,.66,3.56" transform="translate(-338.38 -205.38)"/><path class="j" d="M443.59,292c-2-1.07-2.76-1.92-2.82-3.06a2.37,2.37,0,0,1,.3-1.8c0.33-.39.15-0.81-0.27-0.45s-0.84.24-.75-0.39a3.9,3.9,0,0,0,.12-1.92c-0.24-.48-0.79-0.47-0.93.18a0.67,0.67,0,0,1-.57.57c-0.3,0-.27-0.66-0.15-1.08s-0.27-.72-0.48-0.36-0.69.72-.9,0.18-0.72-.24-0.62.12c-0.51-.18-0.57.21-0.39,0.45s0.33,0.6,0,.53-1-.3-0.86.2,1.2,0.86,1.89,1,0.74,0.45.42,0.56a1.85,1.85,0,0,1-1,0c-0.48-.07-0.57.3-0.2,0.71a3.38,3.38,0,0,0,1.82.57c0.72,0.07.78,0.62,0.47,0.6s-0.92-.23-1,0.09,0.8,0.66,1.43.6,0.71,0.08.84,0.26a10.18,10.18,0,0,0,3.47,2.94" transform="translate(-338.38 -205.38)"/><path class="j" d="M451.81,298.91a4.65,4.65,0,0,1-3.21-3.36c-0.06-1-.29-0.71-0.42-0.48s-0.57.53-.75-0.21c-0.23-.92-0.07-1.7-0.44-2.12s-0.75-.6-0.95.17-0.63.35-.62-0.3a2.33,2.33,0,0,0-.26-1.55c-0.29-.29-0.5-0.27-0.5.35s-0.27.74-.57,0.17-0.77-.87-0.74-0.26,0.29,1.16-.24,1.14-0.95.07-.51,0.48a2,2,0,0,0,1,.56,0.28,0.28,0,0,1,0,.56,1.07,1.07,0,0,1-.89-0.08c-0.27-.12-0.71,0-0.29.53a2.4,2.4,0,0,0,1.89.72c0.83,0,1.11.36,0.62,0.63a1.9,1.9,0,0,1-1.4.21c-0.54-.09-0.65.36,0.11,0.81a2.42,2.42,0,0,0,2.15.12c0.68-.23.71,0,0.6,0.24s-0.06.51,0.54,0.33a1.93,1.93,0,0,1,1.92.12,20.76,20.76,0,0,0,2.42,1.71" transform="translate(-338.38 -205.38)"/><path class="j" d="M469.71,302.3c-3-2.13-6.42-3.2-9.34-2.4-0.66.18-1.11,0.39-1.5-.27s-0.59-.39-0.75-0.18-0.63.21-1-.48a1.22,1.22,0,0,0-1.2-.87c-0.48,0-.65.3-0.39,0.75s0,0.8-.39.38a2.62,2.62,0,0,0-1.44-1c-0.47,0-.92.08-0.62,0.53s0.3,0.93-.24.51a1.84,1.84,0,0,0-1.44-.56c-0.74.11-.21,0.77-0.86,0.95a2.28,2.28,0,0,0-1,.56c-0.18.23-.2,0.83,1.26,0.6s1.52-.15,1.4.3-0.12,1,.71.8c1.05-.24,1.61-1,2-0.66,0.24,0.23-.05.57-0.27,0.8s0.47,0.7.95,0.33,1-1,1.37-.89,0,0.54-.11.78,0,0.75.59,0.47,0.95-2,2.75-1.79c0.53-1,4.76-1.49,8.24,1.4a1,1,0,0,0,.86.21C469.57,302.54,470,302.56,469.71,302.3Z" transform="translate(-338.38 -205.38)"/><path class="d" d="M465.18,302.49c0.76,0.58,1.72,1.08,1.92,1.73a2.29,2.29,0,0,0-.57.6,24.22,24.22,0,0,0-1.92-1.68A4.14,4.14,0,0,0,465.18,302.49Z" transform="translate(-338.38 -205.38)"/><path class="d" d="M463.16,301.41c-0.8.77-2.49,1.14-2.88,2.66a2.33,2.33,0,0,1,1.07-.15c0.1-.77,1.85-1.65,2.52-2.28A1.51,1.51,0,0,1,463.16,301.41Z" transform="translate(-338.38 -205.38)"/><path class="d" d="M463.8,301.63a1.05,1.05,0,0,1-1-1.31c0-1,.15-1.2,1-1.25,0.32,0,.28.64,0.28,1.22S464.21,301.71,463.8,301.63Z" transform="translate(-338.38 -205.38)"/><path class="k" d="M466,301.38c0.79,0.79,2.52,1.15,2.91,2.69a2.33,2.33,0,0,0-1.07-.15c-0.09-.7-1.57-1.5-2.33-2.12,0-.07,0-0.14.05-0.21A1.08,1.08,0,0,0,466,301.38Z" transform="translate(-338.38 -205.38)"/><path class="k" d="M465.58,301.59c-0.35,1.53-2.1,2.25-2.9,3.23a2.29,2.29,0,0,0-.57-0.6c0.28-.93,2.14-1.57,2.73-2.55A4.45,4.45,0,0,0,465.58,301.59Z" transform="translate(-338.38 -205.38)"/><path class="k" d="M465,301.66a1.12,1.12,0,0,0,1.32-1.34c0-1.08-.18-1.23-1.29-1.26,0.32,0,.28.65,0.28,1.23S465.43,301.74,465,301.66Z" transform="translate(-338.38 -205.38)"/><path class="g" d="M464.84,301.67c-0.59,1-2.45,1.62-2.73,2.55a1.67,1.67,0,0,0-.76-0.3c0.1-.77,1.86-1.65,2.52-2.29A5.57,5.57,0,0,0,464.84,301.67Z" transform="translate(-338.38 -205.38)"/><path class="g" d="M465.18,302.49c0.76,0.58,1.72,1.08,1.92,1.73a1.67,1.67,0,0,1,.76-0.3c-0.09-.7-1.57-1.5-2.33-2.12A3.08,3.08,0,0,1,465.18,302.49Z" transform="translate(-338.38 -205.38)"/><path class="g" d="M465,301.66c0.41,0.08.31-.79,0.31-1.37s0-1.24-.28-1.23h-1.22c0.32,0,.28.64,0.28,1.22s0.09,1.42-.31,1.34a6.11,6.11,0,0,0,.77,0H465Z" transform="translate(-338.38 -205.38)"/><path class="k" d="M445.09,279c-0.51.51-1.5,0-1.92-.45a1.26,1.26,0,0,1,0-2c0.66-.63,1.47-0.27,2,0.54A1.4,1.4,0,0,1,445.09,279Z" transform="translate(-338.38 -205.38)"/><path class="k" d="M442.11,277c-0.52-.41-0.52-0.68-0.2-1s0.59-.27.92,0.11,0.46,0.86.27,1S442.61,277.38,442.11,277Z" transform="translate(-338.38 -205.38)"/><path class="k" d="M442.07,277.51c-0.5-.14-0.58-0.33-0.44-0.64s0.33-.28.69-0.1,0.6,0.38.52,0.58S442.55,277.64,442.07,277.51Z" transform="translate(-338.38 -205.38)"/><path class="k" d="M443.6,275.67c0-.66.12-0.86,0.63-0.81s0.56,0.32.47,0.81-0.24.9-.62,0.89S443.6,276.32,443.6,275.67Z" transform="translate(-338.38 -205.38)"/><polygon class="k" points="103.91 68.62 104.64 69.89 104.33 70.07 103.59 68.8 103.91 68.62"/><path class="k" d="M442,273.25a0.51,0.51,0,0,0,0,1A0.51,0.51,0,0,0,442,273.25Z" transform="translate(-338.38 -205.38)"/><path class="k" d="M442.75,276.36c-0.42-.6-0.34-0.89.07-1.13s0.71-.11.94,0.4a0.93,0.93,0,0,1-.05,1.22C443.45,277,443.15,276.94,442.75,276.36Z" transform="translate(-338.38 -205.38)"/><line class="f" x1="105.36" y1="76" x2="104.7" y2="75.7"/><line class="f" x1="108.52" y1="72.73" x2="108.61" y2="73.63"/><line class="f" x1="110.74" y1="76.18" x2="111.4" y2="75.46"/><line class="f" x1="108.1" y1="79.64" x2="109.42" y2="79.13"/><line class="f" x1="106.08" y1="78.43" x2="107.2" y2="78.19"/><line class="f" x1="106.9" y1="77.95" x2="105.81" y2="77.98"/><line class="f" x1="112.9" y1="77.11" x2="112.54" y2="76.51"/><line class="f" x1="110.77" y1="81.2" x2="111.7" y2="80.99"/><line class="f" x1="113.47" y1="82.22" x2="114.13" y2="81.71"/><line class="f" x1="113.95" y1="82.46" x2="114.61" y2="81.8"/><line class="f" x1="119.29" y1="84.08" x2="120.04" y2="83.36"/><line class="f" x1="122.09" y1="84.59" x2="122.93" y2="83.72"/><line class="f" x1="119.86" y1="78.95" x2="118.66" y2="78.34"/><line class="f" x1="120.43" y1="77.41" x2="121.12" y2="78.55"/><line class="f" x1="120.97" y1="77.35" x2="121.39" y2="78.49"/><line class="f" x1="123.71" y1="77.86" x2="123.83" y2="78.95"/><line class="f" x1="124.4" y1="77.92" x2="124.37" y2="79.04"/><line class="f" x1="124.58" y1="84.23" x2="124.88" y2="83.54"/><line class="f" x1="125.36" y1="83.45" x2="125.09" y2="84.47"/><path class="f" d="M474.66,290a1.94,1.94,0,0,0,.45.93" transform="translate(-338.38 -205.38)"/><path class="f" d="M477.15,286.57a3.33,3.33,0,0,1,.21-1.17" transform="translate(-338.38 -205.38)"/><line class="f" x1="140.43" y1="80.24" x2="140.91" y2="79.16"/><line class="f" x1="140.58" y1="84.92" x2="141.63" y2="85.37"/><line class="f" x1="140.94" y1="84.74" x2="141.93" y2="84.92"/><line class="f" x1="142.95" y1="83.51" x2="144.15" y2="83.36"/><line class="f" x1="131.96" y1="84.68" x2="133.07" y2="85.34"/><line class="f" x1="132.35" y1="84.62" x2="133.7" y2="84.95"/><path class="j" d="M449.32,284.8c-3.06-.12-5.52-1.74-5.7-3.66a2.26,2.26,0,0,1,3.24-2.34c2.82,1.26,2.1,4.2,3.72,4.44Z" transform="translate(-338.38 -205.38)"/><path class="j" d="M457.25,285.34c-1.44-1.38-4.62-4-6.72-2.64s-1.43,2.87-.84,3.54c0.84,1,4.62,1.56,7.26.72Z" transform="translate(-338.38 -205.38)"/><path class="j" d="M467.45,286.12c-4.2-1.68-7.08-3.24-9.43-1.86s-1.5,3.42-.12,4.38,5.64,0.54,7.5.06S467.75,287.32,467.45,286.12Z" transform="translate(-338.38 -205.38)"/><path class="j" d="M473.94,288.16c2.28,0.09,2.17-.6,2.79-1.41s2.44-2,3.81-.87,1.8,2.82,0,3.81a5.53,5.53,0,0,1-4.89.69c-1.86-.57-2.94-0.93-3.33-1A2.83,2.83,0,0,0,473.94,288.16Z" transform="translate(-338.38 -205.38)"/><path class="j" d="M467.87,293c0.18-4.38,6.72-1.74,6.24-6-0.22-1.92-3.66-1.68-6.42-1s-2.94,3.66-3.06,7.14c0,0.24.54,0.24,1.62,0.24S467.9,293.39,467.87,293Z" transform="translate(-338.38 -205.38)"/><path class="k" d="M481.23,285.58c-0.84.51-1.05,1.14-.81,1.62s1.26,0.36,1.92,0a1.36,1.36,0,0,0,.75-1.65C482.79,285,481.92,285.16,481.23,285.58Z" transform="translate(-338.38 -205.38)"/><polygon class="k" points="146.76 78.47 145.74 79.53 145.47 79.27 146.5 78.21 146.76 78.47"/><path class="k" d="M485.77,283.36a0.51,0.51,0,0,0-1,.28A0.51,0.51,0,0,0,485.77,283.36Z" transform="translate(-338.38 -205.38)"/><path class="k" d="M482.31,284.39c0.34-.57.56-0.77,1-0.49s0.29,0.6,0,1-0.62.69-1,.51S482,284.95,482.31,284.39Z" transform="translate(-338.38 -205.38)"/><path class="k" d="M483.68,285.51c0.66-.1.95-0.07,1,0.44s-0.27.61-.77,0.63-0.93,0-1-.4S483,285.61,483.68,285.51Z" transform="translate(-338.38 -205.38)"/><path class="k" d="M483.12,284.76c0.52-.52.81-0.49,1.1-0.07s0.12,0.71-.4.91-0.84.4-1.07,0.1S482.66,285.22,483.12,284.76Z" transform="translate(-338.38 -205.38)"/><path class="l" d="M445.38,280.19c-0.58.29-.3,0.84,0.28,0.55S446,279.9,445.38,280.19Z" transform="translate(-338.38 -205.38)"/><path class="l" d="M447,280c-0.62.18-.46,0.77,0.17,0.6S447.63,279.85,447,280Z" transform="translate(-338.38 -205.38)"/><path class="l" d="M444.88,281.7c-0.08.64,0.53,0.72,0.61,0.08S445,281.05,444.88,281.7Z" transform="translate(-338.38 -205.38)"/><path class="l" d="M446.41,281.68c-0.35.45,0,.72,0.35,0.28S446.77,281.23,446.41,281.68Z" transform="translate(-338.38 -205.38)"/><path class="l" d="M448.29,281.28c-0.64.12-.52,0.73,0.12,0.61S448.94,281.16,448.29,281.28Z" transform="translate(-338.38 -205.38)"/><path class="l" d="M448.05,283.11c-0.4.46-.06,0.87,0.35,0.4S448.46,282.64,448.05,283.11Z" transform="translate(-338.38 -205.38)"/><path class="l" d="M446.47,283.14c-0.33.56,0.21,0.87,0.53,0.31S446.81,282.58,446.47,283.14Z" transform="translate(-338.38 -205.38)"/><path class="l" d="M450.56,284.28c-0.33.56,0.21,0.87,0.53,0.31S450.89,283.71,450.56,284.28Z" transform="translate(-338.38 -205.38)"/><path class="l" d="M451.77,283.32c-0.42.49,0.05,0.9,0.47,0.4S452.19,282.82,451.77,283.32Z" transform="translate(-338.38 -205.38)"/><path class="l" d="M451,285.81c0,0.65.61,0.66,0.62,0S451,285.16,451,285.81Z" transform="translate(-338.38 -205.38)"/><path class="l" d="M452.61,285.25c-0.22.61,0.37,0.82,0.58,0.21S452.83,284.63,452.61,285.25Z" transform="translate(-338.38 -205.38)"/><path class="l" d="M454.83,285.64c-0.22.61,0.37,0.82,0.58,0.21S455.05,285,454.83,285.64Z" transform="translate(-338.38 -205.38)"/><path class="l" d="M453.61,286.56c0,0.65.61,0.66,0.62,0S453.62,285.9,453.61,286.56Z" transform="translate(-338.38 -205.38)"/><path class="l" d="M458.42,286c-0.33.56,0.21,0.87,0.53,0.31S458.76,285.42,458.42,286Z" transform="translate(-338.38 -205.38)"/><path class="l" d="M459.07,287.83c0.17,0.63.77,0.47,0.6-.16S458.89,287.19,459.07,287.83Z" transform="translate(-338.38 -205.38)"/><path class="l" d="M459.9,284.7c-0.33.56,0.21,0.87,0.53,0.31S460.23,284.13,459.9,284.7Z" transform="translate(-338.38 -205.38)"/><path class="l" d="M461,286.26c-0.43.48,0,.9,0.46,0.41S461.4,285.77,461,286.26Z" transform="translate(-338.38 -205.38)"/><path class="l" d="M462.49,285.08c-0.43.48,0,.9,0.46,0.41S462.93,284.59,462.49,285.08Z" transform="translate(-338.38 -205.38)"/><path class="l" d="M461.73,288.18c0.27,0.59.83,0.33,0.56-.26S461.45,287.59,461.73,288.18Z" transform="translate(-338.38 -205.38)"/><path class="l" d="M463.16,286.84c-0.23.61,0.35,0.82,0.58,0.22S463.39,286.22,463.16,286.84Z" transform="translate(-338.38 -205.38)"/><path class="l" d="M467.12,290.41c-0.56-.32-1,0.31-0.4.63S467.69,290.74,467.12,290.41Z" transform="translate(-338.38 -205.38)"/><path class="l" d="M466.1,288.61c-0.56-.32-1,0.31-0.4.63S466.67,288.94,466.1,288.61Z" transform="translate(-338.38 -205.38)"/><path class="l" d="M469.65,288.4c-0.56-.32-1.05.37-0.49,0.69S470.22,288.73,469.65,288.4Z" transform="translate(-338.38 -205.38)"/><path class="l" d="M470.3,286.52c-0.61-.21-0.81.38-0.2,0.59S470.93,286.73,470.3,286.52Z" transform="translate(-338.38 -205.38)"/><path class="l" d="M467.7,288.28c-0.48-.24-0.64.43-0.16,0.66S468.19,288.52,467.7,288.28Z" transform="translate(-338.38 -205.38)"/><path class="l" d="M471.47,288.83c-0.61-.21-0.81.38-0.2,0.59S472.1,289,471.47,288.83Z" transform="translate(-338.38 -205.38)"/><path class="l" d="M472.44,287.08c-0.61-.21-0.88.45-0.26,0.65S473.06,287.29,472.44,287.08Z" transform="translate(-338.38 -205.38)"/><path class="l" d="M475.19,288.9c-0.43-.49-0.89-0.08-0.47.41S475.62,289.4,475.19,288.9Z" transform="translate(-338.38 -205.38)"/><path class="l" d="M477.47,288.63c-0.55-.34-0.93.3-0.38,0.64S478,289,477.47,288.63Z" transform="translate(-338.38 -205.38)"/><path class="l" d="M479.12,289c-0.55-.34-0.93.3-0.38,0.64S479.68,289.37,479.12,289Z" transform="translate(-338.38 -205.38)"/><path class="l" d="M478.16,286.5c-0.55-.34-1,0.33-0.44.67S478.72,286.85,478.16,286.5Z" transform="translate(-338.38 -205.38)"/><path class="l" d="M479.42,287.25c-0.55-.34-1,0.33-0.44.67S480,287.6,479.42,287.25Z" transform="translate(-338.38 -205.38)"/><path class="k" d="M453.65,281.9a1.91,1.91,0,0,0-.65,2.54,1.08,1.08,0,0,0,1.8,0,2.56,2.56,0,0,0,.12-2.28Z" transform="translate(-338.38 -205.38)"/><path class="k" d="M454.67,280.07a0.51,0.51,0,0,0,0,1A0.51,0.51,0,0,0,454.67,280.07Z" transform="translate(-338.38 -205.38)"/><path class="k" d="M454,280.48a0.54,0.54,0,0,0,0,1.08A0.54,0.54,0,0,0,454,280.48Z" transform="translate(-338.38 -205.38)"/><path class="k" d="M455,280.7a0.54,0.54,0,0,0,0,1.08A0.54,0.54,0,0,0,455,280.7Z" transform="translate(-338.38 -205.38)"/><path class="k" d="M454.62,282.2c0.33,0.51,1.32.2,1.34-.69a1.62,1.62,0,0,1-1.2.06Z" transform="translate(-338.38 -205.38)"/><path class="k" d="M454.13,281.53a1,1,0,0,1-.87-0.66,0.77,0.77,0,0,0,.89,1.25Z" transform="translate(-338.38 -205.38)"/><path class="k" d="M454.22,282.4a0.8,0.8,0,0,1-.33-0.92c0.12-.57,1.28-0.27,1.13.38A0.6,0.6,0,0,1,454.22,282.4Z" transform="translate(-338.38 -205.38)"/><line class="f" x1="106.78" y1="76.35" x2="106.05" y2="75.96"/><line class="f" x1="106.54" y1="74.38" x2="107.08" y2="75.13"/><line class="f" x1="108.58" y1="74.07" x2="108.64" y2="74.95"/><line class="f" x1="108.16" y1="76.39" x2="107.6" y2="75.9"/><line class="f" x1="108.29" y1="77.94" x2="107.54" y2="77.49"/><line class="f" x1="109.76" y1="77.89" x2="109.1" y2="77.29"/><line class="f" x1="109.94" y1="76.09" x2="109.73" y2="75.22"/><line class="f" x1="107.23" y1="75.01" x2="107.17" y2="74.17"/><line class="f" x1="112.42" y1="79.07" x2="111.67" y2="78.7"/><line class="f" x1="113.02" y1="77.65" x2="113.53" y2="78.13"/><line class="f" x1="112.36" y1="80.6" x2="112.96" y2="80.51"/><line class="f" x1="112.99" y1="80.33" x2="112.18" y2="80.03"/><line class="f" x1="113.71" y1="80.03" x2="114.4" y2="80.06"/><line class="f" x1="114.49" y1="79.91" x2="113.8" y2="79.34"/><line class="f" x1="115.93" y1="80.18" x2="116.89" y2="80.27"/><line class="f" x1="115.45" y1="81.14" x2="114.55" y2="81.14"/><line class="f" x1="119.35" y1="80.81" x2="120.16" y2="80.9"/><line class="f" x1="120.34" y1="80.57" x2="119.65" y2="80.03"/><line class="f" x1="121.03" y1="79.16" x2="121.72" y2="79.43"/><line class="f" x1="123.59" y1="79.52" x2="124.25" y2="79.88"/><line class="f" x1="121.75" y1="80.99" x2="122.57" y2="81.23"/><line class="f" x1="122.81" y1="80.93" x2="122.24" y2="80.36"/><line class="f" x1="124.07" y1="81.32" x2="125.03" y2="81.53"/><line class="f" x1="122.84" y1="82.94" x2="123.62" y2="82.7"/><line class="f" x1="127.49" y1="83.54" x2="127.4" y2="82.67"/><line class="f" x1="128.54" y1="85.34" x2="128.54" y2="84.41"/><line class="f" x1="129.53" y1="84.86" x2="128.72" y2="85.34"/><line class="f" x1="131" y1="83.33" x2="131.09" y2="82.46"/><line class="f" x1="131.24" y1="83.36" x2="132.26" y2="82.82"/><line class="f" x1="133.13" y1="83.75" x2="133.76" y2="83.36"/><line class="f" x1="134" y1="82.01" x2="134.54" y2="81.38"/><line class="f" x1="131.87" y1="81.47" x2="132.44" y2="80.72"/><line class="f" x1="136.64" y1="83.72" x2="137.18" y2="83.09"/><line class="f" x1="138.99" y1="82.58" x2="138.75" y2="83.48"/><line class="f" x1="138.93" y1="83.6" x2="139.53" y2="83.09"/><line class="f" x1="140.52" y1="83.93" x2="141.18" y2="83.33"/><line class="f" x1="140.76" y1="82.25" x2="141.3" y2="81.62"/><line class="f" x1="139.62" y1="81.5" x2="139.95" y2="80.54"/><path class="m" d="M453,258.74c-0.53-.38-0.42-0.88.54-1.56a3.3,3.3,0,0,0,1.52-2.06c0-.7.17-0.74,0.36-0.06a2.52,2.52,0,0,1,.07,1.35,4.58,4.58,0,0,0,.58-2.21c0-.45.32-0.9,0.45-0.12a4,4,0,0,1,.09,1.38c0.25-.13.48-0.23,0.74-0.36a5.77,5.77,0,0,0,.25-1.31c0-.77.27-1.14,0.39-0.5a8.27,8.27,0,0,1,.12,1.37,2,2,0,0,0,.72-0.83c0.26-.59.43-1.15,0.59,0a2.53,2.53,0,0,1,0,.68c1.26-.72,3,0.69,4,0.48s0.84,0,.54.27a2.62,2.62,0,0,1-.54.35,4.19,4.19,0,0,1,2.3,2.08,2.74,2.74,0,0,0-2.18-3.45c-1.26-.15-2.73-0.34-2-1.83a2.21,2.21,0,0,1,2.31-1.41c0.27-.68,1.18-1,3.1-0.87A17.15,17.15,0,0,1,474,252c2.16,1.2,3.48,1.86,4.68,1.32a2.71,2.71,0,0,1-.56,1.13c3.66,2.28,6.46,5.43,7.41,8.47,0.54,1.74,1,3.54,2.46,3.78a1.67,1.67,0,0,1-.84.37,15.82,15.82,0,0,1,0,7c-0.48,1.77,0,4.89-.63,7s-0.72.63-.72-0.27c0-2.46-.54-3.24-0.51-8.44a3.4,3.4,0,0,0-.82-1.94c-0.27,3.27,1,5.21.22,9.87-0.23,1.35-.63.18-0.72-1.86s-0.75-3.18-1-5a5.14,5.14,0,0,0-.59-1.8c0,2,.74,5.7.53,7.68-0.15,1.38-.6.27-0.6-0.45,0-2.1-.87-3.24-1.11-5.13a6.1,6.1,0,0,0-1-2.18,23.94,23.94,0,0,1,.61,4.07c0,0.84-.09,1.26-0.42.72a7.14,7.14,0,0,1-.78-2.85c-0.12-1.29-1-2-1.75-2.67a16.44,16.44,0,0,1,1.27,3.51c0.21,0.92-.06,1.08-0.24.72a15.79,15.79,0,0,1-1.05-2.28,3.47,3.47,0,0,0-1.83-2.1,3.47,3.47,0,0,1-1.74-1.23,17.5,17.5,0,0,1,2.4,3.45c0.51,1.05.36,1.23-.12,0.81a4.89,4.89,0,0,1-1.11-1.44c-1-1.59-1.14-1.23-1.74-1.38a3.31,3.31,0,0,1-2-1.38,1.05,1.05,0,0,1-.57.39,10.5,10.5,0,0,1,1.28,4.48c2.1,1.56,7.21,4.86,10.33,7,1.46,1,.3,1.46-0.81,1.5a2.55,2.55,0,0,1-1.5-.18,1.73,1.73,0,0,1-2.49.6,1.46,1.46,0,0,1-2.25,0,1.11,1.11,0,0,1-1.59,0c-0.45-.42-0.69-0.6-2-1.86,0.09,1.56-.45.69-0.66,0.12-0.09,1.68-.47,1.36-0.8.79-0.26,1.36-.88,1.43-1.27.8l-0.54-.89c-0.27,1.62-.84,1.16-1.11.62a18,18,0,0,0-1.32-2c-0.26.31-.62-0.19-1.29-1.17-0.15-.21-0.34-0.47-0.56-0.76-0.2,2.1-.79,1.93-1.29,1.26a8.48,8.48,0,0,1-2.67.86c-1.09.1-1.13-.37-0.73-0.94-1.38-.18-2.6-0.47-2.63-1s1.75-1.53,2.77-2.19c-0.91-.74-1.31-1.56-1.15-1.71a1.89,1.89,0,0,1,1.53.36c-0.87-1-1.95-2.85-1.71-3.45L458,271.4c-0.37.23-.86,0.31-0.75-0.29s-0.78-2.13-.84-3.27,0.75-1.68,1.08-2.82a0.37,0.37,0,0,1-.27-0.54c0.13-.56,1-1.32,1.32-2.2-0.4,0-.48,0-0.21-0.36a3.64,3.64,0,0,0,.61-1.46c-0.21.14-.28,0.07-0.28-0.15a0.51,0.51,0,0,0-.48-0.54C457.64,259.63,453.95,259.43,453,258.74Z" transform="translate(-338.38 -205.38)"/><path class="f" d="M456,257a6.78,6.78,0,0,0,1.67-1c0.45-.38,1.16-0.9,1.14,0s-1.16,1.64-2.31,1.76" transform="translate(-338.38 -205.38)"/><path class="f" d="M459.3,254.93a5.31,5.31,0,0,1,3.11,1.17c0.44,0.47.51,1-.69,0.93" transform="translate(-338.38 -205.38)"/><path class="f" d="M458.94,255.73a8.47,8.47,0,0,1,2.64,1.31c0.57,0.47.51,0.9-.62,0.65a7.75,7.75,0,0,1-2.4-.93" transform="translate(-338.38 -205.38)"/><path class="f" d="M463,255.74a8.17,8.17,0,0,1,2.49,3.48c0.24,0.84.09,2-.18,1.68a1.69,1.69,0,0,0-1.13-.51" transform="translate(-338.38 -205.38)"/><path class="f" d="M462.68,256.82a5.08,5.08,0,0,1,1.41,4.14c-0.24,1.38-.75.6-1.2,0.18a4.36,4.36,0,0,1-1.44-3.36" transform="translate(-338.38 -205.38)"/><path class="f" d="M457.34,258c1-.33,2.58-0.21,2.4.45s-1.62-.12-2.28,0" transform="translate(-338.38 -205.38)"/><path class="f" d="M459.56,257.27a0.83,0.83,0,0,1-.45.6" transform="translate(-338.38 -205.38)"/><path class="f" d="M459.5,258.74c0.42,0.75,1.38,1.17,2,0" transform="translate(-338.38 -205.38)"/><path class="f" d="M461.15,266.25c-0.33,1.53-.33,3.12.75,4.05s1.35,1,1.68.45a3.38,3.38,0,0,0,.24-2.46,4.63,4.63,0,0,1-.06-2.7" transform="translate(-338.38 -205.38)"/><path class="f" d="M461.36,269.58a1.73,1.73,0,0,1-.48,1.17c-0.33.24-.51,0.21-0.6-0.27s-1.47-2.58-.42-4.62" transform="translate(-338.38 -205.38)"/><path class="f" d="M458.9,265.83c-1.38,2.61,0,3.24-.06,4.11s0.42,0.63.57,0.38a2.49,2.49,0,0,0,.29-1.37" transform="translate(-338.38 -205.38)"/><path class="f" d="M462.17,261.15c-1.2,1.92-1.53,3.54-1.32,4.47s0.9,1.29,1.41.72a5,5,0,0,0,.93-1.5" transform="translate(-338.38 -205.38)"/><path class="f" d="M463.28,262.08c-0.42,1.71-.32,2.72.39,3.42,0.54,0.54.92,0,1.14-.45a8,8,0,0,0,.48-4.14" transform="translate(-338.38 -205.38)"/><path class="f" d="M459.68,262a20.8,20.8,0,0,0-.78,3.09c-0.09.6,0.06,1.08,0.69,0.81a2,2,0,0,0,1.26-1.5" transform="translate(-338.38 -205.38)"/><path class="f" d="M459.26,270.57c0.39,0.48.92,0.82,1.23,1.29,0.42,0.63.75-.36,0.75-1.62" transform="translate(-338.38 -205.38)"/><path class="f" d="M460.31,273.84a8.91,8.91,0,0,0,.39,3.18c0.3,0.57.9,1.47,1.68,0.24" transform="translate(-338.38 -205.38)"/><path class="f" d="M465.14,264c0,1.56,1.23,2.5.81,4.59-0.18.9-.54,1.5-2,0.27" transform="translate(-338.38 -205.38)"/><path class="f" d="M465.26,263.31a2.3,2.3,0,0,0,.9,1.47c0.39,0.45.6,0.48,0.87-.72a8.09,8.09,0,0,0,0-3.48" transform="translate(-338.38 -205.38)"/><path class="f" d="M466,267.36c0.81,0.3,1.41.12,1.41-.6a3.09,3.09,0,0,0-.69-1.89" transform="translate(-338.38 -205.38)"/><path class="f" d="M453.69,258.38c0,0.29.53,0.3,0.95,0.23a1.27,1.27,0,0,0,1-.9c0.06-.45-0.09-0.89-0.45-0.87" transform="translate(-338.38 -205.38)"/><path class="f" d="M454,257.9c0.07,0.24.87,0.62,1.22-.45" transform="translate(-338.38 -205.38)"/><path class="f" d="M454.26,257.63c-0.09.12,0.26,0.2,0.42,0.08s0.3-.57,0-0.5" transform="translate(-338.38 -205.38)"/><path class="f" d="M474.42,253.13a2.41,2.41,0,0,1,.44,1.44c-0.06.39-.32,0.6-0.71,0.15a2.13,2.13,0,0,0-1.05-.72" transform="translate(-338.38 -205.38)"/><path class="f" d="M472.18,252.12a2.89,2.89,0,0,1,.87,1.49c0,0.41-.23,1-0.69.68s-0.69-.65-1-0.87" transform="translate(-338.38 -205.38)"/><path class="f" d="M470.29,251.94a2.94,2.94,0,0,1,1,1.38c0.14,0.5.24,1-.68,0.65a17.8,17.8,0,0,0-4.38-.9" transform="translate(-338.38 -205.38)"/><path class="f" d="M468.15,251.84c1.43,0.23,1.47,1.79,2.18,2" transform="translate(-338.38 -205.38)"/><path class="f" d="M471.09,255.53a19.86,19.86,0,0,1,3.42,1.11c0.51,0.27,1.14.57,1.41,0.18a1.76,1.76,0,0,0,.51-1.44" transform="translate(-338.38 -205.38)"/><path class="f" d="M475.41,257a2.11,2.11,0,0,1-.6,2.34" transform="translate(-338.38 -205.38)"/><path class="f" d="M471.48,257.69a4.12,4.12,0,0,1,2.94,1.26,1.64,1.64,0,0,1-.27,2.61" transform="translate(-338.38 -205.38)"/><path class="f" d="M476.4,256.16c2.52,2.34,5.79,6.45,6.42,8s0.15,2.28-1.41.69-4.71-5.43-5.88-6.87" transform="translate(-338.38 -205.38)"/><path class="f" d="M474.78,260.91a54,54,0,0,0,4.41,5c1,0.72,1.68,1.2,1.5-1.74" transform="translate(-338.38 -205.38)"/><path class="f" d="M473.85,262.92a33.64,33.64,0,0,0,4.08,3.81c0.93,0.57,1.44.84,1.26-.81" transform="translate(-338.38 -205.38)"/><path class="f" d="M468.3,265.77c0.84,1.14,1.86,2.55,2.22,2.94a1.77,1.77,0,0,1,.27,1.44c-0.06.45-.24,0.42-0.75,0.3" transform="translate(-338.38 -205.38)"/><path class="f" d="M468.48,263.79c0.6,0.81.6,1.47-.3,1.59" transform="translate(-338.38 -205.38)"/><path class="f" d="M468.81,264.21a1.39,1.39,0,0,0,1.5-1.53" transform="translate(-338.38 -205.38)"/><path class="f" d="M469.53,262.35c1.05,0.93,2.25-.75,1.53-1.62" transform="translate(-338.38 -205.38)"/><path class="f" d="M470.4,260.6c1.05,0.12,1.44-.84.69-2.1" transform="translate(-338.38 -205.38)"/><path class="f" d="M470.28,258.56c1.29,0.18,1.65-1.29.51-2.58" transform="translate(-338.38 -205.38)"/><path class="f" d="M470,256.19a0.7,0.7,0,0,1,.6-0.27c0.3,0,.63-0.21.41-0.77a2.68,2.68,0,0,1-.32-1.19" transform="translate(-338.38 -205.38)"/><path class="f" d="M462,253.07c0.75-.21,1.77-0.6,2.49-0.18" transform="translate(-338.38 -205.38)"/><path class="f" d="M464.39,254a2.69,2.69,0,0,1,2.1,0" transform="translate(-338.38 -205.38)"/><path class="f" d="M466.25,255.11a1.86,1.86,0,0,1,2.19,1.05" transform="translate(-338.38 -205.38)"/><path class="f" d="M466.91,256.73a1.52,1.52,0,0,1,1.83.9" transform="translate(-338.38 -205.38)"/><path class="f" d="M467.06,258.44A1.67,1.67,0,0,1,468.9,260" transform="translate(-338.38 -205.38)"/><path class="f" d="M458.63,270.81c0.72,0.9,3.3,3.57,4.17,4.44,0.45,0.45.63,0.54,0.81-.42" transform="translate(-338.38 -205.38)"/><path class="f" d="M461,271.92a19.88,19.88,0,0,0,3.57,3.54c1.08,0.6.9-.09,0.9-1.44" transform="translate(-338.38 -205.38)"/><path class="f" d="M463.58,270.75a10.42,10.42,0,0,0,2.67,3.9c1.08,0.78,1.16.15,1.08-.84a12.94,12.94,0,0,0-1.71-4.35" transform="translate(-338.38 -205.38)"/><path class="f" d="M461.69,275.4c0.39,0.42,1.2.39,0.81-.42" transform="translate(-338.38 -205.38)"/><path class="f" d="M463.34,275.58a17.4,17.4,0,0,0,3.75,4.2c0.66,0.51.69,0.39,0.87-.36" transform="translate(-338.38 -205.38)"/><path class="f" d="M465.35,275.64c1,1.8,2,3.42,2.82,3.87s1,0.5,1.07-.66" transform="translate(-338.38 -205.38)"/><path class="f" d="M467.12,275a14.74,14.74,0,0,0,2.22,4c0.72,0.75,1.05.42,1.05-.84" transform="translate(-338.38 -205.38)"/><path class="f" d="M467.36,267.21a15.5,15.5,0,0,1,1.65,5.31c0.09,1.47,0,1.53-1.8.48" transform="translate(-338.38 -205.38)"/><path class="f" d="M468.24,266.37a15.79,15.79,0,0,1,1.83,4.68c0.15,1.11.09,1.38-1.08,0.93" transform="translate(-338.38 -205.38)"/><path class="f" d="M470,272.13a22.67,22.67,0,0,1,1.29,5.34c0,1-.11,2.16-1.08.21a36.26,36.26,0,0,1-1.35-4" transform="translate(-338.38 -205.38)"/><path class="f" d="M470.79,270.39a17.16,17.16,0,0,1,1.32,5.52c0,1.74,0,3-.81,1.65" transform="translate(-338.38 -205.38)"/><path class="f" d="M470,267.15c1.32-.72,1.41-2-0.54-3.06" transform="translate(-338.38 -205.38)"/><path class="f" d="M471,265.59c1.5-.6,2.46-1.8-0.27-3.12" transform="translate(-338.38 -205.38)"/><path class="f" d="M472.38,263.67a1.54,1.54,0,0,0,1.59-1.5c0-.75-0.63-1.74-2.67-1.83" transform="translate(-338.38 -205.38)"/><path class="f" d="M471.93,268.35c1.26,0.39,2.25.69,2-1.47" transform="translate(-338.38 -205.38)"/><path class="f" d="M472.26,264.87c1.08,1.23,1.57,2.09,2.82,2.37,1.47,0.33,1.41.15,0.84-2.19" transform="translate(-338.38 -205.38)"/><path class="f" d="M455.47,256.42a0.82,0.82,0,0,1-.32.46c-0.45.3-1.89,1.43-1.4,2" transform="translate(-338.38 -205.38)"/><path class="f" d="M455.47,256.42a3.33,3.33,0,0,1,1.12-.95" transform="translate(-338.38 -205.38)"/><path class="f" d="M456.63,256.73a6.62,6.62,0,0,0,.7-1.62" transform="translate(-338.38 -205.38)"/><path class="f" d="M458.09,254.68a5.93,5.93,0,0,1-.07,1.06" transform="translate(-338.38 -205.38)"/><path class="f" d="M465.64,257.67c0.6,1,1.05,2,1.78,2.43,1,0.56-.29.5-0.44,0.48a2.06,2.06,0,0,1-1.47-1.1" transform="translate(-338.38 -205.38)"/><path class="f" d="M463.34,255.58a2.18,2.18,0,0,1-1.16.28" transform="translate(-338.38 -205.38)"/><path class="f" d="M459.39,254.48a3.36,3.36,0,0,1-.49,1.32" transform="translate(-338.38 -205.38)"/><path class="f" d="M474.78,254.84a2.28,2.28,0,0,0,3.34-.43" transform="translate(-338.38 -205.38)"/><path class="f" d="M477.89,270.75a5.73,5.73,0,0,1-1.76-2.46" transform="translate(-338.38 -205.38)"/><path class="f" d="M480.23,271.48c-0.31-.48-0.69-1-1.1-1.51" transform="translate(-338.38 -205.38)"/><path class="f" d="M482.41,271.56c-0.46-.87-1.09-1.58-1.54-2.4" transform="translate(-338.38 -205.38)"/><path class="f" d="M484.5,270.4a4.92,4.92,0,0,1-1-1.69" transform="translate(-338.38 -205.38)"/><path class="f" d="M487.15,267c-1.16.19-2.91-.48-4.26-2.53" transform="translate(-338.38 -205.38)"/><path class="f" d="M463.79,251a1.45,1.45,0,0,0-.08.66c0.09,1.11.75,1.26,1.89,1.89,2.42,1.34,2.64,1,3.18,4.44,0.4,2.54,0,3.18-1.56,4.62a7.32,7.32,0,0,0,.93,2.94c0.3,0.48.33,1-.63,1" transform="translate(-338.38 -205.38)"/><path class="f" d="M471.72,269.43c0.47-.65.06-1.89-0.93-2.79" transform="translate(-338.38 -205.38)"/><path class="f" d="M470.8,269.24c0.12,0.19.24,0.38,0.35,0.58" transform="translate(-338.38 -205.38)"/><path class="f" d="M472.14,277.45a10.29,10.29,0,0,0,.3-3.15" transform="translate(-338.38 -205.38)"/><path class="f" d="M475.71,283.27c-1-.93-2-1.89-3.72-3.39" transform="translate(-338.38 -205.38)"/><path class="f" d="M478,283.24c-0.87-.66-4.5-3.93-6-5.16" transform="translate(-338.38 -205.38)"/><path class="f" d="M480.45,282.64a90.64,90.64,0,0,1-8.32-6.33" transform="translate(-338.38 -205.38)"/><path class="f" d="M470.4,278.53c0.45,1.38.84,2.4,1.05,3" transform="translate(-338.38 -205.38)"/><path class="f" d="M468.84,282.2l-1.23-2.06" transform="translate(-338.38 -205.38)"/><path class="f" d="M470.64,282.29c-0.33-.57-1-1.54-1.6-2.53" transform="translate(-338.38 -205.38)"/><path class="f" d="M472.11,281.38c-0.09-1.56-.15-2.52-0.24-3.21" transform="translate(-338.38 -205.38)"/><path class="f" d="M459.85,280a3.6,3.6,0,0,1,.4-0.47,4,4,0,0,1,2.25-1.17" transform="translate(-338.38 -205.38)"/><path class="f" d="M463.25,280.13a4.29,4.29,0,0,1-.33-0.52,6.4,6.4,0,0,1-.51-3.33" transform="translate(-338.38 -205.38)"/><path class="f" d="M466.4,280.8a3,3,0,0,0,.36-1.23" transform="translate(-338.38 -205.38)"/><path class="f" d="M460,276.88a5.59,5.59,0,0,0,1.07.69" transform="translate(-338.38 -205.38)"/><path class="f" d="M458.66,272.07c2.27,2.37,4.64,5.16,5.89,6.8" transform="translate(-338.38 -205.38)"/><path class="f" d="M458,271.4l0.15-.11a2.23,2.23,0,0,0,.69-1.17" transform="translate(-338.38 -205.38)"/><path class="f" d="M457.52,265a1,1,0,0,0,.3,0,1.84,1.84,0,0,0,1.26-.72" transform="translate(-338.38 -205.38)"/><path class="f" d="M458.57,262.27h0.15a2.83,2.83,0,0,0,2-1.13" transform="translate(-338.38 -205.38)"/><path class="f" d="M459,260.45a2.12,2.12,0,0,0,.24-0.21,1.36,1.36,0,0,0,.42-1.28" transform="translate(-338.38 -205.38)"/><path class="n" d="M452.78,258.56c-0.39,0-.89.35-0.63,0.75a2.28,2.28,0,0,0-.78,3.24,2.49,2.49,0,0,0,2.19.66,1.93,1.93,0,0,1-.66-2.22c0.33-.42,1-1.26,2.7.51a3,3,0,0,1,1.59-1c0.66,0,1.32-.63.9-1.17s-2.7.3-3.39-.21S453.17,259.1,452.78,258.56Z" transform="translate(-338.38 -205.38)"/><path class="f" d="M457.19,260.51c0.07-.56-0.38-0.68-1-0.57a3.24,3.24,0,0,0-1.49.77" transform="translate(-338.38 -205.38)"/><path class="f" d="M452.14,259.31c0,0.24.95,0.38,1-.5" transform="translate(-338.38 -205.38)"/><path class="e" d="M469.23,282.85c0.21,0.75-1.11,1.32-1.83,1.05a1.06,1.06,0,0,0-1.56,1,1.1,1.1,0,0,0,1,1.11,1.19,1.19,0,0,0,1.08,1.26,1.24,1.24,0,0,0,1.26-1.23c0.93,0.18,2.28-.78,3.27-0.15,0.27,0.75,1.08.9,2,.39a0.87,0.87,0,0,0-.3-1.68c-1.47,0-2.57-.86-3.5-2.27C470.38,283.52,469.83,283.9,469.23,282.85Z" transform="translate(-338.38 -205.38)"/><path class="f" d="M466.82,286c0.18-.6,1.5-0.9,1.74-1.2a2.48,2.48,0,0,1,1.13-.72" transform="translate(-338.38 -205.38)"/><path class="f" d="M469.65,283.37a4.74,4.74,0,0,1,0,.9c0,0.18,0,.41.65,0.39s0.86,0,.8-0.41a10.55,10.55,0,0,1-.15-1.5" transform="translate(-338.38 -205.38)"/><path class="f" d="M469.17,286a1.3,1.3,0,0,0,1.26-.93" transform="translate(-338.38 -205.38)"/><path class="f" d="M470.32,285.87a1.12,1.12,0,0,0,.84-0.81" transform="translate(-338.38 -205.38)"/><path class="f" d="M471.28,285.67a0.64,0.64,0,0,0,.62-0.62" transform="translate(-338.38 -205.38)"/><path class="f" d="M469,284.41c-0.23.17-.08,0.6,0.44,0.81" transform="translate(-338.38 -205.38)"/><path class="f" d="M468.1,285c-0.29.15-.14,0.95,0.41,1" transform="translate(-338.38 -205.38)"/><path class="f" d="M473.91,284.56a1.91,1.91,0,0,0-1.23.15" transform="translate(-338.38 -205.38)"/><path class="g" d="M466.79,288a1,1,0,0,1-.07-2c0.87-.18.9,0.38,0.9,0.74S466.4,287.28,466.79,288Z" transform="translate(-338.38 -205.38)"/><path class="g" d="M464.89,286.24a1.09,1.09,0,0,1,.66-1.94,0.66,0.66,0,0,1,.51,1.16C465.74,285.69,464.66,285.21,464.89,286.24Z" transform="translate(-338.38 -205.38)"/><path class="g" d="M474.39,287.67a1.13,1.13,0,0,0,1.08-1.68,0.78,0.78,0,0,0-1.14-.33,0.64,0.64,0,0,0,0,1A0.62,0.62,0,0,1,474.39,287.67Z" transform="translate(-338.38 -205.38)"/><path class="f" d="M467.21,283.85a0.66,0.66,0,0,1,.57.44" transform="translate(-338.38 -205.38)"/><path class="e" d="M458.21,277.3c0.6,0.24,2.34.75,4,1.2a3.9,3.9,0,0,0-1.53.72c-1-.24-2.82-0.56-3.83-0.68-0.62.59-.92,0.65-1.13,0.38a5.78,5.78,0,0,0-1.26-.81,1.15,1.15,0,0,1-.66.26,0.74,0.74,0,0,1-.81.28c-0.26.44-.51,0.61-1,0.18a2.42,2.42,0,0,1-.71-1.58,0.6,0.6,0,0,1,.53-0.62,0.89,0.89,0,0,1,1-.76,1.14,1.14,0,0,1,1.36-.86c0.9,0.12,3-.42,3.48.21S458.88,276.65,458.21,277.3Z" transform="translate(-338.38 -205.38)"/><path class="f" d="M451.78,276.64a3.49,3.49,0,0,0,.42,1,1.75,1.75,0,0,0,.75,1" transform="translate(-338.38 -205.38)"/><path class="f" d="M452.77,275.87a1,1,0,0,0,0,.46,7.23,7.23,0,0,1,.39,1.35,0.66,0.66,0,0,0,.57.68" transform="translate(-338.38 -205.38)"/><path class="f" d="M456.35,278a1.09,1.09,0,0,1-.75-1.14,0.82,0.82,0,0,0-1.28-.38,0.86,0.86,0,0,0-.13,1.53l0.23,0.14" transform="translate(-338.38 -205.38)"/><path class="f" d="M458.21,277.3c-0.35.33-.59,0.53-1.4,1.25" transform="translate(-338.38 -205.38)"/><path class="g" d="M453.83,278.36a1.17,1.17,0,0,0,1.7.41,11.52,11.52,0,0,0-1.1-.66A1.15,1.15,0,0,1,453.83,278.36Z" transform="translate(-338.38 -205.38)"/><path class="g" d="M453,278.67a1.24,1.24,0,0,0,1.67.31,1.19,1.19,0,0,1-.89-0.62h-0.05A0.8,0.8,0,0,1,453,278.67Z" transform="translate(-338.38 -205.38)"/><path class="g" d="M452.47,279.08a0.79,0.79,0,0,0,1.16,0,1,1,0,0,1-.59-0.44l-0.08,0A0.69,0.69,0,0,1,452.47,279.08Z" transform="translate(-338.38 -205.38)"/><path class="g" d="M455.27,274.7c-1.35-.09-1.68,1-1.62,1.91,0,0.45.43,0.52,0.84,0.41a0.56,0.56,0,0,0,.33-0.83A1.3,1.3,0,0,1,455.27,274.7Z" transform="translate(-338.38 -205.38)"/><path class="e" d="M450.72,255.46a1.76,1.76,0,0,1,0,2.1,1.87,1.87,0,0,0-.23-1.5Z" transform="translate(-338.38 -205.38)"/><path class="o" d="M451,261.49c-2.62,1-3.23-.5-3.26-1.07a5.48,5.48,0,0,0-.36-1.77,1.37,1.37,0,0,1,.63-2,16.16,16.16,0,0,0,2.16-1.5c0.45-.39.91-0.67,0.63,0.24a4.61,4.61,0,0,1-.9,1.74c-0.48.48-.81,1-0.39,1.35s1.59-.27,2.13-0.84a1.13,1.13,0,0,1-.84,1c-0.48.15-1.52,0.4-1.44,0.81,0.12,0.6,1.32.09,2.34,0.18A2.14,2.14,0,0,0,451,261.49Z" transform="translate(-338.38 -205.38)"/><path class="o" d="M455.67,277.31a2.55,2.55,0,0,0,1.64-3.68c-1.2-2.94-4.76-.81-5.64-2.07-1.26-1.8-1-2.89,2.16-5.25s2.78-3.83,1.77-4.8a3.05,3.05,0,0,0-1.8-1.08,1.13,1.13,0,0,0-1,1.32,1.45,1.45,0,0,1,.29,2.37c-2.76,2.05-5.37,4.11-4.17,7.77,0.92,2.8,3.3,2.28,4.11,2.31,1.38,0.06,2.61-.06,2.16.84a2.29,2.29,0,0,1-.42.54,2.3,2.3,0,0,0,.09.72,0.83,0.83,0,0,1,.65.26A2.6,2.6,0,0,1,455.67,277.31Z" transform="translate(-338.38 -205.38)"/><path class="i" d="M451.24,268.83c-0.52.93-.29,1.71,0.43,2.73,0.89,1.27,4.44-.87,5.64,2.07a2.55,2.55,0,0,1-1.64,3.68,2.6,2.6,0,0,0-.19-0.75,0.83,0.83,0,0,0-.65-0.26,2.3,2.3,0,0,1-.09-0.72,2.29,2.29,0,0,0,.42-0.54c0.45-.9-0.87-0.78-2.25-0.84C449.75,274.07,450,270.39,451.24,268.83Z" transform="translate(-338.38 -205.38)"/><path class="i" d="M452.84,261.12a1.14,1.14,0,0,1,1-.7,3.05,3.05,0,0,1,1.8,1.08c1,0.93,1.27,2.4-1.39,4.52C456.13,264.56,454.91,261.42,452.84,261.12Z" transform="translate(-338.38 -205.38)"/><path class="o" d="M452.47,279.08c-2,1.6-3.59.53-4-1.73-0.28-1.5-.66-1.8-1.89-2.67-1.87-1.32-1.11-3-.63-4.32a1.63,1.63,0,0,0-1.05-2.34c-0.93-.45-3-1.56-0.09-1.5s3.09,3.27,2.55,4.38-0.75,1.92,1,2.58,1.17,3.09,2.34,3.78a1.18,1.18,0,0,0,.63.14A1.87,1.87,0,0,0,452.47,279.08Z" transform="translate(-338.38 -205.38)"/><path class="i" d="M443.8,266.56a0.48,0.48,0,0,0-.18-0.85c-0.65-.17-0.69.39-1.07,0.51s-0.6.3-.17,0.67,0,0.79.69,1a0.47,0.47,0,0,0,.57-0.66A0.58,0.58,0,0,1,443.8,266.56Z" transform="translate(-338.38 -205.38)"/><path class="i" d="M444.54,266.76a0.48,0.48,0,0,0-.18-0.85c-0.65-.17-0.69.39-1.07,0.51s-0.6.3-.17,0.67,0,0.79.69,1a0.47,0.47,0,0,0,.57-0.66A0.58,0.58,0,0,1,444.54,266.76Z" transform="translate(-338.38 -205.38)"/><path class="i" d="M445.28,266.95a0.48,0.48,0,0,0-.18-0.85c-0.65-.17-0.69.39-1.07,0.51s-0.6.3-.17,0.67,0,0.79.69,1a0.47,0.47,0,0,0,.57-0.66A0.57,0.57,0,0,1,445.28,266.95Z" transform="translate(-338.38 -205.38)"/><path class="f" d="M452.84,261.12c2.07,0.3,3.3,3.45,1.38,4.92" transform="translate(-338.38 -205.38)"/><path class="f" d="M453.29,263.94a3.82,3.82,0,0,0,.29,2.57" transform="translate(-338.38 -205.38)"/><path class="f" d="M453.51,266.55c-0.65-.15-2.16-0.48-2.64-0.63" transform="translate(-338.38 -205.38)"/><path class="f" d="M452.31,264.69a7.91,7.91,0,0,0,.12,2.78" transform="translate(-338.38 -205.38)"/><path class="f" d="M452,265c0.47-.06,2.75.5,2.94,0.18" transform="translate(-338.38 -205.38)"/><path class="f" d="M453.6,263.26c0,0.54,1.58,1.82,1,2.42" transform="translate(-338.38 -205.38)"/><path class="f" d="M453.21,264c0.35,0.12,2-.39,1.74-1.05" transform="translate(-338.38 -205.38)"/><path class="f" d="M450.82,265.95a11.09,11.09,0,0,0,.62,2.51" transform="translate(-338.38 -205.38)"/><path class="f" d="M449.82,267c0.53-.12,2,0.59,2.55.48" transform="translate(-338.38 -205.38)"/><path class="f" d="M448.78,268.86c0.15-.42,2.45-0.12,2.75-0.48" transform="translate(-338.38 -205.38)"/><path class="f" d="M449.7,267.13c-0.24.35,0.78,1.6,1.15,2.26" transform="translate(-338.38 -205.38)"/><path class="f" d="M448.77,268.92c-0.12.48,1.73,1.35,1.65,1.74" transform="translate(-338.38 -205.38)"/><path class="f" d="M448.68,271c-0.08-.56,1.91-1.28,2.19-1.65" transform="translate(-338.38 -205.38)"/><path class="f" d="M449.14,272.46c-0.27-.66,1.2-1.67,1.34-2.15" transform="translate(-338.38 -205.38)"/><path class="f" d="M448.72,271.14a1.51,1.51,0,0,1,1.64.87" transform="translate(-338.38 -205.38)"/><path class="f" d="M450.48,270.54a1.39,1.39,0,0,1,.69.18" transform="translate(-338.38 -205.38)"/><path class="f" d="M450.37,271.38c0,0.2,1.13,0,1.29.18" transform="translate(-338.38 -205.38)"/><path class="f" d="M450.54,272.51a1,1,0,0,1,1.25-.77" transform="translate(-338.38 -205.38)"/><path class="f" d="M451,273.33c-0.11-.33.62-1.56,1.07-1.46" transform="translate(-338.38 -205.38)"/><path class="f" d="M451.69,273.9c-0.24-.15.48-1.88,1-1.89" transform="translate(-338.38 -205.38)"/><path class="f" d="M452.61,274.16c-0.27,0,.29-2.16.92-2.16" transform="translate(-338.38 -205.38)"/><path class="f" d="M453.33,274.2c-0.38,0,.14-2.18.86-2.23" transform="translate(-338.38 -205.38)"/><path class="f" d="M454.16,274.23c-0.39,0,0-2.27.65-2.25" transform="translate(-338.38 -205.38)"/><path class="f" d="M454.71,274.29c-0.36-.11.3-2.33,0.8-2.22" transform="translate(-338.38 -205.38)"/><path class="f" d="M455.15,274.46c-0.32-.32.68-2.33,1-2.13" transform="translate(-338.38 -205.38)"/><path class="f" d="M455.25,274.64c-0.06-.21,1.43-2,1.65-1.71" transform="translate(-338.38 -205.38)"/><path class="f" d="M455.22,275c0.09-.29,2.21-1.11,2.28-0.78" transform="translate(-338.38 -205.38)"/><path class="f" d="M455.06,275.22c0.18-.24,2.64-0.48,2.55,0" transform="translate(-338.38 -205.38)"/><path class="f" d="M454.91,275.43c0.17-.18,2.72.11,2.48,0.48" transform="translate(-338.38 -205.38)"/><path class="f" d="M454.77,275.72c0.53,0,2.43.51,2.21,0.74" transform="translate(-338.38 -205.38)"/><path class="f" d="M454.8,276.11c0.83,0.09,1.88.59,1.62,0.81" transform="translate(-338.38 -205.38)"/><path class="f" d="M449.25,272.67c0.15,0.29,1-.09,1.29-0.17" transform="translate(-338.38 -205.38)"/><path class="f" d="M449.94,273.53a1.18,1.18,0,0,0,1.07-.15" transform="translate(-338.38 -205.38)"/><path class="f" d="M453.59,263a1.24,1.24,0,0,1,.89-0.92" transform="translate(-338.38 -205.38)"/><path class="f" d="M454.91,262.86a5,5,0,0,1-1.67-.68" transform="translate(-338.38 -205.38)"/><path class="f" d="M453.53,261.33a1.66,1.66,0,0,1,1-.69" transform="translate(-338.38 -205.38)"/><path class="f" d="M454.26,261.85c0.26-.32.75-0.92,1-0.66" transform="translate(-338.38 -205.38)"/><path class="f" d="M454.68,262.41c0.32-.32,1-0.83,1.19-0.57" transform="translate(-338.38 -205.38)"/><path class="f" d="M454.94,262.92c0.42-.33,1.22-0.74,1.31-0.35" transform="translate(-338.38 -205.38)"/><path class="f" d="M455.15,263.59c0.53-.29,1.17-0.66,1.13-0.36" transform="translate(-338.38 -205.38)"/><path class="f" d="M455.16,264.22c0.45-.21,1-0.44.86-0.21" transform="translate(-338.38 -205.38)"/><path class="f" d="M455.09,264.76a1.58,1.58,0,0,1,.54-0.13" transform="translate(-338.38 -205.38)"/><path class="f" d="M451.39,259.66c-0.5,0-1.49,2.19-2,2.16" transform="translate(-338.38 -205.38)"/><path class="f" d="M448.62,261.69c-0.32-.21.83-1.82,1.5-1.89" transform="translate(-338.38 -205.38)"/><path class="f" d="M447.72,260.24c0-.47,1-1,1.65-0.9" transform="translate(-338.38 -205.38)"/><path class="f" d="M449.35,259.4c-0.5.11-1,1.31-.2,2.42" transform="translate(-338.38 -205.38)"/><path class="f" d="M449.55,259.75c-0.29.5,0.8,1.58,1.26,1.8" transform="translate(-338.38 -205.38)"/><path class="f" d="M449.17,279.07c0.27,0.36,1.89-.47,2.34-0.86" transform="translate(-338.38 -205.38)"/><path class="f" d="M450.72,277.31c0.3,0.18-.67,2.52,0,2.54" transform="translate(-338.38 -205.38)"/><path class="f" d="M450.13,276.71c0.33,0.89-1.25,1.89-1.05,2.25" transform="translate(-338.38 -205.38)"/><path class="f" d="M449.76,275.66c0.12,0.44-1.35,1.79-1.14,2.34" transform="translate(-338.38 -205.38)"/><path class="f" d="M448.77,273.74c0.29,0.23-1,1.74-.66,2.42" transform="translate(-338.38 -205.38)"/><path class="f" d="M447.1,275.07c0.33,0.26,2.22-.69,2.51.06" transform="translate(-338.38 -205.38)"/><path class="f" d="M448.48,277.42c0.06,0.33,1.43.41,2.42,0" transform="translate(-338.38 -205.38)"/><path class="f" d="M448.17,276.27a1.47,1.47,0,0,0,1.94.35" transform="translate(-338.38 -205.38)"/><path class="f" d="M448,273.36c-0.27-.14-1.47,1.31-1.16,1.53" transform="translate(-338.38 -205.38)"/><path class="f" d="M445.92,274.08c-0.29-.36,1-1.53,1.28-1.28" transform="translate(-338.38 -205.38)"/><path class="f" d="M445.42,273.11c-0.17-.57,1.43-1.11,1.55-0.78" transform="translate(-338.38 -205.38)"/><path class="f" d="M445.45,271.88c0.13-.54,1.62-0.69,1.55-0.07" transform="translate(-338.38 -205.38)"/><path class="f" d="M445.8,270.75c0.23-.65,1.73-0.26,1.55.15" transform="translate(-338.38 -205.38)"/><path class="f" d="M446.05,270c0.08-.48,1.53-0.66,1.52,0" transform="translate(-338.38 -205.38)"/><path class="f" d="M446.05,269.12c-0.09-.5,1.23-1,1.41-0.38" transform="translate(-338.38 -205.38)"/><path class="f" d="M445.8,268.64c-0.36-.45,1-1.28,1.29-0.9" transform="translate(-338.38 -205.38)"/><path class="f" d="M445.51,268.39c-0.42-.27.45-1.71,0.81-1.44" transform="translate(-338.38 -205.38)"/><path class="f" d="M448.5,259.09a1.08,1.08,0,0,1,.06-1.17,2.53,2.53,0,0,0,.73-1.06c0.09-.32-0.12-0.19-0.23-0.1s-0.34.06-.32-0.1a0.56,0.56,0,0,1,.41-0.44c0.15,0,.15.17,0.12,0.27" transform="translate(-338.38 -205.38)"/></svg>