<svg xmlns="http://www.w3.org/2000/svg" viewBox="0 0 216.25 144.25"><defs><style>.a,.c,.k,.m,.s{fill:#d24a48;}.a,.b,.c,.d,.e,.f,.g,.h,.i,.j,.k,.l,.m,.n,.o,.p,.q,.r,.u,.v{stroke:#000;}.a,.b{stroke-width:0.25px;}.b,.d,.l,.n,.w{fill:#fff343;}.c,.d,.e,.f,.g,.h{stroke-width:0.03px;}.e,.j,.o{fill:none;}.f,.r{fill:#4c9d6b;}.g,.i,.q{fill:#fff;}.h,.p,.t,.v{fill:#4861a1;}.i,.j,.k,.l,.v{stroke-width:0.13px;}.m,.n,.o,.p,.q,.r,.u{stroke-width:0.06px;}.u{fill:#6158a0;}</style></defs><title>Spain</title><rect class="a" x="0.13" y="0.13" width="216" height="144"/><rect class="b" x="0.13" y="36.13" width="216" height="72"/><path class="c" d="M404.22,269.49a1.75,1.75,0,0,1-1.2-2.41c0.44-1,2.37-1.27,3.67-1,1.31-.29,3.23,0,3.67,1a1.75,1.75,0,0,1-1.2,2.41A11.8,11.8,0,0,0,404.22,269.49Z" transform="translate(-356.38 -205.38)"/><path class="d" d="M406.68,268.22a3.56,3.56,0,0,1,2.24-2.15,0.69,0.69,0,0,1,.44.07c0.24,0.11.28,0.13,0.24,0.21a0.29,0.29,0,0,0-.21,0,4,4,0,0,0-2.49,2.33A0.51,0.51,0,0,1,406.68,268.22Z" transform="translate(-356.38 -205.38)"/><path class="d" d="M406.7,268.22a3.56,3.56,0,0,0-2.24-2.15,0.69,0.69,0,0,0-.44.07c-0.24.11-.28,0.13-0.24,0.21a0.29,0.29,0,0,1,.21,0,4,4,0,0,1,2.49,2.33A0.51,0.51,0,0,0,406.7,268.22Z" transform="translate(-356.38 -205.38)"/><path class="d" d="M409.23,270a0.09,0.09,0,0,1,0,.06c0,0.22-1.15.41-2.56,0.41s-2.56-.18-2.56-0.41a0.09,0.09,0,0,1,0-.06,0.9,0.9,0,0,0-.08-0.53c-0.16,0-.33-0.11,0-0.19a11.43,11.43,0,0,1,5.23,0c0.33,0.08.16,0.23,0,.19A0.89,0.89,0,0,0,409.23,270Z" transform="translate(-356.38 -205.38)"/><path class="e" d="M409.3,269.47a9.46,9.46,0,0,0-1.2-.22" transform="translate(-356.38 -205.38)"/><path class="e" d="M404.16,270a9.46,9.46,0,0,1,5.06,0" transform="translate(-356.38 -205.38)"/><path class="e" d="M404.08,269.47a9.46,9.46,0,0,1,1.2-.22" transform="translate(-356.38 -205.38)"/><path class="d" d="M406.69,265.85l-0.3.37a1.31,1.31,0,0,1,.13.67c0,0.23,0,.45.17,0.45s0.17-.22.17-0.45a1.31,1.31,0,0,1,.13-0.67Z" transform="translate(-356.38 -205.38)"/><path class="d" d="M406.69,268.75a0.57,0.57,0,0,1-.9,0,0.53,0.53,0,0,1-.87.11,0.55,0.55,0,0,1-.79.21c-0.13.35-.67,0.16-0.94-0.3s-0.43-.42-0.56-0.3c-0.13-.52.47-0.43,0.66,0l0.31-.21,0,0.13h0.26l-0.16.21,0.07,0.16-0.39.06c0.29,0.35.58,0.26,0.66-.08a0.47,0.47,0,0,0,.48.22,0.35,0.35,0,0,0,.21-0.51l-0.41.34,0-.23-0.27,0,0.22-.15-0.09-.21,0.52,0.11-0.38-.43,0.2,0,0.09-.27,0.2,0.19,0.2-.06-0.13.56,0.41-.34,0,0.23,0.27,0-0.22.15,0.09,0.21-0.52-.11a0.44,0.44,0,0,0,.45.43,0.62,0.62,0,0,0,.41-0.43,0.47,0.47,0,0,0,.45.31,0.42,0.42,0,0,0,.33-0.52l-0.52.25,0-.25-0.27-.1,0.27-.1,0-.24,0.52,0.24-0.28-.54h0.22l0.17-.25,0.17,0.25h0.22l-0.28.54,0.52-.24,0,0.24,0.27,0.1-0.27.1,0,0.25-0.52-.25a0.42,0.42,0,0,0,.33.52,0.47,0.47,0,0,0,.45-0.31,0.62,0.62,0,0,0,.41.43,0.44,0.44,0,0,0,.45-0.43l-0.52.11,0.09-.21-0.22-.15,0.27,0,0-.23,0.41,0.34-0.13-.56,0.2,0.06,0.2-.19,0.09,0.27,0.2,0-0.38.43,0.52-.11-0.09.21,0.22,0.15-0.27,0,0,0.23-0.41-.34a0.35,0.35,0,0,0,.21.51,0.47,0.47,0,0,0,.48-0.22c0.08,0.34.37,0.43,0.66,0.08l-0.39-.06,0.07-.16-0.16-.21h0.26l0-.13,0.31,0.21c0.19-.41.79-0.5,0.66,0-0.13-.12-0.29-0.16-0.56.3s-0.81.65-.94,0.3a0.55,0.55,0,0,1-.79-0.21,0.53,0.53,0,0,1-.87-0.11A0.57,0.57,0,0,1,406.69,268.75Z" transform="translate(-356.38 -205.38)"/><path class="f" d="M408,269.38c0.37,0,.36.19,0,0.15S407.67,269.35,408,269.38Z" transform="translate(-356.38 -205.38)"/><path class="f" d="M405.33,269.38c-0.37,0-.36.19,0,0.15S405.71,269.35,405.33,269.38Z" transform="translate(-356.38 -205.38)"/><path class="c" d="M408.55,268.2a0.18,0.18,0,1,1,0,.35A0.18,0.18,0,1,1,408.55,268.2Z" transform="translate(-356.38 -205.38)"/><path class="c" d="M406.68,268a0.18,0.18,0,1,1,0,.35A0.18,0.18,0,1,1,406.68,268Z" transform="translate(-356.38 -205.38)"/><path class="c" d="M410.28,268.65c0.12,0.07-.06.37-0.18,0.3S410.16,268.58,410.28,268.65Z" transform="translate(-356.38 -205.38)"/><path class="c" d="M404.83,268.2a0.18,0.18,0,1,0,0,.35A0.18,0.18,0,1,0,404.83,268.2Z" transform="translate(-356.38 -205.38)"/><path class="c" d="M403.1,268.65c-0.12.07,0.06,0.37,0.18,0.3S403.22,268.58,403.1,268.65Z" transform="translate(-356.38 -205.38)"/><path class="c" d="M406.4,269.48a0,0,0,0,1-.05,0v-0.1a0,0,0,0,1,.05,0H407a0,0,0,0,1,.05,0v0.1a0,0,0,0,1-.05,0H406.4Z" transform="translate(-356.38 -205.38)"/><polygon class="c" points="53.03 64.37 52.84 64.42 52.68 64.3 52.87 64.25 53.03 64.37"/><polygon class="c" points="47.59 64.37 47.79 64.42 47.95 64.3 47.76 64.25 47.59 64.37"/><path class="g" d="M409.3,268.66a0.11,0.11,0,1,1,0,.22A0.11,0.11,0,1,1,409.3,268.66Z" transform="translate(-356.38 -205.38)"/><path class="g" d="M407.59,268.32a0.11,0.11,0,1,1,0,.22A0.11,0.11,0,1,1,407.59,268.32Z" transform="translate(-356.38 -205.38)"/><path class="g" d="M404.08,268.66a0.11,0.11,0,1,0,0,.22A0.11,0.11,0,1,0,404.08,268.66Z" transform="translate(-356.38 -205.38)"/><path class="g" d="M405.79,268.32a0.11,0.11,0,1,0,0,.22A0.11,0.11,0,1,0,405.79,268.32Z" transform="translate(-356.38 -205.38)"/><path class="g" d="M407.37,269.27a0.11,0.11,0,1,1,0,.22A0.11,0.11,0,1,1,407.37,269.27Z" transform="translate(-356.38 -205.38)"/><path class="g" d="M408.72,269.45a0.11,0.11,0,1,1,0,.22A0.11,0.11,0,1,1,408.72,269.45Z" transform="translate(-356.38 -205.38)"/><path class="g" d="M406,269.27a0.11,0.11,0,1,0,0,.22A0.11,0.11,0,1,0,406,269.27Z" transform="translate(-356.38 -205.38)"/><path class="g" d="M404.66,269.45a0.11,0.11,0,1,0,0,.22A0.11,0.11,0,1,0,404.66,269.45Z" transform="translate(-356.38 -205.38)"/><ellipse class="c" cx="50.32" cy="64.71" rx="2.31" ry="0.28"/><circle class="h" cx="50.32" cy="60.31" r="0.38"/><path class="d" d="M406.61,264.68v0.2h-0.2v0.17h0.2v0.57h-0.3a0.31,0.31,0,0,0,0,.17h0.76a0.31,0.31,0,0,0,0-.17h-0.3v-0.57H407v-0.17h-0.2v-0.2h-0.17Z" transform="translate(-356.38 -205.38)"/><rect class="i" x="48.05" y="69.13" width="4.53" height="23.54"/><rect class="i" x="91.67" y="69.13" width="4.53" height="23.54"/><line class="j" x1="51.61" y1="69.15" x2="51.61" y2="92.65"/><line class="j" x1="92.65" y1="69.15" x2="92.65" y2="92.65"/><path class="k" d="M403.54,283.71c-1.14.6-1.61,1.19-1.15,1.75a2.58,2.58,0,0,0,2,.75v-2C403.77,284.25,403.42,283.94,403.54,283.71Z" transform="translate(-356.38 -205.38)"/><path class="k" d="M404.43,286.28c-2.3,0-2.5-1.3-3.12-2.94-0.44-1.14-.09-1.26.74-1.93,1.62-1.32,7.46-2.45,12.11-.86v2.82a13.49,13.49,0,0,0-10.61.34c-1.14.6-1.61,1.19-1.15,1.75a2.58,2.58,0,0,0,2,.75v0.08Z" transform="translate(-356.38 -205.38)"/><path class="k" d="M402,293.36c-0.17-.08.1-0.35,0.49-0.61,2.85-1.93,5.27-2.3,7.11-3.64,1.44-1.06,1.36-1,1.36-2.42,0-.77.15-1.67-0.71-1.94a12,12,0,0,0-1.29-.33v0.06c2.24,0.55,2,.83.91,1.81a18.7,18.7,0,0,1-6.22,3.31c-2.21.67-2.39,1.26-2.24,1.87a6.61,6.61,0,0,1,.21,1.19A0.61,0.61,0,0,0,402,293.36Z" transform="translate(-356.38 -205.38)"/><path class="k" d="M409,284.48c2.24,0.55,2,.83.92,1.81a9.51,9.51,0,0,1-.92.73v-2.54Z" transform="translate(-356.38 -205.38)"/><path class="k" d="M402,293.36c-0.17-.08.1-0.35,0.49-0.61l0.17-.1c0.55,0.47,1.15,1.94.13,2.6A2.33,2.33,0,0,0,402,293.36Z" transform="translate(-356.38 -205.38)"/><path class="k" d="M453.46,283.71c1.14,0.6,1.61,1.19,1.15,1.75a2.58,2.58,0,0,1-2,.75v-2C453.23,284.25,453.58,283.94,453.46,283.71Z" transform="translate(-356.38 -205.38)"/><path class="k" d="M452.57,286.28c2.3,0,2.5-1.3,3.12-2.94,0.44-1.14.09-1.26-.74-1.93-1.62-1.32-7.46-2.45-12.11-.86v2.82a13.49,13.49,0,0,1,10.61.34c1.14,0.6,1.61,1.19,1.15,1.75a2.58,2.58,0,0,1-2,.75v0.08Z" transform="translate(-356.38 -205.38)"/><path class="k" d="M455,293.36c0.17-.08-0.1-0.35-0.49-0.61-2.85-1.93-5.27-2.3-7.11-3.64-1.44-1.06-1.36-1-1.36-2.42,0-.77-0.15-1.67.71-1.94a12,12,0,0,1,1.29-.33v0.06c-2.24.55-2,.83-0.91,1.81a18.7,18.7,0,0,0,6.22,3.31c2.21,0.67,2.39,1.26,2.24,1.87a6.6,6.6,0,0,0-.21,1.19A0.61,0.61,0,0,1,455,293.36Z" transform="translate(-356.38 -205.38)"/><path class="k" d="M448,284.48c-2.24.55-2,.83-0.92,1.81a9.49,9.49,0,0,0,.92.73v-2.54Z" transform="translate(-356.38 -205.38)"/><path class="k" d="M455,293.36c0.17-.08-0.1-0.35-0.49-0.61l-0.17-.1c-0.55.47-1.15,1.94-.13,2.6A2.33,2.33,0,0,1,455,293.36Z" transform="translate(-356.38 -205.38)"/><path class="l" d="M404.43,273.51a1.2,1.2,0,0,0-.83-1.22V270.6h6.19v1.68a1.2,1.2,0,0,0-.83,1.22h-4.53Z" transform="translate(-356.38 -205.38)"/><path class="l" d="M404.43,299a1.2,1.2,0,0,1-.83,1.23v1.68h6.19v-1.68A1.2,1.2,0,0,1,409,299h-4.53Z" transform="translate(-356.38 -205.38)"/><path class="l" d="M409,298.43a0.37,0.37,0,0,1,0,.73h-4.5a0.37,0.37,0,0,1,0-.73H409Z" transform="translate(-356.38 -205.38)"/><path class="l" d="M409,274.12a0.37,0.37,0,0,0,0-.73h-4.5a0.37,0.37,0,0,0,0,.73H409Z" transform="translate(-356.38 -205.38)"/><path class="l" d="M452.57,273.51a1.2,1.2,0,0,1,.83-1.22V270.6h-6.19v1.68a1.2,1.2,0,0,1,.83,1.22h4.53Z" transform="translate(-356.38 -205.38)"/><path class="l" d="M452.57,299a1.2,1.2,0,0,0,.83,1.23v1.68h-6.19v-1.68A1.2,1.2,0,0,0,448,299h4.53Z" transform="translate(-356.38 -205.38)"/><path class="l" d="M448,298.43a0.37,0.37,0,0,0,0,.73h4.5a0.37,0.37,0,0,0,0-.73H448Z" transform="translate(-356.38 -205.38)"/><path class="l" d="M448,274.12a0.37,0.37,0,0,1,0-.73h4.5a0.37,0.37,0,0,1,0,.73H448Z" transform="translate(-356.38 -205.38)"/><line class="j" x1="47.23" y1="66.91" x2="53.41" y2="66.91"/><line class="j" x1="47.23" y1="94.87" x2="53.41" y2="94.87"/><line class="j" x1="97.03" y1="66.91" x2="90.84" y2="66.91"/><line class="j" x1="97.03" y1="94.87" x2="90.84" y2="94.87"/><path class="m" d="M428.52,257a18.81,18.81,0,0,1,7,1.71,8.46,8.46,0,0,1,7.4,2.28c-0.12,1.79-1.34,2-1.91,3.25s-1.91,1.63-2.56,2.16a65.23,65.23,0,0,0-9.89-1.14,65.23,65.23,0,0,0-9.89,1.14c-0.65-.53-2-0.89-2.56-2.16s-1.79-1.46-1.91-3.25a8.46,8.46,0,0,1,7.4-2.28A18.81,18.81,0,0,1,428.52,257Z" transform="translate(-356.38 -205.38)"/><path class="n" d="M419.32,268.67a0.32,0.32,0,0,0-.11.22c0,0.81,4.16,1.47,9.29,1.47s9.29-.66,9.29-1.47a0.31,0.31,0,0,0-.1-0.22,3.27,3.27,0,0,1,.31-1.93c0.59,0.14,1.18-.41,0-0.69a41.45,41.45,0,0,0-19,0c-1.18.28-.59,0.83,0,0.69A3.22,3.22,0,0,1,419.32,268.67Z" transform="translate(-356.38 -205.38)"/><path class="o" d="M419,266.75a34.24,34.24,0,0,1,4.35-.79" transform="translate(-356.38 -205.38)"/><path class="o" d="M437.69,268.67c-0.68-.71-4.54-1.25-9.19-1.25s-8.5.54-9.18,1.25" transform="translate(-356.38 -205.38)"/><path class="o" d="M438,266.75a34.25,34.25,0,0,0-4.35-.79" transform="translate(-356.38 -205.38)"/><circle class="p" cx="72.12" cy="46.93" r="1.38"/><path class="n" d="M428.81,248.65v0.73h0.72V250h-0.72v2.06h1.1a1.12,1.12,0,0,1,0,.61h-2.75a1.12,1.12,0,0,1,0-.61h1.1V250h-0.72v-0.61h0.72v-0.73h0.61Z" transform="translate(-356.38 -205.38)"/><path class="n" d="M421,255.68a5.51,5.51,0,0,0-6.55,1.46,4.37,4.37,0,0,0-.24,5l0.49,0.1,0.71-1.2a3,3,0,0,1,0-4.19,4.82,4.82,0,0,1,5.39-.69Z" transform="translate(-356.38 -205.38)"/><path class="n" d="M436.09,255.68a5.51,5.51,0,0,1,6.55,1.46,4.37,4.37,0,0,1,.24,5l-0.49.1-0.71-1.2a3,3,0,0,0,0-4.19,4.82,4.82,0,0,0-5.39-.69Z" transform="translate(-356.38 -205.38)"/><path class="n" d="M427.54,254.5a5,5,0,0,0-6.18.49,2.88,2.88,0,0,0,.24,4.27l-0.51.75,0.35,0.37c0.2-.26.79-1.1,0.79-1.1-1.32-1.26-1.53-3.17-.18-4.15a4.42,4.42,0,0,1,5.51.1Z" transform="translate(-356.38 -205.38)"/><path class="n" d="M429.5,254.5a5,5,0,0,1,6.18.49,2.88,2.88,0,0,1-.24,4.27l0.51,0.75-0.35.37c-0.2-.26-0.79-1.1-0.79-1.1,1.32-1.26,1.53-3.17.18-4.15a4.42,4.42,0,0,0-5.51.1Z" transform="translate(-356.38 -205.38)"/><path class="n" d="M428.52,260.46l1.91-1.69a4.62,4.62,0,0,1-.83-3.07c0-1.06,0-2.07-1.08-2.07s-1.08,1-1.08,2.07a4.62,4.62,0,0,1-.83,3.07Z" transform="translate(-356.38 -205.38)"/><path class="n" d="M428.52,259.89l1.14-1.39a5,5,0,0,1-.5-2.53c0-.87,0-1.71-0.64-1.71s-0.64.84-.64,1.71a5,5,0,0,1-.5,2.53Z" transform="translate(-356.38 -205.38)"/><path class="q" d="M428.5,259a0.46,0.46,0,1,1,0-.92A0.46,0.46,0,1,1,428.5,259Z" transform="translate(-356.38 -205.38)"/><path class="q" d="M428.5,258a0.44,0.44,0,1,1,0-.88A0.44,0.44,0,1,1,428.5,258Z" transform="translate(-356.38 -205.38)"/><path class="q" d="M428.5,257a0.42,0.42,0,1,1,0-.84A0.42,0.42,0,1,1,428.5,257Z" transform="translate(-356.38 -205.38)"/><path class="q" d="M428.5,256a0.4,0.4,0,1,1,0-.81A0.4,0.4,0,1,1,428.5,256Z" transform="translate(-356.38 -205.38)"/><path class="q" d="M428.5,255.12a0.38,0.38,0,1,1,0-.77A0.38,0.38,0,1,1,428.5,255.12Z" transform="translate(-356.38 -205.38)"/><path class="n" d="M428.52,264.14a2.06,2.06,0,0,0,3.25.16c0.37,1.14,2.18,1.44,3.17.39a2,2,0,0,0,2.87.75c0.47,1.28,2.44.59,3.42-1.08s1.57-1.53,2-1.08c0.49-1.87-1.71-1.55-2.38,0l-1.14-.77-0.1.49h-1l0.57,0.77-0.24.57,1.4,0.2c-1.06,1.28-2.12,1-2.4-.28a1.7,1.7,0,0,1-1.75.81,1.29,1.29,0,0,1-.75-1.84l1.5,1.23,0.07-.84,1-.11-0.8-.55,0.33-.77-1.9.38,1.37-1.56-0.73-.14-0.33-1-0.74.7-0.71-.22,0.47,2-1.5-1.23-0.07.84-1,.11,0.8,0.55-0.33.77,1.9-.38a1.61,1.61,0,0,1-1.62,1.56,2.25,2.25,0,0,1-1.48-1.57,1.69,1.69,0,0,1-1.65,1.12,1.51,1.51,0,0,1-1.2-1.87l1.87,0.89-0.14-.89,1-.36-1-.36,0.14-.89-1.87.89,1-2-0.79,0-0.61-.92-0.61.92-0.79,0,1,2-1.87-.89,0.14,0.89-1,.36,1,0.36-0.14.89,1.87-.89a1.51,1.51,0,0,1-1.2,1.87,1.69,1.69,0,0,1-1.65-1.12,2.25,2.25,0,0,1-1.48,1.57,1.61,1.61,0,0,1-1.62-1.56l1.9,0.38-0.33-.77,0.8-.55-1-.11-0.07-.84-1.5,1.23,0.47-2-0.71.22-0.74-.7-0.33,1L420,261l1.37,1.56-1.9-.38,0.33,0.77-0.8.55,1,0.11,0.07,0.84,1.5-1.23a1.29,1.29,0,0,1-.74,1.84,1.7,1.7,0,0,1-1.75-.81c-0.28,1.24-1.34,1.57-2.4.28l1.4-.2-0.24-.57,0.57-.77h-1l-0.1-.49-1.14.77c-0.67-1.51-2.87-1.83-2.38,0,0.47-.45,1.06-0.59,2,1.08s2.95,2.36,3.42,1.08a2,2,0,0,0,2.87-.75c1,1.06,2.81.75,3.17-.39A2.06,2.06,0,0,0,428.52,264.14Z" transform="translate(-356.38 -205.38)"/><path class="r" d="M423.6,266.44c-1.36.13-1.3,0.68,0.05,0.56S425,266.31,423.6,266.44Z" transform="translate(-356.38 -205.38)"/><path class="r" d="M433.44,266.44c1.36,0.13,1.3.68-.05,0.56S432.07,266.31,433.44,266.44Z" transform="translate(-356.38 -205.38)"/><path class="m" d="M421.77,262.15a0.64,0.64,0,1,0,0,1.28A0.64,0.64,0,1,0,421.77,262.15Z" transform="translate(-356.38 -205.38)"/><path class="m" d="M428.54,261.25a0.64,0.64,0,1,0,0,1.28A0.64,0.64,0,1,0,428.54,261.25Z" transform="translate(-356.38 -205.38)"/><path class="m" d="M415.49,263.78c-0.43.26,0.23,1.36,0.66,1.1S415.93,263.52,415.49,263.78Z" transform="translate(-356.38 -205.38)"/><path class="m" d="M435.27,262.15a0.64,0.64,0,1,1,0,1.28A0.64,0.64,0,1,1,435.27,262.15Z" transform="translate(-356.38 -205.38)"/><path class="m" d="M441.55,263.78c0.43,0.26-.23,1.36-0.66,1.1S441.11,263.52,441.55,263.78Z" transform="translate(-356.38 -205.38)"/><path class="m" d="M429.57,266.79a0.16,0.16,0,0,0,.19-0.17v-0.38a0.16,0.16,0,0,0-.19-0.17h-2.14a0.16,0.16,0,0,0-.19.17v0.38a0.16,0.16,0,0,0,.19.17h2.14Z" transform="translate(-356.38 -205.38)"/><polygon class="m" points="62.28 62.38 62.98 62.56 63.56 62.12 62.86 61.93 62.28 62.38"/><polygon class="m" points="82.01 62.38 81.31 62.56 80.73 62.12 81.43 61.93 82.01 62.38"/><path class="q" d="M420.93,254.51a0.38,0.38,0,1,0,0,.77A0.38,0.38,0,1,0,420.93,254.51Z" transform="translate(-356.38 -205.38)"/><path class="q" d="M421.67,253.83a0.38,0.38,0,1,0,0,.77A0.38,0.38,0,1,0,421.67,253.83Z" transform="translate(-356.38 -205.38)"/><path class="q" d="M422.54,253.35a0.38,0.38,0,1,0,0,.77A0.38,0.38,0,1,0,422.54,253.35Z" transform="translate(-356.38 -205.38)"/><path class="q" d="M423.56,253a0.38,0.38,0,1,0,0,.77A0.38,0.38,0,1,0,423.56,253Z" transform="translate(-356.38 -205.38)"/><path class="q" d="M424.53,252.88a0.38,0.38,0,1,0,0,.77A0.38,0.38,0,1,0,424.53,252.88Z" transform="translate(-356.38 -205.38)"/><path class="q" d="M425.53,252.92a0.38,0.38,0,1,0,0,.77A0.38,0.38,0,1,0,425.53,252.92Z" transform="translate(-356.38 -205.38)"/><path class="q" d="M426.43,253.14a0.38,0.38,0,1,0,0,.77A0.38,0.38,0,1,0,426.43,253.14Z" transform="translate(-356.38 -205.38)"/><path class="q" d="M427.28,253.49a0.38,0.38,0,1,0,0,.77A0.38,0.38,0,1,0,427.28,253.49Z" transform="translate(-356.38 -205.38)"/><path class="q" d="M420.42,255.34a0.38,0.38,0,1,0,0,.77A0.38,0.38,0,1,0,420.42,255.34Z" transform="translate(-356.38 -205.38)"/><path class="q" d="M420.12,256.3a0.38,0.38,0,1,0,0,.77A0.38,0.38,0,1,0,420.12,256.3Z" transform="translate(-356.38 -205.38)"/><path class="q" d="M420.2,257.27a0.38,0.38,0,1,0,0,.77A0.38,0.38,0,1,0,420.2,257.27Z" transform="translate(-356.38 -205.38)"/><path class="q" d="M420.57,258.17a0.38,0.38,0,1,0,0,.77A0.38,0.38,0,1,0,420.57,258.17Z" transform="translate(-356.38 -205.38)"/><path class="q" d="M421.1,258.94a0.38,0.38,0,1,0,0,.77A0.38,0.38,0,1,0,421.1,258.94Z" transform="translate(-356.38 -205.38)"/><path class="q" d="M419.9,254.53a0.38,0.38,0,1,0,0,.77A0.38,0.38,0,1,0,419.9,254.53Z" transform="translate(-356.38 -205.38)"/><path class="q" d="M418.94,254.4a0.38,0.38,0,1,0,0,.77A0.38,0.38,0,1,0,418.94,254.4Z" transform="translate(-356.38 -205.38)"/><path class="q" d="M418,254.44a0.38,0.38,0,1,0,0,.77A0.38,0.38,0,1,0,418,254.44Z" transform="translate(-356.38 -205.38)"/><path class="q" d="M417,254.65a0.38,0.38,0,1,0,0,.77A0.38,0.38,0,1,0,417,254.65Z" transform="translate(-356.38 -205.38)"/><path class="q" d="M416,255a0.38,0.38,0,1,0,0,.77A0.38,0.38,0,1,0,416,255Z" transform="translate(-356.38 -205.38)"/><path class="q" d="M415.16,255.52a0.38,0.38,0,1,0,0,.77A0.38,0.38,0,1,0,415.16,255.52Z" transform="translate(-356.38 -205.38)"/><path class="q" d="M414.4,256.17a0.38,0.38,0,1,0,0,.77A0.38,0.38,0,1,0,414.4,256.17Z" transform="translate(-356.38 -205.38)"/><path class="q" d="M413.77,257a0.38,0.38,0,1,0,0,.77A0.38,0.38,0,1,0,413.77,257Z" transform="translate(-356.38 -205.38)"/><path class="q" d="M413.37,257.86a0.38,0.38,0,1,0,0,.77A0.38,0.38,0,1,0,413.37,257.86Z" transform="translate(-356.38 -205.38)"/><path class="q" d="M413.14,258.82a0.38,0.38,0,1,0,0,.77A0.38,0.38,0,1,0,413.14,258.82Z" transform="translate(-356.38 -205.38)"/><path class="q" d="M413.12,259.83a0.38,0.38,0,1,0,0,.77A0.38,0.38,0,1,0,413.12,259.83Z" transform="translate(-356.38 -205.38)"/><path class="q" d="M413.31,260.77a0.38,0.38,0,1,0,0,.77A0.38,0.38,0,1,0,413.31,260.77Z" transform="translate(-356.38 -205.38)"/><path class="q" d="M413.63,261.58a0.38,0.38,0,1,0,0,.77A0.38,0.38,0,1,0,413.63,261.58Z" transform="translate(-356.38 -205.38)"/><path class="q" d="M436.11,254.51a0.38,0.38,0,1,1,0,.77A0.38,0.38,0,1,1,436.11,254.51Z" transform="translate(-356.38 -205.38)"/><path class="q" d="M435.38,253.83a0.38,0.38,0,1,1,0,.77A0.38,0.38,0,1,1,435.38,253.83Z" transform="translate(-356.38 -205.38)"/><path class="q" d="M434.5,253.35a0.38,0.38,0,1,1,0,.77A0.38,0.38,0,1,1,434.5,253.35Z" transform="translate(-356.38 -205.38)"/><path class="q" d="M433.48,253a0.38,0.38,0,1,1,0,.77A0.38,0.38,0,1,1,433.48,253Z" transform="translate(-356.38 -205.38)"/><path class="q" d="M432.51,252.88a0.38,0.38,0,1,1,0,.77A0.38,0.38,0,1,1,432.51,252.88Z" transform="translate(-356.38 -205.38)"/><path class="q" d="M431.51,252.92a0.38,0.38,0,1,1,0,.77A0.38,0.38,0,1,1,431.51,252.92Z" transform="translate(-356.38 -205.38)"/><path class="q" d="M430.62,253.14a0.38,0.38,0,1,1,0,.77A0.38,0.38,0,1,1,430.62,253.14Z" transform="translate(-356.38 -205.38)"/><path class="q" d="M429.76,253.49a0.38,0.38,0,1,1,0,.77A0.38,0.38,0,1,1,429.76,253.49Z" transform="translate(-356.38 -205.38)"/><path class="q" d="M436.62,255.34a0.38,0.38,0,1,1,0,.77A0.38,0.38,0,1,1,436.62,255.34Z" transform="translate(-356.38 -205.38)"/><path class="q" d="M436.92,256.3a0.38,0.38,0,1,1,0,.77A0.38,0.38,0,1,1,436.92,256.3Z" transform="translate(-356.38 -205.38)"/><path class="q" d="M436.84,257.27a0.38,0.38,0,1,1,0,.77A0.38,0.38,0,1,1,436.84,257.27Z" transform="translate(-356.38 -205.38)"/><path class="q" d="M436.47,258.17a0.38,0.38,0,1,1,0,.77A0.38,0.38,0,1,1,436.47,258.17Z" transform="translate(-356.38 -205.38)"/><path class="q" d="M435.94,258.94a0.38,0.38,0,1,1,0,.77A0.38,0.38,0,1,1,435.94,258.94Z" transform="translate(-356.38 -205.38)"/><path class="q" d="M437.14,254.53a0.38,0.38,0,1,1,0,.77A0.38,0.38,0,1,1,437.14,254.53Z" transform="translate(-356.38 -205.38)"/><path class="q" d="M438.1,254.4a0.38,0.38,0,1,1,0,.77A0.38,0.38,0,1,1,438.1,254.4Z" transform="translate(-356.38 -205.38)"/><path class="q" d="M439.06,254.44a0.38,0.38,0,1,1,0,.77A0.38,0.38,0,1,1,439.06,254.44Z" transform="translate(-356.38 -205.38)"/><path class="q" d="M440.07,254.65a0.38,0.38,0,1,1,0,.77A0.38,0.38,0,1,1,440.07,254.65Z" transform="translate(-356.38 -205.38)"/><path class="q" d="M441,255a0.38,0.38,0,1,1,0,.77A0.38,0.38,0,1,1,441,255Z" transform="translate(-356.38 -205.38)"/><path class="q" d="M441.88,255.52a0.38,0.38,0,1,1,0,.77A0.38,0.38,0,1,1,441.88,255.52Z" transform="translate(-356.38 -205.38)"/><path class="q" d="M442.64,256.17a0.38,0.38,0,1,1,0,.77A0.38,0.38,0,1,1,442.64,256.17Z" transform="translate(-356.38 -205.38)"/><path class="q" d="M443.27,257a0.38,0.38,0,1,1,0,.77A0.38,0.38,0,1,1,443.27,257Z" transform="translate(-356.38 -205.38)"/><path class="q" d="M443.67,257.86a0.38,0.38,0,1,1,0,.77A0.38,0.38,0,1,1,443.67,257.86Z" transform="translate(-356.38 -205.38)"/><path class="q" d="M443.9,258.82a0.38,0.38,0,1,1,0,.77A0.38,0.38,0,1,1,443.9,258.82Z" transform="translate(-356.38 -205.38)"/><path class="q" d="M443.92,259.83a0.38,0.38,0,1,1,0,.77A0.38,0.38,0,1,1,443.92,259.83Z" transform="translate(-356.38 -205.38)"/><path class="q" d="M443.74,260.77a0.38,0.38,0,1,1,0,.77A0.38,0.38,0,1,1,443.74,260.77Z" transform="translate(-356.38 -205.38)"/><path class="q" d="M443.41,261.58a0.38,0.38,0,1,1,0,.77A0.38,0.38,0,1,1,443.41,261.58Z" transform="translate(-356.38 -205.38)"/><path class="q" d="M419,263.82a0.4,0.4,0,1,0,0,.79A0.4,0.4,0,1,0,419,263.82Z" transform="translate(-356.38 -205.38)"/><path class="q" d="M425.27,262.58a0.4,0.4,0,1,0,0,.79A0.4,0.4,0,1,0,425.27,262.58Z" transform="translate(-356.38 -205.38)"/><path class="q" d="M438,263.82a0.4,0.4,0,1,1,0,.79A0.4,0.4,0,1,1,438,263.82Z" transform="translate(-356.38 -205.38)"/><path class="q" d="M431.77,262.58a0.4,0.4,0,1,1,0,.79A0.4,0.4,0,1,1,431.77,262.58Z" transform="translate(-356.38 -205.38)"/><path class="q" d="M426.06,266a0.4,0.4,0,1,0,0,.79A0.4,0.4,0,1,0,426.06,266Z" transform="translate(-356.38 -205.38)"/><path class="q" d="M421.16,266.68a0.4,0.4,0,1,0,0,.79A0.4,0.4,0,1,0,421.16,266.68Z" transform="translate(-356.38 -205.38)"/><path class="q" d="M431,266a0.4,0.4,0,1,1,0,.79A0.4,0.4,0,1,1,431,266Z" transform="translate(-356.38 -205.38)"/><path class="q" d="M435.88,266.68a0.4,0.4,0,1,1,0,.79A0.4,0.4,0,1,1,435.88,266.68Z" transform="translate(-356.38 -205.38)"/><ellipse class="m" cx="72.13" cy="63.6" rx="8.37" ry="1.02"/><path class="o" d="M414.4,257.15a3.49,3.49,0,0,0,.26,3.7l-0.51,1.3" transform="translate(-356.38 -205.38)"/><path class="o" d="M442.64,257.15a3.49,3.49,0,0,1-.26,3.7l0.51,1.3" transform="translate(-356.38 -205.38)"/><path class="i" d="M443.08,270.33v26.89c0,6.92-7.29,9.13-14.58,9.13s-14.58-2.21-14.58-9.13V270.33h29.16Z" transform="translate(-356.38 -205.38)"/><path class="l" d="M428.5,287v10.63a7.29,7.29,0,0,1-14.58,0V287H428.5Z" transform="translate(-356.38 -205.38)"/><path class="k" d="M428.5,287v10.63a7.29,7.29,0,0,0,14.58,0V287H428.5Z" transform="translate(-356.38 -205.38)"/><path class="k" d="M417,303.37V287h-1.29v15.22A7,7,0,0,0,417,303.37Z" transform="translate(-356.38 -205.38)"/><path class="k" d="M420.17,304.56V287h-1.29v17.29A7.06,7.06,0,0,0,420.17,304.56Z" transform="translate(-356.38 -205.38)"/><path class="k" d="M425.38,303.37V287h1.29v15.22A7,7,0,0,1,425.38,303.37Z" transform="translate(-356.38 -205.38)"/><path class="k" d="M422.25,304.56V287h1.29v17.29A7.06,7.06,0,0,1,422.25,304.56Z" transform="translate(-356.38 -205.38)"/><rect class="k" x="57.55" y="64.95" width="14.58" height="16.66"/><path class="n" d="M432.35,289.1a0.45,0.45,0,0,1,.44-0.48h0.92a0.45,0.45,0,0,1,.44.48h-1.79Z" transform="translate(-356.38 -205.38)"/><path class="n" d="M439.24,289.1a0.45,0.45,0,0,0-.44-0.48h-0.92a0.45,0.45,0,0,0-.44.48h1.79Z" transform="translate(-356.38 -205.38)"/><path class="n" d="M439.24,289.68a0.45,0.45,0,0,1-.44.48h-0.92a0.45,0.45,0,0,1-.44-0.48h1.79Z" transform="translate(-356.38 -205.38)"/><path class="n" d="M432.35,289.68a0.45,0.45,0,0,0,.44.48h0.92a0.45,0.45,0,0,0,.44-0.48h-1.79Z" transform="translate(-356.38 -205.38)"/><path class="n" d="M435.51,292.58a0.45,0.45,0,0,1-.48-0.44v-0.92a0.45,0.45,0,0,1,.48-0.44v1.79Z" transform="translate(-356.38 -205.38)"/><path class="n" d="M436.09,292.58a0.45,0.45,0,0,0,.48-0.44v-0.92a0.45,0.45,0,0,0-.48-0.44v1.79Z" transform="translate(-356.38 -205.38)"/><path class="n" d="M435.51,300.17a0.45,0.45,0,0,1-.48-0.44v-0.92a0.45,0.45,0,0,1,.48-0.44v1.79Z" transform="translate(-356.38 -205.38)"/><path class="n" d="M436.09,300.17a0.45,0.45,0,0,0,.48-0.44v-0.92a0.45,0.45,0,0,0-.48-0.44v1.79Z" transform="translate(-356.38 -205.38)"/><path class="n" d="M437.21,293a0.45,0.45,0,0,1-.08-0.65l0.6-.7a0.45,0.45,0,0,1,.65,0Z" transform="translate(-356.38 -205.38)"/><path class="n" d="M437.65,293.37a0.45,0.45,0,0,0,.65,0l0.6-.7a0.45,0.45,0,0,0-.08-0.65Z" transform="translate(-356.38 -205.38)"/><path class="n" d="M432.7,298.2a0.45,0.45,0,0,1-.08-0.65l0.6-.7a0.45,0.45,0,0,1,.65,0Z" transform="translate(-356.38 -205.38)"/><path class="n" d="M433.14,298.58a0.45,0.45,0,0,0,.65,0l0.6-.7a0.45,0.45,0,0,0-.08-0.65Z" transform="translate(-356.38 -205.38)"/><path class="n" d="M434.39,293a0.45,0.45,0,0,0,.08-0.65l-0.6-.7a0.45,0.45,0,0,0-.65,0Z" transform="translate(-356.38 -205.38)"/><path class="n" d="M433.95,293.37a0.45,0.45,0,0,1-.65,0l-0.6-.7a0.45,0.45,0,0,1,.08-0.65Z" transform="translate(-356.38 -205.38)"/><path class="n" d="M438.89,298.2a0.45,0.45,0,0,0,.08-0.65l-0.6-.7a0.45,0.45,0,0,0-.65,0Z" transform="translate(-356.38 -205.38)"/><path class="n" d="M438.45,298.58a0.45,0.45,0,0,1-.65,0l-0.6-.7a0.45,0.45,0,0,1,.08-0.65Z" transform="translate(-356.38 -205.38)"/><path class="n" d="M432.35,294.77a0.45,0.45,0,0,1,.44-0.48h0.92a0.45,0.45,0,0,1,.44.48h-1.79Z" transform="translate(-356.38 -205.38)"/><path class="n" d="M432.35,295.35a0.45,0.45,0,0,0,.44.48h0.92a0.45,0.45,0,0,0,.44-0.48h-1.79Z" transform="translate(-356.38 -205.38)"/><path class="n" d="M439.24,294.77a0.45,0.45,0,0,0-.44-0.48h-0.92a0.45,0.45,0,0,0-.44.48h1.79Z" transform="translate(-356.38 -205.38)"/><path class="n" d="M439.24,295.35a0.45,0.45,0,0,1-.44.48h-0.92a0.45,0.45,0,0,1-.44-0.48h1.79Z" transform="translate(-356.38 -205.38)"/><path class="n" d="M440.38,292.58a0.45,0.45,0,0,1-.48-0.44v-0.92a0.45,0.45,0,0,1,.48-0.44v1.79Z" transform="translate(-356.38 -205.38)"/><path class="n" d="M441,292.58a0.45,0.45,0,0,0,.48-0.44v-0.92a0.45,0.45,0,0,0-.48-0.44v1.79Z" transform="translate(-356.38 -205.38)"/><path class="n" d="M440.38,298.24a0.45,0.45,0,0,1-.48-0.44v-0.92a0.45,0.45,0,0,1,.48-0.44v1.79Z" transform="translate(-356.38 -205.38)"/><path class="n" d="M441,298.24a0.45,0.45,0,0,0,.48-0.44v-0.92a0.45,0.45,0,0,0-.48-0.44v1.79Z" transform="translate(-356.38 -205.38)"/><path class="n" d="M437.24,302a0.45,0.45,0,0,1,.23-0.61l0.85-.34a0.44,0.44,0,0,1,.58.28A5.23,5.23,0,0,1,437.24,302Z" transform="translate(-356.38 -205.38)"/><path class="n" d="M439.12,301.87a0.46,0.46,0,0,1-.23.62l-0.85.34a0.45,0.45,0,0,1-.58-0.29A6.12,6.12,0,0,0,439.12,301.87Z" transform="translate(-356.38 -205.38)"/><path class="n" d="M431.22,292.58a0.45,0.45,0,0,0,.48-0.44v-0.92a0.45,0.45,0,0,0-.48-0.44v1.79Z" transform="translate(-356.38 -205.38)"/><path class="n" d="M430.64,292.58a0.45,0.45,0,0,1-.48-0.44v-0.92a0.45,0.45,0,0,1,.48-0.44v1.79Z" transform="translate(-356.38 -205.38)"/><path class="n" d="M431.22,298.24a0.45,0.45,0,0,0,.48-0.44v-0.92a0.45,0.45,0,0,0-.48-0.44v1.79Z" transform="translate(-356.38 -205.38)"/><path class="n" d="M430.64,298.24a0.45,0.45,0,0,1-.48-0.44v-0.92a0.45,0.45,0,0,1,.48-0.44v1.79Z" transform="translate(-356.38 -205.38)"/><path class="n" d="M434.35,302a0.45,0.45,0,0,0-.23-0.61l-0.85-.34a0.44,0.44,0,0,0-.58.28A5.23,5.23,0,0,0,434.35,302Z" transform="translate(-356.38 -205.38)"/><path class="n" d="M432.47,301.87a0.46,0.46,0,0,0,.23.62l0.85,0.34a0.45,0.45,0,0,0,.58-0.29A6.12,6.12,0,0,1,432.47,301.87Z" transform="translate(-356.38 -205.38)"/><polyline class="n" points="79.13 84.66 79.13 85.76 79.71 85.76 79.71 84.66"/><path class="n" d="M435.1,302.69a6.42,6.42,0,0,1-1.43-.28l0.21-.53a5.94,5.94,0,0,0,1.24.22,0.75,0.75,0,0,1,.38-0.38v-1.91h0.58v1.91a0.77,0.77,0,0,1,.38.37,6,6,0,0,0,1.24-.22l0.21,0.53a6.41,6.41,0,0,1-1.43.28A0.75,0.75,0,0,1,435.1,302.69Z" transform="translate(-356.38 -205.38)"/><path class="n" d="M431.47,301a0.74,0.74,0,0,1-.6-0.17,0.75,0.75,0,0,1-.08-1.06,3.3,3.3,0,0,1-.15-1v-0.86h0.58v0.7a3.27,3.27,0,0,0,.12.89,0.75,0.75,0,0,1,.24,0l1.35-1.58,0.44,0.38L432,299.9a0.75,0.75,0,0,1-.06.77,3.61,3.61,0,0,0,1,.84l-0.21.53A4.32,4.32,0,0,1,431.47,301Z" transform="translate(-356.38 -205.38)"/><path class="n" d="M431.22,294.37v-2h-0.58v2a0.75,0.75,0,0,0,0,1.38v1.07h0.58v-1.07a0.75,0.75,0,0,0,.39-0.4h1.09v-0.58h-1.09A0.76,0.76,0,0,0,431.22,294.37Z" transform="translate(-356.38 -205.38)"/><path class="n" d="M431.6,289.1h1.1v0.58h-1.09l0,0,1.85,2.17-0.44.38-1.79-2.09v0.95h-0.58v-1a0.75,0.75,0,1,1,.85-1.18A0.74,0.74,0,0,1,431.6,289.1Z" transform="translate(-356.38 -205.38)"/><path class="n" d="M435.5,290a0.76,0.76,0,0,1-.38-0.36h-1.35V289.1h1.32a0.75,0.75,0,0,1,1.4,0h1.31v0.58h-1.35a0.76,0.76,0,0,1-.38.36" transform="translate(-356.38 -205.38)"/><polygon class="n" points="79.71 93.37 79.71 90.47 81.15 92.13 81.59 91.75 80.06 89.97 81.44 89.97 81.44 89.39 80.06 89.39 81.41 87.84 80.97 87.46 79.71 88.9 79.71 86.99 79.13 86.99 79.13 88.9 77.88 87.46 77.44 87.84 78.79 89.39 77.41 89.39 77.41 89.97 78.79 89.97 77.26 91.75 77.7 92.13 79.13 90.47 79.13 93.37 79.71 93.37"/><path class="n" d="M440.13,301a0.74,0.74,0,0,0,.6-0.17,0.75,0.75,0,0,0,.08-1.06,3.3,3.3,0,0,0,.15-1v-0.86h-0.58v0.7a3.28,3.28,0,0,1-.12.89,0.75,0.75,0,0,0-.24,0l-1.35-1.58-0.44.38,1.35,1.59a0.75,0.75,0,0,0,.06.77,3.61,3.61,0,0,1-1,.84l0.21,0.53A4.32,4.32,0,0,0,440.13,301Z" transform="translate(-356.38 -205.38)"/><path class="n" d="M440.38,294.37v-2H441v2a0.75,0.75,0,0,1,0,1.38v1.07h-0.58v-1.07a0.75,0.75,0,0,1-.39-0.4h-1.09v-0.58H440A0.76,0.76,0,0,1,440.38,294.37Z" transform="translate(-356.38 -205.38)"/><path class="n" d="M440,289.1h-1.1v0.58H440l0,0-1.85,2.17,0.44,0.38,1.79-2.09v0.95H441v-1a0.75,0.75,0,1,0-.85-1.18A0.74,0.74,0,0,0,440,289.1Z" transform="translate(-356.38 -205.38)"/><circle class="m" cx="79.42" cy="83.98" r="0.35"/><circle class="m" cx="440.67" cy="289.4" r="0.35" transform="translate(-422.55 229.1) rotate(-49.27)"/><circle class="m" cx="431.35" cy="300.23" r="0.35" transform="translate(-434.01 225.74) rotate(-49.26)"/><circle class="m" cx="430.92" cy="289.4" r="0.35" transform="translate(-440.83 145.93) rotate(-40.73)"/><circle class="m" cx="440.24" cy="300.23" r="0.35" transform="matrix(0.76, -0.65, 0.65, 0.76, -445.63, 154.7)"/><circle class="m" cx="74.55" cy="89.68" r="0.35"/><circle class="m" cx="84.3" cy="89.68" r="0.35"/><circle class="m" cx="79.42" cy="97.05" r="0.35"/><circle class="r" cx="79.42" cy="89.7" r="0.92"/><rect class="r" x="71.98" y="99.12" width="0.29" height="1.5"/><path class="r" d="M428.87,305.53a3.77,3.77,0,0,1,3.29-1.16A3.23,3.23,0,0,1,428.87,305.53Z" transform="translate(-356.38 -205.38)"/><path class="r" d="M428.13,305.4a3.09,3.09,0,0,0-3-1A2.68,2.68,0,0,0,428.13,305.4Z" transform="translate(-356.38 -205.38)"/><path class="n" d="M428.5,304.68c1.6,0,1.72-2.08.66-2.38a0.91,0.91,0,0,0,.19-0.56,1,1,0,0,0-.58.25,0.31,0.31,0,1,0-.55,0,1,1,0,0,0-.58-0.25,0.91,0.91,0,0,0,.19.56C426.78,302.59,426.9,304.68,428.5,304.68Z" transform="translate(-356.38 -205.38)"/><path class="s" d="M428.48,302.4c0.09,0.4-.76.87,0,1.76a2,2,0,0,1,.37-0.46A1,1,0,0,0,428.48,302.4Z" transform="translate(-356.38 -205.38)"/><polygon class="n" points="62.51 68.77 62.21 68.77 62.21 68.43 61.66 68.43 61.66 69.59 62.21 69.59 62.21 70.42 61.11 70.42 61.11 72.73 61.66 72.73 61.66 77.34 60.55 77.34 60.55 79.65 69.37 79.65 69.37 77.34 68.26 77.34 68.26 72.73 68.78 72.73 68.78 70.42 67.71 70.42 67.71 69.59 68.26 69.59 68.26 68.43 67.71 68.43 67.71 68.77 67.42 68.77 67.42 68.43 66.92 68.43 66.92 68.77 66.61 68.77 66.61 68.43 66.05 68.43 66.05 69.59 66.61 69.59 66.61 70.42 65.52 70.42 65.52 67.85 66.05 67.85 66.05 66.69 65.52 66.69 65.52 67.04 65.22 67.04 65.22 66.69 64.7 66.69 64.7 67.04 64.41 67.04 64.41 66.69 63.87 66.69 63.87 67.85 64.41 67.85 64.41 70.42 63.31 70.42 63.31 69.59 63.87 69.59 63.87 68.43 63.31 68.43 63.31 68.77 63.03 68.77 63.03 68.43 62.51 68.43 62.51 68.77"/><line class="o" x1="60.55" y1="79.65" x2="69.37" y2="79.65"/><line class="o" x1="60.55" y1="79.08" x2="69.37" y2="79.08"/><line class="o" x1="60.55" y1="78.5" x2="69.37" y2="78.5"/><line class="o" x1="60.55" y1="77.93" x2="69.37" y2="77.93"/><line class="o" x1="60.55" y1="77.34" x2="69.37" y2="77.34"/><line class="o" x1="61.66" y1="76.77" x2="68.26" y2="76.77"/><line class="o" x1="61.66" y1="76.19" x2="68.26" y2="76.19"/><line class="o" x1="61.66" y1="75.61" x2="68.26" y2="75.61"/><line class="o" x1="61.66" y1="75.04" x2="68.26" y2="75.04"/><line class="o" x1="61.66" y1="74.46" x2="68.26" y2="74.46"/><line class="o" x1="61.66" y1="73.88" x2="68.26" y2="73.88"/><line class="o" x1="61.66" y1="73.3" x2="68.26" y2="73.3"/><line class="o" x1="61.11" y1="72.73" x2="68.78" y2="72.73"/><line class="o" x1="61.11" y1="72.15" x2="68.78" y2="72.15"/><line class="o" x1="61.11" y1="71.57" x2="68.78" y2="71.57"/><line class="o" x1="61.11" y1="71" x2="68.78" y2="71"/><line class="o" x1="62.21" y1="70.42" x2="67.71" y2="70.42"/><line class="o" x1="64.41" y1="69.84" x2="65.52" y2="69.84"/><line class="o" x1="64.41" y1="69.27" x2="65.52" y2="69.27"/><line class="o" x1="64.41" y1="68.69" x2="65.52" y2="68.69"/><line class="o" x1="64.41" y1="68.11" x2="65.52" y2="68.11"/><line class="o" x1="63.87" y1="67.37" x2="66.05" y2="67.37"/><line class="o" x1="62.21" y1="69.84" x2="63.31" y2="69.84"/><line class="o" x1="61.66" y1="69.1" x2="63.87" y2="69.1"/><line class="o" x1="61.66" y1="79.65" x2="61.66" y2="79.08"/><line class="o" x1="61.66" y1="78.5" x2="61.66" y2="77.93"/><line class="o" x1="61.11" y1="78.5" x2="61.11" y2="79.08"/><line class="o" x1="62.21" y1="79.08" x2="62.21" y2="78.5"/><line class="o" x1="62.79" y1="79.65" x2="62.79" y2="79.08"/><line class="o" x1="62.79" y1="78.5" x2="62.79" y2="77.93"/><line class="o" x1="62.79" y1="77.34" x2="62.79" y2="76.77"/><line class="o" x1="62.79" y1="76.19" x2="62.79" y2="75.61"/><line class="o" x1="62.21" y1="77.93" x2="62.21" y2="77.34"/><line class="o" x1="61.11" y1="77.93" x2="61.11" y2="77.34"/><line class="o" x1="63.31" y1="77.34" x2="63.31" y2="77.93"/><line class="o" x1="63.87" y1="77.34" x2="63.87" y2="76.77"/><line class="o" x1="62.21" y1="76.19" x2="62.21" y2="76.77"/><line class="o" x1="63.31" y1="76.19" x2="63.31" y2="76.77"/><line class="o" x1="64.41" y1="76.19" x2="64.41" y2="76.77"/><line class="o" x1="63.87" y1="76.19" x2="63.87" y2="75.61"/><line class="o" x1="64.41" y1="75.04" x2="64.41" y2="75.61"/><line class="o" x1="64.41" y1="73.88" x2="64.41" y2="74.46"/><line class="o" x1="63.87" y1="73.3" x2="63.87" y2="73.88"/><line class="o" x1="64.41" y1="72.73" x2="64.41" y2="73.3"/><line class="o" x1="63.31" y1="72.73" x2="63.31" y2="73.3"/><line class="o" x1="62.21" y1="72.73" x2="62.21" y2="73.3"/><line class="o" x1="61.66" y1="72.15" x2="61.66" y2="72.73"/><line class="o" x1="62.79" y1="72.15" x2="62.79" y2="72.73"/><line class="o" x1="63.87" y1="72.15" x2="63.87" y2="72.73"/><line class="o" x1="64.41" y1="71.57" x2="64.41" y2="72.15"/><line class="o" x1="63.31" y1="71.57" x2="63.31" y2="72.15"/><line class="o" x1="62.21" y1="71.57" x2="62.21" y2="72.15"/><line class="o" x1="61.66" y1="71" x2="61.66" y2="71.57"/><line class="o" x1="63.87" y1="71" x2="63.87" y2="71.57"/><line class="o" x1="62.79" y1="69.84" x2="62.79" y2="70.42"/><line class="o" x1="67.71" y1="69.84" x2="66.6" y2="69.84"/><line class="o" x1="68.26" y1="69.1" x2="66.05" y2="69.1"/><line class="o" x1="68.26" y1="79.65" x2="68.26" y2="79.08"/><line class="o" x1="68.26" y1="78.5" x2="68.26" y2="77.93"/><line class="o" x1="68.78" y1="78.5" x2="68.78" y2="79.08"/><line class="o" x1="67.71" y1="79.08" x2="67.71" y2="78.5"/><line class="o" x1="67.16" y1="79.65" x2="67.16" y2="79.08"/><line class="o" x1="67.16" y1="78.5" x2="67.16" y2="77.93"/><line class="o" x1="67.16" y1="77.34" x2="67.16" y2="76.77"/><line class="o" x1="67.16" y1="76.19" x2="67.16" y2="75.61"/><line class="o" x1="67.71" y1="77.93" x2="67.71" y2="77.34"/><line class="o" x1="68.78" y1="77.93" x2="68.78" y2="77.34"/><line class="o" x1="66.6" y1="77.34" x2="66.6" y2="77.93"/><line class="o" x1="66.05" y1="77.34" x2="66.05" y2="76.77"/><line class="o" x1="67.71" y1="76.19" x2="67.71" y2="76.77"/><line class="o" x1="66.6" y1="76.19" x2="66.6" y2="76.77"/><line class="o" x1="65.52" y1="76.19" x2="65.52" y2="76.77"/><line class="o" x1="66.05" y1="76.19" x2="66.05" y2="75.61"/><line class="o" x1="65.52" y1="75.04" x2="65.52" y2="75.61"/><line class="o" x1="65.52" y1="73.88" x2="65.52" y2="74.46"/><line class="o" x1="66.05" y1="73.3" x2="66.05" y2="73.88"/><line class="o" x1="65.52" y1="72.73" x2="65.52" y2="73.3"/><line class="o" x1="66.6" y1="72.73" x2="66.6" y2="73.3"/><line class="o" x1="67.71" y1="72.73" x2="67.71" y2="73.3"/><line class="o" x1="68.26" y1="72.15" x2="68.26" y2="72.73"/><line class="o" x1="67.16" y1="72.15" x2="67.16" y2="72.73"/><line class="o" x1="66.05" y1="72.15" x2="66.05" y2="72.73"/><line class="o" x1="65.52" y1="71.57" x2="65.52" y2="72.15"/><line class="o" x1="66.6" y1="71.57" x2="66.6" y2="72.15"/><line class="o" x1="67.71" y1="71.57" x2="67.71" y2="72.15"/><line class="o" x1="68.26" y1="71" x2="68.26" y2="71.57"/><line class="o" x1="66.05" y1="71" x2="66.05" y2="71.57"/><line class="o" x1="67.16" y1="69.84" x2="67.16" y2="70.42"/><line class="o" x1="64.96" y1="76.19" x2="64.96" y2="75.61"/><line class="o" x1="64.96" y1="73.88" x2="64.96" y2="73.3"/><line class="o" x1="64.96" y1="75.04" x2="64.96" y2="74.46"/><line class="o" x1="64.96" y1="72.73" x2="64.96" y2="72.15"/><line class="o" x1="64.96" y1="71.57" x2="64.96" y2="71"/><line class="o" x1="64.96" y1="69.84" x2="64.96" y2="69.27"/><line class="o" x1="64.96" y1="68.69" x2="64.96" y2="68.11"/><line class="o" x1="62.21" y1="69.59" x2="63.31" y2="69.59"/><line class="o" x1="64.41" y1="67.85" x2="65.52" y2="67.85"/><line class="o" x1="66.6" y1="69.59" x2="67.71" y2="69.59"/><path class="n" d="M422.79,285v-1.5a1.49,1.49,0,0,0-2.91,0V285h2.91Z" transform="translate(-356.38 -205.38)"/><path class="n" d="M420.39,283.61l-0.77-.08a1.1,1.1,0,0,1,.34-0.81l0.61,0.47A0.78,0.78,0,0,0,420.39,283.61Z" transform="translate(-356.38 -205.38)"/><path class="n" d="M422.28,283.61l0.77-.08a1.1,1.1,0,0,0-.34-0.81l-0.61.47A0.78,0.78,0,0,1,422.28,283.61Z" transform="translate(-356.38 -205.38)"/><path class="n" d="M421.61,282.91l0.33-.65a1.22,1.22,0,0,0-1.2,0l0.33,0.65A1.2,1.2,0,0,1,421.61,282.91Z" transform="translate(-356.38 -205.38)"/><path class="n" d="M420.22,281.1v-1.54a0.79,0.79,0,1,0-1.58,0v1.54h1.58Z" transform="translate(-356.38 -205.38)"/><path class="n" d="M422.45,281.1v-1.54a0.79,0.79,0,1,1,1.58,0v1.54h-1.58Z" transform="translate(-356.38 -205.38)"/><polygon class="n" points="65.52 71.87 65.63 70.42 64.26 70.42 64.38 71.87 65.52 71.87"/><polygon class="n" points="66.59 71.87 66.47 70.42 67.84 70.42 67.73 71.87 66.59 71.87"/><polygon class="n" points="63.33 71.87 63.45 70.42 62.08 70.42 62.19 71.87 63.33 71.87"/><path class="t" d="M422.29,285v-1.29a1,1,0,0,0-1.91,0V285h1.91Z" transform="translate(-356.38 -205.38)"/><path class="t" d="M420.07,280.94v-1.35a0.65,0.65,0,1,0-1.28,0v1.35h1.28Z" transform="translate(-356.38 -205.38)"/><path class="t" d="M422.59,280.94v-1.35a0.65,0.65,0,1,1,1.28,0v1.35h-1.28Z" transform="translate(-356.38 -205.38)"/><path class="m" d="M436,273.71a1.5,1.5,0,0,1-1.72-.43,1.2,1.2,0,0,0-1.14-.12,1.37,1.37,0,0,1,.94.55,1.26,1.26,0,0,0,.91.47,0.9,0.9,0,0,1,.66.5C435.81,274.94,436.9,273.6,436,273.71Z" transform="translate(-356.38 -205.38)"/><path class="u" d="M436.05,274a0.51,0.51,0,0,0-.22.36c0,0.17-.3.15-0.57-0.08,0,0.22-.14.47-0.11,0.65a0.38,0.38,0,0,0,.45.27,2.08,2.08,0,0,1-1.47.23,0.6,0.6,0,0,1-.62-0.33,2.82,2.82,0,0,0-.74-0.64,0.39,0.39,0,0,1-.27-0.54,0.52,0.52,0,0,0-.61-0.84,0.31,0.31,0,0,0-.16.36,0.58,0.58,0,0,0-.68.1,0.54,0.54,0,0,0,0,.69,0.47,0.47,0,0,0-.39.54c0,0.36.49,0.38,0.46,0.7,0.25-.06.65-0.18,0.62,0.1a0.89,0.89,0,0,0,.31.65,0.87,0.87,0,0,0,.54.27,0.44,0.44,0,0,1-.27.08c0.33,0.29,1.26.17,1.43,0.7a3.35,3.35,0,0,0-.82.6,0.51,0.51,0,0,1-.65,0,0.45,0.45,0,0,0-.66-0.06,0.43,0.43,0,0,0,.23.67,0.36,0.36,0,0,0-.43.4,0.48,0.48,0,0,0,.4.45,0.31,0.31,0,0,0,.37.34,0.68,0.68,0,0,0,.61-0.47c0.15-.33.88-0.49,0.78,0.13a1.92,1.92,0,0,0,.77-0.82,0.86,0.86,0,0,1,0,.43,2,2,0,0,0,.56-0.49,3.17,3.17,0,0,0,1.29,1.08,5.32,5.32,0,0,1,.81.3,10.92,10.92,0,0,1-1.34,0,0.6,0.6,0,0,0-.6.87,4.48,4.48,0,0,1,.36,1.06c0.05,0.13.11,0.29-.07,0.38a0.4,0.4,0,0,1-.42-0.09,3.44,3.44,0,0,0-.56-0.53,0.41,0.41,0,0,0-.52.59,0.5,0.5,0,0,0-.39.65,0.43,0.43,0,0,0,.54.32,0.33,0.33,0,0,0,0,.5,0.5,0.5,0,0,0,.68-0.12,0.46,0.46,0,0,1,.6-0.24,2,2,0,0,0,1.19-.13c0.38-.17.52-0.38,0.36-0.55a1,1,0,0,1-.15-0.75c0.05-.32.13-0.62,0.56-0.37-0.05.27-.1,0.54-0.12,0.76a0.71,0.71,0,0,0,.71.69,0.49,0.49,0,0,1,.52.31,0.35,0.35,0,0,1,.58-0.09,0.34,0.34,0,0,1-.09.43,0.75,0.75,0,0,1-.77.14,0.34,0.34,0,0,0-.54.27c0,0.22.12,0.42,0.28,0.37a0.52,0.52,0,0,1,.43.13,0.32,0.32,0,0,0-.22.55,0.34,0.34,0,0,0,.5.06,1.45,1.45,0,0,1,.45-0.21,0.42,0.42,0,0,0,.36.54,0.34,0.34,0,0,0,.45-0.32,0.21,0.21,0,0,0,.15-0.31,0.59,0.59,0,0,1,0-.73,8.09,8.09,0,0,1,.53-1.37c0.17-.26.05-0.45-0.31-0.53s-0.59-.15-0.59-0.35a2.06,2.06,0,0,0-.1-0.43c-0.07-.27,0-0.58-0.08-1a1.57,1.57,0,0,0,1.73-2.15,6.14,6.14,0,0,1-.35-3.88c0.25,0,.27-0.87.95-0.6,0.1-.41-0.21-0.76-0.43-0.58a2.19,2.19,0,0,0,.45-1.47c-0.08.43-.81,0.43-0.87,0.85a1.22,1.22,0,0,0-.37-0.78c0.17,0.72-1.09,1.61-.66,2.27a4.69,4.69,0,0,0,.21,3.2,2,2,0,0,1,0,2.23,1.11,1.11,0,0,1-1.57-.25c-0.68-.72-0.45-1.4-0.78-1.77a1.31,1.31,0,0,0,.42.11,1.53,1.53,0,0,1-.19-1.07,0.76,0.76,0,0,0,.76.4,1.24,1.24,0,0,1-.34-0.74,1,1,0,0,0,.67,0c-0.39-.21-0.46-1-0.73-1.19a1.2,1.2,0,0,0,.67.21,0.69,0.69,0,0,1-.19-0.83,1.74,1.74,0,0,0-.88-2.14,1.54,1.54,0,0,0-1.74.07,0.7,0.7,0,0,1-.73.14c-0.29,0-.44,0-0.44.22a0.85,0.85,0,0,0,.14.62,0.36,0.36,0,0,0,0,.31,0.23,0.23,0,0,1,.33-0.17C435.79,273.57,436.23,273.82,436.05,274Z" transform="translate(-356.38 -205.38)"/><path class="m" d="M431.33,272.88a0.57,0.57,0,0,1,.84.14c0.07,0.21,0,.34-0.28.3A1.2,1.2,0,0,0,431.33,272.88Z" transform="translate(-356.38 -205.38)"/><path class="m" d="M430.44,273.63a0.69,0.69,0,0,1,.92-0.08,0.35,0.35,0,0,1-.19.46C430.88,274.1,431,273.63,430.44,273.63Z" transform="translate(-356.38 -205.38)"/><path class="m" d="M430.25,275.3a0.61,0.61,0,0,1,.65-0.77,0.28,0.28,0,0,1,.12.46C430.88,275.19,430.38,274.93,430.25,275.3Z" transform="translate(-356.38 -205.38)"/><path class="m" d="M431.16,278.19c0.11-.48.76-0.48,0.83-0.25a0.31,0.31,0,0,1-.13.36C431.56,278.4,431.5,278,431.16,278.19Z" transform="translate(-356.38 -205.38)"/><path class="m" d="M431,279.55a0.53,0.53,0,0,1,.56-0.75,0.32,0.32,0,0,1,.2.42C431.69,279.44,431.05,279.21,431,279.55Z" transform="translate(-356.38 -205.38)"/><path class="m" d="M432.48,280.22a0.55,0.55,0,0,1-.47-0.78,0.35,0.35,0,0,1,.49,0C432.72,279.69,432.22,280,432.48,280.22Z" transform="translate(-356.38 -205.38)"/><path class="m" d="M433.45,281.81c0.17-.46.82-0.38,0.86-0.14a0.31,0.31,0,0,1-.18.34C433.81,282.07,433.8,281.69,433.45,281.81Z" transform="translate(-356.38 -205.38)"/><path class="m" d="M433.09,283c0-.49.62-0.65,0.75-0.45a0.31,0.31,0,0,1,0,.39C433.52,283.15,433.37,282.8,433.09,283Z" transform="translate(-356.38 -205.38)"/><path class="m" d="M434.1,284.22c-0.38-.31-0.1-0.9.14-0.86a0.31,0.31,0,0,1,.27.28C434.46,284,434.1,283.85,434.1,284.22Z" transform="translate(-356.38 -205.38)"/><path class="m" d="M437.25,284.43c-0.06-.49.54-0.72,0.69-0.53a0.31,0.31,0,0,1,0,.39C437.69,284.48,437.51,284.15,437.25,284.43Z" transform="translate(-356.38 -205.38)"/><path class="m" d="M438.1,285.6a0.5,0.5,0,0,1,.14-0.85,0.26,0.26,0,0,1,.29.29C438.49,285.36,438.12,285.23,438.1,285.6Z" transform="translate(-356.38 -205.38)"/><path class="m" d="M439.71,285.95a0.5,0.5,0,0,1-.38-0.78,0.26,0.26,0,0,1,.41.07C439.88,285.53,439.5,285.63,439.71,285.95Z" transform="translate(-356.38 -205.38)"/><path class="n" d="M437.93,272.7a3.69,3.69,0,0,1,1,.79,0.33,0.33,0,0,0,.24-0.09,1.1,1.1,0,0,1,.68-0.33,0.38,0.38,0,0,0-.18-0.16,0.31,0.31,0,0,1-.39-0.06c0,0.13-.12.31-0.25,0.2s0.07-.33.17-0.29a0.54,0.54,0,0,1,0-.49,0.52,0.52,0,0,1-.47.1c0.09,0.1-.1.39-0.27,0.28s0-.37.18-0.34a0.4,0.4,0,1,0-.66-0.44c0.08,0.12-.07.4-0.24,0.3s0-.4.15-0.36a0.52,0.52,0,0,1-.09-0.47,0.54,0.54,0,0,1-.45.21c0.08,0.08-.06.35-0.2,0.27s0-.29.09-0.31a0.31,0.31,0,0,1-.21-0.33,0.38,0.38,0,0,0-.22-0.1,1.1,1.1,0,0,1,0,.76,0.33,0.33,0,0,0,0,.26A3.7,3.7,0,0,1,437.93,272.7Z" transform="translate(-356.38 -205.38)"/><path class="o" d="M435.61,275.2c-0.14.37-1.18,0.31-1.51,0.74,0.62-.14.66,0.43,1.11,0.19a5.87,5.87,0,0,1-.35,1.2,3.06,3.06,0,0,0,1.28-.83,5.09,5.09,0,0,0,.26,1,2.23,2.23,0,0,0,.51-0.81c0,0.23.29,0.64,0.25,0.87a1.12,1.12,0,0,0,.22-0.57,0.71,0.71,0,0,0,.45.48" transform="translate(-356.38 -205.38)"/><path class="o" d="M437.34,281.5a0.65,0.65,0,0,1,.48-0.62c0.29,0,.25-0.21.06-0.41a2.57,2.57,0,0,0-.81-0.57" transform="translate(-356.38 -205.38)"/><path class="o" d="M435.22,276.13c-0.76.31-1,1-1.43,1.15" transform="translate(-356.38 -205.38)"/><path class="o" d="M435,278.51a1.69,1.69,0,0,0,.37-0.65,2.82,2.82,0,0,1,0,.45,3.1,3.1,0,0,1,1-1" transform="translate(-356.38 -205.38)"/><path d="M436.37,272.62a3.62,3.62,0,0,0,.89.33,0.6,0.6,0,0,0-.14-0.3c-0.22-.11-0.3.16-0.53,0" transform="translate(-356.38 -205.38)"/><ellipse class="k" cx="72.13" cy="81.61" rx="4.98" ry="5.89"/><ellipse class="v" cx="72.13" cy="81.61" rx="3.34" ry="4.46"/><path class="n" d="M427.06,284.32a0.83,0.83,0,0,1,.28,1.16,2.25,2.25,0,0,0-.28,1.22c0-.89.27-1.06,0.54-1.1a0.49,0.49,0,0,1,.58.57,0.62,0.62,0,0,0-1,.57,0.36,0.36,0,0,0,.54.28,0.45,0.45,0,0,1-.51.23,0.22,0.22,0,1,1-.35,0,0.45,0.45,0,0,1-.51-0.23,0.36,0.36,0,0,0,.54-0.28,0.62,0.62,0,0,0-1-.57,0.49,0.49,0,0,1,.58-0.57c0.26,0,.54.21,0.54,1.1a2.25,2.25,0,0,0-.28-1.22A0.83,0.83,0,0,1,427.06,284.32Z" transform="translate(-356.38 -205.38)"/><path class="n" d="M427.06,286.74c0.21,0,.51,0,0.51-0.15s-0.3-.15-0.51-0.15-0.51,0-.51.15S426.85,286.74,427.06,286.74Z" transform="translate(-356.38 -205.38)"/><path class="n" d="M429.94,284.32a0.83,0.83,0,0,0-.28,1.16,2.25,2.25,0,0,1,.28,1.22c0-.89-0.27-1.06-0.54-1.1a0.49,0.49,0,0,0-.58.57,0.62,0.62,0,0,1,1,.57,0.36,0.36,0,0,1-.54.28,0.45,0.45,0,0,0,.51.23,0.22,0.22,0,1,0,.35,0,0.45,0.45,0,0,0,.51-0.23,0.36,0.36,0,0,1-.54-0.28,0.62,0.62,0,0,1,1-.57,0.49,0.49,0,0,0-.58-0.57c-0.26,0-.54.21-0.54,1.1a2.25,2.25,0,0,1,.28-1.22A0.83,0.83,0,0,0,429.94,284.32Z" transform="translate(-356.38 -205.38)"/><path class="n" d="M429.94,286.74c-0.21,0-.51,0-0.51-0.15s0.3-.15.51-0.15,0.51,0,.51.15S430.15,286.74,429.94,286.74Z" transform="translate(-356.38 -205.38)"/><path class="n" d="M428.5,287.25a0.83,0.83,0,0,0-.28,1.16,2.25,2.25,0,0,1,.28,1.22c0-.89-0.27-1.06-0.54-1.1a0.49,0.49,0,0,0-.58.57,0.62,0.62,0,0,1,1,.57,0.36,0.36,0,0,1-.54.28,0.45,0.45,0,0,0,.51.23,0.22,0.22,0,1,0,.35,0,0.45,0.45,0,0,0,.51-0.23,0.36,0.36,0,0,1-.54-0.28,0.62,0.62,0,0,1,1-.57,0.49,0.49,0,0,0-.58-0.57c-0.26,0-.54.22-0.54,1.1a2.25,2.25,0,0,1,.28-1.22A0.83,0.83,0,0,0,428.5,287.25Z" transform="translate(-356.38 -205.38)"/><path class="n" d="M428.5,289.68c-0.21,0-.51,0-0.51-0.15s0.3-.15.51-0.15,0.51,0,.51.15S428.71,289.68,428.5,289.68Z" transform="translate(-356.38 -205.38)"/><path class="t" d="M411.7,303a2.19,2.19,0,0,1-2.13,0c-1.43-.87-2.73.58-4.64-0.25-1.49-.64-2.56.57-3.25,0.15v-0.64c0.69,0.41,1.76-.8,3.25-0.15,1.91,0.83,3.21-.63,4.64.25a2.19,2.19,0,0,0,2.13,0V303Z" transform="translate(-356.38 -205.38)"/><path class="t" d="M411.7,304.46a2.19,2.19,0,0,1-2.13,0c-1.43-.87-2.73.58-4.64-0.25-1.49-.64-2.56.57-3.25,0.15v-0.77c0.69,0.41,1.76-.8,3.25-0.15,1.91,0.83,3.21-.63,4.64.25a2.19,2.19,0,0,0,2.13,0v0.77Z" transform="translate(-356.38 -205.38)"/><path class="t" d="M411.7,306.08a2.19,2.19,0,0,1-2.13,0c-1.43-.87-2.73.58-4.64-0.25-1.49-.64-2.56.57-3.25,0.15v-0.86c0.69,0.41,1.76-.8,3.25-0.15,1.91,0.83,3.21-.63,4.64.25a2.19,2.19,0,0,0,2.13,0v0.86Z" transform="translate(-356.38 -205.38)"/><path class="t" d="M445.3,303a2.19,2.19,0,0,0,2.13,0c1.43-.87,2.73.58,4.64-0.25,1.49-.64,2.56.57,3.25,0.15v-0.64c-0.69.41-1.76-.8-3.25-0.15-1.91.83-3.21-.63-4.64,0.25a2.19,2.19,0,0,1-2.13,0V303Z" transform="translate(-356.38 -205.38)"/><path class="t" d="M445.3,304.46a2.19,2.19,0,0,0,2.13,0c1.43-.87,2.73.58,4.64-0.25,1.49-.64,2.56.57,3.25,0.15v-0.77c-0.69.41-1.76-.8-3.25-0.15-1.91.83-3.21-.63-4.64,0.25a2.19,2.19,0,0,1-2.13,0v0.77Z" transform="translate(-356.38 -205.38)"/><path class="t" d="M445.3,306.08a2.19,2.19,0,0,0,2.13,0c1.43-.87,2.73.58,4.64-0.25,1.49-.64,2.56.57,3.25,0.15v-0.86c-0.69.41-1.76-.8-3.25-0.15-1.91.83-3.21-.63-4.64,0.25a2.19,2.19,0,0,1-2.13,0v0.86Z" transform="translate(-356.38 -205.38)"/><path class="w" d="M404.12,282.06l0.29-.11a0.27,0.27,0,0,0,.12-0.37,0.24,0.24,0,0,0-.32-0.15l-0.29.11,0.2,0.52,0.1,0.26,0.23,0.59-0.27.11-0.64-1.65,0.63-.24a0.5,0.5,0,0,1,.63.35,0.53,0.53,0,0,1-.22.71l-0.35.14Z" transform="translate(-356.38 -205.38)"/><polygon class="w" points="49.54 75.21 49.84 76.62 50.53 76.48 50.6 76.79 49.59 77 49.23 75.28 49.54 75.21"/><polygon class="w" points="51.86 76.65 51.27 74.91 51.59 74.9 51.98 76.22 52.26 74.87 52.58 74.86 52.13 76.64 51.86 76.65"/><path class="w" d="M410.83,280.91a0.26,0.26,0,0,0-.29-0.29,0.19,0.19,0,0,0-.26.18c0,0.08,0,.18.33,0.27a0.49,0.49,0,0,1,.46.55,0.52,0.52,0,0,1-.66.48,0.55,0.55,0,0,1-.49-0.62l0.28,0a0.28,0.28,0,0,0,.29.31,0.24,0.24,0,0,0,.3-0.19,0.3,0.3,0,0,0-.28-0.28C410,281.2,410,281,410,280.79a0.5,0.5,0,0,1,.59-0.45,0.51,0.51,0,0,1,.51.61Z" transform="translate(-356.38 -205.38)"/><polygon class="w" points="89.93 76.77 89.2 75.08 89.51 75.04 90.02 76.32 90.19 74.96 90.5 74.92 90.2 76.73 89.93 76.77"/><polygon class="w" points="91.73 74.87 91.71 76.31 92.42 76.32 92.42 76.64 91.39 76.63 91.41 74.86 91.73 74.87"/><polygon class="w" points="93.48 76.75 93.72 75.3 93.26 75.23 93.31 74.94 94.51 75.14 94.47 75.43 94 75.35 93.76 76.8 93.48 76.75"/><path class="w" d="M451.84,281.55l0.15-.44,0.38,0.13a0.24,0.24,0,0,1-.13.45l-0.41-.14-0.1.3,0.3,0.1a0.22,0.22,0,0,1,.15.33l-0.13.39,0.29,0.1,0.16-.47a0.3,0.3,0,0,0-.1-0.4,0.41,0.41,0,0,0,.38-0.31,0.45,0.45,0,0,0-.17-0.59l-0.83-.28-0.57,1.67,0.3,0.1,0.22-.65Z" transform="translate(-356.38 -205.38)"/><polygon class="w" points="97.31 77.29 97.83 76.75 97.67 77.48 97.31 77.29 97.1 77.5 97.61 77.78 97.52 78.14 97.79 78.28 98.17 76.49 97.86 76.32 96.58 77.63 96.84 77.77 97.1 77.5 97.31 77.29"/><path class="c" d="M450.31,266.78a5.18,5.18,0,0,1,1.92.47,2.33,2.33,0,0,1,2,.63,2,2,0,0,1-.53.9,1.7,1.7,0,0,1-.71.59,12,12,0,0,0-5.45,0,1.7,1.7,0,0,1-.71-0.59,2,2,0,0,1-.53-0.9,2.33,2.33,0,0,1,2-.63A5.18,5.18,0,0,1,450.31,266.78Z" transform="translate(-356.38 -205.38)"/><path class="d" d="M447.78,270a0.09,0.09,0,0,0,0,.06c0,0.22,1.15.41,2.56,0.41s2.56-.18,2.56-0.41a0.09,0.09,0,0,0,0-.06,0.9,0.9,0,0,1,.08-0.53c0.16,0,.33-0.11,0-0.19a11.43,11.43,0,0,0-5.22,0c-0.33.08-.16,0.23,0,0.19A0.89,0.89,0,0,1,447.78,270Z" transform="translate(-356.38 -205.38)"/><path class="e" d="M447.7,269.47a9.44,9.44,0,0,1,1.2-.22" transform="translate(-356.38 -205.38)"/><path class="e" d="M452.84,270a9.46,9.46,0,0,0-5.06,0" transform="translate(-356.38 -205.38)"/><path class="e" d="M452.92,269.47a9.44,9.44,0,0,0-1.2-.22" transform="translate(-356.38 -205.38)"/><circle class="h" cx="93.93" cy="60.11" r="0.38"/><path class="d" d="M450.39,264.48v0.2h0.2v0.17h-0.2v0.57h0.3a0.31,0.31,0,0,1,0,.17h-0.76a0.31,0.31,0,0,1,0-.17h0.3v-0.57H450v-0.17h0.2v-0.2h0.17Z" transform="translate(-356.38 -205.38)"/><path class="d" d="M448.23,266.42a1.52,1.52,0,0,0-1.81.4,1.2,1.2,0,0,0-.07,1.38l0.13,0,0.2-.33a0.83,0.83,0,0,1,0-1.15,1.33,1.33,0,0,1,1.49-.19Z" transform="translate(-356.38 -205.38)"/><path class="d" d="M452.4,266.42a1.52,1.52,0,0,1,1.81.4,1.2,1.2,0,0,1,.07,1.38l-0.13,0-0.2-.33a0.83,0.83,0,0,0,0-1.15,1.33,1.33,0,0,0-1.49-.19Z" transform="translate(-356.38 -205.38)"/><path class="d" d="M450,266.09a1.37,1.37,0,0,0-1.7.13,0.79,0.79,0,0,0,.07,1.18l-0.14.21,0.1,0.1,0.22-.3a0.73,0.73,0,0,1-.05-1.14,1.22,1.22,0,0,1,1.52,0v-0.2Z" transform="translate(-356.38 -205.38)"/><path class="d" d="M450.58,266.09a1.37,1.37,0,0,1,1.7.13,0.79,0.79,0,0,1-.07,1.18l0.14,0.21-0.1.1-0.22-.3a0.73,0.73,0,0,0,.05-1.14,1.22,1.22,0,0,0-1.52,0v-0.2Z" transform="translate(-356.38 -205.38)"/><path class="d" d="M450.31,267.74l0.53-.47a1.27,1.27,0,0,1-.23-0.85c0-.29,0-0.57-0.3-0.57s-0.3.28-.3,0.57a1.27,1.27,0,0,1-.23.85Z" transform="translate(-356.38 -205.38)"/><path class="d" d="M450.31,267.58l0.31-.38a1.36,1.36,0,0,1-.14-0.7c0-.24,0-0.47-0.18-0.47s-0.18.23-.18,0.47a1.36,1.36,0,0,1-.14.7Z" transform="translate(-356.38 -205.38)"/><path class="g" d="M450.31,267.33a0.13,0.13,0,1,1,0-.25A0.13,0.13,0,1,1,450.31,267.33Z" transform="translate(-356.38 -205.38)"/><path class="g" d="M450.31,267.05a0.12,0.12,0,1,1,0-.24A0.12,0.12,0,1,1,450.31,267.05Z" transform="translate(-356.38 -205.38)"/><path class="g" d="M450.31,266.78a0.12,0.12,0,1,1,0-.23A0.12,0.12,0,1,1,450.31,266.78Z" transform="translate(-356.38 -205.38)"/><path class="g" d="M450.31,266.51a0.11,0.11,0,1,1,0-.22A0.11,0.11,0,1,1,450.31,266.51Z" transform="translate(-356.38 -205.38)"/><path class="g" d="M450.31,266.26a0.11,0.11,0,1,1,0-.21A0.11,0.11,0,1,1,450.31,266.26Z" transform="translate(-356.38 -205.38)"/><path class="d" d="M450.31,268.75a0.57,0.57,0,0,0,.9,0,0.53,0.53,0,0,0,.87.11,0.55,0.55,0,0,0,.79.21c0.13,0.35.67,0.16,0.94-.3s0.43-.42.56-0.3c0.13-.52-0.47-0.43-0.66,0l-0.31-.21,0,0.13h-0.26l0.16,0.21-0.07.16,0.39,0.06c-0.29.35-.58,0.26-0.66-0.08a0.47,0.47,0,0,1-.48.22,0.35,0.35,0,0,1-.21-0.51l0.41,0.34,0-.23,0.27,0-0.22-.15,0.09-.21-0.52.11,0.38-.43-0.2,0-0.09-.27-0.2.19-0.2-.06,0.13,0.56-0.41-.34,0,0.23-0.27,0,0.22,0.15-0.09.21,0.52-.11a0.44,0.44,0,0,1-.45.43,0.62,0.62,0,0,1-.41-0.43,0.47,0.47,0,0,1-.45.31,0.42,0.42,0,0,1-.33-0.52l0.52,0.25,0-.25,0.27-.1-0.27-.1,0-.24-0.52.24,0.28-.54h-0.22l-0.17-.25-0.17.25h-0.22l0.28,0.54-0.52-.24,0,0.24-0.27.1,0.27,0.1,0,0.25,0.52-.25a0.42,0.42,0,0,1-.33.52,0.47,0.47,0,0,1-.45-0.31,0.62,0.62,0,0,1-.41.43,0.44,0.44,0,0,1-.45-0.43l0.52,0.11-0.09-.21,0.22-.15-0.27,0,0-.23-0.41.34,0.13-.56-0.2.06-0.2-.19-0.09.27-0.2,0,0.38,0.43-0.52-.11,0.09,0.21-0.22.15,0.27,0,0,0.23,0.41-.34a0.35,0.35,0,0,1-.21.51,0.47,0.47,0,0,1-.48-0.22c-0.08.34-.37,0.43-0.66,0.08l0.39-.06-0.07-.16,0.16-.21h-0.26l0-.13-0.31.21c-0.18-.41-0.79-0.5-0.66,0,0.13-.12.29-0.16,0.56,0.3s0.81,0.65.94,0.3a0.55,0.55,0,0,0,.79-0.21,0.53,0.53,0,0,0,.87-0.11A0.57,0.57,0,0,0,450.31,268.75Z" transform="translate(-356.38 -205.38)"/><path class="f" d="M449,269.38c-0.37,0-.36.19,0,0.15S449.33,269.35,449,269.38Z" transform="translate(-356.38 -205.38)"/><path class="f" d="M451.67,269.38c0.37,0,.36.19,0,0.15S451.29,269.35,451.67,269.38Z" transform="translate(-356.38 -205.38)"/><path class="c" d="M448.45,268.2a0.18,0.18,0,1,0,0,.35A0.18,0.18,0,1,0,448.45,268.2Z" transform="translate(-356.38 -205.38)"/><path class="c" d="M450.32,268a0.18,0.18,0,1,0,0,.35A0.18,0.18,0,1,0,450.32,268Z" transform="translate(-356.38 -205.38)"/><path class="c" d="M446.72,268.65c-0.12.07,0.06,0.37,0.18,0.3S446.84,268.58,446.72,268.65Z" transform="translate(-356.38 -205.38)"/><path class="c" d="M452.17,268.2a0.18,0.18,0,1,1,0,.35A0.18,0.18,0,1,1,452.17,268.2Z" transform="translate(-356.38 -205.38)"/><path class="c" d="M453.9,268.65c0.12,0.07-.06.37-0.18,0.3S453.78,268.58,453.9,268.65Z" transform="translate(-356.38 -205.38)"/><path class="c" d="M450.6,269.48a0,0,0,0,0,.05,0v-0.1a0,0,0,0,0-.05,0H450a0,0,0,0,0-.05,0v0.1a0,0,0,0,0,.05,0h0.59Z" transform="translate(-356.38 -205.38)"/><polygon class="c" points="91.22 64.37 91.41 64.42 91.57 64.3 91.38 64.25 91.22 64.37"/><polygon class="c" points="96.66 64.37 96.46 64.42 96.3 64.3 96.5 64.25 96.66 64.37"/><path class="g" d="M448.22,266.09a0.11,0.11,0,1,0,0,.21A0.11,0.11,0,1,0,448.22,266.09Z" transform="translate(-356.38 -205.38)"/><path class="g" d="M448.42,265.91a0.11,0.11,0,1,0,0,.21A0.11,0.11,0,1,0,448.42,265.91Z" transform="translate(-356.38 -205.38)"/><path class="g" d="M448.66,265.77a0.11,0.11,0,1,0,0,.21A0.11,0.11,0,1,0,448.66,265.77Z" transform="translate(-356.38 -205.38)"/><path class="g" d="M448.94,265.68a0.11,0.11,0,1,0,0,.21A0.11,0.11,0,1,0,448.94,265.68Z" transform="translate(-356.38 -205.38)"/><path class="g" d="M449.21,265.65a0.11,0.11,0,1,0,0,.21A0.11,0.11,0,1,0,449.21,265.65Z" transform="translate(-356.38 -205.38)"/><path class="g" d="M449.49,265.66a0.11,0.11,0,1,0,0,.21A0.11,0.11,0,1,0,449.49,265.66Z" transform="translate(-356.38 -205.38)"/><path class="g" d="M449.74,265.72a0.11,0.11,0,1,0,0,.21A0.11,0.11,0,1,0,449.74,265.72Z" transform="translate(-356.38 -205.38)"/><path class="g" d="M450,265.81a0.11,0.11,0,1,0,0,.21A0.11,0.11,0,1,0,450,265.81Z" transform="translate(-356.38 -205.38)"/><path class="g" d="M448.08,266.32a0.11,0.11,0,1,0,0,.21A0.11,0.11,0,1,0,448.08,266.32Z" transform="translate(-356.38 -205.38)"/><path class="g" d="M448,266.59a0.11,0.11,0,1,0,0,.21A0.11,0.11,0,1,0,448,266.59Z" transform="translate(-356.38 -205.38)"/><path class="g" d="M448,266.86a0.11,0.11,0,1,0,0,.21A0.11,0.11,0,1,0,448,266.86Z" transform="translate(-356.38 -205.38)"/><path class="g" d="M448.12,267.1a0.11,0.11,0,1,0,0,.21A0.11,0.11,0,1,0,448.12,267.1Z" transform="translate(-356.38 -205.38)"/><path class="g" d="M448.27,267.32a0.11,0.11,0,1,0,0,.21A0.11,0.11,0,1,0,448.27,267.32Z" transform="translate(-356.38 -205.38)"/><path class="g" d="M447.94,266.1a0.11,0.11,0,1,0,0,.21A0.11,0.11,0,1,0,447.94,266.1Z" transform="translate(-356.38 -205.38)"/><path class="g" d="M447.67,266.07a0.11,0.11,0,1,0,0,.21A0.11,0.11,0,1,0,447.67,266.07Z" transform="translate(-356.38 -205.38)"/><path class="g" d="M447.41,266.08a0.11,0.11,0,1,0,0,.21A0.11,0.11,0,1,0,447.41,266.08Z" transform="translate(-356.38 -205.38)"/><path class="g" d="M447.13,266.13a0.11,0.11,0,1,0,0,.21A0.11,0.11,0,1,0,447.13,266.13Z" transform="translate(-356.38 -205.38)"/><path class="g" d="M446.87,266.23a0.11,0.11,0,1,0,0,.21A0.11,0.11,0,1,0,446.87,266.23Z" transform="translate(-356.38 -205.38)"/><path class="g" d="M446.63,266.37a0.11,0.11,0,1,0,0,.21A0.11,0.11,0,1,0,446.63,266.37Z" transform="translate(-356.38 -205.38)"/><path class="g" d="M446.42,266.55a0.11,0.11,0,1,0,0,.21A0.11,0.11,0,1,0,446.42,266.55Z" transform="translate(-356.38 -205.38)"/><path class="g" d="M446.25,266.77a0.11,0.11,0,1,0,0,.21A0.11,0.11,0,1,0,446.25,266.77Z" transform="translate(-356.38 -205.38)"/><path class="g" d="M446.14,267a0.11,0.11,0,1,0,0,.21A0.11,0.11,0,1,0,446.14,267Z" transform="translate(-356.38 -205.38)"/><path class="g" d="M446.07,267.28a0.11,0.11,0,1,0,0,.21A0.11,0.11,0,1,0,446.07,267.28Z" transform="translate(-356.38 -205.38)"/><path class="g" d="M446.07,267.56a0.11,0.11,0,1,0,0,.21A0.11,0.11,0,1,0,446.07,267.56Z" transform="translate(-356.38 -205.38)"/><path class="g" d="M446.12,267.82a0.11,0.11,0,1,0,0,.21A0.11,0.11,0,1,0,446.12,267.82Z" transform="translate(-356.38 -205.38)"/><path class="g" d="M446.21,268a0.11,0.11,0,1,0,0,.21A0.11,0.11,0,1,0,446.21,268Z" transform="translate(-356.38 -205.38)"/><path class="g" d="M452.4,266.09a0.11,0.11,0,1,1,0,.21A0.11,0.11,0,1,1,452.4,266.09Z" transform="translate(-356.38 -205.38)"/><path class="g" d="M452.2,265.91a0.11,0.11,0,1,1,0,.21A0.11,0.11,0,1,1,452.2,265.91Z" transform="translate(-356.38 -205.38)"/><path class="g" d="M452,265.77a0.11,0.11,0,1,1,0,.21A0.11,0.11,0,1,1,452,265.77Z" transform="translate(-356.38 -205.38)"/><path class="g" d="M451.68,265.68a0.11,0.11,0,1,1,0,.21A0.11,0.11,0,1,1,451.68,265.68Z" transform="translate(-356.38 -205.38)"/><path class="g" d="M451.41,265.65a0.11,0.11,0,1,1,0,.21A0.11,0.11,0,1,1,451.41,265.65Z" transform="translate(-356.38 -205.38)"/><path class="g" d="M451.14,265.66a0.11,0.11,0,1,1,0,.21A0.11,0.11,0,1,1,451.14,265.66Z" transform="translate(-356.38 -205.38)"/><path class="g" d="M450.89,265.72a0.11,0.11,0,1,1,0,.21A0.11,0.11,0,1,1,450.89,265.72Z" transform="translate(-356.38 -205.38)"/><path class="g" d="M450.65,265.81a0.11,0.11,0,1,1,0,.21A0.11,0.11,0,1,1,450.65,265.81Z" transform="translate(-356.38 -205.38)"/><path class="g" d="M452.54,266.32a0.11,0.11,0,1,1,0,.21A0.11,0.11,0,1,1,452.54,266.32Z" transform="translate(-356.38 -205.38)"/><path class="g" d="M452.63,266.59a0.11,0.11,0,1,1,0,.21A0.11,0.11,0,1,1,452.63,266.59Z" transform="translate(-356.38 -205.38)"/><path class="g" d="M452.61,266.86a0.11,0.11,0,1,1,0,.21A0.11,0.11,0,1,1,452.61,266.86Z" transform="translate(-356.38 -205.38)"/><path class="g" d="M452.5,267.1a0.11,0.11,0,1,1,0,.21A0.11,0.11,0,1,1,452.5,267.1Z" transform="translate(-356.38 -205.38)"/><path class="g" d="M452.36,267.32a0.11,0.11,0,1,1,0,.21A0.11,0.11,0,1,1,452.36,267.32Z" transform="translate(-356.38 -205.38)"/><path class="g" d="M452.69,266.1a0.11,0.11,0,1,1,0,.21A0.11,0.11,0,1,1,452.69,266.1Z" transform="translate(-356.38 -205.38)"/><path class="g" d="M453,266.07a0.11,0.11,0,1,1,0,.21A0.11,0.11,0,1,1,453,266.07Z" transform="translate(-356.38 -205.38)"/><path class="g" d="M453.22,266.08a0.11,0.11,0,1,1,0,.21A0.11,0.11,0,1,1,453.22,266.08Z" transform="translate(-356.38 -205.38)"/><path class="g" d="M453.5,266.13a0.11,0.11,0,1,1,0,.21A0.11,0.11,0,1,1,453.5,266.13Z" transform="translate(-356.38 -205.38)"/><path class="g" d="M453.75,266.23a0.11,0.11,0,1,1,0,.21A0.11,0.11,0,1,1,453.75,266.23Z" transform="translate(-356.38 -205.38)"/><path class="g" d="M454,266.37a0.11,0.11,0,1,1,0,.21A0.11,0.11,0,1,1,454,266.37Z" transform="translate(-356.38 -205.38)"/><path class="g" d="M454.2,266.55a0.11,0.11,0,1,1,0,.21A0.11,0.11,0,1,1,454.2,266.55Z" transform="translate(-356.38 -205.38)"/><path class="g" d="M454.38,266.77a0.11,0.11,0,1,1,0,.21A0.11,0.11,0,1,1,454.38,266.77Z" transform="translate(-356.38 -205.38)"/><path class="g" d="M454.49,267a0.11,0.11,0,1,1,0,.21A0.11,0.11,0,1,1,454.49,267Z" transform="translate(-356.38 -205.38)"/><path class="g" d="M454.55,267.28a0.11,0.11,0,1,1,0,.21A0.11,0.11,0,1,1,454.55,267.28Z" transform="translate(-356.38 -205.38)"/><path class="g" d="M454.56,267.56a0.11,0.11,0,1,1,0,.21A0.11,0.11,0,1,1,454.56,267.56Z" transform="translate(-356.38 -205.38)"/><path class="g" d="M454.51,267.82a0.11,0.11,0,1,1,0,.21A0.11,0.11,0,1,1,454.51,267.82Z" transform="translate(-356.38 -205.38)"/><path class="g" d="M454.42,268a0.11,0.11,0,1,1,0,.21A0.11,0.11,0,1,1,454.42,268Z" transform="translate(-356.38 -205.38)"/><path class="g" d="M447.7,268.66a0.11,0.11,0,1,0,0,.22A0.11,0.11,0,1,0,447.7,268.66Z" transform="translate(-356.38 -205.38)"/><path class="g" d="M449.42,268.32a0.11,0.11,0,1,0,0,.22A0.11,0.11,0,1,0,449.42,268.32Z" transform="translate(-356.38 -205.38)"/><path class="g" d="M452.92,268.66a0.11,0.11,0,1,1,0,.22A0.11,0.11,0,1,1,452.92,268.66Z" transform="translate(-356.38 -205.38)"/><path class="g" d="M451.21,268.32a0.11,0.11,0,1,1,0,.22A0.11,0.11,0,1,1,451.21,268.32Z" transform="translate(-356.38 -205.38)"/><path class="g" d="M449.63,269.27a0.11,0.11,0,1,0,0,.22A0.11,0.11,0,1,0,449.63,269.27Z" transform="translate(-356.38 -205.38)"/><path class="g" d="M448.28,269.45a0.11,0.11,0,1,0,0,.22A0.11,0.11,0,1,0,448.28,269.45Z" transform="translate(-356.38 -205.38)"/><path class="g" d="M451,269.27a0.11,0.11,0,1,1,0,.22A0.11,0.11,0,1,1,451,269.27Z" transform="translate(-356.38 -205.38)"/><path class="g" d="M452.34,269.45a0.11,0.11,0,1,1,0,.22A0.11,0.11,0,1,1,452.34,269.45Z" transform="translate(-356.38 -205.38)"/><ellipse class="c" cx="93.93" cy="64.71" rx="2.31" ry="0.28"/><path class="e" d="M446.42,266.82a1,1,0,0,0,.07,1l-0.14.36" transform="translate(-356.38 -205.38)"/><path class="e" d="M454.2,266.82a1,1,0,0,1-.07,1l0.14,0.36" transform="translate(-356.38 -205.38)"/></svg>