<svg xmlns="http://www.w3.org/2000/svg" xmlns:xlink="http://www.w3.org/1999/xlink" viewBox="0 0 446.74 572.1">
  <defs>
    <style>
      .a {
        fill: #2f303b;
      }

      .b {
        opacity: 0.3;
      }

      .c {
        opacity: 0.4;
        isolation: isolate;
        fill: url(#a);
      }

      .d, .h {
        fill: none;
      }

      .d, .f {
        stroke: #ff2e52;
      }

      .d, .f, .h {
        stroke-miterlimit: 10;
      }

      .d {
        stroke-width: 0.75px;
      }

      .e {
        fill: #ff2e52;
      }

      .f {
        fill: #34404f;
        stroke-width: 0.5px;
      }

      .g {
        opacity: 0.6;
      }

      .h {
        stroke: #647584;
        stroke-width: 0.25px;
      }

      .i {
        fill: #647584;
      }
    </style>
    <linearGradient id="a" x1="223.54" y1="6.7" x2="223.54" y2="335.46" gradientTransform="matrix(1, 0, 0, -1, 0, 572)" gradientUnits="userSpaceOnUse">
      <stop offset="0" stop-color="#34404f"/>
      <stop offset="0.13" stop-color="#3a3f4f"/>
      <stop offset="0.31" stop-color="#4a3e50"/>
      <stop offset="0.35" stop-color="#4f3d50"/>
      <stop offset="0.46" stop-color="#5c3b50"/>
      <stop offset="0.65" stop-color="#7e3751"/>
      <stop offset="0.92" stop-color="#b43052"/>
      <stop offset="1" stop-color="#c62e52"/>
    </linearGradient>
  </defs>
  <title>Modal background</title>
  <g>
    <rect class="a" width="446.4" height="570.19"/>
    <g class="b">
      <polygon class="c" points="0.34 572.1 0.34 510.86 57.34 444.06 109.73 423.15 285.15 289.72 352.78 276.02 446.74 146.81 446.74 572.1 0.34 572.1"/>
      <polyline class="d" points="0.81 510.07 57.38 443.27 109.77 422.37 285.62 288.93 353.84 275.94 424.09 177.41"/>
      <polygon class="e" points="425.13 180.74 423.55 178.16 420.61 177.51 426.69 173.76 425.13 180.74"/>
      <circle class="f" cx="57.81" cy="443.27" r="4.03"/>
      <circle class="f" cx="110.2" cy="422.36" r="4.03"/>
      <circle class="f" cx="285.62" cy="288.93" r="4.03"/>
      <circle class="f" cx="353.25" cy="275.23" r="4.03"/>
    </g>
    <g class="g">
      <path class="h" d="M74.59,281.23c-2.62-2.33-5-4.39-7.29-6.52a1.65,1.65,0,0,1-.4-1.39c.89-2.87,1.87-5.71,2.83-8.56l.24-.69c1.47,1.29,2.89,2.51,4.27,3.76a1.17,1.17,0,0,1,.34.78C74.59,272.71,74.59,276.81,74.59,281.23Z"/>
      <path class="h" d="M49.1,281.23c2.62-2.33,5-4.39,7.29-6.52a1.65,1.65,0,0,0,.4-1.39c-.89-2.87-1.87-5.71-2.83-8.56l-.24-.69c-1.47,1.29-2.89,2.51-4.27,3.76a1.17,1.17,0,0,0-.34.78C49.09,272.71,49.1,276.81,49.1,281.23Z"/>
      <path class="i" d="M61.8,251.49a4.34,4.34,0,1,1,4.41-4.32h0A4.39,4.39,0,0,1,61.8,251.49Z"/>
      <path class="h" d="M61.79,252.42a5.26,5.26,0,1,1,5.35-5.24A5.35,5.35,0,0,1,61.79,252.42Z"/>
      <polygon class="i" points="61.84 278.9 60.76 278.9 61.84 306.33 62.92 278.9 61.84 278.9"/>
      <polygon class="i" points="59.62 278.9 59.03 278.9 59.62 294.04 60.22 278.9 59.62 278.9"/>
      <polygon class="i" points="64.06 278.9 63.47 278.9 64.06 294.04 64.66 278.9 64.06 278.9"/>
      <path class="h" d="M66.22,274.81a1,1,0,0,0-.84-.61h-7a1,1,0,0,0-.84.61c-.25.6-1.17,3.15-1.17,3.15H67.43Z"/>
      <path class="i" d="M61.84,228a39.4,39.4,0,0,1,4.23,7.94H57.62A39.46,39.46,0,0,1,61.85,228m0-.42a37.73,37.73,0,0,0-4.63,8.57h9.19a37.73,37.73,0,0,0-4.59-8.62h0Z"/>
      <path class="i" d="M66.51,237c2.9,7.76,5.18,20.1-.27,35a2,2,0,0,1-1.55,1.19H59a2,2,0,0,1-1.55-1.17h0c-5.46-15-3.18-27.29-.28-35h9.32m.17-.25H57c-3,7.88-5.28,20.31.22,35.39A2.2,2.2,0,0,0,59,273.49h5.67a2.2,2.2,0,0,0,1.78-1.34c5.5-15.08,3.2-27.51.22-35.39Z"/>
      <path class="a" d="M62.8,245.12a1.51,1.51,0,0,1,.45.43.94.94,0,0,1,.17.44.11.11,0,0,1,0,.1.14.14,0,0,1-.1,0H63a.19.19,0,0,1-.11,0,.35.35,0,0,1-.08-.11,1.2,1.2,0,0,0-.35-.39,1.07,1.07,0,0,0-.66-.19,1.16,1.16,0,0,0-.65.17.55.55,0,0,0-.26.49.49.49,0,0,0,.13.35,1,1,0,0,0,.39.24,8.05,8.05,0,0,0,.8.24,2.49,2.49,0,0,1,1,.47,1,1,0,0,1,.3.75,1.12,1.12,0,0,1-.39.87,1.78,1.78,0,0,1-1,.41v.41A.17.17,0,0,1,62,250h-.26a.17.17,0,0,1-.17-.17v-.43a1.9,1.9,0,0,1-.7-.24,1.6,1.6,0,0,1-.49-.43.86.86,0,0,1-.18-.49.14.14,0,0,1,.14-.14h.37a.26.26,0,0,1,.08.11,1.05,1.05,0,0,0,.37.42,1.25,1.25,0,0,0,.73.19,1.45,1.45,0,0,0,.78-.2.6.6,0,0,0,.32-.52.45.45,0,0,0-.17-.35,1.4,1.4,0,0,0-.46-.24q-.29-.1-.86-.24a1.77,1.77,0,0,1-.89-.46,1.07,1.07,0,0,1-.27-.75,1.16,1.16,0,0,1,.14-.55,1.18,1.18,0,0,1,.41-.44,1.58,1.58,0,0,1,.67-.23v-.42a.17.17,0,0,1,.17-.17H62a.17.17,0,0,1,.17.17v.43A1.7,1.7,0,0,1,62.8,245.12Z"/>
    </g>
    <g class="g">
      <path class="h" d="M382.51,154c-1.84-1.63-3.49-3.07-5.1-4.56a1.15,1.15,0,0,1-.28-1c.62-2,1.31-4,2-6l.17-.48c1,.9,2,1.75,3,2.63a.82.82,0,0,1,.24.54C382.52,148,382.51,150.89,382.51,154Z"/>
      <path class="h" d="M364.68,154c1.84-1.63,3.49-3.07,5.1-4.56a1.15,1.15,0,0,0,.28-1c-.62-2-1.31-4-2-6l-.17-.48c-1,.9-2,1.75-3,2.63a.82.82,0,0,0-.24.54C364.67,148,364.68,150.89,364.68,154Z"/>
      <path class="i" d="M373.56,133.18a3,3,0,1,1,3.11-3A3.08,3.08,0,0,1,373.56,133.18Z"/>
      <path class="h" d="M373.56,133.83a3.69,3.69,0,1,1,3.75-3.67A3.74,3.74,0,0,1,373.56,133.83Z"/>
      <polygon class="i" points="373.59 152.36 372.84 152.36 373.59 171.55 374.35 152.36 373.59 152.36"/>
      <polygon class="i" points="372.04 152.36 371.62 152.36 372.04 162.95 372.46 152.36 372.04 152.36"/>
      <polygon class="i" points="375.15 152.36 374.73 152.36 375.15 162.95 375.56 152.36 375.15 152.36"/>
      <path class="h" d="M376.65,149.49a.68.68,0,0,0-.59-.42h-4.93a.68.68,0,0,0-.59.42c-.17.42-.82,2.2-.82,2.2h7.74S376.82,149.91,376.65,149.49Z"/>
      <path class="i" d="M373.6,116.85a27.78,27.78,0,0,1,2.85,5.35h-5.69a27.78,27.78,0,0,1,2.85-5.35m0-.42a26.4,26.4,0,0,0-3.21,6h6.43a26.4,26.4,0,0,0-3.21-6h0Z"/>
      <path class="i" d="M376.81,123.12a34.76,34.76,0,0,1-.21,24.41,1.3,1.3,0,0,1-1,.78h-4a1.3,1.3,0,0,1-1-.77h0a34.77,34.77,0,0,1-.21-24.43h6.42m.17-.25h-6.76a35,35,0,0,0,.15,24.76,1.54,1.54,0,0,0,1.25.94h4a1.54,1.54,0,0,0,1.25-.94,35,35,0,0,0,.15-24.76h0Z"/>
      <path class="a" d="M374.22,128.73a1.06,1.06,0,0,1,.32.3.66.66,0,0,1,.12.31.08.08,0,0,1,0,.07h-.33a.24.24,0,0,1-.06-.08.84.84,0,0,0-.25-.27.75.75,0,0,0-.46-.13.81.81,0,0,0-.45.12.39.39,0,0,0-.18.34.34.34,0,0,0,.09.25.73.73,0,0,0,.28.16l.56.17a1.74,1.74,0,0,1,.72.33.68.68,0,0,1,.21.53.78.78,0,0,1-.27.61,1.25,1.25,0,0,1-.73.29V132a.12.12,0,0,1-.12.12h-.18a.12.12,0,0,1-.12-.12v-.3a1.33,1.33,0,0,1-.49-.17,1.12,1.12,0,0,1-.34-.3.6.6,0,0,1-.13-.34.1.1,0,0,1,.1-.1h.26a.18.18,0,0,1,.06.08.74.74,0,0,0,.26.29.88.88,0,0,0,.51.13,1,1,0,0,0,.55-.14.42.42,0,0,0,.22-.37.31.31,0,0,0-.12-.25,1,1,0,0,0-.32-.17l-.6-.17a1.24,1.24,0,0,1-.62-.32.75.75,0,0,1-.19-.52.81.81,0,0,1,.1-.38.83.83,0,0,1,.29-.3,1.1,1.1,0,0,1,.47-.16v-.29a.12.12,0,0,1,.12-.12h.18a.12.12,0,0,1,.12.12v.3A1.19,1.19,0,0,1,374.22,128.73Z"/>
    </g>
  </g>
</svg>
