<svg xmlns="http://www.w3.org/2000/svg" viewBox="0 0 446.4 281.15">
  <defs>
    <style>
      .a {
        fill: #2f303b;
      }

      .b {
        opacity: 0.6;
      }

      .c {
        fill: none;
        stroke: #647584;
        stroke-miterlimit: 10;
        stroke-width: 0.25px;
      }

      .d {
        fill: #647584;
      }

      .e {
        fill: #414954;
      }
    </style>
  </defs>
  <title>Modal background</title>
  <g>
    <rect class="a" width="446.4" height="281.15"/>
    <g class="b">
      <path class="c" d="M74.24,240.65c-2.62-2.33-5-4.39-7.29-6.52a1.65,1.65,0,0,1-.4-1.39c.89-2.87,1.87-5.71,2.83-8.56l.24-.69c1.47,1.29,2.89,2.51,4.27,3.76a1.17,1.17,0,0,1,.34.78C74.25,232.12,74.24,236.22,74.24,240.65Z"/>
      <path class="c" d="M48.76,240.65c2.62-2.33,5-4.39,7.29-6.52a1.65,1.65,0,0,0,.4-1.39c-.89-2.87-1.87-5.71-2.83-8.56l-.24-.69c-1.47,1.29-2.89,2.51-4.27,3.76a1.17,1.17,0,0,0-.34.78C48.75,232.12,48.76,236.22,48.76,240.65Z"/>
      <path class="d" d="M61.45,210.91a4.34,4.34,0,1,1,4.41-4.32A4.4,4.4,0,0,1,61.45,210.91Z"/>
      <path class="c" d="M61.4,211.84a5.26,5.26,0,1,1,5.35-5.24A5.35,5.35,0,0,1,61.4,211.84Z"/>
      <polygon class="d" points="61.5 238.32 60.42 238.32 61.5 265.74 62.59 238.32 61.5 238.32"/>
      <polygon class="d" points="59.28 238.32 58.69 238.32 59.28 253.45 59.88 238.32 59.28 238.32"/>
      <polygon class="d" points="63.73 238.32 63.13 238.32 63.73 253.45 64.32 238.32 63.73 238.32"/>
      <path class="c" d="M65.86,234.22a1,1,0,0,0-.84-.61H58a1,1,0,0,0-.84.61c-.25.6-1.17,3.15-1.17,3.15H67.07S66.11,234.82,65.86,234.22Z"/>
      <path class="d" d="M61.5,187.39a39.47,39.47,0,0,1,4.23,7.94H57.28a39.46,39.46,0,0,1,4.23-7.94m0-.42a37.73,37.73,0,0,0-4.59,8.62h9.19A37.73,37.73,0,0,0,61.52,187h0Z"/>
      <path class="d" d="M66.16,196.45c2.9,7.76,5.18,20.1-.27,35a2,2,0,0,1-1.55,1.18H58.67a2,2,0,0,1-1.55-1.17h0c-5.46-15-3.18-27.29-.28-35.05h9.32m.17-.25H56.66c-3,7.88-5.28,20.31.22,35.39a2.2,2.2,0,0,0,1.78,1.34h5.67a2.2,2.2,0,0,0,1.78-1.34c5.5-15.08,3.2-27.51.22-35.39Z"/>
      <path class="a" d="M62.45,204.55a1.51,1.51,0,0,1,.45.43.94.94,0,0,1,.17.44.11.11,0,0,1,0,.1.14.14,0,0,1-.1,0h-.26a.19.19,0,0,1-.11,0,.35.35,0,0,1-.08-.11,1.2,1.2,0,0,0-.35-.39,1.07,1.07,0,0,0-.66-.19,1.16,1.16,0,0,0-.65.17.55.55,0,0,0-.26.49.49.49,0,0,0,.13.35,1,1,0,0,0,.39.24,8.06,8.06,0,0,0,.8.24,2.49,2.49,0,0,1,1,.47,1,1,0,0,1,.3.75,1.12,1.12,0,0,1-.39.87,1.78,1.78,0,0,1-1,.41v.41a.17.17,0,0,1-.17.17H61.4a.17.17,0,0,1-.17-.17h0v-.43a1.9,1.9,0,0,1-.7-.24,1.6,1.6,0,0,1-.49-.43.86.86,0,0,1-.18-.49.14.14,0,0,1,.14-.14h.37a.26.26,0,0,1,.08.11,1.05,1.05,0,0,0,.37.42,1.25,1.25,0,0,0,.73.19,1.45,1.45,0,0,0,.78-.2.6.6,0,0,0,.32-.52.45.45,0,0,0-.17-.35,1.4,1.4,0,0,0-.46-.24q-.29-.1-.86-.24a1.77,1.77,0,0,1-.89-.46,1.07,1.07,0,0,1-.27-.75,1.16,1.16,0,0,1,.14-.55,1.18,1.18,0,0,1,.41-.44,1.58,1.58,0,0,1,.67-.23v-.42a.17.17,0,0,1,.17-.17h.26a.17.17,0,0,1,.17.17h0v.43A1.7,1.7,0,0,1,62.45,204.55Z"/>
    </g>
    <g class="b">
      <path class="c" d="M382.17,113.4c-1.84-1.63-3.49-3.07-5.1-4.56a1.15,1.15,0,0,1-.28-1c.62-2,1.31-4,2-6l.17-.48c1,.9,2,1.75,3,2.63a.82.82,0,0,1,.24.54C382.17,107.44,382.17,110.3,382.17,113.4Z"/>
      <path class="c" d="M364.34,113.4c1.84-1.63,3.49-3.07,5.1-4.56a1.15,1.15,0,0,0,.28-1c-.62-2-1.31-4-2-6l-.17-.48c-1,.9-2,1.75-3,2.63a.82.82,0,0,0-.24.54C364.33,107.44,364.34,110.3,364.34,113.4Z"/>
      <path class="d" d="M373.22,92.59a3,3,0,1,1,3.11-3A3.08,3.08,0,0,1,373.22,92.59Z"/>
      <path class="c" d="M373.21,93.24A3.69,3.69,0,1,1,377,89.57,3.74,3.74,0,0,1,373.21,93.24Z"/>
      <polygon class="d" points="373.26 111.77 372.5 111.77 373.26 130.96 374.01 111.77 373.26 111.77"/>
      <polygon class="d" points="371.7 111.77 371.29 111.77 371.7 122.36 372.12 111.77 371.7 111.77"/>
      <polygon class="d" points="374.81 111.77 374.39 111.77 374.81 122.36 375.23 111.77 374.81 111.77"/>
      <path class="c" d="M376.3,108.91a.68.68,0,0,0-.59-.42h-4.93a.68.68,0,0,0-.59.42c-.17.42-.82,2.2-.82,2.2h7.74S376.48,109.32,376.3,108.91Z"/>
      <path class="d" d="M373.25,76.26a27.77,27.77,0,0,1,2.85,5.35h-5.7a27.77,27.77,0,0,1,2.85-5.35m0-.42a26.4,26.4,0,0,0-3.21,6h6.43a26.4,26.4,0,0,0-3.21-6h0Z"/>
      <path class="d" d="M376.46,82.55a34.75,34.75,0,0,1-.21,24.41,1.3,1.3,0,0,1-1,.78h-4a1.3,1.3,0,0,1-1-.77h0A34.76,34.76,0,0,1,370,82.54h6.42m.17-.25h-6.77a35,35,0,0,0,.15,24.76,1.54,1.54,0,0,0,1.25.94h4a1.54,1.54,0,0,0,1.25-.94,35,35,0,0,0,.15-24.76h0Z"/>
      <path class="a" d="M373.92,88.14a1.06,1.06,0,0,1,.32.3.66.66,0,0,1,.12.31.08.08,0,0,1,0,.07H374a.24.24,0,0,1-.06-.08.84.84,0,0,0-.25-.27.75.75,0,0,0-.46-.13.81.81,0,0,0-.45.12.39.39,0,0,0-.18.34.34.34,0,0,0,.09.25.73.73,0,0,0,.28.16l.56.17a1.74,1.74,0,0,1,.72.33.68.68,0,0,1,.21.53.78.78,0,0,1-.27.61,1.25,1.25,0,0,1-.73.29v.29a.12.12,0,0,1-.12.12h-.18a.12.12,0,0,1-.12-.12v-.3a1.33,1.33,0,0,1-.49-.17,1.12,1.12,0,0,1-.34-.3.6.6,0,0,1-.13-.34.1.1,0,0,1,.1-.1h.26a.18.18,0,0,1,.06.08.74.74,0,0,0,.26.29.88.88,0,0,0,.51.13,1,1,0,0,0,.55-.14.42.42,0,0,0,.22-.37A.31.31,0,0,0,374,90a1,1,0,0,0-.32-.17l-.6-.17a1.24,1.24,0,0,1-.62-.32.75.75,0,0,1-.19-.52.81.81,0,0,1,.1-.38.83.83,0,0,1,.29-.3,1.1,1.1,0,0,1,.47-.16v-.29a.12.12,0,0,1,.12-.12h.18a.12.12,0,0,1,.12.12V88A1.19,1.19,0,0,1,373.92,88.14Z"/>
    </g>
    <path class="d" d="M28.26,171.59a1.85,1.85,0,0,1,.55.53,1.14,1.14,0,0,1,.21.54.14.14,0,0,1,0,.12.18.18,0,0,1-.12.05h-.32a.23.23,0,0,1-.14,0,.42.42,0,0,1-.1-.14,1.47,1.47,0,0,0-.43-.47,1.31,1.31,0,0,0-.81-.23,1.41,1.41,0,0,0-.79.21.67.67,0,0,0-.32.6.6.6,0,0,0,.16.43,1.27,1.27,0,0,0,.48.29,10.1,10.1,0,0,0,1,.29,3,3,0,0,1,1.25.57,1.18,1.18,0,0,1,.37.92,1.37,1.37,0,0,1-.48,1.06,2.17,2.17,0,0,1-1.28.5v.5a.21.21,0,0,1-.21.21H26.9a.21.21,0,0,1-.21-.21v-.52a2.32,2.32,0,0,1-.85-.29,2,2,0,0,1-.6-.52,1.05,1.05,0,0,1-.22-.59.17.17,0,0,1,.17-.17h.32a.25.25,0,0,1,.14,0,.32.32,0,0,1,.1.14,1.28,1.28,0,0,0,.45.51,1.53,1.53,0,0,0,.9.23,1.77,1.77,0,0,0,1-.24.73.73,0,0,0,.39-.64.54.54,0,0,0-.21-.43,1.71,1.71,0,0,0-.56-.29l-1-.3a2.16,2.16,0,0,1-1.09-.56,1.31,1.31,0,0,1-.33-.91,1.41,1.41,0,0,1,.17-.67,1.44,1.44,0,0,1,.5-.53,1.92,1.92,0,0,1,.81-.28v-.51a.21.21,0,0,1,.21-.21h.32a.21.21,0,0,1,.21.21v.52A2.08,2.08,0,0,1,28.26,171.59Z"/>
    <path class="d" d="M71.54,137.24a1.85,1.85,0,0,1,.55.53,1.14,1.14,0,0,1,.21.54.14.14,0,0,1,0,.12.18.18,0,0,1-.12.05h-.32a.23.23,0,0,1-.14,0,.42.42,0,0,1-.1-.14,1.47,1.47,0,0,0-.43-.47,1.31,1.31,0,0,0-.81-.23,1.41,1.41,0,0,0-.79.21.67.67,0,0,0-.32.6.6.6,0,0,0,.16.43,1.27,1.27,0,0,0,.48.29,10.1,10.1,0,0,0,1,.29,3,3,0,0,1,1.25.57,1.18,1.18,0,0,1,.37.92,1.37,1.37,0,0,1-.48,1.06,2.17,2.17,0,0,1-1.28.5v.5a.21.21,0,0,1-.21.21h-.32A.21.21,0,0,1,70,143v-.52a2.32,2.32,0,0,1-.85-.29,2,2,0,0,1-.6-.52,1.05,1.05,0,0,1-.22-.59.17.17,0,0,1,.17-.17h.32a.25.25,0,0,1,.14,0,.32.32,0,0,1,.1.14,1.28,1.28,0,0,0,.45.51,1.53,1.53,0,0,0,.9.23,1.77,1.77,0,0,0,1-.24.73.73,0,0,0,.39-.64.54.54,0,0,0-.21-.43,1.71,1.71,0,0,0-.56-.29l-1-.3a2.16,2.16,0,0,1-1.09-.56,1.31,1.31,0,0,1-.33-.91,1.41,1.41,0,0,1,.17-.67,1.44,1.44,0,0,1,.5-.53,1.92,1.92,0,0,1,.81-.28v-.51a.21.21,0,0,1,.21-.21h.32a.21.21,0,0,1,.21.21V137A2.08,2.08,0,0,1,71.54,137.24Z"/>
    <path class="d" d="M414.57,143.9a1.85,1.85,0,0,1,.55.53,1.14,1.14,0,0,1,.21.54.14.14,0,0,1,0,.12.18.18,0,0,1-.12.05h-.32a.23.23,0,0,1-.14,0,.42.42,0,0,1-.1-.14,1.47,1.47,0,0,0-.43-.47,1.31,1.31,0,0,0-.81-.23,1.41,1.41,0,0,0-.79.21.67.67,0,0,0-.32.6.6.6,0,0,0,.16.43,1.27,1.27,0,0,0,.48.29,10.09,10.09,0,0,0,1,.29,3,3,0,0,1,1.25.57,1.18,1.18,0,0,1,.37.92,1.37,1.37,0,0,1-.48,1.06,2.17,2.17,0,0,1-1.28.5v.5a.21.21,0,0,1-.21.21h-.32a.21.21,0,0,1-.21-.21v-.52a2.32,2.32,0,0,1-.85-.29,2,2,0,0,1-.6-.52,1.05,1.05,0,0,1-.22-.59.17.17,0,0,1,.17-.17h.32a.25.25,0,0,1,.14,0,.32.32,0,0,1,.1.14,1.28,1.28,0,0,0,.45.51,1.53,1.53,0,0,0,.9.23,1.77,1.77,0,0,0,1-.24.73.73,0,0,0,.39-.64.54.54,0,0,0-.21-.43,1.71,1.71,0,0,0-.56-.29l-1-.3A2.16,2.16,0,0,1,412,146a1.31,1.31,0,0,1-.33-.91,1.41,1.41,0,0,1,.17-.67,1.44,1.44,0,0,1,.5-.53,1.92,1.92,0,0,1,.81-.28v-.51a.21.21,0,0,1,.21-.21h.32a.21.21,0,0,1,.21.21v.55A2.08,2.08,0,0,1,414.57,143.9Z"/>
    <path class="e" d="M409.59,66.29h-5.74a1.74,1.74,0,0,1-1.74-1.74V52a1.74,1.74,0,0,1,1.74-1.74h5.74A1.74,1.74,0,0,1,411.33,52V64.55A1.74,1.74,0,0,1,409.59,66.29Zm-5.74-15.78A1.48,1.48,0,0,0,402.37,52V64.55A1.48,1.48,0,0,0,403.85,66h5.74a1.48,1.48,0,0,0,1.48-1.48V52a1.48,1.48,0,0,0-1.48-1.48Z"/>
    <path class="e" d="M410,63.89h-6.52a.38.38,0,0,1-.38-.38h0V53a.38.38,0,0,1,.38-.38H410a.38.38,0,0,1,.38.38h0v10.5a.38.38,0,0,1-.38.38Zm-6.52-11a.12.12,0,0,0-.12.12v10.5a.12.12,0,0,0,.12.12H410a.12.12,0,0,0,.12-.12V53a.12.12,0,0,0-.12-.12Z"/>
    <path class="e" d="M405.43,51.4H408a.22.22,0,0,1,.22.22h0a.22.22,0,0,1-.22.22h-2.59a.22.22,0,0,1-.22-.22h0A.22.22,0,0,1,405.43,51.4Z"/>
    <rect class="e" x="405.6" y="64.5" width="2.25" height="0.92" rx="0.28" ry="0.28"/>
    <path class="e" d="M362.6,206.56h-5.74a1.74,1.74,0,0,1-1.74-1.74V192.26a1.74,1.74,0,0,1,1.74-1.74h5.74a1.74,1.74,0,0,1,1.74,1.74v12.56A1.74,1.74,0,0,1,362.6,206.56Zm-5.74-15.78a1.48,1.48,0,0,0-1.48,1.48v12.56a1.48,1.48,0,0,0,1.48,1.48h5.74a1.48,1.48,0,0,0,1.48-1.48V192.26a1.48,1.48,0,0,0-1.48-1.48Z"/>
    <path class="e" d="M363,204.17h-6.52a.38.38,0,0,1-.38-.38h0v-10.5a.38.38,0,0,1,.38-.38H363a.38.38,0,0,1,.38.38h0v10.5a.38.38,0,0,1-.38.38Zm-6.52-11a.12.12,0,0,0-.12.12v10.5a.12.12,0,0,0,.12.12H363a.12.12,0,0,0,.12-.12v-10.5a.12.12,0,0,0-.12-.12Z"/>
    <path class="e" d="M358.44,191.68H361a.22.22,0,0,1,.22.22h0a.22.22,0,0,1-.22.22h-2.59a.22.22,0,0,1-.22-.22h0A.22.22,0,0,1,358.44,191.68Z"/>
    <rect class="e" x="358.61" y="204.78" width="2.25" height="0.92" rx="0.28" ry="0.28"/>
  </g>
</svg>
