<svg xmlns="http://www.w3.org/2000/svg" viewBox="0 0 120 120">
  <defs>
    <style>
      .a {
        fill: #065;
      }

      .b {
        fill: #fd0;
      }
    </style>
  </defs>
  <title>Bank note</title>
  <g>
    <path class="a" d="M120,0H0V63.28H120ZM96.18,56.25H23.82A25,25,0,0,0,7,39.69V23.59A25,25,0,0,0,23.82,7H96.18A25,25,0,0,0,113,23.59v16.1A25,25,0,0,0,96.18,56.25ZM113,16.12A18.14,18.14,0,0,1,103.68,7H113ZM16.32,7A18.13,18.13,0,0,1,7,16.12V7ZM7,47.16a18.13,18.13,0,0,1,9.28,9.09H7Zm96.65,9.09A18.14,18.14,0,0,1,113,47.16v9.09Z"/>
    <path class="b" d="M84.61,28.13H98.67v7H84.61Z"/>
    <path class="b" d="M21.33,28.13H35.39v7H21.33Z"/>
    <path class="b" d="M60,14.06A17.58,17.58,0,1,0,77.58,31.64,17.6,17.6,0,0,0,60,14.06Zm0,28.13A10.55,10.55,0,1,1,70.55,31.64,10.56,10.56,0,0,1,60,42.19Z"/>
    <path class="a" d="M56.48,70.31h7v35.63h-7Z"/>
    <path class="a" d="M42.42,70.31h7V98.91h-7Z"/>
    <path class="a" d="M70.55,70.31h7V98.91h-7Z"/>
    <path class="a" d="M70.55,105.94h7v7h-7Z"/>
    <path class="a" d="M84.61,70.31h7V84.84h-7Z"/>
    <path class="a" d="M84.61,91.88h7v7h-7Z"/>
    <path class="a" d="M56.48,113h7v7h-7Z"/>
    <path class="a" d="M42.42,105.94h7v7h-7Z"/>
    <path class="a" d="M28.36,70.31h7V84.84h-7Z"/>
    <path class="a" d="M28.36,91.88h7v7h-7Z"/>
  </g>
</svg>
