<svg xmlns="http://www.w3.org/2000/svg">
	<symbol id="computer" viewBox="0 0 120 120">
		<title>Computer</title>
    <g>
      <path fill="#065" d="M42.42,113H28.36v7H91.64v-7H77.58V98.67H120V0H0V98.67H42.42Zm28.12,0H49.45V98.67H70.55ZM113,7V70.55H7V7ZM7,77.58H113V91.64H7Z"/>
      <path fill="#fd0" d="M105.7,56.48h-7V14.06h-7V56.48h-7V21.09h-7V56.48h-7V28.13h-7V56.48h-7V21.09h-7V56.48h-7V28.13h-7V56.48h-7V35.16h-7V56.48h-7v7H105.7Z"/>
      <path fill="#065" d="M56.48,81.09h7v7h-7Z"/>
    </g>
	</symbol>
  <symbol id="hourglass" viewBox="0 0 120 120">
    <title>Hourglass</title>
    <g>
      <path fill="#065" d="M91.57,21.33h7.1V0H21.33V21.33h7.1a64.82,64.82,0,0,0,.66,7H0V91.64H29.09a64.89,64.89,0,0,0-.66,7h-7.1V120H98.67V98.67h-7.1a64.82,64.82,0,0,0-.66-7H120V28.36H90.91A64.82,64.82,0,0,0,91.57,21.33ZM28.36,7H91.64V14.3H28.36Zm56.17,14.3a41,41,0,0,1-2.71,14.06H38.18a41,41,0,0,1-2.71-14.06ZM63.59,58.47,60,62.06l-3.59-3.59c-.59-6.19-4.74-9.19-8.43-11.85a39.08,39.08,0,0,1-5.16-4.2H77.18A39.1,39.1,0,0,1,72,46.62C68.33,49.28,64.18,52.28,63.59,58.47ZM60,92.11a37.1,37.1,0,0,1,8.67,6.56H51.33A37.09,37.09,0,0,1,60,92.11ZM16.32,35.39A18.13,18.13,0,0,1,7,44.48V35.39ZM7,75.52a18.13,18.13,0,0,1,9.28,9.09H7Zm16.79,9.09A25,25,0,0,0,7,68V52A25,25,0,0,0,23.82,35.39h6.9c2.7,8.37,7.07,12.55,13.16,16.94,4,2.86,5.58,4.17,5.58,7.67s-1.61,4.81-5.58,7.67c-6.1,4.39-10.45,8.55-13.16,16.94ZM48,73.38c2.46-1.77,5.12-3.69,6.8-6.6l1.71,1.71V86c-4.95,2.83-11.32,7.35-13.37,12.64H35.47C36.22,81.85,42.45,77.37,48,73.38ZM91.64,113H28.36V105.7H91.64ZM76.89,98.67C74.83,93.38,68.45,88.86,63.52,86V68.49l1.71-1.71c1.68,2.91,4.34,4.83,6.8,6.6,5.53,4,11.76,8.47,12.51,25.29Zm26.8-14.06A18.14,18.14,0,0,1,113,75.52v9.09ZM113,44.48a18.14,18.14,0,0,1-9.29-9.09H113ZM96.18,35.39A25,25,0,0,0,113,52V68A25,25,0,0,0,96.18,84.61h-6.9c-2.7-8.37-7.07-12.55-13.16-16.94-4-2.86-5.58-4.17-5.58-7.67s1.61-4.81,5.58-7.67c6.1-4.39,10.45-8.55,13.16-16.94Z"/>
      <path fill="#fd0" d="M21.33,56.48H35.39v7H21.33Z"/>
      <path fill="#fd0" d="M84.61,56.48H98.67v7H84.61Z"/>
    </g>
  </symbol>
  <symbol id="banknote" viewBox="0 0 120 120">
    <title>Bank note</title>
    <g>
      <path fill="#065" d="M120,0H0V63.28H120ZM96.18,56.25H23.82A25,25,0,0,0,7,39.69V23.59A25,25,0,0,0,23.82,7H96.18A25,25,0,0,0,113,23.59v16.1A25,25,0,0,0,96.18,56.25ZM113,16.12A18.14,18.14,0,0,1,103.68,7H113ZM16.32,7A18.13,18.13,0,0,1,7,16.12V7ZM7,47.16a18.13,18.13,0,0,1,9.28,9.09H7Zm96.65,9.09A18.14,18.14,0,0,1,113,47.16v9.09Z"/>
      <path fill="#fd0" d="M84.61,28.13H98.67v7H84.61Z"/>
      <path fill="#fd0" d="M21.33,28.13H35.39v7H21.33Z"/>
      <path fill="#fd0" d="M60,14.06A17.58,17.58,0,1,0,77.58,31.64,17.6,17.6,0,0,0,60,14.06Zm0,28.13A10.55,10.55,0,1,1,70.55,31.64,10.56,10.56,0,0,1,60,42.19Z"/>
      <path fill="#065" d="M56.48,70.31h7v35.63h-7Z"/>
      <path fill="#065" d="M42.42,70.31h7V98.91h-7Z"/>
      <path fill="#065" d="M70.55,70.31h7V98.91h-7Z"/>
      <path fill="#065" d="M70.55,105.94h7v7h-7Z"/>
      <path fill="#065" d="M84.61,70.31h7V84.84h-7Z"/>
      <path fill="#065" d="M84.61,91.88h7v7h-7Z"/>
      <path fill="#065" d="M56.48,113h7v7h-7Z"/>
      <path fill="#065" d="M42.42,105.94h7v7h-7Z"/>
      <path fill="#065" d="M28.36,70.31h7V84.84h-7Z"/>
      <path fill="#065" d="M28.36,91.88h7v7h-7Z"/>
    </g>
  </symbol>
</svg>
