<svg xmlns="http://www.w3.org/2000/svg" viewBox="0 0 74.56 50.2" class="svg-icq">
  <defs>
    <style>
      .svg-icq .a {
        fill: none;
        stroke: #ff2e52;
        stroke-miterlimit: 10;
        stroke-width: 0.5px;
      }

      .svg-icq .b {
        fill: #647584;
      }
    </style>
  </defs>
  <title>ICQ</title>
  <g>
    <line class="a" x1="54.95" y1="25.1" x2="74.56" y2="25.1"/>
    <circle class="a" cx="25.1" cy="25.1" r="24.85"/>
    <path class="b" d="M16.19,26.08a12.36,12.36,0,0,1-1.64-.93,2.8,2.8,0,0,1-.85-3.49,4.21,4.21,0,0,1,5.14-2.38l.29.08a11.72,11.72,0,0,1-.56-2c-.18-1.85.86-3.58,3-3.32a3.27,3.27,0,0,1,2.36,1.58l.57.89c.19-1.73,1.33-2.41,2.66-2.89a3.78,3.78,0,0,1,2.81.21,3.53,3.53,0,0,1,2,2.28,3.48,3.48,0,0,1-.3,2.87A19,19,0,0,1,34,19a3.86,3.86,0,0,1,1.49.56,2,2,0,0,1,.53.85,2,2,0,0,1,.07.45A2.54,2.54,0,0,1,34.78,24l-.6.38c2.41,1.43,3.15,3.28,2.18,5.36s-2.71,2.5-5.5,1.52v1.55a2.54,2.54,0,0,1-4.08,2,10.45,10.45,0,0,1-1-.83,3.72,3.72,0,0,1-2.49,2.62A4.13,4.13,0,0,1,20,36.25a3.5,3.5,0,0,1-1.83-2.59,3.91,3.91,0,0,1,.83-3H17A2.15,2.15,0,0,1,15,29a2.43,2.43,0,0,1,.79-2.51A2.56,2.56,0,0,1,16.19,26.08ZM27.07,22.5l2.5-3c.17-.21.35-.41.51-.63,1-1.34.92-3.54-1.49-4a2.45,2.45,0,0,0-2.88,2.34c.14,1.47.22,3,.35,4.43a.87.87,0,0,0,.34.48,4.58,4.58,0,0,0,.66.38ZM23,28.14c-1,1.17-2,2.32-3,3.55a2.67,2.67,0,0,0-.44,1.57A2.28,2.28,0,0,0,22,35.38h0a2.55,2.55,0,0,0,2.55-2.32c-.06-1.51-.22-3-.33-4.5Zm4.83-1.23c1.13.92,2.24,1.85,3.39,2.74a3.83,3.83,0,0,0,1.36.7,2.13,2.13,0,0,0,2.28-.86,2.23,2.23,0,0,0,.26-2.43,2.08,2.08,0,0,0-2-1.4q-2.32.14-4.64.32a.49.49,0,0,0-.33.21,5.37,5.37,0,0,0-.32.73ZM22,23l-2.61-1.87A2.94,2.94,0,0,0,16,21a2.39,2.39,0,0,0-1.1,1.71,1.72,1.72,0,0,0,2,1.85c1.46-.14,2.91-.34,4.37-.52a.55.55,0,0,0,.33-.24c.13-.22.24-.48.4-.79Zm.62,2.27a2.23,2.23,0,0,0,2.23,2.2,2.27,2.27,0,0,0,2.22-2.23,2.23,2.23,0,0,0-4.46,0Zm10.59-5-.06-.11a8.56,8.56,0,0,0-1.88.75c-1.07.75-2.06,1.63-3.06,2.48a1.25,1.25,0,0,0-.21.44,1.23,1.23,0,0,0,.43.12c1.27-.14,2.55-.28,3.81-.45a3.43,3.43,0,0,0,2.35-1.24A1.12,1.12,0,0,0,34,20.41a6.15,6.15,0,0,0-.81-.14ZM20,16.79A3.35,3.35,0,0,0,20.73,19c.85.92,1.69,1.83,2.56,2.73a1.33,1.33,0,0,0,.55.17,1.31,1.31,0,0,0,.12-.48c-.19-1.16-.34-2.34-.61-3.48a3.1,3.1,0,0,0-1.69-2.37,1.06,1.06,0,0,0-1.57.78,3.1,3.1,0,0,0-.08.49Zm9.5,15.27a6.67,6.67,0,0,0-.32-1,10.89,10.89,0,0,0-2.43-2.88.36.36,0,0,0-.31,0c-.81.27-.81.27-.67,1.16l.12.75a6.38,6.38,0,0,0,.93,2.85,2.65,2.65,0,0,0,1.15.91c.84.28,1.53-.48,1.52-1.78Z"/>
  </g>
</svg>