<svg xmlns="http://www.w3.org/2000/svg" viewBox="0 0 74.56 50.2" class="svg-jabber">
  <defs>
    <style>
      .svg-jabber .a {
        fill: none;
        stroke: #ff2e52;
        stroke-miterlimit: 10;
        stroke-width: 0.5px;
      }

      .svg-jabber .b {
        fill: #647584;
      }
    </style>
  </defs>
  <title>Jabber</title>
  <g>
    <circle class="a" cx="25.1" cy="25.1" r="24.85"/>
    <path class="b" d="M35.22,22.8a6.76,6.76,0,0,1-1.92,4.66,19.68,19.68,0,0,1-3.68,3.21,2.46,2.46,0,0,0-1,1.24,5.85,5.85,0,0,0-.35,3.29c.07.3.09.59-.27.68s-.5-.18-.55-.48a8.24,8.24,0,0,1-.14-2.78,4.32,4.32,0,0,1,1.82-3.16,17.18,17.18,0,0,0,2.46-2.17c2.29-2.29,2.55-4.91,1.29-7.77a8.22,8.22,0,0,0-6.6-4.9A6.37,6.37,0,0,0,20,16.71a.84.84,0,0,1-1.36-1l.07-.09a7.74,7.74,0,0,1,4.75-2.71A10.17,10.17,0,0,1,35.22,22.8Z"/>
    <path class="b" d="M24.22,24.44a8,8,0,0,1,1.21-.95,1.23,1.23,0,0,1,2,1.25,2.9,2.9,0,0,1-.6,1.69c-.47.61-1,1.18-1.48,1.77a.46.46,0,0,1-.61.22l0,0a.52.52,0,0,1-.1-.69,2.08,2.08,0,0,1,.54-.72,6.47,6.47,0,0,0,1.2-1.79.5.5,0,0,0,0-.64.52.52,0,0,0-.64-.09,5.75,5.75,0,0,0-1.48.92c-.33.27-.5.15-.58-.2s-.14-.73-.21-1.1a.65.65,0,0,0-.5-.6.69.69,0,0,0-.71.36,2,2,0,0,0-.27,1.41c.06.48.09,1,.12,1.46a.42.42,0,0,1-.36.48h0a.46.46,0,0,1-.53-.34,5.16,5.16,0,0,1-.29-2.68,1.52,1.52,0,0,1,1.65-1.3,1.59,1.59,0,0,1,1.68,1.35A1.64,1.64,0,0,0,24.22,24.44Z"/>
    <path class="b" d="M23.52,37.43a9.33,9.33,0,0,1-4.12-1.24,2,2,0,0,1-.83-.82.69.69,0,0,1,.26-.92.52.52,0,0,1,.84.14c.92,1.4,2.41,1.64,3.86,2a3.46,3.46,0,0,0,2.17-.32c.2-.09.44-.19.56,0s-.1.38-.26.51A3.78,3.78,0,0,1,23.52,37.43Z"/>
    <path class="b" d="M24.22,35.23A7.82,7.82,0,0,1,18.83,33c-.18-.18-.52-.41-.27-.69a.69.69,0,0,1,.91,0c.23.16.42.37.64.54a6.65,6.65,0,0,0,5,1.24c.44-.05.75,0,.83.45s-.28.63-.67.68S24.56,35.21,24.22,35.23Z"/>
    <path class="b" d="M23.53,32.84a6,6,0,0,1-3.69-1.28,2,2,0,0,1-.8-1,.64.64,0,0,1,.25-.85.69.69,0,0,1,.89.16c.29.31.55.63.83.94a3.47,3.47,0,0,0,3.85,1.09l.34-.08c.24-.05.5-.08.58.21a.45.45,0,0,1-.34.53A4.49,4.49,0,0,1,23.53,32.84Z"/>
    <line class="a" x1="54.95" y1="25.1" x2="74.56" y2="25.1"/>
  </g>
</svg>