<svg xmlns="http://www.w3.org/2000/svg" viewBox="0 0 74.56 50.2" class="svg-skype">
  <defs>
    <style>
      .svg-skype .a {
        fill: none;
        stroke: #ff2e52;
        stroke-miterlimit: 10;
        stroke-width: 0.5px;
      }

      .svg-skype .b {
        fill: #647584;
      }
    </style>
  </defs>
  <title>Skype</title>
  <g>
    <circle class="a" cx="25.1" cy="25.1" r="24.85"/>
    <path class="b" d="M35.33,26.51a.36.36,0,0,1,0-.19,10.57,10.57,0,0,0,0-2.68,10.13,10.13,0,0,0-3.79-6.74,10.48,10.48,0,0,0-7.94-2.23,6.54,6.54,0,0,0-8.78,2.77,6.66,6.66,0,0,0,0,6.1c0,.35-.06.7-.09,1.05V25h0a10.65,10.65,0,0,0,1.09,4.55,10.43,10.43,0,0,0,10.51,5.76,6.48,6.48,0,0,0,3.39,1,6.81,6.81,0,0,0,1-.08,6.43,6.43,0,0,0,4.86-3.6A6.55,6.55,0,0,0,35.33,26.51Zm-1.81-.12a1.08,1.08,0,0,0,.18.79,4.81,4.81,0,0,1,.4,4.35,4.73,4.73,0,0,1-3.22,2.84A4.67,4.67,0,0,1,27,33.7a1.07,1.07,0,0,0-.61-.19h-.17A8.61,8.61,0,0,1,17,28a9.15,9.15,0,0,1-.57-3.31v-.14c0-.29.08-.72.12-1.15a1.08,1.08,0,0,0-.12-.58,4.79,4.79,0,0,1,6.46-6.6,1.45,1.45,0,0,0,1,.17A8.61,8.61,0,0,1,33.43,23,8.43,8.43,0,0,1,33.52,26.39Z"/>
    <path class="b" d="M27.68,24.41a4.76,4.76,0,0,0-.88-.32c-.76-.19-1.54-.34-2.3-.54a5.55,5.55,0,0,1-1.26-.47A.86.86,0,0,1,23,21.67a1.78,1.78,0,0,1,.72-.46,3.09,3.09,0,0,1,1.79,0,2,2,0,0,1,.91.54,9.93,9.93,0,0,0,.71.71,1.13,1.13,0,0,0,1.33,0,.92.92,0,0,0,.39-1.13,1.91,1.91,0,0,0-.37-.71,3.1,3.1,0,0,0-.75-.63,5.89,5.89,0,0,0-5.42-.41,2.91,2.91,0,0,0-2,3.13,2.57,2.57,0,0,0,1.11,2,5.33,5.33,0,0,0,1.89.77l2.58.66a1.1,1.1,0,0,1,.9.86,1.21,1.21,0,0,1-.54,1.25,2.14,2.14,0,0,1-1.21.4,2.53,2.53,0,0,1-2.33-.93,4.9,4.9,0,0,0-.41-.49,2.22,2.22,0,0,0-.48-.41,1,1,0,0,0-1.52.91,1.9,1.9,0,0,0,.55,1.32,4,4,0,0,0,1.34.93,6.57,6.57,0,0,0,2.63.48v.06a15.9,15.9,0,0,0,1.85-.3,3.15,3.15,0,0,0,2.59-2.76A2.86,2.86,0,0,0,27.68,24.41Z"/>
    <line class="a" x1="54.95" y1="25.1" x2="74.56" y2="25.1"/>
  </g>
</svg>