<svg xmlns="http://www.w3.org/2000/svg" viewBox="0 0 74.56 50.2" class="svg-telegram">
  <defs>
    <style>
      .svg-telegram .a {
        fill: none;
        stroke: #ff2e52;
        stroke-miterlimit: 10;
        stroke-width: 0.5px;
      }

      .svg-telegram .b {
        fill: #647584;
      }
    </style>
  </defs>
  <title>Telegram</title>
  <g>
    <circle class="a" cx="25.1" cy="25.1" r="24.85"/>
    <path class="b" d="M35,16a2.64,2.64,0,0,0-3-.8l-18.08,7a2.38,2.38,0,0,0,.19,4.5l3.72,1.1,1.44,4.57a2.51,2.51,0,0,0,4.19,1l1.33-1.36,3.46,2.54a2.67,2.67,0,0,0,1.59.52A2.71,2.71,0,0,0,32.45,33l3.09-14.76A2.64,2.64,0,0,0,35,16ZM30.73,32.66a1,1,0,0,1-1.57.58L24.5,29.82l-2.38,2.43a.79.79,0,0,1-1.32-.31L19.09,26.5,14.5,25.14a.66.66,0,0,1-.05-1.25l18.08-7A.93.93,0,0,1,33.78,18Z"/>
    <path class="b" d="M30.05,19.77l-9.92,6.15a.45.45,0,0,0-.19.52l1.33,4.29a.09.09,0,0,0,.17,0l.32-2.87a.45.45,0,0,1,.15-.29l8.4-7.43a.23.23,0,0,0-.26-.37Z"/>
    <line class="a" x1="54.95" y1="25.1" x2="74.56" y2="25.1"/>
  </g>
</svg>