<svg xmlns="http://www.w3.org/2000/svg" xmlns:xlink="http://www.w3.org/1999/xlink" viewBox="0 0 56.32286 56.32286">
  <defs>
    <style>
      .a {
        isolation: isolate;
      }

      .b, .c {
        fill: #fff;
      }

      .b {
        stroke: #9b9b9b;
        stroke-miterlimit: 10;
        stroke-width: 0.75px;
      }

      .d {
        fill: none;
      }

      .e {
        fill: #bd0034;
      }

      .f {
        fill: #1a237b;
      }

      .g {
        opacity: 0.2;
        fill: url(#a);
      }

      .h {
        mix-blend-mode: lighten;
        fill: url(#c);
      }
    </style>
    <radialGradient id="a" cx="28.16143" cy="28.16143" r="27.78643" gradientUnits="userSpaceOnUse">
      <stop offset="0" stop-color="#1d1d1b" stop-opacity="0"/>
      <stop offset="0.57673" stop-color="#1d1d1b" stop-opacity="0.06461"/>
      <stop offset="0.78443" stop-color="#1d1d1b" stop-opacity="0.29865"/>
      <stop offset="0.93195" stop-color="#1d1d1b" stop-opacity="0.70415"/>
      <stop offset="1" stop-color="#1d1d1b"/>
    </radialGradient>
    <radialGradient id="c" cx="28.16143" cy="39.35605" r="39.38582" gradientUnits="userSpaceOnUse">
      <stop offset="0" stop-color="#fff" stop-opacity="0"/>
      <stop offset="0.37264" stop-color="#fff" stop-opacity="0.00735"/>
      <stop offset="0.50689" stop-color="#fff" stop-opacity="0.03399"/>
      <stop offset="0.60258" stop-color="#fff" stop-opacity="0.08036"/>
      <stop offset="0.67999" stop-color="#fff" stop-opacity="0.14667"/>
      <stop offset="0.74626" stop-color="#fff" stop-opacity="0.23299"/>
      <stop offset="0.80498" stop-color="#fff" stop-opacity="0.33967"/>
      <stop offset="0.8581" stop-color="#fff" stop-opacity="0.46688"/>
      <stop offset="0.90691" stop-color="#fff" stop-opacity="0.61488"/>
      <stop offset="0.95232" stop-color="#fff" stop-opacity="0.78417"/>
      <stop offset="0.99262" stop-color="#fff" stop-opacity="0.96381"/>
      <stop offset="1" stop-color="#fff"/>
    </radialGradient>
  </defs>
  <title>En</title>
  <g class="a">
    <g>
      <circle class="b" cx="28.16143" cy="28.16143" r="27.78643"/>
      <g>
        <g>
          <circle class="c" cx="28.16144" cy="28.16143" r="27.78643"/>
          <circle class="d" cx="28.16144" cy="28.16143" r="27.78643"/>
          <path class="d" d="M33.66265,34.71081l17.09473,9.61206c.45984-.64178.895-1.30206,1.29987-1.983L36.6173,33.66265h4.89441l11.68286,6.57123c.35266-.72992.6698-1.4798.9588-2.24359l-7.67645-4.32764H55.401a27.94286,27.94286,0,0,0,0-11.00244H46.47692l7.67645-4.32764c-.289-.76373-.60614-1.51367-.9588-2.24359L41.51171,22.66021H36.6173L52.05724,13.983c-.40491-.681-.84-1.34125-1.29987-1.983L33.66265,21.61205V.92187a27.94286,27.94286,0,0,0-11.00244,0V21.61205L5.56548,12c-.45984.64178-.895,1.30206-1.29987,1.983l15.44,8.67719H14.81121L3.12828,16.089c-.35266.72992-.6698,1.47986-.9588,2.24359l7.67645,4.32764H.92186a27.94286,27.94286,0,0,0,0,11.00244H9.84594L2.16948,37.99029c.289.76379.60614,1.51367.9588,2.24359l11.68292-6.57123h4.89441l-15.44,8.67719c.40491.681.84,1.34125,1.29987,1.983l17.09473-9.61206V55.401a27.94286,27.94286,0,0,0,11.00244,0Z"/>
          <path class="e" d="M19.70562,22.66021,4.26561,13.983c-.407.68439-.78912,1.38525-1.13733,2.106l11.68292,6.57123Z"/>
          <path class="f" d="M22.66021.92187A27.78919,27.78919,0,0,0,5.56548,12l17.09473,9.61206Z"/>
          <path class="f" d="M2.16948,18.33257A27.57194,27.57194,0,0,0,.92186,22.66021H9.84594Z"/>
          <path class="e" d="M41.51171,22.66021,53.19457,16.089c-.34821-.7207-.73035-1.42157-1.13733-2.106L36.6173,22.66021Z"/>
          <path class="f" d="M50.75737,12A27.78919,27.78919,0,0,0,33.66265.92187V21.61205Z"/>
          <path class="f" d="M55.401,22.66021a27.57194,27.57194,0,0,0-1.24762-4.32764l-7.67645,4.32764Z"/>
          <g>
            <path class="d" d="M31.66265,31.66265V55.72051A27.78856,27.78856,0,0,0,55.72051,31.66265Z"/>
            <path class="d" d="M.60234,31.66265A27.78856,27.78856,0,0,0,24.66021,55.72051V31.66265Z"/>
            <path class="d" d="M24.66021.60235A27.78856,27.78856,0,0,0,.60234,24.66021H24.66021Z"/>
            <path class="d" d="M55.72051,24.66021A27.78856,27.78856,0,0,0,31.66265.60235V24.66021Z"/>
            <path class="e" d="M24.66021,31.66265V55.72051a27.07261,27.07261,0,0,0,7.00244,0V31.66265Z"/>
            <path class="e" d="M31.66265,24.66021V.60235a27.07261,27.07261,0,0,0-7.00244,0V24.66021Z"/>
            <path class="e" d="M31.66265,31.66265H55.72051a27.07261,27.07261,0,0,0,0-7.00244H.60234a27.07261,27.07261,0,0,0,0,7.00244h31.0603Z"/>
          </g>
        </g>
        <path class="e" d="M14.81121,33.66265,3.12828,40.23388c.34821.7207.73035,1.42157,1.13733,2.106l15.44-8.67719Z"/>
        <path class="f" d="M5.56548,44.32287A27.78919,27.78919,0,0,0,22.66021,55.401V34.71081Z"/>
        <path class="f" d="M.92186,33.66265a27.57,27.57,0,0,0,1.24762,4.32764l7.67645-4.32764Z"/>
        <path class="e" d="M36.6173,33.66265l15.43994,8.67719c.407-.68439.78912-1.38525,1.13733-2.106L41.51171,33.66265Z"/>
        <path class="f" d="M33.66265,55.401A27.78919,27.78919,0,0,0,50.75737,44.32287L33.66265,34.71081Z"/>
        <path class="f" d="M54.15337,37.99029A27.57,27.57,0,0,0,55.401,33.66265H46.47692Z"/>
        <circle class="g" cx="28.16143" cy="28.16143" r="27.78643"/>
        <circle class="g" cx="28.16143" cy="28.16143" r="27.78643"/>
        <g>
          <path class="d" d="M29.59167.41113Q28.881.37505,28.16143.375C28.64111.375,29.11663.39208,29.59167.41113Z"/>
          <path class="d" d="M26.73119.41113c.475-.019.95056-.03613,1.43024-.03613Q27.44192.375,26.73119.41113Z"/>
          <path class="h" d="M26.73119.41113a27.78644,27.78644,0,1,0,2.86047,0c-.475-.019-.95056-.03613-1.43024-.03613S27.20623.39208,26.73119.41113Z"/>
        </g>
      </g>
    </g>
  </g>
</svg>
