<svg xmlns="http://www.w3.org/2000/svg" viewBox="0 0 120 120">
  <defs>
    <style>
      .a {
        fill: #f4dbb3;
      }

      .b {
        fill: #1c9df3;
      }

      .c, .d {
        fill: #403680;
      }

      .d {
        stroke: #fff;
        stroke-width: 4px;
      }
    </style>
  </defs>
  <title>Ban letter</title>
  <g>
    <path class="a" d="M60,0a60,60,0,1,0,60,60A60,60,0,0,0,60,0Zm-.47619,108.57143A48.09524,48.09524,0,1,1,107.619,60.47619a48.09524,48.09524,0,0,1-48.09524,48.09524Z"/>
    <path class="b" d="M75.41619,43.30857l38.86953,17.16L43.619,100.96476,4.75714,80.38666Z"/>
    <path class="c" d="M75.41619,34.51809l38.86953,17.16L43.619,92.17428l-38.8619-20.579Z"/>
    <path class="b" d="M75.41619,25.72762l38.86953,17.16L43.619,83.38381,4.75714,62.80571Z"/>
    <path class="d" d="M57.619,47.619c9.20476,0,16.66667,3.1981,16.66667,7.14286s-7.4619,7.14286-16.66667,7.14286-16.66667-3.1981-16.66667-7.14286S48.41428,47.619,57.619,47.619Z"/>
    <path class="a" d="M27.75333,15.19714,36.82571,9.959l54.7619,94.85048-9.07238,5.2381Z"/>
  </g>
</svg>
