<svg xmlns="http://www.w3.org/2000/svg" viewBox="0 0 78 72">
  <defs>
    <style>
      .a {
        fill: #fff;
      }

      .b {
        fill: #7469b8;
      }
    </style>
  </defs>
  <title>Battery</title>
  <g>
    <path class="a" d="M10,72A10.01177,10.01177,0,0,1,0,62V34A10.01177,10.01177,0,0,1,10,24h6.84961a20.25,20.25,0,1,1,39.80078,0H64A10.01177,10.01177,0,0,1,74,34v2h4V60H74v2A10.01177,10.01177,0,0,1,64,72Z"/>
    <g>
      <path class="b" d="M67.99957,42.00043v-8a4,4,0,0,0-4-4H47.12238a14.25,14.25,0,1,0-20.74561,0H9.99957a4,4,0,0,0-4,4v28a4,4,0,0,0,4,4h54a4,4,0,0,0,4-4v-8h4v-12Z"/>
      <polygon class="a" points="36.125 11 32 18 37 20 33 29 43 19 37 17 40.25 11 36.125 11"/>
      <rect class="a" x="12.99958" y="37.00043" width="8" height="22"/>
      <rect class="a" x="23.99958" y="37.00043" width="8" height="22"/>
      <rect class="a" x="34.99958" y="37.00043" width="8" height="22"/>
      <rect class="a" x="45.99958" y="37.00043" width="8" height="22"/>
    </g>
  </g>
</svg>
