<svg xmlns="http://www.w3.org/2000/svg" viewBox="0 0 75.70867 79.08653">
  <defs>
    <style>
      .a {
        fill: #b1a8f0;
      }

      .b, .f {
        fill: none;
      }

      .b, .c, .f {
        stroke: #3f3680;
      }

      .b, .c, .d, .f {
        stroke-miterlimit: 10;
      }

      .b {
        stroke-width: 6px;
      }

      .c, .d {
        fill: #fff;
      }

      .c, .f {
        stroke-width: 3px;
      }

      .d {
        stroke: #8479d1;
        stroke-width: 2px;
      }

      .e {
        fill: #242230;
      }
    </style>
  </defs>
  <title>Dollar</title>
  <g>
    <path class="a" d="M28.53843,73.38518l12.84678,2.70134s22.90995-.84946,29.47361-26.617-8.4043-37.16192-8.4043-37.16192L50.53081,6.74106s15.26433,14.996,7.328,38.72848S28.53843,73.38518,28.53843,73.38518Z"/>
    <path class="b" d="M54.40655,7.92969c-2.18817-.65436-10.69073-3.30939-13-4-14.63806-4.37756-31.005,7.123-36.5567,25.68732S6.66412,66.7793,21.30212,71.15686c2.18817.65436,10.69073,3.30939,13,4,14.63806,4.3775,31.005-7.123,36.5567-25.68732S69.04455,12.30725,54.40655,7.92969Z"/>
    <ellipse class="c" cx="31.35433" cy="37.54326" rx="35.08447" ry="27.66429" transform="translate(-13.59847 56.82632) rotate(-73.35049)"/>
    <ellipse class="d" cx="30.91889" cy="37.30303" rx="28.34694" ry="21.44134" transform="translate(-13.67903 56.23766) rotate(-73.3504)"/>
    <path class="e" d="M24.60754,53.3598a1.02154,1.02154,0,0,1-.02051-.72363l.7666-2.56348a9.07569,9.07569,0,0,1-3.27-2.47363,7.07218,7.07218,0,0,1-1.5083-3.26367,8.16115,8.16115,0,0,1,.15088-3.50488.85418.85418,0,0,1,.35205-.49268.59529.59529,0,0,1,.5127-.08594l3.84082,1.14893a1.01922,1.01922,0,0,1,.53369.31885,2.40461,2.40461,0,0,1,.30859.65039,3.42945,3.42945,0,0,0,2.68848,2.99854,4.30754,4.30754,0,0,0,2.5918.1167,2.01406,2.01406,0,0,0,1.34961-1.41162,1.89356,1.89356,0,0,0-.06934-1.39746,3.96,3.96,0,0,0-1.123-1.29248,24.37282,24.37282,0,0,0-2.5-1.68555,11.21456,11.21456,0,0,1-4.42578-4.23486,7.39036,7.39036,0,0,1-.2002-5.64453,8.08143,8.08143,0,0,1,3.18066-4.53418,7.61848,7.61848,0,0,1,5.36182-1.208l.76611-2.56348a1.028,1.028,0,0,1,.415-.59473.67659.67659,0,0,1,.58154-.105l2.51172.751a.6642.6642,0,0,1,.44287.41162,1.08366,1.08366,0,0,1,.00488.71973l-.78809,2.63672a8.40447,8.40447,0,0,1,2.82666,2.541,8.24044,8.24044,0,0,1,1.35547,3.19727,7.12558,7.12558,0,0,1-.04443,3.03809.97709.97709,0,0,1-.34277.51611.5409.5409,0,0,1-.50488.10791l-4.042-1.2085a1.08059,1.08059,0,0,1-.78418-.95264,2.265,2.265,0,0,0-.52051-1.57178,3.08792,3.08792,0,0,0-1.6167-1.062,2.98989,2.98989,0,0,0-2.041-.01172,2.05755,2.05755,0,0,0-1.145,1.41211,2.00413,2.00413,0,0,0,.36719,1.9248,11.62031,11.62031,0,0,0,2.83789,2.18555,16.5681,16.5681,0,0,1,3.86475,2.85156,6.0793,6.0793,0,0,1,1.64551,3.124,8.64324,8.64324,0,0,1-.37256,3.97754,8.01049,8.01049,0,0,1-3.44873,4.75293,8.61079,8.61079,0,0,1-5.78711,1.10156l-.7666,2.5625a1.084,1.084,0,0,1-.39941.59863.66048.66048,0,0,1-.59619.10107l-2.51172-.751A.67257.67257,0,0,1,24.60754,53.3598Z"/>
    <line class="f" x1="56.70293" y1="48.77695" x2="69.20091" y2="54.06306"/>
    <line class="f" x1="59.34964" y1="40.78382" x2="71.84762" y2="46.06994"/>
    <line class="f" x1="59.8159" y1="32.79069" x2="72.31389" y2="38.07681"/>
    <line class="f" x1="59.34964" y1="24.87454" x2="71.84762" y2="30.16065"/>
    <line class="f" x1="56.20553" y1="16.95838" x2="68.70351" y2="22.24449"/>
    <line class="f" x1="53.17207" y1="56.29505" x2="64.33444" y2="61.01626"/>
    <line class="f" x1="47.97698" y1="62.64286" x2="59.13935" y2="67.36407"/>
    <line class="f" x1="42.08541" y1="67.78098" x2="53.24778" y2="72.50219"/>
  </g>
</svg>
