<svg xmlns="http://www.w3.org/2000/svg" xmlns:xlink="http://www.w3.org/1999/xlink" viewBox="0 0 472.49571 439.63983">
  <defs>
    <style>
      .a {
        fill: url(#a);
      }

      .b {
        fill: #3d2f83;
      }

      .c {
        fill: url(#b);
      }

      .d {
        fill: url(#c);
      }

      .e {
        fill: url(#d);
      }

      .f, .g, .h, .i {
        fill: #1c9df3;
      }

      .g {
        opacity: 0.72;
      }

      .h {
        opacity: 0.49;
      }

      .i {
        opacity: 0.55;
      }

      .ab, .j, .k, .l, .m, .n, .o, .p, .q, .y, .z {
        fill: none;
        stroke-linecap: round;
        stroke-linejoin: round;
      }

      .j, .k, .l, .m, .n, .o, .p, .q {
        stroke: #e6c48f;
      }

      .j, .k, .l, .m, .n, .o, .p, .q, .y, .z {
        stroke-width: 5px;
      }

      .j {
        stroke-dasharray: 0 11.02271;
      }

      .l {
        stroke-dasharray: 0 10.63976;
      }

      .m {
        stroke-dasharray: 0 10.80617;
      }

      .n {
        stroke-dasharray: 0 12.12899;
      }

      .o {
        stroke-dasharray: 0 11.45677;
      }

      .p {
        stroke-dasharray: 0 11.71538;
      }

      .q {
        stroke-dasharray: 0 11.59492;
      }

      .r, .u {
        fill: #f4dbb3;
        stroke-miterlimit: 10;
      }

      .ab, .r, .u, .y {
        stroke: #fff;
      }

      .r {
        stroke-width: 6px;
      }

      .s, .t {
        fill: #292929;
      }

      .t {
        fill-rule: evenodd;
      }

      .u {
        stroke-width: 4px;
      }

      .v {
        fill: #383838;
      }

      .w {
        fill: #fff;
      }

      .x {
        fill: #392e80;
      }

      .z {
        stroke: #1c9df3;
      }

      .aa {
        fill: #403680;
      }

      .ab {
        stroke-width: 7px;
      }
    </style>
    <linearGradient id="a" data-name="Безымянный градиент 42" x1="414.31685" y1="114.61287" x2="414.31685" y2="80.40587" gradientUnits="userSpaceOnUse">
      <stop offset="0" stop-color="#40318a"/>
      <stop offset="1" stop-color="#5e58b0"/>
    </linearGradient>
    <linearGradient id="b" data-name="Безымянный градиент 64" x1="305.21269" y1="207.7425" x2="305.21269" y2="76.05031" gradientUnits="userSpaceOnUse">
      <stop offset="0" stop-color="#403189"/>
      <stop offset="1" stop-color="#483d92"/>
    </linearGradient>
    <linearGradient id="c" data-name="Безымянный градиент 63" x1="307.29728" y1="203.58231" x2="307.29728" y2="96.98847" gradientUnits="userSpaceOnUse">
      <stop offset="0" stop-color="#42338e"/>
      <stop offset="1" stop-color="#534aa1"/>
    </linearGradient>
    <linearGradient id="d" data-name="Безымянный градиент 60" x1="309.38187" y1="199.42211" x2="309.38187" y2="117.92663" gradientUnits="userSpaceOnUse">
      <stop offset="0" stop-color="#453594"/>
      <stop offset="1" stop-color="#5e58b0"/>
    </linearGradient>
  </defs>
  <title>Dreams</title>
  <g>
    <path class="a" d="M453.0708,106.73426a8.34144,8.34144,0,0,0-8.47451-8.20173c-.22191,0-.43961.016-.6572.03229a13.36631,13.36631,0,0,0-3.90945-2.5571,12.37715,12.37715,0,0,0-10.77151-6.15139,12.81319,12.81319,0,0,0-1.96425.15246,17.34234,17.34234,0,0,0-30.87828.14622,12.75077,12.75077,0,0,0-2.73643-.29868,12.133,12.133,0,0,0-12.32654,11.92978c0,.05385.00348.10684.00421.16053a6.60019,6.60019,0,0,0-5.79394,6.437v0a6.63746,6.63746,0,0,0,6.72354,6.50715h.36714a7.985,7.985,0,0,0,2.84738,1.05448,8.28062,8.28062,0,0,0,1.75558.332,28.8652,28.8652,0,0,0,13.55277,3.08323,33.60725,33.60725,0,0,0,6.17268-.56308,45.75418,45.75418,0,0,0,13.15444.08728,58.46341,58.46341,0,0,0,6.77134.38938c10.13814,0,18.89386-2.51522,23.00563-6.15785A8.08664,8.08664,0,0,0,453.0708,106.73426Z"/>
    <g>
      <path class="b" d="M451.99479,160.21218c.24931-19.48846-14.11873-35.111-32.09211-34.89406-.85217.01028-1.68906.08942-2.52555.16938a49.44877,49.44877,0,0,0-14.8722-10.82038c-7.873-15.67172-23.21137-26.18131-41.02583-25.96633a44.33661,44.33661,0,0,0-7.55143.747c-10.29149-23.72683-32.5884-39.91764-58.642-39.60324-26.27972.31712-49.15479,17.3465-59.94377,41.66325a43.55779,43.55779,0,0,0-10.49191-1.15822C198.707,90.665,177.22,113.90023,176.85737,142.24688c-.003.23167.00749.45951.00732.69047-12.54738,2.05517-22.42382,13.88109-22.604,27.96263v.00014c-.197,15.39789,11.26061,27.85588,25.46136,27.68451l1.40988-.017a27.96085,27.96085,0,0,0,10.8764,4.40481,28.37307,28.37307,0,0,0,6.72343,1.34723c13.33056,8.04122,31.62167,12.88152,51.87521,12.63712a116.54356,116.54356,0,0,0,23.73512-2.7086,153.62585,153.62585,0,0,0,26.37855,1.918,156.40362,156.40362,0,0,0,24.13188-2.15207,199.8,199.8,0,0,0,25.98166,1.36145c38.93214-.4698,72.694-11.6969,88.68438-27.55936A37.35278,37.35278,0,0,0,451.99479,160.21218Z"/>
      <path class="c" d="M298.6256,71.62587c-22.073.26636-41.2863,14.56974-50.34823,34.994a36.58524,36.58524,0,0,0-8.81241-.97282c-21.95809.265-40.00555,19.78081-40.31013,43.58986-.00249.19459.00629.386.00615.57994-10.53885,1.72619-18.83431,11.65907-18.98562,23.48649v.00011c-.16545,12.93306,9.45806,23.39683,21.38562,23.2529l1.18419-.01429a23.485,23.485,0,0,0,9.13535,3.69971,23.83123,23.83123,0,0,0,5.64717,1.13157c11.19666,6.754,26.55981,10.81951,43.57124,10.61422a97.88776,97.88776,0,0,0,19.93571-2.275,129.03406,129.03406,0,0,0,22.156,1.611,131.36718,131.36718,0,0,0,20.269-1.80757,167.81687,167.81687,0,0,0,21.82263,1.14352c32.7-.3946,61.05746-9.82451,74.48816-23.14778a31.37351,31.37351,0,0,0,10.47905-23.18528c.2094-16.36883-11.85867-29.49054-26.95494-29.30837-.71576.00864-1.41868.07511-2.12127.14226a41.53323,41.53323,0,0,0-12.49152-9.0883c-6.6127-13.16306-19.4958-21.99031-34.45859-21.80975a37.23938,37.23938,0,0,0-6.34263.62739C339.23641,84.96085,320.50869,71.3618,298.6256,71.62587Z"/>
      <path class="d" d="M301.96558,93.40725c-17.86623.2156-33.41782,11.793-40.75268,28.3247a29.61269,29.61269,0,0,0-7.13291-.78742c-17.77324.21447-32.38115,16.01092-32.62768,35.28235-.002.1575.00509.3124.005.46941-8.53032,1.3972-15.2448,9.437-15.36727,19.01035v.00009c-.13392,10.46823,7.65551,18.93778,17.30987,18.82128l.9585-.01157a19.00915,19.00915,0,0,0,7.3943,2.99461,19.28939,19.28939,0,0,0,4.57092.91591c9.06276,5.46681,21.49795,8.75749,35.26728,8.59133a79.232,79.232,0,0,0,16.13629-1.84144,104.44231,104.44231,0,0,0,17.93342,1.30394,106.33076,106.33076,0,0,0,16.406-1.46308,135.83371,135.83371,0,0,0,17.66359.92558c26.468-.3194,49.42091-7.95212,60.29195-18.73619a25.39424,25.39424,0,0,0,8.48192-18.76655c.16949-13.2492-9.5986-23.87013-21.81778-23.72268-.57934.007-1.14831.06079-1.717.11515a33.61768,33.61768,0,0,0-10.11085-7.35622c-5.35243-10.6544-15.78022-17.79932-27.89135-17.65318a30.14218,30.14218,0,0,0-5.13383.50782C334.83664,104.20081,319.67812,93.19351,301.96558,93.40725Z"/>
      <path class="e" d="M386.75873,172.55477c.12958-10.12958-7.33853-18.24972-16.68061-18.137-.44293.00535-.87793.04648-1.31271.088a25.70213,25.70213,0,0,0-7.73017-5.62414c-4.09216-8.14574-12.06464-13.60833-21.32411-13.4966a23.045,23.045,0,0,0-3.925.38825c-5.34924-12.33256-16.93856-20.74811-30.48055-20.58469-13.65948.16483-25.54933,9.01624-31.15714,21.65543a22.64015,22.64015,0,0,0-5.45341-.602c-13.58839.164-24.75675,12.241-24.94524,26.97485-.00154.12042.00389.23884.00381.35889-6.52179,1.06822-11.65529,7.215-11.74893,14.53421v.00007c-.10238,8.0034,5.853,14.47873,13.23413,14.38966l.73282-.00884a14.53329,14.53329,0,0,0,5.65326,2.2895,14.74755,14.74755,0,0,0,3.49466.70025c6.92886,4.17961,16.43609,6.69547,26.96332,6.56843a60.57618,60.57618,0,0,0,12.33687-1.40786,79.85054,79.85054,0,0,0,13.71086.99692,81.29435,81.29435,0,0,0,12.5431-1.11859,103.85059,103.85059,0,0,0,13.50456.70765c20.23587-.24419,37.78437-6.07973,46.09573-14.32461A19.415,19.415,0,0,0,386.75873,172.55477Z"/>
    </g>
    <g>
      <path class="f" d="M349.227,44.81427a18.80051,18.80051,0,0,1,12.21692-17.60909,18.79527,18.79527,0,1,0,0,35.21818A18.80051,18.80051,0,0,1,349.227,44.81427Z"/>
      <g>
        <polygon class="g" points="412.676 6.647 414.154 8.488 416.362 9.325 415.068 11.299 414.954 13.657 412.676 13.037 410.399 13.657 410.285 11.299 408.991 9.325 411.198 8.488 412.676 6.647"/>
        <polygon class="f" points="393.689 48.933 396.552 52.498 400.827 54.119 398.321 57.943 398.1 62.509 393.689 61.308 389.278 62.509 389.058 57.943 386.552 54.119 390.827 52.498 393.689 48.933"/>
        <polygon class="h" points="451.686 44.862 453.718 47.392 456.752 48.542 454.974 51.257 454.817 54.498 451.686 53.645 448.555 54.498 448.399 51.257 446.62 48.542 449.654 47.392 451.686 44.862"/>
        <polygon class="g" points="423.524 36.575 425.556 39.105 428.59 40.256 426.811 42.97 426.655 46.211 423.524 45.358 420.393 46.211 420.236 42.97 418.458 40.256 421.492 39.105 423.524 36.575"/>
        <polygon class="f" points="367.186 2.164 368.871 4.263 371.389 5.217 369.913 7.469 369.784 10.158 367.186 9.451 364.588 10.158 364.458 7.469 362.983 5.217 365.5 4.263 367.186 2.164"/>
        <polygon class="f" points="298.927 0 301.097 2.703 304.338 3.932 302.438 6.831 302.271 10.293 298.927 9.382 295.582 10.293 295.415 6.831 293.515 3.932 296.756 2.703 298.927 0"/>
        <polygon class="i" points="266.821 16.381 268.853 18.911 271.887 20.062 270.109 22.776 269.952 26.017 266.821 25.164 263.69 26.017 263.534 22.776 261.755 20.062 264.789 18.911 266.821 16.381"/>
      </g>
    </g>
    <g>
      <g>
        <path class="j" d="M27.69871,146.16607c6.09712,50.30127,46.33265,77.87152,93.12289,74.22214,1.15123.02853,7.74744.18423,13.11833,0,34.54272,7.405,90.84847-2.47742,106.85341-52.77866,25.23529-64.18912.48819-115.09653-41.17548-124.75032C149.75026,3.10969,84.142,33.27942,74.30808,46.29208,30.49786,65.93167,19.63042,87.17608,27.69871,146.16607Z"/>
        <g>
          <line class="k" x1="50.88889" y1="127.77197" x2="50.88889" y2="127.77197"/>
          <path class="l" d="M59.473,121.52386c14.03171-8.10715,32.59538-10.56125,46.29987-7.55008"/>
          <line class="k" x1="110.88889" y1="115.43863" x2="110.88889" y2="115.43863"/>
        </g>
        <g>
          <line class="k" x1="128.84343" y1="208.42639" x2="128.84343" y2="208.42639"/>
          <path class="m" d="M137.79808,202.50958c9.74185-9.37766,17.209-27.12833,10.00848-44.77927"/>
          <line class="k" x1="145.44115" y1="152.87484" x2="145.44115" y2="152.87484"/>
        </g>
        <g>
          <line class="k" x1="127.55556" y1="83.10531" x2="127.55556" y2="83.10531"/>
          <path class="n" d="M125.12223,71.25741c-3.34984-9.554-10.15468-18.14169-21.16634-19.33948"/>
          <line class="k" x1="97.89925" y1="51.9881" x2="97.89925" y2="51.9881"/>
        </g>
        <g>
          <line class="k" x1="164.83338" y1="108.16266" x2="164.83338" y2="108.16266"/>
          <path class="o" d="M174.24363,101.6325C191.284,88.235,194.50074,74.753,191.59085,56.26141"/>
          <line class="k" x1="190.55588" y1="50.62668" x2="190.55588" y2="50.62668"/>
        </g>
        <g>
          <line class="k" x1="313.22223" y1="207.77197" x2="313.22223" y2="207.77197"/>
          <path class="p" d="M312.07636,196.13455c-3.66614-17.4798-15.72177-33.12808-30.80344-40.71594"/>
          <line class="k" x1="275.88889" y1="153.10531" x2="275.88889" y2="153.10531"/>
        </g>
        <g>
          <line class="k" x1="169.5838" y1="123.12271" x2="169.5838" y2="123.12271"/>
          <path class="q" d="M180.45334,119.21661c15.05673-3.19345,36.98944-1.03607,46.86761,14.77841"/>
          <line class="k" x1="229.91086" y1="139.17541" x2="229.91086" y2="139.17541"/>
        </g>
      </g>
      <g>
        <circle class="r" cx="33.43368" cy="150.11647" r="30.43368"/>
        <g>
          <circle class="s" cx="33.43368" cy="142.6564" r="6.19946"/>
          <path class="t" d="M39.64831,149.15106a8.43709,8.43709,0,0,1-12.42928,0,6.47648,6.47648,0,0,0-5.74142,6.41334V158.271a9.59089,9.59089,0,0,0,9.56277,9.56277H35.827a9.59089,9.59089,0,0,0,9.56277-9.56277V155.5644A6.47645,6.47645,0,0,0,39.64831,149.15106Z"/>
        </g>
      </g>
      <g>
        <circle class="r" cx="245.33834" cy="137.42611" r="23.87457"/>
        <g>
          <circle class="s" cx="245.33834" cy="131.57385" r="4.86334"/>
          <path class="t" d="M250.21358,136.66876a6.61871,6.61871,0,0,1-9.75051,0,5.08066,5.08066,0,0,0-4.504,5.03113v2.12329a7.52385,7.52385,0,0,0,7.50178,7.50178h3.755a7.52385,7.52385,0,0,0,7.50178-7.50178v-2.12329A5.08063,5.08063,0,0,0,250.21358,136.66876Z"/>
        </g>
      </g>
      <g>
        <circle class="r" cx="139.0584" cy="122.87577" r="34.12694"/>
        <g>
          <circle class="s" cx="139.0584" cy="114.51039" r="6.95179"/>
          <path class="t" d="M146.0272,121.7932a9.461,9.461,0,0,1-13.93763,0,7.26243,7.26243,0,0,0-6.43817,7.19163v3.03508a10.75479,10.75479,0,0,0,10.72325,10.72325h5.36752a10.75479,10.75479,0,0,0,10.72325-10.72325v-3.03508A7.26239,7.26239,0,0,0,146.0272,121.7932Z"/>
        </g>
      </g>
      <g>
        <circle class="r" cx="85.94809" cy="34.93099" r="22.10206"/>
        <g>
          <circle class="s" cx="85.94809" cy="29.51322" r="4.50227"/>
          <path class="t" d="M90.46138,34.22988a6.12732,6.12732,0,0,1-9.02661,0,4.70346,4.70346,0,0,0-4.16963,4.6576v1.96565A6.96526,6.96526,0,0,0,84.21,47.798h3.47624A6.96526,6.96526,0,0,0,94.631,40.85313V38.88748A4.70343,4.70343,0,0,0,90.46138,34.22988Z"/>
        </g>
      </g>
      <g>
        <circle class="u" cx="202.37417" cy="40.37276" r="17.34117"/>
        <g>
          <circle class="s" cx="202.37417" cy="36.4535" r="3.39149"/>
          <path class="t" d="M205.774,40.00648a4.61562,4.61562,0,0,1-6.7996,0,3.543,3.543,0,0,0-3.14092,3.5085v1.48069a5.24682,5.24682,0,0,0,5.23144,5.23144h2.61859a5.24682,5.24682,0,0,0,5.23144-5.23144V43.515A3.543,3.543,0,0,0,205.774,40.00648Z"/>
        </g>
      </g>
      <g>
        <circle class="r" cx="136.84598" cy="222.3735" r="22.1444"/>
        <g>
          <circle class="s" cx="136.84598" cy="216.94535" r="4.5109"/>
          <path class="t" d="M141.36792,221.671a6.13906,6.13906,0,0,1-9.0439,0,4.71247,4.71247,0,0,0-4.17762,4.66653V228.307a6.9786,6.9786,0,0,0,6.95814,6.95814h3.4829a6.9786,6.9786,0,0,0,6.95814-6.95814v-1.96942S145.45157,221.7492,141.36792,221.671Z"/>
        </g>
      </g>
    </g>
    <g>
      <g>
        <path class="v" d="M202.48508,434.64013a55.00211,55.00211,0,0,1-17.50879-2.67383c-.05176-.01758-128.29834-47.74512-128.29834-47.74512-.085-.03125-.16943-.06543-.25293-.10156-11.21289-4.88574-17.99219-13.37109-19.08838-23.89355-1.23-11.81055,4.96973-22.85937,11.73047-27.66992q.0564-.041.11426-.0791a58.58722,58.58722,0,0,1,6.88574-4.041c.0415-.01855,228.856-93.74121,228.8999-93.75781a96.98178,96.98178,0,0,1,13.18262-3.93164,75.58726,75.58726,0,0,1,8.07422-1.40723,66.3087,66.3087,0,0,1,7.93262-.50879c1.69727,0,3.41309.0752,5.10059.22363a58.37028,58.37028,0,0,1,7.98535,1.26367c.09277.02148.18555.0459.27734.07227,88.40723,25.79492,107.72949,31.49219,112.27539,32.92969.1084.01953.21484.042.32031.06738,14.10059,3.49609,25.52637,14.79883,27.168,26.875.90527,6.65918-.39941,19.42285-19.31055,30.082-.06738.03809-.13574.0752-.20508.10938l-211.96,106.81348c-.08984.04492-.18066.08789-.27246.127a84.70478,84.70478,0,0,1-33.04834,7.24609Z"/>
        <path class="w" d="M314.15671,233.83032c1.42624,0,2.98593.05692,4.66287.20425a53.32124,53.32124,0,0,1,7.30017,1.15543s112.227,32.74475,112.77841,33.05041l.01386.00009c20.39294,5.05548,37.69147,30.22565,6.60529,47.74817l-211.95908,106.814a80.12491,80.12491,0,0,1-31.072,6.83716,50.12925,50.12925,0,0,1-15.91937-2.41425L58.42217,379.53543c-24.209-10.548-16.94142-35.44376-6.45592-42.90619a58.28531,58.28531,0,0,1,6.12207-3.62048q114.3214-46.82574,228.64276-93.65158a91.32194,91.32194,0,0,1,12.49924-3.72861,70.36616,70.36616,0,0,1,7.57083-1.32248,60.94912,60.94912,0,0,1,7.35556-.47577m0-10a70.84206,70.84206,0,0,0-8.50949.5426,79.81554,79.81554,0,0,0-8.57809,1.492,101.77789,101.77789,0,0,0-13.86649,4.13541q-.13174.04962-.26193.103L54.298,323.75491q-.12762.05228-.25383.10809a62.00515,62.00515,0,0,0-7.64708,4.46057q-.11575.07764-.22917.15833c-9.40909,6.69635-15.08549,19.96292-13.80408,32.26208,1.29117,12.39291,9.127,22.32236,22.0639,27.959q.25051.10913.5065.20441l128.14468,47.69019q.15248.05676.30673.10846a59.992,59.992,0,0,0,19.10059,2.93378,89.74606,89.74606,0,0,0,35.02692-7.65253q.27649-.11893.54535-.25446l211.959-106.814q.20764-.1046.41022-.21875c21.48364-12.10983,22.886-27.19681,21.80975-35.11215-1.93768-14.25125-14.65222-27.02094-30.91937-31.05359q-.13156-.03264-.26379-.06162c-4.32489-1.37549-16.69928-4.994-55.94556-16.47021-28.12854-8.22525-56.18814-16.41226-56.18814-16.41226q-.27585-.08047-.55609-.145a63.51709,63.51709,0,0,0-8.66965-1.37225c-1.83252-.161-3.69577-.24268-5.53818-.24268Z"/>
      </g>
      <g>
        <path class="f" d="M80.2864,377.56625a3.75053,3.75053,0,0,1-5.34288,3.57417A7.89734,7.89734,0,0,1,70.058,373.8498a3.75053,3.75053,0,0,1,5.34288-3.57417A7.89734,7.89734,0,0,1,80.2864,377.56625Z"/>
        <path class="f" d="M124.91167,398.83983l-19.653-7.0761a7.58907,7.58907,0,0,1-4.67861-6.9819h0a3.59942,3.59942,0,0,1,5.11664-3.42282l19.653,7.0761a7.58907,7.58907,0,0,1,4.67861,6.9819h0A3.59942,3.59942,0,0,1,124.91167,398.83983Z"/>
      </g>
      <g>
        <path class="f" d="M205.35862,404.29736a67.5285,67.5285,0,0,1-18.29395-2.60352c-.05371-.01465-.10693-.03223-.15967-.05078L58.67307,356.022a13.79187,13.79187,0,0,1-1.73779-25.23145c.06689-.03418.13574-.06641.20557-.09473l228.01562-93.35547a86.17425,86.17425,0,0,1,29.77344-5.77148,51.21452,51.21452,0,0,1,10.7666,1.06738c.05371.01172.1084.02539.16211.04.38672.11133,38.88379,11.167,53.834,15.52246,16.2334,4.72852,57.72168,16.71387,58.13867,16.835.04.01074.08008.02344.11914.03711,8.62012,2.96289,14.68457,9.21582,15.09082,15.55957.25879,4.03809-1.50684,9.876-11.38672,14.75879L235.842,397.106C225.26242,401.95556,215.31272,404.29736,205.35862,404.29736Z"/>
        <path class="w" d="M314.93006,234.06915a48.68819,48.68819,0,0,1,10.23776,1.01013s38.70715,11.11545,53.82574,15.5195c16.42358,4.78424,58.14435,16.8363,58.14435,16.8363,12.60205,4.33133,20.96448,17.03589,3.4093,25.71237L234.73441,394.86459c-9.39432,4.30466-19.04721,6.93234-29.37625,6.93234A64.5734,64.5734,0,0,1,187.743,399.2876L59.51114,353.6669a11.292,11.292,0,0,1-1.42281-20.65811l228.0153-93.35461a83.954,83.954,0,0,1,28.82642-5.585m.00214-5v5l-.00067-5h-.00168a88.98014,88.98014,0,0,0-30.76294,5.97537L56.19384,328.38159q-.20991.086-.41144.1907a16.292,16.292,0,0,0,2.05281,29.80536l128.23187,45.6207q.15825.05635.31995.10187a70.029,70.029,0,0,0,18.97113,2.69669c10.32123,0,20.6116-2.41626,31.45911-7.38681q.06665-.03058.13245-.063L442.76255,297.62991c11.70007-5.78268,13.025-13.23306,12.77344-17.15952-.4776-7.45325-7.06134-14.426-16.77289-17.76379q-.11783-.04051-.23755-.07507c-.41718-.12054-41.9032-12.10526-58.13361-16.83319-14.95477-4.35635-53.45685-15.4136-53.84406-15.52481q-.16058-.0461-.32407-.08142a53.70848,53.70848,0,0,0-11.29163-1.123Z"/>
      </g>
      <path class="x" d="M80.84973,323.7273c37.20348-15.54925,157.63917-64.75224,195.19481-79.95636,7.04559-2.85236,14.692-3.73613,21.956-1.49769l139.286,44.00112c3.89477,1.2002,5.19919,5.968,1.52055,7.72226-33.65376,16.04832-137.45513,68.27631-176.93594,87.437a41.94942,41.94942,0,0,1-31.27005,1.91885C197.62855,372.37938,109.46331,342.27937,80.78061,332.734,76.86034,331.42935,77.03763,325.32057,80.84973,323.7273Z"/>
      <path class="y" d="M130.22072,351.92491"/>
      <g>
        <path class="z" d="M295.38651,259.22161c-4.11844,11.39428,20.11916,13.17583,26.01686,8.08683"/>
        <path class="z" d="M342.43372,276.57647c-.73493,5.62638,9.1393,14.39356,29.80276,6.16"/>
        <path class="z" d="M271.00538,275.70119c-15.24466,24.53345,31.28275,39.71229,63.8637,26.23962"/>
      </g>
      <path class="f" d="M145.94,407.12059h0a3.00051,3.00051,0,0,1-2.29641-2.90406l.29041-6.89828a1.95543,1.95543,0,0,1,2.49607-1.83849h0a3.00051,3.00051,0,0,1,2.29641,2.90406l-.29041,6.89828A1.95543,1.95543,0,0,1,145.94,407.12059Z"/>
      <path class="f" d="M153.175,409.67109h0a3.00051,3.00051,0,0,1-2.29641-2.90406l.29041-6.89828a1.95543,1.95543,0,0,1,2.49607-1.83849h0a3.00051,3.00051,0,0,1,2.29641,2.90406l-.29041,6.89828A1.95543,1.95543,0,0,1,153.175,409.67109Z"/>
      <path class="f" d="M160.56438,412.66h0a3.00051,3.00051,0,0,1-2.29641-2.90406l.29041-6.89828a1.95543,1.95543,0,0,1,2.49607-1.83849h0a3.00051,3.00051,0,0,1,2.29641,2.90406l-.29041,6.89828A1.95543,1.95543,0,0,1,160.56438,412.66Z"/>
      <path class="f" d="M167.79942,415.21049h0a3.00051,3.00051,0,0,1-2.29641-2.90406l.29041-6.89828a1.95543,1.95543,0,0,1,2.49607-1.83849h0a3.00051,3.00051,0,0,1,2.29641,2.90406l-.29041,6.89828A1.95543,1.95543,0,0,1,167.79942,415.21049Z"/>
      <path class="f" d="M387.4389,339.42663l-27.29849,13.72355c-1.62889.81888-3.20675-.14338-3.50636-2.13836h0a5.16851,5.16851,0,0,1,2.41689-5.11611l27.29849-13.72355c1.62889-.81888,3.20675.14338,3.50636,2.13836h0A5.16851,5.16851,0,0,1,387.4389,339.42663Z"/>
      <path class="w" d="M141.3614,376.4534l-28.47032-9.80867c-4.26221-1.46843-4.44954-4.716-.4163-7.21685l1.71786-1.06517c4.03324-2.50084,10.82042-3.34554,15.08263-1.87712l28.47032,9.80867c4.26221,1.46843,4.44954,4.716.4163,7.21685l-1.71786,1.06517C152.41079,377.07712,145.62361,377.92182,141.3614,376.4534Z"/>
      <path class="aa" d="M377.72133,262.31183l-27.04578-8.06034c-1.36474-.40673-1.52182-1.509-.34906-2.44958h0a5.70966,5.70966,0,0,1,4.61348-.97053l27.04578,8.06034c1.36474.40673,1.52182,1.509.34906,2.44958h0A5.70966,5.70966,0,0,1,377.72133,262.31183Z"/>
    </g>
    <g>
      <path class="ab" d="M366.717,170.11811a107.52641,107.52641,0,0,1,17.73592.89368A51.69492,51.69492,0,0,0,368.16711,186.465l20.62456.689"/>
      <path class="y" d="M347.04107,196.25158a68.35569,68.35569,0,0,1,11.27492.56812,32.863,32.863,0,0,0-10.3531,9.82379l13.11126.438"/>
      <path class="ab" d="M394.06111,135.893a164.199,164.199,0,0,1,27.08377,1.3647,78.94114,78.94114,0,0,0-24.86945,23.598l31.4949,1.05212"/>
    </g>
  </g>
</svg>
