<svg xmlns="http://www.w3.org/2000/svg" viewBox="0 0 119.99905 120">
  <defs>
    <style>
      .a {
        fill: #1c9df3;
      }

      .b {
        fill: #f4dbb3;
        stroke: #fff;
        stroke-width: 8px;
      }

      .c {
        fill: #403680;
      }
    </style>
  </defs>
  <title>Freedom</title>
  <g>
    <path class="a" d="M85.45359,114.58674Q71.66717,103.54191,65.24929,120q-9.17835-15.09154-20.83747-1.823-3.46267-17.32092-18.95776-8.84,2.67072-17.45987-14.791-14.791,8.48185-15.49887-8.84-18.95685Q15.0925,63.92906,0,54.75071q16.45716-6.41695,5.41327-20.20429,17.66021-.40259,12.00218-17.13475Q34.14761,23.07348,34.5502,5.40949,48.33192,16.4581,54.75071,0q9.17835,15.0925,20.83748,1.823,3.46267,17.32186,18.95776,8.84-2.67167,17.46176,14.79008,14.791-8.48185,15.49888,8.84,18.95776-13.27043,11.65912,1.823,20.83748-16.45621,6.41785-5.41326,20.20429-17.6602.40261-12.00218,17.13571Q85.85618,96.92559,85.45359,114.58674Z"/>
    <circle class="b" cx="60.44997" cy="60.4509" r="41.44111"/>
    <path class="c" d="M47.71044,70.74274l-.73783-1.27387a1.20089,1.20089,0,0,0-1.63783-.43783l-2.64142,1.52071a1.2,1.2,0,0,1-1.63693-.43783l-.65405-1.12882a1.19368,1.19368,0,0,1,.436-1.63084h0l.0027-.00157,3.24952-1.87116a1.19369,1.19369,0,0,0,.43986-1.6298l-.002-.00351-.73783-1.27387a1.19549,1.19549,0,0,0-1.632-.44171h0l-.00047.00027-7.07472,4.07475a1.18828,1.18828,0,0,0-.43749,1.62251l.00416.00721,7.27472,12.56657a1.20089,1.20089,0,0,0,1.63783.43693L45.305,79.83817a1.191,1.191,0,0,0,.43859-1.6262h0l-.00255-.00443L44.19154,75.531A1.19279,1.19279,0,0,1,44.626,73.901l.00429-.00247,2.64232-1.52071a1.19368,1.19368,0,0,0,.4411-1.62947h0Zm13.44584-5.92518a1.20179,1.20179,0,0,1-.57387-1.39909,5.9459,5.9459,0,0,0-8.15669-6.96121c-.90089.38558-4.7387,2.58737-5.7504,3.163a1.46305,1.46305,0,0,0-.63063,2.15314l7.06211,12.1972a1.19549,1.19549,0,0,0,1.63152.43693l1.682-.96846a1.19188,1.19188,0,0,0,.44088-1.6269h0l-.00214-.00372L55.56173,69.568a1.19188,1.19188,0,0,1,.43456-1.62859l.00508-.00293.31531-.18018a1.20179,1.20179,0,0,1,1.19459,0l3.81348,2.17656a1.20088,1.20088,0,0,0,1.19459,0l2.43241-1.38828a.86936.86936,0,0,0,.41441-1.10269,1.50359,1.50359,0,0,0-.79188-.78828ZM55.69506,63.623l-1.64143.94774a1.19819,1.19819,0,0,1-1.636-.43513l-.90089-1.55584A1.19278,1.19278,0,0,1,51.95,60.95181c.55045-.32252,1.1063-.64594,1.65494-.945,2.14683-1.2108,4.12339,2.44593,2.09007,3.61709ZM67.18866,47.72219l-7.08013,4.08015a1.19459,1.19459,0,0,0-.44474,1.62981l.00149.00261,7.27562,12.56837a1.20179,1.20179,0,0,0,1.63783.43693l7.27652-4.18736a1.19368,1.19368,0,0,0,.44137-1.6294l-.00173-.003-.72072-1.25134a1.2045,1.2045,0,0,0-1.64323-.43783l-3.53511,2.036a1.2045,1.2045,0,0,1-1.64143-.436l-.29009-.5018a1.19279,1.19279,0,0,1,.43445-1.62994l.0043-.00247,2.91439-1.67836a1.19368,1.19368,0,0,0,.43809-1.63029h0l-.00386-.00663-.72612-1.254a1.2,1.2,0,0,0-1.63693-.43783l-2.91619,1.67746a1.2,1.2,0,0,1-1.63693-.43693h0a1.19458,1.19458,0,0,1,.43711-1.63187l.00252-.00145,3.35313-1.93062a1.19368,1.19368,0,0,0,.442-1.62924h0l-.00234-.00408-.73963-1.27567A1.2027,1.2027,0,0,0,67.18866,47.72219ZM78.93181,40.961l-7.08013,4.07655a1.19459,1.19459,0,0,0-.44474,1.62981l.0015.00261,7.27562,12.56837a1.20179,1.20179,0,0,0,1.63783.43783l7.27381-4.18826a1.19368,1.19368,0,0,0,.442-1.62924h0l-.00234-.00408-.727-1.25495a1.20359,1.20359,0,0,0-1.64143-.43423l-3.53511,2.036a1.2045,1.2045,0,0,1-1.64143-.436l-.29009-.5018a1.19279,1.19279,0,0,1,.43445-1.62994l.00429-.00248,2.91439-1.67836a1.19279,1.19279,0,0,0,.44122-1.62812h0l-.00248-.00429L83.266,47.06544a1.2,1.2,0,0,0-1.63693-.43693L78.7147,48.30687a1.2,1.2,0,0,1-1.63693-.43783h0a1.19458,1.19458,0,0,1,.43711-1.63187l.00252-.00145,3.35313-1.93062a1.19459,1.19459,0,0,0,.44109-1.6308l-.00145-.00252-.73873-1.27567a1.20269,1.20269,0,0,0-1.64053-.43513Z"/>
  </g>
</svg>
