<svg xmlns="http://www.w3.org/2000/svg" viewBox="0 0 412.28011 412.28011">
  <defs>
    <style>
      .a, .e {
        fill: none;
      }

      .a, .c {
        isolation: isolate;
      }

      .b {
        fill: #1c9df3;
        stroke-width: 12.28011px;
      }

      .b, .f, .k, .l {
        stroke: #fff;
      }

      .c {
        fill: #d1edff;
        opacity: 0.2;
      }

      .d {
        fill: #fff;
      }

      .f, .g {
        fill: #cfa582;
      }

      .f, .k, .l {
        stroke-linejoin: round;
      }

      .f {
        stroke-width: 15.0615px;
      }

      .h {
        fill: #a1a0a0;
      }

      .i {
        fill: #676766;
      }

      .j {
        fill: #f7e0c1;
      }

      .k {
        fill: #292929;
        stroke-width: 7.39487px;
      }

      .l {
        fill: #3f3680;
        stroke-width: 8.45128px;
      }
    </style>
  </defs>
  <title>Handshake</title>
  <g>
    <path class="a"/>
    <g>
      <circle class="b" cx="206.14006" cy="206.14006" r="200"/>
      <circle class="c" cx="205.56495" cy="206.58829" r="141.0299"/>
      <circle class="c" cx="206.65173" cy="207.67508" r="171.40986"/>
      <path class="d" d="M205.62839,60.82543a3.5817,3.5817,0,0,1,3.5817,3.5817V74.64056a3.5817,3.5817,0,0,1-7.1634,0V64.40713A3.5817,3.5817,0,0,1,205.62839,60.82543Zm0-11.25677a3.5817,3.5817,0,1,1-3.5817,3.5817A3.5817,3.5817,0,0,1,205.62839,49.56867Zm0-13.30345a3.5817,3.5817,0,1,1-3.5817,3.5817A3.5817,3.5817,0,0,1,205.62839,36.26521ZM112.01814,89.50461a3.5817,3.5817,0,0,1,5.06528-.00026l.00026.00026,8.156,8.156a3.5817,3.5817,0,0,1-5.06043,5.06554l-8.15706-8.156a3.58169,3.58169,0,0,1-.00435-5.06528ZM104.05858,81.545a3.582,3.582,0,1,1-.00026.00026ZM302.30662,90.53a3.58886,3.58886,0,0,1,0,5.07475l-11.24552,10.22217a3.58886,3.58886,0,0,1-5.07477-5.07475L297.23185,90.53A3.58886,3.58886,0,0,1,302.30662,90.53Zm9.21008-9.21008a3.58886,3.58886,0,1,1-5.07543.00065l.00066-.00065a3.58888,3.58888,0,0,1,5.07543-.00346l.00141.00141ZM151.82207,63.69079a3.5817,3.5817,0,0,1,4.66644,1.96993l4.1251,11.49828a3.5817,3.5817,0,0,1-6.60463,2.77366q-.01633-.03889-.03175-.07817l-4.121-11.50237A3.58169,3.58169,0,0,1,151.82207,63.69079ZM147.58544,53.2527a3.5817,3.5817,0,1,1-1.96989,4.66654l0-.0001A3.58171,3.58171,0,0,1,147.58544,53.2527ZM265.057,61.76793a3.58784,3.58784,0,0,1,1.90971,4.70087l-.00016.00037-7.06106,13.74963a3.588,3.588,0,1,1-6.6108-2.79167l7.06106-13.74963A3.58784,3.58784,0,0,1,265.057,61.772Zm5.06862-11.99459a3.58886,3.58886,0,1,1-4.70238,1.90984l.00012-.00028a3.58785,3.58785,0,0,1,4.70067-1.91023ZM209.81795,339.17458h.03173a3.58171,3.58171,0,0,1,3.5817,3.5817v10.23342a3.58171,3.58171,0,0,1-3.5817,3.5817h-.03173a3.58171,3.58171,0,0,1-3.5817-3.5817V342.75628A3.58171,3.58171,0,0,1,209.81795,339.17458Zm.01535,21.49019a3.5817,3.5817,0,1,1-3.597,3.5817A3.58169,3.58169,0,0,1,209.8333,360.66477Zm0,13.30345a3.5817,3.5817,0,1,1-3.597,3.5817A3.58169,3.58169,0,0,1,209.8333,373.96823Zm93.71258-46.076a3.58786,3.58786,0,0,1-5.07065,0l-7.144-6.11448a3.58369,3.58369,0,1,1,5.07065-5.06556h0l7.14394,6.11039A3.77123,3.77123,0,0,1,303.54588,327.89224Zm7.96875,7.95954a3.5817,3.5817,0,1,1,0-5.06556,3.72843,3.72843,0,0,1,0,5.06556Zm-198.45987-8.98495a3.5817,3.5817,0,0,1-.00949-5.06528l.00949-.00949,9.21008-9.19884a3.59021,3.59021,0,1,1,5.07987,5.07477l-9.21008,9.19884a3.595,3.595,0,0,1-5.07985,0Zm-9.22236,9.21008a3.3696,3.3696,0,1,1,.01461.01665l-.01458-.01458ZM263.7,353.70912a3.58784,3.58784,0,0,1-4.67156-1.971l-4.13225-9.45158a3.58477,3.58477,0,0,1,6.64354-2.69549l4.13328,9.45158a3.58168,3.58168,0,0,1-1.96909,4.66688l-.0039.00159Zm4.24074,10.42889a2.55167,2.55167,0,1,1,.00887.00253l-.00887.00359Zm-117.59741-8.51525a3.58785,3.58785,0,0,1-1.91269-4.69967l.00109-.00259,6.04284-12.72629a3.59193,3.59193,0,0,1,6.618,2.79271l-6.03771,12.72629a3.595,3.595,0,0,1-4.71094,1.91183l-.00052-.00022Zm-5.07269,12.00073a3.58757,3.58757,0,1,1,.00968.00409Zm180.78879-68.3869a3.5899,3.5899,0,0,1-5.07065,0l-7.144-6.11242a3.58369,3.58369,0,1,1,5.07065-5.06556l7.14394,6.11039a3.55859,3.55859,0,0,1,.06243,5.0457.06294.06294,0,0,1-.0624.024Zm7.96875,7.95954a3.5817,3.5817,0,1,1,0-5.06556,3.72819,3.72819,0,0,1,0,5.06762ZM93.43217,289.39a2.5394,2.5394,0,1,0-.0004.00247l.00042.00062Zm-10.98046,7.51133a5.22851,5.22851,0,1,0-.0017.00056l.00173.00253Z"/>
      <polygon class="e" points="31.376 121.24 6.14 219.234 31.376 121.24 31.376 121.24"/>
    </g>
    <path class="f" d="M290.70728,158.48725a11.03212,11.03212,0,0,1-8.05041-2.84078c-12.30694-11.30762-27.01045-18.75649-41.84357-25.97409-3.60877-1.75813-7.52294-3.70135-11.46488-1.84145-7.04176,3.34047-13.60234,1.83219-20.32031-.78651a51.83264,51.83264,0,0,0-10.16009-3.01656c-5.46874-.90687-10.63208-3.41454-16.6468-1.15672-18.20124,6.81975-34.5519,16.78555-50.20851,28.06539-3.24789,2.34108-6.37554,5.006-10.88186,3.57174a24.53183,24.53183,0,0,0-3.62939-.62629l-13.05392,77.65818a126.8288,126.8288,0,0,1,13.939,4.034l-.3706.6781a8.54671,8.54671,0,0,0,2.8564,11.14858l4.82655,3.051q.26446.1702.54277.31722a7.31735,7.31735,0,0,0,7.05305-.1199,10.82365,10.82365,0,0,0,1.818,14.0453l3.477,2.99016q.29972.2617.621.49694a9.28591,9.28591,0,0,0,10.52991.29982,10.34845,10.34845,0,0,0,2.62271,11.96011l1.78281,1.53316c4.33586,3.7288,11.07878,3.28741,15.43342-.74836a6.43626,6.43626,0,0,0,1.97672,7.13868l2.766,2.37871c3.28144,2.82193,8.81545,2.73046,12.29781-.20342l2.90887-2.45061c8.27123,5.4539,22.34779,10.67561,30.88082,4.53376,3.507-2.52612,5.80185-3.13685,9.38284-1.14746,5.59829,3.10914,11.23355,2.702,16.57273-.842a22.14916,22.14916,0,0,0,7.39338-7.50449c.67547-1.2122,1.314-2.47989,3.13685-2.09123,9.41994,2.02649,16.09156-2.89633,20.43135-10.02135,3.3127-5.441,6.75494-9.39216,12.47353-12.59382,9.61417-5.36689,12.98242-14.77751,11.89051-25.65018-.23133-2.24856-.37014-4.10853,2.72048-3.84942a14.89932,14.89932,0,0,0,2.23661-.11412l-11.91631-70.89082C292.74369,158.23051,291.21939,158.4707,290.70728,158.48725Z"/>
    <polygon class="f" points="98.077 144.403 74.817 234.728 97.637 238.563 113.042 146.919 98.077 144.403"/>
    <polygon class="f" points="299.238 151.237 314.643 242.882 337.464 239.045 314.203 148.722 299.238 151.237"/>
    <path class="g" d="M294.73176,157.91852c-1.98808.31193-3.51236.55213-4.0245.56867a11.032,11.032,0,0,1-8.05041-2.84077c-12.30691-11.30757-27.01046-18.75649-41.84355-25.97409-3.60879-1.75813-7.523-3.70133-11.46487-1.84141-7.04178,3.34045-13.60239,1.83216-20.32031-.78653A51.83713,51.83713,0,0,0,198.868,124.0278c-5.46872-.90683-10.63208-3.41448-16.64674-1.15667-18.20129,6.8197-34.55192,16.78553-50.20855,28.06534-3.24787,2.34109-6.37554,5.006-10.88187,3.57178a24.53081,24.53081,0,0,0-3.62938-.62634l-13.05389,77.65819c8.65223,1.91319,20.37206,5.93424,25.99211,9.26468,4.0252,3.20166,7.5137,6.99551,11.252,10.57656a143.39278,143.39278,0,0,0,15.24948,12.16812q9.716,7.051,19.91316,13.38957c2.8963,2.24855,4.03445,4.46011,7.0973,6.47733,4.88576,5.96839,25.36337,17.19268,36.4581,9.20706,3.507-2.52615,5.80184-3.13688,9.38287-1.14746,5.59827,3.10912,11.23354,2.702,16.5727-.84206a22.14838,22.14838,0,0,0,7.3934-7.50445c.6755-1.21218,1.314-2.47988,3.13689-2.09125,9.41988,2.02648,16.09155-2.8963,20.43133-10.02135,3.31268-5.441,6.75492-9.39212,12.47349-12.59378,9.61422-5.36693,12.98242-14.77756,11.89053-25.65022-.23133-2.24856-.37013-4.10848,2.72048-3.84939a14.90062,14.90062,0,0,0,2.23663-.11414Z"/>
    <polygon class="h" points="74.817 234.728 97.637 238.563 113.042 146.919 98.077 144.403 74.817 234.728"/>
    <polygon class="i" points="299.238 151.237 314.643 242.882 337.464 239.045 314.203 148.722 299.238 151.237"/>
    <path class="j" d="M293.1056,248.5531c-1.36823,2.292-3.78961,4.02286-5.92311,5.77373-2.81807,2.31265-5.86082,2.70241-9.458,1.2995-12.68509-4.94734-24.01008-12.30957-35.52551-19.37144-3.5223-2.16-6.9189-4.369-10.59578-6.27653a3.53209,3.53209,0,0,0-4.27992.68994c4.15089,3.19888,8.08994,6.49427,12.2872,9.419,11.09518,7.73108,22.1427,15.573,34.71788,20.84015,1.75189.73379,2.1827,1.52671,1.31254,3.39031a23.27831,23.27831,0,0,1-11.50024,11.48643,7.67879,7.67879,0,0,1-6.1841.27205c-10.4872-3.55336-19.18439-10.27885-28.52955-15.839-5.14564-3.06144-10.14839-6.3637-15.56388-8.94513a22.10363,22.10363,0,0,0-4.23659-1.57323c.38556,3.62422,6.678,7.10693,10.39747,9.81315a270.63887,270.63887,0,0,0,27.70209,18.17075c2.84171,1.57658,2.76611,2.59463.624,4.85546-6.8376,7.21657-11.96438,8.23644-20.96045,3.93914a208.49581,208.49581,0,0,1-21.13581-12.219c-1.36558-.86106-2.71905-1.7346-4.80105-2.96839a7.8808,7.8808,0,0,0,3.33664,5.42337c4.10927,2.9691,8.23339,5.925,12.46432,8.71538,1.97949,1.30554,2.36478,2.09866.05947,3.46017-3.91415,2.31164-10.46266,5.38013-29.97175-6.64919.246-.80091,8.69825.80182,7.90123.19129a2.40153,2.40153,0,0,0-.75268-.88755c-2.74719-1.991-5.55267-3.87867-8.377-5.73216-.797-1.17271-11.78411,1.59589-12.8443.76076-4.17541-3.289-15.79617-11.15793-20.82-16.656-9.37583-10.26089-17.86919-13.2807-21.97665-19.779-4.8798-3.22833-5.95457-10.97952-12.01317-12.30962.13854-.25624,2.11195.68539,2.25863.43452-4.08689-.92533-4.51615-1.0315-6.55444-1.42656-3.26642-.63311-2.326-3.22691-2.082-4.74233.923-5.73188,1.85818-11.5975,2.98412-17.29949,2.75222-13.93788,5.4962-27.87808,8.09355-41.84521.38957-2.09482.73624-3.31225,3.2573-3.32525,2.14983-.0111,3.94865-1.34813,5.75475-2.62831,15.4333-10.93928,31.14916-21.34953,48.93736-28.30556,5.19246-2.03049,9.93715-1.30367,14.85491-.13679a80.209,80.209,0,0,1,13.93794,4.63711c-5.261,1.59928-10.5112,3.23539-15.7877,4.78164-2.4935.73071-5.07013,1.18321-7.55131,1.949-4.52873,1.39772-8.14512,3.76543-10.55429,8.2169-4.497,8.30925-11.5221,14.75433-17.24279,22.17263-1.12634,1.46057-2.26007,2.92313-3.27283,4.46214-3.48694,5.29852-1.996,9.82167,4.06894,11.7732,13.69971,4.40828,31.10866-.15554,38.39543-15.17909,1.70446-3.51422,3.37071-7.047,5.06245-10.58778,1.67971.79035.668,1.75053.52626,2.49163-.6888,3.60215.89359,4.42685,4.0925,3.57612a47.21543,47.21543,0,0,1,4.93306-1.01509c7.72922-1.19168,13.47562-4.78576,15.86688-12.69034.2659-.87907.39275-2.21794,1.8056-2.37393.131,6.45361-2.7512,12.75224-7.78406,15.74308-2.26516,1.34615-2.037,2.45-1.02535,4.30632,5.0019,9.1777,11.94822,16.7132,19.56516,23.74926a231.4538,231.4538,0,0,0,50.73516,35.70991C299.313,234.22344,297.58615,241.0476,293.1056,248.5531Z"/>
    <path class="g" d="M125.6989,250.45181l-4.82654-3.051a8.54666,8.54666,0,0,1-2.85642-11.14857l6.53648-11.96018a9.02787,9.02787,0,0,1,12.19951-3.76524q.34255.181.66864.39081l1.74282,1.10169a10.52784,10.52784,0,0,1,3.51855,13.73287l-6.53649,11.9602a7.329,7.329,0,0,1-9.90377,3.05668Q125.96362,250.62216,125.6989,250.45181Z"/>
    <path class="g" d="M174.3223,290.74364l-2.766-2.3787c-3.2814-2.82194-3.117-7.53118.36544-10.465l9.0442-7.61945c4.28963-3.61387,11.10648-3.7266,15.14855-.25054h0c4.04206,3.47608,3.83949,9.27695-.45016,12.89081l-9.0442,7.61945C183.13774,293.47409,177.6037,293.56561,174.3223,290.74364Z"/>
    <path class="g" d="M138.58975,267.68462l-3.477-2.99016a10.83177,10.83177,0,0,1-1.50937-14.50866l17.52875-23.21025a11.42825,11.42825,0,0,1,15.97247-2.46786q.39482.28914.76381.61127h0a13.32335,13.32335,0,0,1,1.85657,17.846l-17.52875,23.21025a9.29107,9.29107,0,0,1-12.98548,2.00639Q138.88973,267.9465,138.58975,267.68462Z"/>
    <path class="g" d="M154.14617,281.97466l-1.78284-1.53319c-4.6154-3.96915-4.639-11.07238-.16026-15.69184l19.851-20.47474a12.1166,12.1166,0,0,1,16.28634-.902h0a10.85659,10.85659,0,0,1,1.31424,15.29719q-.12549.1491-.25628.2936L170.432,280.356C166.15169,285.18387,158.77624,285.95641,154.14617,281.97466Z"/>
    <path class="k" d="M86.89819,132.15038l-.48043-.12373-30.22962-7.78477-.43258-.11142-25.57662-6.58657-.39474-.10168A205.13267,205.13267,0,0,0,8.48629,208.73194c0,6.051.27648,12.03653.78767,17.955l23.44207,6.0369,37.866,9.75136h.00013l.93745-3.63883.32536-1.26287,24.25095-94.16881,1.449-5.62624.48442-1.88257.21213-.82442Z"/>
    <path class="l" d="M383.27832,121.24851l-24.48,6.30409-.41266.10626h0l-32.06976,8.25862-13.04664,3.35976v.00006l.69752,2.70692,1.449,5.62624,24.25,94.16785.32529,1.26287.75871,2.94562.1788.69417h.00006l37.86693-9.75232,22.99266-5.92129q.30766-2.811.53884-5.62881.69356-8.4527.69727-16.94319a205.19,205.19,0,0,0-19.36821-87.28416Z"/>
  </g>
</svg>
