<svg xmlns="http://www.w3.org/2000/svg" viewBox="0 0 71.0353 78.98828">
  <defs>
    <style>
      .a {
        fill: #fff;
      }

      .b {
        fill: #7469b8;
      }
    </style>
  </defs>
  <title>Hibernation</title>
  <g>
    <g>
      <path class="a" d="M11.27749,78.98828l-.1582-.0083A11.76594,11.76594,0,0,1,.0065,66.87207V19.105A11.76393,11.76393,0,0,1,11.12027,6.99658l.15771-.0083H39.73843l.15674.0083A11.76243,11.76243,0,0,1,51.01138,19.105v47.7666A11.766,11.766,0,0,1,39.89712,78.98l-.15771.0083Z"/>
      <polygon class="a" points="47.035 26.013 47.035 15.976 48.256 14.454 47.245 14.454 47.245 0 70.825 0 70.825 10.023 69.595 11.559 71.035 11.559 71.035 26.013 47.035 26.013"/>
      <polygon class="a" points="41.619 38.678 41.619 29.123 41.777 28.926 41.777 16.168 62.461 16.168 62.461 24.838 62.619 24.838 62.619 38.678 41.619 38.678"/>
    </g>
    <g>
      <g>
        <path class="b" d="M11.40634,12.95608h28.146a5.737,5.737,0,0,1,5.43,6v48a5.738,5.738,0,0,1-5.43,6h-28.146a5.738,5.738,0,0,1-5.429-6v-48A5.737,5.737,0,0,1,11.40634,12.95608Z"/>
        <polygon class="b" points="65.006 17.527 57.076 17.527 64.796 7.885 64.796 5.968 53.216 5.968 53.216 8.422 60.738 8.422 53.006 18.054 53.006 19.981 65.006 19.981 65.006 17.527 65.006 17.527"/>
        <polygon class="b" points="56.59 30.806 50.642 30.806 56.432 23.574 56.432 22.136 47.747 22.136 47.747 23.977 53.389 23.977 47.59 31.201 47.59 32.646 56.59 32.646 56.59 30.806 56.59 30.806"/>
      </g>
      <g>
        <path class="a" d="M17.92834,28.33808a9.38005,9.38005,0,0,0,5.914-1.863c-.082,2.5-2.691,4.506-5.914,4.506s-5.831-2.008-5.914-4.506a9.382,9.382,0,0,0,5.914,1.863Z"/>
        <path class="a" d="M33.07034,28.33808a9.38206,9.38206,0,0,0,5.914-1.863c-.083,2.5-2.692,4.506-5.914,4.506s-5.832-2.008-5.915-4.506A9.383,9.383,0,0,0,33.07034,28.33808Z"/>
        <rect class="a" x="17.99933" y="39.98108" width="15" height="3" rx="1" ry="1"/>
        <circle class="a" cx="25.49933" cy="65.48108" r="3"/>
      </g>
    </g>
  </g>
</svg>
