<svg xmlns="http://www.w3.org/2000/svg" xmlns:xlink="http://www.w3.org/1999/xlink" viewBox="0 0 184.9976 50">
  <defs>
    <style>
      .a {
        fill: #17123c;
      }

      .b {
        fill: url(#a);
      }

      .c {
        fill: #41347f;
      }
    </style>
    <linearGradient id="a" data-name="Безымянный градиент" x1="-786.862" y1="-95.68344" x2="-787.055" y2="-96.40374" gradientTransform="translate(48811.7353 5866.76174) scale(62.00014 60.89516)" gradientUnits="userSpaceOnUse">
      <stop offset="0" stop-color="#17123c"/>
      <stop offset="0.36" stop-color="#403680"/>
      <stop offset="1" stop-color="#1c9df3"/>
    </linearGradient>
  </defs>
  <title>Logotype</title>
  <g>
    <g>
      <path class="a" d="M40.53436,16.506a2.10267,2.10267,0,0,1-1.11216,1.34842,13.99631,13.99631,0,0,0-1.65451-3.9863,2.78059,2.78059,0,0,0,.411-.12686c.09645-.42087-1.54322-2.09538-2.415-2.59162.25226.45892.97193,1.69168,1.104,1.94688a2.75636,2.75636,0,0,0-.831.39848c1.00384,1.3514,2.31706,3.06024,3.37431,4.36463a4.78389,4.78389,0,0,1-1.11068.41937c-1.88822.33356-2.63238-1.67974-4.26389-1.54393-1.59071.25894-1.51874,2.15433-3.81206,3.76318a18.39544,18.39544,0,0,0-2.47732-5.01086,3.39154,3.39154,0,0,0,.52158-.188c.089-.547-2.17609-2.60057-3.34686-3.18561.365.57459,1.40225,2.11628,1.59441,2.4364a3.50284,3.50284,0,0,0-1.04093.56265c1.41264,1.67377,3.25338,3.78557,4.73131,5.39889a9.316,9.316,0,0,1-2.182,1.10142c-3.23483,1.17231-5.38347-.67906-6.74344-2.62072-3.34093-4.93549,2.20577-6.61523,3.37431-6.87491a24.30122,24.30122,0,0,1,6.84656.55668,5.09079,5.09079,0,0,0,2.33783-.24625c.57871-.28431,3.30457-3.35276,5.18167-1.94912C41.06336,12.23985,40.75843,15.61052,40.53436,16.506ZM26.146,42.47812c2.3779-3.152,4.83-1.482,6.36282-.32087a9.25066,9.25066,0,0,1-.08532,4.978,7.73214,7.73214,0,0,1-3.056.29177c-1.11216-.23207-1.96538-1.42528-2.55-1.1932.05342.83054-2.97,1.288-3.13022.63428-.95116.67533-1.22345,1.532-2.05441,2.07449A8.022,8.022,0,0,1,17.82674,50a10.5756,10.5756,0,0,1-1.79919-3.67065c-.32793-1.51557.325-3.27814.2159-4.2027a5.13763,5.13763,0,0,1,3.70225-.49624c1.18932.19626,2.19835,1.36185,2.875,1.28051C22.889,42.105,25.47534,41.83264,26.146,42.47812Zm6.56834-21.06127c.41177-.67906,1.48832-.70443,2.38532-.42087.65661.2067.82651.33431.98158.65742.09348.57533-.22258.70294-.97639.80815-.97268.11044-.87548.72607-1.93348.87606C32.11638,23.4876,32.26255,22.20933,32.71439,21.41685Zm6.85843-1.0059c.13058.39027.31087,1.08425-.30419.97829-.57277-.09477-1.09361.1776-1.46458.1291-.2671-.03582-.29529-.48579-.15061-.76338C37.75434,20.55944,38.95256,19.05432,39.57282,20.41094Z"/>
      <path class="b" d="M44.14313,31.4602c-1.02387,1.238-1.35032.67309-3.48041,6.0578-2.38977,4.84146-5.81083,4.73252-7.20343,4.87952-3.05231.13507-4.74764-.0306-6.68482-1.238-2.04848-.99172-2.38458.07089-3.5828.11865-1.16261.04627-4.77286-3.03039-7.78214-.35072a5.57591,5.57591,0,0,0-.69816,3.33783c-.0601,1.55661-1.728,1.2141-2.05367.93874-1.61593-.89248-3.25857-.87681-4.74541-1.6387-1.61667-.8283-1.60109-2.29164-2.40312-2.22075-.50155,1.22454-1.03871,1.01486-1.65451,1.1932-.7308.18432-.253-.92158-.19735-1.426.17361-.99695-.45852-2.11329-.80648-3.167a16.45794,16.45794,0,0,1-1.74206-6.8279c-.10684-4.23255,1.32806-7.207,1.14555-7.50621C2.07178,23.31224.927,24.23084.116,23.82042c-.57129-.55295,1.14109-1.04694,1.36071-5.49366.47632-2.22149,2.2718-4.14151,1.83183-4.65939-.44-.51862-1.96464.71936-2.21022.23879-.16545-.42161.36577-.84173.85619-1.67974.57129-.9768.85693-2.467,1.83629-3.49006C5.797,6.64172,7.90783,6.14773,7.90263,5.791c-.02-.67234-1.27242.35893-2.02177-.42833.47855-.79323,1.83406-1.36483,3.24-2.2782C11.02469,1.848,13.28685.3317,16.07058.04217c2.93806-.3052,5.65205,1.13649,8.51888,1.42975,7.64117-.17462,6.01708,4.04,10.01907,5.11757a8.37492,8.37492,0,0,1,3.19328,2.22075c.74861,1.65884-1.04761.19849-.87771.288-1.86745-.98352-3.17325,2.02-4.03612,2.46774-2.142.44549-6.5624-2.02225-10.15039-.85293-3.3209,1.0462-4.7825,2.76026-4.88563,5.79662.483,5.60261,7.501,8.24945,7.748,9.37176-.20626,1.42229-2.15829,2.47819-.63584,8.2181,1.5818,6.03467,6.13653,6.77268,8.75185,6.49285,5.68915-.47609,6.24634-8.50689,10.00646-11.66489,1.50316-1.48647-.19365-2.72071-1.56919-2.87145a15.71319,15.71319,0,0,0-6.32647,1.95211,8.66291,8.66291,0,0,0-2.13009,2.19985,4.81923,4.81923,0,0,1-3.80241,1.40737,1.68015,1.68015,0,0,1,1.40091-1.91558,1.6626,1.6626,0,0,1,.169-.01712c.54309-.02761.63584.21864,1.56993-.8783,3.12577-4.043,7.60482-3.65871,8.59085-4.00271,1.20861-.41639.09126-2.43939-.09422-2.71325s-1.52022-1.74839-.8599-1.58422c3.40325,1.35886,2.113,3.53857,3.6288,4.57581C47.47961,26.81872,45.46748,29.93045,44.14313,31.4602ZM17.0069,25.486a.871.871,0,0,0-.77087,1.2917c.16322.435.43106.85069.23742,1.16634-.86955.84845-1.00235-.43057-1.85113.041-.50229.3-.48152.75144-.60171,1.08724-.22332.45594-1.35106.56414-2.231-.42385-1.61-1.923.302-5.17428.91777-6.02646.31606-.438-.36132-1.17082-1.10251-.77681-2.41128.96934-2.04254,4.69222-1.40522,6.12944a5.25641,5.25641,0,0,0,2.37567,2.661C10.7435,31.655,6.7838,25.57328,9.19137,22.2847c1.05874-1.64168,3.78089-2.12075,4.4746-.84024.86658,1.62825.28119,2.33939-.09868,3.55424-.37764,1.20514,1.00161,2.21328,1.584.694a6.64284,6.64284,0,0,0,.20329-4.96832,3.4443,3.4443,0,0,0-4.17486-2.11105c-2.09522.41191-3.25709,1.00814-4.07841,3.896a8.93506,8.93506,0,0,0,.93706,6.225C9.42657,31.2035,12.24443,32.8616,14.534,32.54,21.16322,31.76242,18.28081,25.35613,17.0069,25.486Z"/>
    </g>
    <g>
      <g>
        <path class="a" d="M146.73252,23.0024a7.68317,7.68317,0,0,1-2.439,3.53735,5.92353,5.92353,0,0,1-3.51274,1.0193,6.87654,6.87654,0,0,1-2.10943-.34,5.00841,5.00841,0,0,1-1.71946-.89328l1.60985-3.3487a2.783,2.783,0,0,0,.93877.592,3.03614,3.03614,0,0,0,1.10953.214,1.95728,1.95728,0,0,0,1.08566-.27738,2.11331,2.11331,0,0,0,.71955-.88135L136.7565,9.77387H141.513l3.24357,7.36178,3.26892-7.36178h4.41423Z"/>
        <path class="a" d="M137.34184,16.6219a7.35278,7.35278,0,0,0-.9388-3.78866,6.30391,6.30391,0,0,0-2.54938-2.442,8.08538,8.08538,0,0,0-7.317.06264,6.64305,6.64305,0,0,0-2.59786,2.50541A6.99412,6.99412,0,0,0,123,16.572a6.96886,6.96886,0,0,0,.96337,3.65065,6.63579,6.63579,0,0,0,2.71935,2.51809,8.76364,8.76364,0,0,0,4.07348.90592,7.06219,7.06219,0,0,0,5.63411-2.21528l-2.439-2.61872a4.84221,4.84221,0,0,1-1.40255.90672,4.43107,4.43107,0,0,1-1.64638.27664,3.69778,3.69778,0,0,1-2.10947-.566,2.77115,2.77115,0,0,1-1.13408-1.624h9.60989Q137.34187,16.67335,137.34184,16.6219ZM127.585,15.288a2.72939,2.72939,0,0,1,5.41486,0Z"/>
        <polygon class="a" points="123.732 23.421 118.121 23.421 115.007 18.637 113.641 20.071 113.641 23.421 109.006 23.421 109.006 6.358 113.641 6.358 113.641 14.533 118.373 9.774 123.861 9.774 118.373 15.615 123.732 23.421"/>
        <path class="a" d="M102.79376,16.396q0-2.79506-2.17058-2.79469a2.44122,2.44122,0,0,0-1.91482.8053,3.52957,3.52957,0,0,0-.71955,2.41739v6.59674h-4.6342V9.77387h4.41423V11.2592a5.2412,5.2412,0,0,1,1.85368-1.27133,6.1209,6.1209,0,0,1,2.34208-.44068,5.33874,5.33874,0,0,1,3.96312,1.51068,6.22282,6.22282,0,0,1,1.50024,4.5574v7.80544h-4.6342Z"/>
        <path class="a" d="M91.28471,12.93393a6.56237,6.56237,0,0,0-2.65824-2.49272,8.72788,8.72788,0,0,0-7.69583,0,6.63679,6.63679,0,0,0-2.65824,2.50541A6.92148,6.92148,0,0,0,77.309,16.572a6.96886,6.96886,0,0,0,.96337,3.65065,6.70862,6.70862,0,0,0,2.67093,2.51809,8.59781,8.59781,0,0,0,7.68314,0,6.62691,6.62691,0,0,0,2.65824-2.51809,7.03821,7.03821,0,0,0,.95142-3.65065A6.97554,6.97554,0,0,0,91.28471,12.93393Zm-4.51192,6.04273q-.06358.06806-.13174.13174a2.73716,2.73716,0,0,1-3.86868-.13174,3.46957,3.46957,0,0,1-.78065-2.40471,3.38245,3.38245,0,0,1,.78065-2.36672q.04464-.04666.0913-.0913a2.76493,2.76493,0,0,1,3.90912.0913,3.38558,3.38558,0,0,1,.77992,2.36672A3.47289,3.47289,0,0,1,86.77279,18.97667Z"/>
        <polygon class="a" points="71.779 14.404 67.685 21.07 65.538 21.07 61.468 14.655 61.468 23.421 57.005 23.421 57.005 6.444 60.981 6.444 66.685 15.354 72.242 6.444 76.218 6.444 76.267 23.421 71.828 23.421 71.779 14.404"/>
      </g>
      <g>
        <path class="c" d="M124.67031,33.0761a3.74973,3.74973,0,0,0-1.60687.258.76577.76577,0,0,0-.51077.67406q0,.46528.56.64946a12.63389,12.63389,0,0,0,1.8492.38028,20.22618,20.22618,0,0,1,2.70148.56371,4.11743,4.11743,0,0,1,1.86188,1.1647,3.33087,3.33087,0,0,1,.79114,2.36594,3.61694,3.61694,0,0,1-.75459,2.24365,4.91963,4.91963,0,0,1-2.22651,1.55617,9.92048,9.92048,0,0,1-3.54107.56371,14.14324,14.14324,0,0,1-3.26146-.37953,8.58016,8.58016,0,0,1-2.57994-.9932l1.3869-3.1869a7.81076,7.81076,0,0,0,2.14225.89478,9.50516,9.50516,0,0,0,2.45766.33107,3.91491,3.91491,0,0,0,1.59419-.23264.731.731,0,0,0,.475-.67481q0-.4418-.57191-.62485a11.67538,11.67538,0,0,0-1.81342-.35567,17.64976,17.64976,0,0,1-2.68955-.51524,4.134,4.134,0,0,1-1.91035-1.17663,3.37983,3.37983,0,0,1-.80306-2.40248,3.64831,3.64831,0,0,1,.75459-2.26826,5.00447,5.00447,0,0,1,2.20264-1.56884,9.37491,9.37491,0,0,1,3.468-.57638,13.86983,13.86983,0,0,1,2.84763.29453,8.15267,8.15267,0,0,1,2.36072.83363l-1.38764,3.163A7.64338,7.64338,0,0,0,124.67031,33.0761Z"/>
        <polygon class="c" points="117.599 43.276 112.001 43.276 108.892 38.617 107.529 40.014 107.529 43.276 102.905 43.276 102.905 26.661 107.529 26.661 107.529 34.621 112.251 29.987 117.727 29.987 112.251 35.675 117.599 43.276"/>
        <path class="c" d="M95.72578,39.79438a2.83819,2.83819,0,0,0,2.6284-1.7903l3.57762,1.83877a5.35215,5.35215,0,0,1-2.31225,2.68508,7.43973,7.43973,0,0,1-3.86991.96785,8.49322,8.49322,0,0,1-3.91837-.8821A6.5959,6.5959,0,0,1,89.14171,40.162a7.03254,7.03254,0,0,1,0-7.09782,6.5472,6.5472,0,0,1,2.68955-2.42783,8.60234,8.60234,0,0,1,3.91837-.87017,7.44,7.44,0,0,1,3.86991.9686,5.35351,5.35351,0,0,1,2.31225,2.68433L98.35418,35.2586a2.83971,2.83971,0,0,0-2.62841-1.7903,2.75817,2.75817,0,0,0-2.05724.83363,3.15633,3.15633,0,0,0-.815,2.3048,3.233,3.233,0,0,0,.815,2.34133,2.73809,2.73809,0,0,0,2.05724.84631Z"/>
        <path class="c" d="M86.35227,33.06414a6.49838,6.49838,0,0,0-2.65306-2.42783,8.90519,8.90519,0,0,0-7.67863,0,6.72119,6.72119,0,0,0,.01262,11.97734,8.76865,8.76865,0,0,0,7.666,0A6.54774,6.54774,0,0,0,86.35227,40.162,7.10918,7.10918,0,0,0,86.35227,33.06414ZM81.85,38.94806q-.03238.03339-.06575.06575a2.77631,2.77631,0,0,1-3.9257-.06575,3.32328,3.32328,0,0,1-.77919-2.34135,3.24275,3.24275,0,0,1,.77919-2.30475l.0236-.02366A2.80575,2.80575,0,0,1,81.85,34.302a3.24638,3.24638,0,0,1,.77846,2.30475A3.32663,3.32663,0,0,1,81.85,38.94806Z"/>
        <path class="c" d="M65.17884,33.14842a23.07569,23.07569,0,0,1,3.1608.87017,5.469,5.469,0,0,1,2.17058,1.47862,3.94965,3.94965,0,0,1,.91789,2.75293A4.68933,4.68933,0,0,1,70.593,40.968a5.69008,5.69008,0,0,1-2.50388,1.94316,10.13771,10.13771,0,0,1-4.05483.727,15.42815,15.42815,0,0,1-3.93553-.50033,9.666,9.666,0,0,1-3.10114-1.33545l1.55095-3.47994A10.04784,10.04784,0,0,0,61.14787,39.514a9.90005,9.90005,0,0,0,2.91026.45261q2.719,0,2.71863-1.35857A1.12539,1.12539,0,0,0,66.002,37.547a14.34188,14.34188,0,0,0-2.4927-.727,23.694,23.694,0,0,1-3.14812-.87017A5.29294,5.29294,0,0,1,58.19063,34.46a4.02238,4.02238,0,0,1-.90671-2.76561,4.7839,4.7839,0,0,1,.83513-2.75368,5.58984,5.58984,0,0,1,2.492-1.94316,10.27069,10.27069,0,0,1,4.06751-.71508,14.41173,14.41173,0,0,1,3.24356.36909,9.95147,9.95147,0,0,1,2.81482,1.08566L69.28139,31.2418a9.71451,9.71451,0,0,0-4.62749-1.28773,3.87459,3.87459,0,0,0-2.05053.41756,1.2498,1.2498,0,0,0-.64424,1.08492,1.075,1.075,0,0,0,.7628,1.00066,13.804,13.804,0,0,0,2.45691.69121Z"/>
      </g>
      <g>
        <polygon points="145.545 29.708 145.545 40.915 136.632 29.708 135.426 29.708 135.426 43.52 136.889 43.52 136.889 32.312 145.783 43.52 146.988 43.52 146.988 29.708 145.545 29.708"/>
        <path d="M159.043,35.60773a4.83331,4.83331,0,0,0-1.88771-1.87472,5.8009,5.8009,0,0,0-5.41571,0,4.89992,4.89992,0,0,0-1.89564,1.87472,5.707,5.707,0,0,0,0,5.44566,4.96543,4.96543,0,0,0,1.89564,1.88369,5.40617,5.40617,0,0,0,2.70783.68142l.00006.00006a5.40955,5.40955,0,0,0,2.70783-.68148,4.89713,4.89713,0,0,0,1.88771-1.88369A5.78042,5.78042,0,0,0,159.043,35.60773Zm-1.2352,4.838a3.50722,3.50722,0,0,1-1.37389,1.43073,4.20438,4.20438,0,0,1-3.973,0,3.5709,3.5709,0,0,1-1.38383-1.43073,4.67514,4.67514,0,0,1,0-4.22241,3.578,3.578,0,0,1,1.38383-1.43073,4.17263,4.17263,0,0,1,3.973,0,3.5137,3.5137,0,0,1,1.37389,1.43073A4.71685,4.71685,0,0,1,157.80779,40.44576Z"/>
        <path d="M170.6755,35.1139a4.32267,4.32267,0,0,0-1.67017-1.52953,4.9234,4.9234,0,0,0-2.2828-.51883,5.34729,5.34729,0,0,0-2.649.66148,4.73037,4.73037,0,0,0-1.85777,1.86076,5.92949,5.92949,0,0,0,0,5.48554,4.79761,4.79761,0,0,0,1.85777,1.86972,5.28777,5.28777,0,0,0,2.649.67051,4.89984,4.89984,0,0,0,2.34165-.55274,4.27162,4.27162,0,0,0,1.67023-1.59637v2.05232h1.34894V28.87509H170.6755Zm-.48791,5.32783a3.57224,3.57224,0,0,1-1.38383,1.43079,3.8915,3.8915,0,0,1-1.96651.49882l.004.004a3.927,3.927,0,0,1-1.98645-.49889,3.56948,3.56948,0,0,1-1.38389-1.43073,4.67514,4.67514,0,0,1,0-4.22241,3.57576,3.57576,0,0,1,1.38389-1.43073,4.13357,4.13357,0,0,1,3.953,0,3.57872,3.57872,0,0,1,1.37986,1.42676A4.67463,4.67463,0,0,1,170.18759,40.44173Z"/>
        <path d="M184.99662,38.33056a5.61005,5.61005,0,0,0-.65252-2.73277,4.76173,4.76173,0,0,0-1.79593-1.86478,5.03445,5.03445,0,0,0-2.59408-.67045A5.089,5.089,0,0,0,177.36,33.733a4.78944,4.78944,0,0,0-1.81782,1.87472,5.55183,5.55183,0,0,0-.66252,2.72283,5.36282,5.36282,0,0,0,.69143,2.72283,4.90877,4.90877,0,0,0,1.92662,1.88369,5.77675,5.77675,0,0,0,2.83651.68142,5.85427,5.85427,0,0,0,2.2828-.434,4.451,4.451,0,0,0,1.72908-1.26313l-.79023-.90793a3.89024,3.89024,0,0,1-1.40377,1.01668,4.48989,4.48989,0,0,1-1.779.34526,4.13554,4.13554,0,0,1-2.84651-.99777,3.70666,3.70666,0,0,1-1.2452-2.615h8.69524Zm-8.71616-.61659a3.75554,3.75554,0,0,1,1.1564-2.49431,3.82248,3.82248,0,0,1,5.05948,0,3.7585,3.7585,0,0,1,1.15634,2.49431Z"/>
      </g>
    </g>
  </g>
</svg>
