<svg xmlns="http://www.w3.org/2000/svg" xmlns:xlink="http://www.w3.org/1999/xlink" viewBox="0 0 401.99121 443.01094">
  <defs>
    <style>
      .a, .s, .v {
        fill: none;
      }

      .b {
        opacity: 0.6;
      }

      .c {
        fill: #33aeff;
      }

      .d {
        fill: #66c2ff;
      }

      .e {
        fill: #99d7ff;
      }

      .f {
        fill: #ccebff;
      }

      .g, .p, .q, .t {
        fill: #fff;
      }

      .h {
        fill: #a37d55;
      }

      .i {
        fill: #c48e62;
      }

      .j {
        fill: #d0a679;
      }

      .k {
        fill: #d0af8c;
      }

      .l {
        fill: #3f3680;
      }

      .m {
        opacity: 0.51;
      }

      .n {
        fill: #260e05;
        fill-rule: evenodd;
      }

      .o {
        fill: #f4dbb3;
      }

      .p, .s, .t, .v {
        stroke: #3f3680;
      }

      .p, .q, .s, .t, .v {
        stroke-miterlimit: 10;
      }

      .p, .s {
        stroke-width: 6px;
      }

      .q {
        stroke: #8479d1;
        stroke-width: 2px;
      }

      .r {
        fill: #b1a8f0;
      }

      .t, .v {
        stroke-width: 3px;
      }

      .u {
        fill: #242230;
      }

      .w {
        clip-path: url(#a);
      }
    </style>
    <clipPath id="a">
      <polygon class="a" points="117.013 267.438 196.002 314.732 225.044 274.032 200.567 241.426 162.511 221.851 139.409 237.534 117.013 267.438"/>
    </clipPath>
  </defs>
  <title>Money box</title>
  <g>
    <g class="b">
      <circle class="c" cx="201.6232" cy="217.60568" r="196.1342"/>
      <circle class="d" cx="201.6232" cy="217.60568" r="169.8999"/>
      <circle class="e" cx="201.6232" cy="217.60568" r="143.66561"/>
      <circle class="f" cx="201.6232" cy="217.60568" r="117.43132"/>
      <circle class="g" cx="201.6232" cy="217.60568" r="91.19703"/>
    </g>
    <g>
      <polygon class="h" points="94.544 306.94 94.544 377.94 200.233 439.44 200.233 330.94 109.044 317.073 94.544 306.94"/>
      <polygon class="i" points="201.748 198.44 201.748 322.294 307.044 260.367 307.044 255.94 201.748 198.44"/>
    </g>
    <g>
      <polygon class="j" points="309.044 306.94 309.044 377.94 203.355 439.44 203.355 330.94 294.544 317.073 309.044 306.94"/>
      <polygon class="k" points="201.839 198.44 201.839 322.294 96.544 260.367 96.544 255.94 201.839 198.44"/>
    </g>
    <g>
      <path class="g" d="M258.10959,348.12154a1.46085,1.46085,0,0,0-.9259-.32239,2.59376,2.59376,0,0,0-1.23816.37793L253.763,349.3896v17.77588l2.36438-1.31354a5.07315,5.07315,0,0,0,2.05536-2.31769,9.68861,9.68861,0,0,0,.85468-3.94421q.07251-1.70187.07251-4.3407,0-2.69449-.07251-4.20294Q258.96405,348.79411,258.10959,348.12154Z"/>
      <path class="g" d="M298.97428,351.48891,292.533,337.95509l6.08-19.458a6.292,6.292,0,0,0,.29144-1.88428,4.945,4.945,0,0,0-1.36353-3.54077,4.42319,4.42319,0,0,0-3.17255-1.35364,4.56154,4.56154,0,0,0-2.20685.5813l-8.03912,4.46631a6.85586,6.85586,0,0,0-2.915,3.25372,4.44364,4.44364,0,0,0-1.36774-.21442,4.6831,4.6831,0,0,0-2.2652.59851l-6.94769,3.85992a5.67153,5.67153,0,0,0-2.3714,2.64313,6.89982,6.89982,0,0,0-.66846,2.94708v3.56519a9.34733,9.34733,0,0,0-4.81024-2.07343,10.65922,10.65922,0,0,0-1.32581-.08234h-.00012a15.10492,15.10492,0,0,0-7.26593,2.13507l-10.47626,5.82025a5.67143,5.67143,0,0,0-2.3714,2.64307,6.90008,6.90008,0,0,0-.66846,2.94714v2.52063a10.20684,10.20684,0,0,0-5.90729-1.88519,14.61576,14.61576,0,0,0-7.02167,2.07281,24.14258,24.14258,0,0,0-6.9325,5.83337,27.71521,27.71521,0,0,0-4.57123,7.99786,25.94523,25.94523,0,0,0-1.64868,9.01727c0,5.50574,1.67065,8.54907,3.69647,10.215l-1.45721.80957a5.34889,5.34889,0,0,0-2.24152,2.481,6.37047,6.37047,0,0,0-.61614,2.72137q0,.04413.001.08826a13.81574,13.81574,0,0,0,2.08319,7.43939,8.8643,8.8643,0,0,0,7.09119,3.99274q.33234.02206.67957.02228a16.78042,16.78042,0,0,0,8.05548-2.48151,26.838,26.838,0,0,0,7.29028-5.99481,28.95944,28.95944,0,0,0,2.93274-4.08276l.01318.0144a4.462,4.462,0,0,0,3.21222,1.35828,4.68479,4.68479,0,0,0,2.26691-.59949l10.65729-5.9209a25.89515,25.89515,0,0,0,10.11969-10.26831c.03735-.06726.06885-.1391.10571-.20673a4.88542,4.88542,0,0,0,.55627.68207,4.46214,4.46214,0,0,0,3.21234,1.3584,4.6841,4.6841,0,0,0,2.2663-.59912l6.94727-3.85974a5.67578,5.67578,0,0,0,2.37012-2.64117,7.26032,7.26032,0,0,0,.31445-.78314,4.6515,4.6515,0,0,0,1.63275.29449,5.31285,5.31285,0,0,0,2.59442-.71014l8.29395-4.60785a5.34429,5.34429,0,0,0,2.2439-2.48737,6.344,6.344,0,0,0,.61346-2.71472A5.10569,5.10569,0,0,0,298.97428,351.48891Zm-62.83539,35.55945a22.74417,22.74417,0,0,1-6.20221,5.10876,13.14118,13.14118,0,0,1-6.11291,1.97815q-.21185,0-.4165-.01361a4.91937,4.91937,0,0,1-4.01965-2.21057,9.88357,9.88357,0,0,1-1.41876-5.31848,2.38273,2.38273,0,0,1,.23651-1.02057,1.45446,1.45446,0,0,1,.56378-.68518l6.91156-3.83984a1.676,1.676,0,0,1,.76062-.25677q.02975,0,.05786.00256a1.58575,1.58575,0,0,1,.74561.35962,1.807,1.807,0,0,0,1.05719.32751,3.4374,3.4374,0,0,0,1.6347-.50385,7.42512,7.42512,0,0,0,1.98279-1.53162,2.48477,2.48477,0,0,0,.74536-1.5899q0-1.03162-.98193-1.03131a14.33992,14.33992,0,0,0-3.71057.94287,12.02978,12.02978,0,0,1-3.884.76563q-5.50131,0-5.501-8.16608a21.86558,21.86558,0,0,1,1.40063-7.63068,23.6124,23.6124,0,0,1,3.91034-6.8457,20.06837,20.06837,0,0,1,5.78406-4.87555,10.68955,10.68955,0,0,1,5.079-1.5694,6.03149,6.03149,0,0,1,.92285.0694,5.636,5.636,0,0,1,3.965,2.41327,8.10673,8.10673,0,0,1,1.01941,2.07111v3.8927a1.08248,1.08248,0,0,1-.32819.33228l-7.27563,4.04211a1.61494,1.61494,0,0,1-.7254.24884.55211.55211,0,0,1-.07459-.00488,1.33661,1.33661,0,0,1-.655-.35284,1.30246,1.30246,0,0,0-.83392-.29492,2.28912,2.28912,0,0,0-1.09363.33337,2.90011,2.90011,0,0,0-1.74628,2.576.86321.86321,0,0,0,.855.95844,1.73441,1.73441,0,0,0,.1969.01038,10.3383,10.3383,0,0,0,2.9856-.74695,15.81222,15.81222,0,0,1,5.03162-1.05365,6.69006,6.69006,0,0,1,.80682.04639,3.90323,3.90323,0,0,1,2.85663,1.689v13.61639c-.07666.21039-.13544.4223-.21881.63214A24.95987,24.95987,0,0,1,236.13889,387.04836Zm20.17035-10.11646-10.65814,5.92133a.67039.67039,0,0,1-.32343.09564.50313.50313,0,0,1-.3678-.17065,1.27526,1.27526,0,0,1-.29126-.92688v-1.83325a25.39614,25.39614,0,0,0,1.345-8.10321,16.78941,16.78941,0,0,0-1.345-7.3399v-5.76074a6.30837,6.30837,0,0,0,.43561-2.27747q0-.05649-.00165-.113a13.07974,13.07974,0,0,0-.434-3.00177v-8.613a2.91961,2.91961,0,0,1,.29126-1.2514,1.77958,1.77958,0,0,1,.69122-.84216l10.47626-5.82031a11.16918,11.16918,0,0,1,5.32306-1.63165,6.60784,6.60784,0,0,1,.82446.05072,5.73478,5.73478,0,0,1,4.29254,3.00525,10.16344,10.16344,0,0,1,1.01941,2.42957v19.91589a26.13009,26.13009,0,0,1-2.711,7.55121A21.85757,21.85757,0,0,1,256.30924,376.9319ZM295.286,354.90474a1.44774,1.44774,0,0,1-.56348.68591l-8.29382,4.60779a1.38761,1.38761,0,0,1-.65192.20679.60839.60839,0,0,1-.33051-.091,1.21285,1.21285,0,0,1-.5094-.60614L280.4993,349.6733v12.27155a2.91438,2.91438,0,0,1-.2912,1.25049,1.78488,1.78488,0,0,1-.69122.84314l-6.94757,3.85986a.67008.67008,0,0,1-.32343.09558.50313.50313,0,0,1-.3678-.17065,1.27526,1.27526,0,0,1-.29126-.92688v-5.819a40.41024,40.41024,0,0,0,.68848-6.51172c.05035-2.17474.07459-3.58759.07459-4.33539,0-.78442-.02423-2.22644-.0741-4.40839a25.29878,25.29878,0,0,0-.689-5.59857V329.854a2.91961,2.91961,0,0,1,.29126-1.2514,1.77958,1.77958,0,0,1,.69122-.84216l6.94757-3.85986a.66833.66833,0,0,1,.32269-.09521.50773.50773,0,0,1,.36853.16937,1.2852,1.2852,0,0,1,.2912.9278v11.35339l4.11011-13.92352a3.25861,3.25861,0,0,1,1.45557-2.06976l8.03876-4.46613a.54877.54877,0,0,1,.26459-.07806.41385.41385,0,0,1,.2995.13672,1.05353,1.05353,0,0,1,.23657.75769,2.2995,2.2995,0,0,1-.10937.69128l-6.54755,20.95441,7.16571,15.05591a1.10006,1.10006,0,0,1,.10931.57074A2.37653,2.37653,0,0,1,295.286,354.90474Z"/>
      <path class="l" d="M223.40725,394.12163a4.9193,4.9193,0,0,1-4.01969-2.21052,9.8837,9.8837,0,0,1-1.41875-5.31853,2.38222,2.38222,0,0,1,.23655-1.02053,1.454,1.454,0,0,1,.56376-.68518l6.91157-3.83986a1.53423,1.53423,0,0,1,.81844-.2542,1.58542,1.58542,0,0,1,.74563.35964,2.44068,2.44068,0,0,0,2.69188-.17638,7.4222,7.4222,0,0,0,1.98279-1.53162,2.48454,2.48454,0,0,0,.74535-1.5899q0-1.03155-.9819-1.0313a14.34218,14.34218,0,0,0-3.71061.94286q-9.38488,3.26653-9.385-7.40045a21.8653,21.8653,0,0,1,1.40062-7.63065,23.61212,23.61212,0,0,1,3.91033-6.84574,20.06872,20.06872,0,0,1,5.78406-4.87554,9.58239,9.58239,0,0,1,6.00191-1.5,5.636,5.636,0,0,1,3.965,2.41328,8.38532,8.38532,0,0,1,1.455,4.60978,2.37988,2.37988,0,0,1-.23655,1.02053,1.41357,1.41357,0,0,1-.52721.66578l-7.27561,4.04211a1.41339,1.41339,0,0,1-.8.244,1.33663,1.33663,0,0,1-.655-.35284,1.63128,1.63128,0,0,0-1.92754.03842,2.90014,2.90014,0,0,0-1.74624,2.576.86323.86323,0,0,0,.855.95846,8.72344,8.72344,0,0,0,3.18254-.73657,13.64661,13.64661,0,0,1,5.83845-1.00728,3.93408,3.93408,0,0,1,3.20125,2.20706,12.8542,12.8542,0,0,1,1.00032,5.72247,21.51985,21.51985,0,0,1-1.56379,8.008,24.95817,24.95817,0,0,1-4.31092,7.12545,22.7439,22.7439,0,0,1-6.2022,5.10875Q226.08057,394.29942,223.40725,394.12163Z"/>
      <path class="l" d="M244.95983,382.77821a1.27548,1.27548,0,0,1-.29123-.92691V344.80894a2.92017,2.92017,0,0,1,.29123-1.25141,1.77975,1.77975,0,0,1,.69124-.8422l10.47628-5.82031a10.23694,10.23694,0,0,1,6.14752-1.5809,5.73474,5.73474,0,0,1,4.2925,3.00522,15.55129,15.55129,0,0,1,1.7094,7.59394q.07252,3.1714.0731,4.31694,0,1.09007-.0731,4.22669a29.61383,29.61383,0,0,1-3.401,13.75911,21.8578,21.8578,0,0,1-8.56659,8.71588l-10.65816,5.92135A.52121.52121,0,0,1,244.95983,382.77821Zm11.16753-16.92629a5.07267,5.07267,0,0,0,2.05531-2.31767,9.68884,9.68884,0,0,0,.8547-3.94419q.07252-1.70193.07252-4.34068,0-2.69455-.07252-4.20295-.07338-2.25232-.9278-2.92486a1.84568,1.84568,0,0,0-2.16409.05553l-2.18251,1.21254V367.1655Z"/>
      <path class="l" d="M271.878,367.82327a1.27548,1.27548,0,0,1-.29123-.92691V329.854a2.92017,2.92017,0,0,1,.29123-1.25141,1.77975,1.77975,0,0,1,.69124-.8422l6.94755-3.85985a.52385.52385,0,0,1,.69124.07413,1.28532,1.28532,0,0,1,.29123.92782v11.3534l4.11005-13.92352a3.25877,3.25877,0,0,1,1.45558-2.06976l8.0388-4.46611a.4284.4284,0,0,1,.564.05861,1.05351,1.05351,0,0,1,.23655.75769,2.29892,2.29892,0,0,1-.10936.6913l-6.54753,20.95441,7.16568,15.05592a1.09954,1.09954,0,0,1,.10936.5707,2.376,2.376,0,0,1-.23655,1.01963,1.44785,1.44785,0,0,1-.56347.68593l-8.29377,4.60777a.956.956,0,0,1-.98248.11579,1.21331,1.21331,0,0,1-.50937-.60612l-4.43754-10.03481v12.27155a2.91459,2.91459,0,0,1-.29123,1.25051,1.78479,1.78479,0,0,1-.69124.84311l-6.94755,3.85985A.52121.52121,0,0,1,271.878,367.82327Z"/>
    </g>
    <g>
      <path class="a" d="M94.16257,265.07668l-4.41632-1.28735L13.44052,241.546a2.89966,2.89966,0,0,0-.81354-.12036,2.68319,2.68319,0,0,0-1.37506,4.93958L89.04337,296.112l10,6.3949,12.837,8.20917a30.00188,30.00188,0,0,0,11.625,4.3811l72.48584,11.093L99.04337,268.00594Z"/>
      <path class="a" d="M195.99124,431.4402V336.19069a10.04029,10.04029,0,0,1-1.51276-.1156l-72.48584-11.093a39.75438,39.75438,0,0,1-15.49976-5.84143l-7.44952-4.76392v59.79529Z"/>
      <path class="a" d="M191.99124,196.8221l-46.20349-59.422A12.14042,12.14042,0,0,0,136.478,133.109a12.62789,12.62789,0,0,0-6.19519,1.63306l-77.69714,40.6842a12.59218,12.59218,0,0,0-3.68445,19.01587L95.91495,250.0887Z"/>
      <path class="l" d="M202.31351,318.45064a10.00351,10.00351,0,0,1,3.67773,7.687v-1.42932C205.99124,322.01027,204.41306,320.035,202.31351,318.45064Z"/>
      <polygon class="l" points="200.236 317.075 200.233 317.073 200.243 317.079 200.236 317.075"/>
    </g>
    <g>
      <path class="a" d="M307.82867,265.07668l4.41632-1.28735L388.55072,241.546a2.89966,2.89966,0,0,1,.81354-.12036,2.68319,2.68319,0,0,1,1.37506,4.93958L312.94788,296.112l-10,6.3949-12.837,8.20917a30.00188,30.00188,0,0,1-11.625,4.3811L206,326.1902l96.94788-58.18427Z"/>
      <path class="a" d="M206,431.4402V336.19069a10.04029,10.04029,0,0,0,1.51276-.1156l72.48584-11.093a39.75438,39.75438,0,0,0,15.49976-5.84143l7.44952-4.76392v59.79529Z"/>
      <path class="a" d="M210,196.8221l46.20349-59.422a12.14042,12.14042,0,0,1,9.30975-4.29114,12.62789,12.62789,0,0,1,6.19519,1.63306l77.69714,40.6842A12.59218,12.59218,0,0,1,353.09,194.44209L306.07629,250.0887Z"/>
      <path class="l" d="M201.75854,323.63341c-2.33417,1.90491-5.74237-.44241-5.75854,2.50425v-1.42932C200.243,328.24234,199.659,325.21776,201.75854,323.63341Z"/>
      <polygon class="l" points="201.755 317.075 201.759 317.073 201.748 317.079 201.755 317.075"/>
    </g>
    <g class="m">
      <path class="n" d="M169.23044,360.133c-.21582.30554-.21021.91718.148,1.08179.49664.22711,1.22.09375,1.98651.47192.82275.41083.63055-.59186.48236-1.16858C171.10935,358.44112,169.381,359.91676,169.23044,360.133Zm-4.54065-12.75409a7.30066,7.30066,0,0,1-3.17462-.69849c-.62988-.32751-5.41815-2.97-9.20367-3.74768-1.59686-.16913-9.20929-.37006-5.05811,7.66418,1.69409,3.18091,4.45972,6.58649,8.91284,6.44873a10.07362,10.07362,0,0,0,3.02728-.50763c-1.87793-2.79474-4.20966-6.4137-5.994-9.26068a3.74377,3.74377,0,0,1,1.44708-.2915c-.23694-.50989-1.5238-3.01678-1.975-3.9422,1.538,1.29279,4.4458,5.02008,4.28619,5.70947a4.12011,4.12011,0,0,1-.718.02,33.19974,33.19974,0,0,1,2.9801,7.75458c3.213-1.13312,3.25409-3.6864,5.42029-3.33166,2.21344.53595,3.07117,3.541,5.64539,3.92645a5.5687,5.5687,0,0,0,1.52972-.06934c-1.332-2.20056-2.98041-5.05029-4.23712-7.28918a3.05751,3.05751,0,0,1,1.15112-.16534c-.15991-.397-1.04132-2.35382-1.348-3.0755,1.14105,1.0434,3.23236,3.99121,3.07166,4.5094a3.319,3.319,0,0,1-.56488-.01263,24.36891,24.36891,0,0,1,1.94281,6.03064,1.95621,1.95621,0,0,0,1.59973-1.30524,10.17133,10.17133,0,0,0-1.60193-8.68329C169.39731,344.3705,165.49234,347.25533,164.68979,347.37892Zm13.199,21.428c-1.97156-2.0462-.06989-4.37927-4.56543-7.683-.8797-.50732.81512,2.04059,1.04529,2.48621s1.59076,3.62793-.07086,3.65125c-1.35724.02466-7.3764-2.45447-11.89276,1.55182-1.34137,1.04877-1.44849.681-2.18427.47913a1.69454,1.69454,0,0,0-2.261,1.88171c1.48785.49744,3.348.97906,5.23761-.20209.64685-.40472,1.452-1.62848,3.03687-1.99182,3.04443-.69861,7.47021-.34729,8.68469.18188,1.84631.80475,4.04785,3.19244,1.90936,4.50934-5.30786,2.55-6.6474,12.9903-14.36432,11.124-3.55157-.77643-9.64728-3.7583-11.34192-12.48169-1.6369-8.30609,1.07636-8.85327,1.4588-10.65454-.2514-1.60132-9.53424-8.206-9.77655-15.87115.36047-3.99554,2.46014-5.63342,7.02026-5.56659,4.93.02,10.71857,5.24475,13.64343,5.593,1.19794-.21637,3.17993-3.63947,5.62994-1.51062-.22314-.19373,2.09607,2.53925,1.20569.00311-.9707-1.87726-3.23236-3.573-4.14911-4.35754-5.32526-3.19122-2.8241-8.08569-13.15387-11.20874-3.84943-1.64935-7.40887-4.76062-11.39783-5.64447-3.78058-.83813-6.94507.186-9.60645.9953-1.965.59772-3.8374.76245-4.54169,1.608.95459,1.37573,2.7207.55389,2.69879,1.45776-.01874.47668-2.90546.20624-5.76727,2.11194-1.39746.93115-1.89136,2.78918-2.73437,3.837-.72327.8988-1.47131,1.225-1.27875,1.85815.29626.74811,2.44519-.22968,3.00177.653.55646.883-2.00873,2.64813-2.81354,5.39459-.62195,5.81995-2.97052,5.72455-2.2395,6.712,1.06537.90149,2.67761.18243,2.9024.66022.22449.47784-1.93005,3.80548-2.09509,9.48248a26.2394,26.2394,0,0,0,1.85333,9.85016c.39215,1.55347,1.16388,3.31683.85754,4.56689-.112.6474-.83813,1.90887.16174,1.984.84448.03357,1.55469.54767,2.32117-.86023,1.08844.25739.95984,2.19769,3.08252,4.0097,1.952,1.66632,4.17139,2.36737,6.28723,4.264.42084.5105,2.64777,1.69849,2.84241-.3465.15-2.13043.1582-2.68628,1.18646-4.13428,4.25952-2.243,8.90869,3.43555,10.48254,3.88513,1.62061.463,2.15253-.80316,4.84558,1.41534.18463.17944.36664.33521.54938.49939a5.21789,5.21789,0,0,0-1.494.97937c-.8584-1.15381-4.37048-1.92718-4.52155-.88464-.91986-.18921-2.19666-2.18384-3.788-2.96716-1.9267-.948-4.02167-1.44641-5.0351-.96576.07935,1.278-.93085,3.33722-.5993,5.49719.41229,2.68585,1.43018,3.9646,2.16125,5.67383a10.13848,10.13848,0,0,0,5.21631.26422c1.162-.357,1.59143-1.37714,2.926-1.85706.1676.94061,4.28406,1.6601,4.27222.53119.807-.05212,1.87115,1.90979,3.35663,2.70721a11.2046,11.2046,0,0,0,4.14746.95435,11.37964,11.37964,0,0,0,.52911-6.20441c.39063.118.78748.23578,1.21558.35608,1.89056.41534,6.50238,2.0639,10.08276-3.3277,3.27026-6.22925,3.66907-5.33325,5.14191-6.531C179.11081,375.77236,182.05551,372.51589,177.88883,368.807Zm-40.73614-3.1499c-3.115-.57819-6.79932-4.02106-8.49292-7.91577a12.86385,12.86385,0,0,1-.80988-8.69373c1.31989-3.4823,2.93207-3.76416,5.79083-3.3927a6.48053,6.48053,0,0,1,5.48328,4.64343,8.33016,8.33016,0,0,1-.63794,6.52c-.89764,1.76544-2.68549-.181-2.0882-1.61884.60229-1.45026,1.44409-2.13831.39307-4.68524-.84308-2.00812-4.55371-2.56665-6.1026-.84766-3.49182,3.31787,1.41046,13.1488,3.95856,12.59686a10.32216,10.32216,0,0,1-3.01355-4.58411c-.75476-2.191-.98077-7.30725,2.34595-7.53674,1.02917-.19922,1.8905,1.07355,1.43152,1.5166-.89368.86377-3.71289,4.34961-1.67987,7.61542,1.1156,1.7005,2.64679,2.05151,2.98218,1.54334.18634-.394.19141-1.004.89117-1.18195,1.181-.25494,1.267,1.50513,2.50269.75891.28412-.335-.04633-1.00592-.23572-1.65686-.20026-.68866-.14392-1.64117,1.1358-1.38C142.73667,357.745,146.15994,367.534,137.15268,365.65706Zm4.87152,17.05261c-.87225-2.92651,3.61047,1.49506,5.16315,2.3927C144.79917,385.12605,142.37625,383.98854,142.0242,382.70967Zm7.36853,3.6701a1.62749,1.62749,0,0,1-1.07776-.43127,6.59709,6.59709,0,0,0-.46692-2.09094,1.7311,1.7311,0,0,1,1.41962,1.38A2.71842,2.71842,0,0,1,149.39273,386.37978Zm16.37244-27.04816c-1.191-.77075-2.64655-1.21-3.2514-.48718-.66833.855-.95911,2.49213.47607,2.75616,1.44006.26477,1.35291-.59674,2.67456-.31689,1.02563.19147,1.46246.1601,1.37787-.64606C166.85623,360.13979,166.63614,359.89577,165.76517,359.33162Z"/>
    </g>
    <path class="o" d="M387.2103,236.9402c-1,.66663-79.66669,21-79.66669,21l51.33331-63.33337.66669-14.66663-10.66669-12-82-39-14,4.16876L201.7482,198.4402l101.19965,55.26337v6.66357L201.75852,323.63338,99.04337,260.42305l-2.49976-4.81622,92-50.66663,13.20459-6.5L147.51731,133.109s-8.64038-6.16876-9.64038-6.16876-14,6.16876-14,6.16876l-80,41.16455L39.54361,186.9402l55,71.33331-83-21.33331c-1,.33331-7.33331,8.66663-7.33331,8.66663l110.66663,72.84381L200.2327,330.9402l87.64423-12.48956,107-68.36194V238.9402S388.2103,236.27352,387.2103,236.9402Z"/>
    <path class="l" d="M401.47342,240.58412a12.56623,12.56623,0,0,0-12.10846-9.15851h-.00122a12.9033,12.9033,0,0,0-3.61157.52L317.7479,251.76894l42.98084-50.87311a22.2099,22.2099,0,0,0,4.86981-18.34473,22.7645,22.7645,0,0,0-11.29211-15.84161q-.12991-.07306-.26208-.14227l-77.58484-40.62537a22.69454,22.69454,0,0,0-10.94659-2.83289h-.00018a22.12916,22.12916,0,0,0-16.948,7.8374q-.131.15518-.25568.31543l-46.20349,59.42206a9.99331,9.99331,0,0,0-1.10992,1.79468,9.99364,9.99364,0,0,0-1.11-1.79468L153.68216,131.2618q-.12469-.16031-.25568-.31543a22.12916,22.12916,0,0,0-16.948-7.8374h-.00018a22.69454,22.69454,0,0,0-10.94659,2.83289L47.94687,166.56722q-.13211.06921-.26208.14227A22.7645,22.7645,0,0,0,36.39267,182.5511a22.2099,22.2099,0,0,0,4.86981,18.34473l42.98083,50.87311L16.239,231.94557a12.9033,12.9033,0,0,0-3.61157-.52h-.00079a12.68245,12.68245,0,0,0-6.76227,23.36432l83.179,53.192v66.19012a9.99993,9.99993,0,0,0,4.91394,8.61l96.94794,57.26813c.25677.15173.5257.27142.79193.39832,1.99005,1.53979,5.45624,2.56244,9.40893,2.56244,4.19514,0,7.84577-1.15063,9.76069-2.85052.07184-.0401.14807-.06824.21918-.11023l96.94794-57.26813a9.99993,9.99993,0,0,0,4.91394-8.61V307.982l83.179-53.192A12.56306,12.56306,0,0,0,401.47342,240.58412Zm-145.27-103.184a12.14042,12.14042,0,0,1,9.30975-4.29114,12.62789,12.62789,0,0,1,6.19519,1.63306l77.69714,40.6842A12.59218,12.59218,0,0,1,353.09,194.44209L306.07627,250.0887,210,196.8221Zm-207.30225,57.042a12.59218,12.59218,0,0,1,3.68445-19.01587l77.69714-40.6842A12.62789,12.62789,0,0,1,136.478,133.109a12.14042,12.14042,0,0,1,9.30975,4.29114l46.20349,59.422L95.91495,250.0887Zm147.09,236.99811L99.04337,374.17207V314.37679l7.44952,4.76392a39.75438,39.75438,0,0,0,15.49976,5.84143l72.48584,11.093a10.04029,10.04029,0,0,0,1.51276.1156Zm-72.48584-116.343a30.00188,30.00188,0,0,1-11.625-4.3811l-12.837-8.20917-10-6.3949L11.25192,246.36525a2.68319,2.68319,0,0,1,1.37506-4.93958,2.89966,2.89966,0,0,1,.81354.12036l76.30573,22.24329,4.41632,1.28735,4.8808,2.92926,96.94788,58.18427ZM196,336.19081l-.00262.00012.00177-.00018Zm5.74823-19.11157-.75256.45166-.75262-.45166-.01031-.00616L102.02713,258.134,194.25864,206.999l6.785-3.68384,7.81372,4.3075L299.96408,258.134l-98.20557,58.93909Zm4.243,19.11157v-.00006l.00262.00018Zm96.9566,37.98126L206,431.4402V336.19069a10.04029,10.04029,0,0,0,1.51276-.1156l72.48584-11.093a39.75438,39.75438,0,0,0,15.49976-5.84143l7.44952-4.76392Zm87.79144-127.80682L312.94785,296.112l-10,6.3949-12.837,8.20917a30.00188,30.00188,0,0,1-11.625,4.3811L206,326.1902l96.94788-58.18427,4.8808-2.92926,4.41632-1.28735L388.55069,241.546a2.89966,2.89966,0,0,1,.81354-.12036A2.68319,2.68319,0,0,1,390.73929,246.36525Z"/>
    <g>
      <circle class="p" cx="148.51731" cy="142.8852" r="35.08438" transform="translate(-36.61861 52.34093) rotate(-17.83092)"/>
      <circle class="q" cx="148.51731" cy="142.8852" r="27.01861" transform="translate(-36.61861 52.34093) rotate(-17.83092)"/>
      <path d="M151.39017,159.86177a.89613.89613,0,0,1-.4834-.56641l-.81934-2.54687a13.56642,13.56642,0,0,1-5.07812.12793,7.93206,7.93206,0,0,1-3.69824-1.64062,6.82193,6.82193,0,0,1-2.0791-2.9043.74617.74617,0,0,1,.06152-.62207.84215.84215,0,0,1,.49316-.39941l4.83887-1.55664a1.576,1.576,0,0,1,.77441-.08887,2.70931,2.70931,0,0,1,.74609.32227q1.771,1.63916,4.791.667a6.60823,6.60823,0,0,0,2.84473-1.57715,1.92927,1.92927,0,0,0,.541-2.001,1.66993,1.66993,0,0,0-.96777-1.07324,5.3196,5.3196,0,0,0-2.02734-.31152,36.732,36.732,0,0,0-3.749.2627,15.81876,15.81876,0,0,1-7.43945-.53809,6.51286,6.51286,0,0,1-3.82227-4.3916,7.05566,7.05566,0,0,1,.502-5.68066,10.50179,10.50179,0,0,1,4.959-4.42578l-.81836-2.54687a.90128.90128,0,0,1,.06152-.74316.95446.95446,0,0,1,.55469-.459l3.165-1.01758a.91573.91573,0,0,1,1.20313.61621l.8418,2.61914a12.09175,12.09175,0,0,1,4.64551.21289,9.0278,9.0278,0,0,1,3.49316,1.68652,6.02132,6.02132,0,0,1,1.89551,2.46094.84478.84478,0,0,1-.03711.63477.74519.74519,0,0,1-.46973.41211l-5.09375,1.6377a1.41559,1.41559,0,0,1-1.44727-.25684,2.35326,2.35326,0,0,0-1.56055-.92285,4.68671,4.68671,0,0,0-2.4082.19238,4.53161,4.53161,0,0,0-2.18945,1.30664,1.88179,1.88179,0,0,0-.32129,1.86914,1.92517,1.92517,0,0,0,1.624,1.30469,17.29087,17.29087,0,0,0,4.43066-.08008,24.8732,24.8732,0,0,1,5.9541-.209,7.24033,7.24033,0,0,1,5.251,10.89648,12.07264,12.07264,0,0,1-5.48047,4.61328l.81934,2.54688a.91662.91662,0,0,1-.61719,1.20215l-3.166,1.01855A.94644.94644,0,0,1,151.39017,159.86177Z"/>
    </g>
    <g>
      <circle class="p" cx="279.33725" cy="52.85681" r="35.08437" transform="translate(31.93758 192.9159) rotate(-40.23023)"/>
      <circle class="q" cx="279.33725" cy="52.85681" r="27.01861" transform="translate(31.93758 192.9159) rotate(-40.23023)"/>
      <path d="M264.66409,62.05611a.89808.89808,0,0,1,.34082-.66309l2.042-1.72852A13.54444,13.54444,0,0,1,264.9932,55.02a7.949,7.949,0,0,1,.10742-4.0459,6.8303,6.8303,0,0,1,1.89355-3.02832.74018.74018,0,0,1,.59863-.17969.83919.83919,0,0,1,.55664.30371l3.2832,3.87988a1.57571,1.57571,0,0,1,.377.68359,2.66065,2.66065,0,0,1-.01367.81152q-.84082,2.26172,1.21,4.68457a6.60418,6.60418,0,0,0,2.542,2.02832,1.926,1.926,0,0,0,2.05566-.2627,1.66784,1.66784,0,0,0,.624-1.30371,5.33508,5.33508,0,0,0-.48437-1.99316q-.49658-1.207-1.67187-3.36621a15.81645,15.81645,0,0,1-2.33789-7.083,6.51415,6.51415,0,0,1,2.60352-5.20605,7.06268,7.06268,0,0,1,5.44434-1.70215,10.51023,10.51023,0,0,1,5.98145,2.89941l2.043-1.72754a.89707.89707,0,0,1,.71-.22559.95093.95093,0,0,1,.63574.33691l2.14844,2.53906a.94485.94485,0,0,1,.24023.69824.935.935,0,0,1-.35352.64941L291.08695,46.187a12.06374,12.06374,0,0,1,1.57227,4.375,9.00644,9.00644,0,0,1-.22754,3.87207,6.02209,6.02209,0,0,1-1.55371,2.69141.84008.84008,0,0,1-.59961.207.7451.7451,0,0,1-.56055-.27734l-3.45508-4.085a1.41558,1.41558,0,0,1-.31445-1.43652,2.35079,2.35079,0,0,0,.25781-1.79492,4.67877,4.67877,0,0,0-1.09375-2.15234,4.54326,4.54326,0,0,0-2.043-1.52637,1.88375,1.88375,0,0,0-1.85156.415,1.92519,1.92519,0,0,0-.58691,1.998,17.30884,17.30884,0,0,0,1.7627,4.06641,24.89142,24.89142,0,0,1,2.46289,5.42578,7.24165,7.24165,0,0,1-8.07422,9.00684,12.06771,12.06771,0,0,1-6.35352-3.30957l-2.043,1.72852a.91627.91627,0,0,1-1.3457-.11328l-2.14844-2.53906A.94852.94852,0,0,1,264.66409,62.05611Z"/>
    </g>
    <g>
      <circle class="p" cx="147.38816" cy="38.08854" r="35.08437" transform="translate(2.96538 86.21408) rotate(-32.91902)"/>
      <circle class="q" cx="147.38816" cy="38.08854" r="27.01861" transform="translate(2.96538 86.21408) rotate(-32.91902)"/>
      <path d="M131.68021,45.29634a.89757.89757,0,0,1,.42188-.61426l2.24561-1.4541a13.53044,13.53044,0,0,1-1.44482-4.86914,7.92433,7.92433,0,0,1,.62061-3.998,6.82629,6.82629,0,0,1,2.26318-2.76367.74829.74829,0,0,1,.6167-.10352.85063.85063,0,0,1,.51367.373l2.76221,4.26758a1.56573,1.56573,0,0,1,.2876.72461,2.71238,2.71238,0,0,1-.1167.80469q-1.12207,2.13574.60352,4.79883a6.61831,6.61831,0,0,0,2.2627,2.33594,1.92887,1.92887,0,0,0,2.07275.002,1.67242,1.67242,0,0,0,.78516-1.21484,5.3227,5.3227,0,0,0-.22754-2.03711,37.04,37.04,0,0,0-1.229-3.55273,15.80238,15.80238,0,0,1-1.41748-7.32227,6.513,6.513,0,0,1,3.24512-4.833,7.05861,7.05861,0,0,1,5.61572-.99512,10.49866,10.49866,0,0,1,5.564,3.63672l2.24609-1.45312a.90192.90192,0,0,1,.73291-.13477.95377.95377,0,0,1,.58789.417l1.80713,2.791a.91664.91664,0,0,1-.28223,1.32129l-2.31006,1.49512a12.0818,12.0818,0,0,1,1.00391,4.54,9.02354,9.02354,0,0,1-.71924,3.8125,6.026,6.026,0,0,1-1.88232,2.4707.84117.84117,0,0,1-.623.12891.74027.74027,0,0,1-.51953-.3457l-2.90771-4.49219a1.41428,1.41428,0,0,1-.12842-1.46387,2.35844,2.35844,0,0,0,.48486-1.748,4.69273,4.69273,0,0,0-.8125-2.27441,4.53536,4.53536,0,0,0-1.83154-1.77344,1.88122,1.88122,0,0,0-1.88916.17578,1.926,1.926,0,0,0-.83643,1.90723,17.24413,17.24413,0,0,0,1.231,4.25684,24.8925,24.8925,0,0,1,1.75146,5.69531,7.06457,7.06457,0,0,1-.41406,4.002,7.736,7.736,0,0,1-8.73975,3.9043,12.071,12.071,0,0,1-5.88086-4.09082l-2.24561,1.4541a.91831.91831,0,0,1-1.32178-.2832l-1.80713-2.791A.95137.95137,0,0,1,131.68021,45.29634Z"/>
    </g>
    <g>
      <path class="r" d="M244.3013,142.73438l12.84678,2.70134s22.90995-.84946,29.47361-26.617-8.4043-37.16192-8.4043-37.16192l-11.92371-5.56657s15.26433,14.996,7.328,38.72848S244.3013,142.73438,244.3013,142.73438Z"/>
      <path class="s" d="M270.16942,77.27888c-2.18817-.65436-10.69073-3.30939-13-4-14.63806-4.37756-31.005,7.123-36.5567,25.68732s1.81427,37.16229,16.45227,41.53986c2.18817.65436,10.69073,3.30939,13,4,14.63806,4.3775,31.005-7.123,36.5567-25.68732S284.80742,81.65645,270.16942,77.27888Z"/>
      <ellipse class="t" cx="247.1172" cy="106.89246" rx="35.08447" ry="27.66429" transform="translate(73.90304 313.02291) rotate(-73.35049)"/>
      <ellipse class="q" cx="246.68176" cy="106.65223" rx="28.34694" ry="21.44134" transform="translate(73.8222 312.43406) rotate(-73.3504)"/>
      <path class="u" d="M240.37041,122.709a1.02154,1.02154,0,0,1-.02051-.72363l.7666-2.56348a9.07569,9.07569,0,0,1-3.27-2.47363,7.07218,7.07218,0,0,1-1.5083-3.26367,8.16115,8.16115,0,0,1,.15088-3.50488.85418.85418,0,0,1,.35205-.49268.59529.59529,0,0,1,.5127-.08594l3.84082,1.14893a1.01922,1.01922,0,0,1,.53369.31885,2.40461,2.40461,0,0,1,.30859.65039,3.42945,3.42945,0,0,0,2.68848,2.99854,4.30754,4.30754,0,0,0,2.5918.1167,2.01406,2.01406,0,0,0,1.34961-1.41162,1.89356,1.89356,0,0,0-.06934-1.39746,3.96,3.96,0,0,0-1.123-1.29248,24.37284,24.37284,0,0,0-2.5-1.68555,11.21456,11.21456,0,0,1-4.42578-4.23486,7.39036,7.39036,0,0,1-.2002-5.64453,8.08143,8.08143,0,0,1,3.18066-4.53418,7.61848,7.61848,0,0,1,5.36182-1.208l.76611-2.56348a1.028,1.028,0,0,1,.415-.59473.67659.67659,0,0,1,.58154-.105l2.51172.751a.6642.6642,0,0,1,.44287.41162,1.08366,1.08366,0,0,1,.00488.71973l-.78809,2.63672a8.40447,8.40447,0,0,1,2.82666,2.541,8.24044,8.24044,0,0,1,1.35547,3.19727,7.12558,7.12558,0,0,1-.04443,3.03809.97709.97709,0,0,1-.34277.51611.5409.5409,0,0,1-.50488.10791l-4.042-1.2085a1.08059,1.08059,0,0,1-.78418-.95264,2.265,2.265,0,0,0-.52051-1.57178,3.08792,3.08792,0,0,0-1.6167-1.062,2.98989,2.98989,0,0,0-2.041-.01172,2.05755,2.05755,0,0,0-1.145,1.41211,2.00413,2.00413,0,0,0,.36719,1.9248,11.62031,11.62031,0,0,0,2.83789,2.18555,16.5681,16.5681,0,0,1,3.86475,2.85156,6.0793,6.0793,0,0,1,1.64551,3.124,8.64324,8.64324,0,0,1-.37256,3.97754,8.01049,8.01049,0,0,1-3.44873,4.75293,8.61079,8.61079,0,0,1-5.78711,1.10156l-.7666,2.5625a1.084,1.084,0,0,1-.39941.59863.66048.66048,0,0,1-.59619.10107l-2.51172-.751A.67257.67257,0,0,1,240.37041,122.709Z"/>
      <line class="v" x1="272.46579" y1="118.12615" x2="284.96378" y2="123.41226"/>
      <line class="v" x1="275.1125" y1="110.13302" x2="287.61049" y2="115.41913"/>
      <line class="v" x1="275.57877" y1="102.13989" x2="288.07676" y2="107.42601"/>
      <line class="v" x1="275.1125" y1="94.22373" x2="287.61049" y2="99.50985"/>
      <line class="v" x1="271.9684" y1="86.30757" x2="284.46638" y2="91.59369"/>
      <line class="v" x1="268.93494" y1="125.64425" x2="280.0973" y2="130.36545"/>
      <line class="v" x1="263.73985" y1="131.99206" x2="274.90222" y2="136.71327"/>
      <line class="v" x1="257.84828" y1="137.13018" x2="269.01065" y2="141.85139"/>
    </g>
    <g>
      <path class="r" d="M337.749,74.25062l-9.02885,9.52979s-11.27368,19.96225,7.24094,39.04774,36.06,12.301,36.06,12.301l10.9864-7.243s-20.7689,5.15095-36.831-14.03825S337.749,74.25062,337.749,74.25062Z"/>
      <path class="s" d="M379.96531,130.56551c1.70335-1.52147,8.41779-7.3746,10.21544-8.98025,11.3949-10.178,10.16826-30.1439-2.73971-44.59512s-32.60934-17.91532-44.00421-7.73735c-1.70335,1.52147-8.41779,7.3746-10.21544,8.98025-11.39485,10.17805-10.16826,30.1439,2.73971,44.59512S368.57044,140.74348,379.96531,130.56551Z"/>
      <ellipse class="t" cx="366.8088" cy="95.41903" rx="27.66429" ry="35.08447" transform="translate(29.67544 268.60849) rotate(-41.77146)"/>
      <ellipse class="q" cx="367.24149" cy="95.17387" rx="21.44134" ry="28.34694" transform="translate(29.94848 268.83388) rotate(-41.77137)"/>
      <path class="u" d="M376.9935,108.57683a1.02154,1.02154,0,0,1-.62722-.36148l-1.78242-1.99551a9.07568,9.07568,0,0,1-3.81976,1.49041,7.07218,7.07218,0,0,1-3.57024-.42415,8.16115,8.16115,0,0,1-2.90686-1.964.85418.85418,0,0,1-.23536-.55792.59529.59529,0,0,1,.19527-.48178l2.99013-2.6704a1.01922,1.01922,0,0,1,.55111-.28769,2.40461,2.40461,0,0,1,.71568.0777,3.42945,3.42945,0,0,0,3.96239-.72011,4.30754,4.30754,0,0,0,1.45668-2.14689,2.01406,2.01406,0,0,0-.49583-1.889,1.89356,1.89356,0,0,0-1.22683-.67275,3.96,3.96,0,0,0-1.6892.27991,24.37283,24.37283,0,0,0-2.74513,1.24712,11.21456,11.21456,0,0,1-5.92543,1.55272,7.39036,7.39036,0,0,1-4.91352-2.78534,8.08143,8.08143,0,0,1-2.19712-5.0841,7.61848,7.61848,0,0,1,1.77872-5.20043l-1.78268-1.99509a1.028,1.028,0,0,1-.28931-.665.67659.67659,0,0,1,.2151-.5504l1.95509-1.74651a.6642.6642,0,0,1,.58259-.16173,1.08366,1.08366,0,0,1,.61571.37274l1.83357,2.05217a8.40447,8.40447,0,0,1,3.645-1.07742,8.24044,8.24044,0,0,1,3.43363.51958,7.12558,7.12558,0,0,1,2.56493,1.62882.97709.97709,0,0,1,.26019.56229.5409.5409,0,0,1-.17246.48663l-3.14623,2.81059a1.08059,1.08059,0,0,1-1.22222.16919,2.265,2.265,0,0,0-1.6116-.37967,3.08792,3.08792,0,0,0-1.75137.82115,2.98989,2.98989,0,0,0-1.07881,1.73264,2.05755,2.05755,0,0,0,.60339,1.71495,2.00413,2.00413,0,0,0,1.83206.69516,11.62031,11.62031,0,0,0,3.348-1.27314,16.5681,16.5681,0,0,1,4.45317-1.79916,6.0793,6.0793,0,0,1,3.52312.23413,8.64324,8.64324,0,0,1,3.19344,2.40032,8.01049,8.01049,0,0,1,2.2431,5.427,8.61079,8.61079,0,0,1-2.09212,5.507l1.78159,1.995a1.084,1.084,0,0,1,.30082.65376.66048.66048,0,0,1-.2261.56084l-1.95509,1.74651A.67256.67256,0,0,1,376.9935,108.57683Z"/>
      <line class="v" x1="343.96421" y1="111.13118" x2="332.916" y2="119.01025"/>
      <line class="v" x1="349.38769" y1="117.57176" x2="338.33948" y2="125.45082"/>
      <line class="v" x1="355.95302" y1="122.15477" x2="344.90481" y2="130.03384"/>
      <line class="v" x1="362.94111" y1="125.90304" x2="351.8929" y2="133.7821"/>
      <line class="v" x1="371.33152" y1="127.37" x2="360.28331" y2="135.24907"/>
      <line class="v" x1="339.40842" y1="104.18614" x2="329.5409" y2="111.2232"/>
      <line class="v" x1="336.72113" y1="96.43617" x2="326.85361" y2="103.47322"/>
      <line class="v" x1="335.42914" y1="88.72633" x2="325.56161" y2="95.76338"/>
    </g>
    <g>
      <path class="r" d="M285.07221,244.34951,292.853,233.7761s8.7179-21.20344-12.01529-37.85222-37.30467-7.74609-37.30467-7.74609l-10.00612,8.54629s19.97226-7.68037,38.28459,9.37468S285.07221,244.34951,285.07221,244.34951Z"/>
      <path class="s" d="M236.21433,193.689c-1.50207,1.72048-7.441,8.35919-9.02619,10.17487-10.04844,11.50933-6.36157,31.17016,8.2348,43.91377s34.57492,13.74417,44.62334,2.23489c1.50207-1.72048,7.441-8.35919,9.02619-10.17487,10.04838-11.50936,6.36157-31.17016-8.2348-43.91377S246.26275,182.17971,236.21433,193.689Z"/>
      <ellipse class="t" cx="253.6172" cy="226.93818" rx="27.66429" ry="35.08447" transform="translate(-84.13374 268.73439) rotate(-48.87678)"/>
      <ellipse class="q" cx="253.21816" cy="227.23498" rx="21.44134" ry="28.34694" transform="translate(-84.49398 268.53486) rotate(-48.87669)"/>
      <path class="u" d="M265.21761,239.63119a1.02154,1.02154,0,0,1-.66711-.28112l-2.01557-1.75971a9.07569,9.07569,0,0,1-3.60607,1.95145,7.07218,7.07218,0,0,1-3.59529.02072,8.16115,8.16115,0,0,1-3.12747-1.58931.85418.85418,0,0,1-.30256-.52452.59529.59529,0,0,1,.13418-.50223l2.63685-3.01976a1.01922,1.01922,0,0,1,.51129-.35365,2.40461,2.40461,0,0,1,.7198-.01143,3.42945,3.42945,0,0,0,3.84289-1.2047,4.30754,4.30754,0,0,0,1.17993-2.31058,2.01406,2.01406,0,0,0-.72568-1.81315,1.89356,1.89356,0,0,0-1.30063-.51583,3.96,3.96,0,0,0-1.6416.4867,24.37283,24.37283,0,0,0-2.56979,1.5771,11.21456,11.21456,0,0,1-5.68786,2.27373,7.39036,7.39036,0,0,1-5.22031-2.15618,8.08143,8.08143,0,0,1-2.80912-4.77329,7.61847,7.61847,0,0,1,1.1218-5.38051l-2.01577-1.75927a1.028,1.028,0,0,1-.36935-.62413.67659.67659,0,0,1,.14537-.57278l1.724-1.97493a.6642.6642,0,0,1,.55811-.23256,1.08366,1.08366,0,0,1,.65708.29372l2.07333,1.80961a8.40447,8.40447,0,0,1,3.48373-1.52,8.24044,8.24044,0,0,1,3.47153.09087,7.12558,7.12558,0,0,1,2.74671,1.299.97709.97709,0,0,1,.32774.52579.5409.5409,0,0,1-.11095.50422l-2.77441,3.17817a1.08059,1.08059,0,0,1-1.19191.31907,2.265,2.265,0,0,0-1.64619-.17741,3.08792,3.08792,0,0,0-1.63635,1.03148,2.98989,2.98989,0,0,0-.85621,1.85278,2.05755,2.05755,0,0,0,.81088,1.62714,2.00413,2.00413,0,0,0,1.904.4632,11.62031,11.62031,0,0,0,3.16485-1.67749,16.5681,16.5681,0,0,1,4.19642-2.33617,6.0793,6.0793,0,0,1,3.525-.20345,8.64324,8.64324,0,0,1,3.46582,1.98688,8.01049,8.01049,0,0,1,2.89716,5.10789,8.61079,8.61079,0,0,1-1.39487,5.7235l2.01468,1.7593a1.084,1.084,0,0,1,.37938.61153.66048.66048,0,0,1-.155.5845l-1.724,1.97493A.67257.67257,0,0,1,265.21761,239.63119Z"/>
      <line class="v" x1="274.34286" y1="208.52096" x2="284.33164" y2="199.33581"/>
      <line class="v" x1="268.16437" y1="202.8007" x2="278.15315" y2="193.61554"/>
      <line class="v" x1="261.08258" y1="199.06497" x2="271.07135" y2="189.87981"/>
      <line class="v" x1="253.68451" y1="196.20987" x2="263.67329" y2="187.02471"/>
      <line class="v" x1="245.17708" y1="195.79201" x2="255.16586" y2="186.60686"/>
      <line class="v" x1="279.72272" y1="214.84914" x2="288.64403" y2="206.64558"/>
      <line class="v" x1="283.348" y1="222.2072" x2="292.26931" y2="214.00364"/>
      <line class="v" x1="285.58373" y1="229.69802" x2="294.50504" y2="221.49445"/>
    </g>
    <g>
      <path class="r" d="M76.58241,128.17548l7.78074-10.57342S93.081,96.39863,72.34786,79.74985s-37.30467-7.74609-37.30467-7.74609L25.03707,80.55s19.97226-7.68037,38.28459,9.37468S76.58241,128.17548,76.58241,128.17548Z"/>
      <path class="s" d="M27.72453,77.515c-1.50207,1.72048-7.441,8.35919-9.02619,10.17487C8.6499,99.19916,12.33677,118.86,26.93313,131.60359s34.57492,13.74417,44.62334,2.23489c1.50207-1.72048,7.441-8.35919,9.02619-10.17487,10.04838-11.50936,6.36157-31.17016-8.2348-43.91377S37.77294,66.00568,27.72453,77.515Z"/>
      <ellipse class="t" cx="45.12739" cy="110.76415" rx="27.66429" ry="35.08447" transform="translate(-67.99031 71.91104) rotate(-48.87678)"/>
      <ellipse class="q" cx="44.72835" cy="111.06095" rx="21.44134" ry="28.34694" transform="translate(-68.35042 71.71187) rotate(-48.87669)"/>
      <path class="u" d="M56.7278,123.45716a1.02154,1.02154,0,0,1-.66711-.28112l-2.01557-1.75971a9.07569,9.07569,0,0,1-3.60607,1.95145,7.07218,7.07218,0,0,1-3.59529.02072,8.16115,8.16115,0,0,1-3.12747-1.58931.85418.85418,0,0,1-.30256-.52452.59529.59529,0,0,1,.13418-.50223l2.63685-3.01976a1.01922,1.01922,0,0,1,.5113-.35365,2.40461,2.40461,0,0,1,.7198-.01143,3.42945,3.42945,0,0,0,3.84289-1.2047,4.30754,4.30754,0,0,0,1.17993-2.31058,2.01406,2.01406,0,0,0-.72568-1.81315,1.89356,1.89356,0,0,0-1.30063-.51583,3.96,3.96,0,0,0-1.6416.4867,24.37283,24.37283,0,0,0-2.56979,1.5771,11.21456,11.21456,0,0,1-5.68786,2.27373,7.39036,7.39036,0,0,1-5.22031-2.15618,8.08143,8.08143,0,0,1-2.80912-4.77329,7.61848,7.61848,0,0,1,1.1218-5.38051l-2.01577-1.75927a1.028,1.028,0,0,1-.36935-.62413.67659.67659,0,0,1,.14537-.57278l1.724-1.97493a.6642.6642,0,0,1,.55811-.23256,1.08366,1.08366,0,0,1,.65708.29372l2.07333,1.80961a8.40447,8.40447,0,0,1,3.48373-1.52,8.24044,8.24044,0,0,1,3.47153.09087,7.12558,7.12558,0,0,1,2.74671,1.299.97709.97709,0,0,1,.32774.52579.5409.5409,0,0,1-.11095.50422l-2.77441,3.17817a1.08059,1.08059,0,0,1-1.19191.31907,2.265,2.265,0,0,0-1.64619-.17741,3.08792,3.08792,0,0,0-1.63635,1.03148,2.98989,2.98989,0,0,0-.85621,1.85278,2.05755,2.05755,0,0,0,.81088,1.62714,2.00413,2.00413,0,0,0,1.904.4632,11.62031,11.62031,0,0,0,3.16485-1.67749,16.5681,16.5681,0,0,1,4.19642-2.33617,6.07929,6.07929,0,0,1,3.525-.20345,8.64324,8.64324,0,0,1,3.46582,1.98688,8.01049,8.01049,0,0,1,2.89716,5.10789,8.61079,8.61079,0,0,1-1.39487,5.7235l2.01468,1.7593a1.084,1.084,0,0,1,.37938.61153.66048.66048,0,0,1-.155.5845l-1.724,1.97493A.67257.67257,0,0,1,56.7278,123.45716Z"/>
      <line class="v" x1="65.85306" y1="92.34693" x2="75.84183" y2="83.16178"/>
      <line class="v" x1="59.67457" y1="86.62667" x2="69.66334" y2="77.44152"/>
      <line class="v" x1="52.59277" y1="82.89094" x2="62.58155" y2="73.70579"/>
      <line class="v" x1="45.19471" y1="80.03584" x2="55.18348" y2="70.85069"/>
      <line class="v" x1="36.68727" y1="79.61798" x2="46.67605" y2="70.43283"/>
      <line class="v" x1="71.23292" y1="98.67511" x2="80.15423" y2="90.47155"/>
      <line class="v" x1="74.85819" y1="106.03317" x2="83.7795" y2="97.82961"/>
      <line class="v" x1="77.09392" y1="113.52399" x2="86.01523" y2="105.32043"/>
    </g>
    <g class="w">
      <g>
        <path class="r" d="M146.75516,256.22087l-9.02885,9.52979s-11.27368,19.96225,7.24094,39.04774,36.06,12.301,36.06,12.301l10.9864-7.243s-20.7689,5.15095-36.831-14.03825S146.75516,256.22087,146.75516,256.22087Z"/>
        <path class="s" d="M188.97145,312.53576c1.70335-1.52147,8.41779-7.3746,10.21544-8.98025,11.3949-10.178,10.16826-30.1439-2.73971-44.59512S163.83785,241.04507,152.443,251.223c-1.70335,1.52147-8.41779,7.3746-10.21544,8.98025-11.39485,10.17805-10.16826,30.1439,2.73971,44.59512S177.57658,322.71373,188.97145,312.53576Z"/>
        <ellipse class="t" cx="175.81494" cy="277.38928" rx="27.66429" ry="35.08447" transform="translate(-140.09517 187.63122) rotate(-41.77146)"/>
        <ellipse class="q" cx="176.24763" cy="277.14412" rx="21.44134" ry="28.34694" transform="translate(-139.82172 187.85664) rotate(-41.77137)"/>
        <path class="u" d="M185.99964,290.54707a1.02154,1.02154,0,0,1-.62722-.36148L183.59,288.19009a9.07569,9.07569,0,0,1-3.81976,1.49041,7.07218,7.07218,0,0,1-3.57024-.42415,8.16115,8.16115,0,0,1-2.90686-1.964.85418.85418,0,0,1-.23536-.55792.59529.59529,0,0,1,.19527-.48178l2.99013-2.6704a1.01922,1.01922,0,0,1,.55111-.28769,2.40462,2.40462,0,0,1,.71568.0777,3.42945,3.42945,0,0,0,3.96239-.72011,4.30754,4.30754,0,0,0,1.45668-2.14689,2.01406,2.01406,0,0,0-.49583-1.889,1.89356,1.89356,0,0,0-1.22683-.67275,3.96,3.96,0,0,0-1.6892.27991,24.37283,24.37283,0,0,0-2.74513,1.24712,11.21456,11.21456,0,0,1-5.92543,1.55272,7.39036,7.39036,0,0,1-4.91352-2.78535,8.08143,8.08143,0,0,1-2.19712-5.0841,7.61848,7.61848,0,0,1,1.77872-5.20043l-1.78268-1.99509a1.028,1.028,0,0,1-.28931-.665.67659.67659,0,0,1,.2151-.5504l1.95509-1.74651a.6642.6642,0,0,1,.58259-.16173,1.08366,1.08366,0,0,1,.61571.37274l1.83357,2.05217a8.40447,8.40447,0,0,1,3.645-1.07742,8.24044,8.24044,0,0,1,3.43363.51958,7.12558,7.12558,0,0,1,2.56493,1.62882.97709.97709,0,0,1,.26018.56229.5409.5409,0,0,1-.17246.48663l-3.14623,2.81059a1.08059,1.08059,0,0,1-1.22222.16919,2.265,2.265,0,0,0-1.6116-.37967,3.08792,3.08792,0,0,0-1.75137.82115,2.98989,2.98989,0,0,0-1.07881,1.73264,2.05755,2.05755,0,0,0,.60339,1.71495,2.00413,2.00413,0,0,0,1.83206.69516,11.62031,11.62031,0,0,0,3.348-1.27314,16.56809,16.56809,0,0,1,4.45317-1.79916,6.0793,6.0793,0,0,1,3.52312.23413,8.64324,8.64324,0,0,1,3.19344,2.40032,8.01049,8.01049,0,0,1,2.2431,5.427,8.61079,8.61079,0,0,1-2.09212,5.507l1.78159,1.995a1.084,1.084,0,0,1,.30082.65376.66048.66048,0,0,1-.2261.56084l-1.95509,1.74651A.67257.67257,0,0,1,185.99964,290.54707Z"/>
        <line class="v" x1="152.97035" y1="293.10143" x2="141.92214" y2="300.98049"/>
        <line class="v" x1="158.39384" y1="299.542" x2="147.34562" y2="307.42107"/>
        <line class="v" x1="164.95916" y1="304.12502" x2="153.91095" y2="312.00408"/>
        <line class="v" x1="171.94725" y1="307.87329" x2="160.89904" y2="315.75235"/>
        <line class="v" x1="180.33767" y1="309.34025" x2="169.28945" y2="317.21932"/>
        <line class="v" x1="148.41456" y1="286.15639" x2="138.54704" y2="293.19345"/>
        <line class="v" x1="145.72727" y1="278.40641" x2="135.85975" y2="285.44347"/>
        <line class="v" x1="144.43528" y1="270.69658" x2="134.56775" y2="277.73363"/>
      </g>
    </g>
  </g>
</svg>
