<svg xmlns="http://www.w3.org/2000/svg" viewBox="0 0 136.0092 125.77344">
  <defs>
    <style>
      .a {
        fill: #f4dbb3;
      }

      .b {
        fill: #1c9df3;
        stroke: #fff;
        stroke-miterlimit: 10;
        stroke-width: 4px;
      }

      .c {
        fill: #fff;
      }

      .d {
        fill: #3f3680;
      }
    </style>
  </defs>
  <title>Money</title>
  <g>
    <path class="a" d="M29.67188,125.77344A29.67668,29.67668,0,0,1,3.97852,81.25391L42.30274,14.84424a29.66458,29.66458,0,0,1,51.39258.00244l38.32422,66.41113A29.67943,29.67943,0,0,1,106.334,125.77344Z"/>
    <path class="b" d="M84.44467,21.32646l37.00487,64.12329a19.00078,19.00078,0,0,1-16.44606,28.49988H30.99373A18.99821,18.99821,0,0,1,14.54684,85.44975L51.55172,21.32646a18.98614,18.98614,0,0,1,32.893,0Z"/>
    <g>
      <path class="c" d="M77.49481,38.12975c3.03812,3.29879,31.47758,17.73862,36.50526,18.25263V68.90584L48.50534,107.91923,12.00008,85.84106V72.47691C23.07153,69.5227,70.7915,43.84306,77.49481,38.12975Z"/>
      <path class="d" d="M77.49481,38.12975l36.50526,18.25263L48.50534,93.96133,12.00008,72.48765Z"/>
      <g>
        <path class="c" d="M29.07593,63.484l36.2352,21.04445L60.322,87.35705,23.88766,66.2057Z"/>
        <path class="c" d="M69.42242,42.36445l36.40031,18.92073-5.2349,3.021L63.85731,45.28386Z"/>
        <path class="c" d="M74.37254,61.10016a7.7305,7.7305,0,0,0-3.87493-1.33674,13.12378,13.12378,0,0,0-3.95867.3221A41.6516,41.6516,0,0,0,62.24421,61.418a26.09061,26.09061,0,0,1-2.82379.88257,1.8435,1.8435,0,0,1-1.43874-.12347q-1.03826-.69682,1.3056-1.96377a19.72039,19.72039,0,0,1,6.24992-1.89076L63.33292,54.628a23.37945,23.37945,0,0,0-6.59779,1.90686l-2.52531-1.69535L50.57755,56.8022l2.57362,1.72756q-2.66381,1.92619-2.81305,3.80728a3.5818,3.5818,0,0,0,1.92511,3.279,7.84964,7.84964,0,0,0,3.87385,1.35177,12.88438,12.88438,0,0,0,3.93183-.29419q1.851-.44344,4.33875-1.3013a27.2543,27.2543,0,0,1,2.89894-.87935,1.91543,1.91543,0,0,1,1.48705.13958.46384.46384,0,0,1,.13206.74406,5.06343,5.06343,0,0,1-1.57939,1.12414,17.78781,17.78781,0,0,1-3.47659,1.37,24.67909,24.67909,0,0,1-3.98229.82244l2.10227,3.78152a22.2381,22.2381,0,0,0,4.03275-.83533,27.7156,27.7156,0,0,0,4.2389-1.63308l2.50169,1.67925,3.63228-1.9627-2.61979-1.75762q2.41257-1.87572,2.49631-3.70743a3.585,3.585,0,0,0-1.89934-3.162h0Z"/>
      </g>
    </g>
    <path class="c" d="M10.98829,72.8916"/>
  </g>
</svg>
