<svg xmlns="http://www.w3.org/2000/svg" viewBox="0 0 124 124">
  <defs>
    <style>
      .a {
        fill: #f4dbb3;
      }

      .b {
        fill: #1c9df3;
        stroke: #fff;
        stroke-width: 4px;
      }

      .c {
        fill: #fff;
      }

      .d {
        fill: #3f3680;
      }
    </style>
  </defs>
  <title>Online</title>
  <g>
    <path class="a" d="M61.95117,124a62.02393,62.02393,0,1,1,.0498,0Z"/>
    <path class="b" d="M112,62.03953a50.00377,50.00377,0,1,1,0-.03871Zm0,0a50.00377,50.00377,0,1,1,0-.03871Z"/>
    <path class="c" d="M85.37012,67.23045A14.21441,14.21441,0,0,0,73.68469,53.54424a13.61556,13.61556,0,0,0-12.08411-19.9173q-.28857,0-.58008.01221A13.4688,13.4688,0,0,0,49.67224,53.687,14.235,14.235,0,0,0,38.62891,67.31737v4.2002C38.62891,81.914,47.374,90.373,58.123,90.373h7.75488c10.749,0,19.49316-8.459,19.49316-18.85547Z"/>
    <g>
      <path class="d" d="M61.998,56.89683a9.639,9.639,0,1,0-10.044-9.63A9.844,9.844,0,0,0,61.998,56.89683Z"/>
      <path class="d" d="M72.067,57.35483a14.07,14.07,0,0,1-19.89652.24149h0q-.1222-.11927-.24148-.24148a10.226,10.226,0,0,0-9.3,9.963v4.2c0,8.17,6.972,14.855,15.494,14.855h7.755c8.521,0,15.493-6.685,15.493-14.855v-4.2a10.226,10.226,0,0,0-9.302-9.963Z"/>
    </g>
  </g>
</svg>
