<svg xmlns="http://www.w3.org/2000/svg" viewBox="0 0 118 118">
  <defs>
    <style>
      .a {
        fill: #f4dbb3;
      }

      .b {
        fill: #1c9df3;
        stroke: #fff;
        stroke-width: 4px;
      }

      .c {
        fill: #fff;
      }

      .d {
        fill: #3f3680;
      }
    </style>
  </defs>
  <title>Percent</title>
  <g>
    <rect class="a" width="118" height="118"/>
    <rect class="b" x="12" y="12" width="94" height="94"/>
    <g>
      <path class="c" d="M54.60156,37.07471l.001-.001c-2.01953-2.42041-5.7793-5.30566-12.22559-5.30664-4.85449,0-16.146,1.80566-16.146,18.53174,0,5.59814,1.36572,10.084,4.1123,13.39453a15.08284,15.08284,0,0,0,11.46289,5.27246h.00049q.353,0,.707-.0166c6.43164-.03906,10.14014-2.84473,12.123-5.20215,2.687-3.19531,4.04883-7.71973,4.04834-13.44824C58.68506,44.7749,57.311,40.32568,54.60156,37.07471Z"/>
      <path class="c" d="M87.68555,54.36768l-.002.001C85.665,51.94824,81.90625,49.06494,75.46094,49.064c-4.85449,0-16.14551,1.80566-16.14551,18.53174,0,5.57422,1.36426,10.0498,4.1123,13.36719a15.08022,15.08022,0,0,0,11.46,5.27051h.001q.35449,0,.71-.0166c6.43262-.04,10.14063-2.8457,12.12109-5.20117,2.6875-3.19531,4.0498-7.71094,4.04883-13.41895C91.76855,62.07129,90.39453,57.62012,87.68555,54.36768Z"/>
      <polygon class="c" points="65.341 32.393 33.088 85.683 52.529 85.683 84.784 32.393 65.341 32.393"/>
    </g>
    <path class="d" d="M40.101,44.77688a2.458,2.458,0,0,1,2.342-1.821q3.1,0,3.1,7.4,0,7.462-3.1,7.462a2.464,2.464,0,0,1-2.342-1.848,16.272,16.272,0,0,1-.727-5.611A16.008,16.008,0,0,1,40.101,44.77688Zm10.662-4.5q-2.927-3.509-8.386-3.51-11.146,0-11.146,13.532,0,6.633,2.908,10.141a10.1,10.1,0,0,0,8.239,3.509q5.556,0,8.432-3.42t2.875-10.23q0-6.514-2.924-10.023Zm17.396-2.884-26.2,43.29h7.752l26.202-43.29Zm5.024,24.68a2.458,2.458,0,0,1,2.342-1.821q3.1,0,3.1,7.4,0,7.462-3.1,7.462a2.464,2.464,0,0,1-2.342-1.85,16.272,16.272,0,0,1-.727-5.611,16.008,16.008,0,0,1,.727-5.584Zm10.662-4.5q-2.924-3.508-8.384-3.509-11.146,0-11.146,13.532,0,6.6,2.908,10.112a10.1,10.1,0,0,0,8.239,3.509q5.556,0,8.432-3.42t2.875-10.2q-.001-6.519-2.925-10.029Z"/>
  </g>
</svg>
