<svg xmlns="http://www.w3.org/2000/svg" viewBox="0 0 124.63805 120">
  <defs>
    <style>
      .a {
        fill: #1c9df3;
      }

      .b {
        fill: #403680;
      }

      .c {
        fill: #f4dbb3;
        stroke: #fff;
        stroke-width: 7px;
      }
    </style>
  </defs>
  <title>Star</title>
  <g>
    <path class="a" d="M90.61817,119.99985a16.68838,16.68838,0,0,1-4.53577-.63162l-22.7905-6.43529a3.58979,3.58979,0,0,0-1.95347,0l-22.7905,6.43529A16.558,16.558,0,0,1,17.48765,104.093l-.91534-23.64072a3.57856,3.57856,0,0,0-.60279-1.85207L2.79754,58.93806a16.53474,16.53474,0,0,1,8.04272-24.72257l22.23236-8.17481A3.57765,3.57765,0,0,0,34.654,24.89556L49.29946,6.30968a16.57659,16.57659,0,0,1,26.02768,0L89.98,24.89649a3.58229,3.58229,0,0,0,1.58138,1.14418l22.23237,8.17481a16.53383,16.53383,0,0,1,8.04365,24.72257l-13.18035,19.6668a3.5646,3.5646,0,0,0-.60279,1.85207L107.138,104.093A16.572,16.572,0,0,1,90.61817,119.99985Z"/>
    <path class="b" d="M62.31609,101.39535a17.14591,17.14591,0,0,1,4.67159.65115l23.64165,6.68459a3.7209,3.7209,0,0,0,4.72368-3.43439l.94976-24.55234a17.184,17.184,0,0,1,2.88835-8.89015L112.8524,51.43206a3.7209,3.7209,0,0,0-1.80557-5.55623L87.99029,37.37916a17.17008,17.17008,0,0,1-7.56086-5.49484L65.23421,12.57938a3.7209,3.7209,0,0,0-5.84181,0L44.19533,31.88433a17.1654,17.1654,0,0,1-7.56179,5.49484L13.58071,45.86932a3.7209,3.7209,0,0,0-1.80464,5.55623L25.43735,71.84677a17.17847,17.17847,0,0,1,2.8837,8.89015l.94976,24.55327a3.72089,3.72089,0,0,0,4.72554,3.43439L57.63522,102.04A17.16645,17.16645,0,0,1,62.31609,101.39535Z"/>
    <circle class="c" cx="62.7812" cy="64.65146" r="29.30207"/>
    <path class="b" d="M54.8743,55.81435a3.7209,3.7209,0,1,1-3.7209,3.7209A3.7209,3.7209,0,0,1,54.8743,55.81435Zm14.88359,0a3.7209,3.7209,0,1,1-3.7209,3.7209A3.7209,3.7209,0,0,1,69.75788,55.81435ZM62.77562,78.13974a16.92171,16.92171,0,0,1-14.10592-7.3618,1.81673,1.81673,0,0,1,.49415-2.52127q.04465-.03.091-.05731a2.01022,2.01022,0,0,1,2.69765.55813,13.19616,13.19616,0,0,0,21.64726,0,2.01115,2.01115,0,0,1,2.69765-.55813,1.81673,1.81673,0,0,1,.64208,2.48771q-.02757.04674-.0579.09179A16.93008,16.93008,0,0,1,62.77562,78.13974Z"/>
  </g>
</svg>
