<svg xmlns="http://www.w3.org/2000/svg" viewBox="0 0 120 120">
  <defs>
    <style>
      .a {
        fill: #f4dbb3;
      }

      .b {
        fill: #1c9df3;
      }

      .c {
        fill: none;
      }

      .d {
        fill: #403680;
      }
    </style>
  </defs>
  <title>Volume muted</title>
  <g>
    <path class="a" d="M60,0a60,60,0,1,0,60,60A60,60,0,0,0,60,0Zm-.47619,108.57143A48.09524,48.09524,0,1,1,107.619,60.47619a48.09524,48.09524,0,0,1-48.09524,48.09524Z"/>
    <path class="b" d="M91.60666,24.13619,54.67333,39.04762H30.47619V75.2381h25.2381a.6302.6302,0,0,0,.09524-.00476L91.60666,89.68571c13.90572,7.64762,20.77429,5.52952,20.77429-7.79143V31.92857C112.381,18.61238,105.51143,16.48667,91.60666,24.13619Zm.43048,12.659L74.43143,44.07333a3.80952,3.80952,0,0,1-3.05456-6.97994l.01426-.0062q.06583-.02869.13265-.05482l17.60194-7.27809a3.80957,3.80957,0,0,1,2.91143,7.041Z"/>
    <g>
      <g>
        <path class="c" d="M23.80952,47.48436a3.82513,3.82513,0,0,0,1.56279-.83374c.024-.02122.05063-.0393.07406-.06115a3.82554,3.82554,0,0,0,.29333-.315c.05714-.06673.11515-.13253.16762-.20322.07226-.09632.13759-.1977.20049-.30076q.09025-.14937.16667-.30715c.04546-.09289.08969-.18625.12762-.28314a3.78493,3.78493,0,0,0,.1298-.41809c.021-.0805.04731-.15875.06307-.24124a3.52509,3.52509,0,0,0,.00157-1.40677c-.0225-.11736-.05789-.22952-.0912-.34272-.02674-.09382-.05284-.18762-.08638-.27832a3.83509,3.83509,0,0,0-.198-.43609c-.01884-.03609-.0381-.07168-.0581-.107a3.993,3.993,0,0,0-.308-.46578,3.82732,3.82732,0,1,0-2.04526,6.00021Z"/>
        <path class="d" d="M55.25619,98.35238,41.73247,75.2381h.17229V39.04762H31.42857a7.62135,7.62135,0,0,0-.92279.06069,8.78939,8.78939,0,0,0-7.17245-3.87021H19.52381c-4.99714,0-9.04762,4.419-9.04762,9.87047V71.08191c0,5.45143,4.05048,9.87047,9.04762,9.87047h3.80952a8.3563,8.3563,0,0,0,1.14286-.08762,14.327,14.327,0,0,0,1.219,2.681L39.58191,107.279c2.91524,4.98286,8.17619,7.36952,11.75148,5.33333L54.06,111.059C57.63524,109.0219,58.17143,103.33333,55.25619,98.35238ZM22.85714,47.619a3.80957,3.80957,0,1,1,2.99769-6.13485,3.993,3.993,0,0,1,.308.46578c.01994.03534.03924.07091.0581.107a3.83508,3.83508,0,0,1,.198.43609c.03354.09074.05964.1845.08638.27832.03333.11318.0687.22536.0912.34272a3.52509,3.52509,0,0,1-.00157,1.40677c-.01575.08248-.04209.16072-.06307.24124a3.78493,3.78493,0,0,1-.1298.41809c-.03789.0969-.08213.19026-.12762.28314q-.07655.1579-.16667.30715c-.06286.10307-.12823.20444-.20049.30076-.05249.07068-.11048.13649-.16762.20322a3.82554,3.82554,0,0,1-.29333.315c-.02343.02186-.05.03993-.07406.06115a3.82514,3.82514,0,0,1-1.56285.8337h0A3.77694,3.77694,0,0,1,22.85714,47.619Z"/>
      </g>
      <path class="d" d="M105.2381,19.04762a7.14286,7.14286,0,0,0-7.14286,7.14286V88.09524a7.14286,7.14286,0,0,0,14.28571,0V26.19048A7.14286,7.14286,0,0,0,105.2381,19.04762Z"/>
    </g>
    <path class="a" d="M27.75333,15.19714,36.82571,9.959l54.7619,94.85048-9.07238,5.2381Z"/>
  </g>
</svg>
