<svg xmlns="http://www.w3.org/2000/svg" viewBox="0 0 66 66">
  <defs>
    <style>
      .a {
        fill: #fff;
      }

      .b {
        fill: #7469b8;
      }
    </style>
  </defs>
  <title>Wave</title>
  <g>
    <path class="a" d="M33,66A33,33,0,1,1,66,33,33.03734,33.03734,0,0,1,33,66Z"/>
    <path class="b" d="M33.00038,58.99984a26,26,0,1,1,26-26A26.02885,26.02885,0,0,1,33.00038,58.99984Z"/>
    <g>
      <path class="a" d="M50.6443,29.71819,47.5597,32.958a19.28942,19.28942,0,0,0-29.1194,0l-3.0846-3.2398a23.52928,23.52928,0,0,1,35.2886,0Z"/>
      <path class="a" d="M44.48577,36.18713l-3.07393,3.23107a10.90959,10.90959,0,0,0-16.82368,0l-3.07393-3.22913a15.0961,15.0961,0,0,1,22.97154-.00388Z"/>
      <path class="a" d="M38.33694,42.64248l-5.335,5.60272-5.335-5.6066a6.74053,6.74053,0,0,1,10.67.00388Z"/>
    </g>
  </g>
</svg>
