<svg xmlns="http://www.w3.org/2000/svg" xmlns:xlink="http://www.w3.org/1999/xlink" viewBox="0 0 58.92 34.37">
  <defs>
    <style>
      .a {
        fill: none;
      }

      .b {
        clip-path: url(#a);
      }

      .c {
        fill: #378911;
      }

      .d {
        fill: #fff;
      }

      .e {
        fill: #d9002e;
      }
    </style>
    <clipPath id="a" transform="translate(-33.88 -28.99)">
      <rect class="a" x="33.88" y="28.99" width="58.92" height="34.37"/>
    </clipPath>
  </defs>
  <title>Abkhazia</title>
  <g class="b">
    <rect class="c" width="58.92" height="34.37"/>
    <rect class="d" y="4.91" width="58.92" height="4.91"/>
    <rect class="d" y="14.73" width="58.92" height="4.91"/>
    <rect class="d" y="24.55" width="58.92" height="4.91"/>
    <rect class="e" width="26.12" height="14.73"/>
    <polygon class="d" points="13.59 2.4 13.93 3.41 13.07 2.77 12.2 3.41 12.56 2.4 11.68 1.78 12.75 1.79 13.07 0.77 13.38 1.8 14.47 1.78 13.59 2.4"/>
    <polygon class="d" points="21.42 9.54 21.77 10.56 20.91 9.92 20.04 10.56 20.4 9.54 19.51 8.93 20.59 8.94 20.91 7.92 21.22 8.95 22.31 8.93 21.42 9.54"/>
    <polygon class="d" points="5.74 9.54 6.09 10.56 5.23 9.91 4.36 10.56 4.72 9.54 3.82 8.93 4.9 8.94 5.23 7.92 5.54 8.95 6.63 8.93 5.74 9.54"/>
    <polygon class="d" points="9.72 3.49 10.07 4.51 9.21 3.86 8.34 4.51 8.7 3.49 7.81 2.88 8.89 2.89 9.21 1.87 9.52 2.9 10.61 2.88 9.72 3.49"/>
    <polygon class="d" points="17.44 3.49 17.78 4.51 16.91 3.86 16.06 4.51 16.41 3.49 15.52 2.88 16.6 2.89 16.91 1.87 17.24 2.9 18.32 2.88 17.44 3.49"/>
    <polygon class="d" points="20.21 6.33 20.55 7.35 19.69 6.7 18.82 7.35 19.18 6.33 18.29 5.72 19.37 5.73 19.69 4.71 20 5.74 21.09 5.72 20.21 6.33"/>
    <polygon class="d" points="7 6.33 7.35 7.35 6.48 6.7 5.62 7.35 5.98 6.33 5.09 5.72 6.17 5.73 6.48 4.71 6.8 5.74 7.88 5.72 7 6.33"/>
    <g class="b">
      <path class="d" d="M45.41,37.88s-0.23.09-.07,1.89a3.09,3.09,0,0,0,.65,2l0.23,0.92H48.4a3.47,3.47,0,0,1,.13-0.75,17.93,17.93,0,0,0,1.38-1.7c0.38-.46.19-1.41,1-2.32,0.38-.45-0.44-0.26-0.44-0.26a2.15,2.15,0,0,0-.78.89c-0.08.47-.43,0.87-0.46,0.52,0,0-.13-0.59-0.51-1.74,0-.34-0.2-1.52-0.24-2.42,0-.59-0.54-0.62-0.58,0L47.78,37.2l-0.12-2.72c-0.05-.77-0.64-0.66-0.66,0l0,2.84-0.11-2.75c-0.16-.52-0.57-0.21-0.58.35l-0.07,2.68s-0.09-1.47-.11-2.08c0-.37-0.46-0.34-0.5.19-0.06.77-.15,1.4-0.2,2.2h0Z" transform="translate(-33.88 -28.99)"/>
      <path class="e" d="M48.43,42.69H46.22L46,41.74a3.06,3.06,0,0,1-.65-2c-0.15-1.77.06-1.91,0.09-1.92,0-.44.05-0.85,0.09-1.27s0.06-.58.09-0.9c0-.56.53-0.63,0.55-0.19,0,0.62.11,2.08,0.11,2.08V34.9a0.59,0.59,0,0,1,.37-0.65,0.31,0.31,0,0,1,.27.29L47,37.3l0-2.84a0.48,0.48,0,0,1,.37-0.55c0.14,0,.32.15,0.35,0.57l0.12,2.73V34.85c0-.65.61-0.63,0.64,0s0.14,1.63.2,2.12l0,0.3C49.07,38.43,49.2,39,49.2,39a0.11,0.11,0,0,0,.05.11,0.83,0.83,0,0,0,.35-0.63,2.19,2.19,0,0,1,.8-0.91,1.51,1.51,0,0,1,.34,0,0.24,0.24,0,0,1,.24.09,0.27,0.27,0,0,1-.1.26,3.28,3.28,0,0,0-.66,1.53,1.88,1.88,0,0,1-.29.8,3.92,3.92,0,0,1-.86,1.09,2.63,2.63,0,0,0-.52.61,3.48,3.48,0,0,0-.12.74v0h0ZM45.9,35.27a0.37,0.37,0,0,0-.27.41c0,0.32-.06.61-0.09,0.9s-0.09.82-.11,1.29c0,0-.22.19-0.07,1.89A3.11,3.11,0,0,0,46,41.71l0.24,0.93h2.13a3.18,3.18,0,0,1,.13-0.73A2.63,2.63,0,0,1,49,41.27a3.93,3.93,0,0,0,.85-1.08,1.87,1.87,0,0,0,.28-0.78,3.32,3.32,0,0,1,.67-1.55,0.24,0.24,0,0,0,.09-0.2,1,1,0,0,0-.5,0,2.15,2.15,0,0,0-.76.88,0.82,0.82,0,0,1-.41.67s-0.1,0-.11-0.16-0.13-.6-0.51-1.74l0-.31c-0.06-.49-0.17-1.4-0.2-2.12s-0.48-.6-0.52,0l-0.06,2.36-0.18-2.72c-0.06-.81-0.58-0.62-0.6,0l0,2.84-0.17-2.75a0.27,0.27,0,0,0-.21-0.24,0.55,0.55,0,0,0-.31.6l-0.07,2.68h0a15.94,15.94,0,0,1-.17-2.08,0.2,0.2,0,0,0-.17-0.22h0Z" transform="translate(-33.88 -28.99)"/>
    </g>
  </g>
</svg>