<svg xmlns="http://www.w3.org/2000/svg" xmlns:xlink="http://www.w3.org/1999/xlink" viewBox="0 0 58.92 34.37">
  <defs>
    <style>
      .a {
        fill: none;
      }

      .b {
        clip-path: url(#a);
      }

      .c {
        fill: #3b6d1b;
      }

      .d {
        fill: #fcff2c;
      }
    </style>
    <clipPath id="a" transform="translate(-104.57 -28.99)">
      <rect class="a" x="104.57" y="28.99" width="58.92" height="34.37"/>
    </clipPath>
  </defs>
  <title>Adygea</title>
  <g class="b">
    <rect class="c" width="58.92" height="34.37"/>
    <polygon class="d" points="4.5 23.04 1.93 25.07 2.91 21.89 3.9 25.07 1.32 23.04 4.5 23.04"/>
    <polygon class="d" points="10.88 13.48 8.3 15.52 9.28 12.33 10.27 15.52 7.69 13.48 10.88 13.48"/>
    <polygon class="d" points="17.25 8.17 14.67 10.2 15.65 7.02 16.64 10.2 14.06 8.17 17.25 8.17"/>
    <polygon class="d" points="24.15 4.98 21.57 7.02 22.56 3.83 23.54 7.02 20.97 4.98 24.15 4.98"/>
    <polygon class="d" points="31.06 3.92 28.48 5.96 29.46 2.77 30.45 5.96 27.87 3.92 31.06 3.92"/>
    <polygon class="d" points="37.96 4.98 35.38 7.02 36.37 3.83 37.35 7.02 34.77 4.98 37.96 4.98"/>
    <polygon class="d" points="44.86 8.17 42.28 10.2 43.27 7.02 44.25 10.2 41.67 8.17 44.86 8.17"/>
    <polygon class="d" points="51.23 13.48 48.66 15.52 49.64 12.33 50.63 15.52 48.05 13.48 51.23 13.48"/>
    <polygon class="d" points="57.6 23.04 55.03 25.07 56.01 21.89 57 25.07 54.42 23.04 57.6 23.04"/>
    <polygon class="d" points="23.09 10.83 20.51 12.86 21.5 9.67 22.48 12.86 19.9 10.83 23.09 10.83"/>
    <polygon class="d" points="31.06 10.83 28.48 12.86 29.46 9.67 30.45 12.86 27.87 10.83 31.06 10.83"/>
    <polygon class="d" points="39.02 10.83 36.44 12.86 37.43 9.67 38.41 12.86 35.84 10.83 39.02 10.83"/>
    <polygon class="d" points="28.82 17.19 29.46 13.47 30.1 17.19 29.78 17.19 29.78 27.81 30.1 28.44 30.1 31.1 29.46 30.04 28.82 31.1 28.82 28.44 29.14 27.81 29.14 17.19 28.82 17.19"/>
    <polygon class="d" points="32.77 18.29 35.85 16.11 33.67 19.19 33.44 18.97 25.93 26.48 25.71 27.15 23.83 29.03 24.13 27.83 22.93 28.13 24.81 26.25 25.48 26.02 32.99 18.52 32.77 18.29"/>
    <polygon class="d" points="25.26 19.19 23.08 16.11 26.16 18.29 25.93 18.52 33.44 26.02 34.12 26.25 36 28.13 34.79 27.83 35.09 29.03 33.22 27.15 32.99 26.48 25.48 18.97 25.26 19.19"/>
  </g>
</svg>