<svg xmlns="http://www.w3.org/2000/svg" xmlns:xlink="http://www.w3.org/1999/xlink" viewBox="0 0 58.92 34.37">
  <defs>
    <style>
      .a {
        fill: none;
      }

      .b {
        clip-path: url(#a);
      }

      .c {
        fill: #bc0030;
      }
    </style>
    <clipPath id="a" transform="translate(-387.33 -28.99)">
      <rect class="a" x="387.33" y="28.99" width="58.92" height="34.37"/>
    </clipPath>
  </defs>
  <title>Albania</title>
  <g class="b">
    <rect class="c" width="58.92" height="34.37"/>
    <g class="b">
      <path d="M426.26,50.83a0.62,0.62,0,0,0-.31-0.09,1,1,0,0,1-.35-0.08,0.52,0.52,0,0,0-.58.09,1,1,0,0,1-.65.15,1.83,1.83,0,0,1-.84,0,2,2,0,0,1,.36-0.26,0.76,0.76,0,0,1,.47-0.21,0.73,0.73,0,0,0,.61-0.24,0.56,0.56,0,0,1,.6-0.17,0.45,0.45,0,0,0,.16,0,0.58,0.58,0,0,0-.68-0.37,0.6,0.6,0,0,1-.36,0A0.6,0.6,0,0,0,424,50a2,2,0,0,1-.75.62l-0.33.21-0.63-.25A7.15,7.15,0,0,1,421,50a1.19,1.19,0,0,1,.2-0.25,1.48,1.48,0,0,0,.2-0.24,1.15,1.15,0,0,0-.27-0.16,3.88,3.88,0,0,1-2-2c-0.21-.55-0.11-0.68.15-0.18a1.68,1.68,0,0,0,.64.76c0.3,0.19.47,0.23,0.58,0.13s0.11-.27-0.09-0.49c-0.43-.49-0.56-1.24-0.2-1.24,0.13,0,.15,0,0.43.66a3.63,3.63,0,0,0,1.09,1.64,0.59,0.59,0,0,0,.76-0.2c0.06-.18,0-0.29-0.31-0.49a2.12,2.12,0,0,1-.9-1.45,0.39,0.39,0,0,1,0-.36c0.11-.16.19-0.1,0.49,0.35a9.55,9.55,0,0,0,2,2.23,1.59,1.59,0,0,0,1.94,0,0.41,0.41,0,0,0,.16-0.31c0-.21-0.16-0.31-0.5-0.29a1.91,1.91,0,0,1-1.16-.11,3.84,3.84,0,0,1-1.59-1.86c-0.42-.87-0.32-0.91.39-0.18,1,1,1.74,1.34,2.45,1.13a0.92,0.92,0,0,0,.67-0.64c0-.25-0.12-0.32-0.5-0.3l-0.7,0A1.11,1.11,0,0,1,424.3,46a3.11,3.11,0,0,1-.6-0.43,5.92,5.92,0,0,1-1.23-1.68c0-.21.18-0.12,0.66,0.29a8,8,0,0,0,1.38.95,1.39,1.39,0,0,0,.63.1,1.06,1.06,0,0,0,.63-0.11,0.62,0.62,0,0,0,.41-0.59c0-.43-0.18-0.53-0.8-0.38a1.9,1.9,0,0,1-2.15-.76,1,1,0,0,1-.48-0.74c0-.12.22-0.06,1,0.31a2.91,2.91,0,0,0,1.44.5,1,1,0,0,0,.77-0.25c0.32-.27.4-0.58,0.2-0.78a0.71,0.71,0,0,0-.81,0,1.59,1.59,0,0,1-.52.16,2.56,2.56,0,0,1-1.77-.66,0.69,0.69,0,0,1-.33-0.62c0.08-.09.2-0.07,0.5,0.05a2.92,2.92,0,0,0,1.33.32,2.21,2.21,0,0,0,1.24-.32,0.94,0.94,0,0,0,.56-0.59,0.6,0.6,0,0,0-.09-0.26c-0.12-.21-0.35-0.2-0.79,0a2,2,0,0,1-2,.23,2.52,2.52,0,0,1-.79-0.75c-0.07-.14-0.07-0.15,0-0.22s0.13-.07.79,0.17a2.95,2.95,0,0,0,2,0,1.59,1.59,0,0,0,.89-1.07,0.51,0.51,0,0,0-.2-0.41c-0.19-.07-0.3,0-0.59.28a2.06,2.06,0,0,1-1.66.65c-0.78,0-1.1-.12-1.1-0.42a0.43,0.43,0,0,1,.47-0.37,5.7,5.7,0,0,0,2.69-1.22,1.11,1.11,0,0,0,.48-0.84A0.56,0.56,0,0,0,426,36c-0.22-.06-0.38,0-0.6.39a3.27,3.27,0,0,1-1.48,1.28,4.24,4.24,0,0,1-1.23.41,0.29,0.29,0,0,1-.13-0.19c-0.11-.3-0.12-0.3-0.56-0.12-0.22.1-.67,0.27-1,0.38a1.53,1.53,0,0,0-1,.69,1.42,1.42,0,0,0-.09.73,1.06,1.06,0,0,1-.11.69,0.52,0.52,0,0,1-.53.24,0.63,0.63,0,0,1-.66-0.71,2.09,2.09,0,0,1,.23-1.09,2,2,0,0,1,.8-0.89,2.64,2.64,0,0,1,1.3-.42,1.49,1.49,0,0,0,1.1-.47,1.2,1.2,0,0,1-1-.09s0.93,0,1,0a1.23,1.23,0,0,0,.72-0.29,0.49,0.49,0,0,0,.33-0.44c-0.06-.12-0.24-0.1-0.36,0l-0.26.29a0.7,0.7,0,0,1-.59.24,1.19,1.19,0,0,1-.56,0,0.29,0.29,0,0,1-.11-0.12,0.47,0.47,0,0,1,.34-0.2,2,2,0,0,1,.6.13,2.18,2.18,0,0,0-.12-0.28,0.74,0.74,0,0,0-.76-0.29,0.82,0.82,0,0,1-.5-0.1,1,1,0,0,0-.18-0.13,0.55,0.55,0,0,0-.24,0,3.13,3.13,0,0,0-1.2.3,1.22,1.22,0,0,1-.61.14,2.32,2.32,0,0,1-.49,0c-0.35-.09-0.41-0.09-0.41,0a1.26,1.26,0,0,0,.52.47c0.12,0.06.17,0.11,0.15,0.15a1.36,1.36,0,0,1-.57.39c-0.21.07-.2,0.16,0,0.27a0.43,0.43,0,0,1,.19.14,0.91,0.91,0,0,1-.63.41c-0.24,0-.15.19,0.11,0.25s0.15,0,0,.19a0.43,0.43,0,0,1-.42.19c-0.16,0-.19,0-0.1.2s0.08,0.14,0,.2a0.33,0.33,0,0,1-.13.06h-0.14a0.33,0.33,0,0,1-.13-0.06c-0.08-.06-0.08-0.07,0-0.2s0.06-.23-0.1-0.2a0.42,0.42,0,0,1-.42-0.19c-0.13-.14-0.13-0.16,0-0.19s0.36-.25.12-0.25a0.9,0.9,0,0,1-.63-0.41,0.43,0.43,0,0,1,.19-0.14c0.23-.11.23-0.19,0-0.27a1.34,1.34,0,0,1-.57-0.39s0-.09.15-0.15a1.26,1.26,0,0,0,.52-0.47c0-.07-0.07-0.07-0.42,0a2.28,2.28,0,0,1-.49,0,1.21,1.21,0,0,1-.61-0.14,3.12,3.12,0,0,0-1.2-.3,0.56,0.56,0,0,0-.24,0l-0.18.13a0.83,0.83,0,0,1-.5.1,0.73,0.73,0,0,0-.76.29,1.73,1.73,0,0,0-.12.28,2,2,0,0,1,.59-0.13,0.48,0.48,0,0,1,.34.2,0.32,0.32,0,0,1-.11.12,1.2,1.2,0,0,1-.56,0,0.71,0.71,0,0,1-.59-0.24l-0.25-.29c-0.12-.14-0.29-0.16-0.36,0a0.5,0.5,0,0,0,.33.44,1.23,1.23,0,0,0,.72.29c0.12,0,1,0,1,0a1.2,1.2,0,0,1-1,.09,1.49,1.49,0,0,0,1.1.47,2.65,2.65,0,0,1,1.3.42,2,2,0,0,1,.8.89,2.08,2.08,0,0,1,.23,1.09,0.63,0.63,0,0,1-.66.71,0.52,0.52,0,0,1-.53-0.24,1.06,1.06,0,0,1-.1-0.69,1.39,1.39,0,0,0-.09-0.73,1.54,1.54,0,0,0-1-.69c-0.33-.12-0.78-0.29-1-0.38-0.44-.18-0.46-0.18-0.56.12a0.29,0.29,0,0,1-.13.19,4.21,4.21,0,0,1-1.23-.41,3.27,3.27,0,0,1-1.49-1.28c-0.22-.35-0.38-0.45-0.6-0.39a0.57,0.57,0,0,0-.39.6,1.12,1.12,0,0,0,.49.84,5.69,5.69,0,0,0,2.68,1.22,0.43,0.43,0,0,1,.47.37c0,0.3-.32.41-1.1,0.42a2.06,2.06,0,0,1-1.65-.65c-0.3-.31-0.4-0.36-0.59-0.28a0.51,0.51,0,0,0-.2.41,1.58,1.58,0,0,0,.89,1.07,2.29,2.29,0,0,0,1.16.19,2.26,2.26,0,0,0,.86-0.16c0.66-.24.71-0.25,0.79-0.17s0.06,0.08,0,.22a2.54,2.54,0,0,1-.79.75,2,2,0,0,1-2-.23c-0.43-.23-0.66-0.24-0.79,0a0.62,0.62,0,0,0-.09.26,0.94,0.94,0,0,0,.56.59,2.2,2.2,0,0,0,1.24.32,2.93,2.93,0,0,0,1.33-.32c0.3-.13.42-0.14,0.5-0.05a0.7,0.7,0,0,1-.33.62,2.55,2.55,0,0,1-1.77.66,1.56,1.56,0,0,1-.52-0.16,0.71,0.71,0,0,0-.82,0c-0.2.2-.12,0.5,0.2,0.78a1,1,0,0,0,.77.25,2.91,2.91,0,0,0,1.44-.5c0.75-.37.92-0.43,1-0.31a1,1,0,0,1-.48.74,1.91,1.91,0,0,1-2.15.76c-0.62-.16-0.83,0-0.8.38a0.62,0.62,0,0,0,.41.59,1.07,1.07,0,0,0,.63.11,1.4,1.4,0,0,0,.63-0.1,8.09,8.09,0,0,0,1.38-.95c0.47-.41.65-0.5,0.65-0.29a5.89,5.89,0,0,1-1.23,1.68,3,3,0,0,1-.6.43,1.1,1.1,0,0,1-.69.14l-0.7,0c-0.38,0-.5.05-0.5,0.3a0.92,0.92,0,0,0,.67.64c0.71,0.21,1.49-.15,2.46-1.13,0.71-.73.82-0.68,0.39,0.18A3.84,3.84,0,0,1,409.31,48a1.92,1.92,0,0,1-1.16.11c-0.34,0-.5.07-0.5,0.29a0.41,0.41,0,0,0,.16.31,1.59,1.59,0,0,0,1.94,0,9.51,9.51,0,0,0,2-2.23c0.31-.46.38-0.52,0.49-0.35a0.38,0.38,0,0,1,0,.36,2.13,2.13,0,0,1-.9,1.45c-0.3.19-.37,0.31-0.31,0.49a0.59,0.59,0,0,0,.76.2A3.63,3.63,0,0,0,412.93,47c0.27-.63.29-0.66,0.43-0.66,0.36,0,.23.75-0.2,1.24-0.19.22-.22,0.37-0.09,0.49s0.29,0.07.59-.13a1.68,1.68,0,0,0,.64-0.76c0.26-.49.37-0.37,0.15,0.18a3.89,3.89,0,0,1-2,2,1.14,1.14,0,0,0-.28.16,1.48,1.48,0,0,0,.2.24,1.27,1.27,0,0,1,.2.25,7.15,7.15,0,0,1-1.31.59l-0.64.25-0.33-.21a1.93,1.93,0,0,1-.75-0.62,0.6,0.6,0,0,0-.69-0.36,0.6,0.6,0,0,1-.36,0,0.58,0.58,0,0,0-.68.37H408a0.57,0.57,0,0,1,.61.17,0.72,0.72,0,0,0,.61.24,0.76,0.76,0,0,1,.47.21,1.93,1.93,0,0,1,.36.26,1.82,1.82,0,0,1-.84,0,1,1,0,0,1-.65-0.15,0.52,0.52,0,0,0-.58-0.09,1,1,0,0,1-.35.08,0.64,0.64,0,0,0-.31.09,0.57,0.57,0,0,0-.27.34,1.59,1.59,0,0,0,.33,0c0.29,0,.32,0,0.42,0a1.3,1.3,0,0,0,.2.14,0.8,0.8,0,0,0,.58,0,2.45,2.45,0,0,1,.77-0.06H410a1.23,1.23,0,0,1-.31.21,0.87,0.87,0,0,1-.66.21,0.57,0.57,0,0,0-.66.35l-0.09.34a0.73,0.73,0,0,0,.09.67,1,1,0,0,1,.18-0.39,0.33,0.33,0,0,1,.35-0.17,0.56,0.56,0,0,0,.55-0.36,1.13,1.13,0,0,1,.56-0.49,0.8,0.8,0,0,1,1.14-.05,0.94,0.94,0,0,1,.47.32,0.41,0.41,0,0,0,.51.19,0.33,0.33,0,0,1,.44.17,0.54,0.54,0,0,0,.15.15,1,1,0,0,0,0-.26,0.52,0.52,0,0,0-.25-0.45,0.58,0.58,0,0,0-.63-0.27,0.48,0.48,0,0,1-.4-0.09c-0.26-.12-0.37-0.21-0.23-0.21l0.94-.35,0.88-.34,0.13,0.11a1.8,1.8,0,0,0,.79.36c0.15,0,.17,0,0.22-0.17a11.41,11.41,0,0,1,.86-1.65c0.46-.71.71-0.89,0.92-0.67a0.6,0.6,0,0,1,.08.43A3.89,3.89,0,0,1,415,51.27a1.85,1.85,0,0,1-1.08.55,0.67,0.67,0,0,0-.54.21,0.87,0.87,0,0,0,.35.41,0.89,0.89,0,0,0,.48.06,1,1,0,0,0,.65-0.2c0.29-.17.33-0.19,0.38-0.13s0.06,0.1,0,.25a0.86,0.86,0,0,1-.91.57c-0.58.07-.78,0.25-0.58,0.52a0.75,0.75,0,0,0,.65.27,1.46,1.46,0,0,0,1-.52,1,1,0,0,1,.34-0.25,0.94,0.94,0,0,1,0,.6,1.21,1.21,0,0,1-.5.6l-0.37.11c-0.48.13-.54,0.32-0.21,0.54a0.93,0.93,0,0,0,.85,0,2.9,2.9,0,0,0,.75-0.69c0.08-.14.16,0,0.14,0.18a1.64,1.64,0,0,1-.36.71,0.94,0.94,0,0,0,.2,1.1,0.52,0.52,0,1,0,1,0,0.93,0.93,0,0,0,.2-1.1,1.65,1.65,0,0,1-.36-0.71c0-.21.06-0.32,0.13-0.18a3,3,0,0,0,.75.69,0.92,0.92,0,0,0,.85,0c0.34-.22.27-0.41-0.21-0.54l-0.37-.11a1.22,1.22,0,0,1-.5-0.6,1,1,0,0,1,0-.6,1,1,0,0,1,.35.25,1.46,1.46,0,0,0,1,.52,0.75,0.75,0,0,0,.65-0.27c0.19-.27,0-0.45-0.59-0.52a0.86,0.86,0,0,1-.9-0.57c0-.16,0-0.2,0-0.25s0.1,0,.38.13a1,1,0,0,0,.65.2,0.9,0.9,0,0,0,.48-0.06A0.87,0.87,0,0,0,420.2,52a0.67,0.67,0,0,0-.54-0.21,1.83,1.83,0,0,1-1.08-.55,3.87,3.87,0,0,1-1.06-2.44,0.57,0.57,0,0,1,.08-0.43c0.21-.23.46,0,0.92,0.67a11.4,11.4,0,0,1,.86,1.65c0,0.16.07,0.17,0.22,0.17a1.81,1.81,0,0,0,.79-0.36l0.13-.11,0.88,0.34,0.94,0.35c0.14,0,0,.1-0.23.21a0.48,0.48,0,0,1-.4.09,0.58,0.58,0,0,0-.63.27,0.52,0.52,0,0,0-.25.45,1,1,0,0,0,0,.26,0.64,0.64,0,0,0,.15-0.15,0.33,0.33,0,0,1,.44-0.17,0.4,0.4,0,0,0,.51-0.19,1,1,0,0,1,.47-0.32,0.8,0.8,0,0,1,1.14.05,1.12,1.12,0,0,1,.56.49,0.57,0.57,0,0,0,.56.36,0.33,0.33,0,0,1,.35.17,1.11,1.11,0,0,1,.18.39,0.74,0.74,0,0,0,.09-0.67L425.18,52a0.57,0.57,0,0,0-.66-0.35,0.87,0.87,0,0,1-.66-0.21,1.33,1.33,0,0,1-.31-0.21h0.69a2.46,2.46,0,0,1,.78.06,0.8,0.8,0,0,0,.58,0,1.29,1.29,0,0,0,.2-0.14c0.09-.08.13-0.09,0.42,0a1.57,1.57,0,0,0,.33,0,0.57,0.57,0,0,0-.27-0.34M420,36.46c0.09-.06-0.08-0.24.11-0.23l0.2,0a0.17,0.17,0,0,1,.12.27,0.91,0.91,0,0,1-.66.05c-0.16-.44.12-0.05,0.23-0.13m-6.13.13a0.91,0.91,0,0,1-.66-0.05,0.17,0.17,0,0,1,.12-0.27l0.2,0c0.19,0,0,.17.11,0.23s0.39-.31.23,0.13" transform="translate(-387.33 -28.99)"/>
    </g>
  </g>
</svg>