<svg xmlns="http://www.w3.org/2000/svg" xmlns:xlink="http://www.w3.org/1999/xlink" viewBox="0 0 58.92 34.37">
  <defs>
    <style>
      .a {
        fill: none;
      }

      .b {
        clip-path: url(#a);
      }

      .c {
        fill: #120065;
      }

      .d {
        fill: #ac002b;
      }

      .e {
        fill: #fff;
      }

      .e, .f, .g {
        fill-rule: evenodd;
      }

      .f {
        fill: #8f3814;
      }

      .g {
        fill: #f4c034;
      }
    </style>
    <clipPath id="a" transform="translate(-668.5 -28.99)">
      <rect class="a" x="668.5" y="28.99" width="58.92" height="34.37"/>
    </clipPath>
  </defs>
  <title>American_Samoa</title>
  <g class="b">
    <rect class="c" width="58.92" height="34.37"/>
    <polygon class="d" points="58.92 0 0 17.18 0 17.18 58.92 34.37 58.92 0"/>
    <polygon class="e" points="58.92 1.84 58.92 32.53 6.31 17.18 58.92 1.84"/>
    <g class="b">
      <path class="f" d="M715.88,50a0.6,0.6,0,0,1,.08-0.92,0.6,0.6,0,0,1,0-.68s-0.47-.18,0-0.9a0.73,0.73,0,0,1-.2-0.76s-1.15-.43-0.06-0.84a1.71,1.71,0,0,1-1.74-.53l-1.31,0c-0.22-1.08-1.94-.14-0.66-3.26a1.26,1.26,0,0,0-1.07.12c-0.37.27-1.42,0.86-2,.27s0.41-1.42.43-1.44a5.07,5.07,0,0,0,1.58-1.19,1.51,1.51,0,0,1-.06-1.39c0.45-.72,3.2-1.4,4.45-1.64a2,2,0,0,0,.88-0.8l0.14,0.51s2.77-.82,2.91-1.21,0.06,0.35.06,0.35c1.09-.1,2.48-1,2.67-0.61a17.65,17.65,0,0,0,2.67-1s0.6,0,.17.64a0.63,0.63,0,0,1-.1.8,0.67,0.67,0,0,1-.23.66,0.69,0.69,0,0,1-.22.66,0.56,0.56,0,0,1-.47.68,0.42,0.42,0,0,1-.35.47,0.64,0.64,0,0,1-.21.59,0.58,0.58,0,0,1-.31.47s0.19,0.12-.08.31-3.1,1.93-3.1,1.91,2.07,0.37,2.21.45L723.6,43,722,44.92a11.08,11.08,0,0,0-1.83-.1,2.16,2.16,0,0,0,.47.29,0.7,0.7,0,0,0,.56.49c0.31,0-.59.57-1.17,0.62,0,0.22.74,0.23,0.94,0.06s-0.47.51-.55,0.6a3.15,3.15,0,0,0,.88-0.14,1.27,1.27,0,0,1-1,.84,1,1,0,0,1,.18.9,1.51,1.51,0,0,0-1.05-.45,2.46,2.46,0,0,0,.66,1.09,1.26,1.26,0,0,1-1.05-.23c-0.13-.29-0.25.7,0.12,1a1.47,1.47,0,0,1-.8-0.23,1.26,1.26,0,0,0-.08.88,2.51,2.51,0,0,1-.6-0.59l-1.48.62Z" transform="translate(-668.5 -28.99)"/>
      <path d="M718.32,50.68a2.14,2.14,0,0,1-.67-0.66l-1.41.64a0.06,0.06,0,0,1-.07,0l-0.33-.57h0a0.55,0.55,0,0,1-.18-0.37,0.81,0.81,0,0,1,.23-0.58,0.63,0.63,0,0,1,0-.66,0.4,0.4,0,0,1-.16-0.21,0.85,0.85,0,0,1,.18-0.69,0.75,0.75,0,0,1-.19-0.74,0.78,0.78,0,0,1-.52-0.48,0.31,0.31,0,0,1,.12-0.24,2.07,2.07,0,0,1-1.37-.64l-1.26.06a0.07,0.07,0,0,1-.06,0,0.86,0.86,0,0,0-.53-0.59c-0.49-.28-1-0.57-0.16-2.63h0a1.2,1.2,0,0,0-.94.12,2.66,2.66,0,0,1-1.41.54,1,1,0,0,1-.71-0.27,0.63,0.63,0,0,1-.22-0.49,1.72,1.72,0,0,1,.65-1l0.09-.05a3.49,3.49,0,0,0,1.48-1.12,1.17,1.17,0,0,0-.1-0.26,1.12,1.12,0,0,1,0-1.12c0.57-.92,4.45-1.66,4.49-1.67a2,2,0,0,0,.84-0.77,0.05,0.05,0,0,1,.06,0,0.06,0.06,0,0,1,.05,0l0.12,0.45a9.29,9.29,0,0,0,2.81-1.16,0.17,0.17,0,0,1,.12-0.15c0.06,0,.1.08,0.06,0.46a6.28,6.28,0,0,0,1.41-.42A1.34,1.34,0,0,1,722,35.1a18.23,18.23,0,0,0,2.62-.94,0.4,0.4,0,0,1,.38.16,0.58,0.58,0,0,1-.13.57,0.57,0.57,0,0,1,0,.64,0.65,0.65,0,0,1-.11.15,0.68,0.68,0,0,1-.22.66,0.76,0.76,0,0,1-.24.68s0.13,0.44-.45.68a0.46,0.46,0,0,1-.35.47,0.65,0.65,0,0,1-.25.59,0.49,0.49,0,0,1-.25.43,0.17,0.17,0,0,1,0,.1,0.31,0.31,0,0,1-.17.25c-0.2.14-2.35,1.47-3,1.83,0.5,0.08,1.93.36,2.05,0.43l1.7,1.11a0.06,0.06,0,0,1,0,0,0.07,0.07,0,0,1,0,0L722.07,45c-0.06,0-1.18-.1-1.66-0.1h-0.14l0.12,0a0.66,0.66,0,0,1,.33.19l0,0.08a0.64,0.64,0,0,0,.45.39c0.12,0,.14,0,0.15.07a2.06,2.06,0,0,1-1.2.65,1.12,1.12,0,0,0,.8,0l0.07,0c0.07,0.08.07,0.08-.26,0.43l-0.21.22c0.25,0,.74-0.15.75-0.15a0.06,0.06,0,0,1,.06,0,0.06,0.06,0,0,1,0,.06,1.3,1.3,0,0,1-1,.86,1,1,0,0,1,.14.88,0.09,0.09,0,0,1-.06,0l-0.08,0a1.38,1.38,0,0,0-.9-0.41,2.4,2.4,0,0,0,.62,1,0.09,0.09,0,0,1,0,.08s-0.05.07-.23,0.07a1.25,1.25,0,0,1-.94-0.31,2,2,0,0,0,0,.35,0.9,0.9,0,0,0,.23.59,0.06,0.06,0,0,1,0,.1h0a1.61,1.61,0,0,1-.77-0.21,1.08,1.08,0,0,0-.06.76,0.21,0.21,0,0,1,0,.12l-0.05,0h0ZM715.65,46h0a0.46,0.46,0,0,0-.36.3,0.78,0.78,0,0,0,.49.39,0.06,0.06,0,0,1,0,.07,0.68,0.68,0,0,0,.17.7,0.06,0.06,0,0,1,0,0,0.06,0.06,0,0,1,0,0,0.81,0.81,0,0,0-.2.64,0.27,0.27,0,0,0,.15.17,0.06,0.06,0,0,1,0,0,0.06,0.06,0,0,1,0,0,0.54,0.54,0,0,0,0,.61,0.06,0.06,0,0,1,0,.08,0.72,0.72,0,0,0-.23.53,0.45,0.45,0,0,0,.15.3l0.32,0.54,1.44-.6,0.54,0.53a1.45,1.45,0,0,1,.11-0.79,0.06,0.06,0,0,1,0,0h0a1.49,1.49,0,0,0,.63.22,1.31,1.31,0,0,1-.13-1c0.05-.15.19,0,0.21,0a1.19,1.19,0,0,0,.84.24H720a2.69,2.69,0,0,1-.61-1.06,0.05,0.05,0,0,1,0,0l0,0a1.44,1.44,0,0,1,1.06.43,1.35,1.35,0,0,0-.22-0.79,0.07,0.07,0,0,1,0-.05,0.06,0.06,0,0,1,0,0,1.24,1.24,0,0,0,.92-0.7,5.43,5.43,0,0,1-.74.14,0.16,0.16,0,0,1-.1,0,0.08,0.08,0,0,1,0-.08l0.29-.31,0.11-.11c-0.35.08-.79,0-0.79-0.21a0.06,0.06,0,0,1,.05-0.06,2.46,2.46,0,0,0,1.18-.56l-0.05.05a0.7,0.7,0,0,1-.53-0.45l0-.07a0.64,0.64,0,0,0-.27-0.14,0.3,0.3,0,0,1-.22-0.14,0.14,0.14,0,0,1,0-.08,0.34,0.34,0,0,1,.27,0c0.49,0,1.57.12,1.62,0.13L723.51,43l-1.64-1.08c-0.11-.06-2-0.44-2.17-0.44a0.06,0.06,0,0,1-.05,0,0.06,0.06,0,0,1,0-.06c0.12-.06,2.81-1.71,3.12-1.93a0.23,0.23,0,0,0,.12-0.15,0.1,0.1,0,0,0,0-.06,0.06,0.06,0,0,1,0-.05,0.06,0.06,0,0,1,0,0,0.52,0.52,0,0,0,.28-0.42,0.66,0.66,0,0,0,.22-0.58,0.06,0.06,0,0,1,0-.07,0.36,0.36,0,0,0,.3-0.4,0.06,0.06,0,0,1,0-.06,0.5,0.5,0,0,0,.43-0.61,0.82,0.82,0,0,0,.21-0.67,0.06,0.06,0,0,1,0-.07,0.55,0.55,0,0,0,.21-0.57,0.18,0.18,0,0,1,0-.08,0.57,0.57,0,0,0,.09-0.73,0.66,0.66,0,0,0,.13-0.51,0.3,0.3,0,0,0-.25-0.11,16.79,16.79,0,0,1-2.67,1,0.06,0.06,0,0,1-.06,0,0.15,0.15,0,0,0-.17-0.08,3.42,3.42,0,0,0-.93.28,5.93,5.93,0,0,1-1.52.44l0,0a0.06,0.06,0,0,1,0,0c0-.09,0-0.19,0-0.27a11.51,11.51,0,0,1-2.91,1.19h0a0.06,0.06,0,0,1,0,0l-0.1-.38a2.06,2.06,0,0,1-.83.71c-1.56.29-4,1-4.42,1.62a1,1,0,0,0,0,1,0.94,0.94,0,0,1,.1.33,3.56,3.56,0,0,1-1.54,1.2l-0.07,0a1.57,1.57,0,0,0-.61.95,0.52,0.52,0,0,0,.18.4,0.9,0.9,0,0,0,.63.24,2.63,2.63,0,0,0,1.34-.51,1.33,1.33,0,0,1,1-.14l0.09,0,0,0a0.06,0.06,0,0,1,0,.05c-0.83,2-.39,2.28.08,2.55a1,1,0,0,1,.57.63l1.26,0a2.17,2.17,0,0,0,1.28.62,1.08,1.08,0,0,0,.37-0.06l0.08,0a0.06,0.06,0,0,1,.07,0,0.06,0.06,0,0,1,0,.08l-0.07,0h0Z" transform="translate(-668.5 -28.99)"/>
      <path class="g" d="M704.42,48.87a8.56,8.56,0,0,0,3.12-.59,5.76,5.76,0,0,0,1.15,1.29L709,48.46a1.63,1.63,0,0,1,.83.21,1.79,1.79,0,0,0-.14.49,1.75,1.75,0,0,1,.56.1,3.22,3.22,0,0,1-.14.66l2.22,0.52a1.2,1.2,0,0,1,.35-0.76,3.6,3.6,0,0,0,2,1.25,1,1,0,0,0,1.14-.9l0.24,0.14a6.76,6.76,0,0,1,.52-1,1.66,1.66,0,0,0,.77.14,1.81,1.81,0,0,1,.24.7,1.4,1.4,0,0,0-.45,1.18c0.21,0.52.24,0.38,0.24,0.38l4.79,1.15a0.4,0.4,0,0,1-.18.59s-4.83-1.11-4.83-1.11a1.06,1.06,0,0,1-.8.42c-0.35-.1-0.1.21-0.1,0.21l5.21,0.42s0.38,0.49.1,0.63S716,53.53,716,53.53s-0.31.66-.66,0.1c-0.24.38-.52-0.1-0.52-0.1s-0.45.35-.52,0a0.42,0.42,0,0,1-.62-0.17l-2.22-.14-0.14.21s0.38,0.11-.21.35,3.54,0.14,3.65.17a0.66,0.66,0,0,1-.28.35s2.12,0.14,2.5-.31-0.14.59-.14,0.59a13.7,13.7,0,0,0,1.67-.14c0-.07,0,0.52-1.18.45a7.61,7.61,0,0,0,1.56.73,4.45,4.45,0,0,1-1.88,0,2.45,2.45,0,0,0,.94.87s-0.55.49-1.8-.7c0.35,0.62.07,0.87,0,.8a3.21,3.21,0,0,0-2-1.25c0.87,0.55.48,0.8,0.48,0.8s-0.45-.8-1.18,0c-0.28-.73-1.35-1.15-2.67-1.22-0.42-.49-0.66-0.35-1.63-0.62a17.44,17.44,0,0,0-1.36-1.32,0.84,0.84,0,0,1,1-.83c0.11,0.31.11,0.21,0.11,0.21s1-.38,1.35.14c0.45-.8,1.08-0.12,1.18.16,0.3,0,1.81.09,1.81,0.09s-0.18-.31-0.07-0.28A1.83,1.83,0,0,0,714,52c0-.1-0.07-0.45.07-0.42a3.3,3.3,0,0,0-1.91.38,1.22,1.22,0,0,1-.07-0.9L710,50.58l-0.1.56a0.85,0.85,0,0,1-.59,0c0-.14-0.14.49-0.14,0.49a7.89,7.89,0,0,1-.83-0.24s0.24-1.25.24-1.22a4.38,4.38,0,0,0-1.67.8c-0.28-.87-2.46-2-2.46-2.05h0Z" transform="translate(-668.5 -28.99)"/>
      <path d="M716.18,56.59h0l0,0a3,3,0,0,0-1.66-1.14,0.71,0.71,0,0,1,.33.49,0.27,0.27,0,0,1-.11.22l-0.05,0,0-.05a0.69,0.69,0,0,0-.45-0.32,0.79,0.79,0,0,0-.64.33l-0.06.07,0-.09c-0.25-.66-1.23-1.1-2.62-1.18a1.31,1.31,0,0,0-.91-0.46c-0.19,0-.43-0.08-0.74-0.17a18.86,18.86,0,0,0-1.38-1.33,0.94,0.94,0,0,1,.3-0.75,0.91,0.91,0,0,1,.72-0.18l0.12,0.23a1.31,1.31,0,0,1,1.33.07,0.6,0.6,0,0,1,.55-0.33,1,1,0,0,1,.7.57l1.65,0c-0.09-.19-0.06-0.23,0-0.25l0,0h0.07A2.29,2.29,0,0,0,714,52a0.69,0.69,0,0,1,0-.36,2.61,2.61,0,0,0-1.73.37l0,0,0,0a1.14,1.14,0,0,1-.1-0.9l-2-.43-0.09.5a1.26,1.26,0,0,1-.62.06l-0.11.39,0,0.06h-0.06c-0.88-.22-0.88-0.25-0.88-0.3s0-.23.12-0.63l0.1-.5a4.07,4.07,0,0,0-1.55.76l-0.07,0,0-.08c-0.22-.69-1.75-1.6-2.25-1.9-0.22-.13-0.22-0.13-0.22-0.17V48.81h0.06a8.61,8.61,0,0,0,3.1-.58l0,0,0,0a5.7,5.7,0,0,0,1.06,1.21L709,48.4h0a1.38,1.38,0,0,1,.88.25,2.32,2.32,0,0,0-.12.45,0.66,0.66,0,0,1,.54.13,1.61,1.61,0,0,1-.12.64l2.1,0.49a1.44,1.44,0,0,1,.32-0.75h0l0.08,0a1.29,1.29,0,0,1,.2.19,3,3,0,0,0,1.79,1.06,0.93,0.93,0,0,0,1.08-.85V49.92l0.27,0.15c0.44-.95.51-0.95,0.55-0.95l0.09,0a1.48,1.48,0,0,0,.67.11,1.65,1.65,0,0,1,.3.75,1.5,1.5,0,0,0-.46,1.17,1,1,0,0,0,.19.37l4.81,1.13a0.46,0.46,0,0,1,.1.41,0.47,0.47,0,0,1-.26.29,1.19,1.19,0,0,1-.45-0.08,0.68,0.68,0,0,1,.16.48,0.23,0.23,0,0,1-.13.16c-0.37,0-5.35-.32-5.65-0.34a0.45,0.45,0,0,1-.36.33,0.36,0.36,0,0,1-.31-0.18,0.29,0.29,0,0,1-.21.1,0.47,0.47,0,0,1-.33-0.23,0.52,0.52,0,0,1-.41.11,0.23,0.23,0,0,1-.13-0.13,0.41,0.41,0,0,1-.29,0,0.61,0.61,0,0,1-.35-0.29l-2.17-.11-0.06.12a0.17,0.17,0,0,1,.1.13,0.44,0.44,0,0,1-.37.3c0.11,0.06,1.92.06,2.79,0.05a8.16,8.16,0,0,1,.85,0h0l0,0.05a0.45,0.45,0,0,1-.2.29c0.66,0,2,0,2.3-.3,0.08-.09.15-0.16,0.21-0.12s0.1,0.06-.21.69c0.67,0,1.38-.08,1.52-0.11v0h0.1V54.4a0,0,0,0,1,0,0,1,1,0,0,1-1,.48,7.86,7.86,0,0,0,1.36.61l0.2,0.06-0.21,0a4.47,4.47,0,0,1-1.78,0,2.72,2.72,0,0,0,.86.73l0.07,0-0.06.06s-0.54.46-1.67-.51a0.63,0.63,0,0,1,0,.55,0.15,0.15,0,0,1-.12.09h0Zm-2.35-1.45,0.33,0.07a3.35,3.35,0,0,1,2,1.25l0-.07a0.83,0.83,0,0,0-.14-0.65l-0.19-.33,0.28,0.26c0.93,0.88,1.46.81,1.64,0.74a2.23,2.23,0,0,1-.87-0.84l0-.11,0.11,0a4.51,4.51,0,0,0,1.63.07,7.35,7.35,0,0,1-1.36-.66l-0.19-.12h0.22a1.15,1.15,0,0,0,1.06-.3c-0.2,0-.63.07-1.55,0.11h-0.1l0-.09c0.09-.18.19-0.39,0.23-0.52-0.4.47-2.46,0.34-2.55,0.33H714.3l0.12-.09a1.2,1.2,0,0,0,.27-0.28,4.19,4.19,0,0,1-.79,0c-2.61,0-2.91,0-2.93-.17a0.12,0.12,0,0,1,.09-0.11,0.42,0.42,0,0,0,.29-0.19,0.13,0.13,0,0,0-.08,0l-0.08,0,0.19-.28,2.27,0.11a0.78,0.78,0,0,0,.32.26,0.33,0.33,0,0,0,.27-0.07l0.08-.06,0,0.09a0.13,0.13,0,0,0,.08.12,0.5,0.5,0,0,0,.35-0.12l0.05,0,0,0.06a0.43,0.43,0,0,0,.26.22,0.17,0.17,0,0,0,.16-0.12l0.05-.08,0,0.08a0.33,0.33,0,0,0,.25.19,0.51,0.51,0,0,0,.31-0.29c0.1,0,4.89.32,5.6,0.32h0.07a0.13,0.13,0,0,0,0-.07,0.77,0.77,0,0,0-.19-0.46l-5.17-.39a0.28,0.28,0,0,1-.12-0.3,0.22,0.22,0,0,1,.24,0,1,1,0,0,0,.74-0.4h0l0.13-.56h0a1.61,1.61,0,0,1-.19-0.39,1.42,1.42,0,0,1,.46-1.24,2.53,2.53,0,0,0-.25-0.62,1.35,1.35,0,0,1-.68-0.1,4,4,0,0,0-.51.92l0,0.06-0.22-.13a1,1,0,0,1-1.2.87,3.07,3.07,0,0,1-1.87-1.09,1.62,1.62,0,0,0-.17-0.17,1.64,1.64,0,0,0-.26.73v0h0l-0.21.62h0a1.17,1.17,0,0,0,0,.74,2.88,2.88,0,0,1,1.86-.36h0.06a0.06,0.06,0,0,1,.05.07v0.05h-0.08a0.54,0.54,0,0,0,0,.34v0l-0.05.07a2.19,2.19,0,0,1-.92.39,0.6,0.6,0,0,1,.12.19l0.05,0.09h-0.1c-0.06,0-1.52,0-1.81-.09a1,1,0,0,0-.64-0.53,0.54,0.54,0,0,0-.48.34l-0.05.09-0.05-.09c-0.28-.47-1.27-0.12-1.28-0.11s-0.1,0-.18-0.25a0.94,0.94,0,0,0-.57.2,1,1,0,0,0-.28.62,11.35,11.35,0,0,1,1.34,1.28l0.7,0.15a1.32,1.32,0,0,1,.93.47c1.34,0.05,2.33.49,2.65,1.15a0.84,0.84,0,0,1,.68-0.3,0.75,0.75,0,0,1,.49.31,0.16,0.16,0,0,0,0-.07,0.91,0.91,0,0,0-.54-0.58l-0.29-.18h0Zm3.44-2.94c1.92,0.42,4.63,1.06,4.76,1.07a0.36,0.36,0,0,0,.18-0.21,0.41,0.41,0,0,0,0-.29l-4.73-1.11h0l-0.12.54h0Zm-1,.47h0a0.51,0.51,0,0,0,.08.13L721,53.15l-3.77-.88a0.92,0.92,0,0,1-.8.42l-0.1,0h0Zm-7.91-1.32c0.07,0,.4.09,0.72,0.17l0.09-.32h0l0.45-2h0V49.14a1.75,1.75,0,0,1,.14-0.5,2.7,2.7,0,0,0-.74-0.12l-0.32,1.15-0.07-.05a6,6,0,0,1-1.13-1.25,8.25,8.25,0,0,1-2.91.57h0a6.47,6.47,0,0,1,2.27,1.89,4.14,4.14,0,0,1,1.54-.73l0.07,0a0,0,0,0,1,0,0h0.06v0.06a0.05,0.05,0,0,1,0,0c0,0.13-.23,1.13-0.24,1.19h0Zm1-.31h0l0,0.08a2.35,2.35,0,0,0,.52,0l0.07-.57h0l0.12-.55h0l0-.06a3.27,3.27,0,0,0,.14-0.62,3.06,3.06,0,0,0-.45-0.06L709.35,51h0Zm0.71-.5L712.11,51l0.16-.48-2.11-.5-0.12.54h0Zm6.65,5.08h-0.12a3.64,3.64,0,0,0-1.54-.7c-0.18-.06-0.19-0.07-0.17-0.12l0.08,0a9.67,9.67,0,0,0,1.08-.09l0.16,0v0.12l-0.15,0-0.79.08c1.19,0.43,1.44.61,1.44,0.75h0ZM714.22,55a7.35,7.35,0,0,0-1.07-.59H713l0-.06,0.05-.07a0.3,0.3,0,0,1,.18,0,4.21,4.21,0,0,0,1-.14l0.08,0.09a2.44,2.44,0,0,1-.82.16,9.73,9.73,0,0,1,.88.51l-0.06.1h0Zm-2.15-.16a3.41,3.41,0,0,1-1.12-.6l-0.12-.08-0.06,0,0,0,0,0s0,0,.13,0a6.16,6.16,0,0,0,1.14,0v0.12c-0.21,0-.62,0-0.91,0a2.87,2.87,0,0,0,1,.52l0,0.11h0ZM710,54.18a1.73,1.73,0,0,1-1.06-.65l-0.15-.16-0.14-.14,0.2,0c0.21,0,.59.18,0.84,0.27l0.23,0.08v0.12l-0.26-.09L709,53.43v0a1.61,1.61,0,0,0,1,.62l0,0.12h0Zm0.14-.92a3.67,3.67,0,0,0-.37-0.16,1.64,1.64,0,0,1-1-.58V52.44l0.08,0a2.1,2.1,0,0,0,1.15.14l0,0.11a1.85,1.85,0,0,1-1-.06c0.22,0.12.58,0.26,0.77,0.33a1,1,0,0,1,.43.2l-0.1.06h0Z" transform="translate(-668.5 -28.99)"/>
      <path class="g" d="M707.13,46s-1.46,1.25,0,2a0.91,0.91,0,0,1,.17-0.56,1.68,1.68,0,0,0,1.95-.63,0.8,0.8,0,0,0-.87-0.28s-1.15,0-1.25-.52h0Z" transform="translate(-668.5 -28.99)"/>
      <path d="M715.38,53.68l-0.05-.11a1.67,1.67,0,0,0,.12-0.65h0l-0.17-.32-0.28.34a1.06,1.06,0,0,1-.17.66l-0.05-.11a1.42,1.42,0,0,0,.12-0.59h0l-0.11-.31a0.9,0.9,0,0,0-.34.3,1.94,1.94,0,0,0,0,.2,0.61,0.61,0,0,1-.16.47l0-.11a1.23,1.23,0,0,0,.09-0.38,2,2,0,0,1,0-.21,0.2,0.2,0,0,1,0-.07h0a0.55,0.55,0,0,0,0-.29,1.3,1.3,0,0,0-.6.86h-0.12a1.07,1.07,0,0,1,.22-0.54l-0.61-.09,0-.12,0.68,0.1a0.88,0.88,0,0,1,.42-0.33h0l0.06,0a0.42,0.42,0,0,1,.06.26,1.83,1.83,0,0,1,.33-0.23l0.06,0,0,0.07L715,52.78l0.23-.29a0.41,0.41,0,0,1-.15-0.08,0.25,0.25,0,0,1-.09-0.16,0.47,0.47,0,0,1-.51-0.23l-0.39,0V51.93l0.35,0a1,1,0,0,1,0-.3h-0.26v0L714,51.56c0-.06,0-0.08.48-0.06a0.43,0.43,0,0,0,.33-0.12,0.77,0.77,0,0,0,.17-0.5h0.12a0.89,0.89,0,0,1-.21.59,0.53,0.53,0,0,1-.42.15h0a0.6,0.6,0,0,0,.14.44,0.47,0.47,0,0,0,.43.07,1.2,1.2,0,0,0,.55-1,0.94,0.94,0,0,1,0-.16c0-.12-0.13-0.18-0.14-0.18l0-.11a0.34,0.34,0,0,1,.22.21,0.5,0.5,0,0,1,.4,0,0.29,0.29,0,0,1,.15.21,0.46,0.46,0,0,1,.36-0.08,0.3,0.3,0,0,1,.18.19,0.37,0.37,0,0,1,.37,0l-0.08.09a0.26,0.26,0,0,0-.26,0,2.08,2.08,0,0,1-.35,1.18,0.35,0.35,0,0,1-.2.18V52.53a0.4,0.4,0,0,0,.14-0.16,1.84,1.84,0,0,0,.3-1.11,0.21,0.21,0,0,0-.12-0.16,0.37,0.37,0,0,0-.29.09v0a1.8,1.8,0,0,1-.59,1.24h0a0.43,0.43,0,0,0,.46.18l0,0.12a0.69,0.69,0,0,1-.38,0L716,52.84l0.35,0v0.12L716,53l0,0.54h-0.12l0-.65-0.1-.13-0.23.23a1.11,1.11,0,0,1-.17.71h0Zm0-1.16,0.16,0.31,0.21-.23a0.38,0.38,0,0,1-.1-0.13h0a0.68,0.68,0,0,1-.28,0h0Zm-0.07-.13a0.54,0.54,0,0,0,.3,0,1.6,1.6,0,0,0,.61-1.22,0.2,0.2,0,0,0-.09-0.17,0.39,0.39,0,0,0-.3.05l0-.07a0.36,0.36,0,0,1,0,.07,0.72,0.72,0,0,0,0,.13,1.32,1.32,0,0,1-.62,1.07h0a0.13,0.13,0,0,0,.05.09,0.36,0.36,0,0,0,.15.07h0Zm-3.78.82-0.1-.07a0.4,0.4,0,0,0,0-.5l0.09-.08a0.52,0.52,0,0,1,0,.64h0Zm-4.34-5.12-0.07,0a1.07,1.07,0,0,1-.67-0.79,1.8,1.8,0,0,1,.66-1.29l0.08-.07,0,0.1a1.31,1.31,0,0,0,1.19.47,0.85,0.85,0,0,1,.92.3,1.71,1.71,0,0,1-2,.72,4.77,4.77,0,0,0-.11.5v0.08h0Zm-0.07-2a1.58,1.58,0,0,0-.56,1.12,0.91,0.91,0,0,0,.54.66,0.79,0.79,0,0,1,.19-0.51h0l0.94-.81a1.4,1.4,0,0,1-1.13-.47h0Zm0.34,1.31a1.6,1.6,0,0,0,1.76-.65,0.8,0.8,0,0,0-.8-0.19h0l0,0-0.94.81h0Z" transform="translate(-668.5 -28.99)"/>
      <path class="e" d="M707.18,46h0a1.08,1.08,0,0,0,.25-0.43,1,1,0,0,1,.16-0.7c0.23-.22,3.31-1.52,3.57-1.78a7.89,7.89,0,0,0,.78-0.92,0.66,0.66,0,0,1-.29.9,2.89,2.89,0,0,1,1.17-.25,2.37,2.37,0,0,1-1.15.88,2.69,2.69,0,0,1,1.48-.33c0.18,0.14-.84.82-1.25,0.86,0.68-.17,1.6-0.45,1.72-0.16a8,8,0,0,0-1,.64,1.9,1.9,0,0,1-.59.1c0.59-.06,1.38-0.29,1.46.14-0.47.17-.64,0.41-1,0.51a16.42,16.42,0,0,0-1.83.49,7.31,7.31,0,0,0-1.35.84s-1.73.06-1.73,0-0.33-.8-0.35-0.82h0Z" transform="translate(-668.5 -28.99)"/>
      <path d="M707.63,46.92c-0.12,0-.16,0-0.16-0.06s-0.31-.74-0.34-0.79a0,0,0,0,1,0-.07,1,1,0,0,0,.24-0.4,0.81,0.81,0,0,0,0-.23,0.56,0.56,0,0,1,.16-0.5,13.64,13.64,0,0,1,1.65-.82,17,17,0,0,0,1.92-1,8,8,0,0,0,.77-0.9,0.1,0.1,0,0,1,.07,0,0.13,0.13,0,0,1,.1.11,0.86,0.86,0,0,1-.16.72l0.17-.05a1.45,1.45,0,0,1,.78-0.12,0.06,0.06,0,0,1,0,0,0.06,0.06,0,0,1,0,.05,3.18,3.18,0,0,1-.53.55,1.19,1.19,0,0,1,.85-0.08,0.23,0.23,0,0,1,0,.11,1.39,1.39,0,0,1-.61.55,1,1,0,0,1,1.05.07,0.06,0.06,0,0,1,0,0l0,0a0.8,0.8,0,0,0-.34.19,3.64,3.64,0,0,1-.46.33H713a0.46,0.46,0,0,1,.52.3,0.06,0.06,0,0,1,0,.07,2.77,2.77,0,0,0-.51.26,1.76,1.76,0,0,1-.53.25l-0.34.08a11.54,11.54,0,0,0-1.48.4,7.19,7.19,0,0,0-1.33.83s-1.29.06-1.67,0.06h0Zm-0.06-.12c0.25,0,1.69,0,1.69,0a6.34,6.34,0,0,1,1.33-.84,11.91,11.91,0,0,1,1.5-.41l0.34-.08a1.69,1.69,0,0,0,.5-0.24,2.87,2.87,0,0,1,.48-0.25,0.35,0.35,0,0,0-.39-0.16,3.39,3.39,0,0,0-.44,0,2.42,2.42,0,0,1-.55.08,0.05,0.05,0,0,1-.06-0.05,0.06,0.06,0,0,1,.05-0.06l0.38-.05,0.17,0a4.14,4.14,0,0,0,.67-0.45,0.92,0.92,0,0,1,.29-0.18,3.16,3.16,0,0,0-1.39.18,0.92,0.92,0,0,1-.23.06,0.06,0.06,0,0,1-.06,0,0.06,0.06,0,0,1,0-.07l0.2-.05a2.29,2.29,0,0,0,1-.71,0.27,0.27,0,0,0-.13,0,3.83,3.83,0,0,0-1,.26,0.7,0.7,0,0,1-.33.12,0.06,0.06,0,0,1-.06,0,0.06,0.06,0,0,1,0-.07l0.31-.11a3.19,3.19,0,0,0,.76-0.67,2.34,2.34,0,0,0-.62.14l-0.43.13a0.06,0.06,0,0,1-.07,0,0.06,0.06,0,0,1,0-.07,0.68,0.68,0,0,0,.33-0.46,0.62,0.62,0,0,0,0-.35,3.73,3.73,0,0,1-.72.93,14.51,14.51,0,0,1-2,1,16.49,16.49,0,0,0-1.62.8,0.45,0.45,0,0,0-.12.41,0.93,0.93,0,0,1,0,.26,1.1,1.1,0,0,1-.24.43c0.07,0.15.27,0.59,0.32,0.75h0Z" transform="translate(-668.5 -28.99)"/>
      <path d="M708.05,45.9h-0.12a0.92,0.92,0,0,1,.22-0.57,2.86,2.86,0,0,1,.37-0.2,2.77,2.77,0,0,0,.87-0.55c0-.07.08-0.11,0.13-0.08s0,0.06,0,.17a1.67,1.67,0,0,0-.22.65l-0.11,0a0.91,0.91,0,0,1,.13-0.53,4.41,4.41,0,0,1-.72.41l-0.13.06a0.46,0.46,0,0,1,.29.52l-0.11,0a0.4,0.4,0,0,0-.29-0.42h0l-0.11.06a0.78,0.78,0,0,0-.17.48h0Z" transform="translate(-668.5 -28.99)"/>
      <path d="M708.53,45.91a0.37,0.37,0,1,1,.37-0.37,0.37,0.37,0,0,1-.37.37h0Zm0-.65a0.27,0.27,0,1,0,.27.27,0.27,0.27,0,0,0-.27-0.27h0Z" transform="translate(-668.5 -28.99)"/>
      <path class="e" d="M722.06,44.84l3.37,0.64a0.66,0.66,0,0,0,.18-0.66A0.65,0.65,0,0,0,726,44s0.59-.25.1-0.84a0.35,0.35,0,0,0-.08-0.58s0.13-.59-0.29-0.64c0.12-.47-0.74-0.62-0.74-0.62a16.23,16.23,0,0,1-3,.53,0.39,0.39,0,0,1-.15.66A0.47,0.47,0,0,1,722,43c-0.1.2,0.06,0.41-.37,0.55,0.56,0.25-.06.68-0.06,0.68s0.63,0.43.47,0.64h0Z" transform="translate(-668.5 -28.99)"/>
      <path d="M718.31,49.76a1.81,1.81,0,0,1-.35-1.54l0.12,0a1.71,1.71,0,0,0,.32,1.43l-0.08.08h0Zm-0.93-.31a1.1,1.1,0,0,1,0-.45l0.12-.05V49a2.33,2.33,0,0,0,0,.39l-0.11,0h0Zm-0.81-.22a0.89,0.89,0,0,1-.1-1.08,1,1,0,0,1,.21-0.87l0,0a1.71,1.71,0,0,1,.26-1L716.79,46a5,5,0,0,0-.33-0.46,2.51,2.51,0,0,0-1.21-.35v0a0.46,0.46,0,0,1-.23.2l-1.07.06V45.35l1.05-.06a0.32,0.32,0,0,0,.16-0.16,0.18,0.18,0,0,0-.08-0.15l0.08-.09a0.3,0.3,0,0,1,.12.22,2.52,2.52,0,0,1,1.27.39,5.33,5.33,0,0,1,.34.47,2.13,2.13,0,0,0,.39.49,0.14,0.14,0,0,0,.1,0h0.14a0.17,0.17,0,0,1-.1.1,0.23,0.23,0,0,1-.21,0,0.63,0.63,0,0,1-.17-0.16,0.94,0.94,0,0,0-.1,1l-0.07.1a0.37,0.37,0,0,1-.13-0.14,0.66,0.66,0,0,0-.07.81l-0.08.09,0,0a0.73,0.73,0,0,0,.1.88l-0.08.09h0Zm2.37-.3a1.56,1.56,0,0,1-.65-1l0.12,0a1.46,1.46,0,0,0,.59.91l-0.05.11h0Zm-2.76-.25-0.28-.19,0.07-.1,0.28,0.19-0.07.1h0Zm3.19-.64a1.32,1.32,0,0,0-.45-0.46l0.07-.1a1.38,1.38,0,0,1,.49.55h-0.12Zm-3.17-.3a0.56,0.56,0,0,1-.34-0.17l0.08-.08a0.41,0.41,0,0,0,.28.13l0,0.12h0Zm4,0a2.25,2.25,0,0,1-1-.37l0.07-.1a1.94,1.94,0,0,0,1,.34l0,0.12h-0.12ZM720,47a2.42,2.42,0,0,1-.93-0.18l0-.11a2.37,2.37,0,0,0,1.37.12l0,0.12A2.31,2.31,0,0,1,720,47h0Zm-4.13-.13-0.08,0,0.05-.11a1.06,1.06,0,0,0,.54-0.24l0.08,0.08a1.4,1.4,0,0,1-.59.28h0Zm3.83-.53a1.56,1.56,0,0,1-.95-0.34l0.08-.09a1.42,1.42,0,0,0,1.23.26l0,0.11a1.41,1.41,0,0,1-.39.06h0Zm5.83-.84L722,44.88l0.06-.08a0.08,0.08,0,0,0,0-.06,1.21,1.21,0,0,0-.44-0.48l0,0a11.49,11.49,0,0,0-1.57-.39l0-.12a15.79,15.79,0,0,1,1.53.38,0.57,0.57,0,0,0,.27-0.38,0.28,0.28,0,0,0-.2-0.2v0l-1.05,0V43.44l1,0,0,0a0.31,0.31,0,0,0,.28-0.26,3.63,3.63,0,0,0-2-.23V42.85a4.85,4.85,0,0,1,2,.2,0.39,0.39,0,0,1,0-.11,0.39,0.39,0,0,0-.2-0.35l0,0a17.37,17.37,0,0,0-2.59-.21V42.29a20.19,20.19,0,0,1,2.58.21h0a0.5,0.5,0,0,0,.27-0.28,0.34,0.34,0,0,0-.13-0.29l-0.1-.1h0.14a16.33,16.33,0,0,0,3-.52,1.26,1.26,0,0,1,.76.39,0.39,0.39,0,0,1,.06.25,0.38,0.38,0,0,1,.21.15,0.75,0.75,0,0,1,.08.5h0v0a0.35,0.35,0,0,1,.2.28,0.39,0.39,0,0,1-.11.3,0.64,0.64,0,0,1,.16.53,0.55,0.55,0,0,1-.27.34,0.69,0.69,0,0,1-.35.78,0.81,0.81,0,0,1-.22.67h0Zm-3.34-.73,3.3,0.63a0.66,0.66,0,0,0,.12-0.57l-0.05-.06a1.57,1.57,0,0,0-.66-0.27c-0.14,0-3-.34-3.13-0.35h0l0,0a1.18,1.18,0,0,1,.45.53,0.18,0.18,0,0,1,0,.07h0Zm-0.32-.73c0.88,0.1,2.93.34,3,.34a1.52,1.52,0,0,1,.78.34,0.56,0.56,0,0,0,.29-0.65l-4-.09v0l-0.07.09h0Zm0.31-.18L726,44a0.46,0.46,0,0,0,.23-0.27,0.51,0.51,0,0,0-.12-0.4,16.74,16.74,0,0,1-4,.58h0Zm-0.34-.37a0.33,0.33,0,0,1,.16.24v0a17.59,17.59,0,0,0,4.07-.57l0,0,0,0a0.31,0.31,0,0,0,.11-0.25,0.4,0.4,0,0,0-.18-0.25v0c-0.17,0-2.41.23-3.91,0.39a0.68,0.68,0,0,0,0,.11,0.38,0.38,0,0,1-.25.37h0Zm0.11-1a0.49,0.49,0,0,1,.19.36c2.83-.31,3.63-0.36,3.87-0.36a0.73,0.73,0,0,0-.07-0.42A0.27,0.27,0,0,0,725.7,42h-0.06c-0.43,0-2.4.33-3.73,0.54h0Zm0.16-.63a0.38,0.38,0,0,1,.08.3,0.41,0.41,0,0,1-.1.19c2.47-.39,3.31-0.48,3.61-0.48a0.25,0.25,0,0,0,0-.19,1.2,1.2,0,0,0-.66-0.34,16.09,16.09,0,0,1-2.89.52h0Zm-2.33,3,0-.11a0.75,0.75,0,0,1,.54,0l-0.08.08a1.47,1.47,0,0,0-.43.07h0Zm-2.1-.26a0.9,0.9,0,0,1-.57-0.16l0,0a1.22,1.22,0,0,1-.78-0.07v0a1.1,1.1,0,0,1-.54.1,1.29,1.29,0,0,1-.89-0.53h0a1.65,1.65,0,0,1-.64-0.13,0.77,0.77,0,0,1-.47-0.43,0.24,0.24,0,0,1,.13-0.28,0.19,0.19,0,0,0,.1-0.25c-0.06-.43-0.92-0.57-1.34-0.63l-0.23,0a1.59,1.59,0,0,1-.42-0.44,1.27,1.27,0,0,1,0,.46H712c0.11-.86-1.07-2.16-1.08-2.18L711,40a5.65,5.65,0,0,1,1,1.55l0,0a2.56,2.56,0,0,0,.52.6l0.2,0c0.44,0.07,1.37.22,1.44,0.73a0.3,0.3,0,0,1-.15.37,0.12,0.12,0,0,0-.08.15,0.68,0.68,0,0,0,.4.35,1.79,1.79,0,0,0,1.52-.11l0.05,0.1A2.09,2.09,0,0,1,715,44a1.15,1.15,0,0,0,.76.42,1.45,1.45,0,0,0,1.13-.59L717,43.91a2.29,2.29,0,0,1-.57.46,1.36,1.36,0,0,0,1.67-.85l0.1,0.06a1.89,1.89,0,0,1-1,.91,1.44,1.44,0,0,0,1.39-.17l0.05,0.1a2.12,2.12,0,0,1-1,.29h0Zm0.9-2.46-0.1-.07a1.13,1.13,0,0,1,.61-0.4,0.63,0.63,0,0,0,.31-0.17,0.31,0.31,0,0,0,.13-0.25,0.17,0.17,0,0,0-.09-0.1h0l0,0v0h0l0,0.06a0.31,0.31,0,0,0-.28.09v0.07a1.7,1.7,0,0,1-.9.71l-0.05-.1a1.81,1.81,0,0,0,.83-0.61h0a0.4,0.4,0,0,0-.41.09l0,0h0a5.54,5.54,0,0,1-1,.58l0-.11a5.46,5.46,0,0,0,.93-0.56,0.31,0.31,0,0,0-.26-0.1h0a3.11,3.11,0,0,1-1.12.68l0-.12a3.54,3.54,0,0,0,1-.67,0.22,0.22,0,0,0,0-.16,0.21,0.21,0,0,0-.19,0h0c-0.12.08-.42,0.26-1.23,0.73l-0.06-.1,1.23-.73a0.42,0.42,0,0,0-.08-0.38,0.37,0.37,0,0,0-.31,0v0l-1.46.9-0.06-.1,1.43-.89a0.29,0.29,0,0,0,0-.24,0.3,0.3,0,0,0-.27,0h0c-0.15.1-.59,0.36-1.89,1.08l-0.06-.1c0.68-.37,1.68-0.94,1.88-1.07a0.33,0.33,0,0,0-.07-0.26,0.34,0.34,0,0,0-.23-0.09h0c-0.41.31-2,1.12-2.1,1.16l-0.05-.11s1.68-.84,2.06-1.12a0.31,0.31,0,0,0,0-.32,0.61,0.61,0,0,0-.44-0.13,0.83,0.83,0,0,1-.12.23,11.92,11.92,0,0,0-1.81,1,0.62,0.62,0,0,1-.22.12l0-.11,0.18-.11a11,11,0,0,1,1.82-1,0.46,0.46,0,0,0,0-.46,0.32,0.32,0,0,0-.35-0.1v0a1,1,0,0,1-.42.38c-0.28.1-2.09,1-2.11,1L713,40.19c0.07,0,1.83-.95,2.12-1a0.8,0.8,0,0,0,.44-0.61,0.43,0.43,0,0,0-.46-0.2v0c-0.72.3-2.25,1.09-2.62,1.33a1.05,1.05,0,0,1-1,0l0.05-.1a1,1,0,0,0,.86,0,25.8,25.8,0,0,1,2.91-1.44,2.26,2.26,0,0,0,.86-1.48l0.12,0a4.29,4.29,0,0,1-.38,1l2.79-.82a1.58,1.58,0,0,0,.45-1.05h0.12a1.69,1.69,0,0,1-.18.71c0.49-.06,2.73-0.39,2.73-1.28H722a0.81,0.81,0,0,1-.37.64,17.44,17.44,0,0,0,3.12-1.07l0.09,0.08A18.28,18.28,0,0,1,721.54,36a0.49,0.49,0,0,1,.18.41l2.93-.82,0,0.11-3,.84v0a0.37,0.37,0,0,1,.21.2,0.43,0.43,0,0,1,0,.28l2.52-.77,0,0.11-2.61.8,0,0a0.38,0.38,0,0,1,.21.26,0.26,0.26,0,0,1,0,.1l2.17-.65,0,0.11-2.29.69,0,0a0.4,0.4,0,0,1,.26.24,0.26,0.26,0,0,1,0,.06c0.63-.19,1.54-0.47,1.59-0.47v0.12c-0.07,0-1,.29-1.62.48a0.61,0.61,0,0,1-.11.16l0.05,0a0.37,0.37,0,0,1,.26.19l1-.42,0,0.11-1.07.43v0a0.62,0.62,0,0,1-.24.29c-0.5.23-1.62,0.67-1.87,0.77l-0.1.16a0.23,0.23,0,0,1,.15.11,0.26,0.26,0,0,1,0,.13c0.08,0,1.08-.42,1.55-0.67a0.51,0.51,0,0,0,.26-0.3,0.19,0.19,0,0,0,0-.14l0.09-.08a0.29,0.29,0,0,1,.06.17,6,6,0,0,1,.9-0.37v0.12c-0.05,0-.59.24-0.91,0.39v0a0.62,0.62,0,0,1-.27.33,0.23,0.23,0,0,1,.07.15,0.33,0.33,0,0,1-.17.26l-0.33.17a0.21,0.21,0,0,1,.07.2l-0.12,0a0.09,0.09,0,0,0,0-.1l0,0-1.17.61h0l0,0-0.73.48a0.25,0.25,0,0,1,.1.14,0.39,0.39,0,0,1-.15.35,0.72,0.72,0,0,1-.36.2,1,1,0,0,0-.56.36h0Zm-0.19-1a0.33,0.33,0,0,1,.16.08l0,0a0.52,0.52,0,0,1,.42-0.07,0.45,0.45,0,0,1,.4-0.16l0.82-.54h0a0.17,0.17,0,0,0-.07-0.14h0a9.05,9.05,0,0,0-1.77.8h0ZM718,41a0.27,0.27,0,0,1,.19.07,0.3,0.3,0,0,1,.08.18,8.65,8.65,0,0,1,1.82-.84h0a0.42,0.42,0,0,0,.13-0.38,0.18,0.18,0,0,0-.14-0.06H720l-2,.88a1,1,0,0,1,0,.15h0Zm-0.39-.51a0.35,0.35,0,0,1,.22.07,0.33,0.33,0,0,1,.11.17l2.11-.9,0.09-.2h0a0.46,0.46,0,0,0-.36-0.24h0a1,1,0,0,1-.36.21c-0.24.07-1.72,0.68-1.94,0.77a0.42,0.42,0,0,1,0,.14h0.12Zm2.61-.07a0.27,0.27,0,0,1,.12.16h0l1.49-.78a0.21,0.21,0,0,0,.11-0.16,0.13,0.13,0,0,0-.06-0.09h0c-0.51.27-1.5,0.65-1.51,0.65l0-.1a0.77,0.77,0,0,1-.13.31h0Zm-3-.24a0.26,0.26,0,0,1,.18.06h0c0.17-.07,1.71-0.7,2-0.78a0.92,0.92,0,0,0,.37-0.23,0.66,0.66,0,0,0-.32-0.44,0.29,0.29,0,0,1-.1.19c-0.08.06-1.71,0.61-2.41,0.84L717,39.86a0.41,0.41,0,0,1,.1.3h0.12Zm-0.5-.41h0c1-.32,2.44-0.82,2.53-0.88a0.35,0.35,0,0,0,.08-0.18l0,0a0.47,0.47,0,0,0-.23-0.37l0,0a1,1,0,0,1-.25.19c-0.19.11-2,.61-2.54,0.77a0.6,0.6,0,0,1,.31.14,0.36,0.36,0,0,1,.08.38h0Zm3.16-.48a0.51,0.51,0,0,1,.37.29c0.34-.14,1.36-0.55,1.82-0.75a0.35,0.35,0,0,0,.19-0.24,0.29,0.29,0,0,0-.18-0.12l-0.07,0h0a16.5,16.5,0,0,1-2.13.86h0Zm-0.35-.56a0.77,0.77,0,0,1,.33.45,18.06,18.06,0,0,0,2.09-.84,0.57,0.57,0,0,0,.13-0.17v0h0a0.15,0.15,0,0,0,0-.07,0.3,0.3,0,0,0-.19-0.16l0-.09-0.1.08a17.54,17.54,0,0,1-2.29.85h0Zm-3.78.08a0.37,0.37,0,0,1,.4.37c0.87-.24,2.48-0.71,2.65-0.8a0.79,0.79,0,0,0,.29-0.24l0.06,0a0.69,0.69,0,0,0-.21-0.41l0-.05-3.19,1.08,0,0.09h0.06Zm3.5-.57a0.58,0.58,0,0,1,.24.4,22,22,0,0,0,2.27-.86,0.36,0.36,0,0,0,.18-0.26,0.29,0.29,0,0,0-.16-0.18c-0.76.3-2.13,0.73-2.51,0.85v0.06h0Zm-3.89,0a0.37,0.37,0,0,1,.37.28,0.27,0.27,0,0,1,0,.06l3.13-1a0.81,0.81,0,0,0,0-.42,0.18,0.18,0,0,0-.14-0.1v0l-2.83.83v0a1,1,0,0,1-.5.45l-0.06,0h0Zm3.64-.66a0.9,0.9,0,0,1,.26.47c0.47-.15,1.76-0.56,2.46-0.83a0.53,0.53,0,0,0,.07-0.41,0.26,0.26,0,0,0-.16-0.14v0a18,18,0,0,1-2.61.8v0a1.06,1.06,0,0,1-.07.21h0l0.05,0h0Zm-0.14-.66A0.28,0.28,0,0,1,719,37a0.47,0.47,0,0,1,0,.26,18.18,18.18,0,0,0,2.54-.76,0.35,0.35,0,0,0-.14-0.49l0,0a7.25,7.25,0,0,1-2.3.62,1.58,1.58,0,0,1-.22.28h0Zm3.23,2.73L722,39.53l0.82-.39,0,0.11-0.82.39h0Z" transform="translate(-668.5 -28.99)"/>
    </g>
  </g>
</svg>