<svg xmlns="http://www.w3.org/2000/svg" xmlns:xlink="http://www.w3.org/1999/xlink" viewBox="0 0 58.92 34.37">
  <defs>
    <style>
      .a {
        fill: none;
      }

      .b {
        clip-path: url(#a);
      }

      .c {
        fill: #d90037;
      }

      .d {
        fill: #eee528;
      }

      .e {
        fill: #221e88;
      }

      .f {
        fill: #272425;
      }

      .g {
        fill: #dbc190;
      }

      .h {
        fill: #4b2508;
      }

      .i {
        fill: #fff;
      }

      .j {
        fill: #f9eb2e;
      }

      .k {
        fill: #3227fc;
      }
    </style>
    <clipPath id="a" transform="translate(-739.19 -28.99)">
      <rect class="a" x="739.19" y="28.99" width="58.92" height="34.37"/>
    </clipPath>
  </defs>
  <title>Andorra</title>
  <g class="b">
    <rect class="c" x="40.5" width="18.43" height="34.37"/>
    <rect class="d" x="18.43" width="22.07" height="34.37"/>
    <rect class="e" width="18.43" height="34.37"/>
    <g class="b">
      <path class="f" d="M769.37,39.16a0.17,0.17,0,0,1,0-.26,0.22,0.22,0,0,1,.27,0l0.11,0.06a0,0,0,0,1,0,0h0l-0.12-.07a0.19,0.19,0,0,0-.24,0,0.18,0.18,0,0,0,0,.25h0Z" transform="translate(-739.19 -28.99)"/>
      <path class="g" d="M762.3,48.49l0.09-.16,0.07-.11,0.09-.16,0-.08h0a0,0,0,0,1,0,0l0,0.08,0,0.06h0l0,0.09-0.07.12-0.11.15h0Z" transform="translate(-739.19 -28.99)"/>
      <path class="g" d="M766.82,36.46c0.73,0,1,.62,1.75.62a2,2,0,0,0,1.1-.37,1.36,1.36,0,0,1,.76-0.24,0.69,0.69,0,0,1,.68.37,1.08,1.08,0,0,1,.13.63,3.74,3.74,0,0,1-.26.78,0.91,0.91,0,0,0-.12.39,0.78,0.78,0,0,0,.88.52,1.64,1.64,0,0,0,1.13-.39,0.46,0.46,0,0,1-.46-0.39,0.51,0.51,0,0,1,.41-0.49,1.29,1.29,0,0,0,.16,0,0.77,0.77,0,0,0,.08-0.13,0.49,0.49,0,0,1,.34-0.15,0.34,0.34,0,0,1,.23.07,0.19,0.19,0,0,0,.11.07c0.11,0,.16-0.07.27-0.07a0.39,0.39,0,0,1,.21.05,0.48,0.48,0,0,0,.13.14,2.45,2.45,0,0,1,.33-0.08,0.53,0.53,0,0,1,.45.23,0.29,0.29,0,0,0,.1.13,0.58,0.58,0,0,1,.35.15,0.62,0.62,0,0,1,.1.12,0.41,0.41,0,0,0,.11.15,0.63,0.63,0,0,1,.16.06,0.56,0.56,0,0,1,.27.46,1.18,1.18,0,0,1,0,.2,3.84,3.84,0,0,1-1,1.34,1.06,1.06,0,0,0-.32.7,0.68,0.68,0,0,0,.13.26,0.25,0.25,0,0,1,.18-0.31,0.37,0.37,0,0,1,.38.33,0.45,0.45,0,0,1,0,.17,0.84,0.84,0,0,1,.37-0.13H776a1.57,1.57,0,0,1,.88.37,2,2,0,0,1,.69,1.58,1.67,1.67,0,0,1-1.3,1.75,0.56,0.56,0,0,1,.39.49,0.43,0.43,0,0,1-.42.44,0.42,0.42,0,0,1-.32-0.13,1.13,1.13,0,0,0-.31.91,1.16,1.16,0,0,0,.14.56,1.25,1.25,0,0,0,.35.49,0.44,0.44,0,0,1,.37-0.25,0.37,0.37,0,0,1,.38.2s0,0.08,0,.13,0.08,0.07.11,0.13,0,0.16,0,.25,0.08,0.07.11,0.13a0.57,0.57,0,0,1,0,.26,0.51,0.51,0,0,1-.54.49,2.12,2.12,0,0,0-.22,0,2.3,2.3,0,0,1,.41.43,1.68,1.68,0,0,1,.26.81,1.48,1.48,0,0,1,0,.16,2,2,0,0,1-.26,1.05,1.89,1.89,0,0,1-.66.8,3.29,3.29,0,0,1-1.51.59,6.83,6.83,0,0,1-1,.14l-1.33.07a2.21,2.21,0,0,0-1.62.62,0.72,0.72,0,0,1,.38.61,0.6,0.6,0,0,1-.45.58,0.88,0.88,0,0,0-.17,0c-0.07,0-.07.12-0.13,0.16a0.6,0.6,0,0,1-.36.09,0.76,0.76,0,0,1-.6-0.24,3.32,3.32,0,0,1-.51.46,0.42,0.42,0,0,1-.2.1,0.52,0.52,0,0,1-.32-0.17,2.18,2.18,0,0,1-.42-0.38,1,1,0,0,1-.59.23,0.61,0.61,0,0,1-.37-0.1c-0.07,0-.08-0.1-0.14-0.15a1.09,1.09,0,0,0-.2-0.06,0.69,0.69,0,0,1-.47-0.64,0.61,0.61,0,0,1,.42-0.56,2.16,2.16,0,0,0-1.6-.59l-1.32-.07a9.1,9.1,0,0,1-1-.14,2.48,2.48,0,0,1-.77-0.2,2.58,2.58,0,0,1-1.7-2.12,1.86,1.86,0,0,1,0-.23,1.65,1.65,0,0,1,.6-1.27,2,2,0,0,1-.26,0,0.55,0.55,0,0,1-.42-0.51,0.43,0.43,0,0,1,.05-0.24,0.51,0.51,0,0,0,.11-0.14,0.91,0.91,0,0,1,0-.23c0-.05.08-0.06,0.1-0.12a0.44,0.44,0,0,1,.38-0.32,0.4,0.4,0,0,1,.36.23,0.71,0.71,0,0,0,.3-0.35,1.26,1.26,0,0,0,.22-0.73,1.39,1.39,0,0,0-.09-0.52,0.72,0.72,0,0,0-.17-0.34,0.42,0.42,0,0,1-.32.13,0.49,0.49,0,0,1-.48-0.5,0.45,0.45,0,0,1,.28-0.43,3,3,0,0,0-.44-0.24,1.56,1.56,0,0,1-.49-0.56,1.47,1.47,0,0,1-.19-0.45,1.78,1.78,0,0,1-.1-0.58,0.8,0.8,0,0,1,0-.15,1.93,1.93,0,0,1,.43-1.11,1.26,1.26,0,0,1,.54-0.46,1.28,1.28,0,0,1,.58-0.16h0.18a0.66,0.66,0,0,1,.27.08s0.1,0.08.1,0,0-.07,0-0.12a0.36,0.36,0,0,1,.34-0.37,0.34,0.34,0,0,1,.27.25,0.37,0.37,0,0,0,.07-0.21,1.13,1.13,0,0,0-.37-0.74c-0.44-.55-1-0.8-1-1.5a0.51,0.51,0,0,1,.28-0.46c0.05,0,.12,0,0.17,0a0.33,0.33,0,0,0,.07-0.13,0.58,0.58,0,0,1,.14-0.15,2.47,2.47,0,0,1,.3-0.14,0.63,0.63,0,0,0,.11-0.14,0.5,0.5,0,0,1,.43-0.22,0.55,0.55,0,0,1,.24,0,0.66,0.66,0,0,0,.1,0,0.4,0.4,0,0,1,.13-0.11,0.38,0.38,0,0,1,.21-0.05c0.11,0,.17.06,0.28,0.06a0.14,0.14,0,0,0,.08-0.06,0.4,0.4,0,0,1,.26-0.1,0.43,0.43,0,0,1,.26.09c0.09,0.05.1,0.13,0.19,0.18a0.61,0.61,0,0,0,.14,0,0.54,0.54,0,0,1,.43.5,0.38,0.38,0,0,1-.14.33,0.58,0.58,0,0,1-.26.09,1.51,1.51,0,0,0,1.06.34,0.76,0.76,0,0,0,.88-0.56,1.1,1.1,0,0,0-.17-0.45,1.75,1.75,0,0,1-.2-0.81,0.92,0.92,0,0,1,.18-0.63,0.65,0.65,0,0,1,.61-0.27h0Z" transform="translate(-739.19 -28.99)"/>
      <path class="f" d="M761.59,42.68l-0.1,0a0,0,0,0,1,0,0h0a0.17,0.17,0,0,0,.18,0,0.21,0.21,0,0,0,.07-0.2,0.26,0.26,0,0,0-.22-0.2,0.24,0.24,0,0,1,.25.19,0.23,0.23,0,0,1-.08.23,0.18,0.18,0,0,1-.11,0h0Z" transform="translate(-739.19 -28.99)"/>
      <path class="g" d="M769.13,54.89a0.52,0.52,0,0,1-.52-0.46,1.27,1.27,0,0,1,0-.15,1.21,1.21,0,0,1,.41-0.63l0.08-.07a1.39,1.39,0,0,1,.24-0.18,3.8,3.8,0,0,1,1-.43l0.24-.06,0.42-.08,0.14,0a5.16,5.16,0,0,1,.52-0.05h0.19c0.26,0,.47,0,0.68,0h1l0.53,0a2.82,2.82,0,0,0,1.35-.38,1.47,1.47,0,0,0,.61-1.64,1,1,0,0,0-.1-0.23l-0.1-.15a0.69,0.69,0,0,0-.23-0.19,0.5,0.5,0,0,0-.56.07,0.32,0.32,0,0,0-.09.3,0.29,0.29,0,0,0,.06.11,0,0,0,0,1,0,0h0a0.3,0.3,0,0,1-.06-0.12,0.34,0.34,0,0,1,.09-0.33,0.52,0.52,0,0,1,.58-0.08,0.72,0.72,0,0,1,.25.2l0.1,0.15a1.16,1.16,0,0,1,.1.23,1.49,1.49,0,0,1-.62,1.68,2.85,2.85,0,0,1-1.36.39l-0.53,0h-1c-0.21,0-.42,0-0.68,0h-0.19a5.12,5.12,0,0,0-.52.05l-0.14,0-0.37.07-0.28.08a3.71,3.71,0,0,0-.91.39,1.36,1.36,0,0,0-.23.16l-0.13.11a0.85,0.85,0,0,0-.41.77,0.53,0.53,0,0,0,.5.46h0Z" transform="translate(-739.19 -28.99)"/>
      <path class="h" d="M770.45,54.89a0.35,0.35,0,0,1-.31-0.21,0.49,0.49,0,0,0,.35.15,0.19,0.19,0,0,0,.13-0.07,0.17,0.17,0,0,0,0-.14V54.54h0a0.2,0.2,0,0,0-.06-0.08l0,0a0.3,0.3,0,0,1,.08.1l0,0.09a0.24,0.24,0,0,1,0,.18,0.25,0.25,0,0,1-.17.09h0Z" transform="translate(-739.19 -28.99)"/>
      <path class="h" d="M761.72,52.17a1.32,1.32,0,0,1-.44-1.46,1.19,1.19,0,0,1,.11-0.24l0.1-.14a0.74,0.74,0,0,1,.25-0.21,0.5,0.5,0,0,1,.59.09,0.34,0.34,0,0,1,0,.4,0.15,0.15,0,0,1-.18.06,0.12,0.12,0,0,1-.09-0.06l0-.07,0,0c0.11,0,.14.05,0.18,0a0.29,0.29,0,0,0,0-.33,0.43,0.43,0,0,0-.51-0.08,0.66,0.66,0,0,0-.23.19l-0.11.15a1,1,0,0,0-.1.22,1.42,1.42,0,0,0,.38,1.46h0Z" transform="translate(-739.19 -28.99)"/>
      <path class="h" d="M770.43,54.87a0.33,0.33,0,0,1-.3-0.21,0.48,0.48,0,0,0,.34.15,0.19,0.19,0,0,0,.13-0.07,0.18,0.18,0,0,0,0-.14,0.22,0.22,0,0,0,0-.07h0l-0.06-.07a0,0,0,0,1,0,0,0,0,0,0,1,0,0l0.06,0.08a0.25,0.25,0,0,1,0,.09,0.23,0.23,0,0,1,0,.18,0.25,0.25,0,0,1-.17.09h0Z" transform="translate(-739.19 -28.99)"/>
      <path class="h" d="M767.9,39.19a0.3,0.3,0,0,0,0-.27,0.19,0.19,0,0,0-.23,0l-0.22.12a0,0,0,0,1,0,0,0,0,0,0,1,0,0l0.22-.12a0.25,0.25,0,0,1,.31,0,0.23,0.23,0,0,1,0,.3h0Z" transform="translate(-739.19 -28.99)"/>
      <path class="f" d="M764.19,38.57a0.34,0.34,0,0,0,.23.23,0.35,0.35,0,0,0,.36-0.13,0.4,0.4,0,0,0,0-.38,0.43,0.43,0,0,0-.16-0.21l-0.48.49h0Z" transform="translate(-739.19 -28.99)"/>
      <path class="h" d="M764.49,38.84h-0.08a0.37,0.37,0,0,1-.25-0.25l0.48-.52a0.37,0.37,0,0,1,.21.22,0.44,0.44,0,0,1-.06.4,0.39,0.39,0,0,1-.31.15h0Zm0.16-.73-0.44.48a0.39,0.39,0,0,0,.22.19h0.06a0.33,0.33,0,0,0,.26-0.13,0.38,0.38,0,0,0,0-.35,0.39,0.39,0,0,0-.15-0.19h0Z" transform="translate(-739.19 -28.99)"/>
      <polygon class="g" points="25.41 9.03 25.48 9.08 25.55 9.16 25.59 9.25 25.61 9.33 25.62 9.43 25.61 9.5 25.59 9.58 25.55 9.64 25.49 9.7 25.41 9.74 25.31 9.76 25.22 9.78 25.13 9.73 25.04 9.67 24.99 9.6 24.95 9.51 24.95 9.47 25.41 9.03"/>
      <path class="h" d="M766.29,39.56V39.5a4.34,4.34,0,0,0,1.25-.51,3,3,0,0,1-1.23.57h0Z" transform="translate(-739.19 -28.99)"/>
      <path class="h" d="M766.27,39.53V39.48A4.35,4.35,0,0,0,767.5,39a3,3,0,0,1-1.24.57h0Z" transform="translate(-739.19 -28.99)"/>
      <path class="h" d="M768.63,55.86a1.64,1.64,0,0,1-.75-0.59,2.56,2.56,0,0,0,.75.54,1.69,1.69,0,0,0,.68-0.57l0,0a1.67,1.67,0,0,1-.73.59h0Z" transform="translate(-739.19 -28.99)"/>
      <path class="h" d="M774.18,39.13a1.25,1.25,0,0,0,.28-0.57,0.9,0.9,0,0,0-.14-0.66,0.38,0.38,0,0,0-.56-0.08,0,0,0,0,1,0,0,0,0,0,0,1,0,0,0.44,0.44,0,0,1,.63.1,1,1,0,0,1,.15.7,0.86,0.86,0,0,1-.33.56h0Z" transform="translate(-739.19 -28.99)"/>
      <path class="h" d="M774.76,39.52a1.27,1.27,0,0,0,.49-0.89,0.82,0.82,0,0,0-.14-0.56,0.51,0.51,0,0,0-.74-0.14,0,0,0,0,1,0,0,0,0,0,0,1,0,0,0.56,0.56,0,0,1,.81.15,0.88,0.88,0,0,1,.16.59,1.08,1.08,0,0,1-.55.89h0Z" transform="translate(-739.19 -28.99)"/>
      <path class="h" d="M775,42.12a0.42,0.42,0,0,1-.17,0,0.78,0.78,0,0,1-.42-0.82,2.15,2.15,0,0,1,.75-1.3,2.89,2.89,0,0,0,.25-0.28l0-.07a1.11,1.11,0,0,0,.31-0.79,0.66,0.66,0,0,0-.56-0.63V38.14a0.72,0.72,0,0,1,.62.69,1.17,1.17,0,0,1-.32.82l0,0.07a3.59,3.59,0,0,1-.25.29,2.11,2.11,0,0,0-.74,1.26,0.73,0.73,0,0,0,.38.76,0.47,0.47,0,0,0,.47-0.09,0.38,0.38,0,0,0,.12-0.39,0.28,0.28,0,0,0-.21-0.21,0.18,0.18,0,0,0-.19.07,0.2,0.2,0,0,0,0,.21,0.13,0.13,0,0,0,.14.06,0.12,0.12,0,0,1-.19,0,0.26,0.26,0,0,1,0-.27,0.23,0.23,0,0,1,.25-0.1,0.34,0.34,0,0,1,.26.25,0.44,0.44,0,0,1-.13.45,0.57,0.57,0,0,1-.36.14h0Z" transform="translate(-739.19 -28.99)"/>
      <path class="h" d="M775.06,41.68a0.37,0.37,0,0,1-.3-0.37,1.83,1.83,0,0,1,.71-1.11,3.48,3.48,0,0,0,.27-0.28,1.17,1.17,0,0,0,.38-0.86,0.45,0.45,0,0,0-.4-0.46V38.55a0.51,0.51,0,0,1,.46.51,1.21,1.21,0,0,1-.39.89,3.59,3.59,0,0,1-.27.29,1.8,1.8,0,0,0-.69,1.06,0.4,0.4,0,0,0,.29.36h0Z" transform="translate(-739.19 -28.99)"/>
      <path class="h" d="M776,45.38h-0.08a0.72,0.72,0,0,1-.54-0.24,0.61,0.61,0,0,1-.13-0.48,0.49,0.49,0,0,1,.26-0.39,0.44,0.44,0,0,1,.42,0,0.34,0.34,0,0,1,.18.36,0.29,0.29,0,0,1-.26.23,0.25,0.25,0,0,1-.24-0.13,0.16,0.16,0,0,1,0-.19,0.36,0.36,0,0,0,0,.17,0.18,0.18,0,0,0,.19.1,0.23,0.23,0,0,0,.21-0.19,0.28,0.28,0,0,0-.15-0.3,0.38,0.38,0,0,0-.36,0,0.45,0.45,0,0,0-.23.35,0.55,0.55,0,0,0,.12.44,0.67,0.67,0,0,0,.49.22,1.6,1.6,0,0,0,1-.27,2.08,2.08,0,0,0-.06-3.05,1.14,1.14,0,0,0-1.51,0,0.68,0.68,0,0,0-.14.74,0.47,0.47,0,0,0,.44.3,0.41,0.41,0,0,0,.41-0.28,0.37,0.37,0,0,0-.12-0.4,0.29,0.29,0,0,0-.24-0.06,0.27,0.27,0,0,0-.16.15,0.16,0.16,0,0,0,0,.19,0.12,0.12,0,0,0,.15,0,0,0,0,0,1,0,0,0,0,0,0,1,0,0,0.18,0.18,0,0,1-.22,0,0.21,0.21,0,0,1-.05-0.26,0.32,0.32,0,0,1,.2-0.18,0.33,0.33,0,0,1,.29.06,0.42,0.42,0,0,1,.14.47,0.46,0.46,0,0,1-.46.33,0.51,0.51,0,0,1-.49-0.33,0.73,0.73,0,0,1,.15-0.8,1.19,1.19,0,0,1,1.59,0,2,2,0,0,1,.67,1.13,1.91,1.91,0,0,1-.61,2,1.61,1.61,0,0,1-.93.29h0Z" transform="translate(-739.19 -28.99)"/>
      <path class="h" d="M776.09,45a0.62,0.62,0,0,1-.39-0.13,0.24,0.24,0,0,1-.08-0.18c0.06,0,.08.09,0.12,0.13a0.58,0.58,0,0,0,.38.12,1.17,1.17,0,0,0,1-1.43,1.33,1.33,0,0,0-1-1.43,0.47,0.47,0,0,0-.55.33h-0.05A0.53,0.53,0,0,1,776.1,42a1.38,1.38,0,0,1,1.09,1.48A1.24,1.24,0,0,1,776.12,45h0Z" transform="translate(-739.19 -28.99)"/>
      <path class="h" d="M775.85,44.89a1.4,1.4,0,0,0,0-2.6h0V42.23h0a1.22,1.22,0,0,1,.9,1.32,1.17,1.17,0,0,1-1,1.33h0Z" transform="translate(-739.19 -28.99)"/>
      <path class="h" d="M776.62,49.41a0.75,0.75,0,0,1-.21,0,2.22,2.22,0,0,1-.4-0.16,2.33,2.33,0,0,1-.54-0.39,2.11,2.11,0,0,1-.56-1.07,2.8,2.8,0,0,1,0-1.14,1.52,1.52,0,0,1,1.16-1.29,0.58,0.58,0,0,1,.33.06,0.49,0.49,0,0,1,.13.12,0.52,0.52,0,0,1,.08.16,0.49,0.49,0,0,1,0,.37,0.4,0.4,0,0,1-.25.2,0.45,0.45,0,0,1-.4-0.08,0.37,0.37,0,0,1-.12-0.34,0.24,0.24,0,0,1,.21-0.18,0.25,0.25,0,0,1,.27.18,0,0,0,0,1,0,0,0,0,0,0,1,0,0,0.2,0.2,0,0,0-.21-0.14,0.18,0.18,0,0,0-.16.13,0.32,0.32,0,0,0,.09.29,0.39,0.39,0,0,0,.35.07,0.34,0.34,0,0,0,.22-0.17,0.43,0.43,0,0,0,0-.33,0.46,0.46,0,0,0-.08-0.15,0.42,0.42,0,0,0-.11-0.11,0.53,0.53,0,0,0-.3-0.05A1.47,1.47,0,0,0,775,46.62a2.81,2.81,0,0,0,0,1.12,2.05,2.05,0,0,0,.54,1,2.23,2.23,0,0,0,.53.38,2.2,2.2,0,0,0,.38.16,0.69,0.69,0,0,0,.36,0,0.42,0.42,0,0,0,.3-0.23,0.43,0.43,0,0,0,0-.38,0.44,0.44,0,0,0-.36-0.23,0.28,0.28,0,0,0-.27.17,0.33,0.33,0,0,0,0,.13,0.25,0.25,0,0,0,.08.2,0.23,0.23,0,0,0,.22,0,0.18,0.18,0,0,0,.07-0.17,0.15,0.15,0,0,1,0,.22,0.28,0.28,0,0,1-.28,0,0.31,0.31,0,0,1-.11-0.24,0.34,0.34,0,0,1,0-.16,0.36,0.36,0,0,1,.32-0.2,0.5,0.5,0,0,1,.41.26,0.49,0.49,0,0,1,0,.44,0.48,0.48,0,0,1-.35.26l-0.18,0h0Z" transform="translate(-739.19 -28.99)"/>
      <path class="h" d="M776.58,49.09a0.44,0.44,0,0,1-.18,0L776.26,49a2,2,0,0,1-.84-0.88,1.8,1.8,0,0,1-.16-0.43,1.77,1.77,0,0,1,0-.32,2.63,2.63,0,0,1,.06-0.59,1.9,1.9,0,0,1,.39-0.86,0.48,0.48,0,0,1,.43-0.25,0.67,0.67,0,0,0-.38.29,1.85,1.85,0,0,0-.38.84,2.52,2.52,0,0,0-.06.58,1.49,1.49,0,0,0,0,.31,1.73,1.73,0,0,0,.16.41,1.93,1.93,0,0,0,.78.84L776.43,49a0.27,0.27,0,0,0,.25,0l0,0.05-0.12,0h0Z" transform="translate(-739.19 -28.99)"/>
      <path class="h" d="M776.4,48.76a0.25,0.25,0,0,1-.19-0.26,0.4,0.4,0,1,1,.79,0l0,0,0,0a0.34,0.34,0,1,0-.55.26h0Z" transform="translate(-739.19 -28.99)"/>
      <path class="h" d="M776.26,48.48a0.22,0.22,0,0,1-.15-0.23,0.38,0.38,0,0,1,.37-0.38,0.37,0.37,0,0,1,.37.32H776.8a0.31,0.31,0,0,0-.31-0.27,0.32,0.32,0,0,0-.32.32,0.33,0.33,0,0,0,.09.23h0Z" transform="translate(-739.19 -28.99)"/>
      <path class="h" d="M776.14,48.2a1.5,1.5,0,0,1-.6-1.18,1.39,1.39,0,0,1,.35-1,1.8,1.8,0,0,0-.29,1,1.43,1.43,0,0,0,.57,1.14l0,0h0Z" transform="translate(-739.19 -28.99)"/>
      <path class="h" d="M776.26,48.54a1.16,1.16,0,0,1-.62-0.51,0,0,0,0,1,0,0,0,0,0,0,1,0,0,1.56,1.56,0,0,0,.58.55h0Z" transform="translate(-739.19 -28.99)"/>
      <path class="h" d="M770.65,54.12c0.49-.69,1.41-0.73,2.38-0.77a7.79,7.79,0,0,0,2.4-.37,2.32,2.32,0,0,0,1.4-1.24,2.39,2.39,0,0,0,.21-0.93,1.53,1.53,0,0,0-.08-0.53,1.7,1.7,0,0,0-.92-1,1.21,1.21,0,0,0-.75-0.18,1,1,0,0,0-.6.33l0,0a1.1,1.1,0,0,1,.64-0.35,1.29,1.29,0,0,1,.79.19,1.76,1.76,0,0,1,.95,1.08,1.59,1.59,0,0,1,.08.55,2.38,2.38,0,0,1-.19.9A2.41,2.41,0,0,1,775.46,53a7.84,7.84,0,0,1-2.42.37,3,3,0,0,0-2.38.71h0Z" transform="translate(-739.19 -28.99)"/>
      <path class="h" d="M775,50.93h0a0.71,0.71,0,0,1-.49-0.26,1,1,0,0,1-.17-0.93,0.75,0.75,0,0,1,.41-0.43,1.52,1.52,0,0,1,1.45.21,0,0,0,0,1,0,0,0,0,0,0,1,0,0,1.46,1.46,0,0,0-1.39-.2,0.7,0.7,0,0,0-.39.39,0.91,0.91,0,0,0,.16.87,0.66,0.66,0,0,0,.45.24h0a0.37,0.37,0,0,0,.41-0.28,0.26,0.26,0,0,0-.36-0.34,0.14,0.14,0,0,0-.08.08,0.22,0.22,0,0,0,0,.17,0.14,0.14,0,0,1-.07-0.18,0.2,0.2,0,0,1,.11-0.12,0.31,0.31,0,0,1,.44.4,0.43,0.43,0,0,1-.46.33h0Z" transform="translate(-739.19 -28.99)"/>
      <path class="h" d="M769.14,54.87a0.49,0.49,0,0,1-.54-0.44,1.31,1.31,0,0,1,0-.15,1.22,1.22,0,0,1,.42-0.64l0.08-.07a1.36,1.36,0,0,1,.24-0.18,3.81,3.81,0,0,1,1-.43l0.24-.06,0.42-.08,0.14,0a5.25,5.25,0,0,1,.53-0.05h0.19c0.26,0,.47,0,0.68,0h1.07l0.44,0a3.33,3.33,0,0,0,1.34-.38,1.43,1.43,0,0,0,.6-1.62,1,1,0,0,0-.1-0.23l-0.11-.15a0.67,0.67,0,0,0-.23-0.19,0.4,0.4,0,0,0-.52.08,0.32,0.32,0,0,0-.08.29l-0.05,0a0.37,0.37,0,0,1,.09-0.34,0.45,0.45,0,0,1,.59-0.09,0.7,0.7,0,0,1,.25.2l0.11,0.15a1.11,1.11,0,0,1,.1.23,1.5,1.5,0,0,1-.63,1.7,3.39,3.39,0,0,1-1.36.39l-0.45,0H772.5c-0.21,0-.42,0-0.67,0h-0.19a5.14,5.14,0,0,0-.52.05l-0.14,0-0.37.07-0.28.08a3.64,3.64,0,0,0-.91.39,1.5,1.5,0,0,0-.23.16l-0.13.11a1.18,1.18,0,0,0-.4.61,1.15,1.15,0,0,0,0,.15,0.52,0.52,0,0,0,.48.44h0Z" transform="translate(-739.19 -28.99)"/>
      <path class="h" d="M770.38,55.29a0.67,0.67,0,0,1-.46-0.19,0.81,0.81,0,0,1-.25-0.57c0-.88,1.46-1.24,1.52-1.25a8.08,8.08,0,0,1,1.69-.22h0.35c0.19,0,.37,0,0.6,0a5.74,5.74,0,0,0,.84-0.13,2.55,2.55,0,0,0,1.17-.59,1.72,1.72,0,0,0,.55-0.76,1.57,1.57,0,0,0-.11-1.28,1.32,1.32,0,0,0-1-.62,0.75,0.75,0,0,0-.81.43,0.7,0.7,0,0,0,0,.55,0.54,0.54,0,0,0,.43.27h0a0.37,0.37,0,0,0,.41-0.28,0.26,0.26,0,0,0-.36-0.34,0.14,0.14,0,0,0-.08.08,0.22,0.22,0,0,0,0,.17,0.14,0.14,0,0,1-.07-0.18,0.2,0.2,0,0,1,.11-0.12,0.31,0.31,0,0,1,.44.4,0.43,0.43,0,0,1-.46.33h0a0.6,0.6,0,0,1-.48-0.3,0.76,0.76,0,0,1,0-.61,0.82,0.82,0,0,1,.87-0.46,1.38,1.38,0,0,1,1,.65,1.64,1.64,0,0,1,.12,1.34,1.78,1.78,0,0,1-.56.78,2.58,2.58,0,0,1-1.19.6,5.39,5.39,0,0,1-.82.13c-0.26,0-.45,0-0.64,0h-0.35a8,8,0,0,0-1.68.22c-0.51.12-1.48,0.53-1.48,1.19a0.75,0.75,0,0,0,.23.53,0.6,0.6,0,0,0,.45.18,0.67,0.67,0,0,0,.49-0.22,0.52,0.52,0,0,0,.13-0.37,0.72,0.72,0,0,0,0-.21,0.5,0.5,0,0,0-.44-0.31,0.35,0.35,0,0,0-.28.13,0.37,0.37,0,0,0-.1.29,0.31,0.31,0,0,0,.1.21,0.24,0.24,0,0,0,.19,0,0.18,0.18,0,0,0,.14-0.08,0.21,0.21,0,0,0,0-.2,0,0,0,0,1,0,0,0,0,0,0,1,0,0,0.26,0.26,0,0,1,0,.25,0.24,0.24,0,0,1-.19.11,0.29,0.29,0,0,1-.23-0.06,0.36,0.36,0,0,1-.12-0.25,0.43,0.43,0,0,1,.11-0.33,0.42,0.42,0,0,1,.32-0.14,0.56,0.56,0,0,1,.5.35,0.69,0.69,0,0,1,0,.23,0.57,0.57,0,0,1-.14.41,0.72,0.72,0,0,1-.53.24h0Z" transform="translate(-739.19 -28.99)"/>
      <path class="h" d="M769.93,55.54a0.8,0.8,0,0,1-.54-0.2,1,1,0,0,1-.21-1.21,2.1,2.1,0,0,1,1.09-.81,0,0,0,0,1,0,0,0,0,0,0,1,0,0,2,2,0,0,0-1.06.79,0.92,0.92,0,0,0-.11.44,0.93,0.93,0,0,0,.3.69,0.76,0.76,0,0,0,.61.19,0.46,0.46,0,0,0,.35-0.22,0.34,0.34,0,0,1-.35.28h-0.11Z" transform="translate(-739.19 -28.99)"/>
      <path class="h" d="M775.52,43.5a1,1,0,0,1-.27,0,1.11,1.11,0,0,1-.86-1,0.7,0.7,0,0,1,.26-0.56l0,0a0.65,0.65,0,0,0-.24.52,1,1,0,0,0,.82.91,0.76,0.76,0,0,0,.56,0,0.39,0.39,0,0,1-.31.12h0Z" transform="translate(-739.19 -28.99)"/>
      <path class="h" d="M774.81,46.07a0.65,0.65,0,0,1-.42-0.68,0.78,0.78,0,0,1,.38-0.74l0,0.05a0.74,0.74,0,0,0-.35.68,0.75,0.75,0,0,0,.36.68h0Z" transform="translate(-739.19 -28.99)"/>
      <path class="h" d="M774.92,48.44a1.57,1.57,0,0,1-.53-1.26,2,2,0,0,1,.6-1.35,0,0,0,0,1,0,0,0,0,0,0,1,0,0,1.94,1.94,0,0,0-.59,1.31,1.77,1.77,0,0,0,.47,1.26h0Z" transform="translate(-739.19 -28.99)"/>
      <path class="h" d="M773.53,39.1a1.16,1.16,0,0,0,.34-0.54,0.77,0.77,0,0,0-.23-0.81,0.38,0.38,0,0,0-.3-0.07,0.47,0.47,0,0,0-.31.21l-0.08,0,0,0a0.54,0.54,0,0,1,.36-0.25,0.45,0.45,0,0,1,.34.09,0.89,0.89,0,0,1-.14,1.4h0Z" transform="translate(-739.19 -28.99)"/>
      <path class="h" d="M765.66,39.57a2.28,2.28,0,0,1-1.31-.36,0.89,0.89,0,0,1-.57-1,0.49,0.49,0,0,1,.33-0.29,0.61,0.61,0,0,1,.52.1,0.44,0.44,0,0,1,.17.22,0.45,0.45,0,0,1-.05.4,0.39,0.39,0,0,1-.39.14,0.37,0.37,0,0,1-.25-0.24,0.27,0.27,0,0,1,0-.25,0.17,0.17,0,0,1,.18-0.06,0.21,0.21,0,0,1,.15.17,0,0,0,0,1,0,0,0,0,0,0,1,0,0,0.15,0.15,0,0,0-.11-0.12,0.12,0.12,0,0,0-.12,0,0.22,0.22,0,0,0,0,.2,0.31,0.31,0,0,0,.21.2,0.33,0.33,0,0,0,.33-0.12,0.39,0.39,0,0,0,0-.35,0.39,0.39,0,0,0-.15-0.19,0.55,0.55,0,0,0-.46-0.09,0.43,0.43,0,0,0-.29.26,0.84,0.84,0,0,0,.55.94,2.32,2.32,0,0,0,1.31.35,3.74,3.74,0,0,0,1.81-.59l0.12-.07a0.23,0.23,0,0,1,.29,0,0.22,0.22,0,0,1,0,.3,0.29,0.29,0,0,0,0-.26,0.17,0.17,0,0,0-.22,0l-0.12.06a3.8,3.8,0,0,1-1.84.59h0Z" transform="translate(-739.19 -28.99)"/>
      <path class="h" d="M763.11,39.08a0.64,0.64,0,0,1-.37-0.51,0.87,0.87,0,0,1,.15-0.7,0.48,0.48,0,0,1,.63-0.1,0,0,0,0,1,0,0,0,0,0,0,1,0,0,0.42,0.42,0,0,0-.56.08,0.82,0.82,0,0,0-.14.66,0.81,0.81,0,0,0,.32.52h0Z" transform="translate(-739.19 -28.99)"/>
      <path class="h" d="M762.52,39.47a0.9,0.9,0,0,1-.58-0.84,0.86,0.86,0,0,1,.15-0.59,0.57,0.57,0,0,1,.82-0.15l0,0a0.51,0.51,0,0,0-.74.14,0.82,0.82,0,0,0-.14.56,1,1,0,0,0,.52.84h0Z" transform="translate(-739.19 -28.99)"/>
      <path class="h" d="M762.26,42.12A0.57,0.57,0,0,1,761.9,42a0.44,0.44,0,0,1-.13-0.45,0.33,0.33,0,0,1,.25-0.25,0.24,0.24,0,0,1,.25.1,0.26,0.26,0,0,1,0,.27,0.19,0.19,0,0,1-.2.09,0.5,0.5,0,0,0,.15-0.12,0.2,0.2,0,0,0,0-.21,0.18,0.18,0,0,0-.19-0.07,0.28,0.28,0,0,0-.21.21,0.39,0.39,0,0,0,.12.39,0.47,0.47,0,0,0,.47.09,0.73,0.73,0,0,0,.38-0.76,2.1,2.1,0,0,0-.74-1.26,3.29,3.29,0,0,1-.26-0.29,1.3,1.3,0,0,1-.34-0.92,0.66,0.66,0,0,1,.59-0.66V38.2a0.61,0.61,0,0,0-.54.6,1.25,1.25,0,0,0,.33.88,3.05,3.05,0,0,0,.25.28,2.15,2.15,0,0,1,.76,1.3,0.78,0.78,0,0,1-.42.82,0.42,0.42,0,0,1-.17,0h0Z" transform="translate(-739.19 -28.99)"/>
      <path class="h" d="M762.16,41.74h0a0.34,0.34,0,0,1,.09-0.08,0.51,0.51,0,0,0,.15-0.35,1.83,1.83,0,0,0-.67-1.08c-0.1-.1-0.19-0.19-0.25-0.27a1.31,1.31,0,0,1-.44-0.9,0.54,0.54,0,0,1,.5-0.5v0.06a0.48,0.48,0,0,0-.45.45,1.2,1.2,0,0,0,.4.83,3.82,3.82,0,0,0,.28.3,1.85,1.85,0,0,1,.69,1.12,0.57,0.57,0,0,1-.18.4,0.16,0.16,0,0,1-.1,0h0Z" transform="translate(-739.19 -28.99)"/>
      <path class="h" d="M761.24,45.38A1.46,1.46,0,0,1,760.3,45l-0.11-.11-0.07-.08L760,44.67a2.17,2.17,0,0,1-.34-1.12,2.15,2.15,0,0,1,.06-0.48,2,2,0,0,1,.67-1.11,1.15,1.15,0,0,1,1.56,0,0.76,0.76,0,0,1,.13.81,0.49,0.49,0,0,1-.47.32,0.46,0.46,0,0,1-.47-0.33,0.42,0.42,0,0,1,.14-0.46,0.36,0.36,0,0,1,.31-0.07,0.29,0.29,0,0,1,.18.17,0.23,0.23,0,0,1-.07.27,0.17,0.17,0,0,1-.21,0,0,0,0,0,1,0,0,0,0,0,0,1,0,0,0.12,0.12,0,0,0,.15,0,0.18,0.18,0,0,0,.05-0.21,0.23,0.23,0,0,0-.14-0.13,0.31,0.31,0,0,0-.26.06,0.36,0.36,0,0,0-.12.4,0.41,0.41,0,0,0,.41.29,0.48,0.48,0,0,0,.42-0.29A0.7,0.7,0,0,0,761.9,42a1.09,1.09,0,0,0-1.47,0,2,2,0,0,0-.65,1.08,2.07,2.07,0,0,0-.06.47,2,2,0,0,0,0,.38,2,2,0,0,0,.29.7l0.12,0.15,0.08,0.08,0.1,0.1a1.41,1.41,0,0,0,1,.35,0.67,0.67,0,0,0,.5-0.22,0.56,0.56,0,0,0,.12-0.44,0.46,0.46,0,0,0-.26-0.37,0.31,0.31,0,0,0-.45.33,0.23,0.23,0,0,0,.17.19,0.15,0.15,0,0,0,.17-0.07,0.12,0.12,0,0,0,0-.15c0.1,0,.11.11,0.06,0.18a0.21,0.21,0,0,1-.23.1,0.29,0.29,0,0,1-.21-0.24,0.38,0.38,0,0,1,.14-0.36,0.39,0.39,0,0,1,.39,0,0.52,0.52,0,0,1,.3.42,0.63,0.63,0,0,1-.14.49,0.73,0.73,0,0,1-.54.24h-0.06Z" transform="translate(-739.19 -28.99)"/>
      <path class="h" d="M760.62,49.41l-0.17,0a0.48,0.48,0,0,1-.32-0.69,0.46,0.46,0,0,1,.39-0.27,0.37,0.37,0,0,1,.35.2,0.36,0.36,0,0,1,0,.16,0.31,0.31,0,0,1-.11.24,0.28,0.28,0,0,1-.28,0,0.23,0.23,0,0,1-.1-0.22,0.47,0.47,0,0,0,.13.17,0.23,0.23,0,0,0,.22,0,0.27,0.27,0,0,0,.08-0.2,0.32,0.32,0,0,0,0-.13,0.3,0.3,0,0,0-.3-0.17,0.4,0.4,0,0,0-.34.23,0.43,0.43,0,0,0,.28.61,0.64,0.64,0,0,0,.36,0,2.23,2.23,0,0,0,.38-0.16,2.35,2.35,0,0,0,.54-0.38,2.1,2.1,0,0,0,.54-1,2.77,2.77,0,0,0,0-1.12,1.46,1.46,0,0,0-1.11-1.24,0.54,0.54,0,0,0-.3.05,0.47,0.47,0,0,0-.11.11,0.48,0.48,0,0,0-.07.15,0.43,0.43,0,0,0,0,.33,0.34,0.34,0,0,0,.21.17,0.39,0.39,0,0,0,.35-0.07,0.32,0.32,0,0,0,.09-0.29,0.18,0.18,0,0,0-.16-0.13,0.2,0.2,0,0,0-.21.14,0,0,0,0,1,0,0,0,0,0,0,1,0,0,0.26,0.26,0,0,1,.27-0.18,0.24,0.24,0,0,1,.21.19,0.37,0.37,0,0,1-.11.34,0.45,0.45,0,0,1-.4.08,0.4,0.4,0,0,1-.25-0.2,0.49,0.49,0,0,1,0-.37,0.57,0.57,0,0,1,.08-0.16,0.55,0.55,0,0,1,.13-0.12,0.59,0.59,0,0,1,.33-0.06,1.52,1.52,0,0,1,1.16,1.29,2.85,2.85,0,0,1,0,1.14,2.15,2.15,0,0,1-.56,1.07,2.41,2.41,0,0,1-.55.39,2.33,2.33,0,0,1-.4.16,0.83,0.83,0,0,1-.22,0h0Z" transform="translate(-739.19 -28.99)"/>
      <path class="h" d="M760.67,49.09l-0.12,0,0-.05a0.28,0.28,0,0,0,.25,0l0.11-.06,0.06,0a1.94,1.94,0,0,0,.78-0.84,1.83,1.83,0,0,0,.15-0.41,1.28,1.28,0,0,0,0-.31,2.26,2.26,0,0,0-.06-0.58,1.9,1.9,0,0,0-.38-0.84,0.43,0.43,0,0,0-.38-0.23,0.37,0.37,0,0,1,.43.2,2,2,0,0,1,.39.86,2.44,2.44,0,0,1,.06.59,1.39,1.39,0,0,1,0,.32,1.83,1.83,0,0,1-.16.43,2,2,0,0,1-.8.86l-0.18.09a0.44,0.44,0,0,1-.18,0h0Z" transform="translate(-739.19 -28.99)"/>
      <path class="h" d="M760.88,48.8a0.89,0.89,0,0,0,.09-0.31,0.34,0.34,0,0,0-.68,0l-0.05.07V48.49a0.4,0.4,0,0,1,.79,0,0.4,0.4,0,0,1-.15.31h0Z" transform="translate(-739.19 -28.99)"/>
      <path class="h" d="M761,48.52a1.9,1.9,0,0,0,0-.27,0.32,0.32,0,0,0-.63-0.05h-0.06a0.37,0.37,0,0,1,.74.06,0.38,0.38,0,0,1-.1.27h0Z" transform="translate(-739.19 -28.99)"/>
      <path class="h" d="M761.1,48.2l0,0a1.41,1.41,0,0,0,.57-1.14,1.32,1.32,0,0,0-.33-0.92,1.09,1.09,0,0,1,.38.92,1.48,1.48,0,0,1-.6,1.18h0Z" transform="translate(-739.19 -28.99)"/>
      <path class="h" d="M761,48.59a2.46,2.46,0,0,0,.55-0.6,0,0,0,0,1,0,0,0,0,0,0,1,0,0,1.62,1.62,0,0,1-.6.57h0Z" transform="translate(-739.19 -28.99)"/>
      <path class="h" d="M766.66,54.07a3.39,3.39,0,0,0-2.43-.67A7.77,7.77,0,0,1,761.8,53a2.38,2.38,0,0,1-1.43-1.27,2.44,2.44,0,0,1-.21-1,1.62,1.62,0,0,1,.08-0.55,1.76,1.76,0,0,1,.95-1.08A1.31,1.31,0,0,1,762,49a0.61,0.61,0,0,1,.57.35l-0.05,0A0.55,0.55,0,0,0,762,49a1.24,1.24,0,0,0-.76.18,1.71,1.71,0,0,0-.92,1,1.55,1.55,0,0,0-.08.53,2.3,2.3,0,0,0,.18.87,2.37,2.37,0,0,0,1.43,1.3,7.76,7.76,0,0,0,2.4.37,3.1,3.1,0,0,1,2.43.73h0Z" transform="translate(-739.19 -28.99)"/>
      <path class="h" d="M762.29,50.93a0.44,0.44,0,0,1-.47-0.33,0.35,0.35,0,0,1,.21-0.42,0.34,0.34,0,0,1,.24,0,0.2,0.2,0,0,1,.11.12,0.29,0.29,0,0,1,0,.21c0-.08,0-0.15,0-0.2a0.13,0.13,0,0,0-.07-0.08,0.3,0.3,0,0,0-.19,0,0.29,0.29,0,0,0-.17.36,0.38,0.38,0,0,0,.42.28,0.68,0.68,0,0,0,.45-0.24,0.91,0.91,0,0,0,.16-0.87,0.7,0.7,0,0,0-.39-0.39,1.47,1.47,0,0,0-1.39.2,0,0,0,0,1,0,0,0,0,0,0,1,0,0,1.52,1.52,0,0,1,1.45-.21,0.76,0.76,0,0,1,.42.43,1,1,0,0,1-.17.93,0.72,0.72,0,0,1-.49.26h0Z" transform="translate(-739.19 -28.99)"/>
      <path class="h" d="M768.12,54.93a0.62,0.62,0,0,0,.47-0.5,0.68,0.68,0,0,0,0-.14,1.17,1.17,0,0,0-.4-0.61l-0.07-.06-0.06-.05a0.89,0.89,0,0,0-.16-0.12l-0.06,0a3.65,3.65,0,0,0-.91-0.39l-0.1-.06v0l-0.13,0-0.41-.08-0.14,0a5,5,0,0,0-.52-0.05h-0.19c-0.26,0-.47,0-0.68,0h-1l-0.53,0a2.87,2.87,0,0,1-1.37-.39,1.51,1.51,0,0,1-.63-1.69,1.12,1.12,0,0,1,.11-0.24l0.11-.15a0.7,0.7,0,0,1,.25-0.2,0.5,0.5,0,0,1,.59.09,0.35,0.35,0,0,1,.09.34h-0.06a0.3,0.3,0,0,0-.07-0.29,0.45,0.45,0,0,0-.52-0.08,0.66,0.66,0,0,0-.23.19l-0.11.15a1.14,1.14,0,0,0-.1.22,1.45,1.45,0,0,0,.6,1.63,2.84,2.84,0,0,0,1.34.38l0.53,0h1c0.2,0,.42,0,0.68,0h0.19a5.15,5.15,0,0,1,.52.05l0.14,0,0.38,0.07,0.17,0,0.11,0a3.75,3.75,0,0,1,.93.4l0.06,0a0.83,0.83,0,0,1,.17.13l0.06,0.05,0.07,0.06a1.2,1.2,0,0,1,.42.64,0.82,0.82,0,0,1,0,.16,0.57,0.57,0,0,1-.53.5h0Z" transform="translate(-739.19 -28.99)"/>
      <path class="h" d="M766.87,55.29h0a0.72,0.72,0,0,1-.53-0.24,0.59,0.59,0,0,1-.14-0.41,0.63,0.63,0,0,1,.05-0.23,0.55,0.55,0,0,1,.49-0.35,0.41,0.41,0,0,1,.33.14,0.43,0.43,0,0,1,.12.33,0.37,0.37,0,0,1-.12.25,0.31,0.31,0,0,1-.23.06,0.24,0.24,0,0,1-.19-0.11,0.27,0.27,0,0,1,0-.25l0.05,0a0.22,0.22,0,0,0,0,.2,0.18,0.18,0,0,0,.15.08,0.24,0.24,0,0,0,.19,0,0.3,0.3,0,0,0,.1-0.21,0.37,0.37,0,0,0-.1-0.29,0.46,0.46,0,0,0-.29-0.13,0.49,0.49,0,0,0-.44.31,0.57,0.57,0,0,0,0,.21,0.52,0.52,0,0,0,.13.37,0.67,0.67,0,0,0,.49.22,0.59,0.59,0,0,0,.45-0.18,0.75,0.75,0,0,0,.23-0.53c0-.66-1-1.07-1.48-1.19a8,8,0,0,0-1.68-.22H764c-0.19,0-.37,0-0.61,0a5.64,5.64,0,0,1-.85-0.13,2.57,2.57,0,0,1-1.19-.6,1.75,1.75,0,0,1-.56-0.78,1.62,1.62,0,0,1,.12-1.34,1.37,1.37,0,0,1,1-.65,0.82,0.82,0,0,1,.87.46,0.76,0.76,0,0,1,0,.61,0.59,0.59,0,0,1-.47.3,0.41,0.41,0,0,1-.48-0.33,0.35,0.35,0,0,1,.21-0.42,0.34,0.34,0,0,1,.24,0,0.2,0.2,0,0,1,.11.12,0.29,0.29,0,0,1,0,.21c0-.08,0-0.15,0-0.2a0.13,0.13,0,0,0-.07-0.08,0.3,0.3,0,0,0-.19,0,0.29,0.29,0,0,0-.17.36,0.38,0.38,0,0,0,.42.28,0.54,0.54,0,0,0,.42-0.27,0.7,0.7,0,0,0,0-.55,0.75,0.75,0,0,0-.81-0.43,1.32,1.32,0,0,0-1,.62,1.56,1.56,0,0,0-.11,1.28,1.74,1.74,0,0,0,.55.76,2.55,2.55,0,0,0,1.17.59,5.57,5.57,0,0,0,.81.13c0.26,0,.45,0,0.63,0h0.35a8.09,8.09,0,0,1,1.69.22c0.06,0,1.52.38,1.52,1.25a0.8,0.8,0,0,1-.25.57,0.67,0.67,0,0,1-.47.2h0Z" transform="translate(-739.19 -28.99)"/>
      <path class="h" d="M767.31,55.54h-0.11a0.5,0.5,0,0,1-.4-0.27,0.83,0.83,0,0,0,.41.21,0.74,0.74,0,0,0,.6-0.19,0.93,0.93,0,0,0,.3-0.69,0.9,0.9,0,0,0-.11-0.44,2,2,0,0,0-1.06-.79l0-.05a2.08,2.08,0,0,1,1.09.81,1,1,0,0,1,.12.47,1,1,0,0,1-.32.74,0.79,0.79,0,0,1-.54.2h0Z" transform="translate(-739.19 -28.99)"/>
      <path class="h" d="M761.77,43.49a0.79,0.79,0,0,1-.4-0.1,1.35,1.35,0,0,0,.6,0,1,1,0,0,0,.82-0.91,0.64,0.64,0,0,0-.24-0.52l0,0a0.7,0.7,0,0,1,.26.56,1.11,1.11,0,0,1-.87,1,0.82,0.82,0,0,1-.22,0h0Z" transform="translate(-739.19 -28.99)"/>
      <path class="h" d="M761.82,44a1,1,0,0,1-.57-0.17,0.9,0.9,0,0,1-.37-0.52,1.58,1.58,0,0,0,.41.48,1.09,1.09,0,0,0,.55.16,1.14,1.14,0,0,0,.8-0.37,0.56,0.56,0,0,0,.17-0.34,0.3,0.3,0,0,0-.14-0.28l0,0a0.35,0.35,0,0,1,.16.33,0.61,0.61,0,0,1-.18.37,1.19,1.19,0,0,1-.85.39h0Z" transform="translate(-739.19 -28.99)"/>
      <path class="h" d="M762.31,44.83a0.46,0.46,0,0,1,.15-0.18A0.81,0.81,0,0,0,762.8,44a0.5,0.5,0,0,0-.15-0.41l0,0a0.57,0.57,0,0,1,.17.45,0.86,0.86,0,0,1-.36.69,1.07,1.07,0,0,1-.19.13h0Z" transform="translate(-739.19 -28.99)"/>
      <path class="h" d="M762.47,46.12a1,1,0,0,0,.33-0.72,0.79,0.79,0,0,0-.35-0.69l0,0a0.83,0.83,0,0,1,.38.73,0.8,0.8,0,0,1-.39.72h0Z" transform="translate(-739.19 -28.99)"/>
      <path class="h" d="M762.37,48.47a2.11,2.11,0,0,0,.43-1.3,1.91,1.91,0,0,0-.59-1.31,0,0,0,0,1,0,0,0,0,0,0,1,0,0,2,2,0,0,1,.61,1.35,1.82,1.82,0,0,1-.48,1.3h0Z" transform="translate(-739.19 -28.99)"/>
      <path class="h" d="M763.75,39.05a0.64,0.64,0,0,1-.43-0.48,0.83,0.83,0,0,1,.26-0.87,0.43,0.43,0,0,1,.34-0.09,0.53,0.53,0,0,1,.35.23v0.06l0,0h0a0.5,0.5,0,0,0-.33-0.25,0.39,0.39,0,0,0-.3.07,0.83,0.83,0,0,0,.14,1.31h0Z" transform="translate(-739.19 -28.99)"/>
      <path class="h" d="M765.54,39.21h0a1.68,1.68,0,0,1-1.34-.57,1.9,1.9,0,0,0,1.35.51,1.43,1.43,0,0,0,.69-0.19,0.39,0.39,0,0,0,.17-0.48l-0.09-.22a2.5,2.5,0,0,1-.27-0.82,0.85,0.85,0,0,1,.52-1,1.56,1.56,0,0,1,1.24.31,2.49,2.49,0,0,0,.38.19,1.28,1.28,0,0,0,.48.07A1.25,1.25,0,0,0,769.1,37a2.41,2.41,0,0,0,.38-0.19,1.55,1.55,0,0,1,1.23-.31,0.85,0.85,0,0,1,.52,1,2.47,2.47,0,0,1-.27.81,2,2,0,0,0-.09.22A0.38,0.38,0,0,0,771,39a1.44,1.44,0,0,0,.69.19,1.62,1.62,0,0,0,1.3-.55l0,0a1.68,1.68,0,0,1-1.34.57A1.36,1.36,0,0,1,771,39a0.44,0.44,0,0,1-.19-0.54l0.1-.22a2.44,2.44,0,0,0,.26-0.79,0.81,0.81,0,0,0-.48-0.9,1.52,1.52,0,0,0-1.19.3,2.47,2.47,0,0,1-.39.2,1.34,1.34,0,0,1-.49.08,1.37,1.37,0,0,1-.5-0.08,2.43,2.43,0,0,1-.39-0.2,1.52,1.52,0,0,0-1.19-.3,0.81,0.81,0,0,0-.48.9,2.46,2.46,0,0,0,.26.79c0,0.09.08,0.17,0.1,0.22a0.45,0.45,0,0,1-.19.54,1.39,1.39,0,0,1-.7.2h0Z" transform="translate(-739.19 -28.99)"/>
      <path class="h" d="M769.39,39.57a0.53,0.53,0,0,1-.45-0.77c0.3-.51.88-0.24,1.4,0a0.19,0.19,0,0,1,0-.05,0.57,0.57,0,0,1,0-.23,1,1,0,0,1,.22-0.57,1.46,1.46,0,0,0,.2-0.38,0.46,0.46,0,0,0-.05-0.53A0.38,0.38,0,0,0,770.2,37a2.68,2.68,0,0,0-.32.17,2.16,2.16,0,0,1-2.51,0A2.81,2.81,0,0,0,767,37a0.38,0.38,0,0,0-.45.06,0.46,0.46,0,0,0-.05.53,1.54,1.54,0,0,0,.2.38,1,1,0,0,1,.22.57,0.59,0.59,0,0,1,0,.23s0,0.06,0,.11c0.54-.3,1.13-0.58,1.41,0a0.53,0.53,0,0,1,0,.52,0.42,0.42,0,1,1-.71-0.43,0.71,0.71,0,0,0,0,.38,0.37,0.37,0,0,0,.68,0,0.48,0.48,0,0,0,0-.46c-0.25-.48-0.79-0.23-1.31,0l-0.05,0-0.05,0a0.87,0.87,0,0,1,0-.11,0.49,0.49,0,0,0,0-.21,1,1,0,0,0-.21-0.54,1.63,1.63,0,0,1-.21-0.39,0.53,0.53,0,0,1,.07-0.59,0.44,0.44,0,0,1,.51-0.07,2.93,2.93,0,0,1,.33.17,2.44,2.44,0,0,0,1.23.39,2.4,2.4,0,0,0,1.22-.39,3,3,0,0,1,.33-0.17,0.44,0.44,0,0,1,.51.07,0.52,0.52,0,0,1,.07.59,1.59,1.59,0,0,1-.21.39,1,1,0,0,0-.21.54,0.52,0.52,0,0,0,0,.21,0.87,0.87,0,0,1,0,.11v0.06l-0.08,0c-0.52-.24-1.06-0.49-1.34,0a0.45,0.45,0,0,0,0,.45,0.38,0.38,0,0,0,.69,0,0.38,0.38,0,0,0-.07-0.35l0.05,0a0.44,0.44,0,0,1,.08.39,0.37,0.37,0,0,1-.36.28h0Z" transform="translate(-739.19 -28.99)"/>
      <path class="g" d="M768.63,38.17a1.33,1.33,0,0,1-.74-0.21,1.75,1.75,0,0,1-.22-0.14,0.43,0.43,0,0,0-.28-0.12,0.19,0.19,0,0,0-.12.06,0.24,0.24,0,0,0-.07.18,0.2,0.2,0,0,1,0-.2,0.21,0.21,0,0,1,.14-0.07,0.46,0.46,0,0,1,.3.12l0.21,0.14a1.38,1.38,0,0,0,1.46,0,1.53,1.53,0,0,0,.21-0.14,0.46,0.46,0,0,1,.3-0.12,0.22,0.22,0,0,1,.14.07,0.27,0.27,0,0,1,.07.19h0a0.23,0.23,0,0,0-.06-0.17,0.19,0.19,0,0,0-.12-0.06,0.44,0.44,0,0,0-.29.12,1.68,1.68,0,0,1-.21.14,1.33,1.33,0,0,1-.74.21h0Z" transform="translate(-739.19 -28.99)"/>
      <path class="h" d="M766.92,38.8h0a0.55,0.55,0,0,0,0-.23,1,1,0,0,0-.21-0.54,1.69,1.69,0,0,1-.2-0.39A0.55,0.55,0,0,1,766.6,37a0.47,0.47,0,0,1,.53,0,2.76,2.76,0,0,1,.33.17,2.46,2.46,0,0,0,1.23.39,2,2,0,0,1-1.25-.34A3,3,0,0,0,767.1,37a0.38,0.38,0,0,0-.45.06,0.47,0.47,0,0,0-.05.53,1.56,1.56,0,0,0,.2.38,1,1,0,0,1,.22.57,0.59,0.59,0,0,1,0,.22h-0.06Z" transform="translate(-739.19 -28.99)"/>
      <path class="h" d="M768.68,37.6a2.67,2.67,0,0,0,.69-0.18,2.29,2.29,0,0,1-.69.15V37.51a3.14,3.14,0,0,0,1.29-.44,1.44,1.44,0,0,1,.31-0.14,0.44,0.44,0,0,1,.45.11,0.58,0.58,0,0,0-.47,0,2.81,2.81,0,0,0-.32.16,2.49,2.49,0,0,1-1.25.4h0Z" transform="translate(-739.19 -28.99)"/>
      <path class="h" d="M769.6,39.56l0,0a0.36,0.36,0,0,0,.14-0.19,0.37,0.37,0,0,0,0-.34,0.3,0.3,0,0,1,.13.36,0.38,0.38,0,0,1-.15.22l0-.07-0.08.08h0Z" transform="translate(-739.19 -28.99)"/>
      <path class="g" d="M767.58,39.07a0.18,0.18,0,1,1,.18.18,0.18,0.18,0,0,1-.18-0.18h0Z" transform="translate(-739.19 -28.99)"/>
      <path class="h" d="M774.46,49.56a0.2,0.2,0,0,1,0-.17,2,2,0,0,0,0-.23V47.64h0.06v1.52a1,1,0,0,1,0,.24c0,0.06,0,.11,0,0.16h0Z" transform="translate(-739.19 -28.99)"/>
      <path class="h" d="M774.41,49.62a0.43,0.43,0,0,1,0-.26c0-.09,0-0.23,0-0.23V47.49h0.06v1.64a1.44,1.44,0,0,1,0,.24c0,0.09,0,.17,0,0.25h0Z" transform="translate(-739.19 -28.99)"/>
      <polygon class="h" points="35.28 17.95 35.22 16.58 35.28 16.58 35.28 17.95 35.28 17.95"/>
      <polygon class="h" points="35.3 17.8 35.25 16.69 35.3 16.69 35.3 17.8 35.3 17.8"/>
      <polygon class="h" points="35.3 16.11 35.25 15.28 35.3 15.28 35.3 16.11 35.3 16.11"/>
      <polygon class="h" points="35.28 16.2 35.22 15.18 35.28 15.18 35.28 16.2 35.28 16.2"/>
      <path class="a" d="M774.46,43.42v0Z" transform="translate(-739.19 -28.99)"/>
      <path class="a" d="M774.44,43.35v0Z" transform="translate(-739.19 -28.99)"/>
      <path class="a" d="M774.46,42.73v0Z" transform="translate(-739.19 -28.99)"/>
      <path class="a" d="M774.44,42.65v0Z" transform="translate(-739.19 -28.99)"/>
      <path class="a" d="M774.46,41.63v0Z" transform="translate(-739.19 -28.99)"/>
      <polygon class="h" points="35.28 13.34 35.22 12.5 35.28 12.5 35.28 13.34 35.28 13.34"/>
      <path class="h" d="M768.7,51.67a3.5,3.5,0,0,0-.63-0.35,2,2,0,0,0-.48-0.13,2.82,2.82,0,0,0-.56,0l-0.36,0h-0.13l-0.3,0-0.33,0a4.8,4.8,0,0,1-.6,0,3.12,3.12,0,0,1-.65-0.08A2.44,2.44,0,0,1,764,51a2,2,0,0,1-.55-0.39l-0.06-.06,0.1,0a1.9,1.9,0,0,0,.54.38,2.33,2.33,0,0,0,.61.2,3.06,3.06,0,0,0,.64.08,4.19,4.19,0,0,0,.52,0l0.4,0,0.3,0h0.13a2.62,2.62,0,0,1,.4,0,2.69,2.69,0,0,1,.54,0,2.08,2.08,0,0,1,.49.14,2,2,0,0,1,.61.37,1.29,1.29,0,0,1,.56-0.37,2.05,2.05,0,0,1,.49-0.14,2.89,2.89,0,0,1,.57,0l0.36,0h0.14l0.3,0,0.33,0a4.66,4.66,0,0,0,.59,0,3.1,3.1,0,0,0,.64-0.08,2.29,2.29,0,0,0,.61-0.2,1.88,1.88,0,0,0,.54-0.38,1.76,1.76,0,0,0,.38-0.52l0.05,0a1.78,1.78,0,0,1-.4.54,2,2,0,0,1-.55.39,2.4,2.4,0,0,1-.62.21,3.15,3.15,0,0,1-.65.08,3.94,3.94,0,0,1-.53,0l-0.4,0-0.3,0h-0.14l-0.38,0a2.62,2.62,0,0,0-.54,0,2,2,0,0,0-.48.13,2.06,2.06,0,0,0-.59.35h0Z" transform="translate(-739.19 -28.99)"/>
      <path class="h" d="M768.67,51.65A3.59,3.59,0,0,0,768,51.3a2.05,2.05,0,0,0-.48-0.14,2.8,2.8,0,0,0-.54,0l-0.41,0H766.5l-0.29,0-0.35,0a4.12,4.12,0,0,1-.6,0,3,3,0,0,1-.65-0.08A2.33,2.33,0,0,1,764,51a1.85,1.85,0,0,1-.55-0.39,2,2,0,0,1-.23-0.26,1,1,0,0,1,.28.22,1.78,1.78,0,0,0,.54.38,2.22,2.22,0,0,0,.61.2,3,3,0,0,0,.64.08,4.83,4.83,0,0,0,.58,0l0.35,0,0.29,0h0.11l0.42,0a2.84,2.84,0,0,1,.54,0,2,2,0,0,1,.49.14,2,2,0,0,1,.61.37,1.28,1.28,0,0,1,.57-0.37,2,2,0,0,1,.49-0.14,2.84,2.84,0,0,1,.55,0l0.41,0h0.12l0.29,0,0.34,0a4.32,4.32,0,0,0,.59,0,3,3,0,0,0,.64-0.08,2.24,2.24,0,0,0,.61-0.2,1.78,1.78,0,0,0,.54-0.38,1.7,1.7,0,0,0,.39-0.53l0.09,0,0,0a2.1,2.1,0,0,1-1,1,2.29,2.29,0,0,1-.62.21,3.05,3.05,0,0,1-.65.08,4.42,4.42,0,0,1-.59,0l-0.36,0-0.29,0h-0.12l-0.4,0a2.82,2.82,0,0,0-.54,0,2,2,0,0,0-.48.14,2,2,0,0,0-.59.35h0Z" transform="translate(-739.19 -28.99)"/>
      <path class="g" d="M761.89,50.47a0.24,0.24,0,1,1,.24.23,0.24,0.24,0,0,1-.24-0.23h0Z" transform="translate(-739.19 -28.99)"/>
      <path class="g" d="M762.13,50.71a0.24,0.24,0,1,1,.24-0.24,0.24,0.24,0,0,1-.24.24h0Zm0-.47a0.23,0.23,0,1,0,.23.23,0.23,0.23,0,0,0-.23-0.23h0Z" transform="translate(-739.19 -28.99)"/>
      <polygon class="h" points="22.06 22.03 22.02 21.89 22.11 21.57 22.3 21.26 22.51 21.11 22.7 21.03 22.73 21.08 22.53 21.16 22.34 21.3 22.16 21.6 22.06 22.03 22.06 22.03"/>
      <path class="h" d="M762.34,51a0.5,0.5,0,0,1-.5-0.32,0.68,0.68,0,0,0,.5.26h0a0.67,0.67,0,0,0,.45-0.24A0.93,0.93,0,0,0,763,50h0.06a1,1,0,0,1-.22.75,0.71,0.71,0,0,1-.49.26h0Z" transform="translate(-739.19 -28.99)"/>
      <polygon class="h" points="23.18 21.96 23.55 21.71 23.67 21.54 23.77 21.24 23.79 21.07 23.85 21.08 23.81 21.37 23.72 21.57 23.59 21.75 23.33 21.92 23.18 21.96 23.18 21.96"/>
      <path class="h" d="M762.75,50.69l0,0a0.71,0.71,0,0,0,0-.6,0.91,0.91,0,0,0-.17-0.23l0,0a1,1,0,0,1,.18.25,0.75,0.75,0,0,1,0,.61l-0.05,0h0Z" transform="translate(-739.19 -28.99)"/>
      <path class="h" d="M766.65,54.06a3.55,3.55,0,0,0-2.37-.61,8,8,0,0,1-2.42-.37,3,3,0,0,1-1-.67l0,0a2.9,2.9,0,0,0,1,.66,7.89,7.89,0,0,0,2.4.37,3.22,3.22,0,0,1,2.37.67h0Z" transform="translate(-739.19 -28.99)"/>
      <path class="h" d="M768.67,54.22a3.06,3.06,0,0,0-.43-0.5l0,0a1.42,1.42,0,0,1,.39.54h0Z" transform="translate(-739.19 -28.99)"/>
      <path class="h" d="M768.15,55l-0.07,0a0.59,0.59,0,0,0,.54-0.39h0.06a0.59,0.59,0,0,1-.52.42h0Z" transform="translate(-739.19 -28.99)"/>
      <path class="h" d="M768,55.3c0.05-.14.12-0.27,0.16-0.42a0,0,0,0,1,0,0,0,0,0,0,1,0,0,1,1,0,0,1-.21.4h0Z" transform="translate(-739.19 -28.99)"/>
      <path class="h" d="M768.2,54.89a0.55,0.55,0,0,1,0-.24,0.9,0.9,0,0,0-.11-0.44,2.06,2.06,0,0,0-1-.82,2.85,2.85,0,0,0-.45-0.18,0.06,0.06,0,0,1,0,0s0,0,0,0v0l0,0a3,3,0,0,1,.46.18,2.1,2.1,0,0,1,1.07.84,1,1,0,0,1,.12.47,1,1,0,0,1,0,.24h0Z" transform="translate(-739.19 -28.99)"/>
      <path class="h" d="M767.37,55.59h-0.11a0.61,0.61,0,0,1-.42-0.26,1.13,1.13,0,0,0,.43.2,0.74,0.74,0,0,0,.61-0.19l0.06-.06,0,0-0.07.06a0.78,0.78,0,0,1-.54.2h0Z" transform="translate(-739.19 -28.99)"/>
      <path class="a" d="M768.17,54.69l0,0.21Z" transform="translate(-739.19 -28.99)"/>
      <polygon class="h" points="28.3 26.56 28.7 26.27 28.74 26.32 28.65 26.4 28.49 26.5 28.3 26.56 28.3 26.56"/>
      <path class="h" d="M768.66,55.88a1.64,1.64,0,0,1-.75-0.59,2.55,2.55,0,0,0,.75.54,1.69,1.69,0,0,0,.68-0.57l0,0a1.68,1.68,0,0,1-.73.59h0Z" transform="translate(-739.19 -28.99)"/>
      <path class="f" d="M768.68,55.9a1.67,1.67,0,0,1-.73-0.59,2,2,0,0,0,.73.56,1.67,1.67,0,0,0,.7-0.58h0a1.68,1.68,0,0,1-.72.59h0Z" transform="translate(-739.19 -28.99)"/>
      <path class="a" d="M767.39,55.53l0.17,0Z" transform="translate(-739.19 -28.99)"/>
      <path class="h" d="M766.76,55.29a0.53,0.53,0,0,1-.4-0.19v0h0a0.69,0.69,0,0,0,.46.22h-0.1Z" transform="translate(-739.19 -28.99)"/>
      <path class="h" d="M766.89,55.32h0a0.77,0.77,0,0,1-.32-0.08l0-.05a0.74,0.74,0,0,0,.29.08,0.64,0.64,0,0,0,.45-0.18,0.74,0.74,0,0,0,.23-0.53,0.86,0.86,0,0,0-.33-0.64,0.73,0.73,0,0,1,.39.64,0.81,0.81,0,0,1-.24.57,0.68,0.68,0,0,1-.47.2h0Z" transform="translate(-739.19 -28.99)"/>
      <path class="h" d="M766.87,54.87h0a0.27,0.27,0,0,1-.21-0.13,0.28,0.28,0,0,1,0-.26,0,0,0,0,1,0,0,0,0,0,0,1,0,0,0.22,0.22,0,0,0,0,.21,0.21,0.21,0,0,0,.16.1,0.24,0.24,0,0,0,.19-0.05,0.3,0.3,0,0,0,.11-0.2,0.39,0.39,0,0,0-.18-0.36,0.33,0.33,0,0,1,.24.37,0.36,0.36,0,0,1-.13.24,0.29,0.29,0,0,1-.19.07h0Z" transform="translate(-739.19 -28.99)"/>
      <path class="g" d="M766.63,54.58a0.22,0.22,0,1,1,.22.21,0.22,0.22,0,0,1-.22-0.21h0Z" transform="translate(-739.19 -28.99)"/>
      <path class="h" d="M768.68,55.91a1.66,1.66,0,0,1-.75-0.59V55.26l0,0a1.68,1.68,0,0,0,.73.61,1.72,1.72,0,0,0,.68-0.57l0,0a1.69,1.69,0,0,1-.73.59h0Z" transform="translate(-739.19 -28.99)"/>
      <path class="g" d="M769.95,53.44l0.1-.07,0.2-.08,0.21-.05,0.12,0h0a0,0,0,0,1,0,0l-0.12,0-0.2.05-0.2.08-0.11,0h0Z" transform="translate(-739.19 -28.99)"/>
      <path class="g" d="M769.53,53.91v0l0.06-.09a0.68,0.68,0,0,1,.17-0.13l0.23-.13,0.2-.09,0.19-.08,0.16-.06-0.15.09-0.19.08-0.19.09-0.23.13a0.67,0.67,0,0,0-.17.13l-0.06.08,0,0h0Z" transform="translate(-739.19 -28.99)"/>
      <path class="g" d="M767.51,53.8h0l0,0-0.05-.08a0.42,0.42,0,0,0-.11-0.08l-0.2-.11-0.09,0-0.19-.09-0.4-.16,0.22,0.05,0.19,0.08,0.2,0.09,0.09,0,0.14,0.08a0.67,0.67,0,0,1,.18.12l0.06,0.08a0.07,0.07,0,0,1,0,0,0,0,0,0,0,0,0h0Z" transform="translate(-739.19 -28.99)"/>
      <path class="h" d="M770,55.59a0.79,0.79,0,0,1-.54-0.2l-0.06-.06,0,0h0l0.06,0.05a0.73,0.73,0,0,0,.61.19,0.48,0.48,0,0,0,.36-0.23l0.1,0a0.2,0.2,0,0,1,0,.08,0.54,0.54,0,0,1-.4.25H770Z" transform="translate(-739.19 -28.99)"/>
      <polygon class="h" points="30.79 26.57 31.08 26.44 31.18 26.36 31.24 26.25 31.29 26.28 31.22 26.4 31.11 26.49 30.94 26.56 30.79 26.57 30.79 26.57"/>
      <path class="h" d="M770.46,55.34l0-.06a0.7,0.7,0,0,0,.53-0.22,0.52,0.52,0,0,0,.13-0.37,0.64,0.64,0,0,0,0-.21,0.7,0.7,0,0,0-.21-0.26l0,0a0.76,0.76,0,0,1,.22.28,0.66,0.66,0,0,1,0,.23,0.59,0.59,0,0,1-.14.41,0.74,0.74,0,0,1-.53.24h0Z" transform="translate(-739.19 -28.99)"/>
      <path class="h" d="M770.41,55.32a0.68,0.68,0,0,1-.49-0.21,1.07,1.07,0,0,0,.51.16v0.06h0Z" transform="translate(-739.19 -28.99)"/>
      <polygon class="h" points="31.22 26.32 31.21 26.27 31.38 26.25 31.64 26.12 31.82 25.88 31.85 25.66 31.9 25.74 31.84 25.98 31.68 26.16 31.4 26.31 31.22 26.32 31.22 26.32"/>
      <path class="g" d="M770.19,54.59a0.22,0.22,0,1,1,.22.22,0.22,0.22,0,0,1-.22-0.22h0Z" transform="translate(-739.19 -28.99)"/>
      <path class="h" d="M770.71,54.13c0.49-.67,1.4-0.7,2.36-0.74a7.89,7.89,0,0,0,2.4-.37,2.33,2.33,0,0,0,1.4-1.24,2.36,2.36,0,0,0,.21-0.93,1.51,1.51,0,0,0-.08-0.53,1.65,1.65,0,0,0-.44-0.72l0,0a1.74,1.74,0,0,1,.46.74,1.59,1.59,0,0,1,.08.55,2.34,2.34,0,0,1-.19.9,2.41,2.41,0,0,1-1.45,1.33,8,8,0,0,1-2.42.37,3.12,3.12,0,0,0-2.36.68h0Z" transform="translate(-739.19 -28.99)"/>
      <polygon class="h" points="31.48 25.11 31.45 25.07 31.73 24.83 32.17 24.59 32.95 24.43 31.98 24.74 31.65 24.96 31.48 25.11 31.48 25.11"/>
      <path class="h" d="M775.8,50.28l-0.26-.15a0.44,0.44,0,0,0-.51.09l0,0a0.49,0.49,0,0,1,.58-0.11,0.58,0.58,0,0,1,.23.2h0Z" transform="translate(-739.19 -28.99)"/>
      <path class="h" d="M763.44,51.26c0-.05.09,0,0.09-0.06s0,0,0,0l-0.08,0-0.08,0s0,0,0,0,0.1,0,.06.13a0.34,0.34,0,0,1-.08.11l-0.25.27,0,0a0,0,0,0,1,0,0V51.24a0.49,0.49,0,0,1,0-.16,0.18,0.18,0,0,1,.08,0s0,0,0,0L763,51l-0.09,0s0,0-.05,0a0,0,0,0,0,0,0,0.09,0.09,0,0,1,0,.09v0.7a0.08,0.08,0,0,0,0,.07l0,0Z" transform="translate(-739.19 -28.99)"/>
      <path class="h" d="M763.73,51.37c0-.1.09,0,0.1-0.08s0,0,0,0l-0.13,0-0.11,0s0,0,0,0,0.11,0,.08.14l-0.16.51c0,0.1-.09.05-0.11,0.09a0,0,0,0,0,0,0l0.11,0L763.6,52s0,0,0,0-0.11,0-.07-0.15Z" transform="translate(-739.19 -28.99)"/>
      <path class="h" d="M764.08,51.47a0.06,0.06,0,0,1,.09,0,0.17,0.17,0,0,1,.1.23c0,0.06,0,.12-0.19.08s-0.06,0-.06,0Zm-0.27.46c0,0.14-.11.08-0.12,0.11a0,0,0,0,0,0,0l0.15,0,0.08,0s0,0,0,0-0.1,0-.06-0.14l0.06-.19s0,0,.06,0a0.08,0.08,0,0,1,.07.08l0,0.19a0.18,0.18,0,0,0,.1.17,0.11,0.11,0,0,0,.12,0,0,0,0,0,0,0,0h0a0,0,0,0,1,0,0c0-.16-0.07-0.34-0.06-0.34l0.07,0a0.18,0.18,0,0,0,.09-0.12,0.21,0.21,0,0,0-.17-0.27l-0.2-.05-0.11,0h0s0.11,0,.07.15Z" transform="translate(-739.19 -28.99)"/>
      <path class="h" d="M764.6,52.16c0,0.13-.13.05-0.14,0.09s0,0,0,0l0.14,0,0.13,0s0,0,.05,0-0.12,0-.1-0.16l0.12-.49c0-.05,0-0.06.06,0l0.08,0c0.12,0,.05.14,0.1,0.15s0,0,0-.05v-0.1s0,0,0,0l-0.3-.07-0.3-.08s0,0,0,0l0,0.14s0,0,0,0,0.05-.14.16-0.11l0.08,0s0,0,0,.07Z" transform="translate(-739.19 -28.99)"/>
      <path class="h" d="M765.8,51.86a0.65,0.65,0,0,1,.08-0.07s0,0,0,0h-0.08l-0.08,0s0,0,0,0,0.1,0,.08.12a0.35,0.35,0,0,1-.06.12l-0.2.31,0,0a0,0,0,0,1,0,0l-0.06-.38a0.61,0.61,0,0,1,0-.16,0.25,0.25,0,0,1,.07,0s0,0,0,0l-0.11,0-0.1,0s0,0-.05,0l0,0a0.09,0.09,0,0,1,.06.08l0.13,0.69a0.07,0.07,0,0,0,0,.07s0,0,0,0Z" transform="translate(-739.19 -28.99)"/>
      <path class="h" d="M765.85,52.49s0,0,0,0a0.67,0.67,0,0,0,.16.07,0.22,0.22,0,0,0,.26-0.21,0.23,0.23,0,0,0-.13-0.27C766,52,766,52,766,51.95a0.11,0.11,0,0,1,.13-0.1,0.28,0.28,0,0,1,.17.24s0,0,0,0V51.91s0,0,0,0h-0.05a0.62,0.62,0,0,0-.15-0.07,0.2,0.2,0,0,0-.23.19,0.21,0.21,0,0,0,.11.23c0.15,0.11.21,0.13,0.19,0.22a0.14,0.14,0,0,1-.16.12,0.25,0.25,0,0,1-.17-0.24s0,0,0,0,0,0,0,0v0.16Z" transform="translate(-739.19 -28.99)"/>
      <path class="h" d="M767.34,52.07a0.78,0.78,0,0,1,.08-0.08s0,0,0,0h-0.17s0,0,0,0,0.11,0,.1.11a0.39,0.39,0,0,1,0,.13l-0.17.33a0,0,0,0,1,0,0,0,0,0,0,1,0,0l-0.1-.37a0.48,0.48,0,0,1,0-.16A0.19,0.19,0,0,1,767,52s0,0,0,0h-0.21s0,0,0,0v0a0.09,0.09,0,0,1,.07.07l0.2,0.67s0,0.06,0,.06,0,0,0,0Z" transform="translate(-739.19 -28.99)"/>
      <path class="h" d="M767.5,52.62a0.25,0.25,0,0,1-.1.14s0,0,0,0h0.21s0,0,0,0-0.13,0-.13-0.19V52.18s0,0,0,0h0l0.48,0.59h0s0,0,0,0V52.12c0-.12.08-0.09,0.09-0.12s0,0,0,0h-0.22a0,0,0,0,0,0,0s0.12,0,.12.12v0.37a0.05,0.05,0,0,1,0,0l0,0-0.4-.5s0,0,0,0h-0.16a0,0,0,0,0,0,0c0,0.06.11,0,.11,0.2v0.43Z" transform="translate(-739.19 -28.99)"/>
      <path class="h" d="M768.48,52.11c0-.11.08-0.07,0.08-0.11s0,0,0,0h-0.24s0,0,0,0,0.11,0,.11.11v0.54c0,0.11-.07.08-0.07,0.12a0,0,0,0,0,0,0h0.27s0,0,0,0-0.12,0-.11-0.12V52.11Z" transform="translate(-739.19 -28.99)"/>
      <path class="h" d="M768.9,52.63c0,0.13-.11.08-0.11,0.13s0,0,0,0h0.28s0.05,0,.05,0-0.13,0-.13-0.14V52.11c0-.05,0-0.06,0-0.06h0.09c0.12,0,.09.12,0.13,0.12s0,0,0-.06V52s0,0,0,0h-0.62s0,0,0,0v0.15s0,0,0,0,0-.15.13-0.15h0.09s0.05,0,.05.06v0.52Z" transform="translate(-739.19 -28.99)"/>
      <path class="h" d="M769.49,52.42s0,0,0,0a0.09,0.09,0,0,1,0,0l0.06-.21h0l0.1,0.2v0s0,0,0,0h-0.14Zm0.17,0s0,0,.07.09a0.22,0.22,0,0,1,0,.08,0.2,0.2,0,0,1-.07.09s0,0,0,0H770s0,0,0,0a0.38,0.38,0,0,1-.09-0.07L769.58,52s0,0,0,0a0.05,0.05,0,0,0,0,0l-0.22.7a0.64,0.64,0,0,1-.07.09s0,0,0,0h0.18s0.05,0,.05,0-0.11,0-.12-0.08a0.33,0.33,0,0,1,0-.09c0-.08,0-0.08.05-0.08Z" transform="translate(-739.19 -28.99)"/>
      <path class="h" d="M770.44,52c0-.08,0-0.08.11-0.09s0.13,0.12.18,0.11,0,0,0-.05l0-.11a0,0,0,0,0,0,0l-0.23,0-0.27,0a0,0,0,0,0,0,0s0.11,0,.13.09l0.07,0.52c0,0.14-.07.09-0.06,0.14h0l0.13,0h0.12s0,0,0,0-0.11,0-.13-0.11l0-.16c0-.06,0-0.08,0-0.08h0.08c0.11,0,.09.11,0.12,0.1s0,0,0-.06l0-.2s0,0,0,0a0.17,0.17,0,0,1-.1.12h-0.06s0,0-.05-0.05Z" transform="translate(-739.19 -28.99)"/>
      <path class="h" d="M770.81,52.26a0.35,0.35,0,0,0,.41.31,0.39,0.39,0,0,0,.3-0.5,0.34,0.34,0,0,0-.41-0.31,0.39,0.39,0,0,0-.29.5h0Zm0.11-.09a0.26,0.26,0,0,1,.16-0.36,0.31,0.31,0,0,1,.32.32,0.27,0.27,0,0,1-.16.38,0.34,0.34,0,0,1-.31-0.34h0Z" transform="translate(-739.19 -28.99)"/>
      <path class="h" d="M771.71,51.78c0-.07,0-0.07,0-0.08a0.17,0.17,0,0,1,.2.15c0,0.06,0,.13-0.12.16s-0.07,0-.07,0Zm0,0.54c0,0.14-.05.12,0,0.16s0,0,0,0l0.15,0h0.09s0,0,0,0-0.09,0-.12-0.09l0-.19s0,0,0-.06a0.08,0.08,0,0,1,.1,0L772,52.26a0.18,0.18,0,0,0,.17.1,0.11,0.11,0,0,0,.09-0.08h0a0,0,0,0,1,0,0L772,52a0.23,0.23,0,0,1,0-.06,0.17,0.17,0,0,0,0-.15,0.21,0.21,0,0,0-.28-0.15l-0.2.05-0.12,0a0,0,0,0,0,0,0s0.11,0,.13.09Z" transform="translate(-739.19 -28.99)"/>
      <path class="h" d="M772.52,52.14c0,0.13-.09.11-0.08,0.15s0,0,0,0l0.13,0,0.14,0s0,0,0,0-0.12,0-.16-0.1l-0.13-.49c0-.05,0-0.06,0-0.07l0.08,0c0.11,0,.11.1,0.15,0.08s0,0,0-.06l0-.1s0,0,0,0l-0.3.08-0.3.07s0,0,0,0l0,0.15s0,0,0,0,0-.15.09-0.17l0.08,0s0.05,0,.06,0Z" transform="translate(-739.19 -28.99)"/>
      <path class="h" d="M773,51.44c0-.1.05-0.08,0-0.12s0,0,0,0l-0.13,0-0.11,0s0,0,0,0,0.11,0,.14.08L773.06,52c0,0.1,0,.09,0,0.13h0l0.11,0,0.15,0s0,0,0,0-0.11,0-.14-0.09Z" transform="translate(-739.19 -28.99)"/>
      <path class="h" d="M773.25,51.7a0.34,0.34,0,0,0,.44.25,0.38,0.38,0,0,0,.23-0.53,0.34,0.34,0,0,0-.45-0.25,0.39,0.39,0,0,0-.22.53h0Zm0.1-.1a0.26,0.26,0,0,1,.11-0.37,0.31,0.31,0,0,1,.36.28c0.06,0.18.05,0.34-.11,0.39a0.34,0.34,0,0,1-.36-0.3h0Z" transform="translate(-739.19 -28.99)"/>
      <path class="h" d="M774.06,51.09a0.06,0.06,0,0,1,0-.09,0.17,0.17,0,0,1,.22.12c0,0.06,0,.12-0.1.18s-0.06,0-.07,0Zm0.08,0.53c0.05,0.13,0,.13,0,0.16s0,0,0,0l0.14-.06,0.08,0s0,0,0,0-0.09,0-.13-0.07l-0.07-.18s0,0,0-.06a0.08,0.08,0,0,1,.11,0l0.14,0.13a0.17,0.17,0,0,0,.18.07,0.11,0.11,0,0,0,.08-0.09h0l0,0a0,0,0,0,1,0,0l-0.26-.23a0.21,0.21,0,0,1,0-.07,0.19,0.19,0,0,0,0-.15,0.21,0.21,0,0,0-.3-0.11l-0.19.08-0.11,0a0,0,0,0,0,0,0s0.1,0,.15.08Z" transform="translate(-739.19 -28.99)"/>
      <path class="h" d="M775.91,48.72a2.26,2.26,0,0,1-.46-0.61,1.78,1.78,0,0,1-.16-0.43,1.51,1.51,0,0,1,0-.32,2.42,2.42,0,0,1,.06-0.59,2,2,0,0,1,.39-0.86,0.93,0.93,0,0,1,.2-0.22,0.9,0.9,0,0,1-.15.24,2,2,0,0,0-.39.85,2.41,2.41,0,0,0-.06.58,1.73,1.73,0,0,0,0,.31,1.76,1.76,0,0,0,.16.41,2.23,2.23,0,0,0,.45.6l0,0h0Z" transform="translate(-739.19 -28.99)"/>
      <path class="h" d="M776.16,48.17H776.1L776,48.09a1.51,1.51,0,0,1-.41-1,1.37,1.37,0,0,1,.35-1,1.76,1.76,0,0,0-.29,1,1.45,1.45,0,0,0,.4,1l0.08,0.07,0,0.05h0Z" transform="translate(-739.19 -28.99)"/>
      <polygon class="h" points="36.44 17.98 36.39 17.98 36.45 17.58 36.6 17.23 36.71 17.11 36.45 17.83 36.44 17.98 36.44 17.98"/>
      <path class="h" d="M776.68,49.46a0.79,0.79,0,0,1-.22,0l-0.14,0,0-.05,0.13,0a0.64,0.64,0,0,0,.36,0,0.45,0.45,0,0,0,.29-0.23,0.46,0.46,0,0,0,0-.38,0.53,0.53,0,0,0-.15-0.19,0.26,0.26,0,0,1,.21.17,0.48,0.48,0,0,1-.32.69l-0.17,0h0Z" transform="translate(-739.19 -28.99)"/>
      <path class="h" d="M777.05,48.62h0l0-.07a0.34,0.34,0,0,0-.11-0.25l-0.05-.12a0.21,0.21,0,0,1,.07.05,0.43,0.43,0,0,1,.15.32v0.07h0Z" transform="translate(-739.19 -28.99)"/>
      <path class="h" d="M776.85,48.24a0.33,0.33,0,0,0-.3-0.3,0.31,0.31,0,0,1,.36.3h-0.06Z" transform="translate(-739.19 -28.99)"/>
      <path class="h" d="M776.28,46.31a0.4,0.4,0,0,1-.32-0.14l0,0a0.38,0.38,0,0,0,.38.11,0.35,0.35,0,0,0,.22-0.17,0.43,0.43,0,0,0,0-.33,0.51,0.51,0,0,0-.07-0.15,0.49,0.49,0,0,0-.12-0.12V45.39a0.7,0.7,0,0,1,.17.17,0.56,0.56,0,0,1,.08.16,0.49,0.49,0,0,1,0,.37,0.4,0.4,0,0,1-.25.2l-0.12,0h0Z" transform="translate(-739.19 -28.99)"/>
      <polygon class="h" points="37.06 17.28 36.98 17.27 37.33 17.13 37.42 16.94 37.43 16.8 37.49 16.81 37.44 17.06 37.28 17.23 37.06 17.28 37.06 17.28"/>
      <path class="a" d="M776.24,45.66l0,0.06a0.17,0.17,0,0,1,0,.06,0.23,0.23,0,0,1,0,.06,0.21,0.21,0,0,1,0,.06Z" transform="translate(-739.19 -28.99)"/>
      <path class="h" d="M776.59,49.09a0.25,0.25,0,0,1-.12,0,0.08,0.08,0,0,1,0,0h0s0,0,0,0a0.25,0.25,0,0,0,.28,0,0.14,0.14,0,0,0,0-.16,0.12,0.12,0,0,1,0,.21,0.28,0.28,0,0,1-.18.06h0Z" transform="translate(-739.19 -28.99)"/>
      <path class="g" d="M776.42,48.85a0.19,0.19,0,1,1,.2.18,0.19,0.19,0,0,1-.2-0.18h0Z" transform="translate(-739.19 -28.99)"/>
      <path class="g" d="M775.67,44.66a0.15,0.15,0,0,1,.14-0.15,0.15,0.15,0,0,1,0,.29,0.15,0.15,0,0,1-.14-0.15h0Z" transform="translate(-739.19 -28.99)"/>
      <path class="g" d="M775.57,42.57a0.11,0.11,0,1,1,.11.08,0.1,0.1,0,0,1-.11-0.08h0Z" transform="translate(-739.19 -28.99)"/>
      <path class="h" d="M775,41.61a0.26,0.26,0,0,1-.16-0.25,1.82,1.82,0,0,1,.71-1.11A3.71,3.71,0,0,0,775.8,40a1.24,1.24,0,0,0,.41-0.86,0.52,0.52,0,0,0-.43-0.5V38.56a0.58,0.58,0,0,1,.48.56,1.27,1.27,0,0,1-.41.88,3.63,3.63,0,0,1-.28.3,1.82,1.82,0,0,0-.7,1.07,0.46,0.46,0,0,0,.1.25h0Z" transform="translate(-739.19 -28.99)"/>
      <path class="g" d="M775,41.53a0.15,0.15,0,1,1,.15.18,0.17,0.17,0,0,1-.15-0.18h0Z" transform="translate(-739.19 -28.99)"/>
      <path class="g" d="M775.14,41.72a0.17,0.17,0,0,1-.16-0.18,0.16,0.16,0,0,1,.31,0,0.17,0.17,0,0,1-.16.18h0Zm0-.35a0.16,0.16,0,0,0-.14.17,0.14,0.14,0,0,0,.29,0,0.16,0.16,0,0,0-.14-0.17h0Z" transform="translate(-739.19 -28.99)"/>
      <polygon class="h" points="35.66 12.28 35.61 12.27 35.64 12.11 35.8 11.81 36.92 10.44 36.96 10.24 36.97 9.99 36.95 9.93 37.02 9.98 36.97 10.46 36.76 10.82 35.76 11.99 35.69 12.13 35.66 12.28 35.66 12.28"/>
      <path class="h" d="M775.51,41.82l-0.06,0a0.44,0.44,0,0,0,0-.38,0.22,0.22,0,0,0-.19-0.09,0.16,0.16,0,0,1,.23.05,0.5,0.5,0,0,1,.05.43h0Z" transform="translate(-739.19 -28.99)"/>
      <path class="h" d="M775,42.14a0.36,0.36,0,0,1-.15,0,0.63,0.63,0,0,1-.2-0.13l0,0a0.62,0.62,0,0,0,.19.12,0.43,0.43,0,0,0,.38,0,0.34,0.34,0,0,1-.25.11h0Z" transform="translate(-739.19 -28.99)"/>
      <path class="h" d="M775.05,40.14V40c0.14-.14.25-0.26,0.37-0.38a1.2,1.2,0,0,0,.36-0.81,0.63,0.63,0,0,0-.54-0.65V38.14a0.69,0.69,0,0,1,.59.71,1.24,1.24,0,0,1-.36.83c-0.12.14-.24,0.26-0.38,0.4l-0.05.05h0Z" transform="translate(-739.19 -28.99)"/>
      <path class="h" d="M774.77,39.52a1.34,1.34,0,0,0,.51-0.87,0.82,0.82,0,0,0-.14-0.56,0.61,0.61,0,0,0-.25-0.22,0,0,0,0,1,0,0,0,0,0,0,1,0,0,0.67,0.67,0,0,1,.27.24,0.88,0.88,0,0,1,.15.59,1.13,1.13,0,0,1-.57.86h0Z" transform="translate(-739.19 -28.99)"/>
      <path class="g" d="M774.66,39.5h0l0,0,0.07-.06,0.11-.08h0l0.09-.11,0.06-.08a0.12,0.12,0,0,1,0,.1l-0.09.1-0.06.05-0.13.1h0Z" transform="translate(-739.19 -28.99)"/>
      <path class="h" d="M774.17,39.13a1.09,1.09,0,0,0,.31-0.54,0.79,0.79,0,0,0-.14-0.65l-0.05-.06a0,0,0,0,1,0,0,0,0,0,0,1,0,0l0.06,0.06a0.86,0.86,0,0,1,.15.7,0.79,0.79,0,0,1-.36.53h0Z" transform="translate(-739.19 -28.99)"/>
      <path class="g" d="M774,39.14h0l0,0,0.08-.08,0.09-.13,0-.07a0.1,0.1,0,0,1,0,.09l-0.1.14-0.08.08,0,0h0Z" transform="translate(-739.19 -28.99)"/>
      <path class="h" d="M773.54,39.11a1.09,1.09,0,0,0,.35-0.53,0.75,0.75,0,0,0-.23-0.81,0,0,0,0,1,0,0,0,0,0,0,1,0,0,0.86,0.86,0,0,1-.16,1.39h0Z" transform="translate(-739.19 -28.99)"/>
      <path class="g" d="M773.46,39.09h0l0,0,0.08-.06,0.08-.07,0.05-.06,0.07-.08h0l0.05-.1h0a0.14,0.14,0,0,1,0-.05h0a0.08,0.08,0,0,0,0,0l0,0.09,0,0.11,0,0.08-0.06.08-0.08.07-0.08.06h0Z" transform="translate(-739.19 -28.99)"/>
      <path class="h" d="M772.13,39.55a3.82,3.82,0,0,0,.76-0.36,0.83,0.83,0,0,0,.55-0.94,0.55,0.55,0,0,0-.2-0.23l0,0a0.59,0.59,0,0,1,.21.26,0.89,0.89,0,0,1-.57,1,2.05,2.05,0,0,1-.79.31h0Z" transform="translate(-739.19 -28.99)"/>
      <path class="h" d="M772.86,38.83a0.42,0.42,0,0,1-.32-0.15,0.24,0.24,0,0,1-.07-0.11,0.14,0.14,0,0,1,.11.07,0.36,0.36,0,0,0,.28.13v0.06h0Z" transform="translate(-739.19 -28.99)"/>
      <path class="h" d="M771.09,39.06a0.42,0.42,0,0,1-.21-0.54,2.14,2.14,0,0,1,.1-0.23,2.5,2.5,0,0,0,.26-0.79,0.86,0.86,0,0,0-.48-0.93,0.8,0.8,0,0,1,.54.94,2.56,2.56,0,0,1-.27.81,2.06,2.06,0,0,0-.09.22,0.35,0.35,0,0,0,.07.38,0.37,0.37,0,0,0,.12.08l0,0.05h0Z" transform="translate(-739.19 -28.99)"/>
      <path class="h" d="M770.88,38.72l-0.07-.08,0.06-.23,0.27-.64,0.06-.39a0,0,0,0,1,0,0,0,0,0,0,1,0,0v0.2l-0.24.67-0.14.39v0.08h0Z" transform="translate(-739.19 -28.99)"/>
      <path class="h" d="M775.48,43.52l-0.2,0a1.31,1.31,0,0,1-.59-0.34,0.45,0.45,0,0,1-.15-0.19,0,0,0,1,1,.05,0,0.27,0.27,0,0,0,.09.13,1.31,1.31,0,0,0,.61.37,0.7,0.7,0,0,0,.57-0.08,0.51,0.51,0,0,1-.39.16h0Z" transform="translate(-739.19 -28.99)"/>
      <path class="g" d="M775.55,43.26h-0.1l-0.11,0-0.08,0,0,0,0,0,0.07,0h0.31l0.07,0,0.09,0,0.09,0h0l0.1,0h0l-0.18.09-0.08,0-0.09,0h-0.12Z" transform="translate(-739.19 -28.99)"/>
      <path class="g" d="M775.92,43.81h-0.06l0,0,0.07,0,0.1-.09,0.08-.08,0.06-.08,0.07-.13,0-.09,0-.07v0.08l0,0.1-0.06.11-0.08.11-0.08.08-0.11.09-0.07,0h0Z" transform="translate(-739.19 -28.99)"/>
      <path class="a" d="M774.77,44.78l0,0,0.06,0,0.12,0Z" transform="translate(-739.19 -28.99)"/>
      <path class="g" d="M774.79,46h0a0,0,0,0,1,0,0l0.27-.28,0,0.07L774.8,46h0Z" transform="translate(-739.19 -28.99)"/>
      <path class="g" d="M774.85,46.17h0a0,0,0,0,1,0,0l0.31-.42-0.29.44h0Z" transform="translate(-739.19 -28.99)"/>
      <path class="g" d="M775,48.55l-0.08,0-0.11-.08-0.09-.09-0.08-.11a0,0,0,0,1,0,0h0l0.08,0.1,0.08,0.08,0.11,0.09L775,48.55h0Z" transform="translate(-739.19 -28.99)"/>
      <path class="g" d="M774.9,50.58A0.23,0.23,0,0,1,775,50.3a0.24,0.24,0,1,1-.14.28h0Z" transform="translate(-739.19 -28.99)"/>
      <path class="g" d="M775.11,50.77a0.24,0.24,0,0,1-.22-0.19,0.23,0.23,0,0,1,.14-0.29,0.26,0.26,0,0,1,.26.19,0.23,0.23,0,0,1-.14.29h0Zm0-.47a0.21,0.21,0,0,0-.17.27,0.22,0.22,0,0,0,.2.18h0a0.22,0.22,0,0,0,.13-0.27,0.22,0.22,0,0,0-.2-0.18h0Z" transform="translate(-739.19 -28.99)"/>
      <path class="g" d="M775.9,48.36a0.16,0.16,0,0,1-.11-0.08l-0.06-.08,0-.1h0L775.61,48a0,0,0,0,1,0,0h0l0.12,0.22,0,0.06a0.59,0.59,0,0,0,.1.11h0Z" transform="translate(-739.19 -28.99)"/>
      <path class="g" d="M776.14,49.52a0.14,0.14,0,0,1-.09,0l-0.1-.07-0.09-.05-0.1,0-0.09,0,0,0h0l0.09,0,0.1,0,0.07,0,0.13,0.08,0.07,0.06h0Z" transform="translate(-739.19 -28.99)"/>
      <path class="h" d="M775,51h0a0.75,0.75,0,0,1-.54-0.3h0a0.29,0.29,0,0,1-.06-0.08,0,0,0,0,1,0,0,0,0,0,0,1,0,0,0.26,0.26,0,0,0,.05.07,0.72,0.72,0,0,0,.49.28,0.35,0.35,0,0,0,.42-0.28,0.31,0.31,0,0,0-.33-0.41,0.18,0.18,0,0,1,.19,0,0.35,0.35,0,0,1,.2.45A0.43,0.43,0,0,1,775,51h0Z" transform="translate(-739.19 -28.99)"/>
      <polygon class="h" points="35.83 21.99 35.81 21.94 36.07 21.85 36.17 21.72 36.2 21.54 36.25 21.62 36.17 21.82 36.11 21.89 35.99 21.96 35.83 21.99 35.83 21.99"/>
      <path class="h" d="M760.67,49.46l-0.17,0a0.6,0.6,0,0,1-.37-0.29,0.48,0.48,0,0,1,0-.39,1,1,0,0,0,.07.37,0.55,0.55,0,0,0,.33.26,0.63,0.63,0,0,0,.33,0v0.06l-0.19,0h0Z" transform="translate(-739.19 -28.99)"/>
      <polygon class="h" points="21.47 20.44 21.35 20.43 21.36 20.37 21.47 20.38 21.61 20.36 21.74 20.32 21.62 20.42 21.47 20.44 21.47 20.44"/>
      <path class="h" d="M760.66,49.09a0.27,0.27,0,0,1-.13,0,0.23,0.23,0,0,1-.11-0.23,0.49,0.49,0,0,0,.14.18,0.25,0.25,0,0,0,.24,0,0.23,0.23,0,0,0,.08-0.18,0.29,0.29,0,0,0,0-.13,0.34,0.34,0,0,0-.28-0.19h0a0,0,0,1,1,0-.06,0.4,0.4,0,0,1,.33.22,0.34,0.34,0,0,1,0,.16,0.29,0.29,0,0,1-.11.23,0.32,0.32,0,0,1-.16,0h0Z" transform="translate(-739.19 -28.99)"/>
      <path class="g" d="M760.45,48.81a0.17,0.17,0,1,1,.17.21,0.19,0.19,0,0,1-.17-0.21h0Z" transform="translate(-739.19 -28.99)"/>
      <path class="g" d="M760.61,49a0.22,0.22,0,1,1,.17-0.22,0.2,0.2,0,0,1-.17.22h0Zm0-.42a0.21,0.21,0,1,0,.16.2,0.19,0.19,0,0,0-.16-0.2h0Z" transform="translate(-739.19 -28.99)"/>
      <path class="h" d="M761.53,49.07L761.6,49l0.19-.17a2.09,2.09,0,0,0,.54-1,2.7,2.7,0,0,0,0-1.12,1.61,1.61,0,0,0-1-1.24V45.33a1.67,1.67,0,0,1,1.08,1.28,2.79,2.79,0,0,1,0,1.14,2.16,2.16,0,0,1-.56,1.07l-0.2.17-0.1.07h0Z" transform="translate(-739.19 -28.99)"/>
      <path class="h" d="M761.08,46.3l-0.12,0a0.57,0.57,0,0,1-.3-0.23,0.48,0.48,0,0,1-.06-0.23,1.12,1.12,0,0,1,.11.2,0.51,0.51,0,0,0,.27.2,0.39,0.39,0,0,0,.35-0.07,0.32,0.32,0,0,0,.09-0.29,0.16,0.16,0,0,0,0-.09l0,0a0.2,0.2,0,0,1,0,.12,0.36,0.36,0,0,1-.11.34,0.42,0.42,0,0,1-.28.1h0Z" transform="translate(-739.19 -28.99)"/>
      <polygon class="h" points="21.92 17.27 21.85 17.22 22.11 17.13 22.15 17.08 22.2 16.9 22.25 16.91 22.2 17.11 22.09 17.22 21.92 17.27 21.92 17.27"/>
      <path class="a" d="M761.08,45.61l-0.08.05a0.24,0.24,0,0,0-.05.08,0.42,0.42,0,0,0,0,.11Z" transform="translate(-739.19 -28.99)"/>
      <path class="h" d="M761,48.55a1.66,1.66,0,0,0,0-.27,0.35,0.35,0,0,0-.33-0.35V47.88a0.41,0.41,0,0,1,.38.41,0.38,0.38,0,0,1-.11.27h0Z" transform="translate(-739.19 -28.99)"/>
      <path class="h" d="M760.91,48.83a0.82,0.82,0,0,0,.09-0.31,0.38,0.38,0,0,0-.36-0.37V48.1a0.44,0.44,0,0,1,.42.42,0.4,0.4,0,0,1-.15.31h0Z" transform="translate(-739.19 -28.99)"/>
      <path class="g" d="M761.36,48.36h0l0,0,0.05-.07,0.06-.09,0.06-.08h0a0.34,0.34,0,0,1,0-.07h0l0,0h0l-0.08.12h0l-0.06.08h0l-0.05.07-0.07.08a0,0,0,0,1,0,0h0Z" transform="translate(-739.19 -28.99)"/>
      <path class="g" d="M761.09,49.55l0.05-.08,0.12-.08,0.1-.06,0.09,0h0.07l-0.06,0-0.09,0-0.1.06-0.12.08-0.07.06h0Z" transform="translate(-739.19 -28.99)"/>
      <path class="g" d="M762.44,46h0l-0.16-.15a0.21,0.21,0,0,1,0-.05,0.11,0.11,0,0,0,0,0h0l0.09,0.07,0.08,0.07L762.45,46a0,0,0,0,1,0,0h0Z" transform="translate(-739.19 -28.99)"/>
      <path class="h" d="M762.84,46.85a3.21,3.21,0,0,0-.41-0.7,0,0,0,0,1,0,0,0,0,0,0,1,0,0,1.78,1.78,0,0,1,.36.74h0Z" transform="translate(-739.19 -28.99)"/>
      <path class="h" d="M762.36,48.49c0.09-.16.22-0.33,0.29-0.47a1.55,1.55,0,0,0,.13-0.37,0,0,0,0,1,0,0,0,0,0,0,1,0,0,1.76,1.76,0,0,1-.14.39,1.66,1.66,0,0,1-.34.44h0Z" transform="translate(-739.19 -28.99)"/>
      <path class="h" d="M762.49,46.15a1.28,1.28,0,0,0,.3-0.47l0.05,0a0.79,0.79,0,0,1-.35.46h0Z" transform="translate(-739.19 -28.99)"/>
      <path class="h" d="M762.85,45.15a1.76,1.76,0,0,0-.38-0.42l0,0a0.9,0.9,0,0,1,.34.46h0Z" transform="translate(-739.19 -28.99)"/>
      <path class="a" d="M762.69,43.6a0.47,0.47,0,0,1,.12.16Z" transform="translate(-739.19 -28.99)"/>
      <path class="a" d="M762.49,44.68a0.63,0.63,0,0,1-.2.12Z" transform="translate(-739.19 -28.99)"/>
      <path class="a" d="M762.48,44.76l-0.11.05-0.14,0Z" transform="translate(-739.19 -28.99)"/>
      <path class="h" d="M762.53,44.7a1.87,1.87,0,0,0,.27-0.46,0,0,0,0,1,0,0,0,0,0,0,1,0,0,1,1,0,0,1-.33.45h0Z" transform="translate(-739.19 -28.99)"/>
      <path class="a" d="M762.7,43a0.35,0.35,0,0,1,.11.12Z" transform="translate(-739.19 -28.99)"/>
      <path class="h" d="M761.84,44a1,1,0,0,1-.57-0.17,0.91,0.91,0,0,1-.39-0.54,1.37,1.37,0,0,0,.43.5,0.91,0.91,0,0,0,.55.16,1.14,1.14,0,0,0,.8-0.37,0.73,0.73,0,0,0,.14-0.22,0,0,0,0,1,0,0,0,0,0,0,1,0,0,0.75,0.75,0,0,1-.15.23,1.19,1.19,0,0,1-.84.39h0Z" transform="translate(-739.19 -28.99)"/>
      <path class="g" d="M761.35,43.81a0.14,0.14,0,0,1-.08,0l-0.13-.11a0.81,0.81,0,0,1-.12-0.15,0.73,0.73,0,0,1-.09-0.16,0.44,0.44,0,0,1,0-.08,0.08,0.08,0,0,1,0,0,0.06,0.06,0,0,0,0,0h0v0.06l0,0.08a0.65,0.65,0,0,0,.09.16,0.85,0.85,0,0,0,.12.14l0.13,0.1,0.09,0h0Z" transform="translate(-739.19 -28.99)"/>
      <path class="h" d="M762.84,42.29a3.75,3.75,0,0,0-.27-0.29l0,0a0.73,0.73,0,0,1,.23.33h0Z" transform="translate(-739.19 -28.99)"/>
      <path class="h" d="M761.83,43.51a0.79,0.79,0,0,1-.46-0.13,1.38,1.38,0,0,0,.63,0,1.07,1.07,0,0,0,.79-0.72,0,0,0,0,1,0,0,0,0,0,0,1,0,0,1.13,1.13,0,0,1-.83.76l-0.19,0h0Z" transform="translate(-739.19 -28.99)"/>
      <path class="g" d="M761.75,43.42h0l-0.16,0-0.12,0-0.08,0a0.05,0.05,0,0,1,0,0,0,0,0,0,1,0,0l0,0,0.08,0,0.11,0,0.16,0h0.17a0.29,0.29,0,0,1-.14,0h0Z" transform="translate(-739.19 -28.99)"/>
      <path class="h" d="M761.66,43.13h0a0.49,0.49,0,0,1-.53-0.46h0.06a0.44,0.44,0,0,0,.48.41,0.44,0.44,0,0,0,.42-0.29,0.7,0.7,0,0,0-.12-0.75,0.64,0.64,0,0,1,.18.78,0.52,0.52,0,0,1-.46.32h0Z" transform="translate(-739.19 -28.99)"/>
      <path class="h" d="M761.65,43.1l0,0a0,0,0,0,1,0,0l0.2-.05L762,42.9l0.07-.1,0.09-.3,0,0.15-0.15.29-0.13.1-0.21.06h0Z" transform="translate(-739.19 -28.99)"/>
      <path class="g" d="M761.39,42.44a0.16,0.16,0,1,1,.11.2,0.17,0.17,0,0,1-.11-0.2h0Z" transform="translate(-739.19 -28.99)"/>
      <path class="g" d="M761.55,42.66h0a0.17,0.17,0,0,1,0-.34,0.19,0.19,0,0,1,.15.09,0.17,0.17,0,0,1,0,.13,0.17,0.17,0,0,1-.17.12h0Zm0-.32a0.16,0.16,0,0,0-.07.31h0a0.16,0.16,0,0,0,.15-0.12,0.15,0.15,0,0,0,0-.12,0.15,0.15,0,0,0-.1-0.08h0Z" transform="translate(-739.19 -28.99)"/>
      <polygon class="g" points="21.29 14.49 21.27 14.39 21.42 13.88 21.58 13.64 21.82 13.46 22 13.4 22 13.43 21.84 13.48 21.6 13.66 21.44 13.89 21.29 14.49 21.29 14.49"/>
      <path class="g" d="M760.6,44.69a0.6,0.6,0,0,1-.18-0.2,1.8,1.8,0,0,1-.21-0.59c0-.06,0-0.12,0-0.18a1.93,1.93,0,0,1,.05-0.66,1.43,1.43,0,0,1,.09-0.25,1.5,1.5,0,0,1,.13-0.23,0.79,0.79,0,0,1,.14-0.15l0.15-.11a0.85,0.85,0,0,1,.83-0.11v0a0.82,0.82,0,0,0-.8.11l-0.14.11a0.73,0.73,0,0,0-.13.15,1.47,1.47,0,0,0-.13.23,1.26,1.26,0,0,0-.09.25,2,2,0,0,0-.06.58c0,0.13,0,.2,0,0.25a1.76,1.76,0,0,0,.21.58,1.13,1.13,0,0,0,.16.21h0Z" transform="translate(-739.19 -28.99)"/>
      <path class="g" d="M761.27,44.64a0.16,0.16,0,1,1,.32,0,0.16,0.16,0,1,1-.32,0h0Z" transform="translate(-739.19 -28.99)"/>
      <path class="h" d="M760.94,45.32a0.93,0.93,0,0,1-.58-0.26,1.46,1.46,0,0,1-.22-0.22,0,0,0,0,1,0,0,0,0,0,0,1,0,0,1.39,1.39,0,0,0,.21.21,1.5,1.5,0,0,0,.55.31h0Z" transform="translate(-739.19 -28.99)"/>
      <path class="h" d="M761.43,45.42a0,0,0,0,1,0,0,0,0,0,0,1,0,0,0.64,0.64,0,0,0,.44-0.23,0.57,0.57,0,0,0,.11-0.42,0.55,0.55,0,0,0-.41-0.45,0.48,0.48,0,0,1,.47.45,0.61,0.61,0,0,1-.12.46,0.7,0.7,0,0,1-.48.25h0Z" transform="translate(-739.19 -28.99)"/>
      <polygon class="h" points="22.2 16.41 22.61 16.16 22.73 15.97 22.76 15.78 22.81 15.79 22.74 16.09 22.65 16.2 22.42 16.35 22.2 16.41 22.2 16.41"/>
      <path class="h" d="M762.32,42.17a0.58,0.58,0,0,1-.34-0.12,0.74,0.74,0,0,0,.49,0,0.59,0.59,0,0,0,.33-0.36l0.05,0a0.64,0.64,0,0,1-.36.39,0.42,0.42,0,0,1-.17,0h0Z" transform="translate(-739.19 -28.99)"/>
      <polygon class="h" points="23.15 13.15 23.09 13.14 23.15 13.09 23.35 13.01 23.56 12.75 23.6 12.63 23.65 12.65 23.56 12.87 23.39 13.06 23.15 13.15 23.15 13.15"/>
      <path class="h" d="M762.37,41.58c-0.06-.07-0.09-0.14-0.14-0.19a0.21,0.21,0,0,0-.16-0.06V41.27a0.25,0.25,0,0,1,.2.08,0.33,0.33,0,0,1,.1.23h0Z" transform="translate(-739.19 -28.99)"/>
      <path class="h" d="M762.11,41.75h0a0.37,0.37,0,0,0,.26-0.29,0,0,0,0,1,0,0,0,0,0,0,1,0,0,0.31,0.31,0,0,1-.29.28h0Z" transform="translate(-739.19 -28.99)"/>
      <path class="g" d="M761.91,41.53a0.19,0.19,0,0,1,.18-0.19,0.19,0.19,0,0,1,0,.39,0.19,0.19,0,0,1-.18-0.19h0Z" transform="translate(-739.19 -28.99)"/>
      <path class="g" d="M762.08,41.73a0.19,0.19,0,0,1-.18-0.2,0.19,0.19,0,0,1,.37,0,0.19,0.19,0,0,1-.19.2h0Zm0-.39a0.18,0.18,0,0,0-.17.19,0.17,0.17,0,0,0,.34,0,0.18,0.18,0,0,0-.17-0.19h0Z" transform="translate(-739.19 -28.99)"/>
      <path class="a" d="M762.31,41.53v0Z" transform="translate(-739.19 -28.99)"/>
      <path class="h" d="M762.52,39.47A0.82,0.82,0,0,1,762,39a0,0,0,0,1,0,0,0,0,0,0,1,0,0,1.06,1.06,0,0,0,.46.53h0Z" transform="translate(-739.19 -28.99)"/>
      <path class="g" d="M762.57,39.58h0l-0.07,0-0.13-.08-0.18-.15a0.87,0.87,0,0,1-.11-0.12l0-.08a0.12,0.12,0,0,1,.07.06,0.84,0.84,0,0,0,.11.12l0.18,0.14,0.12,0.07,0.07,0a0,0,0,0,1,0,0h0Z" transform="translate(-739.19 -28.99)"/>
      <path class="g" d="M763.18,39.18a0.25,0.25,0,0,1-.11,0,0.7,0.7,0,0,1-.16-0.13,0.72,0.72,0,0,1-.14-0.19,0.59,0.59,0,0,1,0-.1,0.08,0.08,0,0,1,0,0s0,0,0,0l0,0.06a0.54,0.54,0,0,0,0,.1,0.79,0.79,0,0,0,.29.31l0.1,0.07h0Z" transform="translate(-739.19 -28.99)"/>
      <path class="g" d="M763.69,39.08a0.19,0.19,0,0,1-.13-0.05,0.77,0.77,0,0,1-.13-0.13l-0.08-.12,0-.09a0.06,0.06,0,0,1,0,0,0,0,0,0,0,0,0l0,0.06,0,0.09a0.6,0.6,0,0,0,.08.11L763.58,39l0.12,0.07h0Z" transform="translate(-739.19 -28.99)"/>
      <path class="g" d="M764.15,38.47a0.15,0.15,0,1,1,.29,0,0.15,0.15,0,1,1-.29,0h0Z" transform="translate(-739.19 -28.99)"/>
      <path class="h" d="M775.66,43.1a0.51,0.51,0,0,1-.43-0.25,0.68,0.68,0,0,0,.44.19,0.41,0.41,0,0,0,.39-0.22,0.39,0.39,0,0,0,0-.4,0,0,0,0,1,0,0,0,0,0,0,1,0,0,0.45,0.45,0,0,1,0,.46,0.48,0.48,0,0,1-.44.25h0Z" transform="translate(-739.19 -28.99)"/>
      <path class="h" d="M761.18,45h0a1,1,0,0,1-.75-0.52,1.8,1.8,0,0,1-.21-0.59c0-.05,0-0.11,0-0.17V43.63a1.94,1.94,0,0,1,.06-0.6,1.14,1.14,0,0,1,.09-0.25,1.72,1.72,0,0,1,.13-0.23,0.88,0.88,0,0,1,.14-0.15l0.15-.12a0.82,0.82,0,0,1,1,0l0,0a0.76,0.76,0,0,0-.92,0l-0.14.11a0.77,0.77,0,0,0-.13.14,1.46,1.46,0,0,0-.13.22,1,1,0,0,0-.09.24,1.85,1.85,0,0,0-.06.58V43.7c0,0.06,0,.12,0,0.17a1.76,1.76,0,0,0,.21.57,0.9,0.9,0,0,0,.7.49,0.52,0.52,0,0,0,.36-0.1,0.21,0.21,0,0,0,.08-0.15,0.14,0.14,0,0,1,0,.2,0.57,0.57,0,0,1-.35.12h0Z" transform="translate(-739.19 -28.99)"/>
      <path class="h" d="M771.59,39.57h0a3.81,3.81,0,0,1-1.83-.59l-0.12-.07a0.17,0.17,0,0,0-.21,0,0.16,0.16,0,0,0,0,.22,0.15,0.15,0,0,1-.06-0.25,0.22,0.22,0,0,1,.29,0l0.12,0.07a3.7,3.7,0,0,0,1.81.58,2.31,2.31,0,0,0,1.31-.35,0.84,0.84,0,0,0,.55-0.94,0.44,0.44,0,0,0-.29-0.26,0.55,0.55,0,0,0-.47.09,0.36,0.36,0,0,0-.15.19,0.38,0.38,0,0,0,0,.35,0.33,0.33,0,0,0,.33.12,0.3,0.3,0,0,0,.2-0.19,0.23,0.23,0,0,0,0-.21,0.11,0.11,0,0,0-.12,0,0.14,0.14,0,0,0-.11.12,0,0,0,0,1,0,0,0,0,0,0,1,0,0,0.2,0.2,0,0,1,.16-0.16,0.18,0.18,0,0,1,.18.06,0.29,0.29,0,0,1,0,.26,0.36,0.36,0,0,1-.24.23,0.39,0.39,0,0,1-.39-0.14,0.44,0.44,0,0,1-.05-0.4,0.43,0.43,0,0,1,.17-0.22,0.61,0.61,0,0,1,.52-0.1,0.49,0.49,0,0,1,.33.29,0.89,0.89,0,0,1-.57,1,2.26,2.26,0,0,1-1.31.36h0Z" transform="translate(-739.19 -28.99)"/>
      <path class="h" d="M772.91,38.8a0.71,0.71,0,0,0,.19-0.25,0.23,0.23,0,0,0,0-.21,0.14,0.14,0,0,0-.12-0.07,0,0,0,0,1,0,0s0,0,0,0a0.18,0.18,0,0,1,.16.08,0.28,0.28,0,0,1,0,.27,0.37,0.37,0,0,1-.24.24h0Z" transform="translate(-739.19 -28.99)"/>
      <path class="g" d="M769.33,39.06a0.18,0.18,0,0,1,.18-0.18,0.18,0.18,0,1,1,0,.36,0.18,0.18,0,0,1-.18-0.18h0Z" transform="translate(-739.19 -28.99)"/>
      <path class="g" d="M772.78,38.42a0.15,0.15,0,0,1,.17-0.14,0.17,0.17,0,0,1-.06.32,0.16,0.16,0,0,1-.11-0.19h0Z" transform="translate(-739.19 -28.99)"/>
      <path class="h" d="M768.14,39.56a0.61,0.61,0,0,0,.22-0.45,0.47,0.47,0,0,0-.22-0.44,0,0,0,0,1,0,0,0,0,0,0,1,0,0,0.52,0.52,0,0,1,.24.5,0.48,0.48,0,0,1-.27.45h0Z" transform="translate(-739.19 -28.99)"/>
      <polygon class="h" points="35.3 12.01 35.25 10.52 35.3 10.52 35.3 12.01 35.3 12.01"/>
      <path class="h" d="M768.14,39.51a0.45,0.45,0,0,0,.17-0.33s0,0,0,0a0,0,0,0,1,0,0,0.33,0.33,0,0,1-.23.32h0Z" transform="translate(-739.19 -28.99)"/>
      <path class="h" d="M769.91,37.87a0.19,0.19,0,0,0-.22-0.18,1,1,0,0,0-.44.22,1.19,1.19,0,0,1-1.26,0,0.94,0.94,0,0,0-.43-0.22,0.22,0.22,0,0,0-.21.23,0.32,0.32,0,0,0,0,.08,0.09,0.09,0,0,0,0,0,0.22,0.22,0,0,1,0-.16,0.2,0.2,0,0,1,.15-0.08A1,1,0,0,1,768,38a1.2,1.2,0,0,0,1.26,0,1.06,1.06,0,0,1,.45-0.24,0.13,0.13,0,0,1,.12.1,0.23,0.23,0,0,1,0,.08l0,0a0.31,0.31,0,0,0,0-.1h0Z" transform="translate(-739.19 -28.99)"/>
      <path class="h" d="M768.67,38.23h0A1.13,1.13,0,0,1,768,38l-0.19-.12a0.41,0.41,0,0,0-.26-0.11,0.18,0.18,0,0,0-.13.07,0.19,0.19,0,0,0,0,.14h-0.08a0.31,0.31,0,0,1,0-.09,0.25,0.25,0,0,1,.24-0.26,0.38,0.38,0,0,1,.26.11,1.25,1.25,0,0,0,.18.12,1.12,1.12,0,0,0,.62.18,1.1,1.1,0,0,0,.62-0.18l0.18-.12a0.42,0.42,0,0,1,.27-0.11,0.22,0.22,0,0,1,.25.2,0.23,0.23,0,0,1,0,.09h-0.08V37.89a0.1,0.1,0,0,0-.09-0.08,0.39,0.39,0,0,0-.24.11l-0.2.13a1.15,1.15,0,0,1-.65.18h0Zm-0.79-.35L768.05,38a1.08,1.08,0,0,0,.62.18,1.1,1.1,0,0,0,.62-0.18l0.19-.12a0.43,0.43,0,0,1,.28-0.12,0.15,0.15,0,0,1,.12.06,0.19,0.19,0,0,0-.18-0.09,0.36,0.36,0,0,0-.24.1l-0.19.12a1.22,1.22,0,0,1-1.29,0l-0.11-.06h0Zm-0.31-.16a0.19,0.19,0,0,0-.18.16l0,0a0.23,0.23,0,0,1,.18-0.09,0.41,0.41,0,0,1,.25.09l0,0a0.34,0.34,0,0,0-.23-0.1h0Z" transform="translate(-739.19 -28.99)"/>
      <path class="h" d="M764.53,38.8a0.4,0.4,0,0,0,.24-0.33,0,0,0,0,1,.06,0,0.34,0.34,0,0,1-.3.33h0Z" transform="translate(-739.19 -28.99)"/>
      <path class="h" d="M760.88,44.66a0.09,0.09,0,0,1-.07,0l-0.1-.12A1.52,1.52,0,0,1,760.5,44a1.91,1.91,0,0,1,0-.64,1.62,1.62,0,0,1,.22-0.58,0.91,0.91,0,0,1,.47-0.34l0,0.05a0.86,0.86,0,0,0-.44.31,1.55,1.55,0,0,0-.21.56,1.84,1.84,0,0,0,0,.61,1.46,1.46,0,0,0,.21.52l0.09,0.11,0.08,0.06h-0.05Z" transform="translate(-739.19 -28.99)"/>
      <path class="h" d="M761,44.74a0.41,0.41,0,0,1-.28-0.15l-0.1-.13a1.5,1.5,0,0,1-.22-0.54,1.9,1.9,0,0,1,0-.64,1.55,1.55,0,0,1,.22-0.58,0.92,0.92,0,0,1,.58-0.37v0.06a0.87,0.87,0,0,0-.54.34,1.49,1.49,0,0,0-.21.56,1.81,1.81,0,0,0,0,.61,1.47,1.47,0,0,0,.21.52l0.09,0.12a0.4,0.4,0,0,0,.4.15,0.35,0.35,0,0,1-.16,0h0Z" transform="translate(-739.19 -28.99)"/>
      <path class="h" d="M760.54,43.28a0.67,0.67,0,0,1,.16-0.61,0.91,0.91,0,0,1,.3-0.22l0.15-.08a0,0,0,0,1,0,0,0,0,0,0,1,0,0l-0.16.09a0.85,0.85,0,0,0-.29.21,0.86,0.86,0,0,0-.21.57h0Z" transform="translate(-739.19 -28.99)"/>
      <path class="h" d="M774.91,44.8a0.23,0.23,0,0,1-.12-0.05,0.93,0.93,0,0,1-.37-0.61,0.63,0.63,0,0,1,.14-0.54,0,0,0,0,1,0,0,0,0,0,0,1,0,0,0.57,0.57,0,0,0-.13.49,0.87,0.87,0,0,0,.34.57,0.19,0.19,0,0,0,.1,0,0.2,0.2,0,0,1,.09,0l-0.1,0h0Z" transform="translate(-739.19 -28.99)"/>
      <path class="h" d="M775.46,44h0a1.35,1.35,0,0,1-.89-0.36,0.51,0.51,0,0,1-.14-0.4,0.36,0.36,0,0,1,.16-0.33l0,0a0.29,0.29,0,0,0-.14.28,0.45,0.45,0,0,0,.13.36,1.28,1.28,0,0,0,.85.34,1,1,0,0,0,.55-0.16,0.83,0.83,0,0,0,.35-0.49,0.61,0.61,0,0,1-.32.54,1,1,0,0,1-.57.17h0Z" transform="translate(-739.19 -28.99)"/>
      <path class="g" d="M774.41,49.1a2.33,2.33,0,0,1,0,.23,1.78,1.78,0,0,1-.2.65,1.71,1.71,0,0,1-.39.53,1.82,1.82,0,0,1-.55.38,2.32,2.32,0,0,1-.62.21,3.09,3.09,0,0,1-.64.08,4.52,4.52,0,0,1-.6,0c-0.25,0-.39-0.05-0.63-0.07a5.23,5.23,0,0,0-.53,0,2.86,2.86,0,0,0-.54,0,1,1,0,0,1-1.68.14,2,2,0,0,0-.48-0.14,2.86,2.86,0,0,0-.54,0,5.23,5.23,0,0,0-.53,0c-0.25,0-.39.06-0.63,0.07a4.52,4.52,0,0,1-.6,0,3.09,3.09,0,0,1-.64-0.08A2.32,2.32,0,0,1,764,50.9a1.82,1.82,0,0,1-.55-0.38A1.7,1.7,0,0,1,763,50a1.79,1.79,0,0,1-.2-0.65c0-.09,0-0.23,0-0.23h0V39.54h11.58V49.1h0Z" transform="translate(-739.19 -28.99)"/>
      <path class="h" d="M768.62,51.65l0,0a2.22,2.22,0,0,0-1.07-.48,2.81,2.81,0,0,0-.54,0l-0.4,0h-0.12l-0.3,0-0.34,0a4.13,4.13,0,0,1-.6,0,3.16,3.16,0,0,1-.65-0.08,2.33,2.33,0,0,1-.62-0.21,1.84,1.84,0,0,1-.55-0.39A1.78,1.78,0,0,1,763,50a1.89,1.89,0,0,1-.2-0.66c0-.09,0-0.24,0-0.24V39.54l11.61,0,0,9.6a1.37,1.37,0,0,1,0,.24,1.84,1.84,0,0,1-.2.66,1.76,1.76,0,0,1-.4.54,1.86,1.86,0,0,1-.55.39,2.33,2.33,0,0,1-.62.21,3.21,3.21,0,0,1-.65.08,4.24,4.24,0,0,1-.59,0l-0.35,0-0.3,0h-0.12l-0.4,0a2.81,2.81,0,0,0-.54,0,2.22,2.22,0,0,0-1.07.48l0,0h0ZM767,51a2.91,2.91,0,0,1,.54,0,2.05,2.05,0,0,1,.49.14,0.68,0.68,0,0,0,1.18,0,2,2,0,0,1,.49-0.14,2.92,2.92,0,0,1,.54,0l0.41,0h0.12l0.3,0,0.33,0a4.34,4.34,0,0,0,.59,0,3,3,0,0,0,.64-0.08,2.24,2.24,0,0,0,.61-0.2,1.82,1.82,0,0,0,.54-0.38,1.7,1.7,0,0,0,.39-0.52,1.78,1.78,0,0,0,.19-0.64,2.25,2.25,0,0,0,0-.23V39.54l-11.55,0,0,9.54a2.27,2.27,0,0,0,0,.23,1.74,1.74,0,0,0,.19.64,1.69,1.69,0,0,0,.39.52,1.82,1.82,0,0,0,.54.38,2.24,2.24,0,0,0,.61.2,3,3,0,0,0,.64.08,4.14,4.14,0,0,0,.58,0l0.34,0,0.3,0h0.12L767,51h0Z" transform="translate(-739.19 -28.99)"/>
      <rect class="c" x="24.22" y="11.12" width="4.94" height="4.94"/>
      <path class="h" d="M768.38,45.08h-5l0-5,5,0,0,5h0Zm-0.06-5-4.91,0,0,4.91,4.88,0V40.12h0Z" transform="translate(-739.19 -28.99)"/>
      <path class="i" d="M766.41,43.92l-0.15,0-0.21,0L766,44a1.19,1.19,0,0,0,.05.32,0.78,0.78,0,0,0,.11.24,0.81,0.81,0,0,0,.23.23,0.56,0.56,0,0,0,.36.1,0.77,0.77,0,0,0,.56-0.68c0.08-.31.3-0.48,0.45-0.36a0.2,0.2,0,0,1,0,.28,0.54,0.54,0,0,1-.25.17l0.18,0.23a0.55,0.55,0,0,0,.45-0.45,0.43,0.43,0,0,0-.29-0.51,0.51,0.51,0,0,0-.6.31c-0.13.26-.22,0.75-0.59,0.68a0.51,0.51,0,0,1-.3-0.47V43.92Z" transform="translate(-739.19 -28.99)"/>
      <path class="i" d="M765.73,44a1.19,1.19,0,0,1-.05.32,0.73,0.73,0,0,1-.11.24,0.76,0.76,0,0,1-.23.23,0.56,0.56,0,0,1-.36.1,0.77,0.77,0,0,1-.56-0.68c-0.08-.31-0.3-0.48-0.45-0.36a0.2,0.2,0,0,0,0,.28,0.54,0.54,0,0,0,.25.17l-0.17.23a0.56,0.56,0,0,1-.46-0.45,0.48,0.48,0,0,1,.29-0.51,0.51,0.51,0,0,1,.62.31c0.13,0.27.19,0.75,0.57,0.67a0.51,0.51,0,0,0,.3-0.47l0.15-.16L765.72,44h0Z" transform="translate(-739.19 -28.99)"/>
      <path class="j" d="M766.33,41.9l0.65-.7a0.29,0.29,0,0,0,.1-0.2l-0.13,0,0-.07V40.88l0.18,0s0-.05,0-0.08a0.65,0.65,0,0,1,0-.07h-0.2s0-.05,0-0.08a0.23,0.23,0,0,1,0-.07l0.11,0h0.11a0.56,0.56,0,0,1,.87-0.05,0.5,0.5,0,0,1-.12.79,0.38,0.38,0,0,1-.41-0.07l0.12-.23a0.18,0.18,0,0,0,.29-0.15,0.28,0.28,0,0,0-.26-0.27,0.29,0.29,0,0,0-.29.19,0.57,0.57,0,0,0,0,.21,1.37,1.37,0,0,1,0,.23,0.52,0.52,0,0,1-.14.22l-0.66.72-2.58,2.79-0.19-.18Z" transform="translate(-739.19 -28.99)"/>
      <path class="i" d="M764.42,42.15a10.28,10.28,0,0,0,.71,2,1.89,1.89,0,0,1,.74-0.17,1.71,1.71,0,0,1,.74.17,10.38,10.38,0,0,0,.71-2l-1.46-1.88Z" transform="translate(-739.19 -28.99)"/>
      <path class="j" d="M766,40.91l1,1.3a9.39,9.39,0,0,1-.55,1.58,2.84,2.84,0,0,0-.46-0.08V40.91Z" transform="translate(-739.19 -28.99)"/>
      <path class="j" d="M765.74,40.91l-1,1.3a9.36,9.36,0,0,0,.55,1.58,3,3,0,0,1,.46-0.08V40.91Z" transform="translate(-739.19 -28.99)"/>
      <rect class="j" x="29.69" y="11.12" width="4.94" height="4.94"/>
      <path class="h" d="M773.85,45.08h-5l0-5,5,0,0,5h0Zm-0.06-5-4.91,0,0,4.91,4.88,0V40.12h0Z" transform="translate(-739.19 -28.99)"/>
      <path class="j" d="M773.81,49.33a1.3,1.3,0,0,1-.13.4,1.52,1.52,0,0,1-.26.36,1.49,1.49,0,0,1-.37.27,1.69,1.69,0,0,1-.41.15,3.11,3.11,0,0,1-1,.1,5.78,5.78,0,0,1-.62-0.07c-0.23,0-.4,0-0.67-0.06H770a2.89,2.89,0,0,0-.44.06,4.93,4.93,0,0,0-.67.19V45.58h4.95V49.1s0,0.17,0,.23h0Z" transform="translate(-739.19 -28.99)"/>
      <path class="h" d="M768.85,50.78v-5.2l5,0,0,3.55s0,0.18,0,.23a1.29,1.29,0,0,1-.13.41l-0.05.09a1.23,1.23,0,0,1-.21.27,1.45,1.45,0,0,1-.38.28,1.72,1.72,0,0,1-.42.15,3.19,3.19,0,0,1-1,.1,5.22,5.22,0,0,1-.57-0.06c-0.28,0-.45-0.05-0.71-0.07H770a3.05,3.05,0,0,0-.44.06,5.15,5.15,0,0,0-.66.19h0Zm5-5.2-4.92,0,0,5.08a5,5,0,0,1,.63-0.18,2.85,2.85,0,0,1,.44-0.06h0.37c0.27,0,.44,0,0.67.06a5.74,5.74,0,0,0,.61.06,3.17,3.17,0,0,0,1-.09,1.6,1.6,0,0,0,.41-0.15,1.44,1.44,0,0,0,.37-0.26,1.3,1.3,0,0,0,.2-0.26l0.06-.09a1.29,1.29,0,0,0,.13-0.39c0-.06,0-0.23,0-0.23V45.58h0Z" transform="translate(-739.19 -28.99)"/>
      <path class="k" d="M770.18,47l-0.12,0,0.05,0a0.21,0.21,0,0,0,0-.08,0.13,0.13,0,0,1,0-.08,0.08,0.08,0,0,1,.12,0,0.24,0.24,0,0,1,0,.09,0.17,0.17,0,0,0,0,.09,0.15,0.15,0,0,0,0,.05l-0.12,0h0Z" transform="translate(-739.19 -28.99)"/>
      <path class="k" d="M770.12,47.09a0,0,0,0,1,0,0,0,0,0,0,1,0,0,0,0,0,0,1,0,0,0,0,0,0,1,0,0h0Z" transform="translate(-739.19 -28.99)"/>
      <path class="k" d="M770,46.1h0a0.15,0.15,0,0,1,0-.07,0.27,0.27,0,0,1,0-.07s0,0,0-.06,0,0,0-.06a0.14,0.14,0,0,0,0-.06l0,0h0l0.05,0a0.1,0.1,0,0,1,0,.06l0,0.09,0,0,0,0h0l0,0.05,0,0h0Z" transform="translate(-739.19 -28.99)"/>
      <path class="c" d="M772.76,46.74s0,0.09,0,.17,0,0.12,0,.16a0.18,0.18,0,0,0,0,.09,0.18,0.18,0,0,1,.06.22,0.34,0.34,0,0,0,0,.1l0,0.11c0,0.05,0,.16,0,0.27s0,0,0,0a0,0,0,0,1,0,0,0.13,0.13,0,0,0,0,.1l0,0-0.1,0-0.07,0V47.94l0,0a0.26,0.26,0,0,0,.07-0.09,0.58,0.58,0,0,0,0-.12,0.47,0.47,0,0,0,0-.14s0-.07,0-0.11,0-.06,0-0.1,0,0-.08-0.09a0.36,0.36,0,0,0,0,.06,0.14,0.14,0,0,1,0,0,0.09,0.09,0,0,1,0,.05,1.06,1.06,0,0,1-.1.09,0.72,0.72,0,0,0-.18.24,0.27,0.27,0,0,1,0,.09,0.1,0.1,0,0,1-.06,0l0,0a0.06,0.06,0,0,0,0,0H772l-0.09,0,0-.06c0.06,0,.09,0,0.13-0.05l0.06-.06,0-.05,0,0,0.06-.1a0.54,0.54,0,0,0,0-.08,0.18,0.18,0,0,0,0-.06,0.24,0.24,0,0,0,0,0l-0.06,0v0a0.06,0.06,0,0,1,0,0h0a0,0,0,0,1,0,0,0.06,0.06,0,0,1,0,0,0.15,0.15,0,0,1,0,0h-0.11a0.31,0.31,0,0,1,0,0,0.07,0.07,0,0,1,0,0h0l0,0a0.08,0.08,0,0,1,0,0V47.34a0.5,0.5,0,0,1-.16-0.1h0a1.43,1.43,0,0,1-.56,0,0.72,0.72,0,0,1,0,.15c0,0.05,0,.08,0,0.13a0.52,0.52,0,0,0,0,.09,0.66,0.66,0,0,0,0,.16s0,0.06,0,.1a0.06,0.06,0,0,1,0,0,0.14,0.14,0,0,1-.05,0l0,0a0.06,0.06,0,0,0,0,0l0,0-0.08,0-0.07,0V47.94l0.06,0a0.1,0.1,0,0,0,0-.06,0.64,0.64,0,0,0,0-.11,1.1,1.1,0,0,0,0-.11,0.06,0.06,0,0,0,0,0l0,0a0.79,0.79,0,0,1,0-.21v0h-0.1l-0.09,0h-0.06l-0.12.11a0,0,0,0,0,0,0,0.23,0.23,0,0,0,.1.11s0.06,0,0,.07a0.19,0.19,0,0,0,0,0,0,0,0,0,0,0,0v0.06l0,0.07,0,0-0.06,0a0.48,0.48,0,0,0,0-.12,0.45,0.45,0,0,0,0-.12c0-.08-0.06-0.09-0.09-0.14s0-.1,0-0.17a0.83,0.83,0,0,1,.12-0.13,0.16,0.16,0,0,0-.07-0.09,0.52,0.52,0,0,1-.09-0.19,0.12,0.12,0,0,1,0-.05v0l-0.13-.06,0,0h-0.14l-0.08,0L770,46.64l-0.12,0h-0.08a0.09,0.09,0,0,1,0,0l-0.05-.09v0a0.2,0.2,0,0,1,0,0h0.06a0.25,0.25,0,0,0,.06-0.06l0.06-.06,0-.06a0.18,0.18,0,0,1,0-.06l0,0,0.07-.05,0,0,0,0a0.59,0.59,0,0,1,.18.05l0.13,0.07,0.05,0,0.07,0h0.06l0.05,0,0,0.06a0.36,0.36,0,0,0,0,.06,0.15,0.15,0,0,1-.09.06l0.13,0h0.23c0.22,0,.22-0.05.37-0.06s0.21,0,.35,0l0.3,0,0.3,0h0.26a0.86,0.86,0,0,1,.25,0,0.3,0.3,0,0,1,.16.09l0,0a0.18,0.18,0,0,1,0,.06s0,0,0,.06a0.21,0.21,0,0,1,0,.09,0.24,0.24,0,0,1-.14.15h0Z" transform="translate(-739.19 -28.99)"/>
      <path class="j" d="M771.85,46.87l0-.07a0.36,0.36,0,0,1-.21,0l0-.07h-0.07l-0.06,0,0.11,0,0.09,0a0.37,0.37,0,0,1,.14,0,1.81,1.81,0,0,1,.46,0,0.52,0.52,0,0,0,.33,0,0.11,0.11,0,0,0,.06-0.1,0.12,0.12,0,0,0,0-.1l0,0,0,0,0.07,0a0.14,0.14,0,0,1,.06.12,0.13,0.13,0,0,1-.07.12,0.52,0.52,0,0,1-.34,0,1.82,1.82,0,0,0-.46,0,0.34,0.34,0,0,0-.13,0l-0.1,0-0.1,0,0.14,0-0.05.08a0.13,0.13,0,0,1,.08,0l0.13,0h0l0,0.09a0.2,0.2,0,0,1,.09,0l0.1,0a0.24,0.24,0,0,1,.12,0,0.64,0.64,0,0,1,.21,0,0.58,0.58,0,0,0,.21,0,0.39,0.39,0,0,0,.15,0h0a0.36,0.36,0,0,1-.14,0,0.69,0.69,0,0,1-.24,0,0.59,0.59,0,0,0-.21,0,0.22,0.22,0,0,0-.1,0,0.3,0.3,0,0,1-.1,0l-0.1,0h0Z" transform="translate(-739.19 -28.99)"/>
      <path class="j" d="M770.16,46.22l-0.08,0a0.2,0.2,0,0,0-.05.07,0.13,0.13,0,0,0,.07,0l0,0a0.09,0.09,0,0,0,0-.07h0Z" transform="translate(-739.19 -28.99)"/>
      <path class="a" d="M770.16,46.22l-0.08,0a0.2,0.2,0,0,0-.05.07,0.13,0.13,0,0,0,.07,0l0,0a0.09,0.09,0,0,0,0-.07h0Z" transform="translate(-739.19 -28.99)"/>
      <path class="j" d="M770.89,47.36h0l0-.07,0,0a0.69,0.69,0,0,0,0-.12,0.33,0.33,0,0,0,0-.08,0.06,0.06,0,0,1,0,0,0,0,0,0,0,0,0l0,0.05a0.41,0.41,0,0,1,0,.09,0.29,0.29,0,0,1,0,.08V47.3a0.1,0.1,0,0,1,0,0h0a0.05,0.05,0,0,0,0,0h0Z" transform="translate(-739.19 -28.99)"/>
      <path class="a" d="M771.31,46.94a0.81,0.81,0,0,0,0,.08c0,0.08,0,.12-0.06.21v0Z" transform="translate(-739.19 -28.99)"/>
      <path class="k" d="M770.23,46.74l0.13,0.06a0.54,0.54,0,0,0,.21-0.24,0.87,0.87,0,0,0,.08-0.26l-0.11,0h0a0.94,0.94,0,0,1-.1.25,0.67,0.67,0,0,1-.16.18Z" transform="translate(-739.19 -28.99)"/>
      <polygon class="c" points="31.04 17.74 31.05 17.71 31.08 17.71 31.11 17.73 31.04 17.74"/>
      <path class="k" d="M770.53,47.83l0.05-.08,0.08-.07h0s0,0.06,0,.09l0,0.07a0.17,0.17,0,0,1,0,.06l0,0a0.29,0.29,0,0,1-.08-0.11h0Z" transform="translate(-739.19 -28.99)"/>
      <path class="k" d="M772.51,47.94l0.09,0L772.69,48a0,0,0,0,1,0,0l-0.09,0h-0.14l0,0a0.32,0.32,0,0,1,.09-0.11h0Z" transform="translate(-739.19 -28.99)"/>
      <path class="k" d="M771.93,47.82l0.09,0,0.09,0.06a0.07,0.07,0,0,1,0,0l-0.09,0h-0.14l0,0a0.29,0.29,0,0,1,.09-0.11h0Z" transform="translate(-739.19 -28.99)"/>
      <path class="k" d="M770.88,47.94L771,48,771.06,48a0.06,0.06,0,0,1,0,0l-0.09,0h-0.14l0,0a0.31,0.31,0,0,1,.09-0.11h0Z" transform="translate(-739.19 -28.99)"/>
      <path class="k" d="M770.34,46.15a0.07,0.07,0,0,1,0-.09l0,0a0.09,0.09,0,0,0,0,0,0.28,0.28,0,0,0,0-.06,0.35,0.35,0,0,1,0-.06,0.13,0.13,0,0,1,0-.1l0,0a0.09,0.09,0,0,1,0,0,0.21,0.21,0,0,0,0,.07,0.73,0.73,0,0,1,0,.08,0.26,0.26,0,0,1,0,.08,0.18,0.18,0,0,1,0,.07,0.13,0.13,0,0,1,0,0l0,0h0Z" transform="translate(-739.19 -28.99)"/>
      <path class="c" d="M770.15,46.64h-0.07a0.21,0.21,0,0,0,.13,0l0.13-.1-0.12.11h0l-0.07,0h0Z" transform="translate(-739.19 -28.99)"/>
      <path class="a" d="M770.48,47.16a0.22,0.22,0,0,0,.1.07Z" transform="translate(-739.19 -28.99)"/>
      <path class="a" d="M770.58,47a1.75,1.75,0,0,0,.11.25Z" transform="translate(-739.19 -28.99)"/>
      <path class="a" d="M772.28,47.37h0a0.5,0.5,0,0,0,.16-0.11Z" transform="translate(-739.19 -28.99)"/>
      <path class="j" d="M771.82,47.28h0v0a1.57,1.57,0,0,0,.29-0.11,0.66,0.66,0,0,1,.17-0.06l-0.16.09a1.5,1.5,0,0,1-.29.11h0Z" transform="translate(-739.19 -28.99)"/>
      <path class="j" d="M772.57,47.32h0l-0.06,0h0a0.5,0.5,0,0,1-.15-0.11,0.5,0.5,0,0,0-.11-0.09,0.2,0.2,0,0,0-.16-0.08L772,47h0a0.17,0.17,0,0,1,.16,0,0.77,0.77,0,0,1,.16.13,0.46,0.46,0,0,0,.14.11,0.1,0.1,0,0,1,0,0,0.06,0.06,0,0,0,0,0h0Z" transform="translate(-739.19 -28.99)"/>
      <path class="c" d="M772,47l0.09,0.09,0.14,0-0.05,0,0,0H772Z" transform="translate(-739.19 -28.99)"/>
      <path class="c" d="M772.71,46.42l0,0-0.06,0v0.11l0.11,0a0.06,0.06,0,0,0,0,0h0Z" transform="translate(-739.19 -28.99)"/>
      <path class="c" d="M772.41,46.87l0-.06h-0.06l-0.07,0h-0.14l0,0-0.06,0-0.07,0-0.07,0-0.12,0,0.14,0.05Z" transform="translate(-739.19 -28.99)"/>
      <path class="c" d="M771.81,46.9l0.06-.09-0.1,0h-0.18l0,0.1L771.72,47Z" transform="translate(-739.19 -28.99)"/>
      <path class="c" d="M771.66,46.69l0.09,0,0.08,0,0.05,0h0.34l0.1,0,0.16,0h0.22l0,0.06-0.33,0-0.35,0-0.25,0h-0.07Z" transform="translate(-739.19 -28.99)"/>
      <path class="j" d="M769.73,46.45h0l0.05,0h0l0,0a0.05,0.05,0,0,1,0,0,0,0,0,0,1,0,0l0,0a0,0,0,0,1,0,0h0a0.06,0.06,0,0,1,0,0h0Z" transform="translate(-739.19 -28.99)"/>
      <path class="a" d="M769.73,46.45h0l0.05,0h0l0,0a0.05,0.05,0,0,1,0,0,0,0,0,0,1,0,0l0,0a0,0,0,0,1,0,0h0A0.06,0.06,0,0,1,769.73,46.45Z" transform="translate(-739.19 -28.99)"/>
      <path class="k" d="M770.18,49.23l-0.12,0,0.05,0a0.21,0.21,0,0,0,0-.08,0.14,0.14,0,0,1,0-.08,0.07,0.07,0,0,1,.07,0,0.08,0.08,0,0,1,.05,0,0.23,0.23,0,0,1,0,.09,0.17,0.17,0,0,0,0,.09,0.17,0.17,0,0,0,0,.06l-0.12,0h0Z" transform="translate(-739.19 -28.99)"/>
      <path class="k" d="M770.12,49.29a0,0,0,0,1,0,0,0,0,0,0,1,0,0,0,0,0,0,1,0,0,0,0,0,0,1,0,0h0Z" transform="translate(-739.19 -28.99)"/>
      <path class="k" d="M770,48.3h0a0.14,0.14,0,0,1,0-.07,0.26,0.26,0,0,1,0-.07s0,0,0-.06a0.56,0.56,0,0,0,0-.06,0.13,0.13,0,0,0,0-.06l0,0h0L770,48a0.1,0.1,0,0,1,0,.06l0,0.09,0,0,0,0h0l0,0,0,0h0Z" transform="translate(-739.19 -28.99)"/>
      <path class="c" d="M772.76,48.94s0,0.09,0,.17,0,0.12,0,.17a0.17,0.17,0,0,0,0,.09,0.19,0.19,0,0,1,.06.22,0.35,0.35,0,0,0,0,.1l0,0.11a2.66,2.66,0,0,0,0,.27s0,0,0,0,0,0,0,0a0.13,0.13,0,0,0,0,.1l0,0-0.1,0-0.07,0V50.14l0,0a0.27,0.27,0,0,0,.07-0.1,0.59,0.59,0,0,0,0-.12,0.48,0.48,0,0,0,0-.14s0-.07,0-0.11,0-.06,0-0.1,0,0-.08-0.09a0.36,0.36,0,0,0,0,.06,0.15,0.15,0,0,1,0,0,0.09,0.09,0,0,1,0,.05,1.07,1.07,0,0,1-.1.09,0.72,0.72,0,0,0-.18.24,0.29,0.29,0,0,1,0,.09,0.11,0.11,0,0,1-.06,0l0,0a0.06,0.06,0,0,0,0,0H772l-0.09,0,0-.06c0.06,0,.09,0,0.13,0l0.06-.06,0-.06,0,0,0.06-.09a0.51,0.51,0,0,0,0-.08,0.2,0.2,0,0,0,0-.06,0.21,0.21,0,0,0,0,0l-0.06,0v0a0.06,0.06,0,0,1,0,.05h0a0,0,0,0,1,0,0,0.06,0.06,0,0,1,0,0,0.15,0.15,0,0,1,0,0h-0.11a0.32,0.32,0,0,1,0,0,0.07,0.07,0,0,1,0,0h0l0,0a0.08,0.08,0,0,1,0,0V49.54a0.5,0.5,0,0,1-.16-0.1h0a1.47,1.47,0,0,1-.56,0,0.7,0.7,0,0,1,0,.15c0,0.05,0,.08,0,0.13a0.52,0.52,0,0,0,0,.1,0.66,0.66,0,0,0,0,.16s0,0.06,0,.1a0.07,0.07,0,0,1,0,0,0.16,0.16,0,0,1-.05,0,0,0,0,0,0,0,0,0.07,0.07,0,0,0,0,0l0,0-0.08,0-0.07,0V50.15l0.06,0a0.1,0.1,0,0,0,0-.06,0.66,0.66,0,0,0,0-.11,1.1,1.1,0,0,0,0-.11,0.08,0.08,0,0,0,0,0l0,0a0.78,0.78,0,0,1,0-.21v0h-0.1l-0.09,0h-0.06l-0.12.11a0,0,0,0,0,0,0,0.23,0.23,0,0,0,.1.11s0.06,0,0,.07a0.17,0.17,0,0,0,0,0,0.05,0.05,0,0,0,0,0v0.05l0,0.07,0,0-0.06,0a0.48,0.48,0,0,0,0-.12,0.44,0.44,0,0,0,0-.12c0-.08-0.06-0.09-0.09-0.15s0-.09,0-0.16a0.75,0.75,0,0,1,.12-0.13,0.17,0.17,0,0,0-.07-0.09,0.5,0.5,0,0,1-.09-0.19,0.13,0.13,0,0,1,0-.05v0l-0.13-.06,0,0h-0.14l-0.08,0-0.09,0-0.12,0h-0.08a0.1,0.1,0,0,1,0,0l-0.05-.09v0a0.25,0.25,0,0,1,0,0h0.06a0.35,0.35,0,0,0,.06-0.06l0.06-.06,0-.05a0.17,0.17,0,0,1,0-.06l0,0,0.07,0,0-.05,0,0a0.54,0.54,0,0,1,.18.05l0.13,0.07,0.05,0,0.07,0h0.06l0.05,0,0,0.06a0.4,0.4,0,0,0,0,.06,0.14,0.14,0,0,1-.09.06l0.13,0h0.23c0.22,0,.22,0,0.37-0.06s0.21,0,.35,0l0.3,0c0.12,0,.18,0,0.3,0h0.26a0.8,0.8,0,0,1,.25,0,0.32,0.32,0,0,1,.16.09,0.16,0.16,0,0,1,0,.05,0.16,0.16,0,0,1,0,.06s0,0,0,.06a0.2,0.2,0,0,1,0,.09,0.25,0.25,0,0,1-.14.15h0Z" transform="translate(-739.19 -28.99)"/>
      <path class="j" d="M771.85,49.07l0-.07a0.31,0.31,0,0,1-.21,0l0-.07h-0.07l-0.06,0,0.1,0,0.1,0a0.37,0.37,0,0,1,.14,0,1.91,1.91,0,0,1,.46,0,0.52,0.52,0,0,0,.33,0,0.11,0.11,0,0,0,.06-0.1,0.12,0.12,0,0,0,0-.1l0,0a0.09,0.09,0,0,1,0,0l0.07,0a0.14,0.14,0,0,1,.06.12,0.13,0.13,0,0,1-.07.12,0.53,0.53,0,0,1-.34,0,1.89,1.89,0,0,0-.46,0,0.34,0.34,0,0,0-.13,0l-0.1,0-0.09,0,0.13,0-0.05.08a0.17,0.17,0,0,1,.08,0l0.12,0h0l0,0.09a0.18,0.18,0,0,1,.09,0l0.09,0a0.24,0.24,0,0,1,.12,0,0.59,0.59,0,0,1,.21,0,0.59,0.59,0,0,0,.21,0,0.35,0.35,0,0,0,.15,0h0a0.34,0.34,0,0,1-.14,0,0.69,0.69,0,0,1-.24,0,0.66,0.66,0,0,0-.21,0,0.21,0.21,0,0,0-.11,0,0.31,0.31,0,0,1-.1,0l-0.1,0h0Z" transform="translate(-739.19 -28.99)"/>
      <path class="j" d="M770.16,48.42a0.1,0.1,0,0,0-.08,0,0.19,0.19,0,0,0-.05.07,0.15,0.15,0,0,0,.07,0l0,0a0.09,0.09,0,0,0,0-.07h0Z" transform="translate(-739.19 -28.99)"/>
      <path class="a" d="M770.16,48.42a0.1,0.1,0,0,0-.08,0,0.19,0.19,0,0,0-.05.07,0.15,0.15,0,0,0,.07,0l0,0a0.09,0.09,0,0,0,0-.07h0Z" transform="translate(-739.19 -28.99)"/>
      <path class="j" d="M770.89,49.46h0V49.37a0.69,0.69,0,0,0,0-.12,0.39,0.39,0,0,0,0-.09,0.06,0.06,0,0,1,0,0,0.1,0.1,0,0,0,0,0h0l0,0.05,0,0.09a0.28,0.28,0,0,1,0,.08V49.4a0.1,0.1,0,0,1,0,0h0a0.05,0.05,0,0,0,0,0h0Z" transform="translate(-739.19 -28.99)"/>
      <path class="a" d="M771.31,49.15l0,0.08c0,0.08,0,.13-0.06.21v0Z" transform="translate(-739.19 -28.99)"/>
      <path class="k" d="M770.23,48.94L770.36,49a0.54,0.54,0,0,0,.21-0.24,0.85,0.85,0,0,0,.08-0.26l-0.11,0h0a1,1,0,0,1-.1.25,0.7,0.7,0,0,1-.16.18Z" transform="translate(-739.19 -28.99)"/>
      <polygon class="c" points="31.04 19.95 31.05 19.92 31.08 19.92 31.11 19.93 31.04 19.95"/>
      <path class="k" d="M770.53,50l0.05-.08,0.08-.07h0s0,0.06,0,.09l0,0.07a0.16,0.16,0,0,1,0,.06l0,0a0.3,0.3,0,0,1-.08-0.11h0Z" transform="translate(-739.19 -28.99)"/>
      <path class="k" d="M772.51,50.14l0.09,0,0.09,0.06a0,0,0,0,1,0,0l-0.09,0h-0.14l0,0a0.32,0.32,0,0,1,.09-0.11h0Z" transform="translate(-739.19 -28.99)"/>
      <path class="k" d="M771.93,50l0.09,0,0.09,0.05a0.08,0.08,0,0,1,0,0h-0.23l0,0a0.3,0.3,0,0,1,.09-0.11h0Z" transform="translate(-739.19 -28.99)"/>
      <path class="k" d="M770.88,50.15l0.09,0,0.09,0.06a0.07,0.07,0,0,1,0,0h-0.23l0,0a0.3,0.3,0,0,1,.09-0.11h0Z" transform="translate(-739.19 -28.99)"/>
      <path class="k" d="M770.34,48.35a0.07,0.07,0,0,1,0-.1l0,0a0.09,0.09,0,0,0,0-.05,0.27,0.27,0,0,0,0-.06,0.35,0.35,0,0,1,0-.06,0.12,0.12,0,0,1,0-.09l0,0a0.09,0.09,0,0,1,0,.05,0.22,0.22,0,0,0,0,.07,0.79,0.79,0,0,1,0,.08,0.25,0.25,0,0,1,0,.08,0.17,0.17,0,0,1,0,.07,0.13,0.13,0,0,1,0,0l0,0h0Z" transform="translate(-739.19 -28.99)"/>
      <path class="a" d="M770.51,49.37a0.22,0.22,0,0,0,.1.07Z" transform="translate(-739.19 -28.99)"/>
      <path class="a" d="M770.58,49.23a1.67,1.67,0,0,0,.11.25Z" transform="translate(-739.19 -28.99)"/>
      <path class="a" d="M772.28,49.57l0,0a0.53,0.53,0,0,0,.16-0.11Z" transform="translate(-739.19 -28.99)"/>
      <path class="j" d="M771.82,49.48h0v0a1.57,1.57,0,0,0,.29-0.11,0.64,0.64,0,0,1,.17-0.06l-0.16.09a1.58,1.58,0,0,1-.29.11h0Z" transform="translate(-739.19 -28.99)"/>
      <path class="j" d="M772.57,49.52h0l-0.07,0a0.49,0.49,0,0,1-.15-0.11,0.5,0.5,0,0,0-.11-0.09,0.19,0.19,0,0,0-.15-0.07H772l0,0a0.14,0.14,0,0,1,.14,0,0.82,0.82,0,0,1,.16.13,0.47,0.47,0,0,0,.14.11,0.1,0.1,0,0,1,0,0,0.05,0.05,0,0,0,0,0h0Z" transform="translate(-739.19 -28.99)"/>
      <path class="c" d="M772,49.2l0.09,0.09,0.14,0-0.05,0,0,0H772Z" transform="translate(-739.19 -28.99)"/>
      <path class="c" d="M772.71,48.62l0,0-0.06,0v0.11l0.11,0a0.07,0.07,0,0,0,0,0h0Z" transform="translate(-739.19 -28.99)"/>
      <path class="c" d="M772.41,49.07l0-.06h-0.06l-0.07,0h-0.14l0,0-0.06,0-0.07,0-0.07,0-0.12,0,0.14,0.05Z" transform="translate(-739.19 -28.99)"/>
      <path class="c" d="M771.81,49.1l0.06-.1-0.1,0h-0.18l0,0.1,0.12,0.05Z" transform="translate(-739.19 -28.99)"/>
      <path class="j" d="M769.73,48.65h0l0.05,0h0l0,0a0,0,0,0,1,0,0,0,0,0,0,1,0,0l0,0a0,0,0,0,1,0,0h0a0.05,0.05,0,0,1,0,0h0Z" transform="translate(-739.19 -28.99)"/>
      <path class="a" d="M769.73,48.65h0l0.05,0h0l0,0a0,0,0,0,1,0,0,0,0,0,0,1,0,0l0,0a0,0,0,0,1,0,0h0A0.05,0.05,0,0,1,769.73,48.65Z" transform="translate(-739.19 -28.99)"/>
      <path class="j" d="M763.43,49.33a1.21,1.21,0,0,0,.13.4,1.39,1.39,0,0,0,.63.63,1.67,1.67,0,0,0,.41.15,3.13,3.13,0,0,0,1,.1,6,6,0,0,0,.62-0.06,6.48,6.48,0,0,1,.67-0.06h0.37a3.34,3.34,0,0,1,.44.06,4.61,4.61,0,0,1,.66.19V45.58h-4.95V49.1s0,0.17,0,.23h0Z" transform="translate(-739.19 -28.99)"/>
      <path class="h" d="M768.38,50.78h0a4.55,4.55,0,0,0-.65-0.19,3.23,3.23,0,0,0-.44-0.06h-0.37a6.69,6.69,0,0,0-.67.06h-0.09c-0.14,0-.32,0-0.53.05a3.18,3.18,0,0,1-1-.1,1.76,1.76,0,0,1-.42-0.15,1.49,1.49,0,0,1-.38-0.28,1.19,1.19,0,0,1-.21-0.27l-0.05-.09a1.26,1.26,0,0,1-.13-0.41c0-.06,0-0.23,0-0.23V45.58l5,0,0,5.22h0Zm-1.3-.33h0.17a3.09,3.09,0,0,1,.45.06,4.54,4.54,0,0,1,.62.18V45.58l-4.92,0,0,3.49h0s0,0.17,0,.22a1.18,1.18,0,0,0,.13.39l0.05,0.09a1.11,1.11,0,0,0,.2.26,1.42,1.42,0,0,0,.37.26,1.64,1.64,0,0,0,.41.15,3.13,3.13,0,0,0,1,.1c0.21,0,.38,0,0.53-0.05h0.09a6.21,6.21,0,0,1,.67-0.06h0.2Z" transform="translate(-739.19 -28.99)"/>
      <path class="c" d="M764,50.19l0.23,0.14a1.94,1.94,0,0,0,.32.12V45.61H764v4.58h0Z" transform="translate(-739.19 -28.99)"/>
      <path class="c" d="M764.56,50.46l-0.12,0-0.21-.09L764,50.19V45.61h0.56v4.85h0Zm0-4.84H764v4.57l0.23,0.13,0.21,0.09,0.1,0V45.61h0Z" transform="translate(-739.19 -28.99)"/>
      <path class="c" d="M766.75,50.46V45.61H766.2V50.5l0.55,0h0Z" transform="translate(-739.19 -28.99)"/>
      <path class="c" d="M766.19,50.51v-4.9h0.56v4.86l-0.55,0h0Zm0.55-4.9H766.2V50.5l0.54,0V45.61h0Z" transform="translate(-739.19 -28.99)"/>
      <path class="c" d="M767.85,45.61H767.3v4.83a3.27,3.27,0,0,1,.55.1V45.61Z" transform="translate(-739.19 -28.99)"/>
      <path class="c" d="M767.86,50.55h0a3.21,3.21,0,0,0-.55-0.1V45.61h0.55v4.94h0Zm0-4.93H767.3v4.82a2.66,2.66,0,0,1,.54.09V45.61h0Z" transform="translate(-739.19 -28.99)"/>
      <path class="h" d="M776.37,45.4a1.71,1.71,0,0,0,1.26-1.87,1.79,1.79,0,0,0-.51-1.32,1.83,1.83,0,0,0-1.21-.51V41.64a1.89,1.89,0,0,1,1.25.52,1.84,1.84,0,0,1,.53,1.36,1.66,1.66,0,0,1-1.32,1.87h0Z" transform="translate(-739.19 -28.99)"/>
      <path class="h" d="M776.5,45.34a1.79,1.79,0,0,0,1.09-1.73,2.13,2.13,0,0,0-.57-1.55,1.34,1.34,0,0,0-1-.36V41.64a1.4,1.4,0,0,1,1,.38,2.19,2.19,0,0,1,.59,1.59,1.69,1.69,0,0,1-1.15,1.73h0Z" transform="translate(-739.19 -28.99)"/>
      <rect class="c" x="30.4" y="11.13" width="0.71" height="4.86"/>
      <path class="c" d="M770.3,45h-0.71V40.13h0.71V45h0Zm0-4.86h-0.7V45h0.69V40.13h0Z" transform="translate(-739.19 -28.99)"/>
      <rect class="c" x="31.81" y="11.13" width="0.7" height="4.86"/>
      <path class="c" d="M771.71,45H771V40.13h0.71V45h0Zm0-4.86H771V45h0.69V40.13h0Z" transform="translate(-739.19 -28.99)"/>
      <rect class="c" x="33.23" y="11.13" width="0.71" height="4.86"/>
      <path class="c" d="M773.13,45h-0.71V40.13h0.71V45h0Zm0-4.86h-0.7V45h0.69V40.13h0Z" transform="translate(-739.19 -28.99)"/>
      <path class="c" d="M765.65,45.61v5s-0.37,0-.55,0V45.61h0.55Z" transform="translate(-739.19 -28.99)"/>
      <path class="c" d="M765.46,50.58H765.1v-5h0.56v5h-0.2Zm0.18-5H765.1v4.94h0.54v-5h0Z" transform="translate(-739.19 -28.99)"/>
    </g>
  </g>
</svg>