<svg xmlns="http://www.w3.org/2000/svg" xmlns:xlink="http://www.w3.org/1999/xlink" viewBox="0 0 58.92 34.37">
  <defs>
    <style>
      .a {
        fill: none;
      }

      .b {
        clip-path: url(#a);
      }

      .c {
        fill: #1d2a6a;
      }

      .d {
        fill: #fff;
      }

      .e {
        fill: #bd0034;
      }

      .f {
        fill: #3871b9;
      }

      .g {
        fill: #d77035;
      }
    </style>
    <clipPath id="a" transform="translate(-880.57 -28.99)">
      <rect class="a" x="880.57" y="28.99" width="58.92" height="34.37"/>
    </clipPath>
  </defs>
  <title>Anguilla</title>
  <g class="b">
    <rect class="c" width="58.92" height="34.37"/>
    <polygon class="d" points="27.43 0 18.02 4.71 18.02 0 12.87 0 12.87 4.71 3.45 0 0 0 0 1.73 6.84 5.15 0 5.15 0 10.29 6.84 10.29 0 13.71 0 15.44 3.45 15.44 12.87 10.73 12.87 15.44 18.02 15.44 18.02 10.73 27.43 15.44 30.89 15.44 30.89 13.71 24.04 10.29 30.89 10.29 30.89 5.15 24.04 5.15 30.89 1.73 30.89 0 27.43 0"/>
    <polygon class="e" points="30.89 0 28.58 0 18.29 5.15 20.59 5.15 30.89 0"/>
    <polygon class="e" points="0 0 0 1.15 7.99 5.15 10.29 5.15 0 0"/>
    <polygon class="e" points="10.29 10.29 0 15.44 2.3 15.44 12.6 10.29 10.29 10.29"/>
    <polygon class="e" points="20.59 10.29 30.89 15.44 30.89 14.29 22.89 10.29 20.59 10.29"/>
    <polygon class="e" points="13.9 0 13.9 6.18 0 6.18 0 9.27 13.9 9.27 13.9 15.44 16.99 15.44 16.99 9.27 30.89 9.27 30.89 6.18 16.99 6.18 16.99 0 13.9 0"/>
    <g class="b">
      <path class="d" d="M925.51,38.74a6.3,6.3,0,0,1-6.57.22V47.5c0,3,1.8,6.27,6.57,8,4.77-1.73,6.57-5,6.57-8V39a6.3,6.3,0,0,1-6.57-.22" transform="translate(-880.57 -28.99)"/>
      <path class="f" d="M919.51,50.34c0.86,2,2.73,4,6,5.16,3.27-1.19,5.14-3.11,6-5.16h-12Z" transform="translate(-880.57 -28.99)"/>
      <path class="g" d="M929.83,42.68c-0.77-.71-1.67-0.39-2.38-1a3.14,3.14,0,0,0-2.21-.69l0.15-.28c-3.25.78-3.61,5.07-.64,5.56a8.88,8.88,0,0,0-.34-1.18,1.24,1.24,0,0,1,.42.16c0-.51-0.49-0.61-0.48-1.24a1.94,1.94,0,0,1,1.84-2.15,1.66,1.66,0,0,1,1.54.64,2.59,2.59,0,0,0,.4.56c0.13,0.13.13,0.08,0.15-.1,0-.38.71-0.55,1.51-0.18,0.21,0.1.21,0,.06-0.11" transform="translate(-880.57 -28.99)"/>
      <path class="g" d="M927,45.06a2.49,2.49,0,0,1-1,.73,2.65,2.65,0,0,0,0-.58,3.39,3.39,0,0,1-1,1.45,2.39,2.39,0,0,1-2.89-.06,1.68,1.68,0,0,1-.4-1.7,1.46,1.46,0,0,1,.81-0.75c0.07-.06,0-0.07-0.1-0.08-0.44-.05-0.57-0.66-0.2-1.58,0.08-.2,0-0.19-0.27.23a8.65,8.65,0,0,0-.52,1.69c-0.45,1.22-.21,2.93.92,3.55-0.06.08-.12,0.19-0.19,0.27,2.57,0.61,5.13-.46,4.94-3.16" transform="translate(-880.57 -28.99)"/>
      <path class="g" d="M926.26,43.12A5.66,5.66,0,0,1,927,44a1.1,1.1,0,0,0-.46.13,3,3,0,0,1,.79.41l0.07,0c1,1,1.37,2,1,2.92a1.92,1.92,0,0,1-1.16,1.16c-0.82.26-1-.41-1.78-0.29-0.05,0,0,.05.06,0.08,0.46,0.2.3,0.71-.57,1.1-0.07,0-.07,0,0.08.05a3,3,0,0,0,1.54-.3c0.43-.23,1-0.39,1.43-0.61a2.67,2.67,0,0,0,1.54-2.22,1,1,0,0,1,.3.38,3.21,3.21,0,0,0-3.56-3.78" transform="translate(-880.57 -28.99)"/>
      <path class="d" d="M923.65,44.86a0.15,0.15,0,1,1-.15.15,0.15,0.15,0,0,1,.15-0.15" transform="translate(-880.57 -28.99)"/>
      <path class="d" d="M926.5,46a0.15,0.15,0,1,0,.15.15A0.15,0.15,0,0,0,926.5,46" transform="translate(-880.57 -28.99)"/>
      <path class="d" d="M927.7,43.46a0.15,0.15,0,1,0,.15.15,0.15,0.15,0,0,0-.15-0.15" transform="translate(-880.57 -28.99)"/>
    </g>
  </g>
</svg>