<svg xmlns="http://www.w3.org/2000/svg" xmlns:xlink="http://www.w3.org/1999/xlink" viewBox="0 0 58.93 34.37">
  <defs>
    <style>
      .a {
        fill: none;
      }

      .b {
        clip-path: url(#a);
      }

      .c {
        fill: #507aca;
      }

      .d {
        fill: #fff;
      }
    </style>
    <clipPath id="a" transform="translate(-951.25 -28.99)">
      <rect class="a" x="951.25" y="28.99" width="58.93" height="34.37"/>
    </clipPath>
  </defs>
  <title>Antarctica</title>
  <g class="b">
    <rect class="c" width="58.93" height="34.37"/>
    <g class="b">
      <path class="d" d="M967.64,45.52a1.7,1.7,0,0,1-.28-1.12,1,1,0,0,1-.25,0c-0.08,0-.11.52-0.38,0.41,0-.05.19-0.44-0.06-0.61a1.76,1.76,0,0,1,0-.51s-0.32.17-.56-0.42c-0.12-.16-0.28.14-0.28,0.14s0.07,0.18-.06.22a4.44,4.44,0,0,1-.54-0.24c-0.23-.18,0-0.39-0.39-0.54a1.05,1.05,0,0,1,1-.84,1.66,1.66,0,0,1-.7-0.7,3.52,3.52,0,0,1-1-.56,5.64,5.64,0,0,1-.84-3.09c0.36-.33.84,1.12,1.54,1.55l1,0.42a7.91,7.91,0,0,1,1.13.84l1.26,0.42A8.13,8.13,0,0,0,969.46,42a1.31,1.31,0,0,0,.69-0.28,1.83,1.83,0,0,0,1.41-.4,16.64,16.64,0,0,0,1.69-.31l-0.14-.56a0.84,0.84,0,0,1,.7-0.14,1.56,1.56,0,0,1,.36-1.25,0.31,0.31,0,0,1-.08-0.44,1.2,1.2,0,0,0,.25-0.33,0.86,0.86,0,0,1,.15-0.81,1.29,1.29,0,0,1-.12-0.37c0.07-.25.47-0.31,0.53-0.52a0.52,0.52,0,0,0-.11-0.36,2.31,2.31,0,0,0,0-.84c0.76-.2,1-0.82,1.27-0.56,0.14-.84.28-1.12,1.12-1.12,0.12-.26-0.31-0.48-0.14-0.56a0.77,0.77,0,0,1,.83.41c0.1,0.13.12-.2,0.23-0.23a0.48,0.48,0,0,0,.4-0.2,2.81,2.81,0,0,1,.24-0.68c0.12-.23.21,0.09,0.31,0.54a15.74,15.74,0,0,1,2.49.31,2.7,2.7,0,0,0,1.11-.15c0.3,0.3.58,0.08,0.74,0.71,0.22,0.34.59,0,.67,0.13,0.47,1.29,2.08.42,2.21,0.44s0.46,0.58.62,0.56,0.19-.22.42-0.15a7.5,7.5,0,0,0,.45,1.41,0.22,0.22,0,0,0,.24,0,1.26,1.26,0,0,1,.32-0.38c0.25,0,.35.07,0.63,0.12,0.76,0.26,1.15.32,1.45,0.45a0.48,0.48,0,0,0,.55.33c0.23,0.15.06,0.36,0.2,0.37a0.59,0.59,0,0,1,.65-0.15,1.69,1.69,0,0,1,.7.7,5.11,5.11,0,0,0,0,1.55,2.72,2.72,0,0,0,.41,1,5.64,5.64,0,0,0,.38,1.54,1.69,1.69,0,0,1-.37.71c0.56,0.42,0,1.12-.28,1.54,2.11,0.42,1.12,1.26,2.81.84-0.42,1-.27.9,0.15,1.89-0.84.56,0,.73-0.58,1.44a1,1,0,0,0,.85.61c-0.14,1.12-.56.7-0.42,2.39-1.11,0-.66,1.26-1.4,1.13,0,0.8.42,0.87,0.28,1.69a1,1,0,0,0-.84.56l-0.42-.14c-0.14.7-.42,0.84,0,1.54,0,0-.54,0-0.7,0a3.15,3.15,0,0,0,.28.56,2.51,2.51,0,0,1-1.4.56c-0.16.35,0.42,0.71,0.38,0.89a1.53,1.53,0,0,0-.95.93S991,59,991,59.15a0.76,0.76,0,0,0-.56-0.14,0.94,0.94,0,0,0-.81.55,1.14,1.14,0,0,0-.8.44c-0.12-.34-0.29,0-0.51.14s-0.5.46-.54,0.45a3.86,3.86,0,0,1,.13-0.45l-0.7.14h-0.09a0.81,0.81,0,0,0-.17-0.39c-0.13,0-.51.52-0.64,0.54s-0.17-.16-0.28-0.15a6.14,6.14,0,0,0-.41.55,1.68,1.68,0,0,0-.66-0.27c-1.38.49-1.6-1-1.82-.14-0.29-.16-0.24-0.06-0.53,0a1.29,1.29,0,0,1-.37-0.24,3.14,3.14,0,0,1-.5.23c-0.15-.66-1.05-0.54-1.14-0.82s0.39-.29.54-0.49-0.12-.39.34-0.67,0.26-.56.36-0.87a0.93,0.93,0,0,0,0-.94,7.64,7.64,0,0,0-.56-1.26c-0.28-.08-0.28.46-0.69,0.62-0.84.28-2.33-.71-2.59-0.71s-1.33.26-1.29-.29c-0.16.53-.77,0.13-0.8,0.13-0.56,0-.35.43-0.72,0.42-0.17-.06-1.9-0.16-1.9-0.16v0.28l-1.12-.56-1-.28c-0.84-.28-0.42-1-1.83-0.56V53.39h-0.7c0.28-1.68,0-.84-0.14-2.39l-0.56.14c-0.56-.76.78-0.61-0.42-1.12,0,0,0-.84-0.28-0.56a1,1,0,0,0,.14.42c-1.12-.14-1.4-0.42-1.4-1.54a1.82,1.82,0,0,0,.84,0,6.9,6.9,0,0,1-.27-1.67c0-.18.86-0.65,0.69-1.09a2,2,0,0,1,.42,0h0Z" transform="translate(-951.25 -28.99)"/>
      <path class="d" d="M996.21,49.93a0.07,0.07,0,0,1-.06,0,0.33,0.33,0,0,1,0-.32,0.06,0.06,0,0,1,.07,0,0.07,0.07,0,0,1,.06.05,0.28,0.28,0,0,1,0,.3,0.07,0.07,0,0,1-.06,0h0Z" transform="translate(-951.25 -28.99)"/>
      <path class="d" d="M963.05,39.51h0a0.09,0.09,0,0,1-.08-0.06,0.21,0.21,0,0,1,0-.19,0.24,0.24,0,0,1,.2-0.08,0.13,0.13,0,0,1,.09,0,0.1,0.1,0,0,1,0,.09,0.34,0.34,0,0,0-.16.15,0.09,0.09,0,0,1-.08,0h0Z" transform="translate(-951.25 -28.99)"/>
      <path class="d" d="M963.05,39.08h0A0.09,0.09,0,0,1,963,39a0.23,0.23,0,0,1,0-.2,0.28,0.28,0,0,1,.23-0.08h0a0.13,0.13,0,0,1,.09,0,0.11,0.11,0,0,1,0,.08,0.13,0.13,0,0,1-.07.07,0.24,0.24,0,0,0-.14.12,0.09,0.09,0,0,1-.08.05h0Z" transform="translate(-951.25 -28.99)"/>
      <path class="d" d="M964.21,41.6a0.09,0.09,0,0,1-.08,0,0.31,0.31,0,0,0-.1-0.13,0.13,0.13,0,0,1,0-.1,0.09,0.09,0,0,1,.05-0.06,0.24,0.24,0,0,1,.2.08,0.23,0.23,0,0,1,0,.2,0.09,0.09,0,0,1-.08.07h0Z" transform="translate(-951.25 -28.99)"/>
    </g>
  </g>
</svg>