<svg xmlns="http://www.w3.org/2000/svg" xmlns:xlink="http://www.w3.org/1999/xlink" viewBox="0 0 58.93 34.37">
  <defs>
    <style>
      .a {
        fill: none;
      }

      .b {
        clip-path: url(#a);
      }

      .c {
        fill: #fff;
      }

      .d {
        fill: #386fc2;
      }

      .e {
        fill: #bc0030;
      }

      .f {
        fill: #f3d02f;
      }
    </style>
    <clipPath id="a" transform="translate(-1021.95 -28.99)">
      <rect class="a" x="1021.95" y="28.99" width="58.93" height="34.37"/>
    </clipPath>
  </defs>
  <title>Antigua_and_Barbuda</title>
  <g class="b">
    <rect class="c" width="58.93" height="34.37"/>
    <rect class="d" y="13.45" width="58.93" height="7.47"/>
    <rect width="58.93" height="13.45"/>
    <polygon class="e" points="58.93 0 29.46 34.37 0 0 0 34.37 58.93 34.37 58.93 0"/>
    <polygon class="f" points="35.07 12.34 39.82 9.16 34.22 10.27 37.39 5.52 32.64 8.7 33.75 3.09 30.58 7.84 29.46 2.24 28.35 7.84 25.17 3.09 26.29 8.7 21.54 5.52 24.71 10.27 19.11 9.16 23.86 12.34 18.25 13.45 40.67 13.45 35.07 12.34"/>
  </g>
</svg>