<svg xmlns="http://www.w3.org/2000/svg" xmlns:xlink="http://www.w3.org/1999/xlink" viewBox="0 0 58.93 34.37">
  <defs>
    <style>
      .a {
        fill: none;
      }

      .b {
        clip-path: url(#a);
      }

      .c {
        fill: #1b257d;
      }

      .d {
        fill: #f4c638;
      }
    </style>
    <clipPath id="a" transform="translate(-597.81 -85.01)">
      <rect class="a" x="597.81" y="85.01" width="58.93" height="34.37"/>
    </clipPath>
  </defs>
  <title>Barbados</title>
  <g class="b">
    <rect class="c" width="58.93" height="34.37"/>
    <rect class="d" x="19.64" width="19.64" height="34.37"/>
    <g class="b">
      <path d="M627.27,92.68a12.84,12.84,0,0,1-2.68,4.94,5.84,5.84,0,0,1,1.67-.26v7.32l-2.06.31c-0.08,0-.1-0.12-0.1-0.28a28.15,28.15,0,0,0-1.36-6.16c0-.27-0.83-1.3-0.22-1.12a1.64,1.64,0,0,0,.75.18,7.83,7.83,0,0,0-4.27-2.2c-0.14,0-.22,0-0.09.19A20.7,20.7,0,0,1,622.7,107c0.81,0,2.76-.48,3.56-0.48v5.17h2v-5.17c0.81,0,2.76.48,3.56,0.48a20.7,20.7,0,0,1,3.79-11.42c0.13-.16,0-0.23-0.1-0.19a7.83,7.83,0,0,0-4.27,2.2,1.64,1.64,0,0,0,.75-0.18c0.6-.18-0.18.85-0.22,1.12a28.15,28.15,0,0,0-1.36,6.16c0,0.16,0,.27-0.1.28l-2.06-.31V97.36a5.81,5.81,0,0,1,1.67.26,12.84,12.84,0,0,1-2.68-4.94" transform="translate(-597.81 -85.01)"/>
    </g>
  </g>
</svg>
