<svg xmlns="http://www.w3.org/2000/svg" xmlns:xlink="http://www.w3.org/1999/xlink" viewBox="0 0 58.93 34.37">
  <defs>
    <style>
      .a {
        fill: none;
      }

      .b {
        clip-path: url(#a);
      }

      .c {
        fill: #ba0019;
      }

      .d {
        fill: #3e9a13;
      }

      .e {
        fill: #fff;
      }
    </style>
    <clipPath id="a" transform="translate(-739.19 -85.01)">
      <rect class="a" x="739.19" y="85.01" width="58.92" height="34.37"/>
    </clipPath>
  </defs>
  <title>Belarus</title>
  <g class="b">
    <rect class="c" width="58.93" height="22.91"/>
    <rect class="d" y="22.91" width="58.93" height="11.46"/>
    <rect class="e" width="7.56" height="34.37"/>
    <path class="c" d="M740.11,118.75h0.34v-1h-0.34v1Zm2.7,0h0.34v-1H742.8v1Zm2.7,0h0.34v-1H745.5v1Zm-4-2.54h0.34v-0.79h-0.34v0.79Zm2.7,0h0.34v-0.79h-0.34v0.79Zm-4-2.06h0.34v-1h-0.34v1Zm2.7,0h0.34v-1H742.8v1Zm2.7,0h0.34v-1H745.5v1Zm-4.72,1.27h0.34v-0.79h0.34v-0.79h0.34v0.79h0.34v0.79h0.34v0.79h-0.34V117h-0.34v0.79h-0.34V117h-0.34v-0.79h-0.34v-0.79Zm2.7,0h0.34v-0.79h0.34v-0.79h0.34v0.79h0.34v0.79h0.34v0.79h-0.34V117h-0.34v0.79h-0.34V117h-0.34v-0.79h-0.34v-0.79Zm0.67-3.17V113h-0.34v0.79h-0.34v0.79h-0.34v0.79H742.8v-0.79h-0.34v-0.79h-0.34V113h-0.34v-0.79h-0.34V113h-0.34v0.79h-0.34v0.79h-0.34v0.79h-0.34v0.79h0.34V117h0.34v0.79h0.34v0.79h0.34v0.79h0.34v-0.79h0.34V117.8h0.34V117h0.34v-0.79h0.34V117h0.34v0.79h0.34v0.79h0.34v0.79h0.34v-0.79h0.34V117.8h0.34V117h0.34v-0.79h0.34v-0.79H745.5v-0.79h-0.34v-0.79h-0.34V113h-0.34v-0.79h-0.34Zm0.84-.79h0.17v-0.31h0.17v0.31h0.17v0.32h-0.17v0.32h-0.17v-0.32H745v-0.32Zm0-1.11v0.47h-0.17v0.48h-0.17v0.63h0.17v0.48H745v0.47h0.51v-0.47h0.17v-0.48h0.17v-0.63h-0.17v-0.48h-0.17v-0.47H745Zm-4.54,1.1h0.17v-0.32h0.17v0.32h0.17v0.32h-0.17v0.32h-0.17v-0.32h-0.17v-0.32Zm0-1.11v0.48h-0.17v0.47h-0.17v0.63h0.17v0.47h0.17v0.48h0.51v-0.48h0.17v-0.47h0.17V111.3h-0.17v-0.47h-0.17v-0.48h-0.51Zm1.85,1.11h0.17v-0.32h0.17v0.32h0.17v0.32h-0.17v0.32h-0.17v-0.32H742.3v-0.32Zm0.84,0h0.17v-0.32h0.17v0.32h0.17v0.32h-0.17v0.32h-0.17v-0.32h-0.17v-0.32Zm0-1.11v0.48H742.8v-0.48H742.3v0.48h-0.17v0.47H742v0.63h0.17v0.47h0.17v0.48h0.51v-0.48h0.34v0.48h0.51v-0.48h0.17v-0.47H744V111.3h-0.17v-0.47h-0.17v-0.48h-0.5Zm-3-.32h0.34v-0.95h-0.34V110Zm2.7,0h0.34v-0.95H742.8V110Zm2.7,0h0.34v-0.95H745.5V110Zm-5.39-4h0.34v-0.63h-0.34v0.63Zm5.39,0h0.34v-0.63H745.5v0.63Zm-2.7-2.22h0.34v-0.79H742.8v0.79Zm-2.7-2.14v0.47h0v0.47h0.34V102.2h0v-0.47h-0.34Zm1.85,0v0.47h0v0.47h0.34V102.2h0v-0.47H742Zm1.68,0v0.47h0v0.47H744V102.2h0v-0.47h-0.34Zm1.85,0v0.47h0v0.47h0.34V102.2h0v-0.47H745.5Zm-2.19-.55v0.32h-0.17v0.24H742.8v-0.24h-0.17v-0.32H742.3v0.47h0.17v0.24h0.17v0.31h0v0.31h-0.17v0.24H742.3v0.48h0.34v-0.32h0.17v-0.24h0.34v0.24h0.17v0.32h0.34v-0.48h-0.17v-0.24h-0.17V102.2h0v-0.31h0.17v-0.24h0.17v-0.47h-0.34Zm-0.51.16h0.34v-0.79H742.8v0.79Zm-2.7-2.37h0.34V98.31h-0.34v0.63Zm5.39,0h0.34V98.31H745.5v0.63Zm-5.39-3.64h0.34V94.35h-0.34V95.3Zm2.7,0h0.34V94.35H742.8V95.3Zm2.7,0h0.34V94.35H745.5V95.3Zm-4,6.9v0h0v-0.31h0.34v-0.55h0.34v-0.63h0.51V99.94h0.17V99.58h0.34v0.36h0.17v0.75h0.51v0.63h0.34v0.55h0.34v0.63h-0.34v0.55h-0.34v0.63h-0.51v0.75h-0.17v0.36H742.8v-0.36h-0.17V103.7h-0.51v-0.63h-0.34v-0.55h-0.34V102.2Zm2.7-8.8V94.2h-0.34V95h-0.34v0.79h-0.34v0.79H742.8V95.78h-0.34V95h-0.34V94.2h-0.34V93.4h-0.34V94.2h-0.34V95h-0.34v0.79h-0.34v0.79h-0.34v0.79h0.34v0.79h0.34v0.79h0.34v0.79h0.34V98.95h0.34V98.16h0.34V97.36h-0.34v-1h0.34V97h0.34v1.27h0.17V99.1h-0.51v0.63h-0.34v0.47h-0.34V101h-0.34v-0.79h-0.34V99.74h-0.34V99.26h-0.34v1.43h0.34v0.63h0.34v0.55h0.34v0.31h0v0.31h-0.34v0.55h-0.34v0.63h-0.34v1.42h0.34v-0.48h0.34v-0.48h0.34v-0.79h0.34v0.79h0.34v0.48h0.34v0.63h0.51v0.78h-0.17v1.27h-0.34V108h-0.34v-1h0.34v-0.79h-0.34v-0.79h-0.34v-0.79h-0.34v0.79h-0.34v0.79h-0.34V107h-0.34v0.79h0.34v0.79h0.34v0.79h0.34v0.79h0.34V111h0.34v-0.79h0.34V109.4h0.34v-0.79h0.34v-0.79h0.34v0.79h0.34v0.79h0.34v0.79h0.34V111h0.34v-0.79h0.34V109.4h0.34v-0.79h0.34v-0.79h0.34V107H745.5v-0.79h-0.34v-0.79h-0.34v-0.79h-0.34v0.79h-0.34v0.79h-0.34V107h0.34v1h-0.34v-0.63h-0.34v-1.27h-0.17v-0.79h0.51v-0.63h0.34v-0.48h0.34v-0.79h0.34v0.79h0.34v0.48h0.34v0.48h0.34V103.7H745.5v-0.63h-0.34v-0.55h-0.34V102.2h0v-0.31h0.34v-0.55h0.34v-0.63h0.34V99.26H745.5v0.48h-0.34v0.47h-0.34V101h-0.34v-0.79h-0.34V99.74h-0.34V99.11h-0.51V98.31h0.17V97h0.34V96.41h0.34v1h-0.34v0.79h0.34v0.79h0.34v0.79h0.34V98.95h0.34V98.16h0.34V97.37h0.34V96.57H745.5V95.78h-0.34V95h-0.34V94.2h-0.34V93.4h-0.34Zm-3.71-.79h0.17V92.29h0.17v0.32h0.17v0.32h-0.17v0.32h-0.17V92.93h-0.17V92.61Zm0-.63h-0.17v0.47h-0.17v0.64h0.17v0.47h0.17V94h0.51V93.56h0.17V93.09h0.17V92.45h-0.17V92h-0.17V91.5h-0.51V92Zm1.85,0.63h0.17V92.29h0.17v0.32h0.17v0.32h-0.17v0.32h-0.17V92.93H742.3V92.61Zm0.84,0h0.17V92.29h0.17v0.32h0.17v0.32h-0.17v0.32h-0.17V92.93h-0.17V92.61ZM742.3,92h-0.17v0.47H742v0.64h0.17v0.47h0.17V94h0.51V93.56h0.34V94h0.5V93.56h0.17V93.09H744V92.45h-0.17V92h-0.17V91.5h-0.5V92H742.8V91.5H742.3V92ZM745,92.61h0.17V92.29h0.17v0.32h0.17v0.31h-0.17v0.32h-0.17V92.92H745V92.61Zm0-1.11V92h-0.17v0.48h-0.17v0.63h0.17v0.48H745V94h0.51V93.56h0.17V93.08h0.17V92.45h-0.17V92h-0.17V91.5H745Zm-4.88-.31h0.34v-1h-0.34v1Zm2.7,0h0.34v-1H742.8v1Zm2.7,0h0.34v-1H745.5v1Zm-4-2.22h0.34V88.18h-0.34V89Zm2.7,0h0.34V88.18h-0.34V89Zm-4-2.37h0.34v-1h-0.34v1Zm2.7,0h0.34v-1H742.8v1Zm2.7,0h0.34v-1H745.5v1Zm-4.72,1.58h0.34V87.38h0.34V86.59h0.34v0.79h0.34v0.79h0.34V89h-0.34v0.79h-0.34v0.79h-0.34V89.76h-0.34V89h-0.34V88.18Zm2.7,0h0.34V87.38h0.34V86.59h0.34v0.79h0.34v0.79h0.34V89h-0.34v0.79h-0.34v0.79h-0.34V89.76h-0.34V89h-0.34V88.18ZM744.15,85V85.8h-0.34v0.79h-0.34v0.79h-0.34v0.79H742.8V87.38h-0.34V86.59h-0.34V85.8h-0.34V85h-0.34V85.8h-0.34v0.79h-0.34v0.79h-0.34v0.79h-0.34V89h0.34v0.79h0.34v0.79h0.34v0.79h0.34v0.79h0.34V91.34h0.34V90.55h0.34V89.76h0.34V89h0.34v0.79h0.34v0.79h0.34v0.79h0.34v0.79h0.34V91.34h0.34V90.55h0.34V89.76h0.34V89h0.34V88.18H745.5V87.38h-0.34V86.59h-0.34V85.8h-0.34V85h-0.34Z" transform="translate(-739.19 -85.01)"/>
  </g>
</svg>
