<svg xmlns="http://www.w3.org/2000/svg" xmlns:xlink="http://www.w3.org/1999/xlink" viewBox="0 0 58.92 34.37">
  <defs>
    <style>
      .a {
        fill: none;
      }

      .b {
        clip-path: url(#a);
      }

      .c {
        fill: #fdfdfd;
      }

      .d {
        clip-path: url(#b);
      }

      .e {
        fill: #16007d;
      }

      .f {
        fill: #fff;
      }

      .g {
        fill: #e90020;
      }
    </style>
    <clipPath id="a" transform="translate(-33.88 -140.8)">
      <rect class="a" x="33.88" y="140.8" width="58.92" height="34.37"/>
    </clipPath>
    <clipPath id="b" transform="translate(-33.88 -140.8)">
      <rect class="a" x="33.88" y="140.8" width="58.92" height="34.37"/>
    </clipPath>
  </defs>
  <title>Bikini_Atoll</title>
  <g class="b">
    <polygon class="c" points="0 0 0 17.18 0 34.37 32.65 34.37 58.92 34.37 58.92 0 0 0"/>
    <g class="d">
      <path d="M85,166.95l0.13-.39c0.07-.21.12-0.39,0.12-0.4L85.07,166l-0.33-.24-0.17-.13h0.85l0.12-.39a3.48,3.48,0,0,1,.13-0.38s0.06,0.18.13,0.39l0.12,0.38h0.85l-0.17.13-0.33.24-0.17.13s0,0.18.12,0.4l0.12,0.39L86,166.7l-0.33-.24-0.06,0-0.32.23-0.31.22m3.28,0,0.13-.39a4,4,0,0,0,.12-0.4L88.35,166,88,165.78l-0.17-.13h0.85l0.12-.39a3.46,3.46,0,0,1,.13-0.38s0.06,0.18.13,0.39l0.12,0.38h0.85l-0.17.13-0.33.24-0.17.13s0,0.18.12,0.4,0.12,0.39.12,0.39l-0.34-.24L89,166.46l-0.06,0-0.32.23-0.31.22m-46-.2a0.88,0.88,0,0,1,0-1.69,1.14,1.14,0,0,1,.68.06,0.81,0.81,0,0,1,.33.33,1.17,1.17,0,0,1,0,.91,0.79,0.79,0,0,1-.32.32,1.21,1.21,0,0,1-.68.06m0.38-.39a0.39,0.39,0,0,0,.19-0.41,0.65,0.65,0,0,0-.09-0.42,0.32,0.32,0,0,0-.38-0.08,0.26,0.26,0,0,0-.15.17,1.14,1.14,0,0,0,0,.57,0.27,0.27,0,0,0,.15.17,0.34,0.34,0,0,0,.27,0m7,0.4a0.56,0.56,0,0,1-.4-0.27,1.08,1.08,0,0,1-.08-0.29,0.32,0.32,0,0,1,.21-0.05l0.24,0s0,0,0,.08a0.3,0.3,0,0,0,0,.13,0.14,0.14,0,0,0,.23,0,1.51,1.51,0,0,0,0-.65v-0.6h0.53v0.61a2.33,2.33,0,0,1,0,.72,0.55,0.55,0,0,1-.43.36,1.42,1.42,0,0,1-.39,0m3.25,0a0.56,0.56,0,0,1-.4-0.27,1.14,1.14,0,0,1-.08-0.29,0.32,0.32,0,0,1,.21-0.05l0.25,0s0,0,0,.08a0.3,0.3,0,0,0,0,.13,0.14,0.14,0,0,0,.23,0,1.47,1.47,0,0,0,0-.65v-0.6h0.53v0.61a2.28,2.28,0,0,1,0,.72,0.55,0.55,0,0,1-.43.36,1.43,1.43,0,0,1-.39,0m5.85,0a0.56,0.56,0,0,1-.4-0.27,1.16,1.16,0,0,1-.08-0.29,0.32,0.32,0,0,1,.21-0.05l0.25,0s0,0,0,.08a0.3,0.3,0,0,0,0,.13,0.14,0.14,0,0,0,.23,0,1.5,1.5,0,0,0,0-.65v-0.6h0.53v0.61a2.35,2.35,0,0,1,0,.72,0.55,0.55,0,0,1-.43.36,1.43,1.43,0,0,1-.39,0m5,0a0.88,0.88,0,0,1,0-1.69,1.14,1.14,0,0,1,.68.06,0.81,0.81,0,0,1,.33.33,1.16,1.16,0,0,1,0,.91,0.78,0.78,0,0,1-.32.32,1.22,1.22,0,0,1-.68.06m0.38-.39a0.39,0.39,0,0,0,.2-0.41,0.65,0.65,0,0,0-.09-0.42,0.32,0.32,0,0,0-.38-0.08,0.26,0.26,0,0,0-.16.17,1.14,1.14,0,0,0,0,.57,0.27,0.27,0,0,0,.16.17,0.33,0.33,0,0,0,.27,0M78,166.76a0.57,0.57,0,0,1-.4-0.27,1.12,1.12,0,0,1-.08-0.29,0.32,0.32,0,0,1,.21-0.05l0.24,0s0,0,0,.08a0.3,0.3,0,0,0,0,.13,0.14,0.14,0,0,0,.23,0,1.45,1.45,0,0,0,0-.65v-0.6h0.53v0.61a2.36,2.36,0,0,1,0,.72,0.55,0.55,0,0,1-.43.36,1.43,1.43,0,0,1-.39,0m-43-.85v-0.84h0.69l0.13,0.5a4.15,4.15,0,0,0,.14.48l0.13-.5,0.12-.48H37v1.67H36.54v-1.25l-0.16.62-0.16.63H35.83l-0.16-.62-0.16-.62v1.25H35.07v-0.84Zm2.23,0v-0.84h1.37v0.35H37.83v0.27h0.78V166H37.83v0.33h0.88v0.38H37.3v-0.84Zm1.69,0v-0.84h0.49l0.3,0.45,0.3,0.45v-0.89h0.49v1.67H40.09l-0.3-.44-0.3-.44v0.89H39v-0.84Zm5.08,0.21v-0.63H43.55v-0.41h1.58v0.41H44.6v1.26H44.08v-0.63Zm1.28-.21v-0.84h1.37v0.35H45.88v0.27h0.78V166H45.88v0.33h0.88v0.38h-1.4v-0.84Zm1.67,0v-0.84h0.69l0.13,0.5a4.52,4.52,0,0,0,.13.48l0.13-.5,0.12-.48h0.69v1.67H48.49v-1.25l-0.16.62-0.16.63H47.78l-0.16-.62-0.16-.62v1.25H47v-0.84Zm3.79,0v-0.84h1.37v0.35H51.34v0.27h0.78V166H51.34v0.33h0.88v0.38h-1.4v-0.84Zm4,0v-0.84h0.57a0.94,0.94,0,0,1,.82.14,0.47,0.47,0,0,1,0,.62A0.65,0.65,0,0,1,56,166s0,0,0,0a0.75,0.75,0,0,1,.27.33l0.15,0.27,0.06,0.12H55.92l-0.17-.31c-0.18-.33-0.22-0.38-0.33-0.38H55.38v0.69H54.85V165.9Zm0.84-.18a0.15,0.15,0,0,0,.12-0.24,0.3,0.3,0,0,0-.29-0.08H55.38v0.33h0.12l0.2,0m1,0.19v-0.84H58v0.35H57.19v0.27H58V166H57.19v0.33h0.88v0.38h-1.4v-0.84Zm4,0v-0.84h0.53v1.67H60.71v-0.84Zm0.89,0v-0.84h0.53v1.26h0.8v0.41H61.61v-0.84Zm4.29,0v-0.84h0.53l0.61,0a0.41,0.41,0,0,1,.32.51,0.42,0.42,0,0,1-.19.22c-0.06,0-.06,0,0,0.05a0.44,0.44,0,0,1,.24.18,0.31,0.31,0,0,1,0,.21,0.33,0.33,0,0,1,0,.22,0.54,0.54,0,0,1-.12.14,1.46,1.46,0,0,1-.89.12H65.89v-0.84Zm0.91,0.45a0.15,0.15,0,0,0,.06-0.25l0-.05h-0.4v0.34h0.17a0.74,0.74,0,0,0,.22,0m0-.68a0.15,0.15,0,0,0,0-.11,0.15,0.15,0,0,0,0-.11s0,0-.21-0.05H66.42v0.33h0.17c0.16,0,.17,0,0.21-0.05m0.92,0.24v-0.84h1.37v0.35H68.24v0.27H69V166H68.24v0.33h0.88v0.38h-1.4v-0.84Zm1.7,0v-0.84h0.53v1.67H69.42v-0.84Zm0.89,0v-0.84H70.8l0.3,0.45L71.4,166v-0.89H71.9v1.67H71.41l-0.3-.44-0.3-.44v0.89H70.31v-0.84Zm2.62,0.7,0.31-.83,0.26-.69h0.58l0.27,0.72,0.31,0.83,0,0.12H74.15l0-.13,0-.13H73.48l0,0.13,0,0.13H72.87Zm1-.68-0.09-.3,0-.11,0,0.12-0.09.3-0.05.18H74Zm1,0v-0.84h0.49l0.3,0.45,0.3,0.45v-0.89h0.49v1.67H76l-0.3-.44-0.3-.44v0.89H74.85v-0.84Zm2,0v-0.84h0.53v1.67H76.81v-0.84Zm4.9-20.11,0.13-.39c0.07-.21.12-0.39,0.12-0.4l-0.17-.13-0.33-.24-0.17-.13h0.85l0.12-.39a3.5,3.5,0,0,1,.13-0.38s0.06,0.18.13,0.39l0.12,0.38H83.5l-0.17.13-0.33.24-0.17.13s0,0.19.12,0.4,0.12,0.39.12,0.39l-0.34-.24-0.33-.24-0.06,0-0.32.23-0.31.21m3.28,0,0.13-.39c0.07-.21.12-0.39,0.12-0.4l-0.17-.13-0.33-.24-0.17-.13h0.85l0.12-.39a3.5,3.5,0,0,1,.13-0.38s0.06,0.18.13,0.39l0.12,0.38h0.85l-0.17.13-0.33.24-0.17.13a4.07,4.07,0,0,0,.12.4c0.07,0.21.12,0.39,0.12,0.39L86,145.55l-0.33-.24-0.06,0-0.32.23-0.31.21m3.28,0,0.13-.39a3.76,3.76,0,0,0,.12-0.4l-0.17-.13L88,144.63l-0.17-.13h0.85l0.12-.39a3.48,3.48,0,0,1,.13-0.38s0.06,0.18.13,0.39l0.12,0.38h0.85l-0.17.13-0.33.24-0.17.13s0,0.19.12,0.4l0.12,0.39-0.34-.24L89,145.31l-0.06,0-0.32.23-0.31.21" transform="translate(-33.88 -140.8)"/>
      <polygon class="e" points="0 9.26 0 0 13.88 0 27.76 0 27.76 9.26 27.76 18.51 13.88 18.51 0 18.51 0 9.26"/>
      <path class="f" d="M35.8,157.71l0.32-.23,0.05,0,0.33,0.24,0.34,0.24s-0.05-.18-0.12-0.39-0.12-.39-0.12-0.4l0.17-.13,0.33-.24,0.17-.13H36.42l-0.12-.38c-0.07-.21-0.13-0.38-0.13-0.39a3.67,3.67,0,0,0-.13.38l-0.12.39H35.06l0.17,0.13L35.57,157l0.17,0.13a3.88,3.88,0,0,1-.12.4l-0.13.39a1.54,1.54,0,0,0,.31-0.21" transform="translate(-33.88 -140.8)"/>
      <path class="f" d="M41.59,157.71l0.32-.23,0.05,0,0.33,0.24,0.34,0.24s-0.05-.18-0.12-0.39-0.12-.39-0.12-0.4l0.17-.13,0.33-.24,0.17-.13H42.22l-0.12-.38C42,156,42,155.86,42,155.85a3.61,3.61,0,0,0-.13.38l-0.12.39H40.86L41,156.76,41.36,157l0.17,0.13a4,4,0,0,1-.12.4l-0.13.39a1.53,1.53,0,0,0,.31-0.21" transform="translate(-33.88 -140.8)"/>
      <path class="f" d="M47.39,157.71l0.32-.23,0.05,0,0.33,0.24,0.34,0.24s-0.05-.18-0.12-0.39-0.12-.39-0.12-0.4l0.17-.13,0.33-.24,0.17-.13H48l-0.12-.38c-0.07-.21-0.13-0.38-0.13-0.39a3.6,3.6,0,0,0-.13.38l-0.12.39H46.65l0.17,0.13L47.16,157l0.17,0.13s0,0.19-.12.4l-0.13.39a1.45,1.45,0,0,0,.31-0.21" transform="translate(-33.88 -140.8)"/>
      <path class="f" d="M53.18,157.71l0.32-.23,0.06,0,0.33,0.24,0.34,0.24s-0.05-.18-0.12-0.39-0.12-.39-0.12-0.4l0.17-.13,0.33-.24,0.17-.13H53.81l-0.12-.38c-0.07-.21-0.13-0.38-0.13-0.39a3.56,3.56,0,0,0-.13.38l-0.12.39H52.45l0.17,0.13L53,157l0.17,0.13s0,0.19-.12.4l-0.13.39a1.45,1.45,0,0,0,.31-0.21" transform="translate(-33.88 -140.8)"/>
      <path class="f" d="M59,157.71l0.32-.23,0.06,0,0.33,0.24L60,157.92s-0.05-.18-0.12-0.39-0.12-.39-0.12-0.4L60,157l0.33-.24,0.17-.13H59.6l-0.12-.38-0.13-.39a3.63,3.63,0,0,0-.13.38l-0.12.39H58.24l0.17,0.13L58.75,157l0.17,0.13s0,0.19-.12.4l-0.13.39a1.5,1.5,0,0,0,.31-0.21" transform="translate(-33.88 -140.8)"/>
      <path class="f" d="M35.8,154.23l0.32-.23,0.05,0,0.33,0.24,0.34,0.24s-0.05-.18-0.12-0.39-0.12-.39-0.12-0.4l0.17-.13,0.33-.24,0.17-.13H36.42l-0.12-.38c-0.07-.21-0.13-0.38-0.13-0.39a3.57,3.57,0,0,0-.13.38l-0.12.39H35.06l0.17,0.13,0.33,0.24,0.17,0.13a3.8,3.8,0,0,1-.12.4l-0.13.39,0.31-.21" transform="translate(-33.88 -140.8)"/>
      <path class="f" d="M41.59,154.23l0.32-.23L42,154l0.33,0.24,0.34,0.24s-0.05-.18-0.12-0.39-0.12-.39-0.12-0.4l0.17-.13,0.33-.24,0.17-.13H42.22l-0.12-.38C42,152.55,42,152.38,42,152.38a3.51,3.51,0,0,0-.13.38l-0.12.39H40.86L41,153.28l0.33,0.24,0.17,0.13a3.94,3.94,0,0,1-.12.4l-0.13.39,0.31-.21" transform="translate(-33.88 -140.8)"/>
      <path class="f" d="M53.18,154.23L53.5,154l0.06,0,0.33,0.24,0.34,0.24s-0.05-.18-0.12-0.39-0.12-.39-0.12-0.4l0.17-.13,0.33-.24,0.17-.13H53.81l-0.12-.38c-0.07-.21-0.13-0.38-0.13-0.39a3.46,3.46,0,0,0-.13.38l-0.12.39H52.45l0.17,0.13L53,153.53l0.17,0.13s0,0.19-.12.4l-0.13.39a1.53,1.53,0,0,0,.31-0.21" transform="translate(-33.88 -140.8)"/>
      <path class="f" d="M59,154.23l0.32-.23,0.06,0,0.33,0.24L60,154.45s-0.05-.18-0.12-0.39-0.12-.39-0.12-0.4l0.17-.13,0.33-.24,0.17-.13H59.6l-0.12-.38c-0.07-.21-0.13-0.38-0.13-0.39a3.53,3.53,0,0,0-.13.38l-0.12.39H58.24l0.17,0.13,0.33,0.24,0.17,0.13a4.08,4.08,0,0,1-.12.4l-0.13.39,0.31-.21" transform="translate(-33.88 -140.8)"/>
      <path class="f" d="M35.8,150.76l0.32-.23,0.05,0,0.33,0.24L36.84,151s-0.05-.18-0.12-0.39-0.12-.39-0.12-0.4l0.17-.13,0.33-.24,0.17-.13H36.42l-0.12-.38c-0.07-.21-0.13-0.38-0.13-0.39a3.39,3.39,0,0,0-.13.38l-0.12.39H35.06l0.17,0.13,0.33,0.24,0.17,0.13a3.6,3.6,0,0,1-.12.4l-0.13.39,0.31-.21" transform="translate(-33.88 -140.8)"/>
      <path class="f" d="M41.59,150.76l0.32-.23,0.05,0,0.33,0.24L42.64,151s-0.05-.18-0.12-0.39-0.12-.39-0.12-0.4l0.17-.13,0.33-.24,0.17-.13H42.22l-0.12-.38C42,149.08,42,148.9,42,148.9a3.34,3.34,0,0,0-.13.38l-0.12.39H40.86L41,149.81l0.33,0.24,0.17,0.13a3.72,3.72,0,0,1-.12.4l-0.13.39,0.31-.21" transform="translate(-33.88 -140.8)"/>
      <path class="f" d="M47.39,150.76l0.32-.23,0.05,0,0.33,0.24L48.43,151s-0.05-.18-0.12-0.39-0.12-.39-0.12-0.4l0.17-.13,0.33-.24,0.17-.13H48l-0.12-.38c-0.07-.21-0.13-0.38-0.13-0.39a3.33,3.33,0,0,0-.13.38l-0.12.39H46.65l0.17,0.13,0.33,0.24,0.17,0.13a4.15,4.15,0,0,1-.12.4l-0.13.39a1.52,1.52,0,0,0,.31-0.21" transform="translate(-33.88 -140.8)"/>
      <path class="f" d="M53.18,150.76l0.32-.23,0.06,0,0.33,0.24L54.23,151s-0.05-.18-0.12-0.39-0.12-.39-0.12-0.4l0.17-.13,0.33-.24,0.17-.13H53.81l-0.12-.38c-0.07-.21-0.13-0.38-0.13-0.39a3.29,3.29,0,0,0-.13.38l-0.12.39H52.45l0.17,0.13L53,150.05l0.17,0.13a4.16,4.16,0,0,1-.12.4l-0.13.39a1.52,1.52,0,0,0,.31-0.21" transform="translate(-33.88 -140.8)"/>
      <path class="f" d="M59,150.76l0.32-.23,0.06,0,0.33,0.24L60,151s-0.05-.18-0.12-0.39-0.12-.39-0.12-0.4l0.17-.13,0.33-.24,0.17-.13H59.6l-0.12-.38c-0.07-.21-0.13-0.38-0.13-0.39a3.36,3.36,0,0,0-.13.38l-0.12.39H58.24l0.17,0.13,0.33,0.24,0.17,0.13a3.85,3.85,0,0,1-.12.4l-0.13.39,0.31-.21" transform="translate(-33.88 -140.8)"/>
      <path class="f" d="M35.8,147.28l0.32-.23,0.05,0,0.33,0.24,0.34,0.24s-0.05-.18-0.12-0.39-0.12-.39-0.12-0.4l0.17-.13,0.33-.24,0.17-.13H36.42l-0.12-.38c-0.07-.21-0.13-0.38-0.13-0.39a3.42,3.42,0,0,0-.13.38l-0.12.39H35.06l0.17,0.13,0.33,0.24,0.17,0.13a3.89,3.89,0,0,1-.12.4l-0.13.39,0.31-.21" transform="translate(-33.88 -140.8)"/>
      <path class="f" d="M41.59,147.28l0.32-.23L42,147l0.33,0.24,0.34,0.24s-0.05-.18-0.12-0.39-0.12-.39-0.12-0.4l0.17-.13,0.33-.24,0.17-.13H42.22l-0.12-.38C42,145.6,42,145.43,42,145.42a3.37,3.37,0,0,0-.13.38l-0.12.39H40.86L41,146.33l0.33,0.24,0.17,0.13a4,4,0,0,1-.12.4l-0.13.39,0.31-.21" transform="translate(-33.88 -140.8)"/>
      <path class="f" d="M53.18,147.28l0.32-.23,0.06,0,0.33,0.24,0.34,0.24s-0.05-.18-0.12-0.39S54,146.71,54,146.7l0.17-.13,0.33-.24,0.17-.13H53.81l-0.12-.38c-0.07-.21-0.13-0.38-0.13-0.39a3.32,3.32,0,0,0-.13.38l-0.12.39H52.45l0.17,0.13L53,146.57l0.17,0.13s0,0.18-.12.4l-0.13.39a1.52,1.52,0,0,0,.31-0.21" transform="translate(-33.88 -140.8)"/>
      <path class="f" d="M59,147.28l0.32-.23,0.06,0,0.33,0.24L60,147.49s-0.05-.18-0.12-0.39-0.12-.39-0.12-0.4l0.17-.13,0.33-.24,0.17-.13H59.6l-0.12-.38c-0.07-.21-0.13-0.38-0.13-0.39a3.39,3.39,0,0,0-.13.38l-0.12.39H58.24l0.17,0.13,0.33,0.24,0.17,0.13s0,0.18-.12.4l-0.13.39,0.31-.21" transform="translate(-33.88 -140.8)"/>
      <path class="f" d="M35.8,143.81l0.32-.23,0.05,0,0.33,0.24L36.84,144s-0.05-.18-0.12-0.39-0.12-.39-0.12-0.4l0.17-.13,0.33-.24,0.17-.13H36.42l-0.12-.38c-0.07-.21-0.13-0.38-0.13-0.39a3.79,3.79,0,0,0-.13.38l-0.12.39H35.06l0.17,0.13,0.33,0.24,0.17,0.13a3.78,3.78,0,0,1-.12.4l-0.13.39,0.31-.21" transform="translate(-33.88 -140.8)"/>
      <path class="f" d="M41.59,143.81l0.32-.23,0.05,0,0.33,0.24L42.64,144s-0.05-.18-0.12-0.39-0.12-.39-0.12-0.4l0.17-.13,0.33-.24,0.17-.13H42.22l-0.12-.38C42,142.12,42,141.95,42,141.94a3.72,3.72,0,0,0-.13.38l-0.12.39H40.86L41,142.85l0.33,0.24,0.17,0.13a3.92,3.92,0,0,1-.12.4l-0.13.39,0.31-.21" transform="translate(-33.88 -140.8)"/>
      <path class="f" d="M47.39,143.81l0.32-.23,0.05,0,0.33,0.24L48.43,144s-0.05-.18-0.12-0.39-0.12-.39-0.12-0.4l0.17-.13,0.33-.24,0.17-.13H48l-0.12-.38c-0.07-.21-0.13-0.38-0.13-0.39a3.72,3.72,0,0,0-.13.38l-0.12.39H46.65l0.17,0.13,0.33,0.24,0.17,0.13s0,0.19-.12.4l-0.13.39a1.53,1.53,0,0,0,.31-0.21" transform="translate(-33.88 -140.8)"/>
      <path class="f" d="M53.18,143.81l0.32-.23,0.06,0,0.33,0.24L54.23,144s-0.05-.18-0.12-0.39-0.12-.39-0.12-0.4l0.17-.13,0.33-.24,0.17-.13H53.81l-0.12-.38c-0.07-.21-0.13-0.38-0.13-0.39a3.67,3.67,0,0,0-.13.38l-0.12.39H52.45l0.17,0.13L53,143.1l0.17,0.13s0,0.19-.12.4l-0.13.39a1.53,1.53,0,0,0,.31-0.21" transform="translate(-33.88 -140.8)"/>
      <path class="f" d="M59,143.81l0.32-.23,0.06,0,0.33,0.24L60,144s-0.05-.18-0.12-0.39-0.12-.39-0.12-0.4L60,143.1l0.33-.24,0.17-.13H59.6l-0.12-.38-0.13-.39a3.75,3.75,0,0,0-.13.38l-0.12.39H58.24l0.17,0.13,0.33,0.24,0.17,0.13a4.06,4.06,0,0,1-.12.4l-0.13.39,0.31-.21" transform="translate(-33.88 -140.8)"/>
      <rect class="g" y="31.73" width="58.92" height="2.64"/>
      <rect class="g" y="26.44" width="58.92" height="2.64"/>
      <rect class="g" y="21.15" width="58.92" height="2.64"/>
      <rect class="g" x="27.76" y="15.86" width="31.17" height="2.64"/>
      <rect class="g" x="27.76" y="10.58" width="31.17" height="2.64"/>
      <rect class="g" x="27.76" y="5.29" width="31.17" height="2.64"/>
      <rect class="g" x="27.76" width="31.17" height="2.64"/>
    </g>
  </g>
</svg>
