<svg xmlns="http://www.w3.org/2000/svg" xmlns:xlink="http://www.w3.org/1999/xlink" viewBox="0 0 58.92 34.37">
  <defs>
    <style>
      .a {
        fill: none;
      }

      .b {
        clip-path: url(#a);
      }

      .c {
        fill: #250392;
      }

      .d {
        fill: #f5cc28;
      }

      .e {
        fill: #fff;
      }
    </style>
    <clipPath id="a" transform="translate(-245.95 -140.8)">
      <rect class="a" x="245.95" y="140.8" width="58.92" height="34.37"/>
    </clipPath>
  </defs>
  <title>Bosnia_and_Herzegovina</title>
  <g class="b">
    <rect class="c" width="58.92" height="34.37"/>
    <polygon class="d" points="13.31 0 47.68 34.37 47.68 0 13.31 0"/>
    <polygon class="e" points="8.31 0 7.12 0 5.93 0 5.2 2.25 7.12 0.86 9.04 2.25 8.31 0"/>
    <polygon class="e" points="40.76 32.98 38.39 32.98 40.3 34.37 41.49 34.37 42.69 34.37 44.6 32.98 42.22 32.98 41.49 30.72 40.76 32.98"/>
    <polygon class="e" points="11.41 5.16 13.34 6.55 12.6 4.29 14.52 2.9 12.15 2.9 11.41 0.64 10.68 2.9 8.31 2.9 10.23 4.29 9.5 6.55 11.41 5.16"/>
    <polygon class="e" points="15.71 9.45 17.63 10.85 16.9 8.59 18.82 7.2 16.45 7.2 15.71 4.94 14.98 7.2 12.61 7.2 14.53 8.59 13.79 10.85 15.71 9.45"/>
    <polygon class="e" points="20.01 13.75 21.93 15.14 21.2 12.89 23.12 11.49 20.74 11.49 20.01 9.24 19.28 11.49 16.9 11.49 18.82 12.89 18.09 15.14 20.01 13.75"/>
    <polygon class="e" points="24.31 18.05 26.23 19.44 25.49 17.18 27.41 15.79 25.04 15.79 24.31 13.53 23.57 15.79 21.2 15.79 23.12 17.18 22.39 19.44 24.31 18.05"/>
    <polygon class="e" points="28.6 22.34 30.52 23.74 29.79 21.48 31.71 20.09 29.34 20.09 28.6 17.83 27.87 20.09 25.5 20.09 27.42 21.48 26.68 23.74 28.6 22.34"/>
    <polygon class="e" points="32.9 26.64 34.82 28.03 34.09 25.78 36.01 24.38 33.63 24.38 32.9 22.13 32.17 24.38 29.79 24.38 31.71 25.78 30.98 28.03 32.9 26.64"/>
    <polygon class="e" points="37.2 30.94 39.11 32.33 38.38 30.07 40.3 28.68 37.93 28.68 37.2 26.42 36.46 28.68 34.09 28.68 36.01 30.07 35.28 32.33 37.2 30.94"/>
  </g>
</svg>
