<svg xmlns="http://www.w3.org/2000/svg" xmlns:xlink="http://www.w3.org/1999/xlink" viewBox="0 0 58.92 34.14">
  <defs>
    <style>
      .a {
        fill: none;
      }

      .b {
        clip-path: url(#a);
      }

      .c, .m {
        fill: #fff;
      }

      .d, .n {
        fill: #1c2a7d;
      }

      .d, .e, .g, .h, .i, .k, .m, .o, .p, .q {
        fill-rule: evenodd;
      }

      .e {
        fill: #bc0030;
      }

      .f {
        fill: #bc002f;
      }

      .g {
        fill: #954215;
      }

      .h {
        fill: #2d6f0d;
      }

      .i {
        fill: #9b9b9b;
      }

      .j, .p {
        fill: #ba0019;
      }

      .k, .l {
        fill: #efd930;
      }

      .o {
        fill: #4d822c;
      }
    </style>
    <clipPath id="a" transform="translate(-528.71 -140.8)">
      <rect class="a" x="528.71" y="140.8" width="58.92" height="34.37"/>
    </clipPath>
  </defs>
  <title>British_Indian_Ocean_Territory</title>
  <g class="b">
    <rect class="c" width="58.92" height="29.46"/>
    <g class="b">
      <path class="d" d="M587.63,166.42c-0.66.4-1.23,1.33-3,1.33-3.51,0-4.38-2-7-2-1.75,0-2.63,2-4.38,2-3.51,0-4.38-2-7-2-1.75,0-2.63,2-4.38,2-3.51,0-4.38-2-7-2-1.75,0-2.63,2-4.38,2-3.51,0-4.38-2-7-2-1.75,0-2.63,2-4.38,2-3.51,0-4.38-2-7-2-1.75,0-2.28,1.39-3.33,1.39v2.52c1.05,0,1.58-1.39,3.33-1.39,2.63,0,3.51,2,7,2,1.76,0,2.63-2,4.38-2,2.63,0,3.51,2,7,2,1.75,0,2.63-2,4.38-2,2.63,0,3.51,2,7,2,1.75,0,2.63-2,4.38-2,2.63,0,3.51,2,7,2,1.75,0,2.63-2,4.38-2,2.63,0,3.51,2,7,2a4.52,4.52,0,0,0,3-1v-2.89Z" transform="translate(-528.71 -140.8)"/>
      <path class="d" d="M587.63,171.09c-0.66.4-1.23,1.33-3,1.33-3.51,0-4.38-2-7-2-1.75,0-2.63,2-4.38,2-3.51,0-4.38-2-7-2-1.75,0-2.63,2-4.38,2-3.51,0-4.38-2-7-2-1.75,0-2.63,2-4.38,2-3.51,0-4.38-2-7-2-1.75,0-2.63,2-4.38,2-3.51,0-4.38-2-7-2-1.75,0-2.28,1.39-3.33,1.39v2.51c1.05,0,1.58-1.39,3.33-1.39,2.63,0,3.51,2,7,2,1.76,0,2.63-2,4.38-2,2.63,0,3.51,2,7,2,1.75,0,2.63-2,4.38-2,2.63,0,3.51,2,7,2,1.75,0,2.63-2,4.38-2,2.63,0,3.51,2,7,2,1.75,0,2.63-2,4.38-2,2.63,0,3.51,2,7,2a4.52,4.52,0,0,0,3-1v-2.89Z" transform="translate(-528.71 -140.8)"/>
      <path class="d" d="M587.63,161.53c-0.66.4-1.23,1.33-3,1.33-3.51,0-4.38-2-7-2-1.75,0-2.63,2-4.38,2-3.51,0-4.38-2-7-2-1.75,0-2.63,2-4.38,2-3.51,0-4.38-2-7-2-1.75,0-2.63,2-4.38,2-3.51,0-4.38-2-7-2-1.75,0-2.63,2-4.38,2-3.51,0-4.38-2-7-2-1.75,0-2.28,1.39-3.33,1.39v2.52c1.05,0,1.58-1.39,3.33-1.39,2.63,0,3.51,2,7,2,1.76,0,2.63-2,4.38-2,2.63,0,3.51,2,7,2,1.75,0,2.63-2,4.38-2,2.63,0,3.51,2,7,2,1.75,0,2.63-2,4.38-2,2.63,0,3.51,2,7,2,1.75,0,2.63-2,4.38-2,2.63,0,3.51,2,7,2a4.52,4.52,0,0,0,3-1v-2.89Z" transform="translate(-528.71 -140.8)"/>
      <path class="d" d="M587.63,156.65c-0.66.4-1.23,1.33-3,1.33-3.51,0-4.38-2-7-2-1.75,0-2.63,2-4.38,2-3.51,0-4.38-2-7-2-1.75,0-2.63,2-4.38,2-3.51,0-4.38-2-7-2-1.75,0-2.63,2-4.38,2-3.51,0-4.38-2-7-2-1.75,0-2.63,2-4.38,2-3.51,0-4.38-2-7-2-1.75,0-2.28,1.39-3.33,1.39v2.52c1.05,0,1.58-1.39,3.33-1.39,2.63,0,3.51,2,7,2,1.76,0,2.63-2,4.38-2,2.63,0,3.51,2,7,2,1.75,0,2.63-2,4.38-2,2.63,0,3.51,2,7,2,1.75,0,2.63-2,4.38-2,2.63,0,3.51,2,7,2,1.75,0,2.63-2,4.38-2,2.63,0,3.51,2,7,2a4.51,4.51,0,0,0,3-1v-2.89Z" transform="translate(-528.71 -140.8)"/>
      <path class="d" d="M587.63,151.76c-0.66.4-1.23,1.32-3,1.32-3.51,0-4.38-2-7-2-1.75,0-2.63,2-4.38,2-3.51,0-4.38-2-7-2-1.75,0-2.63,2-4.38,2-3.51,0-4.38-2-7-2-1.75,0-2.63,2-4.38,2-3.51,0-4.38-2-7-2-1.75,0-2.63,2-4.38,2-3.51,0-4.38-2-7-2-1.75,0-2.28,1.39-3.33,1.39V155c1.05,0,1.58-1.39,3.33-1.39h22.8c2.63,0,3.51,2,7,2,1.75,0,2.63-2,4.38-2,2.63,0,3.51,2,7,2,1.75,0,2.63-2,4.38-2,2.63,0,3.51,2,7,2a4.52,4.52,0,0,0,3-1v-2.89Z" transform="translate(-528.71 -140.8)"/>
      <path class="d" d="M587.63,146.87c-0.66.4-1.23,1.33-3,1.33-3.51,0-4.38-2-7-2-1.75,0-2.63,2-4.38,2-3.51,0-4.38-2-7-2-1.75,0-2.63,2-4.38,2-3.51,0-4.38-2-7-2-1.75,0-2.63,2-4.38,2-3.51,0-4.38-2-7-2-1.75,0-2.63,2-4.38,2-3.51,0-4.38-2-7-2-1.75,0-2.28,1.39-3.33,1.39v2.52c1.05,0,1.58-1.39,3.33-1.39,2.63,0,3.51,2,7,2,1.76,0,2.63-2,4.38-2,2.63,0,3.51,2,7,2,1.75,0,2.63-2,4.38-2,2.63,0,3.51,2,7,2,1.75,0,2.63-2,4.38-2,2.63,0,3.51,2,7,2,1.75,0,2.63-2,4.38-2,2.63,0,3.51,2,7,2a4.53,4.53,0,0,0,3-1v-2.89Z" transform="translate(-528.71 -140.8)"/>
      <path class="d" d="M587.63,142c-0.66.4-1.23,1.32-3,1.32-3.51,0-4.38-2-7-2-1.75,0-2.63,2-4.38,2-3.51,0-4.38-2-7-2-1.75,0-2.63,2-4.38,2-3.51,0-4.38-2-7-2-1.75,0-2.63,2-4.38,2-3.51,0-4.38-2-7-2-1.75,0-2.63,2-4.38,2-3.51,0-4.38-2-7-2-1.75,0-2.28,1.39-3.33,1.39v2.52c1.05,0,1.58-1.39,3.33-1.39,2.63,0,3.51,2,7,2,1.76,0,2.63-2,4.38-2,2.63,0,3.51,2,7,2,1.75,0,2.63-2,4.38-2,2.63,0,3.51,2,7,2,1.75,0,2.63-2,4.38-2,2.63,0,3.51,2,7,2,1.75,0,2.63-2,4.38-2,2.63,0,3.51,2,7,2a4.52,4.52,0,0,0,3-1V142Z" transform="translate(-528.71 -140.8)"/>
      <rect class="c" width="29.43" height="14.73"/>
      <polygon class="d" points="0.03 13.04 0 1.69 11.44 7.34 0.03 13.04"/>
      <polygon class="d" points="29.43 13.04 29.46 1.69 18.02 7.34 29.43 13.04"/>
      <polygon class="d" points="26.17 14.71 3.29 14.73 14.69 8.98 26.17 14.71"/>
      <polygon class="d" points="26.17 0.01 3.29 0 14.69 5.74 26.17 0.01"/>
      <polygon class="e" points="17.45 4.91 19.64 4.91 29.46 0 27.27 0 17.45 4.91"/>
      <polygon class="e" points="0 0 0 1.1 7.63 4.91 9.82 4.91 0 0"/>
      <polygon class="e" points="29.44 13.62 21.84 9.82 19.64 9.82 29.43 14.71 29.44 13.62"/>
      <polygon class="e" points="0 14.73 2.19 14.73 12.02 9.82 9.82 9.82 0 14.73"/>
      <rect class="c" y="4.91" width="29.46" height="4.91"/>
      <rect class="c" x="12.28" width="4.91" height="14.73"/>
      <rect class="f" y="5.89" width="29.46" height="2.95"/>
      <rect class="f" x="13.26" width="2.95" height="14.73"/>
      <path class="g" d="M572.55,148.61l-0.21,20c0,1.05,1,1.05,1.05,0l-0.21-20h-0.63Z" transform="translate(-528.71 -140.8)"/>
      <path class="c" d="M572.83,169.49a0.74,0.74,0,0,1-.59-0.89l0.21-20.09h0.82v0.1l0.21,20a0.81,0.81,0,0,1-.66.89h0Zm-0.18-20.78-0.21,19.9c0,1,.77.94,0.86,0l-0.21-19.88h-0.44Z" transform="translate(-528.71 -140.8)"/>
      <polygon class="h" points="46.02 15.24 45.35 14.51 45.19 15.25 44.9 14.18 44.63 14.72 44.59 13.59 44.32 14.12 44.27 12.99 44 13.53 43.85 12.2 43.58 12.73 43.43 11.4 43.16 11.94 43 10.6 42.93 9.94 43.06 9.67 43.41 9.8 43.96 10.33 45.08 11.38 44.39 11.13 45.5 12.18 44.81 11.92 45.92 12.98 45.23 12.72 46.24 13.57 45.55 13.31 46.55 14.17 45.86 13.91 46.63 14.83 45.83 14.38 46.02 15.24"/>
      <path class="c" d="M573.9,156.26l-0.31-1.14-0.3.59,0-1.13-0.27.53,0-1.13-0.26.51-0.15-1.33-0.27.54-0.15-1.33-0.27.54-0.25-2.17,0.14-.3,0.41,0.1,1.88,1.77-0.69-.26,1.11,1.06-0.69-.26,1.11,1.06-0.65-.25,1,0.86-0.69-.26,1,0.86-0.79-.3,0.83,1-0.95-.54,0.2,0.94-0.73-.79-0.19.84h0ZM574,155.2l0.6,0.66-0.17-.79,0.64,0.37-0.71-.85,0.59,0.22-1-.86,0.69,0.26-1-.86,0.73,0.27-1.11-1.06,0.69,0.26-1.11-1.06,0.69,0.26-1.48-1.4-0.33-.12-0.07.24,0.21,1.79,0.27-.54,0.15,1.33,0.27-.54,0.15,1.33,0.28-.56,0,1.13,0.27-.53,0,1.13,0.24-.48,0.27,1,0.14-.63h0Z" transform="translate(-528.71 -140.8)"/>
      <polygon points="45.2 15.25 45.27 13.85 45.06 13.46 44.64 14.72 45.06 13.45 44.75 12.86 44.33 14.12 44.74 12.85 44.32 12.07 44.01 13.53 44.32 12.06 43.9 11.27 43.59 12.73 43.9 11.26 43.48 10.48 43.17 11.94 43.48 10.47 43.05 9.68 43.48 10.47 45.08 11.38 45.07 11.39 43.48 10.48 43.9 11.26 45.5 12.17 45.5 12.19 43.91 11.27 44.33 12.06 45.93 12.97 45.92 12.98 44.33 12.07 44.75 12.86 46.24 13.56 46.23 13.58 44.76 12.87 45.07 13.45 46.56 14.16 46.55 14.18 45.08 13.46 45.29 13.86 46.64 14.83 46.63 14.84 45.3 13.87 46.02 15.23 46.01 15.24 45.27 13.85 45.2 15.25 45.2 15.25"/>
      <polygon class="h" points="38.26 5.75 39.34 6.16 39.03 5.35 39.97 6.28 39.88 5.61 40.65 6.72 40.56 6.06 41.32 7.17 41.23 6.5 42.22 7.77 42.13 7.1 43.13 8.36 43.03 7.7 44.02 8.96 44.52 9.6 44.56 9.93 44.16 9.96 43.3 9.7 41.59 9.18 42.4 9.1 40.69 8.58 41.5 8.51 39.79 7.98 40.6 7.91 39.12 7.53 39.93 7.46 38.44 7.09 39.25 7.02 37.95 6.45 38.98 6.53 38.26 5.75"/>
      <path class="c" d="M572.86,150.83l-2.88-.89,0.81-.07-1.71-.52,0.81-.07-1.71-.53,0.76-.07-1.48-.38,0.81-.07-1.49-.38,0.93-.08-1.42-.61,1.25,0.1-0.79-.86,1.2,0.46-0.37-1,1,1-0.1-.75,0.77,1.11-0.09-.67,0.77,1.12-0.08-.64,1,1.26-0.09-.67,1,1.26-0.09-.67,1.63,2.08,0.07,0.43-0.48,0h0Zm-2.23-.82,2.25,0.69,0.33,0,0-.27-1.33-1.68,0.09,0.67-1-1.26,0.09,0.67-1-1.26,0.09,0.7-0.76-1.11,0.09,0.67-0.77-1.12,0.08,0.59-0.87-.86,0.26,0.68-1-.37,0.65,0.7-0.82-.06,1.19,0.51-0.69.06,1.48,0.38-0.81.07,1.49,0.38-0.86.08,1.71,0.52-0.81.07,1.71,0.52-0.81.07h0Z" transform="translate(-528.71 -140.8)"/>
      <polygon points="44.57 9.92 43.67 9.33 41.59 9.19 41.59 9.17 43.66 9.32 42.76 8.73 40.69 8.59 40.69 8.57 42.75 8.72 41.86 8.13 39.79 7.99 39.79 7.97 41.85 8.13 40.96 7.54 39.12 7.54 39.12 7.52 40.95 7.53 40.28 7.09 38.44 7.1 38.44 7.08 40.27 7.08 39.81 6.79 37.94 6.46 37.95 6.44 39.8 6.78 38.26 5.76 38.27 5.74 39.84 6.78 39.02 5.35 39.84 6.79 40.29 7.08 39.88 5.61 40.3 7.09 40.96 7.53 40.55 6.06 40.97 7.54 41.86 8.13 41.23 6.51 41.87 8.13 42.76 8.72 42.13 7.1 42.77 8.73 43.66 9.32 43.02 7.7 43.67 9.32 44.57 9.92 44.57 9.92"/>
      <polygon class="h" points="50.82 7.14 49.92 7.8 50.92 7.92 49.53 8.24 50.27 8.46 48.77 8.57 49.51 8.79 48.01 8.9 48.75 9.12 46.99 9.34 47.73 9.56 45.98 9.78 46.72 10 44.96 10.22 44.08 10.33 43.71 10.22 43.85 9.89 44.5 9.34 45.79 8.24 45.51 8.9 46.8 7.8 46.53 8.46 47.82 7.36 47.54 8.02 48.58 7.04 48.31 7.69 49.35 6.7 49.07 7.36 50.22 6.6 49.69 7.36 50.82 7.14"/>
      <path class="c" d="M572.78,151.19l-0.45-.13,0.17-.4,2.16-1.85-0.28.66,1.29-1.1-0.28.66,1.29-1.1-0.26.63,1-1-0.28.66,1-1-0.31.75,1.26-.84-0.63.91,1.26-.24-1,.73,1.2,0.14-1.51.36,0.84,0.25-1.5.11,0.74,0.22-1.5.11,0.7,0.21-1.76.22,0.74,0.22-1.76.22,0.74,0.22-3,.37h0ZM572.5,151l0.29,0.09,2.32-.29-0.74-.22,1.76-.22-0.74-.22,1.76-.22-0.78-.23,1.5-.11-0.74-.22,1.5-.11L578,149l1.26-.3-0.79-.09,0.8-.59-1,.19,0.43-.62-1.05.7,0.24-.57-1,1,0.28-.66-1,1,0.29-.69-1.29,1.1,0.28-.66-1.29,1.1,0.28-.66-1.73,1.47-0.1.24h0Z" transform="translate(-528.71 -140.8)"/>
      <polygon points="43.72 10.23 44.73 9.79 45.78 8.23 45.8 8.25 44.74 9.78 45.75 9.34 46.8 7.8 46.81 7.81 45.76 9.34 46.77 8.9 47.81 7.36 47.83 7.37 46.77 8.89 47.78 8.46 48.57 7.03 48.59 7.04 47.79 8.45 48.55 8.13 49.34 6.7 49.35 6.71 48.56 8.12 49.07 7.9 50.22 6.59 50.23 6.6 49.08 7.89 50.82 7.14 50.83 7.16 49.05 7.92 50.92 7.91 49.05 7.92 48.55 8.14 50.27 8.46 48.54 8.14 47.79 8.47 49.51 8.78 47.77 8.47 46.77 8.91 48.75 9.11 46.76 8.91 45.75 9.35 47.73 9.55 45.74 9.35 44.74 9.78 46.72 9.99 44.73 9.79 43.72 10.23 43.72 10.23"/>
      <polygon class="h" points="50.68 13.8 49.56 13.47 49.96 14.26 48.92 13.41 49.08 14.07 48.2 13.02 48.36 13.68 47.48 12.63 47.64 13.28 46.52 12.1 46.68 12.76 45.55 11.58 45.72 12.24 44.59 11.06 44.03 10.46 43.95 10.14 44.35 10.07 45.23 10.26 46.99 10.65 46.2 10.79 47.95 11.17 47.15 11.31 48.92 11.7 48.12 11.83 49.64 12.09 48.84 12.22 50.36 12.48 49.56 12.62 50.92 13.07 49.88 13.07 50.68 13.8"/>
      <path class="c" d="M578.86,155.3l-1.13-.92,0.18,0.74L577,154.06l0.16,0.66-0.88-1,0.15,0.63-1.12-1.18,0.16,0.66-1.12-1.18,0.16,0.66-1.85-1.95-0.11-.42,0.47-.08,3,0.65-0.8.13L577,152l-0.8.13L578,152.5l-0.75.13,1.52,0.26-0.8.13,1.52,0.26-0.92.15,1.49,0.5h-1.26l0.88,0.8-1.25-.36,0.47,0.93h0ZM577.52,154l1,0.78-0.33-.65,1,0.29-0.72-.65h0.82l-1.24-.41,0.68-.11-1.52-.26,0.8-.13-1.52-.26,0.85-.14-1.76-.39,0.8-.13-1.76-.39,0.8-.14-2.32-.51-0.31.06,0.06,0.26,1.5,1.57-0.16-.66,1.12,1.18-0.16-.66,1.12,1.18-0.17-.69,0.88,1.05-0.16-.66,0.88,1.05-0.14-.58h0Z" transform="translate(-528.71 -140.8)"/>
      <polygon points="49.97 14.26 48.99 12.89 48.52 12.63 49.09 14.06 48.51 12.63 47.8 12.24 48.37 13.67 47.79 12.23 46.84 11.72 47.65 13.28 46.83 11.71 45.88 11.19 46.69 12.76 45.87 11.19 44.92 10.67 45.72 12.23 44.91 10.67 43.95 10.14 44.91 10.66 46.99 10.64 46.99 10.66 44.92 10.67 45.88 11.19 47.95 11.16 47.95 11.18 45.88 11.19 46.84 11.71 48.92 11.69 48.92 11.71 46.85 11.71 47.8 12.23 49.63 12.08 49.64 12.1 47.82 12.24 48.52 12.62 50.35 12.47 50.36 12.49 48.54 12.63 49.02 12.89 50.92 13.06 50.92 13.08 49.03 12.89 50.68 13.79 50.67 13.81 49 12.89 49.97 14.26 49.97 14.26"/>
      <polygon class="h" points="39 14.19 39.57 13.4 38.71 13.52 39.77 12.92 39.09 12.89 40.31 12.46 39.63 12.43 40.85 12 40.17 11.97 41.57 11.38 40.89 11.35 42.29 10.76 41.61 10.73 43.01 10.15 43.71 9.85 44.05 9.87 44.03 10.19 43.65 10.82 42.88 12.09 42.92 11.44 42.16 12.71 42.2 12.06 41.44 13.32 41.48 12.68 40.9 13.78 40.94 13.14 40.36 14.25 40.4 13.6 39.66 14.54 39.88 13.74 39 14.19"/>
      <path class="c" d="M568.24,155.59l0.26-.95-1,.49,0.62-.86-1,.15,1.15-.65-0.77,0,1.22-.43-0.68,0,1.22-.43-0.64,0,1.4-.59-0.68,0,1.4-.59-0.68,0,2.33-1h0.42l0,0.38-1.27,2.12,0-.65-0.76,1.26,0-.65-0.77,1.26,0-.61-0.58,1.11,0-.65L569,155.3l0-.73-0.8,1h0Zm0.44-1.16-0.18.66,0.68-.86,0,0.57,0.58-1.11,0,0.65,0.58-1.11,0,0.68,0.77-1.26,0,0.65L571.7,152l0,0.65,1-1.7v-0.24h-0.29l-1.84.78,0.68,0-1.4.59,0.68,0-1.4.59,0.71,0-1.22.43,0.68,0-1.22.43,0.59,0-1,.55,0.7-.1-0.51.71,0.79-.4h0Z" transform="translate(-528.71 -140.8)"/>
      <polygon points="39.67 14.54 39.65 14.54 40.25 13.13 39.01 14.19 39 14.18 40.26 13.1 38.71 13.53 40.26 13.1 40.26 13.1 40.61 12.8 39.09 12.9 40.62 12.79 41.15 12.33 39.63 12.44 41.16 12.33 41.88 11.72 40.17 11.97 41.88 11.71 42.6 11.1 40.9 11.36 42.6 11.1 43.32 10.48 41.62 10.74 43.32 10.48 44.05 9.86 43.33 10.48 42.89 12.09 42.87 12.09 43.32 10.48 42.6 11.1 42.17 12.71 42.15 12.7 42.6 11.11 41.88 11.72 41.45 13.32 41.43 13.32 41.88 11.73 41.16 12.34 40.91 13.79 40.89 13.78 41.15 12.35 40.62 12.8 40.37 14.25 40.35 14.25 40.62 12.81 40.25 13.12 39.67 14.54 39.67 14.54"/>
      <polygon class="h" points="49.2 3.82 48.12 4.55 47.94 3.77 47.29 4.85 47.18 4.33 46.66 5.44 46.58 4.93 46.17 6.06 45.94 5.52 45.53 6.89 45.3 6.35 44.89 7.73 44.66 7.18 44.25 8.56 44.05 9.25 44.17 9.53 44.6 9.38 45.36 8.82 46.87 7.7 46 7.99 47.51 6.87 46.64 7.16 48.15 6.04 47.28 6.32 48.79 5.45 47.76 5.7 49.39 4.85 48.4 5.11 49.59 4.16 48.56 4.66 49.2 3.82"/>
      <path class="c" d="M572.84,150.4l-0.14-.33,0.66-2.27,0.23,0.55L574,147l0.23,0.55,0.41-1.38,0.24,0.56,0.44-1.22,0.08,0.55,0.52-1.09,0.12,0.54,0.64-1.08,0.19,0.84,1.32-.89-0.71.93,1.29-.62-1.39,1.1,1.24-.32-1.67.86,1-.23-1.37.79,0.67-.22-1.51,1.12,0.87-.29L575,148.61l0.87-.29-2.57,1.91-0.51.17h0Zm0.54-2.24-0.56,1.9,0.09,0.18,0.39-.12,1.95-1.45-0.87.29,1.52-1.12-0.87.28,1.51-1.12-1.07.35,1.66-1-1.11.27,1.59-.83-0.74.19,1-.79-0.78.37,0.57-.74-0.85.57-0.16-.72L576,145.81l-0.11-.5-0.53,1.13-0.07-.47-0.38,1-0.23-.53-0.41,1.38-0.23-.55-0.41,1.38-0.23-.55h0Z" transform="translate(-528.71 -140.8)"/>
      <polygon points="44.17 9.53 44.81 8.7 44.65 7.43 44.81 8.69 45.45 7.86 45.29 6.6 45.45 7.85 46.09 7.02 45.95 5.77 46.1 7.01 46.73 6.18 46.53 5.17 46.73 6.17 47.21 5.56 47.13 4.57 47.22 5.55 47.58 5.23 47.88 4 47.59 5.23 48.77 4.21 48.78 4.22 47.58 5.26 49.18 4.42 49.19 4.44 47.58 5.27 47.58 5.26 47.23 5.57 48.95 4.99 48.96 5 47.21 5.58 46.74 6.19 48.35 5.58 48.36 5.6 46.73 6.2 46.1 7.02 47.83 6.2 47.84 6.22 46.09 7.03 45.46 7.86 47.2 7.04 47.21 7.05 45.45 7.87 44.82 8.69 46.54 7.86 46.55 7.88 44.81 8.7 44.17 9.53 44.17 9.53"/>
      <polygon class="h" points="43.31 2.46 43.8 3.57 44.42 2.98 44.31 4.19 44.73 3.8 44.5 4.98 44.87 4.58 44.53 5.73 45.06 5.37 44.57 6.73 45.1 6.36 44.61 7.72 45.14 7.36 44.65 8.72 44.41 9.4 44.14 9.58 43.85 9.26 43.55 8.45 42.94 6.81 43.51 7.45 42.9 5.82 43.47 6.45 42.86 4.82 43.43 5.45 42.67 4.03 43.4 4.71 42.52 3.25 43.21 3.92 42.77 2.57 43.35 3.46 43.31 2.46"/>
      <path class="c" d="M572.84,150.46l-0.32-.36-1-2.76,0.57,0.64-0.61-1.63L572,147l-0.61-1.63,0.46,0.51-0.7-1.31,0.68,0.63-0.89-1.48,0.84,0.81L571.28,143,572,144l0-1.1,0.58,1.32,0.68-.63-0.11,1.21,0.43-.41-0.22,1.16,0.4-.44-0.37,1.23,0.55-.37-0.49,1.36,0.53-.36-0.49,1.36L574,148l-0.79,2.21-0.33.24h0Zm-1-2.58,0.81,2.16,0.24,0.26,0.22-.15,0.65-1.84-0.53.36,0.49-1.36-0.53.36,0.49-1.36-0.52.35,0.32-1.07-0.34.37,0.23-1.2-0.39.37,0.11-1.21-0.57.54-0.4-.9,0,0.9-0.45-.69,0.38,1.15-0.54-.52,0.86,1.42-0.78-.72,0.82,1.54-0.69-.76,0.61,1.63-0.57-.64,0.61,1.64-0.57-.64h0Z" transform="translate(-528.71 -140.8)"/>
      <polygon points="44.15 9.58 44.11 8.59 43.11 7.11 43.13 7.1 44.11 8.57 44.06 7.58 43.05 6.11 43.06 6.1 44.06 7.57 44.02 6.58 43.02 5.11 43.03 5.1 44.02 6.57 43.98 5.58 42.95 4.35 42.97 4.34 43.98 5.57 43.94 4.83 42.8 3.58 42.81 3.56 43.93 4.81 43.81 4.38 42.95 2.99 42.96 2.98 43.81 4.36 43.42 2.99 43.44 2.98 43.84 4.41 44.32 3.2 43.84 4.41 43.96 4.83 44.61 4.01 43.96 4.85 43.99 5.58 44.76 4.79 43.99 5.59 44.03 6.58 44.89 5.57 44.03 6.59 44.07 7.58 44.95 6.57 44.07 7.59 44.11 8.58 44.99 7.57 44.11 8.59 44.15 9.58 44.15 9.58"/>
      <polygon class="h" points="36.8 10.62 38.21 9.63 37.5 9.27 38.75 9.48 38.32 8.91 39.53 9.37 39.1 8.8 40.31 9.26 39.88 8.69 41.34 9.19 40.91 8.62 42.33 9.36 41.91 8.79 43.37 9.29 44.08 9.65 44.29 9.94 44.01 10.13 43.23 10.24 41.96 10.77 42.19 10.31 40.63 10.54 41.2 10.14 39.6 10.61 40.17 10.21 38.82 10.72 39.42 10.09 38.04 10.83 38.64 10.2 37.5 10.98 38.14 10.11 36.8 10.62"/>
      <path class="c" d="M566,152l0.73-1-1.61.6,1.73-1.2-1-.5,1.47,0.25-0.46-.61,1.21,0.45-0.43-.56,1.21,0.45-0.42-.56,1.46,0.5-0.47-.62,1.42,0.73-0.39-.51,1.64,0.56,0.72,0.37,0.27,0.35-0.33.23-0.81.12-1.39.58,0.25-.49-1.7.24,0.48-.33-1.6.46,0.48-.33-1.15.43,0.53-.55-1.38.75,0.46-.49-1,.66h0Zm1.06-1.24-0.55.75,1.32-.92-0.75.78,1.39-.75-0.68.72,1.55-.58-0.66.46,1.6-.46-0.66.46L571,151l-0.21.41,1.11-.46,0.8-.11,0.21-.15-0.18-.23-0.69-.35-1.27-.43,0.47,0.62-1.42-.73,0.39,0.51-1.46-.5,0.43,0.57-1.21-.45,0.43,0.56-1.21-.45,0.39,0.52-1-.17,0.46,0.24-1.11.77,1.09-.41h0Z" transform="translate(-528.71 -140.8)"/>
      <polygon points="37.81 10.71 37.8 10.7 38.68 9.74 37.25 10.36 37.24 10.35 38.7 9.71 37.98 9.46 38.71 9.71 39.48 9.6 38.55 9.1 39.49 9.6 40.15 9.59 40.25 9.59 40.25 9.59 39.33 8.98 40.26 9.59 40.26 9.59 41.26 9.65 40.11 8.84 41.27 9.65 42.27 9.7 41.13 8.82 42.28 9.7 43.21 9.81 42.13 8.97 43.22 9.81 44.29 9.93 43.23 9.82 43.28 9.86 42.16 10.56 42.15 10.54 43.27 9.86 43.23 9.82 42.26 9.72 40.9 10.46 40.9 10.44 42.25 9.72 41.25 9.67 40.01 10.44 40 10.42 41.24 9.67 40.24 9.61 39.11 10.53 39.1 10.51 40.23 9.61 40.15 9.61 39.48 9.62 38.33 10.64 38.32 10.63 39.46 9.62 38.69 9.74 37.81 10.71 37.81 10.71"/>
      <polygon class="i" points="41.77 21.85 44.22 21.41 46.77 21.85 45.59 22.34 43.4 22.37 41.77 21.85"/>
      <path d="M572.11,163.19l-1.64-.53,2.45-.46,2.56,0.44-1.18.52-2.19,0h0Zm0.82-1-2.45.44,1.63,0.5,2.18,0,1.18-.49-2.55-.41h0Z" transform="translate(-528.71 -140.8)"/>
      <path class="j" d="M572.95,158.68c-0.43.15-.9-0.21-1.68,0.38,0,0-1.35-.58-1.45.75a0.89,0.89,0,0,0,.24.36c0.17-.13-0.08.13-0.08,0.16a0.13,0.13,0,0,0,0,.07,0.22,0.22,0,0,1,0,.11,0.66,0.66,0,0,0-.09.33,0.63,0.63,0,0,1,.07.33,0.69,0.69,0,0,0,.07.25,0.32,0.32,0,0,1,.08.19,3.13,3.13,0,0,1,0,.31,0.18,0.18,0,0,0,.15.14c0.08,0,1.09,0,2.52,0s1.9,0.2,2.49,0a0.14,0.14,0,0,0,.1-0.15,0.43,0.43,0,0,1,0-.21,0.81,0.81,0,0,0,.16-0.35s0.26,0.13.12,0a1.66,1.66,0,0,1,0-.51,0.82,0.82,0,0,1,.09-0.27,0.3,0.3,0,0,0-.06-0.16,0.27,0.27,0,0,1,.07-0.11,1.48,1.48,0,0,0,0-.5,1,1,0,0,0-1.21-.76,4.72,4.72,0,0,0-1.77-.38h0Z" transform="translate(-528.71 -140.8)"/>
      <path d="M574.78,162.19l-0.54,0c-0.3,0-.66-0.05-1.15-0.05h-0.22c-1.38,0-2.43,0-2.52,0a0.2,0.2,0,0,1-.17-0.16,1,1,0,0,0,0-.19s0-.1,0-0.12a0.32,0.32,0,0,0-.07-0.17,0.69,0.69,0,0,1-.07-0.27,0.62,0.62,0,0,0-.07-0.32,0.23,0.23,0,0,1,0-.23,0.39,0.39,0,0,0,0-.11,0.19,0.19,0,0,0,0-.09,0.16,0.16,0,0,1,0-.09,0.32,0.32,0,0,1,.08-0.12v0a1,1,0,0,1-.26-0.38,0.82,0.82,0,0,1,.86-0.9,1.82,1.82,0,0,1,.62.13,1.49,1.49,0,0,1,1.2-.34,1.18,1.18,0,0,0,.46,0,5.07,5.07,0,0,1,1.78.38,1,1,0,0,1,1.22.76,1.52,1.52,0,0,1,0,.53,0.3,0.3,0,0,0-.07.11c0.05,0.08.09,0.13,0.05,0.16a0.58,0.58,0,0,0-.07.2,2,2,0,0,0-.06.55s0.06,0.06.05,0.08h-0.09l-0.08,0a0.75,0.75,0,0,1-.15.34,0.43,0.43,0,0,0,0,.19,0.15,0.15,0,0,1-.11.17,1.66,1.66,0,0,1-.59.09h0Zm-1.69-.12c0.49,0,.85,0,1.15.05a2.53,2.53,0,0,0,1.11-.06,0.11,0.11,0,0,0,.09-0.12,0.42,0.42,0,0,1,0-.22,0.91,0.91,0,0,0,.15-0.33,0.11,0.11,0,0,1,.13,0,1.32,1.32,0,0,1,0-.54,0.66,0.66,0,0,1,.1-0.28,0.2,0.2,0,0,0,0-.08l0-.07a0.28,0.28,0,0,1,.08-0.12h0a1.58,1.58,0,0,0,0-.48,0.93,0.93,0,0,0-1.19-.75,5.31,5.31,0,0,0-1.76-.38,1.36,1.36,0,0,1-.48,0,1.52,1.52,0,0,0-1.19.34h0a2.23,2.23,0,0,0-.62-0.12,0.78,0.78,0,0,0-.82.86,1.06,1.06,0,0,0,.22.34,0.09,0.09,0,0,1,.06,0s0,0,0,.12l-0.07.1,0,0.06a0.25,0.25,0,0,1,0,.12,0.33,0.33,0,0,1,0,.13,0.23,0.23,0,0,0,0,.19,0.61,0.61,0,0,1,.08.35,0.67,0.67,0,0,0,.06.24,0.34,0.34,0,0,1,.08.2,1.19,1.19,0,0,0,0,.12,0.92,0.92,0,0,1,0,.2,0.18,0.18,0,0,0,.14.11c0.07,0,1,0,2.51,0h0.22Z" transform="translate(-528.71 -140.8)"/>
      <path class="k" d="M571.21,159.54a1.49,1.49,0,0,0-.07.78,1.67,1.67,0,0,0,.11.27,0.44,0.44,0,0,0-.33-0.24,0.78,0.78,0,0,0-.12.64h0a0.34,0.34,0,0,1,.23-0.28,0.37,0.37,0,0,1,.27.18v0.05a2.7,2.7,0,0,1-.08.36,0.54,0.54,0,0,1-.43.26l0.67-.06h0l0.67-.06a0.59,0.59,0,0,1-.49-0.18,2.28,2.28,0,0,1-.16-0.34v-0.06a0.34,0.34,0,0,1,.22-0.22,0.37,0.37,0,0,1,.29.24h0a0.82,0.82,0,0,0-.28-0.61,0.41,0.41,0,0,0-.27.3,1.59,1.59,0,0,0,0-.28,1.47,1.47,0,0,0-.26-0.75h0Zm0,1,0,0,0,0.06,0.06,0.2s-0.08-.27-0.09-0.28h0Zm0.18,0s0,0.28,0,.29v-0.21s0-.07,0-0.09h0Z" transform="translate(-528.71 -140.8)"/>
      <path d="M570.79,161.57v0h0a0.53,0.53,0,0,0,.42-0.26,1.37,1.37,0,0,0,.07-0.27l0-.09a0.34,0.34,0,0,0-.25-0.21,0.28,0.28,0,0,0-.23.26h0a0.27,0.27,0,0,1,.22-0.28h0a0.39,0.39,0,0,1,.28.18,0.61,0.61,0,0,1,0,.15,1.3,1.3,0,0,1-.07.28,0.42,0.42,0,0,1-.28.23l0.5,0,0.57-.05a0.48,0.48,0,0,1-.4-0.17,1.26,1.26,0,0,1-.13-0.26l0-.08a0.32,0.32,0,0,1,.22-0.29,0.39,0.39,0,0,1,.3.23,0.94,0.94,0,0,0-.28-0.58,0.39,0.39,0,0,0-.26.29,2.44,2.44,0,0,1,0-.28,1.72,1.72,0,0,0-.23-0.72,1.29,1.29,0,0,0-.08.75,1.47,1.47,0,0,0,.1.24h0l0,0,0,0a0.52,0.52,0,0,0-.29-0.18,0.09,0.09,0,0,0-.08,0,1.23,1.23,0,0,0-.06.58,1,1,0,0,1,0-.59,0.1,0.1,0,0,1,.08,0h0a0.39,0.39,0,0,1,.28.16,0.71,0.71,0,0,1-.07-0.17,1.44,1.44,0,0,1,.08-0.79,1.48,1.48,0,0,1,.28.76,2.05,2.05,0,0,1,0,.22,0.32,0.32,0,0,1,.24-0.25h0a0.83,0.83,0,0,1,.29.62,0.4,0.4,0,0,0-.29-0.22,0.33,0.33,0,0,0-.23.21l0,0.13a1.27,1.27,0,0,0,.13.25,0.54,0.54,0,0,0,.44.18h0a4.86,4.86,0,0,1-.62.08l-0.67.06h0Z" transform="translate(-528.71 -140.8)"/>
      <path class="k" d="M571.28,160.88a0.21,0.21,0,0,1,.1,0,0.25,0.25,0,0,1,.11,0V161a0.23,0.23,0,0,0-.11,0,0.21,0.21,0,0,0-.1,0v-0.1Z" transform="translate(-528.71 -140.8)"/>
      <path d="M571.28,161l0-.12a0.19,0.19,0,0,1,.12-0.06h0a0.29,0.29,0,0,1,.12,0l0,0.11a0.62,0.62,0,0,1-.12,0,0.2,0.2,0,0,0-.1,0h0Z" transform="translate(-528.71 -140.8)"/>
      <path class="k" d="M574.57,159.57a1.46,1.46,0,0,0-.24.74,1.49,1.49,0,0,0,.06.29,0.44,0.44,0,0,0-.27-0.31,0.78,0.78,0,0,0-.26.6h0a0.34,0.34,0,0,1,.29-0.23,0.38,0.38,0,0,1,.23.23,0.52,0.52,0,0,0,0,.06,3.11,3.11,0,0,1-.16.34,0.55,0.55,0,0,1-.48.17l0.66,0.08h0l0.66,0.08a0.6,0.6,0,0,1-.45-0.28,3.12,3.12,0,0,1-.09-0.37,0.54,0.54,0,0,0,0-.05,0.34,0.34,0,0,1,.26-0.17,0.38,0.38,0,0,1,.24.29h0a0.81,0.81,0,0,0-.15-0.65,0.41,0.41,0,0,0-.32.24,1.54,1.54,0,0,0,.1-0.26,1.45,1.45,0,0,0-.1-0.78h0Zm-0.18,1v0.09l0,0.21s0-.28,0-0.29h0Zm0.18,0-0.08.28,0.07-.25v0.06l0-.08h0Z" transform="translate(-528.71 -140.8)"/>
      <path d="M575.06,161.64l-0.66-.08-0.66-.08h0a0.62,0.62,0,0,0,.46-0.19,1.52,1.52,0,0,0,.12-0.25l0-.09a0.33,0.33,0,0,0-.21-0.27,0.32,0.32,0,0,0-.27.21h0a0.29,0.29,0,0,1,.25-0.23,0.37,0.37,0,0,1,.26.23,0.7,0.7,0,0,1,0,.15,1.42,1.42,0,0,1-.12.25,0.44,0.44,0,0,1-.35.17l0.53,0.06,0.5,0.06a0.47,0.47,0,0,1-.29-0.24,1.32,1.32,0,0,1-.07-0.28,0.5,0.5,0,0,0,0-.09,0.33,0.33,0,0,1,.26-0.24,0.33,0.33,0,0,1,.27.28,1.56,1.56,0,0,0-.09-0.58,0.09,0.09,0,0,0-.06,0h0a0.42,0.42,0,0,0-.31.23,2.48,2.48,0,0,1,.08-0.27,1.66,1.66,0,0,0-.08-0.76h0a1.34,1.34,0,0,0-.23.72,1.54,1.54,0,0,0,.05.26h0v0l0,0a0.47,0.47,0,0,0-.26-0.25,0.07,0.07,0,0,0-.07,0,1.26,1.26,0,0,0-.17.54,1,1,0,0,1,.15-0.56,0.11,0.11,0,0,1,.08,0,0.34,0.34,0,0,1,.25.21,1,1,0,0,1,0-.17,1.42,1.42,0,0,1,.25-0.76,1.45,1.45,0,0,1,.12.8,1.58,1.58,0,0,1-.08.21,0.34,0.34,0,0,1,.26-0.2,0.12,0.12,0,0,1,.1.05,1.26,1.26,0,0,1,.08.62,0.37,0.37,0,0,0-.25-0.28h0a0.36,0.36,0,0,0-.25.16,0.91,0.91,0,0,0,0,.14,1.27,1.27,0,0,0,.07.27,0.58,0.58,0,0,0,.44.27v0h0Zm-0.62-.67,0-.06a1.07,1.07,0,0,1,0-.18v-0.12h0v0.08h0s0,0.2,0,.2V161h0Zm0.06,0h0a0.12,0.12,0,0,1,0-.11l0-.1h0l0-.08v0h0l0-.08,0,0.15h0a0.91,0.91,0,0,1,0,.1l0,0.1h0Z" transform="translate(-528.71 -140.8)"/>
      <path class="k" d="M574.35,160.89a0.23,0.23,0,0,1,.11,0,0.25,0.25,0,0,1,.1,0V161a0.24,0.24,0,0,0-.1,0,0.22,0.22,0,0,0-.11,0v-0.1Z" transform="translate(-528.71 -140.8)"/>
      <path d="M574.57,161h0a0.21,0.21,0,0,0-.1,0h0a0.24,0.24,0,0,0-.1,0v-0.11a0.18,0.18,0,0,1,.11,0,0.27,0.27,0,0,1,.13.05V161h0Z" transform="translate(-528.71 -140.8)"/>
      <path class="k" d="M570,160.52l0.26-.32h0a1.56,1.56,0,0,1-.5-1.29,1.4,1.4,0,0,1,.5-0.69,1,1,0,0,1,.85-0.12,3.57,3.57,0,0,1,.64.1c0.26,0,1,.07,1,0.07v-0.18h0c-0.31-.06-0.7,0-1-0.07a2.84,2.84,0,0,0-.77-0.08,1.21,1.21,0,0,0-.67,0,3.66,3.66,0,0,0-.56.49,1,1,0,0,0-.22.72,1.13,1.13,0,0,0,.22.57,1.08,1.08,0,0,1,.14.42c0,0.12.1,0.37,0.1,0.35h0Z" transform="translate(-528.71 -140.8)"/>
      <path d="M570,160.53s0,0,0-.09-0.05-.2-0.08-0.27a0.77,0.77,0,0,1,0-.12,0.63,0.63,0,0,0-.11-0.3,1.15,1.15,0,0,1-.22-0.58,1.06,1.06,0,0,1,.22-0.73,3.75,3.75,0,0,1,.56-0.49,0.67,0.67,0,0,1,.43-0.05l0.24,0a2.82,2.82,0,0,1,.77.09,2.19,2.19,0,0,0,.48,0,2.83,2.83,0,0,1,.49,0v0h0v0.17s-0.71,0-1-.06l-0.25,0a1.4,1.4,0,0,0-.39-0.05l-0.23,0a0.71,0.71,0,0,0-.61.14,1.39,1.39,0,0,0-.5.68,1.55,1.55,0,0,0,.5,1.28h0l-0.25.31h0Zm0.56-2.62a0.4,0.4,0,0,0-.23.06,3.71,3.71,0,0,0-.56.49,1,1,0,0,0-.22.71,1.14,1.14,0,0,0,.22.57,0.65,0.65,0,0,1,.12.3,1.05,1.05,0,0,0,0,.12c0,0.07.06,0.19,0.08,0.27l0,0.07,0.25-.31a1.53,1.53,0,0,1-.51-1.29,1.4,1.4,0,0,1,.51-0.69,0.72,0.72,0,0,1,.62-0.14l0.23,0a1.46,1.46,0,0,1,.4.05l0.25,0c0.26,0,1,.07,1,0.07v-0.17a4,4,0,0,0-.47,0,2.16,2.16,0,0,1-.48,0,2.8,2.8,0,0,0-.76-0.09l-0.24,0h-0.18Z" transform="translate(-528.71 -140.8)"/>
      <path class="k" d="M575.8,160.52l-0.26-.32h0a1.56,1.56,0,0,0,.5-1.29,1.4,1.4,0,0,0-.5-0.69,1,1,0,0,0-.85-0.12,3.55,3.55,0,0,0-.64.1c-0.26,0-1,.07-1,0.07v-0.18h0c0.31-.06.71,0,1-0.07a2.82,2.82,0,0,1,.76-0.08,1.21,1.21,0,0,1,.67,0,3.58,3.58,0,0,1,.56.49,1,1,0,0,1,.22.72,1.13,1.13,0,0,1-.22.57,1,1,0,0,0-.14.42c0,0.12-.1.37-0.1,0.35h0Z" transform="translate(-528.71 -140.8)"/>
      <path d="M575.8,160.53h0l-0.26-.32a1.58,1.58,0,0,0,.5-1.3,1.38,1.38,0,0,0-.5-0.68,0.72,0.72,0,0,0-.61-0.14l-0.23,0a1.43,1.43,0,0,0-.4.05l-0.25,0c-0.26,0-1,.07-1,0.07v-0.19a2.2,2.2,0,0,1,.49,0,2.13,2.13,0,0,0,.48,0,2.84,2.84,0,0,1,.77-0.09l0.24,0a0.66,0.66,0,0,1,.43.05,3.64,3.64,0,0,1,.56.49,1,1,0,0,1,.22.73,1.14,1.14,0,0,1-.22.58,0.62,0.62,0,0,0-.11.3,0.79,0.79,0,0,1,0,.12c0,0.07-.05.18-0.07,0.26s0,0.1,0,.1h0ZM575.13,158a0.62,0.62,0,0,1,.41.16,1.39,1.39,0,0,1,.51.69,1.57,1.57,0,0,1-.5,1.3l0.25,0.3,0-.07c0-.08.05-0.2,0.07-0.26a1,1,0,0,0,0-.12,0.66,0.66,0,0,1,.12-0.31,1.15,1.15,0,0,0,.22-0.57,1,1,0,0,0-.22-0.71,3.53,3.53,0,0,0-.56-0.49,0.65,0.65,0,0,0-.42,0l-0.25,0a2.82,2.82,0,0,0-.76.08,2.1,2.1,0,0,1-.48,0,2.78,2.78,0,0,0-.48,0v0.17s0.7,0,1-.08l0.25,0a1.44,1.44,0,0,1,.4-0.05l0.23,0,0.21,0h0Z" transform="translate(-528.71 -140.8)"/>
      <rect class="l" x="43.75" y="17.13" width="0.94" height="1.91"/>
      <path d="M573.41,159.85h-0.95v-1.93h0.95v1.94h0Zm0-1.93h-0.92v1.9h0.91v-1.9h0Z" transform="translate(-528.71 -140.8)"/>
      <path class="k" d="M572.57,156.24a1.1,1.1,0,0,1,.18.19,1.33,1.33,0,0,1,.13.23,1.45,1.45,0,0,1-.23-0.13,1.2,1.2,0,0,1-.19-0.18v0.71a1.18,1.18,0,0,1,.19-0.18,1.3,1.3,0,0,1,.23-0.13,1.58,1.58,0,0,0-.07.23,1.76,1.76,0,0,1-.22.38l0.57,0L573,157a1.58,1.58,0,0,1-.06-0.23,1.28,1.28,0,0,1,.23.13,1.18,1.18,0,0,1,.19.18v-0.71a1.19,1.19,0,0,1-.19.18,1.42,1.42,0,0,1-.23.13,1.34,1.34,0,0,1,.13-0.23,1.1,1.1,0,0,1,.18-0.19h-0.71Z" transform="translate(-528.71 -140.8)"/>
      <path d="M573.18,157.41l-0.59,0a2.67,2.67,0,0,0,.22-0.39,1.22,1.22,0,0,1,.07-0.23s-0.13.07-.22,0.13a1.18,1.18,0,0,0-.19.18v-0.71h0s0.1,0.1.2,0.17a1.33,1.33,0,0,0,.23.13s-0.06-.13-0.13-0.22a1.22,1.22,0,0,0-.18-0.19h0.71s-0.1.09-.17,0.2a1.32,1.32,0,0,0-.13.23s0.13-.07.22-0.13a1.27,1.27,0,0,0,.19-0.18v0.71h0s-0.1-.1-0.2-0.17a1.25,1.25,0,0,0-.23-0.13s0,0.11.06,0.22l0.14,0.43h0Zm-0.3-.67s0,0.11-.06.24a1.79,1.79,0,0,1-.22.38l0.56,0L573,157a1.33,1.33,0,0,1-.06-0.24,0.57,0.57,0,0,1,.24.13,1.05,1.05,0,0,1,.19.18v-0.7a0.71,0.71,0,0,1-.18.18,1.31,1.31,0,0,1-.23.13,0.65,0.65,0,0,1,.12-0.24,1.16,1.16,0,0,1,.18-0.19h-0.7a0.69,0.69,0,0,1,.18.18,1.44,1.44,0,0,1,.13.23,0.57,0.57,0,0,1-.24-0.12,1.19,1.19,0,0,1-.19-0.18v0.7a0.68,0.68,0,0,1,.18-0.18,1.21,1.21,0,0,1,.23-0.13h0Z" transform="translate(-528.71 -140.8)"/>
      <path class="k" d="M573.39,157.51a0.46,0.46,0,1,1-.46-0.46,0.47,0.47,0,0,1,.46.46h0Z" transform="translate(-528.71 -140.8)"/>
      <path d="M572.93,158a0.47,0.47,0,1,1,.47-0.47,0.47,0.47,0,0,1-.47.47h0Zm0-.93a0.45,0.45,0,1,0,.45.45,0.45,0.45,0,0,0-.45-0.45h0Z" transform="translate(-528.71 -140.8)"/>
      <path class="k" d="M572.48,157.57h0.92a0.4,0.4,0,0,0-.05-0.25h-0.29v-0.27h-0.27v0.27H572.5a0.32,0.32,0,0,0,0,.12Z" transform="translate(-528.71 -140.8)"/>
      <path d="M573.4,157.58h-0.93l0-.12a0.4,0.4,0,0,1,0-.12h0.29v-0.26h0.28v0.28h0.28a0.38,0.38,0,0,1,.06.25h0Zm-0.62-.51v0.26l-0.29,0a0.6,0.6,0,0,0,0,.11l0,0.12h0.91a0.38,0.38,0,0,0-.05-0.23h-0.28v-0.28h-0.26Z" transform="translate(-528.71 -140.8)"/>
      <path class="k" d="M572.34,159.78a1.9,1.9,0,0,1,.3.31,2.19,2.19,0,0,1,.22.39,2.22,2.22,0,0,1-.39-0.22,2,2,0,0,1-.31-0.3v1.19a1.88,1.88,0,0,1,.31-0.29,2.16,2.16,0,0,1,.39-0.22,2.26,2.26,0,0,1-.22.39,1.94,1.94,0,0,1-.3.31h1.19a1.91,1.91,0,0,1-.3-0.31,2.25,2.25,0,0,1-.22-0.39,2.09,2.09,0,0,1,.39.22,1.88,1.88,0,0,1,.31.29V160a2,2,0,0,1-.31.3,2.15,2.15,0,0,1-.39.22,2.19,2.19,0,0,1,.22-0.39,1.87,1.87,0,0,1,.3-0.31h-1.19Z" transform="translate(-528.71 -140.8)"/>
      <path d="M573.52,161.35h-1.19s0.16-.16.29-0.33a2.07,2.07,0,0,0,.21-0.38s-0.21.11-.37,0.23a1.91,1.91,0,0,0-.31.29l0-1.19s0.15,0.16.33,0.29a2.37,2.37,0,0,0,.38.21s-0.11-.22-0.22-0.37a1.91,1.91,0,0,0-.29-0.31l1.19,0s-0.16.16-.29,0.33a2.17,2.17,0,0,0-.21.38s0.22-.11.37-0.22a2,2,0,0,0,.31-0.3l0,1.19s-0.15-.16-0.33-0.29a2.1,2.1,0,0,0-.38-0.22s0.11,0.22.22,0.37a1.88,1.88,0,0,0,.3.31l0,0h0Zm-0.68-.72a1.12,1.12,0,0,1-.21.41,1.87,1.87,0,0,1-.3.31l1.15,0a1.86,1.86,0,0,1-.28-0.29,2.31,2.31,0,0,1-.22-0.39,1.17,1.17,0,0,1,.41.21,2,2,0,0,1,.31.3l0-1.17a1.23,1.23,0,0,1-.3.3,2.4,2.4,0,0,1-.39.22,1.16,1.16,0,0,1,.21-0.41,1.87,1.87,0,0,1,.3-0.31l-1.17,0a1.19,1.19,0,0,1,.3.3,2,2,0,0,1,.22.39,1.21,1.21,0,0,1-.4-0.21,2,2,0,0,1-.31-0.3l0,1.17a1.17,1.17,0,0,1,.3-0.29,2.24,2.24,0,0,1,.39-0.22h0Z" transform="translate(-528.71 -140.8)"/>
      <path class="k" d="M570.08,161.79l0.58-.1a1.91,1.91,0,0,1-.35-0.26,2.19,2.19,0,0,1-.28-0.35,2.21,2.21,0,0,1,.42.15,2,2,0,0,1,.36.24l-0.21-1.17a1.94,1.94,0,0,1-.26.35,2.11,2.11,0,0,1-.35.28,2.39,2.39,0,0,1,.15-0.42,2,2,0,0,1,.24-0.36l-0.58.1Z" transform="translate(-528.71 -140.8)"/>
      <path d="M570.07,161.81h0l-0.27-1.54,0.59-.12s-0.13.18-.23,0.37a2.42,2.42,0,0,0-.14.41s0.19-.14.33-0.29a2.06,2.06,0,0,0,.26-0.34l0.22,1.17s-0.18-.13-0.37-0.23a2.14,2.14,0,0,0-.41-0.15s0.15,0.2.29,0.33a1.83,1.83,0,0,0,.35.25l-0.6.12h0Zm0.31-1.66-0.57.12,0.28,1.51,0.57-.1a1.23,1.23,0,0,1-.34-0.24,2.07,2.07,0,0,1-.28-0.35,1,1,0,0,1,.43.13,1.91,1.91,0,0,1,.36.24l-0.22-1.15a1.25,1.25,0,0,1-.24.34,2.09,2.09,0,0,1-.35.28,1.15,1.15,0,0,1,.13-0.43,2.08,2.08,0,0,1,.24-0.36h0Z" transform="translate(-528.71 -140.8)"/>
      <path class="k" d="M575.47,160.15a1.93,1.93,0,0,1,.24.36,2.39,2.39,0,0,1,.15.42,2.11,2.11,0,0,1-.35-0.28,1.94,1.94,0,0,1-.26-0.35L575,161.47a2,2,0,0,1,.36-0.24,2.21,2.21,0,0,1,.42-0.15,2.07,2.07,0,0,1-.28.35,1.91,1.91,0,0,1-.35.26l0.59,0.1,0.27-1.54Z" transform="translate(-528.71 -140.8)"/>
      <path d="M575.79,161.81l-0.6-.1s0.19-.12.34-0.27a2,2,0,0,0,.28-0.34s-0.23.07-.41,0.16a1.94,1.94,0,0,0-.36.24l0.19-1.18h0s0.13,0.19.27,0.34a2.13,2.13,0,0,0,.34.28s-0.07-.23-0.16-0.41a2,2,0,0,0-.24-0.36l0.6,0.09-0.26,1.56h0Zm0-.73a1.17,1.17,0,0,1-.27.36,2,2,0,0,1-.35.26l0.57,0.08,0.27-1.53-0.57-.09a1.23,1.23,0,0,1,.24.34,2.23,2.23,0,0,1,.15.42,1.39,1.39,0,0,1-.36-0.27,2.15,2.15,0,0,1-.26-0.35l-0.19,1.16a1.24,1.24,0,0,1,.34-0.24,2.15,2.15,0,0,1,.43-0.15h0Z" transform="translate(-528.71 -140.8)"/>
      <path class="k" d="M570.08,161.73v0.85a8.6,8.6,0,0,1,5.69,0v-0.85a8.61,8.61,0,0,0-5.69,0h0Z" transform="translate(-528.71 -140.8)"/>
      <path d="M575.79,162.6h0a8.59,8.59,0,0,0-5.68,0l0-.86a9.81,9.81,0,0,1,2.86-.5,10.23,10.23,0,0,1,2.85.49v0.87h0Zm-2.86-1.34a10.22,10.22,0,0,0-2.84.48v0.84a9.38,9.38,0,0,1,2.83-.5,10.14,10.14,0,0,1,2.83.48v-0.84h0a10.68,10.68,0,0,0-2.83-.47h0Z" transform="translate(-528.71 -140.8)"/>
      <path class="m" d="M569.95,160.06a0.22,0.22,0,1,1-.21-0.22,0.22,0.22,0,0,1,.21.22h0Z" transform="translate(-528.71 -140.8)"/>
      <path d="M569.73,160.3a0.23,0.23,0,1,1,.23-0.23,0.23,0.23,0,0,1-.23.23h0Zm0-.43a0.2,0.2,0,1,0,0,.41,0.2,0.2,0,0,0,0-.41h0Z" transform="translate(-528.71 -140.8)"/>
      <path class="m" d="M569.67,159.57a0.22,0.22,0,1,1-.22-0.22,0.22,0.22,0,0,1,.22.22h0Z" transform="translate(-528.71 -140.8)"/>
      <path d="M569.46,159.8a0.23,0.23,0,1,1,.23-0.23,0.23,0.23,0,0,1-.23.23h0Zm0-.43a0.2,0.2,0,1,0,.21.2,0.2,0.2,0,0,0-.21-0.2h0Z" transform="translate(-528.71 -140.8)"/>
      <path class="m" d="M569.62,159a0.22,0.22,0,1,1-.22-0.22,0.22,0.22,0,0,1,.22.22h0Z" transform="translate(-528.71 -140.8)"/>
      <path d="M569.4,159.22a0.23,0.23,0,1,1,.23-0.23,0.23,0.23,0,0,1-.23.23h0Zm0-.43a0.2,0.2,0,1,0,.2.2,0.2,0.2,0,0,0-.2-0.2h0Z" transform="translate(-528.71 -140.8)"/>
      <path class="m" d="M569.79,158.45a0.22,0.22,0,1,1-.22-0.22,0.22,0.22,0,0,1,.22.22h0Z" transform="translate(-528.71 -140.8)"/>
      <path d="M569.57,158.68a0.23,0.23,0,1,1,.23-0.23,0.23,0.23,0,0,1-.23.23h0Zm0-.43a0.2,0.2,0,1,0,.2.2,0.2,0.2,0,0,0-.2-0.2h0Z" transform="translate(-528.71 -140.8)"/>
      <path class="m" d="M570.15,158a0.22,0.22,0,1,1-.21-0.22,0.22,0.22,0,0,1,.21.22h0Z" transform="translate(-528.71 -140.8)"/>
      <path d="M569.94,158.24a0.23,0.23,0,1,1,.23-0.23,0.23,0.23,0,0,1-.23.23h0Zm0-.43a0.2,0.2,0,1,0,.2.2,0.2,0.2,0,0,0-.2-0.2h0Z" transform="translate(-528.71 -140.8)"/>
      <path class="m" d="M570.66,157.7a0.22,0.22,0,1,1-.21-0.22,0.22,0.22,0,0,1,.21.22h0Z" transform="translate(-528.71 -140.8)"/>
      <path d="M570.44,157.93a0.23,0.23,0,1,1,.23-0.23,0.23,0.23,0,0,1-.23.23h0Zm0-.43a0.2,0.2,0,1,0,.2.2,0.2,0.2,0,0,0-.2-0.2h0Z" transform="translate(-528.71 -140.8)"/>
      <path class="m" d="M571.22,157.74a0.22,0.22,0,1,1-.22-0.22,0.22,0.22,0,0,1,.22.22h0Z" transform="translate(-528.71 -140.8)"/>
      <path d="M571,158a0.23,0.23,0,1,1,.23-0.23,0.23,0.23,0,0,1-.23.23h0Zm0-.43a0.2,0.2,0,1,0,.21.21,0.21,0.21,0,0,0-.21-0.21h0Z" transform="translate(-528.71 -140.8)"/>
      <path class="m" d="M571.78,157.83a0.22,0.22,0,1,1-.22-0.22,0.22,0.22,0,0,1,.22.22h0Z" transform="translate(-528.71 -140.8)"/>
      <path d="M571.56,158.06a0.23,0.23,0,0,1,0-.46,0.23,0.23,0,1,1,0,.46h0Zm0-.43a0.2,0.2,0,1,0,.2.2,0.21,0.21,0,0,0-.2-0.2h0Z" transform="translate(-528.71 -140.8)"/>
      <path class="m" d="M572.34,157.89a0.22,0.22,0,1,1-.22-0.22,0.22,0.22,0,0,1,.22.22h0Z" transform="translate(-528.71 -140.8)"/>
      <path d="M572.12,158.12a0.23,0.23,0,0,1,0-.46,0.23,0.23,0,1,1,0,.46h0Zm0-.43a0.2,0.2,0,0,0,0,.41,0.2,0.2,0,1,0,0-.41h0Z" transform="translate(-528.71 -140.8)"/>
      <path class="m" d="M575.85,160.06a0.22,0.22,0,1,0,.21-0.22,0.22,0.22,0,0,0-.21.22h0Z" transform="translate(-528.71 -140.8)"/>
      <path d="M576.07,160.3a0.23,0.23,0,1,1,.23-0.23,0.23,0.23,0,0,1-.23.23h0Zm0-.43a0.2,0.2,0,0,0,0,.41,0.2,0.2,0,0,0,.2-0.2,0.21,0.21,0,0,0-.2-0.2h0Z" transform="translate(-528.71 -140.8)"/>
      <path class="m" d="M576.13,159.57a0.22,0.22,0,1,0,.22-0.22,0.22,0.22,0,0,0-.22.22h0Z" transform="translate(-528.71 -140.8)"/>
      <path d="M576.34,159.8a0.23,0.23,0,1,1,.23-0.23,0.23,0.23,0,0,1-.23.23h0Zm0-.43a0.2,0.2,0,1,0,.21.2,0.2,0.2,0,0,0-.21-0.2h0Z" transform="translate(-528.71 -140.8)"/>
      <path class="m" d="M576.19,159a0.22,0.22,0,1,0,.22-0.22,0.22,0.22,0,0,0-.22.22h0Z" transform="translate(-528.71 -140.8)"/>
      <path d="M576.4,159.22a0.23,0.23,0,1,1,.23-0.23,0.23,0.23,0,0,1-.23.23h0Zm0-.43a0.2,0.2,0,1,0,.2.2,0.2,0.2,0,0,0-.2-0.2h0Z" transform="translate(-528.71 -140.8)"/>
      <path class="m" d="M576,158.45a0.22,0.22,0,1,0,.22-0.22,0.22,0.22,0,0,0-.22.22h0Z" transform="translate(-528.71 -140.8)"/>
      <path d="M576.23,158.68a0.23,0.23,0,1,1,.23-0.23,0.23,0.23,0,0,1-.23.23h0Zm0-.43a0.2,0.2,0,1,0,.2.2,0.2,0.2,0,0,0-.2-0.2h0Z" transform="translate(-528.71 -140.8)"/>
      <path class="m" d="M575.64,158a0.22,0.22,0,1,0,.22-0.22,0.22,0.22,0,0,0-.22.22h0Z" transform="translate(-528.71 -140.8)"/>
      <path d="M575.86,158.24a0.23,0.23,0,1,1,.23-0.23,0.23,0.23,0,0,1-.23.23h0Zm0-.43a0.2,0.2,0,1,0,.2.2,0.2,0.2,0,0,0-.2-0.2h0Z" transform="translate(-528.71 -140.8)"/>
      <path class="m" d="M575.14,157.7a0.22,0.22,0,0,0,.43,0,0.22,0.22,0,0,0-.43,0h0Z" transform="translate(-528.71 -140.8)"/>
      <path d="M575.36,157.93a0.23,0.23,0,1,1,.23-0.23,0.23,0.23,0,0,1-.23.23h0Zm0-.43a0.2,0.2,0,1,0,.21.2,0.2,0.2,0,0,0-.21-0.2h0Z" transform="translate(-528.71 -140.8)"/>
      <path class="m" d="M574.58,157.74a0.22,0.22,0,1,0,.22-0.22,0.22,0.22,0,0,0-.22.22h0Z" transform="translate(-528.71 -140.8)"/>
      <path d="M574.8,158a0.23,0.23,0,1,1,.23-0.23,0.23,0.23,0,0,1-.23.23h0Zm0-.43a0.2,0.2,0,1,0,0,.41,0.2,0.2,0,0,0,0-.41h0Z" transform="translate(-528.71 -140.8)"/>
      <path class="m" d="M574,157.83a0.22,0.22,0,1,0,.21-0.22,0.22,0.22,0,0,0-.21.22h0Z" transform="translate(-528.71 -140.8)"/>
      <path d="M574.24,158.06a0.23,0.23,0,1,1,.23-0.23,0.23,0.23,0,0,1-.23.23h0Zm0-.43a0.2,0.2,0,1,0,.21.2,0.21,0.21,0,0,0-.21-0.2h0Z" transform="translate(-528.71 -140.8)"/>
      <path class="m" d="M573.46,157.89a0.22,0.22,0,1,0,.22-0.22,0.22,0.22,0,0,0-.22.22h0Z" transform="translate(-528.71 -140.8)"/>
      <path d="M573.68,158.12a0.23,0.23,0,1,1,.23-0.23,0.23,0.23,0,0,1-.23.23h0Zm0-.43a0.2,0.2,0,1,0,.2.2,0.2,0.2,0,0,0-.2-0.2h0Z" transform="translate(-528.71 -140.8)"/>
      <path class="m" d="M573.15,159.58a0.22,0.22,0,1,1-.22-0.22,0.22,0.22,0,0,1,.22.22h0Z" transform="translate(-528.71 -140.8)"/>
      <path d="M572.93,159.81a0.23,0.23,0,1,1,0-.46,0.23,0.23,0,0,1,0,.46h0Zm0-.43a0.2,0.2,0,1,0,.2.2,0.2,0.2,0,0,0-.2-0.2h0Z" transform="translate(-528.71 -140.8)"/>
      <path class="m" d="M573.15,159.19a0.22,0.22,0,1,1-.22-0.22,0.22,0.22,0,0,1,.22.22h0Z" transform="translate(-528.71 -140.8)"/>
      <path d="M572.93,159.42a0.23,0.23,0,1,1,.23-0.23,0.23,0.23,0,0,1-.23.23h0Zm0-.43a0.2,0.2,0,1,0,.2.2,0.2,0.2,0,0,0-.2-0.2h0Z" transform="translate(-528.71 -140.8)"/>
      <path class="m" d="M573.15,158.88a0.22,0.22,0,1,1-.22-0.21,0.22,0.22,0,0,1,.22.21h0Z" transform="translate(-528.71 -140.8)"/>
      <path d="M572.93,159.11a0.23,0.23,0,1,1,.23-0.23,0.23,0.23,0,0,1-.23.23h0Zm0-.43a0.2,0.2,0,1,0,.2.2,0.2,0.2,0,0,0-.2-0.2h0Z" transform="translate(-528.71 -140.8)"/>
      <path class="m" d="M573.15,158.6a0.22,0.22,0,1,1-.22-0.22,0.22,0.22,0,0,1,.22.22h0Z" transform="translate(-528.71 -140.8)"/>
      <path d="M572.93,158.83a0.23,0.23,0,1,1,.23-0.23,0.23,0.23,0,0,1-.23.23h0Zm0-.43a0.2,0.2,0,1,0,.2.2,0.2,0.2,0,0,0-.2-0.2h0Z" transform="translate(-528.71 -140.8)"/>
      <path class="m" d="M573.15,157.7a0.22,0.22,0,1,1-.22-0.22,0.22,0.22,0,0,1,.22.22h0Z" transform="translate(-528.71 -140.8)"/>
      <path d="M572.93,157.93a0.23,0.23,0,1,1,.23-0.23,0.23,0.23,0,0,1-.23.23h0Zm0-.43a0.2,0.2,0,1,0,.2.2,0.2,0.2,0,0,0-.2-0.2h0Z" transform="translate(-528.71 -140.8)"/>
      <path class="m" d="M573.15,157.74a0.22,0.22,0,1,1-.22-0.22,0.22,0.22,0,0,1,.22.22h0Z" transform="translate(-528.71 -140.8)"/>
      <path d="M572.93,158a0.23,0.23,0,1,1,.23-0.23,0.23,0.23,0,0,1-.23.23h0Zm0-.43a0.2,0.2,0,1,0,.2.21,0.21,0.21,0,0,0-.2-0.21h0Z" transform="translate(-528.71 -140.8)"/>
      <path class="m" d="M573.15,157.94a0.22,0.22,0,1,1-.22-0.22,0.22,0.22,0,0,1,.22.22h0Z" transform="translate(-528.71 -140.8)"/>
      <path d="M572.93,158.17a0.23,0.23,0,1,1,.23-0.23,0.23,0.23,0,0,1-.23.23h0Zm0-.43a0.2,0.2,0,1,0,.2.2,0.2,0.2,0,0,0-.2-0.2h0Z" transform="translate(-528.71 -140.8)"/>
      <path class="m" d="M573.15,158.21a0.22,0.22,0,1,1-.22-0.22,0.22,0.22,0,0,1,.22.22h0Z" transform="translate(-528.71 -140.8)"/>
      <path d="M572.93,158.44a0.23,0.23,0,1,1,.23-0.23,0.23,0.23,0,0,1-.23.23h0Zm0-.43a0.2,0.2,0,1,0,.2.2,0.2,0.2,0,0,0-.2-0.2h0Z" transform="translate(-528.71 -140.8)"/>
      <path class="m" d="M573.21,160.51a0.28,0.28,0,1,1-.28-0.28,0.28,0.28,0,0,1,.28.28h0Z" transform="translate(-528.71 -140.8)"/>
      <path d="M572.93,160.81a0.29,0.29,0,1,1,.29-0.29,0.29,0.29,0,0,1-.29.29h0Zm0-.56a0.27,0.27,0,1,0,.27.27,0.27,0.27,0,0,0-.27-0.27h0Z" transform="translate(-528.71 -140.8)"/>
      <path class="m" d="M570.28,161a0.28,0.28,0,1,1-.28-0.28,0.28,0.28,0,0,1,.28.28h0Z" transform="translate(-528.71 -140.8)"/>
      <path d="M570,161.31a0.29,0.29,0,1,1,.29-0.29,0.29,0.29,0,0,1-.29.29h0Zm0-.56a0.27,0.27,0,1,0,.27.27,0.27,0.27,0,0,0-.27-0.27h0Z" transform="translate(-528.71 -140.8)"/>
      <path class="m" d="M576.12,161a0.28,0.28,0,1,1-.28-0.28,0.28,0.28,0,0,1,.28.28h0Z" transform="translate(-528.71 -140.8)"/>
      <path d="M575.84,161.31a0.29,0.29,0,1,1,.29-0.29,0.3,0.3,0,0,1-.29.29h0Zm0-.56a0.27,0.27,0,1,0,.27.27,0.27,0.27,0,0,0-.27-0.27h0Z" transform="translate(-528.71 -140.8)"/>
      <rect class="n" x="43.81" y="20.66" width="0.87" height="0.38"/>
      <path d="M573.4,161.85h-0.87v-0.39h0.88v0.4h0Zm0-.39h-0.85v0.37h0.84v-0.37h0Z" transform="translate(-528.71 -140.8)"/>
      <path class="o" d="M573.9,161.74a0.4,0.4,0,0,0,.39.24c0.21,0,.38-0.05.38-0.17a0.4,0.4,0,0,0-.39-0.24c-0.21,0-.39.05-0.38,0.16h0Z" transform="translate(-528.71 -140.8)"/>
      <path d="M574.36,162h-0.07a0.41,0.41,0,0,1-.41-0.26,0.14,0.14,0,0,1,0-.1,0.42,0.42,0,0,1,.29-0.09h0.07a0.41,0.41,0,0,1,.41.26,0.14,0.14,0,0,1,0,.1,0.41,0.41,0,0,1-.29.09h0Zm-0.11-.41a0.43,0.43,0,0,0-.3.08,0.1,0.1,0,0,0,0,.07,0.4,0.4,0,0,0,.38.23h0.07a0.39,0.39,0,0,0,.26-0.08,0.1,0.1,0,0,0,0-.07,0.4,0.4,0,0,0-.38-0.23h0Z" transform="translate(-528.71 -140.8)"/>
      <polygon class="p" points="41.38 21.14 41.16 21.36 41.41 21.5 42 21.34 41.9 21.01 41.38 21.14"/>
      <path d="M570.12,162.31l-0.26-.15,0.21-.24,0.52-.13,0.12,0.34-0.6.17h0Zm0.47-.5-0.5.14-0.21.21,0.24,0.12,0.58-.16-0.12-.31h0Z" transform="translate(-528.71 -140.8)"/>
      <polygon class="p" points="47.11 21.14 47.33 21.36 47.08 21.5 46.49 21.34 46.6 21.01 47.11 21.14"/>
      <path d="M575.79,162.31l-0.59-.16,0.09-.35,0.53,0.12,0.22,0.22-0.26.17h0Zm-0.49-.49-0.09.32,0.57,0.14,0.25-.14-0.22-.19-0.51-.12h0Z" transform="translate(-528.71 -140.8)"/>
      <path class="o" d="M572,161.74a0.41,0.41,0,0,1-.39.24c-0.21,0-.38-0.05-0.38-0.17a0.4,0.4,0,0,1,.39-0.24c0.21,0,.39.05,0.38,0.16h0Z" transform="translate(-528.71 -140.8)"/>
      <path d="M571.54,162a0.41,0.41,0,0,1-.29-0.09,0.14,0.14,0,0,1,0-.1,0.41,0.41,0,0,1,.41-0.26h0.07a0.41,0.41,0,0,1,.29.09,0.13,0.13,0,0,1,0,.1,0.42,0.42,0,0,1-.41.26h-0.07Zm0.15-.42a0.44,0.44,0,0,0-.45.23,0.09,0.09,0,0,0,0,.07,0.38,0.38,0,0,0,.26.08h0.07a0.4,0.4,0,0,0,.38-0.23,0.1,0.1,0,0,0,0-.07,0.38,0.38,0,0,0-.26-0.08h0Z" transform="translate(-528.71 -140.8)"/>
      <path class="m" d="M572.33,161.49a0.11,0.11,0,0,1-.11.11,0.11,0.11,0,1,1,.11-0.11h0Z" transform="translate(-528.71 -140.8)"/>
      <path d="M572.23,161.6a0.12,0.12,0,0,1-.12-0.12c0-.12.23-0.13,0.23,0a0.11,0.11,0,0,1-.12.12h0Zm0-.21a0.1,0.1,0,0,0-.1.1c0,0.11.2,0.11,0.2,0a0.1,0.1,0,0,0-.1-0.1h0Z" transform="translate(-528.71 -140.8)"/>
      <path class="m" d="M572.37,161.83a0.11,0.11,0,1,1-.11-0.11,0.11,0.11,0,0,1,.11.11h0Z" transform="translate(-528.71 -140.8)"/>
      <path d="M572.26,161.94a0.12,0.12,0,0,1-.12-0.12c0-.13.23-0.13,0.23,0a0.12,0.12,0,0,1-.12.12h0Zm0-.21a0.1,0.1,0,0,0-.1.1c0,0.11.2,0.11,0.2,0a0.1,0.1,0,0,0-.1-0.1h0Z" transform="translate(-528.71 -140.8)"/>
      <path class="m" d="M571,161.73a0.11,0.11,0,0,1-.21,0,0.11,0.11,0,1,1,.21,0h0Z" transform="translate(-528.71 -140.8)"/>
      <path d="M570.9,161.84a0.11,0.11,0,0,1-.12-0.11c0-.13.23-0.13,0.23,0a0.11,0.11,0,0,1-.12.11h0Zm0-.21a0.1,0.1,0,0,0-.1.1c0,0.1.2,0.1,0.2,0a0.1,0.1,0,0,0-.1-0.1h0Z" transform="translate(-528.71 -140.8)"/>
      <path class="m" d="M571.14,162a0.11,0.11,0,0,1-.11.11,0.11,0.11,0,1,1,0-.21,0.11,0.11,0,0,1,.11.11h0Z" transform="translate(-528.71 -140.8)"/>
      <path d="M571,162.16a0.11,0.11,0,0,1-.12-0.12c0-.13.23-0.13,0.23,0a0.12,0.12,0,0,1-.12.12h0Zm0-.21a0.1,0.1,0,0,0-.1.1c0,0.11.2,0.11,0.2,0a0.1,0.1,0,0,0-.1-0.1h0Z" transform="translate(-528.71 -140.8)"/>
      <path class="m" d="M573.57,161.49a0.11,0.11,0,0,0,.11.11,0.11,0.11,0,1,0-.11-0.11h0Z" transform="translate(-528.71 -140.8)"/>
      <path d="M573.68,161.6a0.11,0.11,0,0,1-.12-0.12c0-.13.23-0.13,0.23,0a0.11,0.11,0,0,1-.12.12h0Zm0-.21a0.1,0.1,0,0,0-.1.1c0,0.11.2,0.11,0.2,0a0.1,0.1,0,0,0-.1-0.1h0Z" transform="translate(-528.71 -140.8)"/>
      <path class="m" d="M573.54,161.83a0.11,0.11,0,1,0,.11-0.11,0.11,0.11,0,0,0-.11.11h0Z" transform="translate(-528.71 -140.8)"/>
      <path d="M573.64,161.94a0.12,0.12,0,0,1-.12-0.12c0-.13.23-0.13,0.23,0a0.12,0.12,0,0,1-.12.12h0Zm0-.21a0.1,0.1,0,0,0-.1.1c0,0.11.2,0.11,0.2,0a0.1,0.1,0,0,0-.1-0.1h0Z" transform="translate(-528.71 -140.8)"/>
      <path class="m" d="M574.9,161.73a0.11,0.11,0,0,0,.21,0,0.11,0.11,0,1,0-.21,0h0Z" transform="translate(-528.71 -140.8)"/>
      <path d="M575,161.84a0.11,0.11,0,0,1-.12-0.11,0.12,0.12,0,0,1,.23,0,0.11,0.11,0,0,1-.12.11h0Zm0-.21a0.1,0.1,0,0,0-.1.1c0,0.11.19,0.11,0.19,0a0.1,0.1,0,0,0-.1-0.1h0Z" transform="translate(-528.71 -140.8)"/>
      <path class="m" d="M574.77,162a0.11,0.11,0,1,0,.21,0,0.11,0.11,0,0,0-.21,0h0Z" transform="translate(-528.71 -140.8)"/>
      <path d="M574.87,162.16a0.11,0.11,0,0,1-.12-0.12c0-.13.23-0.13,0.23,0a0.12,0.12,0,0,1-.12.12h0Zm0-.21a0.1,0.1,0,0,0-.1.1c0,0.11.19,0.11,0.19,0a0.1,0.1,0,0,0-.1-0.1h0Z" transform="translate(-528.71 -140.8)"/>
      <path class="c" d="M575.1,163.21a4,4,0,0,0,.67-0.19c-0.07-.12-0.19-0.21-0.09-0.17s0.09-.14-0.06-0.27a9.2,9.2,0,0,1-2.71.39,9.32,9.32,0,0,1-2.75-.4,0.36,0.36,0,0,0-.11.32,0.31,0.31,0,0,0,0,.12,1.58,1.58,0,0,0,.69.25,9.54,9.54,0,0,0,2.14.16,9.75,9.75,0,0,0,2.18-.21h0Z" transform="translate(-528.71 -140.8)"/>
      <path d="M572.92,163.44a9.82,9.82,0,0,1-2-.14l-0.12,0a1.38,1.38,0,0,1-.7-0.25,0.32,0.32,0,0,1,0-.14,0.37,0.37,0,0,1,.12-0.34,9.87,9.87,0,0,0,2.76.4,9.19,9.19,0,0,0,2.7-.39,0.25,0.25,0,0,1,.12.27h0l-0.06,0a0.56,0.56,0,0,1,.12.14,2.67,2.67,0,0,1-.69.22l-0.17,0a9.58,9.58,0,0,1-2,.17h0Zm-2.75-.86a0.31,0.31,0,0,0-.08.26,0.35,0.35,0,0,0,0,.16,1.25,1.25,0,0,0,.65.23l0.13,0a9.66,9.66,0,0,0,2,.14,9.53,9.53,0,0,0,2-.17l0.17,0a4.19,4.19,0,0,0,.67-0.19,0.49,0.49,0,0,1-.1-0.1l0-.08,0.07,0a0.24,0.24,0,0,0-.09-0.21,8.67,8.67,0,0,1-2.69.4,9.35,9.35,0,0,1-2.76-.41h0Z" transform="translate(-528.71 -140.8)"/>
      <path class="c" d="M570.73,162.34a5.23,5.23,0,0,0-.7.26h0a0.51,0.51,0,0,0,.06.43,9.36,9.36,0,0,1,2.88-.55,8.57,8.57,0,0,1,2.8.55,0.51,0.51,0,0,0,.05-0.43h0a5.24,5.24,0,0,0-.7-0.26A6.78,6.78,0,0,0,573,162a8.26,8.26,0,0,0-2.24.31h0Z" transform="translate(-528.71 -140.8)"/>
      <path d="M575.78,163.05l-0.15,0a8.21,8.21,0,0,0-2.66-.5,9.17,9.17,0,0,0-2.81.53l-0.08,0a0.4,0.4,0,0,1-.07-0.38h0l0-.07a4.88,4.88,0,0,1,.71-0.26l0.3-.07A7.1,7.1,0,0,1,573,162a5.89,5.89,0,0,1,1.86.24l0.3,0.08a5,5,0,0,1,.71.26l0,0.09a0.39,0.39,0,0,1-.07.38h0Zm-5.73-.44a0.06,0.06,0,0,1,0,.06,0.36,0.36,0,0,0,.06.34,8.9,8.9,0,0,1,2.87-.56,8.29,8.29,0,0,1,2.67.5l0.13,0a0.39,0.39,0,0,0,0-.33,0.21,0.21,0,0,1,0-.08c-0.09,0-.6-0.22-0.69-0.24l-0.3-.08A5.85,5.85,0,0,0,573,162a7.08,7.08,0,0,0-1.92.24l-0.31.07a5.34,5.34,0,0,0-.69.26h0Z" transform="translate(-528.71 -140.8)"/>
      <path class="q" d="M570.36,162.65a0,0,0,0,1,0,0,0,0,0,1,1,0-.06,0,0,0,0,1,0,0h0Z" transform="translate(-528.71 -140.8)"/>
      <circle class="a" cx="570.33" cy="162.65" r="0.04" transform="translate(-543.17 -76.9) rotate(-6.33)"/>
      <path class="q" d="M570.32,162.74a0,0,0,0,1,0,0,0,0,0,0,1,0,0,0,0,0,0,1,0,0,0,0,0,0,1,0,0h0Z" transform="translate(-528.71 -140.8)"/>
      <circle class="a" cx="570.29" cy="162.74" r="0.04" transform="translate(-541.88 -84.31) rotate(-5.61)"/>
      <path class="q" d="M570.4,162.78a0,0,0,0,1,0,0,0,0,0,0,1,0,0,0,0,0,0,1,0,0,0,0,0,0,1,0,0h0Z" transform="translate(-528.71 -140.8)"/>
      <circle class="a" cx="570.37" cy="162.79" r="0.04" transform="translate(-541.73 -85.13) rotate(-5.52)"/>
      <polygon class="q" points="41.63 21.93 41.93 21.79 41.78 21.88 41.88 21.87 41.8 21.92 41.95 21.91 41.63 21.93"/>
      <polygon points="41.54 21.95 41.92 21.77 41.79 21.9 41.92 21.77 41.69 21.91 41.83 21.9 41.88 21.85 41.84 21.9 41.95 21.9 41.8 21.94 41.94 21.9 41.8 21.94 41.82 21.92 41.54 21.95 41.54 21.95"/>
      <path class="q" d="M571.49,162.33a0,0,0,0,1,0,0,0,0,0,0,1,0,0,0,0,0,0,1,.07,0h0Z" transform="translate(-528.71 -140.8)"/>
      <circle class="a" cx="571.45" cy="162.33" r="0.04" transform="translate(-543.13 -76.78) rotate(-6.33)"/>
      <path class="q" d="M571.45,162.42a0,0,0,0,1,0,0,0,0,0,0,1,0,0,0,0,0,0,1,0,0,0,0,0,0,1,0,0h0Z" transform="translate(-528.71 -140.8)"/>
      <circle class="a" cx="571.41" cy="162.42" r="0.04" transform="translate(-541.84 -84.19) rotate(-5.61)"/>
      <path class="q" d="M571.52,162.46a0,0,0,0,1,0,0,0,0,0,0,1,0,0,0,0,0,0,1,0,0,0,0,0,0,1,0,0h0Z" transform="translate(-528.71 -140.8)"/>
      <circle class="a" cx="571.49" cy="162.47" r="0.04" transform="translate(-541.69 -85.02) rotate(-5.52)"/>
      <polygon class="q" points="42.75 21.61 43.05 21.46 42.91 21.56 43.01 21.55 42.92 21.6 43.07 21.59 42.75 21.61"/>
      <polygon points="42.66 21.63 43.05 21.45 42.91 21.58 43.05 21.45 42.81 21.59 42.95 21.58 43.01 21.53 42.96 21.58 43.07 21.57 42.93 21.61 43.07 21.58 42.92 21.61 42.94 21.59 42.66 21.63 42.66 21.63"/>
      <path class="q" d="M572.88,162.18a0,0,0,0,1,0,0,0,0,0,0,1,0,0,0,0,0,0,1,.07,0h0Z" transform="translate(-528.71 -140.8)"/>
      <circle class="a" cx="572.85" cy="162.17" r="0.03" transform="translate(-197.64 565.43) rotate(-81.85)"/>
      <path class="q" d="M572.82,162.25a0,0,0,0,1,0,0,0,0,0,0,1,0,0,0,0,0,0,1,0,0,0,0,0,0,1,0,0h0Z" transform="translate(-528.71 -140.8)"/>
      <circle class="a" cx="572.79" cy="162.25" r="0.03" transform="translate(-197.11 565.72) rotate(-81.92)"/>
      <path class="q" d="M572.89,162.32a0,0,0,0,1,0,0,0,0,0,0,1,0,0,0,0,0,0,1,0,0,0,0,0,0,1,0,0h0Z" transform="translate(-528.71 -140.8)"/>
      <ellipse class="a" cx="572.85" cy="162.31" rx="0.03" ry="0.04" transform="translate(-201.13 564.05) rotate(-81.49)"/>
      <polygon class="q" points="44.13 21.45 44.46 21.38 44.29 21.44 44.39 21.45 44.3 21.48 44.44 21.51 44.13 21.45"/>
      <polygon points="44.44 21.53 44.29 21.5 44.3 21.5 44.12 21.46 44.45 21.37 44.13 21.46 44.29 21.46 44.39 21.44 44.3 21.5 44.45 21.49 44.44 21.53 44.44 21.53"/>
      <path class="q" d="M574.17,162.44a0,0,0,0,0,0,0,0,0,0,0,0,0,0,0,0,0,0,0,0,0,0,0,0,0,0,0,0h0Z" transform="translate(-528.71 -140.8)"/>
      <circle class="a" cx="574.14" cy="162.44" r="0.03" transform="translate(-179.33 574.37) rotate(-83.67)"/>
      <path class="q" d="M574.13,162.36a0,0,0,0,0,0,0,0,0,0,0,0,0,0,0,0,0,0,0,0,0,0,0,0,0,0,0,0h0Z" transform="translate(-528.71 -140.8)"/>
      <circle class="a" cx="574.1" cy="162.35" r="0.03" transform="translate(-172.26 577.05) rotate(-84.39)"/>
      <path class="q" d="M574.21,162.31a0,0,0,0,0,0,0,0,0,0,0,0,0,0,0,0,0,0,0,0,0,0,0,0,0,0,0,0h0Z" transform="translate(-528.71 -140.8)"/>
      <circle class="a" cx="574.18" cy="162.31" r="0.03" transform="translate(-172.15 577.08) rotate(-84.39)"/>
      <polygon class="q" points="45.44 21.57 45.74 21.71 45.6 21.61 45.7 21.63 45.61 21.58 45.76 21.58 45.44 21.57"/>
      <polygon points="45.73 21.73 45.43 21.59 45.76 21.57 45.44 21.59 45.62 21.65 45.59 21.63 45.7 21.61 45.7 21.61 45.59 21.63 45.75 21.7 45.73 21.73 45.73 21.73"/>
      <path class="q" d="M575.31,162.74a0,0,0,0,0,0,0,0,0,0,0,0,0,0,0,0,0,0,0,0,0,0,0,0,0,0,0,0h0Z" transform="translate(-528.71 -140.8)"/>
      <circle class="a" cx="575.27" cy="162.74" r="0.03" transform="translate(-170.8 578.87) rotate(-84.48)"/>
      <path class="q" d="M575.27,162.65a0,0,0,0,0,0,0,0,0,0,0,0,0,0,0,0,0,0,0,0,0,0,0,0,0,0,0,0h0Z" transform="translate(-528.71 -140.8)"/>
      <circle class="a" cx="575.23" cy="162.65" r="0.03" transform="translate(-170.75 578.75) rotate(-84.48)"/>
      <path class="q" d="M575.34,162.61a0,0,0,0,0,0,0,0,0,0,1,0,0,.06,0,0,0,0,0,0,0h0Z" transform="translate(-528.71 -140.8)"/>
      <circle class="a" cx="575.31" cy="162.6" r="0.03" transform="translate(-180.93 574.66) rotate(-83.41)"/>
      <polygon class="q" points="46.57 21.87 46.88 22.01 46.73 21.91 46.83 21.92 46.74 21.87 46.89 21.88 46.57 21.87"/>
      <polygon points="46.87 22.02 46.56 21.88 46.89 21.86 46.57 21.88 46.76 21.95 46.72 21.92 46.83 21.91 46.84 21.91 46.73 21.93 46.88 21.99 46.87 22.02 46.87 22.02"/>
    </g>
  </g>
</svg>
