<svg xmlns="http://www.w3.org/2000/svg" xmlns:xlink="http://www.w3.org/1999/xlink" viewBox="0 0 58.93 34.37">
  <defs>
    <style>
      .a {
        fill: none;
      }

      .b {
        clip-path: url(#a);
      }

      .c {
        fill: #fff;
      }
    </style>
    <clipPath id="a" transform="translate(-597.81 -140.71)">
      <rect class="a" x="597.81" y="140.71" width="58.93" height="34.37"/>
    </clipPath>
  </defs>
  <title>Brittany</title>
  <g class="b">
    <rect x="23.34" width="35.58" height="3.44"/>
    <rect x="23.34" y="7.73" width="35.58" height="3.44"/>
    <rect y="15.47" width="58.93" height="3.44"/>
    <rect y="23.2" width="58.93" height="3.44"/>
    <rect y="30.94" width="58.93" height="3.44"/>
    <rect class="c" x="23.34" y="3.44" width="35.58" height="4.3"/>
    <rect class="c" x="23.34" y="11.17" width="35.58" height="4.3"/>
    <rect class="c" y="18.91" width="58.93" height="4.3"/>
    <rect class="c" y="26.64" width="58.93" height="4.3"/>
    <rect class="c" width="23.34" height="15.47"/>
    <polygon points="17.51 6.53 18.02 6.19 18.88 6.53 18.02 6.88 17.51 6.53"/>
    <polygon points="17.51 6.53 16.99 6.88 16.14 6.53 16.99 6.19 17.51 6.53"/>
    <polygon points="17.51 6.53 17.16 6.02 17.51 5.16 17.85 6.02 17.51 6.53"/>
    <polygon points="17.51 10.48 17.16 9.8 15.96 10.31 17.51 6.53 19.05 10.31 17.85 9.8 17.51 10.48"/>
    <polygon points="20.43 11.17 20.94 10.83 21.8 11.17 20.94 11.52 20.43 11.17"/>
    <polygon points="20.43 11.17 19.91 11.52 19.05 11.17 19.91 10.83 20.43 11.17"/>
    <polygon points="20.43 11.17 20.08 10.65 20.43 9.8 20.77 10.65 20.43 11.17"/>
    <polygon points="20.43 15.12 20.08 14.44 18.88 14.95 20.43 11.17 21.97 14.95 20.77 14.44 20.43 15.12"/>
    <polygon points="14.59 11.17 15.11 10.83 15.96 11.17 15.11 11.52 14.59 11.17"/>
    <polygon points="14.59 11.17 14.07 11.52 13.22 11.17 14.07 10.83 14.59 11.17"/>
    <polygon points="14.59 11.17 14.25 10.65 14.59 9.8 14.93 10.65 14.59 11.17"/>
    <polygon points="14.59 15.12 14.25 14.44 13.04 14.95 14.59 11.17 16.14 14.95 14.93 14.44 14.59 15.12"/>
    <polygon points="20.43 1.55 20.94 1.2 21.8 1.55 20.94 1.89 20.43 1.55"/>
    <polygon points="20.43 1.55 19.91 1.89 19.05 1.55 19.91 1.2 20.43 1.55"/>
    <polygon points="20.43 1.55 20.08 1.03 20.43 0.17 20.77 1.03 20.43 1.55"/>
    <polygon points="20.43 5.5 20.08 4.81 18.88 5.33 20.43 1.55 21.97 5.33 20.77 4.81 20.43 5.5"/>
    <polygon points="14.76 1.64 15.28 1.29 16.14 1.64 15.28 1.98 14.76 1.64"/>
    <polygon points="14.76 1.64 14.25 1.98 13.39 1.64 14.25 1.29 14.76 1.64"/>
    <polygon points="14.76 1.64 14.42 1.12 14.76 0.26 15.11 1.12 14.76 1.64"/>
    <polygon points="14.76 5.59 14.42 4.9 13.22 5.42 14.76 1.64 16.31 5.42 15.11 4.9 14.76 5.59"/>
    <polygon points="11.67 6.53 12.19 6.19 13.04 6.53 12.19 6.88 11.67 6.53"/>
    <polygon points="11.67 6.53 11.16 6.88 10.3 6.53 11.16 6.19 11.67 6.53"/>
    <polygon points="11.67 6.53 11.33 6.02 11.67 5.16 12.02 6.02 11.67 6.53"/>
    <polygon points="11.67 10.48 11.33 9.8 10.13 10.31 11.67 6.53 13.22 10.31 12.02 9.8 11.67 10.48"/>
    <polygon points="8.75 1.55 9.27 1.2 10.13 1.55 9.27 1.89 8.75 1.55"/>
    <polygon points="8.75 1.55 8.24 1.89 7.38 1.55 8.24 1.2 8.75 1.55"/>
    <polygon points="8.75 1.55 8.41 1.03 8.75 0.17 9.1 1.03 8.75 1.55"/>
    <polygon points="8.75 5.5 8.41 4.81 7.21 5.33 8.75 1.55 10.3 5.33 9.1 4.81 8.75 5.5"/>
    <polygon points="8.75 11.17 9.27 10.83 10.13 11.17 9.27 11.52 8.75 11.17"/>
    <polygon points="8.75 11.17 8.24 11.52 7.38 11.17 8.24 10.83 8.75 11.17"/>
    <polygon points="8.75 11.17 8.41 10.65 8.75 9.8 9.1 10.65 8.75 11.17"/>
    <polygon points="8.75 15.12 8.41 14.44 7.21 14.95 8.75 11.17 10.3 14.95 9.1 14.44 8.75 15.12"/>
    <polygon points="5.84 6.53 6.35 6.19 7.21 6.53 6.35 6.88 5.84 6.53"/>
    <polygon points="5.84 6.53 5.32 6.88 4.46 6.53 5.32 6.19 5.84 6.53"/>
    <polygon points="5.84 6.53 5.49 6.02 5.84 5.16 6.18 6.02 5.84 6.53"/>
    <polygon points="5.84 10.48 5.49 9.8 4.29 10.31 5.84 6.53 7.38 10.31 6.18 9.8 5.84 10.48"/>
    <polygon points="2.92 1.55 3.43 1.2 4.29 1.55 3.43 1.89 2.92 1.55"/>
    <polygon points="2.92 1.55 2.4 1.89 1.54 1.55 2.4 1.2 2.92 1.55"/>
    <polygon points="2.92 1.55 2.58 1.03 2.92 0.17 3.26 1.03 2.92 1.55"/>
    <polygon points="2.92 5.5 2.58 4.81 1.37 5.33 2.92 1.55 4.46 5.33 3.26 4.81 2.92 5.5"/>
    <polygon points="2.92 11.17 3.43 10.83 4.29 11.17 3.43 11.52 2.92 11.17"/>
    <polygon points="2.92 11.17 2.4 11.52 1.54 11.17 2.4 10.83 2.92 11.17"/>
    <polygon points="2.92 11.17 2.58 10.65 2.92 9.8 3.26 10.65 2.92 11.17"/>
    <polygon points="2.92 15.12 2.58 14.44 1.37 14.95 2.92 11.17 4.46 14.95 3.26 14.44 2.92 15.12"/>
  </g>
</svg>
