<svg xmlns="http://www.w3.org/2000/svg" xmlns:xlink="http://www.w3.org/1999/xlink" viewBox="0 0 58.92 34.37">
  <defs>
    <style>
      .a {
        fill: none;
      }

      .b {
        clip-path: url(#a);
      }

      .c {
        fill: #f0e030;
      }

      .d {
        fill: #fff;
      }

      .e {
        fill: #bd0030;
      }

      .f {
        clip-path: url(#d);
      }

      .g {
        clip-path: url(#e);
      }

      .h {
        fill: #f4d02e;
      }

      .i {
        fill: #bb4b4b;
      }
    </style>
    <clipPath id="a" transform="translate(-668.5 -140.71)">
      <rect class="a" x="668.5" y="140.71" width="58.92" height="34.37"/>
    </clipPath>
    <clipPath id="d" transform="translate(-668.5 -140.71)">
      <rect class="a" x="689.87" y="163.99" width="16.16" height="4.11"/>
    </clipPath>
    <clipPath id="e" transform="translate(-668.5 -140.71)">
      <rect class="a" x="691.75" y="165.64" width="12.35" height="3.03"/>
    </clipPath>
  </defs>
  <title>Brunei</title>
  <g class="b">
    <g class="b">
      <rect class="c" width="58.92" height="34.37"/>
      <polygon class="d" points="0 10.5 58.92 24.82 58.92 16.71 0 2.39 0 10.5"/>
      <polygon points="0 17.66 58.92 31.99 58.92 24.82 0 10.5 0 17.66"/>
      <rect class="e" x="29.12" y="14.32" width="0.62" height="1.65"/>
      <path d="M698.29,156.73h-0.72V155h0.72v1.76h0Zm-0.62-.11h0.51v-1.54h-0.51v1.54h0Z" transform="translate(-668.5 -140.71)"/>
      <g class="b">
        <path class="e" d="M698.86,159.38a16.58,16.58,0,0,1,.11-2.53,1,1,0,0,1,.34-0.53,1,1,0,0,0-.89.72,1.93,1.93,0,0,0-.5-1,1.85,1.85,0,0,0-.49,1,1,1,0,0,0-.86-0.72,1,1,0,0,1,.33.52,14.35,14.35,0,0,1,.09,2.52Z" transform="translate(-668.5 -140.71)"/>
        <path d="M698.75,159.39a16.8,16.8,0,0,1,.12-2.56,1,1,0,0,1,.13-0.31,1.18,1.18,0,0,0-.47.58l-0.13.33-0.08-.35a2,2,0,0,0-.39-0.85,1.84,1.84,0,0,0-.38.85l-0.06.32-0.14-.29a1.61,1.61,0,0,0-.45-0.57,1,1,0,0,1,.12.29,14.23,14.23,0,0,1,.1,2.55h-0.22a14.56,14.56,0,0,0-.09-2.49,0.7,0.7,0,0,0-.21-0.37l-0.1-.1-0.13-.16,0.2,0a0.94,0.94,0,0,1,.83.54,1.8,1.8,0,0,1,.45-0.78l0.07-.07L698,156a1.83,1.83,0,0,1,.45.76,1,1,0,0,1,.87-0.53l0.22,0-0.23.24a0.7,0.7,0,0,0-.23.4,16.64,16.64,0,0,0-.11,2.51h-0.22Z" transform="translate(-668.5 -140.71)"/>
        <path class="e" d="M698.91,162.22a21.29,21.29,0,0,1,.12-2.89,0.88,0.88,0,0,1,.36-0.6,0.82,0.82,0,0,0-.93.7,0.67,0.67,0,1,0-1.07,0,0.83,0.83,0,0,0-.95-0.71,1,1,0,0,1,.38.6,19.16,19.16,0,0,1,.06,2.88Z" transform="translate(-668.5 -140.71)"/>
        <path d="M698.82,162.22a21.52,21.52,0,0,1,.12-2.91,0.94,0.94,0,0,1,.22-0.49,0.76,0.76,0,0,0-.6.64l-0.11.35-0.07-.36a1.87,1.87,0,0,0-.45-1,1.84,1.84,0,0,0-.44,1l-0.06.35-0.12-.34a0.8,0.8,0,0,0-.63-0.66,0.92,0.92,0,0,1,.25.49,20.88,20.88,0,0,1,.06,2.9h-0.19a18.56,18.56,0,0,0-.06-2.85,0.76,0.76,0,0,0-.27-0.47l-0.22-.23,0.19,0a0.83,0.83,0,0,1,.93.5,1.91,1.91,0,0,1,.49-0.84l0.07-.07,0.07,0.07a1.89,1.89,0,0,1,.49.84,0.85,0.85,0,0,1,.92-0.49l0.2,0-0.21.2a0.72,0.72,0,0,0-.28.49,21.26,21.26,0,0,0-.12,2.87h-0.19Z" transform="translate(-668.5 -140.71)"/>
        <path class="e" d="M699.29,163a2.73,2.73,0,0,1,.1-0.91,2.22,2.22,0,0,1,.27-0.42,0.88,0.88,0,0,0-1.11.61,0.72,0.72,0,1,0-1.24,0,0.89,0.89,0,0,0-1.13-.61,2.36,2.36,0,0,1,.28.42,2.57,2.57,0,0,1,.11.91h2.71Z" transform="translate(-668.5 -140.71)"/>
        <path d="M696.67,163h-0.17a2.54,2.54,0,0,0-.1-0.87,1.75,1.75,0,0,0-.21-0.32l-0.15-.2,0.14,0a1,1,0,0,1,1.12.45,1.85,1.85,0,0,1,.58-0.91l0.05,0,0.05,0a1.87,1.87,0,0,1,.59.91,1,1,0,0,1,1.11-.45l0.14,0-0.14.19a1.74,1.74,0,0,0-.21.33,2.71,2.71,0,0,0-.1.87H699.2a2.84,2.84,0,0,1,.11-0.95,1.77,1.77,0,0,1,.2-0.32,0.76,0.76,0,0,0-.87.57l-0.09.26-0.07-.26a1.87,1.87,0,0,0-.55-1,1.92,1.92,0,0,0-.53,1l-0.07.26-0.09-.26a0.76,0.76,0,0,0-.89-0.57,1.66,1.66,0,0,1,.2.32,2.65,2.65,0,0,1,.12.95h0Z" transform="translate(-668.5 -140.71)"/>
        <rect class="e" x="29.2" y="11.11" width="0.46" height="1.3"/>
        <path d="M698.25,153.21h-0.63v-1.48h0.63v1.48h0Zm-0.46-.17h0.29V151.9h-0.29V153h0Z" transform="translate(-668.5 -140.71)"/>
        <g class="f">
          <path class="e" d="M700.9,167.92a2.49,2.49,0,0,0,1.39,0c1.44-.25,1.43-1.67,3.67-1a1.49,1.49,0,0,0-1.33-.85,1.33,1.33,0,0,0,0-1,1.52,1.52,0,0,1-.62.67,1.06,1.06,0,0,1-.43-0.73c-0.05-.83-0.46-1-0.5-1-0.26,0-1.82,2.46-5.16,2.47a7.09,7.09,0,0,1-5.12-2.47s-0.45.12-.5,1a1.05,1.05,0,0,1-.44.72,1.44,1.44,0,0,1-.62-0.67,1.33,1.33,0,0,0,0,1,1.49,1.49,0,0,0-1.33.85c2.24-.66,2.25.76,3.69,1a2.45,2.45,0,0,0,1.37,0h6Z" transform="translate(-668.5 -140.71)"/>
          <path d="M694.43,168.1a5.12,5.12,0,0,1-.86-0.09,2.7,2.7,0,0,1-1.24-.62,2.21,2.21,0,0,0-2.4-.4l-0.1-.12a1.56,1.56,0,0,1,1.29-.89,1.35,1.35,0,0,1,.05-1h0.15a1.31,1.31,0,0,0,.53.6,1,1,0,0,0,.36-0.62,1.12,1.12,0,0,1,.44-1,0.2,0.2,0,0,1,.18,0,1.05,1.05,0,0,1,.27.24,6.5,6.5,0,0,0,4.78,2.22h0a6.58,6.58,0,0,0,4.73-2.15,0.9,0.9,0,0,1,.43-0.33h0a0.18,0.18,0,0,1,.14,0,1.12,1.12,0,0,1,.44,1,1,1,0,0,0,.35.63,1.38,1.38,0,0,0,.54-0.61h0.15a1.35,1.35,0,0,1,.05,1,1.56,1.56,0,0,1,1.29.89l-0.1.12a2.2,2.2,0,0,0-2.39.39,2.66,2.66,0,0,1-1.24.62,2.44,2.44,0,0,1-1.46,0l0.1-.14a2.56,2.56,0,0,0,1.33,0,2.52,2.52,0,0,0,1.16-.59,2.29,2.29,0,0,1,2.34-.48,1.38,1.38,0,0,0-1.15-.62l-0.08-.11a1.57,1.57,0,0,0,.06-0.76,1.65,1.65,0,0,1-.56.54H704a1.14,1.14,0,0,1-.48-0.79,0.87,0.87,0,0,0-.4-0.87,1.86,1.86,0,0,0-.32.28,6.73,6.73,0,0,1-4.85,2.19h0a6.66,6.66,0,0,1-4.9-2.27,2.07,2.07,0,0,0-.21-0.21,0.9,0.9,0,0,0-.39.88,1.14,1.14,0,0,1-.48.79h-0.09a1.59,1.59,0,0,1-.56-0.54,1.57,1.57,0,0,0,.06.76l-0.08.11a1.38,1.38,0,0,0-1.15.62,2.32,2.32,0,0,1,2.35.48,2.53,2.53,0,0,0,1.17.59,2.43,2.43,0,0,0,1.3,0L695,168a1.13,1.13,0,0,1-.57.1h0Z" transform="translate(-668.5 -140.71)"/>
        </g>
        <g class="g">
          <path class="e" d="M693.95,167.21c-0.78,0-2.3-1.22-2.09-1.46a1.29,1.29,0,0,1,1,.41c0.86,0.59,1.6,2.44,5.06,2.43s4.25-1.84,5.11-2.43a1.22,1.22,0,0,1,1-.39c0.21,0.23-1.32,1.42-2.1,1.45h-8Z" transform="translate(-668.5 -140.71)"/>
          <path d="M697.86,168.67a5.42,5.42,0,0,1-4-1.38,3.71,3.71,0,0,1-2.12-1.37,0.2,0.2,0,0,1,0-.23,1.21,1.21,0,0,1,1.1.4,4.11,4.11,0,0,1,.62.57,5.21,5.21,0,0,0,4.36,1.84h0a5.33,5.33,0,0,0,4.45-1.85,4.31,4.31,0,0,1,.61-0.56,1.73,1.73,0,0,1,1-.43l0.1,0.07a0.19,0.19,0,0,1,0,.2,3.74,3.74,0,0,1-2.13,1.37,5.62,5.62,0,0,1-4,1.37h0Zm6.05-2.85a2,2,0,0,0-.85.41,4.1,4.1,0,0,0-.58.54l-0.3.31a4.19,4.19,0,0,0,1.67-1.1,0.28,0.28,0,0,0,.08-0.16h0Zm-12,0a0.59,0.59,0,0,0,.07.13,4,4,0,0,0,1.68,1.13l-0.29-.3a4.1,4.1,0,0,0-.59-0.55,1.66,1.66,0,0,0-.88-0.42h0Z" transform="translate(-668.5 -140.71)"/>
        </g>
        <path class="e" d="M692.88,155.22c-3.08,3.25-1.43,10.72,5,10.82s8.32-7.47,5.12-10.84H692.88Zm0.62,0.11c-1.64,2.76.06,7.61,4.45,7.61s6-4.88,4.42-7.62Z" transform="translate(-668.5 -140.71)"/>
        <path d="M698,166.13h-0.09a6.34,6.34,0,0,1-6-4,6.67,6.67,0,0,1,1-7l0.13,0.12a6.49,6.49,0,0,0-.93,6.82,6.49,6.49,0,0,0,11.82.09,6.5,6.5,0,0,0-.91-6.92l0.12-.12a6.67,6.67,0,0,1,.95,7.11,6.3,6.3,0,0,1-6,3.87h0Zm0-3.11a4.94,4.94,0,0,1-4.41-2.53,5.34,5.34,0,0,1-.11-5.2l0.15,0.09a5.17,5.17,0,0,0,.12,5,4.77,4.77,0,0,0,4.26,2.45,4.68,4.68,0,0,0,4.23-2.42,5.22,5.22,0,0,0,.11-5.08l0.15-.09a5.39,5.39,0,0,1-.11,5.25A4.84,4.84,0,0,1,698,163h0Z" transform="translate(-668.5 -140.71)"/>
        <path class="h" d="M699.07,167a0.43,0.43,0,0,1,.35.52,0.54,0.54,0,0,1-.56.33c-0.14-.08-0.06-0.2.37-0.25s0-.29-0.18-0.37-0.08-.25,0-0.23h0Z" transform="translate(-668.5 -140.71)"/>
        <path class="e" d="M698.91,167.86h0a0.1,0.1,0,0,1-.07-0.1,0.52,0.52,0,0,1,.43-0.16,0.14,0.14,0,0,0,.11-0.11,0.45,0.45,0,0,0-.3-0.25,0.14,0.14,0,0,1-.07-0.16,0.09,0.09,0,0,1,.08-0.09,0.5,0.5,0,0,1,.34.24,0.35,0.35,0,0,1,0,.29,0.55,0.55,0,0,1-.52.34h0Zm0.16-.86a0.08,0.08,0,0,0-.08.07,0.13,0.13,0,0,0,.06.14,0.46,0.46,0,0,1,.31.27,0.16,0.16,0,0,1-.12.12,0.53,0.53,0,0,0-.42.15,0.09,0.09,0,0,0,.06.08h0a0.53,0.53,0,0,0,.5-0.33,0.33,0.33,0,0,0,0-.28,0.49,0.49,0,0,0-.31-0.23h0Z" transform="translate(-668.5 -140.71)"/>
        <path class="h" d="M698.38,166.92c0.1-.12.19,0.25,0.21,0.5a0.67,0.67,0,0,1-.07.56,2.59,2.59,0,0,1-.07-0.55,0.9,0.9,0,0,1-.07-0.51h0Z" transform="translate(-668.5 -140.71)"/>
        <path class="e" d="M698.52,168s0-.07,0-0.19a1.9,1.9,0,0,0,0-.37,0.86,0.86,0,0,1-.07-0.52h0a0.72,0.72,0,0,0,.05.51,1.79,1.79,0,0,1,0,.38,0.27,0.27,0,0,0,0,.17h0a0.68,0.68,0,0,0,.06-0.56,1.61,1.61,0,0,0-.09-0.42,1.21,1.21,0,0,1,.1.42,0.76,0.76,0,0,1-.07.57h0Z" transform="translate(-668.5 -140.71)"/>
        <path class="h" d="M698.14,167.37c0.26,0.25-.18,1-1.15.67a1.9,1.9,0,0,1,.7-0.05c0.59-.09.34-0.73,0.46-0.61h0Z" transform="translate(-668.5 -140.71)"/>
        <path class="i" d="M697.45,168.13A1.46,1.46,0,0,1,697,168v0a1.15,1.15,0,0,0,.45.09,0.75,0.75,0,0,0,.73-0.41,0.29,0.29,0,0,0,0-.33s0,0,0,.07a0.48,0.48,0,0,1-.42.55l-0.24,0H697.1a0.22,0.22,0,0,0-.11,0,0.11,0.11,0,0,1,.11,0h0.14a2,2,0,0,0,.44,0,0.47,0.47,0,0,0,.41-0.53c0-.06,0-0.09,0-0.09a0.29,0.29,0,0,1,.07.36,0.76,0.76,0,0,1-.75.42h0Z" transform="translate(-668.5 -140.71)"/>
        <path class="h" d="M697.67,166.87c0.1-.12,0,0.26.06,0.51s0,0.53-.12.49,0-.3,0-0.55a0.38,0.38,0,0,1,.08-0.45h0Z" transform="translate(-668.5 -140.71)"/>
        <path class="e" d="M697.63,167.88h0a0.2,0.2,0,0,1,0-.17,1.12,1.12,0,0,0,0-.38,0.39,0.39,0,0,1,.07-0.45h0a0.37,0.37,0,0,0-.09.45,1.15,1.15,0,0,1,0,.38,0.22,0.22,0,0,0,0,.16h0l0,0a0.81,0.81,0,0,0,.05-0.47c0-.09,0-0.19,0-0.28a1.57,1.57,0,0,0,0-.2,0.49,0.49,0,0,1,0,.2,2.58,2.58,0,0,0,0,.27,0.81,0.81,0,0,1-.06.48l0,0h0Z" transform="translate(-668.5 -140.71)"/>
        <path class="h" d="M697,166.77c0.19,0,.13,0,0.12.54s-0.48.62-.59,0.46-0.06-.16-0.48-0.11a0.41,0.41,0,0,0-.39-0.12,1,1,0,0,1-.22-0.23,2.78,2.78,0,0,1-.8-0.16,0.38,0.38,0,0,1-.19-0.38c0-.3-0.24,0-0.55-0.1a1.52,1.52,0,0,1-.39-0.24c-0.22-.19,0-0.23.31,0s0.46-.15.47-0.42-0.13-.36.1-0.36a0.62,0.62,0,0,1-.12.72c-0.28.3-.09,0.25,0,0.23a5.88,5.88,0,0,1,.66-0.57,3.34,3.34,0,0,0-.26.82,0.76,0.76,0,0,0,.59.34,1,1,0,0,0,.4-0.27c0.16,0.1-.3.3,0.18,0.45a0.77,0.77,0,0,0,.23-0.23c0.15,0-.1.32,0.18,0.37a0.73,0.73,0,0,0,.26-0.26c0.14,0,0,.49.39,0.44,0.16,0-.09-0.9.1-0.9h0Z" transform="translate(-668.5 -140.71)"/>
        <path class="e" d="M696.7,167.86a0.21,0.21,0,0,1-.18-0.08c-0.11-.14-0.11-0.14-0.47-0.11l-0.07,0a0.35,0.35,0,0,0-.33-0.08c-0.05,0-.07,0-0.09-0.08a0.41,0.41,0,0,0-.13-0.15,0.38,0.38,0,0,0-.26,0,0.63,0.63,0,0,1-.54-0.12,0.38,0.38,0,0,1-.19-0.39,0.15,0.15,0,0,0,0-.11,0.26,0.26,0,0,0-.14,0,0.59,0.59,0,0,1-.38,0,1.56,1.56,0,0,1-.4-0.24,0.17,0.17,0,0,1-.09-0.14s0.15-.07.41,0.1,0.45-.16.46-0.42a0.93,0.93,0,0,0,0-.24,0.13,0.13,0,0,1,0-.1,0.13,0.13,0,0,1,.1,0,0.08,0.08,0,0,1,.08.05,0.81,0.81,0,0,1-.17.68,0.69,0.69,0,0,0-.14.19,0.37,0.37,0,0,1,.13-0.2,0.8,0.8,0,0,0,.17-0.67l0-.05h0a0.12,0.12,0,0,0-.09,0,0.13,0.13,0,0,0,0,.09,0.86,0.86,0,0,1,0,.24c0,0.27-.29.55-0.48,0.43a0.68,0.68,0,0,0-.33-0.13c-0.06,0-.07.07,0,0.15a1.51,1.51,0,0,0,.38.23,0.54,0.54,0,0,0,.38,0l0.11,0a0.12,0.12,0,0,1,.06.14,0.37,0.37,0,0,0,.18.37,0.62,0.62,0,0,0,.53.12,0.39,0.39,0,0,1,.27,0,0.42,0.42,0,0,1,.14.16,0.1,0.1,0,0,0,.07.07h0.1a0.31,0.31,0,0,1,.25.08l0.06,0c0.36,0,.39,0,0.45.08a0.23,0.23,0,0,0,.2.11,0.47,0.47,0,0,0,.41-0.53v-0.25a0.46,0.46,0,0,0,0-.26,0.13,0.13,0,0,0-.1,0,0.6,0.6,0,0,0-.06.46,0.48,0.48,0,0,1,0,.44,0.32,0.32,0,0,1-.31-0.3,0.16,0.16,0,0,0-.07-0.14,0.11,0.11,0,0,0-.09.1,0.17,0.17,0,0,1-.15.16,0.17,0.17,0,0,1-.16-0.24c0-.08,0-0.12,0-0.13h0a0.16,0.16,0,0,0-.08.09,0.23,0.23,0,0,1-.14.14,0.35,0.35,0,0,1-.25-0.14,0.19,0.19,0,0,1,0-.16c0-.07.06-0.11,0-0.14a0.11,0.11,0,0,0-.1.08,0.29,0.29,0,0,1-.25.19,0.8,0.8,0,0,1-.64-0.35,0.74,0.74,0,0,1,.18-0.59c0.07-.11.13-0.19,0.08-0.23h0a1.18,1.18,0,0,0-.36.31,1.39,1.39,0,0,1-.29.26h-0.11l0,0a0.21,0.21,0,0,0,.1,0,1,1,0,0,0,.31-0.26,1.24,1.24,0,0,1,.37-0.31c0.07,0,0,.13-0.06.25a0.73,0.73,0,0,0-.18.58,0.76,0.76,0,0,0,.58.33,0.27,0.27,0,0,0,.28-0.18,0.14,0.14,0,0,1,.09-0.1c0.1,0.05.06,0.11,0,.17a0.18,0.18,0,0,0,0,.15,0.32,0.32,0,0,0,.22.13,0.2,0.2,0,0,0,.14-0.13,0.16,0.16,0,0,1,.09-0.1c0.08,0,.07.08,0.06,0.15s0,0.19.12,0.22h0a0.16,0.16,0,0,0,.15-0.14,0.13,0.13,0,0,1,.09-0.11c0.07,0,.08.07,0.1,0.16a0.27,0.27,0,0,0,.25.29c0.12,0,.1-0.22.09-0.42a0.85,0.85,0,0,1,0-.46,0.17,0.17,0,0,1,.16,0,0.45,0.45,0,0,1,0,.28v0.25a0.48,0.48,0,0,1-.43.54h0Z" transform="translate(-668.5 -140.71)"/>
        <path class="h" d="M693.55,166.12a0.38,0.38,0,0,0,.31-0.29c0-.18-0.24-0.24-0.54-0.2a0.89,0.89,0,0,1-.58-0.21c-0.16-.2-0.16-0.42-0.35-0.32s0.2,0.42.36,0.51a0.82,0.82,0,0,1,.45.21c0,0.13-.06.32,0.35,0.31h0Z" transform="translate(-668.5 -140.71)"/>
        <path class="e" d="M693.51,166.13c-0.3,0-.31-0.14-0.31-0.25a0.23,0.23,0,0,0-.23-0.19,1,1,0,0,1-.21-0.07,0.9,0.9,0,0,1-.4-0.47l0,0a0.7,0.7,0,0,0,.36.5,1,1,0,0,0,.21.07,0.27,0.27,0,0,1,.24.14c0,0.18,0,.3.29,0.3h0a0.37,0.37,0,0,0,.3-0.28,0.14,0.14,0,0,0,0-.11,0.59,0.59,0,0,0-.49-0.08,0.85,0.85,0,0,1-.59-0.21,1,1,0,0,1-.12-0.19c-0.06-.12-0.11-0.19-0.22-0.13a0.11,0.11,0,0,1,.07,0,0.22,0.22,0,0,1,.16.16,1.07,1.07,0,0,0,.11.19,1,1,0,0,0,.53.21l0.23,0a0.44,0.44,0,0,1,.32.1,0.16,0.16,0,0,1,0,.12,0.38,0.38,0,0,1-.31.3h0Z" transform="translate(-668.5 -140.71)"/>
        <path class="h" d="M700.24,167c-0.06,0-.11.58,0.23,0.59a1.06,1.06,0,0,0,.76-0.28c0.18-.14.5-0.41,0.35-0.64s-0.12.16-.2,0.3a1,1,0,0,1-.83.42c-0.38,0-.23-0.41-0.31-0.39h0Z" transform="translate(-668.5 -140.71)"/>
        <path class="e" d="M700.52,167.56h0a0.29,0.29,0,0,1-.27-0.26,0.45,0.45,0,0,1,0-.34s0,0,0,.08a0.27,0.27,0,0,0,.27.3,1,1,0,0,0,.82-0.42,1.44,1.44,0,0,0,.08-0.16,0.22,0.22,0,0,1,.1-0.16l0,0a0.16,0.16,0,0,0-.11.14,1.48,1.48,0,0,1-.08.16,1,1,0,0,1-.78.43,0.31,0.31,0,0,1-.35-0.32,0.09,0.09,0,0,0,0-.07,0.46,0.46,0,0,0,0,.32,0.28,0.28,0,0,0,.26.25h0a1,1,0,0,0,.66-0.25,0.84,0.84,0,0,0,.43-0.55,0.71,0.71,0,0,1-.38.53,1.08,1.08,0,0,1-.72.28h0Z" transform="translate(-668.5 -140.71)"/>
        <path class="h" d="M701.13,166.71a0.61,0.61,0,0,1,.22-0.28,0.59,0.59,0,0,1,0-.31c0.09-.15.1,0.28,0.21,0.29,0.32,0,.09.24,0,0.2a3.77,3.77,0,0,0-.37.1h0Z" transform="translate(-668.5 -140.71)"/>
        <path class="e" d="M701.15,166.72h0v0l0,0a0.27,0.27,0,0,0,.11,0,0.47,0.47,0,0,1,.2-0.07h0.07a0.16,0.16,0,0,0,.15-0.11s-0.05-.07-0.15-0.08a0.25,0.25,0,0,1-.12-0.2,0.66,0.66,0,0,0,0-.11,0.18,0.18,0,0,1,.05.11,0.26,0.26,0,0,0,.1.19c0.15,0,.17.07,0.17,0.1a0.17,0.17,0,0,1-.16.12h-0.07a0.43,0.43,0,0,0-.19.07,0.29,0.29,0,0,1-.11,0h0Zm0-.05a0.19,0.19,0,0,1,.1-0.11,0.36,0.36,0,0,0,.13-0.13,0.18,0.18,0,0,0,0-.13,0.16,0.16,0,0,1,0-.19h0a0.15,0.15,0,0,0,0,.19,0.18,0.18,0,0,1,0,.14,0.36,0.36,0,0,1-.13.14,0.29,0.29,0,0,0-.1.1h0Z" transform="translate(-668.5 -140.71)"/>
        <path class="h" d="M700.88,166.06c0,0.14.07,0.18,0.09,0.1s-0.05-.22-0.09-0.1h0Z" transform="translate(-668.5 -140.71)"/>
        <path class="a" d="M700.88,166.06c0,0.14.07,0.18,0.09,0.1S700.92,165.93,700.88,166.06Z" transform="translate(-668.5 -140.71)"/>
        <path class="h" d="M701.12,165.91c-0.05,0-.06.18,0,0.19a1.28,1.28,0,0,1,.1.13c0.07,0,.08-0.2,0-0.2a0.35,0.35,0,0,1-.1-0.11h0Z" transform="translate(-668.5 -140.71)"/>
        <path class="e" d="M701.22,166.23h0l0-.06a0.06,0.06,0,0,0,0-.06,0.09,0.09,0,0,1-.06-0.1,0.09,0.09,0,0,1,0-.1,0.17,0.17,0,0,0,.11.11,0.09,0.09,0,0,1,.07.11,0.1,0.1,0,0,1-.06.11h0Zm-0.11-.29s0,0,0,.06a0.08,0.08,0,0,0,0,.09,0.08,0.08,0,0,1,.06.07l0,0.06h0a0.09,0.09,0,0,0,.05-0.1,0.08,0.08,0,0,0-.05-0.09,0.08,0.08,0,0,1-.07-0.07h0Z" transform="translate(-668.5 -140.71)"/>
        <path class="h" d="M701.69,165.88c-0.06.08-.18-0.29,0.21-0.35a0.57,0.57,0,0,1,.32.61,1.56,1.56,0,0,1-.07.47,0.89,0.89,0,0,1-.31.46c-0.09,0,0-.19.17-0.41a1.22,1.22,0,0,0,.1-0.76,0.83,0.83,0,0,0-.24.28c-0.1.05-.21-0.1-0.23-0.18s0.07-.14.13,0,0.18-.08.18-0.19-0.12,0-.25.1h0Z" transform="translate(-668.5 -140.71)"/>
        <path class="e" d="M701.85,167.08h0v0l0,0a1,1,0,0,0,.29-0.45,1.26,1.26,0,0,0,.07-0.42,0.59,0.59,0,0,0-.31-0.65,0.26,0.26,0,0,0-.27.26,0.09,0.09,0,0,0,0,.08,0.66,0.66,0,0,1,.23-0.2,0.09,0.09,0,0,1,0,.09,0.27,0.27,0,0,1-.08.18,0.11,0.11,0,0,1-.07,0,0.19,0.19,0,0,0-.1-0.08,0.09,0.09,0,0,0,0,.09,0.25,0.25,0,0,0,.18.18A0.37,0.37,0,0,0,702,166a0.18,0.18,0,0,1,.09-0.11l0,0h0s-0.06,0-.09.09a0.45,0.45,0,0,1-.14.19,0.25,0.25,0,0,1-.24-0.18,0.11,0.11,0,0,1,0-.09,0.08,0.08,0,0,1,.12,0l0.09,0a0.27,0.27,0,0,0,.07-0.17,0.1,0.1,0,0,0,0-.07,0.33,0.33,0,0,0-.19.15l-0.06,0a0.09,0.09,0,0,1-.05-0.1,0.27,0.27,0,0,1,.28-0.28,0.57,0.57,0,0,1,.33.62,1.43,1.43,0,0,1-.07.47,1.11,1.11,0,0,1-.31.46h0Zm0-.09a0.91,0.91,0,0,1,.16-0.3,1.34,1.34,0,0,0,.13-0.73,1.2,1.2,0,0,1-.11.72,1.77,1.77,0,0,0-.19.32h0Z" transform="translate(-668.5 -140.71)"/>
        <path class="h" d="M702.52,165c0,0.07-.22.23-0.25,0.29a0.33,0.33,0,0,0,0,.29,0.82,0.82,0,0,1,.15.44,1.21,1.21,0,0,0-.07.45,0.83,0.83,0,0,0,.17-0.59c0-.24-0.15-0.38-0.12-0.46s0.16-.23.18-0.33a0.74,0.74,0,0,0-.05-0.4s-0.17,0-.13.12,0.13,0,.11.19h0Z" transform="translate(-668.5 -140.71)"/>
        <path class="e" d="M702.36,166.53h0a0.56,0.56,0,0,1,0-.25c0-.08,0-0.15,0-0.21a0.67,0.67,0,0,0-.12-0.38,0.4,0.4,0,0,1,0-.35,1.15,1.15,0,0,1,.14-0.17l0.11-.12c0-.09,0-0.1,0-0.12a0.14,0.14,0,0,1-.06-0.06,0.07,0.07,0,0,1,0-.08,0.14,0.14,0,0,1,.11-0.06,0.55,0.55,0,0,1,.08.41,0.71,0.71,0,0,1-.1.19,0.66,0.66,0,0,0-.08.15,0.29,0.29,0,0,0,0,.15,1.22,1.22,0,0,1,.09.3,0.83,0.83,0,0,1-.18.6h0Zm0.17-1.79a0.12,0.12,0,0,0-.1,0,0.13,0.13,0,0,0,.06.12s0.07,0,.05.14l-0.11.13a1.06,1.06,0,0,0-.14.17,0.33,0.33,0,0,0,0,.28,0.82,0.82,0,0,1,.15.44c0,0.06,0,.13,0,0.21a0.73,0.73,0,0,0,0,.24h0a0.83,0.83,0,0,0,.17-0.58,1.12,1.12,0,0,0-.09-0.3,0.3,0.3,0,0,1,0-.16,0.66,0.66,0,0,1,.08-0.15,0.77,0.77,0,0,0,.1-0.18,0.74,0.74,0,0,0-.05-0.39h0Z" transform="translate(-668.5 -140.71)"/>
        <path class="h" d="M702.74,165.18c-0.06.06,0,.36,0.05,0.25s0-.3-0.05-0.25h0Z" transform="translate(-668.5 -140.71)"/>
        <path class="a" d="M702.74,165.18c-0.06.06,0,.36,0.05,0.25S702.79,165.13,702.74,165.18Z" transform="translate(-668.5 -140.71)"/>
        <path class="h" d="M701.15,167.41c0,0.13.1,0.17,0.14,0.1s-0.09-.22-0.14-0.1h0Z" transform="translate(-668.5 -140.71)"/>
        <path class="a" d="M701.15,167.41c0,0.13.1,0.17,0.14,0.1S701.2,167.29,701.15,167.41Z" transform="translate(-668.5 -140.71)"/>
        <path class="h" d="M701.35,167.3c0,0.11.15,0.12,0.2,0.06s-0.12-.15-0.2-0.06h0Z" transform="translate(-668.5 -140.71)"/>
        <path class="e" d="M701.45,167.4a0.11,0.11,0,0,1-.1,0l0,0a0.1,0.1,0,0,0,.18,0c0-.16-0.12-0.1-0.17-0.06a0.11,0.11,0,0,1,.19,0,0.08,0.08,0,0,1,0,.08,0.15,0.15,0,0,1-.11,0h0Z" transform="translate(-668.5 -140.71)"/>
        <path class="e" d="M693.53,165.74c-0.1,0-.1.16,0,0.21s0.32-.09,0-0.21h0Z" transform="translate(-668.5 -140.71)"/>
        <path class="e" d="M693.52,166h0l0,0a0.22,0.22,0,0,1,0-.19l0.08,0c0.12,0.05.13,0.11,0.12,0.14a0.15,0.15,0,0,1-.14.1h0Zm0-.22a0.15,0.15,0,0,0,0,.2h0a0.14,0.14,0,0,0,.13-0.08,0.14,0.14,0,0,0-.12-0.13h0Z" transform="translate(-668.5 -140.71)"/>
        <path class="e" d="M698,154.63c-1,.2-1.71.79-1.38,1a1.74,1.74,0,0,0,1.33-.54,1.72,1.72,0,0,0,1.57.63Z" transform="translate(-668.5 -140.71)"/>
        <path d="M699.29,155.84a2,2,0,0,1-1.37-.61,2.3,2.3,0,0,1-1,.49,0.52,0.52,0,0,1-.38,0,0.23,0.23,0,0,1-.12-0.25,2,2,0,0,1,1.53-.9,0.09,0.09,0,0,1,0,.17,2,2,0,0,0-1.39.76,0.07,0.07,0,0,0,0,.08,0.42,0.42,0,0,0,.25,0,1.93,1.93,0,0,0,1-.51l0.07-.11L698,155a1.68,1.68,0,0,0,1.46.6,0.08,0.08,0,0,1,.12,0,0.09,0.09,0,0,1,0,.12,0.56,0.56,0,0,1-.24,0h0Z" transform="translate(-668.5 -140.71)"/>
        <path class="e" d="M692.73,154.31a3,3,0,0,0,1.66.93,13,13,0,0,0,2.32.21,3.88,3.88,0,0,1,1.25-.56,6.63,6.63,0,0,0,1.78.72,17.28,17.28,0,0,0,3.28-.95,1.08,1.08,0,0,0-1-.55c-0.41,0-9.33.21-9.33,0.2h0Z" transform="translate(-668.5 -140.71)"/>
        <path class="e" d="M695.16,155.57c0,0.16.13,0.27,0.41,0.27a2.55,2.55,0,0,0,1.79-.77Z" transform="translate(-668.5 -140.71)"/>
        <path d="M695.6,155.93h0c-0.44,0-.49-0.25-0.5-0.35a0.09,0.09,0,0,1,.08-0.09,0.07,0.07,0,0,1,.09.08c0,0.12.12,0.19,0.33,0.19a2.52,2.52,0,0,0,1.72-.74,0.09,0.09,0,0,1,.12,0,0.09,0.09,0,0,1,0,.12,2.63,2.63,0,0,1-1.82.8h0Z" transform="translate(-668.5 -140.71)"/>
        <path class="e" d="M693.71,155.34c0,0.13.19,0.3,0.61,0.31a4.41,4.41,0,0,0,2.37-.67Z" transform="translate(-668.5 -140.71)"/>
        <path d="M694.34,155.73h0a0.85,0.85,0,0,1-.64-0.22,0.23,0.23,0,0,1-.06-0.19,0.09,0.09,0,1,1,.17,0,0.07,0.07,0,0,0,0,0,0.69,0.69,0,0,0,.51.16,4.5,4.5,0,0,0,2.3-.64,0.09,0.09,0,1,1,.12.12,4.47,4.47,0,0,1-2.42.7h0Z" transform="translate(-668.5 -140.71)"/>
        <path class="e" d="M692.71,154.94c-0.23.29,0.49,0.4,0.93,0.39a4.21,4.21,0,0,0,2-.38h-3Z" transform="translate(-668.5 -140.71)"/>
        <path d="M693.64,155.42a1.5,1.5,0,0,1-1-.28,0.22,0.22,0,0,1,0-.25,0.09,0.09,0,1,1,.13.1,0.06,0.06,0,0,0,0,.06,1.47,1.47,0,0,0,.88.19,4.17,4.17,0,0,0,2-.37,0.09,0.09,0,0,1,.12,0,0.09,0.09,0,0,1,0,.12,4.17,4.17,0,0,1-2.08.4h0Z" transform="translate(-668.5 -140.71)"/>
        <path class="e" d="M691.92,154.45c-0.21.29,0.51,0.54,1.39,0.52a6.37,6.37,0,0,0,1.64-.3Z" transform="translate(-668.5 -140.71)"/>
        <path d="M693.22,155.06a1.84,1.84,0,0,1-1.4-.4,0.24,0.24,0,0,1,0-.26,0.09,0.09,0,1,1,.14.1,0.07,0.07,0,0,0,0,.08,1.92,1.92,0,0,0,1.34.3,6.34,6.34,0,0,0,1.62-.3,0.09,0.09,0,0,1,.05.16,6.38,6.38,0,0,1-1.67.31h-0.09Z" transform="translate(-668.5 -140.71)"/>
        <path class="e" d="M700.68,155.57c0,0.16-.12.27-0.41,0.27a2.54,2.54,0,0,1-1.79-.77Z" transform="translate(-668.5 -140.71)"/>
        <path d="M700.24,155.93a2.63,2.63,0,0,1-1.82-.8,0.08,0.08,0,0,1,0-.12,0.09,0.09,0,0,1,.12,0,2.53,2.53,0,0,0,1.72.74c0.21,0,.32-0.07.33-0.19a0.08,0.08,0,0,1,.09-0.08,0.08,0.08,0,0,1,.08.09c0,0.11-.06.35-0.5,0.35h0Z" transform="translate(-668.5 -140.71)"/>
        <path class="e" d="M702.13,155.34c0,0.13-.19.3-0.61,0.31a4.41,4.41,0,0,1-2.37-.67Z" transform="translate(-668.5 -140.71)"/>
        <path d="M701.5,155.73a4.47,4.47,0,0,1-2.42-.7,0.09,0.09,0,0,1,0-.12,0.09,0.09,0,0,1,.12,0,4.3,4.3,0,0,0,2.3.64,0.7,0.7,0,0,0,.51-0.16,0.12,0.12,0,0,1,.08-0.12,0.09,0.09,0,0,1,.11,0,0.23,0.23,0,0,1-.06.19,0.86,0.86,0,0,1-.64.22h0Z" transform="translate(-668.5 -140.71)"/>
        <path class="e" d="M703.12,154.95c0.23,0.29-.49.39-0.92,0.38a4.21,4.21,0,0,1-2-.38h3Z" transform="translate(-668.5 -140.71)"/>
        <path d="M702.22,155.42h0a4.21,4.21,0,0,1-2.1-.4,0.08,0.08,0,0,1,0-.12,0.09,0.09,0,0,1,.12,0,4.13,4.13,0,0,0,2,.37,1.35,1.35,0,0,0,.89-0.18,0.13,0.13,0,0,1,0-.15s0.08-.05.11,0a0.22,0.22,0,0,1,0,.25,1.43,1.43,0,0,1-1,.28h0Z" transform="translate(-668.5 -140.71)"/>
        <path class="e" d="M703.92,154.45c0.21,0.29-.51.54-1.4,0.52a6.35,6.35,0,0,1-1.64-.3Z" transform="translate(-668.5 -140.71)"/>
        <path d="M702.61,155.06h-0.09a6.33,6.33,0,0,1-1.67-.31,0.09,0.09,0,0,1-.05-0.11,0.09,0.09,0,0,1,.11-0.05,6.31,6.31,0,0,0,1.62.3,1.94,1.94,0,0,0,1.34-.31,0.06,0.06,0,0,0,0-.08,0.09,0.09,0,0,1,0-.12,0.09,0.09,0,0,1,.12,0,0.24,0.24,0,0,1,0,.26,1.84,1.84,0,0,1-1.4.4h0Z" transform="translate(-668.5 -140.71)"/>
        <path class="e" d="M693.66,154.42a3.64,3.64,0,0,1-1.87,0c-0.28-.12-0.76-0.5-0.05-0.51,0.47,0,.71,0,1.24,0,1.37,0,3.34-1.1,3.94-1.1a5.29,5.29,0,0,1,1,.26,5.62,5.62,0,0,1,1-.26c0.6,0,2.57,1.08,3.94,1.1,0.53,0,.77,0,1.24,0,0.71,0,.23.39-0.05,0.51a3.64,3.64,0,0,1-1.87,0h-8.52Z" transform="translate(-668.5 -140.71)"/>
        <path d="M703.26,154.6a7.83,7.83,0,0,1-1.1-.09,0.09,0.09,0,0,1-.07-0.1,0.08,0.08,0,0,1,.1-0.07,3.52,3.52,0,0,0,1.82,0,0.7,0.7,0,0,0,.37-0.29h0a0.42,0.42,0,0,0-.29-0.05h-1.24a8.94,8.94,0,0,1-2.71-.72,5.24,5.24,0,0,0-1.22-.38,1.32,1.32,0,0,0-.59.15,0.77,0.77,0,0,1-.39.11,0.93,0.93,0,0,1-.39-0.11,1.32,1.32,0,0,0-.63-0.15,5.29,5.29,0,0,0-1.22.38A8.91,8.91,0,0,1,693,154h-1.24a0.41,0.41,0,0,0-.29.06,0.72,0.72,0,0,0,.37.29,3.5,3.5,0,0,0,1.82,0,0.08,0.08,0,0,1,.1.07,0.09,0.09,0,0,1-.07.1,3.67,3.67,0,0,1-1.92,0,0.69,0.69,0,0,1-.47-0.48,0.42,0.42,0,0,1,.45-0.19c0.24,0,.43,0,0.62,0H693a8.89,8.89,0,0,0,2.66-.71,5,5,0,0,1,1.28-.39,1.64,1.64,0,0,1,.7.16,0.79,0.79,0,0,0,.32.1,1.31,1.31,0,0,0,.31-0.09,1.44,1.44,0,0,1,.67-0.16,5,5,0,0,1,1.28.39,8.85,8.85,0,0,0,2.66.71h0.62c0.19,0,.38,0,0.62,0a0.42,0.42,0,0,1,.45.19,0.68,0.68,0,0,1-.47.48,1.92,1.92,0,0,1-.81.13h0Z" transform="translate(-668.5 -140.71)"/>
        <path class="e" d="M697.91,150.39c-0.53,0-1.26-.06-1.49.53a1.43,1.43,0,0,0-.1,1.46c0.29,0,.31-0.76.44-0.77s0.13,0.69.38,0.69a1.89,1.89,0,0,0,.36-0.69,1.37,1.37,0,0,0,.42.66,1.25,1.25,0,0,0,.42-0.66,1.9,1.9,0,0,0,.36.69c0.25,0,.25-0.69.38-0.69s0.18,0.79.46,0.76a1.44,1.44,0,0,0-.12-1.45c-0.23-.59-1-0.5-1.5-0.53h0Z" transform="translate(-668.5 -140.71)"/>
        <path d="M696.35,152.46h0a0.18,0.18,0,0,1-.14-0.11,1.89,1.89,0,0,1,.17-1.47,1.25,1.25,0,0,1,1.32-.56h0.49a1.26,1.26,0,0,1,1.33.57,1.89,1.89,0,0,1,.18,1.46,0.18,0.18,0,0,1-.14.11h0a0.61,0.61,0,0,1-.42-0.55c0-.06,0-0.13-0.06-0.18a0.86,0.86,0,0,1-.36.66,0.67,0.67,0,0,1-.36-0.55v0a0.65,0.65,0,0,1-.42.54,0.67,0.67,0,0,1-.41-0.54v0a0.67,0.67,0,0,1-.35.55,0.51,0.51,0,0,1-.34-0.49s0-.11,0-0.16a0.69,0.69,0,0,1,0,.17,0.61,0.61,0,0,1-.38.56h0Zm1.56-2h-0.24a1.1,1.1,0,0,0-1.17.46,1.61,1.61,0,0,0-.15,1.34h0a0.67,0.67,0,0,0,.21-0.43c0.05-.2.09-0.33,0.2-0.33s0.16,0.14.21,0.32a0.56,0.56,0,0,0,.17.36,1.17,1.17,0,0,0,.2-0.43c0.06-.19.08-0.26,0.17-0.26s0.11,0.07.16,0.23a0.78,0.78,0,0,0,.25.44,0.73,0.73,0,0,0,.26-0.44c0.05-.15.07-0.21,0.15-0.22s0.12,0.08.18,0.27a1.13,1.13,0,0,0,.2.42,0.57,0.57,0,0,0,.17-0.36c0-.18.08-0.32,0.2-0.32s0.15,0.13.21,0.33a0.68,0.68,0,0,0,.23.43,1.68,1.68,0,0,0-.18-1.33,1.12,1.12,0,0,0-1.18-.47h-0.25Z" transform="translate(-668.5 -140.71)"/>
        <path class="e" d="M696.64,150.63a3.73,3.73,0,0,0,2.57,0h-2.57Z" transform="translate(-668.5 -140.71)"/>
        <path d="M698,150.95h0a2.24,2.24,0,0,1-1.38-.28l0.15-.09a2.34,2.34,0,0,0,1.22.19h0a2.23,2.23,0,0,0,1.17-.2l0.12,0.12a2.33,2.33,0,0,1-1.28.25h0Z" transform="translate(-668.5 -140.71)"/>
        <path class="e" d="M697.71,148.14v2.35a0.18,0.18,0,0,0,.21.13,0.18,0.18,0,0,0,.22-0.13v-2.37h-0.42Z" transform="translate(-668.5 -140.71)"/>
        <path d="M697.93,150.71h0a0.26,0.26,0,0,1-.29-0.21v-2.36h0.17v2.35h0a0.13,0.13,0,0,0,.12,0c0.13,0,.14,0,0.14-0.05v-2.36h0.17v2.37a0.2,0.2,0,0,1-.06.13,0.33,0.33,0,0,1-.24.08h0Z" transform="translate(-668.5 -140.71)"/>
        <path class="e" d="M697.94,148.41a1.91,1.91,0,0,1,1.4.59,1.16,1.16,0,0,0,.71.14c0.34,0-.59.57-0.59,0.59l0.34,0.61a2.32,2.32,0,0,1-1.16-.41,1.35,1.35,0,0,0-.68-0.09v-1.43Z" transform="translate(-668.5 -140.71)"/>
        <path d="M699.73,150.44a2.65,2.65,0,0,1-1.14-.43,0.91,0.91,0,0,0-.49-0.08h-0.16l-0.07-.08,0-1.51h0.2a1.58,1.58,0,0,1,1.14.46,1,1,0,0,0,.19.14,1.07,1.07,0,0,0,.66.13h0a0.14,0.14,0,0,1,.16.08c0,0.11-.08.22-0.56,0.57l-0.07.05,0.37,0.66-0.21,0h0Zm-1.49-.68a0.83,0.83,0,0,1,.44.11,2.71,2.71,0,0,0,1,.4l-0.27-.49c0-.09,0-0.1.16-0.21s0.32-.23.43-0.33a1.12,1.12,0,0,1-.67-0.15,1,1,0,0,1-.23-0.17,1.41,1.41,0,0,0-1-.41h0v1.26h0.2Z" transform="translate(-668.5 -140.71)"/>
        <path class="e" d="M698.43,147.7a0.51,0.51,0,1,1-.51-0.49,0.5,0.5,0,0,1,.51.49h0Z" transform="translate(-668.5 -140.71)"/>
        <path d="M697.92,148.24a0.55,0.55,0,1,1,.57-0.55,0.56,0.56,0,0,1-.57.55h0Zm0-1a0.43,0.43,0,1,0,.46.43,0.44,0.44,0,0,0-.46-0.43h0Z" transform="translate(-668.5 -140.71)"/>
        <path class="h" d="M692.45,159.38c-0.07.09-.12-0.15-0.36,0a0.77,0.77,0,0,0-.18.64,0.44,0.44,0,0,0,.28.49c0.16,0,.07-0.39.24-0.46a0.51,0.51,0,0,1,.65.28,0.34,0.34,0,0,1-.3.44c-0.11,0,.06-0.2.07-0.26a0.31,0.31,0,0,0-.13-0.35c-0.16-.06-0.13.16-0.14,0.22a0.33,0.33,0,0,1-.25.24,0.68,0.68,0,0,1-.53-0.22,0.83,0.83,0,0,1-.12-0.79,0.46,0.46,0,0,1,.42-0.42c0.11,0,.38.06,0.36,0.17h0Z" transform="translate(-668.5 -140.71)"/>
        <path class="e" d="M692.8,160.81h0a0.15,0.15,0,0,1,0-.2,0.29,0.29,0,0,0,0-.08,0.3,0.3,0,0,0-.12-0.34c-0.11,0-.12.08-0.12,0.17a0.35,0.35,0,0,1-.26.3,0.7,0.7,0,0,1-.55-0.23,0.85,0.85,0,0,1-.12-0.8,0.48,0.48,0,0,1,.43-0.43,0.46,0.46,0,0,1,.35.12h0v0.07h-0.1a0.21,0.21,0,0,0-.26,0,0.75,0.75,0,0,0-.18.63,0.46,0.46,0,0,0,.25.47,0.2,0.2,0,0,0,.12-0.2,0.32,0.32,0,0,1,.13-0.26,0.54,0.54,0,0,1,.67.29,0.39,0.39,0,0,1-.07.34,0.28,0.28,0,0,1-.22.12h0Zm-0.13-.65a0.32,0.32,0,0,1,.19.38,0.31,0.31,0,0,1,0,.09,0.22,0.22,0,0,0-.06.13l0.05,0a0.26,0.26,0,0,0,.2-0.11,0.37,0.37,0,0,0,.06-0.31,0.5,0.5,0,0,0-.63-0.28,0.29,0.29,0,0,0-.12.24,0.22,0.22,0,0,1-.13.22h0a0.46,0.46,0,0,1-.29-0.5,0.77,0.77,0,0,1,.19-0.65,0.23,0.23,0,0,1,.29,0c0-.1-0.17-0.14-0.26-0.14a0.45,0.45,0,0,0-.42.41,0.82,0.82,0,0,0,.12.78,0.65,0.65,0,0,0,.5.22h0a0.32,0.32,0,0,0,.26-0.23c0-.11,0-0.25.11-0.25h0Z" transform="translate(-668.5 -140.71)"/>
        <path class="h" d="M692.17,161c-0.11-.06,0-0.28-0.25-0.2-0.12,0,.17.37,0.3,0.38s0.1-.11-0.05-0.18h0Z" transform="translate(-668.5 -140.71)"/>
        <path class="e" d="M692.22,161.15h0a0.61,0.61,0,0,1-.34-0.35,0.21,0.21,0,0,1,.14-0.07,0.1,0.1,0,0,1,.11.12,0.11,0.11,0,0,0,0,.1,0.2,0.2,0,0,1,.15.15,0.09,0.09,0,0,1-.1.06h0Zm-0.2-.4-0.1,0a0.5,0.5,0,0,0,.3.36,0.08,0.08,0,0,0,.07,0,0.19,0.19,0,0,0-.13-0.12,0.14,0.14,0,0,1-.06-0.12c0-.06,0-0.1-0.08-0.1h0Z" transform="translate(-668.5 -140.71)"/>
        <path class="h" d="M692.48,161.14c0.06,0.28.12,0.25,0.13,0.39s-0.3.1-.34,0.18-0.09.29,0.1,0.3a0.7,0.7,0,0,1,.53.07,0.45,0.45,0,0,0,.63.27c0.17-.07.57-0.43,0.67-0.46s-0.13-.15-0.28,0a1.46,1.46,0,0,1-.55.39,0.54,0.54,0,0,1-.32-0.42,0.82,0.82,0,0,0,.35-0.18c0-.12,0-0.25-0.06-0.26a1.62,1.62,0,0,1-.55,0,1.1,1.1,0,0,1,0-.33c-0.07,0-.32-0.07-0.32.07h0Z" transform="translate(-668.5 -140.71)"/>
        <path class="e" d="M693.32,162.41a0.44,0.44,0,0,1-.42-0.32,0.35,0.35,0,0,0-.33-0.07h-0.13a0.2,0.2,0,0,1-.19-0.07,0.31,0.31,0,0,1,0-.25,0.18,0.18,0,0,1,.14-0.06c0.1,0,.2,0,0.19-0.12a0.27,0.27,0,0,0,0-.13,1,1,0,0,1-.09-0.26,0.14,0.14,0,0,1,.17-0.12,0.52,0.52,0,0,1,.17,0,0.08,0.08,0,0,1,0,.1,0.25,0.25,0,0,0,0,.23s0,0,.14,0h0.38a0.1,0.1,0,0,1,.09,0,0.32,0.32,0,0,1,0,.24,0.25,0.25,0,0,1-.24.14,0.14,0.14,0,0,0-.11,0,0.62,0.62,0,0,0,.17.33,0.21,0.21,0,0,0,.13.08,1.18,1.18,0,0,0,.55-0.38c0.19-.16.34-0.08,0.35,0l-0.3.23a2.44,2.44,0,0,1-.41.28,0.64,0.64,0,0,1-.22,0h0Zm-0.62-.42a0.22,0.22,0,0,1,.22.09,0.43,0.43,0,0,0,.61.26,2.37,2.37,0,0,0,.41-0.28,1.7,1.7,0,0,1,.26-0.18c0-.05-0.09-0.15-0.27,0a1.34,1.34,0,0,1-.56.4h0a0.23,0.23,0,0,1-.16-0.09,0.64,0.64,0,0,1-.17-0.35,0.13,0.13,0,0,1,.13-0.06,0.23,0.23,0,0,0,.22-0.12,0.29,0.29,0,0,0,0-.21l-0.07,0h-0.14a0.65,0.65,0,0,1-.4,0,0.28,0.28,0,0,1,0-.25s0-.06,0-0.07-0.29-.08-0.3.06a0.89,0.89,0,0,0,.09.25,0.3,0.3,0,0,1,0,.14c0,0.12-.12.14-0.21,0.15a0.19,0.19,0,0,0-.12,0,0.28,0.28,0,0,0,0,.23,0.13,0.13,0,0,0,.11.06h0.32Z" transform="translate(-668.5 -140.71)"/>
        <path class="h" d="M694,162.21a1.65,1.65,0,0,0-.52.56,0.38,0.38,0,0,0,.19.28,0.51,0.51,0,0,0,.48-0.08c0.17-.14.25-0.28,0.18-0.3-0.26-.07-0.27.28-0.39,0.29s-0.3-.18-0.06-0.42a3.47,3.47,0,0,0,.55-0.54,0.65,0.65,0,0,0-.43.21h0Z" transform="translate(-668.5 -140.71)"/>
        <path class="e" d="M693.81,163.09a0.47,0.47,0,0,1-.16,0,0.4,0.4,0,0,1-.2-0.29,0.83,0.83,0,0,1,.35-0.41l0.17-.15a1,1,0,0,1,.41-0.23v0h0a0.92,0.92,0,0,0-.4.22l-0.18.16a0.85,0.85,0,0,0-.34.39,0.38,0.38,0,0,0,.18.27,0.51,0.51,0,0,0,.46-0.08,0.44,0.44,0,0,0,.2-0.26l-0.08,0a0.25,0.25,0,0,0-.2.17,0.2,0.2,0,0,1-.12.13h0a0.19,0.19,0,0,1-.18-0.12,0.28,0.28,0,0,1,.1-0.32l0.29-.26a1.35,1.35,0,0,0,.26-0.26,0.63,0.63,0,0,1-.24.28l-0.29.26a0.26,0.26,0,0,0-.1.29,0.17,0.17,0,0,0,.14.11,0.17,0.17,0,0,0,.11-0.12,0.28,0.28,0,0,1,.22-0.19h0.07a0.31,0.31,0,0,1-.17.33,0.53,0.53,0,0,1-.33.11h0Z" transform="translate(-668.5 -140.71)"/>
        <path class="h" d="M693.37,163.2c0,0.1.24,0.1,0.29,0s-0.28-.11-0.29,0h0Z" transform="translate(-668.5 -140.71)"/>
        <path class="e" d="M693.5,163.29h0a0.18,0.18,0,0,1-.13,0c0-.17.25-0.13,0.3-0.06a0.16,0.16,0,0,1-.17.1h0Zm0-.13a0.11,0.11,0,0,0-.11,0,0.12,0.12,0,0,0,.12.06h0a0.17,0.17,0,0,0,.15-0.05,0.19,0.19,0,0,0-.15,0h0Z" transform="translate(-668.5 -140.71)"/>
        <path class="h" d="M694.22,163.26c-0.14.15,0,.32,0.13,0.46a0.81,0.81,0,0,0,.29.18,0.64,0.64,0,0,0,.54-0.08c0.17-.14.18-0.38,0.08-0.38-0.27,0-.08.36-0.21,0.37a0.69,0.69,0,0,1-.61-0.41c-0.09-.2.17-0.24,0.13-0.33s-0.24.09-.34,0.19h0Z" transform="translate(-668.5 -140.71)"/>
        <path class="e" d="M694.8,163.95a0.5,0.5,0,0,1-.18,0,0.84,0.84,0,0,1-.29-0.19c-0.13-.17-0.26-0.33-0.12-0.48a0.73,0.73,0,0,1,.31-0.22c0.07,0.08,0,.11,0,0.14a0.16,0.16,0,0,0-.07.22,0.69,0.69,0,0,0,.58.4c0.06,0,.06-0.05.06-0.13a0.27,0.27,0,0,1,0-.2s0.16-.07.19,0a0.37,0.37,0,0,1-.14.35,0.63,0.63,0,0,1-.38.11h0Zm-0.27-.87a0.55,0.55,0,0,0-.3.2c-0.12.13,0,.28,0.1,0.41a0.82,0.82,0,0,0,.31.21,0.66,0.66,0,0,0,.53-0.08,0.33,0.33,0,0,0,.13-0.32c-0.09,0-.13,0-0.15,0a0.27,0.27,0,0,0,0,.18c0,0.07,0,.14-0.06.15h0a0.71,0.71,0,0,1-.62-0.42,0.19,0.19,0,0,1,.08-0.25s0.06-.05.05-0.08h0Z" transform="translate(-668.5 -140.71)"/>
        <path class="h" d="M694.91,163.25c0.06,0.08.25-.09,0.22-0.18s-0.28.1-.22,0.18h0Z" transform="translate(-668.5 -140.71)"/>
        <path class="e" d="M695,163.28h0l-0.05,0v-0.07a0.32,0.32,0,0,1,.21-0.15,0.11,0.11,0,0,1,0,.15,0.23,0.23,0,0,1-.15.1h0Z" transform="translate(-668.5 -140.71)"/>
        <path class="h" d="M695.29,164c0,0.11,0,.26-0.1.26s-0.29-.17-0.42-0.16a0.15,0.15,0,0,0-.17.16,0.84,0.84,0,0,0,.62.09,2.87,2.87,0,0,1,.56.19c0.27,0,.31-0.11.29-0.17a0.72,0.72,0,0,0-.33,0,0.41,0.41,0,0,1-.25-0.26c0-.11,0-0.31.08-0.31s0.1,0.17.11,0.23,0.07,0.11.15,0a0.29,0.29,0,0,0-.05-0.4,0.45,0.45,0,0,0-.47.4h0Z" transform="translate(-668.5 -140.71)"/>
        <path class="e" d="M695.75,164.52a0.26,0.26,0,0,1-.2-0.09,0.35,0.35,0,0,0-.28-0.1h-0.22a0.62,0.62,0,0,1-.47-0.11,0.12,0.12,0,0,1,0-.1,0.19,0.19,0,0,1,.16-0.08h0a0.47,0.47,0,0,1,.22.08,0.47,0.47,0,0,0,.2.08c0.09,0,.1-0.07.1-0.18a0.53,0.53,0,0,1,.43-0.49,0.28,0.28,0,0,1,.12.43,0.13,0.13,0,0,1-.09.06h0a0.08,0.08,0,0,1-.08-0.08,0.28,0.28,0,0,0,0-.19,0.11,0.11,0,0,0-.08,0,0.3,0.3,0,0,0-.07.3,0.39,0.39,0,0,0,.24.25h0.2a0.15,0.15,0,0,1,.14,0,0.1,0.1,0,0,1,0,.08,0.38,0.38,0,0,1-.29.1h0Zm-0.52-.21a0.42,0.42,0,0,1,.34.11,0.24,0.24,0,0,0,.18.08h0a0.33,0.33,0,0,0,.27-0.09c0-.08,0-0.09-0.11-0.09h-0.2a0.42,0.42,0,0,1-.26-0.27,0.45,0.45,0,0,1,0-.3l0.07,0a0.13,0.13,0,0,1,.1,0,0.18,0.18,0,0,1,0,.15c0,0.14.06,0.13,0.12,0.06a0.24,0.24,0,0,0,.05-0.2,0.28,0.28,0,0,0-.1-0.18,0.49,0.49,0,0,0-.45.39c0,0.16,0,.27-0.12.28h0a0.48,0.48,0,0,1-.22-0.08,0.47,0.47,0,0,0-.2-0.08,0.17,0.17,0,0,0-.14.07,0.1,0.1,0,0,0,0,.08,0.87,0.87,0,0,0,.61.08h0Z" transform="translate(-668.5 -140.71)"/>
        <path class="h" d="M696.24,164a1.18,1.18,0,0,1-.14.28,1.15,1.15,0,0,1,.1.31,0.26,0.26,0,0,0,.3.13,2.89,2.89,0,0,0,.3-0.17c0.12,0,0,.28.3,0.27a0.74,0.74,0,0,0,.36-0.2,0.58,0.58,0,0,0,.25.22,1,1,0,0,0,.35-0.21,0.51,0.51,0,0,0,.36.21,1.19,1.19,0,0,0,.54-0.11,0.66,0.66,0,0,1,.18-0.24c0.09,0,.23.17,0.35,0.17a3.58,3.58,0,0,0,.46-0.32,1,1,0,0,0,.32.19,1.06,1.06,0,0,0,.44-0.38c0.23,0,.24-0.12.25-0.14a1.42,1.42,0,0,0-.05-0.54,2.09,2.09,0,0,0-.46-0.76c-0.13,0-.09.18,0,0.29a2,2,0,0,1,.43.8,0.8,0.8,0,0,1-.57-0.06c-0.32,0-.51.64-0.73,0.66s-0.21-.08-0.17-0.15,0.14-.34-0.11-0.3-0.5.15-.46,0.28,0.19,0.27,0,.32a1.18,1.18,0,0,1-.59,0,1.4,1.4,0,0,1-.14-0.36,2.2,2.2,0,0,1-.23.38,0.25,0.25,0,0,1-.28-0.15c0-.1.05-0.23,0-0.25a2.74,2.74,0,0,1-.31.4,0.25,0.25,0,0,1-.22-0.12,0.83,0.83,0,0,0-.06-0.4,2.14,2.14,0,0,0-.36.42,0.29,0.29,0,0,1-.26-0.1,2.36,2.36,0,0,1,0-.44c0-.05-0.13,0-0.12,0h0Z" transform="translate(-668.5 -140.71)"/>
        <path class="e" d="M697.71,164.85a0.21,0.21,0,0,1-.19-0.15,0.1,0.1,0,0,0-.06-0.07,0.14,0.14,0,0,0-.08.06,0.36,0.36,0,0,1-.28.14,0.21,0.21,0,0,1-.23-0.19c0-.05,0-0.08-0.06-0.09s-0.07,0-.11.07a0.31,0.31,0,0,1-.19.1,0.28,0.28,0,0,1-.31-0.15,0.68,0.68,0,0,0-.07-0.23,0.45,0.45,0,0,1,0-.08,0.1,0.1,0,0,1,0-.09,0.29,0.29,0,0,0,.1-0.2,0.1,0.1,0,0,1,.09-0.07l0.06,0a2.18,2.18,0,0,0,0,.43,0.27,0.27,0,0,0,.24.09h0a0.33,0.33,0,0,0,.13-0.17,0.42,0.42,0,0,1,.22-0.25c0.1,0,.09.12,0.07,0.22a0.26,0.26,0,0,0,0,.18,0.24,0.24,0,0,0,.21.12h0a0.34,0.34,0,0,0,.17-0.22,0.27,0.27,0,0,1,.13-0.18c0.07,0,.06.07,0.06,0.13a0.34,0.34,0,0,0,0,.13,0.23,0.23,0,0,0,.24.14,0.23,0.23,0,0,0,.16-0.21,0.2,0.2,0,0,1,.11-0.17s0.05,0.07.06,0.14a0.22,0.22,0,0,0,.08.21,1.22,1.22,0,0,0,.58,0,0.09,0.09,0,0,0,.06,0,0.22,0.22,0,0,0,0-.14,0.65,0.65,0,0,1-.05-0.12,0.12,0.12,0,0,1,0-.1,0.72,0.72,0,0,1,.46-0.2,0.16,0.16,0,0,1,.17.06,0.31,0.31,0,0,1,0,.27,0.15,0.15,0,0,0,.14.13,0.57,0.57,0,0,0,.3-0.28,0.7,0.7,0,0,1,.45-0.38,0.93,0.93,0,0,1,.29.07c0.13,0,.24.08,0.27,0a1.78,1.78,0,0,0-.38-0.73l0-.06a0.32,0.32,0,0,1-.06-0.27,0.08,0.08,0,0,1,.07,0,1.92,1.92,0,0,1,.48.77,1.46,1.46,0,0,1,.05.55,0.25,0.25,0,0,1-.27.15,0.24,0.24,0,0,0-.12.13,0.39,0.39,0,0,1-.32.25,0.32,0.32,0,0,1-.23-0.13,0.16,0.16,0,0,0-.08-0.06,0.56,0.56,0,0,0-.17.13,0.67,0.67,0,0,1-.29.19,0.41,0.41,0,0,1-.21-0.1,0.32,0.32,0,0,0-.14-0.07,0.19,0.19,0,0,0-.11.13,0.35,0.35,0,0,1-.07.11,1.16,1.16,0,0,1-.55.11h0a0.31,0.31,0,0,1-.29-0.15,0.11,0.11,0,0,0-.07-0.06,0.19,0.19,0,0,0-.09.07,0.35,0.35,0,0,1-.25.14h0Zm-0.25-.25a0.11,0.11,0,0,1,.08.08,0.19,0.19,0,0,0,.17.14,0.33,0.33,0,0,0,.23-0.13,0.21,0.21,0,0,1,.11-0.08,0.13,0.13,0,0,1,.09.07,0.27,0.27,0,0,0,.25.14,1.27,1.27,0,0,0,.56-0.11,0.37,0.37,0,0,0,.06-0.1,0.21,0.21,0,0,1,.13-0.14,0.4,0.4,0,0,1,.16.08,0.38,0.38,0,0,0,.19.09,0.7,0.7,0,0,0,.27-0.18,0.51,0.51,0,0,1,.19-0.13h0a0.18,0.18,0,0,1,.11.07,0.3,0.3,0,0,0,.21.12,0.37,0.37,0,0,0,.3-0.24,0.25,0.25,0,0,1,.14-0.15A0.23,0.23,0,0,0,701,164a1.4,1.4,0,0,0-.05-0.55,2.13,2.13,0,0,0-.45-0.75,0.2,0.2,0,0,0,0,.27l0,0.06a1.49,1.49,0,0,1,.39.75c0,0.09-.15.06-0.3,0a0.91,0.91,0,0,0-.28-0.07,0.68,0.68,0,0,0-.43.37,0.6,0.6,0,0,1-.3.29,0.18,0.18,0,0,1-.17-0.08,0.09,0.09,0,0,1,0-.09,0.29,0.29,0,0,0,.05-0.24,0.11,0.11,0,0,0-.1,0,0.74,0.74,0,0,0-.48.19,0.09,0.09,0,0,0,0,.08,0.65,0.65,0,0,0,0,.11,0.21,0.21,0,0,1,0,.17,0.11,0.11,0,0,1-.08.06,1.23,1.23,0,0,1-.59,0,0.24,0.24,0,0,1-.1-0.24c0-.15-0.07-0.1-0.12,0a0.27,0.27,0,0,1-.15.22h0a0.27,0.27,0,0,1-.29-0.16,0.32,0.32,0,0,1,0-.14c0-.07,0-0.1,0-0.1h0a0.31,0.31,0,0,0-.11.16,0.35,0.35,0,0,1-.19.24,0.23,0.23,0,0,1-.2-0.09,0.26,0.26,0,0,1,0-.24c0-.11,0-0.18,0-0.19h0a0.41,0.41,0,0,0-.2.24,0.32,0.32,0,0,1-.15.19,0.3,0.3,0,0,1-.28-0.11,2.73,2.73,0,0,1,0-.44h-0.09a0.36,0.36,0,0,1-.11.24,0.07,0.07,0,0,0,0,.06,0.31,0.31,0,0,0,0,.07,0.72,0.72,0,0,1,.07.24,0.22,0.22,0,0,0,.25.13,0.3,0.3,0,0,0,.21-0.1,0.23,0.23,0,0,1,.13-0.08,0.11,0.11,0,0,1,.09.11,0.19,0.19,0,0,0,.21.17,0.33,0.33,0,0,0,.26-0.13,0.17,0.17,0,0,1,.1-0.07h0Z" transform="translate(-668.5 -140.71)"/>
        <path class="h" d="M700.75,162.77a3.68,3.68,0,0,0,.6.9,2.33,2.33,0,0,0-.41-0.82c-0.11-.16-0.4-0.4-0.19-0.07h0Z" transform="translate(-668.5 -140.71)"/>
        <path class="e" d="M701.35,163.68h0a1.15,1.15,0,0,1-.37-0.5c-0.08-.13-0.16-0.28-0.24-0.41a0.22,0.22,0,0,1-.07-0.17,0.45,0.45,0,0,1,.29.23,2.81,2.81,0,0,1,.42.83h0Zm-0.66-1.06a0.39,0.39,0,0,0,.07.14c0.09,0.13.17,0.27,0.24,0.41a1.3,1.3,0,0,0,.35.48,3.19,3.19,0,0,0-.42-0.8,0.69,0.69,0,0,0-.25-0.23h0Z" transform="translate(-668.5 -140.71)"/>
        <path class="h" d="M696.22,163.67c0,0.09,0,.18,0,0.16a0.23,0.23,0,0,0,.12-0.19,0.1,0.1,0,0,0-.16,0h0Z" transform="translate(-668.5 -140.71)"/>
        <path class="e" d="M696.25,163.85l0,0a0.19,0.19,0,0,1,0-.16c0.08-.13.16-0.07,0.18,0a0.26,0.26,0,0,1-.13.21h0Z" transform="translate(-668.5 -140.71)"/>
        <path class="h" d="M701.46,162.93a0.39,0.39,0,0,0,.41.41,0.69,0.69,0,0,0,.57-0.61,0.45,0.45,0,0,0-.44-0.46c-0.09.06,0,.29,0.27,0.3s0.07,0.21-.13.36a0.47,0.47,0,0,1-.58,0c-0.06-.16-0.11-0.16-0.11-0.06h0Z" transform="translate(-668.5 -140.71)"/>
        <path class="e" d="M701.85,163.36a0.37,0.37,0,0,1-.27-0.11,0.45,0.45,0,0,1-.13-0.32l0-.07c0.07,0,.09.07,0.11,0.13a0.49,0.49,0,0,0,.56-0.05,0.36,0.36,0,0,0,.17-0.31,0.42,0.42,0,0,1-.35-0.25,0.09,0.09,0,0,1,0-.11,0.4,0.4,0,0,1,.33.14,0.43,0.43,0,0,1,.13.32,0.71,0.71,0,0,1-.59.62h0Zm-0.36-.48a0.43,0.43,0,0,0,.11.35,0.34,0.34,0,0,0,.25.1h0a0.68,0.68,0,0,0,.56-0.59,0.41,0.41,0,0,0-.12-0.3,0.44,0.44,0,0,0-.26-0.15,0.07,0.07,0,0,0-.06.09,0.31,0.31,0,0,0,.29.19h0l0.05,0a0.38,0.38,0,0,1-.18.33,0.5,0.5,0,0,1-.6,0,0.19,0.19,0,0,0-.07-0.12h0Z" transform="translate(-668.5 -140.71)"/>
        <path class="h" d="M701.63,162.32a0.21,0.21,0,0,0,.13.25c0.09,0-.1-0.31-0.13-0.25h0Z" transform="translate(-668.5 -140.71)"/>
        <path class="e" d="M701.63,162.33a0.22,0.22,0,0,0,0,.17,0.11,0.11,0,0,0,.08.06h0a0.33,0.33,0,0,0-.12-0.23h0Z" transform="translate(-668.5 -140.71)"/>
        <path class="h" d="M702.4,162.18a0.42,0.42,0,0,0,.22.3c0.11,0,.2,0,0.2.12s-0.28.4-.29,0.5,0.11,0.17.18,0.07a4.92,4.92,0,0,0,.27-0.67,2.12,2.12,0,0,0,.14-0.48c0-.22.19,0,0.29,0a0.31,0.31,0,0,0,.2-0.28,1.45,1.45,0,0,0-.09-0.24,3.37,3.37,0,0,0,.12-0.37,0.63,0.63,0,0,0-.31-0.43c-0.08,0,0,.12,0,0.17a0.28,0.28,0,0,1,.12.25,2.57,2.57,0,0,0-.46.42,1,1,0,0,1-.1.57,2,2,0,0,0-.38-0.27c-0.2,0-.17.28-0.12,0.37h0Z" transform="translate(-668.5 -140.71)"/>
        <path class="e" d="M702.6,163.26l-0.06,0a0.16,0.16,0,0,1,0-.13,0.79,0.79,0,0,1,.15-0.26,0.79,0.79,0,0,0,.14-0.24c0-.07-0.06-0.11-0.18-0.11a0.35,0.35,0,0,1-.21-0.26,0.44,0.44,0,0,1,0-.37c0.08-.13.27,0,0.37,0.1a0.25,0.25,0,0,0,.14.11,0.56,0.56,0,0,0,.08-0.4c0-.07,0-0.12,0-0.16a0.37,0.37,0,0,1,.24-0.24,0.49,0.49,0,0,0,.22-0.19,0.24,0.24,0,0,0-.1-0.21,0.24,0.24,0,0,1-.09-0.18,0.19,0.19,0,0,1,.2.07,0.62,0.62,0,0,1,.18.34,0.83,0.83,0,0,1-.07.25,0.53,0.53,0,0,0,0,.12,0.16,0.16,0,0,0,0,.1,0.19,0.19,0,0,1,0,.14,0.33,0.33,0,0,1-.21.29l-0.11,0a0.35,0.35,0,0,0-.12,0,0.09,0.09,0,0,0-.05.09,1,1,0,0,1-.09.34,0.7,0.7,0,0,0,0,.14,4.7,4.7,0,0,1-.27.68,0.14,0.14,0,0,1-.11.07h0Zm-0.07-1.43a0.12,0.12,0,0,0-.11.05,0.38,0.38,0,0,0,0,.29,0.4,0.4,0,0,0,.21.29c0.17,0,.21.07,0.21,0.13a0.73,0.73,0,0,1-.14.25,0.83,0.83,0,0,0-.15.25,0.13,0.13,0,0,0,0,.11l0,0a0.12,0.12,0,0,0,.09-0.06,4.91,4.91,0,0,0,.27-0.67,0.75,0.75,0,0,1,.05-0.14,1,1,0,0,0,.09-0.33,0.13,0.13,0,0,1,0-.1,0.25,0.25,0,0,1,.18,0l0.1,0h0a0.3,0.3,0,0,0,.18-0.26,0.15,0.15,0,0,0,0-.12,0.18,0.18,0,0,1,0-.12,0.46,0.46,0,0,1,0-.13,0.79,0.79,0,0,0,.07-0.24,0.61,0.61,0,0,0-.17-0.32,0.25,0.25,0,0,0-.13-0.09,0.13,0.13,0,0,0,0,.15,0.28,0.28,0,0,1,.13.26,0.51,0.51,0,0,1-.24.2,0.36,0.36,0,0,0-.22.22s0,0.09,0,.16a0.46,0.46,0,0,1-.1.42,0.26,0.26,0,0,1-.16-0.12,0.33,0.33,0,0,0-.22-0.15h0Z" transform="translate(-668.5 -140.71)"/>
        <path class="h" d="M702.69,160.53a0.7,0.7,0,0,0,.26.41c0.14,0-.06-0.16-0.05-0.22s0.21-.15.13-0.17-0.35-.13-0.34,0h0Z" transform="translate(-668.5 -140.71)"/>
        <path class="e" d="M703,161a0.69,0.69,0,0,1-.28-0.43l0.07-.06a0.9,0.9,0,0,1,.22.05l0.07,0s0,0.07,0,.1a0.22,0.22,0,0,0-.08.08,0.19,0.19,0,0,0,0,.09,0.14,0.14,0,0,1,0,.12L703,161h0Zm-0.21-.46a0.53,0.53,0,0,0,.21.43h0l0,0a0.17,0.17,0,0,0,0-.09,0.18,0.18,0,0,1-.05-0.11,0.24,0.24,0,0,1,.09-0.09,0.22,0.22,0,0,0,.06-0.06l-0.08,0a0.82,0.82,0,0,0-.21-0.05h0Z" transform="translate(-668.5 -140.71)"/>
        <path class="h" d="M702.68,160.1a1.54,1.54,0,0,0,.67.33,1.23,1.23,0,0,0,.51.21,1.66,1.66,0,0,0-.69-0.38,0.83,0.83,0,0,0-.49-0.15h0Z" transform="translate(-668.5 -140.71)"/>
        <path class="e" d="M703.81,160.66a0.57,0.57,0,0,1-.23-0.1,1.06,1.06,0,0,0-.24-0.12,1.57,1.57,0,0,1-.68-0.33h0a1.37,1.37,0,0,0,.64.32,1.12,1.12,0,0,1,.25.12,0.58,0.58,0,0,0,.22.1h0l0,0a2,2,0,0,0-.68-0.36l-0.12-.05a2.05,2.05,0,0,0-.3-0.12,0.85,0.85,0,0,1,.31.1l0.12,0.05a2.34,2.34,0,0,1,.7.37l-0.06,0h0Z" transform="translate(-668.5 -140.71)"/>
        <path class="h" d="M704,160.8c0.17,0,.08-0.33,0-0.41s-0.1.15-.1,0.22a0.22,0.22,0,0,0,.06.19h0Z" transform="translate(-668.5 -140.71)"/>
        <path class="e" d="M704,160.81h0a0.17,0.17,0,0,1-.07-0.17,0.45,0.45,0,0,1,.06-0.26l0,0a0.33,0.33,0,0,0-.06.2,0.23,0.23,0,0,0,.05.18h0a0.07,0.07,0,0,0,.06,0,0.48,0.48,0,0,0,0-.32,0.37,0.37,0,0,1,0,.33,0.09,0.09,0,0,1-.08,0h0Z" transform="translate(-668.5 -140.71)"/>
        <path class="h" d="M703.05,159.16a3.45,3.45,0,0,0,.68.08,1.54,1.54,0,0,0,.47.15,0.9,0.9,0,0,0-.71-0.28,0.66,0.66,0,0,0-.43,0h0Z" transform="translate(-668.5 -140.71)"/>
        <path class="e" d="M704.17,159.41a1.09,1.09,0,0,1-.3-0.1l-0.14-.06a1.9,1.9,0,0,0-.38,0c-0.2,0-.31,0-0.31-0.06s0.23-.07.35-0.06h0.09a1.22,1.22,0,0,1,.73.25l0,0.06h0Zm-0.94-.29c-0.14,0-.16,0-0.16,0a0.65,0.65,0,0,0,.28,0,1.88,1.88,0,0,1,.38,0l0.14,0.06a1.1,1.1,0,0,0,.29.1h0l0,0a1.11,1.11,0,0,0-.71-0.25h-0.26Z" transform="translate(-668.5 -140.71)"/>
        <path class="h" d="M702.93,159.37c-0.08.09,0.28,0.19,0.6,0.2a0.44,0.44,0,0,1,.5.35,1.29,1.29,0,0,1-.4.21,2.65,2.65,0,0,1,.23.17c0,0.11.13,0.13,0.12,0a2,2,0,0,1,.24-0.33,0.64,0.64,0,0,0-.55-0.49,1.53,1.53,0,0,0-.75-0.1h0Z" transform="translate(-668.5 -140.71)"/>
        <path class="e" d="M703.93,160.4a0.1,0.1,0,0,1-.08-0.1,0.12,0.12,0,0,0-.1-0.08,0.15,0.15,0,0,1-.12-0.09,0.11,0.11,0,0,1,.13-0.08,0.23,0.23,0,0,0,.26-0.14,0.18,0.18,0,0,0,0-.14,0.59,0.59,0,0,0-.44-0.19,1,1,0,0,1-.62-0.17c0.09-.19.19-0.1,0.36,0a2.12,2.12,0,0,0,.41.09,0.64,0.64,0,0,1,.56.5,0.24,0.24,0,0,1-.09.13,0.46,0.46,0,0,0-.15.21,0.12,0.12,0,0,1,0,.09l0,0h0Zm-0.9-1.06a0.11,0.11,0,0,0-.09,0,0.81,0.81,0,0,0,.59.18,0.62,0.62,0,0,1,.46.2,0.21,0.21,0,0,1,.05.16,0.26,0.26,0,0,1-.29.16,0.19,0.19,0,0,0-.11,0,0.13,0.13,0,0,0,.11.1,0.15,0.15,0,0,1,.12.1,0.08,0.08,0,0,0,.06.08h0l0,0a0.09,0.09,0,0,0,0-.07,0.45,0.45,0,0,1,.16-0.23,0.37,0.37,0,0,0,.09-0.1,0.62,0.62,0,0,0-.54-0.48,2.07,2.07,0,0,1-.42-0.09,1,1,0,0,0-.23-0.05h0Z" transform="translate(-668.5 -140.71)"/>
        <path class="e" d="M692.67,161.71c-0.05,0-.23.13-0.17,0.17s0.25-.13.17-0.17h0Z" transform="translate(-668.5 -140.71)"/>
        <path class="e" d="M692.56,161.9H692.5a0.14,0.14,0,0,1,0,0l0.05,0a0.16,0.16,0,0,0,.13-0.11,0.06,0.06,0,0,0,0-.07,0.22,0.22,0,0,0-.12.06,0.18,0.18,0,0,1,.11-0.06,0.06,0.06,0,0,1,0,.08,0.15,0.15,0,0,1-.14.12h0Z" transform="translate(-668.5 -140.71)"/>
        <path class="e" d="M693.07,161.52c-0.09,0-.13.18-0.06,0.19s0.23-.17.06-0.19h0Z" transform="translate(-668.5 -140.71)"/>
        <path class="e" d="M693,161.71h0a0.06,0.06,0,0,1,0-.08,0.12,0.12,0,0,1,.09-0.12,0.11,0.11,0,0,1,.12.1,0.12,0.12,0,0,1-.13.1h0Z" transform="translate(-668.5 -140.71)"/>
        <path class="e" d="M702.67,162s-0.18.06-.13,0.15a0.16,0.16,0,0,0,.24,0,0.12,0.12,0,0,0-.11-0.19h0Z" transform="translate(-668.5 -140.71)"/>
        <path class="e" d="M702.67,162.28a0.15,0.15,0,0,1-.14-0.08,0.08,0.08,0,0,1,0-.08,0.19,0.19,0,0,1,.13-0.07,0.13,0.13,0,0,1,.13.08,0.11,0.11,0,0,1,0,.12,0.16,0.16,0,0,1-.1,0h0Zm0-.23a0.18,0.18,0,0,0-.12.07,0.07,0.07,0,0,0,0,.08,0.16,0.16,0,0,0,.23,0,0.1,0.1,0,0,0,0-.11,0.12,0.12,0,0,0-.13-0.07h0Z" transform="translate(-668.5 -140.71)"/>
        <path class="e" d="M703.19,161.65c0,0.1.09,0.08,0.15,0.06a0.08,0.08,0,0,0,0-.15c-0.07,0-.18,0-0.17.09h0Z" transform="translate(-668.5 -140.71)"/>
        <path class="e" d="M703.26,161.73a0.07,0.07,0,0,1-.07-0.08l0,0c0,0.15.08,0.11,0.13,0.09a0.09,0.09,0,0,0,.06-0.08,0.05,0.05,0,0,0,0,0,0,0,0,0,1,0,0,0.1,0.1,0,0,1-.06.09l-0.07,0h0Z" transform="translate(-668.5 -140.71)"/>
        <path class="e" d="M700.17,164c-0.09.2,0,.39,0.13,0.36s0.29-.31.18-0.4a0.19,0.19,0,0,0-.31,0h0Z" transform="translate(-668.5 -140.71)"/>
        <path class="e" d="M700.27,164.37a0.12,0.12,0,0,1-.1-0.06,0.33,0.33,0,0,1,0-.3,0.2,0.2,0,0,1,.32,0,0.14,0.14,0,0,1,0,.14,0.37,0.37,0,0,1-.21.26h0Zm0.06-.46a0.16,0.16,0,0,0-.15.1,0.33,0.33,0,0,0,0,.3,0.11,0.11,0,0,0,.1.06h0a0.37,0.37,0,0,0,.21-0.26,0.13,0.13,0,0,0,0-.14,0.24,0.24,0,0,0-.15-0.06h0Z" transform="translate(-668.5 -140.71)"/>
        <path class="e" d="M688.08,155.77a2.36,2.36,0,0,0-1.12,0,7.46,7.46,0,0,0,.64,2.16,3.75,3.75,0,0,0,1.4.65,3.5,3.5,0,0,0-.34-1.37,5.54,5.54,0,0,1-.46-0.94,3.46,3.46,0,0,0-.12-0.47h0Z" transform="translate(-668.5 -140.71)"/>
        <path class="e" d="M687.41,155.71c0.08-.43.58,0.09,0.53,0.64a0.67,0.67,0,0,0,.18.5Z" transform="translate(-668.5 -140.71)"/>
        <path d="M688.06,156.91a0.76,0.76,0,0,1-.21-0.57,0.74,0.74,0,0,0-.31-0.7,0.17,0.17,0,0,0-.05.09l-0.17,0a0.22,0.22,0,0,1,.24-0.23,0.85,0.85,0,0,1,.46.89,0.57,0.57,0,0,0,.16.43l-0.12.12h0Z" transform="translate(-668.5 -140.71)"/>
        <path class="e" d="M687.84,155.73l0,0c0.25-.42.49,0.18,0.53,0.87Z" transform="translate(-668.5 -140.71)"/>
        <path d="M688.26,156.63a1.35,1.35,0,0,0-.27-0.93s0,0-.09.08h0l0,0-0.14-.09a0.26,0.26,0,0,1,.29-0.18,1.35,1.35,0,0,1,.4,1.09h-0.17Z" transform="translate(-668.5 -140.71)"/>
        <path class="e" d="M687,155.66c0-.35.55-0.45,0.51,0.81a1.87,1.87,0,0,1,.55,1,1,1,0,0,1,.56.46Z" transform="translate(-668.5 -140.71)"/>
        <path d="M688.52,157.94a0.94,0.94,0,0,0-.51-0.41H688v-0.06a1.82,1.82,0,0,0-.51-0.91l0,0v0a1,1,0,0,0-.22-0.93,0.06,0.06,0,0,0-.07,0,0.15,0.15,0,0,0-.05.13h-0.17a0.31,0.31,0,0,1,.13-0.28,0.24,0.24,0,0,1,.25,0,1.11,1.11,0,0,1,.3,1,2,2,0,0,1,.54,1,1.08,1.08,0,0,1,.57.49l-0.16.06h0Z" transform="translate(-668.5 -140.71)"/>
        <path class="e" d="M688.36,162.59a23.87,23.87,0,0,0-.06-3.21c-0.18-.41-1.06-0.88-1.33-1.53a6.69,6.69,0,0,1-.39-2.42c0.14-.27.62,0.33,0.49,1a2.81,2.81,0,0,1,.56,1.17,3.82,3.82,0,0,1,1,.71c0.2,0.44,0-.62-0.2-0.84s-0.43-.69-0.25-0.81a0.58,0.58,0,0,1,.56.27,6.45,6.45,0,0,0,.62.69,1.74,1.74,0,0,1,.8.89c0,0.54,0,4.06,0,4.06Z" transform="translate(-668.5 -140.71)"/>
        <path d="M688.44,162.59h-0.17a24.1,24.1,0,0,0-.05-3.18,2.14,2.14,0,0,0-.51-0.56,3,3,0,0,1-.81-1,6.47,6.47,0,0,1-.38-2.5,0.19,0.19,0,0,1,.24-0.1,1.08,1.08,0,0,1,.41,1.11,2,2,0,0,1,.49,1,0.45,0.45,0,0,0,0,.12,3.93,3.93,0,0,0,.44.28,2.83,2.83,0,0,1,.43.27,2.22,2.22,0,0,0-.2-0.56,1.44,1.44,0,0,1-.32-0.78,0.21,0.21,0,0,1,.1-0.15,0.3,0.3,0,0,1,.25,0,0.88,0.88,0,0,1,.44.33,7,7,0,0,0,.6.67l0.08,0.06a1.53,1.53,0,0,1,.76.9c0,0.53,0,4.06,0,4.06h-0.17s0-3.53,0-4.06a1.54,1.54,0,0,0-.69-0.76l-0.08-.06a6.06,6.06,0,0,1-.64-0.72,0.74,0.74,0,0,0-.33-0.24,0.13,0.13,0,0,0-.11,0,1.07,1.07,0,0,0,.27.68,2.37,2.37,0,0,1,.28,1l0,0h-0.06a0.19,0.19,0,0,1-.14-0.16A1.26,1.26,0,0,0,688,158a4,4,0,0,1-.46-0.29,0.34,0.34,0,0,1-.09-0.22,1.89,1.89,0,0,0-.48-1l0,0v0a1,1,0,0,0-.29-1,6,6,0,0,0,.36,2.37,2.92,2.92,0,0,0,.77.91,2.18,2.18,0,0,1,.55.62,24.07,24.07,0,0,1,.06,3.25h0Z" transform="translate(-668.5 -140.71)"/>
        <path class="e" d="M688.25,163.85v0.39a1.88,1.88,0,0,0,1,.22,1.41,1.41,0,0,0,1-.24s0-.33,0-0.41Z" transform="translate(-668.5 -140.71)"/>
        <path d="M689.28,164.55a1.88,1.88,0,0,1-1.1-.25l0-.45h0.17v0.39a2.8,2.8,0,0,0,.93.14,1.19,1.19,0,0,0,.88-0.2s0-.29,0-0.37h0.17a3.44,3.44,0,0,1,0,.45,1.23,1.23,0,0,1-1,.29h0Z" transform="translate(-668.5 -140.71)"/>
        <path class="e" d="M688.22,163.28a0.27,0.27,0,0,0-.11.45,1.76,1.76,0,0,0,1.09.31,1.35,1.35,0,0,0,1.25-.46,0.22,0.22,0,0,0-.23-0.26Z" transform="translate(-668.5 -140.71)"/>
        <path d="M689.25,164.13h0a1.8,1.8,0,0,1-1.15-.34,0.4,0.4,0,0,1-.07-0.38,0.31,0.31,0,0,1,.23-0.2l0,0.17a0.14,0.14,0,0,0-.11.09,0.24,0.24,0,0,0,0,.22,1.73,1.73,0,0,0,1,.28,1.44,1.44,0,0,0,1.16-.38,0.18,0.18,0,0,0,0-.13,0.09,0.09,0,0,0-.09,0v-0.08l0,0.08-0.06-.1,0.11-.06h0a0.31,0.31,0,0,1,.27.35,1.32,1.32,0,0,1-1.29.54h0Z" transform="translate(-668.5 -140.71)"/>
        <path class="e" d="M688.22,162.75a0.27,0.27,0,0,0-.09.46,1.74,1.74,0,0,0,1.1.34,1.29,1.29,0,0,0,1.22-.49c0-.29-0.19-0.26-0.2-0.26Z" transform="translate(-668.5 -140.71)"/>
        <path d="M689.26,163.64h0a1.81,1.81,0,0,1-1.16-.37,0.42,0.42,0,0,1-.08-0.4,0.3,0.3,0,0,1,.22-0.2l0,0.17a0.13,0.13,0,0,0-.1.09,0.26,0.26,0,0,0,.05.23,1.7,1.7,0,0,0,1,.31,1.26,1.26,0,0,0,1.13-.42,0.19,0.19,0,0,0,0-.15l-0.12-.18a0.23,0.23,0,0,1,.2,0,0.32,0.32,0,0,1,.12.31,1.3,1.3,0,0,1-1.27.58h0Z" transform="translate(-668.5 -140.71)"/>
        <path class="e" d="M689.31,163a1.12,1.12,0,0,0,1.14-.51c0-.18-0.22-0.19-0.36-0.14a1.76,1.76,0,0,1-.8.19,3.58,3.58,0,0,1-1-.31,0.25,0.25,0,0,0-.2.32,1.43,1.43,0,0,0,1.23.45h0Z" transform="translate(-668.5 -140.71)"/>
        <path d="M689.24,163.13a1.46,1.46,0,0,1-1.24-.51,0.36,0.36,0,0,1,0-.3,0.32,0.32,0,0,1,.23-0.14,1.41,1.41,0,0,1,.29.1,1.62,1.62,0,0,0,.69.21,1.6,1.6,0,0,0,.71-0.15l0.08,0a0.33,0.33,0,0,1,.48.22,1.13,1.13,0,0,1-1.2.6h-0.1Zm-1-.77a0.14,0.14,0,0,0-.1.06,0.17,0.17,0,0,0,0,.15,1.39,1.39,0,0,0,1.08.39V163l0.06-.09h0a1.11,1.11,0,0,0,1.06-.43s0-.08-0.12-0.08l-0.12,0-0.08,0a1.71,1.71,0,0,1-.76.17h0a1.78,1.78,0,0,1-.79-0.23,0.88,0.88,0,0,0-.2-0.08h0Z" transform="translate(-668.5 -140.71)"/>
        <path class="e" d="M707.85,155.77a2.36,2.36,0,0,1,1.13,0,7.58,7.58,0,0,1-.64,2.16,3.78,3.78,0,0,1-1.4.65,3.5,3.5,0,0,1,.33-1.37,5.73,5.73,0,0,0,.46-0.94,3.47,3.47,0,0,1,.12-0.47h0Z" transform="translate(-668.5 -140.71)"/>
        <path class="e" d="M708.51,155.71c-0.08-.43-0.58.09-0.53,0.64a0.67,0.67,0,0,1-.18.5Z" transform="translate(-668.5 -140.71)"/>
        <path d="M707.86,156.91l-0.12-.12a0.57,0.57,0,0,0,.16-0.43,0.85,0.85,0,0,1,.46-0.9,0.22,0.22,0,0,1,.24.23l-0.17,0a0.1,0.1,0,0,0-.05-0.09,0.74,0.74,0,0,0-.31.71,0.75,0.75,0,0,1-.21.57h0Z" transform="translate(-668.5 -140.71)"/>
        <path class="e" d="M708.09,155.73l0,0c-0.25-.42-0.49.18-0.53,0.87Z" transform="translate(-668.5 -140.71)"/>
        <path d="M707.66,156.63h-0.17a1.35,1.35,0,0,1,.4-1.09,0.27,0.27,0,0,1,.29.18l-0.14.09,0,0,0,0a0.13,0.13,0,0,0-.1-0.1,1.37,1.37,0,0,0-.27.93h0Z" transform="translate(-668.5 -140.71)"/>
        <path class="e" d="M708.95,155.66c0-.35-0.55-0.45-0.51.81a1.86,1.86,0,0,0-.55,1,1,1,0,0,0-.56.46Z" transform="translate(-668.5 -140.71)"/>
        <path d="M707.4,157.94l-0.16-.06a1.09,1.09,0,0,1,.57-0.49,2.06,2.06,0,0,1,.54-1,1.09,1.09,0,0,1,.3-1,0.23,0.23,0,0,1,.25,0,0.31,0.31,0,0,1,.14.28h-0.17a0.14,0.14,0,0,0-.05-0.13,0.06,0.06,0,0,0-.07,0,1,1,0,0,0-.22.93v0l0,0a1.83,1.83,0,0,0-.51.91v0.06H707.9a0.94,0.94,0,0,0-.5.41h0Z" transform="translate(-668.5 -140.71)"/>
        <path class="e" d="M707.57,162.59a24.2,24.2,0,0,1,.06-3.21c0.18-.41,1.06-0.88,1.33-1.53a6.65,6.65,0,0,0,.39-2.42c-0.14-.27-0.62.33-0.49,1a2.76,2.76,0,0,0-.56,1.17,3.78,3.78,0,0,0-1,.71c-0.2.44,0-.62,0.2-0.84s0.43-.69.24-0.81a0.58,0.58,0,0,0-.56.27,6.22,6.22,0,0,1-.62.69,1.72,1.72,0,0,0-.8.89c0,0.54,0,4.06,0,4.06Z" transform="translate(-668.5 -140.71)"/>
        <path d="M707.48,162.59a24.07,24.07,0,0,1,.06-3.25,2.15,2.15,0,0,1,.55-0.62,2.89,2.89,0,0,0,.77-0.91,7,7,0,0,0,.39-2.35,0.84,0.84,0,0,0-.33.94v0l0,0a1.89,1.89,0,0,0-.48,1,0.35,0.35,0,0,1-.09.22,4,4,0,0,1-.47.29,1.27,1.27,0,0,0-.5.38,0.2,0.2,0,0,1-.14.16h-0.05l0-.05a2.37,2.37,0,0,1,.28-1,1.26,1.26,0,0,0,.29-0.65,0.11,0.11,0,0,0-.13,0,0.73,0.73,0,0,0-.33.24,6.23,6.23,0,0,1-.64.72l-0.09.07a1.53,1.53,0,0,0-.68.76c0,0.54,0,4.07,0,4.07h-0.17s0-3.53,0-4.06a1.52,1.52,0,0,1,.75-0.9l0.08-.06a6.57,6.57,0,0,0,.59-0.66,0.9,0.9,0,0,1,.44-0.33,0.3,0.3,0,0,1,.25,0,0.22,0.22,0,0,1,.1.15,1.44,1.44,0,0,1-.32.79,2.3,2.3,0,0,0-.2.56,2.89,2.89,0,0,1,.43-0.27,3.89,3.89,0,0,0,.45-0.28,0.72,0.72,0,0,0,0-.12,2.06,2.06,0,0,1,.49-1,1.08,1.08,0,0,1,.41-1.11,0.19,0.19,0,0,1,.24.1,6.45,6.45,0,0,1-.38,2.49,3,3,0,0,1-.82,1,2.14,2.14,0,0,0-.51.56,24,24,0,0,0-.05,3.18h-0.17Z" transform="translate(-668.5 -140.71)"/>
        <path class="e" d="M707.67,163.85v0.39a1.87,1.87,0,0,1-1,.22,1.41,1.41,0,0,1-1-.24s0-.33,0-0.41Z" transform="translate(-668.5 -140.71)"/>
        <path d="M706.67,164.55h0a1.31,1.31,0,0,1-1-.28,3,3,0,0,1,0-.46h0.17c0,0.08,0,.37,0,0.4a1.31,1.31,0,0,0,.82.17,1.9,1.9,0,0,0,1-.19l0-.34h0.17v0.39a1.68,1.68,0,0,1-1.09.31h0Z" transform="translate(-668.5 -140.71)"/>
        <path class="e" d="M707.71,163.28a0.27,0.27,0,0,1,.11.45,1.76,1.76,0,0,1-1.09.31,1.35,1.35,0,0,1-1.25-.46,0.22,0.22,0,0,1,.23-0.26Z" transform="translate(-668.5 -140.71)"/>
        <path d="M706.68,164.13a1.32,1.32,0,0,1-1.29-.54,0.31,0.31,0,0,1,.26-0.36h0.08l0.08,0.15-0.08,0,0-.08,0,0.08a0.1,0.1,0,0,0-.09,0,0.18,0.18,0,0,0,0,.14,1.43,1.43,0,0,0,1.16.38,1.74,1.74,0,0,0,1-.28,0.24,0.24,0,0,0,0-.22,0.14,0.14,0,0,0-.11-0.09l0-.17a0.31,0.31,0,0,1,.23.2,0.41,0.41,0,0,1-.07.38,1.81,1.81,0,0,1-1.16.34h0Z" transform="translate(-668.5 -140.71)"/>
        <path class="e" d="M707.71,162.75a0.27,0.27,0,0,1,.09.46,1.75,1.75,0,0,1-1.1.34,1.29,1.29,0,0,1-1.22-.49c0-.29.19-0.26,0.2-0.26Z" transform="translate(-668.5 -140.71)"/>
        <path d="M706.67,163.64a1.31,1.31,0,0,1-1.27-.57,0.33,0.33,0,0,1,.12-0.32,0.23,0.23,0,0,1,.2,0l-0.07.16a0.17,0.17,0,0,0-.08.18,1.33,1.33,0,0,0,1.13.41,1.7,1.7,0,0,0,1-.31,0.25,0.25,0,0,0,.05-0.23,0.13,0.13,0,0,0-.1-0.09l0-.17a0.3,0.3,0,0,1,.22.2,0.42,0.42,0,0,1-.08.4,1.8,1.8,0,0,1-1.16.38h0Z" transform="translate(-668.5 -140.71)"/>
        <path class="e" d="M706.62,163a1.12,1.12,0,0,1-1.14-.51c0-.18.22-0.19,0.36-0.14a1.77,1.77,0,0,0,.8.19,3.58,3.58,0,0,0,1-.31,0.25,0.25,0,0,1,.2.32,1.43,1.43,0,0,1-1.23.45h0Z" transform="translate(-668.5 -140.71)"/>
        <path d="M706.68,163.13h-0.07a1.82,1.82,0,0,1-.88-0.2,0.56,0.56,0,0,1-.35-0.4,0.33,0.33,0,0,1,.48-0.22l0.08,0a1.54,1.54,0,0,0,.69.15h0a1.63,1.63,0,0,0,.71-0.21,0.77,0.77,0,0,1,.28-0.1,0.32,0.32,0,0,1,.24.14,0.35,0.35,0,0,1,0,.29,1.45,1.45,0,0,1-1.24.51h0Zm-1-.68c-0.12,0-.12.06-0.12,0.08a0.45,0.45,0,0,0,.26.25,1.62,1.62,0,0,0,.77.18h0.1a1.37,1.37,0,0,0,1.08-.39,0.17,0.17,0,0,0,0-.14,0.14,0.14,0,0,0-.1-0.06,0.89,0.89,0,0,0-.2.08,1.77,1.77,0,0,1-.77.23,1.75,1.75,0,0,1-.79-0.17l-0.07,0-0.12,0h0Z" transform="translate(-668.5 -140.71)"/>
      </g>
    </g>
  </g>
</svg>
