<svg xmlns="http://www.w3.org/2000/svg" xmlns:xlink="http://www.w3.org/1999/xlink" viewBox="0 0 58.92 34.37">
  <defs>
    <style>
      .a {
        fill: none;
      }

      .b {
        clip-path: url(#a);
      }

      .c {
        fill: #bc0030;
      }

      .d {
        fill: #50b63f;
      }

      .e {
        fill: #fff;
      }
    </style>
    <clipPath id="a" transform="translate(-880.57 -140.71)">
      <rect class="a" x="880.57" y="140.71" width="58.92" height="34.37"/>
    </clipPath>
  </defs>
  <title>Burundi</title>
  <g class="b">
    <polygon class="c" points="54.34 0 4.58 0 29.46 14.51 54.34 0"/>
    <polygon class="c" points="4.58 34.37 54.34 34.37 29.46 19.86 4.58 34.37"/>
    <polygon class="d" points="58.92 31.7 58.92 2.67 34.04 17.19 58.92 31.7"/>
    <polygon class="d" points="0 31.7 24.88 17.19 0 2.67 0 31.7"/>
    <g class="b">
      <path class="e" d="M939.49,140.71h-4.58l-17.75,10.35a10.21,10.21,0,0,0-14.27,0l-17.75-10.35h-4.58v2.67L900.47,155a9.5,9.5,0,0,0,0,5.81l-19.9,11.61v2.67h4.58l17.75-10.35a10.22,10.22,0,0,0,14.27,0l17.75,10.35h4.58v-2.67l-19.9-11.61a9.51,9.51,0,0,0,0-5.81l19.9-11.61v-2.67Z" transform="translate(-880.57 -140.71)"/>
      <polygon class="d" points="30.12 11 29.46 9.85 28.8 11 27.48 11 28.14 12.14 27.48 13.29 28.8 13.29 29.46 14.44 30.12 13.29 31.45 13.29 30.78 12.14 31.45 11 30.12 11"/>
      <polygon class="d" points="35.15 19.71 35.81 18.56 34.49 18.56 33.83 17.41 33.17 18.56 31.84 18.56 32.5 19.71 31.84 20.85 33.17 20.85 33.83 22 34.49 20.85 35.81 20.85 35.15 19.71"/>
      <polygon class="d" points="25.76 18.56 25.1 17.41 24.43 18.56 23.11 18.56 23.77 19.71 23.11 20.85 24.43 20.85 25.1 22 25.76 20.85 27.08 20.85 26.42 19.71 27.08 18.56 25.76 18.56"/>
      <polygon class="c" points="30 11.21 29.46 10.27 28.92 11.21 27.83 11.21 28.38 12.14 27.83 13.09 28.92 13.09 29.46 14.02 30 13.09 31.09 13.09 30.55 12.14 31.09 11.21 30 11.21"/>
      <polygon class="c" points="34.91 19.71 35.45 18.77 34.37 18.77 33.83 17.83 33.28 18.77 32.2 18.77 32.74 19.71 32.2 20.65 33.28 20.65 33.83 21.59 34.37 20.65 35.45 20.65 34.91 19.71"/>
      <polygon class="c" points="25.64 18.77 25.1 17.83 24.55 18.77 23.47 18.77 24.01 19.71 23.47 20.65 24.55 20.65 25.1 21.59 25.64 20.65 26.72 20.65 26.18 19.71 26.72 18.77 25.64 18.77"/>
    </g>
  </g>
</svg>
