<svg xmlns="http://www.w3.org/2000/svg" xmlns:xlink="http://www.w3.org/1999/xlink" viewBox="0 0 58.92 34.37">
  <defs>
    <style>
      .a {
        fill: none;
      }

      .b {
        clip-path: url(#a);
      }

      .c {
        fill: #fff;
      }

      .d {
        fill: #2c00fc;
      }

      .e {
        fill: #fcff2c;
      }

      .f {
        fill: #f9ff2b;
      }
    </style>
    <clipPath id="a" transform="translate(-951.26 -140.71)">
      <rect class="a" x="951.26" y="140.71" width="58.92" height="34.37"/>
    </clipPath>
  </defs>
  <title>Buryatia</title>
  <g class="b">
    <g class="b">
      <g class="b">
        <g class="b">
          <rect class="c" width="58.92" height="34.37"/>
        </g>
      </g>
      <rect class="d" width="58.92" height="17.35"/>
      <g class="b">
        <path class="e" d="M963.88,149.93a4.43,4.43,0,0,0-.11.94,4.63,4.63,0,0,0,9.26,0,4.43,4.43,0,0,0-.11-0.94c0,0.05,0,.11,0,0.16a4.34,4.34,0,0,1-.27.84,4.42,4.42,0,0,1-.42.76,4.72,4.72,0,0,1-1.25,1.2,4.51,4.51,0,0,1-1.65.67,4.64,4.64,0,0,1-1.86,0,4.66,4.66,0,0,1-.87-0.26,4.6,4.6,0,0,1-2.45-2.38,4.34,4.34,0,0,1-.26-0.84c0-.05,0-0.11,0-0.16" transform="translate(-951.26 -140.71)"/>
        <path class="e" d="M971.86,149.75a3.46,3.46,0,1,1-3.46-3.35,3.41,3.41,0,0,1,3.46,3.35" transform="translate(-951.26 -140.71)"/>
        <path class="e" d="M968.35,141.83a0.56,0.56,0,0,0,0,.17,1,1,0,0,0,.17.28,0.85,0.85,0,0,1,.09.19,0.38,0.38,0,0,1,0,.2s0,0.14,0,.19a1.11,1.11,0,0,0,0,.16,1.4,1.4,0,0,0,0,.15,0.28,0.28,0,0,0,0,.15,1.16,1.16,0,0,0,.1.15,1.38,1.38,0,0,1,.13.26,0.67,0.67,0,0,1,0,.25,1.69,1.69,0,0,1-.06.25c0,0.05,0,.1,0,0.14a0.48,0.48,0,0,0,0,.14,0.25,0.25,0,0,0,.07.16,0.73,0.73,0,0,0,.13.14,0.37,0.37,0,0,0,.13-0.12,0.26,0.26,0,0,0,.06-0.16,0.7,0.7,0,0,0,0-.15,0.69,0.69,0,0,1,0-.16,0.54,0.54,0,0,1,0-.15,0.56,0.56,0,0,1,.07-0.16,1,1,0,0,0,.09-0.22,0.72,0.72,0,0,0,0-.28,0.72,0.72,0,0,1-.13-0.28,0.33,0.33,0,0,1,.08-0.16,1.12,1.12,0,0,1,.15-0.15,0.25,0.25,0,0,0,0,.14l0.13,0.14a0.65,0.65,0,0,1,.07.14,0.53,0.53,0,0,1,0,.18,1.77,1.77,0,0,1,0,.29,0.24,0.24,0,0,0,0,.16,0.61,0.61,0,0,0,.11.16l0.1,0.1a0.82,0.82,0,0,1,.1.14,1.06,1.06,0,0,1,.14.34,1.65,1.65,0,0,1,0,.28,1.36,1.36,0,0,1,0,.19,0.67,0.67,0,0,1-.06.2,0.75,0.75,0,0,1-.12.21,1.88,1.88,0,0,1-.27.22,1.85,1.85,0,0,1-.27.15,3.16,3.16,0,0,1-.33.08,1.21,1.21,0,0,0-.22.05,2.67,2.67,0,0,0-.22.19,0.3,0.3,0,0,1-.28,0,2.25,2.25,0,0,1-.16-0.17,0.94,0.94,0,0,0-.4-0.09l-0.22,0-0.23-.08a1.64,1.64,0,0,1-.26-0.15,0.78,0.78,0,0,1-.16-0.21,1.65,1.65,0,0,1-.12-0.31,3,3,0,0,1,0-.33,1.93,1.93,0,0,1,0-.32,0.7,0.7,0,0,1,0-.19,1.64,1.64,0,0,1,.09-0.18l0.08-.11a1.51,1.51,0,0,0,.15-0.17,0.77,0.77,0,0,0,0-.22c0-.06,0-0.16,0-0.21a0.41,0.41,0,0,1,.1-0.18l0.13-.13,0.15-.16a0.22,0.22,0,0,1,.11-0.1s0,0.12,0,.19a0.52,0.52,0,0,1,0,.35,0.31,0.31,0,0,0-.07.14,0.5,0.5,0,0,0,0,.14,0.48,0.48,0,0,0,.09.17,0.57,0.57,0,0,1,.11.17,0.6,0.6,0,0,1,0,.42,0.4,0.4,0,0,0,0,.15,0.38,0.38,0,0,0,.1.14,0.21,0.21,0,0,0,.14.1,2,2,0,0,0,.11-0.26,0.43,0.43,0,0,0,0-.24s-0.09-.26-0.11-0.33a1.66,1.66,0,0,0-.06-0.18,0.38,0.38,0,0,1,0-.29,0.76,0.76,0,0,1,.12-0.15,0.78,0.78,0,0,0,.13-0.19,0.39,0.39,0,0,0,0-.2,0.64,0.64,0,0,0,0-.16c0-.06,0-0.11-0.06-0.18l0-.16a0.56,0.56,0,0,1,0-.31,0.88,0.88,0,0,1,.12-0.21,0.77,0.77,0,0,1,.14-0.13" transform="translate(-951.26 -140.71)"/>
        <rect class="f" y="25.64" width="58.92" height="8.73"/>
      </g>
    </g>
  </g>
</svg>
