<svg xmlns="http://www.w3.org/2000/svg" xmlns:xlink="http://www.w3.org/1999/xlink" viewBox="0 0 58.92 34.37">
  <defs>
    <style>
      .a {
        fill: none;
      }

      .b {
        clip-path: url(#a);
      }

      .c {
        fill: #22368f;
      }

      .d {
        fill: #fff;
      }

      .e {
        fill: #bc0030;
      }

      .f {
        fill: #f3d02f;
      }
    </style>
    <clipPath id="a" transform="translate(-104.57 -197.48)">
      <rect class="a" x="104.57" y="197.48" width="58.92" height="34.37"/>
    </clipPath>
  </defs>
  <title>Cape_Verde</title>
  <g class="b">
    <rect class="c" width="58.92" height="34.37"/>
    <rect class="d" y="17.19" width="58.92" height="8.59"/>
    <rect class="e" y="20.05" width="58.92" height="2.87"/>
    <polygon class="f" points="21.91 11.17 21.53 12.36 20.28 12.36 21.29 13.09 20.9 14.28 21.91 13.54 22.92 14.28 22.54 13.09 23.55 12.36 22.3 12.36 21.91 11.17"/>
    <polygon class="f" points="16.86 12.81 16.48 14 15.23 14 16.24 14.73 15.85 15.92 16.86 15.19 17.87 15.92 17.49 14.73 18.5 14 17.25 14 16.86 12.81"/>
    <polygon class="f" points="13.74 17.11 13.35 18.3 12.11 18.3 13.12 19.03 12.73 20.22 13.74 19.48 14.75 20.22 14.36 19.03 15.37 18.3 14.13 18.3 13.74 17.11"/>
    <polygon class="f" points="13.74 22.42 13.35 23.61 12.11 23.61 13.12 24.34 12.73 25.53 13.74 24.8 14.75 25.53 14.36 24.34 15.37 23.61 14.13 23.61 13.74 22.42"/>
    <polygon class="f" points="16.86 26.72 16.48 27.9 15.23 27.9 16.24 28.64 15.85 29.82 16.86 29.09 17.87 29.82 17.49 28.64 18.5 27.9 17.25 27.9 16.86 26.72"/>
    <polygon class="f" points="21.91 28.36 21.53 29.55 20.28 29.55 21.29 30.28 20.9 31.47 21.91 30.73 22.92 31.47 22.54 30.28 23.55 29.55 22.3 29.55 21.91 28.36"/>
    <polygon class="f" points="26.96 26.72 26.58 27.9 25.33 27.9 26.34 28.64 25.95 29.82 26.96 29.09 27.97 29.82 27.59 28.64 28.6 27.9 27.35 27.9 26.96 26.72"/>
    <polygon class="f" points="30.09 17.11 29.7 18.3 28.45 18.3 29.46 19.03 29.07 20.22 30.09 19.48 31.09 20.22 30.71 19.03 31.72 18.3 30.47 18.3 30.09 17.11"/>
    <polygon class="f" points="30.09 22.42 29.7 23.61 28.45 23.61 29.46 24.34 29.07 25.53 30.09 24.8 31.09 25.53 30.71 24.34 31.72 23.61 30.47 23.61 30.09 22.42"/>
    <polygon class="f" points="26.96 12.81 26.58 14 25.33 14 26.34 14.73 25.95 15.92 26.96 15.19 27.97 15.92 27.59 14.73 28.6 14 27.35 14 26.96 12.81"/>
  </g>
</svg>
