<svg xmlns="http://www.w3.org/2000/svg" xmlns:xlink="http://www.w3.org/1999/xlink" viewBox="0 0 58.92 34.37">
  <defs>
    <style>
      .a {
        fill: none;
      }

      .b {
        clip-path: url(#a);
      }

      .c {
        fill: #120065;
      }

      .d {
        fill: #fff;
      }

      .e {
        fill: #ba0019;
      }

      .f {
        fill: #f3c427;
      }

      .g {
        fill: #6c6666;
      }

      .h {
        fill: #233697;
      }

      .i {
        fill: #225326;
      }

      .j {
        fill: #0a1e10;
      }

      .k {
        fill: #00000f;
      }

      .l {
        clip-path: url(#d);
      }

      .m {
        fill: #c20022;
      }

      .n {
        clip-path: url(#e);
      }

      .o {
        clip-path: url(#f);
      }

      .p {
        fill: #f5dc60;
      }

      .q {
        clip-path: url(#g);
      }

      .r {
        clip-path: url(#h);
      }

      .s {
        clip-path: url(#i);
      }

      .t {
        clip-path: url(#j);
      }

      .u {
        fill: #f2c327;
      }

      .v {
        clip-path: url(#k);
      }

      .w {
        clip-path: url(#l);
      }

      .x {
        fill: #325fb7;
      }

      .y {
        clip-path: url(#m);
      }

      .z {
        clip-path: url(#n);
      }

      .aa {
        clip-path: url(#o);
      }

      .ab {
        clip-path: url(#p);
      }

      .ac {
        clip-path: url(#q);
      }

      .ad {
        clip-path: url(#r);
      }

      .ae {
        clip-path: url(#s);
      }

      .af {
        clip-path: url(#t);
      }

      .ag {
        clip-path: url(#u);
      }

      .ah {
        clip-path: url(#v);
      }

      .ai {
        clip-path: url(#w);
      }

      .aj {
        clip-path: url(#x);
      }

      .ak {
        clip-path: url(#y);
      }

      .al {
        clip-path: url(#z);
      }

      .am {
        clip-path: url(#aa);
      }

      .an {
        clip-path: url(#ab);
      }

      .ao {
        clip-path: url(#ac);
      }

      .ap {
        clip-path: url(#ad);
      }

      .aq {
        clip-path: url(#ae);
      }

      .ar {
        clip-path: url(#af);
      }

      .as {
        clip-path: url(#ag);
      }

      .at {
        clip-path: url(#ah);
      }

      .au {
        fill: #07003b;
      }

      .av {
        clip-path: url(#ai);
      }

      .aw {
        fill: #16341d;
      }

      .ax {
        clip-path: url(#aj);
      }

      .ay {
        clip-path: url(#ak);
      }
    </style>
    <clipPath id="a" transform="translate(-175.26 -197.48)">
      <rect class="a" x="175.26" y="197.48" width="58.92" height="34.37"/>
    </clipPath>
    <clipPath id="d" transform="translate(-175.26 -197.48)">
      <rect class="a" x="213.87" y="217.41" width="2.08" height="2.28"/>
    </clipPath>
    <clipPath id="e" transform="translate(-175.26 -197.48)">
      <rect class="a" x="223.1" y="217.41" width="1.91" height="1.99"/>
    </clipPath>
    <clipPath id="f" transform="translate(-175.26 -197.48)">
      <rect class="a" x="222.52" y="218.09" width="4.4" height="3.47"/>
    </clipPath>
    <clipPath id="g" transform="translate(-175.26 -197.48)">
      <rect class="a" x="212.29" y="217.83" width="4.19" height="3.73"/>
    </clipPath>
    <clipPath id="h" transform="translate(-175.26 -197.48)">
      <rect class="a" x="213.08" y="217.61" width="12.97" height="5.44"/>
    </clipPath>
    <clipPath id="i" transform="translate(-175.26 -197.48)">
      <rect class="a" x="225.8" y="219" width="1.32" height="1.99"/>
    </clipPath>
    <clipPath id="j" transform="translate(-175.26 -197.48)">
      <rect class="a" x="211.9" y="219.06" width="1.32" height="2.1"/>
    </clipPath>
    <clipPath id="k" transform="translate(-175.26 -197.48)">
      <rect class="a" x="215.16" y="210.76" width="8.86" height="4.1"/>
    </clipPath>
    <clipPath id="l" transform="translate(-175.26 -197.48)">
      <rect class="a" x="215.16" y="215.19" width="8.86" height="1.84"/>
    </clipPath>
    <clipPath id="m" transform="translate(-175.26 -197.48)">
      <rect class="a" x="215.36" y="217.38" width="8.47" height="1.86"/>
    </clipPath>
    <clipPath id="n" transform="translate(-175.26 -197.48)">
      <rect class="a" x="217.53" y="219.61" width="4.13" height="1.84"/>
    </clipPath>
    <clipPath id="o" transform="translate(-175.26 -197.48)">
      <rect class="a" x="215.92" y="213.06" width="2.9" height="0.78"/>
    </clipPath>
    <clipPath id="p" transform="translate(-175.26 -197.48)">
      <rect class="a" x="215.96" y="211.35" width="1.92" height="1.96"/>
    </clipPath>
    <clipPath id="q" transform="translate(-175.26 -197.48)">
      <rect class="a" x="222.35" y="213.47" width="0.3" height="0.13"/>
    </clipPath>
    <clipPath id="r" transform="translate(-175.26 -197.48)">
      <rect class="a" x="222.74" y="213.62" width="0.19" height="0.25"/>
    </clipPath>
    <clipPath id="s" transform="translate(-175.26 -197.48)">
      <rect class="a" x="223.2" y="213.61" width="0.23" height="0.22"/>
    </clipPath>
    <clipPath id="t" transform="translate(-175.26 -197.48)">
      <rect class="a" x="219.34" y="213.39" width="0.36" height="0.16"/>
    </clipPath>
    <clipPath id="u" transform="translate(-175.26 -197.48)">
      <rect class="a" x="219.7" y="213.58" width="0.25" height="0.24"/>
    </clipPath>
    <clipPath id="v" transform="translate(-175.26 -197.48)">
      <rect class="a" x="219.47" y="213.13" width="0.25" height="0.14"/>
    </clipPath>
    <clipPath id="w" transform="translate(-175.26 -197.48)">
      <rect class="a" x="215.86" y="212.98" width="0.34" height="0.19"/>
    </clipPath>
    <clipPath id="x" transform="translate(-175.26 -197.48)">
      <rect class="a" x="215.52" y="213.29" width="0.47" height="0.19"/>
    </clipPath>
    <clipPath id="y" transform="translate(-175.26 -197.48)">
      <rect class="a" x="215.82" y="213.57" width="0.41" height="0.2"/>
    </clipPath>
    <clipPath id="z" transform="translate(-175.26 -197.48)">
      <rect class="a" x="215.98" y="211.41" width="0.25" height="0.22"/>
    </clipPath>
    <clipPath id="aa" transform="translate(-175.26 -197.48)">
      <rect class="a" x="216.34" y="211.21" width="0.26" height="0.16"/>
    </clipPath>
    <clipPath id="ab" transform="translate(-175.26 -197.48)">
      <rect class="a" x="216.72" y="211.25" width="0.23" height="0.27"/>
    </clipPath>
    <clipPath id="ac" transform="translate(-175.26 -197.48)">
      <rect class="a" x="219.52" y="212.8" width="2.13" height="0.9"/>
    </clipPath>
    <clipPath id="ad" transform="translate(-175.26 -197.48)">
      <rect class="a" x="218.05" y="211.13" width="5.44" height="2.62"/>
    </clipPath>
    <clipPath id="ae" transform="translate(-175.26 -197.48)">
      <rect class="a" x="217.35" y="211.19" width="1.69" height="1.99"/>
    </clipPath>
    <clipPath id="af" transform="translate(-175.26 -197.48)">
      <rect class="a" x="217.93" y="211.71" width="0.33" height="0.13"/>
    </clipPath>
    <clipPath id="ag" transform="translate(-175.26 -197.48)">
      <rect class="a" x="218.33" y="211.7" width="0.33" height="0.13"/>
    </clipPath>
    <clipPath id="ah" transform="translate(-175.26 -197.48)">
      <rect class="a" x="218.09" y="212.22" width="0.2" height="0.34"/>
    </clipPath>
    <clipPath id="ai" transform="translate(-175.26 -197.48)">
      <rect class="a" x="218.22" y="217.62" width="2.87" height="2.57"/>
    </clipPath>
    <clipPath id="aj" transform="translate(-175.26 -197.48)">
      <rect class="a" x="216.09" y="215.3" width="2.84" height="2.43"/>
    </clipPath>
    <clipPath id="ak" transform="translate(-175.26 -197.48)">
      <rect class="a" x="220.38" y="215.3" width="2.87" height="2.43"/>
    </clipPath>
  </defs>
  <title>Cayman_Islands</title>
  <g class="b">
    <g class="b">
      <rect class="c" width="58.92" height="34.37"/>
      <rect class="c" width="29.77" height="14.89"/>
      <path class="d" d="M190.14,206.59l11.56,5.78H205V210.7l-11.56-5.78Zm-14.89,4.12v1.66h3.33l11.56-5.78-3.33-1.66Zm0-13.22v1.66l11.56,5.78,3.33-1.66-11.56-5.78h-3.33Zm26.44,0-11.56,5.78,3.33,1.66L205,199.15v-1.66H201.7Z" transform="translate(-175.26 -197.48)"/>
      <polygon class="d" points="12.4 0 12.4 4.96 0 4.96 0 9.93 12.4 9.93 12.4 14.89 17.37 14.89 17.37 9.93 29.77 9.93 29.77 4.96 17.37 4.96 17.37 0 12.4 0"/>
      <polygon class="e" points="13.4 0 13.4 5.95 0 5.95 0 8.93 13.4 8.93 13.4 14.89 16.37 14.89 16.37 8.93 29.77 8.93 29.77 5.95 16.37 5.95 16.37 0 13.4 0"/>
      <path class="e" d="M185.18,207.41l-9.92,5h2.22l9.92-5h-2.22Zm9.92,0,9.92,5v-1.11l-7.7-3.85H195.1Zm-19.85-9.92v1.11l7.7,3.85h2.22Zm27.55,0-9.92,5h2.22l9.92-5h-2.22Z" transform="translate(-175.26 -197.48)"/>
      <g class="b">
        <path class="d" d="M217.78,207.46a0.39,0.39,0,0,1-.29.11,1.18,1.18,0,0,0-.68-0.43c-0.29.07-.47,0.18-0.59,0.18a0.45,0.45,0,0,0-.44.39,0.7,0.7,0,0,0,.09.5A0.39,0.39,0,0,0,216,208s0,0.36.23,0.36a1.13,1.13,0,0,1,.68.14,2,2,0,0,0-.15.57,2.47,2.47,0,0,0,.32.57,1.05,1.05,0,0,0-.38.46,1.29,1.29,0,0,0,.06.36l-1.7.07s-0.12,5-.06,5.43l0.2,1.35a0.73,0.73,0,0,0-.7.2,9.51,9.51,0,0,0-1.48,1.12,1,1,0,0,0,0,.64,1.91,1.91,0,0,1,.41.64,2.42,2.42,0,0,1-.81-0.84,0.62,0.62,0,0,0-.84.05,1.53,1.53,0,0,0,0,.64c0,0.07.35,1.21,0.44,1.46a2.11,2.11,0,0,0,1.42.58,2.27,2.27,0,0,0,1.16-.3,7.16,7.16,0,0,0,5,1.74,8.13,8.13,0,0,0,4.61-1.67,3.56,3.56,0,0,0,1.47.25,2,2,0,0,0,1.06-.6,14.56,14.56,0,0,0,.47-1.74,0.42,0.42,0,0,0-.26-0.53,0.72,0.72,0,0,0-.56,0,1.81,1.81,0,0,0-.41.62,4.18,4.18,0,0,0-.34.32,2.54,2.54,0,0,0,.31-0.78,0.7,0.7,0,0,0-.09-0.67c-0.21-.18-0.52-0.25-0.88-0.51a3.26,3.26,0,0,0-.82-0.62,0.87,0.87,0,0,1-.41-0.11,1.81,1.81,0,0,0,.21-1c-0.06-.53,0-5.62,0-5.62a10.34,10.34,0,0,1-1.47,0,2.17,2.17,0,0,0,0-.89,3,3,0,0,1-.47-0.6,1.1,1.1,0,0,0,.76-0.53,0.78,0.78,0,0,0-.62-0.36c-0.18-.11-0.7-0.6-0.76-0.6s1.53-1,1.41-1a2.63,2.63,0,0,0-.94-0.07,9.69,9.69,0,0,0,.7-0.78,2.54,2.54,0,0,1-.64-0.18,0.51,0.51,0,0,0,.2-0.46l-0.76.11a0.93,0.93,0,0,0-.24-0.25,1.72,1.72,0,0,0-.32.14l-0.15-.39-0.32.21-0.15-.18a0.34,0.34,0,0,1-.26,0,0.26,0.26,0,0,0-.07-0.18s-0.33.23-.34,0.21-0.33-.46-0.33-0.45-0.23.85-.24,0.85a1.58,1.58,0,0,0-.24,0s-1.16-.66-1.15-0.65l0.3,0.65a2.6,2.6,0,0,0-.25.15s0,0.29,0,.29l-0.77-.26s0.29,0.59.27,0.59l-0.56,0s0.26,0.49.26,0.49l-0.09.29a5,5,0,0,1,.77.62h0Zm4.9,12.35a3.47,3.47,0,0,1,.41.6c-0.06,0-1,.66-1.44.78s-1.69.36-1.61,0.34,1.16-.61,1.6-0.9a6.84,6.84,0,0,0,1-.82h0Zm-6.13,0c-0.06.07-.34,0.62-0.34,0.62a7.55,7.55,0,0,0,1.41.78,6.6,6.6,0,0,0,1.57.27,11.26,11.26,0,0,1-1.64-.85c-0.35-.28-1-0.82-1-0.82h0Z" transform="translate(-175.26 -197.48)"/>
        <path class="f" d="M217.19,206.65l0.63,0.46c0.12,0.09.5,0.48,0.53,0.46l0.23-.21a2.78,2.78,0,0,0-.69-0.5,6.46,6.46,0,0,1-.7-0.21h0Z" transform="translate(-175.26 -197.48)"/>
        <path class="g" d="M218.35,207.61a1,1,0,0,1-.32-0.26l-0.23-.21-0.6-.44,0,0h0l0,0v-0.07l0.08,0.06,0.28,0.08,0.39,0.11a2.79,2.79,0,0,1,.7.5,1.06,1.06,0,0,1-.24.27h0Zm-0.93-.84,0.43,0.31,0.24,0.22,0.26,0.23,0.21-.2h0a5.76,5.76,0,0,0-.67-0.44l-0.38-.11-0.08,0h0Z" transform="translate(-175.26 -197.48)"/>
        <path class="f" d="M217.12,206.24a6.31,6.31,0,0,1,1.1.75,3,3,0,0,1,.38.57l0.4-.07a1.66,1.66,0,0,0-.54-0.83,7.43,7.43,0,0,0-1.34-.41h0Z" transform="translate(-175.26 -197.48)"/>
        <path class="g" d="M218.6,207.59s0,0-.09-0.11a1.78,1.78,0,0,0-.32-0.47,6.44,6.44,0,0,0-1.08-.73v-0.07h0a7.49,7.49,0,0,1,1.34.41,1.51,1.51,0,0,1,.54.8h0v0.07a0.05,0.05,0,0,1,0,0h0a2.06,2.06,0,0,1-.39.07h0Zm-1.23-1.25a6.08,6.08,0,0,1,.87.62,1.85,1.85,0,0,1,.33.49l0,0.07,0.33-.06h0a1.43,1.43,0,0,0-.5-0.76,5.72,5.72,0,0,0-1.06-.34h0Z" transform="translate(-175.26 -197.48)"/>
        <path class="f" d="M220.92,205s-0.16.53-.21,0.69-0.12.5-.12,0.5a1.43,1.43,0,0,1-.62,0c0-.09,1-1.17.94-1.17h0Z" transform="translate(-175.26 -197.48)"/>
        <path class="g" d="M220.17,206.21a0.27,0.27,0,0,1-.22,0,2.47,2.47,0,0,1,.5-0.68c0.19-.22.37-0.43,0.42-0.51l0,0,0,0.08c0,0.11-.15.52-0.19,0.66s-0.12.49-.12,0.49a1.44,1.44,0,0,1-.46.06h0Zm-0.14-.08,0.56,0a2.3,2.3,0,0,1,.09-0.47l0.13-.47-0.3.36c-0.19.23-.45,0.53-0.49,0.6h0Z" transform="translate(-175.26 -197.48)"/>
        <path class="f" d="M217.27,205.6a8.36,8.36,0,0,1,1,1,8.52,8.52,0,0,1,.54,1s0.72-.18.72-0.16a14.08,14.08,0,0,0-1.22-1.29,5.36,5.36,0,0,0-1.07-.5h0Z" transform="translate(-175.26 -197.48)"/>
        <path class="g" d="M218.84,207.59s0,0-.1-0.16a5.79,5.79,0,0,0-.47-0.83,8.06,8.06,0,0,0-1-1l0,0-0.05-.13,0.11,0.09v0l0,0,0.15,0.06a3.54,3.54,0,0,1,.91.43,10.4,10.4,0,0,1,1.09,1.15l0.13,0.14,0.09,0.08h-0.13l-0.53.12-0.17,0h0Zm-1.37-1.87a6.74,6.74,0,0,1,.86.84,5.74,5.74,0,0,1,.48.85l0.05,0.11,0.14,0,0.48-.11,0,0h0l-0.07-.07a10.56,10.56,0,0,0-1.08-1.14,3.28,3.28,0,0,0-.85-0.41h0Z" transform="translate(-175.26 -197.48)"/>
        <path class="f" d="M218.06,205.44a9.2,9.2,0,0,1,.45,1c0.07,0.25.29,0.89,0.29,0.89h0.6a5.23,5.23,0,0,0-.62-1.19,4.72,4.72,0,0,0-.73-0.66h0Z" transform="translate(-175.26 -197.48)"/>
        <path class="g" d="M219.46,207.32h-0.66a7.53,7.53,0,0,1-.33-0.91,9.06,9.06,0,0,0-.45-0.95h0l0.07,0,0.09,0.07a3.54,3.54,0,0,1,.64.58,5.16,5.16,0,0,1,.62,1.2l0,0h0Zm-1.29-1.74a6.74,6.74,0,0,1,.38.81c0.07,0.25.29,0.88,0.29,0.88l0.51,0a4.91,4.91,0,0,0-.59-1.13,3.34,3.34,0,0,0-.59-0.54h0Z" transform="translate(-175.26 -197.48)"/>
        <path class="f" d="M218.26,205a5.75,5.75,0,0,1,.69,1.08c0.13,0.41.23,0.92,0.23,0.92l0.53-.16a6.73,6.73,0,0,0-.76-1.33,5.44,5.44,0,0,0-.69-0.51h0Z" transform="translate(-175.26 -197.48)"/>
        <path class="g" d="M219.16,207.1v0s-0.1-.52-0.23-0.92a3.9,3.9,0,0,0-.57-0.91,0.85,0.85,0,0,1-.12-0.17l0.06,0,0.09,0.06a3.73,3.73,0,0,1,.59.45,6.61,6.61,0,0,1,.77,1.34l-0.59.22h0Zm-0.74-1.91a3.89,3.89,0,0,1,.57.92c0.11,0.34.2,0.76,0.23,0.89l0.49-.15a11.64,11.64,0,0,0-.77-1.27,3.55,3.55,0,0,0-.51-0.39h0Z" transform="translate(-175.26 -197.48)"/>
        <path class="f" d="M222.65,206.72a14,14,0,0,0-1.5.27,1.22,1.22,0,0,0-.62.59,2.6,2.6,0,0,0,.54.19,2.12,2.12,0,0,1,.68-0.55,4.63,4.63,0,0,0,.9-0.5h0Z" transform="translate(-175.26 -197.48)"/>
        <path class="g" d="M221.07,207.81a3,3,0,0,1-.55-0.2,1,1,0,0,1,.62-0.65,14,14,0,0,1,1.5-.27,2.26,2.26,0,0,1-.88.57,2.07,2.07,0,0,0-.66.54l0,0h0Zm1.53-1.09c-0.15.06-1.08,0.19-1.44,0.3a1.18,1.18,0,0,0-.59.57c0.15,0,.42.14,0.49,0.14a2.12,2.12,0,0,1,.68-0.55,6.4,6.4,0,0,0,.86-0.46h0Z" transform="translate(-175.26 -197.48)"/>
        <path class="f" d="M222.61,205.85s-0.91.89-1.19,1.17-0.54.59-.57,0.6a1.56,1.56,0,0,1-.54-0.12,11.12,11.12,0,0,1,1.32-1.13,7.28,7.28,0,0,1,1-.51h0Z" transform="translate(-175.26 -197.48)"/>
        <path class="g" d="M220.83,207.67a1.62,1.62,0,0,1-.56-0.14,8,8,0,0,1,1.33-1.19,5.49,5.49,0,0,1,.87-0.46l0.11,0h0l0,0.06,0,0v0h0c-0.05,0-.89.87-1.18,1.17l-0.4.43-0.18.18h0Zm-0.49-.14c0.08,0,.41.07,0.49,0.07v0l0.15-.16,0.41-.43,1-1a5.29,5.29,0,0,0-.77.42,11,11,0,0,0-1.31,1.13h0Z" transform="translate(-175.26 -197.48)"/>
        <path class="f" d="M222.39,205.23c-0.09.13-1,1-1.19,1.28s-0.62.83-.62,0.83a1,1,0,0,1-.42-0.35,6.48,6.48,0,0,1,1.09-1.08c0.44-.35,1.19-0.64,1.14-0.67h0Z" transform="translate(-175.26 -197.48)"/>
        <path class="g" d="M220.59,207.39l0,0a0.79,0.79,0,0,1-.44-0.4,6.36,6.36,0,0,1,1.1-1.1,5.23,5.23,0,0,1,.9-0.53l0.22-.12h0l0,0h0v0h0l0.07-.1v0.13h0v0l-0.4.43c-0.28.29-.63,0.65-0.76,0.82s-0.62.83-.62,0.83l0,0h0Zm1.6-2,0,0a5.07,5.07,0,0,0-.89.52,6.7,6.7,0,0,0-1.07,1.06,0.94,0.94,0,0,0,.38.3c0.08-.11.39-0.55,0.6-0.81s0.49-.54.77-0.83l0.25-.26h0Z" transform="translate(-175.26 -197.48)"/>
        <path class="f" d="M221.51,205.16s-0.53.67-.63,0.85-0.41,1-.41,1-0.46-.48-0.46-0.5a7.82,7.82,0,0,1,.91-1,2,2,0,0,1,.59-0.28h0Z" transform="translate(-175.26 -197.48)"/>
        <path class="g" d="M220.48,207l0,0a2.37,2.37,0,0,1-.47-0.52,6.67,6.67,0,0,1,.92-1.06,1.12,1.12,0,0,1,.53-0.26l0.05,0h0l0.08,0,0,0.1c-0.11.13-.52,0.67-0.61,0.83s-0.41.95-.41,1l0,0.05h0Zm0.92-1.8a1.08,1.08,0,0,0-.45.23,7.89,7.89,0,0,0-.9,1s0.25,0.24.41,0.42c0.07-.18.3-0.76,0.39-0.91s0.37-.52.53-0.73h0l0,0h0Z" transform="translate(-175.26 -197.48)"/>
        <path class="f" d="M220.23,206.13a0.19,0.19,0,1,1-.19-0.23,0.21,0.21,0,0,1,.19.23h0Z" transform="translate(-175.26 -197.48)"/>
        <path class="g" d="M220,206.39a0.26,0.26,0,1,1,.22-0.25,0.24,0.24,0,0,1-.22.25h0Zm0-.45a0.18,0.18,0,0,0-.16.2,0.16,0.16,0,1,0,.31,0,0.18,0.18,0,0,0-.16-0.2h0Z" transform="translate(-175.26 -197.48)"/>
        <path class="f" d="M220.61,206.43a0.19,0.19,0,1,1-.19-0.2,0.19,0.19,0,0,1,.19.2h0Z" transform="translate(-175.26 -197.48)"/>
        <path class="g" d="M220.42,206.66a0.23,0.23,0,1,1,.22-0.23,0.22,0.22,0,0,1-.22.23h0Zm0-.4a0.16,0.16,0,0,0-.16.17,0.16,0.16,0,0,0,.31,0,0.16,0.16,0,0,0-.16-0.17h0Z" transform="translate(-175.26 -197.48)"/>
        <path class="f" d="M219.78,206.21a0.23,0.23,0,1,1-.23-0.2,0.22,0.22,0,0,1,.23.2h0Z" transform="translate(-175.26 -197.48)"/>
        <path class="g" d="M219.55,206.44a0.23,0.23,0,1,1,.26-0.23,0.25,0.25,0,0,1-.26.23h0Zm0-.4a0.19,0.19,0,0,0-.2.17c0,0.19.4,0.19,0.4,0a0.19,0.19,0,0,0-.2-0.17h0Z" transform="translate(-175.26 -197.48)"/>
        <path class="f" d="M220.38,206.62a0.28,0.28,0,1,1-.26-0.39,0.34,0.34,0,0,1,.26.39h0Z" transform="translate(-175.26 -197.48)"/>
        <path class="g" d="M220.12,207a0.45,0.45,0,0,1,0-.84,0.37,0.37,0,0,1,.29.42,0.37,0.37,0,0,1-.29.42h0Zm0-.78a0.32,0.32,0,0,0-.23.36,0.32,0.32,0,0,0,.23.36,0.4,0.4,0,0,0,0-.72h0Z" transform="translate(-175.26 -197.48)"/>
        <path class="f" d="M219.67,206.63a0.26,0.26,0,1,1-.26-0.3,0.28,0.28,0,0,1,.26.3h0Z" transform="translate(-175.26 -197.48)"/>
        <path class="g" d="M219.41,207a0.33,0.33,0,1,1,.29-0.33,0.31,0.31,0,0,1-.29.33h0Zm0-.6a0.28,0.28,0,1,0,.23.27,0.25,0.25,0,0,0-.23-0.27h0Z" transform="translate(-175.26 -197.48)"/>
        <path class="f" d="M219.32,206.87a0.21,0.21,0,1,1-.39,0h0a0.21,0.21,0,1,1,.39,0h0Z" transform="translate(-175.26 -197.48)"/>
        <path class="g" d="M219.12,207.16a0.3,0.3,0,1,1,.23-0.29,0.27,0.27,0,0,1-.23.29h0Zm0-.53a0.25,0.25,0,1,0,.17.23,0.21,0.21,0,0,0-.17-0.23h0Z" transform="translate(-175.26 -197.48)"/>
        <path class="f" d="M220.77,206.84a0.3,0.3,0,1,1-.3-0.31,0.31,0.31,0,0,1,.3.31h0Z" transform="translate(-175.26 -197.48)"/>
        <path class="g" d="M220.47,207.19a0.34,0.34,0,1,1,.33-0.34,0.34,0.34,0,0,1-.33.34h0Zm0-.63a0.28,0.28,0,1,0,.27.28,0.28,0.28,0,0,0-.27-0.28h0Z" transform="translate(-175.26 -197.48)"/>
        <path class="f" d="M220,206.39a0.25,0.25,0,1,1-.24-0.19,0.22,0.22,0,0,1,.24.19h0Z" transform="translate(-175.26 -197.48)"/>
        <path class="g" d="M219.81,206.61a0.22,0.22,0,1,1,.27-0.22,0.25,0.25,0,0,1-.27.22h0Zm0-.38a0.19,0.19,0,0,0-.21.16c0,0.18.42,0.17,0.42,0a0.19,0.19,0,0,0-.21-0.16h0Z" transform="translate(-175.26 -197.48)"/>
        <path class="f" d="M220.09,206.81a0.34,0.34,0,1,1-.33-0.28,0.31,0.31,0,0,1,.33.28h0Z" transform="translate(-175.26 -197.48)"/>
        <path class="g" d="M219.76,207.11a0.31,0.31,0,1,1,.36-0.31,0.34,0.34,0,0,1-.36.31h0Zm0-.55a0.25,0.25,0,1,0,.3.25,0.28,0.28,0,0,0-.3-0.25h0Z" transform="translate(-175.26 -197.48)"/>
        <path class="f" d="M220.94,207.3a0.31,0.31,0,1,1-.31-0.34,0.33,0.33,0,0,1,.31.34h0Z" transform="translate(-175.26 -197.48)"/>
        <path class="g" d="M220.63,207.66a0.37,0.37,0,1,1,.34-0.37,0.36,0.36,0,0,1-.34.37h0Zm0-.68a0.31,0.31,0,1,0,.28.31,0.3,0.3,0,0,0-.28-0.31h0Z" transform="translate(-175.26 -197.48)"/>
        <path class="f" d="M219.24,207.21a0.18,0.18,0,1,1-.18-0.23,0.21,0.21,0,0,1,.18.23h0Z" transform="translate(-175.26 -197.48)"/>
        <path class="g" d="M219.06,207.46a0.26,0.26,0,1,1,.21-0.26,0.24,0.24,0,0,1-.21.26h0Zm0-.45a0.18,0.18,0,0,0-.15.2,0.15,0.15,0,1,0,.29,0,0.18,0.18,0,0,0-.15-0.2h0Z" transform="translate(-175.26 -197.48)"/>
        <path class="f" d="M220.48,207.17a0.27,0.27,0,1,1-.27-0.29,0.28,0.28,0,0,1,.27.29h0Z" transform="translate(-175.26 -197.48)"/>
        <path class="g" d="M220.21,207.49a0.32,0.32,0,1,1,.3-0.32,0.31,0.31,0,0,1-.3.32h0Zm0-.58a0.26,0.26,0,1,0,.24.26,0.25,0.25,0,0,0-.24-0.26h0Z" transform="translate(-175.26 -197.48)"/>
        <path class="f" d="M219.63,207.16a0.24,0.24,0,1,1-.24-0.25,0.24,0.24,0,0,1,.24.25h0Z" transform="translate(-175.26 -197.48)"/>
        <path class="g" d="M219.39,207.44a0.28,0.28,0,1,1,.27-0.28,0.27,0.27,0,0,1-.27.28h0Zm0-.5a0.22,0.22,0,1,0,.21.22,0.22,0.22,0,0,0-.21-0.22h0Z" transform="translate(-175.26 -197.48)"/>
        <path class="f" d="M220,207.23a0.25,0.25,0,1,1-.25-0.28,0.26,0.26,0,0,1,.25.28h0Z" transform="translate(-175.26 -197.48)"/>
        <path class="g" d="M219.8,207.54a0.31,0.31,0,1,1,.28-0.31,0.29,0.29,0,0,1-.28.31h0Zm0-.55a0.25,0.25,0,1,0,.22.25,0.23,0.23,0,0,0-.22-0.25h0Z" transform="translate(-175.26 -197.48)"/>
        <path class="f" d="M219,205.58a4.47,4.47,0,0,1,.5.18s-0.54.25-.46,0.23,0.6-.1.56-0.1a0.88,0.88,0,0,0-.33.45,1.83,1.83,0,0,0,.39-0.33s0.27,0.48.29,0.45,0-.48,0-0.48,0.52,0.3.48,0.27a2.45,2.45,0,0,1-.31-0.38,6.42,6.42,0,0,0,.64,0l-0.44-.25a1,1,0,0,0,.23-0.33,3.46,3.46,0,0,0-.5.3s0.52-.68.52-0.68l-0.48.28a1.24,1.24,0,0,0,0-.38s-0.37.53-.39,0.53a4.36,4.36,0,0,1-.1-0.5,1,1,0,0,1-.1.58,3.93,3.93,0,0,1-.56.1h0Z" transform="translate(-175.26 -197.48)"/>
        <path class="g" d="M219.92,206.49a0.51,0.51,0,0,1-.2-0.28l-0.1-.17a0.15,0.15,0,0,1,0,.06,1,1,0,0,1-.33.26,0.58,0.58,0,0,1,.23-0.43l-0.08,0L219,206c-0.05,0-.05-0.05.41-0.27a4.24,4.24,0,0,1-.44-0.13,1.29,1.29,0,0,1,.42-0.14l0.12,0a0.91,0.91,0,0,0,.08-0.55,3.28,3.28,0,0,1,.15.48,0.8,0.8,0,0,1,.14-0.23,1.87,1.87,0,0,1,.22-0.3c0.05,0,.08,0,0,0.41l0.43-.31a2.59,2.59,0,0,1-.38.61,1.32,1.32,0,0,1,.38-0.23s0.06,0.08-.2.37a3.8,3.8,0,0,1,.42.21l0,0.06-0.52,0h-0.11a3.38,3.38,0,0,1,.33.32h0a0,0,0,0,1-.05,0,3.33,3.33,0,0,1-.44-0.21,0.44,0.44,0,0,1,0,.2,0.63,0.63,0,0,1,0,.27h0Zm-0.29-.51a0.33,0.33,0,0,1,.14.21l0.13,0.21s0-.12,0-0.18c0-.23,0-0.26,0-0.26a1.84,1.84,0,0,1,.36.2,0.82,0.82,0,0,1-.22-0.28,0.23,0.23,0,0,1,.14,0l0.48,0a3.12,3.12,0,0,1-.4-0.2c0.1-.17.22-0.31,0.22-0.35s-0.35.24-.45,0.31h0v0a6,6,0,0,1,.46-0.69l-0.44.32a3.74,3.74,0,0,1,0-.38,1.29,1.29,0,0,1-.17.28,0.52,0.52,0,0,1-.2.25s0,0-.09-0.28a0.36,0.36,0,0,1-.11.35l-0.11,0-0.38.07a1.81,1.81,0,0,1,.44.12,2.29,2.29,0,0,1-.31.2l0.22,0,0.17,0,0,0h0a4,4,0,0,0-.29.43,1.9,1.9,0,0,0,.29-0.26,0.19,0.19,0,0,1,.1-0.08h0Z" transform="translate(-175.26 -197.48)"/>
        <path class="h" d="M217.62,209.63a1.31,1.31,0,0,0,.85.93,1,1,0,0,0,.7-0.19,1,1,0,0,1-.36-0.49,2.6,2.6,0,0,1-.15-0.46Z" transform="translate(-175.26 -197.48)"/>
        <path class="h" d="M219.43,209.28a5,5,0,0,0,.54,1,1.42,1.42,0,0,0,.72.21,3,3,0,0,1,.36,0,0.92,0.92,0,0,1-.3-0.58c-0.14-.49-0.18-0.65-0.18-0.65h-1.14Z" transform="translate(-175.26 -197.48)"/>
        <path class="h" d="M221.72,209.61a3,3,0,0,0,0,.82,2.28,2.28,0,0,0,.44.46,0.51,0.51,0,0,0,.45-0.46,2.18,2.18,0,0,0-.15-0.78Z" transform="translate(-175.26 -197.48)"/>
        <path class="i" d="M217.26,208.47a0.46,0.46,0,0,1,0,.18,1.38,1.38,0,0,0-.2.44,0.81,0.81,0,0,0,.84.68,3.23,3.23,0,0,0,1.42-.43s-1.51-1.23-1.54-1.22-0.53.38-.53,0.35h0Z" transform="translate(-175.26 -197.48)"/>
        <path d="M217.93,209.79h0a0.83,0.83,0,0,1-.87-0.71,0.73,0.73,0,0,1,.14-0.34,0.6,0.6,0,0,0,.06-0.11,0.4,0.4,0,0,0,0-.16l0.47-.33,0.08-.05h0c0.08,0,1.56,1.21,1.57,1.22a2.64,2.64,0,0,1-1.42.48h0Zm-0.65-1.29a0.18,0.18,0,0,1,0,.16,0.57,0.57,0,0,1-.06.12,0.71,0.71,0,0,0-.13.31,0.78,0.78,0,0,0,.81.65l0,0v0a3.29,3.29,0,0,0,1.37-.42s-1.44-1.13-1.52-1.17l-0.05.05a3.91,3.91,0,0,1-.45.3h0Z" transform="translate(-175.26 -197.48)"/>
        <path class="i" d="M221.45,209.33a3,3,0,0,0,.19.49,0.69,0.69,0,0,1,.08.15l0.87,0.23a0.76,0.76,0,0,0,0-.51,10,10,0,0,0-.59-0.82Z" transform="translate(-175.26 -197.48)"/>
        <path d="M222.61,210.23h0l-0.87-.22a1.09,1.09,0,0,0-.1-0.16,2.65,2.65,0,0,1-.19-0.5l0.52-.5a4.86,4.86,0,0,1,.64.82,0.78,0.78,0,0,1,0,.54v0h0Zm-0.68-1.35-0.47.47a4.16,4.16,0,0,0,.19.45,0.36,0.36,0,0,1,.07.13,4.59,4.59,0,0,0,.84.23,0.71,0.71,0,0,0,0-.46c-0.12-.22-0.58-0.81-0.59-0.81h0Z" transform="translate(-175.26 -197.48)"/>
        <path class="i" d="M222,208.79a0.39,0.39,0,0,0,.39.1,3.39,3.39,0,0,0,.44-0.41,1.15,1.15,0,0,1-.39.08,1,1,0,0,0-.44.24h0Z" transform="translate(-175.26 -197.48)"/>
        <path d="M222.32,209a0.49,0.49,0,0,1-.27-0.12l-0.11,0,0.07,0h0a1.07,1.07,0,0,1,.43-0.24,1.2,1.2,0,0,0,.39-0.07,1.16,1.16,0,0,1-.41.47,0.22,0.22,0,0,1-.12,0h0Zm-0.28-.13h0a0.64,0.64,0,0,0,.37,0,2.87,2.87,0,0,0,.37-0.34,0.68,0.68,0,0,1-.28.06,0.72,0.72,0,0,0-.39.19l0,0h0Z" transform="translate(-175.26 -197.48)"/>
        <path class="i" d="M217.23,208.52a0.32,0.32,0,0,0-.23-0.23,1.19,1.19,0,0,1-.57-0.07,3.65,3.65,0,0,0-.19-0.33,1,1,0,0,1-.2,0,0.26,0.26,0,0,1,.08-0.3c0.15-.1.27,0,0.35-0.09a0.62,0.62,0,0,1,.37-0.14,1.63,1.63,0,0,1,.56.31,0.72,0.72,0,0,0,.5.08,3.6,3.6,0,0,1,.89-0.35c0.21,0,.64,0,0.81,0a4,4,0,0,1,1,.23c0.2,0.11,1.25.55,1.39,0.65a4.22,4.22,0,0,0,.47.25,4.08,4.08,0,0,1-.85.79,5.35,5.35,0,0,1-1.7.25,2.77,2.77,0,0,1-1.35-.35,2.89,2.89,0,0,1-.86-0.61,1.55,1.55,0,0,1,0-.29Z" transform="translate(-175.26 -197.48)"/>
        <path d="M220.1,209.59h-0.16a2.78,2.78,0,0,1-1.36-.36l-0.22-.14a1.6,1.6,0,0,1-.65-0.5,1.57,1.57,0,0,1,0-.29l-0.45.24a0.48,0.48,0,0,0-.24-0.22h-0.11l-0.08,0v0a0.62,0.62,0,0,1-.4-0.08,0.63,0.63,0,0,1-.12-0.22,0.36,0.36,0,0,0,0-.1,0.79,0.79,0,0,1-.18,0,0.25,0.25,0,0,1,.05-0.36,0.4,0.4,0,0,1,.22-0.06,0.18,0.18,0,0,0,.13,0,0.65,0.65,0,0,1,.39-0.14h0a0.86,0.86,0,0,1,.42.21l0.15,0.1a0.75,0.75,0,0,0,.47.08,3.59,3.59,0,0,1,.91-0.36c0.21,0,.65,0,0.81,0a3.93,3.93,0,0,1,1,.23c0.09,0.05.35,0.17,0.63,0.29s0.68,0.31.77,0.36a4.24,4.24,0,0,0,.46.25,3,3,0,0,1-.85.85,5.6,5.6,0,0,1-1.55.26h0Zm-2.39-1.32a0.89,0.89,0,0,1,.05.31,2,2,0,0,0,.62.46l0.22,0.14a2.72,2.72,0,0,0,1.34.35,5.34,5.34,0,0,0,1.69-.25,4,4,0,0,0,.83-0.77,1.45,1.45,0,0,1-.45-0.22c-0.08-.05-0.44-0.21-0.76-0.36s-0.54-.24-0.63-0.29a3.89,3.89,0,0,0-1-.22c-0.17,0-.6,0-0.81,0a3.55,3.55,0,0,0-.88.35,0.78,0.78,0,0,1-.53-0.07l-0.16-.11a0.87,0.87,0,0,0-.37-0.2,0.6,0.6,0,0,0-.37.13,0.44,0.44,0,0,1-.15,0,0.32,0.32,0,0,0-.21,0,0.24,0.24,0,0,0-.08.26h0.18a0.16,0.16,0,0,1,.1.13,0.34,0.34,0,0,0,.46.27H217a0.34,0.34,0,0,1,.25.25l0.45-.23h0Z" transform="translate(-175.26 -197.48)"/>
        <path class="i" d="M216.59,207.7a0.17,0.17,0,0,0-.1.09,0.18,0.18,0,0,0,.19.09,0.18,0.18,0,1,0-.08-0.18h0Z" transform="translate(-175.26 -197.48)"/>
        <path d="M216.65,207.91a0.2,0.2,0,0,1-.18-0.09,0.12,0.12,0,0,1,.09-0.13,0.79,0.79,0,0,1,.39.07,0.33,0.33,0,0,1-.27.16h0Zm0-.18-0.11.06a0.18,0.18,0,0,0,.13.06v0l0,0a0.62,0.62,0,0,0,.22-0.08,1.73,1.73,0,0,0-.26,0h0Z" transform="translate(-175.26 -197.48)"/>
        <path d="M216.58,207.73v0.14a0.19,0.19,0,0,0,.15,0s0-.12,0-0.12a0.33,0.33,0,0,1-.12,0h0Z" transform="translate(-175.26 -197.48)"/>
        <path class="a" d="M216.58,207.73v0.14a0.19,0.19,0,0,0,.15,0s0-.12,0-0.12A0.33,0.33,0,0,1,216.58,207.73Z" transform="translate(-175.26 -197.48)"/>
        <path class="j" d="M218,207.83a0.39,0.39,0,0,1,.21-0.31,1.18,1.18,0,0,1,.58-0.09,0.36,0.36,0,0,0-.11.2,0.57,0.57,0,0,0,0,.15,0.62,0.62,0,0,0-.36,0,1.44,1.44,0,0,1-.34.08h0Z" transform="translate(-175.26 -197.48)"/>
        <path class="k" d="M218,207.86l0,0,0-.07a0.36,0.36,0,0,1,.21-0.27,1.31,1.31,0,0,1,.6-0.09c0,0.05-.08.14-0.08,0.23a0.59,0.59,0,0,0,0,.14,0.75,0.75,0,0,1-.27,0h-0.1a2.19,2.19,0,0,1-.34.09h0Zm0.67-.41a1,1,0,0,0-.45.09,0.3,0.3,0,0,0-.18.23v0l0.29-.08a0.67,0.67,0,0,1,.33,0,0.4,0.4,0,0,1,0-.11,0.32,0.32,0,0,1,.08-0.17h-0.06Z" transform="translate(-175.26 -197.48)"/>
        <path class="j" d="M219,207.4a0.65,0.65,0,0,0-.17.3,0.5,0.5,0,0,0,.3.21,0.9,0.9,0,0,0,.41-0.29,0.46,0.46,0,0,0,0-.24s-0.55,0-.55,0h0Z" transform="translate(-175.26 -197.48)"/>
        <path class="k" d="M219.11,207.94a0.55,0.55,0,0,1-.32-0.24,0.62,0.62,0,0,1,.18-0.33l0.17,0,0.34,0,0.08,0a0.38,0.38,0,0,1,0,.27,0.88,0.88,0,0,1-.43.32h0Zm0.4-.55-0.37,0H219a0.72,0.72,0,0,0-.15.26,0.52,0.52,0,0,0,.27.19v0a0.93,0.93,0,0,0,.38-0.27,0.49,0.49,0,0,0,0-.22h0Z" transform="translate(-175.26 -197.48)"/>
        <path class="j" d="M219.69,207.36a0.61,0.61,0,0,0,0,.31,2.09,2.09,0,0,0,.32.35,1.16,1.16,0,0,0,.5-0.08,0.69,0.69,0,0,0,.1-0.33,0.61,0.61,0,0,0-.39-0.19,1.27,1.27,0,0,0-.52,0h0Z" transform="translate(-175.26 -197.48)"/>
        <path class="k" d="M220,208.06H220a2.06,2.06,0,0,1-.34-0.36,0.61,0.61,0,0,1,0-.34,1,1,0,0,1,.55,0,0.66,0.66,0,0,1,.41.21,0.67,0.67,0,0,1-.1.36,1.06,1.06,0,0,1-.48.1h0Zm-0.23-.67h-0.12a1.09,1.09,0,0,0,0,.27,2.28,2.28,0,0,0,.31.33h0a1.24,1.24,0,0,0,.43-0.08,0.72,0.72,0,0,0,.1-0.3,0.59,0.59,0,0,0-.37-0.18,1.53,1.53,0,0,0-.39-0.06h0Z" transform="translate(-175.26 -197.48)"/>
        <path class="j" d="M220.72,207.66a7.17,7.17,0,0,1,.68.45c0.23,0.18.32,0.39,0.39,0.41a0.65,0.65,0,0,0,.34-0.23,1.74,1.74,0,0,0-.55-0.46,3.41,3.41,0,0,0-.85-0.16h0Z" transform="translate(-175.26 -197.48)"/>
        <path class="k" d="M221.8,208.55h0a0.32,0.32,0,0,1-.13-0.12,1.62,1.62,0,0,0-.27-0.29,6.73,6.73,0,0,0-.65-0.43h0c0-.06.06-0.05,0.11,0a2.35,2.35,0,0,1,.76.15,1.56,1.56,0,0,1,.57.5,0.68,0.68,0,0,1-.36.25h0Zm-1.06-.85a2.33,2.33,0,0,1,.68.39,1.6,1.6,0,0,1,.28.3,0.38,0.38,0,0,0,.09.1h0a0.72,0.72,0,0,0,.31-0.21,2.17,2.17,0,0,0-.54-0.43,2.39,2.39,0,0,0-.73-0.14h-0.1Z" transform="translate(-175.26 -197.48)"/>
        <path class="j" d="M220.64,207.85a4,4,0,0,0,.5,1,1.07,1.07,0,0,0,.58-0.25,1,1,0,0,0-.45-0.42,1.75,1.75,0,0,0-.63-0.33h0Z" transform="translate(-175.26 -197.48)"/>
        <path class="k" d="M221.16,208.88h0a4,4,0,0,1-.51-1l0-.07a2.33,2.33,0,0,1,.63.33,1.14,1.14,0,0,1,.46.44,1.12,1.12,0,0,1-.59.29h0Zm-0.51-1a6.17,6.17,0,0,0,.49.95h0a1.29,1.29,0,0,0,.53-0.23,1,1,0,0,0-.44-0.39,2,2,0,0,0-.6-0.33h0Z" transform="translate(-175.26 -197.48)"/>
        <path class="j" d="M220.09,208.19a2.13,2.13,0,0,0-.11.93,2.37,2.37,0,0,0,1-.2,1.79,1.79,0,0,0-.47-0.83,0.69,0.69,0,0,0-.38.1h0Z" transform="translate(-175.26 -197.48)"/>
        <path class="k" d="M220,209.15H220a0.14,0.14,0,0,1,0-.12,2.31,2.31,0,0,1,.14-0.86,0.72,0.72,0,0,1,.4-0.11,0.25,0.25,0,0,1,.16.15,1.89,1.89,0,0,1,.33.73,2.26,2.26,0,0,1-.93.22h0Zm0.44-1a0.69,0.69,0,0,0-.36.09,2.39,2.39,0,0,0-.11.88h0a2.7,2.7,0,0,0,.88-0.18,2.13,2.13,0,0,0-.32-0.66,0.28,0.28,0,0,0-.12-0.13h0Z" transform="translate(-175.26 -197.48)"/>
        <path class="j" d="M219.21,208a2.26,2.26,0,0,0,0,.93,1.23,1.23,0,0,0,.61.15,3.2,3.2,0,0,0,.08-1,0.65,0.65,0,0,0-.3-0.24,0.76,0.76,0,0,0-.34.16h0Z" transform="translate(-175.26 -197.48)"/>
        <path class="k" d="M219.73,209.14a1.52,1.52,0,0,1-.58-0.17,2.08,2.08,0,0,1,0-1,0.79,0.79,0,0,1,.35-0.17,0.68,0.68,0,0,1,.34.25,3,3,0,0,1-.08,1h-0.07Zm-0.18-1.25a0.64,0.64,0,0,0-.28.13,2,2,0,0,0-.06.92,1.67,1.67,0,0,0,.53.15v0l0,0a3.5,3.5,0,0,0,.07-1,0.62,0.62,0,0,0-.28-0.23h0Z" transform="translate(-175.26 -197.48)"/>
        <path class="j" d="M218.05,208a0.23,0.23,0,0,0,0,.32c0.09,0,.32.16,0.53,0.27a3.25,3.25,0,0,0,.4.24A1.8,1.8,0,0,0,219,208a0.94,0.94,0,0,0-.44-0.07,2.26,2.26,0,0,0-.54.07h0Z" transform="translate(-175.26 -197.48)"/>
        <path class="k" d="M219,208.86a0.36,0.36,0,0,1-.16-0.09,2,2,0,0,0-.24-0.16l-0.09,0-0.43-.22a0.14,0.14,0,0,1-.08-0.12A0.3,0.3,0,0,1,218,208a2.27,2.27,0,0,1,.56-0.08,1,1,0,0,1,.46.08,1.82,1.82,0,0,1,0,.81l-0.06.08h0Zm-0.33-.9a2.45,2.45,0,0,0-.59.07,0.25,0.25,0,0,0,0,.2,0.09,0.09,0,0,0,0,.07l0.44,0.22,0.09,0a2,2,0,0,1,.25.16,0.41,0.41,0,0,0,.13.08v0a2.37,2.37,0,0,0,0-.78,0.85,0.85,0,0,0-.37-0.06h0Z" transform="translate(-175.26 -197.48)"/>
        <g class="l">
          <path class="m" d="M214.27,217.93a1.28,1.28,0,0,1,.7-0.52,1.13,1.13,0,0,1,.65.28s0.33,1.37.32,1.37-0.55.39-.57,0.39a0.87,0.87,0,0,0-.44-0.49,1.47,1.47,0,0,0-.22.73s-0.89-1.06-.85-1.09a3.91,3.91,0,0,0,.4-0.67h0Z" transform="translate(-175.26 -197.48)"/>
        </g>
        <g class="n">
          <path class="m" d="M223.1,217.75a2.61,2.61,0,0,1,.87-0.34,1,1,0,0,1,.67.31,2.44,2.44,0,0,1,.37.52s-0.4,1.11-.43,1.11-0.2.1-.24,0A0.56,0.56,0,0,0,224,219c-0.2,0-.25.36-0.25,0.36Z" transform="translate(-175.26 -197.48)"/>
        </g>
        <g class="o">
          <path class="p" d="M223.32,218.09a3.23,3.23,0,0,0,1.62,1.92,1.08,1.08,0,0,0,1.44-.47,0.71,0.71,0,0,1,.54-0.18,6.51,6.51,0,0,1-.27,1.61,1.27,1.27,0,0,1-1.24.59,3.4,3.4,0,0,1-2.07-1.14,5.27,5.27,0,0,1-.8-1.25c-0.15-.31.8-1,0.79-1.08h0Z" transform="translate(-175.26 -197.48)"/>
        </g>
        <g class="q">
          <path class="p" d="M212.42,221.14a1.53,1.53,0,0,0,1.09.42,3.49,3.49,0,0,0,2.22-1.08,5.54,5.54,0,0,0,.75-1.35s-0.74-1.3-.75-1.3a5.38,5.38,0,0,1-.22.7,2.56,2.56,0,0,1-1.12,1.3,1.82,1.82,0,0,1-.87.31,3.38,3.38,0,0,1-.9-0.44s-0.32.76-.32,0.76a1,1,0,0,0,.12.67h0Z" transform="translate(-175.26 -197.48)"/>
        </g>
        <g class="r">
          <path class="p" d="M214.26,217.88a2.77,2.77,0,0,0-1.18.92,7.3,7.3,0,0,0,6.29,4.24c4.26,0,6.86-3.55,6.67-4.14a3.86,3.86,0,0,0-1.51-1.29,0.81,0.81,0,0,1,.28.64,5.37,5.37,0,0,1-5.2,3.46,6.07,6.07,0,0,1-5.44-3.22,1.93,1.93,0,0,0,.09-0.6h0Z" transform="translate(-175.26 -197.48)"/>
        </g>
        <g class="s">
          <path class="m" d="M225.8,220.73c0.1-.08.72-1.78,1.07-1.73s0.23,0.55.2,0.68-0.38,1.3-.38,1.3a0.34,0.34,0,0,0-.22-0.34,2.64,2.64,0,0,0-.67.08h0Z" transform="translate(-175.26 -197.48)"/>
        </g>
        <g class="t">
          <path class="m" d="M212.42,221.15c0-.09-0.28-0.41,0-0.51a1.36,1.36,0,0,1,.76.09,11,11,0,0,0-.52-1.24c-0.28-.55-0.38-0.46-0.62-0.37s-0.23.34-.09,0.71,0.42,1.41.42,1.32h0Z" transform="translate(-175.26 -197.48)"/>
        </g>
        <polygon class="u" points="41.06 20.51 41.47 19.12 40.33 18.25 41.76 18.21 42.23 16.84 42.7 18.21 44.13 18.24 42.99 19.12 43.41 20.51 42.23 19.68 41.06 20.51"/>
        <path class="d" d="M224,210.76v5.35c0,2.61-2.66,4.9-4.43,5.35-1.77-.45-4.44-2.74-4.43-5.35v-5.35H224Z" transform="translate(-175.26 -197.48)"/>
        <g class="v">
          <path class="m" d="M215.16,210.76v3.35a1,1,0,0,1,.62,0c0.58,0,.63.74,1.27,0.74s0.63-.74,1.26-0.74,0.63,0.74,1.26.74,0.63-.74,1.27-0.74,0.63,0.74,1.3.78,0.6-.78,1.23-0.82l0.63,0v-3.32h-8.86Z" transform="translate(-175.26 -197.48)"/>
        </g>
        <path d="M222.16,214.89h0a0.93,0.93,0,0,1-.68-0.42,0.77,0.77,0,0,0-.61-0.36,0.76,0.76,0,0,0-.61.36,0.76,0.76,0,0,1-1.31,0,0.7,0.7,0,0,0-1.22,0,0.82,0.82,0,0,1-.65.38,0.89,0.89,0,0,1-.69-0.38,0.84,0.84,0,0,0-.58-0.35,1.35,1.35,0,0,0-.6,0l-0.06-3.37,8.89,0,0,3.35h-0.66a0.82,0.82,0,0,0-.61.41,0.85,0.85,0,0,1-.61.41h0Zm-1.3-.84a0.83,0.83,0,0,1,.66.38,0.89,0.89,0,0,0,.64.4,0.79,0.79,0,0,0,.57-0.39,0.89,0.89,0,0,1,.66-0.43l0.63,0,0-3.29-8.83,0,0,3.29a1.16,1.16,0,0,1,.6,0,0.9,0.9,0,0,1,.62.37,0.83,0.83,0,0,0,.65.36,0.76,0.76,0,0,0,.61-0.36,0.76,0.76,0,0,1,1.31,0,0.7,0.7,0,0,0,1.22,0,0.82,0.82,0,0,1,.65-0.38h0Z" transform="translate(-175.26 -197.48)"/>
        <g class="w">
          <path class="x" d="M215.16,215.19v1.11h0.63c0.58,0,.63.74,1.27,0.74s0.63-.74,1.26-0.74,0.63,0.74,1.26.74,0.63-.74,1.27-0.74,0.6,0.7,1.26.74,0.63-.7,1.27-0.74H224v-1.11h-0.63c-0.63,0-.63.74-1.27,0.74s-0.63-.74-1.26-0.74-0.63.74-1.27,0.74-0.63-.74-1.26-0.74-0.63.74-1.26,0.74-0.63-.74-1.27-0.74h-0.63Z" transform="translate(-175.26 -197.48)"/>
        </g>
        <g class="y">
          <path class="x" d="M215.36,217.4l0.44,1.11c0.58,0,.63.74,1.27,0.74s0.63-.74,1.26-0.74,0.63,0.74,1.26.74,0.63-.74,1.27-0.74,0.6,0.7,1.26.74,0.61-.7,1.25-0.74l0.46-1.12-0.44,0c-0.63,0-.63.74-1.27,0.74s-0.63-.74-1.26-0.74-0.63.74-1.27,0.74-0.63-.74-1.26-0.74-0.63.74-1.26,0.74-0.63-.74-1.27-0.74h-0.44Z" transform="translate(-175.26 -197.48)"/>
        </g>
        <g class="z">
          <path class="x" d="M219.59,221.46a5.87,5.87,0,0,0,2.07-1.11,0.91,0.91,0,0,0-.8-0.74c-0.63,0-.63.74-1.27,0.74s-0.63-.74-1.26-0.74a0.92,0.92,0,0,0-.8.74,5.68,5.68,0,0,0,2.06,1.11h0Z" transform="translate(-175.26 -197.48)"/>
        </g>
        <g class="aa">
          <path class="u" d="M216.32,213.31a8.45,8.45,0,0,0,1.18.06,0.84,0.84,0,0,0,.65-0.22v-0.09h0.61a1,1,0,0,1,0,.47c-0.07,0-.25.16-0.29,0.16s0-.22-0.07-0.16a0.45,0.45,0,0,0-.11.16,0.29,0.29,0,0,0-.11-0.09,0.29,0.29,0,0,0-.11.09s0-.09,0-0.09a1.1,1.1,0,0,0-.21.16l-0.18-.13a0.57,0.57,0,0,1-.14.16,1.63,1.63,0,0,1-.25-0.12l-0.36.19s0-.28-0.07-0.25a2.81,2.81,0,0,1-.47,0,0.65,0.65,0,0,1-.14.19,0.29,0.29,0,0,1-.14-0.16s0.11-.09.07-0.12-0.21,0-.21,0a0.53,0.53,0,0,1,0-.22l0.18,0v-0.19h0.18Z" transform="translate(-175.26 -197.48)"/>
        </g>
        <path d="M216.91,213.87v0a0.37,0.37,0,0,0,0-.23,2.57,2.57,0,0,1-.48,0,0.36,0.36,0,0,1-.14.19,0.35,0.35,0,0,1-.17-0.17,0.2,0.2,0,0,0,.08-0.09,0.5,0.5,0,0,0-.22-0.07,0.4,0.4,0,0,1,0-.23,0.69,0.69,0,0,1,.2,0l0-.17,0.2,0,0.05,0.2a0.16,0.16,0,0,1,.12,0,7,7,0,0,0,1,0,0.89,0.89,0,0,0,.63-0.2v-0.09l0.63,0a0.71,0.71,0,0,1,0,.5l-0.13.07c-0.22.14-.2,0.08-0.2,0a0.23,0.23,0,0,0,0-.08,0.45,0.45,0,0,0-.11.16c-0.14-.08-0.15-0.09-0.22,0s0-.09-0.05-0.09a1.09,1.09,0,0,0-.2.15l-0.2-.12a0.27,0.27,0,0,1-.13.16,1.3,1.3,0,0,1-.26-0.13l-0.37.2h0Zm-0.06-.3c0.08,0,.09.15,0.09,0.24l0.33-.17,0.26,0.12a0.6,0.6,0,0,0,.13-0.15l0.21,0.12a0.54,0.54,0,0,1,.2-0.16,0.08,0.08,0,0,1,.05.09,0.13,0.13,0,0,1,.09-0.09,0.22,0.22,0,0,1,.11.09,0.26,0.26,0,0,1,.09-0.14c0.08,0,.08,0,0.08.09s0.1,0,.15,0l0.13-.08a0.93,0.93,0,0,0,0-.45h-0.59l0,0.08a0.8,0.8,0,0,1-.66.24,6.88,6.88,0,0,1-1-.05h-0.13l-0.05-.2h-0.16l0,0.17a1.07,1.07,0,0,1-.2,0l0,0.13a0.38,0.38,0,0,1,0,.07h0.07a0.23,0.23,0,0,1,.13,0c0,0.11,0,.16-0.08.16a1.23,1.23,0,0,0,.14.12,0.76,0.76,0,0,0,.13-0.18,3.73,3.73,0,0,0,.48,0h0Z" transform="translate(-175.26 -197.48)"/>
        <g class="ab">
          <path class="u" d="M217,211.53a0.61,0.61,0,0,0-.25.53,1.75,1.75,0,0,0,.65.69,0.5,0.5,0,0,1,.43,0,0.68,0.68,0,0,1,.07.5,1.2,1.2,0,0,1-.47,0c0-.06,0-0.12,0-0.12l-0.43,0,0-.12-0.36-.06,0.14-.12s-0.57-.22-0.54-0.22a1.64,1.64,0,0,0,.25-0.12l-0.43-.25h0.25A2.54,2.54,0,0,1,216,212l0.21,0-0.11-.25h0.11l-0.11-.19,0.18-.06,0.11,0.16,0-.37,0.25,0v0.31a1.38,1.38,0,0,0,.11-0.22,1.15,1.15,0,0,0,.29.06h0Z" transform="translate(-175.26 -197.48)"/>
        </g>
        <path d="M217.47,213.32s-0.09,0-.09,0a0.16,0.16,0,0,0,0-.1l-0.43,0,0-.15-0.35,0,0.14-.16a1.13,1.13,0,0,1-.55-0.21l0.26-.14L216,212.3l0.26,0a0.61,0.61,0,0,1-.34-0.24,1.09,1.09,0,0,1,.24,0l-0.13-.22,0.13,0-0.12-.16,0.19-.09,0.13,0.16-0.07-.36h0.27l0,0.33a1.6,1.6,0,0,1,.07-0.22,0.19,0.19,0,0,1,.16,0l0.13,0a0.8,0.8,0,0,0-.21.53,1.75,1.75,0,0,0,.64.67,0.55,0.55,0,0,1,.43,0,0.76,0.76,0,0,1,.08.51l-0.11,0a2.22,2.22,0,0,1-.32,0h0Zm-0.1-.18c0.05,0,.05.07,0.05,0.14h0a2.28,2.28,0,0,0,.31,0h0.09a0.79,0.79,0,0,0-.09-0.47,0.61,0.61,0,0,0-.41,0,1.66,1.66,0,0,1-.67-0.7,0.65,0.65,0,0,1,.22-0.53,0.17,0.17,0,0,1-.12,0l-0.12,0a0.8,0.8,0,0,1-.1.21l0-.32h-0.23l0.06,0.35-0.14-.14-0.16.07,0.12,0.16-0.12,0,0.12,0.22a0.65,0.65,0,0,1-.23,0,2.44,2.44,0,0,1,.33.22l-0.26,0,0.44,0.22a0.72,0.72,0,0,1-.25.16,4,4,0,0,1,.54.18l-0.14.16,0.35,0,0,0.14a2.46,2.46,0,0,1,.41-0.05h0Z" transform="translate(-175.26 -197.48)"/>
        <g class="ac">
          <path d="M222.53,213.47l-0.18.13,0.3,0a0.45,0.45,0,0,1-.12-0.1h0Z" transform="translate(-175.26 -197.48)"/>
        </g>
        <g class="ad">
          <path d="M222.79,213.62a0.44,0.44,0,0,0,0,.25,1.44,1.44,0,0,0,.18-0.2Z" transform="translate(-175.26 -197.48)"/>
        </g>
        <g class="ae">
          <path d="M223.2,213.65a1.61,1.61,0,0,0,.22.18s-0.05-.2-0.07-0.21a1.42,1.42,0,0,1-.15,0h0Z" transform="translate(-175.26 -197.48)"/>
        </g>
        <g class="af">
          <path d="M219.59,213.39l-0.25.16,0.36-.06a0.2,0.2,0,0,1-.11-0.09h0Z" transform="translate(-175.26 -197.48)"/>
        </g>
        <g class="ag">
          <path d="M219.82,213.58a0.4,0.4,0,0,0-.11.24,1.54,1.54,0,0,0,.24-0.15Z" transform="translate(-175.26 -197.48)"/>
        </g>
        <g class="ah">
          <path d="M219.68,213.27l-0.21-.09,0.25-.05Z" transform="translate(-175.26 -197.48)"/>
        </g>
        <g class="ai">
          <polygon points="40.87 15.69 40.6 15.5 40.94 15.59 40.87 15.69"/>
        </g>
        <g class="aj">
          <path d="M215.89,213.29a2.81,2.81,0,0,0-.37.19H216s-0.08-.17-0.1-0.19h0Z" transform="translate(-175.26 -197.48)"/>
        </g>
        <g class="ak">
          <path d="M216.11,213.57a2.27,2.27,0,0,0-.29.2h0.4l-0.12-.2h0Z" transform="translate(-175.26 -197.48)"/>
        </g>
        <g class="al">
          <path d="M216.07,211.63a2.07,2.07,0,0,1-.09-0.22l0.25,0.17Z" transform="translate(-175.26 -197.48)"/>
        </g>
        <g class="am">
          <path d="M216.34,211.35l0-.14,0.23,0.16a1,1,0,0,1-.26,0h0Z" transform="translate(-175.26 -197.48)"/>
        </g>
        <g class="an">
          <path d="M216.72,211.45l0-.2a2,2,0,0,1,.21.27,0.55,0.55,0,0,1-.23-0.07h0Z" transform="translate(-175.26 -197.48)"/>
        </g>
        <g class="ao">
          <path class="u" d="M220.31,212.82a3.07,3.07,0,0,1,.39.34,2.5,2.5,0,0,1-.68.08,0.81,0.81,0,0,0-.26-0.12,0.19,0.19,0,0,0-.09.14l0.16,0.08-0.3,0,0.09,0.15h0.23l-0.05.14a0.47,0.47,0,0,0,.17.08,0.92,0.92,0,0,1,.19-0.18,1,1,0,0,1,.22,0s-0.12.17-.06,0.17a1.42,1.42,0,0,0,.3-0.18,1.33,1.33,0,0,0,.06.16s0.18-.19.18-0.19a0.3,0.3,0,0,0,0,.15,2.41,2.41,0,0,0,.28-0.19,1,1,0,0,0,.22.2s0.05-.23.08-0.23l0.2,0a0.41,0.41,0,0,1-.13-0.2,3.36,3.36,0,0,1,0-.37s-1.21,0-1.23,0h0Z" transform="translate(-175.26 -197.48)"/>
        </g>
        <path d="M220,213.72a0.57,0.57,0,0,1-.17-0.08l0-.16-0.22,0-0.11-.16,0.32,0-0.17,0a0.18,0.18,0,0,1,.1-0.17h0a0.82,0.82,0,0,1,.27.13,2.8,2.8,0,0,0,.65-0.07,2.06,2.06,0,0,0-.28-0.24,0.24,0.24,0,0,1-.11-0.1,0.48,0.48,0,0,1,.19,0l1,0c0.06,0,.06,0,0.05.1a1.46,1.46,0,0,0,0,.28,0.34,0.34,0,0,0,.11.17c0,0.07-.19.08-0.2,0.08l0,0.1a0.23,0.23,0,0,1,0,.13h0a0.72,0.72,0,0,1-.25-0.21,1,1,0,0,1-.26.19s0,0,0-.17a0.54,0.54,0,0,1-.16.21s0,0-.08-0.18a0.67,0.67,0,0,1-.28.19,0.17,0.17,0,0,1,0-.19s-0.14,0-.19,0a0.43,0.43,0,0,0-.13.12l-0.07.06h0Zm-0.11-.26,0,0.17,0.14,0.05a0.63,0.63,0,0,1,.19-0.18,1,1,0,0,1,.23,0c0,0.09-.06.16-0.06,0.18a1.91,1.91,0,0,0,.28-0.18,1.34,1.34,0,0,1,.09.17,0.91,0.91,0,0,1,.15-0.19c0,0.07,0,.13,0,0.14l0.26-.19a2.34,2.34,0,0,0,.23.2l0-.1c0-.09,0-0.13.06-0.13l0.19,0a0.24,0.24,0,0,1-.13-0.18,1.51,1.51,0,0,1,0-.29s0-.07,0-0.07c-0.2,0-1,0-1.16,0l0.07,0a1,1,0,0,1,.29.27,1.9,1.9,0,0,1-.7.1,0.92,0.92,0,0,0-.25-0.13,0.17,0.17,0,0,0-.08.13l0.15,0.06-0.31,0,0.1,0.12,0.22,0h0Z" transform="translate(-175.26 -197.48)"/>
        <g class="ap">
          <path class="u" d="M218.4,212.34h3.52a0.62,0.62,0,0,0,.68-0.31,0.79,0.79,0,0,0-.79-0.15,6.29,6.29,0,0,1-1.54.41,0.86,0.86,0,0,1-.79-0.47c0-.22.18-0.41,0.57-0.41s0.9,0.13,1,.09,0.36-.28.47-0.31a4.2,4.2,0,0,1,.43-0.06l-0.14.09,0.47-.09a2,2,0,0,1-.72.44,7.24,7.24,0,0,1-1.4.06c-0.29,0-.43,0-0.39.16a0.39,0.39,0,0,0,.43.28c0.18,0,.72-0.19.72-0.19l-0.14-.09,0.65,0s0-.09,0-0.09l0.36,0a0.8,0.8,0,0,1-.18-0.09,4.37,4.37,0,0,1,.47,0c0.29,0,.9.13,0.86,0.38a0.54,0.54,0,0,1-.5.47,0.58,0.58,0,0,0-.47,0,0.56,0.56,0,0,0,.47.15,1.6,1.6,0,0,0,.43-0.12s0.11,0.19.14,0.19l0.25-.06-0.14.34,0.25,0.06a0.33,0.33,0,0,0-.11.12,0.61,0.61,0,0,1,.25,0s-0.29.22-.29,0.25a0.79,0.79,0,0,0,.22.13,0.41,0.41,0,0,1-.18.16l-0.18-.19a0.17,0.17,0,0,1-.11.13,1.4,1.4,0,0,1-.22,0,0.4,0.4,0,0,0,.07-0.19,1.18,1.18,0,0,1-.21.09l-0.11-.09a0.44,0.44,0,0,0,.29-0.25c0-.15-0.12-0.3-0.64-0.32s-0.53.11-.91,0.09-0.39-.15-0.67-0.15-1.17.31-1.59,0.3a8.48,8.48,0,0,1-.91,0s0.34-.73.35-0.76h0Z" transform="translate(-175.26 -197.48)"/>
        </g>
        <path d="M223.25,213.77h0l-0.17-.18a0.12,0.12,0,0,1-.1.12,1.51,1.51,0,0,1-.22,0c0-.09.07-0.18,0.06-0.2l-0.08.06-0.11.05-0.13-.1a0.63,0.63,0,0,0,.28-0.26c0-.18-0.2-0.28-0.62-0.3H222a1.52,1.52,0,0,0-.41.05,1.18,1.18,0,0,1-.32,0,1.07,1.07,0,0,1-.45-0.09,0.62,0.62,0,0,0-.28-0.06,3.67,3.67,0,0,0-.64.13,4.65,4.65,0,0,1-.93.18,6,6,0,0,1-.95-0.06l0.35-.77h3.53a0.6,0.6,0,0,0,.66-0.29,0.83,0.83,0,0,0-.77-0.14l-0.23.08a5,5,0,0,1-1.27.33,0.91,0.91,0,0,1-.86-0.49,0.29,0.29,0,0,1,.07-0.24,1.54,1.54,0,0,1,1.16-.12l0.31,0a0.72,0.72,0,0,0,.27-0.16,1,1,0,0,1,.24-0.16,4.27,4.27,0,0,1,.43-0.06l-0.13.13,0.45-.13a1.42,1.42,0,0,1-.71.47,4,4,0,0,1-.89.07H220a0.25,0.25,0,0,0-.18,0,0.12,0.12,0,0,0,0,.1,0.37,0.37,0,0,0,.36.27c0.23,0,.77-0.19.77-0.19l-0.15-.06,0.66-.07s0-.05,0-0.08a3.14,3.14,0,0,1,.39,0c-0.21-.05-0.21-0.06-0.2-0.08a1.71,1.71,0,0,1,.49,0,1.48,1.48,0,0,1,.84.27,0.17,0.17,0,0,1,0,.13,0.56,0.56,0,0,1-.52.48h-0.23a0.24,0.24,0,0,0-.22,0,0.59,0.59,0,0,0,.45.14,1,1,0,0,0,.35-0.1c0.14-.06.12,0,0.17,0.07a0.34,0.34,0,0,0,.06.09l0.24-.06-0.12.37,0.24,0a1.38,1.38,0,0,1-.1.14c0.26,0,.26,0,0.26,0a0.36,0.36,0,0,1-.15.14l-0.14.11,0.21,0.1a0.36,0.36,0,0,1-.18.2h0Zm-0.21-.21a1,1,0,0,1,.21.18,0.54,0.54,0,0,0,.15-0.15c-0.22-.07-0.22-0.1-0.22-0.11a0.35,0.35,0,0,1,.15-0.14,0.93,0.93,0,0,0,.14-0.12h-0.23s0,0,.1-0.16l-0.24,0,0.13-.36a0.57,0.57,0,0,1-.23.08,0.17,0.17,0,0,1-.09-0.1,0.35,0.35,0,0,0-.06-0.08l-0.07,0a1,1,0,0,1-.36.1,0.55,0.55,0,0,1-.48-0.17c0-.07.09-0.07,0.12-0.07h0.36a0.52,0.52,0,0,0,.48-0.45,0.13,0.13,0,0,0,0-.1,1.53,1.53,0,0,0-.82-0.25l-0.42,0,0.14,0.06a1.23,1.23,0,0,1-.37,0,0.32,0.32,0,0,0,0,.07l-0.66.06,0.15,0.06a3.48,3.48,0,0,1-.72.22,0.44,0.44,0,0,1-.45-0.3,0.15,0.15,0,0,1,0-.13,0.27,0.27,0,0,1,.21,0h0.7a4,4,0,0,0,.88-0.07,2,2,0,0,0,.71-0.43l-0.45.13,0.11-.11c-0.06,0-.31.05-0.4,0.08a1,1,0,0,0-.23.15,1,1,0,0,1-.24.16,2,2,0,0,1-.37,0,1.52,1.52,0,0,0-1.13.11,0.25,0.25,0,0,0-.06.21,0.85,0.85,0,0,0,.77.45h0a4.89,4.89,0,0,0,1.3-.33l0.23-.08a1.05,1.05,0,0,1,.28,0c0.2,0,.54,0,0.54.2a0.63,0.63,0,0,1-.7.33H218.4s-0.31.73-.34,0.75,0.5,0,.9,0h0a4.6,4.6,0,0,0,.93-0.17,3.67,3.67,0,0,1,.65-0.13,0.66,0.66,0,0,1,.29.06,1,1,0,0,0,.38.08,1.33,1.33,0,0,0,.38,0,1.49,1.49,0,0,1,.42-0.05h0.12c0.44,0,.65.13,0.65,0.34a0.45,0.45,0,0,1-.3.27l0.11,0.06,0.09,0,0.11-.05a0.2,0.2,0,0,1-.05.21s0.14,0,.19,0a0.15,0.15,0,0,0,.09-0.11h0Z" transform="translate(-175.26 -197.48)"/>
        <g class="aq">
          <path class="u" d="M217.72,212.16a0.41,0.41,0,0,0-.37.34c0,0.29,0,.29.06,0.27a1,1,0,0,0,.11-0.26,0.53,0.53,0,0,0,0,.42,0.83,0.83,0,0,0,.24.11l0-.27a0.29,0.29,0,0,0,.13.36c0.22,0.09.3,0,.28,0s-0.08-.25-0.08-0.25l0.18,0.18a0.26,0.26,0,0,0,.31.09c0.21-.06.06-0.18,0.06-0.18l-0.26-.19a0.48,0.48,0,0,0,.39.16c0.12-.09-0.09-0.27-0.08-0.26s0.17,0.26.23,0.1a0.5,0.5,0,0,0-.15-0.37c-0.05-.16-0.1-0.17,0-0.27a0.78,0.78,0,0,0,.06-0.27s0.22,0,.21-0.12a0.32,0.32,0,0,0-.29-0.21,0.48,0.48,0,0,1-.05-0.16l-0.16.1a0.9,0.9,0,0,0-.15-0.24,0.74,0.74,0,0,1-.28.16,0.25,0.25,0,0,0-.17.14s-0.38-.16-0.37.1a0.18,0.18,0,0,0,.22.2,1.44,1.44,0,0,1-.07.38h0Z" transform="translate(-175.26 -197.48)"/>
        </g>
        <path d="M218.12,213.19a0.49,0.49,0,0,1-.18,0,0.24,0.24,0,0,1-.14-0.14v0a0.45,0.45,0,0,1-.27-0.1,0.24,0.24,0,0,1-.06-0.23,0.09,0.09,0,0,1,0,.07c-0.08,0-.1-0.08-0.09-0.29a0.41,0.41,0,0,1,.35-0.35,0.92,0.92,0,0,0,.08-0.35,0.59,0.59,0,0,1,0,.37,0.39,0.39,0,0,0-.36.33,0.45,0.45,0,0,0,0,.26,0.42,0.42,0,0,0,.11-0.24,0.59,0.59,0,0,0,0,.39,0.81,0.81,0,0,0,.24.11V212.9h0a0.41,0.41,0,0,1,0-.12h0s0,0.06,0,.12h0a0.22,0.22,0,0,0,.13.23,0.24,0.24,0,0,0,.25,0,1.65,1.65,0,0,0-.07-0.29,0.72,0.72,0,0,1,.21.17,0.26,0.26,0,0,0,.28.08,0.12,0.12,0,0,0,.1-0.06,0.12,0.12,0,0,0,0-.08l-0.09-.06a1.17,1.17,0,0,1-.17-0.12h0a0.32,0.32,0,0,1,.19.09h0a0.32,0.32,0,0,0,.14,0c0.06,0,.11-0.06.05-0.15l-0.07-.09h0s0.09,0.06.1,0.08a0.12,0.12,0,0,0,.07,0,0.17,0.17,0,0,0,0-.25,0.47,0.47,0,0,1-.09-0.15l0-.1a0.16,0.16,0,0,1,0-.18,0.77,0.77,0,0,0,.06-0.26v0h0.08a0.14,0.14,0,0,0,.1,0,0.08,0.08,0,0,0,0-.07,0.29,0.29,0,0,0-.27-0.19,0.14,0.14,0,0,1-.06-0.13,0.28,0.28,0,0,0-.15.06c-0.08-.11-0.14-0.23-0.16-0.24a0.58,0.58,0,0,1-.28.16,0.24,0.24,0,0,0-.16.13s-0.13,0-.23,0a0.14,0.14,0,0,0-.11,0,0.12,0.12,0,0,0,0,.09,0.16,0.16,0,0,0,.16.19l0,0a0.18,0.18,0,0,1-.22-0.2,0.16,0.16,0,0,1,0-.12,0.46,0.46,0,0,1,.35,0,0.2,0.2,0,0,1,.17-0.14,0.57,0.57,0,0,0,.24-0.13c0.06,0,.09,0,0.21.22a0.58,0.58,0,0,1,.14-0.1h0l0,0.08a0.22,0.22,0,0,0,0,.09,0.32,0.32,0,0,1,.3.23,0.12,0.12,0,0,1,0,.1,0.17,0.17,0,0,1-.13,0h-0.07a0.43,0.43,0,0,1,0,.26,0.12,0.12,0,0,0,0,.14l0,0.11a0.44,0.44,0,0,0,.09.14,0.21,0.21,0,0,1,.06.24c0,0.09-.08.08-0.12,0.05a0.1,0.1,0,0,1,0,.12l-0.07,0h0a0.12,0.12,0,0,1,0,.1,0.15,0.15,0,0,1-.13.09,0.3,0.3,0,0,1-.33-0.09l-0.14-.14a1.1,1.1,0,0,1,.07.19h0l0,0.06a0.12,0.12,0,0,1-.11,0h0Z" transform="translate(-175.26 -197.48)"/>
        <g class="ar">
          <path d="M217.93,211.77a0.41,0.41,0,0,1,.18-0.06c0.07,0,.19.06,0.13,0.09a0.21,0.21,0,0,1-.17,0,0.81,0.81,0,0,1-.14-0.06h0Z" transform="translate(-175.26 -197.48)"/>
        </g>
        <g class="as">
          <path d="M218.66,211.76a0.44,0.44,0,0,0-.18-0.06c-0.07,0-.19.06-0.13,0.09a0.22,0.22,0,0,0,.17,0,0.73,0.73,0,0,0,.15-0.06h0Z" transform="translate(-175.26 -197.48)"/>
        </g>
        <g class="at">
          <path class="au" d="M218.09,212.22a2.2,2.2,0,0,0,.05.34,2.94,2.94,0,0,0,.14-0.34,0.9,0.9,0,0,1-.2,0h0Z" transform="translate(-175.26 -197.48)"/>
        </g>
        <path d="M218.14,212.58s0,0,0-.24c0-.05,0-0.1,0-0.11h0.2a1.19,1.19,0,0,1-.12.35h0Zm0-.34a0.24,0.24,0,0,1,0,.1c0,0.06,0,.17,0,0.21s0.13-.29.13-0.31H218.1Z" transform="translate(-175.26 -197.48)"/>
        <path d="M218.23,212.33h0l-0.11,0c-0.05,0-.11,0-0.11-0.08s0.11-.11.24-0.09a0.31,0.31,0,0,1,.22.1,0.24,0.24,0,0,1-.21.09h0Zm-0.13-.15c-0.06,0-.07,0-0.08.06s0,0,.07,0l0.11,0h0a0.41,0.41,0,0,0,.18,0,0.73,0.73,0,0,0-.19-0.06H218.1Z" transform="translate(-175.26 -197.48)"/>
        <path class="a" d="M218.22,212l0,0.15Z" transform="translate(-175.26 -197.48)"/>
        <path d="M218.83,211.79a0.22,0.22,0,0,1,.06-0.11,0.17,0.17,0,0,0-.08-0.06l0-.06s0.14,0.06.12,0.13a0.19,0.19,0,0,1-.12.09h0Z" transform="translate(-175.26 -197.48)"/>
        <path class="a" d="M217.84,211.56a0.11,0.11,0,0,0-.08.09c0,0.06.08,0.1,0.08,0.1v-0.19Z" transform="translate(-175.26 -197.48)"/>
        <path d="M218.21,212a0.15,0.15,0,0,1-.15-0.06,0.11,0.11,0,0,1,0-.11l0,0a0.07,0.07,0,0,0,0,0,0.12,0.12,0,0,0,.1,0,0.16,0.16,0,0,0,.09,0v-0.08a0.11,0.11,0,0,1,.06.1,0.14,0.14,0,0,1-.14.05h0Z" transform="translate(-175.26 -197.48)"/>
        <polygon class="u" points="43.34 23.04 43.71 21.81 42.68 21.04 43.97 21.01 44.4 19.81 44.83 21.01 46.12 21.04 45.09 21.81 45.47 23.03 44.4 22.3 43.34 23.04"/>
        <g class="av">
          <polygon class="aw" points="43.52 22.71 43.83 21.74 42.96 21.12 44.05 21.1 44.4 20.14 44.75 21.1 45.83 21.12 44.98 21.73 45.29 22.7 44.4 22.13 43.52 22.71"/>
        </g>
        <polygon class="u" points="41.21 20.56 41.58 19.4 40.55 18.67 41.83 18.64 42.25 17.5 42.67 18.64 43.96 18.66 42.94 19.4 43.31 20.55 42.26 19.86 41.21 20.56"/>
        <g class="ax">
          <polygon class="aw" points="41.38 20.25 41.69 19.33 40.84 18.75 41.9 18.73 42.25 17.82 42.6 18.73 43.67 18.74 42.82 19.32 43.14 20.24 42.26 19.7 41.38 20.25"/>
        </g>
        <polygon class="u" points="45.5 20.56 45.88 19.4 44.84 18.67 46.14 18.64 46.56 17.5 46.99 18.64 48.29 18.66 47.26 19.4 47.64 20.55 46.57 19.86 45.5 20.56"/>
        <g class="ay">
          <polygon class="aw" points="45.68 20.25 45.99 19.33 45.13 18.75 46.21 18.73 46.56 17.82 46.92 18.73 48 18.74 47.14 19.32 47.46 20.24 46.57 19.7 45.68 20.25"/>
        </g>
        <path d="M213.41,219l0.64-.36,0.06,0.13-0.25.14,0.08,0.18,0.25-.14,0.06,0.13-0.64.36-0.06-.13,0.29-.16-0.08-.18-0.29.16-0.06-.13h0Zm0.27,0.56,0.6-.44,0.2,0.34-0.1.07-0.13-.22-0.14.1,0.12,0.2-0.1.07-0.12-.2-0.16.12,0.13,0.22-0.1.07-0.21-.35h0Zm0.42,0.64,0.53-.54,0.09,0.11-0.21.21,0.12,0.15,0.21-.21,0.09,0.11-0.53.54-0.09-.11,0.24-.25-0.12-.15-0.24.25-0.09-.11h0Zm0.69,0.32,0.09,0.08,0.15-.29-0.24.21h0Zm-0.34.1,0.6-.48,0.14,0.13-0.35.72-0.11-.11,0.09-.18-0.12-.11-0.15.13-0.1-.1h0Zm0.52,0.48,0.36-.54-0.12-.1,0.07-.11,0.36,0.29-0.07.11-0.12-.1-0.36.54-0.11-.09h0Zm0.29,0.23,0.37-.68,0.11,0.08-0.15.27,0.16,0.11,0.15-.27,0.11,0.08-0.37.68-0.11-.08,0.17-.31-0.16-.11-0.17.31-0.11-.08h0Zm0.7,0.45,0.3-.72,0.34,0.17,0,0.12-0.22-.11-0.07.17,0.21,0.11,0,0.12-0.21-.11-0.13.32L216,221.8h0Zm0.67-.11a0.88,0.88,0,0,0-.06.24,0.09,0.09,0,0,0,.06.08,0.07,0.07,0,0,0,.09,0,0.84,0.84,0,0,0,.1-0.22,0.94,0.94,0,0,0,.06-0.24,0.08,0.08,0,0,0-.06-0.08,0.07,0.07,0,0,0-.09,0,0.87,0.87,0,0,0-.1.23h0Zm-0.13-.05a1.61,1.61,0,0,1,.07-0.19,0.31,0.31,0,0,1,.07-0.09,0.17,0.17,0,0,1,.09,0,0.23,0.23,0,0,1,.11,0,0.24,0.24,0,0,1,.1.07,0.22,0.22,0,0,1,0,.1,0.33,0.33,0,0,1,0,.12,1.76,1.76,0,0,1-.13.38,0.29,0.29,0,0,1-.07.09,0.17,0.17,0,0,1-.09,0,0.23,0.23,0,0,1-.11,0,0.26,0.26,0,0,1-.1-0.07,0.21,0.21,0,0,1,0-.1,0.33,0.33,0,0,1,0-.12,1.5,1.5,0,0,1,.06-0.19h0Zm0.62-.17,0.13,0-0.14.51a0.28,0.28,0,0,0,0,.13,0.08,0.08,0,0,0,.06.05,0.07,0.07,0,0,0,.08,0,0.25,0.25,0,0,0,.05-0.11l0.14-.51,0.13,0-0.14.53a0.54,0.54,0,0,1,0,.11l0,0.05-0.09,0-0.11,0a0.23,0.23,0,0,1-.15-0.11,0.33,0.33,0,0,1,0-.21l0.14-.53h0Zm0.34,0.94,0.16-.78,0.13,0,0.07,0.59,0.11-.54,0.12,0-0.16.78-0.13,0-0.07-.59-0.11.55-0.12,0h0Zm0.7,0h0.12l0,0a0.26,0.26,0,0,0,0-.08,1.42,1.42,0,0,0,0-.17,1,1,0,0,0,0-.17,0.17,0.17,0,0,0,0-.08l0,0-0.06,0h-0.06l-0.08.56h0Zm-0.15.09,0.11-.79,0.21,0,0.1,0,0.06,0.05a0.24,0.24,0,0,1,0,.11,0.87,0.87,0,0,1,0,.19,1.88,1.88,0,0,1,0,.24,0.4,0.4,0,0,1-.05.11,0.14,0.14,0,0,1-.08.06H218.2l-0.18,0h0Zm0.56,0.09,0.07-.79,0.37,0V222l-0.24,0,0,0.18,0.22,0v0.13l-0.22,0,0,0.22,0.24,0v0.13l-0.37,0h0Zm0.61-.06h0.12l0,0a0.19,0.19,0,0,0,0-.08,1.23,1.23,0,0,0,0-.17,1.25,1.25,0,0,0,0-.17,0.18,0.18,0,0,0,0-.08l0,0h-0.11l0,0.56h0Zm-0.13.11,0-.8h0.22l0.1,0,0.06,0a0.22,0.22,0,0,1,0,.11,0.82,0.82,0,0,1,0,.19,1.76,1.76,0,0,1,0,.24,0.36,0.36,0,0,1,0,.12,0.14,0.14,0,0,1-.07.07H219Zm0.8,0,0-.8h0.13l0,0.8h-0.13Zm0.36,0,0-.66H220v-0.13l0.44,0V222h-0.15l0,0.66H220.2Zm0.47-.86,0.13,0,0.08,0.53a0.24,0.24,0,0,0,0,.12,0.07,0.07,0,0,0,.08,0,0.08,0.08,0,0,0,.07,0,0.29,0.29,0,0,0,0-.13l-0.08-.53,0.13,0,0.08,0.54a0.53,0.53,0,0,1,0,.12,0.19,0.19,0,0,1,0,.07,0.18,0.18,0,0,1-.07.08l-0.11,0a0.22,0.22,0,0,1-.18,0,0.31,0.31,0,0,1-.08-0.2l-0.09-.54h0Zm0.72,0.2h0.05a0.12,0.12,0,0,0,.08,0,0.14,0.14,0,0,0,0-.1,0.13,0.13,0,0,0,0-.08,0.11,0.11,0,0,0-.09,0h-0.06l0.05,0.23h0Zm0,0.47-0.17-.78,0.23-.06a0.19,0.19,0,0,1,.16,0,0.25,0.25,0,0,1,.08.16,0.27,0.27,0,0,1,0,.19,0.2,0.2,0,0,1-.13.1l-0.1,0,0.07,0.33-0.13,0h0Zm0.51-.56a0.84,0.84,0,0,0,.09.23,0.07,0.07,0,0,0,.09,0,0.08,0.08,0,0,0,.06-0.07,0.85,0.85,0,0,0,0-.25,0.9,0.9,0,0,0-.09-0.23,0.07,0.07,0,0,0-.09,0,0.08,0.08,0,0,0-.06.07,0.79,0.79,0,0,0,0,.24h0Zm-0.13,0a1.53,1.53,0,0,1,0-.2,0.31,0.31,0,0,1,0-.12,0.21,0.21,0,0,1,0-.1,0.26,0.26,0,0,1,.1-0.06,0.22,0.22,0,0,1,.11,0,0.19,0.19,0,0,1,.09,0,0.32,0.32,0,0,1,.06.1,1.78,1.78,0,0,1,.06.19,1.61,1.61,0,0,1,0,.2,0.36,0.36,0,0,1,0,.12,0.23,0.23,0,0,1-.05.1,0.26,0.26,0,0,1-.1.06l-0.11,0a0.18,0.18,0,0,1-.09,0,0.3,0.3,0,0,1-.06-0.1,1.46,1.46,0,0,1-.07-0.19h0Zm0.66,0.18-0.27-.74,0.13-.06,0.36,0.44-0.19-.52,0.12-.05,0.27,0.74-0.13.06-0.36-.44,0.19,0.52-0.12.05h0Zm0.83-.41-0.28-.59-0.14.08-0.06-.12,0.39-.23L223.2,221l-0.14.08,0.28,0.59-0.12.07h0Zm0.32-.19-0.38-.68,0.11-.08,0.15,0.26,0.15-.11-0.15-.26,0.11-.08,0.38,0.67-0.11.08-0.17-.31-0.15.11,0.17,0.31-0.11.08h0Zm0.48-.35-0.43-.64,0.29-.25,0.07,0.1-0.19.16,0.1,0.15,0.18-.15,0.07,0.1-0.18.15,0.12,0.17,0.19-.16,0.07,0.11-0.3.25h0Zm0.37-.68,0.1-.11,0,0a0.16,0.16,0,0,0,.07.06,0.06,0.06,0,0,0,.06,0,0.1,0.1,0,0,0,0-.07,0.1,0.1,0,0,0,0-.07l0,0h-0.09l-0.08,0a0.38,0.38,0,0,1-.15,0,0.19,0.19,0,0,1-.09-0.06,0.21,0.21,0,0,1-.06-0.15,0.24,0.24,0,0,1,.07-0.16,0.19,0.19,0,0,1,.15-0.08,0.21,0.21,0,0,1,.15.08h0l-0.09.1h0a0.16,0.16,0,0,0-.07-0.05,0.08,0.08,0,0,0-.06,0,0.08,0.08,0,0,0,0,.06,0.09,0.09,0,0,0,0,.06,0.14,0.14,0,0,0,.13,0h0l0.09,0a0.3,0.3,0,0,1,.15,0,0.22,0.22,0,0,1,.1.07,0.23,0.23,0,0,1,.07.16,0.26,0.26,0,0,1-.08.17,0.2,0.2,0,0,1-.15.08,0.23,0.23,0,0,1-.16-0.09l0,0h0Zm0.56-.22-0.55-.51,0.24-.31,0.09,0.09-0.15.2,0.13,0.12,0.14-.19,0.09,0.08-0.14.19,0.15,0.14,0.15-.21,0.09,0.09-0.24.32h0Zm0.14-.71,0.06-.1-0.28-.13,0.22,0.24h0Zm0.13,0.36-0.5-.59,0.1-.17,0.69,0.3-0.08.13-0.17-.08-0.09.14,0.13,0.14-0.08.13h0Zm0.08-.65,0.06-.13,0,0,0.09,0a0.07,0.07,0,0,0,0,0,0.11,0.11,0,0,0,0-.07,0.1,0.1,0,0,0,0-.05h-0.06l-0.08,0-0.07,0a0.35,0.35,0,0,1-.14.06,0.18,0.18,0,0,1-.1,0,0.2,0.2,0,0,1-.1-0.12,0.24,0.24,0,0,1,0-.17,0.21,0.21,0,0,1,.12-0.12,0.2,0.2,0,0,1,.16,0h0l-0.06.13h0a0.12,0.12,0,0,0-.08,0,0.07,0.07,0,0,0-.05,0,0.09,0.09,0,0,0,0,.06,0.08,0.08,0,0,0,0,0,0.14,0.14,0,0,0,.13,0h0l0.08,0a0.33,0.33,0,0,1,.14-0.05,0.2,0.2,0,0,1,.12,0,0.21,0.21,0,0,1,.11.13,0.27,0.27,0,0,1,0,.19,0.19,0.19,0,0,1-.3.1l0,0h0Z" transform="translate(-175.26 -197.48)"/>
      </g>
    </g>
  </g>
</svg>
