<svg xmlns="http://www.w3.org/2000/svg" xmlns:xlink="http://www.w3.org/1999/xlink" viewBox="0 0 58.92 34.37">
  <defs>
    <style>
      .a {
        fill: none;
      }

      .b {
        clip-path: url(#a);
      }

      .c {
        fill: #fff;
      }

      .d {
        fill: #3e9937;
      }

      .e {
        fill: #e90020;
      }

      .f {
        fill: #f5cc28;
      }
    </style>
    <clipPath id="a" transform="translate(-458.02 -197.48)">
      <rect class="a" x="458.02" y="197.48" width="58.92" height="34.37"/>
    </clipPath>
  </defs>
  <title>Chechen_Republic</title>
  <g class="b">
    <rect class="c" width="58.92" height="34.37"/>
    <rect class="d" width="58.92" height="20.31"/>
    <rect class="e" y="23.4" width="58.92" height="10.97"/>
    <rect class="c" width="4.77" height="34.37"/>
    <g class="b">
      <path class="f" d="M460.45,214.69l-0.22,0a1.56,1.56,0,0,1-1.12-.75,2.54,2.54,0,0,1,.57-3l1.24-1.19a2.3,2.3,0,0,0,.53-2.67,1.26,1.26,0,0,0-.9-0.61,1.18,1.18,0,0,0-1,.29,1.19,1.19,0,0,0-.28,1.55,0.85,0.85,0,0,0,.7.37,0.65,0.65,0,0,0,.54-0.3,0.59,0.59,0,0,0,.07-0.54,0.47,0.47,0,0,0-.33-0.29,0.15,0.15,0,0,1-.11-0.18,0.15,0.15,0,0,1,.18-0.11,0.78,0.78,0,0,1,.53.47,0.89,0.89,0,0,1-.1.82,1,1,0,0,1-.79.43h0a1.15,1.15,0,0,1-.93-0.49,1.48,1.48,0,0,1,.32-1.94,1.45,1.45,0,0,1,1.21-.37,1.55,1.55,0,0,1,1.12.75,2.54,2.54,0,0,1-.57,3l-1.24,1.19a2.3,2.3,0,0,0-.53,2.67,1.26,1.26,0,0,0,.9.61,1.17,1.17,0,0,0,1-.29,1.19,1.19,0,0,0,.28-1.55,0.84,0.84,0,0,0-.7-0.37,0.64,0.64,0,0,0-.54.3,0.59,0.59,0,0,0-.07.55,0.47,0.47,0,0,0,.33.29,0.15,0.15,0,0,1-.07.29,0.78,0.78,0,0,1-.53-0.47,0.89,0.89,0,0,1,.1-0.82,1,1,0,0,1,.78-0.43,1.18,1.18,0,0,1,1,.49,1.48,1.48,0,0,1-.32,1.94,1.45,1.45,0,0,1-1,.38h0Z" transform="translate(-458.02 -197.48)"/>
      <path class="f" d="M460.45,231.79l-0.22,0a1.56,1.56,0,0,1-1.12-.75,2.53,2.53,0,0,1,.57-3l1.24-1.14a2.3,2.3,0,0,0,.53-2.66,1.26,1.26,0,0,0-.9-0.61,1.17,1.17,0,0,0-1,.29,1.19,1.19,0,0,0-.29,1.55,0.84,0.84,0,0,0,.7.37,0.66,0.66,0,0,0,.54-0.3,0.59,0.59,0,0,0,.07-0.55,0.47,0.47,0,0,0-.33-0.29,0.15,0.15,0,0,1-.11-0.18,0.15,0.15,0,0,1,.18-0.11,0.78,0.78,0,0,1,.53.47,0.89,0.89,0,0,1-.1.82,1,1,0,0,1-.79.43,1.19,1.19,0,0,1-.95-0.49,1.48,1.48,0,0,1,.32-1.94,1.46,1.46,0,0,1,1.21-.37,1.55,1.55,0,0,1,1.12.75,2.53,2.53,0,0,1-.57,3l-1.24,1.14a2.29,2.29,0,0,0-.53,2.66,1.26,1.26,0,0,0,.9.61,1.16,1.16,0,0,0,1-.29,1.19,1.19,0,0,0,.28-1.55,0.81,0.81,0,0,0-.7-0.37,0.64,0.64,0,0,0-.54.3,0.59,0.59,0,0,0-.07.55,0.47,0.47,0,0,0,.33.29,0.15,0.15,0,0,1-.07.29,0.78,0.78,0,0,1-.53-0.47,0.89,0.89,0,0,1,.1-0.82,1,1,0,0,1,.78-0.43,1.16,1.16,0,0,1,1,.49,1.48,1.48,0,0,1-.32,1.94,1.45,1.45,0,0,1-1,.38h0Z" transform="translate(-458.02 -197.48)"/>
      <path class="f" d="M460.37,206.13a1.45,1.45,0,0,1-1-.38,1.48,1.48,0,0,1-.32-1.94,1.15,1.15,0,0,1,.93-0.49h0a1,1,0,0,1,.79.43,0.89,0.89,0,0,1,.1.82,0.78,0.78,0,0,1-.53.47,0.15,0.15,0,0,1-.18-0.11,0.15,0.15,0,0,1,.11-0.18,0.47,0.47,0,0,0,.33-0.29,0.59,0.59,0,0,0-.07-0.54,0.64,0.64,0,0,0-.54-0.3,0.85,0.85,0,0,0-.7.37,1.19,1.19,0,0,0,.28,1.55,1.17,1.17,0,0,0,1,.29,1.26,1.26,0,0,0,.9-0.61,2.31,2.31,0,0,0-.54-2.68l-1.22-1.19a2.54,2.54,0,0,1-.58-3,1.56,1.56,0,0,1,1.12-.75,1.54,1.54,0,0,1,1.54,2.31,1.12,1.12,0,0,1-1,.49,1,1,0,0,1-.78-0.43,0.89,0.89,0,0,1-.1-0.82,0.78,0.78,0,0,1,.53-0.47,0.15,0.15,0,0,1,.07.29,0.47,0.47,0,0,0-.33.29,0.59,0.59,0,0,0,.07.55,0.65,0.65,0,0,0,.54.3,0.86,0.86,0,0,0,.7-0.37,1.19,1.19,0,0,0-.28-1.55,1.17,1.17,0,0,0-1-.29,1.26,1.26,0,0,0-.9.61,2.31,2.31,0,0,0,.54,2.68l1.22,1.19a2.54,2.54,0,0,1,.58,3,1.56,1.56,0,0,1-1.12.75l-0.22,0h0Z" transform="translate(-458.02 -197.48)"/>
      <path class="f" d="M460.37,223.22a1.46,1.46,0,0,1-1-.38,1.48,1.48,0,0,1-.32-1.94,1.11,1.11,0,0,1,.95-0.49,1,1,0,0,1,.79.43,0.89,0.89,0,0,1,.1.82,0.78,0.78,0,0,1-.53.47,0.15,0.15,0,0,1-.18-0.11,0.15,0.15,0,0,1,.11-0.18,0.47,0.47,0,0,0,.33-0.29,0.59,0.59,0,0,0-.07-0.55,0.66,0.66,0,0,0-.54-0.3,0.78,0.78,0,0,0-.7.37,1.19,1.19,0,0,0,.28,1.55,1.16,1.16,0,0,0,1,.29,1.26,1.26,0,0,0,.9-0.61,2.31,2.31,0,0,0-.54-2.68l-1.22-1.12a2.54,2.54,0,0,1-.58-3,1.56,1.56,0,0,1,1.12-.75,1.55,1.55,0,0,1,1.53,2.31,1.16,1.16,0,0,1-1,.49,1,1,0,0,1-.78-0.43,0.89,0.89,0,0,1-.1-0.82,0.77,0.77,0,0,1,.53-0.47,0.15,0.15,0,0,1,.07.29,0.47,0.47,0,0,0-.33.29,0.59,0.59,0,0,0,.07.55,0.64,0.64,0,0,0,.54.3,0.81,0.81,0,0,0,.7-0.37,1.19,1.19,0,0,0-.28-1.55,1.17,1.17,0,0,0-1-.29,1.26,1.26,0,0,0-.9.61,2.3,2.3,0,0,0,.54,2.68l1.21,1.12a2.54,2.54,0,0,1,.58,3,1.56,1.56,0,0,1-1.12.75l-0.22,0h0Z" transform="translate(-458.02 -197.48)"/>
      <polygon class="f" points="1.11 8.64 2.38 8.53 3.66 8.64 2.39 8.75 1.11 8.64"/>
      <path class="f" d="M460.4,206.33h0l-1.27-.11a0.1,0.1,0,0,1-.09-0.1,0.1,0.1,0,0,1,.09-0.1l1.27-.11,1.29,0.11a0.1,0.1,0,0,1,.09.1,0.1,0.1,0,0,1-.09.1l-1.27.11h0Z" transform="translate(-458.02 -197.48)"/>
      <polygon class="f" points="1.11 17.21 2.38 17.1 3.66 17.21 2.39 17.32 1.11 17.21"/>
      <path class="f" d="M460.4,214.9h0l-1.27-.11a0.1,0.1,0,0,1-.09-0.1,0.1,0.1,0,0,1,.09-0.1l1.27-.11,1.29,0.11a0.1,0.1,0,0,1,.09.1,0.1,0.1,0,0,1-.09.1l-1.27.11h0Z" transform="translate(-458.02 -197.48)"/>
      <polygon class="f" points="1.11 25.77 2.38 25.66 3.66 25.76 2.39 25.88 1.11 25.77"/>
      <path class="f" d="M460.4,223.46h0l-1.27-.11a0.1,0.1,0,0,1,0-.2l1.27-.11,1.29,0.11a0.1,0.1,0,0,1,0,.2l-1.27.11h0Z" transform="translate(-458.02 -197.48)"/>
    </g>
  </g>
</svg>
