<svg xmlns="http://www.w3.org/2000/svg" xmlns:xlink="http://www.w3.org/1999/xlink" viewBox="0 0 58.93 34.37">
  <defs>
    <style>
      .a {
        fill: none;
      }

      .b {
        clip-path: url(#a);
      }

      .c {
        fill: #2115a9;
      }

      .d {
        fill: #3f8a45;
      }

      .e {
        fill: #f4c545;
      }

      .f {
        fill: #fff;
      }
    </style>
    <clipPath id="a" transform="translate(-668.5 -197.48)">
      <rect class="a" x="668.5" y="197.48" width="58.93" height="34.37"/>
    </clipPath>
  </defs>
  <title>Christmas_Island</title>
  <g class="b">
    <rect class="c" width="58.93" height="34.37"/>
    <polygon class="d" points="0 0 58.93 34.37 58.89 0.03 0 0"/>
    <g class="b">
      <path class="e" d="M703.34,214.65a5.32,5.32,0,1,1-5.32-5.32,5.32,5.32,0,0,1,5.32,5.32h0Z" transform="translate(-668.5 -197.48)"/>
      <path class="d" d="M694.71,212.28c0.36,0.5.92,1.34,1.36,1.12,0.35,0,.53,0,0.57.26a3.4,3.4,0,0,0,3-1.32s0.07,0,0-.41a0.15,0.15,0,0,1,.26-0.09c0,0.09,0,.16.08,0.16a1.65,1.65,0,0,0,.37-0.42,0.55,0.55,0,0,0,0-.22,0.14,0.14,0,0,1,.26,0c0,0.05,0,.09.06,0.15a0.7,0.7,0,0,0,.47,0,0.12,0.12,0,0,1,.11-0.12c0.11,0,.06,0,0.13,0a4.74,4.74,0,0,0,.12,1.1,2.85,2.85,0,0,1-.12.68c0,0.19.64,0.19,0.43,0.35s0,0.29-.28.36a2,2,0,0,0-1,.76,3.57,3.57,0,0,1-.23.38,0.8,0.8,0,0,1-.4.24,1.12,1.12,0,0,0,0,.68,1.28,1.28,0,0,1-.07.63,2.42,2.42,0,0,1-.28.78c-0.1.2,0,1.11-.07,1.11a5.15,5.15,0,0,1-1.3-.16,6.91,6.91,0,0,0,.14-2c-0.06-.71-1.07-0.54-1.23-0.63a0.53,0.53,0,0,1-.26-0.18c-0.14,0-.2,0-0.34-0.06a0.44,0.44,0,0,1-.19.12,0.6,0.6,0,0,1-.58-0.35,12.09,12.09,0,0,0-1.41-.09c-0.21.12-.3,0.46-0.47,0.5,0,0.11-.28-0.09-0.33-0.19a0.49,0.49,0,0,1,.26-0.44,4.18,4.18,0,0,0,.45-0.29,2.06,2.06,0,0,1,.14-0.65,0.58,0.58,0,0,1,.33-0.15,0.7,0.7,0,0,0,.05-0.63l-0.43-.39a0.43,0.43,0,0,1,.24-0.6h0Z" transform="translate(-668.5 -197.48)"/>
      <path class="e" d="M720.23,205.69c-0.24-1-2.4-3-4-4.32-0.39-.26-0.64-0.11-0.59.27,0.2,0.34.35,0.71,0.56,1s0.16,0.38.22,0.61a1.94,1.94,0,0,0,.05.42,2.15,2.15,0,0,1,.57,1,4.49,4.49,0,0,0,1.06,1.43c0.57,0.36.15,1.48,0.17,2.07,0,0.38-.27.33-0.5,0.29-1.86-1.71-3.7-1.71-5.32-2.21-0.63-.07-0.64.24-0.44,0.4a11.9,11.9,0,0,0,3.6,2.73l0.71,0.44,0.81,0.67a1.24,1.24,0,0,1,.67.81,3.15,3.15,0,0,1-.51,1.58,1.24,1.24,0,0,1-.64.94c-3.47,2.34-5.29,2.95-10.91,2.22-0.08,0-.62,0,0,0.27a11.65,11.65,0,0,0,8.35-.37c0.82-.57,1.37-0.38,2-0.73a26,26,0,0,1,2.61-1.43c0.76-.4,2.88-0.86,3.37-1.26,0.56,0,1.14-.12,1.18-0.6a0.93,0.93,0,0,0,.65-0.43c0.44-.08.37-0.24,0.37-0.24a2.08,2.08,0,0,0-.82-0.67,1.31,1.31,0,0,0-1.06,0l-0.3.13a2.38,2.38,0,0,1-.47-0.1c-1-.06-0.95-3.53-1.32-5h0Z" transform="translate(-668.5 -197.48)"/>
      <path class="d" d="M722.69,211.37a0.24,0.24,0,0,1-.3.07,0.22,0.22,0,0,1-.19-0.23,0.24,0.24,0,0,1,.3-0.08,0.22,0.22,0,0,1,.19.23h0Z" transform="translate(-668.5 -197.48)"/>
      <polygon class="f" points="11.09 13.71 10.34 13 9.58 13.7 9.66 12.67 8.64 12.51 9.49 11.93 8.99 11.04 9.97 11.35 10.35 10.39 10.72 11.35 11.71 11.05 11.19 11.94 12.04 12.53 11.02 12.68 11.09 13.71"/>
      <polygon class="f" points="13.75 22.23 12.94 21.69 12.15 22.26 12.43 21.34 11.63 20.78 12.61 20.76 12.91 19.84 13.24 20.75 14.22 20.74 13.44 21.32 13.75 22.23"/>
      <polygon class="f" points="17.48 18.72 16.73 18.01 15.96 18.71 16.05 17.68 15.03 17.52 15.88 16.94 15.38 16.05 16.36 16.35 16.74 15.4 17.11 16.36 18.1 16.07 17.58 16.95 18.43 17.54 17.41 17.69 17.48 18.72"/>
      <polygon class="f" points="4.48 20.97 3.73 20.26 2.97 20.96 3.06 19.93 2.04 19.77 2.89 19.19 2.38 18.3 3.37 18.61 3.75 17.65 4.12 18.61 5.11 18.32 4.59 19.2 5.43 19.79 4.42 19.94 4.48 20.97"/>
      <polygon class="f" points="11.24 29.56 10.48 28.86 9.72 29.55 9.81 28.52 8.79 28.36 9.64 27.79 9.14 26.89 10.12 27.2 10.5 26.25 10.87 27.2 11.86 26.91 11.34 27.8 12.19 28.39 11.17 28.53 11.24 29.56"/>
    </g>
  </g>
</svg>
