<svg xmlns="http://www.w3.org/2000/svg" xmlns:xlink="http://www.w3.org/1999/xlink" viewBox="0 0 58.92 34.37">
  <defs>
    <style>
      .a {
        fill: none;
      }

      .b {
        clip-path: url(#a);
      }

      .c {
        fill: #fbff2c;
      }

      .d {
        fill: #b90019;
      }
    </style>
    <clipPath id="a" transform="translate(-739.19 -197.48)">
      <rect class="a" x="739.19" y="197.48" width="58.92" height="34.37"/>
    </clipPath>
  </defs>
  <title>Chuvashia</title>
  <g class="b">
    <rect class="c" width="58.92" height="34.37"/>
    <rect class="c" y="26.95" width="58.92" height="0.55"/>
    <path class="d" d="M774.81,202.4l0,1.58-1.54,0,1.53,1.57-1.53,1.57,1.54,0,0,1.58,1.53-1.57,1.53,1.57,0-1.58,1.54,0-1.53-1.57L779.4,204l-1.54,0,0-1.58L776.35,204Zm0.56,1.35,1,1,1-1v0.79h0.77l-1,1,1,1H777.3v0.79l-1-1-1,1v-0.79h-0.77l1-1-1-1h0.77v-0.79Z" transform="translate(-739.19 -197.48)"/>
    <path class="d" d="M762.13,208.65L759.85,211l1.91,1.93h1.52l1.32-1.37L763.07,210l-0.94,1,0.58,0.58,0.38-.39,0.38,0.38-0.75.79L761.37,211l1.7-1.76,4.62,4.66v-1.16l-4.05-4.09h-1.5Zm11.54,0-4.05,4.09v1.16l4.62-4.66,1.7,1.76-1.34,1.35-0.75-.79,0.38-.38,0.38,0.39,0.58-.58-0.94-1-1.53,1.55,1.32,1.37h1.52l1.91-1.93-2.28-2.36h-1.5ZM765,212l-1.88,2v1.55l1.15,1.16,1.7-1.76-1-1-0.56.59,0.38,0.39-0.38.39-0.77-.77,1.32-1.37,1.88,1.9v8.39l0.81,0.06v-8.79Zm7.32,0-2.7,2.72v8.79h0.81V215l1.88-1.9,1.32,1.37-0.77.77-0.38-.39,0.38-.39-0.56-.59-1,1,1.7,1.76,1.15-1.16v-1.55Zm-3.66-.17,4.07-4.11-1.7-1.76-1.34,1.35,0.75,0.79,0.38-.39-0.38-.39,0.57-.58,0.94,1-1.53,1.54-1.32-1.37v-1.56l1.91-1.93,2.25,2.34v1.56l-4.21,4.25v0.15h0V225h-0.84V212.66h0v-0.15L764,208.26V206.7l2.25-2.34,1.91,1.93v1.56l-1.32,1.37-1.53-1.54,0.94-1,0.57,0.58-0.38.39,0.38,0.39,0.75-.79-1.34-1.35-1.7,1.76Z" transform="translate(-739.19 -197.48)"/>
    <path class="d" d="M762.48,202.4l0,1.58,1.54,0-1.53,1.57,1.53,1.57-1.54,0,0,1.58L761,207.08l-1.53,1.57,0-1.58-1.54,0,1.53-1.57L757.9,204l1.54,0,0-1.58L761,204Zm-0.56,1.35-1,1-1-1v0.79h-0.77l1,1-1,1H760v0.79l1-1,1,1v-0.79h0.77l-1-1,1-1h-0.77v-0.79Z" transform="translate(-739.19 -197.48)"/>
    <path class="d" d="M767.12,199l0,1.58-1.54,0,1.53,1.57-1.53,1.57,1.54,0,0,1.58,1.53-1.57,1.53,1.57,0-1.58,1.54,0-1.53-1.57,1.53-1.57-1.54,0,0-1.58-1.53,1.57Zm0.56,1.35,1,1,1-1v0.79h0.77l-1,1,1,1h-0.77v0.79l-1-1-1,1v-0.79h-0.77l1-1-1-1h0.77v-0.79Z" transform="translate(-739.19 -197.48)"/>
    <rect class="d" y="27.5" width="58.92" height="6.87"/>
    <path class="d" d="M769.61,223.33v0.83h28.5v-0.82h-28.5Zm-30.42,0v0.82h28.5v-0.82h-28.5Z" transform="translate(-739.19 -197.48)"/>
  </g>
</svg>
