<svg xmlns="http://www.w3.org/2000/svg" xmlns:xlink="http://www.w3.org/1999/xlink" viewBox="0 0 58.93 34.37">
  <defs>
    <style>
      .a {
        fill: none;
      }

      .b {
        clip-path: url(#a);
      }

      .c {
        fill: #2f3c85;
      }

      .d {
        fill: #292c2f;
      }

      .e, .g {
        fill: #fff;
      }

      .f {
        fill: #d80031;
      }

      .g {
        fill-rule: evenodd;
      }
    </style>
    <clipPath id="a" transform="translate(-316.63 -255.23)">
      <rect class="a" x="316.63" y="255.23" width="58.93" height="34.37"/>
    </clipPath>
  </defs>
  <title>Cuba</title>
  <g class="b">
    <rect class="c" width="58.93" height="34.37"/>
    <path class="d" d="M316.63,279.31h0Zm0-13.78h0Z" transform="translate(-316.63 -255.23)"/>
    <path class="e" d="M316.63,282.74h58.93v-6.87H316.63v6.87Zm0-13.78h58.93v-6.86H316.63V269Z" transform="translate(-316.63 -255.23)"/>
    <polygon class="f" points="0 0 0 34.37 29.72 17.21 0 0"/>
    <polygon class="g" points="9.93 11.46 8.15 16.88 10.87 17.77 9.93 11.46"/>
    <polygon class="g" points="9.93 11.46 11.64 16.88 8.93 17.77 9.93 11.46"/>
    <polygon class="g" points="15.36 15.44 9.65 15.44 9.65 18.27 15.36 15.44"/>
    <polygon class="g" points="15.36 15.44 10.7 18.76 9.04 16.49 15.36 15.44"/>
    <polygon class="g" points="4.44 15.44 9.09 18.76 10.76 16.49 4.44 15.44"/>
    <polygon class="g" points="4.44 15.44 10.2 15.44 10.2 18.27 4.44 15.44"/>
    <polygon class="g" points="13.25 21.81 11.48 16.39 8.76 17.27 13.25 21.81"/>
    <polygon class="g" points="13.25 21.81 8.65 18.43 10.31 16.16 13.25 21.81"/>
    <polygon class="g" points="6.54 21.81 11.14 18.43 9.48 16.16 6.54 21.81"/>
    <polygon class="g" points="6.54 21.81 8.32 16.39 11.03 17.27 6.54 21.81"/>
  </g>
</svg>
