<svg xmlns="http://www.w3.org/2000/svg" xmlns:xlink="http://www.w3.org/1999/xlink" viewBox="0 0 58.92 34.37">
  <defs>
    <style>
      .a {
        fill: none;
      }

      .b {
        clip-path: url(#a);
      }

      .c {
        fill: #2d6c41;
      }

      .d {
        fill: #fff;
      }

      .e {
        fill: #f3d02f;
      }

      .f {
        fill: #c20038;
      }

      .g {
        fill: #3d9546;
      }

      .h {
        fill: #904a15;
      }

      .i {
        fill: #8d5bc5;
      }
    </style>
    <clipPath id="a" transform="translate(-739.19 -255.23)">
      <rect class="a" x="739.19" y="255.23" width="58.92" height="34.37"/>
    </clipPath>
  </defs>
  <title>Dominica</title>
  <g class="b">
    <rect class="c" width="58.92" height="34.37"/>
    <rect class="d" y="18.62" width="58.92" height="2.86"/>
    <rect y="15.75" width="58.92" height="2.87"/>
    <rect class="e" y="12.89" width="58.92" height="2.87"/>
    <rect class="e" x="25.16" width="2.87" height="34.37"/>
    <rect x="28.03" width="2.87" height="34.37"/>
    <rect class="d" x="30.89" width="2.86" height="34.37"/>
    <g class="b">
      <path class="f" d="M777.24,272.42a8.59,8.59,0,1,1-8.59-8.59,8.59,8.59,0,0,1,8.59,8.59h0Z" transform="translate(-739.19 -255.23)"/>
      <path class="c" d="M768.38,265.63s0.28-.79.28-0.79l0.25,0.77s0.84,0,.84,0-0.66.51-.66,0.51,0.31,0.89.3,0.86-0.73-.53-0.73-0.53l-0.71.51s0.28-.84.28-0.84l-0.65-.49h0.81Z" transform="translate(-739.19 -255.23)"/>
      <path d="M769.37,267.06l0,0s-0.46-.34-0.72-0.52c-0.15.13-.64,0.47-0.68,0.5a4.22,4.22,0,0,1,.23-0.87l-0.64-.46,0.82-.06a7.93,7.93,0,0,1,.26-0.77l0.31,0.77s0.51,0,.72,0h0.08v0h0a0,0,0,0,1,0,0,7.75,7.75,0,0,1-.6.5c0.22,0.58.29,0.76,0.3,0.82h0a0,0,0,0,1,0,0l0,0h0Zm-0.74-2.18a7.41,7.41,0,0,1-.23.76l-0.84,0,0.67,0.44c0,0.1-.21.72-0.26,0.85a5.44,5.44,0,0,1,.66-0.52l0.69,0.47-0.27-.77c0.06-.07.43-0.36,0.59-0.48l-0.74,0-0.27-.77h0Z" transform="translate(-739.19 -255.23)"/>
      <path class="c" d="M768.93,279.22s-0.28.79-.28,0.79l-0.25-.77s-0.84,0-.84,0,0.67-.51.67-0.51l-0.3-.86s0.73,0.53.73,0.53l0.71-.51s-0.28.84-.28,0.84l0.65,0.49h-0.81Z" transform="translate(-739.19 -255.23)"/>
      <path d="M768.65,280.09l-0.28-.85s-0.52,0-.73,0h-0.07v0a0,0,0,0,1,0,0,6.94,6.94,0,0,1,.6-0.5c-0.22-.58-0.29-0.76-0.3-0.82h0s0,0,0,0,0.5,0.34.77,0.53c0.15-.13.62-0.46,0.67-0.5h0l0,0,0,0a0.09,0.09,0,0,1,0,0h0a5.9,5.9,0,0,1-.23.84l0.64,0.46-0.82.06s0,0.17-.26.77l0,0.08h0Zm-1-.91,0.74,0,0.25,0.71,0.25-.7,0.84,0-0.67-.44c0-.1.21-0.72,0.26-0.85a5.29,5.29,0,0,1-.66.52c-0.55-.37-0.7-0.49-0.75-0.52a7.29,7.29,0,0,1,.33.82c-0.06.07-.43,0.36-0.59,0.48h0Z" transform="translate(-739.19 -255.23)"/>
      <path class="c" d="M772.64,267.58s-0.28.79-.28,0.79l-0.25-.77s-0.84,0-.84,0,0.66-.51.66-0.51l-0.3-.86s0.73,0.53.73,0.53l0.71-.51s-0.28.84-.28,0.84l0.65,0.49h-0.81Z" transform="translate(-739.19 -255.23)"/>
      <path d="M772.37,268.45l-0.28-.85s-0.52,0-.72,0h-0.08v0a0,0,0,0,1,0,0,6.72,6.72,0,0,1,.6-0.5c-0.22-.58-0.29-0.76-0.3-0.82h0a0,0,0,0,1,0,0c0.07,0,.5.34,0.77,0.53,0.15-.13.62-0.46,0.67-0.5h0l0,0,0,0a0.08,0.08,0,0,1,0,0h0a5.82,5.82,0,0,1-.23.84l0.64,0.46-0.82.06s0,0.17-.26.77l0,0.08h0Zm-1-.91,0.74,0,0.25,0.72,0.25-.71,0.84,0-0.67-.44c0-.11.21-0.72,0.26-0.85a5.89,5.89,0,0,1-.66.52c-0.55-.37-0.7-0.49-0.75-0.53a7.43,7.43,0,0,1,.33.82c-0.06.07-.43,0.36-0.6,0.48h0Z" transform="translate(-739.19 -255.23)"/>
      <path class="c" d="M775.06,274.62s-0.28.79-.28,0.79l-0.25-.77s-0.84,0-.84,0,0.66-.51.66-0.51-0.31-.89-0.3-0.86,0.73,0.53.73,0.53l0.71-.51s-0.28.84-.28,0.84l0.65,0.49h-0.81Z" transform="translate(-739.19 -255.23)"/>
      <path d="M774.78,275.5l-0.28-.85s-0.52,0-.73,0H773.7v0a0,0,0,0,1,0,0,7,7,0,0,1,.6-0.5c-0.22-.58-0.29-0.76-0.3-0.82h0s0,0,0,0,0.5,0.34.77,0.53c0.15-.13.62-0.46,0.67-0.5h0l0,0h0l0,0h0a0.08,0.08,0,0,1,0,0h0a6,6,0,0,1-.23.84l0.64,0.46-0.82.06a7.25,7.25,0,0,1-.26.77l0,0.08h0Zm-1-.91,0.74,0,0.25,0.71,0.25-.7,0.84,0-0.67-.44c0-.1.21-0.72,0.26-0.85a5.33,5.33,0,0,1-.66.52c-0.55-.37-0.71-0.49-0.75-0.53a7.43,7.43,0,0,1,.33.82c-0.06.07-.43,0.36-0.6,0.48h0Z" transform="translate(-739.19 -255.23)"/>
      <path class="c" d="M762.8,274.83s-0.28.79-.28,0.79l-0.25-.77s-0.84,0-.84,0,0.66-.51.66-0.51l-0.3-.86s0.73,0.53.73,0.53l0.71-.51s-0.28.84-.28,0.84l0.65,0.49H762.8Z" transform="translate(-739.19 -255.23)"/>
      <path d="M762.52,275.7l-0.28-.85s-0.52,0-.73,0h-0.08v0a0,0,0,0,1,0,0c0.11-.12.4-0.34,0.6-0.5-0.22-.58-0.29-0.76-0.3-0.82h0s0,0,0,0,0.5,0.34.77,0.53c0.15-.12.62-0.46,0.67-0.5h0l0,0h0l0,0h0v0h0a6.29,6.29,0,0,1-.23.84l0.64,0.46-0.82.06a8,8,0,0,1-.26.77l0,0.08h0Zm-1-.91,0.74,0,0.25,0.72,0.25-.71,0.84,0-0.67-.44c0-.1.21-0.72,0.26-0.85a5.34,5.34,0,0,1-.66.52c-0.55-.37-0.7-0.49-0.75-0.52a7.27,7.27,0,0,1,.33.82c-0.06.06-.43,0.36-0.59,0.48h0Z" transform="translate(-739.19 -255.23)"/>
      <path class="c" d="M765,267.66s-0.28.79-.28,0.79l-0.25-.77s-0.84,0-.84,0,0.66-.51.66-0.51l-0.3-.86s0.73,0.53.73,0.53l0.71-.51s-0.27.84-.27,0.84l0.65,0.5H765Z" transform="translate(-739.19 -255.23)"/>
      <path d="M764.74,268.53l-0.28-.85s-0.52,0-.72,0h-0.08v0a0,0,0,0,1,0,0,6.72,6.72,0,0,1,.6-0.5c-0.22-.58-0.29-0.76-0.3-0.82h0s0,0,0,0,0.5,0.34.77,0.53c0.15-.12.62-0.46,0.67-0.5h0l0,0,0,0a0.08,0.08,0,0,1,0,0h0a6.19,6.19,0,0,1-.23.84l0.64,0.46-0.82.06s0,0.17-.26.77l0,0.08h0Zm-1-.91,0.74,0,0.25,0.71,0.25-.7,0.84,0-0.67-.44c0-.1.21-0.72,0.26-0.85a5.3,5.3,0,0,1-.66.52c-0.54-.37-0.7-0.48-0.75-0.52a7.44,7.44,0,0,1,.33.82c-0.06.07-.43,0.36-0.6,0.48h0Z" transform="translate(-739.19 -255.23)"/>
      <path class="c" d="M762.2,270.23s0.28-.79.28-0.79l0.25,0.77s0.84,0,.84,0-0.66.51-.66,0.51,0.31,0.89.3,0.86-0.73-.53-0.73-0.53l-0.71.51s0.28-.84.28-0.84l-0.65-.49h0.81Z" transform="translate(-739.19 -255.23)"/>
      <path d="M763.19,271.66l0,0-0.72-.53c-0.15.13-.64,0.47-0.68,0.5a4.17,4.17,0,0,1,.23-0.87l-0.64-.46,0.82-.06a7.67,7.67,0,0,1,.26-0.77l0.3,0.77s0.52,0,.73,0h0.08v0h0a0,0,0,0,1,0,0,7,7,0,0,1-.6.5c0.22,0.58.29,0.76,0.3,0.82h0a0,0,0,0,1,0,0l0,0h0Zm-0.74-2.18a7,7,0,0,1-.23.76l-0.84,0,0.67,0.44c0,0.1-.21.72-0.26,0.85a5.47,5.47,0,0,1,.66-0.52l0.69,0.47-0.27-.77c0.06-.06.43-0.36,0.59-0.48l-0.74,0-0.27-.77h0Z" transform="translate(-739.19 -255.23)"/>
      <path class="c" d="M764.59,277.27s0.28-.79.28-0.79l0.25,0.77s0.84,0,.84,0-0.66.51-.66,0.51,0.31,0.89.3,0.86-0.73-.53-0.73-0.53l-0.71.51s0.28-.84.28-0.84l-0.65-.49h0.81Z" transform="translate(-739.19 -255.23)"/>
      <path d="M765.59,278.69l0,0-0.72-.53c-0.15.13-.64,0.47-0.68,0.5a4.2,4.2,0,0,1,.23-0.87l-0.64-.46,0.82-.06a7.44,7.44,0,0,1,.26-0.77l0.3,0.77s0.51,0,.72,0h0.08v0h0a0,0,0,0,1,0,0,7,7,0,0,1-.6.5c0.22,0.58.29,0.76,0.3,0.82h0s0,0,0,0l0,0h0Zm-0.74-2.18a6.66,6.66,0,0,1-.23.76l-0.84,0,0.67,0.44c0,0.1-.21.72-0.26,0.85a5.48,5.48,0,0,1,.66-0.52l0.69,0.47-0.27-.77c0.06-.07.43-0.36,0.6-0.48l-0.74,0-0.27-.77h0Z" transform="translate(-739.19 -255.23)"/>
      <path class="c" d="M774.46,270s0.28-.79.28-0.79L775,270s0.84,0,.84,0-0.66.51-.66,0.51l0.3,0.86s-0.73-.53-0.73-0.53l-0.71.51s0.28-.84.28-0.84l-0.65-.49h0.81Z" transform="translate(-739.19 -255.23)"/>
      <path d="M775.46,271.47l0,0-0.72-.53c-0.15.13-.64,0.47-0.68,0.5a4.47,4.47,0,0,1,.23-0.86l-0.64-.46,0.82-.06a8,8,0,0,1,.26-0.77L775,270s0.51,0,.72,0h0.08v0h0a0,0,0,0,1,0,0c-0.12.13-.46,0.39-0.6,0.5,0.22,0.58.29,0.76,0.3,0.82h0s0,0,0,0l0,0h0Zm-0.74-2.18a7.11,7.11,0,0,1-.23.76l-0.84,0,0.67,0.44c0,0.1-.21.72-0.26,0.85a5.33,5.33,0,0,1,.66-0.52l0.69,0.47-0.27-.77c0.06-.06.43-0.36,0.59-0.48l-0.74,0-0.27-.77h0Z" transform="translate(-739.19 -255.23)"/>
      <path class="c" d="M772.23,277.2s0.28-.79.28-0.79l0.25,0.77s0.84,0,.84,0-0.66.51-.66,0.51,0.31,0.89.3,0.86S772.5,278,772.5,278l-0.71.51s0.28-.84.28-0.84l-0.65-.49h0.81Z" transform="translate(-739.19 -255.23)"/>
      <path d="M773.23,278.63l0,0-0.72-.53c-0.15.13-.64,0.47-0.68,0.5a4.14,4.14,0,0,1,.23-0.87l-0.64-.46,0.82-.06a7,7,0,0,1,.26-0.77l0.3,0.77s0.52,0,.73,0h0.08v0h0a0,0,0,0,1,0,0,7.07,7.07,0,0,1-.6.5c0.22,0.58.29,0.76,0.31,0.82h0a0,0,0,0,1,0,0l0,0h0Zm-0.74-2.18a7.47,7.47,0,0,1-.23.76l-0.84,0,0.67,0.44c0,0.1-.21.72-0.26,0.85a5.34,5.34,0,0,1,.66-0.52l0.69,0.47-0.27-.77c0.06-.06.43-0.36,0.6-0.48l-0.74,0-0.27-.77h0Z" transform="translate(-739.19 -255.23)"/>
      <path class="g" d="M762.87,270.55h0Z" transform="translate(-739.19 -255.23)"/>
      <path class="g" d="M770.27,275.75h0Z" transform="translate(-739.19 -255.23)"/>
      <path class="g" d="M768.11,284h0Z" transform="translate(-739.19 -255.23)"/>
      <path class="g" d="M757.77,284h0Z" transform="translate(-739.19 -255.23)"/>
      <path class="g" d="M755.88,275.54h0Z" transform="translate(-739.19 -255.23)"/>
      <path class="g" d="M778.54,260.16h0Z" transform="translate(-739.19 -255.23)"/>
      <path class="g" d="M781.51,268.24h0Z" transform="translate(-739.19 -255.23)"/>
      <path class="g" d="M774.14,274.15h0Z" transform="translate(-739.19 -255.23)"/>
      <path class="g" d="M767.22,268.24h0Z" transform="translate(-739.19 -255.23)"/>
      <path class="g" d="M769.78,260.28h0Z" transform="translate(-739.19 -255.23)"/>
      <path class="c" d="M769.65,272.17c0.28,0,.59,1.08.69,2.47s0,2.55-.33,2.58-0.59-1.08-.69-2.47,0-2.55.33-2.58h0Z" transform="translate(-739.19 -255.23)"/>
      <path d="M770,277.25c-0.34,0-.62-1.29-0.71-2.5s0-2.58.36-2.61h0c0.36,0,.64,1.29.72,2.5s0,2.57-.36,2.61h0Zm-0.34-5.05c-0.24,0-.42,1.05-0.31,2.55s0.42,2.45.65,2.45v0c0.23,0,.41-1.05.31-2.55s-0.42-2.45-.65-2.45h0Z" transform="translate(-739.19 -255.23)"/>
      <path class="c" d="M770.15,272.16c0.3,0,.62,1.07.72,2.47s-0.06,2.55-.36,2.58-0.62-1.07-.72-2.47,0.06-2.55.36-2.58h0Z" transform="translate(-739.19 -255.23)"/>
      <path d="M770.5,277.24c-0.36,0-.65-1.29-0.74-2.5s0-2.58.38-2.61h0c0.38,0,.67,1.29.75,2.5s0,2.57-.38,2.61h0Zm-0.34-5.05c-0.26,0-.45,1.06-0.34,2.55s0.44,2.44.68,2.44v0c0.25,0,.44-1.05.33-2.55s-0.44-2.44-.68-2.44h0Z" transform="translate(-739.19 -255.23)"/>
      <path class="c" d="M769.9,272c0.24,0,.52,1.21.63,2.75s0,2.81-.24,2.84-0.52-1.21-.63-2.75,0-2.81.24-2.84h0Z" transform="translate(-739.19 -255.23)"/>
      <path d="M770.28,277.64c-0.29,0-.55-1.43-0.65-2.77s0-2.84.26-2.87h0c0.3,0,.56,1.43.66,2.77s0,2.84-.26,2.87h0Zm-0.37-5.58c-0.2,0-.33,1.18-0.22,2.81s0.4,2.72.59,2.72v0c0.19,0,.33-1.18.21-2.81s-0.4-2.72-.59-2.72h0Z" transform="translate(-739.19 -255.23)"/>
      <path class="h" d="M766.12,276c0.44,0,.25-0.25.47-0.38a0.51,0.51,0,0,1,.63.12c0.1,0.15,0,.31.14,0.31a33.18,33.18,0,0,1,3.55,0,0.38,0.38,0,0,1,0,.49,32.27,32.27,0,0,1-4.45,0,1.76,1.76,0,0,1-.35-0.57h0Z" transform="translate(-739.19 -255.23)"/>
      <path d="M768.05,276.66a9.74,9.74,0,0,1-1.6-.07,1.69,1.69,0,0,1-.37-0.6,0.31,0.31,0,0,0,.34-0.21,0.31,0.31,0,0,1,.15-0.19,0.56,0.56,0,0,1,.67.13,0.48,0.48,0,0,1,.06.2c0,0.08,0,.09.05,0.1h0.32c0.53,0,1.58-.05,2.34-0.05a1.87,1.87,0,0,1,.91.07,0.46,0.46,0,0,1,.11.33,0.28,0.28,0,0,1-.09.21,24.79,24.79,0,0,1-2.89.11h0Zm-1.22-1.07a0.47,0.47,0,0,0-.23.06,0.25,0.25,0,0,0-.12.16,0.31,0.31,0,0,1-.36.22,5.07,5.07,0,0,0,.37.52,9.9,9.9,0,0,0,1.56.05,25.56,25.56,0,0,0,2.86-.1,0.23,0.23,0,0,0,.07-0.16,0.41,0.41,0,0,0-.09-0.29,3.23,3.23,0,0,0-.87,0c-0.76,0-1.81,0-2.34.05h-0.32a0.12,0.12,0,0,1-.12-0.15,0.45,0.45,0,0,0-.05-0.18,0.44,0.44,0,0,0-.36-0.16h0Z" transform="translate(-739.19 -255.23)"/>
      <path class="e" d="M768.46,276.33c0,0.33.48,0.24,0.49,0.51s-0.82,0-.83-0.52,0.82-.8.83-0.49-0.48.17-.49,0.5h0Z" transform="translate(-739.19 -255.23)"/>
      <path d="M768.78,277a0.75,0.75,0,0,1-.69-0.67c0-.58.88-0.81,0.89-0.5a0.28,0.28,0,0,1-.24.24,0.31,0.31,0,0,0-.26.26,0.28,0.28,0,0,0,.24.26,0.3,0.3,0,0,1,.25.25,0.16,0.16,0,0,1-.19.15h0Zm0-1.26a0.6,0.6,0,1,0,0,1.2,0.11,0.11,0,0,0,.13-0.09,0.26,0.26,0,0,0-.21-0.2,0.33,0.33,0,0,1-.27-0.31,0.37,0.37,0,0,1,.29-0.31,0.22,0.22,0,0,0,.2-0.18,0.12,0.12,0,0,0-.14-0.1h0Z" transform="translate(-739.19 -255.23)"/>
      <path class="e" d="M768.75,276.33c0,0.33.48,0.24,0.49,0.51s-0.82,0-.83-0.52,0.82-.8.83-0.49-0.48.17-.49,0.5h0Z" transform="translate(-739.19 -255.23)"/>
      <path d="M769.07,277a0.75,0.75,0,0,1-.7-0.66c0-.58.88-0.81,0.89-0.5a0.28,0.28,0,0,1-.24.24,0.31,0.31,0,0,0-.26.26,0.28,0.28,0,0,0,.24.26,0.31,0.31,0,0,1,.25.25,0.16,0.16,0,0,1-.19.15h0Zm0-1.26a0.6,0.6,0,1,0,0,1.2,0.11,0.11,0,0,0,.13-0.09,0.26,0.26,0,0,0-.21-0.2,0.33,0.33,0,0,1-.27-0.31A0.36,0.36,0,0,1,769,276a0.22,0.22,0,0,0,.2-0.19,0.11,0.11,0,0,0-.14-0.1h0Z" transform="translate(-739.19 -255.23)"/>
      <path class="e" d="M769.06,276.32c0,0.33.48,0.24,0.49,0.51s-0.82,0-.83-0.52,0.82-.8.83-0.49-0.48.17-.49,0.5h0Z" transform="translate(-739.19 -255.23)"/>
      <path d="M769.38,277a0.75,0.75,0,0,1-.7-0.66c0-.57.88-0.81,0.89-0.5a0.28,0.28,0,0,1-.23.24,0.3,0.3,0,0,0-.26.26,0.28,0.28,0,0,0,.24.26,0.3,0.3,0,0,1,.25.25,0.16,0.16,0,0,1-.19.15h0Zm0-1.26a0.6,0.6,0,1,0,0,1.2,0.11,0.11,0,0,0,.13-0.09,0.26,0.26,0,0,0-.21-0.2,0.34,0.34,0,0,1-.28-0.31,0.36,0.36,0,0,1,.29-0.31,0.22,0.22,0,0,0,.2-0.18,0.11,0.11,0,0,0-.14-0.1h0Z" transform="translate(-739.19 -255.23)"/>
      <path class="e" d="M769.35,276.32c0,0.33.48,0.24,0.49,0.51s-0.82,0-.83-0.52,0.82-.8.83-0.49-0.48.17-.49,0.5h0Z" transform="translate(-739.19 -255.23)"/>
      <path d="M769.67,277a0.75,0.75,0,0,1-.7-0.66c0-.58.88-0.81,0.89-0.5a0.28,0.28,0,0,1-.23.24,0.31,0.31,0,0,0-.26.26,0.29,0.29,0,0,0,.24.26,0.3,0.3,0,0,1,.25.25,0.16,0.16,0,0,1-.19.15h0Zm0-1.26a0.71,0.71,0,0,0-.64.6,0.7,0.7,0,0,0,.64.61,0.11,0.11,0,0,0,.13-0.09,0.26,0.26,0,0,0-.21-0.2,0.33,0.33,0,0,1-.27-0.31,0.37,0.37,0,0,1,.29-0.31,0.22,0.22,0,0,0,.2-0.18,0.12,0.12,0,0,0-.14-0.1h0Z" transform="translate(-739.19 -255.23)"/>
      <path class="h" d="M770.73,276a0.28,0.28,0,0,1,.27.29,0.28,0.28,0,0,1-.29.28,0.28,0.28,0,0,1-.27-0.29,0.28,0.28,0,0,1,.29-0.28h0Z" transform="translate(-739.19 -255.23)"/>
      <path d="M770.72,276.59h0a0.31,0.31,0,0,1-.3-0.32,0.31,0.31,0,0,1,.31-0.31,0.3,0.3,0,0,1,.22.09,0.31,0.31,0,0,1-.22.53h0Zm0-.57a0.26,0.26,0,0,0-.19.43,0.24,0.24,0,0,0,.17.07v0a0.26,0.26,0,0,0,.25-0.25,0.27,0.27,0,0,0-.07-0.18,0.25,0.25,0,0,0-.17-0.07h0Z" transform="translate(-739.19 -255.23)"/>
      <path class="c" d="M769,274.78a0.48,0.48,0,0,1,.3.51,0.53,0.53,0,0,1-.19.58,0.48,0.48,0,0,1-.31-0.51,0.53,0.53,0,0,1,.19-0.58h0Z" transform="translate(-739.19 -255.23)"/>
      <path d="M769.09,275.91a0.53,0.53,0,0,1-.32-0.54,0.54,0.54,0,0,1,.21-0.62h0a0.52,0.52,0,0,1,.34.54,0.54,0.54,0,0,1-.21.62h0Zm-0.08-1.1a0.73,0.73,0,0,0,.08,1v0a0.51,0.51,0,0,0,.17-0.55,0.5,0.5,0,0,0-.26-0.48h0Z" transform="translate(-739.19 -255.23)"/>
      <path class="c" d="M768.56,274.75a0.48,0.48,0,0,1,.31.51,0.53,0.53,0,0,1-.19.58,0.48,0.48,0,0,1-.31-0.51,0.53,0.53,0,0,1,.19-0.58h0Z" transform="translate(-739.19 -255.23)"/>
      <path d="M768.66,275.87a0.53,0.53,0,0,1-.32-0.54,0.54,0.54,0,0,1,.21-0.62h0a0.52,0.52,0,0,1,.34.54,0.54,0.54,0,0,1-.21.62h0Zm-0.08-1.1a0.49,0.49,0,0,0-.18.55,0.5,0.5,0,0,0,.26.48v0a0.51,0.51,0,0,0,.16-0.55,0.5,0.5,0,0,0-.26-0.48h0Z" transform="translate(-739.19 -255.23)"/>
      <path class="c" d="M768.26,274.21a0.48,0.48,0,0,1,.31.51,0.52,0.52,0,0,1-.19.58,0.48,0.48,0,0,1-.3-0.51,0.53,0.53,0,0,1,.19-0.58h0Z" transform="translate(-739.19 -255.23)"/>
      <path d="M768.36,275.33a0.76,0.76,0,0,1-.1-1.15h0a0.51,0.51,0,0,1,.34.53,0.54,0.54,0,0,1-.21.62h0Zm-0.08-1.1a0.49,0.49,0,0,0-.18.55,0.5,0.5,0,0,0,.26.48v0a0.51,0.51,0,0,0,.16-0.55,0.5,0.5,0,0,0-.26-0.48h0Z" transform="translate(-739.19 -255.23)"/>
      <path class="c" d="M768.68,274.13a0.54,0.54,0,0,1,.3.56,0.61,0.61,0,0,1-.17.64,0.55,0.55,0,0,1-.3-0.56,0.61,0.61,0,0,1,.17-0.64h0Z" transform="translate(-739.19 -255.23)"/>
      <path d="M768.8,275.36a0.6,0.6,0,0,1-.31-0.59,0.61,0.61,0,0,1,.2-0.67h0a0.57,0.57,0,0,1,.33.59,0.61,0.61,0,0,1-.2.67h0Zm-0.1-1.21a0.89,0.89,0,0,0,.1,1.15v0a0.59,0.59,0,0,0,.15-0.61,0.58,0.58,0,0,0-.26-0.54h0Z" transform="translate(-739.19 -255.23)"/>
      <path class="g" d="M769.28,274.17a0.51,0.51,0,0,1,.3.53,0.56,0.56,0,0,1-.18.6,0.51,0.51,0,0,1-.3-0.53,0.56,0.56,0,0,1,.18-0.6h0Z" transform="translate(-739.19 -255.23)"/>
      <path d="M769.38,275.33a0.56,0.56,0,0,1-.31-0.55,0.56,0.56,0,0,1,.2-0.63h0a0.53,0.53,0,0,1,.33.55,0.57,0.57,0,0,1-.2.63h0Zm-0.09-1.13a0.52,0.52,0,0,0-.16.57,0.52,0.52,0,0,0,.25.5v0a0.55,0.55,0,0,0,.15-0.57,0.53,0.53,0,0,0-.25-0.5h0Z" transform="translate(-739.19 -255.23)"/>
      <path class="g" d="M769,274a0.51,0.51,0,0,1,.3.53,0.56,0.56,0,0,1-.18.6,0.5,0.5,0,0,1-.3-0.53A0.56,0.56,0,0,1,769,274h0Z" transform="translate(-739.19 -255.23)"/>
      <path d="M769.06,275.14a0.56,0.56,0,0,1-.31-0.55,0.57,0.57,0,0,1,.2-0.63h0a0.54,0.54,0,0,1,.33.55,0.56,0.56,0,0,1-.2.63h0ZM769,274a0.8,0.8,0,0,0,.09,1.08v0a0.54,0.54,0,0,0,.15-0.57A0.53,0.53,0,0,0,769,274h0Z" transform="translate(-739.19 -255.23)"/>
      <path class="g" d="M768.54,273.7a0.5,0.5,0,0,1,.3.53,0.56,0.56,0,0,1-.18.6,0.5,0.5,0,0,1-.3-0.53,0.56,0.56,0,0,1,.18-0.6h0Z" transform="translate(-739.19 -255.23)"/>
      <path d="M768.65,274.86a0.56,0.56,0,0,1-.31-0.55,0.57,0.57,0,0,1,.2-0.63h0a0.54,0.54,0,0,1,.33.55,0.57,0.57,0,0,1-.2.63h0Zm-0.09-1.13a0.8,0.8,0,0,0,.09,1.08v0a0.55,0.55,0,0,0,.15-0.57,0.53,0.53,0,0,0-.25-0.5h0Z" transform="translate(-739.19 -255.23)"/>
      <path class="c" d="M768.17,273.53a0.5,0.5,0,0,1,.3.53,0.56,0.56,0,0,1-.18.6,0.51,0.51,0,0,1-.3-0.53,0.55,0.55,0,0,1,.18-0.6h0Z" transform="translate(-739.19 -255.23)"/>
      <path d="M768.27,274.69a0.55,0.55,0,0,1-.31-0.56,0.56,0.56,0,0,1,.2-0.63h0a0.53,0.53,0,0,1,.33.55,0.56,0.56,0,0,1-.2.63h0Zm-0.09-1.13a0.79,0.79,0,0,0,.09,1.07v0a0.55,0.55,0,0,0,.15-0.57,0.52,0.52,0,0,0-.25-0.5h0Z" transform="translate(-739.19 -255.23)"/>
      <path class="i" d="M767.81,269.4a3.37,3.37,0,0,0-.74,2.7,3.75,3.75,0,0,0,1.86,2.92,3.52,3.52,0,0,0,.39-2.16,6.16,6.16,0,0,0-1-3.36Z" transform="translate(-739.19 -255.23)"/>
      <path d="M768.93,275.05h0A3.8,3.8,0,0,1,767,272.1a3.44,3.44,0,0,1,.75-2.72l0.58,0.09a6.1,6.1,0,0,1,1,3.39,3.49,3.49,0,0,1-.4,2.18v0h0Zm-1.12-5.62a3.5,3.5,0,0,0-.71,2.67,1.72,1.72,0,1,0,2.19.76,6.21,6.21,0,0,0-.95-3.34l-0.54-.09h0Z" transform="translate(-739.19 -255.23)"/>
      <path class="c" d="M769.74,274.84a0.48,0.48,0,0,1,.21.55,0.52,0.52,0,0,1-.29.54,0.48,0.48,0,0,1-.21-0.55,0.53,0.53,0,0,1,.29-0.54h0Z" transform="translate(-739.19 -255.23)"/>
      <path d="M769.66,276h0a0.16,0.16,0,0,1-.12-0.06,0.73,0.73,0,0,1-.12-0.52,0.55,0.55,0,0,1,.31-0.57,0.17,0.17,0,0,1,.13.06,0.74,0.74,0,0,1,.12.52,0.55,0.55,0,0,1-.31.57h0Zm0.07-1.1a0.51,0.51,0,0,0-.26.51,0.7,0.7,0,0,0,.1.48,0.11,0.11,0,0,0,.08,0v0a0.52,0.52,0,0,0,.26-0.51,0.71,0.71,0,0,0-.1-0.48,0.11,0.11,0,0,0-.08,0h0Z" transform="translate(-739.19 -255.23)"/>
      <path class="c" d="M769.33,274.74a0.48,0.48,0,0,1,.21.55,0.52,0.52,0,0,1-.29.54,0.48,0.48,0,0,1-.21-0.55,0.53,0.53,0,0,1,.29-0.54h0Z" transform="translate(-739.19 -255.23)"/>
      <path d="M769.25,275.86h0a0.18,0.18,0,0,1-.12-0.06,0.76,0.76,0,0,1-.12-0.53,0.55,0.55,0,0,1,.32-0.57,0.17,0.17,0,0,1,.13.06,0.76,0.76,0,0,1,.12.52,0.55,0.55,0,0,1-.32.57h0Zm0.08-1.1a0.51,0.51,0,0,0-.26.51,0.72,0.72,0,0,0,.1.48,0.12,0.12,0,0,0,.08,0v0a0.51,0.51,0,0,0,.26-0.51,0.71,0.71,0,0,0-.1-0.48,0.11,0.11,0,0,0-.08,0h0Z" transform="translate(-739.19 -255.23)"/>
      <path class="c" d="M769.13,274.15a0.48,0.48,0,0,1,.21.56,0.53,0.53,0,0,1-.29.54,0.48,0.48,0,0,1-.21-0.56,0.53,0.53,0,0,1,.29-0.54h0Z" transform="translate(-739.19 -255.23)"/>
      <path d="M769.05,275.28h0a0.17,0.17,0,0,1-.12-0.06,0.74,0.74,0,0,1-.12-0.53,0.55,0.55,0,0,1,.31-0.57,0.17,0.17,0,0,1,.13.06,0.75,0.75,0,0,1,.12.53,0.55,0.55,0,0,1-.31.57h0Zm0.07-1.1a0.52,0.52,0,0,0-.26.51,0.7,0.7,0,0,0,.1.48,0.11,0.11,0,0,0,.08,0v0a0.52,0.52,0,0,0,.26-0.52,0.71,0.71,0,0,0-.1-0.48,0.12,0.12,0,0,0-.08,0h0Z" transform="translate(-739.19 -255.23)"/>
      <path class="c" d="M769.56,274.15a0.54,0.54,0,0,1,.2.61,0.61,0.61,0,0,1-.29.6,0.55,0.55,0,0,1-.2-0.61,0.61,0.61,0,0,1,.29-0.6h0Z" transform="translate(-739.19 -255.23)"/>
      <path d="M769.47,275.39h0a0.16,0.16,0,0,1-.11-0.05,0.87,0.87,0,0,1-.12-0.59c0-.45.27-0.73,0.42-0.57a0.88,0.88,0,0,1,.12.59,0.62,0.62,0,0,1-.31.63h0Zm0.09-1.21a0.61,0.61,0,0,0-.26.57,0.83,0.83,0,0,0,.1.54,0.09,0.09,0,0,0,.06,0v0a0.6,0.6,0,0,0,.25-0.57,0.83,0.83,0,0,0-.1-0.54,0.08,0.08,0,0,0-.06,0h0Z" transform="translate(-739.19 -255.23)"/>
      <path class="c" d="M770.13,274.3a0.51,0.51,0,0,1,.2.57,0.55,0.55,0,0,1-.28.56,0.51,0.51,0,0,1-.2-0.57,0.56,0.56,0,0,1,.28-0.56h0Z" transform="translate(-739.19 -255.23)"/>
      <path d="M770.05,275.46h0a0.15,0.15,0,0,1-.11-0.06,0.79,0.79,0,0,1-.12-0.55,0.57,0.57,0,0,1,.31-0.59,0.15,0.15,0,0,1,.12.06,0.79,0.79,0,0,1,.12.54,0.58,0.58,0,0,1-.31.59h0Zm0.08-1.13a0.55,0.55,0,0,0-.25.54,0.75,0.75,0,0,0,.1.5,0.1,0.1,0,0,0,.07,0v0a0.55,0.55,0,0,0,.25-0.54,0.76,0.76,0,0,0-.1-0.5,0.1,0.1,0,0,0-.07,0h0Z" transform="translate(-739.19 -255.23)"/>
      <path class="c" d="M769.85,274a0.5,0.5,0,0,1,.2.57,0.56,0.56,0,0,1-.28.56,0.5,0.5,0,0,1-.2-0.57,0.56,0.56,0,0,1,.28-0.56h0Z" transform="translate(-739.19 -255.23)"/>
      <path d="M769.77,275.21h0a0.17,0.17,0,0,1-.11-0.06,0.8,0.8,0,0,1-.12-0.55,0.56,0.56,0,0,1,.31-0.59,0.17,0.17,0,0,1,.12.06,0.81,0.81,0,0,1,.11.55,0.57,0.57,0,0,1-.31.59h0Zm0.08-1.13a0.54,0.54,0,0,0-.25.54,0.76,0.76,0,0,0,.1.5,0.1,0.1,0,0,0,.07,0v0a0.55,0.55,0,0,0,.25-0.53,0.77,0.77,0,0,0-.1-0.51,0.11,0.11,0,0,0-.07,0h0Z" transform="translate(-739.19 -255.23)"/>
      <path class="c" d="M769.5,273.7a0.5,0.5,0,0,1,.2.57,0.56,0.56,0,0,1-.28.56,0.51,0.51,0,0,1-.2-0.57,0.56,0.56,0,0,1,.28-0.56h0Z" transform="translate(-739.19 -255.23)"/>
      <path d="M769.42,274.86h0a0.17,0.17,0,0,1-.11-0.06,0.8,0.8,0,0,1-.12-0.55,0.58,0.58,0,0,1,.31-0.59,0.16,0.16,0,0,1,.12.06,0.81,0.81,0,0,1,.12.55,0.58,0.58,0,0,1-.31.59h0Zm0.08-1.13a0.55,0.55,0,0,0-.25.53,0.76,0.76,0,0,0,.1.51,0.09,0.09,0,0,0,.07,0v0a0.55,0.55,0,0,0,.25-0.53,0.76,0.76,0,0,0-.1-0.51,0.1,0.1,0,0,0-.07,0h0Z" transform="translate(-739.19 -255.23)"/>
      <path class="c" d="M769.16,273.46a0.5,0.5,0,0,1,.2.57,0.55,0.55,0,0,1-.28.56,0.51,0.51,0,0,1-.2-0.57,0.55,0.55,0,0,1,.28-0.56h0Z" transform="translate(-739.19 -255.23)"/>
      <path d="M769.08,274.62h0a0.15,0.15,0,0,1-.11-0.06,0.8,0.8,0,0,1-.12-0.55,0.56,0.56,0,0,1,.31-0.59,0.15,0.15,0,0,1,.12.06,0.8,0.8,0,0,1,.12.55,0.57,0.57,0,0,1-.31.59h0Zm0.08-1.13a0.54,0.54,0,0,0-.25.54,0.76,0.76,0,0,0,.1.5,0.1,0.1,0,0,0,.07,0v0a0.55,0.55,0,0,0,.25-0.54,0.76,0.76,0,0,0-.1-0.5,0.11,0.11,0,0,0-.07,0h0Z" transform="translate(-739.19 -255.23)"/>
      <path class="f" d="M768.73,270.79c0.37-.14,1,0.64,1.52,1.74s0.56,2.11.2,2.25-1-.64-1.52-1.74-0.56-2.12-.2-2.25h0Z" transform="translate(-739.19 -255.23)"/>
      <path d="M770.35,274.83c-0.4,0-1-.75-1.45-1.78a3.36,3.36,0,0,1-.36-2.1,0.32,0.32,0,0,1,.18-0.19c0.38-.15,1.07.63,1.55,1.76a3.35,3.35,0,0,1,.36,2.1,0.32,0.32,0,0,1-.18.19l-0.1,0h0Zm-1.53-4h-0.08a0.28,0.28,0,0,0-.15.16A3.32,3.32,0,0,0,769,273c0.46,1.07,1.13,1.86,1.48,1.73a0.28,0.28,0,0,0,.15-0.16,3.31,3.31,0,0,0-.36-2.05c-0.43-1-1-1.74-1.4-1.74h0Z" transform="translate(-739.19 -255.23)"/>
      <path class="g" d="M769,270.47a0.28,0.28,0,1,1-.31.27,0.29,0.29,0,0,1,.31-0.27h0Z" transform="translate(-739.19 -255.23)"/>
      <path d="M769,271h0a0.3,0.3,0,1,1,.34-0.3,0.33,0.33,0,0,1-.34.3h0Zm0-.55a0.25,0.25,0,1,0,0,.49v0a0.25,0.25,0,1,0,0-.49h0Z" transform="translate(-739.19 -255.23)"/>
      <path class="g" d="M769.28,270.09a0.27,0.27,0,1,1,0,.54,0.27,0.27,0,1,1,0-.54h0Z" transform="translate(-739.19 -255.23)"/>
      <path d="M769.28,270.66h0a0.31,0.31,0,0,1-.21-0.09,0.3,0.3,0,0,1-.09-0.21,0.31,0.31,0,0,1,.31-0.3,0.32,0.32,0,0,1,.22.09,0.29,0.29,0,0,1,.09.21,0.3,0.3,0,0,1-.3.3h0Zm0-.54a0.25,0.25,0,0,0-.25.24,0.24,0.24,0,0,0,.07.17,0.26,0.26,0,0,0,.18.07v0a0.24,0.24,0,1,0,0-.49h0Z" transform="translate(-739.19 -255.23)"/>
      <path class="g" d="M768.91,270.08a0.28,0.28,0,0,1,.27.28,0.28,0.28,0,1,1-.27-0.28h0Z" transform="translate(-739.19 -255.23)"/>
      <path d="M768.9,270.65h0a0.3,0.3,0,1,1,0-.6,0.31,0.31,0,0,1,.22.09,0.29,0.29,0,0,1,.09.21,0.3,0.3,0,0,1-.3.29h0Zm0-.54a0.24,0.24,0,1,0,0,.49v0a0.24,0.24,0,0,0,.18-0.41,0.24,0.24,0,0,0-.17-0.07h0Z" transform="translate(-739.19 -255.23)"/>
      <path class="c" d="M769,269.81a0.26,0.26,0,1,1-.29.25,0.27,0.27,0,0,1,.29-0.25h0Z" transform="translate(-739.19 -255.23)"/>
      <path d="M769,270.35h0a0.35,0.35,0,0,1-.24-0.1,0.27,0.27,0,0,1-.08-0.19,0.3,0.3,0,0,1,.32-0.28,0.34,0.34,0,0,1,.24.1,0.26,0.26,0,0,1,.08.19,0.3,0.3,0,0,1-.32.28h0Zm0-.51a0.25,0.25,0,0,0-.27.22,0.22,0.22,0,0,0,.06.15,0.29,0.29,0,0,0,.2.08v0a0.24,0.24,0,0,0,.26-0.22,0.2,0.2,0,0,0-.06-0.15,0.28,0.28,0,0,0-.2-0.08h0Z" transform="translate(-739.19 -255.23)"/>
      <path class="c" d="M769,269.49a0.26,0.26,0,1,1,0,.51,0.28,0.28,0,0,1-.29-0.26,0.27,0.27,0,0,1,.29-0.25h0Z" transform="translate(-739.19 -255.23)"/>
      <path d="M769,270h0a0.31,0.31,0,0,1-.31-0.29,0.3,0.3,0,0,1,.32-0.28,0.3,0.3,0,0,1,.32.29,0.3,0.3,0,0,1-.32.28h0Zm0-.51a0.23,0.23,0,1,0,0,.45v0a0.23,0.23,0,1,0,0-.45h0Z" transform="translate(-739.19 -255.23)"/>
      <path class="c" d="M768.55,269.86a0.28,0.28,0,0,1,.27.28,0.28,0.28,0,0,1-.55,0,0.28,0.28,0,0,1,.28-0.27h0Z" transform="translate(-739.19 -255.23)"/>
      <path d="M768.54,270.44h0a0.31,0.31,0,0,1-.21-0.09,0.29,0.29,0,0,1-.09-0.22,0.31,0.31,0,0,1,.61,0,0.31,0.31,0,0,1-.31.3h0Zm0-.55a0.25,0.25,0,0,0-.25.24,0.24,0.24,0,0,0,.07.17,0.24,0.24,0,0,0,.17.07v0a0.25,0.25,0,0,0,.25-0.24,0.24,0.24,0,0,0-.07-0.17,0.25,0.25,0,0,0-.18-0.08h0Z" transform="translate(-739.19 -255.23)"/>
      <path class="c" d="M768.63,269.52a0.27,0.27,0,1,1-.28.26,0.27,0.27,0,0,1,.28-0.26h0Z" transform="translate(-739.19 -255.23)"/>
      <path d="M768.63,270.08h0a0.3,0.3,0,1,1,.31-0.29,0.3,0.3,0,0,1-.31.29h0Zm0-.53a0.24,0.24,0,0,0-.25.23,0.24,0.24,0,0,0,.24.24v0a0.24,0.24,0,1,0,0-.47h0Z" transform="translate(-739.19 -255.23)"/>
      <path class="c" d="M768.18,269.52a0.27,0.27,0,1,1,0,.54,0.27,0.27,0,1,1,0-.54h0Z" transform="translate(-739.19 -255.23)"/>
      <path d="M768.17,270.09h0a0.35,0.35,0,0,1-.25-0.11,0.27,0.27,0,0,1-.08-0.2,0.32,0.32,0,0,1,.34-0.3,0.3,0.3,0,1,1,0,.6h0Zm0-.54a0.27,0.27,0,0,0-.29.24,0.24,0.24,0,0,0,.07.16,0.3,0.3,0,0,0,.21.09v0a0.25,0.25,0,1,0,0-.49h0Z" transform="translate(-739.19 -255.23)"/>
      <path class="c" d="M768.74,269.08a0.26,0.26,0,1,1-.29.25,0.28,0.28,0,0,1,.29-0.25h0Z" transform="translate(-739.19 -255.23)"/>
      <path d="M768.74,269.63h0a0.34,0.34,0,0,1-.24-0.1,0.27,0.27,0,0,1-.08-0.19,0.3,0.3,0,0,1,.32-0.28,0.31,0.31,0,0,1,.32.29,0.3,0.3,0,0,1-.32.28h0Zm0-.51a0.25,0.25,0,0,0-.27.22,0.21,0.21,0,0,0,.06.15,0.27,0.27,0,0,0,.2.08v0a0.23,0.23,0,1,0,0-.45h0Z" transform="translate(-739.19 -255.23)"/>
      <path class="c" d="M768.36,269.12a0.27,0.27,0,1,1-.28.26,0.27,0.27,0,0,1,.28-0.26h0Z" transform="translate(-739.19 -255.23)"/>
      <path d="M768.35,269.69h0a0.31,0.31,0,0,1-.21-0.09,0.28,0.28,0,0,1-.09-0.21,0.3,0.3,0,0,1,.3-0.29,0.3,0.3,0,1,1,0,.59h0Zm0-.53a0.24,0.24,0,0,0-.25.23,0.24,0.24,0,0,0,.07.17,0.25,0.25,0,0,0,.17.07v0a0.25,0.25,0,0,0,.25-0.23,0.24,0.24,0,0,0-.25-0.24h0Z" transform="translate(-739.19 -255.23)"/>
      <path class="c" d="M767.77,269.54a0.27,0.27,0,1,1-.28.27,0.28,0.28,0,0,1,.28-0.27h0Z" transform="translate(-739.19 -255.23)"/>
      <path d="M767.77,270.11h0a0.3,0.3,0,0,1-.21-0.09,0.28,0.28,0,0,1-.09-0.21,0.3,0.3,0,0,1,.52-0.2,0.28,0.28,0,0,1,.09.21,0.3,0.3,0,0,1-.3.3h0Zm0-.55a0.25,0.25,0,0,0-.25.24,0.23,0.23,0,0,0,.07.17,0.24,0.24,0,0,0,.17.07v0a0.25,0.25,0,0,0,.25-0.24,0.25,0.25,0,0,0-.24-0.25h0Z" transform="translate(-739.19 -255.23)"/>
      <path class="c" d="M767.87,269.34a0.27,0.27,0,1,1-.28.26,0.27,0.27,0,0,1,.28-0.26h0Z" transform="translate(-739.19 -255.23)"/>
      <path d="M767.86,269.9h0a0.31,0.31,0,0,1-.21-0.09,0.29,0.29,0,0,1-.09-0.21,0.3,0.3,0,0,1,.3-0.29,0.31,0.31,0,0,1,.22.09,0.29,0.29,0,0,1,.09.21,0.3,0.3,0,0,1-.31.29h0Zm0-.53a0.24,0.24,0,0,0-.25.23,0.24,0.24,0,0,0,.24.24v0a0.24,0.24,0,0,0,.25-0.23,0.23,0.23,0,0,0-.07-0.17,0.24,0.24,0,0,0-.18-0.07h0Z" transform="translate(-739.19 -255.23)"/>
      <path class="c" d="M768,269.11a0.27,0.27,0,1,1,0,.54,0.27,0.27,0,0,1-.27-0.27,0.27,0.27,0,0,1,.28-0.26h0Z" transform="translate(-739.19 -255.23)"/>
      <path d="M768,269.68h0a0.3,0.3,0,0,1-.21-0.09,0.29,0.29,0,0,1-.09-0.21,0.3,0.3,0,0,1,.3-0.29,0.32,0.32,0,0,1,.22.09,0.29,0.29,0,0,1,.09.21,0.3,0.3,0,0,1-.3.29h0Zm0-.54a0.25,0.25,0,0,0-.25.23,0.23,0.23,0,0,0,.07.17,0.25,0.25,0,0,0,.17.07v0a0.24,0.24,0,0,0,.25-0.23,0.23,0.23,0,0,0-.07-0.17,0.25,0.25,0,0,0-.17-0.07h0Z" transform="translate(-739.19 -255.23)"/>
      <path class="c" d="M768.77,270.07c0.47-.17,1.3.77,1.87,2.08s0.64,2.51.18,2.68-1.3-.77-1.87-2.08-0.64-2.51-.18-2.68h0Z" transform="translate(-739.19 -255.23)"/>
      <path d="M770.7,274.88c-0.5,0-1.26-.91-1.78-2.12a3.82,3.82,0,0,1-.4-2.47,0.41,0.41,0,0,1,.24-0.24c0.48-.17,1.34.78,1.91,2.1a3.83,3.83,0,0,1,.4,2.47,0.42,0.42,0,0,1-.24.24l-0.12,0h0Zm-1.82-4.8-0.1,0a0.36,0.36,0,0,0-.21.21,3.77,3.77,0,0,0,.4,2.43c0.55,1.28,1.39,2.22,1.83,2.06a0.36,0.36,0,0,0,.21-0.21,3.77,3.77,0,0,0-.4-2.43c-0.51-1.19-1.25-2.08-1.73-2.08h0Z" transform="translate(-739.19 -255.23)"/>
      <path class="c" d="M770.31,272.37a0.55,0.55,0,0,1,.38.42,0.58,0.58,0,0,1,.06.57,0.56,0.56,0,0,1-.38-0.42,0.59,0.59,0,0,1-.06-0.57h0Z" transform="translate(-739.19 -255.23)"/>
      <path d="M770.73,273.4a0.71,0.71,0,0,1-.38-0.44,0.58,0.58,0,0,1-.05-0.61,0.65,0.65,0,0,1,.42.44,0.58,0.58,0,0,1,0,.61h0Zm-0.39-1a0.54,0.54,0,0,0,.06.54,0.7,0.7,0,0,0,.33.41v0a0.6,0.6,0,0,0-.08-0.53,0.7,0.7,0,0,0-.33-0.41h0Z" transform="translate(-739.19 -255.23)"/>
      <path class="c" d="M770.45,272.86a2.08,2.08,0,0,1,.56,1.94,5.61,5.61,0,0,0-1.09-1.8,1.75,1.75,0,0,1-.32-1.85,3.79,3.79,0,0,0,.84,1.71h0Z" transform="translate(-739.19 -255.23)"/>
      <path d="M771,274.91l-0.07-.17a5.51,5.51,0,0,0-1.05-1.71,1.66,1.66,0,0,1-.37-1.69,1.81,1.81,0,0,0,0-.19,0.33,0.33,0,0,1,.12.21,3.4,3.4,0,0,0,.77,1.48,2.12,2.12,0,0,1,.57,2l0,0.1h0Zm-1.42-3.65a0.57,0.57,0,0,1,0,.1A1.59,1.59,0,0,0,770,273,5.62,5.62,0,0,1,771,274.7a2,2,0,0,0-.57-1.82,3.46,3.46,0,0,1-.79-1.5l0-.12h0Z" transform="translate(-739.19 -255.23)"/>
      <path class="c" d="M770.52,273.58a2.09,2.09,0,0,1,.56,1.94,5.59,5.59,0,0,0-1.09-1.8,1.75,1.75,0,0,1-.32-1.85,3.76,3.76,0,0,0,.84,1.71h0Z" transform="translate(-739.19 -255.23)"/>
      <path d="M771.1,275.63l-0.07-.17a5.5,5.5,0,0,0-1.05-1.71,1.67,1.67,0,0,1-.37-1.69,1.67,1.67,0,0,0,0-.19,0.32,0.32,0,0,1,.12.21,3.44,3.44,0,0,0,.77,1.48,2.12,2.12,0,0,1,.57,2l0,0.1h0ZM769.68,272a0.47,0.47,0,0,1,0,.1,1.59,1.59,0,0,0,.36,1.64,5.57,5.57,0,0,1,1.06,1.71,2,2,0,0,0-.57-1.82,3.47,3.47,0,0,1-.79-1.5l0-.12h0Z" transform="translate(-739.19 -255.23)"/>
      <path class="c" d="M770.54,274.17a2.08,2.08,0,0,1,.61,1.93,5.61,5.61,0,0,0-1.13-1.77,1.75,1.75,0,0,1-.35-1.85,3.79,3.79,0,0,0,.88,1.69h0Z" transform="translate(-739.19 -255.23)"/>
      <path d="M771.16,276.2l-0.08-.17a5.56,5.56,0,0,0-1.08-1.68,1.65,1.65,0,0,1-.4-1.68c0-.07,0-0.13,0-0.19a0.32,0.32,0,0,1,.12.21,3.44,3.44,0,0,0,.8,1.46,2.12,2.12,0,0,1,.61,1.95l0,0.1h0Zm-1.49-3.62a0.67,0.67,0,0,1,0,.1,1.58,1.58,0,0,0,.39,1.63,5.58,5.58,0,0,1,1.09,1.69,2,2,0,0,0-.61-1.8,3.45,3.45,0,0,1-.81-1.48l0-.12h0Z" transform="translate(-739.19 -255.23)"/>
      <path class="c" d="M769.63,271.14a1.16,1.16,0,0,1,.7.8c0.21,0.49.25,0.92,0.08,1a1.16,1.16,0,0,1-.7-0.8c-0.21-.49-0.25-0.92-0.08-1h0Z" transform="translate(-739.19 -255.23)"/>
      <path d="M770.38,272.94a1.31,1.31,0,0,1-.7-0.82,1.38,1.38,0,0,1-.16-0.92,0.15,0.15,0,0,1,.1-0.09h0a1.23,1.23,0,0,1,.73.82,1.37,1.37,0,0,1,.16.92,0.15,0.15,0,0,1-.1.09h0Zm-0.72-1.77a0.1,0.1,0,0,0-.08.06,1.34,1.34,0,0,0,.16.87,1.27,1.27,0,0,0,.64.79v0l0,0a0.09,0.09,0,0,0,.06-0.06,1.35,1.35,0,0,0-.16-0.87,1.3,1.3,0,0,0-.64-0.79h0Z" transform="translate(-739.19 -255.23)"/>
      <path class="c" d="M769.43,271.79a1,1,0,0,1,.58.68c0.17,0.4.18,0.75,0,.78a1,1,0,0,1-.58-0.68c-0.17-.4-0.18-0.75,0-0.78h0Z" transform="translate(-739.19 -255.23)"/>
      <path d="M770,273.28a1.06,1.06,0,0,1-.59-0.7,1,1,0,0,1-.1-0.75,0.14,0.14,0,0,1,.1-0.07h0a1,1,0,0,1,.61.7,1,1,0,0,1,.1.74,0.13,0.13,0,0,1-.1.07h0Zm-0.57-1.46a0.08,0.08,0,0,0-.07,0,1.48,1.48,0,0,0,.64,1.36v0a0.08,0.08,0,0,0,.06,0,1,1,0,0,0-.1-0.7,1,1,0,0,0-.54-0.67h0Z" transform="translate(-739.19 -255.23)"/>
      <path class="c" d="M769.09,272.12a1,1,0,0,1,.57.7c0.16,0.41.16,0.76,0,.78a1,1,0,0,1-.57-0.7c-0.16-.41-0.16-0.75,0-0.78h0Z" transform="translate(-739.19 -255.23)"/>
      <path d="M769.65,273.62a1.49,1.49,0,0,1-.66-1.46,0.14,0.14,0,0,1,.1-0.07h0a1,1,0,0,1,.6.71,1,1,0,0,1,.08.75,0.14,0.14,0,0,1-.1.07h0Zm-0.54-1.47a0.08,0.08,0,0,0-.07,0,1.48,1.48,0,0,0,.61,1.38v0a0.08,0.08,0,0,0,.06,0,1.47,1.47,0,0,0-.61-1.37h0Z" transform="translate(-739.19 -255.23)"/>
      <path class="c" d="M769.41,271.09a0.78,0.78,0,0,1,.49.5c0.14,0.3.16,0.56,0,.59a0.77,0.77,0,0,1-.49-0.5c-0.14-.3-0.16-0.56,0-0.59h0Z" transform="translate(-739.19 -255.23)"/>
      <path d="M769.91,272.21a0.84,0.84,0,0,1-.49-0.52,0.75,0.75,0,0,1-.1-0.56,0.12,0.12,0,0,1,.08-0.07h0a0.81,0.81,0,0,1,.52.52,0.76,0.76,0,0,1,.1.56,0.13,0.13,0,0,1-.08.06h0Zm-0.49-1.09a0.52,0.52,0,0,0,0,.54,0.81,0.81,0,0,0,.44.49v0a0.56,0.56,0,0,0-.06-0.55,0.81,0.81,0,0,0-.44-0.49h0Z" transform="translate(-739.19 -255.23)"/>
      <path class="c" d="M769.15,271.3a0.76,0.76,0,0,1,.46.53c0.13,0.31.12,0.57,0,.59a0.76,0.76,0,0,1-.46-0.53c-0.12-.31-0.12-0.57,0-0.59h0Z" transform="translate(-739.19 -255.23)"/>
      <path d="M769.59,272.45a0.81,0.81,0,0,1-.47-0.55,0.76,0.76,0,0,1-.06-0.56,0.12,0.12,0,0,1,.09-0.06h0a0.78,0.78,0,0,1,.48.54,0.76,0.76,0,0,1,.06.57,0.11,0.11,0,0,1-.09.06h0Zm-0.43-1.12a0.53,0.53,0,0,0,0,.55,0.79,0.79,0,0,0,.42.51v0a0.58,0.58,0,0,0,0-.55,0.79,0.79,0,0,0-.42-0.51h0Z" transform="translate(-739.19 -255.23)"/>
      <path class="c" d="M769.14,271.51a1.51,1.51,0,0,1,.2,1.06,1.32,1.32,0,0,1-.59-0.86Z" transform="translate(-739.19 -255.23)"/>
      <path d="M769.34,272.61h-0.06a1.89,1.89,0,0,1-.56-0.87,2.39,2.39,0,0,0,.58.82,1.31,1.31,0,0,0-.18-1l0.05,0a1.45,1.45,0,0,1,.18,1.1h0Z" transform="translate(-739.19 -255.23)"/>
      <path class="c" d="M769.11,270.68a0.76,0.76,0,0,1,.46.53c0.12,0.31.12,0.57,0,.59a0.75,0.75,0,0,1-.45-0.53c-0.13-.31-0.12-0.57,0-0.59h0Z" transform="translate(-739.19 -255.23)"/>
      <path d="M769.55,271.83a0.81,0.81,0,0,1-.47-0.55,0.75,0.75,0,0,1-.06-0.56,0.12,0.12,0,0,1,.09-0.06h0a0.79,0.79,0,0,1,.48.55,0.76,0.76,0,0,1,.06.56,0.12,0.12,0,0,1-.09.06h0Zm-0.43-1.12a0.55,0.55,0,0,0,0,.55,0.8,0.8,0,0,0,.42.51v0a0.55,0.55,0,0,0,0-.55,0.79,0.79,0,0,0-.42-0.51h0Z" transform="translate(-739.19 -255.23)"/>
      <path class="c" d="M768.76,270.85a0.75,0.75,0,0,1,.44.54c0.12,0.31.11,0.57,0,.59a0.75,0.75,0,0,1-.44-0.54c-0.12-.31-0.11-0.57,0-0.59h0Z" transform="translate(-739.19 -255.23)"/>
      <path d="M769.18,272a0.8,0.8,0,0,1-.46-0.56,0.76,0.76,0,0,1,0-.57,0.12,0.12,0,0,1,.09-0.06h0a0.78,0.78,0,0,1,.47.56,0.75,0.75,0,0,1,.05.57,0.12,0.12,0,0,1-.09.06h0Zm-0.41-1.12a0.55,0.55,0,0,0,0,.55,0.79,0.79,0,0,0,.4.52v0a0.58,0.58,0,0,0,0-.55,0.78,0.78,0,0,0-.41-0.52h0Z" transform="translate(-739.19 -255.23)"/>
      <path class="c" d="M768.77,270.8a1.09,1.09,0,0,1,.25.74,0.93,0.93,0,0,1-.51-0.55Z" transform="translate(-739.19 -255.23)"/>
      <path d="M769,271.56a1.06,1.06,0,0,1-.55-0.56,1.9,1.9,0,0,0,.5.51,1,1,0,0,0-.25-0.71l0.05,0a1.09,1.09,0,0,1,.24.78h0Z" transform="translate(-739.19 -255.23)"/>
      <path class="c" d="M768.91,270.56a1.09,1.09,0,0,1,.25.75,0.94,0.94,0,0,1-.51-0.55Z" transform="translate(-739.19 -255.23)"/>
      <path d="M769.18,271.33a1.07,1.07,0,0,1-.55-0.56,2,2,0,0,0,.51.52,1,1,0,0,0-.25-0.71l0,0a1.1,1.1,0,0,1,.25.79h0Z" transform="translate(-739.19 -255.23)"/>
      <path class="c" d="M769.57,270.61a1.5,1.5,0,0,1,.35,1,1.29,1.29,0,0,1-.71-0.75Z" transform="translate(-739.19 -255.23)"/>
      <path d="M769.87,271.66a1.86,1.86,0,0,1-.68-0.77,2.36,2.36,0,0,0,.69.72,1.3,1.3,0,0,0-.33-1l0,0a1.41,1.41,0,0,1,.34,1.06h-0.07Z" transform="translate(-739.19 -255.23)"/>
      <path class="c" d="M769.13,270.35a1.32,1.32,0,0,1,.26.82,1,1,0,0,1-.51-0.61Z" transform="translate(-739.19 -255.23)"/>
      <path d="M769.41,271.2a1.11,1.11,0,0,1-.55-0.62,2.09,2.09,0,0,0,.51.57,1.26,1.26,0,0,0-.25-0.79l0.05,0a1.32,1.32,0,0,1,.25.86h0Z" transform="translate(-739.19 -255.23)"/>
      <path class="i" d="M769.12,269.78a0.38,0.38,0,0,0,.13.5c0.14,0.13,1,1,1.53.27-0.46,0-1.32-1.09-1.66-.77h0Z" transform="translate(-739.19 -255.23)"/>
      <path d="M770.24,270.86h0a1.64,1.64,0,0,1-1-.53A0.59,0.59,0,0,1,769,270a0.25,0.25,0,0,1,.07-0.2,0.94,0.94,0,0,1,.95.36,1.73,1.73,0,0,0,.73.41,0.59,0.59,0,0,1-.54.34h0Zm-1-1.12a0.18,0.18,0,0,0-.13.05,0.19,0.19,0,0,0-.05.15,0.48,0.48,0,0,0,.17.31,1.66,1.66,0,0,0,1,.55h0a0.64,0.64,0,0,0,.52-0.28,1.22,1.22,0,0,1-.74-0.37,1.71,1.71,0,0,0-.74-0.41h0Z" transform="translate(-739.19 -255.23)"/>
      <path class="i" d="M769,269.35a0.38,0.38,0,0,0,.13.51c0.14,0.13,1,1,1.53.27-0.46,0-1.32-1.09-1.66-.77h0Z" transform="translate(-739.19 -255.23)"/>
      <path d="M770.14,270.44h0a1.65,1.65,0,0,1-1-.53,0.59,0.59,0,0,1-.23-0.38,0.24,0.24,0,0,1,.07-0.2,0.93,0.93,0,0,1,.95.35,1.76,1.76,0,0,0,.73.41,0.59,0.59,0,0,1-.54.34h0Zm-1-1.12a0.17,0.17,0,0,0-.18.2,0.48,0.48,0,0,0,.17.31,1.66,1.66,0,0,0,1,.55,0.65,0.65,0,0,0,.52-0.27,1.22,1.22,0,0,1-.74-0.37,1.73,1.73,0,0,0-.74-0.41h0Z" transform="translate(-739.19 -255.23)"/>
      <path class="i" d="M768.89,268.95a0.38,0.38,0,0,0,.13.5c0.14,0.13,1,1,1.53.27-0.46,0-1.32-1.09-1.66-.77h0Z" transform="translate(-739.19 -255.23)"/>
      <path d="M770,270h0a1.63,1.63,0,0,1-1-.53,0.58,0.58,0,0,1-.23-0.38,0.25,0.25,0,0,1,.07-0.2,0.93,0.93,0,0,1,.95.36,1.75,1.75,0,0,0,.73.41,0.59,0.59,0,0,1-.54.34h0Zm-1-1.12a0.18,0.18,0,0,0-.18.2,0.48,0.48,0,0,0,.17.31,1.67,1.67,0,0,0,1,.55h0a0.65,0.65,0,0,0,.52-0.28,1.2,1.2,0,0,1-.74-0.37,1.71,1.71,0,0,0-.74-0.41h0Z" transform="translate(-739.19 -255.23)"/>
      <path class="i" d="M768.61,268.48a0.38,0.38,0,0,0,.13.5c0.14,0.13,1,1,1.53.27-0.46,0-1.32-1.09-1.66-.77h0Z" transform="translate(-739.19 -255.23)"/>
      <path d="M769.73,269.57h0a1.64,1.64,0,0,1-1-.53,0.6,0.6,0,0,1-.23-0.38,0.25,0.25,0,0,1,.07-0.2,0.93,0.93,0,0,1,.95.36,1.76,1.76,0,0,0,.73.41,0.59,0.59,0,0,1-.54.34h0Zm-1-1.12a0.19,0.19,0,0,0-.13.05,0.18,0.18,0,0,0,0,.15,0.48,0.48,0,0,0,.17.31,1.66,1.66,0,0,0,1,.55,0.65,0.65,0,0,0,.52-0.27,1.23,1.23,0,0,1-.74-0.37,1.7,1.7,0,0,0-.74-0.41h0Z" transform="translate(-739.19 -255.23)"/>
      <path class="i" d="M767.6,268a1.27,1.27,0,0,1,1.24-.07,16,16,0,0,0,1.36,1,1,1,0,0,1-.69-0.09,1.56,1.56,0,0,1-.92.38,1.12,1.12,0,0,1-1.16-.35,0.74,0.74,0,0,1,.16-0.9h0Z" transform="translate(-739.19 -255.23)"/>
      <path d="M768.31,269.34a1,1,0,0,1-.89-0.38,0.77,0.77,0,0,1,.17-0.94,1.33,1.33,0,0,1,1.27-.07,3.17,3.17,0,0,1,.57.45,3.14,3.14,0,0,0,.79.58,0.39,0.39,0,0,1-.25.08,1,1,0,0,1-.46-0.11,1.47,1.47,0,0,1-.9.38l-0.29,0h0Zm0-1.47a1.13,1.13,0,0,0-.66.19,0.71,0.71,0,0,0-.16.86,1.11,1.11,0,0,0,1.13.34,1.55,1.55,0,0,0,.9-0.37,1.08,1.08,0,0,0,.7.08,2,2,0,0,1-.81-0.54,3.07,3.07,0,0,0-.55-0.44,1.22,1.22,0,0,0-.55-0.13h0Z" transform="translate(-739.19 -255.23)"/>
      <path class="f" d="M768.22,268.32a0.17,0.17,0,1,1-.25.14,0.22,0.22,0,0,1,.25-0.14h0Z" transform="translate(-739.19 -255.23)"/>
      <path d="M768.23,268.65h0a0.25,0.25,0,0,1-.28-0.18,0.24,0.24,0,0,1,.28-0.17,0.25,0.25,0,0,1,.29.18,0.24,0.24,0,0,1-.28.17h0Zm0-.29a0.14,0.14,0,1,0,0,.23v0a0.19,0.19,0,0,0,.22-0.11,0.2,0.2,0,0,0-.22-0.12h0Z" transform="translate(-739.19 -255.23)"/>
      <path class="e" d="M767.38,268.86a0.24,0.24,0,1,1-.25.32,0.31,0.31,0,0,1,.25-0.32h0Z" transform="translate(-739.19 -255.23)"/>
      <path d="M767.35,269.32a0.24,0.24,0,0,1-.25-0.13,0.33,0.33,0,0,1,.27-0.36,0.34,0.34,0,0,1,.44.1,0.33,0.33,0,0,1-.27.36,0.55,0.55,0,0,1-.19,0h0Zm0.21-.47a0.49,0.49,0,0,0-.17,0,0.21,0.21,0,1,0,.37.06,0.19,0.19,0,0,0-.19-0.09h0Z" transform="translate(-739.19 -255.23)"/>
      <path d="M768.21,268.38a0.08,0.08,0,0,1,.09.08,0.08,0.08,0,0,1-.09.08,0.08,0.08,0,1,1,0-.16h0Z" transform="translate(-739.19 -255.23)"/>
      <path class="e" d="M767.67,268.67a0.3,0.3,0,0,1-.24.32,0.74,0.74,0,0,0-.4.53c-0.28-.64-0.1-0.91.19-1s0.41-.07.45,0.13h0Z" transform="translate(-739.19 -255.23)"/>
      <path d="M767,269.59l0-.07a1,1,0,0,1-.09-0.8,0.43,0.43,0,0,1,.3-0.22c0.31-.1.44,0,0.48,0.16a0.33,0.33,0,0,1-.26.35,0.72,0.72,0,0,0-.38.51l0,0.08h0Zm0.43-1.08a0.81,0.81,0,0,0-.23,0,0.37,0.37,0,0,0-.27.19,0.86,0.86,0,0,0,.06.68,0.73,0.73,0,0,1,.39-0.47,0.28,0.28,0,0,0,.22-0.28,0.17,0.17,0,0,0-.18-0.16h0Z" transform="translate(-739.19 -255.23)"/>
      <path d="M767.4,268.65a0.06,0.06,0,0,1,.07.06,0.06,0.06,0,1,1-.13,0,0.07,0.07,0,0,1,.06-0.07h0Z" transform="translate(-739.19 -255.23)"/>
    </g>
  </g>
</svg>
