<svg xmlns="http://www.w3.org/2000/svg" xmlns:xlink="http://www.w3.org/1999/xlink" viewBox="0 0 58.93 34.37">
  <defs>
    <style>
      .a {
        fill: none;
      }

      .b {
        clip-path: url(#a);
      }

      .c {
        fill: #fff;
      }

      .d {
        fill: #223e84;
      }

      .e {
        fill: #bc0030;
      }

      .f {
        clip-path: url(#d);
      }

      .g {
        clip-path: url(#e);
      }

      .h {
        clip-path: url(#f);
      }

      .i {
        clip-path: url(#g);
      }

      .j {
        clip-path: url(#h);
      }

      .k {
        clip-path: url(#i);
      }

      .l {
        clip-path: url(#j);
      }

      .m {
        fill: #f5cd28;
      }

      .n {
        fill: #272015;
      }

      .o {
        fill: #999396;
      }

      .p {
        fill: #347c63;
      }

      .q {
        fill: #1a4104;
      }

      .r {
        fill: #1a4204;
      }

      .s {
        fill: #c0003b;
      }

      .t {
        clip-path: url(#k);
      }

      .u {
        clip-path: url(#l);
      }

      .v {
        clip-path: url(#m);
      }

      .w {
        clip-path: url(#n);
      }

      .x {
        clip-path: url(#o);
      }
    </style>
    <clipPath id="a" transform="translate(-809.88 -255.23)">
      <rect class="a" x="809.88" y="255.23" width="58.93" height="34.37"/>
    </clipPath>
    <clipPath id="d" transform="translate(-809.88 -255.23)">
      <rect class="a" x="841.93" y="268.12" width="1.36" height="1.51"/>
    </clipPath>
    <clipPath id="e" transform="translate(-809.88 -255.23)">
      <rect class="a" x="841.5" y="267.86" width="1.52" height="0.97"/>
    </clipPath>
    <clipPath id="f" transform="translate(-809.88 -255.23)">
      <rect class="a" x="839.91" y="267.52" width="2.69" height="1.12"/>
    </clipPath>
    <clipPath id="g" transform="translate(-809.88 -255.23)">
      <rect class="a" x="835.41" y="268.11" width="1.36" height="1.51"/>
    </clipPath>
    <clipPath id="h" transform="translate(-809.88 -255.23)">
      <rect class="a" x="835.67" y="267.85" width="1.52" height="0.97"/>
    </clipPath>
    <clipPath id="i" transform="translate(-809.88 -255.23)">
      <rect class="a" x="836.09" y="267.51" width="2.69" height="1.12"/>
    </clipPath>
    <clipPath id="j" transform="translate(-809.88 -255.23)">
      <rect class="a" x="838.09" y="267.08" width="2.53" height="0.88"/>
    </clipPath>
    <clipPath id="k" transform="translate(-809.88 -255.23)">
      <rect class="a" x="841.92" y="275.35" width="1.47" height="0.79"/>
    </clipPath>
    <clipPath id="l" transform="translate(-809.88 -255.23)">
      <rect class="a" x="841.12" y="275.12" width="1.62" height="0.61"/>
    </clipPath>
    <clipPath id="m" transform="translate(-809.88 -255.23)">
      <rect class="a" x="835.33" y="275.35" width="1.47" height="0.79"/>
    </clipPath>
    <clipPath id="n" transform="translate(-809.88 -255.23)">
      <rect class="a" x="835.98" y="275.12" width="1.62" height="0.61"/>
    </clipPath>
    <clipPath id="o" transform="translate(-809.88 -255.23)">
      <rect class="a" x="836.66" y="274.49" width="5.36" height="1.08"/>
    </clipPath>
  </defs>
  <title>Dominican_Republic</title>
  <g class="b">
    <g class="b">
      <rect class="c" width="58.93" height="34.37"/>
      <rect class="d" width="25.25" height="13.21"/>
      <rect class="e" y="21.11" width="25.25" height="13.26"/>
      <rect class="d" x="33.67" y="21.11" width="25.25" height="13.26"/>
      <rect class="e" x="33.67" width="25.25" height="13.21"/>
      <g class="b">
        <path d="M843.39,269.86a0.42,0.42,0,0,0-.18-0.37s0.23,0.05.24,0.37h-0.06Z" transform="translate(-809.88 -255.23)"/>
        <path d="M843.3,269.88a0.42,0.42,0,0,0-.18-0.37s0.22,0.05.24,0.37H843.3Z" transform="translate(-809.88 -255.23)"/>
        <path d="M843.2,269.88a0.42,0.42,0,0,0-.18-0.37c0-.05.22,0.05,0.24,0.37H843.2Z" transform="translate(-809.88 -255.23)"/>
        <path d="M843.11,269.92a0.43,0.43,0,0,0-.18-0.37s0.22,0.05.24,0.37h-0.06Z" transform="translate(-809.88 -255.23)"/>
        <path d="M843,270a0.42,0.42,0,0,0-.18-0.37c0-.05.22,0.05,0.24,0.37H843Z" transform="translate(-809.88 -255.23)"/>
        <path d="M842.92,270a0.41,0.41,0,0,0-.18-0.37s0.22,0.05.24,0.37h-0.06Z" transform="translate(-809.88 -255.23)"/>
        <g class="f">
          <path class="d" d="M843.29,269.47a3,3,0,0,0-.53-1.09,4.14,4.14,0,0,0-.66-0.26l-0.17.38a1.72,1.72,0,0,1,.62.48,3.52,3.52,0,0,1,.19.65l0.3-.12c0.08,0,.25,0,0.25,0h0Z" transform="translate(-809.88 -255.23)"/>
        </g>
        <path d="M842.71,269.67v0a3.59,3.59,0,0,0-.19-0.65,1.7,1.7,0,0,0-.61-0.46l0.15-.41a2.42,2.42,0,0,1,.71.25,3.22,3.22,0,0,1,.54,1.1s0,0-.11.05l-0.16,0-0.3.13h0ZM842,268.5a1.3,1.3,0,0,1,.62.46,3.15,3.15,0,0,1,.18.62l0.27-.11a0.63,0.63,0,0,1,.18,0,2.74,2.74,0,0,0-.46-1,3.16,3.16,0,0,0-.66-0.26l-0.13.36h0Z" transform="translate(-809.88 -255.23)"/>
        <g class="g">
          <path class="d" d="M843,268.83a2.23,2.23,0,0,0-.88-0.15,1.54,1.54,0,0,1-.63-0.25,1.77,1.77,0,0,1,.34-0.57l0.27,0.28a1.64,1.64,0,0,1,.74.34Z" transform="translate(-809.88 -255.23)"/>
        </g>
        <path d="M843,268.87h0a1.49,1.49,0,0,0-.61-0.14h-0.07l-0.2,0a1.15,1.15,0,0,1-.65-0.27,1.36,1.36,0,0,1,.35-0.6l0.32,0.28a0.47,0.47,0,0,0,.29.1,0.51,0.51,0,0,1,.46.25l0.16,0.35a0,0,0,0,1,0,0h0Zm-0.62-.22a1.48,1.48,0,0,1,.55.11l-0.12-.27a0.44,0.44,0,0,0-.4-0.21,0.54,0.54,0,0,1-.33-0.12l-0.27-.28a2.82,2.82,0,0,0-.29.53,1.25,1.25,0,0,0,.61.23h0.25Z" transform="translate(-809.88 -255.23)"/>
        <path d="M842.39,268.68a1.5,1.5,0,0,1-.48-0.17l-0.22-.1a0.15,0.15,0,0,0-.18,0s0-.13.19-0.08l0.23,0.1a1.11,1.11,0,0,0,.49.16l0,0a0.09,0.09,0,0,1-.08,0h0Z" transform="translate(-809.88 -255.23)"/>
        <g class="h">
          <path class="d" d="M840.06,267.55a6.19,6.19,0,0,1,1.46,0,1.37,1.37,0,0,1,1.08.52,0.77,0.77,0,0,1-.16.53,0.23,0.23,0,0,0-.17-0.18,10.41,10.41,0,0,0-1.15-.31c-0.21,0-.81,0-0.9,0a0.36,0.36,0,0,1-.32-0.16,2.05,2.05,0,0,1,.15-0.45h0Z" transform="translate(-809.88 -255.23)"/>
        </g>
        <path d="M842.43,268.67l0,0a0.17,0.17,0,0,0-.14-0.13l-0.16,0a7.44,7.44,0,0,0-1-.26h-0.9a0.39,0.39,0,0,1-.34-0.19,2,2,0,0,1,.15-0.46,3.73,3.73,0,0,1,.61,0,4.75,4.75,0,0,1,.88.07,1.35,1.35,0,0,1,1.11.55,0.89,0.89,0,0,1-.15.54h0Zm-1.42-.55h0.11a7.4,7.4,0,0,1,1,.26l0.16,0a0.22,0.22,0,0,1,.17.15,0.9,0.9,0,0,0,.12-0.47,1.37,1.37,0,0,0-1.06-.49,4.78,4.78,0,0,0-.87-0.07c-0.25,0-.46,0-0.54,0a1.22,1.22,0,0,0-.16.43,0.35,0.35,0,0,0,.29.13H841Z" transform="translate(-809.88 -255.23)"/>
        <path d="M840.41,268.08h0a0.49,0.49,0,0,1-.16,0,0.26,0.26,0,0,0-.15,0,0.11,0.11,0,0,0-.1.06c-0.06,0,0-.11.1-0.12a0.29,0.29,0,0,1,.18,0,0.37,0.37,0,0,0,.14,0l0.08,0V268h0.06l0,0.08-0.08,0h0Z" transform="translate(-809.88 -255.23)"/>
        <path d="M835.3,269.84h-0.06a0.48,0.48,0,0,1,.21-0.42,1.31,1.31,0,0,0-.15.42h0Z" transform="translate(-809.88 -255.23)"/>
        <path d="M835.39,269.86h-0.06a0.48,0.48,0,0,1,.21-0.42,1.35,1.35,0,0,0-.15.42h0Z" transform="translate(-809.88 -255.23)"/>
        <path d="M835.49,269.87h-0.06a0.48,0.48,0,0,1,.21-0.42,1.4,1.4,0,0,0-.15.42h0Z" transform="translate(-809.88 -255.23)"/>
        <path d="M835.58,269.9h-0.06a0.48,0.48,0,0,1,.21-0.42,1.42,1.42,0,0,0-.15.42h0Z" transform="translate(-809.88 -255.23)"/>
        <path d="M835.68,269.94h-0.06a0.48,0.48,0,0,1,.21-0.42,1.36,1.36,0,0,0-.15.42h0Z" transform="translate(-809.88 -255.23)"/>
        <path d="M835.77,270h-0.06a0.47,0.47,0,0,1,.21-0.42,1.25,1.25,0,0,0-.15.42h0Z" transform="translate(-809.88 -255.23)"/>
        <g class="i">
          <path class="d" d="M835.41,269.46a3,3,0,0,1,.53-1.09,4.14,4.14,0,0,1,.66-0.26l0.17,0.38a1.72,1.72,0,0,0-.62.48,3.53,3.53,0,0,0-.19.65l-0.3-.12c-0.08,0-.25,0-0.25,0h0Z" transform="translate(-809.88 -255.23)"/>
        </g>
        <path d="M836,269.66h0l-0.3-.12-0.16,0c-0.07,0-.11,0-0.11,0a3.26,3.26,0,0,1,.53-1.1,3.18,3.18,0,0,1,.68-0.28l0.2,0.39a2.45,2.45,0,0,0-.62.5,3.4,3.4,0,0,0-.18.64v0h0Zm-0.4-.21h0.08l0.27,0.11a3.07,3.07,0,0,1,.18-0.62,1.68,1.68,0,0,1,.63-0.49l-0.18-.34a5.86,5.86,0,0,0-.61.27,3.18,3.18,0,0,0-.53,1.09l0.15,0h0Z" transform="translate(-809.88 -255.23)"/>
        <g class="j">
          <path class="d" d="M835.67,268.82a2.18,2.18,0,0,1,.88-0.15,1.51,1.51,0,0,0,.63-0.25,1.78,1.78,0,0,0-.34-0.56l-0.27.28a1.65,1.65,0,0,0-.74.34Z" transform="translate(-809.88 -255.23)"/>
        </g>
        <path d="M835.67,268.85h0a0,0,0,0,1,0,0l0.16-.35a0.5,0.5,0,0,1,.46-0.25,0.47,0.47,0,0,0,.29-0.1l0.27-.28a1.14,1.14,0,0,1,.41.61,1.18,1.18,0,0,1-.66.27H836.3a1.49,1.49,0,0,0-.61.14h0Zm1.14-1-0.21.28a0.54,0.54,0,0,1-.33.12,0.43,0.43,0,0,0-.4.21l-0.12.27a1.47,1.47,0,0,1,.55-0.11h0.07a0.53,0.53,0,0,0,.18,0,1.22,1.22,0,0,0,.61-0.23,1.7,1.7,0,0,0-.34-0.53h0Z" transform="translate(-809.88 -255.23)"/>
        <path d="M836.3,268.67a0.09,0.09,0,0,1-.08,0l0,0a1,1,0,0,0,.48-0.16,1.35,1.35,0,0,1,.23-0.1,0.2,0.2,0,0,1,.24,0,0.26,0.26,0,0,1-.14,0H837l-0.22.09a1.47,1.47,0,0,1-.48.18h0Z" transform="translate(-809.88 -255.23)"/>
        <g class="k">
          <path class="d" d="M838.63,267.53a6.19,6.19,0,0,0-1.46,0,1.36,1.36,0,0,0-1.08.52,0.77,0.77,0,0,0,.16.53,0.23,0.23,0,0,1,.17-0.18,10.41,10.41,0,0,1,1.15-.31c0.21,0,.81,0,0.9,0a0.36,0.36,0,0,0,.32-0.16,2,2,0,0,0-.15-0.45h0Z" transform="translate(-809.88 -255.23)"/>
        </g>
        <path d="M836.25,268.66l0,0a0.89,0.89,0,0,1-.15-0.54,1.36,1.36,0,0,1,1.11-.55,4.86,4.86,0,0,1,.88-0.07l0.55,0a1,1,0,0,1,.21.48,0.39,0.39,0,0,1-.34.19h-0.9a7.16,7.16,0,0,0-1,.26l-0.15,0a0.16,0.16,0,0,0-.13.14l0,0h0Zm1.8-1.12a4.75,4.75,0,0,0-.87.07,1.38,1.38,0,0,0-1.06.49,0.9,0.9,0,0,0,.12.47,0.22,0.22,0,0,1,.17-0.16l0.14,0a7.19,7.19,0,0,1,1-.27h0.83a0.4,0.4,0,0,0,.36-0.14,2.1,2.1,0,0,0-.14-0.44h-0.56Z" transform="translate(-809.88 -255.23)"/>
        <path d="M838.28,268.06a0.1,0.1,0,0,1-.11-0.1l0.05,0v0s0,0.05.08,0a0.37,0.37,0,0,0,.14,0,0.3,0.3,0,0,1,.18,0,0.16,0.16,0,0,1,.15.11,0.78,0.78,0,0,1-.16-0.05,0.28,0.28,0,0,0-.15,0,0.47,0.47,0,0,1-.16,0h0Z" transform="translate(-809.88 -255.23)"/>
        <g class="l">
          <path class="d" d="M839.32,267.08c-0.94,0-1.19.15-1.23,0.31a1.65,1.65,0,0,0,.11.58,1.26,1.26,0,0,1,1.13-.29,1.54,1.54,0,0,1,1.16.27,2.81,2.81,0,0,0,.12-0.57c0-.14-0.41-0.3-1.29-0.3h0Z" transform="translate(-809.88 -255.23)"/>
        </g>
        <path d="M838.2,268l0-.06a1.62,1.62,0,0,1-.11-0.59c0-.15.21-0.32,1.26-0.33,0.8,0,1.31.13,1.32,0.32a2.9,2.9,0,0,1-.12.58h0a2.17,2.17,0,0,0-1.19-.25h0a1.29,1.29,0,0,0-1.11.27l0,0.06h0Zm1.09-.39a1.8,1.8,0,0,1,1.22.27c0-.07.08-0.41,0.07-0.54s-0.34-.27-1.24-0.27-1.18.1-1.22,0.29a1.39,1.39,0,0,0,.09.51,1.54,1.54,0,0,1,1.08-.26h0Z" transform="translate(-809.88 -255.23)"/>
        <polygon class="m" points="30.74 12.78 30.78 12.39 30.82 12.39 30.79 12.74 30.93 12.75 30.92 12.79 30.74 12.78"/>
        <polygon class="m" points="30.98 12.8 31.01 12.41 31.05 12.41 31.01 12.8 30.98 12.8"/>
        <polygon class="m" points="31.34 12.82 31.4 12.44 31.61 12.47 31.6 12.52 31.43 12.49 31.41 12.61 31.57 12.63 31.56 12.68 31.4 12.65 31.38 12.78 31.56 12.81 31.55 12.86 31.34 12.82"/>
        <polygon class="m" points="31.94 12.97 32.06 12.64 31.97 12.61 31.98 12.57 32.2 12.64 32.18 12.69 32.09 12.66 31.98 12.98 31.94 12.97"/>
        <path class="m" d="M841,268h0.12l0,0v0a0.08,0.08,0,0,0,0,0l0,0H841V268Zm0-.18h0.1l0,0a0.08,0.08,0,0,0,0-.07l0,0H841v0.12ZM841,268l0-.39h0.11l0.05,0,0,0a0.12,0.12,0,0,1,0,.05,0.12,0.12,0,0,1,0,0l0,0a0.07,0.07,0,0,1,0,0,0.11,0.11,0,0,1,0,.06,0.12,0.12,0,0,1,0,.05l0,0,0,0H841Z" transform="translate(-809.88 -255.23)"/>
        <path class="m" d="M841.58,267.9l0.08,0h0l0,0,0,0a0.07,0.07,0,0,0,0,0,0.05,0.05,0,0,0,0,0l-0.09,0Zm-0.1.2,0.11-.37,0.12,0,0.05,0a0.06,0.06,0,0,1,0,0,0.16,0.16,0,0,1,0,.06,0.1,0.1,0,0,1,0,.06,0.08,0.08,0,0,1-.07,0l0,0a0.23,0.23,0,0,1,0,.06l0,0.12h0V268l0,0h-0.06l0,0.17h0Z" transform="translate(-809.88 -255.23)"/>
        <path class="m" d="M842.27,268.33l0.06,0h0.08l0,0,0-.07a0.24,0.24,0,0,0,0-.09,0.09,0.09,0,0,0,0-.05l0,0-0.06,0Zm-0.05,0,0.13-.37,0.1,0,0,0,0,0a0.14,0.14,0,0,1,0,.07,0.29,0.29,0,0,1,0,.09l0,0.07,0,0,0,0h-0.09Z" transform="translate(-809.88 -255.23)"/>
        <path class="m" d="M842.06,268.12l0.09,0V268s0-.06,0-0.08l0,0.07Zm-0.13.13,0.24-.33h0l0,0.41h0V268.2l-0.12,0-0.07.1h0Z" transform="translate(-809.88 -255.23)"/>
        <polygon class="m" points="29.34 12.37 29.34 12.02 29.24 12.02 29.24 11.98 29.49 11.98 29.49 12.02 29.39 12.02 29.39 12.37 29.34 12.37"/>
        <polygon class="m" points="29.88 12.37 29.9 11.98 29.94 11.98 29.92 12.37 29.88 12.37"/>
        <path class="m" d="M838.57,267.45h0.08l0.05,0a0.07,0.07,0,0,0,0-.05,0.08,0.08,0,0,0,0,0l0,0h0l-0.08,0Zm0,0.21-0.07-.38,0.12,0h0.09l0,0a0.13,0.13,0,0,1,0,0,0.15,0.15,0,0,1,0,.09,0.12,0.12,0,0,1-.09.05l-0.08,0,0,0.15h0Z" transform="translate(-809.88 -255.23)"/>
        <path class="m" d="M838.89,267.43H839l0-.11,0-.08s0,0.05,0,.08Zm-0.08.17,0.09-.4h0l0.16,0.38h0l0-.12h-0.13l0,0.12h0Z" transform="translate(-809.88 -255.23)"/>
        <path class="m" d="M839.46,267.38h0.14l0,0a0.08,0.08,0,0,0,0,0,0.06,0.06,0,0,0,0,0l-0.05,0h-0.1v0.13Zm0,0.22v-0.39h0.21a0.07,0.07,0,0,1,0,0,0.12,0.12,0,0,1,0,.06,0.1,0.1,0,0,1-.09.11l0,0,0,0.05,0.06,0.11h-0.05l0-.08,0-.05,0,0h-0.09v0.17h0Z" transform="translate(-809.88 -255.23)"/>
        <path class="m" d="M840,267.47l0.11,0v-0.11a0.79,0.79,0,0,1,0-.08l0,0.07Zm-0.12.14,0.19-.36h0l0.06,0.41h0l0-.12-0.13,0-0.06.11h0Z" transform="translate(-809.88 -255.23)"/>
        <polygon class="m" points="27.13 12.91 27.07 12.52 27.11 12.52 27.17 12.9 27.13 12.91"/>
        <path class="m" d="M837.46,267.93h0l0,0,0,0h0.09l0,0a0.06,0.06,0,0,0,0,0v0l0,0h-0.06l-0.06,0,0,0a0.12,0.12,0,0,1,0,0,0.11,0.11,0,0,1,0-.06,0.08,0.08,0,0,1,0,0l0.06,0h0.07l0,0a0.17,0.17,0,0,1,0,.06h0a0.08,0.08,0,0,0,0-.05h-0.06l-0.05,0a0.05,0.05,0,0,0,0,0,0,0,0,0,0,0,0l0.07,0,0.07,0,0,0a0.12,0.12,0,0,1,0,.11,0.1,0.1,0,0,1,0,0l-0.06,0h-0.07l-0.05,0a0.16,0.16,0,0,1,0-.07h0Z" transform="translate(-809.88 -255.23)"/>
        <path class="m" d="M837.09,267.91a0.23,0.23,0,0,1,0-.16,0.14,0.14,0,0,1,.11-0.07,0.13,0.13,0,0,1,.08,0,0.15,0.15,0,0,1,.06.06,0.27,0.27,0,0,1,0,.1,0.28,0.28,0,0,1,0,.11,0.17,0.17,0,0,1,0,.08l-0.08,0-0.08,0a0.16,0.16,0,0,1-.07-0.06,0.24,0.24,0,0,1,0-.09h0Zm0,0a0.18,0.18,0,0,0,0,.11,0.1,0.1,0,0,0,.08,0,0.1,0.1,0,0,0,.07-0.05,0.19,0.19,0,0,0,0-.12,0.23,0.23,0,0,0,0-.08,0.11,0.11,0,0,0,0,0h-0.06a0.09,0.09,0,0,0-.07,0,0.18,0.18,0,0,0,0,.13h0Z" transform="translate(-809.88 -255.23)"/>
        <path class="m" d="M836.73,268.18l0.07,0,0,0,0,0a0.12,0.12,0,0,0,0-.05,0.29,0.29,0,0,0,0-.07,0.2,0.2,0,0,0,0-.08l-0.05,0H836.7l-0.06,0Zm0,0.06-0.12-.37,0.11,0h0.11l0.06,0.05a0.31,0.31,0,0,1,0,.08,0.44,0.44,0,0,1,0,.08,0.2,0.2,0,0,1,0,.06l0,0,0,0,0,0Z" transform="translate(-809.88 -255.23)"/>
        <path class="c" d="M836.64,268.9l0.5,0.48v3.86a0.71,0.71,0,0,0,.66.64h0.82a0.91,0.91,0,0,1,.74.4,0.89,0.89,0,0,1,.74-0.4H841a0.7,0.7,0,0,0,.59-0.66v-3.86l0.5-.48h-5.45Z" transform="translate(-809.88 -255.23)"/>
        <path d="M839.36,274.34l0,0a0.89,0.89,0,0,0-.72-0.39h-0.82a0.75,0.75,0,0,1-.69-0.67v-3.86l-0.49-.46,5.46-.05-0.48.53v3.84a0.72,0.72,0,0,1-.2.47,0.61,0.61,0,0,1-.41.22h-0.9a0.88,0.88,0,0,0-.72.39l0,0h0Zm2.7-5.46-5.42,0,0.52,0.43v3.88a0.68,0.68,0,0,0,.63.62h0.82a0.93,0.93,0,0,1,.74.38,0.91,0.91,0,0,1,.73-0.38H841a0.54,0.54,0,0,0,.37-0.2,0.65,0.65,0,0,0,.19-0.43v-3.86l0.5-.5h0Z" transform="translate(-809.88 -255.23)"/>
        <polygon class="e" points="29.89 13.67 29.89 15.92 31.71 15.92 31.71 14.15 32.2 13.67 29.89 13.67"/>
        <path d="M841.61,271.17h-1.83l0-2.27,2.33,0-0.48.51v1.78h0Zm0.46-2.29-2.3,0,0,2.23,1.78,0v-1.75l0.5-.5h0Z" transform="translate(-809.88 -255.23)"/>
        <polygon class="d" points="26.76 13.67 29.07 13.67 29.07 15.92 27.25 15.92 27.25 14.15 26.76 13.67"/>
        <path d="M839,271.17h-1.83l0-1.79-0.49-.47,2.32,0,0,2.29h0Zm0-2.27-2.29,0,0.51,0.45v1.78l1.78,0V268.9h0Z" transform="translate(-809.88 -255.23)"/>
        <path class="e" d="M837.13,272h1.81v2l-0.17-.08h-1a0.7,0.7,0,0,1-.66-0.64V272Z" transform="translate(-809.88 -255.23)"/>
        <path d="M839,274l-0.19-.09h-1a0.72,0.72,0,0,1-.68-0.66V272l1.83,0,0,2.06h0Zm0-2-1.79,0,0,1.27a0.69,0.69,0,0,0,.64.63h1l0.15,0.07v-2h0Z" transform="translate(-809.88 -255.23)"/>
        <path class="d" d="M841.59,272h-1.81v2l0.17-.08h1a0.7,0.7,0,0,0,.66-0.64V272Z" transform="translate(-809.88 -255.23)"/>
        <path d="M839.75,274v-2l1.83,0,0,1.3a0.72,0.72,0,0,1-.68.66h-1l-0.18.09h0Zm1.81-2-1.8,0,0,2,0.14-.07h1a0.69,0.69,0,0,0,.64-0.63V272h0Z" transform="translate(-809.88 -255.23)"/>
        <path d="M839.36,274.34l0,0a0.89,0.89,0,0,0-.72-0.39h-0.82a0.75,0.75,0,0,1-.69-0.67v-3.86l-0.49-.46,5.46-.05-0.48.53v3.84a0.72,0.72,0,0,1-.2.47,0.61,0.61,0,0,1-.41.22h-0.9a0.88,0.88,0,0,0-.72.39l0,0h0Zm2.7-5.46-5.42,0,0.52,0.43v3.88a0.68,0.68,0,0,0,.63.62h0.82a0.93,0.93,0,0,1,.74.38,0.91,0.91,0,0,1,.73-0.38H841a0.54,0.54,0,0,0,.37-0.2,0.65,0.65,0,0,0,.19-0.43v-3.86l0.5-.5h0Z" transform="translate(-809.88 -255.23)"/>
        <polygon class="m" points="29.4 14.96 29.4 15.6 29.56 15.6 29.56 14.96 29.73 14.96 29.73 14.8 29.56 14.8 29.56 14.63 29.4 14.63 29.4 14.8 29.23 14.8 29.23 14.96 29.4 14.96"/>
        <path d="M839.47,270.86h-0.19l0-.67-0.13,0,0-.19,0.2,0,0-.13,0.19,0,0,0.19,0.13,0,0,0.19-0.2,0,0,0.64h0Zm-0.19-.7,0,0.67,0.11,0v-0.62l0.19,0,0-.13-0.13,0,0-.19-0.13,0,0,0.13-0.19,0,0,0.13,0.13,0h0Z" transform="translate(-809.88 -255.23)"/>
        <polygon class="n" points="29.54 15.79 28.23 14.05 28.31 13.99 29.63 15.72 29.54 15.79 29.54 15.79"/>
        <polygon class="m" points="28.21 14.06 28.08 13.76 28.34 13.98 28.21 14.06"/>
        <path class="e" d="M838.83,270.54s-0.17.66-.17,0.66a3.12,3.12,0,0,0,.51,0,4.54,4.54,0,0,0-.1-0.47,1.82,1.82,0,0,1-.25-0.24h0Z" transform="translate(-809.88 -255.23)"/>
        <path class="c" d="M838.4,270.1l-0.09.88a3.88,3.88,0,0,0,.58.45c0-.07,0-0.88,0-0.88Z" transform="translate(-809.88 -255.23)"/>
        <path class="d" d="M837.91,269.58l0,1a4.43,4.43,0,0,0,.52.38s0.05-.78.05-0.78Z" transform="translate(-809.88 -255.23)"/>
        <polygon points="28.02 15.15 27.99 14.33 28.05 14.34 28.02 15.15 28.02 15.15"/>
        <polygon class="n" points="29.47 15.85 27.92 14.3 28 14.23 29.55 15.77 29.47 15.85 29.47 15.85"/>
        <polygon class="m" points="27.91 14.31 27.73 14.04 28.03 14.22 27.91 14.31"/>
        <path class="c" d="M837.63,269.87v2.41a0.85,0.85,0,0,0,.83.8,5.59,5.59,0,0,0,.82-0.16v-1.77Z" transform="translate(-809.88 -255.23)"/>
        <path d="M838.42,273.11a0.89,0.89,0,0,1-.82-0.83v-2.41l1.7,1.26v1.79a3.32,3.32,0,0,1-.85.19h0Zm-0.81-3.22,0,2.39a0.82,0.82,0,0,0,.76.77v0l0,0a5.27,5.27,0,0,0,.82-0.16l0-1.74-1.64-1.26h0Z" transform="translate(-809.88 -255.23)"/>
        <path class="e" d="M837.63,271.8v0.48a0.85,0.85,0,0,0,.83.8,5.59,5.59,0,0,0,.82-0.16c-0.33-.16-1.16.32-1.16-1a0.61,0.61,0,0,1-.49-0.16h0Z" transform="translate(-809.88 -255.23)"/>
        <path class="d" d="M838.14,270.25l0,1.39a1.85,1.85,0,0,1-.49-0.16v-1.61Z" transform="translate(-809.88 -255.23)"/>
        <path class="e" d="M838.6,270.64v1.07a0.66,0.66,0,0,1,.31.06l0.38,0.15v-0.78Z" transform="translate(-809.88 -255.23)"/>
        <path class="d" d="M839.24,272.28a3.15,3.15,0,0,0-.45-0.19,0.93,0.93,0,0,0-.21,0,1.54,1.54,0,0,0,0,.26,0.22,0.22,0,0,0,.21.14l0.46,0v-0.17Z" transform="translate(-809.88 -255.23)"/>
        <path d="M838.42,273.11a0.89,0.89,0,0,1-.82-0.83v-2.41l1.7,1.26v1.79a3.32,3.32,0,0,1-.85.19h0Zm-0.81-3.22,0,2.39a0.82,0.82,0,0,0,.76.77v0l0,0a5.27,5.27,0,0,0,.82-0.16l0-1.74-1.64-1.26h0Z" transform="translate(-809.88 -255.23)"/>
        <polygon class="n" points="29.38 15.96 27.67 14.6 27.74 14.51 29.45 15.88 29.38 15.96 29.38 15.96"/>
        <polygon class="m" points="27.66 14.6 27.45 14.35 27.76 14.5 27.66 14.6"/>
        <polygon class="n" points="29.45 15.76 29.36 15.7 30.67 13.96 30.76 14.03 29.45 15.76 29.45 15.76"/>
        <polygon class="m" points="30.77 14.03 30.91 13.73 30.65 13.95 30.77 14.03"/>
        <path class="e" d="M839.91,270.52s0.17,0.66.17,0.66a3.35,3.35,0,0,1-.51,0,4,4,0,0,1,.1-0.47,1.92,1.92,0,0,0,.25-0.24h0Z" transform="translate(-809.88 -255.23)"/>
        <path class="c" d="M840.35,270.08l0.09,0.87a3.75,3.75,0,0,1-.58.45c0-.07,0-0.88,0-0.88Z" transform="translate(-809.88 -255.23)"/>
        <path class="d" d="M840.84,269.55l0,1a4.43,4.43,0,0,1-.52.38s0-.78,0-0.78Z" transform="translate(-809.88 -255.23)"/>
        <polygon points="31.03 15.12 30.94 14.31 31 14.3 31.03 15.12 31.03 15.12"/>
        <polygon class="n" points="29.52 15.82 29.44 15.74 30.99 14.2 31.06 14.28 29.52 15.82 29.52 15.82"/>
        <polygon class="m" points="31.07 14.28 31.25 14.01 30.96 14.19 31.07 14.28"/>
        <path class="c" d="M841.12,269.84v2.41a0.85,0.85,0,0,1-.82.8,5.27,5.27,0,0,1-.82-0.16v-1.77Z" transform="translate(-809.88 -255.23)"/>
        <path d="M840.33,273.08h0a5.17,5.17,0,0,1-.83-0.16l0-1.8,1.66-1.31,0,2.44a0.89,0.89,0,0,1-.82.83h0Zm-0.82-.2c0.06,0,.49.11,0.79,0.13l0,0v0a0.82,0.82,0,0,0,.76-0.78v-2.41l-1.6,1.31v1.74h0Z" transform="translate(-809.88 -255.23)"/>
        <path class="e" d="M841.12,271.77v0.48a0.85,0.85,0,0,1-.82.8,5.27,5.27,0,0,1-.82-0.16c0.33-.16,1.15.32,1.15-1a0.62,0.62,0,0,0,.5-0.16h0Z" transform="translate(-809.88 -255.23)"/>
        <path class="d" d="M840.6,270.22l0,1.39a1.75,1.75,0,0,0,.5-0.16v-1.61Z" transform="translate(-809.88 -255.23)"/>
        <path class="e" d="M840.15,270.61v1.07a0.68,0.68,0,0,0-.31.06l-0.37.15v-0.78Z" transform="translate(-809.88 -255.23)"/>
        <path class="d" d="M839.51,272.25a3.06,3.06,0,0,1,.45-0.19,0.92,0.92,0,0,1,.21,0,1.55,1.55,0,0,1,0,.26,0.23,0.23,0,0,1-.21.14l-0.46,0v-0.17Z" transform="translate(-809.88 -255.23)"/>
        <path d="M840.33,273.08h0a5.17,5.17,0,0,1-.83-0.16l0-1.8,1.66-1.31,0,2.44a0.89,0.89,0,0,1-.82.83h0Zm-0.82-.2c0.06,0,.49.11,0.79,0.13l0,0v0a0.82,0.82,0,0,0,.76-0.78v-2.41l-1.6,1.31v1.74h0Z" transform="translate(-809.88 -255.23)"/>
        <polygon class="n" points="29.6 15.93 29.54 15.85 31.25 14.48 31.32 14.57 29.6 15.93 29.6 15.93"/>
        <polygon class="m" points="31.33 14.57 31.54 14.32 31.23 14.47 31.33 14.57"/>
        <path class="e" d="M839.65,272.83a0.39,0.39,0,0,0,.21.18,2.14,2.14,0,0,0-.13-0.54,2.4,2.4,0,0,1-.15-0.63c0-.27-0.17,0-0.17,0Z" transform="translate(-809.88 -255.23)"/>
        <path d="M839.85,273a0.43,0.43,0,0,1-.21-0.18l-0.26-1a0.28,0.28,0,0,1,.16-0.18c0.07,0,.07.11,0.07,0.14a1.49,1.49,0,0,0,.1.46c0,0.06,0,.11.05,0.16l0.06,0.19a0.61,0.61,0,0,1,.07.38l0,0h0Zm-0.32-1.3a0.39,0.39,0,0,0-.1.13l0.25,0.95a0.58,0.58,0,0,0,.16.16,1.71,1.71,0,0,0-.08-0.32l-0.06-.19c0-.05,0-0.1,0-0.16a1.57,1.57,0,0,1-.11-0.48,0.15,0.15,0,0,0,0-.08h0Z" transform="translate(-809.88 -255.23)"/>
        <path class="e" d="M839.51,273.36l0.32,0s-0.1-.42-0.13-0.66a7.91,7.91,0,0,0-.29-1Z" transform="translate(-809.88 -255.23)"/>
        <path d="M839.86,273.4l-0.36,0-0.14-1.65a3.06,3.06,0,0,1,.35,1c0,0.24.13,0.65,0.13,0.66v0h0Zm-0.49-1.66,0.17,1.61h0.25c0-.1-0.1-0.43-0.12-0.63a7.88,7.88,0,0,0-.29-1h0Z" transform="translate(-809.88 -255.23)"/>
        <path class="c" d="M839.28,271.67a3.05,3.05,0,0,0-.45,1.06,1.14,1.14,0,0,0,.28.69c0.07,0.11.25,0.48,0.25,0.48a2.83,2.83,0,0,0,.24-0.56c0-.16-0.08-0.82-0.05-1.08a6.94,6.94,0,0,1,.23-0.87Z" transform="translate(-809.88 -255.23)"/>
        <path d="M839.36,274l0-.05s-0.18-.36-0.25-0.48l0-.06a1,1,0,0,1-.24-0.64,2.72,2.72,0,0,1,.44-1.06l0.51-.31s-0.15.64-.18,0.9a3.87,3.87,0,0,0,0,.64,1.2,1.2,0,0,1-.22,1l0,0.05h0Zm0.38-2.58-0.45.31a2.59,2.59,0,0,0-.43,1,1,1,0,0,0,.23.61l0,0.06c0.05,0.09.17,0.32,0.22,0.43a2.52,2.52,0,0,0,.21-0.5,3.27,3.27,0,0,0,0-.43,4.49,4.49,0,0,1,0-.65,7.14,7.14,0,0,1,.23-0.87h0Z" transform="translate(-809.88 -255.23)"/>
        <path class="d" d="M839.28,271.67a3.05,3.05,0,0,0-.45,1.06,1.14,1.14,0,0,0,.28.69,5.69,5.69,0,0,1,0-.73,1.85,1.85,0,0,1,.53-1.21Z" transform="translate(-809.88 -255.23)"/>
        <path class="e" d="M839.46,271.46a5.64,5.64,0,0,0-.18.88c0,0.18.07,0.6,0.09,0.94a3.7,3.7,0,0,1,0,.61,2.83,2.83,0,0,0,.24-0.56c0-.16-0.08-0.82-0.05-1.08a6.94,6.94,0,0,1,.23-0.87Z" transform="translate(-809.88 -255.23)"/>
        <path d="M839.36,274l0-.05s-0.18-.36-0.25-0.48l0-.06a1,1,0,0,1-.24-0.64,2.72,2.72,0,0,1,.44-1.06l0.51-.31s-0.15.64-.18,0.9a3.87,3.87,0,0,0,0,.64,1.2,1.2,0,0,1-.22,1l0,0.05h0Zm0.38-2.58-0.45.31a2.59,2.59,0,0,0-.43,1,1,1,0,0,0,.23.61l0,0.06c0.05,0.09.17,0.32,0.22,0.43a2.52,2.52,0,0,0,.21-0.5,3.27,3.27,0,0,0,0-.43,4.49,4.49,0,0,1,0-.65,7.14,7.14,0,0,1,.23-0.87h0Z" transform="translate(-809.88 -255.23)"/>
        <path class="e" d="M839.21,271.51a0.3,0.3,0,0,0,0,.29,0.27,0.27,0,0,1,.21-0.08,0.35,0.35,0,0,1,.23.21,0.28,0.28,0,0,0,.1-0.2,0.41,0.41,0,0,0-.52-0.22h0Z" transform="translate(-809.88 -255.23)"/>
        <path d="M839.61,272v0a0.33,0.33,0,0,0-.21-0.2h0a0.25,0.25,0,0,0-.19.07,0.23,0.23,0,0,1,0-.33,0.49,0.49,0,0,1,.51.13,0.16,0.16,0,0,1,0,.13,0.31,0.31,0,0,1-.12.22l0,0h0Zm-0.23-.29a0.34,0.34,0,0,1,.25.2,0.29,0.29,0,0,0,.06-0.16,0.1,0.1,0,0,0,0-.08,0.51,0.51,0,0,0-.45-0.11,0.24,0.24,0,0,0,0,.22,0.22,0.22,0,0,1,.18-0.07h0Z" transform="translate(-809.88 -255.23)"/>
        <path d="M838.9,271l0.29,0.74,0.21-.08a0.4,0.4,0,0,1,.18,0l0.2-.1a0.92,0.92,0,0,1,.21,0l0,0a7.55,7.55,0,0,0-1.09-.54V271Z" transform="translate(-809.88 -255.23)"/>
        <path d="M839.17,271.74l-0.3-.77,0-.09h0a6.9,6.9,0,0,1,1.11.54l0,0,0,0.05s-0.15,0-.22,0l-0.19.09H839.5l-0.1,0-0.21.08h0Zm-0.25-.8,0.28,0.72,0.18-.07a0.5,0.5,0,0,1,.19,0l0.19-.1a0.92,0.92,0,0,1,.21,0,9.46,9.46,0,0,0-1.06-.51h0Z" transform="translate(-809.88 -255.23)"/>
        <path class="c" d="M838.92,270.9l0.29,0.74,0.21-.08a0.4,0.4,0,0,1,.18,0l0.2-.1a0.94,0.94,0,0,1,.21,0l-0.29-.81a1.05,1.05,0,0,0-.2,0,0.77,0.77,0,0,0-.17.12,0.59,0.59,0,0,0-.23,0,0.54,0.54,0,0,0-.19.11h0Z" transform="translate(-809.88 -255.23)"/>
        <path d="M839.19,271.67l-0.3-.77a0.44,0.44,0,0,1,.21-0.15l0.15,0h0.08a0.74,0.74,0,0,1,.18-0.12,1,1,0,0,1,.21,0l0.32,0.83a0.6,0.6,0,0,1-.22.06l-0.19.09h-0.09l-0.1,0-0.21.08h0Zm0.5-1a1.51,1.51,0,0,1-.17.05,0.73,0.73,0,0,0-.16.12h-0.11l-0.13,0a0.58,0.58,0,0,0-.18.1l0.28,0.68,0.18-.07a0.54,0.54,0,0,1,.19,0l0.18-.1a0.92,0.92,0,0,1,.22,0l-0.31-.76h0Z" transform="translate(-809.88 -255.23)"/>
        <polygon class="o" points="29.75 16.3 29.45 15.55 29.48 15.54 29.75 16.3 29.75 16.3"/>
        <path class="o" d="M839,271l0,0a0.58,0.58,0,0,1,.41-0.11,0.84,0.84,0,0,0-.39.14h0Z" transform="translate(-809.88 -255.23)"/>
        <path class="o" d="M839,271l0,0a0.59,0.59,0,0,1,.41-0.11,0.84,0.84,0,0,0-.39.14h0Z" transform="translate(-809.88 -255.23)"/>
        <path class="o" d="M839,271.15l0,0a0.57,0.57,0,0,1,.41-0.11,0.87,0.87,0,0,0-.39.14h0Z" transform="translate(-809.88 -255.23)"/>
        <path class="o" d="M839.06,271.25l0,0a0.58,0.58,0,0,1,.41-0.11,0.84,0.84,0,0,0-.39.14h0Z" transform="translate(-809.88 -255.23)"/>
        <path class="o" d="M839.12,271.35l0,0a0.58,0.58,0,0,1,.41-0.11,0.85,0.85,0,0,0-.39.14h0Z" transform="translate(-809.88 -255.23)"/>
        <path class="o" d="M839.15,271.45l0,0a0.58,0.58,0,0,1,.41-0.11,0.83,0.83,0,0,0-.39.14h0Z" transform="translate(-809.88 -255.23)"/>
        <path class="o" d="M839.19,271.55l0,0a0.58,0.58,0,0,1,.41-0.11,0.85,0.85,0,0,0-.39.14h0Z" transform="translate(-809.88 -255.23)"/>
        <path class="o" d="M839.38,270.85l0,0a0.55,0.55,0,0,1,.38-0.16,0.81,0.81,0,0,0-.35.18h0Z" transform="translate(-809.88 -255.23)"/>
        <path class="o" d="M839.41,271l0,0a0.55,0.55,0,0,1,.38-0.16,0.8,0.8,0,0,0-.36.18h0Z" transform="translate(-809.88 -255.23)"/>
        <path class="o" d="M839.44,271l0,0a0.55,0.55,0,0,1,.38-0.16,0.79,0.79,0,0,0-.35.18h0Z" transform="translate(-809.88 -255.23)"/>
        <path class="o" d="M839.48,271.15l0,0a0.55,0.55,0,0,1,.38-0.16,0.81,0.81,0,0,0-.35.18h0Z" transform="translate(-809.88 -255.23)"/>
        <path class="o" d="M839.51,271.25l0,0a0.54,0.54,0,0,1,.38-0.16,0.82,0.82,0,0,0-.36.18h0Z" transform="translate(-809.88 -255.23)"/>
        <path class="o" d="M839.55,271.34l0,0a0.55,0.55,0,0,1,.38-0.16,0.81,0.81,0,0,0-.35.18h0Z" transform="translate(-809.88 -255.23)"/>
        <path class="o" d="M839.59,271.44l0,0a0.53,0.53,0,0,1,.38-0.16,0.79,0.79,0,0,0-.35.18h0Z" transform="translate(-809.88 -255.23)"/>
        <path d="M839.19,271.67l-0.3-.77a0.44,0.44,0,0,1,.21-0.15l0.15,0h0.08a0.74,0.74,0,0,1,.18-0.12,1,1,0,0,1,.21,0l0.32,0.83a0.6,0.6,0,0,1-.22.06l-0.19.09h-0.09l-0.1,0-0.21.08h0Zm0.5-1a1.51,1.51,0,0,1-.17.05,0.73,0.73,0,0,0-.16.12h-0.11l-0.13,0a0.58,0.58,0,0,0-.18.1l0.28,0.68,0.18-.07a0.54,0.54,0,0,1,.19,0l0.18-.1a0.92,0.92,0,0,1,.22,0l-0.31-.76h0Z" transform="translate(-809.88 -255.23)"/>
        <path class="p" d="M838.4,276a4.81,4.81,0,0,0,.67-0.46c0.22-.19.41-0.44,0.65-0.67a1.32,1.32,0,0,0,.47-0.44,1.23,1.23,0,0,0,.06-0.65,0.24,0.24,0,0,1,.16.18,2,2,0,0,1,.12-0.21,3.51,3.51,0,0,0,0,.38c0-.06.21-0.43,0.21-0.43s-0.08.52-.06,0.46a3.18,3.18,0,0,1,.22-0.33v0.33a1.56,1.56,0,0,0,.18-0.4,0.73,0.73,0,0,0,.16.17,1,1,0,0,1,.14-0.36,0.48,0.48,0,0,1,.1.21,6.78,6.78,0,0,1,0-1.09l0.2,0.06v-0.42l0.18,0.56a2.18,2.18,0,0,0-.06-0.52,3.38,3.38,0,0,1-.08-0.35l0.24,0.35a2.08,2.08,0,0,0-.2-0.56,0.49,0.49,0,0,0-.18.19,2.84,2.84,0,0,1,.2-0.44,0.6,0.6,0,0,1,.15.27l-0.12-.66,0.16,0.29a0.56,0.56,0,0,0,0-.27,1.41,1.41,0,0,1-.06-0.25,0.69,0.69,0,0,0,.1.12,1.83,1.83,0,0,1,0-.34l0.1,0.22,0.1,0.15v-0.13l0.1,0.09a1.54,1.54,0,0,0-.32-0.49,0.38,0.38,0,0,0-.23.15,1.11,1.11,0,0,1,.23-0.31h0.08L842,270a3.55,3.55,0,0,0,.37.46c0-.08-0.18-0.44-0.2-0.57s-0.08-.37-0.08-0.37l0.18,0.25a1.51,1.51,0,0,0,.16.25s0-.48,0-0.48l0.2,0.42,0.18-.5,0.1,0.48s0.08-.23.1-0.33a0.09,0.09,0,0,1,.08-0.09s0,0.4,0,.44,0,0.25,0,.25l0.22-.44a0.45,0.45,0,0,1,.2-0.13l-0.1.23a3,3,0,0,0-.2.5,1.29,1.29,0,0,1,.29-0.23,0.38,0.38,0,0,1,.24.27,1.92,1.92,0,0,1-.26-0.07,1.67,1.67,0,0,0-.45.5,2,2,0,0,0,.35-0.31,0.52,0.52,0,0,0-.06.22l0.33-.19a2.21,2.21,0,0,0-.37.38,1.54,1.54,0,0,0,.29-0.12l-0.29.37a1.19,1.19,0,0,1,.32-0.16,1,1,0,0,1,.25.06,2.84,2.84,0,0,0-.33,0,1.08,1.08,0,0,0-.26.4,1.37,1.37,0,0,0,.23-0.21l-0.1.25,0.41-.25-0.57.6a2,2,0,0,1,.46-0.29,2.68,2.68,0,0,1,.33.33,3.74,3.74,0,0,0-.39-0.17,3.12,3.12,0,0,0-.49.63,2.07,2.07,0,0,1,.43-0.19,0.5,0.5,0,0,1,.18.35s-0.22-.1-0.26-0.1a5.53,5.53,0,0,0-.49.27l0.43-.08a2.21,2.21,0,0,0,.37,0l0.29-.12s-0.23.14-.34,0.24a0.79,0.79,0,0,1-.32.13l0.37,0-0.64.21-0.28.13h0.43l0.45,0.06-0.55.08a0.32,0.32,0,0,0-.14.06l0.53,0.06-0.35.06,0.31,0.11a1.9,1.9,0,0,1,.24.14s-0.45-.1-0.55-0.1l-0.25,0a0.79,0.79,0,0,1,.26.06,0.16,0.16,0,0,1,.09.07l-0.26,0a1.65,1.65,0,0,0,.24.15,0.38,0.38,0,0,1,.12.08l-0.39,0,0.33,0.25s-0.35-.08-0.41-0.08h-0.06a1.67,1.67,0,0,1,.22.19,1.15,1.15,0,0,1,.08.13,1.77,1.77,0,0,1-.24-0.08,0.89,0.89,0,0,0-.21-0.06l0.18,0.19-0.29-.06,0.16,0.23-0.29-.1a0.31,0.31,0,0,1,.14.13,0.44,0.44,0,0,1-.1.29s-0.06-.19-0.1-0.25a0.41,0.41,0,0,0-.1-0.1,0.7,0.7,0,0,0-.2-0.06s0.23,0.17.26,0.22l-0.37,0a1.33,1.33,0,0,1,.3.17l-2.07-.15a9.36,9.36,0,0,0-.81.71,4.44,4.44,0,0,1-.51.4,1.29,1.29,0,0,0-.28.1Z" transform="translate(-809.88 -255.23)"/>
        <path class="q" d="M838.62,276.15l-0.23-.12c0-.08.46-0.33,0.66-0.51a4.84,4.84,0,0,0,.36-0.36l0.29-.31a1.26,1.26,0,0,1,.24-0.18,0.45,0.45,0,0,0,.23-0.25,0.78,0.78,0,0,0,.06-0.44c0-.06,0-0.12,0-0.2a0.17,0.17,0,0,1,.2.13l0-.1c0-.1,0-0.12.08-0.12,0,0.21,0,.4,0,0.43a2.18,2.18,0,0,1,.15-0.44h0a0.05,0.05,0,0,1,0,0,2,2,0,0,1,0,.35,1.46,1.46,0,0,1,.16-0.28l0,0.29c0-.08.1-0.23,0.13-0.36s0.09,0,.13.08a0.35,0.35,0,0,0,.05.08,0.72,0.72,0,0,1,0-.14,0.26,0.26,0,0,1,.11-0.23,0.4,0.4,0,0,1,.14.24,3.49,3.49,0,0,1,0-1.11l0.23,0,0-.39a1.12,1.12,0,0,1,.19.4c0-.12,0-0.29-0.07-0.35a3.05,3.05,0,0,1-.08-0.35,0.71,0.71,0,0,1,.26.27c-0.07-.13-0.17-0.43-0.2-0.46l-0.11.13a0.16,0.16,0,0,1,0-.15,0.37,0.37,0,0,1,.15-0.28,0.5,0.5,0,0,1,.18.28h0c-0.09-.08-0.16-0.21-0.18-0.22a1.72,1.72,0,0,0-.09.24h0a0.14,0.14,0,0,1,.08-0.05,1.66,1.66,0,0,1,.23.59,1.08,1.08,0,0,1-.23-0.24c0,0.07,0,.17.07,0.23a2.12,2.12,0,0,1,.06.55,2.92,2.92,0,0,1-.23-0.57l0.06,0.41-0.24,0s0,0.58,0,1.07a2.13,2.13,0,0,1-.14-0.19l0,0.19a0.6,0.6,0,0,1-.05.17c-0.07,0-.1,0-0.14-0.09a0.28,0.28,0,0,0,0-.07,1,1,0,0,1-.15.39v0a0,0,0,0,1,0,0l0-.3a1.72,1.72,0,0,1-.16.34c-0.05,0-.07,0,0-0.3a2,2,0,0,1-.13.28s-0.06,0-.06-0.29c0,0.11-.06.13-0.09,0.13a0.29,0.29,0,0,0-.17-0.19,0.31,0.31,0,0,1,0,.16,0.84,0.84,0,0,1-.07.47,0.52,0.52,0,0,1-.25.28,1.28,1.28,0,0,0-.23.17l-0.29.31c-0.12.13-.24,0.26-0.36,0.37a5.5,5.5,0,0,1-.68.46l0.2,0.06a1.25,1.25,0,0,1,.28-0.09,1,1,0,0,0,.28-0.22,1.19,1.19,0,0,1,.22-0.18,2.78,2.78,0,0,0,.31-0.29,1.58,1.58,0,0,1,.51-0.43l1.31,0.1,0.7,0.05-0.25-.11h0.33l-0.09-.05a0.56,0.56,0,0,1-.14-0.12,0.37,0.37,0,0,1,.24,0,0.45,0.45,0,0,1,.11.11,0.54,0.54,0,0,1,.05.13,0.44,0.44,0,0,0,0,.11,2.6,2.6,0,0,0,0-.27,0.27,0.27,0,0,0-.12-0.11h0a0.11,0.11,0,0,1,.11,0l0.21,0-0.19-.19h0.33l-0.2-.14a0.25,0.25,0,0,1,.25,0l0.17,0.06,0-.07a1.63,1.63,0,0,0-.21-0.18l-0.07-.05h0.14c0.06,0,.38.07,0.42,0.08l-0.36-.2h0.33l0,0a1.59,1.59,0,0,1-.25-0.16l0.22,0,0,0a0.75,0.75,0,0,0-.25-0.06,0.28,0.28,0,0,1,.25-0.08,4.05,4.05,0,0,1,.42.07l-0.12-.05-0.32-.11h0.05l0.31-.1H843a0.14,0.14,0,0,1,.14-0.12l0.39-.05-0.29,0h-0.43v-0.06h0v0l0.23-.11,0.64-.21h0a2.7,2.7,0,0,1-.63.26l-0.16.07h0.3c0.08,0,.46.06,0.46,0.06a1.59,1.59,0,0,1-.56.13,0.28,0.28,0,0,0-.12.05h0.52l-0.3.1a1.7,1.7,0,0,1,.27.07,1.56,1.56,0,0,1,.24.14,3.88,3.88,0,0,1-.57,0h0l0.06,0a0.17,0.17,0,0,1,.1.09l-0.29,0h0a0.77,0.77,0,0,1,.25.1,0.4,0.4,0,0,1,.13.08h0a0,0,0,0,1-.06,0H843l0.36,0.2a2,2,0,0,1-.41,0,0.7,0.7,0,0,1,.16.14,1.25,1.25,0,0,1,.08.14,0.37,0.37,0,0,1-.28,0,0.91,0.91,0,0,0-.21-0.05l0.2,0.14h-0.32l0.19,0.18-0.21,0a0.12,0.12,0,0,1,.06.09,0.5,0.5,0,0,1-.12.32,0.25,0.25,0,0,1-.09-0.15,0.48,0.48,0,0,0,0-.12,0.36,0.36,0,0,0-.09-0.09h0l-0.09,0,0.06,0,0.13,0.11H842c0.34,0.1.34,0.12,0.33,0.15a4.35,4.35,0,0,1-.8,0l-1.3-.09a2.27,2.27,0,0,0-.46.41,2.44,2.44,0,0,1-.33.3,1.35,1.35,0,0,0-.21.17,1,1,0,0,1-.31.23,1.26,1.26,0,0,0-.27.09h0Zm4.76-3.21a1.57,1.57,0,0,1,.31-0.18l0.13-.1-0.05,0a0.74,0.74,0,0,1-.24,0h-0.15l-0.43.08h0l0,0a1.53,1.53,0,0,1,.44-0.29l0.14,0.05,0.12,0a1,1,0,0,0-.18-0.29,1.74,1.74,0,0,0-.36.15l-0.06,0a1.69,1.69,0,0,1,.48-0.69,2.92,2.92,0,0,1,.41.18c-0.17-.1-0.32-0.26-0.36-0.27a2.21,2.21,0,0,0-.43.28h0a0.48,0.48,0,0,1,.11-0.13l0.42-.5-0.38.29,0-.21a0.58,0.58,0,0,1-.18.17,0.71,0.71,0,0,1,.23-0.46l0.2,0h-0.1a1.11,1.11,0,0,0-.31.15h0a0.11,0.11,0,0,1,0-.06l0.18-.29a0.52,0.52,0,0,1-.24.12s0-.06.16-0.26l-0.11.06s-0.06,0,0-.18a0.81,0.81,0,0,1-.29.28,1.13,1.13,0,0,1,.45-0.56,0.44,0.44,0,0,1,.13,0l0.11,0a0.55,0.55,0,0,0-.22-0.21,0.46,0.46,0,0,0-.19.14,0.2,0.2,0,0,1-.11.09s0-.1.12-0.41l0.05-.12,0.09-.2a1.59,1.59,0,0,0-.13.13l-0.21.44a0.41,0.41,0,0,1,0-.26s0-.28,0-0.39l0,0.05c0,0.1-.1.33-0.1,0.33v0a0,0,0,0,1,0,0l-0.14-.42-0.12.5-0.21-.36a2.73,2.73,0,0,1,0,.41c-0.05,0-.06,0-0.15-0.13l-0.06-.1-0.1-.14a1.4,1.4,0,0,1,.05.24,3,3,0,0,0,.13.4l0.06,0.18s-0.08,0-.43-0.44l0.11,0.3-0.11,0a0.47,0.47,0,0,0-.1.12l0.08,0a1.18,1.18,0,0,1,.36.51L842.2,271h0l0,0,0.15,0.06a2.9,2.9,0,0,0-.35-0.44h0a0.35,0.35,0,0,0-.21.14h0a0.1,0.1,0,0,1,0-.09,0.38,0.38,0,0,1,.18-0.26h0.08L842,270a4.29,4.29,0,0,1,.34.36l0-.06a2.44,2.44,0,0,1-.14-0.41c0-.13-0.08-0.36-0.08-0.36h0s0,0,0,0l0.17,0.17,0.06,0.11,0.07,0.13a2.52,2.52,0,0,1-.05-0.44h0a0.05,0.05,0,0,1,0,0l0.22,0.36,0.12-.5,0.13,0.42a2.4,2.4,0,0,1,.06-0.27,0.12,0.12,0,0,1,.11-0.12,2.53,2.53,0,0,1,0,.47s0,0,0,.09c0-.11.11-0.25,0.13-0.29a0.46,0.46,0,0,1,.21-0.15,0.48,0.48,0,0,1-.06.27l-0.06.13c0,0.07-.09.21-0.12,0.29l0,0a0.44,0.44,0,0,1,.23-0.16,0.45,0.45,0,0,1,.27.27l0,0.06a0.43,0.43,0,0,1-.13,0l-0.11,0a2.53,2.53,0,0,0-.43.47s0.2-.21.31-0.33a0.7,0.7,0,0,1,0,.23,1.65,1.65,0,0,1,.3-0.21h0a0.11,0.11,0,0,1-.06.08c-0.13.16-.26,0.3-0.28,0.32a1.25,1.25,0,0,1,.26-0.14v0l-0.19.29a0.54,0.54,0,0,1,.25-0.13,1,1,0,0,1,.26.07h0l0,0a2.19,2.19,0,0,1-.28.07,1.89,1.89,0,0,0-.25.38,2.65,2.65,0,0,1,.2-0.23h0a0.06,0.06,0,0,1,0,.06l0,0.21,0.37-.29-0.42.5a0.82,0.82,0,0,1,.31-0.2,1.77,1.77,0,0,1,.36.34,3.27,3.27,0,0,1-.42-0.12,5.77,5.77,0,0,0-.43.54,1.36,1.36,0,0,1,.37-0.16,0.53,0.53,0,0,1,.21.36,0.16,0.16,0,0,1-.18,0l-0.12,0-0.37.2,0.3-.07h0.15a0.68,0.68,0,0,0,.21,0l0.3-.12a0.88,0.88,0,0,1-.31.29,0.8,0.8,0,0,1-.34.13h0ZM842,271.75l-0.16-.59L842,271.4a1.16,1.16,0,0,0,0-.21,1.18,1.18,0,0,1-.06-0.26,0.14,0.14,0,0,1,.11.06,0.92,0.92,0,0,1,0-.29,0.47,0.47,0,0,1,.16.21l0.09,0.13v0a0.2,0.2,0,0,1-.15-0.13l-0.1-.22a1.66,1.66,0,0,1,.05.32s0,0-.08,0l0,0.14a0.57,0.57,0,0,1,0,.29l-0.21-.28,0.16,0.58h0Z" transform="translate(-809.88 -255.23)"/>
        <path class="q" d="M840.25,274.59l0,0a2.45,2.45,0,0,0,.27-0.32,0.92,0.92,0,0,0,0-.12c0.06,0,0,.07,0,0.14a2.64,2.64,0,0,1-.29.34h0Z" transform="translate(-809.88 -255.23)"/>
        <path class="q" d="M840.37,274.63l0,0a1.14,1.14,0,0,0,.33-0.47,0.65,0.65,0,0,1-.3.52h0Z" transform="translate(-809.88 -255.23)"/>
        <path class="q" d="M840.74,274.49l0,0a0.81,0.81,0,0,0,.18-0.31,0.4,0.4,0,0,1-.14.36h0Z" transform="translate(-809.88 -255.23)"/>
        <path class="q" d="M840.79,274.64l0,0a1,1,0,0,0,.36-0.73,0.74,0.74,0,0,1-.33.78h0Z" transform="translate(-809.88 -255.23)"/>
        <path class="q" d="M841,274.65l0,0a1.58,1.58,0,0,0,.36-1,1.16,1.16,0,0,1-.32,1h0Z" transform="translate(-809.88 -255.23)"/>
        <path class="q" d="M841.15,274.71l0-.05a1.35,1.35,0,0,0,.3-1l0.06-.05a1.41,1.41,0,0,1-.34,1.07h0Z" transform="translate(-809.88 -255.23)"/>
        <path class="q" d="M841.63,274.19a2.48,2.48,0,0,0-.14-0.78,1.15,1.15,0,0,1,.2.78h-0.06Z" transform="translate(-809.88 -255.23)"/>
        <path class="q" d="M841.79,274h-0.06a1.63,1.63,0,0,0-.18-0.82,1,1,0,0,1,.24.82h0Z" transform="translate(-809.88 -255.23)"/>
        <path class="q" d="M841.83,274h-0.06c0.11-1.1-.12-1.22-0.12-1.23s0.3,0.09.18,1.23h0Z" transform="translate(-809.88 -255.23)"/>
        <path class="q" d="M842,273.51h-0.06a1,1,0,0,0-.09-0.64s0.19,0.16.15,0.65h0Z" transform="translate(-809.88 -255.23)"/>
        <path class="q" d="M842.16,273.18H842.1a1.76,1.76,0,0,0-.17-0.81h0a1.12,1.12,0,0,1,.23.82h0Z" transform="translate(-809.88 -255.23)"/>
        <path class="q" d="M842.17,273.84l0-.05a1.51,1.51,0,0,1,.86-0.37,3.06,3.06,0,0,0-.82.42h0Z" transform="translate(-809.88 -255.23)"/>
        <path class="q" d="M842,274.24l0,0c0.88-.61,1.07-0.48,1.09-0.46a2.22,2.22,0,0,0-1.05.51h0Z" transform="translate(-809.88 -255.23)"/>
        <path class="q" d="M843,274a2.83,2.83,0,0,0-.59,0V274a1,1,0,0,1,.63.06h0Z" transform="translate(-809.88 -255.23)"/>
        <path class="q" d="M842.68,274.39a1.31,1.31,0,0,0-.47,0v-0.06a0.72,0.72,0,0,1,.5.08l0,0h0Z" transform="translate(-809.88 -255.23)"/>
        <path class="q" d="M842.46,272.73l0,0a3.47,3.47,0,0,1,.74-0.75,5.51,5.51,0,0,1-.7.79h0Z" transform="translate(-809.88 -255.23)"/>
        <path class="q" d="M842.43,272.91l0-.05,0.69-.46s0,0.1-.65.51h0Z" transform="translate(-809.88 -255.23)"/>
        <path class="q" d="M842.38,273.23l0,0a1.46,1.46,0,0,1,.66-0.47c0,0.06-.19.09-0.62,0.51h0Z" transform="translate(-809.88 -255.23)"/>
        <path class="q" d="M842.38,273.43l0,0a1.41,1.41,0,0,1,1.14-.49,2.26,2.26,0,0,0-1.1.54h0Z" transform="translate(-809.88 -255.23)"/>
        <path class="q" d="M842.26,273.61l0-.05a1.94,1.94,0,0,1,.59-0.28l0.08,0a2,2,0,0,0-.63.3h0Z" transform="translate(-809.88 -255.23)"/>
        <path class="q" d="M842.65,271.1c-0.15-.71-0.24-1-0.24-1a2.15,2.15,0,0,1,.29,1h-0.06Z" transform="translate(-809.88 -255.23)"/>
        <path class="q" d="M842.75,271.12a0.92,0.92,0,0,1,0-.4,1.58,1.58,0,0,0-.19-0.7l0,0a1.62,1.62,0,0,1,.2.74c0,0.07-.09.39-0.09,0.39h0Z" transform="translate(-809.88 -255.23)"/>
        <path class="q" d="M842.89,270.33c-0.05,0-.09-0.11-0.07-0.46h0.06a1.09,1.09,0,0,0,0,.46h0Z" transform="translate(-809.88 -255.23)"/>
        <path class="q" d="M842.87,270.74l-0.05,0a3.88,3.88,0,0,0,.21-0.52,1,1,0,0,1-.16.55h0Z" transform="translate(-809.88 -255.23)"/>
        <path class="q" d="M842.65,271.55a2.29,2.29,0,0,1,.15-0.39c0.1-.24.23-0.54,0.32-0.77l0.05,0c-0.09.22-.22,0.54-0.32,0.77s-0.14.32-.14,0.34l-0.06,0h0Z" transform="translate(-809.88 -255.23)"/>
        <path class="q" d="M842.66,272l-0.05,0a4.11,4.11,0,0,1,.61-1,9.52,9.52,0,0,1-.55,1h0Z" transform="translate(-809.88 -255.23)"/>
        <path class="q" d="M842.68,272.1l0,0a6.82,6.82,0,0,0,.59-0.89,1.71,1.71,0,0,1-.54.92h0Z" transform="translate(-809.88 -255.23)"/>
        <path class="q" d="M842.59,272.43l0,0a2.64,2.64,0,0,1,.83-0.84c0,0.06-.21.14-0.78,0.88h0Z" transform="translate(-809.88 -255.23)"/>
        <path class="q" d="M842.23,272.82a2.22,2.22,0,0,0-.33-1,1.33,1.33,0,0,1,.39,1h-0.06Z" transform="translate(-809.88 -255.23)"/>
        <path class="q" d="M842.34,272.47a6.94,6.94,0,0,0-.39-1l0,0a2.54,2.54,0,0,1,.34,1h0Z" transform="translate(-809.88 -255.23)"/>
        <path class="q" d="M842.4,272.22a3.06,3.06,0,0,0-.41-1.16l0.05,0a1.77,1.77,0,0,1,.36,1.2h0Z" transform="translate(-809.88 -255.23)"/>
        <path class="q" d="M842.48,272.43a2.91,2.91,0,0,0-.29-1.36l0.05,0a1.94,1.94,0,0,1,.24,1.38h0Z" transform="translate(-809.88 -255.23)"/>
        <path class="q" d="M842.59,271.89c-0.06,0,0-.28-0.27-0.85l0.05,0a2.37,2.37,0,0,1,.22.87h0Z" transform="translate(-809.88 -255.23)"/>
        <path class="q" d="M842.63,271.36a1.49,1.49,0,0,0-.58-1l0,0a1,1,0,0,1,.54,1h0Z" transform="translate(-809.88 -255.23)"/>
        <path class="q" d="M842,274.07a0.78,0.78,0,0,1,0-.35s0-.09,0-0.15l-0.17.39-0.05,0c0.23-.54.26-0.63,0.26-0.64h0a0,0,0,0,1,0,0,2.53,2.53,0,0,1,0,.37,2.26,2.26,0,0,1-.1.35h0Z" transform="translate(-809.88 -255.23)"/>
        <path class="q" d="M842.4,274.65a2.28,2.28,0,0,0-1-.17v-0.06a1.59,1.59,0,0,1,1,.22h0Z" transform="translate(-809.88 -255.23)"/>
        <path class="q" d="M842.06,274.71c-0.11,0-.35,0-0.7-0.07v-0.06a5.35,5.35,0,0,1,.77.11,0.08,0.08,0,0,1-.07,0h0Z" transform="translate(-809.88 -255.23)"/>
        <path class="q" d="M842.57,274.53c-0.13,0-.78-0.24-1-0.25v-0.06a5.68,5.68,0,0,1,1,.31h0Z" transform="translate(-809.88 -255.23)"/>
        <path class="r" d="M840.37,274.33s0-.07,0-0.15a0.76,0.76,0,0,0,0-.26h0.06a0.8,0.8,0,0,1,0,.28,0.68,0.68,0,0,1-.06.13h0Z" transform="translate(-809.88 -255.23)"/>
        <path class="p" d="M840.09,276.14a11.43,11.43,0,0,1-1.49-1.25c-0.15,0-1.72.23-1.71,0.19a1.52,1.52,0,0,1,.12-0.39,2.89,2.89,0,0,1,.23-0.23l-0.43,0a1.35,1.35,0,0,1-.25.24c-0.07,0-.4.06-0.47,0.1a1.45,1.45,0,0,0-.21.17s0-.16,0-0.2a0.36,0.36,0,0,1,.06-0.13,2.21,2.21,0,0,1-.32,0,0.82,0.82,0,0,0,.12-0.19,0.51,0.51,0,0,1,.23-0.19l0.21-.06-0.18-.08a1.16,1.16,0,0,1,.22-0.09l0.22,0a0.61,0.61,0,0,1-.13-0.2,2.65,2.65,0,0,1-.24.24,2,2,0,0,1-.41.06,0.52,0.52,0,0,0-.25.16,0.66,0.66,0,0,1,0-.21,0.16,0.16,0,0,1,.07-0.09h-0.16a2.5,2.5,0,0,1,.06-0.24l0.09-.16a0.66,0.66,0,0,1-.15-0.14,1.86,1.86,0,0,1-.07-0.2h0.31a1.08,1.08,0,0,1,.27.09,0.55,0.55,0,0,1-.07-0.16,0.35,0.35,0,0,1,0-.14,1.58,1.58,0,0,1,.23.13,0.73,0.73,0,0,0-.15-0.33,2.61,2.61,0,0,1-.56-0.23,3.19,3.19,0,0,1-.21-0.54,0.25,0.25,0,0,0-.12-0.13h0.24l0-.23a0.55,0.55,0,0,1,0-.21,0.42,0.42,0,0,0,.16.17,0.32,0.32,0,0,1,.15.1v-0.1l0.18,0.23a0.57,0.57,0,0,1,0-.19,0.44,0.44,0,0,1,.1-0.06,0.69,0.69,0,0,0,0,.13,1.77,1.77,0,0,1,.1.29s0,0.52,0,.56a3,3,0,0,0,.18.37v-0.34c0-.09-0.1-0.27-0.09-0.34s0-.19,0-0.19a0.86,0.86,0,0,0,.12.17,0.93,0.93,0,0,1,.12.17l0.1-.19A1.33,1.33,0,0,1,836,272a2.4,2.4,0,0,1-.06-0.27,1.26,1.26,0,0,1-.24-0.14,5.19,5.19,0,0,1-.29-0.46h0.09a1,1,0,0,1-.09-0.27c0-.09,0-0.26,0-0.26a0.61,0.61,0,0,1,.1.1,0.31,0.31,0,0,0,.13,0,2.18,2.18,0,0,1-.18-0.54,1.21,1.21,0,0,1,.23-0.46l0.12,0.19,0.24-.34a0.83,0.83,0,0,1,.1.2v0.19l0.18,0a0.31,0.31,0,0,1,.1.06,0.63,0.63,0,0,0-.16.09,1.61,1.61,0,0,1-.13.24,1.75,1.75,0,0,0-.28.19,1.09,1.09,0,0,0-.09.3,1.4,1.4,0,0,1,.16.27c0,0.07,0,.26,0,0.26a0.19,0.19,0,0,0,.13.07,0.16,0.16,0,0,0,.1-0.16c0-.06-0.18-0.2-0.19-0.27s0-.54,0-0.54l0.24,0.13a1,1,0,0,0,.16-0.2,2.6,2.6,0,0,0,.07-0.27l0.1,0.3a0.45,0.45,0,0,1,.15-0.16,2.13,2.13,0,0,0,.22-0.11,1.81,1.81,0,0,0-.06.2,4,4,0,0,1,0,.59,6,6,0,0,1-.44.45,0.78,0.78,0,0,0,0,.24l0.28-.24,0,0.2a0.75,0.75,0,0,1,0,.14,1.17,1.17,0,0,0,.19-0.07,0.17,0.17,0,0,1,.13,0,0.67,0.67,0,0,1-.07.14s-0.13.3-.18,0.34-0.31.14-.34,0.19-0.25.29-.31,0.37a0.57,0.57,0,0,0-.06.26,1.06,1.06,0,0,1,.16-0.31,2.94,2.94,0,0,0,.25-0.26l0,0.22a1.16,1.16,0,0,1,.22-0.13l0.37-.09a1,1,0,0,0-.21.22,0.62,0.62,0,0,1-.1.33c-0.07.06-.43,0.27-0.46,0.29a0.31,0.31,0,0,0-.06.17,0.22,0.22,0,0,0,0,.1,0.58,0.58,0,0,1,.1-0.16,0.26,0.26,0,0,0,0-.19,0.79,0.79,0,0,1,.15.19,2.22,2.22,0,0,1,0,.43,0.64,0.64,0,0,0,0,.29,0.77,0.77,0,0,0,.19.19,2.22,2.22,0,0,1-.15-0.54,1.57,1.57,0,0,1,.18-0.37,0.84,0.84,0,0,0,0-.17,1.11,1.11,0,0,1,.15.22,0.44,0.44,0,0,1,.14-0.13,2.46,2.46,0,0,1,.15.38,1.34,1.34,0,0,1,.17-0.22,0.72,0.72,0,0,1,.12.39,0.53,0.53,0,0,1-.2.3,1,1,0,0,1-.16.09,1.61,1.61,0,0,0,.26.07,0.44,0.44,0,0,1,.15,0l-0.32.1a1.8,1.8,0,0,0,.4,0,0.7,0.7,0,0,0,0-.27,0.68,0.68,0,0,1-.06-0.19,1,1,0,0,0,.19,0,0.24,0.24,0,0,0,.16,0,1.3,1.3,0,0,1-.09-0.26,2.82,2.82,0,0,0,.41.29,2.23,2.23,0,0,1,.16-0.36s0.14,0.26.16,0.31a1.17,1.17,0,0,1,0,.25,0.55,0.55,0,0,1-.11.24,2.79,2.79,0,0,0,.34.43,5.23,5.23,0,0,0,.87.83c0.2,0.12.21,0.12,0.37,0.2Z" transform="translate(-809.88 -255.23)"/>
        <path class="q" d="M840.09,276.16h0a4.87,4.87,0,0,1-1.13-.93,1.71,1.71,0,0,0-.35-0.31c-0.19,0-.64.06-1,0.11l-0.66.08,0,0V275a1.15,1.15,0,0,1,.11-0.33,0.94,0.94,0,0,1,.2-0.19s-0.37,0-.37,0a1,1,0,0,1-.24.24l-0.19,0a1.23,1.23,0,0,0-.28.06,1.76,1.76,0,0,0-.2.17,0.42,0.42,0,0,1-.06-0.21,0.31,0.31,0,0,1,.05-0.12,1,1,0,0,1-.24,0h0a2.12,2.12,0,0,1,.31,0c0,0.06,0,.12,0,0.15s0,0.15,0,.19a0.57,0.57,0,0,1,.18-0.17,1.18,1.18,0,0,1,.29-0.07l0.18,0a1.11,1.11,0,0,0,.24-0.24l0.44,0h0l0,0.07a0.84,0.84,0,0,0-.18.18,1.1,1.1,0,0,0-.1.32,1.78,1.78,0,0,0,.64,0c0.39-.05.82-0.12,1-0.12a1,1,0,0,1,.42.33,4.87,4.87,0,0,0,1.11.92l0.15-.2-0.12,0-0.25-.14a3.39,3.39,0,0,1-.7-0.65L839,274.9a2.94,2.94,0,0,1-.34-0.43,0.87,0.87,0,0,0,.1-0.26,1.26,1.26,0,0,0,0-.25s-0.15-.3-0.15-0.3-0.13.31-.13,0.35a0.38,0.38,0,0,1-.29-0.16l-0.15-.11a1.09,1.09,0,0,1,.11.24v0l-0.08,0H838a0.86,0.86,0,0,1-.18,0s0,0.09.06,0.15a0.74,0.74,0,0,1,0,.28v0H837.8l-0.34,0h0l0,0,0.25-.11-0.11,0a1.65,1.65,0,0,1-.27-0.07,0.34,0.34,0,0,1,.16-0.12,0.53,0.53,0,0,0,.19-0.29,0.74,0.74,0,0,0-.11-0.38c0,0.05-.09.14-0.14,0.22-0.06-.1-0.15-0.34-0.18-0.37a1.22,1.22,0,0,0-.11.13l-0.16-.19a0.39,0.39,0,0,1,0,.14,0.63,0.63,0,0,1-.06.11,0.72,0.72,0,0,0-.12.26,1,1,0,0,0,.11.42,0.18,0.18,0,0,1,0,.13,0.43,0.43,0,0,1-.22-0.19,0.62,0.62,0,0,1,0-.3,2,2,0,0,0,0-.42,0.56,0.56,0,0,0-.12-0.15,0.18,0.18,0,0,1,0,.16,0.48,0.48,0,0,0-.1.15,0.12,0.12,0,0,1-.08-0.11,0.31,0.31,0,0,1,.07-0.19s0.38-.23.45-0.28a0.6,0.6,0,0,0,.1-0.31,0.8,0.8,0,0,1,.21-0.23l-0.35.12a1.07,1.07,0,0,0-.21.13l-0.07-.22a1,1,0,0,1-.22.26,1,1,0,0,0-.16.31,0.29,0.29,0,0,1,0-.27l0.2-.24,0.11-.13a0.66,0.66,0,0,1,.19-0.11l0.15-.08A1.07,1.07,0,0,0,837,272a0.72,0.72,0,0,1,.08-0.15,0.6,0.6,0,0,0,.07-0.14,0.24,0.24,0,0,1-.09,0,1.34,1.34,0,0,1-.21.08,0.42,0.42,0,0,1,0-.16c0-.07,0-0.2,0-0.2l-0.25.25a0.39,0.39,0,0,1,0-.27,5.06,5.06,0,0,0,.44-0.44,2.51,2.51,0,0,0,0-.55,1,1,0,0,1,.05-0.21,0.72,0.72,0,0,1-.19.11,0.38,0.38,0,0,0-.14.15l-0.12-.28a0.81,0.81,0,0,1-.05.24,0.93,0.93,0,0,1-.17.21l-0.26-.12c0,0.12,0,.47,0,0.52a0.53,0.53,0,0,0,.1.15,0.43,0.43,0,0,1,.09.13,0.13,0.13,0,0,1,0,.1,0.16,0.16,0,0,1-.1.08,0.24,0.24,0,0,1-.15-0.08s0-.2,0-0.27a1.26,1.26,0,0,0-.16-0.26,0.9,0.9,0,0,1,.09-0.32,1.43,1.43,0,0,1,.29-0.19,0.33,0.33,0,0,0,.06-0.12,0.42,0.42,0,0,1,.06-0.12,0.62,0.62,0,0,1,.17-0.09,0.37,0.37,0,0,1-.1,0H836.2l0-.21a0.78,0.78,0,0,0-.1-0.19l-0.21.35-0.15-.19a1.78,1.78,0,0,0-.2.45,2.17,2.17,0,0,0,.17.54,0.16,0.16,0,0,1-.16,0l-0.09-.08a1.48,1.48,0,0,1,0,.23,1,1,0,0,0,.09.27l-0.1,0c0.1,0.11.26,0.38,0.31,0.43a1.34,1.34,0,0,0,.23.14s0,0.2.07,0.28a1.32,1.32,0,0,0,.28.28l-0.1.21c-0.07-.07-0.12-0.16-0.14-0.16a0.54,0.54,0,0,1-.11-0.14,0.65,0.65,0,0,1,0,.15,0.48,0.48,0,0,0,0,.17,0.61,0.61,0,0,1,0,.17V273a1.16,1.16,0,0,1-.21-0.37s0-.15,0-0.28,0-.26,0-0.28a2,2,0,0,0-.1-0.28,0.66,0.66,0,0,1,0-.13,0.18,0.18,0,0,1-.07.07,0.52,0.52,0,0,0,0,.18l-0.21-.22,0,0.09a1,1,0,0,0-.16-0.08,0.34,0.34,0,0,1-.17-0.16,1.29,1.29,0,0,0,0,.18l0,0.23-0.21,0a0.18,0.18,0,0,1,.09.11l0,0.09a2.4,2.4,0,0,0,.18.45,0.87,0.87,0,0,0,.35.15l0.21,0.08a0.75,0.75,0,0,1,.15.34c-0.12,0-.23-0.1-0.25-0.11a0.35,0.35,0,0,1,0,.13,0.52,0.52,0,0,0,.07.15c-0.08,0-.22-0.06-0.28-0.06h-0.3a1.06,1.06,0,0,1,.08.17,0.67,0.67,0,0,0,.14.14,0.85,0.85,0,0,1-.08.18,2.17,2.17,0,0,0-.06.24l0.14,0a0.31,0.31,0,0,1-.05.11,0.6,0.6,0,0,0,0,.2,0.34,0.34,0,0,1,.23-0.16,2,2,0,0,0,.41-0.06,0.5,0.5,0,0,0,.17-0.18,0.12,0.12,0,0,1,.07-0.07,0.84,0.84,0,0,0,.15.21,0.53,0.53,0,0,1-.23.08,1.07,1.07,0,0,0-.21.08l0.17,0.05-0.21.09a0.51,0.51,0,0,0-.23.18,0.43,0.43,0,0,0-.06.1,0.19,0.19,0,0,1-.06.09h0a0.27,0.27,0,0,0,.06-0.1,0.51,0.51,0,0,1,.06-0.11,0.54,0.54,0,0,1,.25-0.19l0.21-.06-0.18-.05a0.46,0.46,0,0,1,.23-0.12l0.21,0a0.27,0.27,0,0,1-.14-0.16l0,0a0.52,0.52,0,0,1-.19.2,2.07,2.07,0,0,1-.42.06,0.47,0.47,0,0,0-.24.15,0.33,0.33,0,0,1-.06-0.23,0.18,0.18,0,0,1,.08-0.1l-0.15.05a0.75,0.75,0,0,1,0-.27l0.09-.15a0.39,0.39,0,0,1-.15-0.13,2,2,0,0,1-.07-0.2l0.33,0a0.91,0.91,0,0,1,.24.07,0.23,0.23,0,0,1-.07-0.13l0-.15a0.62,0.62,0,0,1,.27.12,1.45,1.45,0,0,0-.17-0.3l-0.2-.07a0.87,0.87,0,0,1-.37-0.16,2.26,2.26,0,0,1-.18-0.46l0-.09a0.26,0.26,0,0,0-.11-0.12h0l0.2,0-0.06-.21a0.56,0.56,0,0,1,0-.22,0.79,0.79,0,0,0,.18.16,0.32,0.32,0,0,1,.16.11l0-.09,0.2,0.21a0.24,0.24,0,0,1,0-.18,0.46,0.46,0,0,1,.11-0.06,0.85,0.85,0,0,1,.05.14,1.66,1.66,0,0,1,.11.3s0,0.15,0,.28,0,0.26,0,.28a2.71,2.71,0,0,0,.17.36l0-.33a0.58,0.58,0,0,0,0-.16,0.44,0.44,0,0,1,0-.19l0-.19c0.08,0.07.13,0.15,0.14,0.16a0.79,0.79,0,0,1,.13.18l0.07-.19A1.13,1.13,0,0,1,836,272a2.52,2.52,0,0,1-.06-0.27,0.77,0.77,0,0,1-.23-0.13,4.93,4.93,0,0,1-.3-0.46l0.1,0a0.47,0.47,0,0,1-.1-0.26c0-.09,0-0.26,0-0.26h0a0.22,0.22,0,0,1,.14.09l0.12,0a1.3,1.3,0,0,1-.19-0.53,1.18,1.18,0,0,1,.24-0.47l0.15,0.19,0.2-.34a0.42,0.42,0,0,1,.14.21v0.18a0.61,0.61,0,0,1,.16,0,0.3,0.3,0,0,1,.11.06,0.9,0.9,0,0,1-.16.12,0.4,0.4,0,0,0-.06.11,0.24,0.24,0,0,1-.08.14,1.44,1.44,0,0,0-.27.18,1.05,1.05,0,0,0-.08.29h0a1,1,0,0,1,.16.27c0,0.07,0,.26,0,0.26a0.22,0.22,0,0,0,.1.06,0.12,0.12,0,0,0,.08-0.06,0.1,0.1,0,0,0,0-.07,0.54,0.54,0,0,0-.08-0.11A0.48,0.48,0,0,1,836,271a5.32,5.32,0,0,1,0-.55l0.26,0.12s0.11-.13.14-0.19a2.61,2.61,0,0,0,.07-0.27h0v0l0.12,0.26a0.25,0.25,0,0,1,.13-0.15l0.22-.11a1.26,1.26,0,0,1,0,.21,2.84,2.84,0,0,1,0,.6,4.75,4.75,0,0,1-.42.42,0.43,0.43,0,0,0-.05.26l0.25-.26a0.48,0.48,0,0,1,.07.21,0.78,0.78,0,0,1,0,.15,0.7,0.7,0,0,1,.16-0.09,0.23,0.23,0,0,1,.15,0,0.36,0.36,0,0,1-.07.17,0.92,0.92,0,0,0-.07.14,0.88,0.88,0,0,1-.11.2l-0.16.09a0.81,0.81,0,0,0-.17.09l-0.11.13-0.2.24a0.4,0.4,0,0,0,0,.15,0.58,0.58,0,0,1,.13-0.23,2.69,2.69,0,0,0,.25-0.26l0.07,0.22a0.48,0.48,0,0,1,.2-0.14l0.37-.09c-0.08.11-.18,0.21-0.18,0.23a0.62,0.62,0,0,1-.11.34l-0.33.21a0.37,0.37,0,0,1,.16.17,2.25,2.25,0,0,1,0,.38,0.07,0.07,0,0,1,0,0,0.75,0.75,0,0,1,.12-0.27,0.5,0.5,0,0,0,.06-0.1,0.94,0.94,0,0,0,0-.17,0.43,0.43,0,0,1,.19.21,0.2,0.2,0,0,1,.12-0.14,1.43,1.43,0,0,1,.17.38,0.49,0.49,0,0,1,.14-0.22,0.61,0.61,0,0,1,.15.41,0.54,0.54,0,0,1-.2.31l-0.17.09a1.17,1.17,0,0,1,.26,0,0.43,0.43,0,0,1,.15,0h0l-0.25.11h0.29a0.32,0.32,0,0,0,0-.26,0.86,0.86,0,0,1-.06-0.19,0.79,0.79,0,0,1,.21,0h0.1s0-.06,0-0.09a0.27,0.27,0,0,1-.05-0.17,0.25,0.25,0,0,1,.19.11,1.43,1.43,0,0,0,.24.17,1.43,1.43,0,0,1,.15-0.36,1.16,1.16,0,0,1,.19.31,1.23,1.23,0,0,1,0,.26,0.6,0.6,0,0,1-.11.26h0a4.6,4.6,0,0,0,.33.4l0.17,0.18a3.3,3.3,0,0,0,.69.65l0.25,0.14,0.12,0.06-0.17.25h0Zm-3.32-2.42a0.27,0.27,0,0,1,0,0,0.68,0.68,0,0,0,0,.27,1.23,1.23,0,0,0,.16.17,0.41,0.41,0,0,1,0-.08,1.27,1.27,0,0,1-.12-0.41h0Zm-0.2-.55-0.11.06a0.32,0.32,0,0,0,0,.16,0.17,0.17,0,0,0,0,.07,0.32,0.32,0,0,1,.09-0.15,0.21,0.21,0,0,0,0-.15h0Z" transform="translate(-809.88 -255.23)"/>
        <path class="q" d="M835.41,273.88l0,0a0.3,0.3,0,0,1,.22-0.1l0.1,0,0.25-.13a0.48,0.48,0,0,1-.23.16l-0.11,0a0.27,0.27,0,0,0-.19.08h0Z" transform="translate(-809.88 -255.23)"/>
        <path class="q" d="M835.55,274a0.84,0.84,0,0,1,.25-0.12,0.62,0.62,0,0,0,.12-0.13,1.26,1.26,0,0,1,.28-0.29l0,0a1.2,1.2,0,0,0-.27.29,0.61,0.61,0,0,1-.12.14,1.82,1.82,0,0,1-.27.09h0Z" transform="translate(-809.88 -255.23)"/>
        <path class="q" d="M835.59,274v0a0.76,0.76,0,0,0,.3-0.07,1.57,1.57,0,0,1,.16-0.13,0.35,0.35,0,0,1-.14.16,0.79,0.79,0,0,1-.32.08h0Z" transform="translate(-809.88 -255.23)"/>
        <path class="a" d="M836.63,273.43v0Z" transform="translate(-809.88 -255.23)"/>
        <path class="q" d="M835.86,274.56v0a3.64,3.64,0,0,0,.57-0.11,1.46,1.46,0,0,1-.56.15h0Z" transform="translate(-809.88 -255.23)"/>
        <path class="q" d="M836.11,274.72h0v0a0.87,0.87,0,0,0,.56-0.28,0.68,0.68,0,0,1-.54.32h0Z" transform="translate(-809.88 -255.23)"/>
        <path class="q" d="M836.78,274.4a1.28,1.28,0,0,1-.6-0.11l0,0a2.47,2.47,0,0,0,1.17.07,1.69,1.69,0,0,1-.59.08h0Z" transform="translate(-809.88 -255.23)"/>
        <path class="q" d="M837.09,274.19s0-.09,0-0.58h0a0.82,0.82,0,0,1-.08.58h0Z" transform="translate(-809.88 -255.23)"/>
        <path class="a" d="M837,273.92a1.4,1.4,0,0,1,0-.21Z" transform="translate(-809.88 -255.23)"/>
        <path class="a" d="M837,273.42s0,0.2,0,.2Z" transform="translate(-809.88 -255.23)"/>
        <path class="q" d="M837.31,274.08l0,0a0.66,0.66,0,0,0,.07-0.26,0.27,0.27,0,0,1,0,.28h0Z" transform="translate(-809.88 -255.23)"/>
        <path class="a" d="M837.28,273.73v0Z" transform="translate(-809.88 -255.23)"/>
        <path class="a" d="M837.53,273.83a0.22,0.22,0,0,1-.09.14Z" transform="translate(-809.88 -255.23)"/>
        <path class="q" d="M838.27,274.36s-0.31-.25-0.47-0.33l0,0a2.56,2.56,0,0,1,.46.36h0Z" transform="translate(-809.88 -255.23)"/>
        <path class="q" d="M838.44,274.26s-0.16-.17-0.3-0.25l0,0a1.12,1.12,0,0,1,.29.28h0Z" transform="translate(-809.88 -255.23)"/>
        <path class="q" d="M838.5,274.51a0.52,0.52,0,0,0-.07-0.44l0,0a0.41,0.41,0,0,1,0,.47h0Z" transform="translate(-809.88 -255.23)"/>
        <path class="a" d="M838.65,273.89l0,0.34Z" transform="translate(-809.88 -255.23)"/>
        <path class="q" d="M835.47,272.59a0.41,0.41,0,0,1-.17-0.14,0.27,0.27,0,0,1,0-.13,0.18,0.18,0,0,0,0-.08,0.45,0.45,0,0,0-.29-0.24v0a0.44,0.44,0,0,1,.28.22,0.29,0.29,0,0,1,.06.13,0.21,0.21,0,0,0,0,.11,1.34,1.34,0,0,0,.16.16h0Z" transform="translate(-809.88 -255.23)"/>
        <path class="q" d="M835.79,272.82a0.53,0.53,0,0,1-.13-0.17h0l-0.11-.05a0.4,0.4,0,0,1-.12-0.19l0-.07v-0.07a0.25,0.25,0,0,0-.27-0.29v0a0.28,0.28,0,0,1,.31.33,0.5,0.5,0,0,0,0,.13,0.46,0.46,0,0,0,.1.17,0.16,0.16,0,0,1,.12.06,1.32,1.32,0,0,1,.11.19h0Z" transform="translate(-809.88 -255.23)"/>
        <path class="q" d="M835.29,272a1.71,1.71,0,0,0-.09-0.18,0.47,0.47,0,0,0-.11-0.11l0,0a0.51,0.51,0,0,1,.12.12,0.21,0.21,0,0,1,.06.2h0Z" transform="translate(-809.88 -255.23)"/>
        <path class="q" d="M835.57,272.24a0.41,0.41,0,0,1-.09-0.43h0a0.56,0.56,0,0,0,.06.41h0Z" transform="translate(-809.88 -255.23)"/>
        <path class="q" d="M835.68,272.29a0.46,0.46,0,0,0-.07-0.38l0,0a0.34,0.34,0,0,1,0,.41h0Z" transform="translate(-809.88 -255.23)"/>
        <path class="a" d="M835.65,272.41l0,0.22Z" transform="translate(-809.88 -255.23)"/>
        <path class="a" d="M836.12,271.78a0.29,0.29,0,0,1,.13.21Z" transform="translate(-809.88 -255.23)"/>
        <path class="q" d="M836.34,273s0,0,0-.13a2.4,2.4,0,0,0,.17-0.38h0a2.31,2.31,0,0,1-.18.39,0.5,0.5,0,0,0-.07.11h0Z" transform="translate(-809.88 -255.23)"/>
        <path class="q" d="M836.31,273.28h0a0.56,0.56,0,0,1,.29-0.41,1.09,1.09,0,0,0-.26.42h0Z" transform="translate(-809.88 -255.23)"/>
        <path class="q" d="M836.48,273v0a1.35,1.35,0,0,0,.54-0.48,1,1,0,0,1-.52.52h0Z" transform="translate(-809.88 -255.23)"/>
        <path class="q" d="M835.44,273.66l0,0a0.58,0.58,0,0,1,.36-0.12,0.26,0.26,0,0,0,.11,0,0.4,0.4,0,0,0,.21-0.13s0,0.13-.2.17a0.36,0.36,0,0,1-.12,0,0.53,0.53,0,0,0-.34.12h0Z" transform="translate(-809.88 -255.23)"/>
        <path class="q" d="M835.76,273.46a1.49,1.49,0,0,0-.51-0.1v0a1,1,0,0,1,.53.13h0Z" transform="translate(-809.88 -255.23)"/>
        <path class="q" d="M836,273.37a0.55,0.55,0,0,0-.34-0.22v0a0.38,0.38,0,0,1,.34.26h0Z" transform="translate(-809.88 -255.23)"/>
        <path class="q" d="M836.59,274.23a1.3,1.3,0,0,0-.54,0v0c0.49,0,.54,0,0.55.06h0Z" transform="translate(-809.88 -255.23)"/>
        <path class="a" d="M836.44,273.76c0-.19,0-0.23,0-0.23Z" transform="translate(-809.88 -255.23)"/>
        <path class="q" d="M836.32,272.59l0,0a3.08,3.08,0,0,1,.46-0.62s-0.21.26-.43,0.64h0Z" transform="translate(-809.88 -255.23)"/>
        <path class="q" d="M836.75,272.12l0,0a2.74,2.74,0,0,0,.35-0.43,1.22,1.22,0,0,1-.33.46h0Z" transform="translate(-809.88 -255.23)"/>
        <path class="q" d="M836.38,272.1c0-.17,0-0.29,0-0.37a0.49,0.49,0,0,1,0-.35,1,1,0,0,1,.19-0.22,0.5,0.5,0,0,0,.12-0.13,1.12,1.12,0,0,0,.1-0.4,0.54,0.54,0,0,1,.15-0.33,1.85,1.85,0,0,0-.11.33,0.91,0.91,0,0,1-.08.35,0.47,0.47,0,0,1-.15.21,1,1,0,0,0-.19.21,0.45,0.45,0,0,0,0,.33c0,0.09,0,.21,0,0.38h0Z" transform="translate(-809.88 -255.23)"/>
        <path class="q" d="M836.38,271.79a0.8,0.8,0,0,1-.1-0.46,0.36,0.36,0,0,1,.1-0.12,0.76,0.76,0,0,0,.26-0.77h0a0.79,0.79,0,0,1-.27.81,0.35,0.35,0,0,0-.08.11,1.62,1.62,0,0,0,.06.45h0Z" transform="translate(-809.88 -255.23)"/>
        <path class="q" d="M835.93,271.51s-0.24-.19-0.49-0.36l0,0a4.71,4.71,0,0,1,.47.39h0Z" transform="translate(-809.88 -255.23)"/>
        <path class="q" d="M836,271.34a1,1,0,0,1-.2-0.06l-0.14-.06-0.11,0v0a0.34,0.34,0,0,1,.13.05l0.13,0.06,0.21,0.09h0Z" transform="translate(-809.88 -255.23)"/>
        <path class="q" d="M835.86,271.2a0.69,0.69,0,0,1-.08-0.15,0.44,0.44,0,0,0-.09-0.09,0.56,0.56,0,0,1-.23-0.32h0a0.53,0.53,0,0,0,.22.3l0.1,0.09a0.25,0.25,0,0,1,0,.17h0Z" transform="translate(-809.88 -255.23)"/>
        <path class="a" d="M836.31,273.83v0Z" transform="translate(-809.88 -255.23)"/>
        <path class="q" d="M836.26,271.12a3.33,3.33,0,0,1,0-.54,3.24,3.24,0,0,1,0,.53h0Z" transform="translate(-809.88 -255.23)"/>
        <path class="q" d="M836.43,271s0.08-.26.08-0.54h0a1.34,1.34,0,0,1-.12.54h0Z" transform="translate(-809.88 -255.23)"/>
        <path class="q" d="M836.26,271a0.75,0.75,0,0,1-.07-0.23l0-.09a0.39,0.39,0,0,0-.05-0.14s0.06,0,.09.13l0,0.09a0.79,0.79,0,0,0,.07.22h0Z" transform="translate(-809.88 -255.23)"/>
        <path class="q" d="M835.83,270.72h0a1,1,0,0,1,.1-0.45,0.21,0.21,0,0,0,0-.14,1.46,1.46,0,0,0-.06-0.2s0.06,0.06.09,0.19a0.23,0.23,0,0,1,0,.16,1,1,0,0,0-.1.43h0Z" transform="translate(-809.88 -255.23)"/>
        <path class="q" d="M836,270.21a0.43,0.43,0,0,1,.26-0.29l0,0a0.78,0.78,0,0,0-.27.25h0Z" transform="translate(-809.88 -255.23)"/>
        <path class="q" d="M835.9,270.52h0a1.1,1.1,0,0,1,.27-0.41,0.27,0.27,0,0,1,.22,0s-0.12,0-.2.08a1,1,0,0,0-.26.39h0Z" transform="translate(-809.88 -255.23)"/>
        <path class="a" d="M835.73,269.94a0.65,0.65,0,0,0,0,.27Z" transform="translate(-809.88 -255.23)"/>
        <path class="q" d="M835.94,270.1l0,0a1.32,1.32,0,0,0,.14-0.47,0.7,0.7,0,0,1-.11.49h0Z" transform="translate(-809.88 -255.23)"/>
        <path class="q" d="M836.56,272.11h0a2.4,2.4,0,0,1,.21-0.67s-0.14.38-.17,0.67h0Z" transform="translate(-809.88 -255.23)"/>
        <path class="s" d="M835.81,270.69a0.1,0.1,0,0,0-.09-0.11,0.11,0.11,0,0,0,0,.21,0.1,0.1,0,0,0,.09-0.11h0Z" transform="translate(-809.88 -255.23)"/>
        <path class="q" d="M835.72,270.81a0.12,0.12,0,0,1-.11-0.13,0.11,0.11,0,0,1,.22,0,0.12,0.12,0,0,1-.11.13h0Z" transform="translate(-809.88 -255.23)"/>
        <path class="s" d="M836,270.84a0.1,0.1,0,0,0-.09-0.11,0.11,0.11,0,0,0,0,.21,0.1,0.1,0,0,0,.09-0.11h0Z" transform="translate(-809.88 -255.23)"/>
        <path class="q" d="M835.88,271a0.12,0.12,0,0,1-.11-0.13,0.11,0.11,0,0,1,.22,0,0.12,0.12,0,0,1-.11.13h0Z" transform="translate(-809.88 -255.23)"/>
        <path class="s" d="M836.32,271.6a0.09,0.09,0,1,0-.09.11,0.1,0.1,0,0,0,.09-0.11h0Z" transform="translate(-809.88 -255.23)"/>
        <path class="q" d="M836.23,271.73a0.12,0.12,0,0,1-.11-0.12,0.11,0.11,0,0,1,.22,0,0.12,0.12,0,0,1-.11.13h0Z" transform="translate(-809.88 -255.23)"/>
        <path class="s" d="M836.51,271.71a0.09,0.09,0,1,0-.19,0,0.09,0.09,0,1,0,.19,0h0Z" transform="translate(-809.88 -255.23)"/>
        <path class="q" d="M836.42,271.84a0.12,0.12,0,0,1-.11-0.12,0.11,0.11,0,0,1,.23,0,0.12,0.12,0,0,1-.11.13h0Z" transform="translate(-809.88 -255.23)"/>
        <path class="s" d="M835.82,272.83a0.1,0.1,0,1,0-.09.11,0.1,0.1,0,0,0,.09-0.11h0Z" transform="translate(-809.88 -255.23)"/>
        <path class="q" d="M835.73,273a0.12,0.12,0,0,1-.11-0.13,0.11,0.11,0,0,1,.22,0,0.12,0.12,0,0,1-.11.13h0Z" transform="translate(-809.88 -255.23)"/>
        <path class="s" d="M836.28,273.06a0.1,0.1,0,0,0-.09-0.11,0.1,0.1,0,0,0-.09.11,0.1,0.1,0,0,0,.09.11,0.1,0.1,0,0,0,.09-0.11h0Z" transform="translate(-809.88 -255.23)"/>
        <path class="q" d="M836.19,273.18a0.12,0.12,0,0,1-.11-0.12,0.11,0.11,0,0,1,.22,0,0.12,0.12,0,0,1-.11.13h0Z" transform="translate(-809.88 -255.23)"/>
        <path class="s" d="M836.55,274a0.09,0.09,0,1,0-.09.11,0.1,0.1,0,0,0,.09-0.11h0Z" transform="translate(-809.88 -255.23)"/>
        <path class="q" d="M836.46,274.1a0.12,0.12,0,0,1-.11-0.12,0.11,0.11,0,0,1,.23,0,0.12,0.12,0,0,1-.11.13h0Z" transform="translate(-809.88 -255.23)"/>
        <path class="s" d="M837,274.23a0.09,0.09,0,1,0-.19,0,0.09,0.09,0,1,0,.19,0h0Z" transform="translate(-809.88 -255.23)"/>
        <path class="q" d="M836.95,274.35a0.12,0.12,0,0,1-.11-0.12,0.11,0.11,0,0,1,.22,0,0.12,0.12,0,0,1-.11.13h0Z" transform="translate(-809.88 -255.23)"/>
        <path class="s" d="M837.29,274.22a0.1,0.1,0,1,0-.19,0,0.1,0.1,0,1,0,.19,0h0Z" transform="translate(-809.88 -255.23)"/>
        <path class="q" d="M837.2,274.34a0.12,0.12,0,0,1-.11-0.12,0.11,0.11,0,0,1,.22,0,0.12,0.12,0,0,1-.11.13h0Z" transform="translate(-809.88 -255.23)"/>
        <path class="s" d="M838.06,274.39a0.09,0.09,0,1,0-.19,0,0.09,0.09,0,1,0,.19,0h0Z" transform="translate(-809.88 -255.23)"/>
        <path class="q" d="M838,274.51a0.12,0.12,0,0,1-.11-0.12,0.11,0.11,0,0,1,.22,0,0.12,0.12,0,0,1-.11.13h0Z" transform="translate(-809.88 -255.23)"/>
        <path class="a" d="M843.51,275.86a0.43,0.43,0,0,0-.2-0.21Z" transform="translate(-809.88 -255.23)"/>
        <path class="a" d="M843.47,275.93a0.43,0.43,0,0,0-.2-0.21Z" transform="translate(-809.88 -255.23)"/>
        <path class="a" d="M843.41,276a0.44,0.44,0,0,0-.2-0.21Z" transform="translate(-809.88 -255.23)"/>
        <path class="a" d="M843.37,276.05a0.44,0.44,0,0,0-.2-0.21Z" transform="translate(-809.88 -255.23)"/>
        <path class="a" d="M843.31,276.1a0.42,0.42,0,0,0-.2-0.21Z" transform="translate(-809.88 -255.23)"/>
        <path class="a" d="M843.27,276.17a0.45,0.45,0,0,0-.2-0.21Z" transform="translate(-809.88 -255.23)"/>
        <path class="a" d="M843.21,276.22A0.42,0.42,0,0,0,843,276Z" transform="translate(-809.88 -255.23)"/>
        <path class="a" d="M843.18,276.28a0.44,0.44,0,0,0-.2-0.21Z" transform="translate(-809.88 -255.23)"/>
        <path class="a" d="M843.13,276.33a0.44,0.44,0,0,0-.2-0.21Z" transform="translate(-809.88 -255.23)"/>
        <g class="t">
          <path class="e" d="M843.38,275.7a1,1,0,0,0-.8-0.2,0.48,0.48,0,0,0-.44-0.13,0.65,0.65,0,0,0-.23.42,0.29,0.29,0,0,0,.29.16l0.52,0a0.54,0.54,0,0,1,.24.17,2.56,2.56,0,0,1,.42-0.44h0Z" transform="translate(-809.88 -255.23)"/>
        </g>
        <path d="M843,276.19l0,0a0.49,0.49,0,0,0-.22-0.16H842.2a0.32,0.32,0,0,1-.31-0.19,0.67,0.67,0,0,1,.25-0.44,0.52,0.52,0,0,1,.47.13h0.21a0.78,0.78,0,0,1,.58.21,5.51,5.51,0,0,0-.42.48l0,0h0Zm-0.71-.81-0.09,0a0.62,0.62,0,0,0-.21.39,0.28,0.28,0,0,0,.26.13h0.52a0.48,0.48,0,0,1,.23.16,2.38,2.38,0,0,1,.41-0.42,0.94,0.94,0,0,0-.55-0.15h-0.26a0.53,0.53,0,0,0-.32-0.14h0Z" transform="translate(-809.88 -255.23)"/>
        <g class="u">
          <path class="e" d="M842.55,275.68a0.17,0.17,0,0,0-.19-0.2,6.54,6.54,0,0,1-.8.25,0.53,0.53,0,0,1-.45-0.27,0.87,0.87,0,0,1,.41-0.25l0.29,0.09a1.87,1.87,0,0,1,.58-0.17,0.29,0.29,0,0,1,.34.24,0.81,0.81,0,0,1-.18.32h0Z" transform="translate(-809.88 -255.23)"/>
        </g>
        <path d="M841.56,275.76a0.63,0.63,0,0,1-.3-0.1,0.32,0.32,0,0,1-.17-0.2,0.72,0.72,0,0,1,.43-0.28l0.3,0.09a1.54,1.54,0,0,1,.57-0.18,0.41,0.41,0,0,1,.31.12,0.2,0.2,0,0,1,.06.15,0.68,0.68,0,0,1-.21.34,0.21,0.21,0,0,0-.16-0.21l-0.26.09a2.86,2.86,0,0,1-.56.17h0Zm0-.52a0.81,0.81,0,0,0-.37.22,0.27,0.27,0,0,0,.14.15,0.56,0.56,0,0,0,.27.09v0a2.63,2.63,0,0,0,.54-0.16l0.25-.08a0.2,0.2,0,0,1,.22.21c0-.07.11-0.22,0.12-0.3a0.14,0.14,0,0,0,0-.11,0.34,0.34,0,0,0-.26-0.1,1.9,1.9,0,0,0-.57.17l-0.31-.08h0Z" transform="translate(-809.88 -255.23)"/>
        <path d="M842.38,275.8h0l-0.25,0a0.13,0.13,0,0,0-.15,0,0.08,0.08,0,0,1,.08-0.12l0.09,0,0.24,0c0.18,0,.19-0.09.2-0.12h0.06a0.19,0.19,0,0,1-.23.17h0Z" transform="translate(-809.88 -255.23)"/>
        <path d="M835.22,275.88l0,0a0.47,0.47,0,0,1,.21-0.22,0.61,0.61,0,0,1-.16.25h0Z" transform="translate(-809.88 -255.23)"/>
        <path d="M835.26,275.94l-0.05,0a0.45,0.45,0,0,1,.21-0.22,0.65,0.65,0,0,1-.16.25h0Z" transform="translate(-809.88 -255.23)"/>
        <path d="M835.32,276l-0.05,0a0.42,0.42,0,0,1,.22-0.22,0.7,0.7,0,0,1-.17.25h0Z" transform="translate(-809.88 -255.23)"/>
        <path d="M835.36,276.07l-0.05,0a0.45,0.45,0,0,1,.21-0.22,0.65,0.65,0,0,1-.16.25h0Z" transform="translate(-809.88 -255.23)"/>
        <path d="M835.42,276.12l-0.05,0a0.47,0.47,0,0,1,.22-0.22,0.68,0.68,0,0,1-.17.26h0Z" transform="translate(-809.88 -255.23)"/>
        <path d="M835.46,276.18l-0.05,0a0.47,0.47,0,0,1,.21-0.23,0.71,0.71,0,0,1-.16.26h0Z" transform="translate(-809.88 -255.23)"/>
        <path d="M835.52,276.23l-0.05,0a0.47,0.47,0,0,1,.21-0.22,0.67,0.67,0,0,1-.16.25h0Z" transform="translate(-809.88 -255.23)"/>
        <path d="M835.56,276.3l-0.05,0a0.44,0.44,0,0,1,.21-0.22,0.68,0.68,0,0,1-.16.25h0Z" transform="translate(-809.88 -255.23)"/>
        <path d="M835.61,276.35l-0.05,0a0.44,0.44,0,0,1,.22-0.22,0.71,0.71,0,0,1-.16.25h0Z" transform="translate(-809.88 -255.23)"/>
        <g class="v">
          <path class="e" d="M835.33,275.7a1,1,0,0,1,.8-0.2,0.48,0.48,0,0,1,.44-0.13,0.65,0.65,0,0,1,.23.42,0.29,0.29,0,0,1-.29.16L836,276a0.54,0.54,0,0,0-.24.17,2.56,2.56,0,0,0-.42-0.44h0Z" transform="translate(-809.88 -255.23)"/>
        </g>
        <path d="M835.75,276.19l0,0a2.65,2.65,0,0,0-.42-0.43,0.67,0.67,0,0,1,.58-0.26h0.18a0.66,0.66,0,0,1,.51-0.13,0.67,0.67,0,0,1,.25.44,0.32,0.32,0,0,1-.31.19H836a0.49,0.49,0,0,0-.22.16l0,0h0Zm0.14-.66a0.73,0.73,0,0,0-.54.19,1.45,1.45,0,0,1,.4.38,0.48,0.48,0,0,1,.23-0.16h0.52a0.28,0.28,0,0,0,.26-0.13,0.62,0.62,0,0,0-.21-0.39,0.47,0.47,0,0,0-.4.12h-0.26Z" transform="translate(-809.88 -255.23)"/>
        <g class="w">
          <path class="e" d="M836.15,275.68a0.17,0.17,0,0,1,.19-0.2,6.54,6.54,0,0,0,.8.25,0.53,0.53,0,0,0,.45-0.27,0.87,0.87,0,0,0-.41-0.25l-0.29.09a1.87,1.87,0,0,0-.58-0.17,0.29,0.29,0,0,0-.33.24,0.81,0.81,0,0,0,.18.32h0Z" transform="translate(-809.88 -255.23)"/>
        </g>
        <path d="M837.15,275.76h0a2.81,2.81,0,0,1-.56-0.17l-0.24-.08a0.16,0.16,0,0,0-.15.17,0.44,0.44,0,0,1-.24-0.31,0.21,0.21,0,0,1,.06-0.15,0.41,0.41,0,0,1,.3-0.12,1.88,1.88,0,0,1,.59.18l0.27-.09a0.73,0.73,0,0,1,.45.28,0.55,0.55,0,0,1-.47.3h0Zm-0.84-.31a1.82,1.82,0,0,1,.29.09,2.63,2.63,0,0,0,.54.16v0a0.52,0.52,0,0,0,.41-0.24,0.8,0.8,0,0,0-.39-0.22l-0.27.09a2.19,2.19,0,0,0-.59-0.17,0.35,0.35,0,0,0-.26.1,0.14,0.14,0,0,0,0,.11,0.92,0.92,0,0,0,.16.3,0.15,0.15,0,0,1,.14-0.21h0Z" transform="translate(-809.88 -255.23)"/>
        <path d="M836.33,275.8a0.19,0.19,0,0,1-.23-0.17h0.06c0,0.09.08,0.13,0.2,0.12l0.24,0,0.09,0a0.23,0.23,0,0,1,.12.08,0.21,0.21,0,0,1-.12,0h-0.08l-0.25,0h0Z" transform="translate(-809.88 -255.23)"/>
        <g class="x">
          <path class="e" d="M839.39,274.49c-1.93,0-2.72.32-2.73,0.59a0.48,0.48,0,0,0,.36.48,0.67,0.67,0,0,0,.44-0.23c-0.05,0-.06-0.07,0-0.08a8.51,8.51,0,0,1,2-.16,6.76,6.76,0,0,1,1.92.16,0.41,0.41,0,0,1-.15.15,1,1,0,0,1,.47.15,0.46,0.46,0,0,0,.38-0.44c0-.28-0.81-0.57-2.63-0.61h0Z" transform="translate(-809.88 -255.23)"/>
        </g>
        <path d="M837,275.59a0.37,0.37,0,0,1-.24-0.13,0.53,0.53,0,0,1-.16-0.38c0-.3.78-0.63,2.45-0.63h0.31a4.86,4.86,0,0,1,2.59.49,0.22,0.22,0,0,1,.07.16,0.5,0.5,0,0,1-.4.47h0a0.3,0.3,0,0,1-.16-0.06,0.43,0.43,0,0,0-.26-0.09h-0.07v0l0.09-.07a0.14,0.14,0,0,0,.05,0,12.33,12.33,0,0,0-3.84,0l0,0v0.1a0.87,0.87,0,0,1-.45.21h0Zm2.06-1.08c-1.73,0-2.38.35-2.39,0.57a0.47,0.47,0,0,0,.14.34,0.32,0.32,0,0,0,.2.11,0.73,0.73,0,0,0,.41-0.2,0.05,0.05,0,0,1,0-.06,5.51,5.51,0,0,1,2-.22,5.72,5.72,0,0,1,1.95.19,0.11,0.11,0,0,1-.08.11l-0.08.06a0.35,0.35,0,0,1,.33,0,0.26,0.26,0,0,0,.12.05h0a0.44,0.44,0,0,0,.35-0.41,0.17,0.17,0,0,0-.05-0.11c-0.09-.1-0.55-0.43-2.55-0.47h-0.3Z" transform="translate(-809.88 -255.23)"/>
        <polygon class="m" points="27.42 19.91 27.32 19.61 27.5 19.55 27.51 19.58 27.36 19.63 27.4 19.72 27.53 19.68 27.55 19.71 27.41 19.76 27.45 19.86 27.6 19.81 27.61 19.85 27.42 19.91"/>
        <path class="m" d="M837.92,274.69h0l0,0.19a0.33,0.33,0,0,1,0,.08,0.12,0.12,0,0,1,0,.05l-0.07,0h-0.07l0,0a0.32,0.32,0,0,1,0-.08l0-.19h0l0,0.19a0.21,0.21,0,0,0,0,.06l0,0h0a0.07,0.07,0,0,0,.06,0,0.14,0.14,0,0,0,0-.09Z" transform="translate(-809.88 -255.23)"/>
        <polygon class="m" points="28.43 19.74 28.43 19.43 28.46 19.43 28.46 19.7 28.59 19.7 28.59 19.74 28.43 19.74"/>
        <rect class="m" x="28.66" y="19.41" width="0.04" height="0.33"/>
        <path class="m" d="M838.83,274.86h0a0.16,0.16,0,0,1,0,.08,0.08,0.08,0,0,1-.06,0l-0.06,0a0.13,0.13,0,0,1,0-.06,0.28,0.28,0,0,1,0-.09,0.27,0.27,0,0,1,0-.09,0.13,0.13,0,0,1,0-.06l0.06,0a0.07,0.07,0,0,1,.06,0,0.16,0.16,0,0,1,0,.07h0a0.11,0.11,0,0,0,0-.05l0,0,0,0a0.08,0.08,0,0,0,0,.05,0.24,0.24,0,0,0,0,.06,0.23,0.23,0,0,0,0,.08,0.08,0.08,0,0,0,0,0l0,0,0,0a0.11,0.11,0,0,0,0-.06h0Z" transform="translate(-809.88 -255.23)"/>
        <path class="m" d="M839.9,275v-0.31H840l0.07,0.22v0l0-.05,0.07-.21h0.05V275h0v-0.26l-0.08.26h0l-0.08-.26V275h0Z" transform="translate(-809.88 -255.23)"/>
        <rect class="m" x="30.35" y="19.43" width="0.04" height="0.32"/>
        <polygon class="m" points="30.46 19.75 30.46 19.44 30.49 19.44 30.62 19.69 30.62 19.44 30.65 19.44 30.65 19.75 30.61 19.75 30.49 19.51 30.49 19.75 30.46 19.75"/>
        <rect class="m" x="30.74" y="19.45" width="0.04" height="0.3"/>
        <path class="m" d="M840.89,274.92h0a0.19,0.19,0,0,1,0,.08,0.1,0.1,0,0,1-.07,0l-0.06,0a0.13,0.13,0,0,1,0-.07,0.24,0.24,0,0,1,0-.09,0.29,0.29,0,0,1,0-.09,0.14,0.14,0,0,1,.05-0.05h0.06a0.08,0.08,0,0,1,.06,0,0.15,0.15,0,0,1,0,.08h0a0.1,0.1,0,0,0,0-.06l0,0h-0.05l0,0,0,0.06a0.32,0.32,0,0,0,0,.08,0.08,0.08,0,0,0,0,0l0,0,0.05,0a0.13,0.13,0,0,0,0-.06h0Z" transform="translate(-809.88 -255.23)"/>
        <polygon class="m" points="31.33 19.88 31.4 19.55 31.44 19.55 31.52 19.84 31.57 19.58 31.61 19.59 31.54 19.92 31.5 19.92 31.42 19.63 31.36 19.89 31.33 19.88"/>
        <path class="m" d="M837.05,275.25l-0.13-.31,0.11,0h0.05l0,0,0,0a0.09,0.09,0,0,1,0,.06,0.08,0.08,0,0,1,0,.05h0l0,0,0.08,0.06,0,0-0.06-.05,0,0h-0.06l0,0,0.06,0.14h0Zm0-.19,0.07,0,0,0v0a0.05,0.05,0,0,0,0,0,0,0,0,0,0,0,0h0L837,275Z" transform="translate(-809.88 -255.23)"/>
        <path class="m" d="M837.55,275.07l-0.07-.32,0.1,0h0.08l0,0,0,0a0.11,0.11,0,0,1,0,.07,0.09,0.09,0,0,1-.07,0h-0.07l0,0.13h0Zm0-.18h0.07l0,0a0.06,0.06,0,0,0,0,0l0,0h-0.13Z" transform="translate(-809.88 -255.23)"/>
        <path class="m" d="M838.05,275l0-.32h0.14l0,0a0.13,0.13,0,0,1,0,0,0.09,0.09,0,0,1,0,0l0,0,0,0a0.1,0.1,0,0,1,0,0,0.1,0.1,0,0,1,0,0l0,0,0,0h-0.14Zm0-.19h0.09l0,0a0,0,0,0,0,0,0,0.06,0.06,0,0,0,0,0l0,0h-0.09v0.1Zm0,0.15h0.1v0a0.07,0.07,0,0,0,0,0v0l0,0h-0.1V275Z" transform="translate(-809.88 -255.23)"/>
        <path class="m" d="M838.9,275l0.1-.34h0l0.11,0.34h0l0-.1H839l0,0.1h0Zm0.08-.14h0.09l0-.09,0-.07v0.06Z" transform="translate(-809.88 -255.23)"/>
        <path class="m" d="M839.35,275v-0.33h0.14l0,0,0,0.06a0.3,0.3,0,0,1,0,.08,0.23,0.23,0,0,1,0,.07l0,0,0,0,0,0h-0.14Zm0,0h0.1l0,0,0,0a0.3,0.3,0,0,0,0-.06,0.17,0.17,0,0,0,0-.08,0.06,0.06,0,0,0,0,0h-0.1v0.25Z" transform="translate(-809.88 -255.23)"/>
        <path class="m" d="M839.62,274.81a0.25,0.25,0,0,1,0-.13,0.1,0.1,0,0,1,.08,0l0.06,0a0.15,0.15,0,0,1,0,.06,0.32,0.32,0,0,1,0,.09,0.27,0.27,0,0,1,0,.09,0.13,0.13,0,0,1,0,.06l-0.06,0-0.06,0a0.13,0.13,0,0,1,0-.06,0.24,0.24,0,0,1,0-.08h0Zm0,0a0.17,0.17,0,0,0,0,.1,0.07,0.07,0,0,0,.06,0,0.07,0.07,0,0,0,.06,0,0.18,0.18,0,0,0,0-.1,0.25,0.25,0,0,0,0-.07,0.1,0.1,0,0,0,0,0l0,0a0.07,0.07,0,0,0-.06,0,0.19,0.19,0,0,0,0,.11h0Z" transform="translate(-809.88 -255.23)"/>
        <path class="m" d="M840.93,275l0.17-.31h0l0,0.36h0V275L841,275,841,275h0Zm0.1-.12,0.09,0v-0.1s0-.06,0-0.08l0,0.06Z" transform="translate(-809.88 -255.23)"/>
        <path class="m" d="M841.45,275.16l0.22-.27,0,0,0,0.36,0,0v-0.11l-0.1,0-0.07.08Zm0.12-.1,0.08,0v-0.17l0,0.05Z" transform="translate(-809.88 -255.23)"/>
        <path class="e" d="M840.28,275.43a0.54,0.54,0,0,0-.48,0v0.21a0.68,0.68,0,0,1,.21,0l0.2,0.1Z" transform="translate(-809.88 -255.23)"/>
        <path d="M840.23,275.79l-0.23-.11a0.61,0.61,0,0,0-.19,0l0-.24a0.55,0.55,0,0,1,.52,0l-0.06.38h0Zm-0.33-.19a0.3,0.3,0,0,1,.13,0l0.16,0.08,0.06-.27a2.35,2.35,0,0,0-.44,0l0,0.18h0.06Z" transform="translate(-809.88 -255.23)"/>
        <path class="e" d="M838.44,275.45a0.54,0.54,0,0,1,.48,0v0.21a0.67,0.67,0,0,0-.21,0l-0.2.1Z" transform="translate(-809.88 -255.23)"/>
        <path d="M838.49,275.8l-0.08-.34a0.53,0.53,0,0,1,.53-0.06v0.24c-0.07,0-.18,0-0.22.05l-0.23.11h0Zm0.25-.39a0.72,0.72,0,0,0-.29.07l0.07,0.24,0.17-.08a0.68,0.68,0,0,1,.22,0l0-.17-0.15,0h0Z" transform="translate(-809.88 -255.23)"/>
        <path class="e" d="M839.18,275.38v0.31a0.23,0.23,0,0,0,.17,0,0.34,0.34,0,0,0,.17,0v-0.32a0.51,0.51,0,0,0-.19,0,0.29,0.29,0,0,0-.15,0h0Z" transform="translate(-809.88 -255.23)"/>
        <path d="M839.35,275.76a0.25,0.25,0,0,1-.19-0.06v-0.32a0.22,0.22,0,0,1,.17-0.07l0.2,0,0,0.35a0.25,0.25,0,0,1-.2.07h0Zm-0.14-.08,0.29,0v-0.29a0.91,0.91,0,0,1-.13,0,0.31,0.31,0,0,0-.15,0v0.29h0Z" transform="translate(-809.88 -255.23)"/>
        <path class="e" d="M839.51,275.7a0.37,0.37,0,0,0,.41,0,1.44,1.44,0,0,0,0-.19h-0.41v0.21Z" transform="translate(-809.88 -255.23)"/>
        <path d="M839.69,275.79h0a0.25,0.25,0,0,1-.2-0.07V275.5l0.44,0a0.37,0.37,0,0,1,0,.22,0.27,0.27,0,0,1-.26.1h0Zm0.21-.29-0.38,0,0,0.18a1,1,0,0,0,.35,0,1.35,1.35,0,0,0,0-.18h0Z" transform="translate(-809.88 -255.23)"/>
        <path class="e" d="M839.51,275.36a0.68,0.68,0,0,1,.28-0.06,0.23,0.23,0,0,1,.15.07l0,0.28a0.21,0.21,0,0,0-.15-0.07,0.56,0.56,0,0,0-.26.09v-0.31Z" transform="translate(-809.88 -255.23)"/>
        <path d="M839.48,275.72v-0.36a0.53,0.53,0,0,1,.28-0.09,0.3,0.3,0,0,1,.2.08v0.3c-0.07,0-.13,0-0.17,0a0.52,0.52,0,0,0-.24.08l0,0h0Zm0.29-.17a0.23,0.23,0,0,1,.17.08l0-.26a1.2,1.2,0,0,0-.12,0,0.69,0.69,0,0,0-.26.06l0,0.23a0.56,0.56,0,0,1,.23-0.07h0Z" transform="translate(-809.88 -255.23)"/>
        <path class="e" d="M839.18,275.71a0.37,0.37,0,0,1-.41,0,1.3,1.3,0,0,1,0-.19h0.41v0.21Z" transform="translate(-809.88 -255.23)"/>
        <path d="M839,275.79a0.28,0.28,0,0,1-.26-0.1,1.35,1.35,0,0,1,0-.19l0.44,0,0,0.23a0.23,0.23,0,0,1-.21.08h0Zm-0.22-.26a0.71,0.71,0,0,1,0,.16,0.64,0.64,0,0,0,.36,0V275.5l-0.37,0h0Z" transform="translate(-809.88 -255.23)"/>
        <path class="e" d="M839.18,275.37a0.72,0.72,0,0,0-.28-0.06,0.23,0.23,0,0,0-.15.07l0,0.28a0.21,0.21,0,0,1,.15-0.07,0.55,0.55,0,0,1,.26.09v-0.31Z" transform="translate(-809.88 -255.23)"/>
        <path d="M839.21,275.73l0,0a0.54,0.54,0,0,0-.24-0.08h0a0.18,0.18,0,0,0-.12.05l-0.07-.29a0.22,0.22,0,0,1,.17-0.1,1,1,0,0,1,.29.06l0,0.38h0Zm-0.29-.17a0.55,0.55,0,0,1,.23.07v-0.26l-0.22,0a0.2,0.2,0,0,0-.15.06l0,0.22a0.13,0.13,0,0,1,.12-0.06h0Z" transform="translate(-809.88 -255.23)"/>
      </g>
    </g>
  </g>
</svg>
