<svg xmlns="http://www.w3.org/2000/svg" xmlns:xlink="http://www.w3.org/1999/xlink" viewBox="0 0 58.92 34.37">
  <defs>
    <style>
      .a {
        fill: none;
      }

      .b {
        clip-path: url(#a);
      }

      .c {
        fill: #fff;
      }

      .d {
        fill: #ea0020;
      }
    </style>
    <clipPath id="a" transform="translate(-951.26 -255.23)">
      <rect class="a" x="951.26" y="255.23" width="58.92" height="34.37"/>
    </clipPath>
  </defs>
  <title>Easter_Island_Rapa_Nui</title>
  <g class="b">
    <rect class="c" width="58.92" height="34.37"/>
    <g class="b">
      <path class="d" d="M1003.73,262.2l0.08-.67-0.19.65a4,4,0,0,1-2.68,2.76,5.18,5.18,0,0,0-1.92.7c-0.19.16-.26,0.15-0.47,0a1.44,1.44,0,0,0-.92-0.22,0.89,0.89,0,0,0-1,.42,0.67,0.67,0,0,1-.38.34,0.28,0.28,0,0,1,.09-0.28c0.13-.15.13-0.21,0-0.21a0.74,0.74,0,0,0-.35.45,2,2,0,0,1-1.16,1.12c-0.94-.33-1.06-1.8-2.14-1.88-0.36,0-.36,0,0,0.08s0.64,0.58,1.24,1.33c3.75,4.78,9,.6,9.79-4.56h0Z" transform="translate(-951.26 -255.23)"/>
      <path class="d" d="M981.28,285c-5.92.08-13.68-4-16.06-9.68-0.23-.65-0.56-1.26-0.81-1.9A23.09,23.09,0,0,0,962,270c-2.24-2.28-4.36-5-4.49-8.31,0-.27.09,0.06,0.2,0.72,0.89,5.44,6.17,9.06,9.95,4.43,0.25-.31.48-0.77,0.63-0.93s0.77-.42.77-0.17a0.32,0.32,0,0,1-.34.14c-0.27,0-.41.14-0.69,0.7a8.53,8.53,0,0,1-2,2.14c-0.21.07-.07,0.24,0.46,0.52a13.94,13.94,0,0,1,2.83,1.88,7.64,7.64,0,0,0,4.63,2c1.58-.33,2.57-0.37,3.53.56,0.51,0.49,1.52.6,3.25,0.6s2.74-.13,3.25-0.6c1-.92,2-0.89,3.53-0.56a7.73,7.73,0,0,0,4.63-2,13.94,13.94,0,0,1,2.83-1.88c0.53-.28.74-0.52,0.46-0.52a7.06,7.06,0,0,1-2-2.14c-0.29-.56-0.42-0.7-0.69-0.7a0.32,0.32,0,0,1-.34-0.14c0-.25.49-0.14,0.77,0.17a6.86,6.86,0,0,1,.63.93c4.23,5.06,9.19.22,10-4.43,0.1-.66.19-1,0.2-0.72-0.15,3.3-2.41,6-4.57,8.31a19.2,19.2,0,0,0-2.44,3.34c-0.29.62-.53,1.28-0.81,1.9-3,5.66-8.54,9.78-14.95,9.68h0Z" transform="translate(-951.26 -255.23)"/>
      <path class="c" d="M976.19,273.51c0.13-.54-0.77-0.32-0.47.12a0.25,0.25,0,0,0,.47-0.12h0Z" transform="translate(-951.26 -255.23)"/>
      <path class="c" d="M985.75,273.55a0.27,0.27,0,1,0-.5,0,0.26,0.26,0,0,0,.5,0h0Z" transform="translate(-951.26 -255.23)"/>
      <path class="d" d="M957.73,262.19l-0.08-.67,0.19,0.65a4,4,0,0,0,2.68,2.76,5.23,5.23,0,0,1,1.92.7c0.19,0.16.26,0.15,0.46,0a1.47,1.47,0,0,1,.92-0.22,0.89,0.89,0,0,1,1,.42,0.66,0.66,0,0,0,.38.34,0.29,0.29,0,0,0-.1-0.28c-0.12-.15-0.13-0.2,0-0.2a0.75,0.75,0,0,1,.35.45,2,2,0,0,0,1.16,1.12c0.94-.33,1.07-1.8,2.14-1.88,0.36,0,.37,0,0,0.08s-0.64.57-1.24,1.33c-3.75,4.78-9,.6-9.79-4.56h0Z" transform="translate(-951.26 -255.23)"/>
      <path class="c" d="M964.06,268.43c0.47-.36.18-0.61-0.69-0.59l-0.78,0,0.68,0.08a0.85,0.85,0,0,1,.63.21,0.24,0.24,0,0,1-.27.1l-0.77-.1-0.54-.06,0.47,0.15a4.26,4.26,0,0,1,.68.26c0.27,0.15.3,0.15,0.59-.07h0Z" transform="translate(-951.26 -255.23)"/>
      <path class="c" d="M962.32,267.82c0-.3-0.66-0.26-0.72,0s0,0.24.34,0.2a0.36,0.36,0,0,0,.38-0.25h0Z" transform="translate(-951.26 -255.23)"/>
      <path class="c" d="M961.88,267.87a0.28,0.28,0,0,1,.26,0c0.11,0,.08.08-0.08,0.08s-0.22,0-.18-0.07h0Z" transform="translate(-951.26 -255.23)"/>
      <path class="c" d="M963.17,266.49c0-.4-0.52-0.61-0.52-0.23a1.23,1.23,0,0,1-.27.57c-0.4.51-.33,0.58,0.28,0.29s0.54-.32.51-0.63h0Z" transform="translate(-951.26 -255.23)"/>
      <path class="c" d="M960.89,266.66a1,1,0,0,1-.07-1.28c0.24-.2.26-0.09,0,0.25a0.58,0.58,0,0,0,0,.51c0.09,0.22.12,0.2,0.2-.16a2.61,2.61,0,0,1,.18-0.56c0.13-.21-0.32-0.34-0.54-0.16s-0.06,1.88.36,1.88a0.51,0.51,0,0,0-.14-0.48h0Z" transform="translate(-951.26 -255.23)"/>
      <path class="c" d="M962.22,266.75c0.28-.38.28-0.39,0-0.46a0.26,0.26,0,0,0-.31.09c0,0.09-.15.31-0.21,0.25a0.63,0.63,0,0,1,.23-0.55,0.34,0.34,0,0,0,.21-0.33,0.27,0.27,0,0,0-.3.07c-0.17.14-.19,0.13-0.12-0.06s-0.24-.46-0.37-0.24,0,0.13.08,0.13,0.12,0.09.08,0.21,0,0.17.05,0.13,0.13,0,.11.16a1.42,1.42,0,0,0,.13,1,1.13,1.13,0,0,0,.4-0.39h0Z" transform="translate(-951.26 -255.23)"/>
      <path class="c" d="M961.26,266.09c0-.13-0.06,0-0.06.31s0,0.4.06,0.23a1.52,1.52,0,0,0,0-.54h0Z" transform="translate(-951.26 -255.23)"/>
      <path class="c" d="M964.23,266.13a0.74,0.74,0,0,0-.28-0.2s0,0.09,0,.2a0.33,0.33,0,0,0,.28.2c0.17,0,.17,0,0-0.2h0Z" transform="translate(-951.26 -255.23)"/>
      <path class="c" d="M997.94,268.5a5.08,5.08,0,0,1,.71-0.27l0.47-.15-0.54.06-0.77.1a0.24,0.24,0,0,1-.27-0.1,0.84,0.84,0,0,1,.63-0.21l0.68-.08-0.78,0c-0.87,0-1.16.23-.69,0.59,0.31,0.23.27,0.23,0.56,0.08h0Z" transform="translate(-951.26 -255.23)"/>
      <path class="c" d="M999.84,267.85a0.43,0.43,0,0,0-.68-0.2c-0.2.2,0,.43,0.38,0.43s0.33-.06.3-0.23h0Z" transform="translate(-951.26 -255.23)"/>
      <path class="c" d="M999.23,267.87a0.28,0.28,0,0,1,.26,0c0.11,0,.08.08-0.08,0.08s-0.22,0-.18-0.07h0Z" transform="translate(-951.26 -255.23)"/>
      <path class="c" d="M999.08,266.87a1.47,1.47,0,0,1-.29-0.62c0-.38-0.47-0.16-0.52.24s0,0.41.47,0.62a1.62,1.62,0,0,0,.57.21,0.92,0.92,0,0,0-.24-0.45h0Z" transform="translate(-951.26 -255.23)"/>
      <path class="c" d="M999.76,266.77a5.93,5.93,0,0,0,0-.62c0-.13,0-0.21.11-0.16s0.1,0,.05-0.13,0-.21.08-0.21,0.12-.06.08-0.13-0.47,0-.38.24,0.05,0.2-.12.06a0.27,0.27,0,0,0-.3-0.07,0.34,0.34,0,0,0,.21.33c0.17,0.13.26,0.28,0.19,0.34a0.1,0.1,0,0,1-.18,0,0.26,0.26,0,0,0-.31-0.09c-0.25.07-.25,0.08,0,0.46s0.5,0.49.53,0h0Z" transform="translate(-951.26 -255.23)"/>
      <path class="c" d="M1000.75,266.74a1.53,1.53,0,0,0,0-1.48c-0.22-.18-0.67-0.05-0.54.16a2.62,2.62,0,0,1,.18.56c0.08,0.36.11,0.38,0.2,0.16a0.59,0.59,0,0,0,0-.51c-0.22-.35-0.2-0.46,0-0.25a1,1,0,0,1-.06,1.28,0.51,0.51,0,0,0-.14.48,0.79,0.79,0,0,0,.34-0.4h0Z" transform="translate(-951.26 -255.23)"/>
      <path class="c" d="M1000.23,266.09c0-.13-0.06,0-0.06.31s0,0.4.06,0.23a1.48,1.48,0,0,0,0-.54h0Z" transform="translate(-951.26 -255.23)"/>
      <path class="c" d="M997.48,266.13c0-.11,0-0.2,0-0.2a0.74,0.74,0,0,0-.28.2c-0.18.18-.18,0.2,0,0.2a0.33,0.33,0,0,0,.28-0.2h0Z" transform="translate(-951.26 -255.23)"/>
    </g>
  </g>
</svg>
