<svg xmlns="http://www.w3.org/2000/svg" xmlns:xlink="http://www.w3.org/1999/xlink" viewBox="0 0 58.92 34.37">
  <defs>
    <style>
      .a {
        fill: none;
      }

      .b {
        clip-path: url(#a);
      }

      .c {
        fill: #549b14;
      }

      .d {
        fill: #fff;
      }

      .e {
        fill: #d00428;
      }

      .f {
        fill: #cacaca;
      }

      .g {
        fill: #612c0d;
      }

      .h {
        fill: #3b9312;
      }

      .i {
        fill: #2b6a0c;
      }

      .j {
        fill: #f5d028;
      }

      .k {
        fill: #3970ca;
      }
    </style>
    <clipPath id="a" transform="translate(-175.26 -313.34)">
      <rect class="a" x="175.26" y="313.34" width="58.92" height="34.37"/>
    </clipPath>
  </defs>
  <title>Equatorial_Guinea</title>
  <g class="b">
    <rect class="c" width="58.92" height="11.54"/>
    <rect class="d" y="11.54" width="58.92" height="11.29"/>
    <rect class="e" y="22.83" width="58.92" height="11.54"/>
    <g class="b">
      <path class="f" d="M198.5,327.19v5.52a0.83,0.83,0,0,0,.85.88h1.13a1,1,0,0,1,.57.44,0.93,0.93,0,0,1,.57-0.44h1.13a0.83,0.83,0,0,0,.85-0.88v-5.52h-5.1Z" transform="translate(-175.26 -313.34)"/>
      <path d="M201.05,334.08l0,0a1,1,0,0,0-.54-0.43h-1.13a0.86,0.86,0,0,1-.88-0.91v-5.52l5.13,0,0,5.55a0.86,0.86,0,0,1-.88.91h-1.13a0.91,0.91,0,0,0-.54.43l0,0h0Zm2.52-6.89-5.08,0,0,5.49a0.8,0.8,0,0,0,.82.85h1.13a0.9,0.9,0,0,1,.57.42,0.87,0.87,0,0,1,.57-0.42h1.13a0.81,0.81,0,0,0,.82-0.85v-5.52h0Z" transform="translate(-175.26 -313.34)"/>
      <path class="f" d="M197.31,333.15a0.56,0.56,0,0,1-.57-0.44V331.6c0.25,0.19,1.43.88,1.14,1.11a0.48,0.48,0,0,1-.57,0s0,0.44,0,.44h0Z" transform="translate(-175.26 -313.34)"/>
      <path d="M197.34,333.17h0a0.59,0.59,0,0,1-.6-0.47V331.6a0.81,0.81,0,0,1,.29.15,2.25,2.25,0,0,1,1,.87,0.13,0.13,0,0,1-.06.11,0.56,0.56,0,0,1-.58,0,1.63,1.63,0,0,1,0,.4v0h0Zm-0.62-1.55,0,1.08a0.53,0.53,0,0,0,.52.41c0-.09,0-0.38,0-0.41s0.18,0.06.32,0.06a0.41,0.41,0,0,0,.26-0.09,0.07,0.07,0,0,0,0-.06,2.52,2.52,0,0,0-.93-0.82l-0.24-.17h0Z" transform="translate(-175.26 -313.34)"/>
      <path class="f" d="M197.31,332.71c0.28-.22.28,0.22,0.57,0L197.59,334a0.43,0.43,0,0,1-.45-0.22,2.51,2.51,0,0,1,.16-1.1h0Z" transform="translate(-175.26 -313.34)"/>
      <path class="f" d="M204.76,333.15a0.56,0.56,0,0,0,.57-0.44V331.6c-0.25.19-1.43,0.88-1.14,1.11a0.48,0.48,0,0,0,.57,0s0,0.44,0,.44h0Z" transform="translate(-175.26 -313.34)"/>
      <path d="M204.76,333.17l0,0c0-.21,0-0.35,0-0.41a0.48,0.48,0,0,1-.56,0,0.13,0.13,0,0,1-.06-0.11,2.25,2.25,0,0,1,1-.87l0.24-.17,0,1.13a0.59,0.59,0,0,1-.6.47h0Zm0-.49a1.57,1.57,0,0,1,0,.43,0.53,0.53,0,0,0,.52-0.41V331.6a0.38,0.38,0,0,1-.2.19,2.52,2.52,0,0,0-.93.82,0.07,0.07,0,0,0,0,.06,0.53,0.53,0,0,0,.53,0h0Z" transform="translate(-175.26 -313.34)"/>
      <path class="f" d="M204.72,332.71c-0.29-.22-0.29.22-0.57,0l0.29,1.32a0.43,0.43,0,0,0,.45-0.22,2.53,2.53,0,0,0-.16-1.1h0Z" transform="translate(-175.26 -313.34)"/>
      <path class="f" d="M202.15,334.69c0-.22-0.57-0.66-0.57-0.88s0.57,0.22,1.71.22,1.71-1.1,1.43-1.32a1.93,1.93,0,0,1,.29,1.1c0,0.44-.57.88-1.71,0.88h-1.14Z" transform="translate(-175.26 -313.34)"/>
      <path d="M203.29,334.72h-1.14a1.35,1.35,0,0,0-.31-0.45,1,1,0,0,1-.29-0.46c0-.06.07-0.12,0.38,0a4.49,4.49,0,0,0,1.36.22,1.57,1.57,0,0,0,1.24-.58,0.84,0.84,0,0,0,.23-0.59l-0.06-.1a0.09,0.09,0,0,1,.12.09l-0.05,0a1.6,1.6,0,0,1,.27,1c0,0.44-.54.91-1.74,0.91h0Zm-1.64-.94a0.63,0.63,0,0,0,.24.45,1,1,0,0,1,.29.46l1.11,0c1.16,0,1.68-.44,1.68-0.85a2,2,0,0,0-.2-1,0.67,0.67,0,0,1-.2.6,1.63,1.63,0,0,1-1.28.61,4.59,4.59,0,0,1-1.38-.22,1.2,1.2,0,0,0-.27-0.06h0Z" transform="translate(-175.26 -313.34)"/>
      <path class="f" d="M199.87,334.69c0-.22.57-0.66,0.57-0.88s-0.57.22-1.71,0.22-1.71-1.1-1.42-1.32a1.93,1.93,0,0,0-.29,1.1c0,0.44.57,0.88,1.71,0.88h1.14Z" transform="translate(-175.26 -313.34)"/>
      <path d="M199.9,334.72h-1.17c-1.19,0-1.74-.47-1.74-0.91a2,2,0,0,1,.22-1,0.22,0.22,0,0,1,.07-0.12,0.17,0.17,0,0,1,0,.15l0,0a1.33,1.33,0,0,0,.28.61,1.57,1.57,0,0,0,1.24.58,4.5,4.5,0,0,0,1.36-.22c0.31-.09.38,0,0.38,0a1,1,0,0,1-.29.46,1,1,0,0,0-.28.42v0h0Zm-2.69-1.91a2.66,2.66,0,0,0-.16,1c0,0.41.53,0.85,1.68,0.85h1.11a1.18,1.18,0,0,1,.29-0.43,1,1,0,0,0,.28-0.42,0.49,0.49,0,0,0-.3,0,4.6,4.6,0,0,1-1.38.22,1.63,1.63,0,0,1-1.28-.61,0.87,0.87,0,0,1-.24-0.64h0Z" transform="translate(-175.26 -313.34)"/>
      <path class="f" d="M199.87,334.47c0-.22.57-0.44,0.57-0.66v1.1h-0.57v-0.44Z" transform="translate(-175.26 -313.34)"/>
      <path class="f" d="M202.15,334.47c0-.22-0.57-0.44-0.57-0.66v1.1h0.57v-0.44Z" transform="translate(-175.26 -313.34)"/>
      <path class="f" d="M199.87,334.47a4,4,0,0,0,2.28,0v0.88a4,4,0,0,1-2.28,0v-0.88Z" transform="translate(-175.26 -313.34)"/>
      <path d="M201,335.55a2.1,2.1,0,0,1-1.17-.2v-0.88a2.9,2.9,0,0,0,1.17.14,2.29,2.29,0,0,0,1.11-.14,0,0,0,0,1,0,0l0.06,0.86a2.1,2.1,0,0,1-1.17.2h0Zm-1.17-1.07,0.06,0.88a4.58,4.58,0,0,0,2.22,0V334.5a2.38,2.38,0,0,1-1.11.16,2.23,2.23,0,0,1-1.17-.19h0Z" transform="translate(-175.26 -313.34)"/>
      <path d="M201,334.67a6.38,6.38,0,0,1-.79,0c-0.34,0-.38-0.1-0.38-0.15a0.6,0.6,0,0,1,.3-0.35,0.59,0.59,0,0,0,.27-0.31,0.38,0.38,0,0,0-.31,0,4.66,4.66,0,0,1-1.38.22,1.59,1.59,0,0,1-1.49-1,0.36,0.36,0,0,1,0-.41,0.22,0.22,0,0,1,.32,0,0.16,0.16,0,0,0,.25,0l0,0a0.22,0.22,0,0,1-.32,0,0.16,0.16,0,0,0-.25,0,0.31,0.31,0,0,0,0,.34,1.53,1.53,0,0,0,1.43.93,4.5,4.5,0,0,0,1.36-.22,0.5,0.5,0,0,1,.35,0h0l0,0.06a0.59,0.59,0,0,1-.3.35,0.6,0.6,0,0,0-.27.31,4.52,4.52,0,0,0,2.22,0,0.6,0.6,0,0,0-.27-0.31,0.59,0.59,0,0,1-.3-0.35l0-.07a0.51,0.51,0,0,1,.35,0,4.49,4.49,0,0,0,1.36.22,1.53,1.53,0,0,0,1.43-.93,0.31,0.31,0,0,0,0-.34,0.17,0.17,0,0,0-.25,0,0.22,0.22,0,0,1-.32,0,0.25,0.25,0,0,0,.29,0,0.22,0.22,0,0,1,.32,0,0.36,0.36,0,0,1,0,.41,1.59,1.59,0,0,1-1.49,1,4.66,4.66,0,0,1-1.38-.22,0.64,0.64,0,0,0-.3-0.06,0.5,0.5,0,0,0,.27.33,0.6,0.6,0,0,1,.3.35,2.1,2.1,0,0,1-1.17.2h0Z" transform="translate(-175.26 -313.34)"/>
      <polygon points="29.27 20.98 28.98 20.49 29.03 20.47 29.32 20.96 29.27 20.98"/>
      <path d="M204.34,334.21h0.06a0.24,0.24,0,0,1,0,.15,0.13,0.13,0,0,1-.08.08,0.2,0.2,0,0,1-.12,0,0.29,0.29,0,0,1-.11-0.08,0.53,0.53,0,0,1-.09-0.13,0.39,0.39,0,0,1,0-.14,0.17,0.17,0,0,1,0-.11,0.15,0.15,0,0,1,.08-0.06,0.17,0.17,0,0,1,.12,0,0.28,0.28,0,0,1,.11.09l0,0a0.23,0.23,0,0,0-.08-0.07,0.1,0.1,0,0,0-.08,0,0.1,0.1,0,0,0-.06.05,0.14,0.14,0,0,0,0,.09,0.51,0.51,0,0,0,0,.1l0.07,0.11a0.2,0.2,0,0,0,.08.06h0.08a0.09,0.09,0,0,0,.06-0.06,0.17,0.17,0,0,0,0-.11h0Z" transform="translate(-175.26 -313.34)"/>
      <polygon points="28.73 21.21 28.54 20.69 28.59 20.68 28.78 21.2 28.73 21.21"/>
      <polygon points="28.37 21.27 28.32 20.79 28.17 20.8 28.17 20.74 28.51 20.71 28.52 20.77 28.37 20.79 28.42 21.26 28.37 21.27"/>
      <path d="M203.08,334.46h0.05a0.2,0.2,0,0,0,0,.07l0,0,0.07,0h0.06l0,0a0.09,0.09,0,0,0,0,0,0.08,0.08,0,0,0,0,0l0,0-0.08,0-0.08,0,0-.05a0.15,0.15,0,0,1,0-.07,0.16,0.16,0,0,1,0-.08,0.12,0.12,0,0,1,.05-0.05l0.08,0,0.08,0a0.14,0.14,0,0,1,.06.06,0.19,0.19,0,0,1,0,.09h-0.05a0.13,0.13,0,0,0,0-.08,0.1,0.1,0,0,0-.07,0,0.1,0.1,0,0,0-.08,0,0.08,0.08,0,0,0,0,.06,0.07,0.07,0,0,0,0,0l0.09,0,0.1,0a0.14,0.14,0,0,1,.06.06,0.15,0.15,0,0,1,0,.08,0.18,0.18,0,0,1,0,.08,0.13,0.13,0,0,1-.06.06l-0.08,0-0.1,0a0.15,0.15,0,0,1-.06-0.07,0.22,0.22,0,0,1,0-.1h0Z" transform="translate(-175.26 -313.34)"/>
      <path d="M202.92,334.09H203l0,0.31a0.45,0.45,0,0,1,0,.13,0.16,0.16,0,0,1-.06.08,0.15,0.15,0,0,1-.1,0,0.15,0.15,0,0,1-.1,0,0.14,0.14,0,0,1-.05-0.08,0.48,0.48,0,0,1,0-.14l0-.31h0.06l0,0.31a0.39,0.39,0,0,0,0,.11,0.09,0.09,0,0,0,0,.05l0.06,0a0.11,0.11,0,0,0,.09,0,0.25,0.25,0,0,0,0-.14Z" transform="translate(-175.26 -313.34)"/>
      <path d="M202.22,334.45h0.05a0.16,0.16,0,0,0,0,.09l0,0h0l0,0a0.32,0.32,0,0,0,0-.07v-0.37h0.06v0.37a0.33,0.33,0,0,1,0,.11,0.11,0.11,0,0,1,0,.06l-0.07,0a0.1,0.1,0,0,1-.09,0,0.21,0.21,0,0,1,0-.12h0Z" transform="translate(-175.26 -313.34)"/>
      <path d="M201.25,335.36v-0.08l0.22-.39,0-.07h-0.24v-0.07h0.31v0.07l-0.24.43,0,0h0.28v0.07h-0.34Z" transform="translate(-175.26 -313.34)"/>
      <polygon points="22.85 21.27 22.99 20.66 23.04 20.67 22.91 21.27 22.85 21.27"/>
      <polygon points="22.24 21.03 22.59 20.49 22.65 20.51 22.57 21.02 22.85 20.6 22.89 20.62 22.54 21.16 22.49 21.14 22.57 20.62 22.29 21.05 22.24 21.03"/>
      <path d="M197.8,333.76l0,0-0.31.25-0.14.1-0.11,0a0.15,0.15,0,0,1-.1,0,0.11,0.11,0,0,1,0-.08,0.15,0.15,0,0,1,0-.09l0.12-.12,0.31-.25,0,0-0.3.25-0.09.09a0.1,0.1,0,0,0,0,.06,0.07,0.07,0,0,0,0,.05,0.11,0.11,0,0,0,.1,0,0.48,0.48,0,0,0,.15-0.1Z" transform="translate(-175.26 -313.34)"/>
      <path d="M198.41,334.65l0-.62h0.23l0.06,0a0.28,0.28,0,0,1,0,.11,0.57,0.57,0,0,1,0,.15,0.62,0.62,0,0,1,0,.13,0.4,0.4,0,0,1,0,.09l0,0.05-0.05,0h-0.22Zm0.06-.07h0.16l0,0a0.23,0.23,0,0,0,0-.08,0.48,0.48,0,0,0,0-.12,0.36,0.36,0,0,0,0-.15,0.13,0.13,0,0,0-.05-0.07h-0.16Z" transform="translate(-175.26 -313.34)"/>
      <path d="M198.81,334.66L199,334H199l0.18,0.62h-0.06l-0.05-.19h-0.18l0,0.19h-0.06Zm0.12-.25h0.15l0-.17,0-.13a1,1,0,0,1,0,.12Z" transform="translate(-175.26 -313.34)"/>
      <path d="M199.26,334.66V334h0.23a0.12,0.12,0,0,1,.06,0,0.27,0.27,0,0,1,.05.11,0.61,0.61,0,0,1,0,.15,0.57,0.57,0,0,1,0,.12,0.38,0.38,0,0,1,0,.09l0,0.06-0.05,0h-0.23Zm0.06-.07h0.16l0,0a0.23,0.23,0,0,0,0-.08,0.53,0.53,0,0,0,0-.12,0.38,0.38,0,0,0,0-.15,0.13,0.13,0,0,0-.05-0.07h-0.16v0.47Z" transform="translate(-175.26 -313.34)"/>
      <path d="M200.48,335.36v-0.62h0.23l0.05,0a0.14,0.14,0,0,1,0,.06,0.26,0.26,0,0,1,0,.08,0.24,0.24,0,0,1,0,.13,0.14,0.14,0,0,1-.13.05h-0.11v0.25h-0.06Zm0.06-.32h0.11a0.09,0.09,0,0,0,.08,0,0.13,0.13,0,0,0,0-.08,0.14,0.14,0,0,0,0-.06l0,0h-0.16V335Z" transform="translate(-175.26 -313.34)"/>
      <path d="M200.83,335.36l0.17-.62h0.06l0.18,0.62h-0.06l0-.19h-0.18l0,0.19h-0.06Zm0.12-.25h0.15l0-.17,0-.13a1,1,0,0,1,0,.12Z" transform="translate(-175.26 -313.34)"/>
      <path d="M204.65,334.27l-0.29-.53,0,0,0.54,0.37,0,0-0.16-.12-0.13.08,0.09,0.16Zm-0.08-.24,0.11-.07-0.15-.11-0.11-.08,0.06,0.1Z" transform="translate(-175.26 -313.34)"/>
      <path class="g" d="M201,330.13a6,6,0,0,1-.37,2.84c0,0.11.07,0.16,0.16,0.19a0.13,0.13,0,0,0,.14-0.12s0,0.19.12,0.16a0.45,0.45,0,0,0,.19-0.16,0.27,0.27,0,0,0,.16.21c0.12,0,.12-0.26.12-0.26a0.32,0.32,0,0,0,.17.22,0.16,0.16,0,0,0,.15-0.23,6.37,6.37,0,0,1-.56-2.86,0.67,0.67,0,0,1,.55-0.54l-0.11-.17a0.64,0.64,0,0,0-.29.15,1.19,1.19,0,0,0-.22.25V329h-0.23l0,0.73a2.22,2.22,0,0,0-.2-0.2,0.59,0.59,0,0,0-.44-0.07v0.16a0.57,0.57,0,0,1,.43.11,0.54,0.54,0,0,1,.22.38h0Z" transform="translate(-175.26 -313.34)"/>
      <path d="M201.37,333.28a0.24,0.24,0,0,1-.18-0.2,0.26,0.26,0,0,1-.16.15,0.12,0.12,0,0,1-.13-0.12,0.12,0.12,0,0,1-.11.08h0a0.3,0.3,0,0,1-.21-0.12,0.14,0.14,0,0,1,0-.12,5.79,5.79,0,0,0,.38-2.62c0-.09,0-0.15,0-0.21a0.47,0.47,0,0,0-.19-0.33,0.31,0.31,0,0,0-.28-0.11h-0.15v-0.19a0.41,0.41,0,0,1,.49.05,2.13,2.13,0,0,1,.2.2l-0.07-.71,0.26,0,0,0.76a0.72,0.72,0,0,1,.18-0.2,0.67,0.67,0,0,1,.28-0.15l0.16,0.17a0.76,0.76,0,0,0-.54.55,5.9,5.9,0,0,0,.56,2.84,0.16,0.16,0,0,1,0,.17,0.23,0.23,0,0,1-.19.1,0.24,0.24,0,0,1-.17-0.15,0.16,0.16,0,0,1-.12.19h0Zm-0.19-.26a0.49,0.49,0,0,0,.19.2,0.24,0.24,0,0,0,.09-0.23,1.18,1.18,0,0,0,.2.19,0.17,0.17,0,0,0,.14-0.07,0.11,0.11,0,0,0,0-.11,6.1,6.1,0,0,1-.57-2.84,0.7,0.7,0,0,1,.58-0.59l-0.13-.12a1.6,1.6,0,0,0-.25.16,1.33,1.33,0,0,0-.22.24v0a0,0,0,0,1,0,0l0-.75-0.2,0,0.05,0.7a0.48,0.48,0,0,1-.25-0.18,0.52,0.52,0,0,0-.42-0.06v0.13a0.21,0.21,0,0,1,.12,0,0.33,0.33,0,0,1,.31.11,0.55,0.55,0,0,1,.23.39c0,0.05,0,.12,0,0.2a5.87,5.87,0,0,1-.39,2.65,0.16,0.16,0,0,0,.14.15,0.11,0.11,0,0,0,.1-0.09,0.27,0.27,0,0,0,.13.14,0.39,0.39,0,0,0,.18-0.15h0Z" transform="translate(-175.26 -313.34)"/>
      <path class="h" d="M199.29,329.23h0s0,0,0,0a0.2,0.2,0,0,1,.06-0.08h0.15s0.08,0,.08,0a0.1,0.1,0,0,0,.08-0.07c0.06,0,.07-0.05.11,0a0.18,0.18,0,0,0,.07,0,0.15,0.15,0,0,0,.09,0,0.68,0.68,0,0,0,0-.1,0.24,0.24,0,0,1,0-.11,0.31,0.31,0,0,1,.14,0s0.06,0,0-.07a0.22,0.22,0,0,1,0-.11,0.15,0.15,0,0,1,.09-0.06s0-.06,0-0.1,0.05,0,.06-0.05a0.3,0.3,0,0,1,.07-0.08,0.21,0.21,0,0,0,.08-0.06,0.08,0.08,0,0,1,.07-0.06,0.27,0.27,0,0,0,.09,0l0.08-.1a1.41,1.41,0,0,1,.26,0A0.51,0.51,0,0,1,201,328a0.29,0.29,0,0,1,.14,0,0.31,0.31,0,0,0,.15,0,0.1,0.1,0,0,1,.11,0,0.14,0.14,0,0,1,.09.06,0.08,0.08,0,0,0,.09.07,0.19,0.19,0,0,1,.13,0c0.07,0,.07,0,0.07.06s0.06,0,.06,0l0.09,0a0.12,0.12,0,0,0,.1,0s0.06,0,.07-0.06a0.09,0.09,0,0,0,.06-0.07,0.12,0.12,0,0,1,.11,0c0.06,0,.06,0,0,0.08s0.05,0,.06,0a0,0,0,0,1,0,.07,0.12,0.12,0,0,1,.06.08,0.1,0.1,0,0,0,0,.09l0.11,0,0.14,0a0.22,0.22,0,0,1,.14,0,0.74,0.74,0,0,0,.06.09,0.43,0.43,0,0,1,.1.05,0.23,0.23,0,0,0,.1.05l0.08,0.09s0,0.07,0,.11v0.12s0,0.07,0,.12a0.13,0.13,0,0,0,0,.07,0.49,0.49,0,0,1-.07.09,0.38,0.38,0,0,1-.06.1s0,0.07,0,.11a0.28,0.28,0,0,1-.1.07,0.15,0.15,0,0,0-.07.09s0,0-.07,0h-0.16a0.12,0.12,0,0,1-.09,0,0.29,0.29,0,0,0-.16,0,0.18,0.18,0,0,0-.1,0h-0.14a0.14,0.14,0,0,0-.11,0h-0.15a0.1,0.1,0,0,1-.08-0.06,0.24,0.24,0,0,0-.1,0h-0.15l-0.1,0-0.08-.06a0.14,0.14,0,0,1-.1,0,0.72,0.72,0,0,0-.11-0.07,0.19,0.19,0,0,1-.09-0.09s0-.05,0-0.05a0.16,0.16,0,0,1-.12,0H200.8a0.31,0.31,0,0,0-.13,0,0.41,0.41,0,0,1-.14,0,0.15,0.15,0,0,0-.09.06l-0.13.06a0.17,0.17,0,0,0-.08.07,0.28,0.28,0,0,0,0,.1,0.11,0.11,0,0,1,0,.1,0.53,0.53,0,0,1-.1.06,0.14,0.14,0,0,1-.1,0l-0.14,0a0.2,0.2,0,0,1-.11,0l0.11,0a0.2,0.2,0,0,1-.11,0,0.29,0.29,0,0,0-.16-0.06c-0.07,0-.1,0-0.11.05s0,0,0,0l-0.11,0s0,0,0,0l-0.11,0-0.08-.08-0.08-.07a0.56,0.56,0,0,0-.08,0,0.23,0.23,0,0,1,0-.12,0.35,0.35,0,0,1,.07-0.08,0.17,0.17,0,0,1,.13,0c0.06,0-.08-0.07,0-0.07a0.09,0.09,0,0,0,.08-0.05h0.14Z" transform="translate(-175.26 -313.34)"/>
      <path d="M200.06,329.85l-0.08,0-0.13,0-0.07,0-0.06,0a0.29,0.29,0,0,0-.14-0.05c-0.07,0-.08,0-0.08,0a0.22,0.22,0,0,1-.15.1l-0.1,0-0.07,0-0.07-.07-0.19-.14a0.21,0.21,0,0,1,0-.13,0.22,0.22,0,0,1,.09-0.11h0.09l0.07-.09,0.17,0a0.13,0.13,0,0,1,0-.1h0l0.28,0,0.08-.05h0.17a0.08,0.08,0,0,0,0-.08,0.14,0.14,0,0,1,0-.09v0l0.05,0,0.1,0a0.73,0.73,0,0,1,0-.16,0.11,0.11,0,0,1,.07-0.06h0l0-.09,0.06,0a0.27,0.27,0,0,1,.08-0.1l0.1,0h0a0.11,0.11,0,0,1,.09-0.07h0.1l0,0,0.08-.1a0.64,0.64,0,0,1,.19,0h0.09A0.29,0.29,0,0,1,201,328a0.32,0.32,0,0,1,.15,0l0.11,0a0.29,0.29,0,0,1,.11,0l0.09,0a0.11,0.11,0,0,1,.07.06l0.06,0.08v0a0.18,0.18,0,0,1,.12,0c0.09,0,.1,0,0.1.09l0.13,0.06a0.1,0.1,0,0,0,.09,0v0l0.1-.1a0.16,0.16,0,0,1,.13,0c0.08,0,.09.06,0.07,0.12l0.07,0.07a0.38,0.38,0,0,0,0,.09v0.08l0.09,0,0.13,0a0.3,0.3,0,0,1,.14,0h0l0,0.11h0.05l0.07,0h0l0.09,0.05,0.08,0.09,0,0.13,0,0.32a0.47,0.47,0,0,1-.07.1,0.18,0.18,0,0,1,0,.07h0v0.12a0.23,0.23,0,0,1-.12.09,0.12,0.12,0,0,0-.05.07v0l-0.08,0h-0.17a0.16,0.16,0,0,1-.11,0H202.4a0.15,0.15,0,0,0-.09,0h-0.14a0.16,0.16,0,0,0-.11,0H202a0.16,0.16,0,0,1-.16-0.07l-0.08-.05v0h-0.16l-0.11,0-0.08-.06a0.12,0.12,0,0,1-.11,0l-0.11-.07a0.22,0.22,0,0,1-.11-0.1h-0.28a0.28,0.28,0,0,0-.12,0,0.31,0.31,0,0,1-.13,0h0l-0.08,0-0.13.06-0.09,0h0a0.24,0.24,0,0,0,0,.09,0.13,0.13,0,0,1,0,.12l-0.07,0-0.09,0h0Zm-0.19-.1,0.13,0,0.06,0,0,0,0.11,0,0,0a0.08,0.08,0,0,0,0-.08,0.25,0.25,0,0,1,0-.1,0.14,0.14,0,0,1,.07-0.09l0.15-.08a0.1,0.1,0,0,1,.07-0.05l0.16-.05a0.27,0.27,0,0,1,.14,0h0.12a0.13,0.13,0,0,0,.11,0l0,0,0.06,0a0.15,0.15,0,0,0,.08.12l0.08,0.05,0.09,0a0.24,0.24,0,0,1,.14.07l0.08,0h0.09a0.29,0.29,0,0,1,.14,0l0.1,0.1v0h0.14a0.19,0.19,0,0,1,.14,0h0.12l0.11,0a0.33,0.33,0,0,1,.17,0l0.08,0h0.16l0.1-.1,0.11-.08,0-.11a0.39,0.39,0,0,0,.05-0.1l0.07-.1,0-.06,0-.07v-0.28l0,0,0-.05-0.1-.06-0.17-.12a0.12,0.12,0,0,0-.09,0,0.44,0.44,0,0,1-.2,0l-0.07,0c-0.06-.07-0.08-0.11,0-0.15l0,0,0-.05-0.1-.08c-0.08,0-.09,0-0.11,0a0.1,0.1,0,0,1-.07.08s0,0-.05.05a0.15,0.15,0,0,1-.13,0l-0.09,0h0l-0.12-.11a0.13,0.13,0,0,0-.09,0,0.1,0.1,0,0,1-.1-0.06l-0.05-.05H201.2a0.27,0.27,0,0,0-.15,0l-0.09.07a0.29,0.29,0,0,1-.12,0l-0.13,0a0.31,0.31,0,0,0-.09.09h0l-0.14.07a0.14,0.14,0,0,1-.07.07,0.25,0.25,0,0,0-.09.09s0,0.06-.08.06h0v0.09l-0.1,0h0v0.1l-0.06.1-0.08,0a0.05,0.05,0,0,0,0,.07,0.41,0.41,0,0,1,0,.12l-0.3,0,0,0a0.12,0.12,0,0,1-.1.08h-0.15a0.12,0.12,0,0,0-.1.06l-0.06,0h0l-0.14,0a0.07,0.07,0,0,1-.08.05l0.06,0-0.1,0-0.08,0a0.13,0.13,0,0,0,0,.12l0.06,0.06,0,0,0.06,0.09,0,0,0.08,0.09,0.06,0,0.07,0,0.1,0a0.11,0.11,0,0,1,.14-0.09,0.27,0.27,0,0,1,.14,0,0.28,0.28,0,0,0,.14.06h0Z" transform="translate(-175.26 -313.34)"/>
      <path class="i" d="M200.58,328.6a0.2,0.2,0,0,1-.12,0c0-.05,0-0.06-0.07-0.07h0a0.27,0.27,0,0,1-.12,0l0,0a0.22,0.22,0,0,0,.1,0,0.11,0.11,0,0,1,.11.09h0.07a0.14,0.14,0,0,1,.09,0l-0.09,0v0h0Z" transform="translate(-175.26 -313.34)"/>
      <path class="i" d="M200.1,329.06H200V329h0.17l0.06,0a0.2,0.2,0,0,1,.16,0l0.14,0-0.09,0h-0.07a0.16,0.16,0,0,0-.09,0l-0.09.06h0Z" transform="translate(-175.26 -313.34)"/>
      <path class="i" d="M200.41,328.89l0-.05,0.09,0,0.1,0,0.09,0,0.06,0.05-0.06,0-0.06,0-0.12,0-0.08,0h0Z" transform="translate(-175.26 -313.34)"/>
      <path class="i" d="M201.44,329.15h-0.08a0.41,0.41,0,0,1-.13-0.07l-0.08,0a0.37,0.37,0,0,1-.14-0.12,0.77,0.77,0,0,1,0-.15l0-.06h0l0.07,0.16a0.22,0.22,0,0,0,.09.08l0.11,0.07,0.12,0.06h0.08l0.06,0-0.06,0h0Z" transform="translate(-175.26 -313.34)"/>
      <path class="i" d="M201.24,328.56a0.58,0.58,0,0,1,.08-0.12l0.09-.07h0a0.18,0.18,0,0,1,.11-0.11l0-.08,0-.07,0,0a0.53,0.53,0,0,1-.07.15,0.15,0.15,0,0,0-.09.09l-0.07.1a0.22,0.22,0,0,1-.13.08h0Z" transform="translate(-175.26 -313.34)"/>
      <path class="i" d="M202,328.73h0l0,0h0a0.33,0.33,0,0,1,0-.29l0.09,0v0a0.37,0.37,0,0,0-.06.15,0.39,0.39,0,0,0,0,.12,0.2,0.2,0,0,0,.09.07H202Z" transform="translate(-175.26 -313.34)"/>
      <path class="i" d="M202.6,328.88h-0.15l0.1-.06h0.13l0.07-.06,0.1,0,0,0,0.06,0-0.07.05-0.11.09-0.1,0h0Z" transform="translate(-175.26 -313.34)"/>
      <path class="i" d="M202.87,329.55h-0.06a0.4,0.4,0,0,1-.13-0.08,0.17,0.17,0,0,1,.13,0,0.25,0.25,0,0,0,.15,0H203v0l-0.14,0h0Z" transform="translate(-175.26 -313.34)"/>
      <path class="i" d="M202.59,329.82h0l-0.12-.07a0.3,0.3,0,0,1-.11-0.16,0.18,0.18,0,0,1,0-.14l0,0.1a0.25,0.25,0,0,0,.07.14,0.42,0.42,0,0,1,.1.08l0.06,0h-0.06Z" transform="translate(-175.26 -313.34)"/>
      <path class="i" d="M201.78,329.67v-0.06h0.15l0.09,0a0.19,0.19,0,0,0,0-.12,0.08,0.08,0,0,1,0,.11l-0.05.06-0.09,0-0.17,0h0Z" transform="translate(-175.26 -313.34)"/>
      <path class="a" d="M201.08,329.33l-0.07-.13s0-.08,0-0.12Z" transform="translate(-175.26 -313.34)"/>
      <path class="i" d="M199.59,329.69h0v-0.06h0.08a0.34,0.34,0,0,1,.15,0l0.08,0a0.13,0.13,0,0,0,.05-0.06l0.08-.06,0,0.09a0.2,0.2,0,0,1-.08.09l-0.1,0a0.35,0.35,0,0,0-.14,0h-0.06Z" transform="translate(-175.26 -313.34)"/>
      <path class="a" d="M200.3,329.5h-0.17l-0.07-.06s0,0,0,0Z" transform="translate(-175.26 -313.34)"/>
      <path class="i" d="M200.45,329.23l0-.05v0l0.11,0,0.07,0,0.1,0-0.08,0-0.08,0-0.1,0h0Z" transform="translate(-175.26 -313.34)"/>
      <path class="i" d="M199.11,329.64l-0.06,0v0l0.17,0,0.15-.08a0.17,0.17,0,0,1-.08.12,0.73,0.73,0,0,1-.19,0h0Z" transform="translate(-175.26 -313.34)"/>
      <path class="i" d="M202.47,329.23l-0.11,0-0.11-.06h-0.08l-0.17,0-0.08-.05,0,0,0.16,0,0.13,0a0.41,0.41,0,0,1,.13.07l0.1,0,0.11,0a0.13,0.13,0,0,1-.09.09h0Z" transform="translate(-175.26 -313.34)"/>
      <path d="M200.94,333a0.29,0.29,0,0,1-.07-0.15,0.62,0.62,0,0,0,0-.2,0.2,0.2,0,0,1,0-.11c0-.09.07-0.16,0.1-0.2a0.92,0.92,0,0,0,0-.15l0-.14a0.56,0.56,0,0,1,0-.15,1,1,0,0,1,0-.13v-0.08a0.33,0.33,0,0,0,0-.17,0.6,0.6,0,0,0,0-.21V331.1h0.06v0.23a0.6,0.6,0,0,1,0,.21,0.35,0.35,0,0,1,0,.2c0,0.1,0,.14,0,0.19a0.6,0.6,0,0,0,0,.14v0.08c0,0.12,0,.17,0,0.21a0.88,0.88,0,0,1-.1.18,0.27,0.27,0,0,0,0,.12,0.48,0.48,0,0,1,0,.18,0.81,0.81,0,0,1,0,.2h0Z" transform="translate(-175.26 -313.34)"/>
      <path d="M201.25,333a0.06,0.06,0,0,1-.07-0.07,0.22,0.22,0,0,0,0-.06,0.33,0.33,0,0,1,0-.09,0.62,0.62,0,0,1,0-.22l0-.2a0.3,0.3,0,0,0,.06-0.19,1.63,1.63,0,0,1,0-.22V331.6a1.34,1.34,0,0,0,0-.17l0.05,0h0l0,0a1.34,1.34,0,0,1,0,.18v0.32a1.69,1.69,0,0,0,0,.22,0.32,0.32,0,0,1-.07.21l0,0.19a0.47,0.47,0,0,0,0,.16,0.26,0.26,0,0,0,0,.11,0.28,0.28,0,0,1,0,.09,0.17,0.17,0,0,0,0,.08h0Z" transform="translate(-175.26 -313.34)"/>
      <path d="M201.48,333l0,0a0.13,0.13,0,0,0,0-.08l0-.06-0.06-.06-0.06-.06a0.34,0.34,0,0,1,0-.21,0.18,0.18,0,0,0,.06-0.14,0.88,0.88,0,0,0,0-.09,0.81,0.81,0,0,1,0-.11,0.73,0.73,0,0,1,0-.2h0.06a0.64,0.64,0,0,0,0,.19s0,0.08,0,.11a0.85,0.85,0,0,1,0,.1,0.23,0.23,0,0,1-.08.17,0.37,0.37,0,0,0,0,.15s0,0,.06,0l0.06,0.06,0,0.06a0.2,0.2,0,0,1,0,.1l0,0h0Z" transform="translate(-175.26 -313.34)"/>
      <polygon class="j" points="26.44 13.26 26.26 13 25.93 12.99 26.09 12.73 25.93 12.47 26.26 12.46 26.44 12.2 26.61 12.46 26.93 12.47 26.78 12.73 26.93 12.99 26.61 13 26.44 13.26"/>
      <path d="M201.69,326.65l-0.2-.29h-0.3l0.13-.31-0.15-.23,0.35-.05,0.15-.24,0.22,0.25h0.3l-0.13.31,0.15,0.23-0.35.05-0.17.28h0Zm-0.17-.33,0.17,0.23,0.15-.22,0.35,0-0.18-.22,0.15-.29-0.3,0-0.2-.27-0.13.25-0.35,0,0.18,0.22-0.15.29,0.3,0h0Z" transform="translate(-175.26 -313.34)"/>
      <polygon class="j" points="25.1 13.26 24.93 13 24.6 12.99 24.75 12.73 24.6 12.47 24.93 12.46 25.1 12.2 25.27 12.46 25.6 12.47 25.45 12.73 25.6 12.99 25.27 13 25.1 13.26"/>
      <path d="M200.36,326.65l-0.2-.29h-0.3l0.13-.31-0.15-.23,0.35-.05,0.15-.24,0.22,0.25h0.3l-0.13.31,0.15,0.23-0.35.05-0.17.28h0Zm-0.17-.33,0.17,0.23,0.15-.22,0.35,0-0.18-.22,0.15-.29-0.3,0-0.2-.27-0.12.25-0.35,0,0.18,0.22-0.15.29,0.3,0h0Z" transform="translate(-175.26 -313.34)"/>
      <polygon class="j" points="23.95 13.48 23.74 13.25 23.42 13.28 23.53 13 23.34 12.76 23.66 12.71 23.8 12.44 24.01 12.67 24.33 12.64 24.22 12.92 24.41 13.16 24.09 13.21 23.95 13.48"/>
      <path d="M199.21,326.87l-0.24-.26-0.3,0,0.09-.32-0.19-.21,0.34-.09,0.11-.26,0.25,0.22,0.3,0-0.09.32,0.19,0.21-0.34.1-0.13.29h0Zm-0.22-.31,0.2,0.21,0.12-.23,0.34-.06-0.21-.2,0.11-.31-0.3.07L199,325.8l-0.09.27-0.34.06,0.21,0.2-0.11.31,0.3-.07h0Z" transform="translate(-175.26 -313.34)"/>
      <polygon class="j" points="27.7 13.45 27.9 13.22 28.23 13.25 28.11 12.97 28.3 12.72 27.98 12.68 27.84 12.4 27.64 12.63 27.31 12.61 27.43 12.89 27.24 13.13 27.56 13.18 27.7 13.45"/>
      <path d="M202.94,326.84l-0.16-.31-0.3,0,0.17-.29-0.12-.25h0.35l0.18-.22,0.18,0.28,0.3,0-0.17.29,0.12,0.25h-0.35l-0.21.25h0Zm-0.38-.86,0.14,0.24-0.19.27h0.3l0.14,0.25,0.18-.2,0.35,0-0.14-.24,0.19-.27h-0.3l-0.16-.29-0.16.24-0.35,0h0Z" transform="translate(-175.26 -313.34)"/>
      <polygon class="j" points="28.77 13.95 29.02 13.76 29.34 13.85 29.29 13.56 29.53 13.36 29.22 13.25 29.15 12.96 28.9 13.14 28.58 13.05 28.63 13.35 28.39 13.55 28.7 13.66 28.77 13.95"/>
      <path d="M204,327.34l-0.08-.33-0.29-.09,0.23-.25-0.06-.27,0.35,0.06,0.23-.18,0.12,0.31,0.29,0.09-0.23.25,0.06,0.27-0.35-.06-0.26.21h0Zm-0.18-.92,0.09,0.26-0.25.23L204,327l0.08,0.27,0.22-.16,0.34,0.08-0.09-.26,0.25-.23-0.3-.06-0.09-.31-0.21.2-0.34-.09h0Z" transform="translate(-175.26 -313.34)"/>
      <polygon class="j" points="22.84 13.88 22.58 13.7 22.27 13.79 22.32 13.49 22.08 13.29 22.39 13.18 22.46 12.89 22.71 13.08 23.02 12.99 22.98 13.28 23.21 13.48 22.91 13.59 22.84 13.88"/>
      <path d="M198.11,327.27l-0.29-.21-0.29.09v-0.33l-0.23-.17,0.31-.16,0.05-.27,0.3,0.17,0.29-.09v0.33l0.23,0.18-0.31.16-0.06.31h0Zm-0.28-.26,0.25,0.17,0.06-.25,0.32-.13-0.25-.15,0-.32-0.28.12-0.28-.19,0,0.27-0.32.13,0.25,0.15,0,0.32,0.28-.12h0Z" transform="translate(-175.26 -313.34)"/>
      <polygon class="k" points="0 0 0 34.37 17.19 17.19 0 0"/>
    </g>
  </g>
</svg>
