<svg xmlns="http://www.w3.org/2000/svg" xmlns:xlink="http://www.w3.org/1999/xlink" viewBox="0 0 58.93 34.37">
  <defs>
    <style>
      .a {
        fill: none;
      }

      .b {
        clip-path: url(#a);
      }

      .c {
        fill: #d6003f;
      }

      .d {
        fill: #f4c638;
      }

      .e {
        fill: #5784d9;
      }

      .f {
        fill: #49ae32;
      }
    </style>
    <clipPath id="a" transform="translate(-245.95 -313.34)">
      <rect class="a" x="245.95" y="313.34" width="58.93" height="34.37"/>
    </clipPath>
  </defs>
  <title>Eritrea</title>
  <g class="b">
    <rect class="c" width="58.93" height="34.37"/>
    <g class="b">
      <path class="d" d="M259.35,338.72a1.44,1.44,0,0,0-1.16,1.33h3.66a1.44,1.44,0,0,0-1.18-1.34c3.58-.08,6.69-1.42,7.26-2.28-0.56-.24-1.21.15-1.67,0.06,1.09-.5,4.37-2.63,3.84-4.9a5.31,5.31,0,0,1-2.21,2.59c1.23-1.86,2.9-3.8,1.45-5.3a2.26,2.26,0,0,1-.83,1.9c0.71-2,1.39-4.43-.15-6.06,0.2,0.59.12,2.25-.16,2.32-0.09-1.34-.31-4.15-1.72-4.11a4,4,0,0,1,.65,2.58,4,4,0,0,0-1.47-1.87,8.19,8.19,0,0,0-2.88-2.93,3.08,3.08,0,0,0,1.46,2.49c-0.64,0-1.28-1.26-2-1.29s-1,.49-1.86.2a5.81,5.81,0,0,0,.6.64,1.3,1.3,0,0,1-1-.21,2.14,2.14,0,0,0,2,1,3.6,3.6,0,0,1,2.51.4,4.36,4.36,0,0,1-1.56,0,2,2,0,0,0,1.64.8c0.75,0,1.14-.4,1.33-0.15a12.73,12.73,0,0,1,1.17,1.76c-0.86.1-.6-1-1.57-1.53-0.54,1.12.62,2.45,1.41,3a4.46,4.46,0,0,0,.49,2.19,2.77,2.77,0,0,1,.43,1.93,2.87,2.87,0,0,1-.77-2.43,1.34,1.34,0,0,0-.55,1.73,1.79,1.79,0,0,1,.11,1.51,1,1,0,0,0-.26,1,1.73,1.73,0,0,1-.59,1.23,2.48,2.48,0,0,0,.08-1.1,18.64,18.64,0,0,0-1.27,1.55c-0.23.54-.29,1.47-1.39,1.69a12.08,12.08,0,0,0-2.83.9c-0.1-.69.2-2.14,0.78-2.06s2.29-.59,1.67-2a1.21,1.21,0,0,1-1,.92c0.47-.62,1.32-1.25.91-2.28a2.94,2.94,0,0,1-1.13,1.26c0.59-1.12.07-1.46-.63-0.53a5.56,5.56,0,0,0-.59,2c-0.27-.74-0.25-1.71-0.58-2.5a0.7,0.7,0,0,1,.82-1c0.91,0.24,2.42.24,2.31-1.26a1.69,1.69,0,0,1-1.82.48c0.83-.61,1.49-1.75.56-2.35a2.16,2.16,0,0,1-1.17,1.67,3.51,3.51,0,0,1,0-1.72,5,5,0,0,0-.84,2.09,7,7,0,0,1,.28-2c0.19-.71.67-0.25,1.39-0.2a1.22,1.22,0,0,0,1.48-1.29,1.29,1.29,0,0,1-1.23.48c0.6-.37,1.66-1,1.08-2a1.24,1.24,0,0,1-1,.82,1.85,1.85,0,0,1,.76-1.26c-1-.19-1.53.45-1.81,1.44a13.88,13.88,0,0,1-.28-1.45,1.15,1.15,0,0,0-.56-2,2.45,2.45,0,0,0,.08,1.21,1.54,1.54,0,0,0-1.78,0,1.29,1.29,0,0,0,1.67.29c-0.19.63-.69,0.52-1.37,0.28a1.34,1.34,0,0,0,1.53.83c0.3,0.8.32,1.41-.57,2.58a2.12,2.12,0,0,0-.59-1.85c-0.49-.48-0.9,0-0.12,1.1a3.3,3.3,0,0,1-1.16-1.75,3.2,3.2,0,0,0,.46,2.46c-0.23.24-.48,0-0.86-0.62,0.14,1.89,1,2.26,2,1.84,0,1,0,2,.09,3.26a5.21,5.21,0,0,0-1.89-1.76,2.19,2.19,0,0,0,.68,1.54,5.91,5.91,0,0,1-1.42-.84c-0.1.85,1,1.63,1.7,2a2.33,2.33,0,0,1-1.73-.86c0,2.34,2.54,1.94,3,1.58,0.06,1.15.15,2.49,0.21,3.64-0.72-.12-0.66-0.34-1.27-0.4-1.7-.07-3-2-3.49-3.49-0.13.24,0,.49-0.14,0.78a6,6,0,0,0-1.1-2.06,4.69,4.69,0,0,1,.09,1.61,3.32,3.32,0,0,1-.32-1.25,8.6,8.6,0,0,0,.41-1.43c0-.46-0.44-1.47-0.5-2.25a8.65,8.65,0,0,1-.65,2.15,9,9,0,0,1,.37-2,2.25,2.25,0,0,0,.36-1.76,5.77,5.77,0,0,1-.62,1,2.59,2.59,0,0,1,1.35-2A1.54,1.54,0,0,0,255,325a10.13,10.13,0,0,0-1.36,1.6,2.92,2.92,0,0,1,3.22-2.37,1.34,1.34,0,0,0,1.18-.56,2.5,2.5,0,0,1-1.36.09,1.87,1.87,0,0,1,1.63-.41,1.58,1.58,0,0,0,1.58-.78,3.53,3.53,0,0,1-2.14.13c0.95-.49,2.43-0.54,3.19-1.19-0.87-.65-3,0.15-4.4,1.09a9.38,9.38,0,0,0,1.32-1.47c-0.75-.36-2.64,1.74-3.29,3a3.12,3.12,0,0,0-1.11,1.28c0.33-1.12.36-1.92,0.64-2.84-2.12.73-1.24,4.65-1.7,5.59a6.1,6.1,0,0,0-.42-3.05c-0.65.5-.71,3.43-0.09,5.88a12.27,12.27,0,0,1-.77-2.06c-1,1.76.57,3.85,1.85,5.49a8.17,8.17,0,0,1-2.55-2.49c0.17,3.16,3.47,3.81,4,4.59-0.69-.32-2-1-2.59-0.29a6.83,6.83,0,0,1,2.24.85c0.86,1.07,2.48,1.54,5.3,1.65h0Z" transform="translate(-245.95 -313.34)"/>
      <polygon class="e" points="0 34.37 58.93 34.35 58.92 17.19 0 34.37"/>
      <polygon class="f" points="0 0 58.93 0.02 58.92 17.19 0 0"/>
    </g>
  </g>
</svg>
