<svg xmlns="http://www.w3.org/2000/svg" xmlns:xlink="http://www.w3.org/1999/xlink" viewBox="0 0 58.92 34.37">
  <defs>
    <style>
      .a {
        fill: none;
      }

      .b {
        clip-path: url(#a);
      }

      .c {
        fill: #213095;
      }

      .d {
        fill: #f5cb27;
      }
    </style>
    <clipPath id="a" transform="translate(-458.02 -313.34)">
      <rect class="a" x="458.02" y="313.34" width="58.92" height="34.37"/>
    </clipPath>
  </defs>
  <title>European_Union</title>
  <g class="b">
    <rect class="c" width="58.92" height="34.37"/>
    <polygon class="d" points="29.46 3.82 29.03 5.14 27.65 5.14 28.77 5.96 28.34 7.28 29.46 6.46 30.58 7.28 30.16 5.96 31.28 5.14 29.89 5.14 29.46 3.82"/>
    <polygon class="d" points="29.89 28.05 29.46 26.73 29.03 28.05 27.65 28.05 28.77 28.87 28.34 30.19 29.46 29.38 30.58 30.19 30.16 28.87 31.28 28.05 29.89 28.05"/>
    <polygon class="d" points="18 17.92 19.13 18.73 18.7 17.41 19.82 16.6 18.43 16.6 18 15.28 17.58 16.6 16.19 16.6 17.31 17.41 16.88 18.73 18 17.92"/>
    <polygon class="d" points="23.73 5.36 23.3 6.68 21.92 6.68 23.04 7.49 22.61 8.81 23.73 7.99 24.86 8.81 24.43 7.49 25.55 6.68 24.16 6.68 23.73 5.36"/>
    <polygon class="d" points="19.54 9.55 19.11 10.87 17.72 10.87 18.85 11.69 18.42 13 19.54 12.19 20.66 13 20.23 11.69 21.36 10.87 19.97 10.87 19.54 9.55"/>
    <polygon class="d" points="19.97 22.33 19.54 21.01 19.11 22.33 17.72 22.33 18.85 23.14 18.42 24.46 19.54 23.65 20.66 24.46 20.23 23.14 21.36 22.33 19.97 22.33"/>
    <polygon class="d" points="24.16 26.52 23.73 25.2 23.3 26.52 21.92 26.52 23.04 27.34 22.61 28.66 23.73 27.84 24.86 28.66 24.43 27.34 25.55 26.52 24.16 26.52"/>
    <polygon class="d" points="42.74 16.6 41.35 16.6 40.92 15.28 40.49 16.6 39.1 16.6 40.23 17.41 39.8 18.73 40.92 17.92 42.04 18.73 41.61 17.41 42.74 16.6"/>
    <polygon class="d" points="35.19 5.36 34.76 6.68 33.38 6.68 34.5 7.49 34.07 8.81 35.19 7.99 36.31 8.81 35.88 7.49 37.01 6.68 35.62 6.68 35.19 5.36"/>
    <polygon class="d" points="38.69 11.69 38.26 13 39.38 12.19 40.51 13 40.08 11.69 41.2 10.87 39.81 10.87 39.38 9.55 38.95 10.87 37.57 10.87 38.69 11.69"/>
    <polygon class="d" points="39.81 22.33 39.38 21.01 38.95 22.33 37.57 22.33 38.69 23.14 38.26 24.46 39.38 23.65 40.51 24.46 40.08 23.14 41.2 22.33 39.81 22.33"/>
    <polygon class="d" points="35.62 26.52 35.19 25.2 34.76 26.52 33.38 26.52 34.5 27.34 34.07 28.66 35.19 27.84 36.31 28.66 35.88 27.34 37.01 26.52 35.62 26.52"/>
  </g>
</svg>
