<svg xmlns="http://www.w3.org/2000/svg" xmlns:xlink="http://www.w3.org/1999/xlink" viewBox="0 0 58.92 34.37">
  <defs>
    <style>
      .a {
        fill: none;
      }

      .b {
        clip-path: url(#a);
      }

      .c, .p {
        fill: #fdffff;
      }

      .d {
        fill: #ca1f2a;
      }

      .e {
        fill: #3d9347;
      }

      .f {
        fill: #fdf8f8;
      }

      .f, .i, .j, .k, .l, .o, .p {
        fill-rule: evenodd;
      }

      .g, .k {
        fill: #9a8b42;
      }

      .h {
        clip-path: url(#b);
      }

      .i {
        fill: #3c3470;
      }

      .j {
        fill: #2b683b;
      }

      .l {
        fill: #c4002c;
      }

      .m {
        fill: #d30033;
      }

      .n, .o {
        fill: #fcf8fc;
      }

      .q {
        fill: #fff;
      }
    </style>
    <clipPath id="a" transform="translate(-175.26 -140.8)">
      <rect class="a" x="175.26" y="140.8" width="58.92" height="34.37"/>
    </clipPath>
    <clipPath id="b" transform="translate(-175.26 -140.8)">
      <rect class="a" x="175.26" y="140.8" width="58.92" height="34.37"/>
    </clipPath>
  </defs>
  <title>Bosnia_and_Herzegovina</title>
  <g class="b">
    <rect class="c" x="10.59" width="37.91" height="34.37"/>
    <rect class="d" width="10.93" height="34.37"/>
    <rect class="e" x="48" width="10.93" height="34.37"/>
    <polygon class="f" points="19.98 6.81 39.09 6.81 39.09 16.2 19.98 16.16 19.98 6.81"/>
    <path class="g" d="M214.59,157.24l-19.6,0v-9.84h19.6v9.88h0Zm-19.11-.53,18.62,0v-8.9H195.48v8.86h0Z" transform="translate(-175.26 -140.8)"/>
    <g class="h">
      <path class="i" d="M214.34,156.81c-0.15,11-9.2,10.49-9.58,11.93-0.39-1.5-9.52-1.29-9.53-12Z" transform="translate(-175.26 -140.8)"/>
      <path class="g" d="M204.76,169.71l-0.24-.91a3.51,3.51,0,0,0-1.64-.89c-2.76-1.08-7.89-3.1-7.9-11.14v-0.25l19.6,0v0.25c-0.11,8.36-5.27,10.21-8,11.21a3.3,3.3,0,0,0-1.55.78l-0.24.91h0ZM195.48,157c0.11,7.5,4.78,9.34,7.58,10.44a5.71,5.71,0,0,1,1.71.85,5.52,5.52,0,0,1,1.61-.74c2.63-.95,7.5-2.7,7.71-10.51l-18.61,0h0Z" transform="translate(-175.26 -140.8)"/>
      <path class="j" d="M196.23,148.53h7.5v3.71a4.85,4.85,0,0,1-3.83,4,4.81,4.81,0,0,1-3.66-4v-3.71Z" transform="translate(-175.26 -140.8)"/>
      <path class="g" d="M199.88,156.32h0a5,5,0,0,1-3.76-4.07v-3.84h7.73v3.83a5,5,0,0,1-3.94,4.08h0Zm-3.54-7.67v3.59a4.7,4.7,0,0,0,3.55,3.84,4.72,4.72,0,0,0,3.71-3.86v-3.58h-7.26Z" transform="translate(-175.26 -140.8)"/>
      <path class="k" d="M200.24,154.81l0.07-.48h0.23V154h-0.19l0.06-.42h0.72v-0.34h-0.57a0.81,0.81,0,0,1,1.21-.44,0.58,0.58,0,0,1-.06.78,0.8,0.8,0,0,0,.92-0.81,0.94,0.94,0,0,0-1.46-.71,1.48,1.48,0,0,0-.82,1.14c0,0.06-.1,0-0.12,0-0.08-.77.61-1.68,0.63-2.57s-0.67-1.19-.93-1.67c-0.26.48-.88,0.65-0.93,1.67s0.72,1.8.63,2.57c0,0-.11,0-0.12,0a1.48,1.48,0,0,0-.82-1.14,0.94,0.94,0,0,0-1.46.71,0.8,0.8,0,0,0,.91.81,0.58,0.58,0,0,1-.06-0.78,0.81,0.81,0,0,1,1.21.44h-0.57v0.34h0.72l0.06,0.42h-0.19v0.31h0.23l0.07,0.48h0.63Z" transform="translate(-175.26 -140.8)"/>
      <path class="l" d="M205.86,148.48h7.46l0,4.47a3.93,3.93,0,0,1-3.73,3.17c-1.5,0-3.78-1.4-3.73-3.17Z" transform="translate(-175.26 -140.8)"/>
      <path class="m" d="M209.64,156.32h0a4.69,4.69,0,0,1-3.07-1.41,2.71,2.71,0,0,1-.86-2l-0.05-4.66h7.85l0.05,4.67a4.11,4.11,0,0,1-3.93,3.37h0Zm-3.58-7.64,0,4.28a2.38,2.38,0,0,0,.75,1.69,4.27,4.27,0,0,0,2.78,1.29,3.74,3.74,0,0,0,3.53-3l0-4.26h-7.06Z" transform="translate(-175.26 -140.8)"/>
      <rect class="n" x="32.21" y="7.75" width="1.45" height="1.52"/>
      <rect class="n" x="35.09" y="7.75" width="1.41" height="1.54"/>
      <rect class="n" x="30.7" y="9.26" width="1.53" height="1.45"/>
      <rect class="n" x="33.63" y="9.28" width="1.46" height="1.42"/>
      <rect class="n" x="32.21" y="10.71" width="1.44" height="1.44"/>
      <rect class="n" x="35.06" y="10.69" width="1.43" height="1.52"/>
      <path class="o" d="M206,152.94h1.49v1.43h-1a3.21,3.21,0,0,1-.37-0.68,2.68,2.68,0,0,1-.13-0.76h0Z" transform="translate(-175.26 -140.8)"/>
      <rect class="n" x="33.65" y="12.15" width="1.45" height="1.43"/>
      <path class="o" d="M207.46,154.36h1.41v1.5l-0.33,0a6.93,6.93,0,0,1-1.08-.55v-0.93Z" transform="translate(-175.26 -140.8)"/>
      <path class="o" d="M210.32,154.36h1.43v1a4.5,4.5,0,0,1-1.11.55h-0.32v-1.52Z" transform="translate(-175.26 -140.8)"/>
      <rect class="n" x="36.49" y="9.28" width="1.55" height="1.42"/>
      <path class="o" d="M211.75,153h1.55a3.39,3.39,0,0,1-.22.78,3.2,3.2,0,0,1-.36.6h-1V153Z" transform="translate(-175.26 -140.8)"/>
      <polygon class="p" points="29.12 16.75 29.12 16.75 29.12 17.27 28.68 17.51 29.12 17.76 29.12 18.26 29.56 18.01 30 18.26 30 18.26 30 17.76 30.44 17.5 30 17.25 30 16.74 29.56 17 29.12 16.75"/>
      <path class="q" d="M205.28,159.1l0,0-0.44-.25-0.42.25,0-.53-0.43-.23,0.44-.29,0-.5,0.48,0.23,0.41-.26,0,0.53,0.43,0.23-0.44.31v0.52h0Zm-0.92-1.53,0,0.5-0.45.27,0.44,0.21v0.53l0.41-.28,0.42,0.23v-0.46l0.45-.29-0.44-.21v-0.53l-0.4.28-0.47-.25h0Z" transform="translate(-175.26 -140.8)"/>
      <polygon class="p" points="31.87 17.39 31.87 17.38 31.56 17.8 31.06 17.72 31.25 18.19 30.95 18.59 31.45 18.66 31.64 19.12 31.64 19.12 31.95 18.73 32.46 18.79 32.26 18.32 32.57 17.92 32.07 17.86 31.87 17.39"/>
      <path class="q" d="M206.89,160l0,0-0.19-.47-0.49-.06,0.29-.44-0.2-.44,0.52,0,0.29-.4,0.24,0.48,0.48,0-0.29.44,0.2,0.44-0.53,0-0.31.42h0Zm-0.58-1.42,0.22,0.43-0.31.42,0.49,0,0.19,0.44,0.28-.36,0.53,0-0.22-.43,0.31-.42-0.49,0-0.22-.49-0.27.41-0.52-.06h0Z" transform="translate(-175.26 -140.8)"/>
      <polygon class="p" points="33.58 19.38 33.58 19.38 33.09 19.53 32.72 19.19 32.62 19.68 32.14 19.83 32.51 20.18 32.4 20.67 32.4 20.67 32.88 20.52 33.26 20.86 33.37 20.37 33.85 20.22 33.48 19.88 33.58 19.38"/>
      <path class="q" d="M208.53,161.71l-0.42-.37-0.45.15,0.08-.52-0.37-.32,0.49-.19L208,160l0.41,0.33,0.47-.16-0.08.53,0.37,0.32-0.49.19-0.1.52h0Zm-0.41-.41,0.38,0.32,0.1-.46,0.5-.17-0.38-.3,0.1-.52-0.46.18L208,160l-0.06.48-0.5.17,0.38,0.31-0.1.52,0.45-.18h0Z" transform="translate(-175.26 -140.8)"/>
      <polygon class="p" points="33.85 22.03 33.85 22.03 33.35 21.88 33.25 21.38 32.88 21.73 32.4 21.58 32.51 22.07 32.14 22.42 32.14 22.42 32.62 22.57 32.74 23.06 33.11 22.72 33.59 22.87 33.48 22.38 33.85 22.03"/>
      <path class="q" d="M208,163.91l-0.13-.54-0.46-.13,0.36-.38-0.12-.47,0.51,0.12,0.34-.34,0.14,0.5,0.48,0.13-0.37.39,0.12,0.47-0.51-.12-0.37.37h0Zm-0.33-1.51,0.14,0.47-0.38.36,0.47,0.11,0.13,0.48,0.34-.32,0.51,0.15-0.15-.46,0.38-.37-0.48-.11-0.12-.51-0.33.36-0.51-.15h0Z" transform="translate(-175.26 -140.8)"/>
      <polygon class="p" points="32.41 24.47 32.42 24.47 32.12 24.04 32.34 23.59 31.84 23.64 31.55 23.22 31.33 23.68 30.83 23.73 30.83 23.73 31.11 24.14 30.9 24.61 31.41 24.56 31.7 24.97 31.91 24.52 32.41 24.47"/>
      <path class="q" d="M207,165.82l-0.31-.45-0.48.06,0.18-.5-0.28-.38,0.52-.08,0.2-.45,0.33,0.41,0.48-.06-0.19.49,0.3,0.4-0.53.09-0.21.48h0Zm-0.3-.49,0.29,0.39,0.19-.42,0.53-.06-0.31-.39,0.22-.48-0.48.08-0.31-.42-0.18.46-0.52.05,0.3,0.37-0.2.49,0.48-.08h0Z" transform="translate(-175.26 -140.8)"/>
      <polygon class="p" points="30 25.5 30.01 25.5 30 24.99 30.44 24.74 30 24.49 30 23.99 29.56 24.24 29.12 23.99 29.12 23.99 29.12 24.49 28.68 24.76 29.12 25 29.12 25.51 29.56 25.25 30 25.5"/>
      <path class="q" d="M204.36,166.35V165.8l-0.43-.23,0.44-.31v-0.47l0.47,0.23,0.42-.25,0,0.53,0.43,0.23-0.44.29,0,0.5-0.48-.23-0.45.28h0Zm0.45-.32,0.47,0.25,0-.5,0.45-.27-0.44-.21v-0.53l-0.41.28-0.46-.25,0,0.48-0.45.29,0.44,0.21v0.48l0.4-.23h0Z" transform="translate(-175.26 -140.8)"/>
      <polygon class="p" points="26.57 17.93 26.57 17.93 26.89 18.34 26.7 18.8 27.2 18.73 27.51 19.12 27.7 18.65 28.2 18.58 28.2 18.57 27.89 18.18 28.07 17.7 27.57 17.78 27.26 17.38 27.08 17.85 26.57 17.93"/>
      <path class="q" d="M202.77,160l-0.34-.43-0.48.08,0.17-.5-0.32-.38,0.52-.12,0.16-.45,0.35,0.39,0.48-.08-0.15.51,0.3,0.37-0.51.11-0.19.5h0Zm-0.32-.47,0.31,0.37,0.18-.43,0.52-.09-0.32-.35,0.18-.5-0.47.11-0.33-.41-0.14.46-0.52.09,0.34,0.37-0.19.49,0.47-.11h0Z" transform="translate(-175.26 -140.8)"/>
      <polygon class="p" points="27.27 24.87 27.27 24.87 27.58 24.45 28.08 24.51 27.87 24.05 28.17 23.64 27.66 23.58 27.46 23.12 27.45 23.12 27.16 23.52 26.65 23.48 26.86 23.94 26.56 24.35 27.06 24.4 27.27 24.87"/>
      <path class="q" d="M202.53,165.71l0,0-0.21-.47-0.48,0,0.28-.45-0.21-.44h0.54l0.27-.39,0.25,0.46,0.49,0-0.28.45,0.21,0.44-0.52,0-0.3.44h0Zm-0.63-1.4,0.23,0.43-0.3.43h0.49l0.21,0.45,0.28-.39,0.52,0.05-0.23-.43,0.3-.43-0.49,0-0.22-.48-0.25.41-0.53,0h0Z" transform="translate(-175.26 -140.8)"/>
      <polygon class="p" points="25.43 22.73 25.42 22.73 25.92 22.58 26.28 22.93 26.4 22.44 26.88 22.3 26.52 21.95 26.64 21.46 26.63 21.46 26.16 21.6 25.78 21.25 25.66 21.74 25.18 21.88 25.54 22.23 25.43 22.73"/>
      <path class="q" d="M201.55,163.78l-0.39-.38-0.47.15,0.09-.53-0.36-.32,0.5-.18L201,162l0.42,0.33,0.45-.14-0.09.52,0.36,0.33-0.49.18-0.11.51h0Zm-0.38-.42,0.35,0.33,0.11-.45,0.5-.16-0.38-.31,0.11-.51-0.45.17-0.4-.35-0.08.48-0.5.16,0.38,0.31-0.11.52,0.47-.17h0Z" transform="translate(-175.26 -140.8)"/>
      <polygon class="p" points="25.22 20.11 25.21 20.11 25.71 20.27 25.8 20.77 26.18 20.43 26.66 20.59 26.56 20.09 26.94 19.76 26.93 19.76 26.46 19.6 26.35 19.1 25.97 19.44 25.5 19.27 25.6 19.77 25.22 20.11"/>
      <path class="q" d="M201,161.61l-0.1-.54-0.48-.14,0.37-.38-0.11-.47,0.51,0.13,0.35-.33,0.15,0.51,0.45,0.14-0.37.38,0.11,0.48-0.51-.13-0.38.36h0Zm-0.3-1.52,0.14,0.47-0.39.36L201,161l0.1,0.47,0.34-.31,0.5,0.16-0.13-.47,0.39-.36-0.46-.12-0.13-.52-0.34.35-0.5-.16h0Z" transform="translate(-175.26 -140.8)"/>
    </g>
  </g>
</svg>
