<svg xmlns="http://www.w3.org/2000/svg" xmlns:xlink="http://www.w3.org/1999/xlink" viewBox="0 0 58.92 34.37">
  <defs>
    <style>
      .a {
        fill: none;
      }

      .b {
        clip-path: url(#a);
      }

      .c {
        fill: #6cb2dd;
      }

      .d {
        fill: #fff;
      }

      .e {
        fill: #c0003b;
      }

      .f {
        fill: #192967;
      }

      .g {
        fill: #bc0030;
      }

      .h {
        fill: #f3edeb;
      }

      .i {
        fill: #f5d028;
      }

      .j {
        fill: #30770e;
      }

      .k {
        fill: #28620a;
      }

      .l {
        fill: #a87f36;
      }

      .m {
        fill: #1d4805;
      }
    </style>
    <clipPath id="a" transform="translate(-668.5 -313.34)">
      <rect class="a" x="668.5" y="313.34" width="58.92" height="34.37"/>
    </clipPath>
  </defs>
  <title>Fiji</title>
  <g class="b">
    <rect class="c" width="58.92" height="34.37"/>
    <g class="b">
      <path class="d" d="M707.27,324.27v7.32c0.15,4.51,2.42,6.13,5.58,7.45,3.62-1.6,5.46-3.57,5.46-7.45v-7.32h-11Z" transform="translate(-668.5 -313.34)"/>
      <path d="M712.84,339.1h0c-3.36-1.41-5.47-3.16-5.61-7.51v-7.38h11.16v7.38c0,3.65-1.54,5.76-5.5,7.51h0Zm-5.52-14.78v7.26c0.14,4.29,2.13,6,5.52,7.39,3.89-1.72,5.41-3.8,5.41-7.39v-7.26H707.33Z" transform="translate(-668.5 -313.34)"/>
      <path class="e" d="M707.26,331.46a12.17,12.17,0,0,0,.26,2.13h10.55a12.76,12.76,0,0,0,.26-2.12H707.26Z" transform="translate(-668.5 -313.34)"/>
      <path class="e" d="M711.72,327.79v10.7c0.52,0.26,1.19.56,1.19,0.56s0.45-.29.93-0.53V327.79h-2.12Z" transform="translate(-668.5 -313.34)"/>
      <rect class="f" width="29.53" height="14.76"/>
      <polygon class="d" points="0 0 0 1.65 26.23 14.76 29.52 14.76 29.52 13.11 3.3 0 0 0"/>
      <polygon class="d" points="29.52 0 29.52 1.65 3.3 14.76 0 14.76 0 13.11 26.23 0 29.52 0"/>
      <rect class="d" x="12.3" width="4.92" height="14.76"/>
      <rect class="d" y="4.92" width="29.53" height="4.92"/>
      <rect class="g" y="5.9" width="29.53" height="2.95"/>
      <rect class="g" x="13.29" width="2.95" height="14.76"/>
      <polygon class="e" points="0 14.76 9.84 9.84 12.04 9.84 2.2 14.76 0 14.76"/>
      <polygon class="e" points="0 0 9.84 4.92 7.64 4.92 0 1.1 0 0"/>
      <polygon class="e" points="17.48 4.92 27.33 0 29.52 0 19.68 4.92 17.48 4.92"/>
      <polygon class="e" points="29.52 14.76 19.68 9.84 21.89 9.84 29.52 13.66 29.52 14.76"/>
      <rect class="e" x="38.75" y="10.9" width="11.07" height="3.95"/>
      <path class="h" d="M707.85,326.08h0a0.42,0.42,0,0,1,.35.46h0a0.42,0.42,0,0,1-.35.46h0a0.42,0.42,0,0,1-.35-0.46h0a0.42,0.42,0,0,1,.35-0.46h0Z" transform="translate(-668.5 -313.34)"/>
      <path d="M707.86,327h0a0.48,0.48,0,1,1,.36-0.47,0.42,0.42,0,0,1-.36.47h0Zm0-.92a0.41,0.41,0,0,0-.35.45,0.41,0.41,0,0,0,.34.46h0a0.47,0.47,0,0,0,0-.91h0Z" transform="translate(-668.5 -313.34)"/>
      <path class="i" d="M716,325.84a1.8,1.8,0,0,0,.86-0.26c0.22-.22-0.15-0.62.09-0.66a0.42,0.42,0,0,1,.33.13,0.6,0.6,0,0,0-.1-0.18,0.44,0.44,0,0,0-.3-0.06c-0.09,0-.1,0-0.25-0.16a0.35,0.35,0,0,1,0-.35,0.24,0.24,0,0,0-.12.29,1.77,1.77,0,0,1,.08.26,0.79,0.79,0,0,0-.59-0.22c-0.46,0-1.6.27-2.12,0.27a6.69,6.69,0,0,1-1.27-.18s0.19-.13,0-0.19a3.33,3.33,0,0,1-.88.05,0.19,0.19,0,0,1-.08-0.16,0.16,0.16,0,0,0,0,.21c0.06,0.11.09,0.07,0.08,0.07a0.29,0.29,0,0,0-.2.05,0.23,0.23,0,0,0,0,.24c0-.15-0.09-0.17.17-0.19a2.9,2.9,0,0,1,.67.12c0.22,0,.22-0.08.23-0.08a4.9,4.9,0,0,0,1.31.13,19.64,19.64,0,0,1,2.09-.27,0.8,0.8,0,0,1,.77.62,0.38,0.38,0,0,1-.37.27l-0.64.07Z" transform="translate(-668.5 -313.34)"/>
      <path d="M716,325.85h0l-0.25-.15,0.64-.08a0.4,0.4,0,0,0,.36-0.27,0.8,0.8,0,0,0-.77-0.61,4.68,4.68,0,0,0-1.16.13,7.88,7.88,0,0,1-.93.14,5,5,0,0,1-1.31-.13,6,6,0,0,0,1.31.12,8,8,0,0,0,.93-0.14,4.62,4.62,0,0,1,1.16-.13,0.79,0.79,0,0,1,.78.62,0.41,0.41,0,0,1-.37.28l-0.64.07,0.25,0.14a1.79,1.79,0,0,0,.86-0.26,0.38,0.38,0,0,0,0-.4,0.29,0.29,0,0,1,0-.21,0.1,0.1,0,0,1,.07,0,0.44,0.44,0,0,1,.34.13,0.48,0.48,0,0,0-.08-0.12,0.32,0.32,0,0,0-.27-0.11h-0.1a0.26,0.26,0,0,1-.18-0.12,0.35,0.35,0,0,1-.05-0.4,0.25,0.25,0,0,0-.11.29,1.12,1.12,0,0,0,.05.15,0.27,0.27,0,0,1,0,.11,0.9,0.9,0,0,0-.6-0.22c-0.29,0-.7.07-1.09,0.13a7,7,0,0,1-1,.14,6.76,6.76,0,0,1-1.27-.18,0.23,0.23,0,0,0,.07-0.12,0.13,0.13,0,0,0-.11-0.07,1.18,1.18,0,0,0-.41,0,0.7,0.7,0,0,1-.48,0,0.21,0.21,0,0,1-.08-0.13s-0.06.06,0,.17a0.16,0.16,0,0,0,.05.07,0.24,0.24,0,0,0-.17.06,0.23,0.23,0,0,0,0,.23,0.65,0.65,0,0,0,0-.1v0a0.62,0.62,0,0,1,0,.14,0.22,0.22,0,0,1-.06-0.24,0.22,0.22,0,0,1,.18-0.06,0.1,0.1,0,0,1-.06-0.07,0.16,0.16,0,0,1,0-.22,0.28,0.28,0,0,0,.09.16,0.67,0.67,0,0,0,.46,0,1.17,1.17,0,0,1,.42,0,0.13,0.13,0,0,1,.12.08,0.15,0.15,0,0,1-.07.12h0a8,8,0,0,0,1.26.17,7.52,7.52,0,0,0,1-.14,7.46,7.46,0,0,1,1-.14,0.87,0.87,0,0,1,.62.2s0,0,0-.07a1.18,1.18,0,0,1-.05-0.15,0.25,0.25,0,0,1,.12-0.3,0.37,0.37,0,0,0,0,.36,0.36,0.36,0,0,0,.21.16h0.1a0.36,0.36,0,0,1,.25.06,0.48,0.48,0,0,1,.11.18,0.46,0.46,0,0,0-.31-0.12,0.12,0.12,0,0,0-.09,0,0.29,0.29,0,0,0,0,.21,0.4,0.4,0,0,1,0,.41,1.81,1.81,0,0,1-.87.26h0Zm-3.56-.89h-0.08l-0.24-.06a1.36,1.36,0,0,0-.38-0.07l-0.19,0a0.26,0.26,0,0,1,.14,0,1.24,1.24,0,0,1,.44.07l0.23,0.06c0.18,0,.21,0,0.22-0.07h0a0.13,0.13,0,0,1-.15.08h0Z" transform="translate(-668.5 -313.34)"/>
      <path class="i" d="M715.24,326a0.73,0.73,0,0,0-.55.23,1.51,1.51,0,0,0-.17.44l0.28-.19a1,1,0,0,0-.09.7c0.11,0.33-.29.31-0.51,0.32a1.88,1.88,0,0,0-.54-0.29,0.29,0.29,0,0,0-.36.17,1.13,1.13,0,0,0,.34-0.1,0.21,0.21,0,0,1,0,.13c-0.11,0-.23-0.18-0.37.17a0.32,0.32,0,0,1,.23-0.12c0.09,0,.08.05,0.08,0.05a0.17,0.17,0,0,0-.11.08,0.77,0.77,0,0,0-.09.16s0.06-.06.13-0.11a0.2,0.2,0,0,1,.23,0,1.26,1.26,0,0,0,1.2,0,1.05,1.05,0,0,1,.78-1.44l-0.51-.19h0Z" transform="translate(-668.5 -313.34)"/>
      <path d="M714.46,327.77h0a2.4,2.4,0,0,1-.69-0.12c-0.14,0-.17-0.05-0.22,0l-0.09.08h0l0.11-.09c0.05,0,.09,0,0.23,0a1.5,1.5,0,0,0,1.2,0,1,1,0,0,1,.78-1.44l-0.19-.06-0.32-.12a0.75,0.75,0,0,0-.54.24,1.63,1.63,0,0,0-.17.44l0.28-.19a1.09,1.09,0,0,0-.09.71,0.23,0.23,0,0,1,0,.21,0.59,0.59,0,0,1-.44.12h0a0.59,0.59,0,0,0,.45-0.12,0.22,0.22,0,0,0,0-.2,1,1,0,0,1,.09-0.71l-0.28.19a1.31,1.31,0,0,1,.17-0.45,0.73,0.73,0,0,1,.55-0.24l0.32,0.12,0.19,0.07a1,1,0,0,0-.79,1.37,0.17,0.17,0,0,1,0,.07,0.66,0.66,0,0,1-.52.14h0Zm-1.15-.18c0.08-.22.19-0.24,0.29-0.2l0.08,0a0.25,0.25,0,0,0,0-.1,0.15,0.15,0,0,1,0,.1l-0.08,0c-0.07,0-.15-0.14-0.29.19a0.3,0.3,0,0,1,.22-0.12,0.07,0.07,0,0,1,.09,0h0l-0.06,0a0.33,0.33,0,0,0-.24.12h0Zm0-.18,0,0a0.68,0.68,0,0,1,.28-0.09h0a0.57,0.57,0,0,0-.3.12h0Zm0.69,0a2.59,2.59,0,0,0-.35-0.15,0.22,0.22,0,0,0-.23,0,0.2,0.2,0,0,1,.24,0,1.73,1.73,0,0,1,.35.16h0Z" transform="translate(-668.5 -313.34)"/>
      <path class="i" d="M710,327.22c0.5,0.45,3.86-.48,4.29-0.8,0.24-.19.67-0.32,0.67,0.31a3.32,3.32,0,0,0,.11-0.53,1.55,1.55,0,0,1,.32.7c0-.47-0.06-0.74,0-0.71a4.58,4.58,0,0,0,.33.62c-0.06-.3-0.08-0.44-0.08-0.44a3,3,0,0,0,.85.65,4.55,4.55,0,0,1,.89,0,1,1,0,0,1,.36.58,2.25,2.25,0,0,1-.56.19c-0.05.16,0,.16,0,0.16l0.08,0.21c0-.07,0-0.21.07-0.22a0.24,0.24,0,0,1,.09.21,0.3,0.3,0,0,1,.06-0.23c0.07,0,.08.13,0.14,0.21v-0.21a0.5,0.5,0,0,0,.42-0.22,3.44,3.44,0,0,0-.4-0.7,0.69,0.69,0,0,0-.09-0.42c-0.15-.12-0.74.19-1,0.07s-0.16-1-1.19-1.14-3.79,1-4.28,1a3,3,0,0,1-1.09-.17v0.9Z" transform="translate(-668.5 -313.34)"/>
      <path d="M717.31,328.15l0-.1,0,0.07a0.3,0.3,0,0,0,0-.08c0-.06,0-0.13.07-0.14a0.15,0.15,0,0,1,.09.15c0-.11,0-0.18.07-0.18h0a0.13,0.13,0,0,1,.09.12,0.49,0.49,0,0,0,0,.1v-0.21l0.14,0a0.31,0.31,0,0,0,.28-0.18,0.76,0.76,0,0,0-.2-0.37,1.56,1.56,0,0,1-.2-0.32,0.44,0.44,0,0,1,0-.23,0.17,0.17,0,0,0-.07-0.19,0.7,0.7,0,0,0-.43,0,1.14,1.14,0,0,1-.58,0,0.53,0.53,0,0,1-.2-0.3,1.19,1.19,0,0,0-1-.84,9.6,9.6,0,0,0-3.26.72,7.73,7.73,0,0,1-1,.3,3,3,0,0,1-1.09-.17l0,0.89a0.88,0.88,0,0,0,.54.12,11.2,11.2,0,0,0,3.73-.92,0.71,0.71,0,0,1,.38-0.16c0.13,0,.29.08,0.29,0.47a4.23,4.23,0,0,0,.1-0.53,1.47,1.47,0,0,1,.33.69,3.55,3.55,0,0,0,0-.59,0.23,0.23,0,0,1,0-.12s0,0,.06.07a1.76,1.76,0,0,0,.29.55c-0.07-.3-0.09-0.44-0.09-0.44a3.26,3.26,0,0,0,.86.64,1.26,1.26,0,0,0,.48,0,0.54,0.54,0,0,1,.41,0,1.05,1.05,0,0,1,.36.58c0,0.11-.15.11-0.29,0.11a0.3,0.3,0,0,0-.27.07,0.2,0.2,0,0,0,0,.11,0.15,0.15,0,0,1,0-.11,0.29,0.29,0,0,1,.28-0.08c0.13,0,.28,0,0.28-0.1a1.06,1.06,0,0,0-.36-0.57,0.53,0.53,0,0,0-.4,0,1.24,1.24,0,0,1-.49,0,2.93,2.93,0,0,1-.85-0.64s0,0.16.09,0.43a1.59,1.59,0,0,1-.3-0.55,0.21,0.21,0,0,0,0-.07,0.12,0.12,0,0,0,0,.11,2.93,2.93,0,0,1,0,.6,1.75,1.75,0,0,0-.32-0.69,2.16,2.16,0,0,1-.1.53c0-.48-0.33-0.57-0.67-0.31a11.18,11.18,0,0,1-3.74.92h0a0.87,0.87,0,0,1-.55-0.12v-0.9h0a3.24,3.24,0,0,0,1.09.16,7.8,7.8,0,0,0,1-.3,9.62,9.62,0,0,1,3.26-.72,1.2,1.2,0,0,1,1,.85,0.53,0.53,0,0,0,.2.3,1.12,1.12,0,0,0,.57,0,0.71,0.71,0,0,1,.44,0,0.18,0.18,0,0,1,.07.2,0.42,0.42,0,0,0,0,.22,1.68,1.68,0,0,0,.2.32,0.72,0.72,0,0,1,.2.38,0.31,0.31,0,0,1-.29.19l-0.13,0v0.21a0.27,0.27,0,0,1-.05-0.1c-0.05-.14-0.13-0.09-0.13,0a0.46,0.46,0,0,1,0,.1,0.25,0.25,0,0,0-.1-0.2c-0.06,0-.06.07-0.06,0.13a0.28,0.28,0,0,1,0,.09h0Z" transform="translate(-668.5 -313.34)"/>
      <path class="i" d="M709.4,326.9a1.78,1.78,0,0,1-.89.65,2.42,2.42,0,0,1-.72-0.43c-0.08,0-.1,0-0.13-0.16a0.15,0.15,0,0,1,0-.17s0,0.2.05,0.21-0.06-.24.05-0.24a1,1,0,0,1,.06.27,0.72,0.72,0,0,1,0-.28s0.07,0.27.14,0.35a0.8,0.8,0,0,0,.48.27,5,5,0,0,0,.8-0.61Z" transform="translate(-668.5 -313.34)"/>
      <path d="M708.52,327.55h0a1,1,0,0,1-.56-0.32,0.69,0.69,0,0,0-.13-0.11,0.44,0.44,0,0,1,.14.1,1,1,0,0,0,.55.32h0a1.85,1.85,0,0,0,.87-0.65l-0.11-.12a1.19,1.19,0,0,0-.21.17,1.87,1.87,0,0,1-.59.44,0.8,0.8,0,0,1-.48-0.27,0.58,0.58,0,0,1-.08-0.21,0.23,0.23,0,0,0-.05-0.13,0.39,0.39,0,0,0,0,.19,0.19,0.19,0,0,1,0,.08,0.39,0.39,0,0,1,0-.15,0.8,0.8,0,0,0,0-.1,0.21,0.21,0,0,1,0,.09,0.83,0.83,0,0,0,0,.14V327a0.41,0.41,0,0,1,0-.2s0.05,0,.07.14a0.6,0.6,0,0,0,.08.21,0.78,0.78,0,0,0,.48.27,1.85,1.85,0,0,0,.58-0.43,0.88,0.88,0,0,1,.21-0.18l0.12,0.13a1.81,1.81,0,0,1-.88.66h0Z" transform="translate(-668.5 -313.34)"/>
      <path class="i" d="M709.41,326.53a2,2,0,0,0-.79-0.76,2.31,2.31,0,0,0-.77.22c-0.07,0-.1,0-0.14.11a0.14,0.14,0,0,0,0,.16,1.92,1.92,0,0,0,.08-0.18s-0.09.2,0,.22a0.75,0.75,0,0,0,.1-0.22,0.55,0.55,0,0,0,0,.24s0.1-.22.18-0.28a0.77,0.77,0,0,1,.51-0.13,5.51,5.51,0,0,1,.71.71Z" transform="translate(-668.5 -313.34)"/>
      <path d="M709.29,326.62a0.84,0.84,0,0,1-.19-0.2,2.09,2.09,0,0,0-.52-0.51,0.75,0.75,0,0,0-.5.13,0.44,0.44,0,0,0-.11.17,0.19,0.19,0,0,1-.08.11,0.24,0.24,0,0,1,0-.18,0.28,0.28,0,0,1-.08.16l0,0s0.05,0,.07-0.08a0.41,0.41,0,0,1,0-.12,0.76,0.76,0,0,0,0,.24,0.18,0.18,0,0,0,.08-0.1,0.44,0.44,0,0,1,.11-0.17,0.76,0.76,0,0,1,.51-0.13,2,2,0,0,1,.53.51,1.42,1.42,0,0,0,.18.2l0.13-.09a2.05,2.05,0,0,0-.79-0.75,1,1,0,0,0-.59.16,0.53,0.53,0,0,1-.16.07,0.13,0.13,0,0,0-.16.11,0.13,0.13,0,0,0,0,.15l0-.09a0.21,0.21,0,0,1,0-.09s0,0.09,0,.13a0.25,0.25,0,0,1,0-.1,0.33,0.33,0,0,1-.07.15,0.14,0.14,0,0,1,0-.16,0.16,0.16,0,0,1,.1-0.13,0.28,0.28,0,0,0,.22,0,1,1,0,0,1,.59-0.16,2,2,0,0,1,.79.77l-0.13.1h0Z" transform="translate(-668.5 -313.34)"/>
      <path class="i" d="M709.2,326.31l-0.48.25,0.35,0.1-0.25.31,0.36-.13,0,0.42,0.21-.28,0.14,0.38,0.14-.28,0.17,0.31,0.07-.3,0.21,0.3,0.07-.41,0.25,0.25,0-.43,0.31,0.11-0.19-.33,0.32,0a2,2,0,0,0-.46-0.27H709.2Z" transform="translate(-668.5 -313.34)"/>
      <path d="M710.1,327.42l-0.21-.31-0.06.3-0.18-.31-0.14.28-0.14-.38-0.2.28,0-.43-0.36.13,0.25-.32-0.35-.09,0.48-.26h1.16a1.37,1.37,0,0,1,.41.23l0.05,0a1.87,1.87,0,0,0-.46-0.26H709.2l-0.48.25,0.35,0.09-0.25.32,0.36-.13,0,0.43,0.2-.28,0.14,0.38,0.14-.28,0.18,0.31,0.06-.3,0.21,0.29,0.07-.4,0.26,0.25,0-.43,0.31,0.1-0.19-.33,0.32,0h0l-0.32,0,0.19,0.33-0.31-.1,0,0.43-0.26-.25-0.07.42h0Z" transform="translate(-668.5 -313.34)"/>
      <path class="i" d="M709.45,326.2l-0.26.14,0.19,0.06-0.14.18,0.2-.07v0.24l0.11-.15,0.07,0.21,0.08-.16,0.09,0.18,0-.17,0.12,0.17,0-.23,0.14,0.14,0-.24,0.17,0.06-0.1-.19h0.17a1,1,0,0,0-.25-0.16h-0.63Z" transform="translate(-668.5 -313.34)"/>
      <path d="M709.94,326.83l-0.12-.18,0,0.17-0.1-.18-0.07.16-0.08-.22-0.11.16V326.5l-0.19.07,0.13-.18-0.19-.05,0.26-.15h0.64a0.67,0.67,0,0,1,.22.13h0a0.9,0.9,0,0,0-.23-0.13h-0.63l-0.26.14,0.19,0-0.14.18,0.2-.08v0.24l0.11-.16,0.08,0.22,0.07-.16,0.1,0.18,0-.17,0.12,0.16,0-.22,0.15,0.14,0-.24,0.17,0.06-0.11-.18,0.16,0-0.16,0,0.11,0.18-0.17-.05,0,0.24-0.14-.14,0,0.24h0Z" transform="translate(-668.5 -313.34)"/>
      <path class="i" d="M709.59,325.51s-0.14-.12-0.19,0,0.12,0.07.12,0.09a0.71,0.71,0,0,0-.12.31,3.06,3.06,0,0,0,.09.46,0.22,0.22,0,0,0,.16.19c0.13,0,.17-0.13.2-0.15a0.27,0.27,0,0,0,.26-0.14,1.74,1.74,0,0,0,.06-0.47s0.11,0.09.11-.09-0.12,0-.12,0a0.3,0.3,0,0,0-.26-0.28c-0.28-.09-0.31.09-0.32,0.07h0Z" transform="translate(-668.5 -313.34)"/>
      <path d="M709.69,326.57h0a0.22,0.22,0,0,1-.17-0.19s0-.05,0-0.1a1.62,1.62,0,0,1-.07-0.36,0.45,0.45,0,0,1,0-.19,0.63,0.63,0,0,0,0,.19,1.59,1.59,0,0,0,.07.36,0.72,0.72,0,0,1,0,.1,0.22,0.22,0,0,0,.16.18h0a0.17,0.17,0,0,0,.13-0.12l0.07,0a0.2,0.2,0,0,0,.21-0.13,1.7,1.7,0,0,0,.06-0.47c0.1,0,.11,0,0.11-0.09s0-.08,0-0.08a0.19,0.19,0,0,0-.08.08,0.32,0.32,0,0,0-.27-0.27,0.25,0.25,0,0,0-.3.06h0a0.25,0.25,0,0,1,.31-0.07,0.31,0.31,0,0,1,.27.27s0.12-.13.12,0,0,0.11-.06.11a2.9,2.9,0,0,0-.11.45,0.21,0.21,0,0,1-.22.13l-0.06,0a0.18,0.18,0,0,1-.14.12h0Z" transform="translate(-668.5 -313.34)"/>
      <path class="i" d="M709.55,325.48c0-.11-0.14-0.54-0.14-0.54l0.24,0.16-0.14,0s0.11,0.21.11,0.21a0.73,0.73,0,0,1,.3.08,1.71,1.71,0,0,0,.08-0.17l-0.05,0,0.21-.16-0.06.22h0l-0.08.16a0.46,0.46,0,0,1,.24.15,0.4,0.4,0,0,0,.2-0.15l-0.1-.06,0.31,0a4,4,0,0,1-.46.42,5.48,5.48,0,0,1-.6-0.25h0Z" transform="translate(-668.5 -313.34)"/>
      <path d="M710.14,325.73h0l-0.26-.1a1.16,1.16,0,0,1-.34-0.15c0-.11-0.14-0.54-0.14-0.54l0.24,0.15-0.12,0,0.06,0.14-0.09-.15,0.14,0-0.24-.15s0.12,0.43.15,0.54a1.62,1.62,0,0,0,.33.14l0.26,0.1a4.14,4.14,0,0,0,.46-0.42H710.3l0.1,0a0.37,0.37,0,0,1-.2.16,0.47,0.47,0,0,0-.24-0.15l0.18-.38h0l-0.05.22-0.12.16a0.39,0.39,0,0,1,.24.14,0.42,0.42,0,0,0,.19-0.14,0.29,0.29,0,0,1-.1-0.05h0.32a2.79,2.79,0,0,1-.46.43h0Zm-0.23-.4-0.08,0a0.57,0.57,0,0,0-.2-0.05h0a0.43,0.43,0,0,1,.21,0l0.08,0,0.07-.15a0.46,0.46,0,0,1-.07.16h0Z" transform="translate(-668.5 -313.34)"/>
      <path d="M709.69,325.79h0c0.05,0,.07,0,0,0h0l-0.14-.05h0c-0.05,0-.07,0,0,0h0l0.14,0.05h0Z" transform="translate(-668.5 -313.34)"/>
      <path d="M710,325.91h0c0.05,0,.07,0,0,0h0l-0.14-.05h0c-0.05,0-.07,0,0,0h0l0.14,0.05h0Z" transform="translate(-668.5 -313.34)"/>
      <path d="M709.79,326.24h0c0.1,0,.14.06,0.09,0.06h0l-0.27-.07h0c-0.1,0-.14-0.06-0.09-0.06h0l0.27,0.07h0Z" transform="translate(-668.5 -313.34)"/>
      <path d="M709.77,326.08h0s0.06,0,0,0h0l-0.12,0h0s-0.06,0,0,0h0l0.12,0h0Z" transform="translate(-668.5 -313.34)"/>
      <path d="M709.71,326.12h0s0-.06,0,0h0a0.42,0.42,0,0,1,0,.11h0s0,0.06,0,0h0a0.3,0.3,0,0,1,0-.11h0Z" transform="translate(-668.5 -313.34)"/>
      <polygon class="j" points="39.59 20.81 39.37 20.43 39.68 20.8 39.7 20.95 39.59 20.81"/>
      <path d="M708.2,334.31l-0.12-.15-0.22-.38,0.32,0.37,0,0.17h0Zm-0.33-.54,0.32,0.51v-0.14l-0.31-.37h0Z" transform="translate(-668.5 -313.34)"/>
      <polygon class="j" points="39.65 20.85 39.69 20.58 39.78 20.91 39.7 20.96 39.65 20.85"/>
      <polygon points="39.7 20.97 39.65 20.86 39.68 20.57 39.79 20.91 39.7 20.97 39.7 20.97"/>
      <polygon class="j" points="39.57 20.95 39.21 20.76 39.51 20.85 39.71 20.96 39.57 20.95"/>
      <path d="M708.21,334.31l-0.14,0-0.37-.19,0.31,0.09,0.2,0.11h0Zm-0.5-.21,0.37,0.19h0.12l-0.18-.1-0.3-.09h0Z" transform="translate(-668.5 -313.34)"/>
      <polygon class="j" points="39.68 21.07 39.13 20.91 39.56 20.92 39.71 20.95 39.68 21.07"/>
      <path d="M708.18,334.41h0l-0.56-.16,0.59,0,0,0.13h0Zm-0.56-.16,0.55,0.15,0-.12-0.14,0-0.44,0h0Z" transform="translate(-668.5 -313.34)"/>
      <polygon class="j" points="39.71 20.88 40.05 20.83 39.94 21.05 39.68 20.95 39.71 20.88"/>
      <polygon points="39.94 21.05 39.68 20.96 39.71 20.88 40.05 20.83 39.94 21.05 39.94 21.05"/>
      <polygon class="j" points="39.91 21 40.34 21.17 39.98 21.12 39.67 20.94 39.91 21"/>
      <path d="M708.84,334.52l-0.36-.05-0.31-.18,0.24,0,0.44,0.18h0Zm-0.67-.23,0.31,0.17,0.33,0-0.4-.17-0.24-.05h0Z" transform="translate(-668.5 -313.34)"/>
      <polygon class="j" points="39.97 21.09 40.43 21.35 40.02 21.2 39.68 20.94 39.97 21.09"/>
      <path d="M708.93,334.7l-0.41-.15-0.34-.27,0.76,0.41h0Zm-0.75-.41,0.35,0.26,0.37,0.13-0.71-.39h0Z" transform="translate(-668.5 -313.34)"/>
      <polygon class="j" points="39.97 21.18 40.24 21.58 39.82 21.13 39.69 20.95 39.97 21.18"/>
      <path d="M708.73,334.92l-0.55-.63,0.29,0.23,0.27,0.4h0Zm-0.55-.63,0.13,0.18,0.38,0.41-0.24-.36-0.28-.24h0Z" transform="translate(-668.5 -313.34)"/>
      <polygon class="j" points="39.9 21.19 39.91 21.45 39.7 21.07 39.69 20.94 39.9 21.19"/>
      <path d="M708.4,334.79l-0.2-.37,0-.13,0.22,0.24v0.26h0Zm-0.22-.5,0,0.13,0.2,0.36v-0.24l-0.21-.25h0Z" transform="translate(-668.5 -313.34)"/>
      <polygon class="j" points="39.8 21.11 39.6 21.27 39.6 20.99 39.7 20.96 39.8 21.11"/>
      <polygon points="39.59 21.27 39.6 20.99 39.7 20.96 39.8 21.11 39.59 21.27 39.59 21.27"/>
      <polygon class="j" points="39.54 20.81 39.4 20.59 39.6 20.8 39.69 20.95 39.54 20.81"/>
      <polygon points="39.69 20.95 39.54 20.81 39.39 20.59 39.6 20.8 39.7 20.95 39.69 20.95 39.69 20.95"/>
      <polygon class="j" points="39.65 20.9 39.5 20.63 39.72 20.92 39.74 21 39.65 20.9"/>
      <polygon points="39.74 21.01 39.65 20.9 39.5 20.63 39.75 21 39.74 21.01 39.74 21.01"/>
      <polygon class="j" points="39.66 20.98 39.27 20.81 39.6 20.91 39.74 20.99 39.66 20.98"/>
      <polygon points="39.74 20.99 39.66 20.99 39.27 20.82 39.74 20.98 39.74 20.99 39.74 20.99"/>
      <polygon class="j" points="39.76 20.96 40.12 21.07 39.85 21.02 39.71 20.97 39.76 20.96"/>
      <polygon points="40.12 21.07 39.71 20.97 40.08 21.06 40.05 21.05 40.12 21.06 40.12 21.07 40.12 21.07"/>
      <polygon class="j" points="39.78 21.05 39.67 21.12 39.73 21.02 39.72 20.96 39.78 21.05"/>
      <polygon class="a" points="39.78 21.05 39.67 21.12 39.73 21.02 39.72 20.96 39.78 21.05"/>
      <polygon class="j" points="39.93 21.12 40.15 21.4 39.96 21.2 39.73 20.98 39.93 21.12"/>
      <path d="M708.65,334.74l-0.43-.43,0.2,0.14,0.23,0.29h0Zm-0.43-.43,0.37,0.35-0.17-.21-0.2-.14h0Z" transform="translate(-668.5 -313.34)"/>
      <polygon class="j" points="39.87 21.02 39.93 20.94 39.95 21.09 39.74 20.99 39.87 21.02"/>
      <polygon class="a" points="39.87 21.02 39.93 20.94 39.95 21.09 39.74 20.99 39.87 21.02"/>
      <polygon class="j" points="39.62 20.86 39.53 20.57 39.68 20.86 39.7 20.96 39.62 20.86"/>
      <polygon points="39.7 20.96 39.62 20.86 39.52 20.57 39.7 20.95 39.7 20.96 39.7 20.96"/>
      <path class="d" d="M709.2,334.84c0.05,0,.44-0.92,2.29-0.79a7.56,7.56,0,0,0-1.86,1.41,1.32,1.32,0,0,1-.43-0.62h0Z" transform="translate(-668.5 -313.34)"/>
      <path d="M709.62,335.47a1.58,1.58,0,0,1-.43-0.63,2.32,2.32,0,0,1,2.3-.8,5.26,5.26,0,0,0-1.57,1.18,1.12,1.12,0,0,1-.29.25h0Zm1.51-1.42a2.16,2.16,0,0,0-1.89.76,1.24,1.24,0,0,0,.38.64h0a1.3,1.3,0,0,0,.28-0.24,4.94,4.94,0,0,1,1.58-1.17h-0.36Z" transform="translate(-668.5 -313.34)"/>
      <path class="d" d="M711.68,334.4a2.56,2.56,0,0,1-.57.21c0.07,0,.24,0,0.43.09-0.17,0-.48.17-0.61,0.18a1.41,1.41,0,0,0,.46,0c-0.17,0-.44.19-0.61,0.19a4.22,4.22,0,0,1,.58.1c-0.2,0-.58.14-0.78,0.1,0.16,0.12.44,0,.67,0.12a3.77,3.77,0,0,1-.8.05c0.12,0.08.46,0.06,0.55,0.13-0.14,0-.53.08-0.66,0a3.18,3.18,0,0,0,.54.12,2.54,2.54,0,0,1-.76.05l0.3,0.2a4.22,4.22,0,0,0,.85.62c-0.29-.05-0.39-0.06-0.58-0.08l0.43,0.61c-0.18-.13-0.5-0.37-0.71-0.5-0.46-.3-0.8-0.25-1.12-0.51a4,4,0,0,1-.73-1.46c0-.19,0-0.52-0.46-0.35,0.4-.07.12-0.5,0.53-0.5,0.25,0,.22.24,0.31,0.4a2.38,2.38,0,0,0,.58.54,1.86,1.86,0,0,1,2.15-.37h0Z" transform="translate(-668.5 -313.34)"/>
      <path d="M711.11,337.15L711,337c-0.17-.13-0.39-0.29-0.54-0.38a2.25,2.25,0,0,0-.62-0.27,1.49,1.49,0,0,1-.51-0.24,4,4,0,0,1-.73-1.47c0-.2-0.07-0.43-0.33-0.37h0a0.47,0.47,0,0,0,.11-0.23,0.26,0.26,0,0,1,.29-0.24,0.27,0.27,0,0,1,.27.26,0.75,0.75,0,0,0,.06.15,2.44,2.44,0,0,0,.57.54,1.84,1.84,0,0,1,2.15-.37,2.05,2.05,0,0,1-.57.23h0.14a1,1,0,0,1,.28.05l-0.34.12a1.27,1.27,0,0,1-.26.08h0.45l-0.07,0-0.21.1a1.07,1.07,0,0,1-.31.1l0,0a1.08,1.08,0,0,0,.33-0.1l0.16-.06h0a0.64,0.64,0,0,1-.34,0l0.27-.1a1.23,1.23,0,0,1,.34-0.1l-0.28,0a0.45,0.45,0,0,1-.16,0c0.15-.05.29-0.11,0.57-0.23a2,2,0,0,0-2.13.39,2.19,2.19,0,0,1-.6-0.55,0.65,0.65,0,0,1-.06-0.16,0.24,0.24,0,0,0-.24-0.24,0.23,0.23,0,0,0-.26.22,0.4,0.4,0,0,1-.1.21c0.23-.05.28,0.22,0.3,0.38a4,4,0,0,0,.73,1.48,1.39,1.39,0,0,0,.5.23,2.26,2.26,0,0,1,.62.28c0.16,0.09.37,0.25,0.55,0.38l0.09,0.07-0.38-.54h0.09l0.51,0.07a3.27,3.27,0,0,1-.86-0.59l-0.12-.08-0.18-.12a0.29,0.29,0,0,1,.24,0,1.25,1.25,0,0,0,.51,0h-0.21a0.61,0.61,0,0,1-.34-0.08,0.18,0.18,0,0,1,.1,0l0.27,0,0.25,0-0.2,0a0.79,0.79,0,0,1-.3-0.07,0.41,0.41,0,0,1,.15,0h0a5.31,5.31,0,0,0,.65-0.06,1,1,0,0,0-.3,0h-0.12a0.39,0.39,0,0,1-.25-0.06l0.08,0a1.91,1.91,0,0,0,.36-0.06,1.65,1.65,0,0,1,.32-0.05,0.73,0.73,0,0,0-.3,0h-0.22l0,0H711a0.54,0.54,0,0,1,.33.08l-0.35.07a1.29,1.29,0,0,1-.44.05,0.79,0.79,0,0,0,.24,0h0.13a0.64,0.64,0,0,1,.32.06,2.47,2.47,0,0,1-.81.08l0.3,0a0.68,0.68,0,0,1,.26.06l-0.31,0a1.07,1.07,0,0,1-.36,0,1,1,0,0,0,.34.05,0.38,0.38,0,0,1,.22,0,1,1,0,0,1-.53.07,1,1,0,0,0-.23,0,0.54,0.54,0,0,1,.19.1l0.12,0.08a4.12,4.12,0,0,0,.85.62l-0.51,0h-0.08l0.44,0.58,0,0h0Z" transform="translate(-668.5 -313.34)"/>
      <path class="k" d="M714.13,337.65a0.43,0.43,0,0,1,0-.27,0.93,0.93,0,0,1,.21-0.26,0.52,0.52,0,0,0,.33-0.17c0.05-.11.13-0.2,0.18-0.32s0.14-.27.23-0.4a3.63,3.63,0,0,0,.27-0.38,1.39,1.39,0,0,1,.24-0.34,0.9,0.9,0,0,1,.23-0.34c0.08-.17.24-0.36,0.3-0.49s0.16-.22.27-0.38a2,2,0,0,1,.37-0.27c0.17-.08.26-0.16,0.38,0s0.21,0.22.12,0.32a0.16,0.16,0,0,1-.22,0c-0.1-.07-0.14-0.27-0.27-0.11a2.55,2.55,0,0,1-.27.34,1.67,1.67,0,0,0-.17.34,1.33,1.33,0,0,0-.2.38,1.06,1.06,0,0,0-.2.34,1.23,1.23,0,0,0-.2.34c-0.12.14-.17,0.25-0.27,0.34a1.61,1.61,0,0,1-.23.38c-0.06.11-.12,0.22-0.17,0.34s-0.11.15-.27,0.34a1.81,1.81,0,0,1-.29.39,0.29,0.29,0,0,1-.36-0.11h0Z" transform="translate(-668.5 -313.34)"/>
      <path d="M714.37,337.79a0.32,0.32,0,0,1-.24-0.14,0.45,0.45,0,0,1,0-.28l0-.07a0.71,0.71,0,0,1,.17-0.2l0.09,0a0.4,0.4,0,0,0,.24-0.15l0.08-.13a1.05,1.05,0,0,0,.1-0.18l0.12-.21,0.11-.19a3.62,3.62,0,0,0,.27-0.38,1.46,1.46,0,0,1,.24-0.34,0.93,0.93,0,0,1,.23-0.34,2.55,2.55,0,0,1,.16-0.27,1.92,1.92,0,0,0,.14-0.22,4.34,4.34,0,0,0,.27-0.38l0.09-.07a1.22,1.22,0,0,1,.28-0.19l0.07,0a0.23,0.23,0,0,1,.31,0c0.09,0.1.21,0.23,0.12,0.33a0.18,0.18,0,0,1-.23,0,0.33,0.33,0,0,1-.08-0.09c-0.05-.07-0.11-0.12-0.18,0l-0.08.11a1.75,1.75,0,0,1-.19.23,1.61,1.61,0,0,0-.16.34,1.35,1.35,0,0,0-.2.38,1.11,1.11,0,0,0-.2.34,1.25,1.25,0,0,0-.2.34,1.82,1.82,0,0,0-.15.19,0.84,0.84,0,0,1-.12.15,1.55,1.55,0,0,1-.24.38c-0.06.11-.12,0.22-0.17,0.34l-0.12.15-0.15.2-0.08.13a1.39,1.39,0,0,1-.21.26,0.37,0.37,0,0,1-.13,0h0Zm2.65-3.85a0.41,0.41,0,0,0-.18.06l-0.07,0a1.12,1.12,0,0,0-.28.19l-0.09.07a4.59,4.59,0,0,1-.27.38,2.24,2.24,0,0,1-.14.22,2.12,2.12,0,0,0-.16.27,0.93,0.93,0,0,0-.24.34,1.52,1.52,0,0,0-.23.34,3.57,3.57,0,0,1-.27.38l-0.11.19-0.12.21a1,1,0,0,1-.1.18l-0.08.13a0.39,0.39,0,0,1-.25.15l-0.09,0a0.7,0.7,0,0,0-.16.19l0,0.06a0.4,0.4,0,0,0,0,.25,0.3,0.3,0,0,0,.36.11,1.42,1.42,0,0,0,.21-0.26l0.08-.13,0.15-.2L715,337a3.42,3.42,0,0,1,.17-0.34,1.55,1.55,0,0,0,.24-0.38,1,1,0,0,0,.12-0.15,1.66,1.66,0,0,1,.15-0.19,1.23,1.23,0,0,1,.2-0.34,1.11,1.11,0,0,1,.2-0.34,1.39,1.39,0,0,1,.2-0.38,1.6,1.6,0,0,1,.17-0.34,1.6,1.6,0,0,0,.19-0.23l0.08-.11c0.08-.1.15,0,0.21,0a0.38,0.38,0,0,0,.07.08,0.16,0.16,0,0,0,.21,0c0.08-.09,0-0.21-0.1-0.29a0.18,0.18,0,0,0-.13-0.08h0Z" transform="translate(-668.5 -313.34)"/>
      <path class="i" d="M715.76,336.19h0a0.63,0.63,0,0,1-.27.46h0a0.61,0.61,0,0,1-.46.28h0a0.63,0.63,0,0,1,.27-0.46h0a0.63,0.63,0,0,1,.46-0.28h0Z" transform="translate(-668.5 -313.34)"/>
      <path d="M715.06,337h0a0.15,0.15,0,0,1,0,0h0l0,0a0.93,0.93,0,0,0,.42-0.29,1.21,1.21,0,0,0,.28-0.38,1,1,0,0,1-.26.38,1,1,0,0,1-.43.29h0Zm0-.08a0.94,0.94,0,0,1,.27-0.41,1,1,0,0,1,.44-0.3l0,0a0.77,0.77,0,0,0-.44.28,1.15,1.15,0,0,0-.29.4h0Z" transform="translate(-668.5 -313.34)"/>
      <path class="i" d="M714.66,335.44h0a0.63,0.63,0,0,1-.07.53h0a0.63,0.63,0,0,1-.31.43h0a0.63,0.63,0,0,1,.07-0.53h0a0.62,0.62,0,0,1,.32-0.43h0Z" transform="translate(-668.5 -313.34)"/>
      <path d="M714.28,336.42h0a0.63,0.63,0,0,1,.07-0.54,0.73,0.73,0,0,1,.31-0.45,0.56,0.56,0,0,1-.05.54,0.75,0.75,0,0,1-.31.45h0Zm0.37-1a0.68,0.68,0,0,0-.3.43,0.64,0.64,0,0,0-.08.53h0a0.74,0.74,0,0,0,.29-0.43,0.65,0.65,0,0,0,.08-0.53h0Z" transform="translate(-668.5 -313.34)"/>
      <path class="i" d="M714.83,335.57h0a0.63,0.63,0,0,1-.09.53h0a0.62,0.62,0,0,1-.33.42h0a0.63,0.63,0,0,1,.09-0.53h0a0.63,0.63,0,0,1,.33-0.42h0Z" transform="translate(-668.5 -313.34)"/>
      <path d="M714.42,336.53h0a0.62,0.62,0,0,1,.09-0.54,0.76,0.76,0,0,1,.32-0.44,0.16,0.16,0,0,1,0,.19,1.72,1.72,0,0,1-.12.35,0.76,0.76,0,0,1-.33.43h0Zm0.41-1a0.69,0.69,0,0,0-.32.42,0.65,0.65,0,0,0-.1.52h0a0.75,0.75,0,0,0,.31-0.42,1.63,1.63,0,0,0,.12-0.36,0.18,0.18,0,0,0,0-.17h0Z" transform="translate(-668.5 -313.34)"/>
      <path class="i" d="M715.24,335.86h0a0.63,0.63,0,0,1-.2.5h0a0.62,0.62,0,0,1-.41.34h0a0.63,0.63,0,0,1,.2-0.5h0a0.62,0.62,0,0,1,.41-0.34h0Z" transform="translate(-668.5 -313.34)"/>
      <path d="M714.65,336.72h0v0h0l0,0a0.86,0.86,0,0,0,.38-0.35,1,1,0,0,0,.22-0.45,0.87,0.87,0,0,1-.2.45,0.85,0.85,0,0,1-.39.36h0Zm0-.07a0.91,0.91,0,0,1,.2-0.45,0.86,0.86,0,0,1,.39-0.36l0,0h0a0.75,0.75,0,0,0-.4.34,1.09,1.09,0,0,0-.22.45h0Z" transform="translate(-668.5 -313.34)"/>
      <path class="i" d="M716.07,336.39h0a0.64,0.64,0,0,1-.31.43h0a0.64,0.64,0,0,1-.48.24h0a0.62,0.62,0,0,1,.31-0.44h0a0.61,0.61,0,0,1,.48-0.24h0Z" transform="translate(-668.5 -313.34)"/>
      <path d="M715.32,337.09l0,0a0.62,0.62,0,0,1,.31-0.45,1,1,0,0,1,.45-0.26l0,0a0.84,0.84,0,0,0-.46.24,0.64,0.64,0,0,0-.32.43h0a1,1,0,0,0,.43-0.25,1.3,1.3,0,0,0,.3-0.34,1,1,0,0,1-.29.34,1,1,0,0,1-.45.26h0Z" transform="translate(-668.5 -313.34)"/>
      <path class="i" d="M715.93,336.3h0a0.63,0.63,0,0,1-.28.46h0a0.62,0.62,0,0,1-.46.27h0a0.63,0.63,0,0,1,.28-0.46h0a0.63,0.63,0,0,1,.46-0.27h0Z" transform="translate(-668.5 -313.34)"/>
      <path d="M715.22,337.06h0a0.18,0.18,0,0,1,0,0h0l0,0a1.35,1.35,0,0,0,.71-0.7,0.59,0.59,0,0,0-.46.24,1.13,1.13,0,0,0-.29.4,1.32,1.32,0,0,1,.71-0.7l0.05,0.05a0.91,0.91,0,0,1-.29.43,0.92,0.92,0,0,1-.44.29h0Z" transform="translate(-668.5 -313.34)"/>
      <path class="i" d="M715.5,336.09h0a0.64,0.64,0,0,1-.2.5h0a0.63,0.63,0,0,1-.41.34h0a0.62,0.62,0,0,1,.2-0.49h0a0.63,0.63,0,0,1,.41-0.34h0Z" transform="translate(-668.5 -313.34)"/>
      <path d="M714.91,336.95h0a0.63,0.63,0,0,1,.2-0.51,0.86,0.86,0,0,1,.4-0.36l0,0a0.61,0.61,0,0,0-.39.32,0.65,0.65,0,0,0-.21.49h0a0.85,0.85,0,0,0,.38-0.35,1.67,1.67,0,0,0,.2-0.35,1,1,0,0,1-.18.35,0.85,0.85,0,0,1-.39.36h0Z" transform="translate(-668.5 -313.34)"/>
      <path class="i" d="M715.38,336h0a0.64,0.64,0,0,1-.2.5h0a0.64,0.64,0,0,1-.41.35h0a0.63,0.63,0,0,1,.2-0.5h0a0.62,0.62,0,0,1,.41-0.34h0Z" transform="translate(-668.5 -313.34)"/>
      <path d="M714.79,336.82h0a0.13,0.13,0,0,1,0,0h0l0,0a0.85,0.85,0,0,0,.38-0.35,1.58,1.58,0,0,0,.2-0.35,1,1,0,0,1-.18.35,0.86,0.86,0,0,1-.39.36h0Zm0-.07a0.9,0.9,0,0,1,.2-0.45,0.85,0.85,0,0,1,.39-0.36l0,0a0.55,0.55,0,0,0-.39.32,1.08,1.08,0,0,0-.22.44h0Z" transform="translate(-668.5 -313.34)"/>
      <path class="i" d="M715.62,334.14h0a0.62,0.62,0,0,1-.2.49h0a0.62,0.62,0,0,1-.41.34h0a0.63,0.63,0,0,1,.2-0.5h0a0.63,0.63,0,0,1,.41-0.35h0Z" transform="translate(-668.5 -313.34)"/>
      <path d="M715,335h0v0h0l0,0a0.87,0.87,0,0,0,.38-0.35,1,1,0,0,0,.22-0.46,0.82,0.82,0,0,1-.2.46,0.85,0.85,0,0,1-.39.36h0Zm0-.08a1,1,0,0,1,.2-0.44,0.85,0.85,0,0,1,.4-0.36l0,0h0a0.76,0.76,0,0,0-.39.34,1.16,1.16,0,0,0-.22.43h0Z" transform="translate(-668.5 -313.34)"/>
      <path class="i" d="M715.78,334.24h0a0.63,0.63,0,0,1-.2.49h0a0.63,0.63,0,0,1-.41.34h0a0.63,0.63,0,0,1,.2-0.5h0a0.62,0.62,0,0,1,.41-0.34h0Z" transform="translate(-668.5 -313.34)"/>
      <path d="M715.19,335.1h0a0.62,0.62,0,0,1,.2-0.51,0.86,0.86,0,0,1,.39-0.36l0,0a0.64,0.64,0,0,0-.39.32,0.65,0.65,0,0,0-.21.49h0a0.86,0.86,0,0,0,.38-0.35,1.59,1.59,0,0,0,.2-0.35,1.06,1.06,0,0,1-.18.35,0.86,0.86,0,0,1-.4.36h0Z" transform="translate(-668.5 -313.34)"/>
      <path class="i" d="M715.94,334.36h0a0.63,0.63,0,0,1-.2.49h0a0.62,0.62,0,0,1-.41.34h0a0.63,0.63,0,0,1,.2-0.5h0a0.63,0.63,0,0,1,.41-0.34h0Z" transform="translate(-668.5 -313.34)"/>
      <path d="M715.36,335.22h0a0.63,0.63,0,0,1,.2-0.51,0.84,0.84,0,0,1,.4-0.36v0a0.66,0.66,0,0,0-.39.32,0.64,0.64,0,0,0-.2.49h0a0.84,0.84,0,0,0,.38-0.35,1.59,1.59,0,0,0,.2-0.35,1,1,0,0,1-.18.35,0.84,0.84,0,0,1-.4.36h0Z" transform="translate(-668.5 -313.34)"/>
      <path class="i" d="M716.12,334.49h0a0.63,0.63,0,0,1-.2.5h0a0.62,0.62,0,0,1-.41.34h0a0.63,0.63,0,0,1,.2-0.5h0a0.62,0.62,0,0,1,.41-0.34h0Z" transform="translate(-668.5 -313.34)"/>
      <path d="M715.53,335.35h0a0.62,0.62,0,0,1,.2-0.51,0.84,0.84,0,0,1,.39-0.36l0,0a0.59,0.59,0,0,0-.39.32,0.64,0.64,0,0,0-.2.49h0a0.84,0.84,0,0,0,.38-0.35,1.65,1.65,0,0,0,.2-0.34,1,1,0,0,1-.18.35,0.86,0.86,0,0,1-.39.36h0Z" transform="translate(-668.5 -313.34)"/>
      <path class="i" d="M716.25,334.6h0a0.63,0.63,0,0,1-.2.5h0a0.63,0.63,0,0,1-.41.34h0a0.62,0.62,0,0,1,.2-0.5h0a0.62,0.62,0,0,1,.41-0.34h0Z" transform="translate(-668.5 -313.34)"/>
      <path d="M715.67,335.46h0a0.63,0.63,0,0,1,.2-0.51,0.84,0.84,0,0,1,.4-0.36l0,0h0a0.77,0.77,0,0,0-.39.34,0.64,0.64,0,0,0-.21.49h0a0.85,0.85,0,0,0,.38-0.35,1,1,0,0,0,.22-0.46,0.84,0.84,0,0,1-.2.46,0.85,0.85,0,0,1-.39.36h0Z" transform="translate(-668.5 -313.34)"/>
      <path class="i" d="M717.13,335.09h0a0.63,0.63,0,0,1-.2.5h0a0.63,0.63,0,0,1-.41.34h0a0.63,0.63,0,0,1,.2-0.5h0a0.63,0.63,0,0,1,.41-0.34h0Z" transform="translate(-668.5 -313.34)"/>
      <path d="M716.54,336h0a0.62,0.62,0,0,1,.2-0.51,0.86,0.86,0,0,1,.39-0.36l0,0h0a0.77,0.77,0,0,0-.39.34,0.63,0.63,0,0,0-.2.49h0a0.86,0.86,0,0,0,.38-0.35,1,1,0,0,0,.22-0.46,1.26,1.26,0,0,1-.6.82h0Z" transform="translate(-668.5 -313.34)"/>
      <path class="i" d="M717,335h0a0.62,0.62,0,0,1-.2.5h0a0.64,0.64,0,0,1-.41.35h0a0.63,0.63,0,0,1,.2-0.5h0A0.62,0.62,0,0,1,717,335h0Z" transform="translate(-668.5 -313.34)"/>
      <path d="M716.41,335.91h0a0.62,0.62,0,0,1,.19-0.51A0.86,0.86,0,0,1,717,335l0,0a0.67,0.67,0,0,0-.39.32,0.65,0.65,0,0,0-.21.49h0a0.86,0.86,0,0,0,.38-0.35,1.66,1.66,0,0,0,.2-0.34,1,1,0,0,1-.18.35,0.85,0.85,0,0,1-.39.36h0Z" transform="translate(-668.5 -313.34)"/>
      <path class="i" d="M716.88,335h0a0.62,0.62,0,0,1-.2.5h0a0.63,0.63,0,0,1-.41.34h0a0.62,0.62,0,0,1,.2-0.49h0a0.62,0.62,0,0,1,.41-0.34h0Z" transform="translate(-668.5 -313.34)"/>
      <path d="M716.29,335.85h0a0.63,0.63,0,0,1,.2-0.51,0.84,0.84,0,0,1,.4-0.36l0,0a0.57,0.57,0,0,0-.39.32,0.65,0.65,0,0,0-.21.49h0a0.85,0.85,0,0,0,.38-0.35,1.61,1.61,0,0,0,.2-0.34,1,1,0,0,1-.18.35,0.85,0.85,0,0,1-.39.36h0Z" transform="translate(-668.5 -313.34)"/>
      <path class="i" d="M716.71,334.88h0a0.63,0.63,0,0,1-.2.5h0a0.62,0.62,0,0,1-.41.34h0a0.63,0.63,0,0,1,.2-0.5h0a0.62,0.62,0,0,1,.41-0.34h0Z" transform="translate(-668.5 -313.34)"/>
      <path d="M716.12,335.74h0a0.62,0.62,0,0,1,.2-0.51,0.85,0.85,0,0,1,.39-0.36l0,0h0a0.75,0.75,0,0,0-.39.34,0.63,0.63,0,0,0-.21.49h0a0.84,0.84,0,0,0,.38-0.35,1,1,0,0,0,.22-0.45,0.87,0.87,0,0,1-.2.45,0.85,0.85,0,0,1-.4.36h0Z" transform="translate(-668.5 -313.34)"/>
      <path class="i" d="M716.54,334.79h0a0.63,0.63,0,0,1-.2.5h0a0.63,0.63,0,0,1-.41.35h0a0.63,0.63,0,0,1,.2-0.5h0a0.63,0.63,0,0,1,.41-0.35h0Z" transform="translate(-668.5 -313.34)"/>
      <path d="M715.95,335.65h0a0.61,0.61,0,0,1,.2-0.51,0.85,0.85,0,0,1,.39-0.36l0,0h0a0.76,0.76,0,0,0-.39.34,0.65,0.65,0,0,0-.21.49h0a0.86,0.86,0,0,0,.38-0.35,1,1,0,0,0,.22-0.45,0.87,0.87,0,0,1-.2.46,0.86,0.86,0,0,1-.4.36h0Z" transform="translate(-668.5 -313.34)"/>
      <path class="i" d="M716.39,334.69h0a0.63,0.63,0,0,1-.2.5h0a0.64,0.64,0,0,1-.41.35h0a0.63,0.63,0,0,1,.2-0.5h0a0.62,0.62,0,0,1,.41-0.34h0Z" transform="translate(-668.5 -313.34)"/>
      <path d="M715.81,335.55h0A0.61,0.61,0,0,1,716,335a0.85,0.85,0,0,1,.39-0.36l0,0a0.66,0.66,0,0,0-.39.32,0.65,0.65,0,0,0-.21.49h0a0.84,0.84,0,0,0,.38-0.35,1.61,1.61,0,0,0,.2-0.34,1,1,0,0,1-.18.35,0.85,0.85,0,0,1-.39.36h0Z" transform="translate(-668.5 -313.34)"/>
      <path class="i" d="M715,335.71h0a0.62,0.62,0,0,1-.13.52h0a0.63,0.63,0,0,1-.36.39h0a0.62,0.62,0,0,1,.13-0.52h0a0.63,0.63,0,0,1,.36-0.39h0Z" transform="translate(-668.5 -313.34)"/>
      <path d="M714.53,336.64h0l0,0h0l0,0a0.79,0.79,0,0,0,.34-0.39,1.44,1.44,0,0,0,.15-0.38,1,1,0,0,1-.13.38,0.78,0.78,0,0,1-.36.41h0Zm0-.06a0.89,0.89,0,0,1,.14-0.47,0.79,0.79,0,0,1,.35-0.41l0,0a0.62,0.62,0,0,0-.35.37,1.05,1.05,0,0,0-.16.47h0Z" transform="translate(-668.5 -313.34)"/>
      <path class="i" d="M715.09,334.78h0a0.63,0.63,0,0,1-.2.49h0a0.64,0.64,0,0,1-.41.34h0a0.63,0.63,0,0,1,.2-0.5h0a0.62,0.62,0,0,1,.41-0.34h0Z" transform="translate(-668.5 -313.34)"/>
      <path d="M714.5,335.65h0a0.62,0.62,0,0,1,.19-0.51,0.87,0.87,0,0,1,.4-0.36l0,0h0a0.76,0.76,0,0,0-.39.34,0.65,0.65,0,0,0-.2.49h0a0.86,0.86,0,0,0,.38-0.35,1,1,0,0,0,.22-0.45,1.27,1.27,0,0,1-.6.81h0Z" transform="translate(-668.5 -313.34)"/>
      <path class="i" d="M715.25,334.89h0a0.63,0.63,0,0,1-.2.5h0a0.62,0.62,0,0,1-.41.34h0a0.62,0.62,0,0,1,.2-0.5h0a0.63,0.63,0,0,1,.41-0.34h0Z" transform="translate(-668.5 -313.34)"/>
      <path d="M714.66,335.75h0v0h0l0,0a0.85,0.85,0,0,0,.38-0.35,1,1,0,0,0,.22-0.45,0.87,0.87,0,0,1-.2.45,0.86,0.86,0,0,1-.4.36h0Zm0-.08a0.93,0.93,0,0,1,.2-0.44,0.86,0.86,0,0,1,.39-0.36l0,0h0a0.76,0.76,0,0,0-.39.34,1.17,1.17,0,0,0-.22.44h0Z" transform="translate(-668.5 -313.34)"/>
      <path class="i" d="M715.41,335h0a0.63,0.63,0,0,1-.2.5h0a0.62,0.62,0,0,1-.41.34h0a0.63,0.63,0,0,1,.2-0.5h0a0.62,0.62,0,0,1,.41-0.34h0Z" transform="translate(-668.5 -313.34)"/>
      <path d="M714.83,335.87h0a0.62,0.62,0,0,1,.2-0.51,0.85,0.85,0,0,1,.39-0.36l0,0h0a0.76,0.76,0,0,0-.39.34,0.63,0.63,0,0,0-.2.49h0a0.83,0.83,0,0,0,.38-0.35,1,1,0,0,0,.22-0.45,0.87,0.87,0,0,1-.2.46,0.85,0.85,0,0,1-.4.36h0Z" transform="translate(-668.5 -313.34)"/>
      <path class="i" d="M715.59,335.13h0a0.63,0.63,0,0,1-.2.5h0a0.62,0.62,0,0,1-.41.34h0a0.62,0.62,0,0,1,.2-0.49h0a0.64,0.64,0,0,1,.41-0.34h0Z" transform="translate(-668.5 -313.34)"/>
      <path d="M715,336h0v0h0l0,0a0.86,0.86,0,0,0,.38-0.35,1,1,0,0,0,.22-0.45,0.84,0.84,0,0,1-.2.46,0.86,0.86,0,0,1-.39.36h0Zm0-.08a0.93,0.93,0,0,1,.2-0.44,0.85,0.85,0,0,1,.39-0.36l0,0h0a0.76,0.76,0,0,0-.39.34,1.19,1.19,0,0,0-.22.44h0Z" transform="translate(-668.5 -313.34)"/>
      <path class="i" d="M715.72,335.25h0a0.63,0.63,0,0,1-.2.5h0a0.64,0.64,0,0,1-.41.35h0a0.63,0.63,0,0,1,.2-0.5h0a0.62,0.62,0,0,1,.41-0.34h0Z" transform="translate(-668.5 -313.34)"/>
      <path d="M715.14,336.11h0a0.63,0.63,0,0,1,.2-0.51,0.86,0.86,0,0,1,.4-0.36v0a0.69,0.69,0,0,0-.39.32,0.64,0.64,0,0,0-.21.49h0a0.85,0.85,0,0,0,.38-0.35,1.55,1.55,0,0,0,.19-0.34,1,1,0,0,1-.18.35,0.86,0.86,0,0,1-.39.36h0Z" transform="translate(-668.5 -313.34)"/>
      <path class="i" d="M716.6,335.74h0a0.63,0.63,0,0,1-.2.5h0a0.63,0.63,0,0,1-.41.34h0a0.63,0.63,0,0,1,.2-0.5h0a0.64,0.64,0,0,1,.41-0.35h0Z" transform="translate(-668.5 -313.34)"/>
      <path d="M716,336.6h0v0h0l0,0a0.86,0.86,0,0,0,.38-0.35,1,1,0,0,0,.22-0.46,0.85,0.85,0,0,1-.2.46,0.86,0.86,0,0,1-.4.36h0Zm0-.08a0.93,0.93,0,0,1,.2-0.44,0.85,0.85,0,0,1,.4-0.36l0,0h0a0.77,0.77,0,0,0-.39.34,1.16,1.16,0,0,0-.22.44h0Z" transform="translate(-668.5 -313.34)"/>
      <path class="i" d="M716.47,335.69h0a0.63,0.63,0,0,1-.2.5h0a0.64,0.64,0,0,1-.41.35h0a0.63,0.63,0,0,1,.2-0.5h0a0.63,0.63,0,0,1,.41-0.35h0Z" transform="translate(-668.5 -313.34)"/>
      <path d="M715.88,336.56h0A0.63,0.63,0,0,1,716,336a0.86,0.86,0,0,1,.4-0.36l0,0h0a0.75,0.75,0,0,0-.39.34,0.65,0.65,0,0,0-.21.49h0a0.87,0.87,0,0,0,.38-0.35,1,1,0,0,0,.22-0.45,0.86,0.86,0,0,1-.2.45,0.85,0.85,0,0,1-.39.36h0Z" transform="translate(-668.5 -313.34)"/>
      <path class="i" d="M716.35,335.63h0a0.63,0.63,0,0,1-.2.5h0a0.64,0.64,0,0,1-.41.35h0a0.63,0.63,0,0,1,.2-0.5h0a0.63,0.63,0,0,1,.41-0.35h0Z" transform="translate(-668.5 -313.34)"/>
      <path d="M715.76,336.49h0a0.29,0.29,0,0,1,0,0h0l0,0a0.85,0.85,0,0,0,.38-0.35,1,1,0,0,0,.22-0.45,0.86,0.86,0,0,1-.2.45,0.85,0.85,0,0,1-.39.36h0Zm0-.08a1,1,0,0,1,.2-0.44,0.86,0.86,0,0,1,.4-0.36l0,0h0a0.75,0.75,0,0,0-.39.34,1.14,1.14,0,0,0-.22.44h0Z" transform="translate(-668.5 -313.34)"/>
      <path class="i" d="M716.18,335.52h0a0.62,0.62,0,0,1-.2.5h0a0.63,0.63,0,0,1-.41.34h0a0.63,0.63,0,0,1,.2-0.49h0a0.62,0.62,0,0,1,.41-0.34h0Z" transform="translate(-668.5 -313.34)"/>
      <path d="M715.59,336.38h0v0h0l0,0A0.84,0.84,0,0,0,716,336a1,1,0,0,0,.22-0.46,1.25,1.25,0,0,1-.6.82h0Zm0-.07a0.91,0.91,0,0,1,.2-0.44,0.85,0.85,0,0,1,.39-0.36l0,0h0a0.76,0.76,0,0,0-.39.34,1.14,1.14,0,0,0-.22.44h0Z" transform="translate(-668.5 -313.34)"/>
      <path class="i" d="M716,335.43h0a0.63,0.63,0,0,1-.2.49h0a0.62,0.62,0,0,1-.41.34h0a0.63,0.63,0,0,1,.2-0.5h0a0.64,0.64,0,0,1,.41-0.35h0Z" transform="translate(-668.5 -313.34)"/>
      <path d="M715.42,336.3h0v0h0l0,0a0.86,0.86,0,0,0,.38-0.35,1,1,0,0,0,.22-0.46,0.83,0.83,0,0,1-.2.46,0.86,0.86,0,0,1-.4.36h0Zm0-.08a0.94,0.94,0,0,1,.2-0.44,0.85,0.85,0,0,1,.39-0.36l0,0h0a0.76,0.76,0,0,0-.39.34,1.16,1.16,0,0,0-.22.43h0Z" transform="translate(-668.5 -313.34)"/>
      <path class="i" d="M715.87,335.34h0a0.64,0.64,0,0,1-.2.5h0a0.64,0.64,0,0,1-.41.35h0a0.62,0.62,0,0,1,.2-0.5h0a0.63,0.63,0,0,1,.41-0.35h0Z" transform="translate(-668.5 -313.34)"/>
      <path d="M715.28,336.2h0a0.17,0.17,0,0,1,0,0h0l0,0a0.87,0.87,0,0,0,.38-0.35,1,1,0,0,0,.22-0.46,0.86,0.86,0,0,1-.2.46,0.84,0.84,0,0,1-.39.36h0Zm0-.07a0.92,0.92,0,0,1,.2-0.45,0.85,0.85,0,0,1,.39-0.36l0,0h0a0.77,0.77,0,0,0-.39.34,1.08,1.08,0,0,0-.22.44h0Z" transform="translate(-668.5 -313.34)"/>
      <path class="l" d="M716,329.22h0a0.18,0.18,0,0,1,.18.06v2.09a0.18,0.18,0,0,1-.18.06h0a0.18,0.18,0,0,1-.18-0.06v-2.09a0.17,0.17,0,0,1,.18-0.06h0Z" transform="translate(-668.5 -313.34)"/>
      <path d="M716,331.44h0a0.17,0.17,0,0,1-.18-0.07v-2.09a0.32,0.32,0,0,1,.37,0v2.09a0.17,0.17,0,0,1-.18.07h0Zm0-2.21a0.18,0.18,0,0,0-.17.06v2.09a0.18,0.18,0,0,0,.17.06h0a0.18,0.18,0,0,0,.17-0.06v-2.09a0.18,0.18,0,0,0-.17-0.06h0Z" transform="translate(-668.5 -313.34)"/>
      <polygon class="j" points="47.11 16.72 46.08 17.41 46.74 16.57 47.4 16.42 47.11 16.72"/>
      <path d="M714.59,330.75v0l0.66-.83,0.66-.16-0.28.32-1,.69h0Zm1.3-1-0.65.17-0.61.78,1-.65,0.29-.3h0Z" transform="translate(-668.5 -313.34)"/>
      <polygon class="j" points="47.08 16.58 45.66 16.76 46.9 16.31 47.45 16.41 47.08 16.58"/>
      <path d="M714.16,330.11v0l1.24-.45,0.55,0.1-0.36.19-1.42.18h0Zm1.23-.45-1.14.41,1.33-.17,0.36-.17-0.54-.08h0Z" transform="translate(-668.5 -313.34)"/>
      <polygon class="j" points="47.8 16.63 48.19 17.4 47.57 16.82 47.4 16.39 47.8 16.63"/>
      <path d="M716.69,330.75l-0.62-.58-0.18-.43L716.3,330l0.4,0.78h0Zm-0.8-1,0.19,0.41,0.58,0.54-0.37-.72-0.4-.23h0Z" transform="translate(-668.5 -313.34)"/>
      <polygon class="j" points="47.97 16.35 49.18 17.41 47.73 16.67 47.32 16.41 47.97 16.35"/>
      <path d="M717.67,330.76l-1.46-.74-0.41-.27,0.65-.08,1.22,1.06v0h0Zm-1.21-1.06-0.64.06,0.41,0.25,1.38,0.7-1.15-1h0Z" transform="translate(-668.5 -313.34)"/>
      <polygon class="j" points="47 16.45 45.55 15.94 46.98 15.95 47.46 16.46 47 16.45"/>
      <path d="M716,329.81H715.5l-1.45-.52h1.43l0.5,0.53h0Zm-1.93-.52,1.45,0.5h0.43l-0.46-.49h-1.42Z" transform="translate(-668.5 -313.34)"/>
      <polygon class="j" points="46.85 16.04 46.17 15.17 47.19 15.82 47.44 16.48 46.85 16.04"/>
      <path d="M716,329.85l-0.61-.46-0.69-.87,1,0.63,0.26,0.7h0Zm-1.3-1.33,0.7,0.86,0.55,0.42-0.23-.63-1-.64h0Z" transform="translate(-668.5 -313.34)"/>
      <polygon class="j" points="47.09 15.86 46.69 14.87 47.43 15.68 47.4 16.47 47.09 15.86"/>
      <path d="M715.91,329.85l-0.33-.65-0.4-1,0.76,0.8,0,0.84h0Zm-0.73-1.64,0.42,1,0.29,0.58,0-.75-0.74-.8h0Z" transform="translate(-668.5 -313.34)"/>
      <polygon class="j" points="47.5 15.77 48.41 14.99 47.79 16.07 47.38 16.44 47.5 15.77"/>
      <path d="M715.86,329.81l0.13-.7,0.91-.79-0.61,1.09-0.44.4h0Zm1-1.48-0.89.8-0.12.63,0.39-.36,0.62-1.07h0Z" transform="translate(-668.5 -313.34)"/>
      <polygon class="j" points="47.78 15.88 48.95 15.65 47.92 16.31 47.37 16.45 47.78 15.88"/>
      <path d="M715.84,329.8l0.43-.59,1.17-.23-1,.67-0.58.15h0Zm1.6-.82-1.16.25-0.39.54,0.52-.13,1-.66h0Z" transform="translate(-668.5 -313.34)"/>
      <polygon class="j" points="47.78 16.12 49.2 16.32 47.87 16.54 47.43 16.41 47.78 16.12"/>
      <path d="M716.37,329.89l-0.44-.13,0.34-.31,1.44,0.2-1.34.24h0Zm-0.09-.42-0.34.29,0.43,0.11,1.33-.22-1.43-.18h0Z" transform="translate(-668.5 -313.34)"/>
      <polygon class="j" points="47.25 16.8 46.76 17.23 47.05 16.72 47.41 16.43 47.25 16.8"/>
      <path d="M715.27,330.58h0l0.29-.52,0.36-.29-0.14.39-0.5.43h0Zm0.63-.82-0.34.3-0.26.46,0.45-.39,0.15-.37h0Z" transform="translate(-668.5 -313.34)"/>
      <polygon class="j" points="47.31 16.55 46.55 17.02 47.18 16.42 47.46 16.3 47.31 16.55"/>
      <path d="M715,330.37h0l0.63-.61,0.29-.12-0.15.26-0.76.48h0Zm0.91-.73-0.27.13-0.58.56,0.7-.44,0.15-.25h0Z" transform="translate(-668.5 -313.34)"/>
      <polygon class="j" points="47.66 16.46 48.23 17.24 47.55 16.62 47.39 16.32 47.66 16.46"/>
      <path d="M716.72,330.59L716,330l-0.15-.3,0.28,0.13,0.57,0.79h0Zm-0.84-.92L716,330l0.63,0.58-0.53-.73-0.27-.14h0Z" transform="translate(-668.5 -313.34)"/>
      <polygon class="j" points="47.2 16.31 46.45 15.63 47.19 16.11 47.43 16.39 47.2 16.31"/>
      <path d="M716,329.74l-0.26-.09-0.75-.68,0.74,0.47,0.27,0.3h0Zm-1-.76,0.76,0.67,0.21,0.07-0.23-.26-0.73-.48h0Z" transform="translate(-668.5 -313.34)"/>
      <polygon class="j" points="47.56 16.21 48.26 16.32 47.58 16.32 47.37 16.38 47.56 16.21"/>
      <path d="M715.87,329.72h0l0.2-.17,0.7,0.12h-0.68l-0.21.05h0Zm0.19-.17-0.17.15,0.19,0h0.68l-0.7-.11h0Z" transform="translate(-668.5 -313.34)"/>
      <polygon class="j" points="47.35 15.9 47.88 15.28 47.6 15.77 47.38 16.35 47.35 15.9"/>
      <path d="M715.89,329.69h0l0-.45,0.53-.63-0.26.51-0.22.58h0Zm0.48-1.08-0.51.63,0,0.4,0.2-.53,0.28-.49h0Z" transform="translate(-668.5 -313.34)"/>
      <polygon class="j" points="47.1 16.08 46.52 16.04 47.12 15.88 47.43 16.32 47.1 16.08"/>
      <path d="M715.92,329.67l-0.33-.24-0.57,0,0.6-.18,0.32,0.44v0h0Zm-0.31-.44-0.59.16,0.57,0,0.29,0.21-0.28-.39h0Z" transform="translate(-668.5 -313.34)"/>
      <polygon class="j" points="47.19 16.63 46.2 17.03 47.03 16.52 47.4 16.42 47.19 16.63"/>
      <path d="M714.7,330.38h0l0.83-.52,0.37-.1-0.2.22-1,.4h0Zm1.19-.63-0.36.11-0.75.47,0.91-.37,0.2-.21h0Z" transform="translate(-668.5 -313.34)"/>
      <path class="l" d="M710.53,329.74h0a0.09,0.09,0,0,1,.07.08l-0.48,1.54a0.08,0.08,0,0,1-.1,0h0a0.09,0.09,0,0,1-.07-0.08l0.48-1.54a0.08,0.08,0,0,1,.1,0h0Z" transform="translate(-668.5 -313.34)"/>
      <path d="M710.08,331.39H710a0.09,0.09,0,0,1-.08-0.08l0.48-1.54,0.11,0a0.09,0.09,0,0,1,.08.08l-0.48,1.54-0.05,0h0Zm0.45-1.64h-0.1L710,331.3a0.09,0.09,0,0,0,.07.07l0.05,0,0,0,0.48-1.54a0.09,0.09,0,0,0-.07-0.07h0Z" transform="translate(-668.5 -313.34)"/>
      <path class="l" d="M709.55,329.6h0a0.09,0.09,0,0,1,.09,0v1.63a0.08,0.08,0,0,1-.09,0h0a0.08,0.08,0,0,1-.09,0v-1.63a0.08,0.08,0,0,1,.09,0h0Z" transform="translate(-668.5 -313.34)"/>
      <path d="M709.55,331.32a0.08,0.08,0,0,1-.1-0.05v-1.63c0-.06.2-0.06,0.2,0v1.63a0.08,0.08,0,0,1-.1.05h0Zm0-1.72a0.08,0.08,0,0,0-.09,0v1.63a0.08,0.08,0,0,0,.09,0h0a0.08,0.08,0,0,0,.09,0v-1.63a0.08,0.08,0,0,0-.09,0h0Z" transform="translate(-668.5 -313.34)"/>
      <path class="m" d="M709,328.72a0.38,0.38,0,0,1,.47.38s0.05,0,.05,0c0-.51.47-0.94,0.79-0.21,0,0.12-.15-0.06-0.27-0.19s-0.35,0-.37.52c0,0.11,0,.35,0,0.35l-0.17,0a1.06,1.06,0,0,0-.38-0.65,0.81,0.81,0,0,0-.35.13c-0.2,0-.2,0,0-0.08a1.07,1.07,0,0,0,.3-0.23h0Z" transform="translate(-668.5 -313.34)"/>
      <path d="M709.64,329.58h0l-0.18,0a1.8,1.8,0,0,0-.2-0.49,1.53,1.53,0,0,1,.2.47,0.45,0.45,0,0,0,.17,0s0-.24,0-0.34c0-.51.23-0.69,0.37-0.52l0.18,0.17a1,1,0,0,1-.18-0.17c-0.13-.16-0.34,0-0.36.51,0,0.11,0,.35,0,0.35h0Zm-0.12-.47,0-.08a0.9,0.9,0,0,1,.19-0.41c0.2-.21.48-0.11,0.65,0.28h0c-0.16-.4-0.43-0.48-0.62-0.28a0.66,0.66,0,0,0-.15.48h0Zm-0.89-.07,0,0h0.13a0.36,0.36,0,0,0,.18-0.09,0.18,0.18,0,0,1,.12-0.05l0,0a0.18,0.18,0,0,0-.16,0,0.37,0.37,0,0,1-.18.09h-0.1Zm0,0a0.17,0.17,0,0,1,.09-0.06,0.32,0.32,0,0,0,.19-0.14,0.35,0.35,0,0,1,.11-0.1,0.32,0.32,0,0,1,.39.15,0.34,0.34,0,0,0-.39-0.14,0.33,0.33,0,0,0-.11.1,0.33,0.33,0,0,1-.2.14l-0.09.05h0Z" transform="translate(-668.5 -313.34)"/>
      <path class="m" d="M709,329a0.39,0.39,0,0,1,.45.41,0,0,0,0,0,.05,0c0-.51.72-0.53,1,0.22,0,0.12,0,.11-0.14,0s-0.67-.53-0.71-0.06c0,0.11-.05.34-0.05,0.34l-0.17,0a1.08,1.08,0,0,0-.35-0.68,1.41,1.41,0,0,0-.46.16c-0.2,0-.2,0,0-0.08s0.33-.24.41-0.27h0Z" transform="translate(-668.5 -313.34)"/>
      <path d="M709.64,329.92h0l-0.17,0a1.58,1.58,0,0,0-.2-0.55,1.34,1.34,0,0,1,.21.53,0.38,0.38,0,0,0,.16.05s0-.24.05-0.34a0.22,0.22,0,0,1,.21-0.25,0.8,0.8,0,0,1,.51.3,0.27,0.27,0,0,0,.12.11,0.07,0.07,0,0,0,0-.07c-0.24-.63-0.71-0.68-0.9-0.49a0.36,0.36,0,0,0-.09.27l0-.08a0.71,0.71,0,0,1,.12-0.2c0.19-.19.67-0.15,0.91,0.49a0.11,0.11,0,0,1,0,.08,0.23,0.23,0,0,1-.14-0.11,0.78,0.78,0,0,0-.5-0.3,0.21,0.21,0,0,0-.2.24c0,0.11-.05.34-0.05,0.34h0Zm-1-.56c-0.13,0-.15,0-0.15,0s0,0,.12-0.07l0.13-.09A1.65,1.65,0,0,1,709,329a0.33,0.33,0,0,1,.38.17A0.34,0.34,0,0,0,709,329a1.67,1.67,0,0,0-.28.18l-0.13.09a0.16,0.16,0,0,0-.11.06,0.17,0.17,0,0,0,.11,0,0.54,0.54,0,0,0,.27-0.1,0.33,0.33,0,0,1,.18-0.07h0a0.36,0.36,0,0,0-.22.06,0.54,0.54,0,0,1-.23.1h0Z" transform="translate(-668.5 -313.34)"/>
      <path class="m" d="M709.09,329.37a0.4,0.4,0,0,1,.42.45s0,0,0,0c0-.52.49-0.23,0.68,0.47,0,0.07-.14-0.08-0.24-0.23s-0.22-.58-0.29-0.11c0,0.11-.08.34-0.08,0.34l-0.17-.05a1.11,1.11,0,0,0-.3-0.71,5.7,5.7,0,0,0-.51.43c-0.21,0-.2,0,0-0.08a5,5,0,0,1,.47-0.54h0Z" transform="translate(-668.5 -313.34)"/>
      <path d="M710.24,330.34a0.78,0.78,0,0,1-.24-0.25,1.2,1.2,0,0,1-.08-0.15c-0.09-.18-0.16-0.27-0.21,0,0,0.11-.08.34-0.08,0.34l-0.17-.05a1.13,1.13,0,0,0-.24-0.67,1,1,0,0,1,.25.65,0.46,0.46,0,0,0,.17.07s0-.23.07-0.33c0.05-.33.13-0.24,0.22,0l0.08,0.15a0.79,0.79,0,0,0,.24.25h0c-0.19-.75-0.65-0.94-0.67-0.49l0-.09a0.22,0.22,0,0,1,.18-0.18,0.9,0.9,0,0,1,.52.74v0h0Zm-1.58-.35c-0.14,0-.16,0-0.16,0s0,0,.12-0.06a1.33,1.33,0,0,0,.14-0.17,1.54,1.54,0,0,1,.33-0.37h0.06a1,1,0,0,0-.38.37,0.77,0.77,0,0,1-.14.17,0.19,0.19,0,0,0-.12,0,0.25,0.25,0,0,0,.15,0,0.43,0.43,0,0,0,.26-0.24,0.35,0.35,0,0,1,.21-0.2l0.07,0,0,0c-0.12,0-.17.09-0.23,0.19a0.44,0.44,0,0,1-.27.24h0Z" transform="translate(-668.5 -313.34)"/>
      <path class="l" d="M708.23,329.6h0a0.08,0.08,0,0,1,.1,0l0.53,1.54a0.09,0.09,0,0,1-.07.08h0a0.08,0.08,0,0,1-.1,0l-0.53-1.54a0.08,0.08,0,0,1,.07-0.07h0Z" transform="translate(-668.5 -313.34)"/>
      <path d="M708.74,331.25l-0.06,0-0.53-1.54a0.11,0.11,0,0,1,.07-0.08l0.11,0,0.53,1.54a0.09,0.09,0,0,1-.07.08h-0.05Zm-0.51-1.64h0a0.13,0.13,0,0,0-.07,0l0.53,1.56,0,0h0.05a0.08,0.08,0,0,0,.07-0.07l-0.53-1.54-0.1,0h0Z" transform="translate(-668.5 -313.34)"/>
      <path class="m" d="M708.38,328.62a0.38,0.38,0,0,0-.29.53s0,0,0,0c-0.16-.49-0.69-0.48-0.71.32,0,0.12.12-.11,0.18-0.28s0.23-.31.43,0.13l0.16,0.31,0.15-.09a1.06,1.06,0,0,1,.11-0.75,0.76,0.76,0,0,1,.38-0.13c0.2-.06.18-0.09,0-0.09l-0.38,0h0Z" transform="translate(-668.5 -313.34)"/>
      <path d="M708.11,329.67h0s-0.11-.21-0.16-0.3a0.41,0.41,0,0,0-.26-0.31,0.21,0.21,0,0,0-.15.18,0.76,0.76,0,0,1-.17.31v0a0.52,0.52,0,0,0,.16-0.28c0.08-.27.27-0.24,0.44,0.13l0.16,0.3,0.14-.09a0.86,0.86,0,0,1,.11-0.75,0.69,0.69,0,0,1,.35-0.12,0.3,0.3,0,0,0,.18-0.07,0.15,0.15,0,0,0-.12,0l-0.32,0a0.36,0.36,0,0,0-.28.12,0.53,0.53,0,0,0-.06.41l0,0a0.64,0.64,0,0,1,.09-0.36,0.33,0.33,0,0,1,.23-0.12l0.38,0c0.12,0,.13,0,0.13,0s0,0-.14.07a0.77,0.77,0,0,0-.38.13,0.85,0.85,0,0,0-.11.72s0,0-.15.12h0Zm-0.7-.55c0.12-.34.36-0.32,0.51-0.17a0.3,0.3,0,0,0-.51.17h0Z" transform="translate(-668.5 -313.34)"/>
      <path class="m" d="M708.46,328.91a0.39,0.39,0,0,0-.26.55,0,0,0,0,1,0,0c-0.19-.48-0.71-0.43-0.69.37,0,0.12.12-.12,0.16-0.29s0.21-.33.43,0.1c0.06,0.09.18,0.3,0.18,0.3l0.14-.1a1.08,1.08,0,0,1,.06-0.76,0.76,0.76,0,0,1,.38-0.16c0.19-.07.17-0.1,0-0.09l-0.38,0h0Z" transform="translate(-668.5 -313.34)"/>
      <path d="M708.25,330h0l-0.18-.3a0.41,0.41,0,0,0-.28-0.29,0.2,0.2,0,0,0-.15.19,0.74,0.74,0,0,1-.15.32v0a0.53,0.53,0,0,0,.14-0.3c0.06-.28.26-0.26,0.44,0.1l0.18,0.29,0.13-.1a1,1,0,0,1,.06-0.76,0.7,0.7,0,0,1,.34-0.15,0.33,0.33,0,0,0,.17-0.08,0.11,0.11,0,0,0-.08,0l-0.42,0a0.32,0.32,0,0,0-.21.13,0.53,0.53,0,0,0,0,.41l0,0a0.63,0.63,0,0,1,.07-0.37,0.32,0.32,0,0,1,.22-0.13l0.38,0c0.11,0,.13,0,0.14,0a0.19,0.19,0,0,1-.14.08,0.77,0.77,0,0,0-.37.16,1,1,0,0,0-.06.74s0,0-.14.12h0Zm-0.76-.32a0.59,0.59,0,0,1,.14-0.38,0.27,0.27,0,0,1,.4,0,0.28,0.28,0,0,0-.39,0,0.65,0.65,0,0,0-.14.38h0Z" transform="translate(-668.5 -313.34)"/>
      <path class="m" d="M708.54,329.26a0.39,0.39,0,0,0-.21.57,0,0,0,0,1,0,0c-0.22-.46-0.74-0.37-0.65.43,0,0.12.1-.12,0.14-0.3s0.18-.35.44,0.06l0.2,0.28,0.13-.12a1.09,1.09,0,0,1,0-.77,0.78,0.78,0,0,1,.36-0.19c0.18-.09.16-0.11,0-0.09l-0.37.08h0Z" transform="translate(-668.5 -313.34)"/>
      <path d="M708.41,330.35h0l-0.2-.28a0.44,0.44,0,0,0-.29-0.27,0.2,0.2,0,0,0-.14.21,0.83,0.83,0,0,1-.12.34v0a0.49,0.49,0,0,0,.12-0.3c0-.29.23-0.29,0.45,0.06l0.2,0.28,0.13-.11a1,1,0,0,1,0-.77,0.72,0.72,0,0,1,.32-0.18l0.15-.08a0.21,0.21,0,0,1-.11.08,0.81,0.81,0,0,0-.36.19,0.89,0.89,0,0,0,0,.75s0,0-.13.13h0Zm-0.78-.26a0.59,0.59,0,0,1,.12-0.41,0.27,0.27,0,0,1,.4,0,0.29,0.29,0,0,0-.39,0,0.64,0.64,0,0,0-.13.41h0Zm0.69-.27,0,0a0.65,0.65,0,0,1,0-.38,0.33,0.33,0,0,1,.21-0.15l0.37-.08H709l0,0h-0.11l-0.37.08a0.32,0.32,0,0,0-.2.15,0.53,0.53,0,0,0,0,.42h0Z" transform="translate(-668.5 -313.34)"/>
      <path class="m" d="M710.35,328.5a0.41,0.41,0,0,1,.33.53,0,0,0,0,0,0,0c0.12-.5.73-0.71,0.81,0.1,0,0.12-.13-0.11-0.2-0.28s-0.34-.09-0.5.35c0,0.1-.14.31-0.14,0.31l-0.15-.09a1.12,1.12,0,0,0-.16-0.76,0.76,0.76,0,0,0-.37,0c-0.2-.06-0.18-0.08,0-0.09a1,1,0,0,0,.36-0.11h0Z" transform="translate(-668.5 -313.34)"/>
      <path d="M710.7,329.57h0l-0.16-.1a1,1,0,0,0-.16-0.75l-0.11,0a0.55,0.55,0,0,1-.27,0c-0.13,0-.15-0.06-0.15-0.07s0,0,.13,0a0.36,0.36,0,0,0,.22-0.06,0.31,0.31,0,0,1,.13-0.05,0.34,0.34,0,0,1,.31.26,0.35,0.35,0,0,0-.31-0.25h0a0.31,0.31,0,0,0-.13,0,0.41,0.41,0,0,1-.18.07h0a0.23,0.23,0,0,0-.17,0,0.2,0.2,0,0,0,.14.06,0.37,0.37,0,0,0,.2,0h0l0.07,0a0.24,0.24,0,0,1,.11,0,1,1,0,0,1,.16.75,0.59,0.59,0,0,0,.15.1l0.13-.31c0.18-.49.44-0.56,0.51-0.35a2,2,0,0,0,.12.24,1.28,1.28,0,0,1-.13-0.23c-0.07-.21-0.32-0.13-0.49.35l-0.14.31h0Zm0.82-.39h0c0-.35-0.16-0.54-0.35-0.54a0.52,0.52,0,0,0-.44.44,0.84,0.84,0,0,0,0-.1,0.58,0.58,0,0,1,.45-0.34,0.49,0.49,0,0,1,.38.54h0Z" transform="translate(-668.5 -313.34)"/>
      <path class="m" d="M710.3,328.8a0.42,0.42,0,0,1,.3.55,0,0,0,0,0,0,0c0.15-.49.84-0.23,0.87,0.58,0,0.12-.06.09-0.12-0.08s-0.47-.75-0.65-0.32l-0.15.3-0.15-.1a1.13,1.13,0,0,0-.12-0.77,1.35,1.35,0,0,0-.48,0c-0.19-.07-0.18-0.1,0-0.09s0.38-.1.47-0.09h0Z" transform="translate(-668.5 -313.34)"/>
      <path d="M711.48,330.05a0.22,0.22,0,0,1-.09-0.16,0.74,0.74,0,0,0-.46-0.48,0.21,0.21,0,0,0-.19.16l-0.15.3-0.16-.1a1,1,0,0,0-.12-0.76,0.3,0.3,0,0,0-.23,0,0.55,0.55,0,0,1-.24,0,0.19,0.19,0,0,1-.15-0.08,0.22,0.22,0,0,1,.11,0l0.18,0a1.87,1.87,0,0,1,.31-0.06,0.36,0.36,0,0,1,.31.28,0.36,0.36,0,0,0-.3-0.27h0a1.69,1.69,0,0,0-.32.06l-0.15,0H709.7a0.25,0.25,0,0,0,.14.07,0.54,0.54,0,0,0,.24,0,0.3,0.3,0,0,1,.24,0,1,1,0,0,1,.12.76,0.51,0.51,0,0,0,.14.11,3.32,3.32,0,0,1,.15-0.3,0.22,0.22,0,0,1,.2-0.17,0.74,0.74,0,0,1,.47.49,0.22,0.22,0,0,0,.08.15s0,0,0-.07a0.76,0.76,0,0,0-.57-0.82,0.3,0.3,0,0,0-.29.24s0-.06,0-0.09a0.38,0.38,0,0,1,.29-0.16,0.76,0.76,0,0,1,.58.83c0,0.05,0,.08,0,0.08h0Z" transform="translate(-668.5 -313.34)"/>
      <path class="m" d="M710.24,329.16a0.42,0.42,0,0,1,.26.57,0,0,0,0,0,0,0c0.19-.47.54,0,0.49,0.7,0,0.08-.11-0.13-0.16-0.31s0-.62-0.24-0.21l-0.17.29-0.14-.11a1.13,1.13,0,0,0-.06-0.78,5.88,5.88,0,0,0-.61.21c-0.19-.09-0.17-0.11,0-0.09a4.35,4.35,0,0,1,.61-0.33h0Z" transform="translate(-668.5 -313.34)"/>
      <path d="M711,330.5a0.74,0.74,0,0,1-.16-0.33c0-.05,0-0.11,0-0.17s-0.06-.31-0.21,0l-0.18.29-0.15-.12a2.23,2.23,0,0,0,0-.46,1.68,1.68,0,0,1,0,.45,0.54,0.54,0,0,0,.13.12l0.17-.29c0.16-.3.2-0.17,0.22,0,0,0.06,0,.12,0,0.17a0.81,0.81,0,0,0,.15.32h0v0a1.21,1.21,0,0,0-.19-0.83c-0.11-.11-0.22-0.06-0.3.13,0,0,0-.06,0-0.1s0.22-.13.3,0a1.23,1.23,0,0,1,.19.84v0h0Zm-1.33-.91,0,0a0.5,0.5,0,0,0,.32-0.12,0.45,0.45,0,0,1,.22-0.11l0,0a0.36,0.36,0,0,0-.25.09,0.54,0.54,0,0,1-.28.14h0Zm-0.07,0c-0.11,0-.12-0.06-0.12-0.07h0.13l0.18-.11a1.6,1.6,0,0,1,.42-0.22,0.35,0.35,0,0,1,.28.31,0.37,0.37,0,0,0-.28-0.29h0a1.54,1.54,0,0,0-.42.22l-0.18.11h-0.08s0,0,.07.08h0Z" transform="translate(-668.5 -313.34)"/>
      <path d="M712.84,339.1h0c-3.36-1.41-5.47-3.16-5.61-7.51v-7.38h11.16v7.38c0,3.65-1.54,5.76-5.5,7.51h0Zm-5.52-14.78v7.26c0.14,4.29,2.13,6,5.52,7.39,3.89-1.72,5.41-3.8,5.41-7.39v-7.26H707.33Z" transform="translate(-668.5 -313.34)"/>
    </g>
  </g>
</svg>
