<svg xmlns="http://www.w3.org/2000/svg" xmlns:xlink="http://www.w3.org/1999/xlink" viewBox="0 0 58.92 34.37">
  <defs>
    <style>
      .a {
        fill: none;
      }

      .b {
        clip-path: url(#a);
      }

      .c {
        fill: #162954;
      }

      .d {
        fill: #fff;
      }

      .e {
        fill: #bc0030;
      }
    </style>
    <clipPath id="a" transform="translate(-951.26 -313.34)">
      <rect class="a" x="951.26" y="313.34" width="58.92" height="34.37"/>
    </clipPath>
  </defs>
  <title>French_Southern_and_Antarctic_Lands</title>
  <g class="b">
    <rect class="c" width="6.87" height="13.56"/>
    <polygon class="c" points="20.78 0 20.78 13.92 0 13.92 0 34.37 58.92 34.37 58.92 0 20.78 0"/>
    <rect class="d" x="6.87" width="6.87" height="13.56"/>
    <rect class="e" x="13.75" width="6.69" height="13.56"/>
    <polygon class="d" points="20.62 0 20.62 13.75 13.75 13.75 6.87 13.75 6.87 13.56 0 13.56 0 13.92 20.8 13.92 20.8 0 20.62 0"/>
    <rect class="d" x="6.87" y="13.56" width="6.87" height="0.19"/>
    <polygon class="d" points="20.43 13.56 13.75 13.56 13.75 13.75 20.62 13.75 20.62 0 20.43 0 20.43 13.56"/>
    <path class="d" d="M986.38,326.87l1.11,1.76h3.15v6.14l-2.36-3.7-3.18,5.07h2l0.29-.56h2l2.28,3.65,2.28-3.65h2l0.29,0.56h2L995,331.08l-2.36,3.7v-3.39H994l1.05-1.68h-2.47v-1.08h3.15l1.11-1.76H986.38Zm1.91,6.33,0.77,1.2h-1.37Zm6.64,0.12,0.62,1.08H994.3Z" transform="translate(-951.26 -313.34)"/>
    <polygon class="d" points="44.2 24.17 44.61 25.44 45.95 25.44 44.86 26.22 45.28 27.49 44.2 26.7 43.12 27.49 43.54 26.22 42.45 25.44 43.79 25.44 44.2 24.17"/>
    <polygon class="d" points="40.32 27.13 40.73 28.4 42.07 28.4 40.98 29.18 41.4 30.45 40.32 29.66 39.24 30.45 39.66 29.18 38.58 28.4 39.92 28.4 40.32 27.13"/>
    <polygon class="d" points="36.55 24.17 36.15 25.45 34.81 25.44 35.89 26.22 35.48 27.49 36.55 26.7 37.63 27.49 37.21 26.22 38.3 25.44 36.96 25.45 36.55 24.17"/>
    <polygon class="d" points="47.46 15.48 47.87 16.76 49.2 16.75 48.12 17.53 48.53 18.8 47.46 18.01 46.38 18.8 46.8 17.53 45.71 16.75 47.05 16.76 47.46 15.48"/>
    <polygon class="d" points="33.34 15.46 33.74 16.73 35.08 16.72 33.99 17.51 34.42 18.77 33.34 17.98 32.26 18.77 32.68 17.51 31.59 16.72 32.93 16.73 33.34 15.46"/>
  </g>
</svg>
