<svg xmlns="http://www.w3.org/2000/svg" xmlns:xlink="http://www.w3.org/1999/xlink" viewBox="0 0 58.92 34.37">
  <defs>
    <style>
      .a {
        fill: none;
      }

      .b {
        clip-path: url(#a);
      }

      .c {
        fill: #bc0030;
      }

      .d {
        fill: #fff;
      }

      .e {
        fill: #273b98;
      }

      .f {
        fill: #5b001a;
      }

      .g {
        fill: #f0992a;
      }
    </style>
    <clipPath id="a" transform="translate(-880.57 -313.34)">
      <rect class="a" x="880.57" y="313.34" width="58.92" height="34.37"/>
    </clipPath>
  </defs>
  <title>French_Polynesia</title>
  <g class="b">
    <rect class="c" width="58.92" height="34.37"/>
    <rect class="d" y="8.59" width="58.92" height="17.19"/>
    <g class="b">
      <path class="e" d="M908.3,337a2.61,2.61,0,0,0-1.31.58,7.09,7.09,0,0,0,1.43.45,14.51,14.51,0,0,0,2.42.13l0.39-.06,1.7-.57a3.13,3.13,0,0,0-1.46-.52c-0.65,0-1.08.66-1.61,0.61s-0.73-.63-1.48-0.63H908.3Z" transform="translate(-880.57 -313.34)"/>
      <path class="e" d="M910.81,338.24a14.7,14.7,0,0,1-2.4-.13,7.35,7.35,0,0,1-1.44-.46l-0.11,0,0.09-.07a2.68,2.68,0,0,1,1.35-.59h0.07a1.49,1.49,0,0,1,.95.37,1.07,1.07,0,0,0,.54.27h0a1.35,1.35,0,0,0,.7-0.27,1.89,1.89,0,0,1,.89-0.34h0a3.27,3.27,0,0,1,1.5.53l0.12,0.08-1.83.62-0.4.06h0Zm-3.68-.67a7.11,7.11,0,0,0,1.3.4,14.36,14.36,0,0,0,2.38.13v0l0.39-.05,1.54-.52a2.87,2.87,0,0,0-1.26-.43,1.71,1.71,0,0,0-.86.32,1.47,1.47,0,0,1-.73.29,1.19,1.19,0,0,1-.68-0.29,1.35,1.35,0,0,0-.86-0.34,2.44,2.44,0,0,0-1.24.49h0Z" transform="translate(-880.57 -313.34)"/>
      <path class="e" d="M905.22,336.57l9.64,0a3,3,0,0,0-1.81-.91c-1,0-.71.41-1.46,0.47s-0.94-.45-1.63-0.43-1.09.43-1.61,0.46-1.19-.52-1.59-0.5a11.18,11.18,0,0,0-1.82.62Z" transform="translate(-880.57 -313.34)"/>
      <path class="e" d="M915,336.67l-9.8,0-0.39-.33,0.1,0a11,11,0,0,1,1.84-.62h0a1.9,1.9,0,0,1,.72.23,2.23,2.23,0,0,0,.84.27,1.84,1.84,0,0,0,.69-0.2,2.47,2.47,0,0,1,.95-0.26h0a1.54,1.54,0,0,1,.79.22,1.36,1.36,0,0,0,.83.21,0.89,0.89,0,0,0,.56-0.22,1.12,1.12,0,0,1,.84-0.26,3.1,3.1,0,0,1,1.93.93l0.11,0.11h0Zm-9.95-.33,0.19,0.18,9.43,0a2.8,2.8,0,0,0-1.65-.78h0a1.06,1.06,0,0,0-.81.23,1,1,0,0,1-.63.25,1.5,1.5,0,0,1-.91-0.23,1.39,1.39,0,0,0-.69-0.21,2.39,2.39,0,0,0-.94.25,2,2,0,0,1-.71.21h0a2.28,2.28,0,0,1-.92-0.28,1.9,1.9,0,0,0-.64-0.22,9.48,9.48,0,0,0-1.71.58h0Z" transform="translate(-880.57 -313.34)"/>
      <path class="e" d="M904,335.43l11.9,0c0.19-.27-0.59-0.91-1.29-1s-1,.6-1.48.62-1-.6-1.57-0.58-1.11.58-1.65,0.58-0.94-.6-1.63-0.6-1,.66-1.53.62-1-.66-1.48-0.66a8.63,8.63,0,0,0-1.5.7c-0.17,0,.21.31,0.23,0.25h0Z" transform="translate(-880.57 -313.34)"/>
      <path class="e" d="M915.92,335.54h0l-11.85,0H904a0.55,0.55,0,0,1-.33-0.31v-0.07h0.09a1.14,1.14,0,0,0,.45-0.22,2.51,2.51,0,0,1,1.07-.48,1.53,1.53,0,0,1,.79.34,1.6,1.6,0,0,0,.7.32h0a1.06,1.06,0,0,0,.62-0.26,1.52,1.52,0,0,1,.89-0.36,1.84,1.84,0,0,1,.95.33,1.38,1.38,0,0,0,.68.26,1.91,1.91,0,0,0,.81-0.28,2.16,2.16,0,0,1,.84-0.29h0a1.79,1.79,0,0,1,.86.31,1.54,1.54,0,0,0,.68.27,1.39,1.39,0,0,0,.65-0.28,1.72,1.72,0,0,1,.85-0.34,1.88,1.88,0,0,1,1.35.79,0.27,0.27,0,0,1,0,.28l0,0h0Zm-12.13-.29s0.15,0.11.19,0.12l11.86,0a0.18,0.18,0,0,0,0-.12,1.75,1.75,0,0,0-1.24-.71,1.65,1.65,0,0,0-.78.32,1.48,1.48,0,0,1-.7.3h0a1.63,1.63,0,0,1-.77-0.28,1.69,1.69,0,0,0-.77-0.29,2,2,0,0,0-.8.28,2,2,0,0,1-.87.3,1.49,1.49,0,0,1-.75-0.28,1.69,1.69,0,0,0-.88-0.32,1.38,1.38,0,0,0-.82.33,1.19,1.19,0,0,1-.66.29,1.71,1.71,0,0,1-.82-0.35,1.41,1.41,0,0,0-.71-0.31,2.49,2.49,0,0,0-1,.46,1.51,1.51,0,0,1-.46.24h0Z" transform="translate(-880.57 -313.34)"/>
      <path class="c" d="M908.56,328.89l2.73,0.72v-3.86c-1.25.06-2.29-2.35-.08-2.52-2.17-.31-2.42.25-2.67,0.85Z" transform="translate(-880.57 -313.34)"/>
      <path class="f" d="M911.29,329.7h0l-2.73-.72a0.08,0.08,0,0,1-.06-0.08l0-4.81a1.43,1.43,0,0,1,1.68-1,8,8,0,0,1,1.08.09,0.08,0.08,0,0,1,.07.09,0.09,0.09,0,0,1-.08.08,1.06,1.06,0,0,0-1.21,1,1.42,1.42,0,0,0,1.24,1.33,0.15,0.15,0,0,1,.08,0,0.12,0.12,0,0,1,0,.06v3.86a0.09,0.09,0,0,1,0,.07l-0.05,0h0Zm-2.65-.87,2.57,0.68v-3.67a1.6,1.6,0,0,1-1.37-1.49,1.07,1.07,0,0,1,.82-1.09l-0.52,0a1.28,1.28,0,0,0-1.52.88l0,4.71h0Z" transform="translate(-880.57 -313.34)"/>
      <path class="f" d="M906.83,331.7l6.18,0Z" transform="translate(-880.57 -313.34)"/>
      <path class="f" d="M913,331.84h0l-6.18,0a0.12,0.12,0,0,1,0-.24h0l6.18,0a0.12,0.12,0,0,1,0,.24h0Z" transform="translate(-880.57 -313.34)"/>
      <path class="f" d="M907.12,330.23l0.73,1Z" transform="translate(-880.57 -313.34)"/>
      <path class="f" d="M907.85,331.28a0.08,0.08,0,0,1-.06,0l-0.73-1a0.08,0.08,0,1,1,.13-0.09l0.73,1a0.08,0.08,0,0,1,0,.11l0,0h0Z" transform="translate(-880.57 -313.34)"/>
      <path class="f" d="M907.12,331.2l0.79-.95Z" transform="translate(-880.57 -313.34)"/>
      <path class="f" d="M907.12,331.28l-0.05,0a0.08,0.08,0,0,1,0-.11l0.79-.95a0.08,0.08,0,0,1,.11,0,0.08,0.08,0,0,1,0,.11l-0.79.95a0.07,0.07,0,0,1-.06,0h0Z" transform="translate(-880.57 -313.34)"/>
      <path class="f" d="M907.54,330.17l0,0.6Z" transform="translate(-880.57 -313.34)"/>
      <path class="f" d="M907.52,330.85h0a0.08,0.08,0,0,1-.07-0.08l0-.6s0-.09.08-0.07a0.08,0.08,0,0,1,.08.08l0,0.6a0.08,0.08,0,0,1-.08.07h0Z" transform="translate(-880.57 -313.34)"/>
      <path class="f" d="M908.29,330.23l0.73,1Z" transform="translate(-880.57 -313.34)"/>
      <path class="f" d="M909,331.28a0.08,0.08,0,0,1-.06,0l-0.73-1a0.08,0.08,0,0,1,0-.11,0.08,0.08,0,0,1,.11,0l0.73,1a0.08,0.08,0,0,1,0,.11l0,0h0Z" transform="translate(-880.57 -313.34)"/>
      <path class="f" d="M908.29,331.2l0.79-.95Z" transform="translate(-880.57 -313.34)"/>
      <path class="f" d="M908.29,331.28l0,0a0.08,0.08,0,0,1,0-.11l0.79-.95a0.08,0.08,0,0,1,.11,0,0.08,0.08,0,0,1,0,.11l-0.79.95a0.08,0.08,0,0,1-.06,0h0Z" transform="translate(-880.57 -313.34)"/>
      <path class="f" d="M908.71,330.17l0,0.6Z" transform="translate(-880.57 -313.34)"/>
      <path class="f" d="M908.69,330.85h0a0.08,0.08,0,0,1-.08-0.08l0-.6s0-.09.08-0.07a0.08,0.08,0,0,1,.07.08l0,0.6a0.08,0.08,0,0,1-.08.07h0Z" transform="translate(-880.57 -313.34)"/>
      <path class="f" d="M909.48,330.23l0.73,1Z" transform="translate(-880.57 -313.34)"/>
      <path class="f" d="M910.21,331.28a0.07,0.07,0,0,1-.06,0l-0.73-1a0.08,0.08,0,1,1,.12-0.09l0.73,1a0.08,0.08,0,0,1,0,.11l0,0h0Z" transform="translate(-880.57 -313.34)"/>
      <path class="f" d="M909.48,331.2l0.79-.95Z" transform="translate(-880.57 -313.34)"/>
      <path class="f" d="M909.48,331.28l0,0a0.08,0.08,0,0,1,0-.11l0.79-.95a0.08,0.08,0,0,1,.11,0,0.08,0.08,0,0,1,0,.11l-0.79.95a0.08,0.08,0,0,1-.06,0h0Z" transform="translate(-880.57 -313.34)"/>
      <path class="f" d="M909.9,330.17l0,0.6Z" transform="translate(-880.57 -313.34)"/>
      <path class="f" d="M909.88,330.85h0a0.08,0.08,0,0,1-.08-0.08l0-.6s0-.09.08-0.07a0.08,0.08,0,0,1,.07.08l0,0.6a0.08,0.08,0,0,1-.08.07h0Z" transform="translate(-880.57 -313.34)"/>
      <path class="f" d="M910.71,330.23l0.73,1Z" transform="translate(-880.57 -313.34)"/>
      <path class="f" d="M911.44,331.28a0.08,0.08,0,0,1-.06,0l-0.73-1a0.08,0.08,0,0,1,.13-0.09l0.73,1a0.08,0.08,0,0,1,0,.11l0,0h0Z" transform="translate(-880.57 -313.34)"/>
      <path class="f" d="M910.71,331.2l0.79-.95Z" transform="translate(-880.57 -313.34)"/>
      <path class="f" d="M910.71,331.28l-0.05,0a0.08,0.08,0,0,1,0-.11l0.79-.95a0.08,0.08,0,0,1,.11,0,0.08,0.08,0,0,1,0,.11l-0.79.95a0.07,0.07,0,0,1-.06,0h0Z" transform="translate(-880.57 -313.34)"/>
      <path class="f" d="M911.13,330.17l0,0.6Z" transform="translate(-880.57 -313.34)"/>
      <path class="f" d="M911.11,330.85h0a0.08,0.08,0,0,1-.07-0.08l0-.6a0.07,0.07,0,0,1,.08-0.07,0.08,0.08,0,0,1,.07.08l0,0.6a0.08,0.08,0,0,1-.08.07h0Z" transform="translate(-880.57 -313.34)"/>
      <path class="f" d="M911.9,330.23l0.73,1Z" transform="translate(-880.57 -313.34)"/>
      <path class="f" d="M912.63,331.28a0.08,0.08,0,0,1-.06,0l-0.73-1a0.08,0.08,0,0,1,0-.11,0.08,0.08,0,0,1,.11,0l0.73,1a0.08,0.08,0,0,1,0,.11l0,0h0Z" transform="translate(-880.57 -313.34)"/>
      <path class="f" d="M911.9,331.2l0.79-.95Z" transform="translate(-880.57 -313.34)"/>
      <path class="f" d="M911.9,331.28l0,0a0.08,0.08,0,0,1,0-.11l0.79-.95a0.07,0.07,0,0,1,.11,0,0.08,0.08,0,0,1,0,.11l-0.79.95a0.08,0.08,0,0,1-.06,0h0Z" transform="translate(-880.57 -313.34)"/>
      <path class="f" d="M912.32,330.17l0,0.6Z" transform="translate(-880.57 -313.34)"/>
      <path class="f" d="M912.3,330.85h0a0.08,0.08,0,0,1-.07-0.08l0-.6s0-.09.08-0.07a0.08,0.08,0,0,1,.08.08l0,0.6a0.07,0.07,0,0,1-.08.07h0Z" transform="translate(-880.57 -313.34)"/>
      <polygon class="g" points="22.1 18.42 24.73 18.44 24.73 16.81 21.73 16.67 22.1 18.42"/>
      <polygon class="g" points="21.98 16.17 24.77 16.44 24.75 15.29 22.02 14.21 21.98 16.17"/>
      <path class="g" d="M903.11,327.2l2.15,1,0.31-.32a0.42,0.42,0,0,1-.19-0.26c0-.12.2-0.14,0.2-0.28s-0.22-.14-0.22-0.27a0.42,0.42,0,0,1,.17-0.28l-1.94-1.67Z" transform="translate(-880.57 -313.34)"/>
      <polygon class="g" points="36.65 18.44 33.88 18.44 33.85 16.85 36.9 16.63 36.65 18.44"/>
      <path class="g" d="M917.29,329.49c0-.26-0.07-0.52-0.13-0.77a7.63,7.63,0,0,0-.31-1l0-.07-2.37,1,0,1.18Z" transform="translate(-880.57 -313.34)"/>
      <path class="g" d="M915.67,325.67l-1.42,1.07h0a2.72,2.72,0,0,1,.15.32,0.72,0.72,0,0,1-.18.32h0a0.39,0.39,0,0,1,.18.22,0.29,0.29,0,0,1-.14.23,0.53,0.53,0,0,1,.23.37l2.13-1.11a7.38,7.38,0,0,0-.95-1.5h0Z" transform="translate(-880.57 -313.34)"/>
      <polygon class="g" points="31.14 16.45 32.33 16.4 32.35 15.93 31.14 16.45"/>
      <polygon class="g" points="27.51 16.41 26.26 16.38 26.26 15.88 27.51 16.41"/>
      <path class="g" d="M908.07,329.61l-1.25-.63v-0.83a0.11,0.11,0,0,1-.12-0.14c0-.34.92,0.63,1.38,0.94v0.66Z" transform="translate(-880.57 -313.34)"/>
      <path class="g" d="M911.71,329.53V329s1.13-1,1.37-1.19a0.63,0.63,0,0,1-.13.37V329Z" transform="translate(-880.57 -313.34)"/>
      <path class="g" d="M904.41,325l1.27,1.39a0.65,0.65,0,0,1,.61-0.13c0.29,0,.53,0,0.53.19a1.62,1.62,0,0,1-.15.32,2.14,2.14,0,0,1,.22.32,1.75,1.75,0,0,1-.16.29,0.16,0.16,0,0,0,.17.13l1.18,1.13v-1.21l-2.44-3.79Z" transform="translate(-880.57 -313.34)"/>
      <path class="g" d="M906.36,323.58c0,0.05,1.65,3.34,1.65,3.34s0-3.09.3-3.25l-0.46-.84Z" transform="translate(-880.57 -313.34)"/>
      <path class="g" d="M911.7,323.23l-0.62,2.13a3.17,3.17,0,0,0,.54,0,0.14,0.14,0,0,1,.11,0v0h0a0.16,0.16,0,0,1,0,0,0.33,0.33,0,0,1,0,.12V327l1.74-3.08a7.3,7.3,0,0,0-1.14-.46,5.32,5.32,0,0,0-.62-0.19h0Z" transform="translate(-880.57 -313.34)"/>
      <path class="g" d="M913.87,324.12l-2.16,3.32v1.28l1.42-1.35,0,0h0a0.28,0.28,0,0,1-.16-0.19,0.16,0.16,0,0,1,0-.06,1,1,0,0,1,.13-0.11,0.19,0.19,0,0,0,0-.13,0.26,0.26,0,0,0,0-.1h0l-0.07,0h0a0.25,0.25,0,0,1,0-.11,0.15,0.15,0,0,1,0-.07h0l0,0h0a0.51,0.51,0,0,1,.35-0.08,1.16,1.16,0,0,1,.78.08l1.1-1.12a7,7,0,0,0-1.43-1.14h0Z" transform="translate(-880.57 -313.34)"/>
      <path class="c" d="M909.17,332.38a1.62,1.62,0,0,1-2.55,0c-0.11,0,0-4.19,0-4.19a0.32,0.32,0,0,1-.19-0.21,3.24,3.24,0,0,0,.24-0.31c0-.17-0.25-0.1-0.26-0.27s0.27-.14.26-0.29-0.3-.14-0.32-0.29a0.54,0.54,0,0,1,.27-0.28h-0.66c-0.32,0,0,.07,0,0.26a2.52,2.52,0,0,1-.18.3c0,0.11.23,0.19,0.23,0.31s-0.23.12-.22,0.23a2.54,2.54,0,0,0,.21.33,2.63,2.63,0,0,1-.26.24c0,0.17,0,4.28,0,4.28,0.41,2.09,2.77,2.63,3.44-.13h0Z" transform="translate(-880.57 -313.34)"/>
      <path class="f" d="M907.44,334.35h0a2,2,0,0,1-1.79-1.83c0-.06,0-4.12,0-4.29a0.23,0.23,0,0,1,.16-0.18,0.35,0.35,0,0,0,.1-0.07l-0.05-.06a0.38,0.38,0,0,1-.15-0.26,0.21,0.21,0,0,1,.15-0.19l0.07,0a0.29,0.29,0,0,0-.1-0.11,0.27,0.27,0,0,1-.14-0.21,0.34,0.34,0,0,1,.11-0.19,0.24,0.24,0,0,0,.07-0.12,0.19,0.19,0,0,0-.08-0.12,0.14,0.14,0,1,1,.16-0.22h0.46a0.3,0.3,0,0,1,.25.05,0.08,0.08,0,0,1,0,.09l-0.07.05a0.4,0.4,0,0,0-.16.16,0.17,0.17,0,0,0,.1.07,0.28,0.28,0,0,1,.21.22,0.23,0.23,0,0,1-.17.22,0.12,0.12,0,0,0-.09.07s0,0,.08.06a0.23,0.23,0,0,1,.18.21,0.3,0.3,0,0,1-.17.24,0.2,0.2,0,0,0-.07.06,0.24,0.24,0,0,0,.14.14,0.08,0.08,0,0,1,0,.08c0,1.51,0,4,0,4.15a1.48,1.48,0,0,0,1.26.58,1.31,1.31,0,0,0,1.16-.59,0.08,0.08,0,0,1,.1,0,0.09,0.09,0,0,1,0,.1c-0.3,1.22-1,1.95-1.81,1.95h0Zm-1.51-7.71a0.27,0.27,0,0,1,.06.17,0.35,0.35,0,0,1-.12.22,0.3,0.3,0,0,0-.06.09l0.08,0.07a0.33,0.33,0,0,1,.16.23,0.23,0.23,0,0,1-.16.19l-0.07,0a0.27,0.27,0,0,0,.1.14,0.25,0.25,0,0,1,.11.19,0.28,0.28,0,0,1-.19.21l-0.08,0c0,0.15,0,4.09,0,4.26a1.86,1.86,0,0,0,1.63,1.68h0a1.79,1.79,0,0,0,1.54-1.46,1.57,1.57,0,0,1-1,.36,1.6,1.6,0,0,1-1.4-.67s-0.12,0-.06-4.18a0.34,0.34,0,0,1-.19-0.25,0.24,0.24,0,0,1,.15-0.21,0.14,0.14,0,0,0,.09-0.1s0,0-.07-0.06a0.23,0.23,0,0,1-.19-0.21,0.26,0.26,0,0,1,.18-0.23,0.1,0.1,0,0,0,.08-0.05,0.15,0.15,0,0,0-.11-0.08,0.27,0.27,0,0,1-.2-0.21,0.26,0.26,0,0,1,.1-0.21h-0.39Z" transform="translate(-880.57 -313.34)"/>
      <path class="c" d="M910.72,332.38a1.63,1.63,0,0,0,2.56,0c0.11,0,0-4.19,0-4.19a0.32,0.32,0,0,0,.19-0.21,3.31,3.31,0,0,1-.23-0.31c0-.17.24-0.1,0.25-0.27s-0.25-.15-0.24-0.29,0.21-.15.22-0.3a0.36,0.36,0,0,0-.18-0.27H914c0.32,0,0,.07,0,0.26a2.09,2.09,0,0,0,.18.3c0,0.11-.23.19-0.23,0.31s0.23,0.12.22,0.23a2.38,2.38,0,0,1-.2.33,3.15,3.15,0,0,0,.26.24c0,0.17,0,4.28,0,4.28-0.41,2.09-2.77,2.63-3.44-.13h0Z" transform="translate(-880.57 -313.34)"/>
      <path class="f" d="M912.45,334.35c-0.84,0-1.51-.73-1.81-1.95a0.08,0.08,0,0,1,0-.1,0.08,0.08,0,0,1,.1,0,1.31,1.31,0,0,0,1.16.59,1.46,1.46,0,0,0,1.25-.58c0.07-.18.06-2.64,0-4.15a0.08,0.08,0,0,1,0-.08,0.23,0.23,0,0,0,.14-0.14,0.15,0.15,0,0,0-.06-0.06,0.29,0.29,0,0,1-.16-0.24,0.23,0.23,0,0,1,.17-0.21c0.07,0,.07,0,0.07-0.06a0.12,0.12,0,0,0-.08-0.08,0.24,0.24,0,0,1-.16-0.22,0.29,0.29,0,0,1,.15-0.22,0.11,0.11,0,0,0,.07-0.08,0.23,0.23,0,0,0-.12-0.16,0.12,0.12,0,0,1,0-.11s0-.08.06-0.07H914a0.21,0.21,0,0,1,.22.07,0.23,0.23,0,0,1-.06.14,0.18,0.18,0,0,0-.08.12,0.23,0.23,0,0,0,.07.12,0.35,0.35,0,0,1,.1.18,0.27,0.27,0,0,1-.14.22,0.25,0.25,0,0,0-.1.11l0.07,0a0.21,0.21,0,0,1,.15.19,0.38,0.38,0,0,1-.15.26,0.2,0.2,0,0,0-.05.06l0.1,0.06a0.23,0.23,0,0,1,.16.18c0,0.17,0,4.24,0,4.28a2,2,0,0,1-1.79,1.84h0Zm-1.54-1.62a1.79,1.79,0,0,0,1.54,1.46,1.86,1.86,0,0,0,1.63-1.69c0-.15,0-4.1,0-4.27l-0.07,0a0.27,0.27,0,0,1-.19-0.2,0.25,0.25,0,0,1,.11-0.19,0.24,0.24,0,0,0,.1-0.15l-0.06,0a0.23,0.23,0,0,1-.16-0.19,0.33,0.33,0,0,1,.15-0.23l0.08-.08L914,327a0.35,0.35,0,0,1-.12-0.22,0.28,0.28,0,0,1,.06-0.17h-0.42a0.27,0.27,0,0,1,.06.19,0.26,0.26,0,0,1-.14.21,0.11,0.11,0,0,0-.08.09s0,0,.07.06a0.26,0.26,0,0,1,.17.22,0.23,0.23,0,0,1-.18.21c-0.07,0-.07,0-0.07.06a0.14,0.14,0,0,0,.09.1,0.24,0.24,0,0,1,.14.21,0.34,0.34,0,0,1-.18.25c0.06,4.18,0,4.2-.11,4.23a1.53,1.53,0,0,1-1.35.62,1.57,1.57,0,0,1-1-.36h0Z" transform="translate(-880.57 -313.34)"/>
      <path class="e" d="M908.59,334.29h2.66a1.71,1.71,0,0,0-1.33-.84,1.74,1.74,0,0,0-1.33.85h0Z" transform="translate(-880.57 -313.34)"/>
      <path class="e" d="M908.59,334.36h-0.07v-0.07a1.75,1.75,0,0,1,1.39-.91H910a1.83,1.83,0,0,1,1.31.88l0,0,0,0-2.7,0h0Zm1.4-.85h-0.07a1.7,1.7,0,0,0-1.22.71h2.43a1.65,1.65,0,0,0-1.14-.71h0Z" transform="translate(-880.57 -313.34)"/>
      <path class="e" d="M917.06,334.23h-3.63a1.91,1.91,0,0,0,.6-0.53,0.86,0.86,0,0,0,.64.27c0.47,0,.92-0.53,1.37-0.51a2.27,2.27,0,0,1,1,.76h0Z" transform="translate(-880.57 -313.34)"/>
      <path class="e" d="M917.06,334.3h-3.88l0.21-.12a1.9,1.9,0,0,0,.57-0.5l0-.06,0.06,0a0.8,0.8,0,0,1,.17.13,0.55,0.55,0,0,0,.44.14h0a1.37,1.37,0,0,0,.66-0.25,1.45,1.45,0,0,1,.68-0.26,2,2,0,0,1,1.05.73l0.18,0.12-0.19,0h0Zm-3.41-.13h3.26a1.59,1.59,0,0,0-.88-0.63h0a1.32,1.32,0,0,0-.63.24,1.49,1.49,0,0,1-.71.27,0.7,0.7,0,0,1-.55-0.18l-0.09-.07a1.66,1.66,0,0,1-.4.37h0Z" transform="translate(-880.57 -313.34)"/>
      <path class="e" d="M902.74,334.23h3.63a1.89,1.89,0,0,1-.6-0.53,0.87,0.87,0,0,1-.64.27c-0.47,0-.92-0.53-1.37-0.51a2.27,2.27,0,0,0-1,.76h0Z" transform="translate(-880.57 -313.34)"/>
      <path class="e" d="M906.37,334.3h-3.85l0.18-.12a2.06,2.06,0,0,1,1.06-.77h0a1.42,1.42,0,0,1,.7.26,1.39,1.39,0,0,0,.64.25,0.59,0.59,0,0,0,.46-0.14,0.75,0.75,0,0,1,.17-0.12l0.06,0,0,0.06a1.9,1.9,0,0,0,.57.5l0.21,0.12h-0.24Zm-3.48-.13h3.26a1.69,1.69,0,0,1-.4-0.37l-0.09.07a0.67,0.67,0,0,1-.53.18h0a1.48,1.48,0,0,1-.73-0.27,1.34,1.34,0,0,0-.61-0.24,1.58,1.58,0,0,0-.9.63h0Z" transform="translate(-880.57 -313.34)"/>
      <path class="e" d="M903,333.1l2.59,0a2.31,2.31,0,0,1-.19-0.79c-0.67-.23-1.21.49-1.69,0.52a1.61,1.61,0,0,1-1-.52Z" transform="translate(-880.57 -313.34)"/>
      <path class="e" d="M905.7,333.19l-2.74,0-0.29-.81,0.11-.07a1.59,1.59,0,0,0,.91.5,1.38,1.38,0,0,0,.59-0.24,1.43,1.43,0,0,1,1.14-.27h0v0a2.26,2.26,0,0,0,.18.76l0,0.1h0Zm-2.65-.15,2.44,0a2.4,2.4,0,0,1-.15-0.67,1.33,1.33,0,0,0-1,.28,1.49,1.49,0,0,1-.63.26h0a1.44,1.44,0,0,1-.83-0.36l0.17,0.47h0Z" transform="translate(-880.57 -313.34)"/>
      <path class="e" d="M916.83,333.1l-2.59,0a2.31,2.31,0,0,0,.19-0.79c0.67-.23,1.21.49,1.69,0.52a1.61,1.61,0,0,0,1-.52Z" transform="translate(-880.57 -313.34)"/>
      <path class="e" d="M914.13,333.19l0-.1a2.23,2.23,0,0,0,.18-0.76v0h0a1.43,1.43,0,0,1,1.15.27,1.39,1.39,0,0,0,.57.24h0a1.6,1.6,0,0,0,.93-0.5l0.11,0.07-0.29.81-2.74,0h0Zm0.36-.8a2.33,2.33,0,0,1-.15.67l2.44,0,0.17-.47a1.39,1.39,0,0,1-.8.36,1.5,1.5,0,0,1-.66-0.26,1.33,1.33,0,0,0-1-.28h0Z" transform="translate(-880.57 -313.34)"/>
      <path class="e" d="M909.25,333.12l1.31,0s0-.39-0.67-0.39-0.63.45-.65,0.43h0Z" transform="translate(-880.57 -313.34)"/>
      <path class="e" d="M909.12,333.19l0.07-.1a0.62,0.62,0,0,1,.71-0.47,0.84,0.84,0,0,1,.62.2,0.39,0.39,0,0,1,.11.26v0.06l-1.51,0h0Zm0.78-.44a0.48,0.48,0,0,0-.56.3h0.18a0.06,0.06,0,0,1,0,0c0-.07.13-0.07,0.13,0v0l0.85,0a0.28,0.28,0,0,0-.07-0.11,0.73,0.73,0,0,0-.52-0.15h0Z" transform="translate(-880.57 -313.34)"/>
      <path class="f" d="M908.46,332.56A1.2,1.2,0,0,0,909,332l-0.9,0a2.68,2.68,0,0,0-.63.51h0.94Z" transform="translate(-880.57 -313.34)"/>
      <path class="f" d="M908.49,332.68h-1.21l0.15-.2a2.87,2.87,0,0,1,.66-0.55l1.16,0-0.09.18a1.34,1.34,0,0,1-.64.59h0Zm-0.69-.24h0.63a1.29,1.29,0,0,0,.39-0.29h-0.67s-0.18.13-.35,0.28h0Z" transform="translate(-880.57 -313.34)"/>
      <path class="f" d="M911.36,332.56a1.21,1.21,0,0,1-.58-0.54l0.9,0a2.68,2.68,0,0,1,.63.51h-0.94Z" transform="translate(-880.57 -313.34)"/>
      <path class="f" d="M912.54,332.68h-1.18a1.32,1.32,0,0,1-.69-0.6l-0.09-.18,1.1,0a2.36,2.36,0,0,1,.72.56l0.15,0.2h0Zm-1.55-.54a1.32,1.32,0,0,0,.42.31H912a3.12,3.12,0,0,0-.41-0.3H911Z" transform="translate(-880.57 -313.34)"/>
      <path class="d" d="M880.57,339.12h58.92V321.93H880.57v17.19ZM909.23,323a8.14,8.14,0,0,1,3.09.4c6,1.9,6.85,10.42,1.48,13.67a6,6,0,0,1-3,1.08,14.52,14.52,0,0,1-2.42-.13c-5.91-1.22-7.79-9.07-3.36-13.13a7.86,7.86,0,0,1,4.16-1.89h0Z" transform="translate(-880.57 -313.34)"/>
    </g>
  </g>
</svg>
