<svg xmlns="http://www.w3.org/2000/svg" xmlns:xlink="http://www.w3.org/1999/xlink" viewBox="0 0 58.93 34.37">
  <defs>
    <style>
      .a {
        fill: none;
      }

      .b {
        clip-path: url(#a);
      }

      .c {
        fill: #fff;
      }

      .d {
        fill: #c70021;
      }

      .e {
        fill: #f0d82c;
      }
    </style>
    <clipPath id="a" transform="translate(-245.95 -371.66)">
      <rect class="a" x="245.95" y="371.66" width="58.93" height="34.37"/>
    </clipPath>
  </defs>
  <title>Gibraltar</title>
  <g class="b">
    <rect class="c" width="58.93" height="34.37"/>
    <rect class="d" y="23.03" width="58.93" height="11.35"/>
    <path class="e" d="M272.7,402.22v1.08h0.68v-0.54h0.92v0.54H275v-1.08H272.7Zm0,1.48v1.08H275V403.7h-0.73v0.54h-0.92V403.7H272.7Z" transform="translate(-245.95 -371.66)"/>
    <path d="M275.05,404.82H272.7l0-1.12,0.71,0,0,0.57,0.88,0,0-.51,0.76,0,0,1.15h0Zm-1.71-1.12-0.64,0,0,1,2.25,0v-1l-0.69,0,0,0.51-1,0,0-.57h0Zm1.71-.37h-0.76l0-.58-0.88,0,0,0.51-0.71,0,0-1.11,2.35,0,0,1.15h0Zm-0.76-.61,0,0.58,0.66,0v-1l-2.29,0,0,1,0.64,0,0-.51,1,0h0Z" transform="translate(-245.95 -371.66)"/>
    <rect x="21.48" y="15.62" width="15.96" height="5.91"/>
    <polygon class="d" points="25.95 20.66 20.7 20.66 19.54 21.42 19.54 22.23 25.95 22.23 25.95 20.66"/>
    <polygon points="19.54 22.27 19.5 21.42 20.68 20.63 25.98 20.63 25.95 20.69 20.7 20.69 19.56 21.45 19.57 22.23 25.95 22.2 19.54 22.27 19.54 22.27"/>
    <polygon class="d" points="32.98 20.66 38.22 20.66 39.39 21.42 39.39 22.23 32.98 22.23 32.98 20.66"/>
    <polygon points="32.98 22.27 39.39 22.2 39.35 21.42 38.2 20.69 32.94 20.69 32.98 20.63 38.22 20.63 39.41 21.39 39.42 22.23 32.98 22.27 32.98 22.27"/>
    <path class="d" d="M265.49,393.09h0Z" transform="translate(-245.95 -371.66)"/>
    <polygon points="19.54 21.46 19.5 21.46 19.54 21.39 39.39 21.39 19.54 21.46 19.54 21.46"/>
    <polygon class="d" points="25.78 21.05 24.46 21.69 24.46 22.63 29.46 22.63 34.46 22.63 34.46 21.69 33.15 21.05 29.46 21.05 25.78 21.05"/>
    <path d="M280.44,394.33h-10l0-1,1.33-.66h7.38l1.33,0.64,0,1h0Zm-8.72-1.58-1.3.63,0,0.91,9.93,0v-0.91l-1.29-.6h-7.35Z" transform="translate(-245.95 -371.66)"/>
    <g class="b">
      <path class="e" d="M277.73,391.81a4,4,0,0,0-.69.32c-0.28.15-.6,0.35-0.9,0.55s-0.41.3-.6,0.44l-0.21.15c-0.07.06-.11,0.11-0.16,0.16l-0.11.11a0.45,0.45,0,0,0-.14.32,0.59,0.59,0,0,0,0,.09,0.65,0.65,0,0,1,.42-0.23h0.19l0,0,0.08-.08,0.29-.21c0.15-.11.29-0.22,0.47-0.34s0.6-.38.87-0.53a3.94,3.94,0,0,1,.6-0.28Z" transform="translate(-245.95 -371.66)"/>
      <path d="M274.91,394V394a0.74,0.74,0,0,1,0-.09,0.46,0.46,0,0,1,.14-0.33l0.08-.08,0.11-.07,0,0,0.12-.12,0.12-.08,0.1-.07c0.2-.16.38-0.3,0.6-0.44s0.62-.39.9-0.55a4,4,0,0,1,.69-0.33l0.17,0.47-0.61.31c-0.27.15-.58,0.34-0.87,0.53l-0.36.26-0.23.17-0.16.12-0.1.06,0,0-0.07,0-0.06,0v0h-0.08a0.61,0.61,0,0,0-.4.22l0,0h0Zm2.8-2.2-0.65.34c-0.28.15-.6,0.35-0.9,0.55s-0.39.28-.57,0.42l-0.12.09-0.11.08-0.12.12-0.09.09-0.06.06a0.43,0.43,0,0,0-.14.31v0a0.68,0.68,0,0,1,.39-0.19h0.17l0.11-.09,0.17-.12,0.23-.17,0.37-.27c0.29-.19.6-0.38,0.87-0.53a3.83,3.83,0,0,1,.6-0.28l-0.15-.42h0Z" transform="translate(-245.95 -371.66)"/>
      <path class="a" d="M276,392.8v0Z" transform="translate(-245.95 -371.66)"/>
      <path class="a" d="M276.33,392.57v0Z" transform="translate(-245.95 -371.66)"/>
      <path class="a" d="M276.65,392.36v0Z" transform="translate(-245.95 -371.66)"/>
      <path class="a" d="M277,392.17v0Z" transform="translate(-245.95 -371.66)"/>
      <path class="d" d="M270.41,393.35h0Z" transform="translate(-245.95 -371.66)"/>
      <polygon points="24.46 21.72 24.46 21.65 34.46 21.65 24.46 21.72 24.46 21.72"/>
      <path class="d" d="M269.7,388.93a1.39,1.39,0,0,1,1.37,1.4v2h1V384.8h-5.41v7.52h1.68v-2a1.4,1.4,0,0,1,1.37-1.4h0Z" transform="translate(-245.95 -371.66)"/>
      <path d="M272.09,392.35h-1l0-2A1.36,1.36,0,0,0,269.7,389a1.37,1.37,0,0,0-1.34,1.37v2l-1.71,0,0-7.55,5.44,0,0,7.59h0Zm-2.39-3.46a1.42,1.42,0,0,1,1.41,1.44v2l0.92,0V384.8l-5.37,0,0,7.48,1.64,0,0-2a1.44,1.44,0,0,1,1.41-1.44h0Z" transform="translate(-245.95 -371.66)"/>
      <rect x="22.55" y="8.05" width="2.49" height="4.56"/>
      <path class="d" d="M271,383.57H268.8v-0.77h-1.6v0.77h-1.08v-0.77h-0.65v1.4H271v-0.63Zm-4.85.63h4.69v0.61h-4.69v-0.61Z" transform="translate(-245.95 -371.66)"/>
      <path d="M266.13,384.84l0-.61h-0.62l0-1.44,0.68,0,0,0.8,1,0,0-.74,1.63,0,0,0.8,2.14,0v0.07H268.8l0-.81-1.56,0,0,0.74-1.12,0,0-.81-0.61,0,0,1.37,5.31,0h0l0,0.64-4.73,0h0Zm0-.61v0.58l4.66,0,0-.57-4.62,0h0Z" transform="translate(-245.95 -371.66)"/>
      <path class="d" d="M268,378.06v4.74h0.81v-1.3a0.88,0.88,0,0,1,.83-0.91h0a0.91,0.91,0,0,1,.91.91v1.3h0.78v-4.74H268Z" transform="translate(-245.95 -371.66)"/>
      <path d="M271.4,382.83h-0.81l0-1.34a0.88,0.88,0,0,0-.88-0.87,0.85,0.85,0,0,0-.84.88v1.3l-0.85,0,0-4.77,3.41,0,0,4.81h0Zm-1.77-2.28a1,1,0,0,1,1,.95v1.3l0.71,0v-4.71l-3.34,0,0,4.7,0.78,0,0-1.27a0.92,0.92,0,0,1,.86-0.95h0Z" transform="translate(-245.95 -371.66)"/>
      <rect x="27.42" y="5.15" width="3.94" height="7.15"/>
      <path class="d" d="M273.09,376.82v6h1.25V381a1.07,1.07,0,0,1,2.13,0v1.78h1.25v-6h-4.63Zm2.12,0.67h0.39v2h-0.39v-2Zm-1.11.4h0.39v1.5h-0.39v-1.5Zm2.21,0h0.39v1.5h-0.39v-1.5Z" transform="translate(-245.95 -371.66)"/>
      <path d="M277.76,382.83h-1.29l0-1.81a1,1,0,0,0-2.06,0v1.78l-1.29,0,0-6,4.67,0,0,6.05h0ZM275.41,380a1,1,0,0,1,1.1,1v1.78l1.18,0v-5.95l-4.6,0,0,5.95,1.22,0,0-1.74a1,1,0,0,1,1.1-1h0Zm0-.44h-0.19l0-2.12h0.42l0,2.08-0.23,0h0Zm-0.16-2v2l0.16,0h0.19l0-2-0.32,0h0Zm1.07,1.9,0-1.57h0.42l0,1.53-0.42,0h0Zm0-1.5v1.47l0.36,0,0-1.46-0.32,0h0Zm-2.25,1.5,0-1.57h0.42l0,1.53-0.42,0h0Zm0-1.5v1.47l0.36,0,0-1.46-0.32,0h0Z" transform="translate(-245.95 -371.66)"/>
      <polygon class="d" points="26.72 4.29 26.72 5.14 29.46 5.14 32.2 5.14 32.2 4.29 29.46 4.29 26.72 4.29"/>
      <path d="M278.18,376.84h-5.51l0-.89,5.51,0,0,0.92h0Zm-5.51-.85,0,0.82,5.41,0V376l-5.44,0h0Z" transform="translate(-245.95 -371.66)"/>
      <polygon class="d" points="26.21 3.3 26.21 4.29 29.46 4.29 32.72 4.29 32.72 3.3 31.9 3.3 31.9 3.85 30.98 3.85 30.98 3.3 29.92 3.3 29.92 3.85 29.46 3.85 29 3.85 29 3.3 27.95 3.3 27.95 3.85 27.02 3.85 27.02 3.3 26.21 3.3"/>
      <path d="M278.7,376h-6.55l0-1,0.85,0,0,0.58,0.89,0,0-.51,1.09,0,0,0.58,0.43,0h0.46l0-.51,1.09,0,0,0.58,0.89,0,0-.51,0.85,0,0,1.06h0Zm-5.76-1-0.78,0,0,1,6.44,0v-1l-0.78,0,0,0.51-1,0,0-.58-1,0,0,0.51-1,0,0-.58-1,0,0,0.51-1,0,0-.58h0Z" transform="translate(-245.95 -371.66)"/>
      <rect class="d" x="21.75" y="5.75" width="3.93" height="0.64"/>
      <path d="M271.66,378.09h-4l0-.68,4,0,0,0.71h0Zm-0.07-.68-3.89,0,0,0.61,3.86,0v-0.61h0Z" transform="translate(-245.95 -371.66)"/>
      <polygon class="d" points="21.24 4.52 21.24 5.75 25.95 5.75 25.95 4.52 25.23 4.52 25.23 5.15 24.35 5.15 24.35 4.52 23.01 4.52 23.01 5.15 22.14 5.15 22.14 4.52 21.24 4.52"/>
      <path d="M271.94,377.45h-4.75l0-1.26,0.93,0,0,0.66,0.84,0,0-.59,1.37,0,0,0.66,0.84,0,0-.59,0.76,0,0,1.3h0ZM268,376.19l-0.86,0,0,1.2,4.64,0v-1.2l-0.69,0,0,0.59-0.91,0,0-.66-1.3,0,0,0.59-0.91,0,0-.66h0Z" transform="translate(-245.95 -371.66)"/>
      <rect class="e" x="29.07" y="26" width="0.67" height="7.8"/>
      <path d="M275.72,405.5H275l0-7.84,0.7,0,0,7.87h0Zm-0.07-7.84-0.64,0,0,7.77,0.6,0v-7.77h0Z" transform="translate(-245.95 -371.66)"/>
      <path class="e" d="M275.35,395.75l1.43,0.83-1.43.83-1.43-.83Zm-1.91.53h-0.37v0.6h0.37l1.91,1.11,1.91-1.11h0.37v-0.6h-0.37l-1.91-1.11Z" transform="translate(-245.95 -371.66)"/>
      <path d="M275.35,398l-1.93-1.12h-0.36l0-.63,0.41,0,1.89-1.1,1.95,1.11h0.36l0,0.63-0.41,0L275.35,398h0Zm-1.91-1.18,1.91,1.1,1.89-1.1h0.39l0-.56-0.34,0-1.93-1.11-1.87,1.11h-0.39l0,0.56,0.34,0h0Zm1.93,0.59-1.46-.83,1.44-.9,1.44,0.84-1.43.89h0Zm0-1.65-1.41.82,1.43,0.77,1.39-.83-1.41-.76h0Z" transform="translate(-245.95 -371.66)"/>
      <path class="e" d="M273.11,391.82l-0.16.45a11.65,11.65,0,0,1,1.83.9,6.47,6.47,0,0,1,.72.49,1.5,1.5,0,0,1,.19.19v0h0v0a0.42,0.42,0,0,1,0,.08h-0.33a0.38,0.38,0,0,0-.33.28h0a0.69,0.69,0,0,0,1,0,0.66,0.66,0,0,0,.13-0.42,0.46,0.46,0,0,0-.13-0.31,1.86,1.86,0,0,0-.26-0.25,6.91,6.91,0,0,0-.78-0.54,12.16,12.16,0,0,0-1.92-.94h0Z" transform="translate(-245.95 -371.66)"/>
      <path d="M275.56,394.53a0.68,0.68,0,0,1-.52-0.23,0.37,0.37,0,0,1,.33-0.34l0.19,0h0.09a0.21,0.21,0,0,0,0-.11,1.18,1.18,0,0,0-.2-0.2,6.12,6.12,0,0,0-.72-0.49,11.61,11.61,0,0,0-1.83-.9l0.14-.48a9.78,9.78,0,0,1,2,.93,6.84,6.84,0,0,1,.78.54,2.06,2.06,0,0,1,.26.25,0.5,0.5,0,0,1,.14.33,0.68,0.68,0,0,1-.14.43,0.67,0.67,0,0,1-.53.24h0Zm-0.14-.51a0.37,0.37,0,0,0-.34.26,0.71,0.71,0,0,0,1,0,0.63,0.63,0,0,0,.12-0.4,0.43,0.43,0,0,0-.13-0.3,1.79,1.79,0,0,0-.26-0.24,7.08,7.08,0,0,0-.78-0.53,11.9,11.9,0,0,0-1.91-.94l-0.13.43a9.41,9.41,0,0,1,1.82.87,6.46,6.46,0,0,1,.73.5,1.72,1.72,0,0,1,.2.19,0.26,0.26,0,0,1,0,.15l0,0.06a0.34,0.34,0,0,1-.2,0l-0.06,0h0Z" transform="translate(-245.95 -371.66)"/>
      <path class="a" d="M275.15,392.88l0,0.45Z" transform="translate(-245.95 -371.66)"/>
      <path class="a" d="M275.52,393.11l-0.12.44Z" transform="translate(-245.95 -371.66)"/>
      <path class="a" d="M275.92,393.42l-0.24.34Z" transform="translate(-245.95 -371.66)"/>
      <path d="M276,394.28h0l-0.35-.19,0.38,0.13a0,0,0,0,1,0,0l0,0h0Z" transform="translate(-245.95 -371.66)"/>
      <path class="a" d="M276.15,393.87l-0.4,0Z" transform="translate(-245.95 -371.66)"/>
      <path d="M275.63,394.49a0,0,0,0,1,0,0l0-.35,0.1,0.35a0,0,0,0,1,0,0h0Z" transform="translate(-245.95 -371.66)"/>
      <path class="a" d="M275.49,394.05l-0.33.25Z" transform="translate(-245.95 -371.66)"/>
      <path class="a" d="M273.89,392.2v0Z" transform="translate(-245.95 -371.66)"/>
      <path class="a" d="M274.73,392.64v0Z" transform="translate(-245.95 -371.66)"/>
      <path class="a" d="M274.31,392.42v0Z" transform="translate(-245.95 -371.66)"/>
      <path class="e" d="M275.32,393.72a0.67,0.67,0,0,0-.55.66v1.48a0.66,0.66,0,0,0,.65.67h0a0.65,0.65,0,0,0,.58-0.37l-0.23-.14a0.38,0.38,0,0,1-.35.24h0a0.38,0.38,0,0,1-.38-0.39v-1.48a0.38,0.38,0,0,1,.38-0.39h0a0.38,0.38,0,0,1,.16,0h0.08a0.34,0.34,0,0,0,0-.08v0h0v0l-0.13-.13h-0.26Zm0.78,0.53,0,0a0.55,0.55,0,0,1-.23.17v1l0.27,0.15v-1.24a0.66,0.66,0,0,0,0-.14h0Z" transform="translate(-245.95 -371.66)"/>
      <path d="M275.45,396.57h0a0.7,0.7,0,0,1-.7-0.7v-1.48a0.7,0.7,0,0,1,.58-0.7h0.22a0.59,0.59,0,0,1,.19.14,0.23,0.23,0,0,1,0,.16l-0.13.08a0.33,0.33,0,0,0-.15,0,0.36,0.36,0,0,0-.39.36v1.48a0.35,0.35,0,0,0,.34.36,0.36,0.36,0,0,0,.37-0.22l0.28,0.12a0.63,0.63,0,0,1-.6.44h0Zm-0.06-2.81a0.63,0.63,0,0,0-.58.63v1.48a0.62,0.62,0,0,0,.61.63l0,0v0a0.62,0.62,0,0,0,.56-0.35L275.8,396a0.31,0.31,0,0,1-.33.24,0.43,0.43,0,0,1-.46-0.43v-1.48a0.41,0.41,0,0,1,.41-0.43,0.49,0.49,0,0,1,.23,0,0.22,0.22,0,0,0,0-.11l-0.14-.13h-0.17Zm0.76,1.93-0.32-.19,0-1a0.88,0.88,0,0,0,.24-0.19l0.05,0a0.29,0.29,0,0,1,0,.17v1.3h0Zm-0.08-1.43a0.3,0.3,0,0,1-.21.23l0,1,0.2,0.1v-1.18a0.58,0.58,0,0,0,0-.13h0Z" transform="translate(-245.95 -371.66)"/>
      <path class="d" d="M281.12,388.93a1.39,1.39,0,0,0-1.37,1.4v2h-1V384.8h5.41v7.52h-1.68v-2a1.4,1.4,0,0,0-1.37-1.4h0Z" transform="translate(-245.95 -371.66)"/>
      <path d="M284.21,392.35h-1.71l0-2a1.37,1.37,0,0,0-1.34-1.37,1.36,1.36,0,0,0-1.34,1.37v2l-1,0,0-7.55,5.44,0,0,7.59h0Zm-3.08-3.46a1.44,1.44,0,0,1,1.41,1.44v2l1.61,0V384.8l-5.37,0,0,7.48,1,0,0-2a1.42,1.42,0,0,1,1.41-1.44h0Z" transform="translate(-245.95 -371.66)"/>
      <polygon class="d" points="25 13.14 25 13.75 29.46 13.75 33.93 13.75 33.93 13.14 29.46 13.14 25 13.14"/>
      <path d="M279.91,385.45h-9l0-.65,9,0,0,0.69h0Zm-9-.62,0,0.58,8.86,0V384.8l-8.89,0h0Z" transform="translate(-245.95 -371.66)"/>
      <rect x="33.89" y="8.05" width="2.49" height="4.56"/>
      <path class="d" d="M279.84,383.57H282v-0.77h1.6v0.77h1.08v-0.77h0.65v1.4h-5.5v-0.63Zm4.85,0.63H280v0.61h4.69v-0.61Z" transform="translate(-245.95 -371.66)"/>
      <path d="M280,384.84l0-.61h0v0l4.76,0h0.61l0-1.37-0.61,0,0,0.74-1.12,0,0-.81-1.56,0,0,0.74-2.21,0v-0.07H282l0-.74,1.63,0,0,0.8,1,0,0-.74,0.68,0,0,1.44h-0.65v0.6l-4.73,0h0Zm0-.61,0,0.57,4.66,0,0-.54H280Z" transform="translate(-245.95 -371.66)"/>
      <path class="d" d="M282.83,378.06v4.74H282v-1.3a0.88,0.88,0,0,0-.83-0.91h0a0.91,0.91,0,0,0-.91.91v1.3h-0.78v-4.74h3.37Z" transform="translate(-245.95 -371.66)"/>
      <path d="M282.87,382.83H282l0-1.34a0.85,0.85,0,0,0-.79-0.87,0.89,0.89,0,0,0-.92.88v1.3l-0.81,0,0-4.77,3.41,0,0,4.81h0Zm-1.72-2.28a0.92,0.92,0,0,1,.91.95v1.3l0.75,0v-4.71l-3.34,0,0,4.7,0.74,0,0-1.27a1,1,0,0,1,.94-0.95h0Z" transform="translate(-245.95 -371.66)"/>
      <polygon class="d" points="24.63 11.13 24.63 13.14 29.46 13.14 34.29 13.14 34.29 11.13 33.38 11.13 33.38 11.9 32.16 11.9 32.16 11.13 30.53 11.13 30.53 11.9 29.46 11.9 28.4 11.9 28.4 11.13 26.76 11.13 26.76 11.9 25.55 11.9 25.55 11.13 24.63 11.13"/>
      <path d="M280.27,384.84h-9.69l0-2,0.95,0,0,0.8,1.18,0,0-.74,1.67,0,0,0.8,2.1,0,0-.74,1.67,0,0,0.8,1.18,0,0-.74,1,0,0,2.07h0Zm-8.81-2-0.88,0,0,2,9.59,0v-2l-0.88,0,0,0.74-1.25,0,0-.81-1.6,0,0,0.74-2.17,0,0-.81-1.6,0,0,0.74-1.25,0,0-.81h0Z" transform="translate(-245.95 -371.66)"/>
      <rect class="d" x="33.25" y="5.75" width="3.93" height="0.64"/>
      <path d="M283.16,378.09h-4l0-.68,4,0,0,0.71h0Zm-0.07-.68-3.89,0,0,0.61,3.86,0v-0.61h0Z" transform="translate(-245.95 -371.66)"/>
      <polygon class="d" points="37.68 4.52 37.68 5.75 32.97 5.75 32.97 4.52 33.7 4.52 33.7 5.15 34.57 5.15 34.57 4.52 35.91 4.52 35.91 5.15 36.79 5.15 36.79 4.52 37.68 4.52"/>
      <path d="M283.66,377.45h-4.75l0-1.26,0.76,0,0,0.66,0.84,0,0-.59,1.37,0,0,0.66,0.84,0,0-.59,0.93,0,0,1.3h0Zm-4.06-1.26-0.69,0,0,1.2,4.64,0v-1.2l-0.86,0,0,0.59-0.91,0,0-.66-1.3,0,0,0.59-0.91,0,0-.66h0Z" transform="translate(-245.95 -371.66)"/>
      <rect class="e" x="29.07" y="26.68" width="0.67" height="6.72"/>
      <path d="M275.72,405.09H275l0-6.76,0.7,0,0,6.79h0Zm-0.07-6.76-0.64,0,0,6.69,0.6,0v-6.69h0Z" transform="translate(-245.95 -371.66)"/>
      <path class="d" d="M271.74,385.42v7.29h1.73V390a1.77,1.77,0,0,1,1.94-1.89,1.79,1.79,0,0,1,1.94,1.89v2.73h1.73v-7.29h-7.34Z" transform="translate(-245.95 -371.66)"/>
      <path d="M279.08,392.75h-1.73l0-2.77a1.77,1.77,0,0,0-1.91-1.86A1.75,1.75,0,0,0,273.5,390v2.73l-1.76,0,0-7.33,7.37,0,0,7.33a0,0,0,0,1,0,0h0Zm-3.67-4.69a1.84,1.84,0,0,1,2,1.93v2.73l1.66,0v-7.26l-7.3,0,0,7.26,1.69,0,0-2.7a1.81,1.81,0,0,1,2-1.93h0Z" transform="translate(-245.95 -371.66)"/>
    </g>
  </g>
</svg>
