<svg xmlns="http://www.w3.org/2000/svg" xmlns:xlink="http://www.w3.org/1999/xlink" viewBox="0 0 58.92 34.37">
  <defs>
    <style>
      .a {
        fill: none;
      }

      .b {
        clip-path: url(#a);
      }

      .c {
        fill: #bc0030;
      }

      .d {
        fill: #347b5e;
      }

      .e {
        fill: #f3d02f;
      }
    </style>
    <clipPath id="a" transform="translate(-458.02 -371.66)">
      <rect class="a" x="458.02" y="371.66" width="58.92" height="34.37"/>
    </clipPath>
  </defs>
  <title>Grenada</title>
  <g class="b">
    <rect class="c" width="58.92" height="34.37"/>
    <rect class="d" x="5.63" y="4.81" width="47.67" height="24.75"/>
    <polygon class="e" points="5.63 29.56 29.46 17.19 53.3 29.56 5.63 29.56"/>
    <polygon class="e" points="5.63 4.81 29.46 17.19 53.3 4.81 5.63 4.81"/>
    <g class="b">
      <path class="c" d="M491.61,388.85a4.12,4.12,0,1,0-4.13,4.13,4.13,4.13,0,0,0,4.13-4.12" transform="translate(-458.02 -371.66)"/>
      <polygon class="e" points="25.86 16.02 28.61 16.02 29.46 13.4 30.31 16.02 33.06 16.02 30.84 17.63 31.68 20.24 29.46 18.63 27.24 20.24 28.09 17.63 25.86 16.02"/>
      <polygon class="e" points="15.88 1.72 17.5 1.72 18 0.17 18.51 1.72 20.13 1.72 18.82 2.67 19.32 4.21 18 3.26 16.69 4.21 17.19 2.67 15.88 1.72"/>
      <polygon class="e" points="27.34 1.72 28.96 1.72 29.46 0.17 29.96 1.72 31.59 1.72 30.27 2.67 30.77 4.21 29.46 3.26 28.15 4.21 28.65 2.67 27.34 1.72"/>
      <polygon class="e" points="38.8 1.72 40.42 1.72 40.92 0.17 41.42 1.72 43.05 1.72 41.73 2.67 42.23 4.21 40.92 3.26 39.61 4.21 40.11 2.67 38.8 1.72"/>
      <polygon class="e" points="15.88 31.27 17.5 31.27 18 29.73 18.51 31.27 20.13 31.27 18.82 32.23 19.32 33.77 18 32.82 16.69 33.77 17.19 32.23 15.88 31.27"/>
      <polygon class="e" points="27.34 31.27 28.96 31.27 29.46 29.73 29.96 31.27 31.59 31.27 30.27 32.23 30.77 33.77 29.46 32.82 28.15 33.77 28.65 32.23 27.34 31.27"/>
      <polygon class="e" points="38.8 31.27 40.42 31.27 40.92 29.73 41.42 31.27 43.05 31.27 41.73 32.23 42.23 33.77 40.92 32.82 39.61 33.77 40.11 32.23 38.8 31.27"/>
      <path class="c" d="M466.6,388.9a5.74,5.74,0,0,0,2.4,2.38,8,8,0,0,0-.81-3.22Z" transform="translate(-458.02 -371.66)"/>
      <path class="e" d="M465.72,385.6c0.75,1.56-1.94,5.28,2.54,6.15a4.53,4.53,0,0,1-.77-3,5.07,5.07,0,0,1,2.33,2.21c1.17-4.26-3-4-4.09-5.36" transform="translate(-458.02 -371.66)"/>
    </g>
  </g>
</svg>
