<svg xmlns="http://www.w3.org/2000/svg" xmlns:xlink="http://www.w3.org/1999/xlink" viewBox="0 0 58.92 34.37">
  <defs>
    <style>
      .a {
        fill: none;
      }

      .b {
        clip-path: url(#a);
      }

      .c {
        fill: #c4314c;
      }

      .d {
        fill: #2e4bc4;
      }

      .e {
        fill: #78ace8;
      }

      .f {
        fill: #203b74;
      }

      .g {
        fill: #e4dcdc;
      }

      .h {
        fill: #faf22a;
      }

      .i {
        fill: #734911;
      }

      .j {
        fill: #3e926f;
      }

      .k {
        fill: #fff;
      }

      .l {
        fill: #5593ce;
      }
    </style>
    <clipPath id="a" transform="translate(-528.71 -371.66)">
      <rect class="a" x="528.71" y="371.66" width="58.92" height="34.37"/>
    </clipPath>
  </defs>
  <title>Guam</title>
  <g class="b">
    <rect class="c" x="1.51" y="1.51" width="55.83" height="31.35"/>
    <rect class="c" width="58.92" height="34.37"/>
    <rect class="d" x="2.76" y="2.77" width="53.41" height="28.82"/>
    <g class="b">
      <path class="c" d="M558.16,380.27s-5.3,3.91-5.3,8.53,5.3,8.64,5.3,8.64,5.27-3.69,5.27-8.64-5.27-8.53-5.27-8.53" transform="translate(-528.71 -371.66)"/>
      <path class="e" d="M562.63,390.32a6.67,6.67,0,0,0,.18-1.53c0-4.43-4.65-7.71-4.65-7.71s-4.72,3.4-4.72,7.71a6.37,6.37,0,0,0,.19,1.51h9" transform="translate(-528.71 -371.66)"/>
      <path class="f" d="M558.12,396.58s3.65-2.62,4.51-6.28h-9c0.87,3.59,4.5,6.28,4.5,6.28" transform="translate(-528.71 -371.66)"/>
      <path class="g" d="M562.79,389.31c-0.8.62-5.29,0.32-5.29,0.32l-0.25.69h5.38l0.06-.29,0.1-.72" transform="translate(-528.71 -371.66)"/>
      <path class="h" d="M557.88,393.67c-0.07-.52-2.17-1.07-3.29-1a12.5,12.5,0,0,0,1.14,1.61c0.57-.66,2.17-0.42,2.15-0.59" transform="translate(-528.71 -371.66)"/>
      <path class="h" d="M562.14,391.75a2.63,2.63,0,0,0-1.08.24,3.58,3.58,0,0,1-2,.42,1.15,1.15,0,0,0-1.14.42c0.15,0.16,1.25,0,1.25,1,0,0.88-1.28.49-1.78,0.86a3.22,3.22,0,0,0-.63.62,14,14,0,0,0,1.4,1.24,14.54,14.54,0,0,0,2.75-2.73l0.61-.87a10.31,10.31,0,0,0,.67-1.23" transform="translate(-528.71 -371.66)"/>
      <rect x="27.76" y="17.59" width="0.19" height="2.25"/>
      <path class="i" d="M557.09,391.93l-0.21,0v-0.18h-0.13V392a3.89,3.89,0,0,1-.46,0,5,5,0,0,1-.51,0v-0.18h-0.14V392l-0.2,0s0,0.23.84,0.23,0.8-.23.8-0.23" transform="translate(-528.71 -371.66)"/>
      <path class="j" d="M557.87,384.93a2.44,2.44,0,0,0-1.72-.24,1.55,1.55,0,0,0-1.21.9l0.33-.17v0.15l0.3-.2v0.15l0.26-.26,0,0.17,0.23-.22,0,0.12,0.38-.26v0.17l0.3-.15,0,0.16,0.56-.11a2.39,2.39,0,0,0-1.5,1.63l0.26-.33,0,0.16,0.16-.35,0,0.14,0.14-.32,0,0.19,0.22-.35,0,0.21,0.26-.38v0.18l0.27-.32v0.24a1.22,1.22,0,0,1,.35-0.24l-0.32.44,0.1,0a2.81,2.81,0,0,0-.24.23,0.21,0.21,0,0,0,.15,0,1.3,1.3,0,0,0-.21.29c0,0.06.13,0,.13,0a2.05,2.05,0,0,0-.21.34c0,0.09.1,0,.1,0a2.89,2.89,0,0,0-.12.38c0,0.08.13,0,.13,0l0.08,0.51,0.14-.61,0.08,0.14v-0.44l0.08,0.07v-0.29l0.1,0.11-0.05-.35,0.11,0.14,0-.29,0.11,0.12V386l0.1,0.1,0-.27,0.12,0.06s0-.32.15-0.31,0.31,0.17.24,0.24l0.12,0,0,0.31,0.11-.07,0,0.23,0.09,0,0,0.29,0.11-.07v0.36l0.13-.1v0.42L559,387v0.35l0.12-.09,0.13,0.34,0-.51,0.09,0.08-0.17-.36,0.13,0-0.14-.24h0.13l-0.19-.24,0.13,0-0.28-.22,0.16-.06-0.29-.2,0.11,0-0.2-.23,0.21,0.09,0.07-.15,0.26,0.22V385.5l0.22,0.33,0-.2,0.17,0.26,0-.12,0.12,0.26,0.06-.19,0.12,0.28,0-.19,0.11,0.3,0.1-.12,0.05,0.31,0.1-.12,0.09,0.28,0.12-.1,0.1,0.31s0.28-1.68-2.14-1.71l-0.72-.15" transform="translate(-528.71 -371.66)"/>
      <path class="j" d="M556.75,383.43l0.14,0.18-0.07.06,0.23,0.14-0.05.1,0.23,0.09-0.09.07,0.21,0.13-0.14,0,0.25,0.13,0,0.12,0.21,0.06-0.09.08,0.25,0.21,0.28,0.21,0.2-.07-0.08-.41s-0.81-1.2-1.45-1.15" transform="translate(-528.71 -371.66)"/>
      <path class="j" d="M557.5,382.27l0.1,0.24-0.13,0,0.29,0.31h-0.23l0.28,0.24-0.14,0,0.26,0.28-0.14.07,0.27,0.29-0.18.07,0.3,0.3H558l0.18,0.25-0.16.06a1.88,1.88,0,0,1,.19.56l0.33,0a11,11,0,0,0,0-1.21l-0.09.07,0-.39-0.13.08,0-.46-0.13.15,0-.45-0.09.16-0.09-.44-0.1.14-0.09-.29-0.08.11-0.21-.24" transform="translate(-528.71 -371.66)"/>
      <path class="j" d="M558.36,385a2,2,0,0,1,1.89-1.62l-0.27.15,0.15,0.07-0.31.12,0.15,0.1-0.37,0,0.19,0.14-0.27,0-0.21,0,0.15,0.16-0.31,0,0.2,0.11a2.92,2.92,0,0,0-.52.24s1.64-.45,2,0.39l-0.32-.15,0,0.16-0.22-.17,0,0.13-0.23-.13,0,0.16-0.24-.15,0.05,0.14-0.31-.16,0.05,0.15-0.27-.09,0,0.16-0.27,0,0,0.19-0.82,0-0.11-.18" transform="translate(-528.71 -371.66)"/>
      <path class="i" d="M558.11,385.52h0.17a26.68,26.68,0,0,0,.22,5.22,3.55,3.55,0,0,0,1.73,2.35,0.24,0.24,0,0,1-.21.42,3.28,3.28,0,0,1-1.69-2.33,23.85,23.85,0,0,1-.23-5.65" transform="translate(-528.71 -371.66)"/>
      <path class="c" d="M555.82,388.22h-0.2a0.26,0.26,0,0,0-.12-0.2,0.2,0.2,0,0,0-.11,0,0.23,0.23,0,0,0-.2.13,0.74,0.74,0,0,0-.08.38,0.6,0.6,0,0,0,.08.36,0.24,0.24,0,0,0,.19.11,0.2,0.2,0,0,0,.17-0.08,0.43,0.43,0,0,0,.08-0.22h-0.23v-0.23h0.41v0.74h-0.14l0-.17a0.61,0.61,0,0,1-.11.14,0.29,0.29,0,0,1-.2.07A0.38,0.38,0,0,1,555,389a0.93,0.93,0,0,1-.13-0.52A1,1,0,0,1,555,388a0.4,0.4,0,0,1,.35-0.2,0.38,0.38,0,0,1,.3.13,0.56,0.56,0,0,1,.13.33" transform="translate(-528.71 -371.66)"/>
      <path class="c" d="M556.79,388.63v-0.85H557v0.85a0.65,0.65,0,0,0,0,.21,0.17,0.17,0,0,0,.33,0,0.67,0.67,0,0,0,0-.21v-0.85h0.21v0.85a1,1,0,0,1,0,.34,0.38,0.38,0,0,1-.7,0,1,1,0,0,1,0-.34" transform="translate(-528.71 -371.66)"/>
      <polygon class="c" points="30.16 17.5 30.23 17.22 30.6 17.22 30.66 17.5 30.88 17.5 30.53 16.12 30.3 16.12 29.95 17.5 30.16 17.5"/>
      <path class="c" d="M560.89,388.87l0.18-1.08h0.3v1.38h-0.19v-1s0-.09,0-0.11L561,389.17h-0.2L560.61,388v1.16h-0.19v-1.38h0.3l0.18,1.08" transform="translate(-528.71 -371.66)"/>
      <path class="i" d="M556.26,391.5a7.28,7.28,0,0,0,1.3-.12s0.09,0.49-1.3.49-1.28-.42-1.28-0.42,0.57,0,1.28,0" transform="translate(-528.71 -371.66)"/>
      <path class="k" d="M555.67,389.38a3,3,0,0,1,1.53,2,3.3,3.3,0,0,0-1.57,0H555.3a3.15,3.15,0,0,0,.37-2" transform="translate(-528.71 -371.66)"/>
      <path class="i" d="M558.39,384.93a0.21,0.21,0,1,1-.19.21,0.2,0.2,0,0,1,.19-0.21" transform="translate(-528.71 -371.66)"/>
      <path class="i" d="M558.08,384.87a0.2,0.2,0,0,1,0,.39,0.2,0.2,0,0,1,0-.39" transform="translate(-528.71 -371.66)"/>
      <path class="i" d="M558.08,385.22a0.18,0.18,0,0,1,0,.37,0.18,0.18,0,0,1,0-.37" transform="translate(-528.71 -371.66)"/>
      <path class="i" d="M558.31,385.12a0.2,0.2,0,1,1-.18.2,0.19,0.19,0,0,1,.18-0.2" transform="translate(-528.71 -371.66)"/>
      <polygon class="l" points="30.54 16.98 30.29 16.98 30.41 16.44 30.54 16.98"/>
    </g>
  </g>
</svg>
