<svg xmlns="http://www.w3.org/2000/svg" xmlns:xlink="http://www.w3.org/1999/xlink" viewBox="0 0 58.92 34.37">
  <defs>
    <style>
      .a {
        fill: none;
      }

      .b {
        clip-path: url(#a);
      }

      .c {
        fill: #bc0030;
      }

      .d {
        fill: #f3d02f;
      }

      .e {
        fill: #419e4b;
      }
    </style>
    <clipPath id="a" transform="translate(-739.19 -371.66)">
      <rect class="a" x="739.19" y="371.66" width="58.92" height="34.37"/>
    </clipPath>
  </defs>
  <title>Guinea-Bissau</title>
  <g class="b">
    <rect class="c" width="20.42" height="34.37"/>
    <rect class="d" x="20.42" width="38.51" height="17.19"/>
    <rect class="e" x="20.42" y="17.19" width="38.51" height="17.19"/>
    <polygon points="10.21 12.08 8.63 16.94 11.06 17.73 10.21 12.08"/>
    <polygon points="10.21 12.08 11.79 16.94 9.36 17.73 10.21 12.08"/>
    <polygon points="15.06 15.61 9.96 15.61 9.96 18.16 15.06 15.61"/>
    <polygon points="15.06 15.61 10.93 18.61 9.43 16.55 15.06 15.61"/>
    <polygon points="5.35 15.61 9.48 18.61 10.98 16.55 5.35 15.61"/>
    <polygon points="5.35 15.61 10.46 15.61 10.46 18.16 5.35 15.61"/>
    <polygon points="13.21 21.32 11.63 16.46 9.21 17.25 13.21 21.32"/>
    <polygon points="13.21 21.32 9.08 18.32 10.58 16.25 13.21 21.32"/>
    <polygon points="7.21 21.32 11.34 18.32 9.84 16.25 7.21 21.32"/>
    <polygon points="7.21 21.32 8.79 16.46 11.21 17.25 7.21 21.32"/>
  </g>
</svg>
