<svg xmlns="http://www.w3.org/2000/svg" xmlns:xlink="http://www.w3.org/1999/xlink" viewBox="0 0 58.92 34.37">
  <defs>
    <style>
      .a {
        fill: none;
      }

      .b {
        clip-path: url(#a);
      }

      .c {
        fill: #1f189b;
      }

      .d {
        fill: #c0003b;
      }

      .e, .i {
        fill: #fff;
      }

      .f, .g {
        fill: #2c6c1e;
      }

      .f, .h, .i, .j, .k, .n {
        fill-rule: evenodd;
      }

      .h, .o {
        fill: #e6b32d;
      }

      .j, .l {
        fill: #233189;
      }

      .k, .m {
        fill: #c00024;
      }

      .n {
        fill: #4d3509;
      }
    </style>
    <clipPath id="a" transform="translate(-951.26 -371.66)">
      <rect class="a" x="951.26" y="371.66" width="58.92" height="34.37"/>
    </clipPath>
  </defs>
  <title>Haiti</title>
  <g class="b">
    <rect class="c" width="58.92" height="34.37"/>
    <rect class="d" y="17.19" width="58.92" height="17.19"/>
    <rect class="e" x="23.88" y="12.74" width="11.15" height="8.88"/>
    <g class="b">
      <path class="f" d="M983,390.83l-2.28.07-2.27,0s-1.17.43-1.64,0.53a8.3,8.3,0,0,0-.78.33,2.81,2.81,0,0,1-.5.1,0.81,0.81,0,0,0-.36.18v1.23H986.3v-1.17a2,2,0,0,0-.35-0.15,3.83,3.83,0,0,0-.57-0.18c-0.37-.08-0.3-0.24-0.78-0.33a12.43,12.43,0,0,1-1.63-.62h0Z" transform="translate(-951.26 -371.66)"/>
      <path class="g" d="M986.31,393.3H975.15v-1.24a0.79,0.79,0,0,1,.37-0.19,1.5,1.5,0,0,0,.3-0.05l0.2,0a0.79,0.79,0,0,0,.32-0.15,1.06,1.06,0,0,1,.46-0.19,16.82,16.82,0,0,0,1.64-.53l2.27,0,2.28-.07a12.47,12.47,0,0,0,1.63.62,1,1,0,0,1,.45.19,0.8,0.8,0,0,0,.33.15,2.8,2.8,0,0,1,.44.13l0.13,0a2,2,0,0,1,.36.15v1.19h0ZM983,390.84l-2.27.07-2.27,0s-1.17.43-1.64,0.53a1,1,0,0,0-.45.18,0.82,0.82,0,0,1-.33.15l-0.2,0a1.36,1.36,0,0,1-.3.05,0.85,0.85,0,0,0-.35.17v1.22h11.13v-1.16l-0.35-.14-0.13,0a2.83,2.83,0,0,0-.43-0.13,0.82,0.82,0,0,1-.33-0.15,1,1,0,0,0-.45-0.18,12.25,12.25,0,0,1-1.63-.62h0Z" transform="translate(-951.26 -371.66)"/>
      <polygon class="f" points="29.31 14.31 29.26 15.38 29.6 15.38 29.55 14.32 29.91 14.27 29.87 13.85 28.98 13.88 28.99 14.27 29.31 14.31"/>
      <path class="g" d="M980.87,387.06h-0.35l0-1.08-0.32,0v-0.39l0.89,0,0.05,0.43-0.37.06,0.06,1.06h0Zm0.25-1.54-0.87,0v0.37l0.32,0,0,1.08h0.32l0-1,0.37-.06,0-.41h0Z" transform="translate(-951.26 -371.66)"/>
      <polygon class="h" points="28.51 17.25 28.21 16.61 28.34 16.59 28.88 17.65 28.51 17.25"/>
      <path d="M980.19,389.37l-0.42-.45-0.3-.64,0.14,0,0.59,1.13h0Zm-0.6-1.12-0.12,0,0.3,0.63,0.32,0.34-0.51-1h0Z" transform="translate(-951.26 -371.66)"/>
      <polygon class="i" points="27.82 15.86 28.15 16.76 28.32 16.76 27.82 15.86"/>
      <path d="M979.6,388.44h-0.19l-0.34-.91,0.53,0.91h0Zm-0.52-.91,0.35,0.89h0.14l-0.49-.88h0Z" transform="translate(-951.26 -371.66)"/>
      <polygon class="h" points="28.82 16.42 28.98 16.42 29.28 17.69 29.22 18.08 28.82 16.42"/>
      <path d="M980.48,389.8l-0.42-1.71,0.18,0,0.31,1.28-0.07.46h0Zm-0.25-1.72h-0.15l0.4,1.6,0.05-.35-0.3-1.26h0Z" transform="translate(-951.26 -371.66)"/>
      <polygon class="h" points="28.96 17.73 28.45 16.37 28.64 16.36 29.23 18.02 28.96 17.73"/>
      <path d="M980.52,389.73l-0.31-.33L979.7,388l0.2,0,0.62,1.71h0Zm-0.62-1.7-0.18,0,0.52,1.35,0.23,0.25L979.89,388h0Z" transform="translate(-951.26 -371.66)"/>
      <polygon class="i" points="28.21 15.59 28.42 16.54 28.59 16.54 28.21 15.59"/>
      <path d="M979.87,388.21h-0.19l-0.22-1,0.4,1h0Zm-0.4-1,0.23,0.94h0.14l-0.37-.93h0Z" transform="translate(-951.26 -371.66)"/>
      <polygon class="i" points="28.64 15.58 28.76 16.55 28.88 16.55 28.64 15.58"/>
      <path d="M980,388.23h0l-0.11-1,0.25,1-0.14,0h0Zm-0.11-1,0.13,1h0.11l-0.24-1h0Z" transform="translate(-951.26 -371.66)"/>
      <path class="j" d="M979.81,389l-1.35-1.47a1.13,1.13,0,0,0-.34.95l1.53,1.2Z" transform="translate(-951.26 -371.66)"/>
      <path d="M979.65,389.7l-1.54-1.21a1.13,1.13,0,0,1,.34-1l1.36,1.47-0.16.7h0Zm-1.2-2.15a1.14,1.14,0,0,0-.32.94l1.51,1.18,0.16-.66-1.35-1.46h0Z" transform="translate(-951.26 -371.66)"/>
      <path class="k" d="M980.59,389.82l-1-1c-0.42,0-.09.65-0.07,0.73l1.07,0.91v-0.62Z" transform="translate(-951.26 -371.66)"/>
      <path d="M980.6,390.47l-1.11-1a0.79,0.79,0,0,1-.09-0.59,0.22,0.22,0,0,1,.19-0.09l1,1v0.65h0Zm-1-1.65a0.21,0.21,0,0,0-.16.08,0.77,0.77,0,0,0,.09.56l0,0.07,1,0.89v-0.6l-1-1h0Z" transform="translate(-951.26 -371.66)"/>
      <polygon class="h" points="29.24 17.98 27.17 15.77 27.09 15.83 29.28 18.26 29.24 17.98"/>
      <path d="M980.56,390l0,0-2.19-2.43,0.08-.07,2.08,2.21,0,0.31h0Zm-2.13-2.51-0.07.06,2.17,2.39,0-.24-2.06-2.21h0Z" transform="translate(-951.26 -371.66)"/>
      <polygon class="h" points="27.05 15.63 27.01 15.58 27.01 15.47 26.59 15.2 26.78 15.63 26.92 15.66 26.97 15.71 27.05 15.63"/>
      <polygon points="26.97 15.72 26.91 15.66 26.78 15.64 26.58 15.21 27.02 15.46 27.02 15.53 27 15.47 26.58 15.21 26.79 15.63 26.93 15.65 26.97 15.69 27.05 15.62 27.05 15.61 27.06 15.64 26.97 15.72 26.97 15.72"/>
      <path class="h" d="M978.1,387.45a1,1,0,0,1,.31-0.26l0.12,0.17-0.26.21Z" transform="translate(-951.26 -371.66)"/>
      <path d="M978.28,387.59l-0.19-.13a0.86,0.86,0,0,1,.31-0.28l0.13,0.18-0.26.23h0Zm0.13-.39a1.18,1.18,0,0,0-.29.26l0.17,0.11,0.25-.21-0.12-.16h0Z" transform="translate(-951.26 -371.66)"/>
      <path class="j" d="M979.22,389.4l-1.69-1.35a1.74,1.74,0,0,0,0,1.21l1.65,0.9Z" transform="translate(-951.26 -371.66)"/>
      <path d="M979.14,390.17l-1.67-.9a1.69,1.69,0,0,1,0-1.22l1.71,1.34-0.09.78h0Zm-1.62-2.11a1.8,1.8,0,0,0,0,1.2l1.64,0.88,0.09-.74-1.69-1.34h0Z" transform="translate(-951.26 -371.66)"/>
      <path class="k" d="M980.62,390.49l-1.39-1.12c-0.48.07-.1,0.77-0.07,0.84l1.47,0.8v-0.53Z" transform="translate(-951.26 -371.66)"/>
      <path d="M980.64,391l-1.49-.81a1,1,0,0,1-.14-0.73,0.27,0.27,0,0,1,.21-0.13l1.4,1.12V391h0Zm-1.42-1.65a0.26,0.26,0,0,0-.19.12,1,1,0,0,0,.11.67l1.47,0.82v-0.51l-1.39-1.11h0Z" transform="translate(-951.26 -371.66)"/>
      <polygon class="h" points="29.31 18.6 26.3 16.34 26.23 16.41 29.39 18.88 29.31 18.6"/>
      <path d="M980.67,390.57l0,0-3.16-2.47,0.07-.09,3,2.26,0.1,0.32h0ZM977.55,388l-0.05.07,3.14,2.43-0.07-.25-3-2.26h0Z" transform="translate(-951.26 -371.66)"/>
      <polygon class="h" points="26.15 16.22 26.1 16.18 26.08 16.07 25.61 15.88 25.88 16.27 26.03 16.27 26.08 16.31 26.15 16.22"/>
      <polygon points="26.08 16.33 26.02 16.28 25.88 16.28 25.61 15.88 26.09 16.06 26.1 16.13 26.07 16.07 25.61 15.89 25.89 16.26 26.03 16.26 26.08 16.3 26.14 16.21 26.14 16.2 26.16 16.23 26.08 16.33 26.08 16.33"/>
      <path class="h" d="M977.23,388.08a1,1,0,0,1,.26-0.31l0.15,0.15-0.21.26Z" transform="translate(-951.26 -371.66)"/>
      <path d="M977.43,388.19l-0.21-.1a0.83,0.83,0,0,1,.26-0.33l0.16,0.15-0.22.28h0Zm0.05-.41a1.05,1.05,0,0,0-.24.3l0.18,0.08,0.21-.25-0.15-.13h0Z" transform="translate(-951.26 -371.66)"/>
      <path class="j" d="M979.1,390.22L976.92,389a0.72,0.72,0,0,0,.05.71,1.06,1.06,0,0,0,.08.64,1,1,0,0,0,.32.59,0.65,0.65,0,0,0,1.27.19Z" transform="translate(-951.26 -371.66)"/>
      <path d="M978,391.56h0a0.72,0.72,0,0,1-.67-0.62,1,1,0,0,1-.32-0.59,0.9,0.9,0,0,1-.09-0.52,1.21,1.21,0,0,0,0-.12,0.72,0.72,0,0,1-.05-0.72l2.19,1.23-0.45.92a0.7,0.7,0,0,1-.61.43h0ZM976.91,389a0.74,0.74,0,0,0,.07.69,0.72,0.72,0,0,1,0,.13,0.88,0.88,0,0,0,.09.51,1,1,0,0,0,.31.59,0.71,0.71,0,0,0,.66.61h0a0.67,0.67,0,0,0,.59-0.42l0.46-.91h0s-1.82-1-2.18-1.21h0Z" transform="translate(-951.26 -371.66)"/>
      <path class="k" d="M980.53,391l-1.48-.87c-0.48.07,0,.95,0,1l1.43,0.51V391Z" transform="translate(-951.26 -371.66)"/>
      <path d="M980.53,391.71l-1.45-.51,0-.06a1.3,1.3,0,0,1-.19-0.87,0.23,0.23,0,0,1,.18-0.12l1.49,0.87v0.69h0ZM979,390.17a0.21,0.21,0,0,0-.16.11,1.28,1.28,0,0,0,.19.85l1.44,0.55V391l-1.47-.86h0Z" transform="translate(-951.26 -371.66)"/>
      <polygon class="h" points="29.02 19.05 25.68 17.28 25.62 17.36 29.14 19.32 29.02 19.05"/>
      <path d="M980.43,391l-3.55-2,0.05-.1,3.35,1.78,0.15,0.3h0Zm-3.5-2.06,0,0.08,3.49,1.93-0.11-.23-3.34-1.77h0Z" transform="translate(-951.26 -371.66)"/>
      <polygon class="h" points="25.52 17.18 25.46 17.14 25.42 17.05 24.93 16.92 25.25 17.27 25.4 17.25 25.46 17.28 25.52 17.18"/>
      <polygon points="25.47 17.3 25.39 17.26 25.26 17.28 24.92 16.93 25.43 17.03 25.45 17.1 25.41 17.05 24.93 16.93 25.26 17.26 25.4 17.23 25.46 17.27 25.51 17.18 25.5 17.16 25.52 17.19 25.47 17.3 25.47 17.3"/>
      <path class="h" d="M976.63,389.06a1,1,0,0,1,.21-0.34l0.17,0.12-0.17.29Z" transform="translate(-951.26 -371.66)"/>
      <path d="M976.84,389.14l-0.22-.07a0.77,0.77,0,0,1,.2-0.36l0.18,0.12-0.17.3h0Zm0-.41a1.09,1.09,0,0,0-.19.34l0.2,0,0.16-.28-0.17-.11h0Z" transform="translate(-951.26 -371.66)"/>
      <path class="j" d="M977.87,387.82l0.07,0.12s0.47-.41.47-0.41h0.31l0.09-.1a0.28,0.28,0,0,0-.44,0Z" transform="translate(-951.26 -371.66)"/>
      <path class="l" d="M977.94,388l-0.07-.13,0.5-.37a0.33,0.33,0,0,1,.46,0l-0.09.11h-0.32s-0.43.39-.47,0.41h0Zm0.68-.62a0.34,0.34,0,0,0-.23.13l-0.5.36,0.07,0.1c0.05,0,.3-0.25.46-0.4h0.32l0.08-.09a0.31,0.31,0,0,0-.19-0.08h0Z" transform="translate(-951.26 -371.66)"/>
      <path class="k" d="M978.12,388a1.11,1.11,0,0,1,.25-0.39c0.15,0,.3.13,0.45-0.21a0.34,0.34,0,0,1-.41,0l-0.12.1v0l-0.36.33Z" transform="translate(-951.26 -371.66)"/>
      <path class="m" d="M978.13,388l-0.2-.14,0.14-.13-0.12.13,0.17,0.1a1.09,1.09,0,0,1,.25-0.38,0.73,0.73,0,0,0,.19,0,0.3,0.3,0,0,0,.25-0.24c-0.08.14-.39,0-0.4,0l-0.05,0,0.05-.06a0.44,0.44,0,0,0,.41,0,0.29,0.29,0,0,1-.4.25,0.58,0.58,0,0,0-.28.37v0h0Z" transform="translate(-951.26 -371.66)"/>
      <path class="j" d="M977.06,388.45l0,0.13s0.42-.44.42-0.44l0.31-.06,0.06-.1c-0.21-.25-0.44.08-0.44,0.08Z" transform="translate(-951.26 -371.66)"/>
      <path class="l" d="M977.07,388.6l0-.14,0.37-.39s0.27-.29.45-0.08l-0.06.11-0.31.06s-0.37.41-.42,0.44h0Zm0.62-.69a0.39,0.39,0,0,0-.26.17l-0.37.39,0,0.1,0.4-.43,0.31-.06,0.05-.09a0.24,0.24,0,0,0-.16-0.08h0Z" transform="translate(-951.26 -371.66)"/>
      <path class="k" d="M977.3,388.68a1.13,1.13,0,0,1,.17-0.47c0.18,0.05.34,0.14,0.41-.24-0.11.19-.41,0-0.41,0l-0.1.12v0.06l-0.31.4Z" transform="translate(-951.26 -371.66)"/>
      <path class="m" d="M977.31,388.7l-0.24-.1,0.08-.11-0.07.11,0.2,0.07a1.12,1.12,0,0,1,.18-0.46,0.85,0.85,0,0,0,.21,0c0.07,0,.15,0,0.2-0.28,0,0.17-.39.06-0.4,0.05l0,0,0-.06a0.6,0.6,0,0,0,.23.05,0.19,0.19,0,0,0,.18-0.09c0,0.31-.18.33-0.36,0.27a0.73,0.73,0,0,0-.2.45v0h0Z" transform="translate(-951.26 -371.66)"/>
      <path class="j" d="M976.49,389.46l0.07,0.14s0.36-.54.36-0.54l0.29-.1,0.05-.12c-0.23-.22-0.41.16-0.41,0.16Z" transform="translate(-951.26 -371.66)"/>
      <path class="l" d="M976.56,389.61l-0.08-.15,0.36-.47s0.22-.35.43-0.16l-0.05.13-0.3.1s-0.32.51-.35,0.54h0Zm0.56-.83a0.38,0.38,0,0,0-.26.22l-0.36.46,0.06,0.11c0-.06.22-0.34,0.34-0.53l0.3-.1,0-.11a0.24,0.24,0,0,0-.14-0.05h0Z" transform="translate(-951.26 -371.66)"/>
      <path class="k" d="M976.81,389.66a1.37,1.37,0,0,1,.08-0.51c0.19,0.05.34,0.07,0.38-.31a0.38,0.38,0,0,1-.39.11l-0.08.13,0,0-0.24.47Z" transform="translate(-951.26 -371.66)"/>
      <path class="m" d="M976.82,389.67l-0.25-.07,0.09-.2-0.08.19,0.22,0.05a1.25,1.25,0,0,1,.09-0.51c0.16,0,.32.15,0.37-0.3a0.34,0.34,0,0,1-.38.12l0,0.06,0-.08H977a0.29,0.29,0,0,0,.26-0.12c0,0.34-.18.38-0.37,0.33a1.77,1.77,0,0,0-.07.5v0h0Z" transform="translate(-951.26 -371.66)"/>
      <polygon class="h" points="28.99 19.87 28.16 19.61 27.8 19 26.51 18.93 26.56 19.4 27.65 19.61 27.76 19.79 29.01 20.14 28.99 19.87"/>
      <path d="M980.29,391.82l-1.27-.35-0.11-.19-1.09-.2-0.05-.47,1.29,0.05,0.37,0.63,0.83,0.25,0,0.29h0Zm-2.51-1.21,0.06,0.45,1.08,0.2,0.11,0.19,1.24,0.34,0-.26-0.83-.25-0.37-.62-1.28-.06h0Z" transform="translate(-951.26 -371.66)"/>
      <polygon class="n" points="28.13 20.05 26.81 18.11 26.75 18.16 28.05 20.1 28.13 20.05"/>
      <path d="M979.31,391.78L978,389.83l0.07-.06,1.33,1.94-0.09.08h0Zm-1.25-2,0,0.05,1.3,1.92,0.07,0-1.32-1.92h0Z" transform="translate(-951.26 -371.66)"/>
      <path class="i" d="M978.19,389.85l-0.14-.23a0.08,0.08,0,0,0-.12,0,0.09,0.09,0,0,0,0,.13l0.13,0.22Z" transform="translate(-951.26 -371.66)"/>
      <path d="M978,390l-0.13-.23a0.1,0.1,0,0,1,0-.15c0.09,0,.12,0,0.14,0l0.14,0.23L978,390h0Zm0-.38-0.05,0a0.08,0.08,0,0,0,0,.12l0.13,0.21,0.15-.08-0.2-.27h0Z" transform="translate(-951.26 -371.66)"/>
      <polygon class="h" points="28.28 18.85 25.63 18.58 25.57 18.97 28.2 19.23 28.28 18.85"/>
      <path d="M979.47,390.91l-2.65-.27,0.05-.4,2.66,0.26-0.07.4h0Zm-2.59-.65-0.05.38,2.62,0.25,0.07-.37-2.64-.26h0Z" transform="translate(-951.26 -371.66)"/>
      <polygon class="h" points="25.58 18.48 25.51 19.02 25.63 19.02 25.7 18.53 25.58 18.48"/>
      <path d="M976.9,390.69h-0.12l0.06-.55,0.13,0-0.07.51h0Zm-0.06-.54-0.05.53h0.09l0.08-.48-0.11,0h0Z" transform="translate(-951.26 -371.66)"/>
      <polygon class="h" points="26.02 18.57 25.99 19.05 26.06 19.06 26.12 18.63 26.02 18.57"/>
      <path d="M977.33,390.73h-0.08l0-.49,0.11,0.05-0.05.45h0Zm-0.05-.49,0,0.47h0l0.06-.43-0.09-.05h0Z" transform="translate(-951.26 -371.66)"/>
      <polygon class="h" points="27.82 18.78 27.76 19.23 27.89 19.23 27.94 18.78 27.82 18.78"/>
      <polygon points="27.74 19.24 27.81 18.78 27.94 18.77 27.9 19.23 27.74 19.24 27.74 19.24"/>
      <path class="h" d="M979.48,390.45l-0.09.52,0.15,0,0-.28a0.12,0.12,0,0,0,.12.1,0.12,0.12,0,0,0,.12-0.12,0.12,0.12,0,0,0-.12-0.12,0.12,0.12,0,0,0-.11.08l0-.2h-0.13Z" transform="translate(-951.26 -371.66)"/>
      <path d="M979.54,391l-0.16,0,0.08-.53h0.15l0,0.19c0-.12.23-0.06,0.23,0.06a0.14,0.14,0,0,1-.27,0l0,0.28h0Zm0.06-.55h-0.13l-0.08.51h0.13l0-.27c0.07,0.11.25,0.09,0.25,0a0.11,0.11,0,0,0-.22,0v-0.2h0Z" transform="translate(-951.26 -371.66)"/>
      <polygon class="h" points="27.26 18.88 26.89 19.29 26.94 19.34 27.4 19.02 27.26 18.88"/>
      <path d="M978.2,391l0-.06,0.37-.43,0.16,0.14-0.48.34h0Zm0.32-.47-0.35.41,0,0h0l0.47-.32-0.15-.12h0Z" transform="translate(-951.26 -371.66)"/>
      <polygon class="h" points="26.41 19.9 26.77 19.49 26.73 19.44 26.27 19.76 26.41 19.9"/>
      <path d="M977.67,391.58l-0.15-.15,0.48-.34,0.05,0.06-0.37.43h0Zm0.36-.43-0.5.29,0.14,0.12,0.36-.4h0Z" transform="translate(-951.26 -371.66)"/>
      <polygon class="h" points="27.36 19.8 26.92 19.45 26.88 19.48 27.23 19.93 27.36 19.8"/>
      <path d="M978.49,391.61l-0.36-.45,0.06,0,0.44,0.34-0.15.16h0Zm-0.31-.48,0.31,0.45,0.13-.12-0.44-.33h0Z" transform="translate(-951.26 -371.66)"/>
      <polygon class="h" points="26.27 19 26.72 19.34 26.77 19.3 26.42 18.85 26.27 19"/>
      <path d="M978,391l-0.46-.34,0.15-.17,0.38,0.45L978,391h0Zm-0.31-.49-0.13.15L978,391l0,0-0.36-.43h0Z" transform="translate(-951.26 -371.66)"/>
      <polygon class="h" points="26.76 18.73 26.8 19.27 26.86 19.27 27.01 18.74 26.76 18.73"/>
      <path d="M978.06,390.94l0-.55h0.26l-0.13.54h-0.08Zm0.2-.54H978l0.05,0.52h0.05l0.13-.52h0Z" transform="translate(-951.26 -371.66)"/>
      <polygon class="h" points="26.91 20.04 26.86 19.5 26.8 19.49 26.72 20.04 26.91 20.04"/>
      <path d="M978.18,391.71H978l0.07-.57h0.08l0.05,0.56h0Zm-0.07-.55-0.13.54h0.17l0-.53h0Z" transform="translate(-951.26 -371.66)"/>
      <polygon class="h" points="27.51 19.31 26.94 19.37 26.93 19.43 27.5 19.5 27.51 19.31"/>
      <path d="M978.78,391.17l-0.58-.07V391l0.57-.06v0.21h0Zm0-.2-0.55.07,0.55,0.11V391h0Z" transform="translate(-951.26 -371.66)"/>
      <polygon class="h" points="26.16 19.5 26.71 19.41 26.72 19.37 26.15 19.3 26.16 19.5"/>
      <polygon points="26.15 19.51 26.14 19.3 26.73 19.36 26.62 19.39 26.15 19.31 26.17 19.49 26.36 19.46 26.15 19.51 26.15 19.51"/>
      <path class="h" d="M978.24,391a0.15,0.15,0,1,1-.15-0.14,0.15,0.15,0,0,1,.15.14h0Z" transform="translate(-951.26 -371.66)"/>
      <path d="M978.09,391.19a0.16,0.16,0,0,1-.16-0.16c0-.17.32-0.17,0.32,0a0.16,0.16,0,0,1-.16.16h0Zm0-.29a0.14,0.14,0,0,0-.14.13c0,0.15.28,0.15,0.28,0a0.14,0.14,0,0,0-.14-0.13h0Z" transform="translate(-951.26 -371.66)"/>
      <path class="h" d="M978.89,391a0.8,0.8,0,1,1-.79-0.77,0.78,0.78,0,0,1,.79.77h0Zm-0.16,0a0.64,0.64,0,1,1-.64-0.61,0.63,0.63,0,0,1,.64.61h0Z" transform="translate(-951.26 -371.66)"/>
      <path d="M978.09,391.81a0.78,0.78,0,1,1,.8-0.78,0.79,0.79,0,0,1-.8.78h0Zm0-1.53a0.76,0.76,0,1,0,.79.76,0.77,0.77,0,0,0-.79-0.76h0Zm0,1.38a0.63,0.63,0,1,1,.65-0.62,0.64,0.64,0,0,1-.65.63h0Zm0-1.23a0.6,0.6,0,1,0,.63.6,0.61,0.61,0,0,0-.62-0.6h0Z" transform="translate(-951.26 -371.66)"/>
      <path class="a" d="M977.6,390.65l-0.12-.09Zm0.89-.09,0.11-.11Zm0.23,1-0.13-.1Zm-1.12.12,0.11-.12Z" transform="translate(-951.26 -371.66)"/>
      <polygon class="h" points="29.01 18.61 29.15 19.31 29.04 19.37 28.92 18.63 29.01 18.61"/>
      <path d="M980.29,391l-0.12-.76,0.1,0,0.15,0.7-0.13.08h0Zm0-.77-0.08,0,0.13,0.71,0.1-.05-0.14-.68h0Z" transform="translate(-951.26 -371.66)"/>
      <path class="i" d="M980.2,390.19a0.34,0.34,0,0,1-.28-0.15c-0.22.21,0,.23,0,0.44a1.6,1.6,0,0,1,.27-0.17l0.27,0-0.06-.09H980.2Z" transform="translate(-951.26 -371.66)"/>
      <path d="M980,390.49h0a0.48,0.48,0,0,0-.08-0.16c-0.05-.08-0.1-0.15.05-0.29a0.34,0.34,0,0,0,.23.14h0.27l0.07,0.09-0.28,0a0.28,0.28,0,0,0-.19.12,0.12,0.12,0,0,1-.08.06h0Zm0-.44c-0.12.13-.09,0.18,0,0.26a0.41,0.41,0,0,1,.07.17h0a0.12,0.12,0,0,0,.06,0,0.28,0.28,0,0,1,.2-0.13l0.27,0-0.07-.07h-0.27a0.29,0.29,0,0,1-.23-0.14h0Z" transform="translate(-951.26 -371.66)"/>
      <path class="i" d="M980.29,390.33l0-.21c0-.07-0.12,0-0.12,0l0,0.19h0.12Z" transform="translate(-951.26 -371.66)"/>
      <path d="M980.16,390.35l0-.2a0.09,0.09,0,0,1,.08-0.08v0a0.06,0.06,0,0,0-.08,0l0,0.18,0.11,0v-0.06l0,0.07-0.14,0h0Z" transform="translate(-951.26 -371.66)"/>
      <path class="h" d="M978.75,392a0.09,0.09,0,0,1,0,.07,0.08,0.08,0,0,1-.09,0,0.08,0.08,0,0,1,0-.15,0.09,0.09,0,0,1,.13.07h0Z" transform="translate(-951.26 -371.66)"/>
      <path class="a" d="M978.75,392a0.09,0.09,0,0,1,0,.07,0.08,0.08,0,0,1-.09,0,0.08,0.08,0,0,1,0-.15A0.09,0.09,0,0,1,978.75,392Z" transform="translate(-951.26 -371.66)"/>
      <path class="h" d="M978.53,391.88a0.08,0.08,0,0,1,0,.07,0.1,0.1,0,0,1-.09,0,0.08,0.08,0,0,1,0-.15,0.08,0.08,0,0,1,.09,0,0.08,0.08,0,0,1,0,.07h0Z" transform="translate(-951.26 -371.66)"/>
      <path class="a" d="M978.53,391.88a0.08,0.08,0,0,1,0,.07,0.1,0.1,0,0,1-.09,0,0.08,0.08,0,0,1,0-.15,0.08,0.08,0,0,1,.09,0A0.08,0.08,0,0,1,978.53,391.88Z" transform="translate(-951.26 -371.66)"/>
      <path class="h" d="M978.23,392a0.08,0.08,0,0,1,0,.07,0.09,0.09,0,0,1-.09,0,0.08,0.08,0,0,1,0-.15,0.1,0.1,0,0,1,.09,0,0.08,0.08,0,0,1,0,.07h0Z" transform="translate(-951.26 -371.66)"/>
      <path class="a" d="M978.23,392a0.08,0.08,0,0,1,0,.07,0.09,0.09,0,0,1-.09,0,0.08,0.08,0,0,1,0-.15,0.1,0.1,0,0,1,.09,0A0.08,0.08,0,0,1,978.23,392Z" transform="translate(-951.26 -371.66)"/>
      <path class="h" d="M977.76,392.09a0.08,0.08,0,0,1,0,.07,0.08,0.08,0,0,1-.09,0,0.08,0.08,0,0,1,0-.07,0.08,0.08,0,0,1,0-.07,0.1,0.1,0,0,1,.09,0,0.08,0.08,0,0,1,0,.07h0Z" transform="translate(-951.26 -371.66)"/>
      <path class="a" d="M977.76,392.09a0.08,0.08,0,0,1,0,.07,0.08,0.08,0,0,1-.09,0,0.08,0.08,0,0,1,0-.07,0.08,0.08,0,0,1,0-.07,0.1,0.1,0,0,1,.09,0A0.08,0.08,0,0,1,977.76,392.09Z" transform="translate(-951.26 -371.66)"/>
      <path class="h" d="M977.57,392.11a0.08,0.08,0,0,1,0,.07,0.09,0.09,0,0,1-.09,0,0.08,0.08,0,0,1,0-.07,0.09,0.09,0,0,1,0-.07,0.1,0.1,0,0,1,.09,0,0.08,0.08,0,0,1,0,.07h0Z" transform="translate(-951.26 -371.66)"/>
      <path class="a" d="M977.57,392.11a0.08,0.08,0,0,1,0,.07,0.09,0.09,0,0,1-.09,0,0.08,0.08,0,0,1,0-.07,0.09,0.09,0,0,1,0-.07,0.1,0.1,0,0,1,.09,0A0.08,0.08,0,0,1,977.57,392.11Z" transform="translate(-951.26 -371.66)"/>
      <path class="h" d="M977.37,392.11a0.08,0.08,0,0,1,0,.07,0.08,0.08,0,0,1-.09,0,0.08,0.08,0,0,1,0-.07,0.09,0.09,0,0,1,0-.07,0.1,0.1,0,0,1,.09,0,0.08,0.08,0,0,1,0,.07h0Z" transform="translate(-951.26 -371.66)"/>
      <path class="a" d="M977.37,392.11a0.08,0.08,0,0,1,0,.07,0.08,0.08,0,0,1-.09,0,0.08,0.08,0,0,1,0-.07,0.09,0.09,0,0,1,0-.07,0.1,0.1,0,0,1,.09,0A0.08,0.08,0,0,1,977.37,392.11Z" transform="translate(-951.26 -371.66)"/>
      <path class="h" d="M977.18,392.1a0.09,0.09,0,0,1,0,.07,0.09,0.09,0,0,1-.09,0,0.08,0.08,0,0,1,0-.07,0.08,0.08,0,0,1,0-.07,0.09,0.09,0,0,1,.09,0,0.08,0.08,0,0,1,0,.07h0Z" transform="translate(-951.26 -371.66)"/>
      <path class="a" d="M977.18,392.1a0.09,0.09,0,0,1,0,.07,0.09,0.09,0,0,1-.09,0,0.08,0.08,0,0,1,0-.07,0.08,0.08,0,0,1,0-.07,0.09,0.09,0,0,1,.09,0A0.08,0.08,0,0,1,977.18,392.1Z" transform="translate(-951.26 -371.66)"/>
      <path class="h" d="M977.27,392a0.08,0.08,0,0,1,0,.07,0.09,0.09,0,0,1-.09,0,0.08,0.08,0,0,1,0-.07,0.09,0.09,0,0,1,0-.07,0.09,0.09,0,0,1,.13.07h0Z" transform="translate(-951.26 -371.66)"/>
      <path class="a" d="M977.27,392a0.08,0.08,0,0,1,0,.07,0.09,0.09,0,0,1-.09,0,0.08,0.08,0,0,1,0-.07,0.09,0.09,0,0,1,0-.07A0.09,0.09,0,0,1,977.27,392Z" transform="translate(-951.26 -371.66)"/>
      <path class="h" d="M977.46,392a0.08,0.08,0,0,1,0,.07,0.09,0.09,0,0,1-.09,0,0.08,0.08,0,0,1,0-.07,0.09,0.09,0,0,1,.13-0.07,0.08,0.08,0,0,1,0,.07h0Z" transform="translate(-951.26 -371.66)"/>
      <path class="a" d="M977.46,392a0.08,0.08,0,0,1,0,.07,0.09,0.09,0,0,1-.09,0,0.08,0.08,0,0,1,0-.07,0.09,0.09,0,0,1,.13-0.07A0.08,0.08,0,0,1,977.46,392Z" transform="translate(-951.26 -371.66)"/>
      <path class="h" d="M977.64,391.94a0.08,0.08,0,0,1,0,.07,0.08,0.08,0,0,1-.09,0,0.08,0.08,0,0,1,0-.07,0.08,0.08,0,0,1,0-.07,0.08,0.08,0,0,1,.09,0,0.08,0.08,0,0,1,0,.07h0Z" transform="translate(-951.26 -371.66)"/>
      <path class="a" d="M977.64,391.94a0.08,0.08,0,0,1,0,.07,0.08,0.08,0,0,1-.09,0,0.08,0.08,0,0,1,0-.07,0.08,0.08,0,0,1,0-.07,0.08,0.08,0,0,1,.09,0A0.08,0.08,0,0,1,977.64,391.94Z" transform="translate(-951.26 -371.66)"/>
      <path class="h" d="M977.55,391.79a0.09,0.09,0,0,1,0,.07,0.09,0.09,0,0,1-.09,0,0.08,0.08,0,0,1,0-.14,0.09,0.09,0,0,1,.09,0,0.09,0.09,0,0,1,0,.07h0Z" transform="translate(-951.26 -371.66)"/>
      <path class="a" d="M977.55,391.79a0.09,0.09,0,0,1,0,.07,0.09,0.09,0,0,1-.09,0,0.08,0.08,0,0,1,0-.14,0.09,0.09,0,0,1,.09,0A0.09,0.09,0,0,1,977.55,391.79Z" transform="translate(-951.26 -371.66)"/>
      <path class="h" d="M977.37,391.79a0.08,0.08,0,0,1,0,.07,0.09,0.09,0,1,1-.09-0.15,0.1,0.1,0,0,1,.09,0,0.08,0.08,0,0,1,0,.07h0Z" transform="translate(-951.26 -371.66)"/>
      <path class="a" d="M977.37,391.79a0.08,0.08,0,0,1,0,.07,0.09,0.09,0,1,1-.09-0.15,0.1,0.1,0,0,1,.09,0A0.08,0.08,0,0,1,977.37,391.79Z" transform="translate(-951.26 -371.66)"/>
      <path class="i" d="M978.87,391.48c-0.07,0-.07.14-0.07,0.14h0.12a0.1,0.1,0,0,1,.06.14,1.42,1.42,0,0,0-.27,0,0.32,0.32,0,0,0,.45.22c0.11-.1.13-0.36-0.21-0.43Z" transform="translate(-951.26 -371.66)"/>
      <path d="M979,392l-0.11,0a0.32,0.32,0,0,1-.23-0.25s0.08,0,.16,0a0.28,0.28,0,0,0,.11,0,0.12,0.12,0,0,0-.05-0.12h-0.12a0.18,0.18,0,0,1,0-.16h0l0.07,0.06a0.33,0.33,0,0,1,.28.21,0.24,0.24,0,0,1-.07.24,0.19,0.19,0,0,1-.13,0h0Zm-0.29-.27h0a0.3,0.3,0,0,0,.21.22,0.23,0.23,0,0,0,.22,0,0.22,0.22,0,0,0,.06-0.21,0.3,0.3,0,0,0-.26-0.19l0,0.06a0.14,0.14,0,0,1,.07.09c0,0.08-.07.07-0.15,0.06h-0.11Zm-2.16-.18-0.12-.48h0l0.74,0.3v0l-0.73-.32,0.13,0.47h0Zm0.14,0-0.17-.37,0.19,0.36h0Zm0.3-.09-0.39-.21,0.4,0.19v0h0Z" transform="translate(-951.26 -371.66)"/>
      <path class="k" d="M976,390.74a1.91,1.91,0,0,0-.31,0,0.53,0.53,0,0,1,0,.13,0.73,0.73,0,0,1-.55.08,2.07,2.07,0,0,1,.42-0.12,0.94,0.94,0,0,1-.06-0.19,0.3,0.3,0,0,1,.21-0.11Z" transform="translate(-951.26 -371.66)"/>
      <path class="m" d="M975.39,391a0.5,0.5,0,0,1-.19,0s0.07-.06.24-0.09l0.18,0a0.42,0.42,0,0,1-.06-0.19,0.29,0.29,0,0,1,.22-0.12l0.25,0.2-0.27,0a0.49,0.49,0,0,1,.2,0l-0.19-.18a0.29,0.29,0,0,0-.19.1,0.2,0.2,0,0,0,0,.12,0.22,0.22,0,0,1,0,.08,0.29,0.29,0,0,1-.2.06,0.89,0.89,0,0,0-.23.06,0.8,0.8,0,0,0,.54-0.08,0.13,0.13,0,0,0,0-.08v0a0.13,0.13,0,0,1,0,.11,0.54,0.54,0,0,1-.38.11h0Z" transform="translate(-951.26 -371.66)"/>
      <path class="n" d="M976.39,391l-0.6-.5a0,0,0,0,0,0,0,0,0,0,0,0,0,.05l0.62,0.51Z" transform="translate(-951.26 -371.66)"/>
      <path d="M976.37,391.06l-0.63-.52h0l0-.08L976.4,391l0,0.08h0Zm-0.59-.57,0.58,0.53,0,0-0.6-.49h0Z" transform="translate(-951.26 -371.66)"/>
      <path class="h" d="M977,391.47l-0.49-.43,0-.12-0.1.08a0.59,0.59,0,0,0-.07.1h0.13l0.42,0.39Z" transform="translate(-951.26 -371.66)"/>
      <path d="M976.83,391.5l-0.43-.39h-0.13a0.23,0.23,0,0,1,.06-0.12l0.1-.08,0,0.13h0l0.49,0.42-0.14,0h0Zm-0.42-.41,0.43,0.39,0.13,0s-0.5-.41-0.5-0.41l0-.12a0.48,0.48,0,0,1-.08.07,0.74,0.74,0,0,0-.07.1h0.13Z" transform="translate(-951.26 -371.66)"/>
      <path class="h" d="M979.63,390.9v0.19c-0.06,0-.05.07-0.05,0.14v0.56a0.51,0.51,0,0,1-.12.07s0,0.09.12,0.12h0.11c0.18,0,.21-0.1.12-0.13a0.41,0.41,0,0,1-.13-0.07v-0.13h0.11a0.16,0.16,0,0,0,.09-0.14v-0.29a0.16,0.16,0,0,0-.16-0.18V390.9h-0.1Zm0.19,0.32a0.12,0.12,0,0,0-.09-0.09,0.13,0.13,0,0,0-.09.1v0.12a0.25,0.25,0,0,0,.11.2,0.09,0.09,0,0,0,.07-0.09v-0.24Z" transform="translate(-951.26 -371.66)"/>
      <path d="M979.7,392h-0.12a0.18,0.18,0,0,1-.15-0.09l0.08-.08a0.11,0.11,0,0,0,.06,0v-0.56c0-.08,0-0.12.06-0.15V390.9h0.12V391a0.15,0.15,0,0,1,.16.18v0.29a0.17,0.17,0,0,1-.1.15h-0.11v0.12l0.12,0.05c0.06,0,.06,0,0.06.06a0.2,0.2,0,0,1-.18.1h0Zm0-1.1h-0.09v0.18a0.1,0.1,0,0,0-.05.12v0.58a0.11,0.11,0,0,1-.07.05l-0.07.06a0.16,0.16,0,0,0,.13.07h0.11a0.21,0.21,0,0,0,.16-0.08,0.84,0.84,0,0,1-.18-0.1v-0.14h0.12a0.18,0.18,0,0,0,.08-0.13v-0.29a0.15,0.15,0,0,0-.15-0.17V390.9h0Zm0,0.66h0a0.25,0.25,0,0,1-.12-0.21v-0.12a0.14,0.14,0,0,1,.1-0.11h0a0.13,0.13,0,0,1,.11.1v0.24a0.1,0.1,0,0,1-.08.1h0Zm0-.43h0a0.12,0.12,0,0,0-.08.09v0.12a0.25,0.25,0,0,0,.1.19h0a0.08,0.08,0,0,0,.06-0.08v-0.24a0.11,0.11,0,0,0-.08-0.08h0Z" transform="translate(-951.26 -371.66)"/>
      <path class="f" d="M980.7,385.54a1.3,1.3,0,0,0-1.81-.34,0.6,0.6,0,0,0,.27-0.06l-0.1.14a1.54,1.54,0,0,1,.31-0.12,0.47,0.47,0,0,0-.09.11s0.18-.12.21-0.13a0.42,0.42,0,0,0-.06.18l0.14-.06s0,0.07,0,.07a0.92,0.92,0,0,1,.6.28Z" transform="translate(-951.26 -371.66)"/>
      <path d="M980.2,385.61a1,1,0,0,0-.6-0.26v0h0a0.9,0.9,0,0,1,.61.28h0Zm0.49-.06a1.3,1.3,0,0,0-1.79-.34,0.69,0.69,0,0,0,.2-0.05h0a0.36,0.36,0,0,1-.24.06,1.28,1.28,0,0,1,1.82.32l0,0h0Zm-1.25-.21a0.26,0.26,0,0,1,0-.18l-0.08.06a0.2,0.2,0,0,1-.12.06,0.25,0.25,0,0,1,.08-0.13l-0.3.14a0.37,0.37,0,0,1,.08-0.15h0l-0.1.14a0.77,0.77,0,0,1,.31-0.13l-0.08.12,0.09-.07,0.11-.07a0.69,0.69,0,0,0-.05.19l0.12-.08v0l-0.13.06h0Z" transform="translate(-951.26 -371.66)"/>
      <path class="f" d="M980.47,385.71c-0.1-.22-1.84-0.59-2.19,0a0.32,0.32,0,0,0,.27-0.12v0.14l0.23-.18-0.08.18,0.19-.15v0.15l0.23-.25,0,0.14,0.2-.09,0,0.12h1.23Z" transform="translate(-951.26 -371.66)"/>
      <path d="M978.7,385.77l0.07-.2-0.22.19v-0.14a0.26,0.26,0,0,1-.26.12,1.17,1.17,0,0,1,1.08-.36,1.94,1.94,0,0,1,1.12.31h0a2,2,0,0,0-1.11-.3,1.2,1.2,0,0,0-1.06.33,0.37,0.37,0,0,0,.25-0.13v0.15l0.22-.19-0.07.2,0.17-.16v0.16l0.21-.26v0.15l0.19-.1v0l-0.19.1,0-.16-0.21.26v-0.16l-0.17.16h0Z" transform="translate(-951.26 -371.66)"/>
      <path class="f" d="M980.4,385.74a1.58,1.58,0,0,0-1.14-.1c-0.44.25-.68,0.2-0.73,0.66a0.89,0.89,0,0,0,.16-0.16l0.09,0.18,0-.25,0.07,0.2,0.11-.32,0,0.22,0.17-.22,0.08,0.06,0.07-.17,0.06,0.11a0.21,0.21,0,0,1,.18,0l0.13-.14,0,0.1,0.11-.12,0,0.09,0.11-.1v0.07h0.37Z" transform="translate(-951.26 -371.66)"/>
      <path d="M978.79,386.32l-0.11-.18a0.49,0.49,0,0,1-.15.17,0.54,0.54,0,0,1,.42-0.54l0.3-.14a1.59,1.59,0,0,1,1.15.1v0a1.58,1.58,0,0,0-1.13-.1l-0.3.14a0.54,0.54,0,0,0-.43.51l0.14-.17,0.11,0.18v-0.25l0.09,0.19,0.09-.32,0,0.22,0.15-.22,0.09,0.06,0.05-.16,0.08,0.11a0.17,0.17,0,0,1,.18,0l0.11-.14,0,0.11,0.09-.13,0.06,0.1,0.11-.12v0.1h0.36l-0.37,0h0v-0.08l-0.09.11-0.06-.1-0.09.13,0-.11-0.11.15a0.23,0.23,0,0,0-.18,0l-0.08-.11-0.05.17-0.09-.06-0.15.22,0-.22-0.09.33-0.09-.2v0.25h0Z" transform="translate(-951.26 -371.66)"/>
      <path class="f" d="M980.29,385.79a2.41,2.41,0,0,0-1.44.69l0.15-.07,0,0.14,0.06-.14v0.11c0-.09.07-0.1,0.14,0l0-.13,0,0.13,0.06-.14a0.35,0.35,0,0,0,.06.14,0.91,0.91,0,0,1,.14-0.27v0.16l0.06-.16,0.05,0.12v-0.17l0.06,0.13a0.33,0.33,0,0,1,.08-0.15l0.09,0.08,0.4-.29Z" transform="translate(-951.26 -371.66)"/>
      <path d="M979.06,386.55l-0.06-.14-0.13.08a2.29,2.29,0,0,1,1.42-.7h0v0h0a2.43,2.43,0,0,0-1.42.68,0.57,0.57,0,0,1,.13-0.09l0.06,0.15,0-.14,0,0.11a0.07,0.07,0,0,1,0-.08,0.11,0.11,0,0,1,.09.07v-0.13l0.05,0.13,0-.14c0,0.06.06,0.13,0.07,0.14a0.65,0.65,0,0,1,.14-0.27l0,0.17,0-.16,0.07,0.12v-0.17l0.08,0.12a0.2,0.2,0,0,1,.07-0.15l0.1,0.08,0.38-.29-0.38.3-0.1-.08a0.48,0.48,0,0,0-.06.15l-0.08-.13v0.17l-0.07-.12,0,0.16,0-.16a2.23,2.23,0,0,0-.12.27,0.23,0.23,0,0,1-.08-0.14l0,0.14-0.05-.13v0.13l-0.09-.05a0.08,0.08,0,0,0,0,.06l0-.11,0,0.14h0Z" transform="translate(-951.26 -371.66)"/>
      <path class="f" d="M980.36,385.87a1.31,1.31,0,0,0-.76,1c0.19-.23.14-0.2,0.23,0.07a1,1,0,0,1,.06-0.26l0.05,0.17,0-.22H980l0-.14,0.08,0.06a0.12,0.12,0,0,1,0-.18s-0.11,0,0-.18l0.08,0.08a0.19,0.19,0,0,1,0-.12l0.29-.1Z" transform="translate(-951.26 -371.66)"/>
      <path d="M979.84,386.9l-0.05-.11a0.24,0.24,0,0,0,0-.1h0a0.43,0.43,0,0,0-.11.12h0a0.2,0.2,0,0,1,.12-0.13,0.15,0.15,0,0,1,.05.12l0,0.1a0.49,0.49,0,0,1,0-.26l0.07,0.18v-0.22l0-.13h0l0,0.13-0.08.22-0.07-.17s0,0.17,0,.26h0Zm-0.21-.22a1.33,1.33,0,0,1,.72-0.82v0a1.42,1.42,0,0,0-.73.8h0Zm0.46-.37a0.14,0.14,0,0,1,0-.15l0.09,0.07a0.11,0.11,0,0,1,0-.11l0.3-.11-0.29.12a0.22,0.22,0,0,0,0,.11l-0.1-.07a0.22,0.22,0,0,0,0,.14h0Z" transform="translate(-951.26 -371.66)"/>
      <path class="f" d="M980.39,385.91l-0.16.3,0.08,0-0.18.13,0.15,0a0.42,0.42,0,0,0-.26.31l0.24-.11a1.08,1.08,0,0,0-.23.33l0.14-.12a0.5,0.5,0,0,0-.11.36l0.1-.11a0.57,0.57,0,0,0,.11.49,1.11,1.11,0,0,1,0-.35l0.27,0.28-0.15-.39a0.49,0.49,0,0,0,.26.22l-0.21-.32,0.21,0.17-0.23-.35,0.22,0.06a0.63,0.63,0,0,1-.14-0.32l0.15,0.16a0.74,0.74,0,0,1,0-.24l0.08,0-0.15-.17,0.1,0v-0.11l0.07,0V386Z" transform="translate(-951.26 -371.66)"/>
      <path d="M980.28,387.51a0.51,0.51,0,0,1-.12-0.49l-0.08.12a0.48,0.48,0,0,1,.09-0.37h0a0.8,0.8,0,0,0-.1.37l0.08-.12a0.65,0.65,0,0,0,.12.49,0.67,0.67,0,0,1,0-.35l0.28,0.28-0.17-.38a0.54,0.54,0,0,0,.27.21l-0.21-.3,0.22,0.15-0.25-.33,0.22,0a0.48,0.48,0,0,1-.15-0.31l0.16,0.15a0.46,0.46,0,0,1-.05-0.23h0.09l-0.16-.15,0.11,0,0-.1,0.08,0V386l0,0.12-0.08,0,0,0.1-0.11,0,0.16,0.15H980.6a1.33,1.33,0,0,0,.05.23l-0.17-.15a0.84,0.84,0,0,0,.16.31l-0.23,0,0.24,0.33-0.22-.15,0.22,0.3a0.4,0.4,0,0,1-.28-0.21l0.17,0.38-0.28-.26a2.11,2.11,0,0,0,0,.34h0Zm0-.34a1.87,1.87,0,0,0,.07-0.47,1.33,1.33,0,0,1,.19-0.7h0a1.31,1.31,0,0,0-.18.69,1.18,1.18,0,0,1-.1.47h0ZM980,386.9a0.81,0.81,0,0,1,.21-0.34l-0.22.12a0.4,0.4,0,0,1,.25-0.33h0a0.54,0.54,0,0,0-.25.33l0.22-.12a2.29,2.29,0,0,0-.21.34l0.11-.12-0.12.13h0Zm0.09-.52,0.17-.16h-0.08l0.15-.31h0l-0.16.3h0.07l-0.18.15,0.14,0-0.14,0h0Z" transform="translate(-951.26 -371.66)"/>
      <path class="h" d="M979.13,392.15a0.88,0.88,0,0,1-.09-0.06s0.14,0,.16,0,0.11,0,.16,0a0.14,0.14,0,0,1,.23,0,0.15,0.15,0,0,1,.21,0,0.13,0.13,0,0,1,.2,0,0,0,0,0,1,.08,0,0.12,0.12,0,0,1,.19,0s0.08,0,.13,0,0.09,0,.09,0-0.07,0-.07.05a0.35,0.35,0,0,1,.05.05s-0.08,0-.09,0a0.08,0.08,0,0,1-.14,0,0.09,0.09,0,0,1-.15,0,0.06,0.06,0,0,1-.09,0,0.12,0.12,0,0,1-.2,0h0a0.11,0.11,0,0,1-.18,0,0.15,0.15,0,0,1-.22,0c-0.06.08-.16,0.07-0.18,0s-0.13,0-.13,0a1,1,0,0,1,.08-0.05h0Zm0.19,0a0,0,0,0,1-.05,0,0,0,0,0,1-.05,0,0,0,0,0,1,.05,0,0,0,0,0,1,.05,0h0Zm0.21,0a0.05,0.05,0,0,1-.06,0,0.05,0.05,0,0,1-.06,0,0.05,0.05,0,0,1,.06,0,0.05,0.05,0,0,1,.06,0h0Zm0.42,0a0,0,0,0,1-.06,0,0,0,0,1,1,0-.07,0,0,0,0,1,.06,0h0Zm-0.22,0a0.05,0.05,0,0,1-.05,0,0.05,0.05,0,0,1-.05,0,0.05,0.05,0,0,1,.05,0,0.05,0.05,0,0,1,.05,0h0Zm0.48,0a0,0,0,0,1-.1,0,0,0,0,0,1,.1,0,0,0,0,0,1,0,0h0Zm-0.15,0a0,0,0,0,1-.06,0,0,0,0,0,1,.06,0h0Zm0.29,0a0,0,0,1,1-.07,0,0,0,0,0,1,.07,0,0,0,0,0,1,0,0h0Z" transform="translate(-951.26 -371.66)"/>
      <path d="M979.9,392.27a0.12,0.12,0,0,1-.11-0.06,0.14,0.14,0,0,0,.2,0h0.11a0.08,0.08,0,0,0,.07,0v0h0.07a0.06,0.06,0,0,0,.06,0c-0.05,0-.08,0-0.09,0s-0.11.05-.14,0H980a0.14,0.14,0,0,1-.1,0h0Zm-0.64,0a0.09,0.09,0,0,1-.09-0.06,0.08,0.08,0,0,1-.08,0v0a0.12,0.12,0,0,0,.08,0,0.11,0.11,0,0,0,.18,0,0.16,0.16,0,0,0,.22,0s0.1,0.1.18,0h0c-0.13.12-.19,0-0.21,0a0.15,0.15,0,0,1-.21,0,0.11,0.11,0,0,1-.1.06h0Zm-0.17-.09v0a0.19,0.19,0,0,1-.06-0.08,0.14,0.14,0,0,1,.18,0,0.07,0.07,0,0,1,.06,0l0.09,0h0a0.15,0.15,0,0,1,.25,0c0-.05.17,0,0.21,0a0.12,0.12,0,0,1,.2,0c0.15-.06.2-0.06,0.26,0s-0.14-.05-0.18,0H980a0.12,0.12,0,0,0-.19,0,0.17,0.17,0,0,0-.21,0c-0.11-.07-0.17-0.07-0.23,0l-0.1,0a0.11,0.11,0,0,0-.07,0,0.21,0.21,0,0,0-.13-0.05l0.06,0.08,0,0h0Z" transform="translate(-951.26 -371.66)"/>
      <polygon class="h" points="30.4 17.25 30.7 16.61 30.57 16.59 30.02 17.65 30.4 17.25"/>
      <path d="M981.24,389.37l0.57-1.13,0.14,0-0.29.65-0.43.45h0Zm0.58-1.11-0.5,1,0.32-.34,0.3-.64h-0.12Z" transform="translate(-951.26 -371.66)"/>
      <polygon class="i" points="31.08 15.86 30.76 16.76 30.59 16.76 31.08 15.86"/>
      <path d="M982,388.44h-0.18l0.49-.92-0.31.92h0Zm0.31-.91-0.48.91,0.15,0,0.33-.89h0Z" transform="translate(-951.26 -371.66)"/>
      <polygon class="h" points="30.09 16.42 29.92 16.42 29.62 17.69 29.69 18.08 30.09 16.42"/>
      <path d="M980.95,389.8l-0.07-.45,0.3-1.27h0.17l-0.4,1.73h0Zm0.39-1.72h-0.15l-0.29,1.26,0.06,0.34,0.39-1.61h0Z" transform="translate(-951.26 -371.66)"/>
      <polygon class="h" points="29.95 17.73 30.45 16.37 30.27 16.36 29.67 18.02 29.95 17.73"/>
      <path d="M980.91,389.73l0.61-1.71h0.2l-0.5,1.38-0.31.33h0Zm0.79-1.7h-0.18L981,389.64l0.24-.25,0.5-1.36h0Z" transform="translate(-951.26 -371.66)"/>
      <polygon class="i" points="30.69 15.59 30.48 16.54 30.31 16.54 30.69 15.59"/>
      <path d="M981.75,388.21h-0.18l0.37-1-0.19,1h0Zm0.19-1-0.36,1h0.15l0.21-.94h0Z" transform="translate(-951.26 -371.66)"/>
      <polygon class="i" points="30.26 15.58 30.15 16.55 30.03 16.55 30.26 15.58"/>
      <path d="M981.42,388.23h-0.13l0.22-1-0.09,1h0Zm0.09-1-0.21,1h0.1l0.11-1h0Z" transform="translate(-951.26 -371.66)"/>
      <path class="j" d="M981.62,389l1.35-1.47a1.12,1.12,0,0,1,.34.95l-1.53,1.2Z" transform="translate(-951.26 -371.66)"/>
      <path d="M981.78,389.7l-0.17-.69,1.35-1.48a1.12,1.12,0,0,1,.36,1l-1.54,1.22h0Zm1.18-2.15L981.63,389l0.16,0.65,1.51-1.19h0a1.14,1.14,0,0,0-.34-0.93h0Z" transform="translate(-951.26 -371.66)"/>
      <path class="k" d="M980.84,389.82l1-1c0.42,0,.09.65,0.07,0.73l-1.07.91v-0.62Z" transform="translate(-951.26 -371.66)"/>
      <path d="M980.83,390.47v-0.65l1-1h0a0.21,0.21,0,0,1,.2.08,0.79,0.79,0,0,1-.09.59l0,0.07-1.08.93h0Zm1-1.65-1,1v0.59l1-.9,0-.06a0.78,0.78,0,0,0,.09-0.56,0.2,0.2,0,0,0-.17-0.08h0Z" transform="translate(-951.26 -371.66)"/>
      <polygon class="h" points="29.66 17.98 31.73 15.77 31.81 15.83 29.62 18.26 29.66 17.98"/>
      <path d="M980.87,390l0-.31,2.07-2.22,0.09,0.05L980.87,390h0Zm2.12-2.51-2.05,2.21,0,0.23,2.16-2.4-0.08,0h0Z" transform="translate(-951.26 -371.66)"/>
      <polygon class="h" points="31.85 15.63 31.89 15.58 31.89 15.47 32.32 15.2 32.13 15.63 31.98 15.66 31.94 15.71 31.85 15.63"/>
      <path d="M983.19,387.38l-0.1-.09,0.05-.06v-0.1l0.43-.28-0.18.44-0.21.08h0Zm0.38-.52-0.41.29v0.1l0,0.06,0.08,0.06,0,0,0.15,0,0.18-.42h0Z" transform="translate(-951.26 -371.66)"/>
      <path class="h" d="M983.33,387.45a1,1,0,0,0-.31-0.26l-0.12.17,0.25,0.21Z" transform="translate(-951.26 -371.66)"/>
      <path d="M983.15,387.59l-0.26-.22,0.12-.19a0.91,0.91,0,0,1,.33.26l-0.19.15h0ZM983,387.2l-0.11.17,0.25,0.2,0.17-.12a1.29,1.29,0,0,0-.31-0.24h0Z" transform="translate(-951.26 -371.66)"/>
      <path class="j" d="M982.21,389.4l1.69-1.35a1.74,1.74,0,0,1,0,1.21l-1.65.9Z" transform="translate(-951.26 -371.66)"/>
      <path d="M982.29,390.17l-0.09-.77,1.7-1.35a1.67,1.67,0,0,1,.07,1.22l-1.68.91h0Zm1.61-2.11-1.68,1.35,0.09,0.73,1.64-.89a1.77,1.77,0,0,0-.05-1.19h0Z" transform="translate(-951.26 -371.66)"/>
      <path class="k" d="M980.8,390.49l1.39-1.12c0.47,0.07.1,0.77,0.07,0.84l-1.47.8v-0.53Z" transform="translate(-951.26 -371.66)"/>
      <path d="M980.79,391v-0.54l1.4-1.12a0.26,0.26,0,0,1,.22.13,1,1,0,0,1-.11.69l0,0a1,1,0,0,0,.12-0.7,0.25,0.25,0,0,0-.2-0.12l-1.38,1.11V391l1.11-.6-1.13.64h0Z" transform="translate(-951.26 -371.66)"/>
      <polygon class="h" points="29.6 18.6 32.61 16.34 32.68 16.41 29.52 18.88 29.6 18.6"/>
      <path d="M980.76,390.57l0.09-.31,3-2.27,0.08,0.07-3.19,2.51h0Zm3.11-2.56-3,2.26-0.07.24,3.14-2.45-0.07-.05h0Z" transform="translate(-951.26 -371.66)"/>
      <polygon class="h" points="32.75 16.22 32.81 16.18 32.82 16.07 33.29 15.88 33.02 16.27 32.88 16.27 32.82 16.31 32.75 16.22"/>
      <path d="M984.08,388l-0.08-.1,0.06-.05v-0.1l0.47-.2-0.25.41-0.22,0h0Zm0.47-.45-0.46.21v0.1l-0.06,0,0.07,0.07,0,0h0.15l0.26-.39h0Z" transform="translate(-951.26 -371.66)"/>
      <path class="h" d="M984.2,388.08a1,1,0,0,0-.26-0.31l-0.15.15,0.21,0.26Z" transform="translate(-951.26 -371.66)"/>
      <path d="M984,388.19l-0.22-.26,0.15-.16a0.87,0.87,0,0,1,.28.31l-0.21.12h0Zm-0.07-.41-0.13.15,0.21,0.23,0.19-.09a1.22,1.22,0,0,0-.26-0.29h0Z" transform="translate(-951.26 -371.66)"/>
      <path class="j" d="M982.33,390.22l2.18-1.23a0.72,0.72,0,0,1-.05.71,1.08,1.08,0,0,1-.08.64,1,1,0,0,1-.32.59,0.65,0.65,0,0,1-1.27.19Z" transform="translate(-951.26 -371.66)"/>
      <path d="M983.39,391.56a0.69,0.69,0,0,1-.61-0.43l-0.46-.91,2.19-1.24a0.71,0.71,0,0,1,0,.73s0,0.08,0,.12a0.89,0.89,0,0,1-.09.52,1,1,0,0,1-.32.6,0.72,0.72,0,0,1-.67.62h0ZM984.5,389c-0.35.21-2.15,1.23-2.17,1.24l0.47,0.89a0.67,0.67,0,0,0,.59.42,0.7,0.7,0,0,0,.65-0.61,1,1,0,0,0,.32-0.59,0.87,0.87,0,0,0,.09-0.51,0.87,0.87,0,0,1,0-.13,0.72,0.72,0,0,0,.05-0.7h0Z" transform="translate(-951.26 -371.66)"/>
      <path class="k" d="M980.9,391l1.48-.87c0.47,0.07,0,.95,0,1l-1.43.51V391Z" transform="translate(-951.26 -371.66)"/>
      <path d="M980.9,391.71V391l1.48-.88a0.23,0.23,0,0,1,.19.12,1.3,1.3,0,0,1-.19.87l0,0.06-1.44.51h0Zm1.47-1.54-1.47.87,0,0.64,1.41-.5a1.41,1.41,0,0,0,.21-0.9,0.21,0.21,0,0,0-.17-0.11h0Z" transform="translate(-951.26 -371.66)"/>
      <polygon class="h" points="29.89 19.05 33.23 17.28 33.28 17.36 29.76 19.32 29.89 19.05"/>
      <path d="M981,391l0.14-.29,3.35-1.78,0.07,0.08L981,391h0Zm3.48-2.06-3.33,1.78L981,391l3.5-1.95-0.06-.06h0Z" transform="translate(-951.26 -371.66)"/>
      <polygon class="h" points="33.39 17.18 33.45 17.14 33.48 17.05 33.98 16.92 33.65 17.27 33.5 17.25 33.44 17.28 33.39 17.18"/>
      <path d="M984.7,389l-0.06-.11,0.07,0,0-.09,0.5-.13-0.31.36-0.16,0-0.07,0h0Zm0.54-.37-0.48.14,0,0.1-0.06,0,0.05,0.08,0.05,0,0.15,0,0.32-.34h0Z" transform="translate(-951.26 -371.66)"/>
      <path class="h" d="M984.8,389.06a1,1,0,0,0-.21-0.34l-0.17.12,0.17,0.29Z" transform="translate(-951.26 -371.66)"/>
      <path d="M984.59,389.14l-0.17-.29,0.17-.14a0.85,0.85,0,0,1,.22.35l-0.22.08h0Zm0-.41-0.15.13,0.17,0.26,0.2-.06a1.2,1.2,0,0,0-.21-0.32h0Z" transform="translate(-951.26 -371.66)"/>
      <path class="j" d="M983.56,387.82l-0.07.12s-0.48-.41-0.48-0.41H982.7l-0.09-.1a0.28,0.28,0,0,1,.44,0Z" transform="translate(-951.26 -371.66)"/>
      <path class="l" d="M983.49,388h0s-0.44-.37-0.48-0.41h-0.3l-0.1-.1a0.3,0.3,0,0,1,.46,0l0.5,0.36-0.07.14h0Zm-0.68-.62a0.26,0.26,0,0,0-.19.1l0.09,0.08H983c0.17,0.15.42,0.37,0.47,0.4l0.06-.11-0.5-.35a0.35,0.35,0,0,0-.24-0.13h0Z" transform="translate(-951.26 -371.66)"/>
      <path class="k" d="M983.31,388a1.08,1.08,0,0,0-.25-0.39c-0.15,0-.3.13-0.45-0.21a0.34,0.34,0,0,0,.41,0l0.12,0.1v0l0.36,0.33Z" transform="translate(-951.26 -371.66)"/>
      <path class="m" d="M983.3,388v0a1.09,1.09,0,0,0-.21-0.35,0.88,0.88,0,0,1,.23.33l0.17-.12-0.47-.46a0.39,0.39,0,0,1-.41,0c0.2,0.36.29,0.25,0.41,0.21h0c-0.26.09-.33,0-0.45-0.22a0.51,0.51,0,0,0,.41,0l0.13,0.1,0.36,0.38-0.2.15h0Z" transform="translate(-951.26 -371.66)"/>
      <path class="j" d="M984.37,388.45l0,0.13s-0.42-.44-0.42-0.44l-0.3-.06-0.06-.1c0.21-.25.44,0.08,0.44,0.08Z" transform="translate(-951.26 -371.66)"/>
      <path class="l" d="M984.36,388.6h0s-0.38-.4-0.42-0.44l-0.3-.05-0.07-.1c0.18-.25.45,0.06,0.46,0.07l0.37,0.38,0,0.15h0Zm-0.62-.69a0.22,0.22,0,0,0-.16.09l0.06,0.08,0.3,0.05,0.41,0.43,0-.11-0.36-.38a0.41,0.41,0,0,0-.26-0.17h0Z" transform="translate(-951.26 -371.66)"/>
      <path class="k" d="M984.13,388.68a1.1,1.1,0,0,0-.17-0.47c-0.18.05-.34,0.14-0.41-0.24,0.11,0.19.41,0,.41,0l0.1,0.12v0.06l0.31,0.4Z" transform="translate(-951.26 -371.66)"/>
      <path class="m" d="M984.11,388.7v0a1.12,1.12,0,0,0-.13-0.41,0.88,0.88,0,0,1,.15.39l0.21-.09-0.31-.39v-0.07l-0.1-.11a0.39,0.39,0,0,1-.41,0c0.11,0.4.23,0.29,0.37,0.24h0c-0.28.1-.35,0-0.4-0.26a0.49,0.49,0,0,0,.41,0l0.12,0.12,0,0.07,0.3,0.39-0.24.12h0Z" transform="translate(-951.26 -371.66)"/>
      <path class="j" d="M984.94,389.46l-0.07.14s-0.36-.54-0.36-0.54l-0.29-.1-0.05-.12c0.23-.22.41,0.16,0.41,0.16Z" transform="translate(-951.26 -371.66)"/>
      <path class="l" d="M984.87,389.61h0s-0.32-.49-0.36-0.54l-0.29-.09-0.06-.12c0.22-.24.43,0.14,0.43,0.15l0.36,0.46-0.07.16h0Zm-0.56-.83a0.21,0.21,0,0,0-.14.07l0.06,0.11,0.29,0.09c0.12,0.19.3,0.47,0.35,0.53l0.06-.12-0.36-.45a0.39,0.39,0,0,0-.26-0.22h0Z" transform="translate(-951.26 -371.66)"/>
      <path class="k" d="M984.62,389.66a1.37,1.37,0,0,0-.08-0.51c-0.18.05-.34,0.07-0.38-0.31a0.38,0.38,0,0,0,.39.11l0.08,0.13,0,0,0.24,0.47Z" transform="translate(-951.26 -371.66)"/>
      <path class="m" d="M984.61,389.67v0a1.46,1.46,0,0,0-.08-0.5,0.46,0.46,0,0,1-.15,0c-0.14,0-.21-0.11-0.23-0.35a0.44,0.44,0,0,0,.4.1l0.09,0.13,0.23,0.51-0.26.09h0Zm-0.07-.54a1.18,1.18,0,0,1,.1.51l0.22-.07-0.31-.62a0.36,0.36,0,0,1-.39-0.12c0.08,0.45.25,0.33,0.39,0.29h0Z" transform="translate(-951.26 -371.66)"/>
      <polygon class="h" points="29.91 19.87 30.74 19.61 31.11 19 32.39 18.93 32.35 19.4 31.25 19.61 31.15 19.79 29.89 20.14 29.91 19.87"/>
      <path d="M981.14,391.82l0-.28,0.84-.27,0.36-.62,1.29-.07,0,0.48-1.1.22-0.1.18-1.28.36h0Zm2.5-1.22-1.27.07-0.36.61-0.84.26v0.25l1.24-.35,0.1-.18,1.1-.21,0-.46h0Z" transform="translate(-951.26 -371.66)"/>
      <polygon class="n" points="30.78 20.05 32.09 18.11 32.16 18.16 30.86 20.1 30.78 20.05"/>
      <path d="M982.12,391.78l-0.08-.06,1.31-1.95,0.08,0-1.31,2h0Zm1.23-2-1.3,1.93,0.06,0,1.3-1.93-0.06,0h0Z" transform="translate(-951.26 -371.66)"/>
      <path class="i" d="M983.23,389.85l0.14-.23a0.08,0.08,0,0,1,.12,0,0.09,0.09,0,0,1,0,.13l-0.13.22Z" transform="translate(-951.26 -371.66)"/>
      <path d="M983.4,390l-0.17-.09,0.14-.25a0.09,0.09,0,0,1,.08,0,0.13,0.13,0,0,1,.11.07,0.11,0.11,0,0,1,0,.09l-0.13.23h0Zm0-.37-0.2.27,0.15,0.07,0.13-.21a0.11,0.11,0,0,0,0-.08l-0.09-.06h0Z" transform="translate(-951.26 -371.66)"/>
      <polygon class="h" points="30.62 18.85 33.27 18.58 33.34 18.97 30.7 19.23 30.62 18.85"/>
      <path d="M982,390.91l-0.08-.39,2.66-.28,0.07,0.39-2.66.28h0Zm2.57-.66-2.64.28,0.08,0.36,2.63-.27-0.07-.37h0Z" transform="translate(-951.26 -371.66)"/>
      <polygon class="h" points="33.32 18.48 33.39 19.02 33.28 19.02 33.2 18.53 33.32 18.48"/>
      <polygon points="33.4 19.03 33.28 19.03 33.19 18.53 33.32 18.47 33.4 19.03 33.4 19.03"/>
      <polygon class="h" points="32.88 18.57 32.91 19.05 32.84 19.06 32.78 18.63 32.88 18.57"/>
      <polygon points="32.83 19.07 32.77 18.64 32.88 18.56 32.92 19.06 32.83 19.07 32.83 19.07"/>
      <polygon class="h" points="31.08 18.78 31.15 19.23 31.02 19.23 30.97 18.78 31.08 18.78"/>
      <polygon points="31.16 19.24 31.02 19.24 30.96 18.78 31.08 18.77 31.16 19.24 31.16 19.24"/>
      <path class="h" d="M982,390.45L982,391l-0.15,0,0-.28a0.13,0.13,0,0,1-.12.1,0.12,0.12,0,0,1-.13-0.12,0.12,0.12,0,0,1,.13-0.12,0.12,0.12,0,0,1,.11.08l0-.2H982Z" transform="translate(-951.26 -371.66)"/>
      <path d="M981.89,391l0-.29c0,0.13-.25.11-0.25,0a0.14,0.14,0,0,1,.26,0l0-.19,0.14,0,0.1,0.53-0.17,0h0Zm0-.29L981.9,391l0.14,0-0.1-.51-0.12,0,0,0.18c-0.09-.1-0.24-0.06-0.24,0a0.12,0.12,0,0,0,.23,0h0Z" transform="translate(-951.26 -371.66)"/>
      <polygon class="h" points="31.65 18.88 32.01 19.29 31.97 19.34 31.5 19.02 31.65 18.88"/>
      <path d="M983.23,391l-0.48-.33,0.14-.16,0.38,0.42-0.05.06h0Zm-0.33-.47-0.13.14,0.46,0.3,0,0-0.36-.4h0Z" transform="translate(-951.26 -371.66)"/>
      <polygon class="h" points="32.49 19.9 32.13 19.49 32.17 19.44 32.64 19.76 32.49 19.9"/>
      <path d="M983.75,391.58l-0.38-.42,0-.06,0.48,0.32-0.15.16h0Zm-0.33-.47,0.33,0.44,0.14-.13-0.47-.3h0Z" transform="translate(-951.26 -371.66)"/>
      <polygon class="h" points="31.54 19.8 31.98 19.45 32.03 19.48 31.68 19.93 31.54 19.8"/>
      <path d="M982.94,391.61l-0.15-.14,0.44-.36,0.06,0-0.36.45h0Zm0.34-.46-0.48.32,0.13,0.11,0.34-.43h0Z" transform="translate(-951.26 -371.66)"/>
      <polygon class="h" points="32.63 19 32.18 19.34 32.13 19.3 32.48 18.85 32.63 19"/>
      <path d="M983.45,391l-0.06,0,0.35-.46,0.17,0.15-0.46.35h0Zm0.29-.49-0.34.44,0,0h0l0.45-.33-0.15-.14h0Z" transform="translate(-951.26 -371.66)"/>
      <polygon class="h" points="32.15 18.73 32.1 19.27 32.04 19.27 31.9 18.74 32.15 18.73"/>
      <path d="M983.37,390.94H983.3l-0.15-.53,0.26,0,0,0.56h0Zm0-.55-0.23,0,0.15,0.51h0l0-.54h0Z" transform="translate(-951.26 -371.66)"/>
      <polygon class="h" points="32 20.04 32.04 19.5 32.1 19.49 32.19 20.04 32 20.04"/>
      <path d="M983.46,391.71h-0.2l0-.56h0.08l0.09,0.57h0Zm-0.1-.55-0.09.54h0.17l-0.08-.54h0Z" transform="translate(-951.26 -371.66)"/>
      <polygon class="h" points="31.4 19.31 31.96 19.37 31.98 19.43 31.4 19.5 31.4 19.31"/>
      <path d="M982.65,391.17V391l0.58,0.06v0.06l-0.58.07h0Zm0-.19v0.17l0.56-.07-0.57-.09h0Z" transform="translate(-951.26 -371.66)"/>
      <polygon class="h" points="32.74 19.5 32.19 19.41 32.18 19.37 32.75 19.3 32.74 19.5"/>
      <polygon points="32.76 19.51 32.19 19.42 32.29 19.4 32.73 19.49 32.74 19.3 32.66 19.32 32.75 19.3 32.76 19.51 32.76 19.51"/>
      <path class="h" d="M983.18,391a0.15,0.15,0,1,0,.15-0.14,0.15,0.15,0,0,0-.15.14h0Z" transform="translate(-951.26 -371.66)"/>
      <path d="M983.34,391.19a0.16,0.16,0,0,1-.16-0.16c0-.17.32-0.17,0.32,0a0.16,0.16,0,0,1-.16.16h0Zm0-.29a0.14,0.14,0,0,0-.14.13c0,0.15.28,0.15,0.28,0a0.14,0.14,0,0,0-.14-0.13h0Z" transform="translate(-951.26 -371.66)"/>
      <path class="h" d="M982.54,391a0.8,0.8,0,1,0,.8-0.77,0.78,0.78,0,0,0-.8.77h0Zm0.16,0a0.64,0.64,0,1,0,.64-0.61,0.63,0.63,0,0,0-.64.61h0Z" transform="translate(-951.26 -371.66)"/>
      <path d="M983.34,391.81a0.78,0.78,0,1,1,.8-0.78,0.79,0.79,0,0,1-.8.78h0Zm0-1.53a0.76,0.76,0,1,0,.78.76,0.77,0.77,0,0,0-.78-0.76h0Zm0,1.38A0.63,0.63,0,1,1,984,391a0.64,0.64,0,0,1-.64.63h0Zm0-1.23a0.6,0.6,0,1,0,.62.6,0.62,0.62,0,0,0-.62-0.6h0Z" transform="translate(-951.26 -371.66)"/>
      <path class="a" d="M983.83,390.65l0.13-.09Zm-0.89-.09-0.11-.11Zm-0.23,1,0.13-.1Zm1.12,0.12-0.11-.12Z" transform="translate(-951.26 -371.66)"/>
      <polygon class="h" points="29.89 18.61 29.76 19.31 29.87 19.37 29.99 18.63 29.89 18.61"/>
      <path d="M981.14,391L981,391l0.13-.7h0.11l-0.11.77h0Zm0.1-.76h-0.08L981,391l0.09,0,0.12-.73h0Z" transform="translate(-951.26 -371.66)"/>
      <path class="i" d="M981.22,390.19a0.35,0.35,0,0,0,.28-0.15c0.22,0.21,0,.23,0,0.44a1.61,1.61,0,0,0-.27-0.17l-0.27,0,0.06-.09h0.22Z" transform="translate(-951.26 -371.66)"/>
      <path d="M981.47,390.49a0.11,0.11,0,0,1-.07-0.06,0.28,0.28,0,0,0-.19-0.12l-0.27,0,0.05-.1h0.28a0.29,0.29,0,0,0,.22-0.14c0.17,0.14.13,0.2,0.07,0.29a0.38,0.38,0,0,0-.07.16h0ZM981,390.2l-0.05.08h0.27a0.29,0.29,0,0,1,.2.13,0.11,0.11,0,0,0,.06,0h0a0.36,0.36,0,0,1,.07-0.16c0.05-.08.09-0.13,0-0.26a0.26,0.26,0,0,1-.22.14H981Z" transform="translate(-951.26 -371.66)"/>
      <path class="i" d="M981.13,390.33l0-.21c0-.07.12,0,0.12,0l0,0.19h-0.12Z" transform="translate(-951.26 -371.66)"/>
      <path d="M981.26,390.35l-0.13,0,0-.22,0.05,0-0.06.23h0.1l0-.18a0.08,0.08,0,0,0,0-.05h0a0.06,0.06,0,0,1,.07.05l0,0.2h0Z" transform="translate(-951.26 -371.66)"/>
      <path class="h" d="M982.68,392a0.09,0.09,0,0,0,0,.07,0.09,0.09,0,0,0,.13-0.07,0.09,0.09,0,0,0,0-.07,0.09,0.09,0,0,0-.09,0,0.09,0.09,0,0,0,0,.07h0Z" transform="translate(-951.26 -371.66)"/>
      <path class="a" d="M982.68,392a0.09,0.09,0,0,0,0,.07,0.09,0.09,0,0,0,.13-0.07,0.09,0.09,0,0,0,0-.07,0.09,0.09,0,0,0-.09,0A0.09,0.09,0,0,0,982.68,392Z" transform="translate(-951.26 -371.66)"/>
      <path class="h" d="M982.9,391.88a0.08,0.08,0,0,0,0,.07,0.1,0.1,0,0,0,.09,0,0.08,0.08,0,0,0,0-.15,0.09,0.09,0,0,0-.09,0,0.08,0.08,0,0,0,0,.07h0Z" transform="translate(-951.26 -371.66)"/>
      <path class="a" d="M982.9,391.88a0.08,0.08,0,0,0,0,.07,0.1,0.1,0,0,0,.09,0,0.08,0.08,0,0,0,0-.15,0.09,0.09,0,0,0-.09,0A0.08,0.08,0,0,0,982.9,391.88Z" transform="translate(-951.26 -371.66)"/>
      <path class="h" d="M983.2,392a0.08,0.08,0,0,0,0,.07,0.1,0.1,0,0,0,.09,0,0.08,0.08,0,0,0,0-.07,0.08,0.08,0,0,0,0-.07,0.1,0.1,0,0,0-.09,0,0.08,0.08,0,0,0,0,.07h0Z" transform="translate(-951.26 -371.66)"/>
      <path class="a" d="M983.2,392a0.08,0.08,0,0,0,0,.07,0.1,0.1,0,0,0,.09,0,0.08,0.08,0,0,0,0-.07,0.08,0.08,0,0,0,0-.07,0.1,0.1,0,0,0-.09,0A0.08,0.08,0,0,0,983.2,392Z" transform="translate(-951.26 -371.66)"/>
      <path class="h" d="M983.66,392.09a0.08,0.08,0,0,0,0,.07,0.09,0.09,0,0,0,.09,0,0.08,0.08,0,0,0,0-.07,0.09,0.09,0,0,0,0-.07,0.1,0.1,0,0,0-.09,0,0.09,0.09,0,0,0,0,.07h0Z" transform="translate(-951.26 -371.66)"/>
      <path class="a" d="M983.66,392.09a0.08,0.08,0,0,0,0,.07,0.09,0.09,0,0,0,.09,0,0.08,0.08,0,0,0,0-.07,0.09,0.09,0,0,0,0-.07,0.1,0.1,0,0,0-.09,0A0.09,0.09,0,0,0,983.66,392.09Z" transform="translate(-951.26 -371.66)"/>
      <path class="h" d="M983.86,392.11a0.08,0.08,0,0,0,0,.07,0.08,0.08,0,0,0,.09,0,0.08,0.08,0,0,0,0-.07,0.08,0.08,0,0,0,0-.07,0.09,0.09,0,0,0-.09,0,0.08,0.08,0,0,0,0,.07h0Z" transform="translate(-951.26 -371.66)"/>
      <path class="a" d="M983.86,392.11a0.08,0.08,0,0,0,0,.07,0.08,0.08,0,0,0,.09,0,0.08,0.08,0,0,0,0-.07,0.08,0.08,0,0,0,0-.07,0.09,0.09,0,0,0-.09,0A0.08,0.08,0,0,0,983.86,392.11Z" transform="translate(-951.26 -371.66)"/>
      <path class="h" d="M984.05,392.11a0.08,0.08,0,0,0,0,.07,0.09,0.09,0,0,0,.09,0,0.08,0.08,0,0,0,0-.07,0.08,0.08,0,0,0,0-.07,0.1,0.1,0,0,0-.09,0,0.09,0.09,0,0,0,0,.07h0Z" transform="translate(-951.26 -371.66)"/>
      <path class="a" d="M984.05,392.11a0.08,0.08,0,0,0,0,.07,0.09,0.09,0,0,0,.09,0,0.08,0.08,0,0,0,0-.07,0.08,0.08,0,0,0,0-.07,0.1,0.1,0,0,0-.09,0A0.09,0.09,0,0,0,984.05,392.11Z" transform="translate(-951.26 -371.66)"/>
      <path class="h" d="M984.25,392.1a0.08,0.08,0,0,0,0,.07,0.09,0.09,0,0,0,.13-0.07,0.08,0.08,0,0,0,0-.07,0.08,0.08,0,0,0-.09,0,0.08,0.08,0,0,0,0,.07h0Z" transform="translate(-951.26 -371.66)"/>
      <path class="a" d="M984.25,392.1a0.08,0.08,0,0,0,0,.07,0.09,0.09,0,0,0,.13-0.07,0.08,0.08,0,0,0,0-.07,0.08,0.08,0,0,0-.09,0A0.08,0.08,0,0,0,984.25,392.1Z" transform="translate(-951.26 -371.66)"/>
      <path class="h" d="M984.16,392a0.08,0.08,0,0,0,0,.07,0.08,0.08,0,0,0,.09,0,0.08,0.08,0,0,0,0-.07,0.09,0.09,0,0,0-.13-0.07,0.08,0.08,0,0,0,0,.07h0Z" transform="translate(-951.26 -371.66)"/>
      <path class="a" d="M984.16,392a0.08,0.08,0,0,0,0,.07,0.08,0.08,0,0,0,.09,0,0.08,0.08,0,0,0,0-.07,0.09,0.09,0,0,0-.13-0.07A0.08,0.08,0,0,0,984.16,392Z" transform="translate(-951.26 -371.66)"/>
      <path class="h" d="M984,392a0.08,0.08,0,0,0,0,.07,0.08,0.08,0,0,0,.09,0,0.08,0.08,0,0,0,0-.07,0.08,0.08,0,0,0,0-.07,0.08,0.08,0,0,0-.09,0,0.08,0.08,0,0,0,0,.07h0Z" transform="translate(-951.26 -371.66)"/>
      <path class="a" d="M984,392a0.08,0.08,0,0,0,0,.07,0.08,0.08,0,0,0,.09,0,0.08,0.08,0,0,0,0-.07,0.08,0.08,0,0,0,0-.07,0.08,0.08,0,0,0-.09,0A0.08,0.08,0,0,0,984,392Z" transform="translate(-951.26 -371.66)"/>
      <path class="h" d="M983.78,391.94a0.08,0.08,0,0,0,0,.07,0.09,0.09,0,0,0,.09,0,0.08,0.08,0,0,0,0-.07,0.08,0.08,0,0,0,0-.07,0.09,0.09,0,0,0-.09,0,0.09,0.09,0,0,0,0,.07h0Z" transform="translate(-951.26 -371.66)"/>
      <path class="a" d="M983.78,391.94a0.08,0.08,0,0,0,0,.07,0.09,0.09,0,0,0,.09,0,0.08,0.08,0,0,0,0-.07,0.08,0.08,0,0,0,0-.07,0.09,0.09,0,0,0-.09,0A0.09,0.09,0,0,0,983.78,391.94Z" transform="translate(-951.26 -371.66)"/>
      <path class="h" d="M983.88,391.79a0.08,0.08,0,0,0,0,.07,0.08,0.08,0,1,0,0-.14,0.08,0.08,0,0,0,0,.07h0Z" transform="translate(-951.26 -371.66)"/>
      <path class="a" d="M983.88,391.79a0.08,0.08,0,0,0,0,.07,0.08,0.08,0,1,0,0-.14A0.08,0.08,0,0,0,983.88,391.79Z" transform="translate(-951.26 -371.66)"/>
      <path class="h" d="M984.05,391.79a0.09,0.09,0,0,0,.13.07,0.08,0.08,0,0,0,0-.15,0.1,0.1,0,0,0-.09,0,0.09,0.09,0,0,0,0,.07h0Z" transform="translate(-951.26 -371.66)"/>
      <path class="a" d="M984.05,391.79a0.09,0.09,0,0,0,.13.07,0.08,0.08,0,0,0,0-.15,0.1,0.1,0,0,0-.09,0A0.09,0.09,0,0,0,984.05,391.79Z" transform="translate(-951.26 -371.66)"/>
      <path class="i" d="M982.56,391.48c0.08,0,.07.14,0.07,0.14h-0.12a0.11,0.11,0,0,0-.06.14,1.45,1.45,0,0,1,.27,0,0.32,0.32,0,0,1-.45.22c-0.11-.1-0.13-0.36.21-0.43Z" transform="translate(-951.26 -371.66)"/>
      <path d="M982.4,392a0.19,0.19,0,0,1-.13,0,0.24,0.24,0,0,1-.07-0.24,0.33,0.33,0,0,1,.29-0.21l0.08-.06h0a0.22,0.22,0,0,1,0,.15h-0.13a0.14,0.14,0,0,0-.06.08,0.1,0.1,0,0,0,.12,0,0.17,0.17,0,0,1,.16,0,0.32,0.32,0,0,1-.22.25l-0.11,0h0Zm0.08-.47a0.31,0.31,0,0,0-.26.19,0.23,0.23,0,0,0,.06.22,0.24,0.24,0,0,0,.22,0,0.31,0.31,0,0,0,.21-0.23,0.38,0.38,0,0,0-.14,0,0.18,0.18,0,0,1-.13,0,0.14,0.14,0,0,1,.06-0.15h0l0-.06h0Zm1.75-.14v0l0.73-.32-0.72.34h0Z" transform="translate(-951.26 -371.66)"/>
      <path class="k" d="M985.39,390.74a1.88,1.88,0,0,1,.31,0,0.76,0.76,0,0,0,0,.13,0.73,0.73,0,0,0,.55.08,2,2,0,0,0-.42-0.12,1.1,1.1,0,0,0,.06-0.19,0.3,0.3,0,0,0-.21-0.11Z" transform="translate(-951.26 -371.66)"/>
      <path class="m" d="M986,391a0.54,0.54,0,0,1-.38-0.11,0.13,0.13,0,0,1,0-.1,0.24,0.24,0,0,0-.22,0h0a0.76,0.76,0,0,1,.25,0,0.46,0.46,0,0,0,0,.13,0.79,0.79,0,0,0,.54.08,0.83,0.83,0,0,0-.23-0.06,0.29,0.29,0,0,1-.2-0.06,0.21,0.21,0,0,1,0-.08,0.22,0.22,0,0,0,0-.12,0.28,0.28,0,0,0-.2-0.1l-0.06.05,0.06-.07a0.28,0.28,0,0,1,.23.11,0.23,0.23,0,0,1,0,.13,0.18,0.18,0,0,0,0,.07l0.18,0a0.45,0.45,0,0,1,.25.07,0.28,0.28,0,0,1-.19,0h0Z" transform="translate(-951.26 -371.66)"/>
      <path class="n" d="M985,391l0.6-.5a0,0,0,0,1,0,0,0,0,0,0,1,0,.05l-0.62.51Z" transform="translate(-951.26 -371.66)"/>
      <path d="M985.06,391.06l0-.08,0.6-.51,0.07,0-0.65.56h0Zm0.62-.54L985,391v0l0.62-.51h0Z" transform="translate(-951.26 -371.66)"/>
      <path class="h" d="M984.46,391.47l0.49-.43,0-.12,0.1,0.08a0.63,0.63,0,0,1,.07.1H985l-0.42.39Z" transform="translate(-951.26 -371.66)"/>
      <path d="M984.6,391.5l-0.14,0s0.48-.44.48-0.44l0-.12a0.25,0.25,0,0,1,.12.07,0.66,0.66,0,0,1,.07.1l-0.14,0-0.42.39h0Zm0.38-.57V391l-0.49.43h0.12l0.42-.39h0.13l-0.07-.08-0.1-.07h0Z" transform="translate(-951.26 -371.66)"/>
      <path class="h" d="M981.79,390.9v0.19c0.06,0,.05.07,0.05,0.14v0.56a0.47,0.47,0,0,0,.12.07s0,0.09-.12.12h-0.12c-0.18,0-.21-0.1-0.12-0.13a0.43,0.43,0,0,0,.13-0.07v-0.13h-0.11a0.17,0.17,0,0,1-.09-0.14v-0.29a0.16,0.16,0,0,1,.16-0.18V390.9h0.11Zm-0.19.32a0.12,0.12,0,0,1,.09-0.09,0.13,0.13,0,0,1,.09.1v0.12a0.25,0.25,0,0,1-.11.2,0.09,0.09,0,0,1-.08-0.09v-0.24Z" transform="translate(-951.26 -371.66)"/>
      <path d="M981.73,392h0a0.2,0.2,0,0,1-.18-0.1h0l0.05,0a0.36,0.36,0,0,0,.13-0.06v-0.13l-0.1,0a0.17,0.17,0,0,1-.1-0.15v-0.29a0.17,0.17,0,0,1,.17-0.19V390.9h0.12v0.2c0.06,0,.06.06,0.05,0.12v0.58l0.06,0L982,391.9a0.16,0.16,0,0,1-.14.09h-0.12Zm0-.35,0,0.14a0.27,0.27,0,0,1-.12.07c-0.05.06,0,.09,0.1,0.12h0.11a0.16,0.16,0,0,0,.13-0.07l-0.06-.06a0.12,0.12,0,0,1-.07,0v-0.57c0-.08,0-0.11,0-0.13v-0.2h-0.09V391a0.17,0.17,0,0,0-.16.18v0.29a0.17,0.17,0,0,0,.08.13h0.11Zm-0.06-.09a0.1,0.1,0,0,1-.09-0.1v-0.24a0.13,0.13,0,0,1,.1-0.1h0a0.14,0.14,0,0,1,.1.11v0.12a0.26,0.26,0,0,1-.12.21h0Zm0-.42a0.11,0.11,0,0,0-.08.08v0.24a0.09,0.09,0,0,0,.06.08,0.25,0.25,0,0,0,.1-0.19v-0.12a0.12,0.12,0,0,0-.08-0.09h0Z" transform="translate(-951.26 -371.66)"/>
      <path class="f" d="M980.73,385.54a1.31,1.31,0,0,1,1.81-.34,0.61,0.61,0,0,1-.27-0.06l0.1,0.14a1.58,1.58,0,0,0-.31-0.12,0.53,0.53,0,0,1,.09.11s-0.18-.12-0.21-0.13a0.41,0.41,0,0,1,.06.18l-0.14-.06a0.43,0.43,0,0,1,0,.07,0.92,0.92,0,0,0-.59.28Z" transform="translate(-951.26 -371.66)"/>
      <path d="M981.25,385.62a0.81,0.81,0,0,1,.59-0.29h0v0a0.91,0.91,0,0,0-.59.28h0Zm-0.51-.07v0a1.32,1.32,0,0,1,1.82-.34,0.29,0.29,0,0,1-.22,0,0.28,0.28,0,0,0,.05.11h0a1.89,1.89,0,0,0-.3-0.1,0.23,0.23,0,0,1,.09.09s0,0-.12,0l-0.1-.06a0.28,0.28,0,0,1,.07.17l-0.15-.05v0l0.13,0.06a0.72,0.72,0,0,0-.07-0.16,0.13,0.13,0,0,1,.12,0l0.08,0.06-0.08-.09a0.65,0.65,0,0,1,.3.09l-0.09-.12,0,0,0.1,0a0.39,0.39,0,0,0,.2,0,1.34,1.34,0,0,0-1.8.36h0Z" transform="translate(-951.26 -371.66)"/>
      <path class="f" d="M981,385.71c0.09-.22,1.84-0.59,2.19,0a0.32,0.32,0,0,1-.27-0.12v0.14l-0.23-.18,0.08,0.18-0.19-.15v0.15l-0.23-.25,0,0.14-0.2-.09,0,0.12H981Z" transform="translate(-951.26 -371.66)"/>
      <path d="M982.57,385.76l-0.24-.24,0,0.13-0.22-.07,0,0.11,0-.12,0.21,0.07,0-.13,0.24,0.24,0-.14,0.2,0.14-0.1-.17,0.25,0.16,0-.13a0.42,0.42,0,0,0,.24.11h0a1.26,1.26,0,0,0-1.07-.31,1.94,1.94,0,0,0-1.1.3h0a1.94,1.94,0,0,1,1.12-.31,1.22,1.22,0,0,1,1.09.34,0.3,0.3,0,0,1-.29-0.1l0,0.13-0.25-.17,0.1,0.17-0.2-.14,0,0.14h0Z" transform="translate(-951.26 -371.66)"/>
      <path class="f" d="M981,385.74a1.58,1.58,0,0,1,1.14-.1c0.44,0.25.68,0.2,0.73,0.66a0.94,0.94,0,0,1-.16-0.16l-0.09.18,0-.25-0.07.2-0.11-.32,0,0.22-0.17-.22-0.08.06-0.07-.17-0.06.11a0.21,0.21,0,0,0-.18,0l-0.12-.14,0,0.1-0.11-.12,0,0.09-0.11-.1v0.07h-0.37Z" transform="translate(-951.26 -371.66)"/>
      <path d="M982.66,386.33l0-.26-0.05.2-0.13-.32v0.21l-0.19-.21-0.06.07-0.09-.17,0,0.11a0.53,0.53,0,0,0-.14,0h0l-0.14-.15v0.1l-0.12-.12,0,0.09,0,0h0l0-.09,0.13,0.12v-0.1l0.14,0.14a0.2,0.2,0,0,1,.18,0l0.05-.11,0.09,0.17,0.06-.07,0.18,0.22v-0.21l0.13,0.32,0.05-.2,0,0.26,0.07-.18c0.05,0,.14.14,0.17,0.16a0.57,0.57,0,0,0-.44-0.5l-0.3-.14a1.56,1.56,0,0,0-1.13.1v0a1.59,1.59,0,0,1,1.15-.1l0.3,0.14a0.56,0.56,0,0,1,.44.53,0.52,0.52,0,0,1-.18-0.15l-0.07.18h0Z" transform="translate(-951.26 -371.66)"/>
      <path class="f" d="M981.13,385.79a2.41,2.41,0,0,1,1.44.69l-0.15-.07,0,0.14-0.05-.14v0.11c0-.09-0.07-0.1-0.14,0l0-.13,0,0.13-0.06-.14a0.35,0.35,0,0,1-.06.14,0.91,0.91,0,0,0-.14-0.27v0.16l-0.06-.16-0.05.12v-0.17l-0.06.13a0.33,0.33,0,0,0-.08-0.15l-0.09.08-0.4-.29Z" transform="translate(-951.26 -371.66)"/>
      <path d="M982.38,386.55l-0.08-.14v0.11a0.18,0.18,0,0,0-.07-0.06,0.14,0.14,0,0,0-.07.06l0-.14,0,0.13-0.08-.14a0.2,0.2,0,0,1,0,.15,1.11,1.11,0,0,0-.15-0.27v0.15l-0.08-.16,0,0.12,0-.18,0,0.13a0.72,0.72,0,0,0-.09-0.15l-0.08.08-0.41-.29,0.41,0.27,0.08-.08a0.27,0.27,0,0,1,.1.16l0-.13,0,0.18,0-.12,0.08,0.16v-0.16a0.55,0.55,0,0,1,.16.27s0-.08,0-0.14l0.08,0.13,0-.12,0,0.13c0-.05,0-0.08.07-0.07a0.1,0.1,0,0,1,.06.07V386.4l0.07,0.14,0-.14a0.35,0.35,0,0,1,.17.07,2.58,2.58,0,0,0-1.43-.66h0v0h0a2.41,2.41,0,0,1,1.44.69l-0.16-.06,0,0.13h0Z" transform="translate(-951.26 -371.66)"/>
      <path class="f" d="M981.07,385.87a1.32,1.32,0,0,1,.76,1c-0.18-.23-0.14-0.2-0.23.07a1,1,0,0,0-.06-0.26l-0.05.17,0-.22h-0.06v-0.14l-0.08.06a0.12,0.12,0,0,0,0-.18s0.11,0,0-.18l-0.08.08a0.19,0.19,0,0,0,0-.12l-0.29-.1Z" transform="translate(-951.26 -371.66)"/>
      <path d="M981.61,386.91a2.13,2.13,0,0,0-.08-0.25l0,0.17h0l0-.17a0.56,0.56,0,0,1,.08.26v-0.11a0.15,0.15,0,0,1,.05-0.12s0.06,0,.13.13a1.31,1.31,0,0,0-.74-0.92v0a1.32,1.32,0,0,1,.76,1,0.87,0.87,0,0,0-.15-0.14h0a0.24,0.24,0,0,0,0,.1l0,0.11h0Zm-0.26-.38a0.15,0.15,0,0,0-.06-0.18,0.13,0.13,0,0,0,0-.19l-0.06.08a0.64,0.64,0,0,0,0-.12l-0.29-.1,0.3,0.08a0.19,0.19,0,0,1,0,.13l0.06-.09a0.17,0.17,0,0,1,0,.18,0.18,0.18,0,0,1,0,.16l0.06,0v0l-0.06.07h0Z" transform="translate(-951.26 -371.66)"/>
      <path class="f" d="M981,385.91l0.16,0.3-0.08,0,0.18,0.13-0.15,0a0.42,0.42,0,0,1,.26.31l-0.24-.11a1.08,1.08,0,0,1,.23.33l-0.14-.12a0.5,0.5,0,0,1,.11.36l-0.1-.11a0.57,0.57,0,0,1-.11.49,1.16,1.16,0,0,0,0-.35l-0.27.28L981,387a0.49,0.49,0,0,1-.26.22l0.21-.32-0.21.17,0.23-.35-0.22.06a0.65,0.65,0,0,0,.14-0.32l-0.15.16a0.79,0.79,0,0,0,0-.24l-0.08,0,0.15-.17-0.1,0v-0.11l-0.07,0V386Z" transform="translate(-951.26 -371.66)"/>
      <path d="M981.17,387.51a1.83,1.83,0,0,0,0-.35l-0.25.28,0.12-.37a0.36,0.36,0,0,1-.25.21l0.2-.33-0.19.18,0.22-.36-0.21.08a1.08,1.08,0,0,0,.13-0.33l-0.13.17a2,2,0,0,0,0-.24l-0.06,0,0.14-.19H980.8v-0.12h-0.07V386l0,0.13h0.07v0.12h0.09l-0.14.19,0.06,0a0.54,0.54,0,0,1,0,.25l0.13-.17a0.54,0.54,0,0,1-.13.34l0.21-.08-0.22.36,0.19-.18-0.19.33h0A0.6,0.6,0,0,0,981,387h0v0l-0.12.37,0.25-.29a0.74,0.74,0,0,1,0,.36,0.65,0.65,0,0,0,.09-0.49l0.12,0.11a0.58,0.58,0,0,0-.13-0.35h0a0,0,0,0,1,0,0l0.12,0.08a1.52,1.52,0,0,0-.24-0.31h0l0.24,0.08a0.46,0.46,0,0,0-.27-0.29h0.16l-0.19-.12,0.08,0-0.17-.28h0l0.16,0.3-0.09,0,0.18,0.12h-0.14a0.38,0.38,0,0,1,.25.3l-0.24-.09a0.75,0.75,0,0,1,.23.31l-0.12-.08a0.46,0.46,0,0,1,.09.33l-0.12-.11a0.51,0.51,0,0,1-.09.49h0Zm0-.36a0.9,0.9,0,0,1-.11-0.46,1.31,1.31,0,0,0-.18-0.69h0a1.32,1.32,0,0,1,.19.7,1.21,1.21,0,0,0,.09.46h0Z" transform="translate(-951.26 -371.66)"/>
      <path class="h" d="M982.3,392.15a0.86,0.86,0,0,0,.09-0.06s-0.14,0-.16,0-0.11,0-.16,0a0.14,0.14,0,0,0-.23,0,0.15,0.15,0,0,0-.21,0,0.13,0.13,0,0,0-.2,0,0,0,0,0,0-.08,0,0.12,0.12,0,0,0-.19,0s-0.08,0-.13,0-0.09,0-.09,0,0.07,0,.07.05a0.36,0.36,0,0,0-.05.05s0.08,0,.09,0a0.08,0.08,0,0,0,.13,0,0.09,0.09,0,0,0,.15,0,0.06,0.06,0,0,0,.09,0,0.12,0.12,0,0,0,.2,0h0a0.11,0.11,0,0,0,.18,0,0.15,0.15,0,0,0,.22,0c0.06,0.08.16,0.07,0.19,0s0.13,0,.13,0a0.93,0.93,0,0,0-.08-0.05h0Zm-0.2,0a0,0,0,0,0,.05,0,0,0,0,0,0,.05,0,0,0,0,0,0-.05,0,0,0,0,0,0-.05,0h0Zm-0.21,0a0.05,0.05,0,0,0,.06,0,0.05,0.05,0,0,0,.06,0,0.05,0.05,0,0,0-.06,0,0.05,0.05,0,0,0-.06,0h0Zm-0.42,0a0,0,0,0,0,.06,0,0,0,0,1,0,0-.07,0,0,0,0,0-.06,0h0Zm0.22,0a0.05,0.05,0,0,0,.05,0,0.05,0.05,0,0,0,.05,0,0.05,0.05,0,0,0-.05,0,0.05,0.05,0,0,0-.05,0h0Zm-0.48,0a0,0,0,0,0,.1,0,0,0,0,0,0-.1,0,0,0,0,0,0,0,0h0Zm0.15,0a0,0,0,0,0,0,0,0,0,0,0,0,0,0,0,0,0,0,0,0,0,0,0,0,0,0,0,0h0Zm-0.29,0a0,0,0,0,0,0,0,0,0,0,0,0,0-.08,0,0,0,0,0,0,0h0Z" transform="translate(-951.26 -371.66)"/>
      <path d="M981,392.28h0l0,0,0.05-.05-0.07-.05H981l0,0.06-0.05.05,0,0,0,0,0.07,0a0.07,0.07,0,0,0,.07,0l0.08,0a0.08,0.08,0,0,0,.07,0h0.11a0.12,0.12,0,0,0,.18,0h0a0.16,0.16,0,0,1-.23,0h-0.08a0.11,0.11,0,0,1-.16,0s0,0.05-.07.05h0l-0.06,0s0,0,0,0h0Zm1.16,0a0.15,0.15,0,0,1-.11-0.06,0.15,0.15,0,0,1-.22,0s-0.09.11-.18,0c0.16,0.07.16,0,.17,0s0.15,0.06.22,0,0.16,0.07.18,0l0.1,0,0-.07,0.06,0v0l0,0.07a0.15,0.15,0,0,1-.15,0,0.06,0.06,0,0,1-.07.06h0Zm-0.73-.11h-0.08l0,0h-0.05a0.1,0.1,0,0,0-.17,0,0.11,0.11,0,0,0-.12,0h0a0.13,0.13,0,0,1,.08,0c0.12,0,.2,0,0.24,0,0.19-.07.21-0.07,0.28,0a0.15,0.15,0,0,1,.21,0,0.13,0.13,0,0,1,.23,0l0.08,0a0.13,0.13,0,0,1,.08,0,0.11,0.11,0,0,1,.11-0.06v0a0.14,0.14,0,0,0-.11,0l-0.08,0-0.09,0a0.13,0.13,0,0,0-.22,0,0.16,0.16,0,0,0-.21,0c-0.1-.06-0.14-0.06-0.2,0h0l0,0h0Z" transform="translate(-951.26 -371.66)"/>
      <path class="h" d="M980.83,390.8s0.14-1.17.14-1.68-0.09-1.28-.09-1.28h-0.4s-0.06.88-.05,1.27,0.14,1.68.14,1.68h0.27Z" transform="translate(-951.26 -371.66)"/>
      <path d="M980.84,390.81h-0.28s-0.14-1.19-.15-1.69,0.05-1.26.05-1.27h0.41a12.59,12.59,0,0,1,.11,1.29c0,0.5-.14,1.67-0.14,1.68h0Zm-0.37-3s-0.05.87,0,1.26,0.14,1.67.14,1.68h0.25c0-.11.14-1.19,0.14-1.67s-0.09-1.27-.1-1.28h-0.39Z" transform="translate(-951.26 -371.66)"/>
      <polygon class="h" points="29.19 16.24 29.65 16.24 29.6 15.93 29.26 15.93 29.19 16.24"/>
      <path d="M980.93,387.91h-0.48l0.06-.33h0.35l0.07,0.34h0Zm-0.08-.32h-0.33l-0.06.31h0.44l-0.05-.3h0Z" transform="translate(-951.26 -371.66)"/>
      <polygon class="h" points="29.22 15.99 29.63 15.99 29.55 15.67 29.3 15.67 29.22 15.99"/>
      <path d="M980.91,387.66h-0.43l0.07-.33h0.27l0.09,0.34h0Zm-0.1-.32h-0.24l-0.07.31h0.39l-0.08-.3h0Z" transform="translate(-951.26 -371.66)"/>
      <polygon class="h" points="29.24 15.73 29.59 15.73 29.53 15.42 29.31 15.42 29.24 15.73"/>
      <path d="M980.87,387.41H980.5l0.06-.33h0.23l0.07,0.34h0Zm-0.08-.32h-0.21l-0.06.3h0.32l-0.06-.3h0Z" transform="translate(-951.26 -371.66)"/>
      <polygon class="h" points="29.55 15.38 29.3 15.38 29.27 15.49 29.56 15.49 29.55 15.38"/>
      <path d="M980.92,390.09h-0.44l0.44,0v0h0Zm0-.25h-0.46l0.46,0v0h0Zm0-.25h-0.48l0.48,0v0h0Zm0-.23h-0.53l0.53,0v0h0Zm0-.21h-0.55l0.55,0v0h0Zm0-.25h-0.55l0.55,0v0h0Zm0-.25h-0.53l0.53,0v0h0Zm0-.26h-0.48l0.48,0v0h0Zm0-.23h-0.43l0.43,0v0h0Z" transform="translate(-951.26 -371.66)"/>
      <path class="j" d="M980.7,390.7a0.49,0.49,0,0,0-.54.25,0.15,0.15,0,0,0,0,.07,0.81,0.81,0,0,0,.52.13,0.88,0.88,0,0,0,.5-0.12,0.14,0.14,0,0,0,0-.08,0.49,0.49,0,0,0-.54-0.25h0Z" transform="translate(-951.26 -371.66)"/>
      <path class="l" d="M980.71,391.16a0.81,0.81,0,0,1-.53-0.13l0-.08a0.71,0.71,0,0,1,1.1,0,0.15,0.15,0,0,1,0,.09,0.88,0.88,0,0,1-.52.12h0Zm0-.44a0.49,0.49,0,0,0-.52.23,1,1,0,0,0,1,.07,0.12,0.12,0,0,0,0-.07,0.49,0.49,0,0,0-.52-0.23h0Z" transform="translate(-951.26 -371.66)"/>
      <path class="h" d="M981.24,391v0.83a0.91,0.91,0,0,1-1.08,0V391a0.9,0.9,0,0,0,1.08,0h0Z" transform="translate(-951.26 -371.66)"/>
      <path d="M980.71,392a0.55,0.55,0,0,1-.55-0.19V391a0.64,0.64,0,0,0,.55.17,0.56,0.56,0,0,0,.53-0.17,0,0,0,0,1,0,0l0,0.81a0.55,0.55,0,0,1-.55.19h0Zm-0.55-1,0,0.83a0.92,0.92,0,0,0,1.06,0V391a0.6,0.6,0,0,1-.53.16,0.56,0.56,0,0,1-.55-0.19h0Z" transform="translate(-951.26 -371.66)"/>
      <path class="k" d="M980.17,391v0.13l0.26,0.81,0.21-.62,0.23,0.64,0.17-.61,0.21,0.41V391.5l-0.2-.4-0.07,0-0.12.45-0.17-.42H980.6l-0.17.43-0.2-.51a0.11,0.11,0,0,1-.07-0.09h0Z" transform="translate(-951.26 -371.66)"/>
      <path class="m" d="M980.87,392l-0.24-.68-0.19.62-0.28-.81V391h0a0.27,0.27,0,0,0,.09.08l0.2,0.52,0.15-.43h0.09l0.18,0.43,0.1-.45,0.08,0,0.21,0.4v0.23l-0.23-.4-0.16.64h0Zm-0.71-1,0,0.1,0.26,0.8,0.19-.62,0.24,0.61,0.16-.58,0.23,0.41,0-.22-0.2-.39-0.06,0-0.11.44-0.19-.42H980.6l-0.16.42-0.21-.52a0.13,0.13,0,0,1-.07-0.07h0Z" transform="translate(-951.26 -371.66)"/>
      <path class="j" d="M981.24,391.65v0.16a0.91,0.91,0,0,1-1.08,0v-0.16a0.9,0.9,0,0,0,1.08,0h0Z" transform="translate(-951.26 -371.66)"/>
      <path class="l" d="M980.71,392a0.55,0.55,0,0,1-.55-0.19v-0.16a0.64,0.64,0,0,0,.55.17,0.56,0.56,0,0,0,.53-0.17h0l0,0.15a0.55,0.55,0,0,1-.55.19h0Zm-0.55-.32,0,0.14a0.92,0.92,0,0,0,1.06,0v-0.13a0.59,0.59,0,0,1-.53.16,0.63,0.63,0,0,1-.55-0.17h0Z" transform="translate(-951.26 -371.66)"/>
      <path class="h" d="M980.93,391.81l-0.14,0V392h0.14v-0.16Z" transform="translate(-951.26 -371.66)"/>
      <path class="a" d="M980.93,391.81l-0.14,0V392h0.14v-0.16Z" transform="translate(-951.26 -371.66)"/>
      <path class="h" d="M980.35,391.78v0.16l0.14,0v-0.16l-0.14,0h0Z" transform="translate(-951.26 -371.66)"/>
      <path class="a" d="M980.35,391.78v0.16l0.14,0v-0.16Z" transform="translate(-951.26 -371.66)"/>
      <path class="h" d="M980.17,391.65v0.16a0.1,0.1,0,0,0,.06.08v-0.15a0.1,0.1,0,0,1-.06-0.08h0Z" transform="translate(-951.26 -371.66)"/>
      <path class="a" d="M980.17,391.65v0.16a0.1,0.1,0,0,0,.06.08v-0.15A0.1,0.1,0,0,1,980.17,391.65Z" transform="translate(-951.26 -371.66)"/>
      <path class="h" d="M981.24,391.66h0a0.17,0.17,0,0,1-.1.09v0.15a0.14,0.14,0,0,0,.1-0.1v-0.14Z" transform="translate(-951.26 -371.66)"/>
      <path d="M980.71,392a0.55,0.55,0,0,1-.55-0.19V391l0,0.83a0.55,0.55,0,0,0,.53.17,1.1,1.1,0,0,0,.44-0.08v-0.14a0.22,0.22,0,0,0,.1-0.09h0V391a0,0,0,0,1,0,0v0.83h0a0.09,0.09,0,0,1,0,.07,0.89,0.89,0,0,1-.51.12h0Z" transform="translate(-951.26 -371.66)"/>
      <path class="i" d="M981.12,390.92a0.86,0.86,0,1,1-.42-0.11,0.49,0.49,0,0,1,.42.11h0Z" transform="translate(-951.26 -371.66)"/>
      <path class="e" d="M980.71,391a0.5,0.5,0,0,1-.43-0.12,0.87,0.87,0,0,1,.85,0,0.49,0.49,0,0,1-.43.12h0Zm0-.21a0.22,0.22,0,1,0,.41.1,0.51,0.51,0,0,0-.41-0.1h0Z" transform="translate(-951.26 -371.66)"/>
      <path class="h" d="M980.57,391l0,0.15h0.11l0-.15h-0.16Z" transform="translate(-951.26 -371.66)"/>
      <path class="a" d="M980.57,391l0,0.15h0.11l0-.15h-0.16Z" transform="translate(-951.26 -371.66)"/>
      <path class="h" d="M981.05,391l-0.11,0v0.14l0.1,0V391Z" transform="translate(-951.26 -371.66)"/>
      <path class="a" d="M981.05,391l-0.11,0v0.14l0.1,0V391Z" transform="translate(-951.26 -371.66)"/>
      <path class="h" d="M980.42,390.73l-0.09,0,0,0.11,0.07,0v-0.12Z" transform="translate(-951.26 -371.66)"/>
      <path class="a" d="M980.42,390.73l-0.09,0,0,0.11,0.07,0v-0.12Z" transform="translate(-951.26 -371.66)"/>
      <path class="h" d="M980.7,390.69h0l0,0.14h0.07l0-.14H980.7Z" transform="translate(-951.26 -371.66)"/>
      <path class="a" d="M980.7,390.69h0l0,0.14h0.07l0-.14H980.7Z" transform="translate(-951.26 -371.66)"/>
      <path class="h" d="M981,390.74v0.12l0.08,0v-0.12l-0.08,0h0Z" transform="translate(-951.26 -371.66)"/>
      <path class="a" d="M981,390.74v0.12l0.08,0v-0.12Z" transform="translate(-951.26 -371.66)"/>
      <polygon class="h" points="28.99 19.4 29.01 19.25 28.9 19.19 28.9 19.36 28.99 19.4"/>
      <polygon class="a" points="28.99 19.4 29.01 19.25 28.9 19.19 28.9 19.36 28.99 19.4"/>
      <polygon class="h" points="29.98 19.37 29.98 19.22 29.88 19.25 29.98 19.37"/>
      <polygon class="a" points="29.98 19.37 29.98 19.22 29.88 19.25 29.98 19.37"/>
      <path class="f" d="M979.37,390.06a0.32,0.32,0,0,0-.47,0,0.11,0.11,0,0,1,0,0,0.28,0.28,0,0,1,.49,0,0.08,0.08,0,0,1,0,0h0Z" transform="translate(-951.26 -371.66)"/>
      <path class="e" d="M979.36,390.07a0.34,0.34,0,0,0-.45,0,0.18,0.18,0,0,1,0-.05,0.46,0.46,0,0,1,.46,0v0c0-.13-0.41-0.15-0.46,0,0-.19.49-0.13,0.49,0l0,0h0Z" transform="translate(-951.26 -371.66)"/>
      <path class="f" d="M979.35,390.24a0.22,0.22,0,1,1-.43,0v-0.15h0.43v0.15Z" transform="translate(-951.26 -371.66)"/>
      <path class="e" d="M979.14,390.53a0.27,0.27,0,0,1-.23-0.29v-0.15l0.45,0,0,0.17a0.27,0.27,0,0,1-.23.29h0Zm0.2-.45-0.41,0,0,0.13a0.2,0.2,0,1,0,.39,0v-0.15h0Z" transform="translate(-951.26 -371.66)"/>
      <path class="i" d="M979.35,390a0.27,0.27,0,1,1-.21-0.11,0.19,0.19,0,0,1,.21.11h0Z" transform="translate(-951.26 -371.66)"/>
      <polygon class="f" points="27.83 18.49 27.79 18.1 27.95 18.1 27.93 18.49 27.83 18.49"/>
      <polygon class="o" points="27.94 18.5 27.83 18.5 27.78 18.11 27.95 18.09 27.94 18.5 27.94 18.5"/>
      <path class="f" d="M979.37,390a0.27,0.27,0,0,1-.23.1,0.27,0.27,0,0,1-.24-0.1,0.11,0.11,0,0,0,0,0,0.28,0.28,0,0,0,.49,0,0.08,0.08,0,0,0,0,0h0Z" transform="translate(-951.26 -371.66)"/>
      <path class="e" d="M979.14,390.24a0.23,0.23,0,0,1-.26-0.16h0a0.31,0.31,0,0,0,.47,0,0.2,0.2,0,0,1-.23.13h0Zm0-.08a0.35,0.35,0,0,1-.21-0.06,0.49,0.49,0,0,0,.43-0.06,0.18,0.18,0,0,1,0,.05,0.36,0.36,0,0,1-.23.07h0Z" transform="translate(-951.26 -371.66)"/>
      <polygon class="h" points="27.71 19.18 28.14 19.23 28.21 18.84 27.7 18.79 27.71 19.18"/>
      <polygon points="28.15 19.23 27.71 19.2 27.71 19.17 28.14 19.22 28.2 18.84 27.7 18.8 28.21 18.83 28.15 19.23 28.15 19.23"/>
      <polygon class="h" points="27.82 18.78 27.76 19.23 27.89 19.23 27.94 18.78 27.82 18.78"/>
      <polygon points="27.74 19.24 27.81 18.78 27.94 18.77 27.9 19.23 27.74 19.24 27.74 19.24"/>
      <path class="h" d="M982.34,390a0.29,0.29,0,0,1,.25.29c0,0.13-.2.13-0.2,0.13a0.25,0.25,0,0,1-.22.11c-0.09,0,0-.17,0-0.17a0.51,0.51,0,0,1,0-.32Z" transform="translate(-951.26 -371.66)"/>
      <path d="M982.17,390.56l0,0a0.2,0.2,0,0,0,.22-0.09,0.38,0.38,0,0,0,.18-0.06,0.31,0.31,0,0,0-.09-0.3,0.19,0.19,0,0,0-.12,0l-0.12,0a0.55,0.55,0,0,0,0,.3h0.3l-0.14,0H982.2a0.34,0.34,0,0,0-.05.13,0.21,0.21,0,0,1,0-.14,0.48,0.48,0,0,1,0-.32l0.13,0a0.18,0.18,0,0,1,.14.05,0.35,0.35,0,0,1,.13.24,0.1,0.1,0,0,1,0,.08,0.27,0.27,0,0,1-.18.05,0.23,0.23,0,0,1-.21.11h0Z" transform="translate(-951.26 -371.66)"/>
      <path class="k" d="M982.39,390.13a0.1,0.1,0,0,0,0-.18h-0.13a0.16,0.16,0,0,0-.15.13,0.08,0.08,0,0,0,.1.06s0.07-.07.1-0.07a0.39,0.39,0,0,0,.13.05h0Z" transform="translate(-951.26 -371.66)"/>
      <path class="o" d="M982.14,390.16a0.08,0.08,0,0,1-.09-0.07,0.2,0.2,0,0,1,.16-0.14h0.13a0.11,0.11,0,0,1,.09.08,0.1,0.1,0,0,1,0,.11,0.12,0.12,0,0,1-.08,0l-0.17,0h0Zm0.2-.19h-0.13a0.21,0.21,0,0,0-.13.07c0,0.08,0,.1.05,0.1h0l0.12-.08,0.12,0.05a0.07,0.07,0,0,0,0-.09,0.09,0.09,0,0,0-.07-0.07h0Z" transform="translate(-951.26 -371.66)"/>
      <path class="j" d="M980.71,385.2c-0.08,0-.27-0.15-0.21-0.22l0.08-.14c0.12-.27,0-0.16,0-0.25a0.37,0.37,0,0,1,.46.17,0.81,0.81,0,0,0,0,.31l-0.09.17a0.41,0.41,0,0,1-.2,0h0Z" transform="translate(-951.26 -371.66)"/>
      <path class="l" d="M980.87,385.24a0.4,0.4,0,0,1-.16,0,0.49,0.49,0,0,1-.22-0.19l0.1-.19c0.07-.17,0-0.18,0-0.19l0-.07a0.36,0.36,0,0,1,.47.19,0.94,0.94,0,0,0,0,.31l-0.09.18h-0.05Zm-0.21-.68-0.07,0c0.07,0.06.09,0.08,0,.26l-0.08.14a0.34,0.34,0,0,0,.21.21,0.35,0.35,0,0,0,.15,0h0l0.08-.17a0.73,0.73,0,0,1,0-.27,0.33,0.33,0,0,0-.36-0.22h0Z" transform="translate(-951.26 -371.66)"/>
      <polygon class="h" points="29.51 14.23 29.39 14.14 29.42 13.3 29.54 13.33 29.51 14.23"/>
      <path d="M980.78,385.92l-0.13-.11,0-.85,0.13,0,0,0.93h0Zm-0.1-.95,0,0.83,0.1,0.08,0-.88-0.11,0h0Z" transform="translate(-951.26 -371.66)"/>
      <path class="k" d="M980.92,385.23A0.21,0.21,0,0,0,981,385a0.58,0.58,0,0,0-.4-0.16,0.27,0.27,0,0,0-.11.19c0.26,0.13.16,0,.25,0a0.53,0.53,0,0,1,.18.18h0Z" transform="translate(-951.26 -371.66)"/>
      <path class="m" d="M980.92,385.24l-0.07-.09a0.22,0.22,0,0,0-.11-0.1l-0.07,0a0.56,0.56,0,0,1-.18-0.06,0.23,0.23,0,0,1,.09-0.19l0.2,0a0.29,0.29,0,0,1,.23.12,0.17,0.17,0,0,1,0,.13,0.21,0.21,0,0,1-.09.13h0Zm-0.17-.21a0.25,0.25,0,0,1,.12.11l0.06,0.07a0.21,0.21,0,0,0,.07-0.11,0.16,0.16,0,0,0,0-.11,0.27,0.27,0,0,0-.22-0.11l-0.18,0a0.28,0.28,0,0,0-.09.17l0.16,0.05,0.08,0h0Z" transform="translate(-951.26 -371.66)"/>
      <path class="h" d="M976.51,391.78c-0.07,0-.09.09-0.06,0.17-0.32.09-.6,0.21-0.88,0.29a0.58,0.58,0,0,1,.14-0.22,0.23,0.23,0,0,1,.07.11,0.46,0.46,0,0,1,.19-0.31,1,1,0,0,0-.48.17,0.54,0.54,0,0,1,.15,0,1.73,1.73,0,0,0-.27.35,1.17,1.17,0,0,0,.47.15,0.61,0.61,0,0,1-.13.11,0.72,0.72,0,0,0,.51-0.16,0.75,0.75,0,0,1-.36-0.14,0.19,0.19,0,0,1,0,.12,1,1,0,0,1-.27-0.11l0.87-.23a0.14,0.14,0,0,0,.13.12,0.14,0.14,0,0,0,0-.16l0.06,0a0.09,0.09,0,0,0,.09-0.09,0.09,0.09,0,0,0-.18,0,0.17,0.17,0,0,0-.09-0.15h0Zm0.22,0.18a0,0,0,0,1-.09,0,0,0,0,0,1,.09,0h0Z" transform="translate(-951.26 -371.66)"/>
      <path d="M975.79,392.62h-0.07l0.12-.12a1,1,0,0,1-.47-0.15,0.93,0.93,0,0,1,.18-0.27,1.84,1.84,0,0,0-.16.27,1.14,1.14,0,0,0,.46.14,0.28,0.28,0,0,1-.12.13h0.06a0.78,0.78,0,0,0,.43-0.16,0.55,0.55,0,0,1-.34-0.12,0.12,0.12,0,0,1,0,.1,0.81,0.81,0,0,1-.29-0.11,0.41,0.41,0,0,1,.26-0.09l0.61-.17a0.19,0.19,0,0,0,.12.13s0-.07,0-0.15,0.15,0,.15-0.07a0.08,0.08,0,0,0-.15,0,0.22,0.22,0,0,0-.1-0.14,0.13,0.13,0,0,0-.05.16l-0.47.16-0.41.13a0.4,0.4,0,0,1,.13-0.23,0.19,0.19,0,0,1,.09.11,0.39,0.39,0,0,1,.16-0.31,0.64,0.64,0,0,0-.16.31,1.17,1.17,0,0,0-.08-0.1,0.57,0.57,0,0,0-.12.21l0.4-.14,0.47-.15a0.12,0.12,0,0,1,0-.13l0.06,0h0a0.17,0.17,0,0,1,.11.16c0-.1.18-0.07,0.18,0a0.1,0.1,0,0,1-.1.1l-0.07,0c0,0.06,0,.15,0,0.17h0a0.16,0.16,0,0,1-.14-0.13l-0.6.17-0.25.07,0.27,0.09a0.37,0.37,0,0,0,0-.1h0a0.91,0.91,0,0,0,.36.12,0.67,0.67,0,0,1-.44.19h0Zm-0.3-.63a0.82,0.82,0,0,1,.46-0.19h0a1.57,1.57,0,0,0-.44.16h0.07v0h-0.1Z" transform="translate(-951.26 -371.66)"/>
      <path class="h" d="M985.8,392.14a0.92,0.92,0,0,0,0-.26,0.24,0.24,0,0,0-.1.08,0.82,0.82,0,0,0-.1-0.48,1.61,1.61,0,0,1,.48.43,0.83,0.83,0,0,0-.18,0,0.94,0.94,0,0,0,.2.35,0.22,0.22,0,0,0-.18.21h-0.13a0.15,0.15,0,0,1,0-.15l-0.91-.38a0.22,0.22,0,0,1-.17-0.15,0.35,0.35,0,0,1,.29,0Z" transform="translate(-951.26 -371.66)"/>
      <path d="M985.75,392.44h0a0.16,0.16,0,0,1,0-.16l-0.91-.37c-0.05,0-.2-0.08-0.18-0.17h0.06c-0.05.06,0,.11,0.13,0.16l0.91,0.38a0.23,0.23,0,0,0,0,.15h0.13a0.21,0.21,0,0,1,.18-0.21l-0.07-.07a0.54,0.54,0,0,1-.13-0.27,0.6,0.6,0,0,1,.2,0,2.06,2.06,0,0,0-.49-0.41,0.69,0.69,0,0,1,.12.44,0.14,0.14,0,0,1,.09-0.06,0.67,0.67,0,0,1,0,.28L985,391.8a1,1,0,0,0-.24-0.07,0.43,0.43,0,0,1,.21,0l0.86,0.36a2.28,2.28,0,0,0,0-.25,0.44,0.44,0,0,0-.08.09h0a0,0,0,0,1,0,0,1.07,1.07,0,0,0-.12-0.45,1.3,1.3,0,0,1,.5.42l-0.19,0a0.57,0.57,0,0,0,.13.24l0.07,0.09a0.24,0.24,0,0,0-.18.22h-0.15Z" transform="translate(-951.26 -371.66)"/>
      <path class="h" d="M984.92,392l0.11-.2c0-.05,0-0.11-0.1,0l-0.12.18c-0.05.1,0.06,0.13,0.11,0.06h0Z" transform="translate(-951.26 -371.66)"/>
      <path d="M984.85,392l-0.06,0a0.09,0.09,0,0,1,0-.08l0.12-.19,0.06,0,0,0.09-0.11.2a0.1,0.1,0,0,1-.08,0h0Z" transform="translate(-951.26 -371.66)"/>
      <polygon class="i" points="27.26 20.77 27.26 20.55 27 20.57 26.98 20.8 27.26 20.77"/>
      <path d="M978.23,392.48l0-.25,0.27,0,0,0.22-0.3,0h0Zm0.28-.26-0.25,0v0.21l0.27,0,0-.2h0Z" transform="translate(-951.26 -371.66)"/>
      <path class="i" d="M976.63,392.73l-0.35-.2a3.66,3.66,0,0,0,2.07-.4c0.21,0,.25.24-0.17,0.12l0.11,0.26a3.18,3.18,0,0,1-2,.34Z" transform="translate(-951.26 -371.66)"/>
      <path d="M976.78,392.92a2.19,2.19,0,0,1-.51-0.06l0.35-.15-0.35-.18h0.46a2.56,2.56,0,0,0,1.29-.3,0.89,0.89,0,0,1,.33-0.12h0c0.11,0,.16,0,0.16.09s-0.11.11-.33,0l0.12,0.25a3.3,3.3,0,0,1-1.52.41h0Zm-0.51-.38,0.35,0.18-0.36.14a4.59,4.59,0,0,0,.51,0,3.45,3.45,0,0,0,1.5-.39l-0.11-.25c0.23,0,.32,0,0.32,0a0.1,0.1,0,0,0-.12-0.07,0.84,0.84,0,0,0-.34.12,2.83,2.83,0,0,1-1.76.28h0Z" transform="translate(-951.26 -371.66)"/>
      <polygon class="i" points="31.61 20.77 31.62 20.55 31.94 20.56 31.95 20.79 31.61 20.77"/>
      <path d="M983.22,392.47l-0.35,0v-0.22h0.33l0,0.26h0Zm0-.25h-0.31v0.21l0.32,0,0-.22h0Z" transform="translate(-951.26 -371.66)"/>
      <path class="i" d="M984.84,392.68l0.33-.18c-1.64,0-1.27-.27-2.09-0.36-0.21,0-.37.25,0.17,0.12l-0.11.26h0.26a2.48,2.48,0,0,0,1.82.28Z" transform="translate(-951.26 -371.66)"/>
      <path d="M984.65,392.87h0a2.32,2.32,0,0,1-1.27-.35h-0.25l0.1-.28a0.61,0.61,0,0,1-.23.05s-0.13,0-.13-0.06a0.17,0.17,0,0,1,.18-0.11,1.61,1.61,0,0,1,.62.17,2.73,2.73,0,0,0,1.5.19l-0.32.2,0.37,0.11a1.69,1.69,0,0,1-.56.08h0Zm-1.26-.37a2.52,2.52,0,0,0,1.81.29l-0.37-.11,0.32-.2a1.49,1.49,0,0,1-.31,0,2.32,2.32,0,0,1-1.19-.2,1.54,1.54,0,0,0-.59-0.16,0.21,0.21,0,0,0-.19.09s0.07,0,.11,0a1,1,0,0,0,.24,0l-0.09.28,0.25,0h0Z" transform="translate(-951.26 -371.66)"/>
      <path class="i" d="M978.18,392.26v0.37a9.62,9.62,0,0,0,5.07,0v-0.37a10.25,10.25,0,0,1-5.07,0h0Z" transform="translate(-951.26 -371.66)"/>
      <path d="M980.71,393a8.1,8.1,0,0,1-2.54-.34v-0.38a7.3,7.3,0,0,0,2.55.31,6.89,6.89,0,0,0,2.53-.32l0,0.38a7.57,7.57,0,0,1-2.55.35h0Zm-2.53-.35a8.49,8.49,0,0,0,2.53.33,8,8,0,0,0,2.53-.34v-0.36a6.31,6.31,0,0,1-2.53.33,7,7,0,0,1-2.54-.32l0,0.36h0Z" transform="translate(-951.26 -371.66)"/>
      <path d="M978.31,392.63l0.08-.27h0l-0.07.24,0.14,0v0Zm0.26-.12v-0.1h0v0l0,0h0Zm0.39,0h0l0,0.16a0.2,0.2,0,0,1,0,.06l0,0h-0.07l-0.06,0a0.08,0.08,0,0,1,0,0,0.24,0.24,0,0,1,0-.07l0-.16h0l0,0.16a0.23,0.23,0,0,0,0,.06l0,0,0,0h0.06a0.1,0.1,0,0,0,0-.07Zm0,0.29,0-.28h0l0.12,0.24,0-.22h0l0,0.28h0l-0.12-.24,0,0.22h0Zm0.3,0,0-.28h0l0,0.28h0Zm0.11-.12a0.16,0.16,0,0,1,.05-0.11,0.14,0.14,0,0,1,.11,0l0.07,0a0.11,0.11,0,0,1,0,.06,0.13,0.13,0,0,1,0,.08,0.15,0.15,0,0,1,0,.07l-0.06,0h-0.07l-0.07,0a0.14,0.14,0,0,1,0-.06,0.15,0.15,0,0,1,0-.07h0Zm0,0a0.1,0.1,0,0,0,0,.08,0.1,0.1,0,0,0,.07,0,0.1,0.1,0,0,0,.07,0,0.12,0.12,0,0,0,0-.08,0.16,0.16,0,0,0,0-.06l0,0-0.05,0a0.1,0.1,0,0,0-.07,0,0.12,0.12,0,0,0,0,.09h0Zm0.27,0.17,0-.28h0l0.13,0.23,0-.22h0l0,0.28h0l-0.13-.23,0,0.22h0Zm0.41,0v-0.28h0.2v0H980.2v0.09h0.14v0h-0.14v0.13h0Zm0.21,0,0.12-.28h0l0.11,0.29h0l0-.09h-0.12l0,0.08h0Zm0.09-.12h0.1l0-.08,0-.06,0,0.05Zm0.22,0.12v-0.28h0v0.28h0Zm0.18,0v-0.25h-0.1v0H981v0h-0.1v0.25h0Zm0.29,0v-0.28h0v0.25h0.14v0h-0.18Zm0.2,0,0.09-.29h0l0.14,0.27h0l0-.08h-0.12l0,0.09h0Zm0.08-.12h0.1l0-.07,0-.06a0.27,0.27,0,0,1,0,.06Zm0.34,0.09,0-.28,0.2,0v0l-0.16,0v0.09l0.14,0v0l-0.14,0,0,0.13h0Zm0.21-.16a0.16,0.16,0,0,1,0-.12,0.13,0.13,0,0,1,.09-0.05h0.08l0.06,0a0.17,0.17,0,0,1,0,.07,0.15,0.15,0,0,1,0,.08,0.13,0.13,0,0,1,0,.06l-0.07,0h-0.08a0.12,0.12,0,0,1-.06,0,0.15,0.15,0,0,1,0-.07h0Zm0,0a0.1,0.1,0,0,0,0,.07,0.1,0.1,0,0,0,.14,0,0.11,0.11,0,0,0,0-.09,0.16,0.16,0,0,0,0-.06l0,0H982.1a0.11,0.11,0,0,0-.07,0,0.11,0.11,0,0,0,0,.09h0Zm0.31,0.09-0.05-.28,0.13,0h0.06l0,0a0.06,0.06,0,0,1,0,0,0.07,0.07,0,0,1,0,.05,0.09,0.09,0,0,1-.06,0h0l0,0,0.06,0.07h0l0-.05,0,0,0,0h-0.08l0,0.12h0Zm0-.16h0.12l0,0a0,0,0,0,0,0,0,0,0,0,0,0,0,0h-0.05l-0.09,0Zm0.46,0h0a0.12,0.12,0,0,1,0,.08,0.13,0.13,0,0,1-.07,0h-0.08a0.1,0.1,0,0,1-.05,0,0.15,0.15,0,0,1,0-.07,0.13,0.13,0,0,1,0-.08,0.11,0.11,0,0,1,0-.06l0.06,0h0.08a0.12,0.12,0,0,1,.05.05l0,0,0,0h0l-0.05,0a0.08,0.08,0,0,0,0,0,0.17,0.17,0,0,0,0,.05,0.2,0.2,0,0,0,0,.06l0,0h0.05l0.05,0a0.09,0.09,0,0,0,0-.06h0Zm0.11,0.08-0.08-.27,0.2-.05v0l-0.17,0,0,0.09,0.16,0v0l-0.16,0,0,0.09,0.17,0v0Z" transform="translate(-951.26 -371.66)"/>
    </g>
  </g>
</svg>
