<svg xmlns="http://www.w3.org/2000/svg" xmlns:xlink="http://www.w3.org/1999/xlink" viewBox="0 0 58.92 34.37">
  <defs>
    <style>
      .a {
        fill: none;
      }

      .b {
        clip-path: url(#a);
      }

      .c {
        fill: #fff;
      }

      .d {
        fill: #2100bc;
      }

      .e {
        fill: #bc002f;
      }

      .f {
        fill: #f4be27;
      }
    </style>
    <clipPath id="a" transform="translate(-1021.95 -371.66)">
      <rect class="a" x="1021.95" y="371.66" width="58.92" height="34.37"/>
    </clipPath>
  </defs>
  <title>Herm</title>
  <g class="b">
    <rect class="c" width="58.92" height="34.37"/>
    <rect class="d" width="28.62" height="17.19"/>
    <polygon class="e" points="25.21 0 25.21 13.75 0 13.75 0 20.63 25.21 20.63 25.21 34.37 32.08 34.37 32.08 20.63 58.92 20.63 58.92 13.75 32.08 13.75 32.08 0 25.21 0"/>
    <polygon class="f" points="0 0 0 3.06 19.58 13.75 25.19 13.75 25.19 10.69 5.6 0 0 0"/>
    <g class="b">
      <path d="M1034.22,380.84a1.31,1.31,0,0,0,0-.48,0.58,0.58,0,0,0-.11-0.23S1034,380,1034,380a1.3,1.3,0,0,0,0,.55,0.14,0.14,0,0,1-.08.16l-0.17.09,0.23,0.05,0.31,0h0" transform="translate(-1021.95 -371.66)"/>
      <path d="M1034.72,380.23a0.59,0.59,0,0,0-.15-0.5,1.7,1.7,0,0,0-.08.69c0,0.13.08,0.37-.09,0.38a3.61,3.61,0,0,1-.08-0.5c-0.05-.17-0.2-0.32-0.24-0.47a2.32,2.32,0,0,1,0-.64,0.78,0.78,0,0,1,0-.26,0.93,0.93,0,0,0,.12-0.3,1.68,1.68,0,0,0-.24,0,0.5,0.5,0,0,1-.09-0.44,4.65,4.65,0,0,1,.16-0.62,1,1,0,0,1,.42-0.68,1,1,0,0,0,0,.26,0.15,0.15,0,0,0,.07.1,0.11,0.11,0,0,0,.1,0,2.22,2.22,0,0,1-.27-0.85,0.5,0.5,0,0,1,.5-0.41c0.26,0,.2.45,0.2,0.64a0.74,0.74,0,0,1-.08.4,0.52,0.52,0,0,0-.14.35h0.06c0.1-.08.12-0.21,0.21-0.29a1.39,1.39,0,0,1,.12.8,2,2,0,0,0-.13.44,5.72,5.72,0,0,1,.15.56c0,0.39.08,0.79,0.08,1.18a3.7,3.7,0,0,0,0,.42,0.55,0.55,0,0,1,0,.25c0,0.1,0,0-.09.09a1.58,1.58,0,0,0-.29.26c-0.05.06-.23,0.24-0.26,0.06a0.71,0.71,0,0,1,.13-0.24,0.15,0.15,0,0,1-.16,0,1.66,1.66,0,0,1,0-.57" transform="translate(-1021.95 -371.66)"/>
      <path class="c" d="M1034.9,376.15a0.09,0.09,0,0,0,.09-0.1,0.07,0.07,0,0,0-.08-0.05,0.19,0.19,0,0,0,0,.15" transform="translate(-1021.95 -371.66)"/>
      <path class="c" d="M1035,376.39s0.05-.09,0-0.11a0.1,0.1,0,0,0-.07.11s0.06,0,.07,0" transform="translate(-1021.95 -371.66)"/>
      <path class="c" d="M1034.73,376.31a0.15,0.15,0,0,0-.07-0.12,0.29,0.29,0,0,0-.07.05l-0.07,0h-0.07a0.07,0.07,0,0,0,0,.05,0.66,0.66,0,0,0,.18,0c0.08,0,.08.06,0.09,0.13a0.36,0.36,0,0,1-.13-0.07,0.15,0.15,0,0,0-.11.07,0.91,0.91,0,0,0,.1.26,0.1,0.1,0,0,0,.14,0,0.31,0.31,0,0,0,0,.06,0.55,0.55,0,0,1,0,.18l0.09,0a0.82,0.82,0,0,1,0-.24,0.91,0.91,0,0,0,0-.16,1.58,1.58,0,0,0-.07-0.25" transform="translate(-1021.95 -371.66)"/>
      <path class="c" d="M1034.41,377.92a0.46,0.46,0,0,1,0-.12l0.06-.1a0.07,0.07,0,0,0-.11,0,0.59,0.59,0,0,0-.14.28,1,1,0,0,0,0,.33,0.29,0.29,0,0,0,0,.19h0a0.17,0.17,0,0,1,0,0,0.15,0.15,0,0,0,.08.09c0.08,0,.05-0.14,0-0.18a2.47,2.47,0,0,1,0-.54" transform="translate(-1021.95 -371.66)"/>
      <path class="c" d="M1034.33,377.64a1.79,1.79,0,0,0-.16.29,1.28,1.28,0,0,0-.11.3,1.84,1.84,0,0,0,0,.23,0.38,0.38,0,0,1,0-.27,1.05,1.05,0,0,1,.11-0.36c0-.07.07-0.14,0.11-0.21a0.17,0.17,0,0,1,.08-0.08c0.06,0,0,.07,0,0.1" transform="translate(-1021.95 -371.66)"/>
      <path class="c" d="M1034.52,377.52a0.4,0.4,0,0,1,.13.09,0.45,0.45,0,0,1,0,.45s0,0.05,0,.07,0.14-.12.16-0.17a0.37,0.37,0,0,0,0-.37,0.39,0.39,0,0,1,.24.31,0.11,0.11,0,0,0,0,.07s0-.06.05-0.08a0.37,0.37,0,0,0-.28-0.47l-0.18,0a0.66,0.66,0,0,1-.15-0.05c-0.05,0-.16,0-0.14.09a0.22,0.22,0,0,0,.18.11" transform="translate(-1021.95 -371.66)"/>
      <path class="c" d="M1034.61,378.62s0-.17,0-0.14a0.17,0.17,0,0,0-.06.13c0,0.09,0,.18,0,0.27h0.1a0.26,0.26,0,0,0,0-.1,1.36,1.36,0,0,1,0-.16" transform="translate(-1021.95 -371.66)"/>
      <path class="c" d="M1034.37,379a0.07,0.07,0,1,0,.1-0.09h0.1s0,0.06,0,.09h0.1a0.29,0.29,0,0,1,0,.09h-0.11a1.43,1.43,0,0,0,0,.19,0.17,0.17,0,0,1,0,.09,0.31,0.31,0,0,1-.08,0,1,1,0,0,1,0-.16,0.53,0.53,0,0,0,0-.11s0,0-.08,0,0,0,0,0a0.21,0.21,0,0,1,0-.06h0" transform="translate(-1021.95 -371.66)"/>
      <path class="c" d="M1034.83,378.47s0-.16-0.07-0.13a0.08,0.08,0,0,0,0,.08c0,0.08,0,.17,0,0.25a0.35,0.35,0,0,0,0,.13,0.12,0.12,0,0,0,0,0,0.58,0.58,0,0,1,.05.2c0,0.08.06,0.16,0.1,0.24s0-.08.05-0.11a1.13,1.13,0,0,1-.11-0.45c0-.07,0-0.15,0-0.23" transform="translate(-1021.95 -371.66)"/>
      <path class="c" d="M1034,380.77a0.19,0.19,0,0,0,.18,0c0.08-.06,0-0.13-0.11-0.12s-0.14.08-.07,0.13" transform="translate(-1021.95 -371.66)"/>
      <path class="c" d="M1035,380.94l-0.08,0a0.06,0.06,0,0,0-.05,0s0,0.07,0,.09,0.1,0,.12-0.09" transform="translate(-1021.95 -371.66)"/>
      <path d="M1027.13,377a1.31,1.31,0,0,0,0-.48,0.55,0.55,0,0,0-.11-0.23s-0.1-.15-0.17-0.11a1.3,1.3,0,0,0,0,.55,0.14,0.14,0,0,1-.08.16,0.67,0.67,0,0,1-.16.09l0.23,0.05,0.31,0h0" transform="translate(-1021.95 -371.66)"/>
      <path d="M1027.64,376.36a0.59,0.59,0,0,0-.15-0.5,1.65,1.65,0,0,0-.08.69c0,0.13.08,0.37-.09,0.38a3.17,3.17,0,0,1-.08-0.5c-0.05-.17-0.2-0.31-0.24-0.47a2.32,2.32,0,0,1,0-.64,0.83,0.83,0,0,1,0-.26,0.93,0.93,0,0,0,.13-0.3,1.69,1.69,0,0,0-.24,0,0.49,0.49,0,0,1-.09-0.44,4.74,4.74,0,0,1,.16-0.62,1,1,0,0,1,.42-0.68,1,1,0,0,0,0,.26,0.15,0.15,0,0,0,.07.1,0.11,0.11,0,0,0,.1,0,2.18,2.18,0,0,1-.27-0.85,0.5,0.5,0,0,1,.5-0.41c0.25,0,.2.45,0.2,0.63a0.74,0.74,0,0,1-.07.4,0.51,0.51,0,0,0-.14.35h0.06c0.1-.08.12-0.21,0.21-0.29a1.37,1.37,0,0,1,.12.8,2,2,0,0,0-.13.44,5.71,5.71,0,0,1,.15.56c0,0.39.09,0.79,0.08,1.18a3.28,3.28,0,0,0,0,.42,0.56,0.56,0,0,1,0,.25c0,0.09,0,0-.09.09a1.41,1.41,0,0,0-.29.26c-0.05.06-.23,0.24-0.26,0.06a0.68,0.68,0,0,1,.13-0.24,0.15,0.15,0,0,1-.16,0,1.65,1.65,0,0,1,0-.56" transform="translate(-1021.95 -371.66)"/>
      <path class="c" d="M1027.82,372.28a0.09,0.09,0,0,0,.09-0.1,0.07,0.07,0,0,0-.08-0.05,0.21,0.21,0,0,0,0,.15" transform="translate(-1021.95 -371.66)"/>
      <path class="c" d="M1027.93,372.52s0.05-.09,0-0.11a0.09,0.09,0,0,0-.07.11s0.05,0,.07,0" transform="translate(-1021.95 -371.66)"/>
      <path class="c" d="M1027.65,372.44a0.16,0.16,0,0,0-.07-0.12,0.33,0.33,0,0,0-.07.05l-0.07,0h-0.07a0.07,0.07,0,0,0,0,.05,0.6,0.6,0,0,0,.18,0c0.07,0,.08.06,0.09,0.13a0.36,0.36,0,0,1-.13-0.07,0.15,0.15,0,0,0-.11.07,0.92,0.92,0,0,0,.11.26,0.1,0.1,0,0,0,.14,0,0.32,0.32,0,0,0,0,.06,0.54,0.54,0,0,1,0,.18l0.09,0a0.83,0.83,0,0,1,0-.24,0.91,0.91,0,0,0,0-.16,1.88,1.88,0,0,0-.06-0.25" transform="translate(-1021.95 -371.66)"/>
      <path class="c" d="M1027.32,374.05a0.41,0.41,0,0,1,0-.12s0-.06.05-0.1-0.07,0-.11,0a0.59,0.59,0,0,0-.14.28,1.14,1.14,0,0,0,0,.33,0.29,0.29,0,0,0,0,.19h0a0.17,0.17,0,0,1,0,0,0.15,0.15,0,0,0,.07.09c0.09,0,.05-0.14.05-0.18a2.47,2.47,0,0,1,0-.54" transform="translate(-1021.95 -371.66)"/>
      <path class="c" d="M1027.25,373.77a1.64,1.64,0,0,0-.16.29,1.27,1.27,0,0,0-.11.3,2.27,2.27,0,0,0,0,.23,0.4,0.4,0,0,1,0-.27A1,1,0,0,1,1027,374c0-.07.07-0.14,0.11-0.21a0.18,0.18,0,0,1,.08-0.08c0.06,0,0,.07,0,0.1" transform="translate(-1021.95 -371.66)"/>
      <path class="c" d="M1027.44,373.65a0.42,0.42,0,0,1,.13.09,0.45,0.45,0,0,1,0,.45s0,0.05,0,.07,0.14-.12.16-0.17a0.37,0.37,0,0,0,0-.37,0.39,0.39,0,0,1,.23.31,0.1,0.1,0,0,0,0,.07s0-.06.05-0.08a0.37,0.37,0,0,0-.28-0.47l-0.18,0a0.7,0.7,0,0,1-.15-0.05c-0.05,0-.16,0-0.14.09a0.22,0.22,0,0,0,.18.11" transform="translate(-1021.95 -371.66)"/>
      <path class="c" d="M1027.52,374.75s0-.17,0-0.14a0.17,0.17,0,0,0-.06.13c0,0.09,0,.18,0,0.27h0.1a0.32,0.32,0,0,0,0-.1,1,1,0,0,1,0-.16" transform="translate(-1021.95 -371.66)"/>
      <path class="c" d="M1027.29,375.17a0.13,0.13,0,0,0,.11,0,0.13,0.13,0,0,0,0-.09h0.1s0,0.06,0,.09h0.1a0.29,0.29,0,0,1,0,.09h-0.11a1.91,1.91,0,0,0,0,.19,0.19,0.19,0,0,1,0,.09,0.25,0.25,0,0,1-.08,0,0.83,0.83,0,0,1,0-.16,0.53,0.53,0,0,0,0-.11s0,0-.08,0,0,0,0,0,0,0,0-.06h0" transform="translate(-1021.95 -371.66)"/>
      <path class="c" d="M1027.75,374.6s0-.16-0.07-0.13,0,0,0,.08,0,0.16,0,.25a0.35,0.35,0,0,0,0,.13,0.19,0.19,0,0,0,0,0,0.61,0.61,0,0,1,.05.19,2.58,2.58,0,0,0,.1.24s0-.08.05-0.1a1.1,1.1,0,0,1-.11-0.45c0-.07,0-0.15,0-0.23" transform="translate(-1021.95 -371.66)"/>
      <path class="c" d="M1026.88,376.9a0.19,0.19,0,0,0,.18,0c0.08-.06-0.05-0.13-0.11-0.12s-0.14.08-.07,0.13" transform="translate(-1021.95 -371.66)"/>
      <path class="c" d="M1028,377.07l-0.07,0a0.07,0.07,0,0,0-.05,0s0,0.07,0,.09,0.1,0,.12-0.09" transform="translate(-1021.95 -371.66)"/>
      <path d="M1041.3,384.7a1.27,1.27,0,0,0,0-.48,0.55,0.55,0,0,0-.11-0.23s-0.1-.15-0.17-0.11a1.3,1.3,0,0,0,0,.55,0.14,0.14,0,0,1-.08.16l-0.17.09,0.23,0.05,0.31,0h0" transform="translate(-1021.95 -371.66)"/>
      <path d="M1041.81,384.09a0.59,0.59,0,0,0-.15-0.5,1.69,1.69,0,0,0-.08.69c0,0.13.08,0.37-.09,0.38a3.35,3.35,0,0,1-.08-0.5c-0.05-.17-0.2-0.32-0.24-0.47a2.32,2.32,0,0,1,0-.64,0.83,0.83,0,0,1,0-.26,0.94,0.94,0,0,0,.13-0.3,1.66,1.66,0,0,0-.24,0A0.5,0.5,0,0,1,1041,382a4.67,4.67,0,0,1,.16-0.62,1,1,0,0,1,.42-0.69,1,1,0,0,0,0,.26,0.15,0.15,0,0,0,.07.1,0.11,0.11,0,0,0,.1,0,2.22,2.22,0,0,1-.27-0.85,0.5,0.5,0,0,1,.5-0.41c0.25,0,.2.45,0.2,0.64a0.71,0.71,0,0,1-.07.4,0.51,0.51,0,0,0-.14.35H1042c0.1-.08.12-0.21,0.21-0.3a1.39,1.39,0,0,1,.12.8,1.9,1.9,0,0,0-.13.44,5.71,5.71,0,0,1,.15.56c0,0.39.09,0.79,0.08,1.18a3.28,3.28,0,0,0,0,.42,0.55,0.55,0,0,1,0,.25c0,0.09,0,0-.09.09a1.6,1.6,0,0,0-.29.26c-0.05.06-.23,0.24-0.26,0.06a0.71,0.71,0,0,1,.13-0.24,0.15,0.15,0,0,1-.16,0,1.61,1.61,0,0,1,0-.57" transform="translate(-1021.95 -371.66)"/>
      <path class="c" d="M1042,380a0.09,0.09,0,0,0,.09-0.1,0.07,0.07,0,0,0-.08-0.05,0.2,0.2,0,0,0,0,.15" transform="translate(-1021.95 -371.66)"/>
      <path class="c" d="M1042.09,380.25s0-.1,0-0.11a0.09,0.09,0,0,0-.07.11s0.05,0,.07,0" transform="translate(-1021.95 -371.66)"/>
      <path class="c" d="M1041.81,380.17a0.16,0.16,0,0,0-.07-0.12,0.27,0.27,0,0,0-.07.05l-0.07,0h-0.07s0,0,0,.05a0.67,0.67,0,0,0,.18,0c0.08,0,.08.06,0.09,0.13a0.36,0.36,0,0,1-.13-0.07,0.14,0.14,0,0,0-.11.07,0.92,0.92,0,0,0,.11.26,0.1,0.1,0,0,0,.14,0,0.21,0.21,0,0,0,0,.06,0.51,0.51,0,0,1,0,.18l0.09,0a0.76,0.76,0,0,1,0-.24,0.91,0.91,0,0,0,0-.16,1.83,1.83,0,0,0-.07-0.25" transform="translate(-1021.95 -371.66)"/>
      <path class="c" d="M1041.49,381.79a0.4,0.4,0,0,1,0-.12s0-.06.05-0.1a0.07,0.07,0,0,0-.11,0,0.61,0.61,0,0,0-.14.28,1.07,1.07,0,0,0,0,.33,0.28,0.28,0,0,0,0,.19h0a0.14,0.14,0,0,1,0,0,0.15,0.15,0,0,0,.07.09c0.09,0,.05-0.14.05-0.18a2.62,2.62,0,0,1,0-.54" transform="translate(-1021.95 -371.66)"/>
      <path class="c" d="M1041.42,381.51a1.87,1.87,0,0,0-.16.29,1.28,1.28,0,0,0-.11.3c0,0.08,0,.15,0,0.23a0.39,0.39,0,0,1,0-.27,1,1,0,0,1,.11-0.36c0-.07.07-0.14,0.11-0.21a0.18,0.18,0,0,1,.08-0.08c0.06,0,0,.07,0,0.1" transform="translate(-1021.95 -371.66)"/>
      <path class="c" d="M1041.6,381.39a0.39,0.39,0,0,1,.13.09,0.44,0.44,0,0,1,0,.44s0,0.05,0,.07,0.14-.12.16-0.17a0.37,0.37,0,0,0,0-.37,0.38,0.38,0,0,1,.24.31,0.1,0.1,0,0,0,0,.07s0-.06.05-0.08a0.37,0.37,0,0,0-.28-0.47l-0.18,0a0.68,0.68,0,0,1-.15-0.05c-0.05,0-.16,0-0.14.09a0.22,0.22,0,0,0,.18.11" transform="translate(-1021.95 -371.66)"/>
      <path class="c" d="M1041.69,382.49s0-.17,0-0.14a0.18,0.18,0,0,0-.06.13c0,0.09,0,.18,0,0.27h0.1a0.32,0.32,0,0,0,0-.1,1.37,1.37,0,0,1,0-.16" transform="translate(-1021.95 -371.66)"/>
      <path class="c" d="M1041.46,382.91a0.14,0.14,0,0,0,.11,0,0.11,0.11,0,0,0,0-.09h0.1s0,0.06,0,.09h0.1a0.25,0.25,0,0,1,0,.09h-0.1a1.42,1.42,0,0,0,0,.19,0.2,0.2,0,0,1,0,.09,0.33,0.33,0,0,1-.08,0,1,1,0,0,1,0-.16,0.54,0.54,0,0,0,0-.11s0,0-.08,0,0,0,0,0,0,0,0-.06h0" transform="translate(-1021.95 -371.66)"/>
      <path class="c" d="M1041.91,382.33s0-.16-0.07-0.13,0,0,0,.08,0,0.17,0,.25a0.36,0.36,0,0,0,0,.13,0.13,0.13,0,0,0,0,0,0.58,0.58,0,0,1,.05.2c0,0.08.06,0.16,0.1,0.24s0-.08.05-0.11a1.12,1.12,0,0,1-.11-0.45c0-.08,0-0.15,0-0.23" transform="translate(-1021.95 -371.66)"/>
      <path class="c" d="M1041,384.64a0.19,0.19,0,0,0,.18,0c0.08-.06-0.05-0.13-0.11-0.12s-0.14.08-.07,0.13" transform="translate(-1021.95 -371.66)"/>
      <path class="c" d="M1042.12,384.81l-0.07,0a0.07,0.07,0,0,0-.05,0s0,0.07,0,.09,0.1,0,.12-0.09" transform="translate(-1021.95 -371.66)"/>
      <path class="c" d="M1027.42,382.65a1.64,1.64,0,0,0,.15.64,1.14,1.14,0,0,0-.58-0.11c-0.26.11-.15,0.5-0.15,0.7a0.65,0.65,0,0,1-.06.29,0.62,0.62,0,0,1-.77.41c-0.07,0-.11,0-0.09-0.09a1.94,1.94,0,0,1,.22-0.22,0.34,0.34,0,0,0,.05-0.2,0.4,0.4,0,0,1,0-.31,0.46,0.46,0,0,0,.1-0.42,0.19,0.19,0,0,0-.3-0.11c-0.12.06-.19,0.2-0.31,0.27s-0.33,0-.5.09a0.32,0.32,0,0,0-.21.27,0.53,0.53,0,0,1,0-.74,1.18,1.18,0,0,1,.66-0.28,0.4,0.4,0,0,0,.26-0.09c0.09-.08.19-0.15,0.27-0.23a0.35,0.35,0,0,0,.07-0.34c0-.09,0-0.18,0-0.27a1.08,1.08,0,0,0-.2-0.39l-0.12-.14-0.2-.19a1,1,0,0,1-.19-0.07,0.32,0.32,0,0,1-.16.37c-0.07.06-.16,0.14,0,0.2a0.62,0.62,0,0,1,.23.07,0.2,0.2,0,0,1,0,.26,0.3,0.3,0,0,1-.23.08,0.33,0.33,0,0,1-.19-0.17,0.15,0.15,0,0,0-.22,0,0.29,0.29,0,0,0,.08.2c0.06,0.09.2,0.21,0.07,0.3a0.26,0.26,0,0,1-.31-0.12,0.38,0.38,0,0,1,0-.44c0-.11.14-0.16,0.19-0.26a0.78,0.78,0,0,0,.1-0.39c0-.11-0.11-0.11-0.16,0a0.37,0.37,0,0,0,0,.14,1.22,1.22,0,0,1-.07.24,1.15,1.15,0,0,1-.41.52,0.46,0.46,0,0,1-.5.11,0.14,0.14,0,0,1,0-.18,0.8,0.8,0,0,1,.21-0.07,1.23,1.23,0,0,0,.24-0.2,0.47,0.47,0,0,0,.21-0.2c0-.08,0-0.09-0.12-0.08a1.08,1.08,0,0,0-.39.26l-0.26.18a0.58,0.58,0,0,1-.41.09,0.23,0.23,0,0,1-.19-0.34,0.21,0.21,0,0,1,.17-0.09s0.11,0,.14,0a0.17,0.17,0,0,1,.05-0.31,0.31,0.31,0,0,0,.24,0c-0.07-.17,0-0.23.16-0.29s0.1,0,0-.12a0.51,0.51,0,0,1-.06-0.24,0.86,0.86,0,0,1,0-.29,0.71,0.71,0,0,1,.21-0.28,1.34,1.34,0,0,0,.25-0.18,1.49,1.49,0,0,0-.15-0.13s0-.26,0-0.27a1.27,1.27,0,0,1,.3.12c0.08,0.06.12,0.17,0.21,0.22s0.38-.14.53-0.26,0.35-.32.54-0.46,0.31-.19.31,0a0.41,0.41,0,0,1-.12.16,1,1,0,0,0-.21.26c-0.08.17,0.05,0.27,0.22,0.29a0.68,0.68,0,0,0,.45-0.14,0.66,0.66,0,0,1,.4-0.19,0.17,0.17,0,0,1,.13.13,0.68,0.68,0,0,0-.29.38,0.32,0.32,0,0,0,.45.34,1.38,1.38,0,0,1,.57,0c0.07,0,.24.12,0.13,0.22s-0.16,0-.21,0c-0.38.21,0,.5,0.2,0.64a1.59,1.59,0,0,1,.42.22,1.9,1.9,0,0,1-.27.1,0.46,0.46,0,0,0-.27.16,0.4,0.4,0,0,0,.11.53,0.68,0.68,0,0,0-.46.55m-3-2c0.15,0.17.38-.2,0.16-0.24a0.15,0.15,0,0,0-.16.24m0.72-.41a1.88,1.88,0,0,0,.45,0,0.56,0.56,0,0,1,.3.06,0.52,0.52,0,0,1-.16.17,0.17,0.17,0,0,0-.1.19,0.42,0.42,0,0,0,.32.19,1.53,1.53,0,0,1,.39.26,1.77,1.77,0,0,1,.23.28,0.5,0.5,0,0,1,.12.31,3,3,0,0,1-.11.88,0.93,0.93,0,0,0-.06.42,0.3,0.3,0,0,0,.23,0,0.81,0.81,0,0,0,.38-0.34,1.74,1.74,0,0,0,.3-1.07,1.32,1.32,0,0,0-.6-1.14,2,2,0,0,0-.82-0.35c-0.22,0-.45,0-0.68-0.09l-0.27-.05a0.38,0.38,0,0,0-.26,0,0.41,0.41,0,0,0,.24.29l0.1,0" transform="translate(-1021.95 -371.66)"/>
      <path class="c" d="M1025.17,380.2c0.08,0.06.24-.08,0.08-0.1s-0.17,0-.08.1" transform="translate(-1021.95 -371.66)"/>
      <path class="c" d="M1025.52,380.17c0,0.1.3,0,.21,0a0.33,0.33,0,0,0-.21,0" transform="translate(-1021.95 -371.66)"/>
      <path class="c" d="M1025.91,380.28c0,0.11.31,0.12,0.2,0s-0.23-.12-0.2,0" transform="translate(-1021.95 -371.66)"/>
      <path class="c" d="M1025.9,380.57s0.27,0.13.32,0-0.15-.14-0.21-0.12a0.17,0.17,0,0,0-.11.11" transform="translate(-1021.95 -371.66)"/>
      <path class="c" d="M1025.73,380.74a0.22,0.22,0,0,0,.21,0c0-.05,0-0.12-0.08-0.12s-0.17.09-.13,0.11" transform="translate(-1021.95 -371.66)"/>
      <path class="c" d="M1026,380.79c0,0.08.24,0.11,0.25,0s-0.24-.18-0.25,0" transform="translate(-1021.95 -371.66)"/>
      <path class="c" d="M1026.71,380.85a0.35,0.35,0,0,0-.28-0.25c-0.09,0-.17.07-0.09,0.15l0.18,0.13s0,0.07.08,0.09,0.14,0,.11-0.12" transform="translate(-1021.95 -371.66)"/>
      <path class="c" d="M1026.48,380.4s-0.18-.09-0.21-0.07,0.12,0.2.21,0.07" transform="translate(-1021.95 -371.66)"/>
      <path class="c" d="M1026.84,380.73c0.19-.15-0.29-0.23-0.25-0.14a0.4,0.4,0,0,0,.25.14" transform="translate(-1021.95 -371.66)"/>
      <path class="c" d="M1026.53,381.09c0-.14-0.25-0.22-0.22-0.1a0.22,0.22,0,0,0,.14.11c0.06,0,.12-0.05.05-0.09" transform="translate(-1021.95 -371.66)"/>
      <path class="c" d="M1026.6,381.31c0.09,0,.05-0.08,0-0.11s-0.12,0-.11,0a0.18,0.18,0,0,0,.1.12" transform="translate(-1021.95 -371.66)"/>
      <path class="c" d="M1026.87,381.24c0.07,0,.14,0,0.1-0.09a0.19,0.19,0,0,0-.15-0.09c-0.1,0-.2.05-0.1,0.15a0.15,0.15,0,0,0,.15,0" transform="translate(-1021.95 -371.66)"/>
      <path class="c" d="M1026.89,380.91s0.13,0.17.2,0.12,0-.12,0-0.16-0.23-.1-0.17,0" transform="translate(-1021.95 -371.66)"/>
      <path class="c" d="M1027.21,381.16l0,0c-0.08,0-.1.05-0.08,0.11a0.57,0.57,0,0,0,.09.17c0.07,0.06.09,0,.09-0.09a0.25,0.25,0,0,0-.06-0.17" transform="translate(-1021.95 -371.66)"/>
      <path class="c" d="M1026.94,381.43c0,0.14.2,0.16,0.11,0s-0.12-.13-0.11,0" transform="translate(-1021.95 -371.66)"/>
      <path class="c" d="M1026.73,381.5c-0.06.1,0.09,0.19,0.11,0.08s-0.06-.17-0.11-0.08" transform="translate(-1021.95 -371.66)"/>
      <path class="c" d="M1026.91,381.63c-0.12.11,0.09,0.35,0.14,0.2s0-.29-0.14-0.2" transform="translate(-1021.95 -371.66)"/>
      <path class="c" d="M1027.19,381.72c0.18,0.35.14-.24,0-0.14s0,0.1,0,.14" transform="translate(-1021.95 -371.66)"/>
      <path class="c" d="M1026.89,381.91c0-.16-0.17,0-0.1.1s0.11-.08.07-0.12" transform="translate(-1021.95 -371.66)"/>
      <path class="c" d="M1027.21,382.15c0.11,0,.09-0.16,0-0.21s-0.17.18,0,.21" transform="translate(-1021.95 -371.66)"/>
      <path class="c" d="M1027,382.23c0.08,0,.09-0.19,0-0.16s-0.08.17,0,.16" transform="translate(-1021.95 -371.66)"/>
      <path class="c" d="M1027.15,382.42c0.07,0,.11-0.16,0-0.19s-0.16.19,0,.19" transform="translate(-1021.95 -371.66)"/>
      <path class="c" d="M1026.71,382.23c-0.06.12,0,.15,0.1,0s0-.16-0.1,0" transform="translate(-1021.95 -371.66)"/>
      <path class="c" d="M1027,382.37c-0.07,0-.15.08-0.09,0.13s0.12-.1.08-0.14" transform="translate(-1021.95 -371.66)"/>
      <path class="c" d="M1026.64,382.54c0,0.13.12,0.07,0.11,0s-0.09-.05-0.11,0" transform="translate(-1021.95 -371.66)"/>
      <path class="c" d="M1027,382.75c0.08,0,.15-0.13.07-0.17s-0.18.15-.07,0.17" transform="translate(-1021.95 -371.66)"/>
      <path class="c" d="M1045,376.21a1.63,1.63,0,0,0,.15.63,1.11,1.11,0,0,0-.58-0.11c-0.26.1-.15,0.5-0.14,0.7a0.67,0.67,0,0,1-.06.29,0.61,0.61,0,0,1-.77.41c-0.07,0-.11,0-0.09-0.08a1.56,1.56,0,0,1,.22-0.22,0.36,0.36,0,0,0,.05-0.2,0.4,0.4,0,0,1,0-.31,0.46,0.46,0,0,0,.1-0.42,0.19,0.19,0,0,0-.3-0.1c-0.12.06-.19,0.2-0.31,0.27s-0.33,0-.5.09a0.33,0.33,0,0,0-.21.27,0.53,0.53,0,0,1,0-.74,1.16,1.16,0,0,1,.66-0.28,0.41,0.41,0,0,0,.26-0.09c0.09-.08.19-0.15,0.27-0.24a0.34,0.34,0,0,0,.07-0.34,2.53,2.53,0,0,0,0-.27,1.06,1.06,0,0,0-.2-0.39l-0.12-.14-0.2-.19a1.35,1.35,0,0,1-.19-0.07,0.33,0.33,0,0,1-.16.37c-0.07.06-.16,0.14,0,0.2a0.59,0.59,0,0,1,.23.07,0.19,0.19,0,0,1,0,.26,0.31,0.31,0,0,1-.23.09,0.34,0.34,0,0,1-.19-0.17s-0.18-.08-0.22,0a0.28,0.28,0,0,0,.08.2c0.06,0.09.2,0.2,0.07,0.3a0.25,0.25,0,0,1-.32-0.12,0.38,0.38,0,0,1,0-.44c0-.11.14-0.16,0.19-0.26a0.78,0.78,0,0,0,.1-0.39c0-.11-0.11-0.11-0.16,0a0.36,0.36,0,0,0,0,.14,1.26,1.26,0,0,1-.49.76,0.46,0.46,0,0,1-.5.11,0.14,0.14,0,0,1,0-.18,0.75,0.75,0,0,1,.21-0.07,1.3,1.3,0,0,0,.24-0.2,0.47,0.47,0,0,0,.21-0.2c0-.08,0-0.1-0.12-0.09a1.06,1.06,0,0,0-.39.26l-0.26.18a0.57,0.57,0,0,1-.41.09,0.23,0.23,0,0,1-.2-0.34,0.2,0.2,0,0,1,.17-0.09s0.11,0,.14,0a0.17,0.17,0,0,1,.05-0.31,0.3,0.3,0,0,0,.24,0c-0.07-.17,0-0.23.16-0.29s0.1,0,0-.12a0.5,0.5,0,0,1-.06-0.24,0.81,0.81,0,0,1,0-.29,0.7,0.7,0,0,1,.21-0.28,1.21,1.21,0,0,0,.25-0.18,1.73,1.73,0,0,0-.15-0.13s0-.26,0-0.27a1.2,1.2,0,0,1,.3.12c0.08,0.06.12,0.17,0.21,0.22s0.38-.14.53-0.26,0.35-.32.55-0.46,0.31-.19.31,0a0.39,0.39,0,0,1-.12.16,1.09,1.09,0,0,0-.21.26c-0.08.17,0.05,0.27,0.22,0.29a0.68,0.68,0,0,0,.45-0.14,0.66,0.66,0,0,1,.4-0.19,0.17,0.17,0,0,1,.13.12,0.67,0.67,0,0,0-.28.39,0.32,0.32,0,0,0,.44.34,1.35,1.35,0,0,1,.57,0c0.07,0,.24.12,0.13,0.21s-0.16,0-.21,0c-0.37.21,0,.5,0.21,0.64a1.64,1.64,0,0,1,.42.22,1.52,1.52,0,0,1-.27.1,0.47,0.47,0,0,0-.27.16,0.4,0.4,0,0,0,.11.53,0.68,0.68,0,0,0-.46.55m-3-2c0.15,0.17.38-.19,0.15-0.24a0.15,0.15,0,0,0-.15.24m0.71-.41a1.88,1.88,0,0,0,.45,0,0.55,0.55,0,0,1,.3.06,0.57,0.57,0,0,1-.16.17,0.17,0.17,0,0,0-.09.19,0.41,0.41,0,0,0,.32.19,1.47,1.47,0,0,1,.39.26,1.75,1.75,0,0,1,.23.28,0.51,0.51,0,0,1,.13.31,3,3,0,0,1-.12.88,0.9,0.9,0,0,0-.06.42,0.31,0.31,0,0,0,.23,0,0.8,0.8,0,0,0,.38-0.34,1.73,1.73,0,0,0,.3-1.07,1.33,1.33,0,0,0-.6-1.14,2,2,0,0,0-.82-0.35c-0.22,0-.45,0-0.67-0.08l-0.27-.05a0.38,0.38,0,0,0-.26,0,0.42,0.42,0,0,0,.24.29l0.09,0" transform="translate(-1021.95 -371.66)"/>
      <path class="c" d="M1042.78,373.76c0.08,0.06.24-.08,0.09-0.1s-0.18,0-.09.1" transform="translate(-1021.95 -371.66)"/>
      <path class="c" d="M1043.12,373.73c0,0.1.29,0,.21,0a0.32,0.32,0,0,0-.21,0" transform="translate(-1021.95 -371.66)"/>
      <path class="c" d="M1043.52,373.85c0,0.11.31,0.12,0.21,0s-0.23-.12-0.21,0" transform="translate(-1021.95 -371.66)"/>
      <path class="c" d="M1043.51,374.13s0.27,0.13.32,0-0.15-.14-0.21-0.12a0.16,0.16,0,0,0-.11.11" transform="translate(-1021.95 -371.66)"/>
      <path class="c" d="M1043.34,374.31a0.22,0.22,0,0,0,.21,0c0-.06,0-0.12-0.08-0.12s-0.17.09-.13,0.11" transform="translate(-1021.95 -371.66)"/>
      <path class="c" d="M1043.61,374.35c0,0.08.25,0.11,0.25,0s-0.24-.17-0.25,0" transform="translate(-1021.95 -371.66)"/>
      <path class="c" d="M1044.32,374.42a0.36,0.36,0,0,0-.28-0.25c-0.09,0-.17.07-0.09,0.15l0.18,0.13s0,0.07.08,0.1,0.14,0,.11-0.12" transform="translate(-1021.95 -371.66)"/>
      <path class="c" d="M1044.08,374s-0.18-.09-0.21-0.07,0.12,0.2.21,0.07" transform="translate(-1021.95 -371.66)"/>
      <path class="c" d="M1044.44,374.29c0.2-.15-0.28-0.23-0.25-0.14a0.39,0.39,0,0,0,.25.14" transform="translate(-1021.95 -371.66)"/>
      <path class="c" d="M1044.13,374.66c0-.14-0.25-0.22-0.23-0.1a0.23,0.23,0,0,0,.14.11c0.06,0,.12-0.05.05-0.09" transform="translate(-1021.95 -371.66)"/>
      <path class="c" d="M1044.21,374.87c0.08,0,0-.08,0-0.11s-0.13,0-.11,0a0.17,0.17,0,0,0,.1.11" transform="translate(-1021.95 -371.66)"/>
      <path class="c" d="M1044.47,374.8c0.07,0,.15,0,0.1-0.09a0.18,0.18,0,0,0-.15-0.09c-0.1,0-.2.05-0.1,0.15a0.14,0.14,0,0,0,.15,0" transform="translate(-1021.95 -371.66)"/>
      <path class="c" d="M1044.49,374.47c0,0.05.13,0.17,0.2,0.13s0-.12,0-0.16-0.23-.1-0.17,0" transform="translate(-1021.95 -371.66)"/>
      <path class="c" d="M1044.81,374.72l0,0c-0.08,0-.1.05-0.08,0.11a0.52,0.52,0,0,0,.09.17c0.07,0.06.09,0,.09-0.09a0.26,0.26,0,0,0-.06-0.17" transform="translate(-1021.95 -371.66)"/>
      <path class="c" d="M1044.54,375c0,0.14.2,0.16,0.11,0s-0.12-.13-0.11,0" transform="translate(-1021.95 -371.66)"/>
      <path class="c" d="M1044.33,375.06c-0.06.1,0.09,0.19,0.12,0.08s-0.06-.17-0.12-0.08" transform="translate(-1021.95 -371.66)"/>
      <path class="c" d="M1044.52,375.19c-0.12.11,0.08,0.35,0.13,0.2s0-.29-0.13-0.2" transform="translate(-1021.95 -371.66)"/>
      <path class="c" d="M1044.79,375.28c0.18,0.35.14-.24,0-0.14s0,0.1,0,.14" transform="translate(-1021.95 -371.66)"/>
      <path class="c" d="M1044.49,375.47c0-.16-0.17,0-0.1.1s0.11-.08.07-0.12" transform="translate(-1021.95 -371.66)"/>
      <path class="c" d="M1044.81,375.71c0.11,0,.09-0.16,0-0.21s-0.17.19,0,.21" transform="translate(-1021.95 -371.66)"/>
      <path class="c" d="M1044.58,375.79c0.08,0,.09-0.19,0-0.16s-0.08.17,0,.16" transform="translate(-1021.95 -371.66)"/>
      <path class="c" d="M1044.76,376a0.11,0.11,0,0,0,0-.19c-0.08,0-.16.19,0,0.19" transform="translate(-1021.95 -371.66)"/>
      <path class="c" d="M1044.32,375.79c-0.07.12,0,.15,0.1,0s0-.15-0.1,0" transform="translate(-1021.95 -371.66)"/>
      <path class="c" d="M1044.6,375.93c-0.07,0-.15.08-0.09,0.13s0.12-.1.08-0.14" transform="translate(-1021.95 -371.66)"/>
      <path class="c" d="M1044.25,376.1c0,0.13.12,0.07,0.11,0s-0.09,0-.11,0" transform="translate(-1021.95 -371.66)"/>
      <path class="c" d="M1044.58,376.32c0.07,0,.15-0.13.07-0.17s-0.18.15-.07,0.17" transform="translate(-1021.95 -371.66)"/>
    </g>
  </g>
</svg>
