<svg xmlns="http://www.w3.org/2000/svg" xmlns:xlink="http://www.w3.org/1999/xlink" viewBox="0 0 58.92 34.37">
  <defs>
    <style>
      .a {
        fill: none;
      }

      .b {
        clip-path: url(#a);
      }

      .c {
        fill: #3c9242;
      }

      .d {
        fill: #fff;
      }

      .e {
        fill: #c6001e;
      }
    </style>
    <clipPath id="a" transform="translate(-951.02 -432.24)">
      <rect class="a" x="951.02" y="432.24" width="58.92" height="34.37"/>
    </clipPath>
  </defs>
  <title>Ingushetia</title>
  <g class="b">
    <rect class="c" width="58.92" height="34.37"/>
    <rect class="d" y="5.73" width="58.92" height="22.91"/>
    <g class="b">
      <path class="e" d="M980.12,457.17a6.25,6.25,0,1,1,6.25-6.25,6.26,6.26,0,0,1-6.25,6.25h0Zm0-9.37a3.12,3.12,0,1,0,3.13,3.12,3.13,3.13,0,0,0-3.12-3.12h0Z" transform="translate(-951.02 -432.24)"/>
      <path class="e" d="M980.13,446.39v-1.72a1.38,1.38,0,1,0-1.09-2.22l-1.35-1.06a3.1,3.1,0,1,1,2.44,5h0Z" transform="translate(-951.02 -432.24)"/>
      <path class="e" d="M979.22,441.92a0.86,0.86,0,1,1-.86-0.86,0.86,0.86,0,0,1,.86.86h0Z" transform="translate(-951.02 -432.24)"/>
      <path class="e" d="M986.71,457.82a3.06,3.06,0,0,1-1.54-.41,3.1,3.1,0,0,1-1.14-4.22l1.49,0.85a1.38,1.38,0,0,0,.5,1.88,1.38,1.38,0,0,0,1.88-.5,1.37,1.37,0,0,0,.09-1.2l1.6-.64a3.1,3.1,0,0,1-2.07,4.14,3.2,3.2,0,0,1-.81.11h0Z" transform="translate(-951.02 -432.24)"/>
      <path class="e" d="M988.37,454.64a0.86,0.86,0,1,1,1.17-.31,0.86,0.86,0,0,1-1.17.31h0Z" transform="translate(-951.02 -432.24)"/>
      <path class="e" d="M973.09,457.79a3.09,3.09,0,1,1,3.11-4.62l-1.48.87a1.38,1.38,0,0,0-1.88-.5,1.38,1.38,0,0,0-.5,1.88,1.38,1.38,0,0,0,1,.68l-0.25,1.7h0Z" transform="translate(-951.02 -432.24)"/>
      <path class="e" d="M972.78,456.2a0.86,0.86,0,1,1-.31,1.17,0.86,0.86,0,0,1,.31-1.17h0Z" transform="translate(-951.02 -432.24)"/>
    </g>
  </g>
</svg>
