<svg xmlns="http://www.w3.org/2000/svg" xmlns:xlink="http://www.w3.org/1999/xlink" viewBox="0 0 58.92 34.37">
  <defs>
    <style>
      .a {
        fill: none;
      }

      .b {
        clip-path: url(#a);
      }

      .c {
        fill: #d50037;
      }

      .d {
        clip-path: url(#d);
      }

      .e {
        fill: #f2dd30;
      }

      .f {
        fill: #fff;
      }

      .g {
        fill: #f8e72b;
      }

      .h {
        clip-path: url(#e);
      }

      .i {
        clip-path: url(#f);
      }

      .j {
        clip-path: url(#g);
      }
    </style>
    <clipPath id="a" transform="translate(-104.81 -489.83)">
      <rect class="a" x="104.81" y="489.83" width="58.92" height="34.37"/>
    </clipPath>
    <clipPath id="d" transform="translate(-104.81 -489.83)">
      <rect class="a" x="134.8" y="512.92" width="1.68" height="1.91"/>
    </clipPath>
    <clipPath id="e" transform="translate(-104.81 -489.83)">
      <rect class="a" x="138.9" y="500.44" width="1.52" height="1.9"/>
    </clipPath>
    <clipPath id="f" transform="translate(-104.81 -489.83)">
      <rect class="a" x="125.54" y="503.89" width="1.95" height="1.33"/>
    </clipPath>
    <clipPath id="g" transform="translate(-104.81 -489.83)">
      <rect class="a" x="132.16" y="504.91" width="3.45" height="3.43"/>
    </clipPath>
  </defs>
  <title>Isle_of_Man</title>
  <g class="b">
    <g class="b">
      <rect class="c" width="58.92" height="34.37"/>
      <g class="b">
        <g class="d">
          <path class="e" d="M135.24,514.28a2.12,2.12,0,0,0,0-.34s-0.47-.54-0.46-0.54,0.59,0.13.59,0.11,0.23-.57.23-0.58l0.28,0.67,0.57,0.25-0.4.33,0.09,0.65-0.4-.38-0.44.05a1.51,1.51,0,0,0-.08-0.22h0Z" transform="translate(-104.81 -489.83)"/>
        </g>
        <path d="M136.16,514.87a1.92,1.92,0,0,1-.43-0.4l-0.41.06a2,2,0,0,1-.12-0.24c0-.07,0-0.33,0-0.36a5.39,5.39,0,0,1-.46-0.55c0.05,0,.05,0,0.15,0l0.46,0.09a3.53,3.53,0,0,1,.13-0.34l0.09-.21a0,0,0,0,1,.07,0h0v0a6,6,0,0,1,.28.64l0.62,0.26-0.46.38s0.1,0.61.1,0.62v0h0Zm-0.41-.47s0.23,0.21.35,0.32l-0.08-.54,0.37-.33-0.51-.22s-0.18-.41-0.26-0.6l0,0.12c-0.06.15-.13,0.33-0.14,0.36a1.28,1.28,0,0,1-.53-0.05l0.38,0.44a1.14,1.14,0,0,1,0,.37h0a0.67,0.67,0,0,1,.08.21l0.4-.08h0Z" transform="translate(-104.81 -489.83)"/>
        <path class="f" d="M132.13,505.83a16.56,16.56,0,0,0-2,2.13,3.86,3.86,0,0,1-.84,1.17,1.12,1.12,0,0,0-.51,1,1.88,1.88,0,0,0,.44,1.05,0.64,0.64,0,0,0,.44.25,1.38,1.38,0,0,1,.54.21,10.85,10.85,0,0,0,2.41,2.13,3.43,3.43,0,0,1,.89.62,1.61,1.61,0,0,1,.14,1l-0.54,2c-0.09.55,0.39,0.43,0.42,0.32,0.22-.28.54-0.08,1-1.71l0.64-.86a1.1,1.1,0,0,0,.24-0.12c0.37-.45.09-0.7-0.12-0.78l-0.46-.17s-0.54-.54-0.56-0.54a9.79,9.79,0,0,0-1.8-2.55,2.16,2.16,0,0,0-.49-0.42l-0.57-.26c-0.15-.06,0-0.22.05-0.3,1-.54,1.78-1.14,2.74-1.75l0.15-.1-0.34-2-1.59-.56-0.22.17h0Z" transform="translate(-104.81 -489.83)"/>
        <path d="M133.27,517.88h0a0.26,0.26,0,0,1-.2-0.09,0.46,0.46,0,0,1-.06-0.38l0.54-2a1.53,1.53,0,0,0-.14-1,3.44,3.44,0,0,0-.88-0.6l-0.27-.2a9.64,9.64,0,0,1-2.15-1.95,0.41,0.41,0,0,1-.13-0.06,0.82,0.82,0,0,0-.38-0.13,0.68,0.68,0,0,1-.47-0.26l-0.09-.14a1.63,1.63,0,0,1-.36-0.94,1.16,1.16,0,0,1,.53-1,3.77,3.77,0,0,0,.82-1.15,16.4,16.4,0,0,1,2.07-2.15l0.06-.05,0.15-.12,1.63,0.56,0.37,2-0.16.14-0.93.62c-0.59.4-1.15,0.78-1.81,1.14a0.25,0.25,0,0,0-.1.17l0.57,0.29a2.09,2.09,0,0,1,.55.45,9.71,9.71,0,0,1,1.81,2.56h0a5.85,5.85,0,0,1,.56.53l0.45,0.16a0.52,0.52,0,0,1,.32.32,0.6,0.6,0,0,1-.18.53s0,0-.26.14l-0.62.84a2.3,2.3,0,0,1-.84,1.57,0.7,0.7,0,0,0-.17.14,0.25,0.25,0,0,1-.23.11h0Zm-0.94-12.18a0.45,0.45,0,0,1-.11.11l-0.07.06a16.65,16.65,0,0,0-2,2.13,3.83,3.83,0,0,1-.84,1.17,1.08,1.08,0,0,0-.5,1,1.56,1.56,0,0,0,.35.9l0.09,0.13a0.6,0.6,0,0,0,.41.22,0.89,0.89,0,0,1,.42.15l0.13,0.07a9.76,9.76,0,0,0,2.15,1.94l0.27,0.2a3.42,3.42,0,0,1,.9.63,1.62,1.62,0,0,1,.15,1l-0.54,2a0.38,0.38,0,0,0,0,.3,0.17,0.17,0,0,0,.13.06h0a0.19,0.19,0,0,0,.16-0.06,0.68,0.68,0,0,1,.19-0.18,2.27,2.27,0,0,0,.81-1.54l0.64-.87,0.25-.12a0.53,0.53,0,0,0,.16-0.46,0.42,0.42,0,0,0-.27-0.26l-0.46-.17c-0.21-.2-0.53-0.52-0.57-0.54a10.07,10.07,0,0,0-1.81-2.56,2.14,2.14,0,0,0-.49-0.42l-0.56-.25a0.15,0.15,0,0,1-.1-0.12,0.33,0.33,0,0,1,.14-0.26c0.66-.36,1.22-0.74,1.81-1.14l0.93-.62,0.15-.1-0.36-1.91-1.56-.53h0Z" transform="translate(-104.81 -489.83)"/>
        <path class="e" d="M133.46,516.13s1-.2,1-0.2-0.12.37-.12,0.37l-1,.29Z" transform="translate(-104.81 -489.83)"/>
        <path d="M130.92,512.42l-0.08,0a1.93,1.93,0,0,1,1.11-1l0,0.08a1.84,1.84,0,0,0-1.05,1h0Z" transform="translate(-104.81 -489.83)"/>
        <path d="M133.28,516.78l-0.07-.05a0.76,0.76,0,0,1,.14-0.11l0.1,0,0.24-.08,0.23-.07,0.11,0,0.13,0,0.22-.07,0,0.08-0.21.07-0.14,0-0.1,0-0.23.07-0.22.08-0.1,0-0.1.09h0Zm0.22-.62-0.08,0,0.05-.06,0.37-.1,0.25-.07,0.12,0,0.15,0,0.24-.07,0,0.09-0.24.07-0.15,0-0.11,0-0.26.07-0.36.09h0Z" transform="translate(-104.81 -489.83)"/>
        <path d="M133,512.86l-0.06-.1a1.47,1.47,0,0,0,.29,0,0.47,0.47,0,0,0,.31-0.16l0.07-.07,0,0V512.5l0,0.09,0,0.05a0.52,0.52,0,0,1-.38.2H133Z" transform="translate(-104.81 -489.83)"/>
        <path d="M134.78,515.6H134l-0.2,0H133.7l-0.07-.09h0.19l0.21,0h0.57l0.19,0v0.09h0Z" transform="translate(-104.81 -489.83)"/>
        <path d="M133.18,517.23l-0.07,0a0.62,0.62,0,0,1,.13-0.11l0.09,0,0.22-.08,0.21-.07,0.09,0,0.13,0,0.2-.07,0,0.08-0.19.07-0.13,0-0.09,0-0.21.07-0.21.08-0.09,0-0.09.08h0Z" transform="translate(-104.81 -489.83)"/>
        <path d="M135,515.23l-0.09,0-0.18-.06a0.63,0.63,0,0,1-.31-0.19,0.23,0.23,0,0,1,0-.24l0.08,0a0.12,0.12,0,0,0,0,.13,0.5,0.5,0,0,0,.28.18l0.17,0.06,0.09,0,0,0.09h0Z" transform="translate(-104.81 -489.83)"/>
        <path d="M128.87,510.5v0l-0.06,0a0.34,0.34,0,0,1,.09-0.1l0.06-.06,0.06-.06,0.07,0.05-0.07.08-0.06.05-0.08.05h0v0h0Z" transform="translate(-104.81 -489.83)"/>
        <path d="M129.77,511.51v-0.08a9.46,9.46,0,0,0,.9-0.49l0.08-.06,0.11-.09,0.07,0,0.1-.1,0.05-.06,0-.06a0.2,0.2,0,0,1,0-.08c0-.08.05-0.14,0.06-0.18l0.08,0a1.52,1.52,0,0,1-.05.15l0,0.11a0.16,0.16,0,0,1-.05.1,0.24,0.24,0,0,1-.06.07l-0.05.06-0.06,0-0.08.05-0.1.08-0.08.06a7.26,7.26,0,0,1-.94.51h0Z" transform="translate(-104.81 -489.83)"/>
        <path d="M132.07,511.5l0-.07a0.64,0.64,0,0,0,.21-0.36,0.94,0.94,0,0,1,0-.12l0.09-.08a0.4,0.4,0,0,1,0,.09,0.88,0.88,0,0,0,0,.11,0.7,0.7,0,0,1-.25.44h0Z" transform="translate(-104.81 -489.83)"/>
        <path d="M133.8,515h-0.2v-0.09h0.07a1.38,1.38,0,0,0,.56-0.06,0.52,0.52,0,0,0,.17-0.1l0.1-.09,0.07-.07a0.13,0.13,0,0,0,0-.1,0.45,0.45,0,0,0-.17-0.26s-0.78-.49-0.84-0.52l-0.07,0-0.11-.08-0.11-.08-0.06,0a0.76,0.76,0,0,1-.11-0.18,0.84,0.84,0,0,0-.08-0.13L133,513a5.68,5.68,0,0,0-.59-1.05,1.83,1.83,0,0,0-.13-0.18l-0.14-.15a0.35,0.35,0,0,0-.1-0.08l-0.08-.05a5,5,0,0,0-.81-0.46l-0.22-.07-0.11,0v-0.09l0.13,0,0.22,0.07a5,5,0,0,1,.84.47l0.07,0a0.42,0.42,0,0,1,.12.09l0.11,0.12a1.72,1.72,0,0,1,.17.21,5.6,5.6,0,0,1,.6,1.08l0.07,0.15a0.37,0.37,0,0,1,.05.08,0.93,0.93,0,0,0,.1.16l0.08,0.08,0.11,0.08,0.11,0.07,0.07,0c0.07,0,.84.52,0.85,0.52a0.55,0.55,0,0,1,.2.32,0.23,0.23,0,0,1-.06.17l-0.07.07a0.51,0.51,0,0,1-.11.09,0.47,0.47,0,0,1-.16.09,1.68,1.68,0,0,1-.5.09h0Z" transform="translate(-104.81 -489.83)"/>
        <path d="M130.5,509.79h-0.08a0.85,0.85,0,0,1-.27-0.07,1.21,1.21,0,0,1-.24-0.12,0.91,0.91,0,0,1-.15-0.12,0.62,0.62,0,0,0-.28-0.13l-0.1-.07v0l-0.09,0-0.14,0,0-.08,0.07,0,0.08,0,0.08,0,0.07,0a0.77,0.77,0,0,1,.33.14,1,1,0,0,0,.16.13,1,1,0,0,0,.22.11,0.78,0.78,0,0,0,.24.06h0.38v0.09H130.5Z" transform="translate(-104.81 -489.83)"/>
        <path class="g" d="M129.14,510.14a3.26,3.26,0,0,1,.58.05h0.47a0.36,0.36,0,0,0,.34-0.19c0.09-.14.16-0.19,0.23-0.3s0.27,0.12.28,0.12a0.64,0.64,0,0,1,.06.85c-0.2.18-.24,0.19-0.36,0.08a0.84,0.84,0,0,0-.26-0.26,1.31,1.31,0,0,0-.6,0l-0.21.08a1.16,1.16,0,0,1-.33.15,0.26,0.26,0,0,1-.31-0.14,0.25,0.25,0,0,1,.11-0.41h0Z" transform="translate(-104.81 -489.83)"/>
        <path d="M130.86,510.87a0.24,0.24,0,0,1-.16-0.09l-0.07-.09a0.52,0.52,0,0,0-.17-0.16,1.58,1.58,0,0,0-.56,0l-0.21.08-0.09.05a0.59,0.59,0,0,1-.24.1h-0.08a0.28,0.28,0,0,1-.27-0.17,0.36,0.36,0,0,1,0-.34,0.23,0.23,0,0,1,.18-0.13h0.07a3.84,3.84,0,0,1,.5,0h0.48a0.32,0.32,0,0,0,.3-0.16,1.7,1.7,0,0,1,.14-0.18l0.09-.12v0l0.09,0a0.38,0.38,0,0,1,.23.13,0.64,0.64,0,0,1,.22.53,0.72,0.72,0,0,1-.16.4,0.44,0.44,0,0,1-.26.16h0Zm-0.67-.46a0.71,0.71,0,0,1,.31.05,0.58,0.58,0,0,1,.2.18l0.07,0.08c0.12,0.12.14,0.06,0.3-.08a0.69,0.69,0,0,0,.13-0.4,0.55,0.55,0,0,0-.18-0.39,0.37,0.37,0,0,0-.18-0.12,1,1,0,0,0-.12.13,1.61,1.61,0,0,0-.13.17,0.4,0.4,0,0,1-.37.21h-0.47a3.59,3.59,0,0,0-.51-0.05,0.18,0.18,0,0,0-.18.09,0.28,0.28,0,0,0,0,.26,0.19,0.19,0,0,0,.2.13h0.07a0.49,0.49,0,0,0,.21-0.09l0.11-.06,0.22-.08a2.25,2.25,0,0,1,.31,0h0Z" transform="translate(-104.81 -489.83)"/>
        <g class="h">
          <path class="e" d="M140.28,501.52a2,2,0,0,0-.31.15s-0.24.68-.25,0.67-0.18-.58-0.19-0.57l-0.62.08,0.45-.58-0.06-.62,0.49,0.19,0.53-.4s-0.14.54-.14,0.54l0.26,0.36a1.49,1.49,0,0,0-.15.18h0Z" transform="translate(-104.81 -489.83)"/>
        </g>
        <path d="M139.68,502.36l0-.1c0-.11-0.12-0.37-0.15-0.45l-0.37.05-0.22,0a0,0,0,0,1,0-.06h0a5.68,5.68,0,0,1,.42-0.56l-0.08-.66,0.55,0.21,0.49-.4c0.07,0,.07,0-0.07.59l0.25,0.32a2.33,2.33,0,0,1-.15.22l-0.32.17-0.24.66h-0.08Zm-0.16-.63s0.06,0,.2.49c0.07-.18.19-0.52,0.2-0.55a1.13,1.13,0,0,1,.33-0.18,0.63,0.63,0,0,1,.14-0.17l-0.26-.31s0.07-.3.1-0.46l-0.43.33-0.46-.16,0.05,0.55s-0.27.36-.39,0.52l0.12,0,0.39-.05h0Z" transform="translate(-104.81 -489.83)"/>
        <path class="f" d="M134.44,508.38a16.66,16.66,0,0,0,2.86.74,3.86,3.86,0,0,1,1.43.16,1.12,1.12,0,0,0,1.13,0,1.89,1.89,0,0,0,.7-0.9,0.63,0.63,0,0,0,0-.5,1.36,1.36,0,0,1-.08-0.58,10.86,10.86,0,0,0,.68-3.14,3.39,3.39,0,0,1,.1-1.08,1.61,1.61,0,0,1,.8-0.61l2-.53c0.53-.19.18-0.55,0.07-0.52-0.35-.05-0.34-0.43-2,0l-1.06-.13a1.15,1.15,0,0,0-.23-0.15c-0.57-.11-0.66.27-0.62,0.49l0.08,0.49s-0.21.73-.19,0.76a9.9,9.9,0,0,0-1.35,2.84,2.33,2.33,0,0,0-.12.61,2,2,0,0,0,.06.63c0,0.16-.17.15-0.29,0.1-1-.6-1.87-1-2.87-1.53l-0.16-.08-1.54,1.26,0.29,1.66,0.26,0.11h0Z" transform="translate(-104.81 -489.83)"/>
        <path d="M139.31,509.45a1.51,1.51,0,0,1-.59-0.13,3.94,3.94,0,0,0-1.41-.15,16.65,16.65,0,0,1-2.89-.75l-0.08,0-0.18-.07-0.31-1.69,1.55-1.3,0.21,0.08,1,0.51c0.64,0.32,1.25.62,1.88,1a0.26,0.26,0,0,0,.21,0,3.15,3.15,0,0,1,0-.56v-0.13a0.54,0.54,0,0,1,0-.34,0.68,0.68,0,0,0,.07-0.28,10,10,0,0,1,1.36-2.85,5.69,5.69,0,0,1,.19-0.75l-0.08-.47a0.52,0.52,0,0,1,.1-0.41,0.57,0.57,0,0,1,.82,0l1,0.13a5.15,5.15,0,0,1,1.17-.18,1.19,1.19,0,0,1,.61.14,0.6,0.6,0,0,0,.21.07,0.32,0.32,0,0,1,.24.24,0.34,0.34,0,0,1-.31.37l-2,.53a1.52,1.52,0,0,0-.77.59,3.4,3.4,0,0,0-.1,1.06l0,0.34a9.64,9.64,0,0,1-.64,2.82,0.43,0.43,0,0,1,0,.14,0.81,0.81,0,0,0,.07.4,0.67,0.67,0,0,1,0,.54l-0.07.14a1.63,1.63,0,0,1-.65.78,0.93,0.93,0,0,1-.57.18h0Zm-1.72-.38a3.9,3.9,0,0,1,1.16.17,1.1,1.1,0,0,0,1.09,0,1.57,1.57,0,0,0,.62-0.75l0.07-.14a0.58,0.58,0,0,0,0-.46,0.9,0.9,0,0,1-.08-0.44,0.7,0.7,0,0,0,0-.15,9.8,9.8,0,0,0,.64-2.82l0-.33a3.41,3.41,0,0,1,.1-1.09,1.64,1.64,0,0,1,.82-0.64l2-.53a0.28,0.28,0,0,0,.25-0.27,0.22,0.22,0,0,0-.15-0.17,0.68,0.68,0,0,1-.25-0.08,1.11,1.11,0,0,0-.57-0.13,5.22,5.22,0,0,0-1.16.18l-1.07-.13a1.94,1.94,0,0,0-.22-0.15,0.49,0.49,0,0,0-.5.1,0.45,0.45,0,0,0-.08.34l0.08,0.49c-0.07.28-.19,0.71-0.19,0.76a10.13,10.13,0,0,0-1.35,2.85,0.76,0.76,0,0,1-.08.3,0.46,0.46,0,0,0,0,.3v0.14a2.12,2.12,0,0,0,.06.49,0.15,0.15,0,0,1,0,.13,0.3,0.3,0,0,1-.32,0,21.11,21.11,0,0,0-1.88-1l-1-.51-0.16-.08-1.49,1.25,0.3,1.62a0.33,0.33,0,0,1,.15,0l0.09,0a16.69,16.69,0,0,0,2.85.74h0.28Z" transform="translate(-104.81 -489.83)"/>
        <path class="e" d="M142.77,502.17s-0.66-.77-0.66-0.77l0.38-.07,0.74,0.71Z" transform="translate(-104.81 -489.83)"/>
        <path d="M140.58,506.3a2,2,0,0,1-1.24-.46l0.06-.06a1.84,1.84,0,0,0,1.38.43v0.09l-0.21,0h0Z" transform="translate(-104.81 -489.83)"/>
        <path d="M142.79,502.19h-0.06c-0.08-.08-0.24-0.23-0.28-0.29l-0.19-.19-0.08-.09-0.1-.12-0.18-.18,0.06-.06,0.18,0.18,0.11,0.12,0.08,0.08,0.19,0.19,0.28,0.29v0.06h0Zm0.62-.1-0.17-.06-0.08-.07-0.19-.17-0.17-.16-0.08-.08-0.09-.1a1.39,1.39,0,0,1-.17-0.15l0.06-.06,0.16,0.15,0.17,0.18,0.17,0.17a1.78,1.78,0,0,0,.18.16L143.3,502l0.12,0v0.09h0Z" transform="translate(-104.81 -489.83)"/>
        <path d="M140.08,504.26a1.28,1.28,0,0,0-.15-0.26,0.54,0.54,0,0,0-.29-0.19l-0.1,0,0,0-0.05,0,0.06-.08,0.07,0a0.53,0.53,0,0,1,.36.23l0.13,0.2-0.06.11h0Z" transform="translate(-104.81 -489.83)"/>
        <path d="M142.13,502.37h-0.06l0,0h0l-0.08-.16,0-.09,0-.1,0-.09-0.05-.11-0.05-.11,0-.09-0.06-.12-0.08-.17,0.08,0,0,0.1,0,0.07,0.06,0.13,0,0.09,0,0.11,0.05,0.11,0,0.1,0,0.09,0,0.09,0,0.1,0,0v0h0v0.06h0Z" transform="translate(-104.81 -489.83)"/>
        <path d="M143.86,502l-0.16-.05-0.08-.06-0.18-.15-0.16-.15-0.07-.07-0.09-.09-0.16-.14,0.06-.06,0.15,0.13,0.09,0.1,0.07,0.07,0.17,0.15,0.17,0.14,0.08,0.06,0.12,0V502h0Z" transform="translate(-104.81 -489.83)"/>
        <path d="M141.06,502l0-.09a0.12,0.12,0,0,0,.11-0.07,0.5,0.5,0,0,0,0-.33c0-.06,0-0.11,0-0.18a0.29,0.29,0,0,1,0-.09l0.08,0a0.28,0.28,0,0,0,0,.09c0,0.08,0,.13,0,0.18a0.63,0.63,0,0,1,0,.36,0.24,0.24,0,0,1-.19.15h0Z" transform="translate(-104.81 -489.83)"/>
        <path d="M140.11,509a0.34,0.34,0,0,1-.13,0l-0.08,0-0.09,0v-0.09l0.1,0,0.07,0,0.08,0v0h0l0,0,0,0v0h0Z" transform="translate(-104.81 -489.83)"/>
        <path d="M140.48,507.7a8.78,8.78,0,0,0-.87-0.54l-0.09,0-0.13-.05-0.08,0-0.13,0H139a0.21,0.21,0,0,1-.09,0l-0.18,0,0-.08,0.15,0,0.12,0a0.16,0.16,0,0,1,.11,0h0.09l0.08,0,0.07,0,0.09,0,0.12,0,0.09,0a7.52,7.52,0,0,1,.9.57l-0.08,0,0,0,0,0h0Z" transform="translate(-104.81 -489.83)"/>
        <path d="M138.85,505.76l-0.12,0,0.08,0,0.1,0a0.7,0.7,0,0,1,.5,0l0,0.07a0.64,0.64,0,0,0-.42,0l-0.1,0h0Z" transform="translate(-104.81 -489.83)"/>
        <path d="M139.44,507.07a0.58,0.58,0,0,1,0-.15l0-.21a4.86,4.86,0,0,1,0-1,0.59,0.59,0,0,0,0-.08,0.41,0.41,0,0,1,0-.15,0.92,0.92,0,0,1,0-.15,1.7,1.7,0,0,1,.11-0.25,5.68,5.68,0,0,1,.64-1.05l0.1-.13a0.37,0.37,0,0,1,0-.09,0.8,0.8,0,0,0,.09-0.16l0-.11a0.75,0.75,0,0,0,0-.13,0.79,0.79,0,0,0,0-.13,0.72,0.72,0,0,1,0-.08c0-.07,0-1,0-1a0.53,0.53,0,0,1,.18-0.33,0.22,0.22,0,0,1,.18,0l0.09,0,0.14,0.05a0.43,0.43,0,0,1,.16.09,1.47,1.47,0,0,1,.36.47v0.09l0,0-0.06.07,0-.06a1.42,1.42,0,0,0-.33-0.46,0.51,0.51,0,0,0-.17-0.1L141,502l-0.09,0a0.13,0.13,0,0,0-.11,0,0.46,0.46,0,0,0-.14.27s0,0.92,0,1,0,0.06,0,.08a0.72,0.72,0,0,1,0,.13,0.73,0.73,0,0,1,0,.14v0.07a0.71,0.71,0,0,1-.1.19l-0.08.13-0.11.15a5.71,5.71,0,0,0-.63,1,1.8,1.8,0,0,0-.08.19,1.49,1.49,0,0,0-.07.2,0.38,0.38,0,0,0,0,.13,0.73,0.73,0,0,1,0,.09,4.88,4.88,0,0,0,0,.93l0,0.21,0,0.13-0.08,0h0Z" transform="translate(-104.81 -489.83)"/>
        <path d="M138.84,509.32l0,0h0l0,0h0l0,0-0.06,0s0-.09,0-0.14V509a0.51,0.51,0,0,1,0-.19,0.25,0.25,0,0,1,0-.14,2.06,2.06,0,0,0,0-.38s0-.07,0-0.11l0-.06a0.56,0.56,0,0,0,0-.12l0-.08-0.06-.13-0.1-.17,0.08,0,0.1,0.17,0.07,0.13,0,0.07a0.55,0.55,0,0,1,0,.14l0,0.2s0,0.09,0,.14a1.08,1.08,0,0,1,0,.22,0.32,0.32,0,0,0,0,.15,0.38,0.38,0,0,0,0,.12l0,0.14s0,0.1,0,.14v0h0v0.06h0Z" transform="translate(-104.81 -489.83)"/>
        <path class="e" d="M139.66,508.86a3.32,3.32,0,0,1-.24-0.53l-0.24-.41a0.36,0.36,0,0,0-.33-0.21c-0.17,0-.24,0-0.37-0.05s0-.29,0-0.3a0.64,0.64,0,0,1,.72-0.47c0.26,0.08.29,0.12,0.25,0.28a0.86,0.86,0,0,0-.1.35,1.32,1.32,0,0,0,.27.53l0.17,0.14a1.16,1.16,0,0,1,.29.21,0.26,0.26,0,0,1,0,.34,0.25,0.25,0,0,1-.42.1h0Z" transform="translate(-104.81 -489.83)"/>
        <path d="M139.81,509a0.23,0.23,0,0,1-.19-0.09,3,3,0,0,1-.23-0.51l-0.24-.43a0.32,0.32,0,0,0-.29-0.18l-0.23,0-0.15,0a0.26,0.26,0,0,1-.08-0.33,0.67,0.67,0,0,1,.68-0.52h0.1c0.24,0.08.32,0.12,0.27,0.33l0,0.1a0.51,0.51,0,0,0-.06.23,1.11,1.11,0,0,0,.26.5l0.17,0.14,0.09,0.05a0.63,0.63,0,0,1,.21.16,0.31,0.31,0,0,1,0,.39,0.36,0.36,0,0,1-.3.2h0Zm-0.69-2a0.58,0.58,0,0,0-.63.44c0,0.15,0,.22,0,0.25l0.15,0,0.21,0a0.41,0.41,0,0,1,.36.23l0.24,0.41a3.31,3.31,0,0,0,.24.52,0.22,0.22,0,0,0,.34-0.1,0.22,0.22,0,0,0,0-.3,0.53,0.53,0,0,0-.18-0.14l-0.1-.06-0.18-.15a1.24,1.24,0,0,1-.28-0.55,0.59,0.59,0,0,1,.06-0.27l0-.1c0-.12,0-0.14-0.22-0.22h0Z" transform="translate(-104.81 -489.83)"/>
        <g class="i">
          <path class="e" d="M126.46,503.92a2,2,0,0,0,.29.18l0.7-.16s-0.39.47-.37,0.48,0.4,0.47.41,0.47l-0.73-.06-0.49.39-0.11-.51-0.62-.22,0.52-.18,0.16-.41a1.41,1.41,0,0,0,.23,0h0Z" transform="translate(-104.81 -489.83)"/>
        </g>
        <path d="M126.25,505.29l-0.12-.58-0.6-.19c0-.08,0-0.08.53-0.26l0.13-.39a0.83,0.83,0,0,1,.26,0l0.32,0.18a6.44,6.44,0,0,1,.68-0.16h0.07l0,0.06-0.06.08c-0.07.09-.25,0.3-0.3,0.37l0.24,0.27,0.15,0.17,0,0.08-0.73-.06-0.51.43h0Zm-0.58-.81,0.51,0.18,0.12,0.47,0.43-.35s0.45,0,.65,0l-0.08-.1-0.25-.29c0-.05,0-0.06.29-0.45l-0.57.13a2.14,2.14,0,0,1-.34-0.19,0.79,0.79,0,0,1-.21,0l-0.11.39a4.58,4.58,0,0,1-.44.16h0Z" transform="translate(-104.81 -489.83)"/>
        <path class="f" d="M135.39,505a16.7,16.7,0,0,0-.95-2.8,3.85,3.85,0,0,1-.65-1.28,1.12,1.12,0,0,0-.65-0.92A1.88,1.88,0,0,0,132,500a0.63,0.63,0,0,0-.42.28,1.39,1.39,0,0,1-.44.38,10.76,10.76,0,0,0-3,1.15,3.38,3.38,0,0,1-1,.51,1.6,1.6,0,0,1-.95-0.33l-1.55-1.41c-0.45-.34-0.56.15-0.47,0.22,0.15,0.32-.17.52,1.06,1.68l0.47,1a1.14,1.14,0,0,0,0,.27c0.23,0.54.58,0.4,0.75,0.25l0.37-.33s0.73-.23.74-0.25a9.91,9.91,0,0,0,3.11-.42,2.36,2.36,0,0,0,.58-0.24,2,2,0,0,0,.5-0.39c0.12-.11.22,0.07,0.24,0.19,0,1.13.19,2.11,0.3,3.24l0,0.18,1.89,0.6,1.23-1.15c0-.1,0-0.18-0.05-0.27h0Z" transform="translate(-104.81 -489.83)"/>
        <path d="M134.22,506.52l-1.92-.61,0-.21c0-.38-0.08-0.75-0.12-1.11a21.32,21.32,0,0,1-.18-2.13,0.21,0.21,0,0,0-.12-0.17,3.19,3.19,0,0,1-.44.35l-0.11.07a0.53,0.53,0,0,1-.31.14,0.67,0.67,0,0,0-.27.09,10,10,0,0,1-3.13.43,5.63,5.63,0,0,1-.73.25l-0.35.32a0.55,0.55,0,0,1-.35.14,0.53,0.53,0,0,1-.47-0.41s0,0,0-.29l-0.46-.94a2.3,2.3,0,0,1-1-1.46,0.66,0.66,0,0,0-.05-0.21,0.22,0.22,0,0,1,0-.22c0.08-.21.3-0.24,0.55-0.06l1.56,1.42a1.53,1.53,0,0,0,.91.32,3.36,3.36,0,0,0,.94-0.5l0.3-.15a9.65,9.65,0,0,1,2.72-1,0.43,0.43,0,0,1,.12-0.09,0.81,0.81,0,0,0,.3-0.28,0.66,0.66,0,0,1,.45-0.29l0.16,0a1.75,1.75,0,0,1,1,.12,1.16,1.16,0,0,1,.68.95,3.81,3.81,0,0,0,.64,1.26,16.45,16.45,0,0,1,1,2.83l0,0.08c0,0.06,0,.12,0,0.19l-1.26,1.21h0Zm-2.39-4.32a0.28,0.28,0,0,1,.21.25c0,0.75.09,1.42,0.18,2.13,0,0.36.09,0.72,0.12,1.11l0,0.18,1.84,0.55,1.21-1.13a0.39,0.39,0,0,1,0-.14l0-.09a16.5,16.5,0,0,0-.95-2.79,3.87,3.87,0,0,1-.65-1.29,1.08,1.08,0,0,0-.63-0.89,1.67,1.67,0,0,0-1-.11L132,500a0.59,0.59,0,0,0-.39.26,0.89,0.89,0,0,1-.32.31l-0.13.09a9.83,9.83,0,0,0-2.72,1l-0.29.15a3.44,3.44,0,0,1-1,.51h0a1.63,1.63,0,0,1-1-.34l-1.56-1.42c-0.23-.17-0.38-0.06-0.41,0a0.18,0.18,0,0,0,0,.14,0.68,0.68,0,0,1,.07.25,2.26,2.26,0,0,0,1,1.43l0.48,1a2.16,2.16,0,0,0,0,.27,0.48,0.48,0,0,0,.4.36,0.46,0.46,0,0,0,.29-0.12l0.37-.33,0.74-.25h0.38a10.73,10.73,0,0,0,2.74-.44,0.78,0.78,0,0,1,.3-0.1,0.47,0.47,0,0,0,.27-0.13l0.12-.08a2,2,0,0,0,.38-0.32,0.16,0.16,0,0,1,.11,0h0Z" transform="translate(-104.81 -489.83)"/>
        <path class="e" d="M125.64,501.48s-0.28,1-.28,1l-0.27-.28,0.19-1Z" transform="translate(-104.81 -489.83)"/>
        <path d="M130.59,502.34l-0.09,0a1.84,1.84,0,0,0-.4-1.39l0.06-.06a1.93,1.93,0,0,1,.42,1.46h0Z" transform="translate(-104.81 -489.83)"/>
        <path d="M125.41,502.66l-0.08,0a1.92,1.92,0,0,0,0-.24l0-.15,0-.12c0-.08,0-0.17.06-0.26s0.08-.33.09-0.42h0l0,0c0,0.09-.07.35-0.1,0.42s0,0.17-.06.26l0,0.12,0,0.15a1.67,1.67,0,0,1,0,.25h0Zm-0.34-.45-0.08,0a1.49,1.49,0,0,0,0-.22l0.06-.24c0-.07,0-0.16,0-0.24a1.82,1.82,0,0,0,0-.24v-0.1a0.82,0.82,0,0,0,0-.13l0.08,0a0.71,0.71,0,0,1,0,.17v0.11a2,2,0,0,1,0,.25c0,0.07,0,.15,0,0.23l-0.06.24a1.58,1.58,0,0,1,0,.22h0Z" transform="translate(-104.81 -489.83)"/>
        <path d="M128.78,503.3h-0.1a0.38,0.38,0,0,0,0-.07,0.51,0.51,0,0,1,0-.43l0.1-.21h0.12a1.35,1.35,0,0,0-.14.26,0.46,0.46,0,0,0,0,.34,0.47,0.47,0,0,1,0,.09h0l0.06,0h0Z" transform="translate(-104.81 -489.83)"/>
        <path d="M125.57,502.94l-0.07,0,0.06-.09,0-.07,0.07-.11,0.06-.09,0.06-.1,0.06-.1,0.06-.09,0.06-.08,0.05-.09,0.06-.09,0,0h0l0.05,0,0,0h0l-0.09.15-0.05.08-0.06.1-0.06.08-0.06.1-0.06.1-0.06.09-0.07.11-0.1.16h0Z" transform="translate(-104.81 -489.83)"/>
        <path d="M124.75,501.83l-0.09,0a1.31,1.31,0,0,0,0-.2l0-.22c0-.07,0-0.14,0-0.22a1.42,1.42,0,0,0,0-.21v-0.1a0.86,0.86,0,0,0,0-.12l0.08,0a0.72,0.72,0,0,1,0,.16V501a1.61,1.61,0,0,1,0,.23,2,2,0,0,0,0,.21l0,0.22a1.3,1.3,0,0,1,0,.21h0Z" transform="translate(-104.81 -489.83)"/>
        <path d="M125.77,503.36l-0.07-.05,0.06-.07,0.13-.13a0.64,0.64,0,0,1,.31-0.19,0.24,0.24,0,0,1,.23.07l-0.06.06a0.12,0.12,0,0,0-.12,0,0.5,0.5,0,0,0-.29.16l-0.13.13a0.26,0.26,0,0,1-.06.06h0Z" transform="translate(-104.81 -489.83)"/>
        <path d="M132.82,500.29a0.72,0.72,0,0,1,0-.1l0-.08a0.61,0.61,0,0,1,0-.09h0l0.06,0a0.35,0.35,0,0,1,0,.13l0,0.08a0.57,0.57,0,0,0,0,.09l-0.08,0h0Z" transform="translate(-104.81 -489.83)"/>
        <path d="M131.83,502.26l-0.11-.11-0.08-.1a0.17,0.17,0,0,1-.06-0.09,0.28,0.28,0,0,1,0-.08l0-.07v-0.08a0.65,0.65,0,0,1,0-.1s0-.08,0-0.12l0-.1a7.46,7.46,0,0,1,0-1.07l0.07,0,0,0h0a9,9,0,0,0,0,1l0,0.1a1.32,1.32,0,0,1,0,.14,0.53,0.53,0,0,0,0,.09,1.2,1.2,0,0,0,0,.14,0.3,0.3,0,0,0,0,.07l0,0.06a0.21,0.21,0,0,1,.06.07l0.13,0.13-0.06.06h0Z" transform="translate(-104.81 -489.83)"/>
        <path d="M130.82,502.91l-0.08,0-0.09-.05a0.7,0.7,0,0,1-.27-0.43h0.09a0.64,0.64,0,0,0,.23.35l0.1,0.06,0,0.12h0Z" transform="translate(-104.81 -489.83)"/>
        <path d="M126.67,503.38a0.34,0.34,0,0,1-.13,0,0.23,0.23,0,0,1-.12-0.13l0-.1a0.58,0.58,0,0,1,0-.14,0.49,0.49,0,0,1,0-.18,1.47,1.47,0,0,1,.2-0.56l0.13-.06-0.05.1a1.32,1.32,0,0,0-.18.49,0.55,0.55,0,0,0,0,.2,0.55,0.55,0,0,0,0,.13l0,0.1a0.14,0.14,0,0,0,.08.08,0.45,0.45,0,0,0,.31,0s0.8-.46.85-0.51l0.07,0,0.12-.06,0.12-.06,0.08,0a0.67,0.67,0,0,1,.19,0h0.33a5.69,5.69,0,0,0,1.2,0l0.2,0,0.08,0v0l0.14,0a0.38,0.38,0,0,0,.11-0.06l0.08,0a5.12,5.12,0,0,0,.78-0.51l0.24-.25,0.07,0-0.07.07-0.19.19a5.13,5.13,0,0,1-.8.53l-0.07,0a0.4,0.4,0,0,1-.14.07l-0.15,0-0.07,0-0.2,0a5.65,5.65,0,0,1-1.23,0h-0.17a0.61,0.61,0,0,1-.15,0h-0.14l-0.11,0-0.12.06-0.11.06-0.07,0c-0.05,0-.85.51-0.86,0.51a0.69,0.69,0,0,1-.25.05h0Z" transform="translate(-104.81 -489.83)"/>
        <path d="M132.56,502.1l-0.08,0,0.09-.18,0.08-.14,0-.06a0.61,0.61,0,0,1,.09-0.12l0.15-.12,0.12-.07,0.2-.1a0.32,0.32,0,0,0,.13-0.08,0.35,0.35,0,0,0,.09-0.08l0.1-.1,0.1-.09,0,0h0l0.05,0,0,0,0,0v0l0,0V501l-0.1.1-0.06.05a0.5,0.5,0,0,1-.14.13,0.26,0.26,0,0,1-.12.08l-0.22.11-0.12.07-0.14.11a0.54,0.54,0,0,0-.08.1l0,0.06-0.08.13-0.09.18h0Z" transform="translate(-104.81 -489.83)"/>
        <path d="M133.09,505.77h0l0-.05c0-.09,0-0.15,0-0.2s0-.09,0-0.13a1.92,1.92,0,0,0,0-.27V505a1.77,1.77,0,0,0,0-.21c0-.06,0-0.11,0-0.16v-0.13a1.18,1.18,0,0,0,0-.25,1.54,1.54,0,0,0,0-.24,0.41,0.41,0,0,0,0-.16l-0.12-.47a0.89,0.89,0,0,0,0-.16l0-.08a0.67,0.67,0,0,1-.06-0.18,0.71,0.71,0,0,1-.07-0.18,1,1,0,0,1-.06-0.13l0-.13,0-.09a1.34,1.34,0,0,1-.08-0.21l0-.1,0,0.08a0.83,0.83,0,0,0,0,.13,1.7,1.7,0,0,1,.06.16l0,0.08,0.08,0.18a0.65,0.65,0,0,0,.05.15,1.28,1.28,0,0,0,.07.2l0,0.08a0.93,0.93,0,0,1,0,.17l0.11,0.46a0.47,0.47,0,0,1,0,.19,1.3,1.3,0,0,1,0,.23,1.25,1.25,0,0,1,0,.26v0.13c0,0.05,0,.1,0,0.15a1.72,1.72,0,0,1,0,.22v0.08a1.84,1.84,0,0,1,0,.28,1.19,1.19,0,0,1,0,.13c0,0.05,0,.1,0,0.15v0.06h0l0,0h-0.05Z" transform="translate(-104.81 -489.83)"/>
        <path class="e" d="M132.94,500.41a3.21,3.21,0,0,1-.31.49l-0.21.42a0.37,0.37,0,0,0,0,.39c0.08,0.15.1,0.23,0.16,0.34s-0.23.19-.23,0.19a0.64,0.64,0,0,1-.78-0.34c-0.07-.26-0.06-0.3.1-0.36a0.83,0.83,0,0,0,.35-0.11,1.34,1.34,0,0,0,.29-0.52s0-.22,0-0.22a1.2,1.2,0,0,1,0-.36,0.26,0.26,0,0,1,.27-0.21,0.25,0.25,0,0,1,.31.29h0Z" transform="translate(-104.81 -489.83)"/>
        <path d="M132.14,502.32a0.7,0.7,0,0,1-.61-0.42c-0.07-.25-0.07-0.34.13-0.4l0.11,0a0.48,0.48,0,0,0,.22-0.08,1.09,1.09,0,0,0,.27-0.49s0-.22,0-0.22a0.48,0.48,0,0,0,0-.11,0.59,0.59,0,0,1,0-.26,0.3,0.3,0,0,1,.31-0.24,0.39,0.39,0,0,1,.33.13,0.23,0.23,0,0,1,0,.22,2.67,2.67,0,0,1-.3.48l-0.22.43a0.32,0.32,0,0,0,0,.34,1.77,1.77,0,0,1,.1.21,1.14,1.14,0,0,0,.06.14,0.26,0.26,0,0,1-.24.25,0.75,0.75,0,0,1-.25,0h0Zm0.52-2.16a0.24,0.24,0,0,0-.27.19,0.52,0.52,0,0,0,0,.22,0.54,0.54,0,0,1,0,.12,1,1,0,0,1,0,.23,1.24,1.24,0,0,1-.31.53,0.57,0.57,0,0,1-.26.1l-0.1,0c-0.12,0-.14,0-0.07.3a0.63,0.63,0,0,0,.52.35,0.65,0.65,0,0,0,.21,0c0.15,0,.21-0.09.2-0.15a0.88,0.88,0,0,1-.06-0.13,1.67,1.67,0,0,0-.09-0.19,0.41,0.41,0,0,1,0-.43l0.21-.42a2.92,2.92,0,0,0,.31-0.49,0.14,0.14,0,0,0,0-.13,0.26,0.26,0,0,0-.22-0.1h0Z" transform="translate(-104.81 -489.83)"/>
        <g class="j">
          <path class="e" d="M132.26,505.46c-0.08-.07,1.47.56,1.68,0.57a12.79,12.79,0,0,0,1.49-1.12,0.61,0.61,0,0,0,.17.41l-1.35,1.12a4.73,4.73,0,0,0,.23,1.9h-0.36a5,5,0,0,1-.43-1.86l-1.53-.68a0.33,0.33,0,0,0,.1-0.33h0Z" transform="translate(-104.81 -489.83)"/>
        </g>
        <path d="M134.21,508.38c-0.11,0-.14,0-0.14,0a4.85,4.85,0,0,1-.43-1.86l-1.58-.67,0.07,0a0.3,0.3,0,0,0,.08-0.29l0-.06a4.53,4.53,0,0,1,.58.2,9.37,9.37,0,0,0,1.1.37,13.38,13.38,0,0,0,1.46-1.11l0.06-.05v0.08a0.53,0.53,0,0,0,.15.38l0.06,0-0.05,0-0.66.55-0.69.57a2.3,2.3,0,0,1,0,.43,3.18,3.18,0,0,0,.22,1.41l0,0.06h-0.34Zm-2-2.6,1.47,0.65a5.79,5.79,0,0,0,.45,1.87h0.27a3.35,3.35,0,0,1-.2-1.39c0-.16,0-0.31,0-0.46,0.25-.23.48-0.41,0.7-0.6l0.62-.51a0.65,0.65,0,0,1-.13-0.33,11.08,11.08,0,0,1-1.45,1.08,6.69,6.69,0,0,1-1.15-.37l-0.51-.18a0.38,0.38,0,0,1-.07.27h0Z" transform="translate(-104.81 -489.83)"/>
        <path d="M130.83,509.71l-0.08,0,0.19-.25,0.06-.09,0-.07,0.11-.17,0,0V509a6.68,6.68,0,0,1,2.15-1.84l0.09,0,0.26-.13,0,0,0,0a0.36,0.36,0,0,1-.21.15l-0.09,0a6.58,6.58,0,0,0-2.12,1.82l0,0.06-0.08.13-0.07.1-0.06.08-0.18.23h0Z" transform="translate(-104.81 -489.83)"/>
        <path d="M138.38,507.61l-0.31-.06h-0.19l-0.2,0v0l-0.07,0a6.67,6.67,0,0,1-2.62-1.07l-0.08-.06-0.24-.17,0,0,0,0a0.36,0.36,0,0,1,.23.12l0.08,0.06a6.57,6.57,0,0,0,2.59,1.05h0.22l0.14,0h0.09l0.28,0.05h0v0h0v0.1h0Z" transform="translate(-104.81 -489.83)"/>
      </g>
    </g>
  </g>
</svg>
