<svg xmlns="http://www.w3.org/2000/svg" xmlns:xlink="http://www.w3.org/1999/xlink" viewBox="0 0 58.92 34.37">
  <defs>
    <style>
      .a {
        fill: none;
      }

      .b {
        clip-path: url(#a);
      }

      .c {
        fill: #fff;
      }

      .d {
        fill: #313883;
      }
    </style>
    <clipPath id="a" transform="translate(-175.5 -489.83)">
      <rect class="a" x="175.5" y="489.83" width="58.92" height="34.37"/>
    </clipPath>
  </defs>
  <title>Israel</title>
  <g class="b">
    <rect class="c" width="58.92" height="34.37"/>
    <rect class="d" y="2.72" width="58.92" height="5.53"/>
    <rect class="d" y="26.13" width="58.92" height="5.53"/>
    <path class="d" d="M209.43,507l2.28-3.87h-4.52L205,499.24l-2.22,3.91h-4.52L200.5,507l-2.28,3.87h4.52L205,514.8l2.22-3.91h4.52Zm-5.27-3.87,0.81-1.41,0.81,1.41h-1.62Zm4.55,5.11,0.78,1.35h-1.56Zm-0.78-3.83h1.56l-0.78,1.35Zm-2.16,6.46L205,512.29l-0.81-1.41h1.62Zm-2.35-1.28L201.93,507l1.49-2.59h3.08L208,507l-1.49,2.59h-3.08Zm-1.42,0h-1.56l0.78-1.35Zm-1.56-5.18H202l-0.78,1.35Z" transform="translate(-175.5 -489.83)"/>
  </g>
</svg>
