<svg xmlns="http://www.w3.org/2000/svg" xmlns:xlink="http://www.w3.org/1999/xlink" viewBox="0 0 58.92 34.37">
  <defs>
    <style>
      .a {
        fill: none;
      }

      .b {
        clip-path: url(#a);
      }

      .c {
        fill: #fff;
      }

      .d {
        fill: #cc0036;
      }

      .e {
        fill: #d50037;
      }

      .f {
        fill: #f2dd30;
      }

      .g {
        fill: #ea0029;
      }

      .h {
        fill: #2d4db6;
      }
    </style>
    <clipPath id="a" transform="translate(-1092.39 -489.82)">
      <rect class="a" x="1092.39" y="489.82" width="58.92" height="34.37"/>
    </clipPath>
  </defs>
  <title>Jersey</title>
  <g class="b">
    <rect class="c" width="58.92" height="34.37"/>
    <polygon class="d" points="55.06 0 29.46 14.98 3.87 0 0 0 0 2.21 25.66 17.19 0 32.16 0 34.37 3.87 34.37 29.46 19.39 55.06 34.37 58.92 34.37 58.92 32.16 33.27 17.19 58.92 2.21 58.92 0 55.06 0"/>
    <g class="b">
      <path class="e" d="M1124.85,495c0.74,3,.33,6.66-3,8.71-3.33-2-3.73-5.72-3-8.71,0.78-.71,4.35-1.15,6,0h0Z" transform="translate(-1092.39 -489.82)"/>
      <path d="M1121.86,503.68h0c-4.15-2.55-3.34-7.31-3-8.71a5.59,5.59,0,0,1,3.08-.71,5.19,5.19,0,0,1,2.91.71c0.35,1.4,1.15,6.17-3,8.71h0Zm0.09-9.41a5.61,5.61,0,0,0-3.08.71c-0.34,1.4-1.15,6.15,3,8.7,4.14-2.55,3.33-7.3,3-8.7a5.19,5.19,0,0,0-2.9-.71h0Z" transform="translate(-1092.39 -489.82)"/>
      <path class="f" d="M1121.86,494.37a6,6,0,0,1,3,.74,6.55,6.55,0,0,1,1.15-2.83,0.69,0.69,0,0,0-.84.61,0.54,0.54,0,0,0-.88-0.16,0.56,0.56,0,0,1-.42,1,0.61,0.61,0,0,1-.46-0.53,0.3,0.3,0,0,0,.17-0.07,0.31,0.31,0,1,0-.43,0,0.29,0.29,0,0,0,.13.09,0.67,0.67,0,0,1-.73.32,0.63,0.63,0,0,1,.35-1.2c0-.42-0.67-0.75-0.87-0.41a0.7,0.7,0,1,0-.38,0c-0.2-.35-0.86,0-0.87.41a0.63,0.63,0,0,1,.35,1.2,0.67,0.67,0,0,1-.73-0.32,0.29,0.29,0,0,0,.13-0.09,0.31,0.31,0,1,0-.43,0,0.29,0.29,0,0,0,.17.07,0.61,0.61,0,0,1-.46.53,0.56,0.56,0,0,1-.42-1,0.54,0.54,0,0,0-.88.16,0.69,0.69,0,0,0-.84-0.61,6.53,6.53,0,0,1,1.15,2.83,6,6,0,0,1,3-.74h0Z" transform="translate(-1092.39 -489.82)"/>
      <path d="M1124.89,495.13h0a6.53,6.53,0,0,0-6,0,6.83,6.83,0,0,0-1.17-2.84,0.69,0.69,0,0,1,.86.6,0.45,0.45,0,0,1,.47-0.33,0.52,0.52,0,0,1,.4.16,0.59,0.59,0,0,0-.27.64,0.56,0.56,0,0,0,.68.37,0.59,0.59,0,0,0,.45-0.52,0.21,0.21,0,0,1-.17-0.05,0.32,0.32,0,0,1,0-.45,0.33,0.33,0,0,1,.45,0,0.32,0.32,0,0,1-.09.55,0.71,0.71,0,0,0,.72.29,0.62,0.62,0,0,0-.18-1.21,0.33,0.33,0,0,0-.16,0c0-.45.66-0.73,0.86-0.45a1.08,1.08,0,0,1,.18-1.35,1.11,1.11,0,0,1,.25,1.3c0.19-.24.82,0.07,0.83,0.48a0.73,0.73,0,0,0-.57.12,0.62,0.62,0,0,0-.21.49,0.58,0.58,0,0,0,.41.58,0.66,0.66,0,0,0,.71-0.31,0.22,0.22,0,0,1-.13-0.08,0.32,0.32,0,0,1,0-.45,0.33,0.33,0,0,1,.45,0,0.32,0.32,0,0,1-.23.53,0.63,0.63,0,0,0,.46.5,0.56,0.56,0,0,0,.68-0.37,0.55,0.55,0,0,0-.27-0.62,0.46,0.46,0,0,1,.4-0.18,0.5,0.5,0,0,1,.5.33,0.65,0.65,0,0,1,.79-0.62h0a0.69,0.69,0,0,0-.78.62,0.55,0.55,0,0,0-.5-0.3,0.5,0.5,0,0,0-.38.15,0.55,0.55,0,0,1,.28.63,0.59,0.59,0,0,1-.71.39,0.62,0.62,0,0,1-.47-0.54,0.48,0.48,0,0,0,.18-0.08,0.3,0.3,0,0,0,0-.41,0.3,0.3,0,0,0-.41,0,0.3,0.3,0,0,0,0,.41,0.3,0.3,0,0,0,.12.09,0.66,0.66,0,0,1-.74.34,0.65,0.65,0,0,1,.18-1.27,0.36,0.36,0,0,1,.18,0,0.67,0.67,0,0,0-.61-0.52,0.28,0.28,0,0,0-.25.14h0l0-.06a1.16,1.16,0,0,0-.24-1.3,1.13,1.13,0,0,0-.17,1.35,0.38,0.38,0,0,0-.28-0.12,0.63,0.63,0,0,0-.59.54,0.56,0.56,0,0,1,.78.61,0.61,0.61,0,0,1-.43.61,0.69,0.69,0,0,1-.75-0.32,0.73,0.73,0,0,0,.13-0.11,0.3,0.3,0,0,0,0-.41,0.31,0.31,0,0,0-.42,0,0.3,0.3,0,0,0,0,.41,0.29,0.29,0,0,0,.17.06,0.6,0.6,0,0,1-1.17.16,0.58,0.58,0,0,1,.28-0.65,0.58,0.58,0,0,0-.38-0.13,0.47,0.47,0,0,0-.47.31,0.71,0.71,0,0,0-.82-0.6,6.58,6.58,0,0,1,1.13,2.82,5.82,5.82,0,0,1,3-.75,6.11,6.11,0,0,1,3,.73,6.46,6.46,0,0,1,.85-2.36,7,7,0,0,0-.82,2.38v0h0Z" transform="translate(-1092.39 -489.82)"/>
      <path class="f" d="M1124.38,497.29a0.64,0.64,0,0,0-.11.11,0.36,0.36,0,0,0,.34-0.15,0.22,0.22,0,0,0,0,.13,0.19,0.19,0,0,0,.16-0.25,0.26,0.26,0,0,0,.15.07,1.11,1.11,0,0,0-.19-0.34,0.23,0.23,0,0,1,.18.13,0.43,0.43,0,0,0-.18-0.35,0.11,0.11,0,0,0,.12,0,0.2,0.2,0,0,1-.1-0.2c0-.08,0-0.1-0.14-0.07a2.33,2.33,0,0,1-.41,0,1.07,1.07,0,0,1-.66-0.14,0.53,0.53,0,0,0,.69-0.36c0-.25-0.3-0.45-0.91-0.31a1.51,1.51,0,0,1-1.35-.12,0.79,0.79,0,0,1,.81-0.19,1.64,1.64,0,0,0,1-.11,1.79,1.79,0,0,1-.86,0c-0.32-.09-1.12-0.09-1.12.34s0.84,0.39,1.58.28c0.43-.06.65,0,0.65,0.12a0.73,0.73,0,0,1-.69.15,2.37,2.37,0,0,0-1,.08,7,7,0,0,1-.83.06,0.75,0.75,0,0,1-.74-0.31,1.51,1.51,0,0,0-.53.43,0.43,0.43,0,0,0,.09.47c0.14,0.19-.07.16-0.22,0.17a0.81,0.81,0,0,1-.63-0.19,0.34,0.34,0,0,0-.43-0.15,0.06,0.06,0,0,0,.05.11,0.28,0.28,0,0,1,.18,0,0.24,0.24,0,0,0-.24,0,0.07,0.07,0,0,0,.08.11,0.22,0.22,0,0,1,.23,0,0.21,0.21,0,0,0-.19,0s0,0.1.07,0.1a2.28,2.28,0,0,0,.3.07,0.21,0.21,0,0,0-.15.09,3.24,3.24,0,0,1,.42.06,0.27,0.27,0,0,0-.16.13c0.09-.11.73,0.08,0.74-0.15a0.2,0.2,0,0,1,0,.19,0.69,0.69,0,0,0,.42-0.26,0.14,0.14,0,0,1-.05.15,0.32,0.32,0,0,0,.31-0.2,0.22,0.22,0,0,0,0-.16,0.37,0.37,0,0,0,.28-0.1,3,3,0,0,0,.34,0,1.29,1.29,0,0,1,.37-0.06c0.08,0,.2,0,0.29,0a1.1,1.1,0,0,0,.38-0.09,1.81,1.81,0,0,0,1.19.12c0.39-.07.51,0.06,0.51,0.24a0.12,0.12,0,0,1-.13.14c-0.22,0-.31-0.08-0.4-0.05a0.08,0.08,0,0,0,0,.15,0.07,0.07,0,0,0,0,.12,0.24,0.24,0,0,0,.19,0c-0.08,0-.16.1-0.11,0.17a0.1,0.1,0,0,0,.17,0,0.36,0.36,0,0,1,.27-0.15h0Z" transform="translate(-1092.39 -489.82)"/>
      <path d="M1124,497.5a0.1,0.1,0,0,1-.08,0,0.22,0.22,0,0,1,0,0,0.08,0.08,0,0,0,.08.07h0a0.11,0.11,0,0,0,.09-0.05,0.39,0.39,0,0,1,.25-0.15h0a0.43,0.43,0,0,0-.24.15,0.12,0.12,0,0,1-.09.06h0Zm0.25-.09a0.43,0.43,0,0,1,.08-0.1l0,0.06a0.25,0.25,0,0,0,.28-0.09,0.35,0.35,0,0,1-.32.13h0Zm-3.95,0a0.22,0.22,0,0,0,0-.19c0,0.11-.15.13-0.28,0.13h-0.29a0.24,0.24,0,0,0-.17,0,0.12,0.12,0,0,1,.07-0.09,0.17,0.17,0,0,0-.07.09,0.2,0.2,0,0,1,.17,0h0.29c0.13,0,.27,0,0.28-0.12a0.18,0.18,0,0,1,0,.19l0.1,0a0.45,0.45,0,0,0,.32-0.21,0.19,0.19,0,0,1,0,.1,0.42,0.42,0,0,0,0-.09,0.44,0.44,0,0,1-.32.22l-0.1,0h0Zm4.27,0h0a0.26,0.26,0,0,0,.16-0.14,0.11,0.11,0,0,0,0-.1,0.3,0.3,0,0,0,.15.07,0.19,0.19,0,0,1-.07-0.14,0.26,0.26,0,0,0-.12-0.2,0.22,0.22,0,0,1,.19.12,0.46,0.46,0,0,0-.17-0.34,0.41,0.41,0,0,1,.17.34,0.26,0.26,0,0,0-.18-0.12,0.26,0.26,0,0,1,.12.2,0.22,0.22,0,0,0,.06.14,0.27,0.27,0,0,1-.15-0.06,0.1,0.1,0,0,1,0,.09,0.27,0.27,0,0,1-.17.15h0Zm-0.6-.05,0,0-0.11,0-0.07-.07a0.09,0.09,0,0,1,.05-0.07,0.06,0.06,0,0,1-.05-0.06,0.1,0.1,0,0,1,.06-0.08,0.29,0.29,0,0,1,.14,0,0.74,0.74,0,0,0,.22,0c0.09,0,.17,0,0.17-0.13s-0.16-.3-0.51-0.23a1.77,1.77,0,0,1-1.11-.09l-0.08,0a0.34,0.34,0,0,1-.24.07,0.25,0.25,0,0,0-.14,0,0.18,0.18,0,0,1-.1,0h-0.1l-0.08,0-0.08,0h-0.11a0.31,0.31,0,0,0-.18,0,0.26,0.26,0,0,1-.21,0h-0.13a0.37,0.37,0,0,1-.26.1,0.4,0.4,0,0,1-.07.16,0.4,0.4,0,0,1-.27.21h0a0.41,0.41,0,0,0,.26-0.21,0.21,0.21,0,0,0,0-.16,0.41,0.41,0,0,0,.28-0.1l0.07,0h0.07a0.25,0.25,0,0,0,.2,0,0.34,0.34,0,0,1,.19-0.05H1122l0.08,0,0.09,0h0.1l0.1,0a0.23,0.23,0,0,1,.12,0,0.38,0.38,0,0,0,.26-0.07l0.09,0a1.76,1.76,0,0,0,1.11.09c0.43-.08.52,0.1,0.52,0.24a0.12,0.12,0,0,1-.13.14,1.16,1.16,0,0,1-.26,0l-0.1,0a0.1,0.1,0,0,0-.09.08,0.06,0.06,0,0,0,0,.06,0.1,0.1,0,0,0,0,.07l0.07,0.06,0.14,0-0.06,0h0Zm-4.53-.24a0.22,0.22,0,0,1-.11,0,0.23,0.23,0,0,0-.13,0,0.1,0.1,0,0,1-.1,0l0,0c0,0.06,0,.07.07,0.07a0.3,0.3,0,0,1,.15,0,0.27,0.27,0,0,0,.12,0h0Zm0.56-.16a0.78,0.78,0,0,1-.56-0.19,0.35,0.35,0,0,0-.43-0.15l0,0.1a0.25,0.25,0,0,1,.17,0h0l-0.11,0c-0.08,0-.11,0-0.12,0a0.06,0.06,0,0,1,0-.07,0.36,0.36,0,0,1,.44.15,0.77,0.77,0,0,0,.56.19h0.13a0.25,0.25,0,0,0,.19,0,0.13,0.13,0,0,0,0-.12,0.43,0.43,0,0,1-.08-0.47,1.06,1.06,0,0,1,.42-0.36l0.11-.07a0.75,0.75,0,0,0,.63.32h0.11l0.26,0H1122a1.11,1.11,0,0,0,.31,0,2.45,2.45,0,0,1,1-.08,0.74,0.74,0,0,0,.69-0.15c0-.14-0.22-0.18-0.65-0.12a2.1,2.1,0,0,1-1.51-.09,0.26,0.26,0,0,1-.07-0.19c0-.36.55-0.39,0.72-0.39a1.66,1.66,0,0,1,.41,0,1.91,1.91,0,0,0,.84,0h0a1.64,1.64,0,0,1-.94.11,0.79,0.79,0,0,0-.8.19,0.21,0.21,0,0,0,.19.14,2.91,2.91,0,0,0,1.16,0,1.65,1.65,0,0,1,.36,0c0.41,0,.56.19,0.56,0.36a0.56,0.56,0,0,1-.7.37,1.13,1.13,0,0,0,.66.13,2.24,2.24,0,0,0,.41,0h0.07l0.07,0.08a0.21,0.21,0,0,0,.1.19h0a0.21,0.21,0,0,1-.1-0.2l-0.07-.08h-0.07a2.45,2.45,0,0,1-.41,0,1.07,1.07,0,0,1-.67-0.14,0.58,0.58,0,0,0,.69-0.36c0-.28-0.38-0.42-0.91-0.31a2.92,2.92,0,0,1-1.16,0,0.21,0.21,0,0,1-.2-0.15c0-.21.53-0.24,0.81-0.19a1.7,1.7,0,0,0,.93-0.09,1.87,1.87,0,0,1-.8,0,1.56,1.56,0,0,0-.41,0c-0.17,0-.71,0-0.71.38a0.25,0.25,0,0,0,.07.19,2.11,2.11,0,0,0,1.5.09c0.43-.06.66,0,0.66,0.12a0.73,0.73,0,0,1-.7.16,2.43,2.43,0,0,0-1,.08,1.07,1.07,0,0,1-.32,0h-0.26l-0.26,0h-0.11a0.74,0.74,0,0,1-.63-0.32l-0.11.07a1.05,1.05,0,0,0-.42.36,0.42,0.42,0,0,0,.08.46,0.14,0.14,0,0,1,0,.13,0.25,0.25,0,0,1-.2,0H1120Zm-0.84,0a0.21,0.21,0,0,1,.15,0,0.21,0.21,0,0,0-.23,0,0.09,0.09,0,0,1-.1,0,0.06,0.06,0,0,1,0-.07,0.25,0.25,0,0,1,.19,0,0.3,0.3,0,0,0-.19,0c0,0.09,0,.11,0,0.11a0.21,0.21,0,0,1,.26,0h-0.15Z" transform="translate(-1092.39 -489.82)"/>
      <path class="f" d="M1120.07,495.44c-0.2-.08-0.26-0.08-0.22.08a0.53,0.53,0,0,0,.11.21,0.4,0.4,0,0,1,.1-0.29h0Z" transform="translate(-1092.39 -489.82)"/>
      <path d="M1120,495.73h0a0.53,0.53,0,0,1-.12-0.21,0.15,0.15,0,0,1,0-.12h0a0.09,0.09,0,0,0,0,.12,0.51,0.51,0,0,0,.11.2,0.38,0.38,0,0,1,.1-0.28l-0.14,0a0.43,0.43,0,0,1,.15,0,0.41,0.41,0,0,0-.1.29h0Z" transform="translate(-1092.39 -489.82)"/>
      <path class="f" d="M1120.68,495.44c0.2-.08.26-0.08,0.22,0.08a0.53,0.53,0,0,1-.11.21,0.39,0.39,0,0,0-.1-0.29h0Z" transform="translate(-1092.39 -489.82)"/>
      <path d="M1120.78,495.73h0a0.39,0.39,0,0,0-.1-0.28,0.48,0.48,0,0,1,.18-0.06l0,0a0.35,0.35,0,0,0-.2,0,0.36,0.36,0,0,1,.11.27,0.54,0.54,0,0,0,.11-0.2,0.26,0.26,0,0,0,0-.08,0.15,0.15,0,0,1,0,.08,0.54,0.54,0,0,1-.11.21h0Z" transform="translate(-1092.39 -489.82)"/>
      <path class="f" d="M1120.38,495.33a0.34,0.34,0,0,1,.42.39,2.17,2.17,0,0,1-.2.46,0.25,0.25,0,0,1-.43,0,2.09,2.09,0,0,1-.2-0.46,0.34,0.34,0,0,1,.42-0.39h0Z" transform="translate(-1092.39 -489.82)"/>
      <path d="M1120.38,496.31a0.18,0.18,0,0,1-.22-0.13,0.51,0.51,0,0,0-.12-0.25,0.26,0.26,0,0,1-.08-0.21,0.4,0.4,0,0,1,.08-0.3,0.61,0.61,0,0,1,.67,0,0.4,0.4,0,0,1,.08.3,0.26,0.26,0,0,1-.08.21,0.5,0.5,0,0,0-.12.25,0.18,0.18,0,0,1-.22.13h0Zm0-1a0.46,0.46,0,0,0-.33.1,0.4,0.4,0,0,0-.08.29,0.25,0.25,0,0,0,.07.2,0.51,0.51,0,0,1,.13.25,0.25,0.25,0,0,0,.43,0,0.51,0.51,0,0,1,.13-0.25,0.25,0.25,0,0,0,.08-0.2,0.4,0.4,0,0,0-.08-0.29,0.46,0.46,0,0,0-.33-0.1h0Z" transform="translate(-1092.39 -489.82)"/>
      <path class="f" d="M1119.42,496.19a0.2,0.2,0,0,0-.19,0,1.5,1.5,0,0,0,.41.26,0.7,0.7,0,0,1-.16,0,0.74,0.74,0,0,0,.52.2c0.15,0,0,.08-0.05,0a1.18,1.18,0,0,1,.44.21,1.09,1.09,0,0,1-.12-0.56,0.9,0.9,0,0,1-.63-0.39,0.85,0.85,0,0,1-.27-0.53,0.23,0.23,0,0,0-.25-0.16c-0.07,0-.09.08,0,0.13a0.22,0.22,0,0,1,.15.16,0.17,0.17,0,0,0-.24-0.06,0.07,0.07,0,0,0,0,.12,0.59,0.59,0,0,1,.16.23c-0.12-.13-0.21-0.14-0.28-0.07a0.07,0.07,0,0,0,.08.11,3.46,3.46,0,0,1,.42.35h0Z" transform="translate(-1092.39 -489.82)"/>
      <path d="M1120.38,496.89h0a0.35,0.35,0,0,0-.27-0.14,0.3,0.3,0,0,1-.17-0.07l0.13,0a0.08,0.08,0,0,0-.07,0,0.74,0.74,0,0,1-.51-0.19h0a0.59,0.59,0,0,0,.46.18c0.05,0,.08,0,0.08,0h0l-0.07,0s0,0,.11,0a0.36,0.36,0,0,1,.26.14,0.47,0.47,0,0,0-.07-0.21,0.33,0.33,0,0,1,0-.35,0.55,0.55,0,0,1-.47-0.23,1.12,1.12,0,0,0-.16-0.16,0.69,0.69,0,0,1-.24-0.43l0-.1a0.25,0.25,0,0,0-.15-0.15,0.24,0.24,0,0,1,.16.15l0,0.1a0.68,0.68,0,0,0,.24.43,1.14,1.14,0,0,1,.16.16,0.57,0.57,0,0,0,.46.23,0.35,0.35,0,0,0,.05.34,0.42,0.42,0,0,1,.07.22h0Zm-0.77-.45a0.54,0.54,0,0,1-.27-0.17,0.22,0.22,0,0,0-.11-0.08l0.1,0,0.07,0a0.29,0.29,0,0,0-.14,0,0.38,0.38,0,0,1,.1.09,0.54,0.54,0,0,0,.29.18h0Zm-0.22-.27a0.69,0.69,0,0,1-.2-0.18,0.44,0.44,0,0,0-.19-0.15,0.09,0.09,0,0,1-.09,0l0,0c0,0.06,0,.08.06,0.08h0a0.33,0.33,0,0,1,.21.15,0.87,0.87,0,0,0,.19.18h0Zm-0.23-.41a0.2,0.2,0,0,0-.2-0.05c0.06-.06.13,0,0.2,0.05a0.19,0.19,0,0,1-.05-0.11,0.07,0.07,0,0,0-.07-0.08,0.07,0.07,0,0,1-.07-0.05,0.08,0.08,0,0,1,0-.08,0.18,0.18,0,0,1,.24.07,0.17,0.17,0,0,0-.1-0.12c-0.07,0-.08-0.07-0.08-0.09a0.09,0.09,0,0,1,.07-0.07h0a0.1,0.1,0,0,0-.1.07l0.07,0.09a0.16,0.16,0,0,1,.1.13,0.18,0.18,0,0,0-.24-0.06c0,0.09,0,.11,0,0.11a0.08,0.08,0,0,1,.08.08,0.24,0.24,0,0,0,0,.11h0Z" transform="translate(-1092.39 -489.82)"/>
      <path class="f" d="M1122.47,497.28a0.54,0.54,0,0,1-.12.12,0.54,0.54,0,0,0,.38-0.12,0.18,0.18,0,0,0-.06.12,0.69,0.69,0,0,1,.47-0.07,0.15,0.15,0,0,0,.19-0.12c0-.08,0-0.13-0.08-0.19a0.34,0.34,0,0,1-.06-0.3,0.57,0.57,0,0,0-.95,0,0.5,0.5,0,0,0,.43.26c0.18,0,.29,0,0.17.14a1.13,1.13,0,0,1-.35,0,1.38,1.38,0,0,0-.54-0.09c-0.07.1,0,.14,0.15,0.13-0.1,0-.24,0-0.22.09s0.2,0,.26,0a0.11,0.11,0,0,0-.14.07s0.12,0.11.25,0a0.38,0.38,0,0,1,.22-0.08h0Z" transform="translate(-1092.39 -489.82)"/>
      <path d="M1122.11,497.42a0.13,0.13,0,0,1-.09,0,0.12,0.12,0,0,1,0,0,0.11,0.11,0,0,0,.09.05h0a0.23,0.23,0,0,0,.14-0.05,0.4,0.4,0,0,1,.22-0.08l0,0.06a0.09,0.09,0,0,1-.08.06,0.58,0.58,0,0,0,.36-0.11,0.28,0.28,0,0,0,0,.11,0.68,0.68,0,0,1,.47-0.07,0.15,0.15,0,0,0,.18-0.09,0.13,0.13,0,0,0,0-.18,0.35,0.35,0,0,1-.09-0.32,0.64,0.64,0,0,0-.51-0.26,0.41,0.41,0,0,0-.42.22,0.49,0.49,0,0,0,.36.25l0.13,0a0.21,0.21,0,0,1,.15.05,0.1,0.1,0,0,1-.05.08,0.37,0.37,0,0,1-.18,0h-0.18a0.74,0.74,0,0,1-.35-0.09,0.34,0.34,0,0,0-.12,0c-0.09.07-.09,0.09-0.09,0.11a0.14,0.14,0,0,0,.13,0h0a0.11,0.11,0,0,1-.11,0,0.09,0.09,0,0,1,0-.09c0-.05.1,0,0.19,0a0.7,0.7,0,0,0,.32.09h0.2a0.38,0.38,0,0,0,.18,0,0.09,0.09,0,0,0,0-.07,0.22,0.22,0,0,0-.15,0h-0.07a0.53,0.53,0,0,1-.43-0.26,0.41,0.41,0,0,1,.43-0.23,0.64,0.64,0,0,1,.52.27,0.34,0.34,0,0,0,.06.3c0.08,0.07.12,0.12,0.08,0.19a0.16,0.16,0,0,1-.14.12l-0.2,0a0.54,0.54,0,0,0-.32.08,0.15,0.15,0,0,1,0-.11,0.52,0.52,0,0,1-.36.11,0.1,0.1,0,0,0,.07-0.07,0.08,0.08,0,0,1,.05-0.05,0.46,0.46,0,0,0-.22.09,0.23,0.23,0,0,1-.14.06h0Z" transform="translate(-1092.39 -489.82)"/>
      <path class="f" d="M1124.06,499.75a0.61,0.61,0,0,0-.1.1,0.33,0.33,0,0,0,.31-0.14,0.19,0.19,0,0,0,0,.12,0.18,0.18,0,0,0,.14-0.22,0.24,0.24,0,0,0,.13.07,1,1,0,0,0-.17-0.31,0.22,0.22,0,0,1,.17.11,0.38,0.38,0,0,0-.16-0.31,0.11,0.11,0,0,0,.11,0,0.19,0.19,0,0,1-.09-0.18c0-.07,0-0.09-0.13-0.06a2.06,2.06,0,0,1-.37,0,1,1,0,0,1-.6-0.13,0.48,0.48,0,0,0,.63-0.32c0-.22-0.27-0.4-0.82-0.28a1.35,1.35,0,0,1-1.22-.11c0-.18.48-0.21,0.73-0.17a1.48,1.48,0,0,0,.88-0.1,1.61,1.61,0,0,1-.77,0c-0.29-.08-1-0.08-1,0.3s0.76,0.35,1.42.25c0.38-.06.59,0,0.59,0.11a0.65,0.65,0,0,1-.62.14,2.12,2.12,0,0,0-.87.07,6.5,6.5,0,0,1-.75.05,0.68,0.68,0,0,1-.66-0.29,1.39,1.39,0,0,0-.48.39,0.39,0.39,0,0,0,.08.42c0.13,0.18-.06.15-0.2,0.16a0.73,0.73,0,0,1-.56-0.17,0.3,0.3,0,0,0-.39-0.14,0.05,0.05,0,0,0,0,.1,0.24,0.24,0,0,1,.16,0,0.22,0.22,0,0,0-.21,0,0.06,0.06,0,0,0,.07.1,0.2,0.2,0,0,1,.21,0,0.2,0.2,0,0,0-.17,0s0,0.09.07,0.09a2.63,2.63,0,0,0,.27.06,0.18,0.18,0,0,0-.13.08,3.14,3.14,0,0,1,.38.05,0.25,0.25,0,0,0-.14.12c0.09-.1.66,0.08,0.67-0.14a0.18,0.18,0,0,1,0,.17,0.63,0.63,0,0,0,.38-0.23,0.12,0.12,0,0,1,0,.13,0.29,0.29,0,0,0,.28-0.18,0.19,0.19,0,0,0,0-.14,0.33,0.33,0,0,0,.25-0.09,2.34,2.34,0,0,0,.31,0,1.18,1.18,0,0,1,.33-0.06c0.08,0,.18,0,0.26,0a0.93,0.93,0,0,0,.34-0.08,1.62,1.62,0,0,0,1.08.11c0.35-.06.46,0.05,0.46,0.21a0.11,0.11,0,0,1-.11.12c-0.2,0-.28-0.07-0.36,0a0.07,0.07,0,0,0,0,.13,0.06,0.06,0,0,0,0,.11,0.22,0.22,0,0,0,.17,0c-0.07,0-.14.09-0.1,0.15a0.09,0.09,0,0,0,.15,0,0.32,0.32,0,0,1,.24-0.13h0Z" transform="translate(-1092.39 -489.82)"/>
      <path d="M1123.73,499.93a0.09,0.09,0,0,1-.07,0,0.18,0.18,0,0,1,0,0c0,0.1.1,0.08,0.15,0a0.34,0.34,0,0,1,.23-0.13h0a0.38,0.38,0,0,0-.22.14,0.11,0.11,0,0,1-.08,0h0Zm0.22-.08a0.34,0.34,0,0,1,.07-0.09l0,0.06a0.23,0.23,0,0,0,.25-0.09,0.32,0.32,0,0,1-.29.12h0Zm-3.55,0a0.2,0.2,0,0,0,0-.17c0,0.1-.13.12-0.25,0.12h-0.26a0.24,0.24,0,0,0-.15,0,0.1,0.1,0,0,1,.06-0.08,0.15,0.15,0,0,0-.06.08,0.18,0.18,0,0,1,.15,0h0.26c0.11,0,.25,0,0.25-0.11a0.16,0.16,0,0,1,0,.17,0.21,0.21,0,0,1,.09,0,0.41,0.41,0,0,0,.29-0.2,0.18,0.18,0,0,1,0,.09,0.44,0.44,0,0,0,0-.09,0.39,0.39,0,0,1-.29.2l-0.09,0h0Zm3.84,0h0a0.23,0.23,0,0,0,.14-0.13,0.1,0.1,0,0,0,0-.09,0.29,0.29,0,0,0,.14.06,0.17,0.17,0,0,1-.06-0.12,0.23,0.23,0,0,0-.11-0.18,0.2,0.2,0,0,1,.17.11,0.41,0.41,0,0,0-.16-0.3,0.37,0.37,0,0,1,.16.3,0.24,0.24,0,0,0-.16-0.11,0.22,0.22,0,0,1,.11.18,0.19,0.19,0,0,0,.06.13,0.25,0.25,0,0,1-.13-0.05,0.09,0.09,0,0,1,0,.08,0.23,0.23,0,0,1-.15.13h0Zm-0.54,0,0,0-0.1,0-0.07-.06a0.08,0.08,0,0,1,0-.06h0a0.07,0.07,0,0,0,0,.06l0.06,0.06a0.31,0.31,0,0,0,.13,0l-0.06,0h0Zm-2.93,0h0a0.37,0.37,0,0,0,.24-0.19,0.19,0.19,0,0,0,0-.14,0.37,0.37,0,0,0,.25-0.09h0.12a0.24,0.24,0,0,0,.19,0,0.3,0.3,0,0,1,.17,0h0.1l0.15,0h0.09l0.09,0a0.19,0.19,0,0,1,.11,0,0.34,0.34,0,0,0,.24-0.06l0.08,0a1.58,1.58,0,0,0,1,.08c0.38-.07.46,0.09,0.46,0.22a0.11,0.11,0,0,1-.12.13,0.81,0.81,0,0,1-.24,0l-0.09,0a0.09,0.09,0,0,0-.08.08h0l0,0.05a0.05,0.05,0,0,1,0-.05,0.08,0.08,0,0,1,.05-0.08,0.24,0.24,0,0,1,.12,0,0.62,0.62,0,0,0,.2,0c0.09,0,.15,0,0.15-0.12s-0.14-.27-0.46-0.21a1.59,1.59,0,0,1-1-.08l-0.08,0a0.36,0.36,0,0,1-.21.06,0.23,0.23,0,0,0-.13,0l-0.09,0H1122l-0.08,0-0.07,0h-0.1a0.28,0.28,0,0,0-.16,0,0.24,0.24,0,0,1-.19,0h-0.12a0.34,0.34,0,0,1-.23.09,0.39,0.39,0,0,1-.06.14,0.35,0.35,0,0,1-.25.19h0Zm-1.15-.19a0.2,0.2,0,0,1-.1,0l-0.12,0a0.09,0.09,0,0,1-.09,0l0,0c0,0.05,0,.05.06,0.06a0.25,0.25,0,0,1,.13,0,0.25,0.25,0,0,0,.11,0h0Zm0.51-.14a0.7,0.7,0,0,1-.51-0.17,0.33,0.33,0,0,0-.38-0.14l0,0.08-0.05,0,0-.06a0.34,0.34,0,0,1,.4.14,0.7,0.7,0,0,0,.5.17h0.12a0.22,0.22,0,0,0,.17,0,0.12,0.12,0,0,0,0-.11,0.38,0.38,0,0,1-.08-0.43,0.91,0.91,0,0,1,.38-0.32l0.1-.07a0.67,0.67,0,0,0,.57.29h0.1l0.23,0h0.24a1,1,0,0,0,.28,0,2.18,2.18,0,0,1,.87-0.07,0.66,0.66,0,0,0,.62-0.14c0-.12-0.2-0.16-0.58-0.1a1.88,1.88,0,0,1-1.36-.09,0.22,0.22,0,0,1-.07-0.17c0-.32.5-0.35,0.65-0.35a1.44,1.44,0,0,1,.37,0,1.82,1.82,0,0,0,.47.06,1,1,0,0,0,.28,0h0a1.47,1.47,0,0,1-.85.09,0.71,0.71,0,0,0-.72.17,0.19,0.19,0,0,0,.17.13,2.58,2.58,0,0,0,1,0,1.55,1.55,0,0,1,.33,0c0.37,0,.5.17,0.5,0.32a0.5,0.5,0,0,1-.63.33,1,1,0,0,0,.6.12,2.15,2.15,0,0,0,.37,0h0a2.37,2.37,0,0,1-.4,0,1,1,0,0,1-.6-0.13,0.53,0.53,0,0,0,.62-0.33c0-.25-0.34-0.38-0.82-0.28a2.56,2.56,0,0,1-1,0,0.19,0.19,0,0,1-.18-0.13,0.71,0.71,0,0,1,.73-0.17,1.55,1.55,0,0,0,.83-0.08,1.06,1.06,0,0,1-.24,0,1.89,1.89,0,0,1-.47-0.06,1.44,1.44,0,0,0-.36,0c-0.15,0-.64,0-0.64.34a0.22,0.22,0,0,0,.07.17,1.89,1.89,0,0,0,1.35.08c0.39-.06.59,0,0.59,0.11a0.66,0.66,0,0,1-.63.14,2.17,2.17,0,0,0-.87.07,1,1,0,0,1-.28,0h-0.24l-0.23,0h-0.1a0.67,0.67,0,0,1-.57-0.29l-0.1.07a0.92,0.92,0,0,0-.37.32,0.37,0.37,0,0,0,.08.42,0.12,0.12,0,0,1,0,.12,0.22,0.22,0,0,1-.18,0h-0.12Zm-0.76,0,0.07,0a0.18,0.18,0,0,0-.14,0,0.08,0.08,0,0,1-.09,0l0,0,0,0.09a0.19,0.19,0,0,1,.24,0h-0.14Z" transform="translate(-1092.39 -489.82)"/>
      <path class="f" d="M1120.17,498.08c-0.18-.07-0.24-0.07-0.2.07a0.48,0.48,0,0,0,.1.19,0.35,0.35,0,0,1,.09-0.26h0Z" transform="translate(-1092.39 -489.82)"/>
      <path d="M1120.08,498.35h0a0.47,0.47,0,0,1-.1-0.19,0.13,0.13,0,0,1,0-.11h0a0.08,0.08,0,0,0,0,.11,0.48,0.48,0,0,0,.1.18,0.34,0.34,0,0,1,.09-0.25l-0.13,0a0.44,0.44,0,0,1,.14,0,0.38,0.38,0,0,0-.09.26h0Z" transform="translate(-1092.39 -489.82)"/>
      <path class="f" d="M1120.72,498.08c0.18-.07.24-0.07,0.2,0.07a0.47,0.47,0,0,1-.1.19,0.35,0.35,0,0,0-.09-0.26h0Z" transform="translate(-1092.39 -489.82)"/>
      <path d="M1120.81,498.35h0a0.34,0.34,0,0,0-.09-0.25,0.4,0.4,0,0,1,.16-0.06l0,0a0.31,0.31,0,0,0-.18,0,0.31,0.31,0,0,1,.1.24,0.48,0.48,0,0,0,.1-0.18,0.25,0.25,0,0,0,0-.07,0.13,0.13,0,0,1,0,.08,0.47,0.47,0,0,1-.1.19h0Z" transform="translate(-1092.39 -489.82)"/>
      <path class="f" d="M1120.45,498a0.3,0.3,0,0,1,.38.35,1.89,1.89,0,0,1-.18.41,0.23,0.23,0,0,1-.39,0,1.93,1.93,0,0,1-.18-0.41,0.3,0.3,0,0,1,.37-0.35h0Z" transform="translate(-1092.39 -489.82)"/>
      <path d="M1120.45,498.86a0.17,0.17,0,0,1-.2-0.12,0.45,0.45,0,0,0-.11-0.22,0.23,0.23,0,0,1-.07-0.19,0.37,0.37,0,0,1,.08-0.27,0.55,0.55,0,0,1,.6,0,0.36,0.36,0,0,1,.08.27,0.24,0.24,0,0,1-.07.19,0.45,0.45,0,0,0-.11.22,0.17,0.17,0,0,1-.2.12h0Zm0-.87a0.41,0.41,0,0,0-.3.09,0.36,0.36,0,0,0-.07.26,0.23,0.23,0,0,0,.07.18,0.47,0.47,0,0,1,.11.23,0.22,0.22,0,0,0,.38,0,0.45,0.45,0,0,1,.11-0.23,0.23,0.23,0,0,0,.07-0.18,0.36,0.36,0,0,0-.07-0.26,0.41,0.41,0,0,0-.3-0.09h0Z" transform="translate(-1092.39 -489.82)"/>
      <path class="f" d="M1119.58,498.76a0.18,0.18,0,0,0-.17,0,1.34,1.34,0,0,0,.37.24,0.48,0.48,0,0,1-.14,0,0.68,0.68,0,0,0,.47.18c0.14,0,0,.07,0,0a1.07,1.07,0,0,1,.39.19,1,1,0,0,1-.11-0.5,0.8,0.8,0,0,1-.57-0.35,0.77,0.77,0,0,1-.24-0.48,0.21,0.21,0,0,0-.22-0.15c-0.06,0-.08.07,0,0.11a0.2,0.2,0,0,1,.13.14,0.16,0.16,0,0,0-.21-0.06,0.07,0.07,0,0,0,0,.11,0.52,0.52,0,0,1,.15.21c-0.1-.12-0.19-0.13-0.25-0.06a0.06,0.06,0,0,0,.07.1,2.94,2.94,0,0,1,.38.31h0Z" transform="translate(-1092.39 -489.82)"/>
      <path d="M1120.45,499.39h0a0.31,0.31,0,0,0-.24-0.13,0.27,0.27,0,0,1-.15-0.06h0a0.28,0.28,0,0,0,.15.05,0.31,0.31,0,0,1,.24.13,0.39,0.39,0,0,0-.06-0.19,0.31,0.31,0,0,1,0-.31,0.49,0.49,0,0,1-.42-0.21,1.1,1.1,0,0,0-.14-0.14,0.62,0.62,0,0,1-.22-0.38l0-.1a0.22,0.22,0,0,0-.19-0.15,0.1,0.1,0,0,0-.09.06l0.07,0.08a0.15,0.15,0,0,1,.09.12,0.24,0.24,0,0,0-.16-0.08l-0.07.08a0.15,0.15,0,0,1,.12.12,0.23,0.23,0,0,0,0,.1,0.17,0.17,0,0,0-.18,0c0.05-.06.11,0,0.18,0a0.18,0.18,0,0,1,0-.1,0.07,0.07,0,0,0-.06-0.07h0l-0.06,0,0.08-.1a0.21,0.21,0,0,1,.15.08,0.16,0.16,0,0,0-.09-0.11l-0.07-.08a0.09,0.09,0,0,1,.06-0.06,0.23,0.23,0,0,1,.23.15l0,0.1a0.61,0.61,0,0,0,.21.38,1,1,0,0,1,.14.14,0.51,0.51,0,0,0,.42.21,0.32,0.32,0,0,0,0,.31,0.37,0.37,0,0,1,.06.2h0Zm-0.31-.21h0a0.8,0.8,0,0,1-.53-0.19h0.07a0.52,0.52,0,0,1-.2-0.15,0.21,0.21,0,0,0-.1-0.08l0.09,0h-0.07a0.28,0.28,0,0,1,.09.08,0.47,0.47,0,0,0,.26.16h-0.09a0.53,0.53,0,0,0,.42.16s0.07,0,.07,0h0Zm-0.59-.44a0.83,0.83,0,0,1-.17-0.16,0.38,0.38,0,0,0-.17-0.14,0.08,0.08,0,0,1-.08,0v0c0,0.06,0,.06.06,0.07a0.3,0.3,0,0,1,.19.14,0.78,0.78,0,0,0,.17.17h0Z" transform="translate(-1092.39 -489.82)"/>
      <path class="f" d="M1122.33,499.73a0.52,0.52,0,0,1-.11.11,0.48,0.48,0,0,0,.34-0.11,0.15,0.15,0,0,0-.06.11,0.62,0.62,0,0,1,.42-0.06,0.14,0.14,0,0,0,.17-0.1c0-.07,0-0.11-0.07-0.17a0.31,0.31,0,0,1-.06-0.27,0.51,0.51,0,0,0-.85,0,0.46,0.46,0,0,0,.38.23c0.16,0,.27,0,0.16.12a1.05,1.05,0,0,1-.32,0,1.29,1.29,0,0,0-.48-0.09c-0.07.09,0,.13,0.14,0.12-0.09,0-.22,0-0.2.08s0.18,0,.23,0a0.1,0.1,0,0,0-.12.06s0.11,0.1.22,0a0.37,0.37,0,0,1,.2-0.07h0Z" transform="translate(-1092.39 -489.82)"/>
      <path d="M1122,499.86a0.12,0.12,0,0,1-.09,0v0c0.05,0.07.11,0.08,0.21,0a0.34,0.34,0,0,1,.2-0.07,0.19,0.19,0,0,1-.11.11,0.53,0.53,0,0,0,.33-0.1,0.29,0.29,0,0,0,0,.1,0.6,0.6,0,0,1,.42-0.07,0.15,0.15,0,0,0,.16-0.09,0.12,0.12,0,0,0,0-.16,0.31,0.31,0,0,1-.08-0.29,0.57,0.57,0,0,0-.46-0.23,0.36,0.36,0,0,0-.38.2,0.44,0.44,0,0,0,.32.22l0.12,0a0.19,0.19,0,0,1,.14,0,0.08,0.08,0,0,1,0,.07,0.32,0.32,0,0,1-.16,0h-0.16a0.66,0.66,0,0,1-.31-0.08l-0.07,0,0.07,0a0.63,0.63,0,0,0,.29.08h0.18a0.32,0.32,0,0,0,.16,0,0.09,0.09,0,0,0,0-.06,0.21,0.21,0,0,0-.13,0l-0.12,0h0a0.45,0.45,0,0,1-.33-0.22,0.37,0.37,0,0,1,.39-0.21,0.58,0.58,0,0,1,.47.24,0.3,0.3,0,0,0,.06.27c0.07,0.07.11,0.11,0.07,0.18a0.14,0.14,0,0,1-.13.11l-0.18,0a0.47,0.47,0,0,0-.29.07,0.14,0.14,0,0,1,0-.1,0.44,0.44,0,0,1-.33.1,0.1,0.1,0,0,0,.06-0.06s-0.09,0-.15,0a0.21,0.21,0,0,1-.13.05h0Zm-0.14-.23h0.06a0.1,0.1,0,0,1-.09,0,0.08,0.08,0,0,1,0-.08h0c-0.06,0-.07.07-0.06,0.09a0.14,0.14,0,0,0,.13,0h-0.1Z" transform="translate(-1092.39 -489.82)"/>
      <path class="f" d="M1123.48,501.81a0.49,0.49,0,0,0-.07.08,0.23,0.23,0,0,0,.23-0.11,0.19,0.19,0,0,0,0,.09,0.14,0.14,0,0,0,.1-0.18,0.18,0.18,0,0,0,.1.05,0.84,0.84,0,0,0-.12-0.25,0.16,0.16,0,0,1,.12.09,0.33,0.33,0,0,0-.12-0.25,0.07,0.07,0,0,0,.08,0,0.16,0.16,0,0,1-.07-0.14c0-.06,0-0.07-0.09-0.05a1.43,1.43,0,0,1-.27,0,0.66,0.66,0,0,1-.44-0.1,0.35,0.35,0,0,0,.46-0.26c0-.18-0.2-0.33-0.61-0.23a0.93,0.93,0,0,1-.9-0.09c0-.15.36-0.17,0.54-0.14a1,1,0,0,0,.65-0.08,1.08,1.08,0,0,1-.57,0c-0.21-.07-0.74-0.07-0.75.25s0.56,0.28,1.05.21c0.29,0,.43,0,0.43.09a0.46,0.46,0,0,1-.46.11,1.44,1.44,0,0,0-.64.06,4.15,4.15,0,0,1-.56,0,0.48,0.48,0,0,1-.49-0.23,1,1,0,0,0-.35.31,0.34,0.34,0,0,0,.06.34c0.09,0.14,0,.12-0.15.13a0.51,0.51,0,0,1-.42-0.13c-0.09-.11-0.2-0.19-0.29-0.11a0,0,0,0,0,0,.08,0.17,0.17,0,0,1,.12,0,0.15,0.15,0,0,0-.16,0s0,0.11.05,0.08a0.13,0.13,0,0,1,.15,0,0.13,0.13,0,0,0-.13,0s0,0.07,0,.07a1.45,1.45,0,0,0,.2,0,0.14,0.14,0,0,0-.1.06,2.65,2.65,0,0,1,.28,0,0.17,0.17,0,0,0-.11.1,0.85,0.85,0,0,0,.49-0.11,0.16,0.16,0,0,1,0,.13,0.45,0.45,0,0,0,.28-0.19,0.1,0.1,0,0,1,0,.11,0.21,0.21,0,0,0,.21-0.15,0.16,0.16,0,0,0,0-.12,0.23,0.23,0,0,0,.19-0.07,1.36,1.36,0,0,0,.23,0,0.79,0.79,0,0,1,.25,0c0.06,0,.13,0,0.19,0a0.64,0.64,0,0,0,.25-0.07,1.1,1.1,0,0,0,.8.09c0.26-.05.34,0,0.34,0.17a0.08,0.08,0,0,1-.08.1c-0.15,0-.21-0.06-0.26,0a0.06,0.06,0,0,0,0,.11,0.06,0.06,0,0,0,0,.09,0.15,0.15,0,0,0,.12,0c-0.05,0-.11.07-0.08,0.12s0.07,0.06.11,0a0.23,0.23,0,0,1,.18-0.11h0Z" transform="translate(-1092.39 -489.82)"/>
      <path d="M1123.25,502l-0.05,0a0.21,0.21,0,0,1,0,0l0,0.06a0.07,0.07,0,0,0,.06,0,0.25,0.25,0,0,1,.17-0.11h0a0.28,0.28,0,0,0-.16.11,0.08,0.08,0,0,1-.06,0h0Zm-2.46-.07a0.18,0.18,0,0,0,0-.14c0,0.08-.1.09-0.18,0.09h-0.19a0.14,0.14,0,0,0-.11,0,0.09,0.09,0,0,1,0-.07,0.15,0.15,0,0,0,0,.07,0.12,0.12,0,0,1,.11,0h0.19c0.13,0,.18,0,0.18-0.09a0.13,0.13,0,0,1,0,.14l0.06,0a0.3,0.3,0,0,0,.21-0.16,0.12,0.12,0,0,1,0,.08,0.34,0.34,0,0,0,0-.08,0.29,0.29,0,0,1-.21.16l-0.07,0h0Zm2.84,0h0a0.18,0.18,0,0,0,.1-0.1,0.09,0.09,0,0,0,0-.08,0.25,0.25,0,0,0,.1,0,0.13,0.13,0,0,1,0-.1,0.19,0.19,0,0,0-.08-0.15,0.15,0.15,0,0,1,.13.09,0.36,0.36,0,0,0-.12-0.24,0.3,0.3,0,0,1,.12.25,0.18,0.18,0,0,0-.12-0.09,0.18,0.18,0,0,1,.08.14,0.16,0.16,0,0,0,0,.1,0.16,0.16,0,0,1-.1,0,0.08,0.08,0,0,1,0,.07,0.19,0.19,0,0,1-.11.11h0Zm-2.57-.06h0a0.28,0.28,0,0,0,.17-0.15,0.15,0.15,0,0,0,0-.11,0.26,0.26,0,0,0,.19-0.08h0a0.33,0.33,0,0,1-.21.08,0.25,0.25,0,0,1,0,.12,0.26,0.26,0,0,1-.18.15h0Zm2.11-.08,0,0a0.07,0.07,0,0,1,0-.06h0.09a0.4,0.4,0,0,0,.15,0,0.09,0.09,0,0,0,.11-0.1c0-.15-0.1-0.22-0.34-0.17a2.22,2.22,0,0,0-1,0,0.17,0.17,0,0,0-.09,0h0l-0.28,0a0.23,0.23,0,0,0-.16,0l-0.08,0-0.08,0h0a0.17,0.17,0,0,0,.14,0,0.21,0.21,0,0,1,.13,0h0.07l0.25,0h0a0.21,0.21,0,0,1,.08,0,0.23,0.23,0,0,0,.17,0,1.13,1.13,0,0,0,.8.09c0.29-.06.35,0.07,0.35,0.18a0.08,0.08,0,0,1-.09.1l-0.18,0h-0.09l0,0.06,0,0h0Zm-2.58-.19a0.49,0.49,0,0,1-.38-0.14,0.27,0.27,0,0,0-.26-0.13c0.11-.1.21,0.06,0.26,0.13a0.49,0.49,0,0,0,.37.13h0.09a0.17,0.17,0,0,0,.13,0,0.1,0.1,0,0,0,0-.09,0.34,0.34,0,0,1-.06-0.35,0.73,0.73,0,0,1,.28-0.27l0.08-.05a0.49,0.49,0,0,0,.42.24l0.24,0h0.18a0.64,0.64,0,0,0,.21,0,1.43,1.43,0,0,1,.65-0.06,0.46,0.46,0,0,0,.46-0.11c0-.1-0.15-0.13-0.43-0.08a1.5,1.5,0,0,1-1-.06,0.2,0.2,0,0,1-.06-0.15c0-.27.37-0.29,0.48-0.29a1,1,0,0,1,.27,0,1.18,1.18,0,0,0,.56,0h0a1,1,0,0,1-.62.07c-0.18,0-.53,0-0.53.13a0.15,0.15,0,0,0,.13.1,1.75,1.75,0,0,0,.77,0c0.41-.1.61,0.08,0.61,0.23a0.37,0.37,0,0,1-.47.27,0.71,0.71,0,0,0,.44.1,1.36,1.36,0,0,0,.27,0h0a1.36,1.36,0,0,1-.27,0,0.67,0.67,0,0,1-.44-0.1,0.39,0.39,0,0,0,.46-0.27c0-.21-0.25-0.31-0.6-0.22a1.74,1.74,0,0,1-.77,0,0.15,0.15,0,0,1-.13-0.11c0-.15.35-0.17,0.54-0.14a1,1,0,0,0,.6-0.06,1.08,1.08,0,0,1-.52,0,1,1,0,0,0-.27,0c-0.11,0-.47,0-0.47.28a0.19,0.19,0,0,0,.05.14,1.49,1.49,0,0,0,1,.06c0.29,0,.44,0,0.44.09a0.46,0.46,0,0,1-.47.12,1.44,1.44,0,0,0-.64.06,0.65,0.65,0,0,1-.21,0h-0.18l-0.17,0h-0.07a0.48,0.48,0,0,1-.42-0.24l-0.07.06a0.7,0.7,0,0,0-.28.26,0.33,0.33,0,0,0,.06.34,0.11,0.11,0,0,1,0,.1,0.17,0.17,0,0,1-.13,0h-0.09Z" transform="translate(-1092.39 -489.82)"/>
      <path class="f" d="M1120.61,500.46c-0.13-.06-0.17-0.06-0.14.05a0.38,0.38,0,0,0,.08.15,0.3,0.3,0,0,1,.07-0.21h0Z" transform="translate(-1092.39 -489.82)"/>
      <path d="M1120.54,500.68h0a0.4,0.4,0,0,1-.08-0.15,0.11,0.11,0,0,1,0-.09h0a0.07,0.07,0,0,0,0,.09,0.41,0.41,0,0,0,.07.14,0.3,0.3,0,0,1,.07-0.2l-0.11,0,0.12,0a0.33,0.33,0,0,0-.07.21h0Z" transform="translate(-1092.39 -489.82)"/>
      <path class="f" d="M1121,500.46c0.13-.06.18-0.06,0.15,0.05a0.41,0.41,0,0,1-.08.15,0.3,0.3,0,0,0-.07-0.21h0Z" transform="translate(-1092.39 -489.82)"/>
      <path d="M1121.08,500.68h0a0.31,0.31,0,0,0-.07-0.21,0.28,0.28,0,0,1,.12,0h0a0.25,0.25,0,0,0-.14,0,0.27,0.27,0,0,1,.07.2,0.43,0.43,0,0,0,.07-0.14,0.18,0.18,0,0,0,0-.07,0.1,0.1,0,0,1,0,.07,0.42,0.42,0,0,1-.08.15h0Z" transform="translate(-1092.39 -489.82)"/>
      <path class="f" d="M1120.81,500.38a0.24,0.24,0,0,1,.28.29,1.66,1.66,0,0,1-.13.33,0.12,0.12,0,0,1-.14.09,0.12,0.12,0,0,1-.14-0.09,1.63,1.63,0,0,1-.13-0.33,0.24,0.24,0,0,1,.28-0.29h0Z" transform="translate(-1092.39 -489.82)"/>
      <path d="M1120.81,501.09a0.12,0.12,0,0,1-.15-0.09,0.38,0.38,0,0,0-.08-0.18,0.21,0.21,0,0,1-.05-0.15,0.24,0.24,0,0,1,.28-0.29,0.29,0.29,0,0,1,.22.07,0.3,0.3,0,0,1,.06.22,0.2,0.2,0,0,1-.05.15,0.38,0.38,0,0,0-.08.18,0.12,0.12,0,0,1-.15.09h0Zm0-.71a0.23,0.23,0,0,0-.27.28,0.19,0.19,0,0,0,0,.15,0.39,0.39,0,0,1,.08.19,0.14,0.14,0,0,0,.28,0,0.39,0.39,0,0,1,.08-0.18,0.2,0.2,0,0,0,0-.15,0.3,0.3,0,0,0-.06-0.22,0.29,0.29,0,0,0-.21-0.06h0Z" transform="translate(-1092.39 -489.82)"/>
      <path class="f" d="M1120.18,501a0.12,0.12,0,0,0-.13,0,1,1,0,0,0,.27.19,0.37,0.37,0,0,1-.11,0,0.47,0.47,0,0,0,.34.15c0.1,0,0,.06,0,0a0.75,0.75,0,0,1,.29.16,0.87,0.87,0,0,1-.08-0.41,0.59,0.59,0,0,1-.42-0.29,0.64,0.64,0,0,1-.18-0.39,0.15,0.15,0,0,0-.17-0.12s-0.06.06,0,.09a0.16,0.16,0,0,1,.1.12,0.11,0.11,0,0,0-.16,0,0.05,0.05,0,0,0,0,.09,0.44,0.44,0,0,1,.11.17c-0.08-.09-0.14-0.1-0.18-0.05a0.05,0.05,0,0,0,.05.08,2.28,2.28,0,0,1,.28.26h0Z" transform="translate(-1092.39 -489.82)"/>
      <path d="M1120.82,501.52h0a0.22,0.22,0,0,0-.18-0.11,0.19,0.19,0,0,1-.12-0.05h0a0.08,0.08,0,0,0,.08,0,0.24,0.24,0,0,1,.17.1,0.36,0.36,0,0,0,0-.15,0.27,0.27,0,0,1,0-.25,0.35,0.35,0,0,1-.31-0.17,0.76,0.76,0,0,0-.11-0.11,0.51,0.51,0,0,1-.16-0.31l0-.08a0.16,0.16,0,0,0-.14-0.12l-0.06,0,0,0.06a0.12,0.12,0,0,1,.07.1l-0.07-.05a0.14,0.14,0,0,1,.07.05,0.12,0.12,0,0,0-.07-0.09l-0.05-.07,0.07-.05a0.17,0.17,0,0,1,.15.13l0,0.08a0.5,0.5,0,0,0,.16.3l0.11,0.12a0.37,0.37,0,0,0,.31.17,0.28,0.28,0,0,0,0,.25,0.32,0.32,0,0,1,0,.16h0Zm-0.26-.18a0.54,0.54,0,0,1-.34-0.15h0a0.46,0.46,0,0,0,.33.14v0h0Zm-0.24-.15h0a0.33,0.33,0,0,1-.17-0.12A0.15,0.15,0,0,0,1120,501h0l0.06,0.06a0.35,0.35,0,0,0,.19.13h0Zm-0.16-.2a0.46,0.46,0,0,1-.13-0.13,0.24,0.24,0,0,0-.12-0.11l-0.07,0,0.07-.09a0.15,0.15,0,0,1,.1.05,0.13,0.13,0,0,1,0-.07,0.05,0.05,0,0,0,0-.06v0a0.1,0.1,0,0,1,.06.08,0.06,0.06,0,1,1-.07,0l-0.06.07a0.33,0.33,0,0,1,.19.14,0.65,0.65,0,0,0,.13.13h0Z" transform="translate(-1092.39 -489.82)"/>
      <path class="f" d="M1122.21,501.8a0.37,0.37,0,0,1-.08.08,0.34,0.34,0,0,0,.25-0.09,0.13,0.13,0,0,0,0,.09,0.41,0.41,0,0,1,.31-0.05c0.09,0,.1,0,0.13-0.09s0-.09-0.05-0.14a0.27,0.27,0,0,1,0-.22,0.36,0.36,0,0,0-.63,0,0.34,0.34,0,0,0,.29.19c0.12,0,.2,0,0.12.1a0.7,0.7,0,0,1-.24,0,0.84,0.84,0,0,0-.36-0.07c0,0.07,0,.1.1,0.1-0.07,0-.16,0-0.15.07s0.13,0,.17,0a0.08,0.08,0,0,0-.09.05s0.08,0.08.16,0a0.23,0.23,0,0,1,.15-0.06h0Z" transform="translate(-1092.39 -489.82)"/>
      <path d="M1122,501.9l-0.06,0a0.11,0.11,0,0,1,0,0l0.06,0a0.14,0.14,0,0,0,.09,0,0.24,0.24,0,0,1,.15-0.06h0a0.24,0.24,0,0,0-.14.06,0.15,0.15,0,0,1-.1,0h0Zm0.37,0a0.11,0.11,0,0,1,0-.08,0.31,0.31,0,0,1-.24.08h0a0.33,0.33,0,0,0,.23-0.08,0.26,0.26,0,0,0,0,.08,0.39,0.39,0,0,1,.31-0.05,0.1,0.1,0,0,0,.12-0.07,0.1,0.1,0,0,0,0-.13,0.27,0.27,0,0,1-.05-0.23c-0.18-.26-0.62-0.17-0.62,0a0.32,0.32,0,0,0,.24.18l0.09,0a0.14,0.14,0,0,1,.1,0l0,0c0-.06,0-0.06-0.07-0.07l-0.09,0h0a0.33,0.33,0,0,1-.24-0.18c0-.15.45-0.25,0.64,0a0.27,0.27,0,0,0,0,.22c0,0.05.08,0.09,0.05,0.14a0.11,0.11,0,0,1-.1.09h-0.13a0.33,0.33,0,0,0-.21.06h0Zm-0.48-.06,0-.1a0.12,0.12,0,0,1,.08,0,0.07,0.07,0,0,1-.06,0l0.06-.09,0.08,0a0.43,0.43,0,0,0,.21.06h0a0.48,0.48,0,0,1-.23-0.06l-0.08,0-0.05.08a0.1,0.1,0,0,0,.09,0,0.22,0.22,0,0,0-.11,0l0,0.09,0.11,0h0l0,0,0,0-0.07,0h0Z" transform="translate(-1092.39 -489.82)"/>
      <path class="a" d="M1122.73,496.59a0.58,0.58,0,0,0-.34,0Z" transform="translate(-1092.39 -489.82)"/>
      <path class="a" d="M1121.08,496.54a0.49,0.49,0,0,0,0,.38Z" transform="translate(-1092.39 -489.82)"/>
      <path class="a" d="M1120.12,495.62c0.06,0,.1-0.05.19,0s-0.06.07-.13,0Z" transform="translate(-1092.39 -489.82)"/>
      <path class="a" d="M1120.62,495.62c-0.06,0-.1-0.05-0.19,0s0.06,0.07.13,0Z" transform="translate(-1092.39 -489.82)"/>
      <path d="M1120.37,496a0.1,0.1,0,0,1-.08,0,0.18,0.18,0,0,1,0-.14l0-.06v0.06a0.19,0.19,0,0,0,0,.13,0.14,0.14,0,0,0,.15,0,0.19,0.19,0,0,0,0-.14l0-.09h0l0,0.1a0.19,0.19,0,0,1,0,.14,0.1,0.1,0,0,1-.08,0h0Z" transform="translate(-1092.39 -489.82)"/>
      <path class="g" d="M1120.37,496.24c0.1,0,.16,0,0.14-0.14a0.39,0.39,0,0,0,0-.17c0,0.11-.18.1-0.18,0.05s-0.21.06-.18-0.05a0.37,0.37,0,0,0,0,.17c0,0.14,0,.14.14,0.14h0Z" transform="translate(-1092.39 -489.82)"/>
      <path d="M1120.37,496.25a0.16,0.16,0,0,1-.13,0,0.15,0.15,0,0,1,0-.12,0.23,0.23,0,0,1,0-.17c0.06,0.16.18,0.09,0.18,0.05h0s0.1,0,.13,0-0.13,0-.13,0-0.14,0-.17,0l0,0.12a0.15,0.15,0,0,0,0,.11,0.21,0.21,0,0,0,.25,0,0.14,0.14,0,0,0,0-.11v0a0.15,0.15,0,0,1,0,.12,0.16,0.16,0,0,1-.12,0h0Z" transform="translate(-1092.39 -489.82)"/>
      <path class="a" d="M1120.28,496l-0.24-.07Z" transform="translate(-1092.39 -489.82)"/>
      <path class="a" d="M1120.28,496h0Z" transform="translate(-1092.39 -489.82)"/>
      <path class="a" d="M1120.29,496l-0.23.06Z" transform="translate(-1092.39 -489.82)"/>
      <path class="a" d="M1120.46,496l0.24-.07Z" transform="translate(-1092.39 -489.82)"/>
      <path class="a" d="M1120.46,496h0Z" transform="translate(-1092.39 -489.82)"/>
      <path class="a" d="M1120.46,496l0.23,0.06Z" transform="translate(-1092.39 -489.82)"/>
      <path class="a" d="M1122.56,499.12a0.51,0.51,0,0,0-.3,0Z" transform="translate(-1092.39 -489.82)"/>
      <path class="a" d="M1121.08,499.07a0.45,0.45,0,0,0,0,.34Z" transform="translate(-1092.39 -489.82)"/>
      <path class="a" d="M1120.22,498.25c0.05,0,.08-0.05.17,0s0,0.07-.11,0Z" transform="translate(-1092.39 -489.82)"/>
      <path class="a" d="M1120.67,498.25c-0.05,0-.09-0.05-0.17,0s0,0.07.11,0Z" transform="translate(-1092.39 -489.82)"/>
      <path d="M1120.44,498.54a0.09,0.09,0,0,1-.07,0,0.17,0.17,0,0,1,0-.13v0a0.16,0.16,0,0,0,0,.12l0.07,0,0.06,0a0.17,0.17,0,0,0,0-.12l0-.08h0l0,0.09a0.18,0.18,0,0,1,0,.13l-0.07,0h0Z" transform="translate(-1092.39 -489.82)"/>
      <path class="g" d="M1120.45,498.8c0.09,0,.14,0,0.13-0.13a0.34,0.34,0,0,0,0-.15c0,0.1-.17.09-0.17,0s-0.19.05-.17,0a0.36,0.36,0,0,0,0,.15c0,0.13,0,.13.13,0.13h0Z" transform="translate(-1092.39 -489.82)"/>
      <path d="M1120.45,498.8a0.15,0.15,0,0,1-.11,0,0.13,0.13,0,0,1,0-.1,0.21,0.21,0,0,1,0-.15c0.05,0.14.17,0.08,0.17,0h0s0.09,0,.12,0-0.12,0-.12,0-0.13,0-.16,0l0,0.1a0.13,0.13,0,0,0,0,.1,0.19,0.19,0,0,0,.22,0,0.14,0.14,0,0,0,0-.1h0a0.14,0.14,0,0,1,0,.1,0.15,0.15,0,0,1-.11,0h0Z" transform="translate(-1092.39 -489.82)"/>
      <path class="a" d="M1120.37,498.55l-0.22-.06Z" transform="translate(-1092.39 -489.82)"/>
      <path class="a" d="M1120.37,498.56h0Z" transform="translate(-1092.39 -489.82)"/>
      <path class="a" d="M1120.37,498.57l-0.21.05Z" transform="translate(-1092.39 -489.82)"/>
      <path class="a" d="M1120.53,498.55l0.21-.06Z" transform="translate(-1092.39 -489.82)"/>
      <path class="a" d="M1120.53,498.56h0Z" transform="translate(-1092.39 -489.82)"/>
      <path class="a" d="M1120.52,498.57l0.21,0.05Z" transform="translate(-1092.39 -489.82)"/>
      <path class="a" d="M1122.38,501.3a0.35,0.35,0,0,0-.22,0Z" transform="translate(-1092.39 -489.82)"/>
      <path class="a" d="M1121.28,501.26a0.38,0.38,0,0,0,0,.28v-0.28Z" transform="translate(-1092.39 -489.82)"/>
      <path class="a" d="M1120.64,500.59s0.06,0,.12,0,0,0.05-.08,0Z" transform="translate(-1092.39 -489.82)"/>
      <path class="a" d="M1121,500.59s-0.06,0-.12,0,0,0.05.08,0Z" transform="translate(-1092.39 -489.82)"/>
      <path d="M1120.86,500.82h-0.1a0.15,0.15,0,0,1,0-.11l0-.09v0.09a0.15,0.15,0,0,0,0,.1h0.09a0.15,0.15,0,0,0,0-.1v0a0.15,0.15,0,0,1,0,.11h0Z" transform="translate(-1092.39 -489.82)"/>
      <path class="g" d="M1120.81,501c0.07,0,.1,0,0.09-0.1a0.29,0.29,0,0,0,0-.12c0,0.08-.12.07-0.12,0s-0.14,0-.12,0a0.31,0.31,0,0,0,0,.13c0,0.1,0,.1.09,0.1h0Z" transform="translate(-1092.39 -489.82)"/>
      <path d="M1120.81,501a0.11,0.11,0,0,1-.08,0,0.09,0.09,0,0,1,0-.06,0.1,0.1,0,0,0,0,.06,0.13,0.13,0,0,0,.16,0,0.11,0.11,0,0,0,0-.08l0,0a0.26,0.26,0,0,1,0,.13,0.11,0.11,0,0,1-.08,0h0Z" transform="translate(-1092.39 -489.82)"/>
      <path class="a" d="M1120.75,500.84l-0.16,0Z" transform="translate(-1092.39 -489.82)"/>
      <path class="a" d="M1120.75,500.85h0Z" transform="translate(-1092.39 -489.82)"/>
      <path class="a" d="M1120.75,500.86l-0.15,0Z" transform="translate(-1092.39 -489.82)"/>
      <path class="a" d="M1120.87,500.84l0.16,0Z" transform="translate(-1092.39 -489.82)"/>
      <path class="a" d="M1120.87,500.85h0Z" transform="translate(-1092.39 -489.82)"/>
      <path class="a" d="M1120.87,500.86l0.15,0Z" transform="translate(-1092.39 -489.82)"/>
      <path class="h" d="M1119.13,495.24a0.15,0.15,0,0,0-.25.09,0.31,0.31,0,0,1,.21,0,0.07,0.07,0,0,0,0-.1h0Z" transform="translate(-1092.39 -489.82)"/>
      <path class="a" d="M1119.13,495.24a0.15,0.15,0,0,0-.25.09,0.31,0.31,0,0,1,.21,0A0.07,0.07,0,0,0,1119.13,495.24Z" transform="translate(-1092.39 -489.82)"/>
      <path class="h" d="M1119,495.45a0.15,0.15,0,0,0-.25.09,0.31,0.31,0,0,1,.21,0,0.07,0.07,0,0,0,0-.1h0Z" transform="translate(-1092.39 -489.82)"/>
      <path class="a" d="M1119,495.45a0.15,0.15,0,0,0-.25.09,0.31,0.31,0,0,1,.21,0A0.07,0.07,0,0,0,1119,495.45Z" transform="translate(-1092.39 -489.82)"/>
      <path class="h" d="M1119,495.72a0.15,0.15,0,0,0-.24.12,0.29,0.29,0,0,1,.21,0,0.07,0.07,0,0,0,0-.11h0Z" transform="translate(-1092.39 -489.82)"/>
      <path d="M1118.76,495.85a0.12,0.12,0,0,1,0-.09,0.15,0.15,0,0,1,.2,0v0c-0.07-.13-0.15-0.06-0.2,0a0.13,0.13,0,0,0,0,.09l0.06,0h0.07l-0.13,0h0Z" transform="translate(-1092.39 -489.82)"/>
      <path class="h" d="M1119.08,496.58a0.15,0.15,0,0,0-.22.15,0.31,0.31,0,0,1,.21,0,0.07,0.07,0,0,0,0-.11h0Z" transform="translate(-1092.39 -489.82)"/>
      <path d="M1118.86,496.73h0a0.13,0.13,0,0,1,0-.11,0.18,0.18,0,0,1,.13-0.07l0.08,0.07a0.09,0.09,0,0,1,0,.07h0a0.08,0.08,0,0,0,.05-0.07l-0.08-.06a0.17,0.17,0,0,0-.12.06,0.13,0.13,0,0,0,0,.1,0.07,0.07,0,0,1,.07,0H1119c-0.09,0-.11,0-0.12,0h0Z" transform="translate(-1092.39 -489.82)"/>
      <path class="h" d="M1119.07,496.77a0.15,0.15,0,0,0-.16.21,0.3,0.3,0,0,1,.18-0.1,0.07,0.07,0,0,0,0-.11h0Z" transform="translate(-1092.39 -489.82)"/>
      <path class="a" d="M1119.07,496.77a0.15,0.15,0,0,0-.16.21,0.3,0.3,0,0,1,.18-0.1A0.07,0.07,0,0,0,1119.07,496.77Z" transform="translate(-1092.39 -489.82)"/>
      <path class="h" d="M1119.21,496.91a0.15,0.15,0,0,0-.17.21,0.31,0.31,0,0,1,.18-0.1,0.07,0.07,0,0,0,0-.11h0Z" transform="translate(-1092.39 -489.82)"/>
      <path class="a" d="M1119.21,496.91a0.15,0.15,0,0,0-.17.21,0.31,0.31,0,0,1,.18-0.1A0.07,0.07,0,0,0,1119.21,496.91Z" transform="translate(-1092.39 -489.82)"/>
      <path class="h" d="M1121.95,497.18a0.15,0.15,0,0,0-.16.21,0.3,0.3,0,0,1,.18-0.1,0.07,0.07,0,0,0,0-.11h0Z" transform="translate(-1092.39 -489.82)"/>
      <path class="a" d="M1121.95,497.18a0.15,0.15,0,0,0-.16.21,0.3,0.3,0,0,1,.18-0.1A0.07,0.07,0,0,0,1121.95,497.18Z" transform="translate(-1092.39 -489.82)"/>
      <path class="h" d="M1122.09,497.3a0.15,0.15,0,0,0-.14.23,0.3,0.3,0,0,1,.17-0.12,0.08,0.08,0,0,0,0-.11h0Z" transform="translate(-1092.39 -489.82)"/>
      <path d="M1121.95,497.53h0a0.14,0.14,0,0,1,0-.14,0.14,0.14,0,0,1,.12-0.08l0,0a0.11,0.11,0,0,0-.14.06,0.14,0.14,0,0,0,0,.14,0.1,0.1,0,0,1,.1-0.08,0.13,0.13,0,0,0,.07,0v0a0.13,0.13,0,0,1-.07,0,0.1,0.1,0,0,0-.1.08h0Z" transform="translate(-1092.39 -489.82)"/>
      <path class="h" d="M1122,497a0.15,0.15,0,0,0-.2.18,0.31,0.31,0,0,1,.2-0.07,0.07,0.07,0,0,0,0-.11h0Z" transform="translate(-1092.39 -489.82)"/>
      <path class="a" d="M1122,497a0.15,0.15,0,0,0-.2.18,0.31,0.31,0,0,1,.2-0.07A0.07,0.07,0,0,0,1122,497Z" transform="translate(-1092.39 -489.82)"/>
      <path class="h" d="M1123.94,497.22a0.15,0.15,0,0,0-.14.23,0.3,0.3,0,0,1,.17-0.12,0.07,0.07,0,0,0,0-.11h0Z" transform="translate(-1092.39 -489.82)"/>
      <path d="M1123.8,497.45h0a0.14,0.14,0,0,1,0-.14,0.14,0.14,0,0,1,.12-0.08l0,0a0.11,0.11,0,0,0-.15.06,0.14,0.14,0,0,0,0,.14,0.1,0.1,0,0,1,.1-0.08,0.12,0.12,0,0,0,.07,0v0a0.11,0.11,0,0,1-.07,0,0.1,0.1,0,0,0-.1.08h0Z" transform="translate(-1092.39 -489.82)"/>
      <path class="h" d="M1123.94,497a0.15,0.15,0,0,0-.19.19,0.31,0.31,0,0,1,.2-0.07,0.07,0.07,0,0,0,0-.11h0Z" transform="translate(-1092.39 -489.82)"/>
      <path class="a" d="M1123.94,497a0.15,0.15,0,0,0-.19.19,0.31,0.31,0,0,1,.2-0.07A0.07,0.07,0,0,0,1123.94,497Z" transform="translate(-1092.39 -489.82)"/>
      <path class="h" d="M1124,497.37a0.15,0.15,0,0,0-.13.23,0.31,0.31,0,0,1,.17-0.13,0.07,0.07,0,0,0,0-.11h0Z" transform="translate(-1092.39 -489.82)"/>
      <path d="M1123.89,497.6h0a0.14,0.14,0,0,1,0-.15,0.14,0.14,0,0,1,.12-0.09l0,0a0.11,0.11,0,0,0-.14.06,0.14,0.14,0,0,0,0,.15,0.11,0.11,0,0,1,.1-0.09,0.12,0.12,0,0,0,.07,0v0a0.13,0.13,0,0,1-.07,0,0.1,0.1,0,0,0-.1.09h0Z" transform="translate(-1092.39 -489.82)"/>
      <path class="h" d="M1120.38,496.16c0.07,0,.1,0,0.1.14s0,0.38-.09.38-0.08-.11-0.08-0.3,0-.15,0-0.14,0-.08.09-0.08h0Z" transform="translate(-1092.39 -489.82)"/>
      <path d="M1120.39,496.68l0,0a0.43,0.43,0,0,1,0-.25,1.44,1.44,0,0,0,0-.16,0.64,0.64,0,0,1,0,.13,0.5,0.5,0,0,0,0,.28l0,0c0.08,0,.09-0.12.09-0.37s0-.14-0.1-0.14a0.09,0.09,0,0,0-.08,0c0-.06.17-0.08,0.17,0.12s0,0.38-.09.38h0Z" transform="translate(-1092.39 -489.82)"/>
      <path class="h" d="M1119.33,497.9a0.14,0.14,0,0,0-.22.08,0.28,0.28,0,0,1,.19,0,0.07,0.07,0,0,0,0-.09h0Z" transform="translate(-1092.39 -489.82)"/>
      <path class="a" d="M1119.33,497.9a0.14,0.14,0,0,0-.22.08,0.28,0.28,0,0,1,.19,0A0.07,0.07,0,0,0,1119.33,497.9Z" transform="translate(-1092.39 -489.82)"/>
      <path class="h" d="M1119.25,498.09a0.14,0.14,0,0,0-.22.09,0.27,0.27,0,0,1,.19,0,0.07,0.07,0,0,0,0-.09h0Z" transform="translate(-1092.39 -489.82)"/>
      <path class="a" d="M1119.25,498.09a0.14,0.14,0,0,0-.22.09,0.27,0.27,0,0,1,.19,0A0.07,0.07,0,0,0,1119.25,498.09Z" transform="translate(-1092.39 -489.82)"/>
      <path class="h" d="M1119.2,498.34a0.14,0.14,0,0,0-.21.11,0.28,0.28,0,0,1,.19,0,0.06,0.06,0,0,0,0-.1h0Z" transform="translate(-1092.39 -489.82)"/>
      <path d="M1119,498.45a0.11,0.11,0,0,1,0-.08,0.13,0.13,0,0,1,.18,0h0c-0.06-.1-0.13,0-0.18,0a0.11,0.11,0,0,0,0,.08l0.05,0h0.06l-0.11,0h0Z" transform="translate(-1092.39 -489.82)"/>
      <path class="h" d="M1119.28,499.11a0.14,0.14,0,0,0-.2.13,0.28,0.28,0,0,1,.19,0,0.07,0.07,0,0,0,0-.1h0Z" transform="translate(-1092.39 -489.82)"/>
      <path class="a" d="M1119.28,499.11a0.14,0.14,0,0,0-.2.13,0.28,0.28,0,0,1,.19,0A0.07,0.07,0,0,0,1119.28,499.11Z" transform="translate(-1092.39 -489.82)"/>
      <path class="h" d="M1119.28,499.27a0.14,0.14,0,0,0-.15.19,0.27,0.27,0,0,1,.16-0.09,0.07,0.07,0,0,0,0-.1h0Z" transform="translate(-1092.39 -489.82)"/>
      <path d="M1119.13,499.46h0a0.12,0.12,0,0,1,0-.12,0.14,0.14,0,0,1,.11-0.07h0a0.13,0.13,0,0,0-.12.07,0.12,0.12,0,0,0,0,.12,0.09,0.09,0,0,1,.1-0.06h0a0.09,0.09,0,0,0-.1.06h0Z" transform="translate(-1092.39 -489.82)"/>
      <path class="h" d="M1119.4,499.4a0.14,0.14,0,0,0-.15.19,0.27,0.27,0,0,1,.16-0.09,0.06,0.06,0,0,0,0-.1h0Z" transform="translate(-1092.39 -489.82)"/>
      <path d="M1119.25,499.59h0a0.12,0.12,0,0,1,0-.12,0.13,0.13,0,0,1,.11-0.07h0a0.13,0.13,0,0,0-.12.07,0.12,0.12,0,0,0,0,.12,0.1,0.1,0,0,1,.1-0.06h0a0.09,0.09,0,0,0-.1.06h0Z" transform="translate(-1092.39 -489.82)"/>
      <path class="h" d="M1121.86,499.64a0.14,0.14,0,0,0-.15.19,0.27,0.27,0,0,1,.17-0.09,0.07,0.07,0,0,0,0-.1h0Z" transform="translate(-1092.39 -489.82)"/>
      <path d="M1121.71,499.83h0a0.12,0.12,0,0,1,0-.12,0.13,0.13,0,0,1,.11-0.07h0a0.13,0.13,0,0,0-.11.07,0.12,0.12,0,0,0,0,.12,0.1,0.1,0,0,1,.1-0.06,0.1,0.1,0,0,0,.07,0h0a0.11,0.11,0,0,1-.07,0,0.09,0.09,0,0,0-.1.06h0Z" transform="translate(-1092.39 -489.82)"/>
      <path class="h" d="M1122,499.76a0.14,0.14,0,0,0-.13.2,0.28,0.28,0,0,1,.15-0.11,0.07,0.07,0,0,0,0-.1h0Z" transform="translate(-1092.39 -489.82)"/>
      <path d="M1121.86,500h0a0.14,0.14,0,0,1,.11-0.2h0a0.12,0.12,0,0,0-.1.07,0.13,0.13,0,0,0,0,.13,0.1,0.1,0,0,1,.09-0.07,0.1,0.1,0,0,0,.06,0h0a0.1,0.1,0,0,1-.06,0,0.09,0.09,0,0,0-.09.07h0Z" transform="translate(-1092.39 -489.82)"/>
      <path class="h" d="M1121.9,499.48a0.14,0.14,0,0,0-.18.16,0.27,0.27,0,0,1,.18-0.06,0.06,0.06,0,0,0,0-.1h0Z" transform="translate(-1092.39 -489.82)"/>
      <path d="M1121.72,499.64h0a0.12,0.12,0,0,1,0-.11,0.14,0.14,0,0,1,.11-0.06h0a0.13,0.13,0,0,0-.12.06,0.12,0.12,0,0,0,0,.11,0.09,0.09,0,0,1,.09,0h0c-0.07,0-.1,0-0.12,0h0Z" transform="translate(-1092.39 -489.82)"/>
      <path class="h" d="M1123.65,499.68a0.14,0.14,0,0,0-.13.2,0.28,0.28,0,0,1,.15-0.11,0.07,0.07,0,0,0,0-.1h0Z" transform="translate(-1092.39 -489.82)"/>
      <path d="M1123.53,499.88h0a0.14,0.14,0,0,1,.11-0.21h0a0.14,0.14,0,0,0-.11.2,0.09,0.09,0,0,1,.09-0.07,0.12,0.12,0,0,0,.07,0h0a0.11,0.11,0,0,1-.06,0,0.09,0.09,0,0,0-.09.07h0Z" transform="translate(-1092.39 -489.82)"/>
      <path class="h" d="M1123.66,499.53a0.14,0.14,0,0,0-.17.17,0.27,0.27,0,0,1,.17-0.07,0.06,0.06,0,0,0,0-.1h0Z" transform="translate(-1092.39 -489.82)"/>
      <path d="M1123.48,499.69h0a0.11,0.11,0,0,1,0-.11,0.14,0.14,0,0,1,.11-0.07h0a0.12,0.12,0,0,0-.12.06,0.12,0.12,0,0,0,0,.11,0.09,0.09,0,0,1,.1,0h0a0.09,0.09,0,0,0-.1.05h0Z" transform="translate(-1092.39 -489.82)"/>
      <path class="h" d="M1123.72,499.82a0.14,0.14,0,0,0-.12.21,0.28,0.28,0,0,1,.15-0.12,0.07,0.07,0,0,0,0-.09h0Z" transform="translate(-1092.39 -489.82)"/>
      <path d="M1123.61,500h0a0.13,0.13,0,0,1,0-.13,0.12,0.12,0,0,1,.1-0.08h0a0.12,0.12,0,0,0-.1.07,0.13,0.13,0,0,0,0,.13,0.09,0.09,0,0,1,.09-0.08,0.12,0.12,0,0,0,.06,0h0a0.11,0.11,0,0,1-.06,0,0.09,0.09,0,0,0-.08.08h0Z" transform="translate(-1092.39 -489.82)"/>
      <path class="h" d="M1120.45,498.73c0.06,0,.09,0,0.09.13s0,0.34-.08.34-0.07-.1-0.07-0.27,0-.13,0-0.13,0-.07.08-0.07h0Z" transform="translate(-1092.39 -489.82)"/>
      <path d="M1120.46,499.2l0,0a0.39,0.39,0,0,1,0-.22,1.21,1.21,0,0,0,0-.14,0.63,0.63,0,0,1,0,.11,0.46,0.46,0,0,0,0,.26h0c0.08,0,.08-0.1.08-0.34s-0.12-.16-0.16-0.11,0.16-.07.16,0.11,0,0.34-.08.34h0Z" transform="translate(-1092.39 -489.82)"/>
      <path class="h" d="M1120,500.31a0.1,0.1,0,0,0-.17.07c0-.05.1,0,0.14,0a0.06,0.06,0,0,0,0-.08h0Z" transform="translate(-1092.39 -489.82)"/>
      <path class="a" d="M1120,500.31a0.1,0.1,0,0,0-.17.07c0-.05.1,0,0.14,0A0.06,0.06,0,0,0,1120,500.31Z" transform="translate(-1092.39 -489.82)"/>
      <path class="h" d="M1119.93,500.46a0.1,0.1,0,0,0-.17.07c0-.05.1,0,0.14,0a0.06,0.06,0,0,0,0-.08h0Z" transform="translate(-1092.39 -489.82)"/>
      <path class="a" d="M1119.93,500.46a0.1,0.1,0,0,0-.17.07c0-.05.1,0,0.14,0A0.06,0.06,0,0,0,1119.93,500.46Z" transform="translate(-1092.39 -489.82)"/>
      <path class="h" d="M1119.89,500.67c-0.05-.06-0.16,0-0.16.09s0.11,0,.14,0a0.06,0.06,0,0,0,0-.08h0Z" transform="translate(-1092.39 -489.82)"/>
      <path class="a" d="M1119.89,500.67c-0.05-.06-0.16,0-0.16.09s0.11,0,.14,0A0.06,0.06,0,0,0,1119.89,500.67Z" transform="translate(-1092.39 -489.82)"/>
      <path class="h" d="M1120,501.29c-0.06-.05-0.16,0-0.15.11s0.11,0,.14,0a0.06,0.06,0,0,0,0-.08h0Z" transform="translate(-1092.39 -489.82)"/>
      <path class="a" d="M1120,501.29c-0.06-.05-0.16,0-0.15.11s0.11,0,.14,0A0.06,0.06,0,0,0,1120,501.29Z" transform="translate(-1092.39 -489.82)"/>
      <path class="h" d="M1119.95,501.43c-0.07,0-.14.08-0.11,0.15a0.2,0.2,0,0,1,.12-0.07,0.06,0.06,0,0,0,0-.08h0Z" transform="translate(-1092.39 -489.82)"/>
      <path class="a" d="M1119.95,501.43c-0.07,0-.14.08-0.11,0.15a0.2,0.2,0,0,1,.12-0.07A0.06,0.06,0,0,0,1119.95,501.43Z" transform="translate(-1092.39 -489.82)"/>
      <path class="h" d="M1120,501.53c-0.07,0-.14.08-0.11,0.15a0.2,0.2,0,0,1,.12-0.07,0.06,0.06,0,0,0,0-.08h0Z" transform="translate(-1092.39 -489.82)"/>
      <path class="a" d="M1120,501.53c-0.07,0-.14.08-0.11,0.15a0.2,0.2,0,0,1,.12-0.07A0.06,0.06,0,0,0,1120,501.53Z" transform="translate(-1092.39 -489.82)"/>
      <path class="h" d="M1121.86,501.73c-0.07,0-.14.08-0.11,0.15s0.1,0,.12-0.07a0.06,0.06,0,0,0,0-.08h0Z" transform="translate(-1092.39 -489.82)"/>
      <path class="a" d="M1121.86,501.73c-0.07,0-.14.08-0.11,0.15s0.1,0,.12-0.07A0.06,0.06,0,0,0,1121.86,501.73Z" transform="translate(-1092.39 -489.82)"/>
      <path class="h" d="M1122,501.82c-0.07,0-.13.1-0.09,0.17a0.21,0.21,0,0,1,.11-0.09,0.06,0.06,0,0,0,0-.08h0Z" transform="translate(-1092.39 -489.82)"/>
      <path class="a" d="M1122,501.82c-0.07,0-.13.1-0.09,0.17a0.21,0.21,0,0,1,.11-0.09A0.06,0.06,0,0,0,1122,501.82Z" transform="translate(-1092.39 -489.82)"/>
      <path class="h" d="M1121.89,501.6c-0.07,0-.16.05-0.13,0.13a0.2,0.2,0,0,1,.13,0,0.06,0.06,0,0,0,0-.08h0Z" transform="translate(-1092.39 -489.82)"/>
      <path class="a" d="M1121.89,501.6c-0.07,0-.16.05-0.13,0.13a0.2,0.2,0,0,1,.13,0A0.06,0.06,0,0,0,1121.89,501.6Z" transform="translate(-1092.39 -489.82)"/>
      <path class="h" d="M1123.18,501.76a0.11,0.11,0,0,0-.09.17,0.21,0.21,0,0,1,.11-0.09,0.06,0.06,0,0,0,0-.08h0Z" transform="translate(-1092.39 -489.82)"/>
      <path class="a" d="M1123.18,501.76a0.11,0.11,0,0,0-.09.17,0.21,0.21,0,0,1,.11-0.09A0.06,0.06,0,0,0,1123.18,501.76Z" transform="translate(-1092.39 -489.82)"/>
      <path class="h" d="M1123.19,501.63c-0.06,0-.15.06-0.13,0.13s0.1,0,.13-0.05a0.06,0.06,0,0,0,0-.08h0Z" transform="translate(-1092.39 -489.82)"/>
      <path class="a" d="M1123.19,501.63c-0.06,0-.15.06-0.13,0.13s0.1,0,.13-0.05A0.06,0.06,0,0,0,1123.19,501.63Z" transform="translate(-1092.39 -489.82)"/>
      <path class="h" d="M1123.24,501.87c-0.07,0-.13.11-0.09,0.17a0.2,0.2,0,0,1,.11-0.09,0.06,0.06,0,0,0,0-.08h0Z" transform="translate(-1092.39 -489.82)"/>
      <path class="a" d="M1123.24,501.87c-0.07,0-.13.11-0.09,0.17a0.2,0.2,0,0,1,.11-0.09A0.06,0.06,0,0,0,1123.24,501.87Z" transform="translate(-1092.39 -489.82)"/>
      <path class="h" d="M1120.82,501s0.07,0,.07.11,0,0.28-.06.28-0.05-.08-0.05-0.22,0-.11,0-0.1a0,0,0,0,1,.06-0.06h0Z" transform="translate(-1092.39 -489.82)"/>
      <path d="M1120.83,501.36h0a0.32,0.32,0,0,1,0-.18,1,1,0,0,0,0-.12,0.51,0.51,0,0,1,0,.09,0.38,0.38,0,0,0,0,.21h0c0.05,0,.06-0.08.06-0.28s-0.09-.13-0.12-0.08,0.12-.06.12,0.08,0,0.28-.06.28h0Z" transform="translate(-1092.39 -489.82)"/>
    </g>
  </g>
</svg>
