<svg xmlns="http://www.w3.org/2000/svg" xmlns:xlink="http://www.w3.org/1999/xlink" viewBox="0 0 58.92 34.37">
  <defs>
    <style>
      .a {
        fill: none;
      }

      .b {
        clip-path: url(#a);
      }

      .c {
        fill: #5794fc;
      }

      .d {
        fill: #fff;
      }

      .e {
        fill: #3c9242;
      }
    </style>
    <clipPath id="a" transform="translate(-104.81 -545.24)">
      <rect class="a" x="104.81" y="545.24" width="58.92" height="34.37"/>
    </clipPath>
  </defs>
  <title>Kabardino-Balkaria</title>
  <g class="b">
    <polygon class="c" points="0 0 0 11.46 29.46 11.46 58.92 11.46 58.92 0 0 0"/>
    <g class="b">
      <path class="d" d="M134.27,568.15a5.73,5.73,0,0,1-5.73-5.59v-0.14h0v0a5.73,5.73,0,0,1,5.73-5.69H104.81v11.46h29.46Z" transform="translate(-104.81 -545.24)"/>
      <path class="d" d="M140,562.37v0.07s0,0.05,0,.08v0a5.73,5.73,0,0,1-5.73,5.59h29.46V556.7H134.27a5.73,5.73,0,0,1,5.73,5.68" transform="translate(-104.81 -545.24)"/>
      <polygon class="e" points="29.46 22.92 23.73 22.92 0 22.92 0 34.37 58.92 34.37 58.92 22.92 35.19 22.92 29.46 22.92"/>
      <path class="c" d="M128.54,562.38c0.58-.61,2.91-3,4.12-3a2.51,2.51,0,0,1,1.67.9l0,0h0A2.11,2.11,0,0,1,136,559.2c1.12,0,3.43,2.52,4,3.18a5.73,5.73,0,0,0-11.46,0" transform="translate(-104.81 -545.24)"/>
      <path class="d" d="M136,559.24a2,2,0,0,0-1.58,1.12l0.33,0.33a0,0,0,0,1,0,0h0c-0.13-.11-0.27-0.23-0.41-0.37a2.48,2.48,0,0,0-1.64-.89c-1.19,0-3.54,2.37-4.1,3H140c-0.54-.61-2.9-3.19-4-3.19" transform="translate(-104.81 -545.24)"/>
      <path class="c" d="M136,559.2a2.11,2.11,0,0,0-1.62,1.16h0l0,0a2.51,2.51,0,0,0-1.67-.9c-1.22,0-3.54,2.35-4.12,3v0c0.55-.57,2.91-3,4.12-3,0.92,0,1.49.8,2.06,1.26l-0.34-.34a2.08,2.08,0,0,1,1.6-1.15c1.11,0,3.46,2.58,4,3.19v0c-0.58-.65-2.89-3.18-4-3.18" transform="translate(-104.81 -545.24)"/>
      <path class="c" d="M136,559.21a2.08,2.08,0,0,0-1.6,1.15l0.34,0.34c-0.57-.46-1.15-1.26-2.06-1.26-1.21,0-3.58,2.4-4.12,3h0c0.56-.59,2.91-3,4.1-3a2.48,2.48,0,0,1,1.64.89c0.14,0.13.27,0.26,0.41,0.37h0a0,0,0,0,0,0,0l-0.33-.33a2,2,0,0,1,1.58-1.12c1.1,0,3.45,2.58,4,3.19h0v0c-0.55-.62-2.9-3.19-4-3.19" transform="translate(-104.81 -545.24)"/>
      <path class="e" d="M134.27,568.15a5.73,5.73,0,0,0,5.73-5.59H128.55a5.73,5.73,0,0,0,5.73,5.59" transform="translate(-104.81 -545.24)"/>
      <path class="e" d="M128.57,562.42l0,0v0.07H140s0-.05,0-0.08v0H128.57Z" transform="translate(-104.81 -545.24)"/>
      <path class="e" d="M128.55,562.56H140v0H128.55v0" transform="translate(-104.81 -545.24)"/>
      <path class="e" d="M128.55,562.54H140v0H128.55v0" transform="translate(-104.81 -545.24)"/>
      <path class="e" d="M128.54,562.42v0l0,0h0Z" transform="translate(-104.81 -545.24)"/>
      <path class="e" d="M140,562.44v0h0v0" transform="translate(-104.81 -545.24)"/>
    </g>
  </g>
</svg>
