<svg xmlns="http://www.w3.org/2000/svg" xmlns:xlink="http://www.w3.org/1999/xlink" viewBox="0 0 58.92 34.37">
  <defs>
    <style>
      .a {
        fill: none;
      }

      .b {
        clip-path: url(#a);
      }

      .c {
        fill: #f5cf28;
      }

      .d {
        fill: #50addd;
      }

      .e {
        fill: #fff;
      }
    </style>
    <clipPath id="a" transform="translate(-175.5 -545.24)">
      <rect class="a" x="175.5" y="545.24" width="58.92" height="34.37"/>
    </clipPath>
  </defs>
  <title>Kalmykia</title>
  <g class="b">
    <rect class="c" width="58.92" height="34.37"/>
    <g class="b">
      <path class="d" d="M205,551a11.46,11.46,0,1,1-11.46,11.46A11.46,11.46,0,0,1,205,551h0Z" transform="translate(-175.5 -545.24)"/>
      <path class="e" d="M198.78,567.92a7.55,7.55,0,0,0,4.7-1,4.07,4.07,0,0,0,1.83-3s-2.86-.23-4.35,1.38a6.85,6.85,0,0,0-2.18,2.63h0Z" transform="translate(-175.5 -545.24)"/>
      <path d="M199.61,568h0a7,7,0,0,1-.84-0.05h-0.08l0-.07a6.94,6.94,0,0,1,2.2-2.66,5.7,5.7,0,0,1,4-1.4h0.44v0.06a4.16,4.16,0,0,1-1.86,3,7.78,7.78,0,0,1-3.89,1.09h0Zm-0.75-.16a7.55,7.55,0,0,0,4.58-1,4,4,0,0,0,1.8-2.88c-0.41,0-2.89-.1-4.25,1.36a6.84,6.84,0,0,0-2.13,2.55h0Z" transform="translate(-175.5 -545.24)"/>
      <path class="e" d="M211.15,567.92a7.55,7.55,0,0,1-4.7-1,4.07,4.07,0,0,1-1.83-3s2.86-.23,4.35,1.38a6.84,6.84,0,0,1,2.18,2.63h0Z" transform="translate(-175.5 -545.24)"/>
      <path d="M210.32,568a7.78,7.78,0,0,1-3.89-1.09,4.15,4.15,0,0,1-1.86-3v-0.06H205a5.71,5.71,0,0,1,4,1.41,6.87,6.87,0,0,1,2.19,2.65l0,0.07h-0.08a7,7,0,0,1-.84.05h0ZM204.69,564a4,4,0,0,0,1.79,2.88,7.57,7.57,0,0,0,4.59,1,6.78,6.78,0,0,0-2.12-2.54c-1.36-1.47-3.85-1.39-4.26-1.37h0Z" transform="translate(-175.5 -545.24)"/>
      <path class="e" d="M199,562.65a2.74,2.74,0,0,0-2.06.69,3.45,3.45,0,0,0,3,1.6,17.38,17.38,0,0,0,3.67-.46s-2.52-1.83-3.44-1.83H199Z" transform="translate(-175.5 -545.24)"/>
      <path d="M199.92,565a3.52,3.52,0,0,1-3-1.63l0,0,0,0a2.83,2.83,0,0,1,1.82-.71h1.43c0.92,0,3.37,1.77,3.47,1.84l0.1,0.07-0.12,0a17.41,17.41,0,0,1-3.68.46h0Zm-2.9-1.65a3.39,3.39,0,0,0,2.9,1.54,17.23,17.23,0,0,0,3.53-.43c-0.48-.34-2.52-1.75-3.3-1.75h-1.43a2.69,2.69,0,0,0-1.7.64h0Z" transform="translate(-175.5 -545.24)"/>
      <path class="e" d="M210.92,562.65a2.75,2.75,0,0,1,2.06.69,3.46,3.46,0,0,1-3,1.6,17.38,17.38,0,0,1-3.67-.46s2.52-1.83,4.58-1.83h0Z" transform="translate(-175.5 -545.24)"/>
      <path d="M210,565a17.41,17.41,0,0,1-3.68-.46l-0.12,0,0.1-.07s2.56-1.84,4.62-1.84h0.28a2.83,2.83,0,0,1,1.82.71l0,0,0,0a3.52,3.52,0,0,1-3,1.63h0Zm-3.53-.54a17.43,17.43,0,0,0,3.53.43,3.39,3.39,0,0,0,2.9-1.54,2.69,2.69,0,0,0-1.7-.64h-0.28a9.52,9.52,0,0,0-4.45,1.75h0Z" transform="translate(-175.5 -545.24)"/>
      <path class="e" d="M202.79,556.58c-1,0-1.95,5.5-1.95,5.5h3.78s-0.34-5.5-1.83-5.5h0Z" transform="translate(-175.5 -545.24)"/>
      <path d="M204.68,562.14h-3.91v-0.07c0.09-.57,1-5.55,2-5.55,1.53,0,1.88,5.33,1.89,5.55v0.06h0Zm-3.77-.12h3.65c0-.6-0.44-5.38-1.77-5.38-0.79,0-1.61,3.82-1.88,5.38h0Z" transform="translate(-175.5 -545.24)"/>
      <path class="e" d="M207.14,556.58c1,0,1.95,5.5,1.95,5.5h-3.78s0.34-5.5,1.83-5.5h0Z" transform="translate(-175.5 -545.24)"/>
      <path d="M209.16,562.14h-3.91v-0.06c0-.23.36-5.55,1.89-5.55,1,0,1.91,5,2,5.55v0.07h0Zm-3.79-.12H209c-0.27-1.56-1.09-5.38-1.88-5.38-1.34,0-1.73,4.79-1.77,5.38h0Z" transform="translate(-175.5 -545.24)"/>
      <path class="e" d="M200.61,557.61c-0.34,0-.69,1.26-0.69,2.52,0,1.49,1.6,5.16,4.7,4.58-0.8-1.72-2.75-7.1-4-7.1h0Z" transform="translate(-175.5 -545.24)"/>
      <path d="M204,564.83h0c-2.71,0-4.12-3.29-4.12-4.7,0-1.19.33-2.58,0.75-2.58,1,0,2.5,3.45,3.46,5.73,0.24,0.57.45,1.06,0.61,1.4l0,0.07h-0.07a3.54,3.54,0,0,1-.65.06h0Zm-3.37-7.16c-0.28,0-.63,1.19-0.63,2.46s1.36,4.59,4,4.59h0a3.4,3.4,0,0,0,.56,0c-0.16-.34-0.35-0.81-0.58-1.34-0.89-2.12-2.38-5.66-3.35-5.66h0Z" transform="translate(-175.5 -545.24)"/>
      <path class="e" d="M209.32,557.61c0.34,0,.69,1.26.69,2.52,0,1.49-1.6,5.16-4.7,4.58,0.8-1.72,2.75-7.1,4-7.1h0Z" transform="translate(-175.5 -545.24)"/>
      <path d="M205.95,564.83a3.55,3.55,0,0,1-.65-0.06h-0.07l0-.07c0.16-.35.37-0.84,0.61-1.4,1-2.28,2.41-5.73,3.46-5.73,0.42,0,.75,1.39.75,2.58,0,1.4-1.4,4.7-4.12,4.7h0Zm-0.56-.16a3.4,3.4,0,0,0,.56,0c2.64,0,4-3.21,4-4.59s-0.35-2.46-.63-2.46c-1,0-2.46,3.54-3.35,5.66-0.22.53-.42,1-0.58,1.34h0Z" transform="translate(-175.5 -545.24)"/>
      <path class="e" d="M205,564.94c1.49,0,1.72-1.6,1.72-3.67,0-1.37-.92-4.7-1.72-4.7s-1.72,3.32-1.72,4.7c0,2.06.23,3.67,1.72,3.67h0Z" transform="translate(-175.5 -545.24)"/>
      <path d="M205,565c-1.64,0-1.78-1.92-1.78-3.72,0-1.26.88-4.75,1.78-4.75s1.78,3.5,1.78,4.75c0,1.8-.14,3.72-1.78,3.72h0Zm0-8.37c-0.71,0-1.66,3.19-1.66,4.64,0,2.17.28,3.61,1.66,3.61s1.66-1.44,1.66-3.61c0-1.45-.95-4.64-1.66-4.64h0Z" transform="translate(-175.5 -545.24)"/>
    </g>
  </g>
</svg>
