<svg xmlns="http://www.w3.org/2000/svg" xmlns:xlink="http://www.w3.org/1999/xlink" viewBox="0 0 58.92 34.37">
  <defs>
    <style>
      .a {
        fill: none;
      }

      .b {
        clip-path: url(#a);
      }

      .c {
        fill: #438dcc;
      }

      .d {
        fill: #2e7234;
      }

      .e {
        fill: #cd0223;
      }

      .f {
        fill: #f2ae26;
      }

      .g {
        clip-path: url(#c);
      }

      .h {
        fill: #fff;
      }
    </style>
    <clipPath id="a" transform="translate(-246.19 -545.24)">
      <rect class="a" x="246.19" y="545.24" width="58.92" height="34.37"/>
    </clipPath>
    <clipPath id="c" transform="translate(-246.19 -545.24)">
      <path class="a" d="M270,562.42a5.61,5.61,0,1,0,5.61-5.62,5.61,5.61,0,0,0-5.61,5.62"/>
    </clipPath>
  </defs>
  <title>Karachay-Cherkessia</title>
  <g class="b">
    <rect class="c" width="58.92" height="11.46"/>
    <rect class="d" y="11.46" width="58.92" height="11.46"/>
    <rect class="e" y="22.92" width="58.92" height="11.46"/>
    <g class="b">
      <path class="f" d="M275.65,560.13a2.29,2.29,0,1,1-2.29,2.29,2.29,2.29,0,0,1,2.29-2.29" transform="translate(-246.19 -545.24)"/>
    </g>
    <g class="g">
      <path class="h" d="M275.65,561.85c-1.72-1.72-8.94,4.58-8.94,4.58l19.36,0.46s-7.79-7.1-10.31-5h-0.11Z" transform="translate(-246.19 -545.24)"/>
      <path class="d" d="M275.77,563.8c-2.29-2.06-4.35,1.83-6.87.46,1.26,5.73,14.32,6.3,13.18-.23-2.06.23-4-2.86-6.3-.23" transform="translate(-246.19 -545.24)"/>
    </g>
    <g class="b">
      <path class="f" d="M275.65,568.15a5.73,5.73,0,1,1,5.73-5.73,5.74,5.74,0,0,1-5.73,5.73h0Zm0-11a5.27,5.27,0,1,0,5.27,5.27,5.28,5.28,0,0,0-5.27-5.27h0Z" transform="translate(-246.19 -545.24)"/>
      <path class="f" d="M273.29,561.27c-1.34-.91-2-1.36-2.16-1.05s0.62,0.56,2.16,1.05h0Z" transform="translate(-246.19 -545.24)"/>
      <path class="f" d="M273.47,560.95c-1.2-1.09-1.8-1.63-2-1.34s0.54,0.64,2,1.34h0Z" transform="translate(-246.19 -545.24)"/>
      <path class="f" d="M274.18,560.24c-0.71-1.46-1.06-2.19-1.35-2s0.26,0.79,1.35,2h0Z" transform="translate(-246.19 -545.24)"/>
      <path class="f" d="M274.5,560.05c-0.5-1.54-.75-2.31-1.05-2.16s0.14,0.82,1.05,2.16h0Z" transform="translate(-246.19 -545.24)"/>
      <path class="f" d="M275.47,559.79c0.12-1.62.18-2.42-.17-2.4s-0.17.82,0.17,2.4h0Z" transform="translate(-246.19 -545.24)"/>
      <path class="f" d="M275.84,559.79c0.34-1.58.51-2.38,0.17-2.4s-0.28.79-.17,2.4h0Z" transform="translate(-246.19 -545.24)"/>
      <path class="f" d="M276.81,560.05c0.91-1.34,1.36-2,1.05-2.16s-0.56.62-1.05,2.16h0Z" transform="translate(-246.19 -545.24)"/>
      <path class="f" d="M277.13,560.24c1.09-1.2,1.63-1.8,1.34-2s-0.64.54-1.34,2h0Z" transform="translate(-246.19 -545.24)"/>
      <path class="f" d="M277.84,560.95c1.46-.71,2.19-1.06,2-1.34s-0.79.26-2,1.34h0Z" transform="translate(-246.19 -545.24)"/>
      <path class="f" d="M278,561.27c1.54-.5,2.31-0.74,2.16-1.05s-0.82.14-2.16,1.05h0Z" transform="translate(-246.19 -545.24)"/>
      <path class="f" d="M273.11,561.74c-1.08-.41-1.51-0.58-1.55-0.42s0.41,0.23,1.55.42h0Z" transform="translate(-246.19 -545.24)"/>
      <path class="f" d="M273.79,560.56c-0.73-.89-1-1.26-1.13-1.13s0.24,0.4,1.13,1.13h0Z" transform="translate(-246.19 -545.24)"/>
      <path class="f" d="M275,559.88c-0.19-1.13-.25-1.59-0.42-1.55s0,0.47.42,1.55h0Z" transform="translate(-246.19 -545.24)"/>
      <path class="f" d="M276.34,559.88c0.41-1.08.58-1.5,0.42-1.55s-0.23.41-.42,1.55h0Z" transform="translate(-246.19 -545.24)"/>
      <path class="f" d="M277.52,560.56c0.89-.73,1.25-1,1.13-1.13s-0.41.24-1.13,1.13h0Z" transform="translate(-246.19 -545.24)"/>
      <path class="f" d="M278.2,561.74c1.14-.19,1.59-0.25,1.55-0.42s-0.47,0-1.55.42h0Z" transform="translate(-246.19 -545.24)"/>
    </g>
  </g>
</svg>
