<svg xmlns="http://www.w3.org/2000/svg" xmlns:xlink="http://www.w3.org/1999/xlink" viewBox="0 0 58.95 34.4">
  <defs>
    <style>
      .a {
        fill: none;
      }

      .b {
        clip-path: url(#a);
      }

      .c {
        fill: #fff;
      }

      .d {
        fill: #a7a6a6;
      }

      .e {
        fill: #479d3e;
      }

      .f {
        fill: #c8172b;
      }

      .g {
        fill: #ecbb39;
      }

      .h {
        fill: #408cb3;
      }
    </style>
    <clipPath id="a" transform="translate(-880.31 -545.21)">
      <rect class="a" x="880.33" y="545.23" width="58.92" height="34.37"/>
    </clipPath>
  </defs>
  <title>Karakalpakstan</title>
  <g class="b">
    <rect class="c" x="0.02" y="0.02" width="58.92" height="34.37"/>
    <g class="b">
      <path class="d" d="M939.26,579.62H880.33l0-34.39,58.94,0,0,34.4h0Zm0-34.39-58.91,0,0,34.36,58.89,0V545.23h0Z" transform="translate(-880.31 -545.21)"/>
    </g>
    <rect class="e" x="0.02" y="23.52" width="58.92" height="10.87"/>
    <rect class="f" x="0.02" y="11.52" width="58.92" height="11.45"/>
    <rect class="g" x="0.02" y="11.98" width="58.92" height="10.52"/>
    <rect class="h" x="0.02" y="0.02" width="58.92" height="11"/>
    <polygon class="c" points="17.86 7.48 17.01 6.89 18.03 6.89 18.34 5.88 18.7 6.89 19.75 6.89 18.91 7.52 19.25 8.46 18.41 7.87 17.55 8.5 17.86 7.48"/>
    <polygon class="c" points="15.07 7.48 14.23 6.89 15.25 6.89 15.56 5.88 15.91 6.89 16.97 6.89 16.13 7.52 16.47 8.46 15.63 7.87 14.77 8.5 15.07 7.48"/>
    <polygon class="c" points="12.29 7.48 11.45 6.89 12.47 6.89 12.78 5.88 13.13 6.89 14.19 6.89 13.35 7.52 13.69 8.46 12.85 7.87 11.99 8.5 12.29 7.48"/>
    <polygon class="c" points="13.68 5.69 12.84 5.1 13.86 5.1 14.17 4.07 14.52 5.1 15.58 5.1 14.74 5.71 15.08 6.67 14.24 6.08 13.38 6.71 13.68 5.69"/>
    <polygon class="c" points="16.47 5.69 15.62 5.1 16.64 5.1 16.95 4.07 17.3 5.1 18.36 5.1 17.52 5.71 17.86 6.67 17.02 6.08 16.16 6.71 16.47 5.69"/>
    <g class="b">
      <path class="c" d="M890.71,553.44a3.8,3.8,0,0,1-.5,0,2.62,2.62,0,1,1,0-5.21h0.31a3.31,3.31,0,0,0-1.67-.45,3.09,3.09,0,1,0,0,6.18,3.35,3.35,0,0,0,1.87-.57" transform="translate(-880.31 -545.21)"/>
    </g>
  </g>
</svg>
