<svg xmlns="http://www.w3.org/2000/svg" xmlns:xlink="http://www.w3.org/1999/xlink" viewBox="0 0 58.92 34.37">
  <defs>
    <style>
      .a {
        fill: none;
      }

      .b {
        clip-path: url(#a);
      }

      .c {
        fill: #bc0030;
      }

      .d {
        fill: #f3d02f;
      }

      .e {
        fill: #b49b21;
      }

      .f {
        fill: #223e84;
      }

      .g {
        fill: #fff;
      }
    </style>
    <clipPath id="a" transform="translate(-104.81 -605.15)">
      <rect class="a" x="104.81" y="605.15" width="58.92" height="34.37"/>
    </clipPath>
  </defs>
  <title>Kiribati</title>
  <g class="b">
    <rect class="c" width="58.92" height="34.37"/>
    <g class="b">
      <path class="d" d="M139.12,623.94c0.86,0.23,2.16.17,2.75,0.86-0.86-.23-1.92,1.16-2.75.86,0.73,0.51-10.61,0-9.7,0-0.86-.23-2.16-0.17-2.75-0.86,0.86,0.23,1.92-1.16,2.75-.86-0.73-.51-2-0.91-2.29-1.74,0.73,0.51,2.21-.44,2.87.13-0.51-.73-1.58-1.53-1.55-2.42,0.51,0.73,2.23.34,2.65,1.11-0.23-.86-0.93-2-0.63-2.8,0.23,0.86,2,1.07,2.11,1.95,0.08-.89-0.24-2.17.37-2.85-0.08.89,1.49,1.68,1.32,2.56,0.38-.81.58-2.11,1.32-2.56-0.38.81,0.85,2.08,0.37,2.85,0.63-.63,1.24-1.79,2.11-1.95-0.63.63,0,2.23-.63,2.8,0.81-.38,1.76-1.26,2.65-1.11-0.81.38-.73,2.12-1.55,2.42,0.89-.08,2.08-0.58,2.87-0.13-0.89.08-1.38,1.74-2.29,1.74h0Z" transform="translate(-104.81 -605.15)"/>
      <path class="e" d="M136.73,625.93c-1.76,0-6.55-.14-7.31-0.23h-0.1c-0.23-.06-0.49-0.09-0.76-0.13a3.07,3.07,0,0,1-1.93-.72l-0.12-.14,0.18,0a2,2,0,0,0,1.32-.44,2.62,2.62,0,0,1,1.15-.47l-0.51-.28a3,3,0,0,1-1.57-1.34L127,622l0.15,0.1a2.09,2.09,0,0,0,1.39,0,2.77,2.77,0,0,1,1.23,0l-0.38-.44a2.91,2.91,0,0,1-1-1.79v-0.18l0.1,0.14a1.93,1.93,0,0,0,1.29.51,2.56,2.56,0,0,1,1.18.38c-0.06-.17-0.13-0.35-0.2-0.54a3.12,3.12,0,0,1-.35-2l0.06-.18,0,0.18a1.93,1.93,0,0,0,1,.92,2.6,2.6,0,0,1,1,.77c0-.18,0-0.38,0-0.58a2.89,2.89,0,0,1,.38-2l0.12-.13,0,0.18a1.92,1.92,0,0,0,.65,1.21,2.56,2.56,0,0,1,.66,1.06c0.07-.17.13-0.35,0.19-0.54a3.24,3.24,0,0,1,1-1.79l0.16-.1-0.08.17a1.88,1.88,0,0,0,.21,1.34,2.5,2.5,0,0,1,.27,1.23l0.35-.44a3,3,0,0,1,1.59-1.31l0.18,0-0.13.13a1.94,1.94,0,0,0-.28,1.36,2.6,2.6,0,0,1-.17,1.23l0.5-.3a3,3,0,0,1,1.95-.69l0.18,0-0.17.08a1.94,1.94,0,0,0-.73,1.18,2.62,2.62,0,0,1-.58,1.1l0.57-.11a3.33,3.33,0,0,1,2.07,0l0.16,0.09-0.19,0a1.9,1.9,0,0,0-1.07.85,2.55,2.55,0,0,1-.94.84L140,624a3.08,3.08,0,0,1,1.94.72L142,624.9l-0.18,0a2,2,0,0,0-1.32.43,2.1,2.1,0,0,1-1.33.45c0,0.08-.2.2-2.48,0.2h0Zm-7.29-.33c0.51,0,4.5.22,7.29,0.22a7.37,7.37,0,0,0,2.37-.14l0-.08a1.82,1.82,0,0,0,1.34-.41,2.55,2.55,0,0,1,1.23-.47,3.48,3.48,0,0,0-1.75-.56,7.79,7.79,0,0,1-.85-0.15l0-.11a1.77,1.77,0,0,0,1.13-.85,2.41,2.41,0,0,1,1-.85,3.67,3.67,0,0,0-1.83.07,7.29,7.29,0,0,1-.85.15l0-.11a1.76,1.76,0,0,0,.76-1.17,2.48,2.48,0,0,1,.64-1.15,3.67,3.67,0,0,0-1.7.69,7.57,7.57,0,0,1-.75.43l-0.06-.1a1.75,1.75,0,0,0,.31-1.36,2.47,2.47,0,0,1,.2-1.3,3.44,3.44,0,0,0-1.36,1.23,7.61,7.61,0,0,1-.56.66l-0.09-.07a1.66,1.66,0,0,0-.17-1.41,2.42,2.42,0,0,1-.26-1.26,3.72,3.72,0,0,0-.85,1.63c-0.1.29-.2,0.57-0.31,0.81l-0.11,0a1.71,1.71,0,0,0-.64-1.25,2.43,2.43,0,0,1-.68-1.12,3.22,3.22,0,0,0-.25,1.82,7.16,7.16,0,0,1,0,.88h-0.11a1.73,1.73,0,0,0-1-1,2.45,2.45,0,0,1-1-.82,3.54,3.54,0,0,0,.39,1.79,7.91,7.91,0,0,1,.29.81l-0.11,0a1.72,1.72,0,0,0-1.29-.55,2.43,2.43,0,0,1-1.25-.43,3.28,3.28,0,0,0,1,1.55,7.36,7.36,0,0,1,.56.67l-0.09.08a1.85,1.85,0,0,0-1.39-.07,2.61,2.61,0,0,1-1.32,0,3.38,3.38,0,0,0,1.45,1.13,7.88,7.88,0,0,1,.75.44l-0.05.1a1.82,1.82,0,0,0-1.34.41,2.41,2.41,0,0,1-1.23.47,3.45,3.45,0,0,0,1.74.56,7.82,7.82,0,0,1,.85.16h0Z" transform="translate(-104.81 -605.15)"/>
      <polygon class="d" points="25.37 19.64 22.27 18.37 25.62 18.24 23.14 15.99 26.33 17.01 24.77 14.05 27.42 16.1 26.96 12.78 28.75 15.61 29.46 12.34 30.17 15.61 31.96 12.78 31.51 16.1 34.16 14.05 32.59 17.01 35.79 15.99 33.3 18.24 36.65 18.37 33.55 19.64 36.65 20.91 22.27 20.91 25.37 19.64"/>
      <path class="e" d="M141.46,626.12H127.08l0-.11,3-1.21-3-1.21,0-.11,3.21-.12-2.38-2.16,0.06-.1,3.06,1-1.5-2.84,0.09-.07,2.54,2-0.43-3.18,0.11,0,1.71,2.71,0.68-3.14h0.11l0.68,3.14,1.71-2.71,0.11,0-0.43,3.18,2.54-2,0.09,0.07-1.5,2.84,3.06-1,0.06,0.1-2.38,2.16,3.21,0.12,0,0.11-3,1.21,3,1.21,0,0.11h0ZM127.38,626h13.79l-3-1.21,3-1.22-3.22-.12,2.39-2.17-3.07,1,1.5-2.86-2.55,2,0.44-3.2L135,620.92l-0.68-3.15-0.68,3.15-1.72-2.73,0.44,3.2-2.55-2,1.5,2.86-3.07-1,2.39,2.17-3.22.13,3,1.22-3,1.21h0Z" transform="translate(-104.81 -605.15)"/>
      <path class="d" d="M138.34,624.79a4.06,4.06,0,1,1-4.06-4.06,4.06,4.06,0,0,1,4.06,4.06h0Z" transform="translate(-104.81 -605.15)"/>
      <path class="e" d="M134.27,628.91a4.12,4.12,0,1,1,4.12-4.12,4.12,4.12,0,0,1-4.12,4.12h0Zm0-8.12a4,4,0,1,0,4,4,4,4,0,0,0-4-4h0Z" transform="translate(-104.81 -605.15)"/>
      <rect class="f" y="20.99" width="58.92" height="13.38"/>
      <path class="g" d="M104.81,626.9c2,0,3.93,1.26,5.89,1.26s3.93-1.26,5.89-1.26,3.93,1.26,5.89,1.26,3.93-1.26,5.89-1.26,3.93,1.26,5.89,1.26,3.93-1.26,5.89-1.26,3.93,1.26,5.89,1.26S150,626.9,152,626.9s3.93,1.26,5.89,1.26,3.93-1.26,5.89-1.26v-2.1c-2,0-3.93,1.26-5.89,1.26s-3.93-1.26-5.89-1.26-3.93,1.26-5.89,1.26-3.93-1.26-5.89-1.26-3.93,1.26-5.89,1.26-3.93-1.26-5.89-1.26-3.93,1.26-5.89,1.26-3.93-1.26-5.89-1.26-3.93,1.26-5.89,1.26-3.93-1.26-5.89-1.26v2.1Z" transform="translate(-104.81 -605.15)"/>
      <path class="g" d="M104.81,631.11c2,0,3.93,1.26,5.89,1.26s3.93-1.26,5.89-1.26,3.93,1.26,5.89,1.26,3.93-1.26,5.89-1.26,3.93,1.26,5.89,1.26,3.93-1.26,5.89-1.26,3.93,1.26,5.89,1.26,3.93-1.26,5.89-1.26,3.93,1.26,5.89,1.26,3.93-1.26,5.89-1.26V629c-2,0-3.93,1.26-5.89,1.26S153.92,629,152,629s-3.93,1.26-5.89,1.26-3.93-1.26-5.89-1.26-3.93,1.26-5.89,1.26-3.93-1.26-5.89-1.26-3.93,1.26-5.89,1.26S118.56,629,116.6,629s-3.93,1.26-5.89,1.26-3.93-1.26-5.89-1.26v2.11Z" transform="translate(-104.81 -605.15)"/>
      <path class="g" d="M104.81,635.32c2,0,3.93,1.26,5.89,1.26s3.93-1.26,5.89-1.26,3.93,1.26,5.89,1.26,3.93-1.26,5.89-1.26,3.93,1.26,5.89,1.26,3.93-1.26,5.89-1.26,3.93,1.26,5.89,1.26,3.93-1.26,5.89-1.26,3.93,1.26,5.89,1.26,3.93-1.26,5.89-1.26v-2.1c-2,0-3.93,1.26-5.89,1.26s-3.93-1.26-5.89-1.26-3.93,1.26-5.89,1.26-3.93-1.26-5.89-1.26-3.93,1.26-5.89,1.26-3.93-1.26-5.89-1.26-3.93,1.26-5.89,1.26-3.93-1.26-5.89-1.26-3.93,1.26-5.89,1.26-3.93-1.26-5.89-1.26v2.1Z" transform="translate(-104.81 -605.15)"/>
      <path class="d" d="M135.61,615h2.18a0.46,0.46,0,0,0-.36-0.3,10.57,10.57,0,0,0-1.63.1Z" transform="translate(-104.81 -605.15)"/>
      <path class="e" d="M137.84,615l-2.37,0,0.28-.29c0.32,0,.55-0.05.77-0.08a3,3,0,0,1,.91,0,0.5,0.5,0,0,1,.41.37V615h0Zm-2.1-.13h2a0.5,0.5,0,0,0-.29-0.19,2.8,2.8,0,0,0-.88,0,5.73,5.73,0,0,1-.75.07l-0.06.07h0Z" transform="translate(-104.81 -605.15)"/>
      <path class="d" d="M131.27,614.45a3.29,3.29,0,0,0,2.45,1.1c1.28,0,2.69-1,4.4-1.34l-5.59-.12a1.29,1.29,0,0,0-1.65-.12l-1.07,0c-0.15.08,0.13,0.43,0.35,0.44h1.1Z" transform="translate(-104.81 -605.15)"/>
      <path class="e" d="M133.74,615.61h0a3.33,3.33,0,0,1-2.5-1.12h-1.06a0.57,0.57,0,0,1-.44-0.37,0.15,0.15,0,0,1,.07-0.17l1.09,0a1.35,1.35,0,0,1,1.68.13l5.56,0.11v0.11A11,11,0,0,0,136,615a6.24,6.24,0,0,1-2.22.63h0Zm-2.19-1.82a1,1,0,0,0-.62.23l-1.1,0a0.49,0.49,0,0,0,.35.32h1.1a3.33,3.33,0,0,0,2.45,1.1l0,0.06v-0.06a6.19,6.19,0,0,0,2.18-.62,13.49,13.49,0,0,1,1.73-.62l-5.11-.11a1.84,1.84,0,0,0-1-.37h0Z" transform="translate(-104.81 -605.15)"/>
      <path class="d" d="M133.8,614.08a1.93,1.93,0,0,0-1.85-1.46,36.17,36.17,0,0,1-5-.74,6.31,6.31,0,0,0,3.13,1.17,6.32,6.32,0,0,1,2.91,1h0.84Z" transform="translate(-104.81 -605.15)"/>
      <path class="e" d="M133.87,614.14H133a6.43,6.43,0,0,0-2.92-1,6.46,6.46,0,0,1-3.17-1.19l0.06-.1a25.14,25.14,0,0,0,4,.63l1,0.11a2,2,0,0,1,1.9,1.5l0,0.07h0ZM127.14,612a7.06,7.06,0,0,0,2.91,1,6.4,6.4,0,0,1,2.94,1h0.73a1.87,1.87,0,0,0-1.79-1.34l-1-.11a27.52,27.52,0,0,1-3.79-.56h0Z" transform="translate(-104.81 -605.15)"/>
      <path class="d" d="M133.12,614.7a1,1,0,0,0,1.41,0c0.55-.37,1.16-1.42,1.45-1.44a15.23,15.23,0,0,0,5.66-1.64,33.29,33.29,0,0,1-4.46.46c-2.56,0-2.86,1.17-3.9,2Z" transform="translate(-104.81 -605.15)"/>
      <path class="e" d="M133.74,615.07a0.82,0.82,0,0,1-.67-0.34,0.06,0.06,0,0,1,.09-0.07,0.94,0.94,0,0,0,1.33,0,4.41,4.41,0,0,0,.79-0.81,1.61,1.61,0,0,1,.69-0.63,15.46,15.46,0,0,0,5.35-1.48l-0.18,0a28.94,28.94,0,0,1-4,.38,3.68,3.68,0,0,0-3.19,1.34,6.52,6.52,0,0,1-.68.64,0.06,0.06,0,0,1-.07-0.09,6.27,6.27,0,0,0,.66-0.63,3.82,3.82,0,0,1,3.28-1.38,28.78,28.78,0,0,0,3.95-.38l0.5-.07,0,0.11a15.33,15.33,0,0,1-5.69,1.65,1.88,1.88,0,0,0-.61.59,4.5,4.5,0,0,1-.81.84,1.49,1.49,0,0,1-.81.29h0Z" transform="translate(-104.81 -605.15)"/>
      <path class="e" d="M133.52,614.25a0.06,0.06,0,0,1,0,0,0.06,0.06,0,0,1,0-.08,8.11,8.11,0,0,0,.89-0.69c0.2-.17.4-0.33,0.6-0.49a4.63,4.63,0,0,1,2.9-.67,19.52,19.52,0,0,0,3.34-.58l0.09,0a0.05,0.05,0,0,1,.07,0,0.06,0.06,0,0,1,0,.07l-0.09,0a19.69,19.69,0,0,1-3.36.59,4.55,4.55,0,0,0-2.84.65c-0.21.15-.4,0.32-0.6,0.48a8.56,8.56,0,0,1-.9.7h0Z" transform="translate(-104.81 -605.15)"/>
      <path class="e" d="M132.89,614c-0.15-.77-0.86-1-1.88-1.19l-0.86-.12a17.88,17.88,0,0,1-2.39-.43,4,4,0,0,1-.52-0.2L127,612l0-.11,0.26,0.11a3.49,3.49,0,0,0,.51.2,17.85,17.85,0,0,0,2.38.43l0.86,0.12c1.07,0.16,1.82.44,2,1.28l-0.11,0h0Z" transform="translate(-104.81 -605.15)"/>
      <path class="e" d="M133.59,615.34h-0.3a0.06,0.06,0,1,1,0-.12,4.67,4.67,0,0,0,2.59-.65,0.06,0.06,0,0,1,.05.1,5.08,5.08,0,0,1-2.35.68h0Z" transform="translate(-104.81 -605.15)"/>
      <path class="e" d="M131.09,614.23h-1.27a0.06,0.06,0,1,1,0-.11h1.27a0.06,0.06,0,1,1,0,.11h0Z" transform="translate(-104.81 -605.15)"/>
      <path class="e" d="M131.66,614a0.16,0.16,0,0,1-.32,0,0.16,0.16,0,1,1,.32,0h0Z" transform="translate(-104.81 -605.15)"/>
      <path class="e" d="M131.5,614.25a0.22,0.22,0,1,1,.22-0.22,0.22,0.22,0,0,1-.22.22h0Zm0-.32a0.1,0.1,0,0,0-.1.1c0,0.11.2,0.11,0.2,0a0.1,0.1,0,0,0-.1-0.1h0Z" transform="translate(-104.81 -605.15)"/>
    </g>
  </g>
</svg>
