<svg xmlns="http://www.w3.org/2000/svg" xmlns:xlink="http://www.w3.org/1999/xlink" viewBox="0 0 58.92 34.37">
  <defs>
    <style>
      .a {
        fill: none;
      }

      .b {
        clip-path: url(#a);
      }

      .c {
        fill: #2a4c9e;
      }

      .d {
        fill: #edad49;
      }

      .e {
        fill: #fff;
      }
    </style>
    <clipPath id="a" transform="translate(-951.02 -605.15)">
      <rect class="a" x="951.02" y="605.15" width="58.92" height="34.37"/>
    </clipPath>
  </defs>
  <title>Kosovo</title>
  <g class="b">
    <rect class="c" width="58.92" height="34.37"/>
    <g class="b">
      <path class="d" d="M980.74,616a1.15,1.15,0,0,1,.34.75,1.58,1.58,0,0,0-.54.27c0.84-.12,1,0.86,1.95.49a0.27,0.27,0,0,0,.34.2l0.1-.27c0.37-.1.27,0.5,0.67,0.38a2.12,2.12,0,0,1,.2.66,1.44,1.44,0,0,0,.2.64,0.38,0.38,0,0,1,.4-0.23,1.14,1.14,0,0,1,.34.55c-0.07.39-.17,0.72,0.23,0.92v0.12c0.27,0.12.87-.12,0.87,0.35,0,0.17.17,0,.24,0.12a1.8,1.8,0,0,1,.6,0,1.24,1.24,0,0,1-.3.92,0.78,0.78,0,0,1,.07.67l-0.1.05a2.3,2.3,0,0,1,.84.12l0.44,0.17a1.22,1.22,0,0,1,.7-0.12,3.71,3.71,0,0,1,.1.52,0.39,0.39,0,0,1,.47.24l0,0.07c0.17-.3.64-0.1,0.84-0.32a0.88,0.88,0,0,1,.57.57c0.07,0.52-.57.76-0.37,1.28a4.76,4.76,0,0,1-.6.69,0.15,0.15,0,0,1,0,.17,1.13,1.13,0,0,1-.3.5c0,0.22-.43.13-0.3,0.37s-0.13.57-.13,0.89c-0.17.19-.5-0.17-0.5,0.19-0.2.05-.4-0.19-0.54,0a2.84,2.84,0,0,0,.1.55,0.68,0.68,0,0,1,.57.5l0.34,0.34c-0.34.27-.77,0-1.17,0.12-0.1,0,0-.18-0.1-0.23a0.81,0.81,0,0,0-.47-0.15c0,0.15-.27.2-0.14,0.38s0.07,0.2-.07.2a3.52,3.52,0,0,0-.47-0.12c-0.3.12-.07,0.57-0.5,0.52,0.07,0.4-.67.67-0.17,1a0.45,0.45,0,0,1,0,.3,1.32,1.32,0,0,1-1.17.07c-0.27-.07-0.1-0.41-0.2-0.59a1.23,1.23,0,0,1-.4-0.52,1.11,1.11,0,0,1-.51-0.3,2.69,2.69,0,0,1-1.71.91c-0.3.15-.47,0.76-0.94,0.51-0.19.3-.74,0-0.77,0.43a1.12,1.12,0,0,0-.25.5,0.77,0.77,0,0,0,.28.82c0.12,0.25-.25.25-0.1,0.49a0.22,0.22,0,0,1,0,.23,0.15,0.15,0,0,0-.1.2,0.25,0.25,0,0,0-.18.12,1.44,1.44,0,0,1-.54.37,0.46,0.46,0,0,1-.44-0.2,0.35,0.35,0,0,1-.37.29,0.82,0.82,0,0,1-.42-0.34c0.08-.3-0.19-0.44-0.1-0.71s0.59-.29.49-0.64-0.15-.7-0.39-1a0.66,0.66,0,0,1-.32-0.65,0.76,0.76,0,0,0-.12-0.82,2.86,2.86,0,0,1-.18-0.67c-0.37-.22-0.39-0.79-0.91-0.84-0.37,0-.44-0.47-0.8-0.44a1,1,0,0,0-.19-0.18,2.85,2.85,0,0,1-.94,0c-0.22-.37.18-0.87-0.4-1.09v-0.23A0.09,0.09,0,0,0,974,627c0-.25-0.42-0.28-0.24-0.57-0.1-.09-0.22-0.12-0.15-0.29-0.25-.52-1-0.47-1.18-1a0.72,0.72,0,0,0,.19-0.34,1,1,0,0,1-.12-0.64,0.58,0.58,0,0,0,.25-0.3,0.69,0.69,0,0,0-.5-0.2,3,3,0,0,1-.79-0.42,0.36,0.36,0,0,1,0-.27c0.37-.12-0.05-0.64.4-0.57a2.2,2.2,0,0,1,.55-0.32,1.13,1.13,0,0,1,.52.09,4.78,4.78,0,0,0,.57.28,0.78,0.78,0,0,1,.52,0,0.86,0.86,0,0,1,.34-0.65,0.64,0.64,0,0,1,.37-0.27,0.89,0.89,0,0,0,.82-0.13,0.73,0.73,0,0,0,.4-0.08,0.63,0.63,0,0,1,.47.1c0-.34.6,0,0.72-0.45s-0.37-.37-0.34-0.6a0.68,0.68,0,0,1,.22-0.59,0.65,0.65,0,0,1,.4-0.09c0.39-.13.08-0.92,0.71-0.64a0.24,0.24,0,0,0,0,.2,0.88,0.88,0,0,0,.4-0.34,1.23,1.23,0,0,1,.12-0.7,0.37,0.37,0,0,0,.25-0.13,0.49,0.49,0,0,0-.25-0.4,0.45,0.45,0,0,1-.27.05,2.65,2.65,0,0,0-.15-0.52,0.2,0.2,0,0,1-.12-0.25c0.15-.15,0-0.52.35-0.44a1.36,1.36,0,0,0,.5-0.23,2.73,2.73,0,0,0,1.09-.57,0.56,0.56,0,0,1,.37,0c0,0.22.35,0.13,0.35,0.34" transform="translate(-951.02 -605.15)"/>
      <polygon class="e" points="19.34 10.77 18.09 9.9 16.85 10.77 17.32 9.36 16.08 8.49 17.62 8.5 18.09 7.08 18.56 8.5 20.11 8.49 18.86 9.36 19.34 10.77"/>
      <polygon class="e" points="23.53 9.43 22.29 8.55 21.04 9.43 21.52 8.02 20.27 7.15 21.81 7.15 22.29 5.74 22.76 7.15 24.3 7.15 23.05 8.02 23.53 9.43"/>
      <polygon class="e" points="32.91 8.51 31.67 7.63 30.43 8.51 30.9 7.1 29.65 6.23 31.2 6.23 31.67 4.82 32.14 6.23 33.68 6.23 32.43 7.1 32.91 8.51"/>
      <polygon class="e" points="37.45 9.43 36.2 8.55 34.96 9.43 35.44 8.02 34.19 7.15 35.73 7.15 36.2 5.74 36.67 7.15 38.21 7.15 36.97 8.02 37.45 9.43"/>
      <polygon class="e" points="28 8.51 26.75 7.63 25.51 8.51 25.98 7.1 24.74 6.23 26.28 6.23 26.75 4.82 27.22 6.23 28.77 6.23 27.52 7.1 28 8.51"/>
      <polygon class="e" points="42.08 10.77 40.83 9.9 39.59 10.77 40.07 9.36 38.82 8.49 40.36 8.5 40.83 7.08 41.3 8.5 42.85 8.49 41.6 9.36 42.08 10.77"/>
    </g>
  </g>
</svg>
