<svg xmlns="http://www.w3.org/2000/svg" xmlns:xlink="http://www.w3.org/1999/xlink" viewBox="0 0 58.92 34.37">
  <defs>
    <style>
      .a {
        fill: none;
      }

      .b {
        clip-path: url(#a);
      }

      .c {
        fill: #3b9112;
      }

      .d {
        fill: #fff;
      }
    </style>
    <clipPath id="a" transform="translate(-34.12 -663.03)">
      <rect class="a" x="34.12" y="663.03" width="58.92" height="34.37"/>
    </clipPath>
  </defs>
  <title>Ladonia</title>
  <g class="b">
    <rect class="c" width="58.92" height="34.37"/>
    <polygon class="c" points="14.03 0 0 12.98 14.03 12.98 14.03 0"/>
    <polygon class="d" points="13.89 0 13.89 12.84 0 12.84 0 13.12 14.17 13.12 14.17 0 13.89 0"/>
    <polygon class="c" points="0 21.4 14.03 34.37 14.03 21.4 0 21.4"/>
    <polygon class="d" points="0 21.26 0 21.54 13.89 21.54 13.89 34.37 14.17 34.37 14.17 21.26 0 21.26"/>
    <polygon class="c" points="22.45 21.4 22.45 34.37 58.92 21.4 22.45 21.4"/>
    <polygon class="d" points="22.31 21.26 22.31 34.37 22.59 34.37 22.59 21.54 58.92 21.54 58.92 21.26 22.31 21.26"/>
    <polyline class="c" points="22.45 0 22.45 12.98 58.92 12.98"/>
    <polygon class="d" points="58.92 13.12 22.31 13.12 22.31 0 22.59 0 22.59 12.84 58.92 12.84 58.92 13.12"/>
  </g>
</svg>
