<svg xmlns="http://www.w3.org/2000/svg" xmlns:xlink="http://www.w3.org/1999/xlink" viewBox="0 0 58.93 34.37">
  <defs>
    <style>
      .a {
        fill: none;
      }

      .b {
        clip-path: url(#a);
      }

      .c {
        fill: #fff;
      }

      .d {
        fill: #e53633;
      }

      .e {
        fill: #419f43;
      }
    </style>
    <clipPath id="a" transform="translate(-246.19 -663.03)">
      <rect class="a" x="246.19" y="663.03" width="58.93" height="34.37"/>
    </clipPath>
  </defs>
  <title>Lebanon</title>
  <g class="b">
    <rect class="c" width="58.93" height="34.37"/>
    <rect class="d" y="25.78" width="58.93" height="8.59"/>
    <rect class="d" width="58.93" height="8.59"/>
    <g class="b">
      <path class="e" d="M275.42,671.63l-0.28.47a3.5,3.5,0,0,1-.83.86,5.18,5.18,0,0,0-.81.71l-0.27.32,0.28-.07,0.45-.14c0.09,0,.17,0,0.17,0h0a2,2,0,0,1-.91.71,2.7,2.7,0,0,0-1,.71h0a0.46,0.46,0,0,0,.3,0c0.24-.05.34,0,0.42,0.14s0.05,0.36-.23.36a1.07,1.07,0,0,0-.88.63,0.94,0.94,0,0,1-.62.53,4.84,4.84,0,0,0-1.53,1,0,0,0,0,0,0,0c0,0.24.54,0.23,1.33,0,0.18-.06.25,0,0.39,0.3s0.16,0.38-.22.88a1.38,1.38,0,0,1-.76.58,2.19,2.19,0,0,0-1.33.87,2.9,2.9,0,0,1-.71.58h-0.06a1,1,0,0,0,.6.29,2,2,0,0,0,.78-0.37c0.5-.35.52-0.36,0.72-0.16a0.8,0.8,0,0,1,.21.49c0,0.23-.13.34-0.78,0.67a6.46,6.46,0,0,0-1.49,1.11c-0.6.6-.77,0.71-1,0.66a0.71,0.71,0,0,0-.28,0h0a0.58,0.58,0,0,0,.15.2,0.72,0.72,0,0,0,.47.18,6.58,6.58,0,0,0,2.34-.87,1,1,0,0,1,1.15-.17c0.51,0.3-.34.91-2,1.4a11.68,11.68,0,0,0-1.18.39h0a0.29,0.29,0,0,0,.08.23,2.25,2.25,0,0,0,1.75,0c0.29-.09,1-0.38,1.61-0.65,1.08-.49,1.08-0.49,1.46-0.29,0.88,0.46.8,1.26-.26,2.58a2.58,2.58,0,0,1-1.6,1,1.63,1.63,0,0,0-.84.79,0.13,0.13,0,0,0,0,0h0.19a0.57,0.57,0,0,0,.13-0.13,1.53,1.53,0,0,1,1.18-.52,2.59,2.59,0,0,0,1.62-.73,1,1,0,0,1,1.15-.32,0.57,0.57,0,0,0,.55,0c0.38-.14.56-0.07,0.56,0.21a0.57,0.57,0,0,0,.31.4,4.44,4.44,0,0,1,.69.54,0.66,0.66,0,0,0,.33.22h0a0.82,0.82,0,0,0-.16-0.39,0.49,0.49,0,0,1-.1-0.28h0a3.46,3.46,0,0,1,.8,0,1.28,1.28,0,0,1,1.15.58,1.64,1.64,0,0,0,.49.43h0.27a0.18,0.18,0,0,0,.11-0.1h0a5.68,5.68,0,0,0-.9-0.85,2.52,2.52,0,0,1-1.25-2.49,1.5,1.5,0,0,1,.21-1.14c0.27-.3.42-0.29,1.09,0.06a2.86,2.86,0,0,0,1.82.26,2.48,2.48,0,0,1,1.89.35c0.35,0.2.77,0.48,0.95,0.61,0.38,0.29.78,0.31,0.87,0s-0.62-.92-2-1.65-1.51-.93-0.88-1.26c0.36-.19.38-0.18,1,0.13a1.25,1.25,0,0,0,1,.25l0.37-.08-0.82-.67a9.45,9.45,0,0,1-1-.87,1.49,1.49,0,0,0-1.16-.54,0.91,0.91,0,0,1-.47-0.09h0c-0.13-.23.26-0.34,1.34-0.38,1.45-.06,1.65-0.23.65-0.55-0.4-.13-1-0.29-1.33-0.36a1.09,1.09,0,0,1-.69-0.29,0.1,0.1,0,0,1,0,0,0.1,0.1,0,0,1,0,0,0.21,0.21,0,0,1,.06-0.12,1.69,1.69,0,0,1,.95,0,2,2,0,0,0,1,.06,1.45,1.45,0,0,0-.86-0.64,9,9,0,0,1-1.64-1.16,5.17,5.17,0,0,0-1.08-.82c-0.35-.17-0.46-0.28-0.42-0.41a0.78,0.78,0,0,1,1,0,2,2,0,0,0,.85.16h0.58l-0.38-.16a6.09,6.09,0,0,1-1.51-1.07h0a1.68,1.68,0,0,1,.57,0l0.58,0-0.84-.65a3.51,3.51,0,0,0-1.43-.77l-0.83-.18a2.49,2.49,0,0,1-1.17-1.22Zm-1.91,3.26h0a0.29,0.29,0,0,1,.22.07h0v0h0a0.86,0.86,0,0,1-.27.3,0.39,0.39,0,0,1-.19.1h0a0.48,0.48,0,0,1,0-.23c0-.24,0-0.3.23-0.31m2.83,0.29h0a0.27,0.27,0,0,1,.3.21c0,0.16,0,.2-0.3.2a0.41,0.41,0,0,1-.27-0.05,0.16,0.16,0,0,1,0-.15,0.26,0.26,0,0,1,.29-0.21m-0.83.07c0.14,0,.2.07,0.2,0.26s-0.08.29-.48,0.39a1.45,1.45,0,0,1-.52.07h0c-0.14-.15,0-0.34.32-0.52a1.51,1.51,0,0,1,.48-0.19m1.9,0c0.21,0,.24.09,0.13,0.39a0.35,0.35,0,0,1-.33.18c-0.21,0-.25-0.05-0.23-0.26a0.31,0.31,0,0,1,.33-0.3h0.09m-3.21.57h0c0.25,0,.1.48-0.23,0.7a0.82,0.82,0,0,1-.69.2h0v0h0a1.47,1.47,0,0,1,.92-0.85m2.39,1.11c0.12,0,.2.12,0.15,0.36a0.34,0.34,0,0,1-.33.25,0.32,0.32,0,0,1-.26,0h0a0.66,0.66,0,0,1,.2-0.38,0.41,0.41,0,0,1,.24-0.18m-1,.05h0c0.24,0,.28.21,0.06,0.34a0.93,0.93,0,0,1-.23.11h0l-0.3-.1-0.26-.09,0.3-.13a1.6,1.6,0,0,1,.43-0.13m2.05,0.27a0.81,0.81,0,0,1,.36.07,0.3,0.3,0,0,1,.22.41c-0.06.33-.24,0.37-0.85,0.17-0.3-.1-0.33-0.14-0.24-0.34a0.57,0.57,0,0,1,.5-0.31m-4.54.08h0c0.45,0,.51.08,0.29,0.36a2.37,2.37,0,0,1-.31.32c-0.15.12-.2,0.11-0.29-0.09a0.56,0.56,0,0,1-.09-0.48,0.44,0.44,0,0,1,.38-0.12m-1.17.2a0.5,0.5,0,0,1,.46.34l0.21,0.37-0.32.12c-0.29.11-.34,0.09-0.58-0.25a0.54,0.54,0,0,1-.17-0.45v0h0a0.56,0.56,0,0,1,.33-0.1h0m7,1.1a0.34,0.34,0,0,1,.4.37,0.37,0.37,0,0,1-.64.17c-0.16-.13-0.17-0.18,0-0.37a0.38,0.38,0,0,1,.29-0.17m-4,.57h0.07l0,0h0a0.28,0.28,0,0,1,0,.21c0,0.31-.25.41-0.34,0.15s0-.39.19-0.4m-1.33.24a0.59,0.59,0,0,1,.38.17,0.31,0.31,0,0,1,.14.22v0h0a0.3,0.3,0,0,1-.34-0.08,0.66,0.66,0,0,1-.23-0.28h0a0.09,0.09,0,0,1,.08-0.1m2.12,0a0.26,0.26,0,0,1,.16.12,1.28,1.28,0,0,1,.23.43c0.09,0.32-.05.46-0.34,0.31a0.44,0.44,0,0,1-.2-0.69,0.32,0.32,0,0,1,.15-0.17m0.74,0.44a0.3,0.3,0,0,1,.21.3,0.32,0.32,0,0,1,0,.24h0c-0.15,0-.24-0.14-0.24-0.38s0-.17.09-0.18m-4.64.46a2,2,0,0,1,.38,0,0.56,0.56,0,0,1,.29.12l0,0v0a0.12,0.12,0,0,1,0,0,0.7,0.7,0,0,1-.39.33,3.27,3.27,0,0,1-.76.27c-0.36.07-.41,0-0.55-0.28a2.53,2.53,0,0,1-.16-0.4h0a3.36,3.36,0,0,1,1.15-.15m7.19,1c0.42,0,.64.26,0.19,0.61a0.82,0.82,0,0,1-1,0c-0.19-.15-0.18-0.18.17-0.41a1.25,1.25,0,0,1,.63-0.22m1.52,0.33h0a0.72,0.72,0,0,1,.32.16c0.2,0.16.2,0.17,0,.47a1.11,1.11,0,0,1-.31.28h0l-0.41-.06a0.33,0.33,0,0,1-.34-0.22v0a1.45,1.45,0,0,1,.77-0.62m-7.63.46H273c0.29,0,.44.24,0.44,0.66s-0.35.53-.51-0.07-0.16-.59,0-0.6m2.18,0.16a1.5,1.5,0,0,1,.64.16h0a1.85,1.85,0,0,1-.25.41l-0.25.33-0.13-.43a1.81,1.81,0,0,1-.1-0.46h0.07m-1.06.19,0.15,0a0.35,0.35,0,0,1,.28.26,0.44,0.44,0,0,1,0,.3h-0.08a0.42,0.42,0,0,1-.24-0.27,0.72,0.72,0,0,1-.12-0.33h0" transform="translate(-246.19 -663.03)"/>
    </g>
  </g>
</svg>
