<svg xmlns="http://www.w3.org/2000/svg" xmlns:xlink="http://www.w3.org/1999/xlink" viewBox="0 0 58.92 34.37">
  <defs>
    <style>
      .a {
        fill: none;
      }

      .b {
        clip-path: url(#a);
      }

      .c {
        fill: #fff;
      }

      .d {
        fill: #3d9546;
      }

      .e {
        fill: #1f189b;
      }
    </style>
    <clipPath id="a" transform="translate(-880.33 -663.03)">
      <rect class="a" x="880.33" y="663.03" width="58.92" height="34.37"/>
    </clipPath>
  </defs>
  <title>Lesotho</title>
  <g class="b">
    <rect class="c" width="58.92" height="34.37"/>
    <rect class="d" y="24.06" width="58.92" height="10.31"/>
    <rect class="e" width="58.92" height="10.31"/>
    <g class="b">
      <path d="M909.76,674a0.67,0.67,0,0,0-.39.22l0,2.32-0.73.77h0.59v1.33l-3.5,4.72-0.52-.18-0.9,1.93a11,11,0,0,0,5.49,1.36,10.22,10.22,0,0,0,5.51-1.43l-0.94-1.91-0.46.2-3.55-4.69v-1.37H911l-0.81-.76v-2.31a0.67,0.67,0,0,0-.4-0.2h0Z" transform="translate(-880.33 -663.03)"/>
      <path d="M909.67,686.48a11.07,11.07,0,0,1-5.37-1.37l0.9-2,0.55,0.16,3.48-4.71v-1.32l-0.57,0,0.71-.81,0-2.3a0.65,0.65,0,0,1,.41-0.25,0.7,0.7,0,0,1,.41.21v2.33l0.8,0.74-0.61,0,0,1.34,3.54,4.68,0.43-.21,1,1.92a9.93,9.93,0,0,1-5.53,1.46h-0.13Zm-5.33-1.38a11.51,11.51,0,0,0,5.33,1.33h0.13A10.31,10.31,0,0,0,915.3,685l-0.95-1.87-0.42.21-3.58-4.7v-1.38l0.62,0-0.82-.71v-2.33h0a0.71,0.71,0,0,0-.37-0.18,0.65,0.65,0,0,0-.37.21l0,2.3-0.74.78,0.58,0,0,1.36-3.51,4.73-0.55-.17-0.87,1.92h0Z" transform="translate(-880.33 -663.03)"/>
      <path d="M911.06,679.66h-2.58l0-.07a7.52,7.52,0,0,1-.75-3.22,2,2,0,0,1,2-2.07h0a2,2,0,0,1,2.12,2,7.11,7.11,0,0,1-.75,3.27l0,0.07h0Zm-2.42-.25h2.26a6.76,6.76,0,0,0,.69-3.06,1.72,1.72,0,0,0-1.83-1.79,1.78,1.78,0,0,0-1.81,1.84,7.14,7.14,0,0,0,.69,3h0Z" transform="translate(-880.33 -663.03)"/>
      <path class="c" d="M905.52,683.95c0,0.05-.33.63-0.33,0.63l0.5-.11Z" transform="translate(-880.33 -663.03)"/>
      <polygon class="c" points="25.49 21.67 24.96 21.84 25.59 22.09 25.49 21.67"/>
      <polygon class="c" points="25.73 20.93 25.99 21.71 26.64 21.52 26.46 21.16 25.73 20.93"/>
      <polygon class="c" points="26.14 21.99 26.23 22.3 27.09 22.52 26.74 21.79 26.14 21.99"/>
      <polygon class="c" points="27.09 21.33 27.39 22.05 28.04 21.8 27.82 21.49 27.09 21.33"/>
      <polygon class="c" points="27.51 22.32 27.61 22.6 28.62 22.74 28.2 22.08 27.51 22.32"/>
      <polygon class="c" points="28.47 21.54 28.84 22.19 29.78 21.84 29.68 21.59 28.47 21.54"/>
      <polygon class="c" points="29.01 22.42 29.21 22.77 30.38 22.73 29.94 22.08 29.01 22.42"/>
      <polygon class="c" points="30.24 21.57 30.56 22.11 31.3 21.75 31.1 21.46 30.24 21.57"/>
      <polygon class="c" points="31.46 21.98 30.72 22.34 30.92 22.66 31.91 22.5 31.46 21.98"/>
      <polygon class="c" points="31.69 21.41 32.08 21.88 32.7 21.39 32.49 21.17 31.69 21.41"/>
      <polygon class="c" points="32.83 21.66 32.23 22.11 32.39 22.39 33.21 22.17 32.83 21.66"/>
      <polygon class="c" points="33.65 20.72 33.8 20.93 33.39 21.54 32.96 21 33.65 20.72"/>
      <polygon class="c" points="33.93 21.25 34.18 21.75 33.68 21.92 33.64 21.69 33.93 21.25"/>
    </g>
  </g>
</svg>
