<svg xmlns="http://www.w3.org/2000/svg" xmlns:xlink="http://www.w3.org/1999/xlink" viewBox="0 0 58.92 34.37">
  <defs>
    <style>
      .a {
        fill: none;
      }

      .b {
        clip-path: url(#a);
      }

      .c {
        fill: #1c2a7d;
      }

      .d {
        fill: #f6d849;
      }

      .e {
        fill: #bc0030;
      }

      .f {
        fill: #ed00fd;
      }
    </style>
    <clipPath id="a" transform="translate(-1092.39 -663.03)">
      <rect class="a" x="1092.39" y="663.03" width="58.92" height="34.37"/>
    </clipPath>
  </defs>
  <title>Liechtenstein</title>
  <g class="b">
    <rect class="c" width="58.92" height="34.37"/>
    <g class="b">
      <path class="d" d="M1104.79,670l-0.11,3.58h-3.63a5.41,5.41,0,0,1-.82-2.61,1.51,1.51,0,0,1,1.61-1.5,14.08,14.08,0,0,1,2.95.53h0Z" transform="translate(-1092.39 -663.03)"/>
      <path class="d" d="M1100.67,670.2v0Z" transform="translate(-1092.39 -663.03)"/>
      <path d="M1100.67,672.31a0,0,0,0,1,0,0V670.2s0.09,0,.09,0v2.07a0,0,0,0,1,0,0h0Z" transform="translate(-1092.39 -663.03)"/>
      <path class="d" d="M1101,670v0Z" transform="translate(-1092.39 -663.03)"/>
      <path d="M1101,672.78a0,0,0,0,1,0,0V670s0.09,0,.09,0v2.75a0,0,0,0,1,0,0h0Z" transform="translate(-1092.39 -663.03)"/>
      <path class="d" d="M1101.25,669.84v0Z" transform="translate(-1092.39 -663.03)"/>
      <path d="M1101.25,673.17a0,0,0,0,1,0,0v-3.28s0.09,0,.09,0v3.28a0,0,0,0,1,0,0h0Z" transform="translate(-1092.39 -663.03)"/>
      <path class="d" d="M1101.54,669.78v0Z" transform="translate(-1092.39 -663.03)"/>
      <path d="M1101.54,672.39a0,0,0,0,1,0,0v-2.57a0,0,0,0,1,.09,0v2.57a0,0,0,0,1,0,0h0Z" transform="translate(-1092.39 -663.03)"/>
      <path class="d" d="M1101.84,669.76v0Z" transform="translate(-1092.39 -663.03)"/>
      <path d="M1101.84,672.4a0,0,0,0,1,0,0v-2.6s0.09,0,.09,0v2.6a0,0,0,0,1,0,0h0Z" transform="translate(-1092.39 -663.03)"/>
      <path class="d" d="M1102.13,669.67v0Z" transform="translate(-1092.39 -663.03)"/>
      <path d="M1102.13,672.4a0,0,0,0,1,0,0v-2.69a0,0,0,0,1,.09,0v2.69a0,0,0,0,1,0,0h0Z" transform="translate(-1092.39 -663.03)"/>
      <path class="d" d="M1102.42,669.67v0Z" transform="translate(-1092.39 -663.03)"/>
      <path d="M1102.42,672.4a0,0,0,0,1,0,0v-2.69a0,0,0,0,1,.09,0v2.69a0,0,0,0,1,0,0h0Z" transform="translate(-1092.39 -663.03)"/>
      <path class="d" d="M1102.71,669.7v0Z" transform="translate(-1092.39 -663.03)"/>
      <path d="M1102.71,672.43a0,0,0,0,1,0,0V669.7s0.09,0,.09,0v2.69a0,0,0,0,1,0,0h0Z" transform="translate(-1092.39 -663.03)"/>
      <path class="d" d="M1103,669.73v0Z" transform="translate(-1092.39 -663.03)"/>
      <path d="M1103,672.45a0,0,0,0,1,0,0v-2.69s0.09,0,.09,0v2.69a0,0,0,0,1,0,0h0Z" transform="translate(-1092.39 -663.03)"/>
      <path class="d" d="M1103.29,669.9v0Z" transform="translate(-1092.39 -663.03)"/>
      <path d="M1103.29,672.63a0,0,0,0,1,0,0V669.9s0.09,0,.09,0v2.69a0,0,0,0,1,0,0h0Z" transform="translate(-1092.39 -663.03)"/>
      <path class="d" d="M1103.59,669.92v0Z" transform="translate(-1092.39 -663.03)"/>
      <path d="M1103.59,673a0,0,0,0,1,0,0v-3s0.09,0,.09,0v3a0,0,0,0,1,0,0h0Z" transform="translate(-1092.39 -663.03)"/>
      <path class="d" d="M1103.88,669.92v0Z" transform="translate(-1092.39 -663.03)"/>
      <path d="M1103.88,672.65a0,0,0,0,1,0,0v-2.69a0,0,0,0,1,.09,0v2.69a0,0,0,0,1,0,0h0Z" transform="translate(-1092.39 -663.03)"/>
      <path class="d" d="M1104.17,669.92v0Z" transform="translate(-1092.39 -663.03)"/>
      <path d="M1104.17,672.65a0,0,0,0,1,0,0v-2.69a0,0,0,0,1,.09,0v2.69a0,0,0,0,1,0,0h0Z" transform="translate(-1092.39 -663.03)"/>
      <path d="M1102.5,669.78c0.62,0.1,2,.74,1.82,1.59-0.22,1.21-.93.73-1.87,0.55l-0.71.24c-0.25.26-.63,0.5-0.88,0.18h-0.42V674h4.66v-4Z" transform="translate(-1092.39 -663.03)"/>
      <path d="M1105.09,674h-4.66l0-1.69,0.46,0a0.57,0.57,0,0,0,.85-0.17l0.73-.25a5.51,5.51,0,0,1,.54.12,2.77,2.77,0,0,0,.66.12c0.25,0,.52-0.09.65-0.76a0.79,0.79,0,0,0-.16-0.61,2.85,2.85,0,0,0-1.62-.93,0,0,0,0,1,0,0,0,0,0,0,1,0,0l2.59,0.24,0,4a0,0,0,0,1,0,0h0Zm-4.27-1.66-0.39,0,0,1.6,4.57,0V670l-2.11-.16a2.71,2.71,0,0,1,1.24.84,0.88,0.88,0,0,1,.17.68,0.78,0.78,0,0,1-.73.84,2.9,2.9,0,0,1-.68-0.13l-0.51-.12-0.69.23a1,1,0,0,1-.61.34,0.41,0.41,0,0,1-.32-0.17h0Z" transform="translate(-1092.39 -663.03)"/>
      <path class="d" d="M1104.87,669.5a0.28,0.28,0,1,1-.57,0h0a0.28,0.28,0,1,1,.57,0h0Z" transform="translate(-1092.39 -663.03)"/>
      <path d="M1104.59,669.83a0.33,0.33,0,1,1,.33-0.33,0.33,0.33,0,0,1-.33.33h0Zm0-.57a0.24,0.24,0,0,0,0,.48,0.24,0.24,0,0,0,0-.48h0Z" transform="translate(-1092.39 -663.03)"/>
      <path class="d" d="M1104.23,669.35a0.28,0.28,0,1,1-.57,0h0a0.28,0.28,0,1,1,.57,0h0Z" transform="translate(-1092.39 -663.03)"/>
      <path d="M1103.95,669.67a0.33,0.33,0,1,1,.23-0.1,0.32,0.32,0,0,1-.23.1h0Zm0-.57a0.24,0.24,0,0,0-.24.24,0.25,0.25,0,0,0,.41.17,0.23,0.23,0,0,0,.07-0.17,0.24,0.24,0,0,0-.24-0.24h0Z" transform="translate(-1092.39 -663.03)"/>
      <path class="d" d="M1103.59,669.19a0.28,0.28,0,1,1-.57,0h0a0.28,0.28,0,1,1,.57,0h0Z" transform="translate(-1092.39 -663.03)"/>
      <path d="M1103.3,669.51h0a0.33,0.33,0,1,1,.33-0.33,0.33,0.33,0,0,1-.33.33h0Zm0-.57a0.24,0.24,0,1,0,.24.24,0.24,0.24,0,0,0-.24-0.24h0Z" transform="translate(-1092.39 -663.03)"/>
      <path class="d" d="M1102.94,669.08a0.28,0.28,0,0,1-.57,0h0a0.28,0.28,0,0,1,.57,0h0Z" transform="translate(-1092.39 -663.03)"/>
      <path d="M1102.66,669.41a0.33,0.33,0,1,1,.33-0.33,0.33,0.33,0,0,1-.33.33h0Zm0-.57a0.24,0.24,0,1,0,.24.24,0.24,0.24,0,0,0-.24-0.24h0Z" transform="translate(-1092.39 -663.03)"/>
      <path class="d" d="M1102.29,669a0.28,0.28,0,1,1-.57,0h0a0.28,0.28,0,1,1,.57,0h0Z" transform="translate(-1092.39 -663.03)"/>
      <path d="M1102,669.34a0.33,0.33,0,1,1,.33-0.33,0.33,0.33,0,0,1-.33.33h0Zm0-.57a0.24,0.24,0,1,0,.24.24,0.24,0.24,0,0,0-.24-0.24h0Z" transform="translate(-1092.39 -663.03)"/>
      <path class="d" d="M1101.66,669a0.28,0.28,0,0,1-.57,0h0a0.28,0.28,0,0,1,.57,0h0Z" transform="translate(-1092.39 -663.03)"/>
      <path d="M1101.37,669.38a0.33,0.33,0,0,1-.33-0.33,0.32,0.32,0,0,1,.09-0.23,0.34,0.34,0,0,1,.56.23,0.33,0.33,0,0,1-.33.33h0Zm0-.57a0.24,0.24,0,0,0-.17.07,0.23,0.23,0,0,0-.07.17,0.24,0.24,0,1,0,.24-0.24h0Z" transform="translate(-1092.39 -663.03)"/>
      <path class="d" d="M1101.05,669.26a0.28,0.28,0,1,1-.57,0h0a0.28,0.28,0,0,1,.57,0h0Z" transform="translate(-1092.39 -663.03)"/>
      <path d="M1100.77,669.59a0.33,0.33,0,0,1-.33-0.33A0.34,0.34,0,0,1,1101,669a0.33,0.33,0,0,1-.23.56h0Zm0-.57a0.24,0.24,0,1,0,.24.24,0.24,0.24,0,0,0-.24-0.24h0Z" transform="translate(-1092.39 -663.03)"/>
      <path class="d" d="M1100.54,669.63a0.28,0.28,0,1,1-.57,0h0a0.28,0.28,0,0,1,.57,0h0Z" transform="translate(-1092.39 -663.03)"/>
      <path d="M1100.26,670a0.33,0.33,0,1,1,.33-0.33,0.33,0.33,0,0,1-.33.33h0Zm0-.57a0.24,0.24,0,1,0,.24.24,0.24,0.24,0,0,0-.24-0.24h0Z" transform="translate(-1092.39 -663.03)"/>
      <path class="d" d="M1100.18,670.16a0.28,0.28,0,1,1-.57,0h0a0.28,0.28,0,0,1,.57,0h0Z" transform="translate(-1092.39 -663.03)"/>
      <path d="M1099.9,670.48a0.33,0.33,0,0,1-.23-0.56,0.34,0.34,0,0,1,.56.23,0.33,0.33,0,0,1-.33.33h0Zm0-.57a0.24,0.24,0,0,0-.17.07,0.23,0.23,0,0,0-.07.17,0.24,0.24,0,1,0,.24-0.24h0Z" transform="translate(-1092.39 -663.03)"/>
      <path class="d" d="M1100,670.77a0.28,0.28,0,0,1-.57,0h0a0.28,0.28,0,0,1,.57,0h0Z" transform="translate(-1092.39 -663.03)"/>
      <path d="M1099.72,671.1a0.33,0.33,0,1,1,.33-0.33,0.33,0.33,0,0,1-.33.33h0Zm0-.57a0.24,0.24,0,1,0,.24.24,0.24,0.24,0,0,0-.24-0.24h0Z" transform="translate(-1092.39 -663.03)"/>
      <path class="d" d="M1100,671.41a0.28,0.28,0,0,1-.57,0h0a0.28,0.28,0,1,1,.57,0h0Z" transform="translate(-1092.39 -663.03)"/>
      <path d="M1099.73,671.74a0.33,0.33,0,1,1,.33-0.32,0.33,0.33,0,0,1-.33.32h0Zm0-.56a0.24,0.24,0,1,0,.24.24,0.24,0.24,0,0,0-.24-0.24h0Z" transform="translate(-1092.39 -663.03)"/>
      <path class="d" d="M1100.13,672a0.28,0.28,0,1,1-.57,0h0a0.28,0.28,0,0,1,.57,0h0Z" transform="translate(-1092.39 -663.03)"/>
      <path d="M1099.85,672.36a0.33,0.33,0,1,1,.33-0.33,0.33,0.33,0,0,1-.33.33h0Zm0-.57a0.24,0.24,0,1,0,.24.24,0.24,0.24,0,0,0-.24-0.24h0Z" transform="translate(-1092.39 -663.03)"/>
      <path class="d" d="M1104.71,669.88l0,0.37a16.15,16.15,0,0,0-2.63-.5,1.27,1.27,0,0,0-1.53,1.21,4.7,4.7,0,0,0,.84,2.42l-0.5.24a5.41,5.41,0,0,1-.82-2.61,1.69,1.69,0,0,1,1.79-1.66,13.32,13.32,0,0,1,2.87.53h0Z" transform="translate(-1092.39 -663.03)"/>
      <path d="M1100.87,673.66a0,0,0,0,1,0,0A5.51,5.51,0,0,1,1100,671a1.73,1.73,0,0,1,1.83-1.7,9.45,9.45,0,0,1,2.25.37l0.63,0.15v0.41h0a3.6,3.6,0,0,1-.9-0.15,7.25,7.25,0,0,0-1.77-.31,1.25,1.25,0,0,0-1.48,1.17,4.75,4.75,0,0,0,.84,2.4l-0.52.3h0Zm1-4.26a1.65,1.65,0,0,0-1.75,1.62,5.36,5.36,0,0,0,.79,2.55l0.46-.22a4.28,4.28,0,0,1-.87-2.38,1.31,1.31,0,0,1,1.57-1.25,7.45,7.45,0,0,1,1.79.31,8.67,8.67,0,0,0,.85.19l0-.33h0a2.75,2.75,0,0,1-.6-0.11,9.33,9.33,0,0,0-2.23-.37h0Z" transform="translate(-1092.39 -663.03)"/>
      <path class="d" d="M1105.43,670l0.11,3.58h3.63A5.42,5.42,0,0,0,1110,671a1.51,1.51,0,0,0-1.61-1.5,14.08,14.08,0,0,0-2.95.53h0Z" transform="translate(-1092.39 -663.03)"/>
      <path class="d" d="M1109.55,670.2v0Z" transform="translate(-1092.39 -663.03)"/>
      <path d="M1109.55,672.31a0,0,0,0,1,0,0V670.2s0.09,0,.09,0v2.07a0,0,0,0,1,0,0h0Z" transform="translate(-1092.39 -663.03)"/>
      <path class="d" d="M1109.26,670v0Z" transform="translate(-1092.39 -663.03)"/>
      <path d="M1109.26,672.78a0,0,0,0,1,0,0V670s0.09,0,.09,0v2.75a0,0,0,0,1,0,0h0Z" transform="translate(-1092.39 -663.03)"/>
      <path class="d" d="M1109,669.84v0Z" transform="translate(-1092.39 -663.03)"/>
      <path d="M1109,673.17a0,0,0,0,1,0,0v-3.28s0.09,0,.09,0v3.28a0,0,0,0,1,0,0h0Z" transform="translate(-1092.39 -663.03)"/>
      <path class="d" d="M1108.67,669.78v0Z" transform="translate(-1092.39 -663.03)"/>
      <path d="M1108.67,672.39a0,0,0,0,1,0,0v-2.57a0,0,0,0,1,.09,0v2.57a0,0,0,0,1,0,0h0Z" transform="translate(-1092.39 -663.03)"/>
      <path class="d" d="M1108.38,669.76v0Z" transform="translate(-1092.39 -663.03)"/>
      <path d="M1108.38,672.4a0,0,0,0,1,0,0v-2.6s0.09,0,.09,0v2.6a0,0,0,0,1,0,0h0Z" transform="translate(-1092.39 -663.03)"/>
      <path class="d" d="M1108.09,669.67v0Z" transform="translate(-1092.39 -663.03)"/>
      <path d="M1108.09,672.4a0,0,0,0,1,0,0v-2.69a0,0,0,0,1,.09,0v2.69a0,0,0,0,1,0,0h0Z" transform="translate(-1092.39 -663.03)"/>
      <path class="d" d="M1107.8,669.67v0Z" transform="translate(-1092.39 -663.03)"/>
      <path d="M1107.8,672.4a0,0,0,0,1,0,0v-2.69s0.09,0,.09,0v2.69a0,0,0,0,1,0,0h0Z" transform="translate(-1092.39 -663.03)"/>
      <path class="d" d="M1107.51,669.7v0Z" transform="translate(-1092.39 -663.03)"/>
      <path d="M1107.51,672.43a0,0,0,0,1,0,0V669.7s0.09,0,.09,0v2.69a0,0,0,0,1,0,0h0Z" transform="translate(-1092.39 -663.03)"/>
      <path class="d" d="M1107.22,669.73v0Z" transform="translate(-1092.39 -663.03)"/>
      <path d="M1107.22,672.45a0,0,0,0,1,0,0v-2.69s0.09,0,.09,0v2.69a0,0,0,0,1,0,0h0Z" transform="translate(-1092.39 -663.03)"/>
      <path class="d" d="M1106.92,669.9v0Z" transform="translate(-1092.39 -663.03)"/>
      <path d="M1106.92,672.63a0,0,0,0,1,0,0V669.9s0.09,0,.09,0v2.69a0,0,0,0,1,0,0h0Z" transform="translate(-1092.39 -663.03)"/>
      <path class="d" d="M1106.63,669.92v0Z" transform="translate(-1092.39 -663.03)"/>
      <path d="M1106.63,673a0,0,0,0,1,0,0v-3a0,0,0,0,1,.09,0v3a0,0,0,0,1,0,0h0Z" transform="translate(-1092.39 -663.03)"/>
      <path class="d" d="M1106.34,669.92v0Z" transform="translate(-1092.39 -663.03)"/>
      <path d="M1106.34,672.65a0,0,0,0,1,0,0v-2.69a0,0,0,0,1,.09,0v2.69a0,0,0,0,1,0,0h0Z" transform="translate(-1092.39 -663.03)"/>
      <path class="d" d="M1106,669.92v0Z" transform="translate(-1092.39 -663.03)"/>
      <path d="M1106,672.65a0,0,0,0,1,0,0v-2.69a0,0,0,0,1,.09,0v2.69a0,0,0,0,1,0,0h0Z" transform="translate(-1092.39 -663.03)"/>
      <path d="M1107.72,669.78c-0.62.1-2,.74-1.82,1.59,0.22,1.21.93,0.73,1.87,0.55l0.71,0.24c0.25,0.26.63,0.5,0.88,0.18h0.42V674h-4.66v-4Z" transform="translate(-1092.39 -663.03)"/>
      <path d="M1109.79,674h-4.66l0-4,2.63-.28a0,0,0,0,1,0,0,0,0,0,0,1,0,0,2.85,2.85,0,0,0-1.62.93,0.8,0.8,0,0,0-.16.61c0.12,0.67.39,0.76,0.64,0.76a2.77,2.77,0,0,0,.66-0.12l0.52-.12,0.73,0.24c0.2,0.19.61,0.48,0.83,0.2l0.45,0,0,1.69a0,0,0,0,1,0,0h0Zm-2.53-4.17-2.12.19,0,3.93,4.57,0v-1.6l-0.38,0a0.33,0.33,0,0,1-.29.15,1,1,0,0,1-.62-0.35l-0.69-.23-0.49.12a2.92,2.92,0,0,1-.68.13,0.78,0.78,0,0,1-.73-0.84,0.88,0.88,0,0,1,.17-0.68,2.68,2.68,0,0,1,1.22-.83h0Z" transform="translate(-1092.39 -663.03)"/>
      <path class="d" d="M1105.35,669.5a0.28,0.28,0,1,0,.57,0h0a0.28,0.28,0,1,0-.57,0h0Z" transform="translate(-1092.39 -663.03)"/>
      <path d="M1105.63,669.83a0.33,0.33,0,1,1,.33-0.33,0.33,0.33,0,0,1-.33.33h0Zm0-.57a0.24,0.24,0,1,0,.24.24,0.24,0.24,0,0,0-.24-0.24h0Z" transform="translate(-1092.39 -663.03)"/>
      <path class="d" d="M1106,669.35a0.28,0.28,0,1,0,.57,0h0a0.28,0.28,0,1,0-.57,0h0Z" transform="translate(-1092.39 -663.03)"/>
      <path d="M1106.27,669.67a0.33,0.33,0,1,1,.33-0.33,0.33,0.33,0,0,1-.33.33h0Zm0-.57a0.24,0.24,0,1,0,.24.24,0.24,0.24,0,0,0-.24-0.24h0Z" transform="translate(-1092.39 -663.03)"/>
      <path class="d" d="M1106.63,669.19a0.28,0.28,0,1,0,.57,0h0a0.28,0.28,0,1,0-.57,0h0Z" transform="translate(-1092.39 -663.03)"/>
      <path d="M1106.92,669.51a0.33,0.33,0,1,1,.23-0.1,0.33,0.33,0,0,1-.23.1h0Zm0-.57a0.24,0.24,0,1,0,0,.48h0a0.23,0.23,0,0,0,.17-0.07,0.24,0.24,0,0,0,.07-0.17,0.24,0.24,0,0,0-.24-0.24h0Z" transform="translate(-1092.39 -663.03)"/>
      <path class="d" d="M1107.28,669.08a0.28,0.28,0,1,0,.57,0h0a0.28,0.28,0,0,0-.57,0h0Z" transform="translate(-1092.39 -663.03)"/>
      <path d="M1107.56,669.41a0.33,0.33,0,0,1-.33-0.33,0.34,0.34,0,0,1,.56-0.23,0.32,0.32,0,0,1,.09.23,0.33,0.33,0,0,1-.33.33h0Zm0-.57a0.24,0.24,0,1,0,.24.24,0.24,0.24,0,0,0-.07-0.17,0.24,0.24,0,0,0-.17-0.07h0Z" transform="translate(-1092.39 -663.03)"/>
      <path class="d" d="M1107.93,669a0.28,0.28,0,1,0,.57,0h0a0.28,0.28,0,1,0-.57,0h0Z" transform="translate(-1092.39 -663.03)"/>
      <path d="M1108.21,669.34a0.32,0.32,0,0,1-.23-0.1,0.33,0.33,0,1,1,.23.1h0Zm0-.57a0.24,0.24,0,0,0-.24.24,0.23,0.23,0,0,0,.07.17,0.25,0.25,0,0,0,.41-0.17,0.24,0.24,0,0,0-.24-0.24h0Z" transform="translate(-1092.39 -663.03)"/>
      <path class="d" d="M1108.56,669a0.28,0.28,0,0,0,.57,0h0a0.28,0.28,0,0,0-.57,0h0Z" transform="translate(-1092.39 -663.03)"/>
      <path d="M1108.85,669.38a0.33,0.33,0,1,1,.33-0.33,0.33,0.33,0,0,1-.33.33h0Zm0-.57a0.24,0.24,0,1,0,.24.24,0.24,0.24,0,0,0-.24-0.24h0Z" transform="translate(-1092.39 -663.03)"/>
      <path class="d" d="M1109.17,669.26a0.28,0.28,0,1,0,.57,0h0a0.28,0.28,0,0,0-.57,0h0Z" transform="translate(-1092.39 -663.03)"/>
      <path d="M1109.45,669.59a0.33,0.33,0,1,1,.33-0.33,0.33,0.33,0,0,1-.33.33h0Zm0-.57a0.24,0.24,0,0,0-.17.07,0.23,0.23,0,0,0-.07.17,0.24,0.24,0,1,0,.24-0.24h0Z" transform="translate(-1092.39 -663.03)"/>
      <path class="d" d="M1109.68,669.63a0.28,0.28,0,1,0,.57,0h0a0.28,0.28,0,0,0-.57,0h0Z" transform="translate(-1092.39 -663.03)"/>
      <path d="M1110,670a0.33,0.33,0,1,1,.33-0.33,0.33,0.33,0,0,1-.33.33h0Zm0-.57a0.24,0.24,0,1,0,.24.24,0.24,0.24,0,0,0-.24-0.24h0Z" transform="translate(-1092.39 -663.03)"/>
      <path class="d" d="M1110,670.16a0.28,0.28,0,1,0,.57,0h0a0.28,0.28,0,0,0-.57,0h0Z" transform="translate(-1092.39 -663.03)"/>
      <path d="M1110.32,670.48a0.33,0.33,0,1,1,.33-0.33,0.33,0.33,0,0,1-.33.33h0Zm0-.57a0.24,0.24,0,0,0,0,.48,0.24,0.24,0,1,0,0-.48h0Z" transform="translate(-1092.39 -663.03)"/>
      <path class="d" d="M1110.21,670.77a0.28,0.28,0,0,0,.57,0h0a0.28,0.28,0,0,0-.57,0h0Z" transform="translate(-1092.39 -663.03)"/>
      <path d="M1110.5,671.1a0.33,0.33,0,1,1,.33-0.33,0.33,0.33,0,0,1-.33.33h0Zm0-.57a0.24,0.24,0,1,0,.24.24,0.24,0.24,0,0,0-.24-0.24h0Z" transform="translate(-1092.39 -663.03)"/>
      <path class="d" d="M1110.21,671.41a0.28,0.28,0,0,0,.57,0h0a0.28,0.28,0,1,0-.57,0h0Z" transform="translate(-1092.39 -663.03)"/>
      <path d="M1110.49,671.74a0.33,0.33,0,1,1,.33-0.32,0.32,0.32,0,0,1-.33.32h0Zm0-.56a0.24,0.24,0,1,0,.24.24,0.24,0.24,0,0,0-.24-0.24h0Z" transform="translate(-1092.39 -663.03)"/>
      <path class="d" d="M1110.09,672a0.28,0.28,0,1,0,.57,0h0a0.28,0.28,0,0,0-.57,0h0Z" transform="translate(-1092.39 -663.03)"/>
      <path d="M1110.37,672.36a0.33,0.33,0,1,1,.33-0.33,0.33,0.33,0,0,1-.33.33h0Zm0-.57a0.24,0.24,0,1,0,.24.24,0.24,0.24,0,0,0-.24-0.24h0Z" transform="translate(-1092.39 -663.03)"/>
      <path class="d" d="M1105.51,669.88l0,0.37a16.19,16.19,0,0,1,2.63-.5,1.27,1.27,0,0,1,1.53,1.21,4.7,4.7,0,0,1-.84,2.42l0.5,0.24a5.39,5.39,0,0,0,.82-2.61,1.69,1.69,0,0,0-1.79-1.66,13.32,13.32,0,0,0-2.87.53h0Z" transform="translate(-1092.39 -663.03)"/>
      <path d="M1109.35,673.66h0l-0.5-.24a5.36,5.36,0,0,0,.82-2.46,1.25,1.25,0,0,0-1.48-1.17,7.25,7.25,0,0,0-1.77.31c-0.31.08-.6,0.15-0.86,0.19l-0.08-.41a5.42,5.42,0,0,1,.66-0.2,9.45,9.45,0,0,1,2.25-.37,1.73,1.73,0,0,1,1.83,1.7,5.47,5.47,0,0,1-.82,2.63,0,0,0,0,1,0,0h0Zm-1.18-4a1.31,1.31,0,0,1,1.57,1.25,4.81,4.81,0,0,1-.85,2.45l0.44,0.16a5.34,5.34,0,0,0,.79-2.55,1.65,1.65,0,0,0-1.75-1.62,9.33,9.33,0,0,0-2.23.37l-0.63.15,0.06,0.32c0.2-.08.49-0.15,0.8-0.23a7.46,7.46,0,0,1,1.79-.31h0Z" transform="translate(-1092.39 -663.03)"/>
      <rect class="e" y="17.19" width="58.92" height="17.19"/>
      <path class="d" d="M1105.11,666.07l-0.3.55,0.3,0.55,0.29-.55Zm0,1.39-0.3.55,0.3,0.55,0.29-.55Z" transform="translate(-1092.39 -663.03)"/>
      <path d="M1105.11,668.62l0,0-0.3-.55,0.3-.59a0,0,0,0,1,0,0h0l0,0,0.3,0.55-0.3.6,0,0h0Zm0-1.06-0.26.48,0.26,0.44,0.26-.48-0.26-.44h0Zm0-.34a0,0,0,0,1,0,0l-0.3-.55,0.3-.59a0,0,0,0,1,0,0h0l0,0,0.3,0.55-0.3.59a0,0,0,0,1,0,0h0Zm0-1.06-0.26.48,0.26,0.44,0.26-.48-0.26-.44h0Z" transform="translate(-1092.39 -663.03)"/>
      <path class="d" d="M1104.06,667.32l0.46,0.29,0.46-.29-0.46-.3Zm1.17,0,0.46,0.29,0.47-.29-0.47-.3Z" transform="translate(-1092.39 -663.03)"/>
      <path d="M1105.7,667.66h0l-0.46-.3a0,0,0,0,1,0,0,0,0,0,0,1,0,0l0.46-.29,0.51,0.29a0,0,0,0,1,0,0,0,0,0,0,1,0,0l-0.47.3h0Zm-0.39-.34,0.39,0.25,0.39-.24-0.41-.26-0.36.26h0Zm-0.79.34h0l-0.47-.3a0,0,0,0,1,0,0,0,0,0,0,1,0,0l0.47-.29,0.51,0.29a0,0,0,0,1,0,0,0,0,0,0,1,0,0l-0.46.3h0Zm-0.39-.34,0.39,0.25,0.38-.24-0.41-.26-0.36.26h0Z" transform="translate(-1092.39 -663.03)"/>
      <path class="d" d="M1105.33,667.33a0.22,0.22,0,1,1-.22-0.22,0.22,0.22,0,0,1,.22.22h0Z" transform="translate(-1092.39 -663.03)"/>
      <path d="M1105.11,667.6a0.27,0.27,0,1,1,.27-0.27,0.27,0.27,0,0,1-.27.27h0Zm0-.45a0.18,0.18,0,0,0-.18.18c0,0.2.36,0.2,0.36,0a0.18,0.18,0,0,0-.18-0.18h0Z" transform="translate(-1092.39 -663.03)"/>
      <path class="d" d="M1105.71,668.76a0.6,0.6,0,1,1-.6-0.6,0.6,0.6,0,0,1,.6.6h0Z" transform="translate(-1092.39 -663.03)"/>
      <path d="M1105.11,669.4a0.64,0.64,0,1,1,.64-0.64,0.64,0.64,0,0,1-.64.64h0Zm0-1.2a0.56,0.56,0,1,0,.56.56,0.56,0.56,0,0,0-.56-0.56h0Z" transform="translate(-1092.39 -663.03)"/>
      <path d="M1105.69,668.95h0a3.53,3.53,0,0,0-1.15,0,0,0,0,0,1,0,0,0,0,0,0,1,0-.05,3.48,3.48,0,0,1,1.17,0,0,0,0,0,1,0,.05,0,0,0,0,1,0,0h0Zm0-.3h0l-0.42,0,0-.42s0.09,0,.09,0v0.38a0.84,0.84,0,0,1,.39,0,0,0,0,0,1,0,0,0,0,0,0,1,0,0h0Zm-1.16,0a0,0,0,0,1,0,0,0,0,0,0,1,0,0l0.43,0,0-.09v-0.25s0.09,0,.09,0v0.38a4.64,4.64,0,0,1-.46.09h0Z" transform="translate(-1092.39 -663.03)"/>
      <path class="d" d="M1104.52,669.77a6.94,6.94,0,0,1-.55,2.7l0.62-.25a17.94,17.94,0,0,0,.33-2.38Zm1.17,0-0.39.07a18.09,18.09,0,0,0,.33,2.38l0.62,0.25a6.91,6.91,0,0,1-.55-2.7h0Z" transform="translate(-1092.39 -663.03)"/>
      <path d="M1104,672.51l0,0a0,0,0,0,1,0,0,7,7,0,0,0,.55-2.68l0.44,0a2.79,2.79,0,0,1,0,.55,12.13,12.13,0,0,1-.28,1.88l-0.64.28h0Zm0.54-2.7a6.35,6.35,0,0,1-.46,2.57l0.51-.21a14.9,14.9,0,0,0,.25-1.84c0-.2,0-0.37.05-0.51l-0.36,0h0Zm1.73,2.7h0l-0.62-.25a10.38,10.38,0,0,1-.3-1.9c0-.21,0-0.38-0.05-0.52l0.43-.11a8,8,0,0,0,.6,2.72,0,0,0,0,1,0,0l0,0h0Zm-0.6-2.74-0.34.11a1.34,1.34,0,0,1,.09.47,12,12,0,0,0,.27,1.86l0.49,0.18a7.33,7.33,0,0,1-.51-2.62h0Z" transform="translate(-1092.39 -663.03)"/>
      <path class="d" d="M1105.11,671.89a1.17,1.17,0,0,0-1.32,1.24c-0.18-.32-0.95-1.32-1.66-1.19a1.21,1.21,0,0,0-.73,1.34,1.29,1.29,0,0,0-2.13-.58c0.67,0.55,1,2.17,1.53,2.87h8.64c0.56-.7.86-2.32,1.53-2.87a1.29,1.29,0,0,0-2.13.58,1.21,1.21,0,0,0-.74-1.34c-0.71-.13-1.48.87-1.66,1.19a1.17,1.17,0,0,0-1.32-1.24h0Z" transform="translate(-1092.39 -663.03)"/>
      <path d="M1109.43,675.62h-8.64a4.81,4.81,0,0,1-.68-1.32,4.12,4.12,0,0,0-.87-1.55,1.32,1.32,0,0,1,1-.42,1.26,1.26,0,0,1,1.15.74,1.19,1.19,0,0,1,.78-1.16c0.7-.13,1.38.71,1.63,1.09a1.37,1.37,0,0,1,2.7,0c0.25-.38,1-1.22,1.63-1.09a1.19,1.19,0,0,1,.78,1.16,1.27,1.27,0,0,1,1.15-.74,1.57,1.57,0,0,1,1,.36,5.18,5.18,0,0,0-.87,1.63,5.49,5.49,0,0,1-.65,1.31l0,0h0Zm-9.23-3.21a1.46,1.46,0,0,0-.91.34,3.43,3.43,0,0,1,.89,1.52,5.46,5.46,0,0,0,.64,1.29l8.58,0a5.65,5.65,0,0,0,.63-1.27,4.2,4.2,0,0,1,.9-1.59,2,2,0,0,0-.91-0.27,1.22,1.22,0,0,0-1.16.89,0,0,0,0,1,0,0,0,0,0,0,1,0,0,1.17,1.17,0,0,0-.7-1.29c-0.64-.12-1.39.77-1.61,1.16a0,0,0,0,1,0,0,0,0,0,0,1,0,0,1.27,1.27,0,0,0-2.54,0,0,0,0,0,1,0,0,0,0,0,0,1,0,0c-0.14-.25-0.9-1.3-1.62-1.16a1.17,1.17,0,0,0-.7,1.29,0,0,0,0,1-.08,0,1.22,1.22,0,0,0-1.16-.89h0Z" transform="translate(-1092.39 -663.03)"/>
      <path d="M1109.41,675.58c0,0.32-1.93.67-4.3,0.67s-4.31-.35-4.31-0.67,1.93-.49,4.31-0.49,4.3,0.17,4.3.49h0Z" transform="translate(-1092.39 -663.03)"/>
      <path d="M1105.11,676.29c-2.32,0-4.35-.33-4.35-0.71s3.33-.53,4.35-0.53,4.35,0,4.35.53-2,.71-4.35.71h0Zm0-1.16c-2.8,0-4.26.22-4.26,0.45s1.79,0.63,4.26.63,4.26-.37,4.26-0.63-1.46-.45-4.26-0.45h0Z" transform="translate(-1092.39 -663.03)"/>
      <path class="d" d="M1105.31,669.59a0.2,0.2,0,1,1-.4,0h0a0.2,0.2,0,1,1,.4,0h0Z" transform="translate(-1092.39 -663.03)"/>
      <path d="M1105.11,669.83a0.24,0.24,0,0,1-.24-0.24,0.23,0.23,0,0,1,.07-0.17,0.25,0.25,0,0,1,.42.17,0.24,0.24,0,0,1-.24.24h0Zm0-.4a0.16,0.16,0,0,0-.11,0,0.15,0.15,0,0,0,0,.11c0,0.18.31,0.17,0.31,0a0.16,0.16,0,0,0-.16-0.16h0Z" transform="translate(-1092.39 -663.03)"/>
      <path class="d" d="M1105.32,670a0.21,0.21,0,0,1-.43,0h0a0.21,0.21,0,1,1,.43,0h0Z" transform="translate(-1092.39 -663.03)"/>
      <path d="M1105.11,670.28a0.26,0.26,0,1,1,.26-0.26,0.26,0.26,0,0,1-.26.26h0Zm0-.43a0.17,0.17,0,0,0-.17.17c0,0.19.34,0.19,0.34,0a0.17,0.17,0,0,0-.17-0.17h0Z" transform="translate(-1092.39 -663.03)"/>
      <path class="d" d="M1105.34,670.49a0.23,0.23,0,0,1-.47,0h0a0.23,0.23,0,1,1,.47,0h0Z" transform="translate(-1092.39 -663.03)"/>
      <path d="M1105.11,670.76h0a0.28,0.28,0,1,1,0-.55,0.28,0.28,0,1,1,0,.55h0Zm0-.47a0.19,0.19,0,0,0-.19.19c0,0.21.38,0.21,0.38,0a0.19,0.19,0,0,0-.19-0.19h0Z" transform="translate(-1092.39 -663.03)"/>
      <path class="d" d="M1105.38,671a0.27,0.27,0,0,1-.53,0h0a0.27,0.27,0,1,1,.53,0h0Z" transform="translate(-1092.39 -663.03)"/>
      <path d="M1105.11,671.32h0a0.31,0.31,0,1,1,.31-0.31,0.31,0.31,0,0,1-.31.31h0Zm0-.54a0.23,0.23,0,0,0-.22.22,0.22,0.22,0,1,0,.22-0.22h0Z" transform="translate(-1092.39 -663.03)"/>
      <path class="d" d="M1105.4,671.59a0.29,0.29,0,1,1-.59,0h0a0.29,0.29,0,1,1,.59,0h0Z" transform="translate(-1092.39 -663.03)"/>
      <path d="M1105.11,671.92a0.34,0.34,0,1,1,.33-0.34,0.34,0.34,0,0,1-.33.34h0Zm0-.59a0.25,0.25,0,1,0,.25.25,0.25,0.25,0,0,0-.25-0.25h0Z" transform="translate(-1092.39 -663.03)"/>
      <path d="M1105,672.15a0.06,0.06,0,0,0-.05.08l0,0.25c0,0.09.06,0.06,0.08,0a1.32,1.32,0,0,0,0-.23,0.07,0.07,0,0,0-.07-0.09h0Zm0.23,0a0.07,0.07,0,0,0-.07.09,1.54,1.54,0,0,0,0,.23c0,0.07.06,0.09,0.08,0s0-.19,0-0.25a0.06,0.06,0,0,0-.05-0.08h0Zm-0.44,0a0.07,0.07,0,0,0-.06.06c0,0.06,0,.13,0,0.21s0.07,0.05.08,0a1.13,1.13,0,0,0,0-.22,0,0,0,0,0,0-.05h0Zm0.64,0a0,0,0,0,0,0,.05,1.09,1.09,0,0,0,0,.22s0.07,0.08.08,0,0-.15,0-0.21a0.07,0.07,0,0,0-.06-0.06h0Zm-0.88.1a0.06,0.06,0,0,0,0,.07,1.14,1.14,0,0,1,0,.23c0,0.06.06,0,.06,0s0-.14,0-0.22,0-.08-0.05-0.07h0Zm1.13,0a0.07,0.07,0,0,0,0,.07c0,0.09,0,.18,0,0.22s0.06,0.07.06,0a1.08,1.08,0,0,1,0-.23,0.06,0.06,0,0,0,0-.07h0Zm-3.39,0s-0.05,0,0,.09,0.07,0.12.11,0.21,0.08,0,.06,0a2,2,0,0,0-.08-0.21,0.08,0.08,0,0,0-.06-0.06h0Zm5.66,0a0.08,0.08,0,0,0-.06.06,1.82,1.82,0,0,0-.08.21c0,0.05,0,.1.07,0s0.07-.13.11-0.21,0-.09,0-0.09h0Zm-5.43,0a0,0,0,0,0,0,.07l0.1,0.22c0,0.07.08,0,.06,0s0-.1-0.06-0.21-0.05-.07-0.08-0.07h0Zm5.19,0a0.09,0.09,0,0,0-.06.07c0,0.11,0,.15-0.06.21s0,0.08.06,0,0.07-.15.1-0.22a0.05,0.05,0,0,0,0-.07h0Zm-4.9.05a0.07,0.07,0,0,0,0,.11c0,0.07.06,0.14,0.09,0.21s0.08,0.06.07,0,0-.13-0.07-0.26,0-.08-0.06-0.07h0Zm4.63,0s0,0-.07.07-0.05.21-.07,0.26,0,0.07.07,0,0.07-.14.09-0.21a0.08,0.08,0,0,0,0-.11h0Zm-5.34,0a0.07,0.07,0,0,0,0,.1c0,0.06.05,0.08,0.08,0.15s0.07,0,.05,0l0-.16s0-.06,0-0.06h0Zm6,0s0,0,0,.06l0,0.16s0,0.1.05,0,0.05-.09.08-0.15a0.07,0.07,0,0,0,0-.1h0Zm-3.84.16a0.07,0.07,0,0,0-.06.09c0,0.07,0,.13.07,0.21s0.07,0,.07,0a1.4,1.4,0,0,0,0-.23,0.06,0.06,0,0,0,0-.06h0Zm1.63,0a0.06,0.06,0,0,0,0,.06,1.42,1.42,0,0,0,0,.23c0,0.05.05,0.09,0.07,0s0-.14.07-0.21a0.07,0.07,0,0,0-.06-0.09h0Zm-0.82.07s0,0.06,0,.1a0.71,0.71,0,0,1-.12.36,0.14,0.14,0,0,1-.2,0l-0.19-.12c-0.08-.06-0.13,0,0,0.11a2.08,2.08,0,0,1,.55,1.31c0,0.08,0,.1,0,0.1s0,0,0-.1a2.07,2.07,0,0,1,.55-1.31c0.09-.13,0-0.16,0-0.11l-0.19.12a0.14,0.14,0,0,1-.2,0,0.71,0.71,0,0,1-.12-0.36s0-.1,0-0.1h0Zm-2-.09h0a0,0,0,0,0,0,.05c0,0.06,0,.17.07,0.22s0.08,0,.06,0,0-.09,0-0.18a0.09,0.09,0,0,0-.07-0.07h0Zm4,0a0.09,0.09,0,0,0-.07.07c0,0.08,0,.1,0,0.18s0,0.09.07,0,0.05-.17.06-0.22a0,0,0,0,0,0-.05h0Zm-5.24,0s-0.06,0,0,.11,0.1,0.15.13,0.2,0.08,0,0,0,0-.13-0.09-0.21a0.06,0.06,0,0,0-.06,0h0Zm6.44,0a0.06,0.06,0,0,0-.06,0c0,0.09-.05.15-0.09,0.21s0,0.09,0,0l0.13-.2c0-.06,0-0.1,0-0.11h0Zm-8.26.19s0,0.07,0,.11a1.26,1.26,0,0,0,.15.16s0.06,0,0-.06l-0.11-.16a0.1,0.1,0,0,0-.07-0.05h0Zm10.08,0a0.1,0.1,0,0,0-.07.05L1110,673s0,0.1,0,.06a1.19,1.19,0,0,0,.15-0.16s0-.11,0-0.11h0Zm-9.79.06s-0.05,0,0,.07l0.11,0.22c0,0.06.12,0.08,0.08,0s0-.13-0.07-0.22a0.1,0.1,0,0,0-.09-0.06h0Zm9.5,0a0.1,0.1,0,0,0-.09.06c0,0.08,0,.13-0.07.22s0.05,0.07.08,0l0.11-.22c0-.05,0-0.07,0-0.07h0Zm-10.06,0s0,0,0,.07L1100,673c0.07,0.06.1,0,.06,0a0.45,0.45,0,0,0-.17-0.14l-0.06,0h0Zm10.62,0-0.06,0a0.46,0.46,0,0,0-.17.14s0,0.1.06,0l0.18-.13s0-.07,0-0.07h0Zm-6.28,0a0.05,0.05,0,0,0,0,.07c0,0.07,0,.14.05,0.21s0.09,0.07.08,0,0-.13,0-0.23a0.06,0.06,0,0,0,0-.05h0Zm1.94,0a0.06,0.06,0,0,0,0,.05c0,0.09,0,.17,0,0.23s0.06,0.06.08,0a2,2,0,0,1,.05-0.21,0.05,0.05,0,0,0,0-.07h0Zm-3.66-.11a0.08,0.08,0,0,0,0,.09,1.52,1.52,0,0,1,.09.52,0.07,0.07,0,0,1-.11.06l-0.16-.09s-0.1,0,0,.06a1.85,1.85,0,0,1,.68,1c0,0.08.07,0.09,0.06,0a2.21,2.21,0,0,1,0-1.16c0-.1,0-0.19-0.07,0s-0.12.15-.19,0.05a2.59,2.59,0,0,1-.23-0.44,0.09,0.09,0,0,0,0-.06h0Zm5.39,0a0.08,0.08,0,0,0,0,.06,2.75,2.75,0,0,1-.23.44c-0.06.09-.14,0-0.19-0.05s-0.12-.06-0.07,0a2.2,2.2,0,0,1,0,1.16c0,0.09,0,.08.06,0a1.85,1.85,0,0,1,.68-1c0.07-.06,0-0.1,0-0.06l-0.16.09a0.07,0.07,0,0,1-.11-0.06,1.48,1.48,0,0,1,.09-0.52,0.07,0.07,0,0,0,0-.09h0Zm-7.13.14a0,0,0,0,0,0,.07c0,0.08.07,0.16,0.09,0.21s0.07,0,.06,0,0-.11,0-0.18a0.07,0.07,0,0,0-.07-0.05h0Zm8.88,0a0.07,0.07,0,0,0-.07.05l0,0.18c0,0.07,0,.09.06,0s0.06-.13.09-0.21a0,0,0,0,0,0-.07h0Zm-7.81-.1s0,0.09,0,.13l0.16,0.18c0,0.06.08,0,0,0l-0.15-.22a0.1,0.1,0,0,0,0,0h0Zm6.73,0a0.09,0.09,0,0,0,0,0l-0.15.22s0,0.1,0,0l0.16-.18s0-.13,0-0.12h0Zm-7.56.23s0,0,0,.06,0,0.12,0,.18,0.06,0,.06,0a1.23,1.23,0,0,0,0-.18,0.06,0.06,0,0,0-.05-0.05h0Zm8.39,0a0.06,0.06,0,0,0-.05.05,1.36,1.36,0,0,0,0,.18c0,0.06,0,.07.06,0s0-.11,0-0.18,0-.06,0-0.06h0Zm-7.64.08s-0.07,0,0,.09a2.37,2.37,0,0,0,.16.18s0.09,0,0,0-0.11-.15-0.13-0.2a0,0,0,0,0-.05,0h0Zm6.88,0a0,0,0,0,0,0,0l-0.13.2c0,0.07,0,.08,0,0s0.1-.09.16-0.18,0-.09,0-0.09h0Zm-8.06.24s0,0,0,.07a1.1,1.1,0,0,1,.19.37c0,0.08,0,.08-0.07.08a1,1,0,0,1-.25-0.1c-0.1,0-.11,0,0,0.08a3,3,0,0,1,.84.79c0.06,0.11.13,0.14,0.09,0a1.36,1.36,0,0,1-.13-0.72,2.22,2.22,0,0,0,.06-0.35c0-.09-0.06-0.08-0.08,0a0.61,0.61,0,0,1-.06.16s-0.1,0-.17-0.05a2.82,2.82,0,0,0-.32-0.33l-0.06,0h0Zm9.26,0-0.06,0a2.73,2.73,0,0,0-.32.33c-0.07.1-.15,0.08-0.17,0.05a0.61,0.61,0,0,1-.06-0.16c0-.08-0.07-0.09-0.08,0a2.07,2.07,0,0,0,.06.35,1.39,1.39,0,0,1-.13.72c0,0.1,0,.06.09,0a3.06,3.06,0,0,1,.84-0.79c0.07,0,.05-0.1,0-0.08a0.93,0.93,0,0,1-.25.1s-0.07,0-.07-0.08a1.1,1.1,0,0,1,.19-0.37c0-.05,0-0.07,0-0.07h0Z" transform="translate(-1092.39 -663.03)"/>
      <path class="f" d="M1101,675.21l0.11,0.36Zm0.23-.07,0.1,0.36Zm0.25,0,0.07,0.36Zm0.23,0,0.07,0.36Zm0.3,0,0.06,0.37Zm0.31,0,0.06,0.37Zm0.31-.1,0,0.37Zm0.29,0,0,0.37Zm0.28,0,0,0.37Zm0.28,0,0,0.37Zm0.3,0,0,0.37Zm0.27,0,0,0.37Zm0.3,0v0Zm0.34,0v0Zm4.54,0.38-0.11.36Zm-0.23-.07-0.1.36Zm-0.25,0-0.07.36Zm-0.23,0-0.07.36Zm-0.29,0-0.06.37Zm-0.31,0-0.06.37Zm-0.31-.1,0,0.37Zm-0.29,0,0,0.37Zm-0.28,0,0,0.37Zm-0.28,0,0,0.37Zm-0.3,0,0,0.37Zm-0.27,0,0,0.37Zm-0.3,0v0Zm-0.34,0v0Zm-0.43,0v0Z" transform="translate(-1092.39 -663.03)"/>
      <path d="M1109.11,675.61h0a0,0,0,0,1,0-.05l0.11-.35a0,0,0,0,1,.05,0,0,0,0,0,1,0,.05l-0.11.36a0,0,0,0,1,0,0h0Zm-8,0a0,0,0,0,1,0,0l-0.11-.36a0,0,0,0,1,0-.05,0,0,0,0,1,.05,0l0.11,0.35a0,0,0,0,1,0,.05h0Zm7.79-.06h0a0,0,0,0,1,0-.05l0.1-.36a0,0,0,0,1,.05,0,0,0,0,0,1,0,.05l-0.1.36a0,0,0,0,1,0,0h0Zm-7.57,0a0,0,0,0,1,0,0l-0.1-.36a0,0,0,0,1,0-.05,0,0,0,0,1,.05,0l0.1,0.36a0,0,0,0,1,0,.05h0Zm0.22,0a0,0,0,0,1,0,0l-0.07-.36a0,0,0,0,1,0-.05,0,0,0,0,1,.05,0l0.07,0.37a0,0,0,0,1,0,.05h0Zm7.14,0h0a0,0,0,0,1,0-.05l0.07-.37a0,0,0,0,1,.05,0,0,0,0,0,1,0,.05l-0.07.36a0,0,0,0,1,0,0h0Zm-0.24,0h0a0,0,0,0,1,0-.05l0.07-.36a0,0,0,0,1,0,0,0,0,0,0,1,0,.05l-0.07.36a0,0,0,0,1,0,0h0Zm-6.67,0a0,0,0,0,1,0,0l-0.07-.36a0,0,0,0,1,0-.05,0,0,0,0,1,.05,0l0.07,0.36a0,0,0,0,1,0,.05h0Zm6.07,0h0a0,0,0,0,1,0,0l0.06-.37a0,0,0,0,1,0,0,0,0,0,0,1,0,.05l-0.06.37a0,0,0,0,1,0,0h0Zm-5.47,0a0,0,0,0,1,0,0l-0.06-.37a0,0,0,0,1,0-.05,0,0,0,0,1,.05,0l0.06,0.37a0,0,0,0,1,0,0h0Zm5.79,0h0a0,0,0,0,1,0,0l0.06-.37a0,0,0,0,1,0,0,0,0,0,0,1,0,.05l-0.06.37a0,0,0,0,1,0,0h0Zm-6.11,0a0,0,0,0,1,0,0L1102,675a0,0,0,0,1,0-.05,0,0,0,0,1,0,0l0.06,0.37a0,0,0,0,1,0,0h0Zm5.21-.08h0a0,0,0,0,1,0,0l0-.37a0,0,0,0,1,0,0,0,0,0,0,1,0,0l0,0.37a0,0,0,0,1,0,0h0Zm-4.31,0a0,0,0,0,1,0,0l0-.37a0,0,0,0,1,0,0,0,0,0,0,1,0,0l0,0.37a0,0,0,0,1,0,0h0Zm4.6,0h0a0,0,0,0,1,0,0l0-.37a0,0,0,0,1,0,0,0,0,0,0,1,0,0l0,0.37a0,0,0,0,1,0,0h0Zm-4.89,0a0,0,0,0,1,0,0l0-.37a0,0,0,0,1,0,0,0,0,0,0,1,0,0l0,0.37a0,0,0,0,1,0,0h0Zm4.32,0h0a0,0,0,0,1,0,0l0-.37a0,0,0,0,1,0,0,0,0,0,0,1,0,0l0,0.37a0,0,0,0,1,0,0h0Zm-3.75,0a0,0,0,0,1,0,0l0-.37a0,0,0,0,1,0,0,0,0,0,0,1,0,0l0,0.37a0,0,0,0,1,0,0h0Zm3.2,0h0a0,0,0,0,1,0,0l0-.37a0,0,0,0,1,0,0,0,0,0,0,1,0,0l0,0.37a0,0,0,0,1,0,0h0Zm0.3,0h0a0,0,0,0,1,0,0l0-.37a0.09,0.09,0,0,1,0,0,0,0,0,0,1,0,0l0,0.37a0,0,0,0,1,0,0h0Zm-3.24,0a0,0,0,0,1,0,0l0-.37a0,0,0,0,1,0,0s0,0,0,0l0,0.37a0,0,0,0,1,0,0h0Zm0.3,0a0,0,0,0,1,0,0l0-.37a0,0,0,0,1,0,0s0,0,0,0l0,0.37a0,0,0,0,1,0,0h0Zm2.38,0h0a0,0,0,0,1,0,0l0-.37a0.06,0.06,0,0,1,0,0,0,0,0,0,1,0,0l0,0.37a0,0,0,0,1,0,0h0Zm-2.11,0a0,0,0,0,1,0,0l0-.37a0,0,0,0,1,0,0s0,0,0,0l0,0.37a0,0,0,0,1,0,0h0Zm1.05,0a0,0,0,0,1,0,0v-0.41s0.09,0,.09,0v0.41a0,0,0,0,1,0,0h0Zm0.76,0h0a0,0,0,0,1,0,0l0-.37a0,0,0,0,1,0,0,0,0,0,0,1,0,0l0,0.37a0,0,0,0,1,0,0h0Zm-1.52,0a0,0,0,0,1,0,0l0-.37a0,0,0,0,1,0,0s0,0,0,0l0,0.37a0,0,0,0,1,0,0h0Zm1.17,0h0a0,0,0,0,1,0,0l0-.37a0.06,0.06,0,0,1,0,0,0,0,0,0,1,0,0v0.37a0,0,0,0,1,0,0h0Zm-0.83,0a0,0,0,0,1,0,0v-0.37a0,0,0,0,1,0,0,0.05,0.05,0,0,1,0,0l0,0.37a0,0,0,0,1,0,0h0Z" transform="translate(-1092.39 -663.03)"/>
    </g>
  </g>
</svg>
