<svg xmlns="http://www.w3.org/2000/svg" xmlns:xlink="http://www.w3.org/1999/xlink" viewBox="0 0 58.92 34.37">
  <defs>
    <style>
      .a {
        fill: none;
      }

      .b {
        clip-path: url(#a);
      }

      .c {
        fill: #4f9f3a;
      }

      .d {
        fill: #bc0030;
      }
    </style>
    <clipPath id="a" transform="translate(-1021.7 -720.42)">
      <rect class="a" x="1021.7" y="720.42" width="58.92" height="34.37"/>
    </clipPath>
  </defs>
  <title>Malawi</title>
  <g class="b">
    <rect width="58.92" height="17.19"/>
    <rect class="c" y="17.19" width="58.92" height="17.19"/>
    <rect class="d" y="11.46" width="58.92" height="11.46"/>
    <g class="b">
      <path class="d" d="M1051.17,726.09a7.39,7.39,0,0,0-7,4.93h13.94a7.39,7.39,0,0,0-7-4.93" transform="translate(-1021.7 -720.42)"/>
      <path class="d" d="M1051.17,721.79c-0.25,0-.34.37-0.34,0.74a13.53,13.53,0,0,0,.34,2.69,13.66,13.66,0,0,0,.34-2.69c0-.37-0.1-0.74-0.34-0.74m-1,0c-0.25,0-.31.4-0.28,0.77a13.69,13.69,0,0,0,.58,2.65,13.75,13.75,0,0,0,.11-2.71c0-.37-0.16-0.73-0.4-0.71m2,0c-0.25,0-.37.34-0.4,0.71a13.55,13.55,0,0,0,.11,2.71,13.52,13.52,0,0,0,.58-2.65c0-.37,0-0.75-0.28-0.77m-3,.13h0c-0.25,0-.27.43-0.21,0.79a13.7,13.7,0,0,0,.81,2.59,13.62,13.62,0,0,0-.13-2.71,0.71,0.71,0,0,0-.42-0.68m4,0a0.71,0.71,0,0,0-.42.68,13.62,13.62,0,0,0-.13,2.71,13.77,13.77,0,0,0,.81-2.59c0.06-.37,0-0.75-0.21-0.79h0m-5,.21h0a0.64,0.64,0,0,0-.14.81,13.68,13.68,0,0,0,1,2.51,13.75,13.75,0,0,0-.37-2.69,0.71,0.71,0,0,0-.48-0.64m6,0a0.71,0.71,0,0,0-.48.64,13.75,13.75,0,0,0-.37,2.69,13.69,13.69,0,0,0,1-2.51,0.64,0.64,0,0,0-.14-0.81h0m-6.89.3h-0.09a0.64,0.64,0,0,0-.07.82,13.69,13.69,0,0,0,1.24,2.41,13.74,13.74,0,0,0-.6-2.65,0.8,0.8,0,0,0-.49-0.59m7.82,0a0.8,0.8,0,0,0-.49.59,13.6,13.6,0,0,0-.6,2.65,13.74,13.74,0,0,0,1.24-2.41,0.64,0.64,0,0,0-.07-0.82h-0.09m-8.77.38-0.08,0a0.64,0.64,0,0,0,0,.82,13.73,13.73,0,0,0,1.45,2.29,13.74,13.74,0,0,0-.83-2.59,0.81,0.81,0,0,0-.54-0.55m9.71,0a0.81,0.81,0,0,0-.54.55,13.75,13.75,0,0,0-.83,2.59,13.6,13.6,0,0,0,1.45-2.29c0.16-.34.23-0.71,0-0.82l-0.08,0m-10.62.46-0.08,0c-0.21.13-.11,0.49,0.08,0.82a13.64,13.64,0,0,0,1.64,2.16,13.7,13.7,0,0,0-1-2.5,0.81,0.81,0,0,0-.59-0.5m11.48,0a0.9,0.9,0,0,0-.54.5,13.57,13.57,0,0,0-1,2.5,13.57,13.57,0,0,0,1.64-2.16,0.64,0.64,0,0,0,.08-0.82,0.24,0.24,0,0,0-.13,0m-12.3.54a0.21,0.21,0,0,0-.12,0c-0.2.14-.07,0.5,0.15,0.81a13.66,13.66,0,0,0,1.82,2,13.73,13.73,0,0,0-1.26-2.4,0.91,0.91,0,0,0-.59-0.46m13.16,0a0.91,0.91,0,0,0-.59.46,13.66,13.66,0,0,0-1.26,2.4,13.66,13.66,0,0,0,1.82-2c0.21-.3.35-0.67,0.15-0.81a0.22,0.22,0,0,0-.12,0m-14,.61a0.23,0.23,0,0,0-.12.05c-0.19.16,0,.51,0.21,0.79a13.6,13.6,0,0,0,2,1.84,13.68,13.68,0,0,0-1.47-2.29,0.9,0.9,0,0,0-.62-0.4m14.75,0a1,1,0,0,0-.58.4,13.69,13.69,0,0,0-1.47,2.29,13.62,13.62,0,0,0,2-1.84,0.64,0.64,0,0,0,.21-0.79,0.22,0.22,0,0,0-.16-0.05m-15.46.67a0.22,0.22,0,0,0-.16.07c-0.18.18,0,.51,0.28,0.77a13.51,13.51,0,0,0,2.15,1.66,13.56,13.56,0,0,0-1.66-2.15,1,1,0,0,0-.61-0.35m16.21,0a1,1,0,0,0-.61.35,13.61,13.61,0,0,0-1.66,2.15,13.52,13.52,0,0,0,2.15-1.66c0.26-.26.46-0.59,0.28-0.77a0.22,0.22,0,0,0-.16-0.07m-16.86.74a0.25,0.25,0,0,0-.2.08c-0.16.19,0.06,0.5,0.35,0.74a13.73,13.73,0,0,0,2.28,1.47,13.66,13.66,0,0,0-1.84-2,1.13,1.13,0,0,0-.59-0.3m17.51,0a1.13,1.13,0,0,0-.59.3,13.77,13.77,0,0,0-1.84,2,13.72,13.72,0,0,0,2.28-1.47c0.29-.24.51-0.55,0.35-0.74a0.25,0.25,0,0,0-.2-0.08m-18.14.79a0.24,0.24,0,0,0-.19.1c-0.14.2,0.11,0.49,0.42,0.71a13.53,13.53,0,0,0,2.4,1.26,13.58,13.58,0,0,0-2-1.82,1.12,1.12,0,0,0-.62-0.25m18.72,0a1.23,1.23,0,0,0-.57.25,13.58,13.58,0,0,0-2,1.82,13.53,13.53,0,0,0,2.4-1.26c0.31-.21.56-0.51,0.42-0.71a0.26,0.26,0,0,0-.24-0.1m-19.23.84a0.26,0.26,0,0,0-.23.12c-0.12.21,0.15,0.48,0.47,0.67a13.67,13.67,0,0,0,2.51,1,13.62,13.62,0,0,0-2.16-1.64,1.24,1.24,0,0,0-.59-0.2m19.79,0a1.23,1.23,0,0,0-.59.2,13.58,13.58,0,0,0-2.16,1.64,13.67,13.67,0,0,0,2.51-1c0.32-.19.6-0.46,0.47-0.67a0.26,0.26,0,0,0-.23-0.12m-20.16.88a0.3,0.3,0,0,0-.32.14c-0.1.22,0.19,0.46,0.53,0.62a13.61,13.61,0,0,0,2.59.83,13.65,13.65,0,0,0-2.3-1.45,1.39,1.39,0,0,0-.5-0.14m20.54,0a1.39,1.39,0,0,0-.5.14,13.69,13.69,0,0,0-2.3,1.45,13.61,13.61,0,0,0,2.59-.83c0.34-.16.63-0.4,0.53-0.62a0.3,0.3,0,0,0-.32-0.14m-20.94.91a0.3,0.3,0,0,0-.31.17c-0.09.23,0.23,0.45,0.58,0.58a13.56,13.56,0,0,0,2.65.6,13.57,13.57,0,0,0-2.41-1.24,1.5,1.5,0,0,0-.51-0.1m21.35,0a1.49,1.49,0,0,0-.51.1,13.54,13.54,0,0,0-2.42,1.24,13.55,13.55,0,0,0,2.65-.6c0.35-.13.67-0.34,0.58-0.58a0.3,0.3,0,0,0-.31-0.17m-21.55.94a0.37,0.37,0,0,0-.41.2c-0.06.24,0.27,0.43,0.63,0.53l0.15,0h1.84a9.76,9.76,0,0,0-1.81-.7,1.75,1.75,0,0,0-.4-0.06m21.76,0a1.75,1.75,0,0,0-.4.06,9.75,9.75,0,0,0-1.81.7h1.84l0.15,0c0.36-.1.7-0.29,0.63-0.53a0.37,0.37,0,0,0-.41-0.2" transform="translate(-1021.7 -720.42)"/>
    </g>
  </g>
</svg>
