<svg xmlns="http://www.w3.org/2000/svg" xmlns:xlink="http://www.w3.org/1999/xlink" viewBox="0 0 58.92 34.37">
  <defs>
    <style>
      .a {
        fill: none;
      }

      .b {
        clip-path: url(#a);
      }

      .c {
        fill: #bd0034;
      }

      .d {
        fill: #fff;
      }

      .e {
        fill: #efecec;
      }

      .f {
        fill: #d30038;
      }

      .g {
        fill: #91857c;
      }

      .h {
        fill: #cacaca;
      }

      .i {
        fill: #cecece;
      }
    </style>
    <clipPath id="a" transform="translate(-175 -778.89)">
      <rect class="a" x="175" y="778.89" width="58.92" height="34.37"/>
    </clipPath>
  </defs>
  <title>Malta</title>
  <g class="b">
    <rect class="c" x="29.46" width="29.46" height="34.37"/>
    <rect class="d" width="29.46" height="34.37"/>
    <g class="b">
      <path class="e" d="M181.81,784.13a0.15,0.15,0,1,1-.14-0.1,0.13,0.13,0,0,1,.14.1h0Z" transform="translate(-175 -778.89)"/>
      <path class="f" d="M177.45,783.64v2.53H180a0.91,0.91,0,0,0,.84.84v2.53h2.53V787a0.91,0.91,0,0,0,.84-0.84h2.53v-2.53H184.2a0.91,0.91,0,0,0-.84-0.84v-2.53h-2.53v2.53a0.91,0.91,0,0,0-.84.84h-2.53Z" transform="translate(-175 -778.89)"/>
      <path class="c" d="M177.54,783.73v2.36h2.53a0.91,0.91,0,0,0,.84.84v2.53h2.36v-2.53a0.91,0.91,0,0,0,.84-0.84h2.53v-2.36h-2.53a0.91,0.91,0,0,0-.84-0.84v-2.53h-2.36v2.53a0.91,0.91,0,0,0-.84.84h-2.53Z" transform="translate(-175 -778.89)"/>
      <path class="g" d="M177.62,783.81V786h2.53a0.91,0.91,0,0,0,.84.84v2.53h2.19v-2.53A0.91,0.91,0,0,0,184,786h2.53v-2.2H184a0.91,0.91,0,0,0-.84-0.84v-2.53H181V783a0.91,0.91,0,0,0-.84.84h-2.53Z" transform="translate(-175 -778.89)"/>
      <path class="h" d="M177.71,783.9v2h2.53a0.91,0.91,0,0,0,.84.84v2.53h2v-2.53a0.91,0.91,0,0,0,.84-0.84h2.53v-2H184a0.91,0.91,0,0,0-.84-0.85v-2.53h-2v2.53a0.91,0.91,0,0,0-.84.85h-2.53Z" transform="translate(-175 -778.89)"/>
      <path class="i" d="M181.1,782.84a0.95,0.95,0,1,1-.81.27,0.68,0.68,0,0,1,.81-0.27h0Z" transform="translate(-175 -778.89)"/>
      <path class="g" d="M180.92,783a0.53,0.53,0,1,1-.63.09,0.45,0.45,0,0,1,.63-0.09h0Z" transform="translate(-175 -778.89)"/>
      <polygon class="i" points="5.18 4.58 5.24 4.52 5.48 4.64 5.36 4.4 5.42 4.34 5.66 4.81 5.18 4.58"/>
      <polygon class="i" points="5.54 4.22 5.6 4.16 5.96 4.52 5.89 4.58 5.54 4.22"/>
      <path class="i" d="M184.16,783.92a0.67,0.67,0,0,1-.81-0.27,0.47,0.47,0,1,1,.81.27h0Z" transform="translate(-175 -778.89)"/>
      <path class="g" d="M184,783.74a0.53,0.53,0,1,1-.09-0.63,0.46,0.46,0,0,1,.09.63h0Z" transform="translate(-175 -778.89)"/>
      <polygon class="i" points="8.53 4.1 8.6 4.16 8.47 4.4 8.71 4.28 8.77 4.34 8.3 4.58 8.53 4.1"/>
      <rect class="i" x="183.49" y="783.52" width="0.51" height="0.09" transform="translate(-672.04 -424.58) rotate(-44.57)"/>
      <path class="i" d="M183.09,787a1,1,0,1,1,.81-0.27,0.68,0.68,0,0,1-.81.27h0Z" transform="translate(-175 -778.89)"/>
      <path class="g" d="M183.26,786.8a0.53,0.53,0,1,1,.63-0.09,0.46,0.46,0,0,1-.63.09h0Z" transform="translate(-175 -778.89)"/>
      <polygon class="i" points="9.01 7.46 8.95 7.51 8.71 7.39 8.83 7.63 8.77 7.69 8.53 7.22 9.01 7.46"/>
      <polygon class="i" points="8.65 7.81 8.6 7.87 8.24 7.51 8.3 7.46 8.65 7.81"/>
      <path class="i" d="M180,785.9a0.95,0.95,0,1,1,.27.8,0.68,0.68,0,0,1-.27-0.8h0Z" transform="translate(-175 -778.89)"/>
      <path class="g" d="M180.21,786.08a0.53,0.53,0,0,1,.72.72,0.53,0.53,0,0,1-.72-0.72h0Z" transform="translate(-175 -778.89)"/>
      <polygon class="i" points="5.66 7.93 5.6 7.87 5.72 7.63 5.48 7.75 5.42 7.69 5.89 7.46 5.66 7.93"/>
      <polygon class="i" points="5.3 7.57 5.24 7.51 5.6 7.16 5.66 7.22 5.3 7.57"/>
      <path class="g" d="M182.09,786.7a1.79,1.79,0,0,1,0-3.57,1.79,1.79,0,0,1,0,3.57h0Zm0-3.54a1.76,1.76,0,1,0,1.24.52,1.76,1.76,0,0,0-1.24-.52h0Z" transform="translate(-175 -778.89)"/>
      <path class="g" d="M182.09,786.27a1.36,1.36,0,1,1,1.36-1.37,1.37,1.37,0,0,1-1.36,1.37h0Zm0-2.7a1.34,1.34,0,1,0,1.34,1.34,1.34,1.34,0,0,0-1.34-1.34h0Z" transform="translate(-175 -778.89)"/>
      <path d="M181.5,786.34a0.09,0.09,0,0,1,0,.07,0.08,0.08,0,0,1-.08,0,0.08,0.08,0,0,1,0-.15,0.08,0.08,0,0,1,.08,0,0.09,0.09,0,0,1,0,.07h0Z" transform="translate(-175 -778.89)"/>
      <path d="M182.85,786.34a0.08,0.08,0,0,1,0,.07,0.08,0.08,0,0,1-.08,0,0.08,0.08,0,0,1,0-.15,0.08,0.08,0,0,1,.08,0,0.08,0.08,0,0,1,0,.07h0Z" transform="translate(-175 -778.89)"/>
      <path d="M182,786.34v0.09h-0.11c-0.11,0-.11.09,0,0.09H182v0.09c0,0.09.1,0.1,0.1,0v-0.09h0.11c0.11,0,.11-0.09,0-0.09h-0.11v-0.09a0.06,0.06,0,1,0-.11,0h0Z" transform="translate(-175 -778.89)"/>
      <path class="g" d="M183.06,785.17h0.08a0,0,0,0,1,0,0h0.07l0,0,0,0h-0.06a0.09,0.09,0,0,1,0,0,0.17,0.17,0,0,1-.09-0.06v-0.06Z" transform="translate(-175 -778.89)"/>
      <path class="a" d="M183.06,785.17h0.08a0,0,0,0,1,0,0h0.07l0,0,0,0h-0.06a0.09,0.09,0,0,1,0,0,0.17,0.17,0,0,1-.09-0.06v-0.06Z" transform="translate(-175 -778.89)"/>
      <path class="g" d="M182.94,785.13s-0.14,0-.14,0a0.22,0.22,0,0,0,.14.1v-0.06Z" transform="translate(-175 -778.89)"/>
      <path class="a" d="M182.94,785.13s-0.14,0-.14,0a0.22,0.22,0,0,0,.14.1v-0.06Z" transform="translate(-175 -778.89)"/>
      <polygon class="g" points="6.41 7.02 7.85 7.02 7.96 6.94 7.77 6.84 7.49 6.74 7.37 6.68 7.16 6.69 6.99 6.78 6.74 6.81 6.69 6.88 6.51 6.89 6.22 6.88 6.7 6.96 6.31 6.94 6.41 7.02"/>
      <path d="M182.85,785.92H181.4l-0.1-.09h0.39l-0.47-.06,0.46,0,0.05-.06,0.25,0,0.17-.09h0.21l0.12,0.06,0.47,0.2-0.11.1h0Zm-1.54-.09,0.1,0.07h1.43l0.11-.09-0.58-.25h-0.21l-0.17.09-0.24,0-0.05.06-0.18,0h-0.28l0.47,0.06h-0.39Z" transform="translate(-175 -778.89)"/>
      <path class="g" d="M182.18,785.5c-0.18-.1-0.23.14-0.31,0.2a0.47,0.47,0,0,0,.27-0.13c0.07,0.19.17,0.06,0.17,0.06a0.21,0.21,0,0,0,.26.1,0.08,0.08,0,0,0,.08,0,0.07,0.07,0,0,0,.07,0,0.07,0.07,0,0,0,.06,0,0.08,0.08,0,0,0,.07,0,0.38,0.38,0,0,0,.21-0.19l0-.07h0.05s0,0,0,0,0,0,0,0a0,0,0,0,0,0,0,0.18,0.18,0,0,0-.05.14l-0.12.09a1.52,1.52,0,0,1-.1-0.22,1,1,0,0,1,.18.05,0.2,0.2,0,0,0,.11-0.19,1.27,1.27,0,0,0-.07-0.13h0l0-.1a0.18,0.18,0,0,0-.08.1,0.16,0.16,0,0,0,.09.09,0.13,0.13,0,0,1-.1,0s0.06,0,.08,0a0.11,0.11,0,0,0,0,.05s0,0.05,0,0-0.12-.13-0.2-0.07,0,0.18,0,.18a0.29,0.29,0,0,0-.12.14,0.44,0.44,0,0,0-.48,0h0Z" transform="translate(-175 -778.89)"/>
      <path d="M182.5,785.76a0.26,0.26,0,0,1-.19-0.12,0.11,0.11,0,0,1-.18-0.07l-0.07.06a0.31,0.31,0,0,1-.17.08h0a0.4,0.4,0,0,0,.17-0.08l0.08-.05a0.11,0.11,0,0,0,.17.06,0.26,0.26,0,0,0,.26.09h0.16a0.29,0.29,0,0,0,.12-0.05,0.4,0.4,0,0,0,.21-0.19l0-.07h0v-0.07s-0.05.09-.05,0.12l-0.13.09a0.42,0.42,0,0,0-.07-0.12,0.14,0.14,0,0,1,0-.12h0.08a0.17,0.17,0,0,0,.08,0,0.19,0.19,0,0,0,.12-0.18l-0.06-.12a0.34,0.34,0,0,1,.08.12,0.21,0.21,0,0,1-.11.2,0.2,0.2,0,0,1-.11,0c-0.07,0,0,0,0,.08a0.26,0.26,0,0,1,.06.12l0.11-.09a0.16,0.16,0,0,1,.06-0.14l0.06,0.05-0.06.12a0.41,0.41,0,0,1-.21.19,0.11,0.11,0,0,1-.08,0l-0.1,0h-0.11l-0.08,0h0Zm-0.61-.07a0.2,0.2,0,0,1,0-.07,0.19,0.19,0,0,1,.26-0.12l0.1,0a0.37,0.37,0,0,1,.39.06,0.25,0.25,0,0,1,.11-0.14h0a0.16,0.16,0,0,1-.07-0.12l0.08-.07a0.17,0.17,0,0,1,.1.05,0.13,0.13,0,0,0,.06,0s0-.05,0-0.09l0.06,0,0,0.06a0.15,0.15,0,0,1-.07,0,0.16,0.16,0,0,0-.09,0l-0.06.06a0.2,0.2,0,0,0,.06.12,0.54,0.54,0,0,0-.11.15,0.39,0.39,0,0,0-.38-0.06l-0.1,0c-0.13-.06-0.19,0-0.24.11l0,0.07h0Zm1-.52,0,0a0.15,0.15,0,0,1-.09-0.09,0.18,0.18,0,0,1,.09-0.11v0l0,0a0.24,0.24,0,0,0-.07.1,0.15,0.15,0,0,0,.08.08h0l0,0h0Z" transform="translate(-175 -778.89)"/>
      <path class="g" d="M181.92,785.25a0.48,0.48,0,0,1,.05.21,0.07,0.07,0,0,0,.07,0,0.54,0.54,0,0,0,.22,0c0.06,0,0,0,.07,0a0.14,0.14,0,0,0,.14.07,0.85,0.85,0,0,0-.16-0.13,0.51,0.51,0,0,1-.21,0s0,0,0-.06a0.22,0.22,0,0,0,0-.22c-0.11-.08-0.25.05-0.14,0.15h0Z" transform="translate(-175 -778.89)"/>
      <path d="M182.46,785.49a0.13,0.13,0,0,1-.13-0.07,0.93,0.93,0,0,1-.23,0H182l0-.07a0.18,0.18,0,0,0,0-.14,0.1,0.1,0,0,1,0-.12,0.13,0.13,0,0,1,.19,0,0.22,0.22,0,0,1,0,.23,0.27,0.27,0,0,0,.23,0,0.74,0.74,0,0,1,.17.13h0Zm-0.12-.08a0.13,0.13,0,0,0,.13.07h0s-0.11-.09-0.16-0.12a0.41,0.41,0,0,1-.18,0l-0.06-.07a0.21,0.21,0,0,0,0-.21,0.12,0.12,0,0,0-.16,0,0.09,0.09,0,0,0,0,.1,0.19,0.19,0,0,1,0,.15l0,0.07,0,0a1,1,0,0,0,.22,0h0.07Z" transform="translate(-175 -778.89)"/>
      <path class="g" d="M181.43,785a1.5,1.5,0,0,0-.33-0.06,0.21,0.21,0,0,0,0,.26c0,0.07-.07.09-0.1,0.13a0.06,0.06,0,0,0,0,.08l0,0v0.05l0,0.06s0,0,0,0,0,0.06,0,.07a0.24,0.24,0,0,1,0-.11,0.11,0.11,0,0,0,.09,0,0.14,0.14,0,0,0,0-.09h0a0.11,0.11,0,0,1,0-.06,0.13,0.13,0,0,0,.09-0.1,0.4,0.4,0,0,1-.1-0.18,0.73,0.73,0,0,0,.26,0c0.09-.07,0,0,0,0s0-.09-0.05-0.07h0Z" transform="translate(-175 -778.89)"/>
      <path d="M181.13,785.66h0l-0.08-.13h0l0.06,0.11a0.34,0.34,0,0,1,0-.09,0.11,0.11,0,0,0,.09,0,0.12,0.12,0,0,0,0-.08v-0.07a0.12,0.12,0,0,0,.09-0.09,0.18,0.18,0,0,0-.06-0.09,0.13,0.13,0,0,1,0-.08h0s0,0.06,0,.08a0.18,0.18,0,0,1,.06.1,0.14,0.14,0,0,1-.1.11,0.27,0.27,0,0,1,0,.15,0.1,0.1,0,0,1-.08,0,0.17,0.17,0,0,0,0,.1h0Zm-0.11-.19h0a0.07,0.07,0,0,1,0-.09,0.27,0.27,0,0,0,.11-0.09,0.49,0.49,0,0,1-.06-0.17,0.14,0.14,0,0,1,0-.13,0.28,0.28,0,0,1,.18,0,0.38,0.38,0,0,0,.13,0h0.08l0,0-0.06,0a0.37,0.37,0,0,1-.14,0,0.37,0.37,0,0,0-.13,0,0.12,0.12,0,0,0-.08.13,0.3,0.3,0,0,0,.05.13,0.09,0.09,0,0,1-.06.11c-0.07.06,0,.1,0,0.11v0h0Z" transform="translate(-175 -778.89)"/>
      <path class="g" d="M181.91,784c-0.12-.05-0.38-0.05-0.52-0.13a0.1,0.1,0,0,0-.09.07,0.12,0.12,0,0,0-.1.12c-0.12,0-.17.14-0.14,0.18s-0.09.13-.1,0.17,0,0.11.07,0.08a0,0,0,0,1,0,.06c0.18,0.2.27-.12,0.43-0.12a0.56,0.56,0,0,0,.27-0.15h0.08Z" transform="translate(-175 -778.89)"/>
      <path d="M181.11,784.67a0.17,0.17,0,0,1-.12-0.07l0-.06a0.09,0.09,0,0,1,0-.08c0-.08,0-0.17.1-0.17a0.08,0.08,0,0,1,0-.1,0.11,0.11,0,0,1,.11-0.08,0.09,0.09,0,0,0,0-.05,0.11,0.11,0,0,1,.08-0.06,0.1,0.1,0,0,1,.1-0.07,1.16,1.16,0,0,0,.3.07,1.11,1.11,0,0,1,.23.05l-0.13.3H181.7a0.49,0.49,0,0,1-.27.15,0.26,0.26,0,0,0-.16.1,0.27,0.27,0,0,1-.16.09h0Zm-0.14-.14H181l0,0.07a0.18,0.18,0,0,0,.26,0,0.27,0.27,0,0,1,.17-0.1,0.55,0.55,0,0,0,.26-0.15h0.08l0.13-.29-0.22,0a1.13,1.13,0,0,1-.3-0.07,0.09,0.09,0,0,0-.08.07,0.12,0.12,0,0,0-.08.06v0l0,0.05a0.11,0.11,0,0,0-.12.07,0.11,0.11,0,0,0,0,.1,0.13,0.13,0,0,0-.09.14v0.1h0Z" transform="translate(-175 -778.89)"/>
      <path class="g" d="M182.26,783.9a0.18,0.18,0,1,1-.18-0.18,0.18,0.18,0,0,1,.18.18h0Z" transform="translate(-175 -778.89)"/>
      <path d="M182.07,784.09a0.19,0.19,0,0,1-.19-0.19c0-.21.38-0.21,0.38,0a0.19,0.19,0,0,1-.19.19h0Zm0-.37a0.18,0.18,0,0,0-.18.18c0,0.2.35,0.2,0.35,0a0.18,0.18,0,0,0-.18-0.18h0Z" transform="translate(-175 -778.89)"/>
      <path class="g" d="M181.75,785.35a0.42,0.42,0,0,1-.32-0.29c0.11-.42.65-0.2,0.7-0.51a0.94,0.94,0,0,1,.14-0.59,0.27,0.27,0,0,1,.12-0.09,0.11,0.11,0,0,1,0,.08,1.69,1.69,0,0,1,.3,0,0.13,0.13,0,0,1,0,.1,0,0,0,0,1,0,0,0.11,0.11,0,0,1-.11,0,0.37,0.37,0,0,1-.14,0,0.56,0.56,0,0,1,.17.27,0.43,0.43,0,0,1,.1.11,0.61,0.61,0,0,0,.18-0.14,2.32,2.32,0,0,1,.27.09l0.16,0.13s-0.09.06-.13,0a0.58,0.58,0,0,0-.3-0.08,0.33,0.33,0,0,1-.15.22,0.41,0.41,0,0,1,.21,0L183.1,785l0.1,0.17a0.12,0.12,0,0,1-.13-0.1c0,0.1,0-.06-0.17-0.13a0.11,0.11,0,0,1-.1,0,0.89,0.89,0,0,1-.35.07c-0.1,0-.17.11-0.27,0.16a0.14,0.14,0,0,1-.13,0H182a0.17,0.17,0,0,1,0,.13,0.18,0.18,0,0,1-.07.18,0.27,0.27,0,0,0,.16.15,0.1,0.1,0,0,1,.1,0,0.55,0.55,0,0,1,.08.14H182.1s0,0-.06,0a0.65,0.65,0,0,0-.31-0.14s0-.14,0-0.21h0Z" transform="translate(-175 -778.89)"/>
      <path d="M182.16,785.75h-0.07a0.58,0.58,0,0,0-.33-0.16l0,0a0.5,0.5,0,0,1,.3.14l0.12,0h0s0-.07-0.06-0.11a0.34,0.34,0,0,1,.07.11h-0.05Zm0-.14H182a0.27,0.27,0,0,1-.16-0.15,0.21,0.21,0,0,0,.07-0.13h0a0.16,0.16,0,0,1-.06.13,0.24,0.24,0,0,0,.13.12h0.08l0,0h0Zm-0.39-.06a0.09,0.09,0,0,1,0-.07,0.24,0.24,0,0,0,0-.12,0.41,0.41,0,0,1-.32-0.29,0.45,0.45,0,0,1,.41-0.31,0.29,0.29,0,0,0,.29-0.2,0.94,0.94,0,0,1,.14-0.59,0.27,0.27,0,0,1,.13-0.09,0.07,0.07,0,0,1,0,0v0h0a0.25,0.25,0,0,0-.12.08,0.94,0.94,0,0,0-.14.58,0.31,0.31,0,0,1-.3.22,0.44,0.44,0,0,0-.4.3,0.41,0.41,0,0,0,.32.29,0.21,0.21,0,0,1,0,.13,0.3,0.3,0,0,0,0,.07h0Zm0.36-.41H182l0,0a0.2,0.2,0,0,0,.13,0l0.12-.07a0.51,0.51,0,0,1,.15-0.08,0.73,0.73,0,0,0,.28,0l0.07,0,0.1,0a0.28,0.28,0,0,1,.11.11,0.62,0.62,0,0,0-.12-0.09l-0.09,0h0l-0.07,0a0.72,0.72,0,0,1-.23,0,0.37,0.37,0,0,0-.19.08l-0.12.07-0.1,0h0Zm1.09,0a0.1,0.1,0,0,1-.09,0,0.15,0.15,0,0,0,.1,0l-0.1-.16h0l-0.19-.15a0.31,0.31,0,0,0-.14,0h0a0.27,0.27,0,0,1,.16,0L183.1,785l0.1,0.17h0Zm-0.42-.38a0.42,0.42,0,0,0,.09-0.19,0.37,0.37,0,0,1,.24,0l0.06,0h0l0.06,0-0.09-.14-0.11,0a0.49,0.49,0,0,0-.16-0.05,0.58,0.58,0,0,1-.18.14,0.81,0.81,0,0,0-.11-0.11,0.53,0.53,0,0,0-.17-0.28,1.45,1.45,0,0,0,.14-0.05,0.11,0.11,0,0,0,.11,0,0.08,0.08,0,0,0,0-.12l-0.11,0-0.15,0h0a0.44,0.44,0,0,1,.16,0l0.12,0a0.14,0.14,0,0,1,0,.11,0.21,0.21,0,0,1-.13.06,0.7,0.7,0,0,1-.17,0,0.44,0.44,0,0,1,.17.27,0.3,0.3,0,0,1,.1.1,0.81,0.81,0,0,0,.17-0.14,0.54,0.54,0,0,1,.17.05l0.11,0,0.16,0.13a0.1,0.1,0,0,1-.15,0,0.11,0.11,0,0,1-.07,0,0.37,0.37,0,0,0-.17-0.06,0.51,0.51,0,0,1-.15.19h0Z" transform="translate(-175 -778.89)"/>
      <path class="g" d="M181.28,784.58a0.17,0.17,0,0,1,.08,0l0.13,0.08,0.26,0.17,0.09,0.13-0.17-.05-0.23-.2-0.13-.08a0.12,0.12,0,0,1,0-.07h0Z" transform="translate(-175 -778.89)"/>
      <path d="M181.87,785l-0.19-.06-0.36-.28a0.09,0.09,0,0,1,0-.08,0.18,0.18,0,0,1,.09,0l0.39,0.25,0.11,0.15h0Zm-0.57-.42h0l0.4,0.34,0.14,0-0.08-.12-0.45-.27h0Z" transform="translate(-175 -778.89)"/>
      <path class="g" d="M182.84,785a0.72,0.72,0,0,0-.31.25l0.17,0.18a0.69,0.69,0,0,1,.15-0.43h0Z" transform="translate(-175 -778.89)"/>
      <path d="M182.7,785.46l-0.18-.2a0.74,0.74,0,0,1,.31-0.26h0a1,1,0,0,0-.29.26l0.16,0.16a0.78,0.78,0,0,1,.1-0.37,1,1,0,0,0-.09.38v0h0Z" transform="translate(-175 -778.89)"/>
      <path class="g" d="M181.73,784.25a0.2,0.2,0,0,0,0,.24,0.37,0.37,0,0,0,.12.25,1.33,1.33,0,0,0,.37.05,0.39,0.39,0,0,0,.2.34,0.06,0.06,0,0,0,0,0,0.07,0.07,0,0,0,.07,0,0.18,0.18,0,0,0,.15,0,1.91,1.91,0,0,0-.21-0.18,1.14,1.14,0,0,1-.11-0.32,0.34,0.34,0,0,0-.24-0.1v-0.44l-0.08,0,0,0a0.08,0.08,0,0,0,.06,0h0a0.55,0.55,0,0,1,0-.07c0.06-.05,0-0.17-0.1-0.17a0.13,0.13,0,0,0-.11.12,0.08,0.08,0,0,1,0,.06l0,0a0.16,0.16,0,0,0-.12,0,0.21,0.21,0,0,0-.14.1,0.13,0.13,0,0,0-.09.07,0.15,0.15,0,0,0-.11.11,0.33,0.33,0,0,0-.1.25,0.19,0.19,0,0,0,0,.06s0,0,0,0a0,0,0,0,0,0,0,0,0,0,0,0,0,0h0s0-.06,0-0.06h0a0,0,0,0,0,0,0,0.09,0.09,0,0,1,0,0,0.16,0.16,0,0,1,0-.08,0.36,0.36,0,0,0,.12-0.16,0.17,0.17,0,0,0,.15-0.09h0Z" transform="translate(-175 -778.89)"/>
      <path d="M182.64,785.24a0.21,0.21,0,0,1-.13,0h0l0.13,0h0l-0.13-.1-0.09-.07a1.15,1.15,0,0,1-.12-0.32,0.34,0.34,0,0,0-.23-0.1v-0.45l-0.08,0h0l0.14-.14a0.07,0.07,0,0,0,0-.08,0.13,0.13,0,0,0-.11-0.08h0a0.09,0.09,0,0,0-.07,0,0.15,0.15,0,0,0,0,.08h0l0,0.1H181.8a0.21,0.21,0,0,0-.14.1,0.15,0.15,0,0,0-.09.07,0.19,0.19,0,0,0-.11.11,0.33,0.33,0,0,0-.1.25v0h0a0.34,0.34,0,0,1,.11-0.26,0.17,0.17,0,0,1,.11-0.11,0.14,0.14,0,0,1,.09-0.07,0.19,0.19,0,0,1,.14-0.1h0.12l0-.08a0.15,0.15,0,0,1,0-.09,0.1,0.1,0,0,1,.08,0,0.14,0.14,0,0,1,.13.09,0.08,0.08,0,0,1,0,.09l0,0.08s-0.05,0-.08,0l0.05,0v0.45a0.29,0.29,0,0,1,.24.1,1.14,1.14,0,0,0,.11.32l0.08,0.07a0.24,0.24,0,0,1,.13.12h0Zm-0.46-.44a1.37,1.37,0,0,1-.32,0,0.38,0.38,0,0,1-.13-0.25,0.19,0.19,0,0,1,0-.21,0.13,0.13,0,0,1-.11.06,0.42,0.42,0,0,1-.13.15,0.15,0.15,0,0,0,0,.07l0,0.09-0.07.05-0.08-.06,0.05,0,0-.06a0.26,0.26,0,0,1,0-.14,0.38,0.38,0,0,0,.12-0.15,0.18,0.18,0,0,0,.14-0.08h0v0l0,0a0.22,0.22,0,0,0,0,.21,0.39,0.39,0,0,0,.12.25,1.62,1.62,0,0,0,.33.06h0Z" transform="translate(-175 -778.89)"/>
      <path class="g" d="M181.54,784a0.12,0.12,0,0,1,.11-0.05s0-.08.15,0a0.24,0.24,0,0,1,.16,0,0.13,0.13,0,0,1,.1-0.05,0.12,0.12,0,0,1,.12.13c-0.06,0-.16,0-0.24,0a0.5,0.5,0,0,0-.15.09c-0.07,0-.15-0.07-0.26-0.06h0Z" transform="translate(-175 -778.89)"/>
      <path d="M181.8,784l-0.1,0a0.34,0.34,0,0,0-.15,0h0a0.27,0.27,0,0,1,.15,0l0.09,0h0a0.26,0.26,0,0,1,.1-0.07l0.08,0,0.1,0,0.08,0a0.11,0.11,0,0,0-.1-0.12,0.14,0.14,0,0,0-.1,0l-0.12,0h-0.12a0.08,0.08,0,0,0-.07,0,0.14,0.14,0,0,0-.11,0,0.09,0.09,0,0,1,.1-0.06h0a0.13,0.13,0,0,1,.16,0,0.33,0.33,0,0,1,.16,0,0.11,0.11,0,0,1,.09-0.05,0.14,0.14,0,0,1,.12.07l0,0.07a0.25,0.25,0,0,1-.11,0l-0.1,0-0.07,0a0.27,0.27,0,0,0-.1.06h0Z" transform="translate(-175 -778.89)"/>
      <path class="g" d="M181.77,784.05a0.12,0.12,0,0,1,.14,0,0.84,0.84,0,0,0,.12.1l0.08,0,0,0,0,0.37a1,1,0,0,1-.2-0.18,1,1,0,0,0-.06-0.19,0.24,0.24,0,0,1-.09-0.14h0Z" transform="translate(-175 -778.89)"/>
      <path d="M182.12,784.59h0L182,784.5a0.34,0.34,0,0,1-.11-0.11,0.17,0.17,0,0,1,0-.08,0.22,0.22,0,0,0,0-.12,0.22,0.22,0,0,1-.09-0.15,0.16,0.16,0,0,1,.09,0l0,0a0.16,0.16,0,0,0-.12,0,0.15,0.15,0,0,0,.06.09,0.27,0.27,0,0,1,.08.17,0.15,0.15,0,0,0,0,.07,0.32,0.32,0,0,0,.11.11l0.08,0.06v0h0Z" transform="translate(-175 -778.89)"/>
      <path class="g" d="M182,784.16H182l0,0a0,0,0,0,1,0,0,0,0,0,0,1,0,0v0a0.07,0.07,0,0,1,0,0,0.07,0.07,0,0,1,0,0,0,0,0,0,1,0,0,0,0,0,0,1,0,0h0Z" transform="translate(-175 -778.89)"/>
      <path class="a" d="M182,784.16H182l0,0a0,0,0,0,1,0,0,0,0,0,0,1,0,0v0a0.07,0.07,0,0,1,0,0,0.07,0.07,0,0,1,0,0,0,0,0,0,1,0,0A0,0,0,0,1,182,784.16Z" transform="translate(-175 -778.89)"/>
      <path class="g" d="M182.32,783.92a0.06,0.06,0,0,0-.07,0l-0.11.2-0.05,0v0.15l0,0.15v0.11a0.27,0.27,0,0,0,.06-0.08,0.45,0.45,0,0,0,0-.12,0.2,0.2,0,0,1,0-.17c0-.11.14-0.2,0.16-0.27h0Z" transform="translate(-175 -778.89)"/>
      <path d="M182.11,784.58l0-.13,0-.14v-0.16l0.05,0,0.11-.2h0.08a0.36,0.36,0,0,1-.06.12,0.72,0.72,0,0,0-.09.16,0.2,0.2,0,0,0,0,.16,0.41,0.41,0,0,1,0,.13,0.26,0.26,0,0,1-.07.09h0Zm0.21-.66-0.17.2-0.05.19,0,0.14v0.09a0.17,0.17,0,0,0,0-.07,0.41,0.41,0,0,0,0-.12,0.21,0.21,0,0,1,0-.17,0.74,0.74,0,0,1,.09-0.16,0.48,0.48,0,0,0,.06-0.11h0Z" transform="translate(-175 -778.89)"/>
      <path class="g" d="M182.61,784.09a1,1,0,0,1-.47.35c-0.08,0-.05-0.19-0.05-0.19h0s0,0.2.06,0.21a1,1,0,0,0,.51-0.37h0Z" transform="translate(-175 -778.89)"/>
      <path d="M182.13,784.47l-0.06,0a0.29,0.29,0,0,1,0-.19v0a0.23,0.23,0,0,0,0,.16l0,0h0a0.9,0.9,0,0,0,.45-0.29,0.78,0.78,0,0,1-.44.3h0Zm0,0,0,0a1,1,0,0,0,.49-0.33s0,0,0,0a1.06,1.06,0,0,1-.46.32h0Z" transform="translate(-175 -778.89)"/>
      <path class="g" d="M182.73,785.56a0.06,0.06,0,0,1-.06,0,0.09,0.09,0,0,0-.07,0s0-.09-0.08-0.07-0.06,0-.06,0a0.06,0.06,0,0,0-.07-0.06c0-.08-0.09-0.08-0.09-0.08s0-.09-0.17-0.07a0.56,0.56,0,0,1,.63.25Z" transform="translate(-175 -778.89)"/>
      <path d="M182.66,785.56a0.08,0.08,0,0,0-.06,0,0.18,0.18,0,0,0-.05-0.07h0l-0.09,0h0l-0.05-.06a0.08,0.08,0,0,0-.08-0.07,0.17,0.17,0,0,0-.16-0.07,0.55,0.55,0,0,1,.63.24,0.69,0.69,0,0,0-.47-0.27,0.37,0.37,0,0,0-.16,0,0.14,0.14,0,0,1,.14,0,0.59,0.59,0,0,0,.11.07l0.12,0.1a0.19,0.19,0,0,1,.1.09,0.07,0.07,0,0,1,.07,0h0Z" transform="translate(-175 -778.89)"/>
      <path class="g" d="M182.89,785.59a0.31,0.31,0,0,0,.12.09s0-.09,0-0.09,0,0,0,0a0,0,0,0,0,0,0s-0.07.17-.28,0Z" transform="translate(-175 -778.89)"/>
      <path d="M183,785.74a0.28,0.28,0,0,1-.16-0.07,0.27,0.27,0,0,0,.2.05,0.13,0.13,0,0,0,.08-0.07l0-.05s0,0.09-.05.09h0a0.31,0.31,0,0,1-.13-0.09h0l0.12,0.09a0.08,0.08,0,0,0,0-.08h0l0.06,0.06a0.14,0.14,0,0,1-.09.08h0Z" transform="translate(-175 -778.89)"/>
      <path class="g" d="M182.26,785.62l0,0.12a0.06,0.06,0,0,0,0,0h0.07a0.3,0.3,0,0,0,.12,0,0.08,0.08,0,0,0,.06,0,0.06,0.06,0,0,0,0,0h0a0,0,0,0,0,0,0s0,0,0,0a0.18,0.18,0,0,1-.13.06,0.21,0.21,0,0,0,.05-0.11Z" transform="translate(-175 -778.89)"/>
      <path d="M182.2,785.79l0.05-.16h0l0,0.12a0.19,0.19,0,0,0,.15,0l0.06,0,0-.06,0,0,0,0h0a0.06,0.06,0,0,1-.06,0,0.2,0.2,0,0,1-.11,0H182.2Z" transform="translate(-175 -778.89)"/>
      <path d="M180.45,785.35l0.12,0v-0.08h0l0.1,0h0v0a0,0,0,0,0,0,0v0.05l0.09,0h0a0,0,0,0,0,0,0h0l0,0.13h0l0,0h0l-0.19,0h0a0,0,0,0,0,0,0h0l-0.05-.22,0.06,0h0l0,0v0a0.11,0.11,0,0,0,0,0Zm-0.07-.53a0.15,0.15,0,0,1,.05-0.1,0.17,0.17,0,0,1,.23,0,0.14,0.14,0,0,1,0,.11,0.14,0.14,0,0,1,0,.1,0.16,0.16,0,0,1-.12,0,0.16,0.16,0,0,1-.12-0.06,0.15,0.15,0,0,1,0-.11h0Zm0,0a0.08,0.08,0,0,0,0,.07,0.16,0.16,0,0,0,.11,0,0.17,0.17,0,0,0,.12,0,0.08,0.08,0,0,0,0-.06,0.09,0.09,0,0,0,0-.07,0.17,0.17,0,0,0-.1,0,0.2,0.2,0,0,0-.12,0,0.08,0.08,0,0,0,0,.07h0Zm0.44-.55,0,0.07-0.17,0v0h0l0.08,0h0l0,0h0l0,0.12h0a0,0,0,0,0,0,0l0,0-0.18-.07h0l0,0h0l0-.1,0-.06,0,0h0l0,0a0.11,0.11,0,0,1,0,.06l0.1,0,0,0,0,0h0Zm-0.22.14h0a0.11,0.11,0,0,0,0-.07,0.06,0.06,0,0,0,0,0h0a0.06,0.06,0,0,0,0,0v0Zm0.65-1,0.06,0.08h0l-0.05,0a0.09,0.09,0,0,0-.07,0,0.1,0.1,0,0,0,0,.09,0.17,0.17,0,0,0,0,.09l0.06,0.06,0.07,0,0.06,0,0,0,0,0,0-.07,0,0h0l0.1-.06h0a0,0,0,0,0,0,0v0l0,0.08,0,0,0,0a0.17,0.17,0,0,1-.14,0,0.16,0.16,0,0,1-.11-0.14,0.16,0.16,0,0,1,0-.09,0.15,0.15,0,0,1,.06-0.06l0,0h0.06Zm0.49,0-0.11,0v0.05a0.06,0.06,0,0,0,0,0h0l-0.09,0h0l0,0a0.13,0.13,0,0,0,0,0l0-.27h0l0.17,0.22,0,0h0l-0.12,0h0a0,0,0,0,0,0,0l0,0Zm0,0-0.08-.11,0,0.13Zm0.54,0h0l0,0.08h-0.19a0.07,0.07,0,0,0,0,0v-0.2a0.06,0.06,0,0,0,0,0h0.05a0.09,0.09,0,0,0,0,0v0.19a0,0,0,0,0,0,0h0.11l0,0,0,0h0Zm0.4,0.11h0l-0.05.07-0.22-.07h0v0l0.06-.19a0.06,0.06,0,0,0,0,0l0,0h0l0.13,0h-0.05v0l-0.06.18a0.05,0.05,0,0,0,0,0h0.14l0,0h0Zm0.33,0.17-0.1-.07,0,0,0,0h0l0,0h0l-0.08-.05h0l0,0,0.23-.14h0l-0.06.27a0.11,0.11,0,0,0,0,0l0,0h0l-0.1-.07h0v-0.08Zm0,0,0-.13-0.11.07Zm0.36,0.07,0,0.07-0.07.29,0.14-.11,0,0a0,0,0,0,0,0,0h0l0.06,0.08h0l0,0,0,0-0.21.15h0l0.08-.31-0.15.11,0,0a0,0,0,0,0,0,0h0l-0.06-.09h0l0,0,0,0,0.17-.12v-0.07h0Zm0.38,0.71-0.07,0h0l0,0v0a0.08,0.08,0,0,0,0,0v0l-0.22.08,0,0a0,0,0,0,0,0,0h0l0-.12h0l0,0h0l0.22-.08v-0.06H183.6l0.07,0Zm-0.24.54v-0.08l0.14-.11v0h-0.12a0,0,0,0,0,0,0h0V784.7h0a0,0,0,0,0,0,0h0.26a0,0,0,0,0,0,0h0v0.11a0.27,0.27,0,0,1,0,.07l0,0,0,0,0,0a0.1,0.1,0,0,1,0-.05l-0.08.07,0,0a0.1,0.1,0,0,0,0,0h0Zm0.14-.22h0a0.11,0.11,0,0,0,0,.07l0,0,0,0a0.06,0.06,0,0,0,0,0,0.13,0.13,0,0,0,0,0h-0.13Zm0.08,0.62,0,0.1h0a0,0,0,0,0,0,0v0l0,0-0.09-.1-0.07,0h0l0,0h0l0-.12h0a0,0,0,0,0,0,0h0l0.07,0,0.14,0h0l0,0h0l0,0.13h0a0,0,0,0,0,0,0h0l-0.11,0,0.08,0.08,0,0h0v0h0Z" transform="translate(-175 -778.89)"/>
    </g>
  </g>
</svg>
