<svg xmlns="http://www.w3.org/2000/svg" xmlns:xlink="http://www.w3.org/1999/xlink" viewBox="0 0 58.92 34.37">
  <defs>
    <style>
      .a {
        fill: none;
      }

      .b {
        clip-path: url(#a);
      }

      .c {
        fill: #a31e30;
      }

      .d {
        fill: #fff;
      }

      .e {
        fill: #3873b8;
      }
    </style>
    <clipPath id="a" transform="translate(-245.69 -778.89)">
      <rect class="a" x="245.69" y="778.89" width="58.92" height="34.37"/>
    </clipPath>
  </defs>
  <title>Mari_El</title>
  <g class="b">
    <rect class="c" y="24.06" width="58.92" height="10.31"/>
    <rect class="d" y="10.31" width="58.92" height="13.75"/>
    <rect class="e" width="58.92" height="10.31"/>
    <path class="c" d="M269.42,793.55l0.44,0.44,2.22,2.22-2.22,2.22-0.44.44,0.44,0.44,0.44,0.44,0.44,0.44,0.44-.44L273,798l-0.44-.44-1.79,1.79-0.44-.44,2.23-2.22,2.19,2.19-2.23,2.23-0.44-.44,1.79-1.79-0.44-.44-1.79,1.79-0.44.44,0.44,0.44,0.44,0.44,0.44,0.44,0.44-.44,2.22-2.22,2.66,2.66,0.44-.44,0.88-.88-0.44-.44-1.79-1.79-0.44.44,1.78,1.79-0.44.44-2.22-2.22,2.19-2.19,2.23,2.22-0.44.44-1.79-1.79-0.44.44,1.79,1.79,0.44,0.44,1.31-1.31-0.44-.44-2.22-2.22,2.66-2.66-0.44-.44-0.88-.88-0.44.44-1.61,1.61-0.18.18,0.44,0.44,1.79-1.79,0.44,0.44-2.23,2.23-2.19-2.19,2.22-2.22,0.44,0.44-1.79,1.79L276.9,794l0.18-.18,1.61-1.61,0.44-.44-1.31-1.31-2.66,2.66-2.66-2.66-1.31,1.31,0.44,0.44,1.5,1.51L273.4,794l0.44-.44-1.79-1.79,0.44-.44,2.23,2.22-2.19,2.19-2.23-2.23,0.44-.44,1.79,1.79,0.44-.44-0.28-.28-1.51-1.5-0.44-.44Zm3.54,2.66,2.19-2.19,2.19,2.19-2.19,2.19Zm0.88,0,1.31,1.31,1.31-1.31-1.31-1.31Z" transform="translate(-245.69 -778.89)"/>
  </g>
</svg>
