<svg xmlns="http://www.w3.org/2000/svg" xmlns:xlink="http://www.w3.org/1999/xlink" viewBox="0 0 58.92 34.37">
  <defs>
    <style>
      .a {
        fill: none;
      }

      .b {
        clip-path: url(#a);
      }

      .c {
        fill: #22368f;
      }

      .d {
        fill: #fff;
      }

      .e {
        fill: #ce731e;
      }
    </style>
    <clipPath id="a" transform="translate(-316.37 -778.89)">
      <rect class="a" x="316.37" y="778.89" width="58.92" height="34.37"/>
    </clipPath>
  </defs>
  <title>Marshall_Islands</title>
  <g class="b">
    <rect class="c" width="58.92" height="34.37"/>
    <polygon class="d" points="12.55 23.2 12.11 15.89 10.57 19.92 11.26 15.66 8.73 19.16 10.5 15.22 7.15 17.95 9.88 14.6 5.94 16.36 9.44 13.84 5.18 14.53 9.21 12.99 1.9 12.55 9.21 12.11 5.18 10.57 9.44 11.26 5.94 8.73 9.88 10.5 7.15 7.15 10.5 9.88 8.73 5.94 11.26 9.44 10.57 5.18 12.11 9.21 12.55 1.9 12.99 9.21 14.52 5.18 13.84 9.44 16.36 5.94 14.6 9.88 17.94 7.15 15.22 10.5 19.16 8.73 15.66 11.26 19.92 10.57 15.89 12.11 23.2 12.55 15.89 12.99 19.92 14.53 15.66 13.84 19.16 16.36 15.22 14.6 17.94 17.95 14.6 15.22 16.36 19.16 13.84 15.66 14.52 19.92 12.99 15.89 12.55 23.2"/>
    <polygon class="d" points="0 32.73 0 33.82 58.92 14.03 58.92 0.55 0 32.73"/>
    <polygon class="e" points="0 32.73 0 33.27 58.92 7.29 58.92 0.55 0 32.73"/>
  </g>
</svg>
