<svg xmlns="http://www.w3.org/2000/svg" xmlns:xlink="http://www.w3.org/1999/xlink" viewBox="0 0 58.92 34.37">
  <defs>
    <style>
      .a {
        fill: none;
      }

      .b {
        clip-path: url(#a);
      }

      .c {
        fill: #120065;
      }

      .d {
        fill: #fff;
      }

      .e {
        fill: #48a0b9;
      }

      .f {
        fill: #973c1a;
      }

      .g {
        fill: #f09727;
      }

      .h {
        fill: #f7df29;
      }

      .i {
        fill: #ba0019;
      }

      .j {
        fill: #348128;
      }

      .k {
        fill: #f9dfce;
      }

      .l {
        fill: #7c0211;
      }
    </style>
    <clipPath id="a" transform="translate(-951.46 -778.89)">
      <rect class="a" x="951.46" y="778.89" width="58.92" height="34.37"/>
    </clipPath>
  </defs>
  <title>Montserrat</title>
  <g class="b">
    <rect class="c" width="58.92" height="34.37"/>
    <g class="b">
      <path class="d" d="M989.84,788.68h12.82l0,9.12c0.11,3.67-2.18,5.94-6.38,7-3-.74-6.43-2.28-6.43-6.86Z" transform="translate(-951.46 -778.89)"/>
      <path class="e" d="M990.13,789h12.25v8.74c0.1,3.51-2.08,5.69-6.1,6.67-2.85-.71-6.14-2.18-6.15-6.57V789Z" transform="translate(-951.46 -778.89)"/>
      <path d="M996.26,804.39h0c-2.64-.66-6.15-2.05-6.16-6.59V789l12.26,0v8.75c0.1,3.42-2,5.67-6.11,6.69h0Zm6.1-15.43H990.13v8.82c0,4.51,3.5,5.9,6.13,6.56,4.14-1,6.18-3.25,6.08-6.66l0-8.74h0Z" transform="translate(-951.46 -778.89)"/>
      <path class="f" d="M1002.28,798.73c-0.45,3.35-3,4.82-6,5.6-2.65-.71-5.5-1.85-6-5.58Z" transform="translate(-951.46 -778.89)"/>
      <polygon points="41.93 11.68 44.32 11.69 44.3 10.59 45.17 10.6 45.18 11.69 47.56 11.69 47.57 12.54 45.18 12.55 45.16 22.62 44.31 22.63 44.3 12.54 41.93 12.55 41.93 11.68"/>
      <path class="g" d="M993.85,799.15l2.18,2.26c0.75-.83.23-3.93-0.76-4.5a2.05,2.05,0,0,1-.54.95c-0.47.32-1.63,0.7-1.24,0.94a0.23,0.23,0,0,1,.43,0c0.13,0.43-.48.46-0.48,0.46a0.54,0.54,0,0,1-.46-0.44,1.06,1.06,0,0,1,.63-0.78,1.46,1.46,0,0,0,1-1c0.18-.73.36-0.62,0.39-0.64,1.1,0.11,1.82,2.08,1.86,3.46a3.54,3.54,0,0,1-.67,2.36c-0.11.06-2.62-3-2.62-3Z" transform="translate(-951.46 -778.89)"/>
      <path d="M996.23,802.28c-0.16,0-2.38-2.68-2.63-3l0,0a1,1,0,0,1-.19,0,0.57,0.57,0,0,1-.47-0.45,1.1,1.1,0,0,1,.64-0.8,1.4,1.4,0,0,0,1-1c0.16-.65.32-0.65,0.38-0.65,1.13,0.11,1.87,2.1,1.9,3.48a3.55,3.55,0,0,1-.68,2.38h0Zm-2.42-3.1a0.38,0.38,0,0,1-.11.06l-0.09,0c1,1.17,2.48,2.94,2.61,3a3.54,3.54,0,0,0,.66-2.35c0-1.37-.76-3.34-1.85-3.45a0.66,0.66,0,0,0-.38.63,1.41,1.41,0,0,1-1,1,1.07,1.07,0,0,0-.64.77,0.53,0.53,0,0,0,.44.43,0.92,0.92,0,0,0,.26-0.05l0.13-.08a0.27,0.27,0,0,0,.08-0.3,0.23,0.23,0,0,0-.4,0,0.13,0.13,0,0,1-.1-0.12,1.44,1.44,0,0,1,.76-0.53,5.17,5.17,0,0,0,.57-0.31,2,2,0,0,0,.53-0.94,3.18,3.18,0,0,1,1.08,2.23,3.14,3.14,0,0,1-.29,2.28l-2.17-2.23L996,801.4a3.14,3.14,0,0,0,.26-2.26,3.28,3.28,0,0,0-1-2.21,1.9,1.9,0,0,1-.52.95,5.06,5.06,0,0,1-.58.31,1.49,1.49,0,0,0-.74.5,0.12,0.12,0,0,0,.07.1c0-.1.29-0.32,0.43,0a0.29,0.29,0,0,1-.08.33h0l0,0h0Z" transform="translate(-951.46 -778.89)"/>
      <polygon points="44.01 22.23 43.97 18.15 44 18.15 44.01 22.23 44.01 22.23"/>
      <path d="M995.22,800.82s0-3.7,0-3.71h0v3.71h0Z" transform="translate(-951.46 -778.89)"/>
      <polygon points="43.5 21.71 43.45 18.76 43.48 18.76 43.5 21.71 43.5 21.71"/>
      <polygon points="43.28 21.41 43.24 18.97 43.27 18.97 43.28 21.41 43.28 21.41"/>
      <polygon points="43.04 21.14 43.01 19.08 43.04 19.08 43.04 21.14 43.04 21.14"/>
      <polygon points="42.79 20.87 42.76 19.24 42.79 19.24 42.79 20.87 42.79 20.87"/>
      <polygon points="42.57 20.62 42.54 19.37 42.57 19.37 42.57 20.62 42.57 20.62"/>
      <path class="h" d="M996.08,802l-2.29-2.54a0,0,0,0,1,0,0h0l2.25,2.57h0Z" transform="translate(-951.46 -778.89)"/>
      <path class="h" d="M996.25,801.89h0a0,0,0,0,1,0-.06,5.21,5.21,0,0,0-.07-4,0,0,0,0,1,0-.06,0,0,0,0,1,.06,0,5.31,5.31,0,0,1,.07,4.1,0,0,0,0,1,0,0h0Z" transform="translate(-951.46 -778.89)"/>
      <path class="h" d="M993.55,799h0a0,0,0,0,1,0-.06,0.27,0.27,0,0,1,.14-0.16l0.1,0a0,0,0,0,1,0,.06,0,0,0,0,1-.06,0,0.11,0.11,0,0,0-.1.1,0,0,0,0,1,0,0h0Z" transform="translate(-951.46 -778.89)"/>
      <path class="h" d="M993.19,799h0a0.27,0.27,0,0,1-.08-0.21,0.81,0.81,0,0,1,.26-0.45,0.05,0.05,0,0,1,.06,0,0,0,0,0,1,0,.06,0.73,0.73,0,0,0-.23.39,0.18,0.18,0,0,0,.05.14,0,0,0,0,1,0,.06h0Z" transform="translate(-951.46 -778.89)"/>
      <path class="d" d="M951.46,778.89v1.67L978,793.86h3.35v-1.67L954.8,778.89h-3.35Zm29.93,0v1.67L954.8,793.86h-3.35v-1.67L978,778.89h3.35Z" transform="translate(-951.46 -778.89)"/>
      <path class="d" d="M963.93,793.86h5v-15h-5v15Zm-12.47-5h29.93v-5H951.46v5Z" transform="translate(-951.46 -778.89)"/>
      <path class="i" d="M951.46,787.87h29.93v-3H951.46v3Zm13.47,6h3v-15h-3v15Z" transform="translate(-951.46 -778.89)"/>
      <path class="i" d="M951.46,793.86l10-5h2.23l-10,5h-2.23Zm0-15,10,5H959.2L951.46,780v-1.12Zm17.72,5,10-5h2.23l-10,5h-2.23Zm12.21,10-10-5h2.23l7.75,3.87v1.12Z" transform="translate(-951.46 -778.89)"/>
      <path class="j" d="M996.65,792.7a0.49,0.49,0,0,1,.32-0.2,0.77,0.77,0,0,0,.31,0,2,2,0,0,1,.75,0,0.58,0.58,0,0,1,.28.15,0.82,0.82,0,0,1,.26.85c-0.06.54,0,.77-0.07,1.07-0.05.53-.17,1-0.38,0.94,0.29,0.5.32,0.94,0.5,1.28a3.58,3.58,0,0,1,.23,1.81,7,7,0,0,0,.33,3.63,0.54,0.54,0,0,1-.56-0.23c-0.22-.23-0.31-0.22-0.49-0.09-0.55.42-1.06,0.92-1.81,0.42-0.17-.12-0.23-0.25-0.1-0.6a7.66,7.66,0,0,0,.42-2.65V792.7Z" transform="translate(-951.46 -778.89)"/>
      <path d="M996.94,802.51a1.1,1.1,0,0,1-.62-0.21c-0.17-.11-0.24-0.25-0.11-0.62a7.56,7.56,0,0,0,.42-2.64V792.7a0.58,0.58,0,0,1,.32-0.21,0.7,0.7,0,0,0,.33,0,2.21,2.21,0,0,1,.76,0,0.6,0.6,0,0,1,.29.16,0.83,0.83,0,0,1,.27.86,7.37,7.37,0,0,0-.05.74c0,0.12,0,.22,0,0.34a1,1,0,0,1-.37.95,3.51,3.51,0,0,1,.3.76,2.8,2.8,0,0,0,.19.5,3.59,3.59,0,0,1,.23,1.82v0.13a6.67,6.67,0,0,0,.34,3.49c-0.11.14-.33,0.05-0.58-0.21s-0.31-.21-0.47-0.09L998,802a1.85,1.85,0,0,1-1.06.52h0Zm0-10a0.43,0.43,0,0,0-.27.15l0,6.37a7.63,7.63,0,0,1-.42,2.65c-0.13.36-.06,0.48,0.1,0.59A1.31,1.31,0,0,0,998,802l0.14-.11c0.17-.13.28-0.16,0.51,0.09a0.56,0.56,0,0,0,.54.23,6.59,6.59,0,0,1-.35-3.49v-0.12a3.55,3.55,0,0,0-.23-1.8,2.61,2.61,0,0,1-.19-0.5,3.73,3.73,0,0,0-.31-0.78,1,1,0,0,0,.38-0.94c0-.11,0-0.22,0-0.33s0-.4.05-0.74a0.8,0.8,0,0,0-.26-0.83,0.56,0.56,0,0,0-.28-0.15,2.13,2.13,0,0,0-.74,0,0.84,0.84,0,0,1-.32,0h0Z" transform="translate(-951.46 -778.89)"/>
      <path class="k" d="M997.17,792.16a0.59,0.59,0,0,1,0,.42,0.58,0.58,0,0,0,0,.53,2,2,0,0,1,.56-0.34,1.12,1.12,0,0,1,.28-0.31,0.46,0.46,0,0,1-.24-0.47c0-.27.42-0.5,0.07-0.91a0.51,0.51,0,0,0-.69-0.09,0.47,0.47,0,0,0-.14.17,0.69,0.69,0,0,1,0,.21l-0.13.12a0.06,0.06,0,0,0,0,.1l0.07,0-0.05.09a0,0,0,0,0,0,.06,0.94,0.94,0,0,1,0,.16,0.11,0.11,0,0,0,0,.19,0.64,0.64,0,0,0,.27,0h0Z" transform="translate(-951.46 -778.89)"/>
      <path d="M997.19,793.14v0a0.58,0.58,0,0,1,0-.54,0.56,0.56,0,0,0,0-.39,0.45,0.45,0,0,1,0,.4,0.56,0.56,0,0,0,0,.49,0.63,0.63,0,0,1,.34-0.21,0.53,0.53,0,0,0,.21-0.11,1,1,0,0,0,.13-0.17,0.39,0.39,0,0,1,.11-0.12l-0.09.14a1.28,1.28,0,0,1-.14.17,0.55,0.55,0,0,1-.23.12,0.59,0.59,0,0,0-.33.22v0h0Zm0.81-.71a0.41,0.41,0,0,1-.22-0.44,0.74,0.74,0,0,1,.1-0.25,0.48,0.48,0,0,0,0-.65,0.45,0.45,0,0,0-.67-0.09,0.51,0.51,0,0,0-.14.16,0.22,0.22,0,0,0,0,.07,0.23,0.23,0,0,1,0,.15,0.73,0.73,0,0,1-.13.13v0.07l0,0a0.1,0.1,0,0,1,0-.06l0.13-.12a0.25,0.25,0,0,0,0-.13,0.19,0.19,0,0,1,0-.08,0.51,0.51,0,0,1,.15-0.17,0.47,0.47,0,0,1,.71.09,0.51,0.51,0,0,1,0,.68,0.75,0.75,0,0,0-.1.24,0.42,0.42,0,0,0,.2.42h0Zm-0.9-.26a0.54,0.54,0,0,1-.21,0,0.16,0.16,0,0,1-.08-0.09,0.15,0.15,0,0,1,0-.12,0.8,0.8,0,0,1,0-.16,0.4,0.4,0,0,1,0-.15l0,0,0.06,0-0.05.09a0.46,0.46,0,0,0,0,.13,0.1,0.1,0,0,1,0,.08,0.14,0.14,0,0,0,0,.1,0.13,0.13,0,0,0,.07.07,0.73,0.73,0,0,0,.23,0v0h0Z" transform="translate(-951.46 -778.89)"/>
      <path class="k" d="M995.76,793.59c-0.2.05-.53,0-0.77,0a0.14,0.14,0,0,1-.18-0.15,1.58,1.58,0,0,0,0-.42,1.93,1.93,0,0,1,.24-0.92,2,2,0,0,0,.24-0.73,0.34,0.34,0,0,1,.11-0.3,0.32,0.32,0,0,0,.12-0.13c0.06-.09.12-0.11,0.13-0.06a0.16,0.16,0,0,1,0,.1,2.09,2.09,0,0,1,.2-0.13s0.15-.11.16,0,0.09,0,.1,0,0,0,0,.06,0.08,0.06,0,.11,0.08,0.05,0,.11a0.89,0.89,0,0,0-.17.15,0.94,0.94,0,0,1-.27.21c-0.07,0-.07.07-0.07,0.17a5,5,0,0,1-.13,1.29c0,0.07,0,.14.06,0.12a1,1,0,0,1,.29-0.05v0.63Z" transform="translate(-951.46 -778.89)"/>
      <path d="M995.6,793.62h-0.24a1.81,1.81,0,0,0-.37,0,0.19,0.19,0,0,1-.16-0.05,0.14,0.14,0,0,1,0-.12,1.74,1.74,0,0,0,0-.42,2,2,0,0,1,.24-0.93,2,2,0,0,0,.24-0.72,0.35,0.35,0,0,1,.12-0.31,0.27,0.27,0,0,0,.1-0.1,0.22,0.22,0,0,1,.13-0.12,0.13,0.13,0,0,1,0,.13,0.44,0.44,0,0,1,.12-0.1,0.41,0.41,0,0,1,.18-0.09l0.09,0c0.06,0.06.05,0.08,0,.1v-0.06h0l-0.08,0a0.14,0.14,0,0,0-.14,0l-0.2.13a0.72,0.72,0,0,0,0-.11s-0.06,0-.1.06a0.34,0.34,0,0,1-.12.14,0.33,0.33,0,0,0-.1.29,2,2,0,0,1-.24.73,2,2,0,0,0-.24.91,1.71,1.71,0,0,1,0,.43,0.11,0.11,0,0,0,0,.1,0.14,0.14,0,0,0,.11,0,1.64,1.64,0,0,1,.4,0,1.46,1.46,0,0,0,.4,0V793l-0.25.06h-0.07a0.13,0.13,0,0,1,0-.09,0.69,0.69,0,0,1,0-.24,3.54,3.54,0,0,0,.1-1.08,0.15,0.15,0,0,1,.08-0.18,0.94,0.94,0,0,0,.26-0.2,0.35,0.35,0,0,1,.1-0.1l0.07-.06a0.06,0.06,0,0,0,0-.07h0a0.06,0.06,0,0,1,0,.09l-0.08.06a0.29,0.29,0,0,0-.09.09,0.94,0.94,0,0,1-.27.21c-0.06,0-.06.05-0.06,0.16a3.49,3.49,0,0,1-.1,1.09,0.6,0.6,0,0,0,0,.2V793a1.55,1.55,0,0,1,.32-0.05l0,0.64a0.4,0.4,0,0,1-.18,0h0Z" transform="translate(-951.46 -778.89)"/>
      <path class="k" d="M995.81,796a4.21,4.21,0,0,1,.89-0.27,4,4,0,0,0,.65-0.28c0.15-.08.27-0.19,0.36-0.22A0.41,0.41,0,0,0,998,795a3.16,3.16,0,0,0,.43-1.37c0-.25-0.06-0.53-0.31-0.33a1.83,1.83,0,0,0-.55.82,2.77,2.77,0,0,1-.21.57,0.21,0.21,0,0,1-.2.1,1.67,1.67,0,0,0-.84.39,8.24,8.24,0,0,1-.89.58,0.59,0.59,0,0,0-.32.25,1,1,0,0,1-.14.23,0.19,0.19,0,0,0,0,.16s0,0.26,0,.33,0,0.09,0,.09,0.07,0,.08-0.1c0,0.08.11,0.06,0.11,0,0,0.09.12,0,.13,0s0.1,0,.11,0a1.2,1.2,0,0,1,.07-0.21,0.69,0.69,0,0,1,.17-0.25,0.8,0.8,0,0,1,.24-0.24h0Z" transform="translate(-951.46 -778.89)"/>
      <path d="M994.91,796.86h0a0.08,0.08,0,0,1-.06-0.11v-0.08a1.79,1.79,0,0,0,0-.25,0.2,0.2,0,0,1,.05-0.17A1,1,0,0,0,995,796a0.49,0.49,0,0,1,.26-0.22l0.07,0a8.3,8.3,0,0,0,.89-0.58,1.67,1.67,0,0,1,.85-0.4c0.12,0,.18,0,0.19-0.09l0-.08a2.11,2.11,0,0,0,.17-0.49,1.85,1.85,0,0,1,.55-0.83c0.26-.21.33,0.18,0.33,0.34A3.1,3.1,0,0,1,998,795a0.42,0.42,0,0,1-.24.2,0.86,0.86,0,0,0-.17.1l-0.19.12a3.79,3.79,0,0,1-.66.28l-0.15,0a3.3,3.3,0,0,0-.74.24,0.34,0.34,0,0,0-.17.15,0.23,0.23,0,0,1-.07.09,0.58,0.58,0,0,0-.15.22,0.94,0.94,0,0,0-.07.19,0.12,0.12,0,0,1-.1.1h0a0.25,0.25,0,0,1-.12.06l-0.05-.06a0.06,0.06,0,0,1-.06.08l-0.05-.07c0.08,0,.11,0,0.11,0s0.12,0,.13,0h0.11a1.21,1.21,0,0,1,.07-0.21,0.67,0.67,0,0,1,.17-0.26,0.22,0.22,0,0,0,.06-0.08,0.37,0.37,0,0,1,.18-0.16,3.39,3.39,0,0,1,.75-0.24l0.14,0a3.72,3.72,0,0,0,.65-0.28l0.19-.12a0.81,0.81,0,0,1,.17-0.1,0.39,0.39,0,0,0,.23-0.19,3.09,3.09,0,0,0,.43-1.36c0-.12,0-0.52-0.29-0.32a1.83,1.83,0,0,0-.54.81,2.17,2.17,0,0,1-.18.49l0,0.08a0.17,0.17,0,0,1-.16.1,1.74,1.74,0,0,0-.88.4,8.13,8.13,0,0,1-.89.58l-0.07,0a0.45,0.45,0,0,0-.25.2,1,1,0,0,1-.14.23,0.17,0.17,0,0,0,0,.15,2.37,2.37,0,0,1,0,.25v0.08c0,0.07,0,.08,0,0.08h0a0.08,0.08,0,0,0,.06-0.09c0,0.1,0,.12-0.06.12h0Z" transform="translate(-951.46 -778.89)"/>
      <path class="k" d="M998.14,801.87c0,0.08.06,0.17,0.08,0.22a0.1,0.1,0,0,1,0,.1,2,2,0,0,0-.17.55,0.52,0.52,0,0,1-.09.2,0.1,0.1,0,0,0,0,.14,0.12,0.12,0,0,0,.14-0.06,0.08,0.08,0,0,0,.13,0s0.09,0,.12,0a0.09,0.09,0,0,0,.1-0.05c0.05,0,.1,0,0.11-0.1a0.2,0.2,0,0,1,0-.08,0.22,0.22,0,0,0,0-.11,0.4,0.4,0,0,1,.06-0.17,0.35,0.35,0,0,0,.07-0.25c0-.09-0.06-0.08-0.09-0.21a0.55,0.55,0,0,0-.3-0.21,0.33,0.33,0,0,0-.22.09h0Z" transform="translate(-951.46 -778.89)"/>
      <path d="M998,803.11h0a0.11,0.11,0,0,1-.05-0.16,0.52,0.52,0,0,0,.09-0.2,2,2,0,0,1,.17-0.55l0-.09a0.72,0.72,0,0,0,0-.1l0-.13a0.31,0.31,0,0,1,.22-0.11,0.55,0.55,0,0,1,.32.21,0.4,0.4,0,0,0,.06.13,0.25,0.25,0,0,1,0,.09,0.36,0.36,0,0,1-.07.26,0.35,0.35,0,0,0-.06.17,0.25,0.25,0,0,1,0,.12,0.18,0.18,0,0,0,0,.07,0.1,0.1,0,0,1-.09.13,0.59,0.59,0,0,1-.11,0,0.19,0.19,0,0,1-.11.05,0.37,0.37,0,0,1-.12,0,0.54,0.54,0,0,1-.16,0h0Zm0.34-1.31a0.28,0.28,0,0,0-.18.07,0.22,0.22,0,0,0,0,.13l0,0.1a0.1,0.1,0,0,1,0,.09,2,2,0,0,0-.18.56,0.45,0.45,0,0,1-.07.18,0.09,0.09,0,0,0,0,.15h0a0.1,0.1,0,0,0,.1-0.05c0.09,0,.12,0,0.13,0a0.95,0.95,0,0,0,.22-0.09c0.11,0,.1,0,0.1-0.1a0.21,0.21,0,0,1,0-.09,0.2,0.2,0,0,0,0-.1,0.4,0.4,0,0,1,.06-0.18,0.34,0.34,0,0,0,.07-0.24,0.3,0.3,0,0,0,0-.08,0.34,0.34,0,0,1-.06-0.13,0.55,0.55,0,0,0-.29-0.2h0Z" transform="translate(-951.46 -778.89)"/>
      <path class="k" d="M996.09,802.49a0.35,0.35,0,0,0,.48-0.06,1.38,1.38,0,0,1-.24-0.13,0.83,0.83,0,0,1-.24.19h0Z" transform="translate(-951.46 -778.89)"/>
      <path d="M996.28,802.58a0.29,0.29,0,0,1-.2-0.07,1.53,1.53,0,0,0,.25-0.21l0.26,0.13a0.36,0.36,0,0,1-.3.16h0Zm0-.27a0.6,0.6,0,0,1-.23.2,0.49,0.49,0,0,0,.19,0h0a0.39,0.39,0,0,0,.29-0.13,0.61,0.61,0,0,1-.24-0.11h0Z" transform="translate(-951.46 -778.89)"/>
      <path class="l" d="M997.11,791.05a0.24,0.24,0,0,1,.33-0.22,0.61,0.61,0,0,0,.27,0c0.21-.06.38,0,0.35,0.22a0.29,0.29,0,0,1,.11.23c0,0.09,0,.12.09,0.13s0.25,0.11.14,0.24a0.29,0.29,0,0,1,.13.34,0.18,0.18,0,0,1-.3,0,0.26,0.26,0,0,1-.29,0,0.15,0.15,0,0,1-.22,0,0.18,0.18,0,0,0-.12-0.1,0.12,0.12,0,0,1,0-.2,0.16,0.16,0,0,1,0-.12,0.09,0.09,0,0,0,0-.11,0.25,0.25,0,0,1,0-.27,0.41,0.41,0,0,1-.32-0.11c0-.06-0.09-0.06-0.13,0h0Z" transform="translate(-951.46 -778.89)"/>
      <path d="M998.37,792.1a0.18,0.18,0,0,1-.15-0.07,0.21,0.21,0,0,1-.29,0c0,0.07-.19.06-0.22,0a0.16,0.16,0,0,0-.11-0.1,0.1,0.1,0,0,1-.05-0.11,0.11,0.11,0,0,1,.08-0.11,0.11,0.11,0,0,1,0-.12,0.1,0.1,0,0,0,0-.09,0.28,0.28,0,0,1-.07-0.23,0.43,0.43,0,0,0,.09.21,0.13,0.13,0,0,1,.06.09,0.23,0.23,0,0,0,0,.15,0.12,0.12,0,0,0-.07.1,0.08,0.08,0,0,0,0,.08,0.2,0.2,0,0,1,.13.11,0.14,0.14,0,0,0,.19,0,0.26,0.26,0,0,0,.29,0,0.19,0.19,0,0,0,.29,0,0.28,0.28,0,0,0-.13-0.32,0.16,0.16,0,0,0,0-.13,0.22,0.22,0,0,0-.15-0.11,0.11,0.11,0,0,1-.1-0.15,0.26,0.26,0,0,0-.1-0.22,0.24,0.24,0,0,0,0-.18,0.29,0.29,0,0,0-.29,0,0.79,0.79,0,0,1-.28,0,0.23,0.23,0,0,0-.32.2h0a0.26,0.26,0,0,1,.35-0.23,0.82,0.82,0,0,0,.26,0,0.32,0.32,0,0,1,.32.05,0.24,0.24,0,0,1,.05.19,0.28,0.28,0,0,1,.11.23c0,0.08,0,.11.07,0.12a0.24,0.24,0,0,1,.18.13,0.14,0.14,0,0,1,0,.14,0.27,0.27,0,0,1,.13.34,0.21,0.21,0,0,1-.18.1h0Zm-0.88-.93a0.35,0.35,0,0,1-.25-0.1,0.08,0.08,0,0,0-.06,0h0a0.06,0.06,0,0,1,.1,0,0.42,0.42,0,0,0,.26.11h0Z" transform="translate(-951.46 -778.89)"/>
      <path d="M997.17,792.17v0a0.38,0.38,0,0,0,.15-0.05,0.31,0.31,0,0,1,.14,0l-0.13.07a0.42,0.42,0,0,1-.16.06h0Z" transform="translate(-951.46 -778.89)"/>
      <path class="a" d="M996.87,791.77l0,0,0.09,0Z" transform="translate(-951.46 -778.89)"/>
      <path class="a" d="M996.91,791.62l0.06,0Z" transform="translate(-951.46 -778.89)"/>
      <path d="M997.71,791.09a0.16,0.16,0,0,1-.11,0,0.31,0.31,0,0,0-.29-0.11,0.1,0.1,0,0,0-.07.06v0.06l0-.07a0.13,0.13,0,0,1,.1-0.08,0.34,0.34,0,0,1,.32.12,0.23,0.23,0,0,0,.17,0,0.1,0.1,0,0,1-.08,0h0Z" transform="translate(-951.46 -778.89)"/>
      <path d="M998.32,791.7h0a0.41,0.41,0,0,1-.22-0.24,0.17,0.17,0,0,0-.11-0.1,0.14,0.14,0,0,1-.1-0.09,0.26,0.26,0,0,0-.3-0.09v0a0.27,0.27,0,0,1,.33.11,0.12,0.12,0,0,0,.09.08,0.2,0.2,0,0,1,.13.11,0.38,0.38,0,0,0,.21.22,0.1,0.1,0,0,0,.08,0,0.07,0.07,0,0,1-.07.06h0Z" transform="translate(-951.46 -778.89)"/>
      <path d="M997.93,792a0.27,0.27,0,0,1,0-.21,0.22,0.22,0,0,1,0-.21,0.37,0.37,0,0,0,0,.2,0.28,0.28,0,0,0,0,.2l0,0h0Z" transform="translate(-951.46 -778.89)"/>
      <path class="a" d="M997.63,791.68a0.18,0.18,0,0,0,.15.14Z" transform="translate(-951.46 -778.89)"/>
      <path class="a" d="M998.23,792a0.23,0.23,0,0,1,0-.2Z" transform="translate(-951.46 -778.89)"/>
      <path d="M998,791.61a0.45,0.45,0,0,1-.28-0.3h0a0.18,0.18,0,0,0,.1.17,0.22,0.22,0,0,0,.22.12H998Z" transform="translate(-951.46 -778.89)"/>
      <path d="M998.06,791.06a0.66,0.66,0,0,0-.32-0.15,0.47,0.47,0,0,1,.34.13l0,0h0Z" transform="translate(-951.46 -778.89)"/>
      <path d="M997,794.85a1.28,1.28,0,0,0,.07-1,0.94,0.94,0,0,1,.14-0.76l0,0a0.89,0.89,0,0,0-.14.71,1.18,1.18,0,0,1-.09,1h0Z" transform="translate(-951.46 -778.89)"/>
      <path d="M997.32,795.62a0.51,0.51,0,0,1-.23,0,0.61,0.61,0,0,0,.49-0.05,0.76,0.76,0,0,1,.54-0.06v0a0.73,0.73,0,0,0-.52.05,0.49,0.49,0,0,1-.28.08h0Z" transform="translate(-951.46 -778.89)"/>
      <path d="M997.57,796.88a2.48,2.48,0,0,1,0-.74c0-.11,0-0.2,0-0.29,0-.26.06-0.38,0.22-0.41v0c-0.12,0-.2.09-0.2,0.38,0,0.09,0,.18,0,0.29a4,4,0,0,0,0,.74h0Z" transform="translate(-951.46 -778.89)"/>
      <path d="M997.36,795.85c0-.24,0-0.27.13-0.29l0,0h0c-0.08,0-.16,0-0.14.26h0Z" transform="translate(-951.46 -778.89)"/>
      <path d="M997,795.86h0a0.36,0.36,0,0,1,.09-0.27,0.11,0.11,0,0,1,.09,0l-0.07,0a0.33,0.33,0,0,0-.08.25h0Z" transform="translate(-951.46 -778.89)"/>
      <path d="M998.68,799.54a2.93,2.93,0,0,1-.1-0.91,6.91,6.91,0,0,0-.19-1.7l-0.07-.23a2.58,2.58,0,0,1-.16-0.66,0.74,0.74,0,0,0-.16-0.54,0.65,0.65,0,0,1,.07.4h0a0.59,0.59,0,0,0-.08-0.39l-0.06,0h0a0.07,0.07,0,0,1,.08,0c0.1,0,.17.12,0.22,0.57a2.53,2.53,0,0,0,.15.66l0.08,0.23a7.1,7.1,0,0,1,.19,1.71,4.6,4.6,0,0,0,.07.91h0Z" transform="translate(-951.46 -778.89)"/>
      <path d="M998.51,800.85c-0.06-.2-0.19-0.5-0.34-0.88s-0.23-.56-0.35-0.9a4.49,4.49,0,0,0,0-3.08h0a4.5,4.5,0,0,1,0,3.09c0.12,0.33.24,0.63,0.35,0.89a5.23,5.23,0,0,1,.31.89h0Z" transform="translate(-951.46 -778.89)"/>
      <path d="M997,797.86h0a0.27,0.27,0,0,0,0-.16,1.25,1.25,0,0,1,0-.68,0.89,0.89,0,0,0,0-.51,0.63,0.63,0,0,1,0,.52,1.2,1.2,0,0,0,0,.66,0.32,0.32,0,0,1,0,.17h0Z" transform="translate(-951.46 -778.89)"/>
      <path d="M997.15,798.06a1.83,1.83,0,0,0-.05-0.72,1.2,1.2,0,0,1,0-.47h0a1.21,1.21,0,0,0,0,.46,1.41,1.41,0,0,1,0,.73h0Z" transform="translate(-951.46 -778.89)"/>
      <path d="M997.61,802.29a0.6,0.6,0,0,0,.09-0.43s0-.08,0-0.12a4.21,4.21,0,0,0-.66-2.21L997,799.4a0.78,0.78,0,0,1-.13-0.47,3,3,0,0,0,0-.45c0-.12,0-0.25,0-0.36h0c0,0.11,0,.23,0,0.35a3.06,3.06,0,0,1,0,.45,0.75,0.75,0,0,0,.13.45l0.07,0.13a4.23,4.23,0,0,1,.66,2.22s0,0.07,0,.11a0.47,0.47,0,0,1-.12.43h0Z" transform="translate(-951.46 -778.89)"/>
      <path d="M996.82,802.5h0v0s0.07,0,.13-0.14a4,4,0,0,0,.15-1.43,3.56,3.56,0,0,1-.13,1.44,0.19,0.19,0,0,1-.15.16h0Z" transform="translate(-951.46 -778.89)"/>
      <path d="M997.12,802.28a2.13,2.13,0,0,0,.06-0.77h0a1.73,1.73,0,0,1-.09.78h0Z" transform="translate(-951.46 -778.89)"/>
      <path d="M997.49,801.9a3.21,3.21,0,0,0,0-.89h0a2.4,2.4,0,0,1,0,.9h0Z" transform="translate(-951.46 -778.89)"/>
      <path d="M997.29,802.45a0.73,0.73,0,0,0,0-.43V801.9h0V802a0.48,0.48,0,0,1-.06.44h0Z" transform="translate(-951.46 -778.89)"/>
      <path d="M998.57,801.88a1.92,1.92,0,0,1-.37-0.79,4.43,4.43,0,0,0-.35-0.86l0,0a4.67,4.67,0,0,1,.35.86,2.6,2.6,0,0,0,.34.79h0Z" transform="translate(-951.46 -778.89)"/>
      <path d="M998.08,801.73h0a0.61,0.61,0,0,0-.07-0.32,0.42,0.42,0,0,1,.1.32l0,0h0Z" transform="translate(-951.46 -778.89)"/>
      <path class="a" d="M995.22,796.69a0.41,0.41,0,0,1,.08-0.28Z" transform="translate(-951.46 -778.89)"/>
      <path d="M995.09,796.74v-0.05a0.37,0.37,0,0,1,.09-0.34,0.58,0.58,0,0,0-.06.34l0,0.05h0Z" transform="translate(-951.46 -778.89)"/>
      <path d="M995,796.75h0v-0.12a0.43,0.43,0,0,1,.06-0.28,0.72,0.72,0,0,0,0,.28v0.12h0Z" transform="translate(-951.46 -778.89)"/>
      <path class="a" d="M996,790.81l-0.29.21Z" transform="translate(-951.46 -778.89)"/>
      <path d="M995.75,791.11l0-.07a1,1,0,0,1,.25-0.18v0a1.6,1.6,0,0,0-.24.17l-0.06,0h0Z" transform="translate(-951.46 -778.89)"/>
      <path d="M995.81,791.2a0.34,0.34,0,0,1,.11-0.12L996,791v0l-0.13.1-0.12.1h0Z" transform="translate(-951.46 -778.89)"/>
      <path class="a" d="M995.61,791l-0.11.1Z" transform="translate(-951.46 -778.89)"/>
      <path class="a" d="M998.12,803a0.19,0.19,0,0,1,0-.15V803Z" transform="translate(-951.46 -778.89)"/>
      <path class="a" d="M998.25,803a0.26,0.26,0,0,1,0-.16Z" transform="translate(-951.46 -778.89)"/>
      <path class="a" d="M998.37,803s0-.06,0-0.13V803Z" transform="translate(-951.46 -778.89)"/>
      <path class="a" d="M998.47,802.9s0,0,0-.11v0.11Z" transform="translate(-951.46 -778.89)"/>
      <path d="M997.06,791.28a0.81,0.81,0,0,1,.11.11,0.11,0.11,0,0,0,0,.06s0,0,0,0h-0.09s-0.06,0,0,0,0,0,0,0a0.05,0.05,0,0,1,0,0s0,0,0,0,0-.06,0,0h0Z" transform="translate(-951.46 -778.89)"/>
      <path d="M997.09,791.22a0.38,0.38,0,0,1,.21.1s0,0,0,0a0.12,0.12,0,0,1-.09,0,0.29,0.29,0,0,0-.12-0.07s0,0,0,0h0Z" transform="translate(-951.46 -778.89)"/>
    </g>
  </g>
</svg>
