<svg xmlns="http://www.w3.org/2000/svg" xmlns:xlink="http://www.w3.org/1999/xlink" viewBox="0 0 58.92 34.37">
  <defs>
    <style>
      .a {
        fill: none;
      }

      .b {
        clip-path: url(#a);
      }

      .c {
        fill: #cbae43;
      }

      .d {
        fill: #b41630;
      }

      .e {
        fill: #ac6a32;
      }

      .f {
        fill: #355d8e;
      }

      .g {
        fill: #718c42;
      }
    </style>
    <clipPath id="a" transform="translate(-880.77 -778.89)">
      <rect class="a" x="880.77" y="778.89" width="58.92" height="34.37"/>
    </clipPath>
  </defs>
  <title>Montenegro</title>
  <g class="b">
    <rect class="c" width="58.92" height="34.37"/>
    <rect class="d" x="1.72" y="1.72" width="55.49" height="30.94"/>
    <g class="b">
      <path class="e" d="M917.7,795.8a4.16,4.16,0,0,0,1.39-.66,1.58,1.58,0,0,0,.63-0.89c0-.17.05-0.31-0.07-0.21a7.69,7.69,0,0,1-.77.54,2.85,2.85,0,0,1-.64.25c-0.14,0-.25.07-0.12,0a2.65,2.65,0,0,0,.93-0.55,2.09,2.09,0,0,0,.62-1.18c0-.31,0-0.29-0.12-0.21s-0.46.53-.67,0.69a6.3,6.3,0,0,1-.7.49c-0.16.1-.39,0.2-0.07,0a3.29,3.29,0,0,0,1.18-1.41,2.5,2.5,0,0,0,.2-1.13c0-.07-0.06-0.2-0.12-0.08a6.53,6.53,0,0,1-.79,1.29,2.36,2.36,0,0,1-.32.34c-0.07.06-.2,0.16,0,0a4.55,4.55,0,0,0,.66-1.11,3.79,3.79,0,0,0,.22-1.16,2.13,2.13,0,0,0-.16-0.73c0-.11-0.1-0.19-0.12-0.06s-0.28.93-.42,1.31a5.07,5.07,0,0,1-.48.92c-0.06.08-.2,0.26,0,0a5.52,5.52,0,0,0,.5-2,3.17,3.17,0,0,0-.19-1.49,1,1,0,0,0-.21-0.31,6.34,6.34,0,0,1-.15,1.36,4.52,4.52,0,0,1-.41,1.23s-0.1.12,0-.08a3.45,3.45,0,0,0,.19-0.9,4.23,4.23,0,0,0-.09-1.57,2,2,0,0,0-.44-0.81,11.34,11.34,0,0,1-.35,2.56c-0.05,0-.12-0.13-0.15,0a4.48,4.48,0,0,1-.5,1.39,2.24,2.24,0,0,1-.49.71s-0.06-.15-0.11-0.24-0.07-.13-0.13,0a4.37,4.37,0,0,1-.67,1,1.71,1.71,0,0,0-.65,1.09,0.84,0.84,0,0,0,.46.72,0.38,0.38,0,0,1,.26.46,0.44,0.44,0,0,1-.47.27,1.9,1.9,0,0,0-.54,0,1.69,1.69,0,0,0-.19.27,0.39,0.39,0,0,1-.21.15h-0.07a2.14,2.14,0,0,1,.36-1.39l-1-1.23-0.16.07,0,0a0.8,0.8,0,0,1-.18-0.55,0.76,0.76,0,0,0,.25,0c0.1,0,0-.12,0-0.21a1.81,1.81,0,0,1,0-.52l0-.17a0.54,0.54,0,0,0,.25.17c0.09,0,.08-0.1.1-0.2a0.82,0.82,0,0,1,.22-0.47,0.71,0.71,0,0,0,.36.12,0.93,0.93,0,0,0,.65-0.25,0.54,0.54,0,0,0,.2-0.24,3,3,0,0,0,.67.15,0.71,0.71,0,0,0,.74-0.34,0.64,0.64,0,0,0-.07-0.63s-0.13-.09-0.13,0a0.48,0.48,0,0,1-.17.43,0.5,0.5,0,0,1-.48.06,1.45,1.45,0,0,0-.66-0.08,0.87,0.87,0,0,0-.28.06,1.27,1.27,0,0,1,.44-0.3,0.36,0.36,0,0,1,.42.11c0.07,0.08.13,0.22,0.19,0a0.74,0.74,0,0,0-.07-0.57,0.54,0.54,0,0,0-.51-0.22,1.14,1.14,0,0,0-.29.06,0.6,0.6,0,0,0-.38-0.37,1.52,1.52,0,0,0-1,.22,1,1,0,0,1-.46,0,1.51,1.51,0,0,1-.39-0.19l0.08-.25,0.13,0c0.07,0,.06,0,0.06-0.11a0.32,0.32,0,0,0-.13-0.16,0.32,0.32,0,0,1,.21-0.29l0.21-.1a0.32,0.32,0,0,0,.19,0,0.1,0.1,0,0,0,.05-0.06,0.3,0.3,0,0,0,.14-0.09,0.26,0.26,0,0,0,0-.22c0-.07-0.06-0.08,0-0.12a0.3,0.3,0,0,0,.07-0.17c0-.06,0-0.07,0-0.07a0.13,0.13,0,0,0,.07-0.14,0.17,0.17,0,0,0-.1-0.18h-0.06a0.41,0.41,0,0,0-.07-0.17,0.89,0.89,0,0,0-.1-0.13,0.1,0.1,0,0,0,0-.11,0.21,0.21,0,0,0-.13-0.14,0.21,0.21,0,0,0-.11,0l-0.26-.15-0.11-.05a0.26,0.26,0,0,0,0-.12,0.2,0.2,0,0,0-.14-0.06,0.2,0.2,0,0,0-.08,0l-0.43-.1-0.13,0a2.62,2.62,0,0,0-.37-0.15l-0.14,0a0.56,0.56,0,0,0,.12-0.29,0.42,0.42,0,0,0-.2-0.36l-0.11-.05v-0.11l0.2,0,0-.33-0.2,0,0-.2H910l0,0.2h-0.2l0,0.32,0.21,0,0,0.12a0.36,0.36,0,0,0-.14.06,0.38,0.38,0,0,0-.19.34,0.66,0.66,0,0,0,.1.29l-0.13,0a2.52,2.52,0,0,0-.37.15l-0.13,0-0.43.1a0.19,0.19,0,0,0-.08,0,0.19,0.19,0,0,0-.14.06,0.25,0.25,0,0,0,0,.12l-0.11.05-0.26.15a0.22,0.22,0,0,0-.11,0,0.21,0.21,0,0,0-.13.14,0.1,0.1,0,0,0,0,.11,1.09,1.09,0,0,0-.1.13,0.41,0.41,0,0,0-.07.17h-0.06a0.17,0.17,0,0,0-.1.18,0.13,0.13,0,0,0,.07.14s0,0,0,.07a0.28,0.28,0,0,0,.07.17s0,0,0,.12a0.26,0.26,0,0,0,0,.22,0.3,0.3,0,0,0,.14.09,0.1,0.1,0,0,0,.05.06,0.32,0.32,0,0,0,.19,0l0.2,0.1a0.32,0.32,0,0,1,.21.29,0.33,0.33,0,0,0-.13.16c0,0.06,0,.08.06,0.11l0.13,0,0.08,0.25a1.45,1.45,0,0,1-.39.2,1,1,0,0,1-.46,0,1.52,1.52,0,0,0-1-.22,0.59,0.59,0,0,0-.38.37,1.15,1.15,0,0,0-.29-0.06,0.54,0.54,0,0,0-.51.22,0.74,0.74,0,0,0-.07.57c0.06,0.2.12,0.06,0.19,0a0.36,0.36,0,0,1,.42-0.11,1.26,1.26,0,0,1,.44.3,0.86,0.86,0,0,0-.27-0.06,1.45,1.45,0,0,0-.66.08,0.5,0.5,0,0,1-.48-0.06,0.48,0.48,0,0,1-.17-0.43c0-.09-0.09,0-0.13,0a0.64,0.64,0,0,0-.08.63,0.7,0.7,0,0,0,.74.34,2.91,2.91,0,0,0,.67-0.15,0.57,0.57,0,0,0,.2.24,0.94,0.94,0,0,0,.65.25,0.71,0.71,0,0,0,.36-0.12,0.82,0.82,0,0,1,.22.47c0,0.1,0,.2.1,0.2a0.55,0.55,0,0,0,.25-0.17s0,0,0,.17a1.8,1.8,0,0,1,0,.52c0,0.09-.1.19,0,0.21a0.82,0.82,0,0,0,.25,0,0.81,0.81,0,0,1-.18.55l0,0-0.15-.07-1,1.23a2.14,2.14,0,0,1,.36,1.4H907.1a0.39,0.39,0,0,1-.21-0.15,1.69,1.69,0,0,0-.19-0.27,1.89,1.89,0,0,0-.54,0,0.44,0.44,0,0,1-.47-0.27,0.38,0.38,0,0,1,.26-0.46,0.84,0.84,0,0,0,.46-0.72,1.7,1.7,0,0,0-.65-1.09,4.47,4.47,0,0,1-.67-1C905,792,905,792,905,792.09s-0.11.24-.11,0.24a2.24,2.24,0,0,1-.49-0.71,4.59,4.59,0,0,1-.5-1.39c0-.18-0.1-0.09-0.15,0a11.34,11.34,0,0,1-.35-2.56,2,2,0,0,0-.44.81,4.27,4.27,0,0,0-.1,1.57,3.45,3.45,0,0,0,.19.9c0.07,0.19,0,.08,0,0.08a4.49,4.49,0,0,1-.41-1.23,6.34,6.34,0,0,1-.15-1.36,1,1,0,0,0-.21.31,3.17,3.17,0,0,0-.19,1.49,5.56,5.56,0,0,0,.5,2c0.16,0.29,0,.12,0,0a5.22,5.22,0,0,1-.48-0.92c-0.14-.39-0.4-1.19-0.42-1.31s-0.07,0-.12.06a2.09,2.09,0,0,0-.16.73,3.67,3.67,0,0,0,.22,1.16,4.49,4.49,0,0,0,.65,1.11c0.16,0.2,0,.1,0,0a2.25,2.25,0,0,1-.32-0.34,6.41,6.41,0,0,1-.79-1.29c-0.06-.12-0.11,0-0.12.08a2.53,2.53,0,0,0,.2,1.13,3.28,3.28,0,0,0,1.18,1.41c0.32,0.22.09,0.11-.07,0a6.29,6.29,0,0,1-.69-0.49c-0.2-.17-0.56-0.62-0.67-0.69s-0.12-.1-0.12.21a2.09,2.09,0,0,0,.62,1.18,2.65,2.65,0,0,0,.93.55c0.13,0.05,0,0-.12,0a2.85,2.85,0,0,1-.64-0.25,7.91,7.91,0,0,1-.77-0.54c-0.13-.1-0.11,0-0.07.21a1.56,1.56,0,0,0,.63.89,4.15,4.15,0,0,0,1.4.66c0.2,0.06.06,0.06,0.06,0.06l-0.49-.1a5,5,0,0,1-1.19-.52c-0.17-.1-0.19-0.14-0.17.08a1.46,1.46,0,0,0,.63.92,3.57,3.57,0,0,0,1.23.34c0.18,0,.13,0,0.05,0a3.55,3.55,0,0,1-.6,0,4.57,4.57,0,0,1-.79-0.2l0-.14c0-.08-0.06-0.07-0.09-0.05l-0.14.08c-0.09,0-.1,0-0.1,0s0-.15,0-0.21,0-.06-0.08,0l-0.33.14c-0.08,0,0,.1,0,0.17l0.1,0.19-0.26.07c-0.06,0,0,.06,0,0.1l0.14,0.33a0.05,0.05,0,0,0,.08,0l0.2-.12,0.07,0.26a0.67,0.67,0,0,0-.19.09c-0.1.07-.07,0.16,0,0.2a0.64,0.64,0,0,1,.41.37,5.35,5.35,0,0,1,.29,1.57,1.86,1.86,0,0,0,.67,1.25c0.07,0,0,.09,0,0.09a0.34,0.34,0,0,0,0,.25,0.38,0.38,0,0,0,.23.27,0.08,0.08,0,0,1,0,.1,1.75,1.75,0,0,0,0,.48,1.49,1.49,0,0,0,.36.72c0.07,0.06.07,0.09,0.07,0.12s-0.05,0-.14.07a0.87,0.87,0,0,0-.24.26,0.45,0.45,0,0,0,0,.32,0.54,0.54,0,0,0,.24.28,0.13,0.13,0,0,0,0,.12,0.4,0.4,0,0,0,.17.31,0.82,0.82,0,0,0,.29.12l0,0.16a0.43,0.43,0,0,0,.21.17,0.41,0.41,0,0,0,.3,0,0.11,0.11,0,0,1,.15.07,1.39,1.39,0,0,1,0,.41,0.7,0.7,0,0,0,0,.25c0,0.05.13,0,.22,0s0.12,0,.21,0a0.63,0.63,0,0,0,.25.1,0.21,0.21,0,0,0,0-.17,0.57,0.57,0,0,1,0-.27,2.56,2.56,0,0,0,.28-0.07,0.17,0.17,0,0,0,.12-0.09,0.36,0.36,0,0,0-.23-0.13,2.22,2.22,0,0,1-.3-0.2c-0.1-.07-0.05-0.1-0.05-0.12a0.55,0.55,0,0,1,.07-0.11,0.32,0.32,0,0,0,0-.13l0.12-.13a1.54,1.54,0,0,1,.14-0.16,3.48,3.48,0,0,0,.19-0.33c0.05-.07.18-0.14,0.25-0.24a2,2,0,0,1,.39-0.32c0.11-.07.42-0.22,0.42-0.22a0.46,0.46,0,0,0,.08.27c0.08,0.09.18-.07,0.54-0.32a2.73,2.73,0,0,1,.62-0.34s0.07,0.12.17,0.23,0.18,0,.61-0.6a8.05,8.05,0,0,1,1-1.06l0.1,0,0,0.08a3.15,3.15,0,0,1-.19.38c-0.08.17-.21,0.21-0.36,0.45a1.13,1.13,0,0,0-.18.63,0.26,0.26,0,0,0,.12.29,1.57,1.57,0,0,0-.28.37,2.52,2.52,0,0,0-.1.48,0.41,0.41,0,0,0-.12.18,3.75,3.75,0,0,1-1,.76c-0.11.06-.08,0.13-0.05,0.21a0.63,0.63,0,0,0,.35.23,0.67,0.67,0,0,0,.35,0c0.12,0,0,.09,0,0.14a0.65,0.65,0,0,0-.11.42c0,0.19.15,0.15,0.33,0.12a2,2,0,0,0,.39-0.12l0,0.05a0.59,0.59,0,0,0,0,.25,0.34,0.34,0,0,0,.07.27,0.3,0.3,0,0,0,.2-0.06,2.23,2.23,0,0,1,.33-0.12,0.38,0.38,0,0,0,.22-0.1,0.3,0.3,0,0,0,0,.16,1.32,1.32,0,0,0,0,.37,0.68,0.68,0,0,0,.21.31c0.11,0.1.13,0.05,0.21-.07a2.11,2.11,0,0,1,.24-0.28l0.12,0.39a1.62,1.62,0,0,0,.46.64,1.64,1.64,0,0,0,.46-0.64c0.11-.35.12-0.39,0.12-0.39a2,2,0,0,1,.24.28c0.08,0.12.11,0.17,0.21,0.07a0.69,0.69,0,0,0,.2-0.31,1.32,1.32,0,0,0,0-.37,0.3,0.3,0,0,0-.05-0.16,0.4,0.4,0,0,0,.22.1,2.19,2.19,0,0,1,.33.12,0.3,0.3,0,0,0,.2.06,0.35,0.35,0,0,0,.07-0.27,0.6,0.6,0,0,0,0-.25l0-.05a2,2,0,0,0,.39.12c0.18,0,.32.07,0.33-0.12a0.64,0.64,0,0,0-.1-0.42s-0.14-.14,0-0.14a0.67,0.67,0,0,0,.35,0,0.61,0.61,0,0,0,.35-0.23c0-.08.06-0.15,0-0.21a2.1,2.1,0,0,1-.55-0.36,2.05,2.05,0,0,1-.43-0.4,0.4,0.4,0,0,0-.11-0.18,2.43,2.43,0,0,0-.1-0.48,1.53,1.53,0,0,0-.28-0.37,0.26,0.26,0,0,0,.12-0.29,1.11,1.11,0,0,0-.18-0.63c-0.15-.23-0.28-0.27-0.36-0.45a3.16,3.16,0,0,1-.19-0.38l0-.07,0.13-.06a7.92,7.92,0,0,1,1,1.06c0.43,0.6.52,0.72,0.61,0.6s0.17-.23.17-0.23a2.68,2.68,0,0,1,.62.34c0.35,0.25.46,0.41,0.54,0.32a0.33,0.33,0,0,0,.06-0.19l0.44,0.14,0.41,0.16a1.89,1.89,0,0,1,.58.39,1,1,0,0,0,.92.07c0.33-.1,1.2-0.39,1.55-0.54a2,2,0,0,0,.64-0.35,1.18,1.18,0,0,0,.08-0.34,0.33,0.33,0,0,0-.1-0.19,0.14,0.14,0,0,1,0-.12,0.38,0.38,0,0,0-.07-0.24,0.26,0.26,0,0,1,0-.25,1.06,1.06,0,0,0-.61-1,0.13,0.13,0,0,0,0-.07l-0.08,0s0-.21,0-0.25,0,0,0,0a0.39,0.39,0,0,0,.12.08,0.09,0.09,0,0,0,.11-0.1,2.32,2.32,0,0,1,.08-0.27c0-.07,0-0.08,0-0.08l-0.16,0s0,0,0,0a0.93,0.93,0,0,1,.08-0.14c0.05-.08,0-0.09,0-0.1l-0.35-.1a0.07,0.07,0,0,0-.08.07s0,0.15,0,.19,0,0-.06,0l-0.12-.08s-0.08,0-.09,0l-0.09.31a0.1,0.1,0,0,0,0,.12h0.21c0.07,0,0,0,0,0l-0.1.17a0.12,0.12,0,0,1-.12.05h-0.15a1.34,1.34,0,0,0-.66.22,1.09,1.09,0,0,0-.4.48,0.22,0.22,0,0,1-.14.11,0.49,0.49,0,0,0-.16.24,0.16,0.16,0,0,1-.09.2,0.46,0.46,0,0,0-.06.6,1.9,1.9,0,0,1,.28.44c0,0.08,0,.12,0,0.12a0.67,0.67,0,0,1-.21-0.13l-0.61-.47c-0.16-.12,0-0.11,0-0.11a0.33,0.33,0,0,0,.13,0c0.1,0,.11-0.09,0-0.12a1.24,1.24,0,0,1-.33-0.18c0-.05-0.07-0.11,0-0.16s0.3-.18.14-0.23l-0.52-.12a0.25,0.25,0,0,1-.17-0.09l0.1-.15s0.08-.12,0-0.13a2.27,2.27,0,0,1-.56-0.14,1.35,1.35,0,0,1-.81-0.9h0a0.77,0.77,0,0,0,.56.47c0.39,0,.44-0.11.35-0.24s-0.19-.24-0.22-0.28,0-.09.07,0a1,1,0,0,0,.89.38c0.59,0,.59-0.15.59-0.19a0.33,0.33,0,0,0-.19-0.2s-0.06-.09.06,0a1.54,1.54,0,0,0,.81,0,0.91,0.91,0,0,0,.61-0.43,1.54,1.54,0,0,1-.45-0.09c-0.19-.08-0.3-0.14-0.1-0.11a1.79,1.79,0,0,0,.91,0,0.58,0.58,0,0,0,.45-0.51s-0.37-.08-0.5-0.12a0.6,0.6,0,0,1-.18-0.08,1.45,1.45,0,0,0,1-.07,0.74,0.74,0,0,0,.49-0.64,0.29,0.29,0,0,0,0-.1,3.84,3.84,0,0,1-.75.1,1.84,1.84,0,0,1-.42,0,3.49,3.49,0,0,0,1.35-.3,1.09,1.09,0,0,0,.48-0.82,5,5,0,0,1-.83.22,3.58,3.58,0,0,1-.6,0c-0.08,0-.12,0,0.05,0a3.56,3.56,0,0,0,1.23-.34,1.46,1.46,0,0,0,.64-0.92c0-.22,0-0.18-0.17-0.08a5.12,5.12,0,0,1-1.19.52l-0.49.1s-0.14,0,.06-0.06m-16.13,1-0.18.1-0.09-.19s0-.06,0-0.06l0.16,0h0a1.16,1.16,0,0,0,.08.18h0m5.5,3.22a1.45,1.45,0,0,1-.62.51,2.2,2.2,0,0,1-.56.14c-0.1,0,0,.13,0,0.13L906,801a0.25,0.25,0,0,1-.17.09l-0.52.13c-0.16,0,0,.18.14,0.23s0.07,0.11,0,.15a1.19,1.19,0,0,1-.33.18c-0.09,0-.08.08,0,0.12a2.76,2.76,0,0,0,.35.09l-0.16.13a1.3,1.3,0,0,1-.62.21,8.18,8.18,0,0,1-.84,0l-0.41,0s0-.12,0-0.3a1.53,1.53,0,0,0-.22-0.56l-0.26-.36a1,1,0,0,1,0-.11,0.41,0.41,0,0,0,0-.23,1,1,0,0,0-.26-0.28s0-.12,0-0.23a4,4,0,0,0-.15-0.76,8.89,8.89,0,0,0-.56-1,2.8,2.8,0,0,1-.29-0.94,1.12,1.12,0,0,1,0-.47,0.49,0.49,0,0,1,0-.09,0.93,0.93,0,0,0,.25.22,3.49,3.49,0,0,0,1.35.3,1.84,1.84,0,0,1-.42,0,3.81,3.81,0,0,1-.75-0.1,0.25,0.25,0,0,0,0,.1,0.74,0.74,0,0,0,.49.64,1.45,1.45,0,0,0,1,.07,0.61,0.61,0,0,1-.18.08c-0.13,0-.5.13-0.5,0.13a0.58,0.58,0,0,0,.45.51,1.79,1.79,0,0,0,.91,0c0.2,0,.09,0-0.1.11a1.54,1.54,0,0,1-.45.09,0.91,0.91,0,0,0,.61.43,1.54,1.54,0,0,0,.81,0c0.12,0,.1,0,0.06,0a0.33,0.33,0,0,0-.19.2s0,0.15.59,0.19a1,1,0,0,0,.89-0.38c0.1-.1.1,0,0.07,0s-0.13.15-.22,0.28,0,0.25.35,0.24a0.76,0.76,0,0,0,.56-0.47h0l0,0c0,0.09-.1.25-0.17,0.38m4.76-12.76-0.08-.15a1.31,1.31,0,0,1,.36.25,0.55,0.55,0,0,1,.15.3,1,1,0,0,1,0,.33,0.45,0.45,0,0,0,0,.25l0,0.07-0.19.06a0.31,0.31,0,0,1-.28,0c-0.07-.06-0.08-0.1,0-0.13a0.39,0.39,0,0,0,.22-0.35,1.34,1.34,0,0,0-.16-0.65m-1.21.74a0.88,0.88,0,0,0,0-.51,6.55,6.55,0,0,1-.09-0.65,1,1,0,0,1,.4.25,0.79,0.79,0,0,1,.29.54c0,0.11-.06.24-0.06,0.34a0.47,0.47,0,0,0,0,.2l-0.16.09a0.34,0.34,0,0,1-.25.08,0.57,0.57,0,0,1-.26-0.1,0.36,0.36,0,0,0-.11,0,0.47,0.47,0,0,0,.19-0.21m-1.15-.91a1,1,0,0,1,.4-0.25,5.57,5.57,0,0,1-.09.65,0.88,0.88,0,0,0,0,.51,0.47,0.47,0,0,0,.19.21l-0.11,0a0.57,0.57,0,0,1-.26.1,0.34,0.34,0,0,1-.25-0.08l-0.16-.09a0.45,0.45,0,0,0,0-.2c0-.1-0.07-0.24-0.07-0.34a0.79,0.79,0,0,1,.29-0.54m-0.85,1.31a0.31,0.31,0,0,1-.28,0l-0.19-.06,0-.07a0.4,0.4,0,0,0,0-.25,1,1,0,0,1,0-.33,0.55,0.55,0,0,1,.15-0.3,1.31,1.31,0,0,1,.35-0.25l-0.08.15a1.32,1.32,0,0,0-.16.65,0.39,0.39,0,0,0,.22.35s0,0.08,0,.13m3.14,2.26c-0.23.13-.37,0.1-0.36,0.2a0.37,0.37,0,0,0,.22.17,2.47,2.47,0,0,1-.38.33,1.89,1.89,0,0,1-.36.17s-0.07,0,0,.11a0.4,0.4,0,0,0,.16.21l0.08,0a5.77,5.77,0,0,1-.42.41,1.09,1.09,0,0,1-.3.18c-0.1,0-.05.21,0,0.29a0.38,0.38,0,0,0,.17.2c0.05,0,.07.05,0,0.16l-0.29.4h0l-0.3-.4c-0.07-.11,0-0.14,0-0.16a0.37,0.37,0,0,0,.17-0.2c0-.08.08-0.25,0-0.29a1.1,1.1,0,0,1-.3-0.18c-0.13-.1-0.42-0.41-0.42-0.41l0.08,0a0.38,0.38,0,0,0,.16-0.21c0-.1,0-0.11,0-0.11a1.94,1.94,0,0,1-.36-0.17,2.58,2.58,0,0,1-.38-0.33,0.37,0.37,0,0,0,.22-0.17c0-.1-0.12-0.07-0.36-0.2a0.75,0.75,0,0,1-.31-0.29,0.76,0.76,0,0,0,.4-0.36,0.5,0.5,0,0,0,.05-0.26h0a5,5,0,0,0,2.77,0h0a0.5,0.5,0,0,0,.05.26,0.77,0.77,0,0,0,.4.36,0.73,0.73,0,0,1-.31.29" transform="translate(-880.77 -778.89)"/>
      <path class="d" d="M907,791.06a1.59,1.59,0,0,0-.6-0.18,1.85,1.85,0,0,0-.68.08,0.77,0.77,0,0,1-.41,0,0.56,0.56,0,0,1-.38-0.43,0.39,0.39,0,0,0,0,.46,0.51,0.51,0,0,0,.31.21,3.55,3.55,0,0,0,1-.17,0.83,0.83,0,0,1,.52.17,0.15,0.15,0,0,0,.17,0c0.1-.06.13-0.1,0-0.15" transform="translate(-880.77 -778.89)"/>
      <path class="d" d="M915.5,790.55a0.57,0.57,0,0,1-.38.43,0.77,0.77,0,0,1-.41,0,1.86,1.86,0,0,0-.68-0.08,1.61,1.61,0,0,0-.6.18c-0.09.05-.06,0.1,0,0.15a0.15,0.15,0,0,0,.17,0,0.84,0.84,0,0,1,.52-0.17,3.62,3.62,0,0,0,1,.17,0.52,0.52,0,0,0,.31-0.21,0.39,0.39,0,0,0,0-.46" transform="translate(-880.77 -778.89)"/>
      <path class="c" d="M913.17,795.92a2.18,2.18,0,0,1,.33-1.19l-0.91-1a486.26,486.26,0,0,0-4.75,0l-0.91,1a2.17,2.17,0,0,1,.34,1.19,6.58,6.58,0,0,1-.22,1.62,2.79,2.79,0,0,0,0,1.48,1.89,1.89,0,0,0,1.2,1.22,6.33,6.33,0,0,1,1.52.75,2.75,2.75,0,0,1,.42.42,2.84,2.84,0,0,1,.43-0.42,6.37,6.37,0,0,1,1.52-.75,1.89,1.89,0,0,0,1.2-1.22,2.79,2.79,0,0,0,0-1.48,6.49,6.49,0,0,1-.22-1.62" transform="translate(-880.77 -778.89)"/>
      <path class="c" d="M906.17,801.74a3.79,3.79,0,0,1-.39.17l-0.12,0a2.85,2.85,0,0,1-.35.27,1.32,1.32,0,0,1-.51.18c-0.23,0-.86,0-1.15,0a0.68,0.68,0,0,0-.58.19,0.34,0.34,0,0,0,0,.49,0.24,0.24,0,0,0,.38,0,0.29,0.29,0,0,0,0-.27c0-.05.05-0.07,0.13-0.08a1.87,1.87,0,0,1,.34,0,1.75,1.75,0,0,1,.43.14c0.09,0.05,0,.06,0,0l-0.25-.08a1,1,0,0,0-.29-0.07c-0.07,0,0,0,0,.06l0.06,0.12a0.4,0.4,0,0,1,0,.14l0,0.07,0.06-.11s0-.1,0-0.14,0.08,0,.12,0a0.47,0.47,0,0,1,.13.26,0.41,0.41,0,0,1,0,.23,0.26,0.26,0,0,1,.07.08,0.72,0.72,0,0,1,0,.16s0,0,.08-0.05a1.68,1.68,0,0,0,.09-0.26s0-.13.1-0.07a0.55,0.55,0,0,1,.11.18,0.33,0.33,0,0,1,0,.07,1.6,1.6,0,0,0,.17-0.2,1.23,1.23,0,0,1,.25-0.28c0.12-.1.34-0.3,0.44-0.37l0.45-.26a0.18,0.18,0,0,0,.11-0.2,1.53,1.53,0,0,1,.12-0.36c0-.1,0-0.13,0-0.13" transform="translate(-880.77 -778.89)"/>
      <path class="c" d="M905.93,801.63h-0.09l-0.19-.06a0.1,0.1,0,0,0-.11,0,3.13,3.13,0,0,1-.29.19h0.43a0.35,0.35,0,0,0,.25-0.14" transform="translate(-880.77 -778.89)"/>
      <path class="c" d="M907.16,801.56v0l-0.06-.12a0.75,0.75,0,0,0-.13.11,3.37,3.37,0,0,0-.21.26c-0.07.09-.18,0.18-0.09,0s0.12-.21.19-0.31a1.4,1.4,0,0,0,.11-0.15l-0.25,0a0.93,0.93,0,0,1-.38-0.14L906.1,801s-0.31.13-.43,0.16-0.19,0-.07.1,0.21,0.07.26,0.11a0.83,0.83,0,0,0,.33.09c0.1,0,.28,0,0.21.07a1.25,1.25,0,0,0-.22.42,1.48,1.48,0,0,0-.08.49,1.72,1.72,0,0,0,0,.19,2.37,2.37,0,0,1,.47-0.36,6,6,0,0,1,.53-0.32c0.06,0,.1,0,0.08-0.11s0-.28,0-0.32" transform="translate(-880.77 -778.89)"/>
      <path class="c" d="M908.47,800.52l-0.06,0h0a1.15,1.15,0,0,0-.33.3c-0.08.14-.17,0.15-0.07,0a1.23,1.23,0,0,1,.23-0.3l0.07-.06a4.1,4.1,0,0,1-.53-0.3,0.8,0.8,0,0,1-.12.18,0.82,0.82,0,0,1-.23.14,1.05,1.05,0,0,0,.17-0.23,1.1,1.1,0,0,0,.06-0.18,2.18,2.18,0,0,1-.35-0.33,1.25,1.25,0,0,1-.29.53,2,2,0,0,1-.81.45s-0.19,0,0,.06a1,1,0,0,0,.56.06,1.79,1.79,0,0,0,.36-0.08s0.15,0,0,.05a2,2,0,0,1-.62.1c-0.13,0-.31,0-0.12.06a0.81,0.81,0,0,0,.38.14c0.12,0,.16,0,0.28,0a0.86,0.86,0,0,0,.22,0c0.08,0,.13,0,0.13,0a0.64,0.64,0,0,0-.1.34,1.93,1.93,0,0,0,0,.43,1.71,1.71,0,0,0,.1.23c0,0.06,0,.12.08,0s0.1-.31.13-0.44,0-.13.06-0.19,0.08-.11,0,0-0.07.26-.09,0.37-0.08.29,0,.14,0.46-.56.52-0.63l0.15-.2c0-.06.17-0.14,0.23-0.23a2.23,2.23,0,0,1,.28-0.29l-0.32-.14" transform="translate(-880.77 -778.89)"/>
      <path class="c" d="M901.45,796.46s-0.05-.11-0.06-0.15a0,0,0,0,0-.05,0,0.91,0.91,0,0,1-.16.07c-0.07,0-.08,0-0.09,0l0-.23c0-.08,0-0.07-0.06-0.06l-0.18.07c-0.06,0,0,.06,0,0.09l0.12,0.23s0,0.07,0,.09l-0.16,0c-0.07,0-.07,0-0.06.06l0.08,0.17s0.05,0,.05,0a0.73,0.73,0,0,1,.14-0.1c0.06,0,.07,0,0.09,0l0.11,0.35s0,0,.07,0l0.12,0a0.13,0.13,0,0,0,.05-0.09l-0.18-.32c0-.06,0-0.08,0-0.08l0.18,0a0.06,0.06,0,0,0,.05-0.08" transform="translate(-880.77 -778.89)"/>
      <path class="c" d="M903,803.37a0.28,0.28,0,0,0,0-.17,0.35,0.35,0,0,1-.12-0.37s-0.06,0-.12,0a0.26,0.26,0,0,0-.13.23,0.34,0.34,0,0,0,.24.36c0.19,0.06.19,0,.18,0" transform="translate(-880.77 -778.89)"/>
      <path class="c" d="M903.24,803.31a0,0,0,0,0-.06,0s0,0.05,0,.13a0.37,0.37,0,0,0,.14.13c0.06,0,0,0,0-.06a0.19,0.19,0,0,0,0-.07,0.14,0.14,0,0,1,0-.1c0-.06-0.09-0.05-0.09-0.05" transform="translate(-880.77 -778.89)"/>
      <path class="c" d="M903.48,804a0.3,0.3,0,0,1,.15-0.11,1.12,1.12,0,0,1,.3-0.06,0.22,0.22,0,0,0,.16-0.21,0.19,0.19,0,0,0-.16-0.17,0.15,0.15,0,0,0-.15,0,0.26,0.26,0,0,1-.14.1,1.39,1.39,0,0,0-.13.07,0.19,0.19,0,0,0-.05.07,0.17,0.17,0,0,1-.15,0,0.43,0.43,0,0,0-.13,0l-0.25,0h0s0,0-.06.05a0.28,0.28,0,0,0,0,.21,0.7,0.7,0,0,0,.28.11l0.22,0.05a0.09,0.09,0,0,0,.13-0.05" transform="translate(-880.77 -778.89)"/>
      <path class="c" d="M904.35,804a0.15,0.15,0,0,0,0-.19,0.19,0.19,0,0,0-.18-0.06,0.15,0.15,0,0,0-.11,0,0.38,0.38,0,0,1-.15.09l-0.25.1a0.67,0.67,0,0,0-.19.14,0.2,0.2,0,0,1-.14,0,0.14,0.14,0,0,0-.09,0s0,0.05,0,.1a0.54,0.54,0,0,0,.22.07,0.13,0.13,0,0,0,.15,0,1,1,0,0,1,.13-0.12,0.77,0.77,0,0,1,.27-0.05,0.67,0.67,0,0,0,.27-0.08" transform="translate(-880.77 -778.89)"/>
      <path class="c" d="M904.35,803.72s0.07,0.07.1,0a0.24,0.24,0,0,0,0-.2,0.79,0.79,0,0,0-.07-0.11,2.11,2.11,0,0,1-.08.21s0,0,0,.08" transform="translate(-880.77 -778.89)"/>
      <path class="c" d="M904.06,803.22A0.54,0.54,0,0,0,904,803a0.87,0.87,0,0,1-.06.16,0.6,0.6,0,0,1-.08.12l0.13,0s0.07,0,.07-0.09" transform="translate(-880.77 -778.89)"/>
      <path class="c" d="M903.52,803.42a0.41,0.41,0,0,0,.2-0.1,0.17,0.17,0,0,0,0-.18,0.23,0.23,0,0,0-.13-0.1h-0.05a0.48,0.48,0,0,1-.07.14,0.2,0.2,0,0,0-.08.14c0,0.06,0,.13.1,0.11" transform="translate(-880.77 -778.89)"/>
      <path class="c" d="M903.73,803a0.19,0.19,0,0,0,0-.13l-0.05-.05v0.16l0.05,0s0.07,0,.07,0" transform="translate(-880.77 -778.89)"/>
      <path class="c" d="M902.48,800.4s0.12,0,.07-0.42a2.82,2.82,0,0,0-.45-1.1,5.32,5.32,0,0,1-.44-0.95,2.64,2.64,0,0,1-.13-0.71,0.42,0.42,0,0,1,.07-0.25,0.06,0.06,0,0,0,0-.07s-0.07,0-.12,0a0.56,0.56,0,0,0-.11.19,0.31,0.31,0,0,0,0,.08,0.82,0.82,0,0,0-.23,0,0.28,0.28,0,0,0-.22.05s0,0.05.12,0.1a0.54,0.54,0,0,1,.22.13,2.25,2.25,0,0,1,.23.52,6.72,6.72,0,0,1,.16.88,3.5,3.5,0,0,0,.29,1c0.05,0.11.32,0.61,0.55,0.51" transform="translate(-880.77 -778.89)"/>
      <path class="c" d="M902.75,801.15a1,1,0,0,0-.05.67,1.52,1.52,0,0,0,.31.54c0.06,0.07.08,0.07,0.11,0.05l0,0a0.7,0.7,0,0,0,.15-0.08,0.36,0.36,0,0,0,0-.29,1.7,1.7,0,0,0-.26-0.6c-0.16-.26-0.24-0.31-0.34-0.26" transform="translate(-880.77 -778.89)"/>
      <path class="c" d="M902.85,800.83a0.24,0.24,0,0,0-.24-0.23,0.22,0.22,0,0,0-.15,0,0.25,0.25,0,0,0,.14.42,0.29,0.29,0,0,0,.2-0.06,0.24,0.24,0,0,0,.05-0.17" transform="translate(-880.77 -778.89)"/>
      <path class="c" d="M904.75,804.6a0.36,0.36,0,0,1-.16-0.08,0.81,0.81,0,0,1-.22-0.21c0-.05,0-0.05-0.1,0a1.14,1.14,0,0,1-.26,0c-0.08,0,0,.09.06,0.18a0.92,0.92,0,0,1,0,.36,0.22,0.22,0,0,1,0,.06,0.06,0.06,0,0,0,0,.08s0,0,.09-0.07a2.33,2.33,0,0,0,.16-0.23l0.1,0a0.68,0.68,0,0,0,.3,0c0.07,0,0-.07,0-0.08" transform="translate(-880.77 -778.89)"/>
      <path class="c" d="M904.42,804.82a0.06,0.06,0,0,0-.07,0,0.46,0.46,0,0,0,0,.1,0.05,0.05,0,0,0,0,.06l0.05,0,0.06,0s0,0,0-.06,0-.1,0-0.14a0.07,0.07,0,0,0-.07-0.06" transform="translate(-880.77 -778.89)"/>
      <path class="c" d="M903.48,791.27a2.63,2.63,0,0,0,.39.87,0.57,0.57,0,0,1,.15.33,0.66,0.66,0,0,1-.16-0.2c-0.08-.1-0.22-0.34-0.35-0.51a6.42,6.42,0,0,1-.33-0.64s0-.06-0.1,0a1,1,0,0,0,0,.83,2.78,2.78,0,0,0,.45.66,1,1,0,0,1,.19.3,0.33,0.33,0,0,1-.16-0.14c-0.11-.12-0.29-0.31-0.41-0.46a3.28,3.28,0,0,1-.28-0.44,0,0,0,0,0-.06,0,0.44,0.44,0,0,0-.08.38,1.21,1.21,0,0,0,.38.73,1.46,1.46,0,0,1,.3.35,0.91,0.91,0,0,1-.31-0.24c-0.12-.11-0.4-0.38-0.46-0.46s-0.15,0-.15.27a1.56,1.56,0,0,0,.48.78,3.29,3.29,0,0,1,.3.3,0.42,0.42,0,0,1-.24-0.12l-0.5-.33c-0.07,0-.1,0,0,0.33a1.29,1.29,0,0,0,.48.62,1.81,1.81,0,0,1,.37.27,0.34,0.34,0,0,1-.25-0.08,2.81,2.81,0,0,0-.43-0.16c-0.12,0-.12.05-0.12,0.05a0.62,0.62,0,0,0,.15.44,1,1,0,0,0,.57.31c0.19,0,.22,0,0.22.07s0,0-.07,0l-0.38,0c-0.16,0-.25,0-0.25.11a0.36,0.36,0,0,0,.24.33,1.61,1.61,0,0,0,.63.21c0.12,0,.12,0,0.1.07a0.45,0.45,0,0,1-.26,0,0.41,0.41,0,0,0-.32.14,0.3,0.3,0,0,0,.16.29,1,1,0,0,0,.63.11c0.29,0,.36,0,0.37,0s-0.09.06-.23,0.09a0.72,0.72,0,0,0-.34.09c-0.08.07,0,.2,0.12,0.31a1.28,1.28,0,0,0,.63.09,1.18,1.18,0,0,1,.38,0,0.37,0.37,0,0,1-.25.15,0.31,0.31,0,0,0-.22.15c0,0.06,0,.12.17,0.19a0.85,0.85,0,0,0,.57,0,0.31,0.31,0,0,1,.23-0.06s0,0,0,.08a0.66,0.66,0,0,1-.29.16,0.22,0.22,0,0,0-.22.16c-0.05.12,0.08,0.21,0.35,0.22a1.76,1.76,0,0,0,.74-0.16c0.11-.07.16-0.08,0.18-0.06s0,0,0,.08a1.41,1.41,0,0,1-.33.2,0.13,0.13,0,0,0-.1.15c0,0.06,0,.19.22,0.24a1,1,0,0,0,.78-0.17,0.67,0.67,0,0,0,.16-0.15,2,2,0,0,1,0-.57,1,1,0,0,1-.25-0.06,0.46,0.46,0,0,1-.23-0.27,0.1,0.1,0,0,0-.14-0.05,0.48,0.48,0,0,1-.2,0,0.58,0.58,0,0,1-.38-0.2,0.51,0.51,0,0,1-.1-0.36c0-.07-0.12,0-0.18,0a0.75,0.75,0,0,1-.38-0.13,0.4,0.4,0,0,1-.17-0.31,0.2,0.2,0,0,0-.12-0.12,0.7,0.7,0,0,1-.23-0.12,0.52,0.52,0,0,1-.15-0.31,0.45,0.45,0,0,0-.28-0.17,0.4,0.4,0,0,1-.19-0.43,0.86,0.86,0,0,1,.11-0.2,0.32,0.32,0,0,0-.14-0.09,0.41,0.41,0,0,1-.26-0.38,0.25,0.25,0,0,1,.17-0.3l-0.11-.06a0.5,0.5,0,0,1-.27-0.34,0.3,0.3,0,0,1,.13-0.27,0.88,0.88,0,0,1,.2-0.07,0.36,0.36,0,0,1-.13-0.18,0.41,0.41,0,0,1,0-.39,0.4,0.4,0,0,1,.33-0.11,0.55,0.55,0,0,0,.18,0s0,0,0-.11a0.45,0.45,0,0,1,0-.27,0.3,0.3,0,0,1,.23-0.23,0.63,0.63,0,0,1,.49.11c0.07,0,0-.05,0-0.12a2.29,2.29,0,0,0-.3-0.48,5.14,5.14,0,0,1-.41-0.73,4.68,4.68,0,0,1-.32-1c0-.12-0.07-0.06-0.07-0.06a0.65,0.65,0,0,0-.16.3,1.8,1.8,0,0,0-.12.75" transform="translate(-880.77 -778.89)"/>
      <path class="c" d="M907.1,796.18a0.54,0.54,0,0,1-.41-0.25,0.65,0.65,0,0,0-.63-0.21,0.52,0.52,0,0,1-.21-1,0.7,0.7,0,0,0,.49-0.62,2.08,2.08,0,0,0-.67-1,4.85,4.85,0,0,1-.6-0.94,0.51,0.51,0,0,0-.1.26,0.18,0.18,0,1,1-.27.16,0.38,0.38,0,0,0-.48,0,0.43,0.43,0,0,0,.11.51,0.38,0.38,0,0,1,.17.25,0.39,0.39,0,0,1-.25-0.11,0.54,0.54,0,0,0-.38-0.16,0.24,0.24,0,0,0-.28.23,0.46,0.46,0,0,0,.3.37c0.12,0.06.17,0.12,0.14,0.14a0.12,0.12,0,0,1-.12,0,0.56,0.56,0,0,0-.31,0,0.21,0.21,0,0,0-.11.34,1,1,0,0,0,.52.24c0.06,0,.09,0,0.1,0a0.36,0.36,0,0,1-.29.05,0.22,0.22,0,0,0-.19.29,0.66,0.66,0,0,0,.46.28,0.3,0.3,0,0,1,.22,0s0,0.06-.11.09a0.32,0.32,0,0,0-.29.18,0.26,0.26,0,0,0,.09.31,0.5,0.5,0,0,0,.4.09,0.19,0.19,0,0,1,.2,0c0.06,0.06-.05.11-0.16,0.19s-0.1.22,0.08,0.31a0.55,0.55,0,0,0,.43,0c0.07,0,.17-0.14.22-0.07a0.47,0.47,0,0,1-.24.21,0.26,0.26,0,0,0,.12.38,0.58,0.58,0,0,0,.51,0,0.11,0.11,0,0,1,.15,0,0.29,0.29,0,0,1-.05.22,0.31,0.31,0,0,0,.15.44,0.54,0.54,0,0,0,.54-0.17,0.1,0.1,0,0,1,.12,0s0,0.06,0,.1a0.26,0.26,0,0,0,.09.36,0.46,0.46,0,0,0,.34.07c0-.14.09-0.3,0.14-0.52h0s0,0,0,.05,0,0,0,0a0.11,0.11,0,0,0-.06,0,0.11,0.11,0,0,1-.08,0,0.27,0.27,0,0,1,.09-0.08,0.27,0.27,0,0,0,.07-0.1,0.14,0.14,0,0,1,.06-0.08l0,0c0-.14.06-0.31,0.09-0.52s0-.27,0-0.39H907.1Z" transform="translate(-880.77 -778.89)"/>
      <path class="c" d="M901.82,792.33a2.81,2.81,0,0,0,.67.87s-0.05-.14-0.07-0.23a0.57,0.57,0,0,1,0-.21s-0.1-.12-0.28-0.4a2.53,2.53,0,0,1-.28-0.69,6.16,6.16,0,0,0,.3.63,3.23,3.23,0,0,0,.28.4,0.53,0.53,0,0,1,.09-0.2,0.1,0.1,0,0,1,.1.06,0.07,0.07,0,0,0,.06,0s0-.09-0.11-0.2l-0.11-.15a4.06,4.06,0,0,1-.44-0.78c-0.11-.31-0.36-1.08-0.41-1.31s-0.09-.1-0.13.06a1.92,1.92,0,0,0-.06.76,3.82,3.82,0,0,0,.4,1.35" transform="translate(-880.77 -778.89)"/>
      <path class="c" d="M902.18,793.83l0.25,0.18a0.76,0.76,0,0,1,0-.12,1.35,1.35,0,0,1,0-.21l-0.21-.18a2.89,2.89,0,0,1-.4-0.43c-0.21-.26,0-0.11.13,0.08a6.25,6.25,0,0,0,.5.46v-0.06a0.23,0.23,0,0,1,.05-0.14s0,0-.17-0.19a5.23,5.23,0,0,1-.86-1c-0.19-.32-0.41-0.75-0.41-0.75a2.29,2.29,0,0,0,.29,1.34,2.68,2.68,0,0,0,.88,1" transform="translate(-880.77 -778.89)"/>
      <path class="c" d="M904.22,797.86a0.25,0.25,0,0,0,.15-0.3l-0.25.09a2.57,2.57,0,0,1-.53.13c-0.12,0-.12,0-0.12,0a2.51,2.51,0,0,1,.26,0,2.08,2.08,0,0,0,.52-0.22c0.05,0,0,0,0,0a0.32,0.32,0,0,1-.17-0.06,0.69,0.69,0,0,0-.3.05,4.61,4.61,0,0,1-.9.11,3.65,3.65,0,0,1-.64-0.06s-0.1,0,0,.27a1.35,1.35,0,0,0,1,.38,2.74,2.74,0,0,0,.94-0.28" transform="translate(-880.77 -778.89)"/>
      <path class="c" d="M903.26,797.35a0.87,0.87,0,0,0,.51-0.11,0.26,0.26,0,0,0-.05-0.1,0.39,0.39,0,0,1,0-.21l-0.24,0a1.65,1.65,0,0,1-.53,0c-0.2,0-.12-0.06,0,0a1.72,1.72,0,0,0,.56-0.07c0.1,0,.06-0.07,0-0.09a1.9,1.9,0,0,1-.25-0.14,4.3,4.3,0,0,1-.87,0,4.86,4.86,0,0,1-.77-0.17c-0.09,0-.08,0-0.08,0a0.44,0.44,0,0,0,.12.27,1.21,1.21,0,0,0,.67.45,3.55,3.55,0,0,0,.94.12" transform="translate(-880.77 -778.89)"/>
      <path class="c" d="M903.17,796.48a0.36,0.36,0,0,1,0-.1,0.14,0.14,0,0,1,0-.13,2.8,2.8,0,0,0-.36-0.06,2.87,2.87,0,0,1-.46-0.09,0.58,0.58,0,0,1-.28-0.11,0.27,0.27,0,0,1,.16,0,6.53,6.53,0,0,0,.71.11,0.87,0.87,0,0,0,.31,0l0.14,0-0.17,0A0.6,0.6,0,0,1,903,796a0.53,0.53,0,0,0-.29-0.07,5.4,5.4,0,0,1-1.62-.64c-0.08-.07-0.08,0-0.05.07a0.77,0.77,0,0,0,.22.43,1.5,1.5,0,0,0,.83.54,3.19,3.19,0,0,0,1.1.16" transform="translate(-880.77 -778.89)"/>
      <path class="c" d="M901.63,795.22a2.91,2.91,0,0,0,1.11.46s0-.14,0-0.2,0.08-.08.19-0.09,0,0,0,0l-0.21-.05a5.06,5.06,0,0,1-.62-0.17,0.56,0.56,0,0,1-.32-0.18s0.12,0.06.35,0.15a4.2,4.2,0,0,0,.65.16c0.15,0,0,0-.05-0.07a0.8,0.8,0,0,1-.17-0.19,4.09,4.09,0,0,1-.43-0.11,3.45,3.45,0,0,1-.72-0.3,2.21,2.21,0,0,1-.23-0.16l-0.37-.27c-0.09-.07-0.06,0-0.05,0a1.58,1.58,0,0,0,.22.44,1.9,1.9,0,0,0,.65.6" transform="translate(-880.77 -778.89)"/>
      <path class="c" d="M901.56,794.31a3,3,0,0,0,.91.5c0.07,0,.06,0,0,0a1.1,1.1,0,0,1,0-.16l-0.34-.2c-0.18-.11-0.38-0.25-0.51-0.34s-0.05-.09,0-0.05l0.41,0.26,0.46,0.28a0.17,0.17,0,0,1,0-.1,0.2,0.2,0,0,1,.13,0,0.55,0.55,0,0,1-.08-0.09,1.59,1.59,0,0,0-.34-0.17,3.93,3.93,0,0,1-.69-0.49,8.93,8.93,0,0,1-.68-0.69s0,0-.05,0a0.72,0.72,0,0,0,0,.29,2,2,0,0,0,.7,1" transform="translate(-880.77 -778.89)"/>
      <path class="c" d="M903.16,790.93c0.05,0.11.11,0.19,0.15,0.26l0.1,0.17a0.24,0.24,0,0,0,0-.1,0.77,0.77,0,0,1,0-.25,0.8,0.8,0,0,0,0-.16,0.7,0.7,0,0,0,0-.14c0-.06-0.08-0.32-0.11-0.51a4.24,4.24,0,0,1-.06-0.69c0-.23,0-0.12,0,0a4.1,4.1,0,0,0,0,.55,6.11,6.11,0,0,0,.15.68,0.77,0.77,0,0,1,0-.15c0-.09.09-0.19,0.13-0.3a0.18,0.18,0,0,0,0-.13s-0.16-.76-0.2-1.12-0.11-1.3-.11-1.3a2.55,2.55,0,0,0-.44,1.43,5.14,5.14,0,0,0,.07,1,2.55,2.55,0,0,0,.18.76" transform="translate(-880.77 -778.89)"/>
      <path class="c" d="M902.64,792.13a0.34,0.34,0,0,1,.16-0.34,2.69,2.69,0,0,1-.18-0.42,3,3,0,0,1-.13-0.55,0.83,0.83,0,1,1,0-.14,3.06,3.06,0,0,0,.27.93l0.18,0.29a1.15,1.15,0,0,1,0-.35,2.12,2.12,0,0,1,.07-0.47,5.4,5.4,0,0,1-.35-0.94,6,6,0,0,1-.21-1.25c0-.27,0-0.37,0-0.37a1.5,1.5,0,0,0-.29,1,4.94,4.94,0,0,0,.26,1.93c0.11,0.3.27,0.68,0.27,0.68" transform="translate(-880.77 -778.89)"/>
      <path class="c" d="M905,798.47l-0.14-.09a0.3,0.3,0,0,1-.07-0.26l-0.1.07a1.42,1.42,0,0,1-.27.15l-0.22.09c-0.06,0,0,0,0,0a1.07,1.07,0,0,1,.21-0.1,2.32,2.32,0,0,0,.41-0.3h-0.18a1,1,0,0,1-.26-0.06,2.48,2.48,0,0,1-.57.3,3.53,3.53,0,0,1-.85.25,0.46,0.46,0,0,0,.27.31,1.4,1.4,0,0,0,.93,0,3.13,3.13,0,0,0,.83-0.32" transform="translate(-880.77 -778.89)"/>
      <path class="c" d="M905.63,798.94a0.42,0.42,0,0,0-.07-0.33l-0.09.08a1.35,1.35,0,0,1-.36.28c-0.19.1-.26,0.09-0.08,0a2.55,2.55,0,0,0,.46-0.38l-0.07,0a1.31,1.31,0,0,0-.71.33,2,2,0,0,1-.82.32,1.06,1.06,0,0,0,.86.26,0.82,0.82,0,0,0,.89-0.51" transform="translate(-880.77 -778.89)"/>
      <path class="c" d="M906.81,798.72a0.72,0.72,0,0,1-.16.16,1.24,1.24,0,0,1-.34.1,0.39,0.39,0,0,1-.06.09,1.62,1.62,0,0,1-.27.29,0.51,0.51,0,0,1-.29.11,0.73,0.73,0,0,1,.21-0.13,1.39,1.39,0,0,0,.28-0.27c0.07-.08,0-0.07,0-0.07h-0.25c-0.12,0-.1,0-0.13.06a1.87,1.87,0,0,1-.17.21l-0.32.37c-0.07.08,0,.11,0,0.11a0.51,0.51,0,0,0,.31.08,0.87,0.87,0,0,0,.55-0.12,1.7,1.7,0,0,0,.38-0.32,1,1,0,0,0,.32-0.66" transform="translate(-880.77 -778.89)"/>
      <path class="c" d="M907,799.47l-0.11.13a1.27,1.27,0,0,1,.09-0.22l0.06-.1a1.74,1.74,0,0,1-.11-0.34,2.84,2.84,0,0,1-.25.58c-0.14.23-.27,0.31-0.19,0.38a0.43,0.43,0,0,0,.43,0,0.47,0.47,0,0,0,.25-0.36l-0.09-.15a0.34,0.34,0,0,0-.09.09" transform="translate(-880.77 -778.89)"/>
      <path class="c" d="M917.44,794.46a1.31,1.31,0,0,0,.48-0.62c0.09-.29.05-0.38,0-0.33l-0.5.33a0.42,0.42,0,0,1-.24.12,3.44,3.44,0,0,1,.3-0.3,1.54,1.54,0,0,0,.48-0.78c0-.3-0.09-0.34-0.15-0.27s-0.34.35-.46,0.46a0.91,0.91,0,0,1-.31.24,1.41,1.41,0,0,1,.3-0.35,1.21,1.21,0,0,0,.38-0.73,0.44,0.44,0,0,0-.08-0.38,0,0,0,0,0-.06,0,3.17,3.17,0,0,1-.28.44c-0.12.14-.3,0.34-0.41,0.46a0.32,0.32,0,0,1-.16.14,0.94,0.94,0,0,1,.19-0.3,2.79,2.79,0,0,0,.45-0.66,1,1,0,0,0,0-.83c-0.06,0-.07,0-0.1,0a6.4,6.4,0,0,1-.33.64c-0.12.18-.27,0.41-0.35,0.51a0.65,0.65,0,0,1-.16.2,0.56,0.56,0,0,1,.15-0.33,2.62,2.62,0,0,0,.39-0.87,1.8,1.8,0,0,0-.12-0.75,0.64,0.64,0,0,0-.16-0.3s0-.06-0.07.06a4.81,4.81,0,0,1-.32,1,5.23,5.23,0,0,1-.41.73,2.2,2.2,0,0,0-.3.48c0,0.07,0,.16,0,0.12a0.63,0.63,0,0,1,.49-0.11,0.31,0.31,0,0,1,.24.23,0.48,0.48,0,0,1,0,.27c0,0.06,0,.08,0,0.11a0.55,0.55,0,0,0,.18,0,0.4,0.4,0,0,1,.33.11,0.42,0.42,0,0,1,0,.39,0.35,0.35,0,0,1-.13.18,0.87,0.87,0,0,1,.2.07,0.31,0.31,0,0,1,.13.27,0.51,0.51,0,0,1-.27.34l-0.11.06a0.25,0.25,0,0,1,.17.3,0.41,0.41,0,0,1-.26.38,0.31,0.31,0,0,0-.14.09,0.86,0.86,0,0,1,.11.2,0.4,0.4,0,0,1-.19.43,0.47,0.47,0,0,0-.28.17,0.5,0.5,0,0,1-.15.31,0.66,0.66,0,0,1-.23.13,0.2,0.2,0,0,0-.12.12,0.42,0.42,0,0,1-.17.31,0.76,0.76,0,0,1-.38.13c-0.06,0-.17-0.05-0.18,0a0.5,0.5,0,0,1-.11.36,0.56,0.56,0,0,1-.38.2,0.49,0.49,0,0,1-.2,0,0.09,0.09,0,0,0-.14.05,0.47,0.47,0,0,1-.24.27,1,1,0,0,1-.25.06,1.91,1.91,0,0,1,0,.57,0.59,0.59,0,0,0,.16.15,1,1,0,0,0,.78.17c0.24-.06.21-0.18,0.21-0.24a0.13,0.13,0,0,0-.1-0.15,1.59,1.59,0,0,1-.33-0.2c-0.06,0-.06-0.06,0-0.08s0.06,0,.18.06a1.79,1.79,0,0,0,.74.16c0.27,0,.4-0.11.35-0.22a0.22,0.22,0,0,0-.21-0.16,0.66,0.66,0,0,1-.29-0.16s-0.05-.06,0-0.08a0.31,0.31,0,0,1,.23.06,0.86,0.86,0,0,0,.57,0c0.18-.07.2-0.12,0.17-0.19a0.31,0.31,0,0,0-.22-0.15,0.37,0.37,0,0,1-.25-0.15,1.18,1.18,0,0,1,.38,0,1.23,1.23,0,0,0,.63-0.09c0.14-.1.2-0.24,0.12-0.31a0.73,0.73,0,0,0-.34-0.09c-0.14,0-.24,0-0.23-0.09s0.08,0,.37,0a1,1,0,0,0,.63-0.11,0.31,0.31,0,0,0,.16-0.29,0.42,0.42,0,0,0-.32-0.14,0.44,0.44,0,0,1-.26,0s0,0,.1-0.07a1.6,1.6,0,0,0,.63-0.21,0.36,0.36,0,0,0,.24-0.33c0-.07-0.09-0.11-0.25-0.11l-0.38,0s-0.06,0-.07,0,0,0,.22-0.07a1,1,0,0,0,.57-0.31,0.62,0.62,0,0,0,.15-0.44s0-.09-0.12-0.05a3,3,0,0,0-.43.16,0.33,0.33,0,0,1-.25.08,1.75,1.75,0,0,1,.37-0.27" transform="translate(-880.77 -778.89)"/>
      <path class="c" d="M916.82,793.81a0.57,0.57,0,0,0-.31,0,0.12,0.12,0,0,1-.12,0s0-.08.14-0.14a0.46,0.46,0,0,0,.3-0.37,0.24,0.24,0,0,0-.28-0.23,0.53,0.53,0,0,0-.37.16,0.4,0.4,0,0,1-.25.11,0.38,0.38,0,0,1,.17-0.25,0.42,0.42,0,0,0,.11-0.51,0.37,0.37,0,0,0-.48,0,0.18,0.18,0,1,1-.27-0.16,0.51,0.51,0,0,0-.1-0.26,5,5,0,0,1-.6.94,2.1,2.1,0,0,0-.67,1,0.7,0.7,0,0,0,.49.62,0.52,0.52,0,0,1-.21,1,0.65,0.65,0,0,0-.63.21,0.53,0.53,0,0,1-.41.25h-0.08c0,0.12,0,.25,0,0.39s0.05,0.37.09,0.52l0,0a0.12,0.12,0,0,1,.06.08,0.3,0.3,0,0,0,.07.1,0.31,0.31,0,0,1,.09.08,0.1,0.1,0,0,1-.08,0,0.11,0.11,0,0,0-.06,0s0,0,0,0,0-.05,0-0.05h0c0,0.22.1,0.37,0.14,0.52a0.46,0.46,0,0,0,.34-0.07,0.26,0.26,0,0,0,.09-0.36s0-.08,0-0.1a0.11,0.11,0,0,1,.13,0,0.54,0.54,0,0,0,.54.17,0.31,0.31,0,0,0,.15-0.44,0.29,0.29,0,0,1-.05-0.22,0.11,0.11,0,0,1,.15,0,0.58,0.58,0,0,0,.51,0,0.26,0.26,0,0,0,.12-0.38,0.5,0.5,0,0,1-.24-0.21c0.05-.07.15,0,0.22,0.07a0.55,0.55,0,0,0,.43,0c0.18-.1.18-0.24,0.08-0.31s-0.22-.12-0.16-0.19a0.19,0.19,0,0,1,.2,0,0.5,0.5,0,0,0,.4-0.09,0.25,0.25,0,0,0,.09-0.31,0.32,0.32,0,0,0-.28-0.18c-0.09,0-.12,0-0.11-0.09a0.31,0.31,0,0,1,.22,0,0.66,0.66,0,0,0,.46-0.28,0.22,0.22,0,0,0-.19-0.29,0.37,0.37,0,0,1-.3-0.05c0-.05,0,0,0.1,0a1,1,0,0,0,.52-0.24,0.21,0.21,0,0,0-.11-0.34" transform="translate(-880.77 -778.89)"/>
      <path class="c" d="M917.94,793.2a2.84,2.84,0,0,0,.67-0.87A3.83,3.83,0,0,0,919,791a2,2,0,0,0-.07-0.77c0-.17-0.09-0.29-0.13-0.06s-0.29,1-.41,1.31a4.26,4.26,0,0,1-.44.78l-0.11.15c-0.07.11-.11,0.2-0.11,0.2a0.07,0.07,0,0,0,.06,0,0.1,0.1,0,0,1,.1-0.06,0.53,0.53,0,0,1,.09.2,3.65,3.65,0,0,0,.28-0.4,6.44,6.44,0,0,0,.3-0.63,2.61,2.61,0,0,1-.28.69c-0.18.28-.28,0.4-0.28,0.4a0.66,0.66,0,0,1,0,.21c0,0.09-.07.23-0.07,0.23" transform="translate(-880.77 -778.89)"/>
      <path class="c" d="M919.41,791.48s-0.21.43-.4,0.75a5.36,5.36,0,0,1-.86,1c-0.18.14-.2,0.15-0.17,0.19a0.23,0.23,0,0,1,.05.14v0.06a6.63,6.63,0,0,0,.5-0.46c0.17-.19.34-0.34,0.13-0.08a3,3,0,0,1-.4.43l-0.21.18a2,2,0,0,1,0,.21,0.89,0.89,0,0,1,0,.12l0.25-.18a2.66,2.66,0,0,0,.88-1,2.28,2.28,0,0,0,.29-1.34" transform="translate(-880.77 -778.89)"/>
      <path class="c" d="M917.52,789.17a2.55,2.55,0,0,0-.44-1.43s-0.07.94-.11,1.3-0.2,1.12-.2,1.12a0.18,0.18,0,0,0,0,.13c0,0.11.1,0.21,0.13,0.3a0.62,0.62,0,0,1,0,.15,6.63,6.63,0,0,0,.15-0.68,4.48,4.48,0,0,0,0-.55c0-.11,0-0.23,0,0a4.24,4.24,0,0,1-.06.69c0,0.19-.1.45-0.11,0.51a0.58,0.58,0,0,0,0,.14,0.68,0.68,0,0,0,0,.16,0.83,0.83,0,0,1,0,.25,0.24,0.24,0,0,0,0,.1l0.1-.17c0-.07.1-0.15,0.15-0.26a2.56,2.56,0,0,0,.18-0.76,5.3,5.3,0,0,0,.07-1" transform="translate(-880.77 -778.89)"/>
      <path class="c" d="M918.06,791.45a4.94,4.94,0,0,0,.26-1.93,1.49,1.49,0,0,0-.29-1s0,0.1,0,.37a5.73,5.73,0,0,1-.21,1.25,5.48,5.48,0,0,1-.34.94,2.37,2.37,0,0,1,.06.47,1.29,1.29,0,0,1,0,.35l0.18-.29a3.06,3.06,0,0,0,.27-0.93,0.83,0.83,0,1,1,0,.14,3.57,3.57,0,0,1-.13.55,2.68,2.68,0,0,1-.19.42,0.33,0.33,0,0,1,.16.34s0.16-.38.27-0.68" transform="translate(-880.77 -778.89)"/>
      <path class="c" d="M918.22,797.5a3.7,3.7,0,0,1-.64.06,4.61,4.61,0,0,1-.9-0.11,0.69,0.69,0,0,0-.3-0.05,0.32,0.32,0,0,1-.17.06c-0.08,0-.08,0,0,0a2.15,2.15,0,0,0,.52.22,2.51,2.51,0,0,1,.26,0s0,0-.12,0a2.57,2.57,0,0,1-.53-0.13l-0.25-.09a0.25,0.25,0,0,0,.15.3,2.68,2.68,0,0,0,.94.28,1.34,1.34,0,0,0,1-.38c0.15-.25.1-0.28,0-0.26" transform="translate(-880.77 -778.89)"/>
      <path class="c" d="M918.82,796.5a4.85,4.85,0,0,1-.77.17,4.13,4.13,0,0,1-.87,0,1.9,1.9,0,0,1-.25.14c-0.07,0-.11.05,0,0.09a1.73,1.73,0,0,0,.56.07c0.16,0,.24,0,0,0a1.65,1.65,0,0,1-.53,0l-0.24,0a0.39,0.39,0,0,1,0,.21,0.26,0.26,0,0,0-.05.1,0.87,0.87,0,0,0,.51.11,3.62,3.62,0,0,0,.94-0.12,1.23,1.23,0,0,0,.67-0.45,0.45,0.45,0,0,0,.12-0.27s0,0-.08,0" transform="translate(-880.77 -778.89)"/>
      <path class="c" d="M919.36,795.28a5.4,5.4,0,0,1-1.62.64,0.54,0.54,0,0,0-.29.07,0.58,0.58,0,0,1-.23.09l-0.17,0,0.14,0a0.88,0.88,0,0,0,.31,0,6.73,6.73,0,0,0,.71-0.11,0.26,0.26,0,0,1,.16,0,0.57,0.57,0,0,1-.28.11,3,3,0,0,1-.46.09,2.81,2.81,0,0,0-.37.06,0.14,0.14,0,0,1,0,.13,0.38,0.38,0,0,1,0,.1,3.22,3.22,0,0,0,1.1-.16,1.52,1.52,0,0,0,.83-0.54,0.77,0.77,0,0,0,.22-0.43c0-.09,0-0.13-0.05-0.07" transform="translate(-880.77 -778.89)"/>
      <path class="c" d="M919.61,794.15l-0.37.27a2.21,2.21,0,0,1-.23.16,3.45,3.45,0,0,1-.72.3,4.08,4.08,0,0,1-.43.11,0.85,0.85,0,0,1-.17.19c-0.07,0-.2.11-0.05,0.07a4,4,0,0,0,.65-0.16c0.23-.09.34-0.17,0.35-0.15a0.56,0.56,0,0,1-.32.18,4.83,4.83,0,0,1-.62.17l-0.21.05s-0.1,0,0,0,0.16,0,.19.09,0,0.17,0,.2a2.91,2.91,0,0,0,1.11-.46,1.9,1.9,0,0,0,.65-0.59,1.44,1.44,0,0,0,.22-0.44s0-.1-0.05,0" transform="translate(-880.77 -778.89)"/>
      <path class="c" d="M917.89,794.45a0.19,0.19,0,0,1,0,.1l0.46-.28,0.41-.26s0.12,0,0,.05-0.33.23-.51,0.34l-0.34.2a1.25,1.25,0,0,1,0,.16s0,0.08,0,0a3,3,0,0,0,.91-0.5,2,2,0,0,0,.7-1,0.7,0.7,0,0,0,0-.29s0-.05-0.05,0-0.46.5-.68,0.69a4,4,0,0,1-.69.49,1.54,1.54,0,0,0-.34.17l-0.08.09a0.2,0.2,0,0,1,.13,0" transform="translate(-880.77 -778.89)"/>
      <path class="c" d="M916,797.92a1,1,0,0,1-.26.06h-0.18a2.28,2.28,0,0,0,.41.3,1.23,1.23,0,0,1,.21.1c0.05,0,.07.06,0,0l-0.22-.09a1.35,1.35,0,0,1-.26-0.15l-0.1-.07a0.3,0.3,0,0,1-.07.26l-0.14.09a3.13,3.13,0,0,0,.83.32,1.39,1.39,0,0,0,.93,0,0.45,0.45,0,0,0,.27-0.31,3.56,3.56,0,0,1-.85-0.25,2.48,2.48,0,0,1-.57-0.3" transform="translate(-880.77 -778.89)"/>
      <path class="c" d="M915,798.54l-0.07,0a2.59,2.59,0,0,0,.46.38c0.19,0.1.12,0.11-.08,0a1.37,1.37,0,0,1-.36-0.28l-0.09-.08a0.42,0.42,0,0,0-.07.33,0.82,0.82,0,0,0,.89.51,1.07,1.07,0,0,0,.86-0.26,2,2,0,0,1-.82-0.32,1.31,1.31,0,0,0-.71-0.33" transform="translate(-880.77 -778.89)"/>
      <path class="c" d="M914.84,799.26a1.47,1.47,0,0,1-.17-0.21c0-.06,0-0.07-0.13-0.06h-0.25s-0.1,0,0,.07a1.29,1.29,0,0,0,.28.27,0.71,0.71,0,0,1,.21.13,0.51,0.51,0,0,1-.29-0.11,1.55,1.55,0,0,1-.27-0.29,0.39,0.39,0,0,1-.06-0.09,1.24,1.24,0,0,1-.34-0.1,0.74,0.74,0,0,1-.16-0.16,1,1,0,0,0,.31.66,1.8,1.8,0,0,0,.38.32,0.88,0.88,0,0,0,.55.12,0.5,0.5,0,0,0,.31-0.08s0.05,0,0-.11l-0.32-.37" transform="translate(-880.77 -778.89)"/>
      <path class="c" d="M913.53,798.95a1.88,1.88,0,0,1-.11.34l0.06,0.1a1.47,1.47,0,0,1,.09.22l-0.11-.13a0.34,0.34,0,0,0-.09-0.09l-0.09.15a0.47,0.47,0,0,0,.25.36,0.43,0.43,0,0,0,.43,0c0.08-.06,0-0.14-0.19-0.37a2.84,2.84,0,0,1-.25-0.58" transform="translate(-880.77 -778.89)"/>
      <path class="c" d="M913.5,790.14a0.12,0.12,0,1,1-.13.12,0.12,0.12,0,0,1,.13-0.12" transform="translate(-880.77 -778.89)"/>
      <path class="c" d="M911.95,790.19a1,1,0,0,0,.2.09,1,1,0,0,0,.7-0.06,0.94,0.94,0,0,1,.92-0.19,0.09,0.09,0,0,0,.08,0,0.24,0.24,0,0,0-.17-0.27,0.94,0.94,0,0,0-.68,0,1.42,1.42,0,0,0-.47.23,0.56,0.56,0,0,1-.23.15,0.2,0.2,0,0,1,.1-0.12l0.06-.06a1.18,1.18,0,0,1-.76-0.23,0.49,0.49,0,0,0,.23.51" transform="translate(-880.77 -778.89)"/>
      <path class="c" d="M914.57,790a0.67,0.67,0,0,0-.55,0,1.8,1.8,0,0,0-.31.14,0.28,0.28,0,0,1-.1.27,0.19,0.19,0,0,1-.29,0,0.83,0.83,0,0,1,0-.13,1.7,1.7,0,0,1-.48.16,1.32,1.32,0,0,1-.63,0s-0.17.16-.29,0.26a3.11,3.11,0,0,1-.25.18,0.11,0.11,0,0,0,.07.06c0.06,0,.08,0,0,0.09a3.07,3.07,0,0,1-.45.41,1.65,1.65,0,0,1-.3.16,0.35,0.35,0,0,0,.14.14,0.09,0.09,0,0,1,.06.15,5,5,0,0,1-.45.5,0.53,0.53,0,0,1-.27.14c-0.05,0-.15.07,0,0.19a0.63,0.63,0,0,0,.62.09,1.31,1.31,0,0,0,.5-0.37s-0.05.43-.05,0.63a2.41,2.41,0,0,0,.06.55,0.79,0.79,0,0,0,.07.18,0.8,0.8,0,0,0,.29-0.4,1.7,1.7,0,0,0,.15-0.56c0-.09,0-0.14.08-0.09l0.17,0.08h0a2.12,2.12,0,0,1,0-.38,1.37,1.37,0,0,1,.12-0.58c0.07-.06.08,0,0.09,0.06a0.29,0.29,0,0,0,.19.22,1,1,0,0,1,.29-0.64,0.13,0.13,0,0,1,.18,0,0.86,0.86,0,0,0,.6,0,0.37,0.37,0,0,0,.27-0.28,0.84,0.84,0,0,1-.49.06c-0.21-.07-0.31-0.14-0.19-0.27a4.75,4.75,0,0,1,.42-0.35,0.85,0.85,0,0,1,.66-0.27,0.34,0.34,0,0,1,.28.19s0.11,0.1.11-.08a0.55,0.55,0,0,0-.26-0.49" transform="translate(-880.77 -778.89)"/>
      <path class="c" d="M912.26,793.52a2.45,2.45,0,0,1-.12-0.23,0.9,0.9,0,0,1-.05.16,1.48,1.48,0,0,1-.17.3l0.21-.06a0.6,0.6,0,0,0,.19-0.1,0.2,0.2,0,0,1-.06-0.07" transform="translate(-880.77 -778.89)"/>
      <path class="c" d="M911.39,792.86a1.07,1.07,0,0,1-.23.33,0.35,0.35,0,0,1-.27.14l0.13-.09a1.12,1.12,0,0,0,.24-0.32,1.08,1.08,0,0,1-.58.12l-0.06.15a2,2,0,0,1-.21.35c-0.06.08,0,.09,0,0.09a1.58,1.58,0,0,0,.4.13,1.8,1.8,0,0,0,.71,0s0,0-.08-0.29a2.57,2.57,0,0,1,0-.67" transform="translate(-880.77 -778.89)"/>
      <path class="c" d="M906.92,790.14a0.12,0.12,0,1,1-.13.12,0.12,0.12,0,0,1,.13-0.12" transform="translate(-880.77 -778.89)"/>
      <path class="c" d="M906.65,790a1.92,1.92,0,0,1,.31,0,1.89,1.89,0,0,1,.61.24,1,1,0,0,0,.71.06,0.93,0.93,0,0,0,.21-0.1,0.49,0.49,0,0,0,.23-0.51,1.19,1.19,0,0,1-.76.23L908,790a0.19,0.19,0,0,1,.1.12,0.58,0.58,0,0,1-.23-0.15,1.4,1.4,0,0,0-.47-0.23,0.94,0.94,0,0,0-.68,0,0.24,0.24,0,0,0-.17.27,0.08,0.08,0,0,0,.08,0" transform="translate(-880.77 -778.89)"/>
      <path class="c" d="M910,792.51a0.55,0.55,0,0,1-.27-0.14,5.24,5.24,0,0,1-.45-0.5,0.1,0.1,0,0,1,.06-0.15,0.35,0.35,0,0,0,.14-0.14,1.54,1.54,0,0,1-.3-0.16,3.08,3.08,0,0,1-.45-0.41c0-.06,0-0.07,0-0.09a0.11,0.11,0,0,0,.07-0.06,2.89,2.89,0,0,1-.25-0.18c-0.12-.1-0.29-0.26-0.29-0.26a1.3,1.3,0,0,1-.63,0,1.67,1.67,0,0,1-.48-0.16,0.83,0.83,0,0,1,0,.13,0.19,0.19,0,0,1-.29,0,0.28,0.28,0,0,1-.1-0.27,1.81,1.81,0,0,0-.31-0.14,0.68,0.68,0,0,0-.56,0,0.56,0.56,0,0,0-.26.49c0,0.18.09,0.1,0.12,0.08a0.33,0.33,0,0,1,.27-0.19,0.84,0.84,0,0,1,.66.27,4.41,4.41,0,0,1,.42.35c0.12,0.13,0,.2-0.19.27a0.85,0.85,0,0,1-.49-0.06,0.38,0.38,0,0,0,.27.28,0.86,0.86,0,0,0,.6,0,0.12,0.12,0,0,1,.18,0,1,1,0,0,1,.29.64,0.29,0.29,0,0,0,.19-0.22s0-.13.09-0.06a1.34,1.34,0,0,1,.12.58,2,2,0,0,1-.05.38h0.05l0.17-.08c0.08,0,.08,0,0.08.09a1.7,1.7,0,0,0,.15.56,0.25,0.25,0,1,0,.36.22,2.31,2.31,0,0,0,.06-0.55c0-.2-0.05-0.64-0.05-0.64a1.29,1.29,0,0,0,.5.38,0.63,0.63,0,0,0,.62-0.09c0.11-.12,0-0.18,0-0.19" transform="translate(-880.77 -778.89)"/>
      <path class="c" d="M908.28,793.29a2.45,2.45,0,0,1-.12.23,0.22,0.22,0,0,1-.06.07,0.61,0.61,0,0,0,.19.1l0.21,0.06a1.59,1.59,0,0,1-.17-0.3,1.18,1.18,0,0,1-.05-0.16" transform="translate(-880.77 -778.89)"/>
      <path class="c" d="M909.81,793.19l-0.06-.15a1.07,1.07,0,0,1-.58-0.12,1.12,1.12,0,0,0,.24.32l0.13,0.09a0.35,0.35,0,0,1-.28-0.14,1.07,1.07,0,0,1-.23-0.33,2.64,2.64,0,0,1,0,.67c-0.06.26-.08,0.29-0.08,0.29a1.77,1.77,0,0,0,.71,0,1.47,1.47,0,0,0,.4-0.14s0,0,0-.09a1.87,1.87,0,0,1-.21-0.35" transform="translate(-880.77 -778.89)"/>
      <path class="c" d="M908.51,802.5a0.34,0.34,0,0,0,.3-0.12,2.55,2.55,0,0,0,.15-0.3l0.09-.13a1.18,1.18,0,0,1-.08.3,1.1,1.1,0,0,0-.06.49c0,0.19.16,0.22,0.23,0.2a0.57,0.57,0,0,0,.22-0.23s0-.1.07-0.14a1.26,1.26,0,0,1,.12-0.24s0,0.12,0,.19a3,3,0,0,0-.12.49c0,0.13,0,.37.14,0.38s0.2-.11.27-0.37a0.72,0.72,0,0,1,.12-0.35,0.55,0.55,0,0,1,0,.26,1.19,1.19,0,0,0,0,.18,0.91,0.91,0,0,0,.1.35,0.15,0.15,0,0,0,.12,0,0.15,0.15,0,0,0,.12,0,1.51,1.51,0,0,0,.12-0.53,0.59,0.59,0,0,1,0-.26,0.7,0.7,0,0,1,.12.35c0.07,0.27.14,0.38,0.27,0.37s0.15-.25.14-0.38a3.46,3.46,0,0,0-.12-0.49c0-.15,0-0.14.12,0.05a1.71,1.71,0,0,0,.09.18,0.46,0.46,0,0,0,.19.2c0.07,0,.2,0,0.23-0.2a3,3,0,0,0-.12-0.75l0.06,0.09a2.58,2.58,0,0,0,.15.3,0.33,0.33,0,0,0,.3.12c0.08,0,.09-0.17,0-0.43a1.66,1.66,0,0,0-.46-0.62,2.27,2.27,0,0,1-.29-0.58,2,2,0,0,0-.56.4c-0.35.36-.42,0.45-0.42,0.45l-0.42-.45a2,2,0,0,0-.56-0.4,3,3,0,0,1-.32.56c-0.08.1-.18,0.17-0.26,0.26a0.86,0.86,0,0,0-.17.38c-0.06.26,0,.41,0,0.43" transform="translate(-880.77 -778.89)"/>
      <path class="c" d="M908.5,803.39l0.15-.14s0.07-.06.05,0.06a1.77,1.77,0,0,0,0,.46c0,0.11,0,.19.17,0.12a0.81,0.81,0,0,0,.22-0.19c0.06-.06.13-0.09,0.11,0a1.49,1.49,0,0,0,0,.46c0,0.21.12,0.24,0.25,0.06a2.2,2.2,0,0,0,.25-0.42c0-.09.12-0.16,0.12,0a0.6,0.6,0,1,0,.91,0c0-.16.08-0.09,0.12,0a2.31,2.31,0,0,0,.25.42c0.13,0.17.23,0.14,0.26-.06a1.56,1.56,0,0,0,0-.46c0-.1,0-0.07.11,0a0.8,0.8,0,0,0,.22.19c0.13,0.08.14,0,.17-0.12a1.61,1.61,0,0,0,0-.46c0-.12.06-0.06,0.06-0.06l0.15,0.14a0.43,0.43,0,0,0,.24.09,0.91,0.91,0,0,0-.08-0.57l-0.21-.29a0.64,0.64,0,0,1-.15,0,0.62,0.62,0,0,1-.13-0.07v0.2l0.23,0.23c0,0.05.13,0.14,0,.05l-0.23-.17a0.54,0.54,0,0,1-.08.22,0.18,0.18,0,0,1-.16,0h0v0.07a1.7,1.7,0,0,1,.13.3c0,0.09,0,.08-0.06,0s-0.15-.25-0.2-0.33-0.11-.13-0.11,0a0.86,0.86,0,0,1-.07.34,0.38,0.38,0,0,1-.05.09s0.07,0.25.08,0.29,0,0.1,0,0-0.15-.3-0.15-0.3a0.42,0.42,0,0,1-.19,0,1.09,1.09,0,0,1-.11-0.21,1.26,1.26,0,0,1-.11.28,0.66,0.66,0,0,1-.17.13s0,0.37,0,.43,0,0.09,0,.09,0,0,0-.09,0-.43,0-0.43a0.66,0.66,0,0,1-.17-0.13,1.36,1.36,0,0,1-.11-0.28,1,1,0,0,1-.11.21,0.42,0.42,0,0,1-.19,0s-0.11.24-.15,0.3,0,0,0,0,0.08-.29.08-0.29l-0.05-.09a0.87,0.87,0,0,1-.07-0.34c0-.1-0.06,0-0.11,0a3.68,3.68,0,0,0-.2.33c-0.05.11-.08,0.12-0.06,0a1.58,1.58,0,0,1,.13-0.3v-0.07h0a0.18,0.18,0,0,1-.16,0,0.52,0.52,0,0,1-.08-0.22l-0.23.17c-0.13.09,0,0,0-.05l0.22-.23v-0.2a0.46,0.46,0,0,1-.28.1l-0.21.29a0.89,0.89,0,0,0-.08.57,0.43,0.43,0,0,0,.24-0.09" transform="translate(-880.77 -778.89)"/>
      <path class="c" d="M908.09,804.61l0.37-.26a0.86,0.86,0,0,0,.28-0.29h-0.07a0.1,0.1,0,0,1-.07-0.11,2.09,2.09,0,0,1,0-.3,0.57,0.57,0,0,0,0-.23,1.21,1.21,0,0,1-.22.15,0.21,0.21,0,0,1-.19,0l0-.13s-0.06.12-.14,0.26a1.83,1.83,0,0,1-.46.42,2,2,0,0,1-.46.29c-0.13,0-.05.11-0.05,0.11a0.91,0.91,0,0,0,.46.19,0.7,0.7,0,0,0,.59-0.13" transform="translate(-880.77 -778.89)"/>
      <path class="c" d="M909.26,804.48a0.2,0.2,0,0,1-.21-0.19,3.22,3.22,0,0,1,0-.41L909,804a0.27,0.27,0,0,1-.15.07,0.63,0.63,0,0,1-.06.12,0.67,0.67,0,0,1-.22.23,3.43,3.43,0,0,0-.33.23,2.1,2.1,0,0,1-.3.22,0.5,0.5,0,0,0-.26.33c0,0.17,0,.22.13,0.21a1.23,1.23,0,0,0,.36-0.05,3.44,3.44,0,0,0,.74-0.44,1.42,1.42,0,0,0,.38-0.42" transform="translate(-880.77 -778.89)"/>
      <path class="c" d="M909.86,804.68a0.77,0.77,0,0,1-.12-0.24l-0.1-.39s0,0.08-.1.23a0.35,0.35,0,0,1-.2.19,0.44,0.44,0,0,1-.11.2,1.45,1.45,0,0,1-.41.34,1.5,1.5,0,0,0-.46.37,0.36,0.36,0,0,0-.07.38c0.05,0.07.12,0,.23-0.06a4.93,4.93,0,0,0,.8-0.31,1.25,1.25,0,0,0,.54-0.71" transform="translate(-880.77 -778.89)"/>
      <path class="c" d="M910,805.58a1.53,1.53,0,0,0,.13-0.57l-0.09-.07a1.45,1.45,0,0,1-.16-0.21s-0.06.14-.14,0.27a1,1,0,0,1-.26.31,2.5,2.5,0,0,0-.44.42,0.69,0.69,0,0,0,0,.54c0.06,0.1.14,0.07,0.22,0l0.26-.23a2.63,2.63,0,0,0,.46-0.46" transform="translate(-880.77 -778.89)"/>
      <path class="c" d="M913.33,804.45a2.06,2.06,0,0,1-.46-0.29,1.83,1.83,0,0,1-.46-0.42c-0.08-.14-0.14-0.26-0.14-0.26l0,0.13a0.2,0.2,0,0,1-.19,0,1.18,1.18,0,0,1-.22-0.15,0.59,0.59,0,0,0,0,.23,2.09,2.09,0,0,1,0,.3,0.11,0.11,0,0,1-.08.11h-0.07a0.84,0.84,0,0,0,.28.29l0.38,0.26a0.7,0.7,0,0,0,.58.13,0.93,0.93,0,0,0,.46-0.19s0.07-.06-0.05-0.11" transform="translate(-880.77 -778.89)"/>
      <path class="c" d="M912.52,804.84a2,2,0,0,1-.3-0.22,3.24,3.24,0,0,0-.34-0.23,0.66,0.66,0,0,1-.22-0.23,0.63,0.63,0,0,1-.06-0.12,0.25,0.25,0,0,1-.15-0.07l-0.08-.09a3.28,3.28,0,0,1,0,.41,0.2,0.2,0,0,1-.21.19,1.42,1.42,0,0,0,.38.42,3.54,3.54,0,0,0,.74.44,1.24,1.24,0,0,0,.36.05c0.13,0,.16,0,0.12-0.21a0.5,0.5,0,0,0-.26-0.33" transform="translate(-880.77 -778.89)"/>
      <path class="c" d="M911.6,805a1.45,1.45,0,0,1-.41-0.34,0.44,0.44,0,0,1-.11-0.2,0.35,0.35,0,0,1-.2-0.19c-0.07-.15-0.1-0.23-0.1-0.23l-0.1.39a0.75,0.75,0,0,1-.12.24,1.26,1.26,0,0,0,.54.71,5,5,0,0,0,.8.31c0.1,0.05.18,0.13,0.23,0.06a0.36,0.36,0,0,0-.07-0.38,1.5,1.5,0,0,0-.46-0.37" transform="translate(-880.77 -778.89)"/>
      <path class="c" d="M910.92,805.32a1.06,1.06,0,0,1-.26-0.31l-0.14-.27a1.41,1.41,0,0,1-.16.21l-0.09.07a1.52,1.52,0,0,0,.13.57,2.77,2.77,0,0,0,.46.46l0.26,0.23c0.08,0.08.17,0.12,0.22,0a0.7,0.7,0,0,0,0-.54,2.42,2.42,0,0,0-.44-0.42" transform="translate(-880.77 -778.89)"/>
      <path class="c" d="M910.34,805.78a0.13,0.13,0,1,0-.26,0,3.1,3.1,0,0,1-.32.29,0.47,0.47,0,1,0,.91,0,3.11,3.11,0,0,1-.32-0.29" transform="translate(-880.77 -778.89)"/>
      <path class="f" d="M918.45,802.11a0.29,0.29,0,0,1-.13-0.06,0.08,0.08,0,0,0-.07.05,0.55,0.55,0,0,1-.15.13,0.26,0.26,0,0,0-.18.15,0.11,0.11,0,0,0,.13.14,0.62,0.62,0,0,0,.35-0.15,0.56,0.56,0,0,0,.11-0.19s0-.05-0.06-0.07" transform="translate(-880.77 -778.89)"/>
      <path class="f" d="M918.7,801.22a1.05,1.05,0,0,0-.53-0.71L918,801c0,0.13,0,.12.06,0.15l0.48,0.11c0.06,0,.17.07,0.13-0.09" transform="translate(-880.77 -778.89)"/>
      <path class="f" d="M917.23,801c0.07,0,.06,0,0.09-0.12l0.15-.59a1.46,1.46,0,0,0-.61.13,0.94,0.94,0,0,0-.41.39,1.59,1.59,0,0,0,.27.07l0.5,0.12" transform="translate(-880.77 -778.89)"/>
      <path class="f" d="M916.48,801.66l-0.16,0a1.44,1.44,0,0,0,.19.43,0.57,0.57,0,0,0,.5.24,0.49,0.49,0,0,0,.47-0.24,0.76,0.76,0,0,1,.08-0.19s-0.45-.06-0.63-0.1l-0.45-.1" transform="translate(-880.77 -778.89)"/>
      <path class="e" d="M912.88,796.22a2.05,2.05,0,0,1,.29-1.31l-0.78-.91a57.34,57.34,0,0,0-4.34,0l-0.78.91a2,2,0,0,1,.29,1.31,12.07,12.07,0,0,0-.3,2.25,2.21,2.21,0,0,0,.71,1.24,4.12,4.12,0,0,0,1.16.63,3.33,3.33,0,0,1,.84.48,2.91,2.91,0,0,1,.26.23,2.81,2.81,0,0,1,.27-0.23,3.35,3.35,0,0,1,.84-0.48,4.09,4.09,0,0,0,1.16-.62,2.21,2.21,0,0,0,.71-1.24,11.9,11.9,0,0,0-.3-2.25" transform="translate(-880.77 -778.89)"/>
      <path class="e" d="M911.28,792.28a1.44,1.44,0,0,1-.39.26v0a0.76,0.76,0,0,0,.22-0.08,1.21,1.21,0,0,0,.31-0.26,0.08,0.08,0,0,0,0-.1,0.85,0.85,0,0,1-.12.16" transform="translate(-880.77 -778.89)"/>
      <path class="e" d="M911.77,792.55c0,0.08,0,.6,0,0.6a0.39,0.39,0,0,1-.05.2s0.06,0,.07-0.07l0.11-.76-0.06,0s0,0,0,.06" transform="translate(-880.77 -778.89)"/>
      <path class="e" d="M912.64,791.23a1.13,1.13,0,0,0-.23.16,0.59,0.59,0,0,1-.17.08c-0.06,0,0-.1,0-0.21a1.22,1.22,0,0,1,.25-0.34c0.09-.1,0-0.07,0,0a2.09,2.09,0,0,0-.26.34,2.24,2.24,0,0,0-.18.61l0.14-.09,0.28-.19a1.77,1.77,0,0,0,.28-0.25c0.07-.08,0-0.09-0.07-0.08" transform="translate(-880.77 -778.89)"/>
      <path class="e" d="M909.14,792.28a0.84,0.84,0,0,1-.13-0.16,0.08,0.08,0,0,0,0,.1,1.21,1.21,0,0,0,.31.26,0.76,0.76,0,0,0,.22.08v0a1.41,1.41,0,0,1-.39-0.26" transform="translate(-880.77 -778.89)"/>
      <path class="e" d="M908.68,793.15s0-.52,0-0.6,0-.06,0-0.06l-0.06,0,0.11,0.76c0,0.08.05,0.07,0.07,0.07a0.37,0.37,0,0,1-.05-0.2" transform="translate(-880.77 -778.89)"/>
      <path class="e" d="M908,790.89s-0.14-.07,0,0a1.22,1.22,0,0,1,.25.34c0,0.11.06,0.24,0,.21a0.59,0.59,0,0,1-.17-0.08,1.17,1.17,0,0,0-.23-0.16c-0.05,0-.14,0-0.07.08a1.85,1.85,0,0,0,.28.25l0.28,0.19,0.14,0.09a2.17,2.17,0,0,0-.18-0.61,2.08,2.08,0,0,0-.26-0.34" transform="translate(-880.77 -778.89)"/>
      <path class="e" d="M910.21,803a0.1,0.1,0,0,0,0-.09c0-.06,0-0.2,0-0.29s0-.08,0-0.07a0.14,0.14,0,0,0,0,.11s0,0.25,0,.29,0,0,0,.05" transform="translate(-880.77 -778.89)"/>
      <path class="e" d="M911.72,802.19c0.06,0.12.07,0.11,0,0a1.06,1.06,0,0,0-.12-0.29,1.44,1.44,0,0,0-.2-0.22,1.06,1.06,0,0,0,.09.16,3,3,0,0,1,.18.34" transform="translate(-880.77 -778.89)"/>
      <path class="e" d="M911.15,802.29a1.08,1.08,0,0,0,.16.29,1.75,1.75,0,0,0-.09-0.33,0.48,0.48,0,0,0-.12-0.23,0.19,0.19,0,0,0,0,.08s0,0.1,0,.18" transform="translate(-880.77 -778.89)"/>
      <path class="e" d="M910.69,802.66a0.24,0.24,0,0,0,.07.12,0.66,0.66,0,0,0,0-.16,0.65,0.65,0,0,0-.05-0.19c0-.08-0.05,0-0.05,0a1.54,1.54,0,0,0,0,.18l0,0.06" transform="translate(-880.77 -778.89)"/>
      <path class="e" d="M908.71,802.19a2.5,2.5,0,0,1,.18-0.34,1.15,1.15,0,0,0,.09-0.16,1.44,1.44,0,0,0-.2.22,1.06,1.06,0,0,0-.12.29c0,0.1,0,.12,0,0" transform="translate(-880.77 -778.89)"/>
      <path class="e" d="M909.28,802.29l0-.13a0.16,0.16,0,0,0,0-.08,0.27,0.27,0,0,0-.11.18,1.75,1.75,0,0,0-.09.33,1.08,1.08,0,0,0,.16-0.29" transform="translate(-880.77 -778.89)"/>
      <path class="e" d="M909.73,802.66l0-.06a1.49,1.49,0,0,0,0-.18s0-.07-0.05,0a0.73,0.73,0,0,0-.05.19,0.65,0.65,0,0,0,0,.16,0.25,0.25,0,0,0,.07-0.12" transform="translate(-880.77 -778.89)"/>
      <path class="e" d="M908.33,804l-0.06,0-0.09.1a1.4,1.4,0,0,0-.15.13,0.58,0.58,0,0,1-.19.16c-0.09,0-.13.06-0.11,0.08a0.12,0.12,0,0,0,.08,0,0.46,0.46,0,0,0,.14-0.07,1.07,1.07,0,0,0,.21-0.17,2.19,2.19,0,0,0,.17-0.18" transform="translate(-880.77 -778.89)"/>
      <path class="e" d="M908.82,804.61s0.09-.08.06-0.1a0.06,0.06,0,0,0-.09,0l-0.2.19-0.14.11-0.22.13c-0.05,0,0,0,0,0l0.09,0,0.17-.07,0.12-.07a1.64,1.64,0,0,0,.21-0.19" transform="translate(-880.77 -778.89)"/>
      <path class="e" d="M909.38,805c0-.07,0-0.05-0.06,0a3.27,3.27,0,0,0-.27.23,1.85,1.85,0,0,1-.21.11c-0.07,0-.07.05-0.06,0.06s0,0,.06,0l0.12-.07,0.07,0a0.42,0.42,0,0,0,.17-0.11,0.69,0.69,0,0,0,.19-0.18" transform="translate(-880.77 -778.89)"/>
      <path class="e" d="M909.64,805.52a1.05,1.05,0,0,0-.32.29,0.3,0.3,0,0,0-.06.17,0.09,0.09,0,0,0,.08-0.05l0.07-.09a2.56,2.56,0,0,1,.23-0.21,0.6,0.6,0,0,0,.19-0.22,0.14,0.14,0,0,0,0-.1,0.9,0.9,0,0,1-.2.21" transform="translate(-880.77 -778.89)"/>
      <path class="e" d="M912.59,804.39a0.56,0.56,0,0,1-.2-0.16,1.41,1.41,0,0,0-.15-0.13l-0.09-.1-0.06,0a2,2,0,0,0,.17.18,1.13,1.13,0,0,0,.21.17,0.49,0.49,0,0,0,.14.07,0.12,0.12,0,0,0,.08,0s0,0-.11-0.08" transform="translate(-880.77 -778.89)"/>
      <path class="e" d="M912.2,804.95l-0.22-.13-0.14-.11-0.2-.19s-0.07,0-.09,0,0,0.05.06,0.1a1.81,1.81,0,0,0,.21.19l0.12,0.07,0.18,0.07,0.09,0s0.05,0,0,0" transform="translate(-880.77 -778.89)"/>
      <path class="e" d="M911.6,805.31a2,2,0,0,1-.21-0.11,3,3,0,0,0-.27-0.23c-0.06,0-.1,0-0.06,0a0.72,0.72,0,0,0,.19.18,0.4,0.4,0,0,0,.17.11l0.07,0,0.12,0.07s0.06,0,.06,0,0,0-.06-0.07" transform="translate(-880.77 -778.89)"/>
      <path class="e" d="M910.79,805.52a0.9,0.9,0,0,1-.2-0.21,0.13,0.13,0,0,0,0,.1,0.59,0.59,0,0,0,.19.22,2.55,2.55,0,0,1,.23.21l0.07,0.09a0.09,0.09,0,0,0,.08.05,0.31,0.31,0,0,0-.06-0.17,1.07,1.07,0,0,0-.32-0.29" transform="translate(-880.77 -778.89)"/>
      <path class="e" d="M910.17,806.15a0.13,0.13,0,1,0,.09,0c0-.07,0-0.24,0-0.24h-0.11s0,0.17,0,.24" transform="translate(-880.77 -778.89)"/>
      <path class="f" d="M912.8,796.3a2.34,2.34,0,0,1,.23-1.36l-0.71-.79a47.56,47.56,0,0,0-4.22,0l-0.71.79a2.32,2.32,0,0,1,.23,1.36,12.86,12.86,0,0,0-.25,2.1s0,0.07,0,.1H908a0.32,0.32,0,0,1,.11-0.07l0.09-.05a0.2,0.2,0,0,1,.09-0.16,0.37,0.37,0,0,1,.14,0,0.12,0.12,0,0,0,.09,0,0.68,0.68,0,0,0,.18-0.26,0.8,0.8,0,0,0,.07-0.27,1.3,1.3,0,0,1,0-.22,0.06,0.06,0,0,0-.08,0c-0.06,0-.08,0-0.08-0.11a0.52,0.52,0,0,1,0-.26l0.05-.08,0-.1a0.4,0.4,0,0,1-.48-0.24c-0.07-.32-0.09-0.47-0.1-0.5s0-.05-0.08,0a0.3,0.3,0,0,1-.25-0.2,0.36,0.36,0,0,1-.06-0.3c0-.06.07,0,0.08,0s0.12,0.18.17,0.13,0,0,0-.17a0.3,0.3,0,0,1,0-.22,1,1,0,0,0,0-.18,0.05,0.05,0,0,1,.08,0,0.24,0.24,0,0,1,.09.07s0,0.05.06,0a0.28,0.28,0,0,0,0-.17s0-.06.1,0a0.16,0.16,0,0,1,.08.13s0,0.08,0,.08a0.13,0.13,0,0,0,0-.1s0-.1.06-0.05a0.26,0.26,0,0,1,0,.2,1.11,1.11,0,0,1,0,.17,1.33,1.33,0,0,0,0,.3,0.7,0.7,0,0,0,.06.29,0.36,0.36,0,0,0,.19.28h0.12A0.86,0.86,0,0,1,909,796a0.78,0.78,0,0,1,.28-0.07c0.08,0,.12,0,0.12-0.05s0,0-.12,0a0.17,0.17,0,0,1-.18-0.11c0-.08,0-0.14,0-0.14a0.39,0.39,0,0,1-.28-0.16,0.22,0.22,0,0,1,0-.19c0-.06.08-0.18,0.13-0.07a0.24,0.24,0,0,0,.12.15s0.1,0,.07,0a0.37,0.37,0,0,1,0-.18,0.11,0.11,0,0,1,.09-0.09l0.25-.06,0.07,0a0.11,0.11,0,0,1,.1-0.07,0.59,0.59,0,0,1,.21,0,0.36,0.36,0,0,0,.2,0,0.42,0.42,0,0,1,.21,0,0.27,0.27,0,0,1,.14.05,0.09,0.09,0,0,1,0,.1s0,0.06.06,0.06a0.41,0.41,0,0,1,.16,0c0.06,0,.13.05,0.08,0.11a0.27,0.27,0,0,1-.08.12s0,0,0,.05,0,0,0,.06a0.58,0.58,0,0,1,.09.09s0.12,0.09,0,.16a0.8,0.8,0,0,1-.2.13s-0.07,0,0,.08a0.91,0.91,0,0,1,.15.16l0.08,0.05a0.12,0.12,0,0,1,0,.08l-0.11.05a0.55,0.55,0,0,1-.18.05c-0.06,0-.09,0-0.07.05s0.07,0.11.08,0.14l0,0.09,0.18,0a1.91,1.91,0,0,0,.31,0,1.53,1.53,0,0,1,.42,0,1.61,1.61,0,0,1,.26,0l0.09,0a2.58,2.58,0,0,0,.39,0c0.14,0,.17-0.12.15-0.17s0-.12-0.26-0.15-0.34,0-.54-0.06a0.64,0.64,0,0,1-.55-0.38,0.34,0.34,0,0,1,.24-0.39l0.41-.16a1,1,0,0,1,.47-0.05,0.76,0.76,0,0,0,.37,0c0.08,0,.14,0,0.12.06a0.4,0.4,0,0,1-.3.27,1.3,1.3,0,0,1-.61,0,0.64,0.64,0,0,0-.33-0.06,0.17,0.17,0,0,0-.09.26,1.45,1.45,0,0,0,.69.18,1,1,0,0,1,.72.21,0.39,0.39,0,0,1-.13.55,2,2,0,0,1-.41.11l-0.12,0a0.7,0.7,0,0,1,.05.17,0.21,0.21,0,0,0,.05.18,0.35,0.35,0,0,0,.24.05,0.2,0.2,0,0,1,.22.15c0,0.09,0,.21,0,0.39a2.94,2.94,0,0,1,0,.32,0.66,0.66,0,0,1,0,.13c0,0.07-.15.32-0.15,0.32H913v-0.1a13.15,13.15,0,0,0-.26-2.1" transform="translate(-880.77 -778.89)"/>
      <path class="g" d="M907.46,798.84a2,2,0,0,0,.83,1c0.59,0.35.84,0.31,1.39,0.67a0.54,0.54,0,0,0,1.05,0c0.55-.36.8-0.31,1.39-0.67a2,2,0,0,0,.83-1h-5.5Z" transform="translate(-880.77 -778.89)"/>
      <path class="c" d="M907.94,795.88a0.21,0.21,0,0,0,.21.08,0.13,0.13,0,0,1,.14.13,1.67,1.67,0,0,0,.09.42,0.37,0.37,0,0,0,.3.18,1.1,1.1,0,0,1,.07-0.28s0-.09,0-0.09-0.08,0-.13-0.11a1.55,1.55,0,0,1-.17-0.43,1.15,1.15,0,0,1,0-.41,0.12,0.12,0,0,0,0-.14,0.17,0.17,0,0,0-.08,0,0.08,0.08,0,0,1,0,.07s0,0-.06-0.08a0.05,0.05,0,0,0-.07,0s0,0,0,.07a0.14,0.14,0,0,1,0,.09l-0.1-.07a0.09,0.09,0,0,0-.11.05,0.28,0.28,0,0,0,.09.2,0.21,0.21,0,0,1,0,.21,0.1,0.1,0,0,1-.13,0,0.06,0.06,0,0,0-.09,0s-0.05,0,0,.11" transform="translate(-880.77 -778.89)"/>
      <path class="c" d="M907.91,795.7l0,0,0-.05a0.2,0.2,0,0,0,0,.06,0.15,0.15,0,0,0,0,.08Z" transform="translate(-880.77 -778.89)"/>
      <path class="c" d="M908,795.25s0.05,0,0-.05a0.19,0.19,0,0,0-.07-0.08h0a0.72,0.72,0,0,1,0,.1s0,0,0,0" transform="translate(-880.77 -778.89)"/>
      <path class="c" d="M908.22,795.11s0,0,0,0a0.06,0.06,0,0,0,0-.08,0.17,0.17,0,0,0,0,0h0a0.78,0.78,0,0,1,0,.11" transform="translate(-880.77 -778.89)"/>
      <path class="c" d="M908.47,795.15a0.17,0.17,0,0,0,0-.07,0.12,0.12,0,0,1,0,.06s0,0,0,0,0,0,0,0" transform="translate(-880.77 -778.89)"/>
      <path class="c" d="M908.85,796.83c0,0.11.17-.06,0.29-0.21s0.11,0,.09.08a0.53,0.53,0,0,0,.08.32c0,0.08.08,0,.1,0a1,1,0,0,1,.07-0.23c0-.05.07,0,0.08,0a0.55,0.55,0,0,0,.12.22c0.06,0.06.08,0,.1-0.1s0-.2.06-0.25,0.07,0,.07,0l0.11,0.11c0.07,0.07.08,0,.09-0.1a0.85,0.85,0,0,1,0-.2,0.36,0.36,0,0,1,.19.08c0.1,0,.09,0,0.08-0.1a0.54,0.54,0,0,0-.15-0.24,0.15,0.15,0,0,1-.06-0.18,0.4,0.4,0,0,1,.18,0l0.13,0a0.05,0.05,0,0,0,0-.05,0.52,0.52,0,0,0-.1-0.11,0.39,0.39,0,0,0-.18-0.12,0.55,0.55,0,0,0-.19,0v0a0,0,0,0,0,0,0l-0.08.08s0,0-.07,0,0,0,0,0a0.32,0.32,0,0,0,.08-0.11,0.18,0.18,0,0,0,0-.18,0.26,0.26,0,0,0-.16,0s-0.07,0-.07,0,0,0,.1,0a0.17,0.17,0,0,0,.11-0.13c0-.06,0,0,0.07,0s0.06,0,.07,0a0.66,0.66,0,0,1,.07-0.13,0.17,0.17,0,0,0,0-.19,0.14,0.14,0,0,0-.18,0,0.2,0.2,0,0,0-.08.15c0,0.08,0,0,0,0a0.21,0.21,0,0,1,0-.1,0.1,0.1,0,0,0,0-.07,0.1,0.1,0,0,0-.09-0.09,0.63,0.63,0,0,0-.25,0,0.07,0.07,0,0,0-.06.09h-0.12l-0.2,0c-0.06,0-.08,0-0.08.05a0.44,0.44,0,0,0,0,.08h0.08s0,0,0,.05a0,0,0,0,0,0,.05,0,0,0,0,0,0,0,0.41,0.41,0,0,1,.17,0,0.13,0.13,0,0,1,.08.14,0.22,0.22,0,0,1-.16.09c-0.05,0-.07,0-0.07,0s0.06,0,.06,0l0.19,0a0.28,0.28,0,0,1,.2.09c0.06,0,0,.06,0,0.08l-0.11.06a0.58,0.58,0,0,1-.1.05,1,1,0,0,0-.3.07,0.47,0.47,0,0,0-.23.29l0.1,0,0.27-.14c0.09-.06.09,0,0,0.11s0,0.06.07,0l0.15-.09c0.09,0,.05,0,0.05,0a0.53,0.53,0,0,0,0,.18c0,0.12.12,0,.18-0.07s0.09,0,0,.09a0.29,0.29,0,0,1-.18.16,0.1,0.1,0,0,1-.09-0.08,0.24,0.24,0,0,0,0-.14,0.22,0.22,0,0,0-.18,0c-0.06,0-.08,0-0.09,0s0,0,0-.07,0,0-.07,0l-0.2.11a0.15,0.15,0,0,0-.11.18,0.46,0.46,0,0,0,.07.21" transform="translate(-880.77 -778.89)"/>
      <path class="c" d="M910,794.95l0.07,0,0.11,0s0,0,0-.06,0,0-.1,0a0.38,0.38,0,0,0-.15,0l-0.08,0,0,0a0.06,0.06,0,0,0,.09,0" transform="translate(-880.77 -778.89)"/>
      <path class="c" d="M910.25,795.21h0.06l0.09,0a0.12,0.12,0,0,0,.09-0.07c0-.05,0-0.05-0.11-0.07a0.09,0.09,0,0,0-.12,0,0.35,0.35,0,0,1,0,.12c0,0.05,0,0,0,0" transform="translate(-880.77 -778.89)"/>
      <path class="c" d="M910.23,795.28a0.44,0.44,0,0,0-.19.13s0,0,0,0a0.45,0.45,0,0,1,0,.09,0.83,0.83,0,0,1,0,.12h0.05a0.19,0.19,0,0,0,.11-0.05,0.28,0.28,0,0,1,.13-0.05,0.43,0.43,0,0,0,.15-0.06c0.07,0,0-.1-0.11-0.15a0.25,0.25,0,0,0-.19-0.07" transform="translate(-880.77 -778.89)"/>
      <path class="c" d="M909.22,795.54a0.08,0.08,0,0,0,.09-0.07s0-.07-0.11-0.06a0.33,0.33,0,0,1-.4-0.23,0.22,0.22,0,0,0,.05.24,0.45,0.45,0,0,0,.37.12" transform="translate(-880.77 -778.89)"/>
      <path class="c" d="M908.59,798.48l0,0h0.29a0.08,0.08,0,0,0,.05-0.09s0-.14.07-0.33a2.07,2.07,0,0,1,.13-0.4,0.16,0.16,0,0,0,0-.15,1.32,1.32,0,0,1-.06-0.18s-0.08,0-.11,0a0.11,0.11,0,0,0,0,.12c0,0.06,0,.22-0.06.37a1,1,0,0,1-.24.38,0.18,0.18,0,0,1-.11.06,0.3,0.3,0,0,0-.13,0,0.16,0.16,0,0,0-.07.12,0.09,0.09,0,0,0,.06.06,0.33,0.33,0,0,0,.07-0.06,0.18,0.18,0,0,1,.11,0s0.05,0,0,0,0,0,0,.09" transform="translate(-880.77 -778.89)"/>
      <path class="c" d="M908.15,798.46a0.09,0.09,0,0,0,0,0h0.19a0.08,0.08,0,0,0,0,0,0.12,0.12,0,0,0-.12,0" transform="translate(-880.77 -778.89)"/>
      <path class="c" d="M908.41,798.46l-0.06.05h0.2a0,0,0,0,0,0-.06,0.1,0.1,0,0,0-.12,0" transform="translate(-880.77 -778.89)"/>
      <path class="c" d="M910.15,798.37a0.16,0.16,0,0,0-.07,0,0.12,0.12,0,0,0,0,.08,0,0,0,0,0,0,0h0.09a0.1,0.1,0,0,1,0-.08s0,0,0,0" transform="translate(-880.77 -778.89)"/>
      <path class="c" d="M910.32,798.47s0-.05,0,0a0.34,0.34,0,0,0-.08.06l0,0h0.13a0.09,0.09,0,0,0,0,0" transform="translate(-880.77 -778.89)"/>
      <path class="c" d="M911.09,797.54a0.09,0.09,0,0,0,.05-0.1,0.07,0.07,0,0,0,0-.08,0.43,0.43,0,0,0-.2-0.06,0.72,0.72,0,0,0-.3.06,0.39,0.39,0,0,0-.09.27c0,0.08,0,.09,0,0.09a0.15,0.15,0,0,0,.06-0.05l0.13,0.18a0.13,0.13,0,0,1,0,.16,0.58,0.58,0,0,1-.16.24,0.28,0.28,0,0,1-.19,0,0.17,0.17,0,0,0-.16.05,0,0,0,0,0,0,.08,0.1,0.1,0,0,1,.09,0,0.15,0.15,0,0,1,0,.12h0.37a0.3,0.3,0,0,0,.13-0.16,0.59,0.59,0,0,1,.14-0.16,0.15,0.15,0,0,0,0-.14,0.34,0.34,0,0,0-.05-0.18,0.33,0.33,0,0,1,0-.18,0.38,0.38,0,0,1,.15-0.14" transform="translate(-880.77 -778.89)"/>
      <path class="c" d="M910.48,796.61c0,0.06,0,.07,0,0.08a0.63,0.63,0,0,1-.19,0c-0.08,0-.08,0-0.08,0a0.38,0.38,0,0,1-.06.2,0.1,0.1,0,0,1-.15,0s-0.06,0-.07,0a0.8,0.8,0,0,1-.08.15c0,0.07-.07.07-0.09,0.07a0.58,0.58,0,0,0-.08-0.05,0.28,0.28,0,0,1-.12-0.13c0-.07-0.06,0-0.09.07a0.11,0.11,0,0,1-.11.09,0.31,0.31,0,0,1-.14-0.17,0.15,0.15,0,0,0-.1-0.12,1.09,1.09,0,0,0-.17.13c-0.05,0-.06,0-0.09,0s-0.05,0-.08.09a0.13,0.13,0,0,0,0,.16,0.27,0.27,0,0,0,.18-0.08,0.19,0.19,0,0,1,.14,0c0.06,0,.05.1,0.08,0.23a0.17,0.17,0,0,0,.11.16s0,0,.09-0.08a0.36,0.36,0,0,1,.13-0.21c0.06,0,.06,0,0.13.1s0.11,0.14.14,0.08a0.79,0.79,0,0,1,.11-0.19s0.08,0,0,0-0.06.13,0,.1,0.41-.16.54-0.18l0.33,0,0.29,0c0.07,0,.07,0,0.08-0.05s0,0-.16,0a1.85,1.85,0,0,0-.31,0c-0.09,0-.13,0-0.12,0a0.2,0.2,0,0,1,.15-0.05l0.43,0c0.11,0,.08,0,0.07.11a1.21,1.21,0,0,0,0,.25,0.32,0.32,0,0,0,.07.19,0.86,0.86,0,0,0,.33.19c0.06,0,.05,0,0-0.06s0-.05.1,0a0.91,0.91,0,0,0,.21.07c0.06,0,.07,0,0.07.06s0,0.1,0,.17a0.15,0.15,0,0,1,0,.13,2.16,2.16,0,0,1-.15.16l-0.17,0a0.18,0.18,0,0,0-.16.13,0.1,0.1,0,0,0,0,.08,0.28,0.28,0,0,1,0,.06h0l0-.06a0.19,0.19,0,0,1,.2,0,0.08,0.08,0,0,1,0,.09h0.26l0.14-.28a0.39,0.39,0,0,0,0-.19,2.83,2.83,0,0,0,0-.44,0.7,0.7,0,0,1,0-.17c0-.09,0-0.16-0.17-0.18a0.39,0.39,0,0,1-.28-0.14,1.16,1.16,0,0,1-.09-0.36,0.35,0.35,0,0,0-.36-0.23,1.69,1.69,0,0,0-.5,0,3.13,3.13,0,0,1-.44,0c-0.1,0-.09,0,0,0.08" transform="translate(-880.77 -778.89)"/>
      <path class="c" d="M911.45,798.47l0,0h0.18a0.07,0.07,0,0,0,0,0,0.09,0.09,0,0,0-.12,0" transform="translate(-880.77 -778.89)"/>
      <path class="c" d="M911.77,798.46l-0.06,0h0.18a0.06,0.06,0,0,0,0,0,0.08,0.08,0,0,0-.12,0" transform="translate(-880.77 -778.89)"/>
      <path class="c" d="M907.39,798.57c0,0.06,0,.11,0,0.17H913a1.31,1.31,0,0,0,0-.17h-5.64Z" transform="translate(-880.77 -778.89)"/>
      <path class="c" d="M911.14,795.92a4.35,4.35,0,0,0,1,.18,0.21,0.21,0,0,1,.16.36,1.06,1.06,0,0,1-.52.13,0.48,0.48,0,0,1,.09.1H912a0.78,0.78,0,0,0,.44-0.15,0.27,0.27,0,0,0,0-.41A0.81,0.81,0,0,0,912,796l-0.57-.07a0.31,0.31,0,0,1-.33-0.26,0.25,0.25,0,0,1,.21-0.22,0.58,0.58,0,0,1,.35,0,1.07,1.07,0,0,0,.51,0,0.34,0.34,0,0,0,.3-0.2,0.44,0.44,0,0,1-.15,0c-0.12,0-.21-0.05-0.44-0.05a0.88,0.88,0,0,0-.41.11,0.69,0.69,0,0,0-.47.25c-0.08.18,0,.27,0.19,0.38" transform="translate(-880.77 -778.89)"/>
      <path class="e" d="M909.68,795a0.1,0.1,0,1,1-.11.1,0.1,0.1,0,0,1,.11-0.1" transform="translate(-880.77 -778.89)"/>
      <path class="e" d="M911.93,795.25a1.31,1.31,0,0,0-.32,0,0.13,0.13,0,0,0,.08,0,1,1,0,0,1,.27,0,0.35,0.35,0,0,0,.23,0l-0.26,0" transform="translate(-880.77 -778.89)"/>
      <path class="c" d="M916.4,801.49l1.11,0.22a0.25,0.25,0,0,0,.16,0,0.25,0.25,0,0,1,.12-0.06,0.12,0.12,0,0,0,.08-0.11,1.1,1.1,0,0,0,0-.15c0-.08.05-0.1,0.14,0a0.61,0.61,0,0,1,.12.36,0.34,0.34,0,0,0,.31.18,0.14,0.14,0,0,0,.17-0.09,1,1,0,0,0,.09-0.33c0-.1,0-0.09-0.1-0.12l-0.66-.15c-0.09,0-.07-0.08-0.05-0.14s0.2-.66.2-0.66a1.33,1.33,0,0,0-.55-0.16s-0.14.62-.16,0.71-0.09.09-.19,0.08l-0.81-.18-0.05.13a1.14,1.14,0,0,0-.08.37c0,0.08,0,.08.14,0.1" transform="translate(-880.77 -778.89)"/>
      <path class="c" d="M918.83,802c-0.1-.06-0.16-0.08-0.21,0a1,1,0,0,1-.18.4,0.68,0.68,0,0,1-.47.23c-0.17,0-.27-0.05-0.23-0.25a1.09,1.09,0,0,1,.37-0.36,0.23,0.23,0,0,0,0-.3,0.28,0.28,0,0,0-.26-0.07,0.57,0.57,0,0,0-.2.26,0.74,0.74,0,0,1-.2.36,0.86,0.86,0,0,1-.64.13,0.46,0.46,0,0,1-.4-0.35,5.94,5.94,0,0,0-.23-0.64,0.14,0.14,0,0,0-.2,0,0.33,0.33,0,0,0-.12.26,0.35,0.35,0,0,0,.1.3,1.19,1.19,0,0,1,.24.36c0,0.12.15,0.31,0,.32a0.35,0.35,0,0,1-.35-0.1c-0.12-.11-0.58-0.43-0.71-0.53l-0.18-.13a1.2,1.2,0,0,1-.64-0.24s0.12,0.32.15,0.44a0.69,0.69,0,0,1,0,.19l0.65,0.33c0.18,0.09.56,0.3,0.74,0.41a0.78,0.78,0,0,0,.65.22c0.32-.06,1-0.26,1.18-0.32a4.61,4.61,0,0,0,1-.35,0.41,0.41,0,0,0,.27-0.29,0.23,0.23,0,0,0-.09-0.29" transform="translate(-880.77 -778.89)"/>
      <path class="c" d="M917.6,799.83l0.16,0c0.11,0,.07.09,0,0.13a1.7,1.7,0,0,1-.1.2c0,0.08,0,.09,0,0.1l0.16,0c0.09,0,.07,0,0.07-0.07s0-.2,0-0.27a0.05,0.05,0,0,1,.09,0l0.12,0.07a0,0,0,0,0,.07,0,1.25,1.25,0,0,0,.05-0.14c0-.07,0-0.05-0.07-0.05H918.1c-0.07,0,0-.07,0-0.07l0.09-.15c0-.06,0-0.07,0-0.09l-0.2,0s-0.05,0-.05,0,0,0.15,0,.19,0,0.08-.07.08a0.19,0.19,0,0,1-.15-0.09c-0.05-.05-0.07,0-0.08,0l-0.05.22s0,0,.05,0" transform="translate(-880.77 -778.89)"/>
      <path class="c" d="M914,801.57c-0.07-.07.11-0.08,0.21-0.08a0.84,0.84,0,0,0,.33-0.09c0.05,0,.15-0.05.26-0.11s0-.07-0.07-0.1-0.43-.16-0.43-0.16l-0.23.13a0.93,0.93,0,0,1-.38.14l-0.25,0a1.32,1.32,0,0,0,.11.15c0.07,0.1.1,0.16,0.18,0.31s0,0.06-.09,0a3.11,3.11,0,0,0-.22-0.26,0.86,0.86,0,0,0-.13-0.11l-0.06.13v0s0,0.24,0,.32,0,0.08.08,0.11a5.64,5.64,0,0,1,.53.31,2.36,2.36,0,0,1,.47.36,1.66,1.66,0,0,0,0-.19,1.43,1.43,0,0,0-.08-0.49,1.2,1.2,0,0,0-.22-0.42" transform="translate(-880.77 -778.89)"/>
      <path class="c" d="M913.24,801.1a0.83,0.83,0,0,0,.22,0c0.11,0,.16,0,0.28,0a0.79,0.79,0,0,0,.38-0.14c0.19-.1,0-0.07-0.12-0.06a2.05,2.05,0,0,1-.62-0.1c-0.15-.06,0-0.06,0-0.05a1.83,1.83,0,0,0,.36.08,1,1,0,0,0,.56-0.05c0.15,0,0-.06,0-0.06a2,2,0,0,1-.8-0.45,1.27,1.27,0,0,1-.3-0.53,2.29,2.29,0,0,1-.35.33,1,1,0,0,0,.06.17,1.12,1.12,0,0,0,.17.23,0.82,0.82,0,0,1-.23-0.14,0.87,0.87,0,0,1-.12-0.18,3.57,3.57,0,0,1-.53.3l0.07,0.06a1.34,1.34,0,0,1,.23.3c0.09,0.15,0,.14-0.08,0a1.13,1.13,0,0,0-.33-0.3h0l-0.06,0-0.32.14a2.1,2.1,0,0,1,.28.29c0.06,0.09.19,0.17,0.23,0.23l0.15,0.2c0.06,0.07.42,0.48,0.52,0.63s0,0,0-.14-0.06-.25-0.09-0.37,0-.07,0,0,0,0.07.06,0.19,0.1,0.31.13,0.44,0,0.07.08,0a1.49,1.49,0,0,0,.1-0.23,1.9,1.9,0,0,0,0-.43,0.64,0.64,0,0,0-.1-0.34s0.05-.06.13,0" transform="translate(-880.77 -778.89)"/>
      <path class="c" d="M914.79,801.57l-0.19.06h-0.09a0.35,0.35,0,0,0,.25.14h0.44a3.2,3.2,0,0,1-.29-0.19,0.1,0.1,0,0,0-.12,0" transform="translate(-880.77 -778.89)"/>
      <path class="c" d="M917.94,801.39a1.28,1.28,0,0,1,0,.17s0,0.11,0,.12a0.27,0.27,0,0,0,.13,0s0-.07,0-0.12a0.47,0.47,0,0,0-.08-0.16Z" transform="translate(-880.77 -778.89)"/>
      <path class="c" d="M918.7,801.88a0.1,0.1,0,0,0,.08.06,0,0,0,0,0,.06,0,0.25,0.25,0,0,0,0-.16c0-.05-0.06-0.09-0.08,0a0.23,0.23,0,0,0,0,.15" transform="translate(-880.77 -778.89)"/>
      <path class="c" d="M916.07,801.38l0.1,0a1.19,1.19,0,0,1,0-.2c0-.08.05-0.14,0-0.14a0.09,0.09,0,0,0-.07.06,0.25,0.25,0,0,0-.1.14c0,0.1,0,.1,0,0.11" transform="translate(-880.77 -778.89)"/>
      <path class="e" d="M905.69,798a0.65,0.65,0,0,1-.2.09s-0.05,0-.05,0a0.18,0.18,0,0,0,.13,0,0.55,0.55,0,0,0,.19-0.1,0.1,0.1,0,0,0,.07-0.09s0,0-.13.1" transform="translate(-880.77 -778.89)"/>
      <path class="e" d="M906.43,798.4l-0.16.13-0.09,0a0.11,0.11,0,0,0-.06,0,0.07,0.07,0,0,0,.06,0,1.22,1.22,0,0,0,.25-0.16s0.07-.05.05-0.07,0,0,0,0" transform="translate(-880.77 -778.89)"/>
      <path class="e" d="M903.43,793.07a0.11,0.11,0,0,0,.07.06s0,0,0-.07l-0.06-.06-0.08-.11s-0.07,0,0,0l0.12,0.16" transform="translate(-880.77 -778.89)"/>
      <path class="e" d="M903.2,793.57l0.1,0.1s0.06,0.08.08,0.06a0.2,0.2,0,0,0-.09-0.11l-0.1-.1-0.09-.06,0.1,0.11" transform="translate(-880.77 -778.89)"/>
      <path class="e" d="M903.28,794.37a0.14,0.14,0,0,0,.15.05s0,0-.05-0.07l-0.16-.1-0.1-.08a0.09,0.09,0,0,0-.07,0,0.36,0.36,0,0,0,.1.12,0.67,0.67,0,0,1,.13.12" transform="translate(-880.77 -778.89)"/>
      <path class="e" d="M903.45,795s0,0,0,0h-0.11a0.19,0.19,0,0,0-.1,0,0.18,0.18,0,0,0,.11.06l0.1,0a0,0,0,0,0,0,0" transform="translate(-880.77 -778.89)"/>
      <path class="e" d="M903.52,795.72a1.22,1.22,0,0,0-.19,0,0.15,0.15,0,0,0,.1.06,1,1,0,0,0,.21,0c0.07,0,.08,0,0.07,0a0.23,0.23,0,0,0-.19,0" transform="translate(-880.77 -778.89)"/>
      <path class="e" d="M904.31,796.49a0.17,0.17,0,0,0-.11,0l-0.2,0h-0.17a0.11,0.11,0,0,0-.06,0,0.76,0.76,0,0,0,.21,0,0.83,0.83,0,0,0,.27,0c0.06,0,.08,0,0.06-0.05" transform="translate(-880.77 -778.89)"/>
      <path class="e" d="M904.64,797a0.41,0.41,0,0,1-.15,0l-0.16,0s-0.05,0,0,0,0,0,.08,0h0.17a0.93,0.93,0,0,0,.18,0c0.05,0,.11,0,0.08-0.07a0.15,0.15,0,0,0-.14,0" transform="translate(-880.77 -778.89)"/>
      <path class="e" d="M905.27,797.45l-0.17.13-0.08,0c-0.05,0-.05,0,0,0.05a0.14,0.14,0,0,0,.07,0l0.18-.12a0.2,0.2,0,0,0,.1-0.1s0,0-.06,0" transform="translate(-880.77 -778.89)"/>
      <path class="e" d="M904.21,792.09a1.17,1.17,0,0,0,.12.16c0.11,0.14.05,0,0,0s-0.19-.26-0.24-0.33-0.06,0,0,0l0.13,0.18" transform="translate(-880.77 -778.89)"/>
      <path class="e" d="M904,792.8a0.19,0.19,0,0,0-.08-0.11l-0.19-.24a0.14,0.14,0,0,0,0-.07,0.39,0.39,0,0,0,.09.18,2.3,2.3,0,0,1,.15.19s0.05,0.06.07,0" transform="translate(-880.77 -778.89)"/>
      <path class="e" d="M904.29,794.12a0.3,0.3,0,0,0-.18,0L904,794a0.31,0.31,0,0,0-.12,0s0,0,.09,0l0.24,0.05c0.07,0,.13,0,0.13,0" transform="translate(-880.77 -778.89)"/>
      <path class="e" d="M904,793.41a1.1,1.1,0,0,0,.18.12s0.08,0.06.1,0,0,0-.09-0.08l-0.11-.06-0.07,0s-0.09,0,0,0" transform="translate(-880.77 -778.89)"/>
      <path class="e" d="M904.69,792.93l-0.1-.07a0.11,0.11,0,0,0-.07,0,0.31,0.31,0,0,0,.11.11,0.31,0.31,0,0,0,.14.12s0-.08-0.08-0.12" transform="translate(-880.77 -778.89)"/>
      <path class="e" d="M904.23,794.78l-0.11,0s0,0,0,0a1,1,0,0,0,.19,0c0.08,0,.11,0,0.1-0.05s-0.05,0-.09,0l-0.12,0" transform="translate(-880.77 -778.89)"/>
      <path class="e" d="M904.35,795.44a0.12,0.12,0,0,0,.1,0l0.18-.07s0,0,0-.05-0.05,0-.12,0a0.62,0.62,0,0,0-.15.09,0.18,0.18,0,0,0-.06,0" transform="translate(-880.77 -778.89)"/>
      <path class="e" d="M905.21,795.85c0.06,0,.07-0.06,0-0.08s0,0-.08,0l-0.14.11-0.08,0s-0.08,0-.07.06a0.13,0.13,0,0,0,.12,0s0.14-.08.2-0.12" transform="translate(-880.77 -778.89)"/>
      <path class="e" d="M905.62,796.38l0.13-.07s0.05-.09,0-0.1a0.19,0.19,0,0,0-.1.07l-0.25.17-0.05,0c-0.05,0,0,0,0,0a0.21,0.21,0,0,0,.13,0l0.1-.07" transform="translate(-880.77 -778.89)"/>
      <path class="e" d="M906.22,796.89a0.71,0.71,0,0,0,.16-0.12s0.08-.07.05-0.1-0.06,0-.1,0l-0.15.15-0.07.05c-0.06,0,0,0,0,0l0.09-.05" transform="translate(-880.77 -778.89)"/>
      <path class="e" d="M914.94,798.09a0.63,0.63,0,0,1-.2-0.09c-0.09-.07-0.11-0.14-0.13-0.1a0.1,0.1,0,0,0,.07.09,0.54,0.54,0,0,0,.19.1,0.18,0.18,0,0,0,.13,0s-0.05,0-.05,0" transform="translate(-880.77 -778.89)"/>
      <path class="e" d="M914.25,798.57l-0.09,0L914,798.4s0,0,0,0,0,0,.05.07a1.16,1.16,0,0,0,.25.16,0.07,0.07,0,0,0,.06,0,0.11,0.11,0,0,0-.06,0" transform="translate(-880.77 -778.89)"/>
      <path class="e" d="M917,793.07l0.12-.16c0.06-.07,0-0.05,0,0L917,793l-0.06.06s-0.05.06,0,.07a0.11,0.11,0,0,0,.07-0.06" transform="translate(-880.77 -778.89)"/>
      <path class="e" d="M917,793.72s0,0,.08-0.06l0.1-.1,0.1-.11-0.09.06-0.1.1a0.2,0.2,0,0,0-.09.11" transform="translate(-880.77 -778.89)"/>
      <path class="e" d="M917.38,794.13a0.1,0.1,0,0,0-.07,0l-0.1.08-0.16.1s-0.06,0-.05.07a0.14,0.14,0,0,0,.15-0.05,0.67,0.67,0,0,1,.13-0.12,0.35,0.35,0,0,0,.11-0.12" transform="translate(-880.77 -778.89)"/>
      <path class="e" d="M917.13,795H917s0,0,0,0a0,0,0,0,0,0,0l0.1,0a0.19,0.19,0,0,0,.11-0.06,0.18,0.18,0,0,0-.1,0" transform="translate(-880.77 -778.89)"/>
      <path class="e" d="M916.91,795.72a0.24,0.24,0,0,0-.19,0s0,0,.07,0a1,1,0,0,0,.21,0,0.16,0.16,0,0,0,.1-0.06,1.23,1.23,0,0,0-.2,0" transform="translate(-880.77 -778.89)"/>
      <path class="e" d="M916.59,796.52h-0.17l-0.2,0a0.16,0.16,0,0,0-.11,0s0,0,.06.05a0.83,0.83,0,0,0,.27,0,0.77,0.77,0,0,0,.21,0,0.11,0.11,0,0,0-.06,0" transform="translate(-880.77 -778.89)"/>
      <path class="e" d="M916.1,797.09l-0.16,0a0.42,0.42,0,0,1-.15,0,0.16,0.16,0,0,0-.14,0s0,0.06.08,0.07a0.82,0.82,0,0,0,.18,0h0.17s0.06,0,.07,0,0,0,0,0" transform="translate(-880.77 -778.89)"/>
      <path class="e" d="M915.41,797.62l-0.08,0-0.17-.13s0-.06-0.06,0a0.19,0.19,0,0,0,.11.1l0.18,0.12a0.14,0.14,0,0,0,.07,0s0,0,0-.05" transform="translate(-880.77 -778.89)"/>
      <path class="e" d="M916.09,792.26l0.12-.16,0.13-.18s0-.07,0,0-0.21.29-.24,0.33-0.09.16,0,0" transform="translate(-880.77 -778.89)"/>
      <path class="e" d="M916.76,792.38a0.18,0.18,0,0,0,0,.07l-0.19.24a0.19,0.19,0,0,0-.08.11s0,0,.07,0l0.15-.19a0.35,0.35,0,0,0,.09-0.18" transform="translate(-880.77 -778.89)"/>
      <path class="e" d="M916.14,794.12s0.06,0,.13,0l0.24-.05c0.07,0,.09,0,0.09,0a0.32,0.32,0,0,0-.12,0l-0.16,0a0.3,0.3,0,0,0-.18,0" transform="translate(-880.77 -778.89)"/>
      <path class="e" d="M916.43,793.38l-0.07,0-0.11.06c-0.07,0-.12.05-0.09,0.08s0.06,0,.1,0a1.1,1.1,0,0,0,.18-0.12c0.08-.07,0,0,0,0" transform="translate(-880.77 -778.89)"/>
      <path class="e" d="M915.65,793.06a0.3,0.3,0,0,0,.14-0.12,0.31,0.31,0,0,0,.11-0.11,0.11,0.11,0,0,0-.07,0l-0.09.07c-0.05,0-.12.11-0.09,0.13" transform="translate(-880.77 -778.89)"/>
      <path class="e" d="M916.08,794.8a1,1,0,0,0,.19,0c0.08,0,.08,0,0,0l-0.11,0-0.12,0a0.08,0.08,0,0,0-.09,0s0,0,.1.05" transform="translate(-880.77 -778.89)"/>
      <path class="e" d="M916,795.4a0.62,0.62,0,0,0-.15-0.09c-0.06,0-.12,0-0.12,0s0,0,.05.05l0.18,0.07a0.13,0.13,0,0,0,.1,0,0.16,0.16,0,0,0-.06,0" transform="translate(-880.77 -778.89)"/>
      <path class="e" d="M915.47,795.93l-0.08,0-0.14-.11s-0.07,0-.09,0,0,0,.05.08,0.16,0.08.2,0.12a0.13,0.13,0,0,0,.12,0s0,0-.07-0.06" transform="translate(-880.77 -778.89)"/>
      <path class="e" d="M915.05,796.47l-0.05,0-0.25-.17a0.18,0.18,0,0,0-.1-0.07s0,0.08,0,.11l0.13,0.07,0.1,0.07a0.21,0.21,0,0,0,.13,0s0.07,0,0,0" transform="translate(-880.77 -778.89)"/>
      <path class="e" d="M914.32,796.93l-0.07-.05-0.15-.15s-0.07-.07-0.1,0,0,0.06.05,0.1a0.71,0.71,0,0,0,.16.12l0.09,0.05s0.08,0,0,0" transform="translate(-880.77 -778.89)"/>
      <path class="c" d="M910.21,789.73a3.65,3.65,0,0,1-1.14-.15l-0.28.06a4.45,4.45,0,0,0,2.84,0l-0.28-.06a3.63,3.63,0,0,1-1.14.15" transform="translate(-880.77 -778.89)"/>
      <path class="c" d="M911.68,789.39a2.58,2.58,0,0,0-.26-0.18s0-.09,0-0.12a1.16,1.16,0,0,1,.33-0.12c0.11,0,.09-0.05.09-0.05a0.88,0.88,0,0,0-.48-0.12c-0.42,0-1.15,0-1.15,0s-0.73,0-1.15,0a0.88,0.88,0,0,0-.48.12s0,0,.1.05a1.18,1.18,0,0,1,.33.12s0,0.09,0,.12l-0.27.18s0,0.07,0,.07l0.2,0a7,7,0,0,1,2.52,0l0.19,0c0.05,0,0,0,0-.07" transform="translate(-880.77 -778.89)"/>
      <polygon class="c" points="27.85 10.13 27.67 10.28 27.89 10.38 28.14 10.21 27.85 10.13"/>
      <polygon class="c" points="31.03 10.13 30.75 10.21 30.99 10.38 31.21 10.28 31.03 10.13"/>
      <path class="c" d="M911.21,789.57a5.86,5.86,0,0,0-1-.07,7.12,7.12,0,0,0-1,.07,2.91,2.91,0,0,0,1,.11,3,3,0,0,0,1-.11" transform="translate(-880.77 -778.89)"/>
      <path class="f" d="M910.61,797.84c0-.05,0,0-0.08,0s-0.08-.08-0.08-0.16a2.51,2.51,0,0,1,0-.3l-0.29.07c-0.1,0-.2,0-0.28.06a0.43,0.43,0,0,1-.17,0l-0.21,0a0.16,0.16,0,0,0-.14.09,0.6,0.6,0,0,0-.15.25,1.51,1.51,0,0,0-.1.43,1.27,1.27,0,0,1,0,.22H910l0-.09a0.23,0.23,0,0,1,.11-0.1,0.11,0.11,0,0,0,.08-0.05,0.2,0.2,0,0,1,.11-0.09,0.33,0.33,0,0,1,.2,0,0.1,0.1,0,0,0,.12-0.06,1.19,1.19,0,0,1,.07-0.12,0.08,0.08,0,0,0,0-.1,0.34,0.34,0,0,1-.07-0.08" transform="translate(-880.77 -778.89)"/>
      <path class="f" d="M912,797.86c0-.05,0-0.06,0-0.06l-0.12,0s0,0.1,0,.1a1,1,0,0,1-.22,0,0.77,0.77,0,0,1-.3-0.15,0.55,0.55,0,0,1-.1-0.11l-0.07.05a0.25,0.25,0,0,0-.06.17,2.05,2.05,0,0,0,.09.23,0.58,0.58,0,0,1-.12.28,1.08,1.08,0,0,0-.09.18h0.42a0.22,0.22,0,0,1,0-.07,0.23,0.23,0,0,1,.12-0.05,0.18,0.18,0,0,1,0-.06,0.26,0.26,0,0,1,.16-0.12,0.89,0.89,0,0,1,.23,0,0.44,0.44,0,0,0,.09-0.1,0.27,0.27,0,0,0,0-.19" transform="translate(-880.77 -778.89)"/>
      <polygon class="c" points="29.36 6.76 29.57 6.74 29.55 6.55 29.79 6.58 29.8 6.39 29.55 6.41 29.59 6.21 29.32 6.21 29.37 6.41 29.13 6.39 29.13 6.58 29.37 6.55 29.36 6.76"/>
      <path class="c" d="M910.6,786h-0.29v-0.25h-0.16V786h-0.3a0.34,0.34,0,0,0,0,.1,0.3,0.3,0,0,0,0,0h0.79s0,0,0,0a0.34,0.34,0,0,0,0-.1" transform="translate(-880.77 -778.89)"/>
      <path class="f" d="M910.22,786.42a0.39,0.39,0,0,0,.37-0.24h-0.75a0.39,0.39,0,0,0,.38.24" transform="translate(-880.77 -778.89)"/>
      <path class="f" d="M910.38,785.73v0.17h0.2a0.38,0.38,0,0,0-.2-0.17" transform="translate(-880.77 -778.89)"/>
      <path class="f" d="M910.06,785.73a0.38,0.38,0,0,0-.2.17h0.2v-0.17Z" transform="translate(-880.77 -778.89)"/>
      <path class="e" d="M910.45,788.92l-0.23-.1-0.24.12a0.12,0.12,0,0,0-.1.09,0.06,0.06,0,0,0,0,.1l0.3,0.15,0.32-.15c0.06,0,.05-0.06,0-0.11a0.19,0.19,0,0,0-.12-0.1" transform="translate(-880.77 -778.89)"/>
      <path class="e" d="M911,788.85a0.22,0.22,0,1,1-.23.22,0.23,0.23,0,0,1,.23-0.22" transform="translate(-880.77 -778.89)"/>
      <path class="e" d="M909.44,788.85a0.22,0.22,0,1,1,0,.44,0.22,0.22,0,1,1,0-.44" transform="translate(-880.77 -778.89)"/>
      <polygon class="c" points="29.19 10.1 29.45 10.23 29.7 10.1 29.44 9.98 29.19 10.1"/>
      <path class="c" d="M911,788.89a0.13,0.13,0,1,1-.14.13,0.14,0.14,0,0,1,.14-0.13" transform="translate(-880.77 -778.89)"/>
      <path class="c" d="M909.44,788.89a0.13,0.13,0,1,1,0,.27,0.13,0.13,0,1,1,0-.27" transform="translate(-880.77 -778.89)"/>
      <path class="c" d="M909,788.31a0.35,0.35,0,0,0,.14,0,0.17,0.17,0,0,0,0-.15l-0.14-.12,0,0s0,0.09,0,.14a0.16,0.16,0,0,0,.08.16" transform="translate(-880.77 -778.89)"/>
      <path class="c" d="M909.08,788.38a0,0,0,0,1,0,0,0,0,0,0,1-.09,0,0,0,0,0,1,0,0" transform="translate(-880.77 -778.89)"/>
      <path class="c" d="M908.76,788.37l-0.06.06a0.18,0.18,0,0,1,.09,0,0.2,0.2,0,0,0,.13,0,0.06,0.06,0,0,0,.06-0.08,0.14,0.14,0,0,0-.11-0.09,0.08,0.08,0,0,0-.11,0" transform="translate(-880.77 -778.89)"/>
      <path class="c" d="M908.92,788.64a0.62,0.62,0,0,1-.34-0.15,0.25,0.25,0,0,1-.22.22h0a1,1,0,0,0,.25.08,0.52,0.52,0,0,0,.18,0,0.8,0.8,0,0,0,.21-0.07,0.2,0.2,0,0,0,.06-0.19,0.16,0.16,0,0,1-.16.12" transform="translate(-880.77 -778.89)"/>
      <path class="c" d="M908.36,788.5a1.22,1.22,0,0,0-.19-0.07s-0.09,0-.08.06a0.14,0.14,0,0,0,.15.1,0.25,0.25,0,0,0,.14,0s0,0,0-.05" transform="translate(-880.77 -778.89)"/>
      <path class="c" d="M907.91,788.25a0.38,0.38,0,0,0-.12-0.06,0.34,0.34,0,0,0,0,.18,0.12,0.12,0,0,0,.14.09c0.06,0,.15,0,0.13-0.08a0.37,0.37,0,0,0-.12-0.12" transform="translate(-880.77 -778.89)"/>
      <path class="c" d="M908,788.53a0,0,0,1,1-.05,0,0,0,0,0,1,.05,0" transform="translate(-880.77 -778.89)"/>
      <path class="c" d="M908.1,788a0.79,0.79,0,0,1,.15-0.66,1.11,1.11,0,0,1,.5-0.37,0.82,0.82,0,0,1,.11-0.13,2.16,2.16,0,0,1,.3-0.24l-0.37.1h0a0.16,0.16,0,0,1-.16.17,0.16,0.16,0,0,1-.09,0,1.61,1.61,0,0,0-.38.21,0.18,0.18,0,0,1,0,.09,0.16,0.16,0,0,1-.16.16l-0.07,0,0,0a1.53,1.53,0,0,0-.12.27,0.18,0.18,0,0,1,.07.14,0.16,0.16,0,0,1-.14.17,0.76,0.76,0,0,0,0,.11,0.13,0.13,0,0,0,.12.12,0.65,0.65,0,0,1,.22.19,0.38,0.38,0,0,0,0-.31" transform="translate(-880.77 -778.89)"/>
      <path class="c" d="M908.68,786.79a0.06,0.06,0,0,0,0-.09,0.09,0.09,0,0,0-.11,0,0.06,0.06,0,0,0,0,.1,0.09,0.09,0,0,0,.11,0" transform="translate(-880.77 -778.89)"/>
      <path class="c" d="M908.07,787.2a0.08,0.08,0,0,0,0-.12,0.09,0.09,0,0,0-.12,0,0.08,0.08,0,0,0,0,.12,0.1,0.1,0,0,0,.13,0" transform="translate(-880.77 -778.89)"/>
      <path class="c" d="M907.71,787.62a0.09,0.09,0,1,1-.09.09,0.09,0.09,0,0,1,.09-0.09" transform="translate(-880.77 -778.89)"/>
      <path class="c" d="M909.73,786.42a1.21,1.21,0,0,0-.27.11h0a0.15,0.15,0,0,1,.17.14,0.18,0.18,0,0,1-.18.16,0.16,0.16,0,0,1-.16-0.16,0.11,0.11,0,0,1,0-.05l-0.13.08a1.26,1.26,0,0,0-.51.57,1,1,0,0,0-.14.75,0.4,0.4,0,0,0,.3.21,0.11,0.11,0,0,1,0-.06,0.39,0.39,0,0,1,0-.12,0.8,0.8,0,0,0,0-.15,0.1,0.1,0,0,1,.08,0l0.1,0.12,0.11,0.11a0.3,0.3,0,0,0,0-.15c0-.08-0.05-0.17-0.06-0.31a1,1,0,0,1,.2-0.58,1.65,1.65,0,0,1,.47-0.39,0.15,0.15,0,0,0,.09-0.13s0-.06,0-0.14-0.07-.08-0.15-0.06" transform="translate(-880.77 -778.89)"/>
      <path class="c" d="M909.44,786.73a0.1,0.1,0,0,0,.1-0.09,0.09,0.09,0,0,0-.09-0.08,0.09,0.09,0,0,0-.1.08,0.09,0.09,0,0,0,.09.09" transform="translate(-880.77 -778.89)"/>
      <path class="c" d="M909.88,788.48a0.22,0.22,0,0,0,.19,0,0.08,0.08,0,0,0,0-.13,0.15,0.15,0,0,0-.15,0l-0.13.09a0.18,0.18,0,0,0,.09.06" transform="translate(-880.77 -778.89)"/>
      <path class="c" d="M910.11,788.56a0.12,0.12,0,0,1-.12.07,0.29,0.29,0,0,1-.22-0.05,0.56,0.56,0,0,1-.09-0.12h-0.09a0.42,0.42,0,0,1-.07.16,0.25,0.25,0,0,1-.24,0,0.55,0.55,0,0,0-.13-0.09,0.11,0.11,0,0,0,.06.1,0.27,0.27,0,0,0,.21.09H910a0.17,0.17,0,0,0,.15-0.06,0.13,0.13,0,0,0,0-.13s0,0-.05.05" transform="translate(-880.77 -778.89)"/>
      <path class="c" d="M909.24,788.47a0.11,0.11,0,0,0,.16,0,0.15,0.15,0,0,0,0-.05l-0.12-.05a0.16,0.16,0,0,0-.11,0h0a0.16,0.16,0,0,0,.07.16" transform="translate(-880.77 -778.89)"/>
      <path class="c" d="M910.34,788.34a0.08,0.08,0,0,0,0,.13,0.22,0.22,0,0,0,.19,0,0.18,0.18,0,0,0,.09-0.06l-0.13-.09a0.15,0.15,0,0,0-.15,0" transform="translate(-880.77 -778.89)"/>
      <path class="c" d="M911.14,788.6a0.25,0.25,0,0,1-.24,0,0.42,0.42,0,0,1-.07-0.16h-0.09a0.56,0.56,0,0,1-.09.13,0.29,0.29,0,0,1-.22.05,0.12,0.12,0,0,1-.12-0.07s0-.07-0.05-0.05a0.14,0.14,0,0,0,0,.13,0.17,0.17,0,0,0,.15.06H911a0.28,0.28,0,0,0,.21-0.09,0.11,0.11,0,0,0,.06-0.11,0.52,0.52,0,0,0-.13.09" transform="translate(-880.77 -778.89)"/>
      <path class="c" d="M911.1,788.34l-0.12.05,0,0.05a0.11,0.11,0,0,0,.16,0,0.16,0.16,0,0,0,.07-0.16h0a0.16,0.16,0,0,0-.11,0" transform="translate(-880.77 -778.89)"/>
      <path class="c" d="M911.55,788.15c0-.05,0-0.14,0-0.14l0,0-0.14.12a0.18,0.18,0,0,0,0,.15,0.34,0.34,0,0,0,.13,0,0.16,0.16,0,0,0,.08-0.16" transform="translate(-880.77 -778.89)"/>
      <path class="c" d="M911.39,788.42a0,0,0,0,0-.09,0,0,0,0,0,0,.09,0,0,0,0,0,0,0,0" transform="translate(-880.77 -778.89)"/>
      <path class="c" d="M911.5,788.51a0.2,0.2,0,0,0,.13,0,0.18,0.18,0,0,1,.09,0l-0.06-.06a0.08,0.08,0,0,0-.11,0,0.15,0.15,0,0,0-.11.09,0.06,0.06,0,0,0,.06.08" transform="translate(-880.77 -778.89)"/>
      <path class="c" d="M911.83,788.5a0.62,0.62,0,0,1-.34.15,0.15,0.15,0,0,1-.16-0.12,0.2,0.2,0,0,0,.06.19,0.79,0.79,0,0,0,.21.07,0.51,0.51,0,0,0,.18,0,1,1,0,0,0,.25-0.08h0a0.25,0.25,0,0,1-.22-0.22" transform="translate(-880.77 -778.89)"/>
      <path class="c" d="M912.25,788.43a1.22,1.22,0,0,0-.19.07c-0.06,0-.07,0,0,0.05a0.26,0.26,0,0,0,.14,0,0.14,0.14,0,0,0,.15-0.1c0-.07,0-0.06-0.08-0.06" transform="translate(-880.77 -778.89)"/>
      <path class="c" d="M912.52,788.25a0.37,0.37,0,0,0-.12.13s0.07,0.08.13,0.08a0.12,0.12,0,0,0,.13-0.09,0.33,0.33,0,0,0,0-.18,0.38,0.38,0,0,0-.12.06" transform="translate(-880.77 -778.89)"/>
      <path class="c" d="M912.46,788.53a0,0,0,1,1-.05,0,0,0,0,0,1,.05,0" transform="translate(-880.77 -778.89)"/>
      <path class="c" d="M912.55,787.75a0.18,0.18,0,0,1,.07-0.14,1.52,1.52,0,0,0-.12-0.27l0,0-0.07,0a0.16,0.16,0,0,1-.16-0.16,0.18,0.18,0,0,1,0-.09,1.61,1.61,0,0,0-.38-0.21,0.16,0.16,0,0,1-.09,0,0.17,0.17,0,0,1-.16-0.17h0l-0.37-.1a2.23,2.23,0,0,1,.3.24l0.11,0.13a1.1,1.1,0,0,1,.49.37,0.79,0.79,0,0,1,.15.66,0.38,0.38,0,0,0,0,.31,0.65,0.65,0,0,1,.22-0.19,0.13,0.13,0,0,0,.12-0.12,0.53,0.53,0,0,0,0-.11,0.16,0.16,0,0,1-.14-0.17" transform="translate(-880.77 -778.89)"/>
      <path class="c" d="M911.74,786.79a0.09,0.09,0,0,0,.11,0,0.06,0.06,0,0,0,0-.1,0.09,0.09,0,0,0-.11,0,0.06,0.06,0,0,0,0,.09" transform="translate(-880.77 -778.89)"/>
      <path class="c" d="M912.35,787.2a0.1,0.1,0,0,0,.12,0,0.08,0.08,0,0,0,0-.12,0.09,0.09,0,0,0-.12,0,0.08,0.08,0,0,0,0,.12" transform="translate(-880.77 -778.89)"/>
      <path class="c" d="M912.71,787.62a0.09,0.09,0,1,1-.09.09,0.09,0.09,0,0,1,.09-0.09" transform="translate(-880.77 -778.89)"/>
      <path class="c" d="M910.56,786.62a0.15,0.15,0,0,0,.09.13,1.65,1.65,0,0,1,.47.39,1,1,0,0,1,.2.58c0,0.14-.06.23-0.06,0.31a0.3,0.3,0,0,0,0,.15l0.11-.11,0.1-.12a0.1,0.1,0,0,1,.09,0,0.71,0.71,0,0,0,0,.15,0.51,0.51,0,0,1,0,.12,0.14,0.14,0,0,1,0,.06,0.4,0.4,0,0,0,.3-0.21,1,1,0,0,0-.14-0.75,1.24,1.24,0,0,0-.52-0.57l-0.13-.08a0.11,0.11,0,0,1,0,.05,0.16,0.16,0,0,1-.16.16,0.18,0.18,0,0,1-.18-0.16,0.15,0.15,0,0,1,.17-0.14h0a1.21,1.21,0,0,0-.27-0.11c-0.08,0-.15,0-0.15.06s0,0.11,0,.14" transform="translate(-880.77 -778.89)"/>
      <path class="c" d="M910.21,788a0.47,0.47,0,0,1-.05.13,0.15,0.15,0,0,0,0,.12,0.1,0.1,0,0,0,.19,0,0.15,0.15,0,0,0,0-.12,0.44,0.44,0,0,1-.05-0.13" transform="translate(-880.77 -778.89)"/>
      <path class="c" d="M910.21,788.36a0,0,0,0,1,0,.1,0,0,0,0,1,0-.1" transform="translate(-880.77 -778.89)"/>
      <path class="c" d="M910,788.16a1,1,0,0,0,.12-0.15l0.06-.11,0.06,0.11a0.94,0.94,0,0,0,.11.15,0.47,0.47,0,0,0,.19-0.29,1.78,1.78,0,0,0,0-.72c0-.26-0.05-0.7-0.05-0.7a0.47,0.47,0,0,1-.51,0s0,0.44-.06.7a1.81,1.81,0,0,0,0,.72,0.48,0.48,0,0,0,.19.29" transform="translate(-880.77 -778.89)"/>
      <path class="c" d="M910.88,786.64a0.1,0.1,0,0,0,.1.09,0.09,0.09,0,0,0,.09-0.09,0.09,0.09,0,0,0-.1-0.08,0.09,0.09,0,0,0-.09.08" transform="translate(-880.77 -778.89)"/>
      <path class="e" d="M908.83,787.43a0.19,0.19,0,1,1,0,.38,0.19,0.19,0,1,1,0-.38" transform="translate(-880.77 -778.89)"/>
      <path class="e" d="M909.16,787a0.19,0.19,0,0,0-.25,0,0.16,0.16,0,0,0,0,.23,0.19,0.19,0,0,0,.25,0,0.16,0.16,0,0,0,0-.23" transform="translate(-880.77 -778.89)"/>
      <path class="c" d="M908.82,787.49a0.11,0.11,0,1,1-.11.11,0.11,0.11,0,0,1,.11-0.11" transform="translate(-880.77 -778.89)"/>
      <path class="c" d="M909.08,787a0.12,0.12,0,0,0-.13.05s0,0.09.07,0.1,0.18-.13.07-0.16" transform="translate(-880.77 -778.89)"/>
      <path class="e" d="M910.21,787.45a0.2,0.2,0,1,1-.21.2,0.2,0.2,0,0,1,.21-0.2" transform="translate(-880.77 -778.89)"/>
      <path class="e" d="M910.21,787a0.19,0.19,0,1,1,0,.38,0.19,0.19,0,1,1,0-.38" transform="translate(-880.77 -778.89)"/>
      <path class="e" d="M910.21,786.57a0.18,0.18,0,1,1-.19.18,0.18,0.18,0,0,1,.19-0.18" transform="translate(-880.77 -778.89)"/>
      <path class="e" d="M911.59,787.43a0.19,0.19,0,1,0,0,.38,0.19,0.19,0,1,0,0-.38" transform="translate(-880.77 -778.89)"/>
      <path class="e" d="M911.51,787a0.19,0.19,0,0,0-.25,0,0.16,0.16,0,0,0,0,.23,0.19,0.19,0,0,0,.25,0,0.16,0.16,0,0,0,0-.23" transform="translate(-880.77 -778.89)"/>
      <path class="c" d="M911.6,787.49a0.11,0.11,0,1,1,0,.21,0.11,0.11,0,1,1,0-.21" transform="translate(-880.77 -778.89)"/>
      <path class="c" d="M911.34,787c-0.11,0-.05.18,0.07,0.16s0.09-.06.07-0.1a0.12,0.12,0,0,0-.13-0.05" transform="translate(-880.77 -778.89)"/>
      <path class="c" d="M910.21,787.51a0.1,0.1,0,1,1-.11.1,0.11,0.11,0,0,1,.11-0.1" transform="translate(-880.77 -778.89)"/>
      <path class="c" d="M910.21,787.06a0.1,0.1,0,1,1-.11.1,0.1,0.1,0,0,1,.11-0.1" transform="translate(-880.77 -778.89)"/>
      <path class="c" d="M910.21,786.63a0.09,0.09,0,1,1-.09.09,0.09,0.09,0,0,1,.09-0.09" transform="translate(-880.77 -778.89)"/>
      <path class="e" d="M916.58,801a0.17,0.17,0,0,1,0,.33,0.17,0.17,0,1,1,0-.33" transform="translate(-880.77 -778.89)"/>
      <path class="e" d="M917.05,801.12a0.17,0.17,0,1,1-.17.17,0.17,0.17,0,0,1,.17-0.17" transform="translate(-880.77 -778.89)"/>
      <path class="e" d="M918.43,801.41a0.17,0.17,0,0,1,0,.34,0.17,0.17,0,1,1,0-.34" transform="translate(-880.77 -778.89)"/>
      <path class="e" d="M917.53,801.23a0.17,0.17,0,1,1-.17.17,0.17,0.17,0,0,1,.17-0.17" transform="translate(-880.77 -778.89)"/>
      <path class="e" d="M917.65,800.82a0.17,0.17,0,1,1,0,.34,0.17,0.17,0,0,1,0-.34" transform="translate(-880.77 -778.89)"/>
      <path class="e" d="M917.77,800.41a0.17,0.17,0,1,1-.17.17,0.17,0.17,0,0,1,.17-0.17" transform="translate(-880.77 -778.89)"/>
      <path class="c" d="M916.59,801.08a0.08,0.08,0,0,1,.08.08,0.08,0.08,0,0,1-.08.08,0.08,0.08,0,0,1-.08-0.08,0.09,0.09,0,0,1,.08-0.08" transform="translate(-880.77 -778.89)"/>
      <path class="c" d="M917.07,801.19a0.09,0.09,0,0,1,.08.09,0.09,0.09,0,1,1-.17,0,0.09,0.09,0,0,1,.09-0.09" transform="translate(-880.77 -778.89)"/>
      <path class="c" d="M918.44,801.48a0.09,0.09,0,1,1-.09.09,0.09,0.09,0,0,1,.09-0.09" transform="translate(-880.77 -778.89)"/>
      <path class="c" d="M917.54,801.3a0.09,0.09,0,1,1-.09.09,0.09,0.09,0,0,1,.09-0.09" transform="translate(-880.77 -778.89)"/>
      <path class="c" d="M917.66,800.89a0.08,0.08,0,1,1-.09.09,0.09,0.09,0,0,1,.09-0.09" transform="translate(-880.77 -778.89)"/>
      <path class="c" d="M917.78,800.48a0.09,0.09,0,1,1-.08.09,0.09,0.09,0,0,1,.08-0.09" transform="translate(-880.77 -778.89)"/>
    </g>
  </g>
</svg>
