<svg xmlns="http://www.w3.org/2000/svg" xmlns:xlink="http://www.w3.org/1999/xlink" viewBox="0 0 58.92 34.37">
  <defs>
    <style>
      .a {
        fill: none;
      }

      .b {
        clip-path: url(#a);
      }

      .c {
        fill: #c0001a;
      }

      .d {
        fill: #fff;
      }

      .e {
        fill: #2c00fc;
      }
    </style>
    <clipPath id="a" transform="translate(-1022.15 -778.89)">
      <rect class="a" x="1022.15" y="778.89" width="58.92" height="34.37"/>
    </clipPath>
  </defs>
  <title>Mordovia</title>
  <g class="b">
    <rect class="c" width="58.92" height="8.59"/>
    <rect class="d" y="8.59" width="58.92" height="17.19"/>
    <rect class="e" y="25.78" width="58.92" height="8.59"/>
    <polygon class="c" points="27.4 11 35.65 19.25 23.27 19.25 31.52 11 31.52 23.38 23.27 15.13 35.65 15.13 27.4 23.38 27.4 11"/>
    <path d="M1049,793.5l5.16,5.16Zm0,5.16,5.16-5.16Z" transform="translate(-1022.15 -778.89)"/>
    <polygon class="d" points="31.86 19.95 29.46 17.55 27.06 19.95 26.7 19.58 29.1 17.19 26.7 14.79 27.06 14.43 29.46 16.82 31.86 14.43 32.22 14.79 29.83 17.19 32.22 19.58 31.86 19.95 31.86 19.95"/>
  </g>
</svg>
