<svg xmlns="http://www.w3.org/2000/svg" xmlns:xlink="http://www.w3.org/1999/xlink" viewBox="0 0 58.92 34.37">
  <defs>
    <style>
      .a {
        fill: none;
      }

      .b {
        clip-path: url(#a);
      }

      .c {
        fill: #fff;
      }

      .d {
        fill: #c9002b;
      }

      .e {
        fill: #2b0095;
      }
    </style>
    <clipPath id="a" transform="translate(-457.75 -836.22)">
      <rect class="a" x="457.75" y="836.22" width="58.92" height="34.37"/>
    </clipPath>
  </defs>
  <title>Netherlands_Antilles</title>
  <g class="b">
    <rect class="c" width="58.92" height="34.37"/>
    <rect class="d" x="23.73" width="11.46" height="34.37"/>
    <rect class="e" y="11.46" width="58.92" height="11.46"/>
    <polygon class="c" points="29.46 12.07 29.02 13.43 29.7 13.66 29.46 12.07"/>
    <polygon class="c" points="29.46 12.07 29.9 13.43 29.22 13.66 29.46 12.07"/>
    <polygon class="c" points="30.82 13.06 29.39 13.06 29.39 13.78 30.82 13.06"/>
    <polygon class="c" points="30.82 13.06 29.67 13.9 29.24 13.32 30.82 13.06"/>
    <polygon class="c" points="28.1 13.06 29.26 13.9 29.68 13.32 28.1 13.06"/>
    <polygon class="c" points="28.1 13.06 29.53 13.06 29.53 13.78 28.1 13.06"/>
    <polygon class="c" points="30.3 14.66 29.86 13.3 29.18 13.52 30.3 14.66"/>
    <polygon class="c" points="30.3 14.66 29.14 13.82 29.57 13.24 30.3 14.66"/>
    <polygon class="c" points="28.62 14.66 29.78 13.82 29.36 13.24 28.62 14.66"/>
    <polygon class="c" points="28.62 14.66 29.06 13.3 29.74 13.52 28.62 14.66"/>
    <polygon class="c" points="37.1 15.24 36.66 16.6 37.34 16.82 37.1 15.24"/>
    <polygon class="c" points="37.1 15.24 37.54 16.6 36.86 16.82 37.1 15.24"/>
    <polygon class="c" points="38.46 16.23 37.03 16.23 37.03 16.94 38.46 16.23"/>
    <polygon class="c" points="38.46 16.23 37.3 17.07 36.88 16.49 38.46 16.23"/>
    <polygon class="c" points="35.74 16.23 36.9 17.07 37.32 16.49 35.74 16.23"/>
    <polygon class="c" points="35.74 16.23 37.17 16.23 37.17 16.94 35.74 16.23"/>
    <polygon class="c" points="37.94 17.83 37.5 16.46 36.82 16.68 37.94 17.83"/>
    <polygon class="c" points="37.94 17.83 36.78 16.99 37.2 16.41 37.94 17.83"/>
    <polygon class="c" points="36.26 17.83 37.42 16.99 37 16.41 36.26 17.83"/>
    <polygon class="c" points="36.26 17.83 36.7 16.46 37.38 16.68 36.26 17.83"/>
    <polygon class="c" points="32.63 19.71 32.18 21.07 32.87 21.3 32.63 19.71"/>
    <polygon class="c" points="32.63 19.71 33.07 21.07 32.39 21.3 32.63 19.71"/>
    <polygon class="c" points="33.99 20.7 32.56 20.7 32.56 21.42 33.99 20.7"/>
    <polygon class="c" points="33.99 20.7 32.83 21.54 32.41 20.96 33.99 20.7"/>
    <polygon class="c" points="31.26 20.7 32.42 21.54 32.84 20.96 31.26 20.7"/>
    <polygon class="c" points="31.26 20.7 32.7 20.7 32.7 21.42 31.26 20.7"/>
    <polygon class="c" points="33.47 22.3 33.02 20.94 32.34 21.16 33.47 22.3"/>
    <polygon class="c" points="33.47 22.3 32.31 21.46 32.73 20.88 33.47 22.3"/>
    <polygon class="c" points="31.78 22.3 32.94 21.46 32.52 20.88 31.78 22.3"/>
    <polygon class="c" points="31.78 22.3 32.23 20.94 32.91 21.16 31.78 22.3"/>
    <polygon class="c" points="21.82 15.24 22.27 16.6 21.59 16.82 21.82 15.24"/>
    <polygon class="c" points="21.82 15.24 21.38 16.6 22.06 16.82 21.82 15.24"/>
    <polygon class="c" points="20.46 16.23 21.89 16.23 21.89 16.94 20.46 16.23"/>
    <polygon class="c" points="20.46 16.23 21.62 17.07 22.04 16.49 20.46 16.23"/>
    <polygon class="c" points="23.19 16.23 22.03 17.07 21.61 16.49 23.19 16.23"/>
    <polygon class="c" points="23.19 16.23 21.75 16.23 21.75 16.94 23.19 16.23"/>
    <polygon class="c" points="20.98 17.83 21.43 16.46 22.11 16.68 20.98 17.83"/>
    <polygon class="c" points="20.98 17.83 22.14 16.99 21.72 16.41 20.98 17.83"/>
    <polygon class="c" points="22.66 17.83 21.51 16.99 21.93 16.41 22.66 17.83"/>
    <polygon class="c" points="22.66 17.83 22.22 16.46 21.54 16.68 22.66 17.83"/>
    <polygon class="c" points="26.3 19.71 26.74 21.07 26.06 21.3 26.3 19.71"/>
    <polygon class="c" points="26.3 19.71 25.86 21.07 26.54 21.3 26.3 19.71"/>
    <polygon class="c" points="24.94 20.7 26.37 20.7 26.37 21.42 24.94 20.7"/>
    <polygon class="c" points="24.94 20.7 26.09 21.54 26.52 20.96 24.94 20.7"/>
    <polygon class="c" points="27.66 20.7 26.5 21.54 26.08 20.96 27.66 20.7"/>
    <polygon class="c" points="27.66 20.7 26.23 20.7 26.23 21.42 27.66 20.7"/>
    <polygon class="c" points="25.46 22.3 25.9 20.94 26.58 21.16 25.46 22.3"/>
    <polygon class="c" points="25.46 22.3 26.61 21.46 26.19 20.88 25.46 22.3"/>
    <polygon class="c" points="27.14 22.3 25.98 21.46 26.4 20.88 27.14 22.3"/>
    <polygon class="c" points="27.14 22.3 26.7 20.94 26.02 21.16 27.14 22.3"/>
  </g>
</svg>
