<svg xmlns="http://www.w3.org/2000/svg" xmlns:xlink="http://www.w3.org/1999/xlink" viewBox="0 0 58.92 34.37">
  <defs>
    <style>
      .a {
        fill: none;
      }

      .b {
        clip-path: url(#a);
      }

      .c {
        fill: #3564c2;
      }

      .d {
        fill: #fff;
      }

      .e {
        fill: #f5cd28;
      }

      .f {
        fill: #95d4fd;
      }

      .g {
        fill: #487ba2;
      }

      .h {
        fill: #c0003b;
      }

      .i {
        fill: #5b7133;
      }

      .j {
        fill: #263732;
      }

      .k {
        fill: #93c438;
      }

      .l {
        fill: #b0008a;
      }

      .m {
        fill: #f3cd2d;
      }

      .n {
        fill: #6091be;
      }

      .o {
        fill: #2f4791;
      }
    </style>
    <clipPath id="a" transform="translate(-668.7 -836.22)">
      <rect class="a" x="668.7" y="836.22" width="58.92" height="34.37"/>
    </clipPath>
  </defs>
  <title>Nicaragua</title>
  <g class="b">
    <rect class="c" y="22.92" width="58.92" height="11.46"/>
    <rect class="c" width="58.92" height="11.46"/>
    <rect class="d" y="11.46" width="58.92" height="11.46"/>
    <polygon class="e" points="26.01 19.18 29.46 13.2 32.92 19.18 26.01 19.18"/>
    <polygon class="f" points="26.35 18.98 29.46 13.59 32.58 18.98 26.35 18.98"/>
    <g class="b">
      <path class="f" d="M695.66,854.71h-0.13l-0.09,0v-0.06l0.11,0a1.81,1.81,0,0,0,.28,0,0.35,0.35,0,0,1-.17,0h0Z" transform="translate(-668.7 -836.22)"/>
      <path class="f" d="M695.37,855.09l-0.07,0a0.37,0.37,0,0,0,.11-0.11,0.24,0.24,0,0,1,.17,0l0.11,0a0.24,0.24,0,0,0,.21,0H696l-0.06.06a0.28,0.28,0,0,1-.26,0l-0.1,0a0.2,0.2,0,0,0-.12,0l-0.07.1h0Z" transform="translate(-668.7 -836.22)"/>
      <path class="f" d="M696,855.15h-0.24l-0.09,0v0h-0.12v0a0.29,0.29,0,0,1,.11,0h0.09a0.29,0.29,0,0,1,.24.07h0Z" transform="translate(-668.7 -836.22)"/>
      <path class="f" d="M696.84,854.68a0.16,0.16,0,0,1-.19-0.16,0.36,0.36,0,0,0-.19,0h-0.1l0-.06h0.1a0.3,0.3,0,0,1,.24,0c0,0.13.06,0.14,0.15,0.15a0.18,0.18,0,0,1,.09-0.06l0.08,0-0.14.09h0Z" transform="translate(-668.7 -836.22)"/>
      <polygon class="a" points="27.72 18.5 27.74 18.5 27.82 18.5 28.01 18.5 27.72 18.5"/>
      <path class="f" d="M696.64,855l-0.07,0a0.35,0.35,0,0,0,.11-0.11,0.28,0.28,0,0,1,.28-0.07,0.4,0.4,0,0,0,.22.12l0.13,0h0.1a0.1,0.1,0,0,1-.08.07h-0.14a0.33,0.33,0,0,1-.21-0.09,0.21,0.21,0,0,0-.25,0l-0.08.11h0Z" transform="translate(-668.7 -836.22)"/>
      <path class="f" d="M697.27,855.2a0.52,0.52,0,0,1-.22-0.06l-0.08,0a0.2,0.2,0,0,1-.07,0l0,0h0a0.11,0.11,0,0,1,.07-0.05l0.11,0a0.5,0.5,0,0,0,.2.05h0.08l0.11,0a0.13,0.13,0,0,1-.1.07h-0.09Z" transform="translate(-668.7 -836.22)"/>
      <path class="f" d="M698,854.57a0.78,0.78,0,0,0-.27,0h-0.11l0-.06h0.1a0.85,0.85,0,0,1,.3,0h0.28l-0.29.06h0Z" transform="translate(-668.7 -836.22)"/>
      <path class="f" d="M698.15,854.93a0.38,0.38,0,0,1-.21-0.08l-0.06,0a0.4,0.4,0,0,0-.23-0.08l-0.08,0,0,0h0a0.1,0.1,0,0,1,.07-0.06,0.45,0.45,0,0,1,.28.09l0.06,0a0.32,0.32,0,0,0,.18.07l0.14-.06,0,0.08a0.16,0.16,0,0,1-.09,0h0Z" transform="translate(-668.7 -836.22)"/>
      <path class="f" d="M698.29,855.08a0.67,0.67,0,0,1-.22,0,0.2,0.2,0,0,0-.2,0l0,0a0.25,0.25,0,0,1,.26,0,0.76,0.76,0,0,0,.25,0l0.1,0,0.13-.07h0.08l-0.06.06a0.39,0.39,0,0,1-.12.07l-0.09,0h-0.1Z" transform="translate(-668.7 -836.22)"/>
      <path class="f" d="M699,854.72a0.74,0.74,0,0,0-.29,0l0,0,0,0a0.74,0.74,0,0,1,.3,0,0.32,0.32,0,0,0,.15-0.12l0-.05a0.46,0.46,0,0,1,.24,0,0.64,0.64,0,0,1-.22,0,0.34,0.34,0,0,1-.22.18h0Z" transform="translate(-668.7 -836.22)"/>
      <path class="f" d="M699.13,855l0-.05,0.15,0a0.09,0.09,0,0,1,.15,0l0.07,0a0.35,0.35,0,0,0,.18-0.19,0.23,0.23,0,0,1-.17.25,0.24,0.24,0,0,1-.11,0s0,0-.09,0l-0.16,0h0Z" transform="translate(-668.7 -836.22)"/>
      <path class="f" d="M699.38,854.82l0,0h0s0,0,.06-0.08l0.05,0a0.21,0.21,0,0,1,.15-0.08c0.05-.07.11,0,0.15,0a0.13,0.13,0,0,0-.13,0,0.21,0.21,0,0,0-.13.07l-0.06.05-0.1.07h0Z" transform="translate(-668.7 -836.22)"/>
      <path class="f" d="M699.82,855.05h-0.06s0-.16.06-0.21a0.15,0.15,0,0,1,.26.06l0.1,0L700.3,855a0.12,0.12,0,0,1-.15,0l-0.1-.05a0.22,0.22,0,0,0-.09-0.1,0.17,0.17,0,0,0-.1,0l0,0.19h0Z" transform="translate(-668.7 -836.22)"/>
      <path class="f" d="M700.33,854.72a0.36,0.36,0,0,0-.18-0.21,0.33,0.33,0,0,1,0,.12l-0.07,0a0.42,0.42,0,0,0,.09-0.13,0.23,0.23,0,0,1,.21.18,0.21,0.21,0,0,0,.2,0c0,0.1-.1.11-0.21,0.11h0Z" transform="translate(-668.7 -836.22)"/>
      <path class="f" d="M701,855a0.23,0.23,0,0,1-.15-0.07,0.27,0.27,0,0,0-.1-0.07s-0.08,0-.13.1l-0.05,0a0.25,0.25,0,0,1,.14-0.16l0.07,0a0.25,0.25,0,0,1,.1.07L701,855s0-.05.07-0.06,0,0.07-.05.1h0Z" transform="translate(-668.7 -836.22)"/>
      <path class="f" d="M698.77,855.09l0,0h0a0.1,0.1,0,0,1,.07-0.06,0.54,0.54,0,0,0,.18-0.2,0.42,0.42,0,0,1,.15,0l0.15,0a0.15,0.15,0,0,1-.16,0l-0.12,0a0.36,0.36,0,0,1-.15.19l-0.12.07h0Z" transform="translate(-668.7 -836.22)"/>
      <path class="f" d="M696.11,854.73h-0.05a0.2,0.2,0,0,1,.14-0.12,0.1,0.1,0,0,1,.12,0l0.06,0.07-0.08,0h-0.08l-0.11.07h0Z" transform="translate(-668.7 -836.22)"/>
      <path class="f" d="M696.43,855l-0.06,0-0.09,0-0.08,0,0,0h0a0.1,0.1,0,0,1,.07-0.06,0.25,0.25,0,0,1,.13,0,0.31,0.31,0,0,0,.1,0,0.11,0.11,0,0,1-.07,0h0Z" transform="translate(-668.7 -836.22)"/>
      <polygon class="d" points="29.48 17.76 29.45 13.64 29.48 13.64 29.48 17.76 29.48 17.76"/>
      <polygon class="d" points="27.98 16.19 27.98 16.16 30.95 16.16 27.98 16.19 27.98 16.19"/>
      <polygon class="d" points="31.7 17.46 28.36 15.57 28.38 15.54 31.7 17.46 31.7 17.46"/>
      <polygon class="d" points="27.24 17.49 30.58 15.53 30.6 15.55 27.24 17.49 27.24 17.49"/>
      <polygon class="d" points="28.8 17.36 28.78 17.35 30.04 15.17 28.8 17.36 28.8 17.36"/>
      <polygon class="d" points="30.26 17.53 28.83 15.11 28.86 15.1 30.26 17.53 30.26 17.53"/>
      <path class="f" d="M698.62,852.4a0.46,0.46,0,1,1-.46-0.46,0.46,0.46,0,0,1,.46.46h0Z" transform="translate(-668.7 -836.22)"/>
      <path class="g" d="M700.71,854.23l-1.54,0a0.27,0.27,0,0,0,.11.23,7,7,0,0,1,1.43.09,4.9,4.9,0,0,1-1.24.16,6,6,0,0,1,1.2.08,1.6,1.6,0,0,1-.58.12,3.78,3.78,0,0,1,.88.07c0.07,0.09-.34.14-0.34,0.14l0.64,0.06-0.56-1h0Z" transform="translate(-668.7 -836.22)"/>
      <path class="h" d="M697.93,852.1a1,1,0,0,1,.1.16,1,1,0,0,1-.14.25,0.25,0.25,0,0,0,.38.19,0.31,0.31,0,0,0,.11-0.44c-0.16-.11-0.27-0.27-0.45-0.16h0Z" transform="translate(-668.7 -836.22)"/>
      <path d="M698.22,852.69a0.44,0.44,0,0,0-.13-0.13,0.21,0.21,0,0,0-.15,0,0.05,0.05,0,0,1,0,0h0v-0.05a0.2,0.2,0,0,1,.17,0,0.25,0.25,0,0,1,.12.14h0Z" transform="translate(-668.7 -836.22)"/>
      <path class="i" d="M696.84,853a0.34,0.34,0,0,1,.29.21c0.06,0,.22.05,0.26,0.08l0.2,0.13a0.39,0.39,0,0,1,.15-0.21,1.47,1.47,0,0,1,.43.22s0-.22.13-0.2a5.41,5.41,0,0,1,.56.38,0.22,0.22,0,0,1,.12-0.16,1.09,1.09,0,0,1,.44.18,0.24,0.24,0,0,1,.11-0.17,12.22,12.22,0,0,1,1,.73,0.68,0.68,0,0,1-.24.1,0.07,0.07,0,0,1,0,.09,7.3,7.3,0,0,1-.95,0,0.13,0.13,0,0,1,0,.08s-4,.06-4,0.06a4.16,4.16,0,0,1,1.42-1.54h0Z" transform="translate(-668.7 -836.22)"/>
      <path class="j" d="M698.4,854.54c0.14,0,0-.42-0.72-1,1.2,0.83.44,0.95,1.67,1l-0.95,0h0Z" transform="translate(-668.7 -836.22)"/>
      <path class="j" d="M698.21,853.51l1.18,0.92h0.24a6.59,6.59,0,0,1-1.42-.93h0Z" transform="translate(-668.7 -836.22)"/>
      <path class="j" d="M698.88,853.68a3.7,3.7,0,0,1,.8.75,4.41,4.41,0,0,0,.64,0c-0.62,0-.49-0.06-1.44-0.75h0Z" transform="translate(-668.7 -836.22)"/>
      <path class="j" d="M699.46,853.71l0.85,0.63,0.2-.07c-0.25,0-.3-0.08-1-0.56h0Z" transform="translate(-668.7 -836.22)"/>
      <path class="k" d="M697,853.12c0.06,0,.08.13,0.12,0.15a2.75,2.75,0,0,1,.65.43,1,1,0,0,1,.43.54,0.26,0.26,0,0,1-.23-0.09s0.16,0.27-.05.28a2.31,2.31,0,0,1-.75-0.78s0.26,0.73-.07.7-0.29-.55-0.29-0.55a0.48,0.48,0,0,1-.15.24,0.56,0.56,0,0,1,0-.32,1.27,1.27,0,0,1-.52.55,1.72,1.72,0,0,1,.86-1.16h0Z" transform="translate(-668.7 -836.22)"/>
      <path class="k" d="M697.76,853.33c0-.06,0,0,0.16,0a5.75,5.75,0,0,1,1,.86,2.29,2.29,0,0,1-1.2-.88h0Z" transform="translate(-668.7 -836.22)"/>
      <path class="k" d="M698.46,853.45a2.53,2.53,0,0,0,.94.76,2.61,2.61,0,0,0-.94-0.76h0Z" transform="translate(-668.7 -836.22)"/>
      <path class="k" d="M699,853.53a2.57,2.57,0,0,0,1,.75,2.28,2.28,0,0,0-1-.75h0Z" transform="translate(-668.7 -836.22)"/>
      <path class="k" d="M699.54,853.57a2.24,2.24,0,0,0,.75.59,1.33,1.33,0,0,0-.75-0.59h0Z" transform="translate(-668.7 -836.22)"/>
      <path class="l" d="M696.93,851.95a1.66,1.66,0,0,1,2.46,0l-0.19-.33a1.62,1.62,0,0,0-2.09,0Z" transform="translate(-668.7 -836.22)"/>
      <path class="h" d="M699.09,851.42a1.5,1.5,0,0,0-.93-0.29,1.48,1.48,0,0,0-.93.29l-0.15.26a1.64,1.64,0,0,1,2.17,0Z" transform="translate(-668.7 -836.22)"/>
      <path class="m" d="M699,851.19a1.44,1.44,0,0,0-.81-0.23,1.35,1.35,0,0,0-.78.21l-0.16.28a1.64,1.64,0,0,1,1.89,0Z" transform="translate(-668.7 -836.22)"/>
      <path class="k" d="M698.83,851l0.15,0.25a1.46,1.46,0,0,0-.82-0.22,1.43,1.43,0,0,0-.82.24l0.15-.26a1.19,1.19,0,0,1,.67-0.15,1.23,1.23,0,0,1,.67.14h0Z" transform="translate(-668.7 -836.22)"/>
      <path class="n" d="M698.73,850.8l0.12,0.21a1.66,1.66,0,0,0-.69-0.15,1.55,1.55,0,0,0-.71.19l0.12-.21a1.21,1.21,0,0,1,.59-0.13,1.51,1.51,0,0,1,.57.08h0Z" transform="translate(-668.7 -836.22)"/>
      <path class="o" d="M698.66,850.68l0.1,0.17a1.53,1.53,0,0,0-1.2,0l0.1-.18a1.59,1.59,0,0,1,.5-0.07,1.46,1.46,0,0,1,.5.07h0Z" transform="translate(-668.7 -836.22)"/>
      <path class="d" d="M697.4,854.63l1.56,0a0.77,0.77,0,0,0-.26.06,3.37,3.37,0,0,0,.55,0,1.28,1.28,0,0,0-.34.06,0.3,0.3,0,0,0,.16,0,1,1,0,0,0-.3.06,1.62,1.62,0,0,0,.36,0,2.13,2.13,0,0,0-.51,0,1.22,1.22,0,0,0,.35.12l-2,0a0.65,0.65,0,0,0,.32-0.11A0.32,0.32,0,0,0,697,855a6.62,6.62,0,0,0,.87,0s-0.17-.07-0.17-0.07a1.18,1.18,0,0,0,.35,0,1.61,1.61,0,0,0-.44-0.1,0.79,0.79,0,0,0,.31,0,1.72,1.72,0,0,0-.51-0.1h0Z" transform="translate(-668.7 -836.22)"/>
      <path class="g" d="M697.11,854.67a12,12,0,0,0-1.66.13,2.33,2.33,0,0,0,.85.17,4.69,4.69,0,0,0-1.1.1,1.2,1.2,0,0,0,.61.08l-0.76.05,0.37-.63Z" transform="translate(-668.7 -836.22)"/>
      <path class="m" d="M693.7,854.77a0.1,0.1,0,0,1-.07.13,0.1,0.1,0,0,1-.06-0.19,0.1,0.1,0,0,1,.13.07h0Z" transform="translate(-668.7 -836.22)"/>
      <circle class="a" cx="693.6" cy="854.8" r="0.1" transform="translate(-894.07 -587.43) rotate(-17.54)"/>
      <path class="m" d="M693.86,855.74a0.14,0.14,0,0,0-.07.18l0,0-0.17-.35,0,0c0,0.06.05,0.07,0.08,0.06l0.05,0,0.1-.09-0.12-.25h-0.07l-0.09,0a0.09,0.09,0,0,0,0,.13l0,0-0.12-.26,0,0a0.21,0.21,0,0,0,.22.07l0.6-.05,0.11,0.12Zm0.31-.53-0.37,0,0.1,0.22Z" transform="translate(-668.7 -836.22)"/>
      <path d="M693.75,855.94l-0.16-.35,0,0,0.13,0.32,0,0a0.12,0.12,0,0,1,.05-0.17l0.51-.48-0.12-.12-0.67.06a0.19,0.19,0,0,1-.11,0l0.11,0,0.67-.06,0.12,0.13-0.5.48c-0.06.06-.1,0.09-0.06,0.18l0,0h0Zm-0.07-.3,0,0,0,0,0.17-.14-0.12-.25h-0.07l-0.09,0a0.09,0.09,0,0,0,0,.12l0,0a0.1,0.1,0,0,1,.05-0.08l0.08,0h0.09l0.13,0.26-0.18.14h0Z" transform="translate(-668.7 -836.22)"/>
      <path class="m" d="M694.4,856.61a0.09,0.09,0,0,0,0,.15l0,0-0.23-.32,0,0c0,0.06.08,0.07,0.14,0l0.46-.34h0l-0.71.22,0,0,0.41-.61h0l-0.36.27c-0.14.11-.15,0.13-0.1,0.21l0,0-0.16-.23,0,0c0.07,0.07.09,0.07,0.23,0l0.34-.25a0.09,0.09,0,0,0,0-.15l0,0,0.19,0.26-0.3.44,0.51-.16L695,856.3l0,0c0-.06-0.08-0.08-0.14,0Z" transform="translate(-668.7 -836.22)"/>
      <path d="M694.35,856.78l-0.23-.32h0l0.19,0.3,0,0a0.09,0.09,0,0,1,0-.15l0.43-.31c0.05,0,.08,0,0.12,0l-0.05,0-0.49.34a0.08,0.08,0,0,0,0,.14l0,0h0Zm-0.12-.28-0.05,0h0.05l0.5-.35-0.43.33-0.07,0h0Zm-0.19-.15,0,0,0.68-.19h0l-0.71.23h0Zm1-.05h0l-0.14-.24-0.5.16,0.29-.45,0,0,0,0-0.3.45,0.5-.16,0.19,0.26h0Zm-1-.12,0,0a0.21,0.21,0,0,1,.14-0.17l0.36-.27h0l-0.35.27c-0.14.1-.15,0.12-0.1,0.21h0Zm-0.09-.17-0.06,0c0.07,0,.08,0,0.2-0.07l0.34-.25a0.08,0.08,0,0,0,0-.14l0,0a0.11,0.11,0,0,1-.06.1l-0.34.25a0.32,0.32,0,0,1-.15.08h0Z" transform="translate(-668.7 -836.22)"/>
      <path class="m" d="M694.53,856.9a0.09,0.09,0,0,0,.15,0l0.35-.4a0.09,0.09,0,0,0,0-.15l0,0,0.49,0.44-0.08.2h0a0.42,0.42,0,0,0-.11-0.34c-0.07-.07-0.09,0-0.15,0l-0.14.16v0a0.16,0.16,0,0,0,.23,0l0,0-0.21.24,0,0a0.17,0.17,0,0,0-.05-0.23l0,0-0.15.17s-0.06.08,0,.13a0.46,0.46,0,0,0,.37.1v0l-0.2.1-0.49-.44Z" transform="translate(-668.7 -836.22)"/>
      <path d="M695,857.37h0l-0.49-.44h0l0.45,0.44,0,0,0,0h0Zm0.16-.12h-0.05a0.43,0.43,0,0,1-.3-0.11,0.11,0.11,0,0,1,0-.14l0.15-.17a0.23,0.23,0,0,1,.1.16,0.25,0.25,0,0,0-.09-0.13l-0.16.16a0.1,0.1,0,0,0,0,.13,0.43,0.43,0,0,0,.37.1l0,0h0Zm-0.55-.31,0,0a0.1,0.1,0,0,0,.11,0l0.35-.4a0.1,0.1,0,0,0,0-.07,0.11,0.11,0,0,0,0-.07l0,0v0a0.11,0.11,0,0,1,0,.08l-0.35.4a0.1,0.1,0,0,1-.08,0h0Zm0.8-.13a0.45,0.45,0,0,0-.11-0.19c-0.07-.06-0.09,0-0.14,0l-0.06.06,0-.07c0.05-.06.08-0.09,0.15,0a0.35,0.35,0,0,1,.11.2h0Z" transform="translate(-668.7 -836.22)"/>
      <path class="m" d="M695.79,857.67a0.22,0.22,0,0,0,.07.22l0,0-0.23-.14a0.93,0.93,0,0,1,0-.1l0-.15c0-.15,0-0.19,0-0.21l-0.13.21a0.09,0.09,0,0,0,0,.14l0,0-0.33-.21,0,0c0.07,0,.1,0,0.14,0l0.28-.45a0.09,0.09,0,0,0,0-.14l0,0,0.4,0.25a0.23,0.23,0,0,1,.11.31,0.21,0.21,0,0,1-.28.05,0.28,0.28,0,0,1,0,.12v0.13Zm-0.16-.4c0.15,0.1.23,0.08,0.29,0a0.15,0.15,0,0,0-.07-0.22c-0.06,0-.08,0-0.11,0l-0.12.2h0Z" transform="translate(-668.7 -836.22)"/>
      <path d="M695.83,857.93l-0.23-.14a0.39,0.39,0,0,1,0-.09l0-.17c0-.15,0-0.19,0-0.21l-0.12.21a0.08,0.08,0,0,0,0,.14l-0.06,0a0.11,0.11,0,0,1,0-.11l0.13-.21s0.08,0.06.06,0.22l0,0.15a0.77,0.77,0,0,0,0,.1l0.22,0.14,0,0a0.21,0.21,0,0,1-.07-0.22v-0.13a0.26,0.26,0,0,0,0-.12,0.23,0.23,0,0,0,.28-0.06,0.22,0.22,0,0,0-.11-0.31l-0.09-.06,0.1,0a0.24,0.24,0,0,1,.12.32,0.22,0.22,0,0,1-.29.06,0.15,0.15,0,0,1,0,.1v0.15a0.22,0.22,0,0,0,.06.21l0,0h0Zm-0.6-.44h0a0.09,0.09,0,0,0,.07-0.05l0.28-.45a0.08,0.08,0,0,0,0-.13l0.06,0a0.11,0.11,0,0,1,0,.11l-0.28.45a0.09,0.09,0,0,1-.08.06h0Zm0.56-.14h0a0.33,0.33,0,0,1-.17-0.06h0a0.38,0.38,0,0,0,.16.06h0a0.14,0.14,0,0,0,.12-0.08,0.14,0.14,0,0,0-.07-0.22l0,0a0.08,0.08,0,0,0-.06.05l-0.05.08,0-.09a0.09,0.09,0,0,1,.07-0.06l0.05,0a0.15,0.15,0,0,1,.08.23,0.15,0.15,0,0,1-.13.09h0Z" transform="translate(-668.7 -836.22)"/>
      <path class="m" d="M696.25,857.36a0.09,0.09,0,0,0-.06-0.14v0l0.36,0.16v0a0.08,0.08,0,0,0-.14,0l-0.22.48a0.09,0.09,0,0,0,.05.14v0l-0.36-.16v0a0.09,0.09,0,0,0,.14,0Z" transform="translate(-668.7 -836.22)"/>
      <path d="M696.23,858.1l-0.36-.16h0l0.34,0.16v0a0.08,0.08,0,0,1-.05-0.14l0.22-.48a0.09,0.09,0,0,1,.08-0.07h0.06l-0.06,0a0.08,0.08,0,0,0-.07.06l-0.22.48a0.08,0.08,0,0,0,.05.13l0,0h0Zm-0.33-.17,0.06,0a0.08,0.08,0,0,0,.07-0.06l0.22-.48c0-.07,0-0.1-0.05-0.13l0.06,0a0.1,0.1,0,0,1,0,.11l-0.22.48a0.09,0.09,0,0,1-.08.07H695.9Z" transform="translate(-668.7 -836.22)"/>
      <path class="m" d="M697.12,857.78h-0.05a0.33,0.33,0,0,0-.18-0.29,0.29,0.29,0,0,0-.3.26,0.31,0.31,0,0,0,.13.44,0.29,0.29,0,0,0,.27-0.08l0,0a0.37,0.37,0,0,1-.38.11,0.38,0.38,0,0,1-.23-0.49,0.42,0.42,0,0,1,.5-0.31l0.09,0,0.06,0h0.1v0.25Z" transform="translate(-668.7 -836.22)"/>
      <path d="M696.73,858.27l-0.11,0a0.39,0.39,0,0,1-.24-0.5,0.42,0.42,0,0,1,.5-0.32l0.09,0,0.06,0h0l-0.06,0-0.09,0a0.41,0.41,0,0,0-.49.31,0.38,0.38,0,0,0,.23.49,0.34,0.34,0,0,0,.27,0,0.26,0.26,0,0,1-.17.05h0Zm-0.13-.19a0.38,0.38,0,0,1,0-.34,0.36,0.36,0,0,1,.25-0.28l0.05,0h0a0.33,0.33,0,0,0-.28.26,0.41,0.41,0,0,0,0,.33h0Z" transform="translate(-668.7 -836.22)"/>
      <path class="m" d="M697.67,858.28c0,0.08,0,.14.11,0.16v0l-0.38-.06v0c0.07,0,.09,0,0.09,0a0.26,0.26,0,0,0,0-.07l0-.13-0.27,0,0,0.06a0.29,0.29,0,0,0,0,.09,0.09,0.09,0,0,0,.08.1v0l-0.29,0v0a0.21,0.21,0,0,0,.18-0.15l0.3-.53,0.16,0Zm-0.26-.56-0.18.33,0.24,0Z" transform="translate(-668.7 -836.22)"/>
      <path d="M697.77,858.48l-0.38-.06,0.1-.07a0,0,0,0,1-.05,0l0.33,0.08v0a0.12,0.12,0,0,1-.11-0.14l-0.1-.7-0.16,0-0.3.53a0.27,0.27,0,0,1-.11.13,0.44,0.44,0,0,0,.1-0.13l0.3-.53,0.17,0,0.1,0.69c0,0.09,0,.14.11,0.16v0h0Zm-0.56-.14h-0.05a0.1,0.1,0,0,1,0-.09,0.28,0.28,0,0,1,0-.09l0-.06,0.28,0,0,0.14a0.47,0.47,0,0,1,0,.06h0l0-.2-0.27,0,0,0.06a0.27,0.27,0,0,0,0,.09,0.09,0.09,0,0,0,.08.09h0Z" transform="translate(-668.7 -836.22)"/>
      <path class="m" d="M698.79,857.86l0,0a0.32,0.32,0,0,0-.28-0.2c-0.17,0-.19.22-0.18,0.35a0.31,0.31,0,0,0,.28.36,0.29,0.29,0,0,0,.22-0.17l0,0a0.37,0.37,0,0,1-.32.24,0.38,0.38,0,0,1-.39-0.37,0.42,0.42,0,0,1,.35-0.47h0.17l0.08,0h0Z" transform="translate(-668.7 -836.22)"/>
      <path d="M698.47,858.48a0.38,0.38,0,0,1-.37-0.38,0.43,0.43,0,0,1,.36-0.48,0.13,0.13,0,0,1,.1,0h0.07l0.07,0h0l-0.07,0h-0.15a0.42,0.42,0,0,0-.36.47,0.38,0.38,0,0,0,.36.37h0a0.33,0.33,0,0,0,.21-0.09,0.28,0.28,0,0,1-.21.1h0Zm0.09-.09a0.32,0.32,0,0,1-.28-0.37,0.29,0.29,0,0,1,.19-0.36h0a0.27,0.27,0,0,1,.2.1,0.3,0.3,0,0,0-.19-0.09c-0.2,0-.19.29-0.19,0.35a0.31,0.31,0,0,0,.26.36,0.28,0.28,0,0,0,.23-0.17l0,0.07a0.3,0.3,0,0,1-.2.11h0Z" transform="translate(-668.7 -836.22)"/>
      <path class="m" d="M698.94,858.38a0.09,0.09,0,0,0,.08-0.12l-0.12-.52a0.09,0.09,0,0,0-.13-0.07v0l0.64-.15,0.11,0.19,0,0a0.41,0.41,0,0,0-.34-0.1c-0.09,0-.09.05-0.07,0.13l0,0.21h0a0.16,0.16,0,0,0,.16-0.17h0l0.07,0.31h0a0.16,0.16,0,0,0-.22-0.09h0l0.05,0.23c0,0.06,0,.1.11,0.08a0.46,0.46,0,0,0,.29-0.25h0l0,0.22-0.64.15v0Z" transform="translate(-668.7 -836.22)"/>
      <path d="M698.95,858.42v0a0.13,0.13,0,0,0,.08,0,0.1,0.1,0,0,0,0-.08l-0.12-.52a0.07,0.07,0,0,0-.07-0.08h0a0.1,0.1,0,0,1,.06.08l0.12,0.52a0.11,0.11,0,0,1,0,.08,0.12,0.12,0,0,1-.08,0v0l0.64-.19v0l-0.65.16h0Zm0.34-.13a0.09,0.09,0,0,1-.1-0.09l-0.05-.23c0.17-.06.17,0,0.21,0a0.21,0.21,0,0,0-.18,0l0,0.23c0,0.06,0,.08.07,0.08a0.45,0.45,0,0,0,.32-0.25v0.05a0.55,0.55,0,0,1-.29.21h0Zm-0.18-.5,0-.08c0-.08,0-0.12.07-0.14a0.48,0.48,0,0,1,.24,0,0.56,0.56,0,0,0-.17,0c-0.16,0-.15.06-0.13,0.13l0,0.08h0Z" transform="translate(-668.7 -836.22)"/>
      <path class="m" d="M700.31,857.71l-0.15-.34c0-.08-0.07-0.13-0.17-0.09l0,0,0.26-.12,0,0c-0.09.06-.08,0.1,0,0.19l0.24,0.56-0.09,0-0.65-.4,0.17,0.39c0,0.11.07,0.13,0.18,0.1v0l-0.28.13,0,0a0.12,0.12,0,0,0,.05-0.19l-0.2-.46a0.23,0.23,0,0,0-.14,0v0l0.25-.11Z" transform="translate(-668.7 -836.22)"/>
      <path d="M699.8,858.21l0,0a0.12,0.12,0,0,0,.05-0.19l-0.2-.46-0.1,0,0,0,0.14,0,0.2,0.47a0.12,0.12,0,0,1-.06.2v0l0.06,0-0.06,0h0Zm0.24-.15h0a0.13,0.13,0,0,1-.12-0.12l-0.17-.39,0.66,0.39,0.09,0-0.25-.55a0.15,0.15,0,0,1,0-.14,0.19,0.19,0,0,0,0,.14l0.24,0.56-0.09,0-0.66-.4,0.17,0.38c0,0.11.05,0.13,0.18,0.1l0,0h0Zm0.28-.35-0.58-.35-0.24.11h0l0.25-.11,0.58,0.36-0.15-.33a0.12,0.12,0,0,0-.1-0.11l0,0h0a0.13,0.13,0,0,1,.11.11l0.15,0.34h0Z" transform="translate(-668.7 -836.22)"/>
      <path class="m" d="M700.83,856.72l0.17,0.15,0,0a0.37,0.37,0,0,0-.32,0l0.35,0.52a0.08,0.08,0,0,0,.14,0l0,0-0.32.22,0,0a0.09,0.09,0,0,0,0-.14l-0.35-.52a0.38,0.38,0,0,0-.1.3h0l-0.08-.21Z" transform="translate(-668.7 -836.22)"/>
      <path d="M700.84,857.7l0,0c0.06-.05.07-0.08,0-0.14L700.5,857a0.4,0.4,0,0,0-.09.3l0,0a0.47,0.47,0,0,1,.12-0.26l0.36,0.52a0.09,0.09,0,0,1,0,.15v0l0.07-.05-0.07.06h0Zm0.23-.23a0.1,0.1,0,0,1-.08-0.05l-0.35-.52a0.27,0.27,0,0,1,.25,0,0.46,0.46,0,0,0-.24,0l0.35,0.51c0,0.06.07,0.07,0.14,0l0,0h0Zm-0.78-.34,0,0,0.54-.38,0.18,0.15H701l-0.13-.15-0.53.38v0h0Z" transform="translate(-668.7 -836.22)"/>
      <path class="m" d="M701.76,856.68a0.22,0.22,0,0,0,.23,0l0,0-0.19.19-0.1,0-0.14-.05c-0.14-.05-0.18,0-0.21,0l0.17,0.18a0.09,0.09,0,0,0,.15,0l0,0-0.28.28,0,0a0.09,0.09,0,0,0,0-.15l-0.37-.38a0.09,0.09,0,0,0-.15,0l0,0,0.34-.33a0.2,0.2,0,1,1,.31.25,0.21,0.21,0,0,1,.12,0Zm-0.42.06c0.13-.13.13-0.21,0-0.29a0.14,0.14,0,0,0-.23,0c-0.05.05,0,.07,0,0.12l0.16,0.17v0Z" transform="translate(-668.7 -836.22)"/>
      <path d="M701.43,857.28l0,0c0.05-.06.06-0.09,0-0.15l-0.37-.38c-0.05-.05-0.08-0.05-0.14,0l0,0a0.09,0.09,0,0,1,.11,0l0.37,0.38a0.09,0.09,0,0,1,0,.15l0,0,0.06-.06-0.06.07h0Zm0.18-.26a0.11,0.11,0,0,1-.07,0l-0.17-.18c0-.05.09-0.06,0.22,0l0.24,0.09h0l0,0,0,0.05-0.24-.09a0.18,0.18,0,0,0-.21,0l0.17,0.17c0.05,0.05.08,0.05,0.14,0l0,0h0Zm-0.26-.27h0c0.13-.14.11-0.22,0-0.29s-0.14-.07-0.23,0,0,0.06,0,.11l0.07,0.07-0.08-.06s-0.06-.07,0-0.12,0.16-.1.24,0,0.08,0.18,0,.3h0Zm0.54,0-0.12,0-0.12,0-0.09,0h0l0.08,0,0.13,0a0.23,0.23,0,0,0,.22,0l0,0h-0.07Zm-0.32-.16a0.22,0.22,0,0,0,0-.23,0.22,0.22,0,0,0-.32,0l-0.08.07,0.07-.08a0.23,0.23,0,0,1,.34,0,0.2,0.2,0,0,1,0,.23h0Z" transform="translate(-668.7 -836.22)"/>
      <path class="m" d="M702.32,856a0.13,0.13,0,0,0,.19,0l0,0-0.22.31,0,0c0-.06,0-0.08,0-0.1l-0.06,0-0.13,0-0.16.23,0,0.06a0.26,0.26,0,0,0,.06.07,0.09,0.09,0,0,0,.12,0l0,0-0.17.24,0,0a0.22,0.22,0,0,0,0-.23l-0.34-.51,0.05-.16Zm-0.61,0,0.21,0.31,0.14-.2Z" transform="translate(-668.7 -836.22)"/>
      <path d="M702,856.67l0,0a0.23,0.23,0,0,0-.05-0.23l-0.34-.51,0-.16,0.66,0.21c0.1,0,.14,0,0.18,0l0,0a0.2,0.2,0,0,1-.15,0l-0.66-.22,0,0.16,0.34,0.5a0.22,0.22,0,0,1,.05.23l0,0,0-.05,0,0.06h0Zm0.06-.21a0.22,0.22,0,0,1-.11-0.09l0-.06,0.16-.23,0.13,0,0.05,0-0.18-.07-0.16.22,0,0.06,0.06,0.07a0.1,0.1,0,0,0,.11,0l0,0-0.06,0h0Zm-0.17-.2-0.23-.32,0.36,0.12-0.14.21h0Z" transform="translate(-668.7 -836.22)"/>
      <path class="m" d="M702.52,855.89a0.09,0.09,0,0,0,0-.14l-0.47-.24a0.09,0.09,0,0,0-.14.05l0,0,0.17-.35,0,0a0.09,0.09,0,0,0,0,.14l0.47,0.24c0.06,0,.08,0,0.12,0a0.46,0.46,0,0,0,0-.38l0,0,0.16,0.16-0.29.6Z" transform="translate(-668.7 -836.22)"/>
      <path d="M702.56,855.91l0,0c0-.08,0-0.11,0-0.14l-0.47-.24c-0.08,0-.11,0-0.13,0l0-.06,0.05,0,0.53,0.26a0.09,0.09,0,0,1,0,.15h0l0.29-.6,0,0,0,0-0.29.61h0Zm0.07-.3-0.54-.26a0.09,0.09,0,0,1-.07-0.09,0.12,0.12,0,0,0,.07.08l0.47,0.24c0.08,0,.09,0,0.11,0a0.45,0.45,0,0,0,0-.38l0,0a0.49,0.49,0,0,1,0,.36,0.08,0.08,0,0,1-.06.06h0Z" transform="translate(-668.7 -836.22)"/>
      <path class="m" d="M702.6,854.77a0.1,0.1,0,1,1,.07.13,0.1,0.1,0,0,1-.07-0.13h0Z" transform="translate(-668.7 -836.22)"/>
      <path d="M702.7,854.9h0a0.11,0.11,0,0,1-.07-0.13,0.1,0.1,0,0,1,.1-0.07,0.11,0.11,0,0,1,.1.14,0.1,0.1,0,0,1-.1.07h0Z" transform="translate(-668.7 -836.22)"/>
      <path class="m" d="M693.7,853.78a0.22,0.22,0,0,0,.12-0.2h0l0,0.27-0.08.06-0.12.09c-0.13.09-.13,0.13-0.13,0.18l0.24,0a0.09,0.09,0,0,0,.08-0.12h0l0.06,0.39h0a0.09,0.09,0,0,0-.12-0.09l-0.52.08a0.09,0.09,0,0,0-.08.12h0l-0.07-.47a0.23,0.23,0,0,1,.16-0.29,0.22,0.22,0,0,1,.23.18,0.23,0.23,0,0,1,.09-0.08Zm-0.19.38c0-.18-0.09-0.22-0.21-0.21s-0.14.08-.12,0.2,0,0.07.1,0.06l0.23,0v0Z" transform="translate(-668.7 -836.22)"/>
      <path d="M693.19,854.52l-0.07-.47a0.23,0.23,0,0,1,.16-0.3,0.24,0.24,0,0,1,.23.18,0.16,0.16,0,0,1,.07-0.08l0.11-.08a0.21,0.21,0,0,0,.12-0.19l0,0.05a0.36,0.36,0,0,1-.13.14l-0.11.08a0.25,0.25,0,0,0-.08.08,0.26,0.26,0,0,0-.2-0.18,0.22,0.22,0,0,0-.18.29l0.07,0.46h0a0.09,0.09,0,0,1,0-.08,0.1,0.1,0,0,1,.08,0l0.52-.08a0.1,0.1,0,0,1,.1,0,0.1,0.1,0,0,0-.07,0l-0.55.09a0.11,0.11,0,0,0-.07,0,0.11,0.11,0,0,0,0,.08h0Zm0.07-.3a0.07,0.07,0,0,1-.09-0.07,0.21,0.21,0,0,1,0-.16,0.16,0.16,0,0,1,.1-0.05h0c0.1,0,.15.06,0.17,0.21h0c0-.15-0.08-0.21-0.16-0.21h0a0.14,0.14,0,0,0-.1.05,0.19,0.19,0,0,0,0,.15c0,0.05,0,.06.05,0.06l0.15,0-0.1,0h0Zm0.3,0c0-.05,0-0.1.13-0.19l0.12-.09,0.08-.06v0l0,0-0.06.05-0.15.1c-0.13.09-.13,0.13-0.12,0.17l0.23,0c0.07,0,.09,0,0.08-0.12l0,0.07a0.11,0.11,0,0,1-.09.06l-0.24,0h0Z" transform="translate(-668.7 -836.22)"/>
      <path class="m" d="M693.83,853.54a0.09,0.09,0,0,0-.1-0.11l-0.53,0a0.09,0.09,0,0,0-.1.11h0l0-.67,0.21-.06v0a0.42,0.42,0,0,0-.19.31c0,0.1,0,.1.11,0.1h0.21v0a0.16,0.16,0,0,0-.12-0.2v0h0.32v0a0.17,0.17,0,0,0-.14.19v0h0.23c0.06,0,.11,0,0.11-0.08a0.46,0.46,0,0,0-.16-0.35l0,0,0.2,0.09,0,0.66h0Z" transform="translate(-668.7 -836.22)"/>
      <path d="M693.87,853.54h0c0-.08,0-0.11-0.1-0.11l-0.53,0a0.09,0.09,0,0,0-.1.1v-0.07a0.1,0.1,0,0,1,.09,0l0.54,0a0.09,0.09,0,0,1,.1.12h0l0-.66h0l0,0.68h0Zm-0.13-.29H693.5a0.23,0.23,0,0,1,.05-0.18,0.25,0.25,0,0,0,0,.15l0.22,0h0c0.07,0,.1,0,0.1-0.07a0.47,0.47,0,0,0-.16-0.35h0a0.55,0.55,0,0,1,.13.34,0.08,0.08,0,0,1-.1.09h0Zm-0.51,0c-0.08,0-.12,0-0.11-0.11a0.37,0.37,0,0,1,.09-0.21,0.46,0.46,0,0,0-.08.21c0,0.09,0,.09.1,0.1h0Z" transform="translate(-668.7 -836.22)"/>
      <path class="m" d="M693.6,852.39l0.23,0.05c0.07,0,.1,0,0.12-0.08h0l-0.08.39h0a0.08,0.08,0,0,0-.08-0.12l-0.51-.12a0.08,0.08,0,0,0-.12.08h0l0.09-.39c0.05-.24.17-0.31,0.28-0.29s0.17,0.24.14,0.39Zm0,0v-0.06a0.16,0.16,0,0,0-.13-0.23,0.15,0.15,0,0,0-.2.13c0,0.09,0,.1.09,0.11Z" transform="translate(-668.7 -836.22)"/>
      <path d="M693.9,852.76h0a0.14,0.14,0,0,0,0-.09,0.11,0.11,0,0,0-.07,0l-0.51-.12c-0.08,0-.1,0-0.11.08v-0.06a0.08,0.08,0,0,1,.07,0l0.56,0.12a0.11,0.11,0,0,1,.07,0,0.12,0.12,0,0,1,0,.09h0l0-.09v0.1h0Zm0-.31h0l-0.27-.06,0-.1c0-.17,0-0.35-0.13-0.39a0.28,0.28,0,0,0-.27.28l0,0.09v-0.09a0.3,0.3,0,0,1,.24-0.29c0.23,0,.22.23,0.19,0.4l0,0.09,0.22,0c0.08,0,.1,0,0.11-0.08v0.06a0.09,0.09,0,0,1-.07,0h0Zm-0.54-.12c-0.07,0-.11,0-0.09-0.12a0.15,0.15,0,0,1,.15-0.14h0.06a0.16,0.16,0,0,1,.13.23h0c0-.15,0-0.2-0.13-0.22h-0.05a0.14,0.14,0,0,0-.14.13c0,0.08,0,.09.08,0.11h0Z" transform="translate(-668.7 -836.22)"/>
      <path class="m" d="M693.89,851.72c0.18,0.08.26,0,.3-0.07a0.21,0.21,0,0,0-.16-0.29l-0.35-.14a0.08,0.08,0,0,0-.13.06h0l0.1-.25h0a0.09,0.09,0,0,0,.05.14l0.36,0.15a0.26,0.26,0,0,1,.16.39,0.27,0.27,0,0,1-.37.2l-0.38-.16c-0.07,0-.1,0-0.13.06h0l0.15-.37h0a0.09,0.09,0,0,0,.05.14Z" transform="translate(-668.7 -836.22)"/>
      <path d="M694,851.93l-0.11,0-0.38-.16a0.09,0.09,0,0,0-.13.06l0-.06,0.06,0,0.44,0.17a0.27,0.27,0,0,0,.36-0.2,0.31,0.31,0,0,0,0-.24,0.29,0.29,0,0,0-.17-0.14l-0.36-.15a0.11,0.11,0,0,1-.07-0.05,0.07,0.07,0,0,1,0-.05v0a0.1,0.1,0,0,0,.06,0l0.36,0.15a0.3,0.3,0,0,1,.18.15,0.32,0.32,0,0,1,0,.25,0.3,0.3,0,0,1-.26.23h0Zm0.09-.16h0a0.42,0.42,0,0,1-.16,0l-0.36-.15a0.09,0.09,0,0,1-.07-0.08,0.11,0.11,0,0,0,.07.07l0.36,0.15a0.4,0.4,0,0,0,.16,0h0a0.14,0.14,0,0,0,.14-0.11c0.05-.13,0-0.22-0.16-0.29l-0.35-.15c-0.09,0-.11,0-0.13.06v-0.05l0.06,0,0.41,0.16c0.17,0.07.22,0.16,0.16,0.3a0.15,0.15,0,0,1-.15.11h0Z" transform="translate(-668.7 -836.22)"/>
      <path class="m" d="M694.33,851.36l0,0a0.09,0.09,0,0,0,0-.14l-0.44-.29a0.09,0.09,0,0,0-.14,0l0,0,0.21-.34c0.15-.24.25-0.24,0.34-0.19a0.22,0.22,0,0,1,0,.28h0a0.24,0.24,0,0,1,.31-0.09c0.11,0.07.13,0.2,0,.38Zm-0.2-.54c0.07-.12.07-0.2,0-0.26a0.14,0.14,0,0,0-.22.06,0.12,0.12,0,0,0,0,.08,0.08,0.08,0,0,0,0,0l0.2,0.13Zm0.2,0.21c0.08,0.05.11,0.08,0.17,0a0.17,0.17,0,0,0-.06-0.26c-0.08-.05-0.16-0.07-0.27.11l0,0.05Z" transform="translate(-668.7 -836.22)"/>
      <path d="M694.33,851.37l0,0c0-.07,0-0.11,0-0.14l-0.44-.29c-0.09,0-.11,0-0.14,0l0-.05h0l0.07,0,0.44,0.29a0.09,0.09,0,0,1,0,.15h0l0.25-.4c0.11-.17.1-0.29,0-0.37a0.25,0.25,0,0,0-.31.09h0a0.24,0.24,0,0,1,.31-0.09c0.12,0.08.13,0.21,0,.38l-0.25.4h0Zm0.1-.29a0.2,0.2,0,0,1-.09,0l-0.2-.13c0.14-.24.2-0.24,0.31-0.17a0.18,0.18,0,0,1,.07.27,0.11,0.11,0,0,1-.08.07h0Zm-0.08-.37a0.23,0.23,0,0,0-.17.14l0.16,0.17c0.09,0.05.11,0.07,0.17,0a0.17,0.17,0,0,0-.06-0.26,0.18,0.18,0,0,0-.09,0h0Zm-0.21.11h0c0.07-.13.05-0.2,0-0.25a0.13,0.13,0,0,0-.21.06l0,0a0.09,0.09,0,0,1,0-.05,0.15,0.15,0,0,1,.23-0.06c0.1,0.06.11,0.14,0,.26h0Zm-0.31-.15,0-.08c0.13-.2.23-0.26,0.34-0.19a0.22,0.22,0,0,1,0,.27,0.24,0.24,0,0,0-.05-0.26c-0.11-.07-0.21,0-0.33.19l0,0.08h0Z" transform="translate(-668.7 -836.22)"/>
      <path class="m" d="M694.74,850.65a0.09,0.09,0,0,0,0-.15l-0.39-.36c-0.06-.05-0.09,0-0.14,0l0,0,0.26-.29,0,0a0.09,0.09,0,0,0,0,.15l0.39,0.36s0.07,0.06.12,0a0.46,0.46,0,0,0,.08-0.37h0l0.12,0.2-0.44.49Z" transform="translate(-668.7 -836.22)"/>
      <path d="M694.77,850.68l0,0a0.14,0.14,0,0,0,0-.08,0.1,0.1,0,0,0,0-.06l-0.39-.36c-0.06-.05-0.08,0-0.14,0l0,0a0.09,0.09,0,0,1,.11,0l0.39,0.36a0.1,0.1,0,0,1,0,.07,0.12,0.12,0,0,1,0,.08l0,0,0.44-.49,0,0,0,0-0.45.5h0Zm0.15-.27a0.11,0.11,0,0,1-.07,0l-0.39-.36a0.09,0.09,0,0,1,0-.1,0.12,0.12,0,0,0,0,.09l0.39,0.36a0.11,0.11,0,0,0,.06,0,0.41,0.41,0,0,0,.14-0.41l0,0a0.5,0.5,0,0,1-.1.34,0.09,0.09,0,0,1-.06,0h0Z" transform="translate(-668.7 -836.22)"/>
      <path class="m" d="M694.93,849.55a0.08,0.08,0,0,0-.14,0l0,0,0.3-.25,0,0a0.09,0.09,0,0,0,0,.15l0.33,0.41a0.09,0.09,0,0,0,.15,0l0,0-0.3.25,0,0a0.09,0.09,0,0,0,0-.15Z" transform="translate(-668.7 -836.22)"/>
      <path d="M695.27,850.14l0,0c0.06-.06.06-0.09,0-0.15l-0.34-.41c0-.06-0.08-0.06-0.14,0l0,0a0.09,0.09,0,0,1,.11,0l0.34,0.41a0.09,0.09,0,0,1,0,.15l0,0,0.07-.06-0.07.07h0Zm0.2-.25a0.1,0.1,0,0,1-.08,0l-0.33-.41a0.09,0.09,0,0,1,0-.1,0.12,0.12,0,0,0,0,.1l0.34,0.41c0,0.06.08,0.06,0.14,0l0,0h0Z" transform="translate(-668.7 -836.22)"/>
      <path class="m" d="M695.87,849l0,0a0.32,0.32,0,0,0-.34,0,0.29,0.29,0,0,0,0,.4,0.3,0.3,0,0,0,.41.18,0.29,0.29,0,0,0,.11-0.26h0a0.38,0.38,0,0,1-.17.37,0.37,0.37,0,0,1-.52-0.13,0.42,0.42,0,0,1,.08-0.59l0.09,0,0.07,0a0.2,0.2,0,0,0,.05-0.06h0Z" transform="translate(-668.7 -836.22)"/>
      <path d="M695.71,849.75a0.4,0.4,0,0,1-.33-0.2,0.43,0.43,0,0,1,.08-0.59l0.09,0,0.07,0a0.19,0.19,0,0,0,0-.06h0a0.14,0.14,0,0,1,0,.06l-0.07,0-0.09,0a0.42,0.42,0,0,0-.08.58,0.38,0.38,0,0,0,.51.13,0.33,0.33,0,0,0,.14-0.19,0.29,0.29,0,0,1-.14.2,0.37,0.37,0,0,1-.19.06h0Zm0.1-.14a0.38,0.38,0,0,1-.31-0.22,0.24,0.24,0,1,1,.26-0.4,0.36,0.36,0,0,0-.26,0c-0.16.1,0,.34,0,0.39,0.19,0.3.33,0.23,0.41,0.18a0.29,0.29,0,0,0,.11-0.25,0.38,0.38,0,0,1,0,.07,0.31,0.31,0,0,1-.12.19,0.2,0.2,0,0,1-.12,0h0Z" transform="translate(-668.7 -836.22)"/>
      <path class="m" d="M696.75,849.05c0.05,0.06.08,0.11,0.18,0.08v0l-0.36.14v0c0.06,0,.08,0,0.06-0.08l0-.06-0.09-.1-0.26.11v0.07a0.35,0.35,0,0,0,0,.09,0.09,0.09,0,0,0,.12,0v0l-0.27.11v0a0.22,0.22,0,0,0,.08-0.22l0-.61,0.13-.11Zm-0.51-.34v0.38l0.22-.09Z" transform="translate(-668.7 -836.22)"/>
      <path d="M696.14,849.5v0a0.23,0.23,0,0,0,.08-0.22l0-.61,0.13-.11,0.44,0.54a0.16,0.16,0,0,0,.12.09l0,0a0.2,0.2,0,0,1-.15-0.09l-0.45-.55-0.12.11,0,0.61a0.23,0.23,0,0,1-.08.23v0l0.27-.11a0.15,0.15,0,0,1-.14-0.06,0.28,0.28,0,0,1,0-.09v-0.08l0.26-.11,0.09,0.11,0,0.06-0.12-.16-0.25.11v0.07a0.28,0.28,0,0,0,0,.09,0.07,0.07,0,0,0,.07,0h0l0.06,0-0.28.12h0Zm0.12-.41,0-.4,0.24,0.3-0.22.1h0Z" transform="translate(-668.7 -836.22)"/>
      <path class="m" d="M697.26,849.05a0.09,0.09,0,0,0,.09-0.11l-0.06-.53a0.09,0.09,0,0,0-.12-0.09v0l0.38,0a0.5,0.5,0,0,1,.19,0,0.39,0.39,0,0,1,.28.35,0.39,0.39,0,0,1-.2.39,0.47,0.47,0,0,1-.19.05l-0.38,0v0Zm0.27-.14c0,0.08,0,.11.11,0.1s0.23-.1.19-0.4-0.14-.33-0.29-0.31-0.08,0-.07.11Z" transform="translate(-668.7 -836.22)"/>
      <path d="M697.26,849.09v0c0.08,0,.1,0,0.09-0.12l-0.06-.53c0-.06,0-0.09-0.08-0.09h0a0.1,0.1,0,0,1,.05.09l0.06,0.53a0.09,0.09,0,0,1-.1.12v0h0l0.38,0a0.48,0.48,0,0,0,.19,0,0.41,0.41,0,0,0-.09-0.73,0.48,0.48,0,0,0-.19,0h-0.08l0.07,0a0.5,0.5,0,0,1,.19,0,0.42,0.42,0,0,1,.09.75,0.5,0.5,0,0,1-.19,0l-0.38,0h0Zm0.37-.08c-0.09,0-.09,0-0.1-0.1l-0.06-.51c0-.07,0-0.11.08-0.12h0c0.14,0,.22.1,0.25,0.32s0,0.39-.2.41h0Zm0-.72h0c-0.08,0-.08,0-0.07.1l0.06,0.51c0,0.07,0,.09.06,0.09s0.26-.07.23-0.4-0.1-.31-0.24-0.31h0Z" transform="translate(-668.7 -836.22)"/>
      <path class="m" d="M698.08,849a0.09,0.09,0,0,0,.11-0.1l0-.53a0.09,0.09,0,0,0-.1-0.11v0l0.66,0,0.06,0.21h0a0.42,0.42,0,0,0-.3-0.2c-0.1,0-.1,0-0.1.11v0.21h0a0.16,0.16,0,0,0,.2-0.12h0l0,0.32h0a0.16,0.16,0,0,0-.18-0.15h0v0.23c0,0.06,0,.11.08,0.11a0.46,0.46,0,0,0,.35-0.15l0,0-0.1.2-0.66,0v0Z" transform="translate(-668.7 -836.22)"/>
      <path d="M698.74,849.05h0l-0.66,0,0.05,0,0.6,0.07,0,0,0,0.06h0Zm-0.26-.06c-0.11,0-.11-0.05-0.11-0.12l0-.23a0.23,0.23,0,0,1,.18.06,0.24,0.24,0,0,0-.15,0l0,0.22c0,0.06,0,.1.07,0.11h0a0.46,0.46,0,0,0,.34-0.15v0a0.55,0.55,0,0,1-.31.12h0Zm-0.33,0a0.11,0.11,0,0,0,0-.1l0-.53a0.08,0.08,0,0,0-.09-0.1h0.07a0.11,0.11,0,0,1,0,.1l0,0.53a0.09,0.09,0,0,1-.06.09h0Zm0.27-.56v0c0-.08,0-0.11.09-0.11a0.38,0.38,0,0,1,.23.09,0.45,0.45,0,0,0-.21-0.08h0c-0.09,0-.09,0-0.1.1v0h0Z" transform="translate(-668.7 -836.22)"/>
      <path class="m" d="M699.83,849.09l0.12-.35c0-.09,0-0.14-0.06-0.19v0l0.27,0.09v0c-0.1,0-.13,0-0.16.11l-0.19.58-0.09,0-0.22-.74-0.13.4c0,0.11,0,.14.07,0.2v0l-0.29-.1v0a0.12,0.12,0,0,0,.16-0.1l0.16-.48a0.21,0.21,0,0,0-.09-0.11v0l0.26,0.09Z" transform="translate(-668.7 -836.22)"/>
      <path d="M699.81,849.34l-0.1,0-0.22-.74-0.12.4c0,0.11,0,.13.07,0.19h-0.06a0.15,0.15,0,0,1,0-.19l0.13-.4,0.23,0.74,0.09,0,0.19-.58a0.13,0.13,0,0,1,.1-0.12,0.18,0.18,0,0,0-.09.12l-0.2.59h0Zm-0.5-.2-0.19,0h0l0.06,0c0.06,0,.08,0,0.11-0.1l0.16-.48a0.22,0.22,0,0,0-.09-0.11h0a0.35,0.35,0,0,1,.06.1l-0.16.48a0.12,0.12,0,0,1-.12.11l0.12,0.06h0Zm0.52-.06-0.2-.66,0,0h0.05l0.19,0.66,0.11-.35c0-.09,0-0.14-0.06-0.18h0.06a0.16,0.16,0,0,1,0,.17l-0.12.35h0Z" transform="translate(-668.7 -836.22)"/>
      <path class="m" d="M700.29,848.84a0.09,0.09,0,0,0,0-.14v0l0.35,0.18,0,0a0.08,0.08,0,0,0-.14,0l-0.24.47a0.09,0.09,0,0,0,.05.14l0,0-0.35-.18,0,0a0.08,0.08,0,0,0,.14,0Z" transform="translate(-668.7 -836.22)"/>
      <path d="M700.24,849.57l-0.35-.18h0l0.3,0.18v0a0.09,0.09,0,0,1,0-.14l0.24-.47a0.09,0.09,0,0,1,.08-0.07h0a0.08,0.08,0,0,0-.07.06l-0.24.47a0.08,0.08,0,0,0,0,.13l0,0h0Zm-0.26-.19h0a0.08,0.08,0,0,0,.07-0.06l0.24-.47a0.08,0.08,0,0,0,0-.13l0.06,0a0.11,0.11,0,0,1,0,.11l-0.24.47a0.09,0.09,0,0,1-.08.07h0Z" transform="translate(-668.7 -836.22)"/>
      <path class="m" d="M701.17,849.48l0,0a0.33,0.33,0,0,0-.1-0.33c-0.14-.09-0.29.06-0.36,0.17a0.31,0.31,0,0,0,0,.46,0.29,0.29,0,0,0,.28,0v0a0.36,0.36,0,0,1-.4,0,0.38,0.38,0,0,1-.09-0.54,0.42,0.42,0,0,1,.56-0.16,0.31,0.31,0,0,1,.07.07l0,0.05,0.08,0h0Z" transform="translate(-668.7 -836.22)"/>
      <path d="M700.75,849.86a0.33,0.33,0,0,1-.2-0.06,0.39,0.39,0,0,1-.09-0.54,0.43,0.43,0,0,1,.57-0.16,0.29,0.29,0,0,1,.07.07l0.05,0.06,0.08,0h0l-0.08,0,0-.06h0a0.3,0.3,0,0,0-.07-0.07,0.42,0.42,0,0,0-.56.16,0.38,0.38,0,0,0,.09.53,0.34,0.34,0,0,0,.31,0,0.23,0.23,0,0,1-.12,0h0Zm0-.05a0.22,0.22,0,0,1-.12,0,0.32,0.32,0,0,1,0-.46,0.3,0.3,0,0,1,.37-0.17,0.27,0.27,0,0,1,.1.21,0.31,0.31,0,0,0-.11-0.2,0.29,0.29,0,0,0-.35.17,0.26,0.26,0,0,0,.27.45l0,0h-0.13Z" transform="translate(-668.7 -836.22)"/>
      <path class="m" d="M701.47,850.33c0,0.07-.07.12,0,0.19l0,0-0.27-.27,0,0c0.05,0,.07,0,0.1,0l0-.05,0.06-.12-0.2-.2-0.07,0a0.26,0.26,0,0,0-.08.05,0.09,0.09,0,0,0,0,.13l0,0-0.21-.21,0,0a0.22,0.22,0,0,0,.23,0l0.55-.26,0.15,0.08Zm0.11-.61-0.34.16,0.17,0.17Z" transform="translate(-668.7 -836.22)"/>
      <path d="M701.44,850.55l-0.27-.27h0l0.23,0.26,0,0a0.12,0.12,0,0,1,0-.18l0.32-.63-0.15-.07-0.54.26a0.24,0.24,0,0,1-.2,0h0.06a0.33,0.33,0,0,0,.13,0l0.55-.26,0.15,0.08-0.31.62c0,0.08-.06.13,0,0.19l0,0h0Zm-0.18-.25,0,0h0l0.12-.19-0.2-.19-0.06,0L701,850a0.09,0.09,0,0,0,0,.12l0,0a0.1,0.1,0,0,1,0-.1l0.07,0,0.07,0,0.21,0.2-0.13.2h0Z" transform="translate(-668.7 -836.22)"/>
      <path class="m" d="M702,851a0.22,0.22,0,0,0,0,.23l0,0-0.15-.22,0-.09,0.08-.13c0.08-.13.07-0.18,0-0.22l-0.2.14a0.09,0.09,0,0,0,0,.15l0,0-0.22-.33,0,0a0.08,0.08,0,0,0,.14,0l0.43-.3a0.09,0.09,0,0,0,0-.15l0,0,0.26,0.39a0.23,0.23,0,0,1,0,.33,0.22,0.22,0,0,1-.28-0.06,0.26,0.26,0,0,1,0,.12Zm0-.43c0.1,0.15.18,0.16,0.28,0.1a0.15,0.15,0,0,0,0-.24c0-.06-0.07,0-0.12,0l-0.19.13v0Z" transform="translate(-668.7 -836.22)"/>
      <path d="M701.92,851.27l-0.15-.22,0-.07,0.09-.16c0.08-.13.06-0.17,0-0.21l-0.19.14a0.08,0.08,0,0,0,0,.14l0-.05a0.11,0.11,0,0,1,.06-0.1l0.2-.14s0,0.09,0,.22l-0.08.13,0,0.09,0.15,0.21,0,0a0.21,0.21,0,0,1,0-.23l0.06-.12a0.25,0.25,0,0,0,0-.11,0.23,0.23,0,0,0,.28.06,0.22,0.22,0,0,0,0-.33l-0.06-.09,0.07,0.08a0.23,0.23,0,0,1,0,.34,0.22,0.22,0,0,1-.29-0.06,0.14,0.14,0,0,1,0,.1L702,851a0.21,0.21,0,0,0,0,.22l0,0h0Zm0.25-.54a0.24,0.24,0,0,1-.18-0.14h0c0.11,0.14.17,0.16,0.27,0.09a0.14,0.14,0,0,0,0-.23l0,0-0.13.09,0.14-.09,0.06,0a0.15,0.15,0,0,1,0,.24,0.2,0.2,0,0,1-.11,0h0Zm-0.6-.11-0.05,0h0.05l0.5-.33a0.1,0.1,0,0,0,0-.06,0.11,0.11,0,0,0,0-.08l0,0a0.14,0.14,0,0,1,0,0,0.11,0.11,0,0,1-.05.07l-0.43.3-0.07,0h0Z" transform="translate(-668.7 -836.22)"/>
      <path class="m" d="M702.38,851.92c-0.06.05-.11,0.08-0.08,0.18h0l-0.14-.36,0,0c0,0.06,0,.07.08,0.06l0.05,0,0.11-.09-0.11-.26h-0.17a0.09,0.09,0,0,0,0,.12h0l-0.11-.27h0a0.22,0.22,0,0,0,.22.08l0.6,0,0.11,0.13Zm0.34-.51h-0.37l0.09,0.22Z" transform="translate(-668.7 -836.22)"/>
      <path d="M702.27,852.11l-0.15-.36,0,0,0.11,0.33h0a0.12,0.12,0,0,1,.06-0.17l0.54-.45-0.11-.12-0.6,0a0.3,0.3,0,0,1-.17,0l0.13,0,0.65,0,0.11,0.13-0.53.45c-0.07.06-.11,0.09-0.08,0.17l0,0h0Zm0-.3a0.05,0.05,0,0,1,0,0l0,0,0.17-.12-0.11-.25h-0.07l-0.09,0a0.09,0.09,0,0,0,0,.12l0,0a0.1,0.1,0,0,1,.06-0.08l0.08,0h0.09l0.11,0.26-0.18.13h0Z" transform="translate(-668.7 -836.22)"/>
      <path class="m" d="M703,852.68l0,0a0.37,0.37,0,0,0,.15-0.3c0-.11-0.14-0.19-0.41-0.14s-0.35.16-.33,0.28,0.11,0.12.21,0.1,0.09,0,.08-0.13h0l0.07,0.37h0c0-.09-0.05-0.09-0.14-0.07l-0.16,0a0.44,0.44,0,0,0-.05-0.15,0.47,0.47,0,0,1-.06-0.16,0.36,0.36,0,0,1,.31-0.46,0.42,0.42,0,0,1,.52.3,0.34,0.34,0,0,1,0,.09,0.19,0.19,0,0,0,0,.07,0.2,0.2,0,0,0,0,.08Z" transform="translate(-668.7 -836.22)"/>
      <path d="M702.73,852.83c0-.06,0-0.08-0.08-0.08l-0.21,0a0.51,0.51,0,0,0-.05-0.14,0.55,0.55,0,0,1-.07-0.17,0.38,0.38,0,0,1,0-.3,0.4,0.4,0,0,1,.26-0.16,0.43,0.43,0,0,1,.52.31,0.27,0.27,0,0,1,0,.08v0.08a0.19,0.19,0,0,0,0,.08l-0.21.12,0-.05,0.18-.07a0.14,0.14,0,0,1-.05-0.08v-0.07a0.26,0.26,0,0,0,0-.08,0.42,0.42,0,0,0-.51-0.3,0.39,0.39,0,0,0-.26.16,0.38,0.38,0,0,0,0,.29,0.52,0.52,0,0,0,.06.16,0.44,0.44,0,0,1,.05.15l0.15,0c0.1,0,.12,0,0.14.07h0v0h-0.05Zm-0.23-.23a0.12,0.12,0,0,1-.14-0.11c0-.14.09-0.23,0.33-0.28s0.41,0.08.42,0.14a0.23,0.23,0,0,1,0,.18,0.27,0.27,0,0,0,0-.18c0-.05-0.11-0.19-0.41-0.13s-0.35.14-.32,0.27,0.1,0.12.21,0.1,0.09,0,.08-0.12l0,0.06a0.1,0.1,0,0,1-.1.07H702.5Z" transform="translate(-668.7 -836.22)"/>
      <path class="m" d="M702.7,853.12c-0.2,0-.25.07-0.25,0.19a0.21,0.21,0,0,0,.26.21h0.38a0.09,0.09,0,0,0,.1-0.11h0v0.27h0a0.09,0.09,0,0,0-.1-0.11H702.7a0.26,0.26,0,0,1-.3-0.29,0.27,0.27,0,0,1,.26-0.33h0.41a0.09,0.09,0,0,0,.1-0.11h0v0.39h0a0.08,0.08,0,0,0-.1-0.1H702.7Z" transform="translate(-668.7 -836.22)"/>
      <path d="M703.19,853.66c0-.07,0-0.1-0.09-0.1h-0.4a0.26,0.26,0,0,1-.3-0.3,0.36,0.36,0,0,1,.08-0.27,0.26,0.26,0,0,1,.19-0.07h0.41c0.07,0,.09,0,0.09-0.1v0.07a0.11,0.11,0,0,1-.1,0h-0.41a0.24,0.24,0,0,0-.18.07,0.36,0.36,0,0,0-.08.26,0.25,0.25,0,0,0,.28.29h0.4a0.09,0.09,0,0,1,.11.1h0v0h0Zm-0.48-.15a0.21,0.21,0,0,1-.27-0.21,0.18,0.18,0,0,1,0-.13,0.31,0.31,0,0,1,.21-0.06h0.38a0.09,0.09,0,0,1,.1,0,0.11,0.11,0,0,0-.09,0H702.7a0.29,0.29,0,0,0-.21.06,0.16,0.16,0,0,0,0,.12,0.2,0.2,0,0,0,.24.2h0.4c0.07,0,.09,0,0.09-0.1v0.06a0.11,0.11,0,0,1-.1.05h-0.38Z" transform="translate(-668.7 -836.22)"/>
      <path class="m" d="M702.49,854.37a0.14,0.14,0,0,0-.16.11h0l0.06-.38h0c0,0.07,0,.09,0,0.09h0.07l0.13,0,0-.28-0.06,0-0.09,0a0.09,0.09,0,0,0-.1.08h0l0-.29h0a0.22,0.22,0,0,0,.15.18l0.53,0.3,0,0.17Zm0.55-.26-0.33-.19,0,0.24Z" transform="translate(-668.7 -836.22)"/>
      <path d="M702.34,854.48h0l0.06-.39,0,0-0.08.33h0a0.13,0.13,0,0,1,.15-0.11l0.69-.1,0-.16-0.52-.3a0.27,0.27,0,0,1-.13-0.11,0.42,0.42,0,0,0,.13.1l0.53,0.31,0,0.17-0.68.1c-0.09,0-.14,0-0.15.11h0Zm0.16-.29h-0.06l0.2,0,0-.27-0.06,0-0.09,0a0.11,0.11,0,0,0-.09.08v0a0.1,0.1,0,0,1,.08,0l0.1,0,0.07,0,0,0.28-0.14,0h0Z" transform="translate(-668.7 -836.22)"/>
    </g>
  </g>
</svg>
