<svg xmlns="http://www.w3.org/2000/svg" xmlns:xlink="http://www.w3.org/1999/xlink" viewBox="0 0 58.92 34.37">
  <defs>
    <style>
      .a {
        fill: none;
      }

      .b {
        clip-path: url(#a);
      }

      .c {
        fill: #f3d02f;
      }

      .d {
        fill: #192967;
      }

      .e {
        fill: #fff;
      }

      .f {
        fill: #bc0030;
      }
    </style>
    <clipPath id="a" transform="translate(-880.77 -836.22)">
      <rect class="a" x="880.77" y="836.22" width="58.92" height="34.37"/>
    </clipPath>
  </defs>
  <title>Niue</title>
  <g class="b">
    <rect class="c" width="58.92" height="34.37"/>
    <rect class="d" width="29.46" height="14.73"/>
    <polygon class="e" points="26.17 0 0 13.08 0 14.73 3.29 14.73 29.46 1.65 29.46 0 26.17 0"/>
    <polygon class="e" points="0 0 0 1.65 26.17 14.73 29.46 14.73 29.46 13.08 3.29 0 0 0"/>
    <rect class="e" x="12.27" width="4.91" height="14.73"/>
    <rect class="e" y="4.91" width="29.46" height="4.91"/>
    <rect class="f" y="5.89" width="29.46" height="2.95"/>
    <rect class="f" x="13.26" width="2.95" height="14.73"/>
    <polygon class="f" points="9.82 9.82 0 14.73 2.19 14.73 12.02 9.82 9.82 9.82"/>
    <polygon class="f" points="17.44 4.91 19.64 4.91 29.46 0 27.27 0 17.44 4.91"/>
    <polygon class="f" points="29.46 14.73 29.46 13.63 21.84 9.82 19.64 9.82 29.46 14.73"/>
    <polygon class="f" points="0 0 0 1.1 7.62 4.91 9.82 4.91 0 0"/>
    <g class="b">
      <path class="d" d="M898,843.59A2.46,2.46,0,1,0,895.5,846a2.46,2.46,0,0,0,2.46-2.46" transform="translate(-880.77 -836.22)"/>
      <polygon class="c" points="12.39 6.61 14.18 6.61 14.73 4.91 15.28 6.61 17.07 6.61 15.62 7.66 16.17 9.35 14.73 8.3 13.29 9.35 13.84 7.66 12.39 6.61"/>
      <polygon class="c" points="13.33 11.96 14.4 11.96 14.73 10.94 15.06 11.96 16.13 11.96 15.27 12.59 15.6 13.61 14.73 12.98 13.86 13.61 14.19 12.59 13.33 11.96"/>
      <polygon class="c" points="13.33 2.14 14.4 2.14 14.73 1.12 15.06 2.14 16.13 2.14 15.27 2.77 15.6 3.79 14.73 3.16 13.86 3.79 14.19 2.77 13.33 2.14"/>
      <polygon class="c" points="4.74 7.05 5.81 7.05 6.14 6.03 6.47 7.05 7.54 7.05 6.67 7.68 7 8.7 6.14 8.07 5.27 8.7 5.6 7.68 4.74 7.05"/>
      <polygon class="c" points="21.92 7.05 22.99 7.05 23.32 6.03 23.65 7.05 24.73 7.05 23.86 7.68 24.19 8.7 23.32 8.07 22.46 8.7 22.79 7.68 21.92 7.05"/>
    </g>
  </g>
</svg>
