<svg xmlns="http://www.w3.org/2000/svg" xmlns:xlink="http://www.w3.org/1999/xlink" viewBox="0 0 58.92 34.37">
  <defs>
    <style>
      .a {
        fill: none;
      }

      .b {
        clip-path: url(#a);
      }

      .c {
        fill: #fff;
      }

      .d {
        fill: #337b40;
      }

      .e {
        fill: #3b8310;
      }
    </style>
    <clipPath id="a" transform="translate(-951.46 -836.22)">
      <rect class="a" x="951.46" y="836.22" width="58.92" height="34.37"/>
    </clipPath>
  </defs>
  <title>Norfolk_Island</title>
  <g class="b">
    <rect class="c" x="17.93" width="23.06" height="34.37"/>
    <g class="b">
      <path class="d" d="M980.9,840l-0.15,1.68-0.56.08a1.18,1.18,0,0,1,.46.45,0.09,0.09,0,0,1,0,.09l0,0a0.89,0.89,0,0,1-.45,0,2.42,2.42,0,0,1,.48.52h0v0a1.69,1.69,0,0,1-.6.12,1.86,1.86,0,0,1,.58.61,1,1,0,0,1,0,.34,2,2,0,0,0-1.49-.56l-0.05,0a0.05,0.05,0,0,0,0,0,9.45,9.45,0,0,1,1.4.74c0,0.12-1.6-.39-1.66-0.07a12.1,12.1,0,0,1,1.83.55c-0.61,0-1.87-.13-1.83.07-0.13.23,1.19,0.1,1.74,0.29,0.16,0.18.15,0.34-.14,0.36-0.53-.26-1.73-0.44-1.73-0.12h0a6.2,6.2,0,0,1,1.66.31c-0.59.14-2.6-.27-2.62-0.07a1.1,1.1,0,0,0,.92.48,4.46,4.46,0,0,1,1.9.39v0c0,0.12-1.67-.37-2.29-0.07s1.86,0.12,2.27.5-0.82,0-.82,0a9.55,9.55,0,0,0-2-.12,2.65,2.65,0,0,0-.55.39s0.17,0.34.34,0.28h0.06a0.57,0.57,0,0,1-.12.2,10.79,10.79,0,0,1,2.92,1.1c0.53,0.51-3-.8-3-0.8s-1.44.53,0.09,0.56a0.28,0.28,0,0,0,.09.41s2.53,0.53,2.79.94-1.73-.39-2.17-0.62a2.74,2.74,0,0,0-1.69.21h0a2.05,2.05,0,0,1,.63.35h0a0,0,0,0,1,0,0c-0.07.13-.7,0.19-0.73,0.31h0c0,0.14,3.2.8,4.05,1.52s-2.51-.86-2.51-0.86,0.19,0.26,0,.33-0.86-1-2-.33c-0.2.26,1,.47,1.25,0.5-0.1.26-.19,0.34,0.22,0.6l0.08,0.05h0c-0.06,0-.8-0.39-0.88-0.4h0s0.09,0.45.09,0.45a1,1,0,0,0-1.27-.09,0.57,0.57,0,0,0,.43.49c-0.24.5,0.28,0.34,1.1,0.8-1.22-.32-1.32.27-0.45,0.41s3.27,0.22,3.83,1a0.33,0.33,0,0,1,.13.26,6.07,6.07,0,0,1-1.09-.56h0a2.35,2.35,0,0,0-.06.36,3.73,3.73,0,0,0-1.14-.49c0,0.07,0,.17-0.06.23a2.25,2.25,0,0,0-1.32-.51l-0.07.28a1,1,0,0,0-1.42,0c-0.53.38,2,.14,2.39,0.58s0.09,0.51.09,0.51l-1-.37a3,3,0,0,0-1.56.05c-0.34.27,5,.94,5.15,1.67,0.1,0.4-1.25-.42-2.43-0.77l-0.14.39a2.1,2.1,0,0,0-1-.55h0c0,0.06.1,0.46,0.1,0.46a3.11,3.11,0,0,0-2-.29c-0.67.32,2.32,0.49,2.6,0.8a0.12,0.12,0,0,1,0,.07h0a4.41,4.41,0,0,0-1-.08c-0.1.21-1.56-.37-1.54-0.1a0.63,0.63,0,0,0,.21.43s3,0.29,3.13.65-1.68-.21-1.68-0.21a0.34,0.34,0,0,0,0,.38h0c-0.06,0-1-.65-0.93-0.17-0.38-.15-1.35-0.62-1.21-0.26s2.67,0.86,2.75.87-1.14.1-1.09,0.38c-1.44-.88-1.43-0.35-1.4-0.31h0c-0.08,0-1.85-.45-0.44.31a2.42,2.42,0,0,1,.94.63h0a0.26,0.26,0,0,1-.12,0h0a1.75,1.75,0,0,1,.13.38h0a7.78,7.78,0,0,0-1.31-.55c-0.33,0-1.87.43-.22,1.14s2.65-.17,3.56-0.07,1.33,0.26,1.25.55-0.93-1-1.81.12c-1-.2-1.69-0.31-1.17.43-1.64-.61-2.65.19-0.58,0.51a8.14,8.14,0,0,0,3.28-.5,0.53,0.53,0,0,0,.84.19c0.47-.42.51,0.12,0.53,0.17h0l0.48-.21h0.12v4.1l1.66,0s-0.53-3.57-.24-4.05a0.59,0.59,0,0,1,.56-0.41,6.61,6.61,0,0,0,1.2.27h0a0.42,0.42,0,0,1,.55-0.35,1.28,1.28,0,0,0,.21-0.4h0c0.17,0,3.47.92,4.19,0-0.19-.5-0.84,0-1,0a1.54,1.54,0,0,0-1.18,0,7.08,7.08,0,0,0-1.9-.43c-0.21-.21,3.71.1,3.93-0.05,0.46-.46-0.86-0.41-1.06-0.26a1.16,1.16,0,0,0-1.1-.05c-0.13-.32-1.41-0.18-2.11-0.27-0.23-.13-0.19-0.21,0-0.29,1.48,0.06,2.94.26,4.43,0.19,0.4-.52-0.5-0.72-1.06-0.28-0.33-.54-1,0-1.44-0.07s-0.24-.6.33-0.51a2.71,2.71,0,0,0,1.76-.29c0.19-.26-0.11-0.52-1-0.27a1.54,1.54,0,0,0-1.33.1,3.25,3.25,0,0,0-1.78.05c-0.33-.21,1.76-0.55,1.76-0.55a5.5,5.5,0,0,0,1.52-.22c1.22-.65,0-0.73-0.66-0.25a1.09,1.09,0,0,0-1.14.15,3.44,3.44,0,0,1-1,.16h0a11.53,11.53,0,0,1,1-.64s1.2-.09,1.44-0.12a1.44,1.44,0,0,0,.66-0.35,1.34,1.34,0,0,0-.86.11c-0.58.05-.92,0-1.14,0a1.34,1.34,0,0,1-.54-0.11h0a0,0,0,0,1,0,0h0a2.85,2.85,0,0,1,.65-0.12,15.2,15.2,0,0,0,1.84-.25h0c0-.71-1.46-0.38-1.5-0.37,0-.5-1.35,0-1.42,0h0a0.16,0.16,0,0,1-.09-0.1,0.09,0.09,0,0,1,0,0,0.48,0.48,0,0,1,.24-0.18,5.21,5.21,0,0,0,1.09-.24,2.06,2.06,0,0,0,1.19-.29c-0.26-.72-2.25.13-2.51,0.26a0.12,0.12,0,0,1-.1,0,1,1,0,0,1,.36-0.56h0a3.61,3.61,0,0,0,2.41-1.13c0.05-.64-0.91.36-0.91,0.36-0.07-.82-1,0.05-1.61.12s-0.58-.26-0.19-0.31a1,1,0,0,0,1.06-.62c0.22-.6.89,0,1-0.19s-0.22-.4-0.24-0.41,0.5-.52-0.31-0.5a16.55,16.55,0,0,1-1.85-.1,4.87,4.87,0,0,1,1.62-.31c0.79,0,.36-0.56-0.39-0.56a2.21,2.21,0,0,1-1.14-.26l1.28-.48-0.08-.36s0.75-.6-0.31-0.46l-1.18.15-2.14.32h0a0.52,0.52,0,0,1-.26-0.15h0a0.29,0.29,0,0,1,.24-0.13,13.17,13.17,0,0,1,2.77-.43,0.08,0.08,0,0,0,.08,0,1.07,1.07,0,0,0-1.14-.82,3,3,0,0,0-1.66.26s-0.67-.24-0.05-0.45a3.43,3.43,0,0,1,1.59.07s1.09-.33.19-0.46a4.35,4.35,0,0,0-1.61.14c-0.17-.2,1.42-0.26,1.52-0.43-0.17-.31-1.15,0-1.73,0-0.25-.1-0.26-0.27,0-0.38,0.59,0,1.14,0,1.73,0,0-.31,0-0.68,0-1a10.53,10.53,0,0,0-2,.08c0.11-.34,1.72-0.43,1.9-0.52,0.37-.46-1.54,0-1.59,0-0.34,0-.32-0.26-0.1-0.39,0.5-.06,1.61.07,1.52-0.26s-0.77-.15-1.06-0.08a2.53,2.53,0,0,1-.72,0c-0.19-.25,1.68-0.15,1.66-0.34s-1.18-.07-1.57-0.05c-0.3-.21,1.42-0.35,1.5-0.37h0c0.06-.57-1.2,0-1.44,0a0.15,0.15,0,0,1-.09,0l0,0a0.42,0.42,0,0,1,0-.32,3.16,3.16,0,0,0,.48-0.25h0a1.87,1.87,0,0,0-.4-0.15h0a2.07,2.07,0,0,1,0-.39,1.57,1.57,0,0,0,.38-0.37h0a1.25,1.25,0,0,0-.46.09v-0.34a0.46,0.46,0,0,0,.36-0.19,0,0,0,0,0,0,0h0v0h0a0.69,0.69,0,0,0-.38-0.11c-0.06-.6-0.11-1.2-0.17-1.8h0Zm-0.3,5.86v0.23a1.48,1.48,0,0,1-.45-0.08h0a1.21,1.21,0,0,1,.44-0.1h0Zm0.54,0.31a2.54,2.54,0,0,1,.83.11h0a2.25,2.25,0,0,1-.82.2Zm0,0.47h0a1.3,1.3,0,0,1,.39.07h0a0.75,0.75,0,0,1-.37.1h0a1.51,1.51,0,0,1,0-.2h0Zm-2.29.62a6,6,0,0,1,1.65.3s0,0.26,0,.29h0s-1.66-.48-1.81-0.47h-0.06v0a0.35,0.35,0,0,1,.21-0.06h0Zm0.86,0.7a8.14,8.14,0,0,1,.92.13,1.17,1.17,0,0,1,0,.34h0a3.87,3.87,0,0,1-1-.43h0l0.1,0h0Zm2.58,0.65c0.25,0,.43,0,0.36.09a4.6,4.6,0,0,1-1.42.38l0-.38s0.66-.09,1.08-0.09h0Zm-3.54,1.18a5.4,5.4,0,0,1,1.79.56v0.27s-1.85-.56-1.91-0.65-0.09-.18.11-0.19h0Zm3.62,0.41a0.16,0.16,0,0,1,.11,0h0l0,0a3.53,3.53,0,0,1-1.09.38V850.4h0a10.13,10.13,0,0,1,1-.19h0Zm-4,0a6.11,6.11,0,0,1,2.29.79s0,0.23,0,.26h0l-2.51-.88s0-.16.21-0.17h0Zm4.62,1.07a0.2,0.2,0,0,1,.13,0h0l0,0a6.84,6.84,0,0,1-1.67.44h0a1.19,1.19,0,0,1,0-.23h0c0.09,0,1.17-.24,1.54-0.26h0Zm-4.13.62a7.5,7.5,0,0,1,1.75.58h0s0,0.24,0,.27h0a14.66,14.66,0,0,0-1.85-.68c0-.12,0-0.16.11-0.17h0Zm3.73,0.15a0.5,0.5,0,0,1,.17,0h0a8,8,0,0,1-1.33.35s0-.22,0-0.24,0.8-.12,1.16-0.14h0Zm-0.1.77a0.3,0.3,0,0,1,.16,0h0a6.38,6.38,0,0,1-1.14.33l0-.25s0.71-.11,1-0.12h0Zm-4.28.06a7.5,7.5,0,0,1,2.35.63l0,0.29L978,853h0v0a0.22,0.22,0,0,1,.15-0.05h0Zm3.28,0.64a1.88,1.88,0,0,1,.53.09h0a1.14,1.14,0,0,1-.5.14s0-.2,0-0.26h0Zm1,0.57a0.23,0.23,0,0,1,.18,0,0.1,0.1,0,0,1-.05.09,2.54,2.54,0,0,1-1.14.35v-0.32h0a8.5,8.5,0,0,1,1-.15h0Zm1,0.3a0.21,0.21,0,0,1,.19,0h0v0a0.23,0.23,0,0,1-.08.11c-0.12.11-2.06,0.73-2.06,0.73s0-.41,0-0.45a9.82,9.82,0,0,1,1.95-.47h0Zm-1.25,1.16a0.43,0.43,0,0,1,.25,0h0v0a2.53,2.53,0,0,1-1,.19v-0.2c0.15,0,.49-0.05.73-0.06h0Zm0.81,0.33a0.07,0.07,0,0,1,.07,0h0l0,0a6.57,6.57,0,0,1-1.53.46s0-.16,0-0.2,1.19-.32,1.48-0.33h0Zm0.68,0.25a0.54,0.54,0,0,1,.31.07h0a0.55,0.55,0,0,1-.42.34,12.86,12.86,0,0,0-2.12.47h0s0-.2,0-0.2a5.54,5.54,0,0,1,2.2-.68h0Zm-4.32,1h0a1.45,1.45,0,0,1,1.08.46,1.26,1.26,0,0,1-1.18-.44,0.14,0.14,0,0,1,.09,0h0Zm4.18,0,0.08,0,0,0a0.1,0.1,0,0,1,0,0,0.75,0.75,0,0,1-.5.06,1.19,1.19,0,0,1,.39-0.14h0Zm-1.56.79a0.26,0.26,0,0,1,.12,0h0a0.07,0.07,0,0,1,0,.06,0.73,0.73,0,0,1-.62.13v-0.15h0s0.3-.07.48-0.08h0Zm-3,.57a0.85,0.85,0,0,1,.43.17,3.69,3.69,0,0,1,1,.05v0.29h0a3.17,3.17,0,0,1-1-.13,1,1,0,0,1-.56-0.31h0a0.36,0.36,0,0,1,.16,0h0Zm3.31,0.14c0.12,0,.17,0,0.08.16a1,1,0,0,1-.92.21l0-.23c0.24,0,.66-0.14.88-0.15h0Zm-2.49.74a1.7,1.7,0,0,1,.56.1,0.38,0.38,0,0,1,0,.38h0a0.91,0.91,0,0,1-.91-0.35,0.5,0.5,0,0,1,.34-0.13h0Zm-2.78.14a1.25,1.25,0,0,1,.55.15h0V860a1.23,1.23,0,0,1-.64-0.41l0.1,0h0Zm4.69,0a1,1,0,0,1,.65.16,0.05,0.05,0,0,1,0,.06,1.71,1.71,0,0,1-.91,0v-0.2a0.94,0.94,0,0,1,.27,0h0Z" transform="translate(-951.46 -836.22)"/>
      <path class="e" d="M981.84,865.65h0l-1.66,0,0-4.14-0.08,0h0l-0.47.21-0.05-.06c0-.2-0.17-0.38-0.46-0.12a0.57,0.57,0,0,1-.38.17,0.69,0.69,0,0,1-.52-0.37,7.19,7.19,0,0,1-3.25.51c-0.77-.12-1.22-0.32-1.2-0.55a0.59,0.59,0,0,1,.66-0.26,3.27,3.27,0,0,1,1.13.23,0.41,0.41,0,0,1-.21-0.45c0.1-.2.6-0.13,1.37,0a1,1,0,0,1,.79-0.45,1.48,1.48,0,0,1,.75.27,0.65,0.65,0,0,0,.21.1,0.16,0.16,0,0,0,0-.17,2,2,0,0,0-1.2-.35,2.86,2.86,0,0,0-1,.15,3.88,3.88,0,0,1-2.56-.08c-0.55-.24-0.81-0.48-0.76-0.72a1.12,1.12,0,0,1,1-.5,5,5,0,0,1,1.19.47l0.18,0.08a2.42,2.42,0,0,1-.16-0.34l0-.06h0l0.11,0,0,0a2.62,2.62,0,0,0-.92-0.59c-0.52-.28-0.58-0.38-0.56-0.45a0.17,0.17,0,0,1,.18-0.07,4.68,4.68,0,0,1,.78.12h0a0.19,0.19,0,0,1,0-.08,0.24,0.24,0,0,1,.24-0.11,2.75,2.75,0,0,1,1.16.48,0.08,0.08,0,0,1,0-.05,1.65,1.65,0,0,1,.85-0.28c-0.65-.13-2.42-0.53-2.54-0.85a0.14,0.14,0,0,1,0-.13,1.64,1.64,0,0,1,1.06.26l0.2,0.08a0.08,0.08,0,0,1,0-.13,1.17,1.17,0,0,1,.87.26l0.06,0c-0.17-.1,0-0.35,0-0.36a8.26,8.26,0,0,0,1.5.31,0.21,0.21,0,0,0,.16,0c-0.07-.28-1.93-0.55-3.09-0.66a0.62,0.62,0,0,1-.24-0.46,0.23,0.23,0,0,1,0-.07,1.33,1.33,0,0,1,.79.07,2,2,0,0,0,.73.08,0.83,0.83,0,0,1,.67,0,2.05,2.05,0,0,0,.35.06,3.42,3.42,0,0,0-1.36-.38,2.38,2.38,0,0,1-1.35-.39,0.17,0.17,0,0,1,.12-0.14,1.13,1.13,0,0,1,.5-0.1,4.29,4.29,0,0,1,1.51.39,1,1,0,0,1-.15-0.42,1.87,1.87,0,0,1,1.06.51l0.08-.38a8.4,8.4,0,0,1,1.43.51,4,4,0,0,0,.94.34l0.05-.06c-0.08-.41-2-0.83-3.41-1.13a4.23,4.23,0,0,1-1.76-.51,0.13,0.13,0,0,1,0-.07,1.15,1.15,0,0,1,.68-0.14,5.77,5.77,0,0,1,.91.09l1,0.38a0.15,0.15,0,0,0,.07-0.08,0.45,0.45,0,0,0-.19-0.37,3.25,3.25,0,0,0-1.53-.3,1.4,1.4,0,0,1-.95-0.19,0.15,0.15,0,0,1,.08-0.14,1.54,1.54,0,0,1,.81-0.27,0.87,0.87,0,0,1,.66.28l0-.12,0-.14a2.11,2.11,0,0,1,1.35.47,0.11,0.11,0,0,1,0-.07,0.5,0.5,0,0,1,0-.13,3.22,3.22,0,0,1,1.18.47,0.62,0.62,0,0,1,0-.34,0.75,0.75,0,0,1,.44.19,2.82,2.82,0,0,0,.66.35,0.75,0.75,0,0,0-.13-0.21c-0.44-.58-2.06-0.75-3.12-0.86l-0.68-.08a0.6,0.6,0,0,1-.61-0.37c0-.18.33-0.25,0.79-0.17a5.06,5.06,0,0,0-.49-0.19,0.63,0.63,0,0,1-.41-0.24,0.36,0.36,0,0,1,0-.3,0.52,0.52,0,0,1-.43-0.48,1,1,0,0,1,1.32.06,1,1,0,0,1-.14-0.41,1,1,0,0,1,.52.18l0.1,0a0.31,0.31,0,0,1-.06-0.43l0-.07a2.12,2.12,0,0,1-1.26-.37,0.13,0.13,0,0,1,0-.13,1.43,1.43,0,0,1,.74-0.22,1.69,1.69,0,0,1,1,.4,0.63,0.63,0,0,0,.22.13A0.09,0.09,0,0,0,978,851a0.34,0.34,0,0,0-.07-0.22,0,0,0,0,1,0-.05,19.08,19.08,0,0,0,2.58,1s0,0-.11-0.12a11.28,11.28,0,0,0-3.1-1.2,1.77,1.77,0,0,1-1-.35,0.48,0.48,0,0,1,.38-0.2,0.89,0.89,0,0,0,.35-0.14,0.7,0.7,0,0,0-.37-0.21,0.77,0.77,0,0,1-.25-0.12,0.46,0.46,0,0,1,0-.07,3,3,0,0,1,1.31-.3,1,1,0,0,1,.43.07,9.16,9.16,0,0,0,2.07.73l0.08-.08,0,0a8.26,8.26,0,0,0-2.76-.93,0.35,0.35,0,0,1-.17-0.22,0.31,0.31,0,0,1,.06-0.25c-0.59,0-.69-0.05-0.7-0.13a1,1,0,0,1,.64-0.44,24.2,24.2,0,0,0,3,.92,9.47,9.47,0,0,0-2.9-1.14c0-.13.09-0.21,0.09-0.23l-0.08,0a0.53,0.53,0,0,1-.33-0.3,1.71,1.71,0,0,1,.57-0.44,0.87,0.87,0,0,1,.32,0c0.56,0,1.65.15,1.66,0.15a4.18,4.18,0,0,0,.81.19c0.06,0,.06,0,0-0.09a3.69,3.69,0,0,0-1.51-.27,1.26,1.26,0,0,1-.88-0.16,0.16,0.16,0,0,1,.13-0.13,4.18,4.18,0,0,1,1.78,0,3.89,3.89,0,0,0,.46.06,4.63,4.63,0,0,0-1.77-.36h-0.09a1.15,1.15,0,0,1-.92-0.5c0-.1.12-0.11,0.26-0.11s0.53,0,.87.07a7.1,7.1,0,0,0,1.51.06,5.57,5.57,0,0,0-1.27-.19,1.57,1.57,0,0,1-.4-0.05c0-.14,0-0.26.42-0.26a3.66,3.66,0,0,1,1.33.29,0.22,0.22,0,0,0,.18-0.09,0.25,0.25,0,0,0-.09-0.21,4.67,4.67,0,0,0-1-.11,1.27,1.27,0,0,1-.76-0.13,0.22,0.22,0,0,1,0-.09,0.54,0.54,0,0,1,.49-0.12l0.62,0,0.62,0h0.13a9.4,9.4,0,0,0-1.22-.31,1.58,1.58,0,0,1-.63-0.18,0.27,0.27,0,0,1,.31-0.16,5.27,5.27,0,0,1,.86.12,3.41,3.41,0,0,0,.46.07,3.75,3.75,0,0,0-1-.52,0.61,0.61,0,0,1-.35-0.19,0.13,0.13,0,0,1,.07-0.11,2.13,2.13,0,0,1,1.53.56,1,1,0,0,1-.06-0.31,1.73,1.73,0,0,0-.57-0.59,4.5,4.5,0,0,0,.59-0.18,1.83,1.83,0,0,0-.46-0.51,0.19,0.19,0,0,1,.2-0.06,0.47,0.47,0,0,0,.25,0,0.94,0.94,0,0,0-.43-0.49l0.29-.11,0.28,0,0.12-1.64a0,0,0,0,1,0,0h0a0,0,0,0,1,0,0l0.17,1.79a0.42,0.42,0,0,1,.37.09l0,0.09a0.47,0.47,0,0,1-.39.22l0,0.29a0.71,0.71,0,0,1,.37-0.12h0.07l0,0.06a1.29,1.29,0,0,1-.39.41c0,0.13,0,.31,0,0.34a1.29,1.29,0,0,1,.4.14,1,1,0,0,1-.48.33,0.43,0.43,0,0,0,0,.26,0.5,0.5,0,0,0,.43-0.05,1.44,1.44,0,0,1,1.07-.08,0.25,0.25,0,0,1,.05.2,0.54,0.54,0,0,1-.26.07,3.32,3.32,0,0,0-1.28.26,1.83,1.83,0,0,0,.31,0c0.24,0,.54,0,0.79,0s0.5,0,.51.15a1.25,1.25,0,0,1-.83.19,2.41,2.41,0,0,0-.84.13,3.31,3.31,0,0,0,.69,0,3.35,3.35,0,0,1,.7-0.11,0.35,0.35,0,0,1,.41.21,0.15,0.15,0,0,1,0,.13,1.67,1.67,0,0,1-1,.16,4.82,4.82,0,0,0-.54,0,0.22,0.22,0,0,0-.12.19,0.24,0.24,0,0,0,.23.13c1.07-.24,1.58-0.27,1.66-0.11a0.16,0.16,0,0,1,0,.17,2.08,2.08,0,0,1-.52.11,2.64,2.64,0,0,0-1.37.41,3.7,3.7,0,0,1,.56-0.1,5.15,5.15,0,0,1,1.45,0,2.51,2.51,0,0,1,0,.52c0,0.18,0,.35,0,0.51a2.24,2.24,0,0,1-.52,0h-1.24a0.15,0.15,0,1,0,0,.31,5.73,5.73,0,0,0,.65-0.07,1.31,1.31,0,0,1,1.1.09,1.18,1.18,0,0,1-.77.24,2.24,2.24,0,0,0-.76.18,2.82,2.82,0,0,0,.37-0.08,2.68,2.68,0,0,1,1.22-.06c0.26,0,.38.1,0.39,0.19a0.87,0.87,0,0,1-.57.35,4.24,4.24,0,0,0-1.59-.07c-0.2.07-.24,0.13-0.24,0.16a0.46,0.46,0,0,0,.29.21,2.79,2.79,0,0,1,1.65-.26,1.37,1.37,0,0,1,1.18.72,0.15,0.15,0,0,1,0,.16l-0.11,0v0h-0.14a17.73,17.73,0,0,0-2.61.44,0.27,0.27,0,0,0-.21.1,0.47,0.47,0,0,0,.24.14l2.13-.32,1.18-.15c0.39,0,.56,0,0.6.1a0.59,0.59,0,0,1-.27.42l0.1,0.32-1.28.51a3.64,3.64,0,0,0,1.11.2,0.8,0.8,0,0,1,.85.43,0.18,0.18,0,0,1-.11.16,0.73,0.73,0,0,1-.31.05h-0.1a4.79,4.79,0,0,0-1.4.25c0.29,0,.94.09,1.52,0.09h0.16a0.47,0.47,0,0,1,.48.16,0.44,0.44,0,0,1-.14.39,0.36,0.36,0,0,1,.26.23,0.23,0.23,0,0,1,0,.18c-0.05.1-.19,0.07-0.37,0a0.45,0.45,0,0,0-.64.17,0.93,0.93,0,0,1-.95.63l-0.14,0a0.23,0.23,0,0,0-.24.14c0,0.06.14,0.13,0.42,0.1a2.32,2.32,0,0,0,.62-0.23,1.91,1.91,0,0,1,.69-0.24,0.34,0.34,0,0,1,.33.38,1.09,1.09,0,0,1,.86-0.56,0.27,0.27,0,0,1,0,.21,3.2,3.2,0,0,1-2.38,1.15,0.93,0.93,0,0,0-.4.52,0.1,0.1,0,0,0,.07,0,5.7,5.7,0,0,1,1.93-.54,0.58,0.58,0,0,1,.62.31,1.8,1.8,0,0,1-1.22.34,1.57,1.57,0,0,1-.62.16l-0.46.08a0.41,0.41,0,0,0-.21.16,0.11,0.11,0,0,0,.07.1s0,0,.07,0a2.13,2.13,0,0,1,1.31-.1,0.22,0.22,0,0,1,.06.16,2.2,2.2,0,0,1,.7-0.12,1,1,0,0,1,.7.2,0.38,0.38,0,0,1,.1.3,9.6,9.6,0,0,1-1.88.29,2.58,2.58,0,0,0-.63.11s0.12,0,.51.07h0.41c0.19,0,.43,0,0.73,0a3.86,3.86,0,0,1,.77-0.15s0.13,0,.13.07a1.32,1.32,0,0,1-.69.39c-0.24,0-1.39.12-1.44,0.12-0.33.21-.9,0.57-0.94,0.63a8,8,0,0,0,1-.2l0.26-.11a0.84,0.84,0,0,1,.91,0,1.48,1.48,0,0,1,.89-0.32,0.27,0.27,0,0,1,.3.13,0.75,0.75,0,0,1-.54.5,5.51,5.51,0,0,1-1.54.23,5.16,5.16,0,0,0-1.76.46,4.06,4.06,0,0,1,1.8,0l0.12-.06a1.41,1.41,0,0,1,1.22,0,1,1,0,0,1,1.09.07,0.23,0.23,0,0,1,0,.25,2.68,2.68,0,0,1-1.8.31,0.41,0.41,0,0,0-.52.26,0.19,0.19,0,0,0,.21.18,1.65,1.65,0,0,0,.5-0.08,0.79,0.79,0,0,1,1,.17,0.84,0.84,0,0,1,1.14-.06,0.35,0.35,0,0,1-.08.38c-0.24,0-.45,0-0.67,0-0.78,0-1.56-.06-2.32-0.11l-1.47-.09a0.16,0.16,0,0,0-.09.09,0.22,0.22,0,0,0,.14.13c0.22,0,.52,0,0.82,0a1.8,1.8,0,0,1,1.31.25,1,1,0,0,1,1.09,0,1.13,1.13,0,0,1,.6-0.12,0.68,0.68,0,0,1,.57.18,0.24,0.24,0,0,1-.1.25,1.39,1.39,0,0,1-.61.05l-1.39,0-1.38,0a1.71,1.71,0,0,0-.55,0,5.5,5.5,0,0,1,1.9.4,1.18,1.18,0,0,1,1,0l0.18,0,0.18-.07a1.39,1.39,0,0,1,.51-0.15,0.36,0.36,0,0,1,.36.25,1.58,1.58,0,0,1-1.34.43,13,13,0,0,1-2.51-.35l-0.37-.07a0.18,0.18,0,0,0-.09.15,0.29,0.29,0,0,1-.16.25h-0.12a0.3,0.3,0,0,0-.36.23,0.23,0.23,0,0,1-.06.11l-0.08,0a8.61,8.61,0,0,1-1.17-.28,0.63,0.63,0,0,0-.52.39c-0.28.46,0.24,4,.25,4a0,0,0,0,1,0,0h0Zm-1.66-4.19,0,4.14,1.58,0c-0.06-.42-0.51-3.57-0.23-4a0.71,0.71,0,0,1,.56-0.43,11,11,0,0,0,1.19.28,0.12,0.12,0,0,0,.07-0.09c0-.12.09-0.32,0.54-0.28a0.26,0.26,0,0,0,.1-0.2,0.27,0.27,0,0,1,.09-0.2l0.07,0,0.39,0.07a12.9,12.9,0,0,0,2.49.34,1.63,1.63,0,0,0,1.28-.37,0.32,0.32,0,0,0-.3-0.17,1.33,1.33,0,0,0-.48.14,0.82,0.82,0,0,1-.2.07,0.51,0.51,0,0,1-.2,0,1.22,1.22,0,0,0-1,0,7.74,7.74,0,0,0-1.92-.42,0.05,0.05,0,0,1,0,0,0.06,0.06,0,0,1,0,0,0.77,0.77,0,0,1,.62-0.08l1.38,0,1.39,0a1.73,1.73,0,0,0,.56,0,0.19,0.19,0,0,0,.08-0.17,0.61,0.61,0,0,0-.5-0.13,1.37,1.37,0,0,0-.59.1,1.25,1.25,0,0,0-1.11,0,2.12,2.12,0,0,0-1.3-.23,8.27,8.27,0,0,1-.84,0,0.28,0.28,0,0,1-.19-0.2,0.22,0.22,0,0,1,.14-0.16c0.51,0,1,.05,1.49.09a25.58,25.58,0,0,0,3,.1,0.31,0.31,0,0,0,0-.28,0.88,0.88,0,0,0-1.08.07,0.81,0.81,0,0,0-.93-0.14,1.87,1.87,0,0,1-.46.09c-0.28,0-.35-0.16-0.34-0.26a0.48,0.48,0,0,1,.61-0.33,2.73,2.73,0,0,0,1.73-.28,0.17,0.17,0,0,0,0-.17,1.07,1.07,0,0,0-1,0,1.34,1.34,0,0,0-1.17,0l-0.16.05a1.39,1.39,0,0,0-.61-0.11,5.3,5.3,0,0,0-1.17.16,0.12,0.12,0,0,1-.05,0,0.15,0.15,0,0,1,0-.06,4.91,4.91,0,0,1,1.83-.52,5.43,5.43,0,0,0,1.46-.21c0.55-.28.55-0.41,0.55-0.43a1.19,1.19,0,0,0-1.12.23,0.84,0.84,0,0,0-.88,0l-0.26.11a4.21,4.21,0,0,1-1,.17h-0.09a4.1,4.1,0,0,1,1-.72s1.21-.09,1.45-0.13a1.59,1.59,0,0,0,.63-0.32,4.37,4.37,0,0,0-.82.15c-0.31,0-.55,0-0.74,0h-0.41a1,1,0,0,1-.57-0.12,0.36,0.36,0,0,1,0-.07,2.22,2.22,0,0,1,.68-0.14,13.57,13.57,0,0,0,1.82-.24,0.34,0.34,0,0,0-.09-0.22,0.9,0.9,0,0,0-.65-0.18,3.88,3.88,0,0,0-.71.08l-0.1-.14a2.25,2.25,0,0,0-1.24.12l-0.1,0a0.19,0.19,0,0,1-.13-0.13,0.45,0.45,0,0,1,.27-0.26l0.47-.08a1.81,1.81,0,0,0,.6-0.15,2,2,0,0,0,1.18-.28,0.55,0.55,0,0,0-.55-0.23,5.71,5.71,0,0,0-1.91.54,0.18,0.18,0,0,1-.15,0,1,1,0,0,1,.36-0.61l0.08,0a3.16,3.16,0,0,0,2.32-1.11,0.2,0.2,0,0,0,0-.13h0a1.79,1.79,0,0,0-.8.54c-0.09-.3-0.21-0.34-0.32-0.34a1.88,1.88,0,0,0-.66.23,2.39,2.39,0,0,1-.65.24c-0.36,0-.49-0.06-0.5-0.16a0.28,0.28,0,0,1,.3-0.22l0.14,0a0.86,0.86,0,0,0,.88-0.58,0.38,0.38,0,0,1,.38-0.29,1.21,1.21,0,0,1,.35.08,0.89,0.89,0,0,0,.22.05,0.13,0.13,0,0,0,.08-0.15,0.53,0.53,0,0,0-.24-0.24,0.67,0.67,0,0,0,.12-0.37,0.4,0.4,0,0,0-.37-0.12h-0.2c-0.78,0-1.68-.1-1.69-0.1a0,0,0,0,1,0,0,0,0,0,0,1,0,0,5,5,0,0,1,1.58-.31h0.1a0.67,0.67,0,0,0,.28,0,0.1,0.1,0,0,0,.07-0.09,0.77,0.77,0,0,0-.78-0.36,2.25,2.25,0,0,1-1.16-.26l0.39-.21,0.9-.34-0.06-.12,0-.2a0.65,0.65,0,0,0,.25-0.38,0.56,0.56,0,0,0-.52-0.06l-1.18.16-2.14.32a0.52,0.52,0,0,1-.3-0.17c0-.12.09-0.17,0.25-0.21a12.82,12.82,0,0,1,2.79-.43s0.06,0,0-.08a1.31,1.31,0,0,0-1.12-.67,3,3,0,0,0-1.64.25,0.48,0.48,0,0,1-.37-0.28,0.32,0.32,0,0,1,.29-0.23,4.19,4.19,0,0,1,1.61.07,0.94,0.94,0,0,0,.5-0.27s0-.07-0.33-0.12a2.58,2.58,0,0,0-1.19.06,1.8,1.8,0,0,1-.41.07l0,0a0.09,0.09,0,0,1,0-.05,1.44,1.44,0,0,1,.82-0.22,2.34,2.34,0,0,0,.72-0.16,2,2,0,0,0-1,0,5.24,5.24,0,0,1-.67.07,0.28,0.28,0,0,1-.22-0.23,0.27,0.27,0,0,1,.23-0.22h1.74a1.54,1.54,0,0,1,0-.47c0-.17,0-0.33,0-0.49h-0.48a7.28,7.28,0,0,0-.91.07,5.25,5.25,0,0,1-.55,0l-0.06,0a0.08,0.08,0,0,1,0,0,2.25,2.25,0,0,1,1.43-.46,2.71,2.71,0,0,0,.48-0.09,0.1,0.1,0,0,0,0-.08,0.29,0.29,0,0,0-.25-0.05,6.94,6.94,0,0,0-1.29.2c-0.29,0-.34-0.12-0.35-0.18a0.28,0.28,0,0,1,.17-0.27,4.81,4.81,0,0,1,.56,0,1.84,1.84,0,0,0,.94-0.13,0.08,0.08,0,0,0,0-.07,0.29,0.29,0,0,0-.34-0.16,3.21,3.21,0,0,0-.68.11,3.44,3.44,0,0,1-.73,0,0.11,0.11,0,0,1,0,0,0.11,0.11,0,0,1,0-.06,1.57,1.57,0,0,1,.91-0.17,2.51,2.51,0,0,0,.76-0.11s0-.08-0.44-0.08c-0.24,0-.54,0-0.78,0l-0.32,0h0a0.13,0.13,0,0,1,0,0,0.14,0.14,0,0,1,0-.06,2.47,2.47,0,0,1,1.34-.31l0.22,0a0.41,0.41,0,0,0-.06-0.12,1.52,1.52,0,0,0-1,.1,0.61,0.61,0,0,1-.49.05,0.42,0.42,0,0,1,0-.37,4.29,4.29,0,0,0,.48-0.26h0s-0.34-.1-0.38-0.1a0.88,0.88,0,0,1,0-.43,1.71,1.71,0,0,0,.38-0.38h0a1.68,1.68,0,0,0-.43.09l0-.38a0.61,0.61,0,0,0,.36-0.2,0.49,0.49,0,0,0-.36-0.12l-0.17-1.44-0.12,1.29-0.55.11a0.79,0.79,0,0,1,.45.4,0.13,0.13,0,0,1,0,.12,0.47,0.47,0,0,1-.32.09h-0.15a1.22,1.22,0,0,1,.49.46l0,0.08a1.47,1.47,0,0,1-.61.13,1.17,1.17,0,0,1,.6.57,1,1,0,0,1,0,.35,3.54,3.54,0,0,0-1.3-.57,0.63,0.63,0,0,0-.22,0,0.39,0.39,0,0,0,.27.16,3.54,3.54,0,0,1,1.09.58,0.07,0.07,0,0,1,0,.05,0.11,0.11,0,0,1-.06,0,3.7,3.7,0,0,1-.48-0.07,5.18,5.18,0,0,0-.85-0.12,0.25,0.25,0,0,0-.24.08l0.58,0.12a3.06,3.06,0,0,1,1.24.4l-0.17.06-0.62,0-0.62,0a0.7,0.7,0,0,0-.42.05,1.08,1.08,0,0,0,.69.14,4.39,4.39,0,0,1,1,.13,0.3,0.3,0,0,1,.12.3,0.27,0.27,0,0,1-.26.13c-0.57-.26-1.69-0.38-1.69-0.16l0.37,0a3.21,3.21,0,0,1,1.29.27,0.51,0.51,0,0,1-.37.09c-0.33,0-.78,0-1.18-0.09s-0.66-.07-0.87-0.07a0.37,0.37,0,0,0-.19,0,1.12,1.12,0,0,0,.85.44h0.09a4.25,4.25,0,0,1,1.88.41,0.09,0.09,0,0,1-.1.09,4.06,4.06,0,0,1-.47-0.06,4.15,4.15,0,0,0-1.74,0,0.17,0.17,0,0,0-.09.06,3.5,3.5,0,0,0,.81.09,3.58,3.58,0,0,1,1.56.29,0.17,0.17,0,0,1,.09.17,0.13,0.13,0,0,1-.13.05,4.1,4.1,0,0,1-.82-0.2s-1.09-.15-1.65-0.15a0.81,0.81,0,0,0-.29,0,2.72,2.72,0,0,0-.54.39,0.66,0.66,0,0,0,.27.22l0.09,0,0.06,0.05a0.51,0.51,0,0,1-.13.23,8.31,8.31,0,0,1,2.92,1,0.14,0.14,0,0,1,.06.13,0.12,0.12,0,0,1-.12,0,21.56,21.56,0,0,1-3-.92,1.06,1.06,0,0,0-.56.36,0.76,0.76,0,0,0,.66.13,0.88,0.88,0,0,0,0,.25,0.29,0.29,0,0,0,.13.17c0.09,0,2.54.53,2.8,1a0.12,0.12,0,0,1,0,.12,0.14,0.14,0,0,1-.13.05,9.1,9.1,0,0,1-2.11-.74,0.91,0.91,0,0,0-.39-0.07,3.23,3.23,0,0,0-1.25.27l0.22,0.08a0.62,0.62,0,0,1,.41.26,0.53,0.53,0,0,1-.41.22,0.81,0.81,0,0,0-.33.13s0.46,0.15.91,0.28a11.35,11.35,0,0,1,3.13,1.21c0.14,0.12.16,0.17,0.15,0.21a0.18,0.18,0,0,1-.08,0,16.28,16.28,0,0,1-2.51-1,0.27,0.27,0,0,1,0,.18,0.15,0.15,0,0,1-.1.1,0.53,0.53,0,0,1-.3-0.14,1.64,1.64,0,0,0-1-.39,1.37,1.37,0,0,0-.69.2,2.17,2.17,0,0,0,1.23.43v0.12c-0.08.2-.11,0.27,0.24,0.49l0.09,0.06s0,0.07,0,.07a3.09,3.09,0,0,1-.44-0.2l-0.45-.21a1.63,1.63,0,0,1,.12.4,1.12,1.12,0,0,0-1.28-.05,0.62,0.62,0,0,0,.42.43,0.56,0.56,0,0,0,0,.29,0.61,0.61,0,0,0,.37.2,4.22,4.22,0,0,1,.76.32,0,0,0,0,1,0,.07,1,1,0,0,0-1,0,0.56,0.56,0,0,0,.54.29l0.68,0.08c1.08,0.12,2.71.29,3.17,0.89,0.13,0.17.17,0.26,0.13,0.3a1.71,1.71,0,0,1-.75-0.34,2.86,2.86,0,0,0-.37-0.21,2.14,2.14,0,0,1,0,.34,5.87,5.87,0,0,0-1.18-.46s0,0,0,.09a0.44,0.44,0,0,1,0,.12,2.68,2.68,0,0,0-1.35-.49V854l0,0.14a1.46,1.46,0,0,0-.67-0.24,1.44,1.44,0,0,0-.77.26,0.1,0.1,0,0,0-.06.06,2.36,2.36,0,0,0,.88.14,3.14,3.14,0,0,1,1.58.33,0.52,0.52,0,0,1,.21.45,0.21,0.21,0,0,1-.14.13l-1-.38h0a6,6,0,0,0-.89-0.08,1.1,1.1,0,0,0-.63.13,8.2,8.2,0,0,0,1.7.45c1.91,0.42,3.37.77,3.46,1.19a0.13,0.13,0,0,1,0,.11,1.68,1.68,0,0,1-1.08-.3,13.3,13.3,0,0,0-1.38-.53l-0.09.37h0a3.26,3.26,0,0,0-1-.52,1.21,1.21,0,0,1,.14.42,8.41,8.41,0,0,0-1.53-.34,1.07,1.07,0,0,0-.47.09,0.11,0.11,0,0,0-.08.06,3.8,3.8,0,0,0,1.29.32,4.06,4.06,0,0,1,1.4.36,0.16,0.16,0,0,1,0,.1l-0.1.06a2.06,2.06,0,0,1-.36-0.07,1.16,1.16,0,0,0-.59-0.05,0.18,0.18,0,0,1-.17.07,3.47,3.47,0,0,1-.64-0.11,2.65,2.65,0,0,0-.72-0.09,0.6,0.6,0,0,0,.19.42c0.29,0,3,.29,3.14.67a0.35,0.35,0,0,1,0,.1,0.27,0.27,0,0,1-.22.07,7.2,7.2,0,0,1-1.48-.32,0.36,0.36,0,0,0,0,.31,0.1,0.1,0,0,1,0,.08l-0.11-.05a1.43,1.43,0,0,0-.78-0.27,0.14,0.14,0,0,0,0,.11l-0.25,0a3.46,3.46,0,0,0-.9-0.3l-0.06.08c0.12,0.3,2.32.77,2.72,0.85a0,0,0,0,1,0,0,0,0,0,0,1,0,0,2.2,2.2,0,0,0-1,.27,0.11,0.11,0,0,1,0,.07s0,0,0,0c-1-.62-1.26-0.56-1.34-0.44a0.1,0.1,0,0,0,0,.08,0.1,0.1,0,0,1-.12,0,4.66,4.66,0,0,0-.75-0.12,0.17,0.17,0,0,0-.11,0,1.16,1.16,0,0,0,.52.36c1,0.52,1,.62,1,0.66a0.28,0.28,0,0,1,0,.06,0.09,0.09,0,0,1-.07,0,1.45,1.45,0,0,1,.11.35,0.28,0.28,0,0,1-.24-0.05,5.61,5.61,0,0,0-1.12-.46h0a1.09,1.09,0,0,0-.92.44,0.87,0.87,0,0,0,.72.63,3.81,3.81,0,0,0,2.51.08,2.86,2.86,0,0,1,1-.15,1.9,1.9,0,0,1,1.25.38,0.25,0.25,0,0,1,0,.21c0,0.11-.15.07-0.34,0a1.43,1.43,0,0,0-.71-0.26,1,1,0,0,0-.77.43,2.17,2.17,0,0,0-1.33,0,0.52,0.52,0,0,0,.16.43,5.12,5.12,0,0,0-1.15-.17,0.57,0.57,0,0,0-.59.2c0,0.11.22,0.32,1.13,0.47h0.3a8,8,0,0,0,3-.5,0.85,0.85,0,0,0,.5.35,0.5,0.5,0,0,0,.33-0.15,0.54,0.54,0,0,1,.33-0.17,0.33,0.33,0,0,1,.25.33l0.44-.2h0.14ZM977.59,860a1,1,0,0,1-.68-0.4,0.16,0.16,0,0,1,.13-0.07h0a1.18,1.18,0,0,1,.53.15,1.12,1.12,0,0,1,0,.32h0Zm-0.52-.43,0,0-0.09,0a1.53,1.53,0,0,0,.62.33,0.83,0.83,0,0,1,0-.23,1.48,1.48,0,0,0-.49-0.12v0h0Zm3.18,0.4a0.88,0.88,0,0,1-.81-0.4,0.48,0.48,0,0,1,.38-0.17h0a1.77,1.77,0,0,1,.53.1,0.38,0.38,0,0,1,0,.44,0.33,0.33,0,0,1-.17,0h0Zm-0.39-.54,0,0a0.46,0.46,0,0,0-.32.12,1,1,0,0,0,.87.29,0.32,0.32,0,0,0,0-.33,2.11,2.11,0,0,0-.49-0.08v0h0Zm2.19,0.51a3.76,3.76,0,0,1-.59-0.06l0-.24a0.55,0.55,0,0,1,.3-0.07h0a1,1,0,0,1,.68.18,0.2,0.2,0,0,1,0,.1,0.46,0.46,0,0,1-.35.09h0Zm-0.52-.11c0.08,0,.32,0,0.52,0a0.4,0.4,0,0,0,.29-0.06,0.84,0.84,0,0,0-.61-0.16v0a1,1,0,0,0-.26,0l0,0.16h0Zm0.23-.7a1.47,1.47,0,0,1-.32,0l-0.06-.26a0,0,0,0,1,0,0h0v0l0,0a2.57,2.57,0,0,0,.48-0.08,2.72,2.72,0,0,1,.38-0.07,0.16,0.16,0,0,1,.15.05,0.18,0.18,0,0,1,0,.17,0.77,0.77,0,0,1-.64.26h0Zm-0.25-.09h0.25a0.7,0.7,0,0,0,.58-0.23,0.12,0.12,0,0,0,0-.09l-0.06-.05,0,0a2.27,2.27,0,0,0-.36.07,2.88,2.88,0,0,1-.48.08l0,0.17h0Zm-1.19.05a3,3,0,0,1-1-.14,1,1,0,0,1-.58-0.33,0.24,0.24,0,0,1,.19-0.12h0a0.73,0.73,0,0,1,.36.14l0.07,0a0.67,0.67,0,0,1,.22,0,5,5,0,0,1,.73.07l0,0.32-0.09,0h0Zm-1.32-.55v0a0.33,0.33,0,0,0-.14,0,1.3,1.3,0,0,0,.54.27,3.12,3.12,0,0,0,.94.13l0-.24s-0.39,0-.68,0l-0.23,0-0.1,0a0.66,0.66,0,0,0-.32-0.12v0h0Zm2.66-.28h-0.21l0-.19s0,0,.14-0.06a2.86,2.86,0,0,1,.38-0.06,0.33,0.33,0,0,1,.14,0,0.12,0.12,0,0,1,0,.13,0.5,0.5,0,0,1-.45.17h0Zm-0.17-.17v0.1h0.17a0.45,0.45,0,0,0,.38-0.13s0,0-.08,0a2.32,2.32,0,0,0-.39.06l-0.08,0h0Zm-1.25-.39a1.8,1.8,0,0,1-1.06-.49,0.14,0.14,0,0,1,0-.08,0.17,0.17,0,0,1,.11,0h0a1.5,1.5,0,0,1,1.11.48,0.17,0.17,0,0,1-.19.12h0Zm-0.93-.56v0h-0.06a1.85,1.85,0,0,0,1,.44,0.15,0.15,0,0,0,.13,0,1.68,1.68,0,0,0-1.05-.41v0h0Zm4,0.24h-0.21a0,0,0,0,1,0,0,0,0,0,0,1,0,0,1.12,1.12,0,0,1,.4-0.15l0.1,0,0,0.09a0.33,0.33,0,0,1-.32.12h0Zm-0.07-.07h0.07a0.31,0.31,0,0,0,.25-0.06v0l-0.07,0v0a0.78,0.78,0,0,0-.26.09h0Zm-1.81-.24h0a0.06,0.06,0,0,1,0,0s0-.21,0-0.21a5.34,5.34,0,0,1,2.24-.71h0a0.56,0.56,0,0,1,.32.07,0.5,0.5,0,0,1-.43.42h0a10.41,10.41,0,0,0-2.08.46h0Zm0-.21a1.42,1.42,0,0,1,0,.17,9.28,9.28,0,0,1,2-.5,0.52,0.52,0,0,0,.42-0.31,1.13,1.13,0,0,0-.27,0v0a5.54,5.54,0,0,0-2.18.67h0Zm0-.4a0.39,0.39,0,0,1,0-.24,0.84,0.84,0,0,1,.25-0.08,10.22,10.22,0,0,1,1.27-.27,0.22,0.22,0,0,1,.1,0,0.36,0.36,0,0,1,0,.09,6.53,6.53,0,0,1-1.55.47h0Zm1.5-.53a10.38,10.38,0,0,0-1.25.27l-0.23.05a0.31,0.31,0,0,1,0,.16,11.82,11.82,0,0,0,1.47-.49h0Zm-1.53-.07,0-.24a1.26,1.26,0,0,1,.33-0.06l0.43,0h0.07a0.28,0.28,0,0,1,.21,0,0.44,0.44,0,0,1,0,.07,2.19,2.19,0,0,1-1,.23h0Zm0.79-.3-0.07,0-0.43,0-0.3,0,0,0.17a3.13,3.13,0,0,0,.91-0.21h0a0.51,0.51,0,0,0-.15,0v0h0Zm-0.74-.21a1.62,1.62,0,0,1-.06-0.49,9.45,9.45,0,0,1,2-.5h0a0.21,0.21,0,0,1,.2.07,0.2,0.2,0,0,1-.08.18c-0.12.12-1.88,0.67-2.08,0.74h0Zm2-.95,0,0a10.32,10.32,0,0,0-1.94.46,3.21,3.21,0,0,1,0,.41c0.73-.28,1.91-0.68,2-0.76a0.17,0.17,0,0,0,.06-0.09,0.16,0.16,0,0,0-.13,0v0h0Zm-2,.21,0-.36a0,0,0,0,1,0,0l0.09,0a6.88,6.88,0,0,1,.92-0.13c0.15,0,.2,0,0.22.06a0.12,0.12,0,0,1-.06.13,2.51,2.51,0,0,1-1.16.36h0Zm0-.33v0.29a3.33,3.33,0,0,0,1.08-.37s0-.06-0.08-0.06a7.3,7.3,0,0,0-.94.13h-0.06Zm-0.92-.43h0L978,853a0.67,0.67,0,0,1,0-.1,0.24,0.24,0,0,1,.18-0.06h0a8.65,8.65,0,0,1,2.36.63l0.07,0.32a0,0,0,0,1,0,0h0Zm-2.35-.92a0.26,0.26,0,0,0-.17,0l2.48,0.79,0-.23a8.57,8.57,0,0,0-2.26-.6h0Zm3.27,0.9a0.87,0.87,0,0,1-.07-0.29,0,0,0,0,1,0,0h0v0l0.06,0a1.27,1.27,0,0,1,.49.09s0,0.07,0,.07a1,1,0,0,1-.53.16h0Zm0-.26c0,0.08,0,.22,0,0.22a1.54,1.54,0,0,0,.43-0.15,2.35,2.35,0,0,0-.45-0.06h0Zm0-.33a0.78,0.78,0,0,1-.07-0.29,0.29,0.29,0,0,1,.17-0.05c0.22,0,.66-0.09.89-0.1h0a0.19,0.19,0,0,1,.15,0l0,0,0,0a5.94,5.94,0,0,1-1.16.33h0Zm0-.25a0.56,0.56,0,0,1,.06.21c0.33-.11.88-0.24,1-0.33h0v0l0,0c-0.23,0-.66.07-0.88,0.1l-0.13,0h0Zm-0.85-.22c-0.14,0-1.69-.65-1.87-0.65v0a0.14,0.14,0,0,1-.05-0.17,0.17,0.17,0,0,1,.15-0.07h0a6.32,6.32,0,0,1,1.64.53l0.12,0.05a0.41,0.41,0,0,1,0,.17c0,0.06,0,.12,0,0.14h0Zm-1.86-.72a16.76,16.76,0,0,1,1.8.67,0.18,0.18,0,0,1,0-.08c0-.07,0-0.11,0-0.13a0.2,0.2,0,0,1-.11,0,6.55,6.55,0,0,0-1.58-.52,0.14,0.14,0,0,0-.11,0,0.09,0.09,0,0,0,0,.06h0Zm2.67,0.44,0-.28a6.88,6.88,0,0,1,1.2-.18h0.06a0.29,0.29,0,0,1,.13,0,0.26,0.26,0,0,1,0,.07,7,7,0,0,1-1.35.37h0Zm1.21-.42-0.06,0c-0.35,0-1.12.13-1.16,0.14l0,0.21c0.38-.12,1-0.26,1.21-0.35h0v0h0Zm-1.22-.24v0h0a0.61,0.61,0,0,1,0-.25,0.11,0.11,0,0,1,.07,0l0.34-.08a10.89,10.89,0,0,1,1.18-.19,0.23,0.23,0,0,1,.16,0,0.28,0.28,0,0,1,0,.09,6.89,6.89,0,0,1-1.7.45h0Zm1.59-.54,0,0a11.33,11.33,0,0,0-1.16.19l-0.38.07c0,0.08,0,.14,0,0.17a7,7,0,0,0,1.62-.43l-0.05,0h0Zm-2.32,0c-0.14,0-2.56-.85-2.56-0.85a0.12,0.12,0,0,1,0-.15,0.28,0.28,0,0,1,.22-0.09h0a7,7,0,0,1,2.27.8,1.83,1.83,0,0,1,0,.3h0Zm-2.3-1.06,0,0a0.21,0.21,0,0,0-.17.06s2.23,0.83,2.46.91a0.39,0.39,0,0,1,0-.19,6.4,6.4,0,0,0-2.22-.79v0h0Zm3,0.45,0-.29a0,0,0,0,1,0,0l0.17,0a6.32,6.32,0,0,1,.82-0.16,0.19,0.19,0,0,1,.14,0,0.39,0.39,0,0,1,0,.09,3.45,3.45,0,0,1-1.11.4h0Zm0-.26v0.22a4.8,4.8,0,0,0,1-.41,6,6,0,0,0-.88.16l-0.15,0h0Zm-0.86.24h0a16,16,0,0,1-1.93-.67,0.17,0.17,0,0,1,0-.16,0.18,0.18,0,0,1,.17-0.08h0a6,6,0,0,1,1.81.57l0,0.3a0,0,0,0,1,0,0h0Zm-1.77-.84a0.16,0.16,0,0,0-.13,0,0.1,0.1,0,0,0,0,.09,18.31,18.31,0,0,0,1.84.62v-0.22a6,6,0,0,0-1.73-.53h0Zm2.46-.71-0.06-.41a4.88,4.88,0,0,1,1.11-.13h0.07c0.26,0,.32,0,0.33.07a0.13,0.13,0,0,1,0,.08,4.27,4.27,0,0,1-1.44.39h0Zm1.12-.47h-0.07c-0.43,0-1.07.09-1.07,0.09l0.05,0.34a5.33,5.33,0,0,0,1.35-.4,0.44,0.44,0,0,0-.26,0h0Zm-1.71-.2a2.8,2.8,0,0,1-1.09-.43,0.15,0.15,0,0,1,.15-0.1h0a4.63,4.63,0,0,1,.71.1l0.19,0a0.19,0.19,0,0,1,0,0,0.13,0.13,0,0,1,0,.06,0.63,0.63,0,0,1,0,.29h0Zm-0.92-.49,0,0-0.08,0a5.33,5.33,0,0,0,1,.39s0-.18,0-0.24a0.21,0.21,0,0,0-.17-0.06,4.57,4.57,0,0,0-.7-0.1v0h0Zm0.81-.1c-0.15,0-1.69-.44-1.85-0.44v0l-0.07,0a0.18,0.18,0,0,1,0-.07,0.3,0.3,0,0,1,.25-0.11h0a6.7,6.7,0,0,1,1.65.3,0.16,0.16,0,0,1,0,.09,1.82,1.82,0,0,1,0,.25h0Zm-1.62-.56a0.44,0.44,0,0,0-.25,0h0c0.18,0,1.69.44,1.81,0.47a0.39,0.39,0,0,1,0-.21,5.73,5.73,0,0,0-1.55-.32h0Zm2.25-.42a0.42,0.42,0,0,1-.07-0.23,0,0,0,0,1,0,0h0.13a0.55,0.55,0,0,1,.33.08,0.1,0.1,0,0,1,0,.08,0.69,0.69,0,0,1-.37.1h0Zm0-.19a0.86,0.86,0,0,0,0,.14,1.29,1.29,0,0,0,.31-0.1l-0.27,0h-0.05Zm0-.15-0.05-.36a0,0,0,0,1,0,0h0a2.27,2.27,0,0,1,.86.12,1.31,1.31,0,0,1-.84.28h0Zm0-.32v0.29a2.7,2.7,0,0,0,.75-0.21,2.87,2.87,0,0,0-.76-0.08h0Zm-0.7-.1a0.74,0.74,0,0,1-.36-0.07,0.37,0.37,0,0,1,0-.08,0.79,0.79,0,0,1,.4-0.12h0.07v0.06h0l0,0.2-0.16,0h0Zm0.09-.21h-0.05a0.81,0.81,0,0,0-.34.09,1.52,1.52,0,0,0,.42.06l0-.15h0Z" transform="translate(-951.46 -836.22)"/>
      <rect class="d" width="17.93" height="34.37"/>
      <rect class="d" x="40.99" width="17.93" height="34.37"/>
    </g>
  </g>
</svg>
