<svg xmlns="http://www.w3.org/2000/svg" xmlns:xlink="http://www.w3.org/1999/xlink" viewBox="0 0 58.92 34.37">
  <defs>
    <style>
      .a {
        fill: none;
      }

      .b {
        clip-path: url(#a);
      }

      .c {
        fill: #376fb8;
      }

      .d {
        fill: #fff;
      }

      .e {
        fill: #3b7b0f;
      }

      .f {
        fill: #f6d128;
      }

      .g {
        fill: #e08728;
      }

      .h {
        fill: #89888a;
      }

      .i {
        fill: #6600b1;
      }

      .j {
        fill: #cb0423;
      }

      .k {
        fill: #f8e329;
      }

      .l {
        fill: #f0df76;
      }

      .m {
        fill: #801612;
      }
    </style>
    <clipPath id="a" transform="translate(-1092.84 -836.22)">
      <rect class="a" x="1092.84" y="836.22" width="58.92" height="34.37"/>
    </clipPath>
  </defs>
  <title>Northern_Mariana_Islands</title>
  <g class="b">
    <rect class="c" width="58.92" height="34.37"/>
    <g class="b">
      <path class="d" d="M1125.71,862a2.7,2.7,0,0,1,2-.89,1.67,1.67,0,0,1,1.43-1.25,1.5,1.5,0,0,1,1.34-1.56,2.61,2.61,0,0,1,.92-1.59s-0.18-1.35.74-1.66a1.69,1.69,0,0,1,.18-1.87s-0.95-1.69-.11-2.17a1.52,1.52,0,0,1-.6-1.6A1,1,0,0,1,1131,848c-0.8-.14-1-1.43-1-1.43a1.1,1.1,0,0,1-1.38-.82,0.77,0.77,0,0,1-.91-0.67s-1.61.43-1.93-.78a0.62,0.62,0,0,1-.89-0.25,1.09,1.09,0,0,1-1.42-.41,1.22,1.22,0,0,1-1.65,0s-1.39.92-1.85,0.21a1.38,1.38,0,0,1-1.55.47,1.57,1.57,0,0,1-1.62.82,1.45,1.45,0,0,1-1.38,1s0.12,0.9-1.26,1.14a1.41,1.41,0,0,1-.9,1.24,11.37,11.37,0,0,0-.95,2.65,1.26,1.26,0,0,1-.23,1.7c0.84,0.22.23,1.67,0.23,1.67a0.94,0.94,0,0,1,.43,1.48c0.83,0.27.57,0.93,0.58,1.32,0.53,0.24,1,.12.77,1.19,1.63,0.18.86,1.08,0.86,1.08s0.76,0,.46.63a1.43,1.43,0,0,1,1.59,1s1.29-.34,1.46.16a21.27,21.27,0,0,1-.56,3.87,2.82,2.82,0,0,1-1.9-.87c-1.9-.05-1.48-1.3-1.51-1.3s-0.63.23-.94-0.81a0.87,0.87,0,0,1-1.24-.82,0.63,0.63,0,0,1-.36-0.79,1,1,0,0,1-1.21-1.16,0.57,0.57,0,0,1-.35-0.65c-0.17-.06-1.33-0.08-0.73-1.61-1.11-.67-0.42-1.44-0.42-1.44s-1.53-.79-0.35-1.7c-0.88-1.3.07-1.95,0.07-1.95s-1.22-1.24,0-2.12c-0.2-1.88.92-2.33,0.92-2.33a1.66,1.66,0,0,1,1-2.17,1.43,1.43,0,0,1,1.22-1.59s0-1.23,1.79-1.11a1.35,1.35,0,0,1,1.54-.88s0.37-1.33,2-.69c0.83-1.62,2.06-.79,2.06-0.79a1.85,1.85,0,0,1,1.17-.35c0.49-.85,1.55,0,2.23.13a1.33,1.33,0,0,1,1.81.08,1.3,1.3,0,0,1,1.67.47,1.28,1.28,0,0,1,1.82.81c2.63-.24,2.25,1.48,2.25,1.48s2.07-.47,1.62,1.59c1.88,0.13,1.69,1.37,1.69,1.37s1.19,0.9.67,1.71a0.73,0.73,0,0,1,.67,1.07s0.81,0.31.14,1.57a1.54,1.54,0,0,1,.29,2.46,1.86,1.86,0,0,1,.07,2.16c0.23,1.84-.7,2.31-0.7,2.31a1.32,1.32,0,0,1-.8,1.53,1.57,1.57,0,0,1-1.34,1.57s0.35,0.61-1,1.25c-0.05.94-1.42,1-1.42,1a1.38,1.38,0,0,1-1.87,1.26c-0.42,1.38-2.46,1-2.5.95s-0.39-3-.39-3h0Z" transform="translate(-1092.84 -836.22)"/>
      <path d="M1118,865.36h0a2.85,2.85,0,0,1-1.94-.89h0a1.68,1.68,0,0,1-1.32-.46,1,1,0,0,1-.2-0.81h-0.1a7.18,7.18,0,0,0-2.07-1.68,0.63,0.63,0,0,1-.39-0.75,1.08,1.08,0,0,1-.89-0.31,1.33,1.33,0,0,1-.29-0.92,0.52,0.52,0,0,1-.36-0.6h0a1,1,0,0,1-.75-0.45,1.42,1.42,0,0,1,.06-1.17,1.17,1.17,0,0,1-.61-0.78,0.93,0.93,0,0,1,.17-0.66,1.46,1.46,0,0,1-.76-0.94,0.93,0.93,0,0,1,.42-0.79,1.38,1.38,0,0,1,.06-1.94,1.84,1.84,0,0,1-.51-1.26,1.23,1.23,0,0,1,.58-0.9,2.11,2.11,0,0,1,.88-2.31,1.7,1.7,0,0,1,1.06-2.19,1.45,1.45,0,0,1,1.19-1.59c0-.24.25-1.21,1.84-1.11a1.31,1.31,0,0,1,1.5-.89,1.29,1.29,0,0,1,1.22-.86,2.27,2.27,0,0,1,.79.16,1.54,1.54,0,0,1,1.35-1,1.47,1.47,0,0,1,.76.22,1.7,1.7,0,0,1,1.11-.37,0.74,0.74,0,0,1,.67-0.37,2.81,2.81,0,0,1,1,.3,4,4,0,0,0,.57.21l0.1-.06a2,2,0,0,1,.88-0.28,1,1,0,0,0,1.37.24,1.37,1.37,0,0,0,1.72.51,1.33,1.33,0,0,1,1.25,1,1.1,1.1,0,0,1,.43-0.06,1.94,1.94,0,0,1,1.59.56,1.26,1.26,0,0,1,.25.93,1.57,1.57,0,0,1,1.44.37,1.47,1.47,0,0,1,.18,1.24,2,2,0,0,1,1.43.61,1.13,1.13,0,0,1,.25.82s1.13,0.82.71,1.65a0.76,0.76,0,0,1,.59.31,1,1,0,0,1,.05.78,0.75,0.75,0,0,1,.34.39,1.49,1.49,0,0,1-.19,1.19,1.6,1.6,0,0,1,.68,1.85,1.8,1.8,0,0,1-.38.63,1.91,1.91,0,0,1,0,2.18c0.24,1.79-.65,2.29-0.72,2.32a1.28,1.28,0,0,1-.81,1.53,1.53,1.53,0,0,1-1.28,1.56,0.59,0.59,0,0,1,0,.34,1.76,1.76,0,0,1-1,.91c0,0.83-1.14,1-1.39,1a1.43,1.43,0,0,1-1.37,1.34,2.26,2.26,0,0,1-.51-0.07,1.72,1.72,0,0,1-1.82,1,3,3,0,0,1-.75-0.08c-0.08,0-.42-3-0.42-3a2.89,2.89,0,0,1,1.84-1l0.22,0a1.74,1.74,0,0,1,1.41-1.23,1.56,1.56,0,0,1,1.39-1.57,2.44,2.44,0,0,1,.89-1.58h0a1.57,1.57,0,0,1,.7-1.64,1.7,1.7,0,0,1,.19-1.83h0a5.56,5.56,0,0,1-.36-0.9,1.12,1.12,0,0,1,.22-1.28,1.6,1.6,0,0,1-.57-1.55A1.06,1.06,0,0,1,1131,849a1.22,1.22,0,0,1-.07-0.94,1.71,1.71,0,0,1-.93-1.41,1.12,1.12,0,0,1-1.38-.82,0.78,0.78,0,0,1-.91-0.7,1.48,1.48,0,0,1-.58.1,1.27,1.27,0,0,1-1.33-.83,0.8,0.8,0,0,1-.32.07,0.66,0.66,0,0,1-.56-0.33,1.42,1.42,0,0,1-.5.1,1.06,1.06,0,0,1-.91-0.5,1.69,1.69,0,0,1-.86.26,1.12,1.12,0,0,1-.78-0.3,2.89,2.89,0,0,1-1.29.46,0.68,0.68,0,0,1-.56-0.24,1.4,1.4,0,0,1-1.52.45,1.71,1.71,0,0,1-1.32.85,1.18,1.18,0,0,1-.28,0,1.49,1.49,0,0,1-1.36,1,1.26,1.26,0,0,1-1.31,1.14,1.39,1.39,0,0,1-.85,1.22,12,12,0,0,0-.94,2.61,1.32,1.32,0,0,1-.2,1.67,0.58,0.58,0,0,1,.31.29,2.06,2.06,0,0,1-.11,1.38,1.24,1.24,0,0,1,.63.71,0.93,0.93,0,0,1-.18.77,0.9,0.9,0,0,1,.56,1.11,2.08,2.08,0,0,0,0,.24,0.65,0.65,0,0,1,.26.06c0.39,0.13.69,0.23,0.52,1.08a1.13,1.13,0,0,1,1,.5,0.66,0.66,0,0,1-.1.58,0.61,0.61,0,0,1,.43.24,0.43,0.43,0,0,1,0,.38,1.52,1.52,0,0,1,1.54,1,3.79,3.79,0,0,1,.78-0.1,0.64,0.64,0,0,1,.69.31,20.39,20.39,0,0,1-.56,3.9v0h0Zm-3.48-2.28,0.09,0v0.07a0.94,0.94,0,0,0,.17.75,1.69,1.69,0,0,0,1.28.44,2.91,2.91,0,0,0,1.85.87,18.19,18.19,0,0,0,.55-3.79,0.59,0.59,0,0,0-.58-0.23,3.65,3.65,0,0,0-.81.11l-0.06,0v-0.06a1.36,1.36,0,0,0-1.48-1h-0.09v-0.08a0.36,0.36,0,0,0,0-.35,0.62,0.62,0,0,0-.44-0.2h-0.12l0.08-.09a0.63,0.63,0,0,0,.14-0.55,1.12,1.12,0,0,0-1-.44h-0.06v-0.06c0.17-.81-0.05-0.89-0.43-1l-0.3-.11a0.72,0.72,0,0,1,0-.3,0.79,0.79,0,0,0-.55-1l-0.08,0,0-.06a0.86,0.86,0,0,0,.21-0.74,1.19,1.19,0,0,0-.62-0.65l-0.05,0,0-.05a2.11,2.11,0,0,0,.13-1.33,0.48,0.48,0,0,0-.33-0.26l-0.09,0,0.07-.07a1.22,1.22,0,0,0,.23-1.62l0,0,0,0a1.5,1.5,0,0,0,.36-1.23l0,0,0,0a1.49,1.49,0,0,0,.55-1.3v0h0a1.35,1.35,0,0,0,.86-1.19c1.35-.27,1.26-1.09,1.26-1.12V846.1h0.06a1.38,1.38,0,0,0,1.32-1V845l0.06,0a1.21,1.21,0,0,0,.31,0,1.67,1.67,0,0,0,1.24-.84l0,0,0,0a1.27,1.27,0,0,0,1.48-.46l0,0,0,0.06a0.55,0.55,0,0,0,.5.24,3,3,0,0,0,1.27-.47l0,0,0,0a1,1,0,0,0,.73.3,1.62,1.62,0,0,0,.85-0.28l0,0,0,0a1,1,0,0,0,.84.5,1.24,1.24,0,0,0,.5-0.11l0.05,0,0,0.05a0.56,0.56,0,0,0,.48.31,0.73,0.73,0,0,0,.33-0.09l0.06,0,0,0.07a1.15,1.15,0,0,0,1.24.81,2.79,2.79,0,0,0,.61-0.07h0l0,0.06a0.69,0.69,0,0,0,.84.61h0.06v0.06a0.91,0.91,0,0,0,1,.79,1.6,1.6,0,0,0,.29,0h0.06v0.06s0.17,1.25.91,1.38h0.06l0,0.06a1.15,1.15,0,0,0,0,.91,1,1,0,0,0,.54.42l0.06,0,0,0.06a1.46,1.46,0,0,0,.58,1.54l0.06,0.05-0.07,0a1,1,0,0,0-.24,1.19,4.44,4.44,0,0,0,.37.9l0,0,0,0.07a1.59,1.59,0,0,0-.15,1.77l0,0.06-0.06,0c-0.87.29-.7,1.58-0.7,1.6a2.86,2.86,0,0,0-.92,1.6,1.51,1.51,0,0,0-1.34,1.55v0.06h-0.06a1.6,1.6,0,0,0-1.38,1.21v0.05h-0.05l-0.25,0a2.94,2.94,0,0,0-1.74.9c0,0.12.35,2.78,0.4,2.9s0.29,0,.67,0a1.62,1.62,0,0,0,1.73-1l0-.05h0.05a2.12,2.12,0,0,0,.54.08,1.33,1.33,0,0,0,1.26-1.28v-0.05h0s1.32-.09,1.36-1a1.78,1.78,0,0,0,1-.88,0.43,0.43,0,0,0,0-.33l0-.07h0.08a1.5,1.5,0,0,0,1.29-1.51,1.33,1.33,0,0,0,.8-1.52c0-.07.92-0.54,0.7-2.31a1.84,1.84,0,0,0-.06-2.13l0-.09a1.74,1.74,0,0,0,.43-1,1.69,1.69,0,0,0-.75-1.31l0,0,0,0a1.43,1.43,0,0,0,.21-1.13,0.62,0.62,0,0,0-.32-0.35l-0.05,0,0-.05a0.93,0.93,0,0,0,0-.73,0.7,0.7,0,0,0-.59-0.26h-0.1l0.05-.08c0.49-.76-0.64-1.62-0.66-1.63a1.31,1.31,0,0,0-.25-0.79,1.91,1.91,0,0,0-1.41-.57h-0.07v-0.06a1.41,1.41,0,0,0-.14-1.2,1.55,1.55,0,0,0-1.41-.32l-0.09,0,0-.09a1.18,1.18,0,0,0-.22-0.91,2.15,2.15,0,0,0-2-.5,1.35,1.35,0,0,0-1.21-.95,1.49,1.49,0,0,0-.59.13l0,0,0,0a1.55,1.55,0,0,0-1.06-.62,1,1,0,0,0-.53.17l0,0,0,0a1,1,0,0,0-.77-0.4,1.84,1.84,0,0,0-.83.26l-0.15.07a3.13,3.13,0,0,1-.62-0.22c-0.62-.27-1.28-0.45-1.58.06l0,0,0,0a2,2,0,0,0-1.12.35,2.21,2.21,0,0,0-.76-0.2,1.47,1.47,0,0,0-1.27,1l0,0,0,0a2.18,2.18,0,0,0-.79-0.17,1.16,1.16,0,0,0-1.13.82v0h-0.05a1.31,1.31,0,0,0-1.47.84,0.94,0.94,0,0,1-.29,0,1.24,1.24,0,0,0-1.5,1.06v0.05h-0.05a1.37,1.37,0,0,0-1.16,1.54,1.64,1.64,0,0,0-1,2.14l0,0.05-0.05,0s-1.08.46-.88,2.27a1.27,1.27,0,0,0-.55.87,1.82,1.82,0,0,0,.52,1.22l0,0-0.06,0s-0.89.64-.06,1.87l0,0,0,0a0.85,0.85,0,0,0-.42.72,1.48,1.48,0,0,0,.76.88l0.06,0,0,0.05a0.85,0.85,0,0,0-.19.63,1.1,1.1,0,0,0,.6.73l0,0,0,0a1.36,1.36,0,0,0-.08,1.12,0.91,0.91,0,0,0,.68.39l0.1,0,0,0v0a0.52,0.52,0,0,0,.32.59,1.67,1.67,0,0,0,.3.89,1,1,0,0,0,.88.26h0.09l0,0.09a0.55,0.55,0,0,0,.32.71l0,0.07a0.76,0.76,0,0,0,.81.79,1.86,1.86,0,0,0,.36,0h0.05l0,0.05a0.85,0.85,0,0,0,.72.79l0.13,0h0Z" transform="translate(-1092.84 -836.22)"/>
      <path class="e" d="M1113.08,845.5a1.12,1.12,0,0,1,.36.95,8.78,8.78,0,0,0-.34,1.95,4.33,4.33,0,0,1,0,.66,2.37,2.37,0,0,1-.4-1.16c0-.6.43-1.17,0.43-1.61a5.77,5.77,0,0,0-.07-0.79h0Z" transform="translate(-1092.84 -836.22)"/>
      <path d="M1113.12,849.11a0.06,0.06,0,0,1,0,0,2.39,2.39,0,0,1-.41-1.19,2.54,2.54,0,0,1,.24-1,2,2,0,0,0,.19-0.66,4.7,4.7,0,0,0-.06-0.71,0.26,0.26,0,0,1,0-.11c0.06,0,.08,0,0.19.1a1.15,1.15,0,0,1,.27.89,6.69,6.69,0,0,1-.15.68,3.76,3.76,0,0,0-.19,1.26,4.24,4.24,0,0,1,0,.67,0.05,0.05,0,0,1,0,.05h0Zm0-3.46a3.38,3.38,0,0,1,.06.63,2,2,0,0,1-.19.7,2.45,2.45,0,0,0-.23.91,2.16,2.16,0,0,0,.29,1,3.23,3.23,0,0,0,0-.45,3.83,3.83,0,0,1,.19-1.3,6.31,6.31,0,0,0,.15-0.67,1,1,0,0,0-.23-0.79h0Z" transform="translate(-1092.84 -836.22)"/>
      <path class="e" d="M1112.87,845.67a2.33,2.33,0,0,0-.65,1.08c-0.05.27-.08,1.55-0.08,2.11,0,0.17-.08.86-0.1,1.11s0.42-.43.45-1a15.2,15.2,0,0,1,0-1.95,6.53,6.53,0,0,1,.12-0.72c0.11-.32.22-0.65,0.22-0.66h0Z" transform="translate(-1092.84 -836.22)"/>
      <path d="M1112.06,850.07h0l-0.05,0a0.25,0.25,0,0,1,0-.09c0-.15,0-0.45.06-0.7l0-.4c0-.67,0-1.85.08-2.12a2.37,2.37,0,0,1,.66-1.11,0.06,0.06,0,0,1,.08,0s0,0-.06.29l-0.14.43a1.88,1.88,0,0,0-.07.41,2.73,2.73,0,0,1,0,.3,15.13,15.13,0,0,0,0,1.93,1.57,1.57,0,0,1-.48,1.08h0Zm0.67-4.17a1.89,1.89,0,0,0-.45.85c0,0.19-.07,1-0.08,2.11,0,0.07,0,.23,0,0.41s0,0.48-.06.64a2,2,0,0,0,.33-0.92,15.41,15.41,0,0,1,0-2c0-.09,0-0.19,0-0.29a2,2,0,0,1,.08-0.44l0.14-.41h0Z" transform="translate(-1092.84 -836.22)"/>
      <path class="f" d="M1125.44,843.89a2,2,0,0,0,1-1c0.21-.64-0.64-0.64-0.75-0.44a3.75,3.75,0,0,0,0,.84,0.88,0.88,0,0,0-.24.58h0Z" transform="translate(-1092.84 -836.22)"/>
      <path class="g" d="M1125.43,843.92l0,0a0.45,0.45,0,0,1,.14-0.46,1.12,1.12,0,0,0,.09-0.15,0.81,0.81,0,0,0,0-.3,0.94,0.94,0,0,1,0-.54,0.6,0.6,0,0,1,.78,0,0.45,0.45,0,0,1,0,.42,2,2,0,0,1-1,1h0Zm0.53-1.54a0.36,0.36,0,0,0-.29.1,0.91,0.91,0,0,0,0,.51,0.76,0.76,0,0,1,0,.33,1.3,1.3,0,0,1-.1.16,0.59,0.59,0,0,0-.16.37,1.9,1.9,0,0,0,.91-0.95,0.38,0.38,0,0,0,0-.36,0.46,0.46,0,0,0-.38-0.16h0Z" transform="translate(-1092.84 -836.22)"/>
      <path class="f" d="M1118.87,844.12a2,2,0,0,0,.36-1.32c-0.12-.66-0.87-0.25-0.87,0a3.8,3.8,0,0,0,.45.71,0.89,0.89,0,0,0,.07.63h0Z" transform="translate(-1092.84 -836.22)"/>
      <path class="g" d="M1118.88,844.15h0a0.45,0.45,0,0,1-.1-0.47,1.15,1.15,0,0,0,0-.18,0.85,0.85,0,0,0-.17-0.25,0.92,0.92,0,0,1-.27-0.47,0.56,0.56,0,0,1,.54-0.37,0.4,0.4,0,0,1,.39.38,2,2,0,0,1-.36,1.34v0h0Zm0-1.68a0.52,0.52,0,0,0-.48.31,0.94,0.94,0,0,0,.26.43,0.74,0.74,0,0,1,.19.28,1.14,1.14,0,0,1,0,.19,0.59,0.59,0,0,0,0,.4,1.91,1.91,0,0,0,.34-1.27,0.34,0.34,0,0,0-.34-0.33h0Z" transform="translate(-1092.84 -836.22)"/>
      <path class="f" d="M1117.57,844.51a2,2,0,0,0,.36-1.32c-0.12-.66-0.87-0.25-0.87,0a3.83,3.83,0,0,0,.45.71,0.89,0.89,0,0,0,.07.62h0Z" transform="translate(-1092.84 -836.22)"/>
      <path class="g" d="M1117.58,844.54h0a0.46,0.46,0,0,1-.1-0.47,1,1,0,0,0,0-.18,0.79,0.79,0,0,0-.17-0.25,0.93,0.93,0,0,1-.28-0.47,0.56,0.56,0,0,1,.54-0.37,0.39,0.39,0,0,1,.39.38,2,2,0,0,1-.36,1.34v0h0Zm0-1.68a0.52,0.52,0,0,0-.48.31,0.92,0.92,0,0,0,.26.43,0.77,0.77,0,0,1,.18.28,1.07,1.07,0,0,1,0,.19,0.59,0.59,0,0,0,0,.4,1.92,1.92,0,0,0,.34-1.28,0.34,0.34,0,0,0-.34-0.33h0Z" transform="translate(-1092.84 -836.22)"/>
      <path class="f" d="M1116.13,845a2,2,0,0,0,.36-1.32c-0.12-.66-0.87-0.25-0.87,0a3.77,3.77,0,0,0,.45.71,0.88,0.88,0,0,0,.07.62h0Z" transform="translate(-1092.84 -836.22)"/>
      <path class="g" d="M1116.14,845h0a0.45,0.45,0,0,1-.1-0.47,0.93,0.93,0,0,0,0-.18,0.81,0.81,0,0,0-.17-0.25,0.93,0.93,0,0,1-.28-0.47,0.56,0.56,0,0,1,.54-0.37,0.39,0.39,0,0,1,.39.38,2,2,0,0,1-.36,1.34v0h0Zm0-1.68a0.52,0.52,0,0,0-.48.31,0.94,0.94,0,0,0,.26.43,0.74,0.74,0,0,1,.18.28,1.07,1.07,0,0,1,0,.19,0.59,0.59,0,0,0,0,.4,1.92,1.92,0,0,0,.34-1.28,0.34,0.34,0,0,0-.34-0.33h0Z" transform="translate(-1092.84 -836.22)"/>
      <path class="f" d="M1115.11,846a2,2,0,0,0,.36-1.32c-0.12-.66-0.87-0.25-0.87,0a3.83,3.83,0,0,0,.45.71,0.88,0.88,0,0,0,.07.62h0Z" transform="translate(-1092.84 -836.22)"/>
      <path class="g" d="M1115.12,846h0a0.46,0.46,0,0,1-.1-0.47,0.93,0.93,0,0,0,0-.18,0.79,0.79,0,0,0-.17-0.25,0.94,0.94,0,0,1-.28-0.47,0.56,0.56,0,0,1,.54-0.37,0.39,0.39,0,0,1,.39.38,2,2,0,0,1-.36,1.34v0h0Zm0-1.68a0.52,0.52,0,0,0-.48.31,0.92,0.92,0,0,0,.26.43,0.75,0.75,0,0,1,.18.28,1.07,1.07,0,0,1,0,.19,0.6,0.6,0,0,0,0,.4,1.92,1.92,0,0,0,.34-1.28,0.34,0.34,0,0,0-.34-0.33h0Z" transform="translate(-1092.84 -836.22)"/>
      <path class="f" d="M1114,847a2,2,0,0,0,.36-1.32c-0.12-.66-0.87-0.25-0.87,0a3.74,3.74,0,0,0,.45.71,0.89,0.89,0,0,0,.07.63h0Z" transform="translate(-1092.84 -836.22)"/>
      <path class="g" d="M1114.05,847h0a0.46,0.46,0,0,1-.1-0.47,1.1,1.1,0,0,0,0-.18,0.83,0.83,0,0,0-.17-0.24,0.93,0.93,0,0,1-.28-0.47,0.56,0.56,0,0,1,.54-0.37,0.39,0.39,0,0,1,.39.38,2,2,0,0,1-.36,1.34v0h0Zm0-1.68a0.52,0.52,0,0,0-.48.31,0.93,0.93,0,0,0,.26.43,0.78,0.78,0,0,1,.18.28,1.14,1.14,0,0,1,0,.19,0.59,0.59,0,0,0,0,.4,1.9,1.9,0,0,0,.34-1.27,0.34,0.34,0,0,0-.33-0.33h0Z" transform="translate(-1092.84 -836.22)"/>
      <path class="f" d="M1116.5,841.24a2,2,0,0,0-.7,1.18c-0.06.67,0.77,0.47,0.83,0.25a3.68,3.68,0,0,0-.24-0.81,0.89,0.89,0,0,0,.1-0.62h0Z" transform="translate(-1092.84 -836.22)"/>
      <path class="g" d="M1116.2,842.91h0a0.44,0.44,0,0,1-.33-0.12,0.47,0.47,0,0,1-.1-0.37,2,2,0,0,1,.71-1.2c0.15,0.08.07,0.3,0,.47a1.06,1.06,0,0,0-.06.17,0.84,0.84,0,0,0,.1.28,0.92,0.92,0,0,1,.14.53,0.51,0.51,0,0,1-.47.23h0Zm0.29-1.64a2.15,2.15,0,0,0-.65,1.15,0.4,0.4,0,0,0,.08.32,0.37,0.37,0,0,0,.28.11,0.46,0.46,0,0,0,.41-0.19,0.93,0.93,0,0,0-.13-0.49,0.76,0.76,0,0,1-.1-0.32,1.05,1.05,0,0,1,.06-0.18,0.47,0.47,0,0,0,.05-0.41h0Z" transform="translate(-1092.84 -836.22)"/>
      <path class="f" d="M1118.64,840.58a2,2,0,0,0-.7,1.17c-0.06.67,0.77,0.47,0.84,0.25a3.75,3.75,0,0,0-.24-0.81,0.89,0.89,0,0,0,.1-0.62h0Z" transform="translate(-1092.84 -836.22)"/>
      <path class="g" d="M1118.33,842.25h0a0.43,0.43,0,0,1-.33-0.12,0.47,0.47,0,0,1-.1-0.37,2,2,0,0,1,.71-1.19c0.15,0.08.07,0.3,0,.47a1.12,1.12,0,0,0-.06.17,0.82,0.82,0,0,0,.1.28,0.93,0.93,0,0,1,.14.53,0.51,0.51,0,0,1-.47.23h0Zm0.29-1.64a2.14,2.14,0,0,0-.65,1.15,0.41,0.41,0,0,0,.08.32,0.38,0.38,0,0,0,.28.1h0a0.46,0.46,0,0,0,.41-0.19,0.93,0.93,0,0,0-.14-0.49,0.73,0.73,0,0,1-.1-0.31,1.06,1.06,0,0,1,.06-0.19,0.48,0.48,0,0,0,.05-0.4h0Z" transform="translate(-1092.84 -836.22)"/>
      <path class="f" d="M1110.67,846.36a2,2,0,0,0,.69,1.18c0.56,0.37.79-.45,0.62-0.61a3.7,3.7,0,0,0-.82-0.18,0.88,0.88,0,0,0-.5-0.38h0Z" transform="translate(-1092.84 -836.22)"/>
      <path class="g" d="M1111.64,847.66h0a0.53,0.53,0,0,1-.29-0.1,2,2,0,0,1-.71-1.2v0h0.08a0.64,0.64,0,0,1,.34.27,1,1,0,0,0,.13.13,0.81,0.81,0,0,0,.29.05,0.92,0.92,0,0,1,.53.13,0.46,0.46,0,0,1,0,.45,0.43,0.43,0,0,1-.38.3h0Zm-0.92-1.28a1.83,1.83,0,0,0,.67,1.13,0.38,0.38,0,0,0,.58-0.18,0.42,0.42,0,0,0,0-.39,0.91,0.91,0,0,0-.49-0.12,0.74,0.74,0,0,1-.33-0.06l-0.13-.14a0.65,0.65,0,0,0-.3-0.25h0Z" transform="translate(-1092.84 -836.22)"/>
      <path class="f" d="M1109.6,849.09a2,2,0,0,0,.5,1.27c0.49,0.46.85-.32,0.71-0.51a3.73,3.73,0,0,0-.78-0.31,0.89,0.89,0,0,0-.43-0.46h0Z" transform="translate(-1092.84 -836.22)"/>
      <path class="g" d="M1110.41,850.53h0a0.48,0.48,0,0,1-.32-0.15,2,2,0,0,1-.51-1.29,0.41,0.41,0,0,1,.38.29,0.89,0.89,0,0,0,.1.15,0.75,0.75,0,0,0,.28.1,0.92,0.92,0,0,1,.5.22,0.42,0.42,0,0,1,0,.4,0.47,0.47,0,0,1-.4.29h0Zm-0.77-1.42a1.94,1.94,0,0,0,.49,1.22,0.43,0.43,0,0,0,.28.13h0a0.41,0.41,0,0,0,.34-0.26,0.38,0.38,0,0,0,0-.33,0.91,0.91,0,0,0-.47-0.19,0.76,0.76,0,0,1-.31-0.11,1.15,1.15,0,0,1-.11-0.16,0.59,0.59,0,0,0-.27-0.29h0Z" transform="translate(-1092.84 -836.22)"/>
      <path class="f" d="M1112.07,852.14a2,2,0,0,0-.91-1c-0.62-.25-0.69.6-0.49,0.72a3.71,3.71,0,0,0,.84,0,0.89,0.89,0,0,0,.56.28h0Z" transform="translate(-1092.84 -836.22)"/>
      <path class="g" d="M1112,852.19a0.77,0.77,0,0,1-.36-0.2l-0.15-.11a0.78,0.78,0,0,0-.3,0,1,1,0,0,1-.55,0,0.5,0.5,0,0,1-.08-0.51,0.41,0.41,0,0,1,.6-0.27,2,2,0,0,1,.93,1v0l-0.11,0h0Zm-0.59-.37,0.1,0,0.16,0.11a0.77,0.77,0,0,0,.33.19v0l0,0h0a2.14,2.14,0,0,0-.9-1,0.36,0.36,0,0,0-.52.23,0.46,0.46,0,0,0,.06.44,1,1,0,0,0,.51,0l0.23,0h0Z" transform="translate(-1092.84 -836.22)"/>
      <path class="f" d="M1111.55,850.82a2,2,0,0,0,.38-1.31c-0.11-.66-0.87-0.27-0.87,0a3.77,3.77,0,0,0,.43.72,0.88,0.88,0,0,0,.06.63h0Z" transform="translate(-1092.84 -836.22)"/>
      <path class="g" d="M1111.56,850.86h0a0.46,0.46,0,0,1-.09-0.47,1.05,1.05,0,0,0,0-.18,0.81,0.81,0,0,0-.17-0.25,0.92,0.92,0,0,1-.27-0.48,0.56,0.56,0,0,1,.54-0.36,0.39,0.39,0,0,1,.4.39,2,2,0,0,1-.39,1.33v0h0Zm0-1.68a0.51,0.51,0,0,0-.48.3,0.93,0.93,0,0,0,.25.44,0.75,0.75,0,0,1,.18.28,1.21,1.21,0,0,1,0,.19,0.58,0.58,0,0,0,0,.4,1.91,1.91,0,0,0,.36-1.27,0.34,0.34,0,0,0-.34-0.34h0Z" transform="translate(-1092.84 -836.22)"/>
      <path class="f" d="M1127,844.54a2,2,0,0,0,1-1c0.21-.64-0.64-0.64-0.75-0.44a3.66,3.66,0,0,0,0,.84,0.89,0.89,0,0,0-.24.58h0Z" transform="translate(-1092.84 -836.22)"/>
      <path class="g" d="M1126.94,844.58v0a0.45,0.45,0,0,1,.14-0.46,1.05,1.05,0,0,0,.09-0.15,0.82,0.82,0,0,0,0-.3,0.94,0.94,0,0,1,0-.54,0.6,0.6,0,0,1,.78,0,0.44,0.44,0,0,1,0,.41,2,2,0,0,1-1,1h0Zm0.53-1.54a0.36,0.36,0,0,0-.29.1,0.93,0.93,0,0,0,0,.51,0.76,0.76,0,0,1,0,.33,1,1,0,0,1-.1.17,0.6,0.6,0,0,0-.16.37,1.92,1.92,0,0,0,.91-1,0.39,0.39,0,0,0,0-.36,0.47,0.47,0,0,0-.38-0.16h0Z" transform="translate(-1092.84 -836.22)"/>
      <path class="f" d="M1129.19,845.66a2,2,0,0,0,.27-1.34c-0.17-.65-0.89-0.19-0.87,0a3.68,3.68,0,0,0,.49.68,0.89,0.89,0,0,0,.11.62h0Z" transform="translate(-1092.84 -836.22)"/>
      <path class="g" d="M1129.21,845.7h0a0.46,0.46,0,0,1-.13-0.46,1.2,1.2,0,0,0,0-.18,0.8,0.8,0,0,0-.19-0.23,1,1,0,0,1-.31-0.45,0.29,0.29,0,0,1,.09-0.2,0.67,0.67,0,0,1,.45-0.21,0.4,0.4,0,0,1,.39.36,2,2,0,0,1-.27,1.36v0h0ZM1129.1,844a0.61,0.61,0,0,0-.4.19,0.23,0.23,0,0,0-.08.15,0.94,0.94,0,0,0,.29.42,0.75,0.75,0,0,1,.2.26,1.11,1.11,0,0,1,0,.19,0.6,0.6,0,0,0,.07.39,1.9,1.9,0,0,0,.25-1.29,0.35,0.35,0,0,0-.33-0.31h0Z" transform="translate(-1092.84 -836.22)"/>
      <path class="f" d="M1135.31,852a2,2,0,0,0-.91-1c-0.62-.25-0.68.6-0.49,0.72a3.82,3.82,0,0,0,.84,0,0.89,0.89,0,0,0,.56.28h0Z" transform="translate(-1092.84 -836.22)"/>
      <path class="g" d="M1135.24,852.06a0.75,0.75,0,0,1-.36-0.2l-0.15-.1a0.78,0.78,0,0,0-.3,0,1,1,0,0,1-.54,0,0.5,0.5,0,0,1-.08-0.51,0.4,0.4,0,0,1,.6-0.27,2,2,0,0,1,.93,1l0,0-0.11,0h0Zm-0.59-.37,0.1,0,0.16,0.11a0.75,0.75,0,0,0,.33.19v0l0,0h0a2.15,2.15,0,0,0-.91-1,0.36,0.36,0,0,0-.52.23,0.47,0.47,0,0,0,.06.44,1,1,0,0,0,.51,0l0.23,0h0Z" transform="translate(-1092.84 -836.22)"/>
      <path class="f" d="M1132.32,852.48a2,2,0,0,1,.51-1.26c0.5-.45.85,0.33,0.71,0.51a3.68,3.68,0,0,1-.79.3,0.9,0.9,0,0,1-.43.45h0Z" transform="translate(-1092.84 -836.22)"/>
      <path class="g" d="M1132.35,852.52h0a1.81,1.81,0,0,1,.5-1.31,0.42,0.42,0,0,1,.72.15,0.43,0.43,0,0,1,0,.41,0.94,0.94,0,0,1-.5.21,0.81,0.81,0,0,0-.28.09,1,1,0,0,0-.11.15,0.57,0.57,0,0,1-.32.32h0Zm0.79-1.4a0.43,0.43,0,0,0-.28.13,1.9,1.9,0,0,0-.5,1.22,0.59,0.59,0,0,0,.27-0.29,1.11,1.11,0,0,1,.11-0.16,0.76,0.76,0,0,1,.31-0.11,0.92,0.92,0,0,0,.47-0.19,0.39,0.39,0,0,0,0-.34,0.41,0.41,0,0,0-.34-0.26h0Z" transform="translate(-1092.84 -836.22)"/>
      <path class="f" d="M1131.84,843.83a2,2,0,0,0-1.37,0c-0.6.29,0,.91,0.21,0.85a3.83,3.83,0,0,0,.57-0.62,0.89,0.89,0,0,0,.58-0.23h0Z" transform="translate(-1092.84 -836.22)"/>
      <path class="g" d="M1130.65,844.72a0.61,0.61,0,0,1-.46-0.44,0.4,0.4,0,0,1,.27-0.46,1.48,1.48,0,0,1,.64-0.13,2.29,2.29,0,0,1,.75.13c0,0.17-.22.21-0.41,0.25l-0.17,0a0.84,0.84,0,0,0-.19.23,0.92,0.92,0,0,1-.38.39h0Zm0.45-1a1.39,1.39,0,0,0-.62.13,0.35,0.35,0,0,0-.24.4,0.56,0.56,0,0,0,.4.4v0l0,0a0.93,0.93,0,0,0,.35-0.37,0.75,0.75,0,0,1,.22-0.25l0.19,0a0.5,0.5,0,0,0,.38-0.16,4.8,4.8,0,0,0-.71-0.1h0Z" transform="translate(-1092.84 -836.22)"/>
      <path class="f" d="M1130.09,842.37a2,2,0,0,0-1.37,0c-0.6.29,0,.91,0.21,0.85a3.87,3.87,0,0,0,.57-0.62,0.9,0.9,0,0,0,.58-0.23h0Z" transform="translate(-1092.84 -836.22)"/>
      <path class="g" d="M1128.9,843.26a0.61,0.61,0,0,1-.46-0.44,0.4,0.4,0,0,1,.27-0.46,1.48,1.48,0,0,1,.64-0.13,2.28,2.28,0,0,1,.75.13c0,0.17-.22.21-0.41,0.25l-0.18,0a0.78,0.78,0,0,0-.19.23,0.92,0.92,0,0,1-.38.39h0Zm0.45-1a1.39,1.39,0,0,0-.62.13,0.35,0.35,0,0,0-.24.4,0.56,0.56,0,0,0,.4.4v0l0,0a0.93,0.93,0,0,0,.35-0.37,0.77,0.77,0,0,1,.22-0.25l0.19,0a0.49,0.49,0,0,0,.38-0.16,4.45,4.45,0,0,0-.71-0.1h0Z" transform="translate(-1092.84 -836.22)"/>
      <path class="f" d="M1127.49,841a2,2,0,0,0-.71,1.16c-0.07.67,0.77,0.48,0.83,0.26a3.8,3.8,0,0,0-.23-0.81,0.88,0.88,0,0,0,.11-0.62h0Z" transform="translate(-1092.84 -836.22)"/>
      <path class="g" d="M1127.17,842.64h0a0.44,0.44,0,0,1-.33-0.13,0.46,0.46,0,0,1-.1-0.37,2,2,0,0,1,.72-1.19c0.15,0.08.07,0.3,0,.48a1.14,1.14,0,0,0-.06.17,0.84,0.84,0,0,0,.09.28,0.94,0.94,0,0,1,.13.53,0.51,0.51,0,0,1-.46.22h0Zm0.3-1.64a2.15,2.15,0,0,0-.67,1.14,0.41,0.41,0,0,0,.08.33,0.38,0.38,0,0,0,.29.11h0a0.46,0.46,0,0,0,.41-0.18,0.93,0.93,0,0,0-.13-0.49,0.74,0.74,0,0,1-.1-0.32,1.07,1.07,0,0,1,.06-0.18,0.48,0.48,0,0,0,.06-0.41h0Z" transform="translate(-1092.84 -836.22)"/>
      <path class="f" d="M1125.79,840.57a2,2,0,0,0,0,1.37c0.29,0.6.91,0,.85-0.21a3.73,3.73,0,0,0-.61-0.57,0.88,0.88,0,0,0-.23-0.58h0Z" transform="translate(-1092.84 -836.22)"/>
      <path class="g" d="M1126.13,842.23h0a0.41,0.41,0,0,1-.37-0.28,2,2,0,0,1,0-1.39,0.38,0.38,0,0,1,.25.41,1.29,1.29,0,0,0,0,.18,0.78,0.78,0,0,0,.23.19,0.94,0.94,0,0,1,.39.38,0.33,0.33,0,0,1-.09.26,0.61,0.61,0,0,1-.44.25h0Zm-0.34-1.63a2.15,2.15,0,0,0,0,1.32,0.41,0.41,0,0,0,.71,0,0.28,0.28,0,0,0,.08-0.21,0.94,0.94,0,0,0-.36-0.35,0.71,0.71,0,0,1-.25-0.22,1,1,0,0,1,0-.19,0.48,0.48,0,0,0-.16-0.38h0Z" transform="translate(-1092.84 -836.22)"/>
      <path class="f" d="M1121,843.5a2,2,0,0,0,.45-1.29c-0.08-.67-0.85-0.31-0.87-0.08a3.77,3.77,0,0,0,.39.74,0.89,0.89,0,0,0,0,.63h0Z" transform="translate(-1092.84 -836.22)"/>
      <path class="g" d="M1121,843.54h0a0.45,0.45,0,0,1-.07-0.47,1.14,1.14,0,0,0,0-.18,0.77,0.77,0,0,0-.15-0.26,0.94,0.94,0,0,1-.24-0.49,0.56,0.56,0,0,1,.53-0.33,0.39,0.39,0,0,1,.4.41,2,2,0,0,1-.46,1.31v0h0Zm0.07-1.68a0.51,0.51,0,0,0-.47.28,0.92,0.92,0,0,0,.23.45,0.76,0.76,0,0,1,.16.29,1,1,0,0,1,0,.19,0.59,0.59,0,0,0,0,.4,1.91,1.91,0,0,0,.43-1.25,0.34,0.34,0,0,0-.34-0.36h0Z" transform="translate(-1092.84 -836.22)"/>
      <path class="h" d="M1123.85,844.84s1.26,0.08,1.33.8a1.7,1.7,0,0,1-.3,1.17,2,2,0,0,1-1.08,2,24.15,24.15,0,0,1-3.4,0s-0.61.15-.86-1.11a21.38,21.38,0,0,1-.32-2.16,1,1,0,0,1,1-.75c0.89,0,3.61,0,3.62,0h0Z" transform="translate(-1092.84 -836.22)"/>
      <path d="M1122.07,849c-0.9,0-1.67,0-1.68,0-0.25,0-.7-0.11-0.91-1.16a21.36,21.36,0,0,1-.32-2.16,1.06,1.06,0,0,1,1.07-.81c0.56,0,1.85,0,2.72,0h0.88c0.07,0,1.33.09,1.39,0.86a1.75,1.75,0,0,1-.31,1.21h0a2,2,0,0,1-1.1,2,14.86,14.86,0,0,1-1.75.08h0Zm-1.72-.15c0.14,0,.88,0,1.72,0a14.69,14.69,0,0,0,1.72-.08,2,2,0,0,0,1-2,1.83,1.83,0,0,0,.3-1.17c-0.06-.67-1.26-0.75-1.27-0.75H1123c-0.87,0-2.16,0-2.72,0a0.94,0.94,0,0,0-1,.71h0s0.07,0.89.32,2.13c0.2,1,.62,1.07.74,1.07h0Z" transform="translate(-1092.84 -836.22)"/>
      <path d="M1124.26,848.05a0.06,0.06,0,0,1-.06,0,2.57,2.57,0,0,1,.62-1.24,0.06,0.06,0,0,1,.08,0,0.06,0.06,0,0,1,0,.08,2.48,2.48,0,0,0-.6,1.14,0.06,0.06,0,0,1,0,.07h0Z" transform="translate(-1092.84 -836.22)"/>
      <path class="h" d="M1124,848.79a1,1,0,0,1,.36.82l0.07,1,0.88,8,0.78,5.76,0.05,0.89a1,1,0,0,1-.71.71c-0.38.79-2.44,1-2.64,1a6.11,6.11,0,0,0-1.24-.25,10.7,10.7,0,0,1-1.4.26,9.84,9.84,0,0,1-2.14-1.72l0.94-6.66,0.91-8.42a1.9,1.9,0,0,1,.56-1.29c0.47,0,2.89,0,3.57-.12h0Z" transform="translate(-1092.84 -836.22)"/>
      <path d="M1120.2,867.06h-0.09a1.48,1.48,0,0,1-1.18-.83,1.36,1.36,0,0,1-1-.94l0.94-6.68,0.91-8.42a1.91,1.91,0,0,1,.59-1.34c0.14,0,.42,0,0.77,0h0.61a14.16,14.16,0,0,0,2.19-.1,1,1,0,0,1,.43.88l0.07,1,0.88,8,0.78,5.75,0.05,0.9a1,1,0,0,1-.76.77c-0.35.79-2.38,1-2.64,1a1.94,1.94,0,0,1-.37-0.09,3.17,3.17,0,0,0-.8-0.16h-0.07a4.57,4.57,0,0,0-.6.13,3.44,3.44,0,0,1-.72.13h0Zm0.94-18.11h-0.75a1.79,1.79,0,0,0-.51,1.24l-0.91,8.42-0.94,6.66a1.36,1.36,0,0,0,1,.87,1.42,1.42,0,0,0,1.12.79h0.07a3.28,3.28,0,0,0,.69-0.13,4.66,4.66,0,0,1,.62-0.13,3,3,0,0,1,.92.17,2.08,2.08,0,0,0,.33.08h0c0.37,0,2.25-.27,2.59-1a1,1,0,0,0,.7-0.7l-0.05-.87-0.78-5.75-0.88-8-0.07-1a0.93,0.93,0,0,0-.34-0.78,11.41,11.41,0,0,1-2.17.12h-0.61Z" transform="translate(-1092.84 -836.22)"/>
      <polygon points="26.22 29.98 26.1 29.98 26.29 24.09 26.4 24.09 26.22 29.98 26.22 29.98"/>
      <polygon points="32.53 29.73 32.01 24.88 32.12 24.86 32.65 29.71 32.53 29.73 32.53 29.73"/>
      <path class="a" d="M1109.78,857.25l0,0.07Z" transform="translate(-1092.84 -836.22)"/>
      <path class="a" d="M1134.24,857l0,0.07Z" transform="translate(-1092.84 -836.22)"/>
      <path class="i" d="M1110.13,854.61h0a1.42,1.42,0,0,1-1.45-1.15,1.52,1.52,0,0,1,.19-0.92,1,1,0,0,0,.14-0.44c0-.5,0-2.77,0-2.79a0.06,0.06,0,0,1,.1,0,3.43,3.43,0,0,1,.47.87,4.38,4.38,0,0,0,.36,1.14,6.66,6.66,0,0,1,1.19,2.23,1.16,1.16,0,0,1-.34.76,1,1,0,0,1-.72.34h0Zm-0.95-5.12c0,0.55,0,2.19,0,2.61a1.15,1.15,0,0,1-.16.49,1.43,1.43,0,0,0-.18.87,1.31,1.31,0,0,0,1.33,1,0.92,0.92,0,0,0,.64-0.3,1.05,1.05,0,0,0,.31-0.67,6.07,6.07,0,0,0-1.14-2.12,4,4,0,0,1-.4-1.19,2.73,2.73,0,0,0-.35-0.72h0Z" transform="translate(-1092.84 -836.22)"/>
      <path class="i" d="M1113.19,845.9h0a2,2,0,0,1-.89-0.23,1,1,0,0,1-.43-0.64,1.14,1.14,0,0,1,.1-0.8,2.88,2.88,0,0,1,1-.67,6.07,6.07,0,0,0,1.11-.63,2.62,2.62,0,0,1,.84-0.7l0.1-.06a2.1,2.1,0,0,1,.72-0.2,10.64,10.64,0,0,0-1.26,2.13,1.08,1.08,0,0,0-.11.47,1.52,1.52,0,0,1-.31.88,1,1,0,0,1-.91.45h0Zm2.55-3.89a3.61,3.61,0,0,0-.65.21l-0.09.06a2.62,2.62,0,0,0-.82.69,5.85,5.85,0,0,1-1.12.64,2.9,2.9,0,0,0-1,.65,1.07,1.07,0,0,0-.09.75,0.94,0.94,0,0,0,.4.61,1.91,1.91,0,0,0,.86.22,1,1,0,0,0,.86-0.42,1.45,1.45,0,0,0,.3-0.85,1.12,1.12,0,0,1,.12-0.49,7.87,7.87,0,0,1,1.27-2.07h0Z" transform="translate(-1092.84 -836.22)"/>
      <path class="i" d="M1121.6,842h0a1.27,1.27,0,0,1-1.15-1,1,1,0,0,1,.16-0.76,1.12,1.12,0,0,1,.64-0.49,2.62,2.62,0,0,1,1.18.31,5.51,5.51,0,0,0,1.24.39l0.57,0a3.21,3.21,0,0,1,.63.05,2,2,0,0,1,.65.38,0.51,0.51,0,0,1-.3,0,4.4,4.4,0,0,0-2.11.54,2.13,2.13,0,0,0-.41.18,2.47,2.47,0,0,1-.9.3l-0.21,0h0Zm-0.23-2.19h-0.1a1.08,1.08,0,0,0-.61.46,0.94,0.94,0,0,0-.16.71,1.21,1.21,0,0,0,1.09,1h0l0.2,0a2.41,2.41,0,0,0,.88-0.29,2.16,2.16,0,0,1,.42-0.18,4.49,4.49,0,0,1,2.36-.54,3.48,3.48,0,0,0-.6-0.31,3.36,3.36,0,0,0-.61-0.05l-0.58,0a5.44,5.44,0,0,1-1.26-.4,3.24,3.24,0,0,0-1-.31h0Z" transform="translate(-1092.84 -836.22)"/>
      <path class="i" d="M1135.16,850.39h0a1.79,1.79,0,0,1-.71-0.68,5.06,5.06,0,0,0-1.12-1.14,1,1,0,0,0-.42-0.21,1.48,1.48,0,0,1-.77-0.51,1.39,1.39,0,0,1,.22-1.8,1,1,0,0,1,.7-0.26,1.14,1.14,0,0,1,.79.29,2.66,2.66,0,0,1,.36,1.16,5.45,5.45,0,0,0,.32,1.27,2.88,2.88,0,0,1,.52,1l0.07,0.26a1,1,0,0,1,.08.56l0,0h0Zm-2.12-4.54a0.92,0.92,0,0,0-.65.24,1.33,1.33,0,0,0-.21,1.71,1.42,1.42,0,0,0,.74.49,1.07,1.07,0,0,1,.44.22,5.07,5.07,0,0,1,1.13,1.15,2,2,0,0,0,.65.65,1.16,1.16,0,0,0-.09-0.5l-0.07-.24a2.87,2.87,0,0,0-.52-1,5.43,5.43,0,0,1-.33-1.29,2.66,2.66,0,0,0-.35-1.13,1.09,1.09,0,0,0-.74-0.27h0Z" transform="translate(-1092.84 -836.22)"/>
      <path class="i" d="M1134.83,857.68h0a1.45,1.45,0,0,1-.32-1,3.93,3.93,0,0,0-.33-1.47,1.53,1.53,0,0,0-.24-0.41,2,2,0,0,1-.39-0.87,1.27,1.27,0,0,1,1-1.4,1.15,1.15,0,0,1,1.25.76,2.65,2.65,0,0,1-.22,1.38,4.52,4.52,0,0,0-.27,1.07c0,0.12,0,.3-0.05.5a4.48,4.48,0,0,0-.06.68,1.42,1.42,0,0,1-.33.81h0Zm-0.07-5.17-0.2,0a1.21,1.21,0,0,0-1,1.33,1.92,1.92,0,0,0,.38.85,1.54,1.54,0,0,1,.24.43,4,4,0,0,1,.33,1.49,1.5,1.5,0,0,0,.27,1,1.31,1.31,0,0,0,.3-0.74,4.38,4.38,0,0,1,.06-0.7c0-.19,0-0.37.05-0.49a4.66,4.66,0,0,1,.28-1.09,2.6,2.6,0,0,0,.22-1.34,1.1,1.1,0,0,0-1-.74h0Z" transform="translate(-1092.84 -836.22)"/>
      <path d="M1128.57,864a0.83,0.83,0,0,1-.49-0.41,0.3,0.3,0,0,1,0-.23l0.1,0.05a0.19,0.19,0,0,0,0,.14,0.7,0.7,0,0,0,.43.34l0,0.11h0Z" transform="translate(-1092.84 -836.22)"/>
      <path d="M1129.38,862.79l0-.11a2.46,2.46,0,0,1,1.18,0l0,0.11a2.37,2.37,0,0,0-1.12,0h0Z" transform="translate(-1092.84 -836.22)"/>
      <path d="M1131.83,861.78a0.87,0.87,0,0,1-.47-0.79h0.11a0.78,0.78,0,0,0,.43.68l-0.07.09h0Z" transform="translate(-1092.84 -836.22)"/>
      <path d="M1132.85,860.57a1.93,1.93,0,0,1-1.08-.29l0.07-.09a2,2,0,0,0,1,.28v0.11h0Z" transform="translate(-1092.84 -836.22)"/>
      <path d="M1127.4,862.29l-0.08-.08a1.69,1.69,0,0,0,.36-1.11h0.11a1.76,1.76,0,0,1-.4,1.19h0Z" transform="translate(-1092.84 -836.22)"/>
      <path d="M1129.56,860a2.17,2.17,0,0,1-.49-0.05l0-.11a1.93,1.93,0,0,0,1.17-.1l0.05,0.1a1.72,1.72,0,0,1-.76.16h0Z" transform="translate(-1092.84 -836.22)"/>
      <path d="M1134.06,859a0.92,0.92,0,0,1-.75-0.2l0.09-.07a1.07,1.07,0,0,0,.83.14V859h-0.17Z" transform="translate(-1092.84 -836.22)"/>
      <path d="M1131.33,858.47a3.1,3.1,0,0,1-.87-0.14l0-.1,0,0.05,0-.05a2.25,2.25,0,0,0,1.35,0l0,0.1a1.39,1.39,0,0,1-.58.11h0Z" transform="translate(-1092.84 -836.22)"/>
      <path d="M1132.41,855.93a4.64,4.64,0,0,0-.28-0.84V855l0.06,0a1.5,1.5,0,0,1,.34.91l-0.11,0h0Z" transform="translate(-1092.84 -836.22)"/>
      <path d="M1132.42,853.22l-0.05-.1a0.88,0.88,0,0,0,.4-0.65h0.11a1,1,0,0,1-.46.75h0Z" transform="translate(-1092.84 -836.22)"/>
      <path d="M1134.81,851.16a1,1,0,0,1,.48-0.72l0.07,0.09a1,1,0,0,0-.45.58l-0.1.05h0Z" transform="translate(-1092.84 -836.22)"/>
      <path d="M1132.33,851l-0.07-.09a0.57,0.57,0,0,0,.17-0.77l0.1-.06a0.69,0.69,0,0,1-.21.92h0Z" transform="translate(-1092.84 -836.22)"/>
      <path d="M1131.73,848.46a0.76,0.76,0,0,0-.68-0.38V848a0.88,0.88,0,0,1,.79.45l-0.1.05h0Z" transform="translate(-1092.84 -836.22)"/>
      <polygon points="37.64 10.4 37.25 10.4 37.25 10.29 37.64 10.29 37.64 10.4 37.64 10.4"/>
      <path d="M1132.06,845.14l-0.08-.08a0.2,0.2,0,0,0,.09-0.23l0.1,0h-0.06l0.05,0a0.29,0.29,0,0,1-.11.37h0Z" transform="translate(-1092.84 -836.22)"/>
      <path d="M1128.76,845.79h-0.11a1.64,1.64,0,0,0-.22-0.91l0.1-.06a1.71,1.71,0,0,1,.23,1h0Z" transform="translate(-1092.84 -836.22)"/>
      <path d="M1130.06,843.45v-0.11a3,3,0,0,0,.5-0.19l0,0.1a3.08,3.08,0,0,1-.54.2h0Z" transform="translate(-1092.84 -836.22)"/>
      <path d="M1128.37,842.46a0.78,0.78,0,0,1-.13-0.77l0.06-.05v0.06l0,0a0.7,0.7,0,0,0,.09.65l-0.07.09h0Z" transform="translate(-1092.84 -836.22)"/>
      <path d="M1127.84,845.13l-0.1-.05c0.15-.28.1-0.34,0-0.46a0.71,0.71,0,0,1-.17-0.49h0.11a0.6,0.6,0,0,0,.15.42,0.43,0.43,0,0,1,0,.58h0Z" transform="translate(-1092.84 -836.22)"/>
      <path d="M1125.89,844.3h-0.11a2.79,2.79,0,0,1,.77-0.7l0,0.11a4.57,4.57,0,0,0-.68.6h0Z" transform="translate(-1092.84 -836.22)"/>
      <path d="M1125,844.06l-0.11,0a0.8,0.8,0,0,0-.21-0.65l0.08-.08a0.9,0.9,0,0,1,.24.75h0Z" transform="translate(-1092.84 -836.22)"/>
      <path d="M1123.53,843.73l-0.06-.1a1.24,1.24,0,0,0,.33-0.54l0.11,0a1.38,1.38,0,0,1-.38.6h0Z" transform="translate(-1092.84 -836.22)"/>
      <path d="M1121.89,843.68l-0.06-.1a1.72,1.72,0,0,0,.39-0.6l0.1,0a1.9,1.9,0,0,1-.43.64h0Z" transform="translate(-1092.84 -836.22)"/>
      <path d="M1120.1,843.87l-0.09-.08a0.72,0.72,0,0,0,.06-0.74l0-.09,0.07,0.06a0.82,0.82,0,0,1-.09.85h0Z" transform="translate(-1092.84 -836.22)"/>
      <path d="M1119.49,841.26l-0.09-.07a0.91,0.91,0,0,0,.17-0.62l0.09-.06a0.9,0.9,0,0,1-.17.75h0Z" transform="translate(-1092.84 -836.22)"/>
      <path d="M1117,842l0-.11c0.51-.1.5-0.38,0.49-0.46h0.11c0,0.11,0,.47-0.58.6h0Z" transform="translate(-1092.84 -836.22)"/>
      <path d="M1116.87,845.15a1.14,1.14,0,0,1-.65-0.15l0.08-.07,0.58,0.11,0,0.11h0Z" transform="translate(-1092.84 -836.22)"/>
      <path d="M1114.82,846.4l-0.06-.09a5.82,5.82,0,0,1,.75-0.24l0,0.11-0.71.22h0Z" transform="translate(-1092.84 -836.22)"/>
      <path d="M1114.1,847.34a3.42,3.42,0,0,1-.42,0l0-.12h0.06a1.27,1.27,0,0,0,.53,0l0.05,0.1a0.45,0.45,0,0,1-.18,0h0Z" transform="translate(-1092.84 -836.22)"/>
      <path d="M1113.39,848.57l-0.11,0a1.19,1.19,0,0,0,0-.82l0.06-.1a1,1,0,0,1,.05.94h0Z" transform="translate(-1092.84 -836.22)"/>
      <polygon points="18.4 9.83 18.11 9.4 18.2 9.34 18.49 9.77 18.4 9.83 18.4 9.83"/>
      <path d="M1110.68,848.35a1.24,1.24,0,0,1-.68-0.51l0-.05,0-.05,0.08,0a1.14,1.14,0,0,0,.62.47l0,0.11h0Z" transform="translate(-1092.84 -836.22)"/>
      <path d="M1112.26,850.07V850a3.42,3.42,0,0,0,.51-0.13l0.06,0.1a3.09,3.09,0,0,1-.57.15h0Z" transform="translate(-1092.84 -836.22)"/>
      <path d="M1112.06,851.69v-0.06l-0.05,0a0.68,0.68,0,0,1,.38-0.53l0.05,0.1a0.57,0.57,0,0,0-.32.44l-0.06.07h0Z" transform="translate(-1092.84 -836.22)"/>
      <path d="M1112.14,852.92a1.44,1.44,0,0,1-.62-0.55h0.06l0.05,0a1.59,1.59,0,0,0,.54.47l0,0.11h0Z" transform="translate(-1092.84 -836.22)"/>
      <path d="M1111.39,853.24l0-.11,0,0.05,0-.05a1.4,1.4,0,0,1,.86-0.31v0.11a1.29,1.29,0,0,0-.75.27l-0.06,0h0Z" transform="translate(-1092.84 -836.22)"/>
      <path d="M1112,854.63a1.09,1.09,0,0,1-.74-0.18,0.24,0.24,0,0,1-.09-0.16h0.11s0,0.3,1,.22v0.11l-0.33,0h0Z" transform="translate(-1092.84 -836.22)"/>
      <path d="M1111.42,855.6l-0.11,0a2.07,2.07,0,0,1,1-1.06l0,0.11a2,2,0,0,0-.94,1h0Z" transform="translate(-1092.84 -836.22)"/>
      <path d="M1112.3,856.52l-0.11,0a1.06,1.06,0,0,1,.67-0.56l0,0.11a1,1,0,0,0-.61.49h0Z" transform="translate(-1092.84 -836.22)"/>
      <path d="M1112.88,857.77l-0.07-.09a3.17,3.17,0,0,1,.55-0.38l0,0.11a3,3,0,0,0-.52.36h0Z" transform="translate(-1092.84 -836.22)"/>
      <path d="M1113.56,858.8a0.37,0.37,0,0,1-.27-0.09l0.08-.08s0.22,0.2.76-.18l0.07,0.09a1.14,1.14,0,0,1-.64.26h0Z" transform="translate(-1092.84 -836.22)"/>
      <path d="M1111.66,859.14a1.21,1.21,0,0,0-1.16-.21l0-.05v-0.06a1.26,1.26,0,0,1,1.27.26l-0.09.06h0Z" transform="translate(-1092.84 -836.22)"/>
      <path d="M1110.83,859.64l0-.11a3,3,0,0,1,1.07,0l-0.07.09a3.33,3.33,0,0,0-1,0h0Z" transform="translate(-1092.84 -836.22)"/>
      <path d="M1114.19,859.91a0.16,0.16,0,0,1-.14,0l0-.11,0.1,0a1.66,1.66,0,0,0,.94-0.23l0,0.11a3.07,3.07,0,0,1-.92.25h0Z" transform="translate(-1092.84 -836.22)"/>
      <path d="M1115.29,861l-0.06-.1a0.25,0.25,0,0,0,.1-0.29,0.8,0.8,0,0,1,.09-0.47l0.1,0.06a0.68,0.68,0,0,0-.08.4,0.36,0.36,0,0,1-.16.39h0Z" transform="translate(-1092.84 -836.22)"/>
      <path d="M1112.09,860.74l-0.07-.09h0a0.57,0.57,0,0,0,.31-0.63h0.11a0.69,0.69,0,0,1-.37.75h0Z" transform="translate(-1092.84 -836.22)"/>
      <path d="M1112.41,861.58l0-.11v0.05l0-.07a1,1,0,0,1,.81-0.11l-0.08.08a0.87,0.87,0,0,0-.68.13l-0.07,0h0Z" transform="translate(-1092.84 -836.22)"/>
      <path d="M1113.69,862.32l-0.11,0a1,1,0,0,1,.3-0.66l0,0.11a1,1,0,0,0-.22.57h0Z" transform="translate(-1092.84 -836.22)"/>
      <path d="M1114.58,863.21V863.1a1.7,1.7,0,0,0,.71-0.17l0.07,0.09a1.71,1.71,0,0,1-.78.19h0Z" transform="translate(-1092.84 -836.22)"/>
      <path d="M1116.25,861.45a1.35,1.35,0,0,1-.71-0.14l0.07-.09a2.14,2.14,0,0,0,1.45,0l0,0.11a3.56,3.56,0,0,1-.84.11h0Z" transform="translate(-1092.84 -836.22)"/>
      <path d="M1116.15,864.43H1116a6.83,6.83,0,0,0-.13-0.87l0.11,0a7,7,0,0,1,.13.9h0Z" transform="translate(-1092.84 -836.22)"/>
      <path class="j" d="M1134.18,852.41a0.77,0.77,0,0,0-.3-0.55,0.34,0.34,0,0,0-.46.06,0.85,0.85,0,0,0,.14,1.16A0.34,0.34,0,0,0,1134,853a0.77,0.77,0,0,0,.16-0.61h0Z" transform="translate(-1092.84 -836.22)"/>
      <path d="M1133.77,853.17h0a0.4,0.4,0,0,1-.22-0.07,0.81,0.81,0,0,1-.32-0.57,0.8,0.8,0,0,1,.17-0.63,0.37,0.37,0,0,1,.5-0.06,0.8,0.8,0,0,1,.32.57,0.81,0.81,0,0,1-.16.63,0.38,0.38,0,0,1-.28.13h0Zm-0.09-1.34a0.32,0.32,0,0,0-.24.11,0.74,0.74,0,0,0-.15.58,0.75,0.75,0,0,0,.29.53,0.34,0.34,0,0,0,.19.06h0A0.32,0.32,0,0,0,1134,853a0.83,0.83,0,0,0-.14-1.11,0.33,0.33,0,0,0-.18-0.06h0Z" transform="translate(-1092.84 -836.22)"/>
      <path class="j" d="M1134.08,851.21a0.76,0.76,0,0,0-.3-0.55,0.34,0.34,0,0,0-.46.06,0.85,0.85,0,0,0,.14,1.16,0.34,0.34,0,0,0,.46-0.06,0.76,0.76,0,0,0,.16-0.61h0Z" transform="translate(-1092.84 -836.22)"/>
      <path d="M1133.67,852h0a0.4,0.4,0,0,1-.22-0.07,0.88,0.88,0,0,1-.15-1.2,0.37,0.37,0,0,1,.5-0.06,0.88,0.88,0,0,1,.15,1.2,0.38,0.38,0,0,1-.28.13h0Zm-0.09-1.34a0.32,0.32,0,0,0-.24.11,0.83,0.83,0,0,0,.14,1.11,0.34,0.34,0,0,0,.19.06h0a0.32,0.32,0,0,0,.24-0.11,0.82,0.82,0,0,0-.14-1.11,0.34,0.34,0,0,0-.19-0.06h0Z" transform="translate(-1092.84 -836.22)"/>
      <path class="j" d="M1133.84,849.92a0.77,0.77,0,0,0-.35-0.52,0.34,0.34,0,0,0-.45.1,0.76,0.76,0,0,0-.1.62,0.77,0.77,0,0,0,.35.52,0.34,0.34,0,0,0,.45-0.1,0.77,0.77,0,0,0,.1-0.62h0Z" transform="translate(-1092.84 -836.22)"/>
      <path d="M1133.46,850.71h0a0.39,0.39,0,0,1-.19-0.05,0.88,0.88,0,0,1-.25-1.18,0.37,0.37,0,0,1,.49-0.11,0.88,0.88,0,0,1,.26,1.18,0.37,0.37,0,0,1-.3.16h0Zm-0.15-1.33a0.31,0.31,0,0,0-.25.13,0.73,0.73,0,0,0-.1.59,0.74,0.74,0,0,0,.33.5,0.35,0.35,0,0,0,.16,0h0a0.32,0.32,0,0,0,.25-0.13,0.82,0.82,0,0,0-.24-1.1,0.34,0.34,0,0,0-.16,0h0Z" transform="translate(-1092.84 -836.22)"/>
      <path class="j" d="M1133.39,848.58a0.77,0.77,0,0,0-.47-0.42,0.34,0.34,0,0,0-.41.21,0.85,0.85,0,0,0,.53,1,0.34,0.34,0,0,0,.41-0.21,0.76,0.76,0,0,0-.06-0.62h0Z" transform="translate(-1092.84 -836.22)"/>
      <path d="M1133.13,849.45H1133a0.88,0.88,0,0,1-.55-1.08,0.38,0.38,0,0,1,.45-0.22,0.88,0.88,0,0,1,.55,1.08,0.37,0.37,0,0,1-.35.24h0Zm-0.3-1.27a0.31,0.31,0,0,0-.29.2,0.82,0.82,0,0,0,.51,1,0.31,0.31,0,0,0,.38-0.19,0.82,0.82,0,0,0-.51-1h-0.09Z" transform="translate(-1092.84 -836.22)"/>
      <path class="j" d="M1132.91,847.5a0.77,0.77,0,0,0-.47-0.41,0.34,0.34,0,0,0-.41.21,0.85,0.85,0,0,0,.53,1,0.34,0.34,0,0,0,.41-0.21,0.77,0.77,0,0,0-.06-0.63h0Z" transform="translate(-1092.84 -836.22)"/>
      <path d="M1132.65,848.37h-0.1a0.88,0.88,0,0,1-.55-1.08,0.37,0.37,0,0,1,.45-0.23,0.88,0.88,0,0,1,.55,1.08,0.37,0.37,0,0,1-.35.24h0Zm-0.3-1.27a0.31,0.31,0,0,0-.29.21,0.82,0.82,0,0,0,.51,1,0.31,0.31,0,0,0,.38-0.19,0.82,0.82,0,0,0-.51-1h-0.09Z" transform="translate(-1092.84 -836.22)"/>
      <path class="j" d="M1132.24,846.41a0.76,0.76,0,0,0-.5-0.37,0.34,0.34,0,0,0-.39.24,0.85,0.85,0,0,0,.61,1,0.34,0.34,0,0,0,.39-0.24,0.77,0.77,0,0,0-.11-0.62h0Z" transform="translate(-1092.84 -836.22)"/>
      <path d="M1132,847.31H1132a0.88,0.88,0,0,1-.64-1,0.37,0.37,0,0,1,.36-0.27,0.86,0.86,0,0,1,.7,1,0.37,0.37,0,0,1-.36.27h0Zm-0.3-1.24a0.32,0.32,0,0,0-.35.22,0.82,0.82,0,0,0,.59,1H1132a0.31,0.31,0,0,0,.3-0.23,0.82,0.82,0,0,0-.59-1h0Z" transform="translate(-1092.84 -836.22)"/>
      <path class="j" d="M1131.48,845.37a0.77,0.77,0,0,0-.54-0.32,0.34,0.34,0,0,0-.37.28,0.85,0.85,0,0,0,.71.93,0.34,0.34,0,0,0,.37-0.28,0.77,0.77,0,0,0-.17-0.6h0Z" transform="translate(-1092.84 -836.22)"/>
      <path d="M1131.3,846.28h0a0.8,0.8,0,0,1-.56-0.34,0.79,0.79,0,0,1-.18-0.63,0.37,0.37,0,0,1,.37-0.3,0.87,0.87,0,0,1,.76,1,0.37,0.37,0,0,1-.38.3h0Zm-0.36-1.21a0.31,0.31,0,0,0-.34.26,0.74,0.74,0,0,0,.17.58,0.75,0.75,0,0,0,.51.31l0,0v0a0.31,0.31,0,0,0,.32-0.26,0.75,0.75,0,0,0-.16-0.58,0.74,0.74,0,0,0-.51-0.31h0Z" transform="translate(-1092.84 -836.22)"/>
      <path class="j" d="M1130.58,844.39a0.76,0.76,0,0,0-.58-0.24,0.34,0.34,0,0,0-.32.33,0.76,0.76,0,0,0,.25.57,0.77,0.77,0,0,0,.58.24,0.34,0.34,0,0,0,.32-0.33,0.77,0.77,0,0,0-.26-0.57h0Z" transform="translate(-1092.84 -836.22)"/>
      <path d="M1130.47,845.33a0.83,0.83,0,0,1-.55-0.25,0.79,0.79,0,0,1-.26-0.6,0.37,0.37,0,0,1,.35-0.36,0.84,0.84,0,0,1,.6.25,0.8,0.8,0,0,1,.27.6,0.37,0.37,0,0,1-.35.36h0Zm-0.42-1.15a0.32,0.32,0,0,0-.34.3,0.73,0.73,0,0,0,.25.55,0.77,0.77,0,0,0,.51.24v0l0,0a0.31,0.31,0,0,0,.3-0.3,0.74,0.74,0,0,0-.25-0.55,0.77,0.77,0,0,0-.51-0.24h0Z" transform="translate(-1092.84 -836.22)"/>
      <path class="j" d="M1129.57,843.5a0.77,0.77,0,0,0-.6-0.19,0.34,0.34,0,0,0-.29.36,0.77,0.77,0,0,0,.31.55,0.76,0.76,0,0,0,.6.19,0.34,0.34,0,0,0,.29-0.36,0.76,0.76,0,0,0-.31-0.55h0Z" transform="translate(-1092.84 -836.22)"/>
      <path d="M1129.49,844.44h0a0.86,0.86,0,0,1-.52-0.2,0.8,0.8,0,0,1-.32-0.57,0.37,0.37,0,0,1,.32-0.39,0.78,0.78,0,0,1,.62.19,0.8,0.8,0,0,1,.32.57,0.37,0.37,0,0,1-.32.39h-0.1Zm-0.42-1.11H1129a0.31,0.31,0,0,0-.27.33,0.82,0.82,0,0,0,.87.71,0.31,0.31,0,0,0,.27-0.33,0.73,0.73,0,0,0-.3-0.52,0.79,0.79,0,0,0-.48-0.19h0Z" transform="translate(-1092.84 -836.22)"/>
      <path class="j" d="M1128.5,842.78a0.78,0.78,0,0,0-.62-0.09,0.34,0.34,0,0,0-.23.4,0.85,0.85,0,0,0,1,.57,0.34,0.34,0,0,0,.23-0.4,0.77,0.77,0,0,0-.39-0.49h0Z" transform="translate(-1092.84 -836.22)"/>
      <path d="M1128.47,843.73a0.9,0.9,0,0,1-.44-0.12,0.8,0.8,0,0,1-.41-0.51,0.37,0.37,0,0,1,.25-0.44,0.81,0.81,0,0,1,.65.09,0.8,0.8,0,0,1,.41.51,0.37,0.37,0,0,1-.25.44,0.59,0.59,0,0,1-.21,0h0Zm-0.39-1a0.56,0.56,0,0,0-.19,0,0.31,0.31,0,0,0-.21.37,0.74,0.74,0,0,0,.38.47,0.85,0.85,0,0,0,.41.12h0a0.51,0.51,0,0,0,.19,0,0.31,0.31,0,0,0,.21-0.37,0.74,0.74,0,0,0-.38-0.47,0.85,0.85,0,0,0-.41-0.11h0Z" transform="translate(-1092.84 -836.22)"/>
      <path class="j" d="M1127.3,842.15a0.76,0.76,0,0,0-.63,0,0.34,0.34,0,0,0-.19.42,0.85,0.85,0,0,0,1.06.48,0.34,0.34,0,0,0,.19-0.42,0.76,0.76,0,0,0-.44-0.45h0Z" transform="translate(-1092.84 -836.22)"/>
      <path d="M1127.29,843.1a0.93,0.93,0,0,1-.38-0.09,0.79,0.79,0,0,1-.45-0.47,0.37,0.37,0,0,1,.2-0.46,0.81,0.81,0,0,1,.65,0,0.79,0.79,0,0,1,.45.47,0.37,0.37,0,0,1-.21.46,0.63,0.63,0,0,1-.27.06h0Zm-0.36-1a0.55,0.55,0,0,0-.25.05,0.31,0.31,0,0,0-.17.39,0.82,0.82,0,0,0,1,.46,0.31,0.31,0,0,0,.17-0.39,0.73,0.73,0,0,0-.42-0.43,0.87,0.87,0,0,0-.36-0.08h0Z" transform="translate(-1092.84 -836.22)"/>
      <path class="j" d="M1126.12,841.67a0.76,0.76,0,0,0-.63,0,0.34,0.34,0,0,0-.16.43,0.85,0.85,0,0,0,1.09.41,0.34,0.34,0,0,0,.16-0.43,0.77,0.77,0,0,0-.47-0.42h0Z" transform="translate(-1092.84 -836.22)"/>
      <path d="M1126.12,842.63a0.94,0.94,0,0,1-.33-0.06,0.81,0.81,0,0,1-.48-0.44,0.37,0.37,0,0,1,.17-0.47,0.88,0.88,0,0,1,1.14.42,0.37,0.37,0,0,1-.17.47,0.65,0.65,0,0,1-.32.08h0Zm-0.32-1a0.59,0.59,0,0,0-.29.07,0.32,0.32,0,0,0-.15.4,0.75,0.75,0,0,0,.45.4,0.76,0.76,0,0,0,.6,0,0.32,0.32,0,0,0,.15-0.4,0.75,0.75,0,0,0-.45-0.4,0.92,0.92,0,0,0-.31-0.06h0Z" transform="translate(-1092.84 -836.22)"/>
      <path class="j" d="M1124.92,841.3a0.77,0.77,0,0,0-.62.06,0.34,0.34,0,0,0-.13.44,0.85,0.85,0,0,0,1.12.32,0.34,0.34,0,0,0,.13-0.44,0.77,0.77,0,0,0-.5-0.38h0Z" transform="translate(-1092.84 -836.22)"/>
      <path d="M1124.93,842.25h0a1,1,0,0,1-.27,0,0.8,0.8,0,0,1-.51-0.4,0.37,0.37,0,0,1,.14-0.48,0.81,0.81,0,0,1,.65-0.06,0.81,0.81,0,0,1,.52.4,0.37,0.37,0,0,1-.14.48,0.69,0.69,0,0,1-.38.1h0Zm-0.27-1a0.63,0.63,0,0,0-.35.09,0.31,0.31,0,0,0-.12.41,0.82,0.82,0,0,0,1.08.31,0.32,0.32,0,0,0,.12-0.41,0.75,0.75,0,0,0-.48-0.37,0.93,0.93,0,0,0-.25,0h0Z" transform="translate(-1092.84 -836.22)"/>
      <path class="j" d="M1123.61,841.07a0.76,0.76,0,0,0-.61.16,0.34,0.34,0,0,0-.06.46,0.85,0.85,0,0,0,1.16.15,0.35,0.35,0,0,0,.06-0.46,0.77,0.77,0,0,0-.55-0.3h0Z" transform="translate(-1092.84 -836.22)"/>
      <path d="M1123.62,842h-0.13a0.8,0.8,0,0,1-.57-0.32,0.37,0.37,0,0,1,.06-0.5,0.88,0.88,0,0,1,1.2.15,0.37,0.37,0,0,1-.06.5,0.75,0.75,0,0,1-.5.17h0Zm-0.13-.93a0.68,0.68,0,0,0-.46.16,0.31,0.31,0,0,0-.05.42,0.83,0.83,0,0,0,1.11.14,0.31,0.31,0,0,0,.05-0.42,0.74,0.74,0,0,0-.53-0.29h-0.12Z" transform="translate(-1092.84 -836.22)"/>
      <path class="j" d="M1122.31,841a0.77,0.77,0,0,0-.59.21,0.34,0.34,0,0,0,0,.46,0.85,0.85,0,0,0,1.17,0,0.34,0.34,0,0,0,0-.46,0.76,0.76,0,0,0-.57-0.25h0Z" transform="translate(-1092.84 -836.22)"/>
      <path d="M1122.31,842h0a0.79,0.79,0,0,1-.59-0.27,0.37,0.37,0,0,1,0-.5,0.79,0.79,0,0,1,.58-0.22,0.83,0.83,0,0,1,.64.27,0.37,0.37,0,0,1,0,.5,0.79,0.79,0,0,1-.57.22h0Zm0-.92a0.75,0.75,0,0,0-.56.2,0.31,0.31,0,0,0,0,.42,0.73,0.73,0,0,0,.55.24l0,0v0a0.72,0.72,0,0,0,.53-0.2,0.31,0.31,0,0,0,0-.42,0.74,0.74,0,0,0-.55-0.24h0Z" transform="translate(-1092.84 -836.22)"/>
      <path class="j" d="M1121.12,841a0.77,0.77,0,0,0-.59.21,0.34,0.34,0,0,0,0,.46,0.85,0.85,0,0,0,1.17,0,0.34,0.34,0,0,0,0-.46,0.77,0.77,0,0,0-.57-0.25h0Z" transform="translate(-1092.84 -836.22)"/>
      <path d="M1121.12,842h0a0.8,0.8,0,0,1-.59-0.27,0.37,0.37,0,0,1,0-.5,0.78,0.78,0,0,1,.57-0.22,0.84,0.84,0,0,1,.64.27,0.37,0.37,0,0,1,0,.5,0.78,0.78,0,0,1-.57.22h0Zm0-.93a0.75,0.75,0,0,0-.56.2,0.31,0.31,0,0,0,0,.42,0.75,0.75,0,0,0,.55.24l0,0v0a0.72,0.72,0,0,0,.53-0.2,0.31,0.31,0,0,0,0-.42,0.75,0.75,0,0,0-.55-0.24h0Z" transform="translate(-1092.84 -836.22)"/>
      <path class="j" d="M1119.72,841.21a0.77,0.77,0,0,0-.52.35,0.34,0.34,0,0,0,.1.45,0.85,0.85,0,0,0,1.14-.26,0.34,0.34,0,0,0-.1-0.45,0.76,0.76,0,0,0-.62-0.1h0Z" transform="translate(-1092.84 -836.22)"/>
      <path d="M1119.71,842.16a0.7,0.7,0,0,1-.42-0.13,0.37,0.37,0,0,1-.11-0.49,0.88,0.88,0,0,1,1.18-.27,0.37,0.37,0,0,1,.11.49,0.79,0.79,0,0,1-.54.37l-0.22,0h0Zm0.22-1-0.21,0a0.74,0.74,0,0,0-.5.34,0.31,0.31,0,0,0,.1.41,0.82,0.82,0,0,0,1.09-.25,0.31,0.31,0,0,0-.09-0.41,0.64,0.64,0,0,0-.39-0.12h0Z" transform="translate(-1092.84 -836.22)"/>
      <path class="j" d="M1118.45,841.53a0.77,0.77,0,0,0-.49.39,0.34,0.34,0,0,0,.14.44,0.85,0.85,0,0,0,1.11-.35,0.34,0.34,0,0,0-.14-0.44,0.76,0.76,0,0,0-.62,0h0Z" transform="translate(-1092.84 -836.22)"/>
      <path d="M1118.45,842.48a0.68,0.68,0,0,1-.36-0.09,0.37,0.37,0,0,1-.15-0.48,0.8,0.8,0,0,1,.5-0.41,0.81,0.81,0,0,1,.65,0,0.37,0.37,0,0,1,.15.48,0.8,0.8,0,0,1-.51.41,0.94,0.94,0,0,1-.29,0h0Zm0.29-1a0.89,0.89,0,0,0-.27,0,0.74,0.74,0,0,0-.47.38,0.31,0.31,0,0,0,.13.41,0.76,0.76,0,0,0,.6,0,0.74,0.74,0,0,0,.47-0.38,0.31,0.31,0,0,0-.13-0.41,0.61,0.61,0,0,0-.33-0.08h0Z" transform="translate(-1092.84 -836.22)"/>
      <path class="j" d="M1117.29,842a0.77,0.77,0,0,0-.43.45,0.34,0.34,0,0,0,.19.42,0.85,0.85,0,0,0,1.06-.48,0.34,0.34,0,0,0-.19-0.42,0.77,0.77,0,0,0-.63,0h0Z" transform="translate(-1092.84 -836.22)"/>
      <path d="M1117.31,843h0a0.62,0.62,0,0,1-.27-0.06,0.37,0.37,0,0,1-.21-0.46,0.87,0.87,0,0,1,1.1-.5,0.37,0.37,0,0,1,.21.46,0.8,0.8,0,0,1-.45.47,0.93,0.93,0,0,1-.38.09h0Zm0.36-1a0.87,0.87,0,0,0-.36.08,0.74,0.74,0,0,0-.42.43,0.31,0.31,0,0,0,.17.38,0.75,0.75,0,0,0,.6,0,0.74,0.74,0,0,0,.42-0.43,0.31,0.31,0,0,0-.17-0.38,0.57,0.57,0,0,0-.25-0.05h0Z" transform="translate(-1092.84 -836.22)"/>
      <path class="j" d="M1116.14,842.61a0.77,0.77,0,0,0-.4.49,0.34,0.34,0,0,0,.23.4,0.86,0.86,0,0,0,1-.57,0.34,0.34,0,0,0-.23-0.4,0.78,0.78,0,0,0-.62.08h0Z" transform="translate(-1092.84 -836.22)"/>
      <path d="M1116.17,843.57a0.6,0.6,0,0,1-.21,0,0.37,0.37,0,0,1-.25-0.44,0.88,0.88,0,0,1,1.06-.59,0.37,0.37,0,0,1,.25.44,0.8,0.8,0,0,1-.41.51,0.91,0.91,0,0,1-.44.12h0Zm0.39-1a0.84,0.84,0,0,0-.41.12,0.74,0.74,0,0,0-.38.47,0.31,0.31,0,0,0,.21.37,0.82,0.82,0,0,0,1-.55,0.31,0.31,0,0,0-.21-0.37,0.57,0.57,0,0,0-.19,0h0Z" transform="translate(-1092.84 -836.22)"/>
      <path class="j" d="M1115,843.35a0.77,0.77,0,0,0-.34.53,0.34,0.34,0,0,0,.27.38,0.77,0.77,0,0,0,.61-0.15,0.78,0.78,0,0,0,.34-0.53,0.34,0.34,0,0,0-.27-0.38,0.77,0.77,0,0,0-.61.15h0Z" transform="translate(-1092.84 -836.22)"/>
      <path d="M1115.11,844.3h0l-0.14,0a0.37,0.37,0,0,1-.29-0.41,0.8,0.8,0,0,1,.35-0.55,0.81,0.81,0,0,1,.63-0.16,0.37,0.37,0,0,1,.29.41,0.8,0.8,0,0,1-.35.55,0.88,0.88,0,0,1-.49.17h0Zm0.42-1.09a0.81,0.81,0,0,0-.46.16,0.74,0.74,0,0,0-.33.5,0.31,0.31,0,0,0,.25.35,0.82,0.82,0,0,0,.91-0.65,0.31,0.31,0,0,0-.25-0.35l-0.12,0h0Z" transform="translate(-1092.84 -836.22)"/>
      <path class="j" d="M1114,844.12a0.77,0.77,0,0,0-.29.55,0.34,0.34,0,0,0,.3.35,0.85,0.85,0,0,0,.89-0.76,0.34,0.34,0,0,0-.3-0.35,0.77,0.77,0,0,0-.59.2h0Z" transform="translate(-1092.84 -836.22)"/>
      <path d="M1114.12,845.06H1114a0.37,0.37,0,0,1-.33-0.38,0.8,0.8,0,0,1,.3-0.58,0.79,0.79,0,0,1,.62-0.21,0.37,0.37,0,0,1,.32.38,0.8,0.8,0,0,1-.3.58,0.84,0.84,0,0,1-.53.21h0Zm0.42-1.12a0.79,0.79,0,0,0-.49.2,0.73,0.73,0,0,0-.28.53,0.31,0.31,0,0,0,.28.32,0.75,0.75,0,0,0,.57-0.2,0.73,0.73,0,0,0,.28-0.53,0.31,0.31,0,0,0-.27-0.32h-0.08Z" transform="translate(-1092.84 -836.22)"/>
      <path class="j" d="M1113.14,845.05a0.76,0.76,0,0,0-.25.57,0.34,0.34,0,0,0,.32.33,0.77,0.77,0,0,0,.58-0.24,0.76,0.76,0,0,0,.25-0.57,0.34,0.34,0,0,0-.32-0.33,0.77,0.77,0,0,0-.58.25h0Z" transform="translate(-1092.84 -836.22)"/>
      <path d="M1113.25,846h0a0.37,0.37,0,0,1-.35-0.36,0.79,0.79,0,0,1,.26-0.6,0.83,0.83,0,0,1,.55-0.26,0.39,0.39,0,0,1,.4.36,0.8,0.8,0,0,1-.26.6,0.83,0.83,0,0,1-.55.26h0Zm0.45-1.15a0.77,0.77,0,0,0-.55.24,0.73,0.73,0,0,0-.24.55,0.31,0.31,0,0,0,.3.3l0,0v0a0.77,0.77,0,0,0,.51-0.24,0.74,0.74,0,0,0,.24-0.55,0.31,0.31,0,0,0-.3-0.3h0Z" transform="translate(-1092.84 -836.22)"/>
      <path class="j" d="M1112.37,846.09a0.78,0.78,0,0,0-.21.59,0.34,0.34,0,0,0,.35.3,0.85,0.85,0,0,0,.76-0.88,0.34,0.34,0,0,0-.35-0.3,0.77,0.77,0,0,0-.56.29h0Z" transform="translate(-1092.84 -836.22)"/>
      <path d="M1112.52,847h0a0.37,0.37,0,0,1-.38-0.32,0.88,0.88,0,0,1,.79-0.92,0.37,0.37,0,0,1,.38.33,0.79,0.79,0,0,1-.21.62,0.8,0.8,0,0,1-.57.3h0Zm0.4-1.19a0.82,0.82,0,0,0-.73.85,0.31,0.31,0,0,0,.32.28v0a0.75,0.75,0,0,0,.53-0.28,0.73,0.73,0,0,0,.2-0.57,0.31,0.31,0,0,0-.32-0.28h0Z" transform="translate(-1092.84 -836.22)"/>
      <path class="j" d="M1111.67,847.15a0.77,0.77,0,0,0-.14.61,0.34,0.34,0,0,0,.38.26,0.85,0.85,0,0,0,.66-1,0.34,0.34,0,0,0-.38-0.26,0.76,0.76,0,0,0-.52.35h0Z" transform="translate(-1092.84 -836.22)"/>
      <path d="M1111.87,848.06a0.37,0.37,0,0,1-.37-0.29,0.88,0.88,0,0,1,.69-1h0a0.38,0.38,0,0,1,.4.29,0.8,0.8,0,0,1-.14.63,0.8,0.8,0,0,1-.54.36h0Zm0.37-1.23a0.82,0.82,0,0,0-.68.93,0.31,0.31,0,0,0,.31.24v0l0,0a0.82,0.82,0,0,0,.63-0.92,0.31,0.31,0,0,0-.31-0.24h0Z" transform="translate(-1092.84 -836.22)"/>
      <path class="j" d="M1111.08,848.36a0.77,0.77,0,0,0,0,.63,0.34,0.34,0,0,0,.42.19,0.85,0.85,0,0,0,.49-1.06,0.34,0.34,0,0,0-.42-0.19,0.77,0.77,0,0,0-.45.44h0Z" transform="translate(-1092.84 -836.22)"/>
      <path d="M1111.36,849.22A0.37,0.37,0,0,1,1111,849a0.81,0.81,0,0,1,0-.65,0.79,0.79,0,0,1,.47-0.45,0.37,0.37,0,0,1,.46.21,0.8,0.8,0,0,1,0,.65,0.8,0.8,0,0,1-.47.45l-0.12,0h0Zm0.28-1.28h-0.1a0.82,0.82,0,0,0-.47,1,0.32,0.32,0,0,0,.39.18,0.82,0.82,0,0,0,.47-1,0.31,0.31,0,0,0-.29-0.19h0Z" transform="translate(-1092.84 -836.22)"/>
      <path class="j" d="M1110.62,849.62a0.76,0.76,0,0,0,0,.63,0.34,0.34,0,0,0,.44.15,0.85,0.85,0,0,0,.39-1.1,0.34,0.34,0,0,0-.44-0.15,0.77,0.77,0,0,0-.41.47h0Z" transform="translate(-1092.84 -836.22)"/>
      <path d="M1110.94,850.45a0.37,0.37,0,0,1-.32-0.2,0.79,0.79,0,0,1,0-.65,0.8,0.8,0,0,1,.43-0.49,0.37,0.37,0,0,1,.47.17,0.88,0.88,0,0,1-.4,1.14l-0.15,0h0Zm0.23-1.31-0.13,0a0.82,0.82,0,0,0-.37,1.06,0.31,0.31,0,0,0,.4.14,0.82,0.82,0,0,0,.37-1.06,0.31,0.31,0,0,0-.27-0.17h0Z" transform="translate(-1092.84 -836.22)"/>
      <path class="j" d="M1110.22,852a0.54,0.54,0,0,0,.18.48,0.41,0.41,0,0,0,.46,0,0.59,0.59,0,0,0,.28-0.45,0.54,0.54,0,0,0-.18-0.48,0.4,0.4,0,0,0-.46,0,0.59,0.59,0,0,0-.28.45h0Z" transform="translate(-1092.84 -836.22)"/>
      <path d="M1110.64,852.6h0a0.43,0.43,0,0,1-.27-0.1,0.57,0.57,0,0,1-.19-0.51,0.62,0.62,0,0,1,.3-0.47,0.44,0.44,0,0,1,.49,0,0.57,0.57,0,0,1,.19.51,0.62,0.62,0,0,1-.3.47,0.46,0.46,0,0,1-.22.06h0Zm0.07-1.08a0.42,0.42,0,0,0-.2.05,0.56,0.56,0,0,0-.27.43,0.51,0.51,0,0,0,.16.46,0.37,0.37,0,0,0,.23.08h0a0.39,0.39,0,0,0,.19-0.05,0.56,0.56,0,0,0,.27-0.43,0.51,0.51,0,0,0-.16-0.46,0.36,0.36,0,0,0-.23-0.08h0Z" transform="translate(-1092.84 -836.22)"/>
      <path class="j" d="M1110.32,850.88a0.76,0.76,0,0,0,.09.62,0.34,0.34,0,0,0,.45.1,0.85,0.85,0,0,0,.26-1.14,0.34,0.34,0,0,0-.45-0.1,0.76,0.76,0,0,0-.35.52h0Z" transform="translate(-1092.84 -836.22)"/>
      <path d="M1110.7,851.68a0.37,0.37,0,0,1-.3-0.16,0.88,0.88,0,0,1,.27-1.18,0.38,0.38,0,0,1,.49.11,0.88,0.88,0,0,1-.27,1.18,0.41,0.41,0,0,1-.19,0h0Zm0.16-1.33a0.35,0.35,0,0,0-.16,0,0.82,0.82,0,0,0-.25,1.09,0.32,0.32,0,0,0,.41.09,0.82,0.82,0,0,0,.25-1.09,0.31,0.31,0,0,0-.25-0.14h0Z" transform="translate(-1092.84 -836.22)"/>
      <path class="k" d="M1133.22,850.31a0.4,0.4,0,0,1,.45-0.14c-0.06-.41-0.19-0.55-0.35-0.5s-0.23.26-.11,0.65h0Z" transform="translate(-1092.84 -836.22)"/>
      <path class="k" d="M1133.44,851.56a0.4,0.4,0,0,1,.46-0.11c0-.42-0.15-0.57-0.31-0.53s-0.25.24-.15,0.64h0Z" transform="translate(-1092.84 -836.22)"/>
      <path class="k" d="M1132.91,849.18a0.4,0.4,0,0,1,.4-0.26c-0.16-.38-0.32-0.49-0.47-0.4s-0.16.31,0.06,0.65h0Z" transform="translate(-1092.84 -836.22)"/>
      <path class="k" d="M1132.36,848a0.4,0.4,0,0,1,.4-0.26c-0.16-.38-0.33-0.49-0.47-0.4s-0.16.31,0.06,0.65h0Z" transform="translate(-1092.84 -836.22)"/>
      <path class="k" d="M1131,846a0.4,0.4,0,0,1,.36-0.31c-0.22-.36-0.4-0.43-0.53-0.32s-0.1.33,0.17,0.63h0Z" transform="translate(-1092.84 -836.22)"/>
      <path class="k" d="M1130.16,845.05a0.39,0.39,0,0,1,.34-0.33c-0.24-.35-0.42-0.41-0.54-0.3s-0.09.34,0.19,0.63h0Z" transform="translate(-1092.84 -836.22)"/>
      <path class="k" d="M1128.33,843.51a0.4,0.4,0,0,1,.23-0.42c-0.33-.25-0.52-0.26-0.6-0.12s0,0.35.38,0.54h0Z" transform="translate(-1092.84 -836.22)"/>
      <path class="k" d="M1129.28,844.22a0.4,0.4,0,0,1,.3-0.37c-0.28-.31-0.47-0.35-0.57-0.22s0,0.35.28,0.59h0Z" transform="translate(-1092.84 -836.22)"/>
      <path class="k" d="M1127.24,842.91a0.4,0.4,0,0,1,.18-0.44c-0.36-.22-0.55-0.21-0.61-0.05s0.05,0.35.43,0.5h0Z" transform="translate(-1092.84 -836.22)"/>
      <path class="k" d="M1126.13,842.42a0.4,0.4,0,0,1,.12-0.46c-0.38-.17-0.57-0.13-0.61,0s0.1,0.34.5,0.43h0Z" transform="translate(-1092.84 -836.22)"/>
      <path class="k" d="M1124.93,842.05a0.4,0.4,0,0,1,.08-0.47c-0.4-.13-0.58-0.08-0.61.08s0.13,0.33.53,0.39h0Z" transform="translate(-1092.84 -836.22)"/>
      <path class="k" d="M1123.75,841.82a0.4,0.4,0,0,1,0-.48c-0.41-.1-0.59,0-0.6.13s0.15,0.31.56,0.35h0Z" transform="translate(-1092.84 -836.22)"/>
      <path class="k" d="M1122.51,841.73a0.4,0.4,0,0,1,0-.48c-0.41-.06-0.58,0-0.58.19s0.18,0.3.59,0.29h0Z" transform="translate(-1092.84 -836.22)"/>
      <path class="k" d="M1120.07,841.91a0.4,0.4,0,0,1-.12-0.46c-0.41,0-.56.16-0.52,0.33s0.25,0.24.64,0.14h0Z" transform="translate(-1092.84 -836.22)"/>
      <path class="k" d="M1121.27,841.75a0.4,0.4,0,0,1-.06-0.47c-0.42,0-.58.09-0.56,0.25s0.21,0.28.62,0.22h0Z" transform="translate(-1092.84 -836.22)"/>
      <path class="k" d="M1118.89,842.17a0.4,0.4,0,0,1-.19-0.44c-0.41.1-.53,0.24-0.47,0.4s0.28,0.21.65,0h0Z" transform="translate(-1092.84 -836.22)"/>
      <path class="k" d="M1116.64,843.2a0.4,0.4,0,0,1-.27-0.4c-0.38.17-.48,0.34-0.39,0.48s0.32,0.15.65-.08h0Z" transform="translate(-1092.84 -836.22)"/>
      <path class="k" d="M1117.73,842.65a0.4,0.4,0,0,1-.22-0.42c-0.4.13-.51,0.28-0.44,0.43s0.3,0.19.66,0h0Z" transform="translate(-1092.84 -836.22)"/>
      <path class="k" d="M1114.62,844.61a0.4,0.4,0,0,1-.34-0.33c-0.34.25-.4,0.43-0.28,0.55s0.34,0.08.62-.22h0Z" transform="translate(-1092.84 -836.22)"/>
      <path class="k" d="M1115.58,843.82a0.4,0.4,0,0,1-.32-0.36c-0.35.22-.43,0.4-0.32,0.53s0.33,0.1.63-.17h0Z" transform="translate(-1092.84 -836.22)"/>
      <path class="k" d="M1113.76,845.45a0.39,0.39,0,0,1-.37-0.3c-0.31.28-.36,0.46-0.23,0.57s0.35,0,.6-0.27h0Z" transform="translate(-1092.84 -836.22)"/>
      <path class="k" d="M1113,846.45a0.39,0.39,0,0,1-.4-0.26c-0.28.31-.31,0.5-0.17,0.59s0.35,0,.57-0.33h0Z" transform="translate(-1092.84 -836.22)"/>
      <path class="k" d="M1112.35,847.47a0.4,0.4,0,0,1-.43-0.2c-0.23.35-.23,0.54-0.08,0.61s0.35,0,.51-0.41h0Z" transform="translate(-1092.84 -836.22)"/>
      <path class="k" d="M1111.79,848.56a0.4,0.4,0,0,1-.46-0.14c-0.19.37-.16,0.56,0,0.62s0.34-.08.46-0.47h0Z" transform="translate(-1092.84 -836.22)"/>
      <path class="k" d="M1111.34,849.68a0.4,0.4,0,0,1-.47-0.07c-0.12.4-.07,0.58,0.1,0.61s0.32-.13.38-0.54h0Z" transform="translate(-1092.84 -836.22)"/>
      <path class="k" d="M1111,850.92a0.4,0.4,0,0,1-.48,0c-0.1.41,0,.59,0.14,0.6s0.31-.16.34-0.56h0Z" transform="translate(-1092.84 -836.22)"/>
      <path class="k" d="M1110.91,852a0.49,0.49,0,0,1-.47,0c-0.05.33,0,.46,0.2,0.45s0.29-.17.28-0.48h0Z" transform="translate(-1092.84 -836.22)"/>
      <path class="k" d="M1131.86,847a0.4,0.4,0,0,1,.36-0.31c-0.22-.36-0.39-0.43-0.52-0.32s-0.11.33,0.16,0.64h0Z" transform="translate(-1092.84 -836.22)"/>
      <path class="k" d="M1133.58,852.83a0.4,0.4,0,0,1,.46-0.11c0-.42-0.15-0.56-0.31-0.53s-0.25.24-.15,0.64h0Z" transform="translate(-1092.84 -836.22)"/>
      <path class="e" d="M1131.94,846a1.35,1.35,0,0,0-.39,1,8.13,8.13,0,0,1,.38,1.86,7.24,7.24,0,0,1-.17,1,2.32,2.32,0,0,0,.55-1.22c0-.6-0.38-1.39-0.38-1.83s0-.83,0-0.82h0Z" transform="translate(-1092.84 -836.22)"/>
      <path d="M1131.75,850h0a0.06,0.06,0,0,1,0-.07,7,7,0,0,0,.17-1,3,3,0,0,0-.2-1.15,4.89,4.89,0,0,1-.18-0.7,1.38,1.38,0,0,1,.36-1,0.12,0.12,0,0,1,.09-0.07c0.06,0,.06,0,0.06.3s0,0.36,0,.58a3.25,3.25,0,0,0,.16.76,4,4,0,0,1,.21,1.07,2.33,2.33,0,0,1-.57,1.26l0,0h0Zm0.13-3.8a1.27,1.27,0,0,0-.28.89,4.66,4.66,0,0,0,.17.68,3.14,3.14,0,0,1,.2,1.19c0,0.3-.08.55-0.12,0.73a1.93,1.93,0,0,0,.38-1,4,4,0,0,0-.21-1,3.25,3.25,0,0,1-.17-0.79c0-.22,0-0.43,0-0.59s0-.07,0-0.1h0Z" transform="translate(-1092.84 -836.22)"/>
      <path class="e" d="M1132.81,847.95a1,1,0,0,0-.33.89,5.94,5.94,0,0,0,.68,1.76,5.47,5.47,0,0,1,.45,1.21,1.29,1.29,0,0,0,0-.79,6.79,6.79,0,0,0-.75-1.76,1.27,1.27,0,0,1-.14-0.66c0-.41.06-0.65,0-0.65h0Z" transform="translate(-1092.84 -836.22)"/>
      <path d="M1133.61,851.93l0,0a0.29,0.29,0,0,1,0-.11,5.06,5.06,0,0,0-.45-1.18,5.87,5.87,0,0,1-.68-1.78,1.08,1.08,0,0,1,.35-0.94,0.06,0.06,0,0,1,.07,0,0.3,0.3,0,0,1,0,.12c0,0.1,0,.29,0,0.58a1.24,1.24,0,0,0,.13.63,6.68,6.68,0,0,1,.76,1.78,2.55,2.55,0,0,1-.05.9l0,0h0Zm-0.87-3.82a1.06,1.06,0,0,0-.2.73,5.91,5.91,0,0,0,.67,1.73,9.4,9.4,0,0,1,.39.93,3.6,3.6,0,0,0,0-.48,6.79,6.79,0,0,0-.75-1.73,1.32,1.32,0,0,1-.14-0.69c0-.21,0-0.38,0-0.49h0Z" transform="translate(-1092.84 -836.22)"/>
      <path class="i" d="M1121.82,840.27a0.34,0.34,0,1,0-.32.23,0.29,0.29,0,0,0,.32-0.23h0Z" transform="translate(-1092.84 -836.22)"/>
      <path class="i" d="M1122,840.81a0.36,0.36,0,1,0-.33.22,0.29,0.29,0,0,0,.33-0.22h0Z" transform="translate(-1092.84 -836.22)"/>
      <path class="i" d="M1122.37,840.17s-0.38.29-.22,0.4a0.84,0.84,0,0,0,.59-0.25Z" transform="translate(-1092.84 -836.22)"/>
      <path class="i" d="M1133.51,846.68a0.24,0.24,0,0,0-.1-0.2,0.18,0.18,0,0,0-.2,0,0.24,0.24,0,0,0,0,.39,0.18,0.18,0,0,0,.2,0,0.23,0.23,0,0,0,.1-0.2h0Z" transform="translate(-1092.84 -836.22)"/>
      <path class="i" d="M1133.37,846.14a0.21,0.21,0,1,0-.21.25,0.23,0.23,0,0,0,.21-0.25h0Z" transform="translate(-1092.84 -836.22)"/>
      <path class="i" d="M1133.47,847.24a0.09,0.09,0,1,0-.08.13,0.11,0.11,0,0,0,.08-0.12h0Z" transform="translate(-1092.84 -836.22)"/>
      <path class="i" d="M1133.8,846.26a0.13,0.13,0,0,0-.08-0.14,0.17,0.17,0,0,0,0,.29,0.13,0.13,0,0,0,.08-0.14h0Z" transform="translate(-1092.84 -836.22)"/>
      <path class="i" d="M1132.89,846.36a0.09,0.09,0,1,0-.08.12,0.11,0.11,0,0,0,.08-0.12h0Z" transform="translate(-1092.84 -836.22)"/>
      <path class="i" d="M1133,847.13a0.17,0.17,0,1,0-.17.19,0.18,0.18,0,0,0,.17-0.19h0Z" transform="translate(-1092.84 -836.22)"/>
      <path class="i" d="M1132.58,846.79a0.15,0.15,0,1,0-.15.16,0.16,0.16,0,0,0,.15-0.16h0Z" transform="translate(-1092.84 -836.22)"/>
      <path class="i" d="M1132.51,846.33a0.14,0.14,0,0,0-.06-0.12,0.12,0.12,0,0,0-.13,0,0.14,0.14,0,0,0,0,.23,0.12,0.12,0,0,0,.13,0,0.14,0.14,0,0,0,.06-0.12h0Z" transform="translate(-1092.84 -836.22)"/>
      <path class="i" d="M1134.57,848.67a0.54,0.54,0,0,0-.67-0.23,0.46,0.46,0,0,0,0,.66,0.54,0.54,0,0,0,.67.23,0.46,0.46,0,0,0,0-.66h0Z" transform="translate(-1092.84 -836.22)"/>
      <path class="i" d="M1135.1,853.22a0.42,0.42,0,1,0-.46.5,0.49,0.49,0,0,0,.46-0.5h0Z" transform="translate(-1092.84 -836.22)"/>
      <path class="i" d="M1135.21,855.87a0.42,0.42,0,1,0-.5.46,0.49,0.49,0,0,0,.5-0.46h0Z" transform="translate(-1092.84 -836.22)"/>
      <path class="i" d="M1135.72,853.39a0.18,0.18,0,1,0-.18.22,0.2,0.2,0,0,0,.18-0.22h0Z" transform="translate(-1092.84 -836.22)"/>
      <path class="i" d="M1135.28,853.89l-0.37.42s-0.35,0-.33.12a6,6,0,0,1,.48.59c0,0.14.31,0,.31,0l0.25-.76a0.74,0.74,0,0,0-.15-0.52,0.24,0.24,0,0,0-.18.18h0Z" transform="translate(-1092.84 -836.22)"/>
      <path class="i" d="M1110.89,853.72a0.18,0.18,0,1,0-.18.18,0.18,0.18,0,0,0,.18-0.18h0Z" transform="translate(-1092.84 -836.22)"/>
      <path class="i" d="M1111.06,853.18a0.18,0.18,0,1,0-.35,0,0.18,0.18,0,1,0,.35,0h0Z" transform="translate(-1092.84 -836.22)"/>
      <path class="i" d="M1109.61,850.62a0.22,0.22,0,1,0-.07.35,0.26,0.26,0,0,0,.07-0.35h0Z" transform="translate(-1092.84 -836.22)"/>
      <path class="i" d="M1110,852.22a0.37,0.37,0,0,0-.42-0.24,0.33,0.33,0,0,0-.09.46,0.37,0.37,0,0,0,.42.24,0.33,0.33,0,0,0,.09-0.46h0Z" transform="translate(-1092.84 -836.22)"/>
      <path class="i" d="M1110.51,853.39a0.43,0.43,0,0,0-.22-0.49,0.35,0.35,0,0,0-.33.38,0.43,0.43,0,0,0,.22.49,0.35,0.35,0,0,0,.33-0.38h0Z" transform="translate(-1092.84 -836.22)"/>
      <path class="i" d="M1109.76,853.56a0.43,0.43,0,0,0-.08-0.54,0.35,0.35,0,0,0-.42.27,0.43,0.43,0,0,0,.08.54,0.35,0.35,0,0,0,.42-0.27h0Z" transform="translate(-1092.84 -836.22)"/>
      <path class="i" d="M1109.42,853.05a0.2,0.2,0,1,0-.2.21,0.2,0.2,0,0,0,.2-0.21h0Z" transform="translate(-1092.84 -836.22)"/>
      <path class="i" d="M1109.26,852.55a0.18,0.18,0,1,0-.18.19,0.18,0.18,0,0,0,.18-0.19h0Z" transform="translate(-1092.84 -836.22)"/>
      <path class="i" d="M1109.43,851.56a0.2,0.2,0,1,0-.34,0,0.2,0.2,0,1,0,.34,0h0Z" transform="translate(-1092.84 -836.22)"/>
      <path class="i" d="M1110,851.49a0.2,0.2,0,1,0-.34,0,0.2,0.2,0,1,0,.34,0h0Z" transform="translate(-1092.84 -836.22)"/>
      <path class="i" d="M1113.72,844a0.44,0.44,0,0,0-.16-0.55,0.38,0.38,0,0,0-.41.34,0.44,0.44,0,0,0,.16.55,0.38,0.38,0,0,0,.41-0.34h0Z" transform="translate(-1092.84 -836.22)"/>
      <path class="i" d="M1113,845.07a0.46,0.46,0,0,0,.2-0.55,0.42,0.42,0,0,0-.56.1,0.46,0.46,0,0,0-.2.55,0.42,0.42,0,0,0,.56-0.1h0Z" transform="translate(-1092.84 -836.22)"/>
      <path class="i" d="M1112.59,844.47a0.37,0.37,0,0,0,.2-0.47,0.46,0.46,0,0,0-.55.08,0.37,0.37,0,0,0-.2.47,0.46,0.46,0,0,0,.55-0.08h0Z" transform="translate(-1092.84 -836.22)"/>
      <path class="i" d="M1114.2,843.41a0.26,0.26,0,0,0,.13-0.33,0.3,0.3,0,0,0-.37.06,0.26,0.26,0,0,0-.13.33,0.31,0.31,0,0,0,.37-0.06h0Z" transform="translate(-1092.84 -836.22)"/>
      <path class="i" d="M1113.36,844.43a0.26,0.26,0,0,0,0-.36,0.3,0.3,0,0,0-.33.18,0.26,0.26,0,0,0,0,.36,0.3,0.3,0,0,0,.33-0.18h0Z" transform="translate(-1092.84 -836.22)"/>
      <path class="i" d="M1114.57,843.8a0.29,0.29,0,0,0,.13-0.37,0.34,0.34,0,0,0-.41.08,0.29,0.29,0,0,0-.13.37,0.34,0.34,0,0,0,.41-0.08h0Z" transform="translate(-1092.84 -836.22)"/>
      <path class="i" d="M1112.38,845.28a0.21,0.21,0,0,0,.24-0.16,0.25,0.25,0,0,0-.27-0.13,0.21,0.21,0,0,0-.24.16,0.25,0.25,0,0,0,.27.13h0Z" transform="translate(-1092.84 -836.22)"/>
      <path class="i" d="M1115,843a0.26,0.26,0,0,0,0-.36,0.3,0.3,0,0,0-.33.18,0.26,0.26,0,0,0,0,.36A0.31,0.31,0,0,0,1115,843h0Z" transform="translate(-1092.84 -836.22)"/>
      <path class="f" d="M1131,847.5a2,2,0,0,0,.27-1.34c-0.17-.65-0.89-0.19-0.87,0a3.79,3.79,0,0,0,.49.68,0.89,0.89,0,0,0,.11.62h0Z" transform="translate(-1092.84 -836.22)"/>
      <path class="g" d="M1131,847.53h0a0.45,0.45,0,0,1-.13-0.46,1.08,1.08,0,0,0,0-.18,0.82,0.82,0,0,0-.19-0.23,0.93,0.93,0,0,1-.31-0.45,0.29,0.29,0,0,1,.09-0.2,0.67,0.67,0,0,1,.45-0.21,0.4,0.4,0,0,1,.39.36,2,2,0,0,1-.27,1.36v0h0Zm-0.11-1.68a0.6,0.6,0,0,0-.41.19,0.24,0.24,0,0,0-.08.15,0.94,0.94,0,0,0,.29.41,0.75,0.75,0,0,1,.2.26,1.14,1.14,0,0,1,0,.19,0.59,0.59,0,0,0,.07.39,1.9,1.9,0,0,0,.25-1.29,0.35,0.35,0,0,0-.33-0.31h0Z" transform="translate(-1092.84 -836.22)"/>
      <path class="e" d="M1122.63,841.76s1.57,0.06,1.58,1.08a6.38,6.38,0,0,1-.06.8,1.05,1.05,0,0,0,.48-0.93c0-1-1.4-1.74-2-.94h0Z" transform="translate(-1092.84 -836.22)"/>
      <path d="M1124.16,843.71h0a0.07,0.07,0,0,1,0-.07,6.09,6.09,0,0,0,.05-0.7v-0.09c0-.93-1.5-1-1.51-1a0.07,0.07,0,0,1-.06,0,0.08,0.08,0,0,1,0-.07,1.17,1.17,0,0,1,1.73.06,1.3,1.3,0,0,1,.4.92,1.11,1.11,0,0,1-.52,1h0Zm-1.38-2c0.4,0,1.5.24,1.5,1.14v0.09c0,0.12,0,.28,0,0.56a1,1,0,0,0,.32-0.77,1.17,1.17,0,0,0-.36-0.83,1.28,1.28,0,0,0-.87-0.39,0.78,0.78,0,0,0-.55.21h0Z" transform="translate(-1092.84 -836.22)"/>
      <path class="e" d="M1121.64,841.71s1.27-.27,1.28.75a1.15,1.15,0,0,1-.4,1.18,1.27,1.27,0,0,0,1-1.24,1,1,0,0,0-1.85-.69h0Z" transform="translate(-1092.84 -836.22)"/>
      <path d="M1122.51,843.72a0.07,0.07,0,0,1-.07,0,0.07,0.07,0,0,1,0-.09,1.13,1.13,0,0,0,.36-1.11,0.73,0.73,0,0,0-.86-0.71,1.55,1.55,0,0,0-.33,0,0.08,0.08,0,0,1-.08,0,0.07,0.07,0,0,1,0-.08,1.11,1.11,0,0,1,1.65-.1,1.16,1.16,0,0,1,.33.83,1.35,1.35,0,0,1-1,1.31h0Zm-0.53-2.11a0.85,0.85,0,0,1,1,.86,1.9,1.9,0,0,1-.2,1,1.14,1.14,0,0,0,.63-1.06,1,1,0,0,0-.29-0.73,1,1,0,0,0-1.31-.05H1122Z" transform="translate(-1092.84 -836.22)"/>
      <path class="l" d="M1125.94,863.64a12.13,12.13,0,0,0,7.71-8.94,12.53,12.53,0,0,1-7.52,9.83Z" transform="translate(-1092.84 -836.22)"/>
      <path d="M1126.13,864.56h0v0l-0.19-.88a12.36,12.36,0,0,0,7.71-9,12.53,12.53,0,0,1-7.48,9.86h0Zm7.49-9.86a12.13,12.13,0,0,1-7.67,9l0.2,0.82a12.59,12.59,0,0,0,7.47-9.79h0Z" transform="translate(-1092.84 -836.22)"/>
      <path class="m" d="M1126.54,864.1c0.18,0,.64-0.5.9-0.56s0.29-.32,0-0.33a0.84,0.84,0,0,0-.56.34,1.17,1.17,0,0,1-.53.25c-0.27,0-.1.37,0.2,0.3h0Z" transform="translate(-1092.84 -836.22)"/>
      <path class="m" d="M1130,861.55a1.33,1.33,0,0,0-.53.44,1.49,1.49,0,0,0,.64-0.35s0.23-.28-0.11-0.1h0Z" transform="translate(-1092.84 -836.22)"/>
      <path class="m" d="M1129.46,862h0l-0.06,0a1.21,1.21,0,0,1,.54-0.49,0.45,0.45,0,0,1,.18-0.07,0.17,0.17,0,0,1,0,.21,2,2,0,0,1-.63.37h0Zm0.66-.53-0.15.07a1.53,1.53,0,0,0-.52.39h0a2.06,2.06,0,0,0,.59-0.35,0.34,0.34,0,0,0,.07-0.12h0Z" transform="translate(-1092.84 -836.22)"/>
      <path class="m" d="M1127.81,863.17s-0.18-.07.29-0.25a1.45,1.45,0,0,0,.6-0.48c0.16-.09.48-0.32,0.55-0.18a0.71,0.71,0,0,1-.44.43c-0.1,0-.57.46-0.7,0.5a0.34,0.34,0,0,1-.29,0h0Z" transform="translate(-1092.84 -836.22)"/>
      <path class="m" d="M1130.46,861.14h0l0-.09a0.9,0.9,0,0,1,.35-0.43,0,0,0,0,1,.07,0,0,0,0,0,1,0,.07,2.12,2.12,0,0,1-.44.46h0Z" transform="translate(-1092.84 -836.22)"/>
      <path class="m" d="M1131.09,860.42h0a0,0,0,0,1,0-.06l0.38-.47a0,0,0,0,1,.06,0,0,0,0,0,1,0,.06l-0.38.47,0,0h0Z" transform="translate(-1092.84 -836.22)"/>
      <path class="m" d="M1131.65,859.68h0a0,0,0,0,1,0-.06l0.43-.69a0,0,0,0,1,.06,0,0,0,0,0,1,0,.06l-0.43.69,0,0h0Z" transform="translate(-1092.84 -836.22)"/>
      <path class="m" d="M1132.24,858.71h0a0,0,0,0,1,0-.05l0.36-.71a0,0,0,0,1,0,0,0,0,0,0,1,0,0l-0.36.71,0,0h0Z" transform="translate(-1092.84 -836.22)"/>
      <path class="m" d="M1132.71,857.73h0a0,0,0,0,1,0-.05l0.12-.25a0,0,0,0,1,0,0,0,0,0,0,1,0,.05l-0.12.25,0,0h0Z" transform="translate(-1092.84 -836.22)"/>
      <path class="a" d="M1133.09,856.75l-0.1.3Z" transform="translate(-1092.84 -836.22)"/>
      <path class="l" d="M1118.17,863.49s-5.87-1.7-7.64-9.1a12.65,12.65,0,0,0,7.45,10Z" transform="translate(-1092.84 -836.22)"/>
      <path d="M1118,864.42h0a12.78,12.78,0,0,1-7.47-10,12.41,12.41,0,0,0,7.68,9.07l-0.17.94v0h0Zm-7.48-10a12.85,12.85,0,0,0,7.46,10l0.18-.87h0c-0.09,0-5.89-1.79-7.64-9.09h0Z" transform="translate(-1092.84 -836.22)"/>
      <path class="m" d="M1117.57,863.95c-0.18,0-.63-0.51-0.89-0.57s-0.29-.32,0-0.33a0.83,0.83,0,0,1,.55.34,1.12,1.12,0,0,0,.52.25c0.27,0,.09.38-0.2,0.3h0Z" transform="translate(-1092.84 -836.22)"/>
      <path class="m" d="M1114.19,861.36a1.33,1.33,0,0,1,.53.45,1.48,1.48,0,0,1-.64-0.35s-0.23-.28.12-0.1h0Z" transform="translate(-1092.84 -836.22)"/>
      <path class="m" d="M1114.68,861.85a2,2,0,0,1-.63-0.37,0.28,0.28,0,0,1-.08-0.18,0.25,0.25,0,0,1,.23,0,1.64,1.64,0,0,1,.55.45l-0.07.07h0Zm-0.66-.53a0.48,0.48,0,0,0,.07.11,2.11,2.11,0,0,0,.58.36v0a1.53,1.53,0,0,0-.52-0.4,0.39,0.39,0,0,0-.15-0.06h0Z" transform="translate(-1092.84 -836.22)"/>
      <path class="m" d="M1116.32,863s0.18-.07-0.29-0.25a1.47,1.47,0,0,1-.59-0.49c-0.15-.09-0.48-0.32-0.54-0.19a0.71,0.71,0,0,0,.44.44c0.1,0,.56.47,0.7,0.51a0.33,0.33,0,0,0,.29,0h0Z" transform="translate(-1092.84 -836.22)"/>
      <path class="m" d="M1113.68,860.94a2,2,0,0,1-.44-0.47,0,0,0,0,1,0-.07,0,0,0,0,1,.07,0l0.4,0.45,0,0,0,0h0Z" transform="translate(-1092.84 -836.22)"/>
      <path class="m" d="M1113.06,860.21l0,0-0.38-.48a0,0,0,0,1,0-.06,0,0,0,0,1,.06,0l0.38,0.48a0,0,0,0,1,0,.06h0Z" transform="translate(-1092.84 -836.22)"/>
      <path class="m" d="M1112.51,859.45l0,0-0.43-.71a0,0,0,0,1,0-.06,0,0,0,0,1,.06,0l0.43,0.71a0,0,0,0,1,0,.05h0Z" transform="translate(-1092.84 -836.22)"/>
      <path class="m" d="M1111.93,858.46l0,0-0.35-.73a0,0,0,0,1,0,0,0,0,0,0,1,0,0l0.35,0.73a0,0,0,0,1,0,0h0Z" transform="translate(-1092.84 -836.22)"/>
      <path class="m" d="M1111.46,857.46l0,0-0.12-.26a0,0,0,0,1,0,0,0,0,0,0,1,0,0l0.12,0.26a0,0,0,0,1,0,.05h0Z" transform="translate(-1092.84 -836.22)"/>
      <path class="a" d="M1111.09,856.47l0.1,0.3Z" transform="translate(-1092.84 -836.22)"/>
      <path class="e" d="M1133.93,853.36a3.74,3.74,0,0,1,.3,1.69c-0.22.9-1,3-.87,3.43a1.74,1.74,0,0,1-.21-1.07c0-.45.65-2.11,0.71-2.67a13,13,0,0,1,.08-1.38h0Z" transform="translate(-1092.84 -836.22)"/>
      <path d="M1133.36,858.55a0.07,0.07,0,0,1-.06,0,1.41,1.41,0,0,1-.22-0.89v-0.21a6.41,6.41,0,0,1,.37-1.43,8.64,8.64,0,0,0,.34-1.25,13.37,13.37,0,0,1,.08-1.38,0.07,0.07,0,0,1,.14,0,1.61,1.61,0,0,0,.14.48,1.94,1.94,0,0,1,.16,1.23c-0.07.29-.2,0.71-0.34,1.16a8.6,8.6,0,0,0-.53,2.22,0.07,0.07,0,0,1,0,.09h0Zm0.6-4.78c0,0.28,0,.66,0,1a8.5,8.5,0,0,1-.35,1.28,6.6,6.6,0,0,0-.36,1.38v0.22a2,2,0,0,0,.06.56,15.23,15.23,0,0,1,.54-2c0.14-.45.27-0.87,0.34-1.15a1.8,1.8,0,0,0-.15-1.15l0-.12h0Z" transform="translate(-1092.84 -836.22)"/>
      <path class="e" d="M1133.93,853.37a3.19,3.19,0,0,1,.69,1.65,10.94,10.94,0,0,0-.31,2,1.48,1.48,0,0,1-.31-1,10.61,10.61,0,0,0,.28-1.43,9.67,9.67,0,0,0-.35-1.21h0Z" transform="translate(-1092.84 -836.22)"/>
      <path d="M1134.31,857.05a0.07,0.07,0,0,1-.06,0,1.55,1.55,0,0,1-.32-1,1.85,1.85,0,0,1,.14-0.66,1.61,1.61,0,0,0,.14-0.76,7.49,7.49,0,0,0-.31-1.08c-0.05-.15-0.05-0.15,0-0.18a0.08,0.08,0,0,1,.06,0,0.07,0.07,0,0,1,.06,0,3.2,3.2,0,0,1,.7,1.7,5.4,5.4,0,0,1-.19,1,2,2,0,0,0-.12.93,0.07,0.07,0,0,1,0,.09h0Zm-0.15-3.2a5.56,5.56,0,0,1,.19.72,1.71,1.71,0,0,1-.14.83,1.73,1.73,0,0,0-.14.61,1.56,1.56,0,0,0,.14.69,4.58,4.58,0,0,1,.15-0.7,5.23,5.23,0,0,0,.19-1,2.31,2.31,0,0,0-.39-1.17h0Z" transform="translate(-1092.84 -836.22)"/>
      <path class="e" d="M1110.09,853.58a3.8,3.8,0,0,0-.2,1.66c0.22,0.9,1,2,.89,3.36a1.94,1.94,0,0,0,.32-1.12c0-.45-0.88-2-0.94-2.51a13.33,13.33,0,0,0-.08-1.38h0Z" transform="translate(-1092.84 -836.22)"/>
      <path d="M1110.79,858.66h0a0.07,0.07,0,0,1,0-.07,5,5,0,0,0-.54-2.38,7.09,7.09,0,0,1-.35-1,2.17,2.17,0,0,1,.09-1.23,2,2,0,0,0,.1-0.45,0.07,0.07,0,0,1,.07-0.07,0.07,0.07,0,0,1,.07.06,13.4,13.4,0,0,1,.08,1.39,5.73,5.73,0,0,0,.47,1.23,4.23,4.23,0,0,1,.47,1.29,2,2,0,0,1-.33,1.16,0.07,0.07,0,0,1-.06,0h0Zm-0.73-4.63v0a2.05,2.05,0,0,0-.09,1.16,7,7,0,0,0,.34.93,5.66,5.66,0,0,1,.57,2.15,2.25,2.25,0,0,0,.16-0.84,4.4,4.4,0,0,0-.45-1.22,5.52,5.52,0,0,1-.49-1.28c0-.3,0-0.65,0-0.93h0Z" transform="translate(-1092.84 -836.22)"/>
      <path class="e" d="M1110.09,853.59a3.06,3.06,0,0,0-.67,1.62c0,0.49.9,2.51,0.77,2.89a0.84,0.84,0,0,0,.29-0.77,15.47,15.47,0,0,1-.65-2.52c0.08-.49.27-1.22,0.26-1.22h0Z" transform="translate(-1092.84 -836.22)"/>
      <path d="M1110.19,858.17h0a0.07,0.07,0,0,1,0-.09,5.29,5.29,0,0,0-.41-1.6,6.37,6.37,0,0,1-.36-1.27,3.11,3.11,0,0,1,.68-1.67,0.07,0.07,0,0,1,.06,0h0a0.07,0.07,0,0,1,.06,0s0,0,0,.27-0.16.69-.21,1a2.72,2.72,0,0,0,.24,1.08,12.16,12.16,0,0,1,.41,1.42,0.77,0.77,0,0,1-.19.67l-0.12.15a0.07,0.07,0,0,1-.06,0h0Zm-0.25-4.24a2.44,2.44,0,0,0-.45,1.27,6.68,6.68,0,0,0,.35,1.22,8.89,8.89,0,0,1,.42,1.46,0.63,0.63,0,0,0,.14-0.55,11.84,11.84,0,0,0-.4-1.39,2.75,2.75,0,0,1-.25-1.14c0-.27.12-0.61,0.18-0.87h0Z" transform="translate(-1092.84 -836.22)"/>
      <polygon class="d" points="29.35 9.2 31.12 14.63 36.82 14.63 32.21 17.98 33.97 23.41 29.35 20.05 24.74 23.41 26.5 17.98 21.89 14.63 27.59 14.63 29.35 9.2"/>
      <path d="M1126.81,859.67h0l-4.62-3.35-4.56,3.35a0,0,0,0,1-.05,0,0,0,0,0,1,0-.05l1.76-5.43-4.6-3.3a0,0,0,0,1,0-.05,0,0,0,0,1,0,0h5.71l1.72-5.4a0,0,0,0,1,.09,0l1.76,5.43,5.66,0a0,0,0,0,1,0,0,0,0,0,0,1,0,.05l-4.62,3.36,1.78,5.38a0,0,0,0,1,0,.05h0Zm-4.64-3.43,4.56,3.28-1.72-5.3,4.52-3.32H1124l-1.76-5.33-1.72,5.3-5.61,0,4.51,3.28-1.71,5.35,4.51-3.27h0Z" transform="translate(-1092.84 -836.22)"/>
    </g>
  </g>
</svg>
