<svg xmlns="http://www.w3.org/2000/svg" xmlns:xlink="http://www.w3.org/1999/xlink" viewBox="0 0 58.92 34.37">
  <defs>
    <style>
      .a {
        fill: none;
      }

      .b {
        clip-path: url(#a);
      }

      .c {
        fill: #fff;
      }

      .d {
        fill: #3564c2;
      }

      .e {
        fill: #c0003b;
      }
    </style>
    <clipPath id="a" transform="translate(-387.06 -894.4)">
      <rect class="a" x="387.06" y="894.4" width="58.92" height="34.37"/>
    </clipPath>
  </defs>
  <title>Panama</title>
  <g class="b">
    <rect class="c" width="58.92" height="34.37"/>
    <polygon class="d" points="16.57 4.3 15.24 8.38 17.29 9.05 16.57 4.3"/>
    <polygon class="d" points="16.57 4.3 17.9 8.38 15.86 9.05 16.57 4.3"/>
    <polygon class="d" points="20.66 7.27 16.36 7.27 16.36 9.41 20.66 7.27"/>
    <polygon class="d" points="20.66 7.27 17.18 9.79 15.92 8.05 20.66 7.27"/>
    <polygon class="d" points="12.48 7.27 15.96 9.79 17.22 8.05 12.48 7.27"/>
    <polygon class="d" points="12.48 7.27 16.78 7.27 16.78 9.41 12.48 7.27"/>
    <polygon class="d" points="19.1 12.07 17.77 7.98 15.73 8.65 19.1 12.07"/>
    <polygon class="d" points="19.1 12.07 15.62 9.54 16.89 7.81 19.1 12.07"/>
    <polygon class="d" points="14.05 12.07 17.52 9.54 16.26 7.81 14.05 12.07"/>
    <polygon class="d" points="14.05 12.07 15.37 7.98 17.42 8.65 14.05 12.07"/>
    <rect class="d" y="17.19" width="29.46" height="17.19"/>
    <rect class="e" x="29.46" width="29.46" height="17.19"/>
    <polygon class="e" points="42.35 21.48 41.02 25.57 43.07 26.23 42.35 21.48"/>
    <polygon class="e" points="42.35 21.48 43.68 25.57 41.63 26.23 42.35 21.48"/>
    <polygon class="e" points="46.44 24.45 42.14 24.45 42.14 26.6 46.44 24.45"/>
    <polygon class="e" points="46.44 24.45 42.96 26.98 41.7 25.24 46.44 24.45"/>
    <polygon class="e" points="38.27 24.45 41.74 26.98 43 25.24 38.27 24.45"/>
    <polygon class="e" points="38.27 24.45 42.56 24.45 42.56 26.6 38.27 24.45"/>
    <polygon class="e" points="44.88 29.26 43.55 25.17 41.51 25.83 44.88 29.26"/>
    <polygon class="e" points="44.88 29.26 41.4 26.73 42.66 24.99 44.88 29.26"/>
    <polygon class="e" points="39.83 29.26 43.3 26.73 42.04 24.99 39.83 29.26"/>
    <polygon class="e" points="39.83 29.26 41.15 25.17 43.2 25.83 39.83 29.26"/>
  </g>
</svg>
