<svg xmlns="http://www.w3.org/2000/svg" xmlns:xlink="http://www.w3.org/1999/xlink" viewBox="0 0 58.92 34.37">
  <defs>
    <style>
      .a {
        fill: none;
      }

      .b {
        clip-path: url(#a);
      }

      .c {
        fill: #bc0030;
      }

      .d {
        fill: #f3d02f;
      }

      .e {
        fill: #fff;
      }
    </style>
    <clipPath id="a" transform="translate(-457.75 -894.4)">
      <rect class="a" x="457.75" y="894.4" width="58.92" height="34.37"/>
    </clipPath>
  </defs>
  <title>Papua_New_Guinea</title>
  <g class="b">
    <rect width="58.92" height="34.37"/>
    <polygon class="c" points="0 0 58.92 34.37 58.92 0 0 0"/>
    <g class="b">
      <path class="d" d="M496,904.38c-0.34.44-1.14-.44-2.1-0.46a2.74,2.74,0,0,0-1.92,1.24,10.09,10.09,0,0,0-1.16,2.18,2.59,2.59,0,0,0,.76-0.62c0,0.24-.22.52-0.16,0.6s0.7-.48.92-0.5c0.06,0.16-.12.32-0.06,0.56a4.66,4.66,0,0,0,.68-0.5,1.77,1.77,0,0,0-.08.74c0.1,0,.7-0.68.9-0.76s-0.1.66,0,.72c0.18-.12.74-0.76,0.92-0.84s0,0.82.06,0.82a6.1,6.1,0,0,0,.84-1,3.58,3.58,0,0,0,.56,1.84,9,9,0,0,0,1.66,1.46c0.12-.22,0-0.68.06-0.66a3.38,3.38,0,0,0,.92.74,1.86,1.86,0,0,1,.08-0.48,6.73,6.73,0,0,0,3,2c-0.12-.34-0.38-0.64-0.4-0.8a5.31,5.31,0,0,0,.62.2,15,15,0,0,1-.82-1.36,0.7,0.7,0,0,0,.4,0,7.46,7.46,0,0,1-.94-1.32c0-.22.26,0,0.34,0s-0.32-.88-0.24-1,1,0.54,1.18.54,0.06-.78.16-0.82,0.84,0.42,1,.42a0.69,0.69,0,0,0,.2-0.3,4.18,4.18,0,0,1,1.2,3.82,2.57,2.57,0,0,1-3.56,1.6,2.23,2.23,0,0,0,2.06.66A2.73,2.73,0,0,0,505.2,910a4,4,0,0,0-.9-2.58c-0.1-.3.16,0.08,0.38,0.16s0-.42-0.1-0.64,0.66,0.46.84,0.52a4.09,4.09,0,0,0-.6-1.76c-0.18-.12.18,0,0.3,0.08a6.25,6.25,0,0,0-1.36-1.86c-0.26,0,.22-0.1.36-0.1a5.89,5.89,0,0,0-1.66-1.24c-0.26,0,.56-0.32.64-0.34a3.66,3.66,0,0,0-3.5,0c-0.1-.08.81-0.71,0.84-1,0-.07-0.3-0.22-0.32-0.3a4.13,4.13,0,0,0,.5-0.5,0.7,0.7,0,0,0-.46-0.14c0-.15.42-0.52,0.38-0.68a0.45,0.45,0,0,0-.44-0.06,4,4,0,0,0,.16-0.56,0.45,0.45,0,0,0-.36,0,7,7,0,0,0,.4-1,4.87,4.87,0,0,0-2.42,2,4,4,0,0,0-.22,2.4,0.78,0.78,0,0,1-.44.76,2.48,2.48,0,0,1-1.06-.6,1.08,1.08,0,0,0-.52-0.42,4.42,4.42,0,0,0-1.16.18c-0.24,0-1.18-.18-1.24-0.12a7.76,7.76,0,0,0,1.14.54,3.85,3.85,0,0,1,.4.38c0.16,0.1,1.66.54,1.18,1.16" transform="translate(-457.75 -894.4)"/>
      <path class="d" d="M501.82,907.2c0.48,0.48,3.72,2.64,3.72,5.28s-2.36,2.56-3,2.48a2.47,2.47,0,0,0,3.64-2.48c0-2.64-3.72-5.28-4.2-5.52s-0.6-.24-0.12.24" transform="translate(-457.75 -894.4)"/>
      <polygon class="e" points="15.17 10.65 15.67 12.37 17.4 12.37 16.04 13.42 16.54 15.1 15.17 14.04 13.8 15.05 14.31 13.42 12.94 12.37 14.62 12.37 15.17 10.65"/>
      <polygon class="e" points="9.92 17.36 10.42 19.09 12.15 19.09 10.79 20.14 11.29 21.81 9.92 20.76 8.55 21.76 9.05 20.14 7.69 19.09 9.37 19.09 9.92 17.36"/>
      <polygon class="e" points="20.4 16.89 20.9 18.61 22.63 18.61 21.26 19.66 21.76 21.33 20.4 20.28 19.03 21.29 19.53 19.66 18.16 18.61 19.85 18.61 20.4 16.89"/>
      <polygon class="e" points="15.17 26.43 15.67 28.16 17.4 28.16 16.04 29.21 16.54 30.88 15.17 29.83 13.8 30.83 14.31 29.21 12.94 28.16 14.62 28.16 15.17 26.43"/>
      <polygon class="e" points="17.52 22.78 17.77 23.64 18.63 23.64 17.95 24.17 18.2 25 17.52 24.48 16.83 24.98 17.08 24.17 16.4 23.64 17.24 23.64 17.52 22.78"/>
    </g>
  </g>
</svg>
