<svg xmlns="http://www.w3.org/2000/svg" xmlns:xlink="http://www.w3.org/1999/xlink" viewBox="0 0 58.92 34.37">
  <defs>
    <style>
      .a {
        fill: none;
      }

      .b {
        clip-path: url(#a);
      }

      .c {
        fill: #fff;
      }

      .d {
        fill: #2534a4;
      }

      .e {
        fill: #bc0030;
      }

      .f {
        fill: #2a690b;
      }

      .g {
        fill: #3e60bd;
      }

      .h {
        fill: #f5cd28;
      }

      .i {
        fill: #f8e72a;
      }
    </style>
    <clipPath id="a" transform="translate(-528.44 -894.4)">
      <rect class="a" x="528.44" y="894.4" width="58.92" height="34.37"/>
    </clipPath>
  </defs>
  <title>Paraguay</title>
  <g class="b">
    <rect class="c" y="11.46" width="58.92" height="11.46"/>
    <rect class="d" y="22.92" width="58.92" height="11.46"/>
    <rect class="e" width="58.92" height="11.46"/>
    <g class="b">
      <path class="c" d="M562.27,911.58a4.37,4.37,0,1,1-4.37-4.36,4.36,4.36,0,0,1,4.37,4.36h0Z" transform="translate(-528.44 -894.4)"/>
      <path d="M557.9,916a4.44,4.44,0,1,1,4.44-4.44A4.44,4.44,0,0,1,557.9,916h0Zm0-8.73a4.29,4.29,0,1,0,4.29,4.29,4.3,4.3,0,0,0-4.29-4.29h0Z" transform="translate(-528.44 -894.4)"/>
      <path class="e" d="M557.9,907.84a3.74,3.74,0,1,0,3.74,3.74,3.74,3.74,0,0,0-3.74-3.74h0Zm0,6.55a2.81,2.81,0,1,1,2.81-2.81,2.81,2.81,0,0,1-2.81,2.81h0Z" transform="translate(-528.44 -894.4)"/>
      <path d="M557.9,915.33a3.75,3.75,0,1,1,3.75-3.75,3.75,3.75,0,0,1-3.75,3.75h0Zm0-7.48a3.74,3.74,0,1,0,3.74,3.74,3.74,3.74,0,0,0-3.74-3.74h0Zm0,6.55a2.81,2.81,0,1,1,2.81-2.81,2.82,2.82,0,0,1-2.81,2.81h0Zm0-5.61a2.8,2.8,0,1,0,2.8,2.8,2.8,2.8,0,0,0-2.8-2.8h0Z" transform="translate(-528.44 -894.4)"/>
      <path class="f" d="M558.49,909.54s1.68,0.72,1.39,2.22a1.86,1.86,0,0,1-1.6,1.65,2.74,2.74,0,0,1-.77.37,1.53,1.53,0,0,1-.34-0.14,0.29,0.29,0,0,0,.28.29,2.39,2.39,0,0,0,.87-0.44,1.89,1.89,0,0,0,1.61-1.7c0.32-1.63-1.44-2.21-1.45-2.26h0Z" transform="translate(-528.44 -894.4)"/>
      <path d="M557.51,913.94h0a0.29,0.29,0,0,1-.28-0.29h0a2.14,2.14,0,0,0,.34.14,0.8,0.8,0,0,0,.37-0.15,3.45,3.45,0,0,1,.39-0.22l0.23-.08a1.72,1.72,0,0,0,1.37-1.57,2.06,2.06,0,0,0-1.16-2.1l-0.13-.07-0.09-.05a0.85,0.85,0,0,1,.23.11h0a2,2,0,0,1-.33,3.83,0.94,0.94,0,0,0-.33.18,1.11,1.11,0,0,1-.56.28h0Zm-0.32-.29a0.3,0.3,0,0,0,.28.28h0a1.11,1.11,0,0,0,.55-0.27,1.06,1.06,0,0,1,.27-0.17,2,2,0,0,0,.38-3.83,2,2,0,0,1,1.17,2.1,1.73,1.73,0,0,1-1.37,1.58l-0.23.08a3.75,3.75,0,0,0-.39.21,0.87,0.87,0,0,1-.35.16,1.48,1.48,0,0,1-.37-0.15h0Z" transform="translate(-528.44 -894.4)"/>
      <path class="f" d="M559.34,909.86a0.26,0.26,0,0,1,0,.23,0.31,0.31,0,0,1-.11-0.22,0.25,0.25,0,0,1,0-.23,0.33,0.33,0,0,1,.11.22h0Z" transform="translate(-528.44 -894.4)"/>
      <path d="M559.35,910.1a0.34,0.34,0,0,1-.12-0.22,0.4,0.4,0,0,1,0-.23h0a0.32,0.32,0,0,0,0,.22,0.33,0.33,0,0,0,.11.22h0a0.37,0.37,0,0,0,0-.22,0.54,0.54,0,0,0-.09-0.21,0.42,0.42,0,0,1,.1.2,0.38,0.38,0,0,1,0,.22h0Z" transform="translate(-528.44 -894.4)"/>
      <path class="f" d="M559.29,909.88a0.29,0.29,0,0,1,.06.23,0.35,0.35,0,0,1-.16-0.2,0.29,0.29,0,0,1-.05-0.23,0.34,0.34,0,0,1,.15.2h0Z" transform="translate(-528.44 -894.4)"/>
      <path d="M559.34,910.11a0.41,0.41,0,0,1-.15-0.2,0.39,0.39,0,0,1-.06-0.22h0a0.32,0.32,0,0,0,.06.22,0.4,0.4,0,0,0,.14.19h0a0.36,0.36,0,0,0-.06-0.23,0.61,0.61,0,0,0-.12-0.18,0.49,0.49,0,0,1,.13.17,0.42,0.42,0,0,1,.06.23h0Z" transform="translate(-528.44 -894.4)"/>
      <path class="f" d="M559.12,910a0.31,0.31,0,0,1,.21.12,0.23,0.23,0,0,1-.22,0,0.31,0.31,0,0,1-.21-0.12,0.24,0.24,0,0,1,.22,0h0Z" transform="translate(-528.44 -894.4)"/>
      <path d="M559.27,910.13l-0.16,0a0.32,0.32,0,0,1-.21-0.12h0.06s0,0.09.16,0.13l0.16,0h0l0.05,0a0.3,0.3,0,0,0-.21-0.12L559,910l0.13,0a0.33,0.33,0,0,1,.21.13l-0.06,0h0Z" transform="translate(-528.44 -894.4)"/>
      <path class="f" d="M559.14,909.93a0.33,0.33,0,0,1,.17.18,0.28,0.28,0,0,1-.22-0.08,0.34,0.34,0,0,1-.17-0.18,0.29,0.29,0,0,1,.22.08h0Z" transform="translate(-528.44 -894.4)"/>
      <path d="M559.29,910.12a0.52,0.52,0,0,1-.2-0.09,0.34,0.34,0,0,1-.18-0.19h0a0.23,0.23,0,0,0,.16.18,0.5,0.5,0,0,0,.2.09h0a0.33,0.33,0,0,0-.17-0.17,0.54,0.54,0,0,0-.19-0.09,0.45,0.45,0,0,1,.2.08,0.33,0.33,0,0,1,.17.19h0Z" transform="translate(-528.44 -894.4)"/>
      <path class="f" d="M559.21,909.9a0.13,0.13,0,1,1-.07.07,0.33,0.33,0,0,1-.13-0.21,0.33,0.33,0,0,1,.21.14h0Z" transform="translate(-528.44 -894.4)"/>
      <path d="M559.33,910.12a0.45,0.45,0,0,1-.2-0.14,0.32,0.32,0,0,1-.13-0.22,0.36,0.36,0,0,1,.21.14,0.31,0.31,0,0,1,.13.22h0Zm-0.31-.35a0.28,0.28,0,0,0,.12.21,0.44,0.44,0,0,0,.19.14h0a0.33,0.33,0,0,0-.13-0.21,0.44,0.44,0,0,0-.19-0.14h0Z" transform="translate(-528.44 -894.4)"/>
      <path class="f" d="M559.33,910.11l-0.08,0a0.12,0.12,0,0,0-.08,0,0.19,0.19,0,0,0-.08.09s0,0,.06,0a0.43,0.43,0,0,0,.09-0.08l0.09,0,0.06-.1a0.76,0.76,0,0,0,.11-0.13s0-.08,0-0.07a0.3,0.3,0,0,0-.09.09,0.83,0.83,0,0,1,0,.1l-0.05.09h0Z" transform="translate(-528.44 -894.4)"/>
      <path d="M559.11,910.27h0a0.16,0.16,0,0,1,.08-0.11h0.07l0.08,0,0.06-.09h0l0-.1a0.25,0.25,0,0,1,.09-0.09l0,0.07a0.42,0.42,0,0,1-.08.09l-0.06.07,0,0.06-0.09.05a0.35,0.35,0,0,1-.09.08h-0.05Z" transform="translate(-528.44 -894.4)"/>
      <path class="f" d="M559.85,910.28a0.37,0.37,0,0,1-.07.33,0.55,0.55,0,0,1-.08-0.37,0.37,0.37,0,0,1,.07-0.33,0.54,0.54,0,0,1,.08.37h0Z" transform="translate(-528.44 -894.4)"/>
      <path d="M559.78,910.61h0a0.54,0.54,0,0,1-.09-0.37,0.6,0.6,0,0,1,.05-0.32h0a0.51,0.51,0,0,0-.06.32,0.55,0.55,0,0,0,.08.36h0a0.62,0.62,0,0,0,.05-0.31,1,1,0,0,0,0-.31,0.76,0.76,0,0,1,.05.31,0.57,0.57,0,0,1-.05.32h0Z" transform="translate(-528.44 -894.4)"/>
      <path class="f" d="M559.77,910.28a0.44,0.44,0,0,1,0,.36,0.56,0.56,0,0,1-.15-0.35,0.45,0.45,0,0,1,0-.36,0.56,0.56,0,0,1,.15.35h0Z" transform="translate(-528.44 -894.4)"/>
      <path d="M559.77,910.64a0.56,0.56,0,0,1-.15-0.35,0.66,0.66,0,0,1,0-.35h0a0.95,0.95,0,0,0,.15.7h0a0.67,0.67,0,0,0,0-.34,1,1,0,0,0-.11-0.32,0.79,0.79,0,0,1,.12.32,0.63,0.63,0,0,1,0,.35h0Z" transform="translate(-528.44 -894.4)"/>
      <path class="f" d="M559.5,910.36a0.5,0.5,0,0,1,.25.27,0.34,0.34,0,0,1-.3-0.11,0.51,0.51,0,0,1-.25-0.27,0.34,0.34,0,0,1,.3.11h0Z" transform="translate(-528.44 -894.4)"/>
      <path d="M559.72,910.65a0.67,0.67,0,0,1-.28-0.13,0.52,0.52,0,0,1-.25-0.27h0a0.36,0.36,0,0,0,.22.27,0.67,0.67,0,0,0,.27.12h0l0,0a0.51,0.51,0,0,0-.25-0.26,1,1,0,0,0-.2-0.11,0.65,0.65,0,0,1,.21.1,0.49,0.49,0,0,1,.25.27l0,0h0Z" transform="translate(-528.44 -894.4)"/>
      <path class="f" d="M559.55,910.29a0.56,0.56,0,0,1,.18.34,0.45,0.45,0,0,1-.28-0.22,0.58,0.58,0,0,1-.18-0.33,0.44,0.44,0,0,1,.28.22h0Z" transform="translate(-528.44 -894.4)"/>
      <path d="M559.71,910.63a0.64,0.64,0,0,1-.27-0.23,0.57,0.57,0,0,1-.18-0.34,0.49,0.49,0,0,1,.29.22,0.57,0.57,0,0,1,.18.34h0Zm-0.43-.57a0.46,0.46,0,0,0,.17.33,0.65,0.65,0,0,0,.26.22h0a0.55,0.55,0,0,0-.18-0.33,0.66,0.66,0,0,0-.26-0.22h0Z" transform="translate(-528.44 -894.4)"/>
      <path class="f" d="M559.66,910.28a0.53,0.53,0,0,1,.11.36,0.51,0.51,0,0,1-.24-0.29,0.54,0.54,0,0,1-.11-0.36,0.53,0.53,0,0,1,.24.29h0Z" transform="translate(-528.44 -894.4)"/>
      <path d="M559.76,910.64a0.62,0.62,0,0,1-.23-0.29,0.53,0.53,0,0,1-.11-0.37,0.56,0.56,0,0,1,.24.29,0.52,0.52,0,0,1,.11.37h0Zm-0.33-.65a0.48,0.48,0,0,0,.11.36,0.62,0.62,0,0,0,.22.29h0a0.55,0.55,0,0,0-.11-0.36,0.64,0.64,0,0,0-.23-0.29h0Z" transform="translate(-528.44 -894.4)"/>
      <path class="f" d="M559.75,910.63l-0.12,0a0.18,0.18,0,0,0-.11,0,0.24,0.24,0,0,0-.14.09s0,0.05.09,0a0.6,0.6,0,0,0,.15-0.08l0.14,0,0.12-.12a1,1,0,0,0,.19-0.13c0-.05,0-0.11,0-0.1a0.35,0.35,0,0,0-.15.1s0,0.1-.06.13l-0.11.1h0Z" transform="translate(-528.44 -894.4)"/>
      <path d="M559.42,910.76l-0.05,0v0l0,0h0a0.23,0.23,0,0,0,.1,0,0.6,0.6,0,0,1,.19-0.05l0.08-.08a0.4,0.4,0,0,1,.1-0.07,0.44,0.44,0,0,0,.13-0.09,0.18,0.18,0,0,0,0-.06,0.09,0.09,0,0,1,0,.07,0.42,0.42,0,0,1-.13.09l-0.06,0-0.12.11-0.14,0a0.4,0.4,0,0,1-.15.08h0Zm0-.05a0.19,0.19,0,0,1,.13-0.08l0.09,0a0.46,0.46,0,0,0,.14,0l0.11-.1a0.15,0.15,0,0,0,0-.07,0.15,0.15,0,0,1,0-.07,0.35,0.35,0,0,1,.15-0.1l0,0a0.25,0.25,0,0,0-.16.08,0.16,0.16,0,0,0,0,.07,0.15,0.15,0,0,1,0,.07l-0.11.1-0.12,0-0.09,0a0.26,0.26,0,0,0-.15.08h0Z" transform="translate(-528.44 -894.4)"/>
      <path class="f" d="M560.13,911a0.38,0.38,0,0,1-.13.31,0.55,0.55,0,0,1,0-.38,0.37,0.37,0,0,1,.13-0.31,0.55,0.55,0,0,1,0,.38h0Z" transform="translate(-528.44 -894.4)"/>
      <path d="M560,911.29h0a0.55,0.55,0,0,1,0-.38,0.45,0.45,0,0,1,.13-0.31,0.49,0.49,0,0,1,0,.38,0.44,0.44,0,0,1-.13.31h0Zm0.11-.69a0.41,0.41,0,0,0-.12.31,0.56,0.56,0,0,0,0,.37h0a0.46,0.46,0,0,0,.12-0.31,0.55,0.55,0,0,0,0-.37h0Z" transform="translate(-528.44 -894.4)"/>
      <path class="f" d="M560,911a0.45,0.45,0,0,1-.06.35,0.58,0.58,0,0,1-.09-0.37,0.44,0.44,0,0,1,.07-0.35,0.57,0.57,0,0,1,.08.37h0Z" transform="translate(-528.44 -894.4)"/>
      <path d="M560,911.31h0a0.56,0.56,0,0,1-.09-0.38,0.7,0.7,0,0,1,0-.35h0a0.58,0.58,0,0,0-.06.34,0.56,0.56,0,0,0,.08.37h0a0.7,0.7,0,0,0,0-.34,1,1,0,0,0-.05-0.33,0.81,0.81,0,0,1,.06.33,0.67,0.67,0,0,1,0,.35h0Z" transform="translate(-528.44 -894.4)"/>
      <path class="f" d="M559.77,911a0.53,0.53,0,0,1,.2.31,0.34,0.34,0,0,1-.28-0.17,0.52,0.52,0,0,1-.2-0.31,0.35,0.35,0,0,1,.28.17h0Z" transform="translate(-528.44 -894.4)"/>
      <path d="M559.94,911.32a0.55,0.55,0,0,1-.26-0.18,0.51,0.51,0,0,1-.2-0.32h0a0.41,0.41,0,0,0,.18.31,0.58,0.58,0,0,0,.25.17h0a0.52,0.52,0,0,0-.2-0.31,0.86,0.86,0,0,0-.21-0.16,0.66,0.66,0,0,1,.22.16,0.52,0.52,0,0,1,.2.32h0Z" transform="translate(-528.44 -894.4)"/>
      <path class="f" d="M559.83,910.93a0.56,0.56,0,0,1,.11.37,0.46,0.46,0,0,1-.23-0.27,0.56,0.56,0,0,1-.11-0.37,0.45,0.45,0,0,1,.23.27h0Z" transform="translate(-528.44 -894.4)"/>
      <path d="M559.94,911.3a0.6,0.6,0,0,1-.22-0.28,0.58,0.58,0,0,1-.12-0.37,0.43,0.43,0,0,1,.24.27,0.56,0.56,0,0,1,.12.37h0Zm-0.33-.64a0.5,0.5,0,0,0,.11.36,0.62,0.62,0,0,0,.22.27h0a0.56,0.56,0,0,0-.12-0.36,0.6,0.6,0,0,0-.22-0.27h0Z" transform="translate(-528.44 -894.4)"/>
      <path class="f" d="M559.94,910.94a0.53,0.53,0,0,1,0,.38,0.53,0.53,0,0,1-.18-0.33,0.56,0.56,0,0,1,0-.38,0.52,0.52,0,0,1,.18.33h0Z" transform="translate(-528.44 -894.4)"/>
      <path d="M560,911.32a0.61,0.61,0,0,1-.18-0.33,0.54,0.54,0,0,1,0-.38h0a0.52,0.52,0,0,1,.19.33,0.53,0.53,0,0,1,0,.38h0Zm-0.21-.71a0.54,0.54,0,0,0,0,.37,0.62,0.62,0,0,0,.17.33h0a0.55,0.55,0,0,0,0-.37,0.6,0.6,0,0,0-.17-0.33h0Z" transform="translate(-528.44 -894.4)"/>
      <path class="f" d="M560,911.3h-0.12a0.17,0.17,0,0,0-.1-0.05,0.24,0.24,0,0,0-.16.06s0,0.05.08,0.06a0.65,0.65,0,0,0,.16,0H560l0.13-.09a1,1,0,0,0,.21-0.09c0.05,0,.06-0.1,0-0.1a0.32,0.32,0,0,0-.16.06s0,0.1-.09.12l-0.12.08h0Z" transform="translate(-528.44 -894.4)"/>
      <path d="M559.83,911.33h0a0.14,0.14,0,0,0-.1-0.05h0a0.24,0.24,0,0,0-.13,0,0.17,0.17,0,0,1,.21,0l0.08,0a0.32,0.32,0,0,0,.23-0.14,0.16,0.16,0,0,1,0-.06,0.32,0.32,0,0,1,.16-0.06l0,0a0.25,0.25,0,0,0-.17.05,0.16,0.16,0,0,0,0,.06,0.13,0.13,0,0,1,0,.06l-0.06,0,0,0,0,0,0.12-.06a0.44,0.44,0,0,0,.14-0.07,0.14,0.14,0,0,0,0-.06,0.09,0.09,0,0,1,0,.06,0.43,0.43,0,0,1-.15.07l-0.07,0-0.13.09h-0.14Z" transform="translate(-528.44 -894.4)"/>
      <path class="f" d="M560.15,911.76a0.36,0.36,0,0,1-.24.23,0.57,0.57,0,0,1,.13-0.36,0.36,0.36,0,0,1,.24-0.23,0.57,0.57,0,0,1-.13.36h0Z" transform="translate(-528.44 -894.4)"/>
      <path d="M559.92,912h0a0.58,0.58,0,0,1,.13-0.36,0.52,0.52,0,0,1,.23-0.24h0a0.51,0.51,0,0,0-.23.23,0.58,0.58,0,0,0-.13.35h0a0.51,0.51,0,0,0,.22-0.24,0.87,0.87,0,0,0,.14-0.31,0.72,0.72,0,0,1-.13.32,0.54,0.54,0,0,1-.23.24h0Z" transform="translate(-528.44 -894.4)"/>
      <path class="f" d="M560.08,911.71a0.43,0.43,0,0,1-.2.3,0.6,0.6,0,0,1,.07-0.38,0.45,0.45,0,0,1,.2-0.3,0.6,0.6,0,0,1-.07.38h0Z" transform="translate(-528.44 -894.4)"/>
      <path d="M559.89,912h0a0.59,0.59,0,0,1,.07-0.39,0.54,0.54,0,0,1,.19-0.3,0.52,0.52,0,0,1-.06.39,0.54,0.54,0,0,1-.19.3h0Zm0.25-.69a0.51,0.51,0,0,0-.19.3,0.59,0.59,0,0,0-.07.38h0a0.56,0.56,0,0,0,.18-0.3,0.59,0.59,0,0,0,.07-0.38h0Z" transform="translate(-528.44 -894.4)"/>
      <path class="f" d="M559.81,911.62a0.57,0.57,0,0,1,.06.37,0.35,0.35,0,0,1-.19-0.27,0.55,0.55,0,0,1-.06-0.37,0.35,0.35,0,0,1,.19.27h0Z" transform="translate(-528.44 -894.4)"/>
      <path d="M559.86,912a0.47,0.47,0,0,1-.18-0.28,0.54,0.54,0,0,1-.06-0.37h0a0.4,0.4,0,0,1,.19.27,0.54,0.54,0,0,1,.06.38h0Zm-0.22-.65a0.48,0.48,0,0,0,.05.37,0.46,0.46,0,0,0,.17.27h0a0.56,0.56,0,0,0-.06-0.37,0.47,0.47,0,0,0-.17-0.27h0Z" transform="translate(-528.44 -894.4)"/>
      <path class="f" d="M559.9,911.59a0.59,0.59,0,0,1,0,.38,0.46,0.46,0,0,1-.11-0.35,0.59,0.59,0,0,1,0-.38,0.45,0.45,0,0,1,.11.35h0Z" transform="translate(-528.44 -894.4)"/>
      <path d="M559.86,912a0.52,0.52,0,0,1-.11-0.35,0.59,0.59,0,0,1,0-.39h0a0.49,0.49,0,0,1,.11.35,0.6,0.6,0,0,1,0,.39h0Zm-0.06-.73a0.56,0.56,0,0,0,0,.38,0.53,0.53,0,0,0,.1.34h0a0.59,0.59,0,0,0,0-.38,0.51,0.51,0,0,0-.1-0.34h0Z" transform="translate(-528.44 -894.4)"/>
      <path class="f" d="M560,911.64a0.19,0.19,0,1,1,0-.38,0.55,0.55,0,0,1,0,.38h0Z" transform="translate(-528.44 -894.4)"/>
      <path d="M559.89,912h0a0.75,0.75,0,0,1,0-.37,0.58,0.58,0,0,1,.11-0.37,0.59,0.59,0,0,1,0,.38,0.56,0.56,0,0,1-.11.37h0Zm0.08-.74a0.49,0.49,0,0,0-.11.36,0.78,0.78,0,0,0,0,.37h0a0.57,0.57,0,0,0,.1-0.36,0.77,0.77,0,0,0,0-.37h0Z" transform="translate(-528.44 -894.4)"/>
      <path class="f" d="M559.88,912l-0.12-.05a0.17,0.17,0,0,0-.07-0.09,0.23,0.23,0,0,0-.16,0s0,0,0,.08a0.59,0.59,0,0,0,.16,0l0.13,0.06,0.16,0a1,1,0,0,0,.23,0c0.06,0,.1-0.07.05-0.09a0.33,0.33,0,0,0-.17,0s-0.08.07-.13,0.08l-0.14,0h0Z" transform="translate(-528.44 -894.4)"/>
      <path d="M559.87,912h0l-0.12-.06,0.13,0,0.11,0h0.21a0.29,0.29,0,0,0,.13,0,0.09,0.09,0,0,1-.06,0H560l-0.16,0h0Zm0,0-0.12-.05a0.14,0.14,0,0,0-.07-0.09l-0.09,0-0.08,0a0.1,0.1,0,0,0,.06.06,0.21,0.21,0,0,0,.1,0h0.06a0.36,0.36,0,0,1-.16,0,0.1,0.1,0,0,1-.07-0.07l0.09,0,0.1,0a0.11,0.11,0,0,1,.06.07,0.39,0.39,0,0,0,.12.07h0.07a0.2,0.2,0,0,0,.13,0l0.06,0a0.34,0.34,0,0,1,.17,0v0a0.2,0.2,0,0,0-.18,0,0.38,0.38,0,0,1-.12.08l-0.14,0h0Z" transform="translate(-528.44 -894.4)"/>
      <path class="f" d="M559.94,912.55a0.41,0.41,0,0,1-.34.17,0.61,0.61,0,0,1,.26-0.34,0.41,0.41,0,0,1,.34-0.17,0.62,0.62,0,0,1-.26.34h0Z" transform="translate(-528.44 -894.4)"/>
      <path d="M559.63,912.74l0,0a0.63,0.63,0,0,1,.26-0.35,0.71,0.71,0,0,1,.31-0.19v0a0.73,0.73,0,0,0-.32.17,0.61,0.61,0,0,0-.26.34h0a0.73,0.73,0,0,0,.31-0.19,1.23,1.23,0,0,0,.23-0.25,1,1,0,0,1-.22.25,0.73,0.73,0,0,1-.31.19h0Z" transform="translate(-528.44 -894.4)"/>
      <path class="f" d="M559.88,912.46a0.49,0.49,0,0,1-.31.26,0.69,0.69,0,0,1,.2-0.4,0.49,0.49,0,0,1,.31-0.26,0.67,0.67,0,0,1-.2.4h0Z" transform="translate(-528.44 -894.4)"/>
      <path d="M559.58,912.74h0a0.69,0.69,0,0,1,.2-0.4,0.72,0.72,0,0,1,.3-0.27h0a0.64,0.64,0,0,0-.3.26,0.68,0.68,0,0,0-.2.39h0a0.74,0.74,0,0,0,.29-0.27,1.19,1.19,0,0,0,.2-0.34,1,1,0,0,1-.2.35,0.72,0.72,0,0,1-.3.27h0Z" transform="translate(-528.44 -894.4)"/>
      <path class="f" d="M559.62,912.27a0.64,0.64,0,0,1-.06.43,0.41,0.41,0,0,1-.12-0.36,0.62,0.62,0,0,1,.06-0.43,0.42,0.42,0,0,1,.12.36h0Z" transform="translate(-528.44 -894.4)"/>
      <path d="M559.55,912.71a0.47,0.47,0,0,1-.12-0.37,0.63,0.63,0,0,1,.06-0.44h0a0.46,0.46,0,0,1,.13.37,0.61,0.61,0,0,1-.06.43h0Zm0-.8a0.59,0.59,0,0,0-.06.43,0.48,0.48,0,0,0,.11.36h0a0.62,0.62,0,0,0,.05-0.43,0.48,0.48,0,0,0-.11-0.36h0Z" transform="translate(-528.44 -894.4)"/>
      <path class="f" d="M559.72,912.27a0.67,0.67,0,0,1-.17.41,0.55,0.55,0,0,1,0-.42,0.68,0.68,0,0,1,.17-0.41,0.54,0.54,0,0,1,0,.42h0Z" transform="translate(-528.44 -894.4)"/>
      <path d="M559.55,912.69h0a0.76,0.76,0,0,1,0-.41,0.68,0.68,0,0,1,.17-0.42v0a0.69,0.69,0,0,0-.18.4,0.8,0.8,0,0,0,0,.41h0a0.67,0.67,0,0,0,.16-0.41,1.21,1.21,0,0,0,0-.38,0.9,0.9,0,0,1,0,.38,0.68,0.68,0,0,1-.17.42h0Z" transform="translate(-528.44 -894.4)"/>
      <path class="f" d="M559.81,912.36a0.63,0.63,0,0,1-.24.37,0.63,0.63,0,0,1,.09-0.43,0.22,0.22,0,1,1,.15.06h0Z" transform="translate(-528.44 -894.4)"/>
      <path d="M559.57,912.73h0a0.7,0.7,0,0,1,.08-0.44,0.68,0.68,0,0,1,.24-0.37,0.57,0.57,0,0,1-.07.44,0.72,0.72,0,0,1-.24.37h0Zm0.32-.8a0.67,0.67,0,0,0-.23.37,0.87,0.87,0,0,0-.1.41h0a0.71,0.71,0,0,0,.23-0.37,0.66,0.66,0,0,0,.09-0.42h0Z" transform="translate(-528.44 -894.4)"/>
      <path class="f" d="M559.56,912.71l-0.11-.1a0.21,0.21,0,0,0,0-.12,0.26,0.26,0,0,0-.18-0.07s0,0,0,.11a0.61,0.61,0,0,0,.17.09l0.12,0.11,0.18,0a1.21,1.21,0,0,0,.25.09c0.08,0,.13,0,0.09-0.07a0.38,0.38,0,0,0-.19-0.07c-0.06,0-.11,0-0.17,0l-0.16,0h0Z" transform="translate(-528.44 -894.4)"/>
      <path d="M560,912.84h0a0.44,0.44,0,0,1-.18-0.06l-0.08,0-0.18,0-0.12-.11a0.57,0.57,0,0,1,.13.11l0.13,0,0.13,0a0.42,0.42,0,0,0,.17.05h0l0.07,0a0.08,0.08,0,0,1-.07,0h0Zm0.08-.05a0.29,0.29,0,0,0-.19-0.09,0.08,0.08,0,0,0-.08,0l-0.07,0h-0.09l-0.09,0-0.11-.1a0.19,0.19,0,0,0,0-.12,0.28,0.28,0,0,0-.14-0.06,0.2,0.2,0,0,1,.14.06,0.13,0.13,0,0,1,0,.1,0.49,0.49,0,0,0,.11.13l0.08,0h0.08a0.14,0.14,0,0,0,.08,0l0.07,0a0.39,0.39,0,0,1,.2.07,0.11,0.11,0,0,1,0,0h0Z" transform="translate(-528.44 -894.4)"/>
      <path class="f" d="M559.4,913.24a0.46,0.46,0,0,1-.42,0,0.67,0.67,0,0,1,.44-0.18,0.45,0.45,0,0,1,.42,0,0.67,0.67,0,0,1-.44.18h0Z" transform="translate(-528.44 -894.4)"/>
      <path d="M559.16,913.26a0.28,0.28,0,0,1-.18,0,0.06,0.06,0,0,1,0,0,0.53,0.53,0,0,0,.41,0,1.18,1.18,0,0,0,.39-0.12,1,1,0,0,1-.39.13l-0.24,0h0Zm-0.13-.11a1,1,0,0,1,.38-0.12,0.64,0.64,0,0,1,.42,0,0.06,0.06,0,0,1,0,0,0.51,0.51,0,0,0-.41,0,1.28,1.28,0,0,0-.39.12h0Z" transform="translate(-528.44 -894.4)"/>
      <path class="f" d="M559.39,913.13a0.54,0.54,0,0,1-.44.07,0.69,0.69,0,0,1,.41-0.26,0.54,0.54,0,0,1,.45-0.07,0.71,0.71,0,0,1-.41.26h0Z" transform="translate(-528.44 -894.4)"/>
      <path d="M559,913.22s-0.07,0-.07,0a0.67,0.67,0,0,1,.41-0.27,0.54,0.54,0,0,1,.45-0.06,0.69,0.69,0,0,1-.41.27,1.23,1.23,0,0,1-.38.09h0Zm0.69-.36a1,1,0,0,0-.35.08,0.71,0.71,0,0,0-.41.26l0.06,0a1.2,1.2,0,0,0,.38-0.09,0.71,0.71,0,0,0,.41-0.26H559.7Z" transform="translate(-528.44 -894.4)"/>
      <path class="f" d="M559.24,912.79a0.69,0.69,0,0,1-.29.38,0.46,0.46,0,0,1,.08-0.42,0.66,0.66,0,0,1,.29-0.37,0.46,0.46,0,0,1-.08.41h0Z" transform="translate(-528.44 -894.4)"/>
      <path d="M559,913.17h0v0h0a0.74,0.74,0,0,0,.28-0.37,1.18,1.18,0,0,0,.11-0.31,0.89,0.89,0,0,1-.1.32,0.72,0.72,0,0,1-.29.38h0Zm0-.08a0.9,0.9,0,0,1,.1-0.34,0.74,0.74,0,0,1,.29-0.38v0h0a0.62,0.62,0,0,0-.29.36,1.12,1.12,0,0,0-.11.34h0Z" transform="translate(-528.44 -894.4)"/>
      <path class="f" d="M559.34,912.85a0.7,0.7,0,0,1-.39.29,0.59,0.59,0,0,1,.23-0.4,0.71,0.71,0,0,1,.39-0.29,0.6,0.6,0,0,1-.23.4h0Z" transform="translate(-528.44 -894.4)"/>
      <path d="M559,913.15h0a0.07,0.07,0,0,1,0,0l0,0a0.91,0.91,0,0,0,.37-0.3,1.61,1.61,0,0,0,.2-0.28,1.11,1.11,0,0,1-.2.28,0.91,0.91,0,0,1-.37.3h0Zm0-.07a1,1,0,0,1,.22-0.34,0.91,0.91,0,0,1,.38-0.3v0h0a0.75,0.75,0,0,0-.37.28,1.26,1.26,0,0,0-.23.33h0Z" transform="translate(-528.44 -894.4)"/>
      <path class="f" d="M559.37,913a0.67,0.67,0,0,1-.43.21,1.22,1.22,0,0,1,.75-0.57,0.65,0.65,0,0,1-.32.36h0Z" transform="translate(-528.44 -894.4)"/>
      <path d="M559,913.21h0v0h0l0,0a1,1,0,0,0,.4-0.22,1.82,1.82,0,0,0,.25-0.22l0.07-.1a0.24,0.24,0,0,1-.06.1,1.76,1.76,0,0,1-.25.22,1,1,0,0,1-.41.22h0Zm0-.06a1.06,1.06,0,0,1,.31-0.32,1,1,0,0,1,.41-0.22v0a1.32,1.32,0,0,0-.42.21,1.26,1.26,0,0,0-.31.31h0Z" transform="translate(-528.44 -894.4)"/>
      <path class="f" d="M558.95,913.17a1.24,1.24,0,0,1-.05-0.16,0.25,0.25,0,0,0,0-.15,0.3,0.3,0,0,0-.13-0.17s-0.06,0,0,.12a0.66,0.66,0,0,0,.12.18,1.42,1.42,0,0,1,.06.18l0.16,0.13a1.51,1.51,0,0,0,.2.23c0.07,0,.15,0,0.13,0a0.45,0.45,0,0,0-.14-0.17c-0.05,0-.13,0-0.18-0.06l-0.14-.12h0Z" transform="translate(-528.44 -894.4)"/>
      <path d="M559.37,913.58l-0.09,0a0.56,0.56,0,0,1-.14-0.15l-0.06-.07-0.16-.13a1.25,1.25,0,0,0-.06-0.17,0.64,0.64,0,0,1,.06.17l0.11,0.09a0.43,0.43,0,0,1,.11.12,0.57,0.57,0,0,0,.14.15l0.09,0h0Zm0,0a0.37,0.37,0,0,0-.13-0.19l-0.09,0a0.17,0.17,0,0,1-.09,0l-0.07-.05-0.08-.07h0a0.89,0.89,0,0,1-.05-0.15,0.2,0.2,0,0,0,0-.15,0.31,0.31,0,0,0-.08-0.13,0.23,0.23,0,0,1,.09.13,0.14,0.14,0,0,1,0,.12,0.51,0.51,0,0,0,0,.19l0.07,0.06,0.07,0.05a0.15,0.15,0,0,0,.09,0,0.2,0.2,0,0,1,.09,0,0.44,0.44,0,0,1,.14.17v0h0Zm-0.54-.54a0.55,0.55,0,0,1-.12-0.18,0.16,0.16,0,0,1,0-.12h0a0.08,0.08,0,0,0,0,.11,0.29,0.29,0,0,0,.08.13l0,0.06h0Z" transform="translate(-528.44 -894.4)"/>
      <path class="f" d="M558.69,913.63a0.48,0.48,0,0,1-.44-0.12,0.5,0.5,0,0,1,.44-0.13,0.48,0.48,0,0,1,.44.12,0.5,0.5,0,0,1-.44.13h0Z" transform="translate(-528.44 -894.4)"/>
      <path d="M558.66,913.63a0.68,0.68,0,0,1-.4-0.09,0.06,0.06,0,0,1,0,0,0.58,0.58,0,0,0,.4.11h0a0.51,0.51,0,0,0,.44-0.13,0.47,0.47,0,0,0-.42-0.12,1.14,1.14,0,0,0-.38.06,0.83,0.83,0,0,1,.36-0.07h0a0.48,0.48,0,0,1,.45.13,0.49,0.49,0,0,1-.45.14h0Z" transform="translate(-528.44 -894.4)"/>
      <path class="f" d="M558.63,913.23a0.52,0.52,0,0,1-.37.28,0.55,0.55,0,0,1,.19-0.44,0.52,0.52,0,0,1,.38-0.28,0.54,0.54,0,0,1-.19.44h0Z" transform="translate(-528.44 -894.4)"/>
      <path d="M558.28,913.52h0a0.54,0.54,0,0,1,.18-0.45,0.72,0.72,0,0,1,.35-0.29h0a0.94,0.94,0,0,0-.55.72h0a0.72,0.72,0,0,0,.34-0.29,1.06,1.06,0,0,0,.2-0.35,0.86,0.86,0,0,1-.19.36,0.71,0.71,0,0,1-.35.29h0Z" transform="translate(-528.44 -894.4)"/>
      <path class="f" d="M558.69,913.43a0.48,0.48,0,0,1-.46.06,0.53,0.53,0,0,1,.37-0.29,0.49,0.49,0,0,1,.46-0.06,0.53,0.53,0,0,1-.37.29h0Z" transform="translate(-528.44 -894.4)"/>
      <path d="M558.33,913.53a0.1,0.1,0,0,1-.1,0,0.52,0.52,0,0,1,.37-0.3,0.49,0.49,0,0,1,.46-0.06,0.51,0.51,0,0,1-.37.3,1.06,1.06,0,0,1-.37.09h0Zm0.64-.42a1,1,0,0,0-.36.09,0.24,0.24,0,1,0,.09.23,0.55,0.55,0,0,0,.37-0.29,0.09,0.09,0,0,0-.09,0h0Z" transform="translate(-528.44 -894.4)"/>
      <path class="f" d="M558.81,909.58a0.29,0.29,0,0,1,.15.21,0.48,0.48,0,0,1-.25-0.15,0.29,0.29,0,0,1-.15-0.21,0.49,0.49,0,0,1,.26.16h0Z" transform="translate(-528.44 -894.4)"/>
      <path d="M559,909.8a0.59,0.59,0,0,1-.25-0.16,0.44,0.44,0,0,1-.16-0.21h0a0.34,0.34,0,0,0,.15.2,0.61,0.61,0,0,0,.24.16h0a0.36,0.36,0,0,0-.15-0.21,0.94,0.94,0,0,0-.2-0.14,0.65,0.65,0,0,1,.2.14,0.47,0.47,0,0,1,.16.21l0,0h0Z" transform="translate(-528.44 -894.4)"/>
      <path class="f" d="M558.67,909.7a0.47,0.47,0,0,1,.29.09,0.31,0.31,0,0,1-.26,0,0.5,0.5,0,0,1-.29-0.09,0.32,0.32,0,0,1,.27,0h0Z" transform="translate(-528.44 -894.4)"/>
      <path d="M558.84,909.82H558.7a0.47,0.47,0,0,1-.29-0.1,0.29,0.29,0,0,1,.27,0,0.47,0.47,0,0,1,.29.1,0.15,0.15,0,0,1-.12,0h0Zm-0.31-.13a0.2,0.2,0,0,0-.11,0,0.4,0.4,0,0,0,.28.1,0.5,0.5,0,0,0,.26,0,0.41,0.41,0,0,0-.28-0.1h-0.14Z" transform="translate(-528.44 -894.4)"/>
      <path class="f" d="M558.73,909.62a0.42,0.42,0,0,1,.23.18,0.46,0.46,0,0,1-.29-0.09,0.44,0.44,0,0,1-.23-0.18,0.46,0.46,0,0,1,.29.09h0Z" transform="translate(-528.44 -894.4)"/>
      <path d="M558.94,909.81a0.77,0.77,0,0,1-.27-0.1,0.58,0.58,0,0,1-.23-0.17h0a0.4,0.4,0,0,0,.21.17,0.82,0.82,0,0,0,.26.09h0Zm0,0a0.55,0.55,0,0,0-.23-0.17l-0.2-.08a0.63,0.63,0,0,1,.21.08,0.56,0.56,0,0,1,.23.17h0Z" transform="translate(-528.44 -894.4)"/>
      <path class="f" d="M556.73,913.2a5.94,5.94,0,0,1,.69.2c0.32,0.12.81,0.52,0.94,0.54a0.42,0.42,0,0,0,.43-0.26,0.67,0.67,0,0,1-.58,0,6,6,0,0,0-.6-0.38,6.82,6.82,0,0,0-.83-0.26Z" transform="translate(-528.44 -894.4)"/>
      <path d="M558.4,913.94h0a1.65,1.65,0,0,1-.35-0.2,3.36,3.36,0,0,0-.6-0.34,6,6,0,0,0-.69-0.2l0-.13h0a6.07,6.07,0,0,1,.84.26,2.57,2.57,0,0,1,.46.28l0.15,0.1a0.51,0.51,0,0,0,.45,0l0.13,0a0.4,0.4,0,0,1-.4.27h0Zm-1.66-.74a5.12,5.12,0,0,1,.69.19,3.36,3.36,0,0,1,.6.34,1.58,1.58,0,0,0,.35.2h0a0.4,0.4,0,0,0,.4-0.25l-0.12,0a0.52,0.52,0,0,1-.46,0l-0.15-.1a2.38,2.38,0,0,0-.45-0.28,7,7,0,0,0-.83-0.26l0,0.13h0Z" transform="translate(-528.44 -894.4)"/>
      <polygon class="f" points="28.69 15.45 29.11 15.22 28.64 15.34 28.59 15.43 28.69 15.45"/>
      <path d="M557.13,909.85l-0.1,0,0.05-.09,0.47-.12-0.42.23h0Zm0.42-.23-0.47.13-0.05.08,0.1,0,0.42-.22h0Z" transform="translate(-528.44 -894.4)"/>
      <path class="f" d="M557.54,909.95c-0.17,0-.42-0.09-0.58-0.1,0.11-.12.27-0.33,0.36-0.46a0.3,0.3,0,1,0,.22.56h0Z" transform="translate(-528.44 -894.4)"/>
      <path d="M557.53,910l-0.12,0c-0.15,0-.33-0.06-0.46-0.07,0.11-.13.26-0.34,0.36-0.47l-0.05.12a1.94,1.94,0,0,0-.14.28l0.27,0.11,0.14,0h0Zm-0.22-.57a4.19,4.19,0,0,1-.35.47,3.08,3.08,0,0,1,.45.07h0.07l-0.09,0a1.75,1.75,0,0,1-.28-0.11,1.71,1.71,0,0,1,.13-0.29l0.06-.12h0Z" transform="translate(-528.44 -894.4)"/>
      <polygon class="f" points="28.61 15.47 28.99 15.18 28.55 15.38 28.51 15.47 28.61 15.47"/>
      <path d="M557.05,909.88H557l0-.1,0.44-.2s-0.36.29-.37,0.3h0Zm0.38-.3-0.44.2,0,0.09h0.1l0.38-.29h0Z" transform="translate(-528.44 -894.4)"/>
      <path class="f" d="M557.46,909.94c-0.17,0-.42-0.09-0.59-0.1,0.11-.13.26-0.34,0.35-0.48a3.71,3.71,0,0,0-.19.41,4.09,4.09,0,0,0,.43.17h0Z" transform="translate(-528.44 -894.4)"/>
      <path d="M557.46,909.95l-0.13,0a4.31,4.31,0,0,0-.45-0.08c0.11-.13.25-0.34,0.34-0.47h0a4.63,4.63,0,0,1-.34.47,3.07,3.07,0,0,1,.45.07l0.08,0-0.09,0a1.72,1.72,0,0,1-.28-0.11,1.75,1.75,0,0,1,.13-0.3l0-.08,0,0.09a2.07,2.07,0,0,0-.14.3l0.28,0.11,0.14,0.05h0Z" transform="translate(-528.44 -894.4)"/>
      <polygon class="f" points="28.55 15.5 28.99 15.31 28.51 15.39 28.45 15.47 28.55 15.5"/>
      <path d="M557,909.9l-0.1,0,0.06-.08,0.48-.08-0.44.19h0Zm0.44-.2-0.48.09-0.06.08,0.1,0,0.44-.19h0Z" transform="translate(-528.44 -894.4)"/>
      <path class="f" d="M557.41,909.95c-0.17,0-.43,0-0.59,0,0.09-.14.22-0.38,0.29-0.52a3.6,3.6,0,0,0-.14.44,4.24,4.24,0,0,0,.44.12h0Z" transform="translate(-528.44 -894.4)"/>
      <path d="M557.41,910h-0.15l-0.42,0h0a3.22,3.22,0,0,1,.42,0h0.09l-0.1,0a0.23,0.23,0,1,1-.19-0.41l0-.07,0,0.07a2.33,2.33,0,0,0-.1.32l0.29,0.08,0.15,0h0Zm-0.49-.21,0.18-.34h0c-0.05.11-.11,0.23-0.18,0.34h0Z" transform="translate(-528.44 -894.4)"/>
      <polygon class="f" points="28.5 15.5 28.8 15.13 28.42 15.42 28.4 15.51 28.5 15.5"/>
      <path d="M556.84,909.92l0-.1,0.38-.29-0.3.37-0.11,0h0Zm0.4-.39-0.38.29,0,0.09,0.09,0,0.3-.37h0Z" transform="translate(-528.44 -894.4)"/>
      <path class="f" d="M557.41,910c-0.18,0-.46,0-0.63,0,0.09-.16.19-0.43,0.26-0.59a4.47,4.47,0,0,0-.11.49,4.07,4.07,0,0,0,.48.1h0Z" transform="translate(-528.44 -894.4)"/>
      <path d="M557.41,910h-0.63c0.08-.16.18-0.41,0.25-0.57h0a4.69,4.69,0,0,1-.24.57,2.25,2.25,0,0,1,.48,0h0.1l-0.11,0a2,2,0,0,1-.32-0.07,2.14,2.14,0,0,1,.07-0.35l0-.09v0.1a2.13,2.13,0,0,0-.07.34l0.32,0.07,0.16,0h0Z" transform="translate(-528.44 -894.4)"/>
      <polygon class="f" points="28.44 15.59 28.81 15.23 28.36 15.48 28.33 15.59 28.44 15.59"/>
      <path d="M556.88,910h-0.11l0-.11,0.45-.25-0.36.36h0Zm0.36-.36-0.44.25,0,0.1h0.1l0.37-.35h0Z" transform="translate(-528.44 -894.4)"/>
      <path class="f" d="M557.33,910c-0.19,0-.49,0-0.68,0,0.13-.18.3-0.47,0.4-0.66-0.07.17-.18,0.39-0.22,0.54a4.23,4.23,0,0,0,.5.1h0Z" transform="translate(-528.44 -894.4)"/>
      <path d="M556.64,910h0c0.12-.18.29-0.47,0.4-0.65h0c-0.1.19-.26,0.47-0.38,0.65h0.65l-0.15,0a1.8,1.8,0,0,1-.33-0.07,2.39,2.39,0,0,1,.15-0.39l0.06-.14-0.05.15a2.8,2.8,0,0,0-.15.38,2.08,2.08,0,0,0,.33.07l0.17,0h-0.69Z" transform="translate(-528.44 -894.4)"/>
      <polygon class="f" points="28.32 15.61 28.79 15.21 28.26 15.5 28.2 15.61 28.32 15.61"/>
      <path d="M556.64,910l0.06-.12,0.53-.28-0.46.4h-0.12Zm0.59-.41-0.53.29,0,0.11h0.11l0.47-.4h0Z" transform="translate(-528.44 -894.4)"/>
      <path class="f" d="M557.26,910c-0.19,0-.49.06-0.67,0.11,0.1-.19.23-0.51,0.3-0.7a5.34,5.34,0,0,0-.14.56,3.88,3.88,0,0,0,.51,0h0Z" transform="translate(-528.44 -894.4)"/>
      <path d="M556.57,910.11h0c0.1-.19.22-0.49,0.3-0.68h0c-0.08.21-.19,0.49-0.29,0.67a4.78,4.78,0,0,1,.51-0.08l0.15,0h-0.17a1.78,1.78,0,0,1-.34,0,2.54,2.54,0,0,1,.09-0.41l0-.11,0,0.12a3.34,3.34,0,0,0-.1.4l0.33,0h0.17l-0.15,0c-0.18,0-.38.05-0.52,0.09h0Z" transform="translate(-528.44 -894.4)"/>
      <polygon class="f" points="28.25 15.69 28.62 15.19 28.16 15.6 28.14 15.72 28.25 15.69"/>
      <path d="M556.58,910.13l0-.13,0.45-.41c-0.09.14-.35,0.49-0.36,0.51l-0.12,0h0Zm0.48-.54-0.45.41,0,0.12,0.11,0,0.36-.5h0Z" transform="translate(-528.44 -894.4)"/>
      <path class="f" d="M557.15,910.05c-0.19,0-.49,0-0.68.07,0.11-.19.25-0.49,0.34-0.68a5.53,5.53,0,0,0-.17.55,4.57,4.57,0,0,0,.5.05h0Z" transform="translate(-528.44 -894.4)"/>
      <path d="M556.46,910.13h0c0.11-.19.25-0.49,0.34-0.68l0,0.17a3.24,3.24,0,0,0-.11.38l0.32,0,0.18,0-0.16,0a4.69,4.69,0,0,0-.52.06h0Zm0.35-.69a6.68,6.68,0,0,1-.33.67l0.51-.06h0a1.66,1.66,0,0,1-.33,0,2.7,2.7,0,0,1,.11-0.39l0.05-.17h0Z" transform="translate(-528.44 -894.4)"/>
      <polygon class="f" points="28.19 15.74 28.65 15.35 28.13 15.63 28.07 15.74 28.19 15.74"/>
      <path d="M556.51,910.15l0.06-.12,0.53-.28-0.46.4h-0.13Zm0.58-.41-0.52.29,0,0.11h0.11l0.46-.4h0Z" transform="translate(-528.44 -894.4)"/>
      <path class="f" d="M557.09,910.07c-0.19,0-.49.09-0.68,0.15,0.09-.2.2-0.51,0.28-0.71a5.19,5.19,0,0,0-.11.56,3.77,3.77,0,0,0,.51,0h0Z" transform="translate(-528.44 -894.4)"/>
      <path d="M556.41,910.23h0c0.08-.18.19-0.47,0.26-0.66h0c-0.07.23-.17,0.48-0.24,0.65,0.14,0,.34-0.08.52-0.12l0.15,0-0.17,0a1.94,1.94,0,0,1-.34,0,2.56,2.56,0,0,1,.07-0.41l0-.07v0.07a2.86,2.86,0,0,0-.08.4h0.51l-0.15,0a4.92,4.92,0,0,0-.53.12h0Z" transform="translate(-528.44 -894.4)"/>
      <polygon class="f" points="28.11 15.76 28.41 15.22 28.01 15.69 28 15.81 28.11 15.76"/>
      <path d="M556.44,910.22v-0.13l0.4-.47c-0.09.19-.28,0.54-0.29,0.55l-0.12.06h0Zm0.4-.61-0.39.48v0.12l0.1,0,0.29-.54h0Z" transform="translate(-528.44 -894.4)"/>
      <path class="f" d="M557.09,910.11c-0.21.05-.53,0.13-0.72,0.2,0.07-.22.16-0.58,0.21-0.8a6.27,6.27,0,0,0-.05.63,4.66,4.66,0,0,0,.56,0h0Z" transform="translate(-528.44 -894.4)"/>
      <path d="M556.36,910.31h0c0.07-.22.16-0.58,0.21-0.8v0.18a3,3,0,0,0,0,.45h0.08l0.28,0,0.19,0-0.17.05c-0.19,0-.4.1-0.55,0.15h0Zm0.21-.81a7.51,7.51,0,0,1-.2.79c0.14-.05.36-0.11,0.54-0.15l0.17,0-0.19,0a2.23,2.23,0,0,1-.37,0,3,3,0,0,1,0-.46l0-.18h0Z" transform="translate(-528.44 -894.4)"/>
      <path class="f" d="M556.5,910.29l0.37-.55-0.47.44,0,0.14Z" transform="translate(-528.44 -894.4)"/>
      <path d="M556.37,910.33l0-.14,0.47-.45-0.36.55-0.13,0h0Zm0.49-.59-0.47.45,0,0.13,0.12,0s0-.06.37-0.54h0Z" transform="translate(-528.44 -894.4)"/>
      <path class="f" d="M557,910.17c-0.2.06-.52,0.15-0.71,0.23,0.06-.22.13-0.58,0.17-0.8a5.35,5.35,0,0,0,0,.63,4.65,4.65,0,0,0,.56-0.06h0Z" transform="translate(-528.44 -894.4)"/>
      <path d="M556.29,910.41h0c0.06-.23.13-0.58,0.17-0.8v0.19c0,0.09,0,.19,0,0.28a2,2,0,0,1,0-.28V909.6a7.59,7.59,0,0,1-.16.8c0.14-.06.35-0.12,0.53-0.18l0.17-.05-0.19,0a2.35,2.35,0,0,1-.33,0h0l0.34,0,0.19,0-0.17.06a5.15,5.15,0,0,0-.53.18h0Z" transform="translate(-528.44 -894.4)"/>
      <polygon class="f" points="27.98 15.97 28.26 15.37 27.86 15.89 27.86 16.02 27.98 15.97"/>
      <path d="M556.3,910.43v-0.15l0.4-.52c-0.07.17-.27,0.59-0.27,0.61l-0.13.06h0Zm0.4-.67-0.39.53v0.13l0.11-.05,0.28-.6h0Z" transform="translate(-528.44 -894.4)"/>
      <path class="f" d="M556.93,910.25c-0.21,0-.53.11-0.73,0.18,0.08-.22.18-0.57,0.25-0.79a5.8,5.8,0,0,0-.08.63,5,5,0,0,0,.56,0h0Z" transform="translate(-528.44 -894.4)"/>
      <path d="M556.2,910.43h0c0.08-.21.18-0.56,0.24-0.78h0a7.81,7.81,0,0,1-.23.77,5.54,5.54,0,0,1,.54-0.13l0.18,0-0.19,0a2,2,0,0,1-.37,0,2.66,2.66,0,0,1,0-.45l0-.15,0,0.15a3.52,3.52,0,0,0-.05.45h0.56l-0.18,0a5,5,0,0,0-.55.14h0Z" transform="translate(-528.44 -894.4)"/>
      <polygon class="f" points="27.91 16.03 28.37 15.56 27.83 15.91 27.79 16.04 27.91 16.03"/>
      <path d="M556.22,910.44l0-.14,0.55-.35-0.45.48h-0.14Zm0.59-.49-0.54.36,0,0.13h0.12l0.46-.47h0Z" transform="translate(-528.44 -894.4)"/>
      <path class="f" d="M556.84,910.33c-0.21,0-.53.06-0.72,0.11,0.1-.21.22-0.56,0.29-0.78a5.26,5.26,0,0,0-.12.63,4.51,4.51,0,0,0,.55,0h0Z" transform="translate(-528.44 -894.4)"/>
      <path d="M556.11,910.45h0c0.09-.2.2-0.52,0.28-0.74h0c-0.08.25-.18,0.54-0.26,0.72a5.24,5.24,0,0,1,.54-0.08l0.17,0h-0.19a2.24,2.24,0,0,1-.36,0,3,3,0,0,1,.08-0.47l0-.08v0.08a3.34,3.34,0,0,0-.08.46,2.45,2.45,0,0,0,.36,0h0.19l-0.17,0a5.23,5.23,0,0,0-.55.09h0Z" transform="translate(-528.44 -894.4)"/>
      <polygon class="f" points="27.82 15.98 28.14 15.39 27.71 15.89 27.7 16.03 27.82 15.98"/>
      <path d="M556.14,910.43v-0.15l0.42-.5-0.3.59-0.13.05h0Zm0.43-.65-0.42.5v0.13l0.11,0s0-.07.31-0.59h0Z" transform="translate(-528.44 -894.4)"/>
      <path class="f" d="M556.87,910.26c-0.22.09-.57,0.22-0.79,0.33,0.07-.27.14-0.69,0.19-0.95a6.68,6.68,0,0,0,0,.73,5.35,5.35,0,0,0,.62-0.12h0Z" transform="translate(-528.44 -894.4)"/>
      <path d="M556.07,910.6h0c0.07-.27.14-0.69,0.19-0.95v0.21a4,4,0,0,0,0,.52,3.12,3.12,0,0,0,.4-0.07l0.21,0-0.19.08c-0.2.08-.44,0.17-0.59,0.26h0Zm0.19-1c0,0.26-.11.67-0.18,0.94,0.16-.08.39-0.17,0.58-0.25l0.19-.08-0.21.05a2.46,2.46,0,0,1-.41.07,3,3,0,0,1,0-.53v-0.21h0Z" transform="translate(-528.44 -894.4)"/>
      <polygon class="f" points="27.78 16.16 28.15 15.48 27.66 16.06 27.64 16.22 27.78 16.16"/>
      <path d="M556.08,910.62v-0.17l0.5-.58c-0.12.23-.36,0.67-0.37,0.68l-0.14.06h0Zm0.51-.74-0.49.58v0.15l0.13-.05s0-.06.37-0.68h0Z" transform="translate(-528.44 -894.4)"/>
      <path class="f" d="M556.78,910.35c-0.22.1-.56,0.25-0.77,0.37,0.06-.27.11-0.69,0.14-0.94a6.68,6.68,0,0,0,0,.72,5.48,5.48,0,0,0,.61-0.15h0Z" transform="translate(-528.44 -894.4)"/>
      <path d="M556,910.73h0c0.06-.26.11-0.68,0.14-0.94h0a9.33,9.33,0,0,1-.13.93,6.41,6.41,0,0,1,.58-0.28l0.18-.08-0.21.06a2.27,2.27,0,0,1-.4.09,3.17,3.17,0,0,1,0-.52v0a3.62,3.62,0,0,0,0,.52,2.72,2.72,0,0,0,.4-0.1l0.21-.06-0.18.09c-0.2.09-.43,0.2-0.59,0.29h0Z" transform="translate(-528.44 -894.4)"/>
      <polygon class="f" points="27.7 16.26 27.98 15.53 27.57 16.18 27.58 16.34 27.7 16.26"/>
      <path d="M556,910.75v-0.17l0.41-.65c-0.09.25-.26,0.71-0.27,0.73l-0.13.09h0Zm0.4-.82-0.4.66v0.15l0.12-.08s0-.06.27-0.73h0Z" transform="translate(-528.44 -894.4)"/>
      <path class="f" d="M556.68,910.41c-0.22.1-.56,0.25-0.77,0.38,0.06-.27.11-0.69,0.14-0.94a7.17,7.17,0,0,0,0,.72,5.49,5.49,0,0,0,.61-0.16h0Z" transform="translate(-528.44 -894.4)"/>
      <path d="M555.91,910.79h0c0.05-.27.11-0.69,0.14-0.94v0.22a3.37,3.37,0,0,0,0,.5,2.78,2.78,0,0,0,.4-0.1l0.21-.06-0.18.09c-0.2.09-.43,0.2-0.59,0.29h0Zm0.14-1c0,0.25-.07.67-0.13,0.93,0.15-.09.38-0.2,0.58-0.29l0.18-.08-0.2.07a2.3,2.3,0,0,1-.4.1,3.17,3.17,0,0,1,0-.51v-0.22h0Z" transform="translate(-528.44 -894.4)"/>
      <path class="f" d="M556.08,910.75l0.42-.64-0.53.53,0,0.16Z" transform="translate(-528.44 -894.4)"/>
      <path d="M555.94,910.79l0-.17,0.54-.53-0.42.65-0.15,0h0Zm0.56-.7-0.53.53,0,0.15,0.13,0,0.42-.64h0Z" transform="translate(-528.44 -894.4)"/>
      <path class="f" d="M556.66,910.37c-0.19.16-.5,0.38-0.68,0.56,0-.27,0-0.68-0.06-0.94a5.78,5.78,0,0,0,.17.69,5.56,5.56,0,0,0,.57-0.3h0Z" transform="translate(-528.44 -894.4)"/>
      <path d="M556,910.94h0c0-.25,0-0.62-0.05-0.87h0c0,0.3.06,0.63,0.06,0.85a6.44,6.44,0,0,1,.51-0.42l0.16-.13-0.19.12a2.58,2.58,0,0,1-.38.19,2.73,2.73,0,0,1-.13-0.49v-0.06l0,0.06a3.42,3.42,0,0,0,.13.49,3.48,3.48,0,0,0,.37-0.2l0.19-.11-0.16.13c-0.18.14-.38,0.3-0.52,0.43h0Z" transform="translate(-528.44 -894.4)"/>
      <path class="f" d="M556.11,910.78s0-.77,0-0.77l-0.2.75L556,910.9Z" transform="translate(-528.44 -894.4)"/>
      <path d="M556,910.91l-0.06-.15,0.21-.75c0,0.21,0,.75,0,0.77l-0.1.13h0Zm0.14-.9-0.2.75,0.05,0.13,0.09-.12s0-.05,0-0.77h0Z" transform="translate(-528.44 -894.4)"/>
      <path class="f" d="M556.61,910.44c-0.2.16-.51,0.38-0.68,0.55,0-.27,0-0.68-0.05-0.94a6.18,6.18,0,0,0,.16.69,5.57,5.57,0,0,0,.57-0.3h0Z" transform="translate(-528.44 -894.4)"/>
      <path d="M555.92,911h0c0-.26,0-0.65-0.05-0.91h0c0,0.28.06,0.65,0.06,0.9,0.13-.12.33-0.28,0.5-0.41l0.17-.13-0.19.11a2.52,2.52,0,0,1-.38.19,3,3,0,0,1-.12-0.49l0-.13,0,0.13a3.32,3.32,0,0,0,.12.48,3.53,3.53,0,0,0,.37-0.2l0.19-.11-0.17.14c-0.18.14-.38,0.29-0.51,0.42h0Z" transform="translate(-528.44 -894.4)"/>
      <polygon class="f" points="27.61 16.51 27.81 15.76 27.47 16.45 27.5 16.61 27.61 16.51"/>
      <path d="M555.94,911l0-.16,0.34-.7c-0.06.26-.19,0.74-0.19,0.76l-0.12.1h0Zm0.31-.86-0.33.7,0,0.14,0.11-.09s0-.07.2-0.75h0Z" transform="translate(-528.44 -894.4)"/>
      <path class="f" d="M556.59,910.46c-0.19.18-.48,0.45-0.64,0.65,0-.28-0.11-0.7-0.16-1a6.24,6.24,0,0,0,.24.69,5.82,5.82,0,0,0,.56-0.38h0Z" transform="translate(-528.44 -894.4)"/>
      <path d="M555.94,911.12h0c0-.27-0.11-0.67-0.15-0.93h0c0.06,0.28.13,0.66,0.16,0.92,0.12-.15.31-0.33,0.48-0.49l0.16-.15-0.19.14a2.89,2.89,0,0,1-.37.24,3.06,3.06,0,0,1-.18-0.49l0-.14,0.05,0.13a3.64,3.64,0,0,0,.18.48,3.49,3.49,0,0,0,.36-0.24l0.19-.13-0.15.16c-0.17.16-.36,0.35-0.48,0.49h0Z" transform="translate(-528.44 -894.4)"/>
      <path class="f" d="M556.06,911s0-.8,0-0.8l-0.2.78,0.06,0.15Z" transform="translate(-528.44 -894.4)"/>
      <path d="M556,911.14l-0.06-.15,0.2-.78c0,0.27,0,.79,0,0.8l-0.11.13h0Zm0.13-.93-0.19.78,0.06,0.14,0.09-.12s0-.07,0-0.8h0Z" transform="translate(-528.44 -894.4)"/>
      <path class="f" d="M556.53,910.6c-0.2.16-.51,0.4-0.69,0.58,0-.28-0.05-0.71-0.08-1a6.91,6.91,0,0,0,.19.71,6,6,0,0,0,.58-0.32h0Z" transform="translate(-528.44 -894.4)"/>
      <path d="M555.83,911.19h0c0-.28-0.05-0.71-0.08-1l0.06,0.21a3.78,3.78,0,0,0,.14.5,3.13,3.13,0,0,0,.38-0.21l0.19-.11-0.16.14c-0.18.14-.39,0.31-0.52,0.45h0Zm-0.08-1c0,0.26.08,0.68,0.09,1,0.13-.13.34-0.3,0.51-0.44l0.17-.14-0.19.12a2.57,2.57,0,0,1-.39.21,3.09,3.09,0,0,1-.14-0.51l0-.21h0Z" transform="translate(-528.44 -894.4)"/>
      <path class="g" d="M559.32,911.41a1.41,1.41,0,1,1-1.41-1.41,1.41,1.41,0,0,1,1.41,1.41h0Z" transform="translate(-528.44 -894.4)"/>
      <path class="f" d="M556,911.1s0.28-.75.28-0.75l-0.42.67v0.16Z" transform="translate(-528.44 -894.4)"/>
      <path d="M555.87,911.18V911l0.42-.67c-0.09.26-.27,0.74-0.27,0.76l-0.14.09h0Zm0.41-.84-0.41.67v0.15l0.12-.07s0-.07.28-0.75h0Z" transform="translate(-528.44 -894.4)"/>
      <path class="f" d="M556.53,910.6c-0.18.19-.46,0.46-0.61,0.66,0-.28-0.11-0.71-0.15-1a6.71,6.71,0,0,0,.23.69,5.66,5.66,0,0,0,.53-0.38h0Z" transform="translate(-528.44 -894.4)"/>
      <path d="M555.91,911.27h0c0-.27-0.1-0.66-0.14-0.93h0c0.06,0.29.12,0.66,0.15,0.91,0.12-.15.3-0.34,0.46-0.5l0.14-.15-0.18.14a2.52,2.52,0,0,1-.35.25,3.38,3.38,0,0,1-.18-0.5l0-.1,0,0.1a3.81,3.81,0,0,0,.17.49,3.18,3.18,0,0,0,.34-0.25l0.18-.14-0.14.16c-0.16.17-.35,0.36-0.46,0.51h0Z" transform="translate(-528.44 -894.4)"/>
      <polygon class="f" points="27.56 16.74 27.53 15.94 27.4 16.74 27.48 16.87 27.56 16.74"/>
      <path d="M555.92,911.28l-0.08-.14,0.13-.8c0,0.27,0,.78,0,0.79l-0.09.15h0Zm0.05-.94-0.12.79,0.07,0.13,0.08-.13s0-.07,0-0.79h0Z" transform="translate(-528.44 -894.4)"/>
      <path class="f" d="M556.44,910.66c-0.17.19-.44,0.46-0.59,0.67,0-.28-0.13-0.71-0.18-1a6.44,6.44,0,0,0,.25.69,6,6,0,0,0,.52-0.39h0Z" transform="translate(-528.44 -894.4)"/>
      <path d="M555.85,911.33h0c0-.28-0.12-0.7-0.18-1h0c0.06,0.27.15,0.67,0.19,0.95,0.11-.15.29-0.34,0.44-0.51l0.14-.15-0.17.14a2.46,2.46,0,0,1-.35.25,3.11,3.11,0,0,1-.19-0.49l-0.06-.18,0.07,0.18a0.3,0.3,0,1,0,.52.23l0.17-.14-0.13.16c-0.16.17-.34,0.36-0.45,0.51h0Z" transform="translate(-528.44 -894.4)"/>
      <path class="f" d="M556,911.21s0.09-.81.09-0.81l-0.24.77,0,0.16Z" transform="translate(-528.44 -894.4)"/>
      <path d="M555.86,911.34l-0.05-.16,0.24-.77c0,0.27-.08.79-0.08,0.81l-0.11.12h0Zm0.19-.93-0.23.77,0,0.15,0.1-.11s0-.07.09-0.81h0Z" transform="translate(-528.44 -894.4)"/>
      <path class="f" d="M556.4,910.69c-0.15.2-.4,0.51-0.54,0.72-0.06-.27-0.18-0.69-0.26-0.95a7.07,7.07,0,0,0,.3.66,5.3,5.3,0,0,0,.49-0.44h0Z" transform="translate(-528.44 -894.4)"/>
      <path d="M555.86,911.42h0c-0.06-.27-0.17-0.67-0.25-0.93h0c0.09,0.27.2,0.65,0.25,0.91,0.1-.16.26-0.36,0.4-0.54l0.13-.17-0.15.16a2.46,2.46,0,0,1-.33.29,3.17,3.17,0,0,1-.23-0.47l-0.06-.13,0.06,0.13a3.92,3.92,0,0,0,.22.47,3.33,3.33,0,0,0,.32-0.29l0.16-.15-0.12.17c-0.14.18-.31,0.39-0.41,0.55h0Z" transform="translate(-528.44 -894.4)"/>
      <path class="f" d="M556,911.29s-0.05-.81-0.05-0.81l-0.1.8,0.07,0.14Z" transform="translate(-528.44 -894.4)"/>
      <path d="M555.88,911.43l-0.08-.15,0.1-.81c0,0.27.06,0.79,0.06,0.81l-0.09.14h0Zm0-1-0.09.8,0.07,0.13,0.08-.13s0-.07-0.05-0.81h0Z" transform="translate(-528.44 -894.4)"/>
      <path class="f" d="M556.39,910.74c-0.15.21-.38,0.53-0.5,0.75-0.07-.27-0.22-0.69-0.3-0.94a6.49,6.49,0,0,0,.34.65,5.84,5.84,0,0,0,.47-0.46h0Z" transform="translate(-528.44 -894.4)"/>
      <path d="M555.88,911.5h0c-0.07-.25-0.19-0.61-0.28-0.87l0-.07,0.1,0.19a3.68,3.68,0,0,0,.25.46,3.4,3.4,0,0,0,.3-0.3l0.16-.16-0.12.18c-0.13.19-.29,0.41-0.38,0.58h0Zm-0.3-.95,0,0.07c0.09,0.25.21,0.61,0.28,0.86,0.09-.17.24-0.38,0.37-0.57l0.12-.17-0.15.17a2.48,2.48,0,0,1-.31.3,3,3,0,0,1-.25-0.46l-0.09-.19h0Z" transform="translate(-528.44 -894.4)"/>
      <polygon class="f" points="27.57 16.97 27.65 16.15 27.42 16.92 27.47 17.08 27.57 16.97"/>
      <path d="M555.91,911.48l-0.05-.17,0.23-.77c0,0.28-.08.8-0.07,0.82l-0.11.12h0Zm0.18-.93-0.22.77,0,0.15,0.1-.11s0-.07.08-0.81h0Z" transform="translate(-528.44 -894.4)"/>
      <path class="f" d="M556.36,910.81c-0.12.23-.33,0.58-0.43,0.82-0.1-.26-0.28-0.65-0.39-0.89a7,7,0,0,0,.4.6,6.14,6.14,0,0,0,.42-0.53h0Z" transform="translate(-528.44 -894.4)"/>
      <path d="M555.92,911.64h0c-0.09-.26-0.27-0.64-0.38-0.88h0c0.12,0.24.29,0.61,0.38,0.87,0.08-.17.21-0.4,0.32-0.6l0.11-.21a2.24,2.24,0,0,1-.13.19,2.71,2.71,0,0,1-.29.35,3.22,3.22,0,0,1-.29-0.42l-0.1-.16,0.11,0.15a0.3,0.3,0,1,0,.56.07l0.14-.18-0.1.21c-0.12.21-.25,0.44-0.32,0.62h0Z" transform="translate(-528.44 -894.4)"/>
      <polygon class="f" points="27.54 17.04 27.31 16.26 27.39 17.08 27.49 17.19 27.54 17.04"/>
      <path d="M555.94,911.6l-0.11-.12-0.08-.82c0.08,0.26.23,0.76,0.23,0.77l0,0.17h0Zm-0.19-.94,0.08,0.81,0.1,0.11,0-.15s0-.06-0.23-0.77h0Z" transform="translate(-528.44 -894.4)"/>
      <path class="f" d="M556.35,910.9c-0.13.23-.34,0.58-0.45,0.81-0.1-.26-0.28-0.65-0.39-0.89a5.92,5.92,0,0,0,.4.6,6.72,6.72,0,0,0,.44-0.53h0Z" transform="translate(-528.44 -894.4)"/>
      <path d="M555.9,911.73h0c-0.1-.26-0.28-0.65-0.39-0.89l0.12,0.17a3.85,3.85,0,0,0,.29.42,4.08,4.08,0,0,0,.28-0.34l0.15-.19-0.11.21c-0.12.2-.26,0.44-0.34,0.61h0Zm-0.39-.9a9.21,9.21,0,0,1,.39.88c0.08-.18.21-0.41,0.33-0.61l0.12-.2-0.14.19a3,3,0,0,1-.29.34,2.88,2.88,0,0,1-.3-0.43l-0.11-.18h0Z" transform="translate(-528.44 -894.4)"/>
      <path class="f" d="M556,911.58s-0.09-.81-0.09-0.81l-0.07.81,0.08,0.14Z" transform="translate(-528.44 -894.4)"/>
      <path d="M555.92,911.73l-0.09-.15,0.07-.81c0,0.27.09,0.79,0.09,0.81l-0.08.15h0Zm0-1-0.07.81,0.08,0.13,0.07-.13s0-.07-0.08-0.81h0Z" transform="translate(-528.44 -894.4)"/>
      <path class="f" d="M556.37,911c-0.13.23-.35,0.57-0.46,0.8-0.09-.26-0.27-0.66-0.37-0.9a6.67,6.67,0,0,0,.39.61,6.19,6.19,0,0,0,.45-0.52h0Z" transform="translate(-528.44 -894.4)"/>
      <path d="M555.9,911.79h0c-0.09-.26-0.27-0.65-0.37-0.9h0c0.12,0.24.29,0.62,0.38,0.88,0.09-.18.23-0.42,0.36-0.63l0.1-.17-0.14.19a3,3,0,0,1-.29.33,3.08,3.08,0,0,1-.29-0.43l-0.11-.17,0.11,0.17a3.67,3.67,0,0,0,.28.43,3.3,3.3,0,0,0,.29-0.33l0.15-.18-0.09.17c-0.13.21-.28,0.46-0.36,0.64h0Z" transform="translate(-528.44 -894.4)"/>
      <polygon class="f" points="27.54 17.25 27.39 16.45 27.39 17.27 27.48 17.39 27.54 17.25"/>
      <path d="M555.92,911.8l-0.1-.13v-0.82c0.06,0.27.15,0.78,0.16,0.8l-0.07.16h0Zm-0.09-1v0.82l0.09,0.12,0.06-.14s0-.07-0.15-0.8h0Z" transform="translate(-528.44 -894.4)"/>
      <path class="f" d="M556.31,911.09c-0.14.22-.38,0.54-0.5,0.77-0.08-.27-0.23-0.67-0.33-0.92a6.85,6.85,0,0,0,.36.63,5.28,5.28,0,0,0,.47-0.48h0Z" transform="translate(-528.44 -894.4)"/>
      <path d="M555.8,911.87h0c-0.07-.26-0.22-0.63-0.31-0.88h0c0.12,0.28.25,0.62,0.32,0.86,0.09-.17.24-0.39,0.37-0.58l0.13-.18-0.15.17a2.67,2.67,0,0,1-.31.32,3.08,3.08,0,0,1-.27-0.45l0-.09,0.05,0.09a3.65,3.65,0,0,0,.26.45,3.16,3.16,0,0,0,.31-0.31l0.16-.17-0.12.19c-0.13.2-.29,0.42-0.38,0.59h0Z" transform="translate(-528.44 -894.4)"/>
      <path class="f" d="M555.92,911.73s0.07-.82.07-0.82l-0.22.77,0.05,0.16Z" transform="translate(-528.44 -894.4)"/>
      <path d="M555.81,911.86l-0.06-.16,0.22-.78c0,0.28-.06.8-0.06,0.82l-0.11.12h0Zm0.17-.94-0.21.78,0.05,0.15,0.1-.11s0-.07.07-0.81h0Z" transform="translate(-528.44 -894.4)"/>
      <path class="f" d="M556.32,911.11c-0.12.24-.33,0.59-0.43,0.84-0.1-.26-0.3-0.64-0.41-0.87a6,6,0,0,0,.42.58,6.53,6.53,0,0,0,.42-0.54h0Z" transform="translate(-528.44 -894.4)"/>
      <path d="M555.89,912h0c-0.1-.24-0.27-0.58-0.39-0.82h0c0.14,0.27.3,0.58,0.39,0.8,0.07-.18.2-0.41,0.31-0.62l0.11-.21-0.13.19a3,3,0,0,1-.29.36,2.86,2.86,0,0,1-.31-0.41l0-.07,0.05,0.06a3.48,3.48,0,0,0,.3.41,3.6,3.6,0,0,0,.28-0.36l0.14-.19-0.11.21c-0.11.21-.24,0.45-0.31,0.63h0Z" transform="translate(-528.44 -894.4)"/>
      <path class="f" d="M555.89,911.8s-0.25-.76-0.25-0.76l0.1,0.81,0.11,0.11Z" transform="translate(-528.44 -894.4)"/>
      <path d="M555.84,912l-0.11-.12-0.1-.81c0.09,0.25.25,0.74,0.26,0.76l0,0.17h0Zm-0.21-.93,0.1,0.81,0.1,0.1,0-.15s0-.06-0.25-0.76h0Z" transform="translate(-528.44 -894.4)"/>
      <path class="f" d="M556.28,911.17c-0.09.26-.23,0.65-0.29,0.91-0.14-.23-0.39-0.56-0.54-0.77a6,6,0,0,0,.5.48c0.12-.16.23-0.44,0.34-0.63h0Z" transform="translate(-528.44 -894.4)"/>
      <path d="M556,912.09h0c-0.13-.21-0.34-0.5-0.49-0.7l0-.06,0.15,0.14a3.24,3.24,0,0,0,.36.34,4,4,0,0,0,.21-0.4l0.12-.22-0.06.21c-0.08.23-.18,0.51-0.22,0.71h0Zm-0.54-.78,0.05,0.06c0.15,0.2.36,0.49,0.49,0.69,0-.2.14-0.47,0.22-0.7l0.07-.21c0,0.07-.07.15-0.1,0.23a3.05,3.05,0,0,1-.22.4,2.67,2.67,0,0,1-.37-0.34l-0.14-.14h0Z" transform="translate(-528.44 -894.4)"/>
      <path class="f" d="M556.11,911.86s-0.27-.75-0.27-0.75l0.12,0.8,0.11,0.11Z" transform="translate(-528.44 -894.4)"/>
      <path d="M556.07,912l-0.12-.11-0.12-.81c0.1,0.25.27,0.73,0.28,0.75l0,0.17h0Zm-0.24-.92,0.13,0.8,0.1,0.1,0-.15s0-.06-0.27-0.75h0Z" transform="translate(-528.44 -894.4)"/>
      <path class="f" d="M556.28,911.25c-0.08.26-.23,0.66-0.29,0.92-0.14-.23-0.39-0.56-0.54-0.76a5.6,5.6,0,0,0,.5.47c0.11-.16.23-0.44,0.33-0.63h0Z" transform="translate(-528.44 -894.4)"/>
      <path d="M556,912.18h0c-0.14-.23-0.39-0.56-0.54-0.76l0.15,0.14a3.13,3.13,0,0,0,.36.33,4.33,4.33,0,0,0,.21-0.41l0.11-.22-0.07.22c-0.08.23-.17,0.5-0.21,0.69h0Zm-0.55-.77c0.16,0.2.4,0.52,0.55,0.75,0-.19.13-0.46,0.21-0.68l0.07-.22c0,0.07-.06.14-0.1,0.22a3,3,0,0,1-.22.41,2.49,2.49,0,0,1-.36-0.33l-0.15-.14h0Z" transform="translate(-528.44 -894.4)"/>
      <polygon class="f" points="27.67 17.59 27.32 16.89 27.52 17.67 27.64 17.76 27.67 17.59"/>
      <path d="M556.09,912.16l-0.13-.09-0.21-.78,0.36,0.7,0,0.17h0Zm-0.33-.87,0.21,0.78,0.12,0.08,0-.16-0.35-.7h0Z" transform="translate(-528.44 -894.4)"/>
      <path class="f" d="M556.25,911.31c-0.05.27-.15,0.68-0.18,1-0.17-.21-0.46-0.5-0.63-0.68a5.19,5.19,0,0,0,.55.4c0.1-.18.18-0.47,0.26-0.67h0Z" transform="translate(-528.44 -894.4)"/>
      <path d="M556.08,912.27h0c-0.15-.19-0.4-0.44-0.57-0.62l-0.05-.06,0.16,0.11a3.21,3.21,0,0,0,.4.28,4,4,0,0,0,.17-0.44l0.08-.24,0,0.23c-0.05.24-.11,0.52-0.13,0.72h0Zm-0.63-.68,0.06,0c0.17,0.18.42,0.43,0.57,0.61,0-.2.08-0.47,0.13-0.71l0-.23c0,0.07,0,.15-0.08.24a3.17,3.17,0,0,1-.17.44,2.51,2.51,0,0,1-.4-0.28l-0.15-.12h0Z" transform="translate(-528.44 -894.4)"/>
      <polygon class="f" points="27.69 17.7 27.5 16.92 27.54 17.73 27.63 17.86 27.69 17.7"/>
      <path d="M556.08,912.26l-0.1-.13,0-.82c0.07,0.26.19,0.77,0.2,0.78l-0.06.16h0Zm-0.13-.95,0,0.82,0.09,0.11,0.06-.14s0-.07-0.19-0.79h0Z" transform="translate(-528.44 -894.4)"/>
      <path class="f" d="M556.25,911.4c0,0.27-.09.7-0.09,1-0.19-.18-0.5-0.43-0.69-0.59a4.6,4.6,0,0,0,.59.32,7,7,0,0,0,.19-0.7h0Z" transform="translate(-528.44 -894.4)"/>
      <path d="M556.17,912.38h0c-0.18-.17-0.46-0.41-0.66-0.56h0a8,8,0,0,1,.65.55c0-.21,0-0.49.07-0.74l0-.22c0,0.08,0,.16-0.05.25a3.14,3.14,0,0,1-.13.46,2.41,2.41,0,0,1-.43-0.22l-0.08,0,0.08,0a2.83,2.83,0,0,0,.42.22,4.48,4.48,0,0,0,.12-0.45l0.06-.25,0,0.22c0,0.25-.06.54-0.07,0.75h0Z" transform="translate(-528.44 -894.4)"/>
      <polygon class="f" points="27.7 17.76 27.2 17.19 27.58 17.88 27.72 17.93 27.7 17.76"/>
      <path d="M556.16,912.33l-0.14,0-0.38-.69,0.5,0.56,0,0.18h0Zm-0.52-.74,0.38,0.68,0.13,0v-0.16h0l-0.5-.56h0Z" transform="translate(-528.44 -894.4)"/>
      <path class="f" d="M556.26,911.49c0,0.28-.09.7-0.09,1-0.18-.18-0.49-0.44-0.68-0.59a5.07,5.07,0,0,0,.59.32c0.08-.19.13-0.49,0.19-0.7h0Z" transform="translate(-528.44 -894.4)"/>
      <path d="M556.17,912.47h0c-0.17-.18-0.46-0.41-0.65-0.57h0a7.65,7.65,0,0,1,.65.55c0-.2,0-0.47.07-0.72l0-.24c0,0.07,0,.15-0.05.24a3.32,3.32,0,0,1-.13.46,2.49,2.49,0,0,1-.43-0.23l-0.08,0,0.08,0a2.88,2.88,0,0,0,.42.23,4.11,4.11,0,0,0,.12-0.46l0.06-.24,0,0.25c0,0.25-.06.53-0.07,0.72h0Z" transform="translate(-528.44 -894.4)"/>
      <path class="f" d="M556.2,912.29s-0.38-.68-0.38-0.68l0.24,0.77,0.12,0.08Z" transform="translate(-528.44 -894.4)"/>
      <path d="M556.19,912.46l-0.13-.09-0.24-.77c0.11,0.18.37,0.67,0.39,0.68l0,0.18h0Zm-0.37-.86,0.25,0.76,0.12,0.08,0-.16s0,0-.38-0.68h0Z" transform="translate(-528.44 -894.4)"/>
      <path class="f" d="M556.29,911.61c0,0.28-.06.7-0.05,1-0.19-.17-0.51-0.41-0.71-0.55a4.77,4.77,0,0,0,.6.29c0.07-.2.11-0.5,0.16-0.71h0Z" transform="translate(-528.44 -894.4)"/>
      <path d="M556.24,912.59h0c-0.18-.16-0.48-0.38-0.67-0.53h0a7.7,7.7,0,0,1,.67.51c0-.2,0-0.48,0-0.73l0-.24c0,0.08,0,.16,0,0.25a3.21,3.21,0,0,1-.11.47,2.48,2.48,0,0,1-.44-0.2l-0.08,0,0.08,0a2.74,2.74,0,0,0,.43.2c0-.12.07-0.3,0.11-0.46l0.05-.25v0.24c0,0.25,0,.54,0,0.74h0Z" transform="translate(-528.44 -894.4)"/>
      <path class="f" d="M556.25,912.41s-0.47-.6-0.47-0.6l0.34,0.71,0.13,0.05v-0.17Z" transform="translate(-528.44 -894.4)"/>
      <path d="M556.26,912.59l-0.14-.06-0.35-.71,0.48,0.59v0.18h0Zm-0.49-.77,0.35,0.7,0.13,0.05v-0.16h0l-0.47-.6h0Z" transform="translate(-528.44 -894.4)"/>
      <path class="f" d="M556.29,911.73c0,0.28-.05.71,0,1-0.19-.17-0.51-0.4-0.71-0.54a4.85,4.85,0,0,0,.6.28c0.07-.2.11-0.5,0.16-0.71h0Z" transform="translate(-528.44 -894.4)"/>
      <path d="M556.25,912.72h0c-0.19-.17-0.51-0.4-0.71-0.54l0.18,0.08a2.66,2.66,0,0,0,.43.2,4.16,4.16,0,0,0,.11-0.47l0-.24V912c0,0.25,0,.55,0,0.75h0Zm-0.72-.55a8.27,8.27,0,0,1,.71.53c0-.21,0-0.5,0-0.75v-0.22a2.37,2.37,0,0,1,0,.24,3.41,3.41,0,0,1-.11.48,2.3,2.3,0,0,1-.44-0.2l-0.17-.09h0Z" transform="translate(-528.44 -894.4)"/>
      <path class="f" d="M556.29,912.52s-0.33-.72-0.33-0.72l0.18,0.79,0.12,0.1Z" transform="translate(-528.44 -894.4)"/>
      <path d="M556.27,912.69l-0.12-.1L556,911.8c0.12,0.24.33,0.7,0.34,0.72l0,0.17h0ZM556,911.8l0.19,0.79,0.11,0.09,0-.16s0-.05-0.33-0.72h0Z" transform="translate(-528.44 -894.4)"/>
      <path class="f" d="M556.3,911.82c0,0.28,0,.71,0,1-0.21-.14-0.55-0.33-0.75-0.45a4.61,4.61,0,0,0,.62.2c0-.21.06-0.51,0.09-0.73h0Z" transform="translate(-528.44 -894.4)"/>
      <path d="M556.35,912.8h0c-0.2-.14-0.51-0.31-0.72-0.43h0a7.15,7.15,0,0,1,.72.42c0-.2,0-0.48,0-0.73v-0.24c0,0.08,0,.17,0,0.26a3.51,3.51,0,0,1-.06.48,2.21,2.21,0,0,1-.45-0.13l-0.09,0,0.09,0a2.45,2.45,0,0,0,.45.14,4.06,4.06,0,0,0,.06-0.47c0-.09,0-0.18,0-0.25l0,0.24c0,0.25,0,.54,0,0.74h0Z" transform="translate(-528.44 -894.4)"/>
      <path class="f" d="M556.35,912.49l-0.6-.41,0.51,0.56h0.14Z" transform="translate(-528.44 -894.4)"/>
      <path d="M556.41,912.65h-0.15l-0.52-.56,0.61,0.41,0.06,0.17h0Zm-0.66-.57,0.52,0.56h0.13l-0.05-.15h0l-0.6-.41h0Z" transform="translate(-528.44 -894.4)"/>
      <path class="f" d="M556.32,911.85c0,0.28,0,.7.09,1-0.21-.13-0.56-0.31-0.78-0.42a4.59,4.59,0,0,0,.63.18c0-.21,0-0.51.05-0.73h0Z" transform="translate(-528.44 -894.4)"/>
      <path d="M556.42,912.83h0c-0.2-.13-0.52-0.29-0.74-0.39h0a7.35,7.35,0,0,1,.73.38c0-.2-0.06-0.5-0.07-0.75l0-.22c0,0.07,0,.16,0,0.24a3.6,3.6,0,0,1,0,.49,2.26,2.26,0,0,1-.46-0.12l-0.07,0h0.08a2.65,2.65,0,0,0,.45.12,3.94,3.94,0,0,0,0-.49c0-.09,0-0.17,0-0.24l0,0.22c0,0.25,0,.55.08,0.75h0Z" transform="translate(-528.44 -894.4)"/>
      <polygon class="f" points="27.97 18.25 27.47 17.67 27.85 18.36 27.99 18.41 27.97 18.25"/>
      <path d="M556.44,912.81l-0.14-.05-0.38-.7,0.51,0.57,0,0.18h0Zm-0.53-.75,0.39,0.69,0.13,0,0-.16h0l-0.5-.58h0Z" transform="translate(-528.44 -894.4)"/>
      <path class="f" d="M556.37,912c0,0.28.08,0.7,0.13,1-0.22-.12-0.57-0.28-0.79-0.37a4.65,4.65,0,0,0,.64.14c0-.21,0-0.51,0-0.74h0Z" transform="translate(-528.44 -894.4)"/>
      <path d="M556.51,912.93h0c-0.21-.12-0.54-0.26-0.76-0.36h0a7.33,7.33,0,0,1,.75.34c0-.21-0.08-0.5-0.11-0.75l0-.21c0,0.08,0,.16,0,0.25a3.41,3.41,0,0,1,0,.48,2.19,2.19,0,0,1-.45-0.09l-0.1,0,0.1,0a2.77,2.77,0,0,0,.45.09,4.09,4.09,0,0,0,0-.48c0-.09,0-0.18,0-0.25l0,0.2c0,0.26.07,0.56,0.11,0.76h0Z" transform="translate(-528.44 -894.4)"/>
      <polygon class="f" points="28.07 18.34 27.47 17.92 27.98 18.49 28.12 18.5 28.07 18.34"/>
      <path d="M556.57,912.9h-0.15l-0.51-.57,0.6,0.42,0.05,0.17h0Zm-0.66-.58,0.51,0.56h0.13l0-.15h0l-0.6-.42h0Z" transform="translate(-528.44 -894.4)"/>
      <path class="f" d="M556.39,912.07c0.05,0.27.12,0.7,0.2,1-0.23-.1-0.59-0.22-0.81-0.29a4.33,4.33,0,0,0,.64.08c0-.21,0-0.52,0-0.74h0Z" transform="translate(-528.44 -894.4)"/>
      <path d="M556.59,913h0c-0.22-.1-0.56-0.21-0.78-0.28h0a7.32,7.32,0,0,1,.77.27c-0.05-.19-0.11-0.47-0.15-0.72l0-.23c0,0.08,0,.17,0,0.26a3.8,3.8,0,0,1,0,.48,2.5,2.5,0,0,1-.46,0l-0.09,0H556a2.68,2.68,0,0,0,.42.05,1.48,1.48,0,0,0,0-.48c0-.09,0-0.18,0-0.26l0.05,0.23c0,0.25.1,0.53,0.16,0.73h0Z" transform="translate(-528.44 -894.4)"/>
      <path class="f" d="M556.58,912.82l-0.5-.59,0.37,0.7,0.14,0.05v-0.17Z" transform="translate(-528.44 -894.4)"/>
      <path d="M556.6,913l-0.14-.05-0.37-.7,0.5,0.58V913h0Zm-0.52-.76,0.38,0.7,0.13,0v-0.16h0l-0.49-.59h0Z" transform="translate(-528.44 -894.4)"/>
      <path class="f" d="M556.42,912.14c0.08,0.27.19,0.68,0.29,0.93-0.23-.07-0.6-0.14-0.83-0.19a4.12,4.12,0,0,0,.64,0c0-.21-0.07-0.51-0.1-0.74h0Z" transform="translate(-528.44 -894.4)"/>
      <path d="M556.71,913.08h0c-0.23-.07-0.59-0.14-0.82-0.18h0a6.62,6.62,0,0,1,.81.17c-0.07-.18-0.15-0.45-0.21-0.69l-0.07-.23c0,0.08,0,.16,0,0.25a3.32,3.32,0,0,1,.06.48,2,2,0,0,1-.46,0h0a2.49,2.49,0,0,0,.46,0,4.43,4.43,0,0,0-.06-0.48c0-.09,0-0.18,0-0.25l0.07,0.23c0.07,0.24.15,0.51,0.22,0.7h0Z" transform="translate(-528.44 -894.4)"/>
      <polygon class="f" points="28.16 18.43 27.47 18.28 28.13 18.61 28.26 18.56 28.16 18.43"/>
      <path d="M556.57,913l-0.66-.33,0.7,0.14,0.1,0.13-0.14.06h0Zm-0.66-.33,0.66,0.32,0.13,0-0.1-.12-0.69-.15h0Z" transform="translate(-528.44 -894.4)"/>
      <path class="f" d="M556.46,912.23c0.08,0.27.19,0.68,0.28,0.93-0.23-.07-0.61-0.14-0.83-0.19a4.13,4.13,0,0,0,.64,0c0-.21-0.07-0.51-0.09-0.73h0Z" transform="translate(-528.44 -894.4)"/>
      <path d="M556.75,913.16h0c-0.22-.07-0.55-0.13-0.78-0.18h0a6.54,6.54,0,0,1,.77.17c-0.07-.19-0.15-0.47-0.22-0.71l-0.06-.22c0,0.07,0,.16,0,0.24a3.41,3.41,0,0,1,.06.49,1.78,1.78,0,0,1-.46,0h0.23l0.22,0a4.61,4.61,0,0,0-.06-0.48l0-.25,0.07,0.21c0.07,0.24.15,0.52,0.22,0.71h0Z" transform="translate(-528.44 -894.4)"/>
      <polygon class="f" points="28.28 18.5 27.61 18.18 28.21 18.66 28.35 18.65 28.28 18.5"/>
      <path d="M556.65,913.06l-0.6-.48,0.67,0.31L556.8,913l-0.15,0h0Zm-0.59-.48,0.6,0.47h0.14l-0.08-.14h0l-0.66-.32h0Z" transform="translate(-528.44 -894.4)"/>
      <path class="f" d="M556.43,912.28c0.13,0.24.32,0.62,0.47,0.84-0.24,0-.62,0-0.85,0a4.32,4.32,0,0,0,.62-0.15c0-.21-0.17-0.49-0.25-0.7h0Z" transform="translate(-528.44 -894.4)"/>
      <path d="M556.05,913.13h0l0.18,0a2.35,2.35,0,0,0,.45-0.11c0-.13-0.1-0.3-0.16-0.46l-0.09-.24,0.12,0.2c0.12,0.22.25,0.48,0.36,0.64h-0.85Zm0.37-.85,0.1,0.23a3.81,3.81,0,0,1,.16.46,2.18,2.18,0,0,1-.45.12l-0.13,0c0.23,0,.57,0,0.8,0a6.73,6.73,0,0,1-.37-0.64l-0.11-.2h0Z" transform="translate(-528.44 -894.4)"/>
      <path class="f" d="M556.82,913l-0.69-.19,0.65,0.37,0.13,0Z" transform="translate(-528.44 -894.4)"/>
      <path d="M556.78,913.15h0l-0.65-.37,0.69,0.18,0.1,0.14-0.14,0h0Zm-0.65-.37,0.65,0.36,0.13,0-0.1-.13-0.69-.19h0Z" transform="translate(-528.44 -894.4)"/>
      <path class="f" d="M556.5,912.38c0.13,0.24.33,0.62,0.47,0.84-0.24,0-.62,0-0.85,0a4.31,4.31,0,0,0,.63-0.15c0-.21-0.18-0.48-0.25-0.7h0Z" transform="translate(-528.44 -894.4)"/>
      <path d="M556.13,913.23h0l0.18,0a2.46,2.46,0,0,0,.44-0.11,4.48,4.48,0,0,0-.17-0.46l-0.09-.23,0.13,0.22c0.12,0.21.25,0.46,0.36,0.62h-0.26l-0.58,0h0Zm0.37-.85,0.1,0.22a4,4,0,0,1,.16.47,2.39,2.39,0,0,1-.45.12l-0.13,0c0.23,0,.57,0,0.8,0a6.32,6.32,0,0,1-.36-0.61l-0.12-.22h0Z" transform="translate(-528.44 -894.4)"/>
      <path class="f" d="M556.91,913l-0.64-.38,0.56,0.54H557Z" transform="translate(-528.44 -894.4)"/>
      <path d="M557,913.19h-0.15l-0.56-.54,0.64,0.38,0.07,0.16h0Zm-0.71-.54,0.56,0.53H557l-0.06-.15h0l-0.64-.38h0Z" transform="translate(-528.44 -894.4)"/>
      <path class="f" d="M556.55,912.44c0.15,0.22.38,0.58,0.55,0.78-0.24,0-.61.08-0.83,0.12a4.4,4.4,0,0,0,.6-0.24c-0.07-.2-0.22-0.46-0.31-0.67h0Z" transform="translate(-528.44 -894.4)"/>
      <path d="M556.27,913.35h0l0.17-.06a2.48,2.48,0,0,0,.43-0.18,4.22,4.22,0,0,0-.21-0.44l-0.11-.23,0.13,0.18c0.14,0.21.3,0.45,0.42,0.6-0.23,0-.59.08-0.81,0.12h0Zm0.28-.91c0,0.07.08,0.14,0.12,0.22a3.45,3.45,0,0,1,.2.44,2.35,2.35,0,0,1-.43.18l-0.12,0c0.23,0,.56-0.1.78-0.11a5.85,5.85,0,0,1-.43-0.59l-0.12-.19h0Z" transform="translate(-528.44 -894.4)"/>
      <polygon class="f" points="28.52 18.69 27.82 18.67 28.51 18.87 28.63 18.8 28.52 18.69"/>
      <path d="M557,913.27l-0.69-.2h0.68l-0.68,0,0.68,0.19,0.12-.07,0,0,0,0-0.12.08h0Z" transform="translate(-528.44 -894.4)"/>
      <polygon class="f" points="28.92 15.33 29.41 15.25 28.92 15.26 28.83 15.3 28.92 15.33"/>
      <path d="M557.36,909.73l-0.08,0,0.09-.05h0.5l-0.5.09h0Zm0.5-.09-0.49,0-0.08,0,0.08,0,0.5-.08h0Z" transform="translate(-528.44 -894.4)"/>
      <path class="f" d="M557.63,909.83l-0.51-.15,0.54-.24c-0.11.07-.27,0.16-0.36,0.23a2.93,2.93,0,0,0,.33.16h0Z" transform="translate(-528.44 -894.4)"/>
      <path d="M557.63,909.84l-0.13,0-0.38-.11,0.53-.25h0c-0.14.08-.37,0.19-0.53,0.25a2.78,2.78,0,0,1,.38.1l0.07,0-0.05,0-0.22-.11a1.69,1.69,0,0,1,.25-0.17l0.1-.06-0.1.07-0.25.16,0.22,0.1,0.11,0.05h0Z" transform="translate(-528.44 -894.4)"/>
      <polygon class="f" points="28.9 15.35 29.38 15.22 28.88 15.28 28.8 15.33 28.9 15.35"/>
      <path d="M557.34,909.75l-0.09,0,0.07-.06,0.5-.06-0.48.14h0Zm0.48-.14-0.5.07-0.07.05h0.09l0.48-.13h0Z" transform="translate(-528.44 -894.4)"/>
      <path class="f" d="M557.66,909.87c-0.17,0-.43,0-0.6-0.05,0.13-.11.3-0.3,0.41-0.41a3.37,3.37,0,0,0-.24.35c0.11,0,.29.07,0.42,0.11h0Z" transform="translate(-528.44 -894.4)"/>
      <path d="M557.66,909.87h-0.14l-0.45,0,0.4-.42h0a4.94,4.94,0,0,1-.4.41,3.42,3.42,0,0,1,.45,0h0.08l-0.09,0-0.28-.07a1.52,1.52,0,0,1,.16-0.25l0.07-.1-0.06.1a1.85,1.85,0,0,0-.16.24l0.27,0.07,0.15,0h0Z" transform="translate(-528.44 -894.4)"/>
      <polygon class="f" points="28.72 15.38 29.22 15.33 28.73 15.31 28.64 15.35 28.72 15.38"/>
      <path d="M557.16,909.78l-0.08,0,0.09,0h0.49l-0.5.07h0Z" transform="translate(-528.44 -894.4)"/>
      <path class="f" d="M557.53,909.89l-0.54-.1,0.49-.27a3.44,3.44,0,0,0-.32.25c0.09,0,.26.09,0.37,0.13h0Z" transform="translate(-528.44 -894.4)"/>
      <path d="M557.53,909.89l-0.14,0-0.4-.07,0.49-.28h0a4.92,4.92,0,0,1-.48.28,3.1,3.1,0,0,1,.4.06h0.07l-0.05,0-0.25-.09a1.56,1.56,0,0,1,.22-0.18l0.09-.06-0.08.07a2,2,0,0,0-.22.17l0.24,0.08,0.12,0h0Z" transform="translate(-528.44 -894.4)"/>
      <polygon class="f" points="28.67 15.38 29.11 15.19 28.63 15.31 28.57 15.37 28.67 15.38"/>
      <path d="M557.12,909.78H557l0.05-.07,0.49-.13-0.44.2h0Zm0.44-.2-0.48.13-0.05.06h0.1l0.44-.19h0Z" transform="translate(-528.44 -894.4)"/>
      <path class="f" d="M557.52,909.95a4.77,4.77,0,0,0-.45-0.18c0.1-.09.24-0.25,0.32-0.35a2.52,2.52,0,0,0-.19.32,3.69,3.69,0,0,0,.32.21h0Z" transform="translate(-528.44 -894.4)"/>
      <path d="M557.52,909.95l-0.1,0-0.35-.14,0.31-.35h0a3.82,3.82,0,0,1-.3.34,2.39,2.39,0,0,1,.35.13l0,0-0.06,0-0.21-.14a1.27,1.27,0,0,1,.13-0.24l0-.07,0,0.07a1.6,1.6,0,0,0-.13.23l0.21,0.13,0.11,0.07h0Z" transform="translate(-528.44 -894.4)"/>
      <polygon class="f" points="28.7 15.41 29.04 15.26 28.67 15.31 28.62 15.38 28.7 15.41"/>
      <path d="M557.14,909.81l-0.08,0,0-.07,0.38-.05-0.34.16h0Zm0.34-.16-0.37.06,0,0.06,0.07,0,0.34-.15h0Z" transform="translate(-528.44 -894.4)"/>
      <path class="f" d="M556.85,913h-0.71l0.72,0.18,0.12-.08Z" transform="translate(-528.44 -894.4)"/>
      <path d="M556.86,913.21l-0.72-.18h0.71l0.13,0.11-0.12.09h0Zm0-.18h-0.71l0.72,0.17,0.12-.08-0.13-.1h0Z" transform="translate(-528.44 -894.4)"/>
      <path class="f" d="M557,913.07l-0.72-.17,0.69,0.34,0.14,0Z" transform="translate(-528.44 -894.4)"/>
      <path d="M557,913.24h0l-0.69-.34,0.72,0.16,0.11,0.13-0.14.05h0Zm-0.69-.34,0.69,0.33,0.13,0-0.11-.12h0l-0.72-.17h0Z" transform="translate(-528.44 -894.4)"/>
      <polygon class="f" points="28.66 18.72 27.94 18.68 28.66 18.9 28.78 18.83 28.66 18.72"/>
      <path d="M557.1,913.3l-0.72-.22,0.71,0,0.13,0.11-0.12.08h0Zm-0.72-.21,0.72,0.21,0.12-.07-0.12-.1-0.72,0h0Z" transform="translate(-528.44 -894.4)"/>
      <path class="f" d="M556.65,912.61c0.19,0.21.46,0.53,0.66,0.71-0.24,0-.6.13-0.83,0.19a4.37,4.37,0,0,0,.57-0.29c-0.1-.19-0.29-0.43-0.41-0.62h0Z" transform="translate(-528.44 -894.4)"/>
      <path d="M556.48,913.52h0l0.16-.08a2.33,2.33,0,0,0,.41-0.21,4.61,4.61,0,0,0-.27-0.41l-0.14-.21,0.15,0.16c0.17,0.19.37,0.41,0.52,0.55-0.23,0-.57.13-0.8,0.19h0Zm0.16-.91,0.15,0.2a4,4,0,0,1,.27.42,2.19,2.19,0,0,1-.41.22l-0.12.05c0.22-.06.55-0.14,0.78-0.18a6.88,6.88,0,0,1-.52-0.55l-0.14-.16h0Z" transform="translate(-528.44 -894.4)"/>
      <polygon class="f" points="28.76 18.75 28.04 18.52 28.71 18.92 28.86 18.89 28.76 18.75"/>
      <path d="M557.16,913.32h0l-0.67-.4,0.72,0.23,0.1,0.14-0.14,0h0Zm-0.67-.4,0.68,0.39,0.14,0-0.1-.13h0l-0.71-.23h0Z" transform="translate(-528.44 -894.4)"/>
      <path class="f" d="M556.71,912.65c0.2,0.19.51,0.48,0.72,0.64-0.23.07-.57,0.21-0.79,0.3a4.4,4.4,0,0,0,.53-0.36c-0.11-.18-0.32-0.4-0.46-0.58h0Z" transform="translate(-528.44 -894.4)"/>
      <path d="M556.65,913.6h0l0.15-.1a2.65,2.65,0,0,0,.38-0.26,4.68,4.68,0,0,0-.3-0.38l-0.16-.2,0.18,0.16c0.18,0.17.39,0.36,0.55,0.48-0.23.07-.56,0.21-0.77,0.3h0Zm0.06-.94,0.17,0.19a3.61,3.61,0,0,1,.3.38,2.15,2.15,0,0,1-.38.27l-0.11.07a7.68,7.68,0,0,1,.74-0.28,6.11,6.11,0,0,1-.55-0.47l-0.17-.16h0Z" transform="translate(-528.44 -894.4)"/>
      <path class="f" d="M557.26,913.2l-0.68.13,0.72,0,0.1-.1Z" transform="translate(-528.44 -894.4)"/>
      <path d="M557.3,913.38h0l-0.72,0,0.68-.14,0.14,0.08-0.1.11h0Zm0-.18-0.68.13,0.71,0,0.1-.1-0.14-.07h0Z" transform="translate(-528.44 -894.4)"/>
      <path class="f" d="M557.12,913.15l-0.71.05,0.73,0.13,0.11-.08Z" transform="translate(-528.44 -894.4)"/>
      <path d="M557.14,913.34l-0.73-.12,0.71-.06,0.14,0.1-0.11.09h0Zm0-.18-0.71.05,0.73,0.12,0.11-.08-0.13-.09h0Z" transform="translate(-528.44 -894.4)"/>
      <path class="f" d="M557.25,913.19l-0.73-.12,0.72,0.29,0.13-.05Z" transform="translate(-528.44 -894.4)"/>
      <path d="M557.23,913.37h0l-0.72-.29,0.73,0.11,0.12,0.12-0.13.06h0Zm-0.72-.29,0.72,0.28,0.13-.05-0.12-.11h0l-0.73-.12h0Z" transform="translate(-528.44 -894.4)"/>
      <path class="f" d="M557.37,913.23h-0.72l0.73,0.17,0.12-.08Z" transform="translate(-528.44 -894.4)"/>
      <path d="M557.38,913.41l-0.73-.16,0.72,0,0.13,0.1-0.12.08h0Zm0-.18h-0.72l0.73,0.16,0.12-.08-0.13-.09h0Z" transform="translate(-528.44 -894.4)"/>
      <path class="f" d="M556.88,912.76c0.2,0.19.51,0.5,0.71,0.67-0.24.05-.59,0.17-0.81,0.25a4.36,4.36,0,0,0,.55-0.32c-0.11-.18-0.32-0.41-0.46-0.59h0Z" transform="translate(-528.44 -894.4)"/>
      <path d="M556.78,913.68h0l0.16-.09a2.49,2.49,0,0,0,.39-0.23c-0.07-.12-0.19-0.26-0.3-0.39l-0.16-.2,0.18,0.16c0.18,0.18.39,0.38,0.54,0.5-0.23.06-.58,0.18-0.8,0.25h0Zm0.09-.92L557,913a3.59,3.59,0,0,1,.3.39,2.14,2.14,0,0,1-.39.24l-0.12.06c0.22-.07.54-0.18,0.76-0.23a6.26,6.26,0,0,1-.54-0.5l-0.17-.16h0Z" transform="translate(-528.44 -894.4)"/>
      <path class="f" d="M557.47,913.26l-0.73-.18,0.7,0.35,0.14,0Z" transform="translate(-528.44 -894.4)"/>
      <path d="M557.44,913.43l-0.7-.35,0.73,0.18,0.11,0.13-0.14,0h0Zm-0.7-.35,0.71,0.34,0.14,0-0.11-.12h0l-0.73-.18h0Z" transform="translate(-528.44 -894.4)"/>
      <path class="f" d="M556.95,912.8c0.22,0.17.54,0.45,0.77,0.59-0.22.08-.56,0.25-0.76,0.35a4.22,4.22,0,0,0,.5-0.39c-0.13-.17-0.35-0.38-0.51-0.55h0Z" transform="translate(-528.44 -894.4)"/>
      <path d="M557,913.74h0l0.15-.11a2.4,2.4,0,0,0,.35-0.28,4.47,4.47,0,0,0-.33-0.36l-0.17-.18,0.19,0.14c0.19,0.16.42,0.34,0.58,0.44-0.21.09-.52,0.24-0.73,0.34l0,0h0Zm0-.94,0.18,0.17a3.73,3.73,0,0,1,.33.37,2.3,2.3,0,0,1-.35.29l-0.11.08c0.21-.1.51-0.25,0.72-0.33a6.27,6.27,0,0,1-.58-0.43l-0.19-.15h0Z" transform="translate(-528.44 -894.4)"/>
      <path class="f" d="M557.53,913.3l-0.67.18h0.72l0.1-.11Z" transform="translate(-528.44 -894.4)"/>
      <path d="M556.86,913.48h0l0.67-.18,0.15,0.07-0.09.11h-0.72Zm0.67-.18-0.64.17h0.69l0.09-.1-0.14-.07h0Z" transform="translate(-528.44 -894.4)"/>
      <polygon class="h" points="30.23 17.98 29.46 17.46 28.7 17.98 28.98 17.14 28.31 16.61 29.18 16.61 29.46 15.77 29.75 16.61 30.61 16.61 29.94 17.14 30.23 17.98"/>
      <path d="M558.68,912.39l-0.78-.54-0.76.53,0.28-.85-0.67-.52h0.86l0.28-.84,0.3,0.85h0.86l-0.67.54,0.29,0.85h0Zm-0.78-2.23-0.28.84h-0.87l0.67,0.52-0.29.85,0.76-.53,0.76,0.52-0.28-.83L559,911h-0.86l-0.29-.85h0Z" transform="translate(-528.44 -894.4)"/>
      <path class="i" d="M560.76,912.25l0.25,0.09,0.41-.08,0,0.08-0.21,0-0.12,0,0.08,0.09,0.13,0.16,0,0.08-0.26-.33-0.25-.09Z" transform="translate(-528.44 -894.4)"/>
      <path class="i" d="M561.45,911.31v0.07l-0.36,0H561a0.17,0.17,0,0,1-.1-0.06,0.21,0.21,0,0,1,0-.12,0.25,0.25,0,0,1,0-.13,0.17,0.17,0,0,1,.08-0.08l0.15,0,0.36,0V911l-0.36,0-0.12,0a0.1,0.1,0,0,0-.05.05,0.18,0.18,0,0,0,0,.19,0.29,0.29,0,0,0,.16,0Z" transform="translate(-528.44 -894.4)"/>
      <path class="i" d="M561,910.59H561l0,0.23-0.22,0-0.09-.09a0.29,0.29,0,0,1,0-.11,0.31,0.31,0,0,1,0-.15,0.26,0.26,0,0,1,.09-0.12,0.4,0.4,0,0,1,.16-0.07,0.46,0.46,0,0,1,.17,0,0.27,0.27,0,0,1,.13.07,0.29,0.29,0,0,1,.07.13,0.31,0.31,0,0,1,0,.11,0.16,0.16,0,0,1,0,.09,0.25,0.25,0,0,1-.09.06l0-.06,0.07,0a0.12,0.12,0,0,0,0-.06,0.17,0.17,0,0,0,0-.08,0.2,0.2,0,0,0,0-.08l-0.06,0-0.07,0H561a0.37,0.37,0,0,0-.13.05,0.18,0.18,0,0,0-.07.09,0.19,0.19,0,0,0,0,.11,0.21,0.21,0,0,0,0,.09l0.06,0.06,0.11,0Z" transform="translate(-528.44 -894.4)"/>
      <polygon class="i" points="29.91 14.23 30.02 13.62 30.09 13.63 29.99 14.17 30.26 14.22 30.25 14.29 29.91 14.23"/>
      <polygon class="i" points="29.3 14.19 29.3 13.57 29.7 13.57 29.7 13.64 29.38 13.64 29.38 13.83 29.68 13.83 29.68 13.9 29.38 13.9 29.38 14.11 29.71 14.11 29.71 14.19 29.3 14.19"/>
      <path class="i" d="M556,909l0.07,0a0.27,0.27,0,0,1,0,.17,0.22,0.22,0,0,1-.07.13,0.23,0.23,0,0,1-.14.06,0.24,0.24,0,0,1-.14,0,0.45,0.45,0,0,1-.13-0.11,0.39,0.39,0,0,1-.09-0.15,0.26,0.26,0,0,1,0-.14,0.24,0.24,0,0,1,.08-0.12,0.21,0.21,0,0,1,.14-0.05,0.26,0.26,0,0,1,.15.05l0,0.06a0.21,0.21,0,0,0-.11,0,0.13,0.13,0,0,0-.09,0,0.17,0.17,0,0,0-.06.09,0.21,0.21,0,0,0,0,.11,0.43,0.43,0,0,0,.07.1l0.1,0.09a0.17,0.17,0,0,0,.11,0,0.16,0.16,0,0,0,.09,0,0.14,0.14,0,0,0,.05-0.1,0.21,0.21,0,0,0,0-.13h0Z" transform="translate(-528.44 -894.4)"/>
      <rect class="i" x="555.53" y="908.97" width="0.07" height="0.62" transform="translate(-1021 -177.17) rotate(-48.19)"/>
      <polygon class="i" points="27.03 15.47 26.54 15.1 26.58 15.04 27.01 15.37 27.18 15.16 27.24 15.2 27.03 15.47"/>
      <path class="i" d="M554.55,910.24l0-.07,0.33,0.13,0.13,0.07a0.18,0.18,0,0,1,.06.1,0.23,0.23,0,0,1,0,.13,0.23,0.23,0,0,1-.07.11,0.17,0.17,0,0,1-.11,0l-0.15,0-0.33-.13,0-.07,0.33,0.13,0.12,0,0.07,0a0.17,0.17,0,0,0,0-.07,0.15,0.15,0,0,0,0-.12,0.27,0.27,0,0,0-.13-0.09Z" transform="translate(-528.44 -894.4)"/>
      <polygon class="i" points="26.47 17.34 25.85 17.35 25.84 16.95 25.92 16.95 25.92 17.27 26.11 17.27 26.11 16.97 26.18 16.97 26.18 17.27 26.39 17.27 26.39 16.93 26.46 16.93 26.47 17.34"/>
      <path class="i" d="M557.23,908.67l-0.12-.61,0.19,0h0.1l0.09,0a0.25,0.25,0,0,1,.08.09,0.51,0.51,0,0,1,.05.14,0.4,0.4,0,0,1,0,.13,0.27,0.27,0,0,1,0,.1,0.17,0.17,0,0,1,0,.06l-0.06,0-0.08,0Zm0.06-.09,0.12,0,0.08,0,0,0a0.19,0.19,0,0,0,0-.09,0.46,0.46,0,0,0,0-.12,0.28,0.28,0,0,0-.06-0.14,0.14,0.14,0,0,0-.08-0.06h-0.1l-0.11,0Z" transform="translate(-528.44 -894.4)"/>
      <path class="i" d="M559.23,908.92l0.29-.55,0.18,0.1,0.07,0a0.14,0.14,0,0,1,0,.06,0.13,0.13,0,0,1,0,.07,0.19,0.19,0,0,1,0,.08,0.2,0.2,0,0,1-.1.1,0.2,0.2,0,0,1-.17,0l-0.12-.07-0.12.22Zm0.21-.26,0.13,0.07a0.13,0.13,0,0,0,.1,0,0.11,0.11,0,0,0,.07-0.06,0.12,0.12,0,0,0,0-.07,0.07,0.07,0,0,0,0-.05l-0.06,0-0.12-.06Z" transform="translate(-528.44 -894.4)"/>
      <path class="i" d="M559.55,909.08l0.57-.32,0.06,0.05-0.25.61-0.06-.05,0.08-.18-0.17-.15-0.17.1Zm0.29-.08,0.14,0.12L560,909l0.06-.12-0.1.07Z" transform="translate(-528.44 -894.4)"/>
      <path class="i" d="M560,909.5l0.49-.38,0.15,0.19a0.32,0.32,0,0,1,.06.1,0.15,0.15,0,0,1,0,.09,0.2,0.2,0,0,1-.06.07,0.16,0.16,0,0,1-.11,0,0.19,0.19,0,0,1-.12-0.06,0.17,0.17,0,0,1,0,.05,0.46,0.46,0,0,1,0,.1l-0.08.18-0.05-.07,0.06-.14,0-.09a0.13,0.13,0,0,0,0-.05,0.11,0.11,0,0,0,0,0l0,0-0.05-.07-0.22.17Zm0.32-.15,0.1,0.12,0.05,0.05h0.06l0.05,0a0.1,0.1,0,0,0,0-.07,0.12,0.12,0,0,0,0-.09l-0.11-.14Z" transform="translate(-528.44 -894.4)"/>
      <path class="i" d="M560.32,909.92l0.65-.12,0,0.07-0.43.5,0-.07,0.13-.15-0.11-.2-0.19,0Zm0.3,0,0.09,0.16,0.12-.13,0.09-.1-0.12,0Z" transform="translate(-528.44 -894.4)"/>
      <path class="i" d="M560.87,911.53l0.59,0.27v0.08l-0.64.16V912l0.19,0,0-.23-0.18-.08v-0.08Zm0.24,0.18,0,0.19,0.18,0,0.13,0-0.11,0Z" transform="translate(-528.44 -894.4)"/>
      <path class="i" d="M555,912.31l-0.61.13-0.05-.24a0.3,0.3,0,0,1,0-.11,0.13,0.13,0,0,1,0-.07l0.09,0a0.17,0.17,0,0,1,.12,0,0.18,0.18,0,0,1,.08.1l0,0,0.07-.08,0.14-.13,0,0.09-0.11.1-0.07.07,0,0a0.14,0.14,0,0,0,0,0v0l0,0.08,0.27-.06Zm-0.35,0,0-.15a0.24,0.24,0,0,0,0-.07l0,0h-0.06a0.09,0.09,0,0,0-.07,0,0.13,0.13,0,0,0,0,.09l0,0.17Z" transform="translate(-528.44 -894.4)"/>
      <path class="i" d="M554.93,911.19l-0.62-.05,0-.21a0.43,0.43,0,0,1,0-.08,0.13,0.13,0,0,1,0-.07l0.06,0h0.09a0.23,0.23,0,0,1,.13.06,0.2,0.2,0,0,1,0,.17v0.14l0.25,0v0.07Zm-0.32-.1v-0.14a0.14,0.14,0,0,0,0-.1,0.12,0.12,0,0,0-.08,0h-0.07a0.07,0.07,0,0,0,0,0,0.23,0.23,0,0,0,0,.07v0.14Z" transform="translate(-528.44 -894.4)"/>
      <path class="i" d="M555.19,910.27l-0.52-.35,0.11-.17a0.21,0.21,0,0,1,.07-0.07,0.12,0.12,0,0,1,.08,0l0.08,0a0.14,0.14,0,0,1,.05.06,0.14,0.14,0,0,1,0,.08,0.15,0.15,0,0,1,.09,0,0.15,0.15,0,0,1,.09,0l0.06,0.06a0.15,0.15,0,0,1,0,.06,0.13,0.13,0,0,1,0,.07,0.25,0.25,0,0,1,0,.08Zm-0.26-.26,0.07-.1,0-.06a0.1,0.1,0,0,0,0-.05l0,0-0.05,0h0l-0.05.06-0.06.09Zm0.24,0.16,0.08-.12,0,0a0.13,0.13,0,0,0,0,0,0.07,0.07,0,0,0,0,0l0,0-0.06,0-0.05,0-0.05.06-0.07.11Z" transform="translate(-528.44 -894.4)"/>
      <path class="i" d="M556.21,909.08l-0.15-.64,0.07,0,0.52,0.4-0.07,0-0.15-.12-0.2.12,0,0.19Zm0-.3,0.16-.1-0.14-.12-0.1-.09,0,0.12Z" transform="translate(-528.44 -894.4)"/>
    </g>
  </g>
</svg>
