<svg xmlns="http://www.w3.org/2000/svg" xmlns:xlink="http://www.w3.org/1999/xlink" viewBox="0 0 58.92 34.37">
  <defs>
    <style>
      .a {
        fill: none;
      }

      .b {
        clip-path: url(#a);
      }

      .c {
        fill: #fff;
      }

      .d {
        fill: #1a237b;
      }

      .e {
        fill: #bd0034;
      }

      .f {
        fill: #f0e030;
      }

      .g {
        fill: #437428;
      }

      .h {
        fill: #406e3d;
      }

      .i {
        fill: #376bc3;
      }

      .j {
        fill: #e3e3e3;
      }

      .k {
        fill: #91857c;
      }
    </style>
    <clipPath id="a" transform="translate(-739.39 -894.4)">
      <rect class="a" x="739.39" y="894.4" width="58.92" height="34.37"/>
    </clipPath>
  </defs>
  <title>Pitcairn_Islands</title>
  <g class="b">
    <path class="c" d="M773.76,913.41h0Z" transform="translate(-739.39 -894.4)"/>
    <polygon class="d" points="29.46 0 29.46 1.1 29.46 1.47 29.46 1.65 22.93 4.91 29.46 4.91 29.46 5.89 29.46 7.37 29.46 8.84 29.46 9.82 22.93 9.82 29.46 13.08 29.46 13.63 29.46 14.73 29.46 15.1 28 15.1 27.25 15.1 26.9 15.1 17.19 10.24 17.19 15.1 16.2 15.1 14.73 15.1 13.26 15.1 12.28 15.1 12.28 10.24 2.56 15.1 1.46 15.1 0 15.1 0 34.37 58.92 34.37 58.92 0 29.46 0"/>
    <polygon class="d" points="0 9.82 0 13.08 6.53 9.82 0 9.82"/>
    <polygon class="d" points="0 4.91 6.53 4.91 0 1.65 0 4.91"/>
    <polygon class="d" points="12.28 0 3.29 0 12.28 4.49 12.28 0"/>
    <polygon class="d" points="17.19 0 17.19 4.49 26.17 0 17.19 0"/>
    <polygon class="c" points="6.53 9.82 0 13.08 0 13.26 6.88 9.82 6.53 9.82"/>
    <polygon class="c" points="21.84 9.82 29.46 13.63 29.46 13.08 22.93 9.82 21.84 9.82"/>
    <polygon class="c" points="0 1.65 6.53 4.91 7.62 4.91 0 1.1 0 1.65"/>
    <polygon class="c" points="12.28 9.82 12.02 9.82 1.46 15.1 2.56 15.1 12.28 10.24 12.28 9.82"/>
    <polygon class="c" points="12.28 4.49 3.29 0 2.95 0 12.28 4.66 12.28 4.49"/>
    <polygon class="c" points="22.59 4.91 22.93 4.91 29.46 1.65 29.46 1.47 22.59 4.91"/>
    <polygon class="c" points="17.19 10.07 17.19 10.24 26.9 15.1 27.25 15.1 17.19 10.07"/>
    <polygon class="c" points="17.19 4.91 17.44 4.91 27.27 0 26.17 0 17.19 4.49 17.19 4.91"/>
    <polygon class="e" points="9.82 9.82 0 14.73 0 15.1 1.46 15.1 12.02 9.82 9.82 9.82"/>
    <polygon class="e" points="19.64 9.82 29.46 14.73 29.46 13.63 21.84 9.82 19.64 9.82"/>
    <polygon class="e" points="0 1.1 7.62 4.91 9.82 4.91 0 0 0 1.1"/>
    <polygon class="e" points="19.64 4.91 29.46 0 27.27 0 17.44 4.91 19.64 4.91"/>
    <polygon class="c" points="17.44 9.82 17.19 9.82 17.19 10.07 27.25 15.1 28 15.1 17.44 9.82"/>
    <polygon class="c" points="12.02 4.91 12.28 4.91 12.28 4.66 2.95 0 2.2 0 12.02 4.91"/>
    <polygon class="c" points="22.59 4.91 29.46 1.47 29.46 1.1 21.84 4.91 22.59 4.91"/>
    <polygon class="c" points="6.88 9.82 0 13.26 0 13.63 7.62 9.82 6.88 9.82"/>
    <polygon class="c" points="0 0 0 0 9.82 4.91 12.02 4.91 2.2 0 0 0"/>
    <polygon class="c" points="29.46 1.1 29.46 0 19.64 4.91 21.84 4.91 29.46 1.1"/>
    <polygon class="c" points="7.62 9.82 0 13.63 0 14.73 9.82 9.82 7.62 9.82"/>
    <polygon class="c" points="28 15.1 29.46 15.1 29.46 14.73 19.64 9.82 17.44 9.82 28 15.1"/>
    <polygon class="c" points="20.97 5.89 29.46 5.89 29.46 4.91 22.93 4.91 20.97 5.89"/>
    <polygon class="c" points="13.26 4.98 13.26 0 12.28 0 12.28 4.49 13.26 4.98"/>
    <polygon class="c" points="13.26 9.75 12.28 10.24 12.28 15.1 13.26 15.1 13.26 9.75"/>
    <polygon class="c" points="16.2 9.75 16.2 15.1 17.19 15.1 17.19 10.24 16.2 9.75"/>
    <polygon class="c" points="0 4.91 0 5.89 8.49 5.89 6.53 4.91 0 4.91"/>
    <polygon class="c" points="0 8.84 0 9.82 6.53 9.82 8.49 8.84 0 8.84"/>
    <polygon class="c" points="16.2 4.98 17.19 4.49 17.19 0 16.2 0 16.2 4.98"/>
    <polygon class="c" points="22.93 9.82 29.46 9.82 29.46 8.84 20.97 8.84 22.93 9.82"/>
    <polygon class="c" points="13.26 4.98 12.28 4.49 12.28 4.66 13.26 5.16 13.26 4.98"/>
    <polygon class="c" points="17.44 4.91 17.19 4.91 17.19 4.49 16.2 4.98 16.2 5.53 17.44 4.91"/>
    <polygon class="c" points="21.84 9.82 22.93 9.82 20.97 8.84 19.87 8.84 21.84 9.82"/>
    <polygon class="c" points="20.97 5.89 22.93 4.91 22.59 4.91 20.62 5.89 20.97 5.89"/>
    <polygon class="c" points="7.62 4.91 6.53 4.91 8.49 5.89 9.59 5.89 7.62 4.91"/>
    <polygon class="c" points="8.49 8.84 6.53 9.82 6.88 9.82 8.84 8.84 8.49 8.84"/>
    <polygon class="c" points="12.02 9.82 12.28 9.82 12.28 10.24 13.26 9.75 13.26 9.2 12.02 9.82"/>
    <polygon class="c" points="16.2 9.75 17.19 10.24 17.19 10.07 16.2 9.57 16.2 9.75"/>
    <polygon class="c" points="17.68 8.84 19.64 9.82 21.84 9.82 19.87 8.84 17.68 8.84"/>
    <polygon class="c" points="11.79 5.89 9.82 4.91 7.62 4.91 9.59 5.89 11.79 5.89"/>
    <polygon class="c" points="13.26 8.84 11.79 8.84 9.82 9.82 12.02 9.82 13.26 9.2 13.26 8.84"/>
    <polygon class="c" points="16.2 5.89 17.68 5.89 19.64 4.91 17.44 4.91 16.2 5.53 16.2 5.89"/>
    <polygon class="c" points="13.26 5.16 12.28 4.66 12.28 4.91 12.02 4.91 13.26 5.53 13.26 5.16"/>
    <polygon class="c" points="8.84 8.84 6.88 9.82 7.62 9.82 9.59 8.84 8.84 8.84"/>
    <polygon class="c" points="17.44 9.82 16.2 9.2 16.2 9.57 17.19 10.07 17.19 9.82 17.44 9.82"/>
    <polygon class="c" points="19.87 5.89 20.62 5.89 22.59 4.91 21.84 4.91 19.87 5.89"/>
    <polygon class="c" points="16.2 8.84 16.2 9.2 17.44 9.82 19.64 9.82 17.68 8.84 16.2 8.84"/>
    <polygon class="c" points="13.26 5.89 13.26 5.53 12.02 4.91 9.82 4.91 11.79 5.89 13.26 5.89"/>
    <polygon class="c" points="11.79 8.84 9.59 8.84 7.62 9.82 9.82 9.82 11.79 8.84"/>
    <polygon class="c" points="19.87 5.89 21.84 4.91 19.64 4.91 17.68 5.89 19.87 5.89"/>
    <polygon class="e" points="16.2 4.98 16.2 0 14.73 0 14.73 5.72 16.2 4.98"/>
    <polygon class="e" points="0 7.37 0 8.84 8.49 8.84 11.44 7.37 0 7.37"/>
    <polygon class="e" points="20.97 8.84 29.46 8.84 29.46 7.37 18.02 7.37 20.97 8.84"/>
    <polygon class="e" points="0 5.89 0 7.37 11.44 7.37 8.49 5.89 0 5.89"/>
    <polygon class="e" points="14.73 9.01 13.26 9.75 13.26 15.1 14.73 15.1 14.73 9.01"/>
    <polygon class="e" points="14.73 5.72 14.73 0 13.26 0 13.26 4.98 14.73 5.72"/>
    <polygon class="e" points="14.73 15.1 16.2 15.1 16.2 9.75 14.73 9.01 14.73 15.1"/>
    <polygon class="e" points="18.02 7.37 29.46 7.37 29.46 5.89 20.97 5.89 18.02 7.37"/>
    <polygon class="e" points="14.73 8.84 14.73 9.01 16.2 9.75 16.2 9.57 14.73 8.84"/>
    <polygon class="e" points="14.73 9.01 14.73 8.84 14.36 8.65 13.26 9.2 13.26 9.75 14.73 9.01"/>
    <polygon class="e" points="12.53 7.37 9.59 5.89 8.49 5.89 11.44 7.37 11.79 7.37 12.53 7.37"/>
    <polygon class="e" points="14.73 5.89 14.73 5.72 13.26 4.98 13.26 5.16 14.73 5.89"/>
    <polygon class="e" points="16.93 7.37 19.87 8.84 20.97 8.84 18.02 7.37 17.68 7.37 16.93 7.37"/>
    <polygon class="e" points="11.79 7.37 11.44 7.37 8.49 8.84 8.84 8.84 11.79 7.37"/>
    <polygon class="e" points="14.73 5.89 15.11 6.08 16.2 5.53 16.2 4.98 14.73 5.72 14.73 5.89"/>
    <polygon class="e" points="17.68 7.37 18.02 7.37 20.97 5.89 20.62 5.89 17.68 7.37"/>
    <polygon class="e" points="17.68 8.84 19.87 8.84 16.93 7.37 14.73 7.37 17.68 8.84"/>
    <polygon class="e" points="17.68 5.89 16.2 5.89 16.2 5.53 15.11 6.08 16.2 6.63 17.68 5.89"/>
    <polygon class="e" points="11.79 8.84 13.26 8.84 13.26 9.2 14.36 8.65 13.26 8.1 11.79 8.84"/>
    <polygon class="e" points="11.79 5.89 9.59 5.89 12.53 7.37 14.73 7.37 11.79 5.89"/>
    <polygon class="e" points="14.73 8.46 14.36 8.65 14.73 8.84 14.73 8.46"/>
    <polygon class="e" points="14.73 8.84 16.2 9.57 16.2 9.2 14.73 8.46 14.73 8.84"/>
    <polygon class="e" points="12.53 7.37 11.79 7.37 12.16 7.55 12.53 7.37"/>
    <polygon class="e" points="14.73 6.27 14.73 5.89 13.26 5.16 13.26 5.53 14.73 6.27"/>
    <polygon class="e" points="15.11 6.08 14.73 5.89 14.73 6.27 15.11 6.08"/>
    <polygon class="e" points="11.79 7.37 8.84 8.84 9.59 8.84 12.16 7.55 11.79 7.37"/>
    <polygon class="e" points="16.93 7.37 17.68 7.37 17.3 7.18 16.93 7.37"/>
    <polygon class="e" points="17.68 7.37 20.62 5.89 19.87 5.89 17.3 7.18 17.68 7.37"/>
    <polygon class="e" points="17.3 7.18 19.87 5.89 17.68 5.89 16.2 6.63 17.3 7.18"/>
    <polygon class="e" points="14.73 8.46 14.73 7.37 13.26 8.1 14.36 8.65 14.73 8.46"/>
    <polygon class="e" points="12.16 7.55 9.59 8.84 11.79 8.84 13.26 8.1 12.16 7.55"/>
    <polygon class="e" points="17.68 8.84 14.73 7.37 14.73 8.46 16.2 9.2 16.2 8.84 17.68 8.84"/>
    <polygon class="e" points="13.26 8.1 14.73 7.37 12.53 7.37 12.16 7.55 13.26 8.1"/>
    <polygon class="e" points="16.2 6.63 14.73 7.37 16.93 7.37 17.3 7.18 16.2 6.63"/>
    <polygon class="e" points="14.73 7.37 16.2 6.63 15.11 6.08 14.73 6.27 14.73 7.37"/>
    <polygon class="e" points="14.73 6.27 14.73 6.27 13.26 5.53 13.26 5.89 11.79 5.89 14.73 7.37 14.73 6.27"/>
    <g class="b">
      <path class="f" d="M778.7,911.85a4.11,4.11,0,0,0-1.37,2c-0.41,2-1,2.42-1.81,2,0,1.06.93,1.14,1.34,0.52A3.35,3.35,0,0,0,778,919c0.34,0.31.41,0.1,0.24-.25a16.35,16.35,0,0,0-.49-2.09c0.52,0.38,1.29.16,1.23-.87-0.67.39-1.34,0.38-1.41-.55a4.73,4.73,0,0,1,1.1-3.37" transform="translate(-739.39 -894.4)"/>
      <path d="M778.29,919.14A0.48,0.48,0,0,1,778,919a3.35,3.35,0,0,1-1.18-2.56,0.82,0.82,0,0,1-.65.36,0.77,0.77,0,0,1-.69-0.93v0h0a1.19,1.19,0,0,0,.52.15h0c0.57,0,1-.66,1.27-2.13a4.14,4.14,0,0,1,1.38-2l0,0a4.74,4.74,0,0,0-1.09,3.36,0.69,0.69,0,0,0,.65.78,1.52,1.52,0,0,0,.74-0.24h0v0a1.1,1.1,0,0,1-.23.84,0.67,0.67,0,0,1-.5.21,0.89,0.89,0,0,1-.47-0.14,5,5,0,0,1,.32,1.32,3.12,3.12,0,0,0,.15.72,0.47,0.47,0,0,1,.07.38,0.08,0.08,0,0,1-.07,0m-1.42-2.81v0A3.33,3.33,0,0,0,778,919a0.45,0.45,0,0,0,.25.15,0.05,0.05,0,0,0,0,0,0.47,0.47,0,0,0-.07-0.35,3.18,3.18,0,0,1-.15-0.73,4.75,4.75,0,0,0-.34-1.36l0-.05,0,0a0.88,0.88,0,0,0,.5.17,0.64,0.64,0,0,0,.48-0.2,1.06,1.06,0,0,0,.23-0.8,1.53,1.53,0,0,1-.73.23,0.7,0.7,0,0,1-.68-0.81,5.09,5.09,0,0,1,.88-3.14,3.83,3.83,0,0,0-1.13,1.79c-0.31,1.49-.71,2.15-1.3,2.15h0a1.18,1.18,0,0,1-.52-0.14,0.74,0.74,0,0,0,.66.88,0.8,0.8,0,0,0,.65-0.38Z" transform="translate(-739.39 -894.4)"/>
      <path class="f" d="M777.91,904a1.19,1.19,0,0,0-.33-1,1,1,0,0,0-1.5.07c-0.6-.33-0.92.83-1.61,0.64,0.11,0.38.29,0.54,0.64,0.41-0.36.33,0,.72-0.42,1.11a0.8,0.8,0,0,0,1.14-.91,0.7,0.7,0,0,0,1-.05,0.51,0.51,0,0,1-.24-0.82,0.75,0.75,0,0,1,1.33.61" transform="translate(-739.39 -894.4)"/>
      <path d="M775.09,905.24a1.36,1.36,0,0,1-.41-0.07h0l0,0a0.73,0.73,0,0,0,.23-0.59,0.68,0.68,0,0,1,.15-0.47c-0.29.09-.48,0-0.6-0.44v0h0l0.15,0h0a1.06,1.06,0,0,0,.66-0.37,1,1,0,0,1,.58-0.34,0.48,0.48,0,0,1,.21.05,1.17,1.17,0,0,1,.79-0.37,1.09,1.09,0,0,1,.72.31,1.21,1.21,0,0,1,.33,1.06h0a0.88,0.88,0,0,0-.2-0.68,0.71,0.71,0,0,0-.53-0.22,0.63,0.63,0,0,0-.57.3,0.67,0.67,0,0,0-.07.55,0.46,0.46,0,0,0,.31.25h0v0a0.67,0.67,0,0,1-.52.24h0a0.74,0.74,0,0,1-.47-0.17,1,1,0,0,1-.23.76,0.69,0.69,0,0,1-.52.21m-0.38-.09a0.82,0.82,0,0,0,.88-0.13,1,1,0,0,0,.22-0.77v0l0,0a0.71,0.71,0,0,0,.48.18,0.65,0.65,0,0,0,.49-0.21,0.48,0.48,0,0,1-.3-0.26,0.7,0.7,0,0,1,.07-0.57,0.66,0.66,0,0,1,.6-0.32,0.74,0.74,0,0,1,.55.23,0.76,0.76,0,0,1,.19.36,1,1,0,0,0-.33-0.7,1.06,1.06,0,0,0-.7-0.3,1.14,1.14,0,0,0-.78.37h0a0.44,0.44,0,0,0-.21-0.06,0.94,0.94,0,0,0-.56.33,1.07,1.07,0,0,1-.68.38h0l-0.13,0a0.46,0.46,0,0,0,.4.42,0.57,0.57,0,0,0,.21,0l0.07,0-0.06.05a0.62,0.62,0,0,0-.18.5,0.75,0.75,0,0,1-.22.6" transform="translate(-739.39 -894.4)"/>
      <path class="g" d="M779.68,909.67c-0.87.46-2.45,0.26-2.6-.87a1.82,1.82,0,0,1,1.24-1.78,0.49,0.49,0,0,1,.67.65,0.74,0.74,0,0,0,.38-1.11,1.63,1.63,0,0,0,1.55-1.18,2.46,2.46,0,0,1-1.4,0,0.85,0.85,0,0,0,.11-0.71c-0.55.57-1.36,0.31-2.42,2,0.16-.57.47-1.72,0.65-2.47a2,2,0,0,0,0-.23,0.75,0.75,0,0,0-1.33-.61,1.32,1.32,0,0,1,0,1.19,18.33,18.33,0,0,1-.57,2.6c-0.07-.77-0.57-0.82-0.67-1.19a0.6,0.6,0,0,0-.2.54c-0.18-.2-0.8,0-1-0.24a0.94,0.94,0,0,0,.55,1.19,5.13,5.13,0,0,1-.55.3,1.56,1.56,0,0,0,1.13.6,1.09,1.09,0,0,1,1,.69c0.41,0.82,2,1.35,3.43.61" transform="translate(-739.39 -894.4)"/>
      <path d="M778.22,910h0a2.22,2.22,0,0,1-2-1,1.08,1.08,0,0,0-1-.69,1.59,1.59,0,0,1-1.14-.61l0,0h0a0.39,0.39,0,0,0,.29-0.15,0.49,0.49,0,0,1,.22-0.14,0.94,0.94,0,0,1-.52-1.19v0a0.63,0.63,0,0,0,.52.15h0.12a0.64,0.64,0,0,1,.35.06,0.61,0.61,0,0,1,.21-0.51h0v0a0.76,0.76,0,0,0,.24.34,1.17,1.17,0,0,1,.42.79,17.63,17.63,0,0,0,.51-2.32l0-.22,0.05-.26a1,1,0,0,0-.08-0.92h0a0.65,0.65,0,0,1,.6-0.32,0.73,0.73,0,0,1,.55.23,0.91,0.91,0,0,1,.21.7,1.62,1.62,0,0,1,0,.23c-0.17.72-.46,1.79-0.63,2.38a3.5,3.5,0,0,1,1.71-1.48,2,2,0,0,0,.66-0.4l0,0v0a0.88,0.88,0,0,1-.1.7l0.37,0c0.19,0,.39,0,0.55,0a0.62,0.62,0,0,0,.44-0.12l0,0,0,0.06a1.65,1.65,0,0,1-1.54,1.19,0.76,0.76,0,0,1-.4,1.11h0v0a0.6,0.6,0,0,0-.07-0.53,0.44,0.44,0,0,0-.58-0.11h0a1.79,1.79,0,0,0-1.21,1.75,1.43,1.43,0,0,0,1.58,1.08,2.27,2.27,0,0,0,.91-0.18l0.09,0v0l-0.09,0a3.19,3.19,0,0,1-1.37.31m-4-2.26a1.54,1.54,0,0,0,1.1.58,1.1,1.1,0,0,1,1,.7,2.2,2.2,0,0,0,2,.95,3.13,3.13,0,0,0,.95-0.15,2.45,2.45,0,0,1-.49.05,1.46,1.46,0,0,1-1.61-1.11,1.81,1.81,0,0,1,1.22-1.78l0,0a0.48,0.48,0,0,1,.62.12,0.62,0.62,0,0,1,.08.53,0.72,0.72,0,0,0,.43-0.46,0.73,0.73,0,0,0-.09-0.62l0,0h0a1.6,1.6,0,0,0,1.52-1.12,0.76,0.76,0,0,1-.42.09c-0.17,0-.37,0-0.56,0l-0.39,0h0l0,0a0.84,0.84,0,0,0,.12-0.67,2.05,2.05,0,0,1-.65.39,3.52,3.52,0,0,0-1.75,1.55l-0.05.08,0-.09c0.16-.57.47-1.71,0.65-2.47a2,2,0,0,0,0-.22,0.89,0.89,0,0,0-.2-0.68,0.71,0.71,0,0,0-.53-0.22,0.63,0.63,0,0,0-.57.29,1,1,0,0,1,.08.94c0,0.08,0,.17,0,0.26l0,0.22a16.05,16.05,0,0,1-.53,2.38l0,0.05v-0.06a1.17,1.17,0,0,0-.42-0.83,0.82,0.82,0,0,1-.25-0.34,0.59,0.59,0,0,0-.17.51v0l0,0a0.51,0.51,0,0,0-.36-0.08h-0.12a0.68,0.68,0,0,1-.53-0.15,0.94,0.94,0,0,0,.56,1.15l0,0H774.7a0.39,0.39,0,0,0-.25.14,0.44,0.44,0,0,1-.28.16" transform="translate(-739.39 -894.4)"/>
      <path class="f" d="M781.84,908.67a4.37,4.37,0,0,1-2.43,2.47,12.51,12.51,0,0,0-3.69,1.79,0.63,0.63,0,0,1-.23-0.09,0.94,0.94,0,0,1,0-1.37c1.54-1.44,3.19-.82,4.21-1.8-0.87.46-2.45,0.26-2.6-.87a4,4,0,0,0,4-1.18,7.09,7.09,0,0,1,.8,1" transform="translate(-739.39 -894.4)"/>
      <path d="M775.72,912.95h0a0.62,0.62,0,0,1-.24-0.1,0.83,0.83,0,0,1-.3-0.58,1,1,0,0,1,.29-0.81,4.58,4.58,0,0,1,2.51-1.12,3.37,3.37,0,0,0,1.63-.61,2.28,2.28,0,0,1-.92.19,1.46,1.46,0,0,1-1.61-1.11v0h0a4,4,0,0,0,3.94-1.17h0a6.86,6.86,0,0,1,.8,1.05h0a4.35,4.35,0,0,1-2.44,2.48,12.49,12.49,0,0,0-3.68,1.79h0Zm4-3.34-0.08.07a3.21,3.21,0,0,1-1.72.69,4.57,4.57,0,0,0-2.5,1.11,1,1,0,0,0-.28.79,0.81,0.81,0,0,0,.29.56,0.61,0.61,0,0,0,.22.09,12.68,12.68,0,0,1,3.69-1.79,4.31,4.31,0,0,0,2.42-2.45,6.88,6.88,0,0,0-.78-1,4,4,0,0,1-3.94,1.17,1.44,1.44,0,0,0,1.57,1.06,2.17,2.17,0,0,0,1-.23Z" transform="translate(-739.39 -894.4)"/>
      <path class="g" d="M778.7,911.85a4.58,4.58,0,0,0-1.1,3.37,1,1,0,0,0,.24.64,4.36,4.36,0,0,1,1.59-2.94,7.79,7.79,0,0,0,2.92-3.51,1.25,1.25,0,0,0-.57-0.67c-0.53,1.46-2,2.17-3.09,3.12" transform="translate(-739.39 -894.4)"/>
      <path d="M777.86,915.89l0,0a1,1,0,0,1-.24-0.65,4.56,4.56,0,0,1,1.1-3.38c0.28-.24.59-0.46,0.88-0.69a5.59,5.59,0,0,0,2.2-2.42v0h0a1.24,1.24,0,0,1,.58.68h0a7.8,7.8,0,0,1-2.93,3.52,4.36,4.36,0,0,0-1.58,2.93v0Zm3.94-7.13a5.63,5.63,0,0,1-2.2,2.42c-0.3.22-.6,0.45-0.88,0.68a4.58,4.58,0,0,0-1.09,3.36,1,1,0,0,0,.21.61,4.38,4.38,0,0,1,1.59-2.92,7.78,7.78,0,0,0,2.92-3.5,1.21,1.21,0,0,0-.55-0.65" transform="translate(-739.39 -894.4)"/>
      <path class="h" d="M781.34,908a3.63,3.63,0,0,1-1.51,1.22,0.79,0.79,0,0,0,.18-0.49,5.55,5.55,0,0,1-2.92,0,4,4,0,0,0,4-1.18,1.68,1.68,0,0,1,.3.42" transform="translate(-739.39 -894.4)"/>
      <path d="M779.78,909.29l0,0a0.75,0.75,0,0,0,.17-0.46,4.66,4.66,0,0,1-1.5.21,4.56,4.56,0,0,1-1.41-.18v0a4,4,0,0,0,3.94-1.17h0a1.74,1.74,0,0,1,.31.42h0a3.64,3.64,0,0,1-1.52,1.22Zm0.25-.55v0a0.83,0.83,0,0,1-.15.46,3.63,3.63,0,0,0,1.45-1.19,1.61,1.61,0,0,0-.29-0.39,4,4,0,0,1-2.95,1.29h-0.28c0.21,0,.45,0,0.68,0a4.56,4.56,0,0,0,1.51-.21h0Z" transform="translate(-739.39 -894.4)"/>
      <path class="g" d="M775.47,911.46c-1.25,1.17-.42,2.19.07,2.42-0.13.82,0.64,0.72,0.62,1.4a1,1,0,0,0,.34-1c0.39,0.42,1.39,0,1.6.73a1.39,1.39,0,0,0-1.37-1.65,0.58,0.58,0,0,0-.18-0.95,0.67,0.67,0,0,1-1.06.44,0.94,0.94,0,0,1,0-1.37" transform="translate(-739.39 -894.4)"/>
      <path d="M776.14,915.31v0a0.73,0.73,0,0,0-.31-0.61,0.77,0.77,0,0,1-.31-0.79,1.39,1.39,0,0,1-.71-1,1.64,1.64,0,0,1,.65-1.46l0,0a1,1,0,0,0-.28.79,0.81,0.81,0,0,0,.29.56,0.72,0.72,0,0,0,.41.11,0.59,0.59,0,0,0,.63-0.54v0h0a0.62,0.62,0,0,1,.36.46,0.54,0.54,0,0,1-.15.48,1.2,1.2,0,0,1,1,.45,1.55,1.55,0,0,1,.35,1.22v0.07l0-.07a0.8,0.8,0,0,0-.88-0.51,1.14,1.14,0,0,1-.69-0.19,1,1,0,0,1-.35,1h0Zm-0.82-3.68a1.54,1.54,0,0,0-.48,1.28,1.36,1.36,0,0,0,.7,1h0a0.74,0.74,0,0,0,.3.77,0.76,0.76,0,0,1,.32.6,1,1,0,0,0,.31-1v0l0,0a1,1,0,0,0,.7.21,0.85,0.85,0,0,1,.89.46,1.52,1.52,0,0,0-.36-1.13,1.17,1.17,0,0,0-1-.43h0l0,0a0.51,0.51,0,0,0,.17-0.48,0.6,0.6,0,0,0-.32-0.43,0.62,0.62,0,0,1-.66.55,0.76,0.76,0,0,1-.42-0.12,0.83,0.83,0,0,1-.3-0.58,1,1,0,0,1,.15-0.64" transform="translate(-739.39 -894.4)"/>
      <path class="f" d="M778.17,918.89a0.24,0.24,0,0,0,0,.37c0.17,0.23-.12.75,0.43,0.86a0.31,0.31,0,0,0,.35-0.25c0.17-.52-0.38-0.57-0.42-0.82a0.19,0.19,0,0,0-.32-0.15" transform="translate(-739.39 -894.4)"/>
      <path d="M778.62,920.14h-0.06a0.46,0.46,0,0,1-.38-0.55,0.55,0.55,0,0,0-.06-0.31,0.32,0.32,0,0,1-.06-0.24,0.22,0.22,0,0,1,.11-0.15,0.32,0.32,0,0,1,.15,0,0.2,0.2,0,0,1,.19.21,0.43,0.43,0,0,0,.19.21,0.49,0.49,0,0,1,.24.61,0.34,0.34,0,0,1-.31.27m-0.31-1.28a0.28,0.28,0,0,0-.13,0,0.19,0.19,0,0,0-.09.13,0.29,0.29,0,0,0,.06.22,0.57,0.57,0,0,1,.07.33,0.43,0.43,0,0,0,.36.52,0.29,0.29,0,0,0,.34-0.24,0.46,0.46,0,0,0-.23-0.58,0.43,0.43,0,0,1-.2-0.23,0.18,0.18,0,0,0-.16-0.19" transform="translate(-739.39 -894.4)"/>
      <path class="f" d="M778.64,919.86c-0.18.09-.34,0.21-0.27,0.79a0.89,0.89,0,0,1-.2.84,0.45,0.45,0,0,0,.52,0c0.11,0.18.36,0.13,0.46-.1,0.13,0.11.31-.07,0.31-0.23,0.11,0.07.34,0,.29-0.38a0.38,0.38,0,0,0,.38-0.14,1.77,1.77,0,0,1-.84-0.54,0.55,0.55,0,0,0-.65-0.23" transform="translate(-739.39 -894.4)"/>
      <path d="M778.88,921.6a0.23,0.23,0,0,1-.19-0.1,0.49,0.49,0,0,1-.53,0l-0.05,0h0.06a0.11,0.11,0,0,0,.08,0,1.4,1.4,0,0,0,.1-0.78c-0.07-.59.09-0.72,0.28-0.81a0.56,0.56,0,0,1,.67.24,1.74,1.74,0,0,0,.83.53h0v0a0.41,0.41,0,0,1-.38.15,0.34,0.34,0,0,1-.12.37,0.18,0.18,0,0,1-.17,0,0.31,0.31,0,0,1-.16.23,0.16,0.16,0,0,1-.16,0,0.33,0.33,0,0,1-.26.2h0m-0.18-.14h0a0.2,0.2,0,0,0,.19.1,0.3,0.3,0,0,0,.24-0.19,1,1,0,0,1-.29-0.52h0a1,1,0,0,0,.28.5h0a0.13,0.13,0,0,0,.14,0,0.28,0.28,0,0,0,.15-0.22,1.47,1.47,0,0,1-.45-0.65h0a1.47,1.47,0,0,0,.42.63h0l0,0a0.15,0.15,0,0,0,.16,0,0.33,0.33,0,0,0,.1-0.35,1.68,1.68,0,0,1-.72-0.59h0a1.67,1.67,0,0,0,.69.57h0a0.37,0.37,0,0,0,.35-0.12,1.76,1.76,0,0,1-.83-0.54,0.53,0.53,0,0,0-.63-0.22h0c-0.19.09-.33,0.2-0.26,0.78a1.4,1.4,0,0,1-.11.8l-0.06,0a0.44,0.44,0,0,0,.46,0,1.29,1.29,0,0,1,0-.63h0a1.36,1.36,0,0,0,0,.61m0.22-15.94v0a1.12,1.12,0,0,1,.61-0.08v0a1.11,1.11,0,0,0-.6.07m-3.1-2.17,0,0a2.3,2.3,0,0,1,.28-0.34l0,0a2.26,2.26,0,0,0-.28.33" transform="translate(-739.39 -894.4)"/>
      <path class="f" d="M787.28,911.48c2,1.68,2.14,3,1.83,3.81a3.48,3.48,0,0,0-1.86-2.17Z" transform="translate(-739.39 -894.4)"/>
      <path d="M789.1,915.33v0a3.45,3.45,0,0,0-1.85-2.16h0l0-1.66,0,0c2.19,1.83,2.09,3.18,1.83,3.82Zm-1.84-2.23a3.5,3.5,0,0,1,1.85,2.13c0.24-.65.28-2-1.82-3.73Z" transform="translate(-739.39 -894.4)"/>
      <path class="g" d="M783.68,910.53h3.72v4.41a4.82,4.82,0,1,1-8.43,0v-4.41h2.61a1.44,1.44,0,0,0,.29.92,3.88,3.88,0,0,0,1.8-.92" transform="translate(-739.39 -894.4)"/>
      <path d="M783.19,922.11h0a8.27,8.27,0,0,1-2.91-2.61,8,8,0,0,1-1.31-4.55v-4.42h2.64a1.41,1.41,0,0,0,.29.9,4,4,0,0,0,1.78-.91h3.75v4.42a8,8,0,0,1-1.31,4.55,8.27,8.27,0,0,1-2.91,2.61h0ZM779,910.54v4.4a4.8,4.8,0,1,0,8.4,0v-4.4h-3.7a3.94,3.94,0,0,1-1.8.92h0a1.43,1.43,0,0,1-.3-0.91H779Z" transform="translate(-739.39 -894.4)"/>
      <path class="i" d="M787.41,910.53v4.41a8.51,8.51,0,0,1-.51,3l-3.7-6.79-3.7,6.79a8.51,8.51,0,0,1-.51-3v-4.41h8.43Z" transform="translate(-739.39 -894.4)"/>
      <path d="M786.89,918l-3.7-6.79-3.7,6.79v0a8.56,8.56,0,0,1-.52-3v-4.42h8.46v4.42a8.51,8.51,0,0,1-.52,3v0Zm-7.9-7.43v4.4a8.52,8.52,0,0,0,.5,3l3.7-6.78v0l3.68,6.76a8.54,8.54,0,0,0,.5-3v-4.4H779Z" transform="translate(-739.39 -894.4)"/>
      <path class="f" d="M787,917.61a7.64,7.64,0,0,1-.28.72l-3.54-6.57-3.54,6.57a7.64,7.64,0,0,1-.28-0.72l3.81-7.07Z" transform="translate(-739.39 -894.4)"/>
      <path d="M786.73,918.37v0l-3.52-6.55-3.54,6.57v0c-0.09-.19-0.21-0.51-0.28-0.73h0l3.82-7.09,3.83,7.1h0c-0.07.21-.19,0.53-0.28,0.73v0Zm-7.33-.76c0.07,0.21.18,0.5,0.26,0.69l3.53-6.57,3.54,6.57c0.09-.19.19-0.49,0.26-0.69l-3.8-7Z" transform="translate(-739.39 -894.4)"/>
      <path class="f" d="M784.87,920l0.36,0.17a2.64,2.64,0,0,0,.16-1.44c-0.21.54-.93,0.52-1.13,0.85a2.44,2.44,0,0,1,.33.21,3.77,3.77,0,0,1-1.15.75v-3.5c0-.25-0.08-0.45-0.08-0.65V915.7c0-.16,0-0.4-0.18-0.4s-0.18.24-.18,0.4v0.72c0,0.2-.08.44-0.08,0.65v3.5c-0.18-.52-0.88-0.34-1.21-0.87a0.89,0.89,0,0,1,.39,0,2.46,2.46,0,0,0-1-1.14,3.29,3.29,0,0,0,.08,1.49,0.88,0.88,0,0,1,.22-0.18c0.28,0.6,1.53.61,1.82,1.6,0.24-.37,1.09-0.79,1.68-1.43" transform="translate(-739.39 -894.4)"/>
      <path d="M783.19,921.49v0a1.78,1.78,0,0,0-1.08-1,1.52,1.52,0,0,1-.73-0.56,0.92,0.92,0,0,0-.2.17v0a2.19,2.19,0,0,1-.1-1.17c0-.13,0-0.24,0-0.32v-0.06l0,0.05a0.73,0.73,0,0,0,.27.21,1.51,1.51,0,0,1,.78.93v0h0a0.91,0.91,0,0,0-.37,0,1.13,1.13,0,0,0,.62.4,0.86,0.86,0,0,1,.55.38v-3.43a1.85,1.85,0,0,1,0-.34,1.8,1.8,0,0,0,0-.32V915.7c0-.12,0-0.42.19-0.42s0.19,0.29.19,0.42v0.72a1.47,1.47,0,0,0,0,.29,2,2,0,0,1,0,.36v3.48a3.81,3.81,0,0,0,1.11-.73,2.57,2.57,0,0,0-.31-0.2h0a1,1,0,0,1,.46-0.3,1.09,1.09,0,0,0,.67-0.54l0-.05v0.06a2.59,2.59,0,0,1-.17,1.45h0l-0.34-.16h0a7.09,7.09,0,0,1-1,.82,3,3,0,0,0-.69.6Zm-1.81-1.66v0a1.45,1.45,0,0,0,.73.56,1.84,1.84,0,0,1,1.09,1,3.28,3.28,0,0,1,.68-0.58,6.92,6.92,0,0,0,1-.82h0l0.33,0.16a2.53,2.53,0,0,0,.16-1.36,1.15,1.15,0,0,1-.66.51,1,1,0,0,0-.44.28,2.58,2.58,0,0,1,.32.2h0a3.82,3.82,0,0,1-1.15.76h0v-3.52a1.92,1.92,0,0,0,0-.36,1.6,1.6,0,0,1,0-.3V915.7c0-.09,0-0.39-0.17-0.39s-0.17.3-.17,0.39v0.72a1.69,1.69,0,0,1,0,.32,2,2,0,0,0,0,.33v3.59l0-.08a0.77,0.77,0,0,0-.56-0.43,1.1,1.1,0,0,1-.64-0.43v0h0a1,1,0,0,1,.38,0,1.49,1.49,0,0,0-.76-0.89,1,1,0,0,1-.25-0.18c0,0.08,0,.17,0,0.28a2.26,2.26,0,0,0,.09,1.14,0.91,0.91,0,0,1,.21-0.17h0Z" transform="translate(-739.39 -894.4)"/>
      <path class="f" d="M783.19,917.11c0.28,0,1.16-.09,1.48-0.09a0.33,0.33,0,0,0,0-.55c-0.32,0-1.2-.09-1.48-0.09s-1.16.09-1.48,0.09a0.33,0.33,0,0,0,0,.55c0.32,0,1.2.09,1.48,0.09" transform="translate(-739.39 -894.4)"/>
      <path d="M783.19,917.13l-0.69,0-0.78,0a0.34,0.34,0,0,1,0-.58l0.78,0,0.69,0,0.69,0,0.78,0a0.34,0.34,0,0,1,0,.58l-0.78,0-0.69,0m0-.73-0.69,0-0.79,0a0.24,0.24,0,0,0-.14.26,0.24,0.24,0,0,0,.14.26l0.79,0,0.69,0,0.69,0,0.79,0a0.24,0.24,0,0,0,.14-0.26,0.24,0.24,0,0,0-.14-0.26l-0.79,0-0.69,0" transform="translate(-739.39 -894.4)"/>
      <path class="f" d="M783,915.68a0.35,0.35,0,0,0-.22-0.07,0.31,0.31,0,1,0,.33.3,0.09,0.09,0,1,1,.19,0,0.53,0.53,0,1,1-.52-0.48,0.55,0.55,0,0,1,.24.05,1.36,1.36,0,0,0,0,.2" transform="translate(-739.39 -894.4)"/>
      <path d="M782.79,916.4a0.5,0.5,0,1,1,0-1,0.6,0.6,0,0,1,.25.05h0v0a1.32,1.32,0,0,0,0,.18v0l0,0a0.34,0.34,0,0,0-.21-0.07,0.29,0.29,0,1,0,.32.29,0.11,0.11,0,1,1,.22,0,0.52,0.52,0,0,1-.54.49m0-1a0.47,0.47,0,1,0,.51.46,0.08,0.08,0,1,0-.16,0,0.35,0.35,0,1,1-.35-0.32,0.37,0.37,0,0,1,.21.06,1.43,1.43,0,0,1,0-.16h0a0.59,0.59,0,0,0-.22,0" transform="translate(-739.39 -894.4)"/>
      <path class="f" d="M781.72,917a0.33,0.33,0,0,0,0-.55" transform="translate(-739.39 -894.4)"/>
      <path d="M781.72,917v0a0.24,0.24,0,0,0,.14-0.26,0.24,0.24,0,0,0-.14-0.26v0a0.34,0.34,0,0,1,0,.58" transform="translate(-739.39 -894.4)"/>
      <path class="f" d="M781.84,917a0.33,0.33,0,0,0,0-.55" transform="translate(-739.39 -894.4)"/>
      <path d="M781.84,917v0a0.24,0.24,0,0,0,.14-0.26,0.24,0.24,0,0,0-.14-0.26v0a0.34,0.34,0,0,1,0,.58" transform="translate(-739.39 -894.4)"/>
      <path class="f" d="M782.65,917.08a0.4,0.4,0,0,0,0-.67" transform="translate(-739.39 -894.4)"/>
      <path d="M782.65,917.1v0a0.39,0.39,0,0,0,0-.64v0a0.41,0.41,0,0,1,0,.7" transform="translate(-739.39 -894.4)"/>
      <path class="f" d="M782.83,917.1a0.42,0.42,0,0,0,0-.7" transform="translate(-739.39 -894.4)"/>
      <path d="M782.83,917.11v0a0.3,0.3,0,0,0,.18-0.34,0.3,0.3,0,0,0-.18-0.33v0a0.43,0.43,0,0,1,0,.73" transform="translate(-739.39 -894.4)"/>
      <path class="f" d="M783.46,917.1a0.42,0.42,0,0,0,0-.71" transform="translate(-739.39 -894.4)"/>
      <path d="M783.46,917.12v0a0.41,0.41,0,0,0,0-.68v0a0.43,0.43,0,0,1,0,.74" transform="translate(-739.39 -894.4)"/>
      <path class="f" d="M783.66,917.09a0.4,0.4,0,0,0,0-.68" transform="translate(-739.39 -894.4)"/>
      <path d="M783.66,917.1v0a0.4,0.4,0,0,0,0-.66v0a0.41,0.41,0,0,1,0,.71" transform="translate(-739.39 -894.4)"/>
      <path class="f" d="M784.53,917a0.34,0.34,0,0,0,0-.57" transform="translate(-739.39 -894.4)"/>
      <path d="M784.53,917v0a0.33,0.33,0,0,0,0-.54v0a0.35,0.35,0,0,1,0,.6" transform="translate(-739.39 -894.4)"/>
      <path class="f" d="M781.37,919.86a1.17,1.17,0,0,1,.35-0.15" transform="translate(-739.39 -894.4)"/>
      <path d="M781.38,919.87l0,0a1.19,1.19,0,0,1,.35-0.15v0a1.18,1.18,0,0,0-.34.14" transform="translate(-739.39 -894.4)"/>
      <path class="f" d="M784.7,919.89l-0.1-.07" transform="translate(-739.39 -894.4)"/>
      <path d="M784.69,919.9h0l-0.08-.05,0,0,0.08,0.05h0Z" transform="translate(-739.39 -894.4)"/>
      <path class="f" d="M784.87,920a2.31,2.31,0,0,0,.53-0.84" transform="translate(-739.39 -894.4)"/>
      <path d="M784.89,920l0,0a2.29,2.29,0,0,0,.52-0.84h0a2.32,2.32,0,0,1-.53.85" transform="translate(-739.39 -894.4)"/>
      <path class="c" d="M782.45,913.65a0.25,0.25,0,0,1,.14-0.17,0.32,0.32,0,0,1,.21-0.1h1.07c0.08,0,.1,0,0.1.09v1.46c0,0.07,0,.09-0.1.09h-1.43v-1.39" transform="translate(-739.39 -894.4)"/>
      <path d="M783.87,915h-1.44v-1.4a0.22,0.22,0,0,1,.12-0.14l0,0h0a0.3,0.3,0,0,1,.2-0.09h1.07a0.09,0.09,0,0,1,.11.11v1.46a0.09,0.09,0,0,1-.11.11m-1.41,0h1.41c0.07,0,.08,0,0.08-0.08v-1.46c0-.06,0-0.08-0.08-0.08H782.8a0.27,0.27,0,0,0-.19.08l0,0,0,0a0.17,0.17,0,0,0-.1.13V915Z" transform="translate(-739.39 -894.4)"/>
      <path class="j" d="M783.61,915.15a0.19,0.19,0,0,0,.21-0.1,0.18,0.18,0,0,0,.09-0.19v-1.33c0-.07,0-0.09-0.09-0.09h-1a0.3,0.3,0,0,0-.2.1,0.22,0.22,0,0,0-.13.16v1.46h1.1Z" transform="translate(-739.39 -894.4)"/>
      <path d="M783.61,915.16h-1.12v-1.47a0.19,0.19,0,0,1,.11-0.15l0,0h0a0.27,0.27,0,0,1,.19-0.08h1a0.09,0.09,0,0,1,.11.1v1.35a0.19,0.19,0,0,1-.1.18l0,0a0.17,0.17,0,0,1-.18.06m-1.09,0h1.09a0.15,0.15,0,0,0,.16-0.05l0,0a0.16,0.16,0,0,0,.09-0.16v-1.35c0-.06,0-0.07-0.08-0.07h-1a0.25,0.25,0,0,0-.17.08h0l0,0a0.17,0.17,0,0,0-.1.13v1.44Z" transform="translate(-739.39 -894.4)"/>
      <path class="c" d="M43.15,19.17h1.08a0.1,0.1,0,0,1,.1.1v1.45a0.09,0.09,0,0,1-.09.09H43.16a0.1,0.1,0,0,1-.1-0.1V19.26A0.09,0.09,0,0,1,43.15,19.17Z"/>
      <path d="M783.61,915.23h-1.07a0.09,0.09,0,0,1-.11-0.11v-1.46a0.09,0.09,0,0,1,.11-0.11h1.07a0.09,0.09,0,0,1,.11.11v1.46a0.09,0.09,0,0,1-.11.11m-1.07-1.65c-0.07,0-.08,0-0.08.08v1.46c0,0.07,0,.08.08,0.08h1.07c0.07,0,.08,0,0.08-0.08v-1.46c0-.06,0-0.08-0.08-0.08h-1.07Z" transform="translate(-739.39 -894.4)"/>
      <path class="k" d="M785.79,909.68a0.82,0.82,0,0,1,.16.85h-0.31a0.54,0.54,0,0,0-.51-0.82c-0.83-.07-1.8,1.54-3.25,1.73a1.48,1.48,0,0,1,.14-1.93,6,6,0,0,0-1.27-2.07,4,4,0,0,0-.77-0.05,2.71,2.71,0,0,1,1.31-1.13c0.08-.12.17-0.23,0.25-0.33,0-.63,3-0.34,3.67.06a14.72,14.72,0,0,0,.59,3.69" transform="translate(-739.39 -894.4)"/>
      <path d="M781.88,911.46h0a1.48,1.48,0,0,1,.13-1.94,6,6,0,0,0-1.26-2.05,3.91,3.91,0,0,0-.77-0.05h0v0a2.72,2.72,0,0,1,1.31-1.14l0.24-.32c0-.33.79-0.37,1.24-0.37a6.38,6.38,0,0,1,2.46.42h0a14.85,14.85,0,0,0,.59,3.68,0.84,0.84,0,0,1,.17.86h-0.34v0a0.67,0.67,0,0,0,0-.57,0.6,0.6,0,0,0-.47-0.23,2.17,2.17,0,0,0-1.28.68,4.22,4.22,0,0,1-2,1.05h0Zm-1.79-4.08a4.67,4.67,0,0,1,.66.06h0a6,6,0,0,1,1.28,2.08h0a1.45,1.45,0,0,0-.14,1.9,4.19,4.19,0,0,0,1.95-1,2.2,2.2,0,0,1,1.3-.68,0.61,0.61,0,0,1,.5.24,0.66,0.66,0,0,1,0,.57h0.28a0.81,0.81,0,0,0-.16-0.83,14.88,14.88,0,0,1-.59-3.69,6.4,6.4,0,0,0-2.44-.42c-0.75,0-1.19.13-1.21,0.35h0l-0.24.33h0a2.71,2.71,0,0,0-1.29,1.11h0.1" transform="translate(-739.39 -894.4)"/>
      <path d="M782.17,910.11a4,4,0,0,0-1.13-2.6,1.7,1.7,0,0,0,1.31-.21c0.54-.36,1.94-1,2.46-0.72a0.8,0.8,0,0,1,0,.42c-0.12-.33-1.48.18-1.86,0.33a0.67,0.67,0,0,0-.4.92,3.32,3.32,0,0,0-.36-0.48,3.41,3.41,0,0,1,.19.91,2.35,2.35,0,0,0-.55-1,5.37,5.37,0,0,1,.4,2.52,2.08,2.08,0,0,0,.9-0.37,1.81,1.81,0,0,1-1,.48,1.63,1.63,0,0,0-.23.86,1.83,1.83,0,0,1,.22-1.09" transform="translate(-739.39 -894.4)"/>
      <path d="M785.79,909.68a1.37,1.37,0,0,0-1.42-.29,2.1,2.1,0,0,1,.5-0.16c0-.17-0.18-0.91-0.21-1.09l0.18-.07a11.51,11.51,0,0,0,.28,1.15,1.52,1.52,0,0,1,.3.1c0-.17-0.33-1.4-0.32-1.54l0.24-.13a9.72,9.72,0,0,0,.44,2" transform="translate(-739.39 -894.4)"/>
      <path class="k" d="M785.64,910.53a0.54,0.54,0,0,0-.51-0.82,2.63,2.63,0,0,0-1.45.82h2Z" transform="translate(-739.39 -894.4)"/>
      <path d="M785.65,910.54h-2l0,0,0.18-.14a2.17,2.17,0,0,1,1.29-.68,0.61,0.61,0,0,1,.5.24,0.68,0.68,0,0,1,0,.59h0Zm-1.92,0h1.9a0.66,0.66,0,0,0,0-.56,0.6,0.6,0,0,0-.47-0.23,2.16,2.16,0,0,0-1.26.67l-0.14.11" transform="translate(-739.39 -894.4)"/>
      <path class="k" d="M782,907a3.25,3.25,0,0,1-1.07-.11,1.2,1.2,0,0,1,.08-0.23,3.37,3.37,0,0,0-.62.49A2.53,2.53,0,0,0,782,907" transform="translate(-739.39 -894.4)"/>
      <path d="M782.17,910.25a2.53,2.53,0,0,0-.15-0.73h0a2.49,2.49,0,0,1,.16.74h0Zm-0.73-2.68a1.51,1.51,0,0,1-.4,0l-0.29-.06v0L781,907.5a1.7,1.7,0,0,0,1.29-.21l0.14-.1a5.45,5.45,0,0,1,2.65-1.21v0a5.41,5.41,0,0,0-2.63,1.2l-0.14.1a1.6,1.6,0,0,1-.92.26m-0.37-.33h-0.29l-0.32,0H780.4v0a3,3,0,0,1,.62-0.49,2.69,2.69,0,0,1,.24-0.41l0,0a2.57,2.57,0,0,0-.22.37h0l0,0a1.21,1.21,0,0,0-.08.22,3.33,3.33,0,0,0,1,.1,5.48,5.48,0,0,1,2.78-1.07v0A5.46,5.46,0,0,0,782,907h0a1.84,1.84,0,0,1-1,.21m-0.62-.08A2.62,2.62,0,0,0,782,907a3.49,3.49,0,0,1-1-.11h0a1.08,1.08,0,0,1,.06-0.19,3.47,3.47,0,0,0-.56.44" transform="translate(-739.39 -894.4)"/>
      <path class="g" d="M787.28,911.48c1.37,0.95,2.38,1.86,2.68,3.33s0.85,1.86,1.54,1.47c-0.16.85-1,.95-1.73,0.29a2.55,2.55,0,0,1-1.34,2.58c-0.07-.59.32-1.05,0.21-1.54a1,1,0,0,1,.21-0.93,1.16,1.16,0,0,1-1.47-1,1.16,1.16,0,0,0,1.73-.44c0.31-.78.18-2.12-1.83-3.81" transform="translate(-739.39 -894.4)"/>
      <path d="M788.41,919.18v0a2,2,0,0,1,.12-0.8,1.42,1.42,0,0,0,.09-0.73,1.09,1.09,0,0,1,.17-0.9,1,1,0,0,1-.25,0,1.17,1.17,0,0,1-1.18-1v0h0a1.87,1.87,0,0,0,.79.2,0.93,0.93,0,0,0,.92-0.63c0.25-.63.35-2-1.82-3.79l0,0c1.45,1,2.4,1.9,2.69,3.34,0.21,1.06.57,1.6,1.05,1.6a0.94,0.94,0,0,0,.46-0.14l0,0v0a0.81,0.81,0,0,1-.8.73h0a1.45,1.45,0,0,1-.93-0.41,2.55,2.55,0,0,1-1.35,2.56h0Zm0.51-2.53-0.06.05a1,1,0,0,0-.21.92,1.44,1.44,0,0,1-.09.75,2,2,0,0,0-.12.77,2.54,2.54,0,0,0,1.31-2.56v0l0,0a1.44,1.44,0,0,0,.93.42h0a0.77,0.77,0,0,0,.77-0.68,1,1,0,0,1-.45.13c-0.5,0-.87-0.54-1.08-1.62a5.12,5.12,0,0,0-2.43-3.16c2,1.73,1.86,3,1.61,3.63a1,1,0,0,1-.95.65,1.89,1.89,0,0,1-.78-0.19,1.14,1.14,0,0,0,1.15,1,1,1,0,0,0,.3,0Z" transform="translate(-739.39 -894.4)"/>
      <path class="g" d="M789,903.83a1.13,1.13,0,0,1,1.91-.52c1.09-.62,1.24.78,2.17,0.51a0.62,0.62,0,0,1-.67.49c0.36,0.33-.15.82,0.62,1.11a1.31,1.31,0,0,1-1.81-.92,0.87,0.87,0,0,1-1.29.08,0.56,0.56,0,0,0,.25-1,0.81,0.81,0,0,0-1.18.29" transform="translate(-739.39 -894.4)"/>
      <path d="M792.52,905.55a1.36,1.36,0,0,1-1.29-1,0.73,0.73,0,0,1-.65.3,0.88,0.88,0,0,1-.65-0.25l0,0h0a0.59,0.59,0,0,0,.5-0.47,0.57,0.57,0,0,0-.26-0.55,0.87,0.87,0,0,0-.47-0.13,0.71,0.71,0,0,0-.64.32l0,0.1h0a0.45,0.45,0,0,1,0-.1,1.19,1.19,0,0,1,1.1-.78,1,1,0,0,1,.79.34,1,1,0,0,1,.52-0.15,1.13,1.13,0,0,1,.72.35,1.1,1.1,0,0,0,.7.35,0.84,0.84,0,0,0,.23,0h0v0a0.63,0.63,0,0,1-.65.51,0.6,0.6,0,0,1,.13.44,0.59,0.59,0,0,0,.46.64h0a1.18,1.18,0,0,1-.53.12m-1.29-1.09v0a1.33,1.33,0,0,0,1.28,1,1.2,1.2,0,0,0,.49-0.1,0.6,0.6,0,0,1-.45-0.66,0.54,0.54,0,0,0-.15-0.44l0,0h0a0.62,0.62,0,0,0,.65-0.46,0.82,0.82,0,0,1-.22,0,1.12,1.12,0,0,1-.72-0.36,1.11,1.11,0,0,0-.7-0.35,1.05,1.05,0,0,0-.51.16h0a1,1,0,0,0-.77-0.34,1.14,1.14,0,0,0-1,.62,0.82,0.82,0,0,1,.57-0.21,0.9,0.9,0,0,1,.49.13,0.6,0.6,0,0,1,.27.58,0.64,0.64,0,0,1-.5.48,0.88,0.88,0,0,0,.61.22,0.69,0.69,0,0,0,.64-0.32Z" transform="translate(-739.39 -894.4)"/>
      <path class="g" d="M785.69,906.28a5.93,5.93,0,0,0,1.62,2.52,1.9,1.9,0,0,0,2.63-.15c0,1.37-1.4,1.48-2.19,1-0.35-.19-0.63-0.09-0.29.21a7.17,7.17,0,0,0,2.92,1.08c2.29,0.49,1.47,2.3.8,2.29,0.19,0,.35-0.21.07-0.45-2-1.78-6-1.08-6-5.07-0.42,1-2.17.64-1.36-.61a0.55,0.55,0,0,0,.85-0.1,1,1,0,0,0-.42-1.08c0.08,0,.24,0,0.22-0.19a0.28,0.28,0,0,0,.38.22,0.22,0.22,0,0,0,.25.15,0.12,0.12,0,0,0,.06-0.15,0.37,0.37,0,0,0,.41.28" transform="translate(-739.39 -894.4)"/>
      <path d="M791.19,913.29h0v0a0.21,0.21,0,0,0,.2-0.12,0.3,0.3,0,0,0-.13-0.31,7.26,7.26,0,0,0-2.52-1.25c-1.7-.59-3.45-1.19-3.44-3.76a1,1,0,0,1-.86.54,0.71,0.71,0,0,1-.64-0.33,0.87,0.87,0,0,1,.15-0.89h0a0.7,0.7,0,0,0,.43.15,0.4,0.4,0,0,0,.4-0.24,1,1,0,0,0-.42-1.06l0,0h0.05a0.23,0.23,0,0,0,.16-0.05,0.15,0.15,0,0,0,0-.12h0a0.26,0.26,0,0,0,.27.22H785c0.09,0.14.16,0.18,0.24,0.14a0.09,0.09,0,0,0,.05-0.11v0h0a0.11,0.11,0,0,1,0,0,0.36,0.36,0,0,0,.36.23h0.05a5.88,5.88,0,0,0,1.61,2.52,1.73,1.73,0,0,0,1.19.46,2,2,0,0,0,1.42-.6l0,0v0a1.24,1.24,0,0,1-.33.93,1.34,1.34,0,0,1-1,.36,2,2,0,0,1-.91-0.23,0.69,0.69,0,0,0-.31-0.09,0.11,0.11,0,0,0-.11,0,0.29,0.29,0,0,0,.14.24,6.87,6.87,0,0,0,2.92,1.07c1.52,0.32,1.54,1.2,1.52,1.46a0.9,0.9,0,0,1-.71.86m-5.87-5.61v0.08c0,2.61,1.64,3.19,3.42,3.8a7.28,7.28,0,0,1,2.53,1.25,0.31,0.31,0,0,1,.14.34,0.21,0.21,0,0,1-.06.08,1,1,0,0,0,.52-0.8c0-.32,0-1.12-1.49-1.43a6.92,6.92,0,0,1-2.93-1.08,0.28,0.28,0,0,1-.15-0.27,0.13,0.13,0,0,1,.14-0.07,0.72,0.72,0,0,1,.32.1,1.94,1.94,0,0,0,.9.22,1.32,1.32,0,0,0,1-.35,1.2,1.2,0,0,0,.32-0.87,2,2,0,0,1-1.42.59,1.75,1.75,0,0,1-1.21-.46,5.92,5.92,0,0,1-1.62-2.51h0a0.42,0.42,0,0,1-.36-0.2,0.12,0.12,0,0,1-.07.07h-0.06A0.28,0.28,0,0,1,785,906h-0.09a0.28,0.28,0,0,1-.27-0.17,0.16,0.16,0,0,1,0,.06,0.23,0.23,0,0,1-.16.06,1,1,0,0,1,.4,1.07,0.43,0.43,0,0,1-.43.26,0.73,0.73,0,0,1-.43-0.15,0.84,0.84,0,0,0-.14.85,0.68,0.68,0,0,0,.61.32,0.92,0.92,0,0,0,.86-0.59Z" transform="translate(-739.39 -894.4)"/>
      <path class="f" d="M787.75,909.7a2.11,2.11,0,0,0,3-.52,2.07,2.07,0,0,1,1.14-.7,2.38,2.38,0,0,0,.59-0.42,0.91,0.91,0,0,0-.47-0.22c0.61-.21.43-0.7,0.73-0.94a1,1,0,0,0-1,.19,0.59,0.59,0,0,0-.12-0.56c0,0.25-.48.29-0.58,0.91-0.05.35-.24,0.33-0.28-0.21a8.72,8.72,0,0,0-.44-2c-0.23-.56-0.28-1.32,0-1.43a0.61,0.61,0,0,0-.19-0.2,0.81,0.81,0,0,0-1.18.29c-0.42,1.11.77,1.75,0.67,3-0.18-.9-1.63-1.13-1.62-2a0.57,0.57,0,0,0-.23.92c-0.29-.46-1,0.29-1.54-0.33a1.13,1.13,0,0,0,1.24,1.16,0.78,0.78,0,0,0,.49,1.11c0-.91,1.89-0.54,1.91,1,0,1.34-1.42,1.45-2.19,1" transform="translate(-739.39 -894.4)"/>
      <path d="M789,910.13a2.3,2.3,0,0,1-1.26-.42v0a1.88,1.88,0,0,0,.88.22,1.35,1.35,0,0,0,1-.36,1.19,1.19,0,0,0,.31-0.88,1.44,1.44,0,0,0-1.33-1.51,0.49,0.49,0,0,0-.55.48v0h0a1,1,0,0,1-.56-0.53,0.69,0.69,0,0,1,.05-0.58,1.51,1.51,0,0,1-1-.43,1,1,0,0,1-.22-0.74v0l0,0a0.72,0.72,0,0,0,.56.26,1.87,1.87,0,0,0,.37,0,1.5,1.5,0,0,1,.29,0,0.36,0.36,0,0,1,.23.07,0.69,0.69,0,0,1-.06-0.48,0.59,0.59,0,0,1,.35-0.34h0v0a1.36,1.36,0,0,0,.77,1,2,2,0,0,1,.82.89,2.61,2.61,0,0,0-.4-1.3,1.75,1.75,0,0,1-.27-1.56,0.69,0.69,0,0,1,.71-0.44,0.9,0.9,0,0,1,.49.13,0.63,0.63,0,0,1,.2.21v0h0a0.27,0.27,0,0,0-.15.16,1.92,1.92,0,0,0,.13,1.26,8.8,8.8,0,0,1,.44,2,0.47,0.47,0,0,0,.14.43,0.23,0.23,0,0,0,.11-0.22,1,1,0,0,1,.41-0.66,0.31,0.31,0,0,0,.17-0.25v0l0,0a0.64,0.64,0,0,1,.15.51,0.51,0.51,0,0,1,.4-0.19,1.1,1.1,0,0,1,.26,0,0.56,0.56,0,0,0,.28,0l0.09,0-0.07.06a0.69,0.69,0,0,0-.2.36,0.79,0.79,0,0,1-.46.56,0.45,0.45,0,0,1,.24.13,0.44,0.44,0,0,0,.15.1l0.05,0h-0.05a0.42,0.42,0,0,0-.23.19,0.47,0.47,0,0,1-.36.23,2.06,2.06,0,0,0-1.13.7,2.34,2.34,0,0,1-1.76.94m-1-.31a2.15,2.15,0,0,0,1,.29,2.31,2.31,0,0,0,1.74-.93,2.1,2.1,0,0,1,1.15-.71,0.44,0.44,0,0,0,.34-0.22,0.5,0.5,0,0,1,.21-0.19,0.57,0.57,0,0,1-.13-0.09,0.37,0.37,0,0,0-.3-0.12h-0.12l0.12,0a0.75,0.75,0,0,0,.52-0.57,0.81,0.81,0,0,1,.17-0.33,0.79,0.79,0,0,1-.24,0,1.06,1.06,0,0,0-.25,0,0.51,0.51,0,0,0-.42.24l-0.07.09,0-.11a0.57,0.57,0,0,0-.09-0.52,0.41,0.41,0,0,1-.18.23,1,1,0,0,0-.4.65,0.25,0.25,0,0,1-.14.25,0.46,0.46,0,0,1-.17-0.46,8.73,8.73,0,0,0-.44-2,2,2,0,0,1-.13-1.28,0.31,0.31,0,0,1,.15-0.16,0.61,0.61,0,0,0-.18-0.18,0.87,0.87,0,0,0-.47-0.13,0.68,0.68,0,0,0-.68.41,1.73,1.73,0,0,0,.27,1.54,2.53,2.53,0,0,1,.4,1.42v0.1l0-.1a1.76,1.76,0,0,0-.83-1,1.42,1.42,0,0,1-.79-1,0.55,0.55,0,0,0-.31.32,0.73,0.73,0,0,0,.11.57l0,0a0.31,0.31,0,0,0-.29-0.15,1.64,1.64,0,0,0-.29,0,1.8,1.8,0,0,1-.37.05,0.74,0.74,0,0,1-.56-0.24,0.91,0.91,0,0,0,.22.69,1.48,1.48,0,0,0,1,.43h0v0a0.67,0.67,0,0,0-.06.57,0.93,0.93,0,0,0,.53.51,0.51,0.51,0,0,1,.58-0.48,1.47,1.47,0,0,1,1.36,1.54,1.2,1.2,0,0,1-.32.9,1.36,1.36,0,0,1-1,.37,2,2,0,0,1-.67-0.12" transform="translate(-739.39 -894.4)"/>
      <path class="f" d="M790.38,911c2.29,0.49,1.47,2.3.8,2.29a0.91,0.91,0,0,1-.86-0.68,0.53,0.53,0,0,0,0,1,1.23,1.23,0,0,0-1.49,1.3,0.92,0.92,0,0,1,1-.29,1.08,1.08,0,0,0,1-.13,4.17,4.17,0,0,1-.14.79,1.05,1.05,0,0,0,1.09-1.18c1.11-1,.9-2.66-1.37-3.07" transform="translate(-739.39 -894.4)"/>
      <path d="M790.63,915.26l0,0a0.53,0.53,0,0,0,.09-0.47,0.59,0.59,0,0,1,0-.24,1,1,0,0,1-.51.13,1.34,1.34,0,0,1-.4-0.06,1,1,0,0,0-1,.29l0,0.05v-0.06a1.24,1.24,0,0,1,1.27-1.33h0.17a0.62,0.62,0,0,1-.29-0.5,0.55,0.55,0,0,1,.33-0.47h0v0a0.9,0.9,0,0,0,.84.67h0a0.88,0.88,0,0,0,.68-0.83c0-.32,0-1.12-1.49-1.43v0a2.26,2.26,0,0,1,2,1.38,1.7,1.7,0,0,1-.6,1.71,0.78,0.78,0,0,1-.13.65,1.19,1.19,0,0,1-1,.54h0Zm0.16-.82,0,0,0,0a0.38,0.38,0,0,0,0,.28,0.56,0.56,0,0,1-.07.47,1.16,1.16,0,0,0,.92-0.53,0.75,0.75,0,0,0,.12-0.63h0a1.68,1.68,0,0,0,.59-1.69,1.94,1.94,0,0,0-1.4-1.22,1.26,1.26,0,0,1,1,1.29,0.9,0.9,0,0,1-.71.86h0a0.93,0.93,0,0,1-.87-0.67,0.51,0.51,0,0,0-.29.44,0.59,0.59,0,0,0,.33.5l0.07,0h-0.31a1.2,1.2,0,0,0-1.24,1.24,0.87,0.87,0,0,1,.7-0.29,0.79,0.79,0,0,1,.25,0,1.3,1.3,0,0,0,.4.06,0.84,0.84,0,0,0,.55-0.16l0,0" transform="translate(-739.39 -894.4)"/>
      <path class="f" d="M788.64,918.75a0.27,0.27,0,0,1,0,.41c-0.2.25,0.1,0.84-.52,0.94a0.34,0.34,0,0,1-.38-0.3c-0.17-.58.44-0.62,0.51-0.89a0.22,0.22,0,0,1,.36-0.16" transform="translate(-739.39 -894.4)"/>
      <path d="M788.09,920.12a0.37,0.37,0,0,1-.34-0.31,0.55,0.55,0,0,1,.29-0.67,0.47,0.47,0,0,0,.22-0.23,0.23,0.23,0,0,1,.21-0.22,0.33,0.33,0,0,1,.17.06,0.24,0.24,0,0,1,.11.17,0.35,0.35,0,0,1-.08.27,0.59,0.59,0,0,0-.08.35,0.51,0.51,0,0,1-.45.6h-0.06m0.38-1.41a0.21,0.21,0,0,0-.18.2,0.49,0.49,0,0,1-.23.25,0.52,0.52,0,0,0-.28.64,0.33,0.33,0,0,0,.36.29,0.48,0.48,0,0,0,.42-0.57,0.63,0.63,0,0,1,.09-0.37,0.31,0.31,0,0,0,.07-0.24,0.2,0.2,0,0,0-.1-0.15,0.32,0.32,0,0,0-.16-0.05" transform="translate(-739.39 -894.4)"/>
      <path class="f" d="M788.08,919.8c0.2,0.1.37,0.24,0.27,0.9a1,1,0,0,0,.18.95,0.52,0.52,0,0,1-.58,0c-0.13.2-.41,0.13-0.51-0.13-0.15.11-.34-0.1-0.34-0.27-0.13.08-.38-0.05-0.3-0.44a0.43,0.43,0,0,1-.42-0.17,1.94,1.94,0,0,0,1-.56,0.61,0.61,0,0,1,.74-0.23" transform="translate(-739.39 -894.4)"/>
      <path d="M787.74,921.74h0a0.37,0.37,0,0,1-.28-0.24,0.17,0.17,0,0,1-.17,0,0.34,0.34,0,0,1-.17-0.27,0.2,0.2,0,0,1-.19,0,0.38,0.38,0,0,1-.11-0.42,0.46,0.46,0,0,1-.42-0.18v0h0a1.91,1.91,0,0,0,1-.56,0.63,0.63,0,0,1,.76-0.23c0.2,0.11.38,0.25,0.27,0.91a1.55,1.55,0,0,0,.08.88,0.12,0.12,0,0,0,.09.05h0.06l-0.05,0a0.55,0.55,0,0,1-.59,0,0.25,0.25,0,0,1-.2.1m-0.29-.25a0.34,0.34,0,0,0,.26.22,0.22,0.22,0,0,0,.21-0.11h0a1.48,1.48,0,0,0,.06-0.68h0a1.52,1.52,0,0,1-.06.71,0.48,0.48,0,0,0,.52,0l-0.06-.05a1.57,1.57,0,0,1-.09-0.9c0.11-.64-0.05-0.78-0.26-0.88a0.59,0.59,0,0,0-.72.22,2,2,0,0,1-.95.57,0.42,0.42,0,0,0,.39.15h0a1.85,1.85,0,0,0,.8-0.61l0,0a1.82,1.82,0,0,1-.83.62,0.37,0.37,0,0,0,.1.4,0.17,0.17,0,0,0,.18,0h0a1.66,1.66,0,0,0,.5-0.68h0a1.61,1.61,0,0,1-.53.71,0.33,0.33,0,0,0,.16.26,0.14,0.14,0,0,0,.16,0h0a1.06,1.06,0,0,0,.33-0.54h0a1.09,1.09,0,0,1-.34.56" transform="translate(-739.39 -894.4)"/>
      <path class="f" d="M785.3,907.76a3.11,3.11,0,0,0,1.63,3.07c-0.36-.21-0.2-0.95-0.69-1.19a1.33,1.33,0,0,0,.58.09,1.22,1.22,0,0,0-.9-0.85,2.56,2.56,0,0,0,.64,0c-0.28-.43-1-0.22-1.27-1.09" transform="translate(-739.39 -894.4)"/>
      <path d="M786.92,910.84a3.12,3.12,0,0,1-1.64-3.08v-0.1l0,0.09a1.08,1.08,0,0,0,.78.76,0.94,0.94,0,0,1,.49.32v0h0a1,1,0,0,1-.32,0h-0.18a1.32,1.32,0,0,1,.78.83v0h0l-0.14,0a0.77,0.77,0,0,1-.3-0.07l-0.06,0a1,1,0,0,1,.34.63,0.81,0.81,0,0,0,.27.52Zm-1.61-3a3.07,3.07,0,0,0,1.5,2.9,1.24,1.24,0,0,1-.17-0.43,0.9,0.9,0,0,0-.4-0.65l0,0h0.05a0.45,0.45,0,0,1,.15,0,0.8,0.8,0,0,0,.29.07h0.12a1.2,1.2,0,0,0-.88-0.82l-0.12,0h0.44a0.93,0.93,0,0,0,.29,0,1,1,0,0,0-.46-0.29,1.11,1.11,0,0,1-.77-0.7" transform="translate(-739.39 -894.4)"/>
      <path class="f" d="M785.13,906.16A0.35,0.35,0,0,1,785,906a0.28,0.28,0,0,1-.38-0.22c0,0.19-.15.18-0.22,0.19a1,1,0,0,1,.42,1.08,0.55,0.55,0,0,1-.85.1c0,0.7.87,0.92,1.19,0,0,0.15.19,0.13,0.24,0.33a1.33,1.33,0,0,0-.25-1.37" transform="translate(-739.39 -894.4)"/>
      <path d="M784.47,907.78a0.53,0.53,0,0,1-.38-0.16,0.63,0.63,0,0,1-.16-0.47v0l0,0a0.7,0.7,0,0,0,.43.15,0.4,0.4,0,0,0,.4-0.24,1,1,0,0,0-.42-1.06l0,0h0.06a0.22,0.22,0,0,0,.16-0.05,0.15,0.15,0,0,0,0-.12h0a0.26,0.26,0,0,0,.27.22H785a0.33,0.33,0,0,0,.15.15h0a1.32,1.32,0,0,1,.25,1.38l0,0v0a0.29,0.29,0,0,0-.14-0.18,0.25,0.25,0,0,1-.09-0.1,0.75,0.75,0,0,1-.66.53m-0.52-.6a0.6,0.6,0,0,0,.15.42,0.5,0.5,0,0,0,.36.15,0.74,0.74,0,0,0,.65-0.56l0-.08v0.08a0.16,0.16,0,0,0,.09.13,0.34,0.34,0,0,1,.13.16,1.32,1.32,0,0,0-.26-1.31A0.36,0.36,0,0,1,785,906h-0.09a0.28,0.28,0,0,1-.27-0.17,0.14,0.14,0,0,1,0,.06,0.22,0.22,0,0,1-.16.06,1,1,0,0,1,.4,1.07,0.43,0.43,0,0,1-.43.26,0.73,0.73,0,0,1-.42-0.14" transform="translate(-739.39 -894.4)"/>
      <path class="g" d="M783.69,902.85a2,2,0,0,1-.58-1.36c0-.36.16-0.75,0.69-0.59-0.16,0,0,.33-0.22.36a0.33,0.33,0,0,0,.35-0.14,1.62,1.62,0,0,1,.26.21,0.41,0.41,0,0,0-.13-0.45,0.47,0.47,0,0,0,.1-0.42,0.35,0.35,0,0,0-.23.29,0.3,0.3,0,1,0-.23-0.07,0.59,0.59,0,0,0-.6.27,1.55,1.55,0,0,1,.18-0.72c0-.06-0.07-0.18-0.15,0a0.6,0.6,0,0,0-.77-0.32,1.36,1.36,0,0,0-.6.17c-0.16.25-.68,0.27-0.65,0.53a0.8,0.8,0,0,1-.1.48c-0.19.21,0.09,0.37,0.14,0.55,0-.62,1-1.83,1.94-1.36a2.2,2.2,0,0,0-.2.84,2.15,2.15,0,0,0,.58,1.8Z" transform="translate(-739.39 -894.4)"/>
      <path d="M783.48,902.92h0a2.17,2.17,0,0,1-.58-1.81,2.28,2.28,0,0,1,.19-0.83,1,1,0,0,0-.44-0.1,1.65,1.65,0,0,0-1.46,1.45v0.14l0-.14a0.57,0.57,0,0,0-.1-0.17,0.28,0.28,0,0,1,0-.39,0.78,0.78,0,0,0,.09-0.47,0.38,0.38,0,0,1,.32-0.31,0.79,0.79,0,0,0,.34-0.23,0.26,0.26,0,0,1,.24-0.13h0.18a0.27,0.27,0,0,0,.18-0.06,0.31,0.31,0,0,1,.2-0.06,0.73,0.73,0,0,1,.58.36,0.12,0.12,0,0,1,.09-0.06,0.08,0.08,0,0,1,.07,0,0.07,0.07,0,0,1,0,.08,1.45,1.45,0,0,0-.17.65,0.64,0.64,0,0,1,.48-0.23h0.06a0.45,0.45,0,0,1,0-.42h0a0.4,0.4,0,0,1,.26.39,0.34,0.34,0,0,1,.2-0.18h0a0.52,0.52,0,0,1-.09.43,0.51,0.51,0,0,1,.15.32,0.17,0.17,0,0,1,0,.14l0,0v0a0.15,0.15,0,0,0-.12-0.1,0.25,0.25,0,0,1-.12-0.08,0.38,0.38,0,0,1-.28.13h-0.08l-0.05,0h0.05a0.18,0.18,0,0,0,.1-0.18,0.23,0.23,0,0,1,.07-0.16l-0.17,0a0.54,0.54,0,0,0-.45.61,2,2,0,0,0,.58,1.35l0,0Zm-0.84-2.78a1.08,1.08,0,0,1,.47.11h0a2.58,2.58,0,0,0,.38,2.62l0.18,0a2,2,0,0,1-.57-1.36,0.56,0.56,0,0,1,.48-0.64,0.78,0.78,0,0,1,.23,0l0.09,0h-0.1c-0.06,0-.08.06-0.09,0.15a0.26,0.26,0,0,1-.08.19,0.33,0.33,0,0,0,.29-0.14v0a0.17,0.17,0,0,0,.12.09,0.21,0.21,0,0,1,.13.1,0.21,0.21,0,0,0,0-.1,0.45,0.45,0,0,0-.15-0.31h0a0.45,0.45,0,0,0,.09-0.39,0.35,0.35,0,0,0-.2.24v0h0a0.2,0.2,0,0,1,0,0,0.41,0.41,0,0,0-.23-0.44,0.42,0.42,0,0,0,0,.41l0,0h-0.13a0.57,0.57,0,0,0-.49.27l0,0.08v-0.09a1.59,1.59,0,0,1,.18-0.73,0,0,0,0,0,0-.05,0.05,0.05,0,0,0,0,0,0.11,0.11,0,0,0-.08.07v0a0.7,0.7,0,0,0-.57-0.37,0.28,0.28,0,0,0-.18.06,0.29,0.29,0,0,1-.2.06H782a0.23,0.23,0,0,0-.22.11,0.77,0.77,0,0,1-.35.24,0.37,0.37,0,0,0-.3.28,0.8,0.8,0,0,1-.1.49,0.25,0.25,0,0,0,0,.36l0.07,0.12a1.61,1.61,0,0,1,.46-0.9,1.49,1.49,0,0,1,1-.51" transform="translate(-739.39 -894.4)"/>
      <path class="e" d="M784,900.9a0.54,0.54,0,0,1,.59-0.33c0.41,0,.73.38,1.06,0.34s0.17,0.15.1,0.2a0.19,0.19,0,0,0-.09.21c0,0.09,0,.15-0.15.07a7,7,0,0,0-1-.07c-0.34-.12-0.53-0.19-0.54-0.41" transform="translate(-739.39 -894.4)"/>
      <path d="M785.6,901.44a0.23,0.23,0,0,1-.11,0,0.44,0.44,0,0,0-.25-0.07l-0.21,0-0.25,0a0.73,0.73,0,0,1-.27,0h0c-0.33-.12-0.52-0.19-0.53-0.42a0.22,0.22,0,0,1,.07-0.16,0.74,0.74,0,0,1,.52-0.19h0a1.25,1.25,0,0,1,.57.19,0.9,0.9,0,0,0,.49.15,0.19,0.19,0,0,1,.21.05,0.21,0.21,0,0,1-.11.17,0.18,0.18,0,0,0-.08.2,0.11,0.11,0,0,1,0,.1,0.06,0.06,0,0,1-.05,0m-0.36-.14a0.48,0.48,0,0,1,.26.07,0.19,0.19,0,0,0,.1,0h0a0.09,0.09,0,0,0,0-.08,0.2,0.2,0,0,1,.09-0.23,0.2,0.2,0,0,0,.09-0.14,0.18,0.18,0,0,0-.18,0,0.91,0.91,0,0,1-.51-0.16,1.26,1.26,0,0,0-.56-0.19h0a0.72,0.72,0,0,0-.5.18,0.21,0.21,0,0,0-.07.14c0,0.21.19,0.27,0.51,0.39h0a0.74,0.74,0,0,0,.26,0l0.24,0,0.21,0" transform="translate(-739.39 -894.4)"/>
      <path class="k" d="M782.3,904.76a2.49,2.49,0,0,0-1.09-1.21v-0.28a3.7,3.7,0,0,0,.74-0.55c1.22,0.59,2.89-.24,3.66-1.11l0.29,0.18-0.15.2-0.16-.08a8.91,8.91,0,0,1-1.1,1,4,4,0,0,0,.78.12,6.51,6.51,0,0,1,1.49-1l0.22,0.29-0.2.14-0.15-.09a7.84,7.84,0,0,0-1.89,2.81c-0.46-.1-2.09,0-2.43-0.48" transform="translate(-739.39 -894.4)"/>
      <path d="M784.74,905.26h0a5.55,5.55,0,0,0-.62-0.06,3.12,3.12,0,0,1-1.81-.43h0a2.46,2.46,0,0,0-1.08-1.2h0l0-.3h0a3.76,3.76,0,0,0,.73-0.54h0c1.27,0.61,2.93-.3,3.64-1.11h0l0.32,0.2-0.16.22-0.16-.08a9.56,9.56,0,0,1-1.07,1,3.75,3.75,0,0,0,.74.11l0.43-.31a3.67,3.67,0,0,1,1.06-.65h0l0.23,0.31-0.21.15-0.16-.09a7.65,7.65,0,0,0-1.63,2.21h0c-0.1.2-.19,0.4-0.25,0.57h0Zm-2.42-.5a3.17,3.17,0,0,0,1.79.41,5.32,5.32,0,0,1,.61.06,5.66,5.66,0,0,1,.25-0.57,0,0,0,0,0,0,0,1.29,1.29,0,0,0-.67-0.23,18.39,18.39,0,0,0-1.93-.11v0a17,17,0,0,1,1.94.11,1.29,1.29,0,0,1,.69.24h0a7.62,7.62,0,0,1,1.62-2.19h0l0.16,0.09,0.18-.13-0.21-.27a3.75,3.75,0,0,0-1,.64l-0.44.32h0a2.45,2.45,0,0,1-2.53,0,1.62,1.62,0,0,0-.36,1.47h0a1.63,1.63,0,0,1,.38-1.5h0a2.42,2.42,0,0,0,2.47,0,4.39,4.39,0,0,1-.74-0.12h0l-0.22-.08a1.56,1.56,0,0,1-.88.24v0a1.5,1.5,0,0,0,.86-0.24h0a1.19,1.19,0,0,0,.24.09,9.26,9.26,0,0,0,1.09-1h0l0.15,0.08,0.13-.17-0.27-.17c-0.72.81-2.38,1.72-3.66,1.11a3.82,3.82,0,0,1-.72.54v0.26a2.51,2.51,0,0,1,1.09,1.21m0.29-.56-0.17-.17,0.17-.17,0.17,0.17Zm-0.13-.17,0.13,0.13,0.13-.13-0.13-.13Z" transform="translate(-739.39 -894.4)"/>
      <path class="g" d="M783,901.13c-0.19-.26-0.71-0.35-0.82,0a0.68,0.68,0,0,1-.24.39,0.33,0.33,0,0,0,0,.39,1.09,1.09,0,0,0,.27.62,0.63,0.63,0,0,1,.51-0.43,0.89,0.89,0,0,0,.65-0.5c0-.24.13-0.43-0.33-0.48" transform="translate(-739.39 -894.4)"/>
      <path d="M782.15,902.57h0a0.43,0.43,0,0,1-.2-0.36,0.76,0.76,0,0,0-.07-0.27,0.34,0.34,0,0,1,0-.41,0.65,0.65,0,0,0,.24-0.38,0.35,0.35,0,0,1,.36-0.24,0.6,0.6,0,0,1,.47.23,0.46,0.46,0,0,1,.34.13,0.39,0.39,0,0,1,0,.31v0.05a0.9,0.9,0,0,1-.66.51,0.62,0.62,0,0,0-.5.42v0Zm0.35-1.65a0.32,0.32,0,0,0-.34.22,0.68,0.68,0,0,1-.25.4,0.31,0.31,0,0,0,0,.37,0.76,0.76,0,0,1,.08.28,0.41,0.41,0,0,0,.16.33,0.67,0.67,0,0,1,.53-0.42,0.88,0.88,0,0,0,.63-0.49v-0.05a0.37,0.37,0,0,0,0-.29,0.45,0.45,0,0,0-.32-0.12h0a0.58,0.58,0,0,0-.45-0.22" transform="translate(-739.39 -894.4)"/>
      <path class="k" d="M781.79,903.48h0.07v0.45l0,0,0.38-.22,0,0.06-0.39.22a0.11,0.11,0,0,1,0,0l0.38,0.22,0,0.06-0.39-.22,0,0v0.45h-0.07v-0.45l0,0-0.38.22,0-.06,0.39-.22a0.11,0.11,0,0,1,0,0l-0.38-.22,0-.06,0.39,0.22,0,0v-0.44Z" transform="translate(-739.39 -894.4)"/>
      <path d="M781.87,904.59h-0.09v-0.45h0l-0.39.22,0-.08,0.39-.23a0.29,0.29,0,0,1,0,0l-0.39-.22,0-.08,0.39,0.22,0,0v-0.45h0.09v0.45h0l0.39-.22,0,0.08-0.39.23v0l0.39,0.22,0,0.08-0.39-.23,0,0v0.45Zm-0.06,0h0v-0.44h0l0,0h0l0.38,0.22,0,0-0.38-.22h0a0.12,0.12,0,0,0,0,0h0l0.38-.22,0,0-0.38.22h0l0,0h0V903.5h0v0.44h0l0,0h0l-0.38-.22,0,0,0.38,0.22h0a0.12,0.12,0,0,0,0,0h0l-0.38.22,0,0,0.38-.22h0l0,0h0v0.44Z" transform="translate(-739.39 -894.4)"/>
      <path class="k" d="M782.37,904.58a0.77,0.77,0,1,1,.07-1,1.7,1.7,0,0,0-.09.41,0.53,0.53,0,1,0-.53.58,0.54,0.54,0,0,0,.52-0.39,1.72,1.72,0,0,0,0,.41" transform="translate(-739.39 -894.4)"/>
      <path d="M781.82,904.82a0.79,0.79,0,1,1,.63-1.27h0a1.63,1.63,0,0,0-.09.41h0a0.51,0.51,0,1,0-.51.57,0.53,0.53,0,0,0,.5-0.38l0-.11v0.11a1.62,1.62,0,0,0,0,.41h0a0.79,0.79,0,0,1-.56.23m0-1.55a0.76,0.76,0,1,0,.53,1.3,1.55,1.55,0,0,1,0-.33,0.56,0.56,0,0,1-.5.33,0.54,0.54,0,1,1,.52-0.7,1.76,1.76,0,0,1,.08-0.31,0.75,0.75,0,0,0-.6-0.29" transform="translate(-739.39 -894.4)"/>
      <path class="g" d="M781.5,905.31a0.57,0.57,0,0,1-.13-0.33,0.42,0.42,0,0,1,.28.11,1.52,1.52,0,0,1,0-.34,0.73,0.73,0,0,1,.34.26,1.16,1.16,0,0,1,0-.42,0.79,0.79,0,0,1,.29.32,1.41,1.41,0,0,1,.12-0.5,2.3,2.3,0,0,1,.26.24,0.42,0.42,0,0,1,.18-0.33,1,1,0,0,1,.21.48,0.59,0.59,0,0,0,.21-0.21,0.46,0.46,0,0,1,.06.32,0.71,0.71,0,0,0,.22-0.29,0.64,0.64,0,0,1,.22.3,3.3,3.3,0,0,0,0-.4,0.47,0.47,0,0,1,.25.3,1,1,0,0,1,.17-0.37,0.89,0.89,0,0,1,.12.42,0.68,0.68,0,0,1,.17-0.26,0.71,0.71,0,0,1,0,.39,0.81,0.81,0,0,1,.23-0.21,0.69,0.69,0,0,1,0,.22,1,1,0,0,0,.24-0.37,0.56,0.56,0,0,1,.24.35,0.89,0.89,0,0,0,.29-0.26,1.16,1.16,0,0,1,0,.33,0.94,0.94,0,0,0,.12-0.19,0.77,0.77,0,0,1,0,.38,0.42,0.42,0,0,1,.25-0.11,1.46,1.46,0,0,1-.18.56,25.59,25.59,0,0,0-4.07-.39" transform="translate(-739.39 -894.4)"/>
      <path d="M785.58,905.72h0a23.89,23.89,0,0,0-3.87-.38h-0.21a0.59,0.59,0,0,1-.13-0.34h0a0.46,0.46,0,0,1,.26.09v0a1.06,1.06,0,0,1,0-.27v0h0a0.84,0.84,0,0,1,.31.21,1,1,0,0,1,0-.37v0h0a0.91,0.91,0,0,1,.28.28,1.35,1.35,0,0,1,.11-0.45h0l0.1,0.08a0.88,0.88,0,0,1,.15.13,0.41,0.41,0,0,1,.18-0.31h0a1,1,0,0,1,.21.47,0.65,0.65,0,0,0,.19-0.2v0a0.45,0.45,0,0,1,.06.29,0.62,0.62,0,0,0,.19-0.26v0h0a0.72,0.72,0,0,1,.19.22s0,0,0-.05a1.15,1.15,0,0,0,0-.25v0l0,0a0.5,0.5,0,0,1,.24.26,0.85,0.85,0,0,1,.16-0.33h0a1.16,1.16,0,0,1,.12.36,0.5,0.5,0,0,1,.15-0.21h0a0.63,0.63,0,0,1,0,.35,0.75,0.75,0,0,1,.2-0.17h0v0a0.72,0.72,0,0,1,0,.19,1.19,1.19,0,0,0,.2-0.35v0h0a0.57,0.57,0,0,1,.24.34,0.91,0.91,0,0,0,.27-0.25l0,0v0.05s0,0,0,.05a1.16,1.16,0,0,1,0,.23l0.06-.11,0,0,0,0v0a0.75,0.75,0,0,1,0,.35,0.43,0.43,0,0,1,.22-0.08h0a1.56,1.56,0,0,1-.18.57h0Zm-4.08-.42h0.19a24.25,24.25,0,0,1,3.87.38,1.54,1.54,0,0,0,.17-0.53,0.45,0.45,0,0,0-.22.1l0,0v0a0.91,0.91,0,0,0,0-.34h0a0.66,0.66,0,0,1-.11.16l0,0V905a0.81,0.81,0,0,0,0-.27v0a0.91,0.91,0,0,1-.28.23h0v0a0.56,0.56,0,0,0-.21-0.33,1,1,0,0,1-.24.37l0,0v0a0.63,0.63,0,0,0,0-.2,0.81,0.81,0,0,0-.21.2l0,0.05V905a0.76,0.76,0,0,0,0-.37,0.7,0.7,0,0,0-.14.22l0,0.09v-0.07a0.85,0.85,0,0,0-.11-0.39,1.13,1.13,0,0,0-.15.35l0,0.06v-0.06a0.44,0.44,0,0,0-.21-0.28,1.46,1.46,0,0,1,0,.22,1.19,1.19,0,0,0,0,.15h0a0.6,0.6,0,0,0-.2-0.28,0.8,0.8,0,0,1-.22.28l0,0v0a0.44,0.44,0,0,0,0-.29,0.57,0.57,0,0,1-.21.2h0v0a0.93,0.93,0,0,0-.2-0.46,0.42,0.42,0,0,0-.16.31v0l0,0a0.82,0.82,0,0,0-.16-0.15l-0.09-.07a1.55,1.55,0,0,0-.1.47V905l0-.08a0.77,0.77,0,0,0-.27-0.3,1.33,1.33,0,0,0,0,.4l0,0.1,0-.09a0.71,0.71,0,0,0-.32-0.25,1.34,1.34,0,0,0,0,.25v0.12l0,0a0.42,0.42,0,0,0-.25-0.1h0a0.57,0.57,0,0,0,.12.3" transform="translate(-739.39 -894.4)"/>
      <path class="f" d="M784.23,901a0.35,0.35,0,0,1,.37-0.2c0.29,0,.56.21,0.79,0.2s0.12,0.06.07,0.08-0.08,0-.06.09,0,0.06-.11,0-0.41,0-.68,0a0.42,0.42,0,0,1-.38-0.17" transform="translate(-739.39 -894.4)"/>
      <path class="f" d="M781.75,905.8c-0.24.3-.49,0.25-0.54,0.06s0.13-.28.06-0.44a0.13,0.13,0,0,1,.19-0.16c0.08,0.07.34-.16,0.46,0.08a0.67,0.67,0,0,1,.14.51,0.21,0.21,0,0,1-.31,0" transform="translate(-739.39 -894.4)"/>
      <path d="M781.4,906a0.21,0.21,0,0,1-.21-0.16,0.34,0.34,0,0,1,0-.24,0.23,0.23,0,0,0,0-.2,0.16,0.16,0,0,1,0-.15,0.14,0.14,0,0,1,.12-0.06,0.13,0.13,0,0,1,.09,0,0.18,0.18,0,0,0,.13,0l0.15,0a0.19,0.19,0,0,1,.18.12l0,0.05a0.57,0.57,0,0,1,.11.47,0.15,0.15,0,0,1-.13.06,0.24,0.24,0,0,1-.19-0.09,0.49,0.49,0,0,1-.35.2m0-.79a0.11,0.11,0,0,0-.09,0,0.13,0.13,0,0,0,0,.13,0.26,0.26,0,0,1,0,.22,0.3,0.3,0,0,0,0,.22,0.18,0.18,0,0,0,.18.14,0.48,0.48,0,0,0,.34-0.21v0a0.21,0.21,0,0,0,.18.09,0.13,0.13,0,0,0,.11,0,0.58,0.58,0,0,0-.12-0.45l0-.05a0.16,0.16,0,0,0-.15-0.11l-0.14,0a0.18,0.18,0,0,1-.16,0l-0.07,0" transform="translate(-739.39 -894.4)"/>
      <path class="f" d="M782.8,905.36c0-.11.21-0.31,0.34-0.17s0.34-.16.45,0.07,0.15,0.36.21,0.49-0.31.2-.42,0.09c0,0.08-.32.14-0.41-0.08l-0.17-.4" transform="translate(-739.39 -894.4)"/>
      <path d="M783.22,905.92a0.27,0.27,0,0,1-.27-0.16l-0.05-.13-0.11-.27a0.11,0.11,0,0,1,0-.11,0.29,0.29,0,0,1,.22-0.13,0.16,0.16,0,0,1,.12.06,0.1,0.1,0,0,0,.08,0l0.11,0a0.36,0.36,0,0,1,.12,0,0.15,0.15,0,0,1,.13.1c0.08,0.15.12,0.26,0.16,0.35l0.05,0.13a0.08,0.08,0,0,1,0,.08,0.32,0.32,0,0,1-.25.09,0.31,0.31,0,0,1-.18,0h0a0.21,0.21,0,0,1-.16,0m-0.19-.77a0.26,0.26,0,0,0-.19.11,0.09,0.09,0,0,0,0,.09l0.11,0.27,0.05,0.13a0.25,0.25,0,0,0,.24.14,0.2,0.2,0,0,0,.14,0h0v0l0,0a0.26,0.26,0,0,0,.17.05,0.29,0.29,0,0,0,.22-0.08,0,0,0,0,0,0,0l-0.05-.13c0-.09-0.08-0.2-0.15-0.35a0.12,0.12,0,0,0-.11-0.08l-0.11,0a0.37,0.37,0,0,1-.12,0,0.12,0.12,0,0,1-.1,0,0.14,0.14,0,0,0-.1,0" transform="translate(-739.39 -894.4)"/>
      <path class="f" d="M784.5,905.5c-0.06-.12.24-0.28,0.39-0.07a0.21,0.21,0,0,1,.35.15c0,0.25,0,.4,0,0.49s-0.18.19-.31-0.06a0.29,0.29,0,0,1-.38-0.23,1,1,0,0,0-.09-0.28" transform="translate(-739.39 -894.4)"/>
      <path d="M785.17,906.18A0.25,0.25,0,0,1,785,906a0.3,0.3,0,0,1-.39-0.24,1.08,1.08,0,0,0-.09-0.28,0.09,0.09,0,0,1,0-.09,0.25,0.25,0,0,1,.21-0.1,0.26,0.26,0,0,1,.19.09,0.19,0.19,0,0,1,.13,0,0.22,0.22,0,0,1,.24.22c0,0.15,0,.26,0,0.35v0.14a0.1,0.1,0,0,1,0,.08,0.13,0.13,0,0,1-.1,0M785,906h0a0.24,0.24,0,0,0,.19.15,0.1,0.1,0,0,0,.08,0,0.06,0.06,0,0,0,0-.05v-0.14c0-.09,0-0.2,0-0.35a0.2,0.2,0,0,0-.21-0.19,0.14,0.14,0,0,0-.12,0v0l0,0a0.23,0.23,0,0,0-.36,0,0.06,0.06,0,0,0,0,.06,1.19,1.19,0,0,1,.09.29,0.26,0.26,0,0,0,.27.23H785Z" transform="translate(-739.39 -894.4)"/>
      <path class="g" d="M781.91,905.33c0-.08.21-0.24,0.38-0.12s0.4-.11.5,0.12c0.2,0.44.21,0.48,0.15,0.56a0.29,0.29,0,0,1-.39-0.06c0,0.08-.24.07-0.36,0a1,1,0,0,1-.28-0.49" transform="translate(-739.39 -894.4)"/>
      <path d="M782.8,906a0.34,0.34,0,0,1-.25-0.1,0.16,0.16,0,0,1-.13,0,0.51,0.51,0,0,1-.23-0.05,1,1,0,0,1-.28-0.48v0a0.07,0.07,0,0,1,0-.07,0.31,0.31,0,0,1,.24-0.12,0.24,0.24,0,0,1,.15,0,0.2,0.2,0,0,0,.12,0h0.22a0.17,0.17,0,0,1,.16.11c0.2,0.45.22,0.49,0.15,0.58a0.18,0.18,0,0,1-.15.05m-0.26-.17,0,0a0.28,0.28,0,0,0,.24.11,0.15,0.15,0,0,0,.12,0c0.06-.08,0-0.1-0.15-0.55a0.13,0.13,0,0,0-.14-0.09h-0.22a0.22,0.22,0,0,1-.14,0,0.22,0.22,0,0,0-.13,0,0.28,0.28,0,0,0-.22.1,0,0,0,0,0,0,0v0a1,1,0,0,0,.27.47,0.51,0.51,0,0,0,.22,0,0.1,0.1,0,0,0,.12,0v0Z" transform="translate(-739.39 -894.4)"/>
      <path class="g" d="M783.63,905.35c-0.06-.13.33-0.24,0.49,0,0.09-.08.27-0.08,0.38,0.16s0.12,0.38,0,.44a0.25,0.25,0,0,1-.32,0,0.36,0.36,0,0,1-.43-0.15c-0.06-.16-0.11-0.29-0.17-0.4" transform="translate(-739.39 -894.4)"/>
      <path d="M784.39,906a0.2,0.2,0,0,1-.17-0.07l-0.1,0a0.37,0.37,0,0,1-.34-0.18c-0.06-.16-0.12-0.29-0.17-0.4a0.08,0.08,0,0,1,0-.07,0.28,0.28,0,0,1,.23-0.09,0.35,0.35,0,0,1,.28.12,0.21,0.21,0,0,1,.13,0,0.31,0.31,0,0,1,.27.21c0.11,0.25.12,0.39,0,.46a0.3,0.3,0,0,1-.16,0m-0.16-.11h0a0.17,0.17,0,0,0,.15.07,0.26,0.26,0,0,0,.15,0c0.07-.05.05-0.18,0-0.42a0.28,0.28,0,0,0-.24-0.2,0.18,0.18,0,0,0-.12,0h0a0.32,0.32,0,0,0-.26-0.12,0.26,0.26,0,0,0-.2.07,0,0,0,0,0,0,0c0.06,0.11.11,0.24,0.17,0.4a0.34,0.34,0,0,0,.31.16l0.1,0h0Z" transform="translate(-739.39 -894.4)"/>
      <path class="g" d="M785.25,905.59c0-.11.2-0.17,0.28,0s0.33,0,.35.29a0.71,0.71,0,0,1-.11.36,0.36,0.36,0,0,1-.48-0.21c0-.21,0-0.33,0-0.44" transform="translate(-739.39 -894.4)"/>
      <path d="M785.66,906.3l-0.12,0a0.33,0.33,0,0,1-.26-0.24V906h0a0.25,0.25,0,0,0-.14-0.16,0.33,0.33,0,0,1-.2-0.27h0a0.31,0.31,0,0,0,.19.24,0.51,0.51,0,0,1,.12.1c0-.13,0-0.22,0-0.3a0.12,0.12,0,0,1,.1-0.12,0.18,0.18,0,0,1,.21.11h0a0.19,0.19,0,0,0,.15.08,0.2,0.2,0,0,1,.2.21,0.7,0.7,0,0,1-.11.37,0.16,0.16,0,0,1-.13,0m-0.28-.79h0a0.09,0.09,0,0,0-.07.09h0c0,0.11,0,.23,0,0.44a0.31,0.31,0,0,0,.24.22,0.23,0.23,0,0,0,.21,0,0.66,0.66,0,0,0,.1-0.34,0.17,0.17,0,0,0-.17-0.18,0.3,0.3,0,0,1-.12,0,0.66,0.66,0,0,1,0,.15h0a0.5,0.5,0,0,0,0-.21h0a0.16,0.16,0,0,0-.14-0.1M785,906a0.69,0.69,0,0,0-.25-0.28v0a0.71,0.71,0,0,1,.26.29Zm-0.74-.11,0,0a0.55,0.55,0,0,1-.09-0.17h0a0.58,0.58,0,0,0,.09.16l0,0Zm-0.85-.06a0.66,0.66,0,0,1-.19-0.21h0a0.66,0.66,0,0,0,.18.2Zm-0.83,0a1,1,0,0,1-.15-0.28h0a0.93,0.93,0,0,0,.14.27Zm1.26,0a0.47,0.47,0,0,1-.22-0.19,0.44,0.44,0,0,0-.28-0.21v0a0.47,0.47,0,0,1,.29.22,0.47,0.47,0,0,0,.2.18v0Zm-2.06,0,0,0a0.33,0.33,0,0,0-.2-0.17h0a0.17,0.17,0,0,0-.13.09l0,0a0.2,0.2,0,0,1,.15-0.1h0a0.35,0.35,0,0,1,.22.19l0,0Zm2.48-.28a1.18,1.18,0,0,0-.11-0.19l0,0a1.09,1.09,0,0,1,.12.19h0Z" transform="translate(-739.39 -894.4)"/>
    </g>
  </g>
</svg>
