<svg xmlns="http://www.w3.org/2000/svg" xmlns:xlink="http://www.w3.org/1999/xlink" viewBox="0 0 58.92 34.37">
  <defs>
    <style>
      .a {
        fill: none;
      }

      .b {
        clip-path: url(#a);
      }

      .c {
        fill: #3e81c5;
      }

      .d {
        fill: #f1d62f;
      }

      .e {
        fill: #347d59;
      }

      .f {
        fill: #dfad29;
      }
    </style>
    <clipPath id="a" transform="translate(-175 -952.3)">
      <rect class="a" x="175" y="952.3" width="58.92" height="34.37"/>
    </clipPath>
  </defs>
  <title>Rwanda</title>
  <g class="b">
    <rect class="c" width="58.92" height="17.19"/>
    <rect class="d" y="17.19" width="58.92" height="8.59"/>
    <rect class="e" y="25.78" width="58.92" height="8.59"/>
    <polygon class="f" points="55.43 12.51 52.77 10.47 54.05 13.57 52.01 10.91 52.44 14.24 51.16 11.14 50.72 14.47 50.28 11.14 48.99 14.24 49.43 10.91 47.38 13.57 48.67 10.47 46 12.51 48.05 9.85 44.94 11.13 47.61 9.09 44.27 9.53 47.38 8.24 44.05 7.8 47.38 7.36 44.27 6.07 47.61 6.51 44.94 4.46 48.05 5.75 46 3.08 48.67 5.13 47.38 2.02 49.43 4.68 48.99 1.35 50.28 4.46 50.72 1.13 51.16 4.46 52.44 1.35 52.01 4.68 54.05 2.02 52.77 5.13 55.43 3.08 53.39 5.75 56.49 4.46 53.83 6.51 57.16 6.07 54.06 7.36 57.39 7.8 54.06 8.24 57.16 9.53 53.83 9.09 56.49 11.13 53.39 9.85 55.43 12.51"/>
    <g class="b">
      <path class="f" d="M228.14,960.1a2.43,2.43,0,1,1-2.43-2.43,2.43,2.43,0,0,1,2.43,2.43h0Z" transform="translate(-175 -952.3)"/>
      <path class="c" d="M225.72,962.65a2.55,2.55,0,1,1,2.55-2.55,2.55,2.55,0,0,1-2.55,2.55h0Zm0-4.86A2.31,2.31,0,1,0,228,960.1a2.31,2.31,0,0,0-2.31-2.31h0Z" transform="translate(-175 -952.3)"/>
    </g>
  </g>
</svg>
