<svg xmlns="http://www.w3.org/2000/svg" xmlns:xlink="http://www.w3.org/1999/xlink" viewBox="0 0 58.92 34.37">
  <defs>
    <style>
      .a {
        fill: none;
      }

      .b {
        clip-path: url(#a);
      }

      .c {
        fill: #120065;
      }

      .d {
        fill: #fff;
      }

      .e {
        fill: #bc0030;
      }

      .f {
        fill: #99c2fd;
      }

      .g {
        fill: #4968c5;
      }

      .h {
        fill: #58340c;
      }

      .i {
        fill: #fcff2c;
      }

      .j {
        fill: #c0601c;
      }

      .k {
        fill: #4bb917;
      }

      .l {
        fill: #59da62;
      }

      .m {
        fill: #db0037;
      }
    </style>
    <clipPath id="a" transform="translate(-387.06 -952.3)">
      <rect class="a" x="387.06" y="952.3" width="58.92" height="34.37"/>
    </clipPath>
  </defs>
  <title>Saint_Helena</title>
  <g class="b">
    <rect class="c" width="58.92" height="34.37"/>
    <polygon class="d" points="25.83 0 17.14 4.33 17.14 0 12.25 0 12.25 4.33 3.55 0 0 0 0 1.79 6.21 4.91 0 4.91 0 9.82 6.21 9.82 0 12.94 0 14.73 3.55 14.73 12.25 10.4 12.25 14.73 17.14 14.73 17.14 10.4 25.83 14.73 29.42 14.73 29.42 12.94 23.17 9.82 29.42 9.82 29.42 4.91 23.17 4.91 29.42 1.79 29.42 0 25.83 0"/>
    <polygon class="e" points="27.11 0 17.29 4.91 19.64 4.91 29.42 0 27.11 0"/>
    <polygon class="e" points="29.42 14.73 19.63 9.82 21.99 9.82 29.42 13.56 29.42 14.73"/>
    <polygon class="e" points="0 1.17 7.47 4.91 9.84 4.91 0 0 0 1.17"/>
    <polygon class="e" points="9.82 9.82 0 14.73 2.35 14.73 12.17 9.82 9.82 9.82"/>
    <polygon class="e" points="13.29 0 13.29 5.93 0 5.93 0 8.8 13.29 8.8 13.29 14.73 16.17 14.73 16.17 8.8 29.42 8.8 29.42 5.93 16.17 5.93 16.17 0 13.29 0"/>
    <g class="b">
      <path class="f" d="M436.12,966.77c0,3.34-.54,6.94-4.86,8.66-4.32-1.71-4.85-5.31-4.86-8.66h9.72Z" transform="translate(-387.06 -952.3)"/>
      <path class="d" d="M431.26,975.54l0,0c-4.31-1.71-4.92-5.22-4.93-8.75v-0.1h9.93v0.1c0,3.54-.61,7-4.93,8.75l0,0h0Zm-4.76-8.67c0,3.42.64,6.79,4.76,8.44,4.12-1.65,4.74-5,4.76-8.44H426.5Z" transform="translate(-387.06 -952.3)"/>
      <path class="g" d="M431.26,975.42a7,7,0,0,0,3.85-3.29h-0.42c-0.11,0-4.15-.41-4.63-0.59a2.67,2.67,0,1,0,1.2,3.89h0Z" transform="translate(-387.06 -952.3)"/>
      <path class="h" d="M428.23,973.35a0.68,0.68,0,0,1,.24,0c0.06,0,.07,0,0.09,0s0.07,0,.11,0a0.14,0.14,0,0,0,.17,0c0-.05,0,0,0.09,0a0.07,0.07,0,0,0,.09,0,0.25,0.25,0,0,0,.13-0.11c0-.06.08-0.08,0.11,0a0.09,0.09,0,0,0,.09,0s0,0,0,.08,0,0.06.11,0c0.08,0.08.11,0,.11,0a1.84,1.84,0,0,0-.05-0.44,0.6,0.6,0,0,1-.07-0.26c0-.18,0-0.19-0.23-0.3,0-.06,0-0.09-0.17-0.08A0.17,0.17,0,0,0,429,972s0,0,0-.11a0.17,0.17,0,0,0,.17-0.06,0.23,0.23,0,0,1,.23,0,0.58,0.58,0,0,0,.31,0,2,2,0,0,1,.24-0.14,0.17,0.17,0,0,0,.13-0.15A1.07,1.07,0,0,0,430,971c-0.05-.1-0.07-0.23-0.14-0.39a1.13,1.13,0,0,0-.17-0.32,0.17,0.17,0,0,1-.06-0.11,0.3,0.3,0,0,0-.09-0.2,2.28,2.28,0,0,1-.29-1,3,3,0,0,0-.1-0.75,0.68,0.68,0,0,0-.31-0.13,2.71,2.71,0,0,1-.16-0.46,0.79,0.79,0,0,0-.24.16,0.11,0.11,0,0,0-.08.13,0.78,0.78,0,0,1-.15.38,2.64,2.64,0,0,0-.39.33,1.07,1.07,0,0,1-.32-0.56,0.5,0.5,0,0,0-.23-0.27,2.13,2.13,0,0,1,0-.31c-0.12-.1-0.21-0.09-0.27,0a0.64,0.64,0,0,1-.19.23,4.35,4.35,0,0,0-.35.45,8.53,8.53,0,0,0,1.79,5.16h0Z" transform="translate(-387.06 -952.3)"/>
      <path class="i" d="M436.12,966.77c0-1.26-.07-2.48,0-3.55a13.81,13.81,0,0,0-9.65,0c0,1.07,0,2.29,0,3.55h9.72Z" transform="translate(-387.06 -952.3)"/>
      <path class="d" d="M436.22,966.87h-9.92v-0.1c0-.55,0-1.08,0-1.61,0-.69,0-1.34,0-1.94v-0.07l0.06,0a13.89,13.89,0,0,1,9.74,0l0.06,0v0.07c0,0.6,0,1.25,0,1.94,0,0.52,0,1.06,0,1.61v0.1h0Zm-9.72-.2H436c0-.51,0-1,0-1.5,0-.66,0-1.29,0-1.88a13.77,13.77,0,0,0-9.45,0c0,0.59,0,1.22,0,1.88,0,0.49,0,1,0,1.5h0Z" transform="translate(-387.06 -952.3)"/>
      <path class="j" d="M426.66,968.22a1.15,1.15,0,0,1,.16.31,0.71,0.71,0,0,0,.07-0.16,0.41,0.41,0,0,0,0-.19c0-.05,0-0.09,0-0.05a0.18,0.18,0,0,1,0,.2c0,0.26-.14.31-0.16,0.49,0.16,0.37,0,.5.21,0.86a0.38,0.38,0,0,0,.12,0,0.31,0.31,0,0,1,.29,0,0.22,0.22,0,0,1,.2.2,0.24,0.24,0,0,0,0,.15,0.32,0.32,0,0,1,.07.17,0.14,0.14,0,0,0,0,.11,0.19,0.19,0,0,1,0,.13,0.16,0.16,0,0,0,.05.16,1.41,1.41,0,0,1,.21.61,0.32,0.32,0,0,0,.09.32,0.13,0.13,0,0,1,.1.15,4.88,4.88,0,0,0,0,.6,0.12,0.12,0,0,0,.07.09,0.17,0.17,0,0,0,.16.08,2.77,2.77,0,0,1,.28,0,1.13,1.13,0,0,1,.18.43,0.58,0.58,0,0,0,.06.26s0.07,0,.06-0.13a0.33,0.33,0,0,0-.07-0.23c0-.07-0.07-0.1,0-0.14a0.25,0.25,0,0,0,0-.17c0-.05,0-0.13.06,0l0.14,0.17a0.28,0.28,0,0,1,0,.17c0,0.06,0,.09,0,0.06s0.08,0,.06.09a0.1,0.1,0,0,0,.07.13,0.13,0.13,0,0,1,.11.08s0.07,0.07.07,0a1.46,1.46,0,0,0-.06-0.36,1.07,1.07,0,0,1-.05-0.28,0.1,0.1,0,0,0-.06-0.12,0.11,0.11,0,0,1-.07-0.08,0.06,0.06,0,0,0-.06-0.05,0.07,0.07,0,0,1-.06,0,0.06,0.06,0,0,0-.05,0s-0.07,0-.08,0A0.47,0.47,0,0,0,429,972a0.21,0.21,0,0,1-.05-0.17,0.21,0.21,0,0,0,0-.18,1.82,1.82,0,0,1-.13-0.2s-0.05-.1-0.05,0a0.18,0.18,0,0,0,.06.19c0.06,0,.08,0,0.05.09a0.15,0.15,0,0,0,0,.13,0.1,0.1,0,0,1,0,.11s-0.06,0-.06,0a0.33,0.33,0,0,0,0-.18s0-.08-0.08-0.05-0.06,0,0,0a0,0,0,0,0,0-.05s0,0,0-.06a0.11,0.11,0,0,0,0-.12,3.17,3.17,0,0,0-.19-0.53c-0.05-.08,0-0.15,0-0.06a0.51,0.51,0,0,1,.13.23,0.23,0.23,0,0,0,0,.14s0,0,0,0,0.05,0,0-.15a1.47,1.47,0,0,1-.27-0.63,2.69,2.69,0,0,0-.13-0.65,0.34,0.34,0,0,1-.07-0.2,0.55,0.55,0,0,0,0-.23c0-.06-0.06-0.07-0.07,0a1.1,1.1,0,0,0,0,.35,0.37,0.37,0,0,1,0,.19c0,0.05-.09.11,0.08,0.21a0.11,0.11,0,0,1,0,.14s0,0-.06,0a0.66,0.66,0,0,0-.11-0.14,0.12,0.12,0,0,1,0-.13,0.28,0.28,0,0,0,0-.15s0,0,0,0a1.06,1.06,0,0,1,0,.19s0,0,0-.06a0.66,0.66,0,0,1,0-.3,0.79,0.79,0,0,0,0-.41,0.5,0.5,0,0,0-.14-0.34,1.34,1.34,0,0,1-.32-0.43,1.54,1.54,0,0,0-.13-0.38,0.92,0.92,0,0,0-.21-0.2v-0.24a0.08,0.08,0,0,0-.1-0.09,0.24,0.24,0,0,0-.15.15,0.72,0.72,0,0,0-.13.18,0.85,0.85,0,0,0-.14.36h0Z" transform="translate(-387.06 -952.3)"/>
      <path class="j" d="M427,969.78a0.13,0.13,0,0,0,.15,0c0.06,0,.14-0.12.22,0a0.56,0.56,0,0,1,.13.36,0.62,0.62,0,0,0,.13.46,0.57,0.57,0,0,1,.21.41,2.68,2.68,0,0,0,.08.47,0.46,0.46,0,0,0,.1.18,0.52,0.52,0,0,1,.08.29,2.68,2.68,0,0,0,0,.28c0,0.06,0,.12,0,0.08a0.2,0.2,0,0,1-.09-0.1c0-.05-0.06,0,0,0a0.22,0.22,0,0,0,.18.15,0.15,0.15,0,0,1,.13.05,0.13,0.13,0,0,0,.12.06,0.37,0.37,0,0,1,.15,0,0.12,0.12,0,0,0,.11,0s0.07,0,.1.09a1.62,1.62,0,0,1,.09.31,0.26,0.26,0,0,0,0,.16c0,0.05,0,.11,0,0.07a0.06,0.06,0,0,0-.07,0,0.14,0.14,0,0,1-.1,0,0.18,0.18,0,0,1-.06-0.09c0-.06-0.07-0.08-0.07,0s0,0.11,0,.08a0,0,0,0,0-.07,0s0,0-.07,0a0.13,0.13,0,0,0-.1-0.06s0,0,0-.06a0.1,0.1,0,0,0-.11-0.06,0.06,0.06,0,0,1-.07-0.05,0.13,0.13,0,0,0-.05-0.07,0.13,0.13,0,0,1,0-.09s0,0-.06,0,0,0,0-.06a0.21,0.21,0,0,0,0-.11,0.17,0.17,0,0,1,0-.12,0.11,0.11,0,0,0,0-.11,0.41,0.41,0,0,0-.09-0.15c-0.09-.07-0.13,0-0.15-0.18a2.68,2.68,0,0,0-.13-0.6,0.33,0.33,0,0,0-.13-0.12s-0.08,0-.08-0.11a0.49,0.49,0,0,0-.1-0.29l-0.12-.11a0.13,0.13,0,0,1,0-.16,0.56,0.56,0,0,0,0-.27,0.73,0.73,0,0,1,0-.2,0.43,0.43,0,0,0,0-.19s0-.05,0-0.09h0Z" transform="translate(-387.06 -952.3)"/>
      <path class="j" d="M428.32,968.27a1.18,1.18,0,0,1-.25.24c-0.1.07-.23,0.13-0.15,0.25a0.69,0.69,0,0,1,.14.23,0.21,0.21,0,0,0,.11.19c0.07,0,.1,0,0.1.16a0.3,0.3,0,0,0,.06.26,0.39,0.39,0,0,1,.09.25,3.13,3.13,0,0,0,.11.62,3,3,0,0,1,.26.65,0.19,0.19,0,0,0,0,.23,0.61,0.61,0,0,1,.15.3c0,0.08,0,.11.11,0.08a0.33,0.33,0,0,0,.16-0.09s0.08,0,.16,0a0.32,0.32,0,0,0,.27,0,0.42,0.42,0,0,1,.17-0.11,0.6,0.6,0,0,0,.16-0.26s0,0,0-.09a0.3,0.3,0,0,1,0-.18,0.89,0.89,0,0,0-.12-0.33,3,3,0,0,0-.19-0.4,0.42,0.42,0,0,1-.09-0.23,0.32,0.32,0,0,0-.11-0.15,0.63,0.63,0,0,1-.13-0.36c0-.25-0.08-0.43-0.08-0.47s0,0-.05-0.06a0.11,0.11,0,0,1,0-.12,0.18,0.18,0,0,0,0-.11,0.22,0.22,0,0,1,0-.16,0.42,0.42,0,0,0,0-.26,0.21,0.21,0,0,0-.17-0.2,0.18,0.18,0,0,1-.18-0.13c0-.09-0.09-0.26-0.1-0.29s0,0-.12,0a0.22,0.22,0,0,0-.11.23,0.26,0.26,0,0,0,0,.16,0.49,0.49,0,0,1,.06.2,0.45,0.45,0,0,1,0,.47c-0.16.12-.13,0.15-0.13,0.23s0,0.14-.07,0a0.2,0.2,0,0,1,.09-0.25c0.09-.06.16-0.13,0.11-0.21a0.89,0.89,0,0,1-.08-0.35c0-.09,0-0.11-0.07-0.05h0Z" transform="translate(-387.06 -952.3)"/>
      <path class="k" d="M427.06,970.08a1,1,0,0,0,0,.17,0.56,0.56,0,0,1,0,.27,0.13,0.13,0,0,0,0,.16h0a0.13,0.13,0,0,0,.07-0.17,0.17,0.17,0,0,1,0-.16,0.09,0.09,0,0,0,0-.11s0,0,0-.13,0-.09-0.09,0h0Z" transform="translate(-387.06 -952.3)"/>
      <path class="k" d="M428,971.45a2.68,2.68,0,0,1-.08-0.47,0.57,0.57,0,0,0-.21-0.41,0.52,0.52,0,0,1-.13-0.37c-0.08,0-.11,0-0.11.06a0.86,0.86,0,0,1,.09.28c0,0.14,0,.1.05,0.17s0.09,0.13.06,0.16a0.05,0.05,0,0,0,0,.1,0.1,0.1,0,0,1,0,.12,0.13,0.13,0,0,0,.07.1,0.18,0.18,0,0,1,0,.17s0,0.13,0,.09,0.07,0,.11.06,0.06,0,.1,0l0-.08h0Z" transform="translate(-387.06 -952.3)"/>
      <path class="k" d="M428.66,972.69c0,0.06-.07,0-0.1,0s-0.07,0-.05-0.09a0.07,0.07,0,0,0,0-.1h-0.06a0.13,0.13,0,0,1-.12-0.06l0,0v0c0,0.06,0,0-.06.06s0-.06-0.06-0.11v0a0.23,0.23,0,0,1-.15-0.15c0-.08,0-0.09,0,0a0.2,0.2,0,0,0,.09.1s0.06,0,0-.08a0.27,0.27,0,0,1,0-.07,0.1,0.1,0,0,0,0,0c-0.09,0-.06,0-0.05-0.12s0-.07-0.06,0-0.06,0-.06-0.11-0.07-.11-0.09,0,0,0-.07-0.08-0.08-.13-0.08,0,0,0.11-.09.06l0,0.17c0,0.17.07,0.11,0.15,0.18a0.41,0.41,0,0,1,.09.15,0.11,0.11,0,0,1,0,.11,0.17,0.17,0,0,0,0,.12,0.21,0.21,0,0,1,0,.11c0,0.05,0,0,0,.06h0l0-.06c0.06-.06.16,0,0.19,0.08s0.07,0.1.12,0,0-.05.08,0,0.07,0,.07,0a0.1,0.1,0,0,1,.09,0s0.06,0,.13-0.08,0-.07-0.06,0h0Z" transform="translate(-387.06 -952.3)"/>
      <path class="k" d="M428.85,969.77a0.78,0.78,0,0,1,.07-0.37c0.06-.06.14-0.17,0.13,0.07a0.3,0.3,0,0,1-.06.28c0,0.05-.09.07,0,0.16a0.32,0.32,0,0,1,0,.24,0.34,0.34,0,0,0,.05.27,0.28,0.28,0,0,1,.09.16,0.46,0.46,0,0,0,.13.24,0.61,0.61,0,0,1,.14.33,0.36,0.36,0,0,0,.2.22c0.09,0.08,0,.13-0.09.1s0,0-.09,0-0.06.06-.09,0a0.38,0.38,0,0,0-.21-0.16,0.47,0.47,0,0,1-.16-0.2,0.27,0.27,0,0,0-.2-0.14,0.28,0.28,0,0,1,0,.13,0.19,0.19,0,0,0,0,.23,0.61,0.61,0,0,1,.15.3c0,0.08,0,.11.11,0.08a0.33,0.33,0,0,0,.16-0.09s0.08,0,.16,0a0.32,0.32,0,0,0,.27,0,0.42,0.42,0,0,1,.17-0.11,0.6,0.6,0,0,0,.16-0.26s0,0,0-.09a0.3,0.3,0,0,1,0-.18,0.89,0.89,0,0,0-.12-0.33,3,3,0,0,0-.19-0.4,0.42,0.42,0,0,1-.09-0.23,0.32,0.32,0,0,0-.11-0.15,0.63,0.63,0,0,1-.13-0.36c0-.19-0.07-0.34-0.08-0.42-0.05.08-.09,0.1-0.1,0s-0.05-.1-0.08-0.06,0,0,0-.07,0,0,0,0,0-.05,0-0.16,0-.12-0.05,0a1,1,0,0,0-.06.23,0.19,0.19,0,0,1,0,.17,0.24,0.24,0,0,0,0,.19,0.7,0.7,0,0,1,0,.25c0,0.09.06,0.19,0.08,0h0Z" transform="translate(-387.06 -952.3)"/>
      <path class="k" d="M427.55,968.5c-0.05,0-.09.05-0.06,0.21s-0.06.08-.08,0-0.05-.16-0.11-0.25,0,0.06,0,.15a0.21,0.21,0,0,0,.1.16c0,0.07,0,.1-0.05.1s0,0.11,0,.19,0,0.09-.06,0a0.51,0.51,0,0,1,0-.28c0-.12,0-0.09-0.06-0.12s-0.06,0,0-.11,0.06-.11,0-0.14,0-.06,0-0.06a0.34,0.34,0,0,0,.08-0.06c0.05,0,.07,0,0.08-0.08s0-.12.09-0.1a3,3,0,0,0,.11.36h0Z" transform="translate(-387.06 -952.3)"/>
      <path class="k" d="M428.27,969.33a0.3,0.3,0,0,0,.06.26,0.39,0.39,0,0,1,.09.25,3.13,3.13,0,0,0,.11.62l0.1,0.21a0.41,0.41,0,0,0,.1-0.13,0.4,0.4,0,0,0-.09-0.23c0-.09,0-0.11.06-0.22s0-.11-0.08-0.14a0.28,0.28,0,0,1-.12-0.21,0.25,0.25,0,0,1,0-.23,0.08,0.08,0,0,0-.05-0.13c-0.06,0,0-.06,0-0.13s0-.09,0-0.06a0.15,0.15,0,0,0-.1.05,0.44,0.44,0,0,1,0,.09h0Z" transform="translate(-387.06 -952.3)"/>
      <path class="h" d="M429.08,969.63a0.31,0.31,0,0,1,0,.16,0.12,0.12,0,0,0,0,.11,0.24,0.24,0,0,1,0,.18,0.14,0.14,0,0,0,.06.16s0.06,0,.05.1a0.32,0.32,0,0,0,.09.25,0.21,0.21,0,0,1,.08.16,0.11,0.11,0,0,0,.08.11s0,0,0,.06,0,0,.08,0a0.32,0.32,0,0,1,.16.13c0.06,0.08.16,0.12,0.14,0a0.18,0.18,0,0,0-.09-0.19,0.71,0.71,0,0,1-.18-0.39,0.78,0.78,0,0,0-.21-0.37,0.22,0.22,0,0,0-.06-0.2,0.21,0.21,0,0,1-.08-0.16,0.18,0.18,0,0,0-.06-0.13,0.09,0.09,0,0,1,0-.09s0,0-.06,0h0Z" transform="translate(-387.06 -952.3)"/>
      <path class="l" d="M428.7,973.44a2,2,0,0,0,.51-0.14,0.81,0.81,0,0,0,.3.14,0.34,0.34,0,0,1-.24,0,0.21,0.21,0,0,0,.09.1,0.53,0.53,0,0,1-.29-0.07,0.45,0.45,0,0,1-.37,0h0Z" transform="translate(-387.06 -952.3)"/>
      <path class="l" d="M428.93,973.59l0.3,0.05c-0.08.06,0,.13,0.11,0.12-0.06,0-.13,0-0.08,0a1.21,1.21,0,0,0,.46-0.09,0.53,0.53,0,0,1-.79-0.12h0Z" transform="translate(-387.06 -952.3)"/>
      <path class="l" d="M429.13,973.92a0.44,0.44,0,0,1,.29,0,0.38,0.38,0,0,1-.29,0h0Z" transform="translate(-387.06 -952.3)"/>
      <path d="M429.36,973.91a2,2,0,0,0,.53,0,0.28,0.28,0,0,1-.3.09,0.68,0.68,0,0,0-.18,0s0,0-.05,0h0Z" transform="translate(-387.06 -952.3)"/>
      <path class="l" d="M429.48,974.06a1.57,1.57,0,0,0,.47-0.06,1.55,1.55,0,0,0,.33.08,0.44,0.44,0,0,1-.32,0,0.56,0.56,0,0,1-.47,0h0Z" transform="translate(-387.06 -952.3)"/>
      <path class="l" d="M429.62,974.12a0.6,0.6,0,0,0,.33,0,0.57,0.57,0,0,0,.2,0,0.52,0.52,0,0,0,.2.08,0.86,0.86,0,0,1-.39,0,1.05,1.05,0,0,0-.42.08,0.14,0.14,0,0,1,.07-0.12h0Z" transform="translate(-387.06 -952.3)"/>
      <path d="M429.48,973.52a1.19,1.19,0,0,0,.59-0.06c0.07,0,.11,0,0,0a0.86,0.86,0,0,1-.66,0c-0.06,0-.07-0.06,0,0h0Z" transform="translate(-387.06 -952.3)"/>
      <path class="l" d="M431.11,973.06a1.45,1.45,0,0,1-1.25.07c-0.05,0-.09,0,0,0a2.07,2.07,0,0,0,.45.13c0.07,0,0,0,0,.05s-0.06,0,0,0a1.07,1.07,0,0,1,.54,0c0.06,0,.08,0,0.07,0s0,0,.07,0,0.07,0,0,0,0,0,0,0,0,0,0,0-0.07,0,0,0l0.14,0a0.29,0.29,0,0,1,0-.13h0Z" transform="translate(-387.06 -952.3)"/>
      <path d="M430.43,973.11a1.34,1.34,0,0,0,.89-0.31,1,1,0,0,0,.25.11c0.06,0,.11.06,0,0.06a0.82,0.82,0,0,1-.28-0.06,1.55,1.55,0,0,1-.88.23c-0.06,0-.08,0,0,0h0Z" transform="translate(-387.06 -952.3)"/>
      <path class="l" d="M429.74,971.83a0.62,0.62,0,0,0,.4.14,0.83,0.83,0,0,0,.29.14,1.12,1.12,0,0,0-.29.13,0.94,0.94,0,0,0-.15-0.07c-0.05,0,0,.07,0,0.09a1.09,1.09,0,0,0,.37,0c0.07,0,.08,0,0,0.05a0.5,0.5,0,0,1-.52-0.15c-0.1-.15-0.18-0.21-0.44-0.07,0-.07,0-0.09-0.08-0.09s-0.14-.07-0.07-0.06a0.84,0.84,0,0,0,.46-0.16h0Z" transform="translate(-387.06 -952.3)"/>
      <path class="l" d="M429.8,972.18s-0.17.08-.21,0.09-0.13.07,0,.07a1.38,1.38,0,0,0,.25-0.1c0.06,0,.06-0.07,0-0.06h0Z" transform="translate(-387.06 -952.3)"/>
      <path class="l" d="M430.06,972.45a1.33,1.33,0,0,1-.2,0s-0.07,0-.07,0,0,0,0,0a0.16,0.16,0,0,0-.12,0s0,0,0,0a0.22,0.22,0,0,0,.15,0,0.6,0.6,0,0,1,.19-0.08c0.07,0,.14-0.09.06-0.08h0Z" transform="translate(-387.06 -952.3)"/>
      <path d="M429.87,972.61a1.33,1.33,0,0,0,.45.13c0.1,0,.08,0,0,0.06a0.64,0.64,0,0,1-.49-0.14c-0.07-.05,0-0.07,0,0h0Z" transform="translate(-387.06 -952.3)"/>
      <path class="l" d="M431.23,972.75a1.05,1.05,0,0,1-.53,0c-0.09,0-.17,0-0.11,0a0.51,0.51,0,0,0,.37.07,1.45,1.45,0,0,1-.6.07,2.09,2.09,0,0,0-.36,0,0.33,0.33,0,0,1-.17,0s0-.06.06-0.05,0.12,0,0,0-0.22,0-.09.1a3.21,3.21,0,0,0,.56,0,1,1,0,0,0,.88-0.19s0-.05,0,0h0Z" transform="translate(-387.06 -952.3)"/>
      <path class="l" d="M430.15,972.43a0.12,0.12,0,0,1,0,.07s0,0,0,0,0.06-.06.09,0a0.38,0.38,0,0,0,.16,0s0.05,0,0,0a0.38,0.38,0,0,0-.15,0l-0.1,0s0,0,0,0h0Z" transform="translate(-387.06 -952.3)"/>
      <path class="l" d="M430.71,972.53a0.51,0.51,0,0,1-.17,0s-0.1,0-.06,0a0.38,0.38,0,0,0,.31.07c0.07,0,0-.06.11,0a0.41,0.41,0,0,0,.19.07c0.05,0,.07,0,0,0a0.14,0.14,0,0,1-.09-0.07s0,0,0,0a0.23,0.23,0,0,0,.15,0,0.43,0.43,0,0,1,.18-0.07l0,0a0.37,0.37,0,0,0-.18,0,0.23,0.23,0,0,1-.12,0,0.47,0.47,0,0,1-.13,0s0,0,0,0,0.05,0,0,0a0.89,0.89,0,0,1-.3,0,0.21,0.21,0,0,0-.15,0s0,0,0,.05a0.41,0.41,0,0,1,.21.05s0,0,0,0-0.13,0,0,.05h0Z" transform="translate(-387.06 -952.3)"/>
      <path class="l" d="M431.41,972.44l0,0a1.11,1.11,0,0,1,.41.07c0.07-.06.06-0.08,0.11-0.07a0.3,0.3,0,0,0,.15,0,0.11,0.11,0,0,1,.08,0,0.28,0.28,0,0,0,.14,0,0.44,0.44,0,0,1,.17-0.06s0.11,0,0,0a0.7,0.7,0,0,0-.27,0,1.2,1.2,0,0,1-.26,0,1.07,1.07,0,0,1-.28,0,1.08,1.08,0,0,0-.27,0h0Z" transform="translate(-387.06 -952.3)"/>
      <path d="M432.64,972.39a1.05,1.05,0,0,1-.58.16c-0.07,0,0,0,0,0a0.87,0.87,0,0,0,.61-0.16s0-.07,0,0h0Z" transform="translate(-387.06 -952.3)"/>
      <path class="l" d="M431.55,972.66a2.51,2.51,0,0,1,.39.09c0.06,0,.07,0,0.06,0s0,0,.09,0h0.4a0.86,0.86,0,0,1,.16-0.08l-0.54,0a0.16,0.16,0,0,0-.11,0,0.08,0.08,0,0,1-.09,0,0.19,0.19,0,0,0-.15,0s-0.12,0-.2,0h0Z" transform="translate(-387.06 -952.3)"/>
      <path class="l" d="M432.48,972.67a0.86,0.86,0,0,1,.16-0.08,0.72,0.72,0,0,1,.19,0s0.08,0,.05,0,0-.08.11-0.07a1,1,0,0,0,.27,0,0.61,0.61,0,0,0,.36,0c0,0.08,0,.09.06,0.07a0.14,0.14,0,0,1,.14,0,1.51,1.51,0,0,0,.54,0c0.09,0,.14,0,0.07.05s-0.08.05-.07,0.07,0,0-.05,0a0.15,0.15,0,0,0-.14,0,0.15,0.15,0,0,1-.17,0,0.38,0.38,0,0,0-.2,0,0.23,0.23,0,0,1-.14,0,0.6,0.6,0,0,0-.29,0,0.39,0.39,0,0,1-.22,0c-0.08,0-.08,0,0-0.06a0.17,0.17,0,0,1,.15-0.05c0.09,0,.16,0,0.1-0.07a0.14,0.14,0,0,0-.17,0,0.19,0.19,0,0,1-.22,0,0.24,0.24,0,0,0-.21,0,0.49,0.49,0,0,1-.26-0.06h0Z" transform="translate(-387.06 -952.3)"/>
      <path class="l" d="M432.8,972.83c-0.12,0-.15-0.06-0.28,0s-0.11.06,0,0,0.2,0,.3,0,0.05-.05,0,0h0Z" transform="translate(-387.06 -952.3)"/>
      <path class="l" d="M432.66,972.92a1.55,1.55,0,0,1,.25,0c0.05,0,.11,0,0.05,0s-0.2,0-.26,0-0.13,0,0,0h0Z" transform="translate(-387.06 -952.3)"/>
      <path class="l" d="M431.39,973.27a0.56,0.56,0,0,0,.53-0.28s0,0,.06,0a1,1,0,0,0,.46.14c0.08,0,.16,0,0,0a1.57,1.57,0,0,1-.48-0.1,0.61,0.61,0,0,1-.57.24c-0.11,0-.08,0,0,0h0Z" transform="translate(-387.06 -952.3)"/>
      <path class="l" d="M432.08,972.91a0.55,0.55,0,0,1-.26.16,1.26,1.26,0,0,1-.32,0c-0.05,0-.11,0,0,0a0.54,0.54,0,0,0,.32.07,0.3,0.3,0,0,1,.21,0,0.44,0.44,0,0,0,.22.09,0.53,0.53,0,0,1,.22,0s0.11,0.07,0,0-0.19,0-.24,0a0.44,0.44,0,0,0,.28.2s0,0,0,.07a0.24,0.24,0,0,0,.23,0s0,0,0,0,0.06,0,0,0a0.68,0.68,0,0,1-.19,0,1,1,0,0,0,.64.12c0.05,0,.08,0,0,0a0.36,0.36,0,0,1-.22,0s0,0,0,0l0.23,0c0.05,0,.11,0,0,0a1.37,1.37,0,0,1-.29,0c-0.05,0-.09,0,0-0.08a0.92,0.92,0,0,0,.14-0.06c-0.18,0-.39-0.1-0.27-0.18s0,0,0,0a1,1,0,0,1-.23-0.07c-0.06,0,0-.06,0-0.07a0.71,0.71,0,0,1-.45-0.14h0Z" transform="translate(-387.06 -952.3)"/>
      <path class="l" d="M433.64,972.9a0.72,0.72,0,0,1-.36.1c-0.08,0-.09,0,0,0a0.54,0.54,0,0,0,.15,0,0.1,0.1,0,0,1,.08,0,0.32,0.32,0,0,0,.2,0,0.87,0.87,0,0,1,.25,0s0.11,0,0,0a0.78,0.78,0,0,0-.31,0s-0.15,0-.09,0a0.41,0.41,0,0,0,.14-0.07l0,0h0Z" transform="translate(-387.06 -952.3)"/>
      <path class="l" d="M433.59,973.11a0.6,0.6,0,0,1-.32.13,1.42,1.42,0,0,0,.28.15,0.29,0.29,0,0,1-.12.06,0.43,0.43,0,0,0,.28-0.05,0.58,0.58,0,0,0,.44,0,0.51,0.51,0,0,1-.29-0.08,0.18,0.18,0,0,0,.12-0.06,0.63,0.63,0,0,1-.38-0.09h0Z" transform="translate(-387.06 -952.3)"/>
      <path class="l" d="M433.41,973.44a0.29,0.29,0,0,0,.12-0.06,1,1,0,0,1-.58-0.13c-0.12-.1-0.12,0,0,0a0.56,0.56,0,0,0,.5.14h0Z" transform="translate(-387.06 -952.3)"/>
      <path class="l" d="M433.7,973.68a0.93,0.93,0,0,1-.35,0c-0.07,0-.11,0-0.09,0s0,0.06,0,0a0.56,0.56,0,0,0-.22,0s-0.1.05,0,0a0.65,0.65,0,0,1,.26,0,1.23,1.23,0,0,0,.38,0s0,0,0,0,0,0,0,0a0.15,0.15,0,0,0,.07-0.09h0Z" transform="translate(-387.06 -952.3)"/>
      <path class="l" d="M431.48,973.38a2.84,2.84,0,0,1-.5.13,0.71,0.71,0,0,1-.24.07,0.41,0.41,0,0,0,.24,0,0.79,0.79,0,0,1-.13.09,0.85,0.85,0,0,1,.23,0,0.62,0.62,0,0,1-.35.07,0.15,0.15,0,0,0,.11.07,0.58,0.58,0,0,1-.29,0,0.14,0.14,0,0,0,.09.09,0.44,0.44,0,0,1-.28,0,0.49,0.49,0,0,0,.45.1,1.12,1.12,0,0,0,.47-0.17,1.31,1.31,0,0,1-.29,0,1.67,1.67,0,0,0,.45-0.2,0.25,0.25,0,0,1-.14,0,1.47,1.47,0,0,0,.42-0.05,0.3,0.3,0,0,1-.18-0.12,1.77,1.77,0,0,0,.89,0s0-.06,0-0.06a1.52,1.52,0,0,1-.51-0.07,0.54,0.54,0,0,0,.21.1,0.76,0.76,0,0,1-.61-0.09h0Z" transform="translate(-387.06 -952.3)"/>
      <path class="l" d="M430.85,973.72a0.79,0.79,0,0,0,.13-0.09,0.41,0.41,0,0,1-.24,0,0.71,0.71,0,0,0,.24-0.07,1.13,1.13,0,0,1-.39,0,0.43,0.43,0,0,0-.24,0s0,0.09.17,0.07a0.7,0.7,0,0,1-.4.06,0.27,0.27,0,0,1,0,.18,1.31,1.31,0,0,0,.55.13c-0.13,0-.2-0.1-0.09-0.11a1.2,1.2,0,0,0,.26-0.06h0Z" transform="translate(-387.06 -952.3)"/>
      <path d="M430.52,974.06a1.42,1.42,0,0,0,.87-0.26c0.07-.06.12,0,0,0a1.48,1.48,0,0,1-.84.31c-0.14,0-.2-0.06-0.07-0.07h0Z" transform="translate(-387.06 -952.3)"/>
      <path class="l" d="M432.42,973.64a1,1,0,0,1-.29,0,0.31,0.31,0,0,0-.17,0s0,0,0,0h0.17a0.23,0.23,0,0,0-.09.08,0.55,0.55,0,0,1,.29,0,0.14,0.14,0,0,1-.1,0,0.9,0.9,0,0,0,.64.13l-0.09.06a0.56,0.56,0,0,0,.39-0.06H433a0.24,0.24,0,0,1,.1-0.06,0.68,0.68,0,0,0-.26,0,0.21,0.21,0,0,1,.08-0.09,1.66,1.66,0,0,1-.56-0.05,1.65,1.65,0,0,0,.38-0.07,0.41,0.41,0,0,1-.28-0.08h0Z" transform="translate(-387.06 -952.3)"/>
      <path class="l" d="M431.89,973.76a1.58,1.58,0,0,0-.3.09s-0.09,0,0,0l0.4,0a3.06,3.06,0,0,0-.37,0s-0.08,0,0,0a2.12,2.12,0,0,1,.28-0.09h0Z" transform="translate(-387.06 -952.3)"/>
      <path class="l" d="M431.68,974a0.51,0.51,0,0,0,.26-0.05,0.58,0.58,0,0,0,.28.12c0.08,0,.07,0,0,0a0.51,0.51,0,0,1-.28-0.09,0.46,0.46,0,0,1-.26,0h0Z" transform="translate(-387.06 -952.3)"/>
      <path class="l" d="M430.45,974.72a0.87,0.87,0,0,0,.54.06,0.49,0.49,0,0,0,.38.06,0.53,0.53,0,0,1,.3,0,2.23,2.23,0,0,1,.4.09h-0.21s0,0,0,.05a1.13,1.13,0,0,0-.59.15,0.34,0.34,0,0,1,.31-0.19,0.91,0.91,0,0,0-.5,0,0.32,0.32,0,0,1-.07-0.11,0.66,0.66,0,0,1-.61-0.16h0Z" transform="translate(-387.06 -952.3)"/>
      <path class="l" d="M430,974.42a0.72,0.72,0,0,0,.39-0.15,0.43,0.43,0,0,0,.33,0,0.08,0.08,0,0,0,0,.09,1.21,1.21,0,0,0-.37.09,0.53,0.53,0,0,1-.32,0c-0.06,0-.07-0.06,0-0.07h0Z" transform="translate(-387.06 -952.3)"/>
      <path class="l" d="M430.73,974.38a1.23,1.23,0,0,0-.37.09,0.3,0.3,0,0,1,0,.1,2.28,2.28,0,0,1,.8-0.08c-0.08,0-.23.09-0.31,0.1a1.54,1.54,0,0,1,.46,0c0.05,0,.06.05,0,0.09s-0.06,0,0,0a0.52,0.52,0,0,0,.34-0.08,0.76,0.76,0,0,0-.14,0,0.37,0.37,0,0,0,.14-0.09l-0.25,0s-0.08,0,0-.06a0.32,0.32,0,0,0,.1-0.08,0.43,0.43,0,0,1-.4-0.05,0.46,0.46,0,0,0,.21,0,0.27,0.27,0,0,0-.12,0,0.74,0.74,0,0,1,.59,0,1.29,1.29,0,0,1,.38,0,1.46,1.46,0,0,1,.18-0.17,1,1,0,0,1-.87-0.2,0.55,0.55,0,0,1-.44.19,0.16,0.16,0,0,0,.07.14,1.29,1.29,0,0,1-.37,0,0.29,0.29,0,0,0,.19.09c-0.11,0-.17,0-0.26,0h0Z" transform="translate(-387.06 -952.3)"/>
      <path class="l" d="M431.38,974.76a0.52,0.52,0,0,0,.34-0.08,0.76,0.76,0,0,0-.14,0,0.37,0.37,0,0,0,.14-0.09,4.53,4.53,0,0,0,.52,0c0.1,0,.34,0,0.39,0a0.32,0.32,0,0,0-.27.09s0.07,0.06.12,0.06a0.29,0.29,0,0,0-.23.13,0.13,0.13,0,0,0-.2,0,0.4,0.4,0,0,0-.32.06,0.64,0.64,0,0,0-.31,0c0.07,0,.06-0.06,0-0.08h0Z" transform="translate(-387.06 -952.3)"/>
      <path class="l" d="M432.4,974.14h0.29l-0.1.07a2.9,2.9,0,0,1,.5,0,0.36,0.36,0,0,0-.22.07s0,0,0,.06,0.14,0.06,0,0a2,2,0,0,0-.38,0c-0.05,0-.08,0,0,0a0.45,0.45,0,0,0,.17-0.06,0.59,0.59,0,0,1-.22,0s-0.06,0,0,0,0,0,0,0a0.53,0.53,0,0,0-.22.12,1.49,1.49,0,0,1,.18-0.17h0Z" transform="translate(-387.06 -952.3)"/>
      <path d="M431.59,974.26a0.46,0.46,0,0,0,.36.16s0.1,0,0,.05a0.43,0.43,0,0,1-.43-0.19s0-.07.06,0h0Z" transform="translate(-387.06 -952.3)"/>
      <path d="M432.92,972.4a1.37,1.37,0,0,0,.54.1s0.1,0,0,0a1,1,0,0,1-.57-0.11s0-.05,0,0h0Z" transform="translate(-387.06 -952.3)"/>
      <path class="l" d="M433,972.39a0.62,0.62,0,0,1,.37.05,1.2,1.2,0,0,1,.33,0s0.09,0,0,0a1.4,1.4,0,0,0-.4,0,2.32,2.32,0,0,1-.37,0,0.11,0.11,0,0,1,.07,0h0Z" transform="translate(-387.06 -952.3)"/>
      <path class="l" d="M433.74,972.47c0.08,0,.33,0,0.4,0s0.17,0.07.36,0a1.87,1.87,0,0,1-.3.08,0.16,0.16,0,0,1-.16,0,0.6,0.6,0,0,0-.3-0.05h0Z" transform="translate(-387.06 -952.3)"/>
      <path class="l" d="M434.51,972.45c-0.19.05-.42,0-0.36,0s-0.32,0-.4,0a0.34,0.34,0,0,0,.22-0.12,0.19,0.19,0,0,0,.17,0,0.53,0.53,0,0,1,.18.07s0.07,0,0-.05a1.5,1.5,0,0,0,.24,0l0.18,0a1.31,1.31,0,0,1-.25.16h0Z" transform="translate(-387.06 -952.3)"/>
      <path class="i" d="M430.73,971.56c0-.4,0-3.77,0-4.55,0-.19-0.1-0.15-0.1,0v4.53l0.14,0h0Z" transform="translate(-387.06 -952.3)"/>
      <path d="M430.75,971.57h-0.06l-0.1,0V967c0-.16.12-0.18,0.12,0,0,0.55,0,2.38,0,3.55v1h0Zm-0.1-4.68a0.11,0.11,0,0,0,0,.11v4.53l0.11,0v-1c0-1.18,0-3,0-3.55a0.11,0.11,0,0,0,0-.11h0Z" transform="translate(-387.06 -952.3)"/>
      <polygon class="i" points="45.15 14.47 45.32 19.27 45.29 19.3 45.19 19.31 45.09 14.47 45.15 14.47"/>
      <polygon points="45.18 19.32 45.18 19.31 45.07 14.45 45.15 14.45 45.33 19.27 45.29 19.28 45.14 14.47 45.2 19.29 45.26 19.29 45.18 19.32 45.18 19.32"/>
      <path class="i" d="M433.61,970.82c0-.49-0.07-2.75-0.1-3.87,0-.15-0.09-0.12-0.09,0,0,0.9.06,3.41,0.07,3.87h0.11Z" transform="translate(-387.06 -952.3)"/>
      <path d="M433.54,970.84h-0.05c0-.46-0.06-3-0.07-3.87a0.15,0.15,0,0,1,0-.11s0.08,0,.08.1c0,0.85.06,2.38,0.08,3.27l0,0.6-0.09,0h0Zm-0.07-4a0.11,0.11,0,0,0,0,.09c0,0.9.06,3.4,0.07,3.86h0l0-.59c0-.89-0.06-2.41-0.08-3.27,0-.06,0-0.09,0-0.09h0Z" transform="translate(-387.06 -952.3)"/>
      <path class="d" d="M431.4,967.56l-1.42,0c-0.08.29,0.28,0.28,0.41,0.21a0.24,0.24,0,0,0,.36,0,0.26,0.26,0,0,0,.34,0,0.19,0.19,0,0,0,.31-0.21h0Z" transform="translate(-387.06 -952.3)"/>
      <path d="M430.6,967.85a0.37,0.37,0,0,1-.21-0.09,0.36,0.36,0,0,1-.39,0,0.2,0.2,0,0,1,0-.18h1.43a0.23,0.23,0,0,1,0,.22,0.2,0.2,0,0,1-.28,0,0.22,0.22,0,0,1-.34,0,0.16,0.16,0,0,1-.14.08h0Zm-0.21-.11c0.16,0.11.26,0.11,0.35,0a0.24,0.24,0,0,0,.34,0,0.2,0.2,0,0,0,.27,0,0.23,0.23,0,0,0,0-.19H430a0.21,0.21,0,0,0,0,.15,0.29,0.29,0,0,0,.38,0h0Z" transform="translate(-387.06 -952.3)"/>
      <path class="d" d="M431.51,968.28h-1.45c-0.25.24,0.07,0.36,0.35,0.19a1.06,1.06,0,0,0,.7,0,0.25,0.25,0,0,0,.4-0.2h0Z" transform="translate(-387.06 -952.3)"/>
      <path d="M430.88,968.59a0.22,0.22,0,0,1-.14,0,0.29,0.29,0,0,1-.35-0.07,0.31,0.31,0,0,1-.43,0,0.19,0.19,0,0,1,.09-0.2h1.46a0.26,0.26,0,0,1-.23.27h0a0.43,0.43,0,0,1-.17,0,0.29,0.29,0,0,1-.22.1h0Zm-0.14-.07a0.28,0.28,0,0,0,.35-0.05c0.25,0.09.34,0,.4-0.19h-1.43a0.18,0.18,0,0,0-.07.17,0.33,0.33,0,0,0,.42,0,0.3,0.3,0,0,0,.34.06h0Z" transform="translate(-387.06 -952.3)"/>
      <path class="d" d="M431.46,969.18h-1.39c0,0.25.26,0.22,0.37,0.15a0.29,0.29,0,0,0,.43,0,0.23,0.23,0,0,0,.32,0,0.17,0.17,0,0,0,.27-0.16h0Z" transform="translate(-387.06 -952.3)"/>
      <path d="M430.66,969.45a0.27,0.27,0,0,1-.23-0.12,0.28,0.28,0,0,1-.33,0,0.19,0.19,0,0,1,0-.15h1.41a0.2,0.2,0,0,1,0,.18,0.15,0.15,0,0,1-.11.05h0a0.19,0.19,0,0,1-.12-0.05,0.22,0.22,0,0,1-.32,0,0.26,0.26,0,0,1-.21.08h0Zm-0.22-.14a0.28,0.28,0,0,0,.22.11,0.29,0.29,0,0,0,.2-0.08,0.24,0.24,0,0,0,.32,0,0.27,0.27,0,0,0,.12,0h0a0.12,0.12,0,0,0,.09,0,0.2,0.2,0,0,0,.05-0.15h-1.38a0.22,0.22,0,0,0,0,.12,0.26,0.26,0,0,0,.31,0h0Z" transform="translate(-387.06 -952.3)"/>
      <path class="d" d="M431.53,970.09l-1.56,0a0.19,0.19,0,0,0,.27.25c0,0.15.25,0.1,0.3,0a0.15,0.15,0,0,0,.23,0c0,0.14.2,0.15,0.34,0,0.28,0.2.55,0,.43-0.22h0Z" transform="translate(-387.06 -952.3)"/>
      <path d="M430.36,970.42a0.13,0.13,0,0,1-.13-0.11c0,0.07-.2,0-0.25,0a0.24,0.24,0,0,1,0-.22l1.57,0a0.18,0.18,0,0,1,0,.2,0.26,0.26,0,0,1-.23.12h0a0.38,0.38,0,0,1-.23-0.08c-0.11.12-.32,0.11-0.35,0a0.14,0.14,0,0,1-.22,0,0.17,0.17,0,0,1-.17.11h0Zm-0.13-.12a0.14,0.14,0,0,0,.13.09,0.19,0.19,0,0,0,.17-0.1,0.18,0.18,0,0,0,.23,0c0.06,0.13.21,0.14,0.34,0a0.47,0.47,0,0,0,.23.07h0a0.23,0.23,0,0,0,.21-0.11,0.16,0.16,0,0,0,0-.17l-1.55,0a0.25,0.25,0,0,0,0,.19,0.2,0.2,0,0,0,.24,0h0Z" transform="translate(-387.06 -952.3)"/>
      <path class="d" d="M432.92,969.71h-1.3c0.06,0.27.19,0.33,0.39,0.18a0.35,0.35,0,0,0,.47,0,0.25,0.25,0,0,0,.43-0.19h0Z" transform="translate(-387.06 -952.3)"/>
      <path d="M432.69,970h0a0.35,0.35,0,0,1-.21-0.09,0.37,0.37,0,0,1-.47,0c-0.16.16-.33,0.09-0.4-0.19h1.31a0.28,0.28,0,0,1-.08.24,0.2,0.2,0,0,1-.15.07h0Zm-0.21-.11a0.43,0.43,0,0,0,.21.08h0a0.18,0.18,0,0,0,.13-0.06,0.3,0.3,0,0,0,.08-0.21h-1.29c0.08,0.24.19,0.3,0.39,0.16a0.4,0.4,0,0,0,.47,0h0Z" transform="translate(-387.06 -952.3)"/>
      <path class="d" d="M432.78,968.82l-1.26,0a0.27,0.27,0,0,0,.48.17,0.25,0.25,0,0,0,.4,0c0.16,0.16.42,0.06,0.38-.13h0Z" transform="translate(-387.06 -952.3)"/>
      <path d="M432.2,969.07A0.26,0.26,0,0,1,432,969a0.29,0.29,0,0,1-.22.1,0.25,0.25,0,0,1-.26-0.28l1.27,0a0.16,0.16,0,0,1,0,.16,0.26,0.26,0,0,1-.37,0,0.21,0.21,0,0,1-.19.1h0Zm-0.21-.12a0.27,0.27,0,0,0,.4,0,0.26,0.26,0,0,0,.35,0,0.15,0.15,0,0,0,0-.13l-1.24,0a0.24,0.24,0,0,0,.24.24,0.35,0.35,0,0,0,.23-0.09h0Z" transform="translate(-387.06 -952.3)"/>
      <path class="d" d="M432.95,967.82H431.6a0.31,0.31,0,0,0,.54.14c0.06,0.26.31,0.18,0.42,0.07,0.15,0.2.51,0,.39-0.21h0Z" transform="translate(-387.06 -952.3)"/>
      <path d="M432.33,968.15a0.21,0.21,0,0,1-.2-0.18,0.31,0.31,0,0,1-.24.12,0.29,0.29,0,0,1-.3-0.26h1.36a0.15,0.15,0,0,1,0,.17,0.29,0.29,0,0,1-.25.14h0a0.21,0.21,0,0,1-.17-0.08,0.27,0.27,0,0,1-.21.1h0Zm-0.2-.2a1.35,1.35,0,0,1,.58.15h0a0.26,0.26,0,0,0,.22-0.13,0.13,0.13,0,0,0,0-.14H431.6a0.29,0.29,0,0,0,.29.22,0.36,0.36,0,0,0,.25-0.11h0Z" transform="translate(-387.06 -952.3)"/>
      <path class="d" d="M432.87,967.14l-1.21,0a0.21,0.21,0,0,0,.37.12,0.21,0.21,0,0,0,.32,0,0.14,0.14,0,0,0,.25,0c0.14,0.1.29,0.05,0.27-.13h0Z" transform="translate(-387.06 -952.3)"/>
      <path d="M431.87,967.38a0.24,0.24,0,0,1-.17-0.07,0.18,0.18,0,0,1,0-.15l1.22,0a0.17,0.17,0,0,1,0,.17,0.14,0.14,0,0,1-.1,0h0a0.25,0.25,0,0,1-.15-0.05,0.15,0.15,0,0,1-.25,0c0,0.1-.26.11-0.32,0a0.15,0.15,0,0,1-.15.09h0Zm1-.23-1.19,0a0.24,0.24,0,0,0,.05.12,0.21,0.21,0,0,0,.31,0,0.23,0.23,0,0,0,.32,0,0.15,0.15,0,0,0,.25,0,0.36,0.36,0,0,0,.15,0h0a0.1,0.1,0,0,0,.08,0,0.16,0.16,0,0,0,0-.13h0Z" transform="translate(-387.06 -952.3)"/>
      <path class="d" d="M434.28,967.59l-1.48,0a0.17,0.17,0,0,0,.25.15c0,0.15.21,0.2,0.34,0.08a0.29,0.29,0,0,0,.46,0,0.24,0.24,0,0,0,.43-0.21h0Z" transform="translate(-387.06 -952.3)"/>
      <path d="M433.63,967.93a0.31,0.31,0,0,1-.25-0.12,0.2,0.2,0,0,1-.34-0.09c0,0.07-.14,0-0.2,0a0.18,0.18,0,0,1,0-.14h1.49a0.27,0.27,0,0,1-.05.24,0.28,0.28,0,0,1-.38,0,0.22,0.22,0,0,1-.22.12h0Zm-0.24-.13a0.31,0.31,0,0,0,.46,0,0.24,0.24,0,0,0,.42-0.2H432.8a0.26,0.26,0,0,0,.06.11,0.15,0.15,0,0,0,.19,0,0.2,0.2,0,0,0,.34.08h0Z" transform="translate(-387.06 -952.3)"/>
      <path class="d" d="M434.26,968.8h-1.45a0.23,0.23,0,0,0,.38.16,0.19,0.19,0,0,0,.32.1,0.29,0.29,0,0,0,.46,0,0.22,0.22,0,0,0,.29-0.25h0Z" transform="translate(-387.06 -952.3)"/>
      <path d="M433.75,969.18a0.34,0.34,0,0,1-.25-0.12,0.19,0.19,0,0,1-.32-0.1c-0.06.13-.37,0.06-0.38-0.17h1.46a0.23,0.23,0,0,1-.05.22,0.21,0.21,0,0,1-.16.07h0l-0.09,0a0.25,0.25,0,0,1-.22.12h0ZM433.5,969a0.3,0.3,0,0,0,.45,0h0.09a0.19,0.19,0,0,0,.14-0.06,0.25,0.25,0,0,0,.06-0.19h-1.43a0.24,0.24,0,0,0,.37.14,0.2,0.2,0,0,0,.32.1h0Z" transform="translate(-387.06 -952.3)"/>
      <path class="d" d="M434.19,969.89l-1.14,0a0.2,0.2,0,0,0,.35.12,0.24,0.24,0,0,0,.38,0,0.24,0.24,0,0,0,.42-0.13h0Z" transform="translate(-387.06 -952.3)"/>
      <path d="M434,970.11h0a0.32,0.32,0,0,1-.2-0.08,0.25,0.25,0,0,1-.38,0,0.2,0.2,0,0,1-.35-0.13h1.16a0.22,0.22,0,0,1-.22.24h0Zm-0.2-.1a0.41,0.41,0,0,0,.2.07h0a0.21,0.21,0,0,0,.21-0.2H433a0.2,0.2,0,0,0,.34.1,0.26,0.26,0,0,0,.38,0h0Z" transform="translate(-387.06 -952.3)"/>
      <path d="M432.35,971.61a11.83,11.83,0,0,1-1.67-.05,1.85,1.85,0,0,1-.85-0.3l-1.16-.69c-0.09-.05-0.2,0-0.06.1l1.15,0.76a3.25,3.25,0,0,1,.7.59,0.49,0.49,0,0,0,.54.24,0.79,0.79,0,0,1,.46-0.06,1.48,1.48,0,0,0,.53,0,0.65,0.65,0,0,0,.51,0,0.81,0.81,0,0,1,.35,0,1.21,1.21,0,0,0,.36,0,2.23,2.23,0,0,1,.55,0,1.24,1.24,0,0,0,.5,0,1,1,0,0,1,.42,0,0.49,0.49,0,0,0,.18-0.29,0.18,0.18,0,0,0,.2-0.1c0.05-.13.1-0.26,0.11-0.32h0.05v-0.12l-0.1-.12,0-.23,0.11,0a0.52,0.52,0,0,0,0-.22l-1.79.06a0.43,0.43,0,0,0-.12.22l-0.53.09a0.22,0.22,0,0,0-.17.1l-0.26.37h0Z" transform="translate(-387.06 -952.3)"/>
      <path d="M432.26,972.31a0.43,0.43,0,0,1-.28-0.08,1.37,1.37,0,0,1-.53,0,0.82,0.82,0,0,0-.45.06,0.52,0.52,0,0,1-.55-0.24,3.24,3.24,0,0,0-.69-0.59l-1.15-.76c-0.07,0-.07-0.08-0.07-0.1h0l0.07,0,0.07,0,1.16,0.69a1.82,1.82,0,0,0,.85.29,7.89,7.89,0,0,0,1.14.06h0.53l0.11-.17,0.14-.2a0.23,0.23,0,0,1,.17-0.1l0.2,0,0.34-.05a0.39,0.39,0,0,1,.12-0.22l1.8-.06a0.44,0.44,0,0,1,.06.23l-0.12,0,0,0.22,0.1,0.11v0.13a0.92,0.92,0,0,0-.17.32,0.19,0.19,0,0,1-.21.11,0.44,0.44,0,0,1-.18.29,1.18,1.18,0,0,0-.42,0,1.21,1.21,0,0,1-.51,0,2.19,2.19,0,0,0-.55,0,1.24,1.24,0,0,1-.36,0,0.82,0.82,0,0,0-.35,0l-0.24,0h0Zm-0.28-.1a0.6,0.6,0,0,0,.51,0,0.84,0.84,0,0,1,.36,0,1.26,1.26,0,0,0,.35,0,2.18,2.18,0,0,1,.56,0,1.24,1.24,0,0,0,.49,0,1.13,1.13,0,0,1,.43,0,0.49,0.49,0,0,0,.17-0.28c0.14,0,.17,0,0.2-0.11s0.1-.26.11-0.32l0.07-.12-0.1-.11,0-.24,0.12,0a0.67,0.67,0,0,0-.06-0.2l-1.78.06a0.46,0.46,0,0,0-.11.21l-0.35.06-0.19,0a0.22,0.22,0,0,0-.17.1l-0.14.2-0.12.17a9.49,9.49,0,0,1-1.68,0,1.83,1.83,0,0,1-.85-0.3l-1.16-.69h-0.11a0.09,0.09,0,0,0,.06.08l1.15,0.75a3.29,3.29,0,0,1,.7.6,0.5,0.5,0,0,0,.52.24,0.83,0.83,0,0,1,.47-0.06,1.58,1.58,0,0,0,.53,0h0Z" transform="translate(-387.06 -952.3)"/>
      <path d="M434.51,970.79c0-.11.12-0.42,0.28-1,0-.1-0.07-0.13-0.1,0l-0.28,1h0.11Z" transform="translate(-387.06 -952.3)"/>
      <path d="M434.5,970.81h0v-0.07l0.26-.92v-0.07h0a0.08,0.08,0,0,0-.05.07l-0.3,1h0l0.28-1a0.1,0.1,0,0,1,.08-0.09,0.09,0.09,0,0,1,0,.11l-0.26.92,0,0.08h0Z" transform="translate(-387.06 -952.3)"/>
      <path class="d" d="M435.54,969.67a0.57,0.57,0,0,1-.44.12,0.45,0.45,0,0,0-.32,0,0.07,0.07,0,0,1,0,0l-0.21.77a0.7,0.7,0,0,0,.52,0,0.53,0.53,0,0,1,.35-0.05,0.29,0.29,0,0,0,.07-0.23,0.36,0.36,0,0,1,0-.2,0.88,0.88,0,0,0,0-.42h0Z" transform="translate(-387.06 -952.3)"/>
      <path d="M431.48,971.61l0-.07h-0.17l0,0.05,0-.05,0,0.06,0-.06H431.2l0,0.05,0-.05h-0.06l0,0.05,0-.05h0v0H431v0h0l-0.16-.73-0.12-.48h0l0,0.06,0-.07h0l0,0.08h0v0h0v0h0l0,0.06h0l0-.05h0l0.34,0.92,0.66-1.38h0l0,0.06h0l0-.09h0l0,0.08h0l0-.1h0l0,0.09h0l0-.06h0l-0.43,1.69,0.17-.7h-0.1l0,0.1h0.1v0h-0.11l0,0.09h0.11v0h-0.12l0,0.12h0.11v0h-0.12l0,0.1h0.13v0h-0.13l0,0.13h0.14v0H431.5l0,0.07h0Zm-0.28-.08h0l0.12,0,0-.12h0v0H431.2l0,0,0,0.06h0Zm-0.59,0h0v-0.08h-0.12v0l-0.12,0v0h-0.1l0-.11h-0.11l0,0.07v-0.07h0l0-.11h0l0-.11h0l0-.11h0l0.13-.62h0v0l0.05,0h0v0h0v-0.07h0v0.06h0v-0.08h0v0.08h0v0h0v0.07h0v0.09h0v1h0Zm-0.84-.32c0-.08,0-0.17,0-0.28l-0.2.19,0.2-.23,0.1-.7a9.94,9.94,0,0,1-.75.67l0,0c0.18-.14.46-0.39,0.77-0.69,0.05-.36.11-0.72,0.14-1h0c0,0.26-.08.61-0.14,1,0.35-.34.73-0.74,1-1.1a1,1,0,0,1-.28-0.2h0a1.19,1.19,0,0,0,.27.19,3.4,3.4,0,0,0,.51-0.75,3.13,3.13,0,0,1-.49.75,1,1,0,0,0,.38.14A0.87,0.87,0,0,1,431,969a14.9,14.9,0,0,1-1,1.13l-0.12.71,0.19-.2,0.29-.3,0,0-0.29.3-0.21.23,0,0.29h0Zm3.16-.1v0l0-.09h0l-0.05-.13h0l-0.05-.14h0l0-.13h0l0-.14h0l-0.16-.47h0l0,0.07h0v0h0l0,0h0v0h0l0,0h0.05l0,0,0,0h0v0l0.07,0.11h0v0l0.06,0.11h0v0l0.07,0.12h0l0.07,0.11,0.15-.49h0.09V970h0l0,0h0.05l0,0.13h0.07l0-.11h0l-0.18.85,0,0,0,0,0,0.07V971h-0.1v0.09h0l0-.06h-0.11v0l0,0,0,0,0,0.06,0-.06,0,0H433l0,0.07v0h0Zm0.36-.27,0,0.08,0.11-.61h-0.08l0,0.12h0l0,0.13h0l0,0.13h0l0,0.1,0,0h0Zm0.39,0,0.14-.11,0-.07h0l0-.11h0l0-.11h0l-0.09-.35h0v0h0.05l0-.05h0l0,0.06h0.05l0,0h0c-0.13-.12-0.25-0.25-0.38-0.39a0.64,0.64,0,0,1-.34.23v0a0.74,0.74,0,0,0,.34-0.21,18.4,18.4,0,0,1-1.45-1.95l0,0a1.33,1.33,0,0,1-.33.15v0a1.44,1.44,0,0,0,.32-0.15l-0.23-.34h0l0.23,0.34a1,1,0,0,0,.19-0.14,0.7,0.7,0,0,1-.18.16l0,0a19.43,19.43,0,0,0,1.44,1.94l0,0,0,0c0.14,0.16.29,0.32,0.44,0.46h0l0,0.08,0.25,0.21a4,4,0,0,0,.32-0.36l0-.06a5.29,5.29,0,0,1-1.31-1.31,1.41,1.41,0,0,1-.31.16v0a1.59,1.59,0,0,0,.31-0.15,5.37,5.37,0,0,1-.34-0.54h0a5.62,5.62,0,0,0,.34.54,1.12,1.12,0,0,0,.24-0.21,0.86,0.86,0,0,1-.23.22,5.6,5.6,0,0,0,1.28,1.32,8.93,8.93,0,0,1-.66-1.87l-0.06-.22,0.08,0.21a8.66,8.66,0,0,0,.68,1.91h0l0.09-.13,0,0-0.09.13,0,0,0,0h0l0,0.07h0l0-.06a4.12,4.12,0,0,1-.32.35l0.24,0.17-0.25-.16-0.14.13,0.1,0.28-0.11-.27h0l-0.06,0v0h0.09v0H434l0,0.09h0.1v0h-0.09l0,0,0,0H434l0,0.05,0-.05h-0.13v0.06l0-.06h0v0l-0.14.1h0Zm0.28-.64,0.12,0.31,0.13-.12-0.24-.2h0Zm0.9,0.44a1,1,0,0,1-.3,0l0.21-.79a0.35,0.35,0,0,1,.34,0,0.57,0.57,0,0,0,.43-0.12h0v0a0.88,0.88,0,0,1,0,.43,0.35,0.35,0,0,0,0,.19,0.32,0.32,0,0,1-.07.24,0.58,0.58,0,0,0-.35.05,0.37,0.37,0,0,1-.23.05h0Zm0-.87-0.11,0-0.2.76a0.59,0.59,0,0,0,.49,0,0.51,0.51,0,0,1,.35-0.06,0.26,0.26,0,0,0,.07-0.21,0.39,0.39,0,0,1,0-.21,0.88,0.88,0,0,0,0-.4,0.55,0.55,0,0,1-.44.12,0.55,0.55,0,0,0-.2,0h0Zm-6.14.86a11.32,11.32,0,0,0,1.41-2.37l-0.08,0,0.09-.05c0.09-.19.15-0.35,0.2-0.49h0c0,0.13-.11.29-0.19,0.46a3.24,3.24,0,0,0,.37-0.24l0,0a2.43,2.43,0,0,1-.39.24,10.4,10.4,0,0,1-1.45,2.39h0Zm1.41-.55v0a2.49,2.49,0,0,0,.56-0.29h0l0,0h0a2.32,2.32,0,0,0,.46-0.39,2,2,0,0,1-.44.41,1.82,1.82,0,0,0,.62.31,1.37,1.37,0,0,1-.64-0.3,2.49,2.49,0,0,1-.57.3h0Zm3.85-.2a1.06,1.06,0,0,1-.45-0.34l0,0a1.35,1.35,0,0,0,.43.35h0Zm-2.34-.16a2.28,2.28,0,0,0,.51-0.41h0v0a1.57,1.57,0,0,1-.53.39h0Zm1.17,0a1.2,1.2,0,0,1-.55-0.37l0,0a1.38,1.38,0,0,0,.53.38h0Zm-2.72-.52v0a1.54,1.54,0,0,0,.47-0.31,1.21,1.21,0,0,1-.46.34h0Zm2.6-.37a0.79,0.79,0,0,1-.34-0.22l-0.12-.1,0,0,0.12,0.1a1.25,1.25,0,0,0,.33.24h0Zm-1.12,0a2.24,2.24,0,0,0,.58-0.37l0,0a1.79,1.79,0,0,1-.6.35h0Zm2.34,0a0.88,0.88,0,0,1-.39-0.35h0a1.19,1.19,0,0,0,.37.36h0Zm-2.63-.52a1.3,1.3,0,0,1-.61-0.27l0,0a1.45,1.45,0,0,0,.64.29h0Zm1.5-.45a1.07,1.07,0,0,1-.57-0.31l0,0a1.34,1.34,0,0,0,.55.33h0Zm0.17-.23h0a1.13,1.13,0,0,0,.45-0.29l0,0a0.89,0.89,0,0,1-.47.27h0Zm0.87,0a0.58,0.58,0,0,1-.33-0.26h0a0.69,0.69,0,0,0,.32.28h0Zm-3.73,0a1.77,1.77,0,0,0,.47-0.41l0,0a1.3,1.3,0,0,1-.49.4h0Zm1.09,0a0.83,0.83,0,0,1-.52-0.36h0a1,1,0,0,0,.5.37h0Zm0.46-.38v0a0.85,0.85,0,0,0,.48-0.28,0.74,0.74,0,0,1-.48.3h0Zm1.1,0a1.09,1.09,0,0,1-.55-0.29l0,0a1.37,1.37,0,0,0,.55.31h0Z" transform="translate(-387.06 -952.3)"/>
      <path class="k" d="M430.53,972a0.59,0.59,0,0,1,.59,0,0.63,0.63,0,0,1,.62.06,0.49,0.49,0,0,1,.62,0,0.55,0.55,0,0,1,.62,0,0.46,0.46,0,0,1,.59,0,0.5,0.5,0,0,0-.59,0,0.46,0.46,0,0,0-.62,0,0.4,0.4,0,0,0-.61,0,0.54,0.54,0,0,0-.63,0,0.67,0.67,0,0,0-.59-0.11h0Z" transform="translate(-387.06 -952.3)"/>
      <path class="j" d="M433.44,971.75a12.34,12.34,0,0,1-3.09-.06c-0.14,0-.1-0.08,0-0.06a9.77,9.77,0,0,0,2,.08l0.32-.45a0.21,0.21,0,0,1,.18-0.09l0.46-.08s0,0,0,.06l0,0a3.61,3.61,0,0,0,0,.47h0.06s0.07,0.09,0,.1h0Z" transform="translate(-387.06 -952.3)"/>
      <path class="j" d="M434.82,971.79h0.11a0.13,0.13,0,0,0,.11-0.08c0-.05.09-0.25,0.11-0.33l-0.09-.13c0-.11,0-0.25,0-0.28l0.11,0a0.16,0.16,0,0,0,0-.11l-1.65.05a0.07,0.07,0,0,0-.09.07,1.23,1.23,0,0,0,.42,1.21s0.06,0,0,0a1.31,1.31,0,0,1-.23-0.3h0.27a2.71,2.71,0,0,0,.1.31s0,0,0,0-0.06-.24-0.07-0.3h0.28c0,0.1,0,.24,0,0.28s0,0,0,0v-0.28h0.25c0,0.06,0,.24,0,0.27s0,0.06,0,0,0-.2,0-0.28h0.17a2.17,2.17,0,0,1-.07.28s0,0,0,0a1.74,1.74,0,0,0,.08-0.28h0Z" transform="translate(-387.06 -952.3)"/>
      <path d="M433.62,971.75a1.33,1.33,0,0,1-.13-0.42h0.36c0,0.12.05,0.36,0.07,0.42h-0.3Z" transform="translate(-387.06 -952.3)"/>
      <path d="M433.92,971.33c0,0.09.06,0.39,0.06,0.42h0.29c0-.08,0-0.38,0-0.42h-0.34Z" transform="translate(-387.06 -952.3)"/>
      <path d="M433.5,971a1.85,1.85,0,0,0,0,.31h0.36c0-.08,0-0.22,0-0.31H433.5Z" transform="translate(-387.06 -952.3)"/>
      <path d="M433.88,970.95c0,0.07,0,.26,0,0.31h0.35l0-.31h-0.35Z" transform="translate(-387.06 -952.3)"/>
      <path d="M434.31,970.93c0,0.07,0,.27,0,0.31h0.3c0-.07,0-0.27,0-0.32h-0.32Z" transform="translate(-387.06 -952.3)"/>
      <path d="M434.68,970.92c0,0.06,0,.27,0,0.32H435c0-.07,0-0.25,0-0.32h-0.36Z" transform="translate(-387.06 -952.3)"/>
      <path d="M435,971.29h-0.34c0,0.13,0,.37,0,0.42H435a2.7,2.7,0,0,0,.12-0.32l-0.07-.1h0Z" transform="translate(-387.06 -952.3)"/>
      <path d="M434.32,971.32s0,0.39,0,.42h0.25c0-.13,0-0.39,0-0.42h-0.29Z" transform="translate(-387.06 -952.3)"/>
      <path d="M432.91,971.23l-0.14,0c-0.06.1-.3,0.42-0.33,0.46l0.48,0c0-.09,0-0.43,0-0.47h0Z" transform="translate(-387.06 -952.3)"/>
      <path d="M433,971.22c0,0.11,0,.4,0,0.48l0.29,0c0-.14,0-0.46,0-0.51l-0.27,0h0Z" transform="translate(-387.06 -952.3)"/>
      <path d="M431.54,970.07s0,0,0,0l-1.57,0s0,0,0,0Z" transform="translate(-387.06 -952.3)"/>
      <path d="M431.54,970.1l-1.57,0h0.79l0.79,0h0Zm0,0h0Z" transform="translate(-387.06 -952.3)"/>
      <path d="M432.78,968.82s0,0,0,0l-1.24,0s0,0,0,0Z" transform="translate(-387.06 -952.3)"/>
      <path d="M432.78,968.85l-1.25,0h1.25v0h0Zm0,0h0v0h0Z" transform="translate(-387.06 -952.3)"/>
      <path d="M431.46,969.17s0,0,0,0h-1.39s0,0,0,0h1.39Z" transform="translate(-387.06 -952.3)"/>
      <path d="M431.46,969.2h0v0h0Zm0,0h-0.68l0.68,0v0h0Z" transform="translate(-387.06 -952.3)"/>
      <path d="M431.5,968.27s0,0,0,0H430s0,0,0,0h1.46Z" transform="translate(-387.06 -952.3)"/>
      <path d="M431.5,968.3H430l1.46,0h0v0h0Zm-0.71,0,0.71,0v0h-0.71Z" transform="translate(-387.06 -952.3)"/>
      <path d="M431.4,967.56s0,0,0,0l-1.42,0s0,0,0,0Z" transform="translate(-387.06 -952.3)"/>
      <path d="M431.4,967.59l-1.42,0h0.71l0.71,0h0v0h0Zm0,0h0Z" transform="translate(-387.06 -952.3)"/>
      <path class="d" d="M432.87,967.14s0,0,0,0h-1.21s0,0,0,0h1.21Z" transform="translate(-387.06 -952.3)"/>
      <polygon points="44.59 14.88 44.56 14.86 45.8 14.83 45.35 14.85 45.8 14.84 44.59 14.88 44.59 14.88"/>
      <path d="M432.94,967.82s0,0,0,0H431.6s0,0,0,0h1.34Z" transform="translate(-387.06 -952.3)"/>
      <polygon points="45.88 15.54 44.54 15.54 45.88 15.52 45.88 15.54 45.88 15.54"/>
      <path d="M434.26,968.79s0,0,0,0h-1.45s0,0,0,0h1.45Z" transform="translate(-387.06 -952.3)"/>
      <path d="M434.26,968.81h-1.45l1.45,0v0h0Zm-0.71,0,0.71,0v0h-0.71Z" transform="translate(-387.06 -952.3)"/>
      <path d="M434.28,967.58s0,0,0,0H432.8s0,0,0,0h1.48Z" transform="translate(-387.06 -952.3)"/>
      <path d="M434.28,967.61l-1.48,0h1.48Zm0,0h0Z" transform="translate(-387.06 -952.3)"/>
      <path d="M432.92,969.7s0,0,0,0h-1.3s0,0,0,0h1.3Z" transform="translate(-387.06 -952.3)"/>
      <polygon points="45.85 17.43 44.55 17.42 45.85 17.41 45.85 17.42 45.85 17.41 45.85 17.43 45.85 17.43"/>
      <path d="M434.19,969.88s0,0,0,0l-1.14,0s0,0,0,0h1.14Z" transform="translate(-387.06 -952.3)"/>
      <path d="M434.19,969.91l-1.14,0h0.57l0.57,0h0v0h0Zm0,0h0Z" transform="translate(-387.06 -952.3)"/>
      <path class="m" d="M435.22,970.1a0.6,0.6,0,0,0,0-.3,0.23,0.23,0,0,1-.13,0l-0.07,0a1.45,1.45,0,0,1-.07.37,0.58,0.58,0,0,1-.27,0l-0.05.19a0.69,0.69,0,0,0,.3,0,0.51,0.51,0,0,1-.09.31,0.36,0.36,0,0,0,.24-0.05h0a0.75,0.75,0,0,0,.06-0.27,0.14,0.14,0,0,0,.11,0,0.12,0.12,0,0,1,.09,0,0.34,0.34,0,0,0,.14,0,0.38,0.38,0,0,1,0-.12,0.61,0.61,0,0,0,0-.09,1,1,0,0,1-.33.1h0Z" transform="translate(-387.06 -952.3)"/>
      <path d="M434.87,970.63h0a0.74,0.74,0,0,0,.08-0.32,0.41,0.41,0,0,1-.29,0l0-.18h0l0,0.17h0.13l0.15,0a0.5,0.5,0,0,1-.06.31,0.31,0.31,0,0,0,.21,0,0.46,0.46,0,0,0,.06-0.21l0-.07a0.13,0.13,0,0,0,.09,0,0.15,0.15,0,0,1,.1,0,0.33,0.33,0,0,0,.14,0,0.17,0.17,0,0,1,0-.11,0.65,0.65,0,0,0,0-.09,0.68,0.68,0,0,1-.31.11,1.19,1.19,0,0,0,0-.24,0.35,0.35,0,0,1,0,.23l0.31-.12a0.17,0.17,0,0,1,0,.11,0.4,0.4,0,0,0,0,.11,0.33,0.33,0,0,1-.15,0,0.12,0.12,0,0,0-.09,0,0.15,0.15,0,0,1-.1,0,0.68,0.68,0,0,1-.06.26,0.36,0.36,0,0,1-.25.07h0Zm0-.47-0.19,0h0.19a0.63,0.63,0,0,0,.12-0.37h0.16l0,0h-0.1l-0.07,0a1,1,0,0,1-.06.37H434.9Z" transform="translate(-387.06 -952.3)"/>
      <path d="M430.14,963.17a2.49,2.49,0,0,0-.59,0c-0.07,0-.11.06,0,0.08a1.53,1.53,0,0,1,.47.16,0.37,0.37,0,0,1,.19.39,1.23,1.23,0,0,0,.62,1.3s0.05,0,0,.11a0.9,0.9,0,0,1-.06.24s0,0.08,0,.06l-0.2.33c-0.34,0-.62,0-0.64.36,0,0,0,.09.06,0a0.34,0.34,0,0,1,.26-0.2,0.5,0.5,0,0,0-.1.33c0,0.08,0,.12.07,0a0.57,0.57,0,0,1,.18-0.24s0,0,0,0a0.31,0.31,0,0,0,.05.23s0.06,0,.05,0a0.28,0.28,0,0,1,.09-0.27,0.2,0.2,0,0,1,.29.06c0.05,0.09.1,0,0-.1a0.28,0.28,0,0,0-.2-0.18l0.2-.35s0.05-.05.08,0,0,0,.08,0a1.16,1.16,0,0,1,.14-0.3l0.11,0c0.09,0.13.17,0.28,0.19,0.31a0.1,0.1,0,0,1,0,.11l-0.1.33a0.44,0.44,0,0,0-.45.15c0,0.06,0,.08.08,0.05a0.38,0.38,0,0,1,.19-0.05s0.06,0,0,.05a0.34,0.34,0,0,0-.24.31s0,0.07.06,0a0.44,0.44,0,0,1,.27-0.21,0.39,0.39,0,0,0,.09.31c0.07,0,.08,0,0.05-0.07a0.27,0.27,0,0,1,.05-0.27c0.11-.12.36,0,0.4,0.09s0.09,0.06.06-.05a0.47,0.47,0,0,0-.41-0.25,6.71,6.71,0,0,1,.25-0.87c0.1,0.06.18-.09,0.35,0a4.29,4.29,0,0,1,.79.44c0.07,0.06.1,0,.14,0a0.19,0.19,0,0,1,.15,0c0.05,0,.1,0,0-0.11a1.5,1.5,0,0,0-.49-0.53,0.65,0.65,0,0,0,.37,0,0.2,0.2,0,1,1,0-.29s0-.06-0.15-0.06a1.77,1.77,0,0,1-.9-0.14c-0.37-.21-0.58-0.44-0.76-0.53a0.49,0.49,0,0,1-.2-0.27,0.68,0.68,0,0,0-.4-0.58,0.8,0.8,0,0,0-.75.16h0Z" transform="translate(-387.06 -952.3)"/>
      <path class="d" d="M430.16,963.24a2.43,2.43,0,0,0-.33,0s-0.06,0,0,0l0.3,0.07c0.06,0,0,.05,0,0s-0.07,0,0,0c0.22,0.16.25,0.22,0.19,0.77l0.11,0.07s0,0,0,0-0.08,0,0,0,0.09,0,0,0-0.13.05,0,0,0.17,0,0,0-0.09,0,0,0,0.1,0,.06,0-0.05,0,0,0h0.15s0,0,0,0,0,0,0,0,0.1,0,0,0-0.06,0,0,0,0.14,0.05.1,0.06,0,0,0,0,0.11,0,.06,0-0.08,0,0,0,0.12,0,.07,0-0.06,0,0,0,0.08,0,0,.06-0.07,0-.1,0,0-.06-0.05,0,0,0,0,0-0.06-.06,0,0,0,0-.08,0a0.68,0.68,0,0,0,.81.16s0,0,.07.06,0.1,0.18.13,0.22,0,0,.06,0l0.11-.35s0.09-.1.07,0.07a0.76,0.76,0,0,1,.52,0,2.52,2.52,0,0,1,.56.3,0.12,0.12,0,0,0,.1,0c0.05,0,.07,0,0-0.11s-0.06-.14,0-0.09,0.1,0,0,0l-0.2-.19a0.17,0.17,0,0,0-.13,0h-0.32c-0.05,0-.07,0,0,0a2.86,2.86,0,0,1,.41.23c0.05,0,.09.12,0,0a4.56,4.56,0,0,0-.73-0.39,1.47,1.47,0,0,1-1.33-.25,0.51,0.51,0,0,1,.1-0.73c-0.05,0,0-.07,0-0.08s0,0,0,0a0,0,0,0,1,0-.06,0.12,0.12,0,0,1-.08-0.11,0.33,0.33,0,0,0-.2-0.07,0.17,0.17,0,0,1-.17,0,0.12,0.12,0,0,0-.11,0,0.09,0.09,0,0,1-.1,0s0,0,.12,0a0.27,0.27,0,0,0,.37,0c0.09-.12,0-0.24-0.2-0.28a0.44,0.44,0,0,0-.37.16h0Z" transform="translate(-387.06 -952.3)"/>
      <path d="M431.7,965.41l0,0-0.13-.22,0-.07,0,0a0.69,0.69,0,0,1-.82-0.17l0.09,0h0.07l0.12,0.09,0.05,0h0l-0.08-.05,0.06,0h0l-0.08,0h0a0.11,0.11,0,0,1,.1,0l-0.06,0c0.09,0,.1,0,0.11,0a0.15,0.15,0,0,1-.09.07l-0.15-.1h-0.07a0.64,0.64,0,0,0,.75.13,0.07,0.07,0,0,1,.08.06s0.07,0.13.11,0.19l0,0.06h0l0-.06,0.11-.35h0l0.05,0a0.12,0.12,0,0,1,0,.13,0.51,0.51,0,0,1,.51,0,2.56,2.56,0,0,1,.56.3,0.1,0.1,0,0,0,.07,0s0,0,0-.08a0.13,0.13,0,0,1-.06-0.11h0.08a0.48,0.48,0,0,0-.16-0.21,0.17,0.17,0,0,0-.12,0h-0.32a2.83,2.83,0,0,1,.47.26,0.11,0.11,0,0,1,.05.09,0.09,0.09,0,0,1-.09,0,3.89,3.89,0,0,0-.73-0.39H432l-0.41,0a1,1,0,0,1-.77-0.29,0.52,0.52,0,0,1-.11-0.41,0.47,0.47,0,0,1,.21-0.34,0.05,0.05,0,0,1,0-.05h0v-0.11a0.16,0.16,0,0,1-.07-0.13,0.09,0.09,0,0,1-.07,0,0.14,0.14,0,0,0-.09,0c-0.17,0-.17,0-0.22,0a0.12,0.12,0,0,0-.08,0c-0.09,0-.12,0-0.12-0.05a0.13,0.13,0,0,1,.13,0,0.27,0.27,0,0,0,.35,0,0.12,0.12,0,0,0,0-.12,0.29,0.29,0,0,0-.22-0.14,0.56,0.56,0,0,0-.35.14h-0.33a0.22,0.22,0,0,1,.24,0,1,1,0,0,1,.38-0.16,0.35,0.35,0,0,1,.3.16,0.14,0.14,0,0,1,0,.14,0.29,0.29,0,0,1-.38,0l-0.07,0s0,0,.06,0a0.15,0.15,0,0,1,.12,0,0.17,0.17,0,0,0,.16,0,0.2,0.2,0,0,1,.14,0l0.07,0a0.14,0.14,0,0,0,.08.11l0,0.12,0,0.1a0.45,0.45,0,0,0-.2.32,0.5,0.5,0,0,0,.1.39,0.94,0.94,0,0,0,.75.28l0.41,0h0.16a3.68,3.68,0,0,1,.74.39c0.06,0,0,0,0,0a2.67,2.67,0,0,0-.41-0.23c-0.09,0-.1,0-0.1-0.05a2,2,0,0,1,.37,0,0.18,0.18,0,0,1,.12,0,1.57,1.57,0,0,1,.21.2v0.08l-0.1,0s0,0,0,.09a0.15,0.15,0,0,1,.08.11l-0.07,0a0.14,0.14,0,0,1-.09,0,2.52,2.52,0,0,0-.55-0.29,0.63,0.63,0,0,0-.51,0,0.24,0.24,0,0,0,0-.11,1.68,1.68,0,0,0-.15.39,0.07,0.07,0,0,1,0,.07h0Zm-1-.75-0.1-.07,0.07,0h-0.18l-0.07,0,0.06,0H430.4a0.08,0.08,0,0,1-.09,0s0,0,.1,0h0.07l-0.06,0,0,0-0.08,0a0.09,0.09,0,0,1,.09,0l-0.07,0h0s0.11,0,.1,0l-0.11,0h0.09a0.08,0.08,0,0,1,.09,0s0,0-.1,0a0.12,0.12,0,0,0-.08,0c0.1,0,.17,0,0.17,0l-0.06,0h0.17l0.08,0-0.06,0a0.15,0.15,0,0,1,.13,0l-0.06,0h0Zm-0.32-.41-0.11-.07c0.05-.56,0-0.61-0.19-0.77l0,0c0.23,0.18.25,0.26,0.19,0.79l0.11,0.05,0,0h0Z" transform="translate(-387.06 -952.3)"/>
      <path class="d" d="M431.05,963.2a0.57,0.57,0,0,0-.2-0.13s-0.05,0,0,.05a0.11,0.11,0,0,0,0,.13s0,0.05,0,.07,0,0.17,0,.13,0,0,0,0a0,0,0,0,0,0,.05,0,0,0,0,1,0,.05s0,0,0,0,0,0.07,0,.09,0.08,0,.09,0a0.33,0.33,0,0,1,.08.12c0,0.06,0,.07-0.08.06a0.1,0.1,0,0,0-.12,0s0,0.05,0,.05,0.06,0,0,.05a0.23,0.23,0,0,0-.15.06c0,0.05,0,.07,0,0.05l0.16-.07a0.05,0.05,0,0,1,.09,0s0,0.09,0,.05-0.07,0-.09,0a0.17,0.17,0,0,1-.11,0s-0.07,0-.07.1a0.56,0.56,0,0,0,.65.49h0.67a0.61,0.61,0,0,0-.27-0.11s-0.09,0-.07,0,0,0,0-.05a0.06,0.06,0,0,0-.09,0,0.45,0.45,0,0,1-.2.11s-0.11,0-.06,0a0.76,0.76,0,0,1,.19-0.09,0.05,0.05,0,0,0,0-.05s0-.06.05,0a1.51,1.51,0,0,0,.36.17c0.05,0,.09,0,0-0.05a0.07,0.07,0,0,1,0-.09s0,0,.1,0l0.26,0.13s0.11,0,0-.06l-0.49-.34c-0.09-.06,0,0,0,0s-0.06.05-.09,0-0.06-.06,0-0.09,0.06,0,0-.09-0.09-.06-0.08,0,0,0.11-.05.08-0.11-.06-0.06-0.09,0.11,0,0-.11-0.06,0-.08,0a0.08,0.08,0,0,1-.11,0s-0.05-.06,0-0.08,0,0,.05,0,0.09,0,0,0-0.09,0-.07,0,0,0.09-.12,0,0-.08,0-0.09,0,0,0-.07a6,6,0,0,0-.26-0.6h0Z" transform="translate(-387.06 -952.3)"/>
      <path d="M431.45,964.82a0.56,0.56,0,0,1-.65-0.51,0.12,0.12,0,0,1,0-.1,0.36,0.36,0,0,0,.16-0.05l0.06,0,0.07,0,0-.07-0.16.07h-0.09c0-.11.05-0.11,0.09-0.12l0.09,0-0.08,0a0.11,0.11,0,0,1,.11-0.1h0.07v-0.11l-0.09-.09s0.06,0,.07,0a0.19,0.19,0,0,1,.08.12s0,0.07-.05.07H431a0.08,0.08,0,0,0-.07,0L431,964a0.2,0.2,0,0,1-.11.06,0.08,0.08,0,0,0-.08,0,0.31,0.31,0,0,0,.18,0c0.07,0,.09,0,0.1,0l0,0.09-0.07,0a0.27,0.27,0,0,1-.17.07,0.07,0.07,0,0,0-.05.09,0.54,0.54,0,0,0,.62.48h0.69a1.49,1.49,0,0,0-.26-0.08h-0.09v-0.08H431.7a0.49,0.49,0,0,1-.2.11h-0.1a0.26,0.26,0,0,1,.15-0.11l0.15-.1a1.42,1.42,0,0,0,.36.17,0.25,0.25,0,0,0,0-.1c0.06-.06.09,0,0.12,0l0.26,0.12a0.9,0.9,0,0,0-.23-0.2l-0.25-.18-0.09.07a0.11,0.11,0,0,1-.09-0.08l0.06-.06-0.11-.09s0,0,.08,0a0.11,0.11,0,0,1,.06.07l-0.06.06,0.06,0.05,0-.09,0.07,0,0.25,0.18,0.24,0.16a0.09,0.09,0,0,1,.05.07h-0.08l-0.26-.12-0.07,0,0,0.08,0,0.08h0a1.44,1.44,0,0,1-.37-0.17,0.36,0.36,0,0,1-.07.08,0.62,0.62,0,0,0-.18.08,0.36,0.36,0,0,0,.24-0.08h0.12l0,0.06a0.69,0.69,0,0,1,.33.12,0.24,0.24,0,0,1-.13,0h-0.56Zm0.2-.55a0.13,0.13,0,0,1-.09-0.07l0.1-.09,0,0h0l-0.12.06-0.07,0,0-.06,0.06-.07-0.07,0a0.12,0.12,0,0,1-.08,0,0.08,0.08,0,0,1,0-.08l0.05,0v0c0,0.1.05,0.1,0.07,0.1l0-.07a0.09,0.09,0,0,1,.09,0h0V964h-0.08l0,0.07h0.06l0.05,0v0h0.09a0.09,0.09,0,0,1,0,.07h0l-0.05,0s0,0.06,0,.08l0-.07h0l0,0a0.13,0.13,0,0,1,0,.11h-0.07Zm-0.34-.43a1.13,1.13,0,0,1-.14-0.35,0.53,0.53,0,0,0-.13-0.28,0.58,0.58,0,0,0-.19-0.12,0.28,0.28,0,0,0,0,.13l0.05,0.08a0.12,0.12,0,0,0-.05.12h0l0.12,0.09,0,0.08a0.09,0.09,0,0,1,0,.1l-0.1-.21c-0.09,0-.11,0-0.12,0a0.09,0.09,0,0,1,0-.11l0-.09a0.14,0.14,0,0,1,0-.11h0l0-.06a0.64,0.64,0,0,1,.2.13,0.58,0.58,0,0,1,.13.29,0.86,0.86,0,0,0,.13.31v0h0Z" transform="translate(-387.06 -952.3)"/>
      <path class="j" d="M431.08,963.23l0,0s0,0.08,0,.07a0.1,0.1,0,0,0,.07,0l0-.07h0Z" transform="translate(-387.06 -952.3)"/>
      <path class="j" d="M430.91,963.1s0,0.06,0,.06,0,0,0,0,0,0,.06,0,0,0,0,0,0,0,.07,0l-0.13-.09h0Z" transform="translate(-387.06 -952.3)"/>
      <path class="j" d="M430.84,963.33c-0.05,0,0,.17,0,0.13s0,0,0,0a0.05,0.05,0,0,0,0,0,0.24,0.24,0,0,0,.09-0.06c0-.05,0-0.05-0.07-0.05s-0.1,0,0-.06,0-.06-0.07-0.05a0,0,0,0,1,0,.05h0Z" transform="translate(-387.06 -952.3)"/>
      <path class="j" d="M431.15,963.64s0-.06,0-0.09l0,0,0-.14a0.14,0.14,0,0,0-.06.08s0,0.06-.06,0a0.07,0.07,0,0,0-.07.06h0a0,0,0,0,1,0,0,0.12,0.12,0,0,1,.13.11c0,0.05,0,0,.05,0a0.15,0.15,0,0,0-.06-0.12h0Z" transform="translate(-387.06 -952.3)"/>
      <path class="i" d="M431.18,964.2s0,0-.08,0a0.28,0.28,0,0,0-.16,0,0.21,0.21,0,0,0-.12.07s0,0.08,0,.08,0,0,0,0,0,0.08,0,.09,0.13,0,.15,0,0,0.11,0,.14a0.28,0.28,0,0,0,.14.06,1.34,1.34,0,0,0,.31,0c0.06,0,0,0,0,0a0.11,0.11,0,0,1-.12-0.06,0.08,0.08,0,0,1,0-.11,0.12,0.12,0,0,0,0-.13,0.2,0.2,0,0,0-.12-0.15,1.51,1.51,0,0,0-.12-0.13,0.05,0.05,0,0,0-.06,0h0Z" transform="translate(-387.06 -952.3)"/>
      <path class="j" d="M430.83,964.77c0.06,0,.11,0,0.06,0s-0.08,0,0,0,0.12,0,.07,0-0.06,0,0,0,0.08,0,0,.06-0.07,0-.1,0,0-.06,0,0,0,0,0,0-0.06-.06,0,0,0,0-.08,0a1.08,1.08,0,0,0,.15.13,0.37,0.37,0,0,1,.16,0,0.55,0.55,0,0,1,.15,0s0.07,0,.06-0.07,0,0,0,0,0,0,0-.07,0,0,0,0,0,0,0,0,0,0,0,0,0,0,0-.05,0,0,0,0,0,0-.06-0.05-0.06,0-.12,0h0Z" transform="translate(-387.06 -952.3)"/>
      <path class="i" d="M431.48,965.1a0.66,0.66,0,0,1-.66,0,0.35,0.35,0,0,1,.16,0,0.55,0.55,0,0,1,.15,0s0.07,0,.06-0.07a0.14,0.14,0,0,0,.12.08l0.17,0h0Z" transform="translate(-387.06 -952.3)"/>
      <path class="i" d="M430.86,963.76c0-.06,0-0.07-0.07-0.07a0.15,0.15,0,0,1-.08,0,0.07,0.07,0,0,0-.09.07,0.19,0.19,0,0,1-.1.13,0.16,0.16,0,0,0-.08.14,0.17,0.17,0,0,1-.05.13l-0.06.07,0.07,0s0,0,0,0-0.08,0,0,0,0.09,0,0,0-0.13.05,0,0,0.17,0,0,0-0.09,0,0,0,0.1,0,.06,0-0.05,0,0,0h0a0.09,0.09,0,0,0,0,0,0.42,0.42,0,0,1,.08-0.2,0.17,0.17,0,0,0,.07-0.12,0.53,0.53,0,0,1,.13-0.23,0.19,0.19,0,0,0,.05-0.19h0Z" transform="translate(-387.06 -952.3)"/>
      <path class="j" d="M430.75,963.77a0.06,0.06,0,0,0-.1.05,0.1,0.1,0,0,1-.07.1,0.17,0.17,0,0,0-.09.13,0.18,0.18,0,0,1,0,.12s0,0.07,0,.09a0.09,0.09,0,0,1,0,.06s0.07,0,.07,0,0,0,.05-0.06a0.21,0.21,0,0,0,.09-0.15s0-.05,0-0.09a0.17,0.17,0,0,0,.1-0.08,0.09,0.09,0,0,1,0-.07s0,0-.06-0.06h0Z" transform="translate(-387.06 -952.3)"/>
      <path d="M430.75,963.71s-0.05.06,0,.07,0.05-.05,0-0.07h0Z" transform="translate(-387.06 -952.3)"/>
      <path d="M430.74,963.8s-0.08.05,0,0,0.08-.05,0,0h0Z" transform="translate(-387.06 -952.3)"/>
      <path d="M430.67,963.89s0,0.07,0,0,0.07-.08,0,0h0Z" transform="translate(-387.06 -952.3)"/>
      <path d="M430.62,964s0,0.07,0,0,0.07-.08,0,0h0Z" transform="translate(-387.06 -952.3)"/>
      <path d="M430.54,964s0,0.07,0,0,0.05-.08,0,0h0Z" transform="translate(-387.06 -952.3)"/>
      <path d="M430.59,964s0,0.07,0,0,0.05-.08,0,0h0Z" transform="translate(-387.06 -952.3)"/>
      <path d="M430.53,964.06s0,0.07,0,0,0.05-.08,0,0h0Z" transform="translate(-387.06 -952.3)"/>
      <path d="M430.57,964.12s0,0.07,0,0,0.05-.08,0,0h0Z" transform="translate(-387.06 -952.3)"/>
      <path d="M430.5,964.15s0,0.07,0,0,0.05-.08,0,0h0Z" transform="translate(-387.06 -952.3)"/>
      <path d="M430.51,964.19s0,0.07,0,0,0.05-.08,0,0h0Z" transform="translate(-387.06 -952.3)"/>
      <path class="j" d="M430.48,964.64s-0.06.06,0,.07,0.06,0,.06.05a0.08,0.08,0,0,0,.06.09c0.05,0,.09-0.05.05-0.07a0.11,0.11,0,0,1-.09-0.07,0.07,0.07,0,0,0-.07-0.06h0Z" transform="translate(-387.06 -952.3)"/>
      <path class="i" d="M431.79,964.34l0,0s0.1,0,.09,0,0-.1,0,0l0.49,0.34c0.1,0.07,0,.08,0,0.06l-0.26-.12c-0.08,0-.09,0-0.1,0a0.07,0.07,0,0,0,0,.07,0.14,0.14,0,0,1-.15-0.05,1.08,1.08,0,0,0-.13-0.19,0.06,0.06,0,0,1,0,0h0Z" transform="translate(-387.06 -952.3)"/>
      <path class="l" d="M434.42,973a0.18,0.18,0,0,0-.1.24h0a6.32,6.32,0,0,0,.67-1v0a1,1,0,0,1-.24.14,0.27,0.27,0,0,1-.2.23,0.1,0.1,0,0,1,0,.15s0,0-.1.07a0.24,0.24,0,0,0-.12.08,0.17,0.17,0,0,1,.11,0s0,0,0,.06a0.17,0.17,0,0,0-.1.06c0.07,0,.17,0,0.1,0h0Z" transform="translate(-387.06 -952.3)"/>
      <path d="M431.27,964.24c-0.08-.07-0.1,0-0.07,0s0,0.06-.06.07l-0.21,0s-0.09.06,0,.05a1.42,1.42,0,0,0,.32-0.06s0.08-.05,0-0.11h0Z" transform="translate(-387.06 -952.3)"/>
      <path d="M430.92,964.42l-0.06,0,0.06,0,0.21,0,0.08,0,0,0v-0.07a0.14,0.14,0,0,1,.07,0l0,0.07a0.09,0.09,0,0,1-.06.06,1.41,1.41,0,0,1-.32.06h0Zm0.34-.17a0.14,0.14,0,0,1-.12.09l-0.22,0v0h0a1.46,1.46,0,0,0,.31-0.06l0.06,0,0-.05h0Z" transform="translate(-387.06 -952.3)"/>
      <path d="M431.42,964.36c-0.06-.06-0.09,0-0.07,0s0,0.05-.05.06a2.51,2.51,0,0,1-.28.08c-0.07,0-.09.06,0,0.05a1.1,1.1,0,0,0,.34-0.1s0,0,.06,0,0.05,0,0-.06h0Z" transform="translate(-387.06 -952.3)"/>
      <path d="M431,964.57c-0.07,0-.08,0-0.08,0h0l0.07,0a2.08,2.08,0,0,0,.27-0.07h0l0,0a2.15,2.15,0,0,1-.29.08v0h0a1.13,1.13,0,0,0,.33-0.1l0.07,0-0.07-.07s0,0,.07,0l0,0.07-0.07,0a0.94,0.94,0,0,1-.37.13h0Z" transform="translate(-387.06 -952.3)"/>
      <path d="M431.47,964.53l-0.21.09s-0.09.07,0,.06a0.67,0.67,0,0,0,.25-0.12,0.12,0.12,0,0,1,.07,0s0.07,0,0-.08-0.14,0-.1,0,0,0.05,0,.07h0Z" transform="translate(-387.06 -952.3)"/>
      <path d="M431.25,964.69l-0.06,0,0.06,0,0.21-.09v-0.09a0.14,0.14,0,0,1,.13,0,0.07,0.07,0,0,1,.06.07l-0.1.05a0.69,0.69,0,0,1-.27.13h0Zm0.25-.26,0,0.1-0.22.1v0h0a0.52,0.52,0,0,0,.22-0.1l0.1,0a0.11,0.11,0,0,0-.09-0.08h0Z" transform="translate(-387.06 -952.3)"/>
      <path d="M430.64,963.19a0.12,0.12,0,1,0-.14.19,0.12,0.12,0,0,0,.14-0.19h0Z" transform="translate(-387.06 -952.3)"/>
      <path class="d" d="M430.48,963.27h0a0.08,0.08,0,0,0,.09.08,0.09,0.09,0,0,1-.13-0.09h0Z" transform="translate(-387.06 -952.3)"/>
      <path class="d" d="M431,965.21l0.22,0-0.06.12s0,0,0,0,0-.09-0.06,0l-0.05.1s0,0,0,0a0.81,0.81,0,0,0,0-.17h0Z" transform="translate(-387.06 -952.3)"/>
      <path d="M431.26,975.45h0c-4.27-1.69-4.87-5.17-4.88-8.68h0c0-.56,0-1.09,0-1.61,0-.69,0-1.34,0-1.95a12.88,12.88,0,0,1,4.85-.9,13.15,13.15,0,0,1,4.84.88c0,0.63,0,1.28,0,2,0,0.52,0,1.06,0,1.61l0,0c0,3.52-.6,7-4.85,8.65h0Zm-4.86-8.66c0,3.46.63,6.92,4.86,8.6,4.22-1.68,4.82-5.12,4.84-8.6h-9.7Zm4.86-4.42a13.08,13.08,0,0,0-4.82.87c0,0.58,0,1.23,0,1.93,0,0.52,0,1.06,0,1.6l9.67,0c0-.54,0-1.06,0-1.58,0-.69,0-1.34,0-1.95a13.33,13.33,0,0,0-4.8-.85h0Z" transform="translate(-387.06 -952.3)"/>
    </g>
  </g>
</svg>
