<svg xmlns="http://www.w3.org/2000/svg" xmlns:xlink="http://www.w3.org/1999/xlink" viewBox="0 0 58.92 34.37">
  <defs>
    <style>
      .a {
        fill: none;
      }

      .b {
        clip-path: url(#a);
      }

      .c {
        fill: #419e4b;
      }

      .d {
        fill: #bc0030;
      }

      .e {
        fill: #f3d02f;
      }

      .f {
        fill: #fff;
      }
    </style>
    <clipPath id="a" transform="translate(-457.75 -952.3)">
      <rect class="a" x="457.75" y="952.3" width="58.92" height="34.37"/>
    </clipPath>
  </defs>
  <title>Saint_Kitts_and_Nevis</title>
  <g class="b">
    <polygon class="c" points="0 0 0 26.91 40.37 0 0 0"/>
    <polygon class="d" points="18.55 34.37 58.92 34.37 58.92 7.46 18.55 34.37"/>
    <polygon class="e" points="40.37 0 0 26.91 0 29.75 44.62 0 40.37 0"/>
    <polygon class="e" points="14.3 34.37 18.55 34.37 58.92 7.46 58.92 4.63 14.3 34.37"/>
    <path d="M475.9,977.78l-1.05,0-2.56-.11,3-2-1-3.48,2.84,2.24,3-2-0.89,2.4-0.37,1,2.84,2.24-3.61-.15-1.26,3.39Zm20.27-13.51-1.05,0-2.56-.1,3-2-1-3.48,2.84,2.24,3-2-0.89,2.4-0.37,1L502,964.5l-3.61-.15-1.25,3.39Zm6.21-12L457.75,982v4.63h14.3l44.62-29.75V952.3H502.37Z" transform="translate(-457.75 -952.3)"/>
    <polygon class="f" points="42.67 6.57 39.66 8.57 36.83 6.33 37.8 9.81 34.8 11.82 37.35 11.92 41.78 8.97 42.67 6.57"/>
    <polygon class="f" points="39.39 15.45 40.64 12.06 44.26 12.2 41.42 9.96 41.78 8.97 37.35 11.92 38.41 11.97 39.39 15.45"/>
    <polygon class="f" points="22.41 20.08 19.4 22.09 16.56 19.84 17.54 23.32 14.53 25.33 17.09 25.43 21.52 22.48 22.41 20.08"/>
    <polygon class="f" points="19.12 28.96 20.38 25.57 23.99 25.71 21.15 23.47 21.52 22.48 17.09 25.43 18.14 25.48 19.12 28.96"/>
  </g>
</svg>
