<svg xmlns="http://www.w3.org/2000/svg" xmlns:xlink="http://www.w3.org/1999/xlink" viewBox="0 0 58.92 34.37">
  <defs>
    <style>
      .a {
        fill: none;
      }

      .b {
        clip-path: url(#a);
      }

      .c {
        fill: #fff;
      }

      .d {
        fill: #fcff2c;
      }

      .e {
        fill: #ea0020;
      }

      .f {
        fill: #8fcdde;
      }

      .g {
        fill: #c9002b;
      }

      .h {
        fill: #150079;
      }

      .i {
        fill: #7d7d7d;
      }

      .j {
        fill: #479dc1;
      }

      .k {
        fill: #b06f61;
      }

      .l {
        fill: #38873b;
      }
    </style>
    <clipPath id="a" transform="translate(-598.01 -952.31)">
      <rect class="a" x="598.01" y="952.31" width="58.92" height="34.37"/>
    </clipPath>
  </defs>
  <title>Saint_Martin</title>
  <g class="b">
    <rect class="c" width="58.92" height="34.37"/>
    <g class="b">
      <path class="d" d="M608.81,965.33v-0.24a0.4,0.4,0,0,1,0-.42,0.43,0.43,0,0,1-.24-0.43,1.62,1.62,0,0,0-.6-0.67,0.44,0.44,0,0,1-.44-0.21,0.35,0.35,0,0,1-.38-0.15,0.42,0.42,0,0,1-.46-0.14,0.92,0.92,0,0,0-.87,0,0.42,0.42,0,0,1-.46.14,0.35,0.35,0,0,1-.38.15,0.44,0.44,0,0,1-.44.2,1.65,1.65,0,0,0-.6.67,0.42,0.42,0,0,1-.24.43,0.4,0.4,0,0,1,0,.42v0.22l5.08,0h0Z" transform="translate(-598.01 -952.31)"/>
      <path d="M608.81,965.33l-5.09,0v-0.22a0.4,0.4,0,0,0,0-.42,0.43,0.43,0,0,0,.24-0.43,0.37,0.37,0,0,0,.26-0.38,0.37,0.37,0,0,0,.34-0.28,0.41,0.41,0,0,0,.44-0.21h0.1a0.28,0.28,0,0,0,.28-0.16,0.5,0.5,0,0,0,.14,0,0.38,0.38,0,0,0,.32-0.16h0a0.66,0.66,0,0,0,.18,0,0.27,0.27,0,0,0,.25-0.14,0.28,0.28,0,0,0,.26.14,0.53,0.53,0,0,0,.18,0,0.41,0.41,0,0,0,.47.15,0.38,0.38,0,0,0,.38.15,0.4,0.4,0,0,0,.3.2,0.37,0.37,0,0,1-.31-0.2,0.36,0.36,0,0,1-.38-0.15,0.39,0.39,0,0,1-.46-0.14,0.48,0.48,0,0,1-.18,0,0.28,0.28,0,0,1-.26-0.14,0.26,0.26,0,0,1-.25.14,0.54,0.54,0,0,1-.18,0,0.4,0.4,0,0,1-.46.14,0.36,0.36,0,0,1-.38.15,0.4,0.4,0,0,1-.38.21,0.48,0.48,0,0,1-.4.28,0.36,0.36,0,0,1-.26.38,0.42,0.42,0,0,1-.24.43,0.39,0.39,0,0,1,0,.42v0.22l5.08,0v-0.23a0.4,0.4,0,0,1,0-.43h0a0.42,0.42,0,0,1-.24-0.43,0.37,0.37,0,0,1-.26-0.39,0.4,0.4,0,0,1-.19-0.06,0.57,0.57,0,0,0,.2.06,0.37,0.37,0,0,0,.26.39,0.43,0.43,0,0,0,.24.43,0.41,0.41,0,0,0,0,.42v0.24h0Z" transform="translate(-598.01 -952.31)"/>
      <path class="e" d="M608.69,965a4.16,4.16,0,0,0-2.43.13,2.93,2.93,0,0,0-1.7-.21c-0.31.05-.67,0.05-1,0.11h-0.05a3.37,3.37,0,0,1-1.61-.36c0.16,0.91.34,1.84,0.42,2.79,0.19,1.41-.67,2.6-0.32,4a1.88,1.88,0,0,0,1.62,1.13,13,13,0,0,1,1.93.28,2.15,2.15,0,0,1,.33.11,1.18,1.18,0,0,1,.4.28,2.21,2.21,0,0,1,1.42-.54c0.95-.11,2.12-0.05,2.7-0.91v0a2.31,2.31,0,0,0,.14-1.74,5.13,5.13,0,0,0-.09-0.53c-0.58-1.53-.08-3.25.17-4.8a4,4,0,0,1-1,.33,4.68,4.68,0,0,1-.84,0l-0.11,0h0Z" transform="translate(-598.01 -952.31)"/>
      <path class="f" d="M609.88,969.43a1.11,1.11,0,0,0,.07.27,1.79,1.79,0,0,1-.47,2c-0.76.48-1.76,0.28-2.64,0.53a1.64,1.64,0,0,0-.54.32,2.11,2.11,0,0,0-.26-0.18,11.27,11.27,0,0,0-2.49-.46,1.38,1.38,0,0,1-.94-0.87c-0.27-1.11.37-2,.3-3.14a13.29,13.29,0,0,0-.38-2.42,3.41,3.41,0,0,0,2.1.2,3.11,3.11,0,0,1,1.65.15,3.19,3.19,0,0,1,.89-0.21,17.22,17.22,0,0,0,1.75.15,3.06,3.06,0,0,0,1.08-.28,7.92,7.92,0,0,0-.11,4h0Z" transform="translate(-598.01 -952.31)"/>
      <polygon class="c" points="10.73 17.37 10.72 16.15 10.87 16.15 9.01 14.95 9 14.32 9.18 14.32 8.25 13.65 7.32 14.32 7.5 14.32 7.51 14.95 5.65 16.15 5.8 16.15 5.81 17.37 10.73 17.37 10.73 17.37"/>
      <path d="M608.75,969.7h-4.93l0-1.23h-0.13l1.85-1.23v-0.61h-0.17l0.92-.69,0.95,0.67-0.19,0,0,0.61,1.86,1.19-0.16,0,0,1.22h0Zm-4.94-1.25,0,1.23h4.89v-1.21h0.16L607,967.27v-0.64h0.19l-0.94-.64-0.91.67,0.17,0,0,0.64-1.86,1.21,0.14,0h0Z" transform="translate(-598.01 -952.31)"/>
      <polygon class="g" points="58.92 17.18 58.92 0 0 0 25.78 17.18 58.92 17.18"/>
      <polygon class="h" points="58.92 34.37 58.92 17.18 25.78 17.18 0 34.37 58.92 34.37"/>
      <polygon class="c" points="11.3 18.97 11.3 19.35 5.3 19.35 5.29 18.97 11.3 18.97 11.3 18.97"/>
      <path d="M609.32,971.68h-6l0-.39h6v0.41h0Zm0-.4h-6l0,0.37h6v-0.37h0Z" transform="translate(-598.01 -952.31)"/>
      <polygon class="c" points="5.7 18.95 5.69 17.66 5.93 17.66 5.92 18.96 5.93 17.67 5.58 17.66 5.58 17.38 10.95 17.39 10.95 17.66 10.62 17.66 10.63 18.97 10.62 17.66 10.86 17.66 10.87 18.95 5.7 18.95"/>
      <polygon points="10.64 18.97 10.6 17.66 10.86 17.65 10.86 17.65 10.95 17.65 10.94 17.39 5.58 17.39 5.6 17.66 5.93 17.64 5.93 18.96 5.92 17.67 5.69 17.67 5.71 18.95 5.68 18.95 5.68 17.67 5.58 17.67 5.57 17.38 10.95 17.37 10.97 17.66 10.86 17.66 10.88 18.95 10.85 17.67 10.62 17.67 10.64 18.97 10.64 18.97"/>
      <path d="M604.87,971h-0.73l0-.91h0.73l0,0.93h0Zm0-.91h-0.71l0,0.89h0.69V970h0Z" transform="translate(-598.01 -952.31)"/>
      <path d="M604.67,970.77h-0.34l0-.54h0.34l0,0.55h0Zm0-.54h-0.32l0,0.51h0.3v-0.51h0Z" transform="translate(-598.01 -952.31)"/>
      <path d="M608.39,971h-0.73l0-.91h0.73l0,0.93h0Zm0-.91h-0.71l0,0.89h0.69V970h0Z" transform="translate(-598.01 -952.31)"/>
      <path d="M608.2,970.77h-0.34l0-.54h0.34l0,0.55h0Zm0-.54h-0.32l0,0.51h0.3v-0.51h0Z" transform="translate(-598.01 -952.31)"/>
      <path d="M608.38,969.49h-0.73v-0.91h0.73l0,0.93h0Zm0-.91h-0.7v0.89h0.69v-0.89h0Z" transform="translate(-598.01 -952.31)"/>
      <path d="M608.19,969.3h-0.34l0-.54h0.35v0.55h0Zm0-.54h-0.32l0,0.51h0.3v-0.51h0Z" transform="translate(-598.01 -952.31)"/>
      <path d="M604.86,969.49h-0.73l0-.91h0.73l0,0.92h0Zm0-.91h-0.71l0,0.89h0.69v-0.88h0Z" transform="translate(-598.01 -952.31)"/>
      <path d="M604.67,969.3h-0.34l0-.54h0.34l0,0.55h0Zm0-.54h-0.32l0,0.51h0.3v-0.51h0Z" transform="translate(-598.01 -952.31)"/>
      <path d="M606.17,969.49h-0.73l0-.91h0.73l0,0.93h0Zm0-.91h-0.71l0,0.89h0.69v-0.89h0Z" transform="translate(-598.01 -952.31)"/>
      <path d="M606,969.3h-0.34l0-.54H606v0.55h0Zm0-.54h-0.32l0,0.51h0.3v-0.51h0Z" transform="translate(-598.01 -952.31)"/>
      <path d="M607.17,969.49h-0.73l0-.91h0.73l0,0.93h0Zm0-.91h-0.71l0,0.89h0.69v-0.89h0Z" transform="translate(-598.01 -952.31)"/>
      <path d="M607,969.3h-0.34v-0.54H607v0.55h0Zm0-.54h-0.32v0.51h0.3v-0.51h0Z" transform="translate(-598.01 -952.31)"/>
      <polygon class="c" points="9.33 16.89 9.34 18.97 7.25 18.96 7.25 16.89 9.33 16.89 9.33 16.89"/>
      <path d="M607.36,971.29h-2.1l0-2.09h2.1l0,2.1h0Zm0-2.09h-2.07l0,2.06h2.06v-2.06h0Z" transform="translate(-598.01 -952.31)"/>
      <polygon points="7.23 17.5 7.23 17.47 9.33 17.47 7.23 17.5 7.23 17.5"/>
      <polygon points="7.48 18.96 7.47 17.5 7.51 18.96 7.48 18.96 7.48 18.96"/>
      <polygon points="9.07 18.97 9.06 17.5 9.1 18.97 9.07 18.97 9.07 18.97"/>
      <path d="M608.14,968.33h-3.7l1.16-.88h1.33l1.22,0.88h0Zm-1.22-.86H605.6l-1.16.85,3.61,0-1.14-.83h0Z" transform="translate(-598.01 -952.31)"/>
      <path d="M606.83,967.29h-1.12l0-.54h1.12l0,0.55h0Zm0-.54h-1.1l0,0.51h1.08v-0.51h0Z" transform="translate(-598.01 -952.31)"/>
      <path d="M606.53,967.15H606l0-.27h0.52l0,0.29h0Zm0-.27H606v0.25h0.48v-0.25h0Z" transform="translate(-598.01 -952.31)"/>
      <path d="M606.92,966.61h-1.27l0.6-.46,0.67,0.46h0Zm-0.67-.44-0.6.43,1.18,0-0.59-.41h0Z" transform="translate(-598.01 -952.31)"/>
      <path class="c" d="M608.75,965.86a1.63,1.63,0,0,1,.22,1.08,1.66,1.66,0,0,1,.63.44h-1.69a1.26,1.26,0,0,0,.84-1.52h0Z" transform="translate(-598.01 -952.31)"/>
      <path d="M607.91,967.39a1.44,1.44,0,0,1,.62-0.47,2.44,2.44,0,0,1,.15-1.05,3,3,0,0,0-.14,1.07,1.75,1.75,0,0,0-.63.45l1.68,0A2,2,0,0,0,609,967a2.56,2.56,0,0,0-.17-1.06l0,0,0.06,0a2.64,2.64,0,0,1,.17,1.07,1.54,1.54,0,0,1,.63.44l-1.7,0h0Z" transform="translate(-598.01 -952.31)"/>
      <path d="M605.52,969.63h-0.17l0-.09h0a0.17,0.17,0,0,1,0-.21l0-.07,0.16,0,0,0.1h0a0.17,0.17,0,0,1,0,.21l0,0.08h0Zm0-.38-0.14,0,0.06,0.06a0.19,0.19,0,0,0,0,.21l0,0.08,0.11,0,0-.06a0.18,0.18,0,0,0,0-.2l0-.1h0Z" transform="translate(-598.01 -952.31)"/>
      <path d="M605.83,969.63h-0.17l0-.09h0a0.17,0.17,0,0,1,0-.21l0-.07,0.16,0,0,0.1h0a0.17,0.17,0,0,1,0,.21l0.05,0.08h0Zm0-.38-0.14,0,0.06,0.06a0.2,0.2,0,0,0,0,.21l0,0.09,0.11,0,0-.06a0.17,0.17,0,0,0,0-.2l0-.1h0Z" transform="translate(-598.01 -952.31)"/>
      <path d="M606.17,969.64H606l0-.09h0a0.17,0.17,0,0,1,0-.21l0-.07,0.16,0,0,0.1h0a0.17,0.17,0,0,1,0,.21l0.05,0.08h0Zm0-.38-0.14,0,0.06,0.06a0.19,0.19,0,0,0,0,.21l0,0.08h0.11l0-.06a0.18,0.18,0,0,0,0-.2l0-.1h0Z" transform="translate(-598.01 -952.31)"/>
      <path d="M606.55,969.64h-0.17l0-.09a0.17,0.17,0,0,1,0-.21l0-.07,0.16,0,0,0.1h0a0.16,0.16,0,0,1,0,.2l0.05,0.08h0Zm0-.38-0.14,0,0.06,0.06a0.19,0.19,0,0,0,0,.21l0,0.09,0.12,0,0-.06a0.18,0.18,0,0,0,0-.2l0-.1h0Z" transform="translate(-598.01 -952.31)"/>
      <path d="M606.89,969.64h-0.17l0-.09a0.17,0.17,0,0,1,0-.21l0-.07,0.16,0,0,0.1h0a0.16,0.16,0,0,1,0,.2l0.05,0.08h0Zm0-.38-0.14,0,0.06,0.06a0.19,0.19,0,0,0,0,.21l0,0.08,0.11,0,0-.06a0.18,0.18,0,0,0,0-.2l0-.1h0Z" transform="translate(-598.01 -952.31)"/>
      <path d="M607.22,969.64h-0.17l0-.09h0a0.17,0.17,0,0,1,0-.21l0-.07,0.16,0,0,0.1h0a0.16,0.16,0,0,1,0,.2l0,0.08h0Zm0-.38-0.14,0,0.06,0.06a0.19,0.19,0,0,0,0,.21l0,0.09,0.12,0,0-.06a0.18,0.18,0,0,0,0-.2l0-.1h0Z" transform="translate(-598.01 -952.31)"/>
      <path class="d" d="M606.3,973.94a5.71,5.71,0,0,0,2.19-.39l1-.09,0,1.21a9,9,0,0,1-3.2.56,9.18,9.18,0,0,1-3.22-.56v-1.21l1,0.09a6,6,0,0,0,2.22.39h0Z" transform="translate(-598.01 -952.31)"/>
      <path d="M606.33,975.23h0a9.18,9.18,0,0,1-3.22-.56v-1.21l1,0.09a6,6,0,0,0,2.22.39h0a5.71,5.71,0,0,0,2.19-.39l1-.09,0,1.21a9,9,0,0,1-3.18.56h0Zm-3.23-1.77v1.21a9.19,9.19,0,0,0,3.2.56h0a9,9,0,0,0,3.17-.56l0-1.2-1,.09a5.65,5.65,0,0,1-2.17.39,5.94,5.94,0,0,1-2.24-.39l-1-.09h0Z" transform="translate(-598.01 -952.31)"/>
      <path class="d" d="M600.54,968.8l0.87,0.28-0.26,1.41-0.83.13a4,4,0,0,1,.22-1.81h0Z" transform="translate(-598.01 -952.31)"/>
      <path d="M600.32,970.62h0a4,4,0,0,1,.22-1.82l0.88,0.28-0.26,1.41-0.83.13h0Zm0.22-1.82a4.08,4.08,0,0,0-.21,1.81l0.82-.13,0.26-1.41-0.87-.28h0Z" transform="translate(-598.01 -952.31)"/>
      <polygon class="i" points="3.14 18.16 2.32 18.3 2.84 17.56 3.14 18.16"/>
      <path d="M600.32,970.62l0.53-.75,0.31,0.6-0.83.15h0Zm0.53-.75-0.51.74,0.82-.14-0.3-.59h0Z" transform="translate(-598.01 -952.31)"/>
      <path class="d" d="M600,969.81l0.84,0.06a3.28,3.28,0,0,0,3.34,3.57l-0.1,1c-3.94,0-4.24-3.33-4.08-4.62h0Z" transform="translate(-598.01 -952.31)"/>
      <path d="M604,974.44a3.91,3.91,0,0,1-3.08-1.19,4.58,4.58,0,0,1-.94-3.43l0.84,0.06c0.07,2.83,1.86,3.5,3.34,3.57l-0.1,1H604Zm-4-4.62a4.6,4.6,0,0,0,.94,3.43,3.91,3.91,0,0,0,3.07,1.19h0.07l0.1-1c-1.49-.06-3.27-0.74-3.35-3.57l-0.84-.06h0Z" transform="translate(-598.01 -952.31)"/>
      <polygon points="5.1 22.32 5.09 22.32 6.08 22.1 5.1 22.32 5.1 22.32"/>
      <path class="d" d="M612,968.81l-0.87.28,0.27,1.41,0.83,0.13a4,4,0,0,0-.23-1.81h0Z" transform="translate(-598.01 -952.31)"/>
      <path d="M612.23,970.63h0l-0.83-.13-0.28-1.41,0.87-.28a4,4,0,0,1,.24,1.82h0ZM612,968.81l-0.86.28,0.28,1.4,0.82,0.13a4.07,4.07,0,0,0-.24-1.81h0Z" transform="translate(-598.01 -952.31)"/>
      <polygon class="i" points="13.4 18.16 14.22 18.31 13.7 17.57 13.4 18.16"/>
      <path d="M612.24,970.63l-0.83-.15,0.3-.6,0.54,0.75h0Zm-0.54-.74-0.29.59,0.82,0.14-0.52-.74h0Z" transform="translate(-598.01 -952.31)"/>
      <path class="d" d="M612.53,969.83l-0.84.06a3.24,3.24,0,0,1-3.31,3.57l0.11,1c3.94,0,4.21-3.32,4-4.61h0Z" transform="translate(-598.01 -952.31)"/>
      <path d="M608.56,974.44h-0.08l-0.11-1c1.49-.07,3.27-0.74,3.31-3.57l0.84-.06a4.54,4.54,0,0,1-.91,3.44,3.87,3.87,0,0,1-3.06,1.18h0Zm4-4.62-0.84.06c0,2.83-1.83,3.5-3.31,3.57l0.11,1h0.08a3.87,3.87,0,0,0,3.05-1.18,4.55,4.55,0,0,0,.91-3.43h0Z" transform="translate(-598.01 -952.31)"/>
      <polygon points="11.48 22.33 10.49 22.11 11.48 22.32 11.48 22.33 11.48 22.33"/>
      <path class="j" d="M605.78,974.54l-0.09,0h-0.16v-0.2h0.16l0.07,0a0.08,0.08,0,0,1,0,.09,0.08,0.08,0,0,1,0,.07h0Zm-0.26.31,0-.24h0.18a0.16,0.16,0,0,0,.13,0,0.16,0.16,0,0,0,0-.11,0.15,0.15,0,0,0,0-.12,0.21,0.21,0,0,0-.12,0l-0.26,0,0,0.56h0.08Z" transform="translate(-598.01 -952.31)"/>
      <path class="j" d="M606.08,974.38h0.26a0.08,0.08,0,0,1,0,.08,0.08,0.08,0,0,1,0,.08l-0.09,0h-0.18v-0.19h0Zm0,0.5v-0.24h0.25a0.07,0.07,0,0,1,0,.07v0.1a0.36,0.36,0,0,0,0,0v0h0.09a0.05,0.05,0,0,1,0,0,0.2,0.2,0,0,1,0,0v-0.07a0.11,0.11,0,0,0,0-.07l-0.05,0,0.06-.05a0.18,0.18,0,0,0,0-.08,0.13,0.13,0,0,0-.08-0.13l-0.11,0H606v0.56h0.08Z" transform="translate(-598.01 -952.31)"/>
      <path class="j" d="M606.68,974.75a0.27,0.27,0,0,1-.06-0.16,0.25,0.25,0,0,1,0-.18,0.2,0.2,0,0,1,.29,0,0.23,0.23,0,0,1,.06.16,0.3,0.3,0,0,1,0,.17,0.16,0.16,0,0,1-.15.08,0.19,0.19,0,0,1-.16-0.05h0Zm-0.09-.35a0.3,0.3,0,0,0,0,.2,0.32,0.32,0,0,0,.08.2,0.3,0.3,0,0,0,.43,0,0.35,0.35,0,0,0,.05-0.21,0.29,0.29,0,0,0-.07-0.19,0.27,0.27,0,0,0-.23-0.09,0.25,0.25,0,0,0-.21.12h0Z" transform="translate(-598.01 -952.31)"/>
      <path class="j" d="M609.23,973.59a0.32,0.32,0,0,1,.14,0,0.21,0.21,0,0,1,.13.14h-0.08a0.14,0.14,0,0,0-.07-0.08,0.22,0.22,0,0,0-.12,0,0.19,0.19,0,0,0-.12.08,0.26,0.26,0,0,0,0,.18,0.27,0.27,0,0,0,.07.15,0.18,0.18,0,0,0,.16,0,0.18,0.18,0,0,0,.12-0.06,0.18,0.18,0,0,0,0-.15l-0.18,0v-0.06l0.25,0,0,0.3h0l0-.07-0.06.07a0.27,0.27,0,0,1-.13,0,0.27,0.27,0,0,1-.19,0,0.31,0.31,0,0,1-.12-0.21,0.3,0.3,0,0,1,0-.23,0.25,0.25,0,0,1,.18-0.11h0Z" transform="translate(-598.01 -952.31)"/>
      <path class="j" d="M609.79,973.55l0.18-.06H610a0.08,0.08,0,0,1,.07.06,0.08,0.08,0,0,1,0,.08,0.14,0.14,0,0,1-.07,0l-0.17.06-0.07-.18h0ZM610,974l-0.09-.22,0.17-.06h0.07a0.08,0.08,0,0,1,.07.05l0,0.09,0,0v0l0.09,0h0l0,0,0,0,0-.07a0.13,0.13,0,0,0,0-.06l-0.06,0a0.15,0.15,0,0,0,0-.07,0.14,0.14,0,0,0,0-.09,0.14,0.14,0,0,0-.12-0.1l-0.11,0-0.25.09,0.2,0.53,0.07,0h0Z" transform="translate(-598.01 -952.31)"/>
      <polygon class="j" points="12.63 21.42 12.31 20.95 12.66 20.73 12.7 20.78 12.41 20.97 12.51 21.11 12.78 20.94 12.81 20.99 12.54 21.16 12.65 21.32 12.95 21.14 12.99 21.19 12.63 21.42 12.63 21.42"/>
      <path class="j" d="M610.91,972.91l0.09-.1a0.16,0.16,0,0,1,.14-0.06,0.28,0.28,0,0,1,.15.08l0,0a0.34,0.34,0,0,1,0,.08,0.15,0.15,0,0,1,0,.09l0,0.05-0.09.1-0.33-.29h0Zm0.49,0.22a0.2,0.2,0,0,0,0-.24,0.4,0.4,0,0,0-.1-0.13,0.32,0.32,0,0,0-.19-0.09,0.22,0.22,0,0,0-.19.08l-0.16.17,0.43,0.38,0.16-.17h0Z" transform="translate(-598.01 -952.31)"/>
      <polygon class="j" points="13.73 20.38 13.23 20.08 13.27 20.02 13.77 20.31 13.73 20.38 13.73 20.38"/>
      <polygon class="j" points="13.93 20.04 13.39 19.82 13.55 19.44 13.61 19.47 13.48 19.78 13.64 19.84 13.77 19.55 13.83 19.58 13.71 19.87 13.89 19.94 14.02 19.63 14.09 19.65 13.93 20.04 13.93 20.04"/>
      <polygon class="j" points="14.17 19.38 13.61 19.25 13.63 19.16 14.15 18.98 13.69 18.88 13.71 18.81 14.27 18.94 14.25 19.02 13.73 19.2 14.19 19.3 14.17 19.38 14.17 19.38"/>
      <path class="j" d="M612.13,971V970.9h0.08a0.16,0.16,0,0,0,.07-0.13,0.29,0.29,0,0,0,0-.08,0.09,0.09,0,0,0-.08-0.08,0.08,0.08,0,0,0-.07,0,0.29,0.29,0,0,0,0,.09l0,0.07a0.29,0.29,0,0,1,0,.1,0.12,0.12,0,0,1-.11,0,0.17,0.17,0,0,1-.12-0.07,0.19,0.19,0,0,1,0-.15,0.26,0.26,0,0,1,.06-0.15,0.17,0.17,0,0,1,.15,0v0.07l-0.08,0a0.18,0.18,0,0,0,0,.21,0.09,0.09,0,0,0,.06,0,0.07,0.07,0,0,0,.07,0l0-.1,0-.08a0.24,0.24,0,0,1,0-.08,0.16,0.16,0,0,1,.12,0,0.15,0.15,0,0,1,.13.08,0.31,0.31,0,0,1,0,.16,0.25,0.25,0,0,1-.07.16,0.2,0.2,0,0,1-.16,0h0Z" transform="translate(-598.01 -952.31)"/>
      <path class="j" d="M600.41,970.94V971l-0.08,0a0.15,0.15,0,0,0,0,.14,0.22,0.22,0,0,0,0,.07,0.09,0.09,0,0,0,.1.05,0.07,0.07,0,0,0,.06,0,0.26,0.26,0,0,0,0-.1V971.1a0.3,0.3,0,0,1,0-.11,0.12,0.12,0,0,1,.1-0.07,0.17,0.17,0,0,1,.14,0,0.2,0.2,0,0,1,.08.14,0.23,0.23,0,0,1,0,.15,0.17,0.17,0,0,1-.13.09v-0.07l0.07,0a0.14,0.14,0,0,0,0-.12,0.13,0.13,0,0,0,0-.09,0.1,0.1,0,0,0-.07,0,0.06,0.06,0,0,0-.06,0,0.52,0.52,0,0,0,0,.11v0.08a0.21,0.21,0,0,1,0,.09,0.12,0.12,0,0,1-.1.07,0.14,0.14,0,0,1-.15,0,0.28,0.28,0,0,1-.07-0.15,0.22,0.22,0,0,1,0-.17,0.18,0.18,0,0,1,.14-0.08h0Z" transform="translate(-598.01 -952.31)"/>
      <polygon class="j" points="2.36 19.36 2.92 19.2 3.04 19.59 2.98 19.61 2.87 19.29 2.71 19.34 2.8 19.64 2.74 19.65 2.64 19.36 2.45 19.41 2.56 19.74 2.49 19.76 2.36 19.36"/>
      <path class="j" d="M600.62,972.35l0.51-.27,0.06,0.09-0.35.37,0.51-.09,0.05,0.09-0.51.27,0-.06,0.3-.16,0.05,0,0.08,0-0.51.09,0-.06,0.35-.37h0l-0.06,0-0.06,0-0.3.16,0-.06h0Z" transform="translate(-598.01 -952.31)"/>
      <path class="j" d="M601.56,973.1a0.15,0.15,0,0,1-.07,0l-0.11-.11,0.14-.13,0.11,0.11,0,0.06a0.09,0.09,0,0,1,0,.09,0.09,0.09,0,0,1-.08,0h0Zm-0.41.05,0.18-.16,0.13,0.13a0.16,0.16,0,0,0,.13.06,0.17,0.17,0,0,0,.12,0,0.15,0.15,0,0,0,.06-0.12,0.17,0.17,0,0,0-.06-0.12l-0.18-.19-0.42.39,0.05,0.05h0Z" transform="translate(-598.01 -952.31)"/>
      <polygon class="j" points="3.66 21.29 3.96 20.81 4.32 21.03 4.28 21.09 3.99 20.91 3.9 21.06 4.17 21.22 4.13 21.28 3.86 21.11 3.76 21.27 4.06 21.45 4.02 21.51 3.66 21.29"/>
      <path class="j" d="M602.56,973.51l0.18,0.06,0.06,0a0.08,0.08,0,0,1,0,.09,0.1,0.1,0,0,1-.05.06h-0.09l-0.17-.05,0.06-.18h0Zm-0.16.47,0.08-.23,0.17,0.05,0.06,0a0.07,0.07,0,0,1,0,.08l0,0.09v0.06l0.09,0h0a0,0,0,0,1,0,0v0l0-.07a0.12,0.12,0,0,0,0-.07,0.11,0.11,0,0,0,0-.05l0.07,0a0.16,0.16,0,0,0,0-.07,0.13,0.13,0,0,0,0-.15l-0.1-.05-0.26-.08-0.18.53,0.08,0h0Z" transform="translate(-598.01 -952.31)"/>
      <path class="k" d="M603.18,964.27c0.07-.16.68-0.59,2.69-0.4a1.16,1.16,0,0,0,.54.18c0.11,0-.07,0-0.21-0.12s-0.18-.37.16-0.37a6.44,6.44,0,0,1,1.66.2,1.77,1.77,0,0,1-.94.16c-0.26,0-.23.13,0,0.12a3.67,3.67,0,0,1,2.66.35c0.11,0.08-.29.1-0.59,0a8.16,8.16,0,0,1-1.19,0,1,1,0,0,1-.64.2c0,0.12-.13.55-1.27,0.22-0.19.06-.87,0.17-0.79,0a0.87,0.87,0,0,1-.54,0,2.86,2.86,0,0,1,.66-0.36,10.14,10.14,0,0,1-1.51-.07,1.18,1.18,0,0,1-.7,0h0Z" transform="translate(-598.01 -952.31)"/>
      <path class="l" d="M603.59,966a0.14,0.14,0,0,1,.1-0.1c0.13,0,.21.26,0.37,0.12a0.28,0.28,0,0,1,.12.07c0,0.13.13,0,.21,0a1,1,0,0,1,.56-0.05,0.41,0.41,0,0,1-.22.33c0,0.13.12,0.21,0.12,0.33a0.15,0.15,0,0,1-.08.14,0.64,0.64,0,0,1-.26-0.08,0,0,0,0,0,0,0,0.28,0.28,0,0,0,.08.13c0,0.08-.12,0-0.18,0a0.2,0.2,0,0,1,0,.13,0.27,0.27,0,0,1-.15-0.13c0,0.05,0,.09,0,0.13a0.54,0.54,0,0,1-.19.43l-0.11.05a2.6,2.6,0,0,1,0-.29,1.24,1.24,0,0,1-.21.29,0.36,0.36,0,0,1-.2-0.28,0.35,0.35,0,0,1,.08-0.37,0.53,0.53,0,0,1-.17-0.15,1.12,1.12,0,0,1-.39,0,0.52,0.52,0,0,1,.12-0.46,0.3,0.3,0,0,0-.15-0.08,0.5,0.5,0,0,1-.26-0.36,0.84,0.84,0,0,1,.89.2h0Z" transform="translate(-598.01 -952.31)"/>
      <path class="d" d="M603.75,966c0,0.14.09,0,.17,0.12s-0.1.1-.16,0l0,0s0.06,0.05,0,.11-0.07-.05-0.1-0.09,0,0,0,0a0.14,0.14,0,0,1-.12,0s0-.06,0-0.08a0.48,0.48,0,0,1,.16,0s0-.09,0-0.12,0.07,0,.08,0h0Z" transform="translate(-598.01 -952.31)"/>
      <path class="d" d="M604.12,966.14a0.08,0.08,0,0,0,0,.08,0.09,0.09,0,0,1,.12,0,0.06,0.06,0,0,1,0,.07h-0.07a0.05,0.05,0,0,0,0,0,0.08,0.08,0,0,0-.07,0,0.1,0.1,0,0,1,0,.08s-0.06,0-.11,0a0.26,0.26,0,0,0,0-.1c-0.06,0,0,.1-0.09.06a0.08,0.08,0,0,1,0-.11,0.09,0.09,0,0,1,.11,0c0-.05.05-0.25,0.16-0.1h0Z" transform="translate(-598.01 -952.31)"/>
      <path class="d" d="M603.66,966.35a1,1,0,0,0,0,.15c0.06-.11.12,0,0.19,0a0.18,0.18,0,0,1,0,.1,0.29,0.29,0,0,1-.28,0l0,0a0.13,0.13,0,0,1,.05.17,0.19,0.19,0,0,1-.21-0.05c0-.06,0-0.1,0-0.14s0,0.13-.14.08a0.11,0.11,0,0,1,0-.15,0.39,0.39,0,0,1,.23,0,0.21,0.21,0,0,1,.05-0.2,0.15,0.15,0,0,1,.13.08h0Z" transform="translate(-598.01 -952.31)"/>
      <path class="c" d="M603.91,966.4c0,0.14-.14,0-0.18,0s0.11,0,.18,0h0Z" transform="translate(-598.01 -952.31)"/>
      <path class="c" d="M604.24,966.55c-0.07,0-.06-0.07-0.1-0.11l0,0a0.84,0.84,0,0,1,.07.13h0Z" transform="translate(-598.01 -952.31)"/>
      <path class="d" d="M604.14,966.52s0,0.09,0,.12l0.05,0a0.22,0.22,0,0,1,.14.07c0,0.1-.07.1-0.12,0.13h-0.06s0,0,0-.06a0.06,0.06,0,0,0-.06,0c0,0.06.09,0.12,0,.17s-0.18,0-.17-0.07,0.07-.14,0-0.14-0.07.14-.16,0.07v-0.1a0.19,0.19,0,0,0,.22-0.08,0.34,0.34,0,0,1,0-.19,0.17,0.17,0,0,1,.18.09h0Z" transform="translate(-598.01 -952.31)"/>
      <path d="M604.08,966.68c0,0.05,0,.06-0.06.08a0.09,0.09,0,0,1-.09,0c0-.06,0-0.07.07-0.09s0.06,0,.09,0h0Z" transform="translate(-598.01 -952.31)"/>
      <path class="c" d="M604,966.71h0v-0.06s0.06,0,0,.05h0Z" transform="translate(-598.01 -952.31)"/>
    </g>
  </g>
</svg>
