<svg xmlns="http://www.w3.org/2000/svg" xmlns:xlink="http://www.w3.org/1999/xlink" viewBox="0 0 58.92 34.37">
  <defs>
    <style>
      .a {
        fill: none;
      }

      .b {
        clip-path: url(#a);
      }

      .c, .p {
        fill: #3e7fcd;
      }

      .d, .v {
        fill: #fff;
      }

      .e {
        fill: #376fb8;
      }

      .f, .i {
        fill: #e1c025;
      }

      .g {
        fill: #c1b020;
      }

      .h {
        fill: #e1e2e3;
      }

      .aa, .ab, .i, .l, .n, .p, .q, .r, .t, .v, .x, .z {
        fill-rule: evenodd;
      }

      .j {
        clip-path: url(#c);
      }

      .k {
        fill: #d90031;
      }

      .l {
        fill: #3b8f4e;
      }

      .aa, .m {
        fill: #796d14;
      }

      .n {
        fill: #6fd66c;
      }

      .o {
        fill: #539d51;
      }

      .q {
        fill: #348110;
      }

      .r {
        fill: #a2871a;
      }

      .s {
        fill: #7b6714;
      }

      .t {
        fill: #914822;
      }

      .u {
        fill: #613219;
      }

      .w {
        fill: #a6a6a6;
      }

      .y {
        fill: #a5a5a5;
      }

      .z {
        fill: #ad761b;
      }

      .ab {
        fill: #2b6a0c;
      }

      .ac {
        fill: #1c4404;
      }

      .ad {
        fill: #43a514;
      }
    </style>
    <clipPath id="a" transform="translate(-951.46 -952.31)">
      <rect class="a" x="951.46" y="952.31" width="58.92" height="34.37"/>
    </clipPath>
    <clipPath id="c" transform="translate(-951.46 -952.31)">
      <path class="a" d="M978.62,965.53a10.25,10.25,0,0,0,4.6,0,10.49,10.49,0,0,0-4.6,0"/>
    </clipPath>
  </defs>
  <title>San_Marino</title>
  <g class="b">
    <rect class="c" y="17.19" width="58.92" height="17.19"/>
    <rect class="d" width="58.92" height="17.19"/>
    <g class="b">
      <path class="e" d="M981.23,961.39h-0.61a0.31,0.31,0,0,0,.61,0h0Z" transform="translate(-951.46 -952.31)"/>
      <path d="M980.92,961.64a0.32,0.32,0,0,1-.32-0.26h0a0.34,0.34,0,0,0,.56.1,0.27,0.27,0,0,1-.25.15h0Z" transform="translate(-951.46 -952.31)"/>
      <path class="e" d="M980.92,961a0.3,0.3,0,0,0-.31.25h0.61a0.31,0.31,0,0,0-.31-0.25h0Z" transform="translate(-951.46 -952.31)"/>
      <path d="M981.24,961.3h-0.62l0.11,0h0.37l0.11,0a0.32,0.32,0,0,0-.59,0c0-.31.56-0.29,0.61,0h0Z" transform="translate(-951.46 -952.31)"/>
      <polygon class="f" points="29.5 8.54 29.5 8.71 29.52 8.73 29.4 8.73 29.43 8.71 29.43 8.54 29.26 8.54 29.24 8.57 29.24 8.45 29.26 8.47 29.43 8.47 29.43 8.3 29.4 8.28 29.52 8.28 29.5 8.3 29.5 8.47 29.66 8.47 29.69 8.45 29.69 8.57 29.66 8.54 29.5 8.54"/>
      <polygon points="29.52 8.74 29.4 8.74 29.41 8.54 29.35 8.55 29.43 8.54 29.43 8.71 29.5 8.72 29.49 8.72 29.49 8.54 29.66 8.54 29.67 8.48 29.7 8.57 29.5 8.55 29.52 8.72 29.52 8.74 29.52 8.74"/>
      <rect class="g" x="29.26" y="9.25" width="0.4" height="0.21"/>
      <path d="M981.13,961.79h-0.41v-0.22h0.41v0.23h0Zm0-.22h-0.39v0.2h0.38v-0.2h0Z" transform="translate(-951.46 -952.31)"/>
      <path class="f" d="M980.87,961s0,0.07,0,.1,0,0.09,0,.13H981s0-.09,0-0.13,0-.07,0-0.1h-0.1Z" transform="translate(-951.46 -952.31)"/>
      <path class="a" d="M980.87,961s0,0.07,0,.1,0,0.09,0,.13H981s0-.09,0-0.13,0-.07,0-0.1h-0.1Z" transform="translate(-951.46 -952.31)"/>
      <path class="f" d="M981.23,961.29a1.68,1.68,0,0,0-.31,0,1.45,1.45,0,0,0-.31,0,0.28,0.28,0,0,0,0,0,0.3,0.3,0,0,0,0,.05h0.61a0.47,0.47,0,0,0,0-.05,0.4,0.4,0,0,0,0,0h0Z" transform="translate(-951.46 -952.31)"/>
      <path d="M980.92,961.41h0l-0.31,0h0a4.61,4.61,0,0,0,.49,0h0.08l0,0v0.05h-0.31Zm-0.31,0v-0.1a1.93,1.93,0,0,1,.62,0v0l-0.3,0h0a1.44,1.44,0,0,0-.31,0v0.08h0Z" transform="translate(-951.46 -952.31)"/>
      <path class="f" d="M984.49,963.51a0.4,0.4,0,0,1-.06.13l-0.37-.43a0.34,0.34,0,0,0,0-.2,1.22,1.22,0,0,0-1.16-.69c-0.61,0-1.71-.64-2-0.44a0.78,0.78,0,0,1,.68-0.08l0.25,0.08,0.64,0.22,0.3,0.08,0.13,0,0.12,0,0.22,0,0.21,0.06,0.19,0.08,0.17,0.1,0.14,0.11,0.11,0.12a0.57,0.57,0,0,1,.08.12l0,0.06V963a0.35,0.35,0,0,1,0,.1,0.42,0.42,0,0,1,0,.1Z" transform="translate(-951.46 -952.31)"/>
      <path d="M984.43,963.65l-0.38-.43a0.39,0.39,0,0,0,0-.2,1.21,1.21,0,0,0-1.15-.68,4.28,4.28,0,0,1-.95-0.25,1.77,1.77,0,0,0-1-.19,0.68,0.68,0,0,1,.67-0.09L982,962l0.45,0.15,0.3,0.08,0.13,0,0.12,0,0.23,0,0.21,0.06,0.19,0.08,0.17,0.1L984,962.6l0.11,0.12a0.66,0.66,0,0,1,.08.12l0,0.12a0.32,0.32,0,0,1,0,.1,0.44,0.44,0,0,1,0,.1l0.3,0.34a0.35,0.35,0,0,1-.06.14h0Zm-3.34-1.81a3.4,3.4,0,0,1,.88.23,4.29,4.29,0,0,0,.95.26,1.23,1.23,0,0,1,1.17.69,0.35,0.35,0,0,1,0,.2l0.36,0.41a0.35,0.35,0,0,0,.05-0.12l-0.3-.34s0-.07,0-0.1a0.39,0.39,0,0,0,0-.1l0-.12a0.62,0.62,0,0,0-.08-0.12l-0.11-.11-0.14-.11-0.17-.09-0.19-.08-0.21-.05-0.22,0h-0.12l-0.13,0-0.3-.08L982,962l-0.44-.15a0.9,0.9,0,0,0-.64,0,0.24,0.24,0,0,1,.14,0h0Z" transform="translate(-951.46 -952.31)"/>
      <path class="f" d="M984.49,963.51l-0.31-.35a0.42,0.42,0,0,0,0-.1,0.35,0.35,0,0,0,0-.1V962.9l0-.06a0.57,0.57,0,0,0-.08-0.12l-0.11-.12-0.14-.11-0.17-.1-0.19-.08-0.21-.06-0.22,0-0.12,0-0.13,0-0.3-.08-0.64-.22-0.25-.08c0.49,0.08,1.12.29,1.52,0.32a1.48,1.48,0,0,1,1.38,1.06,0.82,0.82,0,0,1,0,.31h0Z" transform="translate(-951.46 -952.31)"/>
      <path d="M984.5,963.53l-0.32-.36s0-.07,0-0.1a0.39,0.39,0,0,0,0-.1l0-.12a0.62,0.62,0,0,0-.08-0.12l-0.11-.11-0.14-.11-0.17-.09-0.19-.08-0.21-.05-0.22,0h-0.12l-0.13,0-0.3-.08L982,962l-0.44-.15a4.71,4.71,0,0,1,.73.14,6.6,6.6,0,0,0,.8.17,1.5,1.5,0,0,1,1.39,1.06,0.82,0.82,0,0,1,0,.32v0h0Zm-2.9-1.7L982,962l0.45,0.15,0.3,0.08,0.13,0,0.12,0,0.23,0,0.21,0.06,0.19,0.08,0.17,0.1L984,962.6l0.11,0.12a0.66,0.66,0,0,1,.08.12l0,0.12a0.32,0.32,0,0,1,0,.1,0.44,0.44,0,0,1,0,.1l0.29,0.33a0.86,0.86,0,0,0,0-.29,1.48,1.48,0,0,0-1.37-1,6.59,6.59,0,0,1-.8-0.16c-0.25-.06-0.5-0.12-0.72-0.16h0Z" transform="translate(-951.46 -952.31)"/>
      <path class="f" d="M977.35,963.51a0.41,0.41,0,0,0,.06.13l0.37-.43a0.34,0.34,0,0,1,0-.2,1.22,1.22,0,0,1,1.16-.69c0.61,0,1.71-.64,2-0.44a0.78,0.78,0,0,0-.68-0.08l-0.25.08-0.64.22-0.3.08-0.13,0-0.12,0-0.22,0-0.21.06-0.19.08-0.17.1-0.14.11-0.11.12a0.61,0.61,0,0,0-.08.12l0,0.06V963a0.35,0.35,0,0,0,0,.1,0.38,0.38,0,0,0,0,.1Z" transform="translate(-951.46 -952.31)"/>
      <path d="M977.41,963.65h0a0.41,0.41,0,0,1-.07-0.13l0.31-.36a0.22,0.22,0,0,1,0-.09,0.33,0.33,0,0,1,0-.1l0-.12a0.56,0.56,0,0,1,.08-0.12l0.11-.12,0.14-.11,0.17-.1,0.19-.08,0.21-.06,0.23,0,0.12,0,0.13,0,0.3-.08,0.45-.15,0.44-.15a0.8,0.8,0,0,1,.69.08,2.37,2.37,0,0,0-1.06.2,4.27,4.27,0,0,1-.95.25,1.21,1.21,0,0,0-1.15.68,0.33,0.33,0,0,0,0,.19l-0.38.44h0Zm3.17-1.86-0.34,0-0.44.15-0.45.15-0.3.08-0.13,0H978.8l-0.22,0-0.21.05-0.19.08-0.17.09-0.14.11-0.11.11a0.53,0.53,0,0,0-.08.12l0,0.12h0a0.37,0.37,0,0,0,0,.1,0.39,0.39,0,0,0,0,.1l-0.31.36a0.49,0.49,0,0,0,.06.11l0.37-.42a0.3,0.3,0,0,1,0-.19,1.24,1.24,0,0,1,1.17-.69,4.38,4.38,0,0,0,.94-0.25,1.73,1.73,0,0,1,1.06-.19,0.54,0.54,0,0,0-.35-0.09h0Z" transform="translate(-951.46 -952.31)"/>
      <path class="f" d="M977.35,963.51l0.31-.35a0.38,0.38,0,0,1,0-.1,0.35,0.35,0,0,1,0-.1V962.9l0-.06a0.61,0.61,0,0,1,.08-0.12l0.11-.12,0.14-.11,0.17-.1,0.19-.08,0.21-.06,0.22,0,0.12,0,0.13,0,0.3-.08,0.64-.22,0.25-.08c-0.49.08-1.12,0.29-1.52,0.32a1.48,1.48,0,0,0-1.38,1.06,0.83,0.83,0,0,0,0,.31h0Z" transform="translate(-951.46 -952.31)"/>
      <path d="M977.34,963.53v0a0.84,0.84,0,0,1,0-.32,1.49,1.49,0,0,1,1.39-1.06,6.56,6.56,0,0,0,.8-0.17c0.25-.06.5-0.12,0.72-0.16l-0.44.17-0.45.15-0.3.08-0.13,0H978.8l-0.22,0-0.21.05-0.19.08-0.17.09-0.14.11-0.11.11a0.53,0.53,0,0,0-.08.12l0,0.12h0a0.37,0.37,0,0,0,0,.1,0.44,0.44,0,0,0,0,.1l-0.32.37h0Zm2.9-1.72-0.72.18a6.55,6.55,0,0,1-.8.16,1.48,1.48,0,0,0-1.37,1,0.86,0.86,0,0,0,0,.29l0.29-.34a0.22,0.22,0,0,1,0-.09,0.33,0.33,0,0,1,0-.1l0-.12a0.56,0.56,0,0,1,.08-0.12l0.11-.12,0.14-.11,0.17-.1,0.19-.08,0.21-.06,0.23,0,0.12,0,0.13,0,0.3-.08,0.45-.15,0.44-.15h0Z" transform="translate(-951.46 -952.31)"/>
      <path class="f" d="M980.91,965.11a9,9,0,0,0-2.52.32,0.67,0.67,0,0,0-.09-0.41,0.34,0.34,0,0,0-.19-0.23,10.49,10.49,0,0,1,2.8-.35,10.63,10.63,0,0,1,2.81.35,0.4,0.4,0,0,0-.22.25,0.57,0.57,0,0,0-.06.4,9.18,9.18,0,0,0-2.53-.32h0Z" transform="translate(-951.46 -952.31)"/>
      <path d="M983.44,965.44a10.67,10.67,0,0,0-5,0,0.67,0.67,0,0,0-.1-0.42,0.36,0.36,0,0,0-.19-0.23h0a9.9,9.9,0,0,1,2.79-.37,10.61,10.61,0,0,1,2.81.35,0.58,0.58,0,0,0-.21.26,0.57,0.57,0,0,0-.07.39v0h0Zm-5.32-.65a0.33,0.33,0,0,1,.19.22,0.51,0.51,0,0,1,.08.43,8.37,8.37,0,0,1,2.51-.34,9.3,9.3,0,0,1,2.51.31,0.87,0.87,0,0,1,.08-0.39,0.41,0.41,0,0,1,.22-0.25,12.73,12.73,0,0,0-5.6,0h0Z" transform="translate(-951.46 -952.31)"/>
      <path class="f" d="M980.92,964.48a10.09,10.09,0,0,0-2.74.34,0.09,0.09,0,0,1-.11,0,0.08,0.08,0,0,1,.06-0.11,11.28,11.28,0,0,1,5.59,0,0.08,0.08,0,0,1,.06.11,0.09,0.09,0,0,1-.11,0,10.14,10.14,0,0,0-2.74-.34h0Z" transform="translate(-951.46 -952.31)"/>
      <path d="M983.69,964.83h0a11.39,11.39,0,0,0-5.48,0,0.1,0.1,0,0,1-.12-0.05h0V964.7a0.09,0.09,0,0,1,.06,0,10,10,0,0,1,2.79-.35,10.22,10.22,0,0,1,2.8.35l0.06,0a0.09,0.09,0,0,1,0,.07,0.09,0.09,0,0,1-.09.06h0Zm-2.78-.36a10.19,10.19,0,0,1,2.75.34h0a0.07,0.07,0,0,0,.07,0l-0.05-.1a10.17,10.17,0,0,0-2.79-.35,10,10,0,0,0-2.79.35l-0.06.1h0a0.07,0.07,0,0,0,.07,0,10.37,10.37,0,0,1,2.77-.34h0Z" transform="translate(-951.46 -952.31)"/>
      <path class="f" d="M980.92,963.65l0.09,0a0.34,0.34,0,0,0,0,.13,0.37,0.37,0,0,0,.38.36,0.37,0.37,0,0,0,.36-0.25,0.78,0.78,0,0,1,.05-0.13,0.68,0.68,0,0,1,0,.14,0.36,0.36,0,0,0,.37.31,0.37,0.37,0,0,0,.37-0.36,0.23,0.23,0,0,0,0,0l0.12-.12,0.06,0.15a0.33,0.33,0,0,0,0,.16,0.35,0.35,0,0,0,.36.35,0.36,0.36,0,0,0,.3-0.15l0.08-.1v0.12a0.22,0.22,0,0,0,.16.25,0.5,0.5,0,0,0,.31-0.13,1.93,1.93,0,0,0,.27-0.26l0,0.14a1.18,1.18,0,0,1-.3.32,0.53,0.53,0,0,1-.32.09,0.32,0.32,0,0,1-.23-0.21,0.53,0.53,0,0,1-.27.08,0.52,0.52,0,0,1-.48-0.3,0.53,0.53,0,0,1-.4.17,0.55,0.55,0,0,1-.42-0.2,0.55,0.55,0,0,1-.82-0.09,0.55,0.55,0,0,1-.45.24,0.54,0.54,0,0,1-.37-0.14,0.55,0.55,0,0,1-.42.2,0.53,0.53,0,0,1-.4-0.17,0.52,0.52,0,0,1-.48.3,0.53,0.53,0,0,1-.27-0.08,0.32,0.32,0,0,1-.23.21,0.55,0.55,0,0,1-.32-0.09,1.17,1.17,0,0,1-.3-0.32v-0.14a1.93,1.93,0,0,0,.27.26,0.5,0.5,0,0,0,.31.13,0.22,0.22,0,0,0,.16-0.25V964.1l0.08,0.1a0.36,0.36,0,0,0,.3.15,0.35,0.35,0,0,0,.36-0.35,0.33,0.33,0,0,0,0-.16l0.06-.15,0.12,0.12a0.34,0.34,0,0,0,0,0,0.37,0.37,0,0,0,.37.36,0.36,0.36,0,0,0,.37-0.31,0.07,0.07,0,1,1,.07,0,0.37,0.37,0,0,0,.36.25,0.37,0.37,0,0,0,.38-0.36,0.34,0.34,0,0,0,0-.13l0.1,0h0Z" transform="translate(-951.46 -952.31)"/>
      <path d="M983.59,964.64h0a0.33,0.33,0,0,1-.24-0.22,0.53,0.53,0,0,1-.75-0.22,0.55,0.55,0,0,1-.82,0,3.66,3.66,0,0,0-1.65,0,0.56,0.56,0,0,1-.82,0,0.53,0.53,0,0,1-.75.23,0.29,0.29,0,0,1-.22.21,0.57,0.57,0,0,1-.33-0.09,1.14,1.14,0,0,1-.3-0.32v-0.15s0.11,0.11.28,0.25a0.5,0.5,0,0,0,.3.13,0.21,0.21,0,0,0,.16-0.24V964.1l0.09,0.09a0.36,0.36,0,0,0,.29.15,0.34,0.34,0,0,0,.35-0.34,0.33,0.33,0,0,0,0-.15l0.06-.16,0.13,0.12a0.37,0.37,0,0,0,.36.4,0.35,0.35,0,0,0,.36-0.3c0-.12,0-0.14,0-0.14h0a0.11,0.11,0,0,1,0,.09,0.37,0.37,0,0,0,.73-0.06,0.33,0.33,0,0,0,0-.12l0.1,0,0.1,0a0.8,0.8,0,0,0,0,.14,0.37,0.37,0,0,0,.71.11,0.2,0.2,0,0,1,.06-0.14s0,0,0,.11a0.36,0.36,0,0,0,.73,0v0a0.38,0.38,0,0,1-.38.39,0.37,0.37,0,0,1-.38-0.31,0.76,0.76,0,0,0,0-.13,0.44,0.44,0,0,1,0,.08,0.39,0.39,0,0,1-.76-0.07,0.36,0.36,0,0,1,0-.13h-0.09l-0.09,0a0.19,0.19,0,0,1,0,.12,0.39,0.39,0,0,1-.75.11,0.71,0.71,0,0,0,0-.12,0.74,0.74,0,0,1,0,.09,0.38,0.38,0,0,1-.77,0l-0.11-.16,0,0.15a0.28,0.28,0,0,1,0,.15,0.36,0.36,0,0,1-.37.36,0.38,0.38,0,0,1-.3-0.16l-0.08-.1,0,0.11a0.23,0.23,0,0,1-.17.26,0.57,0.57,0,0,1-.31-0.13,1.89,1.89,0,0,1-.27-0.26v0.13h0a1.23,1.23,0,0,0,.3.31,0.61,0.61,0,0,0,.28.09,0.31,0.31,0,0,0,.26-0.21,0.55,0.55,0,0,0,.75-0.23,6.91,6.91,0,0,1,2.47,0,0.57,0.57,0,0,0,.82,0,0.56,0.56,0,0,0,.75.22,0.34,0.34,0,0,0,.24.21h0a0.6,0.6,0,0,0,.27-0.09,1.2,1.2,0,0,0,.3-0.32l0-.13a1.16,1.16,0,0,1-.26.26,0.53,0.53,0,0,1-.31.13,0.23,0.23,0,0,1-.18-0.26V964.1l-0.06.1a0.37,0.37,0,0,1-.3.16,0.36,0.36,0,0,1-.37-0.36,0.35,0.35,0,0,1,0-.16l-0.06-.14,0,0,0,0,0.08,0.15a0.4,0.4,0,0,0,0,.16,0.34,0.34,0,0,0,.35.34,0.35,0.35,0,0,0,.29-0.15l0.08-.1,0,0.13a0.21,0.21,0,0,0,.16.24,0.5,0.5,0,0,0,.3-0.13,2,2,0,0,0,.27-0.25l0,0.15a1.11,1.11,0,0,1-.31.33,0.63,0.63,0,0,1-.28.09h0Z" transform="translate(-951.46 -952.31)"/>
      <path class="h" d="M978.28,964.09a0.16,0.16,0,1,1,.16.16,0.16,0.16,0,0,1-.16-0.16h0Z" transform="translate(-951.46 -952.31)"/>
      <path d="M978.44,964.26a0.17,0.17,0,0,1-.17-0.17c0-.19.34-0.19,0.34,0a0.17,0.17,0,0,1-.17.17h0Zm0-.32a0.15,0.15,0,0,0-.15.15c0,0.17.31,0.17,0.31,0a0.15,0.15,0,0,0-.15-0.15h0Z" transform="translate(-951.46 -952.31)"/>
      <path class="h" d="M983.24,964.09a0.16,0.16,0,1,1,.16.16,0.16,0.16,0,0,1-.16-0.16h0Z" transform="translate(-951.46 -952.31)"/>
      <path d="M983.4,964.26a0.17,0.17,0,0,1-.17-0.17c0-.19.34-0.19,0.34,0a0.17,0.17,0,0,1-.17.17h0Zm0-.32a0.15,0.15,0,0,0-.15.15c0,0.17.3,0.17,0.3,0a0.15,0.15,0,0,0-.15-0.15h0Z" transform="translate(-951.46 -952.31)"/>
      <path class="h" d="M979.92,963.8a0.16,0.16,0,1,1,.16.16,0.16,0.16,0,0,1-.16-0.16h0Z" transform="translate(-951.46 -952.31)"/>
      <path d="M980.08,964a0.17,0.17,0,0,1-.17-0.17c0-.19.34-0.19,0.34,0a0.17,0.17,0,0,1-.17.17h0Zm0-.32a0.15,0.15,0,0,0-.15.15c0,0.17.3,0.17,0.3,0a0.15,0.15,0,0,0-.15-0.15h0Z" transform="translate(-951.46 -952.31)"/>
      <path class="h" d="M981.62,963.8a0.16,0.16,0,1,1,.16.16,0.16,0.16,0,0,1-.16-0.16h0Z" transform="translate(-951.46 -952.31)"/>
      <path d="M981.78,964a0.17,0.17,0,0,1-.17-0.17c0-.19.34-0.19,0.34,0a0.17,0.17,0,0,1-.17.17h0Zm0-.32a0.15,0.15,0,0,0-.15.15c0,0.17.31,0.17,0.31,0a0.15,0.15,0,0,0-.15-0.15h0Z" transform="translate(-951.46 -952.31)"/>
      <path class="i" d="M977.78,964.33a0.26,0.26,0,0,0,.14,0,1.06,1.06,0,0,0,.25,0,0.24,0.24,0,0,1-.07-0.06,0.26,0.26,0,0,0-.06-0.09,0.21,0.21,0,0,0-.11,0l0-.05H978a0.17,0.17,0,0,0,.09.07,0.29,0.29,0,0,0,.17,0,0.25,0.25,0,0,0-.12-0.12H978l0,0,0,0a0.21,0.21,0,0,0,.12,0,0.14,0.14,0,0,0,0-.11c0-.05,0-0.11,0-0.11l-0.11,0a0.15,0.15,0,0,0-.14,0,0.13,0.13,0,0,0-.06.1,0.11,0.11,0,0,1-.07,0v0a0.1,0.1,0,0,0,.07-0.07,0.23,0.23,0,0,0,0-.11,0.19,0.19,0,0,0-.12.05,0.46,0.46,0,0,1,0,.07,0.1,0.1,0,0,1-.06,0,0.05,0.05,0,0,1,0-.06l0,0a0.58,0.58,0,0,0,.08-0.12h-0.07a0.17,0.17,0,0,1-.08,0s0,0,0-.07a0.44,0.44,0,0,0-.06-0.1,0.33,0.33,0,0,0-.12.06l-0.1.09a0.31,0.31,0,0,0-.23,0,0.63,0.63,0,0,1,.25.32l0,0.05,0,0.06,0.08,0.14,0.06,0.13,0,0.06,0,0.06,0.09,0.07h0Z" transform="translate(-951.46 -952.31)"/>
      <path d="M977.93,964.37h0a0.25,0.25,0,0,1-.15,0l-0.1-.07,0-.06,0-.06-0.06-.13-0.08-.14,0-.06,0-.06a0.64,0.64,0,0,0-.25-0.32,0.23,0.23,0,0,1,.24,0l0,0a0.44,0.44,0,0,1,.17-0.1,0.3,0.3,0,0,1,.07.1v0l0,0a0.35,0.35,0,0,0-.06-0.1l-0.11.06-0.1.09a0.35,0.35,0,0,0-.23,0,0.51,0.51,0,0,1,.24.28l0.06,0.08,0,0.06,0.08,0.14,0.06,0.13,0.08,0.12,0.09,0.07h0a0.26,0.26,0,0,0,.14,0h0a1,1,0,0,0,.22,0,0.13,0.13,0,0,1-.06,0,0.23,0.23,0,0,0-.06-0.09,0.2,0.2,0,0,0-.1,0l0-.07h0s0.05,0.05.1,0.09a0.21,0.21,0,0,1,0,.07,0.25,0.25,0,0,0,.08.09,0.51,0.51,0,0,1-.24.06h0Zm0.14-.23a0.2,0.2,0,0,1-.12-0.08,0.63,0.63,0,0,0,.1.05,0.3,0.3,0,0,0,.16,0,0.31,0.31,0,0,0-.11-0.11h0L978,964v-0.07h0l0.09,0a0.07,0.07,0,0,0,.07-0.07c0-.07,0-0.13,0-0.15a0.17,0.17,0,0,1-.1,0l-0.1,0a0.09,0.09,0,0,0-.08.07,0.12,0.12,0,0,1-.09.08,0.09,0.09,0,0,1,0,0,0,0,0,0,0,.06,0,0.13,0.13,0,0,1,.07-0.1,0.13,0.13,0,0,1,.11,0,0.43,0.43,0,0,0,.15,0,0.41,0.41,0,0,1,0,.13,0.14,0.14,0,0,1-.05.12,0.33,0.33,0,0,1-.12,0L978.1,964h0a0.1,0.1,0,1,1,0,.19h0Zm-0.24-.43a0.49,0.49,0,0,0,0-.08,0.2,0.2,0,0,0,0-.1,0.22,0.22,0,0,0-.1.05l-0.07.07v0l0,0a0.21,0.21,0,0,1,.15-0.11,0.16,0.16,0,0,1,0,.13,0.11,0.11,0,0,1-.06.07h0Z" transform="translate(-951.46 -952.31)"/>
      <path class="a" d="M977.69,964.16l0.06,0.05,0.09,0Zm0-.15a0.38,0.38,0,0,1,.19,0h-0.19Zm0-.09a0.75,0.75,0,0,1,.22-0.08Zm-0.07-.09a0.17,0.17,0,0,1,0-.06,0.12,0.12,0,0,0,0,0Zm-0.16-.08a0.15,0.15,0,0,1,0-.07,0.21,0.21,0,0,1,0-.09Z" transform="translate(-951.46 -952.31)"/>
      <path class="f" d="M977.64,964.21a0.2,0.2,0,0,0,0-.29,0.27,0.27,0,0,0-.29-0.17h0v0s0,0.08,0,.12a0.45,0.45,0,0,0,0,.1l0.06,0.07,0.08,0.07,0,0h0Z" transform="translate(-951.46 -952.31)"/>
      <path d="M977.64,964.22h0a0.12,0.12,0,0,0,.07-0.07,0.26,0.26,0,0,0,0-.2,0.3,0.3,0,0,0-.24-0.17,0.22,0.22,0,0,0,0,.17,0.42,0.42,0,0,0,0,.1l0.06,0.07,0.08,0.07,0,0h0l-0.11-.1-0.06-.08a0.44,0.44,0,0,1,0-.1,1.25,1.25,0,0,1,0-.12l0.06-.07a0.32,0.32,0,0,1,.25.18,0.27,0.27,0,0,1,0,.22,0.13,0.13,0,0,1-.08.08h0Z" transform="translate(-951.46 -952.31)"/>
      <path class="h" d="M977.44,964c0-.09-0.08-0.17,0-0.2a0.2,0.2,0,0,1,.21.13,0.14,0.14,0,0,1,0,.21c-0.07,0-.12-0.05-0.17-0.14h0Z" transform="translate(-951.46 -952.31)"/>
      <path d="M977.58,964.17a0.23,0.23,0,0,1-.15-0.15,0.23,0.23,0,0,1,0-.17l0.07,0a0.24,0.24,0,0,1,.18.14,0.22,0.22,0,0,1,0,.17,0.1,0.1,0,0,1-.05.05h0Zm-0.12-.35a0.14,0.14,0,0,0,0,.19,0.23,0.23,0,0,0,.14.14h0a0.17,0.17,0,0,0,0-.2,0.22,0.22,0,0,0-.17-0.13h0Z" transform="translate(-951.46 -952.31)"/>
      <path class="i" d="M984.06,964.33a0.27,0.27,0,0,1-.14,0,1.06,1.06,0,0,1-.25,0,0.22,0.22,0,0,0,.07-0.06,0.28,0.28,0,0,1,.06-0.09,0.21,0.21,0,0,1,.11,0l0-.05h-0.05a0.17,0.17,0,0,1-.09.07,0.29,0.29,0,0,1-.17,0,0.25,0.25,0,0,1,.12-0.12h0.08l0,0,0,0a0.22,0.22,0,0,1-.12,0,0.14,0.14,0,0,1,0-.11l0-.11,0.11,0a0.16,0.16,0,0,1,.14,0,0.13,0.13,0,0,1,.06.1,0.11,0.11,0,0,0,.07,0v0a0.1,0.1,0,0,1-.07-0.07,0.23,0.23,0,0,1,0-.11,0.19,0.19,0,0,1,.12.05,0.35,0.35,0,0,0,0,.07,0.1,0.1,0,0,0,.05,0,0.06,0.06,0,0,0,0-.06l0,0a0.55,0.55,0,0,1-.08-0.12h0.07a0.17,0.17,0,0,0,.08,0,0.46,0.46,0,0,1,0-.07,0.44,0.44,0,0,1,.06-0.1,0.35,0.35,0,0,1,.12.06l0.1,0.09a0.31,0.31,0,0,1,.23,0,0.57,0.57,0,0,0-.25.32l0,0.05,0,0.06-0.08.14-0.06.13,0,0.06,0,0.06-0.09.07h0Z" transform="translate(-951.46 -952.31)"/>
      <path d="M983.91,964.37a1.08,1.08,0,0,1-.24,0s0.05-.05.06-0.07a0.26,0.26,0,0,1,.06-0.1,0.2,0.2,0,0,1,.11,0l-0.1.06a0.17,0.17,0,0,0,0,.06,0.29,0.29,0,0,1-.08.09,2,2,0,0,1,.22,0h0a0.27,0.27,0,0,0,.14,0l0.1-.06h0l0-.06,0.1-.19,0.08-.14,0-.06,0-.06a0.58,0.58,0,0,1,.25-0.32h-0.1l-0.11,0-0.06,0a0.42,0.42,0,0,0-.16-0.09s0,0,0,.09l0,0.06h0a0.63,0.63,0,0,1,.08-0.17,0.26,0.26,0,0,1,.13.06l0.1,0.09h0a0.33,0.33,0,0,1,.23,0,0.69,0.69,0,0,0-.24.33l-0.05.05h0l0,0.06-0.08.14-0.06.13h0l0,0.06,0,0.06-0.1.07a0.28,0.28,0,0,1-.15,0h0Zm-0.12-.23a0.34,0.34,0,0,1-.16,0,0.21,0.21,0,0,1,.12-0.14h0.08s0,0-.07,0a0.1,0.1,0,0,1-.08-0.09c0-.09,0-0.15,0-0.15l0.12,0a0.24,0.24,0,0,1,.11,0,0.11,0.11,0,0,1,.1.08,0.11,0.11,0,0,0,.06.06,0,0,0,0,1-.07,0,0.11,0.11,0,0,0-.06-0.09l-0.09,0a0.43,0.43,0,0,1-.15,0,0.34,0.34,0,0,1,0,.1,0.12,0.12,0,0,0,0,.1,0.28,0.28,0,0,0,.11,0h0V964h-0.09a0.23,0.23,0,0,0-.11.12,0.48,0.48,0,0,0,.13,0,0.18,0.18,0,0,0,.11-0.07l0.07,0,0,0s0,0-.12,0h0Zm0.23-.41a0.26,0.26,0,0,1-.06-0.09,0.23,0.23,0,0,1,0-.12,0.15,0.15,0,0,1,.13,0l0,0.07h0a0.19,0.19,0,0,0-.13-0.09,0.44,0.44,0,0,0,0,.1,0.09,0.09,0,0,0,.06.06v0h0Z" transform="translate(-951.46 -952.31)"/>
      <path class="a" d="M984.15,964.16l-0.06.05-0.09,0Zm0-.15a0.38,0.38,0,0,0-.19,0h0.19Zm0-.09a0.77,0.77,0,0,0-.22-0.08Zm0.07-.09a0.18,0.18,0,0,0,0-.06,0.13,0.13,0,0,1,0,0Zm0.16-.08a0.17,0.17,0,0,0,0-.07,0.2,0.2,0,0,0,0-.09Z" transform="translate(-951.46 -952.31)"/>
      <path class="f" d="M984.2,964.21a0.2,0.2,0,0,1,0-.29,0.27,0.27,0,0,1,.29-0.17h0v0a1,1,0,0,1,0,.12,0.45,0.45,0,0,1,0,.1l-0.06.07-0.07.07,0,0h0Z" transform="translate(-951.46 -952.31)"/>
      <path d="M984.19,964.22a0.14,0.14,0,0,1-.08-0.08,0.27,0.27,0,0,1,0-.22,0.32,0.32,0,0,1,.25-0.18l0.07,0c0,0.08,0,.13,0,0.17a0.55,0.55,0,0,1,0,.1l-0.06.08-0.08.07-0.06,0h0Zm0.16-.43a0.23,0.23,0,0,0-.2.14,0.26,0.26,0,0,0,0,.2,0.12,0.12,0,0,0,.06.07h0l0.11-.1,0.06-.07a0.47,0.47,0,0,0,0-.1,1,1,0,0,0,0-.12l-0.08,0h0Z" transform="translate(-951.46 -952.31)"/>
      <path class="h" d="M984.4,964c0-.09.08-0.17,0-0.2a0.2,0.2,0,0,0-.21.13,0.15,0.15,0,0,0,0,.21c0.07,0,.12-0.05.17-0.14h0Z" transform="translate(-951.46 -952.31)"/>
      <path d="M984.26,964.17h0a0.09,0.09,0,0,1-.05-0.05,0.21,0.21,0,0,1,0-.17,0.24,0.24,0,0,1,.18-0.14l0.07,0a0.23,0.23,0,0,1,0,.17,0.24,0.24,0,0,1-.15.15h0Zm0.12-.33a0.18,0.18,0,0,0-.16.11,0.2,0.2,0,0,0,0,.15l0,0.05h0a0.23,0.23,0,0,0,.14-0.14,0.27,0.27,0,0,0,0-.16h-0.06Z" transform="translate(-951.46 -952.31)"/>
      <path class="f" d="M980.92,965.92a9.19,9.19,0,0,1-2.49-.31,0.1,0.1,0,0,1-.07-0.1,0.1,0.1,0,0,1,.07-0.1,10.28,10.28,0,0,1,5,0,0.1,0.1,0,0,1,.07.1,0.1,0.1,0,0,1-.07.1,9.2,9.2,0,0,1-2.49.31h0Z" transform="translate(-951.46 -952.31)"/>
      <path d="M980.92,965.93h0a9.12,9.12,0,0,1-2.49-.31,0.11,0.11,0,0,1,0-.21,10.3,10.3,0,0,1,5,0,0.11,0.11,0,0,1,.07.11,0.11,0.11,0,0,1-.07.11,9.13,9.13,0,0,1-2.5.31h0Zm0-.81a9,9,0,0,0-2.49.31,0.09,0.09,0,0,0,0,.18,10.26,10.26,0,0,0,5,0,0.09,0.09,0,0,0,0-.18,9,9,0,0,0-2.49-.31h0Z" transform="translate(-951.46 -952.31)"/>
    </g>
    <g class="b">
      <path d="M980.92,965.8h0a9.6,9.6,0,0,1-2.3-.26,8.83,8.83,0,0,1,2.3-.27,9.78,9.78,0,0,1,2.31.26,8.79,8.79,0,0,1-2.31.28h0Zm0-.52a9.59,9.59,0,0,0-2.3.25,11.23,11.23,0,0,0,4.6,0,10.71,10.71,0,0,0-2.3-.24h0Z" transform="translate(-951.46 -952.31)"/>
      <path class="f" d="M980.92,965a0.25,0.25,0,1,1,.42-0.19,0.38,0.38,0,0,1-.42.19h0Z" transform="translate(-951.46 -952.31)"/>
      <path d="M980.92,965a0.26,0.26,0,1,1,.43-0.2,0.39,0.39,0,0,1-.43.2h0Zm0-.39a0.25,0.25,0,1,0,0,.37,0.38,0.38,0,0,0,.41-0.18,0.37,0.37,0,0,0-.41-0.19h0Z" transform="translate(-951.46 -952.31)"/>
      <path class="k" d="M980.92,964.93a0.29,0.29,0,0,1-.31-0.13,0.42,0.42,0,0,1,.62,0,0.29,0.29,0,0,1-.31.13h0Z" transform="translate(-951.46 -952.31)"/>
      <path d="M980.92,964.94a0.29,0.29,0,0,1-.32-0.14,0.48,0.48,0,0,1,.64,0,0.29,0.29,0,0,1-.32.14h0Zm0-.27a0.28,0.28,0,0,0-.3.12,0.5,0.5,0,0,0,.6,0,0.28,0.28,0,0,0-.3-0.12h0Z" transform="translate(-951.46 -952.31)"/>
      <path class="f" d="M983.57,964.93h0a0.38,0.38,0,0,0-.45.07,0.37,0.37,0,0,0,.34.3l0,0,0-.06,0-.07,0-.06a0.51,0.51,0,0,0,0-.06,0.39,0.39,0,0,0,0-.06h0Z" transform="translate(-951.46 -952.31)"/>
      <path d="M983.44,965.3a0.38,0.38,0,0,1-.35-0.31,0.39,0.39,0,0,1,.47-0.08l0,0.08,0,0.13,0,0.07,0,0.07,0,0h0Zm-0.11-.4a0.22,0.22,0,0,0-.23.1,0.37,0.37,0,0,0,.33.29h0l0.06-.09,0-.07,0-.13a0.32,0.32,0,0,0-.23-0.09h0Z" transform="translate(-951.46 -952.31)"/>
      <path class="k" d="M983.57,965l0,0a0.29,0.29,0,0,0-.33,0,0.28,0.28,0,0,0,.26.21h0l0,0,0,0,0,0a0.14,0.14,0,0,0,0,0s0,0,0,0a0.25,0.25,0,0,0,0-.05h0Z" transform="translate(-951.46 -952.31)"/>
      <path d="M983.47,965.24a0.46,0.46,0,0,1-.27-0.16,0.2,0.2,0,0,1,0-.06,0.35,0.35,0,0,0,.25.2h0Zm-0.25-.24a0.27,0.27,0,0,1,.32,0l0,0a0.32,0.32,0,0,0-.33,0h0Z" transform="translate(-951.46 -952.31)"/>
      <path class="f" d="M978.26,964.93h0a0.38,0.38,0,0,1,.45.07,0.38,0.38,0,0,1-.34.3l0,0,0-.06,0-.07,0-.06a0.51,0.51,0,0,1,0-.06,0.39,0.39,0,0,1,0-.06h0Z" transform="translate(-951.46 -952.31)"/>
      <path d="M978.39,965.3h0a0.37,0.37,0,0,0,.34-0.29,0.38,0.38,0,0,0-.44-0.06l0,0.12V965h0v-0.07c0.26-.08.45,0,0.48,0.07a0.38,0.38,0,0,1-.35.31h0Z" transform="translate(-951.46 -952.31)"/>
      <path class="k" d="M978.25,965l0,0a0.29,0.29,0,0,1,.33,0,0.29,0.29,0,0,1-.26.21h0l0,0,0,0,0,0a0.14,0.14,0,0,1,0,0s0,0,0,0a0.34,0.34,0,0,1,0-.05h0Z" transform="translate(-951.46 -952.31)"/>
      <path d="M978.34,965.24h0a0.18,0.18,0,1,0-.05-0.24l-0.05.06h0l0,0.16h0l0,0h0l-0.06-.06,0-.09V965c0.3-.11.37-0.05,0.39,0a0.29,0.29,0,0,1-.27.23h0Z" transform="translate(-951.46 -952.31)"/>
      <path class="h" d="M980.16,964.81a0.09,0.09,0,1,1,.09.08,0.08,0.08,0,0,1-.09-0.08h0Z" transform="translate(-951.46 -952.31)"/>
      <path d="M980.24,964.9a0.1,0.1,0,0,1-.1-0.09c0-.1.2-0.1,0.2,0a0.1,0.1,0,0,1-.1.09h0Z" transform="translate(-951.46 -952.31)"/>
      <path class="h" d="M978.83,965a0.09,0.09,0,0,1,.09-0.08,0.08,0.08,0,1,1,0,.17,0.09,0.09,0,0,1-.09-0.08h0Z" transform="translate(-951.46 -952.31)"/>
      <path d="M978.92,965.05a0.1,0.1,0,0,1-.1-0.09c0-.1.2-0.1,0.2,0a0.09,0.09,0,0,1-.1.09h0Z" transform="translate(-951.46 -952.31)"/>
      <path class="h" d="M981.52,964.81a0.09,0.09,0,1,1,.09.08,0.09,0.09,0,0,1-.09-0.08h0Z" transform="translate(-951.46 -952.31)"/>
      <path d="M981.61,964.9a0.1,0.1,0,0,1-.1-0.09c0-.1.2-0.1,0.2,0a0.1,0.1,0,0,1-.1.09h0Z" transform="translate(-951.46 -952.31)"/>
      <path class="h" d="M982.83,965a0.09,0.09,0,0,1,.18,0,0.09,0.09,0,0,1-.18,0h0Z" transform="translate(-951.46 -952.31)"/>
      <path d="M982.92,965.05a0.09,0.09,0,0,1-.1-0.09c0-.1.19-0.1,0.19,0a0.09,0.09,0,0,1-.1.09h0Z" transform="translate(-951.46 -952.31)"/>
      <polygon class="i" points="28.08 12.31 28.55 12.49 28.13 12.79 27.66 12.61 28.08 12.31"/>
      <path d="M979.59,965.12l-0.48-.19,0.42-.32L980,964.8l-0.42.32h0Zm-0.06-.48-0.41.29,0.47,0.16,0.41-.29-0.47-.16h0Z" transform="translate(-951.46 -952.31)"/>
      <polygon class="l" points="28.09 12.4 28.4 12.52 28.12 12.71 27.81 12.59 28.09 12.4"/>
      <path d="M979.58,965l-0.32-.12,0.27-.21,0.32,0.12-0.28.21h0Zm0-.31-0.27.19,0.3,0.1,0.27-.19-0.31-.1h0Z" transform="translate(-951.46 -952.31)"/>
      <polygon class="i" points="30.85 12.31 30.37 12.49 30.79 12.79 31.27 12.61 30.85 12.31"/>
      <path d="M982.25,965.12l-0.42-.3,0.48-.2,0.43,0.3-0.48.2h0Zm0.05-.48-0.47.18,0.42,0.28,0.47-.18-0.42-.28h0Z" transform="translate(-951.46 -952.31)"/>
      <polygon class="l" points="30.84 12.4 30.53 12.52 30.8 12.71 31.11 12.59 30.84 12.4"/>
      <path d="M982.26,965l-0.28-.2,0.32-.14,0.28,0.2-0.32.14h0Zm0-.32-0.3.12,0.27,0.17,0.31-.12-0.28-.18h0Z" transform="translate(-951.46 -952.31)"/>
      <path class="h" d="M980.54,961.67a0.12,0.12,0,0,1-.12.12,0.12,0.12,0,0,1-.12-0.12h0a0.12,0.12,0,1,1,.24,0h0Z" transform="translate(-951.46 -952.31)"/>
      <path d="M980.42,961.8a0.13,0.13,0,0,1-.13-0.13,0.13,0.13,0,0,1,.13-0.13,0.13,0.13,0,0,1,0,.26h0Zm0-.24a0.11,0.11,0,0,0-.11.11,0.11,0.11,0,0,0,.11.11h0a0.11,0.11,0,0,0,.11-0.11,0.11,0.11,0,0,0-.11-0.11h0Z" transform="translate(-951.46 -952.31)"/>
      <path class="h" d="M980.19,961.71a0.13,0.13,0,0,1-.26,0h0a0.13,0.13,0,0,1,.26,0h0Z" transform="translate(-951.46 -952.31)"/>
      <path d="M980.05,961.86h0a0.14,0.14,0,0,1-.14-0.14,0.14,0.14,0,0,1,.14-0.14,0.14,0.14,0,1,1,0,.28h0Zm0-.26a0.12,0.12,0,0,0-.12.12c0,0.14.25,0.14,0.25,0a0.12,0.12,0,0,0-.12-0.12h0Z" transform="translate(-951.46 -952.31)"/>
      <path class="h" d="M979.79,961.81a0.15,0.15,0,1,1-.3,0h0a0.15,0.15,0,1,1,.3,0h0Z" transform="translate(-951.46 -952.31)"/>
      <path d="M979.64,962h0a0.16,0.16,0,0,1-.16-0.16c0-.18.32-0.18,0.32,0a0.16,0.16,0,0,1,0,.11,0.17,0.17,0,0,1-.12,0h0Zm0-.3a0.14,0.14,0,0,0-.14.14,0.15,0.15,0,0,0,.24.1,0.14,0.14,0,0,0-.1-0.24h0Z" transform="translate(-951.46 -952.31)"/>
      <path class="h" d="M979.34,961.92a0.17,0.17,0,0,1-.17.17,0.17,0.17,0,0,1-.17-0.17h0a0.17,0.17,0,1,1,.33,0h0Z" transform="translate(-951.46 -952.31)"/>
      <path d="M979.17,962.1h0a0.18,0.18,0,1,1,0-.36,0.18,0.18,0,0,1,0,.36h0Zm0-.34a0.16,0.16,0,1,0,.16.16,0.16,0.16,0,0,0-.16-0.16h0Z" transform="translate(-951.46 -952.31)"/>
      <path class="h" d="M978.8,962a0.19,0.19,0,0,1-.18.19,0.19,0.19,0,0,1-.19-0.19h0a0.19,0.19,0,0,1,.37,0h0Z" transform="translate(-951.46 -952.31)"/>
      <path d="M978.61,962.21h0a0.2,0.2,0,0,1-.2-0.2,0.2,0.2,0,0,1,.2-0.2,0.2,0.2,0,0,1,0,.39h0Zm0-.37a0.18,0.18,0,0,0-.18.18c0,0.2.35,0.2,0.35,0a0.18,0.18,0,0,0-.18-0.18h0Z" transform="translate(-951.46 -952.31)"/>
      <path class="h" d="M978.23,962.18a0.2,0.2,0,0,1-.41,0h0a0.2,0.2,0,0,1,.41,0h0Z" transform="translate(-951.46 -952.31)"/>
      <path d="M978,962.4a0.21,0.21,0,1,1,.21-0.21,0.21,0.21,0,0,1-.21.21h0Zm0-.41a0.19,0.19,0,0,0-.19.19c0,0.21.39,0.21,0.39,0A0.19,0.19,0,0,0,978,962h0Z" transform="translate(-951.46 -952.31)"/>
      <path class="h" d="M977.78,962.5a0.2,0.2,0,0,1-.4,0h0a0.2,0.2,0,1,1,.4,0h0Z" transform="translate(-951.46 -952.31)"/>
      <path d="M977.58,962.71h0a0.21,0.21,0,0,1-.21-0.21,0.22,0.22,0,0,1,.36-0.15,0.21,0.21,0,0,1,.06.15,0.21,0.21,0,0,1-.06.15,0.21,0.21,0,0,1-.15.06h0Zm0-.4a0.19,0.19,0,0,0-.19.19,0.2,0.2,0,0,0,.33.13,0.19,0.19,0,0,0,.05-0.13,0.19,0.19,0,0,0-.19-0.19h0Z" transform="translate(-951.46 -952.31)"/>
      <path class="h" d="M977.54,963.08a0.22,0.22,0,0,1-.44,0h0a0.22,0.22,0,0,1,.44,0h0Z" transform="translate(-951.46 -952.31)"/>
      <path d="M977.32,963.31h0a0.23,0.23,0,0,1-.23-0.23,0.24,0.24,0,0,1,.39-0.16,0.23,0.23,0,0,1,.07.16,0.23,0.23,0,0,1-.23.23h0Zm0-.44a0.21,0.21,0,1,0,.21.21,0.21,0.21,0,0,0-.21-0.21h0Z" transform="translate(-951.46 -952.31)"/>
      <path class="h" d="M980.63,961.62a0.11,0.11,0,0,0,.11.11,0.11,0.11,0,0,0,.11-0.11h0a0.11,0.11,0,0,0-.21,0h0Z" transform="translate(-951.46 -952.31)"/>
      <path d="M980.73,961.73h0a0.12,0.12,0,0,1-.12-0.12c0-.13.23-0.13,0.23,0a0.12,0.12,0,0,1-.12.12h0Zm0-.21a0.1,0.1,0,0,0-.1.1,0.1,0.1,0,0,0,.1.1h0a0.1,0.1,0,0,0,0-.2h0Z" transform="translate(-951.46 -952.31)"/>
      <path class="h" d="M981.3,961.67a0.12,0.12,0,0,0,.12.12,0.12,0.12,0,0,0,.12-0.12h0a0.12,0.12,0,0,0-.12-0.12,0.12,0.12,0,0,0-.12.12h0Z" transform="translate(-951.46 -952.31)"/>
      <path d="M981.42,961.8h0a0.13,0.13,0,0,1,0-.26,0.13,0.13,0,0,1,.13.13,0.13,0.13,0,0,1-.13.13h0Zm0-.24a0.11,0.11,0,0,0,0,.22h0a0.11,0.11,0,0,0,0-.22h0Z" transform="translate(-951.46 -952.31)"/>
      <path class="h" d="M981.65,961.71a0.13,0.13,0,0,0,.26,0h0a0.13,0.13,0,0,0-.26,0h0Z" transform="translate(-951.46 -952.31)"/>
      <path d="M981.79,961.86h0a0.14,0.14,0,1,1,0-.28,0.14,0.14,0,1,1,0,.28h0Zm0-.26a0.12,0.12,0,0,0-.12.12,0.12,0.12,0,0,0,.12.12h0a0.12,0.12,0,1,0,0-.24h0Z" transform="translate(-951.46 -952.31)"/>
      <path class="h" d="M982,961.81a0.15,0.15,0,0,0,.15.15,0.15,0.15,0,0,0,.15-0.15h0a0.15,0.15,0,0,0-.15-0.15,0.15,0.15,0,0,0-.15.15h0Z" transform="translate(-951.46 -952.31)"/>
      <path d="M982.2,962h0a0.16,0.16,0,0,1-.16-0.16c0-.18.32-0.18,0.32,0a0.16,0.16,0,0,1-.16.16h0Zm0-.3a0.14,0.14,0,0,0-.14.14c0,0.16.28,0.16,0.28,0a0.14,0.14,0,0,0-.14-0.14h0Z" transform="translate(-951.46 -952.31)"/>
      <path class="h" d="M982.5,961.92a0.17,0.17,0,1,0,.33,0h0a0.17,0.17,0,1,0-.33,0h0Z" transform="translate(-951.46 -952.31)"/>
      <path d="M982.67,962.1h0a0.18,0.18,0,1,1,.18-0.18,0.18,0.18,0,0,1-.18.18h0Zm0-.34a0.16,0.16,0,0,0-.16.16c0,0.17.31,0.17,0.31,0a0.16,0.16,0,0,0-.16-0.16h0Z" transform="translate(-951.46 -952.31)"/>
      <path class="h" d="M983,962a0.19,0.19,0,1,0,.37,0h0a0.19,0.19,0,0,0-.37,0h0Z" transform="translate(-951.46 -952.31)"/>
      <path d="M983.23,962.21a0.2,0.2,0,1,1,.2-0.2,0.2,0.2,0,0,1-.2.2h0Zm0-.37a0.18,0.18,0,0,0,0,.36h0a0.18,0.18,0,0,0,.18-0.18,0.18,0.18,0,0,0-.18-0.18h0Z" transform="translate(-951.46 -952.31)"/>
      <path class="h" d="M983.61,962.18a0.2,0.2,0,0,0,.41,0h0a0.2,0.2,0,0,0-.2-0.2,0.2,0.2,0,0,0-.2.2h0Z" transform="translate(-951.46 -952.31)"/>
      <path d="M983.81,962.4a0.21,0.21,0,1,1,.21-0.21,0.21,0.21,0,0,1-.21.21h0Zm0-.41a0.19,0.19,0,0,0-.19.19c0,0.21.38,0.22,0.39,0a0.19,0.19,0,0,0-.19-0.2h0Z" transform="translate(-951.46 -952.31)"/>
      <path class="h" d="M984.06,962.5a0.2,0.2,0,0,0,.4,0h0a0.2,0.2,0,0,0-.2-0.2,0.2,0.2,0,0,0-.2.2h0Z" transform="translate(-951.46 -952.31)"/>
      <path d="M984.26,962.71h0a0.21,0.21,0,0,1-.15-0.06,0.21,0.21,0,0,1,.15-0.36,0.21,0.21,0,0,1,.21.21,0.21,0.21,0,0,1-.21.21h0Zm0-.4a0.19,0.19,0,0,0-.19.19,0.19,0.19,0,0,0,.06.14,0.19,0.19,0,0,0,.14.06h0a0.2,0.2,0,0,0,.14-0.05,0.19,0.19,0,0,0-.14-0.33h0Z" transform="translate(-951.46 -952.31)"/>
      <path class="h" d="M984.3,963.08a0.22,0.22,0,0,0,.44,0h0a0.22,0.22,0,1,0-.44,0h0Z" transform="translate(-951.46 -952.31)"/>
      <path d="M984.52,963.31h0a0.23,0.23,0,1,1,.23-0.23,0.23,0.23,0,0,1-.23.23h0Zm0-.44a0.21,0.21,0,1,0,.21.21,0.21,0.21,0,0,0-.21-0.21h0Z" transform="translate(-951.46 -952.31)"/>
      <path class="h" d="M981.21,961.62a0.11,0.11,0,0,1-.21,0h0a0.11,0.11,0,1,1,.21,0h0Z" transform="translate(-951.46 -952.31)"/>
      <path d="M981.11,961.73a0.12,0.12,0,0,1-.12-0.12c0-.13.23-0.13,0.23,0a0.11,0.11,0,0,1-.12.12h0Zm0-.21a0.1,0.1,0,0,0-.1.1,0.1,0.1,0,0,0,.1.1h0a0.1,0.1,0,0,0,.1-0.1,0.1,0.1,0,0,0-.1-0.1h0Z" transform="translate(-951.46 -952.31)"/>
      <path class="f" d="M980.77,961.76a0.22,0.22,0,0,0-.12.13,1.42,1.42,0,0,0,0,.27v0s0,0,0,0a1.32,1.32,0,0,1-.09.5l0.4,0.3,0.39-.3a1.32,1.32,0,0,1-.09-0.5s0,0,0,0v0a1.51,1.51,0,0,0,0-.27,0.21,0.21,0,0,0-.12-0.13,0.83,0.83,0,0,1,0,.11v0.48a1.47,1.47,0,0,0,0,.18,0.63,0.63,0,0,0,0,.14l-0.21.19-0.21-.19a0.63,0.63,0,0,0,0-.14,1.46,1.46,0,0,0,0-.18v-0.48a1,1,0,0,1,0-.11h0Z" transform="translate(-951.46 -952.31)"/>
      <path d="M980.92,963l-0.4-.3a1.48,1.48,0,0,0,.09-0.51,1.77,1.77,0,0,1,0-.34,0.22,0.22,0,0,1,.13-0.13,0.74,0.74,0,0,1,0,.12v0.48a1.46,1.46,0,0,1,0,.18,0.71,0.71,0,0,1,0,.14l0.21,0.18,0.19-.19a0.41,0.41,0,0,1,0-.13,1.27,1.27,0,0,1,0-.18v-0.46a0.73,0.73,0,0,0,0-.11h0a0.21,0.21,0,0,1,0,.09v0.48a1.47,1.47,0,0,0,0,.18,0.71,0.71,0,0,0,0,.13l-0.21.2-0.22-.19s0-.1,0-0.15a1.65,1.65,0,0,0,0-.18v-0.46a0.68,0.68,0,0,1,0-.11,0.17,0.17,0,0,0-.1.11,1.37,1.37,0,0,0,0,.27,1.5,1.5,0,0,1-.1.57l0.39,0.29,0.39-.3a1.17,1.17,0,0,1-.1-0.49,1.78,1.78,0,0,0,0-.34,0.19,0.19,0,0,0-.08-0.1,0.13,0.13,0,0,1,.1.1,1.46,1.46,0,0,1,0,.28,1.48,1.48,0,0,0,.1.56l-0.4.32h0Z" transform="translate(-951.46 -952.31)"/>
      <path class="f" d="M980.77,961.76a1,1,0,0,0,0,.11v0.48a1.46,1.46,0,0,1,0,.18,0.63,0.63,0,0,1,0,.14l0.21,0.19,0.21-.19a0.63,0.63,0,0,1,0-.14,1.47,1.47,0,0,1,0-.18v-0.48a0.83,0.83,0,0,0,0-.11,0.35,0.35,0,0,0-.14,0h0a0.34,0.34,0,0,0-.15,0h0Z" transform="translate(-951.46 -952.31)"/>
      <path d="M980.92,962.88l-0.22-.2s0-.1,0-0.15a1.65,1.65,0,0,0,0-.18v-0.46a0.68,0.68,0,0,1,0-.11,0.25,0.25,0,0,1,.31,0,0.64,0.64,0,0,1,0,.12v0.48a1.47,1.47,0,0,0,0,.18,0.71,0.71,0,0,0,0,.13l-0.21.21h0Zm0-1.14a0.35,0.35,0,0,0-.15,0s0,0.07,0,.1v0.48a1.46,1.46,0,0,1,0,.18,0.71,0.71,0,0,1,0,.14l0.2,0.18,0.2-.19a0.41,0.41,0,0,1,0-.13,1.27,1.27,0,0,1,0-.18v-0.46a0.73,0.73,0,0,0,0-.11,0.21,0.21,0,0,0-.14,0h0Z" transform="translate(-951.46 -952.31)"/>
      <path class="h" d="M980.81,961.64a0.11,0.11,0,0,0,.21,0h0a0.11,0.11,0,1,0-.21,0h0Z" transform="translate(-951.46 -952.31)"/>
      <path d="M980.92,961.76a0.12,0.12,0,0,1-.12-0.12,0.12,0.12,0,0,1,.12-0.12,0.12,0.12,0,0,1,.12.12,0.12,0.12,0,0,1-.12.12h0Zm0-.21a0.1,0.1,0,0,0-.1.1c0,0.11.19,0.11,0.19,0a0.1,0.1,0,0,0-.1-0.1h0Z" transform="translate(-951.46 -952.31)"/>
      <path class="h" d="M981,961.82a0.12,0.12,0,1,1-.24,0h0a0.12,0.12,0,0,1,.24,0h0Z" transform="translate(-951.46 -952.31)"/>
      <path d="M980.92,962a0.13,0.13,0,0,1-.13-0.13c0-.14.26-0.14,0.26,0a0.13,0.13,0,0,1-.13.13h0Zm0-.24a0.11,0.11,0,0,0-.11.11c0,0.12.22,0.12,0.22,0a0.11,0.11,0,0,0-.11-0.11h0Z" transform="translate(-951.46 -952.31)"/>
      <path class="h" d="M981.06,962a0.14,0.14,0,1,1-.29,0h0a0.14,0.14,0,1,1,.29,0h0Z" transform="translate(-951.46 -952.31)"/>
      <path d="M980.92,962.15h0a0.15,0.15,0,1,1,.15-0.15,0.15,0.15,0,0,1-.15.15h0Zm0-.29a0.13,0.13,0,0,0-.13.13c0,0.15.27,0.15,0.27,0a0.14,0.14,0,0,0-.13-0.13h0Z" transform="translate(-951.46 -952.31)"/>
      <path class="h" d="M981.09,962.22a0.17,0.17,0,0,1-.17.17,0.17,0.17,0,0,1-.17-0.17h0a0.17,0.17,0,0,1,.35,0h0Z" transform="translate(-951.46 -952.31)"/>
      <path d="M980.92,962.4h0a0.18,0.18,0,0,1-.18-0.18c0-.2.37-0.2,0.37,0a0.18,0.18,0,0,1-.18.18h0Zm0-.35a0.16,0.16,0,0,0-.16.16c0,0.18.33,0.18,0.33,0a0.16,0.16,0,0,0-.16-0.16h0Z" transform="translate(-951.46 -952.31)"/>
      <path class="h" d="M981.12,962.47a0.2,0.2,0,0,1-.4,0h0a0.2,0.2,0,0,1,.4,0h0Z" transform="translate(-951.46 -952.31)"/>
      <path d="M980.92,962.68h0a0.21,0.21,0,1,1,.21-0.21,0.21,0.21,0,0,1-.21.21h0Zm0-.4a0.19,0.19,0,0,0-.19.19c0,0.21.38,0.21,0.38,0a0.19,0.19,0,0,0-.19-0.19h0Z" transform="translate(-951.46 -952.31)"/>
      <path class="i" d="M980.92,962.63l-0.12.07a0.34,0.34,0,0,0-.1.13h-0.2a0.19,0.19,0,0,0,0,.09,0.22,0.22,0,0,0,0,.09l-0.06,0a0.08,0.08,0,0,0,0,0,0.59,0.59,0,0,0,.12.06h0.08a0.09,0.09,0,0,1,0,.06h-0.07a0.86,0.86,0,0,1-.09-0.06,0.47,0.47,0,0,0-.19,0,0.22,0.22,0,0,0,.06.1,0.13,0.13,0,0,0,.1,0l0,0a0.14,0.14,0,0,1-.09,0,0.16,0.16,0,0,0-.12-0.06,0.15,0.15,0,0,0-.11.1,0.38,0.38,0,0,1-.1.07l0.1,0.08a0.17,0.17,0,0,0,.11.07,0.21,0.21,0,0,0,.11-0.06h0v0.05a0.15,0.15,0,0,0-.12.2,0.33,0.33,0,0,0,.18,0,0.14,0.14,0,0,0,0-.1l0.06,0v0.06a0.19,0.19,0,0,0-.08.08,0.23,0.23,0,0,0,0,.11,0.18,0.18,0,0,1,0,.08,1.22,1.22,0,0,0,.26-0.07c0.2-.13,0-0.12.23,0a1.2,1.2,0,0,0,.26.07,0.18,0.18,0,0,1,0-.08,0.21,0.21,0,0,0,0-.11,0.18,0.18,0,0,0-.08-0.08v-0.06l0.05,0a0.14,0.14,0,0,0,0,.1,0.33,0.33,0,0,0,.19,0,0.22,0.22,0,0,0,0-.16l-0.08,0v-0.05h0a0.21,0.21,0,0,0,.11.06,0.17,0.17,0,0,0,.11-0.07l0.1-.08a0.4,0.4,0,0,1-.1-0.07,0.15,0.15,0,0,0-.11-0.1,0.16,0.16,0,0,0-.12.06,0.14,0.14,0,0,1-.09,0l0,0a0.13,0.13,0,0,0,.1,0,0.22,0.22,0,0,0,.06-0.1,0.48,0.48,0,0,0-.19,0,0.86,0.86,0,0,1-.09.06h-0.07a0.09,0.09,0,0,1,.05-0.06h0.08a0.55,0.55,0,0,0,.12-0.06,0.08,0.08,0,0,0,0,0l-0.06,0a0.35,0.35,0,0,0,.05-0.18h-0.2a0.33,0.33,0,0,0-.1-0.13,0.61,0.61,0,0,0-.13-0.07h0Z" transform="translate(-951.46 -952.31)"/>
      <path d="M981.32,964h0a1.24,1.24,0,0,1-.26-0.07,0.42,0.42,0,0,1-.1-0.09l-0.12.09a1.17,1.17,0,0,1-.27.07s0-.07,0-0.09a0.23,0.23,0,0,1,0-.11,0.19,0.19,0,0,1,.08-0.09,0.89,0.89,0,0,0-.06.09,0.13,0.13,0,0,0,0,.07,0.21,0.21,0,0,1,0,.12s0.18,0,.25-0.08l0.1-.08a0.53,0.53,0,0,1,.14.08,1.06,1.06,0,0,0,.24.06,0.16,0.16,0,0,1,0-.07,0.18,0.18,0,0,0,0-.1,0.17,0.17,0,0,0-.07-0.08V963.6l0,0s0,0.07,0,.12a0.14,0.14,0,0,1,0,.08,0.19,0.19,0,0,0,0,.11v0h0Zm-0.92-.18h0a0.36,0.36,0,0,0,.16,0,0.13,0.13,0,0,0,0-.1l0.07,0a0.1,0.1,0,0,1,0,.05s0,0-.1.08a0.27,0.27,0,0,1-.16,0h0Zm1,0a0.21,0.21,0,0,1-.13,0,0.15,0.15,0,0,1-.05-0.1,0.56,0.56,0,0,0,.06.09,0.38,0.38,0,0,0,.15,0,0.11,0.11,0,0,0,0-.14l-0.08,0v-0.07a0.26,0.26,0,0,0,.23,0l0.12-.11h0a0.19,0.19,0,0,1-.09-0.06,0.14,0.14,0,0,0-.1-0.09h0a0.1,0.1,0,0,0-.08,0l-0.08,0h0l0-.06a0.16,0.16,0,0,0,.11,0,0.21,0.21,0,0,0,.06-0.09h-0.17l-0.11.06h-0.06l0.06-.06h0.08l0.11-.05h0l-0.09.05a0.54,0.54,0,0,1,.18,0,0.14,0.14,0,0,1-.06.11,0.13,0.13,0,0,1-.09,0h0.08a0.11,0.11,0,0,1,.09,0,0.11,0.11,0,0,1,.1.07,0.43,0.43,0,0,0,.12.1,0.41,0.41,0,0,1-.1.1,0.17,0.17,0,0,1-.12.08,0.21,0.21,0,0,1-.12-0.07s0,0,.06.08a0.22,0.22,0,0,1,0,.17h-0.07Zm-1,0a0.14,0.14,0,0,1,0-.15,0.23,0.23,0,0,1,.08,0s-0.09,0-.14,0a0.12,0.12,0,0,1-.09,0l-0.13-.11a0.8,0.8,0,0,1,.09-0.08,0.15,0.15,0,0,1,.11-0.1,0.11,0.11,0,0,1,.1,0l0.07,0a0.22,0.22,0,0,0-.08-0.07,0.22,0.22,0,0,1-.07-0.1,0.33,0.33,0,0,1,.2,0l0.09,0.07h0.07l0,0h0a0.49,0.49,0,0,1-.16-0.07h0l0.11,0.05h0.08a0.1,0.1,0,0,1,.06.06h0l-0.17-.06a0.45,0.45,0,0,0-.18,0,0.52,0.52,0,0,0,.06.08,0.11,0.11,0,0,0,.08,0l0,0.06h-0.1a0.15,0.15,0,0,0-.1-0.06,0.09,0.09,0,0,0-.08.05,0.45,0.45,0,0,1-.12.11,0.35,0.35,0,0,1,.09.07,0.15,0.15,0,0,0,.11.07,0.2,0.2,0,0,0,.1-0.06h0l0,0.06-0.08,0a0.18,0.18,0,0,0,0,.14h0Zm0.11-.7,0.06,0,0-.09h0a0.18,0.18,0,0,1,0-.1,0.93,0.93,0,0,1,.21,0,0.23,0.23,0,0,1,.09-0.12l0.12-.07,0.1,0a0.37,0.37,0,0,1,.14.15h0.19a0.13,0.13,0,0,1,0,.11l0,0.08h0l0-.09a0.17,0.17,0,0,0,0-.08h-0.19a0.54,0.54,0,0,0-.11-0.13l-0.12-.06-0.11.06a0.33,0.33,0,0,0-.1.13h-0.2a0.49,0.49,0,0,0,0,.08h0V963l-0.07,0h0Z" transform="translate(-951.46 -952.31)"/>
      <path class="a" d="M980.83,963.64a0.41,0.41,0,0,1,0,.07l-0.07.06Zm-0.11-.13a0.38,0.38,0,0,0-.18.06Zm0.19-.34s0-.24,0-0.24v0.24Zm-0.2.25a0.9,0.9,0,0,0-.25,0h0.25Zm0-.1a0.25,0.25,0,0,0-.08,0,0.15,0.15,0,0,1-.06,0Zm0.11-.13a0.2,0.2,0,0,0,0-.06,0.28,0.28,0,0,0-.08-0.07Zm0.15,0.45a0.33,0.33,0,0,0,0,.07l0.06,0.06Zm0.11-.13a0.39,0.39,0,0,1,.18.06Zm0-.09a0.89,0.89,0,0,1,.25,0h-0.25Zm0-.1a0.24,0.24,0,0,1,.08,0,0.14,0.14,0,0,0,.06,0Zm-0.11-.13a0.15,0.15,0,0,1,0-.06,0.28,0.28,0,0,1,.08-0.07Z" transform="translate(-951.46 -952.31)"/>
      <path class="f" d="M980.72,963.42a0.2,0.2,0,1,1,.2.25,0.23,0.23,0,0,1-.2-0.25h0Z" transform="translate(-951.46 -952.31)"/>
      <path d="M980.92,963.68a0.27,0.27,0,0,1,0-.52,0.27,0.27,0,0,1,0,.52h0Zm0-.5a0.25,0.25,0,1,0,.19.24,0.22,0.22,0,0,0-.19-0.24h0Z" transform="translate(-951.46 -952.31)"/>
      <path class="h" d="M980.79,963.42a0.14,0.14,0,1,1,.13.19,0.17,0.17,0,0,1-.13-0.19h0Z" transform="translate(-951.46 -952.31)"/>
      <path d="M980.92,963.62a0.17,0.17,0,0,1-.14-0.2,0.14,0.14,0,1,1,.29,0,0.18,0.18,0,0,1-.14.2h0Zm0-.37a0.16,0.16,0,0,0-.12.18,0.13,0.13,0,1,0,.25,0,0.16,0.16,0,0,0-.12-0.18h0Z" transform="translate(-951.46 -952.31)"/>
      <path class="h" d="M979.06,963.83a0.16,0.16,0,1,1,.16.16,0.16,0.16,0,0,1-.16-0.16h0Z" transform="translate(-951.46 -952.31)"/>
      <path d="M979.22,964a0.17,0.17,0,0,1-.17-0.17c0-.19.34-0.19,0.34,0a0.17,0.17,0,0,1-.17.17h0Zm0-.32a0.15,0.15,0,0,0-.15.15c0,0.17.3,0.17,0.3,0a0.15,0.15,0,0,0-.15-0.15h0Z" transform="translate(-951.46 -952.31)"/>
      <path class="h" d="M982.8,963.86a0.16,0.16,0,1,0-.16.16,0.16,0.16,0,0,0,.16-0.16h0Z" transform="translate(-951.46 -952.31)"/>
      <path d="M982.64,964a0.17,0.17,0,0,1-.17-0.17c0-.19.34-0.19,0.34,0a0.17,0.17,0,0,1-.17.17h0Zm0-.32a0.15,0.15,0,0,0-.15.15c0,0.17.3,0.17,0.3,0a0.15,0.15,0,0,0-.15-0.15h0Z" transform="translate(-951.46 -952.31)"/>
      <path class="i" d="M980.91,976.68c3.41-2.67,7.08-8.13,2.78-11a2.81,2.81,0,0,0-2.13.24,0.44,0.44,0,0,0-.64.13,0.51,0.51,0,0,0-.65-0.2,2.54,2.54,0,0,0-2-.21c-3.75,2.36-1.45,8,2.69,11h0Z" transform="translate(-951.46 -952.31)"/>
      <path class="m" d="M980.91,976.77l0,0c-2.85-2.12-4.7-5.26-4.6-7.82a4,4,0,0,1,1.92-3.33,2.53,2.53,0,0,1,2.12.21,0.37,0.37,0,0,1,.21-0.05,0.53,0.53,0,0,1,.41.2,0.47,0.47,0,0,1,.63-0.11,3,3,0,0,1,2.15-.23,4,4,0,0,1,2,3.32c0.11,2.73-2.31,5.89-4.75,7.81l0,0h0ZM979,965.59a3,3,0,0,0-.8.12,3.83,3.83,0,0,0-1.84,3.21c-0.09,2.46,1.76,5.61,4.5,7.67,2.4-1.9,4.76-5,4.66-7.66a3.92,3.92,0,0,0-1.92-3.2,4.78,4.78,0,0,0-.83-0.08,2,2,0,0,0-1.22.32l0,0,0,0a0.37,0.37,0,0,0-.55.12l-0.06.06-0.05-.06a0.43,0.43,0,0,0-.58-0.17,2.8,2.8,0,0,0-1.25-.33h0Z" transform="translate(-951.46 -952.31)"/>
      <path class="n" d="M987.22,970.61s0.38-.54.4-0.54a0.84,0.84,0,0,0,.42-0.54,0.43,0.43,0,0,0,.29-0.5,0.46,0.46,0,0,0,.09-0.49,0.77,0.77,0,0,0-.05-0.64c0-.55-0.31-0.5-0.57-0.14a0.4,0.4,0,0,0-.24.58c-0.36,0-.37.54-0.26,0.85-0.48,0-.21.54-0.23,0.57a1.25,1.25,0,0,0,.15.85h0Z" transform="translate(-951.46 -952.31)"/>
      <path class="o" d="M987.22,970.68s-0.1,0-.22-0.47a0.59,0.59,0,0,1,0-.47,0.59,0.59,0,0,1,0-.5,0.29,0.29,0,0,1,.2-0.11,0.93,0.93,0,0,1,.07-0.7,0.32,0.32,0,0,1,.19-0.13,0.53,0.53,0,0,1,0-.37,0.46,0.46,0,0,1,.29-0.22,0.38,0.38,0,0,1,.55-0.21,0.53,0.53,0,0,1,.11.37,0.73,0.73,0,0,1,.06.62,0.6,0.6,0,0,1-.12.59,0.43,0.43,0,0,1-.28.51,1,1,0,0,1-.45.55l-0.37.52-0.06,0h0Zm0.08-1.42a0.21,0.21,0,0,0-.18.06,0.5,0.5,0,0,0,0,.36,0.32,0.32,0,0,1,0,.11,1.17,1.17,0,0,0,.09.68,1,1,0,0,1,.39-0.48,0.75,0.75,0,0,0,.35-0.48,0.07,0.07,0,0,1,0-.06,0.31,0.31,0,0,0,.24-0.37,0.39,0.39,0,0,1,0-.1,0.4,0.4,0,0,0,.09-0.42,0.34,0.34,0,0,1,0-.11c0.07-.39,0-0.47,0-0.49a0.07,0.07,0,0,1,0-.07,0.43,0.43,0,0,0-.07-0.31,0.39,0.39,0,0,0-.37.21,0.41,0.41,0,0,0-.24.18,0.43,0.43,0,0,0,0,.34,0.07,0.07,0,0,1,0,.06,0.07,0.07,0,0,1-.06,0,0.2,0.2,0,0,0-.17.09,0.85,0.85,0,0,0,0,.66,0.08,0.08,0,0,1,0,.07,0,0,0,0,1-.06,0h0Z" transform="translate(-951.46 -952.31)"/>
      <path class="n" d="M984.21,975.25l0.24,0.15a0.33,0.33,0,0,0,.34.28c0.06,0.29.36,0.25,0.58,0.08a0.51,0.51,0,0,0,.69.18,0.64,0.64,0,0,0,.83-0.1c0.24,0.21.41,0.05,0.53-.17a0.29,0.29,0,0,0,.41-0.18c0.37,0,.19-0.4-0.12-0.55,0.24-.22.51-0.68,0.13-0.75a0.52,0.52,0,0,0-.52,0c0-.2-0.31-0.26-0.61,0-0.1-.23-0.45-0.12-0.62,0a0.63,0.63,0,0,0-.83,0l-1.06,1h0Z" transform="translate(-951.46 -952.31)"/>
      <path class="o" d="M986.4,976.13A0.61,0.61,0,0,1,986,976a0.41,0.41,0,0,1-.25.07,0.49,0.49,0,0,1-.41-0.21,0.39,0.39,0,0,1-.62-0.12,0.42,0.42,0,0,1-.36-0.33l-0.21-.11a0.07,0.07,0,0,1,0-.05,0.07,0.07,0,0,1,0-.06l1.06-1a0.71,0.71,0,0,1,.88-0.07,0.51,0.51,0,0,1,.64,0,0.43,0.43,0,0,1,.63,0,0.57,0.57,0,0,1,.52,0,0.23,0.23,0,0,1,.21.17,0.78,0.78,0,0,1-.27.62,0.52,0.52,0,0,1,.28.45,0.23,0.23,0,0,1-.22.18,0.35,0.35,0,0,1-.43.2,0.36,0.36,0,0,1-.56.18,0.79,0.79,0,0,1-.5.19h0Zm-0.36-.25a0.61,0.61,0,0,0,.81-0.08,0.07,0.07,0,0,1,.09,0c0.16,0.14.28,0.1,0.42-.15a0.07,0.07,0,0,1,.08,0,0.23,0.23,0,0,0,.33-0.14,0.07,0.07,0,0,1,.06,0,0.14,0.14,0,0,0,.14-0.07,0.46,0.46,0,0,0-.29-0.35,0.07,0.07,0,0,1,0-.05,0.07,0.07,0,0,1,0-.06,0.76,0.76,0,0,0,.29-0.54,0.13,0.13,0,0,0-.12-0.09,0.46,0.46,0,0,0-.47,0h-0.06a0.07,0.07,0,0,1,0-.05,0.16,0.16,0,0,0-.17-0.12,0.58,0.58,0,0,0-.33.13,0.07,0.07,0,0,1-.06,0,0.07,0.07,0,0,1,0,0,0.15,0.15,0,0,0-.16-0.09,0.57,0.57,0,0,0-.35.15,0.07,0.07,0,0,1-.1,0,0.56,0.56,0,0,0-.75,0l-1,.93,0.16,0.1a0.35,0.35,0,0,0,.26.27h0.07a0.1,0.1,0,0,1,0,0c0,0.2.27,0.19,0.47,0h0.06l0,0a0.43,0.43,0,0,0,.61.15h0Z" transform="translate(-951.46 -952.31)"/>
      <path class="n" d="M984.21,974.66c0-.25-0.12-0.72.13-0.76,0-.43,0-0.91.49-0.86,0.08-.4.06-0.78,0.5-0.83,0,0,.36-1.3.73-0.4,0.15,0.26.12,0.69-.17,0.61,0.06,0.32,0,.61-0.38.6a0.54,0.54,0,0,1-.07.68l-1.23,1h0Z" transform="translate(-951.46 -952.31)"/>
      <path class="o" d="M984.21,974.73h0a0.07,0.07,0,0,1,0-.07,1.22,1.22,0,0,0,0-.29,0.49,0.49,0,0,1,.13-0.52,1,1,0,0,1,.16-0.74,0.45,0.45,0,0,1,.35-0.15l0-.11a0.67,0.67,0,0,1,.49-0.71,1,1,0,0,1,.51-0.73,0.45,0.45,0,0,1,.34.36,0.68,0.68,0,0,1,0,.6,0.23,0.23,0,0,1-.19.12,0.6,0.6,0,0,1-.11.44,0.39,0.39,0,0,1-.24.13,0.6,0.6,0,0,1-.13.67l-1.23,1,0,0h0Zm0.6-1.62a0.33,0.33,0,0,0-.28.1,0.92,0.92,0,0,0-.12.69,0.07,0.07,0,0,1-.06.08c-0.1,0-.09.16-0.08,0.39,0,0.05,0,.1,0,0.15l1.11-.87a0.47,0.47,0,0,0,.05-0.59,0.07,0.07,0,0,1,0-.07,0.11,0.11,0,0,1,.06,0h0a0.29,0.29,0,0,0,.25-0.09,0.52,0.52,0,0,0,.07-0.42,0.07,0.07,0,0,1,0-.06,0.08,0.08,0,0,1,.07,0,0.12,0.12,0,0,0,.13,0,0.55,0.55,0,0,0,0-.46,0.35,0.35,0,0,0-.21-0.28,1.05,1.05,0,0,0-.38.67,0.07,0.07,0,0,1-.06.05c-0.31,0-.36.24-0.41,0.6l0,0.18a0.07,0.07,0,0,1-.08.06h0Z" transform="translate(-951.46 -952.31)"/>
      <path class="n" d="M986.37,973l0.38-.08c0.4-.28.55-0.39,0.75-0.08,0.33-.07.65,0,0.63,0.24a0.35,0.35,0,0,1,.34.5c0.06,0.37-.09.84-0.33,0.26-0.77-.49-1.21-0.43-2.42-0.14l0.64-.7h0Z" transform="translate(-951.46 -952.31)"/>
      <path class="o" d="M988.37,974.21a0.39,0.39,0,0,1-.27-0.31,2.68,2.68,0,0,0-2.34-.1,0.07,0.07,0,0,1-.07-0.12l0.63-.7,0.42-.11c0.37-.27.59-0.38,0.8-0.09a0.65,0.65,0,0,1,.6.09,0.27,0.27,0,0,1,.07.16,0.43,0.43,0,0,1,.29.15,0.53,0.53,0,0,1,.05.43,0.75,0.75,0,0,1-.08.53,0.31,0.31,0,0,1-.11.06h0Zm-1.3-.77a2,2,0,0,1,1.13.37,0.55,0.55,0,0,0,.17.26,0.65,0.65,0,0,0,.05-0.45,0.43,0.43,0,0,0,0-.34,0.34,0.34,0,0,0-.25-0.1,0.07,0.07,0,0,1-.07-0.07,0.16,0.16,0,0,0,0-.12,0.61,0.61,0,0,0-.51,0,0.07,0.07,0,0,1-.08,0,0.24,0.24,0,0,0-.19-0.15,1.14,1.14,0,0,0-.46.25l-0.41.09-0.44.5a5.26,5.26,0,0,1,1.12-.17h0Z" transform="translate(-951.46 -952.31)"/>
      <path class="n" d="M986.57,972.63s1.14-.32,1-0.68a0.56,0.56,0,0,0,.4-0.39,0.69,0.69,0,0,0,.62-0.62,1,1,0,0,0,.45-0.8c0-.43.06-0.7-0.49-0.42a0.62,0.62,0,0,0-.67.58c-0.19-.24-0.51.14-0.54,0.48,0,0-.5.51-0.5,0.53s-0.42.82-.42,0.82l0.15,0.5h0Z" transform="translate(-951.46 -952.31)"/>
      <path class="o" d="M986.59,972.7h0a0.1,0.1,0,0,1-.07,0l-0.15-.5c0-.05.4-0.81,0.43-0.86a3.11,3.11,0,0,1,.52-0.55,0.62,0.62,0,0,1,.45-0.58,0.24,0.24,0,0,1,.1,0,0.64,0.64,0,0,1,.72-0.53,0.4,0.4,0,0,1,.49-0.05,0.69,0.69,0,0,1,.07.49,0.83,0.83,0,0,1-.35.77l-0.12.13h0a0.72,0.72,0,0,1-.66.65,0.49,0.49,0,0,1-.34.38,0.25,0.25,0,0,1,0,.12,1.88,1.88,0,0,1-1,.55,0.1,0.1,0,0,1-.07,0h0Zm0.32-1.35s0,0.09-.42.81l0.13,0.38a1.59,1.59,0,0,0,.89-0.48,0.11,0.11,0,0,0,0-.09,0.07,0.07,0,0,1,0-.06,0.07,0.07,0,0,1,0,0,0.45,0.45,0,0,0,.33-0.32,0.12,0.12,0,0,1,.08-0.07,0.62,0.62,0,0,0,.55-0.55,0.75,0.75,0,0,1,.15-0.19,0.67,0.67,0,0,0,.3-0.61,0.92,0.92,0,0,0,0-.46,0.58,0.58,0,0,0-.36.09h-0.12a0.57,0.57,0,0,0-.52.54,0.07,0.07,0,0,1-.05,0,0.07,0.07,0,0,1-.07,0c-0.13-.17-0.38.13-0.42,0.45-0.2.22-.49,0.52-0.51,0.56h0Z" transform="translate(-951.46 -952.31)"/>
      <path class="n" d="M986.6,971.71a0.77,0.77,0,0,1-.37-0.72c-0.18-.25-0.3-0.4-0.13-0.62,0,0-.13-0.5-0.13-0.51a0.33,0.33,0,0,1-.11-0.55,0.59,0.59,0,0,1,0-.71c0-.45.3-0.28,0.54,0,0,0,.41.3,0.11,0.58,0.3,0.11.4,0.39,0.22,0.5a0.34,0.34,0,0,1,.16.54,1.2,1.2,0,0,1,.25.76l-0.53.73h0Z" transform="translate(-951.46 -952.31)"/>
      <path class="o" d="M986.6,971.79l0,0a0.84,0.84,0,0,1-.4-0.79,0.47,0.47,0,0,1-.12-0.65l-0.13-.42a0.37,0.37,0,0,1-.22-0.24,0.47,0.47,0,0,1,.09-0.37,0.65,0.65,0,0,1,0-.75,0.3,0.3,0,0,1,.07-0.25c0.14-.15.46,0.1,0.59,0.24h0a0.61,0.61,0,0,1,.24.39,0.35,0.35,0,0,1-.07.22,0.46,0.46,0,0,1,.26.33,0.26,0.26,0,0,1,0,.17,0.44,0.44,0,0,1,.19.27,0.38,0.38,0,0,1-.05.28,0.75,0.75,0,0,1,.18.51,1.1,1.1,0,0,0,0,.24l-0.54.8,0,0h0Zm-0.61-3.4a0.19,0.19,0,0,0-.07.2,0.56,0.56,0,0,0,0,.67,0.07,0.07,0,0,1,0,.09,0.36,0.36,0,0,0-.09.28,0.25,0.25,0,0,0,.17.16,0.07,0.07,0,0,1,0,.06l0.13,0.5c-0.13.22-.08,0.32,0.1,0.57a0.19,0.19,0,0,1,0,.09,0.66,0.66,0,0,0,.29.6l0.48-.67a0.35,0.35,0,0,1-.06-0.21,0.57,0.57,0,0,0-.18-0.46,0.07,0.07,0,0,1,0,0,0.07,0.07,0,0,1,0-.05,0.24,0.24,0,0,0,.06-0.21,0.33,0.33,0,0,0-.2-0.22,0.07,0.07,0,0,1,0-.06,0.07,0.07,0,0,1,0-.06,0.11,0.11,0,0,0,.05-0.11,0.37,0.37,0,0,0-.26-0.26,0.07,0.07,0,0,1,0-.05,0.07,0.07,0,0,1,0-.07,0.23,0.23,0,0,0,.09-0.18,0.5,0.5,0,0,0-.19-0.29,0.7,0.7,0,0,0-.36-0.26h0Z" transform="translate(-951.46 -952.31)"/>
      <path class="n" d="M987.07,969.65a1.36,1.36,0,0,1-.33-0.64,1,1,0,0,1-.08-0.55,2.74,2.74,0,0,1,.06-1.37,0.4,0.4,0,0,1,.37-0.48c0.15-.55.39-0.41,0.53,0a0.64,0.64,0,0,1,.11.69,0.29,0.29,0,0,1,0,.49l-0.65,1.86h0Z" transform="translate(-951.46 -952.31)"/>
      <path class="o" d="M987.07,969.72l-0.05,0a1.72,1.72,0,0,1-.37-0.68v0a1.24,1.24,0,0,0,0-.14,0.65,0.65,0,0,1,0-.38,0.57,0.57,0,0,1-.06-0.73,0.59,0.59,0,0,1,.16-0.72,0.41,0.41,0,0,1,.4-0.5c0.06-.45.44-0.48,0.62,0.06a0.65,0.65,0,0,1,.12.69,0.33,0.33,0,0,1,.12.23,0.46,0.46,0,0,1-.17.33l-0.63,1.83a0.07,0.07,0,0,1-.05,0h0Zm0.27-3.41a0.37,0.37,0,0,0-.18.31c-0.27.12-.42,0.19-0.37,0.46a0.52,0.52,0,0,0-.13.64,0.07,0.07,0,0,1,0,.09,0.44,0.44,0,0,0,0,.61,0.07,0.07,0,0,1,0,.08,0.46,0.46,0,0,0,0,.32,1.24,1.24,0,0,1,.05.19,0.07,0.07,0,0,1,0,.08s0.18,0.27.29,0.42l0.6-1.73a0.38,0.38,0,0,0,.14-0.25,0.2,0.2,0,0,0-.1-0.15,0.07,0.07,0,0,1,0-.08,0.58,0.58,0,0,0-.09-0.62,0.5,0.5,0,0,0-.24-0.36h0Z" transform="translate(-951.46 -952.31)"/>
      <path class="n" d="M987,966.72l-0.37-.39a0.56,0.56,0,0,0-.1-0.74c-0.15-.39-0.92-0.88-1,0.05-0.12-.28-0.36-0.56-0.54-0.23-0.4-.36-0.62-0.25-0.41.21,0,0-.18.31,0.3,0.54a0.43,0.43,0,0,0,.42.57,0.29,0.29,0,0,0,.31.4,0.24,0.24,0,0,0,.29.36c-0.07.24-.07,0.36,0.25,0.39l0.36,0.43,0.29,0.42c0.08-.67.17-1.34,0.25-2h0Z" transform="translate(-951.46 -952.31)"/>
      <path class="o" d="M986.75,968.8a0.07,0.07,0,0,1-.06,0l-0.29-.42-0.35-.43a0.29,0.29,0,0,1-.27-0.11,0.3,0.3,0,0,1,0-.24,0.34,0.34,0,0,1-.29-0.19,0.28,0.28,0,0,1,0-.21,0.38,0.38,0,0,1-.26-0.19,0.33,0.33,0,0,1,0-.21,0.46,0.46,0,0,1-.29-0.14,0.55,0.55,0,0,1-.1-0.42,0.75,0.75,0,0,1-.33-0.37,0.37,0.37,0,0,1,0-.28,0.36,0.36,0,0,1-.06-0.38c0.09-.14.34,0,0.51,0.1,0.16-.2.39-0.09,0.53,0.13a0.46,0.46,0,0,1,.44-0.4,0.87,0.87,0,0,1,.7.53,0.57,0.57,0,0,1,.12.75l0.34,0.36-0.23,2.07a0.07,0.07,0,0,1-.05.06h0Zm-0.93-1.37h0.05a0.08,0.08,0,0,1,0,.07,0.34,0.34,0,0,0,0,.23,0.31,0.31,0,0,0,.21.07l0.59,0.73,0.23-1.83-0.07,0-0.28-.29a0.07,0.07,0,0,1,0-.08,0.52,0.52,0,0,0-.08-0.64,0.8,0.8,0,0,0-.6-0.47,0.45,0.45,0,0,0-.34.48,0.08,0.08,0,0,1-.06.06,0.08,0.08,0,0,1-.08,0,0.5,0.5,0,0,0-.29-0.34,0.18,0.18,0,0,0-.12.11,0.07,0.07,0,0,1-.05,0l-0.06,0a0.59,0.59,0,0,0-.33-0.2s-0.07.09,0,.32a0.52,0.52,0,0,0,0,.24,0.51,0.51,0,0,0,.29.27,0.15,0.15,0,0,1,0,.15,0.41,0.41,0,0,0,.06.31,0.38,0.38,0,0,0,.29.1,0.08,0.08,0,0,1,.06,0,0.07,0.07,0,0,1,0,.07,0.16,0.16,0,0,0,0,.17,0.25,0.25,0,0,0,.22.13,0.09,0.09,0,0,1,.08,0,0.07,0.07,0,0,1,0,.07,0.14,0.14,0,0,0,0,.16,0.21,0.21,0,0,0,.17.11h0.05Z" transform="translate(-951.46 -952.31)"/>
      <path class="o" d="M986.71,975.46h0a10.5,10.5,0,0,1-2.54-.26,0.07,0.07,0,0,1,.1-0.1,11.59,11.59,0,0,0,2.44.21,0.07,0.07,0,0,1,0,.14h0Zm-2.38-.43h0a0.07,0.07,0,0,1-.07-0.07,10.75,10.75,0,0,1,1.15-2.62l0.07-.13c0-.08.14-0.05,0.14,0a0.42,0.42,0,0,1-.08.17A9.2,9.2,0,0,0,984.4,975a0.07,0.07,0,0,1-.07.07h0Zm0.3-.12a0.07,0.07,0,0,1-.07-0.07,0.07,0.07,0,0,1,.07-0.07c0.81,0,2.67-.29,2.69-0.29a0.07,0.07,0,0,1,.08.06,0.07,0.07,0,0,1-.06.08s-1.89.28-2.71,0.29h0Zm1.93-2.34h0a0.07,0.07,0,0,1,0-.1,14.08,14.08,0,0,1,2.13-2.37,0.07,0.07,0,0,1,.1,0,0.07,0.07,0,0,1,0,.1,13.86,13.86,0,0,0-2.1,2.34,0.07,0.07,0,0,1-.06,0h0Zm0.67-2.14,0,0a0.07,0.07,0,0,1,0-.09,18.75,18.75,0,0,0,.79-2.17,0.07,0.07,0,0,1,.08-0.06,0.07,0.07,0,0,1,.06.08,16.76,16.76,0,0,1-.82,2.23l-0.05,0h0Zm-0.13-.61h0a0.07,0.07,0,0,1,0-.09,7.28,7.28,0,0,0,.2-2.33,0.07,0.07,0,0,1,.07-0.08,0.08,0.08,0,0,1,.08.07,7.28,7.28,0,0,1-.21,2.38,0.07,0.07,0,0,1-.07.05h0Zm-0.45-1.55a0.07,0.07,0,0,1-.07,0c-0.08-.23-0.15-0.46-0.2-0.69a13.6,13.6,0,0,0-1.26-1.46,0.07,0.07,0,0,1,0-.1,0.07,0.07,0,0,1,.1,0,14.74,14.74,0,0,1,1.08,1.22,11.15,11.15,0,0,1-.21-1.32,0.07,0.07,0,0,1,.07-0.07,0.07,0.07,0,0,1,.08.06,11.41,11.41,0,0,0,.28,1.62,1.81,1.81,0,0,1,.28.55,0.07,0.07,0,0,1-.05.08h0l0,0.07a0.07,0.07,0,0,1,0,.09h0Z" transform="translate(-951.46 -952.31)"/>
      <path class="p" d="M980.9,976.29c-2.46-2.43-5-7-2.47-9.29a2,2,0,0,0,1.69-.27,0.55,0.55,0,0,0,.78.13,0.56,0.56,0,0,0,.7-0.15c0.71,0.43,1.62.65,1.83,0.23,2.46,2.45,0,7-2.53,9.35h0Z" transform="translate(-951.46 -952.31)"/>
      <path class="m" d="M980.9,976.38l0,0c-1.78-1.76-3.57-4.59-3.52-6.93a3.29,3.29,0,0,1,1.06-2.46l0,0,0,0a1.83,1.83,0,0,0,1.54-.24l0.13-.05,0,0a0.48,0.48,0,0,0,.69.11,1.55,1.55,0,0,0,.31.05,0.49,0.49,0,0,0,.37-0.18l0,0,0,0c0.73,0.45,1.57.59,1.73,0.26l0-.09,0.07,0.07a3.57,3.57,0,0,1,1,2.7c0,2.4-1.87,5.19-3.56,6.76l0,0h0Zm-2.46-9.3a3.16,3.16,0,0,0-1,2.33c0,2.28,1.69,5,3.43,6.78,1.65-1.56,3.43-4.28,3.47-6.61a3.44,3.44,0,0,0-.93-2.53,0.6,0.6,0,0,1-.5.19,2.89,2.89,0,0,1-1.33-.44,0.63,0.63,0,0,1-.74.12,0.55,0.55,0,0,1-.77-0.11l0,0a2,2,0,0,1-1.62.26h0Z" transform="translate(-951.46 -952.31)"/>
      <path class="q" d="M979,971.48a3.28,3.28,0,0,0-.37.14l-0.23.39a1.59,1.59,0,0,0-.32.32,13.76,13.76,0,0,0,2,3.15,3.51,3.51,0,0,0,.27-0.38,3.76,3.76,0,0,0,.51-1.16,2.88,2.88,0,0,1-.31-0.87,7,7,0,0,0-.33-0.63L980,972l-0.3-.25-0.43-.28H979Z" transform="translate(-951.46 -952.31)"/>
      <path d="M980.15,975.51v0a13.66,13.66,0,0,1-2-3.15,1.5,1.5,0,0,1,.32-0.34l0.23-.38a2.7,2.7,0,0,1,.38-0.15h0.27l0.43,0.28L980,972l0.27,0.43a7,7,0,0,1,.34.63,2.89,2.89,0,0,0,.31.87,3.73,3.73,0,0,1-.51,1.18,3.4,3.4,0,0,1-.27.38v0h0Zm-0.86-4H979a3.15,3.15,0,0,0-.36.14l-0.23.38a1.66,1.66,0,0,0-.32.32,14,14,0,0,0,2,3.12,3.86,3.86,0,0,0,.26-0.36,3.72,3.72,0,0,0,.51-1.16,2.74,2.74,0,0,1-.31-0.87c-0.06-.17-0.33-0.62-0.33-0.63L980,972l-0.3-.24-0.42-.28h0Z" transform="translate(-951.46 -952.31)"/>
      <path d="M979.51,974.62l0.06,0,0.2-.49,0.2-.25h0l-0.2.25-0.07.21-0.13.28-0.07,0h0Zm1.14-.36-0.25-.3-0.4-.14a0.72,0.72,0,0,1-.1-0.25l-0.1-.32-0.2-.1s-0.27-.46-0.41-0.67h0c0.13,0.21.4,0.67,0.4,0.67l0.2,0.1,0.11,0.32a0.89,0.89,0,0,0,.1.24l0.4,0.14,0.24,0.32h0Zm-1.78-.45,0.15-.32-0.1,0-0.17-.25h0l0.17,0.24,0.1,0-0.16.33h0Zm1.64-.57-0.12-.2-0.09,0-0.14-.21-0.23-.1-0.14-.32-0.13-.1-0.26,0h0l0.27,0,0.14,0.11,0.14,0.32,0.23,0.1,0.14,0.21,0.1,0,0.11,0.21h0Zm-1.88,0,0.13-.08a6.84,6.84,0,0,1,.3-0.66,0.18,0.18,0,0,1,.11-0.12l0,0.06h0a0.43,0.43,0,0,0,.15-0.19h0a4.37,4.37,0,0,1-.07-0.66h0a4.93,4.93,0,0,0,.07.67,0.37,0.37,0,0,1-.16.2l0-.06h0a0.21,0.21,0,0,0-.09.1c-0.13.25-.3,0.67-0.3,0.67l-0.14.07h0Zm-0.3-.53,0.19-.19-0.07-.49h0l0.07,0.49a1.43,1.43,0,0,1-.2.18h0Z" transform="translate(-951.46 -952.31)"/>
      <path class="r" d="M979.85,978.51c0.46-.78,3.66-2.35,6.66-5.74-3.06,3.09-5,3.84-7.47,5.73l0.81,0h0Z" transform="translate(-951.46 -952.31)"/>
      <path class="s" d="M979.89,978.58l-1,0,0.16-.12c0.8-.6,1.55-1.1,2.27-1.57a28.2,28.2,0,0,0,5.18-4.14l0.1,0.1a29.86,29.86,0,0,1-5.14,4.47,6.93,6.93,0,0,0-1.52,1.26l0,0h0Zm-0.64-.15h0.57a7.39,7.39,0,0,1,1.53-1.27c0.76-.55,1.75-1.27,2.82-2.19-1,.81-1.92,1.41-2.81,2-0.67.45-1.37,0.9-2.11,1.45h0Z" transform="translate(-951.46 -952.31)"/>
      <path class="q" d="M983,971.51a3.23,3.23,0,0,0-.37.14l-0.24.39a1,1,0,0,0-.37.46,1,1,0,0,1-.24.46,1,1,0,0,0-.23.49,0.71,0.71,0,0,1-.3.42,3.79,3.79,0,0,0,.71,1.29A12.34,12.34,0,0,0,983.9,972l-0.21-.17-0.42-.28H983Z" transform="translate(-951.46 -952.31)"/>
      <path d="M982,975.17h0a3.85,3.85,0,0,1-.71-1.29,0.8,0.8,0,0,0,.3-0.43,1.06,1.06,0,0,1,.24-0.5,1,1,0,0,0,.23-0.45,1,1,0,0,1,.37-0.47l0.23-.38a2.9,2.9,0,0,1,.38-0.15h0.27l0.64,0.45a11.89,11.89,0,0,1-1.94,3.21v0h0Zm1.3-3.65H983a3.47,3.47,0,0,0-.36.14l-0.23.38a1,1,0,0,0-.37.45,1,1,0,0,1-.24.46,1,1,0,0,0-.23.48,0.71,0.71,0,0,1-.31.43,4.06,4.06,0,0,0,.7,1.25,12.23,12.23,0,0,0,1.93-3.17l-0.63-.43h0Z" transform="translate(-951.46 -952.31)"/>
      <path d="M981.58,975l0.16-.25,0.2-.18a5.2,5.2,0,0,1,0-.52c0-.22.14-0.22,0.14-0.22l0.19-.31-0.07-.24v-0.18a0.59,0.59,0,0,1,.14-0.39,2,2,0,0,0,.2-0.17l-0.07-.48h0l0.07,0.49a1.57,1.57,0,0,1-.2.18,0.58,0.58,0,0,0-.13.38v0.18l0.07,0.24-0.2.32s-0.13,0-.13.21,0,0.53,0,.53l-0.2.18-0.17.24h0Zm-0.13-.42,0.19-.32-0.13-.17,0.07-.36,0.2-.35a1.24,1.24,0,0,1,.27-0.21,0.53,0.53,0,0,0,0-.45h0a0.52,0.52,0,0,1,0,.47,1.24,1.24,0,0,0-.27.21l-0.2.35-0.06.35,0.13,0.17-0.2.32h0Zm1.24-.28,0.15-.46,0.17-.32-0.1,0-0.17-.25h0l0.17,0.25,0.1,0-0.16.33-0.17.46h0Zm-0.44-.74,0.05-.18,0.44-.21a7.09,7.09,0,0,1,.3-0.66c0.07-.1.08-0.11,0.11-0.11l0,0.06a0.33,0.33,0,0,0,.15-0.19h0a4.82,4.82,0,0,1-.07-0.66h0a4.82,4.82,0,0,0,.07.67c-0.11.18-.13,0.21-0.16,0.2l0-.06h0a0.21,0.21,0,0,0-.09.11c-0.13.24-.3,0.67-0.3,0.67l-0.44.21-0.06.17h0Zm1.22-.61c-0.1-.14-0.22-0.33-0.29-0.45h0l0.28,0.45h0Zm0.33-.56-0.14-.09-0.26,0v0l0.27,0,0.14,0.11h0Z" transform="translate(-951.46 -952.31)"/>
      <path class="t" d="M984.25,974.91a0.23,0.23,0,1,1-.23-0.24,0.24,0.24,0,0,1,.23.24h0Z" transform="translate(-951.46 -952.31)"/>
      <path class="u" d="M984,975.19a0.28,0.28,0,1,1,.27-0.28,0.27,0.27,0,0,1-.27.28h0Zm0-.49a0.21,0.21,0,1,0,.2.21,0.2,0.2,0,0,0-.2-0.21h0Z" transform="translate(-951.46 -952.31)"/>
      <path class="q" d="M980.88,971.61a3.28,3.28,0,0,0-.37.14l-0.23.39a1,1,0,0,0-.37.46,1.05,1.05,0,0,1-.24.46,1,1,0,0,0-.23.49,0.71,0.71,0,0,1-.3.42c-0.2.13,0.18,0.47,0.42,0.76a12.29,12.29,0,0,0,1.31,1.53,10,10,0,0,0,1.93-2.19,2.86,2.86,0,0,1-.31-0.87,6.88,6.88,0,0,0-.33-0.63l-0.27-.42-0.3-.25-0.42-.28h-0.27Z" transform="translate(-951.46 -952.31)"/>
      <path d="M980.86,976.27h0a12.28,12.28,0,0,1-1.31-1.53l-0.15-.18a1,1,0,0,1-.32-0.51,0.13,0.13,0,0,1,.06-0.09,0.69,0.69,0,0,0,.3-0.41,1,1,0,0,1,.24-0.5,1,1,0,0,0,.23-0.45,1,1,0,0,1,.38-0.47l0.23-.38a2.76,2.76,0,0,1,.38-0.15h0.27l0.43,0.28,0.3,0.25,0.27,0.42s0.27,0.46.34,0.63a2.88,2.88,0,0,0,.31.88,7.89,7.89,0,0,1-1.57,1.86l-0.36.34h0Zm0.28-4.65h-0.26a2.83,2.83,0,0,0-.36.14l-0.23.38a1.06,1.06,0,0,0-.37.45,1,1,0,0,1-.24.47,1,1,0,0,0-.23.48,0.72,0.72,0,0,1-.31.43,0.09,0.09,0,0,0,0,.07,1,1,0,0,0,.31.48l0.15,0.18a12.45,12.45,0,0,0,1.29,1.52l0.35-.33a8.13,8.13,0,0,0,1.57-1.84,2.64,2.64,0,0,1-.31-0.86,6.91,6.91,0,0,0-.33-0.63l-0.27-.42-0.3-.24-0.42-.28h0Z" transform="translate(-951.46 -952.31)"/>
      <path d="M980.06,975.44l0-.11a2.36,2.36,0,0,1,.37-0.32c0.11-.07.1-0.09,0.08-0.13a0.28,0.28,0,0,1,0-.11,0.13,0.13,0,0,1,0-.11v-0.28l0.17-.46,0.17-.32-0.1,0-0.17-.25h0l0.17,0.25,0.1,0-0.16.33-0.17.46v0.24a0.3,0.3,0,0,0,0,.14,0.27,0.27,0,0,0,0,.1c0,0.06,0,.08-0.09.15a2.46,2.46,0,0,0-.37.31l0,0.1h0Zm0.87,0,0.26-.26,0.17-.42,0.07,0,0.2-.49,0.2-.25h0l-0.2.25-0.07.21-0.13.28-0.07,0-0.17.42-0.27.25h0Zm-1.31-.56,0.19-.19a4.81,4.81,0,0,1,0-.52c0-.22.14-0.22,0.14-0.22l0.2-.31-0.07-.24v-0.18a0.58,0.58,0,0,1,.14-0.39,1.89,1.89,0,0,0,.2-0.17l-0.07-.49h0l0.07,0.49a1.32,1.32,0,0,1-.2.18,0.58,0.58,0,0,0-.13.38v0.18l0.07,0.24-0.2.32s-0.13,0-.13.21,0,0.53,0,.53l-0.2.18h0Zm-0.2-.33,0.09-.17-0.13-.17,0.07-.36,0.2-.35a1.32,1.32,0,0,1,.27-0.21,0.53,0.53,0,0,0,0-.45h0a0.52,0.52,0,0,1,0,.47,1.22,1.22,0,0,0-.27.21l-0.2.35-0.07.35,0.13,0.17-0.1.17h0Zm3.09-.13-0.25-.31-0.4-.14a0.75,0.75,0,0,1-.1-0.25l-0.1-.32-0.2-.1s-0.27-.46-0.41-0.67h0c0.13,0.21.4,0.67,0.4,0.67l0.2,0.1,0.11,0.32a0.89,0.89,0,0,0,.1.24l0.4,0.14,0.24,0.32h0Zm-2.38-.73,0.05-.18,0.44-.21a6.53,6.53,0,0,1,.3-0.66c0.07-.1.08-0.11,0.11-0.11l0,0.06h0a0.46,0.46,0,0,0,.15-0.19h0a4.54,4.54,0,0,1-.07-0.66h0a4.93,4.93,0,0,0,.07.67,0.34,0.34,0,0,1-.16.2l0-.06h0a0.22,0.22,0,0,0-.09.11c-0.13.24-.3,0.67-0.3,0.67l-0.44.21-0.06.17h0Zm2.25-.29-0.12-.2-0.09,0-0.14-.21-0.23-.1-0.14-.32-0.13-.1-0.26,0v0l0.27,0,0.14,0.11,0.14,0.32,0.23,0.1,0.14,0.21,0.09,0,0.11,0.21h0Z" transform="translate(-951.46 -952.31)"/>
      <path class="t" d="M986.48,972.53a0.26,0.26,0,1,1-.26-0.28,0.27,0.27,0,0,1,.26.28h0Z" transform="translate(-951.46 -952.31)"/>
      <path class="u" d="M986.22,972.84a0.31,0.31,0,1,1,.3-0.31,0.31,0.31,0,0,1-.3.31h0Zm0-.55a0.24,0.24,0,1,0,.23.24,0.24,0.24,0,0,0-.23-0.24h0Z" transform="translate(-951.46 -952.31)"/>
      <path class="t" d="M987.23,970.51a0.23,0.23,0,1,1-.23-0.24,0.24,0.24,0,0,1,.23.24h0Z" transform="translate(-951.46 -952.31)"/>
      <path class="u" d="M987,970.79a0.28,0.28,0,1,1,.27-0.28,0.27,0.27,0,0,1-.27.28h0Zm0-.49a0.21,0.21,0,1,0,.2.21,0.2,0.2,0,0,0-.2-0.21h0Z" transform="translate(-951.46 -952.31)"/>
      <path class="t" d="M986.5,967.89a0.23,0.23,0,1,1-.23-0.24,0.24,0.24,0,0,1,.23.24h0Z" transform="translate(-951.46 -952.31)"/>
      <path class="u" d="M986.27,968.17a0.28,0.28,0,1,1,.27-0.28,0.27,0.27,0,0,1-.27.28h0Zm0-.49a0.21,0.21,0,1,0,.2.21,0.2,0.2,0,0,0-.2-0.21h0Z" transform="translate(-951.46 -952.31)"/>
      <path class="v" d="M978.44,971.93v-1l-0.1-.09v-0.25l0.18,0,0-1.16-0.12-.07,0-.19a0.19,0.19,0,0,0,.13,0s0-.23,0-0.23a0.11,0.11,0,0,1-.08-0.05,0.37,0.37,0,0,1,.1-0.12,0.47,0.47,0,0,1-.07-0.09,1.61,1.61,0,0,1-.05-0.19l0.05-.19,0-.1-0.08-.16,0.12-.12s0-.16,0-0.19a0.7,0.7,0,0,1,.1-0.19l0.15-.21,0.28-.07,0.33,0.05,0.18,0.12,0,0.31a0.81,0.81,0,0,1,0,.19l-0.15.07a0.64,0.64,0,0,1-.18,0,1.29,1.29,0,0,0,0,.21v0.21l0,0.26a0.45,0.45,0,0,1,0,.14l0,0.07,0,0.26,0.27,0.07,0,0.16-0.18,0,0,1.07,0.27,0.05v0.3l-0.12.07,0,1.07h-0.93Z" transform="translate(-951.46 -952.31)"/>
      <path class="w" d="M979.41,972h-1l0-1.07-0.09-.06v-0.27l0.21-.05V969.4l-0.1,0,0-.22a0.31,0.31,0,0,1,.15,0,0.86,0.86,0,0,1,0-.21s-0.08,0-.08-0.05a0.25,0.25,0,0,1,.09-0.13,0.14,0.14,0,0,1-.06-0.06,1.4,1.4,0,0,1-.05-0.2l0.05-.21L978.4,968l0.12-.16h0a0.42,0.42,0,0,1,0-.17,0.68,0.68,0,0,1,.11-0.22l0.15-.21,0.3-.09,0.35,0.05,0.2,0.13,0,0.34c0,0.23-.06.23-0.08,0.23l-0.13.07h-0.19a0.33,0.33,0,0,1,.08.17v0.22l0,0.27a0.23,0.23,0,0,1,0,.16l0,0.07v0.25l0.24,0v0.19l-0.21,0,0.06,1,0.24,0,0,0.33-0.13.1,0,1.07h0Zm-1-2.8,0.06,0.16,0.1,0,0,1.19-0.21.05,0,0.21,0.09,0.06v1.06l0.87,0,0-1,0.13-.1,0-.27-0.24,0-0.06-1.1,0.21-.05V969.2l-0.24,0v-0.3l0.06-.09a0.9,0.9,0,0,0,0-.12l0-.47a0.32,0.32,0,0,1,0-.23l0,0,0,0h0.13a0.43,0.43,0,0,1,.15-0.07,0.37,0.37,0,0,1,0-.16l0-.31-0.17-.1-0.32,0-0.27.07a1.8,1.8,0,0,1-.13.2,0.84,0.84,0,0,0-.09.17s0,0.12,0,.18l-0.13.15,0.09,0.12,0,0.11-0.05.21s0,0.15,0,.17l0.06,0.08c0,0.09-.09.13-0.09,0.15h0l0.05,0s0,0.19,0,.22v0h-0.06a0.44,0.44,0,0,1-.13,0h0Z" transform="translate(-951.46 -952.31)"/>
      <path class="v" d="M982.5,972v-1l-0.1-.09v-0.25l0.18,0,0-1.15-0.12-.07,0-.19a0.18,0.18,0,0,0,.13,0s0-.23,0-0.23a0.11,0.11,0,0,1-.08-0.05,0.38,0.38,0,0,1,.1-0.12,0.47,0.47,0,0,1-.07-0.09,1.67,1.67,0,0,1,0-.19l0-.19,0-.1-0.08-.16,0.12-.12s0-.16,0-0.19a0.69,0.69,0,0,1,.1-0.19l0.15-.21,0.28-.07,0.33,0.05,0.18,0.12,0,0.32a0.81,0.81,0,0,1,0,.19l-0.15.07a0.64,0.64,0,0,1-.18,0,1.3,1.3,0,0,0,.05.21v0.21l0,0.26a0.44,0.44,0,0,1,0,.14l0,0.07,0,0.26,0.27,0.07,0,0.16-0.18,0,0,1.07,0.27,0.05v0.3l-0.12.07,0,1.07H982.5Z" transform="translate(-951.46 -952.31)"/>
      <path class="w" d="M983.47,972h-1l0-1.07-0.09-.06v-0.27l0.21-.05v-1.12l-0.1,0,0-.22a0.33,0.33,0,0,1,.15,0,0.92,0.92,0,0,1,0-.21s-0.08,0-.08-0.05a0.26,0.26,0,0,1,.09-0.13,0.12,0.12,0,0,1-.06-0.06,1.63,1.63,0,0,1-.05-0.2l0.05-.21-0.12-.24,0.12-.16h0a0.44,0.44,0,0,1,0-.17,0.66,0.66,0,0,1,.11-0.22l0.15-.21,0.3-.08,0.35,0.05,0.2,0.13,0,0.34c0,0.23-.06.23-0.08,0.23l-0.13.07h-0.19a0.35,0.35,0,0,1,.08.17v0.22l0,0.26a0.22,0.22,0,0,1,0,.16l0,0.06v0.25l0.24,0v0.2l-0.22,0,0.07,1,0.24,0,0,0.33-0.13.1,0,1.07h0Zm-1-2.8,0.06,0.16,0.1,0,0,1.19-0.21.05,0,0.21,0.09,0.06V972l0.87,0,0-1,0.13-.1,0-.27-0.24,0-0.06-1.1,0.21-.05v-0.12l-0.24,0v-0.3l0.06-.09a0.58,0.58,0,0,0,0-.12l0-.47a0.32,0.32,0,0,1,0-.23l0,0,0,0h0.13a0.43,0.43,0,0,1,.15-0.07,0.36,0.36,0,0,1,0-.16l0-.3-0.17-.1-0.32,0-0.27.07a1.81,1.81,0,0,1-.14.2,0.84,0.84,0,0,0-.09.17s0,0.13,0,.19l-0.13.15,0.09,0.12,0,0.11,0,0.21s0,0.14,0,.17l0.06,0.08c0,0.09-.09.13-0.09,0.15h0l0,0s0,0.19,0,.22v0h-0.06a0.42,0.42,0,0,1-.12,0h0Z" transform="translate(-951.46 -952.31)"/>
      <path class="v" d="M980.45,972v-1l-0.1-.09v-0.25l0.18,0,0-1.15-0.12-.07,0-.19a0.19,0.19,0,0,0,.13,0s0-.23,0-0.23a0.12,0.12,0,0,1-.09-0.05,0.38,0.38,0,0,1,.1-0.12,0.47,0.47,0,0,1-.07-0.09,1.77,1.77,0,0,1,0-.19l0-.19,0-.11-0.08-.16,0.12-.12s0-.16,0-0.19a0.7,0.7,0,0,1,.1-0.19l0.15-.21,0.28-.07,0.34,0.05,0.18,0.12,0,0.32a0.77,0.77,0,0,1-.05.19l-0.15.07a0.65,0.65,0,0,1-.18,0,1.29,1.29,0,0,0,0,.21v0.21l0,0.26a0.46,0.46,0,0,1,0,.14l0,0.07,0,0.26,0.27,0.07,0,0.16-0.18,0,0,1.07,0.27,0.05v0.3l-0.12.07,0,1.07h-0.94Z" transform="translate(-951.46 -952.31)"/>
      <path class="w" d="M981.42,972h-1l0-1.07-0.09-.06v-0.27l0.21-.05v-1.12l-0.1,0,0-.22a0.3,0.3,0,0,1,.15,0,1,1,0,0,1,0-.21s-0.09,0-.09,0a0.26,0.26,0,0,1,.09-0.13,0.13,0.13,0,0,1-.06-0.06,1.84,1.84,0,0,1-.05-0.2l0.05-.21-0.11-.24,0.12-.16h0a0.44,0.44,0,0,1,0-.17,0.66,0.66,0,0,1,.11-0.22l0.15-.21,0.3-.09,0.35,0.05,0.2,0.13,0,0.34c0,0.23-.06.23-0.09,0.23l-0.13.06h-0.19a0.34,0.34,0,0,1,.08.17v0.22l0,0.27a0.23,0.23,0,0,1,0,.16l0,0.07v0.24l0.24,0v0.2l-0.21,0,0.06,1,0.24,0,0,0.33-0.13.1,0,1.07h0Zm-1-2.8,0.06,0.16,0.1,0,0,1.19-0.21.05,0,0.21,0.09,0.06V972l0.87,0,0-1,0.13-.1,0-.27-0.24,0-0.06-1.1,0.21-.05v-0.13l-0.24,0v-0.3l0.06-.09a0.93,0.93,0,0,0,0-.12l0-.47a0.32,0.32,0,0,1,0-.23l0,0,0,0h0.13a0.42,0.42,0,0,1,.15-0.07,0.4,0.4,0,0,1,0-.16l0-.3-0.17-.1-0.32,0-0.27.07a1.8,1.8,0,0,1-.13.2,0.75,0.75,0,0,0-.09.17s0,0.13,0,.19l-0.12.15,0.09,0.12,0,0.11,0,0.21s0,0.14,0,.17l0.06,0.08c0,0.09-.09.13-0.09,0.15h0l0.05,0s0,0.19,0,.22v0h-0.06a0.54,0.54,0,0,1-.13,0h0Z" transform="translate(-951.46 -952.31)"/>
      <polygon class="x" points="27.23 19.61 27.23 18.8 27.67 18.8 27.67 19.64 27.23 19.61"/>
      <polygon class="x" points="29.28 19.68 29.3 18.85 29.68 18.85 29.68 19.66 29.28 19.68"/>
      <polygon class="x" points="31.3 19.66 31.27 18.88 31.69 18.86 31.69 19.68 31.3 19.66"/>
      <rect x="27.34" y="17.2" width="0.25" height="0.42"/>
      <rect x="29.31" y="17.22" width="0.34" height="0.41"/>
      <rect x="31.33" y="17.25" width="0.3" height="0.39"/>
      <path class="y" d="M981.11,968a0.35,0.35,0,0,1-.2-0.25l0-.09,0,0.06a0.55,0.55,0,0,0,.18.27h0Zm-1.92,0a1,1,0,0,1-.29-0.3l0.05,0a3.76,3.76,0,0,0,.28.31,0,0,0,0,1,0,0h0Zm4,0a0.33,0.33,0,0,1-.22-0.24l0.06,0a0.46,0.46,0,0,0,.18.26h0Z" transform="translate(-951.46 -952.31)"/>
      <path class="z" d="M978.64,966.78c0.78-.26-0.18-0.79-0.34,0a1.29,1.29,0,0,1-.83.15c-1.32,2.26-.34,5.9,3.52,9.67-6.92-6.18-4.11-10.74-2.19-10.57,1,0.08.52,1.44-.16,0.75h0Z" transform="translate(-951.46 -952.31)"/>
      <path class="m" d="M982,967a0.92,0.92,0,0,1-.26-0.79l0.14,0a0.84,0.84,0,0,0,.19.65L982,967h0Zm-1.14-.16,0-.74H981l0,0.74h-0.14Zm-0.78-.06a1.17,1.17,0,0,1,0-.21,0.71,0.71,0,0,1-.11.21l-0.11-.09a0.78,0.78,0,0,0,.13-0.47h0.09a2.11,2.11,0,0,1,.08-0.38l0.13,0a1.64,1.64,0,0,0,0,.86l-0.13,0h0Zm1.39,0,0-.09a0.75,0.75,0,0,0,0-.64l0.1-.1a0.84,0.84,0,0,1,.06.77l-0.15,0h0Zm-0.37-.18-0.1-.1a1.13,1.13,0,0,1,.42-0.22l0,0.13a1,1,0,0,0-.36.19h0Zm-0.48,0a0.28,0.28,0,0,0-.29-0.08l-0.11-.05,0.09-.08a0.4,0.4,0,0,1,.44.15l-0.12.07h0Zm-1.07-.42h-0.14a0.85,0.85,0,0,0-.59-0.4l0-.13a0.92,0.92,0,0,1,.69.53h0Zm2.19,0s0-.12.31-0.43l0.09,0.1a1.27,1.27,0,0,0-.27.3l-0.13,0h0ZM980,966a1.46,1.46,0,0,0-.51-0.36l0.06-.12a1.56,1.56,0,0,1,.57.41L980,966h0Zm2.37,0-0.12-.08a1.38,1.38,0,0,1,.73-0.29l0,0.14a1.25,1.25,0,0,0-.64.23h0Z" transform="translate(-951.46 -952.31)"/>
      <path class="aa" d="M981.58,966.62l0,0a0.53,0.53,0,0,1-.26.17,0.53,0.53,0,0,1-.36,0l0,0,0,0a0.48,0.48,0,0,1-.36.09,0.57,0.57,0,0,1-.33-0.21l0,0,0,0a6.68,6.68,0,0,1-.94.35,0.89,0.89,0,0,1-.69-0.07l0,0,0,0a3.24,3.24,0,0,0-1,2.13,5.92,5.92,0,0,0,.39,2.55,13.55,13.55,0,0,0,3.11,4.72l0,0,0,0a12.62,12.62,0,0,0,3.14-4.66c0.63-1.76.64-3.55-.61-4.8l-0.07-.07,0,0.09a0.33,0.33,0,0,1-.23.17,1.1,1.1,0,0,1-.42,0,3.26,3.26,0,0,1-1.08-.43Zm0,0.17a3.31,3.31,0,0,0,1.08.42,1.2,1.2,0,0,0,.48,0,0.52,0.52,0,0,0,.26-0.17c1.16,1.2,1.15,2.89.53,4.59a12.51,12.51,0,0,1-3.06,4.55,13.39,13.39,0,0,1-3-4.62,5.8,5.8,0,0,1-.39-2.49,3.08,3.08,0,0,1,1-2,1.07,1.07,0,0,0,.74.06,6.43,6.43,0,0,0,.92-0.34,0.69,0.69,0,0,0,.37.22,0.62,0.62,0,0,0,.43-0.1,0.67,0.67,0,0,0,.42,0,0.63,0.63,0,0,0,.28-0.18h0Z" transform="translate(-951.46 -952.31)"/>
      <path class="z" d="M983.25,966.72c-0.78-.26.18-0.79,0.34,0a1.29,1.29,0,0,0,.83.15c1.32,2.26.34,5.9-3.52,9.67,6.92-6.18,4.11-10.74,2.19-10.57-1,.07-0.52,1.44.16,0.75h0Z" transform="translate(-951.46 -952.31)"/>
      <path class="ab" d="M977.61,975.19a3.73,3.73,0,0,0-4.08-.71c0.49,0.22,1,.3,1.46.54l2.61,0.17h0Z" transform="translate(-951.46 -952.31)"/>
      <path class="ac" d="M977.61,975.26h0L975,975.1a4.61,4.61,0,0,0-.8-0.3,5.6,5.6,0,0,1-.68-0.24,0.07,0.07,0,0,1,0-.06,0.07,0.07,0,0,1,0-.06,3.82,3.82,0,0,1,4.15.72,0.07,0.07,0,0,1,0,.08,0.07,0.07,0,0,1-.06,0h0Zm-3.88-.77,0.5,0.17a4.52,4.52,0,0,1,.8.3l2.38,0.15a3.61,3.61,0,0,0-3.69-.62h0Z" transform="translate(-951.46 -952.31)"/>
      <path class="ad" d="M977.19,975.1h0a4.85,4.85,0,0,0-2.33-.45,0.07,0.07,0,0,1-.07-0.07,0.07,0.07,0,0,1,.07-0.07,5.09,5.09,0,0,1,2.37.46h0a0.09,0.09,0,0,1,0,.1,0.07,0.07,0,0,1-.06,0h0Z" transform="translate(-951.46 -952.31)"/>
      <path class="ab" d="M977.65,975.3c-0.57.12-1.35,0.69-1.58,0.66a9.45,9.45,0,0,1-1.8-.54,2.32,2.32,0,0,0-.75,0c2.13-1.06,2.86-.91,4.14-0.12h0Z" transform="translate(-951.46 -952.31)"/>
      <path class="ac" d="M976.09,976h0a6.2,6.2,0,0,1-1.35-.38l-0.46-.16a1.21,1.21,0,0,0-.47,0l-0.26,0a0.07,0.07,0,0,1-.07-0.05,0.07,0.07,0,0,1,0-.08c2.18-1.08,2.94-.9,4.21-0.12a0.07,0.07,0,0,1,0,.07,0.07,0.07,0,0,1-.05.05,4.15,4.15,0,0,0-.94.4,1.92,1.92,0,0,1-.64.27h0Zm-2.07-.72a0.86,0.86,0,0,1,.27,0l0.47,0.16a5.92,5.92,0,0,0,1.32.37h0a2,2,0,0,0,.58-0.25,5.51,5.51,0,0,1,.82-0.37c-1.11-.66-1.8-0.79-3.6.05H974Z" transform="translate(-951.46 -952.31)"/>
      <path class="ab" d="M976.25,973.74s-0.71.1-1,.12a2.38,2.38,0,0,1-1.29-.89,1.25,1.25,0,0,0-.87-0.27,2.86,2.86,0,0,1,3.19,1h0Z" transform="translate(-951.46 -952.31)"/>
      <path class="ac" d="M975.22,973.93h0a2.43,2.43,0,0,1-1.33-.92,1.11,1.11,0,0,0-.76-0.25h0a0.08,0.08,0,0,1-.05-0.05s0-.07,0-0.07a2.91,2.91,0,0,1,3.26,1.06,0.07,0.07,0,0,1,0,.07,0.07,0.07,0,0,1-.05,0s-0.72.1-1,.13h0Zm-1.66-1.25a0.82,0.82,0,0,1,.43.24,2.37,2.37,0,0,0,1.23.87c0.24,0,.69-0.08.9-0.11a2.65,2.65,0,0,0-2.56-1h0Z" transform="translate(-951.46 -952.31)"/>
      <path class="ab" d="M975.28,972.29a3,3,0,0,1-2.46-2.05,0.81,0.81,0,0,1,.3.29c1.59,0.42,1.7.76,2.16,1.76h0Z" transform="translate(-951.46 -952.31)"/>
      <path class="ac" d="M975.28,972.36h0a3.07,3.07,0,0,1-2.52-2.11,0.07,0.07,0,0,1,.13,0,0.86,0.86,0,0,1,.3.26c1.52,0.41,1.68.76,2.11,1.69l0,0.1a0.07,0.07,0,0,1,0,.07,0.07,0.07,0,0,1-.06,0h0ZM973,970.41a3,3,0,0,0,2.21,1.79c-0.42-.91-0.56-1.22-2.06-1.62a0.07,0.07,0,0,1,0-.05,0.07,0.07,0,0,1,0-.07,0.34,0.34,0,0,1-.12-0.06h0Z" transform="translate(-951.46 -952.31)"/>
      <path class="ab" d="M976.9,974a2.53,2.53,0,0,0-.24-2.07,4,4,0,0,1-.67-1.25c-0.07,1.21-.32,2.21.91,3.32h0Z" transform="translate(-951.46 -952.31)"/>
      <path class="ac" d="M976.9,974.1l0,0a3,3,0,0,1-1-3c0-.13,0-0.27,0-0.41a0.07,0.07,0,0,1,.13,0l0.07,0.16a3.5,3.5,0,0,0,.6,1.07A2.62,2.62,0,0,1,977,974a0.07,0.07,0,0,1,0,.05h0ZM976,971s0,0.08,0,.12a2.9,2.9,0,0,0,.82,2.77,2.34,2.34,0,0,0-.24-1.89,3.33,3.33,0,0,1-.57-1h0Z" transform="translate(-951.46 -952.31)"/>
      <path class="ab" d="M975.38,971.48a4.45,4.45,0,0,0,.73-3.24,6,6,0,0,1-.28.75c-1.07.71-.59,1.81-0.46,2.49h0Z" transform="translate(-951.46 -952.31)"/>
      <path class="ac" d="M975.38,971.55h0a0.07,0.07,0,0,1-.05-0.05c0-.1,0-0.2-0.07-0.3a1.82,1.82,0,0,1,.56-2.26s0.23-.61.25-0.7a0.06,0.06,0,0,1,.07-0.06,0.07,0.07,0,0,1,.07.06,4.55,4.55,0,0,1-.75,3.28,0.07,0.07,0,0,1-.06,0h0Zm0.69-2.94a0.92,0.92,0,0,1-.23.45,1.71,1.71,0,0,0-.46,2.1l0,0.14a4.15,4.15,0,0,0,.66-2.7h0Z" transform="translate(-951.46 -952.31)"/>
      <path class="ab" d="M974.74,966.16a4.89,4.89,0,0,1,.5,3.45,5.83,5.83,0,0,0-.28-0.75c-1.07-.71-0.36-2-0.22-2.7h0Z" transform="translate(-951.46 -952.31)"/>
      <path class="ac" d="M975.24,969.68a0.07,0.07,0,0,1-.07-0.06,6.66,6.66,0,0,0-.26-0.72c-0.89-.58-0.58-1.58-0.36-2.3,0.05-.17.1-0.32,0.13-0.45a0.07,0.07,0,0,1,.05-0.05,0.06,0.06,0,0,1,.07,0,4.79,4.79,0,0,1,.52,3.38v0.11a0.07,0.07,0,0,1-.07.06h0ZM975,968.8a1.22,1.22,0,0,1,.2.45,4.5,4.5,0,0,0-.43-2.91l-0.09.3c-0.22.72-.5,1.62,0.32,2.16h0Z" transform="translate(-951.46 -952.31)"/>
      <path class="ab" d="M975.34,967.87c1.74-.92,1.07-2.09,1.38-3a3.41,3.41,0,0,0-1.38,3h0Z" transform="translate(-951.46 -952.31)"/>
      <path class="ac" d="M975.34,967.94h0a0.07,0.07,0,0,1,0-.06,3.47,3.47,0,0,1,1.41-3,0.07,0.07,0,0,1,.08,0,0.07,0.07,0,0,1,0,.08,2.66,2.66,0,0,0-.11.82,2.16,2.16,0,0,1-1.31,2.2h0Zm1.26-2.87a3.28,3.28,0,0,0-1.19,2.68,2,2,0,0,0,1.13-2,3.87,3.87,0,0,1,.05-0.65h0Z" transform="translate(-951.46 -952.31)"/>
      <path class="ad" d="M975.06,969.06A0.07,0.07,0,0,1,975,969c0-.37-0.18-1.26-0.25-1.63l0-.17a0.07,0.07,0,0,1,.06-0.08,0.07,0.07,0,0,1,.08.06l0,0.17c0.06,0.38.22,1.27,0.25,1.65a0.07,0.07,0,0,1-.06.07h0Zm0.51-1.35h0a0.07,0.07,0,0,1,0-.09,9.59,9.59,0,0,1,.76-1.79,0.07,0.07,0,1,1,0,.14c0,0.06-.41,1.07-0.63,1.7a0.07,0.07,0,0,1-.07,0h0Z" transform="translate(-951.46 -952.31)"/>
      <path class="ab" d="M975.14,971c-1-.06-2-1.45-2.3-2.53a0.8,0.8,0,0,1,.3.29,3.39,3.39,0,0,1,2,2.24h0Z" transform="translate(-951.46 -952.31)"/>
      <path class="ac" d="M975.14,971.11h0c-1-.06-2.07-1.44-2.36-2.58a0.07,0.07,0,0,1,.13,0,0.77,0.77,0,0,1,.3.28,3.18,3.18,0,0,1,1.86,2L975.2,971a0.07,0.07,0,0,1,0,.07,0.07,0.07,0,0,1-.06,0h0ZM973,968.69A3.46,3.46,0,0,0,975,971l-0.08-.17a3.06,3.06,0,0,0-1.84-1.93,0.07,0.07,0,0,1,0-.05,0.07,0.07,0,0,1,0-.06,0.41,0.41,0,0,1-.12-0.06h0Z" transform="translate(-951.46 -952.31)"/>
      <path class="ab" d="M974.85,970.09a4.45,4.45,0,0,1-.73-3.24,6,6,0,0,0,.28.75c1.07,0.71.59,1.81,0.45,2.49h0Z" transform="translate(-951.46 -952.31)"/>
      <path class="ac" d="M974.85,970.16a0.07,0.07,0,0,1-.06,0,4.55,4.55,0,0,1-.74-3.28,0.07,0.07,0,0,1,.14,0,6.7,6.7,0,0,0,.26.72,1.81,1.81,0,0,1,.54,2.24c0,0.11-.05.21-0.07,0.31a0.07,0.07,0,0,1-.05.05h0Zm-0.69-2.94a4.14,4.14,0,0,0,.66,2.69l0-.15a1.69,1.69,0,0,0-.5-2.11h0a1.13,1.13,0,0,1-.19-0.43h0Z" transform="translate(-951.46 -952.31)"/>
      <path class="ab" d="M975.49,968.16c1.8-.84,1.25-1.71,1.78-2.63-1.21.94-1.76,1.59-1.78,2.63h0Z" transform="translate(-951.46 -952.31)"/>
      <path class="ac" d="M975.49,968.23h0a0.07,0.07,0,0,1,0-.06c0-1.1.62-1.77,1.81-2.69a0.07,0.07,0,0,1,.1.09,2.7,2.7,0,0,0-.28.83,2.22,2.22,0,0,1-1.53,1.83h0Zm1.59-2.46a3.16,3.16,0,0,0-1.52,2.28,2,2,0,0,0,1.35-1.69,3.91,3.91,0,0,1,.16-0.6h0Z" transform="translate(-951.46 -952.31)"/>
      <path class="ad" d="M975.57,968l0,0a0.07,0.07,0,0,1,0-.1,5,5,0,0,0,1-1.39,0.07,0.07,0,1,1,.13.05,5,5,0,0,1-1,1.43,0.06,0.06,0,0,1,0,0h0Z" transform="translate(-951.46 -952.31)"/>
      <path class="r" d="M982,978.53l0.88,0c-2.91-2.86-8.49-4.1-7.72-9.37-0.8,5.71,4.56,6.23,6.84,9.35h0Z" transform="translate(-951.46 -952.31)"/>
      <path class="s" d="M983,978.63l-1.06,0a12.4,12.4,0,0,0-3-2.55c-2.08-1.42-4.23-2.88-4-6.34h0c0-.17,0-0.35.06-0.53l0.14,0h0c0,0.18,0,.35-0.06.52-0.23,3.33,2.3,5,4.74,6.55a19.15,19.15,0,0,1,3,2.23l0.13,0.13h0Zm-7.31-5.81a9.61,9.61,0,0,0,3.33,3.12,11.74,11.74,0,0,1,3,2.56l0.38,0h0.26a20.35,20.35,0,0,0-2.86-2.09,12.33,12.33,0,0,1-4.09-3.57h0Z" transform="translate(-951.46 -952.31)"/>
      <path class="t" d="M975.6,968.05a0.28,0.28,0,1,1-.28-0.29,0.29,0.29,0,0,1,.28.29h0Z" transform="translate(-951.46 -952.31)"/>
      <path class="u" d="M975.32,968.38a0.33,0.33,0,1,1,.31-0.33,0.32,0.32,0,0,1-.31.33h0Zm0-.59a0.26,0.26,0,1,0,.24.26,0.25,0.25,0,0,0-.24-0.26h0Z" transform="translate(-951.46 -952.31)"/>
      <path class="t" d="M975.43,969.66a0.26,0.26,0,1,1-.26-0.28,0.27,0.27,0,0,1,.26.28h0Z" transform="translate(-951.46 -952.31)"/>
      <path class="u" d="M975.16,970a0.31,0.31,0,1,1,.3-0.31,0.31,0.31,0,0,1-.3.31h0Zm0-.55a0.24,0.24,0,1,0,.23.24,0.24,0.24,0,0,0-.23-0.24h0Z" transform="translate(-951.46 -952.31)"/>
      <path class="t" d="M975.68,972a0.23,0.23,0,1,1-.23-0.24,0.24,0.24,0,0,1,.23.24h0Z" transform="translate(-951.46 -952.31)"/>
      <path class="u" d="M975.44,972.24a0.28,0.28,0,1,1,.27-0.28,0.27,0.27,0,0,1-.27.28h0Zm0-.49a0.21,0.21,0,1,0,.2.21,0.2,0.2,0,0,0-.2-0.21h0Z" transform="translate(-951.46 -952.31)"/>
      <path class="t" d="M977.71,974.5a0.23,0.23,0,1,1-.23-0.25,0.24,0.24,0,0,1,.23.25h0Z" transform="translate(-951.46 -952.31)"/>
      <path class="u" d="M977.48,974.78a0.28,0.28,0,1,1,.27-0.28,0.28,0.28,0,0,1-.27.28h0Zm0-.49a0.21,0.21,0,1,0,.2.21,0.2,0.2,0,0,0-.2-0.21h0Z" transform="translate(-951.46 -952.31)"/>
      <path class="t" d="M978,975.23a0.23,0.23,0,1,1-.23-0.24,0.24,0.24,0,0,1,.23.24h0Z" transform="translate(-951.46 -952.31)"/>
      <path class="u" d="M977.77,975.51a0.28,0.28,0,1,1,.27-0.28,0.27,0.27,0,0,1-.27.28h0Zm0-.49a0.21,0.21,0,1,0,.2.21,0.2,0.2,0,0,0-.2-0.21h0Z" transform="translate(-951.46 -952.31)"/>
      <path class="v" d="M979,977.35a1.05,1.05,0,0,1-.31-0.4l-0.91-.1c0,0.18,0,.37,0,0.55l1.24,0h0Z" transform="translate(-951.46 -952.31)"/>
      <path d="M977.76,977.43v-0.58l0.5,0,0.46,0.05a1.33,1.33,0,0,0,.33.41l-1.29.11h0Zm0-.55,0,0.47,1.2,0a0.61,0.61,0,0,1-.34-0.35l-0.88-.08h0Z" transform="translate(-951.46 -952.31)"/>
      <path class="v" d="M972.34,976.71c0.53,0.1,1.33-.05,1.59.31s-1,.95-0.8,1.27a0.9,0.9,0,0,0,1.26,0c0.1-.24.19-0.67,0.24-0.79a1.7,1.7,0,0,1-.49-1.18,4.85,4.85,0,0,1,2.31-.15,1.15,1.15,0,0,1,0,.56,3.36,3.36,0,0,0-.44.89c0.78,0.29,1,0,1.68,0s1.32,0.24,1.49-.1c-0.12-.29-0.87-0.05-1.16-0.24a1,1,0,0,1-.36-0.3,0.88,0.88,0,0,1-.52-0.46c0.14-.7,1.1-0.59,1.26-0.7L981,976a0.57,0.57,0,0,1,.1,1.1c-0.61.26-2.42-.38-3.2,0.06a1.51,1.51,0,0,0-.64-0.46,2.73,2.73,0,0,1-.71,0c-0.12.22-.25,0.38-0.36,0.61-0.52-.24-1,0.19-1.58.06l-0.88.1-0.56-.05-0.86.26,0.61-.56-0.54-.41h0Z" transform="translate(-951.46 -952.31)"/>
      <path d="M973.68,978.59a0.74,0.74,0,0,1-.57-0.28,0.66,0.66,0,0,1,.39-0.62l0.2-.18h0l-0.57-.05-0.84.26a0,0,0,0,1,0,0,0,0,0,0,1,0,0l0.61-.57-0.54-.36a3.57,3.57,0,0,1,.61,0,1.33,1.33,0,0,1,1,.28,0.32,0.32,0,0,1-.08.43l0.64-.08-0.13-.17a1,1,0,0,1-.27-0.86,4.79,4.79,0,0,1,1.64-.26,2,2,0,0,1,.73.08,0.56,0.56,0,0,1,.06.39,0.72,0.72,0,0,0,0,.15h0.16a2,2,0,0,0,.5-0.05h0a0.42,0.42,0,0,1,0-.14,1,1,0,0,1,1-.68,0.91,0.91,0,0,0,.24-0.05l2.52,0.17h0a0.52,0.52,0,0,1,.48.46,0.61,0.61,0,0,1-.37.7,3.42,3.42,0,0,1-1.33,0,4.08,4.08,0,0,0-1.82,0l0.17,0.09a1,1,0,0,0,.49.08h0.12a0.56,0.56,0,0,1,.57.18,0.41,0.41,0,0,1-.43.24l-0.41,0a6.47,6.47,0,0,0-.69-0.05h0a2.55,2.55,0,0,0-.62.08,1.73,1.73,0,0,1-1.06-.05,0.66,0.66,0,0,1,.08-0.33,1.66,1.66,0,0,0-.81,0,1.9,1.9,0,0,1-.68.07l0,0.07-0.09.32a3.86,3.86,0,0,1-.16.51,1.6,1.6,0,0,1-.75.28h0Zm0.87-1.2-0.75.11a2.2,2.2,0,0,1-.25.24,0.71,0.71,0,0,0-.38.52,0.93,0.93,0,0,0,1.21,0c0-.12.09-0.31,0.14-0.48a2.53,2.53,0,0,1,.09-0.3,0.53,0.53,0,0,1-.06-0.1h0Zm1.94-.59a1.2,1.2,0,0,1-.11.21,1.67,1.67,0,0,0-.28.6,2.17,2.17,0,0,0,1,0,2.49,2.49,0,0,1,.59-0.08,6.68,6.68,0,0,1,.76.05,0.71,0.71,0,0,0,.76-0.13,0.65,0.65,0,0,0-.5-0.11l-0.12,0v0a1,1,0,0,1-.52-0.09,0.57,0.57,0,0,1-.21-0.14,0.1,0.1,0,0,1-.05-0.05l0-.05a1.12,1.12,0,0,0-.19-0.14,1,1,0,0,1-.26-0.15l-0.1,0a2.39,2.39,0,0,1-.68,0l0,0.06h0Zm-4.15-.06,0.56,0.35-0.5.52,0.71-.21h0l0.57,0h0.11c0.15-.17.19-0.29,0.11-0.39a1.3,1.3,0,0,0-1-.25,3.83,3.83,0,0,1-.6,0h0Zm2.29,0.62a3.4,3.4,0,0,0,.68-0.08,1.38,1.38,0,0,1,.85,0l0,0a0.93,0.93,0,0,1,.13-0.25c0.06-.1.12-0.19,0.18-0.3a0.51,0.51,0,0,1,0-.17,0.51,0.51,0,0,0,0-.34,2.58,2.58,0,0,0-.67-0.06,5,5,0,0,0-1.59.23,1,1,0,0,0,.28.78,2.23,2.23,0,0,1,.16.23h0Zm4-.44a9.37,9.37,0,0,1,1.07.09,3.4,3.4,0,0,0,1.3,0,0.53,0.53,0,0,0,.33-0.62,0.46,0.46,0,0,0-.4-0.4l-2.51-.18a0.66,0.66,0,0,1-.25.06,1,1,0,0,0-1,.61,0.34,0.34,0,0,0,.11.2l0.25,0.14a0.5,0.5,0,0,1,.15.09l0.11,0.12a2.62,2.62,0,0,1,.82-0.12h0Z" transform="translate(-951.46 -952.31)"/>
      <path class="v" d="M972.3,976.59a0.24,0.24,0,1,1-.24-0.25,0.24,0.24,0,0,1,.24.25h0Z" transform="translate(-951.46 -952.31)"/>
      <path d="M972.07,976.88a0.28,0.28,0,1,1,.27-0.28,0.28,0.28,0,0,1-.27.28h0Zm0-.5a0.21,0.21,0,1,0,.2.21,0.21,0.21,0,0,0-.2-0.21h0Z" transform="translate(-951.46 -952.31)"/>
      <path class="v" d="M972.24,977.82a0.24,0.24,0,1,1-.24-0.25,0.24,0.24,0,0,1,.24.25h0Z" transform="translate(-951.46 -952.31)"/>
      <path d="M972,978.1a0.28,0.28,0,1,1,.27-0.28,0.28,0.28,0,0,1-.27.28h0Zm0-.5a0.21,0.21,0,1,0,.2.21,0.21,0.21,0,0,0-.2-0.21h0Z" transform="translate(-951.46 -952.31)"/>
      <path class="v" d="M982.81,977.35a1.05,1.05,0,0,0,.31-0.4l0.91-.11c0,0.18,0,.37,0,0.55l-1.24,0h0Z" transform="translate(-951.46 -952.31)"/>
      <path d="M984.08,977.44l-1.28,0a2.65,2.65,0,0,0,.28-0.45l0.94-.13,0.05,0.62h0Zm-0.09-.58-0.87.14a0.83,0.83,0,0,1-.29.38l0.59,0,0.58,0v-0.51h0Z" transform="translate(-951.46 -952.31)"/>
      <path class="v" d="M989.5,976.71c-0.53.1-1.33-.05-1.59,0.31s1,0.95.79,1.27a0.9,0.9,0,0,1-1.26,0c-0.11-.24-0.19-0.67-0.25-0.79a1.7,1.7,0,0,0,.49-1.18,4.82,4.82,0,0,0-2.31-.15,1.16,1.16,0,0,0,0,.56,3.38,3.38,0,0,1,.44.89c-0.78.29-1,0-1.68,0s-1.32.24-1.49-.1c0.12-.29.87-0.05,1.16-0.24a1,1,0,0,0,.36-0.3,0.87,0.87,0,0,0,.52-0.46c-0.14-.7-1.1-0.59-1.26-0.7l-2.5.18a0.57,0.57,0,0,0-.1,1.1c0.61,0.26,2.42-.38,3.2.06a1.53,1.53,0,0,1,.64-0.46,2.64,2.64,0,0,0,.71,0c0.12,0.22.25,0.38,0.36,0.61,0.52-.24,1,0.19,1.57.06l0.88,0.1,0.56-.05,0.86,0.26-0.61-.56,0.54-.41h0Z" transform="translate(-951.46 -952.31)"/>
      <path d="M988.16,978.59a1.62,1.62,0,0,1-.74-0.26,3,3,0,0,1-.17-0.52,2.36,2.36,0,0,0-.09-0.29,0.51,0.51,0,0,1,0-.1,1.57,1.57,0,0,1-.68-0.07,1.28,1.28,0,0,0-.79,0,0.7,0.7,0,0,1,.08.28,1.44,1.44,0,0,1-1.08.09,2.49,2.49,0,0,0-.58-0.08,7,7,0,0,0-.75.05l-0.41,0a0.43,0.43,0,0,1-.43-0.2,0.51,0.51,0,0,1,.57-0.21h0.12a1,1,0,0,0,.48-0.08,0.49,0.49,0,0,0,.18-0.11,4.56,4.56,0,0,0-1.82,0,3.41,3.41,0,0,1-1.33,0,0.61,0.61,0,0,1-.37-0.7,0.52,0.52,0,0,1,.47-0.46l2.51-.18a1,1,0,0,0,.27.06,1,1,0,0,1,1,.67,0.43,0.43,0,0,1,0,.15,2.65,2.65,0,0,0,.68,0c0-.05,0-0.09,0-0.14a0.56,0.56,0,0,1,0-.38,1.77,1.77,0,0,1,.74-0.1,5.23,5.23,0,0,1,1.62.23,0.93,0.93,0,0,1-.25.89l-0.14.19,0.65,0.06a0.32,0.32,0,0,1-.08-0.43,1.33,1.33,0,0,1,1-.28,3.89,3.89,0,0,0,.58,0l-0.51.47,0.61,0.51a0,0,0,0,1,0,0,0,0,0,0,1,0,0l-0.86-.26-0.55.05h0l0.2,0.18a0.67,0.67,0,0,1,.4.61,0.75,0.75,0,0,1-.57.29h0Zm-0.9-1.18a0.3,0.3,0,0,1,0,.11,1.07,1.07,0,0,1,.09.27,3.85,3.85,0,0,0,.15.49,0.93,0.93,0,0,0,1.2,0,0.73,0.73,0,0,0-.39-0.52c-0.1-.09-0.2-0.17-0.28-0.26l-0.75-.08h0Zm-3.16.15a2.65,2.65,0,0,1,.64.08,1.64,1.64,0,0,0,1-.05,3.08,3.08,0,0,0-.3-0.56c-0.06-.1-0.12-0.2-0.16-0.28a2.37,2.37,0,0,1-.69,0l-0.09.05a0.84,0.84,0,0,1-.22.13,1.16,1.16,0,0,0-.21.14l-0.06.07a0.09,0.09,0,0,1,0,0,0.06,0.06,0,0,1,0,0,0.47,0.47,0,0,1-.2.13,1,1,0,0,1-.51.09h-0.12a0.54,0.54,0,0,0-.5.14,0.83,0.83,0,0,0,.76.1c0.2,0,.43,0,0.7-0.05h0Zm4.61-.16,0.72,0.21-0.5-.46,0.54-.47a1.13,1.13,0,0,1-.57.11,1.3,1.3,0,0,0-1,.25c-0.08.1,0,.22,0.13,0.4h0.09l0.56-.05h0Zm-2.67-.19a2.21,2.21,0,0,1,.49.08,1.74,1.74,0,0,0,.72.06,0.94,0.94,0,0,1,.14-0.21,0.9,0.9,0,0,0,.26-0.8,5.56,5.56,0,0,0-1.57-.2,2,2,0,0,0-.69.07,0.53,0.53,0,0,0,0,.33,0.73,0.73,0,0,1,0,.19l0.17,0.28c0.06,0.1.12,0.19,0.18,0.3a0.46,0.46,0,0,1,.32-0.09h0ZM980.88,976a0.46,0.46,0,0,0-.41.4,0.53,0.53,0,0,0,.33.63,3.41,3.41,0,0,0,1.3,0,4,4,0,0,1,1.87.05L984,977l0,0a0.51,0.51,0,0,1,.18-0.14l0.26-.14a0.34,0.34,0,0,0,.11-0.21,1,1,0,0,0-1-.6,0.74,0.74,0,0,1-.27-0.06l-2.48.19h0Z" transform="translate(-951.46 -952.31)"/>
      <path class="v" d="M989.54,976.6a0.24,0.24,0,1,0,.24-0.25,0.24,0.24,0,0,0-.24.25h0Z" transform="translate(-951.46 -952.31)"/>
      <path d="M989.77,976.88a0.28,0.28,0,1,1,.27-0.28,0.28,0.28,0,0,1-.27.28h0Zm0-.49a0.21,0.21,0,1,0,.2.21,0.21,0.21,0,0,0-.2-0.21h0Z" transform="translate(-951.46 -952.31)"/>
      <path class="v" d="M989.6,977.82a0.24,0.24,0,1,0,.24-0.25,0.24,0.24,0,0,0-.24.25h0Z" transform="translate(-951.46 -952.31)"/>
      <path d="M989.83,978.11a0.28,0.28,0,1,1,.27-0.28,0.28,0.28,0,0,1-.27.28h0Zm0-.49a0.21,0.21,0,1,0,.2.21,0.21,0.21,0,0,0-.2-0.21h0Z" transform="translate(-951.46 -952.31)"/>
      <path class="v" d="M980.91,976a3.36,3.36,0,0,0-.43,0L980.14,977a9.55,9.55,0,0,0,1,0c-0.31-.07-0.24-1.07-0.23-1.08h0Z" transform="translate(-951.46 -952.31)"/>
      <polygon points="27.26 24.43 27.26 23.7 27.39 23.7 27.39 24.32 27.7 24.32 27.7 24.43 27.26 24.43"/>
      <rect x="27.81" y="23.74" width="0.12" height="0.73"/>
      <path d="M979.81,976.83H979.6V976.1h0.2a0.27,0.27,0,0,1,.17,0,0.17,0.17,0,0,1,.06.14,0.15,0.15,0,0,1-.09.14,0.19,0.19,0,0,1,.13.2,0.2,0.2,0,0,1-.07.16,0.29,0.29,0,0,1-.19.06h0Zm-0.09-.63v0.18h0.06a0.1,0.1,0,0,0,.12-0.1c0-.06,0-0.08-0.11-0.08h-0.07Zm0,0.28v0.24h0.06a0.19,0.19,0,0,0,.12,0,0.11,0.11,0,0,0,0-.1,0.11,0.11,0,0,0,0-.09,0.19,0.19,0,0,0-.12,0h-0.06Z" transform="translate(-951.46 -952.31)"/>
      <polygon points="28.9 23.95 28.9 24.13 29.13 24.13 29.13 24.23 28.9 24.23 28.9 24.45 29.22 24.45 29.22 24.57 28.78 24.57 28.78 23.84 29.22 23.84 29.22 23.95 28.9 23.95"/>
      <path d="M981.25,976.89l-0.19-.3H981v0.31h-0.13v-0.73H981a0.22,0.22,0,0,1,.27.22,0.19,0.19,0,0,1,0,.12,0.2,0.2,0,0,1-.09.08l0.21,0.33h-0.14Zm-0.26-.62v0.2H981a0.22,0.22,0,0,0,.11,0,0.1,0.1,0,0,0,0-.09,0.09,0.09,0,0,0,0-.08l-0.12,0h0Z" transform="translate(-951.46 -952.31)"/>
      <polygon points="30.29 23.94 30.29 24.56 30.17 24.56 30.17 23.94 29.95 23.94 29.95 23.83 30.52 23.83 30.52 23.94 30.29 23.94"/>
      <path d="M982.45,976.78l-0.05-.15h-0.24l0,0.15H982l0.28-.74h0.05l0.28,0.74h-0.14Zm-0.17-.52-0.08.27h0.17Z" transform="translate(-951.46 -952.31)"/>
      <path d="M982.68,976.71l0-.12a0.24,0.24,0,0,0,.15.05c0.07,0,.11,0,0.11-0.08a0.12,0.12,0,0,0,0-.07,0.3,0.3,0,0,0-.11-0.08l-0.11-.07a0.19,0.19,0,0,1,0-.06,0.25,0.25,0,0,1,0-.08,0.19,0.19,0,0,1,.06-0.14,0.21,0.21,0,0,1,.15-0.06,0.26,0.26,0,0,1,.18,0l0,0.11a0.22,0.22,0,0,0-.14-0.05,0.09,0.09,0,0,0-.07,0,0.08,0.08,0,0,0,0,.06,0.19,0.19,0,0,0,.13.13l0.1,0.07a0.21,0.21,0,0,1,0,.07,0.24,0.24,0,0,1,0,.09,0.19,0.19,0,0,1-.07.15,0.27,0.27,0,0,1-.18.06,0.31,0.31,0,0,1-.18-0.05h0Z" transform="translate(-951.46 -952.31)"/>
      <path class="ad" d="M976.14,975.39a6.8,6.8,0,0,1-.82,0,0.07,0.07,0,0,1-.06-0.08,0.06,0.06,0,0,1,.08-0.06,11.42,11.42,0,0,0,1.83,0h0.12a0.07,0.07,0,0,1,.07.07,0.07,0.07,0,0,1-.07.07h-0.12c-0.26,0-.64,0-1,0h0Zm0.64-1.54a0.07,0.07,0,0,1-.07-0.06,6.16,6.16,0,0,0-.34-1.19,5.46,5.46,0,0,1-.2-0.59,0.07,0.07,0,0,1,.13,0,5.59,5.59,0,0,0,.19.58,6.16,6.16,0,0,1,.34,1.21,0.07,0.07,0,0,1-.06.08h0Zm-0.71-.13a4.91,4.91,0,0,1-1.76-.74,0.07,0.07,0,0,1,0-.1,0.07,0.07,0,0,1,.1,0,4.71,4.71,0,0,0,1.68.7,0.13,0.13,0,0,1,.09.09l-0.14,0h0.07l0,0.07h0Zm-1-1.57h0c-0.19-.14-0.33-0.26-0.47-0.38a4.27,4.27,0,0,0-1.18-.77,0.07,0.07,0,0,1,0-.09,0.07,0.07,0,0,1,.09,0,4.54,4.54,0,0,1,1.21.79c0.13,0.12.28,0.24,0.46,0.38a0.07,0.07,0,0,1,0,.1,0.07,0.07,0,0,1-.06,0h0Zm0.34-1h0a0.07,0.07,0,0,1-.06-0.07,2.42,2.42,0,0,1,.54-1.81,0.07,0.07,0,0,1,.1.1c-0.24.23-.41,0.49-0.49,1.72a0.07,0.07,0,0,1-.07.06h0Zm-0.61-.31s-1.11-1.22-1.45-1.62a0.07,0.07,0,1,1,.11-0.09c0.34,0.39,1.44,1.62,1.44,1.62l-0.1.09h0Zm0-1.24a0.07,0.07,0,0,1-.07-0.07,2.29,2.29,0,0,0-.39-1.38,0.07,0.07,0,0,1,0-.1,0.07,0.07,0,0,1,.1,0,2.35,2.35,0,0,1,.44,1.49,0.07,0.07,0,0,1-.07.07h0Z" transform="translate(-951.46 -952.31)"/>
    </g>
  </g>
</svg>
