<svg xmlns="http://www.w3.org/2000/svg" xmlns:xlink="http://www.w3.org/1999/xlink" viewBox="0 0 58.92 34.37">
  <defs>
    <style>
      .a {
        fill: none;
      }

      .b {
        clip-path: url(#a);
      }

      .c {
        fill: #ea0020;
      }

      .d {
        fill: #fff;
      }

      .e {
        fill: #f5cb27;
      }

      .f {
        clip-path: url(#d);
      }
    </style>
    <clipPath id="a" transform="translate(-457.75 -1009.91)">
      <rect class="a" x="457.75" y="1009.91" width="58.92" height="34.37"/>
    </clipPath>
    <clipPath id="d" transform="translate(-457.75 -1009.91)">
      <rect class="a" x="479.94" y="1019.9" width="14.38" height="14.38"/>
    </clipPath>
  </defs>
  <title>Sikkim</title>
  <g class="b">
    <g class="b">
      <rect class="c" width="58.92" height="34.37"/>
      <rect class="d" x="4.36" y="4.36" width="50.21" height="25.66"/>
      <g class="b">
        <path class="e" d="M487.79,1016.52a0.67,0.67,0,1,1-.67-0.67,0.67,0.67,0,0,1,.67.67h0Z" transform="translate(-457.75 -1009.91)"/>
        <path d="M487.12,1017.27a0.75,0.75,0,1,1,.75-0.75,0.75,0.75,0,0,1-.75.75h0Zm0-1.35a0.59,0.59,0,1,0,.6.6,0.6,0.6,0,0,0-.6-0.6h0Z" transform="translate(-457.75 -1009.91)"/>
        <path class="e" d="M481.15,1020.54a0.67,0.67,0,1,1-.67-0.67,0.67,0.67,0,0,1,.67.67h0Z" transform="translate(-457.75 -1009.91)"/>
        <path d="M480.48,1021.29a0.75,0.75,0,1,1,.75-0.75,0.75,0.75,0,0,1-.75.75h0Zm0-1.35a0.59,0.59,0,1,0,.59.59,0.6,0.6,0,0,0-.59-0.59h0Z" transform="translate(-457.75 -1009.91)"/>
        <path class="e" d="M488.5,1017.77a0.67,0.67,0,1,1-.67-0.67,0.67,0.67,0,0,1,.67.67h0Z" transform="translate(-457.75 -1009.91)"/>
        <path d="M487.82,1018.52a0.75,0.75,0,1,1,.75-0.75,0.75,0.75,0,0,1-.75.75h0Zm0-1.35a0.59,0.59,0,1,0,.6.6,0.6,0.6,0,0,0-.6-0.6h0Z" transform="translate(-457.75 -1009.91)"/>
        <path class="e" d="M487.16,1017.76a0.67,0.67,0,1,1-.67-0.67,0.67,0.67,0,0,1,.67.67h0Z" transform="translate(-457.75 -1009.91)"/>
        <path d="M486.48,1018.51a0.75,0.75,0,1,1,.75-0.75,0.75,0.75,0,0,1-.75.75h0Zm0-1.35a0.59,0.59,0,1,0,.6.59,0.6,0.6,0,0,0-.6-0.59h0Z" transform="translate(-457.75 -1009.91)"/>
        <path class="e" d="M494.55,1020.54a0.67,0.67,0,1,1-.67-0.67,0.67,0.67,0,0,1,.67.67h0Z" transform="translate(-457.75 -1009.91)"/>
        <path d="M493.87,1021.29a0.75,0.75,0,1,1,.75-0.75,0.75,0.75,0,0,1-.75.75h0Zm0-1.35a0.6,0.6,0,1,0,.6.6,0.6,0.6,0,0,0-.6-0.6h0Z" transform="translate(-457.75 -1009.91)"/>
        <path class="e" d="M497.16,1026.5a0.67,0.67,0,1,1-.67-0.67,0.68,0.68,0,0,1,.67.67h0Z" transform="translate(-457.75 -1009.91)"/>
        <path d="M496.49,1027.25a0.75,0.75,0,1,1,.75-0.75,0.75,0.75,0,0,1-.75.75h0Zm0-1.35a0.6,0.6,0,1,0,.6.6,0.59,0.59,0,0,0-.6-0.6h0Z" transform="translate(-457.75 -1009.91)"/>
        <path class="e" d="M497.15,1027.83a0.67,0.67,0,1,1-.67-0.67,0.67,0.67,0,0,1,.67.67h0Z" transform="translate(-457.75 -1009.91)"/>
        <path d="M496.47,1028.58a0.75,0.75,0,1,1,.75-0.75,0.75,0.75,0,0,1-.75.75h0Zm0-1.35a0.59,0.59,0,1,0,.6.6,0.6,0.6,0,0,0-.6-0.6h0Z" transform="translate(-457.75 -1009.91)"/>
        <path class="e" d="M498.36,1027.26a0.67,0.67,0,1,1-.67-0.67,0.68,0.68,0,0,1,.67.67h0Z" transform="translate(-457.75 -1009.91)"/>
        <path d="M497.68,1028a0.75,0.75,0,1,1,.75-0.75,0.75,0.75,0,0,1-.75.75h0Zm0-1.35a0.59,0.59,0,1,0,.6.59,0.6,0.6,0,0,0-.6-0.59h0Z" transform="translate(-457.75 -1009.91)"/>
        <path class="e" d="M494.44,1033.78a0.67,0.67,0,1,1-.67-0.67,0.67,0.67,0,0,1,.67.67h0Z" transform="translate(-457.75 -1009.91)"/>
        <path d="M493.76,1034.53a0.75,0.75,0,1,1,.75-0.75,0.75,0.75,0,0,1-.75.75h0Zm0-1.35a0.6,0.6,0,1,0,.6.6,0.6,0.6,0,0,0-.6-0.6h0Z" transform="translate(-457.75 -1009.91)"/>
        <path class="e" d="M487.15,1036.38a0.67,0.67,0,1,1-.67-0.67,0.67,0.67,0,0,1,.67.67h0Z" transform="translate(-457.75 -1009.91)"/>
        <path d="M486.48,1037.14a0.75,0.75,0,1,1,.75-0.75,0.75,0.75,0,0,1-.75.75h0Zm0-1.35a0.59,0.59,0,1,0,.59.59,0.6,0.6,0,0,0-.59-0.59h0Z" transform="translate(-457.75 -1009.91)"/>
        <path class="e" d="M488.55,1036.47a0.67,0.67,0,1,1-.67-0.67,0.67,0.67,0,0,1,.67.67h0Z" transform="translate(-457.75 -1009.91)"/>
        <path d="M487.88,1037.22a0.75,0.75,0,1,1,.75-0.75,0.75,0.75,0,0,1-.75.75h0Zm0-1.35a0.6,0.6,0,1,0,.6.6,0.6,0.6,0,0,0-.6-0.6h0Z" transform="translate(-457.75 -1009.91)"/>
        <path class="e" d="M487.83,1037.62a0.67,0.67,0,1,1-.67-0.67,0.67,0.67,0,0,1,.67.67h0Z" transform="translate(-457.75 -1009.91)"/>
        <path d="M487.15,1038.37a0.75,0.75,0,1,1,.75-0.75,0.75,0.75,0,0,1-.75.75h0Zm0-1.35a0.6,0.6,0,1,0,.6.6,0.6,0.6,0,0,0-.6-0.6h0Z" transform="translate(-457.75 -1009.91)"/>
        <path class="e" d="M481.19,1033.7a0.67,0.67,0,1,1-.67-0.67,0.67,0.67,0,0,1,.67.67h0Z" transform="translate(-457.75 -1009.91)"/>
        <path d="M480.52,1034.45a0.75,0.75,0,1,1,.75-0.75,0.75,0.75,0,0,1-.75.75h0Zm0-1.35a0.59,0.59,0,1,0,.6.59,0.59,0.59,0,0,0-.6-0.59h0Z" transform="translate(-457.75 -1009.91)"/>
        <path class="e" d="M478.56,1027.93a0.67,0.67,0,1,1-.67-0.67,0.67,0.67,0,0,1,.67.67h0Z" transform="translate(-457.75 -1009.91)"/>
        <path d="M477.88,1028.68a0.75,0.75,0,1,1,.75-0.75,0.75,0.75,0,0,1-.75.75h0Zm0-1.35a0.6,0.6,0,1,0,.59.6,0.6,0.6,0,0,0-.59-0.6h0Z" transform="translate(-457.75 -1009.91)"/>
        <path class="e" d="M478.59,1026.5a0.67,0.67,0,1,1-.67-0.67,0.67,0.67,0,0,1,.67.67h0Z" transform="translate(-457.75 -1009.91)"/>
        <path d="M477.91,1027.25a0.75,0.75,0,1,1,.75-0.75,0.75,0.75,0,0,1-.75.75h0Zm0-1.35a0.6,0.6,0,1,0,.6.6,0.6,0.6,0,0,0-.6-0.6h0Z" transform="translate(-457.75 -1009.91)"/>
        <path class="e" d="M477.38,1027.2a0.67,0.67,0,1,1-.67-0.67,0.67,0.67,0,0,1,.67.67h0Z" transform="translate(-457.75 -1009.91)"/>
        <path d="M476.71,1028a0.75,0.75,0,1,1,.75-0.75,0.75,0.75,0,0,1-.75.75h0Zm0-1.35a0.6,0.6,0,1,0,.59.6,0.6,0.6,0,0,0-.59-0.6h0Z" transform="translate(-457.75 -1009.91)"/>
        <path class="e" d="M495.82,1027.09a8.68,8.68,0,0,1-17.36,0h0a8.68,8.68,0,1,1,17.36,0h0Z" transform="translate(-457.75 -1009.91)"/>
        <path d="M487.14,1035.86h0a8.76,8.76,0,1,1,6.2-2.57,8.77,8.77,0,0,1-6.2,2.57h0Zm0-17.37a8.61,8.61,0,0,0,0,17.21v0a8.61,8.61,0,0,0,0-17.21h0Z" transform="translate(-457.75 -1009.91)"/>
        <path class="d" d="M493.84,1027a6.71,6.71,0,0,1-13.41.28h0a6.71,6.71,0,0,1,13.41-.29h0Z" transform="translate(-457.75 -1009.91)"/>
        <path d="M487.13,1033.88a6.82,6.82,0,0,1-6.78-6.64,6.78,6.78,0,0,1,6.64-6.93h0.15a6.82,6.82,0,0,1,6.78,6.64,6.79,6.79,0,0,1-6.64,6.93h-0.15Zm0-13.42H487a6.63,6.63,0,0,0-6.49,6.77,6.67,6.67,0,0,0,6.62,6.5h0.14a6.63,6.63,0,0,0,6.49-6.77,6.67,6.67,0,0,0-6.62-6.5h0Z" transform="translate(-457.75 -1009.91)"/>
        <path class="e" d="M491.1,1027a4,4,0,0,1-7.92.17h0a4,4,0,1,1,7.92-.17h0Z" transform="translate(-457.75 -1009.91)"/>
        <path d="M487.13,1031.14a4,4,0,0,1-.08-8.09h0.09a4.06,4.06,0,0,1,4,4,4,4,0,0,1-4,4.13h-0.09Zm0-7.93h-0.08a3.89,3.89,0,0,0,.08,7.77h0.09a3.88,3.88,0,0,0,3.8-4,3.9,3.9,0,0,0-3.88-3.81h0Z" transform="translate(-457.75 -1009.91)"/>
        <path class="e" d="M490.43,1027a3.3,3.3,0,1,1-6.59.14h0a3.3,3.3,0,0,1,6.59-.14h0Z" transform="translate(-457.75 -1009.91)"/>
        <path d="M487.13,1030.47a3.38,3.38,0,0,1-2.44-5.71,3.35,3.35,0,0,1,2.37-1h0.07a3.39,3.39,0,0,1,3.37,3.3,3.38,3.38,0,0,1-3.3,3.45h-0.07Zm0-6.6a3.24,3.24,0,0,0-2.33,1,3.22,3.22,0,0,0,2.32,5.45h0.07a3.22,3.22,0,0,0,3.15-3.29,3.24,3.24,0,0,0-3.22-3.15h0Z" transform="translate(-457.75 -1009.91)"/>
        <path class="d" d="M490.16,1027.09a3,3,0,0,1-6,0h0a3,3,0,0,1,6,0h0Z" transform="translate(-457.75 -1009.91)"/>
        <path d="M487.14,1030.16h0a3.06,3.06,0,1,1,3.06-3.07,3.06,3.06,0,0,1-3.06,3.07h0Zm0-6.05a3,3,0,0,0,0,6v0a3,3,0,0,0,0-6h0Z" transform="translate(-457.75 -1009.91)"/>
        <g class="f">
          <path class="d" d="M494.33,1027.09a7.19,7.19,0,1,1-7.19-7.19,7.19,7.19,0,0,1,7.19,7.19h0Z" transform="translate(-457.75 -1009.91)"/>
        </g>
        <path d="M487.14,1034.33a7.24,7.24,0,1,1,7.24-7.24,7.24,7.24,0,0,1-7.24,7.24h0Zm0-14.38a7.15,7.15,0,1,0,7.15,7.15,7.16,7.16,0,0,0-7.15-7.15h0Z" transform="translate(-457.75 -1009.91)"/>
        <polygon class="e" points="28.94 10.49 28.94 11.56 28.54 11.95 28.94 12.34 28.94 13.22 29.89 13.22 29.89 12.43 30.36 11.95 29.89 11.48 29.89 10.49 28.94 10.49"/>
        <path d="M487.69,1023.18h-1l-0.05-.93-0.38-.36,0.39-.46,0-1,1,0,0,1,0.46,0.44-0.47.54v0.81h0Zm-0.1-2.79-0.9,0,0,1-0.41.43,0.39,0.32,0,0.91,0.85,0v-0.75l0.49-.51-0.47-.4,0-1h0Z" transform="translate(-457.75 -1009.91)"/>
        <polygon points="29.44 13.14 29.35 13.14 29.35 10.45 29.44 10.45 29.44 13.14 29.44 13.14"/>
        <rect class="e" x="486.93" y="1021.68" width="0.44" height="0.44" transform="translate(-1038.86 -362.72) rotate(-45.18)"/>
        <path d="M487.16,1022.27l-0.34-.34,0.31-.37,0.37,0.31-0.34.4h0Zm0-.65-0.26.31,0.28,0.23,0.29-.29-0.31-.26h0Z" transform="translate(-457.75 -1009.91)"/>
        <polygon class="e" points="33.84 12.13 33.06 12.88 32.51 12.87 32.5 13.43 31.87 14.04 32.53 14.72 33.1 14.17 33.77 14.18 33.78 13.51 34.5 12.82 33.84 12.13"/>
        <path d="M490.28,1024.69l-0.7-.72,0.63-.68v-0.52l0.61,0,0.74-.73,0.73,0.68-0.72.76v0.63l-0.72,0-0.57.57h0Zm1.27-2.62-0.7.75h-0.59l0,0.51-0.64.64,0.63,0.58,0.54-.52h0.71l0-.62,0.73-.73-0.66-.62h0Z" transform="translate(-457.75 -1009.91)"/>
        <polygon points="32.23 14.43 32.16 14.36 34.15 12.4 34.22 12.47 32.23 14.43 32.23 14.43"/>
        <rect class="e" x="490.61" y="1023.2" width="0.44" height="0.44" transform="translate(-998.86 486.19) rotate(-88.99)"/>
        <path d="M491.09,1023.69h-0.48l0-.48,0.48,0,0,0.48v0h0Zm-0.07-.48-0.4,0,0,0.4,0.36,0v-0.41h0Z" transform="translate(-457.75 -1009.91)"/>
        <polygon class="e" points="36.1 16.77 35.02 16.75 34.64 16.35 34.24 16.74 33.36 16.72 33.35 17.67 34.14 17.69 34.6 18.17 35.09 17.7 36.08 17.72 36.1 16.77"/>
        <path d="M492.36,1028.15l-0.5-.52H491.1l0-1,0.93,0,0.37-.37,0.46,0.4h1l0,1-1,0-0.48.49h0Zm-0.46-.6,0.46,0.46,0.45-.43h1l0-.9-1,0-0.42-.41-0.33.39h-0.91l0,0.9,0.75,0h0Z" transform="translate(-457.75 -1009.91)"/>
        <polygon points="36.12 17.27 33.39 17.23 33.39 17.13 36.13 17.18 36.12 17.27 36.12 17.27"/>
        <polygon class="e" points="34.59 16.9 34.89 17.22 34.58 17.52 34.27 17.2 34.59 16.9"/>
        <path d="M492.33,1027.49l-0.34-.35,0.32-.36,0.37,0.32-0.35.39h0Zm0-.65-0.26.31,0.28,0.23,0.29-.28-0.31-.26h0Z" transform="translate(-457.75 -1009.91)"/>
        <polygon class="e" points="25.44 16.77 24.37 16.75 23.98 16.35 23.59 16.74 22.71 16.72 22.69 17.67 23.49 17.68 23.95 18.17 24.43 17.7 25.43 17.72 25.44 16.77"/>
        <path d="M481.71,1028.14l-0.5-.52h-0.76l0-1,0.93,0,0.36-.37,0.46,0.4h1l0,1-1,0-0.48.49h0Zm-0.46-.6,0.46,0.46,0.45-.44h1l0-.9-1,0-0.42-.41-0.33.39h-0.91l0,0.9,0.75,0h0Z" transform="translate(-457.75 -1009.91)"/>
        <polygon points="25.47 17.27 22.69 17.23 22.69 17.13 25.47 17.18 25.47 17.27 25.47 17.27"/>
        <rect class="e" x="481.46" y="1026.89" width="0.44" height="0.44" transform="translate(-1036.8 -385.1) rotate(-44.1)"/>
        <path d="M481.68,1027.49l-0.34-.35,0.32-.37,0.37,0.32-0.35.39h0Zm0-.66-0.26.31,0.28,0.23,0.29-.28-0.31-.26h0Z" transform="translate(-457.75 -1009.91)"/>
        <polygon class="e" points="29.02 21.14 29.02 22.21 28.62 22.61 29.02 23 29.02 23.87 29.97 23.87 29.97 23.08 30.44 22.61 29.97 22.14 29.97 21.14 29.02 21.14"/>
        <path d="M487.77,1033.83h-1l0-.93-0.38-.36,0.39-.46v-1l1-.05,0,1,0.46,0.44-0.48.54,0,0.81h0Zm-0.1-2.78-0.9,0,0,1-0.41.43,0.39,0.32v0.91l0.85,0V1033l0.49-.51-0.48-.4,0-1h0Z" transform="translate(-457.75 -1009.91)"/>
        <polygon points="29.52 23.88 29.42 23.88 29.42 21.1 29.52 21.1 29.52 23.88 29.52 23.88"/>
        <rect class="e" x="487.02" y="1032.33" width="0.44" height="0.44" transform="translate(-1045.17 -362.95) rotate(-45)"/>
        <path d="M487.24,1032.92l-0.34-.34,0.31-.37,0.37,0.31-0.34.4h0Zm0-.65-0.26.31,0.28,0.23,0.29-.29-0.31-.26h0Z" transform="translate(-457.75 -1009.91)"/>
        <polygon class="e" points="26.33 19.69 25.55 20.44 25 20.43 24.99 20.98 24.36 21.59 25.02 22.27 25.59 21.72 26.27 21.73 26.27 21.06 26.99 20.37 26.33 19.69"/>
        <path d="M482.78,1032.25l-0.7-.72,0.63-.68v-0.52l0.6,0,0.74-.73,0.73,0.69-0.72.76v0.63l-0.72,0-0.57.57h0Zm1.27-2.62-0.7.75h-0.59l0,0.51-0.65.64,0.63,0.58,0.54-.52H484l0-.62,0.73-.73-0.66-.61h0Z" transform="translate(-457.75 -1009.91)"/>
        <polygon points="24.73 21.99 24.65 21.92 26.64 19.96 26.71 20.03 24.73 21.99 24.73 21.99"/>
        <rect class="e" x="483.1" y="1030.76" width="0.44" height="0.44" transform="translate(-1011.65 490.87) rotate(-89.25)"/>
        <path d="M483.58,1031.25H483.1l0-.48,0.48,0,0,0.48v0h0Zm-0.07-.48-0.4,0,0,0.4,0.36,0v-0.41h0Z" transform="translate(-457.75 -1009.91)"/>
        <polygon class="e" points="24.29 12.77 25.04 13.54 25.03 14.09 25.59 14.1 26.2 14.73 26.88 14.07 26.33 13.5 26.34 12.83 25.67 12.82 24.98 12.11 24.29 12.77"/>
        <path d="M483.95,1024.71l-0.64-.67h-0.52l0-.61-0.73-.74,0.69-.73,0.76,0.71h0.64l0,0.72,0.54,0.54-0.72.77h0Zm-0.61-.75,0.61,0.61,0.65-.63-0.55-.5v-0.71l-0.62,0-0.73-.73-0.61.66,0.75,0.7V1024l0.51,0h0Z" transform="translate(-457.75 -1009.91)"/>
        <polygon points="26.5 14.46 24.56 12.46 24.63 12.39 26.57 14.4 26.5 14.46 26.5 14.46"/>
        <rect class="e" x="483.21" y="1023.21" width="0.44" height="0.44" transform="translate(-1004.08 483.33) rotate(-89.24)"/>
        <path d="M483.69,1023.7h-0.48l0-.48,0.48,0,0,0.48v0h0Zm-0.07-.48-0.4,0,0,0.4,0.36,0v-0.41h0Z" transform="translate(-457.75 -1009.91)"/>
        <polygon class="e" points="31.82 20.33 32.56 21.1 32.56 21.66 33.11 21.67 33.72 22.3 34.4 21.64 33.85 21.06 33.86 20.39 33.19 20.39 32.5 19.67 31.82 20.33"/>
        <path d="M491.47,1032.27l-0.64-.66h-0.52l0-.6-0.73-.74,0.69-.73,0.76,0.71h0.63l0,0.72,0.54,0.54-0.72.76h0Zm-0.61-.75,0.61,0.61,0.65-.63-0.55-.5v-0.71l-0.62,0-0.73-.73-0.62.66,0.75,0.7v0.59l0.51,0h0Z" transform="translate(-457.75 -1009.91)"/>
        <polygon points="33.98 22 32.12 20.05 32.16 19.95 32.12 19.99 32.19 19.98 34.05 21.93 33.98 22 33.98 22"/>
        <rect class="e" x="490.73" y="1030.77" width="0.44" height="0.44" transform="translate(-1006.31 493.75) rotate(-88.99)"/>
        <path d="M491.21,1031.26h-0.48l0-.48,0.48,0,0,0.48v0h0Zm-0.07-.48-0.4,0,0,0.4,0.36,0v-0.41h0Z" transform="translate(-457.75 -1009.91)"/>
        <path class="e" d="M487.26,1026.25a1.19,1.19,0,0,1,1-1,1.51,1.51,0,0,1,1.27.09,0.66,0.66,0,0,1,.34.5c0.13,0.17.19,0.66,0.07,0.46a5,5,0,0,0-.65-0.58,1,1,0,0,0-1.08,0,0.63,0.63,0,0,0-.38.4,0.36,0.36,0,0,0,.28.42,0.35,0.35,0,0,1,.16.59,0.7,0.7,0,0,1-.65-0.24,0.8,0.8,0,0,1-.34-0.53v-0.1Z" transform="translate(-457.75 -1009.91)"/>
        <path d="M488.1,1027.2a1,1,0,0,1-.5-0.25l-0.06,0a0.82,0.82,0,0,1-.36-0.56l0.12-.06a0.65,0.65,0,0,0,.3.55,0.66,0.66,0,0,0,.59.24,0.23,0.23,0,0,0,.08-0.26,0.29,0.29,0,0,0-.21-0.24,0.45,0.45,0,0,1-.29-0.21,0.33,0.33,0,0,1,0-.27,0.67,0.67,0,0,1,.41-0.43,1.07,1.07,0,0,1,1.12,0,5,5,0,0,1,.66.59,1.35,1.35,0,0,0-.14-0.4,0.64,0.64,0,0,0-.33-0.49,1.41,1.41,0,0,0-1.22-.08,1.14,1.14,0,0,0-.92,1h-0.1a1.24,1.24,0,0,1,1-1.08,1.5,1.5,0,0,1,1.3.1,0.7,0.7,0,0,1,.36.52,0.82,0.82,0,0,1,.13.54h0l-0.12,0a5,5,0,0,0-.64-0.57,1,1,0,0,0-1,0,0.58,0.58,0,0,0-.36.37,0.24,0.24,0,0,0,0,.2,0.35,0.35,0,0,0,.22.16,0.39,0.39,0,0,1,.29.32,0.31,0.31,0,0,1-.12.36,0.23,0.23,0,0,1-.15,0h0Z" transform="translate(-457.75 -1009.91)"/>
        <path class="e" d="M487.77,1027.48a1.18,1.18,0,0,1,.58,1.61,1.76,1.76,0,0,1-.54.86,2,2,0,0,1-1.17.06c-0.22-.09-0.14,0-0.22-0.09s0.18-.24.29-0.25a1.57,1.57,0,0,0,.83-0.08,1.61,1.61,0,0,0,.47-1,0.57,0.57,0,0,0-.41-0.58,1.17,1.17,0,0,1-.44.1,0.28,0.28,0,0,1-.06-0.43,0.72,0.72,0,0,1,.51-0.28,0.4,0.4,0,0,1,.17,0v0Z" transform="translate(-457.75 -1009.91)"/>
        <path d="M487.12,1030.12a1.61,1.61,0,0,1-.51-0.07,0.25,0.25,0,0,0-.14,0h0l-0.07-.08a0.21,0.21,0,0,1,0-.2,0.42,0.42,0,0,1,.3-0.13,1.41,1.41,0,0,1,.3,0,0.73,0.73,0,0,0,.5-0.08,1.56,1.56,0,0,0,.45-0.94,0.52,0.52,0,0,0-.37-0.53,0.24,0.24,0,0,0-.16.05,0.31,0.31,0,0,1-.29,0A0.29,0.29,0,0,1,487,1028a0.35,0.35,0,0,1,.08-0.29,0.77,0.77,0,0,1,.54-0.29,0.49,0.49,0,0,1,.19,0l0,0.09-0.15,0a0.67,0.67,0,0,0-.47.26,0.26,0.26,0,0,0-.06.21,0.2,0.2,0,0,0,.1.15,0.23,0.23,0,0,0,.21,0,0.45,0.45,0,0,1,.22-0.06,0.62,0.62,0,0,1,.45.63,1.65,1.65,0,0,1-.49,1,0.81,0.81,0,0,1-.57.09,1.53,1.53,0,0,0-.28,0,0.34,0.34,0,0,0-.23.09,0.11,0.11,0,0,0,0,.1,1.31,1.31,0,0,1,.19.05,1.92,1.92,0,0,0,1.13-.06,1.7,1.7,0,0,0,.52-0.83,1.43,1.43,0,0,0,0-1.05,0.9,0.9,0,0,0-.56-0.49l0-.09a1,1,0,0,1,.61.55,1.52,1.52,0,0,1,0,1.13,1.79,1.79,0,0,1-.56.88,1.64,1.64,0,0,1-.71.13h0Z" transform="translate(-457.75 -1009.91)"/>
        <path class="e" d="M486.63,1027.23a1.11,1.11,0,0,1-1.35.41,2.07,2.07,0,0,1-.94-0.71,1.1,1.1,0,0,1,0-.84,2.11,2.11,0,0,1,.29-0.62c0.15-.1.27,0.11,0.22,0.24s-0.18.41-.19,0.64a0.64,0.64,0,0,0,.23.57,1.38,1.38,0,0,0,.71.33,0.52,0.52,0,0,0,.54-0.36,0.48,0.48,0,0,1,0-.39,0.25,0.25,0,0,1,.37,0,0.59,0.59,0,0,1,.1.75h0Z" transform="translate(-457.75 -1009.91)"/>
        <path d="M485.7,1027.78a1.14,1.14,0,0,1-.44-0.09,2.14,2.14,0,0,1-1-.72,1.15,1.15,0,0,1,0-.88,2.14,2.14,0,0,1,.3-0.64,0.17,0.17,0,0,1,.22,0,0.28,0.28,0,0,1,.08.3,1,1,0,0,1-.09.32,0.84,0.84,0,0,0-.09.3,0.6,0.6,0,0,0,.22.53,1.32,1.32,0,0,0,.69.32h0a0.47,0.47,0,0,0,.48-0.32s0-.06,0-0.1a0.33,0.33,0,0,1,.06-0.32,0.31,0.31,0,0,1,.22-0.1,0.28,0.28,0,0,1,.21.09,0.64,0.64,0,0,1,.1.81l-0.08-.05a0.54,0.54,0,0,0-.09-0.69,0.17,0.17,0,0,0-.14-0.06,0.21,0.21,0,0,0-.16.07,0.25,0.25,0,0,0,0,.24,0.72,0.72,0,0,1,0,.13,0.62,0.62,0,0,1-.59.41,1.44,1.44,0,0,1-.74-0.34,0.69,0.69,0,0,1-.25-0.61,0.92,0.92,0,0,1,.1-0.34,0.84,0.84,0,0,0,.09-0.3,0.19,0.19,0,0,0,0-.2,0.07,0.07,0,0,0-.1,0,2.09,2.09,0,0,0-.27.6,1.05,1.05,0,0,0,0,.81,2,2,0,0,0,.91.69,1.05,1.05,0,0,0,1.29-.39l0.08,0a1.13,1.13,0,0,1-1,.52h0Z" transform="translate(-457.75 -1009.91)"/>
        <path class="e" d="M487.66,1027.19a0.48,0.48,0,0,1-1,0h0a0.48,0.48,0,0,1,1,0h0Z" transform="translate(-457.75 -1009.91)"/>
        <path d="M487.18,1027.71a0.52,0.52,0,1,1,.53-0.52,0.52,0.52,0,0,1-.53.52h0Zm0-.95a0.42,0.42,0,0,0-.3.13,0.41,0.41,0,0,0-.12.3,0.43,0.43,0,1,0,.43-0.43h0Z" transform="translate(-457.75 -1009.91)"/>
      </g>
    </g>
  </g>
</svg>
