<svg xmlns="http://www.w3.org/2000/svg" xmlns:xlink="http://www.w3.org/1999/xlink" viewBox="0 0 58.92 34.37">
  <defs>
    <style>
      .a {
        fill: none;
      }

      .b {
        clip-path: url(#a);
      }

      .c {
        fill: #fff;
      }

      .d {
        fill: #2534a4;
      }

      .e {
        fill: #bc0030;
      }
    </style>
    <clipPath id="a" transform="translate(-598.01 -1009.91)">
      <rect class="a" x="598.01" y="1009.91" width="58.92" height="34.37"/>
    </clipPath>
  </defs>
  <title>Slovakia</title>
  <g class="b">
    <rect class="c" width="58.92" height="34.37"/>
    <rect class="d" y="11.46" width="58.92" height="22.92"/>
    <rect class="e" y="22.92" width="58.92" height="11.46"/>
    <g class="b">
      <path class="c" d="M606.92,1018c-0.69.05-.5,0.89-0.58,1.37-0.24,3.29-.58,6.68.42,9.88a11.07,11.07,0,0,0,5,6.09,8.17,8.17,0,0,0,1.74.88,8.52,8.52,0,0,0,1.82-.93,11,11,0,0,0,4.89-6c1-3.25.66-6.7,0.41-10,0-.46,0-1.26-0.64-1.21h-13Z" transform="translate(-598.01 -1009.91)"/>
      <path class="e" d="M613.47,1018.5v17.18c-7.95-3.85-7.08-10.23-6.55-17.18h6.55Zm0,0v17.18c7.95-3.85,7.08-10.23,6.55-17.18h-6.55Z" transform="translate(-598.01 -1009.91)"/>
      <path class="c" d="M614.4,1023.21a13,13,0,0,1,2.51.32,3.07,3.07,0,0,1,0-2.08,13,13,0,0,1-2.51.32h-1.86a13,13,0,0,1-2.51-.32,3.07,3.07,0,0,1,0,2.08,13,13,0,0,1,2.51-.32h1.86Z" transform="translate(-598.01 -1009.91)"/>
      <path class="c" d="M615.12,1026.34a13,13,0,0,1,2.51.32,3.07,3.07,0,0,1,0-2.08,13.11,13.11,0,0,1-2.51.31h-3.3a13.11,13.11,0,0,1-2.51-.31,3.07,3.07,0,0,1,0,2.08,13,13,0,0,1,2.51-.32h3.3Z" transform="translate(-598.01 -1009.91)"/>
      <path class="c" d="M612.43,1019.16a13,13,0,0,1,.32,2.5v10.64h1.46v-10.64a12.84,12.84,0,0,1,.32-2.5,3.1,3.1,0,0,1-2.09,0" transform="translate(-598.01 -1009.91)"/>
      <path class="d" d="M610.17,1029.71a1.7,1.7,0,0,0-1.71,1.7,1.83,1.83,0,0,0,0,.21,10.12,10.12,0,0,0,1.15,1.4,1.76,1.76,0,0,0,.53.09,1.7,1.7,0,1,0,0-3.4" transform="translate(-598.01 -1009.91)"/>
      <path class="d" d="M613.47,1028.71a2.16,2.16,0,1,0,2.17,2.16,2.17,2.17,0,0,0-2.17-2.16" transform="translate(-598.01 -1009.91)"/>
      <path class="d" d="M616.77,1029.71a1.7,1.7,0,1,0,0,3.4,1.76,1.76,0,0,0,.53-0.09,9.82,9.82,0,0,0,1.16-1.4,1.41,1.41,0,0,0,0-.21,1.7,1.7,0,0,0-1.71-1.7" transform="translate(-598.01 -1009.91)"/>
      <path class="d" d="M608.76,1032a12.51,12.51,0,0,0,4.72,3.7,12.48,12.48,0,0,0,4.71-3.7h-9.43Z" transform="translate(-598.01 -1009.91)"/>
    </g>
  </g>
</svg>
