<svg xmlns="http://www.w3.org/2000/svg" xmlns:xlink="http://www.w3.org/1999/xlink" viewBox="0 0 58.92 34.37">
  <defs>
    <style>
      .a {
        fill: none;
      }

      .b {
        clip-path: url(#a);
      }

      .c {
        fill: #fff;
      }

      .d {
        fill: #ea0020;
      }

      .e {
        fill: #3555e2;
      }

      .f {
        fill: #f8e72a;
      }
    </style>
    <clipPath id="a" transform="translate(-668.7 -1009.91)">
      <rect class="a" x="668.7" y="1009.91" width="58.92" height="34.37"/>
    </clipPath>
  </defs>
  <title>Slovenia</title>
  <g class="b">
    <rect class="c" width="58.92" height="34.37"/>
    <rect class="d" y="22.92" width="58.92" height="11.46"/>
    <rect class="e" y="11.46" width="58.92" height="11.46"/>
    <g class="b">
      <path class="d" d="M681.73,1016.51l-0.32.15,0.33,5.2a5.85,5.85,0,0,0,4.16,5.23h0a5.85,5.85,0,0,0,4.16-5.23l0.33-5.2-0.31-.15h0l-0.34,5.32a5.53,5.53,0,0,1-3.83,4.92h0a5.53,5.53,0,0,1-3.83-4.92l-0.34-5.32h0" transform="translate(-668.7 -1009.91)"/>
      <path class="e" d="M690.07,1016.51a10.34,10.34,0,0,0-8.34,0l0.34,5.32a5.53,5.53,0,0,0,3.83,4.92h0a5.53,5.53,0,0,0,3.83-4.92" transform="translate(-668.7 -1009.91)"/>
      <polyline class="f" points="17.45 8.22 17.64 7.96 17.32 8 17.2 7.71 17.07 8 16.76 7.96 16.95 8.22 16.76 8.47 17.07 8.44 17.2 8.72 17.32 8.44 17.64 8.47"/>
      <polyline class="f" points="16.27 6.65 16.46 6.4 16.15 6.43 16.02 6.14 15.89 6.43 15.58 6.4 15.77 6.65 15.58 6.9 15.89 6.87 16.02 7.15 16.15 6.87 16.46 6.9"/>
      <polyline class="f" points="18.63 6.65 18.81 6.4 18.5 6.43 18.38 6.14 18.25 6.43 17.94 6.4 18.13 6.65 17.94 6.9 18.25 6.87 18.38 7.15 18.5 6.87 18.81 6.9"/>
      <path class="c" d="M689.26,1022.61l-1.68-2.24-0.67.9-1-2-1,2-0.67-.9-1.68,2.24a1.13,1.13,0,0,0,1.12,1.12,1.1,1.1,0,0,0,.56-0.15h0a1.32,1.32,0,0,1,.27-0.11,1.13,1.13,0,0,1,.85.11,1.12,1.12,0,0,0,.56.15h0a1.12,1.12,0,0,0,.56-0.15,1.12,1.12,0,0,1,.85-0.11,1.27,1.27,0,0,1,.27.11h0a1.12,1.12,0,0,0,1.68-1" transform="translate(-668.7 -1009.91)"/>
      <path class="c" d="M682.93,1023.83c0.08,0.15.16,0.3,0.25,0.45h0a1.12,1.12,0,0,0,.76.06,1,1,0,0,0,.27-0.11h0a1.13,1.13,0,0,1,.56-0.15h0a1.13,1.13,0,0,1,.56.15,1.11,1.11,0,0,0,.85.11,1,1,0,0,0,.27-0.11h0a1.12,1.12,0,0,1,.56-0.15h0a1.12,1.12,0,0,1,.56.15,1.11,1.11,0,0,0,.85.11l0.18-.06a4.6,4.6,0,0,0,.25-0.45h0l-0.16.08h0a1.14,1.14,0,0,1-.27.11,1.12,1.12,0,0,1-.85-0.11,1.12,1.12,0,0,0-.56-0.15h0a1.14,1.14,0,0,0-.56.15h0a1.11,1.11,0,0,1-1.12,0,1.13,1.13,0,0,0-.56-0.15h0a1.15,1.15,0,0,0-.56.15h0a1.14,1.14,0,0,1-.27.11,1.11,1.11,0,0,1-.85-0.11l-0.16-.08h0" transform="translate(-668.7 -1009.91)"/>
      <path class="c" d="M688.32,1024.69a4.91,4.91,0,0,1-.42.48,5.23,5.23,0,0,1-2,1.25h0a5.22,5.22,0,0,1-2-1.25,5.49,5.49,0,0,1-.42-0.48h0a1.12,1.12,0,0,0,.47,0,1.09,1.09,0,0,0,.27-0.11h0a1.13,1.13,0,0,1,.56-0.15h0a1.13,1.13,0,0,1,.56.15,1.11,1.11,0,0,0,.85.11,1.1,1.1,0,0,0,.27-0.11h0a1.12,1.12,0,0,1,.56-0.15h0a1.12,1.12,0,0,1,.56.15,1.12,1.12,0,0,0,.74.13h0" transform="translate(-668.7 -1009.91)"/>
    </g>
  </g>
</svg>
