<svg xmlns="http://www.w3.org/2000/svg" xmlns:xlink="http://www.w3.org/1999/xlink" viewBox="0 0 58.92 34.37">
  <defs>
    <style>
      .a {
        fill: none;
      }

      .b {
        clip-path: url(#a);
      }

      .c {
        fill: #ea0020;
      }

      .d {
        fill: #fff;
      }

      .e {
        fill: #459e14;
      }

      .f {
        fill: #48a514;
      }

      .g {
        fill: #49a014;
      }
    </style>
    <clipPath id="a" transform="translate(-880.77 -1009.91)">
      <rect class="a" x="880.77" y="1009.91" width="58.92" height="34.37"/>
    </clipPath>
  </defs>
  <title>Somaliland</title>
  <g class="b">
    <rect class="c" y="22.92" width="58.92" height="11.46"/>
    <rect class="d" y="11.46" width="58.92" height="11.46"/>
    <rect class="e" width="58.92" height="11.46"/>
    <g class="b">
      <path class="d" d="M897.68,1012.64c-0.06.8-.13,2.2,0.55,2.34s0.37-1.39.66-1.65c0.06-.13.16-0.13,0.17,0v1.24a0.59,0.59,0,0,0,.46.61,0.35,0.35,0,0,1,.44.2l0.1,2.15s0.5,0.14.52-1.21a12.54,12.54,0,0,1-.05-1.61c0-.15.2-0.16,0.33-0.09a0.68,0.68,0,0,0,.64.26,0.89,0.89,0,0,0,.82-0.77,3.31,3.31,0,0,0-.23-1.11c0-.07-0.1-0.24-0.07-0.31,0.09,0.14.23,0.13,0.26,0a1.12,1.12,0,0,0-.44-0.67,0.32,0.32,0,0,0-.54.2,1.79,1.79,0,0,0,.41,1.2,1.17,1.17,0,0,1,.1.6,0.32,0.32,0,0,1-.42-0.08,2,2,0,0,1-.4-0.37,1.44,1.44,0,0,0,0-1,1.31,1.31,0,0,0-.27-0.53,0.18,0.18,0,0,0-.3,0,1.81,1.81,0,0,0,0,1.27,1.12,1.12,0,0,1,.17.45c-0.06.15-.17,0.12-0.25-0.06a4.4,4.4,0,0,1-.14-1.16,2.31,2.31,0,0,0-.28-1.13,0.2,0.2,0,0,0-.37.07,5.34,5.34,0,0,0,0,.89,9.59,9.59,0,0,1,.25,1.43c0,0.67-.39.29-0.37,0a3,3,0,0,0,0-1.29,0.24,0.24,0,0,0-.31-0.19,1.14,1.14,0,0,0-.55,1,5.7,5.7,0,0,0-.11.58c0,0.31-.25.53-0.39,0-0.12-.41-0.2-1.43-0.41-1.2" transform="translate(-880.77 -1009.91)"/>
      <path class="d" d="M899.91,1015.91l-2.13,1a2.18,2.18,0,0,1,1.69-1.37c0.44,0,.33.17,0.44,0.35" transform="translate(-880.77 -1009.91)"/>
      <path class="d" d="M899.53,1016.58c-1.12,2.89,2.63,3.3,3.05.12,0-.13.2-0.26,0.23,0-0.09,2.88-2.9,3.08-3.38,2.17a2.77,2.77,0,0,1-.17-1c-0.07-.57-0.37-0.35-0.42.21a3.57,3.57,0,0,0,0,.7c0.15,2.28,3.78,1.3,4.37-.58a12,12,0,0,0,.12-1.8,0.68,0.68,0,0,0,1-.08,0.16,0.16,0,0,1,.25,0,0.59,0.59,0,0,0,.88-0.25,7.7,7.7,0,0,0,.12-1.08,0.58,0.58,0,0,0-.41.21l0,0.31a0.12,0.12,0,0,1-.23,0c-0.09-.4-0.45-0.45-0.66.17-0.15.12-.41,0.14-0.44,0,0-.41-0.13-0.47-0.46-0.27-0.11-.81-0.21-1.6-0.32-2.41a0.37,0.37,0,0,0,.39-0.06,4.43,4.43,0,0,0-.59-1.38c-0.08-.09-0.15,0-0.25,0a0.4,0.4,0,0,0-.29.5c0.21,1.25.34,2.21,0.54,3.46a0.26,0.26,0,0,1-.25.32,1.19,1.19,0,0,0-.79-0.54,0.89,0.89,0,0,0-.76.71,1.7,1.7,0,0,0,0,.82,0.66,0.66,0,0,0,.76.19,1.43,1.43,0,0,1,.44-0.24,1.35,1.35,0,0,1-1,1.23c-0.58.26-1,.32-1.29-0.15-0.15-.3,0-1.42-0.37-1.16" transform="translate(-880.77 -1009.91)"/>
      <path class="d" d="M904.3,1013.63a11,11,0,0,0,1.29-1.3l-0.16-.13a0.09,0.09,0,0,1,0-.15,0.42,0.42,0,0,0,0-.65,0.64,0.64,0,0,0-.57,0,0.48,0.48,0,0,0-.08.64c0.14,0.07.29,0.21,0.19,0.29-0.44.47-1.63,1.27-1.5,1.3a2.75,2.75,0,0,0,.79,0" transform="translate(-880.77 -1009.91)"/>
      <path class="d" d="M897.85,1018a2.12,2.12,0,0,0-.21,1.88,0.47,0.47,0,0,0,.46.15,0.84,0.84,0,0,0,.3-0.81c-0.08-.13-0.15-0.15-0.23,0-0.18.36-.25,0.11-0.27-0.09a4.51,4.51,0,0,1,.05-1c0-.29,0-0.2-0.09-0.08" transform="translate(-880.77 -1009.91)"/>
      <path class="d" d="M915,1016.94c-0.39-.83-0.92-1.66-1.09-2s-1.46-2.19-1.65-2.4c-0.42-.5.68,0.21-0.14-0.78l-0.59-.5c-0.13-.09-0.45-0.26-0.51,0a1.61,1.61,0,0,0,0,.59,2.12,2.12,0,0,0,.33.5,37.35,37.35,0,0,1,3.59,5.76,1.81,1.81,0,0,0,0-1.22" transform="translate(-880.77 -1009.91)"/>
      <path class="d" d="M913.27,1019.73a0.52,0.52,0,0,0,.53.45,2,2,0,0,0,1.55-1.24,2.24,2.24,0,0,0,.35-1,20.79,20.79,0,0,0-.38-4.82,0.8,0.8,0,0,1,0-.34,0.45,0.45,0,0,0,.23-0.11,2.82,2.82,0,0,0-.46-1.25c-0.07-.14-0.1-0.24-0.22,0a1.83,1.83,0,0,0-.2.91c0.28,1.9.36,3.56,0.54,5.46a0.75,0.75,0,0,1-.13.56,5.35,5.35,0,0,1-1.81,1.32" transform="translate(-880.77 -1009.91)"/>
      <path class="d" d="M921,1019.72c-0.41.24-.41,0.51-0.08,0.52a2.06,2.06,0,0,0,1.72-.82,2.74,2.74,0,0,0,.28-1.06,20.51,20.51,0,0,0-.31-4.76,2.49,2.49,0,0,1-.06-0.49c0-.1.22,0,0.29-0.1a4,4,0,0,0-.69-1.17c-0.07-.14-0.1-0.24-0.22,0a1.48,1.48,0,0,0-.12.91,43,43,0,0,1,.58,5.43,1.93,1.93,0,0,1-.11.49,3.88,3.88,0,0,1-.57.66c-0.19.14-.59,0.27-0.71,0.38" transform="translate(-880.77 -1009.91)"/>
      <path class="d" d="M921.34,1017.87c0-.48,0-0.9,0-1.26a2.21,2.21,0,0,0-.2-0.91,3.36,3.36,0,0,1-.1-0.78c-0.05-.29,0-0.73-0.12-1.07a3.31,3.31,0,0,1-.07-0.61c0-.1.16,0,0.23-0.11a3.89,3.89,0,0,0-.55-1.51c-0.08-.14-0.22-0.09-0.39.13a1,1,0,0,0,0,.82,27.46,27.46,0,0,1,.65,6.14,1.24,1.24,0,0,0,.6-0.85" transform="translate(-880.77 -1009.91)"/>
      <path class="d" d="M918.29,1015.2a1.86,1.86,0,0,1-1-.8,0.53,0.53,0,0,1,0-.43,0.36,0.36,0,0,1,.36-0.07,0.5,0.5,0,0,1,.09.18c0.14,0.07.2,0,.22,0s0-.16,0-0.27a0.3,0.3,0,0,1,.53-0.16,1.14,1.14,0,0,1,.14.53c0,0.09-.14,0-0.22,0a0.19,0.19,0,0,0-.1.2c0,0.22,0,.57,0,0.83" transform="translate(-880.77 -1009.91)"/>
      <path class="d" d="M913.51,1018.4a19.59,19.59,0,0,0,0-2.21c0-.91-0.18-2.68-0.25-3-0.08-.55.23,0.06,0.19-0.26a3.56,3.56,0,0,0-.77-1.44c-0.12-.16-0.11-0.2-0.29,0a1.69,1.69,0,0,0,0,1.11,20.85,20.85,0,0,1,.48,3.24,25.59,25.59,0,0,1,0,3.27,0.94,0.94,0,0,0,.62-0.79" transform="translate(-880.77 -1009.91)"/>
      <path class="d" d="M922.22,1017.36c-0.46-.77-1.15-1.6-1.33-1.91s-1.74-2.32-1.94-2.52c-0.57-.6.26-0.1-0.11-0.56a4.26,4.26,0,0,0-.67-0.66c-0.13-.09-0.22-0.25-0.26,0a5.41,5.41,0,0,0,0,.74,1,1,0,0,0,.22.46,38.39,38.39,0,0,1,4.1,5.61,1.77,1.77,0,0,0,0-1.21" transform="translate(-880.77 -1009.91)"/>
      <path class="f" d="M901.48,1015.94a0.29,0.29,0,0,0-.08.21,0.19,0.19,0,0,0,.18.09,0.27,0.27,0,0,0,.2,0,0.22,0.22,0,0,0,0-.22,0.2,0.2,0,0,0-.33-0.05" transform="translate(-880.77 -1009.91)"/>
      <path class="d" d="M905.88,1012c-0.42,1.19.24,2.49,0.69,2.37,0.33,0.13.54-.49,0.67-1.17,0.09-.19.16-0.21,0.21-0.11a1.7,1.7,0,0,0,.3,1.38,0.75,0.75,0,0,0,1,0l0.41-.41a0.24,0.24,0,0,1,.34,0,1.18,1.18,0,0,0,.37.44,0.82,0.82,0,0,0,.81-0.17c0.15-.26.19-0.34,0.25-0.44a0.18,0.18,0,0,1,.29,0,0.32,0.32,0,0,0-.05.3,0.18,0.18,0,0,0,.23,0,1.51,1.51,0,0,0,.46-0.7c0-.21-0.11-0.2-0.19-0.15l-0.21.14a0.46,0.46,0,0,1-.5-0.09,7.69,7.69,0,0,1-.22-0.78s-0.17-.37,0-0.39,0.25,0.06.27-.08a1.07,1.07,0,0,0-.36-0.72,0.38,0.38,0,0,0-.57,0,0.61,0.61,0,0,0-.15.42,0.65,0.65,0,0,0,.13.57,1.76,1.76,0,0,1,.32,1.16,0.47,0.47,0,0,1-.42.21c-0.11,0-.29-0.07-0.39-0.79a5.13,5.13,0,0,0-.21-1.65c-0.08-.21-0.14-0.42-0.34-0.05a0.84,0.84,0,0,0-.12.81,2.4,2.4,0,0,1,.13,1.26,2.48,2.48,0,0,1-.24.34,0.4,0.4,0,0,1-.51.07,0.55,0.55,0,0,1-.31-0.43,6,6,0,0,0,0-1.39,0.25,0.25,0,0,0-.42-0.08,3.16,3.16,0,0,0-.76,1.57c-0.12.38-.24,0.27-0.33,0.12s-0.23-1.78-.49-1.52" transform="translate(-880.77 -1009.91)"/>
      <path class="d" d="M907.13,1014.57c0.19-.13.1-0.23,0.38,0.05a4.82,4.82,0,0,1,.62,2.08c0,0.17.11,0.28,0.16,0.24,0-.4,1-1,1.91-1,0.14,0,.07-0.29.09-0.43a0.82,0.82,0,1,1,1.6,0c-0.07,1-1.1,1.16-1.69,1.24-0.09,0-.13.08,0,0.12h2.44l0.12,0.07a0.43,0.43,0,0,1-.13.17,2,2,0,0,0-.25.77,11.82,11.82,0,0,1-2.24.43,0.47,0.47,0,0,0-.34.51,1.73,1.73,0,0,0,.68.46c0.11,0.07.24,0.23,0,.57a2.68,2.68,0,0,1-2.43-1.27,0.19,0.19,0,0,0-.27.1A3.75,3.75,0,0,1,906,1020a1.16,1.16,0,0,1-1.18-.38,2.14,2.14,0,0,1-.2-0.41c-0.26.11-2.45,1-2.17,0.61a15.2,15.2,0,0,1,2.28-1.56,1.93,1.93,0,0,1,.49-1s-0.05.38,0,.53,0,0.18,0,.15a6,6,0,0,0,1.12-1.05,0.91,0.91,0,0,0,0-.5,4,4,0,0,0-.54-0.76,0.73,0.73,0,0,1,.13-0.78,0.36,0.36,0,0,1,.53,0,1.62,1.62,0,0,1,.43.79,0.78,0.78,0,0,1-.34,0,1.06,1.06,0,0,1,.26.52,1.59,1.59,0,0,1,0,1.11,3.51,3.51,0,0,1-1.5,1.54,0.38,0.38,0,0,0,.16.36,0.75,0.75,0,0,0,.62,0,3.63,3.63,0,0,0,1.49-1.56,3.4,3.4,0,0,0-.16-1.47c-0.19-.45-0.42-1.08-0.42-1.09a0.6,0.6,0,0,1,.14-0.51" transform="translate(-880.77 -1009.91)"/>
      <path class="d" d="M900.75,1012c0.28,0.13.81,0.08,0.78-.37,0,0,0-.18,0-0.21s-0.21-.1-0.25,0a0.21,0.21,0,0,1,0,.14s-0.11,0-.11-0.12a0.21,0.21,0,0,0,0-.11l-0.06,0a0.06,0.06,0,0,0-.06,0,0.36,0.36,0,0,0,0,.1,0.07,0.07,0,0,1-.11.05,0.08,0.08,0,0,1,0-.06,0.33,0.33,0,0,0,0-.11,0.13,0.13,0,0,0-.07,0,0.19,0.19,0,0,0-.16.24,0.42,0.42,0,0,0,.19.41" transform="translate(-880.77 -1009.91)"/>
      <path class="d" d="M909,1015.48c0.28,0.13.95,0.06,0.79-.37,0,0,0-.18,0-0.21s-0.21-.1-0.25,0a0.21,0.21,0,0,1,0,.14s-0.12,0-.11-0.12a0.2,0.2,0,0,0,0-.11l-0.06,0a0.06,0.06,0,0,0-.06,0,0.44,0.44,0,0,0,0,.11,0.06,0.06,0,0,1-.05.07,0.06,0.06,0,0,1-.06,0,0.08,0.08,0,0,1,0-.06,0.35,0.35,0,0,0,0-.11,0.1,0.1,0,0,0-.07,0,0.19,0.19,0,0,0-.15.24,0.42,0.42,0,0,0,.19.41" transform="translate(-880.77 -1009.91)"/>
      <path class="d" d="M913.77,1014c0.28,0.13.81,0.08,0.79-.38,0,0,0-.17,0-0.21s-0.21-.1-0.25,0a0.2,0.2,0,0,1,0,.14s-0.11,0-.11-0.11a0.22,0.22,0,0,0,0-.11h-0.06s0,0-.06,0a0.38,0.38,0,0,0,0,.11,0.06,0.06,0,0,1-.05.07,0.06,0.06,0,0,1-.06,0,0.08,0.08,0,0,1,0-.06,0.38,0.38,0,0,0,0-.11,0.13,0.13,0,0,0-.07,0,0.19,0.19,0,0,0-.16.24,0.41,0.41,0,0,0,.19.41" transform="translate(-880.77 -1009.91)"/>
      <path class="d" d="M916.25,1017.66a1.7,1.7,0,0,0-.16,1.66,1.31,1.31,0,0,0,.61.69,0.42,0.42,0,0,0,.63-0.07,5.7,5.7,0,0,0,.43-1.21,0.25,0.25,0,0,1,.45-0.11,1.08,1.08,0,0,0,.41.35,0.69,0.69,0,0,0,.9.06,1,1,0,0,0,.48-0.59,18.07,18.07,0,0,0,0-3.13c0-.08-0.28-1.41-0.28-1.43s0-.68-0.07-0.84,0-.08,0-0.08a0.39,0.39,0,0,0,.13.08c0.07,0,.14-0.11.09-0.22l-0.67-1.23c-0.05-.05-0.12-0.11-0.21,0a0.49,0.49,0,0,0-.16.37c0,0.29.07,0.59,0.09,0.88l0.27,1.5c0.08,1.07.1,1.95,0.19,3a1.25,1.25,0,0,1-.29.91,0.3,0.3,0,0,1-.34,0,4,4,0,0,1-.49-0.65,0.3,0.3,0,0,0-.48,0,6.61,6.61,0,0,0-.84,1.58,0.29,0.29,0,0,1-.48,0,2.21,2.21,0,0,1-.29-1.54" transform="translate(-880.77 -1009.91)"/>
      <path class="d" d="M913.9,1011.41a0.92,0.92,0,0,1,.37.86,0.73,0.73,0,0,1-.28.6,5.75,5.75,0,0,1,0-.58,4.73,4.73,0,0,1-.36-0.62,0.22,0.22,0,0,1,.3-0.26" transform="translate(-880.77 -1009.91)"/>
      <path class="d" d="M917.06,1018a7.57,7.57,0,0,0-.05-1.34c0-.36-0.41-3.1-0.48-3.37-0.1-.51.38-0.07,0.33-0.37s-0.57-.93-0.7-1.25c-0.08-.14,0-0.27-0.22,0a2.82,2.82,0,0,0-.15,1.28,26.4,26.4,0,0,1,.77,6,1.14,1.14,0,0,0,.52-0.89" transform="translate(-880.77 -1009.91)"/>
      <path class="d" d="M921.36,1012.28a1.3,1.3,0,0,1,.34.93,0.84,0.84,0,0,1-.25.65,2.43,2.43,0,0,1,0-.63,5.27,5.27,0,0,1-.33-0.66,0.22,0.22,0,0,1,.27-0.28" transform="translate(-880.77 -1009.91)"/>
      <path class="d" d="M904.33,1016.8a0.84,0.84,0,0,1,.32.69,0.56,0.56,0,0,1-.24.47,1.38,1.38,0,0,1,0-.47,2,2,0,0,0-.32-0.49c-0.06-.2.13-0.23,0.26-0.21" transform="translate(-880.77 -1009.91)"/>
      <path class="e" d="M909.62,1017.5c0.28,0,.42.24,0.16,0.33a0.55,0.55,0,0,0-.52.54c0.1,0.53-.13.35-0.27,0.27a1.37,1.37,0,0,1-.68-1,0.25,0.25,0,0,1,.28-0.26,7.44,7.44,0,0,0,1,.11" transform="translate(-880.77 -1009.91)"/>
      <path class="d" d="M898.47,1011.26a0.66,0.66,0,0,1,.32.71,0.59,0.59,0,0,1-.24.49,1.46,1.46,0,0,1,0-.48,3.25,3.25,0,0,1-.29-0.51c-0.06-.17.13-0.24,0.26-0.21" transform="translate(-880.77 -1009.91)"/>
      <path class="d" d="M904.86,1013.5a0.58,0.58,0,0,0-.19.77,0.37,0.37,0,0,0,.4.13,0.61,0.61,0,0,0,.39-0.46s0-.14-0.28.12A0.12,0.12,0,0,1,905,1014a0.61,0.61,0,0,1,0-.38c0-.12-0.05-0.17-0.19-0.09" transform="translate(-880.77 -1009.91)"/>
      <path class="d" d="M906.72,1011.08a0.9,0.9,0,0,0-.38.63c0,0.17,0,.17.07,0.28s0.16,0.1.32,0a0.35,0.35,0,0,0,.15-0.23c0-.19-0.2.09-0.23-0.12a0.55,0.55,0,0,1,.24-0.47c0-.13,0-0.22-0.18-0.12" transform="translate(-880.77 -1009.91)"/>
      <path class="d" d="M908.22,1011.34a3.74,3.74,0,0,0-.11.74c0,0.19.19,0.26,0.3,0a2.26,2.26,0,0,0,.17-0.8c-0.05-.28-0.24-0.27-0.37,0" transform="translate(-880.77 -1009.91)"/>
      <path class="d" d="M917.67,1016.15l1.33-1c0.13,0,.1.48,0,0.47a5.18,5.18,0,0,1-1.37,1,0.41,0.41,0,0,1,0-.47" transform="translate(-880.77 -1009.91)"/>
      <path class="d" d="M918.85,1016.14a1.34,1.34,0,0,1,.29,1,0.54,0.54,0,0,1-.31.59,2.12,2.12,0,0,1,0-.58,3.2,3.2,0,0,1-.21-0.68,0.22,0.22,0,0,1,.26-0.3" transform="translate(-880.77 -1009.91)"/>
      <path class="d" d="M911.12,1019a1.73,1.73,0,0,1,.38-0.32,0.24,0.24,0,0,1,.25,0,3.93,3.93,0,0,0-.05.42c0,0.07,0,.15.18,0.12a1,1,0,0,1,.61-0.18c0.16,0,.16.28,0.06,0.28a4.48,4.48,0,0,0-.82.29,0.19,0.19,0,0,1-.24,0,0.26,0.26,0,0,1,0-.24c0-.14,0-0.21-0.16-0.2s-0.16.08-.21,0a0.11,0.11,0,0,1,0-.15" transform="translate(-880.77 -1009.91)"/>
      <path class="d" d="M920.22,1019.39a0.16,0.16,0,0,1,0,.25l-0.25.21c0,0.07-.07.18,0.06,0.22a1.56,1.56,0,0,0,.81-0.3,0.18,0.18,0,0,0,.05-0.2,0.41,0.41,0,0,0-.25,0s-0.16,0-.11-0.13a0.77,0.77,0,0,0,.1-0.2c0-.08,0-0.14-0.13-0.19a1.1,1.1,0,0,0-.35,0,0.15,0.15,0,0,0-.13.16c0,0.15.1,0.14,0.2,0.21" transform="translate(-880.77 -1009.91)"/>
      <path class="g" d="M911.17,1015.61a0.28,0.28,0,0,1-.41-0.24,0.28,0.28,0,0,1,.41.24" transform="translate(-880.77 -1009.91)"/>
      <path class="g" d="M905.24,1012a0.2,0.2,0,0,1-.2-0.13,0.13,0.13,0,0,1,0-.2,0.2,0.2,0,0,1,.2.13,0.13,0.13,0,0,1,0,.2" transform="translate(-880.77 -1009.91)"/>
      <polygon points="31.61 20.6 29.48 19.07 27.36 20.62 28.15 18.13 26.02 16.59 28.65 16.57 29.45 14.07 30.28 16.56 32.9 16.55 30.79 18.11 31.61 20.6"/>
    </g>
  </g>
</svg>
