<svg xmlns="http://www.w3.org/2000/svg" xmlns:xlink="http://www.w3.org/1999/xlink" viewBox="0 0 58.92 34.37">
  <defs>
    <style>
      .a {
        fill: none;
      }

      .b {
        clip-path: url(#a);
      }

      .c {
        fill: #120065;
      }

      .d, .g {
        fill: #fff;
      }

      .e {
        fill: #ba0019;
      }

      .f {
        fill: #654d32;
      }

      .aa, .ac, .ad, .ae, .af, .ag, .ai, .aj, .al, .am, .f, .g, .j, .k, .l, .m, .o, .p, .r, .s, .v, .w, .y, .z {
        fill-rule: evenodd;
      }

      .h {
        clip-path: url(#c);
      }

      .i {
        fill: url(#d);
      }

      .j {
        fill: #646263;
      }

      .l {
        fill: #f3b926;
      }

      .m {
        fill: #2f7240;
      }

      .n {
        fill: #61c36d;
      }

      .o, .q {
        fill: #2c6d0c;
      }

      .p {
        fill: #f4c827;
      }

      .r {
        fill: #c5ab5a;
      }

      .s {
        fill: #d4001d;
      }

      .t {
        clip-path: url(#f);
      }

      .u {
        fill: url(#g);
      }

      .v {
        fill: #af0018;
      }

      .w {
        fill: #3658a2;
      }

      .x {
        fill: #faf92b;
      }

      .y {
        fill: #ed6c22;
      }

      .z {
        fill: #b8591b;
      }

      .aa {
        fill: #cacacb;
      }

      .ab {
        fill: #cacaca;
      }

      .ac {
        fill: #2c00fc;
      }

      .ad {
        fill: #863f13;
      }

      .ae {
        fill: #fffdff;
      }

      .af {
        fill: #570045;
      }

      .ag, .ah {
        fill: #494949;
      }

      .ai {
        fill: #b2b3b6;
      }

      .aj, .an {
        fill: #899193;
      }

      .ak, .am {
        fill: #2f2f2f;
      }

      .al {
        fill: #cccdcd;
      }
    </style>
    <clipPath id="a" transform="translate(-1022.15 -1009.91)">
      <rect class="a" x="1022.15" y="1009.91" width="58.92" height="34.37"/>
    </clipPath>
    <clipPath id="c" transform="translate(-1022.15 -1009.91)">
      <path class="a" d="M1066.45,1020l-0.15.18a0.59,0.59,0,0,0-1,0c-0.09-.27-0.53-0.14-0.53-0.14a0.61,0.61,0,0,0-.14.31,1.5,1.5,0,0,1-.19.46l-0.11.37,3.94,0.08a1.73,1.73,0,0,0-.32-0.68,0.57,0.57,0,0,0-.18-0.52l-0.48,0s-0.07,0-.08,0a3.3,3.3,0,0,0-.44-0.48Z"/>
    </clipPath>
    <linearGradient id="d" x1="-333.8" y1="821.1" x2="-333.74" y2="821.1" gradientTransform="matrix(0, -28.85, -28.85, 0, 23729.44, -9617.26)" gradientUnits="userSpaceOnUse">
      <stop offset="0" stop-color="#584b44"/>
      <stop offset="1" stop-color="#5b3a1c"/>
    </linearGradient>
    <clipPath id="f" transform="translate(-1022.15 -1009.91)">
      <path class="a" d="M1065.74,1026.49c-0.07,0-.38.23-0.29,0.36a0.69,0.69,0,0,1,.53,0c0.18,0.15.18,0,.18,0a1.13,1.13,0,0,0,.34.08,0.3,0.3,0,0,0,0-.06c0.11-.06-0.21,0-0.24-0.12s0-.19-0.11-0.16a0.52,0.52,0,0,1,0-.27c-0.08.05-.12,0-0.18,0.12a2.11,2.11,0,0,0-.18-0.25,0.65,0.65,0,0,1-.13.24"/>
    </clipPath>
    <linearGradient id="g" x1="-281.86" y1="817.57" x2="-281.8" y2="817.57" gradientTransform="matrix(19.71, 0, 0, -19.71, 5598.77, 16130.97)" gradientUnits="userSpaceOnUse">
      <stop offset="0" stop-color="#edad49"/>
      <stop offset="0.52" stop-color="#df6131"/>
      <stop offset="1" stop-color="#d80031"/>
    </linearGradient>
  </defs>
  <title>South_Georgia_and_the_South_Sandwich_Islands</title>
  <g class="b">
    <rect class="c" width="58.92" height="34.37"/>
    <path class="d" d="M1036.88,1018.92l11.44,5.72h3.29V1023l-11.44-5.72Zm-14.73,4.07v1.65h3.29l11.44-5.72-3.29-1.65Zm0-13.08v1.65l11.44,5.72,3.29-1.65-11.44-5.72h-3.29Zm26.17,0-11.44,5.72,3.3,1.65,11.44-5.72v-1.65h-3.29Z" transform="translate(-1022.15 -1009.91)"/>
    <polygon class="d" points="12.28 0 12.28 4.91 0 4.91 0 9.82 12.28 9.82 12.28 14.73 17.19 14.73 17.19 9.82 29.46 9.82 29.46 4.91 17.19 4.91 17.19 0 12.28 0"/>
    <polygon class="e" points="13.26 0 13.26 5.89 0 5.89 0 8.84 13.26 8.84 13.26 14.73 16.2 14.73 16.2 8.84 29.46 8.84 29.46 5.89 16.2 5.89 16.2 0 13.26 0"/>
    <path class="e" d="M1032,1019.73l-9.82,4.91h2.2l9.82-4.91H1032Zm9.82,0,9.82,4.91v-1.1l-7.63-3.81h-2.2Zm-19.64-8.72,7.63,3.81h2.2l-9.82-4.91v1.1Zm27.27-1.1-9.82,4.91h2.2l9.82-4.91h-2.2Z" transform="translate(-1022.15 -1009.91)"/>
    <g class="b">
      <path class="f" d="M1065.57,1033a1.05,1.05,0,0,1-.26.43,2,2,0,0,1-.43-0.19,1.32,1.32,0,0,1-.37.42,1.88,1.88,0,0,1-.47-0.06,0.91,0.91,0,0,1-.34,0,0.4,0.4,0,0,1,0-.14,2,2,0,0,1-.57.35,2.38,2.38,0,0,1-.46-0.47l-0.06.23-0.66,0-0.58-.37s-0.33.54-.34,0.53-0.57.13-.57,0.13l0-.11-0.37-.22s0.29-.41.29-0.42l-0.14-.06-0.21.18-0.43.28-0.43-.2,0.19-.35,0-.26,0.34-.51,4.14-4,2,3.77Z" transform="translate(-1022.15 -1009.91)"/>
      <path d="M1060.45,1033.84l0-.13-0.36-.2a3.1,3.1,0,0,1,.28-0.45,0.21,0.21,0,0,1-.12,0l-0.18.17-0.44.28-0.46-.2,0.17-.39,0-.24,0.34-.53,4.14-4,2.09,3.77-0.3,1.15a0.83,0.83,0,0,1-.29.46,1.85,1.85,0,0,1-.45-0.19,0.85,0.85,0,0,1-.35.42,1.52,1.52,0,0,1-.48-0.06h0c-0.33,0-.35-0.05-0.35-0.07a0.36,0.36,0,0,1,0-.14,1.18,1.18,0,0,1-.53.37,2,2,0,0,1-.49-0.48v0.22H1062l-0.6-.38a1.87,1.87,0,0,1-.32.53s-0.37.08-.56,0.13h0Zm-0.26-.87c0.19,0,.19.06,0.19,0.08a2.36,2.36,0,0,1-.3.44l0.37,0.18,0,0.1c0.13,0,.5-0.12.55-0.12l0.32-.51,0.63,0.36,0.65,0,0-.21a5.79,5.79,0,0,0,.49.45h0a2,2,0,0,0,.55-0.34,0.34,0.34,0,0,1,0,.16,1.62,1.62,0,0,0,.31,0,2.46,2.46,0,0,0,.41.06,0.92,0.92,0,0,0,.4-0.41,4.19,4.19,0,0,0,.46.17,1,1,0,0,0,.23-0.41l0.3-1.12-2-3.74-4.09,4-0.33.51,0,0.24-0.19.36,0.42,0.16,0.61-.45h0Z" transform="translate(-1022.15 -1009.91)"/>
      <path class="g" d="M1068.51,1033.26l1.08,0-0.46-.22,4.11-.16-0.58-.22-0.51-.7-2.13-.16a0.53,0.53,0,0,0-.42-0.06,0.84,0.84,0,0,0-.21-0.38l-1.31-.1-0.82.56,0.55,1.41Z" transform="translate(-1022.15 -1009.91)"/>
      <path d="M1068.51,1033.29h0l-0.7-.07-0.58-1.43,0.83-.59,1.33,0.09a0.79,0.79,0,0,1,.24.41,0.11,0.11,0,0,1,.11,0,0.52,0.52,0,0,1,.29.08l2.11,0.15,0.54,0.71,0.57,0.21-4.12.21,0.47,0.17-1.09.1h0Zm-0.44-2-0.8.55,0.56,1.38,0.67,0,1.08,0-0.47-.17,4.12-.21-0.59-.16-0.53-.71-2.11-.15a0.62,0.62,0,0,0-.41-0.06,1.17,1.17,0,0,0-.24-0.39l-1.29-.09h0Z" transform="translate(-1022.15 -1009.91)"/>
    </g>
    <g class="h">
      <rect class="i" x="42.17" y="9.58" width="3.94" height="1.78"/>
    </g>
    <g class="b">
      <path d="M1068.29,1021.3l-4-.08,0.08-.41a1.49,1.49,0,0,0,.19-0.45,0.63,0.63,0,0,1,.15-0.33,0.64,0.64,0,0,1,.24,0,0.32,0.32,0,0,1,.34.19,0.49,0.49,0,0,1,.46-0.34,0.83,0.83,0,0,1,.55.3l0.1-.18,0.31-.38a1.87,1.87,0,0,1,.5.5l0.52,0a0.56,0.56,0,0,1,.21.55,1.5,1.5,0,0,1,.32.67v0h0Zm-3.53-1.22a0.61,0.61,0,0,0-.12.28,1.45,1.45,0,0,1-.19.47l-0.11.36,3.87,0a1.46,1.46,0,0,0-.3-0.63,0.6,0.6,0,0,0-.18-0.52l-0.46,0c-0.07,0-.11,0-0.11-0.05a3,3,0,0,0-.43-0.46l-0.42.56a1.19,1.19,0,0,0-.55-0.28,0.57,0.57,0,0,0-.46.31,0.39,0.39,0,0,0-.33-0.16,0.77,0.77,0,0,0-.21,0h0Z" transform="translate(-1022.15 -1009.91)"/>
      <path class="j" d="M1068.51,1025.58a0.47,0.47,0,0,0,.31-0.51,0.46,0.46,0,0,0-.54-0.41,0.67,0.67,0,0,0-.35.17l-0.61-.38s0.3-1.92.63-2a0.7,0.7,0,0,0,.36-0.37,0.54,0.54,0,0,0-.11-0.18l-2-.23-1.87.22a0.71,0.71,0,0,0-.13.31,0.68,0.68,0,0,0,.36.45,5.1,5.1,0,0,1,.63,1.92,3,3,0,0,1-.56.23,0.43,0.43,0,0,0-.63.46,0.77,0.77,0,0,0,.27.57s1.79-.21,2.06.29c0.26-.6,2-0.39,2.16-0.49h0Z" transform="translate(-1022.15 -1009.91)"/>
      <path d="M1066.35,1026.14l0-.06a1.48,1.48,0,0,0-1.22-.31,7.94,7.94,0,0,0-.8,0,0.74,0.74,0,0,1-.31-0.6,0.54,0.54,0,0,1,.38-0.54,0.51,0.51,0,0,1,.3.06,5.53,5.53,0,0,0,.52-0.23h0a5.61,5.61,0,0,0-.63-1.87,0.72,0.72,0,0,1-.37-0.45,0.65,0.65,0,0,1,.13-0.35l1.89-.23,2,0.23a0.46,0.46,0,0,1,.14.21,0.68,0.68,0,0,1-.37.39,5,5,0,0,0-.61,2l0.59,0.35a0.47,0.47,0,0,1,.33-0.17,0.49,0.49,0,0,1,.58.44,0.48,0.48,0,0,1-.29.52,1.42,1.42,0,0,1-.53.06c-0.55,0-1.48,0-1.66.43l0,0.06h0Zm-1.25-.43a1.67,1.67,0,0,1,1.24.3,2.27,2.27,0,0,1,1.69-.42,2,2,0,0,0,.47,0,0.45,0.45,0,0,0,.29-0.48,0.41,0.41,0,0,0-.46-0.38,0.66,0.66,0,0,0-.38.16l-0.64-.38c0-.23.3-2,0.63-2.09a0.74,0.74,0,0,0,.34-0.34,0.51,0.51,0,0,0-.11-0.16l-2-.22-1.87.22a0.79,0.79,0,0,0-.1.27,0.67,0.67,0,0,0,.35.43,5,5,0,0,1,.64,1.94,2.35,2.35,0,0,1-.58.27,0.58,0.58,0,0,0-.24-0.06,0.47,0.47,0,0,0-.37.49,0.75,0.75,0,0,0,.26.54,5.3,5.3,0,0,1,.79,0h0Z" transform="translate(-1022.15 -1009.91)"/>
      <path class="k" d="M1070.44,1023.59a0.46,0.46,0,0,1,.17-0.31,2.61,2.61,0,0,1,1.38,0,1.7,1.7,0,0,1,.33.88,1.29,1.29,0,0,1,.16.45c0,0.19,0,.32,0,0.32a4,4,0,0,1,.8,2,8.84,8.84,0,0,1-.18,3,2.72,2.72,0,0,1-.35,1.33,0.57,0.57,0,0,1,.07.29,0.76,0.76,0,0,1-.09.29l1.16,0.57-0.43-.16,0.43,0.36-0.49-.23,0.29,0.29-0.71-.32,0.31,0.3-0.52-.25,0.31,0.32s-0.46-.2-0.46-0.2l0,0.17a0.35,0.35,0,0,1-.36-0.29,1.22,1.22,0,0,1-.3-0.24l-0.82-.14-0.93-2.78,0.22-4.71,0.06-.24Z" transform="translate(-1022.15 -1009.91)"/>
      <path d="M1073.1,1032.68h0l0,0,0,0h0l-0.44-.19,0.06,0.13a0.33,0.33,0,0,1-.42-0.28,1,1,0,0,1-.29-0.22l-0.8-.13-1-2.8,0.22-4.72,0.06-.24-0.1-.62a0.49,0.49,0,0,1,.18-0.34,2.15,2.15,0,0,1,.76-0.1,1.59,1.59,0,0,1,.65.1,1.69,1.69,0,0,1,.34.9h0a1.24,1.24,0,0,1,.16.45,3,3,0,0,0,0,.31h0a4,4,0,0,1,.8,2,8.84,8.84,0,0,1-.18,3,2.74,2.74,0,0,1-.35,1.33,0.43,0.43,0,0,1,.07.28,0.84,0.84,0,0,1-.09.3l1.15,0.53-0.38-.09a3.92,3.92,0,0,1,.39.29,2.07,2.07,0,0,1-.52-0.18l0.22,0.16-0.23-.17a0.86,0.86,0,0,1,.37.11c-0.13-.09-0.31-0.23-0.31-0.23h0.07l0.39,0.09-1.18-.52s0.06-.18.07-0.32a0.56,0.56,0,0,0-.06-0.27,3.08,3.08,0,0,0,.34-1.34,9,9,0,0,0,.18-3,4,4,0,0,0-.8-1.95,2,2,0,0,1,0-.33,1.31,1.31,0,0,0-.15-0.43,1.75,1.75,0,0,0-.32-0.87,1.46,1.46,0,0,0-.62-0.09,2,2,0,0,0-.72.09,0.41,0.41,0,0,0-.15.28l0.1,0.63-0.06.25-0.22,4.7,0.93,2.77,0.8,0.12a1.64,1.64,0,0,0,.31.24,0.34,0.34,0,0,0,.34.28l-0.05-.13a0.91,0.91,0,0,1,.34.09l-0.19-.2a1.23,1.23,0,0,1,.46.15,2.84,2.84,0,0,1-.24-0.2l0.74,0.27h0a4.51,4.51,0,0,1-.74-0.27l0.33,0.24h0s0,0,0,0a4.31,4.31,0,0,1-.46-0.18c0.08,0.07.19,0.18,0.22,0.21a0,0,0,0,1,0,0h0Z" transform="translate(-1022.15 -1009.91)"/>
      <path class="l" d="M1069.82,1038.63a2.77,2.77,0,0,0-.71-1c-0.21-.41.75-3.76,2.61-3.95,1,0.08.08,1.18-.59,0.84a2.77,2.77,0,0,0,.42.71s-1.33.57-1.72,3.41h0Z" transform="translate(-1022.15 -1009.91)"/>
      <path d="M1069.83,1038.74l0-.09a2.46,2.46,0,0,0-.69-1,3.84,3.84,0,0,1,.61-2.31,2.89,2.89,0,0,1,2-1.7c0.45,0,.49.26,0.48,0.35a0.83,0.83,0,0,1-1.08.55,5.37,5.37,0,0,0,.46.67c0,0.05-1.33.65-1.71,3.43v0.1h0Zm-0.7-1.13a2.17,2.17,0,0,1,.67.93c0.4-2.67,1.65-3.3,1.72-3.33h0a1.7,1.7,0,0,1-.43-0.68l0.3,0a0.76,0.76,0,0,0,.73-0.56c0-.16-0.14-0.26-0.42-0.29a2.83,2.83,0,0,0-1.94,1.66,4.17,4.17,0,0,0-.63,2.24h0Z" transform="translate(-1022.15 -1009.91)"/>
      <path class="l" d="M1063.42,1038.78a2.87,2.87,0,0,1,.63-1.16c0.24,0-.63-3.81-2.54-3.84-1,.09-0.08,1.19.59,0.85a2.76,2.76,0,0,1-.42.72s1.34,0.58,1.74,3.43h0Z" transform="translate(-1022.15 -1009.91)"/>
      <path d="M1063.41,1038.91l0-.13c-0.39-2.79-1.7-3.4-1.72-3.4a7.25,7.25,0,0,0,.41-0.75,0.27,0.27,0,0,1-.25.1,0.82,0.82,0,0,1-.8-0.62c0-.09,0-0.32.48-0.35,1.72,0,2.59,3,2.61,3.72,0,0.07,0,.17-0.07.18a2.55,2.55,0,0,0-.61,1.14l0,0.12h0Zm-1.69-3.54c0.08,0,1.32.64,1.72,3.28a2.17,2.17,0,0,1,.62-1.06,3.86,3.86,0,0,0-.37-1.58c-0.32-.81-1-2.18-2.17-2.2-0.28,0-.43.13-0.42,0.29a0.78,0.78,0,0,0,1,.5,2,2,0,0,1-.38.76h0Z" transform="translate(-1022.15 -1009.91)"/>
      <path class="m" d="M1065.17,1031.64s-0.47.15-.17,0.66a0.49,0.49,0,0,1,.23-0.32,0.51,0.51,0,0,0,0,.7,0.51,0.51,0,0,1,.23-0.4,1,1,0,0,0,0,.84,0.56,0.56,0,0,1,.21-0.4,1,1,0,0,0,0,.77,0.48,0.48,0,0,1,.18-0.34s-0.1.65,0.16,0.7a0.88,0.88,0,0,1,.19-0.45s-0.08.53,0.31,0.55a1.76,1.76,0,0,1,.08-0.43s0.18,0.56.44,0.47c0-.17,0-0.48,0-0.48s0.16,0.54.48,0.44a0.61,0.61,0,0,1,0-.33,0.4,0.4,0,0,0,.46.23,0.54,0.54,0,0,0,0-.3s0.44,0.45.57,0.18-0.35-.36-0.35-0.36h0.33a0.64,0.64,0,0,0-.55-0.34,0.48,0.48,0,0,1,.31,0,0.58,0.58,0,0,0-.54-0.38,0.79,0.79,0,0,1,.37,0,0.61,0.61,0,0,0-.55-0.42,0.4,0.4,0,0,1,.29-0.06,0.6,0.6,0,0,0-.42-0.29c-0.23,0-2.26-.21-2.25-0.2h0Z" transform="translate(-1022.15 -1009.91)"/>
      <path d="M1067,1034a0.63,0.63,0,0,1-.39-0.44c0,0.08,0,.23,0,0.36a0.26,0.26,0,0,1-.28-0.09,0.61,0.61,0,0,1-.1-0.39,1.07,1.07,0,0,0-.12.38c-0.27,0-.24-0.48-0.22-0.65a0.65,0.65,0,0,0-.12.3,0.66,0.66,0,0,1-.06-0.69,0.7,0.7,0,0,0-.12.32,0.73,0.73,0,0,1-.08-0.8,0.7,0.7,0,0,0-.16.36,0.46,0.46,0,0,1-.15-0.59,0.4,0.4,0,0,0-.1.2,0.41,0.41,0,0,1-.12-0.5,0.42,0.42,0,0,1,.25-0.19l0.29,0c0.54,0.06,1.68.17,1.94,0.17h0a0.66,0.66,0,0,1,.48.3,0.1,0.1,0,0,1-.1,0,0.27,0.27,0,0,0-.19.05,0.56,0.56,0,0,1,.56.39,0.28,0.28,0,0,1-.18,0,0.65,0.65,0,0,0-.2,0,0.48,0.48,0,0,1,.56.34,0.22,0.22,0,0,1-.16,0,0.4,0.4,0,0,0-.16,0,0.57,0.57,0,0,1,.56.3l-0.23,0a0.39,0.39,0,0,1,.26.17,0.2,0.2,0,0,1,0,.19c-0.1.2-.42,0-0.56-0.12a0.32,0.32,0,0,1,0,.23,0.3,0.3,0,0,1-.14,0,0.44,0.44,0,0,1-.35-0.22,1,1,0,0,0,0,.27,0.14,0.14,0,0,1-.11.05,0.48,0.48,0,0,1-.37-0.32c0,0.1,0,.23,0,0.32v0H1067Zm-0.41-.52a0.94,0.94,0,0,0,.41.46v0l0,0a1.12,1.12,0,0,1,0-.3c0-.07,0-0.13,0-0.14h0a0.07,0.07,0,0,1,.05.07,0.59,0.59,0,0,0,.37.34,1.1,1.1,0,0,1,.07-0.32h0a0.59,0.59,0,0,0,.48.21,0.66,0.66,0,0,0,0-.26,4.33,4.33,0,0,0,.46.23,0.11,0.11,0,0,0,.11-0.07,0.15,0.15,0,0,0,0-.14,0.55,0.55,0,0,0-.33-0.18h0a0.1,0.1,0,0,1,.1,0l0.22,0a0.9,0.9,0,0,0-.54-0.28,0.24,0.24,0,0,1,.3-0.08,0.7,0.7,0,0,0-.54-0.32,0.34,0.34,0,0,1,.36-0.08,0.78,0.78,0,0,0-.55-0.36,0.23,0.23,0,0,1,.27-0.12,0.73,0.73,0,0,0-.38-0.23c-0.33,0-1.45-.12-2-0.17l-0.27,0a0.36,0.36,0,0,0-.21.18,0.46,0.46,0,0,0,.07.43,0.36,0.36,0,0,1,.19-0.33,0.64,0.64,0,0,0,.05.71,0.42,0.42,0,0,1,.2-0.4,1.17,1.17,0,0,0,0,.84,0.46,0.46,0,0,1,.17-0.4,1.29,1.29,0,0,0,0,.77,0.37,0.37,0,0,1,.15-0.35,0.88,0.88,0,0,0,.18.69,0.68,0.68,0,0,1,.16-0.44,2.27,2.27,0,0,0,.13.45,0.27,0.27,0,0,0,.2.1,1.1,1.1,0,0,1,0-.41h0Z" transform="translate(-1022.15 -1009.91)"/>
      <path class="n" d="M1067.38,1033.47a1.72,1.72,0,0,0-.22-0.14,0,0,0,0,1,0-.05,0.32,0.32,0,0,1,.19.2h0Zm0.15,0a1.48,1.48,0,0,0-.27-0.26,0,0,0,0,1,0,0,0,0,0,0,1,0,0,0.53,0.53,0,0,1,.24.31h0Zm-0.94,0a2.33,2.33,0,0,0-.12-0.27,0,0,0,0,1,0,0,0,0,0,0,1,0,0,0.46,0.46,0,0,1,.07.3h0Zm1.28,0a1.88,1.88,0,0,1-.11-0.24,0,0,0,0,1,0,0,0,0,0,0,1,0,0,0.35,0.35,0,0,1,.06.27h0Zm-1.45,0-0.17-.23a0,0,0,0,1,0,0,0,0,0,0,1,0,0,0.49,0.49,0,0,1,.12.27h0Zm1.28,0a0.73,0.73,0,0,0-.24-0.27,0,0,0,1,1,0-.05,0.45,0.45,0,0,1,.21.32h0Zm-1.48,0a1.36,1.36,0,0,1-.15-0.15,0,0,0,0,1,0,0,0,0,0,0,1,0,0,0.31,0.31,0,0,1,.11.19h0Zm0.27-.26a0.53,0.53,0,0,0-.27-0.16,0,0,0,0,1,0,0,0,0,0,0,1,0,0,0.33,0.33,0,0,1,.25.22h0Zm0.45-.06c0-.08,0-0.23-0.07-0.32a0,0,0,1,1,.06,0,0.63,0.63,0,0,1,0,.33h0Zm-0.16,0c0-.06-0.12-0.22-0.17-0.31a0,0,0,0,1,0,0,0,0,0,0,1,0,0,0.75,0.75,0,0,1,.12.35h0Zm-0.16,0a0.33,0.33,0,0,0-.27-0.2,0,0,0,0,1,0,0,0,0,0,0,1,0,0,0.29,0.29,0,0,1,.26.27h0Zm-0.53-.35a1,1,0,0,0-.15-0.33,0,0,0,0,1,0,0,0,0,0,0,1,0,0,0.5,0.5,0,0,1,.1.36h0Zm0.14,0a0.69,0.69,0,0,0-.05-0.2,0,0,0,0,1,0,0,0,0,0,0,1,0,0,0.22,0.22,0,0,1,0,.22h0Zm-0.43,0-0.13-.15a0,0,0,0,1,0,0,0,0,0,0,1,0,0,0.23,0.23,0,0,1,.08.19h0Zm0.14,0a0.62,0.62,0,0,0-.24-0.31,0,0,0,0,1,0,0,0,0,0,0,1,0,0,0.44,0.44,0,0,1,.21.36h0Zm1,0a0.36,0.36,0,0,0-.16-0.15,0,0,0,0,1,0,0,0,0,0,0,1,0,0,0.22,0.22,0,0,1,.14.21h0Zm0.29,0a0.66,0.66,0,0,0-.14-0.36,0,0,0,0,1,0,0,0,0,0,0,1,0,0,0.46,0.46,0,0,1,.1.39h0Zm-0.13,0a0.45,0.45,0,0,0-.2-0.26,0,0,0,0,1,0,0,0,0,0,0,1,0,0,0.33,0.33,0,0,1,.17.31h0Zm0.27,0a0.38,0.38,0,0,1,0-.3,0,0,0,0,1,0,0,0,0,0,0,1,0,0,0.84,0.84,0,0,0,0,.29h0Z" transform="translate(-1022.15 -1009.91)"/>
      <path class="g" d="M1063.71,1025.78l1.52,0a1.62,1.62,0,0,1,1.11.32,1.28,1.28,0,0,1,1.06-.41l1.57-.05q0,1.9,0,3.79a4.06,4.06,0,0,1-2.55,3,3.9,3.9,0,0,1-2.58-3q-0.08-1.8-.16-3.6h0Z" transform="translate(-1022.15 -1009.91)"/>
      <path d="M1066.45,1032.4h0a3.94,3.94,0,0,1-2.6-3l-0.16-3.59,0.79-.06h0.76a1.59,1.59,0,0,1,1.14.35,1.09,1.09,0,0,1,1-.43l1.6-.05,0.06,3.82a4.06,4.06,0,0,1-2.57,3h0Zm-1.22-6.62-1.52,0,0.19,3.57a3.87,3.87,0,0,0,2.54,2.95,4,4,0,0,0,2.52-2.93l0-3.79-0.18,0-1.36,0a1.31,1.31,0,0,0-1,.39,1.72,1.72,0,0,0-1.14-.31h0Z" transform="translate(-1022.15 -1009.91)"/>
      <path class="o" d="M1064.25,1025.77l2.21,5.89,2-6c-0.62,0-2-.1-2.12.47-0.26-.51-1.65-0.3-2.09-0.34h0Z" transform="translate(-1022.15 -1009.91)"/>
      <path d="M1066.46,1031.75l-2.24-6a0.31,0.31,0,0,1,.18,0h0.3c0.57,0,1.46-.07,1.67.36,0.08-.47.94-0.47,1.63-0.47h0.45l-2,6.14h0Zm-2.21-6,2.21,5.77,2-5.94a1.07,1.07,0,0,1-.42,0c-0.64,0-1.51,0-1.63.44a1.65,1.65,0,0,0-1.23-.33h-0.89Z" transform="translate(-1022.15 -1009.91)"/>
      <path class="p" d="M1065.75,1029c0.09,0,.08-1.6.2-1.65s0-.19.09-0.34a0.55,0.55,0,0,0-.69,0c0.07,0.23.1,0.31,0.1,0.31,0.21,0.35.17,1.74,0.3,1.7h0Z" transform="translate(-1022.15 -1009.91)"/>
      <path class="q" d="M1065.76,1029h0a0.85,0.85,0,0,1-.12-0.62,3.36,3.36,0,0,0-.19-1.09s0-.08-0.11-0.31a0.56,0.56,0,0,1,.72,0l-0.08.35a3.46,3.46,0,0,0-.11.92,1.31,1.31,0,0,1-.1.74h0Zm0-2.12a0.56,0.56,0,0,0-.35.1l0.11,0.29a3.37,3.37,0,0,1,.2,1.1,1.94,1.94,0,0,0,.09.59h0a4.32,4.32,0,0,0,.07-0.71,2.49,2.49,0,0,1,.12-0.94,2.65,2.65,0,0,1,.08-0.33,0.39,0.39,0,0,0-.31-0.1h0Z" transform="translate(-1022.15 -1009.91)"/>
      <path class="r" d="M1065.16,1016.26a1.29,1.29,0,0,0,.16-0.22,1.72,1.72,0,0,0,1.13-.85c0.23-.41,0-0.17,0-0.17v-0.2a0.48,0.48,0,0,0,.18-0.43c-0.11-.15-0.07.19-0.24,0.18s-0.08-.37-0.08-0.37a0.12,0.12,0,0,0-.06-0.06,1.07,1.07,0,0,0-.11.15,0.55,0.55,0,0,1-.12-0.3s-0.11-.14-0.2.31a6.94,6.94,0,0,0,.36.7,0.65,0.65,0,0,1-.35.56c-0.08,0-.05-0.26-0.05-0.26a0.3,0.3,0,0,0-.07-0.13,0.34,0.34,0,0,0,.13-0.38c-0.06-.43-0.11.1-0.23,0.08s0-.39,0-0.43,0-.22-0.3.23c0,0.22-.05-0.06-0.1,0a0.4,0.4,0,0,0,0,.47,0.73,0.73,0,0,1,.28.41,0.31,0.31,0,0,1-.23.28c-0.13,0,0-.23,0-0.31a1.71,1.71,0,0,0-.22-0.36,1.52,1.52,0,0,1-.13-0.25s0,0-.09.21-0.16-.16-0.16-0.16a0.49,0.49,0,0,0,.11.49c-0.16,0-.18,0-0.18,0a1.77,1.77,0,0,1,.25.27,0.3,0.3,0,0,1-.23.23s0.11,0.15.41-.14a0.47,0.47,0,0,1-.12.31c0.1,0,.18,0,0.19.16h0Z" transform="translate(-1022.15 -1009.91)"/>
      <path d="M1065.16,1016.29h0a0,0,0,0,1,0,0,0.11,0.11,0,0,0-.11-0.1l-0.07,0a1.29,1.29,0,0,0,.1-0.34,0.29,0.29,0,0,1-.4.16,0.49,0.49,0,0,0,.22-0.25,0.27,0.27,0,0,0-.14-0.15,0.18,0.18,0,0,1-.11-0.12s0-.08.15-0.08a0.46,0.46,0,0,1-.08-0.46c0.08,0.11.12,0.21,0.14,0.22,0.08-.29.12-0.29,0.13-0.29l0.16,0.27a1.54,1.54,0,0,1,.22.38,0.37,0.37,0,0,1,0,.13,0.3,0.3,0,0,0,0,.15h0a0.28,0.28,0,0,0,.21-0.24,0.75,0.75,0,0,0-.27-0.39,0.42,0.42,0,0,1-.06-0.5c0.07,0,.09,0,0.11.08a0.49,0.49,0,0,1,.28-0.36l0.07,0a0.07,0.07,0,0,1,0,.08,0.66,0.66,0,0,0-.05.35s0.09-.06.1-0.1,0.13-.2.17,0.08a0.43,0.43,0,0,1-.11.39,0.43,0.43,0,0,1,.05.12,0.46,0.46,0,0,0,0,.24,0.63,0.63,0,0,0,.32-0.53,0.29,0.29,0,0,0-.13-0.25,0.61,0.61,0,0,1-.23-0.45c0.05-.25.11-0.36,0.19-0.36l0.06,0a0.8,0.8,0,0,0,.1.29,0.18,0.18,0,0,1,.11-0.15,0.15,0.15,0,0,1,.1.08,0.54,0.54,0,0,0,0,.32,0.12,0.12,0,0,0,.16-0.1,0.11,0.11,0,0,1,.08-0.09l0.07,0.05a0.48,0.48,0,0,1-.19.47l0,0.15a0.08,0.08,0,0,1,.07-0.07s0.05,0.08-.07.29a1.62,1.62,0,0,1-1.07.84,2.86,2.86,0,0,0-.23.24h0Zm-0.1-.52a0.38,0.38,0,0,1-.07.36,0.18,0.18,0,0,1,.18.07,1,1,0,0,0,.12-0.16s0,0,.1-0.05a1.57,1.57,0,0,0,1-.81,1.2,1.2,0,0,0,.09-0.18l0,0-0.07-.22a0.48,0.48,0,0,0,.19-0.41,0.31,0.31,0,0,1-.21.2,0.13,0.13,0,0,1-.1,0,0.55,0.55,0,0,1,0-.36l-0.07,0a0.12,0.12,0,0,1-.07.09h0a0.37,0.37,0,0,1-.16-0.32s-0.08,0-.14.31a0.54,0.54,0,0,0,.21.4,0.35,0.35,0,0,1,.15.29,0.66,0.66,0,0,1-.38.59,0.35,0.35,0,0,1-.08-0.29,0.47,0.47,0,0,0-.05-0.1,0.56,0.56,0,0,0,.11-0.41,0.49,0.49,0,0,0,0-.14,0.19,0.19,0,0,1,0,.08,0.22,0.22,0,0,1-.14.17,0.09,0.09,0,0,1-.08-0.07,0.65,0.65,0,0,1,.07-0.41s-0.1,0-.25.27c0,0.06,0,.1,0,0.1a0.22,0.22,0,0,1-.05-0.07v0a0.37,0.37,0,0,0,.06.4,0.77,0.77,0,0,1,.29.43,0.34,0.34,0,0,1-.26.3l-0.07,0a0.26,0.26,0,0,1,0-.21,0.41,0.41,0,0,0,0-.1,1.48,1.48,0,0,0-.21-0.35l-0.12-.21,0,0.15a0.11,0.11,0,0,1-.08.1,0.2,0.2,0,0,1-.11-0.16,0.47,0.47,0,0,0,.14.36s0,0,0,0a0.09,0.09,0,0,1-.06,0,0.11,0.11,0,0,0-.09,0,0.28,0.28,0,0,0,.08.06,0.3,0.3,0,0,1,.17.19,0.26,0.26,0,0,1-.19.24,0.39,0.39,0,0,0,.32-0.17h0Z" transform="translate(-1022.15 -1009.91)"/>
      <path class="r" d="M1064.19,1016.26a1.69,1.69,0,0,1-.14-0.24,1.08,1.08,0,0,1-1-.74c-0.2-.37,0-0.15,0-0.15v-0.18a0.46,0.46,0,0,1-.12-0.39c0.09-.13.05,0.17,0.17,0.18s0.06-.34.06-0.34a0.11,0.11,0,0,1,.06-0.06c0.06,0,.08.2,0.14,0.21a0.76,0.76,0,0,0,.2-0.28s0-.2.13,0.21a4.12,4.12,0,0,1-.4.63,0.59,0.59,0,0,0,.29.51,0.31,0.31,0,0,0,0-.24,0.28,0.28,0,0,1,.06-0.12s-0.21,0-.19-0.28,0.18,0,.27,0a0.65,0.65,0,0,0,0-.37s0.15-.24.2,0.19c0,0.2.13-.17,0.17-0.16a0.6,0.6,0,0,1-.14.53,0.64,0.64,0,0,0-.21.39,0.16,0.16,0,0,0,.15.18c0.11,0,0-.13,0-0.21a1.28,1.28,0,0,1,.19-0.3c0-.06,0-0.16,0-0.21s0.08-.08.14,0.15,0.13-.15.13-0.15a0.47,0.47,0,0,1-.1.45c0.14,0,.15,0,0.15,0s-0.06.11-.09,0.24a0.23,0.23,0,0,0,.07.21s-0.09.14-.34-0.13a0.45,0.45,0,0,0,.1.29c-0.08,0-.15,0-0.16.14h0Z" transform="translate(-1022.15 -1009.91)"/>
      <path d="M1064.19,1016.28h0a1.34,1.34,0,0,1-.14-0.25,1,1,0,0,1-1-.73,0.31,0.31,0,0,1-.09-0.24,0.12,0.12,0,0,1,.13.06l0-.17h0a0.43,0.43,0,0,1-.12-0.41l0.06,0s0.05,0,.06.09a0.13,0.13,0,0,0,.07.12,0.36,0.36,0,0,0,0-.3,0.12,0.12,0,0,1,.07-0.09,0.15,0.15,0,0,1,.11.13,0.24,0.24,0,0,0,0,.09,0.78,0.78,0,0,0,.13-0.19l0-.08,0.07-.06s0.05,0,.1.28a0.51,0.51,0,0,1-.25.42,0.26,0.26,0,0,0-.15.22,0.59,0.59,0,0,0,.27.48,0.44,0.44,0,0,0,0-.21,0.43,0.43,0,0,1,0-.11,0.1,0.1,0,0,1-.11,0,0.33,0.33,0,0,1-.06-0.25c0-.12.12-0.18,0.21-0.08a0.19,0.19,0,0,0,.08.06,0.28,0.28,0,0,0,0-.21,0.24,0.24,0,0,1,0-.15,0.13,0.13,0,0,1,.11-0.1c0.07,0,.12.1,0.14,0.3,0,0,0,0,0-.06a0.17,0.17,0,0,1,.09-0.12,0.58,0.58,0,0,1-.11.57,0.62,0.62,0,0,0-.21.37,0.14,0.14,0,0,0,.12.15,0.08,0.08,0,0,0,0-.1,0.3,0.3,0,0,1,0-.08,1.19,1.19,0,0,1,.19-0.31,0.21,0.21,0,0,0,0-.09,0.23,0.23,0,0,1,0-.12l0.08,0s0.07,0,.11.18,0.06-.05.08-0.15a0.35,0.35,0,0,1-.05.47h0s0,0,0,0a0.45,0.45,0,0,0,.09-0.42c0,0.29-.11.24-0.13,0.15a0.22,0.22,0,0,0-.06-0.14,0.09,0.09,0,0,0-.06.09,0.24,0.24,0,0,1,0,.12,1.13,1.13,0,0,0-.18.29,0.26,0.26,0,0,1,0,.2l-0.07,0a0.19,0.19,0,0,1-.18-0.2,0.64,0.64,0,0,1,.22-0.41,0.62,0.62,0,0,0,.14-0.48,0.21,0.21,0,0,1,0,.09,0.18,0.18,0,0,1-.1.13,0.18,0.18,0,0,1,0-.08c0-.24-0.09-0.25-0.09-0.25a0.09,0.09,0,0,0-.06.06,0.4,0.4,0,0,0,0,.12c0,0.12,0,.25,0,0.27a0.19,0.19,0,0,1-.13-0.07,0.19,0.19,0,0,0-.07-0.06s0,0,0,.11a0.27,0.27,0,0,0,0,.21,0.13,0.13,0,0,0,.1,0,0.25,0.25,0,0,1,0,.15,0.42,0.42,0,0,1,0,.24h0a0.52,0.52,0,0,1-.36-0.52,0.3,0.3,0,0,1,.17-0.27,0.45,0.45,0,0,0,.23-0.37,1,1,0,0,0-.06-0.23l-0.06.12a0.39,0.39,0,0,1-.18.22,0.17,0.17,0,0,1-.1-0.12,0.22,0.22,0,0,0-.05-0.09,1,1,0,0,1,0,.35l-0.08,0a0.17,0.17,0,0,1-.12-0.16c-0.09.07,0,.26,0.09,0.33v0.2l-0.09,0,0.09,0.17a1,1,0,0,0,.88.71,0.22,0.22,0,0,1,.08,0,1.23,1.23,0,0,0,.1.18,0.17,0.17,0,0,1,.11-0.08s-0.06-.11-0.06-0.28a0.66,0.66,0,0,0,.3.14s-0.05-.08,0-0.23a0.51,0.51,0,0,1,.06-0.16,0.16,0.16,0,0,0,0-.08h0a0.11,0.11,0,0,0-.08,0h0c0.14,0,.16,0,0.16,0a0.21,0.21,0,0,1,0,.12,0.45,0.45,0,0,0-.05.14,0.2,0.2,0,0,0,.06.19c0,0.13-.19.11-0.38-0.09a0.77,0.77,0,0,0,.13.25,0.09,0.09,0,0,1,0,0l0,0a0.1,0.1,0,0,0-.09.1,0,0,0,0,1,0,0h0Z" transform="translate(-1022.15 -1009.91)"/>
      <path class="p" d="M1068.09,1026.65c-0.13-.12-0.15,0-0.21,0a0.31,0.31,0,0,1-.08-0.07,0.23,0.23,0,0,0-.08,0l0,0.11a1,1,0,0,0,0,.15,0.18,0.18,0,0,1-.14.17,0.16,0.16,0,0,0,0-.13,0.63,0.63,0,0,1-.09-0.13,0.24,0.24,0,0,0,0-.16,0.67,0.67,0,0,1-.13,0,1,1,0,0,1-.09.11,0.32,0.32,0,0,1-.25,0c0.06,0,.1,0,0.16-0.06s0-.11.05-0.13l0.12-.06s0-.07,0-0.1-0.13,0-.16-0.05,0-.13-0.09-0.19a0.5,0.5,0,0,1,.14.1,0.2,0.2,0,0,1,.15,0s0.09,0.09.13,0.11l0-.12s-0.05-.1,0-0.13,0.08-.13.11-0.21,0,0.13,0,.19,0.07,0.05.08,0.09,0,0.11,0,.15h0.13s0.06-.09.1-0.1a0.5,0.5,0,0,1,.2,0,0.92,0.92,0,0,0-.13.1,0.22,0.22,0,0,1-.07.14s-0.11,0-.14,0l0.07,0.08s0.14,0,.16.07a0.21,0.21,0,0,1,.06.19h0Z" transform="translate(-1022.15 -1009.91)"/>
      <path class="p" d="M1064.69,1026.7c0.13-.12.15,0,0.21,0a0.28,0.28,0,0,0,.08-0.07,0.24,0.24,0,0,1,.08,0l0,0.11a1.27,1.27,0,0,1,0,.15,0.18,0.18,0,0,0,.14.17,0.16,0.16,0,0,1,0-.13,0.63,0.63,0,0,0,.09-0.13,0.23,0.23,0,0,1,0-.16,0.54,0.54,0,0,0,.13,0s0,0.08.08,0.11a0.32,0.32,0,0,0,.25,0c-0.05,0-.1,0-0.15-0.06s0-.11-0.05-0.13l-0.12-.06s0-.07,0-0.1,0.13,0,.16-0.05,0-.13.09-0.19a0.56,0.56,0,0,0-.14.1,0.21,0.21,0,0,0-.15,0s-0.09.09-.12,0.11l0-.12s0.05-.1,0-0.13-0.08-.13-0.11-0.21,0,0.13,0,.2-0.07.05-.08,0.09,0,0.11,0,.15h-0.13s-0.06-.09-0.1-0.1a0.48,0.48,0,0,0-.2,0,0.85,0.85,0,0,1,.13.09,0.24,0.24,0,0,0,.07.14s0.11,0,.13,0l-0.07.08s-0.13,0-.16.07a0.22,0.22,0,0,0-.06.19h0Z" transform="translate(-1022.15 -1009.91)"/>
      <path class="p" d="M1068,1027a1.26,1.26,0,0,0-.9,1c0,0.67.14,0.83,0,.84s-0.32-.75-0.31-1.08a0.55,0.55,0,0,1,0-.28,0.22,0.22,0,0,1,.18.21,0.77,0.77,0,0,0,.12-0.55,0.28,0.28,0,0,0,.29.07s-0.1-.11-0.13-0.19,0.14,0,.14,0a0.12,0.12,0,0,0-.15-0.12c-0.21,0,0-.07,0-0.07a0.13,0.13,0,0,0,.2,0,0.68,0.68,0,0,0-.21-0.14,0.58,0.58,0,0,0-.26-0.25,2,2,0,0,0-.35.06c0,0.08,0,.09,0,0.11a0.25,0.25,0,0,0-.06.28s0.22-.09.21,0.06-0.13.13-.21,0a0.06,0.06,0,0,0-.1,0l0.11,0.12a0.3,0.3,0,0,0-.27.14,0.34,0.34,0,0,1,.18,0,0.91,0.91,0,0,0-.27.17c0,0.06,0-.07,0-0.07l-0.24-.09-0.08.37a0.32,0.32,0,0,0,.25.11,0.56,0.56,0,0,1,.34-0.16,5,5,0,0,1-.71.56s-0.18-.17-0.23-0.1a0.08,0.08,0,0,0,.06.14c0.07,0-.23.07-0.17,0.2s0.06,0.12.11,0.09,0,0,.16-0.1,0.2-.12.2-0.12a0.23,0.23,0,0,1-.15.12c-0.11,0-.2,0-0.18.06a0.18,0.18,0,0,1,.06.13s0.23-.18.29,0a0.24,0.24,0,0,0,.2-0.33,0.4,0.4,0,0,1,0,.23c0,0.06.38-.2,0.17-0.35a0.79,0.79,0,0,1,.06.23,0.22,0.22,0,0,0,.12,0,0.3,0.3,0,0,0,0,.12,0.27,0.27,0,0,1,.12.27,0.22,0.22,0,0,0-.1-0.14,1.79,1.79,0,0,1-.37.16,0.63,0.63,0,0,0,.14.44,0.77,0.77,0,0,0-.21,0s-0.14-.15-0.17-0.05,0,0.08,0,.08a0.15,0.15,0,0,0-.16,0c-0.06.06-.11,0.12-0.07,0.14a0.61,0.61,0,0,0,.24,0,0.62,0.62,0,0,0-.21,0,0.13,0.13,0,0,0,0,.15,0.16,0.16,0,0,0,.17,0,0.25,0.25,0,0,1,0,.09,0.19,0.19,0,0,0,.21-0.2c0-.21,0,0.15,0,0.15a0.18,0.18,0,0,0,.21-0.18c0-.21,0,0.14,0,0.14a0.28,0.28,0,0,0,.13-0.08,1.51,1.51,0,0,1-.1.55,0.17,0.17,0,0,0-.25.07,2.15,2.15,0,0,1,0,.3c0,0.06.1,0,.11-0.06s0.15-.09.16-0.11l0-.1a0.23,0.23,0,0,1-.09.14,0.11,0.11,0,0,0-.09.13,1.93,1.93,0,0,0,.14.13,0.71,0.71,0,0,0,.14-0.3v0.08a0.24,0.24,0,0,0,.16-0.1c0-.07-0.15-0.13,0-0.24s0,0.1,0,.1a0.37,0.37,0,0,0,.08.16,0.43,0.43,0,0,0,0-.38,0.37,0.37,0,0,1,.12.09s0.11-.31,0-0.36l-0.18-.06s0.06-.08,0-0.09a0.28,0.28,0,0,0,.2.14c0-.05.08-0.21-0.15-0.29s0-.32,0-0.32,0.14,0.17.25,0.08,0-.09,0-0.09a0.9,0.9,0,0,0,.3-0.28,0.56,0.56,0,0,0-.15,0,0.3,0.3,0,0,0,.13-0.29,0.2,0.2,0,0,1-.15.09,0.4,0.4,0,0,0,.12-0.28c-0.09.07-.08,0.12-0.14,0.1s-0.15-.55.07-0.59,0.1,0.26.11,0.26,0.34-.13,0-0.36a0.43,0.43,0,0,1,.25.13s-0.07-.37-0.43-0.14a0.26,0.26,0,0,1,.22-0.14,0.37,0.37,0,0,0,.33-0.09,1,1,0,0,0-.27,0c-0.07,0,.51-0.07.46-0.36h0Z" transform="translate(-1022.15 -1009.91)"/>
      <path class="q" d="M1066.48,1030.56h0l-0.06-.06a0.21,0.21,0,0,1-.08-0.08,0.41,0.41,0,0,1,0-.07l0,0a0.23,0.23,0,0,1-.12.09c0-.09,0-0.26,0-0.34a0.2,0.2,0,0,1,.27-0.08,1.76,1.76,0,0,0,.08-0.51,0.27,0.27,0,0,1-.11.06,1.8,1.8,0,0,1,0-.21,0.05,0.05,0,0,1,0,0s0,0,0,.23a0.94,0.94,0,0,0,.1-0.08h0a1,1,0,0,1-.08.54l-0.11,0a0.18,0.18,0,0,0-.13.09,2,2,0,0,1,0,.3,0.28,0.28,0,0,0,.08-0.07,0.26,0.26,0,0,1,.1-0.07l0.06,0,0-.1a0.13,0.13,0,0,1-.07.16,0.12,0.12,0,0,0-.08.06,0.14,0.14,0,0,0,.07.11l0.07,0.06a1.43,1.43,0,0,0,.12-0.29l0,0.08a0.41,0.41,0,0,0,.13-0.1c-0.06-.1-0.11-0.17,0-0.25l0.06,0s0,0,0,.16a0.56,0.56,0,0,0,.07.14,0.75,0.75,0,0,0,0-.22,0.18,0.18,0,0,0,0-.13h0s0,0,.13.07a0.94,0.94,0,0,1,0-.14,0.16,0.16,0,0,0,0-.18l-0.17-.06a0.49,0.49,0,0,1,0-.09,1.19,1.19,0,0,0,.19.11,0.16,0.16,0,0,0,0-.13,0.24,0.24,0,0,0-.16-0.13,0.16,0.16,0,0,1-.11-0.11,0.33,0.33,0,0,1,.1-0.24,0.55,0.55,0,0,0,.19.1l0.1-.08s0,0.06,0,.08-0.24,0-.27-0.08a0.43,0.43,0,0,0-.07.21,0.13,0.13,0,0,0,.09.09,0.27,0.27,0,0,1,.18.15,0.19,0.19,0,0,1,0,.16H1067a0.19,0.19,0,0,1,0,.21,1.14,1.14,0,0,1,0,.17,0.24,0.24,0,0,1-.14-0.09,0.37,0.37,0,0,1,0,.34,0.06,0.06,0,0,1-.09,0v0a0.26,0.26,0,0,1-.17.11l0-.09a0.45,0.45,0,0,1-.12.32h0Zm-0.52-.91a0.33,0.33,0,0,1,0-.1,0.14,0.14,0,0,1-.12.06,0.13,0.13,0,0,1-.06-0.19l0,0-0.05,0a0.16,0.16,0,0,1,.07-0.17,0.11,0.11,0,0,1,.09,0l0,0h0l-0.09,0h0a0.28,0.28,0,0,0-.08.11,0.32,0.32,0,0,0,.16,0h0l-0.13,0a0.12,0.12,0,0,0,0,.13,0.18,0.18,0,0,0,.15,0s0,0,0,.1a0.2,0.2,0,0,0,.17-0.2,0.27,0.27,0,0,1,0,0h0a0.07,0.07,0,0,1,0,0s0,0,0,.23a0.18,0.18,0,0,0,.18-0.18v-0.05c0,0.23-.12.25-0.18,0.25a0.33,0.33,0,0,1-.05-0.2,0.18,0.18,0,0,1-.19.24h0Zm0.29-.45h-0.11a0.11,0.11,0,0,1-.11,0,0.18,0.18,0,0,0-.07,0l0,0,0,0a0.1,0.1,0,0,1,.14,0l0.09,0h0.17a0.67,0.67,0,0,1-.19-0.42,1.27,1.27,0,0,0,.3-0.13l0.11-.05s0.06,0,.08.08l0,0.07a0.34,0.34,0,0,0-.14-0.25,0.1,0.1,0,0,1,0-.11,0.18,0.18,0,0,1-.09,0,0.11,0.11,0,0,1,0-.05,0.43,0.43,0,0,1-.21.18,0.16,0.16,0,0,0,0-.1,0.26,0.26,0,0,1-.23.19c-0.08-.12-0.19,0-0.26,0h0c0.1-.1.24-0.11,0.28,0a0.25,0.25,0,0,0,.19-0.22,0.24,0.24,0,0,1,0-.1,0.09,0.09,0,0,1,.06.1,0.12,0.12,0,0,1,0,.12,0.7,0.7,0,0,0,.18-0.21s0-.08,0-0.13a0.1,0.1,0,0,1,.08.15,0.59,0.59,0,0,1,0,.07,1,1,0,0,0,.09,0,0.27,0.27,0,0,0,0,.12,0.28,0.28,0,0,1,.12.29,0.11,0.11,0,0,1-.06-0.07,0.1,0.1,0,0,0,0-.06l-0.1,0a0.76,0.76,0,0,1-.27.11,0.75,0.75,0,0,0,.16.42,0.09,0.09,0,0,1-.07,0h0Zm0.79-.38a0.13,0.13,0,0,1-.1,0,2,2,0,0,1-.2-1c0-.3,0-0.3,0-0.3a0.25,0.25,0,0,1,.19.22,0.31,0.31,0,0,0-.19-0.18,1.93,1.93,0,0,1,0,.26,1.89,1.89,0,0,0,.19,1,0.14,0.14,0,0,0,.11,0,0.17,0.17,0,0,0,0-.19,4,4,0,0,1,0-.63,1.09,1.09,0,0,1,.78-0.91l0.13-.07c0.06,0.23-.24.32-0.38,0.36h0.14l0.07,0c0,0.1-.2.12-0.28,0.12h-0.08a0.22,0.22,0,0,0-.14.09,0.24,0.24,0,0,1,.15-0.06,0.28,0.28,0,0,1,.24.23,1.42,1.42,0,0,0-.24-0.11,0.19,0.19,0,0,1,.14.22,0.26,0.26,0,0,1-.16.14,0.47,0.47,0,0,0,0-.24,0.08,0.08,0,0,0-.07,0,0.16,0.16,0,0,0-.15.15,0.7,0.7,0,0,0,0,.41l0.12-.1a0.3,0.3,0,0,1-.07.28,0.28,0.28,0,0,0,.1-0.09,0.25,0.25,0,0,1-.06.28h0.06v0l-0.12,0a0.45,0.45,0,0,0,.11-0.3,0.15,0.15,0,0,1-.13.11,0.75,0.75,0,0,0,.1-0.29,0.17,0.17,0,0,1,0,.08l-0.08,0h0a0.55,0.55,0,0,1-.08-0.37,0.22,0.22,0,0,1,.15-0.24,0.13,0.13,0,0,1,.13,0,0.29,0.29,0,0,1,0,.22,0.25,0.25,0,0,0,.11-0.13,0.23,0.23,0,0,0-.14-0.19,0.33,0.33,0,0,1,.25.09,0.27,0.27,0,0,0-.41-0.1,0.24,0.24,0,0,1,.18-0.17h0.08a0.31,0.31,0,0,0,.25-0.07h-0.22a0.19,0.19,0,0,1,0-.07c0.14,0,.42-0.12.39-0.31a0.15,0.15,0,0,1-.11.08,1.05,1.05,0,0,0-.76.88,3.89,3.89,0,0,0,0,.63,0.3,0.3,0,0,1,0,.2H1067Zm-1.39-.22-0.07-.08,0,0c-0.08,0-.09,0-0.13-0.08a0.1,0.1,0,0,1,0-.08,0.28,0.28,0,0,1,.15-0.12,0.07,0.07,0,0,1-.05,0,0.12,0.12,0,0,1,0-.12,0.26,0.26,0,0,1,.24.08,1.11,1.11,0,0,0,.39-0.28l0.26-.22a1.45,1.45,0,0,1-.23.24,1.48,1.48,0,0,1-.4.3,0.51,0.51,0,0,0-.2-0.12,0.08,0.08,0,0,0,0,.1h0l0.07,0a1.1,1.1,0,0,0-.17.16,0.4,0.4,0,0,0,.06.14l0.06-.07a0.07,0.07,0,0,1,.06,0l0.07,0a0.49,0.49,0,0,0,.17-0.07,0.12,0.12,0,0,1-.11.11l-0.12,0,0,0a0.21,0.21,0,0,1,0,.1h0Zm0.48-.78a0.41,0.41,0,0,1-.25-0.11l0.08-.38a1.32,1.32,0,0,1,.26.07l0,0.08,0,0a0.39,0.39,0,0,0-.24-0.1l-0.06.35a0.39,0.39,0,0,0,.19.1l0.11-.06a0.49,0.49,0,0,1,.24-0.12v0a0.87,0.87,0,0,0-.2.12l-0.08.05h0Zm0.85-.12v0a1.22,1.22,0,0,0,.08-0.54,0.38,0.38,0,0,0,.3,0,0.6,0.6,0,0,1-.14-0.17h0l0.11,0.14c0,0.08-.07.08-0.07,0.08a0.3,0.3,0,0,1-.22-0.09,0.84,0.84,0,0,1-.08.57h0Zm-0.71-.21h0a0.52,0.52,0,0,1,.23-0.17h-0.1a0.26,0.26,0,0,1,.15,0,1.7,1.7,0,0,0-.26.19h0Zm0.12-.25a0.23,0.23,0,0,1,.21-0.1l-0.12-.09a0.08,0.08,0,0,1,.07-0.08c0.21,0.14.22,0.07,0.23,0l-0.07-.07a0.37,0.37,0,0,0-.12,0,0.23,0.23,0,0,1,0-.31,0,0,0,0,1-.07,0,0.12,0.12,0,0,1,0-.09,0.36,0.36,0,0,0,.19,0,0.21,0.21,0,0,1,.11,0H1067a0.57,0.57,0,0,1,.27.26,0.5,0.5,0,0,1,.21.14c-0.07.16-.22,0-0.22,0l-0.08,0h0.06a0.22,0.22,0,0,1,.13,0,0.13,0.13,0,0,1,0,.09l-0.15-.05a0.15,0.15,0,0,1,.11,0l0,0a0.15,0.15,0,0,0-.1,0c-0.08,0-.11,0-0.11,0s0,0,.13-0.07,0.13,0.08.19,0a0.89,0.89,0,0,0-.21-0.12,0.61,0.61,0,0,0-.26-0.25,0.23,0.23,0,0,0-.16,0,0.3,0.3,0,0,1-.15,0,0.13,0.13,0,0,1,0,.05,0.17,0.17,0,0,1,0,.05,0.22,0.22,0,0,0-.06.25,0.17,0.17,0,0,1,.11,0l0.08,0a0.1,0.1,0,0,1,0,.08,0.1,0.1,0,0,1-.1.13,0.2,0.2,0,0,1-.14-0.08l-0.07,0,0.11,0.11a0.74,0.74,0,0,0-.23.1h0Z" transform="translate(-1022.15 -1009.91)"/>
      <path class="q" d="M1066.53,1028.35a0.7,0.7,0,0,1,0-.09,0.26,0.26,0,0,0,0-.18l0.14,0s-0.08-.09-0.09-0.15a0.49,0.49,0,0,1-.3.1,0,0,0,0,1,0,0l0,0a0.53,0.53,0,0,0,.47-0.28,0.6,0.6,0,0,1-.14.19h0a0.26,0.26,0,0,0,.05.15s-0.08.06-.12,0a0.17,0.17,0,0,1,.06.17,0.12,0.12,0,0,1-.06.08h0Zm-0.6-1.07a0.44,0.44,0,0,0-.48,0h0a0,0,0,0,1,0,0,0.41,0.41,0,0,1,.5,0h0Z" transform="translate(-1022.15 -1009.91)"/>
      <path class="s" d="M1066.43,1030a0.39,0.39,0,0,1-.23.13Z" transform="translate(-1022.15 -1009.91)"/>
      <path class="q" d="M1066.2,1030.18a0.63,0.63,0,0,0,.22-0.16h0a0,0,0,0,1,0,0,0.41,0.41,0,0,1-.24.13h0Zm0.35-.67h0s0-.1,0-0.2a0.4,0.4,0,0,1-.42.1,0.4,0.4,0,0,0,.42-0.15,0.44,0.44,0,0,1,0-.19,0.32,0.32,0,0,1,.1-0.15,0.7,0.7,0,0,0,.11-0.14,0.27,0.27,0,0,1-.08.17,0.29,0.29,0,0,0-.09.14,0.39,0.39,0,0,0,0,.17h0c0,0.09,0,.19,0,0.24a0,0,0,0,1,0,0h0Zm-0.11-.56-0.13,0a0.41,0.41,0,0,0,.23,0,0.19,0.19,0,0,0,.05-0.15,0,0,0,0,1,0,0l0,0a0.21,0.21,0,0,1-.07.17,0.18,0.18,0,0,1-.12,0h0Zm-0.29-1.16a0.25,0.25,0,0,1,.05-0.29h0a0,0,0,0,1,0,0,0.28,0.28,0,0,0-.08.26h0Z" transform="translate(-1022.15 -1009.91)"/>
      <path class="o" d="M1066.7,1027.21a1,1,0,0,0,.2-0.1,0.54,0.54,0,0,0,.1-0.15,0.33,0.33,0,0,1,0-.24c0-.05.1-0.06,0.19,0s-0.09-.19-0.18-0.2a1,1,0,0,0-.18.05,0.26,0.26,0,0,1,0,.07,1.2,1.2,0,0,0,.07.11s0.13,0.19.12,0.22a1,1,0,0,1-.24.24h0Z" transform="translate(-1022.15 -1009.91)"/>
      <path class="p" d="M1066.82,1026.65c0.07,0,.08,0,0.07.07a0.2,0.2,0,0,1-.07-0.07h0Z" transform="translate(-1022.15 -1009.91)"/>
      <path class="a" d="M1066.82,1026.65c0.07,0,.08,0,0.07.07A0.2,0.2,0,0,1,1066.82,1026.65Z" transform="translate(-1022.15 -1009.91)"/>
      <path class="s" d="M1066.31,1030.44a0.21,0.21,0,0,0,0,.19,0.2,0.2,0,0,1,0-.13l-0.07-.06h0Z" transform="translate(-1022.15 -1009.91)"/>
      <path class="a" d="M1066.31,1030.44a0.21,0.21,0,0,0,0,.19,0.2,0.2,0,0,1,0-.13Z" transform="translate(-1022.15 -1009.91)"/>
      <path class="s" d="M1066.16,1030.22c-0.06,0-.16,0-0.13.11a1,1,0,0,0,.13,0,0.11,0.11,0,0,0,0-.07h0Z" transform="translate(-1022.15 -1009.91)"/>
      <path class="a" d="M1066.16,1030.22c-0.06,0-.16,0-0.13.11a1,1,0,0,0,.13,0A0.11,0.11,0,0,0,1066.16,1030.22Z" transform="translate(-1022.15 -1009.91)"/>
      <path class="s" d="M1066.16,1030.09a0.09,0.09,0,0,0-.11.05,0.16,0.16,0,0,1,.11,0,0.14,0.14,0,0,0,0-.05h0Z" transform="translate(-1022.15 -1009.91)"/>
      <path class="a" d="M1066.16,1030.09a0.09,0.09,0,0,0-.11.05,0.16,0.16,0,0,1,.11,0A0.14,0.14,0,0,0,1066.16,1030.09Z" transform="translate(-1022.15 -1009.91)"/>
      <path class="s" d="M1065.76,1029.09a0.14,0.14,0,0,1,.07.08s0.07-.16-0.07-0.08h0Z" transform="translate(-1022.15 -1009.91)"/>
      <path class="a" d="M1065.76,1029.09a0.14,0.14,0,0,1,.07.08S1065.9,1029,1065.76,1029.09Z" transform="translate(-1022.15 -1009.91)"/>
      <path class="s" d="M1065.62,1029.24s0.12-.08.13,0a0.13,0.13,0,0,1-.05,0,0.21,0.21,0,0,0-.08,0h0Z" transform="translate(-1022.15 -1009.91)"/>
      <path class="a" d="M1065.62,1029.24s0.12-.08.13,0a0.13,0.13,0,0,1-.05,0A0.21,0.21,0,0,0,1065.62,1029.24Z" transform="translate(-1022.15 -1009.91)"/>
      <path class="s" d="M1065.61,1029.49s0.08-.07.1,0,0,0,0,0l-0.08,0h0Z" transform="translate(-1022.15 -1009.91)"/>
      <path class="a" d="M1065.61,1029.49s0.08-.07.1,0,0,0,0,0Z" transform="translate(-1022.15 -1009.91)"/>
      <path class="s" d="M1065.5,1028.12a0.11,0.11,0,0,0-.13,0,0.18,0.18,0,0,1,.11.05s0-.07,0-0.09h0Z" transform="translate(-1022.15 -1009.91)"/>
      <path class="a" d="M1065.5,1028.12a0.11,0.11,0,0,0-.13,0,0.18,0.18,0,0,1,.11.05S1065.46,1028.13,1065.5,1028.12Z" transform="translate(-1022.15 -1009.91)"/>
      <path class="s" d="M1065.32,1028.63a0.28,0.28,0,0,1,.05-0.16,0.19,0.19,0,0,1,.06.08,0.12,0.12,0,0,0-.11.08h0Z" transform="translate(-1022.15 -1009.91)"/>
      <path class="a" d="M1065.32,1028.63a0.28,0.28,0,0,1,.05-0.16,0.19,0.19,0,0,1,.06.08A0.12,0.12,0,0,0,1065.32,1028.63Z" transform="translate(-1022.15 -1009.91)"/>
      <path class="s" d="M1065.57,1028.55s-0.1.05-.07,0.11a0.08,0.08,0,0,1,.07,0v-0.08h0Z" transform="translate(-1022.15 -1009.91)"/>
      <path class="a" d="M1065.57,1028.55s-0.1.05-.07,0.11a0.08,0.08,0,0,1,.07,0v-0.08Z" transform="translate(-1022.15 -1009.91)"/>
      <path class="p" d="M1065.42,1027.44s0,0.14.13,0.13-0.11-.16-0.13-0.12h0Z" transform="translate(-1022.15 -1009.91)"/>
      <path class="a" d="M1065.42,1027.44s0,0.14.13,0.13S1065.44,1027.41,1065.42,1027.44Z" transform="translate(-1022.15 -1009.91)"/>
      <path class="s" d="M1065.52,1027.36a0.07,0.07,0,0,0,.09.06,0.22,0.22,0,0,0-.06-0.11s0,0,0,0h0Z" transform="translate(-1022.15 -1009.91)"/>
      <path class="a" d="M1065.52,1027.36a0.07,0.07,0,0,0,.09.06,0.22,0.22,0,0,0-.06-0.11S1065.56,1027.36,1065.52,1027.36Z" transform="translate(-1022.15 -1009.91)"/>
      <path class="s" d="M1065.57,1027.6s0,0,.12-0.05a0.19,0.19,0,0,1-.1,0,0.11,0.11,0,0,1,0,.07h0Z" transform="translate(-1022.15 -1009.91)"/>
      <path class="a" d="M1065.57,1027.6s0,0,.12-0.05a0.19,0.19,0,0,1-.1,0A0.11,0.11,0,0,1,1065.57,1027.6Z" transform="translate(-1022.15 -1009.91)"/>
      <path class="p" d="M1065.42,1027.25s0,0.11.1,0.09-0.08-.12-0.1-0.09h0Z" transform="translate(-1022.15 -1009.91)"/>
      <path class="a" d="M1065.42,1027.25s0,0.11.1,0.09S1065.44,1027.22,1065.42,1027.25Z" transform="translate(-1022.15 -1009.91)"/>
    </g>
    <g class="t">
      <rect class="u" x="43.21" y="16.35" width="1.3" height="0.79"/>
    </g>
    <g class="b">
      <path class="v" d="M1061.5,1038a3.28,3.28,0,0,1,1.89.77,7.56,7.56,0,0,0-.34-1.57,2,2,0,0,0-.82-0.11,5.22,5.22,0,0,0-.73.91h0Z" transform="translate(-1022.15 -1009.91)"/>
      <path d="M1063.44,1038.87l-0.06-.07a3.42,3.42,0,0,0-1.81-.76l-0.06,0,0-.05a5.08,5.08,0,0,1,.73-0.91,0.19,0.19,0,0,1,.15,0,3.61,3.61,0,0,1,.71.13,6.35,6.35,0,0,1,.37,1.6v0.09h0Zm-1.82-.85a3.17,3.17,0,0,1,1.74.68,7.46,7.46,0,0,0-.33-1.48,6.69,6.69,0,0,0-.67-0.11,0.16,0.16,0,0,0-.1,0,5.24,5.24,0,0,0-.73.9h0.09Z" transform="translate(-1022.15 -1009.91)"/>
      <path class="v" d="M1061.13,1033.91a0.37,0.37,0,0,0-.25.21,5,5,0,0,1-.31,1,0.53,0.53,0,0,0-.27.28,0.51,0.51,0,0,0,.39.54,2.07,2.07,0,0,0,1-.61,2.35,2.35,0,0,0,.44-0.71c-0.73.25-1.25-.42-1-0.7h0Z" transform="translate(-1022.15 -1009.91)"/>
      <path d="M1060.71,1036h0a0.54,0.54,0,0,1-.43-0.57,0.23,0.23,0,0,1,.14-0.19l0.14-.11a1.66,1.66,0,0,0,.2-0.58,3.09,3.09,0,0,1,.11-0.4,0.42,0.42,0,0,1,.28-0.23,0.46,0.46,0,0,0,0,.36,0.8,0.8,0,0,0,1,.34,1.84,1.84,0,0,1-.4.76,2.12,2.12,0,0,1-1,.62h0Zm0.4-2.06a1.35,1.35,0,0,0-.2.24,3.1,3.1,0,0,0-.1.38,1.57,1.57,0,0,1-.21.61,0.87,0.87,0,0,1-.15.12,0.18,0.18,0,0,0-.11.14,0.48,0.48,0,0,0,.38.51h0a2.09,2.09,0,0,0,1-.6,2.35,2.35,0,0,0,.43-0.69,0.38,0.38,0,0,1-.29.1,0.79,0.79,0,0,1-.73-0.44,0.34,0.34,0,0,1,0-.37h0Z" transform="translate(-1022.15 -1009.91)"/>
      <path class="v" d="M1071.74,1037.88a3.34,3.34,0,0,0-1.9.76,7.56,7.56,0,0,1,.34-1.56,1.86,1.86,0,0,1,.8-0.11,5.25,5.25,0,0,1,.76.9h0Z" transform="translate(-1022.15 -1009.91)"/>
      <path d="M1069.8,1038.72v-0.09a7.65,7.65,0,0,1,.35-1.57,1.61,1.61,0,0,1,.85-0.12l0.08,0.08a4.35,4.35,0,0,1,.69.83l0,0h-0.11a3.43,3.43,0,0,0-1.82.76l-0.06.07h0Zm0.42-1.63a6.17,6.17,0,0,0-.34,1.46,3.64,3.64,0,0,1,1.8-.71h0.07c-0.16-.21-0.52-0.58-0.71-0.78L1071,1037a0.15,0.15,0,0,0-.1,0,3.17,3.17,0,0,0-.64.13h0Z" transform="translate(-1022.15 -1009.91)"/>
      <path class="v" d="M1072.08,1033.79a0.41,0.41,0,0,1,.18.27,2.71,2.71,0,0,0,.34.73,0.86,0.86,0,0,1,.27.47,0.42,0.42,0,0,1-.41.41,1.89,1.89,0,0,1-.93-0.47,2.41,2.41,0,0,1-.43-0.7c0.73,0.25,1.2-.4,1-0.7h0Z" transform="translate(-1022.15 -1009.91)"/>
      <path d="M1072.45,1035.7a1.93,1.93,0,0,1-.93-0.48,2.43,2.43,0,0,1-.44-0.71l0.35,0h0a0.7,0.7,0,0,0,.63-0.36,0.33,0.33,0,0,0,0-.35c0.12,0,.15,0,0.2.15l0.11,0.27a1.68,1.68,0,0,0,.26.53,0.9,0.9,0,0,1,.28.49,0.45,0.45,0,0,1-.43.44h0Zm-1.35-1.17a3.5,3.5,0,0,0,.47.65,1.9,1.9,0,0,0,.89.46v0l0,0c0.38-.11.38-0.29,0.38-0.38a0.84,0.84,0,0,0-.26-0.45,1.68,1.68,0,0,1-.27-0.55l-0.11-.27a0.24,0.24,0,0,0-.12-0.17,0.27,0.27,0,0,1,0,.37,0.76,0.76,0,0,1-.69.39h0a1,1,0,0,1-.33-0.06h0Z" transform="translate(-1022.15 -1009.91)"/>
      <path class="l" d="M1060.71,1037.24a2.43,2.43,0,0,1,.78.76,6.4,6.4,0,0,1,10.24-.21,2.18,2.18,0,0,1,.8-0.69c-3.13-4.09-9.37-3.58-11.82.14h0Z" transform="translate(-1022.15 -1009.91)"/>
      <path d="M1061.46,1038.1V1038a2.27,2.27,0,0,0-.76-0.74,7,7,0,0,1,6-3.06,7.36,7.36,0,0,1,5.91,2.88,3.5,3.5,0,0,0-.8.73,6.41,6.41,0,0,0-10.24.21l-0.05.08h0Zm5.19-3.83a7.07,7.07,0,0,0-5.91,3,2.25,2.25,0,0,1,.76.67,6.41,6.41,0,0,1,5.25-2.63,6.29,6.29,0,0,1,5,2.47,1.91,1.91,0,0,1,.77-0.7,7.44,7.44,0,0,0-5.87-2.81h0Z" transform="translate(-1022.15 -1009.91)"/>
      <path class="w" d="M1068.47,1025.64h0.3l-0.53.68,0.64,0.74-1.26,1.58,1.19,1.43a3.64,3.64,0,0,1-.48.87l-0.68-.75,1.23-1.54-1-1.15Z" transform="translate(-1022.15 -1009.91)"/>
      <path d="M1068.32,1031l-0.71-.78,0.6-.79-0.62-.76,0.58-.76-0.33-.38,0.34-1.08h0l0-.11,0,0,0,0,0.21-.63,0.33,0-0.5.76,0.63,0.67-0.67.88,0.67,0.71-0.62.81,0.55,0.61a3.29,3.29,0,0,1-.48.91l0,0h0Zm-0.09-1.56-0.57.78,0.65,0.69a3.57,3.57,0,0,0,.46-0.84l-0.51-.59h0l0,0h0Zm-0.05-1.52-0.54.74,0.62,0.71,0.59-.74-0.64-.69h0l0,0h0Zm0-1.52-0.32,1.11,0.32,0.34,0.64-.81-0.59-.66h0l0,0,0,0h0Zm0.54-.78-0.27.05-0.14.46,0.41-.52h0Z" transform="translate(-1022.15 -1009.91)"/>
      <path class="w" d="M1064.21,1025.77h-0.32l0.6,0.65-0.63.79,1.31,1.43-1.09,1.46a4.19,4.19,0,0,0,.52.94l0.65-.82-1.33-1.48,1-1.23Z" transform="translate(-1022.15 -1009.91)"/>
      <path d="M1064.6,1031.08l0,0a4.15,4.15,0,0,1-.52-0.94l0.47-.65-0.63-.7,0.6-.8-0.67-.72,0.61-.79v0l-0.56-.61,0.34-.06,0.3,0.66v0l0,0.11-0.07-.08h0l0.46,1-0.36.49,0.63,0.64-0.61.86,0.69,0.72-0.67.88h0Zm-0.06-1.61-0.43.64a5,5,0,0,0,.5.87l0.62-.79-0.66-.7h0l0,0h0Zm0-1.5-0.57.78,0.61,0.65,0.59-.78-0.6-.62h0l0,0h0Zm-0.07-1.52-0.57.78,0.66,0.68,0.33-.42-0.42-1h0Zm-0.26-.67-0.29,0,0.48,0.46-0.19-.49h0Z" transform="translate(-1022.15 -1009.91)"/>
      <path class="w" d="M1065.69,1029.61l-0.47.63,1.68,1.94a4.08,4.08,0,0,0,.78-0.52l-0.87-1,0.36-1,0.51,0.59-1.6,2a3.44,3.44,0,0,1-.83-0.51l0.84-1.07Z" transform="translate(-1022.15 -1009.91)"/>
      <path d="M1066.08,1032.26h0a3.44,3.44,0,0,1-.84-0.52l0.58-.78-0.6-.7,0.47-.66,0.45,1-0.26.35,0.64,0.69,0.53-.72-0.25-.29,0.35-1.07,0.56,0.58-0.6.81,0.61,0.65a3,3,0,0,1-.79.57h0l-0.42-.48-0.39.53h0Zm-0.27-1.29-0.55.76a5.42,5.42,0,0,0,.8.45l0.4-.51-0.62-.68h0l0,0h0Zm1.23,0-0.54.75,0.39,0.42a4.24,4.24,0,0,0,.75-0.51l-0.58-.63h0l0,0h0Zm-1.39-1.35-0.42.63,0.59,0.65,0.22-.28-0.4-1h0Zm1.47,0-0.3,1,0.24,0.25,0.58-.73-0.51-.55h0Z" transform="translate(-1022.15 -1009.91)"/>
      <polygon class="w" points="43.02 18.73 43.33 19.11 43.13 18.59 43.02 18.73"/>
      <polygon points="43.43 19.29 43 18.75 43.1 18.57 43.43 19.29 43.43 19.29"/>
      <path class="w" d="M1067.35,1029l0.25-.33-0.09-.13Z" transform="translate(-1022.15 -1009.91)"/>
      <path d="M1067.29,1029.08l0.19-.57,0.14,0.12a3.22,3.22,0,0,1-.25.37l-0.09.09h0Z" transform="translate(-1022.15 -1009.91)"/>
      <polygon points="39.35 27.56 38.98 27.24 39.02 27.19 39.35 27.47 39.5 27.29 39.55 27.32 39.35 27.56"/>
      <polygon points="39.62 27.21 39.27 26.87 39.52 26.62 39.56 26.66 39.36 26.86 39.47 26.97 39.65 26.78 39.7 26.82 39.5 27.01 39.62 27.13 39.83 26.91 39.88 26.95 39.62 27.21"/>
      <path d="M1061.87,1036.63a0.24,0.24,0,0,1-.06-0.18,0.21,0.21,0,0,1,.09-0.14,0.23,0.23,0,0,1,.11,0,0.19,0.19,0,0,1,.11,0,0.3,0.3,0,0,1,.15.2,0.2,0.2,0,0,1,0,.11,0.25,0.25,0,0,1-.07.09,0.23,0.23,0,0,1-.11,0,0.22,0.22,0,0,1-.12,0,0.24,0.24,0,0,1-.09-0.08h0Zm0.05,0a0.19,0.19,0,0,0,.12.08,0.16,0.16,0,0,0,.12,0,0.14,0.14,0,0,0,.06-0.1,0.2,0.2,0,0,0,0-.14l-0.08-.07-0.08,0-0.08,0a0.15,0.15,0,0,0-.06.1,0.21,0.21,0,0,0,.05.15h0Z" transform="translate(-1022.15 -1009.91)"/>
      <polygon points="40.52 26.36 40.28 26 40.15 26.1 40.12 26.05 40.44 25.83 40.47 25.88 40.34 25.97 40.58 26.33 40.52 26.36"/>
      <polygon points="40.72 26.21 40.51 25.77 40.83 25.62 40.85 25.67 40.59 25.79 40.65 25.93 40.9 25.81 40.92 25.86 40.68 25.98 40.75 26.13 41.02 26 41.05 26.05 40.72 26.21"/>
      <path d="M1063.24,1035.88l-0.2-.45,0.2-.09,0.1,0,0.07,0a0.15,0.15,0,0,1,0,.06,0.12,0.12,0,0,1,0,.09,0.18,0.18,0,0,1-.08.08h0l0.07,0,0.13,0.09-0.07,0-0.1-.07-0.07,0,0,0h-0.07l-0.07,0,0.09,0.2Zm-0.05-.28,0.13-.06,0.06,0a0.07,0.07,0,0,0,0,0,0.09,0.09,0,0,0,0,0,0.07,0.07,0,0,0,0,0,0.12,0.12,0,0,0-.08,0l-0.14.06Z" transform="translate(-1022.15 -1009.91)"/>
      <path d="M1063.64,1035.66l-0.18-.46,0.2-.08,0.1,0,0.07,0a0.12,0.12,0,0,1,0,.06,0.11,0.11,0,0,1,0,.09,0.15,0.15,0,0,1-.08.08h0l0.07,0,0.13,0.09-0.08,0-0.1-.07-0.07,0,0,0h-0.07l-0.07,0,0.08,0.2Zm0-.28,0.13-.05,0.06,0a0.07,0.07,0,0,0,0,0,0.07,0.07,0,0,0,0,0,0.08,0.08,0,0,0,0,0h-0.08l-0.14.06Z" transform="translate(-1022.15 -1009.91)"/>
      <path d="M1065.7,1035l0-.49,0.21,0h0.1a0.1,0.1,0,0,1,.06,0,0.12,0.12,0,0,1,0,.07,0.11,0.11,0,0,1,0,.09,0.16,0.16,0,0,1-.1.05l0,0,0.06,0.06,0.1,0.13h-0.08l-0.07-.1-0.05-.06,0,0h-0.14l0,0.22h-0.07Zm0-.28H1066l0,0a0.06,0.06,0,0,0,0,0,0.07,0.07,0,0,0,0-.06h-0.24v0.16Z" transform="translate(-1022.15 -1009.91)"/>
      <path d="M1066.93,1035v-0.49h0.22l0.1,0a0.11,0.11,0,0,1,.05,0,0.14,0.14,0,0,1,0,.07,0.13,0.13,0,0,1,0,.09,0.17,0.17,0,0,1-.1,0l0,0,0.05,0.07,0.08,0.13h-0.08l-0.06-.1,0-.07,0,0H1067V1035h-0.06Zm0.07-.27h0.21l0,0a0.08,0.08,0,0,0,0,0,0.07,0.07,0,0,0,0-.06,0.11,0.11,0,0,0-.08,0H1067v0.16Z" transform="translate(-1022.15 -1009.91)"/>
      <path d="M1069.39,1035.54l0.24-.43,0.19,0.11,0.08,0.06a0.1,0.1,0,0,1,0,.07,0.13,0.13,0,0,1,0,.07,0.12,0.12,0,0,1-.07.06,0.16,0.16,0,0,1-.11,0l0,0a0.44,0.44,0,0,1,0,.08v0.16l-0.07,0v-0.12a0.78,0.78,0,0,0,0-.08v0l0,0,0,0-0.06,0-0.11.19Zm0.19-.21,0.12,0.07,0.06,0h0l0,0a0.07,0.07,0,0,0,0-.06,0.11,0.11,0,0,0-.06-0.06l-0.13-.08Z" transform="translate(-1022.15 -1009.91)"/>
      <polygon points="48.4 26.31 48.71 25.94 48.98 26.17 48.95 26.21 48.73 26.02 48.63 26.14 48.84 26.31 48.8 26.36 48.59 26.18 48.49 26.31 48.72 26.5 48.68 26.55 48.4 26.31"/>
      <path d="M1069.86,1035.58a0.24,0.24,0,0,1,.09-0.17,0.23,0.23,0,0,1,.18,0,0.25,0.25,0,0,1,.11.05,0.21,0.21,0,0,1,.07.1,0.28,0.28,0,0,1,0,.13,0.27,0.27,0,0,1,0,.12,0.19,0.19,0,0,1-.1.07,0.22,0.22,0,0,1-.12,0,0.27,0.27,0,0,1-.12-0.05,0.22,0.22,0,0,1-.06-0.1,0.25,0.25,0,0,1,0-.12h0Zm0.06,0a0.19,0.19,0,0,0,0,.14,0.16,0.16,0,0,0,.11.07,0.15,0.15,0,0,0,.12,0,0.19,0.19,0,0,0,.07-0.13,0.22,0.22,0,0,0,0-.1,0.14,0.14,0,0,0,0-.08l-0.08,0a0.18,0.18,0,0,0-.12,0,0.2,0.2,0,0,0-.07.14h0Z" transform="translate(-1022.15 -1009.91)"/>
      <path d="M1066.08,1034.77a0.28,0.28,0,0,1,0-.19,0.2,0.2,0,0,1,.14-0.09,0.21,0.21,0,0,1,.12,0,0.2,0.2,0,0,1,.09.08,0.32,0.32,0,0,1,0,.26,0.19,0.19,0,0,1-.06.1,0.2,0.2,0,0,1-.1,0,0.19,0.19,0,0,1-.12,0,0.2,0.2,0,0,1-.09-0.08,0.28,0.28,0,0,1,0-.12h0Zm0.06,0a0.2,0.2,0,0,0,.06.13,0.15,0.15,0,0,0,.12,0,0.14,0.14,0,0,0,.1-0.07,0.21,0.21,0,0,0,0-.15,0.27,0.27,0,0,0,0-.1,0.14,0.14,0,0,0-.06-0.06,0.12,0.12,0,0,0-.08,0,0.15,0.15,0,0,0-.1.06,0.23,0.23,0,0,0,0,.16h0Z" transform="translate(-1022.15 -1009.91)"/>
      <path d="M1064,1035.47v-0.52l0.06,0,0.36,0.39-0.07,0-0.11-.12-0.19.07v0.16Zm0.06-.24,0.15-.06-0.1-.11-0.07-.08a0.51,0.51,0,0,1,0,.1v0.15Z" transform="translate(-1022.15 -1009.91)"/>
      <path d="M1071.21,1036.76l0.48-.21,0,0-0.2.49-0.05-.05,0.06-.15-0.14-.14-0.14.07Zm0.24,0,0.12,0.12,0.06-.13,0-.1-0.09,0Z" transform="translate(-1022.15 -1009.91)"/>
      <path d="M1067.64,1035l0.28-.44H1068l0.1,0.52-0.07,0,0-.16-0.2,0-0.08.13h-0.07Zm0.18-.17,0.16,0,0-.14v-0.11l0,0.09Z" transform="translate(-1022.15 -1009.91)"/>
      <path d="M1064.48,1035.29l-0.09-.48,0.1,0,0.18,0.32,0,0.07v-0.08l0.05-.36h0.08l0.09,0.48h-0.06l-0.08-.4-0.06.43h-0.06l-0.21-.38,0.08,0.41h-0.06Z" transform="translate(-1022.15 -1009.91)"/>
      <path d="M1065.29,1035.1l0-.49,0.18,0h0.07l0.06,0,0,0a0.15,0.15,0,0,1,0,.06,0.14,0.14,0,0,1,0,.11,0.18,0.18,0,0,1-.14.06l-0.12,0,0,0.2h-0.07Zm0-.26h0.13a0.12,0.12,0,0,0,.09,0,0.07,0.07,0,0,0,0-.07,0.09,0.09,0,0,0,0-.05l0,0h-0.19Z" transform="translate(-1022.15 -1009.91)"/>
      <path d="M1066.56,1035v-0.49h0.26l0.06,0a0.11,0.11,0,0,1,0,0,0.12,0.12,0,0,1,0,.07,0.15,0.15,0,0,1,0,.11,0.2,0.2,0,0,1-.14,0h-0.13v0.2h-0.06Zm0.06-.26h0.13a0.14,0.14,0,0,0,.09,0,0.09,0.09,0,0,0,0-.12l0,0h-0.19v0.18Z" transform="translate(-1022.15 -1009.91)"/>
      <path d="M1069,1035.35l0.24-.43,0.16,0.09,0.06,0,0,0a0.1,0.1,0,0,1,0,.06,0.13,0.13,0,0,1,0,.06,0.15,0.15,0,0,1-.09.07,0.2,0.2,0,0,1-.15,0l-0.11-.06-0.1.17Zm0.18-.19,0.11,0.06,0.09,0a0.08,0.08,0,0,0,.05,0,0.07,0.07,0,0,0,0-.05,0.06,0.06,0,0,0,0,0l-0.05,0-0.11-.06Z" transform="translate(-1022.15 -1009.91)"/>
      <polygon points="45.27 25.1 45.33 24.61 45.39 24.62 45.33 25.11 45.27 25.1"/>
      <polygon points="49.48 27.29 49.79 26.99 49.68 26.87 49.72 26.83 49.99 27.11 49.94 27.16 49.83 27.04 49.52 27.33 49.48 27.29"/>
      <polygon points="48.13 26.14 48.39 25.8 48.26 25.7 48.3 25.66 48.6 25.89 48.57 25.93 48.44 25.84 48.18 26.18 48.13 26.14"/>
      <path d="M1068.14,1035.12l0.14-.47,0.09,0V1035s0,0.06,0,.08l0-.07,0.21-.29,0.08,0-0.14.47-0.06,0,0.12-.39-0.25.35-0.06,0,0-.44-0.12.4Z" transform="translate(-1022.15 -1009.91)"/>
      <path d="M1071.17,1036.49l0,0,0.14,0.15-0.13.12-0.11,0-0.09-.06a0.29,0.29,0,0,1-.06-0.12,0.2,0.2,0,0,1,0-.13,0.27,0.27,0,0,1,.08-0.11,0.31,0.31,0,0,1,.12-0.07,0.21,0.21,0,0,1,.13,0,0.27,0.27,0,0,1,.11.08,0.23,0.23,0,0,1,.05.08,0.18,0.18,0,0,1,0,.08,0.21,0.21,0,0,1,0,.08l-0.05,0a0.16,0.16,0,0,0,0-.06,0.12,0.12,0,0,0,0-.06l0-.06-0.06,0h-0.12l-0.09.05a0.24,0.24,0,0,0-.07.09,0.14,0.14,0,0,0,0,.09,0.2,0.2,0,0,0,0,.08l0.07,0,0.07,0,0.07-.06Z" transform="translate(-1022.15 -1009.91)"/>
      <path class="x" d="M1073.2,1024.45h0a2.5,2.5,0,0,0-1.19-.65l-0.22,0a1.42,1.42,0,0,1,.65.33,1.64,1.64,0,0,0-.62-0.27,2.54,2.54,0,0,1,.64.57,2.39,2.39,0,0,0-.85-0.62,5.93,5.93,0,0,0-.69-0.1h0a0,0,0,0,1,0,0l0,0h0a1,1,0,0,1,.47-0.23,1.4,1.4,0,0,0-.35.21l0.18,0c0.43-.06,1.43-0.21,1.5-0.25a2.24,2.24,0,0,1-1.06.25l1.23-.1c-0.25,0-.69.1-1.08,0.14a5.66,5.66,0,0,1,1.34,0c-0.06,0-.41,0-0.83,0a1.87,1.87,0,0,1,.7.05h-1.24l1.12,0.09-1.18-.06a3.64,3.64,0,0,1,1.42.35,2.79,2.79,0,0,0-.84-0.21,2.24,2.24,0,0,1,.95.57,0,0,0,0,1,0,0h0Z" transform="translate(-1022.15 -1009.91)"/>
      <path class="d" d="M1070.47,1024.46a3.54,3.54,0,0,1,1,.14,1.58,1.58,0,0,0-.76.7c0,0.42.57,0.45,0.62,1a0.88,0.88,0,0,1-.56.74,2.57,2.57,0,0,0-.31,1.25,7.65,7.65,0,0,0,.39,2.21,0.89,0.89,0,0,0,.73.45c0.29-.14.09-0.64,0.06-0.78s0.12-.37.12-0.58a2.28,2.28,0,0,0-.1-0.43,0.91,0.91,0,0,1,.75,1c0,0.78-.37.54-0.37,0.54a1.79,1.79,0,0,1-.15,1.09,0.69,0.69,0,0,1-.77-0.05l0,0.2-0.34-.18a6.13,6.13,0,0,1-.54-0.9,7.75,7.75,0,0,1-.18-1.78c0-.27.07-1.84,0-1.91a11.32,11.32,0,0,1,0-1.59c0-.2.36-1.07,0.35-1.07h0Z" transform="translate(-1022.15 -1009.91)"/>
      <path d="M1071.22,1031.95l-0.4-.21a6.1,6.1,0,0,1-.55-0.92,7.88,7.88,0,0,1-.18-1.8c0-.25.07-1.82,0-1.9a11.1,11.1,0,0,1,0-1.6c0-.11.14-0.44,0.22-0.7l0.12-.37h0a1.65,1.65,0,0,1,1.06.14,0.31,0.31,0,0,1-.21.16,0.85,0.85,0,0,0-.56.55,0.52,0.52,0,0,0,.26.41,0.78,0.78,0,0,1,.35.56,0.66,0.66,0,0,1-.42.66,0.54,0.54,0,0,0-.14.1,2.61,2.61,0,0,0-.3,1.23,7.3,7.3,0,0,0,.38,2.19,1.41,1.41,0,0,1,.15.15,0.57,0.57,0,0,0,.54.29,0.58,0.58,0,0,0,.06-0.66l0-.09a0.59,0.59,0,0,1,.05-0.29,1,1,0,0,0,.07-0.3,0.86,0.86,0,0,0-.07-0.31,0.26,0.26,0,0,1,0-.12,0.7,0.7,0,0,1,.56.26,0.93,0.93,0,0,1,.25.72c-0.05.8-.41,0.57-0.42,0.57a1.35,1.35,0,0,1-.12,1.09,0.76,0.76,0,0,1-.37.1,0.71,0.71,0,0,1-.44-0.15l0.11,0.23h0Zm-0.73-7.46s0,0.12-.11.35-0.2.58-.22,0.7a11.26,11.26,0,0,0,0,1.57c0,0.08,0,1.64,0,1.93a7.85,7.85,0,0,0,.18,1.77,6.27,6.27,0,0,0,.53.89l0.27,0.14,0-.13a2.59,2.59,0,0,0,.45.11,0.71,0.71,0,0,0,.34-0.09,1.65,1.65,0,0,0,.13-1.06,0.21,0.21,0,0,1,.13,0c0.13,0,.21-0.2.23-0.55a0.87,0.87,0,0,0-.23-0.67,0.93,0.93,0,0,0-.47-0.27,0.27,0.27,0,0,1,0,.07,1,1,0,0,1,.07.33,1.08,1.08,0,0,1-.07.32,0.56,0.56,0,0,0-.05.25l0,0.08a0.44,0.44,0,1,1-.71.44,1.36,1.36,0,0,0-.15-0.15,7.83,7.83,0,0,1-.4-2.23,2.59,2.59,0,0,1,.32-1.28,0.56,0.56,0,0,1,.16-0.11,0.6,0.6,0,0,0,.39-0.6,0.72,0.72,0,0,0-.33-0.52,0.57,0.57,0,0,1-.28-0.46,0.88,0.88,0,0,1,.59-0.6,0.66,0.66,0,0,0,.17-0.11,4.42,4.42,0,0,0-1-.11h0Z" transform="translate(-1022.15 -1009.91)"/>
      <path class="y" d="M1069.38,1024.2a2,2,0,0,1,1.11-.6c0.21,0,0,.15,0,0.15a0.54,0.54,0,0,1,.41.19c0,0.07-.17.09-0.17,0.09a0.2,0.2,0,0,1,.16.16,5.54,5.54,0,0,1-1.52,0h0Z" transform="translate(-1022.15 -1009.91)"/>
      <path d="M1070.14,1024.27a4.81,4.81,0,0,1-.78,0l0,0,0,0a2,2,0,0,1,1.14-.61,0.12,0.12,0,0,1,.12.05,0.16,0.16,0,0,1-.08.14,0.38,0.38,0,0,1,.4.17,0.22,0.22,0,0,1-.12.11,0.17,0.17,0,0,1,.11.15,2.12,2.12,0,0,1-.79.09h0Zm-0.61-.08a6.07,6.07,0,0,0,1.34,0,0.17,0.17,0,0,0-.14-0.12,0.76,0.76,0,0,1,.14-0.11,0.47,0.47,0,0,0-.37-0.17c0-.08.06-0.13,0.06-0.14h-0.07a1.65,1.65,0,0,0-1,.5,2.05,2.05,0,0,0,1-.39,0.83,0.83,0,0,1-.23.2,1.25,1.25,0,0,1,.51.05h-0.57v0a2.34,2.34,0,0,1-.65.22h0Z" transform="translate(-1022.15 -1009.91)"/>
      <path class="g" d="M1072.15,1032.07a1.44,1.44,0,0,0,.6-0.28c0.08-.06.5,0.63-0.6,0.28h0Z" transform="translate(-1022.15 -1009.91)"/>
      <path d="M1072.65,1032.2a0,0,0,0,1,0,0,0,0,0,0,1,0,0,0.3,0.3,0,0,0,.18,0,0.11,0.11,0,0,0,0-.09,0.24,0.24,0,0,0-.1-0.19c0.06-.06.16,0.07,0.16,0.19s0,0,0,0a0.08,0.08,0,0,1,0,0,0.09,0.09,0,0,1,0,.07,0.36,0.36,0,0,1-.21.05h0Z" transform="translate(-1022.15 -1009.91)"/>
      <path class="d" d="M1071.64,1030.74a1.37,1.37,0,0,1-.1-0.34,3.68,3.68,0,0,1-.09-0.45,0.4,0.4,0,0,1,.08-0.22,0.59,0.59,0,0,0,.08-0.18,0.55,0.55,0,0,0,0-.23,0.63,0.63,0,0,1,0-.18,0.55,0.55,0,0,1,.24-0.3l0.12-.11a0.93,0.93,0,0,0,.1-0.59,0,0,0,0,1,0,0s0,0,0,0a1,1,0,0,1-.11.64l-0.13.12a0.58,0.58,0,0,0-.22.25,0.58,0.58,0,0,0,0,.16,0.59,0.59,0,0,1,0,.26,0.6,0.6,0,0,1-.09.2,0.39,0.39,0,0,0-.07.19,4,4,0,0,0,.09.44c0.08,0.34.08,0.34,0,.35h0Zm-0.91-3.28a0.63,0.63,0,0,1,.42-0.54,0,0,0,0,1,0,0,0,0,0,0,1,0,0,0.71,0.71,0,0,0-.44.48h0Z" transform="translate(-1022.15 -1009.91)"/>
      <path class="z" d="M1071,1024s0.13,0.36.54,0a0.33,0.33,0,0,0-.54,0h0Z" transform="translate(-1022.15 -1009.91)"/>
      <path d="M1071.22,1024.16h0a0.29,0.29,0,0,1-.26-0.19c0.24-.29.44-0.23,0.6,0a0.49,0.49,0,0,1-.34.19h0Zm-0.2-.19a0.24,0.24,0,0,0,.2.12h0a0.5,0.5,0,0,0,.3-0.14,0.33,0.33,0,0,0-.49,0h0Z" transform="translate(-1022.15 -1009.91)"/>
      <path class="k" d="M1071.3,1024a0,0,0,0,1,0,0,0,0,0,1,1,0-.07,0,0,0,0,1,0,0h0Z" transform="translate(-1022.15 -1009.91)"/>
      <path class="g" d="M1067.59,1023.14a2.76,2.76,0,0,0,1.3.85,0.66,0.66,0,0,1-.36.59,1.48,1.48,0,0,1-1.1-.73,2.56,2.56,0,0,1,.16-0.71h0Z" transform="translate(-1022.15 -1009.91)"/>
      <path d="M1068.52,1024.61l-0.14,0a1.49,1.49,0,0,1-1-.7,2.15,2.15,0,0,1,.14-0.69l-0.11-.21,0.18,0.15a2.78,2.78,0,0,0,1.27.84,0.54,0.54,0,0,1-.29.61l-0.07,0h0Zm-1-1.45c0,0.13-.08.35-0.11,0.7a1.43,1.43,0,0,0,.93.66l0.13,0,0,0a0.58,0.58,0,0,0,.31-0.52h0a2.69,2.69,0,0,1-1.28-.84h0Z" transform="translate(-1022.15 -1009.91)"/>
      <path class="g" d="M1068.66,1021.15a0.84,0.84,0,0,1,.48-0.6,2.2,2.2,0,0,1,1.59-1.72,1.54,1.54,0,0,1-.52,1.09,5.55,5.55,0,0,0,2.15-.76c0,0.2-.4,1.47-2.31,1.47,0.72,0.69-.23,1.23-0.64,1.07,0.75-.58-0.21-0.92-0.75-0.55h0Z" transform="translate(-1022.15 -1009.91)"/>
      <path d="M1069.58,1021.76a0.48,0.48,0,0,1-.18,0,0.57,0.57,0,0,0,.25-0.49,0.75,0.75,0,0,0-1-.07,0.75,0.75,0,0,1,.46-0.65,2.14,2.14,0,0,1,1.58-1.72,1.41,1.41,0,0,1-.48,1.13,6.6,6.6,0,0,0,2.1-.79c0,0.09-.24,1.52-2.27,1.52a0.53,0.53,0,0,1,.24.65,0.83,0.83,0,0,1-.73.45h0Zm-0.4-.79a0.52,0.52,0,0,1,.52.26,0.46,0.46,0,0,1-.26.49,0.26,0.26,0,0,1,.14,0,0.76,0.76,0,0,0,.67-0.41,0.57,0.57,0,0,0-.22-0.63c2-.05,2.29-1.44,2.3-1.5-0.31.48-2,.79-2.12,0.8a2,2,0,0,0,.48-1.11,2.25,2.25,0,0,0-1.53,1.71,1,1,0,0,0-.48.61,0.6,0.6,0,0,1,.49-0.2h0Z" transform="translate(-1022.15 -1009.91)"/>
      <path class="aa" d="M1069.27,1020.71a0.89,0.89,0,0,1,.79-0.19l-0.21,0a0.21,0.21,0,0,0,.11.15,1,1,0,0,0-.69,0h0Z" transform="translate(-1022.15 -1009.91)"/>
      <path class="ab" d="M1070.07,1020.76l-0.19,0a1,1,0,0,0-.6,0,0.73,0.73,0,0,1,.79-0.25l-0.19.09,0.11,0.1,0.09,0.08h0Zm-0.24-.24a0.77,0.77,0,0,0-.41.13,0.63,0.63,0,0,1,.44,0,0.1,0.1,0,0,1,0-.11s0,0,0,0h0Z" transform="translate(-1022.15 -1009.91)"/>
      <path d="M1069.15,1020.58l0-.05s0.72-.38,1.11-0.64a7.87,7.87,0,0,1-1.08.69h0Z" transform="translate(-1022.15 -1009.91)"/>
      <path class="ac" d="M1068.52,1024.58s1,0.27,1.1-1.14c-0.21-.61-0.51-1.93-0.06-2.31a0.83,0.83,0,0,0-.87,0,1.46,1.46,0,0,0,.1,1.52c-1.19-.32-0.71.81-0.71,0.81,0-.18.68-0.34,0.83,0.56a1,1,0,0,1-.4.56h0Z" transform="translate(-1022.15 -1009.91)"/>
      <path d="M1068.7,1024.63a0.89,0.89,0,0,1-.2,0l-0.06,0,0.08-.06a0.67,0.67,0,0,0,.36-0.5c-0.11-.62-0.44-0.67-0.54-0.67a0.25,0.25,0,0,0-.24.12,0.7,0.7,0,0,1-.09-0.73,0.67,0.67,0,0,1,.77-0.12,1.42,1.42,0,0,1-.15-1.48,0.79,0.79,0,0,1,.51-0.18,0.72,0.72,0,0,1,.42.13c-0.41.39-.19,1.6,0.07,2.33-0.08,1-.62,1.2-0.94,1.2h0Zm-0.35-1.34a0.68,0.68,0,0,1,.6.72,0.81,0.81,0,0,1-.38.56h0.13c0.29,0,.8-0.15.88-1.13-0.22-.63-0.52-1.94,0-2.33a1.45,1.45,0,0,0-.38-0.07,0.92,0.92,0,0,0-.45.13,1.56,1.56,0,0,0,.11,1.48c-0.18,0-.29,0-0.39,0a0.38,0.38,0,0,0-.34.15,0.89,0.89,0,0,0,0,.68c0-.09.1-0.16,0.24-0.16h0Z" transform="translate(-1022.15 -1009.91)"/>
      <path class="ac" d="M1069.62,1023.44a2.1,2.1,0,0,0,1-1.87,1.54,1.54,0,0,0-1.2,1.16Z" transform="translate(-1022.15 -1009.91)"/>
      <path d="M1069.6,1023.49l-0.2-.74a1.57,1.57,0,0,1,1.22-1.2,2.11,2.11,0,0,1-1,1.92l0,0h0Zm1-1.91a1.59,1.59,0,0,0-1.14,1.17l0.17,0.65a2.09,2.09,0,0,0,1-1.82h0Z" transform="translate(-1022.15 -1009.91)"/>
      <path class="g" d="M1065,1023.38a1.57,1.57,0,0,1-1.21.46,0.67,0.67,0,0,1-.71-0.15s0.45,1.64,2,.46a3.82,3.82,0,0,0-.13-0.76h0Z" transform="translate(-1022.15 -1009.91)"/>
      <path d="M1064,1024.6h0a1.22,1.22,0,0,1-1-.91,3.88,3.88,0,0,0,.52.17,0.39,0.39,0,0,0,.2-0.05,0.75,0.75,0,0,0,.21,0,2,2,0,0,0,1-.49,0.78,0.78,0,0,1-.89,1.25h0Zm-1-.87a1.26,1.26,0,0,0,1,.81h0a1.81,1.81,0,0,0,1-.43,5,5,0,0,0-.14-0.72,1.48,1.48,0,0,1-1.2.46,0.31,0.31,0,0,1-.21.06,0.87,0.87,0,0,1-.49-0.2h0Z" transform="translate(-1022.15 -1009.91)"/>
      <path class="ac" d="M1063.75,1023.81c0.06-.34.33-0.51,0.55-0.19,0.29,0.05.58-1.12-.45-0.93a2,2,0,0,0-.57-2.12,8.22,8.22,0,0,0-.17,2,2.53,2.53,0,0,0-1.31-.84,2.24,2.24,0,0,0,1.23,1.89,0.7,0.7,0,0,0,.72.15h0Z" transform="translate(-1022.15 -1009.91)"/>
      <path d="M1063.52,1023.89a0.79,0.79,0,0,1-.44-0.16h0l-0.05,0h0a2.28,2.28,0,0,1-1.25-1.92,2.12,2.12,0,0,1,1.29.74,10.5,10.5,0,0,1,.19-1.93c0.09,0,.92.59,0.64,2.13a0.51,0.51,0,0,1,.63.15,0.68,0.68,0,0,1,0,.69,0.19,0.19,0,0,1-.2.12,0.31,0.31,0,0,0-.28-0.17,0.39,0.39,0,0,0-.23.33l0,0a0.53,0.53,0,0,1-.24.06h0Zm-0.4-.21a0.63,0.63,0,0,0,.6.1h0a0.85,0.85,0,0,0-.46-0.16,0.28,0.28,0,0,0-.14.06h0Zm0.38-.08a1,1,0,0,1,.23.16,0.42,0.42,0,0,1,.27-0.34,0.31,0.31,0,0,1,.32.19,0.25,0.25,0,0,0,.12-0.1,0.62,0.62,0,0,0,0-.62,0.56,0.56,0,0,0-.61-0.16h0a1.08,1.08,0,0,0-.35.89h0Zm-1.71-1.81a2.3,2.3,0,0,0,1.26,1.84l0,0a0.35,0.35,0,0,1,.19-0.09h0a1.34,1.34,0,0,1-.18-0.94h0a2.34,2.34,0,0,0-1.29-.81h0Zm1.51,1.77a0.47,0.47,0,0,1,.2,0,1,1,0,0,1,.33-0.95l0,0a2.09,2.09,0,0,0-.6-2.09,11.27,11.27,0,0,0-.12,2v0h0v0a1.65,1.65,0,0,0,.13.88h0Z" transform="translate(-1022.15 -1009.91)"/>
      <path class="g" d="M1063.13,1021.22s-0.73,0-.3.74a0.6,0.6,0,0,1-.55-1c-1.64,0-2.31-.83-2.31-1.55,0.48,0.5,1.63.3,2,.6a1.32,1.32,0,0,1-.4-1.11,2.48,2.48,0,0,1,1.65,1.66c-0.08.24-.12,0.67-0.14,0.65h0Z" transform="translate(-1022.15 -1009.91)"/>
      <path d="M1062.69,1022a0.65,0.65,0,0,1-.51-0.29,0.59,0.59,0,0,1,.08-0.76c-1.6,0-2.32-.77-2.32-1.53a2.5,2.5,0,0,0,1.24.36,2,2,0,0,1,.82.2h0a1.23,1.23,0,0,1-.43-1.07h0a2.38,2.38,0,0,1,1.71,1.66v0l0,0-0.05,0a4.06,4.06,0,0,0-.1.47c0,0.15,0,.17-0.05.18h0a0.48,0.48,0,0,0-.36.15,0.53,0.53,0,0,0,.09.54,0.39,0.39,0,0,1-.17,0h0Zm-2.74-2.55c0.05,0.71.76,1.46,2.33,1.5a0.66,0.66,0,0,0-.05.74,0.61,0.61,0,0,0,.59.27,0.46,0.46,0,0,1-.09-0.59,0.51,0.51,0,0,1,.39-0.15,0.43,0.43,0,0,1,0-.13,3.46,3.46,0,0,1,.1-0.49c-0.19-.09-0.41-0.17-0.62-0.24a1.77,1.77,0,0,1-.64-0.33l0,0a4.36,4.36,0,0,0-.82-0.14,2.06,2.06,0,0,1-1.23-.4h0ZM1062,1020a1.75,1.75,0,0,0,.62.31,3,3,0,0,1,.6.27,2.46,2.46,0,0,0-1.62-1.61,1.55,1.55,0,0,0,.4,1h0Z" transform="translate(-1022.15 -1009.91)"/>
      <path class="aa" d="M1062.33,1020.79a1.09,1.09,0,0,1,.74.13,1.19,1.19,0,0,0-.62.06c0.09,0,.07-0.13.12-0.13a1,1,0,0,0-.23-0.06h0Z" transform="translate(-1022.15 -1009.91)"/>
      <path class="ab" d="M1062.45,1021l0,0a0.13,0.13,0,0,0,.07-0.08l0.06-.05a0.77,0.77,0,0,1-.23,0,0.68,0.68,0,0,1,.76.09,0.27,0.27,0,0,1-.17,0,0.81,0.81,0,0,0-.47.07h0Zm0-.21a0.16,0.16,0,0,1,.12.05h0l0,0.05v0a0.82,0.82,0,0,1,.39,0h0.15a1.18,1.18,0,0,0-.6-0.1h0Z" transform="translate(-1022.15 -1009.91)"/>
      <path class="ad" d="M1065.19,1016.29a0.53,0.53,0,0,1,.66,0,0.56,0.56,0,0,1-.71.29,0.87,0.87,0,0,1,0,.34,1,1,0,0,1,.2.36,0.75,0.75,0,0,1,.7.11,1.36,1.36,0,0,1,.38,0,4.29,4.29,0,0,1,.6-0.11,1.5,1.5,0,0,1,.71.22,2,2,0,0,0,.32.71c0.11,0-.27.15-0.37,0s-0.07.21-.07,0.21a4.68,4.68,0,0,1,.35.41,2.64,2.64,0,0,0,0,1.1,0.19,0.19,0,0,0-.17.18,0.29,0.29,0,0,1-.24.23l-0.05-.25-0.16.09,0.06-.2a4.6,4.6,0,0,0,.23-0.69,0.51,0.51,0,0,0-.36-0.46,0.84,0.84,0,0,0-.29.53,2,2,0,0,0-.06.44l-0.11-.13a1.64,1.64,0,0,1-.13.31,0.36,0.36,0,0,1-.18.1,0.89,0.89,0,0,1-.05-0.33,1.65,1.65,0,0,0,.42-0.71c0-.26,0-0.2,0-0.21a0.83,0.83,0,0,1-.23-0.3c0-.1-0.28.13-0.63,0.06a2,2,0,0,0-.12.66,1.91,1.91,0,0,0,0,.63c0.08,0.06-.19.2-0.19,0.2l-0.19.25-0.06-.15-0.13.09,0.07-.19a7.2,7.2,0,0,0,.18-0.85c0-.33,0-0.67,0-0.67a0.31,0.31,0,0,0-.33.33,2.36,2.36,0,0,1-.07.47,1.82,1.82,0,0,1,.09.47,0.21,0.21,0,0,1-.14.11l0,0a0.93,0.93,0,0,0-.34.22,1.67,1.67,0,0,0,0-.19l0-.27a0.53,0.53,0,0,0,.21-0.46,3.9,3.9,0,0,0,0-.45,3.4,3.4,0,0,0,0-.37,1.79,1.79,0,0,0-.25.08,1.87,1.87,0,0,1,.12-0.34c0-.14-0.19.13-0.35,0a2,2,0,0,0,.21-0.35,0.78,0.78,0,0,0-.26,0,0.42,0.42,0,0,1,.14-0.23,0.51,0.51,0,0,0-.15,0,0.82,0.82,0,0,1,.1-0.34,0.33,0.33,0,0,0-.1-0.27,1.94,1.94,0,0,1-.21-0.23,0.42,0.42,0,0,1,0-.14s-0.31.22-.67-0.25a0.61,0.61,0,0,1,.69-0.07,0.48,0.48,0,0,1,.52-0.24,0.49,0.49,0,0,1,.49.23h0Z" transform="translate(-1022.15 -1009.91)"/>
      <path d="M1067.47,1020.32l-0.06-.28-0.11.11,0-.23a4.5,4.5,0,0,0,.23-0.68,0.48,0.48,0,0,0-.14-0.31,0.3,0.3,0,0,0-.19-0.12,0.76,0.76,0,0,0-.26.51,2,2,0,0,0-.06.41s0,0-.15-0.08a0.61,0.61,0,0,1-.1.3,0.38,0.38,0,0,1-.19.11,0.59,0.59,0,0,1-.09-0.37,0.67,0.67,0,0,1,.12-0.16,0.9,0.9,0,0,0,.29-0.54,0.37,0.37,0,0,1,0-.23,0.48,0.48,0,0,1-.23-0.28l-0.1,0a1,1,0,0,1-.51.06,2.67,2.67,0,0,0-.08.63,1.67,1.67,0,0,0,0,.61,0.3,0.3,0,0,1-.19.25l-0.18.24a0.21,0.21,0,0,1-.1-0.12l-0.11.07,0-.22a1,1,0,0,1,.06-0.27,2.08,2.08,0,0,0,.12-0.57c0-.33,0-0.68,0-0.68a2.17,2.17,0,0,0-.2.12,0.3,0.3,0,0,0-.07.22,0.88,0.88,0,0,1-.05.38,0.18,0.18,0,0,0,0,.09s0,0.07,0,.12a0.91,0.91,0,0,1,.05.37,0.24,0.24,0,0,1-.16.13,2.15,2.15,0,0,0-.34.24l-0.07-.18,0-.27a0.59,0.59,0,0,0,.2-0.46,1.63,1.63,0,0,0,0-.35,0.34,0.34,0,0,1,0-.1v-0.1c0-.08,0-0.23,0-0.26a0.16,0.16,0,0,1-.08.05l-0.14,0c-0.05,0,0-.08,0-0.16a0.72,0.72,0,0,0,.08-0.21,0.3,0.3,0,0,1-.34,0,0.52,0.52,0,0,1,.12-0.22,0.3,0.3,0,0,0,.09-0.16,0.27,0.27,0,0,1-.16.08l-0.08,0a0.37,0.37,0,0,1,.09-0.23h0l-0.11,0a0.15,0.15,0,0,1,0-.12,0.49,0.49,0,0,0,.08-0.22,0.29,0.29,0,0,0-.09-0.23l-0.06-.06a0.89,0.89,0,0,1-.17-0.19,0.52,0.52,0,0,1,0-.11c-0.06.06-.34,0.16-0.67-0.27a0.63,0.63,0,0,1,.72-0.12,0.41,0.41,0,0,1,.47-0.24,0.63,0.63,0,0,1,.56.24,0.54,0.54,0,0,1,.65,0,0.53,0.53,0,0,1-.73.35,0.47,0.47,0,0,1,0,.32,0.72,0.72,0,0,1,.2.33,0.68,0.68,0,0,1,.3-0.05,0.39,0.39,0,0,1,.39.17,0.53,0.53,0,0,1,.36,0,3.67,3.67,0,0,1,.6-0.11,1.48,1.48,0,0,1,.73.24l0.06,0.17a1.56,1.56,0,0,0,.24.52c0.05,0.09-.12.12-0.2,0.12a0.22,0.22,0,0,1-.19-0.08,0.27,0.27,0,0,0,0,.19,3.43,3.43,0,0,1,.35.4,0.46,0.46,0,0,1,0,.22,1.64,1.64,0,0,0,0,.88,0.23,0.23,0,0,0-.16.19,0.32,0.32,0,0,1-.27.26h0Zm-2-.21a0.23,0.23,0,0,1,.09.16l0.13-.26a0.49,0.49,0,0,0,.2-0.16,1.51,1.51,0,0,1-.05-0.66,2,2,0,0,1,.12-0.67h0.17a1,1,0,0,0,.34-0.07l0.12,0h0l0,0.05a0.57,0.57,0,0,0,.21.27,2.05,2.05,0,0,1,0,.23,0.93,0.93,0,0,1-.31.58,0.72,0.72,0,0,0-.11.14,0.74,0.74,0,0,0,.05.3,1,1,0,0,0,.13-0.1,1.56,1.56,0,0,0,.13-0.31,0.22,0.22,0,0,1,.12.07,1.27,1.27,0,0,1,0-.38,0.77,0.77,0,0,1,.32-0.55,0.37,0.37,0,0,1,.24.14,0.53,0.53,0,0,1,.15.36,4.94,4.94,0,0,1-.23.69l-0.06.19,0.11-.13,0.09,0.24a0.24,0.24,0,0,0,.19-0.2,0.22,0.22,0,0,1,.2-0.21,1.33,1.33,0,0,1,0-.87,1,1,0,0,0,0-.18,4.24,4.24,0,0,0-.35-0.4,0.48,0.48,0,0,1,0-.28h0l0.09,0a0.28,0.28,0,0,0,.34,0c-0.09.05-.17-0.14-0.29-0.52l-0.06-.16a1.62,1.62,0,0,0-.68-0.21,4.06,4.06,0,0,0-.6.11h0a1.28,1.28,0,0,0-.38,0,0.65,0.65,0,0,0-.69-0.11,2.1,2.1,0,0,0-.23-0.37,1.23,1.23,0,0,0,0-.36,0.66,0.66,0,0,1,.27,0h0a0.44,0.44,0,0,0,.45-0.3,0.77,0.77,0,0,0-.28-0.06,0.55,0.55,0,0,0-.33.13,0.71,0.71,0,0,0-.52-0.22h0a0.47,0.47,0,0,0-.49.22s-0.17-.05-0.33-0.05a0.55,0.55,0,0,0-.37.14,0.71,0.71,0,0,0,.46.25,0.3,0.3,0,0,0,.17,0,0.28,0.28,0,0,1,.07.15,0.93,0.93,0,0,0,.16.17l0.06,0.07a0.3,0.3,0,0,1,.1.27,0.55,0.55,0,0,1-.09.25l0,0.07h0.14c0,0.05-.1.15-0.11,0.27a0.35,0.35,0,0,0,.15-0.06l0.07,0,0,0.07a0.37,0.37,0,0,1-.1.19,0.84,0.84,0,0,0-.12.17h0.1a0.37,0.37,0,0,0,.14,0l0.07,0,0,0.08a0.77,0.77,0,0,1-.09.23l0,0.09a0.2,0.2,0,0,1,.1-0.06l0.12,0a0.36,0.36,0,0,1,0,.32v0.09a0.24,0.24,0,0,0,0,.08,1.68,1.68,0,0,1,0,.36,0.56,0.56,0,0,1-.22.48l0,0.39a0.61,0.61,0,0,1,.29-0.21,0.69,0.69,0,0,0,.15-0.14,1.09,1.09,0,0,0-.06-0.34l0-.12a0.21,0.21,0,0,1,0-.12,0.85,0.85,0,0,0,0-.36,0.35,0.35,0,0,1,.09-0.26,0.39,0.39,0,0,1,.27-0.1,3.31,3.31,0,0,1,0,.71,2.1,2.1,0,0,1-.12.58,1.07,1.07,0,0,0-.06.26l-0.05.13,0.05-.05h0Z" transform="translate(-1022.15 -1009.91)"/>
      <path class="ac" d="M1067.53,1021.09s0.79,0,.8.44-0.24.31-.24,0.31l-0.58-.07Z" transform="translate(-1022.15 -1009.91)"/>
      <path d="M1068.15,1021.88l-0.08,0-0.57-.07v-0.71s0.85,0,.86.44a0.41,0.41,0,0,1-.08.3,0.16,0.16,0,0,1-.12.05h0Zm-0.58-.12c0.12,0,.49,0,0.51,0l0.07,0v0a0.1,0.1,0,0,0,.08,0,0.37,0.37,0,0,0,.06-0.26c0-.39-0.76-0.41-0.77-0.41v0.65h0Z" transform="translate(-1022.15 -1009.91)"/>
      <path class="ae" d="M1066.77,1021s1,0,.92.42-0.3.34-.3,0.34l-0.47,0Z" transform="translate(-1022.15 -1009.91)"/>
      <path d="M1067.44,1021.77h-0.06l-0.46,0-0.17-.74a1.26,1.26,0,0,1,.91.2,0.27,0.27,0,0,1,.06.21c0,0.32-.19.37-0.28,0.37h0Zm-0.66-.76,0.17,0.68h0.45l0,0v0c0.07,0,.19,0,0.22-0.32a0.19,0.19,0,0,0-.05-0.16,1.35,1.35,0,0,0-.83-0.22h0Z" transform="translate(-1022.15 -1009.91)"/>
      <path class="ac" d="M1066.22,1020.93l0.56,0a0.37,0.37,0,0,1,.32.37,0.35,0.35,0,0,1-.35.33l-0.55,0v-0.72Z" transform="translate(-1022.15 -1009.91)"/>
      <path d="M1066.76,1021.71l-0.55,0,0-.75,0.6,0a0.4,0.4,0,0,1,.35.4,0.38,0.38,0,0,1-.38.36h0Zm-0.54-.75,0,0.69h0.52a0.32,0.32,0,0,0,.32-0.3,0.33,0.33,0,0,0-.3-0.34l-0.56,0h0Z" transform="translate(-1022.15 -1009.91)"/>
      <path class="g" d="M1064.9,1021.09s-0.79,0-.8.44,0.24,0.31.25,0.31l0.57-.07Z" transform="translate(-1022.15 -1009.91)"/>
      <path d="M1064.28,1021.88a0.18,0.18,0,0,1-.13-0.05,0.42,0.42,0,0,1-.08-0.3c0-.45.82-0.47,0.83-0.47l0.05,0.71a4.56,4.56,0,0,1-.6.1h-0.07Zm0.59-.79s-0.73.06-.73,0.44a0.36,0.36,0,0,0,.06.26,0.1,0.1,0,0,0,.08,0v0l0.06,0,0.58-.07-0.05-.65h0Z" transform="translate(-1022.15 -1009.91)"/>
      <path class="ac" d="M1065.66,1021s-1,0-.92.42,0.3,0.34.3,0.34l0.47,0Z" transform="translate(-1022.15 -1009.91)"/>
      <path d="M1065,1021.77c-0.09,0-.24,0-0.28-0.37a0.26,0.26,0,0,1,.07-0.21,1.47,1.47,0,0,1,.88-0.24l-0.11.75-0.55.07h0Zm0.64-.8a1.65,1.65,0,0,0-.81.25,0.2,0.2,0,0,0-.05.16c0,0.28.15,0.32,0.22,0.32v0l0,0,0.48,0,0.12-.69h0Z" transform="translate(-1022.15 -1009.91)"/>
      <path class="g" d="M1066.21,1020.93l-0.56,0a0.37,0.37,0,0,0-.33.37,0.35,0.35,0,0,0,.35.33l0.55,0v-0.72Z" transform="translate(-1022.15 -1009.91)"/>
      <path d="M1065.67,1021.71h0a0.38,0.38,0,0,1-.38-0.36,0.4,0.4,0,0,1,.35-0.4l0.56,0,0,0.75-0.58.06h0Zm0.51-.78-0.53.08a0.33,0.33,0,0,0-.3.34,0.32,0.32,0,0,0,.32.3l0.55,0,0-.69h0Z" transform="translate(-1022.15 -1009.91)"/>
      <path class="af" d="M1067.72,1025.62a1.3,1.3,0,0,1,.58-0.54,0.51,0.51,0,0,1,0,.56Z" transform="translate(-1022.15 -1009.91)"/>
      <path d="M1068.27,1025.67l-0.55,0a1.14,1.14,0,0,1,.55-0.6,0.16,0.16,0,0,1,.13.16,0.67,0.67,0,0,1-.12.46h0Zm0-.56a1.28,1.28,0,0,0-.54.52l0.5,0a0.73,0.73,0,0,0,.09-0.4,0.11,0.11,0,0,0-.05-0.1h0Z" transform="translate(-1022.15 -1009.91)"/>
      <path class="af" d="M1064.94,1025.73c-0.13-.18-0.31-0.67-0.48-0.54a0.51,0.51,0,0,0,0,.55Z" transform="translate(-1022.15 -1009.91)"/>
      <path d="M1064.49,1025.78a0.62,0.62,0,0,1-.14-0.46,0.15,0.15,0,0,1,.09-0.15,0.1,0.1,0,0,1,.09,0,0.75,0.75,0,0,1,.32.38l0.11,0.18,0,0-0.51,0h0Zm0-.58a0.13,0.13,0,0,0-.11.12,0.71,0.71,0,0,0,.09.4l0.38,0-0.08-.14a0.78,0.78,0,0,0-.27-0.35h0Zm1.74-.13h0a4.36,4.36,0,0,1-1.06-.5l0-.05a4.47,4.47,0,0,0,1,.49h0a3.51,3.51,0,0,0,1.05-.62,2.48,2.48,0,0,1-1.06.69h0Z" transform="translate(-1022.15 -1009.91)"/>
      <polygon class="af" points="43.13 12.73 43.29 12.54 44.05 12.92 44.82 12.58 44.97 12.74 44.11 13.35 43.13 12.73"/>
      <path d="M1066.26,1023.29l-1-.63,0.15-.23,0.8,0.38,0.75-.34,0.18,0.17-0.88.66h0Zm-0.84-.82-0.12.18,0.95,0.57,0.84-.6-0.15-.12-0.74.35-0.79-.39h0Z" transform="translate(-1022.15 -1009.91)"/>
      <path class="ag" d="M1064.68,1022.62a3.23,3.23,0,0,1,.64,1.17,2.12,2.12,0,0,0-.05-0.68,1.53,1.53,0,0,1,.63.49c0,0.19.29,0,.3,0l-1.76-1.14Z" transform="translate(-1022.15 -1009.91)"/>
      <path class="ah" d="M1065.35,1023.94h0s0,0-.06-0.15a3.17,3.17,0,0,0-.63-1.15l-0.24-.21,0.28,0.16h0l1.51,0.92a0.29,0.29,0,0,1-.24.18,0.1,0.1,0,0,1-.11-0.11,1.36,1.36,0,0,0-.61-0.46,2.57,2.57,0,0,1,.11.79h0Zm-0.11-.82a1.13,1.13,0,0,1,.69.48,0.23,0.23,0,0,0,.24-0.06l-1.45-.92a3.71,3.71,0,0,1,.57.95c0-.15,0-0.32-0.05-0.45h0Z" transform="translate(-1022.15 -1009.91)"/>
      <path class="ag" d="M1067.68,1022.59a2.94,2.94,0,0,0-.56,1.76,3.46,3.46,0,0,1,0-1.17l-0.14.09a1.62,1.62,0,0,1-.33.71,0.21,0.21,0,0,1,0-.1,3,3,0,0,1-.23.28,6.5,6.5,0,0,0,0,.86,1.65,1.65,0,0,0,.14.59l-0.19.11-0.08-1.61,0.18-.18a1.21,1.21,0,0,0,.26-0.58,0.59,0.59,0,0,1-.22.12,1,1,0,0,1-.13.46,0.21,0.21,0,0,0-.1.16l0-.53Z" transform="translate(-1022.15 -1009.91)"/>
      <path class="ah" d="M1066.33,1025.75h0l0,0-0.08-1.61,0,0a0.09,0.09,0,0,1,0-.11l-0.06-.41,1.47-1a3.88,3.88,0,0,0-.52,1.78,2.6,2.6,0,0,1-.09-1.17l-0.09.12a1.41,1.41,0,0,1-.33.72,0.27,0.27,0,0,1-.07-0.12,0.67,0.67,0,0,1-.19.3s0,0.46,0,.83a1.93,1.93,0,0,0,.12.57,0.88,0.88,0,0,1-.18.16h0Zm0.34-2.42a1,1,0,0,1-.22.62l-0.18.18,0.09,1.53,0.12-.07a1.4,1.4,0,0,1-.12-0.58,2,2,0,0,1,0-.88,2.71,2.71,0,0,0,.23-0.27,0.14,0.14,0,0,1,.08.11,2.35,2.35,0,0,0,.27-0.71l0.15-.11a7.48,7.48,0,0,0,.07,1.18,2.71,2.71,0,0,1,.51-1.77l-1.42,1,0,0.37,0.06-.05a0.9,0.9,0,0,0,.11-0.44,2.6,2.6,0,0,0,.23-0.14h0Zm0,0a0.29,0.29,0,0,1-.18.15,0.68,0.68,0,0,1-.12.46,0.16,0.16,0,0,0-.07.09l0.12-.13a1.2,1.2,0,0,0,.25-0.56h0Z" transform="translate(-1022.15 -1009.91)"/>
      <path d="M1066.37,1026.09l-0.18-2.53a0,0,0,0,1,0,0,0,0,0,0,1,0,0l0.12,2.53h0Z" transform="translate(-1022.15 -1009.91)"/>
      <path d="M1066.32,1025.76a1.69,1.69,0,0,0-1.26-.26,1.14,1.14,0,0,0-.42-0.69l0-.05a1.05,1.05,0,0,1,.41.71,1.43,1.43,0,0,1,1.24.25,2.38,2.38,0,0,1,1.12-.31,2.23,2.23,0,0,1,.46-0.6s-0.31.38-.44,0.64a3,3,0,0,0-1.15.32h0Z" transform="translate(-1022.15 -1009.91)"/>
      <path class="ai" d="M1064.26,1022.29l2,1.28,1.76-1.18a0.64,0.64,0,0,0,.34-0.35c0-.15-0.16-0.09-0.22-0.06s-1.84,1.28-1.84,1.28l-1.89-1.2s-0.14,0-.17,0a0.23,0.23,0,0,0,.07.18h0Z" transform="translate(-1022.15 -1009.91)"/>
      <path d="M1066.22,1023.61l-2-1.29a0.23,0.23,0,0,1-.08-0.21,0.11,0.11,0,0,1,.12-0.08h0.08l1.9,1.2c0.15-.13,1.75-1.26,1.81-1.29s0.22-.11.26,0.08a0.61,0.61,0,0,1-.35.38l-1.77,1.19h0Zm-1.91-1.52c-0.08,0-.08,0-0.09,0a0.13,0.13,0,0,0,0,.12l2,1.3,1.74-1.17a0.58,0.58,0,0,0,.32-0.32c0-.15-0.13-0.06-0.18,0s-1.13.78-1.84,1.28l-1.93-1.2h0Z" transform="translate(-1022.15 -1009.91)"/>
      <path class="ag" d="M1067.76,1022s-0.5-.21-0.5,0a0.4,0.4,0,0,0,.09.32,0.13,0.13,0,0,1-.06.19l0-.13a3.86,3.86,0,0,1-.32-0.23c0-.09.06-0.24-0.1-0.26a0.3,0.3,0,0,0-.35.25,3.7,3.7,0,0,1-.24.61l0-1c0.35,0,1,.1,1.51.16-0.15,0,.06,0,0.05.06s-0.06,0-.06,0h0Z" transform="translate(-1022.15 -1009.91)"/>
      <path class="ah" d="M1066.23,1022.71h0a0,0,0,0,1,0,0l0-1a11.47,11.47,0,0,1,1.38.11h0.16a0,0,0,0,1,0,0,0.08,0.08,0,0,1,.05.07,0.18,0.18,0,0,1-.08.07,1.32,1.32,0,0,0-.4-0.11c-0.08,0-.08,0-0.08,0a0.38,0.38,0,0,0,.09.3,0.16,0.16,0,0,1,0,.12,0.22,0.22,0,0,1-.1.12l-0.09-.15a0.35,0.35,0,0,0-.13-0.09,0.33,0.33,0,0,1-.19-0.15,0.37,0.37,0,0,1,0-.11c0-.08,0-0.12-0.07-0.13a0.3,0.3,0,0,0-.32.22,3.83,3.83,0,0,1-.24.62l0,0h0Zm0-1v0.81a2.5,2.5,0,0,0,.18-0.48,0.33,0.33,0,0,1,.34-0.28,0.16,0.16,0,0,1,.18.2,0.29,0.29,0,0,0,0,.08,0.32,0.32,0,0,0,.15.11,0.31,0.31,0,0,1,.16.12l0,0.1a0.2,0.2,0,0,0,0-.06,0.09,0.09,0,0,0,0-.07,0.43,0.43,0,0,1-.1-0.34,0.09,0.09,0,0,1,.06-0.09l-1-.1h0Z" transform="translate(-1022.15 -1009.91)"/>
      <path class="ag" d="M1066,1021.71a2.48,2.48,0,0,0-.65.12c-0.11.07,0.18,0.17,0.15,0.26s0,0.27-.18.23a1.81,1.81,0,0,1-.63-0.36,0.12,0.12,0,0,0-.11-0.08s1.37-.18,1.43-0.17h0Z" transform="translate(-1022.15 -1009.91)"/>
      <path class="ah" d="M1065.34,1022.36h0a1.66,1.66,0,0,1-.65-0.38,0.09,0.09,0,0,0-.08-0.06h0a0.07,0.07,0,0,1,.06,0,11,11,0,0,1,1.35-.2h0c-0.11.06-.51,0.11-0.61,0.17a0.12,0.12,0,0,0,.06.08,0.17,0.17,0,0,1,.1.16c0,0.15-.07.26-0.18,0.26h0Zm-0.67-.46a0.1,0.1,0,0,1,0,.06,2,2,0,0,0,.61.33h0c0.05,0,.07-0.06.1-0.14l0-.07a0.18,0.18,0,0,0-.08-0.09,0.18,0.18,0,0,1-.09-0.12l0.14-.07-0.76.11h0Z" transform="translate(-1022.15 -1009.91)"/>
      <path d="M1066.23,1022.8l-0.06-1.2h0.06v1.2h0Zm-1.48-1.68a4.85,4.85,0,0,1,.5-0.95l0.05,0-0.56.91h0Z" transform="translate(-1022.15 -1009.91)"/>
      <path d="M1066.74,1021c-0.09-.06-0.18-0.29-0.25-0.35a1,1,0,0,0-.22-0.42l0,0a1,1,0,0,1,.22.44,1,1,0,0,1,.21.36h0Zm0-.06a1.46,1.46,0,0,1,.44-0.8l0.05,0a6.32,6.32,0,0,0-.49.76h0Z" transform="translate(-1022.15 -1009.91)"/>
      <path class="k" d="M1064.57,1016.66a0.11,0.11,0,0,1-.15,0,0.12,0.12,0,0,1-.11-0.11,0.11,0.11,0,0,1,.15,0,0.12,0.12,0,0,1,.11.11h0Z" transform="translate(-1022.15 -1009.91)"/>
      <path class="k" d="M1064.78,1016.64a0.15,0.15,0,1,0,.1-0.11,0.12,0.12,0,0,0-.1.11h0Z" transform="translate(-1022.15 -1009.91)"/>
      <path class="y" d="M1070.81,1031.7a0.61,0.61,0,0,0-.19.05,3,3,0,0,1-.57,0,0.27,0.27,0,0,0-.08.1l0.09-.05a0.46,0.46,0,0,0,.18.13s0,0.05,0,.07a0.07,0.07,0,0,0,.05,0l0.93,0Z" transform="translate(-1022.15 -1009.91)"/>
      <path d="M1070.25,1032h0l0-.05h0l0,0a0.26,0.26,0,0,1-.19-0.11l0,0h0c0-.15.05-0.15,0.06-0.15h0.13l0.43,0a0.3,0.3,0,0,1,.19-0.06l0.43,0.28-0.94.07,0,0h0Zm-0.17-.24a1,1,0,0,0,.16.11l0,0.07,0.95,0-0.43-.21-0.15,0a1.84,1.84,0,0,1-.46,0h-0.11Z" transform="translate(-1022.15 -1009.91)"/>
      <path class="y" d="M1071.16,1032l-0.76,0a1.47,1.47,0,0,0-.2.21s0.13,0.05.13,0.05l0,0.14,0.1,0a3.92,3.92,0,0,0,1.24,0c0.3-.11.35-0.23,0.14-0.31a2.57,2.57,0,0,0-.68-0.05h0Z" transform="translate(-1022.15 -1009.91)"/>
      <path d="M1070.37,1032.45h0l0,0,0-.14a0.11,0.11,0,0,1-.12,0,0.62,0.62,0,0,1,.2-0.27l0.93,0a1.76,1.76,0,0,1,.54.06,0.18,0.18,0,0,1,.15.14,0.36,0.36,0,0,1-.29.22,3.2,3.2,0,0,1-.71.07,4.1,4.1,0,0,1-.54,0l-0.08,0h0Zm0.09-.09a5.35,5.35,0,0,0,.54,0h0a3.16,3.16,0,0,0,.7-0.07,0.32,0.32,0,0,0,.24-0.16,0.13,0.13,0,0,0-.11-0.08,1.76,1.76,0,0,0-.52-0.05l-0.91,0a2,2,0,0,0-.17.19l0.1,0,0.06,0.13,0.07,0h0Z" transform="translate(-1022.15 -1009.91)"/>
      <path class="d" d="M1068.56,1033.54l1.37-.06-0.25-.22,3.69-.15-0.13-.29-4.13.17,0.5,0.23-1.12,0,0,0.12h-0.29a1.15,1.15,0,0,1,.34.18h0Z" transform="translate(-1022.15 -1009.91)"/>
      <path d="M1068.54,1033.58v0a1.21,1.21,0,0,0-.32-0.16l0.3,0-0.06-.08,1.14-.07-0.51-.17,4.14-.22,0.16,0.31-3.71.19,0.27,0.16-1.41.12h0Zm4.67-.74-4.1.18,0.51,0.17-1.13.09,0.06,0.08-0.32,0a0.58,0.58,0,0,1,.35.12l1.35-.06-0.27-.16,3.71-.2-0.15-.25h0Z" transform="translate(-1022.15 -1009.91)"/>
      <path class="d" d="M1070.09,1026a1.32,1.32,0,0,0-1.12.23l0,1.23a2.39,2.39,0,0,1,1.16-.33c0-.38,0-0.87-0.06-1.13h0Zm-7.55,3.72-3.22,3.2Zm1.43,0-2.61,3.44Zm-0.12-.9-3.48,4.22Zm-3.59,4.16,0.34-.39Zm4.26-2-1.35,1.87Zm-1.41,2.11,0,0.71Zm2-1.46-1.43,1.79Zm-0.26,1.66,0.58-1Zm0.22-1.14-0.7.79Zm-0.21-.74-0.48.58Zm-0.62-.85a21.83,21.83,0,0,0-1.44,2.31Zm-0.15-.28s-1.26,1.64-1.26,1.64Zm-1.33,2.16-0.22.27Zm-0.5.68-0.34.44Z" transform="translate(-1022.15 -1009.91)"/>
      <path d="M1063.18,1033.79l-0.1-.71h0.06l0,0.71h0Zm0.55-.35,1.39-1.83,0,0-1.43,1.8h0Zm1.18-.14-0.05,0,0.58-1-0.53,1h0Zm-3.52-.09,2.56-3.48,0,0-2.61,3.44h0Zm-1-.12,3.44-4.26,0,0-3.49,4.22h0Zm4-.14,0.65-.83,0,0-0.7.79h0Zm-5.09,0,3.18-3.24,0,0-3.22,3.2h0Zm3.85-.09,1.3-1.9,0.05,0-1.35,1.87h0Zm-0.32,0a13,13,0,0,1,1.38-2.32l0.05,0a19.41,19.41,0,0,0-1.43,2.29h0Zm1.57-.85,0.43-.62,0,0-0.48.58h0Zm-1.55-.07c0.32-.53,1.18-1.67,1.22-1.69l0,0.05,0,0,0,0s-0.77,1-1.25,1.64h0Zm6.11-4.44-0.07-1.25a1.31,1.31,0,0,1,1.16-.25l0,0a6.58,6.58,0,0,1,0,.72c0,0.14,0,.28,0,0.41a2.76,2.76,0,0,0-1.18.36h0Zm0.81-1.49a1.54,1.54,0,0,0-.83.27l0,1.2a1.85,1.85,0,0,1,1.14-.35,1,1,0,0,1-.06-0.38,6.87,6.87,0,0,0,0-.7,0.67,0.67,0,0,0-.24,0h0Z" transform="translate(-1022.15 -1009.91)"/>
      <path class="aj" d="M1062.39,1024.81a0.71,0.71,0,0,0,0,.47c0.1,0.15.72,1.41,0.72,1.41a2.17,2.17,0,0,1,.58-0.54,4,4,0,0,1,.08,1.35,0.82,0.82,0,0,1-.41.23c-0.16,0,.38.54,0.37,1a8.09,8.09,0,0,1-1,2.82c-0.25,0,.12-0.42.1-0.55a0.69,0.69,0,0,0-.14-0.18,2.84,2.84,0,0,1,.06-0.49,1.8,1.8,0,0,0-.17-0.21c0-.1.08-0.13,0.07-0.24a1.42,1.42,0,0,1-.15-0.18,0.57,0.57,0,0,0,0-.24c0-.18,0,0.13-0.2.14a0.63,0.63,0,0,0-.28.37,0.53,0.53,0,0,1-.62.24c0.18,0.39,0,.56,0,0.58s0.05,0.31-.11.32,0.13,0.66-.07.72c0.21,0.1,0,.22,0,0.22a0.49,0.49,0,0,0-.38.68c-1.44-.51-2.14-1.38-2.13-2.27a2,2,0,0,1,1-2,13,13,0,0,1,.54-1.52,1.82,1.82,0,0,1,0-.54,1.05,1.05,0,0,1,.24-0.42s0-.51,0-0.76a3,3,0,0,1,.13-0.51,2.6,2.6,0,0,1,.1-1,3,3,0,0,1,.55-0.2,1,1,0,0,1,.51-0.23,0.69,0.69,0,0,1,.34.14,0.89,0.89,0,0,1,.73.27,0.34,0.34,0,0,1-.14.37,0.76,0.76,0,0,1-.32.73h0Z" transform="translate(-1022.15 -1009.91)"/>
      <path class="ak" d="M1060.93,1032.77l0,0c-1.36-.48-2.17-1.34-2.15-2.3a2,2,0,0,1,1-2,12.2,12.2,0,0,1,.52-1.51h0a1.62,1.62,0,0,1,0-.53,1.12,1.12,0,0,1,.25-0.44,6,6,0,0,1,0-.74,1.08,1.08,0,0,1,.08-0.35,0.68,0.68,0,0,0,0-.16s0-.1,0-0.19a1.48,1.48,0,0,1,.11-0.82,0.7,0.7,0,0,1,.33-0.13,0.77,0.77,0,0,0,.22-0.07l0.09-.06a0.79,0.79,0,0,1,.41-0.17,0.73,0.73,0,0,1,.38.15,0.84,0.84,0,0,1,.74.29,0.37,0.37,0,0,1-.16.4h0a0.7,0.7,0,0,1-.32.73h0a0.72,0.72,0,0,0,0,.43c0.1,0.15.7,1.36,0.72,1.41a1.35,1.35,0,0,1,.55-0.55,3.65,3.65,0,0,1,.12,1.39,0.81,0.81,0,0,1-.43.26,0.53,0.53,0,0,0,.09.18,1.63,1.63,0,0,1,.3.79c0,0.43-.7,2.8-1,2.85a0.09,0.09,0,0,1-.11,0,0.43,0.43,0,0,1,.09-0.32,0.65,0.65,0,0,0,.08-0.22s0-.05,0-0.06a0.18,0.18,0,0,1-.1-0.12,0.46,0.46,0,0,1,0-.29,0.49,0.49,0,0,0,0-.21,0.14,0.14,0,0,0-.08-0.11,0.15,0.15,0,0,1-.08-0.11,0.18,0.18,0,0,1,0-.13,0.14,0.14,0,0,0,0-.11,0.1,0.1,0,0,0-.07-0.07,0.12,0.12,0,0,1-.08-0.12,0.59,0.59,0,0,0,0-.23,0.21,0.21,0,0,1-.16.17,0.57,0.57,0,0,0-.26.35,0.63,0.63,0,0,1-.67.26,0.46,0.46,0,0,1,.1.48,0.18,0.18,0,0,1-.11.1,0.64,0.64,0,0,0,0,.08c0,0.09,0,.23-0.12.24a0.45,0.45,0,0,0,0,.28c0,0.2.07,0.4-.06,0.44a0.09,0.09,0,0,1,.13.07,0.19,0.19,0,0,1-.08.15,0.47,0.47,0,0,0-.29.16,0.61,0.61,0,0,0-.08.49v0.05h0Zm0.84-9.44a0.73,0.73,0,0,0-.39.16l-0.09.06a0.75,0.75,0,0,1-.24.08,0.69,0.69,0,0,0-.3.12,1.74,1.74,0,0,0-.09.77c0,0.09,0,.16,0,0.2a0.71,0.71,0,0,1-.05.18,1,1,0,0,0-.08.33c0,0.25,0,.76,0,0.76a1.23,1.23,0,0,0-.24.43,1.83,1.83,0,0,0,0,.53,15.25,15.25,0,0,0-.54,1.54,2.11,2.11,0,0,0-1,2c0,0.92.76,1.75,2.06,2.22a0.63,0.63,0,0,1,.1-0.48,0.47,0.47,0,0,1,.32-0.18,0.18,0.18,0,0,0,0-.08,0.14,0.14,0,0,0-.09-0.08,0.54,0.54,0,0,0,0-.42,0.52,0.52,0,0,1,0-.32c0.12,0,.13-0.09.12-0.21s0-.13,0-0.14a0.12,0.12,0,0,0,.06-0.07,0.56,0.56,0,0,0-.06-0.47,1,1,0,0,1,.2,0,0.66,0.66,0,0,0,.43-0.28,0.61,0.61,0,0,1,.3-0.38,0.22,0.22,0,0,0,.13-0.14l0.08-.06,0,0.09a0.49,0.49,0,0,1,0,.19c0,0.08,0,.09,0,0.11a0.15,0.15,0,0,1,.11.12,0.21,0.21,0,0,1,0,.15,0.12,0.12,0,0,0,0,.09,0.09,0.09,0,0,0,.05.06,0.2,0.2,0,0,1,.11.15,0.52,0.52,0,0,1,0,.24,0.42,0.42,0,0,0,0,.25,0.11,0.11,0,0,0,.07.08,0.11,0.11,0,0,1,.07.11,0.57,0.57,0,0,1-.09.25,0.56,0.56,0,0,0-.09.27c0.26,0,1-2.26,1-2.79a1.57,1.57,0,0,0-.29-0.76,0.33,0.33,0,0,1-.1-0.25,0.94,0.94,0,0,0,.44-0.24,4.2,4.2,0,0,0-.06-1.3,2,2,0,0,0-.55.53c-0.06,0-.67-1.26-0.77-1.41a0.73,0.73,0,0,1,0-.49,0.74,0.74,0,0,0,.32-0.72,0.39,0.39,0,0,0,.14-0.37,10.41,10.41,0,0,1-1-.38h0Z" transform="translate(-1022.15 -1009.91)"/>
      <path class="al" d="M1061.77,1023.84a0.22,0.22,0,0,1-.3.17,0.22,0.22,0,0,1,.3-0.17h0Z" transform="translate(-1022.15 -1009.91)"/>
      <path class="ak" d="M1061.53,1024.06h0l-0.07,0a0.18,0.18,0,0,1,.13-0.2,0.18,0.18,0,0,1,.23,0,0.17,0.17,0,0,1-.12.2,0.3,0.3,0,0,1-.14,0h0Z" transform="translate(-1022.15 -1009.91)"/>
      <path class="k" d="M1061.66,1023.91a0.05,0.05,0,0,1-.11,0,0.05,0.05,0,0,1,.11,0h0Z" transform="translate(-1022.15 -1009.91)"/>
      <path class="ak" d="M1062.67,1025.68a3,3,0,0,0,0-1.29h0a2.73,2.73,0,0,1,0,1.3h0Zm0.38-.64a1.75,1.75,0,0,0-.32-1l0,0a1.64,1.64,0,0,1,.29,1h0Zm0-.69a0.93,0.93,0,0,0-.29-0.38v0a0.63,0.63,0,0,1,.12.1,0.52,0.52,0,0,1,.17.31h0Zm0-.24a1,1,0,0,0-.25-0.24l0,0a0.69,0.69,0,0,1,.23.27h0Z" transform="translate(-1022.15 -1009.91)"/>
      <path d="M1062.21,1025.5a3.14,3.14,0,0,1,.52-1.75l0.05,0a3.67,3.67,0,0,0-.57,1.72h0Z" transform="translate(-1022.15 -1009.91)"/>
      <path class="ak" d="M1061.78,1026a2.77,2.77,0,0,1,1-2.22l0,0a2.82,2.82,0,0,0-1,2.2h0Z" transform="translate(-1022.15 -1009.91)"/>
      <path class="a" d="M1062.7,1024.05l-0.34.26Z" transform="translate(-1022.15 -1009.91)"/>
      <path class="ak" d="M1061.45,1026.05h0c0-.08.5-2,1.36-2.32-0.83.31-1.32,2.3-1.33,2.32h0Z" transform="translate(-1022.15 -1009.91)"/>
      <path class="am" d="M1063.12,1026.73a2.33,2.33,0,0,1,.57-0.56,5.74,5.74,0,0,1,.08,1.35,1.65,1.65,0,0,1-.42.25,7.72,7.72,0,0,1,.38.86,0.73,0.73,0,0,1,0,.24,1,1,0,0,0-.11-0.37,1.77,1.77,0,0,0-.74-1.06c-0.17-.36.35,0.21,0.45,0.13a2.26,2.26,0,0,0-.18-0.84h0Z" transform="translate(-1022.15 -1009.91)"/>
      <path class="ak" d="M1063.7,1028.89s0-.17-0.14-0.38a1.07,1.07,0,0,1-.05-0.16,1.64,1.64,0,0,0-.68-0.89c0-.08-0.06-0.13,0-0.16s0.1,0,.22.1a0.65,0.65,0,0,0,.26.14,1.36,1.36,0,0,0-.15-0.69c0-.13,0-0.14,0-0.15a1.68,1.68,0,0,1,.6-0.57,3.45,3.45,0,0,1,.1,1.38,1.28,1.28,0,0,1-.45.28,0.61,0.61,0,0,1,.14.2,1.74,1.74,0,0,1,.27.64c0,0.27,0,.27-0.05.27h0Zm-0.2-.73c0,0.06,0,.12.06,0.17a0.89,0.89,0,0,0,.05.15,1.21,1.21,0,0,1,.07.17,0.16,0.16,0,0,0,0,0,1.26,1.26,0,0,0-.19-0.46h0Zm-0.66-.8,0,0.07a2.65,2.65,0,0,1,.5.5,0.23,0.23,0,0,1-.07-0.18,1.58,1.58,0,0,0,.44-0.26,6,6,0,0,0-.07-1.29h0a2.42,2.42,0,0,0-.53.54l0,0.1a1.08,1.08,0,0,1,.13.75,0.4,0.4,0,0,1-.34-0.14l-0.14-.09h0Zm-0.95-3.61h0a1.08,1.08,0,0,1-.19-0.13,0.34,0.34,0,0,1,.21.07,0.2,0.2,0,0,0,.16-0.11,0.4,0.4,0,0,1,.24-0.15l0,0.06a0.34,0.34,0,0,0-.2.11,0.27,0.27,0,0,1-.14.14l-0.06,0h0Z" transform="translate(-1022.15 -1009.91)"/>
      <path class="am" d="M1061.19,1024.13s-0.29.29-.15,0.33a0.41,0.41,0,0,0,.29-0.23s0,0.45.13,0.38,0.49-.33.49-0.33h0.15a0.7,0.7,0,0,0,.54.18,0.51,0.51,0,0,1-.25.34,0.55,0.55,0,0,1-.49.21,0.54,0.54,0,0,1-.35-0.18,0.38,0.38,0,0,1-.3-0.09,1.15,1.15,0,0,1-.1-0.17s-0.13.13-.17,0.07a0.51,0.51,0,0,1,.2-0.52h0Z" transform="translate(-1022.15 -1009.91)"/>
      <path class="ak" d="M1062,1025h-0.09a0.58,0.58,0,0,1-.37-0.19,0.31,0.31,0,0,1-.3-0.09l-0.09-.16a0.14,0.14,0,0,1-.12.09,0.33,0.33,0,0,1,0-.34,0.4,0.4,0,0,1,.2-0.25,1.6,1.6,0,0,0-.14.32,0.34,0.34,0,0,0,.27-0.21,1,1,0,0,0,.13.37c0.13-.07.49-0.33,0.49-0.33H1062l0.1,0a0.62,0.62,0,0,0,.48.15,0.47,0.47,0,0,1-.23.39h0a0.56,0.56,0,0,1-.41.22h0Zm-0.85-.49a0.37,0.37,0,0,1,.15.17,0.31,0.31,0,0,0,.24.08,1.39,1.39,0,0,0,.39.18,0.56,0.56,0,0,0,.46-0.2,0.46,0.46,0,0,0,.22-0.28h-0.05a0.84,0.84,0,0,1-.42-0.18l-0.16,0s-0.35.25-.47,0.32h0c-0.13,0-.15-0.21-0.16-0.35a0.3,0.3,0,0,1-.24.2l-0.05,0a0.34,0.34,0,0,0,0,.15,0.22,0.22,0,0,0,.12-0.08h0Z" transform="translate(-1022.15 -1009.91)"/>
      <path class="ak" d="M1062,1024.27a0.07,0.07,0,0,1-.06-0.05,0.48,0.48,0,0,1,.12-0.4,0.78,0.78,0,0,1,.76-0.12l0,0.06a0.74,0.74,0,0,0-.69.09,0.4,0.4,0,0,0-.12.35,0.08,0.08,0,0,0,.05.05l-0.05,0h0Z" transform="translate(-1022.15 -1009.91)"/>
      <path class="k" d="M1062.93,1023.71a0.1,0.1,0,1,1-.1-0.12,0.11,0.11,0,0,1,.1.12h0Z" transform="translate(-1022.15 -1009.91)"/>
      <path class="am" d="M1061.36,1025.09a1.21,1.21,0,0,0,.48.43c0.26,0.09-.18.17-0.45,0a0.56,0.56,0,0,1-.14-0.44,0.06,0.06,0,0,1,.1,0h0Z" transform="translate(-1022.15 -1009.91)"/>
      <path class="ak" d="M1061.77,1025.65a0.73,0.73,0,0,1-.39-0.11,0.59,0.59,0,0,1-.15-0.48v0l0.07,0a0.1,0.1,0,0,1,.08,0,1.22,1.22,0,0,0,.47.42,0.11,0.11,0,0,1,.1.09,0.18,0.18,0,0,1-.18.07h0Zm-0.45-.55s-0.07.17,0.1,0.39a0.69,0.69,0,0,0,.35.09,0.21,0.21,0,0,0,.12,0,1.29,1.29,0,0,1-.56-0.46h0Z" transform="translate(-1022.15 -1009.91)"/>
      <path class="am" d="M1063.24,1027.09a4.71,4.71,0,0,0-.8-0.91c-0.18,0,.13-0.08.33,0.1s-0.05-.29-0.05-0.29Z" transform="translate(-1022.15 -1009.91)"/>
      <path class="ak" d="M1063.22,1027.1a4.07,4.07,0,0,0-.78-0.89h0l-0.05-.05v0h0.07a0.56,0.56,0,0,1,.35.14s0,0,0-.13l-0.06-.13c0.05,0,.08,0,0.12.1l-0.06,0c0.13,0.15.13,0.19,0.11,0.21h0l0.4,0.74-0.05,0h0Zm-0.78-.93a2.21,2.21,0,0,1,.65.65l-0.23-.49a0.09,0.09,0,0,1-.1,0,0.5,0.5,0,0,0-.31-0.13h0Z" transform="translate(-1022.15 -1009.91)"/>
      <path class="am" d="M1061.3,1032.06a4.59,4.59,0,0,1,1.5.76,1.16,1.16,0,0,0,.72.06,1.86,1.86,0,0,1-.36.17,1.23,1.23,0,0,0,.41,0,4,4,0,0,1-2.67-.34,0.49,0.49,0,0,1,.39-0.68h0Z" transform="translate(-1022.15 -1009.91)"/>
      <path class="ak" d="M1062.72,1033.2a3.92,3.92,0,0,1-1.83-.44,0.6,0.6,0,0,1,.06-0.55,0.5,0.5,0,0,1,.34-0.19h0a5,5,0,0,1,1.52.77,0.66,0.66,0,0,0,.37.09,1.77,1.77,0,0,0,.33,0,0.46,0.46,0,0,1-.28.21h0.34a1.38,1.38,0,0,1-.85.15h0Zm-1.39-1.12a0.47,0.47,0,0,0-.33.17,0.55,0.55,0,0,0-.07.48,4,4,0,0,0,1.78.41,3.64,3.64,0,0,0,.84-0.09c-0.46.06-.46,0-0.46,0l0.27-.13a1,1,0,0,1-.59-0.08,5.28,5.28,0,0,0-1.45-.76h0Z" transform="translate(-1022.15 -1009.91)"/>
      <path class="am" d="M1062.81,1027.3a0.55,0.55,0,0,1-.26-0.14,3.62,3.62,0,0,0-.35-0.46,2.55,2.55,0,0,0-1-.44,0.4,0.4,0,0,1-.34-0.05s-0.13,0-.11.13a1.75,1.75,0,0,0-.11.52,3.63,3.63,0,0,0,.48.66,0.47,0.47,0,0,1,0,.3,2.25,2.25,0,0,0,.38.32,0.16,0.16,0,0,1,.14.14,3.21,3.21,0,0,1-.33.47,0.89,0.89,0,0,0-.35.28,0.43,0.43,0,0,0,.36.38,2.57,2.57,0,0,0,1.05-.05,1.37,1.37,0,0,0,.07-0.48,0.48,0.48,0,0,0-.3-0.13,0.24,0.24,0,0,0-.17.11s-0.13.09-.13,0a0.9,0.9,0,0,1,.3-0.35,0.8,0.8,0,0,1,.49.26c0.07,0.2.07,0.33,0.28,0.31a0.61,0.61,0,0,0,.51-0.6,0.84,0.84,0,0,0-.29-0.69,1,1,0,0,1-.29-0.22,0.63,0.63,0,0,1,0-.3h0Z" transform="translate(-1022.15 -1009.91)"/>
      <path class="ak" d="M1061.69,1029.49a1.9,1.9,0,0,1-.38,0,0.46,0.46,0,0,1-.38-0.41,0.77,0.77,0,0,1,.37-0.31,2.62,2.62,0,0,0,.31-0.44,0.13,0.13,0,0,0-.12-0.11,1.87,1.87,0,0,1-.39-0.33,0.69,0.69,0,0,0,0-.29,3.53,3.53,0,0,1-.5-0.68,0.43,0.43,0,0,1,.05-0.33,0.51,0.51,0,0,0,.05-0.2,0.18,0.18,0,0,1,0-.14l0.08,0a0.45,0.45,0,0,0,.36.06,2.5,2.5,0,0,1,1,.45,1.35,1.35,0,0,1,.24.3l0.11,0.16a0.55,0.55,0,0,0,.25.13,1.49,1.49,0,0,0,.05.32,0.85,0.85,0,0,0,.28.21,0.86,0.86,0,0,1,.31.72,0.64,0.64,0,0,1-.54.63,0.28,0.28,0,0,1-.28-0.24l0-.1a0.57,0.57,0,0,0-.39-0.22l-0.09,0a1.62,1.62,0,0,0-.25.32,0.15,0.15,0,0,0,.08,0,0.27,0.27,0,0,1,.19-0.13,0.87,0.87,0,0,1,.33.15,1.32,1.32,0,0,1-.07.52,1.76,1.76,0,0,1-.71.1h0Zm-0.88-3.26a0.11,0.11,0,0,0-.06.11,0.51,0.51,0,0,1-.06.23,0.42,0.42,0,0,0-.05.28,4,4,0,0,0,.46.65,0.35,0.35,0,0,1,0,.34,2.45,2.45,0,0,0,.35.29,0.19,0.19,0,0,1,.17.18,2.49,2.49,0,0,1-.34.48,0.84,0.84,0,0,0-.34.27,0.4,0.4,0,0,0,.34.35,1.55,1.55,0,0,0,.37,0,2.21,2.21,0,0,0,.66-0.07,1.53,1.53,0,0,0,.07-0.45,0.51,0.51,0,0,0-.25-0.12,0.26,0.26,0,0,0-.16.08,0.16,0.16,0,0,1-.13.08h0l0-.06a0.89,0.89,0,0,1,.33-0.38l0.09,0a0.59,0.59,0,0,1,.44.25l0,0.1c0,0.14.07,0.2,0.18,0.2a0.58,0.58,0,0,0,.52-0.57,0.8,0.8,0,0,0-.28-0.66,0.75,0.75,0,0,1-.3-0.24,0.8,0.8,0,0,1,0-.31,0.31,0.31,0,0,1-.25-0.11l-0.12-.16a1.39,1.39,0,0,0-.23-0.29,2.68,2.68,0,0,0-1-.44h-0.14a0.32,0.32,0,0,1-.24-0.07h0Z" transform="translate(-1022.15 -1009.91)"/>
      <path class="am" d="M1059.14,1029a6.27,6.27,0,0,1,.83-0.16,2.7,2.7,0,0,1,1,.48,1.56,1.56,0,0,0,.82.58,0.84,0.84,0,0,0,.32-0.09l-0.1.19a0.8,0.8,0,0,1-.3,0,1.07,1.07,0,0,1-.5-0.28,2.16,2.16,0,0,0-1.33-.68,1.18,1.18,0,0,0-.82.55,1.8,1.8,0,0,1,0-.3,0.35,0.35,0,0,0-.11.12Z" transform="translate(-1022.15 -1009.91)"/>
      <path class="ak" d="M1061.77,1030.08h-0.08a1.11,1.11,0,0,1-.51-0.29,2.29,2.29,0,0,0-1.26-.68,1.17,1.17,0,0,0-.85.54,0.37,0.37,0,0,1,0-.24l0,0.06,0.13-.45a4.78,4.78,0,0,1,.85-0.18,2.72,2.72,0,0,1,1,.49l0.08,0.09a1.45,1.45,0,0,0,.68.48,1,1,0,0,0,.34-0.08v0a0,0,0,0,1,0,0l0,0.17a0.75,0.75,0,0,1-.26.05h0Zm-1.9-1a2.34,2.34,0,0,1,1.36.69,1,1,0,0,0,.49.28h0.06a1.09,1.09,0,0,0,.23,0l0-.11a0.94,0.94,0,0,1-.26.07,1.32,1.32,0,0,1-.76-0.5l-0.08-.08a2.64,2.64,0,0,0-1-.47h0a6.33,6.33,0,0,0-.82.16l-0.1.24h0a1.73,1.73,0,0,1,0,.31,1,1,0,0,1,.79-0.54h0Z" transform="translate(-1022.15 -1009.91)"/>
      <path class="am" d="M1061.56,1029.53a1.62,1.62,0,0,0,.44,0,0.68,0.68,0,0,0,.41-0.12l0-.11,0-.15a1.18,1.18,0,0,1,.2.25,0.11,0.11,0,0,1-.08.06l0-.1-0.07.09a1.12,1.12,0,0,1-.61.27,0.4,0.4,0,0,1-.36-0.22,0.08,0.08,0,0,1,.08,0h0Z" transform="translate(-1022.15 -1009.91)"/>
      <path class="ak" d="M1061.89,1029.8h-0.05a0.58,0.58,0,0,1-.39-0.23,0.15,0.15,0,0,1,.1-0.08,1.69,1.69,0,0,0,.45,0,0.65,0.65,0,0,0,.39-0.11l0-.08,0-.16a0.55,0.55,0,0,1,.26.27,0.13,0.13,0,0,1-.11.08l-0.07-.12,0,0.1a1.29,1.29,0,0,1-.59.28h0Zm-0.35-.25a0.36,0.36,0,0,0,.31.19h0a1.29,1.29,0,0,0,.54-0.26l0.07-.09,0.08,0.11a0.43,0.43,0,0,0-.17-0.28l0,0.23a0.57,0.57,0,0,1-.45.15,1.32,1.32,0,0,1-.46-0.05h0Z" transform="translate(-1022.15 -1009.91)"/>
      <path class="am" d="M1060.61,1030.08a1.07,1.07,0,0,0-.35,0,0.49,0.49,0,0,1-.21.11,0.13,0.13,0,0,1-.11-0.14,0.46,0.46,0,0,1,.44-0.11c0.27,0,.23.1,0.23,0.1h0Z" transform="translate(-1022.15 -1009.91)"/>
      <path class="ak" d="M1060.06,1030.27h0a0.17,0.17,0,0,1-.12-0.09h0v-0.08a0.41,0.41,0,0,1,.38-0.13h0.09a0.32,0.32,0,0,1,.25.09l0,0.08h0a1,1,0,0,0-.33,0l-0.09.06a0.2,0.2,0,0,1-.12.05h0Zm0.23-.26a0.38,0.38,0,0,0-.32.1,0.11,0.11,0,0,0,.08.1h0a0.17,0.17,0,0,0,.09,0l0.1-.06a1,1,0,0,1,.34,0,1.08,1.08,0,0,0-.22,0h-0.09Z" transform="translate(-1022.15 -1009.91)"/>
      <path class="am" d="M1061.44,1030.73a0.93,0.93,0,0,0-.15-0.48,0.4,0.4,0,0,0-.37-0.12c-0.07,0,.27.16,0.3,0.26a1.29,1.29,0,0,1,.12.44,3.27,3.27,0,0,0-.29-0.26c-0.21-.07-0.5,0-0.44.06a1,1,0,0,1,.41.21,4.06,4.06,0,0,1,.21.41l0-.14,0.11,0v-0.28Z" transform="translate(-1022.15 -1009.91)"/>
      <path class="ak" d="M1061.24,1031.33l0-.08a4.23,4.23,0,0,0-.21-0.41,0.31,0.31,0,0,0-.25-0.14,0.22,0.22,0,0,1-.16-0.07v-0.07a0.31,0.31,0,0,1,.23-0.07,0.82,0.82,0,0,1,.24,0,0.52,0.52,0,0,1,.25.23h0a1.13,1.13,0,0,0-.09-0.3l0-.07a0.61,0.61,0,0,0-.19-0.15,0.18,0.18,0,0,1-.12-0.12,0.18,0.18,0,0,1,.12,0,0.43,0.43,0,0,1,.31.13,1,1,0,0,1,.16.51l-0.06.08v0.26l-0.13.06,0,0.21h0Zm-0.42-.78a0.26,0.26,0,0,0-.18,0,0.15,0.15,0,0,0,.12.05,0.38,0.38,0,0,1,.3.17c0.07,0.13.13,0.25,0.17,0.33l0-.06,0.13-.05v-0.2a0.07,0.07,0,0,1-.1,0,0.46,0.46,0,0,0-.22-0.21,0.7,0.7,0,0,0-.22,0h0Zm0.17-.41s0,0,.06,0a0.55,0.55,0,0,1,.21.18l0,0.07a1.75,1.75,0,0,1,.1.32l0-.06a1,1,0,0,0-.15-0.44,0.37,0.37,0,0,0-.27-0.12h0Z" transform="translate(-1022.15 -1009.91)"/>
      <path class="am" d="M1061.26,1031.81l-0.21-.43a0.57,0.57,0,0,0-.25-0.35c-0.18-.08-0.42-0.06-0.43,0a1.53,1.53,0,0,0,.41.26,0.11,0.11,0,0,1,0,.14,1.1,1.1,0,0,0-.3,0,0.43,0.43,0,0,1-.27.1,0.57,0.57,0,0,1-.19-0.49s-0.1.08-.13,0a3.61,3.61,0,0,0,0-.5,2.53,2.53,0,0,1-.3-0.22s0-1.69,1.4-.31a1.09,1.09,0,0,0-.94-0.63,0.81,0.81,0,0,0-.75.73c-0.13.69-.3,0.26-0.3,0.26a0.47,0.47,0,0,0,.12.38c0.14,0.08-.07.33-0.07,0.33a2.76,2.76,0,0,1-.22-0.91,2.14,2.14,0,0,0,.28,1.37,4.5,4.5,0,0,0,1.7,1.2,2.33,2.33,0,0,0,.48-0.87h0Z" transform="translate(-1022.15 -1009.91)"/>
      <path class="ak" d="M1060.79,1032.71h0a4.5,4.5,0,0,1-1.71-1.2,2.18,2.18,0,0,1-.29-1.39,4.69,4.69,0,0,0,.28.9s0.07-.17.06-0.25a0.55,0.55,0,0,1-.16-0.46c0.08,0,.12.1,0.15,0.1s0.08,0,.15-0.37a0.84,0.84,0,0,1,.79-0.76,1.26,1.26,0,0,1,1,.64c-0.59-.46-1-0.62-1.18-0.38a1.23,1.23,0,0,0-.21.71l0.18,0.12,0.12,0.08a0.39,0.39,0,0,1,0,.28,1,1,0,0,0,0,.24H1060a2,2,0,0,0,.09.35,0.26,0.26,0,0,0,.12.15,0.2,0.2,0,0,0,.16,0,0.28,0.28,0,0,1,.1-0.05,0.84,0.84,0,0,1,.23,0c0.07,0,.08,0,0.06-0.08l-0.14-.07a0.4,0.4,0,0,1-.28-0.21c0-.11.27-0.14,0.47-0.06a0.59,0.59,0,0,1,.27.37l0.21,0.43a2.74,2.74,0,0,1-.48.9h0Zm-2-2.36a2.75,2.75,0,0,0,.32,1.12,4.42,4.42,0,0,0,1.66,1.17,2.66,2.66,0,0,0,.46-0.83l-0.21-.42a0.55,0.55,0,0,0-.23-0.34,0.43,0.43,0,0,0-.39,0,0.66,0.66,0,0,0,.25.15,0.39,0.39,0,0,1,.16.1,0.17,0.17,0,0,1,0,.15,0.15,0.15,0,0,1-.13,0l-0.17,0a0.21,0.21,0,0,0-.11,0,0.26,0.26,0,0,1-.15.06,0.47,0.47,0,0,1-.27-0.37,0.32,0.32,0,0,1,0-.17l0,0a0.09,0.09,0,0,1-.09-0.07,0.86,0.86,0,0,1,0-.26,0.75,0.75,0,0,0,0-.22l-0.11-.08a0.46,0.46,0,0,1-.2-0.16,1.31,1.31,0,0,1,.22-0.75c0.25-.29.67-0.15,1.23,0.41a1.32,1.32,0,0,0-.9-0.58,0.79,0.79,0,0,0-.79.71c-0.05.28-.12,0.41-0.21,0.41a0.15,0.15,0,0,1-.12-0.1,0.51,0.51,0,0,0,.13.29,0.13,0.13,0,0,1,.06.09,0.45,0.45,0,0,1-.12.29,1.9,1.9,0,0,1-.26-0.69h0Z" transform="translate(-1022.15 -1009.91)"/>
      <path class="aj" d="M1060.36,1031.82a0.55,0.55,0,0,1,.36.18,1.48,1.48,0,0,1,.11.37,0.56,0.56,0,0,1,.16-0.24,0.26,0.26,0,0,0,.16-0.13,1,1,0,0,0-.45-0.37,0.85,0.85,0,0,0-.41.16s0,0.07.07,0h0Z" transform="translate(-1022.15 -1009.91)"/>
      <path class="ak" d="M1060.8,1032.37h0a1.39,1.39,0,0,0-.11-0.36,0.5,0.5,0,0,0-.33-0.16l-0.1,0,0-.07a1,1,0,0,1,.4-0.17,0.93,0.93,0,0,1,.5.41,0.12,0.12,0,0,1-.09.1l-0.08.05a0.37,0.37,0,0,0-.12.17l0,0h-0.05Zm-0.46-.57a0.5,0.5,0,0,1,.4.18,1.2,1.2,0,0,1,.1.28,0.42,0.42,0,0,1,.13-0.17l0.09-.06a0.57,0.57,0,0,0-.37-0.39h0a0.93,0.93,0,0,0-.38.15h0Z" transform="translate(-1022.15 -1009.91)"/>
      <path class="an" d="M1062.72,1032.87a4.55,4.55,0,0,1-1.74-.3,0,0,0,0,1,0,0,0,0,0,0,1,0,0,5.27,5.27,0,0,0,1.91.35h-0.2Z" transform="translate(-1022.15 -1009.91)"/>
      <path class="ak" d="M1062.92,1031a9.82,9.82,0,0,0,.47-1.82s0,0,0,0a0,0,0,0,1,0,0,8,8,0,0,1-.53,1.82h0Z" transform="translate(-1022.15 -1009.91)"/>
      <path class="ak" d="M1062.81,1030.34a2.43,2.43,0,0,0,.48-0.8l0.06,0a1.83,1.83,0,0,1-.54.78h0Z" transform="translate(-1022.15 -1009.91)"/>
    </g>
  </g>
</svg>
