<svg xmlns="http://www.w3.org/2000/svg" xmlns:xlink="http://www.w3.org/1999/xlink" viewBox="0 0 58.92 34.37">
  <defs>
    <style>
      .a {
        fill: none;
      }

      .b {
        clip-path: url(#a);
      }

      .c {
        fill: #4a5bb5;
      }

      .d, .f {
        fill: #f6d928;
      }

      .e {
        fill: #a1001d;
      }

      .f, .g, .h, .i, .j {
        fill-rule: evenodd;
      }

      .g, .k {
        fill: #fff;
      }

      .h {
        fill: #485ba3;
      }

      .i {
        fill: #980015;
      }
    </style>
    <clipPath id="a" transform="translate(-389.28 -1069.2)">
      <rect class="a" x="389.28" y="1069.2" width="58.92" height="34.37"/>
    </clipPath>
  </defs>
  <title>Swaziland</title>
  <g class="b">
    <rect class="c" width="58.92" height="34.37"/>
    <rect class="d" y="6.14" width="58.92" height="22.1"/>
    <rect class="e" y="8.59" width="58.92" height="17.19"/>
    <g class="b">
      <path class="f" d="M398.47,1086h41a0.37,0.37,0,0,1,0,.74h-41a0.37,0.37,0,0,1,0-.74h0Z" transform="translate(-389.28 -1069.2)"/>
      <path d="M439.48,1086.81h-41a0.42,0.42,0,0,1,0-.83h41a0.42,0.42,0,0,1,0,.83h0Zm-41-.74a0.32,0.32,0,0,0,0,.64h41a0.32,0.32,0,0,0,0-.64h-41Z" transform="translate(-389.28 -1069.2)"/>
      <polygon class="g" points="46.03 13.26 43.95 13.99 46.03 14.73 48.12 13.99 46.03 13.26"/>
      <path d="M435.32,1084l-2.21-.78,2.2-.77,2.22,0.77-2.21.78h0Zm-2-.78,2,0.69,2-.69-2-.7-2,.7h0Z" transform="translate(-389.28 -1069.2)"/>
      <path class="f" d="M403.79,1083h30.16a0.25,0.25,0,1,1,0,.49H403.79a0.25,0.25,0,1,1,0-.49h0Z" transform="translate(-389.28 -1069.2)"/>
      <path d="M433.94,1083.49H403.79a0.29,0.29,0,1,1,0-.58h30.16a0.29,0.29,0,1,1,0,.58h0Zm-30.16-.49a0.2,0.2,0,1,0,0,.4h30.16a0.2,0.2,0,1,0,0-.4H403.79Z" transform="translate(-389.28 -1069.2)"/>
      <path d="M433,1083.49v-0.09a0.2,0.2,0,1,0,0-.4v-0.09a0.29,0.29,0,1,1,0,.58h0Zm0.49,0v-0.09a0.2,0.2,0,1,0,0-.4v-0.09a0.29,0.29,0,1,1,0,.58h0Zm-0.25,0v-0.09a0.2,0.2,0,1,0,0-.4v-0.09a0.29,0.29,0,1,1,0,.58h0Z" transform="translate(-389.28 -1069.2)"/>
      <polygon class="g" points="44.07 14.73 41.98 15.47 44.07 16.2 46.16 15.47 44.07 14.73"/>
      <path d="M433.35,1085.45l-2.21-.78,2.2-.78,2.22,0.78-2.21.78h0Zm-2-.78,2,0.69,2-.69-2-.7-2,.7h0Z" transform="translate(-389.28 -1069.2)"/>
      <path class="f" d="M401.82,1084.43H432a0.25,0.25,0,1,1,0,.49H401.82a0.25,0.25,0,1,1,0-.49h0Z" transform="translate(-389.28 -1069.2)"/>
      <path d="M432,1085H401.82a0.29,0.29,0,1,1,0-.58H432a0.29,0.29,0,1,1,0,.58h0Zm-30.16-.49a0.21,0.21,0,0,0-.22.2,0.21,0.21,0,0,0,.22.2H432a0.2,0.2,0,1,0,0-.4H401.82Z" transform="translate(-389.28 -1069.2)"/>
      <path d="M431.51,1085v-0.09a0.2,0.2,0,1,0,0-.4v-0.09a0.29,0.29,0,0,1,0,.58h0Zm-0.24,0v-0.09a0.2,0.2,0,0,0,0-.4v-0.09a0.29,0.29,0,0,1,0,.58h0Zm-0.25,0v-0.09a0.2,0.2,0,1,0,0-.4v-0.09a0.29,0.29,0,1,1,0,.58h0Z" transform="translate(-389.28 -1069.2)"/>
      <path class="h" d="M436.91,1086.1c-0.37.64,0.29-.21,1.89,0.86a1.55,1.55,0,0,1,.56,1.1c-0.07-.05-0.13-0.16-0.21-0.24a2.18,2.18,0,0,0,.15.9,0.54,0.54,0,0,1-.31-0.38,4,4,0,0,0,.06,1,1.08,1.08,0,0,1-.29-0.25,6.34,6.34,0,0,1,0,.8,3.5,3.5,0,0,0-.29-0.25c0,0.13-.22.49-0.23,0.61a0.32,0.32,0,0,1-.14-0.21,4.22,4.22,0,0,0-.58.89,5.45,5.45,0,0,1-1.3-1.39,1,1,0,0,1-.52.45,3.59,3.59,0,0,1-.3-1.8,4.92,4.92,0,0,0-.44.3,3.56,3.56,0,0,1,2-2.41h0Z" transform="translate(-389.28 -1069.2)"/>
      <path d="M437.5,1091l-0.13-.12a4.85,4.85,0,0,1-1.22-1.33,0.67,0.67,0,0,1-.45.45l0,0,0,0a4.52,4.52,0,0,0-.17-0.6,1.79,1.79,0,0,1-.13-1.22,2,2,0,0,1-.39.33,3.36,3.36,0,0,1,2-2.46,1.71,1.71,0,0,1-.05.26,0.13,0.13,0,0,0,.08,0h0.18a2.92,2.92,0,0,1,1.71.6,1.58,1.58,0,0,1,.57,1.13,0.2,0.2,0,0,1-.17-0.1l-0.1-.11a2.19,2.19,0,0,0,.12.55,2.78,2.78,0,0,1,.08.32,0.42,0.42,0,0,1-.31-0.22,0.83,0.83,0,0,1,0,.12,2.21,2.21,0,0,0,.05.71,0.25,0.25,0,0,1-.25-0.13,0.14,0.14,0,0,0-.07-0.08,0.51,0.51,0,0,1,0,.4,1.31,1.31,0,0,0,0,.37,1,1,0,0,1-.28-0.17l-0.06-.05a0.35,0.35,0,0,1-.06.3,1.16,1.16,0,0,0-.11.29,0.26,0.26,0,0,1-.2-0.21,8.73,8.73,0,0,0-.52.89V1091h0Zm-1.35-1.47a6.5,6.5,0,0,0,1.26,1.3l0,0A5.71,5.71,0,0,1,438,1090a1.23,1.23,0,0,0,.18.21,0.35,0.35,0,0,1,.07-0.29,1.31,1.31,0,0,0,.11-0.3l0.12,0a2.62,2.62,0,0,1,.23.2,0.5,0.5,0,0,1,0-.36,1,1,0,0,0,0-.41,0.11,0.11,0,0,1,.15.06,0.29,0.29,0,0,0,.18.15,1.2,1.2,0,0,1-.1-0.7c0-.11,0-0.21,0-0.28l0.1,0.08a0.43,0.43,0,0,0,.26.27,0.63,0.63,0,0,1-.13-0.28,0.84,0.84,0,0,1-.06-0.62,0.31,0.31,0,0,1,.15.12,0.53,0.53,0,0,0,.1.11,1.79,1.79,0,0,0-.59-1,2.86,2.86,0,0,0-1.67-.59h-0.18a0.15,0.15,0,0,1-.14,0,0.34,0.34,0,0,1,.1-0.28,3.77,3.77,0,0,0-1.94,2.43,1.23,1.23,0,0,1,.4-0.34,2.23,2.23,0,0,0,.18,1.21,4.52,4.52,0,0,1,.17.61,1.21,1.21,0,0,0,.46-0.45h0Z" transform="translate(-389.28 -1069.2)"/>
      <path class="i" d="M435.52,1089.29c0.15-.31.3-0.41,0.4-0.61s0.2-.63.36-0.59,0.15,0.18,0,.53a1.48,1.48,0,0,1-.71.66h0Z" transform="translate(-389.28 -1069.2)"/>
      <path class="i" d="M436.56,1090c0-.24,0-0.33,0-0.48s-0.13-.45,0-0.46,0.21,0.08.21,0.35a0.74,0.74,0,0,1-.26.6h0Z" transform="translate(-389.28 -1069.2)"/>
      <path class="i" d="M437.36,1090.49c-0.06-.33,0-0.47-0.06-0.69-0.07-.37-0.2-0.62-0.07-0.65s0.21,0.09.26,0.46a1.33,1.33,0,0,1-.13.87h0Z" transform="translate(-389.28 -1069.2)"/>
      <path class="i" d="M438.18,1088.18c-0.19-.15-0.31-0.16-0.43-0.25s-0.33-.34-0.4-0.25,0,0.18.21,0.34a0.87,0.87,0,0,0,.63.17h0Z" transform="translate(-389.28 -1069.2)"/>
      <path class="i" d="M438,1089.28c-0.1-.21-0.21-0.27-0.28-0.4s-0.12-.45-0.24-0.39-0.14.16,0,.39a0.79,0.79,0,0,0,.52.4h0Z" transform="translate(-389.28 -1069.2)"/>
      <path class="h" d="M399.91,1086.72a0.44,0.44,0,0,0-.1-0.35c0.17,0.07.17,0.26,0.38,0.12s0.11,0,0-.25c0.21,0,.91.25,1,0.26a1.35,1.35,0,0,1,1.2.09,1.47,1.47,0,0,1,.24,1.23,0.69,0.69,0,0,1-.22-0.28,8.4,8.4,0,0,1,0,1.69c-0.06-.11,0-0.06-0.11-0.18a2.27,2.27,0,0,0-.34,1,0.79,0.79,0,0,0-.06-0.26c-0.15.32-1.14,0.6-.76,0.92a2.5,2.5,0,0,1-.65-0.36,0.67,0.67,0,0,0-.18.24c-0.61-.28-0.39-0.88-0.87-1.28a2.47,2.47,0,0,0-.13.42,7.89,7.89,0,0,0-.23-0.9c-0.09.15-.09,0.09-0.25,0.33a2.94,2.94,0,0,1-.14-0.88,1.78,1.78,0,0,0-.24.23c0.17-1.19.91-2.07,1.44-1.79h0Z" transform="translate(-389.28 -1069.2)"/>
      <path d="M401.15,1090.75a2.66,2.66,0,0,0-.34-0.16,0.75,0.75,0,0,1-.32-0.21,0.84,0.84,0,0,1-.11.23,0.88,0.88,0,0,1-.59-0.68,1.21,1.21,0,0,0-.35-0.59,0.26,0.26,0,0,1,0,.17,2.23,2.23,0,0,1-.07.23l0,0.15,0-.15c0-.13-0.06-0.25-0.08-0.36a3.84,3.84,0,0,0-.12-0.46L399,1089l-0.15.19-0.06.09,0-.11a3.57,3.57,0,0,0-.09-0.41,1.13,1.13,0,0,1-.06-0.38l0,0a0.62,0.62,0,0,1-.13.13l-0.09.08,0-.12c0.16-1.12.87-2,1.43-1.85,0,0,0,0,0,0a0.26,0.26,0,0,0-.08-0.21l-0.11-.14,0.16,0.07a0.42,0.42,0,0,1,.15.11,0.12,0.12,0,0,0,.19,0c0.06,0,.07,0,0-0.19l0-.06h0.07a4.2,4.2,0,0,1,.66.16l0.36,0.09,0.29,0a1,1,0,0,1,.94.15,1.11,1.11,0,0,1,.26,1c0,0.09,0,.19,0,0.29v0.07l-0.06,0a0.23,0.23,0,0,1-.13-0.11,6.18,6.18,0,0,1,0,1c0,0.19,0,.37,0,0.52v0.18l-0.08-.16,0-.08v0c0,0.1-.09.19-0.12,0.26a1.15,1.15,0,0,0-.17.64v0.32l-0.09-.31a0.57,0.57,0,0,1,0-.17h0a1.8,1.8,0,0,1-.39.3,0.83,0.83,0,0,0-.4.37,0.16,0.16,0,0,0,.07.13l-0.05.07h0Zm-0.66-.44a1.38,1.38,0,0,0,.35.19l0.2,0.09a0.17,0.17,0,0,1,0,0,0.82,0.82,0,0,1,.44-0.43,1.17,1.17,0,0,0,.41-0.34l0-.08,0,0.07h0a1.33,1.33,0,0,1,.16-0.41,2.67,2.67,0,0,0,.15-0.34l0-.1,0,0.09,0,0.05c0-.12,0-0.24,0-0.37a4.29,4.29,0,0,0,0-1.15l0-.19,0.13,0.15a0.74,0.74,0,0,1,.12.18l0,0.05c0-.08,0-0.15,0-0.22a1,1,0,0,0-.23-0.9,0.9,0.9,0,0,0-.85-0.12,1.41,1.41,0,0,1-.3,0,2.42,2.42,0,0,1-.4-0.1c-0.2-.06-0.43-0.12-0.57-0.15,0.05,0.14,0,.18-0.05.23a0.2,0.2,0,0,1-.28,0s0,0,0,.07,0,0.07,0,.12v0.08l-0.07,0c-0.44-.23-1.14.48-1.35,1.63l0,0a0.45,0.45,0,0,1,.13-0.12l0.08-.06v0.1a0.94,0.94,0,0,0,0,.44,2.87,2.87,0,0,1,.08.32l0.1-.12a0.7,0.7,0,0,0,.1-0.13l0-.08,0,0.08a3.41,3.41,0,0,1,.15.55l0,0.2,0-.07a0.79,0.79,0,0,1,.07-0.2,1,1,0,0,1,.44.62,0.91,0.91,0,0,0,.48.64,0.31,0.31,0,0,1,.14-0.23h0Z" transform="translate(-389.28 -1069.2)"/>
      <path class="i" d="M399.16,1088.66c0.16-.38.29-0.5,0.4-0.75a1,1,0,0,1,.36-0.73c0.15,0.05.15,0.23-.05,0.66a1.67,1.67,0,0,1-.7.82h0Z" transform="translate(-389.28 -1069.2)"/>
      <path class="i" d="M399.75,1089.62c0.06-.34.16-0.47,0.2-0.69a0.83,0.83,0,0,1,.17-0.66c0.14,0,.17.16,0.08,0.55a1.42,1.42,0,0,1-.45.8h0Z" transform="translate(-389.28 -1069.2)"/>
      <path class="i" d="M400.46,1090.28c0-.33.1-0.46,0.11-0.68a0.8,0.8,0,0,1,.08-0.65c0.13,0,.18.13,0.14,0.51a1.35,1.35,0,0,1-.33.81h0Z" transform="translate(-389.28 -1069.2)"/>
      <path class="i" d="M402,1088.11c-0.29-.29-0.47-0.34-0.65-0.53a1,1,0,0,0-.61-0.52c-0.12.11,0,.27,0.3,0.58a1.64,1.64,0,0,0,1,.47h0Z" transform="translate(-389.28 -1069.2)"/>
      <path class="i" d="M401.8,1089.23c-0.19-.29-0.33-0.37-0.45-0.55s-0.29-.61-0.41-0.54-0.09.22,0.14,0.54a1.37,1.37,0,0,0,.72.56h0Z" transform="translate(-389.28 -1069.2)"/>
      <path class="g" d="M431,1086.39c-2.45,2.45-5.73,7.37-12.28,7.37-5.73,0-9.82-4.91-12.28-7.37,2.46-2.46,6.55-7.37,12.28-7.37,6.55,0,9.82,4.91,12.28,7.37h0Z" transform="translate(-389.28 -1069.2)"/>
      <path d="M418.74,1093.8c-5.15,0-9-3.94-11.48-6.54l-0.82-.84c0.25-.31.53-0.59,0.81-0.89,2.52-2.61,6.34-6.54,11.49-6.54,5.55,0,8.76,3.52,11.1,6.09,0.43,0.47.82,0.91,1.2,1.29-0.38.44-.78,0.88-1.21,1.35-2.34,2.57-5.55,6.09-11.1,6.09h0Zm0-14.73c-5.12,0-8.92,3.92-11.43,6.52l-0.82.83a8.4,8.4,0,0,1,.82.78c2.51,2.59,6.31,6.52,11.43,6.52,5.52,0,8.71-3.51,11-6.06,0.43-.47.83-0.91,1.21-1.29a14.29,14.29,0,0,1-1.21-1.23c-2.33-2.56-5.52-6.07-11-6.07h0Z" transform="translate(-389.28 -1069.2)"/>
      <path class="j" d="M417.89,1081.59c0.65,0.73.11,1,.8,1.08s0.32,0.78.93,0.8c0.43,0,0,1.73.37,2.3s0.77,0.17.78,0.6-1.15.4-1.17,1.75c0,0.78-1,.83-1,1.34s1.85,0.74,1.82,1.16-2.05.36-2.14,0.84,2.79,0.79,3,2a11.35,11.35,0,0,1-2.53.27c-5.73,0-9.82-4.91-12.28-7.37,2.46-2.46,6.55-7.37,12.28-7.37,0,0-1.7,1.55-.86,2.56h0Z" transform="translate(-389.28 -1069.2)"/>
      <rect class="k" x="21.77" y="14.57" width="0.59" height="1.96"/>
      <rect class="k" x="21.77" y="17.84" width="0.59" height="1.96"/>
      <rect class="k" x="22.96" y="14.57" width="0.6" height="1.96"/>
      <rect class="k" x="22.96" y="17.84" width="0.6" height="1.96"/>
      <rect class="k" x="24.15" y="14.57" width="0.59" height="1.96"/>
      <rect class="k" x="24.15" y="17.84" width="0.59" height="1.96"/>
      <rect class="k" x="25.34" y="14.57" width="0.6" height="1.96"/>
      <rect class="k" x="25.34" y="17.84" width="0.6" height="1.96"/>
      <rect class="k" x="26.53" y="14.57" width="0.59" height="1.96"/>
      <rect class="k" x="26.53" y="17.84" width="0.59" height="1.96"/>
      <rect class="k" x="27.72" y="14.57" width="0.6" height="1.96"/>
      <rect class="k" x="27.72" y="17.84" width="0.6" height="1.96"/>
      <rect x="30.77" y="14.57" width="0.59" height="1.96"/>
      <rect x="30.77" y="17.84" width="0.59" height="1.96"/>
      <rect x="31.96" y="14.57" width="0.6" height="1.96"/>
      <rect x="31.96" y="17.84" width="0.6" height="1.96"/>
      <rect x="33.15" y="14.57" width="0.6" height="1.96"/>
      <rect x="33.15" y="17.84" width="0.6" height="1.96"/>
      <rect x="34.34" y="14.57" width="0.6" height="1.96"/>
      <rect x="34.34" y="17.84" width="0.6" height="1.96"/>
      <rect x="35.53" y="14.57" width="0.6" height="1.96"/>
      <rect x="35.53" y="17.84" width="0.6" height="1.96"/>
      <rect x="36.72" y="14.57" width="0.6" height="1.96"/>
      <rect x="36.72" y="17.84" width="0.6" height="1.96"/>
      <path class="h" d="M414.77,1080.33c-0.34.66,0.59-.22,2.06,0.88a2.53,2.53,0,0,1,.66,1.39,4.38,4.38,0,0,1-.87-0.37,2.32,2.32,0,0,1,.65,1.4,0.77,0.77,0,0,1-.42-0.3,6.28,6.28,0,0,1,.2.77,3.31,3.31,0,0,0-.45-0.3c0.21,0.38-.39,1.1-0.09,1.34a1.9,1.9,0,0,1-1.3-.79,0.36,0.36,0,0,0-.13.33,2,2,0,0,1-.74-0.86,0.76,0.76,0,0,0-.15.42,2.26,2.26,0,0,1-.69-1l-0.28.35a1.41,1.41,0,0,1,.1-1.12,4.94,4.94,0,0,0-.4.31,3.58,3.58,0,0,1,1.83-2.46h0Z" transform="translate(-389.28 -1069.2)"/>
      <path d="M416.65,1085.2l-0.12,0a1.94,1.94,0,0,1-1.32-.81,0.58,0.58,0,0,0-.07.31,1.79,1.79,0,0,1-.59-0.45,0.56,0.56,0,0,1-.22-0.4,3.05,3.05,0,0,0-.08.42,1.89,1.89,0,0,1-.75-1,0.34,0.34,0,0,1-.09.19l-0.18.23,0-.1a1.39,1.39,0,0,1,.09-1.08,2.32,2.32,0,0,1-.34.31,3.41,3.41,0,0,1,1.8-2.51,1,1,0,0,0,0,.25,0.23,0.23,0,0,0,.15,0h0.23a2.76,2.76,0,0,1,1.74.61,2.56,2.56,0,0,1,.68,1.41,2.83,2.83,0,0,1-.84-0.31,2,2,0,0,1,.63,1.33,0.89,0.89,0,0,1-.24-0.07,0.52,0.52,0,0,1-.17-0.11l0.08,0.17a1.08,1.08,0,0,1,.12.48c-0.22-.1-0.36-0.19-0.49-0.27a0.67,0.67,0,0,1,0,.68,0.59,0.59,0,0,0,0,.61l0.1,0.08h0Zm-1.43-.87a2.09,2.09,0,0,0,1.23.77,0.84,0.84,0,0,1,.07-0.61,0.92,0.92,0,0,0,.07-0.67,1.09,1.09,0,0,1,.49.26,3.32,3.32,0,0,0-.17-0.43,0.76,0.76,0,0,1-.09-0.31,0.91,0.91,0,0,0,.27.16l0.2,0.11a2.56,2.56,0,0,0-.69-1.35c0-.05.59,0.25,0.9,0.32a2.93,2.93,0,0,0-.69-1.33,2.69,2.69,0,0,0-1.7-.6h-0.23a0.24,0.24,0,0,1-.21-0.06,0.3,0.3,0,0,1,.06-0.27,3.8,3.8,0,0,0-1.77,2.48,1.07,1.07,0,0,1,.35-0.34l0.09-.06-0.05.13a1.34,1.34,0,0,0-.09,1l0.08-.17,0.14-.18a2.9,2.9,0,0,0,.74,1,0.45,0.45,0,0,1,.1-0.41,2.49,2.49,0,0,0,.78.85,0.26,0.26,0,0,1,.09-0.33h0Z" transform="translate(-389.28 -1069.2)"/>
      <path class="i" d="M413.93,1083.55c0.05-.45.17-0.62,0.21-0.92,0.06-.51,0-0.89.17-0.88s0.23,0.2.14,0.71a1.84,1.84,0,0,1-.52,1.08h0Z" transform="translate(-389.28 -1069.2)"/>
      <path class="i" d="M414.88,1084.38c0-.38,0-0.54,0-0.79,0-.43-0.17-0.73,0-0.75s0.24,0.12.26,0.56a1.51,1.51,0,0,1-.25,1h0Z" transform="translate(-389.28 -1069.2)"/>
      <path class="i" d="M416.37,1085.05c-0.16-.33-0.3-0.43-0.4-0.64-0.18-.37-0.22-0.68-0.36-0.62s-0.13.21,0.07,0.58a1.47,1.47,0,0,0,.7.69h0Z" transform="translate(-389.28 -1069.2)"/>
      <path class="i" d="M416.88,1082.09c-0.41-.22-0.62-0.22-0.88-0.36-0.47-.24-0.74-0.52-0.83-0.37s0,0.3.51,0.52a2,2,0,0,0,1.21.2h0Z" transform="translate(-389.28 -1069.2)"/>
      <path class="i" d="M417,1083.33c-0.3-.25-0.48-0.29-0.67-0.45s-0.51-.56-0.62-0.44,0,0.26.32,0.52a1.57,1.57,0,0,0,1,.37h0Z" transform="translate(-389.28 -1069.2)"/>
    </g>
  </g>
</svg>
