<svg xmlns="http://www.w3.org/2000/svg" xmlns:xlink="http://www.w3.org/1999/xlink" viewBox="0 0 58.92 34.37">
  <defs>
    <style>
      .a {
        fill: none;
      }

      .b {
        clip-path: url(#a);
      }

      .c {
        fill: #42a04b;
      }

      .d {
        fill: #4694d2;
      }

      .e {
        fill: #eac126;
      }
    </style>
    <clipPath id="a" transform="translate(-810.08 -1069.2)">
      <rect class="a" x="810.08" y="1069.2" width="58.92" height="34.37"/>
    </clipPath>
  </defs>
  <title>Tanzania</title>
  <g class="b">
    <polygon class="c" points="0 0 0 26.1 44.92 0 0 0"/>
    <polygon class="d" points="14 34.37 58.92 34.37 58.92 8.27 14 34.37"/>
    <polygon class="e" points="58.89 0 58.9 0.01 58.92 0 58.89 0"/>
    <polygon class="e" points="0 34.37 0.02 34.36 0 34.33 0 34.37"/>
    <polygon class="e" points="44.92 0 0 26.1 0 28.75 49.41 0 44.92 0"/>
    <polygon class="e" points="0 34.37 0 34.37 0.03 34.37 0.02 34.36 0 34.37"/>
    <polygon class="e" points="58.92 0 58.9 0.01 58.92 0.04 58.92 0"/>
    <polygon class="e" points="9.52 34.37 14 34.37 58.92 8.27 58.92 5.62 9.52 34.37"/>
    <polygon points="49.41 0 0 28.75 0 34.33 0.02 34.36 0.03 34.37 9.52 34.37 58.92 5.62 58.92 0.04 58.9 0.01 58.89 0 49.41 0"/>
  </g>
</svg>
