<svg xmlns="http://www.w3.org/2000/svg" xmlns:xlink="http://www.w3.org/1999/xlink" viewBox="0 0 58.92 34.37">
  <defs>
    <style>
      .a {
        fill: none;
      }

      .b {
        clip-path: url(#a);
      }

      .c {
        fill: #fff;
      }

      .d {
        fill: #ee933d;
      }

      .e {
        fill: #457fd9;
      }
    </style>
    <clipPath id="a" transform="translate(-1022.15 -1069.2)">
      <rect class="a" x="1022.15" y="1069.2" width="58.92" height="34.37"/>
    </clipPath>
  </defs>
  <title>Tierra_del_Fuego_Province-Argentina</title>
  <g class="b">
    <rect class="c" x="4.12" width="50.69" height="34.37"/>
    <polygon class="d" points="0 34.37 58.92 34.37 51.92 27.65 32.12 19.9 17.42 19.92 24.36 16.03 11.5 4.79 0 0 0 34.37"/>
    <polygon class="e" points="11.77 0 26.26 15.25 34.45 14.21 33.08 18.82 54.57 24.14 58.92 34.37 58.92 0 11.77 0"/>
    <polygon class="c" points="41.49 3.92 42.66 3.24 42.39 1.9 43.39 2.82 44.56 2.14 44.01 3.39 45 4.31 43.66 4.16 43.11 5.41 42.83 4.07 41.49 3.92"/>
    <polygon class="c" points="39.38 11.69 40.55 11.01 40.27 9.67 41.27 10.59 42.44 9.91 41.89 11.16 42.89 12.08 41.55 11.94 40.99 13.19 40.72 11.84 39.38 11.69"/>
    <polygon class="c" points="50.09 21.24 51.26 20.56 50.99 19.22 51.98 20.14 53.16 19.46 52.6 20.71 53.6 21.63 52.26 21.48 51.7 22.73 51.43 21.39 50.09 21.24"/>
    <polygon class="c" points="49.78 4.98 50.95 4.3 50.67 2.95 51.67 3.88 52.84 3.19 52.29 4.45 53.29 5.37 51.95 5.22 51.39 6.47 51.12 5.13 49.78 4.98"/>
    <polygon class="c" points="49.98 10.36 50.6 10 50.45 9.29 50.98 9.78 51.59 9.42 51.3 10.08 51.83 10.56 51.12 10.48 50.83 11.14 50.69 10.43 49.98 10.36"/>
  </g>
</svg>
