<svg xmlns="http://www.w3.org/2000/svg" xmlns:xlink="http://www.w3.org/1999/xlink" viewBox="0 0 58.93 34.37">
  <defs>
    <style>
      .a {
        fill: none;
      }

      .b {
        clip-path: url(#a);
      }

      .c {
        fill: #120065;
      }

      .d {
        fill: #fff;
      }

      .e {
        fill: #f2c227;
      }

      .f {
        fill: #f09b47;
      }

      .g {
        fill: #f08d80;
      }

      .h {
        fill: #f296df;
      }

      .i {
        fill: #44a82f;
      }

      .j {
        fill: #db0037;
      }

      .k {
        fill: #ab582a;
        fill-rule: evenodd;
      }

      .l {
        fill: #ba0019;
      }
    </style>
    <clipPath id="a" transform="translate(-668.7 -1128.18)">
      <rect class="a" x="668.7" y="1128.18" width="58.93" height="34.37"/>
    </clipPath>
  </defs>
  <title>Turks_and_Caicos_Islands</title>
  <g class="b">
    <rect class="c" width="58.93" height="34.37"/>
    <g class="b">
      <path class="d" d="M718.24,1139.8V1144a5.93,5.93,0,1,1-10.7,0v-4.18h10.7Z" transform="translate(-668.7 -1128.18)"/>
      <path d="M712.89,1152.49h0a8.79,8.79,0,0,1-5.36-8.5v-4.18h10.71v4.2a8.79,8.79,0,0,1-5.36,8.5h0Zm5.34-12.69H707.54V1144a5.92,5.92,0,1,0,10.67,0v-4.18h0Z" transform="translate(-668.7 -1128.18)"/>
      <path class="e" d="M717.88,1140.23v3.9a5.53,5.53,0,1,1-10,0v-3.9h10Z" transform="translate(-668.7 -1128.18)"/>
      <path d="M712.89,1152.06h0a8.2,8.2,0,0,1-5-7.93v-3.9h10v3.91a8.2,8.2,0,0,1-5,7.93h0Zm5-11.83h-10v3.89a5.52,5.52,0,1,0,10,0v-3.9h0Z" transform="translate(-668.7 -1128.18)"/>
      <path class="f" d="M710.57,1141.94a0.44,0.44,0,0,0-.26-0.09,0.4,0.4,0,0,0-.31-0.43,0.26,0.26,0,0,1-.21-0.21,0.28,0.28,0,0,0-.22-0.21,0.63,0.63,0,0,1-.28-0.22c0-.06-0.07,0-0.1.05s-0.18.29,0,.3a0.22,0.22,0,0,0-.09.29c-0.07.05-.12,0.13,0,0.16a0.15,0.15,0,0,1,.12.08c-0.08,0-.1.16,0.09,0.2,0,0-.06.14,0,0.14a3.69,3.69,0,0,1-.34.16c-0.14,0-.21,0-0.22.09a0.32,0.32,0,0,1-.12.16,0.28,0.28,0,0,0,.22,0,0.17,0.17,0,0,1,.21,0,0.38,0.38,0,0,0,.25.06,0.51,0.51,0,0,0-.24.32,0.36,0.36,0,0,1-.18.28,0.49,0.49,0,0,0-.25.25,0.7,0.7,0,0,0,.44.43,1.8,1.8,0,0,1,.59.36,1.53,1.53,0,0,1,.35.27,3,3,0,0,0,.53.73,0.43,0.43,0,0,0,.54-0.21c0.13-.23.22-2.54-0.46-2.93h0Z" transform="translate(-668.7 -1128.18)"/>
      <path d="M710.65,1145.1a0.43,0.43,0,0,1-.16,0,1,1,0,0,1-.34-0.43,2.76,2.76,0,0,0-.2-0.31,0.46,0.46,0,0,0-.22-0.18,0.29,0.29,0,0,1-.13-0.09,1.84,1.84,0,0,0-.59-0.36,0.72,0.72,0,0,1-.44-0.43,0.48,0.48,0,0,1,.26-0.26,0.36,0.36,0,0,0,.18-0.28,0.41,0.41,0,0,1,.13-0.24,0.52,0.52,0,0,0-.12.24,0.37,0.37,0,0,1-.18.29,0.46,0.46,0,0,0-.25.24,0.69,0.69,0,0,0,.43.41,1.84,1.84,0,0,1,.6.37,0.29,0.29,0,0,0,.13.09,0.47,0.47,0,0,1,.22.18,2.8,2.8,0,0,1,.2.31,1,1,0,0,0,.33.42,0.43,0.43,0,0,0,.53-0.2,5.39,5.39,0,0,0-.06-2.24,1.06,1.06,0,0,0-.4-0.68,0.43,0.43,0,0,0-.26-0.09,0.4,0.4,0,0,0-.31-0.43,0.27,0.27,0,0,1-.21-0.22,0.27,0.27,0,0,0-.22-0.21,0.61,0.61,0,0,1-.29-0.23c-0.06,0-.07,0-0.09.05l0,0.09a0.66,0.66,0,0,0-.06.13,0.26,0.26,0,0,1,0-.14l0-.09a0.12,0.12,0,0,1,.06-0.1,0.82,0.82,0,0,0,.33.26,0.28,0.28,0,0,1,.23.22,0.25,0.25,0,0,0,.21.21,0.41,0.41,0,0,1,.31.43,0.4,0.4,0,0,1,.26.09,1.08,1.08,0,0,1,.41.68,5.26,5.26,0,0,1,.06,2.25,0.44,0.44,0,0,1-.39.24h0Zm-1.46-2.68a0.31,0.31,0,0,1-.19-0.05,0.17,0.17,0,0,0-.2,0,0.24,0.24,0,0,1-.16,0h0a0.33,0.33,0,0,0,.19-0.05,0.18,0.18,0,0,1,.21,0,0.39,0.39,0,0,0,.21.06h0Zm-0.6,0h0a0.31,0.31,0,0,0,.11-0.16c0-.06.08-0.1,0.22-0.1a0.32,0.32,0,0,0,.19-0.09,0.34,0.34,0,0,1,.13-0.07,0.05,0.05,0,0,1,0-.05,0.08,0.08,0,0,1,0-.09,0.14,0.14,0,0,1-.15-0.13,0.07,0.07,0,0,1,.07-0.06,0.22,0.22,0,0,0-.12-0.07l-0.05-.05a0.16,0.16,0,0,1,.07-0.12,0.19,0.19,0,0,1,0-.18,0.24,0.24,0,0,0,0,.19,0.18,0.18,0,0,0-.07.12,0.28,0.28,0,0,1,.17.12,0.07,0.07,0,0,0-.06.06,0.14,0.14,0,0,0,.14.13,0.11,0.11,0,0,0,0,.09,0.05,0.05,0,0,0,0,.05h0a0.42,0.42,0,0,0-.13.08,0.34,0.34,0,0,1-.19.09c-0.13,0-.21,0-0.21.08a0.31,0.31,0,0,1-.11.16h0Z" transform="translate(-668.7 -1128.18)"/>
      <path class="g" d="M710.87,1141a0.84,0.84,0,0,0-.35.69,1.11,1.11,0,0,1-.23,1,0.54,0.54,0,0,0-.09.9,1.19,1.19,0,0,1,.43.89c0.06,0.3.22,0.54,0.46,0.34,0.24,0,.37-0.06.37-0.25a0.29,0.29,0,0,1,.19-0.36,0.45,0.45,0,0,0,.31-0.29,0.35,0.35,0,0,0,.09-0.33,0.75,0.75,0,0,1,0-.44,0.38,0.38,0,0,0-.1-0.31,0.39,0.39,0,0,1,0-.29,0.24,0.24,0,0,0-.12-0.26,0.2,0.2,0,0,1-.1-0.22,0.26,0.26,0,0,0-.15-0.23,0.38,0.38,0,0,1-.16-0.31,1,1,0,0,0-.49-0.57h0Z" transform="translate(-668.7 -1128.18)"/>
      <path d="M710.93,1144.91a0.42,0.42,0,0,1-.29-0.42l0-.12a1,1,0,0,0-.41-0.77,0.5,0.5,0,0,1-.21-0.43,0.62,0.62,0,0,1,.3-0.49,1.1,1.1,0,0,0,.23-1,0.76,0.76,0,0,1,.29-0.63l0.05-.06a0.93,0.93,0,0,1,.5.57,0.38,0.38,0,0,0,.15.31,0.26,0.26,0,0,1,.15.23,0.19,0.19,0,0,0,.1.21,0.24,0.24,0,0,1,.12.26,0.38,0.38,0,0,0,0,.29,0.39,0.39,0,0,1,.1.32,0.74,0.74,0,0,0,0,.44,0.3,0.3,0,0,1-.06.29,0.5,0.5,0,0,1-.34.33,0.29,0.29,0,0,0-.19.36,0.25,0.25,0,0,1-.07.2,0.35,0.35,0,0,1-.31.06,0.25,0.25,0,0,1-.17.08h0Zm-0.06-3.93,0,0.06a0.74,0.74,0,0,0-.29.62,1.1,1.1,0,0,1-.23,1,0.61,0.61,0,0,0-.29.48,0.47,0.47,0,0,0,.21.42,1,1,0,0,1,.41.78l0,0.12c0.07,0.36.25,0.5,0.45,0.33a0.36,0.36,0,0,0,.3-0.06,0.25,0.25,0,0,0,.07-0.19,0.3,0.3,0,0,1,.2-0.37,0.45,0.45,0,0,0,.31-0.28,0.36,0.36,0,0,0,.08-0.32,0.77,0.77,0,0,1,0-.45,0.29,0.29,0,0,0-.06-0.25,0.45,0.45,0,0,1-.08-0.35,0.24,0.24,0,0,0-.12-0.25,0.21,0.21,0,0,1-.11-0.22,0.24,0.24,0,0,0-.14-0.22,0.39,0.39,0,0,1-.16-0.32,0.94,0.94,0,0,0-.49-0.56h0Z" transform="translate(-668.7 -1128.18)"/>
      <path class="h" d="M710.94,1144.9a0.89,0.89,0,0,0,.31-1,1.81,1.81,0,0,1-.1-1,3.55,3.55,0,0,0-.11-1,0.41,0.41,0,0,0,.07-0.31c0-.05-0.1-0.1-0.11,0a0.29,0.29,0,0,1-.11.23,0.44,0.44,0,0,0,0,.4,0.92,0.92,0,0,1,0,.79,0.64,0.64,0,0,0,0,.67c0.11,0.25.37,1.13,0.09,1.27h0Z" transform="translate(-668.7 -1128.18)"/>
      <path d="M710.88,1144.92l0.05,0c0.28-.14,0-1-0.09-1.26a0.65,0.65,0,0,1,0-.67,0.87,0.87,0,0,0,0-.74,0.49,0.49,0,0,1,0-.46,0.28,0.28,0,0,0,.11-0.22c0-.07,0-0.08,0-0.08a0.08,0.08,0,0,1,.07.06,0.42,0.42,0,0,1-.07.32,0.45,0.45,0,0,0,0,.31,1,1,0,0,1,.06.72,1.38,1.38,0,0,0,.05.8l0,0.18a0.9,0.9,0,0,1-.31,1h-0.06Zm0.17-3.45h0s0,0,0,.07a0.3,0.3,0,0,1-.11.23,0.43,0.43,0,0,0,0,.4,0.93,0.93,0,0,1,0,.79,0.63,0.63,0,0,0,0,.65,1.73,1.73,0,0,1,.13,1.26,0.94,0.94,0,0,0,.26-1l0-.18a1.39,1.39,0,0,1-.05-0.81,1,1,0,0,0-.06-0.71,0.45,0.45,0,0,1,0-.32,0.39,0.39,0,0,0,.07-0.31,0.06,0.06,0,0,0-.05,0h0Zm-2,2.11h0a0.1,0.1,0,0,0,.12-0.06,0.1,0.1,0,0,1,.1-0.08,0.22,0.22,0,0,0,.17-0.07,0.28,0.28,0,0,0,.16-0.13,0.5,0.5,0,0,1,.28-0.33,0.46,0.46,0,0,0-.24.28,0.24,0.24,0,0,1-.15.17,0.32,0.32,0,0,1-.23.1,0.08,0.08,0,0,0-.08.06,0.12,0.12,0,0,1-.11.08h0Zm0.21-1.16h0a0.72,0.72,0,0,1,.17-0.1,0.47,0.47,0,0,0,.18-0.13,0.34,0.34,0,0,1-.18.14,0.65,0.65,0,0,0-.16.1h0Zm0.24-.41h-0.09a0.25,0.25,0,0,0,.16,0,0.06,0.06,0,0,1-.07,0h0Zm0.5,0a0.28,0.28,0,0,1,.31-0.17h0a0.3,0.3,0,0,0-.31.16h0Zm-0.1-.07a0.1,0.1,0,0,0,0-.1,0.16,0.16,0,0,1,0-.15c0-.12,0-0.13-0.07-0.16a0.08,0.08,0,0,1-.05-0.1,0.17,0.17,0,0,0-.07-0.15,0.15,0.15,0,0,1,0-.08,0.14,0.14,0,0,0-.11-0.12h0a0.16,0.16,0,0,1,.12.13,0.13,0.13,0,0,0,0,.08,0.17,0.17,0,0,1,.07.16s0,0.07,0,.08,0.11,0.05.08,0.18a0.14,0.14,0,0,0,0,.14,0.08,0.08,0,0,1,0,.11h0Z" transform="translate(-668.7 -1128.18)"/>
      <path class="i" d="M713.8,1146.21a0.37,0.37,0,0,0,.11.25,2.64,2.64,0,0,0,.18.29c0.14,0.05,0,.22.15,0.3a1.39,1.39,0,0,0,.16.32,1.26,1.26,0,0,1,.1.38,2.39,2.39,0,0,0,.12.37,2.33,2.33,0,0,1,.08.35c0.15,0.11,0,.29.11,0.39s-0.09.24,0.06,0.39a1.5,1.5,0,0,1,0,.4,0.42,0.42,0,0,1-.38.53,3.31,3.31,0,0,1-3.31,0,0.42,0.42,0,0,1-.37-0.53,1.6,1.6,0,0,1,0-.4c0.15-.15-0.09-0.29.06-0.39s0-.28.12-0.39a2.34,2.34,0,0,1,.08-0.35,2.38,2.38,0,0,0,.11-0.37,1.21,1.21,0,0,1,.1-0.38,1.38,1.38,0,0,0,.16-0.32c0.15-.08,0-0.25.15-0.3a2.65,2.65,0,0,0,.18-0.29,0.41,0.41,0,0,0,.12-0.25,3.17,3.17,0,0,0,1.83,0h0Z" transform="translate(-668.7 -1128.18)"/>
      <path d="M713.27,1150.64a0.55,0.55,0,0,1-.39-0.13,0.92,0.92,0,0,1-.93,0,0.89,0.89,0,0,1-.62-0.2,3,3,0,0,0,1.55.21,0.94,0.94,0,0,0,.94,0,0.85,0.85,0,0,0,.72-0.31h0a0.33,0.33,0,0,0,.31-0.16,0.47,0.47,0,0,0,.07-0.36,0.31,0.31,0,0,1,0-.22,0.16,0.16,0,0,0,0-.18,0.19,0.19,0,0,1,0-.22,0.12,0.12,0,0,0,0-.17,0.18,0.18,0,0,1-.06-0.2,0.18,0.18,0,0,0-.05-0.19,0.16,0.16,0,0,1,0-.2c0-.06,0-0.12,0-0.16a0.16,0.16,0,0,1-.07-0.2,0.15,0.15,0,0,0,0-.17,0.14,0.14,0,0,1,0-.17,0.15,0.15,0,0,0-.06-0.2,0.17,0.17,0,0,1-.1-0.19,0.12,0.12,0,0,0-.06-0.13,0.16,0.16,0,0,1-.09-0.17,0.12,0.12,0,0,0-.07-0.13,0.17,0.17,0,0,1-.1-0.16,0.13,0.13,0,0,0-.07-0.13,0.13,0.13,0,0,1-.08-0.13,0.24,0.24,0,0,0,0-.12,1.86,1.86,0,0,1-.8.14h0a3.4,3.4,0,0,1-1-.14,0.28,0.28,0,0,0,0,.12,0.13,0.13,0,0,1-.08.13,0.13,0.13,0,0,0-.07.13,0.17,0.17,0,0,1-.1.16,0.12,0.12,0,0,0-.07.13,0.16,0.16,0,0,1-.08.17,0.12,0.12,0,0,0-.06.13,0.17,0.17,0,0,1-.1.19,0.15,0.15,0,0,0-.06.2,0.14,0.14,0,0,1,0,.17,0.15,0.15,0,0,0,0,.17,0.16,0.16,0,0,1-.07.2c-0.07,0-.06.09,0,0.16a0.16,0.16,0,0,1,0,.2,0.18,0.18,0,0,0-.05.19,0.18,0.18,0,0,1-.06.2,0.12,0.12,0,0,0,0,.16,0.18,0.18,0,0,1,0,.22,0.17,0.17,0,0,0,0,.18,0.31,0.31,0,0,1,0,.22,0.46,0.46,0,0,0,.07.36,0.3,0.3,0,0,0,.26.16h0a0.31,0.31,0,0,1-.28-0.16,0.47,0.47,0,0,1-.07-0.37,0.29,0.29,0,0,0,0-.21,0.18,0.18,0,0,1,0-.19,0.17,0.17,0,0,0,0-.21,0.13,0.13,0,0,1,0-.18,0.16,0.16,0,0,0,.05-0.18,0.19,0.19,0,0,1,.06-0.2,0.15,0.15,0,0,0,0-.18,0.12,0.12,0,0,1,0-.17,0.15,0.15,0,0,0,.06-0.18,0.16,0.16,0,0,1,.05-0.18,0.13,0.13,0,0,0,0-.16,0.16,0.16,0,0,1,.07-0.21,0.16,0.16,0,0,0,.09-0.17,0.14,0.14,0,0,1,.07-0.15,0.15,0.15,0,0,0,.08-0.16,0.13,0.13,0,0,1,.08-0.15,0.15,0.15,0,0,0,.09-0.15,0.14,0.14,0,0,1,.08-0.14,0.11,0.11,0,0,0,.07-0.12,0.24,0.24,0,0,1,0-.13,3.52,3.52,0,0,0,1,.14,1.92,1.92,0,0,0,.8-0.13,0.21,0.21,0,0,1,0,.13,0.11,0.11,0,0,0,.07.12,0.14,0.14,0,0,1,.08.14,0.16,0.16,0,0,0,.09.15,0.13,0.13,0,0,1,.08.15,0.15,0.15,0,0,0,.08.16,0.14,0.14,0,0,1,.07.15,0.16,0.16,0,0,0,.09.17,0.17,0.17,0,0,1,.07.21,0.13,0.13,0,0,0,0,.16,0.16,0.16,0,0,1,.05.18,0.15,0.15,0,0,0,.06.18,0.12,0.12,0,0,1,0,.17,0.15,0.15,0,0,0,0,.18,0.19,0.19,0,0,1,.06.2,0.17,0.17,0,0,0,.05.18,0.13,0.13,0,0,1,0,.18,0.17,0.17,0,0,0,0,.21,0.18,0.18,0,0,1,0,.19,0.29,0.29,0,0,0,0,.21,0.47,0.47,0,0,1-.07.37,0.32,0.32,0,0,1-.27.17,1,1,0,0,1-.76.3,1.06,1.06,0,0,1-.55.16h0Z" transform="translate(-668.7 -1128.18)"/>
      <path class="e" d="M712.11,1146.81a0.25,0.25,0,0,1,0,.17c-0.1.13,0,.2-0.07,0.35a2.59,2.59,0,0,1-.1.37c-0.12.13,0,.24-0.1,0.38s0,0.23-.1.35,0,0.26-.1.39,0,0.29-.12.43a3.41,3.41,0,0,0-.09.38,1.45,1.45,0,0,0-.09.31,3.69,3.69,0,0,0,.24-0.34,0.49,0.49,0,0,0,0-.25,2.12,2.12,0,0,1,.11-0.41c0.1-.12,0-0.34.1-0.42a2.93,2.93,0,0,1,.14-0.4,1.78,1.78,0,0,0,.09-0.38c0.09-.1,0-0.26.09-0.39a1.83,1.83,0,0,0,.07-0.34s0-.37,0-0.19h0Z" transform="translate(-668.7 -1128.18)"/>
      <path d="M711.29,1149.94h0a0.15,0.15,0,0,0,0-.12,0.22,0.22,0,0,1,.06-0.19,0.16,0.16,0,0,0,0-.16,0.22,0.22,0,0,1,.05-0.21,0.27,0.27,0,0,0,.06-0.23,0.24,0.24,0,0,1,.05-0.21,0.21,0.21,0,0,0,.05-0.19,0.22,0.22,0,0,1,.05-0.2,0.17,0.17,0,0,0,0-.17,0.2,0.2,0,0,1,.05-0.19,0.22,0.22,0,0,0,.05-0.19,0.2,0.2,0,0,1,.05-0.19,0.18,0.18,0,0,0,.05-0.17,0.24,0.24,0,0,1,0-.19,0.19,0.19,0,0,0,0-.18,0.19,0.19,0,0,1,0-.17,0.23,0.23,0,0,0,0-.16h0l0-.06a0.39,0.39,0,0,1,0,.26,0.22,0.22,0,0,0,0,.14,0.28,0.28,0,0,1,0,.2,0.32,0.32,0,0,0,0,.2,0.26,0.26,0,0,1,0,.19,0.25,0.25,0,0,0,0,.18,0.21,0.21,0,0,1-.06.2,0.29,0.29,0,0,0-.08.21,0.29,0.29,0,0,1-.06.19,0.25,0.25,0,0,0,0,.19,0.36,0.36,0,0,1-.06.24,0.46,0.46,0,0,0-.08.26,0.27,0.27,0,0,1,0,.15,0.09,0.09,0,0,0,0,.09,0.12,0.12,0,0,1,0,.16,0.41,0.41,0,0,0-.1.15,0.49,0.49,0,0,1-.14.2h0Zm0.86-3.17a0.74,0.74,0,0,1-.09.22,0.18,0.18,0,0,0,0,.16,0.2,0.2,0,0,1,0,.19,0.23,0.23,0,0,0,0,.18,0.2,0.2,0,0,1-.06.18,0.19,0.19,0,0,0-.05.18,0.23,0.23,0,0,1-.05.2,0.19,0.19,0,0,0,0,.18,0.19,0.19,0,0,1-.05.18,0.21,0.21,0,0,0,0,.19,0.22,0.22,0,0,1-.05.2,0.23,0.23,0,0,0-.05.2,0.29,0.29,0,0,1-.06.24,0.21,0.21,0,0,0-.05.2,0.17,0.17,0,0,1,0,.17,0.2,0.2,0,0,0-.06.18,0.2,0.2,0,0,1,0,.09,0.47,0.47,0,0,0,.1-0.16,0.39,0.39,0,0,1,.1-0.15,0.11,0.11,0,0,0,0-.14,0.1,0.1,0,0,1,0-.11,0.29,0.29,0,0,0,0-.15,0.44,0.44,0,0,1,.08-0.26,0.35,0.35,0,0,0,.05-0.23,0.26,0.26,0,0,1,0-.2,0.28,0.28,0,0,0,.06-0.18,0.29,0.29,0,0,1,.08-0.22,0.19,0.19,0,0,0,.05-0.19,0.25,0.25,0,0,1,0-.19,0.26,0.26,0,0,0,0-.18,0.32,0.32,0,0,1,0-.21,0.28,0.28,0,0,0,0-.19,0.25,0.25,0,0,1,0-.15,0.45,0.45,0,0,0,0-.23h0Z" transform="translate(-668.7 -1128.18)"/>
      <path class="e" d="M712.44,1147a1.6,1.6,0,0,1,0,.33c-0.1.15,0.06,0.26-.06,0.41s0.06,0.23,0,.38,0,0.23,0,.34a2.46,2.46,0,0,1,0,.37,2.28,2.28,0,0,0,0,.37c-0.09.13,0,.26,0,0.37a1.84,1.84,0,0,1-.06.39,0.9,0.9,0,0,0,0,.32,0.43,0.43,0,0,0,.14-0.27,2,2,0,0,1,.06-0.37c0.08-.07-0.05-0.28,0-0.37a1.21,1.21,0,0,0,.09-0.38,3.32,3.32,0,0,0,0-.35,2,2,0,0,0,0-.36,1.77,1.77,0,0,0,.05-0.35,0.8,0.8,0,0,0,0-.36c0-.07.12-0.39,0-0.45h0Z" transform="translate(-668.7 -1128.18)"/>
      <path d="M712,1150.23v0a0.13,0.13,0,0,0,0-.12,0.2,0.2,0,0,1,0-.2,0.25,0.25,0,0,0,0-.22,0.2,0.2,0,0,1,0-.17,0.19,0.19,0,0,0,0-.16,0.25,0.25,0,0,1,0-.2,0.17,0.17,0,0,0,0-.16,0.2,0.2,0,0,1,0-.2,0.2,0.2,0,0,0,0-.2,0.18,0.18,0,0,1,0-.17,0.15,0.15,0,0,0,0-.15,0.21,0.21,0,0,1,0-.2,0.19,0.19,0,0,0,0-.18,0.2,0.2,0,0,1,0-.2,0.22,0.22,0,0,0,0-.2,0.24,0.24,0,0,1,0-.21,0.17,0.17,0,0,0,0-.17,0.19,0.19,0,0,1,0-.16,0.11,0.11,0,0,1,.08.08,0.59,0.59,0,0,1,0,.38,0.18,0.18,0,0,0,0,.11,0.28,0.28,0,0,1,0,.25,0.16,0.16,0,0,0,0,.14,0.26,0.26,0,0,1,0,.22,0.17,0.17,0,0,0,0,.15,0.24,0.24,0,0,1,0,.21,0.2,0.2,0,0,0,0,.14,0.31,0.31,0,0,1,0,.21,0.24,0.24,0,0,0,0,.15,0.28,0.28,0,0,1-.07.23,0.25,0.25,0,0,0,0,.19,0.2,0.2,0,0,1,0,.18,0.33,0.33,0,0,0,0,.22,0.23,0.23,0,0,1,0,.15,0.15,0.15,0,0,0,0,.09,0.19,0.19,0,0,1-.11.19h0Zm0.45-3.27a0.21,0.21,0,0,0,0,.15,0.18,0.18,0,0,1,0,.18,0.23,0.23,0,0,0,0,.2,0.23,0.23,0,0,1,0,.21,0.18,0.18,0,0,0,0,.19,0.2,0.2,0,0,1,0,.19,0.2,0.2,0,0,0,0,.19,0.15,0.15,0,0,1,0,.16,0.16,0.16,0,0,0,0,.16,0.21,0.21,0,0,1,0,.21,0.19,0.19,0,0,0,0,.19,0.18,0.18,0,0,1,0,.18,0.24,0.24,0,0,0,0,.19,0.2,0.2,0,0,1,0,.17,0.2,0.2,0,0,0,0,.16,0.26,0.26,0,0,1,0,.23,0.18,0.18,0,0,0,0,.19,0.16,0.16,0,0,1,0,.11,0.2,0.2,0,0,0,.09-0.17,0.15,0.15,0,0,1,0-.1,0.24,0.24,0,0,0,0-.14,0.33,0.33,0,0,1,0-.23,0.19,0.19,0,0,0,0-.17,0.26,0.26,0,0,1,0-.2,0.27,0.27,0,0,0,.06-0.22,0.25,0.25,0,0,1,0-.16,0.3,0.3,0,0,0,0-.2,0.21,0.21,0,0,1,0-.15,0.24,0.24,0,0,0,0-.2,0.18,0.18,0,0,1,0-.16,0.26,0.26,0,0,0,0-.21,0.17,0.17,0,0,1,0-.15,0.27,0.27,0,0,0,0-.24,0.17,0.17,0,0,1,0-.12,0.57,0.57,0,0,0,0-.36,0.11,0.11,0,0,0-.06-0.07h0Z" transform="translate(-668.7 -1128.18)"/>
      <path class="e" d="M712.88,1147.08a1.76,1.76,0,0,0,0,.44,2.92,2.92,0,0,1,0,.45,4.38,4.38,0,0,1,0,.53,2.56,2.56,0,0,0,0,.5,2.47,2.47,0,0,1,0,.58c-0.12.18,0.13,0.24,0,.43s0,0.33.1,0-0.07-.31,0-0.43a2.44,2.44,0,0,0,0-.58,2.55,2.55,0,0,1,0-.55c0.07-.17-0.11-0.36,0-0.5s0-.33,0-0.45a0.92,0.92,0,0,0,0-.35c0-.07,0-0.32-0.09-0.12h0Z" transform="translate(-668.7 -1128.18)"/>
      <path d="M712.91,1150.2l0,0a0.2,0.2,0,0,1,0-.17,0.18,0.18,0,0,0,0-.21,0.19,0.19,0,0,1,0-.22,0.31,0.31,0,0,0,0-.27,0.59,0.59,0,0,1,0-.31,0.38,0.38,0,0,0,0-.23,0.35,0.35,0,0,1,0-.27,0.45,0.45,0,0,0,0-.3,0.35,0.35,0,0,1,0-.23,0.44,0.44,0,0,0,0-.24,0.46,0.46,0,0,1,0-.21,0.28,0.28,0,0,0,0-.18,0.34,0.34,0,0,1,0-.26,0.09,0.09,0,0,1,.05-0.08,0.24,0.24,0,0,1,0,.21,0.21,0.21,0,0,0,0,.12,0.3,0.3,0,0,1,0,.23,0.34,0.34,0,0,0,0,.21,0.42,0.42,0,0,1,0,.25,0.31,0.31,0,0,0,0,.23,0.36,0.36,0,0,1,0,.27,0.57,0.57,0,0,0,0,.31,0.64,0.64,0,0,1,0,.23,0.91,0.91,0,0,0,0,.26,0.53,0.53,0,0,1,0,.32,0.12,0.12,0,0,0,0,.13,0.4,0.4,0,0,1,0,.3,0.17,0.17,0,0,1-.09.14h0Zm0-3.18a0.07,0.07,0,0,0,0,.06,0.34,0.34,0,0,0,0,.25,0.31,0.31,0,0,1,0,.19,0.43,0.43,0,0,0,0,.2,0.43,0.43,0,0,1,0,.25,0.35,0.35,0,0,0,0,.22,0.46,0.46,0,0,1,0,.31,0.35,0.35,0,0,0,0,.26,0.41,0.41,0,0,1,0,.24,0.54,0.54,0,0,0,0,.3,0.31,0.31,0,0,1,0,.28,0.18,0.18,0,0,0,0,.21,0.2,0.2,0,0,1,0,.23,0.19,0.19,0,0,0,0,.15h0s0,0,.08-0.13a0.39,0.39,0,0,0,0-.29,0.13,0.13,0,0,1,0-.14,0.53,0.53,0,0,0,0-.31,0.86,0.86,0,0,1,0-.26,0.67,0.67,0,0,0,0-.23,0.57,0.57,0,0,1,0-.32,0.36,0.36,0,0,0,0-.26,0.31,0.31,0,0,1,0-.24,0.41,0.41,0,0,0,0-.24,0.35,0.35,0,0,1,0-.21,0.28,0.28,0,0,0,0-.22,0.23,0.23,0,0,1,0-.12,0.27,0.27,0,0,0,0-.18h0Z" transform="translate(-668.7 -1128.18)"/>
      <path class="j" d="M713.74,1146.35c0-1.29-.18-1.73-0.86-1.73s-0.86.45-.86,1.73h1.71Z" transform="translate(-668.7 -1128.18)"/>
      <path d="M712.89,1150.5a0.51,0.51,0,0,0,0-.24,0.35,0.35,0,0,1,0-.26,0.23,0.23,0,0,0,0-.22,0.19,0.19,0,0,1,0-.22,0.31,0.31,0,0,0,0-.27,0.59,0.59,0,0,1,0-.31,0.4,0.4,0,0,0,0-.23,0.35,0.35,0,0,1,0-.27,0.45,0.45,0,0,0,0-.3,0.35,0.35,0,0,1,0-.23,0.44,0.44,0,0,0,0-.24,0.46,0.46,0,0,1,0-.21,0.28,0.28,0,0,0,0-.18,0.34,0.34,0,0,1,0-.26,0.59,0.59,0,0,0,0-.32,0.81,0.81,0,0,1,0-.33h0a0.82,0.82,0,0,0,0,.32,0.6,0.6,0,0,1,0,.33,0.34,0.34,0,0,0,0,.25,0.31,0.31,0,0,1,0,.19,0.44,0.44,0,0,0,0,.2,0.44,0.44,0,0,1,0,.25,0.35,0.35,0,0,0,0,.22,0.46,0.46,0,0,1,0,.31,0.35,0.35,0,0,0,0,.26,0.41,0.41,0,0,1,0,.24,0.54,0.54,0,0,0,0,.3,0.31,0.31,0,0,1,0,.28,0.18,0.18,0,0,0,0,.21,0.25,0.25,0,0,1,0,.23,0.33,0.33,0,0,0,0,.25,0.39,0.39,0,0,1,0,.24h0Zm1-.06a0.45,0.45,0,0,0-.1-0.22,0.15,0.15,0,0,1,0-.13,0.18,0.18,0,0,0,0-.19,0.26,0.26,0,0,1,0-.23,0.19,0.19,0,0,0,0-.16,0.21,0.21,0,0,1,0-.17,0.24,0.24,0,0,0,0-.19,0.19,0.19,0,0,1,0-.18,0.19,0.19,0,0,0,0-.19,0.21,0.21,0,0,1,0-.21,0.16,0.16,0,0,0,0-.16,0.16,0.16,0,0,1,0-.16,0.2,0.2,0,0,0,0-.19,0.19,0.19,0,0,1,0-.19,0.18,0.18,0,0,0,0-.19,0.24,0.24,0,0,1,0-.21,0.23,0.23,0,0,0,0-.2,0.18,0.18,0,0,1,0-.18,0.19,0.19,0,0,0,0-.16,0.19,0.19,0,0,1,0-.17,0.13,0.13,0,0,0,0-.15,0.15,0.15,0,0,1,0-.16,0.2,0.2,0,0,0,0-.12h-0.79a0.19,0.19,0,0,0,0,.12,0.16,0.16,0,0,1,0,.16,0.13,0.13,0,0,0,0,.15,0.19,0.19,0,0,1,0,.17,0.19,0.19,0,0,0,0,.16,0.18,0.18,0,0,1,0,.18,0.23,0.23,0,0,0,0,.2,0.23,0.23,0,0,1,0,.21,0.18,0.18,0,0,0,0,.19,0.2,0.2,0,0,1,0,.19,0.2,0.2,0,0,0,0,.19,0.15,0.15,0,0,1,0,.16,0.16,0.16,0,0,0,0,.16,0.21,0.21,0,0,1,0,.21,0.19,0.19,0,0,0,0,.19,0.18,0.18,0,0,1,0,.18,0.23,0.23,0,0,0,0,.19,0.21,0.21,0,0,1,0,.17,0.19,0.19,0,0,0,0,.16,0.26,0.26,0,0,1,0,.23,0.18,0.18,0,0,0,0,.19,0.14,0.14,0,0,1,0,.13,0.35,0.35,0,0,0-.08.22,0.28,0.28,0,0,1,.07-0.22,0.13,0.13,0,0,0,0-.12,0.2,0.2,0,0,1,0-.2,0.25,0.25,0,0,0,0-.22,0.2,0.2,0,0,1,0-.17,0.19,0.19,0,0,0,0-.16,0.25,0.25,0,0,1,0-.2,0.17,0.17,0,0,0,0-.16,0.2,0.2,0,0,1,0-.2,0.2,0.2,0,0,0,0-.2,0.18,0.18,0,0,1,0-.17,0.15,0.15,0,0,0,0-.15,0.21,0.21,0,0,1,0-.2,0.19,0.19,0,0,0,0-.18,0.2,0.2,0,0,1,0-.2,0.22,0.22,0,0,0,0-.2,0.24,0.24,0,0,1,0-.21,0.17,0.17,0,0,0,0-.17,0.19,0.19,0,0,1,0-.16,0.18,0.18,0,0,0,0-.16,0.15,0.15,0,0,1,0-.16,0.14,0.14,0,0,0,0-.15,0.22,0.22,0,0,1,0-.12h-0.25a0.36,0.36,0,0,0,0,.06,0.22,0.22,0,0,1-.05.2,0.25,0.25,0,0,0-.06.19,0.26,0.26,0,0,1-.05.18,0.18,0.18,0,0,0,0,.16,0.2,0.2,0,0,1,0,.19,0.23,0.23,0,0,0,0,.18,0.2,0.2,0,0,1-.06.18,0.19,0.19,0,0,0-.05.18,0.23,0.23,0,0,1-.05.2,0.19,0.19,0,0,0,0,.18,0.19,0.19,0,0,1-.05.18,0.21,0.21,0,0,0,0,.19,0.22,0.22,0,0,1-.05.2,0.23,0.23,0,0,0-.05.2,0.29,0.29,0,0,1-.06.24,0.21,0.21,0,0,0-.05.2,0.17,0.17,0,0,1,0,.17,0.2,0.2,0,0,0-.06.18,0.15,0.15,0,0,1,0,.13,0.21,0.21,0,0,0-.06.23,0.19,0.19,0,0,1,0-.24,0.15,0.15,0,0,0,0-.12,0.22,0.22,0,0,1,.06-0.19,0.16,0.16,0,0,0,0-.16,0.22,0.22,0,0,1,.05-0.21,0.27,0.27,0,0,0,.06-0.22,0.24,0.24,0,0,1,.05-0.21,0.21,0.21,0,0,0,.05-0.19,0.22,0.22,0,0,1,.05-0.2,0.17,0.17,0,0,0,0-.17,0.2,0.2,0,0,1,.05-0.19,0.22,0.22,0,0,0,.05-0.19,0.2,0.2,0,0,1,.05-0.19,0.18,0.18,0,0,0,.05-0.17,0.24,0.24,0,0,1,0-.19,0.19,0.19,0,0,0,0-.18,0.19,0.19,0,0,1,0-.17,0.23,0.23,0,0,0,0-.17,0.26,0.26,0,0,1,.07-0.2,0.22,0.22,0,0,0,0-.19,0.35,0.35,0,0,1,0-.06H712c0-1.34.2-1.75,0.86-1.75s0.86,0.41.86,1.74h-0.2a0.35,0.35,0,0,1,0,.06,0.22,0.22,0,0,0,0,.19,0.26,0.26,0,0,1,.07.2,0.24,0.24,0,0,0,0,.17,0.19,0.19,0,0,1,0,.17,0.18,0.18,0,0,0,0,.18,0.24,0.24,0,0,1,0,.19,0.18,0.18,0,0,0,.05.17,0.2,0.2,0,0,1,.05.19,0.21,0.21,0,0,0,0,.19,0.2,0.2,0,0,1,.05.19,0.17,0.17,0,0,0,.05.17,0.22,0.22,0,0,1,.05.2,0.21,0.21,0,0,0,0,.19,0.23,0.23,0,0,1,.05.21,0.27,0.27,0,0,0,.06.22,0.23,0.23,0,0,1,.05.21,0.16,0.16,0,0,0,0,.16,0.22,0.22,0,0,1,.06.19,0.15,0.15,0,0,0,0,.12,0.21,0.21,0,0,1,.06.25,0.23,0.23,0,0,0-.07-0.24,0.16,0.16,0,0,1,0-.13,0.21,0.21,0,0,0-.06-0.18,0.18,0.18,0,0,1,0-.17,0.21,0.21,0,0,0-.05-0.2,0.28,0.28,0,0,1-.06-0.24,0.23,0.23,0,0,0-.05-0.2,0.22,0.22,0,0,1-.05-0.2,0.21,0.21,0,0,0,0-.19,0.19,0.19,0,0,1-.05-0.18,0.19,0.19,0,0,0-.05-0.18,0.22,0.22,0,0,1-.05-0.2,0.19,0.19,0,0,0,0-.18,0.19,0.19,0,0,1-.06-0.18,0.23,0.23,0,0,0,0-.18,0.21,0.21,0,0,1,0-.19,0.17,0.17,0,0,0,0-.16,0.26,0.26,0,0,1-.05-0.18,0.25,0.25,0,0,0-.06-0.19,0.22,0.22,0,0,1-.05-0.2,0.36,0.36,0,0,0,0-.06h-0.25a0.2,0.2,0,0,1,0,.12,0.14,0.14,0,0,0,0,.15,0.14,0.14,0,0,1,0,.16,0.17,0.17,0,0,0,0,.16,0.19,0.19,0,0,1,0,.16,0.17,0.17,0,0,0,0,.17,0.25,0.25,0,0,1,0,.21,0.22,0.22,0,0,0,0,.2,0.2,0.2,0,0,1,0,.2,0.18,0.18,0,0,0,0,.18,0.21,0.21,0,0,1,0,.2,0.14,0.14,0,0,0,0,.15,0.18,0.18,0,0,1,0,.17,0.19,0.19,0,0,0,0,.2,0.2,0.2,0,0,1,0,.2,0.18,0.18,0,0,0,0,.16,0.25,0.25,0,0,1,0,.2,0.19,0.19,0,0,0,0,.16,0.21,0.21,0,0,1,0,.17,0.24,0.24,0,0,0,0,.22,0.2,0.2,0,0,1,0,.2,0.13,0.13,0,0,0,0,.12,0.34,0.34,0,0,1,.09.23h0Zm-1-5.82c-0.65,0-.85.4-0.85,1.73h0.19a0.17,0.17,0,0,1,.05-0.11h0a0.16,0.16,0,0,0-.05.1h0.25l0-.06h0l0,0.05h0.78l0,0h0l0,0.06h0.25a0.15,0.15,0,0,0-.05-0.09h0a0.19,0.19,0,0,1,.05.1h0.19c0-1.32-.2-1.72-0.85-1.72h0Z" transform="translate(-668.7 -1128.18)"/>
      <path d="M712,1146.35c0-1.29.18-1.73,0.86-1.73a0.6,0.6,0,0,0-.55.4c-0.05.16,0,.15,0,0.09s0,0.07,0,.15-0.11.29,0,.22,0.14,0,.06.13-0.16.4-.07,0.3,0.1,0.06.05,0.14,0,0.15,0,.12,0,0.13,0,.19H712Z" transform="translate(-668.7 -1128.18)"/>
      <path d="M712.36,1146.35H712c0-1.34.2-1.75,0.86-1.75a0.61,0.61,0,0,0-.54.41,0.24,0.24,0,0,0,0,.12h0l0.06,0h0l-0.07,0s0,0,0-.14a0.6,0.6,0,0,1,.52-0.4c-0.62,0-.81.44-0.81,1.74h0.32a0.28,0.28,0,0,0,0-.12,0.18,0.18,0,0,1,0,.13h0Zm-0.08-.43a0.5,0.5,0,0,1,.1-0.33,0.17,0.17,0,0,0,0-.11,0.12,0.12,0,0,1,0,.12,0.64,0.64,0,0,0-.11.31l0.08,0,0,0h0l-0.09,0h0Z" transform="translate(-668.7 -1128.18)"/>
      <path d="M713.61,1146.27c0-1-.12-1.31-0.38-1.42s-0.15,0-.08,0,0.06,0.22,0,.13-0.08-.11-0.11-0.07a1.16,1.16,0,0,0,.15.4c0.06,0.14,0,.21-0.07.07s-0.09,0,0,.1a2,2,0,0,1,.1.79Z" transform="translate(-668.7 -1128.18)"/>
      <path d="M713.2,1146.33v0a2,2,0,0,0-.1-0.77,0.24,0.24,0,0,1-.05-0.16s0,0,.08.05a0.13,0.13,0,0,0,.07.07,0.15,0.15,0,0,0,0-.13l-0.05-.12A0.51,0.51,0,0,1,713,1145h0a0.44,0.44,0,0,0,.08.29l0.05,0.12a0.19,0.19,0,0,1,0,.14,0.1,0.1,0,0,1-.1-0.07,0.13,0.13,0,0,0-.05-0.06,0.21,0.21,0,0,0,.05.15,1.89,1.89,0,0,1,.1.77h0l0.4-.05c0-1-.14-1.31-0.38-1.4l-0.11,0a0.13,0.13,0,0,0,0,.07,0.19,0.19,0,0,1,0,.16l0,0s0-.07,0-0.12a0.13,0.13,0,0,1,0-.08,0.22,0.22,0,0,1,.13,0c0.24,0.1.38,0.36,0.38,1.42l-0.42.06h0Z" transform="translate(-668.7 -1128.18)"/>
      <path class="j" d="M712.88,1146.54a2.28,2.28,0,0,0,.76-0.12c0.23-.09.25-0.17,0.17-0.27a0.28,0.28,0,0,0-.3,0,2.3,2.3,0,0,1-1.24,0,0.28,0.28,0,0,0-.3,0c-0.08.1-.07,0.18,0.17,0.27a2.29,2.29,0,0,0,.76.13h0Z" transform="translate(-668.7 -1128.18)"/>
      <path d="M712.88,1146.54a2.3,2.3,0,0,1-.76-0.12,0.31,0.31,0,0,1-.21-0.15,0.15,0.15,0,0,1,0-.13,0.29,0.29,0,0,1,.31,0,2.33,2.33,0,0,0,1.24,0,0.3,0.3,0,0,1,.31,0,0.15,0.15,0,0,1,0,.13,0.32,0.32,0,0,1-.21.15,2.31,2.31,0,0,1-.76.13h0Zm-0.83-.44a0.1,0.1,0,0,0-.09,0,0.13,0.13,0,0,0,0,.12,0.31,0.31,0,0,0,.2.15,2.56,2.56,0,0,0,1.51,0,0.31,0.31,0,0,0,.21-0.15,0.14,0.14,0,0,0,0-.12,0.28,0.28,0,0,0-.29,0,2.27,2.27,0,0,1-1.25,0,0.6,0.6,0,0,0-.21-0.06h0Z" transform="translate(-668.7 -1128.18)"/>
      <path class="k" d="M715.49,1144.83l0.3,0.53c0.13,0.22.23,0.27,0.33,0.21s0-.25-0.06-0.33-0.49-.49-0.49-0.49Z" transform="translate(-668.7 -1128.18)"/>
      <path d="M716,1145.59a0.37,0.37,0,0,1-.26-0.24l-0.3-.52,0.09-.1h0s0.42,0.4.5,0.49a0.4,0.4,0,0,1,.1.26,0.11,0.11,0,0,1,0,.08,0.13,0.13,0,0,1-.08,0h0Zm-0.47-.85-0.07.09,0.3,0.52a0.36,0.36,0,0,0,.24.23h0l0.07,0a0.09,0.09,0,0,0,0-.07,0.38,0.38,0,0,0-.1-0.25c-0.07-.09-0.48-0.49-0.48-0.49h0Z" transform="translate(-668.7 -1128.18)"/>
      <path class="k" d="M715.44,1144.85l0.12,0.6c0.05,0.25.13,0.34,0.24,0.31s0.09-.23,0-0.33-0.3-.63-0.3-0.63Z" transform="translate(-668.7 -1128.18)"/>
      <path d="M715.77,1145.78c-0.1,0-.17-0.11-0.21-0.32l-0.12-.6,0.11-.06s0.27,0.53.31,0.63a0.41,0.41,0,0,1,0,.29,0.11,0.11,0,0,1-.07.06h0Zm-0.22-1-0.1.06,0.12,0.59c0,0.21.11,0.31,0.2,0.31h0a0.09,0.09,0,0,0,.06,0,0.4,0.4,0,0,0,0-.28c0-.11-0.3-0.63-0.3-0.63h0Z" transform="translate(-668.7 -1128.18)"/>
      <path class="k" d="M715.37,1144.86v0.62c0,0.26.06,0.36,0.18,0.36s0.13-.2.11-0.32-0.17-.68-0.17-0.68Z" transform="translate(-668.7 -1128.18)"/>
      <path d="M715.54,1145.84c-0.12,0-.18-0.12-0.18-0.36v-0.62l0.12,0s0.16,0.57.18,0.69a0.4,0.4,0,0,1,0,.29,0.1,0.1,0,0,1-.08,0h0Zm-0.06-1-0.11,0v0.61c0,0.23.05,0.35,0.16,0.35h0a0.08,0.08,0,0,0,.06,0,0.4,0.4,0,0,0,0-.27c0-.11-0.17-0.68-0.17-0.68h0Z" transform="translate(-668.7 -1128.18)"/>
      <path class="k" d="M715.37,1144.86c0.32,0,.36-0.12.36-0.12a0.7,0.7,0,0,0,0-.3,0.94,0.94,0,0,0-.39-0.06v0.49Z" transform="translate(-668.7 -1128.18)"/>
      <path d="M715.36,1144.87v-0.5a0.79,0.79,0,0,1,.41.06,0.68,0.68,0,0,1,0,.31s0,0.12-.37.13h0Zm0-.49v0.47a0.33,0.33,0,0,0,.34-0.11,0.65,0.65,0,0,0,0-.3,0.86,0.86,0,0,0-.38-0.06h0Z" transform="translate(-668.7 -1128.18)"/>
      <path class="k" d="M715.37,1144.61a0.43,0.43,0,0,0,.4-0.12,0.47,0.47,0,0,0,.06-0.3,1.37,1.37,0,0,0-.46-0.06v0.49Z" transform="translate(-668.7 -1128.18)"/>
      <path d="M715.37,1144.62h0v-0.49a1.13,1.13,0,0,1,.47.05,0.46,0.46,0,0,1-.06.31,0.42,0.42,0,0,1-.41.13h0Zm0-.49v0.47a0.42,0.42,0,0,0,.39-0.12,0.44,0.44,0,0,0,.06-0.3,1.28,1.28,0,0,0-.46-0.06h0Z" transform="translate(-668.7 -1128.18)"/>
      <path class="k" d="M715.37,1144.37a0.85,0.85,0,0,0,.46-0.12,0.48,0.48,0,0,0,.06-0.3,1.64,1.64,0,0,0-.52-0.06v0.48Z" transform="translate(-668.7 -1128.18)"/>
      <path d="M715.37,1144.38h0v-0.48a1.38,1.38,0,0,1,.53.05,0.48,0.48,0,0,1-.06.31,0.87,0.87,0,0,1-.47.13h0Zm0-.48v0.47a0.85,0.85,0,0,0,.45-0.12,0.45,0.45,0,0,0,.06-0.29,1.53,1.53,0,0,0-.51-0.06h0Z" transform="translate(-668.7 -1128.18)"/>
      <path class="k" d="M715.56,1142.13a4.11,4.11,0,0,1,.79-0.61,2.72,2.72,0,0,1,.93-0.48,4,4,0,0,1-.79.61c-0.36.24-.79,0.61-0.79,0.61Z" transform="translate(-668.7 -1128.18)"/>
      <path d="M715.71,1142.26l-0.15-.13a3.53,3.53,0,0,1,.79-0.62l0.17-.11a3,3,0,0,1,.73-0.39,0,0,0,0,1,0,0,3,3,0,0,0-.73.38l-0.17.11a4.15,4.15,0,0,0-.79.61l0.14,0.11s0.45-.38.78-0.61a7.3,7.3,0,0,0,.73-0.54,4.92,4.92,0,0,1-.72.55c-0.35.24-.78,0.6-0.79,0.61h0Z" transform="translate(-668.7 -1128.18)"/>
      <path class="k" d="M715.6,1142.37a7.85,7.85,0,0,1,.83-0.43,2.24,2.24,0,0,1,1.29-.12,9.49,9.49,0,0,0-1.14.24,7.78,7.78,0,0,0-.82.42Z" transform="translate(-668.7 -1128.18)"/>
      <path d="M715.74,1142.5l-0.15-.12a5.07,5.07,0,0,1,.83-0.44,2.77,2.77,0,0,1,1-.17,0.66,0.66,0,0,1,.33.05,0.82,0.82,0,0,1-.3.06,3.31,3.31,0,0,0-.85.19,7.88,7.88,0,0,0-.82.42h0Zm1.65-.72a2.78,2.78,0,0,0-1,.17,7.59,7.59,0,0,0-.82.42l0.14,0.11a7.81,7.81,0,0,1,.82-0.42,3.38,3.38,0,0,1,.85-0.19,1.1,1.1,0,0,0,.29-0.05,0.74,0.74,0,0,0-.32,0h0Z" transform="translate(-668.7 -1128.18)"/>
      <path class="k" d="M715.6,1142.79a7.37,7.37,0,0,1,.82-0.3,2.25,2.25,0,0,1,1.33,0c-0.07.06-.69,0-1.12,0.12a5,5,0,0,0-.9.3Z" transform="translate(-668.7 -1128.18)"/>
      <path d="M715.74,1142.92l-0.15-.12a4.67,4.67,0,0,1,.83-0.31,2.42,2.42,0,0,1,.71-0.1,1.22,1.22,0,0,1,.63.1,1,1,0,0,1-.39.05,4.54,4.54,0,0,0-.74.07,5.12,5.12,0,0,0-.89.3h0Zm1.39-.52a2.45,2.45,0,0,0-.7.1,6.7,6.7,0,0,0-.82.3l0.14,0.11a5.17,5.17,0,0,1,.89-0.3,4.79,4.79,0,0,1,.74-0.08,1.19,1.19,0,0,0,.38,0,1.59,1.59,0,0,0-.62-0.08h0Z" transform="translate(-668.7 -1128.18)"/>
      <path class="k" d="M715.63,1143.21a1.73,1.73,0,0,1,.9-0.3,1.39,1.39,0,0,1,1.12.36,6.37,6.37,0,0,0-1.07-.22,2,2,0,0,0-.8.28Z" transform="translate(-668.7 -1128.18)"/>
      <path d="M715.77,1143.34l-0.15-.12a1.58,1.58,0,0,1,.9-0.32,1.4,1.4,0,0,1,1.12.37,0.68,0.68,0,0,1-.29-0.06,1.86,1.86,0,0,0-.79-0.16,2,2,0,0,0-.79.28h0Zm0.89-.43h-0.14a1.73,1.73,0,0,0-.89.3l0.14,0.11a2,2,0,0,1,.79-0.28,2.1,2.1,0,0,1,.79.16,1.1,1.1,0,0,0,.25.07,1.22,1.22,0,0,0-.95-0.36h0Z" transform="translate(-668.7 -1128.18)"/>
      <path class="k" d="M715.37,1144.07c0.52,0,.52-0.16.52-0.16a0.47,0.47,0,0,0,.06-0.3,1.91,1.91,0,0,0-.58,0v0.49Z" transform="translate(-668.7 -1128.18)"/>
      <path d="M715.36,1144.07v-0.49l0.3,0a0.44,0.44,0,0,1,.29,0,0.46,0.46,0,0,1-.06.31s0,0.15-.53.16h0Zm0.3-.5h-0.29v0.47c0.49,0,.5-0.15.5-0.15a0.45,0.45,0,0,0,.06-0.3,0.5,0.5,0,0,0-.28,0h0Z" transform="translate(-668.7 -1128.18)"/>
      <path class="k" d="M715.37,1143.82a0.7,0.7,0,0,0,.58-0.12,0.48,0.48,0,0,0,.06-0.3,2.47,2.47,0,0,0-.63-0.06v0.49Z" transform="translate(-668.7 -1128.18)"/>
      <path d="M715.36,1143.83v-0.49a2.1,2.1,0,0,1,.65.06,0.47,0.47,0,0,1-.06.31,0.7,0.7,0,0,1-.58.13h0Zm0-.49v0.47a0.72,0.72,0,0,0,.56-0.12,0.44,0.44,0,0,0,.06-0.3,2.23,2.23,0,0,0-.63-0.06h0Z" transform="translate(-668.7 -1128.18)"/>
      <path class="k" d="M715.37,1143.52a1,1,0,0,0,.63-0.12,0.48,0.48,0,0,0,.06-0.3,2.89,2.89,0,0,0-.69-0.06v0.49Z" transform="translate(-668.7 -1128.18)"/>
      <path d="M715.36,1143.53V1143a2.41,2.41,0,0,1,.71.05,0.46,0.46,0,0,1-.06.31,1,1,0,0,1-.64.13h0Zm0-.49v0.47a1,1,0,0,0,.62-0.12,0.44,0.44,0,0,0,.06-0.29,2.7,2.7,0,0,0-.69-0.06h0Z" transform="translate(-668.7 -1128.18)"/>
      <path class="k" d="M715.37,1143.21a1.37,1.37,0,0,0,.69-0.12,0.54,0.54,0,0,0,0-.3,2.89,2.89,0,0,0-.69-0.06v0.49Z" transform="translate(-668.7 -1128.18)"/>
      <path d="M715.36,1143.22v-0.49a2.36,2.36,0,0,1,.71.06,0.54,0.54,0,0,1,0,.31,1.3,1.3,0,0,1-.7.13h0Zm0-.49v0.47a1.39,1.39,0,0,0,.68-0.12h0a0.54,0.54,0,0,0,0-.29,2.6,2.6,0,0,0-.69-0.06h0Z" transform="translate(-668.7 -1128.18)"/>
      <path class="k" d="M715.49,1141.88a1.08,1.08,0,0,0,.46-0.55,1.44,1.44,0,0,0-.26-0.61,0.78,0.78,0,0,1,.38.61,1.42,1.42,0,0,1-.43.67Z" transform="translate(-668.7 -1128.18)"/>
      <path d="M715.63,1142l-0.15-.13a1.16,1.16,0,0,0,.46-0.55,1,1,0,0,0-.19-0.49l-0.07-.12a0.77,0.77,0,0,1,.39.6,1.4,1.4,0,0,1-.43.67h0Zm0.05-1.28a0.53,0.53,0,0,1,.07.1,1,1,0,0,1,.2.5,1.06,1.06,0,0,1-.46.55l0.14,0.11a1.37,1.37,0,0,0,.43-0.66,0.77,0.77,0,0,0-.37-0.6h0Z" transform="translate(-668.7 -1128.18)"/>
      <path class="k" d="M715.49,1141.88a2.06,2.06,0,0,1-.06-0.55,1.13,1.13,0,0,1,.35-0.79,4,4,0,0,0-.23.79,4.09,4.09,0,0,0,.09.67Z" transform="translate(-668.7 -1128.18)"/>
      <path d="M715.64,1142l-0.16-.13a2,2,0,0,1-.06-0.55,1.12,1.12,0,0,1,.35-0.79,0.32,0.32,0,0,1-.05.21,1.43,1.43,0,0,0-.16.58,4,4,0,0,0,.09.67v0h0Zm0.13-1.47a1.15,1.15,0,0,0-.33.79,2.12,2.12,0,0,0,.06.55l0.13,0.11a3.9,3.9,0,0,1-.08-0.65,1.48,1.48,0,0,1,.16-0.59,0.44,0.44,0,0,0,.07-0.2h0Z" transform="translate(-668.7 -1128.18)"/>
      <path class="k" d="M715.37,1142.91a1.38,1.38,0,0,0,.69-0.12,0.7,0.7,0,0,0-.06-0.3,2.4,2.4,0,0,0-.63-0.06v0.49Z" transform="translate(-668.7 -1128.18)"/>
      <path d="M715.36,1142.92v-0.5a2.16,2.16,0,0,1,.65.06,0.68,0.68,0,0,1,.06.31,1.27,1.27,0,0,1-.7.13h0Zm0-.49v0.47a1.37,1.37,0,0,0,.68-0.12h0a0.76,0.76,0,0,0-.06-0.29,2.3,2.3,0,0,0-.63-0.06h0Z" transform="translate(-668.7 -1128.18)"/>
      <path class="k" d="M715.37,1142.61a1,1,0,0,0,.63-0.12,0.69,0.69,0,0,0-.06-0.3,2.06,2.06,0,0,0-.58-0.06v0.49Z" transform="translate(-668.7 -1128.18)"/>
      <path d="M715.36,1142.62v-0.49a1.75,1.75,0,0,1,.59.06,0.68,0.68,0,0,1,.06.31,1,1,0,0,1-.64.13h0Zm0-.49v0.47a1,1,0,0,0,.62-0.12h0a0.72,0.72,0,0,0-.06-0.29,1.86,1.86,0,0,0-.57-0.06h0Z" transform="translate(-668.7 -1128.18)"/>
      <path class="k" d="M716.87,1146.25a4.46,4.46,0,0,1-.23-1.28c0-.34.11-2,0.12-2.67a0.9,0.9,0,0,0-.81-1,0.56,0.56,0,0,0-.58.61h0.17a0.41,0.41,0,0,1,.4-0.43,0.73,0.73,0,0,1,.63.85c0,0.65-.07,2.34-0.06,2.8a2.4,2.4,0,0,0,.35,1.15h0Z" transform="translate(-668.7 -1128.18)"/>
      <path class="e" d="M716.85,1146.26a2.41,2.41,0,0,1-.35-1.16c0-.2,0-0.62,0-1.1s0-1.33,0-1.7a0.72,0.72,0,0,0-.62-0.83,0.39,0.39,0,0,0-.38.41l-0.19,0a0.56,0.56,0,0,1,.58-0.64,0.75,0.75,0,0,1,.54.23,1.13,1.13,0,0,1,.29.82c0,0.37,0,1-.07,1.63s0,0.89,0,1a4.41,4.41,0,0,0,.23,1.27l0,0h0Zm-0.91-4.83a0.75,0.75,0,0,1,.65.87c0,0.37,0,1.08,0,1.7,0,0.47,0,.9,0,1.09a2.36,2.36,0,0,0,.23.94,5.14,5.14,0,0,1-.16-1.06c0-.15,0-0.57,0-1s0.06-1.26.07-1.63a1.09,1.09,0,0,0-.28-0.79,0.71,0.71,0,0,0-.51-0.22,0.54,0.54,0,0,0-.56.59l0.15,0a0.4,0.4,0,0,1,.4-0.43h0Z" transform="translate(-668.7 -1128.18)"/>
      <path class="k" d="M715.25,1144.83l-0.3.53c-0.13.22-.23,0.27-0.33,0.21s0-.25.06-0.33,0.49-.49.49-0.49Z" transform="translate(-668.7 -1128.18)"/>
      <path d="M714.7,1145.59a0.13,0.13,0,0,1-.08,0,0.11,0.11,0,0,1,0-.08,0.4,0.4,0,0,1,.1-0.26c0.07-.09.49-0.49,0.49-0.49l0.09,0.09-0.3.53a0.38,0.38,0,0,1-.26.24h0Zm0.46-.85-0.48.49a0.39,0.39,0,0,0-.1.25,0.1,0.1,0,0,0,0,.07c0.1,0.07.2,0,.32-0.2l0.3-.53-0.08-.08h0Z" transform="translate(-668.7 -1128.18)"/>
      <path class="k" d="M715.37,1141.85a0.69,0.69,0,0,1,.58.34l-0.12.11a1.27,1.27,0,0,1-.46.06v-0.52Z" transform="translate(-668.7 -1128.18)"/>
      <path d="M715.38,1142.37h0v-0.52a0.65,0.65,0,0,1,.59.33l-0.11.13a1.26,1.26,0,0,1-.45.06h0Zm0-.52v0.51h0a1.22,1.22,0,0,0,.44-0.06l0.12-.12a0.69,0.69,0,0,0-.57-0.33h0Z" transform="translate(-668.7 -1128.18)"/>
      <path class="k" d="M715.3,1144.85l-0.12.6c-0.05.25-.13,0.34-0.24,0.31s-0.09-.23,0-0.33,0.3-.63.3-0.63Z" transform="translate(-668.7 -1128.18)"/>
      <path d="M715,1145.78h0a0.11,0.11,0,0,1-.07-0.06,0.41,0.41,0,0,1,0-.29c0-.11.3-0.63,0.3-0.63l0.12,0.05-0.12.61c0,0.21-.11.32-0.21,0.32h0Zm0.21-1s-0.25.52-.29,0.63a0.4,0.4,0,0,0,0,.28,0.09,0.09,0,0,0,.06,0h0c0.09,0,.15-0.1.2-0.31l0.12-.6-0.1,0h0Z" transform="translate(-668.7 -1128.18)"/>
      <path class="k" d="M715.37,1144.86v0.62c0,0.26-.06.36-0.18,0.36s-0.13-.2-0.11-0.32,0.17-.68.17-0.68Z" transform="translate(-668.7 -1128.18)"/>
      <path d="M715.2,1145.84h0a0.1,0.1,0,0,1-.07,0,0.41,0.41,0,0,1,0-.29c0-.11.17-0.68,0.17-0.68l0.13,0v0.62c0,0.24-.06.36-0.18,0.36h0Zm0.05-1s-0.14.56-.16,0.68a0.39,0.39,0,0,0,0,.27,0.08,0.08,0,0,0,.06,0h0c0.11,0,.16-0.11.16-0.35v-0.62l-0.11,0h0Z" transform="translate(-668.7 -1128.18)"/>
      <path class="k" d="M715.37,1144.86c-0.32,0-.36-0.12-0.36-0.12a0.73,0.73,0,0,1,0-.3,1,1,0,0,1,.39-0.06v0.49Z" transform="translate(-668.7 -1128.18)"/>
      <path d="M715.38,1144.87h0c-0.33,0-.37-0.12-0.37-0.13a0.68,0.68,0,0,1,0-.31,0.88,0.88,0,0,1,.4-0.07v0.51h0Zm0-.5a1,1,0,0,0-.37.07,0.65,0.65,0,0,0,0,.3,0.34,0.34,0,0,0,.34.11v-0.48h0Z" transform="translate(-668.7 -1128.18)"/>
      <path class="k" d="M715.37,1144.61a0.43,0.43,0,0,1-.4-0.12,0.47,0.47,0,0,1-.06-0.3,1.36,1.36,0,0,1,.46-0.06v0.49Z" transform="translate(-668.7 -1128.18)"/>
      <path d="M715.38,1144.62h0a0.42,0.42,0,0,1-.41-0.13,0.46,0.46,0,0,1-.06-0.31,1.31,1.31,0,0,1,.47-0.06v0.5h0Zm0-.49a1.47,1.47,0,0,0-.45.06,0.44,0.44,0,0,0,.06.3,0.42,0.42,0,0,0,.39.12v-0.48h0Z" transform="translate(-668.7 -1128.18)"/>
      <path class="k" d="M715.37,1144.37a0.85,0.85,0,0,1-.46-0.12,0.48,0.48,0,0,1-.06-0.3,1.64,1.64,0,0,1,.52-0.06v0.48Z" transform="translate(-668.7 -1128.18)"/>
      <path d="M715.38,1144.38h0a0.85,0.85,0,0,1-.46-0.12,0.47,0.47,0,0,1-.06-0.31,1.59,1.59,0,0,1,.53-0.06v0.5h0Zm-0.46-.13a0.88,0.88,0,0,0,.45.12v-0.48a1.69,1.69,0,0,0-.51.06,0.43,0.43,0,0,0,.06.29h0Z" transform="translate(-668.7 -1128.18)"/>
      <path class="k" d="M715.17,1142.13a4,4,0,0,0-.79-0.61,2.71,2.71,0,0,0-.93-0.48,4,4,0,0,0,.79.61c0.36,0.24.79,0.61,0.79,0.61Z" transform="translate(-668.7 -1128.18)"/>
      <path d="M715,1142.26h0s-0.43-.37-0.79-0.61a3.32,3.32,0,0,1-.79-0.61h0a2,2,0,0,0,.76.6c0.34,0.23.74,0.57,0.78,0.61l0.14-.12h0a5,5,0,0,0-.79-0.6l-0.18-.11a4.72,4.72,0,0,0-.67-0.37,3.49,3.49,0,0,1,.68.36l0.18,0.11a4.17,4.17,0,0,1,.79.61l-0.15.14h0Z" transform="translate(-668.7 -1128.18)"/>
      <path class="k" d="M715.14,1142.37a7.65,7.65,0,0,0-.82-0.43,2.24,2.24,0,0,0-1.29-.12,9.5,9.5,0,0,1,1.14.24,7.78,7.78,0,0,1,.82.42Z" transform="translate(-668.7 -1128.18)"/>
      <path d="M715,1142.5h0a7.87,7.87,0,0,0-.82-0.42,3.35,3.35,0,0,0-.85-0.19,0.93,0.93,0,0,1-.3-0.06,0.62,0.62,0,0,1,.33-0.06,2.78,2.78,0,0,1,1,.17,7.5,7.5,0,0,1,.83.43l-0.15.14h0Zm-1.64-.72a0.62,0.62,0,0,0-.32,0,1.34,1.34,0,0,0,.29.05,3.38,3.38,0,0,1,.85.19,8.26,8.26,0,0,1,.82.42l0.14-.12h0s-0.3-.18-0.82-0.41a2.76,2.76,0,0,0-1-.17h0Z" transform="translate(-668.7 -1128.18)"/>
      <path class="k" d="M715.14,1142.79a7.33,7.33,0,0,0-.83-0.3,2.25,2.25,0,0,0-1.33,0c0.07,0.06.69,0,1.12,0.12a5,5,0,0,1,.9.3Z" transform="translate(-668.7 -1128.18)"/>
      <path d="M715,1142.92h0a5.13,5.13,0,0,0-.89-0.3,4.54,4.54,0,0,0-.74-0.07,1.07,1.07,0,0,1-.38,0,1.15,1.15,0,0,1,.63-0.11,2.4,2.4,0,0,1,.71.1,7.67,7.67,0,0,1,.83.3l-0.14.14h0Zm-1.39-.52a1.4,1.4,0,0,0-.62.09,1.46,1.46,0,0,0,.37,0,4.56,4.56,0,0,1,.74.08,4.85,4.85,0,0,1,.89.3l0.14-.12a8.11,8.11,0,0,0-.82-0.29,2.43,2.43,0,0,0-.7-0.1h0Z" transform="translate(-668.7 -1128.18)"/>
      <path class="k" d="M715.11,1143.21a1.73,1.73,0,0,0-.9-0.3,1.39,1.39,0,0,0-1.12.36,6.37,6.37,0,0,1,1.07-.22,1.93,1.93,0,0,1,.8.28Z" transform="translate(-668.7 -1128.18)"/>
      <path d="M715,1143.34h0a2,2,0,0,0-.79-0.28,1.85,1.85,0,0,0-.79.16,1.2,1.2,0,0,1-.26.07,0,0,0,0,1,0,0,1.28,1.28,0,0,0,.25-0.07,2.11,2.11,0,0,1,.79-0.16,1.94,1.94,0,0,1,.8.28l0.14-.12a1.75,1.75,0,0,0-.89-0.29,1.56,1.56,0,0,0-1,.27,1.5,1.5,0,0,1,1-.28,1.73,1.73,0,0,1,.9.31l-0.15.13h0Z" transform="translate(-668.7 -1128.18)"/>
      <path class="k" d="M715.37,1144.07c-0.52,0-.52-0.16-0.52-0.16a0.47,0.47,0,0,1-.06-0.3,1.91,1.91,0,0,1,.58,0v0.49Z" transform="translate(-668.7 -1128.18)"/>
      <path d="M715.38,1144.07h0c-0.52,0-.53-0.16-0.53-0.16a0.46,0.46,0,0,1-.05-0.31,0.44,0.44,0,0,1,.29,0h0.29v0.5h0Zm-0.3-.5a0.5,0.5,0,0,0-.28,0,0.44,0.44,0,0,0,.06.3s0,0.15.5,0.15v-0.48h-0.29Z" transform="translate(-668.7 -1128.18)"/>
      <path class="k" d="M715.37,1143.82a0.7,0.7,0,0,1-.58-0.12,0.48,0.48,0,0,1-.06-0.3,2.47,2.47,0,0,1,.63-0.06v0.49Z" transform="translate(-668.7 -1128.18)"/>
      <path d="M715.38,1143.83h0a0.71,0.71,0,0,1-.58-0.12,0.47,0.47,0,0,1-.06-0.31,2.37,2.37,0,0,1,.64-0.06v0.5h0Zm0-.49a2.47,2.47,0,0,0-.62.07,0.44,0.44,0,0,0,.06.3,0.72,0.72,0,0,0,.56.12v-0.48h0Z" transform="translate(-668.7 -1128.18)"/>
      <path class="k" d="M715.37,1143.52a1,1,0,0,1-.63-0.12,0.47,0.47,0,0,1-.06-0.3,2.89,2.89,0,0,1,.69-0.06v0.49Z" transform="translate(-668.7 -1128.18)"/>
      <path d="M715.38,1143.53h0a1,1,0,0,1-.64-0.12,0.47,0.47,0,0,1-.06-0.31,2.69,2.69,0,0,1,.7-0.06v0.5h0Zm-0.63-.13a1,1,0,0,0,.62.12V1143a3,3,0,0,0-.68.06,0.44,0.44,0,0,0,.06.3h0Z" transform="translate(-668.7 -1128.18)"/>
      <path class="k" d="M715.37,1143.21a1.37,1.37,0,0,1-.69-0.12,0.53,0.53,0,0,1,0-.3,2.89,2.89,0,0,1,.69-0.06v0.49Z" transform="translate(-668.7 -1128.18)"/>
      <path d="M715.38,1143.22h0a1.34,1.34,0,0,1-.7-0.12,0.5,0.5,0,0,1,0-.31,2.61,2.61,0,0,1,.7-0.06v0.5h0Zm-0.69-.13a1.47,1.47,0,0,0,.68.12v-0.48a2.89,2.89,0,0,0-.68.07,0.54,0.54,0,0,0,0,.3h0Z" transform="translate(-668.7 -1128.18)"/>
      <path class="k" d="M715.25,1141.88a1.08,1.08,0,0,1-.46-0.55,1.46,1.46,0,0,1,.26-0.61,0.78,0.78,0,0,0-.37.61,1.42,1.42,0,0,0,.43.67Z" transform="translate(-668.7 -1128.18)"/>
      <path d="M715.11,1142h0a1.4,1.4,0,0,1-.44-0.67,0.79,0.79,0,0,1,.38-0.61,0.41,0.41,0,0,1-.06.13,1,1,0,0,0-.19.49,1.08,1.08,0,0,0,.46.54l-0.15.14h0Zm-0.06-1.29a0.82,0.82,0,0,0-.36.61,1.37,1.37,0,0,0,.43.66l0.14-.12a1,1,0,0,1-.46-0.54,1,1,0,0,1,.2-0.49l0.07-.12h0Z" transform="translate(-668.7 -1128.18)"/>
      <path class="k" d="M715.25,1141.88a2.06,2.06,0,0,0,.06-0.55,1.13,1.13,0,0,0-.35-0.79,4,4,0,0,1,.23.79,4.09,4.09,0,0,1-.09.67Z" transform="translate(-668.7 -1128.18)"/>
      <path d="M715.1,1142v0a4.19,4.19,0,0,0,.09-0.67,1.46,1.46,0,0,0-.16-0.58,0.44,0.44,0,0,1-.07-0.21,1.07,1.07,0,0,1,.36.79,2.07,2.07,0,0,1-.06.55l-0.16.14h0Zm-0.14-1.47a1,1,0,0,0,.08.2,1.45,1.45,0,0,1,.16.59,4.18,4.18,0,0,1-.08.65l0.13-.11h0a2,2,0,0,0,.06-0.54,1.11,1.11,0,0,0-.34-0.79h0Z" transform="translate(-668.7 -1128.18)"/>
      <path class="k" d="M715.37,1142.91a1.38,1.38,0,0,1-.69-0.12,0.7,0.7,0,0,1,.06-0.3,2.4,2.4,0,0,1,.63-0.06v0.49Z" transform="translate(-668.7 -1128.18)"/>
      <path d="M715.38,1142.92h0a1.4,1.4,0,0,1-.7-0.12,0.64,0.64,0,0,1,.05-0.32,2.36,2.36,0,0,1,.64-0.06v0.5h0Zm-0.69-.13a1.51,1.51,0,0,0,.68.12v-0.48a2.56,2.56,0,0,0-.62.07,0.69,0.69,0,0,0-.05.3h0Z" transform="translate(-668.7 -1128.18)"/>
      <path class="k" d="M715.37,1142.61a1,1,0,0,1-.63-0.12,0.69,0.69,0,0,1,.06-0.3,2.06,2.06,0,0,1,.58-0.06v0.49Z" transform="translate(-668.7 -1128.18)"/>
      <path d="M715.38,1142.62h0a1,1,0,0,1-.64-0.12,0.66,0.66,0,0,1,.06-0.31,2,2,0,0,1,.58-0.06v0.5h0Zm-0.63-.13a1.09,1.09,0,0,0,.62.11v-0.48a2.06,2.06,0,0,0-.56.07,0.69,0.69,0,0,0-.06.3h0Z" transform="translate(-668.7 -1128.18)"/>
      <path class="k" d="M713.87,1146.25a4.41,4.41,0,0,0,.23-1.28c0-.34-0.11-2-0.12-2.67a0.9,0.9,0,0,1,.81-1,0.56,0.56,0,0,1,.58.61H715.2a0.4,0.4,0,0,0-.4-0.43,0.73,0.73,0,0,0-.63.85c0,0.65.07,2.34,0.06,2.8a2.38,2.38,0,0,1-.35,1.15h0Z" transform="translate(-668.7 -1128.18)"/>
      <path class="e" d="M713.89,1146.26l0,0a4.41,4.41,0,0,0,.23-1.27c0-.15,0-0.58,0-1.05s-0.06-1.25-.07-1.62a1.12,1.12,0,0,1,.29-0.82,0.75,0.75,0,0,1,.54-0.23,0.58,0.58,0,0,1,.6.63l-0.19,0a0.42,0.42,0,0,0-.4-0.43,0.72,0.72,0,0,0-.62.83c0,0.37,0,1.07,0,1.7s0,0.9,0,1.1a2.43,2.43,0,0,1-.35,1.16h0Zm0.91-5a0.72,0.72,0,0,0-.51.22,1.09,1.09,0,0,0-.28.79c0,0.37,0,1,.07,1.62s0,0.9,0,1.06A5.21,5.21,0,0,1,714,1146a2.35,2.35,0,0,0,.23-0.94c0-.2,0-0.62,0-1.09,0-.62,0-1.33,0-1.7a0.75,0.75,0,0,1,.65-0.87,0.42,0.42,0,0,1,.42.45l0.15,0a0.56,0.56,0,0,0-.58-0.57h0Z" transform="translate(-668.7 -1128.18)"/>
      <path class="k" d="M715.37,1141.85a0.69,0.69,0,0,0-.58.34l0.12,0.11a1.27,1.27,0,0,0,.46.06v-0.52Z" transform="translate(-668.7 -1128.18)"/>
      <path d="M715.35,1142.37a1.25,1.25,0,0,1-.45-0.06l-0.12-.11a0.67,0.67,0,0,1,.58-0.36v0.53h0Zm0-.53a0.69,0.69,0,0,0-.56.34l0.11,0.11a1.23,1.23,0,0,0,.44.06h0v-0.51h0Z" transform="translate(-668.7 -1128.18)"/>
      <rect class="c" width="29.46" height="14.73"/>
      <path class="d" d="M668.7,1128.18v1.65l26.17,13.09h3.29v-1.65L672,1128.18H668.7Zm29.46,0v1.65L672,1142.91H668.7v-1.65l26.17-13.08h3.29Z" transform="translate(-668.7 -1128.18)"/>
      <path class="d" d="M681,1142.91h4.91v-14.73H681v14.73ZM668.7,1138h29.46v-4.91H668.7V1138Z" transform="translate(-668.7 -1128.18)"/>
      <path class="l" d="M668.7,1137h29.46v-2.95H668.7V1137Zm13.26,5.89h2.95v-14.73H682v14.73Z" transform="translate(-668.7 -1128.18)"/>
      <path class="l" d="M668.7,1142.91l9.82-4.91h2.2l-9.82,4.91h-2.2Zm0-14.73,9.82,4.91h-2.2l-7.62-3.81v-1.1Zm17.45,4.91,9.82-4.91h2.2l-9.82,4.91h-2.2Zm12,9.82-9.82-4.91h2.2l7.62,3.81v1.1Z" transform="translate(-668.7 -1128.18)"/>
    </g>
  </g>
</svg>
