<svg xmlns="http://www.w3.org/2000/svg" xmlns:xlink="http://www.w3.org/1999/xlink" viewBox="0 0 58.93 34.37">
  <defs>
    <style>
      .a {
        fill: none;
      }

      .b {
        clip-path: url(#a);
      }

      .c {
        fill: #80a7d8;
      }

      .d {
        fill: #f3d02f;
      }

      .d, .h {
        fill-rule: evenodd;
      }

      .e {
        fill: #1b257d;
      }

      .f {
        fill: #fff;
      }

      .g, .h {
        fill: #c0003b;
      }
    </style>
    <clipPath id="a" transform="translate(-810.08 -1128.18)">
      <rect class="a" x="810.08" y="1128.18" width="58.93" height="34.37"/>
    </clipPath>
  </defs>
  <title>Tuvalu</title>
  <g class="b">
    <rect class="c" width="58.93" height="34.37"/>
    <polygon class="d" points="56.57 8.49 54.87 7.33 53.17 8.49 53.82 6.62 52.13 5.46 54.23 5.46 54.87 3.58 55.52 5.46 57.62 5.46 55.92 6.62 56.57 8.49"/>
    <polygon class="d" points="51.3 23.47 49.6 22.3 47.91 23.47 48.56 21.59 46.86 20.43 48.96 20.43 49.6 18.55 50.25 20.43 52.35 20.43 50.65 21.59 51.3 23.47"/>
    <polygon class="d" points="56.57 20.08 54.87 18.91 53.17 20.08 53.82 18.2 52.13 17.04 54.23 17.04 54.87 15.16 55.52 17.04 57.62 17.04 55.92 18.2 56.57 20.08"/>
    <polygon class="d" points="33.93 30.94 32.23 29.77 30.53 30.94 31.18 29.06 29.48 27.9 31.58 27.9 32.23 26.02 32.88 27.9 34.97 27.9 33.27 29.06 33.93 30.94"/>
    <polygon class="d" points="36.59 19.05 38.28 20.21 39.98 19.05 39.33 20.92 41.03 22.08 38.93 22.08 38.28 23.96 37.64 22.08 35.54 22.08 37.24 20.92 36.59 19.05"/>
    <polygon class="d" points="42.77 10.49 44.47 11.65 46.17 10.49 45.52 12.37 47.22 13.53 45.12 13.53 44.47 15.4 43.82 13.53 41.73 13.53 43.43 12.37 42.77 10.49"/>
    <polygon class="d" points="47.98 8.71 49.67 9.88 51.37 8.71 50.72 10.59 52.42 11.75 50.32 11.75 49.67 13.63 49.02 11.75 46.93 11.75 48.63 10.59 47.98 8.71"/>
    <polygon class="d" points="42.77 23.52 44.47 24.69 46.17 23.52 45.52 25.4 47.22 26.56 45.12 26.56 44.47 28.44 43.82 26.56 41.73 26.56 43.43 25.4 42.77 23.52"/>
    <polygon class="d" points="36.59 25.04 38.28 26.2 39.98 25.04 39.33 26.91 41.03 28.07 38.93 28.07 38.28 29.95 37.64 28.07 35.54 28.07 37.24 26.91 36.59 25.04"/>
    <rect class="e" width="29.46" height="14.73"/>
    <polygon class="f" points="26.17 0 0 13.08 0 14.73 3.29 14.73 29.46 1.65 29.46 0 26.17 0"/>
    <polygon class="f" points="0 0 0 1.65 26.17 14.73 29.46 14.73 29.46 13.08 3.29 0 0 0"/>
    <polygon class="f" points="12.28 0 12.28 4.91 0 4.91 0 9.82 12.28 9.82 12.28 14.73 17.19 14.73 17.19 9.82 29.46 9.82 29.46 4.91 17.19 4.91 17.19 0 12.28 0"/>
    <polygon class="g" points="13.26 0 13.26 5.89 0 5.89 0 8.84 13.26 8.84 13.26 14.73 16.2 14.73 16.2 8.84 29.46 8.84 29.46 5.89 16.2 5.89 16.2 0 13.26 0"/>
    <polygon class="h" points="17.45 4.91 19.64 4.91 29.46 0 27.27 0 17.45 4.91"/>
    <polygon class="g" points="0 1.1 7.63 4.91 9.82 4.91 0 0 0 1.1"/>
    <polygon class="h" points="29.46 14.73 29.46 13.63 21.84 9.82 19.64 9.82 29.46 14.73"/>
    <polygon class="g" points="9.82 9.82 0 14.73 2.19 14.73 12.02 9.82 9.82 9.82"/>
  </g>
</svg>
