<svg xmlns="http://www.w3.org/2000/svg" xmlns:xlink="http://www.w3.org/1999/xlink" viewBox="0 0 58.92 34.37">
  <defs>
    <style>
      .a {
        fill: none;
      }

      .b {
        clip-path: url(#a);
      }

      .c {
        fill: #fff;
      }

      .d {
        fill: #3e73b7;
      }

      .e {
        fill: #eac126;
      }

      .e, .g {
        fill-rule: evenodd;
      }

      .f, .g {
        fill: #292c2f;
      }
    </style>
    <clipPath id="a" transform="translate(-175 -1187.7)">
      <rect class="a" x="175" y="1187.7" width="58.92" height="34.37"/>
    </clipPath>
  </defs>
  <title>Uruguay</title>
  <g class="b">
    <rect class="c" width="58.92" height="34.37"/>
    <path class="d" d="M175,1218.26h58.92v-3.82H175v3.82Zm0-7.64h58.92v-3.82H175v3.82Zm19.1-7.64h39.82v-3.82H194.1V1203Zm0-7.64h39.82v-3.82H194.1v3.82Z" transform="translate(-175 -1187.7)"/>
    <g class="b">
      <path class="e" d="M184.58,1197.28l0.17,2.82c-2.6,1.88-1,3-2.88,3.6,1.27-1.27-.39-1.27,1.05-4.15" transform="translate(-175 -1187.7)"/>
      <path class="f" d="M184.63,1197.28l0.17,2.82h-0.11l-0.22-2.82h0.17Zm0.17,2.82h0v0.06l-0.06-.06h0.06Zm0,0.06a3.74,3.74,0,0,0-1.72,2.32h-0.17a3.9,3.9,0,0,1,1.77-2.44Zm-1.72,2.32a1.44,1.44,0,0,1-1.16,1.27l-0.06-.11a1.31,1.31,0,0,0,1.05-1.16h0.17Zm-1.16,1.27-0.28.11,0.17-.17h0.06Zm-0.11-.06a1.28,1.28,0,0,0,.44-1.38h0.17a1.42,1.42,0,0,1-.5,1.44Zm0.44-1.38a4.17,4.17,0,0,1,.61-2.77l0.11,0.06a3.87,3.87,0,0,0-.55,2.71h-0.17Z" transform="translate(-175 -1187.7)"/>
      <path class="f" d="M183.69,1199.44a6.25,6.25,0,0,0-.89,2.77l-0.17-.05a7.67,7.67,0,0,1,.94-2.77Zm-0.89,2.77a1.65,1.65,0,0,1-.89,1.55l-0.06-.11a1.58,1.58,0,0,0,.78-1.49Z" transform="translate(-175 -1187.7)"/>
      <path class="e" d="M184.58,1197.28l-0.22-2.88c2.6-1.88,1-3,2.88-3.6-1.22,1.33.39,1.33-1.05,4.15" transform="translate(-175 -1187.7)"/>
      <path class="f" d="M184.47,1197.28l-0.17-2.82,0.11-.06,0.22,2.88h-0.17Zm-0.17-2.82v-0.06h0.06Zm0-.06A3.47,3.47,0,0,0,186,1192l0.17,0.05a3.83,3.83,0,0,1-1.77,2.38ZM186,1192a1.5,1.5,0,0,1,1.16-1.28l0.06,0.11a1.31,1.31,0,0,0-1.05,1.22Zm1.16-1.28,0.28-.05-0.17.17-0.06-.05Zm0.11,0.11a1.21,1.21,0,0,0-.44,1.33l-0.17.05a1.51,1.51,0,0,1,.5-1.5Zm-0.44,1.33a4.34,4.34,0,0,1-.61,2.82l-0.11-.05a3.9,3.9,0,0,0,.55-2.71Z" transform="translate(-175 -1187.7)"/>
      <path class="f" d="M185.41,1195.06a7.48,7.48,0,0,0,.94-2.71h0.11a7.35,7.35,0,0,1-.94,2.77Zm0.94-2.71a1.69,1.69,0,0,1,.83-1.61l0.06,0.11a1.58,1.58,0,0,0-.77,1.5h-0.11Z" transform="translate(-175 -1187.7)"/>
      <path class="e" d="M184.58,1197.28l-2.88.17c-1.88-2.6-3-1-3.6-2.88,1.33,1.27,1.27-.33,4.15,1.05" transform="translate(-175 -1187.7)"/>
      <path class="f" d="M184.58,1197.33l-2.88.22v-0.17l2.82-.17Zm-2.88.22h0l-0.06-.05,0.06-.05v0.11Zm-0.06-.05a3.49,3.49,0,0,0-2.32-1.71v-0.11a3.57,3.57,0,0,1,2.44,1.77Zm-2.32-1.71a1.5,1.5,0,0,1-1.27-1.16l0.11-.06a1.45,1.45,0,0,0,1.16,1.11v0.11Zm-1.27-1.16-0.11-.22,0.22,0.17H178.1Zm0.11-.06a1.31,1.31,0,0,0,1.33.44l0.06,0.11a1.51,1.51,0,0,1-1.5-.5Zm1.33,0.44a3.86,3.86,0,0,1,2.82.55l-0.11.11a4.11,4.11,0,0,0-2.66-.55Z" transform="translate(-175 -1187.7)"/>
      <path class="f" d="M182.36,1196.45a6.54,6.54,0,0,0-2.71-.94v-0.17a6.76,6.76,0,0,1,2.77,1Zm-2.71-.94a1.73,1.73,0,0,1-1.61-.88l0.11-.06a1.48,1.48,0,0,0,1.5.78v0.17Z" transform="translate(-175 -1187.7)"/>
      <path class="e" d="M184.58,1197.28l2.82-.22c1.88,2.6,3,1.05,3.6,2.88-1.33-1.22-1.27.39-4.15-1.05" transform="translate(-175 -1187.7)"/>
      <path class="f" d="M184.52,1197.22l2.88-.22v0.11l-2.82.22Zm2.88-.22h0.06l-0.06.05V1197Zm0.06,0a3.63,3.63,0,0,0,2.33,1.77v0.11a3.77,3.77,0,0,1-2.44-1.77Zm2.33,1.77a1.36,1.36,0,0,1,1.27,1.16h-0.11a1.31,1.31,0,0,0-1.16-1.05v-0.11Zm1.27,1.16,0.11,0.22-0.22-.17,0.06-.06h0.06Zm-0.11.06a1.28,1.28,0,0,0-1.33-.45l-0.06-.11a1.35,1.35,0,0,1,1.5.44Zm-1.33-.45a4.16,4.16,0,0,1-2.77-.61l0.06-.11a3.93,3.93,0,0,0,2.66.61Z" transform="translate(-175 -1187.7)"/>
      <path class="f" d="M186.74,1198.11a7.34,7.34,0,0,0,2.77.94l-0.06.11a6.72,6.72,0,0,1-2.77-.94Zm2.77,0.94a1.61,1.61,0,0,1,1.55.89l-0.11.06a1.52,1.52,0,0,0-1.49-.83Z" transform="translate(-175 -1187.7)"/>
      <path class="e" d="M184.58,1197.28l-1.88,2.16c-3.21-.55-2.88,1.38-4.6.5,1.83-.06.66-1.16,3.65-2.21" transform="translate(-175 -1187.7)"/>
      <path class="f" d="M184.58,1197.28l-1.83,2.16-0.11-.06,1.88-2.16Zm-1.83,2.16-0.06.05v-0.05h0.06Zm-0.06.05a3.53,3.53,0,0,0-2.88.44l-0.11-.11a3.76,3.76,0,0,1,3-.5v0.17Zm-2.88.44a1.54,1.54,0,0,1-1.77.06l0.06-.11a1.37,1.37,0,0,0,1.61-.05ZM178,1200l-0.22-.11h0.28v0.06Zm0.06-.11a1.31,1.31,0,0,0,1.27-.66l0.11,0.11a1.36,1.36,0,0,1-1.38.67v-0.11Zm1.27-.66a4.21,4.21,0,0,1,2.38-1.55l0.06,0.11a3.78,3.78,0,0,0-2.32,1.55Z" transform="translate(-175 -1187.7)"/>
      <path class="f" d="M182.42,1198.22a7,7,0,0,0-2.6,1.27l-0.06-.11a7,7,0,0,1,2.6-1.27Zm-2.6,1.27a1.61,1.61,0,0,1-1.72.5v-0.11a1.65,1.65,0,0,0,1.66-.5Z" transform="translate(-175 -1187.7)"/>
      <path class="e" d="M184.58,1197.28l1.83-2.16c3.21,0.5,2.88-1.44,4.6-.55-1.83.06-.66,1.22-3.65,2.21" transform="translate(-175 -1187.7)"/>
      <path class="f" d="M184.52,1197.22l1.83-2.16,0.11,0.11-1.88,2.1Zm1.83-2.16h0.06v0.06Zm0.06,0a3.78,3.78,0,0,0,2.88-.44l0.11,0.11a3.83,3.83,0,0,1-3,.44v-0.11Zm2.88-.44a1.54,1.54,0,0,1,1.77-.11l-0.06.11a1.36,1.36,0,0,0-1.61.11Zm1.77-.11,0.22,0.11-0.28.05v-0.11Zm-0.06.17a1.3,1.3,0,0,0-1.27.61l-0.11-.06a1.54,1.54,0,0,1,1.38-.72v0.17Zm-1.27.61a4.21,4.21,0,0,1-2.38,1.55l-0.06-.11a3.79,3.79,0,0,0,2.33-1.49Z" transform="translate(-175 -1187.7)"/>
      <path class="f" d="M186.68,1196.28a5.66,5.66,0,0,0,2.6-1.27l0.06,0.11a6.25,6.25,0,0,1-2.6,1.33Zm2.6-1.27a1.75,1.75,0,0,1,1.72-.5v0.11a1.77,1.77,0,0,0-1.66.5Z" transform="translate(-175 -1187.7)"/>
      <path class="e" d="M184.58,1197.28l-2.16-1.88c0.5-3.21-1.44-2.88-.55-4.59,0.06,1.83,1.22.67,2.21,3.65" transform="translate(-175 -1187.7)"/>
      <path class="f" d="M184.52,1197.33l-2.16-1.88,0.11-.11,2.1,1.88Zm-2.16-1.88h0v-0.06h0.06Zm0-.06a4,4,0,0,0-.44-2.88l0.11-.05a3.93,3.93,0,0,1,.44,2.93h-0.11Zm-0.44-2.88a1.38,1.38,0,0,1-.11-1.72l0.11,0.05a1.38,1.38,0,0,0,.11,1.61Zm-0.11-1.72,0.11-.22v0.22h-0.11Zm0.11,0a1.32,1.32,0,0,0,.66,1.27l-0.06.11a1.48,1.48,0,0,1-.72-1.38h0.11Zm0.66,1.27a4.21,4.21,0,0,1,1.55,2.38l-0.11.05a4.3,4.3,0,0,0-1.5-2.32Z" transform="translate(-175 -1187.7)"/>
      <path class="f" d="M183.58,1195.12a5.66,5.66,0,0,0-1.27-2.6l0.11-.05a6.14,6.14,0,0,1,1.33,2.66h-0.17Zm-1.27-2.6a1.72,1.72,0,0,1-.5-1.72h0.11a1.66,1.66,0,0,0,.5,1.66Z" transform="translate(-175 -1187.7)"/>
      <path class="e" d="M184.58,1197.28l2.1,1.83c-0.5,3.21,1.44,2.88.55,4.59-0.06-1.77-1.22-.61-2.21-3.65" transform="translate(-175 -1187.7)"/>
      <path class="f" d="M184.58,1197.22l2.16,1.83-0.06.11-2.16-1.83Zm2.16,1.83,0.06,0.06-0.06.05-0.06-.05Zm0,0.11a4.12,4.12,0,0,0,.44,2.88l-0.11.05a4.09,4.09,0,0,1-.44-3Zm0.44,2.88a1.37,1.37,0,0,1,.11,1.72l-0.11-.06a1.37,1.37,0,0,0-.11-1.61Zm0.11,1.72-0.11.22v-0.28h0.06Zm-0.11-.06a1.38,1.38,0,0,0-.66-1.27l0.06-.06a1.38,1.38,0,0,1,.72,1.33h-0.11Zm-0.66-1.27A3.8,3.8,0,0,1,185,1200h0.11a4.58,4.58,0,0,0,1.49,2.33Z" transform="translate(-175 -1187.7)"/>
      <path class="f" d="M185.52,1199.38a6.29,6.29,0,0,0,1.27,2.6l-0.11.11a6.22,6.22,0,0,1-1.27-2.66Zm1.27,2.6a1.81,1.81,0,0,1,.5,1.77l-0.11-.06a1.54,1.54,0,0,0-.5-1.61Z" transform="translate(-175 -1187.7)"/>
      <polyline class="e" points="9.58 9.58 10.8 9.58 9.58 16.55 8.3 9.58 9.58 9.58 9.58 16.55"/>
      <path class="f" d="M184.58,1197.22h1.22v0.11h-1.22v-0.11Zm1.22,0h0.11v0.06H185.8v-0.06Zm0.11,0.06-1.27,7h-0.17l1.27-7h0.17Zm-1.27,7-0.06.33-0.11-.33h0.17Zm-0.17,0-1.27-7h0.17l1.27,7h-0.17Zm-1.27-7h0.11v0.06h-0.11v-0.06Zm0.11,0h1.27v0.11H183.3v-0.11Zm1.27,0h0.06v0.06h-0.06v-0.06Zm0.06,7h-0.17v-7h0.17v7Z" transform="translate(-175 -1187.7)"/>
      <polyline class="e" points="9.58 9.58 8.3 9.58 9.58 2.54 10.8 9.58 9.58 9.58 9.58 2.54"/>
      <path class="f" d="M184.58,1197.33H183.3v-0.11h1.27v0.11Zm-1.27,0h-0.11v-0.05h0.11v0.05Zm-0.11-.05,1.27-7,0.17,0.06-1.27,7h-0.17Zm1.27-7,0.11-.33,0.06,0.33h-0.17Zm0.17,0,1.27,7h-0.17l-1.27-7Zm1.27,7.09H185.8v-0.05h0.11v0.05Zm-0.11,0h-1.22v-0.11h1.22v0.11Zm-1.22,0h-0.11v-0.05h0.11v0.05Zm-0.11-7.09h0.17v7h-0.17v-7Z" transform="translate(-175 -1187.7)"/>
      <polyline class="e" points="9.58 9.58 9.58 10.85 2.55 9.58 9.58 8.3 9.58 9.58 2.55 9.58"/>
      <path class="f" d="M184.63,1198.55h-0.17v-1.27h0.17v1.27Zm0,0v0.06h-0.11l0.06-.06h0.06Zm-0.11.06-7-1.27,0.06-.11,7,1.27Zm-7-1.27-0.33-.05,0.33-.06v0.11Zm0-.11,7-1.27,0.06,0.11-7,1.27Zm7-1.27,0.11-.06V1196h-0.06Zm0.11,1.33h-0.17V1196h0.17v1.27Zm0,0.05h-0.06v-0.05h0.06v0.05Zm-0.06,0h-7v-0.11h7v0.11Z" transform="translate(-175 -1187.7)"/>
      <polyline class="e" points="9.58 9.58 9.58 8.3 16.55 9.58 9.58 10.85 9.58 9.58 16.55 9.58"/>
      <path class="f" d="M184.47,1196h0.17v1.27h-0.17V1196Zm0,0v-0.11l0.11,0.06V1196h-0.11Zm0.11-.05,7,1.27-0.06.11-7-1.27Zm7,1.27,0.33,0.06-0.33.05v-0.11Zm0,0.11-7,1.27-0.06-.11,7-1.27Zm-7,1.27h-0.11v-0.06h0.11v0.06Zm-0.11-1.33h0.17v1.27h-0.17v-1.27Zm0-.06h0.11v0.06h-0.11v-0.06Zm0.11,0h7v0.11h-7v-0.11Z" transform="translate(-175 -1187.7)"/>
      <polyline class="e" points="9.58 9.58 10.46 10.46 4.59 14.5 8.64 8.63 9.58 9.58 4.59 14.5"/>
      <path class="f" d="M184.58,1197.22l0.94,0.89-0.11.11-0.89-.88Zm0.94,0.89,0.06,0.05-0.11.05v-0.05Zm-0.06.11-5.81,4-0.06-.11,5.81-4Zm-5.81,4-0.28.22,0.17-.33,0.06,0.05Zm-0.11-.11,4-5.81,0.11,0.05-4,5.87Zm4-5.81,0.06-.05,0.06,0.05h-0.11Zm0.11,0,0.89,0.88-0.06.11-0.94-.94Zm0.89,0.88,0.06,0.06-0.06.05v-0.11Zm0,0.11-4.93,4.93-0.06-.11,4.93-4.93Z" transform="translate(-175 -1187.7)"/>
      <polyline class="e" points="9.58 9.58 8.64 8.63 14.51 4.6 10.46 10.46 9.58 9.58 14.51 4.6"/>
      <path class="f" d="M184.52,1197.33l-0.94-.94,0.11-.05,0.89,0.88Zm-0.94-.94v-0.05h0.06Zm0.06-.05,5.81-4.1,0.06,0.11-5.81,4Zm5.81-4.1,0.28-.17-0.17.28-0.06-.05Zm0.11,0.11-4,5.87-0.11-.11,4-5.81Zm-4,5.87-0.06.06-0.06-.06,0.06-.05Zm-0.11,0-0.89-.88,0.06-.11,0.94,0.89Zm-0.89-.88-0.06-.05,0.06-.06,0.06,0.06Zm0-.11,4.93-4.92,0.11,0.05-5,5Z" transform="translate(-175 -1187.7)"/>
      <polyline class="e" points="9.58 9.58 8.64 10.46 4.59 4.6 10.46 8.63 9.58 9.58 4.59 4.6"/>
      <path class="f" d="M184.58,1197.33l-0.89.88-0.11-.11,0.94-.89Zm-0.89.88-0.06.06-0.06-.06,0.06-.05Zm-0.11,0-4-5.87,0.11-.05,4,5.81Zm-4-5.87-0.17-.28,0.28,0.17-0.06.06Zm0.11-.11,5.81,4.1-0.06.05-5.81-4Zm5.81,4.1h0.11l-0.06.05Zm0.06,0.05-0.94.94-0.06-.11,0.89-.88Zm-0.94.94h-0.06l0.06-.05v0.05Zm-0.06,0-4.93-5,0.06-.05,4.93,4.92Z" transform="translate(-175 -1187.7)"/>
      <polyline class="e" points="9.58 9.58 10.46 8.63 14.51 14.5 8.64 10.46 9.58 9.58 14.51 14.5"/>
      <path class="f" d="M184.52,1197.22l0.89-.88,0.11,0.05-0.94.94Zm0.89-.88,0.06-.05,0.06,0.05h-0.11Zm0.11,0,4,5.81-0.11.11-4-5.87Zm4,5.81,0.17,0.33-0.28-.22,0.06-.05Zm-0.11.11-5.81-4,0.06-.11,5.81,4Zm-5.81-4-0.06-.05v-0.05l0.06,0.05v0.05Zm-0.06-.11,0.94-.89,0.06,0.11-0.89.88Zm0.94-.89,0.06-.05v0.11Zm0.06,0,5,4.93-0.11.11-4.93-4.93Z" transform="translate(-175 -1187.7)"/>
      <path class="e" d="M186.9,1197.28a2.35,2.35,0,0,0-4.71,0,2.35,2.35,0,0,0,4.71,0" transform="translate(-175 -1187.7)"/>
      <path class="f" d="M186.79,1197.28a2,2,0,0,0-.66-1.61l0.11-.11a2.43,2.43,0,0,1,.72,1.72h-0.17Zm-0.66-1.61a2,2,0,0,0-1.55-.66v-0.17a2.41,2.41,0,0,1,1.66.72Zm-1.55-.66a2,2,0,0,0-1.61.66l-0.11-.11a2.44,2.44,0,0,1,1.72-.72V1195Zm-1.61.66a2,2,0,0,0-.66,1.61h-0.17a2.43,2.43,0,0,1,.72-1.72Zm-0.66,1.61a2.21,2.21,0,0,0,.66,1.6l-0.11.06a2.3,2.3,0,0,1-.72-1.66h0.17Zm0.66,1.6a2.25,2.25,0,0,0,1.61.66v0.11a2.44,2.44,0,0,1-1.72-.72Zm1.61,0.66a2.22,2.22,0,0,0,1.55-.66l0.11,0.06a2.41,2.41,0,0,1-1.66.72v-0.11Zm1.55-.66a2.21,2.21,0,0,0,.66-1.6H187a2.3,2.3,0,0,1-.72,1.66Z" transform="translate(-175 -1187.7)"/>
      <path class="g" d="M186.24,1196.34c-0.11.17-.22-0.11-0.72-0.11a2,2,0,0,0-.72.22,0.85,0.85,0,0,1,1.44-.11" transform="translate(-175 -1187.7)"/>
      <path class="g" d="M185.63,1196.5a0.26,0.26,0,0,1-.11.44c-0.17,0-.44-0.28-0.28-0.44" transform="translate(-175 -1187.7)"/>
      <path class="g" d="M185,1196.72c0-.28.22-0.33,0.55-0.33a1,1,0,0,1,.61.33,1.77,1.77,0,0,0-.61-0.22,0.53,0.53,0,0,0-.55.22" transform="translate(-175 -1187.7)"/>
      <path class="g" d="M185,1196.78a1.08,1.08,0,0,1,.44.11,0.77,0.77,0,0,0,.5-0.17,0.85,0.85,0,0,1-.44.28,0.59,0.59,0,0,1-.5-0.22" transform="translate(-175 -1187.7)"/>
      <path class="g" d="M185.74,1196.89c0.28-.11.11-0.33,0-0.39,0.06,0.05.22,0.28,0,.39" transform="translate(-175 -1187.7)"/>
      <path class="g" d="M184.58,1198.16c0.11,0,.17-0.05.33-0.05a1.78,1.78,0,0,0,.77.17,1.7,1.7,0,0,1-1.11.05h-0.11" transform="translate(-175 -1187.7)"/>
      <path class="g" d="M185.8,1198.49a2.69,2.69,0,0,0-.28-0.39,0.57,0.57,0,0,1,.28.39" transform="translate(-175 -1187.7)"/>
      <path class="g" d="M184.58,1198.66a2.22,2.22,0,0,0,1.11-.39,7.91,7.91,0,0,1-1.11.22h-0.11" transform="translate(-175 -1187.7)"/>
      <path class="g" d="M184.58,1197.88a2.31,2.31,0,0,1,.33-0.11,0.77,0.77,0,0,1,.5.17c0.06,0-.06-0.17-0.22-0.17s-0.11-.33-0.28-0.39c0,0.11.06,0.11,0.06,0.22s-0.17.11-.22,0c0.06,0.17-.11.17-0.17,0.17" transform="translate(-175 -1187.7)"/>
      <path class="g" d="M182.86,1196.34c0.11,0.17.22-.11,0.72-0.11a2,2,0,0,1,.72.22,0.85,0.85,0,0,0-1.44-.11" transform="translate(-175 -1187.7)"/>
      <path class="g" d="M183.47,1196.5a0.26,0.26,0,0,0,.11.44c0.17,0,.44-0.28.28-0.44" transform="translate(-175 -1187.7)"/>
      <path class="g" d="M184.13,1196.72c0-.28-0.22-0.33-0.55-0.33a1,1,0,0,0-.61.33,2.41,2.41,0,0,1,.61-0.22,0.53,0.53,0,0,1,.55.22" transform="translate(-175 -1187.7)"/>
      <path class="g" d="M184.08,1196.78a1.08,1.08,0,0,0-.44.11,0.77,0.77,0,0,1-.5-0.17,0.86,0.86,0,0,0,.44.28,0.5,0.5,0,0,0,.5-0.22" transform="translate(-175 -1187.7)"/>
      <path class="g" d="M183.36,1196.89c-0.28-.11-0.11-0.33,0-0.39-0.06.05-.22,0.28,0,0.39" transform="translate(-175 -1187.7)"/>
      <path class="g" d="M184.58,1198.16c-0.17,0-.22-0.05-0.39-0.05a1.79,1.79,0,0,1-.77.17c0.5,0.22.28,0.05,1.16,0.05h0.06" transform="translate(-175 -1187.7)"/>
      <path class="g" d="M183.3,1198.49a3.88,3.88,0,0,0,.28-0.39,0.85,0.85,0,0,0-.28.39" transform="translate(-175 -1187.7)"/>
      <path class="g" d="M184.58,1198.66a2.38,2.38,0,0,1-1.16-.39,7.29,7.29,0,0,0,1.16.22h0.06" transform="translate(-175 -1187.7)"/>
      <path class="g" d="M184.58,1197.88c-0.17,0-.22-0.11-0.39-0.11a0.77,0.77,0,0,0-.5.17c-0.06,0,.06-0.17.22-0.17s0.11-.33.28-0.39c0,0.11-.06.11-0.06,0.22s0.17,0.11.22,0c-0.06.17,0.11,0.17,0.22,0.17" transform="translate(-175 -1187.7)"/>
      <path class="g" d="M184.58,1198.88c-0.11,0-.39.06,0,0.06s0.06-.06,0-0.06" transform="translate(-175 -1187.7)"/>
    </g>
  </g>
</svg>
