<svg xmlns="http://www.w3.org/2000/svg" xmlns:xlink="http://www.w3.org/1999/xlink" viewBox="0 0 58.92 34.37">
  <defs>
    <style>
      .a {
        fill: none;
      }

      .b {
        clip-path: url(#a);
      }

      .c {
        fill: #c0003b;
      }

      .d {
        fill: #3d9546;
      }

      .e {
        fill: #f5cd28;
      }

      .f {
        fill: #f3cd2d;
      }
    </style>
    <clipPath id="a" transform="translate(-316.37 -1187.7)">
      <rect class="a" x="316.37" y="1187.7" width="58.92" height="34.37"/>
    </clipPath>
  </defs>
  <title>Vanuatu</title>
  <g class="b">
    <rect class="c" width="58.92" height="17.19"/>
    <rect class="d" y="17.19" width="58.92" height="17.19"/>
    <polygon points="0 0 0 34.37 33.34 17.18 0 0"/>
    <rect y="14.11" width="58.92" height="6.15"/>
    <polygon class="e" points="0 31.93 28.6 17.18 0 2.44 0 31.93"/>
    <rect class="e" y="16.28" width="58.92" height="1.81"/>
    <polygon points="0 29.89 24.65 17.18 0 4.48 0 29.89"/>
    <g class="b">
      <path class="f" d="M323.34,1208.18v2a5.19,5.19,0,0,0,5-5.51,4.72,4.72,0,0,0-4.63-5c-1.07,0-4.36.76-4.36,4.2s3.23,3.76,3.87,3.76a2.8,2.8,0,0,0,2.75-3.15,2.57,2.57,0,0,1-2.56,2.28,2.68,2.68,0,0,1-2.82-2.56,3,3,0,0,1,2.88-3,3.27,3.27,0,0,1,3.17,3.27c0,1.64-1.29,3.72-3.34,3.72h0Z" transform="translate(-316.37 -1187.7)"/>
      <path class="f" d="M321.84,1205.63l0.1,0.06a7.77,7.77,0,0,1,3-3.15,7.94,7.94,0,0,0-3.08,3.08h0Z" transform="translate(-316.37 -1187.7)"/>
      <path class="f" d="M322,1205.74l-0.13-.08a8.16,8.16,0,0,1,3-3.12h0a7.39,7.39,0,0,0-1.17.87,8.26,8.26,0,0,1,1.17-.87l0.06,0a7.8,7.8,0,0,0-3,3.13v0h0Zm0.66-1.17a11,11,0,0,0-.75,1.07l0.06,0a6.25,6.25,0,0,1,.69-1.09h0Z" transform="translate(-316.37 -1187.7)"/>
      <path class="f" d="M322.05,1205.31a0.8,0.8,0,0,1,0-.74c0.22-.23.12,0.6,0.12,0.6l0.1-.14a1.19,1.19,0,0,1,0-.76c0.17-.13.08,0.6,0.08,0.6l0.1-.13a1.17,1.17,0,0,1,.05-0.72c0.16-.11.06,0.57,0.06,0.57l0.12-.14a1,1,0,0,1,.11-0.72c0.2-.14,0,0.55,0,0.55l0.13-.14a1,1,0,0,1,.11-0.65c0.17-.12,0,0.5,0,0.5l0.12-.12a1,1,0,0,1,.13-0.61c0.16-.11,0,0.47,0,0.47l0.13-.12a0.77,0.77,0,0,1,.17-0.59c0.2-.1,0,0.47,0,0.47l0.14-.12a1,1,0,0,1,.22-0.63c0.17-.05-0.08.51-0.08,0.51l0.13-.1a0.85,0.85,0,0,1,.26-0.55c0.19-.06-0.12.45-0.12,0.45l0.13-.1a1,1,0,0,1,.32-0.55c0.18-.05-0.18.46-0.18,0.46l0.12-.08a1.07,1.07,0,0,1,.36-0.48c0.16,0-.18.37-0.18,0.37l0.15-.09s0.26-.46.35-0.32-0.36.35-.36,0.35l-0.15.08a0.93,0.93,0,0,1,.61-0.12,1.43,1.43,0,0,1-.75.21l-0.13.09s0.54-.15.48,0a1,1,0,0,1-.6.11l-0.12.09s0.54-.13.47,0a1.15,1.15,0,0,1-.6.11l-0.13.11s0.53-.14.45,0a1.16,1.16,0,0,1-.68.15l-0.15.14s0.56-.19.51,0a1.39,1.39,0,0,1-.69.23l-0.14.14s0.6-.2.42,0a1.25,1.25,0,0,1-.62.23l-0.17.21s0.6-.36.51-0.16a1.3,1.3,0,0,1-.67.34l-0.12.14s0.54-.31.48-0.14a1.4,1.4,0,0,1-.63.36l-0.1.13s0.63-.37.58-0.19a1.23,1.23,0,0,1-.66.33l-0.08.12a0.83,0.83,0,0,1,.59-0.17,1.33,1.33,0,0,1-.69.32v-0.14Z" transform="translate(-316.37 -1187.7)"/>
      <path class="f" d="M325.28,1205.63l-0.1.06a7.77,7.77,0,0,0-3-3.15,7.94,7.94,0,0,1,3.07,3.08h0Z" transform="translate(-316.37 -1187.7)"/>
      <path class="f" d="M325.17,1205.74v0a7.81,7.81,0,0,0-3-3.13h0v0l0,0,0,0h0a8.51,8.51,0,0,1,3.05,3.07l-0.14.13h0Zm-0.85-1.41a6.83,6.83,0,0,1,.88,1.32l0.07,0a11.54,11.54,0,0,0-.95-1.28h0Z" transform="translate(-316.37 -1187.7)"/>
      <path class="f" d="M325.07,1205.31a0.81,0.81,0,0,0,0-.74c-0.22-.23-0.12.6-0.12,0.6l-0.1-.14a1.18,1.18,0,0,0,0-.76c-0.17-.13-0.08.6-0.08,0.6l-0.1-.13a1.17,1.17,0,0,0-.05-0.72c-0.16-.11-0.06.57-0.06,0.57l-0.12-.14a1,1,0,0,0-.11-0.72c-0.2-.14,0,0.55,0,0.55l-0.13-.14a1,1,0,0,0-.11-0.65c-0.17-.12,0,0.5,0,0.5l-0.12-.12a1,1,0,0,0-.12-0.61c-0.16-.11,0,0.47,0,0.47l-0.12-.12a0.77,0.77,0,0,0-.17-0.59c-0.2-.1,0,0.47,0,0.47l-0.14-.12a1,1,0,0,0-.21-0.63c-0.17-.05.08,0.51,0.08,0.51l-0.13-.1a0.84,0.84,0,0,0-.26-0.55c-0.19-.06.12,0.45,0.12,0.45l-0.13-.1a1,1,0,0,0-.32-0.55c-0.18-.05.19,0.46,0.19,0.46l-0.12-.08a1.07,1.07,0,0,0-.36-0.48c-0.16,0,.18.37,0.18,0.37l-0.15-.09s-0.26-.46-0.35-0.32,0.36,0.35.36,0.35l0.15,0.08a0.93,0.93,0,0,0-.61-0.12,1.42,1.42,0,0,0,.75.21l0.13,0.09s-0.54-.15-0.48,0a1,1,0,0,0,.6.11l0.12,0.09s-0.54-.13-0.47,0a1.14,1.14,0,0,0,.6.11l0.13,0.11s-0.53-.14-0.45,0a1.16,1.16,0,0,0,.68.15l0.15,0.14s-0.56-.19-0.51,0a1.4,1.4,0,0,0,.69.23l0.14,0.14s-0.6-.2-0.42,0a1.24,1.24,0,0,0,.61.23l0.17,0.21s-0.6-.36-0.51-0.16a1.3,1.3,0,0,0,.67.34l0.12,0.14s-0.54-.31-0.48-0.14a1.4,1.4,0,0,0,.63.36l0.09,0.13s-0.63-.37-0.58-0.19a1.23,1.23,0,0,0,.66.33l0.08,0.12a0.83,0.83,0,0,0-.59-0.17,1.33,1.33,0,0,0,.69.32v-0.14Z" transform="translate(-316.37 -1187.7)"/>
    </g>
  </g>
</svg>
