<svg xmlns="http://www.w3.org/2000/svg" xmlns:xlink="http://www.w3.org/1999/xlink" viewBox="0 0 58.92 34.37">
  <defs>
    <style>
      .a {
        fill: none;
      }

      .b {
        clip-path: url(#a);
      }

      .c {
        fill: #eed12f;
      }

      .d {
        fill: #242ea7;
      }

      .e {
        fill: #bd0034;
      }

      .f {
        fill: #fff;
      }
    </style>
    <clipPath id="a" transform="translate(-457.75 -1187.7)">
      <rect class="a" x="457.75" y="1187.7" width="58.92" height="34.37"/>
    </clipPath>
  </defs>
  <title>Venezuela</title>
  <g class="b">
    <rect class="c" width="58.92" height="11.46"/>
    <rect class="d" y="11.46" width="58.92" height="11.46"/>
    <rect class="e" y="22.92" width="58.92" height="11.46"/>
    <polygon class="f" points="26.9 15.54 27.36 12.28 28.9 15.18 25.94 13.74 29.19 13.17 26.9 15.54"/>
    <polygon class="f" points="30.02 15.18 31.57 12.28 32.02 15.54 29.74 13.17 32.98 13.74 30.02 15.18"/>
    <polygon class="f" points="24.08 16.94 23.4 13.71 25.85 15.92 22.57 15.58 25.42 13.93 24.08 16.94"/>
    <polygon class="f" points="33.08 15.92 35.52 13.71 34.84 16.94 33.5 13.93 36.35 15.58 33.08 15.92"/>
    <polygon class="f" points="21.92 19.22 20.17 16.42 23.23 17.66 20.03 18.45 22.15 15.93 21.92 19.22"/>
    <polygon class="f" points="35.7 17.66 38.75 16.42 37.01 19.22 36.77 15.93 38.89 18.45 35.7 17.66"/>
    <polygon class="f" points="20.66 22.1 18.07 20.07 21.36 20.18 18.63 22.03 19.75 18.93 20.66 22.1"/>
    <polygon class="f" points="37.56 20.18 40.85 20.07 38.26 22.1 39.17 18.93 40.3 22.03 37.56 20.18"/>
  </g>
</svg>
