<svg xmlns="http://www.w3.org/2000/svg" xmlns:xlink="http://www.w3.org/1999/xlink" viewBox="0 0 58.92 34.37">
  <defs>
    <style>
      .a {
        fill: none;
      }

      .b {
        clip-path: url(#a);
      }

      .c, .j {
        fill: #fff;
      }

      .d {
        fill: #f6d628;
      }

      .d, .e, .f, .g, .h, .i, .j {
        fill-rule: evenodd;
      }

      .e {
        fill: #f3f52c;
      }

      .f {
        fill: #5bcddb;
      }

      .g {
        fill: #3b8511;
      }

      .h {
        fill: #b30c40;
      }

      .i {
        fill: #1c2a7d;
      }
    </style>
    <clipPath id="a" transform="translate(-669.49 -1187.7)">
      <rect class="a" x="669.49" y="1187.7" width="58.92" height="34.37"/>
    </clipPath>
  </defs>
  <title>Virgin_Islands-US</title>
  <g class="b">
    <rect class="c" width="58.92" height="34.37"/>
    <g class="b">
      <path class="d" d="M703.52,1200.08a1.11,1.11,0,0,0-.33-0.86,0.49,0.49,0,0,1-.35-0.49,1.41,1.41,0,0,1,.54-0.63,2.24,2.24,0,0,0-.71-0.21,2.52,2.52,0,0,0-.62.12,1.56,1.56,0,0,1-.15-1.08c0.18-.15.55,0.36,0.55,0.36s0.24-.56-0.62-1.65a2.21,2.21,0,0,0-2.12-2.59,1.77,1.77,0,0,0-1.49.76,0.71,0.71,0,0,0-.51.59,1.41,1.41,0,0,0-1.13,1.05,0.64,0.64,0,0,1,1,.05,2.29,2.29,0,0,0,.78.37c0.27,0-.26.9-0.41,1.06a8,8,0,0,0-.77.78,0.78,0.78,0,0,1,.47.4c0,0.22-1.47.89-1.39,1.06a1.21,1.21,0,0,1,.66,0,1,1,0,0,1-.34.92h7Z" transform="translate(-669.49 -1187.7)"/>
      <path d="M703.57,1200.13h-7.2l0.17-.1a0.91,0.91,0,0,0,.32-0.85,2.05,2.05,0,0,1-.22,0,1.29,1.29,0,0,0-.37.06,0.11,0.11,0,0,1,0-.1h0a1.53,1.53,0,0,1,.66-0.51,2.67,2.67,0,0,0,.69-0.5,0.53,0.53,0,0,0-.35-0.29,0.28,0.28,0,0,1-.11-0.07c0-.05,0-0.06.6-0.68l0.18-.17a2.11,2.11,0,0,0,.47-1,2.49,2.49,0,0,1-.83-0.39,0.63,0.63,0,0,0-.46-0.25,0.72,0.72,0,0,0-.46.19l-0.1.08,0-.13a1.47,1.47,0,0,1,1.17-1.1,0.63,0.63,0,0,1,.51-0.59,1.79,1.79,0,0,1,1.52-.76h0a2.54,2.54,0,0,1,1.7.82,2.19,2.19,0,0,1,.47,1.82c0.86,1.05.63,1.64,0.61,1.66l0,0.08-0.05-.07A0.91,0.91,0,0,0,702,1197a0.14,0.14,0,0,0-.08.15,2.24,2.24,0,0,0,.18.87,0.79,0.79,0,0,1,.5-0.12h0.09a2.16,2.16,0,0,1,.73.21l0.08,0-0.07.05a1.28,1.28,0,0,0-.52.58,0.44,0.44,0,0,0,.32.45,1.16,1.16,0,0,1,.35.9v0.05h0Zm-6.86-.1h6.75a1,1,0,0,0-.3-0.76,0.52,0.52,0,0,1-.37-0.5,1.09,1.09,0,0,1,.49-0.65,2,2,0,0,0-.57-0.17H702.6a2.53,2.53,0,0,0-.5.09c-0.08,0-.11,0-0.15-0.12a1.53,1.53,0,0,1-.07-1c0.15-.13.43,0.13,0.56,0.28a2.14,2.14,0,0,0-.63-1.5,2.19,2.19,0,0,0-.45-1.78,2.44,2.44,0,0,0-1.61-.78h-0.1a1.74,1.74,0,0,0-1.36.73,0.72,0.72,0,0,0-.51.58,1.61,1.61,0,0,0-1.11.93,0.74,0.74,0,0,1,.41-0.13,0.7,0.7,0,0,1,.53.28h0a2.33,2.33,0,0,0,.75.35,0.12,0.12,0,0,1,.11.08A2,2,0,0,1,698,1197l-0.18.17c-0.16.15-.49,0.46-0.57,0.56l0,0a0.54,0.54,0,0,1,.41.4,1.75,1.75,0,0,1-.74.58,5.8,5.8,0,0,0-.59.39,1.53,1.53,0,0,1,.57,0,1.06,1.06,0,0,1-.21.92h0Z" transform="translate(-669.49 -1187.7)"/>
      <path class="d" d="M703.14,1209.72a1.69,1.69,0,0,1-.26,1.1,2.68,2.68,0,0,1,2.25,1.93,0.9,0.9,0,0,1-.45.63,0.57,0.57,0,0,1-.45.73c0,0.6-.41.6-0.41,0.6a0.67,0.67,0,0,1-.64.47,0.9,0.9,0,0,1-.89.71s-0.43,1-1.07.64a1,1,0,0,1-1.89,0,0.75,0.75,0,0,1-1-.6,1,1,0,0,1-.93-0.73,0.77,0.77,0,0,1-.62-0.48,0.54,0.54,0,0,1-.43-0.63,0.73,0.73,0,0,1-.51-0.72,0.77,0.77,0,0,1-.38-0.69,2.63,2.63,0,0,1,2.23-1.87,1.91,1.91,0,0,1-.26-1.06h5.73Z" transform="translate(-669.49 -1187.7)"/>
      <path d="M700.29,1217.24a1.13,1.13,0,0,1-1-.68,0.1,0.1,0,0,1-.1,0l-0.22,0a0.78,0.78,0,0,1-.71-0.68s0,0-.08,0a1.05,1.05,0,0,1-.85-0.78,0.69,0.69,0,0,1-.62-0.48,0.54,0.54,0,0,1-.44-0.65,0.68,0.68,0,0,1-.51-0.72,0.74,0.74,0,0,1-.38-0.7,2.69,2.69,0,0,1,2.2-1.91,2,2,0,0,1-.23-1l5.78-.06a1.52,1.52,0,0,1-.16,1.11,2.77,2.77,0,0,1,2.2,2,0.93,0.93,0,0,1-.46.67,0.54,0.54,0,0,1-.06.5,0.58,0.58,0,0,1-.41.25,0.49,0.49,0,0,1-.12.47,0.46,0.46,0,0,1-.29.13,0.63,0.63,0,0,1-.61.47,0.93,0.93,0,0,1-.93.71,1,1,0,0,1-.78.74,0.59,0.59,0,0,1-.27-0.07,1.07,1.07,0,0,1-1,.63h0Zm-1-.76a1.17,1.17,0,0,0,1,.65,1,1,0,0,0,.88-0.62l0,0h0a0.48,0.48,0,0,0,.27.09,1.14,1.14,0,0,0,.73-0.7,0.93,0.93,0,0,0,.89-0.7,0.11,0.11,0,0,1,.09,0,0.62,0.62,0,0,0,.56-0.44,0.8,0.8,0,0,0,.27-0.14,0.61,0.61,0,0,0,.13-0.45,0.74,0.74,0,0,0,.38-0.25,0.68,0.68,0,0,0,.06-0.47,1.12,1.12,0,0,0,.44-0.64,2.63,2.63,0,0,0-2.21-1.88,0,0,0,0,1,0,0,0.05,0.05,0,0,1,0-.05,1.65,1.65,0,0,0,.25-1.06l-5.67.06a2.7,2.7,0,0,0,.29,1,0.05,0.05,0,0,1,0,0,0.06,0.06,0,0,1,0,0,2.6,2.6,0,0,0-2.19,1.83,0.72,0.72,0,0,0,.36.64,0.74,0.74,0,0,0,.5.71,0.59,0.59,0,0,0,.43.63,0.79,0.79,0,0,0,.61.48,1,1,0,0,0,.92.73c0.34,0.82.66,0.65,0.87,0.62l0.14,0h0Z" transform="translate(-669.49 -1187.7)"/>
      <path class="d" d="M694,1200.85s-1,1.12-1.56.28,0.72-1.07.74-1.08a1.53,1.53,0,0,0,.78-1.54c0.06-1.3-1.55-2.15-2-2.26a12.48,12.48,0,0,0-1.79-.11,50,50,0,0,1-5.38-1.54,38.83,38.83,0,0,0-5.12-1.21,0.55,0.55,0,0,0-.67.56,0.8,0.8,0,0,0,.67.74,0.91,0.91,0,0,0,.82,1.62c-0.09,1.29,1.7,1.49,1.7,1.49s0.19,1.85,1.84,1.76a2.08,2.08,0,0,0,1.87,1.32,2.65,2.65,0,0,0,1.7.93,1.49,1.49,0,0,0,1.84,1s-0.09.91,0.49,0.91a0.85,0.85,0,0,0,1.24,1,0.92,0.92,0,0,0,1.35.47,1.13,1.13,0,0,0,1.37.41,0.67,0.67,0,0,0,.93.38c0.74-.24-0.8-5.1-0.78-5.13h0Z" transform="translate(-669.49 -1187.7)"/>
      <path d="M694.5,1206.1h0a0.7,0.7,0,0,1-.65-0.41,1.13,1.13,0,0,1-1.35-.41,1.18,1.18,0,0,1-.5.12,1,1,0,0,1-.86-0.59,1.13,1.13,0,0,1-.38.06,1,1,0,0,1-.8-0.34,0.83,0.83,0,0,1-.11-0.72,0.46,0.46,0,0,1-.28-0.15,1.13,1.13,0,0,1-.2-0.74,1.6,1.6,0,0,1-.33,0,1.58,1.58,0,0,1-1.5-1.13,2.52,2.52,0,0,1-1.69-.91,2.09,2.09,0,0,1-1.86-1.29h-0.07a1.92,1.92,0,0,1-1.77-1.77c-0.29,0-1.73-.33-1.71-1.48a1.15,1.15,0,0,1-1.27-.91,1,1,0,0,1,.38-0.75A0.86,0.86,0,0,1,679,1194a0.56,0.56,0,0,1,.12-0.45,0.78,0.78,0,0,1,.62-0.18,37.46,37.46,0,0,1,5.15,1.22,50.33,50.33,0,0,0,5.36,1.53,11.43,11.43,0,0,1,1.79.11c0.46,0.11,2.12,1,2.06,2.33a1.65,1.65,0,0,1-.81,1.59,1.09,1.09,0,0,0-.82.51,0.55,0.55,0,0,0,.09.49,0.51,0.51,0,0,0,.45.28,1.82,1.82,0,0,0,1-.57,0.06,0.06,0,0,1,.09,0,0.07,0.07,0,0,1,0,.08,0.91,0.91,0,0,1,.09.27c0.92,3.19,1.12,4.75.66,4.9a1.07,1.07,0,0,1-.34.06h0Zm-0.61-.56h0a0.07,0.07,0,0,1,0,0,0.57,0.57,0,0,0,.55.39h0a1,1,0,0,0,.3-0.05c0.21-.07.4-0.77-0.74-4.74L694,1201a1.74,1.74,0,0,1-1,.53,0.64,0.64,0,0,1-.56-0.34,0.67,0.67,0,0,1-.1-0.61,1.15,1.15,0,0,1,.84-0.56,1.53,1.53,0,0,0,.77-1.49c0.06-1.26-1.54-2.1-2-2.2a12.63,12.63,0,0,0-1.78-.11,47.24,47.24,0,0,1-5.42-1.55,33.83,33.83,0,0,0-5.09-1.2h0a0.68,0.68,0,0,0-.51.14,0.44,0.44,0,0,0-.09.35,0.74,0.74,0,0,0,.62.68,0.06,0.06,0,0,1,.05,0,0.06,0.06,0,0,1,0,.07,1.05,1.05,0,0,0-.43.71,1,1,0,0,0,1.2.79,0.06,0.06,0,0,1,.05,0,0.06,0.06,0,0,1,0,.05c-0.09,1.21,1.62,1.42,1.64,1.42a0.07,0.07,0,0,1,.06.06,1.8,1.8,0,0,0,1.65,1.71H684a0.06,0.06,0,0,1,.06,0,2,2,0,0,0,1.81,1.27,2.83,2.83,0,0,0,1.7.93,1.54,1.54,0,0,0,1.43,1.09,1.39,1.39,0,0,0,.38-0.05,0.07,0.07,0,0,1,.06,0,0.06,0.06,0,0,1,0,.06,1.15,1.15,0,0,0,.16.73,0.33,0.33,0,0,0,.26.11,0.06,0.06,0,0,1,.06.08,0.75,0.75,0,0,0,.07.68,0.88,0.88,0,0,0,.7.29,0.91,0.91,0,0,0,.38-0.07,0.06,0.06,0,0,1,.09,0,0.85,0.85,0,0,0,1.26.44,0.06,0.06,0,0,1,.08,0,1,1,0,0,0,.85.46,1.28,1.28,0,0,0,.44-0.08h0Z" transform="translate(-669.49 -1187.7)"/>
      <path class="d" d="M690.83,1197s1.15,0.13,1,1.9Z" transform="translate(-669.49 -1187.7)"/>
      <path d="M691.84,1199h0a0.06,0.06,0,0,1-.06-0.07c0.13-1.69-.94-1.83-0.95-1.83a0.06,0.06,0,0,1-.06-0.07,0.06,0.06,0,0,1,.07-0.06s1.21,0.15,1.06,2a0.06,0.06,0,0,1-.06.06h0Z" transform="translate(-669.49 -1187.7)"/>
      <path class="d" d="M686.47,1195.21s-2.2,1.51,1.92,2Z" transform="translate(-669.49 -1187.7)"/>
      <path d="M688.38,1197.25h0c-1.56-.18-2.41-0.53-2.54-1a1.23,1.23,0,0,1,.6-1,0.06,0.06,0,0,1,.07.11,1.14,1.14,0,0,0-.55.91c0.08,0.31.56,0.74,2.43,1a0.06,0.06,0,0,1,0,.13h0Z" transform="translate(-669.49 -1187.7)"/>
      <path class="d" d="M687.1,1197s-1,1.24.85,1.6c-0.89.85,0.79,1.13,0.79,1.13a0.82,0.82,0,0,0,.66,1.13c-0.33.93,0.75,0.88,0.75,0.88a1.18,1.18,0,0,0,1.32,1.11,0.88,0.88,0,0,0,.88.82,0.89,0.89,0,0,0,1.13.58,0.56,0.56,0,0,0,.69.46Z" transform="translate(-669.49 -1187.7)"/>
      <path d="M694,1204.77a0.67,0.67,0,0,1-.38-0.11,0.57,0.57,0,0,1-.23-0.34,1,1,0,0,1-1.13-.6,0.93,0.93,0,0,1-.9-0.81,1.24,1.24,0,0,1-1.31-1.11,1,1,0,0,1-.72-0.29,0.66,0.66,0,0,1-.06-0.61,0.93,0.93,0,0,1-.61-0.44,1,1,0,0,1-.05-0.69,1.41,1.41,0,0,1-1-.6,0.56,0.56,0,0,1,.18-0.54,1.3,1.3,0,0,1-1-.66,1.07,1.07,0,0,1,.24-1,0.07,0.07,0,0,1,.09,0,0.06,0.06,0,0,1,0,.08l0,0a1,1,0,0,0-.23.88,1.28,1.28,0,0,0,1,.6,0.06,0.06,0,0,1,0,0,0.06,0.06,0,0,1,0,.06,0.52,0.52,0,0,0-.23.5,1.4,1.4,0,0,0,1,.52,0.07,0.07,0,0,1,0,.09,0.89,0.89,0,0,0,0,.66,0.84,0.84,0,0,0,.59.39l0,0a0.07,0.07,0,0,1,0,.05,0.58,0.58,0,0,0,0,.55,0.9,0.9,0,0,0,.67.24l0,0a0.06,0.06,0,0,1,0,0,1.12,1.12,0,0,0,1.25,1.05l0,0a0.06,0.06,0,0,1,0,0,0.8,0.8,0,0,0,.82.75,0.07,0.07,0,0,1,.06,0,0.82,0.82,0,0,0,1.05.54h0.05a0.06,0.06,0,0,1,0,0,0.47,0.47,0,0,0,.19.33,0.65,0.65,0,0,0,.43.07,0.07,0.07,0,0,1,.08,0,0.06,0.06,0,0,1,0,.08H694Z" transform="translate(-669.49 -1187.7)"/>
      <path class="e" d="M693.91,1205.62a1.91,1.91,0,0,0-.14-1Z" transform="translate(-669.49 -1187.7)"/>
      <path d="M693.91,1205.68h0a0.06,0.06,0,0,1-.06-0.07,1.73,1.73,0,0,0-.12-0.91,0.07,0.07,0,0,1,0-.09,0.06,0.06,0,0,1,.09,0,1.77,1.77,0,0,1,.16,1,0.06,0.06,0,0,1-.06.06h0Z" transform="translate(-669.49 -1187.7)"/>
      <path class="e" d="M692.48,1205.18a1.62,1.62,0,0,0,.25-0.86Z" transform="translate(-669.49 -1187.7)"/>
      <path d="M692.48,1205.24l0,0a0.07,0.07,0,0,1,0-.08,1.84,1.84,0,0,0,.26-0.78,0.07,0.07,0,0,1,0-.09,0.06,0.06,0,0,1,.09,0,0.18,0.18,0,0,1,0,.14,2.34,2.34,0,0,1-.3.81l0,0h0Z" transform="translate(-669.49 -1187.7)"/>
      <path class="e" d="M691.16,1204.72l1-1Z" transform="translate(-669.49 -1187.7)"/>
      <path d="M691.16,1204.79l0,0a0.06,0.06,0,0,1,0-.09l1-1a0.06,0.06,0,0,1,.09,0,0.06,0.06,0,0,1,0,.09l-1,1,0,0h0Z" transform="translate(-669.49 -1187.7)"/>
      <path class="e" d="M689.94,1203.78l1.48-.93Z" transform="translate(-669.49 -1187.7)"/>
      <path d="M689.93,1203.85l0,0a0.07,0.07,0,0,1,0-.09l1.49-.93a0.06,0.06,0,1,1,.07.11l-1.47.92,0,0h0Z" transform="translate(-669.49 -1187.7)"/>
      <path class="e" d="M689.42,1202.86a1.85,1.85,0,0,0,.86-0.66Z" transform="translate(-669.49 -1187.7)"/>
      <path d="M689.44,1202.91h0a0.06,0.06,0,0,1,0-.08l0.08,0a1.23,1.23,0,0,0,.77-0.58,0.06,0.06,0,0,1,.07-0.06,0.06,0.06,0,0,1,.06.07,1.46,1.46,0,0,1-.84.68,0.09,0.09,0,0,1-.07,0h0Z" transform="translate(-669.49 -1187.7)"/>
      <path class="d" d="M687.61,1201.8s2,0.42,2.32,0Z" transform="translate(-669.49 -1187.7)"/>
      <path d="M689.12,1202a8.32,8.32,0,0,1-1.52-.18,0.06,0.06,0,0,1,0-.08,0.06,0.06,0,0,1,.08,0c0.54,0.12,2,.34,2.26,0a0.06,0.06,0,0,1,.09,0,0.06,0.06,0,0,1,0,.09,1.15,1.15,0,0,1-.87.24h0Z" transform="translate(-669.49 -1187.7)"/>
      <path class="d" d="M686,1200.86c0.08,0,3,.31,3.23,0Z" transform="translate(-669.49 -1187.7)"/>
      <path d="M688.11,1201.05c-0.5,0-1.17,0-2-.11H686a0.06,0.06,0,0,1,0-.13h0.15c2.55,0.23,3,.05,3,0a0.07,0.07,0,0,1,.09,0,0.06,0.06,0,0,1,0,.09,1.76,1.76,0,0,1-1.14.2h0Z" transform="translate(-669.49 -1187.7)"/>
      <path class="d" d="M684.05,1199.56s3.42,0.63,4.38.14Z" transform="translate(-669.49 -1187.7)"/>
      <path d="M687.2,1199.95a20.86,20.86,0,0,1-2.91-.29l-0.24,0a0.06,0.06,0,0,1-.07,0,0.07,0.07,0,0,1,.05-0.08,0.77,0.77,0,0,1,.28,0c2.19,0.34,3.57.38,4.09,0.11a0.06,0.06,0,0,1,.09,0,0.06,0.06,0,0,1,0,.09,3,3,0,0,1-1.26.19h0Z" transform="translate(-669.49 -1187.7)"/>
      <path class="d" d="M682.43,1197.81c0.08,0,4.49,1.07,5.15.74Z" transform="translate(-669.49 -1187.7)"/>
      <path d="M687.13,1198.68a27.5,27.5,0,0,1-4.37-.73l-0.33-.07a0.06,0.06,0,0,1-.06-0.06,0.07,0.07,0,0,1,.07-0.06l0.35,0.07c2.81,0.62,4.41.85,4.77,0.67a0.06,0.06,0,0,1,.06.12,1.17,1.17,0,0,1-.48.07h0Z" transform="translate(-669.49 -1187.7)"/>
      <path class="d" d="M680.75,1196.28s5.26,1.22,5.92.72Z" transform="translate(-669.49 -1187.7)"/>
      <path d="M686,1197.18a30.37,30.37,0,0,1-5.09-.81l-0.13,0a0.06,0.06,0,0,1-.06-0.06,0.07,0.07,0,0,1,.07-0.06l0.15,0c3.27,0.72,5.36,1,5.72.7a0.06,0.06,0,1,1,.08.1,1.38,1.38,0,0,1-.74.13h0Z" transform="translate(-669.49 -1187.7)"/>
      <path class="d" d="M680.08,1194.79s5,1.63,5.43,1.22Z" transform="translate(-669.49 -1187.7)"/>
      <path d="M685.21,1196.13a26,26,0,0,1-5-1.25l-0.11,0a0.06,0.06,0,0,1-.06-0.06,0.07,0.07,0,0,1,.07-0.06l0.14,0c3.61,1.14,5.08,1.37,5.25,1.2a0.07,0.07,0,0,1,.09,0,0.06,0.06,0,0,1,0,.09,0.52,0.52,0,0,1-.34.08h0Z" transform="translate(-669.49 -1187.7)"/>
      <path class="d" d="M706.56,1200.88s1,1.12,1.55.28-0.72-1.07-.74-1.08a1.53,1.53,0,0,1-.78-1.54c-0.06-1.3,1.55-2.15,2-2.26a12.68,12.68,0,0,1,1.79-.11,49.65,49.65,0,0,0,5.38-1.54,38.77,38.77,0,0,1,5.12-1.21,0.54,0.54,0,0,1,.67.56,0.8,0.8,0,0,1-.67.74,0.91,0.91,0,0,1-.82,1.62c0.09,1.29-1.7,1.49-1.7,1.49s-0.19,1.85-1.84,1.76a2.08,2.08,0,0,1-1.87,1.32,2.66,2.66,0,0,1-1.7.93,1.49,1.49,0,0,1-1.84,1s0.09,0.91-.49.91a0.85,0.85,0,0,1-1.24,1,0.92,0.92,0,0,1-1.35.47,1.13,1.13,0,0,1-1.37.41,0.67,0.67,0,0,1-.93.38c-0.74-.24.8-5.1,0.78-5.13h0Z" transform="translate(-669.49 -1187.7)"/>
      <path d="M706.09,1206.13a1.12,1.12,0,0,1-.33-0.06c-0.47-.15-0.26-1.71.66-4.91l0.08-.29a0,0,0,0,1,0-.06,0.07,0.07,0,0,1,.09,0,1.82,1.82,0,0,0,1,.57,0.51,0.51,0,0,0,.45-0.28,0.55,0.55,0,0,0,.09-0.49,1,1,0,0,0-.75-0.48l-0.07,0a1.64,1.64,0,0,1-.8-1.58c-0.07-1.36,1.6-2.22,2.06-2.32a12,12,0,0,1,1.8-.11,50.72,50.72,0,0,0,5.35-1.53,37.55,37.55,0,0,1,5.14-1.22,0.78,0.78,0,0,1,.63.18,0.56,0.56,0,0,1,.12.45,0.86,0.86,0,0,1-.61.76,1,1,0,0,1,.38.75,1.15,1.15,0,0,1-1.27.91c0,1.15-1.42,1.43-1.71,1.48a1.92,1.92,0,0,1-1.77,1.77h-0.07a2.17,2.17,0,0,1-1.91,1.32,2.48,2.48,0,0,1-1.7.93,1.48,1.48,0,0,1-1.44,1.09,1.62,1.62,0,0,1-.33,0,1.14,1.14,0,0,1-.2.74,0.47,0.47,0,0,1-.28.15,0.84,0.84,0,0,1-.11.72,1,1,0,0,1-.8.34,1.12,1.12,0,0,1-.38-0.06,1,1,0,0,1-.86.59,1.22,1.22,0,0,1-.5-0.12,1.13,1.13,0,0,1-1.35.41,0.7,0.7,0,0,1-.65.41h0Zm0.5-5.13-0.06.2c-1.14,4-1,4.69-.74,4.75a1,1,0,0,0,.29,0,0.57,0.57,0,0,0,.55-0.39,0.06,0.06,0,0,1,0,0h0.05a1.21,1.21,0,0,0,.44.08,1,1,0,0,0,.85-0.46,0.06,0.06,0,0,1,.08,0,0.85,0.85,0,0,0,1.27-.44,0.06,0.06,0,0,1,.08,0,0.92,0.92,0,0,0,.38.07,0.87,0.87,0,0,0,.7-0.29,0.75,0.75,0,0,0,.07-0.68,0.06,0.06,0,0,1,0-.06l0.05,0a0.34,0.34,0,0,0,.27-0.11,1.15,1.15,0,0,0,.16-0.73,0.07,0.07,0,0,1,0-.06,0.06,0.06,0,0,1,.06,0,1.44,1.44,0,0,0,1.76-1,2.79,2.79,0,0,0,1.71-.94,2.13,2.13,0,0,0,1.86-1.3,0.06,0.06,0,0,1,.07,0h0.12a1.8,1.8,0,0,0,1.65-1.7,0.07,0.07,0,0,1,.06-0.06s1.73-.21,1.64-1.42a0.06,0.06,0,0,1,0-.05,0.05,0.05,0,0,1,.05,0,1,1,0,0,0,1.2-.8,1,1,0,0,0-.43-0.71,0.07,0.07,0,0,1,0-.12,0.73,0.73,0,0,0,.62-0.68,0.44,0.44,0,0,0-.09-0.35,0.67,0.67,0,0,0-.51-0.14,33.7,33.7,0,0,0-5.09,1.2,48.32,48.32,0,0,1-5.41,1.55,13,13,0,0,0-1.79.11c-0.42.1-2,.94-2,2.2a1.54,1.54,0,0,0,.73,1.48,1.2,1.2,0,0,1,.88.58,0.67,0.67,0,0,1-.1.61,0.64,0.64,0,0,1-.56.34,1.74,1.74,0,0,1-1-.53h0Z" transform="translate(-669.49 -1187.7)"/>
      <path class="d" d="M709.77,1197.08s-1.15.13-1,1.9Z" transform="translate(-669.49 -1187.7)"/>
      <path d="M708.76,1199a0.06,0.06,0,0,1-.06-0.06c-0.14-1.81,1.05-2,1.06-2a0.06,0.06,0,0,1,.07.06,0.06,0.06,0,0,1-.06.07s-1.08.14-.95,1.83a0.06,0.06,0,0,1-.06.07h0Z" transform="translate(-669.49 -1187.7)"/>
      <path class="d" d="M714.13,1195.25s2.2,1.51-1.92,2Z" transform="translate(-669.49 -1187.7)"/>
      <path d="M712.22,1197.29a0.06,0.06,0,0,1,0-.13c1.87-.21,2.35-0.63,2.43-1a1.14,1.14,0,0,0-.54-0.91,0.06,0.06,0,1,1,.07-0.11,1.23,1.23,0,0,1,.6,1c-0.13.52-1,.87-2.54,1h0Z" transform="translate(-669.49 -1187.7)"/>
      <path class="d" d="M713.5,1197s1,1.24-.85,1.6c0.89,0.85-.79,1.13-0.79,1.13a0.82,0.82,0,0,1-.66,1.13c0.33,0.93-.75.88-0.75,0.88a1.18,1.18,0,0,1-1.32,1.11,0.88,0.88,0,0,1-.88.82,0.89,0.89,0,0,1-1.13.58,0.56,0.56,0,0,1-.69.46Z" transform="translate(-669.49 -1187.7)"/>
      <path d="M706.57,1204.8h-0.15a0.06,0.06,0,0,1,0-.13,0.63,0.63,0,0,0,.43-0.07,0.47,0.47,0,0,0,.19-0.33,0.07,0.07,0,0,1,0,0h0.05a0.83,0.83,0,0,0,1.05-.54,0.06,0.06,0,0,1,.06,0,0.81,0.81,0,0,0,.82-0.75,0.06,0.06,0,0,1,0,0l0,0h0a1.11,1.11,0,0,0,1.23-1.05,0.06,0.06,0,0,1,0,0l0,0a0.91,0.91,0,0,0,.67-0.24,0.58,0.58,0,0,0,0-.55,0.07,0.07,0,0,1,0-.05l0,0a0.84,0.84,0,0,0,.59-0.39,0.89,0.89,0,0,0,0-.66,0.06,0.06,0,0,1,0-.05,0.06,0.06,0,0,1,0,0,1.41,1.41,0,0,0,1-.52,0.52,0.52,0,0,0-.23-0.5,0.06,0.06,0,0,1,0-.11,1.28,1.28,0,0,0,1-.6,1,1,0,0,0-.23-0.88,0.08,0.08,0,0,1,0-.1,0.05,0.05,0,0,1,.07,0,1.08,1.08,0,0,1,.25,1,1.3,1.3,0,0,1-1,.65,0.57,0.57,0,0,1,.18.54,1.4,1.4,0,0,1-1,.6,1,1,0,0,1-.05.69,0.92,0.92,0,0,1-.61.44,0.66,0.66,0,0,1-.06.61,0.94,0.94,0,0,1-.72.29,1.24,1.24,0,0,1-1.31,1.12,0.93,0.93,0,0,1-.9.81,1,1,0,0,1-1.13.6,0.56,0.56,0,0,1-.23.35,0.68,0.68,0,0,1-.38.11h0Z" transform="translate(-669.49 -1187.7)"/>
      <path class="e" d="M706.69,1205.65a1.92,1.92,0,0,1,.14-1Z" transform="translate(-669.49 -1187.7)"/>
      <path d="M706.69,1205.72a0.07,0.07,0,0,1-.06-0.06,1.76,1.76,0,0,1,.16-1,0.06,0.06,0,1,1,.08.1,1.73,1.73,0,0,0-.12.91,0.07,0.07,0,0,1-.06.07h0Z" transform="translate(-669.49 -1187.7)"/>
      <path class="e" d="M708.12,1205.21a1.64,1.64,0,0,1-.25-0.86Z" transform="translate(-669.49 -1187.7)"/>
      <path d="M708.12,1205.28l-0.05,0a1.48,1.48,0,0,1-.25-1,0.06,0.06,0,0,1,.09,0,0.06,0.06,0,0,1,0,.09,1.83,1.83,0,0,0,.26.78,0.06,0.06,0,0,1,0,.09l0,0h0Z" transform="translate(-669.49 -1187.7)"/>
      <path class="e" d="M709.44,1204.76l-1-1Z" transform="translate(-669.49 -1187.7)"/>
      <path d="M709.44,1204.82l0,0-1-1a0.07,0.07,0,0,1,0-.09,0.06,0.06,0,0,1,.09,0l1,1a0.06,0.06,0,0,1,0,.09l0,0h0Z" transform="translate(-669.49 -1187.7)"/>
      <path class="d" d="M710.66,1203.82l-1.47-.93Z" transform="translate(-669.49 -1187.7)"/>
      <path d="M710.66,1203.88h0l-1.47-.92a0.06,0.06,0,0,1,0-.09,0.07,0.07,0,0,1,.09,0l1.49,0.94a0.06,0.06,0,0,1,0,.09l0,0h0Z" transform="translate(-669.49 -1187.7)"/>
      <path class="e" d="M711.18,1202.89a1.83,1.83,0,0,1-.86-0.66Z" transform="translate(-669.49 -1187.7)"/>
      <path d="M711.18,1203h0a1.54,1.54,0,0,1-.89-0.71,0.06,0.06,0,0,1,.06-0.07,0.06,0.06,0,0,1,.07.06,1.24,1.24,0,0,0,.77.58l0.07,0a0.06,0.06,0,0,1,0,.09l0,0h0Z" transform="translate(-669.49 -1187.7)"/>
      <path class="d" d="M713,1201.84s-2,.43-2.32,0Z" transform="translate(-669.49 -1187.7)"/>
      <path d="M711.48,1202.08a1.14,1.14,0,0,1-.87-0.24,0.06,0.06,0,0,1,0-.09,0.06,0.06,0,0,1,.09,0c0.26,0.35,1.72.12,2.26,0a0.07,0.07,0,0,1,.08,0,0.06,0.06,0,0,1,0,.08,8.11,8.11,0,0,1-1.52.18h0Z" transform="translate(-669.49 -1187.7)"/>
      <path class="d" d="M714.63,1200.9c-0.08,0-3,.31-3.23,0Z" transform="translate(-669.49 -1187.7)"/>
      <path d="M712.49,1201.09a1.77,1.77,0,0,1-1.14-.2,0.06,0.06,0,0,1,0-.09,0.06,0.06,0,0,1,.09,0c0.06,0.09.49,0.26,3,0h0.15a0.06,0.06,0,0,1,.06.06,0.06,0.06,0,0,1-.06.06H714.5c-0.84.08-1.51,0.12-2,.12h0Z" transform="translate(-669.49 -1187.7)"/>
      <path class="d" d="M716.55,1199.59s-3.42.63-4.38,0.14Z" transform="translate(-669.49 -1187.7)"/>
      <path d="M713.39,1200a3.07,3.07,0,0,1-1.26-.19,0.06,0.06,0,0,1,0-.09,0.07,0.07,0,0,1,.09,0c0.52,0.27,1.9.23,4.09-.11l0.28,0a0.06,0.06,0,0,1,0,.08,0.06,0.06,0,0,1-.07,0l-0.24,0a20.88,20.88,0,0,1-2.91.29h0Z" transform="translate(-669.49 -1187.7)"/>
      <path class="d" d="M718.17,1197.85c-0.08,0-4.49,1.07-5.15.74Z" transform="translate(-669.49 -1187.7)"/>
      <path d="M713.47,1198.72a1.17,1.17,0,0,1-.48-0.07,0.06,0.06,0,0,1,0-.09,0.06,0.06,0,0,1,.09,0c0.35,0.17,2-.05,4.77-0.67l0.35-.07a0.06,0.06,0,0,1,0,.13l-0.33.07a27.57,27.57,0,0,1-4.37.73h0Z" transform="translate(-669.49 -1187.7)"/>
      <path class="d" d="M719.84,1196.31s-5.26,1.22-5.92.72Z" transform="translate(-669.49 -1187.7)"/>
      <path d="M714.63,1197.22a1.36,1.36,0,0,1-.74-0.13,0.06,0.06,0,0,1,0-.09,0.06,0.06,0,0,1,.09,0c0.36,0.28,2.45,0,5.73-.71l0.15,0a0.06,0.06,0,0,1,.06.06,0.06,0.06,0,0,1-.05.06l-0.13,0a30.34,30.34,0,0,1-5.1.81h0Z" transform="translate(-669.49 -1187.7)"/>
      <path class="d" d="M720.52,1194.82s-5,1.63-5.43,1.22Z" transform="translate(-669.49 -1187.7)"/>
      <path d="M715.39,1196.17a0.53,0.53,0,0,1-.34-0.08,0.07,0.07,0,0,1,0-.09,0.07,0.07,0,0,1,.09,0c0.17,0.17,1.65-.06,5.26-1.21l0.13,0a0.07,0.07,0,0,1,.06.06,0.06,0.06,0,0,1,0,.06l-0.11,0a25.92,25.92,0,0,1-5,1.25h0Z" transform="translate(-669.49 -1187.7)"/>
      <path class="f" d="M712.56,1202.78s-0.31,4.39-.32,4.38l-0.64-.77-1.93,6.05,0.45,1.32-1.12,3.68-0.93-1.17-1.5.6,1.2-3.88,1.11-.8,2-6-1.11.14Z" transform="translate(-669.49 -1187.7)"/>
      <path d="M709,1217.56l-1-1.25-1.54.66,1.23-4,1.13-.82,2-5.86-1.15.14,3-3.82v0.17c-0.31,4.42-.31,4.42-0.37,4.43a3.91,3.91,0,0,1-.62-0.71l-1.9,6,0.45,1.29-1.15,3.81h0Zm-1-1.33,0.92,1.12,1.1-3.59-0.45-1.29,2-6.17,0.06,0.07,0.56,0.68c0-.55.22-2.94,0.3-4.09l-2.61,3.36,1.07-.13-2,6-1.13.82-1.15,3.75,1.4-.56h0Z" transform="translate(-669.49 -1187.7)"/>
      <path class="f" d="M716.83,1204.59s-2.33,3.73-2.34,3.71-0.21-1-.21-1l-3.83,3.56-4.1,4V1214l-1.4-.17,1.85-1.42,0.95-.16,6-5.42-1-.4Z" transform="translate(-669.49 -1187.7)"/>
      <path d="M706.3,1215V1214l-1.48-.14,2-1.49,1-.17,5.89-5.36-1.08-.41,4.41-2-0.09.14a41.39,41.39,0,0,1-2.39,3.74,2.13,2.13,0,0,1-.24-0.93l-3.77,3.5-4.18,4h0Zm-1.23-1.14,1.28,0.16,0,0.75,4-3.87,3.9-3.62,0,0.09,0.18,0.86c0.3-.46,1.57-2.49,2.19-3.47l-3.88,1.74,1,0.38-6,5.48-1,.17-1.73,1.33h0Z" transform="translate(-669.49 -1187.7)"/>
      <path d="M706.4,1214l-0.09-.05c0-.05,1.18-1,2.14-1.87l0.07,0.08c-0.82.7-2.06,1.77-2.12,1.84h0Z" transform="translate(-669.49 -1187.7)"/>
      <path class="f" d="M715.58,1201.44s-1.14,4.25-1.15,4.23l-0.48-.87-4.63,7.95,0.19,1.38-1.66,3-0.69-1.33-1.58.3,1.78-3.22,1.24-.57,4.68-7.85-1.12-.08Z" transform="translate(-669.49 -1187.7)"/>
      <path d="M707.85,1217.28l-0.73-1.42-1.64.35,1.83-3.32,1.26-.59,4.61-7.75-1.16-.08,3.64-3.18,0,0.16a38.88,38.88,0,0,1-1.19,4.27,2.24,2.24,0,0,1-.5-0.82l-4.58,7.87,0.2,1.35-1.71,3.16h0Zm-0.69-1.49,0.69,1.27,1.62-3-0.2-1.35,4.68-8.06,0,0.08,0.42,0.77c0.14-.51.72-2.65,1.07-4l-3.2,2.8,1.08,0.07-4.72,7.92-1.26.59-1.7,3.1,1.47-.28h0s0,0,1.6-2.84l0.09,0.05c-0.43.75-1.56,2.73-1.59,2.81l-0.08,0h0Z" transform="translate(-669.49 -1187.7)"/>
      <polygon class="f" points="6.29 12.94 9.08 12.96 8.8 13.63 10.02 18.44 11.49 13.64 10.97 12.94 13.87 12.94 13.25 13.61 10.85 20.5 11.48 21.4 8.69 21.4 9.31 20.5 6.96 13.64 6.29 12.94"/>
      <path d="M681.06,1209.15h-3l0.68-1-2.35-6.81-0.75-.77h3l-0.31.74,1.17,4.61,1.42-4.63-0.57-.73h3.12l-0.7.76-2.38,6.87,0.67,0.94h0Zm-2.79-.1h2.6l-0.57-.82,2.39-6.93,0.55-.6h-2.68l0.46,0.62-1.52,5-1.26-5,0.25-.63H675.9l0.59,0.61,2.36,6.88-0.57.87h0Z" transform="translate(-669.49 -1187.7)"/>
      <polygon class="f" points="49.07 13.11 51.72 13.11 51.29 13.7 51.28 20.71 51.87 21.37 49.07 21.37 49.63 20.66 49.62 13.71 49.07 13.11"/>
      <path d="M721.48,1209.12h-3l0.62-.79,0-6.92-0.61-.66h2.86l-0.49.68v7l0.66,0.71h0Zm-2.81-.1h2.58l-0.52-.57v-7l0.38-.54h-2.43l0.47,0.52,0,7-0.51.66h0ZM698.44,1196l0-.1a0.67,0.67,0,0,0,.47-0.31,1.41,1.41,0,0,0-.76-0.57,2.14,2.14,0,0,1-.49-0.48l0.08-.06a2.12,2.12,0,0,0,.44.45,1.38,1.38,0,0,1,.83.68,0.76,0.76,0,0,1-.54.4h0Zm1.07-.86a0.72,0.72,0,0,1-.62-0.58l-0.7-.65,0.07-.07,0.65,0.62a1.71,1.71,0,0,1,1.13.33,0.15,0.15,0,0,1,0,.17,0.59,0.59,0,0,1-.45.18h-0.06Zm-0.53-.6a0.58,0.58,0,0,0,.58.49,0.49,0.49,0,0,0,.38-0.13,1.28,1.28,0,0,0-1-.36h0Z" transform="translate(-669.49 -1187.7)"/>
      <path class="g" d="M693.9,1215.25l0.95-.79a1,1,0,0,0-1-.42,23.39,23.39,0,0,1-1.93-1.67l-0.61-1.66a0.94,0.94,0,0,0,.61-0.55,1.52,1.52,0,0,0-.08-0.95,0.94,0.94,0,0,0-.69.29c-0.14.21-.37,1-0.71,0.74a0.36,0.36,0,0,1,0-.58,1.46,1.46,0,0,0,.32-0.64,2.81,2.81,0,0,0-.5-0.92,7,7,0,0,1-.27,1c-0.13.1-.31,0.5-0.56,0.27s0.13-.56.13-0.56,0.72-.39,0-1.66a2.52,2.52,0,0,1-.61.9s-0.19.34-.37,0a0.48,0.48,0,0,1,.21-0.56,1.33,1.33,0,0,0,.64-0.92,2,2,0,0,0-.76-1.17,2.3,2.3,0,0,1-.29,1.14c-0.24.13-.34,0.34-0.61,0.11s0.21-.72.21-0.72a2.69,2.69,0,0,0,.79-1.32,2,2,0,0,0-.1-0.56,2.81,2.81,0,0,0-.71.58c-0.08.19-.34,0.88-0.66,0.68a0.75,0.75,0,0,1,.19-0.76,1.17,1.17,0,0,0,.29-0.48,2.29,2.29,0,0,0-.72-1,3,3,0,0,1-.1-0.64,1.45,1.45,0,0,0-.34.64c0,0.22,0,.68,0,1.17s-0.39-.16-0.39-0.16l0.08-1.61a3.82,3.82,0,0,0-1.35-1,1.42,1.42,0,0,1,.26.79,4.29,4.29,0,0,0-.3.84,2.87,2.87,0,0,0,1,1.46c-1-1.08-2.24-.72-2.61-0.93a3,3,0,0,1,.65,1.21,2.12,2.12,0,0,0,.95.64l1.08,0a1.77,1.77,0,0,1,.58.61c0,0.24-.77-0.45-1.09-0.43a9.61,9.61,0,0,1-1.17-.11,2.19,2.19,0,0,1,.53.69,1.18,1.18,0,0,0,.55.82,5.24,5.24,0,0,0,1.13.18s0.35-.21.42,0-0.47.4-.47,0.4a1.63,1.63,0,0,1-.72-0.15,1.23,1.23,0,0,0-1-.48,2.17,2.17,0,0,0,.43,1.34s2.17-.18,2.16.29-1.8,0-1.87-.1a1.65,1.65,0,0,0,.5,1.14,2.74,2.74,0,0,0,1.46.06c0.11,0,.53-0.1.53,0.15s-2.12.43-2.16,0.37a1.29,1.29,0,0,0,1.17.77,2.54,2.54,0,0,0,1.22-.31s0.52-.1.56,0.11-0.52.3-.52,0.3a10.65,10.65,0,0,1-1.4,0,1.34,1.34,0,0,0,1.26.84,1.3,1.3,0,0,0,.9-0.42,2.87,2.87,0,0,1,.72,0c0.06,0,1.19.8,1.19,0.8Z" transform="translate(-669.49 -1187.7)"/>
      <path d="M693.9,1215.3h0l-2.87-2.9c-0.41-.29-1.11-0.77-1.17-0.79a3.43,3.43,0,0,0-.7,0,0.37,0.37,0,0,0-.09.08,1.12,1.12,0,0,1-.82.35h0a1.37,1.37,0,0,1-1-.42,1.17,1.17,0,0,1-.3-0.47,0.06,0.06,0,0,1,0,0,1.22,1.22,0,0,1-.78-0.39,1.23,1.23,0,0,1-.28-0.43,0.05,0.05,0,0,1,.05-0.05l0.12,0a5.75,5.75,0,0,0,2-.33c0-.2-0.37-0.13-0.46-0.1a2.72,2.72,0,0,1-.71.08,1.85,1.85,0,0,1-.8-0.14,1.76,1.76,0,0,1-.54-1.21,0.23,0.23,0,0,1,.11,0,3.44,3.44,0,0,0,1.33.28c0.16,0,.43,0,0.44-0.16a0.1,0.1,0,0,0,0-.07,1.93,1.93,0,0,0-1.21-.2c-0.46,0-.86,0-0.86,0a2,2,0,0,1-.49-1.39,0.05,0.05,0,0,1,0,0h0a1.22,1.22,0,0,1,.93.4l0.09,0.09a1.54,1.54,0,0,0,.69.13,0.57,0.57,0,0,0,.42-0.34c0-.14-0.34,0-0.34,0a5.08,5.08,0,0,1-1.17-.17,1.24,1.24,0,0,1-.58-0.86,2,2,0,0,0-.51-0.66,0.05,0.05,0,0,1,0-.09,10.5,10.5,0,0,0,1.1.11h0.08a1.82,1.82,0,0,1,.69.31,1.55,1.55,0,0,0,.36.18,2,2,0,0,0-.58-0.57H685a1.63,1.63,0,0,1-1-.71,3,3,0,0,0-.63-1.16,0.05,0.05,0,0,1,.06-0.08,1.45,1.45,0,0,0,.52.08,3.28,3.28,0,0,1,1.47.36,2.23,2.23,0,0,1-.47-0.93,4.08,4.08,0,0,1,.31-0.86h0a1.48,1.48,0,0,0-.25-0.74,0,0,0,0,1,0-.06,0.05,0.05,0,0,1,.06,0,3.82,3.82,0,0,1,1.37,1l-0.07,1.64a1,1,0,0,0,.28.29,0.49,0.49,0,0,0,0-.13,6.72,6.72,0,0,1,0-.85c0-.13,0-0.25,0-0.33a1.41,1.41,0,0,1,.35-0.68,0.05,0.05,0,0,1,.06,0,0,0,0,0,1,0,0,3,3,0,0,0,.09.63,2.25,2.25,0,0,1,.73,1,1.09,1.09,0,0,1-.3.52,0.68,0.68,0,0,0-.19.69l0.08,0a1,1,0,0,0,.48-0.65,2.49,2.49,0,0,1,.74-0.64h0l0,0a1.85,1.85,0,0,1,.1.59,2.67,2.67,0,0,1-.8,1.36,1,1,0,0,0-.28.52,0.17,0.17,0,0,0,.06.13,0.26,0.26,0,0,0,.39,0l0.16-.11a2.07,2.07,0,0,0,.26-1.1,0.05,0.05,0,0,1,0,0,0.05,0.05,0,0,1,.05,0,2.06,2.06,0,0,1,.78,1.22,1.37,1.37,0,0,1-.67,1,0.42,0.42,0,0,0-.19.49c0.11,0.18.25,0,.28,0a2.55,2.55,0,0,0,.61-0.89,0.05,0.05,0,0,1,0,0,0,0,0,0,1,0,0,1.74,1.74,0,0,1,.28,1.3,0.74,0.74,0,0,1-.31.43h0a0.61,0.61,0,0,0-.19.33,0.18,0.18,0,0,0,.07.14c0.15,0.13.28,0,.38-0.15A0.71,0.71,0,0,1,690,1209a2.29,2.29,0,0,0,.17-0.64c0.06-.3.07-0.36,0.13-0.36a2.42,2.42,0,0,1,.55,1,1.42,1.42,0,0,1-.33.68,0.47,0.47,0,0,0-.17.3,0.27,0.27,0,0,0,.12.21c0.21,0.17.38-.22,0.51-0.49a1.86,1.86,0,0,1,.13-0.24,1.07,1.07,0,0,1,.69-0.32l0.08,0a1.54,1.54,0,0,1,.09,1,0.94,0.94,0,0,1-.59.56l0.59,1.61h0s1.22,1.16,1.91,1.65h0a1,1,0,0,1,1,.44l-1,.85h0Zm-4.25-3.81h0.21c0.07,0,.87.57,1.21,0.81l2.84,2.87,0.91-.75h0a1.19,1.19,0,0,0-.88-0.33h-0.07a23.65,23.65,0,0,1-1.94-1.68l-0.62-1.68a0.05,0.05,0,0,1,0,0l0,0a0.9,0.9,0,0,0,.58-0.51,1.52,1.52,0,0,0-.07-0.9,1,1,0,0,0-.61.28,1.82,1.82,0,0,0-.12.23c-0.16.33-.4,0.74-0.67,0.53a0.37,0.37,0,0,1-.16-0.29,0.54,0.54,0,0,1,.21-0.37,1.34,1.34,0,0,0,.3-0.6,3,3,0,0,0-.45-0.86,0.71,0.71,0,0,1,0,.26,1.59,1.59,0,0,1-.21.7,0.7,0.7,0,0,0-.1.11,0.37,0.37,0,0,1-.53.16,0.29,0.29,0,0,1-.11-0.22,0.68,0.68,0,0,1,.24-0.42,0.64,0.64,0,0,0,.27-0.38,1.55,1.55,0,0,0-.22-1.12,2.55,2.55,0,0,1-.58.82,0.34,0.34,0,0,1-.25.18,0.24,0.24,0,0,1-.2-0.14,0.5,0.5,0,0,1,.22-0.63,1.29,1.29,0,0,0,.62-0.87,1.79,1.79,0,0,0-.66-1.07,1.83,1.83,0,0,1-.31,1.08l-0.15.1a0.37,0.37,0,0,1-.52,0,0.27,0.27,0,0,1-.1-0.2,1.08,1.08,0,0,1,.31-0.6,2.66,2.66,0,0,0,.77-1.28,3.42,3.42,0,0,0-.07-0.49,2.4,2.4,0,0,0-.63.52c-0.13.31-.42,0.91-0.74,0.7a0.77,0.77,0,0,1,.18-0.83,1.07,1.07,0,0,0,.28-0.45,2.29,2.29,0,0,0-.71-1,2,2,0,0,1-.1-0.55,1.07,1.07,0,0,0-.25.51c0,0.08,0,.2,0,0.34a6.88,6.88,0,0,0,0,.84,0.27,0.27,0,0,1,0,.21l-0.07,0a0.84,0.84,0,0,1-.38-0.37l0.07-1.64h0a4.38,4.38,0,0,0-1.17-.9,1.43,1.43,0,0,1,.18.68,4.25,4.25,0,0,0-.31.84,2.6,2.6,0,0,0,.67,1.13,2.53,2.53,0,0,1,.33.3,0,0,0,0,1,0,.07,0.05,0.05,0,0,1-.07,0,3,3,0,0,1-.33-0.31,2.94,2.94,0,0,0-1.71-.53,3.21,3.21,0,0,1-.39,0,2.44,2.44,0,0,1,.55,1.12,2,2,0,0,0,.92.58h1.06a1.64,1.64,0,0,1,.63.65,0.19,0.19,0,0,1,0,.08,0.54,0.54,0,0,1-.47-0.17,1.85,1.85,0,0,0-.64-0.29l-0.08-.05v0.05a9,9,0,0,1-1-.09,1.57,1.57,0,0,1,.44.61,1.14,1.14,0,0,0,.52.78,5.09,5.09,0,0,0,1.11.17,0.52,0.52,0,0,1,.27-0.09,0.19,0.19,0,0,1,.2.14c0.08,0.26-.44.45-0.5,0.46a1.58,1.58,0,0,1-.77-0.15l-0.1-.11a1.08,1.08,0,0,0-.81-0.36,2.16,2.16,0,0,0,.43,1.24,4.44,4.44,0,0,1,.83,0,2.14,2.14,0,0,1,1.28.23,0.2,0.2,0,0,1,.06.15c0,0.17-.19.26-0.54,0.26a3.84,3.84,0,0,1-1.33-.27,1.62,1.62,0,0,0,.48,1,1.75,1.75,0,0,0,.75.13,2.71,2.71,0,0,0,.67-0.07,0.74,0.74,0,0,1,.26,0c0.22,0,.34.09,0.34,0.24,0,0.31-2,.43-2.1.43h0a1.28,1.28,0,0,0,1,.66,2.68,2.68,0,0,0,1.26-.3,1,1,0,0,1,.28,0,0.32,0.32,0,0,1,.37.18,0.16,0.16,0,0,1,0,.13,1,1,0,0,1-.53.24h-0.69a6.13,6.13,0,0,1-.65,0,1.36,1.36,0,0,0,1.17.71,1,1,0,0,0,.77-0.31,0.37,0.37,0,0,1,.14-0.1,2.81,2.81,0,0,1,.54,0h0Zm-2.56-.35,0.6,0h0.68a0.92,0.92,0,0,0,.46-0.19,0.21,0.21,0,0,0-.25-0.15,1.51,1.51,0,0,0-.24,0,2.48,2.48,0,0,1-1.23.31h0Z" transform="translate(-669.49 -1187.7)"/>
      <path d="M693.88,1215.29a0.05,0.05,0,0,1,0,0,1.14,1.14,0,0,1-.24-0.91,0.56,0.56,0,0,1,.28-0.34,0.05,0.05,0,0,1,0,.1,0.44,0.44,0,0,0-.22.28,1,1,0,0,0,.22.82,0.05,0.05,0,0,1,0,.07h0Zm-5.77-3.62a0.68,0.68,0,0,1-.44-0.12,0.05,0.05,0,0,1,0-.07,0.05,0.05,0,0,1,.07,0,1,1,0,0,0,1.06-.07,0.05,0.05,0,1,1,0,.09,1.77,1.77,0,0,1-.73.18h0Zm-0.81-1a1,1,0,0,1-.45-0.09,0.07,0.07,0,0,1-.07-0.06,0,0,0,0,1,0-.06l0.07,0a1.42,1.42,0,0,0,1.34-.19,0.05,0.05,0,0,1,.07,0,0.05,0.05,0,0,1,0,.07,2.12,2.12,0,0,1-1,.29h0Zm3.21,0-0.18,0a0.05,0.05,0,1,1,0-.1,1.07,1.07,0,0,0,1.09-.77,0,0,0,0,1,.07,0,0.05,0.05,0,0,1,0,.06,1.25,1.25,0,0,1-1,.86h0Zm-0.58-.87a0.05,0.05,0,0,1,0-.1,1,1,0,0,0,.53-0.76,0.05,0.05,0,0,1,.06,0,0.05,0.05,0,0,1,0,.06,1,1,0,0,1-.63.84h0Zm-3-.29a1.09,1.09,0,0,1-.87-0.33,0.05,0.05,0,0,1,0-.07,0.05,0.05,0,0,1,.07,0,1.24,1.24,0,0,0,1.35.21,0.05,0.05,0,0,1,.06,0,0.05,0.05,0,0,1,0,.06,2.24,2.24,0,0,1-.59.08h0Zm2.1-.82a0.05,0.05,0,0,1,0,0,0.05,0.05,0,0,1,0-.06,0.78,0.78,0,0,0,.47-0.58s0-.07.05-0.05a0.05,0.05,0,0,1,.05.05,0.87,0.87,0,0,1-.56.68h0Zm-2.65-.57a1.59,1.59,0,0,1-1.12-.42,0.05,0.05,0,0,1,0-.07,0,0,0,0,1,.07,0,1.57,1.57,0,0,0,1.32.37,0.05,0.05,0,0,1,0,.1l-0.29,0h0Zm1.93-.7a0.07,0.07,0,0,1-.07-0.05s0-.08.05-0.05a0.63,0.63,0,0,0,.48-0.17,0.92,0.92,0,0,0,.17-0.67l0,0,0.05,0a1,1,0,0,1-.2.75,0.71,0.71,0,0,1-.54.2h0Zm-1.8-.67a4.16,4.16,0,0,1-1.47-.61,0.05,0.05,0,1,1,.05-0.09,4,4,0,0,0,1.46.59,0.05,0.05,0,0,1,.06,0,0.05,0.05,0,0,1,0,.06h-0.06Zm1.06-1.06h0a0.05,0.05,0,0,1,0-.05s0,0,.05,0a0.94,0.94,0,0,0,.84-0.56,0.05,0.05,0,0,1,.07,0,0,0,0,0,1,0,.07,1,1,0,0,1-.89.63h0Zm-1.69-.54a1.59,1.59,0,0,1-1.17-.37,0.71,0.71,0,0,1-.21-0.51,0.06,0.06,0,0,1,.05,0,0.05,0.05,0,0,1,0,.05,0.61,0.61,0,0,0,.19.44,1.67,1.67,0,0,0,1.26.33,0.05,0.05,0,0,1,.05,0,0,0,0,0,1,0,.05h-0.16Zm1-.28a0.05,0.05,0,0,1,0-.1,0.64,0.64,0,0,0,.44-0.37,0.84,0.84,0,0,0-.12-0.63,0.05,0.05,0,0,1,0-.07,0.05,0.05,0,0,1,.07,0,0.93,0.93,0,0,1,.13.72,0.74,0.74,0,0,1-.51.43h0Zm-0.53-.29h0c-0.79-.48-0.77-2-0.76-2.06a0.07,0.07,0,0,1,.05,0,0.05,0.05,0,0,1,0,.05s0,1.52.72,2a0.05,0.05,0,0,1,0,.07,0.05,0.05,0,0,1,0,0h0Z" transform="translate(-669.49 -1187.7)"/>
      <path class="d" d="M705.71,1206.16a4.33,4.33,0,0,1,.64.73,1.67,1.67,0,0,0,.33.81,3.6,3.6,0,0,1,.9.81c0.09,0.2.66,1.06,0.66,1.06a3.12,3.12,0,0,0,.88,1.18c0.36,0.09,1.35-.06,1.56.42a3.07,3.07,0,0,1,.15,1.18s-0.24.21-.35,0.09-0.32.63-.67,0.42a1.73,1.73,0,0,0-1.74-.86s0.28-.43-0.85-0.81a2.07,2.07,0,0,1-2.28-1.53l-1-.87Z" transform="translate(-669.49 -1187.7)"/>
      <path d="M709.93,1212.94a0.3,0.3,0,0,1-.15,0,1.6,1.6,0,0,0-1.52-.86H708L708,1212a0.22,0.22,0,0,0,0-.19,1.2,1.2,0,0,0-.83-0.55,1.59,1.59,0,0,1-.37,0,2.2,2.2,0,0,1-1.94-1.6l-1-.84,1.8-2.74,0,0a3.48,3.48,0,0,1,.66.77,1.73,1.73,0,0,0,.3.77,3.58,3.58,0,0,1,.92.83c0.09,0.2.65,1,.65,1.05a2.92,2.92,0,0,0,.86,1.15,2.39,2.39,0,0,0,.42,0,1.26,1.26,0,0,1,1.17.41,3.08,3.08,0,0,1,.16,1.2c0,0.07-.33.25-0.44,0.12l-0.1.14a0.6,0.6,0,0,1-.41.33h0Zm-0.08-.11h0.08a0.54,0.54,0,0,0,.33-0.29,0.32,0.32,0,0,1,.19-0.18l0.07,0a0.36,0.36,0,0,0,.28-0.09,3.54,3.54,0,0,0-.16-1.12,1.21,1.21,0,0,0-1.08-.35,2.45,2.45,0,0,1-.44,0,3,3,0,0,1-.92-1.2s-0.57-.86-0.66-1.06a3.57,3.57,0,0,0-.88-0.79,1.68,1.68,0,0,1-.35-0.85,3.67,3.67,0,0,0-.59-0.66l-1.74,2.57,1,0.8a2.06,2.06,0,0,0,2.23,1.52,1.34,1.34,0,0,1,.92.61,0.37,0.37,0,0,1,0,.19,1.72,1.72,0,0,1,1.71.9h0Z" transform="translate(-669.49 -1187.7)"/>
      <polygon class="d" points="35.21 21.06 36 21.43 35.94 20.76 35.21 21.06"/>
      <polygon points="36.06 21.51 35.19 21.11 35.23 21.01 35.94 21.34 35.88 20.76 35.98 20.75 36.06 21.51 36.06 21.51"/>
      <polygon class="d" points="36.33 20.96 37.05 21.31 36.76 20.73 36.33 20.96"/>
      <polygon points="37.16 21.43 36.3 21.01 36.35 20.91 36.93 21.2 36.71 20.76 36.8 20.71 37.16 21.43 37.16 21.43"/>
      <polygon class="d" points="36.29 20.01 36.99 20.39 36.67 19.66 36.29 20.01"/>
      <polygon points="37.1 20.51 36.26 20.06 36.31 19.97 36.89 20.27 36.62 19.68 36.72 19.64 37.1 20.51 37.1 20.51"/>
      <path class="d" d="M706.9,1211.19s-0.81-1.06-.8-1.06l1.38,0.27L707,1209.3l1.25,0.33Z" transform="translate(-669.49 -1187.7)"/>
      <path d="M706.86,1211.22a3.87,3.87,0,0,1-.8-1.12,4.42,4.42,0,0,1,1.33.22l-0.51-1.09,1.36,0.36,0,0.1-1.14-.3,0.5,1.08-0.1,0-1.25-.24,0.72,1-0.08.06h0Z" transform="translate(-669.49 -1187.7)"/>
      <path class="d" d="M709.23,1211.35s0.8,0.18.77,1.5Z" transform="translate(-669.49 -1187.7)"/>
      <path d="M710,1212.86h-0.1c0-1.27-.7-1.45-0.73-1.45l0-.1s0.84,0.2.81,1.55h0Z" transform="translate(-669.49 -1187.7)"/>
      <path class="d" d="M709.65,1211.15s0.86,0,.81,1.29Z" transform="translate(-669.49 -1187.7)"/>
      <path d="M710.5,1212.44h-0.1a1.34,1.34,0,0,0-.29-1,0.68,0.68,0,0,0-.46-0.2v-0.1a0.76,0.76,0,0,1,.54.22,1.45,1.45,0,0,1,.32,1.12h0Z" transform="translate(-669.49 -1187.7)"/>
      <path class="d" d="M694.82,1206.32a4.29,4.29,0,0,0-.64.73,1.61,1.61,0,0,1-.43.73,3.57,3.57,0,0,0-.82.86c-0.09.2-.63,1.09-0.63,1.09a3.34,3.34,0,0,1-1,1,1.77,1.77,0,0,0-1.46.6,1,1,0,0,0,.35,1.22c0.35,0.16.52,0.32,0.63,0.19,0.19,0.06.08,0.22,0.44,0-0.27-.35-0.24-0.68,0-0.77a1,1,0,0,1,.71.32,1.77,1.77,0,0,1,1.29-1.12,2,2,0,0,0,2.35-1.45,3.51,3.51,0,0,1,1.06-.71Z" transform="translate(-669.49 -1187.7)"/>
      <path d="M691,1212.9a0.16,0.16,0,0,1-.11-0.05,0.2,0.2,0,0,0-.1-0.06s0,0-.08,0a0.7,0.7,0,0,1-.29-0.11l-0.26-.13a0.36,0.36,0,0,1-.23-0.18,1.31,1.31,0,0,1-.14-1.1,1.82,1.82,0,0,1,1.51-.63,3.17,3.17,0,0,0,.94-1s0.54-.88.63-1.08a3.59,3.59,0,0,1,.84-0.89,1.6,1.6,0,0,0,.41-0.69,3.48,3.48,0,0,1,.66-0.77l0,0,1.94,2.77,0,0a3.46,3.46,0,0,1-.38.21,1.74,1.74,0,0,0-.67.49,2,2,0,0,1-1.92,1.52h0a2.86,2.86,0,0,1-.48,0,1.73,1.73,0,0,0-1.23,1.08l0,0.09-0.07-.06a1.22,1.22,0,0,0-.59-0.32,0.28,0.28,0,0,0-.24.18,0.62,0.62,0,0,0,.16.52l0,0,0,0a0.58,0.58,0,0,1-.27.12h0Zm-0.18-.21a0.31,0.31,0,0,1,.14.08l0,0a0.44,0.44,0,0,0,.17-0.07,0.68,0.68,0,0,1-.15-0.57,0.35,0.35,0,0,1,.24-0.23,1,1,0,0,1,.7.28,1.92,1.92,0,0,1,1.29-1.08,3.39,3.39,0,0,0,.49,0h0a1.9,1.9,0,0,0,1.82-1.44,1.75,1.75,0,0,1,.72-0.56l0.32-.18-1.81-2.59a3.65,3.65,0,0,0-.59.66,1.66,1.66,0,0,1-.46.77,3.51,3.51,0,0,0-.8.84c-0.09.2-.61,1.06-0.63,1.09a3.31,3.31,0,0,1-1,1,1.77,1.77,0,0,0-1.43.57,1.19,1.19,0,0,0,.13,1,0.27,0.27,0,0,0,.17.14l0.29,0.14a0.69,0.69,0,0,0,.24.1l0,0,0.09,0h0Z" transform="translate(-669.49 -1187.7)"/>
      <path d="M690.77,1212.77a0.05,0.05,0,0,1,0,0,1.23,1.23,0,0,1,0-1,0.93,0.93,0,0,1,.59-0.41,0.05,0.05,0,0,1,.06,0,0.05,0.05,0,0,1,0,.06,0.84,0.84,0,0,0-.52.37,1.14,1.14,0,0,0,0,.94,0.05,0.05,0,0,1,0,.06h0Zm2.89-1.54h0a0,0,0,0,1,0-.07,8.32,8.32,0,0,1,.61-0.85l0.05-.07-1.16.24a0.05,0.05,0,0,1,0,0,0,0,0,0,1,0-.05l0.38-1-1,.21a0.05,0.05,0,0,1-.06,0,0.05,0.05,0,0,1,0-.06l1.11-.22a0.05,0.05,0,0,1,.06.07l-0.38,1,1.2-.25c0.06,0.06.06,0.06-.09,0.26a8.72,8.72,0,0,0-.6.84,0.05,0.05,0,0,1,0,0h0Zm1.39-2h0a0.05,0.05,0,0,1,0,0l0.06-.58a0.05,0.05,0,0,1,.06,0,0.05,0.05,0,0,1,0,.06l-0.05.48,0.73-.38a0.05,0.05,0,0,1,.07,0,0.05,0.05,0,0,1,0,.07l-0.81.43h0Zm-1-.19,0,0a0,0,0,0,1,0-.06l0.35-.6a0.05,0.05,0,0,1,.07,0,0.05,0.05,0,0,1,0,.07l-0.27.46,0.62-.29a0.05,0.05,0,0,1,.07,0,0.05,0.05,0,0,1,0,.07l-0.77.35h0Zm0.13-1,0,0a0,0,0,0,1,0-.06l0.24-.49a0,0,0,0,1,.07,0,0.05,0.05,0,0,1,0,.07l-0.18.36,0.54-.23a0,0,0,0,1,.07,0,0.05,0.05,0,0,1,0,.07l-0.66.29h0Z" transform="translate(-669.49 -1187.7)"/>
      <path d="M690.2,1212.54a1.22,1.22,0,0,1,.09-1.07,0.9,0.9,0,0,1,.65-0.33v0.1a0.82,0.82,0,0,0-.57.29,1.13,1.13,0,0,0-.07,1l-0.1,0h0Z" transform="translate(-669.49 -1187.7)"/>
      <path d="M704.67,1213.41a0.06,0.06,0,0,1-.06,0s-0.57-2.19-2.44-2a0.06,0.06,0,0,1-.07-0.05,0.06,0.06,0,0,1,.05-0.07,0.5,0.5,0,0,0,.38-0.26,1,1,0,0,0,0-.7l0.06,0v-0.07s0.09,0,.14.34a0.72,0.72,0,0,1-.23.71c1.73,0.1,2.25,2.11,2.25,2.13a0.06,0.06,0,0,1,0,.08h0Z" transform="translate(-669.49 -1187.7)"/>
      <path d="M699.33,1216.61a0.05,0.05,0,0,1-.05,0c0-.15-0.16-3.59.58-4.18a0.42,0.42,0,0,1,.13-0.07l-0.07-.07a0,0,0,0,1-.05,0l-0.07,0a0.31,0.31,0,0,0-.28,0c-0.79.38-1.14,3.72-1.15,3.76a0.05,0.05,0,0,1-.1,0c0-.14.36-3.43,1.21-3.84l0.15,0a0.86,0.86,0,0,1-.16-0.2h-0.06a6.69,6.69,0,0,0-1.93,3.33,0.06,0.06,0,0,1-.06,0,0.05,0.05,0,0,1,0-.06,6.55,6.55,0,0,1,1.92-3.35,0.75,0.75,0,0,1-.24-0.1c-0.24.15-2.09,1.4-2.23,3a0,0,0,0,1-.05,0,0.05,0.05,0,0,1,0-.05c0.13-1.53,1.85-2.76,2.25-3a0.55,0.55,0,0,1-.09-0.12h0a0.47,0.47,0,0,1-.23-0.07h0s-2.33,1.37-2.23,2.57a0,0,0,0,1,0,.05,0,0,0,0,1-.05,0c-0.1-1.2,2-2.48,2.25-2.65l0,0,0-.07,0,0a0.54,0.54,0,0,1-.38-0.15h0a2.9,2.9,0,0,0-2.15,2.18,0.05,0.05,0,0,1-.06,0,0.05,0.05,0,0,1,0-.06,3,3,0,0,1,2.2-2.25,1.34,1.34,0,0,1-.08-0.88c0-.06.1-0.06,0.1,0v0a1.17,1.17,0,0,0,.09.85,0.42,0.42,0,0,0,.33.15,1.3,1.3,0,0,1,0-.63c0-.06.11-0.07,0.11,0v0a0.9,0.9,0,0,0,.08.71,0.33,0.33,0,0,0,.25.12,1,1,0,0,1,0-.63,0.06,0.06,0,0,1,.07,0,0.05,0.05,0,0,1,0,.07,0.84,0.84,0,0,0,0,.64,0.45,0.45,0,0,0,.11.12h0a0.71,0.71,0,0,0,.31.12,1,1,0,0,1-.06-0.6,0.05,0.05,0,0,1,.06,0,0.05,0.05,0,0,1,0,.06,0.84,0.84,0,0,0,.41.91,1.07,1.07,0,0,1,0-.66,0,0,0,0,1,.06,0,0.05,0.05,0,0,1,0,.06,0.94,0.94,0,0,0,0,.62,0.39,0.39,0,0,0,.25.19h0l0,0,0.09,0a0.71,0.71,0,0,0,.29-0.8,0.05,0.05,0,0,1,0-.06,0.05,0.05,0,0,1,.06,0,0.91,0.91,0,0,1-.19.82,0.36,0.36,0,0,1,.13.05c0.78,0.5.62,4.12,0.62,4.27a0,0,0,0,1-.05,0,0.05,0.05,0,0,1,0-.05s0.16-3.71-.57-4.18a0.28,0.28,0,0,0-.24,0l-0.09,0h0a0.05,0.05,0,0,1-.06,0h0a0.29,0.29,0,0,0-.26.06c-0.7.56-.54,4.06-0.54,4.1a0.05,0.05,0,0,1,0,.05h0Zm3-.66a0.05,0.05,0,0,1-.05,0s-0.37-3.71-1.46-3.82a0.05,0.05,0,0,1,0-.1,0.44,0.44,0,0,0,.3-0.24,0.71,0.71,0,0,0-.05-0.51,0,0,0,0,1,0-.07,0.05,0.05,0,0,1,.07,0,0.81,0.81,0,0,1,.06.57h0l0,0h0.06a0.71,0.71,0,0,0,.37-0.9c0-.05.1-0.08,0.1,0a1.27,1.27,0,0,1,0,.63,0.86,0.86,0,0,0,.35-0.92,0.05,0.05,0,0,1,0-.06,0,0,0,0,1,.06,0,1,1,0,0,1-.32,1,3.63,3.63,0,0,1,2.44,2.58,0.05,0.05,0,0,1,0,.06,0,0,0,0,1-.06,0,3.5,3.5,0,0,0-2.48-2.53l0,0a0.6,0.6,0,0,1-.16.21c1.2,0.13,2.31,2.81,2.36,2.94a0.05,0.05,0,0,1,0,.07,0,0,0,0,1-.07,0s-1.3-3.11-2.49-2.86h0c0.42,0.43,1.94,2.05,1.93,3.33a0.05,0.05,0,0,1-.05,0h0a0.05,0.05,0,0,1-.05-0.05c0-1.33-1.78-3.13-2-3.34a0.5,0.5,0,0,1-.18.16c1,0.41,1.38,3.73,1.4,3.88a0.05,0.05,0,0,1,0,.05h0Z" transform="translate(-669.49 -1187.7)"/>
      <path d="M700.27,1211.66h0a10.65,10.65,0,0,1-6-12.59l0-.06,0.05,0a7.4,7.4,0,0,0,2.79.88h0.09a11.24,11.24,0,0,0,3-.83,6.5,6.5,0,0,0,3,.78,15,15,0,0,0,3.13-.83l0.06,0v0.06a11,11,0,0,1-6.11,12.58h0Zm-5.93-12.51a10.55,10.55,0,0,0,5.93,12.39,10.93,10.93,0,0,0,6-12.4,14.59,14.59,0,0,1-3.1.82,6.28,6.28,0,0,1-3-.79,10.2,10.2,0,0,1-3,.84h-0.1a7.2,7.2,0,0,1-2.79-.87h0Z" transform="translate(-669.49 -1187.7)"/>
      <path class="h" d="M694.31,1199.08a7.18,7.18,0,0,0,2.92.89,11.21,11.21,0,0,0,3-.84,6.14,6.14,0,0,0,2.94.79,14.85,14.85,0,0,0,3.14-.84,11,11,0,0,1-6.08,12.53,10.62,10.62,0,0,1-6-12.53h0Z" transform="translate(-669.49 -1187.7)"/>
      <path d="M700.27,1211.68h0a10.66,10.66,0,0,1-6-12.6l0-.08,0.07,0a7.38,7.38,0,0,0,2.79.88h0.09a11.28,11.28,0,0,0,3-.83,6.78,6.78,0,0,0,3,.78,14.73,14.73,0,0,0,3.13-.83l0.07,0v0.08a11,11,0,0,1-6.12,12.6h0Zm-5.92-12.5a10.54,10.54,0,0,0,5.92,12.36,10.92,10.92,0,0,0,6-12.37,14.51,14.51,0,0,1-3.09.81,6.08,6.08,0,0,1-3-.79,9.79,9.79,0,0,1-3,.85h-0.1a7.15,7.15,0,0,1-2.78-.86h0Z" transform="translate(-669.49 -1187.7)"/>
      <path class="i" d="M694.31,1199.08a9.23,9.23,0,0,0,1,.46,5.08,5.08,0,0,0,1.91.43,11.21,11.21,0,0,0,3-.84,6.14,6.14,0,0,0,2.94.79,14.85,14.85,0,0,0,3.14-.84,10.56,10.56,0,0,1,.16,4L694,1203a8.07,8.07,0,0,1,.34-3.88h0Z" transform="translate(-669.49 -1187.7)"/>
      <path d="M706.57,1203.1h-0.06l-12.6-.07V1203a8.11,8.11,0,0,1,.34-3.91l0-.08,0.07,0a9.36,9.36,0,0,0,1,.46,5.19,5.19,0,0,0,1.79.42h0.09a11.28,11.28,0,0,0,3-.83,6.78,6.78,0,0,0,3,.78,14.73,14.73,0,0,0,3.13-.83l0.07,0v0.08a10.6,10.6,0,0,1,.17,4v0.05h0Zm-12.54-.2,12.43,0.07a10.32,10.32,0,0,0-.16-3.8,14.47,14.47,0,0,1-3.09.81,6.08,6.08,0,0,1-3-.79,9.79,9.79,0,0,1-3,.85h-0.1a5.2,5.2,0,0,1-1.84-.43,10.13,10.13,0,0,1-.94-0.43,7.88,7.88,0,0,0-.32,3.72h0Z" transform="translate(-669.49 -1187.7)"/>
      <polygon class="j" points="25.27 15.32 25.26 18.29 26.09 19.77 26.08 15.32 25.27 15.32"/>
      <polygon class="j" points="27.35 15.33 27.36 21.45 28.17 22.18 28.16 15.33 27.35 15.33"/>
      <polygon class="j" points="29.39 15.36 29.39 23.14 30.2 23.59 30.2 15.36 29.39 15.36"/>
      <polygon class="j" points="36.4 15.39 36.42 17.93 35.65 19.49 35.59 15.39 36.4 15.39"/>
      <polygon class="j" points="34.39 15.37 34.37 21.27 33.57 22.02 33.58 15.37 34.39 15.37"/>
      <polygon class="j" points="32.28 15.37 32.29 23.05 31.46 23.56 31.47 15.37 32.28 15.37"/>
      <path d="M700.27,1211.66h0a10.65,10.65,0,0,1-6-12.59l0-.06,0.05,0a7.4,7.4,0,0,0,2.79.88h0.09a11.24,11.24,0,0,0,3-.83,6.5,6.5,0,0,0,3,.78,15,15,0,0,0,3.13-.83l0.06,0v0.06a11,11,0,0,1-6.11,12.58h0Zm-5.93-12.51a10.55,10.55,0,0,0,5.93,12.39,10.93,10.93,0,0,0,6-12.4,14.59,14.59,0,0,1-3.1.82,6.28,6.28,0,0,1-3-.79,10.2,10.2,0,0,1-3,.84h-0.1a7.2,7.2,0,0,1-2.79-.87h0Z" transform="translate(-669.49 -1187.7)"/>
    </g>
  </g>
</svg>
