<svg xmlns="http://www.w3.org/2000/svg" xmlns:xlink="http://www.w3.org/1999/xlink" viewBox="0 0 58.92 34.37">
  <defs>
    <style>
      .a {
        fill: none;
      }

      .b {
        clip-path: url(#a);
      }

      .c {
        fill: #120065;
      }

      .d {
        fill: #fff;
      }

      .e {
        fill: #28632e;
      }

      .f {
        fill: #edc526;
      }

      .g {
        clip-path: url(#c);
      }

      .h {
        fill: url(#d);
      }

      .i {
        clip-path: url(#f);
      }

      .j {
        fill: url(#g);
      }

      .k {
        clip-path: url(#i);
      }

      .l {
        fill: url(#j);
      }

      .m {
        clip-path: url(#l);
      }

      .n {
        fill: url(#m);
      }

      .o {
        clip-path: url(#o);
      }

      .p {
        fill: url(#p);
      }

      .q {
        clip-path: url(#r);
      }

      .r {
        fill: url(#s);
      }

      .s {
        clip-path: url(#u);
      }

      .t {
        fill: url(#v);
      }

      .u {
        clip-path: url(#x);
      }

      .v {
        fill: url(#y);
      }

      .w {
        clip-path: url(#aa);
      }

      .x {
        fill: url(#ab);
      }

      .y {
        clip-path: url(#ad);
      }

      .z {
        fill: url(#ae);
      }

      .aa {
        clip-path: url(#ag);
      }

      .ab {
        fill: url(#ah);
      }

      .ac {
        clip-path: url(#aj);
      }

      .ad {
        fill: url(#ak);
      }

      .ae {
        fill: #f5c3b4;
      }

      .af {
        fill: #905115;
      }

      .ag {
        fill: #ba0019;
      }
    </style>
    <clipPath id="a" transform="translate(-598.8 -1187.7)">
      <rect class="a" x="598.8" y="1187.7" width="58.92" height="34.37"/>
    </clipPath>
    <clipPath id="c" transform="translate(-598.8 -1187.7)">
      <path class="a" d="M638.59,1207.56a1.06,1.06,0,0,1,.11.35,0.77,0.77,0,0,1,0,.23h0.22c0-.16.09-0.19,0.16-0.39s-0.16-.18-0.11-0.31a0.25,0.25,0,0,0-.12-0.38,2.29,2.29,0,0,1-.22.51"/>
    </clipPath>
    <linearGradient id="d" x1="-348.78" y1="823.98" x2="-348.73" y2="823.98" gradientTransform="matrix(-9.04, -6.81, 3.01, -20.43, -5594.16, 14479.07)" gradientUnits="userSpaceOnUse">
      <stop offset="0" stop-color="#ea0020"/>
      <stop offset="1" stop-color="#fcff2c"/>
    </linearGradient>
    <clipPath id="f" transform="translate(-598.8 -1187.7)">
      <path class="a" d="M638.55,1205.45a1,1,0,0,1,.11.34,0.74,0.74,0,0,1,0,.23h0.22c0-.16.1-0.19,0.16-0.39a2.87,2.87,0,0,1-.11-0.31,0.25,0.25,0,0,0-.12-0.38,2.33,2.33,0,0,1-.22.51"/>
    </clipPath>
    <linearGradient id="g" x1="-349.35" y1="822.46" x2="-349.3" y2="822.46" gradientTransform="matrix(-9.04, -6.81, 3.01, -20.43, -5594.78, 14442.04)" xlink:href="#d"/>
    <clipPath id="i" transform="translate(-598.8 -1187.7)">
      <path class="a" d="M646,1203.52a1.07,1.07,0,0,1,.11.35,0.76,0.76,0,0,1,0,.23h0.22c0-.16.09-0.19,0.16-0.4a3.12,3.12,0,0,1-.11-0.3,0.25,0.25,0,0,0-.12-0.38,2.28,2.28,0,0,1-.22.51"/>
    </clipPath>
    <linearGradient id="j" x1="-337.86" y1="817.08" x2="-337.8" y2="817.08" gradientTransform="matrix(-9.04, -6.81, 3.01, -20.43, -5467.02, 14407.68)" xlink:href="#d"/>
    <clipPath id="l" transform="translate(-598.8 -1187.7)">
      <path class="a" d="M638.72,1201.46a1.12,1.12,0,0,1,.11.35,0.78,0.78,0,0,1,0,.23H639c0-.16.1-0.19,0.16-0.4a2.46,2.46,0,0,1-.11-0.3,0.25,0.25,0,0,0-.12-0.38,2.28,2.28,0,0,1-.22.51"/>
    </clipPath>
    <linearGradient id="m" x1="-350" y1="819.52" x2="-349.94" y2="819.52" gradientTransform="matrix(-9.04, -6.81, 3.01, -20.43, -5592.09, 14375.01)" xlink:href="#d"/>
    <clipPath id="o" transform="translate(-598.8 -1187.7)">
      <path class="a" d="M638.74,1199.44a1.07,1.07,0,0,1,.11.35,0.84,0.84,0,0,1,0,.23H639a3.61,3.61,0,0,1,.16-0.4,3.1,3.1,0,0,1-.11-0.31,0.26,0.26,0,0,0-.12-0.38,2.33,2.33,0,0,1-.22.51"/>
    </clipPath>
    <linearGradient id="p" x1="-350.48" y1="818.08" x2="-350.42" y2="818.08" gradientTransform="matrix(-9.04, -6.81, 3.01, -20.43, -5591.78, 14339.58)" xlink:href="#d"/>
    <clipPath id="r" transform="translate(-598.8 -1187.7)">
      <path class="a" d="M638.77,1197.38a1.09,1.09,0,0,1,.11.35,0.83,0.83,0,0,1,0,.23h0.22a3.89,3.89,0,0,1,.16-0.4,2.36,2.36,0,0,1-.11-0.31,0.25,0.25,0,0,0-.12-0.38,2.32,2.32,0,0,1-.22.51"/>
    </clipPath>
    <linearGradient id="s" x1="-350.93" y1="816.58" x2="-350.87" y2="816.58" gradientTransform="matrix(-9.04, -6.81, 3.01, -20.44, -5592.22, 14306.03)" xlink:href="#d"/>
    <clipPath id="u" transform="translate(-598.8 -1187.7)">
      <path class="a" d="M646,1197.41a1.12,1.12,0,0,1,.11.35,0.87,0.87,0,0,1,0,.23h0.22a4.09,4.09,0,0,1,.16-0.4,2.83,2.83,0,0,1-.11-0.3,0.25,0.25,0,0,0-.12-0.38,2.32,2.32,0,0,1-.22.51"/>
    </clipPath>
    <linearGradient id="v" x1="-339.19" y1="812.66" x2="-339.13" y2="812.66" gradientTransform="matrix(-9.04, -6.81, 3.01, -20.44, -5467.11, 14305.95)" xlink:href="#d"/>
    <clipPath id="x" transform="translate(-598.8 -1187.7)">
      <path class="a" d="M646,1199.43a1.05,1.05,0,0,1,.11.34,0.83,0.83,0,0,1,0,.23h0.22c0-.16.09-0.19,0.16-0.4s-0.16-.18-0.11-0.31a0.25,0.25,0,0,0-.12-0.38,2.38,2.38,0,0,1-.22.51"/>
    </clipPath>
    <linearGradient id="y" x1="-338.85" y1="814.17" x2="-338.79" y2="814.17" gradientTransform="matrix(-9.04, -6.81, 3.01, -20.44, -5468.29, 14340.45)" xlink:href="#d"/>
    <clipPath id="aa" transform="translate(-598.8 -1187.7)">
      <path class="a" d="M645.89,1201.49a1.12,1.12,0,0,1,.11.34,0.81,0.81,0,0,1,0,.23h0.22a4.13,4.13,0,0,1,.16-0.39,2.76,2.76,0,0,1-.11-0.31,0.26,0.26,0,0,0-.12-0.38,2.34,2.34,0,0,1-.22.51"/>
    </clipPath>
    <linearGradient id="ab" x1="-338.47" y1="815.68" x2="-338.42" y2="815.68" gradientTransform="matrix(-9.04, -6.81, 3.01, -20.44, -5469.87, 14376.53)" xlink:href="#d"/>
    <clipPath id="ad" transform="translate(-598.8 -1187.7)">
      <path class="a" d="M646,1207.59a1.07,1.07,0,0,1,.11.35,0.8,0.8,0,0,1,0,.23h0.22c0-.16.09-0.19,0.16-0.39s-0.16-.18-0.11-0.31a0.25,0.25,0,0,0-.12-0.38,2.32,2.32,0,0,1-.22.51"/>
    </clipPath>
    <linearGradient id="ae" x1="-336.83" y1="819.96" x2="-336.77" y2="819.96" gradientTransform="matrix(-9.04, -6.81, 3.01, -20.44, -5467.77, 14481.47)" xlink:href="#d"/>
    <clipPath id="ag" transform="translate(-598.8 -1187.7)">
      <path class="a" d="M646,1205.55a1.15,1.15,0,0,1,.11.35,0.83,0.83,0,0,1,0,.23h0.22a4.14,4.14,0,0,1,.16-0.39,2.84,2.84,0,0,1-.11-0.31,0.25,0.25,0,0,0-.12-0.38,2.32,2.32,0,0,1-.22.51"/>
    </clipPath>
    <linearGradient id="ah" x1="-337.33" y1="818.53" x2="-337.27" y2="818.53" gradientTransform="matrix(-9.04, -6.81, 3.01, -20.43, -5467.47, 14445.09)" xlink:href="#d"/>
    <clipPath id="aj" transform="translate(-598.8 -1187.7)">
      <path class="a" d="M640,1203.65a1.07,1.07,0,0,1,.11.35,0.77,0.77,0,0,1,0,.23h0.22c0-.16.09-0.19,0.16-0.4a3.08,3.08,0,0,1-.11-0.3,0.25,0.25,0,0,0-.12-0.38,2.32,2.32,0,0,1-.22.51"/>
    </clipPath>
    <linearGradient id="ak" x1="-347.33" y1="820.37" x2="-347.27" y2="820.37" gradientTransform="matrix(-9.04, -6.81, 3.01, -20.43, -5569.28, 14412.84)" xlink:href="#d"/>
  </defs>
  <title>Virgin_Islands-UK</title>
  <g class="b">
    <rect class="c" width="58.92" height="34.37"/>
    <g class="b">
      <path class="d" d="M637.41,1196.08l12.45,0,0,11.09s0.44,1.69-5.22,4.25c2-.21,4.25-2.38,4.25-2.38s0.9-1.15,1.34-.51a4.94,4.94,0,0,0,1.18,1.22,1,1,0,0,1,.09,1.46c-0.48.51-1.25,0.58-1.45,0a9.55,9.55,0,0,1-6.38,2.68,9,9,0,0,1-6.4-2.7,0.85,0.85,0,0,1-1.34.19,1.05,1.05,0,0,1-.19-1.48,3.71,3.71,0,0,0,.83-0.62,1.3,1.3,0,0,1,.9-0.81,1,1,0,0,1,.83.53s2.08,2.19,4.32,2.47c-5.06-2.43-5.25-3.93-5.22-4.3Z" transform="translate(-598.8 -1187.7)"/>
      <path class="e" d="M637.71,1196.38l11.88-.07V1207c0,1.39-2.31,2.79-6,4.6-3.77-1.94-5.94-3.12-6-4.62Z" transform="translate(-598.8 -1187.7)"/>
      <path d="M643.62,1211.62h0c-3.8-2-6-3.14-6-4.65l0-10.58,11.91-.11,0,10.71c0,1.38-2.27,2.8-6,4.63h0Zm5.92-15.31-11.84.11V1207c0,1.46,2.16,2.64,5.92,4.58,3.67-1.81,5.95-3.21,5.92-4.55v-10.68h0Z" transform="translate(-598.8 -1187.7)"/>
      <polygon class="f" points="40.36 20.45 40.31 20.42 41.01 19.39 41.77 20.42 41.01 19.43 40.36 20.45 40.36 20.45"/>
      <path class="f" d="M640,1207.75a0.14,0.14,0,1,1-.14-0.14,0.14,0.14,0,0,1,.14.14h0Z" transform="translate(-598.8 -1187.7)"/>
      <path d="M639.84,1207.91a0.16,0.16,0,0,1-.16-0.16c0-.17.31-0.17,0.31,0a0.16,0.16,0,0,1-.16.16h0Zm0-.28a0.12,0.12,0,0,0-.12.12c0,0.13.24,0.13,0.24,0a0.12,0.12,0,0,0-.12-0.12h0Z" transform="translate(-598.8 -1187.7)"/>
      <path class="f" d="M639.27,1208.9h1.09a0.25,0.25,0,0,0-.11-0.23c0.57-.08.42-0.58,0.9-0.61a0.5,0.5,0,0,1-.25.21s-0.29.21-.16,0.31,0.15-.05.16-0.15,0.46-.16.4-0.45-0.73.16-.73,0.16h-0.45a0.46,0.46,0,0,0-.28-0.25,0.42,0.42,0,0,0-.26.25h-1s0,0.26.48,0.31a0.61,0.61,0,0,0,.31.23,0.25,0.25,0,0,0-.09.21h0Z" transform="translate(-598.8 -1187.7)"/>
      <path d="M640.37,1208.92h-1.1a0.24,0.24,0,0,1,.07-0.25,0.41,0.41,0,0,1-.31-0.21,0.58,0.58,0,0,1-.43-0.17,0.21,0.21,0,0,1-.05-0.15l1,0a0.37,0.37,0,0,1,.26-0.25,0.5,0.5,0,0,1,.29.26h0.43s0.65-.36.75-0.14a0.35,0.35,0,0,1-.27.37,0.27,0.27,0,0,0-.12.09,0.2,0.2,0,0,1-.12.19l-0.07,0a0.09,0.09,0,0,1,0-.08,0.47,0.47,0,0,1,.2-0.25,1,1,0,0,0,.26-0.19,0.48,0.48,0,0,0-.39.27,0.65,0.65,0,0,1-.5.35,0.2,0.2,0,0,1,.13.21v0h0Zm-1.79-.76a0.44,0.44,0,0,0,.05.11,0.57,0.57,0,0,0,.41.16,0.65,0.65,0,0,0,.31.23,0.37,0.37,0,0,0-.07.23h1.05a0.23,0.23,0,0,0-.11-0.19,0.74,0.74,0,0,0,.49-0.36,0.49,0.49,0,0,1,.42-0.28c0,0.07-.11.17-0.24,0.25a0.44,0.44,0,0,0-.18.22l0,0.07h0.06a0.17,0.17,0,0,0,.08-0.16,0.24,0.24,0,0,1,.14-0.12,0.32,0.32,0,0,0,.25-0.32,1,1,0,0,0-.7.17h-0.46a0.51,0.51,0,0,0-.28-0.25,0.41,0.41,0,0,0-.24.24h-1Z" transform="translate(-598.8 -1187.7)"/>
      <polygon points="40.55 21 40.55 20.96 41.45 20.95 40.55 21 40.55 21"/>
      <path d="M639.34,1208.65a0.62,0.62,0,0,1-.43-0.5h0a0.68,0.68,0,0,0,.39.51h0Z" transform="translate(-598.8 -1187.7)"/>
    </g>
    <g class="g">
      <polygon class="h" points="40.39 19.46 39.83 19.04 39.64 20.33 40.2 20.75 40.39 19.46"/>
    </g>
    <g class="b">
      <path d="M638.89,1208.16h-0.24a0.19,0.19,0,0,1,0-.13,0.19,0.19,0,0,0,0-.12,0.25,0.25,0,0,0-.06-0.21,0.2,0.2,0,0,1-.05-0.14,0.44,0.44,0,0,1,.11-0.22,0.41,0.41,0,0,0,.11-0.28,0.25,0.25,0,0,1,.16.38,0.08,0.08,0,0,0,0,.1,0.23,0.23,0,0,1,.08.2,1.13,1.13,0,0,1-.09.21,0.63,0.63,0,0,0-.07.19v0h0Zm-0.1-1.08a0.3,0.3,0,0,1-.09.29,0.42,0.42,0,0,0-.1.2,0.16,0.16,0,0,0,0,.12,0.28,0.28,0,0,1,.06.23,0.21,0.21,0,0,1,0,.13,0.23,0.23,0,0,0,0,.1l0.19,0a0.71,0.71,0,0,1,.07-0.18,1,1,0,0,0,.09-0.2,0.19,0.19,0,0,0-.07-0.17,0.12,0.12,0,0,1,0-.14,0.24,0.24,0,0,0-.12-0.36h0Z" transform="translate(-598.8 -1187.7)"/>
      <path class="f" d="M640,1207.14a0.13,0.13,0,1,1-.13-0.13,0.13,0.13,0,0,1,.13.13h0Z" transform="translate(-598.8 -1187.7)"/>
      <path d="M639.84,1207.28a0.15,0.15,0,0,1-.15-0.14c0-.16.29-0.16,0.29,0a0.15,0.15,0,0,1-.15.14h0Zm0-.26a0.11,0.11,0,0,0-.11.11c0,0.12.22,0.12,0.22,0a0.11,0.11,0,0,0-.11-0.11h0Z" transform="translate(-598.8 -1187.7)"/>
      <polygon class="f" points="40.32 18.33 40.27 18.3 40.98 17.27 41.73 18.3 40.98 17.3 40.32 18.33 40.32 18.33"/>
      <path class="f" d="M639.94,1205.63a0.14,0.14,0,1,1-.14-0.14,0.14,0.14,0,0,1,.14.14h0Z" transform="translate(-598.8 -1187.7)"/>
      <path d="M639.8,1205.79a0.16,0.16,0,0,1-.16-0.16c0-.17.31-0.17,0.31,0a0.16,0.16,0,0,1-.16.16h0Zm0-.28a0.12,0.12,0,0,0-.12.12c0,0.13.24,0.13,0.24,0a0.12,0.12,0,0,0-.12-0.12h0Z" transform="translate(-598.8 -1187.7)"/>
      <path class="f" d="M639.23,1206.78h1.09a0.25,0.25,0,0,0-.11-0.23c0.57-.08.42-0.58,0.9-0.61a0.51,0.51,0,0,1-.25.21s-0.29.2-.16,0.31,0.15-.05.16-0.15,0.46-.16.4-0.45-0.73.16-.73,0.16h-0.45a0.47,0.47,0,0,0-.28-0.25,0.43,0.43,0,0,0-.26.26h-1s0,0.26.48,0.31a0.6,0.6,0,0,0,.31.23,0.25,0.25,0,0,0-.09.21h0Z" transform="translate(-598.8 -1187.7)"/>
      <path d="M640.33,1206.8h-1.1a0.23,0.23,0,0,1,.07-0.25,0.43,0.43,0,0,1-.31-0.21,0.58,0.58,0,0,1-.43-0.17,0.21,0.21,0,0,1-.05-0.15l1,0a0.37,0.37,0,0,1,.26-0.25,0.49,0.49,0,0,1,.29.26h0.43s0.65-.36.75-0.14a0.36,0.36,0,0,1-.27.37,0.27,0.27,0,0,0-.12.09,0.2,0.2,0,0,1-.12.19l-0.07,0a0.09,0.09,0,0,1,0-.08,0.49,0.49,0,0,1,.2-0.25,1,1,0,0,0,.26-0.19,0.48,0.48,0,0,0-.39.27,0.65,0.65,0,0,1-.5.34,0.2,0.2,0,0,1,.13.21v0h0Zm-1.79-.76a0.38,0.38,0,0,0,.06.11,0.58,0.58,0,0,0,.41.16,0.66,0.66,0,0,0,.31.23,0.38,0.38,0,0,0-.07.23l1,0a0.23,0.23,0,0,0-.11-0.19,0.73,0.73,0,0,0,.49-0.36,0.5,0.5,0,0,1,.42-0.28c0,0.07-.11.17-0.24,0.25a0.45,0.45,0,0,0-.18.22l0,0.07h0.06a0.17,0.17,0,0,0,.08-0.16,0.24,0.24,0,0,1,.14-0.12,0.32,0.32,0,0,0,.25-0.32,1,1,0,0,0-.71.17h-0.46a0.5,0.5,0,0,0-.28-0.25,0.41,0.41,0,0,0-.24.24h-1Z" transform="translate(-598.8 -1187.7)"/>
      <polygon points="40.51 18.88 40.51 18.84 41.41 18.84 40.51 18.88 40.51 18.88"/>
      <path d="M639.3,1206.53a0.62,0.62,0,0,1-.43-0.5h0a0.69,0.69,0,0,0,.39.51h0Z" transform="translate(-598.8 -1187.7)"/>
    </g>
    <g class="i">
      <polygon class="j" points="40.35 17.35 39.79 16.93 39.6 18.21 40.16 18.63 40.35 17.35"/>
    </g>
    <g class="b">
      <path d="M638.85,1206h-0.24a0.18,0.18,0,0,1,0-.13,0.18,0.18,0,0,0,0-.12,0.25,0.25,0,0,0-.06-0.21,0.19,0.19,0,0,1-.06-0.14,0.44,0.44,0,0,1,.11-0.22,0.42,0.42,0,0,0,.11-0.28,0.25,0.25,0,0,1,.16.39,0.08,0.08,0,0,0,0,.1,0.23,0.23,0,0,1,.08.2,1.1,1.1,0,0,1-.09.21,0.59,0.59,0,0,0-.07.18h0Zm-0.1-1.08a0.29,0.29,0,0,1-.09.29,0.43,0.43,0,0,0-.1.21,0.16,0.16,0,0,0,0,.12,0.28,0.28,0,0,1,.07.23,0.22,0.22,0,0,1,0,.13,0.22,0.22,0,0,0,0,.1l0.19,0a0.7,0.7,0,0,1,.07-0.18,1.13,1.13,0,0,0,.09-0.2,0.19,0.19,0,0,0-.07-0.17,0.12,0.12,0,0,1,0-.14,0.24,0.24,0,0,0-.12-0.36h0Z" transform="translate(-598.8 -1187.7)"/>
      <path class="f" d="M639.93,1205a0.13,0.13,0,1,1-.13-0.13,0.13,0.13,0,0,1,.13.13h0Z" transform="translate(-598.8 -1187.7)"/>
      <path d="M639.8,1205.16a0.15,0.15,0,0,1-.15-0.15c0-.16.29-0.16,0.29,0a0.15,0.15,0,0,1-.15.15h0Zm0-.26a0.11,0.11,0,0,0-.11.11c0,0.12.22,0.12,0.22,0a0.11,0.11,0,0,0-.11-0.11h0Z" transform="translate(-598.8 -1187.7)"/>
      <polygon class="f" points="47.77 16.41 47.72 16.38 48.42 15.35 49.18 16.38 48.42 15.38 47.77 16.41 47.77 16.41"/>
      <path class="f" d="M647.38,1203.71a0.14,0.14,0,1,1-.14-0.14,0.14,0.14,0,0,1,.14.14h0Z" transform="translate(-598.8 -1187.7)"/>
      <path d="M647.25,1203.87a0.16,0.16,0,0,1-.16-0.16c0-.17.31-0.17,0.31,0a0.16,0.16,0,0,1-.16.16h0Zm0-.28a0.12,0.12,0,0,0-.12.12,0.12,0.12,0,0,0,.24,0,0.12,0.12,0,0,0-.12-0.12h0Z" transform="translate(-598.8 -1187.7)"/>
      <path class="f" d="M646.67,1204.85h1.09a0.25,0.25,0,0,0-.12-0.22c0.57-.08.42-0.58,0.9-0.61a0.5,0.5,0,0,1-.25.21s-0.29.2-.16,0.31,0.15-.05.16-0.15,0.46-.16.4-0.45-0.73.16-.73,0.16h-0.45a0.48,0.48,0,0,0-.28-0.25,0.43,0.43,0,0,0-.26.26h-1s0,0.26.48,0.31a0.62,0.62,0,0,0,.31.23,0.25,0.25,0,0,0-.09.21h0Z" transform="translate(-598.8 -1187.7)"/>
      <path d="M647.78,1204.88h-1.1a0.23,0.23,0,0,1,.07-0.25,0.42,0.42,0,0,1-.31-0.21,0.59,0.59,0,0,1-.43-0.17,0.21,0.21,0,0,1-.05-0.15l1,0a0.37,0.37,0,0,1,.26-0.25,0.48,0.48,0,0,1,.29.26H648s0.65-.36.75-0.14a0.35,0.35,0,0,1-.27.37,0.26,0.26,0,0,0-.12.09,0.19,0.19,0,0,1-.12.19l-0.07,0a0.09,0.09,0,0,1,0-.08,0.48,0.48,0,0,1,.2-0.25,1,1,0,0,0,.26-0.19,0.48,0.48,0,0,0-.39.27,0.65,0.65,0,0,1-.5.34,0.2,0.2,0,0,1,.13.21v0h0Zm-1.79-.76a0.42,0.42,0,0,0,.05.11,0.57,0.57,0,0,0,.42.17,0.66,0.66,0,0,0,.31.23,0.37,0.37,0,0,0-.07.23l1.05,0a0.23,0.23,0,0,0-.11-0.19,0.73,0.73,0,0,0,.49-0.36,0.5,0.5,0,0,1,.42-0.28c0,0.07-.11.17-0.24,0.25a0.44,0.44,0,0,0-.18.22l0,0.07h0.06a0.17,0.17,0,0,0,.08-0.16,0.24,0.24,0,0,1,.14-0.12,0.32,0.32,0,0,0,.25-0.32,1,1,0,0,0-.7.17h-0.46a0.5,0.5,0,0,0-.28-0.25,0.41,0.41,0,0,0-.24.24h-1Z" transform="translate(-598.8 -1187.7)"/>
      <polygon points="47.95 16.95 47.95 16.91 48.86 16.91 47.95 16.95 47.95 16.95"/>
      <path d="M646.75,1204.61a0.63,0.63,0,0,1-.43-0.5h0a0.68,0.68,0,0,0,.39.51h0Z" transform="translate(-598.8 -1187.7)"/>
    </g>
    <g class="k">
      <polygon class="l" points="47.8 15.42 47.24 15 47.05 16.29 47.61 16.71 47.8 15.42"/>
    </g>
    <g class="b">
      <path d="M646.3,1204.11h-0.24a0.19,0.19,0,0,1,0-.13,0.17,0.17,0,0,0,0-.11,0.25,0.25,0,0,0-.06-0.21,0.2,0.2,0,0,1-.05-0.14,0.46,0.46,0,0,1,.1-0.22,0.4,0.4,0,0,0,.11-0.28,0.27,0.27,0,0,1,.2.19,0.26,0.26,0,0,1,0,.2,0.08,0.08,0,0,0,0,.1,0.23,0.23,0,0,1,.08.2,1.08,1.08,0,0,1-.09.21,0.59,0.59,0,0,0-.07.19h0Zm-0.1-1.08a0.29,0.29,0,0,1-.09.29,0.43,0.43,0,0,0-.1.2,0.16,0.16,0,0,0,0,.12,0.28,0.28,0,0,1,.06.23,0.21,0.21,0,0,1,0,.13,0.24,0.24,0,0,0,0,.1l0.19,0a0.69,0.69,0,0,1,.07-0.18,1.08,1.08,0,0,0,.09-0.2,0.19,0.19,0,0,0-.07-0.17,0.11,0.11,0,0,1,0-.14,0.22,0.22,0,0,0,0-.17,0.31,0.31,0,0,0-.15-0.18h0Z" transform="translate(-598.8 -1187.7)"/>
      <path class="f" d="M647.37,1203.09a0.13,0.13,0,1,1-.13-0.13,0.13,0.13,0,0,1,.13.13h0Z" transform="translate(-598.8 -1187.7)"/>
      <path d="M647.25,1203.24a0.15,0.15,0,0,1-.15-0.15c0-.16.29-0.16,0.29,0a0.15,0.15,0,0,1-.15.15h0Zm0-.26a0.11,0.11,0,0,0-.11.11c0,0.12.22,0.12,0.22,0a0.11,0.11,0,0,0-.11-0.11h0Z" transform="translate(-598.8 -1187.7)"/>
      <polygon class="f" points="40.5 14.35 40.45 14.32 41.15 13.29 41.9 14.32 41.15 13.32 40.5 14.35 40.5 14.35"/>
      <path class="f" d="M640.11,1201.65a0.14,0.14,0,1,1-.14-0.14,0.14,0.14,0,0,1,.14.14h0Z" transform="translate(-598.8 -1187.7)"/>
      <path d="M640,1201.8a0.16,0.16,0,0,1-.16-0.16c0-.17.31-0.17,0.31,0a0.16,0.16,0,0,1-.16.16h0Zm0-.28a0.12,0.12,0,0,0-.12.12c0,0.14.24,0.14,0.24,0a0.12,0.12,0,0,0-.12-0.12h0Z" transform="translate(-598.8 -1187.7)"/>
      <path class="f" d="M639.4,1202.79h1.09a0.25,0.25,0,0,0-.11-0.23c0.57-.08.42-0.58,0.9-0.61a0.51,0.51,0,0,1-.25.21s-0.29.2-.16,0.31,0.15-.05.16-0.15,0.46-.16.4-0.45-0.73.16-.73,0.16h-0.45a0.47,0.47,0,0,0-.28-0.25,0.42,0.42,0,0,0-.26.25h-1s0,0.26.48,0.31a0.63,0.63,0,0,0,.31.23,0.25,0.25,0,0,0-.09.21h0Z" transform="translate(-598.8 -1187.7)"/>
      <path d="M640.5,1202.82h-1.1a0.24,0.24,0,0,1,.07-0.25,0.41,0.41,0,0,1-.31-0.21,0.59,0.59,0,0,1-.43-0.17,0.22,0.22,0,0,1-.05-0.15l1,0a0.37,0.37,0,0,1,.26-0.25,0.48,0.48,0,0,1,.29.26h0.43a1.51,1.51,0,0,1,.59-0.23,0.16,0.16,0,0,1,.16.09,0.36,0.36,0,0,1-.27.37,0.28,0.28,0,0,0-.12.09,0.2,0.2,0,0,1-.12.19l-0.07,0a0.1,0.1,0,0,1,0-.08,0.47,0.47,0,0,1,.2-0.25,1,1,0,0,0,.26-0.19,0.48,0.48,0,0,0-.39.27,0.65,0.65,0,0,1-.5.34,0.21,0.21,0,0,1,.13.21v0h0Zm-1.79-.76a0.44,0.44,0,0,0,.05.11,0.58,0.58,0,0,0,.42.16,0.67,0.67,0,0,0,.31.23,0.37,0.37,0,0,0-.07.23h1.05a0.23,0.23,0,0,0-.11-0.19,0.73,0.73,0,0,0,.49-0.36,0.49,0.49,0,0,1,.42-0.28c0,0.07-.11.17-0.24,0.25a0.44,0.44,0,0,0-.18.22l0,0.07h0.06a0.17,0.17,0,0,0,.09-0.16,0.24,0.24,0,0,1,.14-0.12,0.33,0.33,0,0,0,.26-0.32,1,1,0,0,0-.71.17h-0.46a0.49,0.49,0,0,0-.28-0.25,0.41,0.41,0,0,0-.24.24h-1Z" transform="translate(-598.8 -1187.7)"/>
      <polygon points="40.68 14.89 40.68 14.85 41.59 14.85 40.68 14.89 40.68 14.89"/>
      <path d="M639.48,1202.54a0.62,0.62,0,0,1-.43-0.5h0a0.68,0.68,0,0,0,.39.51h0Z" transform="translate(-598.8 -1187.7)"/>
    </g>
    <g class="m">
      <polygon class="n" points="40.53 13.36 39.97 12.94 39.78 14.22 40.34 14.65 40.53 13.36"/>
    </g>
    <g class="b">
      <path d="M639,1202.05h-0.24a0.2,0.2,0,0,1,0-.13,0.17,0.17,0,0,0,0-.11,0.24,0.24,0,0,0-.06-0.21,0.2,0.2,0,0,1-.05-0.14,0.44,0.44,0,0,1,.11-0.22,0.41,0.41,0,0,0,.11-0.28,0.26,0.26,0,0,1,.2.19,0.25,0.25,0,0,1,0,.2,0.08,0.08,0,0,0,0,.1,0.23,0.23,0,0,1,.08.2,1.08,1.08,0,0,1-.09.21,0.63,0.63,0,0,0-.07.19v0h0Zm-0.1-1.08a0.3,0.3,0,0,1-.09.29,0.42,0.42,0,0,0-.1.2,0.17,0.17,0,0,0,0,.12,0.27,0.27,0,0,1,.06.23,0.2,0.2,0,0,1,0,.13,0.25,0.25,0,0,0,0,.1l0.19,0a0.66,0.66,0,0,1,.07-0.18,1.17,1.17,0,0,0,.09-0.2,0.19,0.19,0,0,0-.07-0.17,0.11,0.11,0,0,1,0-.14,0.22,0.22,0,0,0,0-.17,0.31,0.31,0,0,0-.15-0.18h0Z" transform="translate(-598.8 -1187.7)"/>
      <path class="f" d="M640.1,1201a0.13,0.13,0,1,1-.13-0.13,0.13,0.13,0,0,1,.13.13h0Z" transform="translate(-598.8 -1187.7)"/>
      <path d="M640,1201.18a0.15,0.15,0,0,1-.15-0.15c0-.16.29-0.16,0.29,0a0.15,0.15,0,0,1-.15.15h0Zm0-.26a0.11,0.11,0,0,0-.11.11c0,0.12.22,0.12,0.22,0a0.11,0.11,0,0,0-.11-0.11h0Z" transform="translate(-598.8 -1187.7)"/>
      <polygon class="f" points="40.51 12.32 40.46 12.29 41.16 11.26 41.92 12.29 41.16 11.29 40.51 12.32 40.51 12.32"/>
      <path class="f" d="M640.13,1199.62a0.14,0.14,0,1,1-.28,0,0.14,0.14,0,0,1,.28,0h0Z" transform="translate(-598.8 -1187.7)"/>
      <path d="M640,1199.78a0.16,0.16,0,0,1-.16-0.16c0-.17.31-0.17,0.31,0a0.16,0.16,0,0,1-.16.16h0Zm0-.28a0.12,0.12,0,0,0-.12.12c0,0.14.24,0.13,0.24,0a0.12,0.12,0,0,0-.12-0.12h0Z" transform="translate(-598.8 -1187.7)"/>
      <path class="f" d="M639.42,1200.77h1.09a0.25,0.25,0,0,0-.11-0.23c0.57-.08.42-0.58,0.9-0.61a0.51,0.51,0,0,1-.25.21s-0.29.2-.16,0.31,0.15-.05.16-0.15,0.46-.16.4-0.45-0.73.16-.73,0.16h-0.45a0.47,0.47,0,0,0-.28-0.25,0.43,0.43,0,0,0-.26.26h-1s0,0.26.48,0.31a0.62,0.62,0,0,0,.31.23,0.24,0.24,0,0,0-.09.21h0Z" transform="translate(-598.8 -1187.7)"/>
      <path d="M640.52,1200.79h-1.1a0.23,0.23,0,0,1,.07-0.25,0.43,0.43,0,0,1-.31-0.21,0.58,0.58,0,0,1-.43-0.17,0.22,0.22,0,0,1-.05-0.15l1,0a0.37,0.37,0,0,1,.26-0.25,0.48,0.48,0,0,1,.3.26h0.43s0.65-.36.75-0.14a0.36,0.36,0,0,1-.27.37,0.28,0.28,0,0,0-.12.09,0.2,0.2,0,0,1-.12.19l-0.07,0a0.1,0.1,0,0,1,0-.08,0.5,0.5,0,0,1,.2-0.25,1,1,0,0,0,.26-0.19,0.48,0.48,0,0,0-.39.27,0.65,0.65,0,0,1-.51.34,0.2,0.2,0,0,1,.13.21v0h0Zm-1.79-.76a0.48,0.48,0,0,0,.05.11,0.58,0.58,0,0,0,.42.16,0.68,0.68,0,0,0,.31.23,0.37,0.37,0,0,0-.07.23l1.05,0a0.23,0.23,0,0,0-.11-0.19,0.73,0.73,0,0,0,.49-0.36,0.49,0.49,0,0,1,.42-0.28c0,0.07-.11.17-0.24,0.25a0.44,0.44,0,0,0-.18.22v0.07h0.06a0.17,0.17,0,0,0,.09-0.16,0.24,0.24,0,0,1,.14-0.12,0.33,0.33,0,0,0,.26-0.32,1,1,0,0,0-.71.17h-0.46a0.5,0.5,0,0,0-.28-0.25,0.41,0.41,0,0,0-.24.24h-1Z" transform="translate(-598.8 -1187.7)"/>
      <polygon points="40.7 12.87 40.7 12.83 41.6 12.82 40.7 12.87 40.7 12.87"/>
      <path d="M639.49,1200.52a0.62,0.62,0,0,1-.43-0.5h0a0.67,0.67,0,0,0,.39.51h0Z" transform="translate(-598.8 -1187.7)"/>
    </g>
    <g class="o">
      <polygon class="p" points="40.54 11.34 39.98 10.91 39.79 12.2 40.35 12.62 40.54 11.34"/>
    </g>
    <g class="b">
      <path d="M639,1200H638.8a0.19,0.19,0,0,1,0-.13,0.18,0.18,0,0,0,0-.11,0.24,0.24,0,0,0-.06-0.21,0.2,0.2,0,0,1-.05-0.14,0.44,0.44,0,0,1,.11-0.22,0.41,0.41,0,0,0,.11-0.28,0.26,0.26,0,0,1,.2.19,0.25,0.25,0,0,1,0,.2,0.08,0.08,0,0,0,0,.1,0.23,0.23,0,0,1,.08.2,1.18,1.18,0,0,1-.09.21,0.61,0.61,0,0,0-.07.19h0Zm-0.1-1.08a0.3,0.3,0,0,1-.09.29,0.41,0.41,0,0,0-.1.2,0.17,0.17,0,0,0,0,.12,0.27,0.27,0,0,1,.07.23,0.21,0.21,0,0,1,0,.13,0.23,0.23,0,0,0,0,.1l0.19,0a0.63,0.63,0,0,1,.07-0.18,1.07,1.07,0,0,0,.09-0.2,0.2,0.2,0,0,0-.07-0.17,0.11,0.11,0,0,1,0-.14,0.22,0.22,0,0,0,0-.17,0.32,0.32,0,0,0-.15-0.19h0Z" transform="translate(-598.8 -1187.7)"/>
      <path class="f" d="M640.12,1199a0.13,0.13,0,1,1-.13-0.13,0.13,0.13,0,0,1,.13.13h0Z" transform="translate(-598.8 -1187.7)"/>
      <path d="M640,1199.15a0.15,0.15,0,0,1-.15-0.15c0-.16.29-0.16,0.29,0a0.15,0.15,0,0,1-.15.15h0Zm0-.26a0.11,0.11,0,0,0-.11.11,0.11,0.11,0,0,0,.22,0,0.11,0.11,0,0,0-.11-0.11h0Z" transform="translate(-598.8 -1187.7)"/>
      <polygon class="f" points="40.55 10.27 40.5 10.24 41.2 9.21 41.95 10.24 41.2 9.24 40.55 10.27 40.55 10.27"/>
      <path class="f" d="M640.17,1197.57a0.14,0.14,0,1,1-.14-0.14,0.14,0.14,0,0,1,.14.14h0Z" transform="translate(-598.8 -1187.7)"/>
      <path d="M640,1197.73a0.16,0.16,0,0,1-.16-0.16c0-.17.31-0.17,0.31,0a0.16,0.16,0,0,1-.16.16h0Zm0-.28a0.12,0.12,0,1,0,.12.12,0.12,0.12,0,0,0-.12-0.12h0Z" transform="translate(-598.8 -1187.7)"/>
      <path class="f" d="M639.46,1198.71h1.09a0.25,0.25,0,0,0-.11-0.23c0.57-.08.42-0.58,0.9-0.61a0.51,0.51,0,0,1-.25.21s-0.29.2-.16,0.31,0.15-.05.16-0.15,0.46-.16.4-0.45-0.73.16-.73,0.16H640.3a0.47,0.47,0,0,0-.28-0.25,0.42,0.42,0,0,0-.26.26h-1s0,0.26.48,0.31a0.62,0.62,0,0,0,.3.23,0.25,0.25,0,0,0-.08.21h0Z" transform="translate(-598.8 -1187.7)"/>
      <path d="M640.56,1198.74h-1.1a0.24,0.24,0,0,1,.07-0.25,0.42,0.42,0,0,1-.31-0.21,0.58,0.58,0,0,1-.43-0.17,0.22,0.22,0,0,1-.05-0.15l1,0a0.37,0.37,0,0,1,.26-0.25,0.48,0.48,0,0,1,.29.26h0.43s0.65-.36.75-0.14a0.36,0.36,0,0,1-.27.37,0.26,0.26,0,0,0-.12.09,0.19,0.19,0,0,1-.12.19l-0.07,0a0.1,0.1,0,0,1,0-.08,0.48,0.48,0,0,1,.2-0.25,1,1,0,0,0,.26-0.19,0.48,0.48,0,0,0-.39.27,0.66,0.66,0,0,1-.51.35,0.2,0.2,0,0,1,.13.21v0h0Zm-1.79-.76a0.41,0.41,0,0,0,.05.11,0.57,0.57,0,0,0,.42.16,0.66,0.66,0,0,0,.31.23,0.37,0.37,0,0,0-.07.23l1.05,0a0.23,0.23,0,0,0-.11-0.19,0.73,0.73,0,0,0,.49-0.36,0.49,0.49,0,0,1,.42-0.28c0,0.07-.11.17-0.24,0.25a0.45,0.45,0,0,0-.18.22l0,0.07H641a0.17,0.17,0,0,0,.08-0.16,0.25,0.25,0,0,1,.14-0.12,0.32,0.32,0,0,0,.25-0.32,1,1,0,0,0-.7.17H640.3a0.5,0.5,0,0,0-.28-0.25,0.4,0.4,0,0,0-.24.24h-1Z" transform="translate(-598.8 -1187.7)"/>
      <polygon points="40.73 10.81 40.73 10.78 41.64 10.77 40.73 10.81 40.73 10.81"/>
      <path d="M639.53,1198.46a0.62,0.62,0,0,1-.43-0.5h0a0.67,0.67,0,0,0,.39.51h0Z" transform="translate(-598.8 -1187.7)"/>
    </g>
    <g class="q">
      <polygon class="r" points="40.58 9.28 40.02 8.86 39.83 10.15 40.39 10.57 40.58 9.28"/>
    </g>
    <g class="b">
      <path d="M639.08,1198h-0.24a0.19,0.19,0,0,1,0-.13,0.18,0.18,0,0,0,0-.11,0.25,0.25,0,0,0-.06-0.21,0.2,0.2,0,0,1-.05-0.14,0.43,0.43,0,0,1,.11-0.22,0.41,0.41,0,0,0,.11-0.28,0.27,0.27,0,0,1,.2.19,0.25,0.25,0,0,1,0,.2,0.08,0.08,0,0,0,0,.1,0.23,0.23,0,0,1,.08.2,1.19,1.19,0,0,1-.09.21,0.61,0.61,0,0,0-.07.19h0Zm-0.1-1.08a0.3,0.3,0,0,1-.09.29,0.41,0.41,0,0,0-.1.2,0.16,0.16,0,0,0,0,.12,0.28,0.28,0,0,1,.06.23,0.21,0.21,0,0,1,0,.13,0.26,0.26,0,0,0,0,.1l0.19,0a0.62,0.62,0,0,1,.07-0.18,1.3,1.3,0,0,0,.09-0.2,0.19,0.19,0,0,0-.07-0.17,0.12,0.12,0,0,1,0-.14,0.22,0.22,0,0,0,0-.17,0.31,0.31,0,0,0-.16-0.18h0Z" transform="translate(-598.8 -1187.7)"/>
      <path class="f" d="M640.15,1197a0.13,0.13,0,0,1-.13.13,0.13,0.13,0,1,1,.13-0.13h0Z" transform="translate(-598.8 -1187.7)"/>
      <path d="M640,1197.1a0.15,0.15,0,0,1-.15-0.15c0-.16.29-0.16,0.29,0a0.15,0.15,0,0,1-.15.15h0Zm0-.26a0.11,0.11,0,0,0-.11.11c0,0.12.22,0.12,0.22,0a0.11,0.11,0,0,0-.11-0.11h0Z" transform="translate(-598.8 -1187.7)"/>
      <polygon class="f" points="47.83 10.3 47.78 10.27 48.48 9.24 49.23 10.27 48.48 9.27 47.83 10.3 47.83 10.3"/>
      <path class="f" d="M647.44,1197.6a0.14,0.14,0,1,1-.14-0.14,0.14,0.14,0,0,1,.14.14h0Z" transform="translate(-598.8 -1187.7)"/>
      <path d="M647.3,1197.76a0.16,0.16,0,0,1-.16-0.16c0-.17.31-0.17,0.31,0a0.16,0.16,0,0,1-.16.16h0Zm0-.28a0.12,0.12,0,0,0-.12.12c0,0.14.24,0.13,0.24,0a0.12,0.12,0,0,0-.12-0.12h0Z" transform="translate(-598.8 -1187.7)"/>
      <path class="f" d="M646.73,1198.75h1.09a0.24,0.24,0,0,0-.11-0.22c0.57-.08.42-0.58,0.9-0.61a0.51,0.51,0,0,1-.25.21s-0.29.2-.16,0.31,0.15-.05.16-0.15,0.46-.16.4-0.45S648,1198,648,1198h-0.45a0.48,0.48,0,0,0-.28-0.25,0.43,0.43,0,0,0-.26.26h-1s0,0.26.48,0.31a0.62,0.62,0,0,0,.31.23,0.25,0.25,0,0,0-.09.21h0Z" transform="translate(-598.8 -1187.7)"/>
      <path d="M647.83,1198.77h-1.1a0.23,0.23,0,0,1,.07-0.25,0.42,0.42,0,0,1-.31-0.21,0.58,0.58,0,0,1-.43-0.17A0.22,0.22,0,0,1,646,1198l1,0a0.37,0.37,0,0,1,.26-0.25,0.47,0.47,0,0,1,.29.26H648s0.65-.36.75-0.14a0.36,0.36,0,0,1-.27.37,0.25,0.25,0,0,0-.12.09,0.2,0.2,0,0,1-.12.19l-0.07,0a0.1,0.1,0,0,1,0-.08,0.49,0.49,0,0,1,.2-0.25,1,1,0,0,0,.26-0.19,0.48,0.48,0,0,0-.39.27,0.66,0.66,0,0,1-.51.34,0.2,0.2,0,0,1,.13.21v0h0ZM646,1198a0.44,0.44,0,0,0,.05.11,0.57,0.57,0,0,0,.42.16,0.65,0.65,0,0,0,.31.23,0.37,0.37,0,0,0-.07.23l1.05,0a0.23,0.23,0,0,0-.11-0.19,0.73,0.73,0,0,0,.49-0.36,0.49,0.49,0,0,1,.42-0.28c0,0.07-.11.17-0.24,0.25a0.45,0.45,0,0,0-.18.22l0,0.07h0.06a0.17,0.17,0,0,0,.09-0.16,0.24,0.24,0,0,1,.14-0.12,0.33,0.33,0,0,0,.26-0.32,1,1,0,0,0-.71.17h-0.46a0.51,0.51,0,0,0-.28-0.25,0.4,0.4,0,0,0-.24.24h-1Z" transform="translate(-598.8 -1187.7)"/>
      <polygon points="48.01 10.85 48.01 10.81 48.92 10.8 48.01 10.85 48.01 10.85"/>
      <path d="M646.81,1198.5a0.62,0.62,0,0,1-.43-0.5h0a0.67,0.67,0,0,0,.39.51h0Z" transform="translate(-598.8 -1187.7)"/>
    </g>
    <g class="s">
      <polygon class="t" points="47.86 9.31 47.3 8.89 47.11 10.18 47.67 10.6 47.86 9.31"/>
    </g>
    <g class="b">
      <path d="M646.35,1198h-0.24a0.19,0.19,0,0,1,0-.13,0.18,0.18,0,0,0,0-.11,0.24,0.24,0,0,0-.06-0.21,0.2,0.2,0,0,1-.05-0.14,0.44,0.44,0,0,1,.11-0.22,0.4,0.4,0,0,0,.11-0.28,0.26,0.26,0,0,1,.2.19,0.25,0.25,0,0,1,0,.2,0.08,0.08,0,0,0,0,.1,0.23,0.23,0,0,1,.08.2,1.13,1.13,0,0,1-.09.21,0.61,0.61,0,0,0-.07.19h0Zm-0.1-1.08a0.3,0.3,0,0,1-.09.29,0.42,0.42,0,0,0-.1.2,0.16,0.16,0,0,0,0,.12,0.28,0.28,0,0,1,.06.23,0.19,0.19,0,0,1,0,.13,0.26,0.26,0,0,0,0,.1l0.19,0a0.66,0.66,0,0,1,.07-0.18,1.07,1.07,0,0,0,.09-0.2,0.19,0.19,0,0,0-.07-0.17,0.11,0.11,0,0,1,0-.14,0.23,0.23,0,0,0,0-.17,0.32,0.32,0,0,0-.15-0.18h0Z" transform="translate(-598.8 -1187.7)"/>
      <path class="f" d="M647.43,1197a0.13,0.13,0,0,1-.13.13,0.13,0.13,0,1,1,.13-0.13h0Z" transform="translate(-598.8 -1187.7)"/>
      <path d="M647.3,1197.13a0.15,0.15,0,0,1-.15-0.15c0-.16.29-0.16,0.29,0a0.15,0.15,0,0,1-.15.15h0Zm0-.26a0.11,0.11,0,0,0-.11.11c0,0.12.22,0.12,0.22,0a0.11,0.11,0,0,0-.11-0.11h0Z" transform="translate(-598.8 -1187.7)"/>
      <polygon class="f" points="47.76 12.32 47.71 12.29 48.41 11.26 49.16 12.29 48.41 11.29 47.76 12.32 47.76 12.32"/>
      <path class="f" d="M647.37,1199.62a0.14,0.14,0,1,1-.14-0.14,0.14,0.14,0,0,1,.14.14h0Z" transform="translate(-598.8 -1187.7)"/>
      <path d="M647.24,1199.78a0.16,0.16,0,0,1-.16-0.16c0-.17.31-0.17,0.31,0a0.16,0.16,0,0,1-.16.16h0Zm0-.28a0.12,0.12,0,0,0-.12.12c0,0.13.24,0.13,0.24,0a0.12,0.12,0,0,0-.12-0.12h0Z" transform="translate(-598.8 -1187.7)"/>
      <path class="f" d="M646.66,1200.77h1.09a0.25,0.25,0,0,0-.11-0.23c0.57-.08.42-0.58,0.9-0.61a0.51,0.51,0,0,1-.25.21s-0.29.2-.16,0.31,0.15-.05.16-0.15,0.46-.16.4-0.45S648,1200,648,1200h-0.45a0.48,0.48,0,0,0-.28-0.25,0.42,0.42,0,0,0-.26.25h-1s0,0.26.48,0.31a0.61,0.61,0,0,0,.3.23,0.25,0.25,0,0,0-.08.21h0Z" transform="translate(-598.8 -1187.7)"/>
      <path d="M647.77,1200.79h-1.1a0.24,0.24,0,0,1,.07-0.25,0.42,0.42,0,0,1-.31-0.21,0.58,0.58,0,0,1-.43-0.17,0.22,0.22,0,0,1-.05-0.15l1,0a0.37,0.37,0,0,1,.26-0.25,0.48,0.48,0,0,1,.29.26H648a1.48,1.48,0,0,1,.59-0.23,0.16,0.16,0,0,1,.16.09,0.35,0.35,0,0,1-.27.37,0.26,0.26,0,0,0-.12.09,0.19,0.19,0,0,1-.12.19l-0.07,0a0.1,0.1,0,0,1,0-.08,0.48,0.48,0,0,1,.2-0.25,1,1,0,0,0,.26-0.19,0.48,0.48,0,0,0-.39.27,0.65,0.65,0,0,1-.51.34,0.2,0.2,0,0,1,.13.21v0h0ZM646,1200a0.48,0.48,0,0,0,.05.11,0.58,0.58,0,0,0,.42.16,0.65,0.65,0,0,0,.31.23,0.38,0.38,0,0,0-.07.23l1,0a0.23,0.23,0,0,0-.11-0.19,0.74,0.74,0,0,0,.49-0.36,0.49,0.49,0,0,1,.42-0.28c0,0.07-.11.17-0.24,0.25a0.44,0.44,0,0,0-.18.22l0,0.07h0.06a0.17,0.17,0,0,0,.09-0.16,0.24,0.24,0,0,1,.14-0.12,0.32,0.32,0,0,0,.25-0.32,1,1,0,0,0-.7.17h-0.46a0.53,0.53,0,0,0-.28-0.25,0.41,0.41,0,0,0-.24.24h-1Z" transform="translate(-598.8 -1187.7)"/>
      <polygon points="47.94 12.86 47.94 12.82 48.85 12.82 47.94 12.86 47.94 12.86"/>
      <path d="M646.74,1200.52a0.62,0.62,0,0,1-.43-0.5h0a0.68,0.68,0,0,0,.39.51h0Z" transform="translate(-598.8 -1187.7)"/>
    </g>
    <g class="u">
      <polygon class="v" points="47.79 11.33 47.23 10.91 47.04 12.2 47.6 12.62 47.79 11.33"/>
    </g>
    <g class="b">
      <path d="M646.29,1200H646a0.18,0.18,0,0,1,0-.13,0.19,0.19,0,0,0,0-.12,0.24,0.24,0,0,0-.06-0.2,0.2,0.2,0,0,1-.05-0.14,0.44,0.44,0,0,1,.11-0.22,0.41,0.41,0,0,0,.11-0.28,0.27,0.27,0,0,1,.2.19,0.25,0.25,0,0,1,0,.2,0.08,0.08,0,0,0,0,.1,0.24,0.24,0,0,1,.08.2,1.11,1.11,0,0,1-.09.21,0.65,0.65,0,0,0-.07.18v0h0Zm-0.1-1.08a0.3,0.3,0,0,1-.09.29,0.41,0.41,0,0,0-.1.2,0.16,0.16,0,0,0,0,.12,0.27,0.27,0,0,1,.06.23,0.21,0.21,0,0,1,0,.13,0.26,0.26,0,0,0,0,.1l0.19,0a0.66,0.66,0,0,1,.07-0.18,1.2,1.2,0,0,0,.09-0.2,0.19,0.19,0,0,0-.07-0.17,0.12,0.12,0,0,1,0-.14,0.22,0.22,0,0,0,0-.17,0.31,0.31,0,0,0-.15-0.19h0Z" transform="translate(-598.8 -1187.7)"/>
      <path class="f" d="M647.36,1199a0.13,0.13,0,1,1-.13-0.13,0.13,0.13,0,0,1,.13.13h0Z" transform="translate(-598.8 -1187.7)"/>
      <path d="M647.24,1199.15a0.15,0.15,0,0,1-.15-0.15c0-.16.29-0.16,0.29,0a0.15,0.15,0,0,1-.15.15h0Zm0-.26a0.11,0.11,0,0,0-.11.11,0.11,0.11,0,1,0,.11-0.11h0Z" transform="translate(-598.8 -1187.7)"/>
      <polygon class="f" points="47.67 14.38 47.62 14.35 48.32 13.32 49.08 14.35 48.32 13.35 47.67 14.38 47.67 14.38"/>
      <path class="f" d="M647.28,1201.68a0.14,0.14,0,1,1-.14-0.14,0.14,0.14,0,0,1,.14.14h0Z" transform="translate(-598.8 -1187.7)"/>
      <path d="M647.15,1201.84a0.16,0.16,0,0,1-.16-0.16c0-.17.31-0.17,0.31,0a0.16,0.16,0,0,1-.16.16h0Zm0-.28a0.12,0.12,0,0,0-.12.12c0,0.13.24,0.13,0.24,0a0.12,0.12,0,0,0-.12-0.12h0Z" transform="translate(-598.8 -1187.7)"/>
      <path class="f" d="M646.58,1202.83h1.09a0.25,0.25,0,0,0-.11-0.23c0.57-.08.42-0.58,0.9-0.61a0.51,0.51,0,0,1-.25.21s-0.29.2-.16,0.3,0.15,0,.16-0.15,0.46-.16.4-0.45-0.73.16-.73,0.16h-0.45a0.47,0.47,0,0,0-.28-0.25,0.43,0.43,0,0,0-.26.25h-1s0,0.26.48,0.31a0.61,0.61,0,0,0,.31.23,0.25,0.25,0,0,0-.08.21h0Z" transform="translate(-598.8 -1187.7)"/>
      <path d="M647.68,1202.85h-1.1a0.24,0.24,0,0,1,.07-0.25,0.43,0.43,0,0,1-.31-0.21,0.59,0.59,0,0,1-.43-0.17,0.22,0.22,0,0,1-.05-0.15l1,0a0.37,0.37,0,0,1,.26-0.26,0.49,0.49,0,0,1,.3.26h0.43a1.48,1.48,0,0,1,.59-0.23,0.16,0.16,0,0,1,.16.09,0.36,0.36,0,0,1-.27.37,0.28,0.28,0,0,0-.12.09,0.2,0.2,0,0,1-.12.19l-0.07,0a0.1,0.1,0,0,1,0-.08,0.48,0.48,0,0,1,.2-0.25,1,1,0,0,0,.26-0.19,0.48,0.48,0,0,0-.39.27,0.65,0.65,0,0,1-.5.35,0.2,0.2,0,0,1,.13.21v0h0Zm-1.79-.76a0.49,0.49,0,0,0,.06.11,0.57,0.57,0,0,0,.42.16,0.66,0.66,0,0,0,.31.23,0.37,0.37,0,0,0-.07.23l1,0a0.23,0.23,0,0,0-.11-0.19,0.73,0.73,0,0,0,.49-0.36,0.49,0.49,0,0,1,.42-0.28c0,0.07-.11.17-0.24,0.25a0.43,0.43,0,0,0-.18.22l0,0.07h0.06a0.17,0.17,0,0,0,.08-0.16,0.24,0.24,0,0,1,.14-0.12,0.33,0.33,0,0,0,.25-0.33,1,1,0,0,0-.7.17h-0.46a0.51,0.51,0,0,0-.28-0.25,0.41,0.41,0,0,0-.24.24h-1Z" transform="translate(-598.8 -1187.7)"/>
      <polygon points="47.85 14.92 47.85 14.88 48.76 14.88 47.85 14.92 47.85 14.92"/>
      <path d="M646.65,1202.58a0.62,0.62,0,0,1-.43-0.5h0a0.68,0.68,0,0,0,.39.51h0Z" transform="translate(-598.8 -1187.7)"/>
    </g>
    <g class="w">
      <polygon class="x" points="47.7 13.39 47.14 12.97 46.95 14.26 47.51 14.68 47.7 13.39"/>
    </g>
    <g class="b">
      <path d="M646.2,1202.08H646a0.19,0.19,0,0,1,0-.13,0.18,0.18,0,0,0,0-.12,0.24,0.24,0,0,0-.06-0.21,0.2,0.2,0,0,1-.05-0.14,0.44,0.44,0,0,1,.11-0.22,0.41,0.41,0,0,0,.11-0.28,0.27,0.27,0,0,1,.2.19,0.26,0.26,0,0,1,0,.2,0.08,0.08,0,0,0,0,.1,0.23,0.23,0,0,1,.08.2,1.21,1.21,0,0,1-.09.21,0.57,0.57,0,0,0-.07.18v0h0Zm-0.1-1.08a0.3,0.3,0,0,1-.09.29,0.43,0.43,0,0,0-.1.2,0.16,0.16,0,0,0,0,.12,0.27,0.27,0,0,1,.06.23,0.21,0.21,0,0,1,0,.13,0.24,0.24,0,0,0,0,.1l0.19,0a0.63,0.63,0,0,1,.07-0.18,1.24,1.24,0,0,0,.09-0.2,0.19,0.19,0,0,0-.07-0.17,0.11,0.11,0,0,1,0-.14,0.23,0.23,0,0,0,0-.17,0.32,0.32,0,0,0-.15-0.19h0Z" transform="translate(-598.8 -1187.7)"/>
      <path class="f" d="M647.27,1201.06a0.13,0.13,0,0,1-.26,0,0.13,0.13,0,1,1,.26,0h0Z" transform="translate(-598.8 -1187.7)"/>
      <path d="M647.15,1201.21a0.15,0.15,0,0,1-.15-0.15c0-.16.29-0.16,0.29,0a0.15,0.15,0,0,1-.15.15h0Zm0-.26a0.11,0.11,0,0,0-.11.11c0,0.12.22,0.12,0.22,0a0.11,0.11,0,0,0-.11-0.11h0Z" transform="translate(-598.8 -1187.7)"/>
      <polygon class="f" points="49.11 20.48 48.4 19.45 47.77 20.48 47.7 20.44 48.4 19.41 49.17 20.44 49.11 20.48 49.11 20.48"/>
      <path class="f" d="M647.37,1207.78a0.14,0.14,0,0,1-.28,0,0.14,0.14,0,1,1,.28,0h0Z" transform="translate(-598.8 -1187.7)"/>
      <path d="M647.24,1207.94a0.16,0.16,0,0,1-.16-0.16c0-.18.33-0.18,0.33,0a0.16,0.16,0,0,1-.16.16h0Zm0-.28a0.12,0.12,0,0,0-.12.12c0,0.13.23,0.13,0.23,0a0.12,0.12,0,0,0-.12-0.12h0Z" transform="translate(-598.8 -1187.7)"/>
      <path class="f" d="M646.66,1208.92h1.09a0.25,0.25,0,0,0-.11-0.23c0.57-.08.42-0.58,0.9-0.61a0.51,0.51,0,0,1-.25.21s-0.29.2-.16,0.31,0.15-.05.16-0.15,0.46-.16.4-0.45-0.73.16-.73,0.16h-0.45a0.48,0.48,0,0,0-.28-0.25,0.43,0.43,0,0,0-.26.26h-1s0,0.26.48,0.31a0.62,0.62,0,0,0,.3.23,0.25,0.25,0,0,0-.08.21h0Z" transform="translate(-598.8 -1187.7)"/>
      <path d="M647.77,1208.95h-1.11a0.24,0.24,0,0,1,.07-0.26,0.39,0.39,0,0,1-.31-0.2,0.59,0.59,0,0,1-.43-0.17,0.22,0.22,0,0,1-.05-0.16l1,0a0.36,0.36,0,0,1,.26-0.26,0.49,0.49,0,0,1,.3.27H648a1.45,1.45,0,0,1,.59-0.23,0.16,0.16,0,0,1,.16.09,0.36,0.36,0,0,1-.28.38,0.28,0.28,0,0,0-.12.09,0.2,0.2,0,0,1-.13.2l-0.07,0a0.11,0.11,0,0,1,0-.09,0.48,0.48,0,0,1,.2-0.26,1.06,1.06,0,0,0,.26-0.18,0.49,0.49,0,0,0-.38.28,0.66,0.66,0,0,1-.51.35,0.19,0.19,0,0,1,.13.21v0h0Zm-1.79-.76a0.59,0.59,0,0,0,.05.1,0.58,0.58,0,0,0,.41.16,0.65,0.65,0,0,0,.31.23,0.42,0.42,0,0,0-.07.24l1,0a0.22,0.22,0,0,0-.1-0.18,0.76,0.76,0,0,0,.49-0.37,0.49,0.49,0,0,1,.42-0.28s0.05,0.09-.24.26a0.45,0.45,0,0,0-.18.22v0.07h0.06a0.17,0.17,0,0,0,.08-0.16,0.25,0.25,0,0,1,.15-0.12,0.32,0.32,0,0,0,.25-0.32,1,1,0,0,0-.7.17h-0.46a0.52,0.52,0,0,0-.28-0.25,0.41,0.41,0,0,0-.23.24l-1,0h0Z" transform="translate(-598.8 -1187.7)"/>
      <polygon points="47.94 21.02 47.94 20.98 48.85 20.97 47.94 21.02 47.94 21.02"/>
      <path d="M646.74,1208.67a0.61,0.61,0,0,1-.44-0.5h0a0.68,0.68,0,0,0,.39.51h0Z" transform="translate(-598.8 -1187.7)"/>
    </g>
    <g class="y">
      <polygon class="z" points="47.79 19.49 47.23 19.06 47.04 20.35 47.6 20.77 47.79 19.49"/>
    </g>
    <g class="b">
      <path d="M646.29,1208.18H646a0.19,0.19,0,0,1,0-.14,0.17,0.17,0,0,0,0-.11,0.24,0.24,0,0,0-.05-0.2,0.21,0.21,0,0,1-.06-0.14,0.44,0.44,0,0,1,.11-0.23,0.41,0.41,0,0,0,.11-0.28,0.24,0.24,0,0,1,.16.39,0.07,0.07,0,0,0,0,.09,0.24,0.24,0,0,1,.08.21,1.11,1.11,0,0,1-.09.21,0.63,0.63,0,0,0-.07.18v0h0Zm-0.1-1.08a0.28,0.28,0,0,1-.08.29,0.43,0.43,0,0,0-.1.2,0.16,0.16,0,0,0,0,.12,0.27,0.27,0,0,1,.07.23,0.21,0.21,0,0,1,0,.13,0.24,0.24,0,0,0,0,.1l0.18,0a0.63,0.63,0,0,1,.07-0.18,1.06,1.06,0,0,0,.09-0.2,0.19,0.19,0,0,0-.07-0.16,0.12,0.12,0,0,1,0-.15,0.22,0.22,0,0,0,0-.17,0.3,0.3,0,0,0-.15-0.18h0Z" transform="translate(-598.8 -1187.7)"/>
      <path class="f" d="M647.36,1207.16a0.13,0.13,0,0,1-.26,0,0.13,0.13,0,1,1,.26,0h0Z" transform="translate(-598.8 -1187.7)"/>
      <path d="M647.24,1207.31a0.15,0.15,0,0,1-.15-0.15c0-.17.3-0.17,0.3,0a0.15,0.15,0,0,1-.15.15h0Zm0-.26a0.11,0.11,0,0,0-.11.11c0,0.12.21,0.12,0.21,0a0.1,0.1,0,0,0-.1-0.11h0Z" transform="translate(-598.8 -1187.7)"/>
      <polygon class="f" points="47.75 18.43 47.7 18.4 48.4 17.37 49.15 18.41 48.4 17.41 47.75 18.43 47.75 18.43"/>
      <path class="f" d="M647.36,1205.74a0.14,0.14,0,1,1-.14-0.14,0.14,0.14,0,0,1,.14.14h0Z" transform="translate(-598.8 -1187.7)"/>
      <path d="M647.22,1205.89a0.16,0.16,0,0,1-.16-0.16c0-.17.31-0.17,0.31,0a0.16,0.16,0,0,1-.16.16h0Zm0-.28a0.12,0.12,0,0,0-.12.12c0,0.13.24,0.13,0.24,0a0.12,0.12,0,0,0-.12-0.12h0Z" transform="translate(-598.8 -1187.7)"/>
      <path class="f" d="M646.65,1206.88h1.09a0.25,0.25,0,0,0-.11-0.23c0.57-.08.42-0.58,0.9-0.61a0.51,0.51,0,0,1-.25.21s-0.29.2-.16,0.31,0.15,0,.16-0.15,0.46-.17.4-0.45-0.73.16-.73,0.16H647.5a0.46,0.46,0,0,0-.28-0.25,0.43,0.43,0,0,0-.26.25h-1s0,0.26.48,0.31a0.62,0.62,0,0,0,.31.23,0.24,0.24,0,0,0-.09.21h0Z" transform="translate(-598.8 -1187.7)"/>
      <path d="M647.76,1206.9h-1.1a0.23,0.23,0,0,1,.07-0.25,0.43,0.43,0,0,1-.31-0.21,0.58,0.58,0,0,1-.43-0.17,0.21,0.21,0,0,1-.05-0.15l1,0a0.37,0.37,0,0,1,.26-0.26,0.49,0.49,0,0,1,.29.26h0.43a1.48,1.48,0,0,1,.59-0.23,0.16,0.16,0,0,1,.16.09,0.36,0.36,0,0,1-.27.37,0.27,0.27,0,0,0-.12.09,0.19,0.19,0,0,1-.12.19l-0.07,0a0.1,0.1,0,0,1,0-.08,0.5,0.5,0,0,1,.2-0.25,1,1,0,0,0,.26-0.19,0.48,0.48,0,0,0-.39.27,0.65,0.65,0,0,1-.51.34,0.2,0.2,0,0,1,.13.21v0h0Zm-1.79-.76a0.47,0.47,0,0,0,.05.11,0.58,0.58,0,0,0,.42.16,0.65,0.65,0,0,0,.31.23,0.36,0.36,0,0,0-.07.23l1,0a0.22,0.22,0,0,0-.11-0.19,0.73,0.73,0,0,0,.49-0.36,0.5,0.5,0,0,1,.42-0.28c0,0.07-.11.17-0.24,0.25a0.45,0.45,0,0,0-.18.22l0,0.07h0.06a0.17,0.17,0,0,0,.09-0.16,0.24,0.24,0,0,1,.14-0.12,0.33,0.33,0,0,0,.25-0.33,1,1,0,0,0-.7.17H647.5a0.5,0.5,0,0,0-.28-0.25,0.41,0.41,0,0,0-.24.24h-1Z" transform="translate(-598.8 -1187.7)"/>
      <polygon points="47.93 18.98 47.93 18.94 48.84 18.94 47.93 18.98 47.93 18.98"/>
      <path d="M646.73,1206.63a0.62,0.62,0,0,1-.43-0.5h0a0.68,0.68,0,0,0,.39.51h0Z" transform="translate(-598.8 -1187.7)"/>
    </g>
    <g class="aa">
      <polygon class="ab" points="47.78 17.45 47.22 17.02 47.03 18.31 47.59 18.73 47.78 17.45"/>
    </g>
    <g class="b">
      <path d="M646.28,1206.14H646a0.2,0.2,0,0,1,0-.13,0.18,0.18,0,0,0,0-.11,0.24,0.24,0,0,0-.06-0.21,0.21,0.21,0,0,1-.05-0.14,0.45,0.45,0,0,1,.11-0.22,0.41,0.41,0,0,0,.11-0.28,0.27,0.27,0,0,1,.2.19,0.25,0.25,0,0,1,0,.2,0.08,0.08,0,0,0,0,.1,0.23,0.23,0,0,1,.08.2,1.16,1.16,0,0,1-.09.21,0.62,0.62,0,0,0-.07.18v0h0Zm-0.1-1.08a0.3,0.3,0,0,1-.09.29,0.42,0.42,0,0,0-.1.2,0.16,0.16,0,0,0,0,.12,0.27,0.27,0,0,1,.06.23,0.21,0.21,0,0,1,0,.13,0.26,0.26,0,0,0,0,.1l0.19,0a0.64,0.64,0,0,1,.07-0.18,1.3,1.3,0,0,0,.09-0.2,0.19,0.19,0,0,0-.07-0.17,0.12,0.12,0,0,1,0-.14,0.23,0.23,0,0,0,0-.17,0.31,0.31,0,0,0-.15-0.18h0Z" transform="translate(-598.8 -1187.7)"/>
      <path class="f" d="M647.35,1205.12a0.13,0.13,0,1,1-.26,0,0.13,0.13,0,0,1,.26,0h0Z" transform="translate(-598.8 -1187.7)"/>
      <path d="M647.22,1205.26a0.15,0.15,0,0,1-.15-0.15c0-.16.29-0.16,0.29,0a0.15,0.15,0,0,1-.15.15h0Zm0-.26a0.11,0.11,0,0,0-.11.11c0,0.12.22,0.12,0.22,0a0.11,0.11,0,0,0-.11-0.11h0Z" transform="translate(-598.8 -1187.7)"/>
      <polygon class="f" points="41.82 16.54 41.77 16.51 42.48 15.48 43.23 16.51 42.48 15.51 41.82 16.54 41.82 16.54"/>
      <path class="f" d="M641.44,1203.84a0.14,0.14,0,1,1-.14-0.14,0.14,0.14,0,0,1,.14.14h0Z" transform="translate(-598.8 -1187.7)"/>
      <path d="M641.3,1204a0.16,0.16,0,0,1-.16-0.16c0-.17.31-0.17,0.31,0a0.16,0.16,0,0,1-.16.16h0Zm0-.28a0.12,0.12,0,0,0-.12.12c0,0.14.24,0.13,0.24,0a0.12,0.12,0,0,0-.12-0.12h0Z" transform="translate(-598.8 -1187.7)"/>
      <path class="f" d="M640.73,1205h1.09a0.25,0.25,0,0,0-.11-0.22c0.57-.08.42-0.58,0.9-0.61a0.51,0.51,0,0,1-.25.21s-0.29.2-.16,0.31,0.15-.05.16-0.15,0.46-.16.4-0.45-0.73.16-.73,0.16h-0.45a0.48,0.48,0,0,0-.28-0.25,0.43,0.43,0,0,0-.26.26h-1s0,0.26.48,0.31a0.61,0.61,0,0,0,.3.23,0.25,0.25,0,0,0-.09.21h0Z" transform="translate(-598.8 -1187.7)"/>
      <path d="M641.83,1205h-1.1a0.23,0.23,0,0,1,.07-0.25,0.42,0.42,0,0,1-.31-0.21,0.59,0.59,0,0,1-.43-0.17,0.21,0.21,0,0,1-.05-0.15l1,0a0.37,0.37,0,0,1,.26-0.25,0.47,0.47,0,0,1,.29.26H642s0.65-.36.75-0.14a0.35,0.35,0,0,1-.27.37,0.26,0.26,0,0,0-.12.09,0.19,0.19,0,0,1-.12.19l-0.07,0a0.1,0.1,0,0,1,0-.08,0.48,0.48,0,0,1,.2-0.25,0.92,0.92,0,0,0,.26-0.19,0.48,0.48,0,0,0-.39.27,0.66,0.66,0,0,1-.51.34,0.2,0.2,0,0,1,.13.21v0h0Zm-1.79-.76a0.4,0.4,0,0,0,.05.11,0.58,0.58,0,0,0,.42.16,0.65,0.65,0,0,0,.31.23,0.37,0.37,0,0,0-.07.23l1.05,0a0.23,0.23,0,0,0-.11-0.19,0.73,0.73,0,0,0,.49-0.36,0.49,0.49,0,0,1,.42-0.28c0,0.07-.11.17-0.24,0.25a0.45,0.45,0,0,0-.18.22v0.07h0.06a0.17,0.17,0,0,0,.08-0.16,0.24,0.24,0,0,1,.14-0.12,0.32,0.32,0,0,0,.25-0.32,1,1,0,0,0-.7.17h-0.46a0.49,0.49,0,0,0-.28-0.25,0.41,0.41,0,0,0-.24.24h-1Z" transform="translate(-598.8 -1187.7)"/>
      <polygon points="42.01 17.08 42.01 17.05 42.92 17.04 42.01 17.08 42.01 17.08"/>
      <path d="M640.81,1204.74a0.62,0.62,0,0,1-.43-0.5h0a0.68,0.68,0,0,0,.39.51h0Z" transform="translate(-598.8 -1187.7)"/>
    </g>
    <g class="ac">
      <polygon class="ad" points="41.86 15.55 41.3 15.13 41.11 16.42 41.67 16.84 41.86 15.55"/>
    </g>
    <g class="b">
      <path d="M640.35,1204.24h-0.24a0.19,0.19,0,0,1,0-.13,0.17,0.17,0,0,0,0-.11,0.25,0.25,0,0,0-.06-0.21,0.2,0.2,0,0,1-.06-0.14,0.45,0.45,0,0,1,.11-0.22,0.4,0.4,0,0,0,.11-0.28,0.26,0.26,0,0,1,.2.19,0.25,0.25,0,0,1,0,.2,0.08,0.08,0,0,0,0,.1,0.23,0.23,0,0,1,.08.2,1.08,1.08,0,0,1-.09.21,0.59,0.59,0,0,0-.07.19h0Zm-0.1-1.08a0.29,0.29,0,0,1-.09.29,0.43,0.43,0,0,0-.1.2,0.17,0.17,0,0,0,0,.12,0.28,0.28,0,0,1,.07.23,0.21,0.21,0,0,1,0,.13,0.24,0.24,0,0,0,0,.1l0.19,0a0.69,0.69,0,0,1,.07-0.18,1,1,0,0,0,.09-0.2,0.19,0.19,0,0,0-.07-0.17,0.11,0.11,0,0,1,0-.14,0.22,0.22,0,0,0,0-.17,0.31,0.31,0,0,0-.15-0.18h0Z" transform="translate(-598.8 -1187.7)"/>
      <path class="f" d="M641.43,1203.22a0.13,0.13,0,1,1-.13-0.13,0.13,0.13,0,0,1,.13.13h0Z" transform="translate(-598.8 -1187.7)"/>
      <path d="M641.3,1203.37a0.15,0.15,0,0,1-.15-0.15c0-.16.29-0.16,0.29,0a0.15,0.15,0,0,1-.15.15h0Zm0-.26a0.11,0.11,0,0,0-.11.11c0,0.12.22,0.12,0.22,0a0.11,0.11,0,0,0-.11-0.11h0Z" transform="translate(-598.8 -1187.7)"/>
      <path class="f" d="M644.35,1209.12s0.28,0.65.61,0.25,0.2-.57.2-0.57l-0.72-.39-0.21.45Z" transform="translate(-598.8 -1187.7)"/>
      <path d="M644.74,1209.52h0a0.64,0.64,0,0,1-.41-0.39l-0.13-.27,0.21-.47,0.75,0.39s0.13,0.2-.2.6a0.3,0.3,0,0,1-.23.14h0Zm-0.31-1.1-0.19.44,0.13,0.25a0.62,0.62,0,0,0,.37.37h0a0.27,0.27,0,0,0,.2-0.12,0.53,0.53,0,0,0,.2-0.55l-0.72-.39h0Z" transform="translate(-598.8 -1187.7)"/>
      <path class="ae" d="M645,1209a0.09,0.09,0,0,0,.09-0.06c0-.07-0.09-0.1-0.14-0.18l-0.06.13Z" transform="translate(-598.8 -1187.7)"/>
      <path d="M645,1209.05h0l-0.13-.12,0.06-.15,0.11,0.07s0.1,0.07.07,0.13a0.11,0.11,0,0,1-.1.07h0Z" transform="translate(-598.8 -1187.7)"/>
      <path class="ae" d="M643.33,1208.86l-0.64.35a0.6,0.6,0,0,1-.34,0c0-.06,0-0.12.17-0.12a2.1,2.1,0,0,0,.61-0.42Z" transform="translate(-598.8 -1187.7)"/>
      <path d="M642.45,1209.25a0.11,0.11,0,0,1-.12,0h0v-0.08a0.23,0.23,0,0,1,.19-0.07,2.13,2.13,0,0,0,.6-0.41l0.21,0.2-0.64.38a1.75,1.75,0,0,1-.25,0h0Zm0.68-.58a1.64,1.64,0,0,1-.6.42,0.2,0.2,0,0,0-.16.05c0,0.05,0,.07.08,0.07a1.49,1.49,0,0,0,.24,0l0.63-.34-0.19-.17h0Z" transform="translate(-598.8 -1187.7)"/>
      <path class="ae" d="M643.34,1197.52l0,0.23a0.43,0.43,0,0,1-.13.24,0.05,0.05,0,0,0-.06.05,0.14,0.14,0,0,0,.1.06,0.27,0.27,0,0,0,0,.17s-0.1.21,0,.27a0.77,0.77,0,0,0,.35.11,0.41,0.41,0,0,1,0,.31l-0.22.47,1.21-.12-0.25-.4a0.31,0.31,0,0,1-.09-0.31c0-.23,0-1.26,0-1.26l-0.87-.12Z" transform="translate(-598.8 -1187.7)"/>
      <path d="M643.37,1199.46l0.23-.5a0.62,0.62,0,0,0,0-.28,0.66,0.66,0,0,1-.37-0.11,0.17,0.17,0,0,1,0-.22,0.57,0.57,0,0,1,0-.24,0.09,0.09,0,0,1-.1-0.06l0.07-.08a0.42,0.42,0,0,0,.12-0.21l0-.23,0.06-.3,0.89,0.1a9.72,9.72,0,0,1,0,1.28,0.3,0.3,0,0,0,.08.29l0.26,0.41-1.26.16h0Zm0-2.22,0,0.28,0,0.22a0.45,0.45,0,0,1-.12.23l-0.07,0a0.09,0.09,0,0,0,.08.07,0.75,0.75,0,0,0,0,.18,0.08,0.08,0,0,1,0,.1c0,0.08,0,.15,0,0.17a0.89,0.89,0,0,0,.32.11,0.34,0.34,0,0,1,0,.33l-0.21.45,1.18-.12-0.27-.37h0a0.32,0.32,0,0,1-.09-0.32c0-.22,0-1.25,0-1.26l-0.85-.1h0Z" transform="translate(-598.8 -1187.7)"/>
      <path class="ae" d="M643.12,1199.32a0.72,0.72,0,0,0-.38.67c-0.1.47-.16,0.95-0.16,0.95s-0.46.53-.61,0.72-0.35.58-.43,0.68a1.82,1.82,0,0,0-.38.57c0,0.13-.07.69,0.24,0.75a2.09,2.09,0,0,0,.33-0.65,0.57,0.57,0,0,0-.07-0.35c-0.09-.05.19-0.24,0.19-0.24l0.65-.48c0.12-.09.44-0.46,0.44-0.46Z" transform="translate(-598.8 -1187.7)"/>
      <path d="M641.41,1203.66h0a0.61,0.61,0,0,1-.25-0.67s0-.07,0-0.09a1.22,1.22,0,0,1,.32-0.5l0.06-.08,0.16-.26c0.09-.15.19-0.31,0.27-0.42s0.6-.71.61-0.72h0a9,9,0,0,1,.15-0.94,0.73,0.73,0,0,1,.39-0.68l-0.15,2.17a5.45,5.45,0,0,1-.45.47l-0.65.48a0.52,0.52,0,0,0-.2.2,0.56,0.56,0,0,1,.09.38,1.74,1.74,0,0,1-.34.67h0Zm1.69-4.34a0.81,0.81,0,0,0-.34.66c-0.1.47-.16,0.95-0.16,0.95s-0.47.54-.61,0.73-0.18.27-.27,0.42-0.13.22-.17,0.26l-0.07.08a1.36,1.36,0,0,0-.31.47s0,0.05,0,.09a0.59,0.59,0,0,0,.22.64v0a2.16,2.16,0,0,0,.31-0.63,0.53,0.53,0,0,0-.06-0.33,0.36,0.36,0,0,1,.19-0.27l0.64-.48c0.12-.09.44-0.45,0.44-0.45l0.18-2.13h0Z" transform="translate(-598.8 -1187.7)"/>
      <path class="d" d="M643.57,1198.95a0.33,0.33,0,0,0,.33.23,1.49,1.49,0,0,0,.5-0.26,0.76,0.76,0,0,1,.24,0,2.36,2.36,0,0,1,.56.72,0.66,0.66,0,0,1-.34.23,0.89,0.89,0,0,0-.19.59,4.19,4.19,0,0,1,.14.57,1.72,1.72,0,0,1-.1.19,1.86,1.86,0,0,1,.07.25,2.9,2.9,0,0,0-.08.36c0,0.1,0,.4,0,0.4l0,1.39a0.19,0.19,0,0,1,.09.13c0,0.08.54,2.37,0.54,2.37a0.09,0.09,0,0,1-.08.06c-0.05,0,.21.35,0.22,0.46s0.28,0.91.27,1a1.24,1.24,0,0,1-.07.36,4.6,4.6,0,0,1,.14.58,0.62,0.62,0,0,1-.35.07l-0.09,0s0,0.1-.06.11-0.53,0-.53,0a0.49,0.49,0,0,1-.21.2c-0.08,0-.18-0.15-0.21-0.13s0.07,0.16,0,.2a0.43,0.43,0,0,1-.5-0.06c-0.08-.19,0-0.14,0-0.18a0.37,0.37,0,0,0-.26-0.11c-0.05,0,.14.08,0.13,0.16a0.35,0.35,0,0,1-.24.2,0.77,0.77,0,0,0-.43-0.26,1.81,1.81,0,0,0-.36.09,1,1,0,0,1-.37.09,0.19,0.19,0,0,1-.16-0.16,3,3,0,0,0,.07-0.31,1.11,1.11,0,0,1-.07-0.22,1.83,1.83,0,0,1,.18-0.42v-1.45s-0.17,0-.17-0.11,0.25-2.29.29-2.43,0.14-.64.14-0.64-0.12.05-.12,0,0.35-1.31.35-1.31,0.06-.62.06-0.79a3.59,3.59,0,0,0,0-.39,0.54,0.54,0,0,1-.33-0.35,1,1,0,0,1,.35-0.63l0.16-.44a0.77,0.77,0,0,1,.46-0.35h0Z" transform="translate(-598.8 -1187.7)"/>
      <path d="M644.16,1209.11a0.27,0.27,0,0,1-.27-0.13c-0.05-.13,0-0.16,0-0.18a0.42,0.42,0,0,0-.21-0.1,0.23,0.23,0,0,1,.13.14,0.36,0.36,0,0,1-.26.21,0.2,0.2,0,0,1-.11-0.08,0.45,0.45,0,0,0-.29-0.18,1.94,1.94,0,0,0-.39.09,1.18,1.18,0,0,1-.34.09,0.22,0.22,0,0,1-.21-0.18,0.71,0.71,0,0,1,0-.12,0.74,0.74,0,0,0,0-.19,0.28,0.28,0,0,0,0-.08,0.33,0.33,0,0,1,0-.15,1.68,1.68,0,0,1,.18-0.43v-1.44a0.14,0.14,0,0,1-.17-0.11c0-.11.25-2.3,0.29-2.44s0.11-.51.14-0.62l-0.07,0a0.09,0.09,0,0,1,0,0,0.16,0.16,0,0,0,.09,0,3.45,3.45,0,0,1-.12.67c0,0.13-.3,2.33-0.29,2.43s0.15,0.09.15,0.09l0,1.47a1.85,1.85,0,0,0-.18.42,0.29,0.29,0,0,0,0,.13,0.34,0.34,0,0,1,0,.09,0.68,0.68,0,0,1,0,.2,0.71,0.71,0,0,0,0,.11,0.17,0.17,0,0,0,.14.14,1.8,1.8,0,0,0,.36-0.09,1.81,1.81,0,0,1,.37-0.09,0.43,0.43,0,0,1,.36.19,0.27,0.27,0,0,0,.08.07,0.33,0.33,0,0,0,.22-0.18,0.15,0.15,0,0,0-.08-0.08l-0.06-.06a0.33,0.33,0,0,1,.3.09,0.14,0.14,0,0,0,0,.19,0.25,0.25,0,0,0,.24.11,0.51,0.51,0,0,0,.23,0,0.25,0.25,0,0,0,0-.09,0.11,0.11,0,0,1,0-.11,0.1,0.1,0,0,1,.1,0,0.3,0.3,0,0,0,.12.08h0a0.44,0.44,0,0,0,.2-0.19s0.38,0,.51,0a0.08,0.08,0,0,0,.07-0.09h0.11a0.51,0.51,0,0,0,.33-0.06,1.45,1.45,0,0,0-.09-0.38c-0.06-.18-0.06-0.2,0-0.21a1.82,1.82,0,0,0,.06-0.35,4.49,4.49,0,0,0-.16-0.6,4.22,4.22,0,0,1-.11-0.41,1.06,1.06,0,0,0-.13-0.27,0.32,0.32,0,0,1-.09-0.2,0.1,0.1,0,0,0,.08-0.06c0-.08-0.53-2.28-0.54-2.36a0.17,0.17,0,0,0-.08-0.11v-1.4s0-.3,0-0.4a0.47,0.47,0,0,1,0-.2,0.52,0.52,0,0,0,0-.15,0.41,0.41,0,0,0,0-.15,0.3,0.3,0,0,1,0-.1,0.13,0.13,0,0,1,0-.08,0.21,0.21,0,0,0,.06-0.11,0.94,0.94,0,0,0-.07-0.29,2.68,2.68,0,0,1-.08-0.28,0.92,0.92,0,0,1,.19-0.61,0.31,0.31,0,0,1,.17-0.09,0.17,0.17,0,0,0,.17-0.13,1.87,1.87,0,0,0-.55-0.7,0.35,0.35,0,0,0-.19,0,2.91,2.91,0,0,1-.54.26h0a0.38,0.38,0,0,1-.34-0.24,0.8,0.8,0,0,0-.42.35l-0.16.44a0.48,0.48,0,0,1-.1.13,0.63,0.63,0,0,0-.24.49,0.53,0.53,0,0,0,.32.33,1.93,1.93,0,0,1,0,.41c0,0.17-.06.79-0.06,0.79-0.12.42-.29,1-0.34,1.23a11.45,11.45,0,0,1,.3-1.24h0s0.06-.62.06-0.79a3.53,3.53,0,0,0,0-.39,0.49,0.49,0,0,1-.33-0.35,0.67,0.67,0,0,1,.25-0.52,0.45,0.45,0,0,0,.1-0.12l0.16-.44a0.77,0.77,0,0,1,.47-0.36,0.41,0.41,0,0,0,.28.23,1.47,1.47,0,0,0,.54-0.26,0.42,0.42,0,0,1,.27,0,2,2,0,0,1,.57.74,0.21,0.21,0,0,1-.19.16,0.3,0.3,0,0,0-.15.08,0.87,0.87,0,0,0-.19.58,2.6,2.6,0,0,0,.08.27,0.93,0.93,0,0,1,.07.31,0.25,0.25,0,0,1-.07.13,0.14,0.14,0,0,0,0,.14,0.46,0.46,0,0,1,0,.17,0.54,0.54,0,0,1,0,.17,0.43,0.43,0,0,0,0,.18c0,0.1,0,.4,0,0.4l0,1.39a0.14,0.14,0,0,1,.09.13c0,0.06.35,1.58,0.54,2.37a0.11,0.11,0,0,1-.09.09l0.09,0.15a1.05,1.05,0,0,1,.14.28,4.08,4.08,0,0,0,.11.41,3.8,3.8,0,0,1,.16.61,1.11,1.11,0,0,1-.08.38,0.92,0.92,0,0,1,.06.17,1.07,1.07,0,0,1,.09.41,0.45,0.45,0,0,1-.35.08l-0.12,0a0.07,0.07,0,0,1,0,.11,4.12,4.12,0,0,1-.53,0,0.39,0.39,0,0,1-.21.2,0.31,0.31,0,0,1-.15-0.09s0,0,0,0a0.16,0.16,0,0,1,0,.13,0.46,0.46,0,0,1-.26.06h0Z" transform="translate(-598.8 -1187.7)"/>
      <path class="f" d="M643.45,1209s-0.76.4-.87,0.43-0.18-.13-0.07-0.16a1.81,1.81,0,0,1,.28,0s-0.26-.2-0.25-0.21l0.36-.13a0.41,0.41,0,0,0,.18.19,1.43,1.43,0,0,0,.28-0.17l0.09,0.11h0Z" transform="translate(-598.8 -1187.7)"/>
      <path d="M642.55,1209.41a0.12,0.12,0,0,1-.12-0.11,0.09,0.09,0,0,1,.07-0.1,2,2,0,0,1,.29-0.05,0.69,0.69,0,0,1-.27-0.19,2.64,2.64,0,0,1,.38-0.15,0.54,0.54,0,0,0,.17.19,1.2,1.2,0,0,0,.27-0.17c0.13,0.12.13,0.12,0.13,0.13s-0.78.41-.89,0.44h0Zm0-.43a1.5,1.5,0,0,1,.25.18,1,1,0,0,1-.29.08,0.05,0.05,0,0,0,0,.06,0.09,0.09,0,0,0,.08.07v0l0,0c0.1,0,.81-0.4.87-0.43a0.48,0.48,0,0,0-.1-0.08,0.68,0.68,0,0,1-.26.18h0a0.28,0.28,0,0,1-.18-0.17,1.53,1.53,0,0,0-.36.11h0Z" transform="translate(-598.8 -1187.7)"/>
      <path class="ae" d="M644.53,1209.17c0.07,0.09.1,0.25,0.27,0.16s-0.08-.27-0.08-0.27Z" transform="translate(-598.8 -1187.7)"/>
      <path d="M644.7,1209.38h0a0.19,0.19,0,0,1-.15-0.13l0-.07,0.19-.14a0.29,0.29,0,0,1,.17.21,0.11,0.11,0,0,1-.07.09,0.19,0.19,0,0,1-.1,0h0Zm-0.16-.19a0.07,0.07,0,0,1,0,0c0,0.08.09,0.14,0.2,0.08a0.08,0.08,0,0,0,0-.06,0.29,0.29,0,0,0-.13-0.18l-0.16.11h0Z" transform="translate(-598.8 -1187.7)"/>
      <path class="ae" d="M644.83,1209.16a0.11,0.11,0,0,0,.15,0c0.07-.07-0.14-0.22-0.14-0.22l-0.1.12Z" transform="translate(-598.8 -1187.7)"/>
      <path d="M644.9,1209.2a0.17,0.17,0,0,1-.09,0l-0.1-.11,0.1-.14a0.33,0.33,0,0,1,.19.19,0.13,0.13,0,0,1-.11.09h0Zm-0.08-.26-0.08.12,0.15,0.11a0.09,0.09,0,0,0,.06,0,0.3,0.3,0,0,0-.14-0.19h0Z" transform="translate(-598.8 -1187.7)"/>
      <path d="M643.93,1199.86a1.63,1.63,0,0,1,.66-0.62l0,0a2,2,0,0,0-.68.59h0Z" transform="translate(-598.8 -1187.7)"/>
      <path class="a" d="M644.75,1199.33l-0.17.17Z" transform="translate(-598.8 -1187.7)"/>
      <path d="M644.69,1200a0.58,0.58,0,0,1,.26-0.47l0,0a0.7,0.7,0,0,0-.29.44h0Z" transform="translate(-598.8 -1187.7)"/>
      <path d="M643.49,1200.29a0.71,0.71,0,0,1,0-.29,1.49,1.49,0,0,0-.16-0.38l-0.06-.12a0.66,0.66,0,0,1,.08-0.3l0,0a0.62,0.62,0,0,0-.08.27l0.06,0.11a1.44,1.44,0,0,1,.17.39,1,1,0,0,1,0,.29h0Z" transform="translate(-598.8 -1187.7)"/>
      <path d="M643.43,1200.25c-0.05-.07-0.17-0.28-0.22-0.33a0.85,0.85,0,0,1-.09-0.31h0a0.87,0.87,0,0,0,.07.29,1.11,1.11,0,0,1,.19.36h0Z" transform="translate(-598.8 -1187.7)"/>
      <path d="M643.14,1200.69l-0.07,0,0,0a0.16,0.16,0,0,0,.12,0,0.5,0.5,0,0,0,.25-0.28,0.41,0.41,0,0,1-.24.32h-0.07Z" transform="translate(-598.8 -1187.7)"/>
      <path d="M644.27,1200.75a0.8,0.8,0,0,1-.39-0.12,0.42,0.42,0,0,1-.14-0.48c0-.08,0-0.08,0-0.08v0a0.59,0.59,0,0,0,0,.33,0.26,0.26,0,0,0,.13.17,0.64,0.64,0,0,0,.54.09,1.49,1.49,0,0,0,.22-0.11,0.31,0.31,0,0,1-.21.14,0.54,0.54,0,0,1-.17,0h0Z" transform="translate(-598.8 -1187.7)"/>
      <path d="M644.46,1201.58a1.4,1.4,0,0,1-.81-1h0a1.47,1.47,0,0,0,.77,1h0Z" transform="translate(-598.8 -1187.7)"/>
      <path d="M644,1201.7a0.77,0.77,0,0,1-.32-0.65h0a0.85,0.85,0,0,0,.28.65h0Z" transform="translate(-598.8 -1187.7)"/>
      <path d="M643.14,1201.28a2.46,2.46,0,0,0,.38-0.77h0a1.89,1.89,0,0,1-.42.76h0Z" transform="translate(-598.8 -1187.7)"/>
      <path d="M643.42,1201.68c0-.18,0-0.66,0-0.67h0a3.06,3.06,0,0,1-.07.67h0Z" transform="translate(-598.8 -1187.7)"/>
      <path d="M643.65,1202a0.51,0.51,0,0,1-.33-0.19l0,0a0.46,0.46,0,0,0,.31.17,0.33,0.33,0,0,0,.19-0.11,0.2,0.2,0,0,1,.18-0.08l0.1,0a0.7,0.7,0,0,0,.4.07,0.56,0.56,0,0,1-.41,0l-0.09,0a0.16,0.16,0,0,0-.14.07,0.36,0.36,0,0,1-.21.12h0Z" transform="translate(-598.8 -1187.7)"/>
      <path d="M644.27,1202.94a1.23,1.23,0,0,0-.07-0.39,0.92,0.92,0,0,1-.08-0.46h0a1,1,0,0,0,.06.43,0.7,0.7,0,0,1,0,.43h0Z" transform="translate(-598.8 -1187.7)"/>
      <path d="M643,1203a0.88,0.88,0,0,1,.07-0.52,2.38,2.38,0,0,0,.07-0.56h0a2.56,2.56,0,0,1-.06.52,1.42,1.42,0,0,0-.12.55h0Z" transform="translate(-598.8 -1187.7)"/>
      <path class="a" d="M642.7,1203.19a1.22,1.22,0,0,0,.17-0.13Z" transform="translate(-598.8 -1187.7)"/>
      <path d="M642.72,1205.46a8.08,8.08,0,0,1,.21-2.32h0a9.13,9.13,0,0,0-.24,2.31h0Z" transform="translate(-598.8 -1187.7)"/>
      <path d="M642.95,1204.5a4.34,4.34,0,0,1,.06-1.29h0a6,6,0,0,0-.1,1.28h0Z" transform="translate(-598.8 -1187.7)"/>
      <path d="M643.47,1203.23l-0.53,0v0l0.66,0a0.24,0.24,0,0,1-.13,0h0Z" transform="translate(-598.8 -1187.7)"/>
      <path d="M644,1203.22a0.69,0.69,0,0,1-.29-0.06l0,0a0.83,0.83,0,0,0,.42.08l-0.16,0h0Z" transform="translate(-598.8 -1187.7)"/>
      <path d="M643.56,1205.95c0-.41,0-2.25,0-2.27h0s0,1.86-.08,2.27h0Z" transform="translate(-598.8 -1187.7)"/>
      <path d="M644.92,1205.87a8.55,8.55,0,0,1-.36-1.77h0a10.52,10.52,0,0,0,.32,1.77h0Z" transform="translate(-598.8 -1187.7)"/>
      <path d="M644.41,1205.86a9.07,9.07,0,0,1-.23-1.56h0a13.77,13.77,0,0,0,.2,1.56h0Z" transform="translate(-598.8 -1187.7)"/>
      <path d="M642.41,1206.4v0a1.21,1.21,0,0,0,.46-0.31,0.45,0.45,0,0,0,.26.15,0.54,0.54,0,0,0,.38-0.13,1.09,1.09,0,0,0,.61.16,0.4,0.4,0,0,0,.26-0.2,0.42,0.42,0,0,0,.62,0,0.55,0.55,0,0,0,.27.2c-0.11.06-.24-0.13-0.27-0.17s-0.22.3-.61,0a0.34,0.34,0,0,1-.25.21,0.91,0.91,0,0,1-.61-0.16,0.5,0.5,0,0,1-.39.14,0.37,0.37,0,0,1-.26-0.16,1.05,1.05,0,0,1-.44.32h0Z" transform="translate(-598.8 -1187.7)"/>
      <path d="M645.37,1208.19a4.34,4.34,0,0,1-.79-1.83h0a4.86,4.86,0,0,0,.76,1.84h0Z" transform="translate(-598.8 -1187.7)"/>
      <path d="M643.14,1208.26c-0.11-.84-0.15-2-0.15-2.05h0s0,1.21.11,2.06h0Z" transform="translate(-598.8 -1187.7)"/>
      <path d="M642.88,1208.42c0-.06,0-0.48.05-0.86h0a4.9,4.9,0,0,1-.09.85h0Z" transform="translate(-598.8 -1187.7)"/>
      <path d="M643.6,1208.91h0a0.27,0.27,0,0,1-.13-0.21,0.23,0.23,0,0,0-.43-0.18,0.47,0.47,0,0,1-.41.13,0.25,0.25,0,0,1-.14-0.16h0a0.21,0.21,0,0,0,.12.13,0.43,0.43,0,0,0,.37-0.12,0.37,0.37,0,0,1,.34-0.11,0.31,0.31,0,0,1,.14.25,0.34,0.34,0,0,0,.11.23,0.18,0.18,0,0,0,.11-0.1,0.13,0.13,0,0,1-.1.14h0Z" transform="translate(-598.8 -1187.7)"/>
      <path d="M644.25,1208.71l-0.08,0a0.43,0.43,0,0,1-.12-0.37h0a0.4,0.4,0,0,0,.1.34,0.45,0.45,0,0,0,.42-0.17,0.61,0.61,0,0,1,.57-0.21,0.45,0.45,0,0,1,.21.37,0.6,0.6,0,0,0-.22-0.34,0.58,0.58,0,0,0-.53.21,0.67,0.67,0,0,1-.38.19h0Z" transform="translate(-598.8 -1187.7)"/>
      <path class="af" d="M643.32,1197.47a0.53,0.53,0,0,0,.27,0,0.19,0.19,0,0,1,.28,0,0.17,0.17,0,0,0,.13.1s-0.12.29,0,.32a0.24,0.24,0,0,1,.18.07,0.53,0.53,0,0,0-.07.17,0.56,0.56,0,0,1,.1.12,0.83,0.83,0,0,0,0,.2,0.4,0.4,0,0,0,.14.16s0,0.2.16,0.15a0.18,0.18,0,0,0,.13-0.17,0.24,0.24,0,0,0,.19-0.16,0.23,0.23,0,0,1,.13-0.16s0.19-.1-0.06-0.26c0-1.11-.72-1-0.72-1a0.26,0.26,0,0,0-.23-0.17,2.7,2.7,0,0,1-.25.17,0.25,0.25,0,0,1-.13-0.08,0.84,0.84,0,0,0-.09.21s-0.28-.06-0.25.15,0.16,0.2.15,0.18h0Z" transform="translate(-598.8 -1187.7)"/>
      <path d="M644.42,1198.78a0.12,0.12,0,0,1-.1-0.11,0.66,0.66,0,0,1-.15-0.18,0.15,0.15,0,0,1,0-.16,0.29,0.29,0,0,0,0-.07,0.24,0.24,0,0,0-.05-0.07,0.11,0.11,0,0,1,0-.16c0-.07,0-0.08-0.06-0.09l-0.08,0a0.4,0.4,0,0,1,0-.34s-0.06,0-.13-0.09a0.17,0.17,0,0,0-.26,0,0.55,0.55,0,0,1-.28,0c-0.06,0-.15,0-0.17-0.2a0.14,0.14,0,0,1,0-.11,0.2,0.2,0,0,1,.16,0h0.07a0.71,0.71,0,0,1,.09-0.21,0.47,0.47,0,0,0,.15.07s0.06,0,.09-0.06a0.24,0.24,0,0,1,.15-0.11,0.34,0.34,0,0,1,.25.18c0.21,0,.73.06,0.73,1a0.2,0.2,0,0,1,.13.16,0.15,0.15,0,0,1-.08.11,0.22,0.22,0,0,0-.12.15,0.26,0.26,0,0,1-.2.17,0.17,0.17,0,0,1-.13.17h0Zm-0.69-1.4a0.18,0.18,0,0,1,.15.08,0.18,0.18,0,0,0,.12.1,1,1,0,0,0,0,.3l0.1,0c0.07,0,.11,0,0.12.07a0.13,0.13,0,0,1,0,.08,0.12,0.12,0,0,0,0,.07,0.43,0.43,0,0,1,.1.13,0.2,0.2,0,0,1,0,.09,0.28,0.28,0,0,0,0,.1,0.42,0.42,0,0,0,.13.15h0l0,0.07c0,0.05,0,.09.07,0.09v0l0,0a0.16,0.16,0,0,0,.12-0.15,0.33,0.33,0,0,0,.19-0.17,0.25,0.25,0,0,1,.15-0.18h0a0.11,0.11,0,0,0,.05-0.08,0.2,0.2,0,0,0-.12-0.14c0-.89-0.46-1-0.65-1h-0.08a0.27,0.27,0,0,0-.19-0.16,0.22,0.22,0,0,0-.15.1,0.15,0.15,0,0,1-.11.08,0.22,0.22,0,0,1-.15-0.08,2,2,0,0,0-.07.18l-0.08,0a0.22,0.22,0,0,0-.16,0,0.1,0.1,0,0,0,0,.08,0.16,0.16,0,0,0,.12.17h0.1a0.38,0.38,0,0,0,.17,0,0.31,0.31,0,0,1,.15,0h0Z" transform="translate(-598.8 -1187.7)"/>
      <path d="M644.47,1197.77a0.18,0.18,0,0,1-.1-0.25,0.22,0.22,0,0,1-.25-0.06,0.32,0.32,0,0,1-.07-0.26h0a0.3,0.3,0,0,0,.06.22,0.28,0.28,0,0,0,.24.07,0.23,0.23,0,0,0,.1.25h0Z" transform="translate(-598.8 -1187.7)"/>
      <path d="M644.76,1198.23a0.35,0.35,0,0,0,.05-0.14,0.13,0.13,0,0,0-.06-0.08v0a0.15,0.15,0,0,1,.09.09,0.15,0.15,0,0,1-.08.17h0Z" transform="translate(-598.8 -1187.7)"/>
      <path d="M644.71,1198.46l-0.1,0a0.34,0.34,0,0,0-.22-0.09,0.21,0.21,0,0,1-.18-0.08l0,0a0.18,0.18,0,0,0,.15.06,0.38,0.38,0,0,1,.24.09l0.11,0s0,0,0,0h0Z" transform="translate(-598.8 -1187.7)"/>
      <path d="M643.81,1198.59h-0.07v0s0.25,0.09.42-.31a0.4,0.4,0,0,1-.36.36h0Z" transform="translate(-598.8 -1187.7)"/>
      <path class="a" d="M643.25,1198.11h0Z" transform="translate(-598.8 -1187.7)"/>
      <polygon class="a" points="44.47 10.57 44.61 10.57 44.49 10.63 44.47 10.57"/>
      <path class="a" d="M643.47,1197.83a0.23,0.23,0,0,1,.13,0S643.5,1197.86,643.47,1197.83Z" transform="translate(-598.8 -1187.7)"/>
      <path class="ae" d="M645.17,1199.7a10,10,0,0,1,.29,1,6.33,6.33,0,0,1,.09,1.1c0,0.11-.44.64-0.49,0.77s-0.33.65-.33,0.65a3.8,3.8,0,0,1-.1.53,0.87,0.87,0,0,0,.07.19,0.55,0.55,0,0,1-.32.24,0.36,0.36,0,0,1-.25-0.24,1.18,1.18,0,0,1,.08-0.53c0.07-.09.44-1,0.47-1a7.72,7.72,0,0,0,.35-0.86,0.84,0.84,0,0,0-.21-0.49c-0.25-.73-0.15-1.17.36-1.32h0Z" transform="translate(-598.8 -1187.7)"/>
      <path d="M644.4,1204.17h0a0.38,0.38,0,0,1-.27-0.25,1.21,1.21,0,0,1,.08-0.54,8.64,8.64,0,0,0,.44-1l0-.11a6.76,6.76,0,0,0,.32-0.79,0.82,0.82,0,0,0-.2-0.48,1.34,1.34,0,0,1-.06-1,0.66,0.66,0,0,1,.43-0.32h0a7,7,0,0,1,.32,1,6.45,6.45,0,0,1,.09,1.11,3.07,3.07,0,0,1-.23.36,3.21,3.21,0,0,0-.26.41c0,0.13-.32.63-0.33,0.65a2.36,2.36,0,0,1-.11.53l0,0.07a0.18,0.18,0,0,1,0,.11,0.6,0.6,0,0,1-.33.26h0Zm0.76-4.46a0.67,0.67,0,0,0-.38.31,1.31,1.31,0,0,0,.06,1,0.84,0.84,0,0,1,.21.5,5.74,5.74,0,0,1-.32.81l-0.06.1h0a9.59,9.59,0,0,1-.45,1,1.19,1.19,0,0,0-.07.51,0.35,0.35,0,0,0,.24.22h0a0.6,0.6,0,0,0,.29-0.23,0.26,0.26,0,0,0,0-.08c0-.05-0.06-0.1,0-0.12a3.71,3.71,0,0,0,.1-0.51s0.29-.52.33-0.65a3.18,3.18,0,0,1,.27-0.42,3.22,3.22,0,0,0,.22-0.35,6.6,6.6,0,0,0-.09-1.09c0-.19-0.27-0.93-0.29-1h0Z" transform="translate(-598.8 -1187.7)"/>
      <path class="a" d="M641.5,1203.08v0Z" transform="translate(-598.8 -1187.7)"/>
      <path d="M641.4,1203.63a2,2,0,0,0-.24-0.56l0,0a1.36,1.36,0,0,1,.21.58h0Z" transform="translate(-598.8 -1187.7)"/>
      <path d="M644.32,1204.09a0.54,0.54,0,0,0-.1-0.21,0.11,0.11,0,0,0-.08,0v0a0.14,0.14,0,0,1,.11,0,0.3,0.3,0,0,1,.07.24,0.37,0.37,0,0,1,.3-0.37,0.6,0.6,0,0,0-.3.38h0Z" transform="translate(-598.8 -1187.7)"/>
      <path class="f" d="M643.58,1211.72a8,8,0,0,0,5.45-2.52,1.05,1.05,0,0,1,.81-0.58c0.37,0.09.9,1.18,1.55,1.41a0.81,0.81,0,0,1-.23,1.06c-0.14.09-.76,0.35-0.86,0s-0.28-.3-0.28-0.3-3,2.89-6.38,2.77-6.45-2.77-6.45-2.77l-0.25.28a0.85,0.85,0,0,1-.42.28,1.34,1.34,0,0,1-.79-0.81,0.76,0.76,0,0,1,.37-0.65,4.41,4.41,0,0,0,1.13-1.2c0.23-.23.67,0.16,0.67,0.16s2.68,3.07,5.66,2.89h0Z" transform="translate(-598.8 -1187.7)"/>
      <path d="M643.84,1213.59h-0.2c-3.53,0-6.44-2.76-6.47-2.78l-0.2.28a0.93,0.93,0,0,1-.43.29,1.34,1.34,0,0,1-.84-0.84,0.79,0.79,0,0,1,.39-0.68,4.44,4.44,0,0,0,1.12-1.18c0.25-.28.72,0.13,0.73,0.14s2.71,3.06,5.63,2.88a8,8,0,0,0,5.42-2.5,1.11,1.11,0,0,1,.85-0.6,1.64,1.64,0,0,1,.61.56,2.65,2.65,0,0,0,.95.85,0.83,0.83,0,0,1-.22,1.13,1.27,1.27,0,0,1-.58.18,0.3,0.3,0,0,1-.33-0.22c-0.06-.25-0.16-0.28-0.2-0.28s-2.9,2.78-6.21,2.78h0Zm-6.67-2.84c0.08,0,3,2.76,6.43,2.76h0.24c3.28,0,6.12-2.74,6.15-2.77s0.27,0,.34.32a0.23,0.23,0,0,0,.26.17,1.21,1.21,0,0,0,.54-0.17,0.77,0.77,0,0,0,.22-1,2.6,2.6,0,0,1-1-.85,1.71,1.71,0,0,0-.57-0.54h0a1.13,1.13,0,0,0-.75.54,7.93,7.93,0,0,1-5.49,2.55h-0.26c-2.86,0-5.4-2.88-5.43-2.91h0a0.65,0.65,0,0,0-.62-0.16,4.35,4.35,0,0,1-1.14,1.21,0.73,0.73,0,0,0-.36.61,1.31,1.31,0,0,0,.75.77h0a0.83,0.83,0,0,0,.38-0.26l0.25-.28h0Z" transform="translate(-598.8 -1187.7)"/>
      <path d="M637.19,1210.79s-0.69-.68-0.79-0.79a0.41,0.41,0,0,0-.34,0l0-.07a0.47,0.47,0,0,1,.41.05c0.1,0.12.79,0.79,0.79,0.79l-0.05.05h0Z" transform="translate(-598.8 -1187.7)"/>
      <path d="M637,1211.06l-0.07,0a0.29,0.29,0,0,0,0-.26,0.84,0.84,0,0,0-.49-0.29l0.26-.27,0,0.06-0.25.19a0.62,0.62,0,0,1,.5.28,0.37,0.37,0,0,1,0,.32h0Z" transform="translate(-598.8 -1187.7)"/>
      <path d="M650.05,1210.79l-0.06,0a9.16,9.16,0,0,1,.77-0.78,0.38,0.38,0,0,1,.39-0.09l0,0.07a0.31,0.31,0,0,0-.31.08,9.44,9.44,0,0,0-.75.76h0Z" transform="translate(-598.8 -1187.7)"/>
      <path d="M650.29,1211.1a0.53,0.53,0,0,1,.07-0.45,0.66,0.66,0,0,1,.45-0.23l-0.32-.16,0-.06,0.3,0.23a2.17,2.17,0,0,0-.42.26,0.46,0.46,0,0,0-.05.39l-0.07,0h0Z" transform="translate(-598.8 -1187.7)"/>
      <rect class="c" width="29.84" height="14.92"/>
      <path class="d" d="M598.8,1187.7v1.67l26.51,13.25h3.34V1201l-26.51-13.25H598.8Zm29.84,0v1.67l-26.51,13.25H598.8V1201l26.51-13.25h3.34Z" transform="translate(-598.8 -1187.7)"/>
      <path class="d" d="M611.23,1202.62h5V1187.7h-5v14.92Zm-12.43-5h29.84v-5H598.8v5Z" transform="translate(-598.8 -1187.7)"/>
      <path class="ag" d="M598.8,1196.65h29.84v-3H598.8v3Zm13.43,6h3V1187.7h-3v14.92Z" transform="translate(-598.8 -1187.7)"/>
      <path class="ag" d="M598.8,1202.62l9.95-5H611l-9.95,5H598.8Zm0-14.92,9.95,5h-2.22l-7.72-3.86v-1.11Zm17.67,5,9.95-5h2.22l-9.95,5h-2.22Zm12.17,9.95-9.95-5h2.22l7.72,3.86v1.11Z" transform="translate(-598.8 -1187.7)"/>
      <path d="M639.57,1210.67l0,0a0.2,0.2,0,0,0-.14,0,1.06,1.06,0,0,0-.22.11l-0.92.53,0,0,0.23-1.07a1.2,1.2,0,0,0,0-.24,0.15,0.15,0,0,0-.06-0.09l0,0,0.49,0.35,0,0h0a0.2,0.2,0,0,0-.1,0,0,0,0,0,0,0,0l0,0,0,0.13-0.15.67,0.53-.31,0.12-.08,0,0a0.08,0.08,0,0,0,0,0,0.09,0.09,0,0,0,0-.05,0.3,0.3,0,0,0-.08-0.07l0,0,0.34,0.24h0Zm0.33,1.59,0,0-0.58-.32,0,0,0,0,0.09,0,0.05,0,0.06-.1,0.4-.73a0.41,0.41,0,0,0,0-.11,0.08,0.08,0,0,0,0-.06,0.14,0.14,0,0,0-.06-0.06l0,0,0,0,0.58,0.32,0,0,0,0a0.14,0.14,0,0,0-.09,0l-0.06,0a0.35,0.35,0,0,0-.07.1l-0.4.73a0.37,0.37,0,0,0,0,.11,0.11,0.11,0,0,0,0,.06l0.07,0.06,0,0h0Zm2.12-.5-0.15.42h0a0.57,0.57,0,0,0-.08-0.33,0.44,0.44,0,0,0-.23-0.18,0.34,0.34,0,0,0-.25,0,0.42,0.42,0,0,0-.2.16,1.07,1.07,0,0,0-.13.26,1.06,1.06,0,0,0-.07.31,0.36,0.36,0,0,0,.06.24,0.37,0.37,0,0,0,.19.14l0.09,0h0.1l0.09-.25a0.28,0.28,0,0,0,0-.1,0.1,0.1,0,0,0,0-.05l-0.07,0h0v0l0.58,0.2v0h-0.1l-0.06,0a0.26,0.26,0,0,0,0,.08l-0.09.25a1.25,1.25,0,0,1-.53-0.07,0.77,0.77,0,0,1-.27-0.14,0.82,0.82,0,0,1-.16-0.19,0.62,0.62,0,0,1-.07-0.22,0.63,0.63,0,0,1,0-.29,0.64,0.64,0,0,1,.35-0.38,0.69,0.69,0,0,1,.54,0l0.16,0.07,0.11,0.09,0.09,0.07h0.05l0.06-.05h0Zm0.89,1.43v0l-0.65-.1v0h0.13l0,0a0.41,0.41,0,0,0,0-.12l0.13-.82a0.43,0.43,0,0,0,0-.12,0.1,0.1,0,0,0,0,0l-0.08,0h0v0l0.65,0.1v0H643a0.08,0.08,0,0,0,0,0,0.36,0.36,0,0,0,0,.11l-0.12.82a0.42,0.42,0,0,0,0,.12,0.1,0.1,0,0,0,0,0l0.08,0h0Zm1.7-.41,0,0.45-1.12.06v0h0l0.09,0a0.09,0.09,0,0,0,0,0,0.38,0.38,0,0,0,0-.12l0-.83a0.43,0.43,0,0,0,0-.12l0,0-0.08,0h0v0l0.67,0v0H644l-0.09,0a0.09,0.09,0,0,0,0,0,0.37,0.37,0,0,0,0,.12l0,0.8a0.42,0.42,0,0,0,0,.12,0.07,0.07,0,0,0,0,0h0.22a0.35,0.35,0,0,0,.17,0,0.3,0.3,0,0,0,.11-0.12,0.86,0.86,0,0,0,.08-0.23h0Zm1.23-.21-0.43.13,0,0.13a0.28,0.28,0,0,0,0,.11,0.08,0.08,0,0,0,.06.06h0.13v0l-0.4.12v0a0.2,0.2,0,0,0,.09-0.09,0.78,0.78,0,0,0,0-.21l0.15-1.1h0l0.73,0.86a0.63,0.63,0,0,0,.16.15,0.14,0.14,0,0,0,.1,0v0l-0.59.18v0h0a0.2,0.2,0,0,0,.09-0.05,0,0,0,0,0,0,0v0l0-.06-0.11-.13h0Zm0-.06-0.3-.36-0.06.47,0.37-.11h0Zm1.62-1.65,0.16,0.3,0,0a0.54,0.54,0,0,0-.14-0.12,0.27,0.27,0,0,0-.13,0l-0.12,0-0.08,0,0.46,0.86,0.07,0.1,0.06,0,0.08,0,0,0,0,0-0.58.31,0,0,0,0a0.18,0.18,0,0,0,.07-0.06,0.08,0.08,0,0,0,0-.06,0.34,0.34,0,0,0,0-.11l-0.46-.86-0.08,0a0.27,0.27,0,0,0-.14.14,0.36,0.36,0,0,0,0,.24l0,0-0.16-.3,1-.54h0Zm0.76-.45,0.31,0.41,0,0a0.2,0.2,0,0,0,.09-0.17,0.47,0.47,0,0,0-.08-0.22l0,0,0.4,0.53,0,0a0.48,0.48,0,0,0-.14-0.11,0.19,0.19,0,0,0-.12,0,0.32,0.32,0,0,0-.12.06l0.21,0.29,0.08,0.1h0l0.07,0,0.06,0a0.45,0.45,0,0,0,.18-0.24,0.45,0.45,0,0,0,0-.29l0,0,0.2,0.36-0.87.66,0,0,0,0a0.17,0.17,0,0,0,.06-0.07,0.09,0.09,0,0,0,0-.06,0.39,0.39,0,0,0-.06-0.1l-0.5-.66-0.07-.08-0.06,0a0.17,0.17,0,0,0-.09,0l0,0,0,0,0.85-.64,0.22,0.3,0,0a0.46,0.46,0,0,0-.18-0.11,0.28,0.28,0,0,0-.16,0l-0.17.1-0.1.08h0Z" transform="translate(-598.8 -1187.7)"/>
    </g>
  </g>
</svg>
