<svg xmlns="http://www.w3.org/2000/svg" xmlns:xlink="http://www.w3.org/1999/xlink" viewBox="0 0 58.92 34.37">
  <defs>
    <style>
      .a {
        fill: none;
      }

      .b {
        clip-path: url(#a);
      }

      .c {
        fill: #fff;
      }

      .d {
        fill: #46ac3e;
      }

      .e {
        fill: #c0003b;
      }
    </style>
    <clipPath id="a" transform="translate(-740.18 -1187.7)">
      <rect class="a" x="740.18" y="1187.7" width="58.92" height="34.37"/>
    </clipPath>
  </defs>
  <title>Wales</title>
  <g class="b">
    <rect class="c" width="58.92" height="17.19"/>
    <rect class="d" y="17.19" width="58.92" height="17.19"/>
    <g class="b">
      <path class="e" d="M791.58,1192.52c-0.34,2.41,0,5.91.6,7a3.61,3.61,0,0,1-1.93-1.68l-0.85,2.64c1.8,3.65-2.87,6.52-6.76,6.72,2.37,1.29,5.48,2.89,5.48,3.73-0.94.36-1.51-.65-2.26-1,0.81,2.1.31,3.66-.11,5.73-0.41.48,0,.81,0.16,1.21l1.12,0.44,0.18,0.16a1.21,1.21,0,0,1,1,1.14,1.24,1.24,0,0,0-1.24-.43l-0.27.18-0.63-.38a2.12,2.12,0,0,0-2.17-.11,1.15,1.15,0,0,1-1.16,0,1.42,1.42,0,0,0-1.37-.05s-1,.65-1,0.65l-0.25-.05a2.8,2.8,0,0,0-1.45.51,1.11,1.11,0,0,1,1-1.08c-0.07-.23.1-0.19,0.14-0.29a2.66,2.66,0,0,1,1.23-.36l-2.35-.11,0-.11a1.06,1.06,0,0,0-1.21.41,1.22,1.22,0,0,1,1.08-1.14,1,1,0,0,1,1-.22l2.08,0.78c-0.16-.05-2.64-1.12-2.64-1.12a0.23,0.23,0,0,1,0-.31,1,1,0,0,0-1.14,0,1,1,0,0,1,1.23-.71,0.3,0.3,0,0,1,.52-0.12l0.89,0.87,0.83,0.52a1.69,1.69,0,0,0,2.28-.88,0.78,0.78,0,0,1,.4-1.16,1.53,1.53,0,0,1,.07-1.14,1.82,1.82,0,0,1-.15-1.52,1.66,1.66,0,0,1-.76-0.71,1.23,1.23,0,0,1-1.09-.25,1.63,1.63,0,0,1-1.84-.27,2.08,2.08,0,0,1-2-.27,1.81,1.81,0,0,1-1.84-.83,10.63,10.63,0,0,0-1.16-.38,3.08,3.08,0,0,1-.92.94,1.43,1.43,0,0,0,.07,1.86l1.9,0.72a1.58,1.58,0,0,1,1.77,1.72,4.38,4.38,0,0,0-.83-0.27l-1.12-.4a8.29,8.29,0,0,1-5.19,3.81,4.29,4.29,0,0,0,1.36.2l0.49,0.29c0.7,0.15,1.2.37,1.19,1a0.91,0.91,0,0,0-1.3-.25c-0.75.31-1.18-.37-1.77-0.56a1.27,1.27,0,0,0-1.43,0,2.32,2.32,0,0,0-1.63-.09,3.08,3.08,0,0,0-1.86.65,0.22,0.22,0,0,1-.34-0.07,1,1,0,0,0-1.18.45,0.79,0.79,0,0,1,.67-1.12l-0.9-.52c0-.1-0.09-0.12.09-0.16a0.88,0.88,0,0,0-1.1.31,1.09,1.09,0,0,1,1.36-1,1,1,0,0,1,1.17.07,1.81,1.81,0,0,0,1.5.23,1.41,1.41,0,0,0-1.1-.83c-0.47-.11-1-0.28-0.85-0.56-0.29-.41-0.7-0.28-1.16.05a0.93,0.93,0,0,1,1.41-.63c0.09-.29.4-0.35,0.65-0.05a1.56,1.56,0,0,1,.69.58,3.09,3.09,0,0,0,1.7.78,3.66,3.66,0,0,1,1.77-.36,0.78,0.78,0,0,1,.9-0.63A0.86,0.86,0,0,1,772,1214a0.82,0.82,0,0,1-.74-0.51c-1.16,0-1.93-.16-2-0.92-1.06-.33-1.72-1.13-1.3-2a1.82,1.82,0,0,1-1.32,0c-0.73.64-1.87,1.42-2.57,1a5.09,5.09,0,0,1-1.12.75,5.44,5.44,0,0,1-.72,1.83,6.76,6.76,0,0,1-.87-2.43,27.28,27.28,0,0,1-2.51,2.68,5.21,5.21,0,0,0-1.27,2.42,5.89,5.89,0,0,0,1.74.36,0.48,0.48,0,0,0,.18.18,1,1,0,0,1,1.07,1,0.87,0.87,0,0,0-1.1-.22,1.53,1.53,0,0,1-1.57,0,1.31,1.31,0,0,0-1.75-.36c-0.71.58-1-.3-2.11,0.31-0.78.71-1.86,0.77-2.15,0.34a1.29,1.29,0,0,0-1.3.6c0.22-1.32,1-1.19,1-1.19l0-.42-0.31-.11a1.64,1.64,0,0,0-1.54.07,1.23,1.23,0,0,1,1.61-.78l0.33-.36c-0.25-.1-0.19-0.27-0.13-0.43a0.61,0.61,0,0,0-1-.05c0.13-.84.93-0.79,1.48-0.42a1.85,1.85,0,0,1,1.38.42c1.28,0.43,2.08.49,3.38-1.17a1.49,1.49,0,0,1,.76-1.57,0.78,0.78,0,0,1,.54-1.19,0.77,0.77,0,0,1,.11-0.89,8,8,0,0,0-2.77.32,4.83,4.83,0,0,1-1.1,2c0-2-1.12-3.35-2.5-4.83a6.49,6.49,0,0,1-2.4-3.8,2.39,2.39,0,0,1-.49.9c-0.35.38-.11,1.25-0.84,1.27a1.16,1.16,0,0,1-1.49.34,1,1,0,0,0,1-.94c-0.48-.12-0.06-0.52.18-0.67s0.53-1,.78-1l0.31-2.84a1.34,1.34,0,0,1-1-1.36c-0.23-.29-0.39-0.72-0.07-0.88a1.21,1.21,0,0,0-.81-0.88c1.19-.21,1.34.52,1.65,0.58s0.59,1.41,1,2a3.72,3.72,0,0,1,.16-2.64,1.39,1.39,0,0,0-.69-1.25,1.72,1.72,0,0,1,1.46,1.07c0.64,0.83-.22,1.41.05,1.79a0.92,0.92,0,0,1,.6-0.45,1.47,1.47,0,0,0,.42-1.18,1,1,0,0,1,.27,1.39,1,1,0,0,1-.58,1.25,0.81,0.81,0,0,0-.54.92,6,6,0,0,1,.74,2.69,1.1,1.1,0,0,1,.81,1.16,1.19,1.19,0,0,1,1.21.81,0.88,0.88,0,0,1,1.18.32,0.53,0.53,0,0,1,.65-0.16,1,1,0,0,1,.47-0.78,1.81,1.81,0,0,1-.11-2.62c-0.16-1,.14-1.92.65-2a1.62,1.62,0,0,1,.74-1.68,1.39,1.39,0,0,1,.69-1.41,1.23,1.23,0,0,1,.72-1.52s-0.31-.72-0.31-0.72a2.13,2.13,0,0,0-1.73,1.57,5.57,5.57,0,0,1-.36-0.71s-0.59,1.57-.61,1.54a1,1,0,0,1-.28-1.07,3.16,3.16,0,0,1-.45-1.37l-4.14-.18s0.47,0.87.47,0.85c-0.49,0-2.88-2-3.34-3.78a8.59,8.59,0,0,0,3.92,1.5l-1.1.54a32.19,32.19,0,0,0,7.74-.4,2.18,2.18,0,0,0-1.83-.89v0.6l-0.38-.27c0,0.15,0,.3,0,0.45l-0.29-.2-0.09.38-0.29-.2-0.13.34-0.33-.25a0.83,0.83,0,0,1-.29,0,1.11,1.11,0,0,0-1-.92,13.69,13.69,0,0,0-2.68.13c1.31-1.64,3.11-1.49,4.83-1.66a1.46,1.46,0,0,1,1.52-1l3.54,0.18a3.75,3.75,0,0,1,1.86-.85,2.76,2.76,0,0,0,1.48-.74c-0.11.82-.12,1-0.18,1.48l0.45,0.05-1.37.9c-0.46.69-.37,0.7-0.17,1.07l0.42,0.72a1.9,1.9,0,0,1,1.37,1c-0.76-.09-1.31.05-1.3,0.38a1.61,1.61,0,0,0,.83.5,1.66,1.66,0,0,1,.6,1.28c-0.56,0-1.29-.87-1.68-0.09a0.8,0.8,0,0,0,.51,1.07,1.61,1.61,0,0,1,1,1.46s-2-1.29-1.86-.09a0.78,0.78,0,0,0,.42.81,1.11,1.11,0,0,1,1,1.08c-0.84-.3-1.23-0.06-1.34.42l0.33,0.94,3.4-.69a2.48,2.48,0,0,0,.67-2c0.06-1.2-.37-2.26,1.16-3.6a62.27,62.27,0,0,1,10.05-6.74c-0.73,1.22-1.26,3.51.66,3.65,0.62,0,7.38-2.84,7.38-2.84-2.35,1.72-5.06,4.12-1.92,5.15-2.88.9-5.28,3.81-3.18,6.17-1.5-.43-3.46.54-3.81,1.63a13.87,13.87,0,0,1,4.86.45s4.52,0.9,4.83-1.09c-2.41.52-4.2,0.28-4.29-1.9,0-1.87,2.83-2.92,5.22-1.52l0.73-1.52a6.91,6.91,0,0,1-2.57,0,56,56,0,0,0,5.13-5.39h0Z" transform="translate(-740.18 -1187.7)"/>
      <path d="M750.54,1219.1h0a0.06,0.06,0,0,1,0-.06c0.19-1.15.84-1.24,1-1.24l0-.35-0.27-.06a1.65,1.65,0,0,0-1.48.06,0.05,0.05,0,0,1-.07,0,0.06,0.06,0,0,1,0-.06,1.1,1.1,0,0,1,1.21-.86,3,3,0,0,1,.47,0l0.22-.28a0.29,0.29,0,0,1-.13-0.13,0.45,0.45,0,0,1,0-.35,0.6,0.6,0,0,0-.9,0,0.06,0.06,0,0,1-.07,0,0.06,0.06,0,0,1,0-.06,0.76,0.76,0,0,1,.78-0.72,1.5,1.5,0,0,1,.8.27,0.17,0.17,0,0,1,.18-0.06,2.85,2.85,0,0,1,1.19.48,3.92,3.92,0,0,0,1.19.25,2.77,2.77,0,0,0,2.11-1.41,1.47,1.47,0,0,1,.73-1.56,0.83,0.83,0,0,1-.06-0.68,1,1,0,0,1,.58-0.52,0.83,0.83,0,0,1,.12-0.81,7.91,7.91,0,0,0-2.66.32,4.5,4.5,0,0,1-1.08,2,0.06,0.06,0,0,1-.07,0,0.06,0.06,0,0,1,0-.05c0-2-1.11-3.33-2.48-4.79a6.53,6.53,0,0,1-2.38-3.63,2.51,2.51,0,0,1-.41.72,1.22,1.22,0,0,0-.23.56,0.72,0.72,0,0,1-.67.75,1.13,1.13,0,0,1-.93.48,1.23,1.23,0,0,1-.59-0.15,0.06,0.06,0,0,1,0-.06,0.06,0.06,0,0,1,0,0,1,1,0,0,0,1-.84,0.26,0.26,0,0,1-.2-0.2,0.78,0.78,0,0,1,.43-0.56,1.31,1.31,0,0,0,.26-0.36,1.31,1.31,0,0,1,.5-0.6l0.3-2.75a1.36,1.36,0,0,1-1-1.4,0.88,0.88,0,0,1-.24-0.68,0.36,0.36,0,0,1,.15-0.22,1.12,1.12,0,0,0-.75-0.8,0.06,0.06,0,0,1,0-.06,0.06,0.06,0,0,1,0-.05,1.39,1.39,0,0,1,1.44.41,0.56,0.56,0,0,0,.23.17,2.17,2.17,0,0,1,.57,1c0.08,0.21.17,0.43,0.26,0.63a3.93,3.93,0,0,1,.28-2.21,1.33,1.33,0,0,0-.66-1.18,0.06,0.06,0,0,1,0-.07s0-.07.06,0a1.64,1.64,0,0,1,1.49,1,1.22,1.22,0,0,1,.13,1.34,0.69,0.69,0,0,0-.08.43l0.11-.14a0.56,0.56,0,0,1,.42-0.29,1.31,1.31,0,0,0,.41-1.11,0.06,0.06,0,0,1,0-.05,0.06,0.06,0,0,1,.06,0,1,1,0,0,1,.3,1.46,1.06,1.06,0,0,1-.61,1.28,0.75,0.75,0,0,0-.51.86c0.61,0.64.74,2.62,0.74,2.7a1.07,1.07,0,0,1,.82,1.1,1.32,1.32,0,0,1,1.18.78,1,1,0,0,1,1.14.34,0.59,0.59,0,0,1,.6-0.15,1.08,1.08,0,0,1,.43-0.7,1.85,1.85,0,0,1-.58-1.3,1.73,1.73,0,0,1,.53-1.37c-0.17-.93.12-1.86,0.63-2A1.55,1.55,0,0,1,757,1200l0.13-.12a1.31,1.31,0,0,1,.28-1.07,0.9,0.9,0,0,1,.37-0.34,1,1,0,0,1,.08-0.85,1.23,1.23,0,0,1,.66-0.67l-0.27-.61a2.06,2.06,0,0,0-1.64,1.52,0.06,0.06,0,0,1,0,0,0.06,0.06,0,0,1-.06,0,4.92,4.92,0,0,1-.31-0.58c-0.54,1.44-.56,1.44-0.61,1.44a1,1,0,0,1-.34-1.14,1.43,1.43,0,0,1-.35-0.88,3,3,0,0,0-.1-0.46l-2-.05-2-.09,0.41,0.75a0.05,0.05,0,0,1,0,.06,0.06,0.06,0,0,1-.06,0c-0.57,0-2.94-2.08-3.4-3.82a0.06,0.06,0,0,1,0-.07,0.06,0.06,0,0,1,.07,0,8.46,8.46,0,0,0,3.84,1.48,0.1,0.1,0,0,1,.08.06s0,0.05,0,.07l-0.91.45c0.6,0,1.24.07,1.91,0.07a33.68,33.68,0,0,0,5.52-.46,2.13,2.13,0,0,0-1.68-.79v0.54a0.06,0.06,0,0,1-.09,0l-0.29-.21v0.34a0.06,0.06,0,0,1,0,.05,0.06,0.06,0,0,1-.06,0l-0.22-.15-0.07.3a0.06,0.06,0,0,1,0,0h-0.06l-0.23-.16-0.1.27a0.07,0.07,0,0,1,0,0h-0.05l-0.33-.25c-0.27,0-.29,0-0.31-0.06a1,1,0,0,0-1-.89,7.12,7.12,0,0,0-1.8,0c-0.29,0-.58.07-0.87,0.08a0.06,0.06,0,0,1-.06,0,0.06,0.06,0,0,1,0-.06c1.12-1.41,2.62-1.52,4.07-1.62l0.75-.06a1.56,1.56,0,0,1,1.56-1.05h0l3.55,0.18a3.58,3.58,0,0,1,1.85-.85,2.32,2.32,0,0,1,.5-0.17,1.44,1.44,0,0,0,.94-0.55,0.06,0.06,0,0,1,.11,0c-0.08.55-.1,0.81-0.13,1.07l0,0.36,0.39,0a0.06,0.06,0,0,1,.05,0,0.06,0.06,0,0,1,0,.06l-0.69.46-0.67.45c-0.38.58-.35,0.63-0.2,0.9l0.47,0.81a1.84,1.84,0,0,1,1.38,1,0.06,0.06,0,0,1,0,.06,0.07,0.07,0,0,1-.05,0,1.6,1.6,0,0,0-1.17.16,0.21,0.21,0,0,0-.06.15,0.75,0.75,0,0,0,.48.3,2.36,2.36,0,0,1,.32.14,1.73,1.73,0,0,1,.63,1.32,0.06,0.06,0,0,1,0,0l0,0a1.75,1.75,0,0,1-.62-0.21c-0.4-.2-0.79-0.32-1,0.09a0.65,0.65,0,0,0,0,.54,0.8,0.8,0,0,0,.48.45,1.65,1.65,0,0,1,1,1.52,0.06,0.06,0,0,1-.06.06l-0.08,0a3,3,0,0,0-1.38-.57,0.33,0.33,0,0,0-.26.09,0.47,0.47,0,0,0-.08.36,0.68,0.68,0,0,0,.33.72l0.07,0.05a1.15,1.15,0,0,1,1,1.14,0.06,0.06,0,0,1,0,0h-0.05c-0.71-.26-1.15-0.13-1.26.37l0.31,0.86,3.35-.68a2.46,2.46,0,0,0,.62-1.94c0-.25,0-0.48,0-0.71a3.11,3.11,0,0,1,1.18-2.94,61.82,61.82,0,0,1,10.06-6.75,0.06,0.06,0,0,1,.07,0,0.06,0.06,0,0,1,0,.07,3.48,3.48,0,0,0-.49,2.93,1.25,1.25,0,0,0,1.11.64,78.28,78.28,0,0,0,7.36-2.83,0.06,0.06,0,0,1,.08,0,0.06,0.06,0,0,1,0,.08c-2.36,1.72-3.44,3-3.3,3.89a1.71,1.71,0,0,0,1.37,1.16,0.06,0.06,0,0,1,0,.06,0.06,0.06,0,0,1,0,.05,5.65,5.65,0,0,0-3.83,3.43,2.74,2.74,0,0,0,.67,2.64,0.06,0.06,0,0,1,0,.07,0.07,0.07,0,0,1-.07,0,2.78,2.78,0,0,0-.76-0.1,3.35,3.35,0,0,0-3,1.61h1.34a10.15,10.15,0,0,1,3.46.47,12.56,12.56,0,0,0,2.11.2c1.09,0,2.4-.2,2.62-1.15a8.78,8.78,0,0,1-1.79.21c-1.62,0-2.43-.71-2.48-2.19,0-1.27,1.29-2.22,3-2.22a4.64,4.64,0,0,1,2.29.62l0.66-1.36-0.2,0a6.42,6.42,0,0,1-2.28,0,0.06,0.06,0,0,1,0,0,0.06,0.06,0,0,1,0-.06,56.29,56.29,0,0,0,5.13-5.39,0.06,0.06,0,0,1,.07,0,0.06,0.06,0,0,1,0,.06c-0.36,2.49,0,5.94.59,7a0.06,0.06,0,0,1,0,.07,0.05,0.05,0,0,1-.06,0,3.7,3.7,0,0,1-1.9-1.58l-0.81,2.51a3.35,3.35,0,0,1-.1,3.33c-1.19,2-4.13,3.23-6.51,3.41l0.41,0.22c2.31,1.24,4.92,2.66,4.92,3.46a0.82,0.82,0,0,1-.45.13,2,2,0,0,1-1.19-.59,4.22,4.22,0,0,0-.57-0.4,8.18,8.18,0,0,1,0,4.9l-0.15.72a0.66,0.66,0,0,0,0,.89,2.38,2.38,0,0,1,.15.29l1.09,0.4,0.2,0.17a1.25,1.25,0,0,1,1,1.17,0.06,0.06,0,0,1,0,.07,0.06,0.06,0,0,1-.07,0,1.22,1.22,0,0,0-1.18-.42l-0.25.17-0.7-.38a2,2,0,0,0-2.12-.1,1.22,1.22,0,0,1-1.21,0,1.18,1.18,0,0,0-1.3-.06c-0.07,0-.64.41-1,0.65a2,2,0,0,1-.29,0,2.79,2.79,0,0,0-1.41.5,0.06,0.06,0,0,1-.07,0,0.06,0.06,0,0,1,0-.06,1.22,1.22,0,0,1,1-1.13,0.19,0.19,0,0,1,.11-0.22l0.06-.06a1.18,1.18,0,0,1,.74-0.29l-1.82-.09,0,0a0.06,0.06,0,0,1,0-.05v0a0.94,0.94,0,0,0-1.08.39,0.06,0.06,0,0,1-.07,0,0.06,0.06,0,0,1,0-.06,1.14,1.14,0,0,1,1-1.13l0.17-.07a0.69,0.69,0,0,1,.63-0.25l0.36,0-0.51-.22a0.27,0.27,0,0,1,0-.38,2.68,2.68,0,0,0-.53-0.11,0.7,0.7,0,0,0-.5.2,0.06,0.06,0,0,1-.1,0,0.87,0.87,0,0,1,1-.79l0.28,0a0.37,0.37,0,0,1,.61-0.1l0.89,0.87,0.82,0.52a1.65,1.65,0,0,0,2.2-.87,0.77,0.77,0,0,1,.38-1.15,1.59,1.59,0,0,1,.09-1.14,1.92,1.92,0,0,1-.18-1.47,1.53,1.53,0,0,1-.66-0.63,1.06,1.06,0,0,0-.3,0,1.21,1.21,0,0,1-.83-0.3,1.32,1.32,0,0,1-.7.19,1.69,1.69,0,0,1-1.14-.46,1.8,1.8,0,0,1-.77.15,1.91,1.91,0,0,1-1.26-.43,0.42,0.42,0,0,1-.24,0,1.85,1.85,0,0,1-1.62-.9,0.78,0.78,0,0,1-.5-0.15,1.27,1.27,0,0,0-.55-0.19,2.1,2.1,0,0,1-.58.63l-0.35.29a1.37,1.37,0,0,0,.08,1.78l1.88,0.71a1.63,1.63,0,0,1,1.81,1.77,0.06,0.06,0,0,1,0,0h-0.05a4.11,4.11,0,0,1-.5-0.18,0.82,0.82,0,0,0-.32-0.09l-1.09-.38a8.31,8.31,0,0,1-5,3.75,2.6,2.6,0,0,0,.72.1,4,4,0,0,1,.46,0l0.51,0.3c0.73,0.15,1.23.39,1.22,1.08a0.06,0.06,0,0,1,0,.05,0.07,0.07,0,0,1-.07,0,0.86,0.86,0,0,0-1.22-.24,1.27,1.27,0,0,1-1.28-.26,2.24,2.24,0,0,0-.54-0.29,1.31,1.31,0,0,0-1.38,0,2.13,2.13,0,0,0-1.36-.12l-0.29,0a2.93,2.93,0,0,0-1.82.63,0.26,0.26,0,0,1-.41-0.05,1,1,0,0,0-.32-0.06,0.91,0.91,0,0,0-.78.48,0.06,0.06,0,0,1-.06,0,0.06,0.06,0,0,1-.05,0,0.81,0.81,0,0,1,.58-1.15l-0.78-.46a0.36,0.36,0,0,1,0-.09,0.13,0.13,0,0,1,0-.1l0,0a0.91,0.91,0,0,0-.92.36,0.05,0.05,0,0,1-.06,0,0.06,0.06,0,0,1,0-.06,1.15,1.15,0,0,1,1.45-1,0.66,0.66,0,0,1,.5-0.17,1.07,1.07,0,0,1,.68.25,1.79,1.79,0,0,0,1.38.24,1.36,1.36,0,0,0-1-.73,1.43,1.43,0,0,1-.91-0.43,0.24,0.24,0,0,1,0-.22,0.79,0.79,0,0,0-1.07.13,0.06,0.06,0,0,1-.07,0,0.06,0.06,0,0,1,0-.06,0.93,0.93,0,0,1,1-.82,1,1,0,0,1,.48.11,0.42,0.42,0,0,1,.72,0,0.84,0.84,0,0,1,.5.37,1.38,1.38,0,0,0,.18.2,3.12,3.12,0,0,0,1.67.76,3.49,3.49,0,0,1,1.72-.36,2.79,2.79,0,0,0,1.41-1.41,0.74,0.74,0,0,1-.6-0.47c-1.15,0-1.93-.19-2-1a2,2,0,0,1-1.33-1,1.15,1.15,0,0,1,0-.88,1.75,1.75,0,0,1-1.23,0,3.71,3.71,0,0,1-2.08,1.12,1,1,0,0,1-.46-0.11,5.22,5.22,0,0,1-1.08.71,5.51,5.51,0,0,1-.73,1.82,0.07,0.07,0,0,1-.06,0,0.06,0.06,0,0,1,0,0c-0.09-.23-0.21-0.46-0.32-0.7a4.48,4.48,0,0,1-.55-1.57,15.24,15.24,0,0,1-1.61,1.75c-0.26.25-.52,0.5-0.8,0.8a5.07,5.07,0,0,0-1.24,2.35,3,3,0,0,0,1.08.25,6,6,0,0,1,.6.08,0.8,0.8,0,0,0,.15.16l0.06,0h0a1,1,0,0,1,1.08,1,0.06,0.06,0,0,1-.1,0,0.89,0.89,0,0,0-.65-0.3,0.77,0.77,0,0,0-.38.1,1.72,1.72,0,0,1-1.62,0,1.27,1.27,0,0,0-1.7-.37,1,1,0,0,1-.93.16,1.59,1.59,0,0,0-1.2.15,2.31,2.31,0,0,1-1.5.62,0.87,0.87,0,0,1-.72-0.29h-0.14a1.55,1.55,0,0,0-1.08.6l0,0h0Zm29.14-1.1a1,1,0,0,0-.92.9,2.81,2.81,0,0,1,1.35-.44l0.27,0.06a6.89,6.89,0,0,1,1-.65,1.26,1.26,0,0,1,1.42.07,1.15,1.15,0,0,0,1.08,0,2.15,2.15,0,0,1,2.23.11l0.63,0.38,0.07-.09,0.14-.09a1.27,1.27,0,0,1,1.16.28,1.08,1.08,0,0,0-.9-0.88l-0.22-.18-1.1-.42-0.18-.31a0.75,0.75,0,0,1,0-1c0-.22.09-0.46,0.14-0.69a7.87,7.87,0,0,0,0-5,0.06,0.06,0,0,1,0-.06,0.05,0.05,0,0,1,.06,0,3.35,3.35,0,0,1,.72.48,1.5,1.5,0,0,0,1.49.49c0-.68-2.73-2.13-4.89-3.3l-0.59-.32a0.06,0.06,0,0,1,0-.11c2.38-.12,5.42-1.32,6.62-3.36a3.27,3.27,0,0,0,.09-3.27l0.85-2.68a0.06,0.06,0,0,1,.05,0,0.07,0.07,0,0,1,.06,0,3.54,3.54,0,0,0,1.76,1.6,16.69,16.69,0,0,1-.56-6.74,57.19,57.19,0,0,1-4.92,5.16,6.61,6.61,0,0,0,2.13,0l0.31,0a0.07,0.07,0,0,1,.06,0,0.06,0.06,0,0,1,0,.06l-0.73,1.52,0,0h0a4.54,4.54,0,0,0-2.28-.64c-1.61,0-2.83.9-2.84,2.1,0.07,1.87,1.38,2.45,4.21,1.84a0.05,0.05,0,0,1,.05,0,0.06,0.06,0,0,1,0,.05c-0.14.88-1.09,1.34-2.76,1.34a12.52,12.52,0,0,1-2.14-.21,10,10,0,0,0-3.43-.46h-1.42a0.06,0.06,0,0,1,0,0,0.06,0.06,0,0,1,0-.05c0.35-1.09,2.28-2,3.71-1.71a2.82,2.82,0,0,1-.58-2.61,5.71,5.71,0,0,1,3.74-3.45,1.71,1.71,0,0,1-1.28-1.19c-0.18-1.15,1.49-2.62,3-3.71a73.42,73.42,0,0,1-7,2.65,1.37,1.37,0,0,1-1.21-.7,3.42,3.42,0,0,1,.39-2.86,61.3,61.3,0,0,0-9.86,6.63,3,3,0,0,0-1.14,2.84c0,0.23,0,.47,0,0.71a2.53,2.53,0,0,1-.69,2l-3.43.7a0.06,0.06,0,0,1-.07,0l-0.33-.94c0.12-.6.59-0.77,1.34-0.52a1.09,1.09,0,0,0-1-.95l-0.08-.06a0.79,0.79,0,0,1-.38-0.81,0.57,0.57,0,0,1,.11-0.45c0.24-.27.84-0.12,1.75,0.43a1.5,1.5,0,0,0-.91-1.3,0.93,0.93,0,0,1-.56-0.52,0.78,0.78,0,0,1,0-.63c0.24-.48.71-0.36,1.16-0.15a2,2,0,0,0,.51.2,1.59,1.59,0,0,0-.58-1.16,2,2,0,0,0-.29-0.12,0.72,0.72,0,0,1-.56-0.41,0.32,0.32,0,0,1,.09-0.24,1.56,1.56,0,0,1,1.17-.21,2,2,0,0,0-1.3-.85l-0.5-.84c-0.18-.31-0.2-0.4.22-1l0.69-.46,0.55-.37-0.29,0,0,0a0.06,0.06,0,0,1,0,0l0-.41c0-.23,0-0.45.11-0.87a1.64,1.64,0,0,1-.87.43,2.41,2.41,0,0,0-.49.17,3.77,3.77,0,0,0-1.84.83c-0.07,0-2.77-.12-3.59-0.16a1.41,1.41,0,0,0-1.46,1,0.06,0.06,0,0,1-.05,0l-0.8.06c-1.45.1-2.82,0.2-3.9,1.47l0.73-.07a7.14,7.14,0,0,1,1.82,0h0a1.17,1.17,0,0,1,1.08,1,0.67,0.67,0,0,1,.23,0l0.3,0.21,0.1-.27a0.06,0.06,0,0,1,0,0h0.05l0.22,0.15,0.07-.29a0.06,0.06,0,0,1,0,0h0.06l0.2,0.14v-0.34a0.06,0.06,0,0,1,0-.05,0.07,0.07,0,0,1,.06,0l0.29,0.2v-0.48a0.06,0.06,0,0,1,.06-0.06,2.22,2.22,0,0,1,1.88.92,22.66,22.66,0,0,1-5.66.57c-0.75,0-1.47,0-2.13-.09a0.06,0.06,0,0,1-.05,0,0.06,0.06,0,0,1,0-.06l0.95-.47a8.58,8.58,0,0,1-3.63-1.37,7.66,7.66,0,0,0,3.12,3.53l-0.4-.73a0.06,0.06,0,0,1,0-.06,0.05,0.05,0,0,1,.05,0l4.14,0.18a1.49,1.49,0,0,1,.16.52,1.56,1.56,0,0,0,.34.87,1.12,1.12,0,0,0,.21,1c0.09-.21.39-1,0.57-1.47a0.08,0.08,0,0,1,.06,0,0.06,0.06,0,0,1,.06,0,5.85,5.85,0,0,0,.28.57,2.25,2.25,0,0,1,1.75-1.48,0.06,0.06,0,0,1,.06,0,6,6,0,0,1,.31.75,0.06,0.06,0,0,1-.05.06,1.07,1.07,0,0,0-.63.62,0.88,0.88,0,0,0,0,.81,0.06,0.06,0,0,1,0,.09,0.64,0.64,0,0,0-.36.3,1.36,1.36,0,0,0-.28,1,0.55,0.55,0,0,1-.15.19,1.45,1.45,0,0,0-.58,1.51,0.06,0.06,0,0,1,0,.07c-0.47.1-.75,1-0.6,2a1.74,1.74,0,0,0-.51,1.33,1.71,1.71,0,0,0,.59,1.26,0.06,0.06,0,0,1,0,0,0.06,0.06,0,0,1,0,0,1,1,0,0,0-.45.73,0.06,0.06,0,0,1,0,0h-0.05a0.48,0.48,0,0,0-.58.14l0,0,0,0c-0.42-.43-0.84-0.56-1.09-0.32a0.06,0.06,0,0,1-.1,0,1.11,1.11,0,0,0-1.15-.77l0,0a0.07,0.07,0,0,1,0,0,1,1,0,0,0-.77-1.1c0-.07-0.17-2.07-0.77-2.71a0.86,0.86,0,0,1,.56-1,1,1,0,0,0,.55-1.2,0.94,0.94,0,0,0-.15-1.29,1.51,1.51,0,0,1-.43,1.11,0.21,0.21,0,0,1-.09,0,0.45,0.45,0,0,0-.32.24,1.21,1.21,0,0,1-.19.21h0l0,0a0.61,0.61,0,0,1,0-.61,1.05,1.05,0,0,0-.09-1.18,1.67,1.67,0,0,0-1.21-1,1.45,1.45,0,0,1,.54,1.18,3.72,3.72,0,0,0-.16,2.62,0.06,0.06,0,0,1,0,.07,0.06,0.06,0,0,1-.08,0,5.76,5.76,0,0,1-.49-1.07,2.34,2.34,0,0,0-.5-1,0.6,0.6,0,0,1-.27-0.2,1.22,1.22,0,0,0-1.1-.4,1.38,1.38,0,0,1,.63.83,0.06,0.06,0,0,1,0,.07,0.25,0.25,0,0,0-.14.17,0.87,0.87,0,0,0,.23.63,1.3,1.3,0,0,0,1,1.34,0.06,0.06,0,0,1,0,.06l-0.31,2.84a0.06,0.06,0,0,1,0,0h0a1.31,1.31,0,0,0-.44.55,0.85,0.85,0,0,1-.32.41,0.71,0.71,0,0,0-.35.44,0.2,0.2,0,0,0,.17.12l0,0a0.06,0.06,0,0,1,0,0,1.06,1.06,0,0,1-.9.95,1.19,1.19,0,0,0,.36.06,1.13,1.13,0,0,0,.88-0.46,0.65,0.65,0,0,0,.6-0.67,1.27,1.27,0,0,1,.24-0.59,2.85,2.85,0,0,0,.48-0.88,0.06,0.06,0,0,1,.11,0,6.46,6.46,0,0,0,2.38,3.76c1.36,1.45,2.48,2.81,2.52,4.73a5.07,5.07,0,0,0,1-1.92,7.58,7.58,0,0,1,2.83-.36,0.06,0.06,0,0,1,0,0,0.06,0.06,0,0,1,0,.05l0,0.07a0.65,0.65,0,0,0-.09.76,0.06,0.06,0,0,1,0,.05,0.06,0.06,0,0,1,0,0,0.9,0.9,0,0,0-.59.48,0.74,0.74,0,0,0,.08.63,0.06,0.06,0,0,1,0,.08,1.43,1.43,0,0,0-.73,1.53c-0.82,1.07-1.46,1.49-2.22,1.49a4,4,0,0,1-1.24-.26,1.92,1.92,0,0,0-1.32-.42,1.78,1.78,0,0,0-.8-0.25,0.61,0.61,0,0,0-.62.47,0.63,0.63,0,0,1,.94.16,0.7,0.7,0,0,0,0,.32,0.22,0.22,0,0,0,.13.11,0.05,0.05,0,0,1,0,0,0.06,0.06,0,0,1,0,.05l-0.33.36-0.5,0a1,1,0,0,0-1,.62,1.86,1.86,0,0,1,1.46,0l0.3,0.11,0.08,0.47a0.06,0.06,0,0,1,0,0l0,0a1,1,0,0,0-.92,1,1.32,1.32,0,0,1,1.23-.47,0.79,0.79,0,0,0,.66.26,2.21,2.21,0,0,0,1.43-.6,1.72,1.72,0,0,1,1.29-.17,0.84,0.84,0,0,0,.82-0.14,1.37,1.37,0,0,1,1.84.37,1.63,1.63,0,0,0,1.49,0,0.88,0.88,0,0,1,.45-0.12,1,1,0,0,1,.62.24,0.92,0.92,0,0,0-1-.79,0.5,0.5,0,0,1-.23-0.2l-0.55-.06a2.94,2.94,0,0,1-1.16-.29,0.06,0.06,0,0,1,0-.07,5.23,5.23,0,0,1,1.28-2.45c0.28-.3.54-0.55,0.8-0.8a14.94,14.94,0,0,0,1.71-1.87,0.06,0.06,0,0,1,.11,0,3.8,3.8,0,0,0,.54,1.69c0.1,0.2.2,0.4,0.28,0.6a5.13,5.13,0,0,0,.65-1.7,0.06,0.06,0,0,1,.06-0.05,5.47,5.47,0,0,0,1.08-.73,0.06,0.06,0,0,1,.07,0,0.82,0.82,0,0,0,.44.12,3.93,3.93,0,0,0,2.06-1.1,2,2,0,0,0,1.34,0,0.07,0.07,0,0,1,.06,0,0.06,0.06,0,0,1,0,.06,1,1,0,0,0,0,.9,2,2,0,0,0,1.3,1c0.13,0.77.86,0.91,2,.92a0.06,0.06,0,0,1,.06.05,0.76,0.76,0,0,0,.69.45,0.06,0.06,0,0,1,.05,0,0.06,0.06,0,0,1,0,.06,0.8,0.8,0,0,0-.62.81,0.06,0.06,0,0,1,0,0l0,0a0.72,0.72,0,0,0-.85.59,0.06,0.06,0,0,1-.06,0,3.61,3.61,0,0,0-1.74.35,3.13,3.13,0,0,1-1.77-.79,1.27,1.27,0,0,1-.2-0.22,0.8,0.8,0,0,0-.46-0.35c-0.26-.28-0.5-0.23-0.58,0a0.06,0.06,0,0,1,0,0H765.6a0.88,0.88,0,0,0-1.28.45c0.51-.33.86-0.31,1.11,0.05a0.29,0.29,0,0,0,0,.17,1.6,1.6,0,0,0,.82.36,1.45,1.45,0,0,1,1.14.87,0.06,0.06,0,0,1,0,0l0,0a1.93,1.93,0,0,1-1.55-.25,1,1,0,0,0-1.1-.07,1.06,1.06,0,0,0-.29-0.05,1.15,1.15,0,0,0-1,.83,0.84,0.84,0,0,1,1.05-.21,0.06,0.06,0,0,1,0,.06,0.06,0.06,0,0,1,0,0l-0.08,0a0.1,0.1,0,0,1,0,.07l0.17,0.08,0.7,0.41a0.06,0.06,0,0,1,0,.06,0.06,0.06,0,0,1,0,.05,0.7,0.7,0,0,0-.65.91,1,1,0,0,1,.8-0.41,1.17,1.17,0,0,1,.36.06,0.1,0.1,0,0,1,.05,0,0.14,0.14,0,0,0,.23,0,3.15,3.15,0,0,1,1.89-.66l0.28,0a2,2,0,0,1,1.38.14,1.32,1.32,0,0,1,1.43,0,2.24,2.24,0,0,1,.55.3,1.18,1.18,0,0,0,1.16.26,0.94,0.94,0,0,1,1.26.15,1.14,1.14,0,0,0-1.14-.81l-0.51-.3-0.42,0a2.27,2.27,0,0,1-.93-0.17,0.06,0.06,0,0,1,0-.11,8.23,8.23,0,0,0,5.15-3.79,0.06,0.06,0,0,1,.07,0l1.12,0.4a0.85,0.85,0,0,1,.34.09,4.35,4.35,0,0,0,.41.15,1.52,1.52,0,0,0-1.72-1.58l-1.92-.73a1.49,1.49,0,0,1-.09-2l0.36-.3a1.83,1.83,0,0,0,.55-0.63,0.18,0.18,0,0,1,.1,0,1.35,1.35,0,0,1,.6.2,1.16,1.16,0,0,0,.5.18,1.89,1.89,0,0,0,1.83.83,2.15,2.15,0,0,0,2,.27,1.66,1.66,0,0,0,1.84.27,1.43,1.43,0,0,0,1.1.25h0a0.14,0.14,0,0,1,.11.1,1.37,1.37,0,0,0,.67.61,0.06,0.06,0,0,1,0,.1,1.78,1.78,0,0,0,.15,1.44,1.66,1.66,0,0,0-.07,1.15,0.06,0.06,0,0,1,0,.07,0.72,0.72,0,0,0-.37,1.08,1.73,1.73,0,0,1-2.36,1l-0.84-.53-0.9-.87c-0.11-.11-0.36-0.22-0.42.1l0,0h0a1.56,1.56,0,0,0-.3,0,0.76,0.76,0,0,0-.83.53,0.82,0.82,0,0,1,.46-0.13,0.88,0.88,0,0,1,.66.24,0.22,0.22,0,0,0,0,.28h0l2.49,1c0.18,0.07.18,0.07,0.17,0.12a0.06,0.06,0,0,1-.06,0h0l-0.12,0-2-.73a1,1,0,0,0-1,.19l-0.2.09a1.08,1.08,0,0,0-.87.82,1.16,1.16,0,0,1,1.15-.28l0,0a0.05,0.05,0,0,1,0,.05v0l2.27,0.11a0.06,0.06,0,0,1,.06.05,0.06,0.06,0,0,1,0,.06,3.15,3.15,0,0,1-.45.08,1.23,1.23,0,0,0-.75.26,0.2,0.2,0,0,1-.09.08c-0.05,0-.08,0,0,0.15a0.06,0.06,0,0,1,0,.05s0,0,0,0h0Z" transform="translate(-740.18 -1187.7)"/>
      <path class="c" d="M787.13,1201.1c0,0.78-2.3,1-2.45.11-0.07-.44,1.16-1.21,2.45-0.11h0Z" transform="translate(-740.18 -1187.7)"/>
      <path d="M785.81,1201.83a1.07,1.07,0,0,1-1.17-.61,0.41,0.41,0,0,1,.12-0.33,1.33,1.33,0,0,1,1-.4,2.15,2.15,0,0,1,1.4.58,0.42,0.42,0,0,1-.13.38,1.82,1.82,0,0,1-1.23.38h0Zm0-1.24a1.24,1.24,0,0,0-.93.37,0.33,0.33,0,0,0-.1.25,1,1,0,0,0,1.07.53,1.75,1.75,0,0,0,1.16-.35,0.37,0.37,0,0,0,.12-0.27,2.09,2.09,0,0,0-1.32-.52h0Z" transform="translate(-740.18 -1187.7)"/>
      <path d="M790.24,1198h0a0,0,0,0,1,0-.07,10.27,10.27,0,0,0,.36-2.14,0.05,0.05,0,0,1,.05,0,0,0,0,0,1,0,.05,10,10,0,0,1-.37,2.18,0,0,0,0,1,0,0h0Z" transform="translate(-740.18 -1187.7)"/>
      <path d="M789,1197.94h0a0.06,0.06,0,0,1,0-.08l0.75-2c0-.07.12,0,0.12,0s0,0-.75,2a0.06,0.06,0,0,1-.06,0h0Z" transform="translate(-740.18 -1187.7)"/>
      <path d="M789.36,1200.57a2.9,2.9,0,0,0-1-1.06l-0.1-.07,0.06-.08,0.09,0.06a3,3,0,0,1,1,1.09l-0.08,0h0Z" transform="translate(-740.18 -1187.7)"/>
      <path d="M787.38,1202.86l-0.06-.08c0.46-.35-0.21-1.64-0.22-1.65l0.08,0c0,0.06.72,1.38,0.19,1.77h0Z" transform="translate(-740.18 -1187.7)"/>
      <path d="M782.6,1207.31a6.35,6.35,0,0,1-1.06-1c-0.72-.79-1.62-1.77-2.28-1.68v-0.1c0.72-.08,1.59.87,2.36,1.71a6.27,6.27,0,0,0,1,1l0,0.08h0Z" transform="translate(-740.18 -1187.7)"/>
      <path d="M786.9,1218.29a0.66,0.66,0,0,1,.22-0.81l0.06,0.08a0.55,0.55,0,0,0-.19.69l-0.08,0h0Z" transform="translate(-740.18 -1187.7)"/>
      <path d="M780.21,1218.52h-0.09a0.56,0.56,0,0,0-.44-0.54l0-.09a0.66,0.66,0,0,1,.51.65h0Z" transform="translate(-740.18 -1187.7)"/>
      <path d="M778.78,1217.14l-0.08-.06a0.58,0.58,0,0,0-.12-0.68l0.07-.07a0.68,0.68,0,0,1,.13.8h0Z" transform="translate(-740.18 -1187.7)"/>
      <path d="M779.16,1215.52l-0.05-.08a0.5,0.5,0,0,0,.28-0.37,0.32,0.32,0,0,0-.17-0.22l0-.09a0.41,0.41,0,0,1,.23.29,0.57,0.57,0,0,1-.32.46h0Z" transform="translate(-740.18 -1187.7)"/>
      <path d="M772.63,1218.33a0.64,0.64,0,0,1,.13-0.87l0.06,0.07a0.54,0.54,0,0,0-.11.73l-0.08.06h0Z" transform="translate(-740.18 -1187.7)"/>
      <path d="M765.78,1218.28l-0.09,0a0.38,0.38,0,0,0,0-.36,0.71,0.71,0,0,0-.5-0.22v-0.1a0.81,0.81,0,0,1,.58.27,0.47,0.47,0,0,1,0,.45h0Z" transform="translate(-740.18 -1187.7)"/>
      <path d="M764.38,1216.94l0-.09a0.36,0.36,0,0,0,.26-0.19,0.52,0.52,0,0,0,0-.38l0.08,0a0.6,0.6,0,0,1,0,.46,0.46,0.46,0,0,1-.33.25h0Z" transform="translate(-740.18 -1187.7)"/>
      <path d="M765.39,1215.23v-0.09a0.3,0.3,0,0,0,.25-0.14,0.52,0.52,0,0,0,0-.39l0.09,0a0.61,0.61,0,0,1,0,.48,0.39,0.39,0,0,1-.32.19h0Z" transform="translate(-740.18 -1187.7)"/>
      <path d="M765.08,1217.53l-0.06-.07s0.82-.7,1.21-0.31,1.44-.14,1.86-0.32l0,0.09c-0.07,0-1.59.67-2,.3s-1.07.31-1.08,0.32h0Z" transform="translate(-740.18 -1187.7)"/>
      <polygon points="27.2 28.89 27.16 28.8 28.44 28.13 28.49 28.21 27.2 28.89 27.2 28.89"/>
      <path d="M771.26,1216a1.32,1.32,0,0,1-.84-0.41l0.07-.06a1.17,1.17,0,0,0,.86.37,1,1,0,0,0,.7-0.58l0.08,0a1.08,1.08,0,0,1-.78.63h-0.09Z" transform="translate(-740.18 -1187.7)"/>
      <path d="M772,1215.35a0.63,0.63,0,0,1-.44-0.24l-0.23-.2,0.06-.07,0.24,0.21c0.36,0.34.41,0.39,2.1-.74l0.05,0.08a4.76,4.76,0,0,1-1.78,1h0Z" transform="translate(-740.18 -1187.7)"/>
      <path d="M773.76,1214.39l0-.05a8.72,8.72,0,0,0-1.73-.28H772l-0.15-.11,0.19,0,0,0v0h0a1.69,1.69,0,0,0,1.57-1.29,1,1,0,0,1,1,.41,1.55,1.55,0,0,1-.68,1.18l-0.13.13h0Zm-1.38-.39a6.78,6.78,0,0,1,1.38.25l0.06-.06a1.51,1.51,0,0,0,.66-1.08,1,1,0,0,0-.87-0.38,1.62,1.62,0,0,1-1.23,1.27h0Z" transform="translate(-740.18 -1187.7)"/>
      <path d="M751.86,1218.48l-0.08-.06a0.35,0.35,0,0,0,.09-0.33,0.45,0.45,0,0,0-.32-0.19v-0.09a0.54,0.54,0,0,1,.4.25,0.44,0.44,0,0,1-.1.43h0Z" transform="translate(-740.18 -1187.7)"/>
      <path d="M751.25,1217.37l-0.06-.08a0.44,0.44,0,0,0,.23-0.34,0.37,0.37,0,0,0-.17-0.26l0.05-.08a0.46,0.46,0,0,1,.21.33,0.53,0.53,0,0,1-.27.42h0Z" transform="translate(-740.18 -1187.7)"/>
      <path d="M751.63,1215.9h-0.13v-0.1a0.47,0.47,0,0,0,.44-0.1,0.36,0.36,0,0,0,0-.31l0.09,0a0.46,0.46,0,0,1,0,.4,0.46,0.46,0,0,1-.39.15h0Z" transform="translate(-740.18 -1187.7)"/>
      <path d="M751.57,1217.47l-0.06-.07s0.92-.75,1.4-0.28a1.7,1.7,0,0,0,.65.11v0.09a1.69,1.69,0,0,1-.72-0.12c-0.44-.42-1.29.26-1.3,0.27h0Z" transform="translate(-740.18 -1187.7)"/>
      <path d="M759.37,1218.21a0.87,0.87,0,0,1,0-.79l0.07-.07,0,0.08a0.8,0.8,0,0,0,0,.72l-0.07.06h0Z" transform="translate(-740.18 -1187.7)"/>
      <path d="M752.86,1216.52a1.62,1.62,0,0,1-.62-0.11,1.34,1.34,0,0,0-.62-0.11v-0.1a1.47,1.47,0,0,1,.66.11,1.58,1.58,0,0,0,.58.11,4.5,4.5,0,0,0,1.28-.26l0.54-.16,0,0.09-0.53.15a4.57,4.57,0,0,1-1.31.27h0Z" transform="translate(-740.18 -1187.7)"/>
      <path d="M748,1199.64a0.44,0.44,0,0,1-.16,0l0-.09a0.53,0.53,0,0,0,.63-0.34l0.08,0.05a0.72,0.72,0,0,1-.59.4h0Z" transform="translate(-740.18 -1187.7)"/>
      <path d="M748.17,1206.84l-0.09,0a0.56,0.56,0,0,0-.44-0.55l0-.09a0.62,0.62,0,0,1,.51.66h0Z" transform="translate(-740.18 -1187.7)"/>
      <path d="M750,1198.77l-0.09,0a0.16,0.16,0,0,1-.08-0.14h0.1a0.06,0.06,0,0,0,0,.05,0.77,0.77,0,0,0,.6-0.28l0.06,0.08a1.25,1.25,0,0,1-.61.3h0Z" transform="translate(-740.18 -1187.7)"/>
      <path d="M750.7,1202c-0.68-.36-0.15-1.79-0.13-1.85l0.09,0s-0.52,1.41.08,1.73l0,0.09h0Z" transform="translate(-740.18 -1187.7)"/>
      <path d="M751.69,1200.22h-0.07a0.73,0.73,0,0,1-.4-0.38l0.09,0a0.65,0.65,0,0,0,.34.33,0.31,0.31,0,0,0,.25-0.09l0.06,0.07a0.41,0.41,0,0,1-.27.12h0Z" transform="translate(-740.18 -1187.7)"/>
      <polygon points="10.46 8.33 9.98 7.55 10.44 7.39 10.47 7.48 10.13 7.6 10.54 8.28 10.46 8.33 10.46 8.33"/>
      <path d="M755.29,1193.75l-0.05-.08a0.69,0.69,0,0,0,.3-0.5,2.24,2.24,0,0,0-.44-0.82l0.07-.06a2.25,2.25,0,0,1,.46.88,0.78,0.78,0,0,1-.34.58h0Z" transform="translate(-740.18 -1187.7)"/>
      <path d="M754.23,1193.92l0-.09a0.9,0.9,0,0,0,.46-0.31c0-.22.13-0.55,0.13-0.55l0.09,0a5.08,5.08,0,0,0-.12.53,0.88,0.88,0,0,1-.52.39h0Z" transform="translate(-740.18 -1187.7)"/>
      <path d="M760.47,1192.09l-0.07-.06a1.25,1.25,0,0,0,.28-0.64l0.08,0a1.09,1.09,0,0,1-.29.74h0Z" transform="translate(-740.18 -1187.7)"/>
      <path d="M758.87,1192.78a12.37,12.37,0,0,0-1.29-.23,1.66,1.66,0,0,0-1.06,0l0-.09a1.8,1.8,0,0,1,1.13,0,9.3,9.3,0,0,1,1.26.22,3.69,3.69,0,0,0,1-.29l0.05,0.08a3.55,3.55,0,0,1-1.08.3h0Z" transform="translate(-740.18 -1187.7)"/>
      <path d="M757.69,1193.25a0.67,0.67,0,0,1-.27-0.06,0.78,0.78,0,0,1-.48-0.75l0.09,0a0.7,0.7,0,0,0,.43.63,0.82,0.82,0,0,0,1-.53l0.08,0a1,1,0,0,1-.84.63h0Z" transform="translate(-740.18 -1187.7)"/>
      <path d="M757.26,1192.43l0.83,0.15s-0.59.79-.83-0.15h0Z" transform="translate(-740.18 -1187.7)"/>
      <path d="M757.63,1192.94a0.52,0.52,0,0,1-.42-0.5,0,0,0,0,1,0,0l0,0,0.83,0.15a0,0,0,0,1,0,0,0,0,0,0,1,0,0,0.8,0.8,0,0,1-.5.33h0Zm-0.3-.45a0.39,0.39,0,0,0,.3.35,0.61,0.61,0,0,0,.37-0.23l-0.68-.12h0Z" transform="translate(-740.18 -1187.7)"/>
      <path d="M759.48,1196.91a0.05,0.05,0,0,1-.05,0l-1.09-2.1a0.06,0.06,0,0,1,.11-0.06l1,2,0.47-.7a0.05,0.05,0,0,1,.05,0,0.05,0.05,0,0,1,0,0l0.23,0.44,0.39-.69,0,0h0l0.63,0.41-0.25-.8a0.07,0.07,0,0,1,0-.05l0,0,0.56,0a0.91,0.91,0,0,0-.67-0.44,0.06,0.06,0,0,1,0,0,0.06,0.06,0,0,1,0-.06c0.12-.1.49-0.34,0.64-0.44a1.12,1.12,0,0,0-.69-0.3,0.06,0.06,0,0,1-.05,0,0.06,0.06,0,0,1,0-.06,2.77,2.77,0,0,0,.32-0.5h-0.05a3.16,3.16,0,0,1-.36-0.08,0.06,0.06,0,0,1,0-.07,0.06,0.06,0,0,1,.07,0l0.31,0.07a2.41,2.41,0,0,0,1.59-.21,0.06,0.06,0,0,1,.06.1,2.4,2.4,0,0,1-1.48.25,1.76,1.76,0,0,1-.25.48,1.25,1.25,0,0,1,.72.38,0.06,0.06,0,0,1,0,0,0.07,0.07,0,0,1,0,0l-0.59.4a1,1,0,0,1,.67.57,0.06,0.06,0,0,1,0,.05l0,0-0.57,0,0.27,0.88a0.06,0.06,0,0,1,0,.07,0.06,0.06,0,0,1-.07,0l-0.72-.46-0.42.73s0,0-.05,0a0.06,0.06,0,0,1-.05,0l-0.23-.45-0.47.7a0.06,0.06,0,0,1-.05,0h0Z" transform="translate(-740.18 -1187.7)"/>
      <path d="M754.81,1196.26v-0.09l1.68,0a2.26,2.26,0,0,0,.7-0.22,2.77,2.77,0,0,1,1.72-.3l0,0.09a2.71,2.71,0,0,0-1.66.3,2.29,2.29,0,0,1-.73.22l-1.68,0h0Z" transform="translate(-740.18 -1187.7)"/>
      <path d="M755.89,1196.22l-0.14-.25-0.26.22H755.3l-0.11-.22-0.08.21H755a1.94,1.94,0,0,1,.13-0.34,0,0,0,0,1,0,0h0a0,0,0,0,1,0,0l0.12,0.29,0.12,0,0.27-.25h0l0,0,0.12,0.28,0.1,0,0.14-.34s0,0,0,0a0,0,0,0,1,0,0l0.13,0.29,0.29-.49,0,0,0,0,0.28,0.34,0.1-.42a0,0,0,0,1,0,0,0,0,0,0,1,0,0l0.27,0.27,0.13-.36a0.05,0.05,0,0,1,0,0h0l0.27,0.23,0.13-.31a0.07,0.07,0,0,1,0,0,0,0,0,0,1,0,0l0.17,0.34-0.09,0-0.12-.25-0.11.27,0,0h0l-0.27-.23-0.13.37a0.05,0.05,0,0,1,0,0h0l-0.26-.26-0.1.43a0,0,0,0,1,0,0l0,0-0.3-.37-0.3.51a0,0,0,0,1,0,0,0,0,0,0,1,0,0l-0.13-.28-0.14.28-0.18,0h0Z" transform="translate(-740.18 -1187.7)"/>
      <path d="M762.07,1192.86a1.42,1.42,0,0,1-.8-0.24,0.22,0.22,0,0,1,0-.18,1.54,1.54,0,0,1,.94-0.7,9.09,9.09,0,0,0,1.27-1l0.08,0.05a8.66,8.66,0,0,1-1.31,1,1.44,1.44,0,0,0-.89.63,0.13,0.13,0,0,0,0,.11,1.29,1.29,0,0,0,.73.21v0.1h0Z" transform="translate(-740.18 -1187.7)"/>
      <path d="M762.31,1191.38l-0.07-.07a0.79,0.79,0,0,1,.79-0.15l0,0.09a0.72,0.72,0,0,0-.69.13h0Z" transform="translate(-740.18 -1187.7)"/>
      <path d="M757.38,1211a14.65,14.65,0,0,1-2-4l0.09,0a2.48,2.48,0,0,0,.64,1.58,2.3,2.3,0,0,0,1.34,2.29l0,0.09h0Z" transform="translate(-740.18 -1187.7)"/>
      <path d="M756,1208.7c-3-.22-4.52-2-4.76-3a0.73,0.73,0,0,1,.23-0.85l0,0.08a0.64,0.64,0,0,0-.19.75c0.23,1,1.7,2.74,4.67,3v0.1h0Z" transform="translate(-740.18 -1187.7)"/>
      <path d="M754.84,1208.48l-0.08,0a2.19,2.19,0,0,0-.05-1.27l0.09,0a2.23,2.23,0,0,1,0,1.34h0Z" transform="translate(-740.18 -1187.7)"/>
      <path d="M753.22,1207.81l-0.09,0a6.45,6.45,0,0,1,.42-1l0.08,0a6.66,6.66,0,0,0-.41.95h0Z" transform="translate(-740.18 -1187.7)"/>
      <path d="M751.84,1206.76l0-.09a1.7,1.7,0,0,0,.54-0.67l0.09,0a1.77,1.77,0,0,1-.58.71h0Z" transform="translate(-740.18 -1187.7)"/>
      <path d="M766.65,1202V1202s1.06-.06,2.11-2.91c0.73-2.74,4.81-5.64,7.51-7.56a9.15,9.15,0,0,0,2.16-1.74l0.09,0a8.11,8.11,0,0,1-2.19,1.8c-2.69,1.91-6.75,4.8-7.48,7.52-1.08,2.93-2.16,3-2.2,3h0Z" transform="translate(-740.18 -1187.7)"/>
      <path d="M769.73,1197.32a0,0,0,0,1,0,0,0,0,0,0,1,0-.06c1.12-.62,3.9-1.7,6.59-2.75l3.16-1.24a0,0,0,0,1,.06,0,0,0,0,0,1,0,.06l-3.16,1.24c-2.68,1-5.46,2.12-6.58,2.74h0Z" transform="translate(-740.18 -1187.7)"/>
      <path d="M765.44,1209.37l0,0a0.67,0.67,0,0,1-.06-0.42,14.5,14.5,0,0,1,.39-5,12,12,0,0,0-2.94,3.55,3.4,3.4,0,0,0-.16.35c0,0.14,0,.28,0,0.43a0,0,0,0,1,0,0,0.05,0.05,0,0,1-.05,0,0.63,0.63,0,0,1,0-.47c0.11-.75.42-1.61,1.74-4.18-1.76.17-5.37,2.41-6,3.25a0,0,0,0,1-.08,0c0.52-1.53,3.71-4,5.05-4.2v0.09c-1.25.16-4.13,2.37-4.87,3.88,1-1,4.32-3,6-3.08a0.06,0.06,0,0,1,0,0,0,0,0,0,1,0,0,19.29,19.29,0,0,0-1.69,3.82c0.61-1.19,2.33-3.34,3.13-3.66a0.16,0.16,0,0,1,.15,0,0,0,0,0,1,0,.09h0c-0.4.35-.64,2.83-0.55,4.62a18.1,18.1,0,0,1,.56-2,13,13,0,0,1,1.42-3.29,34.53,34.53,0,0,1,1.78,5.24v0a18.44,18.44,0,0,0-.94-5.87,0.07,0.07,0,0,1,0-.06,0.1,0.1,0,0,1,.06,0c0.51,0,4,3.78,4.72,4.78a12.9,12.9,0,0,0-3.9-5.29,0,0,0,0,1,0-.07c0.31-.3,6.78,2.39,8.19,3.36-0.79-.91-5.82-4.23-7.34-4.59a0,0,0,0,1,0,0,0,0,0,0,1,0,0c2-.44,8.59.49,11.18,1-1.39-1-7.75-2.13-10.95-2a0,0,0,0,1,0,0,0,0,0,0,1,0-.05c0.47-.55,7.73-2.35,13.79-3.76-2.15.24-10.73,1.69-13,2.38a0.05,0.05,0,0,1-.05,0,0.05,0.05,0,0,1,0-.05c0.22-.37,13.69-6.67,15.22-7.39l0,0.09c-3.83,1.79-13.36,6.28-15,7.2,2.9-.79,13-2.49,13.28-2.31a0,0,0,0,1,0,0,0,0,0,0,1,0,0l-0.39.09c-8.07,1.88-12.9,3.18-13.74,3.67,3.38-.08,10,1.1,11,2.18a0,0,0,0,1,0,.06,0,0,0,0,1-.05,0c-2.37-.54-8.85-1.48-11.12-1.12,1.79,0.6,7.32,4.2,7.32,4.81a0,0,0,0,1,0,0,0,0,0,0,1-.05,0c-0.88-.84-7.2-3.4-8.14-3.51,1.61,1.07,3.86,4.56,3.86,5.49a0,0,0,0,1,0,0,0,0,0,0,1-.05,0c-0.55-.88-4.46-5-4.77-4.9a17.19,17.19,0,0,1,1,5.89,0.28,0.28,0,0,1-.11.2h0a0.05,0.05,0,0,1,0,0,39.15,39.15,0,0,0-1.72-5.3,24.46,24.46,0,0,0-1.72,4.61,6.5,6.5,0,0,0-.21,1c0,0.13,0,.27,0,0.39a0,0,0,0,1,0,.05h0Z" transform="translate(-740.18 -1187.7)"/>
      <polygon points="18.99 8.6 18.09 8.59 18.09 8.49 18.99 8.5 18.99 8.6 18.99 8.6"/>
      <path d="M754.9,1194.67a0.58,0.58,0,0,1-.2,0l0-.09s0.6,0.2,1.81-.75l0.06,0.07a2.91,2.91,0,0,1-1.7.79h0Z" transform="translate(-740.18 -1187.7)"/>
      <path d="M758.72,1206c-0.42-.54.3-7.67,1.6-9.47l0.09,0a10.62,10.62,0,0,0,1.3,6.61,0.21,0.21,0,0,0,.12.08h0v0.1a0.32,0.32,0,0,1-.19-0.12,10.7,10.7,0,0,1-1.35-6.48c-1.28,2.12-1.75,8.85-1.49,9.19l-0.08.06h0Z" transform="translate(-740.18 -1187.7)"/>
      <path d="M759.72,1197.55a1.87,1.87,0,0,1-1.21-.6l0.07-.06a1.69,1.69,0,0,0,1.3.55l0,0.09-0.18,0h0Z" transform="translate(-740.18 -1187.7)"/>
      <path d="M759.35,1199.17a1.86,1.86,0,0,1-1.54-.65l0.08,0a1.82,1.82,0,0,0,1.47.6v0.1h0Z" transform="translate(-740.18 -1187.7)"/>
      <path d="M758.83,1200.81a2.52,2.52,0,0,1-1.71-.87l0.07-.06a2.32,2.32,0,0,0,1.86.82v0.09l-0.23,0h0Z" transform="translate(-740.18 -1187.7)"/>
      <path d="M758.8,1202.42c-2.16,0-2.41-.78-2.42-0.81l0.09,0s0.25,0.7,2.33.74v0.1h0Z" transform="translate(-740.18 -1187.7)"/>
      <path d="M758,1204.37a3.46,3.46,0,0,1-2.2-.68l0.06-.07a3.63,3.63,0,0,0,2.84.6v0.09a4.75,4.75,0,0,1-.72.06h0Z" transform="translate(-740.18 -1187.7)"/>
      <path d="M757.07,1206.54a2.64,2.64,0,0,1-1.19-.26l0-.08a2.92,2.92,0,0,0,2.82-.25l0,0.08a3.26,3.26,0,0,1-1.73.51h0Z" transform="translate(-740.18 -1187.7)"/>
      <path d="M765.45,1209.4a1.84,1.84,0,0,0-1.66-.85,1.51,1.51,0,0,0-1.07.46l0,0-0.08,0a3.83,3.83,0,0,1-.11-1.79,5.55,5.55,0,0,0-1.66,1.27l-0.09.1v-0.14c0-.42,0-1,0-1.44v-0.29a11.62,11.62,0,0,1-2.54.15v-0.1a11.31,11.31,0,0,0,2.57-.16h0.06v0.41c0,0.37,0,.9,0,1.31a5.8,5.8,0,0,1,1.68-1.23l0.07,0v0.08a8.26,8.26,0,0,0,.05,1.78,1.38,1.38,0,0,1,1.13-.53,1.89,1.89,0,0,1,1.65.77,1.22,1.22,0,0,1,.71-1,2.77,2.77,0,0,1,3,.42,1.87,1.87,0,0,0,.67-0.46c0.42-.4.89-0.86,3.34-0.68,0.07-.84,1.52-2.11,4.24-2.11h0.05a1.48,1.48,0,0,1,.12-2l0.06,0.07a1.38,1.38,0,0,0-.05,1.92l0.05,0.08h-0.09c-2.65,0-4.22,1.17-4.34,2.06-2.46-.13-2.92.31-3.32,0.69a1.7,1.7,0,0,1-.75.48,2.78,2.78,0,0,0-3-.42,1.09,1.09,0,0,0-.66,1.08l-0.09,0h0Z" transform="translate(-740.18 -1187.7)"/>
      <path d="M759.82,1209.87a1.5,1.5,0,0,1-1.31-1.76,2.61,2.61,0,0,1,.5-1.26l0,0.08a2.61,2.61,0,0,0-.39,1.9,1.54,1.54,0,0,0,1.19.94l0,0.09h0Z" transform="translate(-740.18 -1187.7)"/>
      <path d="M762.19,1209.54a0.52,0.52,0,0,1-.48-0.49,0.56,0.56,0,0,1,.31-0.68,1.23,1.23,0,0,0,.5-0.15l0,0.09a1.42,1.42,0,0,1-.54.15,0.49,0.49,0,0,0-.22.57,0.43,0.43,0,0,0,.43.42c0.16-.21.37-0.52,0.37-0.52l0.08,0.05a6.4,6.4,0,0,1-.41.54h-0.08Z" transform="translate(-740.18 -1187.7)"/>
      <path d="M761.53,1210a0.48,0.48,0,0,1-.53-0.45,0.87,0.87,0,0,1,.23-0.76h0l0.07,0.06a0.3,0.3,0,0,0,.2.09,0.21,0.21,0,0,0,.13-0.07l0.08,0.06a0.31,0.31,0,0,1-.2.11,0.38,0.38,0,0,1-.29-0.12h0a0.76,0.76,0,0,0-.17.62,0.43,0.43,0,0,0,.43.42,0.84,0.84,0,0,1,.6-0.49l0,0.09a0.88,0.88,0,0,0-.58.46h0Z" transform="translate(-740.18 -1187.7)"/>
      <path d="M760.64,1210.23a0.25,0.25,0,0,1-.16,0,0.33,0.33,0,0,1,0-.39,0.67,0.67,0,0,1,.61-0.45v0.1a0.56,0.56,0,0,0-.51.39,0.25,0.25,0,0,0,0,.28s0.21,0.1.72-.26l0.06,0.08a1.29,1.29,0,0,1-.68.31h0Z" transform="translate(-740.18 -1187.7)"/>
      <path d="M760.47,1211.07h0a0.72,0.72,0,0,1-.38-0.62,0.61,0.61,0,0,1-.22-0.62,0.43,0.43,0,0,1,.16-0.44,0.75,0.75,0,0,1,.62.18l-0.06.08a0.64,0.64,0,0,0-.51-0.17,0.36,0.36,0,0,0-.11.35,0.59,0.59,0,0,0,.2.57,0.76,0.76,0,0,0,.33.58,0.24,0.24,0,0,0,.21-0.16,0.68,0.68,0,0,0-.07-0.59l0.07-.06a0.76,0.76,0,0,1,.09.69,0.33,0.33,0,0,1-.27.22h0Z" transform="translate(-740.18 -1187.7)"/>
      <path d="M757.1,1215.18a0.27,0.27,0,0,1-.14,0,0.71,0.71,0,0,1-.27-0.54h0v0h0a0.61,0.61,0,0,0,.24.45,0.53,0.53,0,0,0,.49-0.25c0.14-.3.4-0.8,0.69-1.37,0.62-1.22,1.4-2.74,1.63-3.4l0.09,0c-0.24.67-1,2.19-1.64,3.42-0.29.56-.54,1.06-0.69,1.38a0.75,0.75,0,0,1-.49.31h0Z" transform="translate(-740.18 -1187.7)"/>
      <path d="M759.29,1211.3a1.85,1.85,0,0,1-1.15-.43,1.34,1.34,0,0,1,0-1.1,1.16,1.16,0,0,1,.65-0.53l0,0.09a1.07,1.07,0,0,0-.6.49,1.27,1.27,0,0,0,0,1,1.68,1.68,0,0,0,1.16.38v0.09h-0.1Z" transform="translate(-740.18 -1187.7)"/>
      <path d="M758.86,1212.09a2.64,2.64,0,0,1-.83-0.22l0-.09a1.72,1.72,0,0,0,.91.2l0,0.09a0.4,0.4,0,0,1-.17,0h0Z" transform="translate(-740.18 -1187.7)"/>
      <path d="M758.09,1213.5a0.86,0.86,0,0,1-.62-0.43l0.08,0a0.63,0.63,0,0,0,.71.35l0,0.09a0.51,0.51,0,0,1-.21,0h0Z" transform="translate(-740.18 -1187.7)"/>
      <path d="M762.91,1212.34a1.91,1.91,0,0,1-.1-1.7,4,4,0,0,0,.35-2h0.1a4,4,0,0,1-.37,2.08,1.87,1.87,0,0,0,.11,1.6l-0.09,0h0Z" transform="translate(-740.18 -1187.7)"/>
      <path d="M764.06,1211.66l-0.07-.06c0.57-.64.34-2.89,0.3-3l0.09,0s0.3,2.43-.32,3.13h0Z" transform="translate(-740.18 -1187.7)"/>
      <path d="M766.65,1210.64l-0.07-.07c0.84-.8,0-2.46,0-2.47l0.08,0c0,0.07.88,1.73,0,2.59h0Z" transform="translate(-740.18 -1187.7)"/>
      <path d="M767.93,1210.65l-0.06-.08a5,5,0,0,0,1.21-2l0.09,0a5,5,0,0,1-1.24,2h0Z" transform="translate(-740.18 -1187.7)"/>
      <path d="M773.62,1212.73a2.61,2.61,0,0,1-2.45-1c-0.69-1.2.37-3,.41-3.11l0.08,0s-1.07,1.86-.41,3a2.53,2.53,0,0,0,2.37.94v0.1h0Z" transform="translate(-740.18 -1187.7)"/>
      <path d="M770.94,1210.56c-0.14-.38-2.36-0.44-2.52-0.42l-0.06,0,0,0s2.45,0,2.63.48l-0.09,0h0Z" transform="translate(-740.18 -1187.7)"/>
      <path d="M769.22,1212.64l-0.05-.08a0.39,0.39,0,0,1,.18,0c0.4-.06,1.61-0.27,1.86-0.75l0.09,0c-0.27.53-1.47,0.73-1.92,0.8l-0.14,0h0Z" transform="translate(-740.18 -1187.7)"/>
      <path d="M771.25,1213.56l0-.09a2.18,2.18,0,0,0,.81-0.77,0.27,0.27,0,0,0,0-.21l0.09,0a0.43,0.43,0,0,1-.06.42,2.44,2.44,0,0,1-.82.69h0Z" transform="translate(-740.18 -1187.7)"/>
      <path d="M768.77,1209.88l-0.19,0,0-.09a2.52,2.52,0,0,0,1.81-.69,1.91,1.91,0,0,0,.7-1.57h0.1a2,2,0,0,1-.73,1.65,2.83,2.83,0,0,1-1.7.73h0Z" transform="translate(-740.18 -1187.7)"/>
      <path d="M772,1208.69a2.54,2.54,0,0,1-1-.2l0-.09a2.28,2.28,0,0,0,2.44-.4l0.06,0.07a2.23,2.23,0,0,1-1.55.61h0Z" transform="translate(-740.18 -1187.7)"/>
      <path d="M775.37,1208.66a0.86,0.86,0,0,0-1-.23,1.59,1.59,0,0,1-1.17-.87l0.08,0a1.49,1.49,0,0,0,1.07.83,1,1,0,0,1,1.15.28l-0.08,0h0Z" transform="translate(-740.18 -1187.7)"/>
      <path d="M784.18,1215.41a0.93,0.93,0,0,1-.46-0.15l0-.08a0.62,0.62,0,0,0,.62.09c0.53-.27.65-1.64,0.74-2.64-0.17-3.22-1.26-3.46-3.64-4-0.53-.12-1.13-0.25-1.78-0.43-3.19-.46-3.17-2.75-3.17-2.78h0.1s0,2.23,3.09,2.68c0.66,0.18,1.26.31,1.79,0.43,2.36,0.52,3.54.78,3.72,4.08-0.11,1.28-.26,2.45-0.79,2.72a0.53,0.53,0,0,1-.25.06h0Z" transform="translate(-740.18 -1187.7)"/>
      <path d="M784.56,1214.28a0.79,0.79,0,0,1-.45-0.17l0.06-.07a0.67,0.67,0,0,0,.46.14,0.52,0.52,0,0,0,.35-0.27l0.08,0.05a0.62,0.62,0,0,1-.42.32h-0.08Z" transform="translate(-740.18 -1187.7)"/>
      <path d="M784.33,1213H784.2l0-.09a0.85,0.85,0,0,0,.9-0.48l0.09,0a0.93,0.93,0,0,1-.87.54h0Z" transform="translate(-740.18 -1187.7)"/>
      <path d="M784.33,1211.46a1.34,1.34,0,0,1-.31,0l0-.09a0.82,0.82,0,0,0,.87-0.26l0.09,0a0.7,0.7,0,0,1-.67.35h0Z" transform="translate(-740.18 -1187.7)"/>
      <path d="M783.34,1210.71l0-.08a5,5,0,0,0,.71-1.13l0.08,0a5.21,5.21,0,0,1-.75,1.17h0Z" transform="translate(-740.18 -1187.7)"/>
      <path d="M782.25,1210.45l-0.06-.07a2.5,2.5,0,0,0,.43-1.53h0.1a2.53,2.53,0,0,1-.46,1.6h0Z" transform="translate(-740.18 -1187.7)"/>
      <path d="M780.41,1210.18l-0.06-.07a2.24,2.24,0,0,0,.76-1.53h0.1a2.3,2.3,0,0,1-.79,1.6h0Z" transform="translate(-740.18 -1187.7)"/>
      <path d="M778.38,1209.9l-0.07-.07c0.19-.2,1.16-1.35.91-1.68l0.08-.06c0.34,0.44-.9,1.79-0.91,1.81h0Z" transform="translate(-740.18 -1187.7)"/>
      <path d="M776.51,1209.1V1209a1.71,1.71,0,0,0,1.4-1.43H778a1.8,1.8,0,0,1-1.48,1.51h0Z" transform="translate(-740.18 -1187.7)"/>
      <path d="M758.68,1205.13l0-.08s2.45-1.48,2.58-2.54h0.1c-0.14,1.1-2.53,2.55-2.63,2.61h0Z" transform="translate(-740.18 -1187.7)"/>
      <path d="M758.79,1203.84l-0.1,0,0.07-.06a3.41,3.41,0,0,0,2.12-2.05l0.09,0a3.51,3.51,0,0,1-2.18,2.11h0Z" transform="translate(-740.18 -1187.7)"/>
      <path d="M758.79,1202.92h0l0-.09h0c0.15,0,1.77-1.14,1.81-2h0.1c0,0.75-1.15,1.68-1.65,2a0.62,0.62,0,0,1-.26.12h0Z" transform="translate(-740.18 -1187.7)"/>
      <path d="M758.9,1201.82l0-.09a3.69,3.69,0,0,0,1.54-1.78l0.09,0a3.74,3.74,0,0,1-1.61,1.84h0Z" transform="translate(-740.18 -1187.7)"/>
      <path d="M759.14,1200.63l-0.05-.08a6,6,0,0,0,1.23-1.23l0.08,0.05a6,6,0,0,1-1.25,1.25h0Z" transform="translate(-740.18 -1187.7)"/>
      <path d="M759.5,1199.39h0a0.17,0.17,0,0,1-.11-0.18h0.1c0,0.08,0,.09,0,0.09a1.44,1.44,0,0,0,.78-0.61l0.08,0.06a1.69,1.69,0,0,1-.84.65h0Z" transform="translate(-740.18 -1187.7)"/>
      <polygon points="20.85 16.18 20.55 15.8 20.63 15.75 20.93 16.12 20.85 16.18 20.85 16.18"/>
      <polygon points="20.12 16.7 19.92 16.38 20 16.33 20.2 16.64 20.12 16.7 20.12 16.7"/>
      <path d="M759.66,1205a1.32,1.32,0,0,1-.25-0.37h0l0,0s0.23,0.33.23,0.33l-0.08.06h0Z" transform="translate(-740.18 -1187.7)"/>
      <path d="M759.29,1205.42a0.59,0.59,0,0,1-.3-0.55h0.1a0.5,0.5,0,0,0,.21.46v0.09h0Z" transform="translate(-740.18 -1187.7)"/>
      <path d="M759.59,1204.48h-0.06a1.65,1.65,0,0,1-.44-0.8l0.09,0a1.56,1.56,0,0,0,.39.74l0.1,0.08-0.08,0h0Z" transform="translate(-740.18 -1187.7)"/>
      <path d="M760.08,1204.09s-0.28-.8-0.3-0.85l0.09,0s0.23,0.66.3,0.86l-0.09,0h0Z" transform="translate(-740.18 -1187.7)"/>
      <polygon points="20.56 15.71 20.21 14.99 20.29 14.95 20.65 15.66 20.56 15.71 20.56 15.71"/>
      <path d="M760.49,1202.52A1,1,0,0,1,760,1202l0-.09,0,0a1,1,0,0,0,.41.43h0l0.05,0.08-0.05,0h0Z" transform="translate(-740.18 -1187.7)"/>
      <path d="M759.88,1203.27h-0.09a1.76,1.76,0,0,1-.35-0.78l0.09,0a1.78,1.78,0,0,0,.3.71l0,0.09h0Z" transform="translate(-740.18 -1187.7)"/>
      <polygon points="18.94 16 18.56 15.42 18.64 15.37 19.02 15.94 18.94 16 18.94 16"/>
      <path d="M759.6,1202.39a1.66,1.66,0,0,1-.31-0.87l0.09,0a2.5,2.5,0,0,0,.21.8v0.09h0Z" transform="translate(-740.18 -1187.7)"/>
      <path d="M760.25,1201.79a3.54,3.54,0,0,1-.46-0.78h0l0,0c0,0.06.35,0.66,0.39,0.71l0,0.08h0Z" transform="translate(-740.18 -1187.7)"/>
      <path d="M759.45,1201.4l-0.41-.45,0-.09a1.61,1.61,0,0,1,.45.48l-0.07.06h0Z" transform="translate(-740.18 -1187.7)"/>
      <path d="M760,1200.79s-0.31-.53-0.34-0.56l0.07-.06s0,0,.35.58l-0.08,0h0Z" transform="translate(-740.18 -1187.7)"/>
      <path d="M760,1199.9a0.86,0.86,0,0,1-.18-0.7h0.1a1.27,1.27,0,0,0,.09.61v0.1h0Z" transform="translate(-740.18 -1187.7)"/>
      <polygon points="19.63 11.5 19.3 11.03 19.38 10.97 19.7 11.45 19.63 11.5 19.63 11.5"/>
    </g>
  </g>
</svg>
