<svg xmlns="http://www.w3.org/2000/svg" xmlns:xlink="http://www.w3.org/1999/xlink" viewBox="0 0 58.92 34.37">
  <defs>
    <style>
      .a {
        fill: none;
      }

      .b {
        clip-path: url(#a);
      }

      .c {
        fill: #4a9318;
      }

      .d {
        fill: #f6d128;
      }

      .e {
        fill: #cb0423;
      }

      .f {
        fill: #fff;
      }

      .g {
        fill: #fcff2c;
      }
    </style>
    <clipPath id="a" transform="translate(-1022.94 -1187.7)">
      <rect class="a" x="1022.94" y="1187.7" width="58.92" height="34.37"/>
    </clipPath>
  </defs>
  <title>Zimbabwe</title>
  <g class="b">
    <rect class="c" width="58.92" height="34.37"/>
    <rect class="d" y="4.91" width="58.92" height="24.55"/>
    <rect class="e" y="9.82" width="58.92" height="14.73"/>
    <rect y="14.73" width="58.92" height="4.91"/>
    <polygon points="0 0 0 34.37 1.25 34.37 24.15 17.18 1.25 0 0 0"/>
    <polygon class="f" points="0 0 0 34.37 22.9 17.18 0 0"/>
    <polygon class="e" points="9.27 8.46 5.41 16.29 11.27 19.18 9.27 8.46"/>
    <polygon class="e" points="9.27 8.46 13.13 16.29 7.26 19.18 9.27 8.46"/>
    <polygon class="e" points="9.27 8.46 6.35 16.68 12.51 18.88 9.27 8.46"/>
    <polygon class="e" points="9.27 8.46 12.19 16.68 6.03 18.88 9.27 8.46"/>
    <polygon class="e" points="17.57 14.49 8.93 13.23 7.99 19.71 17.57 14.49"/>
    <polygon class="e" points="0.97 14.49 9.6 13.23 10.55 19.71 0.97 14.49"/>
    <polygon class="e" points="17.57 14.49 8.85 14.25 8.66 20.79 17.57 14.49"/>
    <polygon class="e" points="0.97 14.49 9.69 14.25 9.87 20.79 0.97 14.49"/>
    <polygon class="e" points="13.68 23.26 12.14 15.91 8.48 16.68 13.68 23.26"/>
    <polygon class="e" points="13.68 23.26 7.17 19.53 9.03 16.27 13.68 23.26"/>
    <polygon class="e" points="4.86 23.26 11.37 19.53 9.51 16.27 4.86 23.26"/>
    <polygon class="e" points="4.86 23.26 6.39 15.91 10.06 16.68 4.86 23.26"/>
    <g class="b">
      <path d="M1035.2,1210.34a9.61,9.61,0,0,1,.59-3.28,11.89,11.89,0,0,1,.78-1.71,1.73,1.73,0,0,1,.45.09c0.48,0.13.61,0.11,0.61-.12s-0.49-.56-2.9-2.58c-1.62-1.36-3-2.43-3-2.43a0.15,0.15,0,0,1-.14-0.08s-0.09-.57-0.17-1.17a9.6,9.6,0,0,0-.24-1.31,1,1,0,0,0-1-.58,0.94,0.94,0,0,0-.72.14,1.19,1.19,0,0,1-.53.17,0.51,0.51,0,0,0-.52.5v0.18h0.42c0.23,0,.35,0,0.26,0-0.3.06-.18,0.48,0.17,0.61s0.36,0.05.36,1.83a6.64,6.64,0,0,1-.12,2,3.25,3.25,0,0,0,0,1.71c0.06,0.2.11,0.38,0.11,0.4a3.76,3.76,0,0,1-.4.53,2.43,2.43,0,0,0-.64,1.35,0.67,0.67,0,0,1-.12.31,0.62,0.62,0,0,0,0,.7,15.73,15.73,0,0,1,.76,3.14c0,0.17,0,.17,1,0a13.34,13.34,0,0,1,3.42-.07c0.41,0.06.9,0.15,1.07,0.2,0.55,0.15.52,0.18,0.52-.53" transform="translate(-1022.94 -1187.7)"/>
      <path class="g" d="M1034.44,1210.7a10,10,0,0,0-2.78-.23c-0.53,0-1.08.07-1.23,0.09l-0.27.05-0.07-.45a2.68,2.68,0,0,1,0-.47,4.75,4.75,0,0,1,.57-0.1,17.2,17.2,0,0,1,4.27.11l0.19,0v0.54a0.68,0.68,0,0,1-.07.53l-0.57-.13" transform="translate(-1022.94 -1187.7)"/>
      <path class="g" d="M1029.34,1210.74c0-.13-0.32-1.68-0.46-2.23-0.1-.37-0.17-0.7-0.17-0.73a0.23,0.23,0,0,1,.2.08,0.75,0.75,0,0,0,.3.13c0.3,0,.46.45,0.71,2l0.09,0.53c0,0.12,0,.15-0.27.21s-0.4.08-.4,0" transform="translate(-1022.94 -1187.7)"/>
      <path class="g" d="M1035,1209.56a0.14,0.14,0,0,1,.05-0.14c0.07-.06.09-0.06,0.09,0s-0.09.2-.14,0.12" transform="translate(-1022.94 -1187.7)"/>
      <path class="g" d="M1030.34,1209.31c0.15-.17.16-0.17,0.28-0.05s0.12,0.13,0,.17a0.9,0.9,0,0,1-.28.05h-0.17Z" transform="translate(-1022.94 -1187.7)"/>
      <path class="g" d="M1034.17,1209.41a0.42,0.42,0,0,1,.14-0.16c0.1-.07.13-0.06,0.22,0.08l0.1,0.16h-0.24c-0.16,0-.23,0-0.22-0.07" transform="translate(-1022.94 -1187.7)"/>
      <path class="g" d="M1034.68,1209.32a0.5,0.5,0,0,1-.11-0.2,0.8,0.8,0,0,1,.27,0l0.25,0-0.14.15-0.14.15Z" transform="translate(-1022.94 -1187.7)"/>
      <path class="g" d="M1029.94,1209.33c0-.12.06-0.23,0.22-0.23s0.13,0,0,.19-0.15.14-.18,0" transform="translate(-1022.94 -1187.7)"/>
      <path class="g" d="M1031.3,1209.21l0.15-.18,0.15,0.14,0.17,0.15-0.3,0-0.32,0Z" transform="translate(-1022.94 -1187.7)"/>
      <path class="g" d="M1033.35,1209.36l-0.19,0,0.14-.14,0.14-.14,0.17,0.19c0.18,0.21.16,0.22-.25,0.14" transform="translate(-1022.94 -1187.7)"/>
      <path class="g" d="M1030.79,1209.2l-0.14-.16h0.21a1,1,0,0,0,.31,0c0.08,0,.07,0,0,0.16a0.69,0.69,0,0,1-.17.2,0.63,0.63,0,0,1-.17-0.16" transform="translate(-1022.94 -1187.7)"/>
      <path class="g" d="M1032.27,1209.16l0.17-.19,0.16,0.17a1.28,1.28,0,0,1,.16.19,1.35,1.35,0,0,1-.33,0h-0.33Z" transform="translate(-1022.94 -1187.7)"/>
      <path class="g" d="M1033.81,1209.2l-0.14-.16h0.27c0.29,0,.33,0,0.17.21s-0.14.14-.3-0.05" transform="translate(-1022.94 -1187.7)"/>
      <path class="g" d="M1031.78,1209.13l-0.14-.16h0.62l-0.14.16c-0.17.2-.18,0.2-0.35,0" transform="translate(-1022.94 -1187.7)"/>
      <path class="g" d="M1032.82,1209.13l-0.14-.16h0.62l-0.14.16c-0.17.2-.18,0.2-0.35,0" transform="translate(-1022.94 -1187.7)"/>
      <path class="g" d="M1034.68,1209c-0.14,0-.72-0.09-1.28-0.13a15.78,15.78,0,0,0-3.26.11c-0.22,0-.27,0-0.27-0.06s1.16-.28,3-0.28c0.88,0,1.77,0,2,.05s0.39,0.06.39,0.21,0,0.18-.52.09" transform="translate(-1022.94 -1187.7)"/>
      <path class="g" d="M1030.17,1208.42a1.07,1.07,0,0,1,.26-0.22,0.53,0.53,0,0,1,.18.16l0.13,0.16-0.28,0-0.4.07c-0.09,0-.06,0,0.1-0.2" transform="translate(-1022.94 -1187.7)"/>
      <path class="g" d="M1029.76,1208.45c0-.13,0-0.16.07-0.21a0.47,0.47,0,0,1,.23,0c0.09,0,.09,0-0.07.21l-0.18.19Z" transform="translate(-1022.94 -1187.7)"/>
      <path class="g" d="M1035.14,1208.52a0.13,0.13,0,0,1,.08-0.09c0.06,0,.07,0,0.05.06s-0.14.13-.14,0" transform="translate(-1022.94 -1187.7)"/>
      <path class="g" d="M1031.24,1208.29l0.16-.21,0.18,0.17,0.18,0.18-0.34,0-0.34,0Z" transform="translate(-1022.94 -1187.7)"/>
      <path class="g" d="M1034.34,1208.47l-0.25,0,0.18-.17,0.18-.17,0.14,0.15c0.16,0.16.18,0.26,0.07,0.24l-0.32,0" transform="translate(-1022.94 -1187.7)"/>
      <path class="g" d="M1030.76,1208.29l-0.17-.15,0.28,0a0.91,0.91,0,0,1,.3,0,0.44,0.44,0,0,1-.11.2l-0.13.17Z" transform="translate(-1022.94 -1187.7)"/>
      <path class="g" d="M1033.29,1208.4l-0.13,0,0.15-.15c0.13-.13.16-0.14,0.24-0.07a0.79,0.79,0,0,1,.15.2c0,0.1,0,.12-0.1.11a1.29,1.29,0,0,1-.3,0" transform="translate(-1022.94 -1187.7)"/>
      <path class="g" d="M1034.76,1208.25l-0.17-.2,0.14,0a1.79,1.79,0,0,0,.38,0h0.23l-0.17.16a1.07,1.07,0,0,1-.21.16,0.94,0.94,0,0,1-.2-0.2" transform="translate(-1022.94 -1187.7)"/>
      <path class="g" d="M1031.79,1208.24a0.58,0.58,0,0,1-.12-0.19,0.65,0.65,0,0,1,.33,0h0.33l-0.11.14c-0.19.24-.29,0.26-0.42,0.1" transform="translate(-1022.94 -1187.7)"/>
      <path class="g" d="M1032.32,1208.22c0.19-.18.25-0.18,0.37,0s0.08,0.14-.23.14h-0.31Z" transform="translate(-1022.94 -1187.7)"/>
      <path class="g" d="M1033.76,1208.19l-0.13-.19h0.14a1.66,1.66,0,0,1,.32,0l0.18,0-0.16.15a1,1,0,0,1-.19.15,1.19,1.19,0,0,1-.16-0.19" transform="translate(-1022.94 -1187.7)"/>
      <path class="g" d="M1032.82,1208.16l-0.14-.16h0.62l-0.14.16c-0.17.2-.18,0.2-0.35,0" transform="translate(-1022.94 -1187.7)"/>
      <path class="g" d="M1029.72,1208a4.32,4.32,0,0,0,.11-0.43l0.07-.32,0.64-.36a7.15,7.15,0,0,0,.87-0.55l0.3-.24a16,16,0,0,1,2.51.19c0.57,0.09,1.58.29,1.61,0.32a6.13,6.13,0,0,1-.2.65c-0.12.35-.22,0.68-0.23,0.73s-0.09.08-.28,0a23.21,23.21,0,0,0-4.75,0c-0.6.1-.69,0.09-0.64,0" transform="translate(-1022.94 -1187.7)"/>
      <path d="M1034.57,1207.55a0.65,0.65,0,0,0-.41-1.1,0.59,0.59,0,0,0-.58.64,0.57,0.57,0,0,0,1,.46" transform="translate(-1022.94 -1187.7)"/>
      <path class="g" d="M1033.94,1207.54a0.53,0.53,0,0,1,0-.89,0.45,0.45,0,0,1,.64.46,0.47,0.47,0,0,1-.68.43" transform="translate(-1022.94 -1187.7)"/>
      <path d="M1032.24,1207.51a0.68,0.68,0,0,0-.15-1.1,0.54,0.54,0,0,0-.72.26,0.6,0.6,0,0,0,.09.79,0.49,0.49,0,0,0,.78.05" transform="translate(-1022.94 -1187.7)"/>
      <path class="g" d="M1031.68,1207.48a0.52,0.52,0,0,1,.19-1,0.51,0.51,0,0,1,.2.94,0.3,0.3,0,0,1-.38,0" transform="translate(-1022.94 -1187.7)"/>
      <path class="g" d="M1029.46,1207.77a0.54,0.54,0,0,0,0-.54s-0.08.08-.08,0.23a0.55,0.55,0,0,1-.08.31c-0.06.07-.07,0,0-0.29a0.72,0.72,0,0,0,0-.37,1.16,1.16,0,0,0-.19.58c0,0.16,0,.16-0.07,0a0.53,0.53,0,0,1,.08-0.43,1.18,1.18,0,0,0,.13-0.43,1.78,1.78,0,0,1,.64-0.89c0.36-.38.77-0.86,0.92-1.06a0.82,0.82,0,0,0,.26-0.73,1.46,1.46,0,0,0,0-.41c-0.07-.08-0.16.31-0.12,0.53a0.87,0.87,0,0,1-.37.73c-0.23.29-.61,0.72-0.85,1a1.52,1.52,0,0,0-.61.91,1.53,1.53,0,0,1-.11.4,0.74,0.74,0,0,0-.08.35s0,0,0,0a0.41,0.41,0,0,1,0-.35,1,1,0,0,0,0-.33c-0.06-.11-0.14,0-0.17.34a0.38,0.38,0,0,1-.09.28,0.57,0.57,0,0,1,0-.54,1.49,1.49,0,0,0,.14-0.45,2.62,2.62,0,0,1,.66-1.3c0.2-.25.37-0.46,0.37-0.47s-0.05-.19-0.12-0.4a3.27,3.27,0,0,1,0-1.67,3.71,3.71,0,0,1,.92-1.43,2.06,2.06,0,0,1,1.18-.78c0.2,0,5.81,4.73,5.81,4.86a0.09,0.09,0,0,1-.1.09c-0.06,0-1.48-.43-3.17-1-2.7-.84-3.09-1-3.2-1.13a0.66,0.66,0,0,1,0-.76,0.61,0.61,0,0,0,.12-0.25c0-.14-0.29.22-0.34,0.43a0.93,0.93,0,0,0,.23.8,8.57,8.57,0,0,0,1.14.42c1,0.3,1,.34,1.07.5a1,1,0,0,1-.86,1,1.62,1.62,0,0,0-.59.3,7.63,7.63,0,0,1-1.49,1,2.73,2.73,0,0,0-.48.26,1.22,1.22,0,0,0-.13.42c-0.07.4-.1,0.46-0.21,0.46s-0.07,0,0-.17" transform="translate(-1022.94 -1187.7)"/>
      <path class="g" d="M1035.34,1206.29a18.3,18.3,0,0,0-2.5-.37l-0.92-.08,0.35-.14a5.32,5.32,0,0,0,.61-0.3,0.88,0.88,0,0,1,.67-0.12,1,1,0,0,0,1-.29l0.11-.2a8.08,8.08,0,0,1,.91.25l0.9,0.28-0.17.33c-0.1.18-.22,0.42-0.27,0.54s-0.14.24-.68,0.11" transform="translate(-1022.94 -1187.7)"/>
      <path class="g" d="M1033.3,1205.11s0-.07,0-0.16,0.09-.09.11,0,0,0.27-.12.21" transform="translate(-1022.94 -1187.7)"/>
      <path class="g" d="M1033.52,1205.1c0-.08,0-0.08.09,0s0,0.06,0,.06a0.06,0.06,0,0,1-.06-0.06" transform="translate(-1022.94 -1187.7)"/>
      <path class="g" d="M1033.81,1205.06c0-.06,0-0.08.06-0.06s0.08,0.16,0,.16a0.09,0.09,0,0,1-.06-0.1" transform="translate(-1022.94 -1187.7)"/>
      <path class="g" d="M1034.08,1205.06a0.25,0.25,0,0,1,0-.15c0-.07,0-0.08.06,0a0.17,0.17,0,0,1,0,.14s0,0.05-.06,0" transform="translate(-1022.94 -1187.7)"/>
      <path class="g" d="M1033.62,1204.93a0.26,0.26,0,0,1,0-.15c0-.07,0-0.08.06,0a0.18,0.18,0,0,1,0,.15s0,0.05-.07,0" transform="translate(-1022.94 -1187.7)"/>
      <path class="g" d="M1034.3,1204.9c-0.06-.11,0-0.14.09,0s0.05,0.1,0,.1a0.13,0.13,0,0,1-.1-0.07" transform="translate(-1022.94 -1187.7)"/>
      <path class="g" d="M1033.84,1204.78a0.08,0.08,0,0,1,0-.1s0.06,0,.06.06,0,0.13-.08,0" transform="translate(-1022.94 -1187.7)"/>
      <path class="g" d="M1034.1,1204.67c0-.05,0-0.08.06-0.06s0.08,0.16,0,.16a0.09,0.09,0,0,1-.06-0.1" transform="translate(-1022.94 -1187.7)"/>
      <path class="g" d="M1033.4,1204.62c0-.11,0-0.13.08,0a0.08,0.08,0,0,1,0,.1s-0.06,0-.06-0.06" transform="translate(-1022.94 -1187.7)"/>
      <path class="g" d="M1033.63,1204.54c0-.05,0-0.08.06-0.06s0.07,0.16,0,.16a0.09,0.09,0,0,1-.06-0.1" transform="translate(-1022.94 -1187.7)"/>
      <path class="g" d="M1029.73,1201.44c0-.28,0-0.93,0-1.45,0-1.07,0-1.17-.32-1.29s-0.36-.18-0.36-0.3,0.06-.09.35-0.06,0.35,0,.33-0.06a0.91,0.91,0,0,0-.87-0.27c-0.34,0-.38,0-0.36-0.09a0.53,0.53,0,0,1,.52-0.36,1.5,1.5,0,0,0,.5-0.16,1,1,0,0,1,.65-0.11c0.76,0,.9.27,1.1,1.71,0.08,0.56.14,1.08,0.14,1.16a0.7,0.7,0,0,1-.37.4,5.46,5.46,0,0,0-1.15,1.16l-0.15.22Z" transform="translate(-1022.94 -1187.7)"/>
      <path d="M1030.3,1198.06a0.23,0.23,0,0,0,0-.29c-0.08-.2-0.18-0.16-0.14.07s0,0.16-.09.16-0.12,0-.12-0.2,0-.19-0.09-0.12a0.27,0.27,0,0,0,0,.4,0.23,0.23,0,0,0,.4,0" transform="translate(-1022.94 -1187.7)"/>
    </g>
  </g>
</svg>
