<svg xmlns="http://www.w3.org/2000/svg" viewBox="0 0 68 68">
  <defs>
    <style>
      .a {
        fill: #2f3e4c;
      }

      .b {
        fill: #546270;
      }
    </style>
  </defs>
  <title>Days</title>
  <g>
    <path class="a" d="M57,68H11A11.01245,11.01245,0,0,1,0,57V11A11.01245,11.01245,0,0,1,11,0H57A11.01245,11.01245,0,0,1,68,11V57A11.01245,11.01245,0,0,1,57,68ZM11,2a9.01047,9.01047,0,0,0-9,9V57a9.01047,9.01047,0,0,0,9,9H57a9.01047,9.01047,0,0,0,9-9V11a9.01047,9.01047,0,0,0-9-9Z"/>
    <g>
      <path class="b" d="M34.5,30A6.5,6.5,0,1,0,41,36.5,6.5,6.5,0,0,0,34.5,30Zm.262,7.426L34.5,37H34V32h1v4.10535L37.893,34.326l.524.852Z"/>
      <g>
        <rect class="b" x="27" y="20" width="16" height="1"/>
        <polygon class="b" points="48 20 48 21 52 21 52 51 18 51 18 21 22 21 22 20 17 20 17 52 53 52 53 20 48 20"/>
        <path class="b" d="M24.5,16A1.5,1.5,0,0,1,26,17.5v5a1.5,1.5,0,0,1-3,0v-5A1.5,1.5,0,0,1,24.5,16Z"/>
        <path class="b" d="M45.5,16A1.5,1.5,0,0,1,47,17.5v5a1.5,1.5,0,0,1-3,0v-5A1.5,1.5,0,0,1,45.5,16Z"/>
      </g>
    </g>
  </g>
</svg>
