<svg xmlns="http://www.w3.org/2000/svg" viewBox="0 0 160 68">
  <defs>
    <style>
      .a {
        fill: #2f3e4c;
      }

      .b {
        fill: #546270;
      }
    </style>
  </defs>
  <title>Mix</title>
  <g>
    <path class="a" d="M149,68H11A11.01245,11.01245,0,0,1,0,57V11A11.01245,11.01245,0,0,1,11,0H149a11.01246,11.01246,0,0,1,11,11V57A11.01246,11.01246,0,0,1,149,68ZM11,2a9.01015,9.01015,0,0,0-9,9V57a9.01015,9.01015,0,0,0,9,9H149a9.00984,9.00984,0,0,0,9-9V11a9.00984,9.00984,0,0,0-9-9Z"/>
    <g>
      <path class="b" d="M131.928,34.99v.001A2.011,2.011,0,1,0,134,37,2.042,2.042,0,0,0,131.928,34.99Z"/>
      <rect class="b" x="39.99298" y="20.00403" width="5" height="1"/>
      <path class="b" d="M128.00385,18.3623q.06262.0618.12421.12469l.879-.89a11.94889,11.94889,0,0,0-8.524-3.581v.001a11.94363,11.94363,0,0,0-8.49,3.549l.879.889A10.7,10.7,0,0,1,128.00385,18.3623Z"/>
      <path class="b" d="M126.311,20.379a8.12709,8.12709,0,0,0-11.49335-.01172l-.00964.0097v.001l.948.96a6.8,6.8,0,0,1,9.607,0Z"/>
      <path class="b" d="M42.993,48.006h-.006a.997.997,0,1,0,.006,0Z"/>
      <path class="b" d="M117.447,23.049v.001l.946.957a3.1,3.1,0,0,1,4.333,0l.945-.957A4.422,4.422,0,0,0,117.447,23.049Z"/>
      <path class="b" d="M53,10.007v1.319a6.747,6.747,0,0,1,6.685,6.686H61A8.067,8.067,0,0,0,53,10.007Z"/>
      <polygon class="b" points="81 27 79 27 79 34 72 34 72 36 79 36 79 43 81 43 81 36 88 36 88 34 81 34 81 27"/>
      <rect class="b" x="106" y="36.026" width="19.08502" height="1.95001"/>
      <path class="b" d="M137,27H103a4.255,4.255,0,0,0-4,4.471V41.532A4.255,4.255,0,0,0,103,46h34a4.255,4.255,0,0,0,4-4.471V31.47A4.255,4.255,0,0,0,137,27Zm2,14.53094a2.259,2.259,0,0,1-2,2.444H103a2.259,2.259,0,0,1-2-2.444V31.47a2.258,2.258,0,0,1,2-2.444h34a2.25792,2.25792,0,0,1,2,2.444Z"/>
      <path class="b" d="M50.993,16.005h-16a3,3,0,0,0-3,3V50a3,3,0,0,0,3,3h16a3,3,0,0,0,3-3V19A3,3,0,0,0,50.993,16.005ZM34.993,18h16a1,1,0,0,1,1,1V46.012h-18V19A1,1,0,0,1,34.993,18Zm16,32.997h-16a1,1,0,0,1-1-1V47.012h18v2.985A1,1,0,0,1,50.993,50.997Z"/>
      <path class="b" d="M53,13.68V15a3.073,3.073,0,0,1,3.015,3.015h1.316A4.391,4.391,0,0,0,53,13.68Z"/>
    </g>
  </g>
</svg>
