<svg xmlns="http://www.w3.org/2000/svg" viewBox="0 0 68 68">
  <defs>
    <style>
      .a {
        fill: #2f3e4c;
      }
      .b {
        fill: #546270;
      }
    </style>
  </defs>
  <title>Mobile</title>
  <g>
    <path class="a" d="M57,68H11A11.01245,11.01245,0,0,1,0,57V11A11.01245,11.01245,0,0,1,11,0H57A11.01245,11.01245,0,0,1,68,11V57A11.01245,11.01245,0,0,1,57,68ZM11,2a9.01047,9.01047,0,0,0-9,9V57a9.01047,9.01047,0,0,0,9,9H57a9.01047,9.01047,0,0,0,9-9V11a9.01047,9.01047,0,0,0-9-9Z"/>
    <path class="b" d="M41.993,17.005h-16a3,3,0,0,0-3,3V51a3,3,0,0,0,3,3h16a3,3,0,0,0,3-3V20A3,3,0,0,0,41.993,17.005Zm1,33.992a1,1,0,0,1-1,1h-16a1,1,0,0,1-1-1V20a1,1,0,0,1,1-1h16a1,1,0,0,1,1,1Zm-12-29.993v1h5v-1ZM24.987,47.012v1H43v-1Zm9,1.993a.997.997,0,1,0,.006,0ZM44,14.681V16a3.073,3.073,0,0,1,3.015,3.015h1.316A4.389,4.389,0,0,0,44,14.681Zm0-3.674v1.319a6.745,6.745,0,0,1,6.684,6.686H52A8.068,8.068,0,0,0,44,11.007Z"/>
  </g>
</svg>
