<svg xmlns="http://www.w3.org/2000/svg" viewBox="0 0 68 68">
  <defs>
    <style>
      .a {
        fill: #2f3e4c;
      }

      .b {
        fill: #546270;
      }
    </style>
  </defs>
  <title>Months</title>
  <g>
    <path class="a" d="M57,68H11A11.01245,11.01245,0,0,1,0,57V11A11.01245,11.01245,0,0,1,11,0H57A11.01245,11.01245,0,0,1,68,11V57A11.01245,11.01245,0,0,1,57,68ZM11,2a9.01047,9.01047,0,0,0-9,9V57a9.01047,9.01047,0,0,0,9,9H57a9.01015,9.01015,0,0,0,9-9V11a9.01015,9.01015,0,0,0-9-9Z"/>
    <g>
      <path class="b" d="M28,28h5v3H28Zm0,5h5v3H28Zm0,5h5v3H28Zm0,5h5v3H28Zm7-15h5v3H35Zm0,5h5v3H35Zm0,5h5v3H35Zm0,5h5v3H35Zm7-15h5v3H42Zm0,5h5v3H42Zm0,5h5v3H42Zm0,5h5v3H42ZM21,28h5v3H21Zm0,5h5v3H21Zm0,5h5v3H21Zm0,5h5v3H21Z"/>
      <g>
        <rect class="b" x="26" y="20" width="16" height="1"/>
        <polygon class="b" points="47 20 47 21 51 21 51 51 17 51 17 21 21 21 21 20 16 20 16 52 52 52 52 20 47 20"/>
        <path class="b" d="M23.5,16A1.5,1.5,0,0,1,25,17.5v5a1.5,1.5,0,0,1-3,0v-5A1.5,1.5,0,0,1,23.5,16Z"/>
        <path class="b" d="M44.5,16A1.5,1.5,0,0,1,46,17.5v5a1.5,1.5,0,0,1-3,0v-5A1.5,1.5,0,0,1,44.5,16Z"/>
      </g>
    </g>
  </g>
</svg>
