<svg xmlns="http://www.w3.org/2000/svg" viewBox="0 0 68 68">
  <defs>
    <style>
      .a {
        fill: #2f3e4c;
      }

      .b {
        fill: #546270;
      }
    </style>
  </defs>
  <title>Weeks</title>
  <g>
    <path class="a" d="M57,68H11A11.01245,11.01245,0,0,1,0,57V11A11.01245,11.01245,0,0,1,11,0H57A11.01245,11.01245,0,0,1,68,11V57A11.01245,11.01245,0,0,1,57,68ZM11,2a9.01047,9.01047,0,0,0-9,9V57a9.01047,9.01047,0,0,0,9,9H57a9.01047,9.01047,0,0,0,9-9V11a9.01047,9.01047,0,0,0-9-9Z"/>
    <g>
      <path class="b" d="M27.375,27A2.375,2.375,0,1,1,25,29.375,2.375,2.375,0,0,1,27.375,27ZM34,27a2.375,2.375,0,1,1-2.3438,2.4058l-.0002-.0308A2.36,2.36,0,0,1,34,27Zm6.625,0a2.375,2.375,0,1,1-2.375,2.375A2.375,2.375,0,0,1,40.625,27Zm-13.25,6.656a2.35812,2.35812,0,1,1-.0011,0Zm6.625,0A2.344,2.344,0,1,1,31.656,36h0A2.344,2.344,0,0,1,34,33.656Zm6.625,0a2.35812,2.35812,0,1,1-.0011,0ZM27.375,40.25A2.375,2.375,0,1,1,25,42.625h0A2.375,2.375,0,0,1,27.375,40.25Z"/>
      <g>
        <rect class="b" x="26" y="20" width="16" height="1"/>
        <polygon class="b" points="47 20 47 21 51 21 51 51 17 51 17 21 21 21 21 20 16 20 16 52 52 52 52 20 47 20"/>
        <path class="b" d="M23.5,16A1.5,1.5,0,0,1,25,17.5v5a1.5,1.5,0,0,1-3,0v-5A1.5,1.5,0,0,1,23.5,16Z"/>
        <path class="b" d="M44.5,16A1.5,1.5,0,0,1,46,17.5v5a1.5,1.5,0,0,1-3,0v-5A1.5,1.5,0,0,1,44.5,16Z"/>
      </g>
    </g>
  </g>
</svg>
