<svg xmlns="http://www.w3.org/2000/svg" viewBox="0 0 68 68">
  <defs>
    <style>
      .a {
        fill: #2f3e4c;
      }

      .b {
        fill: #546270;
      }
    </style>
  </defs>
  <title>Wi-fi</title>
  <g>
    <path class="a" d="M57,68H11A11.01245,11.01245,0,0,1,0,57V11A11.01245,11.01245,0,0,1,11,0H57A11.01245,11.01245,0,0,1,68,11V57A11.01245,11.01245,0,0,1,57,68ZM11,2a9.01047,9.01047,0,0,0-9,9V57a9.01047,9.01047,0,0,0,9,9H57a9.01015,9.01015,0,0,0,9-9V11a9.01015,9.01015,0,0,0-9-9Z"/>
    <path class="b" d="M51,31.026a2.259,2.259,0,0,1,2,2.444V43.531a2.259,2.259,0,0,1-2,2.444H17a2.259,2.259,0,0,1-2-2.444V33.47a2.259,2.259,0,0,1,2-2.444H51M51,29H17a4.255,4.255,0,0,0-4,4.471V43.532A4.255,4.255,0,0,0,17,48H51a4.255,4.255,0,0,0,4-4.471V33.47A4.255,4.255,0,0,0,51,29ZM20,39.976H39.085V38.027H20Zm25.928-2.985A2.011,2.011,0,1,0,48,39a2.042,2.042,0,0,0-2.072-2.01ZM31.447,25.05l.946.957a3.1,3.1,0,0,1,4.333,0l.945-.957a4.422,4.422,0,0,0-6.22406-.001Zm-2.639-2.672.948.959a6.8,6.8,0,0,1,9.607,0l.948-.959a8.127,8.127,0,0,0-11.49331-.01069h0L28.808,22.377Zm5.675-6.361a11.944,11.944,0,0,0-8.49,3.549l.879.889a10.7,10.7,0,0,1,15.13179-.09373l0,0q.06262.06184.12421.12473l.879-.889a11.949,11.949,0,0,0-8.524-3.581Z"/>
  </g>
</svg>
